# CAD visual only; metres; body-local coordinates
v 0.0442648846 0.0718420454 0.0075
v 0.0442648846 0.0718420454 0.009499998
v 0.0474970586 0.0691951414 0.0075
v 0.0474820286 0.0692314194 0.009499998
v 0.0474676286 0.0692679444 0.0075
v 0.0473948436 0.0694919434 0.009499998
v 0.0473850206 0.0695299574 0.0075
v 0.0473458816 0.0697223134 0.009499998
v 0.0473400836 0.0697611474 0.0075
v 0.0473195606 0.0699957504 0.009499998
v 0.0473185306 0.0700350234 0.0075
v 0.0473236616 0.0702312324 0.009499998
v 0.0473267516 0.0702703904 0.0075
v 0.0473523666 0.0704649964 0.009499998
v 0.0473595196 0.0705036014 0.0075
v 0.0474164926 0.0707321204 0.009499998
v 0.0474283176 0.0707695624 0.0075
v 0.0474970586 0.0709534304 0.009499998
v 0.0477478936 0.0687517594 0.0075
v 0.0476002846 0.0689834634 0.009499998
v 0.0475815536 0.0690179674 0.0075
v 0.0475126986 0.0691591304 0.009499998
v 0.0475126986 0.0709894414 0.0075
v 0.0475126986 0.0709894414 0.009499998
v 0.0475289876 0.0710251664 0.0075
v 0.0476395566 0.0712331244 0.009499998
v 0.0476600796 0.0712665984 0.0075
v 0.0477478936 0.0713967934 0.009499998
v 0.0479771956 0.0684832994 0.0075
v 0.0479771956 0.0684832994 0.009499998
v 0.0479496726 0.0685112994 0.0075
v 0.0477712586 0.0687201924 0.009499998
v 0.0477712586 0.0714283604 0.0075
v 0.0478196106 0.0714902534 0.009499998
v 0.0479771956 0.0716652724 0.0075
v 0.0479771956 0.0716652724 0.009499998
v 0.0482456736 0.0682539984 0.0075
v 0.0480051956 0.0684557764 0.009499998
v 0.0480051956 0.0716927954 0.0075
v 0.0480626446 0.0717463534 0.009499998
v 0.0480920556 0.0717723694 0.0075
v 0.0482456736 0.0718945734 0.009499998
v 0.0484773596 0.0681063884 0.0075
v 0.0482776406 0.0682311864 0.009499998
v 0.0482776406 0.0719173664 0.0075
v 0.0483758696 0.0719823884 0.009499998
v 0.0484093436 0.0720029114 0.0075
v 0.0484773596 0.0720421834 0.009499998
v 0.0487253146 0.0679881134 0.0075
v 0.0487253146 0.0679881134 0.009499998
v 0.0486890366 0.0680031434 0.0075
v 0.0485118826 0.0680876584 0.009499998
v 0.0485118826 0.0720609134 0.0075
v 0.0487253146 0.0721604384 0.009499998
v 0.0489858396 0.0679009484 0.0075
v 0.0487618596 0.0679737324 0.009499998
v 0.0487618596 0.0721748394 0.0075
v 0.0489858396 0.0722476234 0.009499998
v 0.0492162086 0.0678519864 0.0075
v 0.0490238526 0.0678911254 0.009499998
v 0.0490238526 0.0722574464 0.0075
v 0.0492162086 0.0722965854 0.009499998
v 0.0494896656 0.0678256454 0.0075
v 0.0492550426 0.0678461884 0.009499998
v 0.0492550426 0.0723023834 0.0075
v 0.0494896656 0.0723229064 0.009499998
v 0.0497251466 0.0678297654 0.0075
v 0.0495289186 0.0678246154 0.009499998
v 0.0495289186 0.0723239364 0.0075
v 0.0497251466 0.0723188064 0.009499998
v 0.0495681916 0.0771453514 -0.022600002
v 0.0495681916 0.0771453514 0.0075
v 0.0495681916 0.0771453514 0.009499998
v 0.0495681916 0.0771453514 0.013500004
v 0.0499974976 0.0678656234 0.0075
v 0.0497642856 0.0678328364 0.009499998
v 0.0497642856 0.0723157164 0.0075
v 0.0499974976 0.0722829484 0.009499998
v 0.0502260166 0.0679225964 0.0075
v 0.0500359876 0.0678734444 0.009499998
v 0.0501505236 0.0722476234 0.0075
v 0.0502260166 0.0722259754 0.009499998
v 0.0500359876 0.0722751084 0.0075
v 0.0501125106 0.0722574464 0.009499998
v 0.0504110486 0.0679881134 0.0075
v 0.0502634766 0.0679344024 0.009499998
v 0.0504833366 0.0680188034 0.0075
v 0.0504473266 0.0680031434 0.009499998
v 0.0502634766 0.0722141494 0.0075
v 0.0504833366 0.0721297684 0.009499998
v 0.0507270196 0.0681456604 0.0075
v 0.0505190806 0.0680350914 0.009499998
v 0.0505190806 0.0721134804 0.0075
v 0.0507270196 0.0720029114 0.009499998
v 0.0508587416 0.0682311864 0.0075
v 0.0507605126 0.0681661644 0.009499998
v 0.0509841496 0.0683256954 0.0075
v 0.0508907086 0.0682539984 0.009499998
v 0.0507605126 0.0719823884 0.0075
v 0.0509841496 0.0718228574 0.009499998
v 0.0511591676 0.0684832994 0.0075
v 0.0510144576 0.0683506814 0.009499998
v 0.0512402686 0.0685687294 0.0075
v 0.0511866906 0.0685112994 0.009499998
v 0.0510737376 0.0717463534 0.0075
v 0.0512402686 0.0715798234 0.009499998
v 0.0510144576 0.0717978904 0.0075
v 0.0510443266 0.0717723694 0.009499998
v 0.0513651236 0.0687201924 0.0075
v 0.0512662846 0.0685981414 0.009499998
v 0.0514968066 0.0689154474 0.0075
v 0.0513884696 0.0687517594 0.009499998
v 0.0514968066 0.0712331244 0.0075
v 0.0514968066 0.0712331244 0.009499998
v 0.0513167716 0.0714902534 0.0075
v 0.0514763026 0.0712665984 0.009499998
v 0.0512662846 0.0715504114 0.0075
v 0.0512917856 0.0715205614 0.009499998
v 0.0515360786 0.0689834634 0.0075
v 0.0515167386 0.0689492844 0.009499998
v 0.0516543536 0.0692314194 0.0075
v 0.0515548096 0.0690179674 0.009499998
v 0.0517415196 0.0694919434 0.0075
v 0.0516687356 0.0692679444 0.009499998
v 0.0517198716 0.0707321204 0.0075
v 0.0517415196 0.0706566284 0.009499998
v 0.0516236646 0.0709894414 0.0075
v 0.0517080646 0.0707695624 0.009499998
v 0.0515167386 0.0711992874 0.0075
v 0.0516073756 0.0710251664 0.009499998
v 0.0517904816 0.0697223134 0.0075
v 0.0517513426 0.0695299574 0.009499998
v 0.0518168216 0.0699957504 0.0075
v 0.0517962796 0.0697611474 0.009499998
v 0.0518127016 0.0702312324 0.0075
v 0.0518178516 0.0700350234 0.009499998
v 0.0517839966 0.0704649964 0.0075
v 0.0518096306 0.0702703904 0.009499998
v 0.0517513426 0.0706186144 0.0075
v 0.0517768436 0.0705036014 0.009499998
v 0.0544469216 0.0624970764 0.0075
v 0.0544469216 0.0624970764 0.009499998
v 0.0544060286 0.0627290104 0.0075
v 0.0544060286 0.0627290104 0.009499998
v 0.0543895866 0.0629639474 0.0075
v 0.0543895866 0.0629639474 0.009499998
v 0.0544015846 0.0632384054 0.0075
v 0.0544015846 0.0632384054 0.009499998
v 0.0544384156 0.0634710164 0.0075
v 0.0544384156 0.0634710164 0.009499998
v 0.0544993736 0.0636985054 0.0075
v 0.0544993736 0.0636985054 0.009499998
v 0.0546344906 0.0619817394 0.0075
v 0.0546344906 0.0619817394 0.009499998
v 0.0545249516 0.0622336714 0.0075
v 0.0545249516 0.0622336714 0.009499998
v 0.0545118286 0.0622706834 0.0075
v 0.0545118286 0.0622706834 0.009499998
v 0.0545118286 0.0637357464 0.0075
v 0.0545118286 0.0637357464 0.009499998
v 0.0546169616 0.0639895484 0.0075
v 0.0546169616 0.0639895484 0.009499998
v 0.0547311356 0.0641955324 0.0075
v 0.0547311356 0.0641955324 0.009499998
v 0.0549671706 0.0614976734 0.0075
v 0.0549671706 0.0614976734 0.009499998
v 0.0547739176 0.0617450284 0.0075
v 0.0547739176 0.0617450284 0.009499998
v 0.0547522506 0.0617777774 0.0075
v 0.0547522506 0.0617777774 0.009499998
v 0.0547522506 0.0642286534 0.0075
v 0.0547522506 0.0642286534 0.009499998
v 0.0549411546 0.0644793454 0.0075
v 0.0549411546 0.0644793454 0.009499998
v 0.0549937016 0.0645377104 0.0075
v 0.0549937016 0.0645377104 0.009499998
v 0.0550207476 0.0614402334 0.0075
v 0.0550207476 0.0614402334 0.009499998
v 0.0550482706 0.0645942064 0.0075
v 0.0550482706 0.0645942064 0.009499998
v 0.0552232896 0.0647517914 0.0075
v 0.0552232896 0.0647517914 0.009499998
v 0.0552540166 0.0612301864 0.0075
v 0.0552540166 0.0612301864 0.009499998
v 0.0554804186 0.0649318454 0.0075
v 0.0554804186 0.0649318454 0.009499998
v 0.0556177666 0.0609984534 0.0075
v 0.0556177666 0.0609984534 0.009499998
v 0.0555142556 0.0610546534 0.0075
v 0.0555142556 0.0610546534 0.009499998
v 0.0555829386 0.0649898474 0.0075
v 0.0555829386 0.0649898474 0.009499998
v 0.0557241016 0.0650586934 0.0075
v 0.0557241016 0.0650586934 0.009499998
v 0.0557601126 0.0609320774 0.0075
v 0.0557601126 0.0609320774 0.009499998
v 0.0559814216 0.0651549004 0.0075
v 0.0559814216 0.0651549004 0.009499998
v 0.0560190736 0.0608403724 0.0075
v 0.0560190736 0.0608403724 0.009499998
v 0.0562485466 0.0652190344 0.0075
v 0.0562485466 0.0652190344 0.009499998
v 0.0562872846 0.0607809104 0.0075
v 0.0562872846 0.0607809104 0.009499998
v 0.0564822916 0.0652477304 0.0075
v 0.0564822916 0.0652477304 0.009499998
v 0.0565214876 0.0607562964 0.0075
v 0.0565214876 0.0607562964 0.009499998
v 0.0567177726 0.0652518414 0.0075
v 0.0567177726 0.0652518414 0.009499998
v 0.0567570076 0.0607562964 0.0075
v 0.0567570076 0.0607562964 0.009499998
v 0.0569912296 0.0652255104 0.0075
v 0.0569912296 0.0652255104 0.009499998
v 0.0567570076 0.0652501334 0.0075
v 0.0567570076 0.0652501334 0.009499998
v 0.0570299676 0.0607873954 0.0075
v 0.0570299676 0.0607873954 0.009499998
v 0.0572215996 0.0651765484 0.0075
v 0.0572215996 0.0651765484 0.009499998
v 0.0572594406 0.0608403724 0.0075
v 0.0572594406 0.0608403724 0.009499998
v 0.0574821236 0.0650893824 0.0075
v 0.0574821236 0.0650893824 0.009499998
v 0.0575184016 0.0609320774 0.0075
v 0.0575184016 0.0609320774 0.009499998
v 0.0576955566 0.0610165824 0.0075
v 0.0576955566 0.0610165824 0.009499998
v 0.0577300796 0.0649711074 0.0075
v 0.0577300796 0.0649711074 0.009499998
v 0.0576607276 0.0650079764 0.0075
v 0.0576607276 0.0650079764 0.009499998
v 0.0577642586 0.0610546534 0.0075
v 0.0577642586 0.0610546534 0.009499998
v 0.0579933316 0.0648001424 0.0075
v 0.0579933316 0.0648001424 0.009499998
v 0.0579968216 0.0772188034 0.013500004
v 0.0579968216 0.0772188034 0.019499998
v 0.0579931596 0.0774281924 0.013500004
v 0.0579940756 0.0773234794 0.019499998
v 0.0579968216 0.0776375814 0.013500004
v 0.0579940756 0.0775329064 0.019499998
v 0.0580244976 0.0612301864 0.0075
v 0.0580244976 0.0612301864 0.009499998
v 0.0580552246 0.0612546394 0.0075
v 0.0580552246 0.0612546394 0.009499998
v 0.0582302436 0.0645942064 0.0075
v 0.0582302436 0.0645942064 0.009499998
v 0.0580552246 0.0647517914 0.0075
v 0.0580552246 0.0647517914 0.009499998
v 0.0581713826 0.0759766624 0.013500004
v 0.0582255896 0.0757743684 0.019499998
v 0.0581242706 0.0761807294 0.013500004
v 0.0581469496 0.0760784954 0.019499998
v 0.0580670316 0.0764895864 0.013500004
v 0.0581034046 0.0762833444 0.019499998
v 0.0580378876 0.0766969724 0.013500004
v 0.0580515626 0.0765931554 0.019499998
v 0.0580159906 0.0769052544 0.013500004
v 0.0580260236 0.0768010184 0.019499998
v 0.0580013806 0.0771141854 0.013500004
v 0.0580077706 0.0770096634 0.019499998
v 0.0580013806 0.0777421994 0.013500004
v 0.0580013806 0.0777421994 0.019499998
v 0.0580159906 0.0779511304 0.013500004
v 0.0580077706 0.0778467224 0.019499998
v 0.0580378876 0.0781594124 0.013500004
v 0.0580260236 0.0780553664 0.019499998
v 0.0580843116 0.0784700814 0.013500004
v 0.0580515626 0.0782632294 0.019499998
v 0.0581242706 0.0786756554 0.013500004
v 0.0581034046 0.0785730404 0.019499998
v 0.0581976086 0.0789810984 0.013500004
v 0.0581469496 0.0787778894 0.019499998
v 0.0582255896 0.0790820164 0.013500004
v 0.0582255896 0.0790820164 0.019499998
v 0.0584070166 0.0576999134 0.0075
v 0.0584070166 0.0576999134 0.009499998
v 0.0582577666 0.0614402334 0.0075
v 0.0582577666 0.0614402334 0.009499998
v 0.0583373406 0.0615270844 0.0075
v 0.0583373406 0.0615270844 0.009499998
v 0.0584823376 0.0642937604 0.0075
v 0.0584823376 0.0642937604 0.009499998
v 0.0583113246 0.0645087574 0.0075
v 0.0583113246 0.0645087574 0.009499998
v 0.0584300576 0.0751805534 0.013500004
v 0.0584701306 0.0750838134 0.019499998
v 0.0583200606 0.0754747814 0.013500004
v 0.0583916816 0.0752779814 0.019499998
v 0.0582553436 0.0756739654 0.013500004
v 0.0582868156 0.0755740974 0.019499998
v 0.0582553436 0.0791824194 0.013500004
v 0.0582553436 0.0791824194 0.019499998
v 0.0583550026 0.0794803084 0.013500004
v 0.0582868156 0.0792822884 0.019499998
v 0.0584300576 0.0796758314 0.013500004
v 0.0583916816 0.0795784034 0.019499998
v 0.0584701306 0.0797725724 0.013500004
v 0.0584701306 0.0797725724 0.019499998
v 0.0585045966 0.0617450284 0.0075
v 0.0585045966 0.0617450284 0.009499998
v 0.0585262636 0.0617777774 0.0075
v 0.0585262636 0.0617777774 0.009499998
v 0.0586615326 0.0620168824 0.0075
v 0.0586615326 0.0620168824 0.009499998
v 0.0587398106 0.0638095424 0.0075
v 0.0587398106 0.0638095424 0.009499998
v 0.0586440236 0.0640246914 0.0075
v 0.0586440236 0.0640246914 0.009499998
v 0.0585045966 0.0642614024 0.0075
v 0.0585045966 0.0642614024 0.009499998
v 0.0586471326 0.0747042504 0.013500004
v 0.0587454376 0.0745193334 0.019499998
v 0.0585118826 0.0749877784 0.013500004
v 0.0586004026 0.0747979584 0.019499998
v 0.0585553126 0.0799638984 0.013500004
v 0.0585118826 0.0798686074 0.019499998
v 0.0586954836 0.0802450224 0.013500004
v 0.0586004026 0.0800584264 0.019499998
v 0.0587454376 0.0803370514 0.013500004
v 0.0587454376 0.0803370514 0.019499998
v 0.0587535626 0.0622336714 0.0075
v 0.0587535626 0.0622336714 0.009499998
v 0.0587666656 0.0622706834 0.0075
v 0.0587666656 0.0622706834 0.009499998
v 0.0588400796 0.0625354144 0.0075
v 0.0588400796 0.0625354144 0.009499998
v 0.0588769296 0.0627680244 0.0075
v 0.0588769296 0.0627680244 0.009499998
v 0.0588892516 0.0630032104 0.0075
v 0.0588892516 0.0630032104 0.009499998
v 0.0588724856 0.0632774204 0.0075
v 0.0588724856 0.0632774204 0.009499998
v 0.0588315926 0.0635093544 0.0075
v 0.0588315926 0.0635093544 0.009499998
v 0.0587535626 0.0637727584 0.0075
v 0.0587535626 0.0637727584 0.009499998
v 0.0589048726 0.0742486804 0.013500004
v 0.0589611396 0.0741603514 0.019499998
v 0.0587970116 0.0744282004 0.013500004
v 0.0588501506 0.0743379634 0.019499998
v 0.0587970116 0.0804281844 0.013500004
v 0.0587970116 0.0804281844 0.019499998
v 0.0589611396 0.0806960334 0.013500004
v 0.0588501506 0.0805184214 0.019499998
v 0.0590782506 0.0739867254 0.013500004
v 0.0592013506 0.0738172954 0.019499998
v 0.0590189316 0.0740730324 0.013500004
v 0.0590189316 0.0740730324 0.019499998
v 0.0591390566 0.0809548994 0.013500004
v 0.0590189316 0.0807833524 0.019499998
v 0.0592013506 0.0810390894 0.013500004
v 0.0592013506 0.0810390894 0.019499998
v 0.0594649086 0.0734918444 0.013500004
v 0.0594649086 0.0734918444 0.019499998
v 0.0592650946 0.0737342304 0.013500004
v 0.0593968926 0.0735714764 0.019499998
v 0.0593302876 0.0812041134 0.013500004
v 0.0592650946 0.0811221544 0.019499998
v 0.0594649086 0.0813645404 0.013500004
v 0.0593968926 0.0812849084 0.019499998
v 0.0595342976 0.0734134144 0.013500004
v 0.0596771196 0.0732602354 0.019499998
v 0.0595342976 0.0814429704 0.013500004
v 0.0595342976 0.0814429704 0.019499998
v 0.0596771196 0.0815961494 0.013500004
v 0.0596050416 0.0815201804 0.019499998
v 0.0599783856 0.0729693264 0.013500004
v 0.0599783856 0.0729693264 0.019499998
v 0.0597505146 0.0731855434 0.013500004
v 0.0599011756 0.0730400704 0.019499998
v 0.0598252066 0.0817442364 0.013500004
v 0.0597505146 0.0816708414 0.019499998
v 0.0599783856 0.0818870584 0.013500004
v 0.0599011756 0.0818163154 0.019499998
v 0.0600568156 0.0728999374 0.013500004
v 0.0602172426 0.0727653164 0.019499998
v 0.0600568156 0.0819564484 0.013500004
v 0.0600568156 0.0819564484 0.019499998
v 0.0602172426 0.0820910684 0.013500004
v 0.0601364476 0.0820244644 0.019499998
v 0.0602992016 0.0727001234 0.013500004
v 0.0604664566 0.0725740854 0.019499998
v 0.0603822666 0.0822200054 0.013500004
v 0.0602992016 0.0821562614 0.019499998
v 0.0604664566 0.0822822994 0.013500004
v 0.0604664566 0.0822822994 0.019499998
v 0.0606380036 0.0724539604 0.013500004
v 0.0607253226 0.0723961684 0.019499998
v 0.0605516966 0.0725132794 0.013500004
v 0.0605516966 0.0725132794 0.019499998
v 0.0607253226 0.0824602164 0.013500004
v 0.0605516966 0.0823431054 0.019499998
v 0.0609931716 0.0722320404 0.013500004
v 0.0609931716 0.0722320404 0.019499998
v 0.0608136516 0.0723399014 0.013500004
v 0.0609029346 0.0722851794 0.019499998
v 0.0609931716 0.0826243444 0.013500004
v 0.0608136516 0.0825164834 0.019499998
v 0.0610843046 0.0721804664 0.013500004
v 0.0611763336 0.0721305124 0.019499998
v 0.0611763336 0.0827258724 0.013500004
v 0.0610843046 0.0826759194 0.019499998
v 0.0614574586 0.0719903414 0.013500004
v 0.0614574586 0.0719903414 0.019499998
v 0.0612692216 0.0720821614 0.013500004
v 0.0613629296 0.0720354314 0.019499998
v 0.0614574586 0.0828660434 0.013500004
v 0.0612692216 0.0827742234 0.019499998
v 0.0615527496 0.0719469114 0.013500004
v 0.0617455246 0.0718650864 0.019499998
v 0.0617455246 0.0829912994 0.013500004
v 0.0615527496 0.0829094734 0.019499998
v 0.0618429526 0.0718267104 0.013500004
v 0.0619410476 0.0717900314 0.019499998
v 0.0619410476 0.0830663534 0.013500004
v 0.0618429526 0.0830296744 0.019499998
v 0.0621390686 0.0717218444 0.013500004
v 0.0622389366 0.0716903724 0.019499998
v 0.0620397526 0.0717550894 0.013500004
v 0.0620397526 0.0717550894 0.019499998
v 0.0622389366 0.0831660124 0.013500004
v 0.0620397526 0.0831012954 0.019499998
v 0.0623393396 0.0716606184 0.013500004
v 0.0624402576 0.0716326374 0.019499998
v 0.0624402576 0.0832237474 0.013500004
v 0.0623393396 0.0831957664 0.019499998
v 0.0625416336 0.0716064114 0.013500004
v 0.0627457006 0.0715592994 0.019499998
v 0.0625416336 0.0832499734 0.013500004
v 0.0625416336 0.0832499734 0.019499998
v 0.0627457006 0.0832970854 0.013500004
v 0.0626434666 0.0832744064 0.019499998
v 0.0628483156 0.0715384334 0.013500004
v 0.0629512746 0.0715193404 0.019499998
v 0.0629512746 0.0833370444 0.013500004
v 0.0628483156 0.0833179514 0.019499998
v 0.0631581266 0.0714865914 0.013500004
v 0.0631581266 0.0714865914 0.019499998
v 0.0630545576 0.0715020604 0.013500004
v 0.0630545576 0.0715020604 0.019499998
v 0.0631581266 0.0833697934 0.013500004
v 0.0630545576 0.0833543244 0.019499998
v 0.0632619436 0.0714729164 0.013500004
v 0.0634702256 0.0714510194 0.019499998
v 0.0634702256 0.0834053654 0.013500004
v 0.0632619436 0.0833834694 0.019499998
v 0.0637103226 0.0630032104 -0.022600002
v 0.0637103226 0.0630032104 0.0075
v 0.0637103226 0.0630032104 0.009499998
v 0.0637103226 0.0630032104 0.013500004
v 0.0635746346 0.0714427994 0.013500004
v 0.0636791566 0.0714364094 0.019499998
v 0.0636791566 0.0834199754 0.013500004
v 0.0635746346 0.0834135864 0.019499998
v 0.0637837746 0.0714318504 0.013500004
v 0.0639931636 0.0714281884 0.019499998
v 0.0639931636 0.0834281964 0.013500004
v 0.0637837746 0.0834245344 0.019499998
v 0.0640978776 0.0714291044 0.013500004
v 0.0642025526 0.0714318504 0.019499998
v 0.0642025526 0.0834245344 0.013500004
v 0.0640978776 0.0834272804 0.019499998
v 0.0643071706 0.0714364094 0.013500004
v 0.0644116936 0.0714427994 0.019499998
v 0.0644116936 0.0834135864 0.013500004
v 0.0643071706 0.0834199754 0.019499998
v 0.0645161016 0.0714510194 0.013500004
v 0.0647243836 0.0714729164 0.019499998
v 0.0647243836 0.0833834694 0.013500004
v 0.0645161016 0.0834053654 0.019499998
v 0.0648282006 0.0714865914 0.013500004
v 0.0648282006 0.0714865914 0.019499998
v 0.0649317696 0.0715020604 0.013500004
v 0.0649317696 0.0715020604 0.019499998
v 0.0649317696 0.0833543244 0.013500004
v 0.0648282006 0.0833697934 0.019499998
v 0.0650350526 0.0715193404 0.013500004
v 0.0652406266 0.0715592994 0.019499998
v 0.0652406266 0.0832970854 0.013500004
v 0.0650350526 0.0833370444 0.019499998
v 0.0653428606 0.0715819784 0.013500004
v 0.0654446946 0.0716064114 0.019499998
v 0.0654446946 0.0832499734 0.013500004
v 0.0654446946 0.0832499734 0.019499998
v 0.0653428606 0.0832744064 0.013500004
v 0.0653428606 0.0832744064 0.019499998
v 0.0655460696 0.0716326374 0.013500004
v 0.0657473906 0.0716903724 0.019499998
v 0.0657473906 0.0831660124 0.013500004
v 0.0655460696 0.0832237474 0.019499998
v 0.0658472596 0.0717218444 0.013500004
v 0.0658472596 0.0717218444 0.019499998
v 0.0659465746 0.0717550894 0.013500004
v 0.0659465746 0.0717550894 0.019499998
v 0.0659465746 0.0831012954 0.013500004
v 0.0658472596 0.0831345414 0.019499998
v 0.0660452796 0.0717900314 0.013500004
v 0.0662408026 0.0718650864 0.019499998
v 0.0662408026 0.0829912994 0.013500004
v 0.0662408026 0.0829912994 0.019499998
v 0.0661433746 0.0830296744 0.013500004
v 0.0660452796 0.0830663534 0.019499998
v 0.0663375436 0.0719051594 0.013500004
v 0.0664335786 0.0719469114 0.019499998
v 0.0664335786 0.0829094734 0.013500004
v 0.0663375436 0.0829512254 0.019499998
v 0.0665288696 0.0719903414 0.013500004
v 0.0665288696 0.0719903414 0.019499998
v 0.0666233976 0.0720354314 0.013500004
v 0.0667171056 0.0720821614 0.019499998
v 0.0667171056 0.0827742234 0.013500004
v 0.0665288696 0.0828660434 0.019499998
v 0.0668099936 0.0721305124 0.013500004
v 0.0669931556 0.0722320404 0.019499998
v 0.0669931556 0.0826243444 0.013500004
v 0.0668099936 0.0827258724 0.019499998
v 0.0670833926 0.0722851794 0.013500004
v 0.0671726756 0.0723399014 0.019499998
v 0.0671726756 0.0825164834 0.013500004
v 0.0670833926 0.0825712054 0.019499998
v 0.0672610046 0.0723961684 0.013500004
v 0.0673483236 0.0724539604 0.019499998
v 0.0674346306 0.0725132794 0.013500004
v 0.0674346306 0.0725132794 0.019499998
v 0.0674346306 0.0823431054 0.013500004
v 0.0672610046 0.0824602164 0.019499998
v 0.0675198706 0.0725740854 0.013500004
v 0.0676871256 0.0727001234 0.019499998
v 0.0676871256 0.0821562614 0.013500004
v 0.0676040606 0.0822200054 0.019499998
v 0.0675198706 0.0822822994 0.013500004
v 0.0675198706 0.0822822994 0.019499998
v 0.0677690846 0.0727653164 0.013500004
v 0.0679295116 0.0728999374 0.019499998
v 0.0679295116 0.0819564484 0.013500004
v 0.0679295116 0.0819564484 0.019499998
v 0.0678498796 0.0820244644 0.013500004
v 0.0677690846 0.0820910684 0.019499998
v 0.0680079416 0.0729693264 0.013500004
v 0.0680079416 0.0729693264 0.019499998
v 0.0682358126 0.0731855434 0.013500004
v 0.0682358126 0.0731855434 0.019499998
v 0.0682358126 0.0816708414 0.013500004
v 0.0681611206 0.0817442364 0.019499998
v 0.0680851516 0.0818163154 0.013500004
v 0.0680079416 0.0818870584 0.019499998
v 0.0683092076 0.0732602354 0.013500004
v 0.0684520296 0.0734134144 0.019499998
v 0.0684520296 0.0814429704 0.013500004
v 0.0684520296 0.0814429704 0.019499998
v 0.0683812866 0.0815201804 0.013500004
v 0.0683092076 0.0815961494 0.019499998
v 0.0685214196 0.0734918444 0.013500004
v 0.0685214196 0.0734918444 0.019499998
v 0.0685894356 0.0735714764 0.013500004
v 0.0687212326 0.0737342304 0.019499998
v 0.0687212326 0.0811221544 0.013500004
v 0.0686560396 0.0812041134 0.019499998
v 0.0685894356 0.0812849084 0.013500004
v 0.0685214196 0.0813645404 0.019499998
v 0.0687849766 0.0738172954 0.013500004
v 0.0689080766 0.0739867254 0.019499998
v 0.0689673956 0.0740730324 0.013500004
v 0.0689673956 0.0740730324 0.019499998
v 0.0689673956 0.0807833524 0.013500004
v 0.0688472706 0.0809548994 0.019499998
v 0.0687849766 0.0810390894 0.013500004
v 0.0687849766 0.0810390894 0.019499998
v 0.0690251876 0.0741603514 0.013500004
v 0.0690814546 0.0742486804 0.019499998
v 0.0691361766 0.0743379634 0.013500004
v 0.0691893156 0.0744282004 0.019499998
v 0.0692408906 0.0745193334 0.013500004
v 0.0692408906 0.0745193334 0.019499998
v 0.0692408906 0.0803370514 0.013500004
v 0.0691893156 0.0804281844 0.019499998
v 0.0691361766 0.0805184214 0.013500004
v 0.0690251876 0.0806960334 0.019499998
v 0.0692908436 0.0746113624 0.013500004
v 0.0693391946 0.0747042504 0.019499998
v 0.0693859246 0.0747979584 0.013500004
v 0.0694744446 0.0749877784 0.019499998
v 0.0694744446 0.0798686074 0.013500004
v 0.0694310146 0.0799638984 0.019499998
v 0.0693859246 0.0800584264 0.013500004
v 0.0692908436 0.0802450224 0.019499998
v 0.0695161966 0.0750838134 0.013500004
v 0.0695562706 0.0751805534 0.019499998
v 0.0695946456 0.0752779814 0.013500004
v 0.0696662666 0.0754747814 0.019499998
v 0.0696995126 0.0755740974 0.013500004
v 0.0697309836 0.0756739654 0.019499998
v 0.0697309836 0.0791824194 0.013500004
v 0.0697309836 0.0791824194 0.019499998
v 0.0696995126 0.0792822884 0.013500004
v 0.0696313246 0.0794803084 0.019499998
v 0.0695946456 0.0795784034 0.013500004
v 0.0695562706 0.0796758314 0.019499998
v 0.0695161966 0.0797725724 0.013500004
v 0.0695161966 0.0797725724 0.019499998
v 0.0697607376 0.0757743684 0.013500004
v 0.0698149446 0.0759766624 0.019499998
v 0.0698393776 0.0760784954 0.013500004
v 0.0698620566 0.0761807294 0.019499998
v 0.0698829226 0.0762833444 0.013500004
v 0.0699192956 0.0764895864 0.019499998
v 0.0699347646 0.0765931554 0.013500004
v 0.0699484406 0.0766969724 0.019499998
v 0.0699603036 0.0768010184 0.013500004
v 0.0699703366 0.0769052544 0.019499998
v 0.0699785576 0.0770096634 0.013500004
v 0.0699895056 0.0772188034 0.019499998
v 0.0699922516 0.0773234794 0.013500004
v 0.0699931676 0.0774281924 0.019499998
v 0.0699922516 0.0775329064 0.013500004
v 0.0699849466 0.0777421994 0.019499998
v 0.0699785576 0.0778467224 0.013500004
v 0.0699703366 0.0779511304 0.019499998
v 0.0699603036 0.0780553664 0.013500004
v 0.0699484406 0.0781594124 0.019499998
v 0.0699347646 0.0782632294 0.013500004
v 0.0699020156 0.0784700814 0.019499998
v 0.0698829226 0.0785730404 0.013500004
v 0.0698620566 0.0786756554 0.019499998
v 0.0698393776 0.0787778894 0.013500004
v 0.0697887186 0.0789810984 0.019499998
v 0.0697607376 0.0790820164 0.013500004
v 0.0697607376 0.0790820164 0.019499998
v 0.0782060006 0.10578318 -0.022600002
v 0.0782060006 0.10578318 0.0075
v 0.0782060006 0.10578318 0.009499998
v 0.0782060006 0.10578318 0.013500004
v 0.0832378916 0.104832291 0.0075
v 0.0832378916 0.104832291 0.009499998
v 0.0831627616 0.105013622 0.0075
v 0.0831627616 0.105013622 0.009499998
v 0.0830847506 0.105277027 0.0075
v 0.0830847506 0.105277027 0.009499998
v 0.0830438576 0.105508961 0.0075
v 0.0830438576 0.105508961 0.009499998
v 0.0830270726 0.10578318 0.0075
v 0.0830270726 0.10578318 0.009499998
v 0.0830394126 0.106018356 0.0075
v 0.0830394126 0.106018356 0.009499998
v 0.0830762436 0.106250977 0.0075
v 0.0830762436 0.106250977 0.009499998
v 0.0831496576 0.106515697 0.0075
v 0.0831496576 0.106515697 0.009499998
v 0.0834801446 0.104429096 0.0075
v 0.0834801446 0.104429096 0.009499998
v 0.0834117466 0.104524998 0.0075
v 0.0834117466 0.104524998 0.009499998
v 0.0832723196 0.1047617 0.0075
v 0.0832723196 0.1047617 0.009499998
v 0.0832547906 0.106769508 0.0075
v 0.0832547906 0.106769508 0.009499998
v 0.0833900596 0.107008614 0.0075
v 0.0833900596 0.107008614 0.009499998
v 0.0837425766 0.104137634 0.0075
v 0.0837425766 0.104137634 0.009499998
v 0.0836049996 0.104277634 0.0075
v 0.0836049996 0.104277634 0.009499998
v 0.0835040626 0.107168411 0.0075
v 0.0835040626 0.107168411 0.009499998
v 0.0836860806 0.107374157 0.0075
v 0.0836860806 0.107374157 0.009499998
v 0.0835093076 0.111086468 0.0075
v 0.0835093076 0.111086468 0.009499998
v 0.0839865266 0.10394009 0.0075
v 0.0839865266 0.10394009 0.009499998
v 0.0838918456 0.104010147 0.0075
v 0.0838918456 0.104010147 0.009499998
v 0.0837715296 0.107455257 0.0075
v 0.0837715296 0.107455257 0.009499998
v 0.0838308106 0.107506775 0.0075
v 0.0838308106 0.107506775 0.009499998
v 0.0842207676 0.103796543 0.0075
v 0.0842207676 0.103796543 0.009499998
v 0.0840188936 0.10764851 0.0075
v 0.0840188936 0.10764851 0.009499998
v 0.0841862636 0.107751068 0.0075
v 0.0841862636 0.107751068 0.009499998
v 0.0844707446 0.103682617 0.0075
v 0.0844707446 0.103682617 0.009499998
v 0.0842907486 0.103760895 0.0075
v 0.0842907486 0.103760895 0.009499998
v 0.0842555956 0.107787937 0.0075
v 0.0842555956 0.107787937 0.009499998
v 0.0847327576 0.10360001 0.0075
v 0.0847327576 0.10360001 0.009499998
v 0.0845075376 0.107897476 0.0075
v 0.0845075376 0.107897476 0.009499998
v 0.0849639466 0.103555073 0.0075
v 0.0849639466 0.103555073 0.009499998
v 0.0847709426 0.107975506 0.0075
v 0.0847709426 0.107975506 0.009499998
v 0.0849250946 0.10800547 0.0075
v 0.0849250946 0.10800547 0.009499998
v 0.0852378036 0.10353352 0.0075
v 0.0852378036 0.10353352 0.009499998
v 0.0850028756 0.108016399 0.0075
v 0.0850028756 0.108016399 0.009499998
v 0.0854731706 0.10354174 0.0075
v 0.0854731706 0.10354174 0.009499998
v 0.0852770766 0.108033165 0.0075
v 0.0852770766 0.108033165 0.009499998
v 0.0857448726 0.103582348 0.0075
v 0.0857448726 0.103582348 0.009499998
v 0.0856677776 0.107998985 0.0075
v 0.0856677776 0.107998985 0.009499998
v 0.0855122716 0.108020843 0.0075
v 0.0855122716 0.108020843 0.009499998
v 0.0859723626 0.103643288 0.0075
v 0.0859723626 0.103643288 0.009499998
v 0.0857832106 0.107975506 0.0075
v 0.0857832106 0.107975506 0.009499998
v 0.0862279656 0.103743977 0.0075
v 0.0862279656 0.103743977 0.009499998
v 0.0860096126 0.107910599 0.0075
v 0.0860096126 0.107910599 0.009499998
v 0.0864693986 0.103875069 0.0075
v 0.0864693986 0.103875069 0.009499998
v 0.0864020686 0.107731728 0.0075
v 0.0864020686 0.107731728 0.009499998
v 0.0862634046 0.107805466 0.0075
v 0.0862634046 0.107805466 0.009499998
v 0.0866311606 0.103986248 0.0075
v 0.0866311606 0.103986248 0.009499998
v 0.0867233426 0.104059566 0.0075
v 0.0867233426 0.104059566 0.009499998
v 0.0865025096 0.107670177 0.0075
v 0.0865025096 0.107670177 0.009499998
v 0.0869226226 0.10424868 0.0075
v 0.0869226226 0.10424868 0.009499998
v 0.0869751696 0.104307045 0.0075
v 0.0869751696 0.104307045 0.009499998
v 0.0867532116 0.107481274 0.0075
v 0.0867532116 0.107481274 0.009499998
v 0.0871201666 0.10449263 0.0075
v 0.0871201666 0.10449263 0.009499998
v 0.0872449646 0.104692348 0.0075
v 0.0872449646 0.104692348 0.009499998
v 0.0871851876 0.106975483 0.0075
v 0.0871851876 0.106975483 0.009499998
v 0.0870006706 0.107229446 0.0075
v 0.0870006706 0.107229446 0.009499998
v 0.0872637136 0.104726871 0.0075
v 0.0872637136 0.104726871 0.009499998
v 0.0873776396 0.104976849 0.0075
v 0.0873776396 0.104976849 0.009499998
v 0.0874602466 0.105238842 0.0075
v 0.0874602466 0.105238842 0.009499998
v 0.0874993856 0.105431198 0.0075
v 0.0874993856 0.105431198 0.009499998
v 0.0874857476 0.106212486 0.0075
v 0.0874857476 0.106212486 0.009499998
v 0.0874169496 0.106478466 0.0075
v 0.0874169496 0.106478466 0.009499998
v 0.0873162606 0.10673407 0.0075
v 0.0873162606 0.10673407 0.009499998
v 0.0872637136 0.106839489 0.0075
v 0.0872637136 0.106839489 0.009499998
v 0.0875051836 0.105470032 0.0075
v 0.0875051836 0.105470032 0.009499998
v 0.0875267366 0.105743908 0.0075
v 0.0875267366 0.105743908 0.009499998
v 0.0875185166 0.105979275 0.0075
v 0.0875185166 0.105979275 0.009499998
v 0.0875051836 0.10609631 0.0075
v 0.0875051836 0.10609631 0.009499998
v 0.0902475886 0.0979057734 0.0075
v 0.0902207336 0.0979795684 0.009499998
v 0.0902082596 0.0980168194 0.0075
v 0.0901473196 0.0982443084 0.009499998
v 0.0901394806 0.0982827804 0.0075
v 0.0901104696 0.0984769104 0.009499998
v 0.0901067116 0.0985160104 0.0075
v 0.0900981476 0.0987121054 0.009499998
v 0.0900984916 0.0987513774 0.0075
v 0.0901149136 0.0989863054 0.009499998
v 0.0901200446 0.0990252534 0.0075
v 0.0901558076 0.0992182394 0.009499998
v 0.0901649816 0.0992564244 0.0075
v 0.0902338366 0.0994816444 0.009499998
v 0.0902475886 0.0995184364 0.0075
v 0.0902475886 0.0995184364 0.009499998
v 0.0904828026 0.0974539224 0.0075
v 0.0904611356 0.0974866714 0.009499998
v 0.0904400406 0.0975197834 0.0075
v 0.0903258666 0.0977257774 0.009499998
v 0.0903089486 0.0977612154 0.0075
v 0.0902619896 0.0978692474 0.009499998
v 0.0902619896 0.0995549624 0.0075
v 0.0903433756 0.0997335854 0.009499998
v 0.0903615146 0.0997684144 0.0075
v 0.0904828026 0.0999702874 0.009499998
v 0.0907296326 0.0971491284 0.0075
v 0.0906500586 0.0972359704 0.009499998
v 0.0906245376 0.0972658394 0.0075
v 0.0905050616 0.0974215554 0.009499998
v 0.0905050616 0.100002655 0.0075
v 0.0907026056 0.100246605 0.009499998
v 0.0907296326 0.100275082 0.0075
v 0.0907296326 0.100275082 0.009499998
v 0.0909940676 0.0969151734 0.0075
v 0.0909018666 0.0969885104 0.009499998
v 0.0908720166 0.0970140114 0.0075
v 0.0907571556 0.0971211094 0.009499998
v 0.0907571556 0.100303101 0.0075
v 0.0907571556 0.100303101 0.009499998
v 0.0909940676 0.100509037 0.0075
v 0.0909940676 0.100509037 0.009499998
v 0.0912231406 0.0967635574 0.0075
v 0.0910256346 0.0968918274 0.009499998
v 0.0910256346 0.100532402 0.0075
v 0.0912231406 0.100660671 0.009499998
v 0.0914689976 0.0966409724 0.0075
v 0.0912573196 0.0967442174 0.009499998
v 0.0912573196 0.100679993 0.0075
v 0.0913618046 0.10073439 0.009499998
v 0.0913972626 0.100751289 0.0075
v 0.0914689976 0.100783237 0.009499998
v 0.0917279586 0.0965492674 0.0075
v 0.0915052756 0.0966259424 0.009499998
v 0.0915052756 0.100798267 0.0075
v 0.0917279586 0.100874943 0.009499998
v 0.0919961696 0.0964898154 0.0075
v 0.0919574316 0.0964962814 0.009499998
v 0.0919188266 0.0965034524 0.0075
v 0.0917658006 0.0965387764 0.009499998
v 0.0917658006 0.100885433 0.0075
v 0.0919961696 0.100934414 0.009499998
v 0.0922303916 0.0964651914 0.0075
v 0.0920350036 0.0964839974 0.009499998
v 0.0920350036 0.100940212 0.0075
v 0.0922303916 0.100959019 0.009499998
v 0.0923481516 0.0916410294 -0.022600002
v 0.0923481516 0.0916410294 0.0075
v 0.0923481516 0.0916410294 0.009499998
v 0.0923481516 0.0916410294 0.013500004
v 0.0924658926 0.0964651914 0.0075
v 0.0922696266 0.0964634744 0.009499998
v 0.0922696266 0.100960735 0.0075
v 0.0924658926 0.100959019 0.009499998
v 0.0927388526 0.0964962814 0.0075
v 0.0925050886 0.0964675944 0.009499998
v 0.0925050886 0.100956634 0.0075
v 0.0927388526 0.100927929 0.009499998
v 0.0929683266 0.0965492674 0.0075
v 0.0927774576 0.0965034524 0.009499998
v 0.0927774576 0.100920776 0.0075
v 0.0929683266 0.100874943 0.009499998
v 0.0932272866 0.0966409724 0.0075
v 0.0930059776 0.0965604254 0.009499998
v 0.0930059776 0.100863785 0.0075
v 0.0932272866 0.100783237 0.009499998
v 0.0934389646 0.0967442174 0.0075
v 0.0932632976 0.0966566314 0.009499998
v 0.0934731446 0.0967635574 0.0075
v 0.0934731446 0.0967635574 0.009499998
v 0.0933344796 0.10073439 0.0075
v 0.0934731446 0.100660671 0.009499998
v 0.0932632976 0.100767578 0.0075
v 0.0932990416 0.100751289 0.009499998
v 0.0937333826 0.0969390914 0.0075
v 0.0935069806 0.0967834894 0.009499998
v 0.0937333826 0.100485138 0.0075
v 0.0937333826 0.100485138 0.009499998
v 0.0935069806 0.100640739 0.0075
v 0.0937022356 0.100509037 0.009499998
v 0.0937944176 0.0969885104 0.0075
v 0.0937641106 0.0969635244 0.009499998
v 0.0939936976 0.0971776054 0.0075
v 0.0938242866 0.0970140114 0.009499998
v 0.0939936976 0.100246605 0.0075
v 0.0939936976 0.100246605 0.009499998
v 0.0937641106 0.100460686 0.0075
v 0.0939666516 0.100275082 0.009499998
v 0.0940462456 0.0972359704 0.0075
v 0.0940202286 0.0972065584 0.009499998
v 0.0942351486 0.0974866714 0.0075
v 0.0940717466 0.0972658394 0.009499998
v 0.0942134816 0.0999702874 0.0075
v 0.0942351486 0.0999375384 0.009499998
v 0.0940202286 0.100217651 0.0075
v 0.0941912416 0.100002655 0.009499998
v 0.0943704376 0.0977257774 0.0075
v 0.0942562636 0.0975197834 0.009499998
v 0.0944755706 0.0979795684 0.0075
v 0.0943873366 0.0977612154 0.009499998
v 0.0944998316 0.0980542794 0.0075
v 0.0944880256 0.0980168194 0.009499998
v 0.0944624476 0.0994816444 0.0075
v 0.0944998316 0.0993699494 0.009499998
v 0.0943529086 0.0997335854 0.0075
v 0.0944486956 0.0995184364 0.009499998
v 0.0942562636 0.0999044274 0.0075
v 0.0943347696 0.0997684144 0.009499998
v 0.0945489846 0.0982443084 0.0075
v 0.0945109896 0.0980919304 0.009499998
v 0.0945858146 0.0984769104 0.0075
v 0.0945568046 0.0982827804 0.009499998
v 0.0945981366 0.0987121054 0.0075
v 0.0945895916 0.0985160104 0.009499998
v 0.0945813706 0.0989863054 0.0075
v 0.0945978126 0.0987513774 0.009499998
v 0.0945404776 0.0992182394 0.0075
v 0.0945762406 0.0990252534 0.009499998
v 0.0945109896 0.0993322984 0.0075
v 0.0945313026 0.0992564244 0.009499998
v 0.0976514396 0.0969443364 0.0075
v 0.0976514396 0.0969443364 0.009499998
f 1 2 72
f 2 1 278
f 1 5 3
f 3 21 1
f 7 5 1
f 9 7 1
f 1 11 9
f 1 13 11
f 1 15 13
f 1 17 15
f 1 23 17
f 1 21 19
f 1 19 31
f 25 23 1
f 1 27 25
f 33 27 1
f 31 29 1
f 1 29 37
f 35 33 1
f 39 35 1
f 37 165 1
f 41 39 1
f 45 41 1
f 1 47 45
f 72 47 1
f 1 165 277
f 278 1 277
f 2 4 6
f 22 4 2
f 6 8 2
f 8 10 2
f 2 10 12
f 2 12 14
f 2 14 16
f 2 16 18
f 2 18 24
f 2 20 22
f 2 32 20
f 24 26 2
f 2 26 28
f 28 34 2
f 30 32 2
f 2 38 30
f 34 36 2
f 2 36 40
f 278 38 2
f 2 40 42
f 2 42 46
f 2 46 48
f 2 48 73
f 72 2 73
f 4 3 6
f 4 21 3
f 6 3 5
f 22 21 4
f 6 5 8
f 8 5 7
f 8 7 10
f 10 7 9
f 10 9 12
f 12 9 11
f 12 11 14
f 14 11 13
f 14 13 16
f 16 13 15
f 16 15 18
f 18 15 17
f 18 17 24
f 24 17 23
f 20 19 22
f 20 31 19
f 22 19 21
f 32 31 20
f 24 23 26
f 26 23 25
f 26 25 28
f 28 25 27
f 28 27 34
f 34 27 33
f 30 29 32
f 30 37 29
f 32 29 31
f 38 37 30
f 34 33 36
f 36 33 35
f 36 35 40
f 40 35 39
f 38 43 37
f 43 167 37
f 37 167 165
f 44 43 38
f 168 44 38
f 168 38 166
f 166 38 278
f 40 39 42
f 42 39 41
f 42 41 46
f 46 41 45
f 44 51 43
f 51 153 43
f 43 153 169
f 43 169 167
f 52 51 44
f 154 52 44
f 154 44 170
f 170 44 168
f 46 45 48
f 48 45 47
f 48 47 54
f 54 47 53
f 72 53 47
f 73 48 54
f 50 49 52
f 50 55 49
f 52 49 51
f 49 155 51
f 55 155 49
f 156 50 52
f 56 55 50
f 156 56 50
f 51 155 153
f 156 52 154
f 54 53 58
f 58 53 57
f 57 53 72
f 54 58 73
f 56 59 55
f 59 141 55
f 55 141 157
f 55 157 155
f 60 59 56
f 142 60 56
f 142 56 158
f 158 56 156
f 58 57 62
f 62 57 61
f 72 61 57
f 73 58 62
f 60 63 59
f 63 143 59
f 59 143 141
f 64 63 60
f 144 64 60
f 144 60 142
f 62 61 66
f 66 61 65
f 72 65 61
f 73 62 66
f 64 67 63
f 67 145 63
f 63 145 143
f 68 67 64
f 146 68 64
f 146 64 144
f 66 65 70
f 70 65 69
f 72 69 65
f 73 66 70
f 68 75 67
f 75 147 67
f 67 147 145
f 76 75 68
f 148 76 68
f 148 68 146
f 70 69 78
f 72 77 69
f 78 69 77
f 73 70 78
f 72 71 450
f 72 631 71
f 450 71 449
f 449 71 839
f 839 71 631
f 73 632 72
f 83 77 72
f 81 83 72
f 89 81 72
f 72 93 89
f 72 99 93
f 72 107 99
f 105 107 72
f 72 117 105
f 115 117 72
f 450 115 72
f 72 632 631
f 73 452 74
f 74 633 73
f 78 84 73
f 84 82 73
f 82 90 73
f 73 90 94
f 73 94 100
f 73 100 108
f 108 106 73
f 73 106 118
f 118 116 73
f 116 236 73
f 73 236 451
f 451 452 73
f 73 633 632
f 74 237 239
f 74 261 237
f 74 239 241
f 241 263 74
f 74 251 253
f 74 291 251
f 74 253 255
f 74 255 257
f 257 259 74
f 74 259 261
f 74 263 265
f 265 267 74
f 74 267 269
f 74 269 271
f 74 271 273
f 74 273 275
f 74 275 293
f 287 289 74
f 74 315 287
f 289 291 74
f 293 295 74
f 295 297 74
f 74 297 299
f 299 317 74
f 74 313 315
f 74 341 313
f 74 317 319
f 74 319 321
f 321 343 74
f 74 339 341
f 349 339 74
f 74 343 345
f 74 345 351
f 74 347 349
f 74 357 347
f 74 351 353
f 74 353 359
f 74 355 357
f 74 363 355
f 74 359 361
f 361 365 74
f 74 371 363
f 74 365 367
f 367 373 74
f 452 371 74
f 74 373 375
f 74 375 379
f 74 379 381
f 74 381 385
f 385 387 74
f 74 387 393
f 74 393 634
f 74 634 633
f 76 79 75
f 79 149 75
f 75 149 147
f 80 79 76
f 150 80 76
f 150 76 148
f 78 77 84
f 84 77 83
f 80 85 79
f 85 151 79
f 79 151 149
f 86 85 80
f 152 86 80
f 152 80 150
f 82 83 81
f 82 81 90
f 90 81 89
f 84 83 82
f 86 87 85
f 87 161 85
f 85 159 151
f 85 161 159
f 88 87 86
f 162 88 86
f 160 86 152
f 162 86 160
f 88 91 87
f 91 161 87
f 92 91 88
f 162 92 88
f 90 89 94
f 94 89 93
f 92 95 91
f 95 163 91
f 91 163 161
f 96 95 92
f 164 96 92
f 164 92 162
f 94 93 100
f 100 93 99
f 96 97 95
f 97 173 95
f 95 171 163
f 95 173 171
f 98 97 96
f 174 98 96
f 172 96 164
f 174 96 172
f 98 101 97
f 101 173 97
f 102 101 98
f 174 102 98
f 100 99 108
f 108 99 107
f 102 103 101
f 179 101 103
f 101 175 173
f 101 179 175
f 104 103 102
f 180 104 102
f 176 102 174
f 180 102 176
f 104 109 103
f 179 103 109
f 110 109 104
f 104 180 110
f 106 107 105
f 106 105 118
f 118 105 117
f 108 107 106
f 110 111 109
f 185 109 111
f 179 109 181
f 181 109 185
f 112 111 110
f 110 186 112
f 110 180 182
f 110 182 186
f 112 119 111
f 191 111 119
f 185 111 191
f 120 119 112
f 112 186 120
f 114 115 113
f 114 113 130
f 235 113 115
f 130 113 129
f 235 129 113
f 116 115 114
f 114 236 116
f 130 236 114
f 116 117 115
f 235 115 450
f 118 117 116
f 120 121 119
f 191 119 121
f 122 121 120
f 120 192 122
f 120 186 192
f 122 123 121
f 197 121 123
f 191 121 193
f 193 121 197
f 124 123 122
f 122 198 124
f 122 192 194
f 122 194 198
f 124 131 123
f 201 123 131
f 197 123 201
f 132 131 124
f 124 202 132
f 124 198 202
f 126 127 125
f 126 125 140
f 223 125 127
f 140 125 139
f 219 139 125
f 219 125 223
f 128 127 126
f 126 224 128
f 140 220 126
f 126 220 224
f 128 129 127
f 231 127 129
f 223 127 231
f 130 129 128
f 128 232 130
f 128 224 232
f 231 129 229
f 229 129 235
f 130 232 230
f 130 230 236
f 132 133 131
f 205 131 133
f 201 131 205
f 134 133 132
f 132 206 134
f 132 202 206
f 134 135 133
f 209 133 135
f 205 133 209
f 136 135 134
f 134 210 136
f 134 206 210
f 136 137 135
f 213 135 137
f 209 135 215
f 215 135 213
f 138 137 136
f 136 214 138
f 136 210 216
f 136 216 214
f 138 139 137
f 219 137 139
f 213 137 219
f 140 139 138
f 138 220 140
f 138 214 220
f 142 141 144
f 142 157 141
f 144 141 143
f 158 157 142
f 144 143 146
f 146 143 145
f 146 145 148
f 148 145 147
f 148 147 150
f 150 147 149
f 150 149 152
f 152 149 151
f 152 151 160
f 160 151 159
f 154 153 156
f 154 169 153
f 156 153 155
f 170 169 154
f 156 155 158
f 158 155 157
f 160 159 162
f 162 159 161
f 162 161 164
f 164 161 163
f 164 163 172
f 172 163 171
f 166 165 168
f 166 177 165
f 168 165 167
f 277 165 177
f 178 177 166
f 278 178 166
f 168 167 170
f 170 167 169
f 172 171 174
f 174 171 173
f 174 173 176
f 176 173 175
f 176 175 180
f 180 175 179
f 178 183 177
f 177 183 277
f 184 183 178
f 184 178 278
f 180 179 182
f 182 179 181
f 182 181 186
f 186 181 185
f 184 189 183
f 277 183 189
f 190 189 184
f 278 190 184
f 186 185 192
f 192 185 191
f 188 187 190
f 188 195 187
f 190 187 189
f 277 189 187
f 187 195 277
f 278 188 190
f 196 195 188
f 196 188 278
f 192 191 194
f 194 191 193
f 194 193 198
f 198 193 197
f 196 199 195
f 277 195 199
f 200 199 196
f 278 200 196
f 198 197 202
f 202 197 201
f 200 203 199
f 277 199 203
f 204 203 200
f 278 204 200
f 202 201 206
f 206 201 205
f 204 207 203
f 277 203 207
f 208 207 204
f 278 208 204
f 206 205 210
f 210 205 209
f 208 211 207
f 277 207 211
f 212 211 208
f 278 212 208
f 210 209 216
f 216 209 215
f 212 217 211
f 211 217 277
f 218 217 212
f 218 212 278
f 214 215 213
f 214 213 220
f 220 213 219
f 216 215 214
f 218 221 217
f 217 221 277
f 222 221 218
f 222 218 278
f 220 219 224
f 224 219 223
f 222 225 221
f 277 221 225
f 226 225 222
f 278 226 222
f 224 223 232
f 232 223 231
f 226 227 225
f 225 227 277
f 228 227 226
f 228 226 278
f 228 233 227
f 277 227 233
f 234 233 228
f 278 234 228
f 230 231 229
f 230 229 236
f 236 229 235
f 232 231 230
f 234 243 233
f 277 233 243
f 244 243 234
f 278 244 234
f 236 235 250
f 250 235 249
f 450 249 235
f 451 236 250
f 237 238 239
f 237 262 238
f 261 262 237
f 239 238 240
f 458 240 238
f 454 238 262
f 458 238 454
f 239 240 241
f 241 240 242
f 458 242 240
f 241 242 263
f 263 242 264
f 462 264 242
f 462 242 458
f 244 245 243
f 277 243 245
f 246 245 244
f 278 246 244
f 246 279 245
f 245 279 277
f 280 246 278
f 280 279 246
f 248 249 247
f 248 247 286
f 247 249 450
f 286 247 285
f 285 247 450
f 250 249 248
f 250 248 451
f 248 286 451
f 251 252 253
f 251 292 252
f 291 292 251
f 253 252 254
f 430 254 252
f 420 252 292
f 426 252 420
f 430 252 426
f 253 254 255
f 255 254 256
f 430 256 254
f 255 256 257
f 257 256 258
f 442 258 256
f 436 256 430
f 442 256 436
f 257 258 259
f 259 258 260
f 446 260 258
f 440 258 442
f 446 258 440
f 259 260 261
f 261 260 262
f 446 262 260
f 454 262 446
f 263 264 265
f 265 264 266
f 466 266 264
f 466 264 462
f 265 266 267
f 267 266 268
f 470 268 266
f 470 266 466
f 267 268 269
f 269 268 270
f 470 270 268
f 269 270 271
f 271 270 272
f 480 272 270
f 474 270 470
f 476 270 474
f 480 270 476
f 271 272 273
f 273 272 274
f 480 274 272
f 273 274 275
f 275 274 276
f 490 276 274
f 484 274 480
f 490 274 484
f 275 276 293
f 293 276 294
f 490 294 276
f 278 277 451
f 279 281 277
f 277 281 301
f 277 301 303
f 277 303 450
f 451 277 450
f 282 280 278
f 278 302 282
f 278 304 302
f 451 304 278
f 280 281 279
f 282 281 280
f 282 301 281
f 302 301 282
f 284 285 283
f 284 283 312
f 283 285 450
f 312 283 311
f 450 311 283
f 286 285 284
f 286 284 451
f 451 284 312
f 287 288 289
f 287 316 288
f 315 316 287
f 289 288 290
f 412 290 288
f 412 288 316
f 289 290 291
f 291 290 292
f 422 292 290
f 416 290 412
f 422 290 416
f 420 292 422
f 293 294 295
f 295 294 296
f 490 296 294
f 295 296 297
f 297 296 298
f 500 298 296
f 494 296 490
f 496 296 494
f 500 296 496
f 297 298 299
f 299 298 300
f 500 300 298
f 299 300 317
f 317 300 318
f 506 318 300
f 506 300 500
f 302 303 301
f 304 303 302
f 304 305 303
f 450 303 305
f 306 305 304
f 451 306 304
f 306 323 305
f 450 305 323
f 324 323 306
f 451 324 306
f 308 309 307
f 308 307 338
f 307 309 450
f 338 307 337
f 337 307 450
f 310 309 308
f 310 308 451
f 308 338 451
f 310 311 309
f 450 309 311
f 312 311 310
f 451 312 310
f 313 314 315
f 313 342 314
f 341 342 313
f 315 314 316
f 408 316 314
f 396 314 342
f 402 314 396
f 408 314 402
f 406 316 408
f 412 316 406
f 317 318 319
f 319 318 320
f 510 320 318
f 510 318 506
f 319 320 321
f 321 320 322
f 516 322 320
f 512 320 510
f 516 320 512
f 321 322 343
f 343 322 344
f 516 344 322
f 324 325 323
f 450 323 325
f 326 325 324
f 451 326 324
f 326 327 325
f 325 327 450
f 328 327 326
f 328 326 451
f 328 329 327
f 327 329 450
f 330 329 328
f 330 328 451
f 330 331 329
f 329 331 450
f 332 331 330
f 332 330 451
f 332 333 331
f 450 331 333
f 334 333 332
f 451 334 332
f 334 335 333
f 450 333 335
f 336 335 334
f 451 336 334
f 336 337 335
f 450 335 337
f 338 337 336
f 451 338 336
f 339 340 341
f 339 350 340
f 349 350 339
f 341 340 342
f 398 342 340
f 390 340 350
f 398 340 390
f 396 342 398
f 343 344 345
f 345 344 346
f 516 346 344
f 345 346 351
f 351 346 352
f 524 352 346
f 520 346 516
f 524 346 520
f 347 348 349
f 347 358 348
f 357 358 347
f 349 348 350
f 392 350 348
f 384 348 358
f 392 348 384
f 390 350 392
f 351 352 353
f 353 352 354
f 530 354 352
f 526 352 524
f 530 352 526
f 353 354 359
f 359 354 360
f 530 360 354
f 355 356 357
f 355 364 356
f 363 364 355
f 357 356 358
f 378 358 356
f 370 356 364
f 378 356 370
f 384 358 378
f 359 360 361
f 361 360 362
f 536 362 360
f 536 360 530
f 361 362 365
f 365 362 366
f 536 366 362
f 363 372 364
f 371 372 363
f 370 364 372
f 365 366 367
f 367 366 368
f 542 368 366
f 542 366 536
f 367 368 373
f 373 368 374
f 544 374 368
f 544 368 542
f 369 370 371
f 369 378 370
f 452 369 371
f 377 378 369
f 377 369 452
f 371 370 372
f 373 374 375
f 375 374 376
f 374 550 376
f 550 374 544
f 375 376 379
f 379 376 380
f 376 550 380
f 377 384 378
f 383 384 377
f 383 377 452
f 379 380 381
f 381 380 382
f 380 556 382
f 380 550 556
f 381 382 385
f 385 382 386
f 382 558 386
f 382 556 558
f 383 392 384
f 391 392 383
f 391 383 452
f 385 386 387
f 387 386 388
f 386 564 388
f 386 558 564
f 387 388 393
f 393 388 394
f 388 564 394
f 389 390 391
f 389 398 390
f 452 389 391
f 397 398 389
f 397 389 452
f 391 390 392
f 393 394 399
f 393 399 634
f 399 394 400
f 394 572 400
f 394 564 566
f 394 566 572
f 395 396 397
f 395 402 396
f 452 395 397
f 401 402 395
f 401 395 452
f 397 396 398
f 399 400 403
f 399 403 634
f 403 400 404
f 400 574 404
f 400 572 574
f 401 408 402
f 407 408 401
f 452 407 401
f 403 404 409
f 634 403 409
f 409 404 410
f 404 582 410
f 404 574 576
f 404 576 582
f 405 406 407
f 405 412 406
f 452 405 407
f 411 412 405
f 452 411 405
f 407 406 408
f 409 410 413
f 634 409 413
f 413 410 414
f 410 584 414
f 410 582 584
f 411 416 412
f 415 416 411
f 452 415 411
f 413 414 417
f 634 413 417
f 417 414 418
f 414 590 418
f 414 584 590
f 415 422 416
f 421 422 415
f 452 421 415
f 417 418 423
f 634 417 423
f 423 418 424
f 418 592 424
f 418 590 592
f 419 420 421
f 419 426 420
f 452 419 421
f 425 426 419
f 452 425 419
f 421 420 422
f 423 424 427
f 634 423 427
f 427 424 428
f 424 594 428
f 424 592 594
f 425 430 426
f 429 430 425
f 429 425 452
f 427 428 431
f 427 431 634
f 431 428 432
f 428 604 432
f 428 594 604
f 429 436 430
f 435 436 429
f 435 429 452
f 431 432 433
f 634 431 433
f 433 432 434
f 432 604 434
f 433 434 437
f 433 437 634
f 437 434 438
f 434 606 438
f 434 604 606
f 435 442 436
f 441 442 435
f 452 441 435
f 437 438 443
f 634 437 443
f 443 438 444
f 438 608 444
f 438 606 608
f 439 440 441
f 439 446 440
f 439 441 452
f 445 446 439
f 452 445 439
f 441 440 442
f 443 444 447
f 634 443 447
f 447 444 448
f 444 610 448
f 444 608 610
f 445 454 446
f 452 453 445
f 453 454 445
f 447 448 455
f 634 447 455
f 455 448 456
f 448 612 456
f 448 610 612
f 840 450 449
f 840 449 839
f 841 451 450
f 841 450 840
f 842 452 451
f 842 451 841
f 457 453 452
f 461 457 452
f 452 465 461
f 452 469 465
f 452 473 469
f 452 475 473
f 479 475 452
f 483 479 452
f 452 489 483
f 452 493 489
f 495 493 452
f 452 499 495
f 452 505 499
f 509 505 452
f 452 511 509
f 515 511 452
f 519 515 452
f 452 523 519
f 452 525 523
f 452 529 525
f 452 535 529
f 452 541 535
f 543 541 452
f 549 543 452
f 452 555 549
f 557 555 452
f 563 557 452
f 842 563 452
f 453 458 454
f 457 458 453
f 455 456 459
f 455 459 634
f 459 456 460
f 456 614 460
f 456 612 614
f 457 462 458
f 461 462 457
f 459 460 463
f 459 463 634
f 463 460 464
f 460 616 464
f 460 614 616
f 461 466 462
f 465 466 461
f 463 464 467
f 634 463 467
f 467 464 468
f 464 618 468
f 464 616 618
f 465 470 466
f 469 470 465
f 467 468 471
f 634 467 471
f 471 468 472
f 468 620 472
f 468 618 620
f 469 474 470
f 473 474 469
f 471 472 477
f 634 471 477
f 477 472 478
f 472 622 478
f 472 620 622
f 473 476 474
f 475 476 473
f 475 480 476
f 479 480 475
f 477 478 481
f 477 481 634
f 481 478 482
f 478 624 482
f 478 622 624
f 479 484 480
f 483 484 479
f 481 482 487
f 481 487 634
f 487 482 488
f 482 626 488
f 482 624 626
f 483 490 484
f 489 490 483
f 485 488 486
f 485 486 491
f 487 488 485
f 634 487 485
f 634 485 491
f 488 628 486
f 491 486 492
f 486 628 492
f 488 626 628
f 489 494 490
f 493 494 489
f 491 492 497
f 634 491 497
f 497 492 498
f 492 596 498
f 492 630 596
f 492 628 630
f 493 496 494
f 495 496 493
f 495 500 496
f 499 500 495
f 497 498 503
f 634 497 503
f 503 498 504
f 498 598 504
f 498 596 598
f 499 506 500
f 505 506 499
f 501 504 502
f 501 502 507
f 503 504 501
f 503 501 634
f 634 501 507
f 504 600 502
f 507 502 508
f 502 600 508
f 504 598 600
f 505 510 506
f 509 510 505
f 507 508 513
f 507 513 634
f 513 508 514
f 508 586 514
f 508 602 586
f 508 600 602
f 509 512 510
f 511 512 509
f 511 516 512
f 515 516 511
f 513 514 517
f 513 517 634
f 517 514 518
f 514 588 518
f 514 586 588
f 515 520 516
f 519 520 515
f 517 518 521
f 517 521 634
f 521 518 522
f 518 578 522
f 518 588 578
f 519 524 520
f 523 524 519
f 521 522 527
f 634 521 527
f 527 522 528
f 522 580 528
f 522 578 580
f 523 526 524
f 525 526 523
f 525 530 526
f 529 530 525
f 527 528 533
f 634 527 533
f 533 528 534
f 528 568 534
f 528 580 568
f 529 536 530
f 535 536 529
f 531 534 532
f 531 532 539
f 533 534 531
f 533 531 634
f 634 531 539
f 534 568 532
f 539 532 540
f 532 560 540
f 532 570 560
f 532 568 570
f 535 542 536
f 541 542 535
f 537 540 538
f 537 538 547
f 539 540 537
f 634 539 537
f 634 537 547
f 540 562 538
f 547 538 548
f 538 562 548
f 540 560 562
f 541 544 542
f 543 544 541
f 543 550 544
f 549 550 543
f 545 548 546
f 545 546 553
f 547 548 545
f 634 547 545
f 842 545 553
f 634 545 842
f 548 554 546
f 553 546 554
f 548 552 554
f 548 562 552
f 549 556 550
f 555 556 549
f 551 554 552
f 551 552 561
f 553 554 551
f 553 551 842
f 842 551 561
f 561 552 562
f 555 558 556
f 557 558 555
f 557 564 558
f 563 564 557
f 559 562 560
f 559 560 569
f 561 562 559
f 561 559 842
f 842 559 569
f 569 560 570
f 563 566 564
f 565 566 563
f 842 565 563
f 565 572 566
f 571 572 565
f 842 571 565
f 567 570 568
f 567 568 579
f 569 570 567
f 569 567 842
f 567 579 842
f 579 568 580
f 571 574 572
f 573 574 571
f 842 573 571
f 573 576 574
f 575 576 573
f 575 573 842
f 575 582 576
f 581 582 575
f 842 581 575
f 577 580 578
f 577 578 587
f 579 580 577
f 579 577 842
f 842 577 587
f 587 578 588
f 581 584 582
f 583 584 581
f 583 581 842
f 583 590 584
f 589 590 583
f 589 583 842
f 585 588 586
f 585 586 601
f 587 588 585
f 842 587 585
f 842 585 601
f 601 586 602
f 589 592 590
f 591 592 589
f 842 591 589
f 591 594 592
f 593 594 591
f 842 593 591
f 593 604 594
f 603 604 593
f 842 603 593
f 595 598 596
f 595 596 629
f 597 598 595
f 842 597 595
f 842 595 629
f 629 596 630
f 597 600 598
f 599 600 597
f 842 599 597
f 599 602 600
f 601 602 599
f 842 601 599
f 603 606 604
f 605 606 603
f 842 605 603
f 605 608 606
f 607 608 605
f 607 605 842
f 607 610 608
f 609 610 607
f 609 607 842
f 609 612 610
f 611 612 609
f 842 611 609
f 611 614 612
f 613 614 611
f 842 613 611
f 613 616 614
f 615 616 613
f 842 615 613
f 615 618 616
f 617 618 615
f 617 615 842
f 617 620 618
f 619 620 617
f 619 617 842
f 619 622 620
f 621 622 619
f 842 621 619
f 621 624 622
f 623 624 621
f 842 623 621
f 623 626 624
f 625 626 623
f 842 625 623
f 625 628 626
f 627 628 625
f 627 625 842
f 627 630 628
f 629 630 627
f 629 627 842
f 632 839 631
f 633 669 632
f 637 635 632
f 632 635 655
f 632 639 637
f 632 641 639
f 632 643 641
f 632 645 643
f 632 647 645
f 649 647 632
f 632 657 649
f 632 653 651
f 632 651 663
f 632 655 653
f 669 657 632
f 632 663 661
f 661 673 632
f 632 673 671
f 632 671 679
f 679 789 632
f 632 789 840
f 840 839 632
f 633 634 841
f 636 638 633
f 633 656 636
f 633 638 640
f 633 640 642
f 633 642 644
f 633 644 646
f 633 646 648
f 648 650 633
f 633 650 658
f 633 652 654
f 633 664 652
f 633 654 656
f 633 658 670
f 633 662 664
f 674 662 633
f 670 669 633
f 633 672 674
f 633 680 672
f 841 680 633
f 841 634 842
f 636 635 638
f 636 655 635
f 638 635 637
f 656 655 636
f 638 637 640
f 640 637 639
f 640 639 642
f 642 639 641
f 642 641 644
f 644 641 643
f 644 643 646
f 646 643 645
f 646 645 648
f 648 645 647
f 648 647 650
f 650 647 649
f 650 649 658
f 658 649 657
f 652 651 654
f 652 663 651
f 654 651 653
f 664 663 652
f 654 653 656
f 656 653 655
f 658 657 660
f 660 657 659
f 669 659 657
f 658 660 670
f 660 659 666
f 666 659 665
f 669 665 659
f 670 660 666
f 662 661 664
f 662 673 661
f 664 661 663
f 674 673 662
f 666 665 668
f 668 665 667
f 669 667 665
f 670 666 668
f 668 667 676
f 675 667 669
f 676 667 675
f 668 676 670
f 670 913 669
f 669 677 675
f 669 681 677
f 669 683 681
f 689 683 669
f 669 693 689
f 669 697 693
f 699 697 669
f 669 703 699
f 707 703 669
f 713 707 669
f 669 711 713
f 669 717 711
f 669 721 717
f 669 727 721
f 725 727 669
f 733 725 669
f 669 739 733
f 913 739 669
f 670 676 678
f 670 678 682
f 670 682 684
f 684 690 670
f 670 690 694
f 670 694 698
f 698 700 670
f 670 700 704
f 704 708 670
f 708 714 670
f 670 714 712
f 670 712 718
f 670 718 722
f 670 722 728
f 728 726 670
f 726 734 670
f 670 734 740
f 740 880 670
f 670 880 914
f 914 913 670
f 672 671 674
f 672 679 671
f 674 671 673
f 680 679 672
f 676 675 678
f 678 675 677
f 678 677 682
f 682 677 681
f 680 687 679
f 687 791 679
f 679 791 789
f 688 687 680
f 792 688 680
f 792 680 790
f 790 680 841
f 682 681 684
f 684 681 683
f 684 683 690
f 690 683 689
f 686 685 688
f 686 691 685
f 688 685 687
f 685 793 687
f 691 773 685
f 685 773 793
f 792 686 688
f 692 691 686
f 774 692 686
f 774 686 794
f 794 686 792
f 687 793 791
f 690 689 694
f 694 689 693
f 692 695 691
f 695 775 691
f 691 775 773
f 696 695 692
f 776 696 692
f 776 692 774
f 694 693 698
f 698 693 697
f 696 701 695
f 701 777 695
f 695 777 775
f 702 701 696
f 778 702 696
f 778 696 776
f 698 697 700
f 700 697 699
f 700 699 704
f 704 699 703
f 702 705 701
f 705 779 701
f 701 779 777
f 706 705 702
f 780 706 702
f 780 702 778
f 704 703 708
f 708 703 707
f 706 709 705
f 709 781 705
f 705 781 779
f 710 709 706
f 782 710 706
f 782 706 780
f 708 707 714
f 714 707 713
f 710 715 709
f 715 783 709
f 709 783 781
f 716 715 710
f 784 716 710
f 784 710 782
f 712 713 711
f 712 711 718
f 718 711 717
f 714 713 712
f 716 719 715
f 719 785 715
f 715 785 783
f 720 719 716
f 786 720 716
f 786 716 784
f 718 717 722
f 722 717 721
f 720 723 719
f 723 795 719
f 719 787 785
f 719 795 787
f 724 723 720
f 796 724 720
f 788 720 786
f 796 720 788
f 722 721 728
f 728 721 727
f 724 729 723
f 729 797 723
f 723 797 795
f 730 729 724
f 798 730 724
f 798 724 796
f 726 727 725
f 726 725 734
f 734 725 733
f 728 727 726
f 730 731 729
f 731 803 729
f 729 803 797
f 732 731 730
f 804 732 730
f 804 730 798
f 732 735 731
f 735 803 731
f 736 735 732
f 804 736 732
f 734 733 740
f 740 733 739
f 736 737 735
f 811 735 737
f 735 805 803
f 805 735 811
f 738 737 736
f 736 812 738
f 806 736 804
f 812 736 806
f 738 741 737
f 811 737 741
f 742 741 738
f 738 812 742
f 740 739 748
f 748 739 747
f 879 747 739
f 879 739 913
f 748 880 740
f 742 743 741
f 817 741 743
f 811 741 813
f 813 741 817
f 744 743 742
f 742 818 744
f 742 812 814
f 742 814 818
f 744 749 743
f 821 743 749
f 817 743 821
f 750 749 744
f 744 822 750
f 744 818 822
f 746 747 745
f 746 745 764
f 871 745 747
f 764 745 763
f 863 763 745
f 863 745 871
f 748 747 746
f 746 872 748
f 764 864 746
f 746 864 872
f 871 747 869
f 869 747 879
f 748 872 870
f 748 870 880
f 750 751 749
f 821 749 751
f 752 751 750
f 750 822 752
f 752 753 751
f 827 751 753
f 821 751 823
f 823 751 827
f 754 753 752
f 752 828 754
f 752 822 824
f 752 824 828
f 754 755 753
f 833 753 755
f 827 753 833
f 756 755 754
f 754 834 756
f 754 828 834
f 756 765 755
f 837 755 765
f 833 755 837
f 766 765 756
f 756 834 766
f 758 759 757
f 758 757 772
f 853 757 759
f 772 757 771
f 849 771 757
f 849 757 853
f 760 759 758
f 758 854 760
f 772 850 758
f 758 850 854
f 760 761 759
f 857 759 761
f 853 759 857
f 762 761 760
f 760 858 762
f 760 854 858
f 762 763 761
f 863 761 763
f 857 761 865
f 865 761 863
f 764 763 762
f 762 866 764
f 762 858 866
f 764 866 864
f 766 767 765
f 837 765 767
f 768 767 766
f 766 838 768
f 766 834 838
f 768 769 767
f 845 767 769
f 837 767 845
f 770 769 768
f 768 846 770
f 768 838 846
f 770 771 769
f 849 769 771
f 845 769 849
f 772 771 770
f 770 850 772
f 770 846 850
f 774 773 776
f 774 793 773
f 776 773 775
f 794 793 774
f 776 775 778
f 778 775 777
f 778 777 780
f 780 777 779
f 780 779 782
f 782 779 781
f 782 781 784
f 784 781 783
f 784 783 786
f 786 783 785
f 786 785 788
f 788 785 787
f 788 787 796
f 796 787 795
f 790 789 792
f 790 801 789
f 792 789 791
f 840 789 801
f 802 801 790
f 841 802 790
f 792 791 794
f 794 791 793
f 796 795 798
f 798 795 797
f 798 797 804
f 804 797 803
f 800 799 802
f 800 809 799
f 802 799 801
f 840 801 799
f 840 799 809
f 841 800 802
f 810 809 800
f 841 810 800
f 804 803 806
f 806 803 805
f 806 805 812
f 812 805 811
f 808 807 810
f 808 815 807
f 810 807 809
f 840 809 807
f 840 807 815
f 841 808 810
f 816 815 808
f 841 816 808
f 812 811 814
f 814 811 813
f 814 813 818
f 818 813 817
f 816 819 815
f 815 819 840
f 820 819 816
f 820 816 841
f 818 817 822
f 822 817 821
f 820 825 819
f 840 819 825
f 826 825 820
f 841 826 820
f 822 821 824
f 824 821 823
f 824 823 828
f 828 823 827
f 826 831 825
f 840 825 831
f 832 831 826
f 841 832 826
f 828 827 834
f 834 827 833
f 830 829 832
f 830 835 829
f 832 829 831
f 840 831 829
f 829 835 840
f 841 830 832
f 836 835 830
f 836 830 841
f 834 833 838
f 838 833 837
f 836 843 835
f 835 843 840
f 844 836 841
f 844 843 836
f 838 837 846
f 846 837 845
f 840 914 841
f 843 847 840
f 840 847 851
f 840 851 855
f 840 855 859
f 840 859 861
f 840 861 913
f 913 914 840
f 848 844 841
f 841 852 848
f 841 856 852
f 841 860 856
f 841 862 860
f 914 862 841
f 844 847 843
f 848 847 844
f 846 845 850
f 850 845 849
f 848 851 847
f 852 851 848
f 850 849 854
f 854 849 853
f 852 855 851
f 856 855 852
f 854 853 858
f 858 853 857
f 856 859 855
f 860 859 856
f 858 857 866
f 866 857 865
f 860 861 859
f 862 861 860
f 862 867 861
f 913 861 867
f 868 867 862
f 914 868 862
f 864 865 863
f 864 863 872
f 872 863 871
f 866 865 864
f 868 873 867
f 867 873 913
f 874 873 868
f 874 868 914
f 870 871 869
f 870 869 880
f 880 869 879
f 872 871 870
f 874 875 873
f 913 873 875
f 876 875 874
f 914 876 874
f 876 881 875
f 875 881 913
f 882 881 876
f 882 876 914
f 878 879 877
f 878 877 888
f 913 877 879
f 888 877 887
f 913 887 877
f 880 879 878
f 914 880 878
f 914 878 888
f 882 883 881
f 913 881 883
f 884 883 882
f 914 884 882
f 884 889 883
f 913 883 889
f 890 889 884
f 914 890 884
f 886 887 885
f 886 885 900
f 913 885 887
f 900 885 899
f 899 885 913
f 888 887 886
f 914 888 886
f 886 900 914
f 890 891 889
f 913 889 891
f 892 891 890
f 914 892 890
f 892 893 891
f 891 893 913
f 894 893 892
f 894 892 914
f 894 901 893
f 913 893 901
f 902 901 894
f 914 902 894
f 896 897 895
f 896 895 912
f 895 897 913
f 912 895 911
f 913 911 895
f 898 897 896
f 898 896 914
f 914 896 912
f 898 899 897
f 913 897 899
f 900 899 898
f 914 900 898
f 902 903 901
f 913 901 903
f 904 903 902
f 914 904 902
f 904 905 903
f 913 903 905
f 906 905 904
f 914 906 904
f 906 907 905
f 913 905 907
f 908 907 906
f 914 908 906
f 908 909 907
f 913 907 909
f 910 909 908
f 914 910 908
f 910 911 909
f 913 909 911
f 912 911 910
f 914 912 910
