# CAD visual only; metres; body-local coordinates
v 0.0473761559 0.0793373869 -0.0195
v 0.0473761559 0.0793373869 0.0005
v 0.0633567619 0.0527501679 -0.0195
v 0.0633567619 0.0527501679 0.0005
v 0.0635743139 0.0529677199 -0.015006144
v 0.0635453989 0.0529388049 -0.01477421
v 0.0635337829 0.0529271889 -0.014539272
v 0.0635422519 0.0529356579 -0.014264814
v 0.0635683059 0.0529617119 -0.014032194
v 0.0636030579 0.0529964639 -0.013842165
v 0.0635743139 0.0529677199 -0.005006144
v 0.0635453989 0.0529388049 -0.00477421
v 0.0635337829 0.0529271889 -0.004539272
v 0.0635422519 0.0529356579 -0.004264814
v 0.0635683059 0.0529617119 -0.004032194
v 0.0636030579 0.0529964639 -0.003842165
v 0.0637069509 0.0531003569 -0.015521481
v 0.0636294939 0.0530228999 -0.015269548
v 0.0636114119 0.0530048179 -0.015195286
v 0.0636202239 0.0530136299 -0.013767473
v 0.0636945529 0.0530879589 -0.013513662
v 0.0637466999 0.0531400869 -0.013374998
v 0.0637069509 0.0531003569 -0.005521481
v 0.0636294939 0.0530228999 -0.005269548
v 0.0636114119 0.0530048179 -0.005195286
v 0.0636202239 0.0530136299 -0.003767473
v 0.0636945529 0.0530879589 -0.003513662
v 0.0637466999 0.0531400869 -0.003374998
v 0.0638055419 0.0531989479 -0.015758183
v 0.0637607959 0.0531541829 -0.015658838
v 0.0637902259 0.0531836129 -0.013274567
v 0.0638539119 0.0532473179 -0.013145916
v 0.0638055419 0.0531989479 -0.005758183
v 0.0637607959 0.0531541829 -0.005658838
v 0.0637902259 0.0531836129 -0.003274567
v 0.0638539119 0.0532473179 -0.003145916
v 0.0639422039 0.0533355899 -0.016005547
v 0.0638708119 0.0532642169 -0.015885241
v 0.0639237979 0.0533172039 -0.013023865
v 0.0639995389 0.0533929249 -0.012909014
v 0.0639422039 0.0533355899 -0.006005547
v 0.0638708119 0.0532642169 -0.005885241
v 0.0639237979 0.0533172039 -0.003023865
v 0.0639995389 0.0533929249 -0.002909014
v 0.0640193369 0.0534127429 -0.016118519
v 0.0641018679 0.0534952549 -0.012776396
v 0.0640193369 0.0534127429 -0.006118519
v 0.0641018679 0.0534952549 -0.002776396
v 0.0641450309 0.0535384179 -0.016273024
v 0.0641232869 0.0535166929 -0.016248581
v 0.0641232869 0.0535166929 -0.012751419
v 0.0642348669 0.0536282539 -0.012634661
v 0.0641450309 0.0535384179 -0.006273024
v 0.0641232869 0.0535166929 -0.006248581
v 0.0641232869 0.0535166929 -0.002751419
v 0.0642348669 0.0536282539 -0.002634661
v 0.0642580219 0.0536514089 -0.016387007
v 0.0643531989 0.0537466049 -0.012532103
v 0.0642580219 0.0536514089 -0.006387007
v 0.0643531989 0.0537466049 -0.002532103
v 0.0644022369 0.0537956429 -0.016504766
v 0.0643776129 0.0537709999 -0.016486628
v 0.0643776129 0.0537709999 -0.012513372
v 0.0644774249 0.0538708119 -0.012444527
v 0.0644022369 0.0537956429 -0.006504766
v 0.0643776129 0.0537709999 -0.006486628
v 0.0643776129 0.0537709999 -0.002513372
v 0.0644774249 0.0538708119 -0.002444527
v 0.0645028879 0.0538962749 -0.016571133
v 0.0646065519 0.0539999579 -0.012372581
v 0.0645028879 0.0538962749 -0.006571133
v 0.0646065519 0.0539999579 -0.002372581
v 0.0646328929 0.0540262989 -0.016639874
v 0.0647396469 0.0541330339 -0.012316839
v 0.0646328929 0.0540262989 -0.006639874
v 0.0647396469 0.0541330339 -0.002316839
v 0.0647709849 0.0513359449 -0.0195
v 0.0647709849 0.0513359449 0.0005
v 0.0649950219 0.0515599819 -0.015044329
v 0.0649825289 0.0515474889 -0.014967806
v 0.0649564739 0.0515214539 -0.014735186
v 0.0649477579 0.0515127369 -0.0145
v 0.0649596219 0.0515245819 -0.01422579
v 0.0649885369 0.0515534969 -0.013993856
v 0.0649950219 0.0515599819 -0.005044329
v 0.0649825289 0.0515474889 -0.004967806
v 0.0649564739 0.0515214539 -0.004735186
v 0.0649477579 0.0515127369 -0.0045
v 0.0649596219 0.0515245819 -0.00422579
v 0.0649885369 0.0515534969 -0.003993856
v 0.0647666359 0.0541600419 -0.016692335
v 0.0648482709 0.0542416569 -0.012284185
v 0.0647666359 0.0541600419 -0.006692335
v 0.0648482709 0.0542416569 -0.002284185
v 0.0648756409 0.0542690469 -0.0167223
v 0.0649858669 0.0543792729 -0.01225856
v 0.0648756409 0.0542690469 -0.0067223
v 0.0649858669 0.0543792729 -0.00225856
v 0.0651749989 0.0517399789 -0.015658838
v 0.0651087759 0.0516737559 -0.015486338
v 0.0650344469 0.0515994069 -0.015232527
v 0.0650019649 0.0515669439 -0.013917658
v 0.0650436969 0.0516086769 -0.013730452
v 0.0651211739 0.0516861339 -0.013478519
v 0.0651749989 0.0517399789 -0.005658838
v 0.0651087759 0.0516737559 -0.005486338
v 0.0650344469 0.0515994069 -0.005232527
v 0.0650019649 0.0515669439 -0.003917658
v 0.0650436969 0.0516086769 -0.003730452
v 0.0651211739 0.0516861339 -0.003478519
v 0.0652354809 0.0518004609 -0.01579055
v 0.0652044299 0.0517694089 -0.015725433
v 0.0651895139 0.0517544749 -0.013307678
v 0.0652197649 0.0517847249 -0.013241817
v 0.0652354809 0.0518004609 -0.00579055
v 0.0652044299 0.0517694089 -0.005725433
v 0.0651895139 0.0517544749 -0.003307678
v 0.0652197649 0.0517847249 -0.003241817
v 0.0650135609 0.0544069479 -0.01674452
v 0.0650967599 0.0544901659 -0.01225034
v 0.0650135609 0.0544069479 -0.00674452
v 0.0650967599 0.0544901659 -0.00225034
v 0.0651245309 0.0545179369 -0.016750004
v 0.0651523019 0.0545457079 -0.01674966
v 0.0652355199 0.0546289059 -0.01225548
v 0.0651245309 0.0545179369 -0.012249996
v 0.0651245309 0.0545179369 -0.006750004
v 0.0651523019 0.0545457079 -0.00674966
v 0.0652355199 0.0546289059 -0.00225548
v 0.0651245309 0.0545179369 -0.002249996
v 0.0654335599 0.0519985199 -0.016118519
v 0.0653380199 0.0519029809 -0.015976135
v 0.0652516179 0.0518165779 -0.013177483
v 0.0653564069 0.0519213869 -0.012994453
v 0.0654335599 0.0519985199 -0.006118519
v 0.0653380199 0.0519029809 -0.005976135
v 0.0652516179 0.0518165779 -0.003177483
v 0.0653564069 0.0519213869 -0.002994453
v 0.0654949569 0.0520599369 -0.016198093
v 0.0654537009 0.0520186619 -0.012854454
v 0.0654949569 0.0520599369 -0.006198093
v 0.0654537009 0.0520186619 -0.002854454
v 0.0652631949 0.0546566009 -0.01674144
v 0.0653459549 0.0547393609 -0.012271893
v 0.0652631949 0.0546566009 -0.00674144
v 0.0653459549 0.0547393609 -0.002271893
v 0.0653734209 0.0547668269 -0.0167223
v 0.0654824259 0.0548758319 -0.012307665
v 0.0653734209 0.0547668269 -0.0067223
v 0.0654824259 0.0548758319 -0.002307665
v 0.0656722259 0.0522372059 -0.016387007
v 0.0655375099 0.0521024699 -0.016248581
v 0.0655160709 0.0520810509 -0.012776396
v 0.0655592349 0.0521242139 -0.012726976
v 0.0656722259 0.0522372059 -0.006387007
v 0.0655375099 0.0521024699 -0.006248581
v 0.0655160709 0.0520810509 -0.002776396
v 0.0655592349 0.0521242139 -0.002726976
v 0.0657432559 0.0523082159 -0.016448557
v 0.0656956479 0.0522606279 -0.012591888
v 0.0657432559 0.0523082159 -0.006448557
v 0.0656956479 0.0522606279 -0.002591888
v 0.0655094339 0.0549028209 -0.016683161
v 0.0655896949 0.0549831009 -0.01234831
v 0.0655094339 0.0549028209 -0.006683161
v 0.0655896949 0.0549831009 -0.00234831
v 0.0656161689 0.0550095749 -0.016639874
v 0.0657461929 0.0551395799 -0.012428867
v 0.0656161689 0.0550095749 -0.006639874
v 0.0657461929 0.0551395799 -0.002428867
v 0.0659170909 0.0524820709 -0.016571133
v 0.0657918169 0.0523567959 -0.016486628
v 0.0657674219 0.0523324009 -0.012532103
v 0.0658164599 0.0523814199 -0.012495234
v 0.0659170909 0.0524820709 -0.006571133
v 0.0657918169 0.0523567959 -0.006486628
v 0.0657674219 0.0523324009 -0.002532103
v 0.0658164599 0.0523814199 -0.002495234
v 0.0659946059 0.0525595669 -0.016614305
v 0.0659427449 0.0525077249 -0.012413837
v 0.0659946059 0.0525595669 -0.006614305
v 0.0659427449 0.0525077249 -0.002413837
v 0.0657716559 0.0551650429 -0.016555473
v 0.0658468249 0.0552402309 -0.012495234
v 0.0657716559 0.0551650429 -0.006555473
v 0.0658468249 0.0552402309 -0.002495234
v 0.0658714679 0.0552648549 -0.016486628
v 0.0659910579 0.0553844449 -0.012612993
v 0.0658714679 0.0552648549 -0.006486628
v 0.0659910579 0.0553844449 -0.002612993
v 0.0661808589 0.0527458189 -0.016692335
v 0.0660207749 0.0525857349 -0.012372581
v 0.0661808589 0.0527458189 -0.006692335
v 0.0660207749 0.0525857349 -0.002372581
v 0.0662351799 0.0528001399 -0.016708662
v 0.0662079619 0.0527729419 -0.012299168
v 0.0662351799 0.0528001399 -0.006708662
v 0.0662079619 0.0527729419 -0.002299168
v 0.0660142139 0.0554076009 -0.016365339
v 0.0661040499 0.0554974369 -0.012726976
v 0.0660142139 0.0554076009 -0.006365339
v 0.0661040499 0.0554974369 -0.002726976
v 0.0661257739 0.0555191799 -0.016248581
v 0.0662495419 0.0556429289 -0.012909014
v 0.0661257739 0.0555191799 -0.006248581
v 0.0662495419 0.0556429289 -0.002909014
v 0.0664277649 0.0529927449 -0.01674452
v 0.0662624739 0.0528274539 -0.012284185
v 0.0664277649 0.0529927449 -0.00674452
v 0.0662624739 0.0528274539 -0.002284185
v 0.0664832309 0.0530481909 -0.016748631
v 0.0664554789 0.0530204579 -0.012253086
v 0.0664832309 0.0530481909 -0.006748631
v 0.0664554789 0.0530204579 -0.002253086
v 0.0662689969 0.0556624029 -0.016062977
v 0.0663252639 0.0557186699 -0.015976135
v 0.0663433079 0.0557366939 -0.013053724
v 0.0663068769 0.0557002639 -0.012994453
v 0.0662689969 0.0556624029 -0.006062977
v 0.0663252639 0.0557186699 -0.005976135
v 0.0663433079 0.0557366939 -0.003053724
v 0.0663068769 0.0557002639 -0.002994453
v 0.0663609699 0.0557543559 -0.015915968
v 0.0664588549 0.0558522419 -0.015725433
v 0.0664882849 0.0558816719 -0.013341162
v 0.0664435199 0.0558369259 -0.013241817
v 0.0663609699 0.0557543559 -0.005915968
v 0.0664588549 0.0558522419 -0.005725433
v 0.0664882849 0.0558816719 -0.003341162
v 0.0664435199 0.0558369259 -0.003241817
v 0.0665387539 0.0531037139 -0.016750004
v 0.0666774179 0.0532423779 -0.01674144
v 0.0665665059 0.0531314849 -0.01225034
v 0.0665387539 0.0531037139 -0.012249996
v 0.0665387539 0.0531037139 -0.006750004
v 0.0666774179 0.0532423779 -0.00674144
v 0.0665665059 0.0531314849 -0.00225034
v 0.0665387539 0.0531037139 -0.002249996
v 0.0667326359 0.0532976149 -0.016733229
v 0.0667050549 0.0532700159 -0.012262327
v 0.0667326359 0.0532976149 -0.006733229
v 0.0667050549 0.0532700159 -0.002262327
v 0.0665023799 0.0558957669 -0.015625002
v 0.0665545079 0.0559479139 -0.015486338
v 0.0665996739 0.0559930799 -0.013657133
v 0.0665421109 0.0559355159 -0.013478519
v 0.0665023799 0.0558957669 -0.005625002
v 0.0665545079 0.0559479139 -0.005486338
v 0.0665996739 0.0559930799 -0.003657133
v 0.0665421109 0.0559355159 -0.003478519
v 0.0666098599 0.0560032459 -0.015306332
v 0.0666288379 0.0560222439 -0.015232527
v 0.0666807559 0.0560741619 -0.014967806
v 0.0667068099 0.0561002159 -0.014735186
v 0.0667155269 0.0561089329 -0.0145
v 0.0667036629 0.0560970689 -0.01422579
v 0.0666747479 0.0560681529 -0.013993856
v 0.0666195679 0.0560129739 -0.013730452
v 0.0666098599 0.0560032459 -0.005306332
v 0.0666288379 0.0560222439 -0.005232527
v 0.0666807559 0.0560741619 -0.004967806
v 0.0667068099 0.0561002159 -0.004735186
v 0.0667155269 0.0561089329 -0.0045
v 0.0667036629 0.0560970689 -0.00422579
v 0.0666747479 0.0560681529 -0.003993856
v 0.0666195679 0.0560129739 -0.003730452
v 0.0669236369 0.0534886169 -0.016683161
v 0.0667601779 0.0533251379 -0.012271893
v 0.0669236369 0.0534886169 -0.006683161
v 0.0667601779 0.0533251379 -0.002271893
v 0.0669772909 0.0535422519 -0.016662838
v 0.0669505309 0.0535154919 -0.012326672
v 0.0669772909 0.0535422519 -0.006662838
v 0.0669505309 0.0535154919 -0.002326672
v 0.0671603969 0.0537253759 -0.016571133
v 0.0670039179 0.0535688779 -0.01234831
v 0.0671603969 0.0537253759 -0.006571133
v 0.0670039179 0.0535688779 -0.00234831
v 0.0672361949 0.0538011549 -0.016522285
v 0.0671858599 0.0537508389 -0.012444527
v 0.0672361949 0.0538011549 -0.006522285
v 0.0671858599 0.0537508389 -0.002444527
v 0.0672610469 0.0538260079 -0.016504766
v 0.0674284169 0.0539933969 -0.016365339
v 0.0672856709 0.0538506509 -0.012513372
v 0.0672610469 0.0538260079 -0.012495234
v 0.0672610469 0.0538260079 -0.006504766
v 0.0674284169 0.0539933969 -0.006365339
v 0.0672856709 0.0538506509 -0.002513372
v 0.0672610469 0.0538260079 -0.002495234
v 0.0674962239 0.0540612029 -0.016296932
v 0.0674513049 0.0540162659 -0.01265691
v 0.0674962239 0.0540612029 -0.006296932
v 0.0674513049 0.0540162659 -0.00265691
v 0.0675182529 0.0540832329 -0.016273024
v 0.0676832199 0.0542481799 -0.016062977
v 0.0675399969 0.0541049579 -0.012751419
v 0.0675182529 0.0540832329 -0.012726976
v 0.0675182529 0.0540832329 -0.006273024
v 0.0676832199 0.0542481799 -0.006062977
v 0.0675399969 0.0541049579 -0.002751419
v 0.0675182529 0.0540832329 -0.002726976
v 0.0677210809 0.0542860599 -0.016005547
v 0.0677394869 0.0543044469 -0.015976135
v 0.0677394869 0.0543044469 -0.013023865
v 0.0677023319 0.0542672919 -0.0129655
v 0.0677210809 0.0542860599 -0.006005547
v 0.0677394869 0.0543044469 -0.005976135
v 0.0677394869 0.0543044469 -0.003023865
v 0.0677023319 0.0542672919 -0.0029655
v 0.0678577419 0.0544227029 -0.015758183
v 0.0679302599 0.0544952389 -0.015590822
v 0.0678730579 0.0544380379 -0.013274567
v 0.0677575109 0.0543224909 -0.013053724
v 0.0678577419 0.0544227029 -0.005758183
v 0.0679302599 0.0544952389 -0.005590822
v 0.0678730579 0.0544380379 -0.003274567
v 0.0677575109 0.0543224909 -0.003053724
v 0.0679563329 0.0545212939 -0.015521481
v 0.0679921909 0.0545571519 -0.015415155
v 0.0679687119 0.0545336919 -0.013513662
v 0.0679435159 0.0545084759 -0.013443691
v 0.0679563329 0.0545212939 -0.005521481
v 0.0679921909 0.0545571519 -0.005415155
v 0.0679687119 0.0545336919 -0.003513662
v 0.0679435159 0.0545084759 -0.003443691
v 0.0680337909 0.0545987699 -0.015269548
v 0.0680889699 0.0546539309 -0.015006144
v 0.0681178859 0.0546828459 -0.01477421
v 0.0681295009 0.0546944619 -0.014539272
v 0.0681210139 0.0546859929 -0.014264814
v 0.0680949779 0.0546599389 -0.014032194
v 0.0680430599 0.0546080209 -0.013767473
v 0.0680032539 0.0545682339 -0.013620855
v 0.0680337909 0.0545987699 -0.005269548
v 0.0680889699 0.0546539309 -0.005006144
v 0.0681178859 0.0546828459 -0.00477421
v 0.0681295009 0.0546944619 -0.004539272
v 0.0681210139 0.0546859929 -0.004264814
v 0.0680949779 0.0546599389 -0.004032194
v 0.0680430599 0.0546080209 -0.003767473
v 0.0680032539 0.0545682339 -0.003620855
v 0.0686600689 0.0580534749 -0.0195
v 0.0686600689 0.0580534749 0.0005
v 0.0700742909 0.0566392519 -0.0195
v 0.0700742909 0.0566392519 0.0005
v 0.0729027179 0.0538108249 -0.0195
v 0.0729027179 0.0538108249 0.0005
v 0.0760784339 0.0569865419 -0.010541889
v 0.0760662079 0.0569743349 -0.010438606
v 0.0760456089 0.0569537159 -0.01023122
v 0.0760243229 0.0569324299 -0.009918539
v 0.0760165599 0.0569246869 -0.009709398
v 0.0760139849 0.0569220929 -0.0095
v 0.0760198019 0.0569279099 -0.009185984
v 0.0760301209 0.0569382479 -0.008977062
v 0.0760552599 0.0569633869 -0.008664963
v 0.0760784339 0.0569865419 -0.008458111
v 0.0762451169 0.0571532439 -0.011453411
v 0.0761783409 0.0570864489 -0.011153824
v 0.0761400029 0.0570481109 -0.01095153
v 0.0761066819 0.0570148089 -0.010747473
v 0.0760919189 0.0570000459 -0.008355143
v 0.0761227229 0.0570308299 -0.008150293
v 0.0761585429 0.0570666699 -0.007947084
v 0.0761993599 0.0571074869 -0.007745773
v 0.0760139849 0.107975197 -0.0195
v 0.0760139849 0.107975197 0.0005
v 0.0763229179 0.0572310259 -0.011747639
v 0.0762698369 0.0571779629 -0.007447884
v 0.0764764019 0.0573845099 -0.012223942
v 0.0763807679 0.0572888949 -0.011940424
v 0.0763512419 0.0572593689 -0.007155611
v 0.0764114759 0.0573196029 -0.006964294
v 0.0765823939 0.0574905019 -0.012500002
v 0.0765459249 0.0574540329 -0.012408859
v 0.0765105819 0.0574187089 -0.00668317
v 0.0765823939 0.0574905019 -0.006499998
v 0.0767393109 0.0576474189 -0.01285516
v 0.0766586499 0.0575667759 -0.012679512
v 0.0766199689 0.0575280759 -0.006409771
v 0.0766984369 0.0576065639 -0.006232168
v 0.0768242459 0.0577323719 -0.013026716
v 0.0767812539 0.0576893619 -0.012941458
v 0.0767812539 0.0576893619 -0.006058542
v 0.0768242459 0.0577323719 -0.005973284
v 0.0769594769 0.0578675839 -0.013275921
v 0.0769133759 0.0578214839 -0.013193972
v 0.0768683049 0.0577764129 -0.005889112
v 0.0769594769 0.0578675839 -0.005724079
v 0.0770546529 0.0579627799 -0.013436357
v 0.0770065689 0.0579146769 -0.005643274
v 0.0772047229 0.0581128309 -0.013667948
v 0.0771037289 0.0580118369 -0.005485212
v 0.0773094369 0.0582175449 -0.013816034
v 0.0772566219 0.0581647299 -0.01374264
v 0.0772566219 0.0581647299 -0.00525736
v 0.0773094369 0.0582175449 -0.005183966
v 0.0774732019 0.0583813099 -0.014028255
v 0.0774177359 0.0583258629 -0.013958866
v 0.0773631479 0.0582712559 -0.005111877
v 0.0774732019 0.0583813099 -0.004971745
v 0.0775866319 0.0584947589 -0.014162876
v 0.0775295069 0.0584376149 -0.004903738
v 0.0777033429 0.0586114499 -0.014291813
v 0.0776445959 0.0585527039 -0.01422806
v 0.0776445959 0.0585527039 -0.00477194
v 0.0777033429 0.0586114499 -0.004708187
v 0.0778231429 0.0587312509 -0.014414913
v 0.0777628519 0.0586709789 -0.004645903
v 0.0779459189 0.0588540269 -0.014532024
v 0.0778841589 0.0587922859 -0.014474222
v 0.0778841589 0.0587922859 -0.004525778
v 0.0779459189 0.0588540269 -0.004467976
v 0.0780714989 0.0589796069 -0.014643003
v 0.0780083659 0.0589164729 -0.004411709
v 0.0781997489 0.0591078569 -0.014747717
v 0.0781352999 0.0590434079 -0.004303848
v 0.0783304979 0.0592386249 -0.014846041
v 0.0782648279 0.0591729359 -0.004202311
v 0.0784636119 0.0593717189 -0.014937851
v 0.0783967589 0.0593048859 -0.004107239
v 0.0785309789 0.0594391059 -0.014981272
v 0.0785309789 0.0594391059 -0.004018728
v 0.0787361909 0.0596443179 -0.015101482
v 0.0785988809 0.0595070079 -0.003976967
v 0.0788055419 0.0597136689 -0.015138151
v 0.0788055419 0.0597136689 -0.003861849
v 0.0789455799 0.0598536869 -0.015206339
v 0.0788753509 0.0597834589 -0.003826887
v 0.0790871809 0.0599953079 -0.015267574
v 0.0790161899 0.0599243169 -0.015237829
v 0.0790161899 0.0599243169 -0.003762171
v 0.0790871809 0.0599953079 -0.003732426
v 0.0792302319 0.0601383399 -0.015321772
v 0.0791585349 0.0600666619 -0.003704445
v 0.0793022349 0.0602103429 -0.015346224
v 0.0793022349 0.0602103429 -0.003653776
v 0.0794470789 0.0603552059 -0.015389759
v 0.0793745229 0.0602826499 -0.003631117
v 0.0795199009 0.0604280089 -0.015408842
v 0.0795199009 0.0604280089 -0.003591158
v 0.0797395709 0.0606476979 -0.015455276
v 0.0795929339 0.0605010419 -0.003573868
v 0.0798131369 0.0607212639 -0.015467131
v 0.0798131369 0.0607212639 -0.003532869
v 0.0799606709 0.0608687779 -0.015485384
v 0.0798868559 0.0607949639 -0.003522827
v 0.0800345799 0.0609426879 -0.015491774
v 0.0800345799 0.0609426879 -0.003508226
v 0.0801825719 0.0610906979 -0.015499088
v 0.0801085469 0.0610166739 -0.003503658
v 0.0803210829 0.0527439119 -0.010541889
v 0.0802979089 0.0527207379 -0.010335037
v 0.0802727699 0.0526955989 -0.010022938
v 0.0802624319 0.0526852609 -0.009814016
v 0.0802572629 0.0526800919 -0.009604713
v 0.0802592089 0.0526820369 -0.009290602
v 0.0802669529 0.0526897809 -0.009081461
v 0.0802882389 0.0527110859 -0.00876878
v 0.0803088569 0.0527316859 -0.008561394
v 0.0803210829 0.0527439119 -0.008458111
v 0.0804420089 0.0528648379 -0.011254227
v 0.0804011919 0.0528240199 -0.011052916
v 0.0803653529 0.0527881999 -0.010849707
v 0.0803345679 0.0527573969 -0.010644857
v 0.0803493309 0.0527721599 -0.008252527
v 0.0803826519 0.0528054809 -0.00804847
v 0.0804209709 0.0528437999 -0.007846176
v 0.0804877659 0.0529105949 -0.007546589
v 0.0802566149 0.0611647419 -0.015500004
v 0.0803306579 0.0612387849 -0.015499088
v 0.0803306579 0.0612387849 -0.003500912
v 0.0802566149 0.0611647419 -0.003499996
v 0.0804786679 0.0613867759 -0.015491774
v 0.0804046819 0.0613128089 -0.003503658
v 0.0805124859 0.0529353139 -0.011552116
v 0.0805655479 0.0529883959 -0.007252361
v 0.0806541249 0.0530769539 -0.012035706
v 0.0805938909 0.0530167199 -0.011844389
v 0.0806234169 0.0530462459 -0.007059576
v 0.0807190319 0.0531418799 -0.006776058
v 0.0805525779 0.0614606859 -0.015485384
v 0.0805525779 0.0614606859 -0.003514616
v 0.0807000919 0.0616082189 -0.015467131
v 0.0806263919 0.0615344999 -0.003522827
v 0.0808250239 0.0532478519 -0.012500002
v 0.0807532309 0.0531760599 -0.01231683
v 0.0807885549 0.0532114029 -0.006591141
v 0.0808250239 0.0532478519 -0.006499998
v 0.0809410859 0.0533639149 -0.012767832
v 0.0808625989 0.0532854459 -0.012590229
v 0.0809012989 0.0533241269 -0.006320488
v 0.0809819599 0.0534047889 -0.00614484
v 0.0807736589 0.0616817859 -0.015455276
v 0.0807736589 0.0616817859 -0.003544724
v 0.0809933469 0.0619014549 -0.015408842
v 0.0808470729 0.0617551999 -0.00355839
v 0.0810668949 0.0534897229 -0.013026716
v 0.0810238839 0.0534467319 -0.012941458
v 0.0810238839 0.0534467319 -0.006058542
v 0.0810668949 0.0534897229 -0.005973284
v 0.0812021069 0.0536249539 -0.013275921
v 0.0811109349 0.0535337639 -0.013110888
v 0.0811560059 0.0535788539 -0.005806028
v 0.0812492179 0.0536720469 -0.005643274
v 0.0810661509 0.0619742779 -0.015389759
v 0.0810661509 0.0619742779 -0.003610241
v 0.0812110139 0.0621191219 -0.015346224
v 0.0811387059 0.0620468329 -0.003631117
v 0.0812973019 0.0537201309 -0.013436357
v 0.0812973019 0.0537201309 -0.005563643
v 0.0813463589 0.0537692069 -0.013514788
v 0.0814992519 0.0539220999 -0.00525736
v 0.0812830159 0.0621911239 -0.015321772
v 0.0812830159 0.0621911239 -0.003678228
v 0.0814260479 0.0623341749 -0.015267574
v 0.0814970399 0.0624051669 -0.015237829
v 0.0814970399 0.0624051669 -0.003762171
v 0.0813546939 0.0622628209 -0.003704445
v 0.0815520669 0.0539749149 -0.013816034
v 0.0815520669 0.0539749149 -0.005183966
v 0.0817158319 0.0541386799 -0.014028255
v 0.0816057779 0.0540286259 -0.013888123
v 0.0816603849 0.0540832139 -0.005041134
v 0.0817158319 0.0541386799 -0.004971745
v 0.0815676689 0.0624757769 -0.015206339
v 0.0815676689 0.0624757769 -0.003793661
v 0.0817076869 0.0626158139 -0.015138151
v 0.0816378979 0.0625460049 -0.003826887
v 0.0817721369 0.0541949849 -0.014096262
v 0.0817721369 0.0541949849 -0.004903738
v 0.0819459729 0.0543688199 -0.014291813
v 0.0818292809 0.0542521099 -0.014162876
v 0.0818872259 0.0543100739 -0.00477194
v 0.0819459729 0.0543688199 -0.004708187
v 0.0817770389 0.0626851659 -0.015101482
v 0.0817770389 0.0626851659 -0.003898518
v 0.0819143489 0.0628224759 -0.015023033
v 0.0819822499 0.0628903769 -0.014981272
v 0.0819822499 0.0628903769 -0.004018728
v 0.0818459319 0.0627540589 -0.003936893
v 0.0820055009 0.0544283299 -0.014354097
v 0.0820657729 0.0544886209 -0.004585087
v 0.0821885489 0.0546113969 -0.014532024
v 0.0821268079 0.0545496369 -0.014474222
v 0.0821268079 0.0545496369 -0.004525778
v 0.0821885489 0.0546113969 -0.004467976
v 0.0820496369 0.0629577449 -0.014937851
v 0.0820496369 0.0629577449 -0.004062149
v 0.0822484209 0.0631565289 -0.014797689
v 0.0821164699 0.0630245969 -0.004107239
v 0.0822509959 0.0546738429 -0.014588291
v 0.0823141479 0.0547369769 -0.004356997
v 0.0823779489 0.0548007779 -0.014696152
v 0.0824423789 0.0548652269 -0.004252283
v 0.0823134999 0.0632216069 -0.014747717
v 0.0823134999 0.0632216069 -0.004252283
v 0.0824417499 0.0633498569 -0.014643003
v 0.0823779489 0.0632860569 -0.004303848
v 0.0825074579 0.0549303059 -0.014797689
v 0.0825731469 0.0549959759 -0.004153959
v 0.0826394079 0.0550622369 -0.014892761
v 0.0827062419 0.0551290699 -0.004062149
v 0.0825673299 0.0634754369 -0.014532024
v 0.0825048829 0.0634129909 -0.004411709
v 0.0826901059 0.0635982129 -0.014414913
v 0.0826290699 0.0635371969 -0.004525778
v 0.0827736279 0.0551964569 -0.014981272
v 0.0827736279 0.0551964569 -0.004018728
v 0.0828415299 0.0552643589 -0.015023033
v 0.0829788399 0.0554016689 -0.003898518
v 0.0828099059 0.0637180139 -0.014291813
v 0.0827503779 0.0636585049 -0.004645903
v 0.0829837419 0.0638918499 -0.014096262
v 0.0828686519 0.0637767599 -0.00477194
v 0.0830481909 0.0554710199 -0.015138151
v 0.0830481909 0.0554710199 -0.003861849
v 0.0831179999 0.0555408289 -0.015173113
v 0.0831882099 0.0556110569 -0.003793661
v 0.0830400469 0.0639481549 -0.014028255
v 0.0830400469 0.0639481549 -0.004971745
v 0.0832038119 0.0641119199 -0.013816034
v 0.0830954929 0.0640036199 -0.005041134
v 0.0832588389 0.0556816669 -0.015237829
v 0.0832588389 0.0556816669 -0.003762171
v 0.0833298299 0.0557526589 -0.015267574
v 0.0834728809 0.0558957099 -0.003678228
v 0.0833085249 0.0642166329 -0.013667948
v 0.0832566259 0.0641647339 -0.00525736
v 0.0834095189 0.0643176269 -0.013514788
v 0.0834585759 0.0643667029 -0.013436357
v 0.0834585759 0.0643667029 -0.005563643
v 0.0833594899 0.0642676159 -0.005408012
v 0.0835448649 0.0559677129 -0.015346224
v 0.0835448649 0.0559677129 -0.003653776
v 0.0836171719 0.0560400009 -0.015368883
v 0.0836897279 0.0561125569 -0.003610241
v 0.0835537719 0.0644618799 -0.013275921
v 0.0835066799 0.0644147869 -0.005643274
v 0.0836889839 0.0645971109 -0.013026716
v 0.0837319949 0.0646401019 -0.012941458
v 0.0837319949 0.0646401019 -0.006058542
v 0.0835998729 0.0645079799 -0.005806028
v 0.0837625309 0.0561853599 -0.015408842
v 0.0837625309 0.0561853599 -0.003591158
v 0.0838355639 0.0562583919 -0.015426132
v 0.0839822199 0.0564050479 -0.003544724
v 0.0838147929 0.0647229199 -0.012767832
v 0.0837739369 0.0646820449 -0.00614484
v 0.0839308549 0.0648389629 -0.012500002
v 0.0839673229 0.0648754309 -0.012408859
v 0.0839673229 0.0648754309 -0.006591141
v 0.0838545799 0.0647627069 -0.006320488
v 0.0840557859 0.0564786149 -0.015467131
v 0.0840557859 0.0564786149 -0.003532869
v 0.0841294859 0.0565523339 -0.015477173
v 0.0842033009 0.0566261479 -0.003514616
v 0.0840026479 0.0649107739 -0.01231683
v 0.0840698819 0.0649779889 -0.012130224
v 0.0840368459 0.0649449539 -0.006776058
v 0.0840026479 0.0649107739 -0.00668317
v 0.0841017529 0.0650098799 -0.012035706
v 0.0841619869 0.0650701139 -0.011844389
v 0.0842433929 0.0651515199 -0.011552116
v 0.0841903309 0.0650984379 -0.007252361
v 0.0841324619 0.0650405879 -0.007059576
v 0.0841017529 0.0650098799 -0.006964294
v 0.0842772099 0.0567000579 -0.015491774
v 0.0842772099 0.0567000579 -0.003508226
v 0.0844992639 0.0569220929 -0.015500004
v 0.0843511959 0.0567740249 -0.015496342
v 0.0844252209 0.0568480489 -0.003500912
v 0.0844992639 0.0569220929 -0.003499996
v 0.0843138699 0.0652219959 -0.011254227
v 0.0843349079 0.0652430149 -0.011153824
v 0.0843349079 0.0652430149 -0.007846176
v 0.0842681119 0.0651762389 -0.007546589
v 0.0843546869 0.0652628139 -0.011052916
v 0.0843905259 0.0652986339 -0.010849707
v 0.0844348149 0.0653429219 -0.010541889
v 0.0844579699 0.0653660969 -0.010335037
v 0.0844831089 0.0653912349 -0.010022938
v 0.0844934459 0.0654015539 -0.009814016
v 0.0844986149 0.0654067229 -0.009604713
v 0.0844966699 0.0654047969 -0.009290602
v 0.0844889259 0.0653970339 -0.009081461
v 0.0844676399 0.0653757479 -0.00876878
v 0.0844470219 0.0653551479 -0.008561394
v 0.0844065479 0.0653146739 -0.008252527
v 0.0843732449 0.0652813529 -0.00804847
v 0.0843546869 0.0652628139 -0.007947084
v 0.0845733069 0.0569961359 -0.015499088
v 0.0845733069 0.0569961359 -0.003500912
v 0.0846473309 0.0570701599 -0.015496342
v 0.0847212979 0.0571441459 -0.003508226
v 0.0847952079 0.0572180559 -0.015485384
v 0.0847952079 0.0572180559 -0.003514616
v 0.0848690219 0.0572918699 -0.015477173
v 0.0849427409 0.0573655699 -0.003532869
v 0.0850163079 0.0574391369 -0.015455276
v 0.0850163079 0.0574391369 -0.003544724
v 0.0850897219 0.0575125499 -0.01544161
v 0.0852359959 0.0576588249 -0.003591158
v 0.0853087999 0.0577316289 -0.015389759
v 0.0853087999 0.0577316289 -0.003610241
v 0.0853813549 0.0578041839 -0.015368883
v 0.0854536439 0.0578764919 -0.003653776
v 0.0855256459 0.0579484749 -0.015321772
v 0.0855256459 0.0579484749 -0.003678228
v 0.0855973439 0.0580201719 -0.015295555
v 0.0857396889 0.0581625179 -0.015237829
v 0.0857396889 0.0581625179 -0.003762171
v 0.0856686969 0.0580915259 -0.003732426
v 0.0858102989 0.0582331469 -0.015206339
v 0.0858102989 0.0582331469 -0.003793661
v 0.0858805279 0.0583033559 -0.015173113
v 0.0859503369 0.0583731649 -0.003861849
v 0.0860196879 0.0584425159 -0.015101482
v 0.0860196879 0.0584425159 -0.003898518
v 0.0860885809 0.0585114099 -0.015063107
v 0.0862248989 0.0586477279 -0.014981272
v 0.0862248989 0.0586477279 -0.004018728
v 0.0861569979 0.0585798259 -0.003976967
v 0.0862922859 0.0587151149 -0.014937851
v 0.0862922859 0.0587151149 -0.004062149
v 0.0863591199 0.0587819479 -0.014892761
v 0.0864910509 0.0589138989 -0.004202311
v 0.0865561299 0.0589789769 -0.014747717
v 0.0865561299 0.0589789769 -0.004252283
v 0.0866205789 0.0590434079 -0.014696152
v 0.0867475129 0.0591703609 -0.004411709
v 0.0868099599 0.0592328069 -0.014532024
v 0.0868099599 0.0592328069 -0.004467976
v 0.0868717189 0.0592945479 -0.014474222
v 0.0869930269 0.0594158559 -0.004645903
v 0.0870525359 0.0594753839 -0.014291813
v 0.0870525359 0.0594753839 -0.004708187
v 0.0871112819 0.0595341299 -0.01422806
v 0.0872263719 0.0596492199 -0.004903738
v 0.0872826769 0.0597055249 -0.014028255
v 0.0872826769 0.0597055249 -0.004971745
v 0.0873381419 0.0597609709 -0.013958866
v 0.0874992559 0.0599221039 -0.01374264
v 0.0874992559 0.0599221039 -0.00525736
v 0.0874464419 0.0598692889 -0.005183966
v 0.0875511549 0.0599740029 -0.013667948
v 0.0875511549 0.0599740029 -0.005332052
v 0.0876021389 0.0600249669 -0.013591988
v 0.0877012249 0.0601240539 -0.013436357
v 0.0877493099 0.0601721379 -0.005643274
v 0.0876521489 0.0600749969 -0.005485212
v 0.0877964019 0.0602192499 -0.013275921
v 0.0877964019 0.0602192499 -0.005724079
v 0.0878425029 0.0602653499 -0.013193972
v 0.0879746249 0.0603974719 -0.012941458
v 0.0879746249 0.0603974719 -0.006058542
v 0.0879316329 0.0603544619 -0.005973284
v 0.0880165669 0.0604393959 -0.01285516
v 0.0880574419 0.0604802699 -0.006232168
v 0.0880972289 0.0605200579 -0.012679512
v 0.0882099529 0.0606328009 -0.012408859
v 0.0882452969 0.0606681249 -0.00668317
v 0.0881735039 0.0605963329 -0.006499998
v 0.0882794759 0.0607023239 -0.012223942
v 0.0883125119 0.0607353589 -0.006869776
v 0.0883444019 0.0607672309 -0.012035706
v 0.0883751109 0.0607979389 -0.011940424
v 0.0884329609 0.0608558079 -0.011747639
v 0.0884860419 0.0609088709 -0.007447884
v 0.0884046359 0.0608274649 -0.007155611
v 0.0883444019 0.0607672309 -0.006964294
v 0.0885107609 0.0609335899 -0.011453411
v 0.0885565189 0.0609793469 -0.007745773
v 0.0885775569 0.0610003849 -0.011153824
v 0.0886158749 0.0610387039 -0.01095153
v 0.0886491969 0.0610720249 -0.010747473
v 0.0886896709 0.0611124989 -0.010438606
v 0.0887102699 0.0611331179 -0.01023122
v 0.0887315749 0.0611544039 -0.009918539
v 0.0887393189 0.0611621479 -0.009709398
v 0.0887418939 0.0611647419 -0.0095
v 0.0887360959 0.0611589239 -0.009185984
v 0.0887257579 0.0611485859 -0.008977062
v 0.0887006189 0.0611234479 -0.008664963
v 0.0886774449 0.0611002729 -0.008458111
v 0.0886331559 0.0610560039 -0.008150293
v 0.0885973359 0.0610201649 -0.007947084
v 0.0972978969 0.0866912839 -0.0195
v 0.0972978969 0.0866912839 0.0005
v 0.0987121009 0.0852770809 -0.0195
v 0.0987121009 0.0852770809 0.0005
v 0.0992426869 0.0886360739 -0.014539272
v 0.0992484859 0.0886418919 -0.014303896
v 0.0992426869 0.0886360739 -0.004539272
v 0.0992484859 0.0886418919 -0.004303896
v 0.0993383789 0.0887317849 -0.015269548
v 0.0992832179 0.0886766049 -0.015006144
v 0.0992543029 0.0886476899 -0.01477421
v 0.0992511559 0.0886445429 -0.014735186
v 0.0992511559 0.0886445429 -0.014264814
v 0.0992772099 0.0886705969 -0.014032194
v 0.0993291089 0.0887225149 -0.013767473
v 0.0993481059 0.0887415119 -0.013693668
v 0.0993383789 0.0887317849 -0.005269548
v 0.0992832179 0.0886766049 -0.005006144
v 0.0992543029 0.0886476899 -0.00477421
v 0.0992511559 0.0886445429 -0.004735186
v 0.0992511559 0.0886445429 -0.004264814
v 0.0992772099 0.0886705969 -0.004032194
v 0.0993291089 0.0887225149 -0.003767473
v 0.0993481059 0.0887415119 -0.003693668
v 0.0994158359 0.0888092419 -0.015521481
v 0.0993582919 0.0887516789 -0.015342867
v 0.0994034579 0.0887968449 -0.013513662
v 0.0994991109 0.0888925169 -0.013274567
v 0.0994158359 0.0888092419 -0.005521481
v 0.0993582919 0.0887516789 -0.005342867
v 0.0994034579 0.0887968449 -0.003513662
v 0.0994991109 0.0888925169 -0.003274567
v 0.0995144269 0.0889078329 -0.015758183
v 0.0995969959 0.0889904019 -0.013084032
v 0.0995144269 0.0889078329 -0.005758183
v 0.0995969959 0.0889904019 -0.003084032
v 0.0996510889 0.0890444949 -0.016005547
v 0.0996146579 0.0890080639 -0.015946276
v 0.0996326829 0.0890260889 -0.013023865
v 0.0997483829 0.0891417699 -0.012854454
v 0.0996510889 0.0890444949 -0.006005547
v 0.0996146579 0.0890080639 -0.005946276
v 0.0996326829 0.0890260889 -0.003023865
v 0.0997483829 0.0891417699 -0.002854454
v 0.0998539159 0.0892473219 -0.016273024
v 0.0997688489 0.0891622539 -0.016172077
v 0.0998321919 0.0892255779 -0.012751419
v 0.0998539159 0.0892473219 -0.012726976
v 0.0998539159 0.0892473219 -0.006273024
v 0.0997688489 0.0891622539 -0.006172077
v 0.0998321919 0.0892255779 -0.002751419
v 0.0998539159 0.0892473219 -0.002726976
v 0.0998759459 0.0892693519 -0.016296932
v 0.0999903299 0.0893837359 -0.012591888
v 0.0998759459 0.0892693519 -0.006296932
v 0.0999903299 0.0893837359 -0.002591888
v 0.100014 0.0894074059 -0.016428625
v 0.100086498 0.0894799039 -0.012513372
v 0.100014 0.0894074059 -0.006428625
v 0.100086498 0.0894799039 -0.002513372
v 0.100111141 0.0895045279 -0.016504766
v 0.100237427 0.0896308329 -0.012413837
v 0.100111141 0.0895045279 -0.006504766
v 0.100237427 0.0896308329 -0.002413837
v 0.100263271 0.0896566579 -0.016600554
v 0.100341778 0.0897351839 -0.012360126
v 0.100263271 0.0896566579 -0.006600554
v 0.100341778 0.0897351839 -0.002360126
v 0.100368271 0.0897616579 -0.01665169
v 0.10047554 0.0898689269 -0.012307665
v 0.100368271 0.0897616579 -0.00665169
v 0.10047554 0.0898689269 -0.002307665
v 0.100680828 0.0872457889 -0.014890711
v 0.10066536 0.0872303389 -0.014735186
v 0.100656643 0.0872216229 -0.0145
v 0.100668507 0.0872334859 -0.01422579
v 0.100680828 0.0872457889 -0.004890711
v 0.10066536 0.0872303389 -0.004735186
v 0.100656643 0.0872216229 -0.0045
v 0.100668507 0.0872334859 -0.00422579
v 0.100743332 0.0873082919 -0.015232527
v 0.100691414 0.0872563939 -0.014967806
v 0.100685883 0.0872508429 -0.014070684
v 0.100697422 0.0872624019 -0.013993856
v 0.100743332 0.0873082919 -0.005232527
v 0.100691414 0.0872563939 -0.004967806
v 0.100685883 0.0872508429 -0.004070684
v 0.100697422 0.0872624019 -0.003993856
v 0.100502644 0.0898960309 -0.016700832
v 0.100584545 0.0899779319 -0.0122777
v 0.100502644 0.0898960309 -0.006700832
v 0.100584545 0.0899779319 -0.0022777
v 0.100612011 0.0900053979 -0.016728107
v 0.100722447 0.0901158519 -0.01225548
v 0.100612011 0.0900053979 -0.006728107
v 0.100722447 0.0901158519 -0.00225548
v 0.10092865 0.0874936299 -0.015758183
v 0.100913315 0.0874782939 -0.015725433
v 0.100817661 0.0873826409 -0.015486338
v 0.100752602 0.0873175619 -0.013730452
v 0.100830059 0.0873950199 -0.013478519
v 0.10092865 0.0874936299 -0.013241817
v 0.10092865 0.0874936299 -0.005758183
v 0.100913315 0.0874782939 -0.005725433
v 0.100817661 0.0873826409 -0.005486338
v 0.100752602 0.0873175619 -0.003730452
v 0.100830059 0.0873950199 -0.003478519
v 0.10092865 0.0874936299 -0.003241817
v 0.100993919 0.0875588989 -0.015885241
v 0.100944386 0.0875093459 -0.01320945
v 0.100993919 0.0875588989 -0.005885241
v 0.100944386 0.0875093459 -0.00320945
v 0.100833435 0.0902268219 -0.016750004
v 0.10075016 0.0901435659 -0.016746914
v 0.100805664 0.0901990509 -0.01225034
v 0.100833435 0.0902268219 -0.012249996
v 0.100833435 0.0902268219 -0.006750004
v 0.10075016 0.0901435659 -0.006746914
v 0.100805664 0.0901990509 -0.00225034
v 0.100833435 0.0902268219 -0.002249996
v 0.100861187 0.0902545929 -0.01674966
v 0.100999737 0.0903931239 -0.012262327
v 0.100861187 0.0902545929 -0.00674966
v 0.100999737 0.0903931239 -0.002262327
v 0.101183052 0.0877480319 -0.016172077
v 0.101046906 0.0876118849 -0.015976135
v 0.1010112 0.0875761799 -0.013084032
v 0.101065312 0.0876302719 -0.012994453
v 0.101183052 0.0877480319 -0.006172077
v 0.101046906 0.0876118849 -0.005976135
v 0.1010112 0.0875761799 -0.003084032
v 0.101065312 0.0876302719 -0.002994453
v 0.101246395 0.0878113749 -0.016248581
v 0.101203861 0.0877688219 -0.012801907
v 0.101246395 0.0878113749 -0.006248581
v 0.101203861 0.0877688219 -0.002801907
v 0.101027317 0.0904207229 -0.016733229
v 0.101082306 0.0904757119 -0.0122777
v 0.101027317 0.0904207229 -0.006733229
v 0.101082306 0.0904757119 -0.0022777
v 0.101109696 0.0905031009 -0.016715815
v 0.101245213 0.0906385989 -0.012326672
v 0.101109696 0.0905031009 -0.006715815
v 0.101245213 0.0906385989 -0.002326672
v 0.101428223 0.0879931829 -0.016428625
v 0.10126812 0.0878330989 -0.012726976
v 0.101428223 0.0879931829 -0.006428625
v 0.10126812 0.0878330989 -0.002726976
v 0.101476307 0.0880412869 -0.016467897
v 0.101452141 0.0880171199 -0.012551443
v 0.101476307 0.0880412869 -0.006467897
v 0.101452141 0.0880171199 -0.002551443
v 0.101271973 0.0906653599 -0.016662838
v 0.101351395 0.0907448009 -0.012372581
v 0.101271973 0.0906653599 -0.006662838
v 0.101351395 0.0907448009 -0.002372581
v 0.101377583 0.0907709689 -0.016614305
v 0.101480541 0.0908739469 -0.012444527
v 0.101377583 0.0907709689 -0.006614305
v 0.101480541 0.0908739469 -0.002444527
v 0.101540527 0.0824486539 -0.0195
v 0.101540527 0.0824486539 0.0005
v 0.101677475 0.0882424549 -0.016600554
v 0.101500721 0.0880656819 -0.016486628
v 0.101500721 0.0880656819 -0.012513372
v 0.101525345 0.0880903249 -0.012495234
v 0.101677475 0.0882424549 -0.006600554
v 0.101500721 0.0880656819 -0.006486628
v 0.101500721 0.0880656819 -0.002513372
v 0.101525345 0.0880903249 -0.002495234
v 0.10172966 0.0882946399 -0.016627419
v 0.101703491 0.0882684519 -0.012385695
v 0.10172966 0.0882946399 -0.006627419
v 0.101703491 0.0882684519 -0.002385695
v 0.101505814 0.0908992009 -0.016539194
v 0.101580353 0.0909737589 -0.016486628
v 0.101604748 0.0909981539 -0.012532103
v 0.101555729 0.0909491159 -0.012495234
v 0.101505814 0.0908992009 -0.006539194
v 0.101580353 0.0909737589 -0.006486628
v 0.101604748 0.0909981539 -0.002532103
v 0.101555729 0.0909491159 -0.002495234
v 0.101628914 0.0910223199 -0.016448557
v 0.101745987 0.0911393739 -0.01265691
v 0.101628914 0.0910223199 -0.006448557
v 0.101745987 0.0911393739 -0.00265691
v 0.101916847 0.0884818269 -0.016700832
v 0.101756001 0.0883209609 -0.012360126
v 0.101916847 0.0884818269 -0.006700832
v 0.101756001 0.0883209609 -0.002360126
v 0.101998749 0.0885637279 -0.0167223
v 0.101944065 0.0885090449 -0.012291338
v 0.101998749 0.0885637279 -0.0067223
v 0.101944065 0.0885090449 -0.002291338
v 0.101768589 0.0911619949 -0.016320288
v 0.101834679 0.0912280659 -0.016248581
v 0.101856098 0.0912494849 -0.012776396
v 0.101812935 0.0912063409 -0.012726976
v 0.101768589 0.0911619949 -0.006320288
v 0.101834679 0.0912280659 -0.006248581
v 0.101856098 0.0912494849 -0.002776396
v 0.101812935 0.0912063409 -0.002726976
v 0.101877213 0.0912705989 -0.016198093
v 0.101997013 0.0913903999 -0.0129655
v 0.101877213 0.0912705989 -0.006198093
v 0.101997013 0.0913903999 -0.0029655
v 0.102164383 0.0887293439 -0.016746914
v 0.102026215 0.0885911939 -0.012271893
v 0.102164383 0.0887293439 -0.006746914
v 0.102026215 0.0885911939 -0.002271893
v 0.102247639 0.0888126179 -0.016750004
v 0.102219868 0.0887848469 -0.01674966
v 0.102192116 0.0887570949 -0.012251369
v 0.102247639 0.0888126179 -0.012249996
v 0.102247639 0.0888126179 -0.006750004
v 0.102219868 0.0887848469 -0.00674966
v 0.102192116 0.0887570949 -0.002251369
v 0.102247639 0.0888126179 -0.002249996
v 0.102015762 0.0914091679 -0.016005547
v 0.102034168 0.0914275549 -0.015976135
v 0.102104054 0.0914974399 -0.013145916
v 0.102015762 0.0914091679 -0.012994453
v 0.102015762 0.0914091679 -0.006005547
v 0.102034168 0.0914275549 -0.005976135
v 0.102104054 0.0914974399 -0.003145916
v 0.102015762 0.0914091679 -0.002994453
v 0.102120571 0.0915139579 -0.015822517
v 0.10216774 0.0915611459 -0.015725433
v 0.102238197 0.0916315839 -0.013443691
v 0.102152424 0.0915458109 -0.013241817
v 0.102120571 0.0915139579 -0.005822517
v 0.10216774 0.0915611459 -0.005725433
v 0.102238197 0.0916315839 -0.003443691
v 0.102152424 0.0915458109 -0.003241817
v 0.102413941 0.0889789199 -0.016737673
v 0.10227541 0.0888403699 -0.01225034
v 0.102413941 0.0889789199 -0.006737673
v 0.10227541 0.0888403699 -0.00225034
v 0.102496529 0.0890614889 -0.0167223
v 0.10244154 0.0890064999 -0.012266771
v 0.102496529 0.0890614889 -0.0067223
v 0.10244154 0.0890064999 -0.002266771
v 0.102251015 0.0916444019 -0.015521481
v 0.102263394 0.0916567989 -0.015486338
v 0.102337742 0.0917311289 -0.015232527
v 0.102354908 0.0917482949 -0.013842165
v 0.102328472 0.0917218589 -0.013730452
v 0.102251015 0.0916444019 -0.013478519
v 0.102251015 0.0916444019 -0.005521481
v 0.102263394 0.0916567989 -0.005486338
v 0.102337742 0.0917311289 -0.005232527
v 0.102354908 0.0917482949 -0.003842165
v 0.102328472 0.0917218589 -0.003730452
v 0.102251015 0.0916444019 -0.003478519
v 0.102362785 0.0917561909 -0.015120184
v 0.102389641 0.0917830469 -0.014967806
v 0.102415695 0.0918091009 -0.014735186
v 0.102424412 0.0918178179 -0.0145
v 0.102412567 0.0918059539 -0.01422579
v 0.102383633 0.0917770389 -0.013993856
v 0.102362785 0.0917561909 -0.005120184
v 0.102389641 0.0917830469 -0.004967806
v 0.102415695 0.0918091009 -0.004735186
v 0.102424412 0.0918178179 -0.0045
v 0.102412567 0.0918059539 -0.00422579
v 0.102383633 0.0917770389 -0.003993856
v 0.102659416 0.0892243959 -0.016673328
v 0.102523918 0.0890888789 -0.012284185
v 0.102659416 0.0892243959 -0.006673328
v 0.102523918 0.0890888789 -0.002284185
v 0.102739277 0.0893042569 -0.016639874
v 0.102686176 0.0892511559 -0.012337162
v 0.102739277 0.0893042569 -0.006639874
v 0.102686176 0.0892511559 -0.002337162
v 0.102601185 0.0919945909 -0.0195
v 0.102601185 0.0919945909 0.0005
v 0.102920017 0.0894849969 -0.016539194
v 0.102765617 0.0893305969 -0.012372581
v 0.102920017 0.0894849969 -0.006539194
v 0.102765617 0.0893305969 -0.002372581
v 0.102969933 0.0895349119 -0.016504766
v 0.102994557 0.0895595359 -0.016486628
v 0.102994557 0.0895595359 -0.012513372
v 0.10294508 0.0895100589 -0.012477715
v 0.102969933 0.0895349119 -0.006504766
v 0.102994557 0.0895595359 -0.006486628
v 0.102994557 0.0895595359 -0.002513372
v 0.10294508 0.0895100589 -0.002477715
v 0.103182793 0.0897477719 -0.016320288
v 0.103018971 0.0895839309 -0.012532103
v 0.103182793 0.0897477719 -0.006320288
v 0.103018971 0.0895839309 -0.002532103
v 0.103227158 0.0897921179 -0.016273024
v 0.103248882 0.0898138619 -0.016248581
v 0.103248882 0.0898138619 -0.012751419
v 0.103205128 0.0897700879 -0.012703068
v 0.103227158 0.0897921179 -0.006273024
v 0.103248882 0.0898138619 -0.006248581
v 0.103248882 0.0898138619 -0.002751419
v 0.103205128 0.0897700879 -0.002703068
v 0.103429985 0.0899949459 -0.016005547
v 0.103270302 0.0898352809 -0.012776396
v 0.103429985 0.0899949459 -0.006005547
v 0.103270302 0.0898352809 -0.002776396
v 0.103484078 0.0900490379 -0.015915968
v 0.103448372 0.0900133519 -0.013023865
v 0.103484078 0.0900490379 -0.005915968
v 0.103448372 0.0900133519 -0.003023865
v 0.103566628 0.0901316069 -0.015758183
v 0.103665218 0.0902301979 -0.015521481
v 0.103677616 0.0902425769 -0.015486338
v 0.103677616 0.0902425769 -0.013513662
v 0.103581963 0.0901469229 -0.013274567
v 0.103501358 0.0900663379 -0.013114759
v 0.103566628 0.0901316069 -0.005758183
v 0.103665218 0.0902301979 -0.005521481
v 0.103677616 0.0902425769 -0.005486338
v 0.103677616 0.0902425769 -0.003513662
v 0.103581963 0.0901469229 -0.003274567
v 0.103501358 0.0900663379 -0.003114759
v 0.103742676 0.0903076549 -0.015269548
v 0.103689575 0.0902545359 -0.01354911
v 0.103742676 0.0903076549 -0.005269548
v 0.103689575 0.0902545359 -0.00354911
v 0.103797855 0.0903628159 -0.015006144
v 0.103826771 0.0903917499 -0.01477421
v 0.103838387 0.0904033659 -0.014539272
v 0.103829918 0.0903948779 -0.014264814
v 0.103803864 0.0903688429 -0.014032194
v 0.103751946 0.0903169249 -0.013767473
v 0.103797855 0.0903628159 -0.005006144
v 0.103826771 0.0903917499 -0.00477421
v 0.103838387 0.0904033659 -0.004539272
v 0.103829918 0.0903948779 -0.004264814
v 0.103803864 0.0903688429 -0.004032194
v 0.103751946 0.0903169249 -0.003767473
v 0.104015408 0.0905803869 -0.0195
v 0.104015408 0.0905803869 0.0005
f 343 2 1
f 1 2 367
f 749 343 1
f 749 1 367
f 344 2 343
f 344 368 2
f 367 2 368
f 4 8 3
f 77 4 3
f 6 5 3
f 3 5 19
f 7 6 3
f 8 7 3
f 3 18 17
f 17 30 3
f 3 19 18
f 30 29 3
f 3 29 38
f 3 38 37
f 37 45 3
f 3 45 50
f 50 49 3
f 3 49 57
f 3 57 62
f 3 62 61
f 61 69 3
f 3 69 73
f 3 73 91
f 77 3 345
f 3 91 95
f 3 95 119
f 3 119 123
f 123 124 3
f 3 124 143
f 3 143 147
f 3 147 163
f 3 163 343
f 345 3 343
f 13 8 4
f 4 14 13
f 15 14 4
f 16 15 4
f 4 26 16
f 4 27 26
f 4 28 27
f 35 28 4
f 36 35 4
f 4 43 36
f 4 44 43
f 48 44 4
f 4 55 48
f 56 55 4
f 4 60 56
f 4 67 60
f 4 68 67
f 72 68 4
f 4 76 72
f 4 94 76
f 78 4 77
f 4 78 344
f 4 98 94
f 4 122 98
f 4 130 122
f 129 130 4
f 4 146 129
f 4 150 146
f 4 166 150
f 344 166 4
f 80 5 6
f 101 19 5
f 79 5 80
f 101 5 79
f 81 6 7
f 80 6 81
f 82 7 8
f 81 7 82
f 13 9 8
f 83 8 9
f 82 8 83
f 12 10 9
f 84 9 10
f 12 9 13
f 83 9 84
f 11 10 12
f 11 20 10
f 102 10 20
f 84 10 102
f 86 11 12
f 25 20 11
f 107 25 11
f 85 11 86
f 107 11 85
f 87 12 13
f 86 12 87
f 88 13 14
f 87 13 88
f 89 14 15
f 88 14 89
f 90 15 16
f 89 15 90
f 108 16 26
f 90 16 108
f 100 17 18
f 99 30 17
f 99 17 100
f 101 18 19
f 100 18 101
f 25 21 20
f 103 20 21
f 102 20 103
f 24 22 21
f 104 21 22
f 24 21 25
f 103 21 104
f 23 22 24
f 23 31 22
f 104 22 31
f 106 23 24
f 34 31 23
f 105 34 23
f 105 23 106
f 107 24 25
f 106 24 107
f 109 26 27
f 108 26 109
f 110 27 28
f 109 27 110
f 110 28 35
f 112 29 30
f 132 38 29
f 111 29 112
f 132 29 111
f 112 30 99
f 34 32 31
f 114 31 32
f 104 31 113
f 113 31 114
f 33 32 34
f 33 39 32
f 133 32 39
f 114 32 133
f 116 33 34
f 42 39 33
f 136 42 33
f 115 33 116
f 136 33 115
f 116 34 105
f 118 35 36
f 110 35 117
f 117 35 118
f 137 36 43
f 118 36 137
f 132 37 38
f 131 45 37
f 131 37 132
f 42 40 39
f 134 39 40
f 133 39 134
f 41 40 42
f 41 46 40
f 134 40 46
f 136 41 42
f 47 46 41
f 135 47 41
f 135 41 136
f 138 43 44
f 137 43 138
f 138 44 48
f 152 50 45
f 139 45 131
f 152 45 139
f 47 51 46
f 153 46 51
f 134 46 140
f 140 46 153
f 54 51 47
f 156 54 47
f 141 47 135
f 156 47 141
f 157 48 55
f 138 48 142
f 142 48 157
f 152 49 50
f 151 57 49
f 151 49 152
f 54 52 51
f 154 51 52
f 153 51 154
f 53 52 54
f 53 58 52
f 154 52 58
f 156 53 54
f 59 58 53
f 155 59 53
f 155 53 156
f 158 55 56
f 157 55 158
f 158 56 60
f 172 62 57
f 159 57 151
f 172 57 159
f 59 63 58
f 173 58 63
f 154 58 160
f 160 58 173
f 66 63 59
f 176 66 59
f 161 59 155
f 176 59 161
f 177 60 67
f 158 60 162
f 162 60 177
f 172 61 62
f 171 69 61
f 171 61 172
f 66 64 63
f 174 63 64
f 173 63 174
f 65 64 66
f 65 70 64
f 174 64 70
f 176 65 66
f 71 70 65
f 175 71 65
f 175 65 176
f 178 67 68
f 177 67 178
f 178 68 72
f 191 73 69
f 179 69 171
f 191 69 179
f 71 74 70
f 192 70 74
f 174 70 180
f 180 70 192
f 75 74 71
f 193 75 71
f 181 71 175
f 193 71 181
f 194 72 76
f 178 72 182
f 182 72 194
f 191 91 73
f 75 92 74
f 192 74 92
f 93 92 75
f 193 93 75
f 194 76 94
f 77 87 78
f 79 80 77
f 77 101 79
f 80 81 77
f 81 82 77
f 82 87 77
f 77 99 100
f 77 112 99
f 77 100 101
f 111 112 77
f 77 132 111
f 77 131 132
f 77 139 131
f 77 152 139
f 151 152 77
f 159 151 77
f 172 159 77
f 77 171 172
f 77 179 171
f 77 191 179
f 77 195 191
f 77 207 195
f 77 211 207
f 77 232 211
f 232 231 77
f 77 239 232
f 77 267 239
f 77 271 267
f 345 271 77
f 78 87 88
f 88 89 78
f 89 90 78
f 78 90 108
f 78 108 109
f 78 109 110
f 78 110 117
f 117 118 78
f 78 118 137
f 78 137 138
f 78 138 142
f 78 142 157
f 157 158 78
f 158 162 78
f 162 177 78
f 78 177 178
f 78 178 182
f 78 182 194
f 78 194 198
f 78 198 210
f 78 210 214
f 78 214 237
f 237 238 78
f 237 242 78
f 78 242 270
f 270 274 78
f 78 274 346
f 344 78 346
f 83 86 82
f 82 86 87
f 84 85 83
f 83 85 86
f 84 107 85
f 102 107 84
f 207 95 91
f 195 91 191
f 207 91 195
f 93 96 92
f 208 92 96
f 192 92 196
f 196 92 208
f 97 96 93
f 209 97 93
f 197 93 193
f 209 93 197
f 210 94 98
f 194 94 198
f 198 94 210
f 207 119 95
f 97 120 96
f 208 96 120
f 121 120 97
f 209 121 97
f 210 98 122
f 103 106 102
f 102 106 107
f 104 105 103
f 103 105 106
f 104 116 105
f 113 116 104
f 114 115 113
f 113 115 116
f 114 136 115
f 133 136 114
f 232 123 119
f 211 119 207
f 232 119 211
f 120 121 126
f 234 120 126
f 208 120 212
f 212 120 233
f 233 120 234
f 126 121 127
f 236 127 121
f 213 121 209
f 236 121 213
f 238 122 130
f 210 122 214
f 214 122 237
f 237 122 238
f 231 124 123
f 231 123 232
f 232 143 124
f 232 124 231
f 126 127 125
f 233 126 125
f 125 127 128
f 125 128 144
f 233 125 144
f 234 126 233
f 235 128 127
f 235 127 236
f 144 128 145
f 236 145 128
f 236 128 235
f 237 130 129
f 237 129 146
f 238 130 237
f 134 135 133
f 133 135 136
f 134 141 135
f 140 141 134
f 140 156 141
f 153 156 140
f 267 147 143
f 239 143 232
f 267 143 239
f 144 145 148
f 268 144 148
f 233 144 240
f 240 144 268
f 148 145 149
f 269 149 145
f 241 145 236
f 269 145 241
f 270 146 150
f 237 146 242
f 242 146 270
f 267 163 147
f 148 149 164
f 268 148 164
f 164 149 165
f 269 165 149
f 270 150 166
f 154 155 153
f 153 155 156
f 154 161 155
f 160 161 154
f 160 176 161
f 173 176 160
f 275 167 163
f 163 167 343
f 271 163 267
f 275 163 271
f 164 165 168
f 276 164 168
f 268 164 272
f 272 164 276
f 168 165 169
f 277 169 165
f 273 165 269
f 277 165 273
f 278 166 170
f 170 166 344
f 270 166 274
f 274 166 278
f 275 183 167
f 167 183 343
f 168 169 184
f 280 168 184
f 276 168 280
f 184 169 185
f 277 185 169
f 282 170 186
f 186 170 344
f 278 170 282
f 174 175 173
f 173 175 176
f 174 181 175
f 180 181 174
f 180 193 181
f 192 193 180
f 283 187 183
f 343 183 187
f 279 183 275
f 283 183 279
f 184 185 188
f 285 184 188
f 280 184 286
f 286 184 285
f 188 185 189
f 287 189 185
f 281 185 277
f 287 185 281
f 289 186 190
f 344 190 186
f 282 186 290
f 290 186 289
f 284 199 187
f 343 187 199
f 284 187 283
f 188 189 200
f 285 188 200
f 200 189 201
f 288 201 189
f 288 189 287
f 289 190 202
f 344 202 190
f 192 197 193
f 196 197 192
f 196 209 197
f 208 209 196
f 295 203 199
f 199 203 343
f 291 199 284
f 295 199 291
f 200 201 204
f 297 200 204
f 285 200 292
f 292 200 298
f 298 200 297
f 204 201 205
f 299 205 201
f 293 201 288
f 299 201 293
f 301 202 206
f 206 202 344
f 289 202 294
f 294 202 302
f 302 202 301
f 296 215 203
f 343 203 215
f 296 203 295
f 204 205 218
f 297 204 218
f 218 205 219
f 300 219 205
f 300 205 299
f 301 206 222
f 344 222 206
f 208 213 209
f 212 213 208
f 212 236 213
f 233 236 212
f 303 216 215
f 343 215 216
f 303 215 296
f 311 223 216
f 216 223 343
f 304 216 303
f 311 216 304
f 218 219 217
f 305 218 217
f 217 219 220
f 217 220 226
f 314 217 226
f 305 217 314
f 297 218 306
f 306 218 305
f 307 220 219
f 307 219 300
f 226 220 227
f 315 227 220
f 308 220 307
f 315 220 308
f 309 222 221
f 344 221 222
f 318 221 230
f 230 221 344
f 309 221 318
f 301 222 310
f 310 222 309
f 311 224 223
f 223 224 343
f 312 243 224
f 224 243 343
f 312 224 311
f 226 227 225
f 313 226 225
f 225 227 228
f 225 228 246
f 313 225 246
f 314 226 313
f 315 228 227
f 246 228 247
f 316 247 228
f 316 228 315
f 317 230 229
f 229 230 344
f 317 229 250
f 250 229 344
f 318 230 317
f 234 235 233
f 233 236 234
f 233 235 236
f 236 233 241
f 241 233 240
f 234 236 235
f 241 240 269
f 269 240 268
f 319 244 243
f 343 243 244
f 319 243 312
f 327 251 244
f 244 251 343
f 320 244 319
f 327 244 320
f 246 247 245
f 321 246 245
f 245 247 248
f 245 248 258
f 334 245 258
f 321 245 334
f 313 246 322
f 322 246 321
f 323 248 247
f 323 247 316
f 258 248 259
f 335 259 248
f 324 248 323
f 335 248 324
f 325 250 249
f 344 249 250
f 342 249 266
f 266 249 344
f 325 249 342
f 317 250 326
f 326 250 325
f 327 252 251
f 343 251 252
f 328 253 252
f 252 253 343
f 328 252 327
f 329 254 253
f 253 254 343
f 329 253 328
f 330 255 254
f 254 255 343
f 330 254 329
f 331 256 255
f 343 255 256
f 331 255 330
f 257 260 256
f 332 257 256
f 256 260 261
f 256 261 343
f 332 256 331
f 258 259 257
f 333 258 257
f 257 259 260
f 333 257 332
f 334 258 333
f 335 260 259
f 336 261 260
f 336 260 335
f 337 262 261
f 344 261 262
f 337 261 336
f 343 261 344
f 338 263 262
f 344 262 263
f 338 262 337
f 339 264 263
f 263 264 344
f 339 263 338
f 340 265 264
f 264 265 344
f 340 264 339
f 341 266 265
f 344 265 266
f 341 265 340
f 342 266 341
f 269 268 273
f 273 268 272
f 345 275 271
f 273 272 277
f 277 272 276
f 346 274 278
f 279 275 345
f 277 276 281
f 281 276 280
f 278 282 346
f 283 279 345
f 281 280 287
f 287 280 286
f 282 290 346
f 345 284 283
f 345 291 284
f 288 286 285
f 288 285 293
f 293 285 292
f 287 286 288
f 346 290 289
f 346 289 294
f 345 295 291
f 293 292 299
f 299 292 298
f 346 294 302
f 296 295 345
f 345 303 296
f 300 298 297
f 300 297 307
f 307 297 306
f 299 298 300
f 302 301 346
f 346 301 310
f 345 304 303
f 345 311 304
f 308 306 305
f 308 305 315
f 315 305 314
f 307 306 308
f 346 310 309
f 346 309 318
f 312 311 345
f 345 319 312
f 316 314 313
f 316 313 323
f 323 313 322
f 315 314 316
f 318 317 346
f 346 317 326
f 345 320 319
f 345 327 320
f 324 322 321
f 324 321 335
f 335 321 334
f 323 322 324
f 346 326 325
f 346 325 342
f 345 328 327
f 329 328 345
f 330 329 345
f 331 330 345
f 345 332 331
f 337 333 332
f 337 332 346
f 346 332 345
f 336 334 333
f 336 333 337
f 335 334 336
f 346 338 337
f 346 339 338
f 340 339 346
f 341 340 346
f 346 342 341
f 751 345 343
f 751 343 749
f 346 750 344
f 344 750 368
f 345 347 346
f 909 347 345
f 909 345 751
f 346 347 348
f 348 752 346
f 346 752 750
f 347 354 348
f 349 350 347
f 347 362 349
f 347 350 351
f 347 351 352
f 347 352 353
f 353 354 347
f 347 359 360
f 347 369 359
f 347 360 361
f 361 362 347
f 347 372 369
f 371 372 347
f 376 371 347
f 347 375 376
f 380 375 347
f 347 379 380
f 347 384 379
f 347 383 384
f 388 383 347
f 347 387 388
f 391 387 347
f 347 393 391
f 347 396 393
f 395 396 347
f 347 400 395
f 399 400 347
f 347 403 399
f 406 403 347
f 347 405 406
f 347 409 405
f 347 412 409
f 347 411 412
f 415 411 347
f 347 417 415
f 347 419 417
f 421 419 347
f 347 423 421
f 425 423 347
f 427 425 347
f 347 429 427
f 432 429 347
f 347 431 432
f 347 435 431
f 347 437 435
f 347 439 437
f 347 441 439
f 347 443 441
f 347 445 443
f 447 445 347
f 347 449 447
f 451 449 347
f 347 471 451
f 472 471 347
f 475 472 347
f 347 483 475
f 485 483 347
f 347 495 485
f 497 495 347
f 909 497 347
f 354 355 348
f 348 355 356
f 348 356 357
f 348 357 358
f 348 358 363
f 348 363 364
f 364 365 348
f 348 365 366
f 348 366 370
f 348 370 373
f 348 373 374
f 348 374 377
f 377 378 348
f 348 378 381
f 381 382 348
f 348 382 385
f 385 386 348
f 348 386 389
f 389 390 348
f 348 390 392
f 392 394 348
f 394 397 348
f 348 397 398
f 348 398 401
f 348 401 402
f 348 402 404
f 348 404 407
f 348 407 408
f 408 410 348
f 348 410 413
f 413 414 348
f 348 414 416
f 416 418 348
f 348 418 420
f 348 420 422
f 422 424 348
f 348 424 426
f 348 426 428
f 348 428 430
f 348 430 433
f 348 433 434
f 434 436 348
f 348 436 438
f 438 440 348
f 348 440 442
f 442 444 348
f 444 446 348
f 348 446 448
f 448 450 348
f 348 450 452
f 452 474 348
f 348 474 473
f 348 473 476
f 348 476 484
f 348 484 486
f 348 486 496
f 348 496 498
f 348 498 910
f 348 910 752
f 349 453 350
f 362 466 349
f 349 466 453
f 350 454 351
f 350 453 454
f 351 455 352
f 351 454 455
f 352 456 353
f 352 455 456
f 353 457 354
f 353 456 457
f 354 458 355
f 354 457 458
f 355 459 356
f 355 458 459
f 356 460 357
f 356 459 460
f 357 461 358
f 357 460 461
f 358 462 363
f 358 461 462
f 359 463 360
f 369 477 359
f 359 477 463
f 360 464 361
f 360 463 464
f 361 465 362
f 361 464 465
f 362 465 466
f 363 467 364
f 363 462 467
f 364 468 365
f 364 467 468
f 365 469 366
f 365 468 469
f 366 470 370
f 366 469 470
f 750 367 368
f 749 367 750
f 372 480 369
f 369 480 477
f 370 478 373
f 370 470 478
f 371 479 372
f 376 488 371
f 371 488 479
f 372 479 480
f 373 481 374
f 373 478 481
f 374 482 377
f 374 481 482
f 375 487 376
f 380 492 375
f 375 492 487
f 376 487 488
f 377 489 378
f 377 482 489
f 378 490 381
f 378 489 490
f 379 491 380
f 384 500 379
f 379 500 491
f 380 491 492
f 381 493 382
f 381 490 493
f 382 494 385
f 382 493 494
f 383 499 384
f 388 504 383
f 383 504 499
f 384 499 500
f 385 501 386
f 385 494 501
f 386 502 389
f 386 501 502
f 387 503 388
f 391 503 387
f 388 503 504
f 389 505 390
f 389 502 505
f 390 506 392
f 390 505 506
f 393 513 391
f 391 511 503
f 391 513 511
f 392 512 394
f 392 506 512
f 396 513 393
f 394 514 397
f 394 512 514
f 395 521 396
f 400 524 395
f 395 524 521
f 396 521 513
f 397 514 398
f 398 522 401
f 398 514 522
f 399 523 400
f 403 531 399
f 399 531 523
f 400 523 524
f 401 525 402
f 401 522 525
f 402 526 404
f 402 525 526
f 406 534 403
f 403 534 531
f 404 535 407
f 404 526 532
f 404 532 535
f 405 533 406
f 409 543 405
f 405 543 533
f 406 533 534
f 407 535 408
f 408 536 410
f 408 535 536
f 412 546 409
f 409 546 543
f 410 544 413
f 410 536 544
f 411 545 412
f 415 553 411
f 411 553 545
f 412 545 546
f 413 547 414
f 413 544 547
f 414 548 416
f 414 547 548
f 417 555 415
f 415 555 553
f 416 554 418
f 416 548 554
f 419 561 417
f 417 561 555
f 418 556 420
f 418 554 556
f 421 563 419
f 419 563 561
f 420 562 422
f 420 556 562
f 423 569 421
f 421 569 563
f 422 564 424
f 422 562 564
f 425 571 423
f 423 571 569
f 424 570 426
f 424 564 570
f 427 577 425
f 425 577 571
f 426 572 428
f 426 570 572
f 429 579 427
f 427 579 577
f 428 578 430
f 428 572 578
f 432 585 429
f 429 585 579
f 430 580 433
f 430 578 580
f 431 587 432
f 435 587 431
f 432 587 585
f 433 586 434
f 433 580 586
f 434 588 436
f 434 586 588
f 437 595 435
f 435 595 587
f 436 588 438
f 439 597 437
f 437 597 595
f 438 596 440
f 438 588 596
f 441 605 439
f 439 605 597
f 440 598 442
f 440 596 598
f 443 607 441
f 441 607 605
f 442 606 444
f 442 598 606
f 445 615 443
f 443 615 607
f 444 608 446
f 444 606 608
f 447 617 445
f 445 617 615
f 446 616 448
f 446 608 616
f 449 629 447
f 447 629 617
f 448 618 450
f 448 616 618
f 451 632 449
f 449 632 629
f 450 630 452
f 450 618 630
f 471 631 451
f 451 631 632
f 452 633 474
f 452 630 633
f 453 462 454
f 453 467 462
f 466 467 453
f 454 461 455
f 454 462 461
f 455 460 456
f 455 461 460
f 456 459 457
f 456 460 459
f 457 459 458
f 463 470 464
f 463 478 470
f 477 478 463
f 464 469 465
f 464 470 469
f 465 468 466
f 465 469 468
f 466 468 467
f 472 653 471
f 471 653 631
f 475 655 472
f 472 655 653
f 474 634 473
f 473 654 476
f 473 634 654
f 474 633 634
f 483 657 475
f 475 657 655
f 476 656 484
f 476 654 656
f 477 481 478
f 480 481 477
f 479 482 480
f 479 489 482
f 488 489 479
f 480 482 481
f 485 659 483
f 483 659 657
f 484 658 486
f 484 656 658
f 495 661 485
f 485 661 659
f 486 660 496
f 486 658 660
f 487 490 488
f 487 493 490
f 492 493 487
f 488 490 489
f 491 494 492
f 491 501 494
f 500 501 491
f 492 494 493
f 497 663 495
f 495 663 661
f 496 662 498
f 496 660 662
f 507 665 497
f 909 507 497
f 497 665 663
f 498 664 508
f 910 498 508
f 498 662 664
f 499 502 500
f 499 505 502
f 504 505 499
f 500 502 501
f 503 506 504
f 503 512 506
f 511 512 503
f 504 506 505
f 509 667 507
f 909 509 507
f 507 667 665
f 508 666 510
f 910 508 510
f 508 664 666
f 515 669 509
f 909 515 509
f 509 669 667
f 510 668 516
f 910 510 516
f 510 666 668
f 511 514 512
f 513 514 511
f 513 522 514
f 521 522 513
f 517 671 515
f 909 517 515
f 515 671 669
f 516 670 520
f 910 516 520
f 516 668 670
f 518 672 517
f 909 518 517
f 517 672 671
f 527 675 518
f 909 527 518
f 518 675 672
f 520 674 519
f 910 520 519
f 519 673 528
f 910 519 528
f 519 674 673
f 520 670 674
f 521 525 522
f 524 525 521
f 523 526 524
f 523 532 526
f 531 532 523
f 524 526 525
f 529 677 527
f 529 527 909
f 527 677 675
f 528 676 530
f 528 530 910
f 528 673 676
f 537 679 529
f 909 537 529
f 529 679 677
f 530 678 538
f 910 530 538
f 530 676 678
f 531 535 532
f 534 535 531
f 533 536 534
f 533 544 536
f 543 544 533
f 534 536 535
f 539 681 537
f 539 537 909
f 537 681 679
f 538 680 542
f 538 542 910
f 538 678 680
f 540 682 539
f 909 540 539
f 539 682 681
f 549 685 540
f 549 540 909
f 540 685 682
f 542 684 541
f 910 542 541
f 541 683 550
f 541 550 910
f 541 684 683
f 542 680 684
f 543 547 544
f 546 547 543
f 545 548 546
f 545 554 548
f 553 554 545
f 546 548 547
f 551 687 549
f 909 551 549
f 549 687 685
f 550 686 552
f 910 550 552
f 550 683 686
f 557 689 551
f 909 557 551
f 551 689 687
f 552 688 558
f 910 552 558
f 552 686 688
f 553 556 554
f 555 556 553
f 555 562 556
f 561 562 555
f 559 691 557
f 909 559 557
f 557 691 689
f 558 690 560
f 910 558 560
f 558 688 690
f 565 691 559
f 909 565 559
f 560 692 566
f 910 560 566
f 560 690 692
f 561 564 562
f 563 564 561
f 563 570 564
f 569 570 563
f 567 695 565
f 567 565 909
f 565 693 691
f 565 695 693
f 566 694 568
f 566 568 910
f 566 692 694
f 573 695 567
f 909 573 567
f 568 696 574
f 910 568 574
f 568 694 696
f 569 572 570
f 571 572 569
f 571 578 572
f 577 578 571
f 575 699 573
f 909 575 573
f 573 697 695
f 573 699 697
f 574 698 576
f 910 574 576
f 574 696 698
f 581 701 575
f 909 581 575
f 575 701 699
f 576 700 582
f 910 576 582
f 576 698 700
f 577 580 578
f 579 580 577
f 579 586 580
f 585 586 579
f 583 703 581
f 909 583 581
f 581 703 701
f 582 702 584
f 910 582 584
f 582 700 702
f 589 704 583
f 909 589 583
f 583 704 703
f 584 706 590
f 910 584 590
f 584 702 706
f 585 588 586
f 587 588 585
f 587 596 588
f 595 596 587
f 591 709 589
f 909 591 589
f 589 707 704
f 589 709 707
f 590 708 594
f 910 590 594
f 590 706 705
f 590 705 708
f 592 710 591
f 592 591 909
f 591 710 709
f 599 710 592
f 909 599 592
f 594 712 593
f 594 593 910
f 593 711 600
f 910 593 600
f 593 712 711
f 594 708 712
f 595 598 596
f 597 598 595
f 597 606 598
f 605 606 597
f 601 715 599
f 601 599 909
f 599 713 710
f 599 715 713
f 600 714 604
f 600 604 910
f 600 711 714
f 602 716 601
f 602 601 909
f 601 716 715
f 609 719 602
f 909 609 602
f 602 719 716
f 604 718 603
f 604 603 910
f 603 717 610
f 910 603 610
f 603 718 717
f 604 714 718
f 605 608 606
f 607 608 605
f 607 616 608
f 615 616 607
f 611 721 609
f 611 609 909
f 609 721 719
f 610 720 614
f 610 614 910
f 610 717 720
f 612 722 611
f 612 611 909
f 611 722 721
f 619 722 612
f 909 619 612
f 614 724 613
f 614 613 910
f 613 723 622
f 910 613 622
f 613 724 723
f 614 720 724
f 615 618 616
f 617 618 615
f 617 630 618
f 629 630 617
f 620 725 619
f 909 620 619
f 619 725 722
f 623 727 620
f 909 623 620
f 620 727 725
f 622 723 621
f 910 622 621
f 621 726 628
f 910 621 628
f 621 723 726
f 624 728 623
f 909 624 623
f 623 728 727
f 625 729 624
f 909 625 624
f 624 729 728
f 635 733 625
f 909 635 625
f 625 733 729
f 627 731 626
f 910 627 626
f 626 730 638
f 910 626 638
f 626 731 730
f 628 732 627
f 910 628 627
f 627 732 731
f 628 726 732
f 629 633 630
f 632 633 629
f 631 634 632
f 631 654 634
f 653 654 631
f 632 634 633
f 636 735 635
f 909 636 635
f 635 735 733
f 639 735 636
f 909 639 636
f 638 734 637
f 910 638 637
f 637 748 652
f 910 637 652
f 637 734 748
f 638 730 734
f 640 736 639
f 640 639 909
f 639 736 735
f 641 737 640
f 909 641 640
f 640 737 736
f 642 738 641
f 909 642 641
f 641 738 737
f 643 739 642
f 909 643 642
f 642 739 738
f 644 740 643
f 909 644 643
f 643 740 739
f 645 741 644
f 645 644 909
f 644 741 740
f 646 742 645
f 909 646 645
f 645 742 741
f 647 743 646
f 647 646 910
f 646 743 742
f 910 646 909
f 648 744 647
f 910 648 647
f 647 744 743
f 649 745 648
f 910 649 648
f 648 745 744
f 650 746 649
f 910 650 649
f 649 746 745
f 651 747 650
f 910 651 650
f 650 747 746
f 652 748 651
f 652 651 910
f 651 748 747
f 654 653 656
f 656 653 655
f 656 655 658
f 658 655 657
f 658 657 660
f 660 657 659
f 660 659 662
f 662 659 661
f 662 661 664
f 664 661 663
f 664 663 666
f 666 663 665
f 666 665 668
f 668 665 667
f 668 667 670
f 670 667 669
f 670 669 674
f 674 669 671
f 673 671 672
f 674 671 673
f 673 672 676
f 676 672 675
f 676 675 678
f 678 675 677
f 678 677 680
f 680 677 679
f 680 679 684
f 684 679 681
f 683 681 682
f 684 681 683
f 683 682 686
f 686 682 685
f 686 685 688
f 688 685 687
f 688 687 690
f 690 687 689
f 690 689 692
f 692 689 691
f 692 691 694
f 694 691 693
f 694 693 696
f 696 693 695
f 696 695 698
f 698 695 697
f 698 697 700
f 700 697 699
f 700 699 702
f 702 699 701
f 702 701 706
f 706 701 703
f 705 703 704
f 706 703 705
f 705 704 708
f 708 704 707
f 708 707 712
f 712 707 709
f 711 709 710
f 712 709 711
f 711 710 714
f 714 710 713
f 714 713 718
f 718 713 715
f 717 715 716
f 718 715 717
f 717 716 720
f 720 716 719
f 720 719 724
f 724 719 721
f 723 721 722
f 724 721 723
f 723 722 726
f 726 722 725
f 726 725 732
f 732 725 727
f 731 727 728
f 732 727 731
f 730 728 729
f 731 728 730
f 730 729 734
f 734 729 733
f 734 733 748
f 748 733 735
f 747 735 736
f 748 735 747
f 746 736 737
f 747 736 746
f 745 737 738
f 746 737 745
f 744 738 739
f 745 738 744
f 743 739 740
f 744 739 743
f 742 740 741
f 743 740 742
f 750 762 749
f 749 1085 751
f 754 753 749
f 749 753 760
f 761 754 749
f 749 758 757
f 757 774 749
f 759 758 749
f 760 759 749
f 749 762 761
f 749 774 773
f 773 781 749
f 781 786 749
f 749 786 785
f 749 785 794
f 794 793 749
f 749 793 801
f 749 801 805
f 749 805 809
f 749 809 813
f 813 817 749
f 749 817 1023
f 1023 1085 749
f 752 1024 750
f 750 756 755
f 755 768 750
f 750 769 756
f 767 762 750
f 750 768 767
f 770 769 750
f 771 770 750
f 750 772 771
f 779 772 750
f 750 780 779
f 784 780 750
f 791 784 750
f 750 792 791
f 750 799 792
f 800 799 750
f 750 804 800
f 750 808 804
f 750 812 808
f 750 816 812
f 820 816 750
f 1024 820 750
f 751 834 752
f 752 910 751
f 821 822 751
f 751 830 821
f 822 823 751
f 751 823 824
f 751 824 831
f 829 830 751
f 751 847 829
f 831 834 751
f 845 846 751
f 751 857 845
f 751 846 847
f 751 874 857
f 751 873 874
f 881 873 751
f 893 881 751
f 751 897 893
f 751 912 897
f 751 910 909
f 751 911 912
f 919 911 751
f 751 935 919
f 1085 935 751
f 752 825 826
f 752 834 825
f 752 826 827
f 827 828 752
f 752 828 835
f 835 836 752
f 752 836 854
f 752 854 855
f 855 856 752
f 752 856 860
f 752 860 879
f 752 879 880
f 880 884 752
f 884 896 752
f 752 896 900
f 752 900 917
f 752 917 918
f 918 922 752
f 752 922 938
f 752 938 1086
f 1086 1024 752
f 823 753 754
f 822 760 753
f 822 753 823
f 823 754 761
f 827 755 756
f 826 768 755
f 826 755 827
f 827 756 769
f 829 757 758
f 847 774 757
f 847 757 829
f 830 758 759
f 829 758 830
f 822 759 760
f 821 759 822
f 830 759 821
f 824 761 762
f 823 761 824
f 767 763 762
f 832 762 763
f 824 762 831
f 831 762 832
f 766 764 763
f 848 763 764
f 766 763 767
f 832 763 848
f 765 764 766
f 765 775 764
f 848 764 775
f 833 765 766
f 778 775 765
f 853 778 765
f 853 765 833
f 834 766 767
f 833 766 834
f 826 767 768
f 825 767 826
f 834 767 825
f 828 769 770
f 827 769 828
f 836 770 771
f 828 770 835
f 835 770 836
f 854 771 772
f 836 771 854
f 854 772 779
f 847 773 774
f 846 781 773
f 846 773 847
f 778 776 775
f 849 775 776
f 848 775 849
f 777 776 778
f 777 782 776
f 850 776 782
f 849 776 850
f 853 777 778
f 783 782 777
f 852 783 777
f 852 777 853
f 855 779 780
f 854 779 855
f 856 780 784
f 855 780 856
f 874 786 781
f 845 781 846
f 857 781 845
f 874 781 857
f 783 787 782
f 875 782 787
f 850 782 858
f 858 782 875
f 790 787 783
f 878 790 783
f 851 783 852
f 859 783 851
f 878 783 859
f 879 784 791
f 856 784 860
f 860 784 879
f 874 785 786
f 873 794 785
f 873 785 874
f 790 788 787
f 876 787 788
f 875 787 876
f 789 788 790
f 789 795 788
f 876 788 795
f 878 789 790
f 798 795 789
f 877 798 789
f 877 789 878
f 880 791 792
f 879 791 880
f 880 792 799
f 881 793 794
f 893 801 793
f 893 793 881
f 881 794 873
f 798 796 795
f 894 795 796
f 876 795 882
f 882 795 894
f 797 796 798
f 797 802 796
f 894 796 802
f 883 797 798
f 803 802 797
f 895 803 797
f 895 797 883
f 883 798 877
f 896 799 800
f 880 799 884
f 884 799 896
f 896 800 804
f 893 805 801
f 803 806 802
f 894 802 806
f 807 806 803
f 895 807 803
f 896 804 808
f 912 809 805
f 897 805 893
f 912 805 897
f 807 810 806
f 914 806 810
f 894 806 898
f 898 806 913
f 913 806 914
f 811 810 807
f 916 811 807
f 899 807 895
f 916 807 899
f 918 808 812
f 896 808 900
f 900 808 917
f 917 808 918
f 911 813 809
f 911 809 912
f 811 814 810
f 914 810 814
f 815 814 811
f 915 815 811
f 915 811 916
f 918 812 816
f 935 817 813
f 919 813 911
f 935 813 919
f 815 818 814
f 936 814 818
f 914 814 920
f 920 814 936
f 819 818 815
f 937 819 815
f 921 815 915
f 937 815 921
f 938 816 820
f 918 816 922
f 922 816 938
f 935 837 817
f 817 837 1023
f 819 838 818
f 936 818 838
f 839 838 819
f 937 839 819
f 938 820 840
f 1024 840 820
f 832 833 831
f 831 833 834
f 832 853 833
f 848 853 832
f 939 841 837
f 1023 837 841
f 939 837 935
f 839 842 838
f 956 838 842
f 936 838 940
f 940 838 956
f 843 842 839
f 941 843 839
f 941 839 937
f 958 840 844
f 844 840 1024
f 938 840 942
f 942 840 958
f 955 862 841
f 841 862 1023
f 955 841 939
f 843 863 842
f 956 842 863
f 866 863 843
f 957 866 843
f 957 843 941
f 958 844 867
f 1024 867 844
f 849 852 848
f 848 852 853
f 850 851 849
f 849 851 852
f 850 859 851
f 858 859 850
f 858 878 859
f 875 878 858
f 960 861 862
f 862 861 1023
f 959 869 861
f 1023 861 869
f 959 861 960
f 960 862 955
f 863 866 864
f 962 863 864
f 956 863 961
f 961 863 962
f 864 866 865
f 864 865 870
f 984 864 870
f 962 864 984
f 964 865 866
f 870 865 871
f 963 871 865
f 963 865 964
f 964 866 957
f 966 867 868
f 1024 868 867
f 958 867 965
f 965 867 966
f 986 868 872
f 872 868 1024
f 966 868 986
f 983 885 869
f 1023 869 885
f 983 869 959
f 870 871 886
f 988 870 886
f 984 870 988
f 886 871 887
f 985 887 871
f 985 871 963
f 990 872 888
f 1024 888 872
f 986 872 990
f 876 877 875
f 875 877 878
f 876 883 877
f 882 883 876
f 882 895 883
f 894 895 882
f 987 889 885
f 1023 885 889
f 987 885 983
f 886 887 890
f 1016 886 890
f 988 886 1016
f 890 887 891
f 989 891 887
f 989 887 985
f 1018 888 892
f 1024 892 888
f 990 888 1018
f 1015 901 889
f 1023 889 901
f 1015 889 987
f 890 891 902
f 1020 890 902
f 1016 890 1020
f 902 891 903
f 1017 903 891
f 1017 891 989
f 1022 892 904
f 1024 904 892
f 1018 892 1022
f 894 899 895
f 898 899 894
f 898 916 899
f 913 916 898
f 1023 901 905
f 1025 905 901
f 1019 901 1015
f 1025 901 1019
f 902 903 906
f 1026 902 906
f 1020 902 1026
f 906 903 907
f 1027 907 903
f 1021 903 1017
f 1027 903 1021
f 1024 908 904
f 1028 904 908
f 1022 904 1028
f 1023 905 923
f 1025 923 905
f 906 907 926
f 1026 906 926
f 926 907 927
f 1027 927 907
f 1024 930 908
f 1028 908 930
f 914 915 913
f 913 915 916
f 914 921 915
f 920 921 914
f 920 937 921
f 936 937 920
f 1023 923 924
f 1029 924 923
f 1029 923 1025
f 924 931 1023
f 1037 931 924
f 1030 924 1029
f 1037 924 1030
f 926 927 925
f 1031 926 925
f 925 927 928
f 925 928 932
f 1038 925 932
f 1031 925 1038
f 1026 926 1032
f 1032 926 1031
f 1033 928 927
f 1033 927 1027
f 932 928 933
f 1039 933 928
f 1034 928 1033
f 1039 928 1034
f 1024 929 930
f 1035 930 929
f 934 929 1024
f 1040 929 934
f 1035 929 1040
f 1028 930 1036
f 1036 930 1035
f 931 943 1023
f 1037 943 931
f 932 933 946
f 1038 932 946
f 946 933 947
f 1039 947 933
f 950 934 1024
f 1040 934 950
f 1085 939 935
f 936 941 937
f 940 941 936
f 1086 938 942
f 1085 955 939
f 940 957 941
f 956 957 940
f 1086 942 958
f 943 944 1023
f 1041 944 943
f 1041 943 1037
f 1023 944 951
f 1049 951 944
f 1042 944 1041
f 1049 944 1042
f 946 947 945
f 1043 946 945
f 945 947 948
f 945 948 952
f 1050 945 952
f 1043 945 1050
f 1038 946 1044
f 1044 946 1043
f 1045 948 947
f 1045 947 1039
f 952 948 953
f 1051 953 948
f 1046 948 1045
f 1051 948 1046
f 949 950 1024
f 1047 950 949
f 1024 954 949
f 1052 949 954
f 1047 949 1052
f 1040 950 1048
f 1048 950 1047
f 951 967 1023
f 1049 967 951
f 952 953 970
f 1050 952 970
f 970 953 971
f 1051 971 953
f 974 954 1024
f 1052 954 974
f 1085 960 955
f 956 964 957
f 961 964 956
f 1086 958 965
f 959 960 1085
f 1085 983 959
f 962 963 961
f 961 963 964
f 962 985 963
f 984 985 962
f 965 966 1086
f 1086 966 986
f 1023 967 968
f 1049 968 967
f 968 975 1023
f 1057 975 968
f 1053 968 1049
f 1057 968 1053
f 970 971 969
f 1054 970 969
f 969 971 972
f 969 972 978
f 1062 969 978
f 1054 969 1062
f 1050 970 1054
f 1051 972 971
f 978 972 979
f 1063 979 972
f 1055 972 1051
f 1063 972 1055
f 1024 973 974
f 1056 974 973
f 982 973 1024
f 1068 973 982
f 1056 973 1068
f 1052 974 1056
f 975 976 1023
f 1057 976 975
f 976 991 1023
f 1058 991 976
f 1058 976 1057
f 978 979 977
f 1061 978 977
f 977 979 980
f 977 980 996
f 1061 977 996
f 1062 978 1061
f 1063 980 979
f 996 980 997
f 1064 997 980
f 1064 980 1063
f 981 982 1024
f 1067 982 981
f 1002 981 1024
f 1067 981 1002
f 1068 982 1067
f 1085 987 983
f 985 984 989
f 989 984 988
f 1086 986 990
f 1085 1015 987
f 989 988 1017
f 1017 988 1016
f 1086 990 1018
f 1023 991 992
f 1058 992 991
f 1023 992 993
f 1069 993 992
f 1059 992 1058
f 1069 992 1059
f 1023 993 1003
f 1073 1003 993
f 1073 993 1069
f 995 998 994
f 1078 995 994
f 994 998 999
f 994 999 1008
f 1078 994 1008
f 996 997 995
f 1060 996 995
f 995 997 998
f 1060 995 1070
f 1070 995 1078
f 1061 996 1060
f 1064 998 997
f 1071 999 998
f 1065 998 1064
f 1071 998 1065
f 1008 999 1009
f 1079 1009 999
f 1079 999 1071
f 1024 1000 1001
f 1084 1001 1000
f 1024 1014 1000
f 1084 1000 1014
f 1024 1001 1002
f 1066 1002 1001
f 1066 1001 1072
f 1072 1001 1084
f 1067 1002 1066
f 1003 1004 1023
f 1073 1004 1003
f 1004 1005 1023
f 1074 1005 1004
f 1074 1004 1073
f 1005 1006 1023
f 1075 1006 1005
f 1075 1005 1074
f 1007 1010 1006
f 1076 1007 1006
f 1006 1010 1011
f 1006 1011 1023
f 1076 1006 1075
f 1008 1009 1007
f 1077 1008 1007
f 1007 1009 1010
f 1077 1007 1076
f 1078 1008 1077
f 1079 1010 1009
f 1080 1011 1010
f 1080 1010 1079
f 1024 1011 1012
f 1081 1012 1011
f 1023 1011 1024
f 1081 1011 1080
f 1012 1013 1024
f 1082 1013 1012
f 1082 1012 1081
f 1013 1014 1024
f 1083 1014 1013
f 1083 1013 1082
f 1084 1014 1083
f 1085 1019 1015
f 1017 1016 1021
f 1021 1016 1020
f 1086 1018 1022
f 1085 1025 1019
f 1021 1020 1027
f 1027 1020 1026
f 1086 1022 1028
f 1086 1023 1024
f 1085 1023 1086
f 1085 1029 1025
f 1027 1026 1033
f 1033 1026 1032
f 1086 1028 1036
f 1085 1030 1029
f 1085 1037 1030
f 1034 1032 1031
f 1034 1031 1039
f 1039 1031 1038
f 1033 1032 1034
f 1086 1036 1035
f 1086 1035 1040
f 1085 1041 1037
f 1039 1038 1045
f 1045 1038 1044
f 1086 1040 1048
f 1042 1041 1085
f 1085 1049 1042
f 1046 1044 1043
f 1046 1043 1051
f 1051 1043 1050
f 1045 1044 1046
f 1048 1047 1086
f 1086 1047 1052
f 1085 1053 1049
f 1051 1050 1055
f 1055 1050 1054
f 1086 1052 1056
f 1085 1057 1053
f 1055 1054 1063
f 1063 1054 1062
f 1086 1056 1068
f 1058 1057 1085
f 1085 1059 1058
f 1085 1069 1059
f 1065 1061 1060
f 1065 1060 1071
f 1071 1060 1070
f 1064 1062 1061
f 1064 1061 1065
f 1063 1062 1064
f 1086 1067 1066
f 1086 1066 1072
f 1068 1067 1086
f 1085 1073 1069
f 1071 1070 1079
f 1079 1070 1078
f 1086 1072 1084
f 1074 1073 1085
f 1075 1074 1085
f 1076 1075 1085
f 1081 1077 1076
f 1081 1076 1086
f 1086 1076 1085
f 1080 1078 1077
f 1080 1077 1081
f 1079 1078 1080
f 1086 1082 1081
f 1083 1082 1086
f 1084 1083 1086
