# CAD visual only; metres; body-local coordinates
v -4.42127221e-09 -0.0141421376 0
v 0.000129914579 -0.0140122186 -0.001908092
v 0.000107427579 -0.0140347106 -0.001736479
v 6.88125787e-05 -0.0140733196 -0.001391735
v 5.27055787e-05 -0.0140894276 -0.001218691
v 2.69085787e-05 -0.0141152296 -0.000871553
v 1.72285787e-05 -0.0141249086 -0.000697565
v 4.30657873e-06 -0.0141378266 -0.000348997
v 1.07357873e-06 -0.0141410596 -0.000174522
v 1.07357873e-06 -0.0141410596 0.000174522
v 4.30657873e-06 -0.0141378266 0.000348997
v 9.69457873e-06 -0.0141324426 0.000523357
v 2.69085787e-05 -0.0141152296 0.000871553
v 3.87335787e-05 -0.0141033986 0.001045284
v 6.88125787e-05 -0.0140733196 0.001391735
v 8.70565787e-05 -0.0140550806 0.001564341
v 0.000129914579 -0.0140122186 0.001908092
v 0.000240941579 -0.0139011966 -0.002588186
v 0.000210042579 -0.0139320956 -0.002419214
v 0.000181231579 -0.0139609056 -0.002249508
v 0.000154519579 -0.0139876176 0.002079115
v 0.000210042579 -0.0139320956 0.002419214
v 0.000240941579 -0.0139011966 0.002588186
v 0.000385242579 -0.0137568956 -0.003255682
v 0.000346084579 -0.0137960536 -0.003090172
v 0.000308976579 -0.0138331656 -0.002923717
v 0.000273919579 -0.0138682136 0.002756376
v 0.000346084579 -0.0137960536 0.003090172
v 0.000385242579 -0.0137568956 0.003255682
v 0.000469661579 -0.0136724766 -0.003583679
v 0.000426440579 -0.0137156966 -0.0034202
v 0.000426440579 -0.0137156966 0.0034202
v 0.000469661579 -0.0136724766 0.003583679
v 0.000611329579 -0.0135308076 -0.004067364
v 0.000562119579 -0.0135800226 -0.003907309
v 0.000514884579 -0.0136272486 -0.003746061
v 0.000636516579 -0.0135056216 -1.9197e-05
v 0.000636392579 -0.0135057406 0
v 0.000514884579 -0.0136272486 0.003746061
v 0.000562119579 -0.0135800226 0.003907309
v 0.000611329579 -0.0135308076 0.004067364
v 0.000715632579 -0.0134264996 -0.004383707
v 0.000662503579 -0.0134796336 -0.004226179
v 0.000727439579 -0.0134146936 -0.000516415
v 0.000659499579 -0.0134826336 -0.000266113
v 0.000642190579 -0.0134999426 -0.000134058
v 0.000656333579 -0.0134858046 0.00024745
v 0.000721173579 -0.0134209636 0.000499392
v 0.000747495579 -0.0133946426 0.00056654
v 0.000662503579 -0.0134796336 0.004226179
v 0.000715632579 -0.0134264996 0.004383707
v 0.000886569579 -0.0132555636 -0.004848099
v 0.000827689579 -0.0133144476 -0.004694719
v 0.000845351579 -0.0132967816 -0.000750198
v 0.000754590579 -0.0133875476 -0.000582914
v 0.000836186579 -0.0133059506 0.000736046
v 0.000883746579 -0.0132583956 0.000804491
v 0.000770698579 -0.0133714346 0.004539909
v 0.000886569579 -0.0132555636 0.004848099
v 0.000947347579 -0.0131947956 -0.005
v 0.000893750579 -0.0132483826 -0.000817461
v 0.000990586579 -0.0131515556 0.000922537
v 0.000947347579 -0.0131947956 0.005
v 0.00114077158 -0.0130013616 -0.005446386
v 0.00100997458 -0.0131321576 -0.005150385
v 0.00109784658 -0.0130442866 -0.001004896
v 0.00100203058 -0.0131401016 -0.000932856
v 0.00108549658 -0.0130566456 0.000996943
v 0.00113546858 -0.0130066636 0.001026936
v 0.00100997458 -0.0131321576 0.005150385
v 0.00107446258 -0.0130676706 0.005299196
v 0.00120888258 -0.0129332496 -0.005591927
v 0.00114818158 -0.0129939516 -0.001033659
v 0.00123923858 -0.0129028946 0.001071806
v 0.00120888258 -0.0129332496 0.005591927
v 0.00145294758 -0.0155176116 -0.001045284
v 0.00144112158 -0.0155294426 -0.000871553
v 0.00142390758 -0.0155466566 -0.000523357
v 0.00141851958 -0.0155520396 -0.000348997
v 0.00141528658 -0.0155552726 -0.000174522
v 0.00141528658 -0.0155552726 0.000174522
v 0.00141851958 -0.0155520396 0.000348997
v 0.00143144158 -0.0155391226 0.000697565
v 0.00144112158 -0.0155294426 0.000871553
v 0.00146691858 -0.0155036406 0.001218691
v 0.00148302658 -0.0154875336 -0.001391735
v 0.00148302658 -0.0154875336 0.001391735
v 0.00135045558 -0.0127916776 -0.005877857
v 0.00127878758 -0.0128633456 -0.00573576
v 0.00125249458 -0.0128896386 -0.001075964
v 0.00138706758 -0.0127550656 0.001099329
v 0.00127878758 -0.0128633456 0.00573576
v 0.00135045558 -0.0127916776 0.005877857
v 0.00149899058 -0.0126431426 -0.006156616
v 0.00140063858 -0.0127414946 -0.001099834
v 0.00149551958 -0.0126466136 0.001093969
v 0.00142386058 -0.0127182726 0.006018152
v 0.00168813258 -0.0152824266 -0.002756376
v 0.00165515458 -0.0153154096 -0.002588186
v 0.00162425558 -0.0153463086 -0.002419214
v 0.00156873258 -0.0154018316 -0.002079115
v 0.00154412758 -0.0154264356 -0.001908092
v 0.00150126958 -0.0154692946 -0.001564341
v 0.00152164058 -0.0154489236 0.001736479
v 0.00154412758 -0.0154264356 0.001908092
v 0.00159544558 -0.0153751186 0.002249508
v 0.00162425558 -0.0153463086 0.002419214
v 0.00165515458 -0.0153154096 0.002588186
v 0.00168813258 -0.0152824266 0.002756376
v 0.00172318958 -0.0152473786 -0.002923717
v 0.00172318958 -0.0152473786 0.002923717
v 0.00157581858 -0.0125663236 -0.006293201
v 0.00150900458 -0.0126331286 -0.001091805
v 0.00164162258 -0.0125005106 0.001051931
v 0.00157581858 -0.0125663236 0.006293201
v 0.00173446258 -0.0124076706 -0.006560593
v 0.00165431558 -0.0124878176 -0.006427879
v 0.00165457258 -0.0124875596 -0.001046162
v 0.00174293058 -0.0123992016 -0.000996943
v 0.00174293058 -0.0123992016 0.000996943
v 0.00173058058 -0.0124115516 0.001004896
v 0.00165431558 -0.0124878176 0.006427879
v 0.00173446258 -0.0124076706 0.006560593
v 0.00188387458 -0.0150866896 -0.003583679
v 0.00179945558 -0.0151711086 -0.003255682
v 0.00176029758 -0.0152102666 -0.003090172
v 0.00176029758 -0.0152102666 0.003090172
v 0.00184065358 -0.0151299106 0.0034202
v 0.00192909758 -0.0150414616 0.003746061
v 0.00197633358 -0.0149942356 -0.003907309
v 0.00197633358 -0.0149942356 0.003907309
v 0.00181623958 -0.0123258926 -0.006691303
v 0.00175518558 -0.0123869476 -0.000988674
v 0.00188231958 -0.0122598226 0.000878496
v 0.00181623958 -0.0123258926 0.006691303
v 0.00198456358 -0.0121575696 -0.006946583
v 0.00189308658 -0.0122490456 -0.000866814
v 0.00199224058 -0.0121498926 -0.000736046
v 0.00199224058 -0.0121498926 0.000736046
v 0.00198307558 -0.0121590666 0.000750198
v 0.00189961958 -0.0122425226 0.006819983
v 0.00218491158 -0.0147856476 -0.004539909
v 0.00212984658 -0.0148407136 -0.004383707
v 0.00202554258 -0.0149450216 -0.004067364
v 0.00221549558 -0.0147550636 -0.000677223
v 0.00213538658 -0.0148351766 -0.000499392
v 0.00207054658 -0.0149000176 -0.00024745
v 0.00205060558 -0.0149199536 0
v 0.00207371258 -0.0148968466 0.000266113
v 0.00214165258 -0.0148289066 0.000516415
v 0.00207671658 -0.0148938476 0.004226179
v 0.00212984658 -0.0148407136 0.004383707
v 0.00218491158 -0.0147856476 0.004539909
v 0.00224190258 -0.0147286656 -0.004694719
v 0.00224139758 -0.0147291616 -0.000721664
v 0.00222394558 -0.0147466136 0.000692253
v 0.00224190258 -0.0147286656 0.004694719
v 0.00207107158 -0.0120710716 -0.007071066
v 0.00200124358 -0.0121408996 -0.000721664
v 0.00210725358 -0.0120348796 -0.000499392
v 0.00214036558 -0.0120017676 0.000394201
v 0.00210098758 -0.0120411546 0.000516415
v 0.00207107158 -0.0120710716 0.007071066
v 0.00224860758 -0.0118935256 -0.007313538
v 0.00215909558 -0.0119830476 -0.007193394
v 0.00214512358 -0.0119970086 -0.000376225
v 0.00217209358 -0.0119700386 -0.00024745
v 0.00219203558 -0.0119501076 0
v 0.00216892758 -0.0119732056 0.000266113
v 0.00215909558 -0.0119830476 0.007193394
v 0.00224860758 -0.0118935256 0.007313538
v 0.00236156058 -0.0146090036 -0.005
v 0.00230078258 -0.0146697766 -0.004848099
v 0.00246326058 -0.0145072986 -0.000971241
v 0.00225040058 -0.0147201686 -0.000736046
v 0.00225040058 -0.0147201686 0.000736046
v 0.00225956458 -0.0147109946 0.000750198
v 0.00236156058 -0.0146090036 0.005
v 0.00242419758 -0.0145463706 0.005150385
v 0.00248867558 -0.0144818886 -0.005299196
v 0.00249970958 -0.0144708546 -0.000996943
v 0.00247530558 -0.0144952586 0.00098011
v 0.00248867558 -0.0144818886 0.005299196
v 0.00233959758 -0.0118025356 -0.00743145
v 0.00233959758 -0.0118025356 0.00743145
v 0.00243202758 -0.0117101056 -0.007547092
v 0.00243202758 -0.0117101056 0.007547092
v 0.00262309658 -0.0143474636 -0.005591927
v 0.00255498458 -0.0144155796 -0.005446386
v 0.00272018058 -0.0142503886 -0.001089296
v 0.00251205958 -0.0144585046 0.001004896
v 0.00255498458 -0.0144155796 0.005446386
v 0.00269300058 -0.0142775586 0.00573576
v 0.00274712158 -0.0142234376 -0.001093969
v 0.00273363658 -0.0142369276 0.001091805
v 0.00262110258 -0.0115210396 -0.007771463
v 0.00252586858 -0.0116162636 -0.007660446
v 0.00252586858 -0.0116162636 0.007660446
v 0.00262110258 -0.0115210396 0.007771463
v 0.00271768158 -0.0114244516 -0.007880106
v 0.00271768158 -0.0114244516 0.007880106
v 0.00283807358 -0.0141324856 -0.006018152
v 0.00276466858 -0.0142058946 -0.005877857
v 0.00296349058 -0.0140070686 -0.001083288
v 0.00276063458 -0.0142099296 0.00109581
v 0.00276466858 -0.0142058946 0.005877857
v 0.00291320358 -0.0140573606 0.006156616
v 0.00299003158 -0.0139805326 -0.006293201
v 0.00299014658 -0.0139804176 -0.001075964
v 0.00297684258 -0.0139937216 0.001079788
v 0.00299003158 -0.0139805326 0.006293201
v 0.00281559558 -0.0113265476 -0.007986355
v 0.00281559558 -0.0113265476 0.007986355
v 0.00291479658 -0.0112273366 -0.008090172
v 0.00291479658 -0.0112273366 0.008090172
v 0.00314867558 -0.0138218836 -0.006560593
v 0.00306852858 -0.0139020356 -0.006427879
v 0.00314479458 -0.0138257696 -0.001004896
v 0.00321734058 -0.0137532286 -0.000952625
v 0.00315714458 -0.0138134156 0.000996943
v 0.00300340258 -0.0139671666 0.001071806
v 0.00306852858 -0.0139020356 0.006427879
v 0.00314867558 -0.0138218836 0.006560593
v 0.00323045358 -0.0137401106 -0.006691303
v 0.00324060958 -0.0137299546 -0.000932856
v 0.00322903258 -0.0137415316 0.000942888
v 0.00323045358 -0.0137401106 0.006691303
v 0.00311697558 -0.0110251576 -0.008290377
v 0.00301526558 -0.0111268666 -0.008191519
v 0.00301526558 -0.0111268666 0.008191519
v 0.00311697558 -0.0110251576 0.008290377
v 0.00321988658 -0.0109222466 -0.008386707
v 0.00321988658 -0.0109222466 0.008386707
v 0.00331383258 -0.0136567316 -0.006819983
v 0.00339728858 -0.0135732756 -0.000750198
v 0.00346558158 -0.0135049826 -0.000630932
v 0.00340645358 -0.0135641056 0.000736046
v 0.00325205358 -0.0137185056 0.000922537
v 0.00339877658 -0.0135717826 0.006946583
v 0.00348528458 -0.0134852796 -0.007071066
v 0.00349514558 -0.0134754136 -0.00056654
v 0.00347326858 -0.0134972956 0.00061511
v 0.00348528458 -0.0134852796 0.007071066
v 0.00332397058 -0.0108181626 -0.008480482
v 0.00332397058 -0.0108181626 0.008480482
v 0.00342919858 -0.0107129346 -0.008571672
v 0.00342919858 -0.0107129346 0.008571672
v 0.00366282058 -0.0133077386 -0.007313538
v 0.00357330858 -0.0133972556 -0.007193394
v 0.00351520158 -0.0134553626 -0.000516415
v 0.00358314058 -0.0133874236 -0.000266113
v 0.00360612458 -0.0133644346 -1.9197e-05
v 0.00358630758 -0.0133842526 0.00024745
v 0.00352146658 -0.0134490976 0.000499392
v 0.00350204058 -0.0134685236 0.000550003
v 0.00357330858 -0.0133972556 0.007193394
v 0.00366282058 -0.0133077386 0.007313538
v 0.00353553358 -0.0106065996 -0.00866025
v 0.00353553358 -0.0106065996 0.00866025
v 0.00364294558 -0.0104991876 -0.008746195
v 0.00364294558 -0.0104991876 0.008746195
v 0.00384624058 -0.0131243186 -0.007547092
v 0.00375381058 -0.0132167486 -0.00743145
v 0.00375381058 -0.0132167486 0.00743145
v 0.00394008258 -0.0130304776 0.007660446
v 0.00386086958 -0.0102812626 -0.008910065
v 0.00375140758 -0.0103907356 0.008829479
v 0.00397131458 -0.0101708176 -0.008987942
v 0.00397131458 -0.0101708176 0.008987942
v 0.00403531658 -0.0129352526 -0.007771463
v 0.00413189458 -0.0128386646 0.007880106
v 0.00422980858 -0.0127407606 -0.007986355
v 0.00422980858 -0.0127407606 0.007986355
v 0.00408270458 -0.0100594286 -0.009063082
v 0.00408270458 -0.0100594286 0.009063082
v 0.00419500858 -0.00994713358 -0.009135456
v 0.00419500858 -0.00994713358 0.009135456
v 0.00432900958 -0.0126415496 -0.008090172
v 0.00442947958 -0.0125410806 0.008191519
v 0.00430818158 -0.00983395158 -0.009205046
v 0.00430818158 -0.00983395158 0.009205046
v 0.00442220258 -0.00971993958 -0.009271841
v 0.00442220258 -0.00971993958 0.009271841
v 0.00453118858 -0.0124393706 -0.008290377
v 0.00463409958 -0.0123364596 0.008386707
v 0.00473818358 -0.0122323756 -0.008480482
v 0.00473818358 -0.0122323756 0.008480482
v 0.00453702458 -0.00960510758 -0.009335804
v 0.00453702458 -0.00960510758 0.009335804
v 0.00465261958 -0.00948951258 -0.009396925
v 0.00465261958 -0.00948951258 0.009396925
v 0.00484341158 -0.0121271476 -0.008571672
v 0.00494974658 -0.0120208126 0.00866025
v 0.00488598358 -0.00925614858 -0.009510565
v 0.00476894958 -0.00937318358 -0.009455185
v 0.00476894958 -0.00937318358 0.009455185
v 0.00488598358 -0.00925614858 0.009510565
v 0.00516562058 -0.0118049486 -0.008829479
v 0.00505715858 -0.0119134006 -0.008746195
v 0.00505715858 -0.0119134006 0.008746195
v 0.00516562058 -0.0118049486 0.008829479
v 0.00512201858 -0.00902011458 -0.009612617
v 0.00500368658 -0.00913844658 0.009563046
v 0.00524094158 -0.00890119158 -0.009659262
v 0.00524094158 -0.00890119158 0.009659262
v 0.00527508358 -0.0116954766 -0.008910065
v 0.00538552858 -0.0115850316 0.008987942
v 0.00549691758 -0.0114736416 -0.009063082
v 0.00549691758 -0.0114736416 0.009063082
v 0.00536041758 -0.00878171458 -0.009702959
v 0.00536041758 -0.00878171458 0.009702959
v 0.00548042858 -0.00866171458 -0.0097437
v 0.00548042858 -0.00866171458 0.0097437
v 0.00560922158 -0.0113613466 -0.009135456
v 0.00560922158 -0.0113613466 0.009135456
v 0.00572239458 -0.0112481646 -0.009205046
v 0.00572239458 -0.0112481646 0.009205046
v 0.00560090558 -0.00854122658 -0.009781475
v 0.00560090558 -0.00854122658 0.009781475
v 0.00572184158 -0.00842029158 -0.009816275
v 0.00572184158 -0.00842029158 0.009816275
v 0.00583641558 -0.0111341526 -0.009271841
v 0.00595123858 -0.0110193206 0.009335804
v 0.00584318658 -0.00829894558 -0.00984808
v 0.00584318658 -0.00829894558 0.00984808
v 0.00596490458 -0.00817722858 -0.009876881
v 0.00596490458 -0.00817722858 0.009876881
v 0.00606683358 -0.0109037266 -0.009396925
v 0.00618316258 -0.0107873966 0.009455185
v 0.00608696558 -0.00805516758 -0.009902678
v 0.00613456258 -0.00800757958 -0.000704203
v 0.00606819658 -0.00807394558 -0.000488348
v 0.00602346958 -0.00811867258 -0.000234652
v 0.00601040458 -0.00813172858 0
v 0.00602652158 -0.00811561158 0.000260468
v 0.00607437658 -0.00806776558 0.000513029
v 0.00608696558 -0.00805516758 0.009902678
v 0.00620932158 -0.00793281158 -0.009925461
v 0.00624678158 -0.00789535058 -0.000943985
v 0.00615251158 -0.00798962158 -0.000749998
v 0.00614339458 -0.00799873858 0.000727215
v 0.00616190458 -0.00798022758 0.000772552
v 0.00620932158 -0.00793281158 0.009925461
v 0.00630019758 -0.0106703626 -0.009510565
v 0.00641789958 -0.0105526596 0.009563046
v 0.00633193558 -0.00781019758 -0.009945221
v 0.00638928958 -0.00775284358 -0.001149063
v 0.00627057658 -0.00787155658 -0.000984087
v 0.00625855058 -0.00788358258 0.000964184
v 0.00628284058 -0.00785929258 0.001003695
v 0.00633193558 -0.00781019758 0.009945221
v 0.00645478758 -0.00768735458 -0.009961948
v 0.00649339258 -0.00764874058 -0.001258001
v 0.00647795258 -0.00766418058 -0.001243553
v 0.00640357558 -0.00773856658 0.001165714
v 0.00649339258 -0.00764874058 0.001258001
v 0.00645478758 -0.00768735458 0.009961948
v 0.00653623158 -0.0104343276 -0.009612617
v 0.00665515458 -0.0103154046 0.009659262
v 0.00657781158 -0.00756432158 -0.009975643
v 0.00663965758 -0.00750247558 -0.001370316
v 0.00650900458 -0.00763312858 0.001272068
v 0.00657781158 -0.00756432158 0.009975643
v 0.00670099758 -0.00744113458 -0.009986296
v 0.00674330258 -0.00739882958 -0.001426582
v 0.00665663258 -0.00748549958 0.001380758
v 0.00670099758 -0.00744113458 0.009986296
v 0.00677463158 -0.0101959286 -0.009702959
v 0.00689464158 -0.0100759276 0.0097437
v 0.00682428858 -0.00731784358 -0.009993906
v 0.00688688858 -0.00725524458 -0.001477213
v 0.00676096458 -0.00738117758 0.00143446
v 0.00682428858 -0.00731784358 0.009993906
v 0.00694765658 -0.00719447658 -0.009998474
v 0.00699707558 -0.00714505758 -0.001496344
v 0.00690514158 -0.00723699158 0.001481533
v 0.00694765658 -0.00719447658 0.009998474
v 0.00701511958 -0.00995544058 -0.009781475
v 0.00713605458 -0.00983450458 0.009816275
v 0.00707107158 -0.00707107158 -0.01
v 0.00712657558 -0.00701555758 -0.001497946
v 0.00701555758 -0.00712657558 0.001497946
v 0.00707107158 -0.00707107158 0.01
v 0.00719447658 -0.00694765658 -0.009998474
v 0.00723699158 -0.00690514158 -0.001481533
v 0.00714505758 -0.00699707558 0.001496344
v 0.00719447658 -0.00694765658 0.009998474
v 0.00725740058 -0.00971315958 -0.00984808
v 0.00744073458 -0.00952982458 -0.000260468
v 0.00742477958 -0.00954577958 -2.6178e-05
v 0.00742461758 -0.00954594158 0
v 0.00746571158 -0.00950485758 0.000413456
v 0.00737912758 -0.00959144158 0.009876881
v 0.00748858958 -0.00948197858 -0.000513029
v 0.00747096558 -0.00949959358 -0.000438557
v 0.00748240958 -0.00948815858 0.000488348
v 0.00749506558 -0.00947549358 0.000537548
v 0.00731784358 -0.00682428858 -0.009993906
v 0.00738117758 -0.00676096458 -0.00143446
v 0.00725524458 -0.00688688858 0.001477213
v 0.00731784358 -0.00682428858 0.009993906
v 0.00744113458 -0.00670099758 -0.009986296
v 0.00748549958 -0.00665663258 -0.001380758
v 0.00739882958 -0.00674330258 0.001426582
v 0.00744113458 -0.00670099758 0.009986296
v 0.00750117858 -0.00946938058 -0.009902678
v 0.00769705358 -0.00927350558 -0.001003695
v 0.00757611858 -0.00939444158 -0.000772552
v 0.00750185558 -0.00946870358 -0.000561914
v 0.00756672458 -0.00940384458 0.000749998
v 0.00768478958 -0.00928576958 0.000984087
v 0.00770956558 -0.00926100358 0.001022997
v 0.00762353458 -0.00934702458 0.009925461
v 0.00774615858 -0.00922441058 -0.009945221
v 0.00772230658 -0.00924825258 -0.001041985
v 0.00774848558 -0.00922207458 0.001079006
v 0.00774615858 -0.00922441058 0.009945221
v 0.00756432158 -0.00657781158 -0.009975643
v 0.00763312858 -0.00650900458 -0.001272068
v 0.00750247558 -0.00663965758 0.001370316
v 0.00756432158 -0.00657781158 0.009975643
v 0.00768735458 -0.00645478758 -0.009961948
v 0.00764874058 -0.00649339258 -0.001258001
v 0.00773856658 -0.00640357558 -0.001165714
v 0.00766418058 -0.00647795258 0.001243553
v 0.00764874058 -0.00649339258 0.001258001
v 0.00768735458 -0.00645478758 0.009961948
v 0.00786900058 -0.00910156758 -0.009961948
v 0.00790760558 -0.00906295358 -0.001258001
v 0.00776191258 -0.00920864658 -0.001097031
v 0.00789216558 -0.00907839358 0.001243553
v 0.00795495558 -0.00901561358 0.001299038
v 0.00786900058 -0.00910156758 0.009961948
v 0.00799202458 -0.00897853458 -0.009975643
v 0.00797106358 -0.00899949558 -0.001311932
v 0.00798733258 -0.00898323558 0.001324425
v 0.00799202458 -0.00897853458 0.009975643
v 0.00781019758 -0.00633193558 -0.009945221
v 0.00785929258 -0.00628284058 -0.001003695
v 0.00788358258 -0.00625855058 -0.000964184
v 0.00787155658 -0.00627057658 0.000984087
v 0.00775284358 -0.00638928958 0.001149063
v 0.00781019758 -0.00633193558 0.009945221
v 0.00793281158 -0.00620932158 -0.009925461
v 0.00798022758 -0.00616190458 -0.000772552
v 0.00799873858 -0.00614339458 -0.000727215
v 0.00798962158 -0.00615251158 0.000749998
v 0.00789535058 -0.00624678158 0.000943985
v 0.00793281158 -0.00620932158 0.009925461
v 0.00811521158 -0.00885534858 -0.009986296
v 0.00800375558 -0.00896681358 -0.001336508
v 0.00821075958 -0.00875979958 0.001448889
v 0.00811521158 -0.00885534858 0.009986296
v 0.00823850258 -0.00873205758 -0.009993906
v 0.00822868858 -0.00874187958 -0.001455441
v 0.00824668458 -0.00872387458 0.001461554
v 0.00823850258 -0.00873205758 0.009993906
v 0.00805516758 -0.00608696558 -0.009902678
v 0.00806776558 -0.00607437658 -0.000513029
v 0.00811561158 -0.00602652158 -0.000260468
v 0.00813156658 -0.00601056658 -2.6178e-05
v 0.00811867258 -0.00602346958 0.000234652
v 0.00807394558 -0.00606819658 0.000488348
v 0.00800757958 -0.00613456258 0.000704203
v 0.00805516758 -0.00608696558 0.009902678
v 0.00817722858 -0.00596490458 -0.009876881
v 0.00817722858 -0.00596490458 0.009876881
v 0.00836187858 -0.00860868958 -0.009998474
v 0.00826475658 -0.00870580258 -0.001467218
v 0.00846677358 -0.00850379558 0.001499767
v 0.00836187858 -0.00860868958 0.009998474
v 0.00848528458 -0.00848528458 -0.01
v 0.00848528458 -0.00848528458 -0.001499996
v 0.00848528458 -0.00848528458 0.001499996
v 0.00848528458 -0.00848528458 0.01
v 0.00829894558 -0.00584318658 -0.00984808
v 0.00829894558 -0.00584318658 0.00984808
v 0.00842029158 -0.00572184158 -0.009816275
v 0.00842029158 -0.00572184158 0.009816275
v 0.00860868958 -0.00836187858 -0.009998474
v 0.00850379558 -0.00846677358 -0.001499767
v 0.00870580258 -0.00826475658 0.001467218
v 0.00860868958 -0.00836187858 0.009998474
v 0.00873205758 -0.00823850258 -0.009993906
v 0.00872387458 -0.00824668458 -0.001461554
v 0.00874187958 -0.00822868858 0.001455441
v 0.00873205758 -0.00823850258 0.009993906
v 0.00854122658 -0.00560090558 -0.009781475
v 0.00854122658 -0.00560090558 0.009781475
v 0.00866171458 -0.00548042858 -0.0097437
v 0.00866171458 -0.00548042858 0.0097437
v 0.00885534858 -0.00811521158 -0.009986296
v 0.00875979958 -0.00821075958 -0.001448889
v 0.00896681358 -0.00800375558 0.001336508
v 0.00885534858 -0.00811521158 0.009986296
v 0.00897853458 -0.00799202458 -0.009975643
v 0.00898323558 -0.00798733258 -0.001324425
v 0.00899949558 -0.00797106358 0.001311932
v 0.00897853458 -0.00799202458 0.009975643
v 0.00878171458 -0.00536041758 -0.009702959
v 0.00878171458 -0.00536041758 0.009702959
v 0.00890119158 -0.00524094158 -0.009659262
v 0.00890119158 -0.00524094158 0.009659262
v 0.00910156758 -0.00786900058 -0.009961948
v 0.00901561358 -0.00795495558 -0.001299038
v 0.00907839358 -0.00789216558 -0.001243553
v 0.00920864658 -0.00776191258 0.001097031
v 0.00906295358 -0.00790760558 0.001258001
v 0.00910156758 -0.00786900058 0.009961948
v 0.00922441058 -0.00774615858 -0.009945221
v 0.00922207458 -0.00774848558 -0.001079006
v 0.00924825258 -0.00772230658 0.001041985
v 0.00922441058 -0.00774615858 0.009945221
v 0.00913844658 -0.00500368658 -0.009563046
v 0.00902011458 -0.00512201858 0.009612617
v 0.00934702458 -0.00762353458 -0.009925461
v 0.00926100358 -0.00770956558 -0.001022997
v 0.00928576958 -0.00768478958 -0.000984087
v 0.00940384458 -0.00756672458 -0.000749998
v 0.00946870358 -0.00750185558 0.000561914
v 0.00939444158 -0.00757611858 0.000772552
v 0.00927350558 -0.00769705358 0.001003695
v 0.00946938058 -0.00750117858 0.009902678
v 0.00947549358 -0.00749506558 -0.000537548
v 0.00948815858 -0.00748240958 -0.000488348
v 0.00949959358 -0.00747096558 0.000438557
v 0.00948197858 -0.00748858958 0.000513029
v 0.00925614858 -0.00488598358 -0.009510565
v 0.00937318358 -0.00476894958 -0.009455185
v 0.00937318358 -0.00476894958 0.009455185
v 0.00925614858 -0.00488598358 0.009510565
v 0.00948951258 -0.00465261958 -0.009396925
v 0.00948951258 -0.00465261958 0.009396925
v 0.00959144158 -0.00737912758 -0.009876881
v 0.00950485758 -0.00746571158 -0.000413456
v 0.00953288658 -0.00743768258 -0.000234652
v 0.00954594158 -0.00742461758 0
v 0.00952982458 -0.00744073458 0.000260468
v 0.00971315958 -0.00725740058 0.00984808
v 0.00960510758 -0.00453702458 -0.009335804
v 0.00960510758 -0.00453702458 0.009335804
v 0.00971993958 -0.00442220258 -0.009271841
v 0.00971993958 -0.00442220258 0.009271841
v 0.00983450458 -0.00713605458 -0.009816275
v 0.00995544058 -0.00701511958 0.009781475
v 0.00983395158 -0.00430818158 -0.009205046
v 0.00983395158 -0.00430818158 0.009205046
v 0.00994713358 -0.00419500858 -0.009135456
v 0.00994713358 -0.00419500858 0.009135456
v 0.0100759276 -0.00689464158 -0.0097437
v 0.0101959286 -0.00677463158 0.009702959
v 0.0100594286 -0.00408270458 -0.009063082
v 0.0100594286 -0.00408270458 0.009063082
v 0.0101708176 -0.00397131458 -0.008987942
v 0.0101708176 -0.00397131458 0.008987942
v 0.0103154046 -0.00665515458 -0.009659262
v 0.0104343276 -0.00653623158 0.009612617
v 0.0103907356 -0.00375140758 -0.008829479
v 0.0102812626 -0.00386086958 0.008910065
v 0.0104991876 -0.00364294558 -0.008746195
v 0.0104991876 -0.00364294558 0.008746195
v 0.0105526596 -0.00641789958 -0.009563046
v 0.0106703626 -0.00630019758 0.009510565
v 0.0106065996 -0.00353553358 -0.00866025
v 0.0106065996 -0.00353553358 0.00866025
v 0.0107129346 -0.00342919858 -0.008571672
v 0.0107129346 -0.00342919858 0.008571672
v 0.0107873966 -0.00618316258 -0.009455185
v 0.0109037266 -0.00606683358 0.009396925
v 0.0108181626 -0.00332397058 -0.008480482
v 0.0108181626 -0.00332397058 0.008480482
v 0.0109222466 -0.00321988658 -0.008386707
v 0.0109222466 -0.00321988658 0.008386707
v 0.0110193206 -0.00595123858 -0.009335804
v 0.0111341526 -0.00583641558 0.009271841
v 0.0112481646 -0.00572239458 -0.009205046
v 0.0112481646 -0.00572239458 0.009205046
v 0.0110251576 -0.00311697558 -0.008290377
v 0.0111268666 -0.00301526558 -0.008191519
v 0.0111268666 -0.00301526558 0.008191519
v 0.0110251576 -0.00311697558 0.008290377
v 0.0112273366 -0.00291479658 -0.008090172
v 0.0112273366 -0.00291479658 0.008090172
v 0.0113613466 -0.00560922158 -0.009135456
v 0.0113613466 -0.00560922158 0.009135456
v 0.0114736416 -0.00549691758 -0.009063082
v 0.0114736416 -0.00549691758 0.009063082
v 0.0113265476 -0.00281559558 -0.007986355
v 0.0113265476 -0.00281559558 0.007986355
v 0.0114244516 -0.00271768158 -0.007880106
v 0.0114244516 -0.00271768158 0.007880106
v 0.0115850316 -0.00538552858 -0.008987942
v 0.0116954766 -0.00527508358 0.008910065
v 0.0115210396 -0.00262110258 -0.007771463
v 0.0116162636 -0.00252586858 -0.007660446
v 0.0116162636 -0.00252586858 0.007660446
v 0.0115210396 -0.00262110258 0.007771463
v 0.0117101056 -0.00243202758 -0.007547092
v 0.0117101056 -0.00243202758 0.007547092
v 0.0118049486 -0.00516562058 -0.008829479
v 0.0119134006 -0.00505715858 -0.008746195
v 0.0119134006 -0.00505715858 0.008746195
v 0.0118049486 -0.00516562058 0.008829479
v 0.0118025356 -0.00233959758 -0.00743145
v 0.0118025356 -0.00233959758 0.00743145
v 0.0118935256 -0.00224860758 -0.007313538
v 0.0119830476 -0.00215909558 -0.007193394
v 0.0119732056 -0.00216892758 -0.000266113
v 0.0119502216 -0.00219191158 -1.9197e-05
v 0.0119501076 -0.00219203558 0
v 0.0119970086 -0.00214512358 0.000376225
v 0.0119830476 -0.00215909558 0.007193394
v 0.0118935256 -0.00224860758 0.007313538
v 0.0120208126 -0.00494974658 -0.00866025
v 0.0121271476 -0.00484341158 0.008571672
v 0.0122323756 -0.00473818358 -0.008480482
v 0.0122323756 -0.00473818358 0.008480482
v 0.0120710716 -0.00207107158 -0.007071066
v 0.0120411546 -0.00210098758 -0.000516415
v 0.0120017676 -0.00214036558 -0.000394201
v 0.0120348796 -0.00210725358 0.000499392
v 0.0121408996 -0.00200124358 0.000721664
v 0.0120710716 -0.00207107158 0.007071066
v 0.0122425226 -0.00189961958 -0.006819983
v 0.0121590666 -0.00198307558 -0.000750198
v 0.0121498926 -0.00199224058 -0.000736046
v 0.0121498926 -0.00199224058 0.000736046
v 0.0122490456 -0.00189308658 0.000866814
v 0.0121575696 -0.00198456358 0.006946583
v 0.0123364596 -0.00463409958 -0.008386707
v 0.0124393706 -0.00453118858 0.008290377
v 0.0123258926 -0.00181623958 -0.006691303
v 0.0122598226 -0.00188231958 -0.000878496
v 0.0123869476 -0.00175518558 0.000988674
v 0.0123258926 -0.00181623958 0.006691303
v 0.0124076706 -0.00173446258 -0.006560593
v 0.0124878176 -0.00165431558 -0.006427879
v 0.0124115516 -0.00173058058 -0.001004896
v 0.0123992016 -0.00174293058 -0.000996943
v 0.0123992016 -0.00174293058 0.000996943
v 0.0124875596 -0.00165457258 0.001046162
v 0.0124878176 -0.00165431558 0.006427879
v 0.0124076706 -0.00173446258 0.006560593
v 0.0125410806 -0.00442947958 -0.008191519
v 0.0126415496 -0.00432900958 0.008090172
v 0.0127407606 -0.00422980858 -0.007986355
v 0.0127407606 -0.00422980858 0.007986355
v 0.0125663236 -0.00157581858 -0.006293201
v 0.0125005106 -0.00164162258 -0.001051931
v 0.0126331286 -0.00150900458 0.001091805
v 0.0125663236 -0.00157581858 0.006293201
v 0.0127182726 -0.00142386058 -0.006018152
v 0.0126466136 -0.00149551958 -0.001093969
v 0.0127414946 -0.00140063858 0.001099834
v 0.0126431426 -0.00149899058 0.006156616
v 0.0128386646 -0.00413189458 -0.007880106
v 0.0129352526 -0.00403531658 0.007771463
v 0.0127916776 -0.00135045558 -0.005877857
v 0.0128633456 -0.00127878758 -0.00573576
v 0.0127550656 -0.00138706758 -0.001099329
v 0.0128896386 -0.00125249458 0.001075964
v 0.0128633456 -0.00127878758 0.00573576
v 0.0127916776 -0.00135045558 0.005877857
v 0.0129332496 -0.00120888258 -0.005591927
v 0.0129028946 -0.00123923858 -0.001071806
v 0.0129939516 -0.00114818158 0.001033659
v 0.0129332496 -0.00120888258 0.005591927
v 0.0130304776 -0.00394008258 -0.007660446
v 0.0132167486 -0.00375381058 -0.00743145
v 0.0132167486 -0.00375381058 0.00743145
v 0.0131243186 -0.00384624058 0.007547092
v 0.0130676706 -0.00107446258 -0.005299196
v 0.0131321576 -0.00100997458 -0.005150385
v 0.0130066636 -0.00113546858 -0.001026936
v 0.0130566456 -0.00108549658 -0.000996943
v 0.0131401016 -0.00100203058 0.000932856
v 0.0130442866 -0.00109784658 0.001004896
v 0.0131321576 -0.00100997458 0.005150385
v 0.0130013616 -0.00114077158 0.005446386
v 0.0131947956 -0.000947347579 -0.005
v 0.0131515556 -0.000990586579 -0.000922537
v 0.0132483826 -0.000893750579 0.000817461
v 0.0131947956 -0.000947347579 0.005
v 0.0133077386 -0.00366282058 -0.007313538
v 0.0133972606 -0.00357330858 -0.007193394
v 0.0134685286 -0.00350204058 -0.000550003
v 0.0134490926 -0.00352146658 -0.000499392
v 0.0133842526 -0.00358630758 -0.00024745
v 0.0133643206 -0.00360624858 0
v 0.0133874186 -0.00358314058 0.000266113
v 0.0134553676 -0.00351520158 0.000516415
v 0.0133972606 -0.00357330858 0.007193394
v 0.0133077386 -0.00366282058 0.007313538
v 0.0134852846 -0.00348528458 -0.007071066
v 0.0134972916 -0.00347326858 -0.00061511
v 0.0134754136 -0.00349514558 0.00056654
v 0.0134852846 -0.00348528458 0.007071066
v 0.0132555636 -0.000886569579 -0.004848099
v 0.0133714346 -0.000770698579 -0.004539909
v 0.0132583956 -0.000883746579 -0.000804491
v 0.0133059556 -0.000836186579 -0.000736046
v 0.0133875516 -0.000754590579 0.000582914
v 0.0132967816 -0.000845351579 0.000750198
v 0.0133144526 -0.000827689579 0.004694719
v 0.0132555636 -0.000886569579 0.004848099
v 0.0134264996 -0.000715632579 -0.004383707
v 0.0134796296 -0.000662503579 -0.004226179
v 0.0133946376 -0.000747495579 -0.00056654
v 0.0134209596 -0.000721173579 -0.000499392
v 0.0134857996 -0.000656333579 -0.00024745
v 0.0134999426 -0.000642190579 0.000134058
v 0.0134826336 -0.000659499579 0.000266113
v 0.0134146936 -0.000727439579 0.000516415
v 0.0134796296 -0.000662503579 0.004226179
v 0.0134264996 -0.000715632579 0.004383707
v 0.0135717826 -0.00339877658 -0.006946583
v 0.0137185056 -0.00325205358 -0.000922537
v 0.0135641056 -0.00340645358 -0.000736046
v 0.0135049876 -0.00346558158 0.000630932
v 0.0135732796 -0.00339728858 0.000750198
v 0.0136567356 -0.00331383258 0.006819983
v 0.0137401066 -0.00323045358 -0.006691303
v 0.0137415276 -0.00322903258 -0.000942888
v 0.0137299596 -0.00324060958 0.000932856
v 0.0137401066 -0.00323045358 0.006691303
v 0.0135308126 -0.000611329579 -0.004067364
v 0.0135800226 -0.000562119579 -0.003907309
v 0.0136272486 -0.000514884579 -0.003746061
v 0.0135014776 -0.000640655579 -0.000114985
v 0.0135057406 -0.000636392579 0
v 0.0136272486 -0.000514884579 0.003746061
v 0.0135800226 -0.000562119579 0.003907309
v 0.0135308126 -0.000611329579 0.004067364
v 0.0136724816 -0.000469661579 -0.003583679
v 0.0137157016 -0.000426440579 -0.0034202
v 0.0137157016 -0.000426440579 0.0034202
v 0.0136724816 -0.000469661579 0.003583679
v 0.0138218836 -0.00314867558 -0.006560593
v 0.0139020306 -0.00306852858 -0.006427879
v 0.0139671666 -0.00300340258 -0.001071806
v 0.0138134156 -0.00315714458 -0.000996943
v 0.0137532286 -0.00321734058 0.000952625
v 0.0138257656 -0.00314479458 0.001004896
v 0.0139020306 -0.00306852858 0.006427879
v 0.0138218836 -0.00314867558 0.006560593
v 0.0139805366 -0.00299003158 -0.006293201
v 0.0139937166 -0.00297684258 -0.001079788
v 0.0139804226 -0.00299014658 0.001075964
v 0.0139805366 -0.00299003158 0.006293201
v 0.0137568906 -0.000385242579 -0.003255682
v 0.0137960486 -0.000346084579 -0.003090172
v 0.0138682136 -0.000273919579 -0.002756376
v 0.0138331656 -0.000308976579 0.002923717
v 0.0137960486 -0.000346084579 0.003090172
v 0.0137568906 -0.000385242579 0.003255682
v 0.0139011916 -0.000240941579 -0.002588186
v 0.0139320906 -0.000210042579 -0.002419214
v 0.0139876136 -0.000154519579 -0.002079115
v 0.0139609006 -0.000181231579 0.002249508
v 0.0139320906 -0.000210042579 0.002419214
v 0.0139011916 -0.000240941579 0.002588186
v 0.0140573556 -0.00291320358 -0.006156616
v 0.0142058996 -0.00276466858 -0.005877857
v 0.0142099246 -0.00276063458 -0.00109581
v 0.0140070686 -0.00296349058 0.001083288
v 0.0142058996 -0.00276466858 0.005877857
v 0.0141324856 -0.00283807358 0.006018152
v 0.0142369326 -0.00273363658 -0.001091805
v 0.0142234376 -0.00274712158 0.001093969
v 0.0140122186 -0.000129914579 -0.001908092
v 0.0140550766 -8.70565787e-05 -0.001564341
v 0.0140733196 -6.88125787e-05 -0.001391735
v 0.0141033986 -3.87335787e-05 -0.001045284
v 0.0141152246 -2.69085787e-05 -0.000871553
v 0.0141324476 -9.69457873e-06 -0.000523357
v 0.0141378266 -4.30657873e-06 -0.000348997
v 0.0141410596 -1.07357873e-06 -0.000174522
v 0.0141410596 -1.07357873e-06 0.000174522
v 0.0141378266 -4.30657873e-06 0.000348997
v 0.0141249136 -1.72285787e-05 0.000697565
v 0.0141152246 -2.69085787e-05 0.000871553
v 0.0140894276 -5.27055787e-05 0.001218691
v 0.0140733196 -6.88125787e-05 0.001391735
v 0.0140347056 -0.000107427579 0.001736479
v 0.0140122186 -0.000129914579 0.001908092
v 0.0141421376 4.4212722e-09 0
v 0.0142775586 -0.00269300058 -0.00573576
v 0.0144155746 -0.00255498458 -0.005446386
v 0.0144584996 -0.00251205958 -0.001004896
v 0.0142503886 -0.00272018058 0.001089296
v 0.0144155746 -0.00255498458 0.005446386
v 0.0143474636 -0.00262309658 0.005591927
v 0.0144818836 -0.00248867558 -0.005299196
v 0.0144952546 -0.00247530558 -0.00098011
v 0.0144708596 -0.00249970958 0.000996943
v 0.0144818836 -0.00248867558 0.005299196
v 0.0145463706 -0.00242419758 -0.005150385
v 0.0146697766 -0.00230078258 -0.004848099
v 0.0147109946 -0.00225956458 -0.000750198
v 0.0147201686 -0.00225040058 -0.000736046
v 0.0147201686 -0.00225040058 0.000736046
v 0.0145072986 -0.00246326058 0.000971241
v 0.0146697766 -0.00230078258 0.004848099
v 0.0145463706 -0.00242419758 0.005150385
v 0.0147286656 -0.00224190258 -0.004694719
v 0.0147466136 -0.00222394558 -0.000692253
v 0.0147291616 -0.00224139758 0.000721664
v 0.0147286656 -0.00224190258 0.004694719
v 0.0147856476 -0.00218491158 -0.004539909
v 0.0148407136 -0.00212984658 -0.004383707
v 0.0148938426 -0.00207671658 -0.004226179
v 0.0148289066 -0.00214165258 -0.000516415
v 0.0148968466 -0.00207371258 -0.000266113
v 0.0149198296 -0.00205072958 -1.9197e-05
v 0.0149000226 -0.00207054658 0.00024745
v 0.0148351726 -0.00213538658 0.000499392
v 0.0147550636 -0.00221549558 0.000677223
v 0.0149450256 -0.00202554258 0.004067364
v 0.0148407136 -0.00212984658 0.004383707
v 0.0147856476 -0.00218491158 0.004539909
v 0.0149942356 -0.00197633358 -0.003907309
v 0.0149942356 -0.00197633358 0.003907309
v 0.0150414616 -0.00192909758 -0.003746061
v 0.0151299146 -0.00184065358 -0.0034202
v 0.0152102616 -0.00176029758 -0.003090172
v 0.0152102616 -0.00176029758 0.003090172
v 0.0151711036 -0.00179945558 0.003255682
v 0.0150866946 -0.00188387458 0.003583679
v 0.0152473786 -0.00172318958 -0.002923717
v 0.0152473786 -0.00172318958 0.002923717
v 0.0152824266 -0.00168813258 -0.002756376
v 0.0153154046 -0.00165515458 -0.002588186
v 0.0153463036 -0.00162425558 -0.002419214
v 0.0153751136 -0.00159544558 -0.002249508
v 0.0154264316 -0.00154412758 -0.001908092
v 0.0154489286 -0.00152164058 -0.001736479
v 0.0154692896 -0.00150126958 0.001564341
v 0.0154264316 -0.00154412758 0.001908092
v 0.0154018266 -0.00156873258 0.002079115
v 0.0153463036 -0.00162425558 0.002419214
v 0.0153154046 -0.00165515458 0.002588186
v 0.0152824266 -0.00168813258 0.002756376
v 0.0154875336 -0.00148302658 -0.001391735
v 0.0154875336 -0.00148302658 0.001391735
v 0.0155036406 -0.00146691858 -0.001218691
v 0.0155294376 -0.00144112158 -0.000871553
v 0.0155391266 -0.00143144158 -0.000697565
v 0.0155520396 -0.00141851958 -0.000348997
v 0.0155552726 -0.00141528658 -0.000174522
v 0.0155563506 -0.00141420858 0
v 0.0155520396 -0.00141851958 0.000348997
v 0.0155466606 -0.00142390758 0.000523357
v 0.0155294376 -0.00144112158 0.000871553
v 0.0155176116 -0.00145294758 0.001045284
f 1 37 9
f 9 80 1
f 10 38 1
f 1 81 10
f 1 38 37
f 1 80 81
f 2 102 3
f 3 381 2
f 20 101 2
f 2 381 20
f 2 101 102
f 4 61 3
f 3 103 4
f 61 67 3
f 3 67 66
f 66 73 3
f 3 73 90
f 3 90 95
f 95 371 3
f 3 102 103
f 3 371 375
f 3 375 381
f 5 54 4
f 4 86 5
f 4 54 61
f 4 103 86
f 6 55 5
f 5 76 6
f 5 55 54
f 5 86 76
f 7 45 6
f 6 77 7
f 6 45 44
f 6 44 55
f 6 76 77
f 8 45 7
f 7 78 8
f 7 77 78
f 9 46 8
f 8 79 9
f 8 46 45
f 8 78 79
f 9 37 46
f 9 79 80
f 11 47 10
f 10 81 11
f 47 38 10
f 12 48 11
f 11 82 12
f 11 48 47
f 11 81 82
f 13 48 12
f 12 83 13
f 12 82 83
f 14 56 13
f 13 84 14
f 49 48 13
f 13 56 49
f 13 83 84
f 15 57 14
f 14 85 15
f 14 57 56
f 14 84 85
f 16 62 15
f 15 87 16
f 15 62 57
f 15 85 87
f 17 68 16
f 16 104 17
f 16 68 62
f 16 87 104
f 21 68 17
f 17 105 21
f 17 104 105
f 18 99 19
f 19 381 18
f 26 98 18
f 18 381 26
f 18 98 99
f 19 100 20
f 20 381 19
f 19 99 100
f 20 100 101
f 22 74 21
f 21 106 22
f 69 68 21
f 74 69 21
f 21 105 106
f 23 74 22
f 22 107 23
f 22 106 107
f 27 91 23
f 23 108 27
f 91 74 23
f 23 107 108
f 24 125 25
f 25 381 24
f 31 125 24
f 24 381 31
f 25 126 26
f 26 381 25
f 25 125 126
f 26 110 98
f 26 126 110
f 28 91 27
f 27 111 28
f 27 108 109
f 27 109 111
f 96 28 29
f 28 127 29
f 96 91 28
f 28 111 127
f 96 29 32
f 29 128 32
f 29 127 128
f 30 124 31
f 31 735 30
f 36 124 30
f 30 734 36
f 30 735 734
f 31 124 125
f 31 381 735
f 33 96 32
f 32 128 33
f 39 96 33
f 33 129 39
f 33 128 129
f 34 144 35
f 35 727 34
f 43 144 34
f 34 726 43
f 34 727 726
f 35 130 36
f 36 728 35
f 35 144 130
f 35 728 727
f 36 130 124
f 36 734 728
f 38 148 37
f 37 147 46
f 37 148 147
f 47 148 38
f 40 96 39
f 39 129 40
f 41 96 40
f 40 131 41
f 40 129 131
f 50 96 41
f 41 151 50
f 41 131 151
f 42 143 43
f 43 707 42
f 53 142 42
f 42 706 53
f 42 142 143
f 42 707 706
f 43 143 144
f 43 726 707
f 45 146 44
f 44 145 55
f 44 146 145
f 46 147 45
f 45 147 146
f 48 149 47
f 47 149 148
f 49 150 48
f 48 150 149
f 56 150 49
f 51 96 50
f 50 151 51
f 58 96 51
f 51 152 58
f 51 151 152
f 52 173 53
f 53 699 52
f 60 172 52
f 52 698 60
f 52 172 173
f 52 699 698
f 53 154 142
f 53 173 154
f 53 706 699
f 55 175 54
f 54 174 61
f 54 175 174
f 55 145 155
f 55 155 175
f 57 177 56
f 56 156 150
f 56 176 156
f 56 177 176
f 62 177 57
f 59 96 58
f 58 157 59
f 58 152 153
f 58 153 157
f 63 96 59
f 59 178 63
f 59 157 178
f 65 172 60
f 60 680 65
f 60 698 680
f 61 174 67
f 68 177 62
f 70 96 63
f 63 178 70
f 64 180 65
f 65 673 64
f 72 188 64
f 64 672 72
f 64 189 180
f 64 188 189
f 64 673 672
f 65 180 172
f 65 680 673
f 67 181 66
f 66 190 73
f 66 181 190
f 67 174 181
f 69 191 68
f 68 182 177
f 68 191 182
f 74 191 69
f 71 96 70
f 70 179 71
f 70 178 179
f 75 96 71
f 71 192 75
f 71 179 183
f 71 183 192
f 89 188 72
f 72 664 89
f 72 672 664
f 73 190 90
f 91 191 74
f 92 96 75
f 75 193 92
f 75 192 193
f 76 145 77
f 86 174 76
f 76 155 145
f 175 155 76
f 76 174 175
f 77 146 78
f 145 146 77
f 78 146 79
f 79 147 80
f 79 146 147
f 80 147 81
f 81 148 82
f 147 148 81
f 82 149 83
f 82 148 149
f 83 149 84
f 84 150 85
f 84 149 150
f 85 177 87
f 150 156 85
f 156 176 85
f 85 176 177
f 103 174 86
f 87 177 104
f 88 203 89
f 89 659 88
f 94 202 88
f 88 658 94
f 88 202 203
f 88 659 658
f 89 203 188
f 89 664 659
f 90 204 95
f 90 190 194
f 90 194 204
f 96 205 91
f 91 195 191
f 91 205 195
f 93 96 92
f 92 193 93
f 97 96 93
f 93 206 97
f 93 193 206
f 112 208 94
f 94 652 112
f 94 208 202
f 94 658 652
f 95 204 113
f 347 95 113
f 347 354 95
f 354 353 95
f 95 353 361
f 95 361 365
f 95 365 371
f 97 350 96
f 114 205 96
f 350 114 96
f 97 207 115
f 115 350 97
f 97 206 207
f 98 190 99
f 110 194 98
f 98 194 190
f 99 190 100
f 100 190 101
f 101 181 102
f 190 181 101
f 102 174 103
f 102 181 174
f 104 474 105
f 104 177 182
f 104 182 191
f 104 191 195
f 195 205 104
f 205 452 104
f 104 452 456
f 104 456 470
f 104 470 474
f 105 474 106
f 106 474 107
f 107 474 108
f 108 474 109
f 109 474 111
f 126 204 110
f 204 194 110
f 111 474 127
f 117 217 112
f 112 648 117
f 112 217 208
f 112 652 648
f 113 218 118
f 347 113 118
f 113 204 209
f 113 209 218
f 121 221 114
f 121 114 350
f 114 210 205
f 114 221 210
f 115 211 122
f 122 350 115
f 115 207 211
f 116 216 117
f 117 637 116
f 132 224 116
f 116 636 132
f 116 224 216
f 116 637 636
f 117 216 217
f 117 648 637
f 118 218 119
f 347 118 119
f 119 219 133
f 119 133 347
f 119 218 219
f 120 220 121
f 350 120 121
f 134 220 120
f 350 134 120
f 121 220 221
f 122 222 123
f 123 350 122
f 122 211 222
f 123 223 135
f 135 350 123
f 123 222 223
f 124 204 125
f 130 204 124
f 204 126 125
f 127 474 128
f 128 474 129
f 129 474 131
f 144 204 130
f 131 474 151
f 136 234 132
f 132 632 136
f 132 234 224
f 132 636 632
f 133 235 137
f 133 137 347
f 133 219 225
f 133 225 235
f 140 238 134
f 350 140 134
f 134 226 220
f 134 238 226
f 135 227 141
f 141 350 135
f 135 223 227
f 158 240 136
f 136 624 158
f 136 240 234
f 136 632 624
f 137 235 138
f 339 137 138
f 348 137 339
f 347 137 348
f 138 236 159
f 339 138 159
f 138 235 236
f 139 237 140
f 342 139 140
f 162 237 139
f 342 162 139
f 140 237 238
f 342 140 349
f 349 140 350
f 141 239 163
f 163 350 141
f 141 227 239
f 142 204 143
f 154 204 142
f 143 204 144
f 151 474 152
f 152 474 153
f 153 474 157
f 173 204 154
f 157 474 178
f 165 249 158
f 158 618 165
f 158 249 240
f 158 624 618
f 159 250 160
f 331 159 160
f 159 236 241
f 159 241 250
f 340 159 331
f 339 159 340
f 160 251 166
f 332 160 166
f 160 250 251
f 331 160 332
f 161 254 162
f 336 161 162
f 169 254 161
f 335 169 161
f 335 161 336
f 162 242 237
f 162 255 242
f 162 254 255
f 336 162 341
f 341 162 342
f 163 243 170
f 170 350 163
f 163 239 243
f 164 248 165
f 165 607 164
f 184 263 164
f 164 606 184
f 164 263 248
f 164 607 606
f 165 248 249
f 165 618 607
f 166 251 167
f 332 166 167
f 167 252 168
f 334 167 168
f 167 251 252
f 332 167 333
f 333 167 334
f 168 253 169
f 335 168 169
f 168 252 253
f 334 168 335
f 169 253 254
f 170 256 171
f 171 350 170
f 170 243 256
f 171 257 185
f 185 350 171
f 171 256 257
f 172 204 173
f 180 204 172
f 178 474 179
f 179 474 183
f 189 204 180
f 183 474 192
f 186 262 184
f 184 604 186
f 184 262 263
f 184 606 604
f 185 264 187
f 187 350 185
f 185 257 264
f 197 262 186
f 186 598 197
f 186 604 598
f 187 265 198
f 198 350 187
f 187 264 265
f 188 204 189
f 203 204 188
f 192 474 193
f 193 474 206
f 196 270 197
f 197 595 196
f 200 270 196
f 196 594 200
f 196 595 594
f 197 270 262
f 197 598 595
f 198 265 199
f 199 355 198
f 198 355 350
f 199 271 201
f 201 355 199
f 199 265 271
f 212 272 200
f 200 590 212
f 200 272 270
f 200 594 590
f 201 271 213
f 213 355 201
f 202 204 203
f 202 430 204
f 208 430 202
f 430 209 204
f 205 210 431
f 431 432 205
f 205 432 436
f 436 452 205
f 206 474 207
f 207 474 211
f 217 430 208
f 430 218 209
f 431 210 221
f 211 474 222
f 214 278 212
f 212 588 214
f 212 278 272
f 212 590 588
f 213 273 215
f 215 355 213
f 213 271 273
f 229 278 214
f 214 582 229
f 214 588 582
f 215 279 230
f 230 355 215
f 215 273 279
f 216 430 217
f 224 430 216
f 430 219 218
f 430 225 219
f 431 221 220
f 431 220 226
f 222 474 223
f 223 474 227
f 234 430 224
f 235 225 430
f 431 226 238
f 227 474 239
f 228 284 229
f 229 579 228
f 232 284 228
f 228 578 232
f 228 579 578
f 229 284 278
f 229 582 579
f 230 279 231
f 231 355 230
f 231 285 233
f 233 356 231
f 231 279 285
f 231 356 355
f 244 286 232
f 232 572 244
f 232 286 284
f 232 578 572
f 233 285 245
f 245 362 233
f 233 362 356
f 240 430 234
f 408 236 235
f 408 235 407
f 407 235 415
f 415 235 430
f 408 241 236
f 411 238 237
f 411 237 242
f 412 238 411
f 416 238 412
f 431 238 416
f 239 474 243
f 249 430 240
f 409 250 241
f 409 241 408
f 410 242 255
f 411 242 410
f 243 474 256
f 246 292 244
f 244 570 246
f 244 292 286
f 244 572 570
f 245 287 247
f 247 362 245
f 245 285 287
f 258 292 246
f 246 566 258
f 246 570 566
f 247 293 259
f 259 362 247
f 247 287 293
f 248 430 249
f 263 430 248
f 409 251 250
f 389 252 251
f 389 251 395
f 395 251 394
f 394 251 409
f 391 253 252
f 390 252 389
f 391 252 390
f 392 254 253
f 392 253 391
f 410 255 254
f 396 254 392
f 397 254 396
f 410 254 397
f 256 474 257
f 257 474 264
f 260 299 258
f 258 564 260
f 258 299 292
f 258 566 564
f 259 293 261
f 261 362 259
f 266 298 260
f 260 560 266
f 260 298 299
f 260 564 560
f 261 300 267
f 267 362 261
f 261 293 300
f 262 430 263
f 270 430 262
f 264 474 265
f 265 474 271
f 268 306 266
f 266 558 268
f 266 306 298
f 266 560 558
f 267 307 269
f 269 362 267
f 267 300 301
f 267 301 307
f 274 308 268
f 268 554 274
f 268 308 306
f 268 558 554
f 269 307 275
f 275 362 269
f 272 430 270
f 271 474 273
f 278 430 272
f 273 474 279
f 276 314 274
f 274 552 276
f 274 314 308
f 274 554 552
f 275 309 277
f 277 362 275
f 275 307 309
f 280 316 276
f 276 548 280
f 276 316 314
f 276 552 548
f 277 315 281
f 281 366 277
f 277 309 315
f 277 366 362
f 284 430 278
f 279 474 285
f 282 322 280
f 280 546 282
f 280 322 316
f 280 548 546
f 281 317 283
f 283 366 281
f 281 315 317
f 288 322 282
f 282 542 288
f 282 546 542
f 283 323 289
f 289 366 283
f 283 317 323
f 286 429 284
f 284 429 430
f 285 474 287
f 292 429 286
f 287 474 293
f 290 328 288
f 288 540 290
f 288 328 322
f 288 542 540
f 289 323 291
f 291 366 289
f 295 328 290
f 290 532 295
f 290 540 532
f 291 329 296
f 296 366 291
f 291 323 329
f 299 435 292
f 292 435 429
f 293 474 300
f 294 344 295
f 295 529 294
f 302 344 294
f 294 528 302
f 294 529 528
f 295 344 328
f 295 532 529
f 296 329 297
f 297 366 296
f 297 345 303
f 303 372 297
f 297 329 345
f 297 372 366
f 298 435 299
f 306 451 298
f 298 451 435
f 300 474 301
f 301 474 307
f 304 358 302
f 302 514 304
f 302 358 344
f 302 528 514
f 303 359 305
f 305 372 303
f 303 345 359
f 310 368 304
f 304 502 310
f 304 368 358
f 304 514 502
f 305 359 311
f 311 372 305
f 308 451 306
f 307 474 309
f 314 451 308
f 309 474 315
f 312 368 310
f 310 500 312
f 310 502 500
f 311 369 313
f 313 372 311
f 311 359 369
f 318 378 312
f 312 490 318
f 312 378 368
f 312 500 490
f 313 369 319
f 319 372 313
f 316 451 314
f 315 474 317
f 322 451 316
f 317 474 323
f 320 378 318
f 318 488 320
f 318 490 488
f 321 372 319
f 319 379 321
f 319 369 379
f 324 388 320
f 320 478 324
f 320 388 378
f 320 488 478
f 325 372 321
f 321 379 325
f 328 451 322
f 323 474 329
f 326 388 324
f 324 476 326
f 324 478 476
f 327 376 325
f 325 393 327
f 325 376 372
f 325 379 393
f 330 406 326
f 326 466 330
f 326 406 388
f 326 476 466
f 337 376 327
f 327 393 337
f 344 451 328
f 329 474 345
f 338 406 330
f 330 458 338
f 330 466 458
f 332 395 331
f 331 409 340
f 331 395 394
f 331 394 409
f 333 390 332
f 332 390 389
f 332 389 395
f 334 391 333
f 333 391 390
f 335 392 334
f 334 392 391
f 336 397 335
f 335 396 392
f 335 397 396
f 341 410 336
f 336 410 397
f 343 376 337
f 337 413 343
f 337 393 413
f 346 414 338
f 338 444 346
f 338 414 406
f 338 458 444
f 340 409 339
f 339 408 348
f 339 409 408
f 342 411 341
f 341 411 410
f 349 411 342
f 351 376 343
f 343 413 351
f 358 451 344
f 345 474 359
f 352 428 346
f 346 438 352
f 346 428 414
f 346 444 438
f 348 408 347
f 347 430 354
f 347 408 407
f 347 407 415
f 347 415 430
f 350 412 349
f 349 412 411
f 355 431 350
f 350 416 412
f 350 431 416
f 357 376 351
f 351 417 357
f 351 413 417
f 352 422 360
f 360 434 352
f 352 438 422
f 352 434 428
f 354 430 353
f 353 429 361
f 353 430 429
f 356 432 355
f 355 432 431
f 362 432 356
f 363 376 357
f 357 433 363
f 357 417 433
f 368 455 358
f 358 455 451
f 359 474 369
f 360 418 364
f 364 450 360
f 360 422 418
f 360 450 434
f 361 451 365
f 361 429 435
f 361 435 451
f 366 452 362
f 362 436 432
f 362 452 436
f 367 382 363
f 363 437 367
f 363 382 376
f 363 433 437
f 364 402 370
f 370 454 364
f 364 418 402
f 364 454 450
f 365 451 371
f 372 452 366
f 373 382 367
f 367 453 373
f 367 437 453
f 378 469 368
f 368 469 455
f 369 474 379
f 370 398 374
f 374 468 370
f 370 402 398
f 370 468 454
f 371 469 375
f 371 451 455
f 371 455 469
f 376 470 372
f 372 456 452
f 372 470 456
f 377 382 373
f 373 457 377
f 373 453 457
f 374 384 380
f 380 472 374
f 374 398 384
f 374 472 468
f 375 469 381
f 382 470 376
f 383 382 377
f 377 471 383
f 377 457 471
f 388 469 378
f 379 474 393
f 384 480 380
f 380 480 472
f 381 481 385
f 381 385 735
f 381 469 473
f 381 473 481
f 387 382 383
f 386 482 382
f 386 382 784
f 401 382 387
f 405 382 401
f 421 382 405
f 427 382 421
f 443 382 427
f 449 382 443
f 465 382 449
f 467 382 465
f 477 382 467
f 382 474 470
f 382 482 474
f 479 382 477
f 489 382 479
f 491 382 489
f 501 382 491
f 503 382 501
f 515 382 503
f 531 382 515
f 530 382 531
f 533 382 530
f 541 382 533
f 543 382 541
f 547 382 543
f 549 382 547
f 553 382 549
f 555 382 553
f 559 382 555
f 561 382 559
f 565 382 561
f 567 382 565
f 571 382 567
f 573 382 571
f 581 382 573
f 580 382 581
f 583 382 580
f 589 382 583
f 591 382 589
f 597 382 591
f 596 382 597
f 599 382 596
f 605 382 599
f 613 382 605
f 612 382 613
f 623 382 612
f 629 382 623
f 635 382 629
f 643 382 635
f 642 382 643
f 651 382 642
f 655 382 651
f 663 382 655
f 662 382 663
f 667 382 662
f 679 382 667
f 678 382 679
f 683 382 678
f 705 382 683
f 704 382 705
f 715 382 704
f 714 382 715
f 733 382 714
f 731 382 732
f 737 382 731
f 732 382 733
f 736 382 737
f 755 382 736
f 753 382 754
f 761 382 753
f 754 382 755
f 759 382 760
f 785 382 759
f 760 382 761
f 784 382 785
f 383 475 387
f 383 471 475
f 398 484 384
f 384 484 480
f 385 481 399
f 385 399 735
f 400 482 386
f 400 386 784
f 387 483 401
f 387 475 483
f 406 469 388
f 393 474 413
f 402 492 398
f 398 492 484
f 399 493 403
f 735 399 403
f 399 481 485
f 399 485 493
f 404 494 400
f 654 404 400
f 400 486 482
f 400 494 486
f 654 400 784
f 401 487 405
f 401 483 487
f 418 496 402
f 402 496 492
f 403 493 419
f 735 403 419
f 420 494 404
f 654 420 404
f 405 495 421
f 405 487 495
f 414 469 406
f 413 474 417
f 428 469 414
f 417 474 433
f 422 504 418
f 418 504 496
f 419 505 423
f 735 419 423
f 419 493 497
f 419 497 505
f 426 508 420
f 654 426 420
f 420 498 494
f 420 508 498
f 421 499 427
f 421 495 499
f 438 510 422
f 422 510 504
f 423 505 424
f 423 424 735
f 424 506 439
f 424 439 735
f 424 505 506
f 425 507 426
f 654 425 426
f 442 507 425
f 654 442 425
f 426 507 508
f 427 509 443
f 427 499 509
f 434 469 428
f 433 474 437
f 450 469 434
f 437 474 453
f 444 516 438
f 438 516 510
f 439 517 440
f 440 633 439
f 439 506 511
f 439 511 517
f 439 633 639
f 439 639 638
f 439 638 649
f 439 649 653
f 439 653 735
f 440 518 445
f 445 633 440
f 440 517 518
f 441 521 442
f 640 441 442
f 448 521 441
f 634 448 441
f 634 441 640
f 442 512 507
f 442 522 512
f 442 521 522
f 640 442 641
f 641 442 650
f 650 442 654
f 443 513 449
f 443 509 513
f 458 516 444
f 445 518 446
f 446 625 445
f 445 625 633
f 446 519 459
f 459 619 446
f 446 518 519
f 446 619 626
f 446 626 625
f 447 520 448
f 628 447 448
f 464 520 447
f 622 464 447
f 622 447 627
f 627 447 628
f 448 520 521
f 628 448 634
f 449 523 465
f 449 513 523
f 454 469 450
f 453 474 457
f 468 469 454
f 457 474 471
f 466 534 458
f 458 534 516
f 459 524 460
f 460 620 459
f 459 519 524
f 459 620 619
f 460 535 461
f 461 609 460
f 460 524 525
f 460 525 535
f 460 609 608
f 460 608 620
f 461 536 462
f 610 461 462
f 461 535 536
f 609 461 610
f 462 537 463
f 610 462 463
f 462 536 537
f 463 526 464
f 621 463 464
f 463 538 526
f 463 537 538
f 610 463 611
f 611 463 621
f 464 527 520
f 464 526 527
f 621 464 622
f 465 523 467
f 476 534 466
f 467 539 477
f 467 523 539
f 468 473 469
f 472 473 468
f 471 474 475
f 480 473 472
f 484 473 480
f 481 473 836
f 492 473 484
f 496 473 492
f 504 473 496
f 510 473 504
f 516 473 510
f 534 473 516
f 544 473 534
f 550 473 544
f 556 473 550
f 562 473 556
f 568 473 562
f 574 473 568
f 576 473 574
f 584 473 576
f 586 473 584
f 592 473 586
f 600 473 592
f 601 473 600
f 614 473 601
f 616 473 614
f 630 473 616
f 644 473 630
f 646 473 644
f 656 473 646
f 668 473 656
f 669 473 668
f 684 473 669
f 685 473 684
f 694 473 685
f 716 473 694
f 722 473 716
f 738 473 722
f 739 473 738
f 746 473 739
f 762 473 746
f 763 473 762
f 787 473 763
f 788 473 787
f 793 473 788
f 797 473 793
f 798 473 797
f 805 473 798
f 809 473 805
f 810 473 809
f 811 473 810
f 821 473 811
f 823 473 821
f 824 473 823
f 825 473 824
f 829 473 825
f 831 473 829
f 832 473 831
f 833 473 832
f 834 473 833
f 835 473 834
f 836 473 835
f 475 474 483
f 483 474 482
f 478 544 476
f 476 544 534
f 477 539 479
f 488 544 478
f 479 545 489
f 479 539 545
f 485 481 836
f 483 482 487
f 482 486 844
f 487 482 495
f 495 482 499
f 499 482 509
f 509 482 513
f 513 482 523
f 523 482 539
f 539 482 545
f 545 482 551
f 551 482 557
f 557 482 563
f 563 482 569
f 569 482 575
f 575 482 577
f 577 482 585
f 585 482 587
f 587 482 593
f 593 482 603
f 603 482 602
f 602 482 615
f 615 482 617
f 617 482 631
f 631 482 645
f 645 482 647
f 647 482 657
f 657 482 671
f 671 482 670
f 670 482 693
f 693 482 692
f 692 482 697
f 697 482 721
f 721 482 725
f 725 482 745
f 745 482 744
f 744 482 749
f 749 482 767
f 767 482 766
f 766 482 792
f 792 482 791
f 791 482 796
f 796 482 804
f 804 482 803
f 803 482 808
f 808 482 820
f 819 482 818
f 818 482 822
f 820 482 819
f 822 482 828
f 827 482 826
f 826 482 830
f 828 482 827
f 830 482 842
f 838 482 837
f 837 482 844
f 839 482 838
f 840 482 839
f 841 482 840
f 842 482 841
f 836 493 485
f 844 486 494
f 490 550 488
f 488 550 544
f 489 545 491
f 500 550 490
f 491 551 501
f 491 545 551
f 843 497 493
f 843 493 836
f 494 498 854
f 844 494 854
f 505 497 843
f 854 498 508
f 502 556 500
f 500 556 550
f 501 551 503
f 514 556 502
f 503 557 515
f 503 551 557
f 843 506 505
f 506 747 511
f 506 764 747
f 845 764 506
f 845 506 843
f 508 507 854
f 512 765 507
f 765 854 507
f 511 740 517
f 511 747 740
f 522 743 512
f 512 743 748
f 512 748 765
f 528 562 514
f 514 562 556
f 515 563 531
f 515 557 563
f 517 741 518
f 517 740 741
f 518 717 519
f 518 723 717
f 518 741 723
f 519 686 524
f 519 695 686
f 519 718 695
f 519 717 718
f 520 720 521
f 527 691 520
f 520 691 696
f 520 696 719
f 520 719 720
f 521 742 522
f 521 720 724
f 521 724 742
f 522 742 743
f 524 687 525
f 524 686 687
f 525 687 535
f 526 690 527
f 538 690 526
f 527 690 691
f 529 568 528
f 528 568 562
f 532 568 529
f 531 563 530
f 530 569 533
f 530 563 569
f 540 574 532
f 532 574 568
f 533 569 541
f 535 688 536
f 535 687 688
f 536 688 537
f 537 689 538
f 688 689 537
f 538 689 690
f 542 574 540
f 541 575 543
f 541 569 575
f 546 576 542
f 542 576 574
f 543 575 547
f 548 584 546
f 546 584 576
f 547 577 549
f 547 575 577
f 552 586 548
f 548 586 584
f 549 585 553
f 549 577 585
f 554 592 552
f 552 592 586
f 553 587 555
f 553 585 587
f 558 592 554
f 555 593 559
f 555 587 593
f 560 601 558
f 558 600 592
f 558 601 600
f 559 603 561
f 559 593 603
f 564 614 560
f 560 614 601
f 561 602 565
f 561 603 602
f 566 614 564
f 565 615 567
f 565 602 615
f 570 616 566
f 566 616 614
f 567 615 571
f 572 630 570
f 570 630 616
f 571 617 573
f 571 615 617
f 578 630 572
f 573 631 581
f 573 617 631
f 579 644 578
f 578 644 630
f 582 644 579
f 581 631 580
f 580 645 583
f 580 631 645
f 588 646 582
f 582 646 644
f 583 645 589
f 590 656 588
f 588 656 646
f 589 647 591
f 589 645 647
f 594 656 590
f 591 657 597
f 591 647 657
f 595 668 594
f 594 668 656
f 598 668 595
f 597 657 596
f 596 671 599
f 596 657 671
f 604 669 598
f 598 669 668
f 599 671 605
f 606 684 604
f 604 684 669
f 605 670 613
f 605 671 670
f 607 685 606
f 606 685 684
f 618 694 607
f 607 694 685
f 609 688 608
f 608 687 620
f 608 688 687
f 610 689 609
f 609 689 688
f 611 690 610
f 610 690 689
f 621 690 611
f 613 693 612
f 612 692 623
f 612 693 692
f 613 670 693
f 624 716 618
f 618 716 694
f 620 687 619
f 619 718 626
f 619 687 686
f 619 686 695
f 619 695 718
f 622 691 621
f 621 691 690
f 627 719 622
f 622 696 691
f 622 719 696
f 623 697 629
f 623 692 697
f 632 722 624
f 624 722 716
f 626 718 625
f 625 717 633
f 625 718 717
f 628 720 627
f 627 720 719
f 634 720 628
f 629 721 635
f 629 697 721
f 636 738 632
f 632 738 722
f 633 741 639
f 633 717 723
f 633 723 741
f 640 742 634
f 634 724 720
f 634 742 724
f 635 725 643
f 635 721 725
f 637 739 636
f 636 739 738
f 648 746 637
f 637 746 739
f 639 741 638
f 638 740 649
f 638 741 740
f 641 743 640
f 640 743 742
f 650 743 641
f 643 745 642
f 642 744 651
f 642 745 744
f 643 725 745
f 652 762 648
f 648 762 746
f 649 764 653
f 649 740 747
f 649 747 764
f 654 765 650
f 650 748 743
f 650 765 748
f 651 749 655
f 651 744 749
f 658 763 652
f 652 763 762
f 751 653 660
f 653 764 660
f 735 653 750
f 750 653 751
f 661 765 654
f 784 661 654
f 655 767 663
f 655 749 767
f 659 787 658
f 658 787 763
f 664 787 659
f 660 665 756
f 660 789 665
f 751 660 752
f 752 660 756
f 660 764 768
f 660 768 789
f 784 666 661
f 666 790 661
f 661 769 765
f 661 790 769
f 663 766 662
f 662 792 667
f 662 766 792
f 663 767 766
f 672 788 664
f 664 788 787
f 665 674 758
f 665 789 674
f 756 665 757
f 757 665 758
f 677 666 784
f 677 790 666
f 667 792 679
f 673 797 672
f 672 793 788
f 672 797 793
f 680 797 673
f 674 675 758
f 674 789 675
f 771 675 681
f 675 799 681
f 758 675 770
f 770 675 771
f 675 789 794
f 675 794 799
f 784 676 677
f 676 795 677
f 682 676 784
f 682 802 676
f 676 802 795
f 677 795 790
f 679 796 678
f 678 804 683
f 678 796 804
f 679 792 791
f 679 791 796
f 698 798 680
f 680 798 797
f 772 681 700
f 681 799 700
f 771 681 772
f 783 703 682
f 703 802 682
f 783 682 784
f 683 803 705
f 683 804 803
f 699 805 698
f 698 805 798
f 706 810 699
f 699 809 805
f 699 810 809
f 773 700 701
f 700 799 701
f 772 700 773
f 774 701 708
f 701 812 708
f 773 701 774
f 701 799 800
f 701 800 806
f 701 806 812
f 782 702 703
f 702 801 703
f 781 713 702
f 713 817 702
f 781 702 782
f 702 807 801
f 702 817 807
f 782 703 783
f 703 801 802
f 705 803 704
f 704 820 715
f 704 803 808
f 704 808 820
f 707 811 706
f 706 811 810
f 726 811 707
f 708 709 774
f 708 812 709
f 776 709 710
f 709 813 710
f 774 709 775
f 775 709 776
f 709 812 813
f 710 729 777
f 710 814 729
f 776 710 777
f 710 813 814
f 779 711 712
f 711 815 712
f 778 730 711
f 730 815 711
f 778 711 779
f 781 712 713
f 712 816 713
f 779 712 780
f 780 712 781
f 712 815 816
f 713 816 817
f 715 819 714
f 714 818 733
f 714 819 818
f 715 820 819
f 727 821 726
f 726 821 811
f 728 823 727
f 727 823 821
f 734 823 728
f 729 730 786
f 729 814 730
f 777 729 786
f 786 730 778
f 730 814 815
f 732 822 731
f 731 828 737
f 731 822 828
f 733 818 732
f 732 818 822
f 735 824 734
f 734 824 823
f 750 824 735
f 737 828 736
f 736 827 755
f 736 828 827
f 751 825 750
f 750 825 824
f 752 829 751
f 751 829 825
f 756 832 752
f 752 831 829
f 752 832 831
f 754 826 753
f 753 842 761
f 753 826 830
f 753 830 842
f 755 827 754
f 754 827 826
f 757 833 756
f 756 833 832
f 758 834 757
f 757 834 833
f 770 835 758
f 758 835 834
f 760 840 759
f 759 839 785
f 759 840 839
f 761 841 760
f 760 841 840
f 761 842 841
f 845 768 764
f 854 765 769
f 845 789 768
f 769 790 854
f 771 836 770
f 770 836 835
f 772 843 771
f 771 843 836
f 773 845 772
f 772 845 843
f 774 846 773
f 773 846 845
f 775 847 774
f 774 847 846
f 776 848 775
f 775 848 847
f 777 849 776
f 776 849 848
f 786 850 777
f 777 850 849
f 779 851 778
f 778 850 786
f 778 851 850
f 780 852 779
f 779 852 851
f 781 853 780
f 780 853 852
f 782 854 781
f 781 854 853
f 783 844 782
f 782 844 854
f 784 837 783
f 783 837 844
f 785 838 784
f 784 838 837
f 785 839 838
f 845 794 789
f 790 795 853
f 854 790 853
f 845 799 794
f 795 802 853
f 800 799 846
f 846 799 845
f 846 806 800
f 852 802 801
f 852 801 807
f 853 802 852
f 847 812 806
f 847 806 846
f 852 807 817
f 813 812 847
f 848 814 813
f 848 813 847
f 849 815 814
f 849 814 848
f 850 816 815
f 850 815 849
f 851 817 816
f 851 816 850
f 852 817 851
