# CAD visual only; metres; body-local coordinates
v 0.12 -0.0175 0.025999999
v 0.12 -0.0175 0.008
v 0.12 0.0175 0.008
v 0.12 0.0175 0.025999999
v 0.12 -0.0175 0.025999999
v 0.12 0.0175 0.025999999
v 0.05 0.0175 0.025999999
v 0.05 -0.0175 0.025999999
v 0.12 0.0175 0.008
v 0.12 -0.0175 0.008
v 0.05 -0.0175 0.008
v 0.05 0.0175 0.008
v 0.05 -0.0175 0.025999999
v 0.05 -0.0175 0.008
v 0.12 -0.0175 0.008
v 0.12 -0.0175 0.025999999
v 0.12 0.0175 0.025999999
v 0.12 0.0175 0.008
v 0.05 0.0175 0.008
v 0.05 0.0175 0.025999999
v 0.05 0.0175 0.025999999
v 0.05 0.0175 0.008
v 0.05 -0.0175 0.008
v 0.05 -0.0175 0.025999999
v -0.0325 -0.0575 0.025999999
v -0.0325 -0.0575 0.008
v -0.0325 -0.0925 0.008
v -0.0325 -0.0925 0.025999999
v -0.0325 -0.0925 0.025999999
v -0.0325 -0.0925 0.008
v 0.0325 -0.0925 0.008
v 0.0325 -0.0925 0.025999999
v 0.0325 -0.0925 0.025999999
v 0.0325 -0.0575 0.025999999
v -0.0325 -0.0575 0.025999999
v -0.0325 -0.0925 0.025999999
v 0.0325 -0.0575 0.008
v 0.0325 -0.0925 0.008
v -0.0325 -0.0925 0.008
v -0.0325 -0.0575 0.008
v 0.0325 -0.0575 0.025999999
v 0.0325 -0.0575 0.008
v -0.0325 -0.0575 0.008
v -0.0325 -0.0575 0.025999999
v 0.0325 -0.0925 0.025999999
v 0.0325 -0.0925 0.008
v 0.0325 -0.0575 0.008
v 0.0325 -0.0575 0.025999999
v 0.035 0.0975 0.035999999
v 0.035 0.0975 0.008
v -0.035 0.0975 0.008
v -0.035 0.0975 0.035999999
v 0.035 0.0975 0.008
v 0.035 0.0525 0.008
v -0.035 0.0525 0.008
v -0.035 0.0975 0.008
v -0.035 0.0525 0.035999999
v -0.035 0.0525 0.008
v 0.035 0.0525 0.008
v 0.035 0.0525 0.035999999
v 0.035 0.0525 0.035999999
v 0.035 0.0975 0.035999999
v -0.035 0.0975 0.035999999
v -0.035 0.0525 0.035999999
v 0.035 0.0525 0.035999999
v 0.035 0.0525 0.008
v 0.035 0.0975 0.008
v 0.035 0.0975 0.035999999
v -0.035 0.0975 0.035999999
v -0.035 0.0975 0.008
v -0.035 0.0525 0.008
v -0.035 0.0525 0.035999999
v -0.005530092 -0.141199999 0.0155
v -0.005530092 -0.141199999 0.0297
v -0.005530092 -0.140187502 0.0155
v -0.005530092 -0.140187502 0.0297
v -0.005530092 0.140187502 0.0155
v -0.005530092 0.140187502 0.0297
v -0.005530092 0.141199999 0.0155
v -0.005530092 0.141199999 0.0297
v 0.145 -0.141199999 0.0155
v 0.145 -0.141199999 0.0297
v 0.145 -0.140187502 0.0155
v 0.145 -0.140187502 0.0297
v 0.145 0.140187502 0.0155
v 0.145 0.140187502 0.0297
v 0.145 0.141199999 0.0155
v 0.145 0.141199999 0.0297
v 0.145457249 -0.141196012 0.0155
v 0.145457249 -0.141196012 0.0297
v 0.145439587 -0.140183668 0.0155
v 0.145439587 -0.140183668 0.0297
v 0.145439587 0.140183668 0.0155
v 0.145439587 0.140183668 0.0297
v 0.145457249 0.141196012 0.0155
v 0.145457249 0.141196012 0.0297
v 0.145914364 -0.141184044 0.0155
v 0.145914364 -0.141184044 0.0297
v 0.14587903 -0.140172157 0.0155
v 0.14587903 -0.140172157 0.0297
v 0.14587903 0.140172157 0.0155
v 0.14587903 0.140172157 0.0297
v 0.145914364 0.141184044 0.0155
v 0.145914364 0.141184044 0.0297
v 0.146371202 -0.141164093 0.0155
v 0.146371202 -0.141164093 0.0297
v 0.146318216 -0.140152979 0.0155
v 0.146318216 -0.140152979 0.0297
v 0.146318216 0.140152979 0.0155
v 0.146318216 0.140152979 0.0297
v 0.146371202 0.141164093 0.0155
v 0.146371202 0.141164093 0.0297
v 0.146827621 -0.141136179 0.0155
v 0.146827621 -0.141136179 0.0297
v 0.146756992 -0.140126143 0.0155
v 0.146756992 -0.140126143 0.0297
v 0.146756992 0.140126143 0.0155
v 0.146756992 0.140126143 0.0297
v 0.146827621 0.141136179 0.0155
v 0.146827621 0.141136179 0.0297
v 0.147195234 -0.140091658 0.0155
v 0.147195234 -0.140091658 0.0297
v 0.147195234 0.140091658 0.0155
v 0.147195234 0.140091658 0.0297
v 0.147283478 -0.141100302 0.0155
v 0.147283478 -0.141100302 0.0297
v 0.147283478 0.141100302 0.0155
v 0.147283478 0.141100302 0.0297
v 0.147738647 -0.141056471 0.0155
v 0.147738647 -0.141056471 0.0297
v 0.147632809 -0.140049524 0.0155
v 0.147632809 -0.140049524 0.0297
v 0.147632809 0.140049524 0.0155
v 0.147632809 0.140049524 0.0297
v 0.147738647 0.141056471 0.0155
v 0.147738647 0.141056471 0.0297
v 0.148192978 -0.141004705 0.0155
v 0.148192978 -0.141004705 0.0297
v 0.148069582 -0.139999752 0.0155
v 0.148069582 -0.139999752 0.0297
v 0.148069582 0.139999752 0.0155
v 0.148069582 0.139999752 0.0297
v 0.148192978 0.141004705 0.0155
v 0.148192978 0.141004705 0.0297
v 0.148646336 -0.140945024 0.0155
v 0.148646336 -0.140945024 0.0297
v 0.148505421 -0.139942379 0.0155
v 0.148505421 -0.139942379 0.0297
v 0.148505421 0.139942379 0.0155
v 0.148505421 0.139942379 0.0297
v 0.148646336 0.140945024 0.0155
v 0.148646336 0.140945024 0.0297
v 0.148940191 -0.139877396 0.0155
v 0.148940191 -0.139877396 0.0297
v 0.148940191 0.139877396 0.0155
v 0.148940191 0.139877396 0.0297
v 0.149098587 -0.140877438 0.0155
v 0.149098587 -0.140877438 0.0297
v 0.149098587 0.140877438 0.0155
v 0.149098587 0.140877438 0.0297
v 0.14937376 -0.13980485 0.0155
v 0.14937376 -0.13980485 0.0297
v 0.14937376 0.13980485 0.0155
v 0.14937376 0.13980485 0.0297
v 0.14954958 -0.140801964 0.0155
v 0.14954958 -0.140801964 0.0297
v 0.14954958 0.140801964 0.0155
v 0.14954958 0.140801964 0.0297
v 0.149999199 -0.140718632 0.0155
v 0.149999199 -0.140718632 0.0297
v 0.149806004 -0.139724731 0.0155
v 0.149806004 -0.139724731 0.0297
v 0.149806004 0.139724731 0.0155
v 0.149806004 0.139724731 0.0297
v 0.149999199 0.140718632 0.0155
v 0.149999199 0.140718632 0.0297
v 0.150236778 -0.139637089 0.0155
v 0.150236778 -0.139637089 0.0297
v 0.150236778 0.139637089 0.0155
v 0.150236778 0.139637089 0.0297
v 0.150447283 -0.14062747 0.0155
v 0.150447283 -0.14062747 0.0297
v 0.150447283 0.14062747 0.0155
v 0.150447283 0.14062747 0.0297
v 0.150665951 -0.13954195 0.0155
v 0.150665951 -0.13954195 0.0297
v 0.150665951 0.13954195 0.0155
v 0.150665951 0.13954195 0.0297
v 0.150893717 -0.140528498 0.0155
v 0.150893717 -0.140528498 0.0297
v 0.150893717 0.140528498 0.0155
v 0.150893717 0.140528498 0.0297
v 0.151093407 -0.139439325 0.0155
v 0.151093407 -0.139439325 0.0297
v 0.151093407 0.139439325 0.0155
v 0.151093407 0.139439325 0.0297
v 0.151338358 -0.140421743 0.0155
v 0.151338358 -0.140421743 0.0297
v 0.151338358 0.140421743 0.0155
v 0.151338358 0.140421743 0.0297
v 0.151519003 -0.139329252 0.0155
v 0.151519003 -0.139329252 0.0297
v 0.151519003 0.139329252 0.0155
v 0.151519003 0.139329252 0.0297
v 0.151781063 -0.140307255 0.0155
v 0.151781063 -0.140307255 0.0297
v 0.151942616 -0.139211779 0.0155
v 0.151942616 -0.139211779 0.0297
v 0.151942616 0.139211779 0.0155
v 0.151942616 0.139211779 0.0297
v 0.151781063 0.140307255 0.0155
v 0.151781063 0.140307255 0.0297
v 0.152221699 -0.140185061 0.0155
v 0.152221699 -0.140185061 0.0297
v 0.152221699 0.140185061 0.0155
v 0.152221699 0.140185061 0.0297
v 0.152364111 -0.139086924 0.0155
v 0.152364111 -0.139086924 0.0297
v 0.152364111 0.139086924 0.0155
v 0.152364111 0.139086924 0.0297
v 0.152660141 -0.140055189 0.0155
v 0.152660141 -0.140055189 0.0297
v 0.152660141 0.140055189 0.0155
v 0.152660141 0.140055189 0.0297
v 0.152783365 -0.138954735 0.0155
v 0.152783365 -0.138954735 0.0297
v 0.152783365 0.138954735 0.0155
v 0.152783365 0.138954735 0.0297
v 0.153096247 -0.139917679 0.0155
v 0.153096247 -0.139917679 0.0297
v 0.153200245 -0.13881525 0.0155
v 0.153200245 -0.13881525 0.0297
v 0.153200245 0.13881525 0.0155
v 0.153200245 0.13881525 0.0297
v 0.153096247 0.139917679 0.0155
v 0.153096247 0.139917679 0.0297
v 0.153529882 -0.139772587 0.0155
v 0.153529882 -0.139772587 0.0297
v 0.153614635 -0.138668509 0.0155
v 0.153614635 -0.138668509 0.0297
v 0.153614635 0.138668509 0.0155
v 0.153614635 0.138668509 0.0297
v 0.153529882 0.139772587 0.0155
v 0.153529882 0.139772587 0.0297
v 0.153960924 -0.139619951 0.0155
v 0.153960924 -0.139619951 0.0297
v 0.153960924 0.139619951 0.0155
v 0.153960924 0.139619951 0.0297
v 0.154026394 -0.138514557 0.0155
v 0.154026394 -0.138514557 0.0297
v 0.154026394 0.138514557 0.0155
v 0.154026394 0.138514557 0.0297
v 0.154389238 -0.13945981 0.0155
v 0.154389238 -0.13945981 0.0297
v 0.154435406 -0.138353443 0.0155
v 0.154435406 -0.138353443 0.0297
v 0.154435406 0.138353443 0.0155
v 0.154435406 0.138353443 0.0297
v 0.154389238 0.13945981 0.0155
v 0.154389238 0.13945981 0.0297
v 0.154814692 -0.139292221 0.0155
v 0.154814692 -0.139292221 0.0297
v 0.154841537 -0.138185215 0.0155
v 0.154841537 -0.138185215 0.0297
v 0.154841537 0.138185215 0.0155
v 0.154841537 0.138185215 0.0297
v 0.154814692 0.139292221 0.0155
v 0.154814692 0.139292221 0.0297
v 0.15523716 -0.139117231 0.0155
v 0.15523716 -0.139117231 0.0297
v 0.155244675 -0.13800993 0.0155
v 0.155244675 -0.13800993 0.0297
v 0.155244675 0.13800993 0.0155
v 0.155244675 0.13800993 0.0297
v 0.15523716 0.139117231 0.0155
v 0.15523716 0.139117231 0.0297
v 0.1556565 -0.138934889 0.0155
v 0.1556565 -0.138934889 0.0297
v 0.155644693 -0.137827625 0.0155
v 0.155644693 -0.137827625 0.0297
v 0.155644693 0.137827625 0.0155
v 0.155644693 0.137827625 0.0297
v 0.1556565 0.138934889 0.0155
v 0.1556565 0.138934889 0.0297
v 0.156072598 -0.13874526 0.0155
v 0.156072598 -0.13874526 0.0297
v 0.15604147 -0.137638378 0.0155
v 0.15604147 -0.137638378 0.0297
v 0.15604147 0.137638378 0.0155
v 0.15604147 0.137638378 0.0297
v 0.156072598 0.13874526 0.0155
v 0.156072598 0.13874526 0.0297
v 0.156485329 -0.138548403 0.0155
v 0.156485329 -0.138548403 0.0297
v 0.156434889 -0.137442226 0.0155
v 0.156434889 -0.137442226 0.0297
v 0.156434889 0.137442226 0.0155
v 0.156434889 0.137442226 0.0297
v 0.156485329 0.138548403 0.0155
v 0.156485329 0.138548403 0.0297
v 0.15689455 -0.138344374 0.0155
v 0.15689455 -0.138344374 0.0297
v 0.156824818 -0.137239246 0.0155
v 0.156824818 -0.137239246 0.0297
v 0.156824818 0.137239246 0.0155
v 0.156824818 0.137239246 0.0297
v 0.15689455 0.138344374 0.0155
v 0.15689455 0.138344374 0.0297
v 0.157211142 -0.137029486 0.0155
v 0.157211142 -0.137029486 0.0297
v 0.157211142 0.137029486 0.0155
v 0.157211142 0.137029486 0.0297
v 0.157300158 -0.13813323 0.0155
v 0.157300158 -0.13813323 0.0297
v 0.157300158 0.13813323 0.0155
v 0.157300158 0.13813323 0.0297
v 0.157702007 -0.137915039 0.0155
v 0.157702007 -0.137915039 0.0297
v 0.157593746 -0.136813011 0.0155
v 0.157593746 -0.136813011 0.0297
v 0.157593746 0.136813011 0.0155
v 0.157593746 0.136813011 0.0297
v 0.157702007 0.137915039 0.0155
v 0.157702007 0.137915039 0.0297
v 0.157972517 -0.136589899 0.0155
v 0.157972517 -0.136589899 0.0297
v 0.157972517 0.136589899 0.0155
v 0.157972517 0.136589899 0.0297
v 0.158100004 -0.137689867 0.0155
v 0.158100004 -0.137689867 0.0297
v 0.158100004 0.137689867 0.0155
v 0.158100004 0.137689867 0.0297
v 0.158493996 -0.137457781 0.0155
v 0.158493996 -0.137457781 0.0297
v 0.15834734 -0.136360216 0.0155
v 0.15834734 -0.136360216 0.0297
v 0.15834734 0.136360216 0.0155
v 0.15834734 0.136360216 0.0297
v 0.158493996 0.137457781 0.0155
v 0.158493996 0.137457781 0.0297
v 0.1587181 -0.13612402 0.0155
v 0.1587181 -0.13612402 0.0297
v 0.1587181 0.13612402 0.0155
v 0.1587181 0.13612402 0.0297
v 0.158883886 -0.137218857 0.0155
v 0.158883886 -0.137218857 0.0297
v 0.158883886 0.137218857 0.0155
v 0.158883886 0.137218857 0.0297
v 0.159084673 -0.135881386 0.0155
v 0.159084673 -0.135881386 0.0297
v 0.159084673 0.135881386 0.0155
v 0.159084673 0.135881386 0.0297
v 0.159269543 -0.136973171 0.0155
v 0.159269543 -0.136973171 0.0297
v 0.159446955 -0.135632391 0.0155
v 0.159446955 -0.135632391 0.0297
v 0.159446955 0.135632391 0.0155
v 0.159446955 0.135632391 0.0297
v 0.159269543 0.136973171 0.0155
v 0.159269543 0.136973171 0.0297
v 0.15965085 -0.136720781 0.0155
v 0.15965085 -0.136720781 0.0297
v 0.15965085 0.136720781 0.0155
v 0.15965085 0.136720781 0.0297
v 0.15980484 -0.135377111 0.0155
v 0.15980484 -0.135377111 0.0297
v 0.15980484 0.135377111 0.0155
v 0.15980484 0.135377111 0.0297
v 0.160027695 -0.136461782 0.0155
v 0.160027695 -0.136461782 0.0297
v 0.160158215 -0.135115633 0.0155
v 0.160158215 -0.135115633 0.0297
v 0.160158215 0.135115633 0.0155
v 0.160158215 0.135115633 0.0297
v 0.160027695 0.136461782 0.0155
v 0.160027695 0.136461782 0.0297
v 0.160399971 -0.136196241 0.0155
v 0.160399971 -0.136196241 0.0297
v 0.160399971 0.136196241 0.0155
v 0.160399971 0.136196241 0.0297
v 0.160506973 -0.134848022 0.0155
v 0.160506973 -0.134848022 0.0297
v 0.160506973 0.134848022 0.0155
v 0.160506973 0.134848022 0.0297
v 0.160767555 -0.135924253 0.0155
v 0.160767555 -0.135924253 0.0297
v 0.160851002 -0.134574366 0.0155
v 0.160851002 -0.134574366 0.0297
v 0.160851002 0.134574366 0.0155
v 0.160851002 0.134574366 0.0297
v 0.160767555 0.135924253 0.0155
v 0.160767555 0.135924253 0.0297
v 0.161130333 -0.135645885 0.0155
v 0.161130333 -0.135645885 0.0297
v 0.161190205 -0.134294748 0.0155
v 0.161190205 -0.134294748 0.0297
v 0.161190205 0.134294748 0.0155
v 0.161190205 0.134294748 0.0297
v 0.161130333 0.135645885 0.0155
v 0.161130333 0.135645885 0.0297
v 0.16148819 -0.135361223 0.0155
v 0.16148819 -0.135361223 0.0297
v 0.16148819 0.135361223 0.0155
v 0.16148819 0.135361223 0.0297
v 0.161524487 -0.134009247 0.0155
v 0.161524487 -0.134009247 0.0297
v 0.161524487 0.134009247 0.0155
v 0.161524487 0.134009247 0.0297
v 0.16184103 -0.135070362 0.0155
v 0.16184103 -0.135070362 0.0297
v 0.161853733 -0.133717957 0.0155
v 0.161853733 -0.133717957 0.0297
v 0.161853733 0.133717957 0.0155
v 0.161853733 0.133717957 0.0297
v 0.16184103 0.135070362 0.0155
v 0.16184103 0.135070362 0.0297
v 0.16218874 -0.134773388 0.0155
v 0.16218874 -0.134773388 0.0297
v 0.16217783 -0.133420973 0.0155
v 0.16217783 -0.133420973 0.0297
v 0.16217783 0.133420973 0.0155
v 0.16217783 0.133420973 0.0297
v 0.16218874 0.134773388 0.0155
v 0.16218874 0.134773388 0.0297
v 0.1624967 -0.133118372 0.0155
v 0.1624967 -0.133118372 0.0297
v 0.1624967 0.133118372 0.0155
v 0.1624967 0.133118372 0.0297
v 0.162531223 -0.134470396 0.0155
v 0.162531223 -0.134470396 0.0297
v 0.162531223 0.134470396 0.0155
v 0.162531223 0.134470396 0.0297
v 0.162868366 -0.134161463 0.0155
v 0.162868366 -0.134161463 0.0297
v 0.162810249 -0.132810249 0.0155
v 0.162810249 -0.132810249 0.0297
v 0.162810249 0.132810249 0.0155
v 0.162810249 0.132810249 0.0297
v 0.162868366 0.134161463 0.0155
v 0.162868366 0.134161463 0.0297
v 0.163200054 -0.133846703 0.0155
v 0.163200054 -0.133846703 0.0297
v 0.163118362 -0.13249671 0.0155
v 0.163118362 -0.13249671 0.0297
v 0.163118362 0.13249671 0.0155
v 0.163118362 0.13249671 0.0297
v 0.163200054 0.133846703 0.0155
v 0.163200054 0.133846703 0.0297
v 0.163420963 -0.13217783 0.0155
v 0.163420963 -0.13217783 0.0297
v 0.163420963 0.13217783 0.0155
v 0.163420963 0.13217783 0.0297
v 0.163526192 -0.133526201 0.0155
v 0.163526192 -0.133526201 0.0297
v 0.163717957 -0.131853724 0.0155
v 0.163717957 -0.131853724 0.0297
v 0.163717957 0.131853724 0.0155
v 0.163717957 0.131853724 0.0297
v 0.163526192 0.133526201 0.0155
v 0.163526192 0.133526201 0.0297
v 0.163846703 -0.133200045 0.0155
v 0.163846703 -0.133200045 0.0297
v 0.163846703 0.133200045 0.0155
v 0.163846703 0.133200045 0.0297
v 0.164161472 -0.132868357 0.0155
v 0.164161472 -0.132868357 0.0297
v 0.164009247 -0.131524487 0.0155
v 0.164009247 -0.131524487 0.0297
v 0.164009247 0.131524487 0.0155
v 0.164009247 0.131524487 0.0297
v 0.164161472 0.132868357 0.0155
v 0.164161472 0.132868357 0.0297
v 0.164470387 -0.132531223 0.0155
v 0.164470387 -0.132531223 0.0297
v 0.164294739 -0.131190214 0.0155
v 0.164294739 -0.131190214 0.0297
v 0.164294739 0.131190214 0.0155
v 0.164294739 0.131190214 0.0297
v 0.164470387 0.132531223 0.0155
v 0.164470387 0.132531223 0.0297
v 0.164574356 -0.130851011 0.0155
v 0.164574356 -0.130851011 0.0297
v 0.164574356 0.130851011 0.0155
v 0.164574356 0.130851011 0.0297
v 0.164773388 -0.132188749 0.0155
v 0.164773388 -0.132188749 0.0297
v 0.164848022 -0.130506973 0.0155
v 0.164848022 -0.130506973 0.0297
v 0.164848022 0.130506973 0.0155
v 0.164848022 0.130506973 0.0297
v 0.164773388 0.132188749 0.0155
v 0.164773388 0.132188749 0.0297
v 0.165070362 -0.13184104 0.0155
v 0.165070362 -0.13184104 0.0297
v 0.165115623 -0.130158215 0.0155
v 0.165115623 -0.130158215 0.0297
v 0.165115623 0.130158215 0.0155
v 0.165115623 0.130158215 0.0297
v 0.165070362 0.13184104 0.0155
v 0.165070362 0.13184104 0.0297
v 0.165361233 -0.13148819 0.0155
v 0.165361233 -0.13148819 0.0297
v 0.165377121 -0.12980484 0.0155
v 0.165377121 -0.12980484 0.0297
v 0.165377121 0.12980484 0.0155
v 0.165377121 0.12980484 0.0297
v 0.165361233 0.13148819 0.0155
v 0.165361233 0.13148819 0.0297
v 0.165645885 -0.131130333 0.0155
v 0.165645885 -0.131130333 0.0297
v 0.165632401 -0.129446955 0.0155
v 0.165632401 -0.129446955 0.0297
v 0.165632401 0.129446955 0.0155
v 0.165632401 0.129446955 0.0297
v 0.165645885 0.131130333 0.0155
v 0.165645885 0.131130333 0.0297
v 0.165924244 -0.130767555 0.0155
v 0.165924244 -0.130767555 0.0297
v 0.165881386 -0.129084673 0.0155
v 0.165881386 -0.129084673 0.0297
v 0.165881386 0.129084673 0.0155
v 0.165881386 0.129084673 0.0297
v 0.165924244 0.130767555 0.0155
v 0.165924244 0.130767555 0.0297
v 0.166196251 -0.130399971 0.0155
v 0.166196251 -0.130399971 0.0297
v 0.16612402 -0.1287181 0.0155
v 0.16612402 -0.1287181 0.0297
v 0.16612402 0.1287181 0.0155
v 0.16612402 0.1287181 0.0297
v 0.166196251 0.130399971 0.0155
v 0.166196251 0.130399971 0.0297
v 0.166461792 -0.130027704 0.0155
v 0.166461792 -0.130027704 0.0297
v 0.166360207 -0.12834734 0.0155
v 0.166360207 -0.12834734 0.0297
v 0.166360207 0.12834734 0.0155
v 0.166360207 0.12834734 0.0297
v 0.166461792 0.130027704 0.0155
v 0.166461792 0.130027704 0.0297
v 0.166720791 -0.12965085 0.0155
v 0.166720791 -0.12965085 0.0297
v 0.166589909 -0.127972517 0.0155
v 0.166589909 -0.127972517 0.0297
v 0.166589909 0.127972517 0.0155
v 0.166589909 0.127972517 0.0297
v 0.166720791 0.12965085 0.0155
v 0.166720791 0.12965085 0.0297
v 0.166973171 -0.129269543 0.0155
v 0.166973171 -0.129269543 0.0297
v 0.166813011 -0.127593746 0.0155
v 0.166813011 -0.127593746 0.0297
v 0.166813011 0.127593746 0.0155
v 0.166813011 0.127593746 0.0297
v 0.166973171 0.129269543 0.0155
v 0.166973171 0.129269543 0.0297
v 0.167218857 -0.128883886 0.0155
v 0.167218857 -0.128883886 0.0297
v 0.167029476 -0.127211142 0.0155
v 0.167029476 -0.127211142 0.0297
v 0.167239246 -0.126824818 0.0155
v 0.167239246 -0.126824818 0.0297
v 0.167239246 0.126824818 0.0155
v 0.167239246 0.126824818 0.0297
v 0.167029476 0.127211142 0.0155
v 0.167029476 0.127211142 0.0297
v 0.167218857 0.128883886 0.0155
v 0.167218857 0.128883886 0.0297
v 0.16745779 -0.128493996 0.0155
v 0.16745779 -0.128493996 0.0297
v 0.167442226 -0.126434889 0.0155
v 0.167442226 -0.126434889 0.0297
v 0.167442226 0.126434889 0.0155
v 0.167442226 0.126434889 0.0297
v 0.16745779 0.128493996 0.0155
v 0.16745779 0.128493996 0.0297
v 0.167689857 -0.128100004 0.0155
v 0.167689857 -0.128100004 0.0297
v 0.167638378 -0.12604147 0.0155
v 0.167638378 -0.12604147 0.0297
v 0.167638378 0.12604147 0.0155
v 0.167638378 0.12604147 0.0297
v 0.167689857 0.128100004 0.0155
v 0.167689857 0.128100004 0.0297
v 0.167915039 -0.127702007 0.0155
v 0.167915039 -0.127702007 0.0297
v 0.167827625 -0.125644693 0.0155
v 0.167827625 -0.125644693 0.0297
v 0.167827625 0.125644693 0.0155
v 0.167827625 0.125644693 0.0297
v 0.167915039 0.127702007 0.0155
v 0.167915039 0.127702007 0.0297
v 0.168133221 -0.127300158 0.0155
v 0.168133221 -0.127300158 0.0297
v 0.16800993 -0.125244675 0.0155
v 0.16800993 -0.125244675 0.0297
v 0.168185215 -0.124841537 0.0155
v 0.168185215 -0.124841537 0.0297
v 0.168185215 0.124841537 0.0155
v 0.168185215 0.124841537 0.0297
v 0.16800993 0.125244675 0.0155
v 0.16800993 0.125244675 0.0297
v 0.168133221 0.127300158 0.0155
v 0.168133221 0.127300158 0.0297
v 0.168344364 -0.12689455 0.0155
v 0.168344364 -0.12689455 0.0297
v 0.168353443 -0.124435406 0.0155
v 0.168353443 -0.124435406 0.0297
v 0.168353443 0.124435406 0.0155
v 0.168353443 0.124435406 0.0297
v 0.168344364 0.12689455 0.0155
v 0.168344364 0.12689455 0.0297
v 0.168548412 -0.126485329 0.0155
v 0.168548412 -0.126485329 0.0297
v 0.16874527 -0.126072598 0.0155
v 0.16874527 -0.126072598 0.0297
v 0.168514557 -0.124026394 0.0155
v 0.168514557 -0.124026394 0.0297
v 0.168668499 -0.123614635 0.0155
v 0.168668499 -0.123614635 0.0297
v 0.168668499 0.123614635 0.0155
v 0.168668499 0.123614635 0.0297
v 0.168514557 0.124026394 0.0155
v 0.168514557 0.124026394 0.0297
v 0.16874527 0.126072598 0.0155
v 0.16874527 0.126072598 0.0297
v 0.168548412 0.126485329 0.0155
v 0.168548412 0.126485329 0.0297
v 0.168934898 -0.1256565 0.0155
v 0.168934898 -0.1256565 0.0297
v 0.16881525 -0.123200245 0.0155
v 0.16881525 -0.123200245 0.0297
v 0.168954735 -0.122783365 0.0155
v 0.168954735 -0.122783365 0.0297
v 0.168954735 0.122783365 0.0155
v 0.168954735 0.122783365 0.0297
v 0.16881525 0.123200245 0.0155
v 0.16881525 0.123200245 0.0297
v 0.168934898 0.1256565 0.0155
v 0.168934898 0.1256565 0.0297
v 0.169117222 -0.12523716 0.0155
v 0.169117222 -0.12523716 0.0297
v 0.169086933 -0.122364111 0.0155
v 0.169086933 -0.122364111 0.0297
v 0.169211788 -0.121942616 0.0155
v 0.169211788 -0.121942616 0.0297
v 0.169211788 0.121942616 0.0155
v 0.169211788 0.121942616 0.0297
v 0.169086933 0.122364111 0.0155
v 0.169086933 0.122364111 0.0297
v 0.169117222 0.12523716 0.0155
v 0.169117222 0.12523716 0.0297
v 0.169292221 -0.124814692 0.0155
v 0.169292221 -0.124814692 0.0297
v 0.169459801 -0.124389238 0.0155
v 0.169459801 -0.124389238 0.0297
v 0.169329262 -0.121519003 0.0155
v 0.169329262 -0.121519003 0.0297
v 0.169439316 -0.121093407 0.0155
v 0.169439316 -0.121093407 0.0297
v 0.169439316 0.121093407 0.0155
v 0.169439316 0.121093407 0.0297
v 0.169329262 0.121519003 0.0155
v 0.169329262 0.121519003 0.0297
v 0.169459801 0.124389238 0.0155
v 0.169459801 0.124389238 0.0297
v 0.169292221 0.124814692 0.0155
v 0.169292221 0.124814692 0.0297
v 0.169619942 -0.123960924 0.0155
v 0.169619942 -0.123960924 0.0297
v 0.16954195 -0.120665951 0.0155
v 0.16954195 -0.120665951 0.0297
v 0.169637089 -0.120236778 0.0155
v 0.169637089 -0.120236778 0.0297
v 0.169724731 -0.119806004 0.0155
v 0.169724731 -0.119806004 0.0297
v 0.169724731 0.119806004 0.0155
v 0.169724731 0.119806004 0.0297
v 0.169637089 0.120236778 0.0155
v 0.169637089 0.120236778 0.0297
v 0.16954195 0.120665951 0.0155
v 0.16954195 0.120665951 0.0297
v 0.169619942 0.123960924 0.0155
v 0.169619942 0.123960924 0.0297
v 0.169772587 -0.123529882 0.0155
v 0.169772587 -0.123529882 0.0297
v 0.169917679 -0.123096247 0.0155
v 0.169917679 -0.123096247 0.0297
v 0.16980484 -0.11937376 0.0155
v 0.16980484 -0.11937376 0.0297
v 0.169877396 -0.118940191 0.0155
v 0.169877396 -0.118940191 0.0297
v 0.169942379 -0.118505421 0.0155
v 0.169942379 -0.118505421 0.0297
v 0.169999752 -0.118069582 0.0155
v 0.169999752 -0.118069582 0.0297
v 0.169999752 0.118069582 0.0155
v 0.169999752 0.118069582 0.0297
v 0.169942379 0.118505421 0.0155
v 0.169942379 0.118505421 0.0297
v 0.169877396 0.118940191 0.0155
v 0.169877396 0.118940191 0.0297
v 0.16980484 0.11937376 0.0155
v 0.16980484 0.11937376 0.0297
v 0.169917679 0.123096247 0.0155
v 0.169917679 0.123096247 0.0297
v 0.169772587 0.123529882 0.0155
v 0.169772587 0.123529882 0.0297
v 0.17005518 -0.122660141 0.0155
v 0.17005518 -0.122660141 0.0297
v 0.170185051 -0.122221699 0.0155
v 0.170185051 -0.122221699 0.0297
v 0.170049515 -0.117632809 0.0155
v 0.170049515 -0.117632809 0.0297
v 0.170091648 -0.117195234 0.0155
v 0.170091648 -0.117195234 0.0297
v 0.170126152 -0.116756992 0.0155
v 0.170126152 -0.116756992 0.0297
v 0.170152988 -0.116318216 0.0155
v 0.170152988 -0.116318216 0.0297
v 0.170172157 -0.11587903 0.0155
v 0.170172157 -0.11587903 0.0297
v 0.170183659 -0.115439587 0.0155
v 0.170183659 -0.115439587 0.0297
v 0.170187492 -0.115 0.0155
v 0.170187492 -0.115 0.0297
v 0.170187492 0.115 0.0155
v 0.170187492 0.115 0.0297
v 0.170183659 0.115439587 0.0155
v 0.170183659 0.115439587 0.0297
v 0.170172157 0.11587903 0.0155
v 0.170172157 0.11587903 0.0297
v 0.170152988 0.116318216 0.0155
v 0.170152988 0.116318216 0.0297
v 0.170126152 0.116756992 0.0155
v 0.170126152 0.116756992 0.0297
v 0.170091648 0.117195234 0.0155
v 0.170091648 0.117195234 0.0297
v 0.170049515 0.117632809 0.0155
v 0.170049515 0.117632809 0.0297
v 0.170185051 0.122221699 0.0155
v 0.170185051 0.122221699 0.0297
v 0.17005518 0.122660141 0.0155
v 0.17005518 0.122660141 0.0297
v 0.170307255 -0.121781063 0.0155
v 0.170307255 -0.121781063 0.0297
v 0.170421753 -0.121338358 0.0155
v 0.170421753 -0.121338358 0.0297
v 0.170421753 0.121338358 0.0155
v 0.170421753 0.121338358 0.0297
v 0.170307255 0.121781063 0.0155
v 0.170307255 0.121781063 0.0297
v 0.170528488 -0.120893717 0.0155
v 0.170528488 -0.120893717 0.0297
v 0.17062746 -0.120447283 0.0155
v 0.17062746 -0.120447283 0.0297
v 0.170718632 -0.119999199 0.0155
v 0.170718632 -0.119999199 0.0297
v 0.170718632 0.119999199 0.0155
v 0.170718632 0.119999199 0.0297
v 0.17062746 0.120447283 0.0155
v 0.17062746 0.120447283 0.0297
v 0.170528488 0.120893717 0.0155
v 0.170528488 0.120893717 0.0297
v 0.170801964 -0.11954958 0.0155
v 0.170801964 -0.11954958 0.0297
v 0.170877438 -0.119098587 0.0155
v 0.170877438 -0.119098587 0.0297
v 0.170945015 -0.118646336 0.0155
v 0.170945015 -0.118646336 0.0297
v 0.170945015 0.118646336 0.0155
v 0.170945015 0.118646336 0.0297
v 0.170877438 0.119098587 0.0155
v 0.170877438 0.119098587 0.0297
v 0.170801964 0.11954958 0.0155
v 0.170801964 0.11954958 0.0297
v 0.171004715 -0.118192978 0.0155
v 0.171004715 -0.118192978 0.0297
v 0.17105648 -0.117738647 0.0155
v 0.17105648 -0.117738647 0.0297
v 0.171100292 -0.117283478 0.0155
v 0.171100292 -0.117283478 0.0297
v 0.171136169 -0.116827621 0.0155
v 0.171136169 -0.116827621 0.0297
v 0.171164093 -0.116371202 0.0155
v 0.171164093 -0.116371202 0.0297
v 0.171184044 -0.115914364 0.0155
v 0.171184044 -0.115914364 0.0297
v 0.171196003 -0.115457249 0.0155
v 0.171196003 -0.115457249 0.0297
v 0.171200008 -0.115 0.0155
v 0.171200008 -0.115 0.0297
v 0.171200008 0.115 0.0155
v 0.171200008 0.115 0.0297
v 0.171196003 0.115457249 0.0155
v 0.171196003 0.115457249 0.0297
v 0.171184044 0.115914364 0.0155
v 0.171184044 0.115914364 0.0297
v 0.171164093 0.116371202 0.0155
v 0.171164093 0.116371202 0.0297
v 0.171136169 0.116827621 0.0155
v 0.171136169 0.116827621 0.0297
v 0.171100292 0.117283478 0.0155
v 0.171100292 0.117283478 0.0297
v 0.17105648 0.117738647 0.0155
v 0.17105648 0.117738647 0.0297
v 0.171004715 0.118192978 0.0155
v 0.171004715 0.118192978 0.0297
v -0.005530092 -0.143199997 0.014
v -0.005530092 -0.143199997 0.032
v -0.005530092 -0.141199999 0.014
v -0.005530092 -0.141199999 0.032
v -0.005530092 0.141199999 0.014
v -0.005530092 0.141199999 0.032
v -0.005530092 0.143199997 0.014
v -0.005530092 0.143199997 0.032
v 0.145 -0.143199997 0.014
v 0.145 -0.143199997 0.032
v 0.145 -0.141199999 0.014
v 0.145 -0.141199999 0.032
v 0.145 0.141199999 0.014
v 0.145 0.141199999 0.032
v 0.145 0.143199997 0.014
v 0.145 0.143199997 0.032
v 0.145492153 -0.143195705 0.014
v 0.145492153 -0.143195705 0.032
v 0.145457249 -0.141196012 0.014
v 0.145457249 -0.141196012 0.032
v 0.145457249 0.141196012 0.014
v 0.145457249 0.141196012 0.032
v 0.145492153 0.143195705 0.014
v 0.145492153 0.143195705 0.032
v 0.145984163 -0.143182821 0.014
v 0.145984163 -0.143182821 0.032
v 0.145914364 -0.141184044 0.014
v 0.145914364 -0.141184044 0.032
v 0.145914364 0.141184044 0.014
v 0.145914364 0.141184044 0.032
v 0.145984163 0.143182821 0.014
v 0.145984163 0.143182821 0.032
v 0.146475878 -0.143161354 0.014
v 0.146475878 -0.143161354 0.032
v 0.146371202 -0.141164093 0.014
v 0.146371202 -0.141164093 0.032
v 0.146371202 0.141164093 0.014
v 0.146371202 0.141164093 0.032
v 0.146475878 0.143161354 0.014
v 0.146475878 0.143161354 0.032
v 0.146967134 -0.143131304 0.014
v 0.146967134 -0.143131304 0.032
v 0.146827621 -0.141136179 0.014
v 0.146827621 -0.141136179 0.032
v 0.146827621 0.141136179 0.014
v 0.146827621 0.141136179 0.032
v 0.146967134 0.143131304 0.014
v 0.146967134 0.143131304 0.032
v 0.14745779 -0.14309269 0.014
v 0.14745779 -0.14309269 0.032
v 0.147283478 -0.141100302 0.014
v 0.147283478 -0.141100302 0.032
v 0.147283478 0.141100302 0.014
v 0.147283478 0.141100302 0.032
v 0.14745779 0.14309269 0.014
v 0.14745779 0.14309269 0.032
v 0.147738647 -0.141056471 0.014
v 0.147738647 -0.141056471 0.032
v 0.147738647 0.141056471 0.014
v 0.147738647 0.141056471 0.032
v 0.147947702 -0.143045521 0.014
v 0.147947702 -0.143045521 0.032
v 0.147947702 0.143045521 0.014
v 0.147947702 0.143045521 0.032
v 0.148192978 -0.141004705 0.014
v 0.148192978 -0.141004705 0.032
v 0.148192978 0.141004705 0.014
v 0.148192978 0.141004705 0.032
v 0.148436718 -0.142989798 0.014
v 0.148436718 -0.142989798 0.032
v 0.148436718 0.142989798 0.014
v 0.148436718 0.142989798 0.032
v 0.148646336 -0.140945024 0.014
v 0.148646336 -0.140945024 0.032
v 0.148646336 0.140945024 0.014
v 0.148646336 0.140945024 0.032
v 0.148924685 -0.142925558 0.014
v 0.148924685 -0.142925558 0.032
v 0.148924685 0.142925558 0.014
v 0.148924685 0.142925558 0.032
v 0.149098587 -0.140877438 0.014
v 0.149098587 -0.140877438 0.032
v 0.149098587 0.140877438 0.014
v 0.149098587 0.140877438 0.032
v 0.149411449 -0.142852812 0.014
v 0.149411449 -0.142852812 0.032
v 0.149411449 0.142852812 0.014
v 0.149411449 0.142852812 0.032
v 0.14954958 -0.140801964 0.014
v 0.14954958 -0.140801964 0.032
v 0.14954958 0.140801964 0.014
v 0.14954958 0.140801964 0.032
v 0.149896879 -0.142771578 0.014
v 0.149896879 -0.142771578 0.032
v 0.149999199 -0.140718632 0.014
v 0.149999199 -0.140718632 0.032
v 0.149999199 0.140718632 0.014
v 0.149999199 0.140718632 0.032
v 0.149896879 0.142771578 0.014
v 0.149896879 0.142771578 0.032
v 0.150380812 -0.142681885 0.014
v 0.150380812 -0.142681885 0.032
v 0.150447283 -0.14062747 0.014
v 0.150447283 -0.14062747 0.032
v 0.150447283 0.14062747 0.014
v 0.150447283 0.14062747 0.032
v 0.150380812 0.142681885 0.014
v 0.150380812 0.142681885 0.032
v 0.150863113 -0.142583761 0.014
v 0.150863113 -0.142583761 0.032
v 0.150893717 -0.140528498 0.014
v 0.150893717 -0.140528498 0.032
v 0.150893717 0.140528498 0.014
v 0.150893717 0.140528498 0.032
v 0.150863113 0.142583761 0.014
v 0.150863113 0.142583761 0.032
v 0.151343622 -0.142477236 0.014
v 0.151343622 -0.142477236 0.032
v 0.151338358 -0.140421743 0.014
v 0.151338358 -0.140421743 0.032
v 0.151338358 0.140421743 0.014
v 0.151338358 0.140421743 0.032
v 0.151343622 0.142477236 0.014
v 0.151343622 0.142477236 0.032
v 0.151822195 -0.142362337 0.014
v 0.151822195 -0.142362337 0.032
v 0.151781063 -0.140307255 0.014
v 0.151781063 -0.140307255 0.032
v 0.151781063 0.140307255 0.014
v 0.151781063 0.140307255 0.032
v 0.151822195 0.142362337 0.014
v 0.151822195 0.142362337 0.032
v 0.152221699 -0.140185061 0.014
v 0.152221699 -0.140185061 0.032
v 0.152221699 0.140185061 0.014
v 0.152221699 0.140185061 0.032
v 0.152298698 -0.142239113 0.014
v 0.152298698 -0.142239113 0.032
v 0.152298698 0.142239113 0.014
v 0.152298698 0.142239113 0.032
v 0.152660141 -0.140055189 0.014
v 0.152660141 -0.140055189 0.032
v 0.152660141 0.140055189 0.014
v 0.152660141 0.140055189 0.032
v 0.15277297 -0.142107582 0.014
v 0.15277297 -0.142107582 0.032
v 0.15277297 0.142107582 0.014
v 0.15277297 0.142107582 0.032
v 0.153244886 -0.141967793 0.014
v 0.153244886 -0.141967793 0.032
v 0.153096247 -0.139917679 0.014
v 0.153096247 -0.139917679 0.032
v 0.153096247 0.139917679 0.014
v 0.153096247 0.139917679 0.032
v 0.153244886 0.141967793 0.014
v 0.153244886 0.141967793 0.032
v 0.153714275 -0.141819792 0.014
v 0.153714275 -0.141819792 0.032
v 0.153529882 -0.139772587 0.014
v 0.153529882 -0.139772587 0.032
v 0.153529882 0.139772587 0.014
v 0.153529882 0.139772587 0.032
v 0.153714275 0.141819792 0.014
v 0.153714275 0.141819792 0.032
v 0.153960924 -0.139619951 0.014
v 0.153960924 -0.139619951 0.032
v 0.153960924 0.139619951 0.014
v 0.153960924 0.139619951 0.032
v 0.154181023 -0.141663628 0.014
v 0.154181023 -0.141663628 0.032
v 0.154181023 0.141663628 0.014
v 0.154181023 0.141663628 0.032
v 0.154389238 -0.13945981 0.014
v 0.154389238 -0.13945981 0.032
v 0.154389238 0.13945981 0.014
v 0.154389238 0.13945981 0.032
v 0.154644966 -0.141499329 0.014
v 0.154644966 -0.141499329 0.032
v 0.154644966 0.141499329 0.014
v 0.154644966 0.141499329 0.032
v 0.154814692 -0.139292221 0.014
v 0.154814692 -0.139292221 0.032
v 0.154814692 0.139292221 0.014
v 0.154814692 0.139292221 0.032
v 0.155105972 -0.141326971 0.014
v 0.155105972 -0.141326971 0.032
v 0.15523716 -0.139117231 0.014
v 0.15523716 -0.139117231 0.032
v 0.15523716 0.139117231 0.014
v 0.15523716 0.139117231 0.032
v 0.155105972 0.141326971 0.014
v 0.155105972 0.141326971 0.032
v 0.155563908 -0.141146584 0.014
v 0.155563908 -0.141146584 0.032
v 0.1556565 -0.138934889 0.014
v 0.1556565 -0.138934889 0.032
v 0.1556565 0.138934889 0.014
v 0.1556565 0.138934889 0.032
v 0.155563908 0.141146584 0.014
v 0.155563908 0.141146584 0.032
v 0.15601862 -0.140958233 0.014
v 0.15601862 -0.140958233 0.032
v 0.156072598 -0.13874526 0.014
v 0.156072598 -0.13874526 0.032
v 0.156072598 0.13874526 0.014
v 0.156072598 0.13874526 0.032
v 0.15601862 0.140958233 0.014
v 0.15601862 0.140958233 0.032
v 0.156469975 -0.140761986 0.014
v 0.156469975 -0.140761986 0.032
v 0.156485329 -0.138548403 0.014
v 0.156485329 -0.138548403 0.032
v 0.156485329 0.138548403 0.014
v 0.156485329 0.138548403 0.032
v 0.156469975 0.140761986 0.014
v 0.156469975 0.140761986 0.032
v 0.156917839 -0.14055788 0.014
v 0.156917839 -0.14055788 0.032
v 0.15689455 -0.138344374 0.014
v 0.15689455 -0.138344374 0.032
v 0.15689455 0.138344374 0.014
v 0.15689455 0.138344374 0.032
v 0.156917839 0.14055788 0.014
v 0.156917839 0.14055788 0.032
v 0.15736207 -0.140345993 0.014
v 0.15736207 -0.140345993 0.032
v 0.157300158 -0.13813323 0.014
v 0.157300158 -0.13813323 0.032
v 0.157300158 0.13813323 0.014
v 0.157300158 0.13813323 0.032
v 0.15736207 0.140345993 0.014
v 0.15736207 0.140345993 0.032
v 0.157702007 -0.137915039 0.014
v 0.157702007 -0.137915039 0.032
v 0.157702007 0.137915039 0.014
v 0.157702007 0.137915039 0.032
v 0.157802534 -0.140126381 0.014
v 0.157802534 -0.140126381 0.032
v 0.157802534 0.140126381 0.014
v 0.157802534 0.140126381 0.032
v 0.158239098 -0.13989912 0.014
v 0.158239098 -0.13989912 0.032
v 0.158100004 -0.137689867 0.014
v 0.158100004 -0.137689867 0.032
v 0.158100004 0.137689867 0.014
v 0.158100004 0.137689867 0.032
v 0.158239098 0.13989912 0.014
v 0.158239098 0.13989912 0.032
v 0.158493996 -0.137457781 0.014
v 0.158493996 -0.137457781 0.032
v 0.158493996 0.137457781 0.014
v 0.158493996 0.137457781 0.032
v 0.158671627 -0.139664278 0.014
v 0.158671627 -0.139664278 0.032
v 0.158671627 0.139664278 0.014
v 0.158671627 0.139664278 0.032
v 0.158883886 -0.137218857 0.014
v 0.158883886 -0.137218857 0.032
v 0.158883886 0.137218857 0.014
v 0.158883886 0.137218857 0.032
v 0.159099998 -0.139421921 0.014
v 0.159099998 -0.139421921 0.032
v 0.159099998 0.139421921 0.014
v 0.159099998 0.139421921 0.032
v 0.159269543 -0.136973171 0.014
v 0.159269543 -0.136973171 0.032
v 0.159269543 0.136973171 0.014
v 0.159269543 0.136973171 0.032
v 0.159524078 -0.139172115 0.014
v 0.159524078 -0.139172115 0.032
v 0.15965085 -0.136720781 0.014
v 0.15965085 -0.136720781 0.032
v 0.15965085 0.136720781 0.014
v 0.15965085 0.136720781 0.032
v 0.159524078 0.139172115 0.014
v 0.159524078 0.139172115 0.032
v 0.159943724 -0.138914957 0.014
v 0.159943724 -0.138914957 0.032
v 0.159943724 0.138914957 0.014
v 0.159943724 0.138914957 0.032
v 0.160027695 -0.136461782 0.014
v 0.160027695 -0.136461782 0.032
v 0.160027695 0.136461782 0.014
v 0.160027695 0.136461782 0.032
v 0.160358829 -0.138650513 0.014
v 0.160358829 -0.138650513 0.032
v 0.160399971 -0.136196241 0.014
v 0.160399971 -0.136196241 0.032
v 0.160399971 0.136196241 0.014
v 0.160399971 0.136196241 0.032
v 0.160358829 0.138650513 0.014
v 0.160358829 0.138650513 0.032
v 0.160769234 -0.138378859 0.014
v 0.160769234 -0.138378859 0.032
v 0.160767555 -0.135924253 0.014
v 0.160767555 -0.135924253 0.032
v 0.160767555 0.135924253 0.014
v 0.160767555 0.135924253 0.032
v 0.160769234 0.138378859 0.014
v 0.160769234 0.138378859 0.032
v 0.16117485 -0.13810009 0.014
v 0.16117485 -0.13810009 0.032
v 0.161130333 -0.135645885 0.014
v 0.161130333 -0.135645885 0.032
v 0.161130333 0.135645885 0.014
v 0.161130333 0.135645885 0.032
v 0.16117485 0.13810009 0.014
v 0.16117485 0.13810009 0.032
v 0.16148819 -0.135361223 0.014
v 0.16148819 -0.135361223 0.032
v 0.16148819 0.135361223 0.014
v 0.16148819 0.135361223 0.032
v 0.161575546 -0.137814283 0.014
v 0.161575546 -0.137814283 0.032
v 0.161575546 0.137814283 0.014
v 0.161575546 0.137814283 0.032
v 0.161971188 -0.137521524 0.014
v 0.161971188 -0.137521524 0.032
v 0.16184103 -0.135070362 0.014
v 0.16184103 -0.135070362 0.032
v 0.16184103 0.135070362 0.014
v 0.16184103 0.135070362 0.032
v 0.161971188 0.137521524 0.014
v 0.161971188 0.137521524 0.032
v 0.16218874 -0.134773388 0.014
v 0.16218874 -0.134773388 0.032
v 0.16218874 0.134773388 0.014
v 0.16218874 0.134773388 0.032
v 0.16236166 -0.137221899 0.014
v 0.16236166 -0.137221899 0.032
v 0.16236166 0.137221899 0.014
v 0.16236166 0.137221899 0.032
v 0.16274683 -0.136915512 0.014
v 0.16274683 -0.136915512 0.032
v 0.162531223 -0.134470396 0.014
v 0.162531223 -0.134470396 0.032
v 0.162531223 0.134470396 0.014
v 0.162531223 0.134470396 0.032
v 0.16274683 0.136915512 0.014
v 0.16274683 0.136915512 0.032
v 0.162868366 -0.134161463 0.014
v 0.162868366 -0.134161463 0.032
v 0.162868366 0.134161463 0.014
v 0.162868366 0.134161463 0.032
v 0.163126602 -0.136602449 0.014
v 0.163126602 -0.136602449 0.032
v 0.163200054 -0.133846703 0.014
v 0.163200054 -0.133846703 0.032
v 0.163200054 0.133846703 0.014
v 0.163200054 0.133846703 0.032
v 0.163126602 0.136602449 0.014
v 0.163126602 0.136602449 0.032
v 0.163500862 -0.136282806 0.014
v 0.163500862 -0.136282806 0.032
v 0.163526192 -0.133526201 0.014
v 0.163526192 -0.133526201 0.032
v 0.163526192 0.133526201 0.014
v 0.163526192 0.133526201 0.032
v 0.163500862 0.136282806 0.014
v 0.163500862 0.136282806 0.032
v 0.163869476 -0.135956688 0.014
v 0.163869476 -0.135956688 0.032
v 0.163846703 -0.133200045 0.014
v 0.163846703 -0.133200045 0.032
v 0.163846703 0.133200045 0.014
v 0.163846703 0.133200045 0.032
v 0.163869476 0.135956688 0.014
v 0.163869476 0.135956688 0.032
v 0.164232349 -0.13562417 0.014
v 0.164232349 -0.13562417 0.032
v 0.164161472 -0.132868357 0.014
v 0.164161472 -0.132868357 0.032
v 0.164161472 0.132868357 0.014
v 0.164161472 0.132868357 0.032
v 0.164232349 0.13562417 0.014
v 0.164232349 0.13562417 0.032
v 0.164470387 -0.132531223 0.014
v 0.164470387 -0.132531223 0.032
v 0.164470387 0.132531223 0.014
v 0.164470387 0.132531223 0.032
v 0.164589367 -0.135285387 0.014
v 0.164589367 -0.135285387 0.032
v 0.164589367 0.135285387 0.014
v 0.164589367 0.135285387 0.032
v 0.164940414 -0.134940414 0.014
v 0.164940414 -0.134940414 0.032
v 0.164773388 -0.132188749 0.014
v 0.164773388 -0.132188749 0.032
v 0.164773388 0.132188749 0.014
v 0.164773388 0.132188749 0.032
v 0.164940414 0.134940414 0.014
v 0.164940414 0.134940414 0.032
v 0.165070362 -0.13184104 0.014
v 0.165070362 -0.13184104 0.032
v 0.165070362 0.13184104 0.014
v 0.165070362 0.13184104 0.032
v 0.165285378 -0.134589367 0.014
v 0.165285378 -0.134589367 0.032
v 0.165361233 -0.13148819 0.014
v 0.165361233 -0.13148819 0.032
v 0.165361233 0.13148819 0.014
v 0.165361233 0.13148819 0.032
v 0.165285378 0.134589367 0.014
v 0.165285378 0.134589367 0.032
v 0.16562418 -0.134232349 0.014
v 0.16562418 -0.134232349 0.032
v 0.165645885 -0.131130333 0.014
v 0.165645885 -0.131130333 0.032
v 0.165645885 0.131130333 0.014
v 0.165645885 0.131130333 0.032
v 0.16562418 0.134232349 0.014
v 0.16562418 0.134232349 0.032
v 0.165956688 -0.133869486 0.014
v 0.165956688 -0.133869486 0.032
v 0.165924244 -0.130767555 0.014
v 0.165924244 -0.130767555 0.032
v 0.165924244 0.130767555 0.014
v 0.165924244 0.130767555 0.032
v 0.165956688 0.133869486 0.014
v 0.165956688 0.133869486 0.032
v 0.166196251 -0.130399971 0.014
v 0.166196251 -0.130399971 0.032
v 0.166196251 0.130399971 0.014
v 0.166196251 0.130399971 0.032
v 0.166282806 -0.133500862 0.014
v 0.166282806 -0.133500862 0.032
v 0.166461792 -0.130027704 0.014
v 0.166461792 -0.130027704 0.032
v 0.166461792 0.130027704 0.014
v 0.166461792 0.130027704 0.032
v 0.166282806 0.133500862 0.014
v 0.166282806 0.133500862 0.032
v 0.166602459 -0.133126612 0.014
v 0.166602459 -0.133126612 0.032
v 0.166720791 -0.12965085 0.014
v 0.166720791 -0.12965085 0.032
v 0.166720791 0.12965085 0.014
v 0.166720791 0.12965085 0.032
v 0.166602459 0.133126612 0.014
v 0.166602459 0.133126612 0.032
v 0.166915512 -0.13274684 0.014
v 0.166915512 -0.13274684 0.032
v 0.166973171 -0.129269543 0.014
v 0.166973171 -0.129269543 0.032
v 0.166973171 0.129269543 0.014
v 0.166973171 0.129269543 0.032
v 0.166915512 0.13274684 0.014
v 0.166915512 0.13274684 0.032
v 0.167221909 -0.13236165 0.014
v 0.167221909 -0.13236165 0.032
v 0.167218857 -0.128883886 0.014
v 0.167218857 -0.128883886 0.032
v 0.167218857 0.128883886 0.014
v 0.167218857 0.128883886 0.032
v 0.167221909 0.13236165 0.014
v 0.167221909 0.13236165 0.032
v 0.16745779 -0.128493996 0.014
v 0.16745779 -0.128493996 0.032
v 0.16745779 0.128493996 0.014
v 0.16745779 0.128493996 0.032
v 0.167521515 -0.131971188 0.014
v 0.167521515 -0.131971188 0.032
v 0.167689857 -0.128100004 0.014
v 0.167689857 -0.128100004 0.032
v 0.167689857 0.128100004 0.014
v 0.167689857 0.128100004 0.032
v 0.167521515 0.131971188 0.014
v 0.167521515 0.131971188 0.032
v 0.167814274 -0.131575546 0.014
v 0.167814274 -0.131575546 0.032
v 0.167915039 -0.127702007 0.014
v 0.167915039 -0.127702007 0.032
v 0.167915039 0.127702007 0.014
v 0.167915039 0.127702007 0.032
v 0.167814274 0.131575546 0.014
v 0.167814274 0.131575546 0.032
v 0.16810009 -0.13117486 0.014
v 0.16810009 -0.13117486 0.032
v 0.168133221 -0.127300158 0.014
v 0.168133221 -0.127300158 0.032
v 0.168133221 0.127300158 0.014
v 0.168133221 0.127300158 0.032
v 0.16810009 0.13117486 0.014
v 0.16810009 0.13117486 0.032
v 0.168378868 -0.130769243 0.014
v 0.168378868 -0.130769243 0.032
v 0.168344364 -0.12689455 0.014
v 0.168344364 -0.12689455 0.032
v 0.168344364 0.12689455 0.014
v 0.168344364 0.12689455 0.032
v 0.168378868 0.130769243 0.014
v 0.168378868 0.130769243 0.032
v 0.168650513 -0.13035882 0.014
v 0.168650513 -0.13035882 0.032
v 0.168548412 -0.126485329 0.014
v 0.168548412 -0.126485329 0.032
v 0.16874527 -0.126072598 0.014
v 0.16874527 -0.126072598 0.032
v 0.16874527 0.126072598 0.014
v 0.16874527 0.126072598 0.032
v 0.168548412 0.126485329 0.014
v 0.168548412 0.126485329 0.032
v 0.168650513 0.13035882 0.014
v 0.168650513 0.13035882 0.032
v 0.168914948 -0.129943724 0.014
v 0.168914948 -0.129943724 0.032
v 0.168934898 -0.1256565 0.014
v 0.168934898 -0.1256565 0.032
v 0.168934898 0.1256565 0.014
v 0.168934898 0.1256565 0.032
v 0.168914948 0.129943724 0.014
v 0.168914948 0.129943724 0.032
v 0.169172115 -0.129524078 0.014
v 0.169172115 -0.129524078 0.032
v 0.169117222 -0.12523716 0.014
v 0.169117222 -0.12523716 0.032
v 0.169117222 0.12523716 0.014
v 0.169117222 0.12523716 0.032
v 0.169172115 0.129524078 0.014
v 0.169172115 0.129524078 0.032
v 0.169421921 -0.129099998 0.014
v 0.169421921 -0.129099998 0.032
v 0.169292221 -0.124814692 0.014
v 0.169292221 -0.124814692 0.032
v 0.169459801 -0.124389238 0.014
v 0.169459801 -0.124389238 0.032
v 0.169459801 0.124389238 0.014
v 0.169459801 0.124389238 0.032
v 0.169292221 0.124814692 0.014
v 0.169292221 0.124814692 0.032
v 0.169421921 0.129099998 0.014
v 0.169421921 0.129099998 0.032
v 0.169664268 -0.128671627 0.014
v 0.169664268 -0.128671627 0.032
v 0.169619942 -0.123960924 0.014
v 0.169619942 -0.123960924 0.032
v 0.169619942 0.123960924 0.014
v 0.169619942 0.123960924 0.032
v 0.169664268 0.128671627 0.014
v 0.169664268 0.128671627 0.032
v 0.16989912 -0.128239098 0.014
v 0.16989912 -0.128239098 0.032
v 0.169772587 -0.123529882 0.014
v 0.169772587 -0.123529882 0.032
v 0.169917679 -0.123096247 0.014
v 0.169917679 -0.123096247 0.032
v 0.169917679 0.123096247 0.014
v 0.169917679 0.123096247 0.032
v 0.169772587 0.123529882 0.014
v 0.169772587 0.123529882 0.032
v 0.16989912 0.128239098 0.014
v 0.16989912 0.128239098 0.032
v 0.170126381 -0.127802534 0.014
v 0.170126381 -0.127802534 0.032
v 0.17005518 -0.122660141 0.014
v 0.17005518 -0.122660141 0.032
v 0.170185051 -0.122221699 0.014
v 0.170185051 -0.122221699 0.032
v 0.170185051 0.122221699 0.014
v 0.170185051 0.122221699 0.032
v 0.17005518 0.122660141 0.014
v 0.17005518 0.122660141 0.032
v 0.170126381 0.127802534 0.014
v 0.170126381 0.127802534 0.032
v 0.170345993 -0.12736207 0.014
v 0.170345993 -0.12736207 0.032
v 0.170307255 -0.121781063 0.014
v 0.170307255 -0.121781063 0.032
v 0.170421753 -0.121338358 0.014
v 0.170421753 -0.121338358 0.032
v 0.170421753 0.121338358 0.014
v 0.170421753 0.121338358 0.032
v 0.170307255 0.121781063 0.014
v 0.170307255 0.121781063 0.032
v 0.170345993 0.12736207 0.014
v 0.170345993 0.12736207 0.032
v 0.17055788 -0.126917839 0.014
v 0.17055788 -0.126917839 0.032
v 0.170528488 -0.120893717 0.014
v 0.170528488 -0.120893717 0.032
v 0.17062746 -0.120447283 0.014
v 0.17062746 -0.120447283 0.032
v 0.170718632 -0.119999199 0.014
v 0.170718632 -0.119999199 0.032
v 0.170718632 0.119999199 0.014
v 0.170718632 0.119999199 0.032
v 0.17062746 0.120447283 0.014
v 0.17062746 0.120447283 0.032
v 0.170528488 0.120893717 0.014
v 0.170528488 0.120893717 0.032
v 0.17055788 0.126917839 0.014
v 0.17055788 0.126917839 0.032
v 0.170761986 -0.126469975 0.014
v 0.170761986 -0.126469975 0.032
v 0.170958233 -0.12601862 0.014
v 0.170958233 -0.12601862 0.032
v 0.170801964 -0.11954958 0.014
v 0.170801964 -0.11954958 0.032
v 0.170877438 -0.119098587 0.014
v 0.170877438 -0.119098587 0.032
v 0.170945015 -0.118646336 0.014
v 0.170945015 -0.118646336 0.032
v 0.170945015 0.118646336 0.014
v 0.170945015 0.118646336 0.032
v 0.170877438 0.119098587 0.014
v 0.170877438 0.119098587 0.032
v 0.170801964 0.11954958 0.014
v 0.170801964 0.11954958 0.032
v 0.170958233 0.12601862 0.014
v 0.170958233 0.12601862 0.032
v 0.170761986 0.126469975 0.014
v 0.170761986 0.126469975 0.032
v 0.171146584 -0.125563908 0.014
v 0.171146584 -0.125563908 0.032
v 0.171004715 -0.118192978 0.014
v 0.171004715 -0.118192978 0.032
v 0.17105648 -0.117738647 0.014
v 0.17105648 -0.117738647 0.032
v 0.171100292 -0.117283478 0.014
v 0.171100292 -0.117283478 0.032
v 0.171136169 -0.116827621 0.014
v 0.171136169 -0.116827621 0.032
v 0.171164093 -0.116371202 0.014
v 0.171164093 -0.116371202 0.032
v 0.171184044 -0.115914364 0.014
v 0.171184044 -0.115914364 0.032
v 0.171196003 -0.115457249 0.014
v 0.171196003 -0.115457249 0.032
v 0.171200008 -0.115 0.014
v 0.171200008 -0.115 0.032
v 0.171200008 0.115 0.014
v 0.171200008 0.115 0.032
v 0.171196003 0.115457249 0.014
v 0.171196003 0.115457249 0.032
v 0.171184044 0.115914364 0.014
v 0.171184044 0.115914364 0.032
v 0.171164093 0.116371202 0.014
v 0.171164093 0.116371202 0.032
v 0.171136169 0.116827621 0.014
v 0.171136169 0.116827621 0.032
v 0.171100292 0.117283478 0.014
v 0.171100292 0.117283478 0.032
v 0.17105648 0.117738647 0.014
v 0.17105648 0.117738647 0.032
v 0.171004715 0.118192978 0.014
v 0.171004715 0.118192978 0.032
v 0.171146584 0.125563908 0.014
v 0.171146584 0.125563908 0.032
v 0.171326962 -0.125105972 0.014
v 0.171326962 -0.125105972 0.032
v 0.171499329 -0.124644966 0.014
v 0.171499329 -0.124644966 0.032
v 0.171499329 0.124644966 0.014
v 0.171499329 0.124644966 0.032
v 0.171326962 0.125105972 0.014
v 0.171326962 0.125105972 0.032
v 0.171663628 -0.124181023 0.014
v 0.171663628 -0.124181023 0.032
v 0.171663628 0.124181023 0.014
v 0.171663628 0.124181023 0.032
v 0.171819801 -0.123714275 0.014
v 0.171819801 -0.123714275 0.032
v 0.171967793 -0.123244886 0.014
v 0.171967793 -0.123244886 0.032
v 0.171967793 0.123244886 0.014
v 0.171967793 0.123244886 0.032
v 0.171819801 0.123714275 0.014
v 0.171819801 0.123714275 0.032
v 0.172107582 -0.12277297 0.014
v 0.172107582 -0.12277297 0.032
v 0.172239113 -0.122298698 0.014
v 0.172239113 -0.122298698 0.032
v 0.172239113 0.122298698 0.014
v 0.172239113 0.122298698 0.032
v 0.172107582 0.12277297 0.014
v 0.172107582 0.12277297 0.032
v 0.172362347 -0.121822195 0.014
v 0.172362347 -0.121822195 0.032
v 0.172477245 -0.121343622 0.014
v 0.172477245 -0.121343622 0.032
v 0.172477245 0.121343622 0.014
v 0.172477245 0.121343622 0.032
v 0.172362347 0.121822195 0.014
v 0.172362347 0.121822195 0.032
v 0.172583771 -0.120863113 0.014
v 0.172583771 -0.120863113 0.032
v 0.172681885 -0.120380812 0.014
v 0.172681885 -0.120380812 0.032
v 0.172681885 0.120380812 0.014
v 0.172681885 0.120380812 0.032
v 0.172583771 0.120863113 0.014
v 0.172583771 0.120863113 0.032
v 0.172771587 -0.119896879 0.014
v 0.172771587 -0.119896879 0.032
v 0.172852802 -0.119411449 0.014
v 0.172852802 -0.119411449 0.032
v 0.172925568 -0.118924685 0.014
v 0.172925568 -0.118924685 0.032
v 0.172989807 -0.118436718 0.014
v 0.172989807 -0.118436718 0.032
v 0.172989807 0.118436718 0.014
v 0.172989807 0.118436718 0.032
v 0.172925568 0.118924685 0.014
v 0.172925568 0.118924685 0.032
v 0.172852802 0.119411449 0.014
v 0.172852802 0.119411449 0.032
v 0.172771587 0.119896879 0.014
v 0.172771587 0.119896879 0.032
v 0.173045521 -0.117947702 0.014
v 0.173045521 -0.117947702 0.032
v 0.17309269 -0.11745779 0.014
v 0.17309269 -0.11745779 0.032
v 0.173131313 -0.116967134 0.014
v 0.173131313 -0.116967134 0.032
v 0.173161354 -0.116475878 0.014
v 0.173161354 -0.116475878 0.032
v 0.173182831 -0.115984163 0.014
v 0.173182831 -0.115984163 0.032
v 0.173195705 -0.115492153 0.014
v 0.173195705 -0.115492153 0.032
v 0.173199997 -0.115 0.014
v 0.173199997 -0.115 0.032
v 0.173199997 0.115 0.014
v 0.173199997 0.115 0.032
v 0.173195705 0.115492153 0.014
v 0.173195705 0.115492153 0.032
v 0.173182831 0.115984163 0.014
v 0.173182831 0.115984163 0.032
v 0.173161354 0.116475878 0.014
v 0.173161354 0.116475878 0.032
v 0.173131313 0.116967134 0.014
v 0.173131313 0.116967134 0.032
v 0.17309269 0.11745779 0.014
v 0.17309269 0.11745779 0.032
v 0.173045521 0.117947702 0.014
v 0.173045521 0.117947702 0.032
f 1 2 4
f 4 2 3
f 6 7 5
f 5 7 8
f 10 11 9
f 9 11 12
f 13 14 16
f 16 14 15
f 17 18 20
f 20 18 19
f 21 22 24
f 24 22 23
f 25 26 28
f 28 26 27
f 29 30 32
f 32 30 31
f 34 35 33
f 33 35 36
f 38 39 37
f 37 39 40
f 41 42 44
f 44 42 43
f 45 46 48
f 48 46 47
f 49 50 52
f 52 50 51
f 54 55 53
f 53 55 56
f 57 58 60
f 60 58 59
f 62 63 61
f 61 63 64
f 65 66 68
f 68 66 67
f 69 70 72
f 72 70 71
f 74 75 73
f 74 73 82
f 83 73 75
f 82 73 81
f 83 81 73
f 76 75 74
f 74 84 76
f 82 84 74
f 76 83 75
f 84 83 76
f 78 79 77
f 78 77 86
f 77 79 87
f 86 77 85
f 87 85 77
f 80 79 78
f 78 88 80
f 86 88 78
f 80 87 79
f 88 87 80
f 82 81 90
f 91 81 83
f 90 81 89
f 91 89 81
f 82 92 84
f 90 92 82
f 83 84 91
f 91 84 92
f 85 94 86
f 87 93 85
f 93 94 85
f 94 88 86
f 88 95 87
f 95 93 87
f 94 96 88
f 96 95 88
f 90 89 98
f 99 89 91
f 98 89 97
f 99 97 89
f 90 100 92
f 98 100 90
f 91 92 99
f 99 92 100
f 93 102 94
f 95 101 93
f 101 102 93
f 102 96 94
f 96 103 95
f 103 101 95
f 102 104 96
f 104 103 96
f 98 97 106
f 107 97 99
f 106 97 105
f 107 105 97
f 98 108 100
f 106 108 98
f 99 100 107
f 107 100 108
f 101 110 102
f 103 109 101
f 109 110 101
f 110 104 102
f 104 111 103
f 111 109 103
f 110 112 104
f 112 111 104
f 106 105 114
f 115 105 107
f 114 105 113
f 115 113 105
f 106 116 108
f 114 116 106
f 107 108 115
f 115 108 116
f 109 118 110
f 111 117 109
f 117 118 109
f 118 112 110
f 112 119 111
f 119 117 111
f 118 120 112
f 120 119 112
f 114 113 126
f 121 113 115
f 121 125 113
f 126 113 125
f 114 122 116
f 126 122 114
f 115 116 121
f 121 116 122
f 117 124 118
f 119 123 117
f 123 124 117
f 124 120 118
f 120 127 119
f 127 123 119
f 124 128 120
f 128 127 120
f 121 122 131
f 131 125 121
f 126 132 122
f 131 122 132
f 123 134 124
f 127 133 123
f 133 134 123
f 134 128 124
f 126 125 130
f 130 125 129
f 131 129 125
f 130 132 126
f 128 135 127
f 135 133 127
f 134 136 128
f 136 135 128
f 130 129 138
f 139 129 131
f 138 129 137
f 139 137 129
f 130 140 132
f 138 140 130
f 131 132 139
f 139 132 140
f 133 142 134
f 135 141 133
f 141 142 133
f 142 136 134
f 136 143 135
f 143 141 135
f 142 144 136
f 144 143 136
f 138 137 146
f 147 137 139
f 146 137 145
f 147 145 137
f 138 148 140
f 146 148 138
f 139 140 147
f 147 140 148
f 141 150 142
f 143 149 141
f 149 150 141
f 150 144 142
f 144 151 143
f 151 149 143
f 150 152 144
f 152 151 144
f 146 145 158
f 153 145 147
f 153 157 145
f 158 145 157
f 146 154 148
f 158 154 146
f 147 148 153
f 153 148 154
f 149 156 150
f 151 155 149
f 155 156 149
f 156 152 150
f 152 159 151
f 159 155 151
f 156 160 152
f 160 159 152
f 153 154 161
f 161 157 153
f 158 162 154
f 161 154 162
f 155 164 156
f 159 163 155
f 163 164 155
f 164 160 156
f 158 157 166
f 161 165 157
f 166 157 165
f 166 162 158
f 160 167 159
f 167 163 159
f 164 168 160
f 168 167 160
f 161 162 171
f 171 165 161
f 166 172 162
f 171 162 172
f 163 174 164
f 167 173 163
f 173 174 163
f 174 168 164
f 166 165 170
f 170 165 169
f 171 169 165
f 170 172 166
f 168 175 167
f 175 173 167
f 174 176 168
f 176 175 168
f 170 169 182
f 177 169 171
f 177 181 169
f 182 169 181
f 170 178 172
f 182 178 170
f 171 172 177
f 177 172 178
f 173 180 174
f 175 179 173
f 179 180 173
f 180 176 174
f 176 183 175
f 183 179 175
f 180 184 176
f 184 183 176
f 177 178 185
f 185 181 177
f 182 186 178
f 185 178 186
f 179 188 180
f 183 187 179
f 187 188 179
f 188 184 180
f 182 181 190
f 185 189 181
f 190 181 189
f 190 186 182
f 184 191 183
f 191 187 183
f 188 192 184
f 192 191 184
f 185 186 193
f 193 189 185
f 190 194 186
f 193 186 194
f 187 196 188
f 191 195 187
f 195 196 187
f 196 192 188
f 190 189 198
f 193 197 189
f 198 189 197
f 198 194 190
f 192 199 191
f 199 195 191
f 196 200 192
f 200 199 192
f 193 194 201
f 201 197 193
f 198 202 194
f 201 194 202
f 195 204 196
f 199 203 195
f 203 204 195
f 204 200 196
f 198 197 206
f 201 205 197
f 206 197 205
f 206 202 198
f 200 211 199
f 211 203 199
f 204 212 200
f 212 211 200
f 201 202 207
f 207 205 201
f 206 208 202
f 207 202 208
f 203 210 204
f 209 210 203
f 211 209 203
f 210 212 204
f 206 205 214
f 207 213 205
f 214 205 213
f 214 208 206
f 207 208 217
f 217 213 207
f 214 218 208
f 217 208 218
f 209 220 210
f 215 209 211
f 215 219 209
f 219 220 209
f 210 216 212
f 220 216 210
f 212 215 211
f 216 215 212
f 214 213 222
f 217 221 213
f 222 213 221
f 222 218 214
f 216 223 215
f 223 219 215
f 220 224 216
f 224 223 216
f 217 218 225
f 225 221 217
f 222 226 218
f 225 218 226
f 219 228 220
f 223 227 219
f 227 228 219
f 228 224 220
f 222 221 230
f 225 229 221
f 230 221 229
f 230 226 222
f 224 235 223
f 235 227 223
f 228 236 224
f 236 235 224
f 225 226 231
f 231 229 225
f 230 232 226
f 231 226 232
f 227 234 228
f 233 234 227
f 235 233 227
f 234 236 228
f 230 229 238
f 231 237 229
f 238 229 237
f 238 232 230
f 231 232 239
f 239 237 231
f 238 240 232
f 239 232 240
f 233 242 234
f 243 233 235
f 241 242 233
f 243 241 233
f 234 244 236
f 242 244 234
f 236 243 235
f 244 243 236
f 238 237 246
f 239 245 237
f 246 237 245
f 246 240 238
f 239 240 249
f 249 245 239
f 246 250 240
f 249 240 250
f 241 252 242
f 247 241 243
f 247 251 241
f 251 252 241
f 242 248 244
f 252 248 242
f 244 247 243
f 248 247 244
f 246 245 254
f 249 253 245
f 254 245 253
f 254 250 246
f 248 259 247
f 259 251 247
f 252 260 248
f 260 259 248
f 249 250 255
f 255 253 249
f 254 256 250
f 255 250 256
f 251 258 252
f 257 258 251
f 259 257 251
f 258 260 252
f 254 253 262
f 255 261 253
f 262 253 261
f 262 256 254
f 255 256 263
f 263 261 255
f 262 264 256
f 263 256 264
f 257 266 258
f 267 257 259
f 265 266 257
f 267 265 257
f 258 268 260
f 266 268 258
f 260 267 259
f 268 267 260
f 262 261 270
f 263 269 261
f 270 261 269
f 270 264 262
f 263 264 271
f 271 269 263
f 270 272 264
f 271 264 272
f 265 274 266
f 275 265 267
f 273 274 265
f 275 273 265
f 266 276 268
f 274 276 266
f 268 275 267
f 276 275 268
f 270 269 278
f 271 277 269
f 278 269 277
f 278 272 270
f 271 272 279
f 279 277 271
f 278 280 272
f 279 272 280
f 273 282 274
f 283 273 275
f 281 282 273
f 283 281 273
f 274 284 276
f 282 284 274
f 276 283 275
f 284 283 276
f 278 277 286
f 279 285 277
f 286 277 285
f 286 280 278
f 279 280 287
f 287 285 279
f 286 288 280
f 287 280 288
f 281 290 282
f 291 281 283
f 289 290 281
f 291 289 281
f 282 292 284
f 290 292 282
f 284 291 283
f 292 291 284
f 286 285 294
f 287 293 285
f 294 285 293
f 294 288 286
f 287 288 295
f 295 293 287
f 294 296 288
f 295 288 296
f 289 298 290
f 299 289 291
f 297 298 289
f 299 297 289
f 290 300 292
f 298 300 290
f 292 299 291
f 300 299 292
f 294 293 302
f 295 301 293
f 302 293 301
f 302 296 294
f 295 296 303
f 303 301 295
f 302 304 296
f 303 296 304
f 297 306 298
f 307 297 299
f 305 306 297
f 307 305 297
f 298 308 300
f 306 308 298
f 300 307 299
f 308 307 300
f 302 301 314
f 303 313 301
f 314 301 313
f 314 304 302
f 303 304 309
f 309 313 303
f 309 304 310
f 314 310 304
f 305 312 306
f 315 305 307
f 311 312 305
f 315 311 305
f 306 316 308
f 312 316 306
f 308 315 307
f 316 315 308
f 309 310 319
f 309 317 313
f 319 317 309
f 318 310 314
f 318 320 310
f 319 310 320
f 311 322 312
f 323 311 315
f 321 322 311
f 323 321 311
f 312 324 316
f 322 324 312
f 314 313 318
f 318 313 317
f 316 323 315
f 324 323 316
f 318 317 330
f 319 329 317
f 330 317 329
f 330 320 318
f 319 320 325
f 325 329 319
f 325 320 326
f 330 326 320
f 321 328 322
f 331 321 323
f 327 328 321
f 331 327 321
f 322 332 324
f 328 332 322
f 324 331 323
f 332 331 324
f 325 326 335
f 325 333 329
f 335 333 325
f 334 326 330
f 334 336 326
f 335 326 336
f 327 338 328
f 339 327 331
f 337 338 327
f 339 337 327
f 328 340 332
f 338 340 328
f 330 329 334
f 334 329 333
f 332 339 331
f 340 339 332
f 334 333 346
f 335 345 333
f 346 333 345
f 346 336 334
f 335 336 341
f 341 345 335
f 341 336 342
f 346 342 336
f 337 344 338
f 347 337 339
f 343 344 337
f 347 343 337
f 338 348 340
f 344 348 338
f 340 347 339
f 348 347 340
f 341 342 349
f 341 353 345
f 349 353 341
f 354 342 346
f 349 342 350
f 354 350 342
f 343 352 344
f 359 343 347
f 351 352 343
f 359 351 343
f 344 360 348
f 352 360 344
f 346 345 354
f 354 345 353
f 348 359 347
f 360 359 348
f 349 350 355
f 349 361 353
f 355 361 349
f 362 350 354
f 355 350 356
f 362 356 350
f 351 358 352
f 357 358 351
f 363 357 351
f 363 351 359
f 358 364 352
f 352 364 360
f 354 353 362
f 362 353 361
f 355 356 365
f 355 369 361
f 365 369 355
f 370 356 362
f 365 356 366
f 370 366 356
f 357 368 358
f 375 357 363
f 367 368 357
f 375 367 357
f 358 376 364
f 368 376 358
f 360 363 359
f 364 363 360
f 362 361 370
f 370 361 369
f 364 375 363
f 376 375 364
f 365 366 371
f 365 377 369
f 371 377 365
f 378 366 370
f 371 366 372
f 378 372 366
f 367 374 368
f 373 374 367
f 379 373 367
f 379 367 375
f 374 380 368
f 368 380 376
f 370 369 378
f 378 369 377
f 371 372 381
f 371 385 377
f 381 385 371
f 386 372 378
f 381 372 382
f 386 382 372
f 373 384 374
f 391 373 379
f 383 384 373
f 391 383 373
f 374 392 380
f 384 392 374
f 376 379 375
f 380 379 376
f 378 377 386
f 386 377 385
f 380 391 379
f 392 391 380
f 381 382 387
f 381 393 385
f 387 393 381
f 394 382 386
f 387 382 388
f 394 388 382
f 383 390 384
f 389 390 383
f 399 389 383
f 399 383 391
f 390 400 384
f 384 400 392
f 386 385 394
f 394 385 393
f 387 388 395
f 387 401 393
f 395 401 387
f 402 388 394
f 395 388 396
f 402 396 388
f 389 398 390
f 397 398 389
f 403 397 389
f 403 389 399
f 398 404 390
f 390 404 400
f 392 399 391
f 400 399 392
f 394 393 402
f 402 393 401
f 395 396 405
f 395 409 401
f 405 409 395
f 410 396 402
f 405 396 406
f 410 406 396
f 397 408 398
f 415 397 403
f 407 408 397
f 415 407 397
f 398 416 404
f 408 416 398
f 400 403 399
f 404 403 400
f 402 401 410
f 410 401 409
f 404 415 403
f 416 415 404
f 405 406 411
f 405 417 409
f 411 417 405
f 418 406 410
f 411 406 412
f 418 412 406
f 407 414 408
f 413 414 407
f 423 413 407
f 423 407 415
f 414 424 408
f 408 424 416
f 410 409 418
f 418 409 417
f 411 412 419
f 411 429 417
f 419 429 411
f 430 412 418
f 419 412 420
f 430 420 412
f 413 422 414
f 421 422 413
f 431 421 413
f 431 413 423
f 422 432 414
f 414 432 424
f 416 423 415
f 424 423 416
f 418 417 430
f 430 417 429
f 419 420 425
f 425 433 419
f 419 433 429
f 425 420 426
f 434 426 420
f 434 420 430
f 421 428 422
f 427 428 421
f 439 427 421
f 439 421 431
f 428 440 422
f 422 440 432
f 424 431 423
f 432 431 424
f 425 426 435
f 425 441 433
f 435 441 425
f 442 426 434
f 435 426 436
f 442 436 426
f 427 438 428
f 437 438 427
f 447 437 427
f 447 427 439
f 438 448 428
f 428 448 440
f 430 429 434
f 434 429 433
f 432 439 431
f 440 439 432
f 434 433 442
f 442 433 441
f 435 436 443
f 435 453 441
f 443 453 435
f 454 436 442
f 443 436 444
f 454 444 436
f 437 446 438
f 445 446 437
f 459 445 437
f 459 437 447
f 446 460 438
f 438 460 448
f 440 447 439
f 448 447 440
f 442 441 454
f 454 441 453
f 443 444 449
f 449 461 443
f 443 461 453
f 449 444 450
f 462 450 444
f 462 444 454
f 445 452 446
f 451 452 445
f 463 451 445
f 463 445 459
f 452 464 446
f 446 464 460
f 448 459 447
f 460 459 448
f 449 450 455
f 455 461 449
f 455 450 456
f 462 456 450
f 451 458 452
f 457 458 451
f 463 457 451
f 458 464 452
f 454 453 462
f 462 453 461
f 455 456 467
f 455 465 461
f 467 465 455
f 466 456 462
f 466 468 456
f 467 456 468
f 457 470 458
f 471 457 463
f 469 470 457
f 471 469 457
f 458 472 464
f 470 472 458
f 460 463 459
f 464 463 460
f 462 461 466
f 466 461 465
f 464 471 463
f 472 471 464
f 466 465 474
f 467 473 465
f 474 465 473
f 474 468 466
f 467 468 475
f 475 473 467
f 474 476 468
f 475 468 476
f 469 478 470
f 479 469 471
f 477 478 469
f 479 477 469
f 470 480 472
f 478 480 470
f 472 479 471
f 480 479 472
f 474 473 486
f 475 485 473
f 486 473 485
f 486 476 474
f 475 476 481
f 481 485 475
f 481 476 482
f 486 482 476
f 477 484 478
f 491 477 479
f 483 484 477
f 491 483 477
f 478 492 480
f 484 492 478
f 480 491 479
f 492 491 480
f 481 482 487
f 481 493 485
f 487 493 481
f 494 482 486
f 487 482 488
f 494 488 482
f 483 490 484
f 489 490 483
f 499 489 483
f 499 483 491
f 490 500 484
f 484 500 492
f 486 485 494
f 494 485 493
f 487 488 495
f 487 501 493
f 495 501 487
f 502 488 494
f 495 488 496
f 502 496 488
f 489 498 490
f 497 498 489
f 507 497 489
f 507 489 499
f 498 508 490
f 490 508 500
f 492 499 491
f 500 499 492
f 494 493 502
f 502 493 501
f 495 496 503
f 495 509 501
f 503 509 495
f 510 496 502
f 503 496 504
f 510 504 496
f 497 506 498
f 505 506 497
f 515 505 497
f 515 497 507
f 506 516 498
f 498 516 508
f 500 507 499
f 508 507 500
f 502 501 510
f 510 501 509
f 503 504 511
f 503 517 509
f 511 517 503
f 518 504 510
f 511 504 512
f 518 512 504
f 505 514 506
f 513 514 505
f 523 513 505
f 523 505 515
f 514 524 506
f 506 524 516
f 508 515 507
f 516 515 508
f 510 509 518
f 518 509 517
f 511 512 519
f 511 525 517
f 519 525 511
f 526 512 518
f 519 512 520
f 526 520 512
f 513 522 514
f 521 522 513
f 531 521 513
f 531 513 523
f 522 532 514
f 514 532 524
f 516 523 515
f 524 523 516
f 518 517 526
f 526 517 525
f 519 520 527
f 519 533 525
f 527 533 519
f 534 520 526
f 527 520 528
f 534 528 520
f 521 530 522
f 529 530 521
f 539 529 521
f 539 521 531
f 530 540 522
f 522 540 532
f 524 531 523
f 532 531 524
f 526 525 534
f 534 525 533
f 527 528 535
f 527 541 533
f 535 541 527
f 542 528 534
f 535 528 536
f 542 536 528
f 529 538 530
f 537 538 529
f 547 537 529
f 547 529 539
f 538 548 530
f 530 548 540
f 532 539 531
f 540 539 532
f 534 533 542
f 542 533 541
f 535 536 543
f 535 549 541
f 543 549 535
f 550 536 542
f 543 536 544
f 550 544 536
f 537 546 538
f 545 546 537
f 555 545 537
f 555 537 547
f 546 556 538
f 538 556 548
f 540 547 539
f 548 547 540
f 542 541 550
f 550 541 549
f 543 544 551
f 543 557 549
f 551 557 543
f 558 544 550
f 551 544 552
f 558 552 544
f 545 554 546
f 553 554 545
f 567 553 545
f 567 545 555
f 554 568 546
f 546 568 556
f 548 555 547
f 556 555 548
f 550 549 558
f 558 549 557
f 551 552 559
f 551 569 557
f 559 569 551
f 570 552 558
f 559 552 560
f 570 560 552
f 553 566 554
f 565 566 553
f 575 565 553
f 575 553 567
f 566 576 554
f 554 576 568
f 556 567 555
f 568 567 556
f 558 557 570
f 570 557 569
f 559 560 561
f 561 577 559
f 559 577 569
f 561 560 562
f 578 562 560
f 578 560 570
f 561 562 571
f 571 585 561
f 561 585 577
f 571 562 572
f 586 572 562
f 586 562 578
f 563 564 565
f 563 574 564
f 583 563 565
f 573 574 563
f 591 573 563
f 591 563 583
f 565 564 566
f 564 584 566
f 574 592 564
f 564 592 584
f 583 565 575
f 566 584 576
f 568 575 567
f 576 575 568
f 570 569 578
f 578 569 577
f 571 572 579
f 579 593 571
f 571 593 585
f 579 572 580
f 594 580 572
f 594 572 586
f 573 582 574
f 581 582 573
f 603 581 573
f 603 573 591
f 582 604 574
f 574 604 592
f 576 583 575
f 584 583 576
f 578 577 586
f 586 577 585
f 579 580 587
f 587 605 579
f 579 605 593
f 587 580 588
f 606 588 580
f 606 580 594
f 581 590 582
f 589 590 581
f 611 589 581
f 611 581 603
f 590 612 582
f 582 612 604
f 584 591 583
f 592 591 584
f 586 585 594
f 594 585 593
f 587 588 595
f 595 613 587
f 587 613 605
f 595 588 596
f 614 596 588
f 614 588 606
f 589 602 590
f 601 602 589
f 627 601 589
f 627 589 611
f 602 628 590
f 590 628 612
f 592 603 591
f 604 603 592
f 594 593 606
f 606 593 605
f 595 596 597
f 597 615 595
f 595 615 613
f 597 596 598
f 616 598 596
f 616 596 614
f 597 598 607
f 607 629 597
f 597 629 615
f 607 598 608
f 630 608 598
f 630 598 616
f 599 600 601
f 599 610 600
f 625 599 601
f 609 610 599
f 639 609 599
f 639 599 625
f 601 600 602
f 600 626 602
f 610 640 600
f 600 640 626
f 625 601 627
f 602 626 628
f 604 611 603
f 612 611 604
f 606 605 614
f 614 605 613
f 607 608 617
f 617 653 607
f 607 641 629
f 607 653 641
f 617 608 618
f 654 618 608
f 642 608 630
f 654 608 642
f 609 624 610
f 623 624 609
f 667 623 609
f 651 609 639
f 667 609 651
f 624 668 610
f 610 652 640
f 610 668 652
f 612 627 611
f 628 627 612
f 614 613 616
f 616 613 615
f 616 615 630
f 630 615 629
f 617 618 619
f 619 655 617
f 617 655 653
f 619 618 620
f 656 620 618
f 656 618 654
f 619 620 631
f 631 669 619
f 619 669 655
f 631 620 632
f 670 632 620
f 670 620 656
f 621 622 623
f 621 638 622
f 665 621 623
f 637 638 621
f 683 637 621
f 683 621 665
f 623 622 624
f 622 666 624
f 638 684 622
f 622 684 666
f 665 623 667
f 624 666 668
f 626 625 628
f 626 639 625
f 628 625 627
f 640 639 626
f 630 629 642
f 642 629 641
f 631 632 633
f 633 685 631
f 631 685 669
f 633 632 634
f 686 634 632
f 686 632 670
f 633 634 643
f 643 687 633
f 633 687 685
f 643 634 644
f 688 644 634
f 688 634 686
f 635 636 637
f 635 650 636
f 707 635 637
f 649 650 635
f 705 649 635
f 705 635 707
f 637 636 638
f 636 708 638
f 650 706 636
f 636 706 708
f 707 637 683
f 638 708 684
f 640 651 639
f 652 651 640
f 642 641 654
f 654 641 653
f 643 644 645
f 645 709 643
f 643 709 687
f 645 644 646
f 710 646 644
f 710 644 688
f 645 646 657
f 657 711 645
f 645 711 709
f 657 646 658
f 712 658 646
f 712 646 710
f 647 648 649
f 647 664 648
f 743 647 649
f 663 664 647
f 741 663 647
f 741 647 743
f 649 648 650
f 648 744 650
f 664 742 648
f 648 742 744
f 743 649 705
f 650 744 706
f 652 667 651
f 668 667 652
f 654 653 656
f 656 653 655
f 656 655 670
f 670 655 669
f 657 658 659
f 659 745 657
f 657 745 711
f 659 658 660
f 746 660 658
f 746 658 712
f 659 660 671
f 671 747 659
f 659 747 745
f 671 660 672
f 748 672 660
f 748 660 746
f 661 662 663
f 661 682 662
f 751 661 663
f 681 682 661
f 749 681 661
f 749 661 751
f 663 662 664
f 662 752 664
f 682 750 662
f 662 750 752
f 751 663 741
f 664 752 742
f 666 665 668
f 666 683 665
f 668 665 667
f 684 683 666
f 670 669 686
f 686 669 685
f 671 672 673
f 673 753 671
f 671 753 747
f 673 672 674
f 754 674 672
f 754 672 748
f 673 674 675
f 675 755 673
f 673 755 753
f 675 674 676
f 756 676 674
f 756 674 754
f 675 676 689
f 689 757 675
f 675 757 755
f 689 676 690
f 758 690 676
f 758 676 756
f 677 678 679
f 677 704 678
f 761 677 679
f 703 704 677
f 759 703 677
f 759 677 761
f 679 678 680
f 678 762 680
f 704 760 678
f 678 760 762
f 679 680 681
f 763 679 681
f 761 679 763
f 681 680 682
f 680 764 682
f 680 762 764
f 763 681 749
f 682 764 750
f 684 707 683
f 708 707 684
f 686 685 688
f 688 685 687
f 688 687 710
f 710 687 709
f 689 690 691
f 691 765 689
f 689 765 757
f 691 690 692
f 766 692 690
f 766 690 758
f 691 692 693
f 693 767 691
f 691 767 765
f 693 692 694
f 768 694 692
f 768 692 766
f 693 694 695
f 695 769 693
f 693 769 767
f 695 694 696
f 770 696 694
f 770 694 768
f 695 696 713
f 713 777 695
f 695 777 769
f 713 696 714
f 778 714 696
f 778 696 770
f 697 698 699
f 697 740 698
f 771 697 699
f 739 740 697
f 807 739 697
f 807 697 771
f 699 698 700
f 698 772 700
f 740 808 698
f 698 808 772
f 699 700 701
f 773 699 701
f 771 699 773
f 701 700 702
f 700 774 702
f 700 772 774
f 701 702 703
f 775 701 703
f 773 701 775
f 703 702 704
f 702 776 704
f 702 774 776
f 775 703 759
f 704 776 760
f 706 705 708
f 706 743 705
f 708 705 707
f 744 743 706
f 710 709 712
f 712 709 711
f 712 711 746
f 746 711 745
f 713 714 715
f 715 779 713
f 713 779 777
f 715 714 716
f 780 716 714
f 780 714 778
f 715 716 717
f 717 781 715
f 715 781 779
f 717 716 718
f 782 718 716
f 782 716 780
f 717 718 719
f 719 783 717
f 717 783 781
f 719 718 720
f 784 720 718
f 784 718 782
f 719 720 721
f 721 785 719
f 719 785 783
f 721 720 722
f 786 722 720
f 786 720 784
f 721 722 723
f 723 787 721
f 721 787 785
f 723 722 724
f 788 724 722
f 788 722 786
f 723 724 725
f 725 789 723
f 723 789 787
f 725 724 726
f 790 726 724
f 790 724 788
f 726 727 725
f 793 725 727
f 791 789 725
f 791 725 793
f 728 727 726
f 792 728 726
f 792 726 790
f 727 728 729
f 795 727 729
f 793 727 795
f 729 728 730
f 728 796 730
f 794 728 792
f 794 796 728
f 729 730 731
f 797 729 731
f 795 729 797
f 731 730 732
f 730 798 732
f 730 796 798
f 731 732 733
f 799 731 733
f 797 731 799
f 733 732 734
f 732 800 734
f 732 798 800
f 733 734 735
f 801 733 735
f 799 733 801
f 735 734 736
f 734 802 736
f 734 800 802
f 735 736 737
f 803 735 737
f 801 735 803
f 737 736 738
f 736 804 738
f 736 802 804
f 737 738 739
f 805 737 739
f 803 737 805
f 739 738 740
f 738 806 740
f 738 804 806
f 805 739 807
f 740 806 808
f 742 741 744
f 742 751 741
f 744 741 743
f 752 751 742
f 746 745 748
f 748 745 747
f 748 747 754
f 754 747 753
f 750 749 752
f 750 763 749
f 752 749 751
f 764 763 750
f 754 753 756
f 756 753 755
f 756 755 758
f 758 755 757
f 758 757 766
f 766 757 765
f 760 759 762
f 760 775 759
f 762 759 761
f 776 775 760
f 762 761 764
f 764 761 763
f 766 765 768
f 768 765 767
f 768 767 770
f 770 767 769
f 770 769 778
f 778 769 777
f 772 771 774
f 772 807 771
f 774 771 773
f 808 807 772
f 774 773 776
f 776 773 775
f 778 777 780
f 780 777 779
f 780 779 782
f 782 779 781
f 782 781 784
f 784 781 783
f 784 783 786
f 786 783 785
f 786 785 788
f 788 785 787
f 788 787 790
f 790 787 789
f 790 789 792
f 792 789 791
f 792 791 794
f 794 791 793
f 794 793 796
f 796 793 795
f 796 795 798
f 798 795 797
f 798 797 800
f 800 797 799
f 800 799 802
f 802 799 801
f 802 801 804
f 804 801 803
f 804 803 806
f 806 803 805
f 806 805 808
f 808 805 807
f 810 811 809
f 810 809 818
f 819 809 811
f 818 809 817
f 817 809 819
f 812 811 810
f 810 820 812
f 818 826 810
f 870 820 810
f 810 826 834
f 810 834 842
f 842 850 810
f 810 850 858
f 810 858 870
f 812 819 811
f 820 819 812
f 814 815 813
f 814 813 822
f 813 815 823
f 822 813 821
f 823 821 813
f 816 815 814
f 814 824 816
f 822 824 814
f 816 823 815
f 824 823 816
f 818 817 826
f 819 825 817
f 826 817 825
f 819 820 827
f 819 833 825
f 827 933 819
f 841 833 819
f 819 849 841
f 819 857 849
f 869 857 819
f 819 877 869
f 819 885 877
f 893 885 819
f 819 901 893
f 819 909 901
f 917 909 819
f 819 925 917
f 819 933 925
f 827 820 828
f 870 828 820
f 821 830 822
f 823 829 821
f 829 830 821
f 832 824 822
f 830 1000 822
f 822 840 832
f 822 848 840
f 856 848 822
f 822 864 856
f 822 872 864
f 880 872 822
f 822 888 880
f 822 896 888
f 908 896 822
f 822 916 908
f 822 924 916
f 932 924 822
f 822 940 932
f 822 948 940
f 956 948 822
f 822 964 956
f 822 972 964
f 980 972 822
f 822 988 980
f 822 1000 988
f 824 831 823
f 831 829 823
f 832 831 824
f 826 825 834
f 834 825 833
f 827 828 835
f 835 985 827
f 945 933 827
f 827 953 945
f 827 957 953
f 965 957 827
f 827 977 965
f 827 985 977
f 835 828 836
f 878 836 828
f 878 828 870
f 829 838 830
f 831 837 829
f 837 838 829
f 838 1000 830
f 832 839 831
f 839 837 831
f 840 839 832
f 834 833 842
f 842 833 841
f 835 836 843
f 843 985 835
f 843 836 844
f 844 836 878
f 837 846 838
f 839 845 837
f 845 846 837
f 846 1000 838
f 840 847 839
f 847 845 839
f 848 847 840
f 842 841 850
f 850 841 849
f 843 844 851
f 851 985 843
f 851 844 852
f 878 852 844
f 845 854 846
f 847 853 845
f 853 854 845
f 854 1000 846
f 848 855 847
f 855 853 847
f 856 855 848
f 850 849 858
f 858 849 857
f 851 852 859
f 859 985 851
f 859 852 860
f 878 860 852
f 853 862 854
f 855 861 853
f 861 862 853
f 862 1000 854
f 856 863 855
f 863 861 855
f 864 863 856
f 858 857 870
f 870 857 869
f 859 860 865
f 865 985 859
f 865 860 866
f 866 860 878
f 861 868 862
f 863 867 861
f 867 868 861
f 868 1000 862
f 864 871 863
f 871 867 863
f 872 871 864
f 865 866 873
f 873 985 865
f 873 866 874
f 878 874 866
f 867 876 868
f 871 875 867
f 875 876 867
f 876 1000 868
f 870 869 878
f 878 869 877
f 872 879 871
f 879 875 871
f 880 879 872
f 873 874 881
f 881 985 873
f 878 882 874
f 881 874 882
f 875 884 876
f 879 883 875
f 883 884 875
f 884 1000 876
f 878 877 886
f 886 877 885
f 886 882 878
f 880 887 879
f 887 883 879
f 888 887 880
f 881 882 889
f 889 985 881
f 886 890 882
f 889 882 890
f 883 892 884
f 887 891 883
f 891 892 883
f 892 1000 884
f 886 885 894
f 894 885 893
f 894 890 886
f 888 895 887
f 895 891 887
f 896 895 888
f 889 890 897
f 897 985 889
f 894 898 890
f 897 890 898
f 891 900 892
f 895 899 891
f 899 900 891
f 900 1000 892
f 894 893 902
f 902 893 901
f 902 898 894
f 896 907 895
f 907 899 895
f 908 907 896
f 897 898 903
f 903 985 897
f 902 904 898
f 903 898 904
f 899 906 900
f 905 906 899
f 907 905 899
f 906 1000 900
f 902 901 910
f 910 901 909
f 910 904 902
f 903 904 911
f 911 985 903
f 910 912 904
f 911 904 912
f 905 914 906
f 915 905 907
f 913 914 905
f 915 913 905
f 914 1000 906
f 908 915 907
f 916 915 908
f 910 909 918
f 918 909 917
f 918 912 910
f 911 912 919
f 919 985 911
f 918 920 912
f 919 912 920
f 913 922 914
f 923 913 915
f 921 922 913
f 923 921 913
f 922 1000 914
f 916 923 915
f 924 923 916
f 918 917 926
f 926 917 925
f 926 920 918
f 919 920 927
f 927 985 919
f 926 928 920
f 927 920 928
f 921 930 922
f 931 921 923
f 929 930 921
f 931 929 921
f 930 1000 922
f 924 931 923
f 932 931 924
f 926 925 934
f 934 925 933
f 934 928 926
f 927 928 935
f 935 985 927
f 934 936 928
f 935 928 936
f 929 938 930
f 939 929 931
f 937 938 929
f 939 937 929
f 938 1000 930
f 932 939 931
f 940 939 932
f 934 933 946
f 946 933 945
f 946 936 934
f 935 936 941
f 941 985 935
f 941 936 942
f 946 942 936
f 937 944 938
f 947 937 939
f 943 944 937
f 947 943 937
f 944 1000 938
f 940 947 939
f 948 947 940
f 941 942 949
f 949 985 941
f 954 942 946
f 949 942 950
f 954 950 942
f 943 952 944
f 955 943 947
f 951 952 943
f 955 951 943
f 952 1000 944
f 946 945 954
f 954 945 953
f 948 955 947
f 956 955 948
f 949 950 959
f 959 985 949
f 958 950 954
f 958 960 950
f 959 950 960
f 951 962 952
f 963 951 955
f 961 962 951
f 963 961 951
f 962 1000 952
f 954 953 958
f 958 953 957
f 956 963 955
f 964 963 956
f 958 957 966
f 966 957 965
f 966 960 958
f 959 960 967
f 967 985 959
f 966 968 960
f 967 960 968
f 961 970 962
f 971 961 963
f 969 970 961
f 971 969 961
f 970 1000 962
f 964 971 963
f 972 971 964
f 966 965 978
f 978 965 977
f 978 968 966
f 967 968 973
f 973 985 967
f 973 968 974
f 978 974 968
f 969 976 970
f 979 969 971
f 975 976 969
f 979 975 969
f 976 1000 970
f 972 979 971
f 980 979 972
f 973 974 981
f 981 985 973
f 986 974 978
f 981 974 982
f 986 982 974
f 975 984 976
f 987 975 979
f 983 984 975
f 987 983 975
f 984 1000 976
f 978 977 986
f 986 977 985
f 980 987 979
f 988 987 980
f 981 982 989
f 981 993 985
f 989 993 981
f 994 982 986
f 989 982 990
f 994 990 982
f 983 992 984
f 999 983 987
f 991 992 983
f 999 991 983
f 992 1000 984
f 986 985 994
f 994 985 993
f 988 999 987
f 1000 999 988
f 989 990 995
f 989 1001 993
f 995 1001 989
f 1002 990 994
f 995 990 996
f 1002 996 990
f 991 998 992
f 997 998 991
f 1007 997 991
f 1007 991 999
f 998 1008 992
f 992 1008 1000
f 994 993 1002
f 1002 993 1001
f 995 996 1003
f 1003 1001 995
f 1002 1004 996
f 1003 996 1004
f 997 1006 998
f 1005 1006 997
f 1007 1005 997
f 1006 1008 998
f 1000 1007 999
f 1008 1007 1000
f 1002 1001 1010
f 1003 1009 1001
f 1010 1001 1009
f 1010 1004 1002
f 1003 1004 1011
f 1011 1009 1003
f 1010 1012 1004
f 1011 1004 1012
f 1005 1014 1006
f 1015 1005 1007
f 1013 1014 1005
f 1015 1013 1005
f 1006 1016 1008
f 1014 1016 1006
f 1008 1015 1007
f 1016 1015 1008
f 1010 1009 1018
f 1011 1017 1009
f 1018 1009 1017
f 1018 1012 1010
f 1011 1012 1019
f 1019 1017 1011
f 1018 1020 1012
f 1019 1012 1020
f 1013 1022 1014
f 1023 1013 1015
f 1021 1022 1013
f 1023 1021 1013
f 1014 1024 1016
f 1022 1024 1014
f 1016 1023 1015
f 1024 1023 1016
f 1018 1017 1026
f 1019 1025 1017
f 1026 1017 1025
f 1026 1020 1018
f 1019 1020 1027
f 1027 1025 1019
f 1026 1028 1020
f 1027 1020 1028
f 1021 1030 1022
f 1031 1021 1023
f 1029 1030 1021
f 1031 1029 1021
f 1022 1032 1024
f 1030 1032 1022
f 1024 1031 1023
f 1032 1031 1024
f 1026 1025 1034
f 1027 1033 1025
f 1034 1025 1033
f 1034 1028 1026
f 1027 1028 1035
f 1035 1033 1027
f 1034 1036 1028
f 1035 1028 1036
f 1029 1038 1030
f 1039 1029 1031
f 1037 1038 1029
f 1039 1037 1029
f 1030 1040 1032
f 1038 1040 1030
f 1032 1039 1031
f 1040 1039 1032
f 1034 1033 1046
f 1035 1045 1033
f 1046 1033 1045
f 1046 1036 1034
f 1035 1036 1041
f 1041 1045 1035
f 1041 1036 1042
f 1046 1042 1036
f 1037 1044 1038
f 1047 1037 1039
f 1043 1044 1037
f 1047 1043 1037
f 1038 1048 1040
f 1044 1048 1038
f 1040 1047 1039
f 1048 1047 1040
f 1041 1042 1051
f 1041 1049 1045
f 1051 1049 1041
f 1050 1042 1046
f 1050 1052 1042
f 1051 1042 1052
f 1043 1054 1044
f 1055 1043 1047
f 1053 1054 1043
f 1055 1053 1043
f 1044 1056 1048
f 1054 1056 1044
f 1046 1045 1050
f 1050 1045 1049
f 1048 1055 1047
f 1056 1055 1048
f 1050 1049 1062
f 1051 1061 1049
f 1062 1049 1061
f 1062 1052 1050
f 1051 1052 1057
f 1057 1061 1051
f 1057 1052 1058
f 1062 1058 1052
f 1053 1060 1054
f 1063 1053 1055
f 1059 1060 1053
f 1063 1059 1053
f 1054 1064 1056
f 1060 1064 1054
f 1056 1063 1055
f 1064 1063 1056
f 1057 1058 1065
f 1057 1069 1061
f 1065 1069 1057
f 1070 1058 1062
f 1065 1058 1066
f 1070 1066 1058
f 1059 1068 1060
f 1071 1059 1063
f 1067 1068 1059
f 1071 1067 1059
f 1060 1072 1064
f 1068 1072 1060
f 1062 1061 1070
f 1070 1061 1069
f 1064 1071 1063
f 1072 1071 1064
f 1065 1066 1073
f 1065 1077 1069
f 1073 1077 1065
f 1078 1066 1070
f 1073 1066 1074
f 1078 1074 1066
f 1067 1076 1068
f 1083 1067 1071
f 1075 1076 1067
f 1083 1075 1067
f 1068 1084 1072
f 1076 1084 1068
f 1070 1069 1078
f 1078 1069 1077
f 1072 1083 1071
f 1084 1083 1072
f 1073 1074 1079
f 1073 1085 1077
f 1079 1085 1073
f 1086 1074 1078
f 1079 1074 1080
f 1086 1080 1074
f 1075 1082 1076
f 1081 1082 1075
f 1087 1081 1075
f 1087 1075 1083
f 1082 1088 1076
f 1076 1088 1084
f 1078 1077 1086
f 1086 1077 1085
f 1079 1080 1089
f 1079 1093 1085
f 1089 1093 1079
f 1094 1080 1086
f 1089 1080 1090
f 1094 1090 1080
f 1081 1092 1082
f 1099 1081 1087
f 1091 1092 1081
f 1099 1091 1081
f 1082 1100 1088
f 1092 1100 1082
f 1084 1087 1083
f 1088 1087 1084
f 1086 1085 1094
f 1094 1085 1093
f 1088 1099 1087
f 1100 1099 1088
f 1089 1090 1095
f 1089 1101 1093
f 1095 1101 1089
f 1102 1090 1094
f 1095 1090 1096
f 1102 1096 1090
f 1091 1098 1092
f 1097 1098 1091
f 1107 1097 1091
f 1107 1091 1099
f 1098 1108 1092
f 1092 1108 1100
f 1094 1093 1102
f 1102 1093 1101
f 1095 1096 1103
f 1095 1109 1101
f 1103 1109 1095
f 1110 1096 1102
f 1103 1096 1104
f 1110 1104 1096
f 1097 1106 1098
f 1105 1106 1097
f 1115 1105 1097
f 1115 1097 1107
f 1106 1116 1098
f 1098 1116 1108
f 1100 1107 1099
f 1108 1107 1100
f 1102 1101 1110
f 1110 1101 1109
f 1103 1104 1111
f 1103 1121 1109
f 1111 1121 1103
f 1122 1104 1110
f 1111 1104 1112
f 1122 1112 1104
f 1105 1114 1106
f 1113 1114 1105
f 1123 1113 1105
f 1123 1105 1115
f 1114 1124 1106
f 1106 1124 1116
f 1108 1115 1107
f 1116 1115 1108
f 1110 1109 1122
f 1122 1109 1121
f 1111 1112 1117
f 1117 1125 1111
f 1111 1125 1121
f 1117 1112 1118
f 1126 1118 1112
f 1126 1112 1122
f 1113 1120 1114
f 1119 1120 1113
f 1131 1119 1113
f 1131 1113 1123
f 1120 1132 1114
f 1114 1132 1124
f 1116 1123 1115
f 1124 1123 1116
f 1117 1118 1127
f 1117 1137 1125
f 1127 1137 1117
f 1138 1118 1126
f 1127 1118 1128
f 1138 1128 1118
f 1119 1130 1120
f 1129 1130 1119
f 1139 1129 1119
f 1139 1119 1131
f 1130 1140 1120
f 1120 1140 1132
f 1122 1121 1126
f 1126 1121 1125
f 1124 1131 1123
f 1132 1131 1124
f 1126 1125 1138
f 1138 1125 1137
f 1127 1128 1133
f 1133 1141 1127
f 1127 1141 1137
f 1133 1128 1134
f 1142 1134 1128
f 1142 1128 1138
f 1129 1136 1130
f 1135 1136 1129
f 1147 1135 1129
f 1147 1129 1139
f 1136 1148 1130
f 1130 1148 1140
f 1132 1139 1131
f 1140 1139 1132
f 1133 1134 1143
f 1133 1153 1141
f 1143 1153 1133
f 1154 1134 1142
f 1143 1134 1144
f 1154 1144 1134
f 1135 1146 1136
f 1145 1146 1135
f 1159 1145 1135
f 1159 1135 1147
f 1146 1160 1136
f 1136 1160 1148
f 1138 1137 1142
f 1142 1137 1141
f 1140 1147 1139
f 1148 1147 1140
f 1142 1141 1154
f 1154 1141 1153
f 1143 1144 1149
f 1149 1161 1143
f 1143 1161 1153
f 1149 1144 1150
f 1162 1150 1144
f 1162 1144 1154
f 1145 1152 1146
f 1151 1152 1145
f 1167 1151 1145
f 1167 1145 1159
f 1152 1168 1146
f 1146 1168 1160
f 1148 1159 1147
f 1160 1159 1148
f 1149 1150 1155
f 1155 1169 1149
f 1149 1169 1161
f 1155 1150 1156
f 1170 1156 1150
f 1170 1150 1162
f 1151 1158 1152
f 1157 1158 1151
f 1175 1157 1151
f 1175 1151 1167
f 1158 1176 1152
f 1152 1176 1168
f 1154 1153 1162
f 1162 1153 1161
f 1155 1156 1163
f 1163 1177 1155
f 1155 1177 1169
f 1163 1156 1164
f 1178 1164 1156
f 1178 1156 1170
f 1157 1166 1158
f 1165 1166 1157
f 1183 1165 1157
f 1183 1157 1175
f 1166 1184 1158
f 1158 1184 1176
f 1160 1167 1159
f 1168 1167 1160
f 1162 1161 1170
f 1170 1161 1169
f 1163 1164 1171
f 1171 1189 1163
f 1163 1189 1177
f 1171 1164 1172
f 1190 1172 1164
f 1190 1164 1178
f 1165 1174 1166
f 1173 1174 1165
f 1191 1173 1165
f 1191 1165 1183
f 1174 1192 1166
f 1166 1192 1184
f 1168 1175 1167
f 1176 1175 1168
f 1170 1169 1178
f 1178 1169 1177
f 1171 1172 1179
f 1179 1193 1171
f 1171 1193 1189
f 1179 1172 1180
f 1194 1180 1172
f 1194 1172 1190
f 1173 1182 1174
f 1181 1182 1173
f 1199 1181 1173
f 1199 1173 1191
f 1182 1200 1174
f 1174 1200 1192
f 1176 1183 1175
f 1184 1183 1176
f 1178 1177 1190
f 1190 1177 1189
f 1179 1180 1185
f 1185 1205 1179
f 1179 1205 1193
f 1185 1180 1186
f 1206 1186 1180
f 1206 1180 1194
f 1181 1188 1182
f 1187 1188 1181
f 1211 1187 1181
f 1211 1181 1199
f 1188 1212 1182
f 1182 1212 1200
f 1184 1191 1183
f 1192 1191 1184
f 1185 1186 1195
f 1195 1213 1185
f 1185 1213 1205
f 1195 1186 1196
f 1214 1196 1186
f 1214 1186 1206
f 1187 1198 1188
f 1197 1198 1187
f 1219 1197 1187
f 1219 1187 1211
f 1198 1220 1188
f 1188 1220 1212
f 1190 1189 1194
f 1194 1189 1193
f 1192 1199 1191
f 1200 1199 1192
f 1194 1193 1206
f 1206 1193 1205
f 1195 1196 1201
f 1201 1221 1195
f 1195 1221 1213
f 1201 1196 1202
f 1222 1202 1196
f 1222 1196 1214
f 1197 1204 1198
f 1203 1204 1197
f 1227 1203 1197
f 1227 1197 1219
f 1204 1228 1198
f 1198 1228 1220
f 1200 1211 1199
f 1212 1211 1200
f 1201 1202 1207
f 1207 1233 1201
f 1201 1233 1221
f 1207 1202 1208
f 1234 1208 1202
f 1234 1202 1222
f 1203 1210 1204
f 1209 1210 1203
f 1239 1209 1203
f 1239 1203 1227
f 1210 1240 1204
f 1204 1240 1228
f 1206 1205 1214
f 1214 1205 1213
f 1207 1208 1215
f 1215 1241 1207
f 1207 1241 1233
f 1215 1208 1216
f 1242 1216 1208
f 1242 1208 1234
f 1209 1218 1210
f 1217 1218 1209
f 1247 1217 1209
f 1247 1209 1239
f 1218 1248 1210
f 1210 1248 1240
f 1212 1219 1211
f 1220 1219 1212
f 1214 1213 1222
f 1222 1213 1221
f 1215 1216 1223
f 1223 1249 1215
f 1215 1249 1241
f 1223 1216 1224
f 1250 1224 1216
f 1250 1216 1242
f 1217 1226 1218
f 1225 1226 1217
f 1255 1225 1217
f 1255 1217 1247
f 1226 1256 1218
f 1218 1256 1248
f 1220 1227 1219
f 1228 1227 1220
f 1222 1221 1234
f 1234 1221 1233
f 1223 1224 1229
f 1229 1249 1223
f 1229 1224 1230
f 1250 1230 1224
f 1225 1232 1226
f 1231 1232 1225
f 1255 1231 1225
f 1232 1256 1226
f 1228 1239 1227
f 1240 1239 1228
f 1229 1230 1235
f 1235 1257 1229
f 1229 1257 1249
f 1235 1230 1236
f 1258 1236 1230
f 1258 1230 1250
f 1231 1238 1232
f 1237 1238 1231
f 1263 1237 1231
f 1263 1231 1255
f 1238 1264 1232
f 1232 1264 1256
f 1234 1233 1242
f 1242 1233 1241
f 1235 1236 1243
f 1243 1269 1235
f 1235 1269 1257
f 1243 1236 1244
f 1270 1244 1236
f 1270 1236 1258
f 1237 1246 1238
f 1245 1246 1237
f 1275 1245 1237
f 1275 1237 1263
f 1246 1276 1238
f 1238 1276 1264
f 1240 1247 1239
f 1248 1247 1240
f 1242 1241 1250
f 1250 1241 1249
f 1243 1244 1251
f 1251 1277 1243
f 1243 1277 1269
f 1251 1244 1252
f 1278 1252 1244
f 1278 1244 1270
f 1245 1254 1246
f 1253 1254 1245
f 1283 1253 1245
f 1283 1245 1275
f 1254 1284 1246
f 1246 1284 1276
f 1248 1255 1247
f 1256 1255 1248
f 1250 1249 1258
f 1258 1249 1257
f 1251 1252 1259
f 1259 1285 1251
f 1251 1285 1277
f 1259 1252 1260
f 1286 1260 1252
f 1286 1252 1278
f 1253 1262 1254
f 1261 1262 1253
f 1291 1261 1253
f 1291 1253 1283
f 1262 1292 1254
f 1254 1292 1284
f 1256 1263 1255
f 1264 1263 1256
f 1258 1257 1270
f 1270 1257 1269
f 1259 1260 1265
f 1265 1293 1259
f 1259 1293 1285
f 1265 1260 1266
f 1294 1266 1260
f 1294 1260 1286
f 1261 1268 1262
f 1267 1268 1261
f 1299 1267 1261
f 1299 1261 1291
f 1268 1300 1262
f 1262 1300 1292
f 1264 1275 1263
f 1276 1275 1264
f 1265 1266 1271
f 1271 1301 1265
f 1265 1301 1293
f 1271 1266 1272
f 1302 1272 1266
f 1302 1266 1294
f 1267 1274 1268
f 1273 1274 1267
f 1311 1273 1267
f 1311 1267 1299
f 1274 1312 1268
f 1268 1312 1300
f 1270 1269 1278
f 1278 1269 1277
f 1271 1272 1279
f 1279 1313 1271
f 1271 1313 1301
f 1279 1272 1280
f 1314 1280 1272
f 1314 1272 1302
f 1273 1282 1274
f 1281 1282 1273
f 1319 1281 1273
f 1319 1273 1311
f 1282 1320 1274
f 1274 1320 1312
f 1276 1283 1275
f 1284 1283 1276
f 1278 1277 1286
f 1286 1277 1285
f 1279 1280 1287
f 1287 1321 1279
f 1279 1321 1313
f 1287 1280 1288
f 1322 1288 1280
f 1322 1280 1314
f 1281 1290 1282
f 1289 1290 1281
f 1327 1289 1281
f 1327 1281 1319
f 1290 1328 1282
f 1282 1328 1320
f 1284 1291 1283
f 1292 1291 1284
f 1286 1285 1294
f 1294 1285 1293
f 1287 1288 1295
f 1295 1329 1287
f 1287 1329 1321
f 1295 1288 1296
f 1330 1296 1288
f 1330 1288 1322
f 1289 1298 1290
f 1297 1298 1289
f 1339 1297 1289
f 1339 1289 1327
f 1298 1340 1290
f 1290 1340 1328
f 1292 1299 1291
f 1300 1299 1292
f 1294 1293 1302
f 1302 1293 1301
f 1295 1296 1303
f 1303 1341 1295
f 1295 1341 1329
f 1303 1296 1304
f 1342 1304 1296
f 1342 1296 1330
f 1297 1310 1298
f 1309 1310 1297
f 1347 1309 1297
f 1347 1297 1339
f 1310 1348 1298
f 1298 1348 1340
f 1300 1311 1299
f 1312 1311 1300
f 1302 1301 1314
f 1314 1301 1313
f 1303 1304 1305
f 1305 1349 1303
f 1303 1349 1341
f 1305 1304 1306
f 1350 1306 1304
f 1350 1304 1342
f 1305 1306 1315
f 1315 1373 1305
f 1305 1361 1349
f 1305 1373 1361
f 1315 1306 1316
f 1374 1316 1306
f 1362 1306 1350
f 1374 1306 1362
f 1307 1308 1309
f 1307 1318 1308
f 1359 1307 1309
f 1317 1318 1307
f 1383 1317 1307
f 1371 1307 1359
f 1383 1307 1371
f 1309 1308 1310
f 1308 1360 1310
f 1318 1384 1308
f 1308 1372 1360
f 1308 1384 1372
f 1359 1309 1347
f 1310 1360 1348
f 1312 1319 1311
f 1320 1319 1312
f 1314 1313 1322
f 1322 1313 1321
f 1315 1316 1323
f 1323 1385 1315
f 1315 1385 1373
f 1323 1316 1324
f 1386 1324 1316
f 1386 1316 1374
f 1317 1326 1318
f 1325 1326 1317
f 1399 1325 1317
f 1399 1317 1383
f 1326 1400 1318
f 1318 1400 1384
f 1320 1327 1319
f 1328 1327 1320
f 1322 1321 1330
f 1330 1321 1329
f 1323 1324 1331
f 1331 1401 1323
f 1323 1401 1385
f 1331 1324 1332
f 1402 1332 1324
f 1402 1324 1386
f 1325 1338 1326
f 1337 1338 1325
f 1419 1337 1325
f 1419 1325 1399
f 1338 1420 1326
f 1326 1420 1400
f 1328 1339 1327
f 1340 1339 1328
f 1330 1329 1342
f 1342 1329 1341
f 1331 1332 1333
f 1333 1403 1331
f 1331 1403 1401
f 1333 1332 1334
f 1404 1334 1332
f 1404 1332 1402
f 1333 1334 1343
f 1343 1421 1333
f 1333 1421 1403
f 1343 1334 1344
f 1422 1344 1334
f 1422 1334 1404
f 1335 1336 1337
f 1335 1346 1336
f 1417 1335 1337
f 1345 1346 1335
f 1455 1345 1335
f 1455 1335 1417
f 1337 1336 1338
f 1336 1418 1338
f 1346 1456 1336
f 1336 1456 1418
f 1417 1337 1419
f 1338 1418 1420
f 1340 1347 1339
f 1348 1347 1340
f 1342 1341 1350
f 1350 1341 1349
f 1343 1344 1351
f 1351 1457 1343
f 1343 1457 1421
f 1351 1344 1352
f 1458 1352 1344
f 1458 1344 1422
f 1345 1358 1346
f 1357 1358 1345
f 1463 1357 1345
f 1463 1345 1455
f 1358 1464 1346
f 1346 1464 1456
f 1348 1359 1347
f 1360 1359 1348
f 1350 1349 1362
f 1362 1349 1361
f 1351 1352 1353
f 1353 1459 1351
f 1351 1459 1457
f 1353 1352 1354
f 1460 1354 1352
f 1460 1352 1458
f 1353 1354 1363
f 1363 1465 1353
f 1353 1465 1459
f 1363 1354 1364
f 1466 1364 1354
f 1466 1354 1460
f 1355 1356 1357
f 1355 1370 1356
f 1461 1355 1357
f 1369 1370 1355
f 1467 1369 1355
f 1467 1355 1461
f 1357 1356 1358
f 1356 1462 1358
f 1370 1468 1356
f 1356 1468 1462
f 1461 1357 1463
f 1358 1462 1464
f 1360 1371 1359
f 1372 1371 1360
f 1362 1361 1374
f 1374 1361 1373
f 1363 1364 1365
f 1365 1469 1363
f 1363 1469 1465
f 1365 1364 1366
f 1470 1366 1364
f 1470 1364 1466
f 1365 1366 1375
f 1375 1471 1365
f 1365 1471 1469
f 1375 1366 1376
f 1472 1376 1366
f 1472 1366 1470
f 1367 1368 1369
f 1367 1382 1368
f 1475 1367 1369
f 1381 1382 1367
f 1473 1381 1367
f 1473 1367 1475
f 1369 1368 1370
f 1368 1476 1370
f 1382 1474 1368
f 1368 1474 1476
f 1475 1369 1467
f 1370 1476 1468
f 1372 1383 1371
f 1384 1383 1372
f 1374 1373 1386
f 1386 1373 1385
f 1375 1376 1377
f 1377 1477 1375
f 1375 1477 1471
f 1377 1376 1378
f 1478 1378 1376
f 1478 1376 1472
f 1377 1378 1387
f 1387 1479 1377
f 1377 1479 1477
f 1387 1378 1388
f 1480 1388 1378
f 1480 1378 1478
f 1379 1380 1381
f 1379 1398 1380
f 1483 1379 1381
f 1397 1398 1379
f 1481 1397 1379
f 1481 1379 1483
f 1381 1380 1382
f 1380 1484 1382
f 1398 1482 1380
f 1380 1482 1484
f 1483 1381 1473
f 1382 1484 1474
f 1384 1399 1383
f 1400 1399 1384
f 1386 1385 1402
f 1402 1385 1401
f 1387 1388 1389
f 1389 1485 1387
f 1387 1485 1479
f 1389 1388 1390
f 1486 1390 1388
f 1486 1388 1480
f 1389 1390 1391
f 1391 1487 1389
f 1389 1487 1485
f 1391 1390 1392
f 1488 1392 1390
f 1488 1390 1486
f 1391 1392 1405
f 1405 1493 1391
f 1391 1493 1487
f 1405 1392 1406
f 1494 1406 1392
f 1494 1392 1488
f 1393 1394 1395
f 1393 1416 1394
f 1489 1393 1395
f 1415 1416 1393
f 1499 1415 1393
f 1499 1393 1489
f 1395 1394 1396
f 1394 1490 1396
f 1416 1500 1394
f 1394 1500 1490
f 1395 1396 1397
f 1491 1395 1397
f 1489 1395 1491
f 1397 1396 1398
f 1396 1492 1398
f 1396 1490 1492
f 1491 1397 1481
f 1398 1492 1482
f 1400 1419 1399
f 1420 1419 1400
f 1402 1401 1404
f 1404 1401 1403
f 1404 1403 1422
f 1422 1403 1421
f 1405 1406 1407
f 1407 1495 1405
f 1405 1495 1493
f 1407 1406 1408
f 1496 1408 1406
f 1496 1406 1494
f 1407 1408 1409
f 1409 1503 1407
f 1407 1501 1495
f 1407 1503 1501
f 1409 1408 1410
f 1504 1410 1408
f 1502 1408 1496
f 1504 1408 1502
f 1409 1410 1423
f 1423 1505 1409
f 1409 1505 1503
f 1423 1410 1424
f 1506 1424 1410
f 1506 1410 1504
f 1411 1412 1413
f 1411 1454 1412
f 1513 1411 1413
f 1453 1454 1411
f 1511 1453 1411
f 1511 1411 1513
f 1413 1412 1414
f 1412 1514 1414
f 1454 1512 1412
f 1412 1512 1514
f 1413 1414 1415
f 1497 1413 1415
f 1515 1413 1497
f 1513 1413 1515
f 1415 1414 1416
f 1414 1498 1416
f 1414 1516 1498
f 1414 1514 1516
f 1497 1415 1499
f 1416 1498 1500
f 1418 1417 1420
f 1418 1455 1417
f 1420 1417 1419
f 1456 1455 1418
f 1422 1421 1458
f 1458 1421 1457
f 1423 1424 1425
f 1425 1507 1423
f 1423 1507 1505
f 1425 1424 1426
f 1508 1426 1424
f 1508 1424 1506
f 1425 1426 1427
f 1427 1517 1425
f 1425 1517 1507
f 1427 1426 1428
f 1518 1428 1426
f 1518 1426 1508
f 1427 1428 1429
f 1429 1519 1427
f 1427 1519 1517
f 1429 1428 1430
f 1520 1430 1428
f 1520 1428 1518
f 1429 1430 1431
f 1431 1521 1429
f 1429 1521 1519
f 1431 1430 1432
f 1522 1432 1430
f 1522 1430 1520
f 1431 1432 1433
f 1433 1523 1431
f 1431 1523 1521
f 1433 1432 1434
f 1524 1434 1432
f 1524 1432 1522
f 1433 1434 1435
f 1435 1525 1433
f 1433 1525 1523
f 1435 1434 1436
f 1526 1436 1434
f 1526 1434 1524
f 1435 1436 1437
f 1437 1527 1435
f 1435 1527 1525
f 1437 1436 1438
f 1528 1438 1436
f 1528 1436 1526
f 1438 1439 1437
f 1531 1437 1439
f 1529 1527 1437
f 1529 1437 1531
f 1440 1439 1438
f 1530 1440 1438
f 1530 1438 1528
f 1439 1440 1441
f 1533 1439 1441
f 1531 1439 1533
f 1441 1440 1442
f 1440 1534 1442
f 1532 1440 1530
f 1532 1534 1440
f 1441 1442 1443
f 1535 1441 1443
f 1533 1441 1535
f 1443 1442 1444
f 1442 1536 1444
f 1442 1534 1536
f 1443 1444 1445
f 1537 1443 1445
f 1535 1443 1537
f 1445 1444 1446
f 1444 1538 1446
f 1444 1536 1538
f 1445 1446 1447
f 1539 1445 1447
f 1537 1445 1539
f 1447 1446 1448
f 1446 1540 1448
f 1446 1538 1540
f 1447 1448 1449
f 1541 1447 1449
f 1539 1447 1541
f 1449 1448 1450
f 1448 1542 1450
f 1448 1540 1542
f 1449 1450 1451
f 1543 1449 1451
f 1541 1449 1543
f 1451 1450 1452
f 1450 1544 1452
f 1450 1542 1544
f 1451 1452 1453
f 1509 1451 1453
f 1543 1451 1509
f 1453 1452 1454
f 1452 1510 1454
f 1452 1544 1510
f 1509 1453 1511
f 1454 1510 1512
f 1456 1463 1455
f 1464 1463 1456
f 1458 1457 1460
f 1460 1457 1459
f 1460 1459 1466
f 1466 1459 1465
f 1462 1461 1464
f 1462 1467 1461
f 1464 1461 1463
f 1468 1467 1462
f 1466 1465 1470
f 1470 1465 1469
f 1468 1475 1467
f 1476 1475 1468
f 1470 1469 1472
f 1472 1469 1471
f 1472 1471 1478
f 1478 1471 1477
f 1474 1473 1476
f 1474 1483 1473
f 1476 1473 1475
f 1484 1483 1474
f 1478 1477 1480
f 1480 1477 1479
f 1480 1479 1486
f 1486 1479 1485
f 1482 1481 1484
f 1482 1491 1481
f 1484 1481 1483
f 1492 1491 1482
f 1486 1485 1488
f 1488 1485 1487
f 1488 1487 1494
f 1494 1487 1493
f 1490 1489 1492
f 1490 1499 1489
f 1492 1489 1491
f 1500 1499 1490
f 1494 1493 1496
f 1496 1493 1495
f 1496 1495 1502
f 1502 1495 1501
f 1498 1497 1500
f 1498 1515 1497
f 1500 1497 1499
f 1516 1515 1498
f 1502 1501 1504
f 1504 1501 1503
f 1504 1503 1506
f 1506 1503 1505
f 1506 1505 1508
f 1508 1505 1507
f 1508 1507 1518
f 1518 1507 1517
f 1510 1509 1512
f 1510 1543 1509
f 1512 1509 1511
f 1544 1543 1510
f 1512 1511 1514
f 1514 1511 1513
f 1514 1513 1516
f 1516 1513 1515
f 1518 1517 1520
f 1520 1517 1519
f 1520 1519 1522
f 1522 1519 1521
f 1522 1521 1524
f 1524 1521 1523
f 1524 1523 1526
f 1526 1523 1525
f 1526 1525 1528
f 1528 1525 1527
f 1528 1527 1530
f 1530 1527 1529
f 1530 1529 1532
f 1532 1529 1531
f 1532 1531 1534
f 1534 1531 1533
f 1534 1533 1536
f 1536 1533 1535
f 1536 1535 1538
f 1538 1535 1537
f 1538 1537 1540
f 1540 1537 1539
f 1540 1539 1542
f 1542 1539 1541
f 1542 1541 1544
f 1544 1541 1543
