# CAD visual only; metres; body-local coordinates
v -0.1225 -0.0145000005 0.00959999979
v -0.1225 -0.0145000005 0.00800000012
v -0.0675 -0.0145000005 0.00800000012
v -0.0675 -0.0145000005 0.00959999979
v -0.0675 0.0145000005 0.00959999979
v -0.0675 0.0145000005 0.00800000012
v -0.1225 0.0145000005 0.00800000012
v -0.1225 0.0145000005 0.00959999979
v -0.0675 0.0145000005 0.00800000012
v -0.0675 -0.0145000005 0.00800000012
v -0.1225 -0.0145000005 0.00800000012
v -0.1225 0.0145000005 0.00800000012
v -0.0675 -0.0145000005 0.00959999979
v -0.0675 0.0145000005 0.00959999979
v -0.1225 0.0145000005 0.00959999979
v -0.1225 -0.0145000005 0.00959999979
v -0.0675 -0.0145000005 0.00959999979
v -0.0675 -0.0145000005 0.00800000012
v -0.0675 0.0145000005 0.00800000012
v -0.0675 0.0145000005 0.00959999979
v -0.1225 0.0145000005 0.00959999979
v -0.1225 0.0145000005 0.00800000012
v -0.1225 -0.0145000005 0.00800000012
v -0.1225 -0.0145000005 0.00959999979
v -0.0989999962 0.01 0.0125999999
v -0.0989999962 0.01 0.00959999979
v -0.118999996 0.01 0.00959999979
v -0.118999996 0.01 0.0125999999
v -0.118999996 -0.01 0.0125999999
v -0.118999996 -0.01 0.00959999979
v -0.0989999962 -0.01 0.00959999979
v -0.0989999962 -0.01 0.0125999999
v -0.118999996 0.01 0.0125999999
v -0.118999996 0.01 0.00959999979
v -0.118999996 -0.01 0.00959999979
v -0.118999996 -0.01 0.0125999999
v -0.0989999962 -0.01 0.0125999999
v -0.0989999962 -0.01 0.00959999979
v -0.0989999962 0.01 0.00959999979
v -0.0989999962 0.01 0.0125999999
v -0.0989999962 0.01 0.00959999979
v -0.0989999962 -0.01 0.00959999979
v -0.118999996 -0.01 0.00959999979
v -0.118999996 0.01 0.00959999979
v -0.0989999962 -0.01 0.0125999999
v -0.0989999962 0.01 0.0125999999
v -0.118999996 0.01 0.0125999999
v -0.118999996 -0.01 0.0125999999
v -0.0719999981 -0.01125 0.025
v -0.0719999981 -0.01125 0.00959999979
v -0.118000002 -0.01125 0.00959999979
v -0.118000002 -0.01125 0.025
v -0.118000002 -0.01125 0.025
v -0.118000002 -0.01125 0.00959999979
v -0.118000002 -0.01375 0.00959999979
v -0.118000002 -0.01375 0.025
v -0.0719999981 -0.01125 0.00959999979
v -0.0719999981 -0.01375 0.00959999979
v -0.118000002 -0.01375 0.00959999979
v -0.118000002 -0.01125 0.00959999979
v -0.0719999981 -0.01375 0.025
v -0.0719999981 -0.01375 0.00959999979
v -0.0719999981 -0.01125 0.00959999979
v -0.0719999981 -0.01125 0.025
v -0.118000002 -0.01375 0.025
v -0.118000002 -0.01375 0.00959999979
v -0.0719999981 -0.01375 0.00959999979
v -0.0719999981 -0.01375 0.025
v -0.0719999981 -0.01375 0.025
v -0.0719999981 -0.01125 0.025
v -0.118000002 -0.01125 0.025
v -0.118000002 -0.01375 0.025
v -0.0719999981 0.01375 0.025
v -0.0719999981 0.01375 0.00959999979
v -0.118000002 0.01375 0.00959999979
v -0.118000002 0.01375 0.025
v -0.118000002 0.01375 0.025
v -0.118000002 0.01375 0.00959999979
v -0.118000002 0.01125 0.00959999979
v -0.118000002 0.01125 0.025
v -0.0719999981 0.01375 0.00959999979
v -0.0719999981 0.01125 0.00959999979
v -0.118000002 0.01125 0.00959999979
v -0.118000002 0.01375 0.00959999979
v -0.0719999981 0.01125 0.025
v -0.0719999981 0.01125 0.00959999979
v -0.0719999981 0.01375 0.00959999979
v -0.0719999981 0.01375 0.025
v -0.118000002 0.01125 0.025
v -0.118000002 0.01125 0.00959999979
v -0.0719999981 0.01125 0.00959999979
v -0.0719999981 0.01125 0.025
v -0.0719999981 0.01125 0.025
v -0.0719999981 0.01375 0.025
v -0.118000002 0.01375 0.025
v -0.118000002 0.01125 0.025
v -0.069000001 -0.00449999988 0.0129999995
v -0.069000001 -0.00449999988 0.00959999979
v -0.065 -0.00449999988 0.00959999979
v -0.065 -0.00449999988 0.0129999995
v -0.069000001 0.00449999988 0.0129999995
v -0.069000001 0.00449999988 0.00959999979
v -0.069000001 -0.00449999988 0.00959999979
v -0.069000001 -0.00449999988 0.0129999995
v -0.065 0.00449999988 0.00959999979
v -0.065 -0.00449999988 0.00959999979
v -0.069000001 -0.00449999988 0.00959999979
v -0.069000001 0.00449999988 0.00959999979
v -0.065 -0.00449999988 0.0129999995
v -0.065 0.00449999988 0.0129999995
v -0.069000001 0.00449999988 0.0129999995
v -0.069000001 -0.00449999988 0.0129999995
v -0.065 0.00449999988 0.0129999995
v -0.065 0.00449999988 0.00959999979
v -0.069000001 0.00449999988 0.00959999979
v -0.069000001 0.00449999988 0.0129999995
v -0.065 -0.00449999988 0.0129999995
v -0.065 -0.00449999988 0.00959999979
v -0.065 0.00449999988 0.00959999979
v -0.065 0.00449999988 0.0129999995
v 0.0142999995 -0.0126999998 0.0956000042
v 0.0142999995 -0.0126999998 0.0939999962
v 0.0142999995 0.0126999998 0.0939999962
v 0.0142999995 0.0126999998 0.0956000042
v -0.0142999995 0.0126999998 0.0956000042
v -0.0142999995 0.0126999998 0.0939999962
v -0.0142999995 -0.0126999998 0.0939999962
v -0.0142999995 -0.0126999998 0.0956000042
v 0.0142999995 -0.0126999998 0.0956000042
v 0.0142999995 0.0126999998 0.0956000042
v -0.0142999995 0.0126999998 0.0956000042
v -0.0142999995 -0.0126999998 0.0956000042
v -0.0142999995 -0.0126999998 0.0956000042
v -0.0142999995 -0.0126999998 0.0939999962
v 0.0142999995 -0.0126999998 0.0939999962
v 0.0142999995 -0.0126999998 0.0956000042
v 0.0142999995 0.0126999998 0.0956000042
v 0.0142999995 0.0126999998 0.0939999962
v -0.0142999995 0.0126999998 0.0939999962
v -0.0142999995 0.0126999998 0.0956000042
v 0.0142999995 0.0126999998 0.0939999962
v 0.0142999995 -0.0126999998 0.0939999962
v -0.0142999995 -0.0126999998 0.0939999962
v -0.0142999995 0.0126999998 0.0939999962
v 0.00300000012 -0.00300000012 0.0969999981
v 0.00300000012 -0.00300000012 0.0956000042
v 0.00300000012 0.00300000012 0.0956000042
v 0.00300000012 0.00300000012 0.0969999981
v -0.00300000012 0.00300000012 0.0969999981
v -0.00300000012 0.00300000012 0.0956000042
v -0.00300000012 -0.00300000012 0.0956000042
v -0.00300000012 -0.00300000012 0.0969999981
v 0.00300000012 0.00300000012 0.0969999981
v 0.00300000012 0.00300000012 0.0956000042
v -0.00300000012 0.00300000012 0.0956000042
v -0.00300000012 0.00300000012 0.0969999981
v 0.00300000012 0.00300000012 0.0956000042
v 0.00300000012 -0.00300000012 0.0956000042
v -0.00300000012 -0.00300000012 0.0956000042
v -0.00300000012 0.00300000012 0.0956000042
v 0.00300000012 -0.00300000012 0.0969999981
v 0.00300000012 0.00300000012 0.0969999981
v -0.00300000012 0.00300000012 0.0969999981
v -0.00300000012 -0.00300000012 0.0969999981
v -0.00300000012 -0.00300000012 0.0969999981
v -0.00300000012 -0.00300000012 0.0956000042
v 0.00300000012 -0.00300000012 0.0956000042
v 0.00300000012 -0.00300000012 0.0969999981
v 0.01 -0.0126300001 0.0939999962
v 0.01 -0.01023 0.0939999962
v -0.01 -0.01023 0.0939999962
v -0.01 -0.0126300001 0.0939999962
v -0.01 -0.01023 0.0939999962
v -0.01 -0.01023 0.0914999962
v -0.01 -0.0126300001 0.0914999962
v -0.01 -0.0126300001 0.0939999962
v 0.01 -0.01023 0.0939999962
v 0.01 -0.01023 0.0914999962
v -0.01 -0.01023 0.0914999962
v -0.01 -0.01023 0.0939999962
v 0.01 -0.0126300001 0.0939999962
v 0.01 -0.0126300001 0.0914999962
v 0.01 -0.01023 0.0914999962
v 0.01 -0.01023 0.0939999962
v -0.01 -0.0126300001 0.0939999962
v -0.01 -0.0126300001 0.0914999962
v 0.01 -0.0126300001 0.0914999962
v 0.01 -0.0126300001 0.0939999962
v 0.01 -0.01023 0.0914999962
v 0.01 -0.0126300001 0.0914999962
v -0.01 -0.0126300001 0.0914999962
v -0.01 -0.01023 0.0914999962
v 0.01 0.0126300001 0.0939999962
v 0.01 0.0126300001 0.0914999962
v -0.01 0.0126300001 0.0914999962
v -0.01 0.0126300001 0.0939999962
v 0.01 0.01023 0.0939999962
v 0.01 0.01023 0.0914999962
v 0.01 0.0126300001 0.0914999962
v 0.01 0.0126300001 0.0939999962
v -0.01 0.01023 0.0939999962
v -0.01 0.01023 0.0914999962
v 0.01 0.01023 0.0914999962
v 0.01 0.01023 0.0939999962
v -0.01 0.0126300001 0.0939999962
v -0.01 0.0126300001 0.0914999962
v -0.01 0.01023 0.0914999962
v -0.01 0.01023 0.0939999962
v 0.01 0.0126300001 0.0914999962
v 0.01 0.01023 0.0914999962
v -0.01 0.01023 0.0914999962
v -0.01 0.0126300001 0.0914999962
v 0.01 0.01023 0.0939999962
v 0.01 0.0126300001 0.0939999962
v -0.01 0.0126300001 0.0939999962
v -0.01 0.01023 0.0939999962
v -0.0582807684 -0.145003262 -0.0220000005
v -0.0582807684 -0.145003262 -0.00680000007
v -0.0582507467 -0.144898186 -0.0220000005
v -0.0582507467 -0.144898186 -0.00680000007
v -0.0580942965 -0.145187502 -0.0220000005
v -0.0580942965 -0.145187502 -0.00680000007
v -0.0580942965 -0.144812498 -0.0220000005
v -0.0580942965 -0.144812498 -0.00680000007
v -0.0580942965 0.144812498 -0.0220000005
v -0.0580942965 0.144812498 -0.00680000007
v -0.0580942965 0.145187502 -0.0220000005
v -0.0580942965 0.145187502 -0.00680000007
v 0.0646456623 -0.145187502 -0.0220000005
v 0.0646456623 -0.145187502 -0.00680000007
v 0.0646456623 -0.144812498 -0.0220000005
v 0.0646456623 -0.144812498 -0.00680000007
v 0.0646422052 0.144812498 -0.0220000005
v 0.0646422052 0.144812498 -0.00680000007
v 0.064648571 0.145187464 -0.0220000005
v 0.0646495676 0.145187435 -0.00680000007
v 0.0659589672 -0.145153151 -0.0220000005
v 0.0659589672 -0.145153151 -0.00680000007
v 0.0659432411 -0.144778433 -0.0220000005
v 0.0659432411 -0.144778433 -0.00680000007
v 0.0659432411 0.144778433 -0.0220000005
v 0.0659432411 0.144778433 -0.00680000007
v 0.0659589672 0.145153151 -0.0220000005
v 0.065966773 0.14515274 -0.00680000007
v 0.0672382689 -0.144676514 -0.0220000005
v 0.0672382689 -0.144676514 -0.00680000007
v 0.0672382689 0.144676514 -0.0220000005
v 0.0672382689 0.144676514 -0.00680000007
v 0.0672735786 -0.145049887 -0.0220000005
v 0.0672735786 -0.145049887 -0.00680000007
v 0.0672813559 0.145049076 -0.0220000005
v 0.0672813559 0.145049076 -0.00680000007
v 0.0685887098 -0.144876747 -0.0220000005
v 0.0685809898 -0.144877977 -0.00680000007
v 0.0685261822 -0.14450695 -0.0220000005
v 0.0685261822 -0.14450695 -0.00680000007
v 0.0685261822 0.14450695 -0.0220000005
v 0.0685261822 0.14450695 -0.00680000007
v 0.0685887098 0.144876747 -0.0220000005
v 0.0685887098 0.144876747 -0.00680000007
v 0.0698776054 -0.144637871 -0.0220000005
v 0.0698776054 -0.144637871 -0.00680000007
v 0.0698034573 -0.14427022 -0.0220000005
v 0.0698034573 -0.14427022 -0.00680000007
v 0.0698034573 0.14427022 -0.0220000005
v 0.0698034573 0.14427022 -0.00680000007
v 0.0698776054 0.144637871 -0.0220000005
v 0.0698852539 0.14463624 -0.00680000007
v 0.0711598825 -0.144330235 -0.0220000005
v 0.0711598825 -0.144330235 -0.00680000007
v 0.0710665941 -0.14396697 -0.0220000005
v 0.0710665941 -0.14396697 -0.00680000007
v 0.0710665941 0.14396697 -0.0220000005
v 0.0710665941 0.14396697 -0.00680000007
v 0.0711674309 0.144328213 -0.0220000005
v 0.0711674309 0.144328213 -0.00680000007
v 0.0724317312 -0.143953495 -0.0220000005
v 0.0724242973 -0.143955908 -0.00680000007
v 0.0723121262 -0.143598032 -0.0220000005
v 0.0723121262 -0.143598032 -0.00680000007
v 0.0723121262 0.143598032 -0.0220000005
v 0.0723121262 0.143598032 -0.00680000007
v 0.0724317312 0.143953495 -0.0220000005
v 0.0724317312 0.143953495 -0.00680000007
v 0.0736673927 -0.143515921 -0.0220000005
v 0.0736673927 -0.143515921 -0.00680000007
v 0.073536644 -0.143164406 -0.0220000005
v 0.073536644 -0.143164406 -0.00680000007
v 0.073536644 0.143164406 -0.0220000005
v 0.073536644 0.143164406 -0.00680000007
v 0.0736673927 0.143515921 -0.0220000005
v 0.0736746883 0.143513117 -0.00680000007
v 0.0747367859 -0.142667284 -0.0220000005
v 0.0747367859 -0.142667284 -0.00680000007
v 0.0747367859 0.142667284 -0.0220000005
v 0.0747367859 0.142667284 -0.00680000007
v 0.0748857546 -0.143011484 -0.0220000005
v 0.0748857546 -0.143011484 -0.00680000007
v 0.0748857546 0.143011484 -0.0220000005
v 0.0748928976 0.143008299 -0.00680000007
v 0.0759092712 -0.14210804 -0.0220000005
v 0.0759092712 -0.14210804 -0.00680000007
v 0.0759092712 0.14210804 -0.0220000005
v 0.0759092712 0.14210804 -0.00680000007
v 0.0760830116 -0.142440414 -0.0220000005
v 0.076076045 -0.142443972 -0.00680000007
v 0.0760830116 0.142440414 -0.0220000005
v 0.0760830116 0.142440414 -0.00680000007
v 0.0772350073 -0.141814938 -0.0220000005
v 0.0772350073 -0.141814938 -0.00680000007
v 0.0770508766 -0.141488199 -0.0220000005
v 0.0770508766 -0.141488199 -0.00680000007
v 0.0770508766 0.141488199 -0.0220000005
v 0.0770508766 0.141488199 -0.00680000007
v 0.0772417784 0.141811028 -0.0220000005
v 0.0772417784 0.141811028 -0.00680000007
v 0.0781584835 -0.14080946 -0.0220000005
v 0.0781584835 -0.14080946 -0.00680000007
v 0.0781584835 0.14080946 -0.0220000005
v 0.0781584835 0.14080946 -0.00680000007
v 0.0783660126 -0.141121855 -0.0220000005
v 0.0783594561 -0.141126108 -0.00680000007
v 0.0783660126 0.141121855 -0.0220000005
v 0.0783660126 0.141121855 -0.00680000007
v 0.0792290449 -0.140073681 -0.0220000005
v 0.0792290449 -0.140073681 -0.00680000007
v 0.0792290449 0.140073681 -0.0220000005
v 0.0792290449 0.140073681 -0.00680000007
v 0.0794463158 -0.140379381 -0.0220000005
v 0.0794463158 -0.140379381 -0.00680000007
v 0.0794463158 0.140379381 -0.0220000005
v 0.0794526434 0.140374784 -0.00680000007
v 0.0804926109 -0.139576797 -0.0220000005
v 0.0804926109 -0.139576797 -0.00680000007
v 0.0802596283 -0.139282885 -0.0220000005
v 0.0802596283 -0.139282885 -0.00680000007
v 0.0802596283 0.139282885 -0.0220000005
v 0.0802596283 0.139282885 -0.00680000007
v 0.0804986858 0.139571877 -0.0220000005
v 0.0804986858 0.139571877 -0.00680000007
v 0.0812474251 -0.138439236 -0.0220000005
v 0.0812474251 -0.138439236 -0.00680000007
v 0.0812474251 0.138439236 -0.0220000005
v 0.0812474251 0.138439236 -0.00680000007
v 0.0814954567 -0.138720551 -0.0220000005
v 0.0814954567 -0.138720551 -0.00680000007
v 0.0814993572 0.138717089 -0.0220000005
v 0.0814954567 0.138720551 -0.00680000007
v 0.0815012646 -0.138715315 -0.0220000005
v 0.0815012646 -0.138715315 -0.00680000007
v 0.0815012646 0.138715315 -0.0220000005
v 0.0815012646 0.138715315 -0.00680000007
v 0.082193985 -0.13754097 -0.0220000005
v 0.082193985 -0.13754097 -0.00680000007
v 0.0821914864 0.137543354 -0.0220000005
v 0.0821914864 0.137543354 -0.00680000007
v 0.0824521255 -0.137812986 -0.0220000005
v 0.0824521255 -0.137812986 -0.00680000007
v 0.0824542046 0.137810955 -0.0220000005
v 0.0824549103 0.137810249 -0.00680000007
v 0.152545795 -0.0671890402 -0.0220000005
v 0.152545795 -0.0671890402 -0.00680000007
v 0.152543354 0.0671914816 -0.0220000005
v 0.152543354 0.0671914816 -0.00680000007
v 0.152812986 -0.0674521208 -0.0220000005
v 0.152810955 -0.0674542046 -0.00680000007
v 0.152812986 0.0674521208 -0.0220000005
v 0.152813673 0.067451396 -0.00680000007
v 0.153439236 -0.0662474203 -0.0220000005
v 0.153439236 -0.0662474203 -0.00680000007
v 0.153439236 0.0662474203 -0.0220000005
v 0.153439236 0.0662474203 -0.00680000007
v 0.153715315 -0.0665012693 -0.0220000005
v 0.153715315 -0.0665012693 -0.00680000007
v 0.153720551 -0.0664954567 -0.0220000005
v 0.153720551 -0.0664954567 -0.00680000007
v 0.153720551 0.0664954567 -0.0220000005
v 0.153720551 0.0664954567 -0.00680000007
v 0.153715315 0.0665012693 -0.0220000005
v 0.153715315 0.0665012693 -0.00680000007
v 0.154282885 -0.0652596331 -0.0220000005
v 0.154282885 -0.0652596331 -0.00680000007
v 0.154282885 0.0652596331 -0.0220000005
v 0.154282885 0.0652596331 -0.00680000007
v 0.154571877 -0.0654986811 -0.0220000005
v 0.154571877 -0.0654986811 -0.00680000007
v 0.154571877 0.0654986811 -0.0220000005
v 0.154576797 0.0654926062 -0.00680000007
v 0.155073681 -0.0642290449 -0.0220000005
v 0.155073681 -0.0642290449 -0.00680000007
v 0.155073681 0.0642290449 -0.0220000005
v 0.155073681 0.0642290449 -0.00680000007
v 0.155379381 -0.0644463158 -0.0220000005
v 0.155374784 -0.0644526434 -0.00680000007
v 0.155374784 0.0644526434 -0.0220000005
v 0.155379381 0.0644463158 -0.00680000007
v 0.15580946 -0.0631584835 -0.0220000005
v 0.15580946 -0.0631584835 -0.00680000007
v 0.15580946 0.0631584835 -0.0220000005
v 0.15580946 0.0631584835 -0.00680000007
v 0.156121855 -0.0633660126 -0.0220000005
v 0.156121855 -0.0633660126 -0.00680000007
v 0.156126108 0.0633594561 -0.0220000005
v 0.156126108 0.0633594561 -0.00680000007
v 0.156488199 -0.0620508766 -0.0220000005
v 0.156488199 -0.0620508766 -0.00680000007
v 0.156488199 0.0620508766 -0.0220000005
v 0.156488199 0.0620508766 -0.00680000007
v 0.156811028 -0.0622417784 -0.0220000005
v 0.156811028 -0.0622417784 -0.00680000007
v 0.156814938 0.0622350073 -0.0220000005
v 0.156814938 0.0622350073 -0.00680000007
v 0.15710804 -0.0609092712 -0.0220000005
v 0.15710804 -0.0609092712 -0.00680000007
v 0.15710804 0.0609092712 -0.0220000005
v 0.15710804 0.0609092712 -0.00680000007
v 0.157443972 -0.061076045 -0.0220000005
v 0.157440414 -0.0610830116 -0.00680000007
v 0.157443972 0.061076045 -0.0220000005
v 0.157443972 0.061076045 -0.00680000007
v 0.157667284 -0.0597367859 -0.0220000005
v 0.157667284 -0.0597367859 -0.00680000007
v 0.157667284 0.0597367859 -0.0220000005
v 0.157667284 0.0597367859 -0.00680000007
v 0.158008299 -0.0598928976 -0.0220000005
v 0.158008299 -0.0598928976 -0.00680000007
v 0.158164406 -0.058536644 -0.0220000005
v 0.158164406 -0.058536644 -0.00680000007
v 0.158164406 0.058536644 -0.0220000005
v 0.158164406 0.058536644 -0.00680000007
v 0.158008299 0.0598928976 -0.0220000005
v 0.158011484 0.0598857546 -0.00680000007
v 0.158515921 -0.0586673927 -0.0220000005
v 0.158513117 -0.0586746883 -0.00680000007
v 0.158598032 -0.0573121262 -0.0220000005
v 0.158598032 -0.0573121262 -0.00680000007
v 0.158598032 0.0573121262 -0.0220000005
v 0.158598032 0.0573121262 -0.00680000007
v 0.158515921 0.0586673927 -0.0220000005
v 0.158515921 0.0586673927 -0.00680000007
v 0.158955908 -0.0574242973 -0.0220000005
v 0.158953495 -0.0574317312 -0.00680000007
v 0.15896697 -0.0560665941 -0.0220000005
v 0.15896697 -0.0560665941 -0.00680000007
v 0.15896697 0.0560665941 -0.0220000005
v 0.15896697 0.0560665941 -0.00680000007
v 0.158955908 0.0574242973 -0.0220000005
v 0.158955908 0.0574242973 -0.00680000007
v 0.159328213 -0.0561674309 -0.0220000005
v 0.159328213 -0.0561674309 -0.00680000007
v 0.15927022 -0.0548034573 -0.0220000005
v 0.15927022 -0.0548034573 -0.00680000007
v 0.15927022 0.0548034573 -0.0220000005
v 0.15927022 0.0548034573 -0.00680000007
v 0.159330235 0.0561598825 -0.0220000005
v 0.159330235 0.0561598825 -0.00680000007
v 0.159637871 -0.0548776054 -0.0220000005
v 0.15963624 -0.0548852539 -0.00680000007
v 0.15950695 -0.0535261822 -0.0220000005
v 0.15950695 -0.0535261822 -0.00680000007
v 0.159676514 -0.0522382689 -0.0220000005
v 0.159676514 -0.0522382689 -0.00680000007
v 0.159676514 0.0522382689 -0.0220000005
v 0.159676514 0.0522382689 -0.00680000007
v 0.15950695 0.0535261822 -0.0220000005
v 0.15950695 0.0535261822 -0.00680000007
v 0.159637871 0.0548776054 -0.0220000005
v 0.159637871 0.0548776054 -0.00680000007
v 0.159876747 -0.0535887098 -0.0220000005
v 0.159876747 -0.0535887098 -0.00680000007
v 0.159778433 -0.0509432411 -0.0220000005
v 0.159778433 -0.0509432411 -0.00680000007
v 0.159812498 -0.0496422052 -0.0220000005
v 0.159812498 -0.0496422052 -0.00680000007
v 0.159812498 0.0496422052 -0.0220000005
v 0.159812498 0.0496422052 -0.00680000007
v 0.159778433 0.0509432411 -0.0220000005
v 0.159778433 0.0509432411 -0.00680000007
v 0.159877977 0.0535809898 -0.0220000005
v 0.159877977 0.0535809898 -0.00680000007
v 0.160049076 -0.0522813559 -0.0220000005
v 0.160049076 -0.0522813559 -0.00680000007
v 0.160153141 -0.0509589672 -0.0220000005
v 0.16015274 -0.050966773 -0.00680000007
v 0.160187435 -0.0496495676 -0.0220000005
v 0.160187435 -0.0496495676 -0.00680000007
v 0.160187492 0.0496446609 -0.0220000005
v 0.160187492 0.0496446609 -0.00680000007
v 0.160153141 0.0509589672 -0.0220000005
v 0.160153141 0.0509589672 -0.00680000007
v 0.160049076 0.0522813559 -0.0220000005
v 0.160049896 0.0522735786 -0.00680000007
f 1 2 4
f 4 2 3
f 5 6 8
f 8 6 7
f 10 11 9
f 9 11 12
f 14 15 13
f 13 15 16
f 17 18 20
f 20 18 19
f 21 22 24
f 24 22 23
f 25 26 28
f 28 26 27
f 29 30 32
f 32 30 31
f 33 34 36
f 36 34 35
f 37 38 40
f 40 38 39
f 42 43 41
f 41 43 44
f 46 47 45
f 45 47 48
f 49 50 52
f 52 50 51
f 53 54 56
f 56 54 55
f 58 59 57
f 57 59 60
f 61 62 64
f 64 62 63
f 65 66 68
f 68 66 67
f 70 71 69
f 69 71 72
f 73 74 76
f 76 74 75
f 77 78 80
f 80 78 79
f 82 83 81
f 81 83 84
f 85 86 88
f 88 86 87
f 89 90 92
f 92 90 91
f 94 95 93
f 93 95 96
f 97 98 100
f 100 98 99
f 101 102 104
f 104 102 103
f 106 107 105
f 105 107 108
f 110 111 109
f 109 111 112
f 113 114 116
f 116 114 115
f 117 118 120
f 120 118 119
f 121 122 124
f 124 122 123
f 125 126 128
f 128 126 127
f 130 131 129
f 129 131 132
f 133 134 136
f 136 134 135
f 137 138 140
f 140 138 139
f 142 143 141
f 141 143 144
f 145 146 148
f 148 146 147
f 149 150 152
f 152 150 151
f 153 154 156
f 156 154 155
f 158 159 157
f 157 159 160
f 162 163 161
f 161 163 164
f 165 166 168
f 168 166 167
f 170 171 169
f 169 171 172
f 173 174 176
f 176 174 175
f 177 178 180
f 180 178 179
f 181 182 184
f 184 182 183
f 185 186 188
f 188 186 187
f 190 191 189
f 189 191 192
f 193 194 196
f 196 194 195
f 197 198 200
f 200 198 199
f 201 202 204
f 204 202 203
f 205 206 208
f 208 206 207
f 210 211 209
f 209 211 212
f 214 215 213
f 213 215 216
f 218 219 217
f 218 217 222
f 249 217 219
f 222 217 221
f 237 221 217
f 217 249 237
f 220 219 218
f 218 250 220
f 222 238 218
f 218 238 250
f 220 223 219
f 249 219 223
f 224 223 220
f 220 232 224
f 220 250 232
f 221 230 222
f 229 230 221
f 221 237 229
f 222 230 238
f 224 231 223
f 223 231 249
f 232 231 224
f 226 227 225
f 225 234 226
f 225 227 233
f 233 234 225
f 228 227 226
f 228 226 234
f 228 235 227
f 233 227 235
f 234 236 228
f 236 235 228
f 230 229 238
f 238 229 237
f 231 232 239
f 249 231 239
f 239 232 240
f 240 232 250
f 233 242 234
f 233 235 241
f 241 242 233
f 244 236 234
f 242 260 234
f 234 252 244
f 234 260 252
f 235 236 243
f 241 235 243
f 243 236 244
f 238 237 250
f 250 237 249
f 239 240 245
f 239 245 249
f 245 240 246
f 250 246 240
f 241 248 242
f 241 243 247
f 247 248 241
f 248 260 242
f 244 251 243
f 247 243 251
f 252 251 244
f 245 246 255
f 249 245 255
f 250 256 246
f 255 246 256
f 247 258 248
f 247 251 257
f 257 258 247
f 258 260 248
f 250 249 254
f 254 249 253
f 249 255 253
f 254 256 250
f 252 259 251
f 257 251 259
f 260 259 252
f 254 253 262
f 253 255 263
f 262 253 261
f 253 263 261
f 256 254 264
f 264 254 262
f 255 256 263
f 263 256 264
f 257 266 258
f 257 259 265
f 265 266 257
f 266 260 258
f 260 267 259
f 265 259 267
f 266 268 260
f 268 267 260
f 262 261 270
f 261 263 271
f 270 261 269
f 261 271 269
f 264 262 272
f 272 262 270
f 263 264 271
f 271 264 272
f 265 274 266
f 265 267 273
f 273 274 265
f 274 268 266
f 268 275 267
f 273 267 275
f 274 276 268
f 276 275 268
f 270 269 278
f 269 271 279
f 278 269 277
f 269 279 277
f 272 270 280
f 280 270 278
f 271 272 279
f 279 272 280
f 273 282 274
f 273 275 281
f 281 282 273
f 282 276 274
f 276 283 275
f 281 275 283
f 282 284 276
f 284 283 276
f 278 277 286
f 277 279 287
f 286 277 285
f 277 287 285
f 280 278 288
f 288 278 286
f 279 280 287
f 287 280 288
f 281 290 282
f 281 283 289
f 289 290 281
f 290 284 282
f 284 291 283
f 289 283 291
f 290 292 284
f 292 291 284
f 286 285 298
f 285 287 293
f 285 293 297
f 298 285 297
f 288 286 294
f 294 286 298
f 287 288 293
f 293 288 294
f 289 296 290
f 289 291 295
f 295 296 289
f 296 292 290
f 292 299 291
f 295 291 299
f 296 300 292
f 300 299 292
f 293 294 301
f 297 293 301
f 294 298 302
f 301 294 302
f 295 304 296
f 295 299 303
f 303 304 295
f 304 300 296
f 298 297 306
f 297 301 305
f 306 297 305
f 302 298 306
f 300 307 299
f 303 299 307
f 304 308 300
f 308 307 300
f 301 302 311
f 305 301 311
f 302 306 312
f 311 302 312
f 303 314 304
f 303 307 313
f 313 314 303
f 314 308 304
f 306 305 310
f 310 305 309
f 305 311 309
f 312 306 310
f 308 315 307
f 313 307 315
f 314 316 308
f 316 315 308
f 310 309 322
f 309 311 317
f 309 317 321
f 322 309 321
f 312 310 318
f 318 310 322
f 311 312 317
f 317 312 318
f 313 320 314
f 313 315 319
f 319 320 313
f 320 316 314
f 316 323 315
f 319 315 323
f 320 324 316
f 324 323 316
f 317 318 325
f 321 317 325
f 318 322 326
f 325 318 326
f 319 328 320
f 319 323 327
f 327 328 319
f 328 324 320
f 322 321 330
f 321 325 329
f 330 321 329
f 326 322 330
f 324 331 323
f 327 323 331
f 328 332 324
f 332 331 324
f 325 326 335
f 329 325 335
f 326 330 336
f 335 326 336
f 327 338 328
f 327 331 337
f 337 338 327
f 338 332 328
f 330 329 334
f 334 329 333
f 329 335 333
f 336 330 334
f 332 339 331
f 337 331 339
f 338 340 332
f 340 339 332
f 334 333 346
f 333 335 341
f 333 341 345
f 346 333 345
f 336 334 342
f 342 334 346
f 335 336 341
f 341 336 342
f 337 344 338
f 337 339 343
f 343 344 337
f 344 340 338
f 340 347 339
f 343 339 347
f 344 348 340
f 348 347 340
f 341 342 353
f 345 341 349
f 349 341 353
f 342 346 350
f 342 350 354
f 353 342 354
f 343 356 344
f 343 347 351
f 343 351 355
f 355 356 343
f 344 352 348
f 356 352 344
f 346 345 350
f 350 345 349
f 348 351 347
f 352 351 348
f 349 358 350
f 349 353 357
f 357 358 349
f 354 350 358
f 352 359 351
f 355 351 359
f 356 360 352
f 360 359 352
f 353 354 361
f 357 353 361
f 354 358 362
f 361 354 362
f 355 364 356
f 355 359 363
f 363 364 355
f 364 360 356
f 358 357 366
f 357 361 365
f 366 357 365
f 362 358 366
f 359 360 367
f 363 359 367
f 364 368 360
f 367 360 368
f 361 362 369
f 365 361 369
f 362 366 370
f 369 362 370
f 363 372 364
f 367 371 363
f 371 372 363
f 372 368 364
f 366 365 374
f 365 369 373
f 374 365 373
f 370 366 374
f 367 368 379
f 379 371 367
f 372 380 368
f 379 368 380
f 369 370 381
f 373 369 375
f 375 369 381
f 370 374 376
f 370 376 382
f 381 370 382
f 371 384 372
f 377 371 379
f 377 383 371
f 383 384 371
f 378 380 372
f 384 378 372
f 374 373 376
f 376 373 375
f 376 375 386
f 375 381 385
f 386 375 385
f 382 376 386
f 378 377 380
f 378 387 377
f 380 377 379
f 387 383 377
f 384 388 378
f 388 387 378
f 381 382 389
f 385 381 389
f 382 386 390
f 389 382 390
f 383 392 384
f 387 391 383
f 391 392 383
f 392 388 384
f 386 385 394
f 385 389 393
f 394 385 393
f 390 386 394
f 388 395 387
f 395 391 387
f 392 396 388
f 396 395 388
f 389 390 397
f 393 389 397
f 390 394 398
f 397 390 398
f 391 400 392
f 395 399 391
f 399 400 391
f 400 396 392
f 394 393 402
f 393 397 401
f 402 393 401
f 398 394 402
f 396 403 395
f 403 399 395
f 400 404 396
f 404 403 396
f 397 398 405
f 401 397 405
f 398 402 406
f 405 398 406
f 399 408 400
f 403 407 399
f 407 408 399
f 408 404 400
f 402 401 410
f 401 405 409
f 410 401 409
f 406 402 410
f 404 411 403
f 411 407 403
f 408 412 404
f 412 411 404
f 405 406 413
f 409 405 413
f 406 410 414
f 413 406 414
f 407 416 408
f 411 415 407
f 415 416 407
f 416 412 408
f 410 409 418
f 409 413 417
f 418 409 417
f 414 410 418
f 412 419 411
f 419 415 411
f 416 420 412
f 420 419 412
f 413 414 421
f 417 413 421
f 414 418 422
f 421 414 422
f 415 424 416
f 419 423 415
f 423 424 415
f 424 420 416
f 418 417 426
f 417 421 425
f 426 417 425
f 422 418 426
f 420 431 419
f 431 423 419
f 424 432 420
f 432 431 420
f 421 422 427
f 425 421 427
f 422 426 428
f 427 422 428
f 423 430 424
f 429 430 423
f 431 429 423
f 430 432 424
f 426 425 434
f 425 427 433
f 434 425 433
f 428 426 434
f 427 428 435
f 433 427 435
f 428 434 436
f 435 428 436
f 429 438 430
f 439 429 431
f 437 438 429
f 439 437 429
f 430 440 432
f 438 440 430
f 432 439 431
f 440 439 432
f 434 433 442
f 433 435 441
f 442 433 441
f 436 434 442
f 435 436 443
f 441 435 443
f 436 442 444
f 443 436 444
f 437 446 438
f 447 437 439
f 445 446 437
f 447 445 437
f 438 448 440
f 446 448 438
f 440 447 439
f 448 447 440
f 442 441 450
f 441 443 449
f 450 441 449
f 444 442 450
f 443 444 451
f 443 451 449
f 444 450 452
f 451 444 452
f 445 454 446
f 455 445 447
f 453 454 445
f 455 453 445
f 446 456 448
f 446 454 456
f 448 455 447
f 456 455 448
f 450 449 458
f 449 451 457
f 458 449 457
f 452 450 458
f 451 452 459
f 451 459 457
f 452 458 460
f 459 452 460
f 453 466 454
f 467 453 455
f 465 466 453
f 467 465 453
f 454 468 456
f 466 468 454
f 456 467 455
f 468 467 456
f 458 457 470
f 457 459 469
f 470 457 469
f 460 458 470
f 459 460 461
f 459 461 469
f 461 460 462
f 460 470 462
f 461 462 471
f 469 461 481
f 461 471 481
f 462 470 482
f 471 462 472
f 462 482 472
f 463 464 465
f 463 478 464
f 479 463 465
f 477 478 463
f 491 477 463
f 491 463 479
f 465 464 466
f 466 464 480
f 478 492 464
f 464 492 480
f 479 465 467
f 466 480 468
f 468 479 467
f 480 479 468
f 470 469 482
f 482 469 481
f 471 472 473
f 471 473 483
f 481 471 483
f 473 472 474
f 472 484 474
f 472 482 484
f 473 474 475
f 487 473 475
f 483 473 485
f 485 473 487
f 475 474 476
f 474 488 476
f 474 484 486
f 486 488 474
f 475 476 477
f 489 475 477
f 487 475 489
f 477 476 478
f 478 476 490
f 476 488 490
f 489 477 491
f 478 490 492
f 480 491 479
f 492 491 480
f 482 481 484
f 484 481 483
f 483 486 484
f 485 486 483
f 486 485 488
f 488 485 487
f 488 487 490
f 490 487 489
f 490 489 492
f 492 489 491
