# CAD visual only; metres; body-local coordinates
v -0.0976514396 -0.0969443364 0.0075
v -0.0976514396 -0.0969443364 0.009499998
v -0.0945109896 -0.0993322984 0.0075
v -0.0945313026 -0.0992564244 0.009499998
v -0.0945404776 -0.0992182394 0.0075
v -0.0945762406 -0.0990252534 0.009499998
v -0.0945813706 -0.0989863054 0.0075
v -0.0945978126 -0.0987513774 0.009499998
v -0.0945981366 -0.0987121054 0.0075
v -0.0945895916 -0.0985160104 0.009499998
v -0.0945858146 -0.0984769104 0.0075
v -0.0945568046 -0.0982827804 0.009499998
v -0.0945489846 -0.0982443084 0.0075
v -0.0945109896 -0.0980919304 0.009499998
v -0.0942562636 -0.0999044274 0.0075
v -0.0943347696 -0.0997684144 0.009499998
v -0.0943529086 -0.0997335854 0.0075
v -0.0944486956 -0.0995184364 0.009499998
v -0.0944624476 -0.0994816444 0.0075
v -0.0944998316 -0.0993699494 0.009499998
v -0.0944998316 -0.0980542794 0.0075
v -0.0944880256 -0.0980168194 0.009499998
v -0.0944755706 -0.0979795684 0.0075
v -0.0943873366 -0.0977612154 0.009499998
v -0.0943704376 -0.0977257774 0.0075
v -0.0942562636 -0.0975197834 0.009499998
v -0.0940202286 -0.100217651 0.0075
v -0.0941912416 -0.100002655 0.009499998
v -0.0942134816 -0.0999702874 0.0075
v -0.0942351486 -0.0999375384 0.009499998
v -0.0942351486 -0.0974866714 0.0075
v -0.0940717466 -0.0972658394 0.009499998
v -0.0940462456 -0.0972359704 0.0075
v -0.0940202286 -0.0972065584 0.009499998
v -0.0937641106 -0.100460686 0.0075
v -0.0939666516 -0.100275082 0.009499998
v -0.0939936976 -0.100246605 0.0075
v -0.0939936976 -0.100246605 0.009499998
v -0.0939936976 -0.0971776054 0.0075
v -0.0938242866 -0.0970140114 0.009499998
v -0.0937944176 -0.0969885104 0.0075
v -0.0937641106 -0.0969635244 0.009499998
v -0.0935069806 -0.100640739 0.0075
v -0.0937022356 -0.100509037 0.009499998
v -0.0937333826 -0.100485138 0.0075
v -0.0937333826 -0.100485138 0.009499998
v -0.0937333826 -0.0969390914 0.0075
v -0.0935069806 -0.0967834894 0.009499998
v -0.0932632976 -0.100767578 0.0075
v -0.0932990416 -0.100751289 0.009499998
v -0.0933344796 -0.10073439 0.0075
v -0.0934731446 -0.100660671 0.009499998
v -0.0934731446 -0.0967635574 0.0075
v -0.0934731446 -0.0967635574 0.009499998
v -0.0934389646 -0.0967442174 0.0075
v -0.0932632976 -0.0966566314 0.009499998
v -0.0930059776 -0.100863785 0.0075
v -0.0932272866 -0.100783237 0.009499998
v -0.0932272866 -0.0966409724 0.0075
v -0.0930059776 -0.0965604254 0.009499998
v -0.0927774576 -0.100920776 0.0075
v -0.0929683266 -0.100874943 0.009499998
v -0.0929683266 -0.0965492674 0.0075
v -0.0927774576 -0.0965034524 0.009499998
v -0.0925050886 -0.100956634 0.0075
v -0.0927388526 -0.100927929 0.009499998
v -0.0927388526 -0.0964962814 0.0075
v -0.0925050886 -0.0964675944 0.009499998
v -0.0922696266 -0.100960735 0.0075
v -0.0924658926 -0.100959019 0.009499998
v -0.0924658926 -0.0964651914 0.0075
v -0.0922696266 -0.0964634744 0.009499998
v -0.0923481516 -0.0916410294 -0.022600002
v -0.0923481516 -0.0916410294 0.0075
v -0.0923481516 -0.0916410294 0.009499998
v -0.0923481516 -0.0916410294 0.013500004
v -0.0920350036 -0.100940212 0.0075
v -0.0922303916 -0.100959019 0.009499998
v -0.0922303916 -0.0964651914 0.0075
v -0.0920350036 -0.0964839974 0.009499998
v -0.0917658006 -0.100885433 0.0075
v -0.0919961696 -0.100934414 0.009499998
v -0.0919188266 -0.0965034524 0.0075
v -0.0917658006 -0.0965387764 0.009499998
v -0.0919961696 -0.0964898154 0.0075
v -0.0919574316 -0.0964962814 0.009499998
v -0.0915052756 -0.100798267 0.0075
v -0.0917279586 -0.100874943 0.009499998
v -0.0917279586 -0.0965492674 0.0075
v -0.0915052756 -0.0966259424 0.009499998
v -0.0913972626 -0.100751289 0.0075
v -0.0914689976 -0.100783237 0.009499998
v -0.0912573196 -0.100679993 0.0075
v -0.0913618046 -0.10073439 0.009499998
v -0.0914689976 -0.0966409724 0.0075
v -0.0912573196 -0.0967442174 0.009499998
v -0.0910256346 -0.100532402 0.0075
v -0.0912231406 -0.100660671 0.009499998
v -0.0912231406 -0.0967635574 0.0075
v -0.0910256346 -0.0968918274 0.009499998
v -0.0909940676 -0.100509037 0.0075
v -0.0909940676 -0.100509037 0.009499998
v -0.0907571556 -0.100303101 0.0075
v -0.0907571556 -0.100303101 0.009499998
v -0.0908720166 -0.0970140114 0.0075
v -0.0907571556 -0.0971211094 0.009499998
v -0.0909940676 -0.0969151734 0.0075
v -0.0909018666 -0.0969885104 0.009499998
v -0.0907296326 -0.100275082 0.0075
v -0.0907296326 -0.100275082 0.009499998
v -0.0905050616 -0.100002655 0.0075
v -0.0907026056 -0.100246605 0.009499998
v -0.0906245376 -0.0972658394 0.0075
v -0.0905050616 -0.0974215554 0.009499998
v -0.0907296326 -0.0971491284 0.0075
v -0.0906500586 -0.0972359704 0.009499998
v -0.0903615146 -0.0997684144 0.0075
v -0.0904828026 -0.0999702874 0.009499998
v -0.0902619896 -0.0995549624 0.0075
v -0.0903433756 -0.0997335854 0.009499998
v -0.0903089486 -0.0977612154 0.0075
v -0.0902619896 -0.0978692474 0.009499998
v -0.0904400406 -0.0975197834 0.0075
v -0.0903258666 -0.0977257774 0.009499998
v -0.0904828026 -0.0974539224 0.0075
v -0.0904611356 -0.0974866714 0.009499998
v -0.0902475886 -0.0995184364 0.0075
v -0.0902475886 -0.0995184364 0.009499998
v -0.0901649816 -0.0992564244 0.0075
v -0.0902338366 -0.0994816444 0.009499998
v -0.0901200446 -0.0990252534 0.0075
v -0.0901558076 -0.0992182394 0.009499998
v -0.0900984916 -0.0987513774 0.0075
v -0.0901149136 -0.0989863054 0.009499998
v -0.0901067116 -0.0985160104 0.0075
v -0.0900981476 -0.0987121054 0.009499998
v -0.0901394806 -0.0982827804 0.0075
v -0.0901104696 -0.0984769104 0.009499998
v -0.0902082596 -0.0980168194 0.0075
v -0.0901473196 -0.0982443084 0.009499998
v -0.0902475886 -0.0979057734 0.0075
v -0.0902207336 -0.0979795684 0.009499998
v -0.0875051836 -0.10609631 0.0075
v -0.0875147586 -0.106018356 0.009499998
v -0.0875185166 -0.105979275 0.0075
v -0.0875270806 -0.10578318 0.009499998
v -0.0875267366 -0.105743908 0.0075
v -0.0875103146 -0.105508961 0.009499998
v -0.0875051836 -0.105470032 0.0075
v -0.0875051836 -0.105470032 0.009499998
v -0.0872637136 -0.106839489 0.0075
v -0.0872993616 -0.106769508 0.009499998
v -0.0873162606 -0.10673407 0.0075
v -0.0874044946 -0.106515697 0.009499998
v -0.0874169496 -0.106478466 0.0075
v -0.0874779086 -0.106250977 0.009499998
v -0.0874857476 -0.106212486 0.0075
v -0.0874993856 -0.106135143 0.009499998
v -0.0874993856 -0.105431198 0.0075
v -0.0874694016 -0.105277027 0.009499998
v -0.0874602466 -0.105238842 0.0075
v -0.0873913916 -0.105013622 0.009499998
v -0.0873776396 -0.104976849 0.0075
v -0.0872818336 -0.1047617 0.009499998
v -0.0872637136 -0.104726871 0.0075
v -0.0872637136 -0.104726871 0.009499998
v -0.0870006706 -0.107229446 0.0075
v -0.0871640926 -0.107008614 0.009499998
v -0.0871851876 -0.106975483 0.0075
v -0.0872449646 -0.106873993 0.009499998
v -0.0872449646 -0.104692348 0.0075
v -0.0871424066 -0.104524998 0.009499998
v -0.0871201666 -0.10449263 0.0075
v -0.0870006706 -0.104336895 0.009499998
v -0.0867532116 -0.107481274 0.0075
v -0.0869751696 -0.107259315 0.009499998
v -0.0869751696 -0.104307045 0.0075
v -0.0869491536 -0.104277634 0.009499998
v -0.0869226226 -0.10424868 0.0075
v -0.0867532116 -0.104085087 0.009499998
v -0.0865025096 -0.107670177 0.0075
v -0.0867233426 -0.107506775 0.009499998
v -0.0867233426 -0.104059566 0.0075
v -0.0866623076 -0.104010147 0.009499998
v -0.0866311606 -0.103986248 0.0075
v -0.0865025096 -0.103896164 0.009499998
v -0.0862634046 -0.107805466 0.0075
v -0.0863679086 -0.107751068 0.009499998
v -0.0864020686 -0.107731728 0.0075
v -0.0864693986 -0.107691292 0.009499998
v -0.0864693986 -0.103875069 0.0075
v -0.0862634046 -0.103760895 0.009499998
v -0.0860096126 -0.107910599 0.0075
v -0.0862279656 -0.107822365 0.009499998
v -0.0862279656 -0.103743977 0.0075
v -0.0860096126 -0.103655762 0.009499998
v -0.0857832106 -0.107975506 0.0075
v -0.0859723626 -0.107923054 0.009499998
v -0.0859723626 -0.103643288 0.0075
v -0.0857832106 -0.103590836 0.009499998
v -0.0855122716 -0.108020843 0.0075
v -0.0856290586 -0.10800547 0.009499998
v -0.0856677776 -0.107998985 0.0075
v -0.0857448726 -0.107984013 0.009499998
v -0.0857448726 -0.103582348 0.0075
v -0.0855122716 -0.103545498 0.009499998
v -0.0852770766 -0.108033165 0.0075
v -0.0854731706 -0.10802462 0.009499998
v -0.0854731706 -0.10354174 0.0075
v -0.0852770766 -0.103533176 0.009499998
v -0.0850028756 -0.108016399 0.0075
v -0.0852378036 -0.108032841 0.009499998
v -0.0852378036 -0.10353352 0.0075
v -0.0850028756 -0.103549942 0.009499998
v -0.0849250946 -0.10800547 0.0075
v -0.0849639466 -0.108011269 0.009499998
v -0.0847709426 -0.107975506 0.0075
v -0.0848863746 -0.107998985 0.009499998
v -0.0849639466 -0.103555073 0.0075
v -0.0847709426 -0.103590836 0.009499998
v -0.0845075376 -0.107897476 0.0075
v -0.0847327576 -0.107966331 0.009499998
v -0.0847327576 -0.10360001 0.0075
v -0.0845075376 -0.103668865 0.009499998
v -0.0842555956 -0.107787937 0.0075
v -0.0844707446 -0.107883724 0.009499998
v -0.0842907486 -0.103760895 0.0075
v -0.0842555956 -0.103778404 0.009499998
v -0.0844707446 -0.103682617 0.0075
v -0.0843261866 -0.103743977 0.009499998
v -0.0841862636 -0.107751068 0.0075
v -0.0842207676 -0.107769798 0.009499998
v -0.0840188936 -0.10764851 0.0075
v -0.0841520836 -0.107731728 0.009499998
v -0.0842207676 -0.103796543 0.0075
v -0.0840188936 -0.103917831 0.009499998
v -0.0838308106 -0.107506775 0.0075
v -0.0839865266 -0.10762627 0.009499998
v -0.0837715296 -0.107455257 0.0075
v -0.0838009416 -0.107481274 0.009499998
v -0.0838918456 -0.104010147 0.0075
v -0.0837715296 -0.104111103 0.009499998
v -0.0839865266 -0.10394009 0.0075
v -0.0839229926 -0.103986248 0.009499998
v -0.0835093076 -0.111086468 0.0075
v -0.0835093076 -0.111086468 0.009499998
v -0.0836860806 -0.107374157 0.0075
v -0.0836860806 -0.107374157 0.009499998
v -0.0835040626 -0.107168411 0.0075
v -0.0835534816 -0.107229446 0.009499998
v -0.0836049996 -0.104277634 0.0075
v -0.0835040626 -0.10439793 0.009499998
v -0.0837425766 -0.104137634 0.0075
v -0.0836315306 -0.10424868 0.009499998
v -0.0833900596 -0.107008614 0.0075
v -0.0834801446 -0.107137264 0.009499998
v -0.0832547906 -0.106769508 0.0075
v -0.0833689646 -0.106975483 0.009499998
v -0.0832723196 -0.1047617 0.0075
v -0.0832547906 -0.104796833 0.009499998
v -0.0834117466 -0.104524998 0.0075
v -0.0832904396 -0.104726871 0.009499998
v -0.0834801446 -0.104429096 0.0075
v -0.0834339866 -0.10449263 0.009499998
v -0.0831496576 -0.106515697 0.0075
v -0.0832378916 -0.10673407 0.009499998
v -0.0830762436 -0.106250977 0.0075
v -0.0831372026 -0.106478466 0.009499998
v -0.0830394126 -0.106018356 0.0075
v -0.0830684236 -0.106212486 0.009499998
v -0.0830270726 -0.10578318 0.0075
v -0.0830356366 -0.105979275 0.009499998
v -0.0830438576 -0.105508961 0.0075
v -0.0830274156 -0.105743908 0.009499998
v -0.0830847506 -0.105277027 0.0075
v -0.0830489686 -0.105470032 0.009499998
v -0.0831627616 -0.105013622 0.0075
v -0.0830939056 -0.105238842 0.009499998
v -0.0832378916 -0.104832291 0.0075
v -0.0831765136 -0.104976849 0.009499998
v -0.0782060006 -0.10578318 -0.022600002
v -0.0782060006 -0.10578318 0.0075
v -0.0782060006 -0.10578318 0.009499998
v -0.0782060006 -0.10578318 0.013500004
v -0.0697607376 -0.0790820164 0.013500004
v -0.0697607376 -0.0790820164 0.019499998
v -0.0697887186 -0.0789810984 0.013500004
v -0.0698393776 -0.0787778894 0.019499998
v -0.0698620566 -0.0786756554 0.013500004
v -0.0698829226 -0.0785730404 0.019499998
v -0.0699020156 -0.0784700814 0.013500004
v -0.0699347646 -0.0782632294 0.019499998
v -0.0699484406 -0.0781594124 0.013500004
v -0.0699603036 -0.0780553664 0.019499998
v -0.0699703366 -0.0779511304 0.013500004
v -0.0699785576 -0.0778467224 0.019499998
v -0.0699849466 -0.0777421994 0.013500004
v -0.0699922516 -0.0775329064 0.019499998
v -0.0699931676 -0.0774281924 0.013500004
v -0.0699922516 -0.0773234794 0.019499998
v -0.0699895056 -0.0772188034 0.013500004
v -0.0699785576 -0.0770096634 0.019499998
v -0.0699703366 -0.0769052544 0.013500004
v -0.0699603036 -0.0768010184 0.019499998
v -0.0699484406 -0.0766969724 0.013500004
v -0.0699347646 -0.0765931554 0.019499998
v -0.0699192956 -0.0764895864 0.013500004
v -0.0698829226 -0.0762833444 0.019499998
v -0.0698620566 -0.0761807294 0.013500004
v -0.0698393776 -0.0760784954 0.019499998
v -0.0698149446 -0.0759766624 0.013500004
v -0.0697607376 -0.0757743684 0.019499998
v -0.0695161966 -0.0797725724 0.013500004
v -0.0695161966 -0.0797725724 0.019499998
v -0.0695562706 -0.0796758314 0.013500004
v -0.0695946456 -0.0795784034 0.019499998
v -0.0696313246 -0.0794803084 0.013500004
v -0.0696995126 -0.0792822884 0.019499998
v -0.0697309836 -0.0791824194 0.013500004
v -0.0697309836 -0.0791824194 0.019499998
v -0.0697309836 -0.0756739654 0.013500004
v -0.0696995126 -0.0755740974 0.019499998
v -0.0696662666 -0.0754747814 0.013500004
v -0.0695946456 -0.0752779814 0.019499998
v -0.0695562706 -0.0751805534 0.013500004
v -0.0695161966 -0.0750838134 0.019499998
v -0.0692908436 -0.0802450224 0.013500004
v -0.0693859246 -0.0800584264 0.019499998
v -0.0694310146 -0.0799638984 0.013500004
v -0.0694744446 -0.0798686074 0.019499998
v -0.0694744446 -0.0749877784 0.013500004
v -0.0693859246 -0.0747979584 0.019499998
v -0.0693391946 -0.0747042504 0.013500004
v -0.0692908436 -0.0746113624 0.019499998
v -0.0690251876 -0.0806960334 0.013500004
v -0.0691361766 -0.0805184214 0.019499998
v -0.0691893156 -0.0804281844 0.013500004
v -0.0692408906 -0.0803370514 0.019499998
v -0.0692408906 -0.0745193334 0.013500004
v -0.0692408906 -0.0745193334 0.019499998
v -0.0691893156 -0.0744282004 0.013500004
v -0.0691361766 -0.0743379634 0.019499998
v -0.0690814546 -0.0742486804 0.013500004
v -0.0690251876 -0.0741603514 0.019499998
v -0.0687849766 -0.0810390894 0.013500004
v -0.0687849766 -0.0810390894 0.019499998
v -0.0688472706 -0.0809548994 0.013500004
v -0.0689673956 -0.0807833524 0.019499998
v -0.0689673956 -0.0740730324 0.013500004
v -0.0689673956 -0.0740730324 0.019499998
v -0.0689080766 -0.0739867254 0.013500004
v -0.0687849766 -0.0738172954 0.019499998
v -0.0685214196 -0.0813645404 0.013500004
v -0.0685894356 -0.0812849084 0.019499998
v -0.0686560396 -0.0812041134 0.013500004
v -0.0687212326 -0.0811221544 0.019499998
v -0.0687212326 -0.0737342304 0.013500004
v -0.0685894356 -0.0735714764 0.019499998
v -0.0685214196 -0.0734918444 0.013500004
v -0.0685214196 -0.0734918444 0.019499998
v -0.0683092076 -0.0815961494 0.013500004
v -0.0683812866 -0.0815201804 0.019499998
v -0.0684520296 -0.0814429704 0.013500004
v -0.0684520296 -0.0814429704 0.019499998
v -0.0684520296 -0.0734134144 0.013500004
v -0.0683092076 -0.0732602354 0.019499998
v -0.0680079416 -0.0818870584 0.013500004
v -0.0680851516 -0.0818163154 0.019499998
v -0.0681611206 -0.0817442364 0.013500004
v -0.0682358126 -0.0816708414 0.019499998
v -0.0682358126 -0.0731855434 0.013500004
v -0.0682358126 -0.0731855434 0.019499998
v -0.0680079416 -0.0729693264 0.013500004
v -0.0680079416 -0.0729693264 0.019499998
v -0.0677690846 -0.0820910684 0.013500004
v -0.0678498796 -0.0820244644 0.019499998
v -0.0679295116 -0.0819564484 0.013500004
v -0.0679295116 -0.0819564484 0.019499998
v -0.0679295116 -0.0728999374 0.013500004
v -0.0677690846 -0.0727653164 0.019499998
v -0.0675198706 -0.0822822994 0.013500004
v -0.0675198706 -0.0822822994 0.019499998
v -0.0676040606 -0.0822200054 0.013500004
v -0.0676871256 -0.0821562614 0.019499998
v -0.0676871256 -0.0727001234 0.013500004
v -0.0675198706 -0.0725740854 0.019499998
v -0.0672610046 -0.0824602164 0.013500004
v -0.0674346306 -0.0823431054 0.019499998
v -0.0674346306 -0.0725132794 0.013500004
v -0.0674346306 -0.0725132794 0.019499998
v -0.0673483236 -0.0724539604 0.013500004
v -0.0672610046 -0.0723961684 0.019499998
v -0.0670833926 -0.0825712054 0.013500004
v -0.0671726756 -0.0825164834 0.019499998
v -0.0671726756 -0.0723399014 0.013500004
v -0.0670833926 -0.0722851794 0.019499998
v -0.0668099936 -0.0827258724 0.013500004
v -0.0669931556 -0.0826243444 0.019499998
v -0.0669931556 -0.0722320404 0.013500004
v -0.0668099936 -0.0721305124 0.019499998
v -0.0665288696 -0.0828660434 0.013500004
v -0.0667171056 -0.0827742234 0.019499998
v -0.0667171056 -0.0720821614 0.013500004
v -0.0666233976 -0.0720354314 0.019499998
v -0.0665288696 -0.0719903414 0.013500004
v -0.0665288696 -0.0719903414 0.019499998
v -0.0663375436 -0.0829512254 0.013500004
v -0.0664335786 -0.0829094734 0.019499998
v -0.0664335786 -0.0719469114 0.013500004
v -0.0663375436 -0.0719051594 0.019499998
v -0.0660452796 -0.0830663534 0.013500004
v -0.0661433746 -0.0830296744 0.019499998
v -0.0662408026 -0.0829912994 0.013500004
v -0.0662408026 -0.0829912994 0.019499998
v -0.0662408026 -0.0718650864 0.013500004
v -0.0660452796 -0.0717900314 0.019499998
v -0.0658472596 -0.0831345414 0.013500004
v -0.0659465746 -0.0831012954 0.019499998
v -0.0659465746 -0.0717550894 0.013500004
v -0.0659465746 -0.0717550894 0.019499998
v -0.0658472596 -0.0717218444 0.013500004
v -0.0658472596 -0.0717218444 0.019499998
v -0.0655460696 -0.0832237474 0.013500004
v -0.0657473906 -0.0831660124 0.019499998
v -0.0657473906 -0.0716903724 0.013500004
v -0.0655460696 -0.0716326374 0.019499998
v -0.0653428606 -0.0832744064 0.013500004
v -0.0653428606 -0.0832744064 0.019499998
v -0.0654446946 -0.0832499734 0.013500004
v -0.0654446946 -0.0832499734 0.019499998
v -0.0654446946 -0.0716064114 0.013500004
v -0.0653428606 -0.0715819784 0.019499998
v -0.0650350526 -0.0833370444 0.013500004
v -0.0652406266 -0.0832970854 0.019499998
v -0.0652406266 -0.0715592994 0.013500004
v -0.0650350526 -0.0715193404 0.019499998
v -0.0648282006 -0.0833697934 0.013500004
v -0.0649317696 -0.0833543244 0.019499998
v -0.0649317696 -0.0715020604 0.013500004
v -0.0649317696 -0.0715020604 0.019499998
v -0.0648282006 -0.0714865914 0.013500004
v -0.0648282006 -0.0714865914 0.019499998
v -0.0645161016 -0.0834053654 0.013500004
v -0.0647243836 -0.0833834694 0.019499998
v -0.0647243836 -0.0714729164 0.013500004
v -0.0645161016 -0.0714510194 0.019499998
v -0.0643071706 -0.0834199754 0.013500004
v -0.0644116936 -0.0834135864 0.019499998
v -0.0644116936 -0.0714427994 0.013500004
v -0.0643071706 -0.0714364094 0.019499998
v -0.0640978776 -0.0834272804 0.013500004
v -0.0642025526 -0.0834245344 0.019499998
v -0.0642025526 -0.0714318504 0.013500004
v -0.0640978776 -0.0714291044 0.019499998
v -0.0637837746 -0.0834245344 0.013500004
v -0.0639931636 -0.0834281964 0.019499998
v -0.0639931636 -0.0714281884 0.013500004
v -0.0637837746 -0.0714318504 0.019499998
v -0.0635746346 -0.0834135864 0.013500004
v -0.0636791566 -0.0834199754 0.019499998
v -0.0636791566 -0.0714364094 0.013500004
v -0.0635746346 -0.0714427994 0.019499998
v -0.0637103226 -0.0630032104 -0.022600002
v -0.0637103226 -0.0630032104 0.0075
v -0.0637103226 -0.0630032104 0.009499998
v -0.0637103226 -0.0630032104 0.013500004
v -0.0632619436 -0.0833834694 0.013500004
v -0.0634702256 -0.0834053654 0.019499998
v -0.0634702256 -0.0714510194 0.013500004
v -0.0632619436 -0.0714729164 0.019499998
v -0.0630545576 -0.0833543244 0.013500004
v -0.0631581266 -0.0833697934 0.019499998
v -0.0630545576 -0.0715020604 0.013500004
v -0.0630545576 -0.0715020604 0.019499998
v -0.0631581266 -0.0714865914 0.013500004
v -0.0631581266 -0.0714865914 0.019499998
v -0.0628483156 -0.0833179514 0.013500004
v -0.0629512746 -0.0833370444 0.019499998
v -0.0629512746 -0.0715193404 0.013500004
v -0.0628483156 -0.0715384334 0.019499998
v -0.0626434666 -0.0832744064 0.013500004
v -0.0627457006 -0.0832970854 0.019499998
v -0.0625416336 -0.0832499734 0.013500004
v -0.0625416336 -0.0832499734 0.019499998
v -0.0627457006 -0.0715592994 0.013500004
v -0.0625416336 -0.0716064114 0.019499998
v -0.0623393396 -0.0831957664 0.013500004
v -0.0624402576 -0.0832237474 0.019499998
v -0.0624402576 -0.0716326374 0.013500004
v -0.0623393396 -0.0716606184 0.019499998
v -0.0620397526 -0.0831012954 0.013500004
v -0.0622389366 -0.0831660124 0.019499998
v -0.0620397526 -0.0717550894 0.013500004
v -0.0620397526 -0.0717550894 0.019499998
v -0.0622389366 -0.0716903724 0.013500004
v -0.0621390686 -0.0717218444 0.019499998
v -0.0618429526 -0.0830296744 0.013500004
v -0.0619410476 -0.0830663534 0.019499998
v -0.0619410476 -0.0717900314 0.013500004
v -0.0618429526 -0.0718267104 0.019499998
v -0.0615527496 -0.0829094734 0.013500004
v -0.0617455246 -0.0829912994 0.019499998
v -0.0617455246 -0.0718650864 0.013500004
v -0.0615527496 -0.0719469114 0.019499998
v -0.0612692216 -0.0827742234 0.013500004
v -0.0614574586 -0.0828660434 0.019499998
v -0.0613629296 -0.0720354314 0.013500004
v -0.0612692216 -0.0720821614 0.019499998
v -0.0614574586 -0.0719903414 0.013500004
v -0.0614574586 -0.0719903414 0.019499998
v -0.0610843046 -0.0826759194 0.013500004
v -0.0611763336 -0.0827258724 0.019499998
v -0.0611763336 -0.0721305124 0.013500004
v -0.0610843046 -0.0721804664 0.019499998
v -0.0608136516 -0.0825164834 0.013500004
v -0.0609931716 -0.0826243444 0.019499998
v -0.0609029346 -0.0722851794 0.013500004
v -0.0608136516 -0.0723399014 0.019499998
v -0.0609931716 -0.0722320404 0.013500004
v -0.0609931716 -0.0722320404 0.019499998
v -0.0605516966 -0.0823431054 0.013500004
v -0.0607253226 -0.0824602164 0.019499998
v -0.0605516966 -0.0725132794 0.013500004
v -0.0605516966 -0.0725132794 0.019499998
v -0.0607253226 -0.0723961684 0.013500004
v -0.0606380036 -0.0724539604 0.019499998
v -0.0604664566 -0.0822822994 0.013500004
v -0.0604664566 -0.0822822994 0.019499998
v -0.0602992016 -0.0821562614 0.013500004
v -0.0603822666 -0.0822200054 0.019499998
v -0.0604664566 -0.0725740854 0.013500004
v -0.0602992016 -0.0727001234 0.019499998
v -0.0601364476 -0.0820244644 0.013500004
v -0.0602172426 -0.0820910684 0.019499998
v -0.0600568156 -0.0819564484 0.013500004
v -0.0600568156 -0.0819564484 0.019499998
v -0.0602172426 -0.0727653164 0.013500004
v -0.0600568156 -0.0728999374 0.019499998
v -0.0599011756 -0.0818163154 0.013500004
v -0.0599783856 -0.0818870584 0.019499998
v -0.0597505146 -0.0816708414 0.013500004
v -0.0598252066 -0.0817442364 0.019499998
v -0.0599011756 -0.0730400704 0.013500004
v -0.0597505146 -0.0731855434 0.019499998
v -0.0599783856 -0.0729693264 0.013500004
v -0.0599783856 -0.0729693264 0.019499998
v -0.0596050416 -0.0815201804 0.013500004
v -0.0596771196 -0.0815961494 0.019499998
v -0.0595342976 -0.0814429704 0.013500004
v -0.0595342976 -0.0814429704 0.019499998
v -0.0596771196 -0.0732602354 0.013500004
v -0.0595342976 -0.0734134144 0.019499998
v -0.0593968926 -0.0812849084 0.013500004
v -0.0594649086 -0.0813645404 0.019499998
v -0.0592650946 -0.0811221544 0.013500004
v -0.0593302876 -0.0812041134 0.019499998
v -0.0593968926 -0.0735714764 0.013500004
v -0.0592650946 -0.0737342304 0.019499998
v -0.0594649086 -0.0734918444 0.013500004
v -0.0594649086 -0.0734918444 0.019499998
v -0.0592013506 -0.0810390894 0.013500004
v -0.0592013506 -0.0810390894 0.019499998
v -0.0590189316 -0.0807833524 0.013500004
v -0.0591390566 -0.0809548994 0.019499998
v -0.0590189316 -0.0740730324 0.013500004
v -0.0590189316 -0.0740730324 0.019499998
v -0.0592013506 -0.0738172954 0.013500004
v -0.0590782506 -0.0739867254 0.019499998
v -0.0588501506 -0.0805184214 0.013500004
v -0.0589611396 -0.0806960334 0.019499998
v -0.0587970116 -0.0804281844 0.013500004
v -0.0587970116 -0.0804281844 0.019499998
v -0.0588501506 -0.0743379634 0.013500004
v -0.0587970116 -0.0744282004 0.019499998
v -0.0589611396 -0.0741603514 0.013500004
v -0.0589048726 -0.0742486804 0.019499998
v -0.0587535626 -0.0637727584 0.0075
v -0.0587535626 -0.0637727584 0.009499998
v -0.0587666656 -0.0637357464 0.0075
v -0.0588315926 -0.0635093544 0.009499998
v -0.0588400796 -0.0634710164 0.0075
v -0.0588724856 -0.0632774204 0.009499998
v -0.0588769296 -0.0632384054 0.0075
v -0.0588892516 -0.0630032104 0.009499998
v -0.0588889076 -0.0629639474 0.0075
v -0.0588769296 -0.0627680244 0.009499998
v -0.0588724856 -0.0627290104 0.0075
v -0.0588400796 -0.0625354144 0.009499998
v -0.0588315926 -0.0624970764 0.0075
v -0.0587666656 -0.0622706834 0.009499998
v -0.0587535626 -0.0622336714 0.0075
v -0.0587535626 -0.0622336714 0.009499998
v -0.0587454376 -0.0803370514 0.013500004
v -0.0587454376 -0.0803370514 0.019499998
v -0.0586004026 -0.0800584264 0.013500004
v -0.0586954836 -0.0802450224 0.019499998
v -0.0585118826 -0.0798686074 0.013500004
v -0.0585553126 -0.0799638984 0.019499998
v -0.0586004026 -0.0747979584 0.013500004
v -0.0585118826 -0.0749877784 0.019499998
v -0.0587454376 -0.0745193334 0.013500004
v -0.0586471326 -0.0747042504 0.019499998
v -0.0585045966 -0.0642614024 0.0075
v -0.0585045966 -0.0642614024 0.009499998
v -0.0585262636 -0.0642286534 0.0075
v -0.0586440236 -0.0640246914 0.009499998
v -0.0586615326 -0.0639895484 0.0075
v -0.0587398106 -0.0638095424 0.009499998
v -0.0587398106 -0.0621968884 0.0075
v -0.0586615326 -0.0620168824 0.009499998
v -0.0586440236 -0.0619817394 0.0075
v -0.0585262636 -0.0617777774 0.009499998
v -0.0585045966 -0.0617450284 0.0075
v -0.0585045966 -0.0617450284 0.009499998
v -0.0584701306 -0.0797725724 0.013500004
v -0.0584701306 -0.0797725724 0.019499998
v -0.0583916816 -0.0795784034 0.013500004
v -0.0584300576 -0.0796758314 0.019499998
v -0.0582868156 -0.0792822884 0.013500004
v -0.0583550026 -0.0794803084 0.019499998
v -0.0582553436 -0.0791824194 0.013500004
v -0.0582553436 -0.0791824194 0.019499998
v -0.0582868156 -0.0755740974 0.013500004
v -0.0582553436 -0.0756739654 0.019499998
v -0.0583916816 -0.0752779814 0.013500004
v -0.0583200606 -0.0754747814 0.019499998
v -0.0584701306 -0.0750838134 0.013500004
v -0.0584300576 -0.0751805534 0.019499998
v -0.0582577666 -0.0645661964 0.0075
v -0.0583113246 -0.0645087574 0.009499998
v -0.0583373406 -0.0644793454 0.0075
v -0.0584823376 -0.0642937604 0.009499998
v -0.0584823376 -0.0617126694 0.0075
v -0.0583373406 -0.0615270844 0.009499998
v -0.0583113246 -0.0614976734 0.0075
v -0.0582577666 -0.0614402334 0.009499998
v -0.0584070166 -0.0576999134 0.0075
v -0.0584070166 -0.0576999134 0.009499998
v -0.0582255896 -0.0790820164 0.013500004
v -0.0582255896 -0.0790820164 0.019499998
v -0.0581469496 -0.0787778894 0.013500004
v -0.0581976086 -0.0789810984 0.019499998
v -0.0581034046 -0.0785730404 0.013500004
v -0.0581242706 -0.0786756554 0.019499998
v -0.0580515626 -0.0782632294 0.013500004
v -0.0580843116 -0.0784700814 0.019499998
v -0.0580260236 -0.0780553664 0.013500004
v -0.0580378876 -0.0781594124 0.019499998
v -0.0580077706 -0.0778467224 0.013500004
v -0.0580159906 -0.0779511304 0.019499998
v -0.0580013806 -0.0777421994 0.013500004
v -0.0580013806 -0.0777421994 0.019499998
v -0.0580077706 -0.0770096634 0.013500004
v -0.0580013806 -0.0771141854 0.019499998
v -0.0580260236 -0.0768010184 0.013500004
v -0.0580159906 -0.0769052544 0.019499998
v -0.0580515626 -0.0765931554 0.013500004
v -0.0580378876 -0.0766969724 0.019499998
v -0.0581034046 -0.0762833444 0.013500004
v -0.0580670316 -0.0764895864 0.019499998
v -0.0581469496 -0.0760784954 0.013500004
v -0.0581242706 -0.0761807294 0.019499998
v -0.0582255896 -0.0757743684 0.013500004
v -0.0581713826 -0.0759766624 0.019499998
v -0.0580244976 -0.0647762344 0.0075
v -0.0580552246 -0.0647517914 0.009499998
v -0.0580855326 -0.0647268144 0.0075
v -0.0582302436 -0.0645942064 0.009499998
v -0.0582302436 -0.0614122244 0.0075
v -0.0580552246 -0.0612546394 0.009499998
v -0.0580244976 -0.0612301864 0.0075
v -0.0580244976 -0.0612301864 0.009499998
v -0.0579940756 -0.0775329064 0.013500004
v -0.0579968216 -0.0776375814 0.019499998
v -0.0579940756 -0.0773234794 0.013500004
v -0.0579931596 -0.0774281924 0.019499998
v -0.0579968216 -0.0772188034 0.013500004
v -0.0579968216 -0.0772188034 0.019499998
v -0.0577642586 -0.0649517674 0.0075
v -0.0579933316 -0.0648001424 0.009499998
v -0.0579933316 -0.0612062874 0.0075
v -0.0577642586 -0.0610546534 0.009499998
v -0.0575184016 -0.0650743524 0.0075
v -0.0576607276 -0.0650079764 0.009499998
v -0.0576955566 -0.0649898474 0.0075
v -0.0577300796 -0.0649711074 0.009499998
v -0.0577300796 -0.0610353224 0.0075
v -0.0576955566 -0.0610165824 0.009499998
v -0.0576607276 -0.0609984534 0.0075
v -0.0575184016 -0.0609320774 0.009499998
v -0.0572594406 -0.0651660484 0.0075
v -0.0574821236 -0.0650893824 0.009499998
v -0.0574821236 -0.0609170474 0.0075
v -0.0572594406 -0.0608403724 0.009499998
v -0.0570299676 -0.0652190344 0.0075
v -0.0572215996 -0.0651765484 0.009499998
v -0.0572215996 -0.0608298824 0.0075
v -0.0570299676 -0.0607873954 0.009499998
v -0.0567570076 -0.0652501334 0.0075
v -0.0567570076 -0.0652501334 0.009499998
v -0.0567962036 -0.0652477304 0.0075
v -0.0569912296 -0.0652255104 0.009499998
v -0.0569912296 -0.0607809104 0.0075
v -0.0567570076 -0.0607562964 0.009499998
v -0.0565214876 -0.0652501334 0.0075
v -0.0567177726 -0.0652518414 0.009499998
v -0.0567177726 -0.0607545894 0.0075
v -0.0565214876 -0.0607562964 0.009499998
v -0.0562872846 -0.0652255104 0.0075
v -0.0564822916 -0.0652477304 0.009499998
v -0.0564822916 -0.0607586994 0.0075
v -0.0562872846 -0.0607809104 0.009499998
v -0.0560190736 -0.0651660484 0.0075
v -0.0562485466 -0.0652190344 0.009499998
v -0.0562485466 -0.0607873954 0.0075
v -0.0560190736 -0.0608403724 0.009499998
v -0.0557601126 -0.0650743524 0.0075
v -0.0559814216 -0.0651549004 0.009499998
v -0.0559814216 -0.0608515304 0.0075
v -0.0557601126 -0.0609320774 0.009499998
v -0.0556177666 -0.0650079764 0.0075
v -0.0557241016 -0.0650586934 0.009499998
v -0.0555142556 -0.0649517674 0.0075
v -0.0555829386 -0.0649898474 0.009499998
v -0.0555829386 -0.0610165824 0.0075
v -0.0555142556 -0.0610546534 0.009499998
v -0.0557241016 -0.0609477374 0.0075
v -0.0556177666 -0.0609984534 0.009499998
v -0.0552540166 -0.0647762344 0.0075
v -0.0554804186 -0.0649318454 0.009499998
v -0.0554804186 -0.0610745854 0.0075
v -0.0552540166 -0.0612301864 0.009499998
v -0.0552232896 -0.0647517914 0.0075
v -0.0552232896 -0.0647517914 0.009499998
v -0.0550482706 -0.0645942064 0.0075
v -0.0550482706 -0.0645942064 0.009499998
v -0.0552232896 -0.0612546394 0.0075
v -0.0550207476 -0.0614402334 0.009499998
v -0.0549671706 -0.0645087574 0.0075
v -0.0549937016 -0.0645377104 0.009499998
v -0.0547739176 -0.0642614024 0.0075
v -0.0549411546 -0.0644793454 0.009499998
v -0.0547522506 -0.0642286534 0.0075
v -0.0547522506 -0.0642286534 0.009499998
v -0.0547522506 -0.0617777774 0.0075
v -0.0547522506 -0.0617777774 0.009499998
v -0.0549411546 -0.0615270844 0.0075
v -0.0547739176 -0.0617450284 0.009499998
v -0.0549937016 -0.0614687194 0.0075
v -0.0549671706 -0.0614976734 0.009499998
v -0.0546344906 -0.0640246914 0.0075
v -0.0547311356 -0.0641955324 0.009499998
v -0.0545249516 -0.0637727584 0.0075
v -0.0546169616 -0.0639895484 0.009499998
v -0.0545118286 -0.0637357464 0.0075
v -0.0545118286 -0.0637357464 0.009499998
v -0.0545118286 -0.0622706834 0.0075
v -0.0545118286 -0.0622706834 0.009499998
v -0.0546169616 -0.0620168824 0.0075
v -0.0545249516 -0.0622336714 0.009499998
v -0.0547311356 -0.0618108984 0.0075
v -0.0546344906 -0.0619817394 0.009499998
v -0.0544469216 -0.0635093544 0.0075
v -0.0544993736 -0.0636985054 0.009499998
v -0.0544060286 -0.0632774204 0.0075
v -0.0544384156 -0.0634710164 0.009499998
v -0.0543892436 -0.0630032104 0.0075
v -0.0544015846 -0.0632384054 0.009499998
v -0.0544015846 -0.0627680244 0.0075
v -0.0543895866 -0.0629639474 0.009499998
v -0.0544384156 -0.0625354144 0.0075
v -0.0544060286 -0.0627290104 0.009499998
v -0.0544993736 -0.0623079244 0.0075
v -0.0544469216 -0.0624970764 0.009499998
v -0.0517513426 -0.0706186144 0.0075
v -0.0517768436 -0.0705036014 0.009499998
v -0.0517839966 -0.0704649964 0.0075
v -0.0518096306 -0.0702703904 0.009499998
v -0.0518127016 -0.0702312324 0.0075
v -0.0518178516 -0.0700350234 0.009499998
v -0.0518168216 -0.0699957504 0.0075
v -0.0517962796 -0.0697611474 0.009499998
v -0.0517904816 -0.0697223134 0.0075
v -0.0517513426 -0.0695299574 0.009499998
v -0.0515167386 -0.0711992874 0.0075
v -0.0516073756 -0.0710251664 0.009499998
v -0.0516236646 -0.0709894414 0.0075
v -0.0517080646 -0.0707695624 0.009499998
v -0.0517198716 -0.0707321204 0.0075
v -0.0517415196 -0.0706566284 0.009499998
v -0.0517415196 -0.0694919434 0.0075
v -0.0516687356 -0.0692679444 0.009499998
v -0.0516543536 -0.0692314194 0.0075
v -0.0515548096 -0.0690179674 0.009499998
v -0.0515360786 -0.0689834634 0.0075
v -0.0515167386 -0.0689492844 0.009499998
v -0.0512662846 -0.0715504114 0.0075
v -0.0512917856 -0.0715205614 0.009499998
v -0.0513167716 -0.0714902534 0.0075
v -0.0514763026 -0.0712665984 0.009499998
v -0.0514968066 -0.0712331244 0.0075
v -0.0514968066 -0.0712331244 0.009499998
v -0.0514968066 -0.0689154474 0.0075
v -0.0513884696 -0.0687517594 0.009499998
v -0.0513651236 -0.0687201924 0.0075
v -0.0512662846 -0.0685981414 0.009499998
v -0.0510144576 -0.0717978904 0.0075
v -0.0510443266 -0.0717723694 0.009499998
v -0.0510737376 -0.0717463534 0.0075
v -0.0512402686 -0.0715798234 0.009499998
v -0.0512402686 -0.0685687294 0.0075
v -0.0511866906 -0.0685112994 0.009499998
v -0.0511591676 -0.0684832994 0.0075
v -0.0510144576 -0.0683506814 0.009499998
v -0.0507605126 -0.0719823884 0.0075
v -0.0509841496 -0.0718228574 0.009499998
v -0.0509841496 -0.0683256954 0.0075
v -0.0508907086 -0.0682539984 0.009499998
v -0.0508587416 -0.0682311864 0.0075
v -0.0507605126 -0.0681661644 0.009499998
v -0.0505190806 -0.0721134804 0.0075
v -0.0507270196 -0.0720029114 0.009499998
v -0.0507270196 -0.0681456604 0.0075
v -0.0505190806 -0.0680350914 0.009499998
v -0.0502634766 -0.0722141494 0.0075
v -0.0504833366 -0.0721297684 0.009499998
v -0.0504833366 -0.0680188034 0.0075
v -0.0504473266 -0.0680031434 0.009499998
v -0.0504110486 -0.0679881134 0.0075
v -0.0502634766 -0.0679344024 0.009499998
v -0.0500359876 -0.0722751084 0.0075
v -0.0501125106 -0.0722574464 0.009499998
v -0.0501505236 -0.0722476234 0.0075
v -0.0502260166 -0.0722259754 0.009499998
v -0.0502260166 -0.0679225964 0.0075
v -0.0500359876 -0.0678734444 0.009499998
v -0.0497642856 -0.0723157164 0.0075
v -0.0499974976 -0.0722829484 0.009499998
v -0.0499974976 -0.0678656234 0.0075
v -0.0497642856 -0.0678328364 0.009499998
v -0.0495681916 -0.0771453514 -0.022600002
v -0.0495681916 -0.0771453514 0.0075
v -0.0495681916 -0.0771453514 0.009499998
v -0.0495681916 -0.0771453514 0.013500004
v -0.0495289186 -0.0723239364 0.0075
v -0.0497251466 -0.0723188064 0.009499998
v -0.0497251466 -0.0678297654 0.0075
v -0.0495289186 -0.0678246154 0.009499998
v -0.0492550426 -0.0723023834 0.0075
v -0.0494896656 -0.0723229064 0.009499998
v -0.0494896656 -0.0678256454 0.0075
v -0.0492550426 -0.0678461884 0.009499998
v -0.0490238526 -0.0722574464 0.0075
v -0.0492162086 -0.0722965854 0.009499998
v -0.0492162086 -0.0678519864 0.0075
v -0.0490238526 -0.0678911254 0.009499998
v -0.0487618596 -0.0721748394 0.0075
v -0.0489858396 -0.0722476234 0.009499998
v -0.0489858396 -0.0679009484 0.0075
v -0.0487618596 -0.0679737324 0.009499998
v -0.0485118826 -0.0720609134 0.0075
v -0.0487253146 -0.0721604384 0.009499998
v -0.0486890366 -0.0680031434 0.0075
v -0.0485118826 -0.0680876584 0.009499998
v -0.0487253146 -0.0679881134 0.0075
v -0.0487253146 -0.0679881134 0.009499998
v -0.0484093436 -0.0720029114 0.0075
v -0.0484773596 -0.0720421834 0.009499998
v -0.0482776406 -0.0719173664 0.0075
v -0.0483758696 -0.0719823884 0.009499998
v -0.0484773596 -0.0681063884 0.0075
v -0.0482776406 -0.0682311864 0.009499998
v -0.0480920556 -0.0717723694 0.0075
v -0.0482456736 -0.0718945734 0.009499998
v -0.0480051956 -0.0716927954 0.0075
v -0.0480626446 -0.0717463534 0.009499998
v -0.0482456736 -0.0682539984 0.0075
v -0.0480051956 -0.0684557764 0.009499998
v -0.0479771956 -0.0716652724 0.0075
v -0.0479771956 -0.0716652724 0.009499998
v -0.0477712586 -0.0714283604 0.0075
v -0.0478196106 -0.0714902534 0.009499998
v -0.0479496726 -0.0685112994 0.0075
v -0.0477712586 -0.0687201924 0.009499998
v -0.0479771956 -0.0684832994 0.0075
v -0.0479771956 -0.0684832994 0.009499998
v -0.0476600796 -0.0712665984 0.0075
v -0.0477478936 -0.0713967934 0.009499998
v -0.0475289876 -0.0710251664 0.0075
v -0.0476395566 -0.0712331244 0.009499998
v -0.0475126986 -0.0709894414 0.0075
v -0.0475126986 -0.0709894414 0.009499998
v -0.0475815536 -0.0690179674 0.0075
v -0.0475126986 -0.0691591304 0.009499998
v -0.0477478936 -0.0687517594 0.0075
v -0.0476002846 -0.0689834634 0.009499998
v -0.0474283176 -0.0707695624 0.0075
v -0.0474970586 -0.0709534304 0.009499998
v -0.0473595196 -0.0705036014 0.0075
v -0.0474164926 -0.0707321204 0.009499998
v -0.0473267516 -0.0702703904 0.0075
v -0.0473523666 -0.0704649964 0.009499998
v -0.0473185306 -0.0700350234 0.0075
v -0.0473236616 -0.0702312324 0.009499998
v -0.0473400836 -0.0697611474 0.0075
v -0.0473195606 -0.0699957504 0.009499998
v -0.0473850206 -0.0695299574 0.0075
v -0.0473458816 -0.0697223134 0.009499998
v -0.0474676286 -0.0692679444 0.0075
v -0.0473948436 -0.0694919434 0.009499998
v -0.0474970586 -0.0691951414 0.0075
v -0.0474820286 -0.0692314194 0.009499998
v -0.0442648846 -0.0718420454 0.0075
v -0.0442648846 -0.0718420454 0.009499998
f 1 2 74
f 2 1 246
f 1 5 3
f 1 3 19
f 1 7 5
f 1 9 7
f 1 11 9
f 1 13 11
f 1 21 13
f 1 17 15
f 15 29 1
f 19 17 1
f 23 21 1
f 1 25 23
f 1 31 25
f 1 29 27
f 1 27 37
f 1 33 31
f 39 33 1
f 1 37 35
f 35 175 1
f 1 41 39
f 47 41 1
f 1 53 47
f 74 53 1
f 1 175 245
f 246 1 245
f 2 4 6
f 2 20 4
f 2 6 8
f 2 8 10
f 2 10 12
f 2 12 14
f 2 14 22
f 2 16 18
f 30 16 2
f 18 20 2
f 22 24 2
f 2 24 26
f 2 26 32
f 2 28 30
f 2 38 28
f 2 32 34
f 34 40 2
f 2 36 38
f 246 36 2
f 2 40 42
f 42 48 2
f 2 48 54
f 2 54 75
f 74 2 75
f 4 3 6
f 4 19 3
f 6 3 5
f 20 19 4
f 6 5 8
f 8 5 7
f 8 7 10
f 10 7 9
f 10 9 12
f 12 9 11
f 12 11 14
f 14 11 13
f 14 13 22
f 22 13 21
f 16 15 18
f 16 29 15
f 18 15 17
f 30 29 16
f 18 17 20
f 20 17 19
f 22 21 24
f 24 21 23
f 24 23 26
f 26 23 25
f 26 25 32
f 32 25 31
f 28 27 30
f 28 37 27
f 30 27 29
f 38 37 28
f 32 31 34
f 34 31 33
f 34 33 40
f 40 33 39
f 36 35 38
f 36 45 35
f 38 35 37
f 45 167 35
f 35 167 175
f 46 45 36
f 168 46 36
f 168 36 176
f 176 36 246
f 40 39 42
f 42 39 41
f 42 41 48
f 48 41 47
f 44 43 46
f 44 51 43
f 46 43 45
f 43 167 45
f 51 169 43
f 43 169 167
f 168 44 46
f 52 51 44
f 170 52 44
f 170 44 168
f 48 47 54
f 54 47 53
f 50 49 52
f 50 57 49
f 52 49 51
f 49 153 51
f 57 153 49
f 152 50 52
f 58 57 50
f 154 58 50
f 154 50 152
f 51 153 151
f 51 151 169
f 152 52 170
f 54 53 56
f 56 53 55
f 74 55 53
f 75 54 56
f 56 55 60
f 60 55 59
f 74 59 55
f 75 56 60
f 58 61 57
f 61 155 57
f 57 155 153
f 62 61 58
f 156 62 58
f 156 58 154
f 60 59 64
f 64 59 63
f 74 63 59
f 75 60 64
f 62 65 61
f 65 157 61
f 61 157 155
f 66 65 62
f 158 66 62
f 158 62 156
f 64 63 68
f 68 63 67
f 74 67 63
f 75 64 68
f 66 69 65
f 69 145 65
f 65 145 143
f 65 143 157
f 70 69 66
f 146 70 66
f 146 66 144
f 144 66 158
f 68 67 72
f 72 67 71
f 71 67 74
f 68 72 75
f 70 77 69
f 77 147 69
f 69 147 145
f 78 77 70
f 148 78 70
f 148 70 146
f 72 71 80
f 79 71 74
f 80 71 79
f 72 80 75
f 74 73 282
f 74 463 73
f 282 73 281
f 73 841 281
f 463 841 73
f 75 464 74
f 85 79 74
f 74 83 85
f 74 89 83
f 74 95 89
f 99 95 74
f 74 107 99
f 74 105 107
f 74 115 105
f 74 113 115
f 74 125 113
f 282 125 74
f 74 464 463
f 75 284 76
f 76 465 75
f 80 86 75
f 75 86 84
f 75 84 90
f 75 90 96
f 96 100 75
f 75 100 108
f 75 108 106
f 75 106 116
f 75 116 114
f 75 114 126
f 126 236 75
f 75 236 283
f 283 284 75
f 75 465 464
f 284 369 76
f 285 287 76
f 76 319 285
f 287 289 76
f 76 289 291
f 76 291 293
f 76 293 295
f 295 297 76
f 297 299 76
f 76 299 301
f 76 301 303
f 76 303 305
f 305 307 76
f 307 309 76
f 76 309 311
f 76 311 321
f 76 313 315
f 76 329 313
f 76 315 317
f 76 317 319
f 76 321 323
f 76 323 325
f 325 331 76
f 76 327 329
f 76 337 327
f 331 333 76
f 76 333 339
f 335 337 76
f 347 335 76
f 339 341 76
f 76 341 343
f 76 343 349
f 345 347 76
f 76 355 345
f 76 349 351
f 76 351 466
f 353 355 76
f 76 363 353
f 361 363 76
f 76 369 361
f 76 466 465
f 78 81 77
f 81 159 77
f 77 149 147
f 77 159 149
f 82 81 78
f 150 82 78
f 150 78 148
f 80 79 86
f 86 79 85
f 82 87 81
f 87 161 81
f 81 161 159
f 88 87 82
f 162 88 82
f 160 82 150
f 162 82 160
f 84 85 83
f 84 83 90
f 90 83 89
f 86 85 84
f 88 91 87
f 91 163 87
f 87 163 161
f 92 91 88
f 164 92 88
f 164 88 162
f 90 89 96
f 96 89 95
f 92 93 91
f 93 163 91
f 94 93 92
f 164 94 92
f 94 97 93
f 97 171 93
f 93 165 163
f 93 171 165
f 98 97 94
f 172 98 94
f 166 94 164
f 172 94 166
f 96 95 100
f 100 95 99
f 98 101 97
f 101 173 97
f 97 173 171
f 102 101 98
f 174 102 98
f 174 98 172
f 100 99 108
f 108 99 107
f 102 103 101
f 103 173 101
f 104 103 102
f 174 104 102
f 104 109 103
f 109 179 103
f 103 177 173
f 103 179 177
f 110 109 104
f 104 180 110
f 178 104 174
f 180 104 178
f 106 107 105
f 106 105 116
f 116 105 115
f 108 107 106
f 110 111 109
f 179 109 111
f 112 111 110
f 110 180 112
f 112 117 111
f 185 111 117
f 179 111 183
f 183 111 185
f 118 117 112
f 112 186 118
f 112 180 184
f 112 184 186
f 114 115 113
f 114 113 126
f 126 113 125
f 116 115 114
f 118 119 117
f 191 117 119
f 185 117 191
f 120 119 118
f 118 192 120
f 118 186 192
f 120 127 119
f 195 119 127
f 191 119 195
f 128 127 120
f 120 196 128
f 120 192 196
f 122 123 121
f 122 121 142
f 227 121 123
f 142 121 141
f 229 141 121
f 229 121 227
f 124 123 122
f 122 230 124
f 142 230 122
f 124 125 123
f 235 123 125
f 227 123 235
f 126 125 124
f 124 236 126
f 124 230 228
f 124 228 236
f 235 125 282
f 128 129 127
f 195 127 129
f 130 129 128
f 128 196 130
f 130 131 129
f 199 129 131
f 195 129 199
f 132 131 130
f 130 200 132
f 130 196 200
f 132 133 131
f 205 131 133
f 199 131 205
f 134 133 132
f 132 206 134
f 132 200 206
f 134 135 133
f 209 133 135
f 205 133 209
f 136 135 134
f 134 210 136
f 134 206 210
f 136 137 135
f 213 135 137
f 209 135 213
f 138 137 136
f 136 214 138
f 136 210 214
f 138 139 137
f 219 137 139
f 213 137 219
f 140 139 138
f 138 220 140
f 138 214 220
f 140 141 139
f 223 139 141
f 219 139 223
f 142 141 140
f 140 224 142
f 140 220 224
f 223 141 229
f 142 224 230
f 144 143 146
f 144 157 143
f 146 143 145
f 158 157 144
f 146 145 148
f 148 145 147
f 148 147 150
f 150 147 149
f 150 149 160
f 160 149 159
f 152 151 154
f 152 169 151
f 154 151 153
f 170 169 152
f 154 153 156
f 156 153 155
f 156 155 158
f 158 155 157
f 160 159 162
f 162 159 161
f 162 161 164
f 164 161 163
f 164 163 166
f 166 163 165
f 166 165 172
f 172 165 171
f 168 167 170
f 168 175 167
f 170 167 169
f 176 175 168
f 172 171 174
f 174 171 173
f 174 173 178
f 178 173 177
f 176 181 175
f 245 175 181
f 182 181 176
f 246 182 176
f 178 177 180
f 180 177 179
f 180 179 184
f 184 179 183
f 182 189 181
f 181 189 245
f 190 189 182
f 190 182 246
f 184 183 186
f 186 183 185
f 186 185 192
f 192 185 191
f 188 187 190
f 188 193 187
f 190 187 189
f 189 187 245
f 245 187 193
f 188 190 246
f 194 193 188
f 246 194 188
f 192 191 196
f 196 191 195
f 194 197 193
f 245 193 197
f 198 197 194
f 246 198 194
f 196 195 200
f 200 195 199
f 198 203 197
f 245 197 203
f 204 203 198
f 246 204 198
f 200 199 206
f 206 199 205
f 202 201 204
f 202 207 201
f 204 201 203
f 245 203 201
f 201 207 245
f 246 202 204
f 208 207 202
f 208 202 246
f 206 205 210
f 210 205 209
f 208 211 207
f 207 211 245
f 212 211 208
f 212 208 246
f 210 209 214
f 214 209 213
f 212 215 211
f 245 211 215
f 216 215 212
f 246 216 212
f 214 213 220
f 220 213 219
f 216 217 215
f 215 217 245
f 218 217 216
f 218 216 246
f 218 221 217
f 245 217 221
f 222 221 218
f 246 222 218
f 220 219 224
f 224 219 223
f 222 225 221
f 245 221 225
f 226 225 222
f 246 226 222
f 224 223 230
f 230 223 229
f 226 231 225
f 225 231 245
f 232 231 226
f 232 226 246
f 228 229 227
f 228 227 236
f 236 227 235
f 230 229 228
f 232 233 231
f 245 231 233
f 234 233 232
f 246 234 232
f 234 237 233
f 245 233 237
f 238 237 234
f 246 238 234
f 236 235 244
f 244 235 243
f 282 243 235
f 283 236 244
f 238 239 237
f 245 237 239
f 240 239 238
f 246 240 238
f 240 247 239
f 239 247 245
f 248 240 246
f 248 247 240
f 242 243 241
f 242 241 254
f 282 241 243
f 254 241 253
f 253 241 282
f 244 243 242
f 283 244 242
f 242 254 283
f 246 245 283
f 245 247 249
f 245 249 255
f 245 255 257
f 245 257 282
f 283 245 282
f 246 250 248
f 246 256 250
f 258 256 246
f 283 258 246
f 248 249 247
f 250 249 248
f 250 255 249
f 256 255 250
f 252 253 251
f 252 251 264
f 282 251 253
f 264 251 263
f 282 263 251
f 254 253 252
f 283 254 252
f 283 252 264
f 256 257 255
f 258 257 256
f 258 265 257
f 282 257 265
f 266 265 258
f 283 266 258
f 260 261 259
f 260 259 280
f 282 259 261
f 280 259 279
f 282 279 259
f 262 261 260
f 283 262 260
f 283 260 280
f 262 263 261
f 282 261 263
f 264 263 262
f 283 264 262
f 266 267 265
f 265 267 282
f 268 267 266
f 268 266 283
f 268 269 267
f 282 267 269
f 270 269 268
f 283 270 268
f 270 271 269
f 282 269 271
f 272 271 270
f 283 272 270
f 272 273 271
f 282 271 273
f 274 273 272
f 283 274 272
f 274 275 273
f 282 273 275
f 276 275 274
f 283 276 274
f 276 277 275
f 282 275 277
f 278 277 276
f 283 278 276
f 278 279 277
f 277 279 282
f 280 279 278
f 280 278 283
f 842 282 281
f 842 281 841
f 843 283 282
f 843 282 842
f 844 284 283
f 844 283 843
f 284 367 369
f 284 377 367
f 284 375 377
f 284 383 375
f 381 383 284
f 284 387 381
f 284 393 387
f 397 393 284
f 401 397 284
f 407 401 284
f 284 413 407
f 411 413 284
f 284 417 411
f 284 423 417
f 284 429 423
f 284 427 429
f 433 427 284
f 437 433 284
f 284 443 437
f 284 447 443
f 284 451 447
f 455 451 284
f 459 455 284
f 284 467 459
f 284 471 467
f 284 477 471
f 481 477 284
f 284 483 481
f 487 483 284
f 284 491 487
f 284 497 491
f 284 501 497
f 284 505 501
f 284 511 505
f 515 511 284
f 521 515 284
f 844 521 284
f 285 286 287
f 285 320 286
f 319 320 285
f 287 286 288
f 424 288 286
f 424 286 320
f 287 288 289
f 289 288 290
f 428 290 288
f 430 288 424
f 428 288 430
f 289 290 291
f 291 290 292
f 434 292 290
f 434 290 428
f 291 292 293
f 293 292 294
f 438 294 292
f 438 292 434
f 293 294 295
f 295 294 296
f 444 296 294
f 444 294 438
f 295 296 297
f 297 296 298
f 448 298 296
f 448 296 444
f 297 298 299
f 299 298 300
f 452 300 298
f 452 298 448
f 299 300 301
f 301 300 302
f 456 302 300
f 456 300 452
f 301 302 303
f 303 302 304
f 460 304 302
f 460 302 456
f 303 304 305
f 305 304 306
f 468 306 304
f 468 304 460
f 305 306 307
f 307 306 308
f 472 308 306
f 472 306 468
f 307 308 309
f 309 308 310
f 478 310 308
f 478 308 472
f 309 310 311
f 311 310 312
f 482 312 310
f 482 310 478
f 311 312 321
f 321 312 322
f 488 322 312
f 484 312 482
f 488 312 484
f 313 314 315
f 313 330 314
f 329 330 313
f 315 314 316
f 408 316 314
f 408 314 330
f 315 316 317
f 317 316 318
f 412 318 316
f 414 316 408
f 412 316 414
f 317 318 319
f 319 318 320
f 418 320 318
f 418 318 412
f 424 320 418
f 321 322 323
f 323 322 324
f 492 324 322
f 492 322 488
f 323 324 325
f 325 324 326
f 498 326 324
f 498 324 492
f 325 326 331
f 331 326 332
f 502 332 326
f 502 326 498
f 327 328 329
f 327 338 328
f 337 338 327
f 329 328 330
f 402 330 328
f 398 328 338
f 402 328 398
f 408 330 402
f 331 332 333
f 333 332 334
f 506 334 332
f 506 332 502
f 333 334 339
f 339 334 340
f 512 340 334
f 512 334 506
f 335 336 337
f 335 348 336
f 347 348 335
f 337 336 338
f 394 338 336
f 388 336 348
f 394 336 388
f 398 338 394
f 339 340 341
f 341 340 342
f 512 342 340
f 341 342 343
f 343 342 344
f 516 344 342
f 516 342 512
f 343 344 349
f 349 344 350
f 522 350 344
f 522 344 516
f 345 346 347
f 345 356 346
f 355 356 345
f 347 346 348
f 384 348 346
f 384 346 356
f 382 348 384
f 388 348 382
f 349 350 351
f 351 350 352
f 522 352 350
f 351 352 357
f 351 357 466
f 357 352 358
f 530 358 352
f 528 352 522
f 530 352 528
f 353 354 355
f 353 364 354
f 363 364 353
f 355 354 356
f 376 356 354
f 368 354 364
f 378 354 368
f 376 354 378
f 384 356 376
f 357 358 359
f 357 359 466
f 359 358 360
f 534 360 358
f 534 358 530
f 359 360 365
f 466 359 365
f 365 360 366
f 536 366 360
f 536 360 534
f 361 362 363
f 361 370 362
f 369 370 361
f 363 362 364
f 368 364 362
f 368 362 370
f 365 366 371
f 365 371 466
f 371 366 372
f 366 542 372
f 540 366 536
f 542 366 540
f 367 368 369
f 367 378 368
f 377 378 367
f 369 368 370
f 371 372 373
f 371 373 466
f 373 372 374
f 372 548 374
f 372 542 548
f 373 374 379
f 466 373 379
f 379 374 380
f 374 550 380
f 374 548 550
f 375 376 377
f 375 384 376
f 383 384 375
f 377 376 378
f 379 380 385
f 466 379 385
f 385 380 386
f 380 556 386
f 380 550 554
f 380 554 556
f 381 382 383
f 381 388 382
f 387 388 381
f 383 382 384
f 385 386 389
f 466 385 389
f 389 386 390
f 386 564 390
f 386 556 562
f 386 562 564
f 387 394 388
f 393 394 387
f 389 390 391
f 466 389 391
f 391 390 392
f 390 564 392
f 391 392 395
f 466 391 395
f 395 392 396
f 392 570 396
f 392 564 570
f 393 398 394
f 397 398 393
f 395 396 399
f 395 399 466
f 399 396 400
f 396 570 400
f 397 402 398
f 401 402 397
f 399 400 403
f 399 403 466
f 403 400 404
f 400 596 404
f 400 570 572
f 400 572 594
f 400 594 596
f 401 408 402
f 407 408 401
f 403 404 405
f 466 403 405
f 405 404 406
f 404 596 406
f 405 406 409
f 405 409 466
f 409 406 410
f 406 598 410
f 406 596 598
f 407 414 408
f 413 414 407
f 409 410 415
f 466 409 415
f 415 410 416
f 410 616 416
f 410 598 616
f 411 412 413
f 411 418 412
f 417 418 411
f 413 412 414
f 415 416 419
f 466 415 419
f 419 416 420
f 416 620 420
f 416 616 618
f 416 618 620
f 417 424 418
f 423 424 417
f 419 420 421
f 419 421 466
f 421 420 422
f 420 620 422
f 421 422 425
f 466 421 425
f 425 422 426
f 422 620 426
f 423 430 424
f 429 430 423
f 425 426 431
f 466 425 431
f 431 426 432
f 426 642 432
f 426 620 622
f 426 622 640
f 426 640 642
f 427 428 429
f 427 434 428
f 433 434 427
f 429 428 430
f 431 432 435
f 431 435 466
f 435 432 436
f 432 642 436
f 433 438 434
f 437 438 433
f 435 436 439
f 435 439 466
f 439 436 440
f 436 646 440
f 436 642 644
f 436 644 646
f 437 444 438
f 443 444 437
f 439 440 441
f 466 439 441
f 441 440 442
f 440 646 442
f 441 442 445
f 466 441 445
f 445 442 446
f 442 646 446
f 443 448 444
f 447 448 443
f 445 446 449
f 466 445 449
f 449 446 450
f 446 650 450
f 446 646 648
f 446 648 650
f 447 452 448
f 451 452 447
f 449 450 453
f 466 449 453
f 453 450 454
f 450 652 454
f 450 650 652
f 451 456 452
f 455 456 451
f 453 454 457
f 453 457 466
f 457 454 458
f 454 674 458
f 454 652 674
f 455 460 456
f 459 460 455
f 457 458 461
f 457 461 466
f 461 458 462
f 458 678 462
f 458 674 676
f 458 676 678
f 459 468 460
f 467 468 459
f 461 462 469
f 466 461 469
f 469 462 470
f 462 654 470
f 462 678 654
f 464 841 463
f 465 637 464
f 464 579 577
f 577 607 464
f 464 581 579
f 464 583 581
f 585 583 464
f 587 585 464
f 589 587 464
f 464 591 589
f 464 609 591
f 464 605 603
f 464 603 631
f 607 605 464
f 464 611 609
f 637 611 464
f 631 629 464
f 629 667 464
f 667 665 464
f 464 665 679
f 679 799 464
f 464 799 842
f 842 841 464
f 465 466 843
f 465 578 580
f 608 578 465
f 465 580 582
f 465 582 584
f 584 586 465
f 586 588 465
f 588 590 465
f 465 590 592
f 465 592 610
f 465 604 606
f 465 632 604
f 606 608 465
f 465 610 612
f 465 612 638
f 630 632 465
f 668 630 465
f 638 637 465
f 666 668 465
f 465 680 666
f 843 680 465
f 466 469 475
f 475 473 466
f 466 473 479
f 479 485 466
f 485 489 466
f 466 489 495
f 466 495 493
f 466 493 499
f 466 499 503
f 466 503 509
f 466 509 507
f 466 507 513
f 513 519 466
f 466 519 517
f 517 525 466
f 466 525 523
f 523 531 466
f 531 537 466
f 537 545 466
f 466 545 543
f 466 543 844
f 843 466 844
f 467 472 468
f 471 472 467
f 469 470 475
f 475 470 476
f 470 658 476
f 470 654 656
f 470 656 658
f 471 478 472
f 477 478 471
f 473 476 474
f 473 474 479
f 475 476 473
f 476 658 474
f 479 474 480
f 474 660 480
f 474 658 660
f 477 482 478
f 481 482 477
f 479 480 485
f 485 480 486
f 480 660 486
f 481 484 482
f 483 484 481
f 483 488 484
f 487 488 483
f 485 486 489
f 489 486 490
f 486 664 490
f 486 660 662
f 486 662 664
f 487 492 488
f 491 492 487
f 489 490 495
f 495 490 496
f 490 664 496
f 491 498 492
f 497 498 491
f 493 496 494
f 493 494 499
f 495 496 493
f 496 624 494
f 499 494 500
f 494 626 500
f 494 624 626
f 496 664 624
f 497 502 498
f 501 502 497
f 499 500 503
f 503 500 504
f 500 626 504
f 501 506 502
f 505 506 501
f 503 504 509
f 509 504 510
f 504 600 510
f 504 628 600
f 504 626 628
f 505 512 506
f 511 512 505
f 507 510 508
f 507 508 513
f 509 510 507
f 510 600 508
f 513 508 514
f 508 602 514
f 508 600 602
f 511 516 512
f 515 516 511
f 513 514 519
f 519 514 520
f 514 602 520
f 515 522 516
f 521 522 515
f 517 520 518
f 517 518 525
f 519 520 517
f 520 574 518
f 525 518 526
f 518 576 526
f 518 574 576
f 520 602 574
f 521 528 522
f 527 528 521
f 844 527 521
f 523 526 524
f 523 524 531
f 525 526 523
f 526 566 524
f 531 524 532
f 524 568 532
f 524 566 568
f 526 576 566
f 527 530 528
f 529 530 527
f 529 527 844
f 529 534 530
f 533 534 529
f 844 533 529
f 531 532 537
f 537 532 538
f 532 558 538
f 532 568 558
f 533 536 534
f 535 536 533
f 844 535 533
f 535 540 536
f 539 540 535
f 844 539 535
f 537 538 545
f 545 538 546
f 538 560 546
f 538 558 560
f 539 542 540
f 541 542 539
f 844 541 539
f 541 548 542
f 547 548 541
f 547 541 844
f 543 546 544
f 543 544 551
f 545 546 543
f 844 543 551
f 546 552 544
f 551 544 552
f 546 560 552
f 547 550 548
f 549 550 547
f 844 549 547
f 549 554 550
f 553 554 549
f 553 549 844
f 551 552 559
f 844 551 559
f 559 552 560
f 553 556 554
f 555 556 553
f 844 555 553
f 555 562 556
f 561 562 555
f 844 561 555
f 557 560 558
f 557 558 567
f 559 560 557
f 844 559 557
f 844 557 567
f 567 558 568
f 561 564 562
f 563 564 561
f 844 563 561
f 563 570 564
f 569 570 563
f 844 569 563
f 565 568 566
f 565 566 575
f 567 568 565
f 844 567 565
f 565 575 844
f 575 566 576
f 569 572 570
f 571 572 569
f 844 571 569
f 571 594 572
f 593 594 571
f 593 571 844
f 573 576 574
f 573 574 601
f 575 576 573
f 844 575 573
f 844 573 601
f 601 574 602
f 578 577 580
f 578 607 577
f 580 577 579
f 608 607 578
f 580 579 582
f 582 579 581
f 582 581 584
f 584 581 583
f 584 583 586
f 586 583 585
f 586 585 588
f 588 585 587
f 588 587 590
f 590 587 589
f 590 589 592
f 592 589 591
f 592 591 610
f 610 591 609
f 593 596 594
f 595 596 593
f 844 595 593
f 595 598 596
f 597 598 595
f 844 597 595
f 597 616 598
f 615 616 597
f 615 597 844
f 599 602 600
f 599 600 627
f 601 602 599
f 844 601 599
f 844 599 627
f 627 600 628
f 604 603 606
f 604 631 603
f 606 603 605
f 632 631 604
f 606 605 608
f 608 605 607
f 610 609 612
f 612 609 611
f 612 611 614
f 614 611 613
f 637 613 611
f 638 612 614
f 614 613 634
f 634 613 633
f 637 633 613
f 638 614 634
f 615 618 616
f 617 618 615
f 844 617 615
f 617 620 618
f 619 620 617
f 619 617 844
f 619 622 620
f 621 622 619
f 621 619 844
f 621 640 622
f 639 640 621
f 844 639 621
f 623 626 624
f 623 624 663
f 625 626 623
f 625 623 844
f 844 623 663
f 663 624 664
f 625 628 626
f 627 628 625
f 627 625 844
f 630 629 632
f 630 667 629
f 632 629 631
f 668 667 630
f 634 633 636
f 636 633 635
f 635 633 637
f 634 636 638
f 636 635 670
f 669 635 637
f 670 635 669
f 636 670 638
f 638 913 637
f 637 671 669
f 637 681 671
f 637 687 681
f 689 687 637
f 637 693 689
f 697 693 637
f 703 697 637
f 637 707 703
f 637 711 707
f 637 715 711
f 637 719 715
f 727 719 637
f 637 725 727
f 637 731 725
f 737 731 637
f 637 749 737
f 913 749 637
f 638 670 672
f 638 672 682
f 638 682 688
f 688 690 638
f 638 690 694
f 694 698 638
f 698 704 638
f 638 704 708
f 638 708 712
f 638 712 716
f 638 716 720
f 720 728 638
f 638 728 726
f 638 726 732
f 732 738 638
f 638 738 750
f 750 878 638
f 638 878 914
f 914 913 638
f 639 642 640
f 641 642 639
f 844 641 639
f 641 644 642
f 643 644 641
f 844 643 641
f 643 646 644
f 645 646 643
f 844 645 643
f 645 648 646
f 647 648 645
f 844 647 645
f 647 650 648
f 649 650 647
f 649 647 844
f 649 652 650
f 651 652 649
f 844 651 649
f 651 674 652
f 673 674 651
f 673 651 844
f 653 656 654
f 653 654 677
f 655 656 653
f 844 655 653
f 844 653 677
f 677 654 678
f 655 658 656
f 657 658 655
f 657 655 844
f 657 660 658
f 659 660 657
f 844 659 657
f 659 662 660
f 661 662 659
f 844 661 659
f 661 664 662
f 663 664 661
f 844 663 661
f 666 665 668
f 666 679 665
f 668 665 667
f 680 679 666
f 670 669 672
f 672 669 671
f 672 671 682
f 682 671 681
f 673 676 674
f 675 676 673
f 844 675 673
f 675 678 676
f 677 678 675
f 844 677 675
f 680 685 679
f 685 785 679
f 679 785 801
f 679 801 799
f 686 685 680
f 786 686 680
f 786 680 802
f 802 680 800
f 800 680 843
f 682 681 688
f 688 681 687
f 684 683 686
f 684 691 683
f 686 683 685
f 683 785 685
f 691 787 683
f 683 787 785
f 786 684 686
f 692 691 684
f 788 692 684
f 788 684 786
f 688 687 690
f 690 687 689
f 690 689 694
f 694 689 693
f 692 695 691
f 695 789 691
f 691 789 787
f 696 695 692
f 790 696 692
f 790 692 788
f 694 693 698
f 698 693 697
f 696 701 695
f 701 777 695
f 695 777 775
f 695 775 789
f 702 701 696
f 778 702 696
f 778 696 776
f 776 696 790
f 698 697 704
f 704 697 703
f 700 699 702
f 700 705 699
f 702 699 701
f 699 779 701
f 705 779 699
f 780 700 702
f 706 705 700
f 780 706 700
f 701 779 777
f 780 702 778
f 704 703 708
f 708 703 707
f 706 709 705
f 709 781 705
f 705 781 779
f 710 709 706
f 782 710 706
f 782 706 780
f 708 707 712
f 712 707 711
f 710 713 709
f 713 783 709
f 709 783 781
f 714 713 710
f 784 714 710
f 784 710 782
f 712 711 716
f 716 711 715
f 714 717 713
f 717 791 713
f 713 791 783
f 718 717 714
f 792 718 714
f 792 714 784
f 716 715 720
f 720 715 719
f 718 721 717
f 721 793 717
f 717 793 791
f 722 721 718
f 794 722 718
f 794 718 792
f 720 719 728
f 728 719 727
f 722 723 721
f 723 793 721
f 724 723 722
f 794 724 722
f 724 729 723
f 729 803 723
f 723 795 793
f 723 803 795
f 730 729 724
f 796 730 724
f 796 724 794
f 726 727 725
f 726 725 732
f 732 725 731
f 728 727 726
f 730 733 729
f 733 805 729
f 729 805 803
f 734 733 730
f 806 734 730
f 804 730 796
f 806 730 804
f 732 731 738
f 738 731 737
f 734 735 733
f 735 805 733
f 736 735 734
f 806 736 734
f 736 739 735
f 813 735 739
f 735 811 805
f 735 813 811
f 740 739 736
f 736 814 740
f 812 736 806
f 736 812 814
f 738 737 750
f 750 737 749
f 740 741 739
f 813 739 741
f 742 741 740
f 740 814 742
f 742 743 741
f 819 741 743
f 813 741 817
f 817 741 819
f 744 743 742
f 742 820 744
f 742 814 818
f 742 818 820
f 744 751 743
f 819 743 751
f 752 751 744
f 744 820 752
f 746 747 745
f 746 745 762
f 871 745 747
f 762 745 761
f 871 761 745
f 748 747 746
f 746 872 748
f 762 872 746
f 748 749 747
f 877 747 749
f 871 747 877
f 750 749 748
f 748 878 750
f 748 872 878
f 877 749 913
f 752 753 751
f 823 751 753
f 819 751 823
f 754 753 752
f 752 824 754
f 752 820 824
f 754 755 753
f 829 753 755
f 823 753 827
f 827 753 829
f 756 755 754
f 754 830 756
f 754 824 828
f 754 828 830
f 756 763 755
f 829 755 763
f 764 763 756
f 756 830 764
f 758 759 757
f 758 757 774
f 859 757 759
f 774 757 773
f 859 773 757
f 760 759 758
f 758 860 760
f 774 860 758
f 760 761 759
f 863 759 761
f 859 759 865
f 865 759 863
f 762 761 760
f 760 864 762
f 760 860 866
f 760 866 864
f 863 761 871
f 762 864 872
f 764 765 763
f 835 763 765
f 829 763 835
f 766 765 764
f 764 836 766
f 764 830 836
f 766 767 765
f 839 765 767
f 835 765 839
f 768 767 766
f 766 840 768
f 766 836 840
f 768 769 767
f 847 767 769
f 839 767 847
f 770 769 768
f 768 848 770
f 768 840 848
f 770 771 769
f 851 769 771
f 847 769 851
f 772 771 770
f 770 852 772
f 770 848 852
f 772 773 771
f 855 771 773
f 851 771 855
f 774 773 772
f 772 856 774
f 772 852 856
f 855 773 859
f 774 856 860
f 776 775 778
f 776 789 775
f 778 775 777
f 790 789 776
f 778 777 780
f 780 777 779
f 780 779 782
f 782 779 781
f 782 781 784
f 784 781 783
f 784 783 792
f 792 783 791
f 786 785 788
f 786 801 785
f 788 785 787
f 802 801 786
f 788 787 790
f 790 787 789
f 792 791 794
f 794 791 793
f 794 793 796
f 796 793 795
f 796 795 804
f 804 795 803
f 798 797 800
f 798 809 797
f 800 797 799
f 799 797 842
f 842 797 809
f 798 800 843
f 810 809 798
f 843 810 798
f 800 799 802
f 802 799 801
f 804 803 806
f 806 803 805
f 806 805 812
f 812 805 811
f 808 807 810
f 808 815 807
f 810 807 809
f 809 807 842
f 842 807 815
f 808 810 843
f 816 815 808
f 843 816 808
f 812 811 814
f 814 811 813
f 814 813 818
f 818 813 817
f 816 821 815
f 842 815 821
f 822 821 816
f 843 822 816
f 818 817 820
f 820 817 819
f 820 819 824
f 824 819 823
f 822 825 821
f 842 821 825
f 826 825 822
f 843 826 822
f 824 823 828
f 828 823 827
f 826 833 825
f 825 833 842
f 834 833 826
f 834 826 843
f 828 827 830
f 830 827 829
f 830 829 836
f 836 829 835
f 832 831 834
f 832 837 831
f 834 831 833
f 833 831 842
f 831 837 842
f 832 834 843
f 838 837 832
f 838 832 843
f 836 835 840
f 840 835 839
f 838 845 837
f 842 837 845
f 843 846 838
f 846 845 838
f 840 839 848
f 848 839 847
f 842 914 843
f 842 845 849
f 842 849 853
f 842 853 857
f 857 861 842
f 842 861 867
f 842 867 913
f 913 914 842
f 843 850 846
f 843 854 850
f 843 858 854
f 862 858 843
f 843 868 862
f 914 868 843
f 846 849 845
f 850 849 846
f 848 847 852
f 852 847 851
f 850 853 849
f 854 853 850
f 852 851 856
f 856 851 855
f 854 857 853
f 858 857 854
f 856 855 860
f 860 855 859
f 858 861 857
f 862 861 858
f 860 859 866
f 866 859 865
f 862 867 861
f 868 867 862
f 864 865 863
f 864 863 872
f 872 863 871
f 866 865 864
f 868 869 867
f 913 867 869
f 870 869 868
f 914 870 868
f 870 873 869
f 869 873 913
f 874 873 870
f 914 874 870
f 872 871 878
f 878 871 877
f 874 875 873
f 873 875 913
f 876 875 874
f 914 876 874
f 876 879 875
f 875 879 913
f 880 879 876
f 914 880 876
f 878 877 886
f 886 877 885
f 913 885 877
f 914 878 886
f 880 881 879
f 879 881 913
f 882 881 880
f 882 880 914
f 882 887 881
f 881 887 913
f 888 887 882
f 888 882 914
f 884 885 883
f 884 883 896
f 883 885 913
f 896 883 895
f 913 895 883
f 886 885 884
f 886 884 914
f 914 884 896
f 888 889 887
f 913 887 889
f 890 889 888
f 914 890 888
f 890 891 889
f 889 891 913
f 892 891 890
f 892 890 914
f 892 897 891
f 913 891 897
f 898 897 892
f 914 898 892
f 894 895 893
f 894 893 912
f 913 893 895
f 912 893 911
f 911 893 913
f 896 895 894
f 914 896 894
f 894 912 914
f 898 899 897
f 913 897 899
f 900 899 898
f 914 900 898
f 900 901 899
f 913 899 901
f 902 901 900
f 914 902 900
f 902 903 901
f 913 901 903
f 904 903 902
f 914 904 902
f 904 905 903
f 913 903 905
f 906 905 904
f 914 906 904
f 906 907 905
f 905 907 913
f 908 907 906
f 908 906 914
f 908 909 907
f 907 909 913
f 910 909 908
f 910 908 914
f 910 911 909
f 913 909 911
f 912 911 910
f 914 912 910
