# CAD visual only; metres; body-local coordinates
v -0.0155036406 -0.00146691858 -0.001218691
v -0.0155294376 -0.00144112158 -0.000871553
v -0.0155391266 -0.00143144158 -0.000697565
v -0.0155520396 -0.00141851958 -0.000348997
v -0.0155552726 -0.00141528658 -0.000174522
v -0.0155552726 -0.00141528658 0.000174522
v -0.0155520396 -0.00141851958 0.000348997
v -0.0155466606 -0.00142390758 0.000523357
v -0.0155294376 -0.00144112158 0.000871553
v -0.0155176116 -0.00145294758 0.001045284
v -0.0152824266 -0.00168813258 -0.002756376
v -0.0153154046 -0.00165515458 -0.002588186
v -0.0153463036 -0.00162425558 -0.002419214
v -0.0153751136 -0.00159544558 -0.002249508
v -0.0154264316 -0.00154412758 -0.001908092
v -0.0154489286 -0.00152164058 -0.001736479
v -0.0154692896 -0.00150126958 0.001564341
v -0.0154264316 -0.00154412758 0.001908092
v -0.0154018266 -0.00156873258 0.002079115
v -0.0153463036 -0.00162425558 0.002419214
v -0.0153154046 -0.00165515458 0.002588186
v -0.0152824266 -0.00168813258 0.002756376
v -0.0154875336 -0.00148302658 -0.001391735
v -0.0154875336 -0.00148302658 0.001391735
v -0.0150414616 -0.00192909758 -0.003746061
v -0.0151299146 -0.00184065358 -0.0034202
v -0.0152102616 -0.00176029758 -0.003090172
v -0.0152102616 -0.00176029758 0.003090172
v -0.0151711036 -0.00179945558 0.003255682
v -0.0150866946 -0.00188387458 0.003583679
v -0.0152473786 -0.00172318958 -0.002923717
v -0.0152473786 -0.00172318958 0.002923717
v -0.0147856476 -0.00218491158 -0.004539909
v -0.0148407136 -0.00212984658 -0.004383707
v -0.0148938426 -0.00207671658 -0.004226179
v -0.0147550636 -0.00221549558 -0.000677223
v -0.0148351726 -0.00213538658 -0.000499392
v -0.0149199536 -0.00205060558 -3.60822483e-16
v -0.0149198296 -0.00205072958 1.9197e-05
v -0.0148968466 -0.00207371258 0.000266113
v -0.0148289066 -0.00214165258 0.000516415
v -0.0149450256 -0.00202554258 0.004067364
v -0.0148407136 -0.00212984658 0.004383707
v -0.0147856476 -0.00218491158 0.004539909
v -0.0149942356 -0.00197633358 -0.003907309
v -0.0149942356 -0.00197633358 0.003907309
v -0.0145463706 -0.00242419758 -0.005150385
v -0.0146697766 -0.00230078258 -0.004848099
v -0.0145072986 -0.00246326058 -0.000971241
v -0.0147201686 -0.00225040058 -0.000736046
v -0.0147201686 -0.00225040058 0.000736046
v -0.0147109946 -0.00225956458 0.000750198
v -0.0146697766 -0.00230078258 0.004848099
v -0.0145463706 -0.00242419758 0.005150385
v -0.0147286656 -0.00224190258 -0.004694719
v -0.0147291616 -0.00224139758 -0.000721664
v -0.0147466136 -0.00222394558 0.000692253
v -0.0147286656 -0.00224190258 0.004694719
v -0.0142775586 -0.00269300058 -0.00573576
v -0.0144155746 -0.00255498458 -0.005446386
v -0.0142503886 -0.00272018058 -0.001089296
v -0.0144584996 -0.00251205958 0.001004896
v -0.0144155746 -0.00255498458 0.005446386
v -0.0143474636 -0.00262309658 0.005591927
v -0.0144818836 -0.00248867558 -0.005299196
v -0.0144708596 -0.00249970958 -0.000996943
v -0.0144952546 -0.00247530558 0.00098011
v -0.0144818836 -0.00248867558 0.005299196
v -0.0140573556 -0.00291320358 -0.006156616
v -0.0142058996 -0.00276466858 -0.005877857
v -0.0140070686 -0.00296349058 -0.001083288
v -0.0142099246 -0.00276063458 0.00109581
v -0.0142058996 -0.00276466858 0.005877857
v -0.0141324856 -0.00283807358 0.006018152
v -0.0142234376 -0.00274712158 -0.001093969
v -0.0142369326 -0.00273363658 0.001091805
v -0.0140122186 -0.000129914579 -0.001908092
v -0.0140550766 -8.70565787e-05 -0.001564341
v -0.0140733196 -6.88125787e-05 -0.001391735
v -0.0141033986 -3.87335787e-05 -0.001045284
v -0.0141152246 -2.69085787e-05 -0.000871553
v -0.0141324476 -9.69457873e-06 -0.000523357
v -0.0141378266 -4.30657873e-06 -0.000348997
v -0.0141410596 -1.07357873e-06 -0.000174522
v -0.0141410596 -1.07357873e-06 0.000174522
v -0.0141378266 -4.30657873e-06 0.000348997
v -0.0141249136 -1.72285787e-05 0.000697565
v -0.0141152246 -2.69085787e-05 0.000871553
v -0.0140894276 -5.27055787e-05 0.001218691
v -0.0140733196 -6.88125787e-05 0.001391735
v -0.0140347056 -0.000107427579 0.001736479
v -0.0140122186 -0.000129914579 0.001908092
v -0.0141421376 4.42127332e-09 -3.60822483e-16
v -0.0138218836 -0.00314867558 -0.006560593
v -0.0139020306 -0.00306852858 -0.006427879
v -0.0138257656 -0.00314479458 -0.001004896
v -0.0137532286 -0.00321734058 -0.000952625
v -0.0138134156 -0.00315714458 0.000996943
v -0.0139671666 -0.00300340258 0.001071806
v -0.0139020306 -0.00306852858 0.006427879
v -0.0138218836 -0.00314867558 0.006560593
v -0.0139805366 -0.00299003158 -0.006293201
v -0.0139804226 -0.00299014658 -0.001075964
v -0.0139937166 -0.00297684258 0.001079788
v -0.0139805366 -0.00299003158 0.006293201
v -0.0137568906 -0.000385242579 -0.003255682
v -0.0137960486 -0.000346084579 -0.003090172
v -0.0138682136 -0.000273919579 -0.002756376
v -0.0138331656 -0.000308976579 0.002923717
v -0.0137960486 -0.000346084579 0.003090172
v -0.0137568906 -0.000385242579 0.003255682
v -0.0139011916 -0.000240941579 -0.002588186
v -0.0139320906 -0.000210042579 -0.002419214
v -0.0139876136 -0.000154519579 -0.002079115
v -0.0139609006 -0.000181231579 0.002249508
v -0.0139320906 -0.000210042579 0.002419214
v -0.0139011916 -0.000240941579 0.002588186
v -0.0135717826 -0.00339877658 -0.006946583
v -0.0135732796 -0.00339728858 -0.000750198
v -0.0135049876 -0.00346558158 -0.000630932
v -0.0135641056 -0.00340645358 0.000736046
v -0.0137185056 -0.00325205358 0.000922537
v -0.0136567356 -0.00331383258 0.006819983
v -0.0137401066 -0.00323045358 -0.006691303
v -0.0137299596 -0.00324060958 -0.000932856
v -0.0137415276 -0.00322903258 0.000942888
v -0.0137401066 -0.00323045358 0.006691303
v -0.0135308126 -0.000611329579 -0.004067364
v -0.0135800226 -0.000562119579 -0.003907309
v -0.0136272486 -0.000514884579 -0.003746061
v -0.0135057406 -0.000636392579 -3.60822483e-16
v -0.0135056166 -0.000636516579 1.9197e-05
v -0.0136272486 -0.000514884579 0.003746061
v -0.0135800226 -0.000562119579 0.003907309
v -0.0135308126 -0.000611329579 0.004067364
v -0.0136724816 -0.000469661579 -0.003583679
v -0.0137157016 -0.000426440579 -0.0034202
v -0.0137157016 -0.000426440579 0.0034202
v -0.0136724816 -0.000469661579 0.003583679
v -0.0133077386 -0.00366282058 -0.007313538
v -0.0133972606 -0.00357330858 -0.007193394
v -0.0134553676 -0.00351520158 -0.000516415
v -0.0133874186 -0.00358314058 -0.000266113
v -0.0133643206 -0.00360624858 -3.60822483e-16
v -0.0133842526 -0.00358630758 0.00024745
v -0.0134490926 -0.00352146658 0.000499392
v -0.0134685286 -0.00350204058 0.000550003
v -0.0133972606 -0.00357330858 0.007193394
v -0.0133077386 -0.00366282058 0.007313538
v -0.0134852846 -0.00348528458 -0.007071066
v -0.0134754136 -0.00349514558 -0.00056654
v -0.0134972916 -0.00347326858 0.00061511
v -0.0134852846 -0.00348528458 0.007071066
v -0.0132555636 -0.000886569579 -0.004848099
v -0.0133714346 -0.000770698579 -0.004539909
v -0.0132583956 -0.000883746579 -0.000804491
v -0.0133059556 -0.000836186579 -0.000736046
v -0.0133875516 -0.000754590579 0.000582914
v -0.0132967816 -0.000845351579 0.000750198
v -0.0133144526 -0.000827689579 0.004694719
v -0.0132555636 -0.000886569579 0.004848099
v -0.0134264996 -0.000715632579 -0.004383707
v -0.0134796296 -0.000662503579 -0.004226179
v -0.0133946376 -0.000747495579 -0.00056654
v -0.0134209596 -0.000721173579 -0.000499392
v -0.0134857996 -0.000656333579 -0.00024745
v -0.0134999426 -0.000642190579 0.000134058
v -0.0134826336 -0.000659499579 0.000266113
v -0.0134146936 -0.000727439579 0.000516415
v -0.0134796296 -0.000662503579 0.004226179
v -0.0134264996 -0.000715632579 0.004383707
v -0.0130304776 -0.00394008258 -0.007660446
v -0.0132167486 -0.00375381058 -0.00743145
v -0.0132167486 -0.00375381058 0.00743145
v -0.0131243186 -0.00384624058 0.007547092
v -0.0130676706 -0.00107446258 -0.005299196
v -0.0131321576 -0.00100997458 -0.005150385
v -0.0130066636 -0.00113546858 -0.001026936
v -0.0130566456 -0.00108549658 -0.000996943
v -0.0131401016 -0.00100203058 0.000932856
v -0.0130442866 -0.00109784658 0.001004896
v -0.0131321576 -0.00100997458 0.005150385
v -0.0130013616 -0.00114077158 0.005446386
v -0.0131947956 -0.000947347579 -0.005
v -0.0131515556 -0.000990586579 -0.000922537
v -0.0132483826 -0.000893750579 0.000817461
v -0.0131947956 -0.000947347579 0.005
v -0.0128386646 -0.00413189458 -0.007880106
v -0.0129352526 -0.00403531658 0.007771463
v -0.0127916776 -0.00135045558 -0.005877857
v -0.0128633456 -0.00127878758 -0.00573576
v -0.0127550656 -0.00138706758 -0.001099329
v -0.0128896386 -0.00125249458 0.001075964
v -0.0128633456 -0.00127878758 0.00573576
v -0.0127916776 -0.00135045558 0.005877857
v -0.0129332496 -0.00120888258 -0.005591927
v -0.0129028946 -0.00123923858 -0.001071806
v -0.0129939516 -0.00114818158 0.001033659
v -0.0129332496 -0.00120888258 0.005591927
v -0.0125410806 -0.00442947958 -0.008191519
v -0.0126415496 -0.00432900958 0.008090172
v -0.0127407606 -0.00422980858 -0.007986355
v -0.0127407606 -0.00422980858 0.007986355
v -0.0125663236 -0.00157581858 -0.006293201
v -0.0125005106 -0.00164162258 -0.001051931
v -0.0126331286 -0.00150900458 0.001091805
v -0.0125663236 -0.00157581858 0.006293201
v -0.0127182726 -0.00142386058 -0.006018152
v -0.0126466136 -0.00149551958 -0.001093969
v -0.0127414946 -0.00140063858 0.001099834
v -0.0126431426 -0.00149899058 0.006156616
v -0.0123364596 -0.00463409958 -0.008386707
v -0.0124393706 -0.00453118858 0.008290377
v -0.0123258926 -0.00181623958 -0.006691303
v -0.0122598226 -0.00188231958 -0.000878496
v -0.0123869476 -0.00175518558 0.000988674
v -0.0123258926 -0.00181623958 0.006691303
v -0.0124076706 -0.00173446258 -0.006560593
v -0.0124878176 -0.00165431558 -0.006427879
v -0.0124115516 -0.00173058058 -0.001004896
v -0.0123992016 -0.00174293058 -0.000996943
v -0.0123992016 -0.00174293058 0.000996943
v -0.0124875596 -0.00165457258 0.001046162
v -0.0124878176 -0.00165431558 0.006427879
v -0.0124076706 -0.00173446258 0.006560593
v -0.0120208126 -0.00494974658 -0.00866025
v -0.0121271476 -0.00484341158 0.008571672
v -0.0122323756 -0.00473818358 -0.008480482
v -0.0122323756 -0.00473818358 0.008480482
v -0.0120710716 -0.00207107158 -0.007071066
v -0.0120411546 -0.00210098758 -0.000516415
v -0.0120017676 -0.00214036558 -0.000394201
v -0.0120348796 -0.00210725358 0.000499392
v -0.0121408996 -0.00200124358 0.000721664
v -0.0120710716 -0.00207107158 0.007071066
v -0.0122425226 -0.00189961958 -0.006819983
v -0.0121590666 -0.00198307558 -0.000750198
v -0.0121498926 -0.00199224058 -0.000736046
v -0.0121498926 -0.00199224058 0.000736046
v -0.0122490456 -0.00189308658 0.000866814
v -0.0121575696 -0.00198456358 0.006946583
v -0.0118049486 -0.00516562058 -0.008829479
v -0.0119134006 -0.00505715858 -0.008746195
v -0.0119134006 -0.00505715858 0.008746195
v -0.0118049486 -0.00516562058 0.008829479
v -0.0118025356 -0.00233959758 -0.00743145
v -0.0118025356 -0.00233959758 0.00743145
v -0.0118935256 -0.00224860758 -0.007313538
v -0.0119830476 -0.00215909558 -0.007193394
v -0.0119732056 -0.00216892758 -0.000266113
v -0.0119501076 -0.00219203558 -3.60822483e-16
v -0.0119700386 -0.00217209358 0.00024745
v -0.0119970086 -0.00214512358 0.000376225
v -0.0119830476 -0.00215909558 0.007193394
v -0.0118935256 -0.00224860758 0.007313538
v -0.0115850316 -0.00538552858 -0.008987942
v -0.0116954766 -0.00527508358 0.008910065
v -0.0115210396 -0.00262110258 -0.007771463
v -0.0116162636 -0.00252586858 -0.007660446
v -0.0116162636 -0.00252586858 0.007660446
v -0.0115210396 -0.00262110258 0.007771463
v -0.0117101056 -0.00243202758 -0.007547092
v -0.0117101056 -0.00243202758 0.007547092
v -0.0113613466 -0.00560922158 -0.009135456
v -0.0113613466 -0.00560922158 0.009135456
v -0.0114736416 -0.00549691758 -0.009063082
v -0.0114736416 -0.00549691758 0.009063082
v -0.0113265476 -0.00281559558 -0.007986355
v -0.0113265476 -0.00281559558 0.007986355
v -0.0114244516 -0.00271768158 -0.007880106
v -0.0114244516 -0.00271768158 0.007880106
v -0.0110193206 -0.00595123858 -0.009335804
v -0.0111341526 -0.00583641558 0.009271841
v -0.0112481646 -0.00572239458 -0.009205046
v -0.0112481646 -0.00572239458 0.009205046
v -0.0110251576 -0.00311697558 -0.008290377
v -0.0111268666 -0.00301526558 -0.008191519
v -0.0111268666 -0.00301526558 0.008191519
v -0.0110251576 -0.00311697558 0.008290377
v -0.0112273366 -0.00291479658 -0.008090172
v -0.0112273366 -0.00291479658 0.008090172
v -0.0107873966 -0.00618316258 -0.009455185
v -0.0109037266 -0.00606683358 0.009396925
v -0.0108181626 -0.00332397058 -0.008480482
v -0.0108181626 -0.00332397058 0.008480482
v -0.0109222466 -0.00321988658 -0.008386707
v -0.0109222466 -0.00321988658 0.008386707
v -0.0105526596 -0.00641789958 -0.009563046
v -0.0106703626 -0.00630019758 0.009510565
v -0.0106065996 -0.00353553358 -0.00866025
v -0.0106065996 -0.00353553358 0.00866025
v -0.0107129346 -0.00342919858 -0.008571672
v -0.0107129346 -0.00342919858 0.008571672
v -0.0103154046 -0.00665515458 -0.009659262
v -0.0104343276 -0.00653623158 0.009612617
v -0.0103907356 -0.00375140758 -0.008829479
v -0.0102812626 -0.00386086958 0.008910065
v -0.0104991876 -0.00364294558 -0.008746195
v -0.0104991876 -0.00364294558 0.008746195
v -0.0100759276 -0.00689464158 -0.0097437
v -0.0101959286 -0.00677463158 0.009702959
v -0.0100594286 -0.00408270458 -0.009063082
v -0.0100594286 -0.00408270458 0.009063082
v -0.0101708176 -0.00397131458 -0.008987942
v -0.0101708176 -0.00397131458 0.008987942
v -0.00983450458 -0.00713605458 -0.009816275
v -0.00995544058 -0.00701511958 0.009781475
v -0.00983395158 -0.00430818158 -0.009205046
v -0.00983395158 -0.00430818158 0.009205046
v -0.00994713358 -0.00419500858 -0.009135456
v -0.00994713358 -0.00419500858 0.009135456
v -0.00959144158 -0.00737912758 -0.009876881
v -0.00950485758 -0.00746571158 -0.000413456
v -0.00954594158 -0.00742461758 -3.60822483e-16
v -0.00954577958 -0.00742477958 2.6178e-05
v -0.00952982458 -0.00744073458 0.000260468
v -0.00971315958 -0.00725740058 0.00984808
v -0.00960510758 -0.00453702458 -0.009335804
v -0.00960510758 -0.00453702458 0.009335804
v -0.00971993958 -0.00442220258 -0.009271841
v -0.00971993958 -0.00442220258 0.009271841
v -0.00934702458 -0.00762353458 -0.009925461
v -0.00926100358 -0.00770956558 -0.001022997
v -0.00928576958 -0.00768478958 -0.000984087
v -0.00940384458 -0.00756672458 -0.000749998
v -0.00946870358 -0.00750185558 0.000561914
v -0.00939444158 -0.00757611858 0.000772552
v -0.00927350558 -0.00769705358 0.001003695
v -0.00946938058 -0.00750117858 0.009902678
v -0.00947549358 -0.00749506558 -0.000537548
v -0.00948815858 -0.00748240958 -0.000488348
v -0.00949959358 -0.00747096558 0.000438557
v -0.00948197858 -0.00748858958 0.000513029
v -0.00925614858 -0.00488598358 -0.009510565
v -0.00937318358 -0.00476894958 -0.009455185
v -0.00937318358 -0.00476894958 0.009455185
v -0.00925614858 -0.00488598358 0.009510565
v -0.00948951258 -0.00465261958 -0.009396925
v -0.00948951258 -0.00465261958 0.009396925
v -0.00910156758 -0.00786900058 -0.009961948
v -0.00901561358 -0.00795495558 -0.001299038
v -0.00907839358 -0.00789216558 -0.001243553
v -0.00920864658 -0.00776191258 0.001097031
v -0.00906295358 -0.00790760558 0.001258001
v -0.00910156758 -0.00786900058 0.009961948
v -0.00922441058 -0.00774615858 -0.009945221
v -0.00922207458 -0.00774848558 -0.001079006
v -0.00924825258 -0.00772230658 0.001041985
v -0.00922441058 -0.00774615858 0.009945221
v -0.00913844658 -0.00500368658 -0.009563046
v -0.00902011458 -0.00512201858 0.009612617
v -0.00885534858 -0.00811521158 -0.009986296
v -0.00875979958 -0.00821075958 -0.001448889
v -0.00896681358 -0.00800375558 0.001336508
v -0.00885534858 -0.00811521158 0.009986296
v -0.00897853458 -0.00799202458 -0.009975643
v -0.00898323558 -0.00798733258 -0.001324425
v -0.00899949558 -0.00797106358 0.001311932
v -0.00897853458 -0.00799202458 0.009975643
v -0.00878171458 -0.00536041758 -0.009702959
v -0.00878171458 -0.00536041758 0.009702959
v -0.00890119158 -0.00524094158 -0.009659262
v -0.00890119158 -0.00524094158 0.009659262
v -0.00860868958 -0.00836187858 -0.009998474
v -0.00850379558 -0.00846677358 -0.001499767
v -0.00870580258 -0.00826475658 0.001467218
v -0.00860868958 -0.00836187858 0.009998474
v -0.00873205758 -0.00823850258 -0.009993906
v -0.00872387458 -0.00824668458 -0.001461554
v -0.00874187958 -0.00822868858 0.001455441
v -0.00873205758 -0.00823850258 0.009993906
v -0.00854122658 -0.00560090558 -0.009781475
v -0.00854122658 -0.00560090558 0.009781475
v -0.00866171458 -0.00548042858 -0.0097437
v -0.00866171458 -0.00548042858 0.0097437
v -0.00836187858 -0.00860868958 -0.009998474
v -0.00826475658 -0.00870580258 -0.001467218
v -0.00846677358 -0.00850379558 0.001499767
v -0.00836187858 -0.00860868958 0.009998474
v -0.00848528458 -0.00848528458 -0.01
v -0.00848528458 -0.00848528458 -0.001499996
v -0.00848528458 -0.00848528458 0.001499996
v -0.00848528458 -0.00848528458 0.01
v -0.00829894558 -0.00584318658 -0.00984808
v -0.00829894558 -0.00584318658 0.00984808
v -0.00842029158 -0.00572184158 -0.009816275
v -0.00842029158 -0.00572184158 0.009816275
v -0.00811521158 -0.00885534858 -0.009986296
v -0.00800375558 -0.00896681358 -0.001336508
v -0.00821075958 -0.00875979958 0.001448889
v -0.00811521158 -0.00885534858 0.009986296
v -0.00823850258 -0.00873205758 -0.009993906
v -0.00822868858 -0.00874187958 -0.001455441
v -0.00824668458 -0.00872387458 0.001461554
v -0.00823850258 -0.00873205758 0.009993906
v -0.00805516758 -0.00608696558 -0.009902678
v -0.00800757958 -0.00613456258 -0.000704203
v -0.00807394558 -0.00606819658 -0.000488348
v -0.00813172858 -0.00601040458 -3.60822483e-16
v -0.00813156658 -0.00601056658 2.6178e-05
v -0.00811561158 -0.00602652158 0.000260468
v -0.00806776558 -0.00607437658 0.000513029
v -0.00805516758 -0.00608696558 0.009902678
v -0.00817722858 -0.00596490458 -0.009876881
v -0.00817722858 -0.00596490458 0.009876881
v -0.00786900058 -0.00910156758 -0.009961948
v -0.00790760558 -0.00906295358 -0.001258001
v -0.00776191258 -0.00920864658 -0.001097031
v -0.00789216558 -0.00907839358 0.001243553
v -0.00795495558 -0.00901561358 0.001299038
v -0.00786900058 -0.00910156758 0.009961948
v -0.00799202458 -0.00897853458 -0.009975643
v -0.00797106358 -0.00899949558 -0.001311932
v -0.00798733258 -0.00898323558 0.001324425
v -0.00799202458 -0.00897853458 0.009975643
v -0.00781019758 -0.00633193558 -0.009945221
v -0.00775284358 -0.00638928958 -0.001149063
v -0.00787155658 -0.00627057658 -0.000984087
v -0.00788358258 -0.00625855058 0.000964184
v -0.00785929258 -0.00628284058 0.001003695
v -0.00781019758 -0.00633193558 0.009945221
v -0.00793281158 -0.00620932158 -0.009925461
v -0.00789535058 -0.00624678158 -0.000943985
v -0.00798962158 -0.00615251158 -0.000749998
v -0.00799873858 -0.00614339458 0.000727215
v -0.00798022758 -0.00616190458 0.000772552
v -0.00793281158 -0.00620932158 0.009925461
v -0.00750117858 -0.00946938058 -0.009902678
v -0.00769705358 -0.00927350558 -0.001003695
v -0.00757611858 -0.00939444158 -0.000772552
v -0.00750185558 -0.00946870358 -0.000561914
v -0.00756672458 -0.00940384458 0.000749998
v -0.00768478958 -0.00928576958 0.000984087
v -0.00770956558 -0.00926100358 0.001022997
v -0.00762353458 -0.00934702458 0.009925461
v -0.00774615858 -0.00922441058 -0.009945221
v -0.00772230658 -0.00924825258 -0.001041985
v -0.00774848558 -0.00922207458 0.001079006
v -0.00774615858 -0.00922441058 0.009945221
v -0.00756432158 -0.00657781158 -0.009975643
v -0.00750247558 -0.00663965758 -0.001370316
v -0.00763312858 -0.00650900458 0.001272068
v -0.00756432158 -0.00657781158 0.009975643
v -0.00768735458 -0.00645478758 -0.009961948
v -0.00764874058 -0.00649339258 -0.001258001
v -0.00766418058 -0.00647795258 -0.001243553
v -0.00773856658 -0.00640357558 0.001165714
v -0.00764874058 -0.00649339258 0.001258001
v -0.00768735458 -0.00645478758 0.009961948
v -0.00725740058 -0.00971315958 -0.00984808
v -0.00744073458 -0.00952982458 -0.000260468
v -0.00742461758 -0.00954594158 -3.60822483e-16
v -0.00743768258 -0.00953288658 0.000234652
v -0.00746571158 -0.00950485758 0.000413456
v -0.00737912758 -0.00959144158 0.009876881
v -0.00748858958 -0.00948197858 -0.000513029
v -0.00747096558 -0.00949959358 -0.000438557
v -0.00748240958 -0.00948815858 0.000488348
v -0.00749506558 -0.00947549358 0.000537548
v -0.00731784358 -0.00682428858 -0.009993906
v -0.00725524458 -0.00688688858 -0.001477213
v -0.00738117758 -0.00676096458 0.00143446
v -0.00731784358 -0.00682428858 0.009993906
v -0.00744113458 -0.00670099758 -0.009986296
v -0.00739882958 -0.00674330258 -0.001426582
v -0.00748549958 -0.00665663258 0.001380758
v -0.00744113458 -0.00670099758 0.009986296
v -0.00701511958 -0.00995544058 -0.009781475
v -0.00713605458 -0.00983450458 0.009816275
v -0.00707107158 -0.00707107158 -0.01
v -0.00701555758 -0.00712657558 -0.001497946
v -0.00712657558 -0.00701555758 0.001497946
v -0.00707107158 -0.00707107158 0.01
v -0.00719447658 -0.00694765658 -0.009998474
v -0.00714505758 -0.00699707558 -0.001496344
v -0.00723699158 -0.00690514158 0.001481533
v -0.00719447658 -0.00694765658 0.009998474
v -0.00677463158 -0.0101959286 -0.009702959
v -0.00689464158 -0.0100759276 0.0097437
v -0.00682428858 -0.00731784358 -0.009993906
v -0.00676096458 -0.00738117758 -0.00143446
v -0.00688688858 -0.00725524458 0.001477213
v -0.00682428858 -0.00731784358 0.009993906
v -0.00694765658 -0.00719447658 -0.009998474
v -0.00690514158 -0.00723699158 -0.001481533
v -0.00699707558 -0.00714505758 0.001496344
v -0.00694765658 -0.00719447658 0.009998474
v -0.00653623158 -0.0104343276 -0.009612617
v -0.00665515458 -0.0103154046 0.009659262
v -0.00657781158 -0.00756432158 -0.009975643
v -0.00650900458 -0.00763312858 -0.001272068
v -0.00663965758 -0.00750247558 0.001370316
v -0.00657781158 -0.00756432158 0.009975643
v -0.00670099758 -0.00744113458 -0.009986296
v -0.00665663258 -0.00748549958 -0.001380758
v -0.00674330258 -0.00739882958 0.001426582
v -0.00670099758 -0.00744113458 0.009986296
v -0.00630019758 -0.0106703626 -0.009510565
v -0.00641789958 -0.0105526596 0.009563046
v -0.00633193558 -0.00781019758 -0.009945221
v -0.00628284058 -0.00785929258 -0.001003695
v -0.00625855058 -0.00788358258 -0.000964184
v -0.00627057658 -0.00787155658 0.000984087
v -0.00638928958 -0.00775284358 0.001149063
v -0.00633193558 -0.00781019758 0.009945221
v -0.00645478758 -0.00768735458 -0.009961948
v -0.00649339258 -0.00764874058 -0.001258001
v -0.00640357558 -0.00773856658 -0.001165714
v -0.00647795258 -0.00766418058 0.001243553
v -0.00649339258 -0.00764874058 0.001258001
v -0.00645478758 -0.00768735458 0.009961948
v -0.00606683358 -0.0109037266 -0.009396925
v -0.00618316258 -0.0107873966 0.009455185
v -0.00608696558 -0.00805516758 -0.009902678
v -0.00607437658 -0.00806776558 -0.000513029
v -0.00602652158 -0.00811561158 -0.000260468
v -0.00601040458 -0.00813172858 -3.60822483e-16
v -0.00602346958 -0.00811867258 0.000234652
v -0.00606819658 -0.00807394558 0.000488348
v -0.00613456258 -0.00800757958 0.000704203
v -0.00608696558 -0.00805516758 0.009902678
v -0.00620932158 -0.00793281158 -0.009925461
v -0.00616190458 -0.00798022758 -0.000772552
v -0.00614339458 -0.00799873858 -0.000727215
v -0.00615251158 -0.00798962158 0.000749998
v -0.00624678158 -0.00789535058 0.000943985
v -0.00620932158 -0.00793281158 0.009925461
v -0.00583641558 -0.0111341526 -0.009271841
v -0.00595123858 -0.0110193206 0.009335804
v -0.00584318658 -0.00829894558 -0.00984808
v -0.00584318658 -0.00829894558 0.00984808
v -0.00596490458 -0.00817722858 -0.009876881
v -0.00596490458 -0.00817722858 0.009876881
v -0.00560922158 -0.0113613466 -0.009135456
v -0.00560922158 -0.0113613466 0.009135456
v -0.00572239458 -0.0112481646 -0.009205046
v -0.00572239458 -0.0112481646 0.009205046
v -0.00560090558 -0.00854122658 -0.009781475
v -0.00560090558 -0.00854122658 0.009781475
v -0.00572184158 -0.00842029158 -0.009816275
v -0.00572184158 -0.00842029158 0.009816275
v -0.00527508358 -0.0116954766 -0.008910065
v -0.00538552858 -0.0115850316 0.008987942
v -0.00549691758 -0.0114736416 -0.009063082
v -0.00549691758 -0.0114736416 0.009063082
v -0.00536041758 -0.00878171458 -0.009702959
v -0.00536041758 -0.00878171458 0.009702959
v -0.00548042858 -0.00866171458 -0.0097437
v -0.00548042858 -0.00866171458 0.0097437
v -0.00516562058 -0.0118049486 -0.008829479
v -0.00505715858 -0.0119134006 -0.008746195
v -0.00505715858 -0.0119134006 0.008746195
v -0.00516562058 -0.0118049486 0.008829479
v -0.00512201858 -0.00902011458 -0.009612617
v -0.00500368658 -0.00913844658 0.009563046
v -0.00524094158 -0.00890119158 -0.009659262
v -0.00524094158 -0.00890119158 0.009659262
v -0.00484341158 -0.0121271476 -0.008571672
v -0.00494974658 -0.0120208126 0.00866025
v -0.00488598358 -0.00925614858 -0.009510565
v -0.00476894958 -0.00937318358 -0.009455185
v -0.00476894958 -0.00937318358 0.009455185
v -0.00488598358 -0.00925614858 0.009510565
v -0.00453118858 -0.0124393706 -0.008290377
v -0.00463409958 -0.0123364596 0.008386707
v -0.00473818358 -0.0122323756 -0.008480482
v -0.00473818358 -0.0122323756 0.008480482
v -0.00453702458 -0.00960510758 -0.009335804
v -0.00453702458 -0.00960510758 0.009335804
v -0.00465261958 -0.00948951258 -0.009396925
v -0.00465261958 -0.00948951258 0.009396925
v -0.00432900958 -0.0126415496 -0.008090172
v -0.00442947958 -0.0125410806 0.008191519
v -0.00430818158 -0.00983395158 -0.009205046
v -0.00430818158 -0.00983395158 0.009205046
v -0.00442220258 -0.00971993958 -0.009271841
v -0.00442220258 -0.00971993958 0.009271841
v -0.00403531658 -0.0129352526 -0.007771463
v -0.00413189458 -0.0128386646 0.007880106
v -0.00422980858 -0.0127407606 -0.007986355
v -0.00422980858 -0.0127407606 0.007986355
v -0.00408270458 -0.0100594286 -0.009063082
v -0.00408270458 -0.0100594286 0.009063082
v -0.00419500858 -0.00994713358 -0.009135456
v -0.00419500858 -0.00994713358 0.009135456
v -0.00384624058 -0.0131243186 -0.007547092
v -0.00375381058 -0.0132167486 -0.00743145
v -0.00375381058 -0.0132167486 0.00743145
v -0.00394008258 -0.0130304776 0.007660446
v -0.00386086958 -0.0102812626 -0.008910065
v -0.00375140758 -0.0103907356 0.008829479
v -0.00397131458 -0.0101708176 -0.008987942
v -0.00397131458 -0.0101708176 0.008987942
v -0.00366282058 -0.0133077386 -0.007313538
v -0.00357330858 -0.0133972606 -0.007193394
v -0.00350204058 -0.0134685286 -0.000550003
v -0.00352146658 -0.0134490926 -0.000499392
v -0.00360624858 -0.0133643206 -3.60822483e-16
v -0.00360612458 -0.0133644346 1.9197e-05
v -0.00358314058 -0.0133874186 0.000266113
v -0.00351520158 -0.0134553676 0.000516415
v -0.00357330858 -0.0133972606 0.007193394
v -0.00366282058 -0.0133077386 0.007313538
v -0.00353553358 -0.0106065996 -0.00866025
v -0.00353553358 -0.0106065996 0.00866025
v -0.00364294558 -0.0104991876 -0.008746195
v -0.00364294558 -0.0104991876 0.008746195
v -0.00331383258 -0.0136567356 -0.006819983
v -0.00325205358 -0.0137185056 -0.000922537
v -0.00340645358 -0.0135641056 -0.000736046
v -0.00346558158 -0.0135049876 0.000630932
v -0.00339728858 -0.0135732796 0.000750198
v -0.00339877658 -0.0135717826 0.006946583
v -0.00348528458 -0.0134852846 -0.007071066
v -0.00347326858 -0.0134972916 -0.00061511
v -0.00349514558 -0.0134754136 0.00056654
v -0.00348528458 -0.0134852846 0.007071066
v -0.00332397058 -0.0108181626 -0.008480482
v -0.00332397058 -0.0108181626 0.008480482
v -0.00342919858 -0.0107129346 -0.008571672
v -0.00342919858 -0.0107129346 0.008571672
v -0.00314867558 -0.0138218836 -0.006560593
v -0.00306852858 -0.0139020306 -0.006427879
v -0.00300340258 -0.0139671666 -0.001071806
v -0.00315714458 -0.0138134156 -0.000996943
v -0.00321734058 -0.0137532286 0.000952625
v -0.00314479458 -0.0138257656 0.001004896
v -0.00306852858 -0.0139020306 0.006427879
v -0.00314867558 -0.0138218836 0.006560593
v -0.00323045358 -0.0137401066 -0.006691303
v -0.00322903258 -0.0137415276 -0.000942888
v -0.00324060958 -0.0137299596 0.000932856
v -0.00323045358 -0.0137401066 0.006691303
v -0.00311697558 -0.0110251576 -0.008290377
v -0.00301526558 -0.0111268666 -0.008191519
v -0.00301526558 -0.0111268666 0.008191519
v -0.00311697558 -0.0110251576 0.008290377
v -0.00321988658 -0.0109222466 -0.008386707
v -0.00321988658 -0.0109222466 0.008386707
v -0.00283807358 -0.0141324856 -0.006018152
v -0.00276466858 -0.0142058996 -0.005877857
v -0.00276063458 -0.0142099246 -0.00109581
v -0.00296349058 -0.0140070686 0.001083288
v -0.00276466858 -0.0142058996 0.005877857
v -0.00291320358 -0.0140573556 0.006156616
v -0.00299003158 -0.0139805366 -0.006293201
v -0.00297684258 -0.0139937166 -0.001079788
v -0.00299014658 -0.0139804226 0.001075964
v -0.00299003158 -0.0139805366 0.006293201
v -0.00281559558 -0.0113265476 -0.007986355
v -0.00281559558 -0.0113265476 0.007986355
v -0.00291479658 -0.0112273366 -0.008090172
v -0.00291479658 -0.0112273366 0.008090172
v -0.00262309658 -0.0143474636 -0.005591927
v -0.00255498458 -0.0144155746 -0.005446386
v -0.00251205958 -0.0144584996 -0.001004896
v -0.00272018058 -0.0142503886 0.001089296
v -0.00255498458 -0.0144155746 0.005446386
v -0.00269300058 -0.0142775586 0.00573576
v -0.00273363658 -0.0142369326 -0.001091805
v -0.00274712158 -0.0142234376 0.001093969
v -0.00262110258 -0.0115210396 -0.007771463
v -0.00252586858 -0.0116162636 -0.007660446
v -0.00252586858 -0.0116162636 0.007660446
v -0.00262110258 -0.0115210396 0.007771463
v -0.00271768158 -0.0114244516 -0.007880106
v -0.00271768158 -0.0114244516 0.007880106
v -0.00236156058 -0.0146090086 -0.005
v -0.00230078258 -0.0146697766 -0.004848099
v -0.00225956458 -0.0147109946 -0.000750198
v -0.00225040058 -0.0147201686 -0.000736046
v -0.00225040058 -0.0147201686 0.000736046
v -0.00246326058 -0.0145072986 0.000971241
v -0.00236156058 -0.0146090086 0.005
v -0.00242419758 -0.0145463706 0.005150385
v -0.00248867558 -0.0144818836 -0.005299196
v -0.00247530558 -0.0144952546 -0.00098011
v -0.00249970958 -0.0144708596 0.000996943
v -0.00248867558 -0.0144818836 0.005299196
v -0.00233959758 -0.0118025356 -0.00743145
v -0.00233959758 -0.0118025356 0.00743145
v -0.00243202758 -0.0117101056 -0.007547092
v -0.00243202758 -0.0117101056 0.007547092
v -0.00218491158 -0.0147856476 -0.004539909
v -0.00212984658 -0.0148407136 -0.004383707
v -0.00202554258 -0.0149450256 -0.004067364
v -0.00214165258 -0.0148289066 -0.000516415
v -0.00207371258 -0.0148968466 -0.000266113
v -0.00205060558 -0.0149199536 -3.60822483e-16
v -0.00207054658 -0.0149000226 0.00024745
v -0.00213538658 -0.0148351726 0.000499392
v -0.00221549558 -0.0147550636 0.000677223
v -0.00207671658 -0.0148938426 0.004226179
v -0.00212984658 -0.0148407136 0.004383707
v -0.00218491158 -0.0147856476 0.004539909
v -0.00224190258 -0.0147286656 -0.004694719
v -0.00222394558 -0.0147466136 -0.000692253
v -0.00224139758 -0.0147291616 0.000721664
v -0.00224190258 -0.0147286656 0.004694719
v -0.00207107158 -0.0120710716 -0.007071066
v -0.00210098758 -0.0120411546 -0.000516415
v -0.00214036558 -0.0120017676 -0.000394201
v -0.00210725358 -0.0120348796 0.000499392
v -0.00200124358 -0.0121408996 0.000721664
v -0.00207107158 -0.0120710716 0.007071066
v -0.00224860758 -0.0118935256 -0.007313538
v -0.00215909558 -0.0119830476 -0.007193394
v -0.00216892758 -0.0119732056 -0.000266113
v -0.00219203558 -0.0119501076 -3.60822483e-16
v -0.00217209358 -0.0119700386 0.00024745
v -0.00214512358 -0.0119970086 0.000376225
v -0.00215909558 -0.0119830476 0.007193394
v -0.00224860758 -0.0118935256 0.007313538
v -0.00188387458 -0.0150866946 -0.003583679
v -0.00179945558 -0.0151711036 -0.003255682
v -0.00176029758 -0.0152102616 -0.003090172
v -0.00176029758 -0.0152102616 0.003090172
v -0.00184065358 -0.0151299146 0.0034202
v -0.00192909758 -0.0150414616 0.003746061
v -0.00197633358 -0.0149942356 -0.003907309
v -0.00197633358 -0.0149942356 0.003907309
v -0.00181623958 -0.0123258926 -0.006691303
v -0.00188231958 -0.0122598226 -0.000878496
v -0.00175518558 -0.0123869476 0.000988674
v -0.00181623958 -0.0123258926 0.006691303
v -0.00198456358 -0.0121575696 -0.006946583
v -0.00198307558 -0.0121590666 -0.000750198
v -0.00199224058 -0.0121498926 -0.000736046
v -0.00199224058 -0.0121498926 0.000736046
v -0.00189308658 -0.0122490456 0.000866814
v -0.00189961958 -0.0122425226 0.006819983
v -0.00168813258 -0.0152824266 -0.002756376
v -0.00165515458 -0.0153154046 -0.002588186
v -0.00162425558 -0.0153463036 -0.002419214
v -0.00156873258 -0.0154018266 -0.002079115
v -0.00154412758 -0.0154264316 -0.001908092
v -0.00150126958 -0.0154692896 -0.001564341
v -0.00152164058 -0.0154489286 0.001736479
v -0.00154412758 -0.0154264316 0.001908092
v -0.00159544558 -0.0153751136 0.002249508
v -0.00162425558 -0.0153463036 0.002419214
v -0.00165515458 -0.0153154046 0.002588186
v -0.00168813258 -0.0152824266 0.002756376
v -0.00172318958 -0.0152473786 -0.002923717
v -0.00172318958 -0.0152473786 0.002923717
v -0.00157581858 -0.0125663236 -0.006293201
v -0.00164162258 -0.0125005106 -0.001051931
v -0.00150900458 -0.0126331286 0.001091805
v -0.00157581858 -0.0125663236 0.006293201
v -0.00173446258 -0.0124076706 -0.006560593
v -0.00165431558 -0.0124878176 -0.006427879
v -0.00173058058 -0.0124115516 -0.001004896
v -0.00174293058 -0.0123992016 -0.000996943
v -0.00174293058 -0.0123992016 0.000996943
v -0.00165457258 -0.0124875596 0.001046162
v -0.00165431558 -0.0124878176 0.006427879
v -0.00173446258 -0.0124076706 0.006560593
v -0.00145294758 -0.0155176116 -0.001045284
v -0.00144112158 -0.0155294376 -0.000871553
v -0.00142390758 -0.0155466606 -0.000523357
v -0.00141851958 -0.0155520396 -0.000348997
v -0.00141420858 -0.0155563506 -3.60822483e-16
v -0.00141528658 -0.0155552726 0.000174522
v -0.00141851958 -0.0155520396 0.000348997
v -0.00143144158 -0.0155391266 0.000697565
v -0.00144112158 -0.0155294376 0.000871553
v -0.00146691858 -0.0155036406 0.001218691
v -0.00148302658 -0.0154875336 -0.001391735
v -0.00148302658 -0.0154875336 0.001391735
v -0.00135045558 -0.0127916776 -0.005877857
v -0.00127878758 -0.0128633456 -0.00573576
v -0.00138706758 -0.0127550656 -0.001099329
v -0.00125249458 -0.0128896386 0.001075964
v -0.00127878758 -0.0128633456 0.00573576
v -0.00135045558 -0.0127916776 0.005877857
v -0.00149899058 -0.0126431426 -0.006156616
v -0.00149551958 -0.0126466136 -0.001093969
v -0.00140063858 -0.0127414946 0.001099834
v -0.00142386058 -0.0127182726 0.006018152
v -0.00114077158 -0.0130013616 -0.005446386
v -0.00100997458 -0.0131321576 -0.005150385
v -0.00113546858 -0.0130066636 -0.001026936
v -0.00108549658 -0.0130566456 -0.000996943
v -0.00100203058 -0.0131401016 0.000932856
v -0.00109784658 -0.0130442866 0.001004896
v -0.00100997458 -0.0131321576 0.005150385
v -0.00107446258 -0.0130676706 0.005299196
v -0.00120888258 -0.0129332496 -0.005591927
v -0.00123923858 -0.0129028946 -0.001071806
v -0.00114818158 -0.0129939516 0.001033659
v -0.00120888258 -0.0129332496 0.005591927
v -0.000886569579 -0.0132555636 -0.004848099
v -0.000827689579 -0.0133144526 -0.004694719
v -0.000883746579 -0.0132583956 -0.000804491
v -0.000836186579 -0.0133059556 -0.000736046
v -0.000754590579 -0.0133875516 0.000582914
v -0.000845351579 -0.0132967816 0.000750198
v -0.000770698579 -0.0133714346 0.004539909
v -0.000886569579 -0.0132555636 0.004848099
v -0.000947347579 -0.0131947956 -0.005
v -0.000990586579 -0.0131515556 -0.000922537
v -0.000893750579 -0.0132483826 0.000817461
v -0.000947347579 -0.0131947956 0.005
v -0.000611329579 -0.0135308126 -0.004067364
v -0.000562119579 -0.0135800226 -0.003907309
v -0.000514884579 -0.0136272486 -0.003746061
v -0.000640655579 -0.0135014776 -0.000114985
v -0.000636516579 -0.0135056166 1.9197e-05
v -0.000514884579 -0.0136272486 0.003746061
v -0.000562119579 -0.0135800226 0.003907309
v -0.000611329579 -0.0135308126 0.004067364
v -0.000715632579 -0.0134264996 -0.004383707
v -0.000662503579 -0.0134796296 -0.004226179
v -0.000747495579 -0.0133946376 -0.00056654
v -0.000721173579 -0.0134209596 -0.000499392
v -0.000656333579 -0.0134857996 -0.00024745
v -0.000642190579 -0.0134999426 0.000134058
v -0.000659499579 -0.0134826336 0.000266113
v -0.000727439579 -0.0134146936 0.000516415
v -0.000662503579 -0.0134796296 0.004226179
v -0.000715632579 -0.0134264996 0.004383707
v -0.000385242579 -0.0137568906 -0.003255682
v -0.000346084579 -0.0137960486 -0.003090172
v -0.000308976579 -0.0138331656 -0.002923717
v -0.000273919579 -0.0138682136 0.002756376
v -0.000346084579 -0.0137960486 0.003090172
v -0.000385242579 -0.0137568906 0.003255682
v -0.000469661579 -0.0136724816 -0.003583679
v -0.000426440579 -0.0137157016 -0.0034202
v -0.000426440579 -0.0137157016 0.0034202
v -0.000469661579 -0.0136724816 0.003583679
v -0.000129914579 -0.0140122186 -0.001908092
v -0.000107427579 -0.0140347056 -0.001736479
v -6.88125787e-05 -0.0140733196 -0.001391735
v -5.27055787e-05 -0.0140894276 -0.001218691
v -2.69085787e-05 -0.0141152246 -0.000871553
v -1.72285787e-05 -0.0141249136 -0.000697565
v -4.30657873e-06 -0.0141378266 -0.000348997
v -1.07357873e-06 -0.0141410596 -0.000174522
v -1.07357873e-06 -0.0141410596 0.000174522
v -4.30657873e-06 -0.0141378266 0.000348997
v -9.69457873e-06 -0.0141324476 0.000523357
v -2.69085787e-05 -0.0141152246 0.000871553
v -3.87335787e-05 -0.0141033986 0.001045284
v -6.88125787e-05 -0.0140733196 0.001391735
v -8.70565787e-05 -0.0140550766 0.001564341
v -0.000129914579 -0.0140122186 0.001908092
v -0.000240941579 -0.0139011916 -0.002588186
v -0.000210042579 -0.0139320906 -0.002419214
v -0.000181231579 -0.0139609006 -0.002249508
v -0.000154519579 -0.0139876136 0.002079115
v -0.000210042579 -0.0139320906 0.002419214
v -0.000240941579 -0.0139011916 0.002588186
v 4.42127121e-09 -0.0141421376 -3.60822483e-16
f 1 36 2
f 81 1 2
f 23 49 1
f 80 23 1
f 1 56 36
f 1 49 50
f 50 56 1
f 80 1 81
f 2 37 3
f 82 2 3
f 36 37 2
f 81 2 82
f 3 37 4
f 83 3 4
f 82 3 83
f 4 38 5
f 84 4 5
f 4 37 38
f 83 4 84
f 5 39 6
f 85 5 6
f 5 38 39
f 84 5 93
f 93 5 85
f 6 39 7
f 86 6 7
f 85 6 86
f 7 40 8
f 87 7 8
f 7 39 40
f 86 7 87
f 8 40 9
f 88 8 9
f 87 8 88
f 9 41 10
f 89 9 10
f 9 40 41
f 88 9 89
f 10 52 24
f 90 10 24
f 41 57 10
f 10 51 52
f 57 51 10
f 89 10 90
f 11 61 12
f 112 11 12
f 31 75 11
f 108 31 11
f 11 75 61
f 108 11 112
f 12 61 13
f 113 12 13
f 112 12 113
f 13 61 14
f 114 13 14
f 113 13 114
f 14 66 15
f 77 14 15
f 61 66 14
f 114 14 77
f 15 49 16
f 78 15 16
f 15 66 49
f 77 15 78
f 16 49 23
f 79 16 23
f 78 16 79
f 92 17 18
f 17 382 18
f 24 52 17
f 91 24 17
f 17 52 67
f 17 67 62
f 17 62 76
f 76 72 17
f 72 354 17
f 91 17 92
f 17 354 370
f 17 370 366
f 17 366 382
f 115 18 19
f 18 382 19
f 92 18 115
f 116 19 20
f 19 382 20
f 115 19 116
f 117 20 21
f 20 382 21
f 116 20 117
f 109 21 22
f 21 382 22
f 117 21 109
f 109 22 32
f 22 382 32
f 79 23 80
f 90 24 91
f 25 71 26
f 137 25 26
f 45 71 25
f 130 45 25
f 130 25 136
f 136 25 137
f 71 27 26
f 107 26 27
f 106 26 107
f 137 26 106
f 27 71 31
f 108 27 31
f 107 27 108
f 111 28 29
f 28 382 29
f 110 32 28
f 32 382 28
f 110 28 111
f 139 29 30
f 29 382 30
f 111 29 138
f 138 29 139
f 134 30 46
f 30 382 46
f 133 30 134
f 139 30 133
f 71 75 31
f 109 32 110
f 33 71 34
f 162 33 34
f 55 71 33
f 155 55 33
f 155 33 162
f 34 71 35
f 163 34 35
f 162 34 163
f 35 71 45
f 129 35 45
f 128 35 129
f 163 35 128
f 164 37 36
f 157 36 56
f 164 36 157
f 165 38 37
f 165 37 164
f 131 39 38
f 131 38 166
f 166 38 165
f 167 40 39
f 132 39 131
f 167 39 132
f 168 41 40
f 168 40 167
f 158 57 41
f 158 41 169
f 169 41 168
f 171 42 43
f 42 382 43
f 135 46 42
f 46 382 42
f 135 42 170
f 170 42 171
f 160 43 44
f 43 382 44
f 171 43 160
f 160 44 58
f 44 382 58
f 129 45 130
f 134 46 135
f 47 71 48
f 154 47 48
f 65 71 47
f 177 65 47
f 184 47 154
f 177 47 184
f 48 71 55
f 155 48 55
f 154 48 155
f 156 50 49
f 179 49 66
f 156 49 185
f 185 49 179
f 157 56 50
f 157 50 156
f 158 52 51
f 158 51 57
f 180 67 52
f 159 52 158
f 186 52 159
f 180 52 186
f 182 53 54
f 53 382 54
f 161 58 53
f 58 382 53
f 161 53 187
f 187 53 182
f 183 54 68
f 54 382 68
f 182 54 183
f 160 58 161
f 59 71 60
f 176 59 60
f 70 71 59
f 191 70 59
f 196 59 176
f 191 59 196
f 60 71 65
f 176 60 65
f 178 66 61
f 192 61 75
f 178 61 197
f 197 61 192
f 180 62 67
f 193 76 62
f 181 62 180
f 198 62 181
f 193 62 198
f 199 63 64
f 63 382 64
f 183 68 63
f 68 382 63
f 183 63 199
f 195 64 73
f 64 382 73
f 194 64 195
f 199 64 194
f 176 65 177
f 179 66 178
f 69 71 70
f 190 69 70
f 69 342 71
f 208 102 69
f 102 342 69
f 208 69 190
f 190 70 191
f 192 75 71
f 205 71 103
f 342 103 71
f 192 71 209
f 209 71 205
f 193 72 76
f 206 104 72
f 72 104 343
f 210 72 193
f 206 72 210
f 343 344 72
f 72 344 358
f 358 354 72
f 211 73 74
f 73 382 74
f 195 73 211
f 207 74 105
f 74 382 105
f 211 74 207
f 78 471 77
f 77 471 114
f 79 185 78
f 78 179 178
f 178 197 78
f 185 179 78
f 78 197 192
f 78 192 209
f 209 461 78
f 78 461 475
f 78 475 471
f 80 156 79
f 79 156 185
f 81 157 80
f 80 157 156
f 82 165 81
f 81 164 157
f 81 165 164
f 83 165 82
f 84 166 83
f 83 166 165
f 93 131 84
f 84 131 166
f 86 167 85
f 85 132 93
f 167 132 85
f 87 168 86
f 86 168 167
f 88 168 87
f 89 158 88
f 88 158 169
f 169 168 88
f 90 159 89
f 89 159 158
f 91 186 90
f 90 186 159
f 92 180 91
f 91 180 186
f 115 180 92
f 132 131 93
f 219 94 95
f 94 342 95
f 218 124 94
f 124 342 94
f 218 94 219
f 204 95 102
f 95 342 102
f 219 95 204
f 221 96 97
f 342 97 96
f 205 103 96
f 342 96 103
f 205 96 220
f 220 96 221
f 215 97 125
f 342 125 97
f 221 97 215
f 223 98 99
f 343 99 98
f 216 126 98
f 343 98 126
f 216 98 222
f 222 98 223
f 206 99 104
f 343 104 99
f 223 99 206
f 225 100 101
f 100 382 101
f 224 105 100
f 105 382 100
f 224 100 225
f 217 101 127
f 101 382 127
f 225 101 217
f 204 102 208
f 207 105 224
f 107 471 106
f 106 471 137
f 108 471 107
f 112 471 108
f 110 193 109
f 109 193 117
f 210 110 111
f 210 193 110
f 210 111 138
f 113 471 112
f 114 471 113
f 116 198 115
f 181 180 115
f 198 181 115
f 117 198 116
f 193 198 117
f 214 118 124
f 118 342 124
f 236 150 118
f 150 342 118
f 236 118 214
f 238 119 120
f 324 120 119
f 215 125 119
f 119 125 342
f 215 119 237
f 237 119 238
f 324 119 323
f 323 119 347
f 347 119 342
f 231 120 151
f 324 151 120
f 238 120 231
f 240 121 122
f 327 122 121
f 234 152 121
f 327 121 152
f 234 121 239
f 239 121 240
f 216 122 126
f 343 126 122
f 240 122 216
f 328 122 327
f 348 122 328
f 343 122 348
f 241 127 123
f 127 382 123
f 235 123 153
f 123 382 153
f 241 123 235
f 214 124 218
f 217 127 241
f 129 805 128
f 128 804 163
f 128 805 804
f 130 806 129
f 129 806 805
f 136 828 130
f 130 828 806
f 134 210 133
f 133 210 139
f 135 210 134
f 170 210 135
f 137 829 136
f 136 829 828
f 137 471 829
f 139 210 138
f 249 140 141
f 140 342 141
f 248 173 140
f 173 342 140
f 248 140 249
f 230 141 150
f 141 342 150
f 249 141 230
f 232 142 143
f 325 143 142
f 231 151 142
f 325 142 151
f 231 142 232
f 251 143 144
f 313 144 143
f 232 143 250
f 250 143 251
f 313 143 331
f 330 143 325
f 331 143 330
f 252 144 145
f 314 145 144
f 251 144 252
f 314 144 313
f 253 145 146
f 316 146 145
f 252 145 253
f 315 145 314
f 316 145 315
f 234 146 147
f 326 147 146
f 233 146 234
f 253 146 233
f 332 146 316
f 326 146 333
f 333 146 332
f 234 147 152
f 326 152 147
f 255 148 149
f 148 382 149
f 254 153 148
f 153 382 148
f 254 148 255
f 247 149 174
f 149 382 174
f 255 149 247
f 230 150 236
f 325 151 324
f 327 152 326
f 235 153 254
f 155 793 154
f 154 792 184
f 154 793 792
f 162 812 155
f 155 812 793
f 161 210 160
f 160 210 171
f 187 210 161
f 163 813 162
f 162 813 812
f 163 804 813
f 171 210 170
f 246 172 173
f 172 342 173
f 259 188 172
f 188 342 172
f 262 172 246
f 259 172 262
f 246 173 248
f 263 174 175
f 174 382 175
f 247 174 263
f 261 175 189
f 175 382 189
f 260 175 261
f 263 175 260
f 177 781 176
f 176 780 196
f 176 781 780
f 184 800 177
f 177 800 781
f 183 210 182
f 182 210 187
f 199 210 183
f 184 792 800
f 270 202 188
f 202 342 188
f 258 188 259
f 270 188 258
f 269 189 203
f 189 382 203
f 261 189 271
f 271 189 269
f 191 771 190
f 190 770 208
f 190 771 770
f 196 788 191
f 191 788 771
f 195 210 194
f 194 210 199
f 211 210 195
f 196 780 788
f 268 200 202
f 200 342 202
f 277 212 200
f 212 342 200
f 280 200 268
f 277 200 280
f 281 203 201
f 203 382 201
f 279 201 213
f 201 382 213
f 278 201 279
f 281 201 278
f 268 202 270
f 269 203 281
f 208 776 204
f 204 746 219
f 204 776 746
f 417 209 205
f 417 205 220
f 420 206 210
f 223 206 420
f 207 420 211
f 224 420 207
f 208 770 776
f 417 446 209
f 209 445 441
f 209 441 465
f 446 445 209
f 209 465 461
f 211 420 210
f 286 228 212
f 228 341 212
f 276 212 277
f 286 212 276
f 212 341 342
f 285 213 229
f 213 382 229
f 279 213 287
f 287 213 285
f 218 750 214
f 214 722 236
f 214 750 722
f 221 215 417
f 215 237 417
f 420 216 222
f 420 240 216
f 217 420 225
f 241 420 217
f 219 751 218
f 218 751 750
f 219 746 751
f 417 220 221
f 420 222 223
f 225 420 224
f 284 226 228
f 226 341 228
f 290 243 226
f 243 357 226
f 292 226 284
f 290 226 292
f 226 357 341
f 293 229 227
f 229 382 227
f 299 227 244
f 227 382 244
f 293 227 291
f 291 227 299
f 284 228 286
f 285 229 293
f 236 726 230
f 230 700 249
f 230 726 700
f 397 231 232
f 423 238 231
f 424 231 397
f 423 231 424
f 398 232 250
f 397 232 398
f 402 233 234
f 401 253 233
f 401 233 402
f 426 234 239
f 402 234 425
f 425 234 426
f 235 420 241
f 254 420 235
f 236 722 726
f 423 237 238
f 417 237 418
f 418 237 423
f 426 239 240
f 419 240 420
f 426 240 419
f 298 242 243
f 242 357 243
f 296 256 242
f 256 353 242
f 296 242 298
f 242 353 357
f 298 243 290
f 297 244 245
f 244 382 245
f 299 244 297
f 297 245 257
f 245 382 257
f 248 706 246
f 246 680 262
f 246 706 680
f 247 420 255
f 263 420 247
f 249 707 248
f 248 707 706
f 249 700 707
f 398 250 251
f 399 251 252
f 398 251 399
f 401 252 253
f 399 252 400
f 400 252 401
f 255 420 254
f 304 266 256
f 266 353 256
f 304 256 296
f 303 257 267
f 257 382 267
f 297 257 305
f 305 257 303
f 259 663 258
f 258 662 270
f 258 663 662
f 262 682 259
f 259 682 663
f 261 447 260
f 260 420 263
f 260 447 420
f 271 447 261
f 262 680 682
f 302 264 266
f 264 353 266
f 310 274 264
f 274 353 264
f 310 264 302
f 311 267 265
f 267 382 265
f 309 265 275
f 265 382 275
f 311 265 309
f 302 266 304
f 303 267 311
f 270 666 268
f 268 650 280
f 268 666 650
f 269 447 271
f 281 447 269
f 270 662 666
f 308 272 274
f 272 353 274
f 318 282 272
f 282 353 272
f 320 272 308
f 318 272 320
f 321 275 273
f 275 382 273
f 339 273 283
f 273 382 283
f 321 273 319
f 319 273 339
f 308 274 310
f 309 275 321
f 277 635 276
f 276 634 286
f 276 635 634
f 280 652 277
f 277 652 635
f 279 447 278
f 278 447 281
f 287 448 279
f 279 448 447
f 280 650 652
f 335 288 282
f 288 353 282
f 338 282 318
f 335 282 338
f 337 283 289
f 283 382 289
f 336 283 337
f 339 283 336
f 286 638 284
f 284 618 292
f 284 638 618
f 285 442 287
f 293 442 285
f 286 634 638
f 287 442 448
f 350 294 288
f 294 353 288
f 334 288 335
f 350 288 334
f 351 289 295
f 289 382 295
f 337 289 351
f 292 620 290
f 290 604 298
f 290 620 604
f 291 442 293
f 299 442 291
f 292 618 620
f 362 300 294
f 300 369 294
f 362 294 350
f 294 369 353
f 361 295 301
f 295 382 301
f 351 295 363
f 363 295 361
f 298 606 296
f 296 590 304
f 296 606 590
f 297 442 299
f 305 442 297
f 298 604 606
f 306 365 300
f 374 306 300
f 360 300 362
f 374 300 360
f 300 365 369
f 373 301 307
f 301 382 307
f 361 301 375
f 375 301 373
f 304 592 302
f 302 582 310
f 302 592 582
f 303 442 305
f 311 442 303
f 304 590 592
f 312 365 306
f 386 312 306
f 372 306 374
f 386 306 372
f 307 382 317
f 385 307 317
f 373 307 387
f 387 307 385
f 310 584 308
f 308 574 320
f 308 584 574
f 309 466 311
f 321 466 309
f 310 582 584
f 311 466 442
f 322 365 312
f 404 322 312
f 384 312 386
f 404 312 384
f 398 314 313
f 398 313 331
f 399 315 314
f 399 314 398
f 400 316 315
f 400 315 399
f 401 332 316
f 401 316 400
f 317 382 329
f 403 317 329
f 385 317 405
f 405 317 403
f 320 576 318
f 318 568 338
f 318 576 568
f 319 466 321
f 339 466 319
f 320 574 576
f 346 365 322
f 422 346 322
f 396 322 404
f 422 322 396
f 417 324 323
f 417 323 347
f 423 325 324
f 418 324 417
f 423 324 418
f 397 330 325
f 397 325 424
f 424 325 423
f 425 327 326
f 402 326 333
f 425 326 402
f 419 328 327
f 419 327 426
f 426 327 425
f 420 348 328
f 420 328 419
f 329 382 349
f 421 329 349
f 403 329 427
f 427 329 421
f 397 331 330
f 398 331 397
f 401 333 332
f 402 333 401
f 335 561 334
f 334 560 350
f 334 561 560
f 338 570 335
f 335 570 561
f 337 466 336
f 336 466 339
f 351 462 337
f 337 462 466
f 338 568 570
f 340 365 346
f 416 340 346
f 356 365 340
f 444 356 340
f 444 340 416
f 445 342 341
f 441 341 357
f 445 341 441
f 417 347 342
f 417 342 446
f 446 342 445
f 447 344 343
f 420 343 348
f 447 343 420
f 442 358 344
f 442 344 448
f 448 344 447
f 349 382 345
f 449 349 345
f 345 382 359
f 443 345 359
f 449 345 443
f 416 346 422
f 421 349 449
f 350 554 362
f 350 560 554
f 363 462 351
f 352 365 356
f 440 352 356
f 368 365 352
f 464 368 352
f 464 352 440
f 441 357 353
f 461 353 369
f 441 353 465
f 465 353 461
f 442 354 358
f 462 370 354
f 466 354 442
f 462 354 466
f 359 382 355
f 467 359 355
f 355 382 371
f 463 355 371
f 467 355 463
f 440 356 444
f 443 359 467
f 362 556 360
f 360 546 374
f 360 556 546
f 361 462 363
f 375 462 361
f 362 554 556
f 364 365 368
f 364 381 365
f 460 364 368
f 380 381 364
f 474 380 364
f 474 364 460
f 461 369 365
f 471 365 381
f 461 365 475
f 475 365 471
f 462 366 370
f 472 382 366
f 476 366 462
f 472 366 476
f 371 382 367
f 477 371 367
f 367 382 383
f 473 367 383
f 477 367 473
f 460 368 464
f 463 371 477
f 374 548 372
f 372 538 386
f 372 548 538
f 373 462 375
f 387 462 373
f 374 546 548
f 376 381 380
f 470 376 380
f 392 381 376
f 484 392 376
f 484 376 470
f 471 381 377
f 377 381 737
f 481 377 393
f 393 377 737
f 471 377 485
f 485 377 481
f 379 382 378
f 379 378 395
f 472 378 382
f 395 378 391
f 391 378 415
f 482 394 378
f 378 394 769
f 415 378 411
f 411 378 439
f 439 378 435
f 435 378 455
f 455 378 469
f 469 378 479
f 486 378 472
f 479 378 489
f 482 378 486
f 489 378 499
f 499 378 513
f 513 378 529
f 529 378 537
f 537 378 535
f 535 378 545
f 545 378 543
f 543 378 553
f 553 378 552
f 552 378 559
f 559 378 567
f 567 378 565
f 565 378 573
f 573 378 581
f 581 378 579
f 579 378 589
f 589 378 588
f 588 378 603
f 603 378 602
f 602 378 617
f 617 378 613
f 613 378 633
f 629 378 628
f 628 378 649
f 633 378 629
f 645 378 644
f 644 378 659
f 649 378 645
f 659 378 658
f 658 378 679
f 675 378 674
f 674 378 699
f 679 378 675
f 694 378 693
f 693 378 721
f 695 378 694
f 699 378 695
f 718 378 717
f 717 378 745
f 719 378 718
f 721 378 719
f 739 378 738
f 738 378 769
f 740 378 739
f 741 378 740
f 742 378 741
f 743 378 742
f 745 378 743
f 383 382 379
f 487 383 379
f 483 379 395
f 487 379 483
f 470 380 474
f 388 381 392
f 412 381 388
f 406 381 412
f 436 381 406
f 428 381 436
f 450 381 428
f 468 381 450
f 478 381 468
f 488 381 478
f 498 381 488
f 512 381 498
f 528 381 512
f 536 381 528
f 534 381 536
f 544 381 534
f 542 381 544
f 550 381 542
f 551 381 550
f 558 381 551
f 566 381 558
f 564 381 566
f 572 381 564
f 580 381 572
f 578 381 580
f 586 381 578
f 587 381 586
f 594 381 587
f 595 381 594
f 614 381 595
f 608 381 614
f 630 381 608
f 623 381 622
f 622 381 630
f 646 381 623
f 641 381 640
f 640 381 646
f 654 381 641
f 655 381 654
f 676 381 655
f 669 381 668
f 668 381 676
f 696 381 669
f 685 381 684
f 684 381 696
f 686 381 685
f 720 381 686
f 715 381 714
f 714 381 720
f 716 381 715
f 744 381 716
f 733 381 732
f 732 381 744
f 734 381 733
f 735 381 734
f 736 381 735
f 737 381 736
f 473 383 487
f 386 540 384
f 384 530 404
f 384 540 530
f 385 462 387
f 405 476 385
f 385 476 462
f 386 538 540
f 480 388 392
f 494 412 388
f 494 388 480
f 481 393 389
f 737 389 393
f 491 389 413
f 768 413 389
f 481 389 495
f 495 389 491
f 768 389 737
f 482 390 394
f 769 394 390
f 492 414 390
f 390 414 767
f 496 390 482
f 492 390 496
f 769 390 767
f 497 395 391
f 493 391 415
f 497 391 493
f 480 392 484
f 483 395 497
f 404 532 396
f 396 514 422
f 396 532 514
f 403 476 405
f 427 476 403
f 404 530 532
f 490 406 412
f 506 436 406
f 506 406 490
f 508 407 408
f 768 408 407
f 491 413 407
f 407 413 768
f 491 407 507
f 507 407 508
f 501 408 437
f 408 647 437
f 508 408 501
f 408 642 647
f 758 642 408
f 758 408 768
f 510 409 410
f 410 409 767
f 504 438 409
f 438 643 409
f 504 409 509
f 509 409 510
f 643 767 409
f 492 410 414
f 767 414 410
f 510 410 492
f 511 415 411
f 505 411 439
f 511 411 505
f 490 412 494
f 493 415 511
f 422 522 416
f 416 500 444
f 416 522 500
f 421 476 427
f 449 476 421
f 422 514 522
f 500 428 436
f 514 450 428
f 522 428 500
f 514 428 522
f 502 429 430
f 429 625 430
f 501 437 429
f 437 624 429
f 501 429 502
f 429 624 625
f 524 430 431
f 430 609 431
f 502 430 523
f 523 430 524
f 430 631 609
f 430 625 631
f 515 431 456
f 431 596 456
f 524 431 515
f 431 615 596
f 431 609 610
f 431 610 615
f 526 432 433
f 432 612 433
f 520 459 432
f 459 601 432
f 520 432 525
f 525 432 526
f 432 601 616
f 432 611 612
f 432 616 611
f 504 433 434
f 433 626 434
f 503 433 504
f 526 433 503
f 433 612 632
f 433 632 626
f 504 434 438
f 434 627 438
f 434 626 627
f 527 439 435
f 533 435 455
f 527 435 521
f 521 435 533
f 500 436 506
f 437 647 624
f 438 627 648
f 438 648 643
f 505 439 527
f 444 506 440
f 440 490 464
f 440 506 490
f 443 476 449
f 467 472 443
f 443 472 476
f 444 500 506
f 530 468 450
f 532 450 514
f 530 450 532
f 517 451 452
f 451 598 452
f 516 457 451
f 457 597 451
f 516 451 517
f 451 597 598
f 518 452 453
f 452 599 453
f 517 452 518
f 452 598 599
f 519 453 454
f 453 599 454
f 518 453 519
f 519 454 458
f 454 600 458
f 454 599 600
f 541 455 469
f 533 455 531
f 531 455 541
f 516 456 457
f 456 597 457
f 515 456 516
f 456 596 597
f 520 458 459
f 458 600 459
f 519 458 520
f 459 600 601
f 464 494 460
f 460 480 474
f 460 494 480
f 463 472 467
f 477 472 463
f 464 490 494
f 538 478 468
f 540 468 530
f 538 468 540
f 549 469 479
f 541 469 539
f 539 469 549
f 474 484 470
f 471 485 829
f 473 472 477
f 487 472 473
f 483 472 487
f 497 472 483
f 486 472 846
f 493 472 497
f 511 472 493
f 505 472 511
f 527 472 505
f 521 472 527
f 533 472 521
f 531 472 533
f 541 472 531
f 539 472 541
f 549 472 539
f 547 472 549
f 557 472 547
f 555 472 557
f 563 472 555
f 562 472 563
f 571 472 562
f 569 472 571
f 577 472 569
f 575 472 577
f 585 472 575
f 583 472 585
f 593 472 583
f 591 472 593
f 607 472 591
f 605 472 607
f 621 472 605
f 619 472 621
f 639 472 619
f 636 472 637
f 653 472 636
f 637 472 639
f 651 472 653
f 667 472 651
f 664 472 665
f 683 472 664
f 665 472 667
f 681 472 683
f 713 472 681
f 705 472 712
f 731 472 705
f 712 472 713
f 725 472 731
f 757 472 725
f 749 472 756
f 779 472 749
f 756 472 757
f 774 472 775
f 791 472 774
f 775 472 779
f 786 472 787
f 803 472 786
f 787 472 791
f 798 472 799
f 821 472 798
f 799 472 803
f 809 472 810
f 831 472 809
f 810 472 811
f 811 472 820
f 820 472 821
f 825 472 826
f 853 472 825
f 826 472 827
f 827 472 830
f 830 472 831
f 846 472 847
f 847 472 851
f 851 472 852
f 852 472 853
f 474 480 484
f 546 488 478
f 548 478 538
f 546 478 548
f 557 479 489
f 549 479 547
f 547 479 557
f 485 481 829
f 829 481 495
f 482 486 846
f 778 496 482
f 778 482 846
f 554 498 488
f 556 488 546
f 554 488 556
f 555 489 499
f 557 489 555
f 829 495 491
f 829 491 507
f 778 492 496
f 778 510 492
f 560 512 498
f 560 498 554
f 562 499 513
f 555 499 563
f 563 499 562
f 502 723 501
f 508 501 829
f 501 723 753
f 501 752 747
f 501 747 777
f 501 753 752
f 501 777 829
f 523 723 502
f 754 503 504
f 724 526 503
f 724 503 754
f 778 504 509
f 755 504 748
f 748 504 778
f 754 504 755
f 507 508 829
f 778 509 510
f 570 528 512
f 561 512 560
f 570 512 561
f 569 513 529
f 562 513 571
f 571 513 569
f 516 702 515
f 515 701 524
f 515 702 701
f 517 709 516
f 516 708 702
f 516 709 708
f 710 517 518
f 709 517 710
f 710 518 519
f 703 519 520
f 711 519 703
f 710 519 711
f 704 520 525
f 703 520 704
f 524 727 523
f 523 727 723
f 524 701 728
f 524 728 727
f 730 525 526
f 704 525 729
f 729 525 730
f 730 526 724
f 576 536 528
f 568 528 570
f 576 528 568
f 575 529 537
f 569 529 577
f 577 529 575
f 574 534 536
f 584 544 534
f 584 534 574
f 585 537 535
f 583 535 545
f 585 535 583
f 574 536 576
f 575 537 585
f 582 542 544
f 590 550 542
f 592 542 582
f 590 542 592
f 593 545 543
f 591 543 553
f 593 543 591
f 582 544 584
f 583 545 593
f 590 551 550
f 606 558 551
f 606 551 590
f 607 553 552
f 605 552 559
f 607 552 605
f 591 553 607
f 620 566 558
f 604 558 606
f 620 558 604
f 619 559 567
f 605 559 621
f 621 559 619
f 618 564 566
f 634 572 564
f 638 564 618
f 634 564 638
f 639 567 565
f 636 565 573
f 637 565 636
f 639 565 637
f 618 566 620
f 619 567 639
f 652 580 572
f 635 572 634
f 652 572 635
f 651 573 581
f 636 573 653
f 653 573 651
f 650 578 580
f 662 586 578
f 666 578 650
f 662 578 666
f 667 581 579
f 664 579 589
f 665 579 664
f 667 579 665
f 650 580 652
f 651 581 667
f 682 587 586
f 663 586 662
f 682 586 663
f 680 594 587
f 680 587 682
f 681 589 588
f 713 588 603
f 681 588 713
f 664 589 683
f 683 589 681
f 706 595 594
f 706 594 680
f 707 614 595
f 707 595 706
f 701 597 596
f 701 596 615
f 708 598 597
f 702 597 701
f 708 597 702
f 709 599 598
f 709 598 708
f 710 600 599
f 710 599 709
f 703 601 600
f 703 600 711
f 711 600 710
f 704 616 601
f 704 601 703
f 712 603 602
f 705 602 617
f 712 602 705
f 713 603 712
f 700 608 614
f 726 630 608
f 726 608 700
f 727 610 609
f 723 609 631
f 727 609 723
f 701 615 610
f 701 610 728
f 728 610 727
f 729 612 611
f 704 611 616
f 729 611 704
f 724 632 612
f 724 612 730
f 730 612 729
f 731 617 613
f 725 613 633
f 731 613 725
f 700 614 707
f 705 617 731
f 750 623 622
f 722 622 630
f 750 622 722
f 751 646 623
f 751 623 750
f 752 625 624
f 747 624 647
f 752 624 747
f 723 631 625
f 723 625 753
f 753 625 752
f 754 627 626
f 724 626 632
f 754 626 724
f 748 648 627
f 748 627 755
f 755 627 754
f 756 629 628
f 749 628 649
f 756 628 749
f 757 633 629
f 757 629 756
f 722 630 726
f 725 633 757
f 776 641 640
f 746 640 646
f 776 640 746
f 770 654 641
f 770 641 776
f 747 647 642
f 758 660 642
f 772 642 660
f 747 642 777
f 777 642 772
f 748 643 648
f 767 643 661
f 773 661 643
f 778 643 748
f 773 643 778
f 775 645 644
f 774 644 659
f 775 644 774
f 779 649 645
f 779 645 775
f 746 646 751
f 749 649 779
f 788 655 654
f 771 654 770
f 788 654 771
f 780 676 655
f 780 655 788
f 758 656 660
f 772 660 656
f 758 677 656
f 783 656 677
f 772 656 789
f 782 656 783
f 789 656 782
f 661 657 767
f 773 657 661
f 657 678 766
f 785 678 657
f 767 657 766
f 790 657 773
f 785 657 790
f 787 659 658
f 787 658 679
f 774 659 791
f 791 659 787
f 800 669 668
f 780 668 676
f 781 668 780
f 800 668 781
f 792 696 669
f 792 669 800
f 671 670 759
f 795 670 671
f 758 670 677
f 783 677 670
f 759 670 758
f 783 670 801
f 794 670 795
f 801 670 794
f 759 697 671
f 795 671 697
f 765 673 672
f 797 672 673
f 765 672 698
f 796 698 672
f 796 672 797
f 678 673 766
f 784 673 678
f 766 673 765
f 802 673 784
f 797 673 802
f 803 675 674
f 798 674 699
f 799 674 798
f 803 674 799
f 786 679 675
f 786 675 803
f 784 678 785
f 787 679 786
f 793 685 684
f 793 684 696
f 812 686 685
f 812 685 793
f 804 720 686
f 804 686 813
f 813 686 812
f 688 687 760
f 815 687 688
f 760 687 697
f 795 697 687
f 795 687 814
f 814 687 815
f 761 689 688
f 816 688 689
f 761 688 760
f 815 688 816
f 690 689 762
f 808 689 690
f 762 689 761
f 807 689 808
f 816 689 807
f 763 691 690
f 818 690 691
f 763 690 762
f 808 690 817
f 817 690 818
f 764 692 691
f 819 691 692
f 764 691 763
f 818 691 819
f 765 698 692
f 796 692 698
f 765 692 764
f 819 692 796
f 820 694 693
f 810 693 721
f 811 693 810
f 820 693 811
f 821 695 694
f 821 694 820
f 798 699 695
f 798 695 821
f 793 696 792
f 760 697 759
f 828 715 714
f 805 714 720
f 806 714 805
f 828 714 806
f 822 716 715
f 822 715 829
f 829 715 828
f 823 744 716
f 823 716 822
f 826 718 717
f 825 717 745
f 826 717 825
f 830 719 718
f 827 718 826
f 830 718 827
f 809 721 719
f 809 719 831
f 831 719 830
f 805 720 804
f 810 721 809
f 824 733 732
f 824 732 744
f 848 734 733
f 848 733 824
f 849 735 734
f 849 734 848
f 850 736 735
f 850 735 849
f 832 737 736
f 832 736 850
f 833 768 737
f 833 737 832
f 846 739 738
f 845 738 769
f 846 738 845
f 847 740 739
f 847 739 846
f 851 741 740
f 851 740 847
f 852 742 741
f 852 741 851
f 853 743 742
f 853 742 852
f 825 745 743
f 825 743 853
f 824 744 823
f 835 759 758
f 834 758 768
f 835 758 834
f 836 760 759
f 836 759 835
f 837 761 760
f 837 760 836
f 838 762 761
f 838 761 837
f 854 763 762
f 839 762 838
f 854 762 839
f 840 764 763
f 840 763 854
f 841 765 764
f 841 764 840
f 842 766 765
f 842 765 841
f 843 767 766
f 843 766 842
f 844 769 767
f 844 767 843
f 834 768 833
f 845 769 844
f 823 777 772
f 772 789 848
f 823 772 824
f 824 772 848
f 846 773 778
f 846 790 773
f 822 777 823
f 829 777 822
f 782 783 850
f 789 782 850
f 833 783 801
f 832 783 833
f 850 783 832
f 846 784 785
f 802 784 846
f 785 790 846
f 848 789 849
f 849 789 850
f 835 794 795
f 834 801 794
f 834 794 835
f 836 795 814
f 835 795 836
f 844 796 797
f 843 819 796
f 843 796 844
f 845 797 802
f 844 797 845
f 833 801 834
f 845 802 846
f 854 807 808
f 816 807 839
f 839 807 854
f 840 808 817
f 854 808 840
f 814 815 836
f 838 815 816
f 836 815 837
f 837 815 838
f 838 816 839
f 841 817 818
f 840 817 841
f 843 818 819
f 841 818 842
f 842 818 843
