v -0.0182678537 0.0479663353 0.0252827191
v -0.0182880955 0.0479865818 0.0285628343
v -0.0183064251 0.0480049114 0.0255920887
v -0.0183373384 0.0480358295 0.0259031749
v -0.0183499126 0.048048399 0.0260592437
v -0.0183692722 0.0480677586 0.0263721919
v -0.0183760529 0.0480745392 0.026528976
v -0.0183838062 0.0480822926 0.0268429279
v -0.0183847742 0.0480832653 0.0270000005
v -0.0183808975 0.0480793839 0.0273140955
v -0.0183692722 0.0480677586 0.027627809
v -0.0183605604 0.048059042 0.0277844024
v -0.0183373384 0.0480358295 0.0280968237
v -0.0183228426 0.0480213242 0.0282525587
v -0.0180009823 0.0476994686 0.0239218187
v -0.0180380564 0.0477365475 0.0240698862
v -0.0180380564 0.0477365475 0.0299301124
v -0.0180009823 0.0476994686 0.0300781822
v -0.0180733042 0.0477717857 0.0242188478
v -0.0181067019 0.0478051834 0.0243686557
v -0.0181382494 0.047836731 0.0245192647
v -0.0181957417 0.047894228 0.0248227024
v -0.0182457094 0.047944191 0.0251287937
v -0.0182457094 0.047944191 0.0288712049
v -0.0182216673 0.0479201488 0.0290245605
v -0.0181679277 0.0478664188 0.0293293715
v -0.0181067019 0.0478051834 0.0296313453
v -0.0180733042 0.0477717857 0.0297811532
v -0.0177885227 0.047487009 0.023196435
v -0.0177885227 0.047487009 0.0308035636
v -0.0178345852 0.0475330715 0.0233393693
v -0.0179213791 0.0476198654 0.02362854
v -0.0179620867 0.0476605682 0.0237746882
v -0.0179620867 0.0476605682 0.0302253127
v -0.0179213791 0.0476198654 0.0303714585
v -0.0178788738 0.0475773602 0.0305165792
v -0.0175321655 0.0472306519 0.0225
v -0.0175321655 0.0472306519 0.031500001
v -0.0175868587 0.0472853451 0.022636714
v -0.0176398592 0.0473383408 0.022774756
v -0.0177407055 0.0474391918 0.0230546594
v -0.0177407055 0.0474391918 0.0309453392
v -0.0176911478 0.0473896294 0.0310859156
v -0.0175868587 0.0472853451 0.031363287
v -0.0172967796 0.046995266 0.0219672632
v -0.0172967796 0.046995266 0.0320327353
v -0.0173580818 0.0470565681 0.022098248
v -0.0174757938 0.0471742802 0.0223646569
v -0.0174757938 0.0471742802 0.0316353416
v -0.017417758 0.0471162491 0.0317692733
v -0.0170356827 0.046734169 0.0214590478
v -0.0170356827 0.046734169 0.0325409532
v -0.0171032982 0.0468017845 0.0215836644
v -0.0172338657 0.0469323521 0.0218378115
v -0.0172338657 0.0469323521 0.0321621871
v -0.0171693687 0.0468678551 0.0322900677
v -0.0167501621 0.0464486485 0.0209778237
v -0.0167501621 0.0464486485 0.0330221748
v -0.0168237572 0.0465222435 0.021095469
v -0.0169665413 0.0466650276 0.0213361168
v -0.0169665413 0.0466650276 0.0326638842
v -0.0168958931 0.0465943794 0.032785089
v -0.0167537146 0.049280632 0.0246706295
v -0.0168074541 0.049334362 0.0249754405
v -0.0168314962 0.0493584042 0.0251287937
v -0.0168738775 0.049400795 0.0254371667
v -0.0169086294 0.0494355373 0.0257474422
v -0.0169231253 0.0494500427 0.0259031749
v -0.0169463472 0.0494732552 0.0262155986
v -0.0169550591 0.0494819717 0.0263721919
v -0.0169666843 0.049493597 0.0266859055
v -0.016969593 0.0494965057 0.0268429279
v -0.016970561 0.0494974785 0.0270000005
v -0.0169618397 0.0494887524 0.0274710226
v -0.0169550591 0.0494819717 0.027627809
v -0.0169356995 0.0494626122 0.0279407573
v -0.0169231253 0.0494500427 0.0280968237
v -0.0168922119 0.0494191246 0.0284079099
v -0.0168536406 0.0493805485 0.0287172818
v -0.0168314962 0.0493584042 0.0288712049
v -0.0167815237 0.0493084412 0.0291772962
v -0.0167537146 0.049280632 0.0293293715
v -0.016520813 0.0462192993 0.0206360388
v -0.016520813 0.0462192993 0.0333639622
v -0.0165986662 0.0462971478 0.0207480741
v -0.0166751223 0.0463736038 0.0208620143
v -0.0166751223 0.0463736038 0.0331379843
v -0.0165986662 0.0462971478 0.0332519245
v -0.0165071659 0.0490340786 0.02362854
v -0.0165867691 0.0491136818 0.0239218187
v -0.0166590862 0.0491859989 0.0242188478
v -0.0166924887 0.0492193966 0.0243686557
v -0.0166924887 0.0492193966 0.0296313453
v -0.0166238432 0.0491507607 0.0299301124
v -0.0165478735 0.0490747814 0.0302253127
v -0.0165071659 0.0490340786 0.0303714585
v -0.0167240314 0.0492509441 0.0245192647
v -0.0167240314 0.0492509441 0.0294807363
v -0.0162791376 0.0459776192 0.0203116965
v -0.0162791376 0.0459776192 0.0336883044
v -0.0163610249 0.0460595112 0.0204178166
v -0.016441596 0.0461400776 0.0205259418
v -0.016441596 0.0461400776 0.0334740591
v -0.0163610249 0.0460595112 0.0335821843
v -0.0162769346 0.0488038425 0.0229140854
v -0.0163743095 0.0489012222 0.023196435
v -0.0164646606 0.0489915733 0.0234834194
v -0.0164203672 0.0489472847 0.0306606293
v -0.0163264923 0.048853405 0.0309453392
v -0.0162769346 0.0488038425 0.0310859156
v -0.0160257845 0.0457242661 0.0200056863
v -0.0160257845 0.0457242661 0.0339943147
v -0.0161114912 0.0458099728 0.0201056004
v -0.0161959486 0.0458944302 0.0337923861
v -0.0160035448 0.0485304623 0.0222307277
v -0.0160615807 0.0485884933 0.0223646569
v -0.0161726456 0.0486995583 0.022636714
v -0.0161726456 0.0486995583 0.031363287
v -0.0160615807 0.0485884933 0.0316353416
v -0.0160035448 0.0485304623 0.0317692733
v -0.016225646 0.0487525539 0.022774756
v -0.016225646 0.0487525539 0.031225245
v -0.0157614594 0.0454599457 0.0197188473
v -0.0157614594 0.0454599457 0.0342811537
v -0.0158507423 0.0455492287 0.0198122799
v -0.0159388618 0.0456373482 0.0340920973
v -0.0157551556 0.0482820683 0.0217099333
v -0.0158825665 0.0484094791 0.0219672632
v -0.0159438686 0.0484707813 0.022098248
v -0.0159438686 0.0484707813 0.0319017506
v -0.0158196526 0.0483465652 0.0321621871
v -0.0157551556 0.0482820683 0.0322900677
v -0.0155794983 0.0452779846 0.0195386624
v -0.015671032 0.0453695183 0.0343723679
v -0.0156214695 0.0481483822 0.0214590478
v -0.015689085 0.0482159977 0.0215836644
v -0.015689085 0.0482159977 0.0324163342
v -0.0155523281 0.0480792408 0.0326638842
v -0.0152984982 0.0449969845 0.0192854941
v -0.0152984982 0.0449969845 0.0347145057
v -0.0153932028 0.0450916843 0.0193675673
v -0.0154868774 0.0451853638 0.0345480347
v -0.0153359442 0.0478628616 0.0209778237
v -0.015409544 0.0479364567 0.021095469
v -0.015409544 0.0479364567 0.032904532
v -0.0152609091 0.047787817 0.0331379843
v -0.0154816799 0.0480085926 0.0212149119
v -0.0154816799 0.0480085926 0.032785089
v -0.0150085144 0.0447070007 0.0190534711
v -0.0150085144 0.0447070007 0.0349465275
v -0.015106123 0.0448046093 0.0191284227
v -0.0152027969 0.0449012833 0.0347942281
v -0.015184453 0.0477113609 0.0207480741
v -0.0150273829 0.0475542908 0.0334740591
v -0.0148105936 0.0445090752 0.0189108539
v -0.0149099951 0.0446084766 0.0350190592
v -0.0147817354 0.0473086433 0.0202076149
v -0.0149468117 0.0474737244 0.0204178166
v -0.0148649244 0.0473918324 0.0336883044
v -0.0147817354 0.0473086433 0.0337923861
v -0.014507411 0.0442059021 0.0187154567
v -0.014507411 0.0442059021 0.035284543
v -0.014609273 0.0443077545 0.0187780905
v -0.0147103434 0.0444088249 0.0351567698
v -0.0145246487 0.0470515614 0.0199079037
v -0.014697278 0.0472241859 0.0201056004
v -0.0146115713 0.0471384888 0.0339943147
v -0.0145246487 0.0470515614 0.0340920973
v -0.0143014555 0.0439999371 0.0185977757
v -0.0143014555 0.0439999371 0.0354022241
v -0.0144047956 0.0441032772 0.0186553454
v -0.0144047956 0.0441032772 0.0353446555
v -0.0143472462 0.0468741589 0.0197188473
v -0.0144365292 0.0469634418 0.0198122799
v -0.0144365292 0.0469634418 0.0341877198
v -0.0142568188 0.0467837315 0.0343723679
v -0.01409272 0.0437912064 0.0184903324
v -0.0141974192 0.0438959007 0.0185427666
v -0.0141974192 0.0438959007 0.0354572344
v -0.01409272 0.0437912064 0.0355096674
v -0.0140726643 0.046599577 0.0194519651
v -0.0141652851 0.0466921978 0.0195386624
v -0.0141652851 0.0466921978 0.0344613385
v -0.0140726643 0.046599577 0.0345480347
v -0.0137749605 0.0434734421 0.018348645
v -0.0137749605 0.0434734421 0.0356513548
v -0.0138814573 0.0435799389 0.0183932567
v -0.0139873867 0.043685873 0.0355595088
v -0.0137885838 0.0463154964 0.0192057717
v -0.013884285 0.0464111977 0.0192854941
v -0.013884285 0.0464111977 0.0347145057
v -0.0137885838 0.0463154964 0.0347942281
v -0.0139789896 0.0465058975 0.0193675673
v -0.0139789896 0.0465058975 0.0346324325
v -0.0135603981 0.0432588844 0.0182673383
v -0.0136679296 0.0433664112 0.0356933331
v -0.0136919098 0.0462188225 0.0191284227
v -0.0135943012 0.0461212139 0.0349465275
v -0.0133439569 0.0430424385 0.018196671
v -0.0134523945 0.0431508808 0.0357693315
v -0.0133963804 0.0459232883 0.0189108539
v -0.0132961302 0.0458230381 0.0351567698
v -0.0134957819 0.0460226898 0.0189809418
v -0.0134957819 0.0460226898 0.0350190592
v -0.0130163603 0.0427148418 0.0181108046
v -0.013051198 0.0427496891 0.0261244345
v -0.0130055027 0.042703989 0.02797508
v -0.0130163603 0.0427148418 0.035889194
v -0.0131259041 0.0428243904 0.0181367302
v -0.013091877 0.0427903633 0.0262282157
v -0.0131640606 0.0428625469 0.0264746714
v -0.0132080965 0.0429065781 0.0267340612
v -0.0132227116 0.0429211979 0.0269703317
v -0.0132111959 0.042909687 0.0272365952
v -0.0131703739 0.0428688602 0.0274970317
v -0.0131012373 0.0427997284 0.0277452302
v -0.0130618505 0.0427603321 0.0278500009
v -0.0132351141 0.0429336052 0.0358346438
v -0.0130931978 0.0456201153 0.0187154567
v -0.0131950598 0.0457219677 0.0187780905
v -0.0131950598 0.0457219677 0.0352219081
v -0.0130931978 0.0456201153 0.035284543
v -0.0127963858 0.0424948673 0.0180670846
v -0.01280124 0.0424997215 0.0204131603
v -0.0127535896 0.042452076 0.0216989923
v -0.0127934961 0.0424919872 0.0256977248
v -0.01276089 0.0424593716 0.0283396173
v -0.01280124 0.0424997215 0.0324131608
v -0.0127535896 0.042452076 0.0336989903
v -0.0127963858 0.0424948673 0.0359329152
v -0.0129065065 0.0426049881 0.0180875874
v -0.0128282814 0.0425267677 0.0204915786
v -0.0128853827 0.0425838642 0.0207401109
v -0.0129046993 0.0426031857 0.020999999
v -0.0128884583 0.0425869446 0.0212385106
v -0.0128344326 0.0425329189 0.0214884138
v -0.0128083591 0.0425068455 0.0215674877
v -0.0128251629 0.0425236492 0.0257366538
v -0.0129808407 0.042679327 0.0259769154
v -0.0129933195 0.0426918011 0.0260007644
v -0.0129933195 0.0426918011 0.0279992342
v -0.0128406315 0.0425391178 0.0282433009
v -0.0128094511 0.0425079327 0.0282830071
v -0.0128282814 0.0425267677 0.0324915791
v -0.0128853827 0.0425838642 0.0327401114
v -0.0129046993 0.0426031857 0.0329999995
v -0.0128884583 0.0425869446 0.0332385111
v -0.0128344326 0.0425329189 0.0334884143
v -0.0128083591 0.0425068455 0.0335674882
v -0.0129065065 0.0426049881 0.0359124136
v -0.0128872423 0.0454141502 0.0185977757
v -0.012783206 0.0453101139 0.0354572344
v -0.0129905825 0.0455174999 0.0186553454
v -0.0129905825 0.0455174999 0.0353446555
v -0.0125403481 0.0422388344 0.0199887288
v -0.0125022106 0.0422006969 0.0220483375
v -0.0125477724 0.042246254 0.0254720497
v -0.0125097446 0.042208231 0.0285530281
v -0.0125403481 0.0422388344 0.031988728
v -0.0125022106 0.0422006969 0.0340483379
v -0.0125754719 0.0422739582 0.0180342472
v -0.0127267151 0.0424252014 0.0202477312
v -0.0127448492 0.0424433308 0.0202830291
v -0.0127358942 0.0424343758 0.0217347312
v -0.0125527506 0.0422512321 0.0219982934
v -0.0125851564 0.0422836475 0.0254989886
v -0.0127442436 0.0424427299 0.0256423187
v -0.0126035957 0.0423020821 0.0284868526
v -0.0125665503 0.0422650318 0.0285147119
v -0.0127267151 0.0424252014 0.0322477317
v -0.0127448492 0.0424433308 0.0322830296
v -0.0127358942 0.0424343758 0.0337347317
v -0.0125527506 0.0422512321 0.0339982939
v -0.0126860313 0.0423845177 0.0359506965
v -0.0126785069 0.0452054195 0.0184903324
v -0.0125731735 0.0451000862 0.0355595088
v -0.012293952 0.0419924335 0.0198111796
v -0.0122644453 0.0419629269 0.0222015762
v -0.0122912245 0.041989706 0.0253435707
v -0.0122501831 0.0419486694 0.028668766
v -0.012293952 0.0419924335 0.0318111801
v -0.0122644453 0.0419629269 0.0342015767
v -0.0123538809 0.0420523624 0.0180123341
v -0.0124892025 0.0421876888 0.01993994
v -0.0123085814 0.0420070629 0.0221818972
v -0.0124905043 0.0421889954 0.0254351425
v -0.0123116236 0.0420101147 0.0286495018
v -0.0124892025 0.0421876888 0.0319399405
v -0.0123085814 0.0420070629 0.0341818976
v -0.0124647408 0.0421632271 0.0359780765
v -0.0124672441 0.0449941521 0.0183932567
v -0.0122537165 0.0447806244 0.0356933331
v -0.0120208149 0.0417193012 0.0179999995
v -0.0120362406 0.0417347221 0.019750191
v -0.0120053892 0.0417038708 0.0222498107
v -0.0120417957 0.0417402821 0.0253002596
v -0.0120208149 0.0417193012 0.0286999989
v -0.0120208149 0.0417193012 0.0317499995
v -0.0120362406 0.0417347221 0.0317501903
v -0.0120053892 0.0417038708 0.0342498088
v -0.0120208149 0.0417193012 0.035999999
v -0.0121318798 0.0418303661 0.0180013704
v -0.0122495823 0.0419480686 0.0197925925
v -0.0120516615 0.0417501431 0.0222492385
v -0.0122295551 0.0419280415 0.0253258276
v -0.012062767 0.0417612534 0.0286989641
v -0.0122495823 0.0419480686 0.031792593
v -0.0120516615 0.0417501431 0.034249239
v -0.0122429161 0.0419414024 0.0359945178
v -0.0120381813 0.044565094 0.0182306695
v -0.0121461849 0.0446730976 0.0182673383
v -0.0121461849 0.0446730976 0.0357326627
v -0.0120381813 0.044565094 0.0357693315
v -0.0117987185 0.0414972 0.0180054832
v -0.0117920475 0.0414905338 0.0197925925
v -0.011762393 0.0414608746 0.0221953821
v -0.0117914467 0.041489933 0.0253312349
v -0.0117504053 0.0414488869 0.0286564302
v -0.0117920475 0.0414905338 0.031792593
v -0.011762393 0.0414608746 0.0341953802
v -0.0117987185 0.0414972 0.0359945178
v -0.01190975 0.0416082363 0.0180013704
v -0.0119899683 0.0416884499 0.019750762
v -0.0118069868 0.0415054684 0.0222128701
v -0.0119998341 0.0416983204 0.0253002596
v -0.0118120747 0.041510561 0.0286741734
v -0.0119899683 0.0416884499 0.0317507625
v -0.0118069868 0.0415054684 0.0342128706
v -0.01190975 0.0416082363 0.0359986281
v -0.0119297438 0.0444566517 0.018196671
v -0.011756156 0.0442830734 0.0265029693
v -0.0117969828 0.0443239002 0.0267634058
v -0.0118086843 0.0443355923 0.0270000005
v -0.0117938833 0.0443207912 0.0272659397
v -0.0118209009 0.0443478184 0.0358346438
v -0.0115394192 0.0412379055 0.0199516618
v -0.0115012817 0.0411997681 0.0220112705
v -0.0115511255 0.0412496071 0.0254351425
v -0.0115127926 0.0412112789 0.0285407233
v -0.0115394192 0.0412379055 0.0319516611
v -0.0115012817 0.0411997681 0.034011271
v -0.011576889 0.0412753754 0.0180219233
v -0.0117476826 0.0414461689 0.0198111796
v -0.0115524273 0.0412509136 0.0220600605
v -0.0117300062 0.0414284878 0.0253504968
v -0.011570509 0.0412689953 0.0285762119
v -0.0117476826 0.0414461689 0.0318111801
v -0.0115524273 0.0412509136 0.034060061
v -0.0116877537 0.04138624 0.0359876657
v -0.0117116909 0.0442386036 0.0181367302
v -0.0115138226 0.0440407352 0.0258846998
v -0.0115791063 0.0441060143 0.0260007644
v -0.0116870241 0.0442139416 0.0262547684
v -0.0117211514 0.044248064 0.0276368308
v -0.0116776638 0.0442045765 0.0277717829
v -0.0115666275 0.0440935402 0.0280230856
v -0.0116021423 0.044129055 0.035889194
v -0.0117288427 0.0442557507 0.0263907743
v -0.0117498474 0.0442767601 0.0275253296
v -0.0112967806 0.0409952621 0.0202830291
v -0.0112553482 0.0409538345 0.021624999
v -0.0112973862 0.0409958725 0.0256423187
v -0.0112643223 0.0409628086 0.028321147
v -0.0112967806 0.0409952621 0.0322830296
v -0.0112553482 0.0409538345 0.0336249995
v -0.0113555984 0.0410540848 0.0180493033
v -0.0114888792 0.0411873703 0.0200017047
v -0.0113057404 0.0410042267 0.0202652693
v -0.0113057404 0.0410042267 0.0217347312
v -0.0113149147 0.041013401 0.0217522693
v -0.0114938574 0.0411923389 0.0254720497
v -0.0114380341 0.0411365204 0.0255131459
v -0.0113142471 0.0410127335 0.02837533
v -0.0114564734 0.0411549549 0.0285010099
v -0.0114888792 0.0411873703 0.0320017052
v -0.0113057404 0.0410042267 0.0322652674
v -0.0113057404 0.0410042267 0.0337347317
v -0.0113149147 0.041013401 0.0337522697
v -0.0114661579 0.0411646442 0.0359657526
v -0.0113821726 0.04390909 0.0180670846
v -0.0112530355 0.0437799435 0.0201475024
v -0.0113216763 0.0438485889 0.0202652693
v -0.0114202194 0.0439471321 0.0205115867
v -0.0114711695 0.0439980774 0.0212598896
v -0.0114140682 0.0439409809 0.0215084219
v -0.0113125019 0.0438394146 0.0217522693
v -0.0112613039 0.0437882118 0.0255742598
v -0.0114264183 0.043953331 0.0257566977
v -0.0114713078 0.0439982204 0.0281809187
v -0.0114109497 0.0439378624 0.0282633471
v -0.0112530355 0.0437799435 0.0321475029
v -0.0113216763 0.0438485889 0.0322652674
v -0.0114202194 0.0439471321 0.0325115871
v -0.0114711695 0.0439980774 0.0332598901
v -0.0114140682 0.0439409809 0.03350842
v -0.0113125019 0.0438394146 0.0337522697
v -0.0112718182 0.0437987309 0.0359506965
v -0.0114922934 0.0440192013 0.0180875874
v -0.0114742451 0.0440011578 0.0207614899
v -0.0114903526 0.0440172653 0.0210218143
v -0.0114857464 0.0440126591 0.0258406019
v -0.0114999228 0.0440268307 0.0281375217
v -0.0114742451 0.0440011578 0.032761488
v -0.0114903526 0.0440172653 0.0330218148
v -0.0114922934 0.0440192013 0.0359124136
v -0.0110252743 0.0407237606 0.0181108046
v -0.0110483103 0.0407467918 0.0260007644
v -0.0110013943 0.0406998806 0.0279008627
v -0.0110252743 0.0407237606 0.035889194
v -0.0111351233 0.0408336048 0.0180875874
v -0.0112477522 0.0409462337 0.0203939891
v -0.0112071972 0.0409056835 0.0205115867
v -0.0111369305 0.0408354168 0.020999999
v -0.0111370687 0.0408355503 0.0210218143
v -0.0111562471 0.0408547287 0.0212598896
v -0.0112133484 0.0409118347 0.0215084219
v -0.0112481337 0.0409466152 0.0256977248
v -0.0112009983 0.0408994846 0.0257566977
v -0.0110607891 0.0407592754 0.0280230856
v -0.0112164669 0.0409149532 0.0282633471
v -0.0112477522 0.0409462337 0.0323939872
v -0.0112071972 0.0409056835 0.0325115871
v -0.0111369305 0.0408354168 0.0329999995
v -0.0111370687 0.0408355503 0.0330218148
v -0.0111562471 0.0408547287 0.0332598901
v -0.0112133484 0.0409118347 0.03350842
v -0.011245244 0.0409437256 0.0359329152
v -0.0111612587 0.0436881714 0.0180342472
v -0.0110078745 0.0435347919 0.0198862422
v -0.0111385374 0.0436654453 0.0200017047
v -0.0112206011 0.043747509 0.0218991756
v -0.0111261349 0.0436530476 0.0220112705
v -0.0110177355 0.0435446529 0.0254025221
v -0.0111893826 0.0437162952 0.0255131459
v -0.0112076406 0.0437345581 0.0284722424
v -0.0111709433 0.0436978607 0.0285010099
v -0.0110078745 0.0435347919 0.0318862414
v -0.0111385374 0.0436654453 0.0320017052
v -0.0112206011 0.043747509 0.0338991737
v -0.0111261349 0.0436530476 0.034011271
v -0.0110505276 0.0435774403 0.0359780765
v -0.0112316017 0.0437585144 0.020116117
v -0.0112424164 0.0437693291 0.0218683219
v -0.0112257175 0.0437526302 0.0255428147
v -0.0112436085 0.0437705212 0.0284416819
v -0.0112316017 0.0437585144 0.0321161175
v -0.0112424164 0.0437693291 0.0338683224
v -0.0108065157 0.0405049973 0.0181653559
v -0.0109904318 0.0406889133 0.0261244345
v -0.0109403925 0.0406388741 0.0262547684
v -0.0108712606 0.0405697422 0.0265029693
v -0.0108304338 0.0405289154 0.0267634058
v -0.0108187323 0.0405172138 0.0270000005
v -0.0108335333 0.0405320148 0.0272659397
v -0.0108775692 0.0405760555 0.0275253296
v -0.0109497528 0.0406482391 0.0277717829
v -0.0109157257 0.040614212 0.0358632708
v -0.0109396677 0.0434665756 0.0180123341
v -0.0107600861 0.0432869987 0.0197689903
v -0.0109661083 0.043493021 0.0221419311
v -0.0107531004 0.0432800083 0.0253126717
v -0.0109580545 0.043484972 0.0286257172
v -0.0107600861 0.0432869987 0.0317689896
v -0.0109661083 0.043493021 0.0341419315
v -0.0108287029 0.0433556156 0.0359945178
v -0.0109801464 0.0435070591 0.019867115
v -0.0109940701 0.0435209827 0.0221234918
v -0.0109780674 0.0435049801 0.025383203
v -0.010997961 0.0435248737 0.0286073804
v -0.0109801464 0.0435070591 0.0318671155
v -0.0109940701 0.0435209827 0.0341234922
v -0.0105892353 0.0402877216 0.0182306695
v -0.0106976728 0.0403961544 0.0358033276
v -0.0106066017 0.0431335144 0.0179999995
v -0.0107176666 0.0432445793 0.0180013704
v -0.0105142097 0.0430411224 0.0197568476
v -0.0107143192 0.0432412319 0.0222406816
v -0.0105018311 0.0430287437 0.025306468
v -0.0107113724 0.0432382851 0.0286935306
v -0.0106066017 0.0431335144 0.0317499995
v -0.0105142097 0.0430411224 0.0317568469
v -0.0107143192 0.0432412319 0.0342406821
v -0.0106066017 0.0431335144 0.035999999
v -0.0107296162 0.0432565289 0.0197621644
v -0.0107448702 0.0432717876 0.0222346115
v -0.0107322531 0.043259161 0.0253093123
v -0.0107322531 0.043259161 0.0286906862
v -0.0107296162 0.0432565289 0.031762166
v -0.0107448702 0.0432717876 0.0342346096
v -0.0102666693 0.0399651508 0.018348645
v -0.0102666693 0.0399651508 0.0356513548
v -0.0103737001 0.0400721817 0.0183066678
v -0.0104812317 0.040179718 0.0357326627
v -0.0103845005 0.0429114132 0.0180054832
v -0.0102612429 0.0427881508 0.0198493695
v -0.0104683332 0.0429952412 0.0222346115
v -0.0102551489 0.0427820568 0.0253742814
v -0.010460103 0.0429870205 0.0286873293
v -0.0102612429 0.0427881508 0.03184937
v -0.0104683332 0.0429952412 0.0342346096
v -0.0102735357 0.0428004532 0.0359876657
v -0.0104955368 0.0430224495 0.0180013704
v -0.0104835873 0.0430105 0.0197621644
v -0.0104988842 0.0430257969 0.0222406816
v -0.0104809504 0.0430078583 0.0253093123
v -0.0104809504 0.0430078583 0.0286906862
v -0.0104835873 0.0430105 0.031762166
v -0.0104988842 0.0430257969 0.0342406821
v -0.0104955368 0.0430224495 0.0359986281
v -0.0100542431 0.0397527294 0.018440491
v -0.0101601725 0.039858654 0.0356067419
v -0.0101626759 0.0426895885 0.0180219233
v -0.0100870686 0.0426139812 0.0199887288
v -0.0100037937 0.0425307064 0.0200858068
v -0.010074666 0.0426015835 0.0219982934
v -0.0102191334 0.0427460461 0.0221234918
v -0.0100422602 0.0425691681 0.0254989886
v -0.0100055628 0.0425324707 0.0255277562
v -0.0100238209 0.0425507336 0.0284868526
v -0.0102152424 0.0427421551 0.0286073804
v -0.0100870686 0.0426139812 0.031988728
v -0.0100037937 0.0425307064 0.0320858073
v -0.010074666 0.0426015835 0.0339982939
v -0.0102191334 0.0427460461 0.0341234922
v -0.0100519447 0.0425788574 0.0359657526
v -0.010233057 0.0427599697 0.019867115
v -0.0102470951 0.0427740078 0.0221419311
v -0.010235136 0.0427620487 0.025383203
v -0.010235136 0.0427620487 0.0286167955
v -0.010233057 0.0427599697 0.0318671155
v -0.0102470951 0.0427740078 0.0341419315
v -0.00994891453 0.0396473961 0.0184903324
v -0.00984421062 0.0395427017 0.0185427666
v -0.00984421062 0.0395427017 0.0354572344
v -0.00994891453 0.0396473961 0.0355096674
v -0.00994138527 0.042468298 0.0180493033
v -0.00990070152 0.0424276142 0.0202477312
v -0.00979913521 0.0423260479 0.0204915786
v -0.00975283432 0.042279747 0.020676477
v -0.00979298401 0.0423198967 0.0214884138
v -0.00989152718 0.0424184399 0.0217347312
v -0.00997078705 0.0424976997 0.0218683219
v -0.00980225372 0.0423291664 0.0257366538
v -0.00975660133 0.042283514 0.0257979178
v -0.00978678513 0.0423136978 0.0282433009
v -0.00996959496 0.0424965076 0.0284416819
v -0.00990070152 0.0424276142 0.0322477317
v -0.00979913521 0.0423260479 0.0324915791
v -0.00975283432 0.042279747 0.032676475
v -0.00979298401 0.0423198967 0.0334884143
v -0.00989152718 0.0424184399 0.0337347317
v -0.00997078705 0.0424976997 0.0338683224
v -0.00983103085 0.0423579388 0.0359329152
v -0.00998160172 0.0425085144 0.020116117
v -0.00999260235 0.0425195198 0.0218991756
v -0.00998748589 0.0425143986 0.0255428147
v -0.00998748589 0.0425143986 0.0284571838
v -0.00998160172 0.0425085144 0.0321161175
v -0.00999260235 0.0425195198 0.0338991737
v -0.00953421879 0.0392327003 0.0187154567
v -0.00953421879 0.0392327003 0.035284543
v -0.00963683414 0.0393353157 0.0186553454
v -0.00974017429 0.0394386559 0.0354022241
v -0.00972091007 0.042247818 0.0180875874
v -0.00972271729 0.04224963 0.020999999
v -0.0097228508 0.0422497635 0.0210218143
v -0.00964657593 0.0421734886 0.0259769154
v -0.00953553963 0.0420624523 0.0262282157
v -0.00950008202 0.0420269947 0.0263357568
v -0.00952617931 0.0420530872 0.0277452302
v -0.0096340971 0.042161005 0.0279992342
v -0.00971328068 0.0422401886 0.0281375217
v -0.00972271729 0.04224963 0.0329999995
v -0.0097228508 0.0422497635 0.0330218148
v -0.00950151253 0.0420284252 0.0358632708
v -0.00974203396 0.0422689419 0.0207401109
v -0.00972325611 0.042250164 0.0209563756
v -0.00973895836 0.042265871 0.0212385106
v -0.00974897194 0.0422758846 0.021302402
v -0.00972745705 0.0422543697 0.0258406019
v -0.00974189568 0.0422688084 0.0281809187
v -0.00974203396 0.0422689419 0.0327401114
v -0.00972325611 0.042250164 0.0329563761
v -0.00973895836 0.042265871 0.0332385111
v -0.00974897194 0.0422758846 0.0333024025
v -0.0093312912 0.0390297775 0.01884323
v -0.00943235683 0.0391308479 0.0352219081
v -0.00939230251 0.0419192104 0.0181653559
v -0.00946335602 0.0419902687 0.0264746714
v -0.00941932011 0.041946228 0.0267340612
v -0.00940470505 0.0419316177 0.0269703317
v -0.00940451908 0.0419314365 0.0270000005
v -0.00945704746 0.0419839554 0.0274970317
v -0.00947001266 0.0419969254 0.0275534654
v -0.00928345966 0.0418103676 0.0358033276
v -0.00947701263 0.0420039253 0.0264185667
v -0.00949205208 0.0420189648 0.0276368308
v -0.00903311539 0.0387316017 0.0190534711
v -0.00903311539 0.0387316017 0.0349465275
v -0.00913163948 0.0388301258 0.0189809418
v -0.00923103619 0.0389295273 0.0350891471
v -0.00917502213 0.0417019348 0.0182306695
v -0.00906701851 0.0415939312 0.0182673383
v -0.00906701851 0.0415939312 0.0357326627
v -0.00917502213 0.0417019348 0.0357693315
v -0.00883883286 0.0385373192 0.0192057717
v -0.00893550682 0.0386339931 0.0348715782
v -0.00895948696 0.0414863949 0.0183066678
v -0.00885245609 0.041379364 0.0356513548
v -0.00855475235 0.0382532387 0.0194519651
v -0.00874313164 0.038441618 0.0347145057
v -0.00864002991 0.0411669426 0.018440491
v -0.00853469658 0.0410616093 0.0355096674
v -0.00874595928 0.0412728672 0.0183932567
v -0.00874595928 0.0412728672 0.0356067419
v -0.00828017521 0.0379786568 0.0197188473
v -0.00828017521 0.0379786568 0.0342811537
v -0.00837059784 0.0380690842 0.0196276319
v -0.0084621315 0.0381606178 0.0344613385
v -0.00842999744 0.0409569149 0.0185427666
v -0.00832596111 0.0408528786 0.0354022241
v -0.0080158453 0.0377143269 0.0200056863
v -0.0080158453 0.0377143269 0.0339943147
v -0.00810276794 0.0378012543 0.0199079037
v -0.00819088745 0.0378893738 0.0341877198
v -0.00822262096 0.0407495289 0.0186553454
v -0.00801814365 0.0405450611 0.0187780905
v -0.00801814365 0.0405450611 0.0352219081
v -0.00812000561 0.0406469135 0.035284543
v -0.00776249218 0.0374609833 0.0203116965
v -0.00776249218 0.0374609833 0.0336883044
v -0.00784568119 0.0375441628 0.0202076149
v -0.00793013859 0.0376286201 0.0338944006
v -0.00791707325 0.0404439907 0.01884323
v -0.00781682301 0.0403437405 0.0350891471
v -0.0075208168 0.0372193031 0.0206360388
v -0.0075208168 0.0372193031 0.0333639622
v -0.00768060493 0.0373790913 0.0204178166
v -0.00760003853 0.0372985249 0.0205259418
v -0.00760003853 0.0372985249 0.0334740591
v -0.00768060493 0.0373790913 0.0335821843
v -0.00771742153 0.040244339 0.0189809418
v -0.00761890221 0.0401458149 0.0190534711
v -0.00752129364 0.0400482063 0.0348715782
v -0.00771742153 0.040244339 0.0350190592
v -0.00729147243 0.036989954 0.0209778237
v -0.00729147243 0.036989954 0.0330221748
v -0.0074429636 0.0371414452 0.0207480741
v -0.00736650753 0.0370649891 0.0208620143
v -0.00736650753 0.0370649891 0.0331379843
v -0.0074429636 0.0371414452 0.0332519245
v -0.00742461967 0.0399515324 0.0192057717
v -0.00732891846 0.0398558311 0.0192854941
v -0.00732891846 0.0398558311 0.0347145057
v -0.00742461967 0.0399515324 0.0347942281
v -0.00700594711 0.0367044334 0.0214590478
v -0.00700594711 0.0367044334 0.0325409532
v -0.00714573669 0.036844223 0.0212149119
v -0.0070750885 0.0367735748 0.0213361168
v -0.0070750885 0.0367735748 0.0326638842
v -0.00721787262 0.0369163589 0.032904532
v -0.00714053917 0.0396674519 0.0194519651
v -0.00704791832 0.039574831 0.0195386624
v -0.00704791832 0.039574831 0.0344613385
v -0.00714053917 0.0396674519 0.0345480347
v -0.00723421383 0.0397611313 0.0193675673
v -0.00723421383 0.0397611313 0.0346324325
v -0.00687226105 0.0365707474 0.0217099333
v -0.00680776405 0.0365062504 0.0218378115
v -0.00680776405 0.0365062504 0.0321621871
v -0.0069383316 0.0366368179 0.0324163342
v -0.00695638466 0.0394832973 0.0196276319
v -0.00677667427 0.039303587 0.0198122799
v -0.00677667427 0.039303587 0.0341877198
v -0.00686595726 0.0393928699 0.0342811537
v -0.00650946426 0.0362079506 0.0225
v -0.00650946426 0.0362079506 0.031500001
v -0.00674485016 0.0364433365 0.0219672632
v -0.0066238718 0.0363223534 0.0222307277
v -0.00656583595 0.0362643223 0.0223646569
v -0.00656583595 0.0362643223 0.0316353416
v -0.00668354797 0.0363820343 0.0319017506
v -0.00674485016 0.0364433365 0.0320327353
v -0.00668855476 0.0392154675 0.0199079037
v -0.00660163212 0.03912854 0.0200056863
v -0.00651592541 0.0390428429 0.0338944006
v -0.00668855476 0.0392154675 0.0340920973
v -0.00625310707 0.0359515934 0.023196435
v -0.0063009243 0.0359994106 0.0309453392
v -0.00645477104 0.0361532574 0.022636714
v -0.00635048676 0.0360489731 0.0229140854
v -0.00640177059 0.0361002522 0.031225245
v -0.00645477104 0.0361532574 0.031363287
v -0.00643146801 0.0389583759 0.0202076149
v -0.006348279 0.0388751965 0.0203116965
v -0.00626639175 0.0387933044 0.0335821843
v -0.00643146801 0.0389583759 0.0337923861
v -0.00604064751 0.0357391338 0.0239218187
v -0.00600357342 0.035702055 0.0240698862
v -0.00600357342 0.035702055 0.0299301124
v -0.00604064751 0.0357391338 0.0300781822
v -0.00616275597 0.0358612423 0.0234834194
v -0.00612025547 0.035818737 0.02362854
v -0.00607954788 0.0357780342 0.0237746882
v -0.00607954788 0.0357780342 0.0302253127
v -0.00612025547 0.035818737 0.0303714585
v -0.00620704937 0.0359055309 0.0306606293
v -0.00618582058 0.038712738 0.0205259418
v -0.00602875042 0.0385556679 0.0332519245
v -0.00579592037 0.0354944115 0.0251287937
v -0.00575353909 0.0354520206 0.0254371667
v -0.00577377605 0.0354722672 0.0287172818
v -0.00579592037 0.0354944115 0.0288712049
v -0.00596833038 0.0356668167 0.0242188478
v -0.00593492794 0.0356334095 0.0243686557
v -0.00587370205 0.0355721836 0.0246706295
v -0.0058199625 0.0355184441 0.0249754405
v -0.00584589291 0.0355443745 0.0291772962
v -0.00590338516 0.0356018715 0.0294807363
v -0.00593492794 0.0356334095 0.0296313453
v -0.00596833038 0.0356668167 0.0297811532
v -0.00595229435 0.0384792118 0.0208620143
v -0.00580365944 0.0383305721 0.021095469
v -0.00580365944 0.0383305721 0.032904532
v -0.00587725925 0.0384041672 0.0330221748
v -0.00571878719 0.0354172688 0.0257474422
v -0.00570429134 0.0354027729 0.0259031749
v -0.00568106937 0.0353795605 0.0262155986
v -0.00567235756 0.0353708439 0.0263721919
v -0.00566073227 0.0353592186 0.0266859055
v -0.00565782356 0.0353563099 0.0268429279
v -0.00565782356 0.0353563099 0.0271570706
v -0.00566557693 0.0353640633 0.0274710226
v -0.00567235756 0.0353708439 0.027627809
v -0.00569171715 0.0353902035 0.0279407573
v -0.00570429134 0.0354027729 0.0280968237
v -0.0057352047 0.035433691 0.0284079099
v -0.00566087532 0.038187788 0.0213361168
v -0.00552411842 0.0380510311 0.0215836644
v -0.00552411842 0.0380510311 0.0324163342
v -0.00559173393 0.0381186466 0.0325409532
v -0.00573152351 0.0382584362 0.0212149119
v -0.00573152351 0.0382584362 0.032785089
v -0.00545804787 0.0379849606 0.0217099333
v -0.00539355087 0.0379204636 0.0218378115
v -0.00526933479 0.0377962475 0.022098248
v -0.00526933479 0.0377962475 0.0319017506
v -0.00533063698 0.0378575497 0.0320327353
v -0.00545804787 0.0379849606 0.0322900677
v -0.00520965862 0.0377365665 0.0222307277
v -0.00515162277 0.0376785355 0.0223646569
v -0.00509525108 0.0376221638 0.0225
v -0.00504055786 0.0375674706 0.031363287
v -0.00509525108 0.0376221638 0.031500001
v -0.00520965862 0.0377365665 0.0317692733
v -0.00493626881 0.0374631863 0.0229140854
v -0.00488671112 0.0374136238 0.0230546594
v -0.00479283619 0.0373197441 0.0233393693
v -0.00479283619 0.0373197441 0.0306606293
v -0.00483889389 0.0373658066 0.0308035636
v -0.00493626881 0.0374631863 0.0310859156
v -0.00498755741 0.0375144653 0.022774756
v -0.00498755741 0.0375144653 0.031225245
v -0.00470603752 0.0372329502 0.02362854
v -0.00466532993 0.0371922474 0.0237746882
v -0.00458936024 0.0371162682 0.0240698862
v -0.00452071476 0.0370476322 0.0243686557
v -0.00452071476 0.0370476322 0.0296313453
v -0.0045541172 0.0370810299 0.0297811532
v -0.00462643433 0.037153347 0.0300781822
v -0.00470603752 0.0372329502 0.0303714585
v -0.00474854279 0.0372754555 0.0234834194
v -0.00474854279 0.0372754555 0.0305165792
v -0.00445948887 0.0369863968 0.0246706295
v -0.00443167973 0.0369585876 0.0248227024
v -0.00438170719 0.0369086246 0.0251287937
v -0.00435956287 0.0368864803 0.0252827191
v -0.00432099152 0.0368479042 0.0255920887
v -0.00429007816 0.0368169861 0.0259031749
v -0.00427750397 0.0368044167 0.0260592437
v -0.00425814438 0.0367850571 0.0263721919
v -0.00425136375 0.0367782764 0.026528976
v -0.00425136375 0.0367782764 0.0274710226
v -0.00425814438 0.0367850571 0.027627809
v -0.00426685619 0.0367937737 0.0277844024
v -0.00429007816 0.0368169861 0.0280968237
v -0.00430457401 0.0368314819 0.0282525587
v -0.0043393259 0.0368662338 0.0285628343
v -0.00438170719 0.0369086246 0.0288712049
v -0.00440574932 0.0369326572 0.0290245605
v -0.00445948887 0.0369863968 0.0293293715
v -0.00448917198 0.0370160847 0.0245192647
v -0.00448917198 0.0370160847 0.0294807363
v -0.00424651909 0.0367734318 0.0266859055
v -0.00424361038 0.0367705231 0.0268429279
v -0.0042426424 0.0367695503 0.0270000005
v -0.00424651909 0.0367734318 0.0273140955
f 67 1 3
f 1 257 3
f 66 23 1
f 23 257 1
f 66 1 67
f 79 14 2
f 14 268 2
f 80 2 24
f 2 712 24
f 79 2 80
f 2 269 258
f 2 258 287
f 268 269 2
f 2 287 280
f 2 280 306
f 2 306 297
f 2 297 712
f 68 3 4
f 3 239 4
f 67 3 68
f 226 238 3
f 267 226 3
f 3 238 239
f 3 257 266
f 266 267 3
f 69 4 5
f 4 239 5
f 68 4 69
f 70 5 6
f 5 210 6
f 69 5 70
f 206 210 5
f 5 240 206
f 5 239 240
f 71 6 7
f 6 211 7
f 70 6 71
f 6 210 211
f 72 7 8
f 7 212 8
f 71 7 72
f 7 211 212
f 73 8 9
f 8 213 9
f 72 8 73
f 8 212 213
f 74 9 10
f 9 214 10
f 73 9 74
f 9 213 214
f 75 10 11
f 10 215 11
f 74 10 75
f 214 215 10
f 76 11 12
f 11 216 12
f 75 11 76
f 11 215 216
f 77 12 13
f 12 207 13
f 76 12 77
f 217 207 12
f 12 216 217
f 78 13 14
f 13 242 14
f 77 13 78
f 13 207 241
f 241 242 13
f 78 14 79
f 14 243 227
f 14 227 268
f 14 242 243
f 91 15 16
f 15 257 16
f 90 33 15
f 33 257 15
f 90 15 91
f 91 16 19
f 16 257 19
f 95 17 18
f 17 700 18
f 94 28 17
f 28 721 17
f 94 17 95
f 17 721 700
f 95 18 34
f 18 701 34
f 18 700 701
f 92 19 20
f 19 257 20
f 91 19 92
f 97 20 21
f 20 257 21
f 92 20 97
f 64 21 22
f 21 257 22
f 63 21 64
f 97 21 63
f 65 22 23
f 22 257 23
f 64 22 65
f 65 23 66
f 81 24 25
f 24 713 25
f 80 24 81
f 24 712 713
f 82 25 26
f 25 718 26
f 81 25 82
f 25 713 718
f 93 26 27
f 26 719 27
f 82 26 98
f 98 26 93
f 26 718 719
f 94 27 28
f 27 720 28
f 93 27 94
f 27 719 720
f 28 720 721
f 107 29 31
f 29 257 31
f 106 41 29
f 41 257 29
f 106 29 107
f 109 36 30
f 36 707 30
f 109 30 42
f 30 689 42
f 30 707 689
f 89 31 32
f 31 257 32
f 107 31 89
f 90 32 33
f 32 257 33
f 89 32 90
f 96 34 35
f 34 705 35
f 95 34 96
f 34 701 705
f 108 35 36
f 35 706 36
f 96 35 108
f 35 705 706
f 108 36 109
f 36 706 707
f 117 37 39
f 37 257 39
f 117 48 37
f 48 257 37
f 119 44 38
f 44 693 38
f 119 38 49
f 38 677 49
f 38 693 677
f 121 39 40
f 39 257 40
f 117 39 121
f 106 40 41
f 40 257 41
f 105 40 106
f 121 40 105
f 110 42 43
f 42 689 43
f 109 42 110
f 118 43 44
f 43 692 44
f 110 43 122
f 122 43 118
f 43 689 692
f 118 44 119
f 44 692 693
f 129 45 47
f 45 265 47
f 128 54 45
f 54 265 45
f 128 45 129
f 131 50 46
f 50 288 46
f 131 46 55
f 46 270 55
f 46 259 270
f 46 288 259
f 116 47 48
f 47 265 48
f 115 47 116
f 129 47 115
f 116 48 117
f 48 265 256
f 256 285 48
f 295 257 48
f 48 285 278
f 48 278 304
f 48 304 295
f 120 49 50
f 49 681 50
f 119 49 120
f 49 677 681
f 120 50 130
f 130 50 131
f 50 281 288
f 50 307 281
f 299 50 298
f 298 50 681
f 299 307 50
f 136 51 53
f 51 225 53
f 135 60 51
f 60 225 51
f 135 51 136
f 138 56 52
f 56 244 52
f 138 52 61
f 52 245 61
f 52 244 245
f 128 53 54
f 53 264 54
f 127 53 128
f 136 53 127
f 53 225 264
f 54 264 265
f 132 55 56
f 55 270 56
f 131 55 132
f 132 56 137
f 137 56 138
f 56 228 244
f 56 271 228
f 270 271 56
f 144 57 59
f 57 225 59
f 143 86 57
f 86 225 57
f 143 57 144
f 146 62 58
f 62 246 58
f 146 58 87
f 58 247 87
f 58 246 247
f 135 59 60
f 59 225 60
f 147 59 135
f 144 59 147
f 148 61 62
f 61 245 62
f 138 61 148
f 145 62 146
f 148 62 145
f 62 245 246
f 64 478 63
f 63 478 97
f 65 478 64
f 66 478 65
f 67 433 66
f 66 433 468
f 66 468 461
f 461 486 66
f 66 486 478
f 68 388 67
f 67 388 387
f 387 444 67
f 67 434 433
f 67 444 434
f 69 351 68
f 68 351 401
f 68 401 388
f 70 352 69
f 69 352 351
f 71 358 70
f 353 352 70
f 70 358 353
f 72 331 71
f 71 331 358
f 73 332 72
f 72 332 331
f 74 333 73
f 73 333 332
f 75 334 74
f 334 333 74
f 76 354 75
f 75 359 334
f 75 354 359
f 77 355 76
f 76 355 354
f 78 356 77
f 77 356 355
f 79 390 78
f 78 402 356
f 78 390 389
f 78 389 402
f 789 79 80
f 79 445 390
f 436 435 79
f 79 435 445
f 79 469 436
f 462 469 79
f 79 487 462
f 479 487 79
f 788 479 79
f 788 79 789
f 790 80 81
f 789 80 790
f 791 81 82
f 790 81 791
f 793 82 98
f 791 82 793
f 153 83 85
f 83 237 85
f 153 102 83
f 102 237 83
f 154 88 84
f 88 248 84
f 154 84 103
f 84 248 103
f 143 85 86
f 85 237 86
f 153 85 143
f 86 237 225
f 154 87 88
f 87 247 88
f 146 87 154
f 88 247 248
f 90 478 89
f 89 478 107
f 91 478 90
f 92 478 91
f 97 478 92
f 769 93 94
f 768 98 93
f 768 93 769
f 770 94 95
f 769 94 770
f 771 95 96
f 770 95 771
f 773 96 108
f 771 96 773
f 793 98 768
f 158 99 101
f 99 236 101
f 158 113 99
f 113 236 99
f 159 104 100
f 104 229 100
f 160 100 114
f 100 229 114
f 159 100 160
f 153 101 102
f 101 237 102
f 158 101 153
f 101 236 237
f 159 103 104
f 103 248 104
f 154 103 159
f 104 249 229
f 104 248 249
f 106 478 105
f 105 478 121
f 107 478 106
f 760 108 109
f 759 108 760
f 773 108 759
f 761 109 110
f 760 109 761
f 763 110 122
f 761 110 763
f 166 111 113
f 111 236 113
f 166 125 111
f 125 236 111
f 167 114 112
f 114 273 112
f 168 112 126
f 112 273 126
f 167 112 168
f 157 113 158
f 166 113 157
f 160 114 167
f 114 229 272
f 272 273 114
f 116 386 115
f 115 386 129
f 117 478 116
f 478 386 116
f 121 478 117
f 754 118 119
f 753 122 118
f 753 118 754
f 480 119 120
f 480 755 119
f 754 119 755
f 130 463 120
f 120 463 488
f 120 481 480
f 120 488 481
f 763 122 753
f 174 123 125
f 123 236 125
f 173 133 123
f 133 235 123
f 173 123 174
f 123 235 236
f 176 126 124
f 126 282 124
f 176 124 134
f 124 617 134
f 282 308 124
f 124 308 300
f 124 300 617
f 165 125 166
f 174 125 165
f 168 126 175
f 175 126 176
f 126 273 260
f 126 260 289
f 126 289 282
f 128 385 127
f 127 385 136
f 129 386 128
f 128 386 385
f 131 437 130
f 437 470 130
f 130 470 463
f 132 391 131
f 131 391 446
f 131 438 437
f 131 446 438
f 137 392 132
f 392 391 132
f 182 141 133
f 141 235 133
f 182 133 173
f 184 134 142
f 134 619 142
f 176 134 183
f 183 134 184
f 134 617 619
f 136 385 135
f 135 385 147
f 138 392 137
f 148 393 138
f 393 392 138
f 193 139 141
f 139 235 141
f 190 151 139
f 151 235 139
f 190 139 193
f 191 142 140
f 142 611 140
f 192 140 152
f 140 611 152
f 191 140 192
f 181 141 182
f 193 141 181
f 184 142 194
f 194 142 191
f 142 619 611
f 144 385 143
f 143 385 153
f 147 385 144
f 146 403 145
f 145 403 148
f 154 404 146
f 146 404 403
f 403 393 148
f 197 149 151
f 149 234 151
f 197 155 149
f 155 234 149
f 198 152 150
f 152 607 150
f 204 150 156
f 150 599 156
f 198 150 204
f 150 607 599
f 189 151 190
f 197 151 189
f 151 234 235
f 192 152 198
f 152 611 607
f 153 385 158
f 159 394 154
f 154 394 404
f 201 163 155
f 163 234 155
f 203 155 197
f 201 155 203
f 202 156 164
f 156 601 164
f 204 156 202
f 156 599 601
f 158 384 157
f 157 384 166
f 158 385 384
f 160 395 159
f 159 395 394
f 167 396 160
f 160 396 395
f 220 161 163
f 161 233 163
f 219 171 161
f 171 233 161
f 219 161 220
f 222 164 162
f 164 587 162
f 254 162 172
f 162 561 172
f 222 162 254
f 162 587 561
f 220 163 201
f 163 233 234
f 202 164 221
f 221 164 222
f 164 601 587
f 166 384 165
f 165 384 174
f 168 439 167
f 447 396 167
f 167 439 447
f 175 440 168
f 168 440 439
f 169 233 171
f 253 169 171
f 178 233 169
f 251 178 169
f 251 169 253
f 252 172 170
f 172 563 170
f 252 170 179
f 170 563 179
f 253 171 219
f 254 172 252
f 172 561 563
f 174 384 173
f 173 476 182
f 173 382 381
f 381 442 173
f 173 383 382
f 173 399 383
f 173 384 400
f 173 400 399
f 173 430 429
f 173 429 466
f 173 442 430
f 173 466 459
f 173 459 484
f 484 476 173
f 176 464 175
f 471 440 175
f 175 464 471
f 664 176 183
f 489 464 176
f 176 482 489
f 675 482 176
f 675 176 664
f 177 233 178
f 251 177 178
f 187 232 177
f 275 187 177
f 232 233 177
f 275 177 251
f 276 179 180
f 179 534 180
f 252 179 276
f 179 563 534
f 276 180 188
f 180 535 188
f 180 534 535
f 182 476 181
f 181 476 193
f 665 183 184
f 664 183 665
f 667 184 194
f 665 184 667
f 185 224 187
f 291 185 187
f 195 263 185
f 291 195 185
f 185 263 224
f 292 188 186
f 188 511 186
f 292 186 196
f 186 491 196
f 186 511 491
f 187 224 232
f 291 187 275
f 276 188 292
f 188 535 511
f 190 476 189
f 189 476 197
f 193 476 190
f 655 191 192
f 654 194 191
f 654 191 655
f 644 192 198
f 655 192 644
f 667 194 654
f 199 262 195
f 311 199 195
f 195 262 263
f 311 195 291
f 313 196 200
f 196 493 200
f 292 196 312
f 312 196 313
f 196 491 493
f 197 476 203
f 645 198 204
f 644 198 645
f 209 262 199
f 330 209 199
f 310 199 311
f 330 199 310
f 335 200 218
f 200 473 218
f 313 200 335
f 200 493 473
f 203 476 201
f 201 476 220
f 635 204 202
f 628 202 221
f 635 202 628
f 645 204 635
f 205 255 209
f 350 205 209
f 231 284 205
f 350 231 205
f 205 284 255
f 352 210 206
f 352 206 240
f 355 207 217
f 355 241 207
f 357 218 208
f 218 457 208
f 405 208 250
f 208 409 250
f 357 208 405
f 208 457 409
f 209 255 262
f 350 209 330
f 352 211 210
f 358 212 211
f 353 211 352
f 358 211 353
f 331 213 212
f 331 212 358
f 332 214 213
f 332 213 331
f 333 215 214
f 333 214 332
f 334 216 215
f 334 215 333
f 354 217 216
f 359 216 334
f 354 216 359
f 355 217 354
f 335 218 357
f 218 473 457
f 220 476 219
f 219 476 253
f 629 221 222
f 628 221 629
f 629 222 254
f 223 284 231
f 398 223 231
f 261 284 223
f 380 261 223
f 380 223 398
f 382 232 224
f 382 224 263
f 385 225 237
f 385 264 225
f 387 238 226
f 387 226 267
f 390 227 243
f 390 268 227
f 392 244 228
f 392 228 271
f 395 229 249
f 395 272 229
f 397 250 230
f 250 427 230
f 397 230 274
f 230 427 274
f 398 231 350
f 382 233 232
f 383 234 233
f 383 233 382
f 399 235 234
f 399 234 383
f 400 236 235
f 400 235 399
f 384 237 236
f 384 236 400
f 385 237 384
f 387 239 238
f 351 240 239
f 351 239 401
f 388 239 387
f 401 239 388
f 352 240 351
f 355 242 241
f 389 243 242
f 356 242 355
f 402 242 356
f 389 242 402
f 390 243 389
f 392 245 244
f 393 246 245
f 393 245 392
f 403 247 246
f 403 246 393
f 404 248 247
f 404 247 403
f 394 249 248
f 394 248 404
f 395 249 394
f 405 250 397
f 250 409 427
f 253 476 251
f 251 476 275
f 621 254 252
f 613 252 276
f 621 252 613
f 629 254 621
f 429 262 255
f 429 255 284
f 431 256 265
f 432 285 256
f 432 256 431
f 433 266 257
f 286 257 295
f 433 257 286
f 436 258 269
f 436 287 258
f 437 270 259
f 437 259 288
f 439 260 273
f 440 289 260
f 440 260 439
f 283 277 261
f 261 277 284
f 428 283 261
f 428 261 380
f 381 263 262
f 381 262 442
f 430 262 429
f 442 262 430
f 382 263 381
f 385 265 264
f 386 265 385
f 443 265 386
f 431 265 443
f 433 267 266
f 387 267 444
f 434 267 433
f 444 267 434
f 435 269 268
f 445 268 390
f 435 268 445
f 436 269 435
f 391 271 270
f 391 270 446
f 438 270 437
f 446 270 438
f 392 271 391
f 395 273 272
f 396 273 395
f 447 273 396
f 439 273 447
f 274 379 290
f 441 274 290
f 274 427 379
f 397 274 441
f 275 476 291
f 615 276 292
f 613 276 615
f 303 277 283
f 459 284 277
f 459 277 303
f 460 278 285
f 460 304 278
f 295 279 286
f 461 286 279
f 295 305 279
f 461 279 305
f 462 280 287
f 462 306 280
f 463 288 281
f 463 281 307
f 464 282 289
f 464 308 282
f 302 303 283
f 458 302 283
f 458 283 428
f 429 284 466
f 466 284 459
f 467 285 432
f 460 285 467
f 433 286 468
f 468 286 461
f 469 287 436
f 462 287 469
f 437 288 470
f 470 288 463
f 471 289 440
f 464 289 471
f 290 349 309
f 465 290 309
f 290 379 349
f 441 290 465
f 291 476 311
f 604 292 312
f 609 292 604
f 615 292 609
f 293 294 303
f 322 294 293
f 293 303 302
f 475 293 302
f 474 322 293
f 474 293 475
f 476 303 294
f 314 294 322
f 342 294 314
f 476 294 323
f 616 323 294
f 366 294 342
f 410 294 366
f 406 294 410
f 448 294 406
f 472 294 448
f 492 294 472
f 490 294 492
f 510 294 490
f 532 294 510
f 533 294 532
f 562 294 533
f 560 294 562
f 586 294 560
f 600 294 586
f 598 294 600
f 606 294 598
f 610 294 606
f 618 294 610
f 616 294 618
f 295 296 305
f 295 324 296
f 477 295 304
f 477 324 295
f 478 305 296
f 296 324 316
f 296 316 344
f 478 296 325
f 711 325 296
f 296 344 337
f 296 337 370
f 296 370 680
f 676 296 680
f 690 296 676
f 688 296 691
f 702 296 688
f 691 296 690
f 699 296 698
f 698 296 704
f 714 296 699
f 703 296 702
f 704 296 703
f 711 296 710
f 710 296 717
f 715 296 714
f 716 296 715
f 717 296 716
f 479 297 306
f 479 326 297
f 712 297 326
f 480 299 298
f 481 298 299
f 682 299 298
f 480 298 481
f 298 681 682
f 481 307 299
f 481 299 327
f 682 327 299
f 481 299 480
f 482 300 308
f 482 328 300
f 617 300 328
f 309 329 301
f 483 309 301
f 509 301 329
f 483 301 509
f 475 302 458
f 459 303 484
f 484 303 476
f 485 304 460
f 477 304 485
f 461 305 486
f 486 305 478
f 487 306 462
f 479 306 487
f 463 307 488
f 488 307 481
f 489 308 464
f 482 308 489
f 309 321 329
f 309 349 321
f 465 309 483
f 311 476 310
f 310 476 330
f 605 312 313
f 604 312 605
f 595 313 335
f 605 313 595
f 502 314 322
f 494 342 314
f 494 314 502
f 495 323 315
f 616 315 323
f 495 315 343
f 616 343 315
f 496 316 324
f 496 344 316
f 497 325 317
f 711 317 325
f 497 317 345
f 711 345 317
f 498 318 326
f 712 326 318
f 498 346 318
f 712 318 346
f 499 327 319
f 319 327 682
f 499 319 347
f 347 319 682
f 500 320 328
f 617 328 320
f 500 348 320
f 617 320 348
f 501 329 321
f 501 321 349
f 502 322 474
f 476 323 503
f 503 323 495
f 504 324 477
f 496 324 504
f 478 325 505
f 505 325 497
f 506 326 479
f 498 326 506
f 481 327 507
f 507 327 499
f 508 328 482
f 500 328 508
f 509 329 501
f 330 476 350
f 575 335 357
f 595 335 575
f 513 343 336
f 616 336 343
f 514 336 367
f 367 336 616
f 513 336 514
f 516 337 344
f 516 370 337
f 517 345 338
f 711 338 345
f 517 338 371
f 726 371 338
f 726 338 711
f 520 339 346
f 712 346 339
f 520 374 339
f 339 374 712
f 521 347 340
f 683 340 347
f 522 340 375
f 683 375 340
f 521 340 522
f 524 341 348
f 625 348 341
f 524 378 341
f 625 341 378
f 512 366 342
f 512 342 494
f 495 343 526
f 526 343 513
f 527 344 496
f 516 344 527
f 497 345 528
f 528 345 517
f 529 346 498
f 520 346 529
f 499 347 530
f 530 347 521
f 683 347 682
f 531 348 500
f 524 348 531
f 617 348 625
f 525 349 379
f 501 349 525
f 350 476 398
f 575 357 405
f 538 368 360
f 360 368 616
f 538 360 411
f 411 360 616
f 541 361 369
f 668 369 361
f 541 416 361
f 646 361 416
f 658 361 646
f 656 361 659
f 668 361 656
f 659 361 658
f 543 372 362
f 726 362 372
f 543 362 417
f 726 417 362
f 546 363 373
f 373 363 737
f 546 420 363
f 363 420 737
f 548 376 364
f 671 364 376
f 548 364 421
f 421 364 671
f 551 365 377
f 633 377 365
f 551 426 365
f 631 365 426
f 633 365 631
f 536 410 366
f 536 366 512
f 538 367 368
f 616 368 367
f 514 367 554
f 537 367 538
f 554 367 537
f 542 369 370
f 669 370 369
f 541 369 542
f 669 369 668
f 515 370 516
f 555 370 515
f 542 370 555
f 678 370 669
f 679 370 678
f 680 370 679
f 518 371 372
f 726 372 371
f 517 371 518
f 518 372 556
f 556 372 543
f 520 373 374
f 374 373 712
f 519 373 520
f 557 373 519
f 546 373 557
f 712 373 737
f 548 375 376
f 376 375 671
f 522 375 558
f 547 375 548
f 558 375 547
f 671 375 670
f 670 375 683
f 552 377 378
f 633 378 377
f 551 377 552
f 523 378 524
f 559 378 523
f 552 378 559
f 625 378 623
f 623 378 633
f 553 379 427
f 525 379 553
f 398 476 380
f 380 476 428
f 443 386 478
f 553 405 397
f 525 397 441
f 553 397 525
f 575 405 553
f 564 406 410
f 564 448 406
f 568 418 407
f 728 407 418
f 568 407 449
f 728 449 407
f 572 408 419
f 736 419 408
f 571 456 408
f 408 456 735
f 571 408 572
f 736 408 735
f 575 427 409
f 575 409 457
f 564 410 536
f 539 411 412
f 412 411 616
f 538 411 539
f 577 412 413
f 413 412 616
f 539 412 576
f 576 412 577
f 566 413 414
f 414 413 616
f 565 413 566
f 577 413 565
f 579 414 415
f 616 415 414
f 566 414 578
f 578 414 579
f 541 415 416
f 638 416 415
f 540 415 541
f 579 415 540
f 624 415 616
f 622 415 624
f 632 415 622
f 630 415 632
f 638 415 630
f 636 416 639
f 648 416 636
f 639 416 638
f 646 416 649
f 649 416 648
f 544 417 418
f 726 418 417
f 543 417 544
f 544 418 580
f 567 418 568
f 580 418 567
f 727 418 726
f 728 418 727
f 546 419 420
f 737 420 419
f 545 419 546
f 581 419 545
f 572 419 581
f 737 419 736
f 549 421 422
f 422 421 657
f 548 421 549
f 657 421 671
f 583 422 423
f 423 422 661
f 549 422 582
f 582 422 583
f 660 422 657
f 661 422 660
f 574 423 424
f 424 423 647
f 573 423 574
f 583 423 573
f 647 423 661
f 585 424 425
f 651 425 424
f 574 424 584
f 584 424 585
f 650 424 647
f 651 424 650
f 551 425 426
f 641 426 425
f 550 425 551
f 585 425 550
f 640 425 637
f 637 425 651
f 641 425 640
f 631 426 641
f 553 427 575
f 428 476 458
f 478 432 431
f 478 431 443
f 478 467 432
f 501 441 465
f 525 441 501
f 588 472 448
f 588 448 564
f 569 449 450
f 450 449 729
f 568 449 569
f 729 449 728
f 590 450 451
f 730 451 450
f 569 450 596
f 589 450 590
f 596 450 589
f 730 450 729
f 591 451 452
f 731 452 451
f 590 451 591
f 731 451 730
f 592 452 453
f 732 453 452
f 591 452 592
f 732 452 731
f 593 453 454
f 454 453 733
f 592 453 593
f 733 453 732
f 594 454 455
f 734 455 454
f 593 454 594
f 734 454 733
f 571 455 456
f 735 456 455
f 570 455 571
f 597 455 570
f 594 455 597
f 735 455 734
f 595 457 473
f 575 457 595
f 476 475 458
f 478 460 467
f 478 485 460
f 509 465 483
f 501 465 509
f 602 492 472
f 602 472 588
f 604 473 493
f 595 473 605
f 605 473 604
f 476 474 475
f 476 502 474
f 476 494 502
f 503 494 476
f 477 485 478
f 478 505 477
f 477 505 497
f 497 528 477
f 751 504 477
f 477 528 517
f 477 517 751
f 506 479 788
f 481 755 480
f 755 481 507
f 508 482 675
f 608 490 492
f 608 510 490
f 609 493 491
f 615 491 511
f 609 491 615
f 603 492 602
f 608 492 603
f 604 493 609
f 495 494 503
f 495 512 494
f 495 536 512
f 526 536 495
f 496 504 751
f 527 496 751
f 788 498 506
f 529 498 788
f 755 507 499
f 747 499 530
f 755 499 747
f 675 500 508
f 531 500 674
f 674 500 675
f 612 532 510
f 614 510 608
f 612 510 614
f 613 511 535
f 615 511 613
f 514 564 513
f 513 536 526
f 513 564 536
f 554 588 514
f 514 588 564
f 751 515 516
f 751 555 515
f 751 516 527
f 518 778 517
f 751 517 752
f 752 517 762
f 756 517 757
f 762 517 756
f 757 517 758
f 758 517 772
f 764 517 765
f 772 517 764
f 765 517 766
f 766 517 767
f 767 517 792
f 774 517 775
f 792 517 774
f 775 517 776
f 776 517 777
f 517 778 777
f 556 778 518
f 519 520 788
f 788 557 519
f 788 520 529
f 748 521 522
f 530 521 747
f 747 521 748
f 748 522 558
f 687 523 524
f 686 559 523
f 686 523 687
f 674 524 531
f 687 524 674
f 612 533 532
f 620 562 533
f 620 533 612
f 621 535 534
f 621 534 563
f 613 535 621
f 538 608 537
f 537 602 554
f 537 603 602
f 537 608 603
f 539 612 538
f 538 614 608
f 538 612 614
f 576 626 539
f 539 620 612
f 539 626 620
f 695 540 541
f 673 579 540
f 673 540 684
f 684 540 685
f 685 540 694
f 694 540 695
f 745 541 542
f 695 541 708
f 708 541 722
f 722 541 723
f 723 541 742
f 738 541 739
f 742 541 738
f 739 541 744
f 744 541 745
f 751 542 555
f 745 542 746
f 746 542 750
f 750 542 751
f 544 778 543
f 543 778 556
f 580 779 544
f 544 779 778
f 787 545 546
f 787 581 545
f 546 557 788
f 787 546 788
f 547 548 749
f 558 547 748
f 748 547 749
f 741 548 549
f 740 548 741
f 749 548 740
f 743 549 582
f 741 549 743
f 696 550 551
f 585 550 709
f 709 550 696
f 551 552 697
f 696 551 697
f 686 552 559
f 697 552 686
f 554 602 588
f 626 560 562
f 626 586 560
f 629 563 561
f 628 561 587
f 629 561 628
f 626 562 620
f 621 563 629
f 566 652 565
f 565 643 577
f 565 652 643
f 566 578 652
f 568 780 567
f 567 779 580
f 567 780 779
f 569 781 568
f 568 781 780
f 596 781 569
f 785 570 571
f 785 597 570
f 571 572 786
f 785 571 786
f 787 572 581
f 786 572 787
f 725 573 574
f 583 573 725
f 725 574 584
f 577 627 576
f 576 627 626
f 577 634 627
f 577 642 634
f 577 643 642
f 672 578 579
f 652 578 653
f 653 578 666
f 662 578 663
f 666 578 662
f 663 578 672
f 672 579 673
f 743 582 583
f 724 583 725
f 743 583 724
f 709 584 585
f 725 584 709
f 634 600 586
f 627 586 626
f 634 586 627
f 635 587 601
f 628 587 635
f 590 782 589
f 589 782 596
f 591 795 590
f 590 794 782
f 590 795 794
f 592 796 591
f 591 796 795
f 592 593 797
f 796 592 797
f 784 593 594
f 783 593 784
f 797 593 783
f 594 597 784
f 596 782 781
f 784 597 785
f 642 598 600
f 643 606 598
f 643 598 642
f 644 601 599
f 644 599 607
f 642 600 634
f 635 601 645
f 645 601 644
f 652 610 606
f 652 606 643
f 654 607 611
f 644 607 655
f 655 607 654
f 662 618 610
f 653 610 652
f 666 610 653
f 662 610 666
f 664 611 619
f 654 611 667
f 665 611 664
f 667 611 665
f 672 616 618
f 672 624 616
f 675 619 617
f 674 617 625
f 675 617 674
f 663 618 662
f 672 618 663
f 664 619 675
f 684 622 624
f 685 632 622
f 685 622 684
f 686 625 623
f 686 623 633
f 673 624 672
f 684 624 673
f 674 625 687
f 687 625 686
f 694 630 632
f 695 638 630
f 695 630 694
f 696 633 631
f 696 631 641
f 694 632 685
f 686 633 697
f 697 633 696
f 708 636 639
f 708 648 636
f 709 640 637
f 709 637 651
f 695 639 638
f 708 639 695
f 709 641 640
f 696 641 709
f 722 646 649
f 722 658 646
f 725 650 647
f 724 647 661
f 725 647 724
f 708 649 648
f 722 649 708
f 725 651 650
f 709 651 725
f 738 656 659
f 738 668 656
f 741 660 657
f 740 657 671
f 741 657 740
f 742 659 658
f 723 658 722
f 742 658 723
f 738 659 742
f 741 661 660
f 724 661 743
f 743 661 741
f 744 669 668
f 739 668 738
f 744 668 739
f 745 678 669
f 745 669 744
f 748 671 670
f 748 670 683
f 740 671 749
f 749 671 748
f 751 676 680
f 752 690 676
f 752 676 751
f 754 681 677
f 753 677 693
f 754 677 753
f 745 679 678
f 750 680 679
f 746 679 745
f 750 679 746
f 751 680 750
f 754 682 681
f 747 683 682
f 747 682 755
f 755 682 754
f 748 683 747
f 756 688 691
f 757 702 688
f 757 688 756
f 760 692 689
f 759 689 707
f 760 689 759
f 752 691 690
f 762 691 752
f 756 691 762
f 763 693 692
f 761 692 760
f 763 692 761
f 753 693 763
f 765 699 698
f 765 698 704
f 766 714 699
f 766 699 765
f 769 701 700
f 769 700 721
f 770 705 701
f 770 701 769
f 772 703 702
f 758 702 757
f 772 702 758
f 764 704 703
f 764 703 772
f 765 704 764
f 770 706 705
f 771 707 706
f 771 706 770
f 759 707 773
f 773 707 771
f 776 711 710
f 775 710 717
f 776 710 775
f 777 726 711
f 777 711 776
f 788 713 712
f 787 712 737
f 788 712 787
f 789 718 713
f 789 713 788
f 766 715 714
f 767 716 715
f 767 715 766
f 774 717 716
f 792 716 767
f 774 716 792
f 775 717 774
f 790 719 718
f 790 718 789
f 793 720 719
f 791 719 790
f 793 719 791
f 768 721 720
f 768 720 793
f 769 721 768
f 778 727 726
f 778 726 777
f 779 728 727
f 779 727 778
f 780 729 728
f 780 728 779
f 781 730 729
f 781 729 780
f 794 731 730
f 782 730 781
f 794 730 782
f 795 732 731
f 795 731 794
f 796 733 732
f 796 732 795
f 783 734 733
f 783 733 797
f 797 733 796
f 784 735 734
f 784 734 783
f 785 736 735
f 785 735 784
f 786 737 736
f 786 736 785
f 787 737 786
