v -0.0190139297 0.0106845518 -0.00114485455
v -0.0190396503 0.010658836 -0.000938605785
v -0.0190602592 0.0106382271 -0.000731215
v -0.0190815453 0.0106169363 -0.00041853857
v -0.0190892986 0.0106091877 -0.000209397793
v -0.0190918831 0.0106066032 4.7683716e-10
v -0.0190860657 0.0106124159 0.000314016819
v -0.0190757374 0.0106227442 0.000522933483
v -0.0190505985 0.0106478926 0.000835037708
v -0.0190274242 0.0106710573 0.00104188967
v -0.018965855 0.0107326265 -0.00145153236
v -0.0189991669 0.0106993147 -0.0012474699
v -0.0189991669 0.0106993147 0.00124747086
v -0.0189831451 0.0107153412 0.00134970713
v -0.0187546162 0.0109438702 -0.0023443861
v -0.0187829498 0.0109155365 -0.00224764061
v -0.018860741 0.0108377453 -0.00195340824
v -0.0189275268 0.0107709547 -0.00165382338
v -0.0189473156 0.010751166 0.00155291367
v -0.0189064983 0.0107919832 0.00175422955
v -0.0188360218 0.0108624645 0.00205212164
v -0.0187546162 0.0109438702 0.00234438705
v -0.0187250904 0.0109733959 -0.00244041872
v -0.0187250904 0.0109733959 0.00244041967
v -0.0185234741 0.0111750074 -0.00299999905
v -0.0186294655 0.0110690209 -0.00272394371
v -0.0186943821 0.0110041042 0.00253570843
v -0.0185952763 0.0111032148 0.00281683016
v -0.0184858993 0.0112125918 -0.00309022856
v -0.0184858993 0.0112125918 0.00309022951
v -0.0182816128 0.0114168736 -0.00352671099
v -0.0183246139 0.0113738724 -0.00344145966
v -0.0184472088 0.0112512775 -0.00317951632
v -0.0184472088 0.0112512775 0.00317951488
v -0.0184074215 0.0112910648 0.00326783466
v -0.0182816128 0.0114168736 0.00352671194
v -0.0182375626 0.011460919 -0.00361088943
v -0.0182375626 0.011460919 0.00361089039
v -0.0180021385 0.0116963478 -0.00401478481
v -0.0180512051 0.0116472813 -0.00393635464
v -0.0181924919 0.0115059944 -0.00369396877
v -0.0181924919 0.0115059944 0.00369396973
v -0.0181463913 0.0115520903 0.00377592134
v -0.0180021385 0.0116963478 0.00401478338
v -0.0179521088 0.0117463728 -0.00409198952
v -0.0179521088 0.0117463728 0.00409199047
v -0.017796431 0.0119020554 -0.00431603861
v -0.0178492454 0.0118492409 -0.00424264145
v -0.0179011444 0.0117973419 0.00416795063
v -0.017796431 0.0119020554 0.00431603956
v -0.0176776699 0.00353553258 -0.0301
v -0.0176776699 0.00353553258 0.0104000001
v -0.01774272 0.0119557663 -0.00438812208
v -0.01774272 0.0119557663 0.00438812304
v -0.0175192264 0.0121792599 -0.00466287565
v -0.0176881222 0.0120103594 -0.00445886803
v -0.0176881222 0.0120103594 0.00445886898
v -0.017632666 0.0120658203 0.00452825832
v -0.0174612717 0.0122372099 -0.00472806406
v -0.0174612717 0.0122372099 0.00472806501
v -0.0172827248 0.0124157616 -0.0049149127
v -0.0174025253 0.0122959562 0.00479181337
v -0.0172216991 0.0124767872 -0.00497422647
v -0.0172216991 0.0124767872 0.00497422504
v -0.0170343594 0.0126641222 -0.00514300299
v -0.0171599487 0.0125385328 0.00503202248
v -0.0169705585 0.012727923 -0.00519615126
v -0.0169705585 0.012727923 0.00519615221
v -0.0167753605 0.0129231258 -0.00534604025
v -0.0169061188 0.0127923676 -0.00524771881
v -0.0169061188 0.0127923676 0.00524771738
v -0.01684104 0.0128574415 0.00529768515
v -0.0167090897 0.0129893919 -0.00539276314
v -0.0167090897 0.0129893919 0.00539276409
v -0.0165069775 0.0131915089 -0.00552303028
v -0.0165748791 0.0131236073 -0.00548127365
v -0.0166422562 0.0130562254 0.00543784666
v -0.0165069775 0.0131915089 0.00552302885
v -0.0163003067 0.0133981749 -0.00563815546
v -0.0164385609 0.0132599207 0.00556310225
v -0.0162305073 0.0134679743 -0.00567311239
v -0.0162305073 0.0134679743 0.00567311096
v -0.0160186771 0.013679814 -0.00576756907
v -0.0160896686 0.0136088129 -0.00573782873
v -0.0161602882 0.0135381933 0.00570633936
v -0.0160186771 0.013679814 0.00576757002
v -0.0158036331 0.013894858 -0.00584622097
v -0.0159473232 0.0137511679 0.00579555559
v -0.0157313351 0.0139671465 -0.00586888504
v -0.0157313351 0.0139671465 0.00586888599
v -0.0155129341 0.0141855475 -0.00592612934
v -0.0156587795 0.0140397068 0.00588976192
v -0.0152927212 0.0144057652 -0.00596713018
v -0.0154397015 0.0142587801 0.00594160843
v -0.0152190117 0.0144794699 -0.00597716761
v -0.0152190117 0.0144794699 0.00597716856
v -0.0150712875 0.0146271988 -0.0059917779
v -0.0151451973 0.014553289 0.00598538446
v -0.0147847847 0.00642841778 -0.00104188871
v -0.0148079494 0.00640524827 -0.000835039139
v -0.0148330978 0.00638010464 -0.000522934914
v -0.0148434261 0.00636977635 -0.000314015865
v -0.014848595 0.00636460744 -0.000104715347
v -0.0148466591 0.0063665434 0.000209396362
v -0.0148389057 0.00637429677 0.000418539524
v -0.0148176197 0.00639558278 0.000731215954
v -0.0147970108 0.00641619645 0.000938606739
v -0.0147565273 0.00645667515 0.00124747086
v -0.014997311 0.0147011753 -0.005996346
v -0.014997311 0.0147011753 0.00599634457
v -0.0148492435 0.0148492428 -0.00600000095
v -0.0149232868 0.0147751995 -0.00599908543
v -0.0149232868 0.0147751995 0.00599908638
v -0.0147405056 0.00647270165 -0.00134970617
v -0.0147232155 0.006489987 0.00145153093
v -0.0145119766 0.00670123063 -0.0023443861
v -0.0145933823 0.00661982499 -0.00205212069
v -0.0146638588 0.00654934369 -0.00175423098
v -0.014704676 0.00650852643 -0.0015529151
v -0.0146848873 0.00652831517 0.00165382433
v -0.0146181015 0.00659510575 0.00195340919
v -0.0145403103 0.0066728922 0.00224763918
v -0.0145119766 0.00670123063 0.00234438705
v -0.0147011761 0.0149973103 -0.005996346
v -0.0147011761 0.0149973103 0.00599634457
v -0.0145532898 0.0151451918 -0.00598538351
v -0.0146271995 0.0150712868 0.00599177647
v -0.0144824509 0.00673075639 -0.00244041872
v -0.0144824509 0.00673075639 0.00244041967
v -0.0143526272 0.00686057053 -0.0028168292
v -0.0144517425 0.0067614647 -0.00253570986
v -0.0143868259 0.00682638131 0.00272394228
v -0.0142808346 0.0069323679 0.003
v -0.0144794754 0.0152190109 -0.00597716761
v -0.0144794754 0.0152190109 0.00597716856
v -0.0142587856 0.0154397055 -0.00594160748
v -0.0144057659 0.0152927204 0.00596713114
v -0.0142432503 0.00696994744 -0.00309022856
v -0.0142432503 0.00696994744 0.00309022951
v -0.0140389732 0.00717423402 -0.00352671099
v -0.0141647819 0.0070484253 -0.00326783371
v -0.0142045692 0.00700863801 -0.00317951632
v -0.0142045692 0.00700863801 0.00317951488
v -0.0140819649 0.00713123284 0.00344145823
v -0.0140389732 0.00717423402 0.00352671194
v -0.0140397076 0.0156587788 -0.00588976336
v -0.0141855434 0.0155129381 0.00592613029
v -0.013994923 0.00721827946 -0.00361088943
v -0.013994923 0.00721827946 0.00361089039
v -0.013759499 0.00745370351 -0.00401478481
v -0.0139037517 0.00730945073 -0.00377592278
v -0.0139498524 0.00726335488 -0.00369396877
v -0.0139498524 0.00726335488 0.00369396973
v -0.0138085655 0.00740464173 0.00393635321
v -0.013759499 0.00745370351 0.00401478338
v -0.013967152 0.0157313391 -0.00586888504
v -0.013967152 0.0157313391 0.00586888599
v -0.0137511639 0.0159473177 -0.00579555464
v -0.013894854 0.0158036276 0.00584621954
v -0.0135537914 0.00765941582 -0.00431603861
v -0.0137094692 0.00750372849 -0.00409198952
v -0.0136066059 0.00760660134 0.00424264002
v -0.0135000709 0.00771312676 0.00438812304
v -0.0136798099 0.0160186716 -0.00576756907
v -0.0135381988 0.0161602923 -0.00570633841
v -0.0136088184 0.0160896727 0.00573782969
v -0.0136798099 0.0160186716 0.00576757002
v -0.0133900265 0.00782318078 -0.00452825737
v -0.0134454826 0.00776771985 -0.00445886803
v -0.0134454826 0.00776771985 0.00445886898
v -0.0132765774 0.00793662034 0.00466287661
v -0.0134679703 0.0162305113 -0.00567311239
v -0.0134679703 0.0162305113 0.00567311096
v -0.0132599167 0.0164385649 -0.00556310368
v -0.0133981708 0.0163003107 0.00563815641
v -0.0132186321 0.00799457036 -0.00472806406
v -0.0132186321 0.00799457036 0.00472806501
v -0.0131598858 0.0080533167 -0.00479181242
v -0.0130400757 0.00817312203 0.00491491127
v -0.0131915096 0.0165069719 -0.00552303028
v -0.0130562214 0.0166422602 -0.00543784571
v -0.013123608 0.0165748783 0.00548127222
v -0.0131915096 0.0165069719 0.00552302885
v -0.0129790596 0.00823414765 -0.00497422647
v -0.0129790596 0.00823414765 0.00497422504
v -0.0129173092 0.00829589329 -0.00503202391
v -0.0127917198 0.0084214779 0.00514300394
v -0.0129893879 0.0167090937 -0.00539276314
v -0.0129893879 0.0167090937 0.00539276409
v -0.012857447 0.0168410393 -0.00529768658
v -0.0127923683 0.0169061132 -0.00524771881
v -0.0127923683 0.0169061132 0.00524771738
v -0.0129231266 0.0167753597 0.00534603882
v -0.012727919 -0.00141421356 -0.0375999994
v -0.012727919 -0.00141421356 -0.0301
v -0.012727919 -0.00141421356 0.0104000001
v -0.012727919 -0.00141421356 0.0178999977
v -0.012727919 0.00848528348 -0.00519615126
v -0.012727919 0.00848528348 0.00519615221
v -0.0125984005 0.00861480199 -0.00529768658
v -0.0126634792 0.00854972802 -0.00524771881
v -0.0126634792 0.00854972802 0.00524771738
v -0.0125327209 0.00868048154 0.00534603882
v -0.012727919 0.0169705626 -0.00519615126
v -0.012727919 0.0169705626 0.00519615221
v -0.0125385384 0.017159948 -0.00503202391
v -0.0126641182 0.0170343634 0.00514300394
v -0.0124664501 0.00874675236 -0.00539276314
v -0.0124664501 0.00874675236 0.00539276409
v -0.0122643379 0.00894886933 -0.00552303028
v -0.0123996166 0.00881358586 -0.00543784571
v -0.0123322395 0.00888096295 0.00548127222
v -0.0122643379 0.00894886933 0.00552302885
v -0.0124767879 0.0172216984 -0.00497422647
v -0.0124767879 0.0172216984 0.00497422504
v -0.0122959618 0.0174025293 -0.00479181242
v -0.0124157623 0.0172827192 0.00491491127
v -0.0121959213 0.00901728116 -0.00556310368
v -0.0120576672 0.00915553532 0.00563815641
v -0.0122372154 0.0174612709 -0.00472806406
v -0.0122372154 0.0174612709 0.00472806501
v -0.0120658211 0.0176326653 -0.00452825737
v -0.0120103649 0.0176881214 -0.00445886803
v -0.0120103649 0.0176881214 0.00445886898
v -0.0121792606 0.0175192209 0.00466287661
v -0.0119878677 0.00922533475 -0.00567311239
v -0.0119878677 0.00922533475 0.00567311096
v -0.0117760281 0.00943716965 -0.00576756907
v -0.0119176487 0.00929555379 -0.00570633841
v -0.0118470291 0.00936617337 0.00573782969
v -0.0117760281 0.00943716965 0.00576757002
v -0.0119557671 0.0177427145 -0.00438812208
v -0.0119557671 0.0177427145 0.00438812304
v -0.0119020561 0.0177964302 -0.00431603861
v -0.0117973427 0.0179011437 -0.00416794968
v -0.0118492416 0.0178492447 0.00424264002
v -0.0119020561 0.0177964302 0.00431603956
v -0.0117046741 0.00950852357 -0.00579555464
v -0.011560984 0.00965221368 0.00584621954
v -0.0117463688 0.0179521128 -0.00409198952
v -0.0117463688 0.0179521128 0.00409199047
v -0.0116963486 0.0180021378 -0.00401478481
v -0.0115520958 0.0181463953 -0.00377592278
v -0.0115059952 0.0181924912 -0.00369396877
v -0.0115059952 0.0181924912 0.00369396973
v -0.011647282 0.0180512043 0.00393635321
v -0.0116963486 0.0180021378 0.00401478338
v -0.0113137058 -0.00282842674 -0.0375999994
v -0.0113137058 -0.00282842674 -0.0301
v -0.0113137058 -0.00282842674 0.0104000001
v -0.0113137058 -0.00282842674 0.0178999977
v -0.0114886955 0.00972450696 -0.00586888504
v -0.0114886955 0.00972450696 0.00586888599
v -0.01141614 0.00979706727 -0.00588976336
v -0.0112702946 0.00994290791 0.00592613029
v -0.011460915 0.0182375666 -0.00361088943
v -0.011460915 0.0182375666 0.00361089039
v -0.0114168743 0.018281612 -0.00352671099
v -0.0112910656 0.0184074207 -0.00326783371
v -0.0112512783 0.018447208 -0.00317951632
v -0.0112512783 0.018447208 0.00317951488
v -0.0113738731 0.0183246084 0.00344145823
v -0.0114168743 0.018281612 0.00352671194
v -0.0111970619 0.0100161406 -0.00594160748
v -0.0110500816 0.0101631256 0.00596713114
v -0.0112125877 0.0184858938 -0.00309022856
v -0.0112125877 0.0184858938 0.00309022951
v -0.0111032108 0.0185952707 -0.0028168292
v -0.011004105 0.0186943813 -0.00253570986
v -0.0110690216 0.0186294647 0.00272394228
v -0.0111750034 0.0185234781 0.003
v -0.010754147 0.000559563262 -0.0355293204
v -0.0107795052 0.000534205062 -0.0352569522
v -0.0107824139 0.000531301124 -0.0350214763
v -0.0107678989 0.000545811279 -0.0347868605
v -0.010754147 0.000559563262 -0.0346706797
v -0.010754147 0.000559563262 0.0149706821
v -0.0107795052 0.000534205062 0.0152430468
v -0.0107824139 0.000531301124 0.0154785233
v -0.0107678989 0.000545811279 0.0157131414
v -0.010754147 0.000559563262 0.015829318
v -0.0109763721 0.0102368303 -0.00597716761
v -0.0109763721 0.0102368303 0.00597716856
v -0.0109025577 0.0103106495 -0.00598538351
v -0.0107546715 0.0104585358 0.00599634457
v -0.0109733967 0.0187250897 -0.00244041872
v -0.0109733967 0.0187250897 0.00244041967
v -0.0109438709 0.0187546154 -0.0023443861
v -0.0108624653 0.018836021 -0.00205212069
v -0.0107919887 0.0189064976 -0.00175423098
v -0.0107511619 0.0189473196 -0.0015529151
v -0.0107709507 0.0189275309 0.00165382433
v -0.010837746 0.0188607403 0.00195340919
v -0.0109155373 0.0187829491 0.00224763918
v -0.0109438709 0.0187546154 0.00234438705
v -0.0106458286 0.000667876823 -0.0360151572
v -0.0107138637 0.000599846465 -0.0357578362
v -0.0107486156 0.000565099342 -0.0355678011
v -0.0107291702 0.000584539993 -0.0345176573
v -0.0106675247 0.000646180732 -0.0342571349
v -0.010583897 0.000729808433 -0.0340091784
v -0.0105702309 0.000743484122 -0.0339749999
v -0.0106458286 0.000667876823 0.0144848423
v -0.0107138637 0.000599846465 0.0147421627
v -0.0107486156 0.000565099342 0.0149321966
v -0.0107291702 0.000584539993 0.0159823446
v -0.0106675247 0.000646180732 0.0162428646
v -0.010583897 0.000729808433 0.0164908199
v -0.0105702309 0.000743484122 0.0165249996
v -0.0105561356 0.00075757466 -0.0362588359
v -0.0105113796 0.000802330596 -0.0338418157
v -0.0105561356 0.00075757466 0.0142411642
v -0.0105113796 0.000802330596 0.016658185
v -0.010606604 0.0106066032 -0.00600000095
v -0.0105325607 0.0106806465 -0.00599908543
v -0.0105325607 0.0106806465 0.00599908638
v -0.0107153419 0.0189831444 -0.00134970617
v -0.0106993107 0.0189991709 -0.0012474699
v -0.0106993107 0.0189991709 0.00124747086
v -0.0107326225 0.018965859 0.00145153093
v -0.0106710533 0.0190274283 -0.00104188871
v -0.0106478886 0.019050593 -0.000835039139
v -0.0106227497 0.0190757366 -0.000522934914
v -0.0106124119 0.0190860697 -0.000314015865
v -0.0106072525 0.0190912386 -0.000104715347
v -0.0106091885 0.0190892979 0.000209396362
v -0.0106169323 0.0190815493 0.000418539524
v -0.0106382278 0.0190602585 0.000731215954
v -0.0106588367 0.0190396496 0.000938606739
v -0.0106845478 0.0190139338 0.00114485312
v -0.01042882 0.000884890182 -0.0365159709
v -0.0104956535 0.000818056686 -0.0363905473
v -0.0104795269 0.000834183318 -0.0337774832
v -0.0103173927 0.000996322257 -0.0335090096
v -0.01042882 0.000884890182 0.0139840298
v -0.0104956535 0.000818056686 0.0141094522
v -0.0104795269 0.000834183318 0.0167225151
v -0.0103173927 0.000996322257 0.0169909887
v -0.0102569679 0.00105674229 -0.036772076
v -0.0102975849 0.0010161253 -0.0367185147
v -0.0102569679 0.00105674229 -0.033427924
v -0.0102569679 0.00105674229 0.0137279253
v -0.0102975849 0.0010161253 0.0137814837
v -0.0102569679 0.00105674229 0.0170720749
v -0.0104585365 0.010754666 -0.005996346
v -0.0103106502 0.0109025522 0.00598538446
v -0.0102361683 0.00107753716 -0.0367980964
v -0.0101049427 0.00120876752 -0.0332569082
v -0.0100820545 0.00123165093 -0.0332346655
v -0.0102361683 0.00107753716 0.0137019043
v -0.0101049427 0.00120876752 0.0172430925
v -0.0100820545 0.00123165093 0.0172653322
v -0.0100354866 0.00127822362 -0.0370081086
v -0.0100588993 0.00125480614 -0.0369870086
v -0.0100118069 0.00130189858 -0.0331713737
v -0.0100354866 0.00127822362 0.0134918909
v -0.0100588993 0.00125480614 0.013512991
v -0.0100118069 0.00130189858 0.0173286276
v -0.0102368359 0.0109763714 -0.00597716761
v -0.0102368359 0.0109763714 0.00597716856
v -0.0101631264 0.0110500761 -0.00596713018
v -0.0100161365 0.0111970612 0.00594160843
v -0.00998787917 0.00132582627 -0.0370485575
v -0.00981403388 0.00149967156 -0.0330288638
v -0.00998787917 0.00132582627 0.0134514408
v -0.00981403388 0.00149967156 0.0174711351
v -0.00978838004 0.0015253254 -0.0371861632
v -0.00978838004 0.0015253254 -0.0330138363
v -0.00976254501 0.00155116044 -0.0329994441
v -0.00978838004 0.0015253254 0.0133138351
v -0.00978838004 0.0015253254 0.017486165
v -0.00976254501 0.00155116044 0.017500556
v -0.00994290389 0.0112702986 -0.00592612934
v -0.00979706802 0.0114161345 0.00588976192
v -0.00965754546 0.00165615998 -0.0372516854
v -0.00973653831 0.0015771719 -0.0372143085
v -0.00957728423 0.00173642598 -0.0329168345
v -0.00965754546 0.00165615998 0.013248313
v -0.00973653831 0.0015771719 0.0132856922
v -0.00957728423 0.00173642598 0.0175831633
v -0.00955028571 0.0017634245 -0.0372923322
v -0.00952317275 0.00179053269 -0.0328991677
v -0.00955028571 0.0017634245 0.0132076674
v -0.00952317275 0.00179053269 0.0176008301
v -0.00972450294 0.0114886948 -0.00586888504
v -0.00972450294 0.0114886948 0.00586888599
v -0.00965221442 0.0115609881 -0.00584622097
v -0.00950852432 0.0117046782 0.00579555559
v -0.00925331153 -0.000768032449 -0.0359428645
v -0.00930752792 -0.000822248833 -0.035720184
v -0.00934499778 -0.000859713929 -0.0354907085
v -0.00936697997 -0.00088170089 -0.0352177562
v -0.00936697997 -0.00088170089 -0.0349822439
v -0.00934957542 -0.000864296334 -0.0347480227
v -0.00930752792 -0.000822248833 -0.0344798161
v -0.00925331153 -0.000768032449 0.0145571356
v -0.00930752792 -0.000822248833 0.0147798138
v -0.00934499778 -0.000859713929 0.0150092916
v -0.00936697997 -0.00088170089 0.0152822428
v -0.00936697997 -0.00088170089 0.0155177574
v -0.00934957542 -0.000864296334 0.0157519798
v -0.00930752792 -0.000822248833 0.0160201864
v -0.00949596442 0.00181774579 -0.0373086615
v -0.00933105506 0.00198265515 -0.032858562
v -0.00949596442 0.00181774579 0.0131913404
v -0.00933105506 0.00198265515 0.0176414375
v -0.0093033699 0.00201034032 -0.0373445196
v -0.00927565612 0.00203805409 -0.0328530837
v -0.0093033699 0.00201034032 0.0131554823
v -0.00927565612 0.00203805409 0.0176469164
v -0.0094371704 0.0117760321 -0.00576756907
v -0.00936616935 0.0118470284 -0.00573782873
v -0.00929554977 0.0119176479 0.00570633936
v -0.0094371704 0.0117760321 0.00576757002
v -0.0092426876 -0.000757408517 -0.0359791453
v -0.0092426876 -0.000757408517 -0.0342208548
v -0.0092426876 -0.000757408517 0.014520853
v -0.0092426876 -0.000757408517 0.0162791471
v -0.00901460685 -0.000529322999 -0.0365159709
v -0.00903188743 -0.000546608346 -0.0364852382
v -0.00915600814 -0.000670729058 -0.0362250001
v -0.00923161544 -0.000746336358 -0.0341848428
v -0.00915600814 -0.000670729058 -0.0339749999
v -0.00904879607 -0.000563512223 -0.033745916
v -0.00901460685 -0.000529322999 0.0139840298
v -0.00903188743 -0.000546608346 0.0140147619
v -0.00915600814 -0.000670729058 0.0142750006
v -0.00923161544 -0.000746336358 0.0163151579
v -0.00915600814 -0.000670729058 0.0165249996
v -0.00904879607 -0.000563512223 0.0167540817
v -0.00924791374 0.00206579648 -0.03734863
v -0.00919239082 0.0021213194 -0.0328499998
v -0.00924791374 0.00206579648 0.013151372
v -0.00919239082 0.0021213194 0.0176500015
v -0.00905372657 0.00225998364 -0.0373414381
v -0.00902608909 0.00228762589 -0.032862326
v -0.00905372657 0.00225998364 0.0131585627
v -0.00902608909 0.00228762589 0.0176376753
v -0.00922533073 0.0119878717 -0.00567311239
v -0.00922533073 0.0119878717 0.00567311096
v -0.0091555313 0.0120576712 -0.00563815546
v -0.00901727714 0.0121959206 0.00556310225
v -0.0089969448 -0.00051166095 -0.0365462722
v -0.0089969448 -0.00051166095 -0.0336537279
v -0.0089969448 -0.00051166095 0.0139537268
v -0.0089969448 -0.00051166095 0.0168462734
v -0.00875768699 -0.000272403138 -0.0368730242
v -0.00886323013 -0.000377946275 -0.036745546
v -0.00897891082 -0.000493626969 -0.0336238672
v -0.00888337173 -0.000398087876 -0.0334814854
v -0.00875768699 -0.000272403138 0.0136269741
v -0.00886323013 -0.000377946275 0.0137544565
v -0.00897891082 -0.000493626969 0.016876133
v -0.00888337173 -0.000398087876 0.0170185165
v -0.00899849929 0.00231521092 -0.0373332293
v -0.00883449592 0.00247921429 -0.0329076673
v -0.00899849929 0.00231521092 0.013166769
v -0.00883449592 0.00247921429 0.0175923328
v -0.0088074974 0.00250621758 -0.037283165
v -0.00875385322 0.00255985699 -0.0329371614
v -0.0088074974 0.00250621758 0.0132168369
v -0.00875385322 0.00255985699 0.0175628405
v -0.00894887008 0.0122643324 -0.00552303028
v -0.00888096847 0.0123322388 -0.00548127365
v -0.00881358184 0.0123996206 0.00543784666
v -0.00894887008 0.0122643324 0.00552302885
v -0.00873565711 -0.000250373261 -0.0368969299
v -0.00873565711 -0.000250373261 -0.0333030702
v -0.00873565711 -0.000250373261 0.0136030703
v -0.00873565711 -0.000250373261 0.0171969299
v -0.00850047149 -1.51876381e-05 -0.0371047647
v -0.00864468612 -0.000159407037 -0.0369870086
v -0.0087133316 -0.000228052514 -0.0332797117
v -0.00866784133 -0.000182562249 -0.0332346655
v -0.00850047149 -1.51876381e-05 0.013395236
v -0.00864468612 -0.000159407037 0.013512991
v -0.0087133316 -0.000228052514 0.0172202902
v -0.00866784133 -0.000182562249 0.0172653322
v -0.00872722663 0.00258647881 -0.0372516854
v -0.0087007431 0.00261296235 -0.0372398777
v -0.00857073821 0.002742972 -0.0330288638
v -0.00862222709 0.00269147835 -0.0329994441
v -0.00872722663 0.00258647881 0.013248313
v -0.0087007431 0.00261296235 0.0132601242
v -0.00857073821 0.002742972 0.0174711351
v -0.00862222709 0.00269147835 0.017500556
v -0.00854527511 0.0027684351 -0.0371554775
v -0.00852000274 0.0027937027 -0.0330608077
v -0.00854527511 0.0027684351 0.0133445244
v -0.00852000274 0.0027937027 0.0174391918
v -0.00874674835 0.0124664541 -0.00539276314
v -0.00874674835 0.0124664541 0.00539276409
v -0.00868048705 0.0125327202 -0.00534604025
v -0.00854972877 0.0126634737 -0.00524771881
v -0.00854972877 0.0126634737 0.00524771738
v -0.00861479797 0.0125983997 0.00529768515
v -0.00826981582 0.000215463264 -0.0372398777
v -0.00847561874 9.66034622e-06 -0.0330777134
v -0.00834833183 0.000136947257 -0.0329994441
v -0.00826981582 0.000215463264 0.0132601242
v -0.00847561874 9.66034622e-06 0.0174222879
v -0.00834833183 0.000136947257 0.017500556
v -0.00849494018 0.00281876527 -0.0371222861
v -0.0083258728 0.00298783742 -0.0369870086
v -0.0083258728 0.00298783742 -0.0332129915
v -0.00849494018 0.00281876527 0.0133777122
v -0.0083258728 0.00298783742 0.013512991
v -0.0083258728 0.00298783742 0.0172870092
v -0.00830271758 0.00301099263 -0.0369653345
v -0.00825722732 0.00305648289 -0.0332797117
v -0.00830271758 0.00301099263 -0.0332346655
v -0.00830271758 0.00301099263 0.0135346632
v -0.00825722732 0.00305648289 0.0172202902
v -0.00830271758 0.00301099263 0.0172653322
v -0.00848527946 0.012727923 -0.00519615126
v -0.00848527946 0.012727923 0.00519615221
v -0.00842147865 0.0127917238 -0.00514300299
v -0.00829588928 0.0129173084 0.00503202248
v -0.00824333228 0.000241946799 -0.0372516854
v -0.00824333228 0.000241946799 -0.0329483141
v -0.00824333228 0.000241946799 0.013248313
v -0.00824333228 0.000241946799 0.0175516872
v -0.00802705802 0.000458221061 -0.037322299
v -0.00821671523 0.000268568618 -0.0329371614
v -0.00802705802 0.000458221061 0.0131777029
v -0.00821671523 0.000268568618 0.0175628405
v -0.0082349018 0.00307880364 -0.0368969299
v -0.00810733833 0.00320637189 -0.036745546
v -0.00806738891 0.0032463213 -0.0335090096
v -0.00808719672 0.00322651349 -0.0334814854
v -0.0082349018 0.00307880364 0.0136030703
v -0.00810733833 0.00320637189 0.0137544565
v -0.00806738891 0.0032463213 0.0169909887
v -0.00808719672 0.00322651349 0.0170185165
v -0.00804792442 0.00326578103 -0.0366629816
v -0.00801005401 0.0033036562 -0.0335944558
v -0.00804792442 0.00326578103 0.0138370209
v -0.00801005401 0.0033036562 0.0169055443
v -0.0082341484 0.0129790541 -0.00497422647
v -0.0082341484 0.0129790541 0.00497422504
v -0.00817312278 0.0130400797 -0.0049149127
v -0.00805331268 0.013159885 0.00479181337
v -0.00799960174 0.000485682113 -0.0373281033
v -0.00799960174 0.000485682113 -0.0328718967
v -0.00799960174 0.000485682113 0.013171895
v -0.00799960174 0.000485682113 0.0176281052
v -0.00775040664 0.000734872443 -0.0373496575
v -0.00777817764 0.000707106216 -0.0328499998
v -0.00775040664 0.000734872443 0.013150342
v -0.00777817764 0.000707106216 0.0176500015
v -0.00799164809 0.00332205735 -0.0365761329
v -0.00793867149 0.00337503873 -0.0364852382
v -0.00781455077 0.00349915944 -0.0362250001
v -0.00781455077 0.00349915944 -0.0339749999
v -0.00792176284 0.0033919426 -0.033745916
v -0.00799164809 0.00332205735 0.0139238672
v -0.00793867149 0.00337503873 0.0140147619
v -0.00781455077 0.00349915944 0.0142750006
v -0.00781455077 0.00349915944 0.0165249996
v -0.00792176284 0.0033919426 0.0167540817
v -0.00780087508 0.00351283036 -0.0361908216
v -0.00775046386 0.00356324635 -0.0341491086
v -0.00780087508 0.00351283036 0.0143091803
v -0.00775046386 0.00356324635 0.0163508921
v -0.00799457588 0.0132186314 -0.00472806406
v -0.00799457588 0.0132186314 0.00472806501
v -0.00793662109 0.0132765814 -0.00466287565
v -0.00776772537 0.0134454819 -0.00445886803
v -0.00776772537 0.0134454819 0.00445886898
v -0.00782318153 0.0133900257 0.00452825832
v -0.00750189819 0.000983380897 -0.0373158176
v -0.00772264518 0.000762633903 -0.0328513707
v -0.00750189819 0.000983380897 0.0131841831
v -0.00772264518 0.000762633903 0.0176486282
v -0.00773894347 0.00357476197 -0.0360151572
v -0.00772787132 0.00358583413 -0.0359791453
v -0.007663031 0.00365067921 -0.035720184
v -0.00762557067 0.00368813954 -0.0354907085
v -0.00760357894 0.00371013127 -0.0352177562
v -0.00760357894 0.00371013127 -0.0349822439
v -0.0076209835 0.00369272195 -0.0347480227
v -0.007663031 0.00365067921 -0.0344798161
v -0.00772787132 0.00358583413 -0.0342208548
v -0.00773894347 0.00357476197 0.0144848423
v -0.00772787132 0.00358583413 0.014520853
v -0.007663031 0.00365067921 0.0147798138
v -0.00762557067 0.00368813954 0.0150092916
v -0.00760357894 0.00371013127 0.0152822428
v -0.00760357894 0.00371013127 0.0155177574
v -0.0076209835 0.00369272195 0.0157519798
v -0.007663031 0.00365067921 0.0160201864
v -0.00772787132 0.00358583413 0.0162791471
v -0.00771312751 0.013500075 -0.00438812208
v -0.00760660209 0.0136066004 -0.00424264145
v -0.00750372924 0.0137094732 0.00409199047
v -0.00765941657 0.0135537859 0.00431603956
v -0.00731301345 0.00117226563 -0.0372516854
v -0.00726019897 0.00122508488 -0.0372274168
v -0.00747460403 0.00101067982 -0.0328913386
v -0.00731301345 0.00117226563 0.013248313
v -0.00726019897 0.00122508488 0.013272584
v -0.00747460403 0.00101067982 0.0176086597
v -0.00745370902 0.0137594982 -0.00401478481
v -0.00740464248 0.0138085648 -0.00393635464
v -0.00726335563 0.0139498468 -0.00369396877
v -0.00726335563 0.0139498468 0.00369396973
v -0.00730944671 0.013903751 0.00377592134
v -0.00745370902 0.0137594982 0.00401478338
v -0.00700684585 0.00147843323 -0.0370678945
v -0.00718217887 0.00130310021 -0.0330138363
v -0.00723402061 0.00125125848 -0.0329856915
v -0.00700684585 0.00147843323 0.0134321051
v -0.00718217887 0.00130310021 0.017486165
v -0.00723402061 0.00125125848 0.017514308
v -0.00721827544 0.013994927 -0.00361088943
v -0.00721827544 0.013994927 0.00361089039
v -0.00717423476 0.0140389725 -0.00352671099
v -0.00713123359 0.0140819689 -0.00344145966
v -0.00700863876 0.0142045637 -0.00317951632
v -0.00700863876 0.0142045637 0.00317951488
v -0.00704842605 0.0141647812 0.00326783466
v -0.00717423476 0.0140389725 0.00352671194
v -0.00693508186 0.001550202 -0.0370081086
v -0.00675550498 0.0017297741 -0.0368236001
v -0.00686561622 0.00161966286 -0.0332569082
v -0.00698267974 0.00150260411 -0.0331514431
v -0.00693508186 0.001550202 0.0134918909
v -0.00675550498 0.0017297741 0.0136763983
v -0.00686561622 0.00161966286 0.0172430925
v -0.00698267974 0.00150260411 0.0173485594
v -0.00696994819 0.0142432543 -0.00309022856
v -0.00696994819 0.0142432543 0.00309022951
v -0.00693236388 0.0142808386 -0.00299999905
v -0.00682638206 0.0143868204 -0.00272394371
v -0.00676146545 0.0144517418 0.00253570843
v -0.00686057128 0.0143526312 0.00281683016
v -0.006713591 0.00177168809 -0.036772076
v -0.00654173888 0.0019435402 -0.0365159709
v -0.00650754966 0.00197772942 -0.036454084
v -0.00665317573 0.00183210812 -0.0335090096
v -0.00673439063 0.00175088845 -0.0334019036
v -0.006713591 0.00177168809 0.0137279253
v -0.00654173888 0.0019435402 0.0139840298
v -0.00650754966 0.00197772942 0.0140459185
v -0.00665317573 0.00183210812 0.0169909887
v -0.00673439063 0.00175088845 0.0170980959
v -0.00673075713 0.0144824453 -0.00244041872
v -0.00673075713 0.0144824453 0.00244041967
v -0.00670123138 0.0145119711 -0.0023443861
v -0.00667289771 0.0145403095 -0.00224764061
v -0.0065951065 0.014618096 -0.00195340824
v -0.00652831115 0.0146848913 -0.00165382338
v -0.00650852241 0.0147046801 0.00155291367
v -0.00654933967 0.014663858 0.00175422955
v -0.00661982574 0.0145933815 0.00205212164
v -0.00670123138 0.0145119711 0.00234438705
v -0.00649103202 0.00199424706 -0.0364225168
v -0.00649103202 0.00199424706 -0.0337774832
v -0.00649103202 0.00199424706 0.0140774851
v -0.00649103202 0.00199424706 0.0167225151
v -0.0064144329 0.00207085095 -0.0362588359
v -0.00632473029 0.00216054879 -0.0360151572
v -0.00625670471 0.00222857915 -0.0357578362
v -0.0063030342 0.00218224488 -0.0342571349
v -0.0063866619 0.00209861718 -0.0340091784
v -0.00647491493 0.00201036893 -0.0338094528
v -0.0064144329 0.00207085095 0.0142411642
v -0.00632473029 0.00216054879 0.0144848423
v -0.00625670471 0.00222857915 0.0147421627
v -0.0063030342 0.00218224488 0.0162428646
v -0.0063866619 0.00209861718 0.0164908199
v -0.00647491493 0.00201036893 0.0166905479
v -0.00648998298 0.0147232195 -0.00145153236
v -0.0064727024 0.0147405048 0.00134970713
v -0.00645667114 0.0147565313 -0.0012474699
v -0.0064161972 0.01479701 -0.000938605785
v -0.0063955883 0.0148176189 -0.000731215
v -0.00637429275 0.0148389097 -0.00041853857
v -0.00636654891 0.0148466583 -0.000209397793
v -0.00636396446 0.0148492428 4.7683716e-10
v -0.00636977233 0.0148434301 0.000314016819
v -0.00638011016 0.0148330971 0.000522933483
v -0.00640524902 0.0148079535 0.000835037708
v -0.00642841377 0.0147847887 0.00104188967
v -0.00624139823 0.00224388562 -0.0356823428
v -0.00624139823 0.00224388562 -0.0345176573
v -0.00624881782 0.00223646603 -0.0344798161
v -0.00624139823 0.00224388562 0.0148176556
v -0.00624139823 0.00224388562 0.0159823446
v -0.00624881782 0.00223646603 0.0160201864
v -0.00621641197 0.00226886712 -0.0355293204
v -0.0061910633 0.00229422055 -0.0352569522
v -0.0061881546 0.00229712926 -0.0350214763
v -0.00620266952 0.00228261433 -0.0347868605
v -0.00623444595 0.00225083791 -0.0345556755
v -0.00621641197 0.00226886712 0.0149706821
v -0.0061910633 0.00229422055 0.0152430468
v -0.0061881546 0.00229712926 0.0154785233
v -0.00620266952 0.00228261433 0.0157131414
v -0.00623444595 0.00225083791 0.0159443264
v -0.00357476272 0.00773894749 -0.0360151572
v -0.00364278831 0.00767091714 -0.0357578362
v -0.00368308105 0.00763062916 -0.0355293204
v -0.00370843925 0.00760527573 -0.0352569522
v -0.00371133842 0.00760236703 -0.0350214763
v -0.00369682349 0.00761688195 -0.0347868605
v -0.00365809478 0.00765561066 -0.0345176573
v -0.00359645881 0.00771724663 -0.0342571349
v -0.00357476272 0.00773894749 -0.0341848428
v -0.00357476272 0.00773894749 0.0144848423
v -0.00364278831 0.00767091714 0.0147421627
v -0.00368308105 0.00763062916 0.0149706821
v -0.00370843925 0.00760527573 0.0152430468
v -0.00371133842 0.00760236703 0.0154785233
v -0.00369682349 0.00761688195 0.0157131414
v -0.00365809478 0.00765561066 0.0159823446
v -0.00359645881 0.00771724663 0.0162428646
v -0.00357476272 0.00773894749 0.0163151579
v -0.00356325187 0.00775046311 -0.0360508908
v -0.00351283111 0.0078008791 -0.0340091784
v -0.00356325187 0.00775046311 0.0144491081
v -0.00351283111 0.0078008791 0.0164908199
v -0.00353553809 0.0176776692 -0.0301
v -0.00353553809 0.0176776692 0.0104000001
v -0.00335775413 0.00795595608 -0.0365159709
v -0.00348506965 0.00782864533 -0.0362588359
v -0.00349915542 0.00781455003 -0.0362250001
v -0.00340846099 0.00790524922 -0.0337774832
v -0.0033220581 0.00799165211 -0.0336238672
v -0.00335775413 0.00795595608 0.0139840298
v -0.00348506965 0.00782864533 0.0142411642
v -0.00349915542 0.00781455003 0.0142750006
v -0.00340846099 0.00790524922 0.0167225151
v -0.0033220581 0.00799165211 0.016876133
v -0.00330365218 0.00801005326 -0.0366055436
v -0.00326578178 0.00804792367 -0.0335370184
v -0.00330365218 0.00801005326 0.0138944559
v -0.00326578178 0.00804792367 0.0169629793
v -0.00318590202 0.0081278082 -0.036772076
v -0.00324631728 0.00806738816 -0.0366909904
v -0.00324631728 0.00806738816 -0.0335090096
v -0.00307880439 0.00823490582 -0.0333030702
v -0.00318590202 0.0081278082 0.0137279253
v -0.00324631728 0.00806738816 0.0138090115
v -0.00324631728 0.00806738816 0.0169909887
v -0.00307880439 0.00823490582 0.0171969299
v -0.00305647887 0.00825722657 -0.0369202883
v -0.00303387679 0.00827983342 -0.0332569082
v -0.00301098861 0.00830271683 -0.0332346655
v -0.00305647887 0.00825722657 0.01357971
v -0.00303387679 0.00827983342 0.0172430925
v -0.00301098861 0.00830271683 0.0172653322
v -0.00296442069 0.00834928952 -0.0370081086
v -0.0029878334 0.00832587205 -0.0369870086
v -0.00281876601 0.0084949442 -0.0330777134
v -0.00296442069 0.00834928952 0.0134918909
v -0.0029878334 0.00832587205 0.013512991
v -0.00281876601 0.0084949442 0.0174222879
v -0.00279370345 0.00852000676 -0.0371391923
v -0.00276843108 0.00854527436 -0.0330445225
v -0.00279370345 0.00852000676 0.0133608084
v -0.00276843108 0.00854527436 0.0174554758
v -0.00258647956 0.00872722588 -0.0372516854
v -0.00274296798 0.00857073746 -0.0371711357
v -0.00271731414 0.0085963913 -0.0330138363
v -0.00258647956 0.00872722588 -0.0329483141
v -0.00258647956 0.00872722588 0.013248313
v -0.00274296798 0.00857073746 0.0133288651
v -0.00271731414 0.0085963913 0.017486165
v -0.00258647956 0.00872722588 0.0175516872
v -0.00255985297 0.00875385247 -0.0372628386
v -0.00250621833 0.00880749188 -0.0329168345
v -0.00255985297 0.00875385247 0.0132371597
v -0.00250621833 0.00880749188 0.0175831633
v -0.00225083389 0.0062344452 -0.0356443245
v -0.00227392234 0.00621135674 -0.0354907085
v -0.00229591407 0.00618936501 -0.0352177562
v -0.00229591407 0.00618936501 -0.0349822439
v -0.00227850951 0.00620677434 -0.0347480227
v -0.00225083389 0.0062344452 0.0148556738
v -0.00227392234 0.00621135674 0.0150092916
v -0.00229591407 0.00618936501 0.0152822428
v -0.00229591407 0.00618936501 0.0155177574
v -0.00227850951 0.00620677434 0.0157519798
v -0.00247921981 0.00883449517 -0.0372923322
v -0.00231521644 0.00899849377 -0.0328667713
v -0.00247921981 0.00883449517 0.0132076674
v -0.00231521644 0.00899849377 0.0176332312
v -0.00228762664 0.00902608357 -0.0373376746
v -0.00225997962 0.00905372582 -0.032858562
v -0.00228762664 0.00902608357 0.0131623249
v -0.00225997962 0.00905372582 0.0176414375
v -0.00223646201 0.00624881707 -0.035720184
v -0.0022438816 0.00624139748 -0.0345176573
v -0.00223646201 0.00624881707 -0.0344798161
v -0.00223646201 0.00624881707 0.0147798138
v -0.0022438816 0.00624139748 0.0159823446
v -0.00223646201 0.00624881707 0.0160201864
v -0.00201037444 0.00647490941 -0.0363905473
v -0.00208494224 0.00640033684 -0.0362250001
v -0.0021716217 0.00631366215 -0.0359791453
v -0.00222857513 0.00625670396 -0.0344421638
v -0.0021716217 0.00631366215 -0.0342208548
v -0.00208494224 0.00640033684 -0.0339749999
v -0.00201037444 0.00647490941 0.0141094522
v -0.00208494224 0.00640033684 0.0142750006
v -0.0021716217 0.00631366215 0.014520853
v -0.00222857513 0.00625670396 0.0160578375
v -0.0021716217 0.00631366215 0.0162791471
v -0.00208494224 0.00640033684 0.0165249996
v -0.00223230399 0.00908140622 -0.0373445196
v -0.00212132491 0.00919239007 -0.0328499998
v -0.00223230399 0.00908140622 0.0131554823
v -0.00212132491 0.00919239007 0.0176500015
v -0.00203805007 0.00927565537 -0.0373469169
v -0.0020103363 0.00930336915 -0.032855481
v -0.00203805007 0.00927565537 0.0131530838
v -0.0020103363 0.00930336915 0.0176445179
v -0.00199424781 0.00649103604 -0.0364225168
v -0.00199424781 0.00649103604 -0.0337774832
v -0.00199424781 0.00649103604 0.0140774851
v -0.00199424781 0.00649103604 0.0167225151
v -0.0017508892 0.00673438988 -0.0367980964
v -0.00179216422 0.00669311963 -0.036745546
v -0.00196082153 0.00652445756 -0.0364852382
v -0.00197773017 0.00650755368 -0.033745916
v -0.00181230583 0.00667297803 -0.0334814854
v -0.0017508892 0.00673438988 0.0137019043
v -0.00179216422 0.00669311963 0.0137544565
v -0.00196082153 0.00652445756 0.0140147619
v -0.00197773017 0.00650755368 0.0167540817
v -0.00181230583 0.00667297803 0.0170185165
v -0.00198266067 0.00933105431 -0.0373414381
v -0.00181774177 0.00949596368 -0.0328913386
v -0.00198266067 0.00933105431 0.0131585627
v -0.00181774177 0.00949596368 0.0176086597
v -0.00179053344 0.009523172 -0.0373008318
v -0.00176343002 0.00955028496 -0.0329076673
v -0.00179053344 0.009523172 0.0131991701
v -0.00176343002 0.00955028496 0.0175923328
v -0.00150260009 0.00698267899 -0.0370485575
v -0.00157362022 0.00691165887 -0.0369870086
v -0.00172977485 0.00675550423 -0.0333764
v -0.00159677543 0.00688850365 -0.0332346655
v -0.00150260009 0.00698267899 0.0134514408
v -0.00157362022 0.00691165887 0.013512991
v -0.00172977485 0.00675550423 0.0171236019
v -0.00159677543 0.00688850365 0.0172653322
v -0.00173642196 0.00957728348 -0.037283165
v -0.00162967719 0.00968403302 -0.0372398777
v -0.00157716789 0.00973653756 -0.0329856915
v -0.00173642196 0.00957728348 0.0132168369
v -0.00162967719 0.00968403302 0.0132601242
v -0.00157716789 0.00973653756 0.017514308
v -0.00155116119 0.00976254903 -0.0372005565
v -0.00152532615 0.00978838406 -0.0330138363
v -0.00155116119 0.00976254903 -0.0329994441
v -0.00155116119 0.00976254903 0.0132994442
v -0.00152532615 0.00978838406 0.017486165
v -0.00155116119 0.00976254903 0.017500556
v -0.00125125922 0.00723402463 -0.0372143085
v -0.00147843398 0.0070068451 -0.0331321056
v -0.00127726592 0.00720801316 -0.0329994441
v -0.00125125922 0.00723402463 0.0132856922
v -0.00147843398 0.0070068451 0.0173678951
v -0.00127726592 0.00720801316 0.017500556
v -0.00149967231 0.0098140379 -0.0371711357
v -0.00132582702 0.00998788319 -0.0331514431
v -0.00149967231 0.0098140379 0.0133288651
v -0.00132582702 0.00998788319 0.0173485594
v -0.00130189933 0.0100118109 -0.0370286269
v -0.00125480689 0.0100589033 -0.0369870086
v -0.00125480689 0.0100589033 -0.0332129915
v -0.00130189933 0.0100118109 0.0134713726
v -0.00125480689 0.0100589033 0.013512991
v -0.00125480689 0.0100589033 0.0172870092
v -0.00101068057 0.00747459851 -0.0373086615
v -0.00119874992 0.00728653393 -0.0372398777
v -0.00122508086 0.00726019822 -0.0329725833
v -0.00101068057 0.00747459851 0.0131913404
v -0.00119874992 0.00728653393 0.0132601242
v -0.00122508086 0.00726019822 0.0175274162
v -0.00123165168 0.0100820585 -0.0369653345
v -0.00107753791 0.0102361723 -0.0334019036
v -0.00123165168 0.0100820585 -0.0332346655
v -0.00123165168 0.0100820585 0.0135346632
v -0.00107753791 0.0102361723 0.0170980959
v -0.00123165168 0.0100820585 0.0172653322
v -0.00105673827 0.0102569672 -0.036772076
v -0.00103626766 0.0102774426 -0.036745546
v -0.00101612605 0.0102975842 -0.0334814854
v -0.00105673827 0.0102569672 0.0137279253
v -0.00103626766 0.0102774426 0.0137544565
v -0.00101612605 0.0102975842 0.0170185165
v -0.000762629884 0.0077226492 -0.03734863
v -0.000983381646 0.00750190221 -0.0328841825
v -0.000762629884 0.0077226492 0.013151372
v -0.000983381646 0.00750190221 0.0176158171
v -0.000996318238 0.0103173872 -0.0366909904
v -0.000867600816 0.0104461046 -0.0364852382
v -0.000818057435 0.0104956528 -0.0338094528
v -0.000850696938 0.0104630085 -0.033745916
v -0.000996318238 0.0103173872 0.0138090115
v -0.000867600816 0.0104461046 0.0140147619
v -0.000818057435 0.0104956528 0.0166905479
v -0.000850696938 0.0104630085 0.0167540817
v -0.000802331345 0.0105113789 -0.0363581837
v -0.00075757541 0.0105561348 -0.0339411641
v -0.000802331345 0.0105113789 0.0141418152
v -0.00075757541 0.0105561348 0.016558836
v -0.00051321544 0.00797206841 -0.0373332293
v -0.000707106965 0.00777817689 -0.0328499998
v -0.00051321544 0.00797206841 0.013166769
v -0.000707106965 0.00777817689 0.0176500015
v -0.000743480103 0.0105702253 -0.0362250001
v -0.000656805413 0.0106569 -0.0359791453
v -0.000591960328 0.0107217451 -0.035720184
v -0.000565095322 0.0107486101 -0.0346321989
v -0.000591960328 0.0107217451 -0.0344798161
v -0.000656805413 0.0106569 -0.0342208548
v -0.000743480103 0.0105702253 -0.0339749999
v -0.000743480103 0.0105702253 0.0142750006
v -0.000656805413 0.0106569 0.014520853
v -0.000591960328 0.0107217451 0.0147798138
v -0.000565095322 0.0107486101 0.0158678036
v -0.000591960328 0.0107217451 0.0160201864
v -0.000656805413 0.0106569 0.0162791471
v -0.000743480103 0.0105702253 0.0165249996
v -0.000559559243 0.0107541462 -0.0355293204
v -0.000554500001 0.0107592054 -0.0354907085
v -0.000532508271 0.0107811972 -0.0352177562
v -0.000532508271 0.0107811972 -0.0349822439
v -0.000549917596 0.0107637926 -0.0347480227
v -0.000559559243 0.0107541462 0.0149706821
v -0.000554500001 0.0107592054 0.0150092916
v -0.000532508271 0.0107811972 0.0152822428
v -0.000532508271 0.0107811972 0.0155177574
v -0.000549917596 0.0107637926 0.0157519798
v -0.000485682862 0.00799959622 -0.0373281033
v -0.000485682862 0.00799959622 -0.0328718967
v -0.000485682862 0.00799959622 0.013171895
v -0.000485682862 0.00799959622 0.0176281052
v -0.000268569367 0.00821670972 -0.0372628386
v -0.00045822181 0.00802706204 -0.032877701
v -0.000268569367 0.00821670972 0.0132371597
v -0.00045822181 0.00802706204 0.0176222973
v -0.000241947549 0.0082433363 -0.0372516854
v -0.000241947549 0.0082433363 -0.0329483141
v -0.000241947549 0.0082433363 0.013248313
v -0.000241947549 0.0082433363 0.0175516872
v -9.66109543e-06 0.00847561799 -0.0371222861
v -0.000111112969 0.00837417088 -0.0330138363
v -0.000215464013 0.00826981984 -0.0329601229
v -9.66109543e-06 0.00847561799 0.0133777122
v -0.000111112969 0.00837417088 0.017486165
v -0.000215464013 0.00826981984 0.017539876
v 0.000135988815 0.00862127267 -0.0370081086
v 0.000228051765 0.00871333562 -0.0369202883
v 0.000205449683 0.00869072877 -0.0332569082
v 1.51868889e-05 0.00850047074 -0.0330952353
v 0.000135988815 0.00862127267 0.0134918909
v 0.000228051765 0.00871333562 0.01357971
v 0.000205449683 0.00869072877 0.0172430925
v 1.51868889e-05 0.00850047074 0.0174047642
v 0.00025037728 0.00873565636 -0.0368969299
v 0.00025037728 0.00873565636 -0.0333030702
v 0.00025037728 0.00873565636 0.0136030703
v 0.00025037728 0.00873565636 0.0171969299
v 0.000357474906 0.00884275399 -0.036772076
v 0.000493630988 0.00897891007 -0.0365761329
v 0.000417894942 0.00890317403 -0.0335090096
v 0.000272402389 0.00875768624 -0.0333269758
v 0.000357474906 0.00884275399 0.0137279253
v 0.000493630988 0.00897891007 0.0139238672
v 0.000417894942 0.00890317403 0.0169909887
v 0.000272402389 0.00875768624 0.0171730261
v 0.000511660201 0.00899694405 -0.0365462722
v 0.000511660201 0.00899694405 -0.0336537279
v 0.000511660201 0.00899694405 0.0139537268
v 0.000511660201 0.00899694405 0.0168462734
v 0.000529327018 0.0090146061 -0.0365159709
v 0.000656637771 0.00914192162 -0.0362588359
v 0.000746335609 0.00923161469 -0.0360151572
v 0.000684403999 0.00916968785 -0.0340091784
v 0.000580029113 0.00906531296 -0.0337774832
v 0.000529327018 0.0090146061 -0.0336840291
v 0.000529327018 0.0090146061 0.0139840298
v 0.000656637771 0.00914192162 0.0142411642
v 0.000746335609 0.00923161469 0.0144848423
v 0.000684403999 0.00916968785 0.0164908199
v 0.000580029113 0.00906531296 0.0167225151
v 0.000529327018 0.0090146061 0.0168159704
v 0.000757407767 0.00924268685 -0.0359791453
v 0.000757407767 0.00924268685 -0.0342208548
v 0.000757407767 0.00924268685 0.014520853
v 0.000757407767 0.00924268685 0.0162791471
v 0.000814365966 0.00929964505 -0.0357578362
v 0.000854653938 0.00933993302 -0.0355293204
v 0.000880007369 0.00936529122 -0.0352569522
v 0.000882916076 0.00936819516 -0.0350214763
v 0.000868401153 0.00935368024 -0.0347868605
v 0.000829672439 0.00931495152 -0.0345176573
v 0.000768031699 0.00925331555 -0.0342571349
v 0.000814365966 0.00929964505 0.0147421627
v 0.000854653938 0.00933993302 0.0149706821
v 0.000880007369 0.00936529122 0.0152430468
v 0.000882916076 0.00936819516 0.0154785233
v 0.000868401153 0.00935368024 0.0157131414
v 0.000829672439 0.00931495152 0.0159823446
v 0.000768031699 0.00925331555 0.0162428646
v 0.00141421281 0.012727923 -0.0375999994
v 0.00141421281 0.012727923 -0.0301
v 0.00141421281 0.012727923 0.0104000001
v 0.00141421281 0.012727923 0.0178999977
v 0.00282842599 0.0113137098 -0.0375999994
v 0.00282842599 0.0113137098 -0.0301
v 0.00282842599 0.0113137098 0.0104000001
v 0.00282842599 0.0113137098 0.0178999977
v 0.00784888707 -0.0219910244 -0.0301
v 0.00784888707 -0.0219910244 0.0104000001
v 0.0219910189 -0.00784888305 -0.0301
v 0.0219910189 -0.00784888305 0.0104000001
f 9 1 2
f 99 2 1
f 10 1 9
f 10 12 1
f 99 1 12
f 8 2 3
f 100 3 2
f 9 2 8
f 100 2 99
f 7 3 4
f 101 4 3
f 8 3 7
f 101 3 100
f 6 4 5
f 102 5 4
f 7 4 6
f 102 4 101
f 103 6 5
f 103 5 102
f 104 7 6
f 104 6 103
f 105 8 7
f 105 7 104
f 106 9 8
f 106 8 105
f 107 10 9
f 107 9 106
f 13 12 10
f 108 13 10
f 108 10 107
f 13 11 12
f 114 12 11
f 14 11 13
f 14 18 11
f 119 11 18
f 114 11 119
f 99 12 114
f 108 14 13
f 19 18 14
f 115 19 14
f 115 14 108
f 21 15 16
f 116 16 15
f 22 15 21
f 22 23 15
f 128 15 23
f 116 15 128
f 20 16 17
f 117 17 16
f 21 16 20
f 117 16 116
f 19 17 18
f 118 18 17
f 20 17 19
f 118 17 117
f 119 18 118
f 120 20 19
f 120 19 115
f 121 21 20
f 121 20 120
f 122 22 21
f 122 21 121
f 24 23 22
f 123 24 22
f 123 22 122
f 24 26 23
f 131 23 26
f 128 23 131
f 27 26 24
f 129 27 24
f 129 24 123
f 27 25 26
f 130 26 25
f 28 25 27
f 28 29 25
f 138 25 29
f 130 25 138
f 131 26 130
f 132 28 27
f 132 27 129
f 30 29 28
f 133 30 28
f 133 28 132
f 30 33 29
f 142 29 33
f 138 29 142
f 34 33 30
f 139 34 30
f 139 30 133
f 35 31 32
f 140 32 31
f 36 31 35
f 36 37 31
f 148 31 37
f 140 31 148
f 34 32 33
f 141 33 32
f 35 32 34
f 141 32 140
f 142 33 141
f 143 35 34
f 143 34 139
f 144 36 35
f 144 35 143
f 38 37 36
f 145 38 36
f 145 36 144
f 38 41 37
f 152 37 41
f 148 37 152
f 42 41 38
f 149 42 38
f 149 38 145
f 43 39 40
f 150 40 39
f 44 39 43
f 44 45 39
f 161 39 45
f 150 39 161
f 42 40 41
f 151 41 40
f 43 40 42
f 151 40 150
f 152 41 151
f 153 43 42
f 153 42 149
f 154 44 43
f 154 43 153
f 46 45 44
f 155 46 44
f 155 44 154
f 46 48 45
f 161 45 48
f 49 48 46
f 162 49 46
f 162 46 155
f 49 47 48
f 160 48 47
f 50 47 49
f 50 53 47
f 160 47 53
f 161 48 160
f 162 50 49
f 54 53 50
f 163 54 50
f 163 50 162
f 99 51 52
f 52 51 195
f 114 51 99
f 119 51 114
f 116 51 117
f 128 51 116
f 117 51 118
f 118 51 119
f 131 51 128
f 130 51 131
f 138 51 130
f 142 51 138
f 140 51 141
f 148 51 140
f 141 51 142
f 152 51 148
f 150 51 151
f 161 51 150
f 151 51 152
f 160 51 161
f 169 51 160
f 168 51 169
f 176 51 168
f 178 51 176
f 184 51 178
f 186 51 184
f 198 51 186
f 195 51 1012
f 201 51 198
f 200 51 201
f 208 51 200
f 211 51 208
f 210 51 211
f 218 51 210
f 226 51 218
f 229 51 226
f 228 51 229
f 238 51 228
f 252 51 238
f 254 51 252
f 264 51 254
f 282 51 264
f 284 51 282
f 315 51 284
f 314 51 315
f 314 723 51
f 1012 51 723
f 99 52 100
f 100 52 101
f 101 52 102
f 102 52 103
f 103 52 104
f 104 52 105
f 105 52 106
f 106 52 107
f 107 52 108
f 108 52 115
f 115 52 120
f 120 52 121
f 121 52 122
f 122 52 123
f 123 52 129
f 129 52 132
f 132 52 133
f 133 52 139
f 139 52 143
f 143 52 144
f 144 52 145
f 145 52 149
f 149 52 153
f 153 52 154
f 154 52 155
f 155 52 162
f 162 52 163
f 163 52 170
f 170 52 171
f 171 52 177
f 177 52 179
f 179 52 185
f 185 52 187
f 187 52 199
f 52 195 196
f 196 724 52
f 199 52 202
f 202 52 203
f 203 52 209
f 209 52 212
f 212 52 213
f 213 52 219
f 219 52 227
f 227 52 230
f 230 52 231
f 231 52 239
f 239 52 253
f 253 52 255
f 255 52 265
f 265 52 283
f 283 52 285
f 285 52 316
f 316 52 724
f 54 56 53
f 169 53 56
f 160 53 169
f 57 56 54
f 163 57 54
f 57 55 56
f 168 56 55
f 58 55 57
f 58 59 55
f 176 55 59
f 168 55 176
f 169 56 168
f 170 58 57
f 170 57 163
f 60 59 58
f 171 60 58
f 171 58 170
f 60 61 59
f 178 59 61
f 176 59 178
f 62 61 60
f 177 62 60
f 177 60 171
f 62 63 61
f 184 61 63
f 178 61 184
f 64 63 62
f 179 64 62
f 179 62 177
f 64 65 63
f 186 63 65
f 184 63 186
f 66 65 64
f 185 66 64
f 185 64 179
f 66 67 65
f 198 65 67
f 186 65 198
f 68 67 66
f 187 68 66
f 187 66 185
f 68 70 67
f 201 67 70
f 198 67 201
f 71 70 68
f 199 71 68
f 199 68 187
f 71 69 70
f 200 70 69
f 72 69 71
f 72 73 69
f 208 69 73
f 200 69 208
f 201 70 200
f 202 72 71
f 202 71 199
f 74 73 72
f 203 74 72
f 203 72 202
f 74 76 73
f 211 73 76
f 208 73 211
f 77 76 74
f 209 77 74
f 209 74 203
f 77 75 76
f 210 76 75
f 78 75 77
f 78 79 75
f 218 75 79
f 210 75 218
f 211 76 210
f 212 78 77
f 212 77 209
f 80 79 78
f 213 80 78
f 213 78 212
f 80 81 79
f 226 79 81
f 218 79 226
f 82 81 80
f 219 82 80
f 219 80 213
f 82 84 81
f 229 81 84
f 226 81 229
f 85 84 82
f 227 85 82
f 227 82 219
f 85 83 84
f 228 84 83
f 86 83 85
f 86 87 83
f 238 83 87
f 228 83 238
f 229 84 228
f 230 86 85
f 230 85 227
f 88 87 86
f 231 88 86
f 231 86 230
f 88 89 87
f 252 87 89
f 238 87 252
f 90 89 88
f 239 90 88
f 239 88 231
f 90 91 89
f 254 89 91
f 252 89 254
f 92 91 90
f 253 92 90
f 253 90 239
f 92 93 91
f 264 91 93
f 254 91 264
f 94 93 92
f 255 94 92
f 255 92 253
f 94 95 93
f 282 93 95
f 264 93 282
f 96 95 94
f 265 96 94
f 265 94 255
f 96 97 95
f 284 95 97
f 282 95 284
f 98 97 96
f 283 98 96
f 283 96 265
f 98 109 97
f 284 97 109
f 110 109 98
f 285 110 98
f 285 98 283
f 110 112 109
f 315 109 112
f 284 109 315
f 113 112 110
f 285 113 110
f 112 113 111
f 314 112 111
f 315 111 112
f 314 111 315
f 112 113 124
f 345 112 124
f 315 112 314
f 315 112 345
f 124 113 125
f 316 125 113
f 316 113 285
f 124 125 126
f 345 124 126
f 126 125 127
f 346 127 125
f 346 125 316
f 126 127 134
f 359 126 134
f 345 126 359
f 134 127 135
f 346 135 127
f 134 135 136
f 361 134 136
f 359 134 361
f 136 135 137
f 360 137 135
f 360 135 346
f 136 137 146
f 373 136 146
f 361 136 373
f 146 137 147
f 362 147 137
f 362 137 360
f 146 147 156
f 385 146 156
f 373 146 385
f 156 147 157
f 374 157 147
f 374 147 362
f 156 157 158
f 387 156 158
f 385 156 387
f 158 157 159
f 386 159 157
f 386 157 374
f 158 159 164
f 411 158 164
f 387 158 411
f 164 159 167
f 388 167 159
f 388 159 386
f 164 167 165
f 412 164 165
f 411 164 412
f 165 167 166
f 165 166 172
f 439 165 172
f 412 165 439
f 414 166 167
f 172 166 173
f 413 173 166
f 413 166 414
f 414 167 388
f 172 173 174
f 441 172 174
f 439 172 441
f 174 173 175
f 440 175 173
f 440 173 413
f 174 175 180
f 463 174 180
f 441 174 463
f 180 175 183
f 442 183 175
f 442 175 440
f 180 183 181
f 464 180 181
f 463 180 464
f 181 183 182
f 181 182 188
f 491 181 188
f 464 181 491
f 466 182 183
f 188 182 189
f 465 189 182
f 465 182 466
f 466 183 442
f 188 189 190
f 493 188 190
f 491 188 493
f 190 189 193
f 492 193 189
f 492 189 465
f 190 193 191
f 494 190 191
f 493 190 494
f 191 193 192
f 191 192 204
f 515 191 204
f 494 191 515
f 496 192 193
f 204 192 205
f 495 205 192
f 495 192 496
f 496 193 492
f 194 248 195
f 195 274 194
f 194 1015 248
f 194 273 272
f 272 298 194
f 194 274 273
f 297 296 194
f 194 296 310
f 194 298 297
f 194 310 332
f 332 331 194
f 194 331 340
f 340 339 194
f 194 339 347
f 347 354 194
f 194 354 353
f 353 363 194
f 194 363 367
f 194 367 376
f 194 376 375
f 194 375 381
f 194 381 403
f 194 403 407
f 194 407 431
f 431 1011 194
f 1011 1015 194
f 196 195 249
f 195 248 249
f 275 274 195
f 276 275 195
f 299 276 195
f 195 300 299
f 195 301 300
f 302 301 195
f 195 311 302
f 195 333 311
f 195 334 333
f 195 341 334
f 195 348 341
f 195 349 348
f 355 349 195
f 364 355 195
f 195 368 364
f 369 368 195
f 195 377 369
f 195 382 377
f 195 404 382
f 1012 404 195
f 250 197 196
f 197 305 196
f 196 249 250
f 304 303 196
f 196 303 312
f 196 305 304
f 196 312 336
f 336 335 196
f 196 335 343
f 343 342 196
f 196 342 350
f 350 357 196
f 196 357 356
f 356 365 196
f 196 365 370
f 196 370 379
f 196 379 378
f 196 378 383
f 196 383 405
f 196 405 409
f 196 409 433
f 196 433 437
f 196 437 457
f 1013 196 457
f 1013 724 196
f 251 197 250
f 197 251 1014
f 197 278 277
f 277 305 197
f 197 279 278
f 197 280 279
f 197 281 280
f 197 306 281
f 307 306 197
f 197 308 307
f 197 309 308
f 313 309 197
f 197 337 313
f 338 337 197
f 344 338 197
f 351 344 197
f 197 352 351
f 197 358 352
f 197 366 358
f 197 371 366
f 197 372 371
f 380 372 197
f 197 384 380
f 406 384 197
f 197 410 406
f 434 410 197
f 434 197 1014
f 204 205 206
f 517 204 206
f 515 204 517
f 206 205 207
f 516 207 205
f 516 205 495
f 206 207 214
f 539 206 214
f 517 206 539
f 214 207 215
f 518 215 207
f 518 207 516
f 214 215 216
f 541 214 216
f 539 214 541
f 216 215 217
f 540 217 215
f 540 215 518
f 216 217 220
f 565 216 220
f 541 216 565
f 220 217 221
f 542 221 217
f 542 217 540
f 220 221 222
f 567 220 222
f 565 220 567
f 222 221 225
f 566 225 221
f 566 221 542
f 222 225 223
f 568 222 223
f 567 222 568
f 223 225 224
f 223 224 232
f 593 223 232
f 568 223 593
f 570 224 225
f 232 224 233
f 569 233 224
f 569 224 570
f 570 225 566
f 232 233 234
f 593 232 234
f 234 233 237
f 596 237 233
f 596 233 569
f 234 237 235
f 594 234 235
f 593 234 594
f 235 237 236
f 235 236 240
f 594 235 240
f 596 236 237
f 240 236 241
f 595 241 236
f 595 236 596
f 240 241 242
f 603 240 242
f 594 240 603
f 242 241 247
f 595 247 241
f 242 247 243
f 604 242 243
f 603 242 604
f 243 246 244
f 605 243 244
f 243 247 246
f 604 243 605
f 244 246 245
f 244 245 256
f 615 244 256
f 605 244 615
f 607 245 246
f 256 245 257
f 606 257 245
f 606 245 607
f 608 246 247
f 607 246 608
f 608 247 595
f 248 444 249
f 248 389 390
f 248 415 389
f 248 390 391
f 391 392 248
f 392 393 248
f 393 394 248
f 248 394 395
f 248 395 416
f 248 421 415
f 416 422 248
f 248 419 420
f 443 419 248
f 420 421 248
f 422 423 248
f 248 423 424
f 248 424 444
f 248 448 443
f 248 447 448
f 248 467 447
f 248 472 467
f 471 472 248
f 497 471 248
f 519 497 248
f 248 523 519
f 543 523 248
f 248 547 543
f 547 248 571
f 571 248 1015
f 250 249 1019
f 249 444 449
f 449 450 249
f 249 450 468
f 249 468 473
f 249 473 474
f 474 498 249
f 249 498 499
f 499 520 249
f 249 520 524
f 249 524 1016
f 1016 1021 249
f 249 1021 1019
f 250 397 251
f 250 396 397
f 250 417 396
f 427 417 250
f 425 426 250
f 250 445 425
f 250 426 427
f 250 452 445
f 451 452 250
f 250 469 451
f 476 469 250
f 250 475 476
f 250 500 475
f 250 521 500
f 250 525 521
f 250 545 525
f 250 549 545
f 250 573 549
f 250 600 573
f 1017 600 250
f 250 1020 1017
f 250 1019 1020
f 251 397 398
f 398 399 251
f 399 400 251
f 400 401 251
f 251 401 402
f 251 402 418
f 418 428 251
f 428 429 251
f 251 429 430
f 251 430 446
f 251 446 453
f 251 453 454
f 251 454 470
f 470 477 251
f 251 477 478
f 251 478 501
f 501 502 251
f 251 502 522
f 251 522 526
f 251 526 546
f 251 546 550
f 251 550 574
f 574 1018 251
f 1014 251 1018
f 256 257 258
f 617 256 258
f 615 256 617
f 258 257 263
f 616 263 257
f 616 257 606
f 258 263 259
f 618 258 259
f 617 258 618
f 259 262 260
f 619 259 260
f 259 263 262
f 618 259 619
f 260 262 261
f 260 261 266
f 631 260 266
f 619 260 631
f 621 261 262
f 266 261 267
f 620 267 261
f 620 261 621
f 622 262 263
f 621 262 622
f 622 263 616
f 266 267 268
f 633 266 268
f 631 266 633
f 268 267 271
f 632 271 267
f 632 267 620
f 268 271 269
f 634 268 269
f 633 268 634
f 269 271 270
f 269 270 286
f 647 269 286
f 634 269 647
f 636 270 271
f 286 270 287
f 635 287 270
f 635 270 636
f 636 271 632
f 273 391 272
f 272 390 298
f 272 391 390
f 274 392 273
f 273 392 391
f 275 393 274
f 274 393 392
f 276 394 275
f 275 394 393
f 299 394 276
f 398 277 278
f 397 305 277
f 397 277 398
f 399 278 279
f 398 278 399
f 400 279 280
f 399 279 400
f 401 280 281
f 400 280 401
f 401 281 306
f 286 287 288
f 649 286 288
f 647 286 649
f 288 287 295
f 648 295 287
f 648 287 635
f 288 295 289
f 650 288 289
f 649 288 650
f 289 294 290
f 651 289 290
f 289 295 294
f 650 289 651
f 290 293 291
f 652 290 291
f 290 294 293
f 651 290 652
f 291 293 292
f 291 292 317
f 673 291 317
f 652 291 673
f 654 292 293
f 317 292 320
f 653 320 292
f 653 292 654
f 655 293 294
f 654 293 655
f 656 294 295
f 655 294 656
f 656 295 648
f 297 415 296
f 296 421 310
f 296 415 421
f 298 390 297
f 297 390 389
f 297 389 415
f 300 395 299
f 299 395 394
f 301 416 300
f 300 416 395
f 302 423 301
f 301 422 416
f 301 423 422
f 311 423 302
f 417 303 304
f 427 312 303
f 427 303 417
f 397 304 305
f 396 304 397
f 417 304 396
f 402 306 307
f 401 306 402
f 418 307 308
f 402 307 418
f 429 308 309
f 418 308 428
f 428 308 429
f 429 309 313
f 310 420 332
f 310 421 420
f 333 423 311
f 426 336 312
f 426 312 427
f 429 313 337
f 315 723 314
f 345 723 315
f 316 724 346
f 317 320 318
f 675 317 318
f 673 317 675
f 318 320 319
f 318 319 321
f 675 318 321
f 674 319 320
f 321 319 330
f 684 330 319
f 684 319 674
f 674 320 653
f 321 330 322
f 676 321 322
f 675 321 676
f 322 329 323
f 677 322 323
f 322 330 329
f 676 322 677
f 323 328 324
f 678 323 324
f 323 329 328
f 677 323 678
f 324 327 325
f 679 324 325
f 324 328 327
f 678 324 679
f 325 327 326
f 680 325 326
f 679 325 680
f 681 326 327
f 680 326 681
f 682 327 328
f 681 327 682
f 683 328 329
f 682 328 683
f 684 329 330
f 683 329 684
f 332 420 331
f 331 448 340
f 331 420 419
f 331 419 443
f 331 443 448
f 334 424 333
f 333 424 423
f 341 450 334
f 334 444 424
f 334 449 444
f 334 450 449
f 426 335 336
f 452 343 335
f 425 335 426
f 445 335 425
f 452 335 445
f 430 337 338
f 429 337 430
f 454 338 344
f 430 338 446
f 446 338 453
f 453 338 454
f 340 448 339
f 339 447 347
f 339 448 447
f 348 450 341
f 452 342 343
f 451 350 342
f 451 342 452
f 454 344 351
f 359 723 345
f 346 724 360
f 347 472 354
f 347 447 467
f 347 467 472
f 349 474 348
f 348 468 450
f 348 473 468
f 348 474 473
f 355 474 349
f 476 357 350
f 469 350 451
f 476 350 469
f 478 351 352
f 454 351 470
f 470 351 477
f 477 351 478
f 478 352 358
f 354 472 353
f 353 471 363
f 353 472 471
f 364 474 355
f 476 356 357
f 475 365 356
f 475 356 476
f 478 358 366
f 361 723 359
f 360 724 362
f 373 723 361
f 362 724 374
f 363 497 367
f 363 471 497
f 368 498 364
f 364 498 474
f 500 370 365
f 500 365 475
f 501 366 371
f 478 366 501
f 367 497 376
f 369 499 368
f 368 499 498
f 377 499 369
f 500 379 370
f 502 371 372
f 501 371 502
f 502 372 380
f 385 723 373
f 374 724 386
f 376 497 375
f 375 523 381
f 375 497 519
f 375 519 523
f 382 524 377
f 377 520 499
f 377 524 520
f 500 378 379
f 525 383 378
f 521 378 500
f 525 378 521
f 526 380 384
f 502 380 522
f 522 380 526
f 381 523 403
f 404 524 382
f 525 405 383
f 526 384 406
f 387 723 385
f 386 724 388
f 411 723 387
f 388 724 414
f 403 547 407
f 403 523 543
f 403 543 547
f 408 548 404
f 1012 408 404
f 404 544 524
f 404 548 544
f 549 409 405
f 545 405 525
f 549 405 545
f 550 406 410
f 526 406 546
f 546 406 550
f 407 547 431
f 432 548 408
f 432 408 1012
f 549 433 409
f 550 410 434
f 412 723 411
f 439 723 412
f 414 724 413
f 413 724 440
f 431 571 435
f 811 431 435
f 431 547 571
f 431 811 1011
f 436 572 432
f 1012 436 432
f 432 572 548
f 573 437 433
f 573 433 549
f 574 434 438
f 814 438 434
f 550 434 574
f 434 1014 814
f 435 571 455
f 789 435 455
f 811 435 789
f 456 572 436
f 1012 456 436
f 573 457 437
f 574 438 458
f 792 458 438
f 792 438 814
f 441 723 439
f 440 724 442
f 463 723 441
f 442 724 466
f 455 597 459
f 785 455 459
f 455 571 597
f 789 455 785
f 460 599 456
f 1012 460 456
f 456 599 572
f 600 461 457
f 773 457 461
f 600 457 573
f 787 457 773
f 457 787 1013
f 602 458 462
f 788 462 458
f 574 458 602
f 788 458 792
f 459 597 479
f 771 459 479
f 785 459 771
f 482 599 460
f 1012 482 460
f 600 483 461
f 767 461 483
f 773 461 767
f 602 462 486
f 788 486 462
f 464 723 463
f 491 723 464
f 466 724 465
f 465 724 492
f 479 597 480
f 763 479 480
f 771 479 763
f 480 609 487
f 764 480 487
f 480 597 598
f 480 598 609
f 763 480 764
f 481 610 482
f 1012 481 482
f 488 610 481
f 488 481 1012
f 482 611 599
f 482 610 611
f 600 484 483
f 768 483 484
f 767 483 768
f 612 489 484
f 761 484 489
f 601 484 600
f 612 484 601
f 768 484 761
f 613 486 485
f 788 485 486
f 613 485 490
f 490 485 788
f 602 486 614
f 614 486 613
f 487 609 503
f 759 487 503
f 764 487 759
f 505 610 488
f 1012 505 488
f 612 506 489
f 756 489 506
f 761 489 756
f 613 490 508
f 788 508 490
f 493 723 491
f 492 724 496
f 494 723 493
f 515 723 494
f 496 724 495
f 495 724 516
f 503 623 504
f 753 503 504
f 503 609 623
f 759 503 753
f 504 624 509
f 754 504 509
f 504 623 624
f 753 504 754
f 511 626 505
f 1012 511 505
f 505 626 610
f 627 507 506
f 756 506 507
f 627 506 612
f 628 512 507
f 757 507 512
f 628 507 627
f 756 507 757
f 630 508 514
f 788 514 508
f 613 508 630
f 509 624 527
f 747 509 527
f 754 509 747
f 510 625 511
f 1012 510 511
f 530 625 510
f 1012 530 510
f 511 625 626
f 628 531 512
f 750 512 531
f 757 512 750
f 629 514 513
f 788 513 514
f 629 513 534
f 788 534 513
f 630 514 629
f 517 723 515
f 516 724 518
f 539 723 517
f 518 724 540
f 1016 524 544
f 527 637 528
f 739 527 528
f 527 624 637
f 747 527 739
f 528 638 535
f 740 528 535
f 528 637 638
f 739 528 740
f 529 640 530
f 529 530 1012
f 536 640 529
f 1012 536 529
f 530 641 625
f 530 640 641
f 642 532 531
f 743 531 532
f 642 531 628
f 750 531 743
f 643 537 532
f 744 532 537
f 643 532 642
f 743 532 744
f 645 534 533
f 533 534 788
f 645 533 538
f 788 538 533
f 629 534 646
f 646 534 645
f 535 638 551
f 735 535 551
f 740 535 735
f 555 640 536
f 1012 555 536
f 643 556 537
f 737 537 556
f 744 537 737
f 645 538 560
f 788 560 538
f 541 723 539
f 540 724 542
f 565 723 541
f 542 724 566
f 544 548 1016
f 1016 548 572
f 551 638 552
f 725 551 552
f 735 551 725
f 552 661 553
f 726 552 553
f 552 638 639
f 552 639 657
f 552 657 661
f 725 552 726
f 553 662 561
f 553 561 726
f 553 661 662
f 554 658 555
f 554 555 1012
f 562 665 554
f 1012 562 554
f 554 666 658
f 554 665 666
f 555 658 640
f 643 557 556
f 730 556 557
f 737 556 730
f 667 558 557
f 731 557 558
f 644 557 643
f 659 557 644
f 667 557 659
f 730 557 731
f 668 563 558
f 732 558 563
f 668 558 667
f 731 558 732
f 660 560 559
f 559 560 788
f 671 559 564
f 788 564 559
f 660 559 672
f 672 559 671
f 645 560 660
f 561 662 575
f 726 561 575
f 583 665 562
f 583 562 1012
f 668 584 563
f 721 563 584
f 732 563 721
f 671 564 592
f 592 564 788
f 567 723 565
f 566 724 570
f 568 723 567
f 593 723 568
f 570 724 569
f 569 724 596
f 895 597 571
f 571 1015 895
f 1016 572 599
f 898 574 602
f 574 898 1018
f 575 662 576
f 575 576 726
f 576 663 577
f 726 576 577
f 576 662 663
f 577 691 578
f 726 577 578
f 577 663 685
f 577 685 691
f 578 692 579
f 578 579 726
f 578 691 692
f 579 693 580
f 1012 579 580
f 579 692 693
f 701 579 702
f 719 579 701
f 702 579 703
f 703 579 704
f 704 579 705
f 705 579 706
f 706 579 707
f 707 579 708
f 708 579 709
f 709 579 720
f 727 579 719
f 720 579 728
f 726 579 727
f 728 579 729
f 729 579 736
f 736 579 741
f 741 579 742
f 742 579 748
f 748 579 749
f 749 579 755
f 755 579 1012
f 580 694 581
f 1012 580 581
f 580 693 694
f 581 686 582
f 581 582 1012
f 581 695 686
f 581 694 695
f 582 664 583
f 1012 582 583
f 582 687 664
f 582 686 687
f 583 664 665
f 668 585 584
f 710 584 585
f 721 584 710
f 669 586 585
f 711 585 586
f 669 585 668
f 710 585 711
f 696 587 586
f 712 586 587
f 688 586 669
f 696 586 688
f 711 586 712
f 697 588 587
f 713 587 588
f 697 587 696
f 712 587 713
f 698 589 588
f 774 588 589
f 698 588 697
f 713 588 714
f 714 588 715
f 715 588 716
f 716 588 717
f 717 588 718
f 718 588 722
f 722 588 733
f 733 588 734
f 734 588 738
f 738 588 745
f 745 588 746
f 746 588 751
f 751 588 752
f 752 588 758
f 758 588 762
f 762 588 769
f 769 588 770
f 770 588 774
f 699 590 589
f 774 589 590
f 699 589 698
f 689 591 590
f 788 590 591
f 689 590 700
f 700 590 699
f 774 590 788
f 670 592 591
f 788 591 592
f 670 591 690
f 690 591 689
f 671 592 670
f 594 723 593
f 603 723 594
f 596 724 595
f 595 724 608
f 877 598 597
f 877 597 895
f 878 609 598
f 878 598 877
f 1016 599 611
f 881 601 600
f 881 600 880
f 880 600 1017
f 864 612 601
f 864 601 881
f 898 602 614
f 604 723 603
f 605 723 604
f 615 723 605
f 607 724 606
f 606 724 616
f 608 724 607
f 861 623 609
f 861 609 878
f 1016 611 610
f 610 626 1016
f 864 627 612
f 614 613 898
f 898 613 630
f 617 723 615
f 616 724 622
f 618 723 617
f 619 723 618
f 631 723 619
f 621 724 620
f 620 724 632
f 622 724 621
f 841 624 623
f 841 623 861
f 842 637 624
f 842 624 841
f 1016 626 625
f 1016 625 641
f 845 628 627
f 845 627 864
f 846 642 628
f 846 628 845
f 898 630 629
f 898 629 646
f 633 723 631
f 632 724 636
f 634 723 633
f 647 723 634
f 636 724 635
f 635 724 648
f 823 638 637
f 823 637 842
f 824 639 638
f 824 638 823
f 825 657 639
f 825 639 824
f 641 640 1016
f 640 658 1016
f 828 643 642
f 828 642 846
f 829 644 643
f 829 643 828
f 830 659 644
f 830 644 829
f 898 646 645
f 898 645 660
f 649 723 647
f 648 724 656
f 650 723 649
f 651 723 650
f 652 723 651
f 673 723 652
f 654 724 653
f 653 724 674
f 655 724 654
f 656 724 655
f 661 657 825
f 1016 658 666
f 821 667 659
f 821 659 830
f 660 672 898
f 825 662 661
f 663 662 825
f 825 685 663
f 1016 665 664
f 1016 664 687
f 1016 666 665
f 805 668 667
f 805 667 821
f 806 669 668
f 806 668 805
f 807 688 669
f 807 669 806
f 898 671 670
f 670 690 882
f 898 670 882
f 672 671 898
f 675 723 673
f 674 724 684
f 676 724 675
f 675 724 723
f 677 724 676
f 678 724 677
f 679 724 678
f 680 724 679
f 681 724 680
f 682 724 681
f 683 724 682
f 684 724 683
f 691 685 825
f 687 686 1016
f 1016 686 695
f 796 696 688
f 796 688 807
f 882 690 689
f 882 689 700
f 825 692 691
f 825 693 692
f 1016 694 693
f 775 776 693
f 693 793 775
f 693 776 777
f 693 777 778
f 693 778 779
f 693 779 794
f 801 793 693
f 693 794 795
f 795 802 693
f 693 799 800
f 693 819 799
f 693 800 801
f 802 803 693
f 693 803 804
f 693 804 820
f 693 825 819
f 693 820 826
f 693 826 827
f 827 843 693
f 843 844 693
f 693 844 862
f 1016 693 862
f 1016 695 694
f 780 697 696
f 780 696 796
f 781 698 697
f 781 697 780
f 699 698 882
f 782 698 781
f 698 782 783
f 698 783 784
f 698 784 797
f 698 797 798
f 798 808 698
f 808 809 698
f 698 809 810
f 698 810 822
f 698 822 831
f 698 831 832
f 832 847 698
f 847 848 698
f 698 848 865
f 698 865 866
f 866 882 698
f 882 700 699
f 702 801 701
f 701 800 719
f 701 801 800
f 703 793 702
f 702 793 801
f 704 776 703
f 703 776 775
f 703 775 793
f 705 777 704
f 704 777 776
f 706 778 705
f 705 778 777
f 707 779 706
f 706 779 778
f 708 795 707
f 707 794 779
f 707 795 794
f 709 803 708
f 708 802 795
f 708 803 802
f 720 803 709
f 807 710 711
f 806 721 710
f 806 710 807
f 796 711 712
f 807 711 796
f 781 712 713
f 780 712 781
f 796 712 780
f 782 713 714
f 781 713 782
f 783 714 715
f 782 714 783
f 784 715 716
f 783 715 784
f 798 716 717
f 784 716 797
f 797 716 798
f 809 717 718
f 798 717 808
f 808 717 809
f 809 718 722
f 719 800 727
f 728 804 720
f 720 804 803
f 806 732 721
f 810 722 733
f 809 722 810
f 723 724 1013
f 723 1013 1012
f 726 825 725
f 725 824 735
f 725 825 824
f 727 800 726
f 726 800 799
f 726 799 819
f 726 819 825
f 729 826 728
f 728 820 804
f 728 826 820
f 736 826 729
f 830 730 731
f 829 737 730
f 829 730 830
f 806 731 732
f 805 731 806
f 821 731 805
f 830 731 821
f 831 733 734
f 810 733 822
f 822 733 831
f 831 734 738
f 735 824 740
f 741 826 736
f 829 744 737
f 831 738 745
f 740 824 739
f 739 842 747
f 739 824 823
f 739 823 842
f 742 827 741
f 741 827 826
f 748 843 742
f 742 843 827
f 829 743 744
f 846 750 743
f 828 743 829
f 846 743 828
f 832 745 746
f 831 745 832
f 847 746 751
f 832 746 847
f 747 842 754
f 749 844 748
f 748 844 843
f 755 844 749
f 846 757 750
f 848 751 752
f 847 751 848
f 848 752 758
f 754 842 753
f 753 861 759
f 753 842 841
f 753 841 861
f 760 862 755
f 755 1012 760
f 755 862 844
f 846 756 757
f 864 761 756
f 845 756 846
f 864 756 845
f 865 758 762
f 848 758 865
f 759 861 764
f 765 862 760
f 760 1012 765
f 864 768 761
f 865 762 769
f 764 878 763
f 763 877 771
f 763 878 877
f 764 861 878
f 766 863 765
f 765 1012 766
f 765 863 862
f 772 879 766
f 766 1012 772
f 766 879 863
f 881 767 768
f 880 773 767
f 880 767 881
f 881 768 864
f 866 769 770
f 865 769 866
f 882 770 774
f 866 770 882
f 771 877 785
f 786 879 772
f 772 1012 786
f 880 787 773
f 882 774 788
f 785 895 789
f 785 877 895
f 790 896 786
f 786 1012 790
f 786 896 879
f 897 791 787
f 791 1013 787
f 897 787 880
f 898 788 792
f 882 788 898
f 789 895 811
f 812 896 790
f 790 1012 812
f 897 813 791
f 813 1013 791
f 898 792 814
f 811 911 815
f 815 1011 811
f 811 895 911
f 816 912 812
f 812 1012 816
f 812 912 896
f 913 817 813
f 817 1013 813
f 913 813 897
f 914 814 818
f 814 1014 818
f 898 814 914
f 815 911 833
f 833 1011 815
f 834 912 816
f 816 1012 834
f 913 835 817
f 835 1013 817
f 914 818 836
f 818 1014 836
f 833 943 837
f 837 1011 833
f 833 911 939
f 833 939 943
f 838 944 834
f 834 1012 838
f 834 940 912
f 834 944 940
f 945 839 835
f 839 1013 835
f 941 835 913
f 945 835 941
f 946 836 840
f 836 1014 840
f 914 836 942
f 942 836 946
f 837 943 849
f 849 1011 837
f 851 944 838
f 838 1012 851
f 945 852 839
f 852 1013 839
f 946 840 854
f 840 1014 854
f 849 947 850
f 850 1011 849
f 849 943 947
f 850 951 855
f 855 1011 850
f 850 947 951
f 857 953 851
f 851 1012 857
f 851 948 944
f 851 953 948
f 949 853 852
f 853 1013 852
f 949 852 945
f 954 858 853
f 858 1013 853
f 954 853 949
f 956 854 860
f 854 1014 860
f 946 854 950
f 950 854 956
f 855 951 867
f 867 1011 855
f 856 952 857
f 857 1012 856
f 868 952 856
f 856 1012 868
f 857 952 953
f 954 869 858
f 869 1013 858
f 955 860 859
f 860 1014 859
f 955 859 870
f 859 1014 870
f 956 860 955
f 863 1016 862
f 879 1016 863
f 867 957 871
f 871 1011 867
f 867 951 957
f 873 960 868
f 868 1012 873
f 868 960 952
f 961 874 869
f 874 1013 869
f 961 869 954
f 964 870 876
f 870 1014 876
f 955 870 964
f 871 957 872
f 872 1011 871
f 872 958 883
f 883 1011 872
f 872 957 958
f 885 960 873
f 873 1012 885
f 961 875 874
f 875 1013 874
f 962 886 875
f 886 1013 875
f 962 875 961
f 964 876 888
f 876 1014 888
f 896 1016 879
f 880 1017 897
f 883 969 889
f 889 1011 883
f 883 958 965
f 883 965 969
f 884 959 885
f 885 1012 884
f 891 972 884
f 884 1012 891
f 884 966 959
f 884 972 966
f 885 959 960
f 973 892 886
f 892 1013 886
f 967 886 962
f 973 886 967
f 963 888 887
f 888 1014 887
f 976 887 894
f 887 1014 894
f 963 887 968
f 968 887 976
f 964 888 963
f 889 969 890
f 890 1011 889
f 890 970 899
f 899 1011 890
f 890 969 970
f 902 971 891
f 891 1012 902
f 891 971 972
f 973 893 892
f 893 1013 892
f 974 903 893
f 903 1013 893
f 974 893 973
f 975 894 906
f 894 1014 906
f 976 894 975
f 895 1015 911
f 912 1016 896
f 897 1017 913
f 914 1018 898
f 899 981 900
f 900 1011 899
f 899 970 977
f 899 977 981
f 900 982 907
f 907 1011 900
f 900 981 982
f 901 985 902
f 902 1012 901
f 908 985 901
f 901 1012 908
f 902 978 971
f 902 986 978
f 902 985 986
f 987 904 903
f 904 1013 903
f 979 903 974
f 987 903 979
f 988 909 904
f 909 1013 904
f 988 904 987
f 991 906 905
f 906 1014 905
f 991 905 910
f 905 1014 910
f 975 906 980
f 980 906 992
f 992 906 991
f 907 982 915
f 915 1011 907
f 921 985 908
f 908 1012 921
f 988 922 909
f 922 1013 909
f 991 910 928
f 910 1014 928
f 911 1015 939
f 940 1016 912
f 913 1017 941
f 942 1018 914
f 915 983 916
f 916 1011 915
f 915 982 983
f 916 997 917
f 917 1011 916
f 916 983 993
f 916 993 997
f 917 998 929
f 929 1011 917
f 917 997 998
f 918 1002 919
f 919 1012 918
f 933 1002 918
f 918 1012 933
f 919 1003 920
f 920 1012 919
f 919 1002 1003
f 920 984 921
f 921 1012 920
f 920 994 984
f 920 1003 994
f 921 984 985
f 989 923 922
f 923 1013 922
f 989 922 988
f 1004 924 923
f 924 1013 923
f 995 923 989
f 1004 923 995
f 1005 934 924
f 934 1014 924
f 1005 924 1004
f 924 1014 1013
f 1009 926 925
f 926 1014 925
f 1009 925 938
f 925 1014 938
f 1010 927 926
f 927 1014 926
f 1010 926 1009
f 990 928 927
f 928 1014 927
f 990 927 996
f 996 927 1010
f 991 928 990
f 929 998 930
f 930 1011 929
f 930 999 931
f 931 1011 930
f 930 998 999
f 931 1000 932
f 932 1012 931
f 931 999 1000
f 931 1012 1011
f 932 1001 933
f 933 1012 932
f 932 1000 1001
f 933 1001 1002
f 1005 935 934
f 935 1014 934
f 1006 936 935
f 936 1014 935
f 1006 935 1005
f 1007 937 936
f 937 1014 936
f 1007 936 1006
f 1008 938 937
f 938 1014 937
f 1008 937 1007
f 1009 938 1008
f 939 1015 943
f 944 1016 940
f 941 1017 945
f 946 1018 942
f 943 1015 947
f 948 1016 944
f 945 1017 949
f 950 1018 946
f 947 1015 951
f 953 1016 948
f 949 1017 954
f 956 1018 950
f 951 1015 957
f 952 1016 953
f 960 1016 952
f 954 1017 961
f 955 1018 956
f 964 1018 955
f 957 1015 958
f 958 1015 965
f 959 1016 960
f 966 1016 959
f 961 1017 962
f 962 1017 967
f 963 1018 964
f 968 1018 963
f 965 1015 969
f 972 1016 966
f 967 1017 973
f 976 1018 968
f 969 1015 970
f 970 1015 977
f 971 1016 972
f 978 1016 971
f 973 1017 974
f 974 1017 979
f 975 1018 976
f 980 1018 975
f 977 1015 981
f 986 1016 978
f 979 1017 987
f 992 1018 980
f 981 1015 982
f 982 1015 983
f 983 1015 993
f 984 1016 985
f 994 1016 984
f 985 1016 986
f 987 1017 988
f 988 1017 989
f 989 1017 995
f 990 1018 991
f 996 1018 990
f 991 1018 992
f 993 1015 997
f 1003 1016 994
f 995 1017 1004
f 1010 1018 996
f 997 1015 998
f 998 1015 999
f 999 1015 1000
f 1000 1016 1001
f 1000 1015 1016
f 1001 1016 1002
f 1002 1016 1003
f 1004 1017 1005
f 1005 1018 1006
f 1005 1017 1018
f 1006 1018 1007
f 1007 1018 1008
f 1008 1018 1009
f 1009 1018 1010
f 1016 1011 1012
f 1015 1011 1016
f 1012 1013 1017
f 1012 1017 1016
f 1014 1018 1013
f 1013 1018 1017
f 1016 1017 1022
f 1016 1022 1021
f 1017 1020 1022
f 1019 1022 1020
f 1021 1022 1019
