v -0.015 0.0680000019 0.0480000019
v -0.0170000005 0.0680000019 0.0480000019
v -0.0170000005 0.0680000019 0.0530000019
v -0.015 0.0680000019 0.0530000019
v 0.00899999976 0.0582000017 0.05
v 0.0110000002 0.0582000017 0.05
v 0.0110000002 0.0582000017 0.0580000019
v 0.00899999976 0.0582000017 0.0580000019
v -0.0110000002 0.0582000017 0.05
v -0.00899999976 0.0582000017 0.05
v -0.00899999976 0.0582000017 0.0580000019
v -0.0110000002 0.0582000017 0.0580000019
v 0.015 0.0582000017 0.0530000019
v 0.015 0.0582000017 0.0480000019
v -0.015 0.0582000017 0.0480000019
v -0.015 0.0582000017 0.0530000019
v -0.0170000005 0.0582000017 0.0530000019
v -0.0170000005 0.0582000017 0.0625
v 0.0170000005 0.0582000017 0.0625
v 0.0170000005 0.0582000017 0.0530000019
v -0.00899999976 0.0582000017 0.0580000019
v -0.00899999976 0.0582000017 0.05
v -0.00899999976 0.0555000019 0.05
v -0.00899999976 0.0555000019 0.0580000019
v 0.015 0.0582000017 0.0530000019
v 0.0170000005 0.0582000017 0.0530000019
v 0.0170000005 0.0680000019 0.0530000019
v 0.015 0.0680000019 0.0530000019
v 0.0170000005 0.071500001 0.0480000019
v 0.0170000005 0.071500001 0.045999999
v -0.0170000005 0.071500001 0.045999999
v -0.0170000005 0.071500001 0.0480000019
v -0.00899999976 0.0582000017 0.05
v -0.0110000002 0.0582000017 0.05
v -0.0110000002 0.0555000019 0.05
v -0.00899999976 0.0555000019 0.05
v -0.0170000005 0.0582000017 0.0530000019
v -0.015 0.0582000017 0.0530000019
v -0.015 0.0680000019 0.0530000019
v -0.0170000005 0.0680000019 0.0530000019
v -0.0110000002 0.0582000017 0.05
v -0.0110000002 0.0582000017 0.0580000019
v -0.0110000002 0.0555000019 0.0580000019
v -0.0110000002 0.0555000019 0.05
v -0.0110000002 0.0582000017 0.0580000019
v -0.00899999976 0.0582000017 0.0580000019
v -0.00899999976 0.0555000019 0.0580000019
v -0.0110000002 0.0555000019 0.0580000019
v 0.0170000005 0.0680000019 0.0480000019
v 0.015 0.0680000019 0.0480000019
v 0.015 0.0680000019 0.0530000019
v 0.0170000005 0.0680000019 0.0530000019
v 0.015 0.0582000017 0.0480000019
v 0.015 0.0680000019 0.0480000019
v 0.0170000005 0.0680000019 0.0480000019
v 0.0170000005 0.071500001 0.0480000019
v -0.0170000005 0.071500001 0.0480000019
v -0.0170000005 0.0680000019 0.0480000019
v -0.015 0.0680000019 0.0480000019
v -0.015 0.0582000017 0.0480000019
v 0.00899999976 0.0582000017 0.05
v 0.00899999976 0.0582000017 0.0580000019
v 0.00899999976 0.0555000019 0.0580000019
v 0.00899999976 0.0555000019 0.05
v 0.0170000005 0.0555000019 0.0625
v 0.0170000005 0.0582000017 0.0625
v -0.0170000005 0.0582000017 0.0625
v -0.0170000005 0.0555000019 0.0625
v 0.0110000002 0.0582000017 0.05
v 0.00899999976 0.0582000017 0.05
v 0.00899999976 0.0555000019 0.05
v 0.0110000002 0.0555000019 0.05
v -0.0170000005 0.0555000019 0.046500001
v -0.0170000005 0.0555000019 0.0625
v -0.0170000005 0.0582000017 0.0625
v -0.0170000005 0.0582000017 0.0530000019
v -0.0170000005 0.0680000019 0.0530000019
v -0.0170000005 0.0680000019 0.0480000019
v -0.0170000005 0.071500001 0.0480000019
v -0.0170000005 0.071500001 0.045999999
v -0.0170000005 0.0680000019 0.045999999
v -0.0170000005 0.0680000019 0.0428000021
v -0.0170000005 0.054000001 0.0428000021
v -0.0170000005 0.054000001 0.046500001
v -0.015 0.0582000017 0.0530000019
v -0.015 0.0582000017 0.0480000019
v -0.015 0.0680000019 0.0480000019
v -0.015 0.0680000019 0.0530000019
v 0.0110000002 0.0582000017 0.0580000019
v 0.0110000002 0.0582000017 0.05
v 0.0110000002 0.0555000019 0.05
v 0.0110000002 0.0555000019 0.0580000019
v 0.015 0.0680000019 0.0480000019
v 0.015 0.0582000017 0.0480000019
v 0.015 0.0582000017 0.0530000019
v 0.015 0.0680000019 0.0530000019
v 0.00899999976 0.0582000017 0.0580000019
v 0.0110000002 0.0582000017 0.0580000019
v 0.0110000002 0.0555000019 0.0580000019
v 0.00899999976 0.0555000019 0.0580000019
v 0.0170000005 0.0555000019 0.046500001
v 0.0170000005 0.054000001 0.046500001
v 0.0170000005 0.054000001 0.0428000021
v 0.0170000005 0.0680000019 0.0428000021
v 0.0170000005 0.0680000019 0.045999999
v 0.0170000005 0.071500001 0.045999999
v 0.0170000005 0.071500001 0.0480000019
v 0.0170000005 0.0680000019 0.0480000019
v 0.0170000005 0.0680000019 0.0530000019
v 0.0170000005 0.0582000017 0.0530000019
v 0.0170000005 0.0582000017 0.0625
v 0.0170000005 0.0555000019 0.0625
v 0.0170000005 0.0555000019 0.046500001
v -0.0170000005 0.0555000019 0.046500001
v -0.0170000005 0.054000001 0.046500001
v 0.0170000005 0.054000001 0.046500001
v -0.0170000005 0.054000001 0.046500001
v -0.0170000005 0.054000001 0.0428000021
v 0.0170000005 0.054000001 0.0428000021
v 0.0170000005 0.054000001 0.046500001
v -0.0170000005 0.0680000019 0.045999999
v 0.0170000005 0.0680000019 0.045999999
v 0.0170000005 0.0680000019 0.0428000021
v -0.0170000005 0.0680000019 0.0428000021
v 0.0170000005 0.0680000019 0.0428000021
v 0.0170000005 0.054000001 0.0428000021
v -0.0170000005 0.054000001 0.0428000021
v -0.0170000005 0.0680000019 0.0428000021
v 0.0170000005 0.0680000019 0.045999999
v -0.0170000005 0.0680000019 0.045999999
v -0.0170000005 0.071500001 0.045999999
v 0.0170000005 0.071500001 0.045999999
v -0.0170000005 0.0555000019 0.046500001
v 0.0170000005 0.0555000019 0.046500001
v 0.0170000005 0.0555000019 0.0625
v -0.0170000005 0.0555000019 0.0625
v 0.0110000002 0.0555000019 0.05
v 0.00899999976 0.0555000019 0.05
v 0.00899999976 0.0555000019 0.0580000019
v 0.0110000002 0.0555000019 0.0580000019
v -0.00899999976 0.0555000019 0.05
v -0.0110000002 0.0555000019 0.05
v -0.0110000002 0.0555000019 0.0580000019
v -0.00899999976 0.0555000019 0.0580000019
f 2 3 1
f 1 3 4
f 6 14 5
f 5 14 15
f 5 15 10
f 10 15 9
f 9 15 16
f 9 16 12
f 12 16 17
f 12 17 18
f 14 6 13
f 13 6 7
f 13 7 20
f 20 7 19
f 19 7 8
f 19 8 18
f 18 8 11
f 18 11 12
f 8 5 11
f 11 5 10
f 21 22 24
f 24 22 23
f 25 26 28
f 28 26 27
f 29 30 32
f 32 30 31
f 33 34 36
f 36 34 35
f 37 38 40
f 40 38 39
f 41 42 44
f 44 42 43
f 45 46 48
f 48 46 47
f 50 51 49
f 49 51 52
f 60 53 59
f 59 53 54
f 59 54 57
f 57 54 56
f 56 54 55
f 57 58 59
f 61 62 64
f 64 62 63
f 66 67 65
f 65 67 68
f 69 70 72
f 72 70 71
f 74 76 73
f 73 76 78
f 73 78 81
f 81 78 80
f 80 78 79
f 74 75 76
f 76 77 78
f 81 82 73
f 73 82 83
f 73 83 84
f 85 86 88
f 88 86 87
f 89 90 92
f 92 90 91
f 94 95 93
f 93 95 96
f 97 98 100
f 100 98 99
f 102 103 101
f 101 103 104
f 101 104 105
f 106 107 105
f 105 107 108
f 105 108 101
f 101 108 110
f 101 110 112
f 112 110 111
f 108 109 110
f 113 114 116
f 116 114 115
f 117 118 120
f 120 118 119
f 122 123 121
f 121 123 124
f 126 127 125
f 125 127 128
f 129 130 132
f 132 130 131
f 134 138 133
f 133 138 141
f 133 141 142
f 135 140 134
f 134 140 137
f 134 137 138
f 140 135 139
f 139 135 136
f 139 136 144
f 144 136 143
f 143 136 133
f 143 133 142
f 138 139 141
f 141 139 144
