v 0.04 -0.0279999995 0.0630000019
v 0.04 -0.0279999995 0.0430000019
v 0.04 0.00200000003 0.0430000019
v 0.04 0.00200000003 0.0630000019
v 0.04 -0.0279999995 0.0630000019
v 0.04 0.00200000003 0.0630000019
v -0.04 0.00200000003 0.0630000019
v -0.04 -0.0279999995 0.0630000019
v -0.04 -0.0279999995 0.0630000019
v -0.04 -0.0279999995 0.0430000019
v 0.04 -0.0279999995 0.0430000019
v 0.04 -0.0279999995 0.0630000019
v -0.04 0.00200000003 0.0630000019
v -0.04 0.00200000003 0.0430000019
v -0.04 -0.0279999995 0.0430000019
v -0.04 -0.0279999995 0.0630000019
v 0.04 0.00200000003 0.0630000019
v 0.04 0.00200000003 0.0430000019
v -0.04 0.00200000003 0.0430000019
v -0.04 0.00200000003 0.0630000019
v 0.04 0.00200000003 0.0430000019
v 0.04 -0.0279999995 0.0430000019
v -0.04 -0.0279999995 0.0430000019
v -0.04 0.00200000003 0.0430000019
f 1 2 4
f 4 2 3
f 6 7 5
f 5 7 8
f 9 10 12
f 12 10 11
f 13 14 16
f 16 14 15
f 17 18 20
f 20 18 19
f 22 23 21
f 21 23 24
