v -0.0557511159 -0.00483942471 -0.038573385
v -0.055790815 -0.00487912617 -0.0378600152
v -0.0558217045 -0.00491001569 -0.0371457739
v -0.0558437749 -0.00493208848 -0.0364308794
v -0.055857019 -0.00494533025 -0.0357155485
v -0.0558614346 -0.00494974576 -0.0350000001
v -0.0557026168 -0.00479093037 -0.0392856665
v -0.0555045029 -0.00459281407 -0.0414138134
v -0.0555792948 -0.00466760598 -0.0407060976
v -0.0556453391 -0.00473364793 -0.0399966426
v -0.055420992 -0.00450930558 -0.0421195753
v -0.0553287836 -0.00441709481 -0.0428231688
v -0.0552279039 -0.00431621514 -0.0435243793
v -0.055000269 -0.00408857785 -0.0449187977
v -0.0551183888 -0.00420669995 -0.0442229934
v -0.0548735782 -0.00396189175 -0.0456115813
v -0.0547383591 -0.00382667027 -0.046301132
v -0.0545946499 -0.00368296109 -0.0469872398
v -0.0544424959 -0.00353080712 -0.0476696963
v -0.0544304224 -0.0035187336 -0.0363610805
v -0.0544430228 -0.00353133164 -0.035680644
v -0.0544472214 -0.00353553258 -0.0350000001
v -0.0542819449 -0.00337025605 -0.0483482952
v -0.0542961522 -0.00338446103 -0.0390766103
v -0.0543422838 -0.00343059502 -0.0383990736
v -0.0543800446 -0.00346835576 -0.0377205021
v -0.0544094297 -0.00349773846 -0.0370411022
v -0.0541788431 -0.00326715432 -0.0404277511
v -0.0542416664 -0.00332997761 -0.0397529049
v -0.054113042 -0.00320135556 -0.0490228267
v -0.0540282627 -0.00311657391 -0.0417722793
v -0.0541077014 -0.00319601498 -0.0411009438
v -0.0539358398 -0.00302415333 -0.0496930857
v -0.0539405509 -0.00302886449 -0.0424415512
v -0.0537503954 -0.0028387066 -0.0503588696
v -0.0538445946 -0.00293290578 -0.0431085558
v -0.0537404224 -0.00282873116 -0.0437730916
v -0.0535567614 -0.00264507256 -0.0510199757
v -0.0535075542 -0.00259586297 -0.0450939424
v -0.0536280628 -0.00271637402 -0.0444349535
v -0.0533549996 -0.00244331322 -0.0516762013
v -0.0533789297 -0.00246724091 -0.0457498569
v -0.05324223 -0.00233054124 -0.0464024968
v -0.0531451698 -0.00223348103 -0.0523273487
v -0.0530975004 -0.00218581162 -0.0470516629
v -0.0529273363 -0.00201564751 -0.0529732175
v -0.052944779 -0.00203309022 -0.0476971574
v -0.0527841159 -0.00187242947 -0.0483387847
v -0.0527015658 -0.00178987466 -0.0536136098
v -0.0526155587 -0.00170387231 -0.0489763494
v -0.0524679252 -0.00155623875 -0.0542483349
v -0.05243916 -0.00152747117 -0.0496096582
v -0.0522549721 -0.00134328328 -0.0502385135
v -0.0522264882 -0.0013148018 -0.0548771949
v -0.0520630499 -0.00115136109 -0.0508627291
v -0.0519773265 -0.00106564007 -0.055499999
v -0.0518634554 -0.000951766593 -0.0514821119
v -0.0517205187 -0.000808829887 -0.0561165614
v -0.0516562482 -0.000744561774 -0.0520964737
v -0.0514561411 -0.000544452293 -0.0567266889
v -0.0514414903 -0.000529803855 -0.0527056284
v -0.0511842724 -0.000272583587 -0.0573302002
v -0.0512192484 -0.000307559592 -0.0533093901
v -0.0509895893 -7.79005119e-05 -0.0539075751
v -0.0509049984 6.69039993e-06 -0.0579269094
v -0.0507525822 0.000159106629 -0.0545
v -0.050618405 0.000293283837 -0.058516633
v -0.0505083009 0.000403385537 -0.0550864859
v -0.0503245755 0.000587110894 -0.0590991945
v -0.0502568194 0.000654869454 -0.0556668515
v -0.0501339599 -0.0105359789 -0.0378600152
v -0.0501648494 -0.0105668684 -0.0371457739
v -0.0501869198 -0.0105889412 -0.0364308794
v -0.0502001663 -0.0106021877 -0.0357155485
v -0.0502045818 -0.0106066032 -0.0350000001
v -0.0500457641 -0.0104477831 -0.0392856665
v -0.0500942608 -0.0104962822 -0.038573385
v -0.0500236007 0.00088808574 -0.0596744151
v -0.0499224397 -0.0103244587 -0.0407060976
v -0.049988484 -0.0103905054 -0.0399966426
v -0.0497641369 -0.0101661583 -0.0421195753
v -0.0498476502 -0.0102496716 -0.0414138134
v -0.0499982139 0.00091347255 -0.0562409229
v -0.0496719285 -0.0100739475 -0.0428231688
v -0.0495710512 -0.00997307263 -0.0435243793
v -0.0497155758 0.00119610824 -0.0602421207
v -0.0497325631 0.0011791233 -0.0568085237
v -0.0494615336 -0.00986355267 -0.0442229934
v -0.0493434139 -0.00974543534 -0.0449187977
v -0.0494599482 0.00145174064 -0.057369482
v -0.0494005891 0.00151109733 -0.060802135
v -0.0492167231 -0.00961874448 -0.0456115813
v -0.049081504 -0.00948352299 -0.046301132
v -0.0491804524 0.00173123397 -0.057923624
v -0.0490787407 0.00183294334 -0.061354291
v -0.0489377972 -0.00933981858 -0.0469872398
v -0.0487856432 -0.00918766461 -0.0476696963
v -0.0487525745 -0.00915459595 -0.0370411022
v -0.0487735697 -0.00917559109 -0.0363610805
v -0.0487861677 -0.00918818913 -0.035680644
v -0.0487903687 -0.00919239007 -0.0350000001
v -0.0487501284 0.00216156043 -0.0618984194
v -0.0488941594 0.002017527 -0.0584707851
v -0.0486250897 -0.00902710877 -0.0483482952
v -0.0486392971 -0.00904131852 -0.0390766103
v -0.0486854287 -0.00908744775 -0.0383990736
v -0.0487231918 -0.00912521325 -0.0377205021
v -0.048521988 -0.00892400704 -0.0404277511
v -0.0485848113 -0.00898683034 -0.0397529049
v -0.0486011597 0.00231052436 -0.0590107985
v -0.0484561869 -0.00885820828 -0.0490228267
v -0.04837141 -0.0087734314 -0.0417722793
v -0.0484508463 -0.00885286771 -0.0411009438
v -0.048278987 -0.00868100606 -0.0496930857
v -0.0482836982 -0.00868571721 -0.0424415512
v -0.0484148499 0.00249683418 -0.0624343557
v -0.048301539 0.00261014976 -0.0595434947
v -0.0481877419 -0.00858976327 -0.0431085558
v -0.0480935403 -0.00849555932 -0.0503588696
v -0.0480835672 -0.00848558865 -0.0437730916
v -0.0480730101 0.00283867873 -0.0629619331
v -0.0478999086 -0.00830193005 -0.0510199757
v -0.0478506991 -0.00825272046 -0.0450939424
v -0.0479712077 -0.00837322674 -0.0444349535
v -0.0479953905 0.00291629829 -0.0600687165
v -0.0476981445 -0.00810016595 -0.0516762013
v -0.0477220746 -0.00812409363 -0.0457498569
v -0.0475853773 -0.00798739873 -0.0464024968
v -0.0477247091 0.00318697967 -0.0634809942
v -0.0476828071 0.00322888412 -0.0605863018
v -0.0474883147 -0.00789033375 -0.0523273487
v -0.0474406453 -0.00784266434 -0.0470516629
v -0.0472704812 -0.00767250024 -0.0529732175
v -0.0472879239 -0.00768994294 -0.0476971574
v -0.0473700567 0.00354163207 -0.0639913769
v -0.0473638841 0.00354780235 -0.0610960932
v -0.0471272608 -0.0075292822 -0.0483387847
v -0.0470447107 -0.00744673215 -0.0536136098
v -0.0470091601 0.00390253104 -0.0644929309
v -0.0470387193 0.00387296714 -0.0615979357
v -0.0469587036 -0.00736072503 -0.0489763494
v -0.0468110701 -0.00721309148 -0.0542483349
v -0.0467823049 -0.00718432389 -0.0496096582
v -0.046598117 -0.007000136 -0.0502385135
v -0.0465696331 -0.00697165452 -0.0548771949
v -0.0467074104 0.00420428314 -0.0620916767
v -0.046642129 0.00426956214 -0.0649855013
v -0.0464061972 -0.00680821858 -0.0508627291
v -0.0463204738 -0.0067224928 -0.055499999
v -0.0462690755 0.00464261092 -0.0654689379
v -0.0463700577 0.00454162635 -0.0625771637
v -0.0462066027 -0.00660862408 -0.0514821119
v -0.0460636636 -0.00646568261 -0.0561165614
v -0.0460267659 0.00488492049 -0.0630542512
v -0.0459993955 -0.0064014145 -0.0520964737
v -0.045799286 -0.00620130501 -0.0567266889
v -0.0457846376 -0.00618665658 -0.0527056284
v -0.0458901139 0.00502157249 -0.0659430928
v -0.0455274197 -0.00592944108 -0.0573302002
v -0.0455623933 -0.00596441231 -0.0533093901
v -0.0456776377 0.00523405113 -0.0635227938
v -0.0455053564 0.00540633239 -0.0664078231
v -0.0453327342 -0.00573475323 -0.0539075751
v -0.0453227826 0.0055889038 -0.0639826484
v -0.0452481457 -0.00565016709 -0.0579269094
v -0.0450957295 -0.00549775086 -0.0545
v -0.0451149221 0.00579676666 -0.0668629856
v -0.0449615499 -0.00536356889 -0.058516633
v -0.0448514482 -0.00525346719 -0.0550864859
v -0.0449623056 0.00594938316 -0.0644336743
v -0.0446677204 -0.00506974183 -0.0590991945
v -0.0445999642 -0.00500198327 -0.0556668515
v -0.0447189327 0.00619275131 -0.0673084421
v -0.0445963164 0.00631537475 -0.0648757334
v -0.044366748 -0.00476876698 -0.0596744151
v -0.0443413588 -0.00474338017 -0.0562409229
v -0.044317505 0.00659418144 -0.0677440567
v -0.0440587207 -0.00446073971 -0.0602421207
v -0.044075708 -0.00447772942 -0.0568085237
v -0.0442249294 0.0066867546 -0.065308692
v -0.0438030931 -0.00420511208 -0.057369482
v -0.0439107629 0.00700092353 -0.0681696959
v -0.0438482543 0.00706343688 -0.065732419
v -0.0437437364 -0.00414575539 -0.060802135
v -0.0435235973 -0.00392561875 -0.057923624
v -0.043421888 -0.00382390938 -0.061354291
v -0.043498828 0.00741286315 -0.0685852356
v -0.0434664103 0.00744527854 -0.0661467857
v -0.0432373067 -0.00363932572 -0.0584707851
v -0.0430932733 -0.00349529229 -0.0618984194
v -0.0430818316 0.00782985725 -0.0689905424
v -0.0430795094 0.00783218421 -0.0665516634
v -0.0429443046 -0.00334632359 -0.0590107985
v -0.0427579971 -0.00316001855 -0.0624343557
v -0.0426446863 -0.00304670773 -0.0595434947
v -0.0426876684 0.00822402038 -0.0669469304
v -0.0426598927 0.00825179137 -0.0693854923
v -0.042416155 -0.00281817399 -0.0629619331
v -0.0423385378 -0.0027405592 -0.0600687165
v -0.0422910114 0.0086206726 -0.0673324652
v -0.0420678564 -0.00246987782 -0.0634809942
v -0.0420259543 -0.00242797337 -0.0605863018
v -0.0422331472 0.00867854156 -0.0697699709
v -0.0418017217 0.00910996475 -0.0701438589
v -0.0418896576 0.00902202644 -0.0677081509
v -0.041713204 -0.00211522542 -0.0639913769
v -0.0417070314 -0.00210905038 -0.0610960932
v -0.0413523074 -0.00175432645 -0.0644929309
v -0.0413818642 -0.00178388558 -0.0615979357
v -0.0414837285 0.00942795791 -0.0680738754
v -0.0413657471 0.00954593696 -0.0705070419
v -0.0410505553 -0.00145257436 -0.0620916767
v -0.0410733481 0.00983834304 -0.0684295244
v -0.0409852763 -0.00138729535 -0.0649855013
v -0.040925357 0.00998633422 -0.0708594103
v -0.0406122228 -0.0010142418 -0.0654689379
v -0.0407132026 -0.0011152216 -0.0625771637
v -0.0406586405 0.0102530483 -0.0687749929
v -0.0403699108 -0.000771932227 -0.0630542512
v -0.0404806849 0.0104310039 -0.0712008495
v -0.0402332588 -0.000635280235 -0.0659430928
v -0.040020785 -0.000422806365 -0.0635227938
v -0.0402397319 0.0106719593 -0.0691101665
v -0.040031869 0.0108798222 -0.0715312691
v -0.0398485013 -0.000250520332 -0.0664078231
v -0.0398167511 0.0110949329 -0.0694349546
v -0.0396659275 -6.79489204e-05 -0.0639826484
v -0.0395790406 0.0113326458 -0.0718505545
v -0.0394580694 0.000139909165 -0.0668629856
v -0.0393054505 0.000292530434 -0.0644336743
v -0.0393898293 0.0115218643 -0.0697492523
v -0.0390620776 0.000535903352 -0.0673084421
v -0.0391223427 0.0117893413 -0.0721586199
v -0.0389394637 0.000658517258 -0.0648757334
v -0.0389590903 0.0119526009 -0.070052969
v -0.0386606499 0.000937328713 -0.0677440567
v -0.0385680767 0.00102990665 -0.065308692
v -0.0386619135 0.0122497753 -0.0724553652
v -0.0385246702 0.0123870186 -0.0703460045
v -0.0382539078 0.00134407081 -0.0681696959
v -0.0381913992 0.00140657462 -0.065732419
v -0.0381978937 0.0127137951 -0.0727406998
v -0.0380867001 0.012824984 -0.070628273
v -0.0378419729 0.00175600089 -0.0685852356
v -0.0378095575 0.00178842582 -0.0661467857
v -0.0377304169 0.0131812672 -0.0730145378
v -0.0376453157 0.0132663731 -0.0708996887
v -0.0374249741 0.00217300452 -0.0689905424
v -0.0374226519 0.00217532195 -0.0665516634
v -0.0372596403 0.0136520485 -0.0732767982
v -0.0370030399 0.00259493865 -0.0693854923
v -0.0370308157 0.00256716766 -0.0669469304
v -0.037200646 0.0137110428 -0.0711601706
v -0.0367856928 0.014125996 -0.0735273952
v -0.0367528292 0.0141588596 -0.0714096375
v -0.0366341587 0.00296381988 -0.0673324652
v -0.0365762945 0.00302168884 -0.0697699709
v -0.0363087269 0.0146029571 -0.0737662621
v -0.0363020035 0.0146096806 -0.0716480131
v -0.0361448666 0.00345311202 -0.0701438589
v -0.0362328049 0.00336517371 -0.0677081509
v -0.0358268734 0.00377110519 -0.0680738754
v -0.0358288857 0.0150827984 -0.0739933176
v -0.0358483025 0.0150633816 -0.071875226
v -0.0357088944 0.00388908424 -0.0705070419
v -0.035416493 0.00418149032 -0.0684295244
v -0.0352685019 0.0043294815 -0.0708594103
v -0.0353463169 0.0155653767 -0.0742084951
v -0.0353918692 0.0155198196 -0.0720912046
v -0.0350017878 0.0045961956 -0.0687749929
v -0.0348238321 0.00477415122 -0.0712008495
v -0.0349328419 0.0159788517 -0.072295887
v -0.0348611637 0.0160505203 -0.0744117279
v -0.0345828768 0.00501509704 -0.0691101665
v -0.0343750139 0.00522296943 -0.0715312691
v -0.0344713541 0.0164403347 -0.0724892063
v -0.0343735787 0.0165381054 -0.0746029587
v -0.0341598984 0.00543808021 -0.0694349546
v -0.0340075537 0.0169041351 -0.0726711054
v -0.0339221855 0.00567579307 -0.0718505545
v -0.0338837048 0.0170279793 -0.0747821255
v -0.0337329718 0.00586500205 -0.0697492523
v -0.0335415789 0.0173701099 -0.0728415318
v -0.03346549 0.00613248863 -0.0721586199
v -0.0333022352 0.00629573859 -0.070052969
v -0.0333916994 0.0175199894 -0.0749491711
v -0.0330050608 0.00659292259 -0.0724553652
v -0.033073568 0.0178381161 -0.073000433
v -0.0328678175 0.00673016586 -0.0703460045
v -0.0328977057 0.0180139831 -0.0751040525
v -0.0325410362 0.00705694236 -0.0727406998
v -0.0326036736 0.01830802 -0.0731477566
v -0.0324298473 0.00716813125 -0.070628273
v -0.0324018713 0.0185098175 -0.0752467127
v -0.0320735642 0.00752441444 -0.0730145378
v -0.0321320292 0.0187796596 -0.0732834597
v -0.0319884583 0.00760952033 -0.0708996887
v -0.0319043585 0.0190073303 -0.0753771181
v -0.0316027828 0.00799519576 -0.0732767982
v -0.0315437933 0.00805419006 -0.0711601706
v -0.0316587826 0.0192529015 -0.0734075041
v -0.0314053103 0.0195063785 -0.0754952211
v -0.0311288401 0.00846914329 -0.0735273952
v -0.0310959765 0.00850200691 -0.0714096375
v -0.0311840769 0.0197276119 -0.0735198469
v -0.0309048792 0.0200068096 -0.0756009932
v -0.0306518742 0.00894610442 -0.0737662621
v -0.0306451508 0.00895282783 -0.0716480131
v -0.0307080551 0.0202036289 -0.0736204548
v -0.0304032179 0.0205084709 -0.0756943913
v -0.0301720329 0.00942594566 -0.0739933176
v -0.0301914497 0.00940652885 -0.071875226
v -0.0302308699 0.0206808189 -0.0737092991
v -0.0299004837 0.0210112099 -0.0757753963
v -0.0297526547 0.0211590294 -0.073786356
v -0.0296894642 0.0099085144 -0.0742084951
v -0.0297350164 0.00986296691 -0.0720912046
v -0.0292759844 0.0103219894 -0.072295887
v -0.0293968245 0.0215148643 -0.0758439846
v -0.0292735668 0.0216381267 -0.0738515921
v -0.029204311 0.0103936676 -0.0744117279
v -0.0288145014 0.010783482 -0.0724892063
v -0.0288923927 0.0220192913 -0.0759001274
v -0.0287937447 0.0221179489 -0.0739049978
v -0.0287167259 0.0108812527 -0.0746029587
v -0.028350701 0.0112472824 -0.0726711054
v -0.0283873507 0.0225243381 -0.0759438105
v -0.028313336 0.0225983528 -0.0739465542
v -0.028226852 0.0113711265 -0.0747821255
v -0.0278847214 0.0117132572 -0.0728415318
v -0.0278818413 0.0230298428 -0.0759750242
v -0.0278324886 0.0230792049 -0.0739762421
v -0.0277348467 0.0118631367 -0.0749491711
v -0.0274167152 0.0121812633 -0.073000433
v -0.0273760267 0.0235356621 -0.0759937544
v -0.0273513456 0.0235603432 -0.0739940615
v -0.0272408482 0.0123571304 -0.0751040525
v -0.0269468161 0.0126511578 -0.0731477566
v -0.0268700596 0.024041634 -0.076000001
v -0.0268700596 0.024041634 -0.0739999981
v -0.0267450186 0.0128529648 -0.0752467127
v -0.0264751764 0.0131228069 -0.0732834597
v -0.0263640877 0.0245475964 -0.0759937544
v -0.0263887688 0.0245229153 -0.0739940615
v -0.0262475058 0.0133504776 -0.0753771181
v -0.0260019299 0.0135960487 -0.0734075041
v -0.0258582731 0.0250534157 -0.0759750242
v -0.0259076305 0.025004063 -0.0739762421
v -0.0257484528 0.0138495258 -0.0754952211
v -0.0255272242 0.0140707592 -0.0735198469
v -0.0254267784 0.0254849056 -0.0739465542
v -0.0253527685 0.0255589203 -0.0759438105
v -0.0252480217 0.0143499569 -0.0756009932
v -0.0250512024 0.0145467762 -0.0736204548
v -0.0249463698 0.0259653191 -0.0739049978
v -0.0248477217 0.0260639671 -0.0759001274
v -0.0247463652 0.0148516182 -0.0756943913
v -0.0245740124 0.0150239662 -0.0737092991
v -0.0244665476 0.0264451412 -0.0738515921
v -0.0243432947 0.0265683941 -0.0758439846
v -0.0242436262 0.0153543476 -0.0757753963
v -0.0240958019 0.0155021767 -0.073786356
v -0.0239874598 0.026924229 -0.073786356
v -0.0238396355 0.0270720581 -0.0757753963
v -0.023739967 0.0158580116 -0.0758439846
v -0.0236167093 0.0159812645 -0.0738515921
v -0.0235092445 0.0274024395 -0.0737092991
v -0.0233368965 0.0275747875 -0.0756943913
v -0.02323554 0.0163624386 -0.0759001274
v -0.0231368872 0.0164610866 -0.0739049978
v -0.0230320593 0.0278796295 -0.0736204548
v -0.02283524 0.0280764488 -0.0756009932
v -0.0227304932 0.0168674854 -0.0759438105
v -0.0226564785 0.0169415001 -0.0739465542
v -0.0225560375 0.0283556465 -0.0735198469
v -0.0223348089 0.0285768799 -0.0754952211
v -0.0222249886 0.01737299 -0.0759750242
v -0.0221756311 0.0174223427 -0.0739762421
v -0.0220813318 0.028830357 -0.0734075041
v -0.0218357559 0.0290759281 -0.0753771181
v -0.021719174 0.0178788093 -0.0759937544
v -0.0216944929 0.0179034904 -0.0739940615
v -0.0216080853 0.0293035988 -0.0732834597
v -0.0213382431 0.0295734505 -0.0752467127
v -0.0212132021 0.0183847717 -0.076000001
v -0.0212132021 0.0183847717 -0.0739999981
v -0.0211364409 0.0297752479 -0.0731477566
v -0.0208424135 0.0300692753 -0.0751040525
v -0.020707235 0.0188907436 -0.0759937544
v -0.0207319161 0.0188660625 -0.0739940615
v -0.0206665464 0.0302451424 -0.073000433
v -0.0202507731 0.0193472008 -0.0739762421
v -0.020348415 0.030563269 -0.0749491711
v -0.0202014204 0.019396563 -0.0759750242
v -0.0201985355 0.0307131485 -0.0728415318
v -0.0197699257 0.0198280529 -0.0739465542
v -0.0198564097 0.0310552792 -0.0747821255
v -0.019695911 0.0199020676 -0.0759438105
v -0.0197325607 0.0311791233 -0.0726711054
v -0.019289517 0.0203084663 -0.0739049978
v -0.0193665358 0.031545153 -0.0746029587
v -0.0192687603 0.0316429237 -0.0724892063
v -0.019190869 0.0204071144 -0.0759001274
v -0.0188096949 0.0207882885 -0.0738515921
v -0.0188789507 0.0320327381 -0.0744117279
v -0.0188072773 0.0321044163 -0.072295887
v -0.0186864372 0.0209115414 -0.0758439846
v -0.018330607 0.0212673763 -0.073786356
v -0.0183937975 0.0325178913 -0.0742084951
v -0.0183482452 0.0325634388 -0.0720912046
v -0.018182778 0.0214151958 -0.0757753963
v -0.0178523918 0.0217455868 -0.0737092991
v -0.0179112288 0.03300046 -0.0739933176
v -0.0178918119 0.0330198769 -0.071875226
v -0.0176800438 0.0219179348 -0.0756943913
v -0.0173752018 0.0222227768 -0.0736204548
v -0.0174313875 0.0334803013 -0.0737662621
v -0.0174381109 0.0334735779 -0.0716480131
v -0.0171783825 0.0224195961 -0.0756009932
v -0.0168991848 0.0226987938 -0.0735198469
v -0.0169544216 0.0339572624 -0.0735273952
v -0.0169872852 0.0339243988 -0.0714096375
v -0.0166779514 0.0229200272 -0.0754952211
v -0.0165394684 0.0343722156 -0.0711601706
v -0.0164244791 0.0231735043 -0.0734075041
v -0.0164804789 0.0344312099 -0.0732767982
v -0.0161789032 0.0234190754 -0.0753771181
v -0.0160096975 0.0349019913 -0.0730145378
v -0.0160948034 0.0348168854 -0.0708996887
v -0.0159512325 0.0236467461 -0.0732834597
v -0.0156813856 0.0239165882 -0.0752467127
v -0.0155422255 0.0353694633 -0.0727406998
v -0.0156534144 0.0352582745 -0.070628273
v -0.0154795881 0.0241183952 -0.0731477566
v -0.015185556 0.0244124226 -0.0751040525
v -0.015009689 0.0245882896 -0.073000433
v -0.0152154442 0.0356962398 -0.0703460045
v -0.0150782009 0.0358334831 -0.0724553652
v -0.0147810265 0.0361306671 -0.070052969
v -0.0146915623 0.0249064163 -0.0749491711
v -0.0145416828 0.0250562958 -0.0728415318
v -0.0146177717 0.0362939171 -0.0721586199
v -0.0143502852 0.0365614036 -0.0697492523
v -0.0141995522 0.0253984264 -0.0747821255
v -0.014075708 0.0255222706 -0.0726711054
v -0.0141610762 0.0367506126 -0.0718505545
v -0.0139233633 0.0369883255 -0.0694349546
v -0.013709683 0.0258883003 -0.0746029587
v -0.0136119076 0.025986071 -0.0724892063
v -0.0137082478 0.0372034363 -0.0715312691
v -0.0135003849 0.0374113087 -0.0691101665
v -0.0132594296 0.0376522545 -0.0712008495
v -0.013222098 0.0263758854 -0.0744117279
v -0.0131504198 0.0264475635 -0.072295887
v -0.0130814739 0.0378302101 -0.0687749929
v -0.0128147598 0.0380969337 -0.0708594103
v -0.0127369448 0.0268610386 -0.0742084951
v -0.0126913925 0.0269065861 -0.0720912046
v -0.0126667687 0.0382449249 -0.0684295244
v -0.012254376 0.0273436073 -0.0739933176
v -0.0123743673 0.0385373215 -0.0705070419
v -0.0122563883 0.0386553005 -0.0680738754
v -0.0122349592 0.0273630241 -0.071875226
v -0.0117745348 0.0278234486 -0.0737662621
v -0.0117812582 0.0278167252 -0.0716480131
v -0.0119383951 0.0389732937 -0.0701438589
v -0.0118504568 0.039061232 -0.0677081509
v -0.0115069672 0.0394047169 -0.0697699709
v -0.0112975689 0.0283004097 -0.0735273952
v -0.0113304325 0.0282675461 -0.0714096375
v -0.011449103 0.0394625858 -0.0673324652
v -0.0110802218 0.039831467 -0.0693854923
v -0.011052446 0.039859238 -0.0669469304
v -0.0108826157 0.0287153629 -0.0711601706
v -0.0108236214 0.0287743572 -0.0732767982
v -0.0106582829 0.0402534012 -0.0689905424
v -0.0106606051 0.0402510837 -0.0665516634
v -0.01035284 0.0292451385 -0.0730145378
v -0.0104379459 0.0291600326 -0.0708996887
v -0.0102737042 0.0406379799 -0.0661467857
v -0.0102412888 0.0406704048 -0.0685852356
v -0.00988536797 0.0297126106 -0.0727406998
v -0.00999656163 0.0296014217 -0.070628273
v -0.00982935391 0.0410823349 -0.0681696959
v -0.00989185773 0.0410198311 -0.065732419
v -0.00955859147 0.0300393871 -0.0703460045
v -0.00951518498 0.0413965038 -0.065308692
v -0.0094213482 0.0301766304 -0.0724553652
v -0.00942261182 0.041489077 -0.0677440567
v -0.00912416898 0.0304738048 -0.070052969
v -0.00902118169 0.0418905071 -0.0673084421
v -0.00914380036 0.0417678932 -0.0648757334
v -0.00896091901 0.0306370644 -0.0721586199
v -0.00877780877 0.0421338753 -0.0644336743
v -0.00869343243 0.0309045509 -0.0697492523
v -0.00850421868 0.0310937599 -0.0718505545
v -0.00862519227 0.0422864918 -0.0668629856
v -0.00826651059 0.0313314728 -0.0694349546
v -0.00841733418 0.0424943546 -0.0639826484
v -0.00805139504 0.0315465836 -0.0715312691
v -0.008234758 0.042676926 -0.0664078231
v -0.00806247674 0.0428492073 -0.0635227938
v -0.00784352742 0.0317544464 -0.0691101665
v -0.00785000287 0.0430616859 -0.0659430928
v -0.00760257683 0.0319954018 -0.0712008495
v -0.00771335088 0.0431983379 -0.0630542512
v -0.00742462121 0.0321733574 -0.0687749929
v -0.0074710413 0.0434406475 -0.0654689379
v -0.00737005673 0.0435416321 -0.0625771637
v -0.00715790234 0.0324400715 -0.0708594103
v -0.00700991593 0.0325880627 -0.0684295244
v -0.00709798775 0.0438137058 -0.0649855013
v -0.00703270398 0.0438789848 -0.0620916767
v -0.00671751462 0.0328804687 -0.0705070419
v -0.0065995308 0.0329984478 -0.0680738754
v -0.00673095189 0.0441807369 -0.0644929309
v -0.00670139752 0.0442102913 -0.0615979357
v -0.00628153764 0.033316441 -0.0701438589
v -0.00637005769 0.0445416264 -0.0639913769
v -0.00637623273 0.0445354561 -0.0610960932
v -0.00619360409 0.0334043793 -0.0677081509
v -0.00601540528 0.0448962788 -0.0634809942
v -0.00605730973 0.0448543838 -0.0605863018
v -0.00585011445 0.0337478641 -0.0697699709
v -0.00579225026 0.0338057331 -0.0673324652
v -0.00566710435 0.0452445797 -0.0629619331
v -0.0057447239 0.0451669601 -0.0600687165
v -0.00542336903 0.0341746143 -0.0693854923
v -0.00539559327 0.0342023853 -0.0669469304
v -0.00543857537 0.0454731087 -0.0595434947
v -0.00532526456 0.0455864242 -0.0624343557
v -0.00500143014 0.0345965485 -0.0689905424
v -0.00500375233 0.034594231 -0.0665516634
v -0.00513895474 0.0457727341 -0.0590107985
v -0.00498998605 0.045921698 -0.0618984194
v -0.00484595261 0.0460657314 -0.0584707851
v -0.00461685143 0.0349811272 -0.0661467857
v -0.00458443127 0.0350135521 -0.0685852356
v -0.00466137372 0.0462503151 -0.061354291
v -0.00455966435 0.0463520245 -0.057923624
v -0.00433952771 0.0465721611 -0.060802135
v -0.00428016625 0.0466315178 -0.057369482
v -0.00417250119 0.0354254822 -0.0681696959
v -0.004235005 0.0353629784 -0.065732419
v -0.00402453862 0.0468871502 -0.0602421207
v -0.00400755368 0.0469041351 -0.0568085237
v -0.00385833226 0.0357396511 -0.065308692
v -0.00376575433 0.0358322243 -0.0677440567
v -0.00371651135 0.0471951775 -0.0596744151
v -0.00374190293 0.0471697906 -0.0562409229
v -0.00336432896 0.0362336544 -0.0673084421
v -0.00348694287 0.0361110405 -0.0648757334
v -0.00341554127 0.0474961475 -0.0590991945
v -0.00348329507 0.047428389 -0.0556668515
v -0.00312095605 0.0364770225 -0.0644336743
v -0.00323181592 0.0476798729 -0.0550864859
v -0.00312170945 0.0477899746 -0.058516633
v -0.00296833955 0.036629639 -0.0668629856
v -0.00276047669 0.0368375019 -0.0639826484
v -0.00298753224 0.0479241566 -0.0545
v -0.00283511601 0.0480765728 -0.0579269094
v -0.0027505251 0.0481611637 -0.0539075751
v -0.00257790528 0.0370200733 -0.0664078231
v -0.00255584202 0.0483558468 -0.0573302002
v -0.00252086602 0.048390818 -0.0533093901
v -0.00240562402 0.0371923546 -0.0635227938
v -0.00228397332 0.0486277107 -0.0567266889
v -0.00229862653 0.0486130623 -0.0527056284
v -0.00219315015 0.0374048332 -0.0659430928
v -0.00205649338 0.0375414852 -0.0630542512
v -0.00201959573 0.0488920883 -0.0561165614
v -0.00208386861 0.0488278202 -0.0520964737
v -0.00181418381 0.0377837948 -0.0654689379
v -0.00176278554 0.0491489033 -0.055499999
v -0.00187665902 0.049035025 -0.0514821119
v -0.00171320401 0.0378847794 -0.0625771637
v -0.00167706452 0.0492346195 -0.0508627291
v -0.00151362859 0.0493980602 -0.0548771949
v -0.00144113026 0.0381568531 -0.0649855013
v -0.00137585126 0.0382221321 -0.0620916767
v -0.00148514233 0.0494265465 -0.0502385135
v -0.00127219163 0.0496395019 -0.0542483349
v -0.00130095444 0.0496107296 -0.0496096582
v -0.00107409917 0.0385238842 -0.0644929309
v -0.00104454003 0.0385534386 -0.0615979357
v -0.00103855096 0.0498731331 -0.0536136098
v -0.00112455807 0.0497871307 -0.0489763494
v -0.000956000907 0.0499556927 -0.0483387847
v -0.000812778098 0.0500989059 -0.0529732175
v -0.000795335395 0.0501163486 -0.0476971574
v -0.000713204963 0.0388847736 -0.0639913769
v -0.000719375236 0.0388786034 -0.0610960932
v -0.000594944579 0.0503167442 -0.0523273487
v -0.00064261399 0.05026907 -0.0470516629
v -0.000358552558 0.039239426 -0.0634809942
v -0.000400452239 0.0391975311 -0.0605863018
v -0.000497884376 0.0504137997 -0.0464024968
v -0.000385117156 0.0505265716 -0.0516762013
v -0.000361184699 0.0505504993 -0.0457498569
v -1.02516243e-05 0.039587727 -0.0629619331
v -8.78711769e-05 0.0395101074 -0.0600687165
v -0.000183353049 0.050728331 -0.0510199757
v -0.000232562644 0.0506791214 -0.0450939424
v -0.000112051589 0.0507996372 -0.0444349535
v 0.000218277352 0.0398162559 -0.0595434947
v 1.02809837e-05 0.050921965 -0.0503588696
v 3.05550385e-07 0.0509119896 -0.0437730916
v 0.000195727723 0.0511074165 -0.0496930857
v 0.000104480164 0.051016169 -0.0431085558
v 0.000200438874 0.0511121277 -0.0424415512
v 0.000331588166 0.0399295715 -0.0624343557
v 0.000288148301 0.0511998371 -0.0417722793
v 0.000372925179 0.0512846188 -0.0490228267
v 0.000367584603 0.0512792782 -0.0411009438
v 0.000438728707 0.0513504127 -0.0404277511
v 0.00051789798 0.0401158813 -0.0590107985
v 0.000666866677 0.0402648453 -0.0618984194
v 0.000541830437 0.0514535145 -0.0483482952
v 0.000501552003 0.0514132408 -0.0397529049
v 0.000556035416 0.0514677242 -0.0390766103
v 0.000702381509 0.0516140655 -0.0476696963
v 0.000602169411 0.0515138534 -0.0383990736
v 0.000639930146 0.051551619 -0.0377205021
v 0.000669312852 0.0515810017 -0.0370411022
v 0.000690307992 0.051601992 -0.0363610805
v 0.00070290603 0.0516145996 -0.035680644
v 0.000707106965 0.0516187958 -0.0350000001
v 0.000810900109 0.0404088787 -0.0584707851
v 0.000995479005 0.0405934624 -0.061354291
v 0.000854535477 0.0517662243 -0.0469872398
v 0.00099824466 0.0519099335 -0.046301132
v 0.00109719314 0.0406951717 -0.057923624
v 0.00113346137 0.0520451549 -0.0456115813
v 0.00131732978 0.0409153084 -0.060802135
v 0.00137668647 0.0409746651 -0.057369482
v 0.00126015701 0.052171841 -0.0449187977
v 0.00137826957 0.0522899631 -0.0442229934
v 0.00148778953 0.0523994736 -0.0435243793
v 0.00163231887 0.0412302975 -0.0602421207
v 0.00164930381 0.0412472824 -0.0568085237
v 0.0015886692 0.0525003532 -0.0428231688
v 0.00168087997 0.052592564 -0.0421195753
v 0.0019403366 0.0415383247 -0.0596744151
v 0.00191494979 0.0415129284 -0.0562409229
v 0.00176438369 0.0526760773 -0.0414138134
v 0.00183918037 0.0527508644 -0.0407060976
v 0.00190522231 0.0528169159 -0.0399966426
v 0.00196249999 0.0528741936 -0.0392856665
v 0.00224131622 0.0418392948 -0.0590991945
v 0.00217355766 0.0417715362 -0.0556668515
v 0.00201100387 0.0529226879 -0.038573385
v 0.00205069579 0.0529623894 -0.0378600152
v 0.00208158531 0.0529932789 -0.0371457739
v 0.00210366287 0.0530153469 -0.0364308794
v 0.0021169094 0.0530285934 -0.0357155485
v 0.00212132491 0.053033009 -0.0350000001
v 0.00242504157 0.0420230202 -0.0550864859
v 0.00253514327 0.0421331219 -0.058516633
v 0.00266932525 0.0422673038 -0.0545
v 0.00282174148 0.0424197201 -0.0579269094
v 0.00290633239 0.042504311 -0.0539075751
v 0.00310101547 0.0426989941 -0.0573302002
v 0.0031359867 0.0427339653 -0.0533093901
v 0.0033728794 0.042970858 -0.0567266889
v 0.00335823097 0.0429562096 -0.0527056284
v 0.003637257 0.0432352356 -0.0561165614
v 0.00357298888 0.0431709675 -0.0520964737
v 0.00389406242 0.0434920505 -0.055499999
v 0.0037801937 0.0433781723 -0.0514821119
v 0.0039797882 0.0435777668 -0.0508627291
v 0.00414322891 0.0437412075 -0.0548771949
v 0.00417170562 0.0437696937 -0.0502385135
v 0.0043846611 0.0439826397 -0.0542483349
v 0.00435589828 0.0439538769 -0.0496096582
v 0.00461830177 0.0442162804 -0.0536136098
v 0.00453229942 0.044130278 -0.0489763494
v 0.00470085182 0.0442988304 -0.0483387847
v 0.00484407462 0.0444420532 -0.0529732175
v 0.00486151733 0.0444594959 -0.0476971574
v 0.00506191291 0.0446598915 -0.0523273487
v 0.00501423873 0.0446122173 -0.0470516629
v 0.00515896835 0.0447569469 -0.0464024968
v 0.00527174033 0.0448697189 -0.0516762013
v 0.00529566802 0.0448936466 -0.0457498569
v 0.00547349967 0.0450714783 -0.0510199757
v 0.00542429008 0.0450222687 -0.0450939424
v 0.0055448059 0.0451427845 -0.0444349535
v 0.00566713371 0.0452651123 -0.0503588696
v 0.00565715827 0.0452551369 -0.0437730916
v 0.00585257568 0.0454505638 -0.0496930857
v 0.00576133765 0.0453593162 -0.0431085558
v 0.00585728683 0.045455275 -0.0424415512
v 0.00594500579 0.0455429844 -0.0417722793
v 0.0060297779 0.0456277565 -0.0490228267
v 0.00602443733 0.0456224159 -0.0411009438
v 0.00609558143 0.04569356 -0.0404277511
v 0.00619868316 0.0457966618 -0.0483482952
v 0.00615840949 0.0457563881 -0.0397529049
v 0.00621289291 0.0458108715 -0.0390766103
v 0.00635923423 0.0459572128 -0.0476696963
v 0.00625902213 0.0458570007 -0.0383990736
v 0.00629678764 0.0458947662 -0.0377205021
v 0.00632617034 0.0459241489 -0.0370411022
v 0.00634716071 0.0459451393 -0.0363610805
v 0.00635975875 0.0459577373 -0.035680644
v 0.00636396446 0.045961943 -0.0350000001
v 0.00651139297 0.0461093716 -0.0469872398
v 0.00665510215 0.0462530807 -0.046301132
v 0.0067903141 0.0463882927 -0.0456115813
v 0.00691700973 0.0465149883 -0.0449187977
v 0.00703513183 0.0466331104 -0.0442229934
v 0.00714464225 0.0467426208 -0.0435243793
v 0.00724552192 0.0468435005 -0.0428231688
v 0.00733773269 0.0469357113 -0.0421195753
v 0.00742124595 0.0470192245 -0.0414138134
v 0.00749603309 0.0470940117 -0.0407060976
v 0.00756207504 0.0471600536 -0.0399966426
v 0.00761935272 0.0472173408 -0.0392856665
v 0.00766785659 0.0472658352 -0.038573385
v 0.00770754852 0.0473055366 -0.0378600152
v 0.00773844756 0.0473364262 -0.0371457739
v 0.00776051559 0.0473584942 -0.0364308794
v 0.00777376212 0.0473717407 -0.0357155485
v 0.00777817764 0.0473761562 -0.0350000001
f 25 1 2
f 1 77 2
f 24 7 1
f 7 76 1
f 24 1 25
f 1 76 77
f 26 2 3
f 2 71 3
f 25 2 26
f 2 77 71
f 27 3 4
f 3 72 4
f 26 3 27
f 3 71 72
f 20 4 5
f 4 73 5
f 27 4 20
f 4 72 73
f 21 5 6
f 5 74 6
f 20 5 21
f 5 73 74
f 21 6 22
f 6 101 22
f 6 74 75
f 75 101 6
f 29 10 7
f 10 80 7
f 29 7 24
f 7 80 76
f 32 8 9
f 8 82 9
f 31 11 8
f 11 81 8
f 31 8 32
f 8 81 82
f 28 9 10
f 9 79 10
f 32 9 28
f 9 82 79
f 28 10 29
f 10 79 80
f 34 12 11
f 12 84 11
f 34 11 31
f 11 84 81
f 36 13 12
f 13 85 12
f 36 12 34
f 12 85 84
f 37 15 13
f 15 88 13
f 37 13 36
f 13 88 85
f 40 14 15
f 14 89 15
f 39 16 14
f 16 92 14
f 39 14 40
f 14 92 89
f 40 15 37
f 15 89 88
f 42 17 16
f 17 93 16
f 42 16 39
f 16 93 92
f 43 18 17
f 18 96 17
f 43 17 42
f 17 96 93
f 45 19 18
f 19 97 18
f 45 18 43
f 18 97 96
f 47 23 19
f 23 104 19
f 47 19 45
f 19 104 97
f 100 20 21
f 99 27 20
f 99 20 100
f 101 21 22
f 100 21 101
f 48 30 23
f 30 111 23
f 48 23 47
f 23 111 104
f 106 24 25
f 105 29 24
f 105 24 106
f 107 25 26
f 106 25 107
f 98 26 27
f 107 26 98
f 98 27 99
f 109 28 29
f 108 32 28
f 108 28 109
f 109 29 105
f 50 33 30
f 33 114 30
f 50 30 48
f 30 114 111
f 113 31 32
f 112 34 31
f 112 31 113
f 113 32 108
f 52 35 33
f 35 119 33
f 52 33 50
f 33 119 114
f 115 36 34
f 115 34 112
f 53 38 35
f 38 122 35
f 53 35 52
f 35 122 119
f 118 37 36
f 118 36 115
f 120 40 37
f 120 37 118
f 55 41 38
f 41 126 38
f 55 38 53
f 38 126 122
f 124 39 40
f 123 42 39
f 123 39 124
f 124 40 120
f 57 44 41
f 44 131 41
f 57 41 55
f 41 131 126
f 127 43 42
f 127 42 123
f 128 45 43
f 128 43 127
f 59 46 44
f 46 133 44
f 59 44 57
f 44 133 131
f 132 47 45
f 132 45 128
f 63 49 46
f 49 138 46
f 61 46 59
f 63 46 61
f 46 138 133
f 134 48 47
f 134 47 132
f 137 50 48
f 137 48 134
f 64 51 49
f 51 142 49
f 64 49 63
f 49 142 138
f 141 52 50
f 141 50 137
f 66 54 51
f 54 145 51
f 66 51 64
f 51 145 142
f 143 53 52
f 143 52 141
f 144 55 53
f 144 53 143
f 68 56 54
f 56 149 54
f 68 54 66
f 54 149 145
f 148 57 55
f 148 55 144
f 70 58 56
f 58 153 56
f 70 56 68
f 56 153 149
f 152 59 57
f 152 57 148
f 83 60 58
f 60 156 58
f 83 58 70
f 58 156 153
f 155 61 59
f 155 59 152
f 87 62 60
f 62 159 60
f 87 60 83
f 60 159 156
f 157 63 61
f 157 61 155
f 90 65 62
f 65 165 62
f 90 62 87
f 62 165 159
f 160 64 63
f 160 63 157
f 163 66 64
f 163 64 160
f 94 67 65
f 67 168 65
f 94 65 90
f 65 168 165
f 166 68 66
f 166 66 163
f 103 69 67
f 69 171 67
f 103 67 94
f 67 171 168
f 169 70 68
f 169 68 166
f 110 78 69
f 78 175 69
f 110 69 103
f 69 175 171
f 172 83 70
f 172 70 169
f 71 107 72
f 77 106 71
f 71 106 107
f 72 98 73
f 72 107 98
f 73 99 74
f 73 98 99
f 74 100 75
f 74 99 100
f 75 100 101
f 76 105 77
f 80 109 76
f 76 109 105
f 77 105 106
f 117 86 78
f 86 178 78
f 117 78 110
f 78 178 175
f 79 108 80
f 82 113 79
f 79 113 108
f 80 108 109
f 81 112 82
f 84 115 81
f 81 115 112
f 82 112 113
f 176 87 83
f 176 83 172
f 85 118 84
f 84 118 115
f 88 120 85
f 85 120 118
f 125 91 86
f 91 184 86
f 125 86 117
f 86 184 178
f 179 90 87
f 179 87 176
f 89 124 88
f 88 124 120
f 92 123 89
f 89 123 124
f 181 94 90
f 181 90 179
f 130 95 91
f 95 186 91
f 130 91 125
f 91 186 184
f 93 127 92
f 92 127 123
f 96 128 93
f 93 128 127
f 185 103 94
f 185 94 181
f 136 102 95
f 102 190 95
f 136 95 130
f 95 190 186
f 97 132 96
f 96 132 128
f 104 134 97
f 97 134 132
f 140 116 102
f 116 194 102
f 140 102 136
f 102 194 190
f 189 110 103
f 189 103 185
f 111 137 104
f 104 137 134
f 193 117 110
f 193 110 189
f 114 141 111
f 111 141 137
f 119 143 114
f 114 143 141
f 146 121 116
f 121 198 116
f 146 116 140
f 116 198 194
f 195 125 117
f 195 117 193
f 122 144 119
f 119 144 143
f 151 129 121
f 129 201 121
f 151 121 146
f 121 201 198
f 126 148 122
f 122 148 144
f 199 130 125
f 199 125 195
f 131 152 126
f 126 152 148
f 154 135 129
f 135 206 129
f 154 129 151
f 129 206 201
f 202 136 130
f 202 130 199
f 133 155 131
f 131 155 152
f 138 160 133
f 133 157 155
f 133 160 157
f 161 139 135
f 139 208 135
f 161 135 154
f 135 208 206
f 207 140 136
f 207 136 202
f 142 163 138
f 138 163 160
f 164 147 139
f 147 214 139
f 164 139 161
f 139 214 208
f 209 146 140
f 209 140 207
f 145 166 142
f 142 166 163
f 149 169 145
f 145 169 166
f 212 151 146
f 212 146 209
f 170 150 147
f 150 216 147
f 170 147 164
f 147 216 214
f 153 172 149
f 149 172 169
f 174 158 150
f 158 221 150
f 174 150 170
f 150 221 216
f 217 154 151
f 217 151 212
f 156 176 153
f 153 176 172
f 219 161 154
f 219 154 217
f 159 179 156
f 156 179 176
f 180 162 158
f 162 225 158
f 180 158 174
f 158 225 221
f 165 181 159
f 159 181 179
f 222 164 161
f 222 161 219
f 183 167 162
f 167 229 162
f 183 162 180
f 162 229 225
f 227 170 164
f 227 164 222
f 168 185 165
f 165 185 181
f 188 173 167
f 173 232 167
f 188 167 183
f 167 232 229
f 171 189 168
f 168 189 185
f 230 174 170
f 230 170 227
f 175 193 171
f 171 193 189
f 192 177 173
f 177 236 173
f 192 173 188
f 173 236 232
f 234 180 174
f 234 174 230
f 178 195 175
f 175 195 193
f 200 182 177
f 182 240 177
f 196 177 192
f 200 177 196
f 177 240 236
f 184 199 178
f 178 199 195
f 237 183 180
f 237 180 234
f 205 187 182
f 187 244 182
f 205 182 200
f 182 244 240
f 241 188 183
f 241 183 237
f 186 202 184
f 184 202 199
f 190 207 186
f 186 207 202
f 210 191 187
f 191 248 187
f 210 187 205
f 187 248 244
f 245 192 188
f 245 188 241
f 194 209 190
f 190 209 207
f 213 197 191
f 197 251 191
f 213 191 210
f 191 251 248
f 249 196 192
f 249 192 245
f 198 212 194
f 194 212 209
f 252 200 196
f 252 196 249
f 218 203 197
f 203 257 197
f 218 197 213
f 197 257 251
f 201 217 198
f 198 217 212
f 256 205 200
f 256 200 252
f 206 219 201
f 201 219 217
f 223 204 203
f 204 260 203
f 223 203 218
f 203 260 257
f 226 211 204
f 211 265 204
f 226 204 223
f 204 265 260
f 261 210 205
f 261 205 256
f 208 222 206
f 206 222 219
f 214 227 208
f 208 227 222
f 262 213 210
f 262 210 261
f 231 215 211
f 215 267 211
f 231 211 226
f 211 267 265
f 266 218 213
f 266 213 262
f 216 230 214
f 214 230 227
f 235 220 215
f 220 271 215
f 235 215 231
f 215 271 267
f 221 234 216
f 216 234 230
f 270 223 218
f 270 218 266
f 239 224 220
f 224 275 220
f 239 220 235
f 220 275 271
f 225 237 221
f 221 237 234
f 274 226 223
f 274 223 270
f 243 228 224
f 228 280 224
f 243 224 239
f 224 280 275
f 229 241 225
f 225 241 237
f 278 231 226
f 278 226 274
f 247 233 228
f 233 284 228
f 247 228 243
f 228 284 280
f 232 245 229
f 229 245 241
f 282 235 231
f 282 231 278
f 236 249 232
f 232 249 245
f 253 238 233
f 238 287 233
f 253 233 247
f 233 287 284
f 285 239 235
f 285 235 282
f 240 256 236
f 236 252 249
f 236 256 252
f 255 242 238
f 242 291 238
f 255 238 253
f 238 291 287
f 289 243 239
f 289 239 285
f 244 261 240
f 240 261 256
f 259 246 242
f 246 295 242
f 259 242 255
f 242 295 291
f 293 247 243
f 293 243 289
f 248 262 244
f 244 262 261
f 264 250 246
f 250 299 246
f 264 246 259
f 246 299 295
f 297 253 247
f 297 247 293
f 251 266 248
f 248 266 262
f 269 254 250
f 254 303 250
f 269 250 264
f 250 303 299
f 257 270 251
f 251 270 266
f 300 255 253
f 300 253 297
f 269 258 254
f 258 307 254
f 254 307 303
f 304 259 255
f 304 255 300
f 260 274 257
f 257 274 270
f 272 263 258
f 263 311 258
f 272 258 269
f 258 311 307
f 308 264 259
f 308 259 304
f 265 278 260
f 260 278 274
f 276 268 263
f 268 316 263
f 276 263 272
f 263 316 311
f 312 269 264
f 312 264 308
f 267 282 265
f 265 282 278
f 271 285 267
f 267 285 282
f 279 273 268
f 273 321 268
f 279 268 276
f 268 321 316
f 317 272 269
f 317 269 312
f 275 289 271
f 271 289 285
f 318 276 272
f 318 272 317
f 283 277 273
f 277 325 273
f 283 273 279
f 273 325 321
f 280 293 275
f 275 293 289
f 322 279 276
f 322 276 318
f 288 281 277
f 281 329 277
f 288 277 283
f 277 329 325
f 326 283 279
f 326 279 322
f 284 297 280
f 280 297 293
f 292 286 281
f 286 333 281
f 292 281 288
f 281 333 329
f 330 288 283
f 330 283 326
f 287 300 284
f 284 300 297
f 296 290 286
f 290 337 286
f 296 286 292
f 286 337 333
f 291 304 287
f 287 304 300
f 334 292 288
f 334 288 330
f 301 294 290
f 294 341 290
f 301 290 296
f 290 341 337
f 295 308 291
f 291 308 304
f 338 296 292
f 338 292 334
f 305 298 294
f 298 345 294
f 305 294 301
f 294 345 341
f 299 312 295
f 295 312 308
f 342 301 296
f 342 296 338
f 309 302 298
f 302 349 298
f 309 298 305
f 298 349 345
f 303 317 299
f 299 317 312
f 346 305 301
f 346 301 342
f 313 306 302
f 306 353 302
f 313 302 309
f 302 353 349
f 307 317 303
f 350 309 305
f 350 305 346
f 313 310 306
f 310 357 306
f 306 357 353
f 311 318 307
f 307 318 317
f 354 313 309
f 354 309 350
f 315 310 313
f 315 314 310
f 314 361 310
f 310 361 357
f 316 322 311
f 311 322 318
f 358 315 313
f 358 313 354
f 320 314 315
f 320 319 314
f 319 365 314
f 314 365 361
f 362 320 315
f 362 315 358
f 321 326 316
f 316 326 322
f 324 319 320
f 324 323 319
f 323 369 319
f 319 369 365
f 366 324 320
f 366 320 362
f 325 330 321
f 321 330 326
f 328 323 324
f 328 327 323
f 327 373 323
f 323 373 369
f 370 328 324
f 370 324 366
f 329 334 325
f 325 334 330
f 332 327 328
f 332 331 327
f 331 377 327
f 327 377 373
f 374 332 328
f 374 328 370
f 333 338 329
f 329 338 334
f 336 331 332
f 336 335 331
f 335 381 331
f 331 381 377
f 378 336 332
f 378 332 374
f 337 342 333
f 333 342 338
f 340 335 336
f 340 339 335
f 339 385 335
f 335 385 381
f 382 340 336
f 382 336 378
f 341 346 337
f 337 346 342
f 340 343 339
f 343 389 339
f 339 389 385
f 344 343 340
f 386 344 340
f 386 340 382
f 345 350 341
f 341 350 346
f 344 347 343
f 347 394 343
f 343 394 389
f 348 347 344
f 390 348 344
f 390 344 386
f 349 354 345
f 345 354 350
f 348 352 347
f 352 398 347
f 347 398 394
f 351 352 348
f 392 351 348
f 392 348 390
f 353 358 349
f 349 358 354
f 351 356 352
f 355 356 351
f 396 355 351
f 396 351 392
f 356 403 352
f 352 403 398
f 357 358 353
f 355 360 356
f 359 360 355
f 400 359 355
f 400 355 396
f 360 407 356
f 356 407 403
f 357 362 358
f 361 362 357
f 359 364 360
f 363 364 359
f 404 363 359
f 404 359 400
f 364 411 360
f 360 411 407
f 361 366 362
f 365 366 361
f 363 368 364
f 367 368 363
f 408 367 363
f 408 363 404
f 368 415 364
f 364 415 411
f 365 370 366
f 369 370 365
f 367 372 368
f 371 376 367
f 412 371 367
f 367 376 372
f 412 367 408
f 372 419 368
f 368 419 415
f 369 374 370
f 373 374 369
f 375 380 371
f 416 375 371
f 371 380 376
f 416 371 412
f 376 423 372
f 372 423 419
f 373 378 374
f 377 378 373
f 379 384 375
f 420 379 375
f 375 384 380
f 420 375 416
f 380 427 376
f 376 427 423
f 377 382 378
f 381 382 377
f 383 388 379
f 425 383 379
f 379 388 384
f 425 379 420
f 384 431 380
f 380 431 427
f 381 386 382
f 385 386 381
f 387 393 383
f 430 387 383
f 383 393 388
f 430 383 425
f 388 435 384
f 384 435 431
f 389 386 385
f 389 390 386
f 391 397 387
f 434 391 387
f 387 397 393
f 434 387 430
f 393 440 388
f 388 440 435
f 394 390 389
f 394 392 390
f 395 401 391
f 436 395 391
f 391 401 397
f 436 391 434
f 398 392 394
f 398 396 392
f 397 444 393
f 393 444 440
f 399 405 395
f 441 399 395
f 395 405 401
f 441 395 436
f 403 396 398
f 403 400 396
f 401 448 397
f 397 448 444
f 402 409 399
f 445 402 399
f 399 409 405
f 445 399 441
f 407 400 403
f 407 404 400
f 405 453 401
f 401 453 448
f 406 413 402
f 449 406 402
f 402 413 409
f 449 402 445
f 411 404 407
f 411 408 404
f 409 457 405
f 405 457 453
f 410 417 406
f 454 410 406
f 406 417 413
f 454 406 449
f 415 408 411
f 415 412 408
f 413 460 409
f 409 460 457
f 414 426 410
f 458 414 410
f 410 421 417
f 410 426 421
f 458 410 454
f 419 412 415
f 423 416 412
f 423 412 419
f 417 464 413
f 413 464 460
f 418 428 414
f 463 418 414
f 414 428 426
f 463 414 458
f 427 420 416
f 427 416 423
f 421 469 417
f 417 469 464
f 422 432 418
f 465 422 418
f 418 432 428
f 465 418 463
f 431 425 420
f 431 420 427
f 426 475 421
f 421 475 469
f 424 438 422
f 470 424 422
f 422 438 432
f 470 422 465
f 429 442 424
f 474 429 424
f 424 442 438
f 474 424 470
f 435 430 425
f 435 425 431
f 428 478 426
f 426 478 475
f 432 482 428
f 428 482 478
f 433 446 429
f 479 433 429
f 429 446 442
f 479 429 474
f 440 434 430
f 440 430 435
f 438 488 432
f 432 488 482
f 437 450 433
f 483 437 433
f 433 450 446
f 483 433 479
f 444 436 434
f 444 434 440
f 448 441 436
f 448 436 444
f 439 452 437
f 486 439 437
f 437 452 450
f 486 437 483
f 442 493 438
f 438 493 488
f 443 456 439
f 490 443 439
f 439 456 452
f 490 439 486
f 453 445 441
f 453 441 448
f 446 496 442
f 442 496 493
f 447 461 443
f 495 447 443
f 443 461 456
f 495 443 490
f 457 449 445
f 457 445 453
f 450 500 446
f 446 500 496
f 451 466 447
f 498 451 447
f 447 466 461
f 498 447 495
f 460 454 449
f 460 449 457
f 452 505 450
f 450 505 500
f 455 468 451
f 503 455 451
f 451 468 466
f 503 451 498
f 456 510 452
f 452 510 505
f 464 458 454
f 464 454 460
f 459 472 455
f 507 459 455
f 455 472 468
f 507 455 503
f 461 514 456
f 456 514 510
f 475 463 458
f 469 458 464
f 475 458 469
f 462 476 459
f 511 462 459
f 459 476 472
f 511 459 507
f 466 518 461
f 461 518 514
f 467 481 462
f 515 467 462
f 462 481 476
f 515 462 511
f 478 465 463
f 478 463 475
f 482 470 465
f 482 465 478
f 468 524 466
f 466 524 518
f 471 484 467
f 521 471 467
f 467 484 481
f 521 467 515
f 472 528 468
f 468 528 524
f 488 474 470
f 488 470 482
f 473 489 471
f 525 473 471
f 471 489 484
f 525 471 521
f 476 532 472
f 472 532 528
f 477 489 473
f 529 477 473
f 529 473 525
f 493 479 474
f 493 474 488
f 481 538 476
f 476 538 532
f 480 491 477
f 533 480 477
f 477 491 489
f 533 477 529
f 496 483 479
f 496 479 493
f 485 497 480
f 537 485 480
f 480 497 491
f 537 480 533
f 484 543 481
f 481 543 538
f 500 486 483
f 500 483 496
f 489 548 484
f 484 548 543
f 487 501 485
f 544 487 485
f 485 501 497
f 544 485 537
f 505 490 486
f 505 486 500
f 492 504 487
f 547 492 487
f 487 504 501
f 547 487 544
f 491 551 489
f 489 551 548
f 510 495 490
f 510 490 505
f 497 558 491
f 491 558 551
f 494 508 492
f 552 494 492
f 492 508 504
f 552 492 547
f 499 512 494
f 555 499 494
f 494 512 508
f 555 494 552
f 514 498 495
f 514 495 510
f 501 563 497
f 497 563 558
f 518 503 498
f 518 498 514
f 502 516 499
f 559 502 499
f 499 516 512
f 559 499 555
f 504 569 501
f 501 569 563
f 506 519 502
f 566 506 502
f 502 519 516
f 566 502 559
f 524 507 503
f 524 503 518
f 508 573 504
f 504 573 569
f 509 522 506
f 570 509 506
f 506 522 519
f 570 506 566
f 528 511 507
f 528 507 524
f 512 579 508
f 508 579 573
f 513 526 509
f 576 513 509
f 509 526 522
f 576 509 570
f 532 515 511
f 532 511 528
f 516 584 512
f 512 584 579
f 517 531 513
f 580 517 513
f 513 531 526
f 580 513 576
f 538 521 515
f 538 515 532
f 519 591 516
f 516 591 584
f 520 535 517
f 585 520 517
f 517 535 531
f 585 517 580
f 522 595 519
f 519 595 591
f 523 539 520
f 592 523 520
f 520 539 535
f 592 520 585
f 543 525 521
f 543 521 538
f 526 600 522
f 522 600 595
f 527 541 523
f 596 527 523
f 523 541 539
f 596 523 592
f 548 529 525
f 548 525 543
f 531 611 526
f 526 611 600
f 530 545 527
f 601 530 527
f 527 545 541
f 601 527 596
f 548 533 529
f 534 549 530
f 605 534 530
f 530 549 545
f 605 530 601
f 535 617 531
f 531 617 611
f 551 537 533
f 551 533 548
f 536 553 534
f 616 536 534
f 534 553 549
f 616 534 605
f 539 629 535
f 535 629 617
f 540 557 536
f 628 540 536
f 536 557 553
f 628 536 616
f 558 544 537
f 558 537 551
f 541 634 539
f 539 634 629
f 542 561 540
f 632 542 540
f 540 561 557
f 632 540 628
f 545 639 541
f 541 639 634
f 546 564 542
f 635 546 542
f 542 564 561
f 635 542 632
f 563 547 544
f 563 544 558
f 549 643 545
f 545 643 639
f 550 567 546
f 640 550 546
f 546 567 564
f 640 546 635
f 569 552 547
f 569 547 563
f 553 649 549
f 549 649 643
f 554 571 550
f 644 554 550
f 550 571 567
f 644 550 640
f 573 555 552
f 573 552 569
f 557 658 553
f 553 658 649
f 556 574 554
f 650 556 554
f 554 574 571
f 650 554 644
f 579 559 555
f 579 555 573
f 560 578 556
f 657 560 556
f 556 578 574
f 657 556 650
f 561 660 557
f 557 660 658
f 584 566 559
f 584 559 579
f 562 582 560
f 659 562 560
f 560 582 578
f 659 560 657
f 564 662 561
f 561 662 660
f 565 586 562
f 661 565 562
f 562 586 582
f 661 562 659
f 567 664 564
f 564 664 662
f 568 589 565
f 663 568 565
f 565 589 586
f 663 565 661
f 591 570 566
f 591 566 584
f 571 666 567
f 567 666 664
f 572 589 568
f 665 572 568
f 665 568 663
f 595 576 570
f 595 570 591
f 574 668 571
f 571 668 666
f 575 593 572
f 667 575 572
f 572 593 589
f 667 572 665
f 578 671 574
f 574 671 668
f 577 598 575
f 669 577 575
f 575 598 593
f 669 575 667
f 600 580 576
f 600 576 595
f 581 602 577
f 670 581 577
f 577 602 598
f 670 577 669
f 582 673 578
f 578 673 671
f 611 585 580
f 611 580 600
f 583 606 581
f 672 583 581
f 581 606 602
f 672 581 670
f 586 675 582
f 582 675 673
f 587 608 583
f 674 587 583
f 583 608 606
f 674 583 672
f 617 592 585
f 617 585 611
f 589 678 586
f 586 678 675
f 588 613 587
f 676 588 587
f 587 613 608
f 676 587 674
f 590 618 588
f 677 590 588
f 588 618 613
f 677 588 676
f 593 680 589
f 589 680 678
f 594 621 590
f 679 594 590
f 590 621 618
f 679 590 677
f 629 596 592
f 629 592 617
f 598 683 593
f 593 683 680
f 597 630 594
f 681 597 594
f 594 630 621
f 681 594 679
f 634 601 596
f 634 596 629
f 599 631 597
f 682 599 597
f 597 631 630
f 682 597 681
f 602 685 598
f 598 685 683
f 603 633 599
f 684 603 599
f 599 633 631
f 684 599 682
f 639 605 601
f 639 601 634
f 606 688 602
f 602 688 685
f 604 636 603
f 686 604 603
f 603 636 633
f 686 603 684
f 607 637 604
f 687 607 604
f 604 637 636
f 687 604 686
f 643 616 605
f 643 605 639
f 608 690 606
f 606 690 688
f 609 638 607
f 689 609 607
f 607 638 637
f 689 607 687
f 613 694 608
f 608 694 690
f 610 641 609
f 691 610 609
f 609 641 638
f 691 609 689
f 612 642 610
f 692 612 610
f 610 642 641
f 692 610 691
f 614 645 612
f 693 614 612
f 612 645 642
f 693 612 692
f 618 697 613
f 613 697 694
f 615 646 614
f 695 615 614
f 614 646 645
f 695 614 693
f 619 647 615
f 696 619 615
f 615 647 646
f 696 615 695
f 649 628 616
f 649 616 643
f 621 700 618
f 618 700 697
f 620 648 619
f 698 620 619
f 619 648 647
f 698 619 696
f 622 651 620
f 699 622 620
f 620 651 648
f 699 620 698
f 630 707 621
f 621 707 700
f 623 652 622
f 701 623 622
f 622 652 651
f 701 622 699
f 624 653 623
f 702 624 623
f 623 653 652
f 702 623 701
f 625 654 624
f 703 625 624
f 624 654 653
f 703 624 702
f 626 655 625
f 704 626 625
f 625 655 654
f 704 625 703
f 627 656 626
f 705 627 626
f 626 656 655
f 705 626 704
f 656 627 724
f 706 627 705
f 724 627 706
f 658 632 628
f 658 628 649
f 631 708 630
f 630 708 707
f 633 709 631
f 631 709 708
f 660 635 632
f 660 632 658
f 636 710 633
f 633 710 709
f 662 640 635
f 662 635 660
f 637 711 636
f 636 711 710
f 638 712 637
f 637 712 711
f 641 713 638
f 638 713 712
f 664 644 640
f 664 640 662
f 642 714 641
f 641 714 713
f 645 715 642
f 642 715 714
f 666 650 644
f 666 644 664
f 646 716 645
f 645 716 715
f 647 717 646
f 646 717 716
f 648 718 647
f 647 718 717
f 651 719 648
f 648 719 718
f 668 657 650
f 668 650 666
f 652 720 651
f 651 720 719
f 653 721 652
f 652 721 720
f 654 722 653
f 653 722 721
f 655 723 654
f 654 723 722
f 656 724 655
f 655 724 723
f 671 659 657
f 671 657 668
f 673 661 659
f 673 659 671
f 675 663 661
f 675 661 673
f 678 665 663
f 678 663 675
f 678 667 665
f 680 669 667
f 680 667 678
f 683 670 669
f 683 669 680
f 685 672 670
f 685 670 683
f 688 674 672
f 688 672 685
f 690 676 674
f 690 674 688
f 694 677 676
f 694 676 690
f 697 679 677
f 697 677 694
f 700 681 679
f 700 679 697
f 707 682 681
f 707 681 700
f 708 684 682
f 708 682 707
f 709 686 684
f 709 684 708
f 710 687 686
f 710 686 709
f 711 689 687
f 711 687 710
f 712 691 689
f 712 689 711
f 713 692 691
f 713 691 712
f 714 693 692
f 714 692 713
f 715 695 693
f 715 693 714
f 716 696 695
f 716 695 715
f 717 698 696
f 717 696 716
f 718 699 698
f 718 698 717
f 719 701 699
f 719 699 718
f 720 702 701
f 720 701 719
f 721 703 702
f 721 702 720
f 722 704 703
f 722 703 721
f 723 705 704
f 723 704 722
f 706 705 724
f 724 705 723
