v 0.0442050409 -0.0537996101 0.00100000001
v 0.0442376328 -0.0539353752 0.00300000012
v 0.0441469812 -0.053526473 0.00100000001
v 0.044174819 -0.0536632919 0.00300000012
v 0.0440984917 -0.0532514763 0.00100000001
v 0.0441215372 -0.0533891869 0.00300000012
v 0.0440778542 -0.0531133842 0.00100000001
v 0.0440778542 -0.0531133842 0.00300000012
v 0.0440438271 -0.0528362274 0.00100000001
v 0.0440596294 -0.0529749537 0.00300000012
v 0.0440194893 -0.0525580502 0.00100000001
v 0.0440304422 -0.0526972437 0.00300000012
v 0.0440048742 -0.0522791958 0.00100000001
v 0.0440109634 -0.0524186897 0.00300000012
v 0.0440012169 -0.0521396208 0.00100000001
v 0.0440012169 -0.0521396208 0.00300000012
v 0.0440012169 -0.0518603802 0.00100000001
v 0.044000001 -0.0519999981 0.00300000012
v 0.0440109634 -0.0515813112 0.00100000001
v 0.0440048742 -0.0517208052 0.00300000012
v 0.0440304422 -0.0513027525 0.00100000001
v 0.0440194893 -0.051441946 0.00300000012
v 0.0440596294 -0.0510250473 0.00100000001
v 0.0440438271 -0.0511637735 0.00300000012
v 0.0440778542 -0.0508866167 0.00100000001
v 0.0440778542 -0.0508866167 0.00300000012
v 0.0441215372 -0.0506108141 0.00100000001
v 0.0440984917 -0.0507485247 0.00300000012
v 0.044174819 -0.0503367043 0.00100000001
v 0.0441469812 -0.0504735279 0.00300000012
v 0.0442376328 -0.0500646257 0.00100000001
v 0.0442050409 -0.0502003908 0.00300000012
v 0.0444358492 -0.0546045446 0.00100000001
v 0.04448246 -0.0547361612 0.00300000012
v 0.0443495607 -0.054338975 0.00100000001
v 0.0443915462 -0.0544721365 0.00300000012
v 0.0442725945 -0.0540705538 0.00100000001
v 0.044309907 -0.0542050982 0.00300000012
v 0.044309907 -0.0497949028 0.00100000001
v 0.0442725945 -0.0499294472 0.00300000012
v 0.0443915462 -0.0495278645 0.00100000001
v 0.0443495607 -0.049661026 0.00300000012
v 0.04448246 -0.0492638397 0.00100000001
v 0.0444358492 -0.0493954563 0.00300000012
v 0.0446916342 -0.0552538919 0.00100000001
v 0.0447495365 -0.0553809452 0.00300000012
v 0.0446359634 -0.0551258469 0.00100000001
v 0.0446359634 -0.0551258469 0.00300000012
v 0.0445313549 -0.0548669434 0.00100000001
v 0.0445825291 -0.0549968529 0.00300000012
v 0.0445825291 -0.0490031481 0.00100000001
v 0.0445313549 -0.0491330576 0.00300000012
v 0.0446359634 -0.0488741493 0.00100000001
v 0.0446359634 -0.0488741493 0.00300000012
v 0.0447495365 -0.0486190557 0.00100000001
v 0.0446916342 -0.048746109 0.00300000012
v 0.0449364185 -0.0557557726 0.00100000001
v 0.0449364185 -0.0557557726 0.00300000012
v 0.0448096466 -0.0555069685 0.00100000001
v 0.0448719501 -0.0556319237 0.00300000012
v 0.0448719501 -0.0483680773 0.00100000001
v 0.0448096466 -0.0484930325 0.00300000012
v 0.0449364185 -0.0482442284 0.00100000001
v 0.0449364185 -0.0482442284 0.00300000012
v 0.0451426601 -0.0561203051 0.00100000001
v 0.0452156162 -0.0562393522 0.00300000012
v 0.0450030422 -0.0558784771 0.00100000001
v 0.0450717974 -0.055999999 0.00300000012
v 0.0450717974 -0.0480000019 0.00100000001
v 0.0450030422 -0.0481215239 0.00300000012
v 0.0452156162 -0.047760644 0.00100000001
v 0.0451426601 -0.0478796959 0.00300000012
v 0.0454467821 -0.0565886116 0.00100000001
v 0.0454467821 -0.0565886116 0.00300000012
v 0.045290637 -0.0563571119 0.00100000001
v 0.0453676987 -0.0564735413 0.00300000012
v 0.0453676987 -0.0475264549 0.00100000001
v 0.045290637 -0.047642889 0.00300000012
v 0.0454467821 -0.0474113894 0.00100000001
v 0.0454467821 -0.0474113894 0.00300000012
v 0.0456109142 -0.056814518 0.00100000001
v 0.0456959152 -0.056925292 0.00300000012
v 0.0455278635 -0.05670228 0.00100000001
v 0.0455278635 -0.05670228 0.00300000012
v 0.0455278635 -0.0472977161 0.00100000001
v 0.0455278635 -0.0472977161 0.00300000012
v 0.0456959152 -0.0470747089 0.00100000001
v 0.0456109142 -0.0471854782 0.00300000012
v 0.0457828331 -0.057034564 0.00100000001
v 0.0459623241 -0.0572484732 0.00300000012
v 0.0459623241 -0.0467515278 0.00100000001
v 0.0457828331 -0.0469654369 0.00300000012
v 0.0462452793 -0.0575572681 0.00100000001
v 0.0462452793 -0.0575572681 0.00300000012
v 0.0460548401 -0.0573530436 0.00100000001
v 0.046149168 -0.0574559879 0.00300000012
v 0.046149168 -0.046544013 0.00100000001
v 0.0460548401 -0.0466469574 0.00300000012
v 0.0462452793 -0.0464427328 0.00100000001
v 0.0462452793 -0.0464427328 0.00300000012
v 0.0464427328 -0.0577547169 0.00100000001
v 0.0464427328 -0.0577547169 0.00300000012
v 0.0463431454 -0.0576568556 0.00100000001
v 0.0463431454 -0.0576568556 0.00300000012
v 0.0463431454 -0.0463431454 0.00100000001
v 0.0463431454 -0.0463431454 0.00300000012
v 0.0464427328 -0.0462452793 0.00100000001
v 0.0464427328 -0.0462452793 0.00300000012
v 0.046544013 -0.0578508282 0.00100000001
v 0.0466469574 -0.0579451609 0.00300000012
v 0.0466469574 -0.0460548401 0.00100000001
v 0.046544013 -0.046149168 0.00300000012
v 0.0467515278 -0.0580376768 0.00100000001
v 0.0469654369 -0.0582171679 0.00300000012
v 0.0469654369 -0.0457828331 0.00100000001
v 0.0467515278 -0.0459623241 0.00300000012
v 0.0470747089 -0.0583040857 0.00100000001
v 0.0471854782 -0.058389082 0.00300000012
v 0.0471854782 -0.0456109142 0.00100000001
v 0.0470747089 -0.0456959152 0.00300000012
v 0.0474113894 -0.0585532141 0.00100000001
v 0.0474113894 -0.0585532141 0.00300000012
v 0.0472977161 -0.0584721375 0.00100000001
v 0.0472977161 -0.0584721375 0.00300000012
v 0.0472977161 -0.0455278635 0.00100000001
v 0.0472977161 -0.0455278635 0.00300000012
v 0.0474113894 -0.0454467821 0.00100000001
v 0.0474113894 -0.0454467821 0.00300000012
v 0.0475264549 -0.0586323023 0.00100000001
v 0.047642889 -0.0587093639 0.00300000012
v 0.047642889 -0.045290637 0.00100000001
v 0.0475264549 -0.0453676987 0.00300000012
v 0.047760644 -0.0587843847 0.00100000001
v 0.0478796959 -0.058857336 0.00300000012
v 0.0478796959 -0.0451426601 0.00100000001
v 0.047760644 -0.0452156162 0.00300000012
v 0.0482442284 -0.0590635824 0.00100000001
v 0.0482442284 -0.0590635824 0.00300000012
v 0.0480000019 -0.0589282036 0.00100000001
v 0.0481215239 -0.0589969587 0.00300000012
v 0.0481215239 -0.0450030422 0.00100000001
v 0.0480000019 -0.0450717974 0.00300000012
v 0.0482442284 -0.0449364185 0.00100000001
v 0.0482442284 -0.0449364185 0.00300000012
v 0.0483680773 -0.0591280508 0.00100000001
v 0.0484930325 -0.0591903543 0.00300000012
v 0.0484930325 -0.0448096466 0.00100000001
v 0.0483680773 -0.0448719501 0.00300000012
v 0.0486190557 -0.0592504644 0.00100000001
v 0.048746109 -0.059308362 0.00300000012
v 0.048746109 -0.0446916342 0.00100000001
v 0.0486190557 -0.0447495365 0.00300000012
v 0.0488741493 -0.0593640375 0.00100000001
v 0.0488741493 -0.0593640375 0.00300000012
v 0.0488741493 -0.0446359634 0.00100000001
v 0.0488741493 -0.0446359634 0.00300000012
v 0.0490031481 -0.0594174719 0.00100000001
v 0.0491330576 -0.0594686413 0.00300000012
v 0.0491330576 -0.0445313549 0.00100000001
v 0.0490031481 -0.0445825291 0.00300000012
v 0.0492638397 -0.0595175409 0.00100000001
v 0.0493954563 -0.059564147 0.00300000012
v 0.0493954563 -0.0444358492 0.00100000001
v 0.0492638397 -0.04448246 0.00300000012
v 0.0495278645 -0.0596084499 0.00100000001
v 0.049661026 -0.0596504402 0.00300000012
v 0.049661026 -0.0443495607 0.00100000001
v 0.0495278645 -0.0443915462 0.00300000012
v 0.0497949028 -0.059690094 0.00100000001
v 0.0499294472 -0.0597274065 0.00300000012
v 0.0499294472 -0.0442725945 0.00100000001
v 0.0497949028 -0.044309907 0.00300000012
v 0.0500646257 -0.0597623634 0.00100000001
v 0.0502003908 -0.05979496 0.00300000012
v 0.0502003908 -0.0442050409 0.00100000001
v 0.0500646257 -0.0442376328 0.00300000012
v 0.0503367043 -0.059825182 0.00100000001
v 0.0504735279 -0.0598530197 0.00300000012
v 0.0504852867 -0.0527717829 0.00100000001
v 0.050498991 -0.0527980995 0.00300000012
v 0.0503832054 -0.0525253296 0.00100000001
v 0.0504720497 -0.0527452326 0.00300000012
v 0.0503209305 -0.0522659397 0.00100000001
v 0.0503742838 -0.0524970341 0.00300000012
v 0.0503002596 -0.0520296669 0.00100000001
v 0.0503165436 -0.0522365952 0.00300000012
v 0.0503165436 -0.0517634058 0.00100000001
v 0.0503000021 -0.0519999981 0.00300000012
v 0.0503742838 -0.0515029669 0.00100000001
v 0.0503209305 -0.0517340612 0.00300000012
v 0.0504720497 -0.0512547684 0.00100000001
v 0.0503832054 -0.0514746714 0.00300000012
v 0.050498991 -0.0512018967 0.00100000001
v 0.0504852867 -0.0512282181 0.00300000012
v 0.0504735279 -0.0441469812 0.00100000001
v 0.0503367043 -0.044174819 0.00300000012
v 0.0506108141 -0.0598784637 0.00100000001
v 0.0507485247 -0.0599015045 0.00300000012
v 0.0506423187 -0.0530230856 0.00100000001
v 0.0507366514 -0.0531375217 0.00300000012
v 0.0505131483 -0.0528241777 0.00100000001
v 0.050624671 -0.0529992342 0.00300000012
v 0.050624671 -0.0510007668 0.00100000001
v 0.0505131483 -0.0511758232 0.00300000012
v 0.0507366514 -0.0508624792 0.00100000001
v 0.0506423187 -0.0509769154 0.00300000012
v 0.0507485247 -0.0440984917 0.00100000001
v 0.0506108141 -0.0441215372 0.00300000012
v 0.0508866167 -0.0599221468 0.00100000001
v 0.0508866167 -0.0599221468 0.00300000012
v 0.0508624792 -0.0532633448 0.00100000001
v 0.0509769154 -0.0533576822 0.00300000012
v 0.0507566977 -0.053159399 0.00100000001
v 0.0508406019 -0.0532433033 0.00300000012
v 0.0507979202 -0.0507979202 0.00100000001
v 0.0507979202 -0.0507979202 0.00300000012
v 0.0509769154 -0.0506423187 0.00100000001
v 0.0508624792 -0.0507366514 0.00300000012
v 0.0508866167 -0.0440778542 0.00100000001
v 0.0508866167 -0.0440778542 0.00300000012
v 0.0510250473 -0.0599403715 0.00100000001
v 0.0511637735 -0.0599561739 0.00300000012
v 0.0512018967 -0.0535010099 0.00100000001
v 0.0512282181 -0.0535147095 0.00300000012
v 0.0510007668 -0.05337533 0.00100000001
v 0.0511758232 -0.0534868526 0.00300000012
v 0.0511758232 -0.0505131483 0.00100000001
v 0.0510007668 -0.050624671 0.00300000012
v 0.0512282181 -0.0504852867 0.00100000001
v 0.0512018967 -0.050498991 0.00300000012
v 0.0511637735 -0.0440438271 0.00100000001
v 0.0510250473 -0.0440596294 0.00300000012
v 0.0513027525 -0.0599695587 0.00100000001
v 0.051441946 -0.0599805117 0.00300000012
v 0.0512547684 -0.0535279512 0.00100000001
v 0.0514746714 -0.0536167955 0.00300000012
v 0.0514746714 -0.0503832054 0.00100000001
v 0.0512547684 -0.0504720497 0.00300000012
v 0.051441946 -0.0440194893 0.00100000001
v 0.0513027525 -0.0440304422 0.00300000012
v 0.0515813112 -0.0599890375 0.00100000001
v 0.0517208052 -0.0599951267 0.00300000012
v 0.0515029669 -0.0536257172 0.00100000001
v 0.0517340612 -0.0536790705 0.00300000012
v 0.0517340612 -0.0503209305 0.00100000001
v 0.0515029669 -0.0503742838 0.00300000012
v 0.0517208052 -0.0440048742 0.00100000001
v 0.0515813112 -0.0440109634 0.00300000012
v 0.0518603802 -0.0599987793 0.00100000001
v 0.0519999981 -0.06 0.00300000012
v 0.0517634058 -0.0536834574 0.00100000001
v 0.0519999981 -0.0536999989 0.00300000012
v 0.0519999981 -0.0503000021 0.00100000001
v 0.0517634058 -0.0503165436 0.00300000012
v 0.0519999981 -0.044000001 0.00100000001
v 0.0518603802 -0.0440012169 0.00300000012
v 0.0521396208 -0.0599987793 0.00100000001
v 0.0521396208 -0.0599987793 0.00300000012
v 0.0520296669 -0.0536997414 0.00100000001
v 0.0522365952 -0.0536834574 0.00300000012
v 0.0522365952 -0.0503165436 0.00100000001
v 0.0520296669 -0.0503002596 0.00300000012
v 0.0521396208 -0.0440012169 0.00100000001
v 0.0521396208 -0.0440012169 0.00300000012
v 0.0522791958 -0.0599951267 0.00100000001
v 0.0524186897 -0.0599890375 0.00300000012
v 0.0522659397 -0.0536790705 0.00100000001
v 0.0524970341 -0.0536257172 0.00300000012
v 0.0524970341 -0.0503742838 0.00100000001
v 0.0522659397 -0.0503209305 0.00300000012
v 0.0524186897 -0.0440109634 0.00100000001
v 0.0522791958 -0.0440048742 0.00300000012
v 0.0525580502 -0.0599805117 0.00100000001
v 0.0526972437 -0.0599695587 0.00300000012
v 0.0525253296 -0.0536167955 0.00100000001
v 0.0527452326 -0.0535279512 0.00300000012
v 0.0527452326 -0.0504720497 0.00100000001
v 0.0525253296 -0.0503832054 0.00300000012
v 0.0526972437 -0.0440304422 0.00100000001
v 0.0525580502 -0.0440194893 0.00300000012
v 0.0528362274 -0.0599561739 0.00100000001
v 0.0529749537 -0.0599403715 0.00300000012
v 0.0527717829 -0.0535147095 0.00100000001
v 0.0527980995 -0.0535010099 0.00300000012
v 0.0528241777 -0.0534868526 0.00100000001
v 0.0529992342 -0.05337533 0.00300000012
v 0.0529992342 -0.050624671 0.00100000001
v 0.0528241777 -0.0505131483 0.00300000012
v 0.0527980995 -0.050498991 0.00100000001
v 0.0527717829 -0.0504852867 0.00300000012
v 0.0529749537 -0.0440596294 0.00100000001
v 0.0528362274 -0.0440438271 0.00300000012
v 0.0531133842 -0.0599221468 0.00100000001
v 0.0531133842 -0.0599221468 0.00300000012
v 0.0530230856 -0.0533576822 0.00100000001
v 0.0531375217 -0.0532633448 0.00300000012
v 0.053159399 -0.0532433033 0.00100000001
v 0.0532433033 -0.053159399 0.00300000012
v 0.0532433033 -0.0508406019 0.00100000001
v 0.053159399 -0.0507566977 0.00300000012
v 0.0531375217 -0.0507366514 0.00100000001
v 0.0530230856 -0.0506423187 0.00300000012
v 0.0531133842 -0.0440778542 0.00100000001
v 0.0531133842 -0.0440778542 0.00300000012
v 0.0532514763 -0.0599015045 0.00100000001
v 0.0533891869 -0.0598784637 0.00300000012
v 0.0532633448 -0.0531375217 0.00100000001
v 0.0533576822 -0.0530230856 0.00300000012
v 0.05337533 -0.0529992342 0.00100000001
v 0.0534868526 -0.0528241777 0.00300000012
v 0.0534868526 -0.0511758232 0.00100000001
v 0.05337533 -0.0510007668 0.00300000012
v 0.0533576822 -0.0509769154 0.00100000001
v 0.0532633448 -0.0508624792 0.00300000012
v 0.0533891869 -0.0441215372 0.00100000001
v 0.0532514763 -0.0440984917 0.00300000012
v 0.053526473 -0.0598530197 0.00100000001
v 0.0536632919 -0.059825182 0.00300000012
v 0.0535010099 -0.0527980995 0.00100000001
v 0.0535147095 -0.0527717829 0.00300000012
v 0.0535279512 -0.0527452326 0.00100000001
v 0.0536167955 -0.0525253296 0.00300000012
v 0.0536257172 -0.0524970341 0.00100000001
v 0.0536790705 -0.0522659397 0.00300000012
v 0.0536834574 -0.0522365952 0.00100000001
v 0.0536997414 -0.0520296669 0.00300000012
v 0.0536999989 -0.0519999981 0.00100000001
v 0.0536834574 -0.0517634058 0.00300000012
v 0.0536790705 -0.0517340612 0.00100000001
v 0.0536257172 -0.0515029669 0.00300000012
v 0.0536167955 -0.0514746714 0.00100000001
v 0.0535279512 -0.0512547684 0.00300000012
v 0.0535147095 -0.0512282181 0.00100000001
v 0.0535010099 -0.0512018967 0.00300000012
v 0.0536632919 -0.044174819 0.00100000001
v 0.053526473 -0.0441469812 0.00300000012
v 0.0537996101 -0.05979496 0.00100000001
v 0.0539353752 -0.0597623634 0.00300000012
v 0.0539353752 -0.0442376328 0.00100000001
v 0.0537996101 -0.0442050409 0.00300000012
v 0.0540705538 -0.0597274065 0.00100000001
v 0.0542050982 -0.059690094 0.00300000012
v 0.0542050982 -0.044309907 0.00100000001
v 0.0540705538 -0.0442725945 0.00300000012
v 0.054338975 -0.0596504402 0.00100000001
v 0.0544721365 -0.0596084499 0.00300000012
v 0.0544721365 -0.0443915462 0.00100000001
v 0.054338975 -0.0443495607 0.00300000012
v 0.0546045446 -0.059564147 0.00100000001
v 0.0547361612 -0.0595175409 0.00300000012
v 0.0547361612 -0.04448246 0.00100000001
v 0.0546045446 -0.0444358492 0.00300000012
v 0.0548669434 -0.0594686413 0.00100000001
v 0.0549968529 -0.0594174719 0.00300000012
v 0.0549968529 -0.0445825291 0.00100000001
v 0.0548669434 -0.0445313549 0.00300000012
v 0.0551258469 -0.0593640375 0.00100000001
v 0.0551258469 -0.0593640375 0.00300000012
v 0.0551258469 -0.0446359634 0.00100000001
v 0.0551258469 -0.0446359634 0.00300000012
v 0.0552538919 -0.059308362 0.00100000001
v 0.0553809452 -0.0592504644 0.00300000012
v 0.0553809452 -0.0447495365 0.00100000001
v 0.0552538919 -0.0446916342 0.00300000012
v 0.0555069685 -0.0591903543 0.00100000001
v 0.0556319237 -0.0591280508 0.00300000012
v 0.0556319237 -0.0448719501 0.00100000001
v 0.0555069685 -0.0448096466 0.00300000012
v 0.0557557726 -0.0590635824 0.00100000001
v 0.0557557726 -0.0590635824 0.00300000012
v 0.0558784771 -0.0589969587 0.00100000001
v 0.055999999 -0.0589282036 0.00300000012
v 0.055999999 -0.0450717974 0.00100000001
v 0.0558784771 -0.0450030422 0.00300000012
v 0.0557557726 -0.0449364185 0.00100000001
v 0.0557557726 -0.0449364185 0.00300000012
v 0.0561203051 -0.058857336 0.00100000001
v 0.0562393522 -0.0587843847 0.00300000012
v 0.0562393522 -0.0452156162 0.00100000001
v 0.0561203051 -0.0451426601 0.00300000012
v 0.0563571119 -0.0587093639 0.00100000001
v 0.0564735413 -0.0586323023 0.00300000012
v 0.0564735413 -0.0453676987 0.00100000001
v 0.0563571119 -0.045290637 0.00300000012
v 0.0565886116 -0.0585532141 0.00100000001
v 0.0565886116 -0.0585532141 0.00300000012
v 0.05670228 -0.0584721375 0.00100000001
v 0.05670228 -0.0584721375 0.00300000012
v 0.05670228 -0.0455278635 0.00100000001
v 0.05670228 -0.0455278635 0.00300000012
v 0.0565886116 -0.0454467821 0.00100000001
v 0.0565886116 -0.0454467821 0.00300000012
v 0.056814518 -0.058389082 0.00100000001
v 0.056925292 -0.0583040857 0.00300000012
v 0.056925292 -0.0456959152 0.00100000001
v 0.056814518 -0.0456109142 0.00300000012
v 0.057034564 -0.0582171679 0.00100000001
v 0.0572484732 -0.0580376768 0.00300000012
v 0.0572484732 -0.0459623241 0.00100000001
v 0.057034564 -0.0457828331 0.00300000012
v 0.0573530436 -0.0579451609 0.00100000001
v 0.0574559879 -0.0578508282 0.00300000012
v 0.0574559879 -0.046149168 0.00100000001
v 0.0573530436 -0.0460548401 0.00300000012
v 0.0575572681 -0.0577547169 0.00100000001
v 0.0575572681 -0.0577547169 0.00300000012
v 0.0576568556 -0.0576568556 0.00100000001
v 0.0576568556 -0.0576568556 0.00300000012
v 0.0576568556 -0.0463431454 0.00100000001
v 0.0576568556 -0.0463431454 0.00300000012
v 0.0575572681 -0.0462452793 0.00100000001
v 0.0575572681 -0.0462452793 0.00300000012
v 0.0577547169 -0.0575572681 0.00100000001
v 0.0577547169 -0.0575572681 0.00300000012
v 0.0578508282 -0.0574559879 0.00100000001
v 0.0579451609 -0.0573530436 0.00300000012
v 0.0579451609 -0.0466469574 0.00100000001
v 0.0578508282 -0.046544013 0.00300000012
v 0.0577547169 -0.0464427328 0.00100000001
v 0.0577547169 -0.0464427328 0.00300000012
v 0.0580376768 -0.0572484732 0.00100000001
v 0.0582171679 -0.057034564 0.00300000012
v 0.0582171679 -0.0469654369 0.00100000001
v 0.0580376768 -0.0467515278 0.00300000012
v 0.0583040857 -0.056925292 0.00100000001
v 0.058389082 -0.056814518 0.00300000012
v 0.0584721375 -0.05670228 0.00100000001
v 0.0584721375 -0.05670228 0.00300000012
v 0.0584721375 -0.0472977161 0.00100000001
v 0.0584721375 -0.0472977161 0.00300000012
v 0.058389082 -0.0471854782 0.00100000001
v 0.0583040857 -0.0470747089 0.00300000012
v 0.0585532141 -0.0565886116 0.00100000001
v 0.0585532141 -0.0565886116 0.00300000012
v 0.0586323023 -0.0564735413 0.00100000001
v 0.0587093639 -0.0563571119 0.00300000012
v 0.0587093639 -0.047642889 0.00100000001
v 0.0586323023 -0.0475264549 0.00300000012
v 0.0585532141 -0.0474113894 0.00100000001
v 0.0585532141 -0.0474113894 0.00300000012
v 0.0587843847 -0.0562393522 0.00100000001
v 0.058857336 -0.0561203051 0.00300000012
v 0.0589282036 -0.055999999 0.00100000001
v 0.0589969587 -0.0558784771 0.00300000012
v 0.0589969587 -0.0481215239 0.00100000001
v 0.0589282036 -0.0480000019 0.00300000012
v 0.058857336 -0.0478796959 0.00100000001
v 0.0587843847 -0.047760644 0.00300000012
v 0.0590635824 -0.0557557726 0.00100000001
v 0.0590635824 -0.0557557726 0.00300000012
v 0.0591280508 -0.0556319237 0.00100000001
v 0.0591903543 -0.0555069685 0.00300000012
v 0.0591903543 -0.0484930325 0.00100000001
v 0.0591280508 -0.0483680773 0.00300000012
v 0.0590635824 -0.0482442284 0.00100000001
v 0.0590635824 -0.0482442284 0.00300000012
v 0.0592504644 -0.0553809452 0.00100000001
v 0.059308362 -0.0552538919 0.00300000012
v 0.0593640375 -0.0551258469 0.00100000001
v 0.0593640375 -0.0551258469 0.00300000012
v 0.0594174719 -0.0549968529 0.00100000001
v 0.0594686413 -0.0548669434 0.00300000012
v 0.0594686413 -0.0491330576 0.00100000001
v 0.0594174719 -0.0490031481 0.00300000012
v 0.0593640375 -0.0488741493 0.00100000001
v 0.0593640375 -0.0488741493 0.00300000012
v 0.059308362 -0.048746109 0.00100000001
v 0.0592504644 -0.0486190557 0.00300000012
v 0.0595175409 -0.0547361612 0.00100000001
v 0.059564147 -0.0546045446 0.00300000012
v 0.0596084499 -0.0544721365 0.00100000001
v 0.0596504402 -0.054338975 0.00300000012
v 0.059690094 -0.0542050982 0.00100000001
v 0.0597274065 -0.0540705538 0.00300000012
v 0.0597274065 -0.0499294472 0.00100000001
v 0.059690094 -0.0497949028 0.00300000012
v 0.0596504402 -0.049661026 0.00100000001
v 0.0596084499 -0.0495278645 0.00300000012
v 0.059564147 -0.0493954563 0.00100000001
v 0.0595175409 -0.0492638397 0.00300000012
v 0.0597623634 -0.0539353752 0.00100000001
v 0.05979496 -0.0537996101 0.00300000012
v 0.059825182 -0.0536632919 0.00100000001
v 0.0598530197 -0.053526473 0.00300000012
v 0.0598784637 -0.0533891869 0.00100000001
v 0.0599015045 -0.0532514763 0.00300000012
v 0.0599221468 -0.0531133842 0.00100000001
v 0.0599221468 -0.0531133842 0.00300000012
v 0.0599403715 -0.0529749537 0.00100000001
v 0.0599561739 -0.0528362274 0.00300000012
v 0.0599695587 -0.0526972437 0.00100000001
v 0.0599805117 -0.0525580502 0.00300000012
v 0.0599890375 -0.0524186897 0.00100000001
v 0.0599951267 -0.0522791958 0.00300000012
v 0.0599987793 -0.0521396208 0.00100000001
v 0.0599987793 -0.0521396208 0.00300000012
v 0.0599987793 -0.0518603802 0.00100000001
v 0.0599987793 -0.0518603802 0.00300000012
v 0.0599951267 -0.0517208052 0.00100000001
v 0.0599890375 -0.0515813112 0.00300000012
v 0.0599805117 -0.051441946 0.00100000001
v 0.0599695587 -0.0513027525 0.00300000012
v 0.0599561739 -0.0511637735 0.00100000001
v 0.0599403715 -0.0510250473 0.00300000012
v 0.0599221468 -0.0508866167 0.00100000001
v 0.0599221468 -0.0508866167 0.00300000012
v 0.0599015045 -0.0507485247 0.00100000001
v 0.0598784637 -0.0506108141 0.00300000012
v 0.0598530197 -0.0504735279 0.00100000001
v 0.059825182 -0.0503367043 0.00300000012
v 0.05979496 -0.0502003908 0.00100000001
v 0.0597623634 -0.0500646257 0.00300000012
v 0.06 -0.0519999981 0.00100000001
v 0.06 -0.0519999981 0.00300000012
f 1 2 3
f 1 38 2
f 3 177 1
f 37 38 1
f 1 173 37
f 1 177 173
f 3 2 4
f 174 4 2
f 170 2 38
f 174 2 170
f 3 4 5
f 5 197 3
f 3 197 177
f 5 4 6
f 178 6 4
f 178 4 174
f 5 6 7
f 7 209 5
f 5 209 197
f 7 6 8
f 198 8 6
f 198 6 178
f 7 8 9
f 9 221 7
f 7 221 209
f 9 8 10
f 210 10 8
f 210 8 198
f 9 10 11
f 11 233 9
f 9 233 221
f 11 10 12
f 222 12 10
f 222 10 210
f 11 12 13
f 13 241 11
f 11 241 233
f 13 12 14
f 234 14 12
f 234 12 222
f 13 14 15
f 15 249 13
f 13 249 241
f 15 14 16
f 242 16 14
f 242 14 234
f 15 16 17
f 17 249 15
f 17 16 18
f 250 18 16
f 250 16 242
f 17 18 19
f 17 19 213
f 213 249 17
f 19 18 20
f 258 20 18
f 258 18 250
f 19 20 21
f 213 19 21
f 21 20 22
f 266 22 20
f 266 20 258
f 21 22 23
f 213 21 23
f 23 22 24
f 274 24 22
f 274 22 266
f 23 24 25
f 23 25 213
f 25 24 26
f 282 26 24
f 282 24 274
f 25 26 27
f 213 25 27
f 27 26 28
f 294 28 26
f 294 26 282
f 27 28 29
f 27 29 213
f 29 28 30
f 306 30 28
f 306 28 294
f 29 30 31
f 213 29 31
f 31 30 32
f 318 32 30
f 318 30 306
f 31 32 39
f 213 31 39
f 39 32 40
f 338 40 32
f 338 32 318
f 33 34 35
f 33 50 34
f 35 165 33
f 49 50 33
f 33 161 49
f 33 165 161
f 35 34 36
f 162 36 34
f 158 34 50
f 162 34 158
f 35 36 37
f 37 169 35
f 35 169 165
f 37 36 38
f 166 38 36
f 166 36 162
f 37 173 169
f 170 38 166
f 39 40 41
f 39 41 213
f 41 40 42
f 342 42 40
f 342 40 338
f 41 42 43
f 213 41 43
f 43 42 44
f 346 44 42
f 346 42 342
f 43 44 51
f 213 43 51
f 51 44 52
f 350 52 44
f 350 44 346
f 45 46 47
f 45 60 46
f 47 153 45
f 59 60 45
f 45 149 59
f 45 153 149
f 47 46 48
f 150 48 46
f 146 46 60
f 150 46 146
f 47 48 49
f 49 157 47
f 47 157 153
f 49 48 50
f 154 50 48
f 154 48 150
f 49 161 157
f 158 50 154
f 51 52 53
f 51 53 213
f 53 52 54
f 354 54 52
f 354 52 350
f 53 54 55
f 213 53 55
f 55 54 56
f 358 56 54
f 358 54 354
f 55 56 61
f 55 61 213
f 61 56 62
f 362 62 56
f 362 56 358
f 57 58 59
f 57 68 58
f 59 145 57
f 67 68 57
f 57 137 67
f 57 145 137
f 59 58 60
f 138 60 58
f 140 58 68
f 138 58 140
f 59 149 145
f 146 60 138
f 61 62 63
f 213 61 63
f 63 62 64
f 366 64 62
f 366 62 362
f 63 64 69
f 63 69 213
f 69 64 70
f 370 70 64
f 370 64 366
f 65 66 67
f 65 76 66
f 67 139 65
f 75 76 65
f 65 133 75
f 65 139 133
f 67 66 68
f 134 68 66
f 130 66 76
f 134 66 130
f 67 137 139
f 140 68 134
f 69 70 71
f 213 69 71
f 71 70 72
f 372 72 70
f 372 70 370
f 71 72 77
f 77 201 71
f 201 199 71
f 199 213 71
f 77 72 78
f 72 202 78
f 200 202 72
f 214 200 72
f 378 214 72
f 378 72 372
f 73 74 75
f 73 84 74
f 75 129 73
f 83 84 73
f 73 121 83
f 73 129 121
f 75 74 76
f 122 76 74
f 124 74 84
f 122 74 124
f 75 133 129
f 130 76 122
f 77 78 79
f 79 183 77
f 77 181 179
f 77 179 201
f 77 183 181
f 79 78 80
f 78 184 80
f 78 180 182
f 202 180 78
f 78 182 184
f 79 80 85
f 85 185 79
f 185 183 79
f 85 80 86
f 80 186 86
f 80 184 186
f 81 82 83
f 81 90 82
f 83 123 81
f 89 90 81
f 81 117 89
f 81 123 117
f 83 82 84
f 118 84 82
f 114 82 90
f 118 82 114
f 83 121 123
f 124 84 118
f 85 86 87
f 87 187 85
f 85 187 185
f 87 86 88
f 86 188 88
f 186 188 86
f 87 88 91
f 91 189 87
f 87 189 187
f 91 88 92
f 88 190 92
f 88 188 190
f 89 96 90
f 95 96 89
f 89 113 95
f 89 117 113
f 110 90 96
f 114 90 110
f 91 92 97
f 97 203 91
f 191 189 91
f 91 193 191
f 91 203 193
f 97 92 98
f 92 204 98
f 190 192 92
f 92 192 194
f 92 194 204
f 93 94 95
f 93 104 94
f 95 109 93
f 93 101 103
f 93 109 101
f 103 104 93
f 95 94 96
f 102 96 94
f 102 94 104
f 95 113 109
f 110 96 102
f 97 98 99
f 99 205 97
f 97 205 203
f 99 98 100
f 98 206 100
f 98 204 206
f 99 100 105
f 215 99 105
f 99 215 205
f 105 100 106
f 100 216 106
f 206 216 100
f 101 102 103
f 101 110 102
f 109 110 101
f 103 102 104
f 105 106 107
f 217 105 107
f 215 105 217
f 107 106 108
f 106 218 108
f 216 218 106
f 107 108 111
f 227 107 111
f 217 107 227
f 111 108 112
f 108 228 112
f 108 218 228
f 109 114 110
f 113 114 109
f 111 112 115
f 237 111 115
f 227 111 229
f 229 111 237
f 115 112 116
f 112 238 116
f 228 230 112
f 112 230 238
f 113 118 114
f 117 118 113
f 115 116 119
f 245 115 119
f 237 115 245
f 119 116 120
f 116 246 120
f 116 238 246
f 117 124 118
f 123 124 117
f 119 120 125
f 261 119 125
f 245 119 253
f 253 119 261
f 125 120 126
f 120 262 126
f 246 254 120
f 254 262 120
f 121 122 123
f 121 130 122
f 129 130 121
f 123 122 124
f 125 126 127
f 269 125 127
f 261 125 269
f 127 126 128
f 126 270 128
f 126 262 270
f 127 128 131
f 277 127 131
f 269 127 277
f 131 128 132
f 128 278 132
f 270 278 128
f 129 134 130
f 133 134 129
f 131 132 135
f 131 135 441
f 277 131 289
f 289 131 287
f 287 131 301
f 301 131 299
f 299 131 441
f 135 132 136
f 132 300 136
f 278 290 132
f 132 290 288
f 132 288 302
f 132 302 300
f 133 140 134
f 139 140 133
f 135 136 141
f 443 135 141
f 441 135 443
f 141 136 142
f 136 300 142
f 137 138 139
f 137 146 138
f 145 146 137
f 139 138 140
f 141 142 143
f 449 141 143
f 443 141 449
f 143 142 144
f 142 300 144
f 143 144 147
f 451 143 147
f 449 143 451
f 147 144 148
f 144 300 148
f 145 150 146
f 149 150 145
f 147 148 151
f 457 147 151
f 451 147 457
f 151 148 152
f 148 300 152
f 149 154 150
f 153 154 149
f 151 152 155
f 459 151 155
f 457 151 459
f 155 152 156
f 152 300 156
f 153 158 154
f 157 158 153
f 155 156 159
f 461 155 159
f 459 155 461
f 159 156 160
f 156 300 160
f 157 162 158
f 161 162 157
f 159 160 163
f 469 159 163
f 461 159 469
f 163 160 164
f 160 300 164
f 161 166 162
f 165 166 161
f 163 164 167
f 471 163 167
f 469 163 471
f 167 164 168
f 164 300 168
f 165 170 166
f 169 170 165
f 167 168 171
f 473 167 171
f 471 167 473
f 171 168 172
f 168 300 172
f 169 174 170
f 173 174 169
f 171 172 175
f 481 171 175
f 473 171 481
f 175 172 176
f 172 300 176
f 173 178 174
f 177 178 173
f 175 176 195
f 483 175 195
f 481 175 483
f 195 176 196
f 176 300 196
f 177 198 178
f 197 198 177
f 179 182 180
f 179 180 201
f 181 182 179
f 201 180 202
f 181 184 182
f 183 184 181
f 183 186 184
f 185 186 183
f 185 188 186
f 187 188 185
f 187 190 188
f 189 190 187
f 189 192 190
f 191 192 189
f 191 194 192
f 193 194 191
f 193 204 194
f 203 204 193
f 195 196 207
f 485 195 207
f 483 195 485
f 207 196 208
f 196 300 208
f 197 210 198
f 209 210 197
f 199 202 200
f 199 200 213
f 201 202 199
f 213 200 214
f 203 206 204
f 205 206 203
f 205 216 206
f 215 216 205
f 207 208 219
f 487 207 219
f 485 207 487
f 219 208 220
f 208 300 220
f 209 222 210
f 221 222 209
f 211 214 212
f 211 212 225
f 213 214 211
f 211 249 213
f 225 249 211
f 212 214 378
f 225 212 226
f 226 212 378
f 215 218 216
f 217 218 215
f 217 228 218
f 227 228 217
f 219 220 231
f 489 219 231
f 487 219 489
f 231 220 232
f 220 300 232
f 221 234 222
f 233 234 221
f 223 226 224
f 223 224 235
f 225 226 223
f 223 249 225
f 235 249 223
f 382 224 226
f 235 224 236
f 382 236 224
f 382 226 378
f 227 230 228
f 229 230 227
f 229 238 230
f 237 238 229
f 231 232 239
f 491 231 239
f 489 231 491
f 239 232 240
f 232 300 240
f 233 242 234
f 241 242 233
f 235 236 243
f 243 257 235
f 235 257 249
f 243 236 244
f 382 244 236
f 237 246 238
f 245 246 237
f 239 240 247
f 493 239 247
f 491 239 493
f 247 240 248
f 240 300 248
f 241 250 242
f 249 250 241
f 243 244 251
f 251 257 243
f 251 244 252
f 252 244 386
f 386 244 382
f 245 254 246
f 253 254 245
f 247 248 255
f 495 247 255
f 493 247 495
f 255 248 256
f 248 300 256
f 249 258 250
f 257 258 249
f 251 252 259
f 259 257 251
f 259 252 260
f 388 260 252
f 388 252 386
f 253 262 254
f 261 262 253
f 255 256 263
f 497 255 263
f 495 255 513
f 513 255 497
f 263 256 264
f 256 300 264
f 257 266 258
f 259 265 257
f 265 266 257
f 259 260 267
f 259 273 265
f 267 305 259
f 259 281 273
f 259 293 281
f 259 305 293
f 267 260 268
f 394 268 260
f 394 260 388
f 261 270 262
f 269 270 261
f 263 264 271
f 499 263 271
f 497 263 499
f 271 264 272
f 264 300 272
f 265 274 266
f 273 274 265
f 267 268 275
f 275 345 267
f 267 317 305
f 267 337 317
f 267 341 337
f 267 345 341
f 275 268 276
f 276 268 398
f 398 268 394
f 269 278 270
f 277 278 269
f 271 272 279
f 501 271 279
f 499 271 501
f 279 272 280
f 272 300 280
f 273 282 274
f 281 282 273
f 275 276 283
f 283 365 275
f 275 349 345
f 275 353 349
f 275 357 353
f 275 361 357
f 275 365 361
f 283 276 284
f 398 284 276
f 277 290 278
f 289 290 277
f 279 280 291
f 503 279 291
f 501 279 503
f 291 280 292
f 280 300 292
f 281 294 282
f 293 294 281
f 283 284 285
f 285 371 283
f 283 369 365
f 283 371 369
f 285 284 286
f 398 286 284
f 285 286 295
f 295 393 285
f 285 377 371
f 285 381 377
f 285 385 381
f 285 387 385
f 285 393 387
f 295 286 296
f 402 296 286
f 402 286 398
f 287 288 289
f 287 302 288
f 301 302 287
f 289 288 290
f 291 292 303
f 505 291 303
f 503 291 505
f 292 300 304
f 303 292 304
f 293 306 294
f 305 306 293
f 295 296 297
f 297 401 295
f 295 397 393
f 295 401 397
f 297 296 298
f 298 296 406
f 406 296 402
f 297 298 307
f 307 415 297
f 297 405 401
f 297 407 405
f 297 413 407
f 297 415 413
f 307 298 308
f 408 308 298
f 408 298 406
f 299 300 301
f 299 314 300
f 313 314 299
f 299 441 313
f 301 300 302
f 304 300 316
f 418 300 314
f 316 300 336
f 336 300 340
f 340 300 344
f 344 300 348
f 348 300 352
f 352 300 356
f 356 300 360
f 360 300 364
f 364 300 368
f 368 300 376
f 376 300 374
f 374 300 380
f 380 300 384
f 384 300 392
f 392 300 390
f 390 300 396
f 396 300 400
f 400 300 404
f 404 300 412
f 412 300 410
f 410 300 420
f 420 300 418
f 303 304 315
f 507 303 315
f 505 303 507
f 315 304 316
f 305 318 306
f 317 318 305
f 307 308 309
f 309 425 307
f 307 421 415
f 307 425 421
f 309 308 310
f 414 310 308
f 414 308 408
f 309 310 319
f 319 441 309
f 309 427 425
f 309 433 427
f 309 435 433
f 309 441 435
f 319 310 320
f 320 310 416
f 416 310 414
f 311 312 313
f 311 334 312
f 313 441 311
f 333 334 311
f 311 441 333
f 313 312 314
f 430 314 312
f 456 312 334
f 430 312 440
f 440 312 438
f 438 312 448
f 448 312 446
f 446 312 456
f 418 314 424
f 424 314 432
f 432 314 430
f 315 316 335
f 509 315 335
f 507 315 509
f 335 316 336
f 317 338 318
f 337 338 317
f 319 320 321
f 321 441 319
f 321 320 322
f 416 322 320
f 321 322 323
f 323 441 321
f 323 322 324
f 422 324 322
f 422 322 416
f 323 324 325
f 325 441 323
f 325 324 326
f 426 326 324
f 426 324 422
f 325 326 327
f 327 441 325
f 327 326 328
f 426 328 326
f 327 328 329
f 329 441 327
f 329 328 330
f 506 330 328
f 428 328 426
f 434 328 428
f 436 328 434
f 442 328 436
f 444 328 442
f 450 328 444
f 452 328 450
f 458 328 452
f 460 328 458
f 462 328 460
f 470 328 462
f 472 328 470
f 474 328 472
f 482 328 474
f 484 328 482
f 486 328 484
f 488 328 486
f 490 328 488
f 492 328 490
f 494 328 492
f 496 328 494
f 514 328 496
f 500 328 498
f 498 328 514
f 502 328 500
f 504 328 502
f 506 328 504
f 329 330 331
f 331 441 329
f 331 330 332
f 478 332 330
f 478 330 476
f 476 330 512
f 508 330 506
f 510 330 508
f 512 330 510
f 331 332 333
f 333 441 331
f 333 332 334
f 454 334 332
f 454 332 468
f 466 332 464
f 464 332 480
f 468 332 466
f 480 332 478
f 456 334 454
f 335 336 339
f 511 335 339
f 509 335 511
f 339 336 340
f 337 342 338
f 341 342 337
f 339 340 343
f 475 339 343
f 511 339 475
f 343 340 344
f 341 346 342
f 345 346 341
f 343 344 347
f 477 343 347
f 475 343 477
f 347 344 348
f 345 350 346
f 349 350 345
f 347 348 351
f 479 347 351
f 477 347 479
f 351 348 352
f 349 354 350
f 353 354 349
f 351 352 355
f 463 351 355
f 479 351 463
f 355 352 356
f 353 358 354
f 357 358 353
f 355 356 359
f 465 355 359
f 463 355 465
f 359 356 360
f 357 362 358
f 361 362 357
f 359 360 363
f 467 359 363
f 465 359 467
f 363 360 364
f 361 366 362
f 365 366 361
f 363 364 367
f 453 363 367
f 467 363 453
f 367 364 368
f 365 370 366
f 369 370 365
f 367 368 375
f 455 367 375
f 453 367 455
f 375 368 376
f 369 372 370
f 371 372 369
f 371 378 372
f 377 378 371
f 373 376 374
f 373 374 379
f 375 376 373
f 445 375 373
f 447 373 379
f 445 373 447
f 379 374 380
f 455 375 445
f 377 382 378
f 381 382 377
f 379 380 383
f 437 379 383
f 447 379 437
f 383 380 384
f 381 386 382
f 385 386 381
f 383 384 391
f 439 383 391
f 437 383 439
f 391 384 392
f 385 388 386
f 387 388 385
f 387 394 388
f 393 394 387
f 389 392 390
f 389 390 395
f 391 392 389
f 429 391 389
f 431 389 395
f 429 389 431
f 395 390 396
f 439 391 429
f 393 398 394
f 397 398 393
f 395 396 399
f 423 395 399
f 431 395 423
f 399 396 400
f 397 402 398
f 401 402 397
f 399 400 403
f 417 399 403
f 423 399 417
f 403 400 404
f 401 406 402
f 405 406 401
f 403 404 411
f 419 403 411
f 417 403 419
f 411 404 412
f 405 408 406
f 407 408 405
f 407 414 408
f 413 414 407
f 409 412 410
f 409 410 419
f 411 412 409
f 419 411 409
f 419 410 420
f 413 416 414
f 415 416 413
f 415 422 416
f 421 422 415
f 417 420 418
f 417 418 423
f 419 420 417
f 423 418 424
f 421 426 422
f 425 426 421
f 423 424 431
f 431 424 432
f 425 428 426
f 427 428 425
f 427 434 428
f 433 434 427
f 429 432 430
f 429 430 439
f 431 432 429
f 439 430 440
f 433 436 434
f 435 436 433
f 435 442 436
f 441 442 435
f 437 440 438
f 437 438 447
f 439 440 437
f 447 438 448
f 441 444 442
f 443 444 441
f 443 450 444
f 449 450 443
f 445 448 446
f 445 446 455
f 447 448 445
f 455 446 456
f 449 452 450
f 451 452 449
f 451 458 452
f 457 458 451
f 453 456 454
f 453 454 467
f 455 456 453
f 467 454 468
f 457 460 458
f 459 460 457
f 459 462 460
f 461 462 459
f 461 470 462
f 469 470 461
f 463 466 464
f 463 464 479
f 465 466 463
f 479 464 480
f 465 468 466
f 467 468 465
f 469 472 470
f 471 472 469
f 471 474 472
f 473 474 471
f 473 482 474
f 481 482 473
f 475 478 476
f 475 476 511
f 477 478 475
f 511 476 512
f 477 480 478
f 479 480 477
f 481 484 482
f 483 484 481
f 483 486 484
f 485 486 483
f 485 488 486
f 487 488 485
f 487 490 488
f 489 490 487
f 489 492 490
f 491 492 489
f 491 494 492
f 493 494 491
f 493 496 494
f 495 496 493
f 495 514 496
f 513 514 495
f 497 500 498
f 497 498 513
f 499 500 497
f 513 498 514
f 499 502 500
f 501 502 499
f 501 504 502
f 503 504 501
f 503 506 504
f 505 506 503
f 505 508 506
f 507 508 505
f 507 510 508
f 509 510 507
f 509 512 510
f 511 512 509
