v 0.035433691 0.0057352047 0.0255920887
v 0.0354027729 0.00570429134 0.0259031749
v 0.0353902035 0.00569171715 0.0260592437
v 0.0353708439 0.00567235756 0.0263721919
v 0.0353640633 0.00566557693 0.026528976
v 0.0353563099 0.00565782356 0.0268429279
v 0.0353553371 0.00565685558 0.0270000005
v 0.0353592186 0.00566073227 0.0273140955
v 0.0353708439 0.00567235756 0.027627809
v 0.0353795605 0.00568106937 0.0277844024
v 0.0354027729 0.00570429134 0.0280968237
v 0.0354172688 0.00571878719 0.0282525587
v 0.0354944115 0.00579592037 0.0251287937
v 0.0354722672 0.00577377605 0.0252827191
v 0.0354520206 0.00575353909 0.0285628343
v 0.0354944115 0.00579592037 0.0288712049
v 0.0356668167 0.00596833038 0.0242188478
v 0.0356334095 0.00593492794 0.0243686557
v 0.0356018715 0.00590338516 0.0245192647
v 0.0355443745 0.00584589291 0.0248227024
v 0.0355184441 0.0058199625 0.0290245605
v 0.0355721836 0.00587370205 0.0293293715
v 0.0356334095 0.00593492794 0.0296313453
v 0.0356668167 0.00596833038 0.0297811532
v 0.0357391338 0.00604064751 0.0239218187
v 0.035702055 0.00600357342 0.0240698862
v 0.035702055 0.00600357342 0.0299301124
v 0.0357391338 0.00604064751 0.0300781822
v 0.0359055309 0.00620704937 0.0233393693
v 0.035818737 0.00612025547 0.02362854
v 0.0357780342 0.00607954788 0.0237746882
v 0.0357780342 0.00607954788 0.0302253127
v 0.035818737 0.00612025547 0.0303714585
v 0.0358612423 0.00616275597 0.0305165792
v 0.0359994106 0.0063009243 0.0230546594
v 0.0359515934 0.00625310707 0.0308035636
v 0.0361532574 0.00645477104 0.022636714
v 0.0361002522 0.00640177059 0.022774756
v 0.0360489731 0.00635048676 0.0310859156
v 0.0361532574 0.00645477104 0.031363287
v 0.0362079506 0.00650946426 0.0225
v 0.0362079506 0.00650946426 0.031500001
v 0.0364433365 0.00674485016 0.0219672632
v 0.0363820343 0.00668354797 0.022098248
v 0.0362643223 0.00656583595 0.0223646569
v 0.0362643223 0.00656583595 0.0316353416
v 0.0363223534 0.0066238718 0.0317692733
v 0.0364433365 0.00674485016 0.0320327353
v 0.0366368179 0.0069383316 0.0215836644
v 0.0365062504 0.00680776405 0.0218378115
v 0.0365062504 0.00680776405 0.0321621871
v 0.0365707474 0.00687226105 0.0322900677
v 0.0367044334 0.00700594711 0.0214590478
v 0.0367044334 0.00700594711 0.0325409532
v 0.0367734318 0.00424651909 0.0266859055
v 0.0367705231 0.00424361038 0.0268429279
v 0.0367695503 0.0042426424 0.0270000005
v 0.0367734318 0.00424651909 0.0273140955
v 0.0369863968 0.00445948887 0.0246706295
v 0.0369585876 0.00443167973 0.0248227024
v 0.0369086246 0.00438170719 0.0251287937
v 0.0368864803 0.00435956287 0.0252827191
v 0.0368479042 0.00432099152 0.0255920887
v 0.0368169861 0.00429007816 0.0259031749
v 0.0368044167 0.00427750397 0.0260592437
v 0.0367850571 0.00425814438 0.0263721919
v 0.0367782764 0.00425136375 0.026528976
v 0.0367782764 0.00425136375 0.0274710226
v 0.0367850571 0.00425814438 0.027627809
v 0.0367937737 0.00426685619 0.0277844024
v 0.0368169861 0.00429007816 0.0280968237
v 0.0368314819 0.00430457401 0.0282525587
v 0.0368662338 0.0043393259 0.0285628343
v 0.0369086246 0.00438170719 0.0288712049
v 0.0369326572 0.00440574932 0.0290245605
v 0.0369863968 0.00445948887 0.0293293715
v 0.0369163589 0.00721787262 0.021095469
v 0.0367735748 0.0070750885 0.0213361168
v 0.0367735748 0.0070750885 0.0326638842
v 0.036844223 0.00714573669 0.032785089
v 0.036989954 0.00729147243 0.0209778237
v 0.036989954 0.00729147243 0.0330221748
v 0.0370160847 0.00448917198 0.0245192647
v 0.0370160847 0.00448917198 0.0294807363
v 0.0372329502 0.00470603752 0.02362854
v 0.0371922474 0.00466532993 0.0237746882
v 0.0371162682 0.00458936024 0.0240698862
v 0.0370476322 0.00452071476 0.0243686557
v 0.0370476322 0.00452071476 0.0296313453
v 0.0370810299 0.0045541172 0.0297811532
v 0.037153347 0.00462643433 0.0300781822
v 0.0372329502 0.00470603752 0.0303714585
v 0.0371414452 0.0074429636 0.0207480741
v 0.0370649891 0.00736650753 0.0208620143
v 0.0370649891 0.00736650753 0.0331379843
v 0.0371414452 0.0074429636 0.0332519245
v 0.0372193031 0.0075208168 0.0206360388
v 0.0372193031 0.0075208168 0.0333639622
v 0.0372754555 0.00474854279 0.0234834194
v 0.0372754555 0.00474854279 0.0305165792
v 0.0374631863 0.00493626881 0.0229140854
v 0.0374136238 0.00488671112 0.0230546594
v 0.0373197441 0.00479283619 0.0233393693
v 0.0373197441 0.00479283619 0.0306606293
v 0.0373658066 0.00483889389 0.0308035636
v 0.0374631863 0.00493626881 0.0310859156
v 0.0373790913 0.00768060493 0.0204178166
v 0.0372985249 0.00760003853 0.0205259418
v 0.0372985249 0.00760003853 0.0334740591
v 0.0373790913 0.00768060493 0.0335821843
v 0.0374609833 0.00776249218 0.0203116965
v 0.0374609833 0.00776249218 0.0336883044
v 0.0375144653 0.00498755741 0.022774756
v 0.0375144653 0.00498755741 0.031225245
v 0.0377365665 0.00520965862 0.0222307277
v 0.0376785355 0.00515162277 0.0223646569
v 0.0376221638 0.00509525108 0.0225
v 0.0375674706 0.00504055786 0.031363287
v 0.0376221638 0.00509525108 0.031500001
v 0.0377365665 0.00520965862 0.0317692733
v 0.0376286201 0.00793013859 0.0201056004
v 0.0375441628 0.00784568119 0.0337923861
v 0.0377143269 0.0080158453 0.0200056863
v 0.0377143269 0.0080158453 0.0339943147
v 0.0379849606 0.00545804787 0.0217099333
v 0.0379204636 0.00539355087 0.0218378115
v 0.0377962475 0.00526933479 0.022098248
v 0.0377962475 0.00526933479 0.0319017506
v 0.0378575497 0.00533063698 0.0320327353
v 0.0379849606 0.00545804787 0.0322900677
v 0.0378893738 0.00819088745 0.0198122799
v 0.0378012543 0.00810276794 0.0340920973
v 0.0379786568 0.00828017521 0.0197188473
v 0.0379786568 0.00828017521 0.0342811537
v 0.038187788 0.00566087532 0.0213361168
v 0.0380510311 0.00552411842 0.0215836644
v 0.0380510311 0.00552411842 0.0324163342
v 0.0381186466 0.00559173393 0.0325409532
v 0.0381606178 0.0084621315 0.0195386624
v 0.0380690842 0.00837059784 0.0343723679
v 0.0382584362 0.00573152351 0.0212149119
v 0.0382584362 0.00573152351 0.032785089
v 0.0384792118 0.00595229435 0.0208620143
v 0.0383305721 0.00580365944 0.021095469
v 0.0383305721 0.00580365944 0.032904532
v 0.0384041672 0.00587725925 0.0330221748
v 0.038441618 0.00874313164 0.0192854941
v 0.0382532387 0.00855475235 0.0345480347
v 0.038712738 0.00618582058 0.0205259418
v 0.0385556679 0.00602875042 0.0332519245
v 0.0386339931 0.00893550682 0.0191284227
v 0.0385373192 0.00883883286 0.0347942281
v 0.0387316017 0.00903311539 0.0190534711
v 0.0387316017 0.00903311539 0.0349465275
v 0.0389583759 0.00643146801 0.0202076149
v 0.0388751965 0.006348279 0.0203116965
v 0.0387933044 0.00626639175 0.0335821843
v 0.0389583759 0.00643146801 0.0337923861
v 0.0389295273 0.00923103619 0.0189108539
v 0.0388301258 0.00913163948 0.0350190592
v 0.0392154675 0.00668855476 0.0199079037
v 0.03912854 0.00660163212 0.0200056863
v 0.0390428429 0.00651592541 0.0338944006
v 0.0392154675 0.00668855476 0.0340920973
v 0.0391308479 0.00943235683 0.0187780905
v 0.0390297775 0.0093312912 0.0351567698
v 0.0392327003 0.00953421879 0.0187154567
v 0.0392327003 0.00953421879 0.035284543
v 0.0394832973 0.00695638466 0.0196276319
v 0.039303587 0.00677667427 0.0198122799
v 0.039303587 0.00677667427 0.0341877198
v 0.0393928699 0.00686595726 0.0342811537
v 0.0394386559 0.00974017429 0.0185977757
v 0.0393353157 0.00963683414 0.0353446555
v 0.0396674519 0.00714053917 0.0194519651
v 0.039574831 0.00704791832 0.0195386624
v 0.039574831 0.00704791832 0.0344613385
v 0.0396674519 0.00714053917 0.0345480347
v 0.0396473961 0.00994891453 0.0184903324
v 0.0395427017 0.00984421062 0.0185427666
v 0.0395427017 0.00984421062 0.0354572344
v 0.0396473961 0.00994891453 0.0355096674
v 0.0397611313 0.00723421383 0.0193675673
v 0.0397611313 0.00723421383 0.0346324325
v 0.0399515324 0.00742461967 0.0192057717
v 0.0398558311 0.00732891846 0.0192854941
v 0.0398558311 0.00732891846 0.0347145057
v 0.0399515324 0.00742461967 0.0347942281
v 0.039858654 0.0101601725 0.0183932567
v 0.0397527294 0.0100542431 0.0355595088
v 0.0399651508 0.0102666693 0.018348645
v 0.0399651508 0.0102666693 0.0356513548
v 0.040244339 0.00771742153 0.0189809418
v 0.0401458149 0.00761890221 0.0190534711
v 0.0400482063 0.00752129364 0.0348715782
v 0.040244339 0.00771742153 0.0350190592
v 0.040179718 0.0104812317 0.0182673383
v 0.0400721817 0.0103737001 0.0356933331
v 0.0404439907 0.00791707325 0.01884323
v 0.0403437405 0.00781682301 0.0350891471
v 0.0403961544 0.0106976728 0.018196671
v 0.0402877216 0.0105892353 0.0357693315
v 0.0407495289 0.00822262096 0.0186553454
v 0.0405450611 0.00801814365 0.0187780905
v 0.0405450611 0.00801814365 0.0352219081
v 0.0406469135 0.00812000561 0.035284543
v 0.040614212 0.0109157257 0.0181367302
v 0.0406482391 0.0109497528 0.0262282157
v 0.0405760555 0.0108775692 0.0264746714
v 0.0405320148 0.0108335333 0.0267340612
v 0.0405174046 0.0108189182 0.0269703317
v 0.0405172138 0.0108187323 0.0270000005
v 0.0405697422 0.0108712606 0.0274970317
v 0.0406388741 0.0109403925 0.0277452302
v 0.0406889133 0.0109904318 0.0278755641
v 0.0405049973 0.0108065157 0.0358346438
v 0.0407237606 0.0110252743 0.0181108046
v 0.0406998806 0.0110013943 0.0260991383
v 0.0407467918 0.0110483103 0.0279992342
v 0.0407237606 0.0110252743 0.035889194
v 0.0409569149 0.00842999744 0.0185427666
v 0.0408528786 0.00832596111 0.0354022241
v 0.0409437256 0.011245244 0.0180670846
v 0.0409118347 0.0112133484 0.0204915786
v 0.0408547287 0.0111562471 0.0207401109
v 0.0408354168 0.0111369305 0.020999999
v 0.0408516579 0.0111531715 0.0212385106
v 0.0409056835 0.0112071972 0.0214884138
v 0.0409462337 0.0112477522 0.0216060114
v 0.0409149532 0.0112164669 0.0257366538
v 0.0407592754 0.0110607891 0.0259769154
v 0.0408994846 0.0112009983 0.0282433009
v 0.0409466152 0.0112481337 0.0283022761
v 0.0409118347 0.0112133484 0.0324915791
v 0.0408547287 0.0111562471 0.0327401114
v 0.0408354168 0.0111369305 0.0329999995
v 0.0408516579 0.0111531715 0.0332385111
v 0.0409056835 0.0112071972 0.0334884143
v 0.0409462337 0.0112477522 0.0336060119
v 0.0408336048 0.0111351233 0.0359124136
v 0.0409538345 0.0112553482 0.020374999
v 0.0409952621 0.0112967806 0.0217169714
v 0.0409628086 0.0112643223 0.0256788516
v 0.0409958725 0.0112973862 0.0283576798
v 0.0409538345 0.0112553482 0.0323749995
v 0.0409952621 0.0112967806 0.0337169695
v 0.0411669426 0.00864002991 0.018440491
v 0.0410616093 0.00853469658 0.0355096674
v 0.0411646442 0.0114661579 0.0180342472
v 0.041013401 0.0113149147 0.0202477312
v 0.0410042267 0.0113057404 0.0202652693
v 0.0410042267 0.0113057404 0.0217347312
v 0.0411873703 0.0114888792 0.0219982934
v 0.0411549549 0.0114564734 0.0254989886
v 0.0410127335 0.0113142471 0.025624671
v 0.0411365204 0.0114380341 0.0284868526
v 0.0411923389 0.0114938574 0.0285279489
v 0.041013401 0.0113149147 0.0322477317
v 0.0410042267 0.0113057404 0.0322652674
v 0.0410042267 0.0113057404 0.0337347317
v 0.0411873703 0.0114888792 0.0339982939
v 0.0410540848 0.0113555984 0.0359506965
v 0.0411997681 0.0115012817 0.0199887288
v 0.0412379055 0.0115394192 0.0220483375
v 0.0412112789 0.0115127926 0.0254592776
v 0.0412496071 0.0115511255 0.0285648584
v 0.0411997681 0.0115012817 0.031988728
v 0.0412379055 0.0115394192 0.0340483379
v 0.0412728672 0.00874595928 0.0183932567
v 0.0412728672 0.00874595928 0.0356067419
v 0.0414863949 0.00895948696 0.0183066678
v 0.041379364 0.00885245609 0.0356513548
v 0.04138624 0.0116877537 0.0180123341
v 0.0412509136 0.0115524273 0.01993994
v 0.0414461689 0.0117476826 0.0221888208
v 0.0412689953 0.011570509 0.0254237866
v 0.0414284878 0.0117300062 0.0286495018
v 0.0412509136 0.0115524273 0.0319399405
v 0.0414461689 0.0117476826 0.0341888213
v 0.0412753754 0.011576889 0.0359780765
v 0.0414972 0.0117987185 0.0180054832
v 0.0414608746 0.011762393 0.0198046196
v 0.0414905338 0.0117920475 0.022207408
v 0.0414488869 0.0117504053 0.0253435707
v 0.041489933 0.0117914467 0.028668766
v 0.0414608746 0.011762393 0.0318046188
v 0.0414905338 0.0117920475 0.0342074084
v 0.0414972 0.0117987185 0.0359945178
v 0.0417019348 0.00917502213 0.0182306695
v 0.0415939312 0.00906701851 0.0182673383
v 0.0415939312 0.00906701851 0.0357326627
v 0.0417019348 0.00917502213 0.0357693315
v 0.0416082363 0.01190975 0.0180013704
v 0.0415054684 0.0118069868 0.0197871304
v 0.0416884499 0.0119899683 0.0222492385
v 0.041510561 0.0118120747 0.0253258276
v 0.0416983204 0.0119998341 0.0286997414
v 0.0415054684 0.0118069868 0.0317871308
v 0.0416884499 0.0119899683 0.034249239
v 0.0416082363 0.01190975 0.0359986281
v 0.0417193012 0.0120208149 0.0179999995
v 0.0417038708 0.0120053892 0.019750191
v 0.0417347221 0.0120362406 0.0222498107
v 0.0417193012 0.0120208149 0.0252999997
v 0.0417402821 0.0120417957 0.0286997414
v 0.0417193012 0.0120208149 0.0317499995
v 0.0417038708 0.0120053892 0.0317501903
v 0.0417347221 0.0120362406 0.0342498088
v 0.0417193012 0.0120208149 0.035999999
v 0.0419192104 0.00939230251 0.0181653559
v 0.0419902687 0.00946335602 0.0264746714
v 0.041946228 0.00941932011 0.0267340612
v 0.0419316177 0.00940470505 0.0269703317
v 0.0419314365 0.00940451908 0.0270000005
v 0.0419839554 0.00945704746 0.0274970317
v 0.0419969254 0.00947001266 0.0275534654
v 0.0418103676 0.00928345966 0.0358033276
v 0.0419414024 0.0122429161 0.0180054832
v 0.0417501431 0.0120516615 0.019750762
v 0.0419480686 0.0122495823 0.022207408
v 0.0417612534 0.012062767 0.0253010345
v 0.0419280415 0.0122295551 0.0286741734
v 0.0417501431 0.0120516615 0.0317507625
v 0.0419480686 0.0122495823 0.0342074084
v 0.0418303661 0.0121318798 0.0359986281
v 0.0419629269 0.0122644453 0.0197984231
v 0.0419924335 0.012293952 0.0221888208
v 0.0419486694 0.0122501831 0.0253312349
v 0.041989706 0.0122912245 0.0286564302
v 0.0419629269 0.0122644453 0.0317984223
v 0.0419924335 0.012293952 0.0341888213
v 0.0420039253 0.00947701263 0.0264185667
v 0.0420189648 0.00949205208 0.0276368308
v 0.042247818 0.00972091007 0.0180875874
v 0.04224963 0.00972271729 0.020999999
v 0.0422497635 0.0097228508 0.0210218143
v 0.0421734886 0.00964657593 0.0259769154
v 0.0420624523 0.00953553963 0.0262282157
v 0.0420269947 0.00950008202 0.0263357568
v 0.0420530872 0.00952617931 0.0277452302
v 0.042161005 0.0096340971 0.0279992342
v 0.0422401886 0.00971328068 0.0281375217
v 0.04224963 0.00972271729 0.0329999995
v 0.0422497635 0.0097228508 0.0330218148
v 0.0420284252 0.00950151253 0.0358632708
v 0.0421632271 0.0124647408 0.0180219233
v 0.0420070629 0.0123085814 0.0198181021
v 0.0421876888 0.0124892025 0.0220600605
v 0.0420101147 0.0123116236 0.0253504968
v 0.0421889954 0.0124905043 0.0285648584
v 0.0420070629 0.0123085814 0.0318181014
v 0.0421876888 0.0124892025 0.034060061
v 0.0420523624 0.0123538809 0.0359876657
v 0.0422006969 0.0125022106 0.0199516618
v 0.0422388344 0.0125403481 0.0220112705
v 0.042208231 0.0125097446 0.0254469728
v 0.042246254 0.0125477724 0.0285279489
v 0.0422006969 0.0125022106 0.0319516611
v 0.0422388344 0.0125403481 0.034011271
v 0.0422689419 0.00974203396 0.0207401109
v 0.042250164 0.00972325611 0.0209563756
v 0.042265871 0.00973895836 0.0212385106
v 0.0422758846 0.00974897194 0.021302402
v 0.0422543697 0.00972745705 0.0258406019
v 0.0422688084 0.00974189568 0.0281809187
v 0.0422758846 0.00974897194 0.0326975965
v 0.042265871 0.00973895836 0.032761488
v 0.042250164 0.00972325611 0.0330436254
v 0.0422689419 0.00974203396 0.0332598901
v 0.042468298 0.00994138527 0.0180493033
v 0.0424276142 0.00990070152 0.0202477312
v 0.0423260479 0.00979913521 0.0204915786
v 0.042279747 0.00975283432 0.020676477
v 0.0423198967 0.00979298401 0.0214884138
v 0.0424184399 0.00989152718 0.0217347312
v 0.0424976997 0.00997078705 0.0218683219
v 0.0423291664 0.00980225372 0.0257366538
v 0.042283514 0.00975660133 0.0257979178
v 0.0423136978 0.00978678513 0.0282433009
v 0.0424965076 0.00996959496 0.0284416819
v 0.0424976997 0.00997078705 0.0321316767
v 0.0424184399 0.00989152718 0.0322652674
v 0.0423198967 0.00979298401 0.0325115871
v 0.042279747 0.00975283432 0.033323524
v 0.0423260479 0.00979913521 0.03350842
v 0.0424276142 0.00990070152 0.0337522697
v 0.0423579388 0.00983103085 0.0359329152
v 0.0423845177 0.0126860313 0.0180493033
v 0.0422512321 0.0125527506 0.0200017047
v 0.0424343758 0.0127358942 0.0202652693
v 0.0424433308 0.0127448492 0.0217169714
v 0.0424252014 0.0127267151 0.0217522693
v 0.0422650318 0.0125665503 0.0254852891
v 0.0423020821 0.0126035957 0.0255131459
v 0.0424427299 0.0127442436 0.0283576798
v 0.0422836475 0.0125851564 0.0285010099
v 0.0422512321 0.0125527506 0.0320017052
v 0.0424343758 0.0127358942 0.0322652674
v 0.0424433308 0.0127448492 0.0337169695
v 0.0424252014 0.0127267151 0.0337522697
v 0.0422739582 0.0125754719 0.0359657526
v 0.0424948673 0.0127963858 0.0180670846
v 0.042452076 0.0127535896 0.0203010082
v 0.0424997215 0.01280124 0.0215868402
v 0.0424593716 0.01276089 0.0256603813
v 0.0424919872 0.0127934961 0.0283022761
v 0.042452076 0.0127535896 0.0323010087
v 0.0424997215 0.01280124 0.0335868406
v 0.0424948673 0.0127963858 0.0359329152
v 0.0425085144 0.00998160172 0.020116117
v 0.0425195198 0.00999260235 0.0218991756
v 0.0425143986 0.00998748589 0.0255428147
v 0.0425143986 0.00998748589 0.0284571838
v 0.0425195198 0.00999260235 0.0321008253
v 0.0425085144 0.00998160172 0.033883884
v 0.0426895885 0.0101626759 0.0180219233
v 0.0426139812 0.0100870686 0.0199887288
v 0.0425307064 0.0100037937 0.0200858068
v 0.0426015835 0.010074666 0.0219982934
v 0.0427460461 0.0102191334 0.0221234918
v 0.0425691681 0.0100422602 0.0254989886
v 0.0425324707 0.0100055628 0.0255277562
v 0.0425507336 0.0100238209 0.0284868526
v 0.0427421551 0.0102152424 0.0286073804
v 0.0427460461 0.0102191334 0.0318765068
v 0.0426015835 0.010074666 0.0320017052
v 0.0425307064 0.0100037937 0.0339141917
v 0.0426139812 0.0100870686 0.034011271
v 0.0425788574 0.0100519447 0.0359657526
v 0.0426049881 0.0129065065 0.0180875874
v 0.0425068455 0.0128083591 0.0204325128
v 0.0425329189 0.0128344326 0.0205115867
v 0.0425869446 0.0128884583 0.0207614899
v 0.0426030521 0.0129045658 0.0210218143
v 0.0425838642 0.0128853827 0.0212598896
v 0.0425267677 0.0128282814 0.0215084219
v 0.0425079327 0.0128094511 0.0257169938
v 0.0425391178 0.0128406315 0.0257566977
v 0.0426918011 0.0129933195 0.0260007644
v 0.0426918011 0.0129933195 0.0279992342
v 0.042679327 0.0129808407 0.0280230856
v 0.0425236492 0.0128251629 0.0282633471
v 0.0425068455 0.0128083591 0.0324325109
v 0.0425329189 0.0128344326 0.0325115871
v 0.0425869446 0.0128884583 0.032761488
v 0.0426030521 0.0129045658 0.0330218148
v 0.0425838642 0.0128853827 0.0332598901
v 0.0425267677 0.0128282814 0.03350842
v 0.0426049881 0.0129065065 0.0359124136
v 0.0427148418 0.0130163603 0.0181108046
v 0.042703989 0.0130055027 0.0260249209
v 0.0427496891 0.013051198 0.0278755641
v 0.0427148418 0.0130163603 0.035889194
v 0.0427599697 0.010233057 0.019867115
v 0.0427740078 0.0102470951 0.0221419311
v 0.0427620487 0.010235136 0.025383203
v 0.0427620487 0.010235136 0.0286167955
v 0.0427740078 0.0102470951 0.0318580675
v 0.0427599697 0.010233057 0.0341328835
v 0.0429114132 0.0103845005 0.0180054832
v 0.0427881508 0.0102612429 0.0198493695
v 0.0429952412 0.0104683332 0.0222346115
v 0.0427820568 0.0102551489 0.0253742814
v 0.0429870205 0.010460103 0.0286873293
v 0.0429952412 0.0104683332 0.0317653894
v 0.0427881508 0.0102612429 0.0341506314
v 0.0428004532 0.0102735357 0.0359876657
v 0.0429336052 0.0132351141 0.0181653559
v 0.0427603321 0.0130618505 0.0261500001
v 0.0427997284 0.0131012373 0.0262547684
v 0.0428688602 0.0131703739 0.0265029693
v 0.042909687 0.0132111959 0.0267634058
v 0.0429213791 0.0132228975 0.0270000005
v 0.0429065781 0.0132080965 0.0272659397
v 0.0428625469 0.0131640606 0.0275253296
v 0.0427903633 0.013091877 0.0277717829
v 0.0428243904 0.0131259041 0.0358632708
v 0.0430224495 0.0104955368 0.0180013704
v 0.0430105 0.0104835873 0.0197621644
v 0.0430257969 0.0104988842 0.0222406816
v 0.0430078583 0.0104809504 0.0253093123
v 0.0430078583 0.0104809504 0.0286906862
v 0.0430257969 0.0104988842 0.0317593169
v 0.0430105 0.0104835873 0.0342378354
v 0.0430224495 0.0104955368 0.0359986281
v 0.0431335144 0.0106066017 0.0179999995
v 0.0432445793 0.0107176666 0.0180013704
v 0.0430411224 0.0105142097 0.0197568476
v 0.0432412319 0.0107143192 0.0222406816
v 0.0430287437 0.0105018311 0.025306468
v 0.0432382851 0.0107113724 0.0286935306
v 0.0431335144 0.0106066017 0.0317499995
v 0.0432412319 0.0107143192 0.0317593169
v 0.0430411224 0.0105142097 0.0342431521
v 0.0431335144 0.0106066017 0.035999999
v 0.0431508808 0.0134523945 0.0182306695
v 0.0430424385 0.0133439569 0.0358033276
v 0.0432565289 0.0107296162 0.0197621644
v 0.0432717876 0.0107448702 0.0222346115
v 0.043259161 0.0107322531 0.0253093123
v 0.043259161 0.0107322531 0.0286906862
v 0.0432717876 0.0107448702 0.0317653894
v 0.0432565289 0.0107296162 0.0342378354
v 0.0434665756 0.0109396677 0.0180123341
v 0.0432869987 0.0107600861 0.0197689903
v 0.043493021 0.0109661083 0.0221419311
v 0.0432800083 0.0107531004 0.0253126717
v 0.043484972 0.0109580545 0.0286257172
v 0.043493021 0.0109661083 0.0318580675
v 0.0432869987 0.0107600861 0.0342310095
v 0.0433556156 0.0108287029 0.0359945178
v 0.0433664112 0.0136679296 0.0183066678
v 0.0432588844 0.0135603981 0.0357326627
v 0.0434734421 0.0137749605 0.018348645
v 0.0434734421 0.0137749605 0.0356513548
v 0.0435070591 0.0109801464 0.019867115
v 0.0435209827 0.0109940701 0.0221234918
v 0.0435049801 0.0109780674 0.025383203
v 0.0435248737 0.010997961 0.0286073804
v 0.0435209827 0.0109940701 0.0318765068
v 0.0435070591 0.0109801464 0.0341328835
v 0.0436881714 0.0111612587 0.0180342472
v 0.0435347919 0.0110078745 0.0198862422
v 0.0436654453 0.0111385374 0.0200017047
v 0.043747509 0.0112206011 0.0218991756
v 0.0436530476 0.0111261349 0.0220112705
v 0.0435446529 0.0110177355 0.0254025221
v 0.0437162952 0.0111893826 0.0255131459
v 0.0437345581 0.0112076406 0.0284722424
v 0.0436978607 0.0111709433 0.0285010099
v 0.0436530476 0.0111261349 0.031988728
v 0.043747509 0.0112206011 0.0321008253
v 0.0436654453 0.0111385374 0.0339982939
v 0.0435347919 0.0110078745 0.0341137576
v 0.0435774403 0.0110505276 0.0359780765
v 0.043685873 0.0139873867 0.018440491
v 0.0435799389 0.0138814573 0.0356067419
v 0.0437585144 0.0112316017 0.020116117
v 0.0437693291 0.0112424164 0.0218683219
v 0.0437526302 0.0112257175 0.0255428147
v 0.0437705212 0.0112436085 0.0284416819
v 0.0437693291 0.0112424164 0.0321316767
v 0.0437585144 0.0112316017 0.033883884
v 0.04390909 0.0113821726 0.0180670846
v 0.0437799435 0.0112530355 0.0201475024
v 0.0438485889 0.0113216763 0.0202652693
v 0.0439471321 0.0114202194 0.0205115867
v 0.0439980774 0.0114711695 0.0212598896
v 0.0439409809 0.0114140682 0.0215084219
v 0.0438394146 0.0113125019 0.0217522693
v 0.0437882118 0.0112613039 0.0255742598
v 0.043953331 0.0114264183 0.0257566977
v 0.0439982204 0.0114713078 0.0281809187
v 0.0439378624 0.0114109497 0.0282633471
v 0.0438394146 0.0113125019 0.0322477317
v 0.0439409809 0.0114140682 0.0324915791
v 0.0439980774 0.0114711695 0.0327401114
v 0.0439471321 0.0114202194 0.0334884143
v 0.0438485889 0.0113216763 0.0337347317
v 0.0437799435 0.0112530355 0.0338524985
v 0.0437987309 0.0112718182 0.0359506965
v 0.0437912064 0.01409272 0.0184903324
v 0.0438959007 0.0141974192 0.0185427666
v 0.0438959007 0.0141974192 0.0354572344
v 0.0437912064 0.01409272 0.0355096674
v 0.0439999371 0.0143014555 0.0185977757
v 0.0439999371 0.0143014555 0.0354022241
v 0.0440192013 0.0114922934 0.0180875874
v 0.0440011578 0.0114742451 0.0207614899
v 0.0440172653 0.0114903526 0.0210218143
v 0.0440126591 0.0114857464 0.0258406019
v 0.0440268307 0.0114999228 0.0281375217
v 0.0440173988 0.0114904861 0.0329999995
v 0.0440011578 0.0114742451 0.0332385111
v 0.0440192013 0.0114922934 0.0359124136
v 0.0442386036 0.0117116909 0.0181367302
v 0.0440407352 0.0115138226 0.0258846998
v 0.0441060143 0.0115791063 0.0260007644
v 0.0442139416 0.0116870241 0.0262547684
v 0.044248064 0.0117211514 0.0276368308
v 0.0442045765 0.0116776638 0.0277717829
v 0.0440935402 0.0115666275 0.0280230856
v 0.044129055 0.0116021423 0.035889194
v 0.0441032772 0.0144047956 0.0186553454
v 0.0441032772 0.0144047956 0.0353446555
v 0.0442059021 0.014507411 0.0187154567
v 0.0442059021 0.014507411 0.035284543
v 0.0442557507 0.0117288427 0.0263907743
v 0.0442767601 0.0117498474 0.0275253296
v 0.0444566517 0.0119297438 0.018196671
v 0.0442830734 0.011756156 0.0265029693
v 0.0443239002 0.0117969828 0.0267634058
v 0.0443355923 0.0118086843 0.0270000005
v 0.0443207912 0.0117938833 0.0272659397
v 0.0443478184 0.0118209009 0.0358346438
v 0.0444088249 0.0147103434 0.01884323
v 0.0443077545 0.014609273 0.0352219081
v 0.044565094 0.0120381813 0.0182306695
v 0.0446730976 0.0121461849 0.0182673383
v 0.0446730976 0.0121461849 0.0357326627
v 0.044565094 0.0120381813 0.0357693315
v 0.0446084766 0.0149099951 0.0189809418
v 0.0445090752 0.0148105936 0.0350891471
v 0.0447070007 0.0150085144 0.0190534711
v 0.0447070007 0.0150085144 0.0349465275
v 0.0449941521 0.0124672441 0.0183932567
v 0.0447806244 0.0122537165 0.0356933331
v 0.0449012833 0.0152027969 0.0192057717
v 0.0448046093 0.015106123 0.0348715782
v 0.0449969845 0.0152984982 0.0192854941
v 0.0449969845 0.0152984982 0.0347145057
v 0.0452054195 0.0126785069 0.0184903324
v 0.0451000862 0.0125731735 0.0355595088
v 0.0451853638 0.0154868774 0.0194519651
v 0.0450916843 0.0153932028 0.0346324325
v 0.0454141502 0.0128872423 0.0185977757
v 0.0453101139 0.012783206 0.0354572344
v 0.0453695183 0.015671032 0.0196276319
v 0.0452779846 0.0155794983 0.0344613385
v 0.0454599457 0.0157614594 0.0197188473
v 0.0454599457 0.0157614594 0.0342811537
v 0.0455174999 0.0129905825 0.0186553454
v 0.0455174999 0.0129905825 0.0353446555
v 0.0456201153 0.0130931978 0.0187154567
v 0.0457219677 0.0131950598 0.0187780905
v 0.0457219677 0.0131950598 0.0352219081
v 0.0456201153 0.0130931978 0.035284543
v 0.0456373482 0.0159388618 0.0199079037
v 0.0455492287 0.0158507423 0.0341877198
v 0.0457242661 0.0160257845 0.0200056863
v 0.0457242661 0.0160257845 0.0339943147
v 0.0459232883 0.0133963804 0.0189108539
v 0.0458230381 0.0132961302 0.0351567698
v 0.0458944302 0.0161959486 0.0202076149
v 0.0458099728 0.0161114912 0.0338944006
v 0.0459776192 0.0162791376 0.0203116965
v 0.0459776192 0.0162791376 0.0336883044
v 0.0460226898 0.0134957819 0.0189809418
v 0.0460226898 0.0134957819 0.0350190592
v 0.0462188225 0.0136919098 0.0191284227
v 0.0461212139 0.0135943012 0.0349465275
v 0.0460595112 0.0163610249 0.0204178166
v 0.0461400776 0.016441596 0.0205259418
v 0.0461400776 0.016441596 0.0334740591
v 0.0460595112 0.0163610249 0.0335821843
v 0.0462192993 0.016520813 0.0206360388
v 0.0462192993 0.016520813 0.0333639622
v 0.0463154964 0.0137885838 0.0192057717
v 0.0464111977 0.013884285 0.0192854941
v 0.0464111977 0.013884285 0.0347145057
v 0.0463154964 0.0137885838 0.0347942281
v 0.0462971478 0.0165986662 0.0207480741
v 0.0463736038 0.0166751223 0.0208620143
v 0.0463736038 0.0166751223 0.0331379843
v 0.0462971478 0.0165986662 0.0332519245
v 0.0464486485 0.0167501621 0.0209778237
v 0.0464486485 0.0167501621 0.0330221748
v 0.0465058975 0.0139789896 0.0193675673
v 0.0465058975 0.0139789896 0.0346324325
v 0.046599577 0.0140726643 0.0194519651
v 0.0466921978 0.0141652851 0.0195386624
v 0.0466921978 0.0141652851 0.0344613385
v 0.046599577 0.0140726643 0.0345480347
v 0.0465943794 0.0168958931 0.0212149119
v 0.0466650276 0.0169665413 0.0213361168
v 0.0466650276 0.0169665413 0.0326638842
v 0.0465222435 0.0168237572 0.032904532
v 0.046734169 0.0170356827 0.0214590478
v 0.046734169 0.0170356827 0.0325409532
v 0.0468741589 0.0143472462 0.0197188473
v 0.0469634418 0.0144365292 0.0198122799
v 0.0469634418 0.0144365292 0.0341877198
v 0.0467837315 0.0142568188 0.0343723679
v 0.0468678551 0.0171693687 0.0217099333
v 0.0469323521 0.0172338657 0.0218378115
v 0.0469323521 0.0172338657 0.0321621871
v 0.0468017845 0.0171032982 0.0324163342
v 0.046995266 0.0172967796 0.0219672632
v 0.046995266 0.0172967796 0.0320327353
v 0.0470515614 0.0145246487 0.0199079037
v 0.0472241859 0.014697278 0.0201056004
v 0.0471384888 0.0146115713 0.0339943147
v 0.0470515614 0.0145246487 0.0340920973
v 0.0471162491 0.017417758 0.0222307277
v 0.0471742802 0.0174757938 0.0223646569
v 0.0471742802 0.0174757938 0.0316353416
v 0.0470565681 0.0173580818 0.0319017506
v 0.0472306519 0.0175321655 0.0225
v 0.0472306519 0.0175321655 0.031500001
v 0.0473086433 0.0147817354 0.0202076149
v 0.0474737244 0.0149468117 0.0204178166
v 0.0473918324 0.0148649244 0.0336883044
v 0.0473086433 0.0147817354 0.0337923861
v 0.0472853451 0.0175868587 0.022636714
v 0.0473896294 0.0176911478 0.0229140854
v 0.0474391918 0.0177407055 0.0230546594
v 0.0474391918 0.0177407055 0.0309453392
v 0.0473383408 0.0176398592 0.031225245
v 0.0472853451 0.0175868587 0.031363287
v 0.047487009 0.0177885227 0.023196435
v 0.047487009 0.0177885227 0.0308035636
v 0.0477113609 0.015184453 0.0207480741
v 0.0475542908 0.0150273829 0.0334740591
v 0.0475773602 0.0178788738 0.0234834194
v 0.0476198654 0.0179213791 0.02362854
v 0.0476605682 0.0179620867 0.0237746882
v 0.0476605682 0.0179620867 0.0302253127
v 0.0476198654 0.0179213791 0.0303714585
v 0.0475330715 0.0178345852 0.0306606293
v 0.0476994686 0.0180009823 0.0239218187
v 0.0477365475 0.0180380564 0.0240698862
v 0.0477365475 0.0180380564 0.0299301124
v 0.0476994686 0.0180009823 0.0300781822
v 0.0478628616 0.0153359442 0.0209778237
v 0.0479364567 0.015409544 0.021095469
v 0.0479364567 0.015409544 0.032904532
v 0.047787817 0.0152609091 0.0331379843
v 0.0477717857 0.0180733042 0.0242188478
v 0.0478051834 0.0181067019 0.0243686557
v 0.0478664188 0.0181679277 0.0246706295
v 0.0479201488 0.0182216673 0.0249754405
v 0.047944191 0.0182457094 0.0251287937
v 0.047944191 0.0182457094 0.0288712049
v 0.047894228 0.0181957417 0.0291772962
v 0.047836731 0.0181382494 0.0294807363
v 0.0478051834 0.0181067019 0.0296313453
v 0.0477717857 0.0180733042 0.0297811532
v 0.0479865818 0.0182880955 0.0254371667
v 0.0479663353 0.0182678537 0.0287172818
v 0.0480085926 0.0154816799 0.0212149119
v 0.0480085926 0.0154816799 0.032785089
v 0.0481483822 0.0156214695 0.0214590478
v 0.0482159977 0.015689085 0.0215836644
v 0.0482159977 0.015689085 0.0324163342
v 0.0480792408 0.0155523281 0.0326638842
v 0.0480213242 0.0183228426 0.0257474422
v 0.0480358295 0.0183373384 0.0259031749
v 0.048059042 0.0183605604 0.0262155986
v 0.0480677586 0.0183692722 0.0263721919
v 0.0480793839 0.0183808975 0.0266859055
v 0.0480822926 0.0183838062 0.0268429279
v 0.0480832653 0.0183847742 0.0270000005
v 0.0480745392 0.0183760529 0.0274710226
v 0.0480677586 0.0183692722 0.027627809
v 0.048048399 0.0183499126 0.0279407573
v 0.0480358295 0.0183373384 0.0280968237
v 0.0480049114 0.0183064251 0.0284079099
v 0.0482820683 0.0157551556 0.0217099333
v 0.0484094791 0.0158825665 0.0219672632
v 0.0484707813 0.0159438686 0.022098248
v 0.0484707813 0.0159438686 0.0319017506
v 0.0483465652 0.0158196526 0.0321621871
v 0.0482820683 0.0157551556 0.0322900677
v 0.0485304623 0.0160035448 0.0222307277
v 0.0485884933 0.0160615807 0.0223646569
v 0.0486995583 0.0161726456 0.022636714
v 0.0486995583 0.0161726456 0.031363287
v 0.0485884933 0.0160615807 0.0316353416
v 0.0485304623 0.0160035448 0.0317692733
v 0.0487525539 0.016225646 0.022774756
v 0.0487525539 0.016225646 0.031225245
v 0.0488038425 0.0162769346 0.0229140854
v 0.0489012222 0.0163743095 0.023196435
v 0.0489915733 0.0164646606 0.0234834194
v 0.0489472847 0.0164203672 0.0306606293
v 0.048853405 0.0163264923 0.0309453392
v 0.0488038425 0.0162769346 0.0310859156
v 0.0490340786 0.0165071659 0.02362854
v 0.0491136818 0.0165867691 0.0239218187
v 0.0491859989 0.0166590862 0.0242188478
v 0.0492193966 0.0166924887 0.0243686557
v 0.0492193966 0.0166924887 0.0296313453
v 0.0491507607 0.0166238432 0.0299301124
v 0.0490747814 0.0165478735 0.0302253127
v 0.0490340786 0.0165071659 0.0303714585
v 0.0492509441 0.0167240314 0.0245192647
v 0.0492509441 0.0167240314 0.0294807363
v 0.049280632 0.0167537146 0.0246706295
v 0.049334362 0.0168074541 0.0249754405
v 0.0493584042 0.0168314962 0.0251287937
v 0.049400795 0.0168738775 0.0254371667
v 0.0494355373 0.0169086294 0.0257474422
v 0.0494500427 0.0169231253 0.0259031749
v 0.0494732552 0.0169463472 0.0262155986
v 0.0494819717 0.0169550591 0.0263721919
v 0.049493597 0.0169666843 0.0266859055
v 0.0494965057 0.016969593 0.0268429279
v 0.0494974785 0.016970561 0.0270000005
v 0.0494887524 0.0169618397 0.0274710226
v 0.0494819717 0.0169550591 0.027627809
v 0.0494626122 0.0169356995 0.0279407573
v 0.0494500427 0.0169231253 0.0280968237
v 0.0494191246 0.0168922119 0.0284079099
v 0.0493805485 0.0168536406 0.0287172818
v 0.0493584042 0.0168314962 0.0288712049
v 0.0493084412 0.0167815237 0.0291772962
v 0.049280632 0.0167537146 0.0293293715
f 63 2 1
f 2 231 1
f 62 1 14
f 1 265 14
f 63 1 62
f 1 231 230
f 1 230 243
f 1 243 255
f 1 255 254
f 1 254 265
f 64 3 2
f 3 231 2
f 64 2 63
f 65 4 3
f 4 208 3
f 65 3 64
f 3 208 218
f 3 218 231
f 66 5 4
f 5 209 4
f 66 4 65
f 209 208 4
f 55 6 5
f 6 210 5
f 55 5 67
f 67 5 66
f 5 210 209
f 56 7 6
f 7 211 6
f 56 6 55
f 6 211 210
f 57 8 7
f 8 212 7
f 57 7 56
f 7 212 211
f 68 9 8
f 9 213 8
f 58 8 57
f 68 8 58
f 213 212 8
f 69 10 9
f 10 214 9
f 69 9 68
f 9 214 213
f 70 11 10
f 11 219 10
f 70 10 69
f 10 215 214
f 219 215 10
f 71 12 11
f 12 232 11
f 71 11 70
f 11 232 219
f 72 15 12
f 15 256 12
f 72 12 71
f 12 233 232
f 244 233 12
f 256 244 12
f 61 14 13
f 14 304 13
f 60 13 20
f 13 304 20
f 61 13 60
f 62 14 61
f 14 265 276
f 14 276 284
f 14 284 296
f 14 296 304
f 73 16 15
f 723 15 16
f 73 15 72
f 257 256 15
f 266 257 15
f 15 277 266
f 15 285 277
f 15 297 285
f 15 305 297
f 729 305 15
f 729 15 723
f 74 21 16
f 724 16 21
f 74 16 73
f 723 16 724
f 87 18 17
f 18 304 17
f 87 17 26
f 17 304 26
f 88 19 18
f 19 304 18
f 88 18 87
f 59 20 19
f 20 304 19
f 59 19 83
f 83 19 88
f 60 20 59
f 75 22 21
f 725 21 22
f 75 21 74
f 724 21 725
f 84 23 22
f 726 22 23
f 76 22 75
f 84 22 76
f 725 22 726
f 89 24 23
f 727 23 24
f 89 23 84
f 726 23 727
f 90 27 24
f 712 24 27
f 90 24 89
f 727 24 712
f 86 26 25
f 26 304 25
f 86 25 31
f 25 304 31
f 87 26 86
f 90 28 27
f 713 27 28
f 712 27 713
f 91 32 28
f 707 28 32
f 91 28 90
f 713 28 707
f 99 30 29
f 30 304 29
f 102 29 35
f 29 304 35
f 99 29 103
f 103 29 102
f 85 31 30
f 31 304 30
f 85 30 99
f 86 31 85
f 91 33 32
f 708 32 33
f 707 32 708
f 92 34 33
f 709 33 34
f 92 33 91
f 708 33 709
f 104 36 34
f 701 34 36
f 100 34 92
f 104 34 100
f 709 34 701
f 101 35 38
f 35 304 38
f 102 35 101
f 105 39 36
f 698 36 39
f 105 36 104
f 697 36 698
f 701 36 697
f 117 38 37
f 38 304 37
f 117 37 41
f 37 304 41
f 101 38 113
f 113 38 117
f 114 40 39
f 699 39 40
f 106 39 105
f 114 39 106
f 698 39 699
f 118 42 40
f 689 40 42
f 118 40 114
f 699 40 689
f 116 41 45
f 41 304 45
f 117 41 116
f 119 46 42
f 686 42 46
f 119 42 118
f 689 42 686
f 126 44 43
f 44 253 43
f 126 43 50
f 43 253 50
f 115 45 44
f 45 253 44
f 115 44 127
f 127 44 126
f 116 45 115
f 304 253 45
f 119 47 46
f 306 46 47
f 306 687 46
f 686 46 687
f 128 48 47
f 48 278 47
f 120 47 119
f 128 47 120
f 278 286 47
f 286 298 47
f 47 298 307
f 47 307 306
f 129 51 48
f 51 258 48
f 129 48 128
f 48 258 267
f 48 267 278
f 125 50 49
f 50 252 49
f 135 49 53
f 49 242 53
f 125 49 136
f 136 49 135
f 49 252 242
f 126 50 125
f 50 253 252
f 129 52 51
f 52 258 51
f 137 54 52
f 54 234 52
f 130 52 129
f 137 52 130
f 234 245 52
f 52 245 259
f 259 258 52
f 135 53 78
f 53 242 78
f 138 79 54
f 79 235 54
f 138 54 137
f 235 234 54
f 312 56 55
f 312 55 67
f 313 57 56
f 313 56 312
f 57 314 58
f 314 57 313
f 58 315 68
f 314 315 58
f 59 421 60
f 83 421 59
f 60 421 61
f 61 421 62
f 421 63 62
f 378 64 63
f 378 63 377
f 377 63 412
f 412 63 422
f 422 63 421
f 337 65 64
f 337 64 364
f 364 64 378
f 338 66 65
f 338 65 337
f 332 67 66
f 332 66 339
f 339 66 338
f 312 67 311
f 311 67 332
f 68 315 69
f 69 333 70
f 69 315 316
f 316 333 69
f 70 341 71
f 70 333 340
f 70 340 341
f 71 342 72
f 341 342 71
f 72 380 73
f 72 342 365
f 72 365 379
f 72 379 380
f 73 794 74
f 380 413 73
f 73 413 423
f 423 424 73
f 73 424 457
f 457 464 73
f 73 464 482
f 482 491 73
f 73 491 794
f 74 795 75
f 74 794 795
f 75 796 76
f 75 795 796
f 76 797 84
f 76 796 797
f 141 78 77
f 78 242 77
f 143 77 81
f 77 242 81
f 141 77 144
f 144 77 143
f 135 78 141
f 138 80 79
f 80 235 79
f 145 82 80
f 82 236 80
f 142 80 138
f 145 80 142
f 236 235 80
f 143 81 94
f 81 229 94
f 81 242 229
f 146 95 82
f 95 237 82
f 146 82 145
f 237 236 82
f 88 421 83
f 84 777 89
f 84 797 777
f 85 421 86
f 99 421 85
f 86 421 87
f 87 421 88
f 89 772 90
f 89 777 772
f 90 773 91
f 90 772 773
f 91 774 92
f 91 773 774
f 92 775 100
f 92 774 775
f 149 94 93
f 94 229 93
f 149 93 97
f 93 229 97
f 143 94 149
f 146 96 95
f 96 237 95
f 150 98 96
f 98 238 96
f 150 96 146
f 96 238 237
f 149 97 108
f 97 229 108
f 150 109 98
f 109 238 98
f 103 421 99
f 100 765 104
f 100 775 765
f 101 421 102
f 113 421 101
f 102 421 103
f 104 765 105
f 105 766 106
f 105 765 766
f 106 767 114
f 106 766 767
f 156 108 107
f 108 229 107
f 156 107 111
f 107 228 111
f 107 229 228
f 149 108 156
f 150 110 109
f 110 238 109
f 157 112 110
f 112 239 110
f 157 110 150
f 110 239 238
f 155 111 121
f 111 228 121
f 156 111 155
f 157 122 112
f 122 246 112
f 112 246 239
f 117 421 113
f 114 761 118
f 114 767 761
f 115 376 116
f 127 376 115
f 116 421 117
f 116 376 411
f 116 411 419
f 116 419 420
f 116 420 455
f 489 421 116
f 455 462 116
f 462 480 116
f 116 480 489
f 118 757 119
f 118 761 757
f 119 758 120
f 119 757 758
f 120 465 128
f 120 483 465
f 120 493 483
f 493 120 492
f 492 120 758
f 162 121 123
f 121 228 123
f 155 121 162
f 163 124 122
f 124 261 122
f 158 122 157
f 163 122 158
f 122 260 246
f 122 261 260
f 161 123 131
f 123 228 131
f 162 123 161
f 163 132 124
f 132 261 124
f 125 375 126
f 136 375 125
f 126 376 127
f 126 375 376
f 128 425 129
f 458 425 128
f 128 465 458
f 129 381 130
f 414 381 129
f 129 426 414
f 129 425 426
f 130 382 137
f 381 382 130
f 169 131 133
f 131 228 133
f 161 131 170
f 170 131 169
f 171 134 132
f 134 279 132
f 164 132 163
f 171 132 164
f 132 268 261
f 132 279 268
f 169 133 139
f 133 302 139
f 225 224 133
f 224 241 133
f 226 225 133
f 227 226 133
f 133 228 227
f 241 251 133
f 133 251 250
f 250 263 133
f 133 263 274
f 133 274 282
f 133 282 294
f 133 294 302
f 172 140 134
f 619 134 140
f 172 134 171
f 134 287 279
f 134 299 287
f 134 308 299
f 621 308 134
f 621 134 619
f 135 375 136
f 141 375 135
f 137 382 138
f 138 383 142
f 138 382 383
f 175 139 147
f 139 302 147
f 169 139 176
f 176 139 175
f 177 148 140
f 615 140 148
f 177 140 172
f 619 140 615
f 144 375 141
f 142 367 145
f 142 366 367
f 142 383 366
f 143 375 144
f 149 375 143
f 145 367 146
f 146 368 150
f 146 343 344
f 367 343 146
f 146 344 368
f 185 147 151
f 147 302 151
f 175 147 183
f 183 147 186
f 186 147 185
f 187 152 148
f 609 148 152
f 178 148 177
f 184 148 178
f 187 148 184
f 611 148 609
f 615 148 611
f 156 375 149
f 150 384 157
f 150 368 369
f 369 384 150
f 194 151 153
f 151 302 153
f 185 151 194
f 195 154 152
f 605 152 154
f 188 152 187
f 195 152 188
f 609 152 605
f 193 153 159
f 153 302 159
f 194 153 193
f 195 160 154
f 603 154 160
f 605 154 603
f 155 374 156
f 162 374 155
f 156 374 375
f 157 385 158
f 157 384 385
f 158 386 163
f 385 386 158
f 199 159 165
f 159 302 165
f 193 159 199
f 200 166 160
f 597 160 166
f 196 160 195
f 200 160 196
f 603 160 597
f 161 374 162
f 170 374 161
f 163 427 164
f 163 386 415
f 163 415 427
f 164 428 171
f 164 427 428
f 203 165 167
f 165 302 167
f 199 165 204
f 204 165 203
f 205 168 166
f 587 166 168
f 205 166 200
f 597 166 587
f 203 167 173
f 167 302 173
f 206 174 168
f 585 168 174
f 206 168 205
f 587 168 585
f 169 363 170
f 176 362 169
f 169 362 363
f 170 363 374
f 171 466 172
f 171 428 459
f 459 466 171
f 172 673 177
f 172 466 484
f 484 494 172
f 172 494 673
f 221 173 180
f 173 302 180
f 203 173 221
f 222 181 174
f 564 174 181
f 222 174 206
f 567 174 564
f 585 174 567
f 175 362 176
f 183 362 175
f 177 662 178
f 177 673 662
f 178 663 184
f 178 662 663
f 247 180 179
f 180 302 179
f 247 179 189
f 179 302 189
f 221 180 247
f 222 182 181
f 565 181 182
f 564 181 565
f 248 190 182
f 537 182 190
f 248 182 222
f 565 182 537
f 186 362 183
f 184 659 187
f 184 663 659
f 185 362 186
f 335 185 194
f 336 185 335
f 336 362 185
f 187 650 188
f 187 659 650
f 188 651 195
f 188 650 651
f 271 189 191
f 189 302 191
f 247 189 269
f 269 189 271
f 270 192 190
f 515 190 192
f 270 190 248
f 537 190 515
f 271 191 197
f 191 302 197
f 272 198 192
f 513 192 198
f 272 192 270
f 515 192 513
f 361 194 193
f 361 193 199
f 335 194 361
f 195 641 196
f 195 651 641
f 196 639 200
f 196 641 639
f 289 197 201
f 197 302 201
f 271 197 290
f 290 197 289
f 291 202 198
f 497 198 202
f 291 198 272
f 513 198 497
f 361 199 204
f 200 633 205
f 200 639 633
f 201 302 207
f 310 201 207
f 289 201 310
f 317 216 202
f 477 202 216
f 292 202 291
f 317 202 292
f 497 202 477
f 360 204 203
f 373 203 221
f 360 203 373
f 361 204 360
f 205 626 206
f 205 633 626
f 206 623 222
f 206 627 623
f 206 626 627
f 207 302 217
f 334 207 217
f 310 207 334
f 339 208 209
f 338 218 208
f 338 208 339
f 312 209 210
f 311 209 312
f 332 209 311
f 339 209 332
f 313 210 211
f 312 210 313
f 314 211 212
f 313 211 314
f 315 212 213
f 314 212 315
f 316 213 214
f 315 213 316
f 341 214 215
f 316 214 333
f 333 214 340
f 340 214 341
f 341 215 219
f 345 220 216
f 453 216 220
f 345 216 317
f 477 216 453
f 217 302 223
f 334 217 223
f 338 231 218
f 342 219 232
f 341 219 342
f 345 240 220
f 449 220 240
f 453 220 449
f 373 221 247
f 222 617 248
f 222 623 617
f 223 302 249
f 370 223 249
f 334 223 370
f 373 224 225
f 372 241 224
f 372 224 373
f 361 225 226
f 360 225 361
f 373 225 360
f 336 226 227
f 335 226 336
f 361 226 335
f 363 227 228
f 336 227 362
f 362 227 363
f 375 228 229
f 363 228 374
f 374 228 375
f 375 229 242
f 378 230 231
f 377 243 230
f 377 230 378
f 337 231 338
f 364 231 337
f 378 231 364
f 380 232 233
f 342 232 365
f 365 232 379
f 379 232 380
f 380 233 244
f 383 234 235
f 382 245 234
f 382 234 383
f 367 235 236
f 366 235 367
f 383 235 366
f 344 236 237
f 343 236 344
f 367 236 343
f 369 237 238
f 344 237 368
f 368 237 369
f 385 238 239
f 369 238 384
f 384 238 385
f 385 239 246
f 387 262 240
f 401 240 262
f 387 240 345
f 409 240 401
f 449 240 409
f 372 251 241
f 375 242 252
f 377 255 243
f 380 244 256
f 382 259 245
f 385 246 260
f 372 247 269
f 373 247 372
f 248 613 270
f 248 617 613
f 249 302 273
f 416 249 273
f 370 249 416
f 372 250 251
f 418 263 250
f 371 250 372
f 410 250 371
f 418 250 410
f 376 252 253
f 375 252 376
f 304 264 253
f 420 253 264
f 376 253 411
f 411 253 419
f 419 253 420
f 422 254 255
f 421 265 254
f 421 254 422
f 412 255 377
f 422 255 412
f 424 256 257
f 380 256 413
f 413 256 423
f 423 256 424
f 424 257 266
f 382 258 259
f 426 267 258
f 381 258 382
f 414 258 381
f 426 258 414
f 386 260 261
f 385 260 386
f 428 261 268
f 386 261 415
f 415 261 427
f 427 261 428
f 353 262 280
f 429 280 262
f 401 262 353
f 429 262 387
f 417 274 263
f 417 263 418
f 304 275 264
f 420 264 275
f 421 276 265
f 424 266 277
f 425 278 267
f 425 267 426
f 428 268 279
f 372 269 271
f 270 607 272
f 270 613 607
f 371 271 290
f 372 271 371
f 272 607 291
f 273 302 281
f 460 273 281
f 416 273 460
f 461 282 274
f 454 274 417
f 461 274 454
f 304 283 275
f 462 275 283
f 420 275 455
f 455 275 462
f 463 284 276
f 456 276 421
f 463 276 456
f 464 277 285
f 424 277 457
f 457 277 464
f 465 286 278
f 458 278 425
f 465 278 458
f 466 279 287
f 428 279 459
f 459 279 466
f 325 280 288
f 467 288 280
f 353 280 325
f 467 280 429
f 281 302 293
f 478 281 293
f 460 281 478
f 461 294 282
f 304 295 283
f 462 283 295
f 463 296 284
f 464 285 297
f 465 298 286
f 466 287 299
f 325 288 300
f 467 300 288
f 371 290 289
f 410 289 310
f 371 289 410
f 291 600 292
f 291 607 600
f 292 601 317
f 292 600 601
f 293 302 301
f 486 293 301
f 478 293 486
f 488 302 294
f 479 294 461
f 488 294 479
f 303 295 304
f 489 295 303
f 462 295 480
f 480 295 489
f 490 304 296
f 481 296 463
f 490 296 481
f 491 297 305
f 464 297 482
f 482 297 491
f 493 307 298
f 483 298 465
f 493 298 483
f 494 299 308
f 466 299 484
f 484 299 494
f 325 300 309
f 485 309 300
f 485 300 467
f 301 302 319
f 301 319 318
f 487 301 318
f 486 301 487
f 488 319 302
f 303 304 321
f 489 303 320
f 685 320 303
f 303 321 328
f 303 328 349
f 349 356 303
f 303 356 685
f 490 321 304
f 491 305 322
f 729 322 305
f 492 307 306
f 493 306 307
f 307 687 306
f 492 306 493
f 493 323 307
f 307 323 687
f 493 307 492
f 494 308 324
f 621 324 308
f 495 325 309
f 495 309 485
f 418 310 334
f 410 310 418
f 317 595 345
f 317 601 595
f 318 319 346
f 504 318 346
f 487 318 504
f 319 326 346
f 505 326 319
f 498 319 488
f 505 319 498
f 506 320 327
f 685 327 320
f 489 320 499
f 499 320 506
f 507 328 321
f 500 321 490
f 507 321 500
f 508 322 329
f 729 329 322
f 491 322 501
f 501 322 508
f 509 330 323
f 687 323 330
f 502 323 493
f 509 323 502
f 510 324 331
f 331 324 621
f 494 324 503
f 503 324 510
f 511 353 325
f 511 325 495
f 346 326 388
f 388 326 347
f 505 347 326
f 506 327 348
f 685 348 327
f 507 349 328
f 508 329 350
f 729 350 329
f 509 351 330
f 687 330 351
f 510 331 352
f 629 352 331
f 629 331 621
f 417 334 370
f 418 334 417
f 345 575 387
f 345 583 575
f 345 595 583
f 522 346 388
f 504 346 522
f 450 347 354
f 523 354 347
f 388 347 402
f 402 347 430
f 430 347 450
f 516 347 505
f 523 347 516
f 526 348 355
f 355 348 685
f 506 348 517
f 517 348 526
f 527 356 349
f 518 349 507
f 527 349 518
f 530 350 357
f 729 357 350
f 508 350 519
f 519 350 530
f 531 358 351
f 679 351 358
f 520 351 509
f 531 351 520
f 687 351 679
f 534 352 359
f 629 359 352
f 510 352 521
f 521 352 534
f 535 401 353
f 535 353 511
f 468 354 389
f 523 389 354
f 450 354 468
f 525 355 392
f 685 392 355
f 526 355 525
f 527 393 356
f 736 356 393
f 685 356 688
f 688 356 694
f 694 356 695
f 695 356 696
f 696 356 700
f 700 356 704
f 704 356 705
f 705 356 706
f 706 356 710
f 710 356 711
f 711 356 718
f 718 356 719
f 719 356 720
f 720 356 721
f 721 356 722
f 722 356 728
f 728 356 736
f 530 357 396
f 729 396 357
f 531 397 358
f 679 358 397
f 533 359 400
f 629 400 359
f 534 359 533
f 461 370 416
f 417 370 454
f 454 370 461
f 387 561 429
f 387 575 561
f 544 388 402
f 522 388 544
f 512 389 390
f 545 390 389
f 468 389 496
f 496 389 512
f 524 389 523
f 538 389 524
f 545 389 538
f 514 390 403
f 546 403 390
f 512 390 514
f 546 390 545
f 549 392 391
f 675 391 392
f 549 391 404
f 674 404 391
f 674 391 675
f 525 392 539
f 539 392 550
f 550 392 549
f 675 392 678
f 678 392 684
f 684 392 685
f 527 394 393
f 393 394 736
f 551 405 394
f 394 405 736
f 528 394 527
f 540 394 528
f 551 394 540
f 529 396 395
f 395 396 729
f 554 395 406
f 747 406 395
f 529 395 541
f 541 395 554
f 747 395 729
f 530 396 529
f 555 398 397
f 397 398 677
f 532 397 531
f 542 397 532
f 555 397 542
f 676 397 677
f 679 397 676
f 556 407 398
f 677 398 407
f 556 398 555
f 559 400 399
f 399 400 635
f 559 399 408
f 635 408 399
f 533 400 543
f 543 400 560
f 560 400 559
f 631 400 629
f 635 400 631
f 561 409 401
f 561 401 535
f 568 402 430
f 544 402 568
f 536 403 431
f 546 431 403
f 514 403 536
f 549 404 436
f 653 436 404
f 653 404 656
f 656 404 664
f 664 404 665
f 665 404 668
f 668 404 674
f 551 437 405
f 405 437 736
f 554 406 442
f 747 442 406
f 556 443 407
f 677 407 443
f 559 408 448
f 645 448 408
f 637 408 635
f 645 408 637
f 561 449 409
f 461 416 460
f 489 456 421
f 429 535 467
f 429 561 535
f 576 430 450
f 568 430 576
f 546 432 431
f 431 432 562
f 536 431 562
f 547 433 432
f 596 432 433
f 547 432 546
f 562 432 563
f 563 432 566
f 566 432 584
f 584 432 586
f 586 432 596
f 569 434 433
f 608 433 434
f 569 433 547
f 596 433 602
f 602 433 604
f 604 433 608
f 570 435 434
f 620 434 435
f 570 434 569
f 608 434 610
f 610 434 614
f 614 434 618
f 618 434 620
f 548 436 435
f 642 435 436
f 548 435 570
f 620 435 628
f 628 435 630
f 630 435 634
f 634 435 636
f 636 435 642
f 549 436 548
f 642 436 643
f 643 436 646
f 646 436 652
f 652 436 653
f 551 438 437
f 736 437 438
f 577 439 438
f 738 438 439
f 552 438 551
f 571 438 552
f 577 438 571
f 736 438 737
f 737 438 738
f 578 451 439
f 738 439 451
f 578 439 577
f 581 441 440
f 440 441 746
f 581 440 452
f 746 452 440
f 553 442 441
f 747 441 442
f 553 441 572
f 572 441 582
f 582 441 581
f 746 441 747
f 554 442 553
f 556 444 443
f 669 443 444
f 677 443 669
f 557 445 444
f 667 444 445
f 557 444 556
f 666 444 667
f 669 444 666
f 573 446 445
f 657 445 446
f 573 445 557
f 667 445 657
f 574 447 446
f 655 446 447
f 574 446 573
f 654 446 655
f 657 446 654
f 558 448 447
f 645 447 448
f 558 447 574
f 644 447 645
f 647 447 644
f 655 447 647
f 559 448 558
f 575 453 449
f 575 449 561
f 576 450 468
f 578 469 451
f 451 469 738
f 581 452 476
f 476 452 745
f 745 452 746
f 583 477 453
f 583 453 575
f 463 456 489
f 461 460 479
f 488 460 478
f 479 460 488
f 489 481 463
f 467 511 485
f 467 535 511
f 590 468 496
f 576 468 590
f 578 470 469
f 739 469 470
f 738 469 739
f 588 471 470
f 740 470 471
f 579 470 578
f 588 470 579
f 739 470 740
f 591 472 471
f 741 471 472
f 591 471 588
f 740 471 741
f 592 473 472
f 742 472 473
f 592 472 591
f 741 472 742
f 593 474 473
f 473 474 743
f 593 473 592
f 742 473 743
f 594 475 474
f 744 474 475
f 594 474 593
f 743 474 744
f 580 476 475
f 745 475 476
f 580 475 589
f 589 475 594
f 744 475 745
f 581 476 580
f 595 497 477
f 595 477 583
f 488 478 486
f 490 481 489
f 485 511 495
f 488 486 487
f 488 487 504
f 498 488 670
f 522 488 504
f 544 488 522
f 568 488 544
f 576 488 568
f 590 488 576
f 598 488 590
f 599 488 598
f 606 488 599
f 612 488 606
f 616 488 612
f 622 488 616
f 624 488 622
f 625 488 624
f 632 488 625
f 638 488 632
f 640 488 638
f 648 488 640
f 649 488 648
f 658 488 649
f 660 488 658
f 661 488 660
f 670 488 661
f 489 499 490
f 490 499 506
f 781 500 490
f 490 506 517
f 490 517 526
f 490 526 525
f 490 525 539
f 539 550 490
f 490 550 755
f 756 490 755
f 760 490 756
f 762 490 760
f 763 490 762
f 764 490 763
f 768 490 764
f 769 490 768
f 770 490 769
f 771 490 770
f 776 490 771
f 778 490 776
f 779 490 778
f 780 490 779
f 781 490 780
f 491 501 794
f 759 493 492
f 492 758 759
f 759 502 493
f 673 494 503
f 599 496 512
f 590 496 598
f 598 496 599
f 601 513 497
f 601 497 595
f 670 505 498
f 507 500 781
f 794 501 508
f 759 509 502
f 503 510 673
f 670 516 505
f 781 518 507
f 508 519 794
f 751 520 509
f 751 509 759
f 672 510 521
f 673 510 672
f 606 512 514
f 599 512 606
f 607 515 513
f 600 513 601
f 607 513 600
f 606 514 536
f 607 537 515
f 670 523 516
f 781 527 518
f 794 519 530
f 531 520 751
f 521 534 672
f 670 524 523
f 670 538 524
f 782 528 527
f 782 527 781
f 782 540 528
f 530 529 794
f 794 529 541
f 752 532 531
f 752 531 751
f 752 542 532
f 683 534 533
f 682 533 543
f 683 533 682
f 672 534 683
f 612 536 562
f 606 536 612
f 613 565 537
f 613 537 607
f 545 538 670
f 551 540 782
f 794 541 554
f 752 555 542
f 543 560 682
f 670 546 545
f 670 547 546
f 670 569 547
f 691 549 548
f 670 548 570
f 671 548 670
f 680 548 671
f 681 548 680
f 690 548 681
f 691 548 690
f 749 550 549
f 702 549 691
f 714 549 702
f 715 549 714
f 730 549 715
f 732 549 730
f 733 549 732
f 748 549 733
f 749 549 748
f 750 550 749
f 754 550 750
f 755 550 754
f 782 552 551
f 783 571 552
f 783 552 782
f 793 554 553
f 793 553 572
f 794 554 793
f 556 555 753
f 753 555 752
f 557 556 735
f 735 556 734
f 734 556 753
f 573 557 731
f 731 557 735
f 692 559 558
f 703 558 574
f 692 558 703
f 693 560 559
f 693 559 692
f 682 560 693
f 616 562 563
f 612 562 616
f 616 563 566
f 613 564 565
f 617 567 564
f 617 564 613
f 622 566 584
f 616 566 622
f 617 585 567
f 670 570 569
f 783 577 571
f 793 572 582
f 717 574 573
f 717 573 716
f 716 573 731
f 703 574 717
f 784 578 577
f 784 577 783
f 579 578 785
f 785 578 784
f 785 588 579
f 791 581 580
f 790 580 589
f 791 580 790
f 792 582 581
f 792 581 791
f 793 582 792
f 624 584 586
f 622 584 624
f 623 587 585
f 623 585 617
f 625 586 596
f 624 586 625
f 627 597 587
f 627 587 623
f 786 591 588
f 786 588 785
f 790 589 594
f 787 592 591
f 787 591 786
f 788 593 592
f 788 592 787
f 594 593 789
f 789 593 788
f 790 594 789
f 632 596 602
f 625 596 632
f 633 603 597
f 626 597 627
f 633 597 626
f 640 602 604
f 632 602 638
f 638 602 640
f 639 605 603
f 639 603 633
f 640 604 608
f 641 609 605
f 641 605 639
f 649 608 610
f 640 608 648
f 648 608 649
f 651 611 609
f 651 609 641
f 658 610 614
f 649 610 658
f 650 615 611
f 650 611 651
f 661 614 618
f 658 614 660
f 660 614 661
f 663 619 615
f 659 615 650
f 663 615 659
f 670 618 620
f 661 618 670
f 673 621 619
f 662 619 663
f 673 619 662
f 671 620 628
f 670 620 671
f 673 629 621
f 681 628 630
f 671 628 680
f 680 628 681
f 683 631 629
f 672 629 673
f 683 629 672
f 681 630 634
f 682 635 631
f 682 631 683
f 691 634 636
f 681 634 690
f 690 634 691
f 693 637 635
f 693 635 682
f 691 636 642
f 692 645 637
f 692 637 693
f 702 642 643
f 691 642 702
f 702 643 646
f 692 644 645
f 703 647 644
f 703 644 692
f 702 646 652
f 703 655 647
f 714 652 653
f 702 652 714
f 714 653 656
f 703 654 655
f 717 657 654
f 717 654 703
f 715 656 664
f 714 656 715
f 717 667 657
f 732 664 665
f 715 664 730
f 730 664 732
f 732 665 668
f 731 666 667
f 735 669 666
f 735 666 731
f 716 667 717
f 731 667 716
f 733 668 674
f 732 668 733
f 735 677 669
f 749 674 675
f 733 674 748
f 748 674 749
f 749 675 678
f 753 676 677
f 752 679 676
f 752 676 753
f 734 677 735
f 753 677 734
f 750 678 684
f 749 678 750
f 752 687 679
f 755 684 685
f 750 684 754
f 754 684 755
f 756 685 688
f 755 685 756
f 759 686 687
f 758 689 686
f 758 686 759
f 751 687 752
f 759 687 751
f 756 688 694
f 758 699 689
f 760 694 695
f 756 694 760
f 763 695 696
f 760 695 762
f 762 695 763
f 763 696 700
f 767 697 698
f 766 701 697
f 766 697 767
f 757 698 699
f 761 698 757
f 767 698 761
f 757 699 758
f 764 700 704
f 763 700 764
f 766 709 701
f 768 704 705
f 764 704 768
f 769 705 706
f 768 705 769
f 769 706 710
f 775 707 708
f 774 713 707
f 774 707 775
f 765 708 709
f 775 708 765
f 765 709 766
f 770 710 711
f 769 710 770
f 770 711 718
f 774 712 713
f 773 727 712
f 773 712 774
f 771 718 719
f 770 718 771
f 776 719 720
f 771 719 776
f 779 720 721
f 776 720 778
f 778 720 779
f 780 721 722
f 779 721 780
f 781 722 728
f 780 722 781
f 796 723 724
f 795 729 723
f 795 723 796
f 797 724 725
f 796 724 797
f 772 725 726
f 777 725 772
f 797 725 777
f 773 726 727
f 772 726 773
f 782 728 736
f 781 728 782
f 794 747 729
f 794 729 795
f 783 736 737
f 782 736 783
f 784 737 738
f 783 737 784
f 785 738 739
f 784 738 785
f 786 739 740
f 785 739 786
f 787 740 741
f 786 740 787
f 788 741 742
f 787 741 788
f 789 742 743
f 788 742 789
f 790 743 744
f 789 743 790
f 791 744 745
f 790 744 791
f 792 745 746
f 791 745 792
f 793 746 747
f 792 746 793
f 793 747 794
