v -0.0415277771 -0.00796969853 -0.0414415581
v -0.0415679077 -0.00792956792 -0.0410618086
v -0.0416033462 -0.00789412938 -0.0406811256
v -0.0416340832 -0.00786339246 -0.0402996261
v -0.0416600994 -0.00783737145 -0.0399174268
v -0.0416814045 -0.00781607114 -0.0395346422
v -0.0416979793 -0.00779949628 -0.0391513915
v -0.041709824 -0.00778765164 -0.0387677891
v -0.0417169289 -0.007780542 -0.0383839531
v -0.0417193035 -0.00777817689 -0.0380000002
v -0.0412572102 -0.00824026547 -0.0433222814
v -0.0413205913 -0.00817688428 -0.0429489226
v -0.0413793568 -0.00811811887 -0.0425740571
v -0.0414334873 -0.00806398831 -0.042197798
v -0.0414829639 -0.00801451169 -0.0418202598
v -0.0410395626 -0.00845791302 -0.0444321771
v -0.0411166767 -0.00838079892 -0.0440640218
v -0.0411892322 -0.00830824338 -0.0436940188
v -0.0407811359 -0.00871633492 -0.0455244429
v -0.0408717636 -0.00862570725 -0.0451624997
v -0.0409579185 -0.00853955708 -0.0447983737
v -0.0405865482 -0.0089109274 -0.0462413449
v -0.0406860546 -0.00881142102 -0.045884095
v -0.0402617935 -0.00923568211 -0.0472976012
v -0.0403743843 -0.00912309132 -0.0469482059
v -0.0404826454 -0.00901483021 -0.0465960844
v -0.0402512745 -0.00924620114 -0.0397431154
v -0.0402706341 -0.00922683678 -0.0393951292
v -0.0402857021 -0.00921176873 -0.0390467186
v -0.0402964691 -0.00920100175 -0.0386979897
v -0.040302935 -0.0091945406 -0.0383490486
v -0.0403050903 -0.00919239007 -0.0380000002
v -0.0400237564 -0.00947371445 -0.047987792
v -0.0401449017 -0.00935256921 -0.0476441641
v -0.0400452522 -0.00945221863 -0.0418161805
v -0.040090237 -0.00940723859 -0.0414729638
v -0.040130978 -0.00936650239 -0.0411286898
v -0.040167456 -0.00933001958 -0.040783462
v -0.0401996712 -0.00929779969 -0.0404373868
v -0.0402276138 -0.0092698618 -0.0400905688
v -0.0397688393 -0.00972863637 -0.0486658115
v -0.0398983959 -0.00959908448 -0.0483283753
v -0.0397572426 -0.00974022828 -0.0435127468
v -0.0398232082 -0.00967426739 -0.0431763811
v -0.0398850063 -0.0096124693 -0.0428384383
v -0.0399426273 -0.0095548483 -0.0424990208
v -0.0399960426 -0.00950142823 -0.0421582336
v -0.0396351437 -0.00986233197 -0.0490000005
v -0.0395346073 -0.00996287308 -0.044511363
v -0.039612923 -0.00988455258 -0.0441803403
v -0.039687138 -0.00981033288 -0.043847434
v -0.0393554787 -0.0101419922 -0.0496582241
v -0.0394973473 -0.0100001284 -0.0493308372
v -0.0392753128 -0.0102221628 -0.0454921324
v -0.0393657688 -0.010131702 -0.0451673586
v -0.0394522098 -0.010045261 -0.0448404033
v -0.0390597443 -0.0104377266 -0.0503022428
v -0.0392096046 -0.010287871 -0.0499820585
v -0.0390824322 -0.0104150387 -0.0461347325
v -0.0391808514 -0.0103166195 -0.0458146222
v -0.0389059643 -0.0105915066 -0.0506186814
v -0.0387636856 -0.01073379 -0.0470798106
v -0.0388738159 -0.0106236549 -0.0467674227
v -0.0389800743 -0.0105173966 -0.0464523656
v -0.0385868076 -0.0109106728 -0.0512399311
v -0.0385319427 -0.0109655329 -0.0476961918
v -0.038649712 -0.0108477589 -0.0473894305
v -0.0387483028 -0.0107491728 -0.0509312744
v -0.0382525066 -0.011244969 -0.0518450494
v -0.0384215168 -0.0110759541 -0.0515445514
v -0.0382851318 -0.0112123486 -0.0483007617
v -0.038410397 -0.0110870739 -0.047999999
v -0.0380798057 -0.0114176699 -0.0521413274
v -0.0380235485 -0.0114739319 -0.0488927813
v -0.0381561665 -0.0113413139 -0.0485983844
v -0.0379034809 -0.0115939995 -0.0524332995
v -0.0378873161 -0.0116101643 -0.049183857
v -0.0375401405 -0.0119573303 -0.0530039639
v -0.0377235702 -0.0117739054 -0.0527208729
v -0.0376041798 -0.0118932959 -0.0497557039
v -0.0377475075 -0.0117499634 -0.0494715281
v -0.037353249 -0.0121442219 -0.0532824845
v -0.0373071102 -0.0121903702 -0.0503132291
v -0.0374573616 -0.012040114 -0.0500363011
v -0.0372851376 -0.00372705899 -0.0414415581
v -0.0373252682 -0.00368692837 -0.0410618086
v -0.0373607067 -0.00365148984 -0.0406811256
v -0.0373914436 -0.00362075291 -0.0402996261
v -0.0374174599 -0.00359473191 -0.0399174268
v -0.0374387649 -0.00357342683 -0.0395346422
v -0.0374553398 -0.00355685197 -0.0391513915
v -0.0374671844 -0.0035450121 -0.0387677891
v -0.0374742893 -0.00353790246 -0.0383839531
v -0.037476664 -0.00353553258 -0.0380000002
v -0.0371629528 -0.0123345228 -0.0535563488
v -0.0371534542 -0.0123440214 -0.0505864067
v -0.0370145706 -0.00399762593 -0.0433222814
v -0.0370779518 -0.00393423997 -0.0429489226
v -0.0371367172 -0.00387547932 -0.0425740571
v -0.0371908478 -0.00382134877 -0.042197798
v -0.0372403244 -0.00377187215 -0.0418202598
v -0.0367723564 -0.0127251192 -0.0540897818
v -0.0369692997 -0.0125281759 -0.0538254757
v -0.0368361572 -0.0126613184 -0.0511211796
v -0.0369964508 -0.0125010201 -0.0508557529
v -0.0367969231 -0.00421527348 -0.0444321771
v -0.0368740372 -0.00413815938 -0.0440640218
v -0.0369465927 -0.00406560384 -0.0436940188
v -0.0365721802 -0.0129252955 -0.0543491859
v -0.0365058521 -0.0129916187 -0.0516399665
v -0.0366726021 -0.0128248688 -0.0513826127
v -0.0365384964 -0.00447369538 -0.0455244429
v -0.0366291241 -0.00438306771 -0.0451624997
v -0.036715279 -0.00429691754 -0.0447983737
v -0.0363688377 -0.0131286427 -0.0546036119
v -0.036335955 -0.0131615206 -0.051893167
v -0.0363439087 -0.00466828786 -0.0462413449
v -0.0364434151 -0.00456878148 -0.045884095
v -0.0361623768 -0.0133350941 -0.0548529787
v -0.036162949 -0.0133345219 -0.0521421356
v -0.0360086349 -0.0050035616 -0.0397431154
v -0.036019154 -0.00499304257 -0.0472976012
v -0.0361317448 -0.00488045178 -0.0469482059
v -0.0362400059 -0.0047721859 -0.0465960844
v -0.0360279945 -0.00498419724 -0.0393951292
v -0.0360430626 -0.00496912919 -0.0390467186
v -0.0360538296 -0.0049583622 -0.0386979897
v -0.0360602955 -0.00495190106 -0.0383490486
v -0.0360624412 -0.00494974576 -0.0380000002
v -0.0359528831 -0.0135445973 -0.0550972123
v -0.0358078674 -0.0136896082 -0.0526270742
v -0.0359869007 -0.0135105702 -0.052386796
v -0.0357534031 -0.00525878869 -0.0421582336
v -0.0357811169 -0.00523107491 -0.047987792
v -0.0359022621 -0.00510992966 -0.0476441641
v -0.0358026127 -0.00520957909 -0.0418161805
v -0.0358475975 -0.00516459904 -0.0414729638
v -0.0358883289 -0.00512386285 -0.0411286898
v -0.0359248165 -0.00508738003 -0.040783462
v -0.0359570316 -0.00505516015 -0.0404373868
v -0.0359849743 -0.00502721749 -0.0400905688
v -0.0355249981 -0.0139724775 -0.0555699821
v -0.035740395 -0.0137570807 -0.0553362365
v -0.0356258873 -0.0138715883 -0.0528628964
v -0.0355261997 -0.00548599206 -0.0486658115
v -0.0356557468 -0.00535644017 -0.0483283753
v -0.035514603 -0.00549758874 -0.0435127468
v -0.0355805687 -0.00543162785 -0.0431763811
v -0.0356423668 -0.00536982976 -0.0428384383
v -0.0356999878 -0.00531220875 -0.0424990208
v -0.0353067402 -0.0141907307 -0.0557983727
v -0.035253344 -0.0142441364 -0.053320889
v -0.0354410271 -0.0140564486 -0.0530941911
v -0.0352547077 -0.00575748883 -0.0493308372
v -0.0353925041 -0.00561968766 -0.0490000005
v -0.0352919582 -0.00572023354 -0.044511363
v -0.0353702835 -0.00564191304 -0.0441803403
v -0.0354444984 -0.00556769334 -0.043847434
v -0.0350857071 -0.0144117685 -0.0560213442
v -0.0350628857 -0.01443459 -0.0535429187
v -0.0351128391 -0.00589935265 -0.0496582241
v -0.0350326733 -0.00597952328 -0.0454921324
v -0.0351231293 -0.00588906251 -0.0451673586
v -0.0352095703 -0.00580262147 -0.0448404033
v -0.0348619465 -0.0146355244 -0.0562388272
v -0.0348697189 -0.0146277567 -0.0537602158
v -0.0348171047 -0.00619508706 -0.0503022428
v -0.0349669651 -0.00604523144 -0.0499820585
v -0.0348397926 -0.00617239915 -0.0461347325
v -0.0349382118 -0.00607397996 -0.0458146222
v -0.0346355442 -0.0148619267 -0.0564507527
v -0.034673901 -0.0148235746 -0.0539727111
v -0.0345056633 -0.00650653325 -0.0509312744
v -0.0346633247 -0.00634886704 -0.0506186814
v -0.0345210461 -0.00649114571 -0.0470798106
v -0.0346311764 -0.0063810154 -0.0467674227
v -0.0347374348 -0.00627475701 -0.0464523656
v -0.0344065575 -0.0150909134 -0.0566570587
v -0.0342745499 -0.0152229258 -0.0543830414
v -0.034475489 -0.0150219866 -0.0541803403
v -0.0343441585 -0.00666802846 -0.0512399311
v -0.0342893032 -0.00672289334 -0.0476961918
v -0.0344070724 -0.00660511933 -0.0473894305
v -0.0341750626 -0.0153224131 -0.0568576808
v -0.0340711311 -0.0154263397 -0.0545807524
v -0.0340098671 -0.00700232945 -0.0518450494
v -0.0341788773 -0.00683331452 -0.0515445514
v -0.0340424828 -0.00696970902 -0.0483007617
v -0.0341677574 -0.00684443436 -0.047999999
v -0.0339411262 -0.0155563494 -0.0570525594
v -0.0338653091 -0.0156321665 -0.0547734113
v -0.0338371662 -0.00717503033 -0.0521413274
v -0.0337808994 -0.00723129235 -0.0488927813
v -0.0339135174 -0.00709866963 -0.0485983844
v -0.0337048153 -0.0157926556 -0.0572416325
v -0.0336571411 -0.0158403345 -0.0549609609
v -0.0335048679 -0.00750732384 -0.0494715281
v -0.0336608318 -0.00735135518 -0.0524332995
v -0.0336446766 -0.00736751996 -0.049183857
v -0.0334662155 -0.0160312601 -0.0574248476
v -0.0334466938 -0.0160507866 -0.0551433463
v -0.033297501 -0.00771469079 -0.0530039639
v -0.0334809307 -0.00753126107 -0.0527208729
v -0.0333615402 -0.00765065633 -0.0497557039
v -0.0332253841 -0.0162720867 -0.0576021428
v -0.0332340149 -0.016263456 -0.055320508
v -0.0331106094 -0.00790158234 -0.0532824845
v -0.0330644611 -0.00794772588 -0.0503132291
v -0.0332147221 -0.00779746972 -0.0500363011
v -0.032982407 -0.0165150686 -0.057773468
v -0.032802277 -0.0166951939 -0.0556589527
v -0.0327538113 -0.00825838052 -0.0508557529
v -0.0329203133 -0.00809188328 -0.0535563488
v -0.0329108147 -0.00810138188 -0.0505864067
v -0.0327373508 -0.0167601248 -0.0579387708
v -0.032583342 -0.0169141289 -0.0558201308
v -0.0325297169 -0.00848247967 -0.0540897818
v -0.0327266601 -0.00828553639 -0.0538254757
v -0.0325935177 -0.00841867886 -0.0511211796
v -0.032490292 -0.0170071884 -0.058098001
v -0.0323624519 -0.0171350189 -0.0559758801
v -0.0323295406 -0.00868265591 -0.0543491859
v -0.0322632126 -0.00874897919 -0.0516399665
v -0.0324299625 -0.00858222924 -0.0513826127
v -0.0322412971 -0.0172561737 -0.0582511063
v -0.0321396736 -0.0173577972 -0.0561261554
v -0.0321261982 -0.00888599835 -0.0546036119
v -0.0320933155 -0.00891888104 -0.051893167
v -0.0319904617 -0.0175070139 -0.0583980436
v -0.0319150738 -0.0175823971 -0.0562709088
v -0.0319197372 -0.00909245454 -0.0548529787
v -0.0319203094 -0.00909188233 -0.0521421356
v -0.0317378525 -0.0177596279 -0.0585387702
v -0.0316887192 -0.0178087517 -0.0564100976
v -0.0317102341 -0.00930195771 -0.0550972123
v -0.0315652279 -0.00944696866 -0.0526270742
v -0.0317442612 -0.00926793061 -0.052386796
v -0.0314835361 -0.0180139395 -0.0586732383
v -0.0314606861 -0.0180367848 -0.0565436764
v -0.0312823585 -0.009729838 -0.0555699821
v -0.0314977554 -0.00951443635 -0.0553362365
v -0.0313832478 -0.00962894879 -0.0528628964
v -0.0312275986 -0.0182698723 -0.0588014097
v -0.0312310413 -0.0182664343 -0.0566716094
v -0.0310107044 -0.0100014921 -0.053320889
v -0.0310641006 -0.00994809113 -0.0557983727
v -0.0311983875 -0.00981380902 -0.0530941911
v -0.0309701256 -0.0185273453 -0.058923244
v -0.0307671837 -0.0187302967 -0.0569103713
v -0.0309998421 -0.0184976288 -0.0567938514
v -0.0308430675 -0.010169129 -0.0560213442
v -0.0308202461 -0.0101919504 -0.0535429187
v -0.0307111839 -0.0187862869 -0.0590387053
v -0.0305331139 -0.0189643618 -0.057021131
v -0.0306193069 -0.0103928848 -0.0562388272
v -0.0306270794 -0.0103851172 -0.0537602158
v -0.0304508594 -0.0190466114 -0.059147758
v -0.0302977089 -0.019199762 -0.0571260948
v -0.0303929047 -0.0106192871 -0.0564507527
v -0.0304312614 -0.0105809351 -0.0539727111
v -0.0301892284 -0.0193082424 -0.0592503686
v -0.0300610546 -0.019436421 -0.057225234
v -0.0301639179 -0.0108482739 -0.0566570587
v -0.0300319103 -0.0109802862 -0.0543830414
v -0.0302328495 -0.0107793423 -0.0541803403
v -0.0299263767 -0.0195711037 -0.0593465061
v -0.0298232082 -0.0196742674 -0.0573185177
v -0.029932423 -0.0110797688 -0.0568576808
v -0.0298284916 -0.0111837002 -0.0545807524
v -0.0296623711 -0.0198351046 -0.059436142
v -0.0295842461 -0.0199132296 -0.0574059148
v -0.0296984867 -0.0113137098 -0.0570525594
v -0.0296226696 -0.0113895222 -0.0547734113
v -0.0293972973 -0.0201001783 -0.0595192475
v -0.0293442348 -0.020153236 -0.0574874015
v -0.0294621757 -0.011550016 -0.0572416325
v -0.0294145016 -0.011597695 -0.0549609609
v -0.0291312412 -0.0203662344 -0.059595799
v -0.02910327 -0.0203942104 -0.0575629516
v -0.029223576 -0.0117886206 -0.0574248476
v -0.0292040447 -0.0118081471 -0.0551433463
v -0.0288642792 -0.0206331917 -0.0596657701
v -0.0288613991 -0.0206360766 -0.0576325436
v -0.0289827446 -0.0120294472 -0.0576021428
v -0.0287765507 -0.0122356411 -0.0554923935
v -0.028596497 -0.0209009739 -0.0597291441
v -0.028618708 -0.0208787676 -0.057696156
v -0.0287397674 -0.0122724291 -0.057773468
v -0.0285596374 -0.0124525543 -0.0556589527
v -0.0283279804 -0.0211695 -0.0597858973
v -0.0283752636 -0.0211222073 -0.0577537675
v -0.0284947113 -0.0125174852 -0.0579387708
v -0.0283407024 -0.0126714893 -0.0558201308
v -0.0280587963 -0.0214386841 -0.0598360152
v -0.0281311516 -0.0213663193 -0.0578053613
v -0.0282476429 -0.0127645441 -0.058098001
v -0.0281198124 -0.0128923794 -0.0559758801
v -0.0277890304 -0.0217084404 -0.0598794813
v -0.0278864483 -0.0216110321 -0.0578509231
v -0.0279986576 -0.0130135342 -0.0582511063
v -0.0278970341 -0.0131151577 -0.0561261554
v -0.0275187782 -0.0219786974 -0.0599162836
v -0.0276412109 -0.0218562695 -0.0578904386
v -0.0277478222 -0.0132643744 -0.0583980436
v -0.0276724342 -0.0133397575 -0.0562709088
v -0.0273955158 -0.022101955 -0.0579238935
v -0.0274952034 -0.0135169884 -0.0585387702
v -0.0274460796 -0.0135661121 -0.0564100976
v -0.0271494583 -0.0223480173 -0.0579512806
v -0.0272481064 -0.0222493692 -0.0599464102
v -0.0272408966 -0.0137712999 -0.0586732383
v -0.0272180466 -0.0137941452 -0.0565436764
v -0.0269771103 -0.0225203653 -0.0599698491
v -0.0269030956 -0.02259438 -0.0579725904
v -0.0267572025 -0.0142549892 -0.0567938514
v -0.026984959 -0.0140272327 -0.0588014097
v -0.0269884018 -0.0140237948 -0.0566716094
v -0.0267058567 -0.0227916142 -0.059986598
v -0.0266565041 -0.0228409716 -0.0579878159
v -0.026727486 -0.0142847057 -0.058923244
v -0.0265245346 -0.0144876524 -0.0569103713
v -0.0264344505 -0.0230630299 -0.0599966497
v -0.0264097694 -0.023087711 -0.0579969544
v -0.0264685444 -0.0145436474 -0.0590387053
v -0.0262904743 -0.0147217222 -0.057021131
v -0.026162949 -0.0233345219 -0.0599999995
v -0.0261558823 -0.0233415934 -0.0579999967
v -0.0262082199 -0.0148039719 -0.059147758
v -0.0260550693 -0.0149571224 -0.0571260948
v -0.0259465889 -0.0150656029 -0.0592503686
v -0.0258184151 -0.0151937815 -0.057225234
v -0.0256837276 -0.0153284594 -0.0593465061
v -0.0255805687 -0.0154316279 -0.0573185177
v -0.0254197315 -0.015592465 -0.059436142
v -0.0253416065 -0.01567059 -0.0574059148
v -0.0251546577 -0.015857534 -0.0595192475
v -0.0251015953 -0.0159105965 -0.0574874015
v -0.0248886017 -0.0161235901 -0.059595799
v -0.0248606209 -0.0161515661 -0.0575629516
v -0.0246216396 -0.0163905521 -0.0596657701
v -0.0246187595 -0.016393437 -0.0576325436
v -0.0243538574 -0.0166583344 -0.0597291441
v -0.0243760685 -0.0166361281 -0.057696156
v -0.0240853313 -0.0169268557 -0.0597858973
v -0.024132624 -0.0168795677 -0.0577537675
v -0.0238161568 -0.0171960398 -0.0598360152
v -0.023888512 -0.0171236797 -0.0578053613
v -0.0235463909 -0.0174658009 -0.0598794813
v -0.0236437992 -0.0173683926 -0.0578509231
v -0.0232761387 -0.0177360579 -0.0599162836
v -0.0233985619 -0.0176136252 -0.0578904386
v -0.0230054668 -0.0180067249 -0.0599464102
v -0.0231528763 -0.0178593155 -0.0579238935
v -0.0229068188 -0.0181053778 -0.0579512806
v -0.0227344707 -0.0182777258 -0.0599698491
v -0.0226604561 -0.0183517405 -0.0579725904
v -0.0224632172 -0.0185489746 -0.059986598
v -0.0224138645 -0.018598332 -0.0579878159
v -0.0221918014 -0.0188203856 -0.0599966497
v -0.0221671204 -0.0188450666 -0.0579969544
v -0.0219203094 -0.0190918823 -0.0599999995
v -0.0219132427 -0.0190989538 -0.0579999967
v -0.0205060963 -0.0289913794 -0.0599999995
v -0.020513163 -0.0289843079 -0.0579999943
v -0.0203580097 -0.0291394659 -0.0599981732
v -0.0202593235 -0.0292381569 -0.0579939075
v -0.0202099613 -0.0292875095 -0.0599926896
v -0.0200128464 -0.0294846293 -0.0579756398
v -0.0199141888 -0.0295832821 -0.0599707694
v -0.0197669701 -0.0297305056 -0.05794522
v -0.019619141 -0.0298783299 -0.0599342628
v -0.0195219902 -0.0299754807 -0.0579026814
v -0.0194719986 -0.0300254723 -0.0599105544
v -0.0192782215 -0.0302192541 -0.0578480763
v -0.0191787056 -0.03031877 -0.0598522611
v -0.0190359405 -0.0304615351 -0.0577814765
v -0.0188870243 -0.0306104466 -0.0597795267
v -0.0187954525 -0.0307020231 -0.0577029581
v -0.0187419037 -0.0307555672 -0.0597377701
v -0.0185570435 -0.0309404274 -0.0576126165
v -0.0184533218 -0.0310441538 -0.0596435494
v -0.0183210186 -0.031176457 -0.0575105662
v -0.0181672386 -0.031330237 -0.0595351405
v -0.0180252365 -0.0314722344 -0.0594756575
v -0.018087645 -0.0314098259 -0.0573969264
v -0.0178839973 -0.0316134735 -0.0594126792
v -0.0178572277 -0.0316402479 -0.0572718377
v -0.0177435593 -0.0317539164 -0.0593462224
v -0.0175177387 -0.0319797417 -0.0570630784
v -0.0174652485 -0.0320322319 -0.0592029662
v -0.017295895 -0.0322015759 -0.0569100661
v -0.0171906284 -0.0323068424 -0.0590460582
v -0.0170548252 -0.0324426552 -0.0589625449
v -0.0171864323 -0.0323110434 -0.0568294759
v -0.0170779709 -0.0324195 -0.0567461963
v -0.0169200615 -0.0325774141 -0.0588756938
v -0.0168642239 -0.032633247 -0.0565716739
v -0.016759005 -0.0327384754 -0.0564804811
v -0.0166538624 -0.0328436132 -0.0586920781
v -0.01655201 -0.0329454704 -0.0562903757
v -0.0163923553 -0.0331051251 -0.0584954376
v -0.016349831 -0.0331476494 -0.0560901709
v -0.0162506203 -0.0332468506 -0.0559863563
v -0.0162705234 -0.0247416683 -0.0599999948
v -0.0162634567 -0.0247487351 -0.057999999
v -0.0161358551 -0.0333616205 -0.0582860084
v -0.0160095791 -0.0334878918 -0.0581765766
v -0.0160561279 -0.0334413429 -0.0557714601
v -0.0161153702 -0.0248968264 -0.0599981732
v -0.0161400513 -0.0248721453 -0.0579984779
v -0.0158846859 -0.0336127945 -0.0580640478
v -0.0157611851 -0.0337362858 -0.0579484506
v -0.015867062 -0.0336304136 -0.0555470963
v -0.0157746319 -0.0337228437 -0.0554314489
v -0.0159673218 -0.02504487 -0.0599926896
v -0.0158933834 -0.0251188084 -0.0579862947
v -0.0156391434 -0.033858337 -0.0578298254
v -0.0155185703 -0.0339789005 -0.0577082033
v -0.0156836418 -0.0338138338 -0.0553135366
v -0.0155060963 -0.0339913794 -0.0550710673
v -0.0156715492 -0.0253406426 -0.0599707694
v -0.0156471733 -0.0253650232 -0.0579619474
v -0.0153995232 -0.0340979477 -0.0575836272
v -0.01528204 -0.0342154404 -0.0574561281
v -0.0153346447 -0.0341628309 -0.054819984
v -0.0152512649 -0.0342462059 -0.0546913071
v -0.0153765015 -0.0256356903 -0.0599342628
v -0.0154017071 -0.0256104847 -0.0579254622
v -0.01516614 -0.0343313404 -0.0573257513
v -0.0150518612 -0.0344456097 -0.0571925325
v -0.0151694969 -0.0343279787 -0.0545605893
v -0.0150108437 -0.034486632 -0.0542932029
v -0.015229359 -0.0257828327 -0.0599105544
v -0.0151572994 -0.0258548971 -0.0578768845
v -0.0149392513 -0.0345582243 -0.0570565147
v -0.014828339 -0.0346691414 -0.0569177384
v -0.0148588947 -0.0346385857 -0.0540181513
v -0.0147854809 -0.03471199 -0.0538778515
v -0.014936066 -0.0260761257 -0.0598522611
v -0.0149142364 -0.0260979601 -0.0578162713
v -0.0147191528 -0.0347783276 -0.0567762442
v -0.0146117214 -0.0348857494 -0.0566320772
v -0.0145060924 -0.0349913784 -0.0564852805
v -0.0146439175 -0.0348535582 -0.053591928
v -0.0145094875 -0.0349879833 -0.0532991929
v -0.0146443848 -0.026367807 -0.0597795267
v -0.0146728138 -0.0263393828 -0.0577437015
v -0.0144022945 -0.0350951763 -0.0563358994
v -0.0143003563 -0.0351971193 -0.0561839814
v -0.0144450096 -0.035052466 -0.0531503816
v -0.0143216041 -0.0351758715 -0.0528480954
v -0.0142627148 -0.0352347609 -0.052694716
v -0.0144992641 -0.0265129276 -0.0597377701
v -0.0144333271 -0.0265788647 -0.0576592584
v -0.0142003063 -0.0352971693 -0.0560295672
v -0.0141021732 -0.0353953024 -0.0558727093
v -0.0140059952 -0.0354914805 -0.0557134504
v -0.0142057327 -0.0352917477 -0.052539906
v -0.0141506676 -0.0353468128 -0.0523837109
v -0.0140463547 -0.035451121 -0.0520673676
v -0.0142106823 -0.0268015143 -0.0596435494
v -0.014196072 -0.0268161198 -0.0575630469
v -0.0139117912 -0.0355856796 -0.0555518456
v -0.0138195995 -0.0356778713 -0.0553879375
v -0.0139971451 -0.0355003306 -0.0519073124
v -0.0139046863 -0.0355927893 -0.0515836806
v -0.0138202671 -0.0356772038 -0.051255681
v -0.0137811092 -0.0357163616 -0.0510901709
v -0.0139245991 -0.0270875975 -0.0595351405
v -0.013782597 -0.0272295948 -0.0594756575
v -0.0139613441 -0.0270508524 -0.0574551864
v -0.0137294487 -0.0357680269 -0.0552217813
v -0.013555365 -0.0359421154 -0.0548829169
v -0.0137089542 -0.0357885262 -0.0507563729
v -0.0136759666 -0.0358215042 -0.0505881901
v -0.0136450676 -0.0358524033 -0.0504192181
v -0.0135895447 -0.0359079262 -0.0500791163
v -0.0135649399 -0.035932531 -0.0499080892
v -0.0135220817 -0.0359753891 -0.0495643444
v -0.0135038475 -0.0359936329 -0.0493917317
v -0.0135009197 -0.0275112768 -0.0593462224
v -0.0135005669 -0.0275116249 -0.0572050495
v -0.0136413578 -0.027370834 -0.0594126792
v -0.0137294105 -0.0272827812 -0.0573358054
v -0.0134714798 -0.0360259958 -0.0547103138
v -0.0133101658 -0.0361873051 -0.0543590302
v -0.0134737686 -0.0360237118 -0.0490452857
v -0.0134619335 -0.0360355373 -0.0488715572
v -0.0134447197 -0.0360527559 -0.0485233588
v -0.013439341 -0.0360581394 -0.0483489938
v -0.013436108 -0.0360613676 -0.0481745238
v -0.0134350304 -0.0360624453 -0.047999999
v -0.0133613209 -0.0276508757 -0.0592763109
v -0.0133873943 -0.0276247974 -0.0571354551
v -0.0132327942 -0.0362646814 -0.0541804571
v -0.0130846981 -0.0364127728 -0.0538177152
v -0.0130140404 -0.0364834353 -0.0536336584
v -0.0132225994 -0.0277895924 -0.0592029662
v -0.0131637005 -0.0278484913 -0.0569879408
v -0.0129456524 -0.0365518185 -0.053447885
v -0.0128158192 -0.0366816565 -0.0530714197
v -0.0127544025 -0.0367430683 -0.0528808398
v -0.0129479889 -0.0280642029 -0.0590460582
v -0.0128121857 -0.0282000109 -0.0589625449
v -0.0129437927 -0.0280684038 -0.0568294759
v -0.0128353313 -0.0281768604 -0.0567461963
v -0.012695351 -0.0368021198 -0.0526887746
v -0.0126386837 -0.0368587919 -0.0524952788
v -0.0125325397 -0.0369649359 -0.0521042414
v -0.0126774219 -0.0283347698 -0.0588756938
v -0.012727919 -0.0282842728 -0.0566602535
v -0.0125163654 -0.0284958311 -0.0564804811
v -0.0124831013 -0.0370143696 -0.0519068189
v -0.0124361137 -0.0370613619 -0.0517082043
v -0.0123495201 -0.0371479555 -0.0513076491
v -0.0123099426 -0.0371875282 -0.0511058278
v -0.0122728638 -0.0372246119 -0.0509030623
v -0.0124112228 -0.0286009737 -0.0586920781
v -0.0124122719 -0.0285999151 -0.0563867064
v -0.0122382931 -0.0372591826 -0.0506994123
v -0.0122062401 -0.0372912355 -0.0504949398
v -0.0121497253 -0.0373477503 -0.0500837774
v -0.0121252827 -0.037372193 -0.049877214
v -0.0121033958 -0.0373940798 -0.0496700783
v -0.0120840649 -0.0374134108 -0.0494624324
v -0.0120531086 -0.0374443718 -0.0490458698
v -0.0120414833 -0.0374559876 -0.0488370771
v -0.0120324425 -0.0374650284 -0.0486280317
v -0.0120259861 -0.0374714895 -0.0484187932
v -0.0120221046 -0.0374753662 -0.0482094283
v -0.0120208172 -0.0374766584 -0.047999999
v -0.0120079807 -0.0290042111 -0.0559863563
v -0.0121497063 -0.0288624855 -0.0584954376
v -0.012207661 -0.0288045355 -0.0561915202
v -0.0118932156 -0.029118981 -0.0582860084
v -0.0117669395 -0.0292452522 -0.0581765766
v -0.0119100765 -0.02910212 -0.0558801074
v -0.0116420368 -0.029370155 -0.0580640478
v -0.0115185455 -0.0294936462 -0.0579484506
v -0.011718264 -0.0292939325 -0.0556604452
v -0.0115319923 -0.0294802042 -0.0554314489
v -0.0113964943 -0.0296156927 -0.0578298254
v -0.0112759308 -0.029736261 -0.0577082033
v -0.0114410023 -0.0295711943 -0.0553135366
v -0.0113514809 -0.0296607157 -0.0551933975
v -0.0110086254 -0.0300035664 -0.0546913071
v -0.0111568836 -0.0298553082 -0.0575836272
v -0.0110393909 -0.0299727961 -0.0574561281
v -0.0111769585 -0.0298352381 -0.0549465842
v -0.0109234909 -0.0300886961 -0.0573257513
v -0.0108092216 -0.0302029701 -0.0571925325
v -0.0109268574 -0.0300853392 -0.0545605893
v -0.010846701 -0.0301654907 -0.054427876
v -0.0106966118 -0.0303155848 -0.0570565147
v -0.0105856899 -0.0304264971 -0.0569177384
v -0.0106913761 -0.0303208157 -0.0541566153
v -0.0105428413 -0.0304693504 -0.0538778515
v -0.0104765037 -0.0305356833 -0.0567762442
v -0.0103690819 -0.0306431099 -0.0566320772
v -0.0102634529 -0.0307487389 -0.0564852805
v -0.0104711727 -0.0305410191 -0.0537357635
v -0.010333157 -0.0306790348 -0.0534463902
v -0.010159655 -0.0308525368 -0.0563358994
v -0.0100577167 -0.0309544798 -0.0561839814
v -0.0102023701 -0.0308098265 -0.0531503816
v -0.0101397327 -0.0308724638 -0.052999999
v -0.0100200752 -0.0309921213 -0.052694716
v -0.00975450553 -0.031257691 -0.0519073124
v -0.00995766677 -0.0310545298 -0.0560295672
v -0.00985953368 -0.0311526629 -0.0558727093
v -0.00976335563 -0.0312488409 -0.0557134504
v -0.00996309318 -0.0310491034 -0.052539906
v -0.00990801849 -0.0311041733 -0.0523837109
v -0.00985488929 -0.0311573025 -0.0522261829
v -0.00950136222 -0.0315108343 -0.0509237165
v -0.00966915168 -0.0313430401 -0.0555518456
v -0.00957695998 -0.0314352318 -0.0553879375
v -0.00970727958 -0.031304917 -0.0517460651
v -0.00961882629 -0.0313933655 -0.0514202018
v -0.00953846969 -0.0314737221 -0.0510901709
v -0.00926120796 -0.0317509886 -0.0493917317
v -0.00948680915 -0.0315253826 -0.0552217813
v -0.0093127159 -0.0316994711 -0.0548829169
v -0.00946630515 -0.0315458819 -0.0507563729
v -0.0094333271 -0.0315788647 -0.0505881901
v -0.00940242805 -0.0316097637 -0.0504192181
v -0.00937361755 -0.0316385742 -0.0502495117
v -0.00932230033 -0.0316898914 -0.0499080892
v -0.00929981269 -0.0317123791 -0.0497364826
v -0.00922884025 -0.0317833563 -0.0547103138
v -0.00906752624 -0.0319446655 -0.0543590302
v -0.00924509086 -0.0317670961 -0.0492186923
v -0.00921929397 -0.0317928978 -0.0488715572
v -0.00920961417 -0.0318025824 -0.0486975641
v -0.00919669189 -0.0318154999 -0.0483489938
v -0.00919346847 -0.0318187281 -0.0481745238
v -0.00919239082 -0.0318198057 -0.047999999
v -0.00899015464 -0.0320220419 -0.0541804571
v -0.00884205856 -0.0321701332 -0.0538177152
v -0.00877140083 -0.0322407957 -0.0536336584
v -0.00851176299 -0.0325004288 -0.0528808398
v -0.00870301284 -0.0323091789 -0.053447885
v -0.00857317962 -0.0324390122 -0.0530714197
v -0.00845271148 -0.0325594803 -0.0526887746
v -0.00839604415 -0.0326161524 -0.0524952788
v -0.0082899002 -0.0327222916 -0.0521042414
v -0.00824046172 -0.03277173 -0.0519068189
v -0.00819347419 -0.0328187176 -0.0517082043
v -0.00810688056 -0.0329053112 -0.0513076491
v -0.00806730308 -0.0329448887 -0.0511058278
v -0.00803022422 -0.0329819676 -0.0509030623
v -0.00799565353 -0.033016543 -0.0506994123
v -0.00796360053 -0.033048596 -0.0504949398
v -0.00790708579 -0.033105106 -0.0500837774
v -0.00788264312 -0.0331295487 -0.049877214
v -0.0078607563 -0.0331514402 -0.0496700783
v -0.00784142532 -0.0331707712 -0.0494624324
v -0.00781045951 -0.0332017275 -0.0490458698
v -0.00779884376 -0.033213348 -0.0488370771
v -0.00778980293 -0.0332223888 -0.0486280317
v -0.00778334655 -0.03322885 -0.0484187932
v -0.0077794651 -0.0332327267 -0.0482094283
v -0.00777817764 -0.0332340189 -0.047999999
f 1 37 2
f 86 1 2
f 15 36 1
f 85 15 1
f 1 36 37
f 85 1 86
f 2 38 3
f 87 2 3
f 2 37 38
f 86 2 87
f 3 39 4
f 88 3 4
f 3 38 39
f 87 3 88
f 4 40 5
f 89 4 5
f 4 39 40
f 88 4 89
f 5 27 6
f 90 5 6
f 5 40 27
f 89 5 90
f 6 28 7
f 91 6 7
f 6 27 28
f 90 6 91
f 7 29 8
f 92 7 8
f 7 28 29
f 91 7 92
f 8 30 9
f 93 8 9
f 8 29 30
f 92 8 93
f 9 31 10
f 94 9 10
f 9 30 31
f 93 9 94
f 10 31 32
f 10 32 94
f 11 45 12
f 98 11 12
f 18 43 11
f 97 18 11
f 11 43 44
f 11 44 45
f 97 11 98
f 12 46 13
f 99 12 13
f 12 45 46
f 98 12 99
f 13 47 14
f 100 13 14
f 13 46 47
f 99 13 100
f 14 35 15
f 101 14 15
f 14 47 35
f 100 14 101
f 15 35 36
f 101 15 85
f 16 50 17
f 107 16 17
f 21 49 16
f 106 21 16
f 16 49 50
f 106 16 107
f 17 51 18
f 108 17 18
f 17 50 51
f 107 17 108
f 18 51 43
f 108 18 97
f 19 55 20
f 113 19 20
f 23 54 19
f 112 23 19
f 19 54 55
f 112 19 113
f 20 56 21
f 114 20 21
f 20 55 56
f 113 20 114
f 21 56 49
f 114 21 106
f 22 60 23
f 118 22 23
f 26 59 22
f 117 26 22
f 22 59 60
f 117 22 118
f 23 60 54
f 118 23 112
f 24 63 25
f 123 24 25
f 34 62 24
f 122 34 24
f 24 62 63
f 122 24 123
f 25 64 26
f 124 25 26
f 25 63 64
f 123 25 124
f 26 64 59
f 124 26 117
f 27 121 28
f 40 141 27
f 27 141 121
f 28 125 29
f 28 121 125
f 29 126 30
f 29 125 126
f 30 127 31
f 30 126 127
f 31 128 32
f 31 127 128
f 94 32 129
f 32 128 129
f 33 67 34
f 135 33 34
f 42 66 33
f 134 42 33
f 33 66 67
f 134 33 135
f 34 67 62
f 135 34 122
f 35 136 36
f 47 133 35
f 35 133 136
f 36 137 37
f 36 136 137
f 37 138 38
f 37 137 138
f 38 139 39
f 38 138 139
f 39 140 40
f 39 139 140
f 40 140 141
f 41 71 42
f 146 41 42
f 48 75 41
f 145 48 41
f 41 75 71
f 145 41 146
f 42 72 66
f 42 71 72
f 146 42 134
f 43 147 44
f 51 158 43
f 43 158 147
f 44 148 45
f 44 147 148
f 45 149 46
f 45 148 149
f 46 150 47
f 46 149 150
f 47 150 133
f 53 74 48
f 155 53 48
f 48 74 75
f 155 48 145
f 49 156 50
f 56 164 49
f 49 164 156
f 50 157 51
f 50 156 157
f 51 157 158
f 52 77 53
f 154 52 53
f 58 81 52
f 161 58 52
f 52 81 77
f 161 52 154
f 53 77 74
f 154 53 155
f 54 162 55
f 60 170 54
f 54 170 162
f 55 163 56
f 55 162 163
f 56 163 164
f 57 80 58
f 168 57 58
f 61 84 57
f 167 61 57
f 57 84 80
f 167 57 168
f 58 80 81
f 168 58 161
f 59 169 60
f 64 177 59
f 59 177 169
f 60 169 170
f 68 83 61
f 174 68 61
f 61 83 84
f 174 61 167
f 62 175 63
f 67 183 62
f 62 183 175
f 63 176 64
f 63 175 176
f 64 176 177
f 65 96 68
f 173 65 68
f 70 105 65
f 181 70 65
f 65 105 96
f 181 65 173
f 66 182 67
f 72 189 66
f 66 189 182
f 67 182 183
f 68 96 83
f 173 68 174
f 69 104 70
f 187 69 70
f 73 111 69
f 186 73 69
f 69 111 104
f 186 69 187
f 70 104 105
f 187 70 181
f 71 188 72
f 75 194 71
f 71 194 188
f 72 188 189
f 76 110 73
f 192 76 73
f 73 110 111
f 192 73 186
f 74 193 75
f 77 199 74
f 74 199 193
f 75 193 194
f 79 116 76
f 198 79 76
f 76 116 110
f 198 76 192
f 81 197 77
f 77 197 199
f 78 132 79
f 203 78 79
f 82 131 78
f 202 82 78
f 78 131 132
f 202 78 203
f 79 120 116
f 79 132 120
f 203 79 198
f 80 204 81
f 84 209 80
f 80 209 204
f 81 204 197
f 95 144 82
f 207 95 82
f 82 144 131
f 207 82 202
f 83 208 84
f 96 214 83
f 83 214 208
f 84 208 209
f 138 85 86
f 137 101 85
f 137 85 138
f 139 86 87
f 138 86 139
f 140 87 88
f 139 87 140
f 141 88 89
f 140 88 141
f 121 89 90
f 141 89 121
f 125 90 91
f 121 90 125
f 126 91 92
f 125 91 126
f 127 92 93
f 126 92 127
f 128 93 94
f 127 93 128
f 128 94 129
f 103 153 95
f 213 103 95
f 95 153 144
f 213 95 207
f 105 212 96
f 96 212 214
f 149 97 98
f 147 108 97
f 147 97 148
f 148 97 149
f 150 98 99
f 149 98 150
f 133 99 100
f 150 99 133
f 136 100 101
f 133 100 136
f 136 101 137
f 102 152 103
f 218 102 103
f 109 160 102
f 217 109 102
f 102 160 152
f 217 102 218
f 103 152 153
f 218 103 213
f 104 219 105
f 111 224 104
f 104 224 219
f 105 219 212
f 157 106 107
f 156 114 106
f 156 106 157
f 158 107 108
f 157 107 158
f 158 108 147
f 115 166 109
f 222 115 109
f 109 166 160
f 222 109 217
f 110 223 111
f 116 228 110
f 110 228 223
f 111 223 224
f 163 112 113
f 162 118 112
f 162 112 163
f 164 113 114
f 163 113 164
f 164 114 156
f 119 172 115
f 227 119 115
f 115 172 166
f 227 115 222
f 120 232 116
f 116 232 228
f 170 117 118
f 169 124 117
f 169 117 170
f 170 118 162
f 130 180 119
f 231 130 119
f 119 180 172
f 231 119 227
f 132 237 120
f 120 237 232
f 176 122 123
f 175 135 122
f 175 122 176
f 177 123 124
f 176 123 177
f 177 124 169
f 143 179 130
f 235 143 130
f 130 179 180
f 235 130 231
f 131 236 132
f 144 242 131
f 131 242 236
f 132 236 237
f 183 134 135
f 182 146 134
f 182 134 183
f 183 135 175
f 142 185 143
f 241 142 143
f 151 191 142
f 240 151 142
f 142 191 185
f 240 142 241
f 143 185 179
f 241 143 235
f 153 247 144
f 144 247 242
f 188 145 146
f 194 155 145
f 194 145 188
f 189 146 182
f 188 146 189
f 159 196 151
f 246 159 151
f 151 196 191
f 246 151 240
f 152 245 153
f 160 252 152
f 152 252 245
f 153 245 247
f 193 154 155
f 199 161 154
f 199 154 193
f 193 155 194
f 165 201 159
f 251 165 159
f 159 201 196
f 251 159 246
f 166 256 160
f 160 256 252
f 197 168 161
f 197 161 199
f 171 206 165
f 255 171 165
f 165 206 201
f 255 165 251
f 172 260 166
f 166 260 256
f 204 167 168
f 209 174 167
f 209 167 204
f 204 168 197
f 178 206 171
f 259 178 171
f 259 171 255
f 180 265 172
f 172 265 260
f 208 173 174
f 214 181 173
f 214 173 208
f 208 174 209
f 184 211 178
f 263 184 178
f 178 211 206
f 263 178 259
f 179 264 180
f 185 269 179
f 179 269 264
f 180 264 265
f 212 187 181
f 212 181 214
f 190 216 184
f 268 190 184
f 184 216 211
f 268 184 263
f 191 273 185
f 185 273 269
f 219 186 187
f 224 192 186
f 224 186 219
f 219 187 212
f 195 221 190
f 272 195 190
f 190 221 216
f 272 190 268
f 196 277 191
f 191 277 273
f 223 198 192
f 223 192 224
f 200 226 195
f 276 200 195
f 195 226 221
f 276 195 272
f 201 281 196
f 196 281 277
f 228 203 198
f 228 198 223
f 205 230 200
f 280 205 200
f 200 230 226
f 280 200 276
f 206 285 201
f 201 285 281
f 237 202 203
f 236 207 202
f 236 202 237
f 232 203 228
f 237 203 232
f 210 234 205
f 284 210 205
f 205 234 230
f 284 205 280
f 211 289 206
f 206 289 285
f 242 213 207
f 242 207 236
f 215 239 210
f 288 215 210
f 210 239 234
f 288 210 284
f 216 293 211
f 211 293 289
f 247 218 213
f 247 213 242
f 220 244 215
f 292 220 215
f 215 244 239
f 292 215 288
f 221 297 216
f 216 297 293
f 245 217 218
f 252 222 217
f 252 217 245
f 245 218 247
f 225 250 220
f 296 225 220
f 220 250 244
f 296 220 292
f 226 301 221
f 221 301 297
f 256 227 222
f 256 222 252
f 229 249 225
f 300 229 225
f 225 249 250
f 300 225 296
f 230 305 226
f 226 305 301
f 260 231 227
f 260 227 256
f 233 254 229
f 304 233 229
f 229 254 249
f 304 229 300
f 234 308 230
f 230 308 305
f 265 235 231
f 265 231 260
f 238 258 233
f 307 238 233
f 233 258 254
f 307 233 304
f 239 312 234
f 234 312 308
f 264 241 235
f 264 235 265
f 243 262 238
f 311 243 238
f 238 262 258
f 311 238 307
f 244 317 239
f 239 317 312
f 269 240 241
f 273 246 240
f 273 240 269
f 269 241 264
f 248 267 243
f 316 248 243
f 243 267 262
f 316 243 311
f 250 315 244
f 244 315 317
f 277 251 246
f 277 246 273
f 253 271 248
f 320 253 248
f 248 271 267
f 320 248 316
f 249 321 250
f 254 325 249
f 249 325 321
f 250 321 315
f 281 255 251
f 281 251 277
f 257 275 253
f 324 257 253
f 253 275 271
f 324 253 320
f 258 329 254
f 254 329 325
f 285 259 255
f 285 255 281
f 261 275 257
f 328 261 257
f 328 257 324
f 262 331 258
f 258 331 329
f 285 263 259
f 266 279 261
f 330 266 261
f 261 279 275
f 330 261 328
f 267 333 262
f 262 333 331
f 289 268 263
f 289 263 285
f 270 283 266
f 332 270 266
f 266 283 279
f 332 266 330
f 271 335 267
f 267 335 333
f 293 272 268
f 293 268 289
f 274 287 270
f 334 274 270
f 270 287 283
f 334 270 332
f 275 337 271
f 271 337 335
f 297 276 272
f 297 272 293
f 278 291 274
f 336 278 274
f 274 291 287
f 336 274 334
f 279 339 275
f 275 339 337
f 301 280 276
f 301 276 297
f 282 295 278
f 338 282 278
f 278 295 291
f 338 278 336
f 283 341 279
f 279 341 339
f 305 284 280
f 305 280 301
f 286 295 282
f 340 286 282
f 340 282 338
f 287 343 283
f 283 343 341
f 308 288 284
f 308 284 305
f 290 299 286
f 342 290 286
f 286 299 295
f 342 286 340
f 291 345 287
f 287 345 343
f 312 292 288
f 312 288 308
f 294 303 290
f 344 294 290
f 290 303 299
f 344 290 342
f 295 347 291
f 291 347 345
f 317 296 292
f 317 292 312
f 298 306 294
f 346 298 294
f 294 306 303
f 346 294 344
f 299 349 295
f 295 349 347
f 315 300 296
f 315 296 317
f 302 309 298
f 348 302 298
f 298 309 306
f 348 298 346
f 303 351 299
f 299 351 349
f 321 304 300
f 321 300 315
f 310 309 302
f 350 310 302
f 350 302 348
f 306 353 303
f 303 353 351
f 325 307 304
f 325 304 321
f 309 354 306
f 306 354 353
f 329 311 307
f 329 307 325
f 310 314 309
f 314 356 309
f 309 356 354
f 313 314 310
f 352 313 310
f 352 310 350
f 331 316 311
f 331 311 329
f 313 319 314
f 318 319 313
f 355 318 313
f 355 313 352
f 319 358 314
f 314 358 356
f 333 320 316
f 333 316 331
f 318 323 319
f 322 323 318
f 357 322 318
f 357 318 355
f 323 360 319
f 319 360 358
f 335 324 320
f 335 320 333
f 322 327 323
f 326 327 322
f 359 326 322
f 359 322 357
f 327 362 323
f 323 362 360
f 337 328 324
f 337 324 335
f 363 327 326
f 361 326 359
f 361 404 326
f 326 404 363
f 364 362 327
f 363 364 327
f 337 330 328
f 339 332 330
f 339 330 337
f 341 334 332
f 341 332 339
f 343 336 334
f 343 334 341
f 345 338 336
f 345 336 343
f 347 340 338
f 347 338 345
f 347 342 340
f 349 344 342
f 349 342 347
f 351 346 344
f 351 344 349
f 353 348 346
f 353 346 351
f 354 350 348
f 354 348 353
f 354 352 350
f 356 352 354
f 356 355 352
f 358 355 356
f 358 357 355
f 360 357 358
f 360 359 357
f 362 359 360
f 362 361 359
f 362 404 361
f 362 364 405
f 405 404 362
f 363 365 364
f 363 404 365
f 364 365 366
f 410 364 366
f 405 364 410
f 366 365 367
f 365 409 367
f 365 404 409
f 366 367 369
f 366 369 368
f 416 366 368
f 410 366 416
f 367 415 369
f 367 409 415
f 368 369 371
f 368 373 370
f 422 368 370
f 368 371 373
f 416 368 422
f 369 421 371
f 369 415 421
f 370 375 372
f 428 370 372
f 370 373 375
f 422 370 428
f 371 427 373
f 371 421 427
f 372 379 374
f 434 372 374
f 372 375 377
f 372 377 379
f 428 372 434
f 373 433 375
f 373 427 433
f 374 383 376
f 440 374 376
f 374 379 381
f 374 381 383
f 434 374 440
f 375 439 377
f 375 433 439
f 376 386 378
f 447 376 378
f 376 383 384
f 376 384 386
f 440 376 447
f 377 446 379
f 377 439 446
f 378 390 380
f 454 378 380
f 378 386 388
f 378 388 390
f 447 378 454
f 379 453 381
f 379 446 453
f 380 392 382
f 462 380 382
f 380 390 392
f 454 380 462
f 381 461 383
f 381 453 461
f 382 396 385
f 471 382 385
f 382 392 393
f 382 393 396
f 462 382 471
f 383 469 384
f 383 461 469
f 384 470 386
f 384 469 470
f 385 399 387
f 484 385 387
f 385 396 399
f 471 385 484
f 386 483 388
f 386 470 483
f 387 401 389
f 482 387 389
f 387 399 401
f 484 387 482
f 388 493 390
f 388 483 481
f 388 481 493
f 389 411 391
f 499 389 391
f 389 401 406
f 389 406 407
f 389 407 411
f 482 389 494
f 494 389 499
f 390 498 392
f 390 493 498
f 391 417 394
f 505 391 394
f 391 411 412
f 391 412 417
f 499 391 505
f 392 503 393
f 392 498 503
f 393 504 396
f 393 503 504
f 394 418 395
f 506 394 395
f 394 417 418
f 505 394 506
f 395 423 397
f 511 395 397
f 395 418 423
f 506 395 511
f 396 510 399
f 396 504 510
f 397 424 398
f 512 397 398
f 397 423 424
f 511 397 512
f 398 429 400
f 519 398 400
f 398 424 429
f 512 398 519
f 399 518 401
f 399 510 518
f 400 435 402
f 534 400 402
f 400 429 430
f 400 430 435
f 519 400 534
f 401 533 406
f 401 518 533
f 402 441 403
f 532 402 403
f 402 435 436
f 402 436 441
f 534 402 532
f 403 442 408
f 537 403 408
f 403 441 442
f 532 403 537
f 404 405 409
f 409 405 410
f 406 535 407
f 406 533 535
f 407 536 411
f 407 535 536
f 408 443 413
f 540 408 413
f 408 442 443
f 537 408 540
f 409 410 415
f 415 410 421
f 421 410 416
f 411 538 412
f 411 536 538
f 412 539 417
f 412 538 539
f 413 443 414
f 541 413 414
f 540 413 541
f 414 443 419
f 544 414 419
f 541 414 544
f 421 416 427
f 433 416 422
f 427 416 433
f 417 542 418
f 417 539 542
f 418 543 423
f 418 542 543
f 419 443 420
f 545 419 420
f 544 419 545
f 420 443 425
f 549 420 425
f 545 420 549
f 439 422 428
f 433 422 439
f 423 547 424
f 423 543 547
f 424 548 429
f 424 547 548
f 425 443 426
f 546 425 426
f 549 425 546
f 426 443 431
f 552 426 431
f 546 426 552
f 453 428 434
f 439 428 446
f 446 428 453
f 429 550 430
f 429 548 550
f 430 551 435
f 430 550 551
f 431 443 432
f 553 431 432
f 552 431 553
f 432 443 437
f 556 432 437
f 553 432 556
f 469 434 440
f 453 434 461
f 461 434 469
f 435 554 436
f 435 551 554
f 436 555 441
f 436 554 555
f 437 443 438
f 557 437 438
f 556 437 557
f 438 443 444
f 561 438 444
f 557 438 561
f 483 440 447
f 469 440 470
f 470 440 483
f 441 558 442
f 441 555 558
f 442 559 443
f 442 558 559
f 444 443 448
f 443 560 448
f 443 559 560
f 444 448 445
f 562 444 445
f 561 444 562
f 445 448 450
f 565 445 450
f 562 445 565
f 498 447 454
f 483 447 481
f 481 447 493
f 493 447 498
f 451 448 449
f 448 563 449
f 450 448 451
f 448 560 563
f 451 449 452
f 452 449 455
f 449 564 455
f 449 563 564
f 566 450 451
f 565 450 566
f 567 451 452
f 566 451 567
f 452 455 458
f 572 452 458
f 567 452 572
f 503 454 462
f 498 454 503
f 459 455 456
f 455 569 456
f 458 455 459
f 455 564 569
f 460 456 457
f 456 570 457
f 459 456 460
f 456 569 570
f 460 457 465
f 465 457 463
f 457 571 463
f 457 570 571
f 573 458 459
f 572 458 573
f 574 459 460
f 573 459 574
f 568 460 465
f 574 460 568
f 510 462 471
f 503 462 504
f 504 462 510
f 466 463 464
f 463 576 464
f 465 463 466
f 463 571 576
f 466 464 467
f 467 464 468
f 468 464 472
f 464 577 472
f 464 576 577
f 578 465 466
f 568 465 578
f 579 466 467
f 578 466 579
f 580 467 468
f 579 467 580
f 468 472 474
f 575 468 474
f 580 468 575
f 518 471 484
f 510 471 518
f 477 472 473
f 472 582 473
f 474 472 475
f 475 472 476
f 476 472 477
f 472 577 582
f 477 473 478
f 478 473 479
f 479 473 485
f 473 583 485
f 473 582 583
f 585 474 475
f 575 474 584
f 584 474 585
f 586 475 476
f 585 475 586
f 587 476 477
f 586 476 587
f 588 477 478
f 587 477 588
f 589 478 479
f 588 478 589
f 479 485 480
f 581 479 480
f 589 479 581
f 480 485 487
f 592 480 487
f 581 480 592
f 533 484 482
f 535 482 494
f 533 482 535
f 518 484 533
f 531 485 486
f 485 590 486
f 487 485 488
f 488 485 489
f 489 485 490
f 490 485 491
f 491 485 492
f 492 485 531
f 485 583 590
f 531 486 495
f 486 591 495
f 486 590 591
f 593 487 488
f 592 487 593
f 594 488 489
f 593 488 594
f 595 489 490
f 594 489 595
f 596 490 491
f 595 490 596
f 597 491 492
f 596 491 597
f 531 597 492
f 538 494 499
f 535 494 536
f 536 494 538
f 531 495 496
f 495 598 496
f 495 591 598
f 531 496 497
f 496 599 497
f 496 598 599
f 497 500 531
f 497 600 500
f 497 599 600
f 542 499 505
f 538 499 539
f 539 499 542
f 531 500 501
f 500 602 501
f 500 600 602
f 501 502 531
f 501 603 502
f 501 602 603
f 531 502 507
f 502 601 507
f 502 603 601
f 543 505 506
f 542 505 543
f 547 506 511
f 543 506 547
f 531 507 508
f 507 604 508
f 507 601 604
f 531 508 509
f 508 605 509
f 508 604 605
f 531 509 513
f 509 606 513
f 509 605 606
f 548 511 512
f 547 511 548
f 550 512 519
f 548 512 550
f 513 514 531
f 513 607 514
f 513 606 607
f 531 514 515
f 514 608 515
f 514 607 608
f 515 516 531
f 515 609 516
f 515 608 609
f 531 516 517
f 516 610 517
f 516 609 610
f 531 517 520
f 517 611 520
f 517 610 611
f 554 519 534
f 550 519 551
f 551 519 554
f 520 521 531
f 520 612 521
f 520 611 612
f 531 521 522
f 521 613 522
f 521 612 613
f 522 523 531
f 522 614 523
f 522 613 614
f 531 523 524
f 523 615 524
f 523 614 615
f 531 524 525
f 524 616 525
f 524 615 616
f 531 525 526
f 525 617 526
f 525 616 617
f 531 526 527
f 526 618 527
f 526 617 618
f 527 528 531
f 527 619 528
f 527 618 619
f 531 528 529
f 528 620 529
f 528 619 620
f 531 529 530
f 529 621 530
f 529 620 621
f 530 622 531
f 530 621 622
f 623 597 531
f 531 622 623
f 558 534 532
f 559 532 537
f 558 532 559
f 554 534 555
f 555 534 558
f 560 537 540
f 559 537 560
f 560 540 541
f 560 541 544
f 544 545 560
f 560 545 549
f 560 549 546
f 560 546 552
f 552 553 560
f 560 553 556
f 560 556 557
f 560 557 561
f 560 561 563
f 563 561 562
f 562 565 563
f 563 566 564
f 563 565 566
f 564 566 567
f 564 567 569
f 569 567 572
f 571 574 568
f 571 568 576
f 576 568 578
f 569 573 570
f 569 572 573
f 570 574 571
f 570 573 574
f 582 580 575
f 582 575 584
f 576 578 577
f 577 578 579
f 579 580 577
f 577 580 582
f 590 589 581
f 581 592 590
f 582 587 583
f 582 584 585
f 582 585 586
f 586 587 582
f 583 587 588
f 588 589 583
f 583 589 590
f 590 623 591
f 590 592 593
f 590 593 594
f 594 595 590
f 590 595 596
f 590 596 597
f 597 623 590
f 591 623 598
f 598 623 599
f 599 623 600
f 600 623 602
f 603 623 601
f 601 623 604
f 602 623 603
f 604 623 605
f 605 623 606
f 606 623 607
f 607 623 608
f 608 623 609
f 609 623 610
f 610 623 611
f 611 623 612
f 612 623 613
f 613 623 614
f 614 623 615
f 615 623 616
f 616 623 617
f 617 623 618
f 618 623 619
f 619 623 620
f 620 623 621
f 621 623 622
