v 0.0157458214 0.0181953093 -0.00100000095
v 0.0156994728 0.0182416483 -0.000876743317
v 0.0157458214 0.0181953093 0.000999999523
v 0.015668774 0.0182723518 -0.000781461716
v 0.0156045345 0.0183365866 -0.000517637253
v 0.0155701164 0.0183710142 -0.000278346062
v 0.0155565647 0.0183845612 -3.49040031e-05
v 0.015566893 0.0183742329 0.000243738174
v 0.0155983547 0.0183427664 0.000483844757
v 0.0156593231 0.018281798 0.000749214172
v 0.0156888489 0.018252277 0.000845237255
v 0.0159532646 0.0179878613 -0.00138931704
v 0.0159881691 0.0179529568 0.00143868017
v 0.0158715156 0.018069615 -0.00125863981
v 0.0157583431 0.0181827828 -0.00103007507
v 0.015856152 0.0180849787 0.00123132277
v 0.0159362701 0.018004851 0.00136399555
v 0.0162003235 0.0177407976 -0.00167734098
v 0.0162421898 0.0176989361 0.00171433496
v 0.0160427574 0.0178983685 -0.00150941801
v 0.0160060696 0.0179350563 -0.00146270704
v 0.0160242657 0.0179168554 0.00148628998
v 0.0161797432 0.0177613827 0.00165807533
v 0.0164637569 0.0174773737 -0.00186716032
v 0.016486874 0.0174542519 0.00187938499
v 0.0163066296 0.0176344963 -0.00176589441
v 0.0162634567 0.0176776692 -0.0017320509
v 0.016284943 0.0176561876 0.00174923944
v 0.0164407925 0.0175003382 0.00185436773
v 0.0167007164 0.0172404095 -0.00196325493
v 0.0167493347 0.0171917959 0.00197537708
v 0.0165101437 0.017430987 -0.00189103794
v 0.0166765312 0.0172645947 0.00195629406
v 0.0169458774 0.0169952437 -0.00199969482
v 0.0169952396 0.0169458815 0.00199969578
v 0.0169705585 0.0169705626 0.00200000095
v 0.0167737392 0.0171673819 -0.00198053551
v 0.0169212059 0.01701992 0.00199878263
v 0.0171917919 0.0167493292 -0.00197537613
v 0.0172404102 0.0167007204 0.0019632535
v 0.0170199207 0.0169212051 -0.00199878168
v 0.0171673874 0.0167737433 0.00198053646
v 0.0174542526 0.0164868733 -0.00187938643
v 0.0174773697 0.0164637562 0.00186716127
v 0.0172645954 0.0166765305 -0.00195629549
v 0.017430983 0.0165101381 0.00189103651
v 0.0176989368 0.016242189 -0.00171433401
v 0.0177408031 0.0162003275 0.00167734194
v 0.0175003342 0.0164407869 -0.00185436678
v 0.0176561836 0.0162849375 -0.00174923849
v 0.0176776699 0.016263456 0.00173205185
v 0.0176344971 0.0163066288 0.00176589537
v 0.0179529575 0.0159881683 -0.00143867922
v 0.017987862 0.0159532639 0.00138931561
v 0.0177613834 0.0161797424 -0.00165807438
v 0.017916861 0.0160242697 -0.00148628902
v 0.0179350571 0.0160060736 0.001462708
v 0.0178983692 0.0160427567 0.00150941896
v 0.0181953052 0.0157458159 -0.00100000095
v 0.0182074646 0.015733666 -0.000969619274
v 0.0182416538 0.0156994768 0.000876741886
v 0.0180048565 0.0159362742 -0.00136399698
v 0.0180849747 0.0158561464 -0.00123132181
v 0.0181827835 0.0157583471 0.00103007603
v 0.018069611 0.0158715101 0.00125864077
v 0.0182522777 0.0156888481 -0.000845236301
v 0.018281794 0.0156593271 -0.000749213219
v 0.0183427719 0.0155983587 -0.000483843803
v 0.0183742336 0.0155668922 -0.000243739605
v 0.0183847717 0.0155563494 4.7683716e-10
v 0.0183710102 0.0155701109 0.000278347015
v 0.0183365921 0.0156045385 0.000517638206
v 0.0182723526 0.0156687733 0.000781462669
v 0.0227496818 0.0253335806 -0.000813474178
v 0.0227303986 0.0253528687 -0.000749213219
v 0.0226694206 0.0254138371 -0.000483843803
v 0.0226379589 0.0254453035 -0.000243739605
v 0.0226274208 0.0254558464 4.7683716e-10
v 0.0226411823 0.0254420801 0.000278347015
v 0.0226756004 0.0254076572 0.000517638206
v 0.0227398399 0.0253434225 0.000781462669
v 0.0229906658 0.0250925966 -0.00133826208
v 0.0229272179 0.0251560446 -0.00123132181
v 0.0228423122 0.0252409502 0.00105983782
v 0.0229425816 0.0251406809 0.00125864077
v 0.022829409 0.0252538487 -0.00103007507
v 0.0228047279 0.0252785297 -0.000969619274
v 0.0227599148 0.0253233429 0.000845237255
v 0.022829409 0.0252538487 0.00103007603
v 0.0232304672 0.0248527905 -0.00163830471
v 0.0230953411 0.0249879261 -0.00148628902
v 0.0230953411 0.0249879261 0.00148628998
v 0.0231138233 0.0249694391 0.00150941896
v 0.0230771355 0.0250061222 -0.00146270704
v 0.023007336 0.0250759216 0.00136399555
v 0.023489056 0.0245942064 -0.00184101057
v 0.0233560089 0.0247272535 -0.00174923849
v 0.0233345226 0.0247487351 0.00173205185
v 0.0233776955 0.0247055622 0.00176589537
v 0.0233132557 0.0247700068 -0.00171433401
v 0.0232508091 0.0248324486 0.00165807533
v 0.0237475971 0.0243356606 -0.00195629549
v 0.0236046127 0.024478645 0.00190211344
v 0.0235812096 0.0245020529 -0.00189103794
v 0.0235118584 0.0245714041 0.00185436773
v 0.0239922718 0.0240909859 -0.00199878168
v 0.0238448147 0.0242384525 0.00198053646
v 0.0238204006 0.0242628618 -0.00197537613
v 0.0237717823 0.0243114754 0.0019632535
v 0.0242384533 0.0238448092 -0.00198053551
v 0.0240909866 0.0239922758 0.00199878263
v 0.0240663151 0.0240169474 -0.00199969482
v 0.0240169529 0.0240663143 0.00199969578
v 0.024041634 0.0240416285 0.00200000095
v 0.0244786457 0.0236046167 -0.00190211248
v 0.0243356613 0.0237476011 0.00195629406
v 0.0243114761 0.0237717863 -0.00196325493
v 0.0242628578 0.0238203999 0.00197537708
v 0.024705563 0.0233776995 -0.00176589441
v 0.0247487358 0.0233345219 -0.0017320509
v 0.0247272591 0.0233560082 0.00174923944
v 0.024594212 0.0234890553 0.00184100914
v 0.0245714001 0.0235118576 -0.00185436678
v 0.0245020489 0.0235812088 0.00189103651
v 0.0249694351 0.0231138226 -0.00150941801
v 0.0249879269 0.0230953356 -0.00148628902
v 0.0249879269 0.0230953356 0.00148628998
v 0.0248527912 0.0232304712 0.00163830328
v 0.0248324493 0.0232508131 -0.00165807438
v 0.0247700027 0.0233132549 0.00171433496
v 0.0251406769 0.0229425808 -0.00125863981
v 0.0252409557 0.0228423115 -0.00105983925
v 0.0251560501 0.0229272171 0.00123132277
v 0.0250925926 0.0229906651 0.00133826065
v 0.0250759224 0.0230073401 -0.00136399698
v 0.025006123 0.0230771395 0.001462708
v 0.0253434185 0.0227398392 -0.000781461716
v 0.025407658 0.0226756044 -0.000517637253
v 0.0254420856 0.0226411816 -0.000278346062
v 0.0254556278 0.0226276346 -3.49040031e-05
v 0.0254558472 0.0226274153 4.7683716e-10
v 0.0254138378 0.0226694246 0.000483844757
v 0.0253528694 0.022730393 0.000749214172
v 0.0253335766 0.0227496811 0.000813472748
v 0.0252663711 0.0228168865 -0.00100000095
v 0.0253233437 0.0227599188 -0.000845236301
v 0.0252663711 0.0228168865 0.000999999523
v 0.0252538494 0.022829413 0.00103007603
f 59 2 1
f 2 87 1
f 63 1 15
f 1 86 15
f 59 1 63
f 1 87 86
f 60 4 2
f 4 87 2
f 60 2 59
f 11 73 3
f 3 88 11
f 3 61 16
f 16 89 3
f 3 73 61
f 3 89 88
f 66 5 4
f 5 75 4
f 66 4 60
f 4 75 74
f 4 74 87
f 67 6 5
f 6 76 5
f 67 5 66
f 5 76 75
f 68 7 6
f 7 77 6
f 68 6 67
f 6 77 76
f 69 8 7
f 8 78 7
f 69 7 68
f 7 78 77
f 8 70 9
f 9 79 8
f 70 8 69
f 8 79 78
f 9 71 10
f 10 80 9
f 9 70 71
f 9 80 79
f 10 72 11
f 11 81 10
f 10 71 72
f 10 81 80
f 11 72 73
f 11 88 81
f 53 14 12
f 14 94 12
f 56 12 21
f 12 94 21
f 53 12 56
f 17 65 13
f 13 95 17
f 13 54 22
f 22 95 13
f 13 65 54
f 62 15 14
f 15 83 14
f 62 14 53
f 14 83 82
f 14 82 94
f 63 15 62
f 15 86 83
f 16 64 17
f 17 85 16
f 16 61 64
f 16 85 84
f 16 84 89
f 17 64 65
f 17 95 85
f 47 20 18
f 20 100 18
f 50 18 27
f 18 100 27
f 47 18 50
f 23 58 19
f 19 101 23
f 19 48 28
f 28 98 19
f 19 58 48
f 19 98 101
f 55 21 20
f 21 91 20
f 55 20 47
f 20 91 90
f 20 90 100
f 56 21 55
f 21 94 91
f 22 57 23
f 23 93 22
f 22 54 57
f 22 93 92
f 22 92 95
f 23 57 58
f 23 101 93
f 43 26 24
f 26 104 24
f 45 24 32
f 24 104 32
f 43 24 45
f 29 52 25
f 25 105 29
f 25 44 33
f 33 105 25
f 25 52 44
f 49 27 26
f 27 97 26
f 49 26 43
f 26 97 96
f 26 96 104
f 50 27 49
f 27 100 97
f 28 51 29
f 29 99 28
f 28 48 51
f 28 99 98
f 29 51 52
f 29 105 99
f 39 32 30
f 32 102 30
f 41 30 37
f 30 108 37
f 39 30 41
f 30 102 108
f 33 46 31
f 31 109 33
f 31 40 38
f 38 107 31
f 31 46 40
f 31 107 109
f 45 32 39
f 32 104 102
f 33 44 46
f 33 103 105
f 33 109 103
f 41 37 34
f 37 106 34
f 34 112 41
f 34 106 112
f 35 113 36
f 36 114 35
f 38 42 35
f 35 113 38
f 42 111 35
f 35 111 113
f 35 114 113
f 36 113 114
f 37 108 106
f 38 40 42
f 38 113 107
f 41 110 39
f 39 117 45
f 39 110 117
f 40 118 42
f 46 116 40
f 40 116 118
f 41 112 110
f 42 118 111
f 45 123 43
f 43 123 49
f 44 124 46
f 52 124 44
f 45 117 115
f 45 115 123
f 46 124 116
f 50 120 47
f 47 129 55
f 47 120 129
f 48 130 51
f 58 130 48
f 49 119 50
f 49 123 119
f 50 119 120
f 51 121 52
f 51 130 121
f 52 121 122
f 52 122 124
f 56 135 53
f 53 135 62
f 54 136 57
f 65 136 54
f 55 125 56
f 55 129 125
f 56 125 126
f 56 126 135
f 57 127 58
f 57 136 127
f 58 127 128
f 58 128 130
f 59 145 60
f 63 145 59
f 60 146 66
f 60 145 146
f 61 147 64
f 73 147 61
f 62 131 63
f 62 135 131
f 63 131 132
f 63 132 145
f 64 133 65
f 64 148 133
f 64 147 148
f 65 133 134
f 65 134 136
f 66 137 67
f 66 146 137
f 67 138 68
f 67 137 138
f 68 139 69
f 68 138 139
f 69 140 70
f 69 139 140
f 70 141 71
f 70 140 141
f 71 142 72
f 71 141 142
f 72 143 73
f 72 142 143
f 73 143 144
f 73 144 147
f 75 138 74
f 74 137 87
f 74 138 137
f 76 139 75
f 75 139 138
f 77 140 76
f 76 140 139
f 141 77 78
f 140 77 141
f 142 78 79
f 141 78 142
f 143 79 80
f 142 79 143
f 144 80 81
f 143 80 144
f 147 81 88
f 144 81 147
f 83 132 82
f 82 131 94
f 82 132 131
f 86 145 83
f 83 145 132
f 134 84 85
f 133 89 84
f 133 84 134
f 136 85 95
f 134 85 136
f 87 146 86
f 86 146 145
f 87 137 146
f 148 88 89
f 147 88 148
f 148 89 133
f 91 126 90
f 90 125 100
f 90 126 125
f 94 135 91
f 91 135 126
f 128 92 93
f 127 95 92
f 127 92 128
f 130 93 101
f 128 93 130
f 94 131 135
f 136 95 127
f 97 120 96
f 96 119 104
f 96 120 119
f 100 129 97
f 97 129 120
f 122 98 99
f 121 101 98
f 121 98 122
f 124 99 105
f 122 99 124
f 100 125 129
f 130 101 121
f 104 123 102
f 102 115 108
f 102 123 115
f 116 105 103
f 118 103 109
f 116 103 118
f 104 119 123
f 124 105 116
f 108 117 106
f 106 110 112
f 106 117 110
f 111 109 107
f 111 107 113
f 108 115 117
f 118 109 111
