v -0.0219910189 0.00784888305 -0.0301
v -0.0219910189 0.00784888305 0.0104000001
v -0.00784888707 0.0219910244 -0.0301
v -0.00784888707 0.0219910244 0.0104000001
v -0.00282842599 -0.0113137098 -0.0375999994
v -0.00282842599 -0.0113137098 -0.0301
v -0.00282842599 -0.0113137098 0.0104000001
v -0.00282842599 -0.0113137098 0.0178999977
v -0.00141421281 -0.012727923 -0.0375999994
v -0.00141421281 -0.012727923 -0.0301
v -0.00141421281 -0.012727923 0.0104000001
v -0.00141421281 -0.012727923 0.0178999977
v -0.000814365966 -0.00929964505 -0.0357578362
v -0.000854653938 -0.00933993302 -0.0355293204
v -0.000880007369 -0.00936529122 -0.0352569522
v -0.000882916076 -0.00936819516 -0.0350214763
v -0.000868401153 -0.00935368024 -0.0347868605
v -0.000829672439 -0.00931495152 -0.0345176573
v -0.000768031699 -0.00925331555 -0.0342571349
v -0.000768031699 -0.00925331555 0.0145571356
v -0.000822252853 -0.00930753194 0.0147798138
v -0.00085971318 -0.00934499226 0.0150092916
v -0.00088170491 -0.00936698399 0.0152822428
v -0.00088170491 -0.00936698399 0.0155177574
v -0.000864295585 -0.00934957944 0.0157519798
v -0.000822252853 -0.00930753194 0.0160201864
v -0.000757407767 -0.00924268685 -0.0359791453
v -0.000757407767 -0.00924268685 -0.0342208548
v -0.000757407767 -0.00924268685 0.014520853
v -0.000757407767 -0.00924268685 0.0162791471
v -0.000529327018 -0.0090146061 -0.0365159709
v -0.000656637771 -0.00914192162 -0.0362588359
v -0.000746335609 -0.00923161469 -0.0360151572
v -0.000684403999 -0.00916968785 -0.0340091784
v -0.000580029113 -0.00906531296 -0.0337774832
v -0.000529327018 -0.0090146061 -0.0336840291
v -0.000529327018 -0.0090146061 0.0139840298
v -0.000546612365 -0.00903189145 0.0140147619
v -0.000670733077 -0.00915601216 0.0142750006
v -0.000746335609 -0.00923161469 0.0163151579
v -0.000670733077 -0.00915601216 0.0165249996
v -0.000563516242 -0.00904879533 0.0167540817
v -0.000511660201 -0.00899694405 -0.0365462722
v -0.000511660201 -0.00899694405 -0.0336537279
v -0.000511660201 -0.00899694405 0.0139537268
v -0.000511660201 -0.00899694405 0.0168462734
v -0.000357474906 -0.00884275399 -0.036772076
v -0.000493630988 -0.00897891007 -0.0365761329
v -0.000417894942 -0.00890317403 -0.0335090096
v -0.000272402389 -0.00875768624 -0.0333269758
v -0.000272402389 -0.00875768624 0.0136269741
v -0.000377945525 -0.00886322938 0.0137544565
v -0.000493630988 -0.00897891007 0.016876133
v -0.000398087127 -0.00888337098 0.0170185165
v -0.00025037728 -0.00873565636 -0.0368969299
v -0.00025037728 -0.00873565636 -0.0333030702
v -0.00025037728 -0.00873565636 0.0136030703
v -0.00025037728 -0.00873565636 0.0171969299
v -0.000135988815 -0.00862127267 -0.0370081086
v -0.000228051765 -0.00871333562 -0.0369202883
v -0.000205449683 -0.00869072877 -0.0332569082
v -1.51868889e-05 -0.00850047074 -0.0330952353
v -1.51868889e-05 -0.00850047074 0.013395236
v -0.000159406287 -0.00864469014 0.013512991
v -0.000228051765 -0.00871333562 0.0172202902
v -0.0001825615 -0.00866784535 0.0172653322
v 9.66109543e-06 -0.00847561799 -0.0371222861
v 0.000111112969 -0.00837417088 -0.0330138363
v 0.000215464013 -0.00826981984 -0.0329601229
v 0.000215464013 -0.00826981984 0.0132601242
v 9.66109543e-06 -0.00847561799 0.0174222879
v 0.000136948006 -0.00834833585 0.017500556
v 0.000241947549 -0.0082433363 -0.0372516854
v 0.000241947549 -0.0082433363 -0.0329483141
v 0.000241947549 -0.0082433363 0.013248313
v 0.000241947549 -0.0082433363 0.0175516872
v 0.000268569367 -0.00821670972 -0.0372628386
v 0.00045822181 -0.00802706204 -0.032877701
v 0.00045822181 -0.00802706204 0.0131777029
v 0.000268569367 -0.00821670972 0.0175628405
v 0.000485682862 -0.00799959622 -0.0373281033
v 0.000485682862 -0.00799959622 -0.0328718967
v 0.000485682862 -0.00799959622 0.013171895
v 0.000485682862 -0.00799959622 0.0176281052
v 0.000559559243 -0.0107541462 -0.0355293204
v 0.000554500001 -0.0107592054 -0.0354907085
v 0.000532508271 -0.0107811972 -0.0352177562
v 0.000532508271 -0.0107811972 -0.0349822439
v 0.000549917596 -0.0107637926 -0.0347480227
v 0.000559559243 -0.0107541462 0.0149706821
v 0.000534205811 -0.0107795044 0.0152430468
v 0.000531297105 -0.0107824083 0.0154785233
v 0.000545812028 -0.0107678934 0.0157131414
v 0.000559559243 -0.0107541462 0.015829318
v 0.000743480103 -0.0105702253 -0.0362250001
v 0.000656805413 -0.0106569 -0.0359791453
v 0.000591960328 -0.0107217451 -0.035720184
v 0.000565095322 -0.0107486101 -0.0346321989
v 0.000591960328 -0.0107217451 -0.0344798161
v 0.000656805413 -0.0106569 -0.0342208548
v 0.000743480103 -0.0105702253 -0.0339749999
v 0.000667877572 -0.0106458279 0.0144848423
v 0.000599847215 -0.0107138582 0.0147421627
v 0.000565095322 -0.0107486101 0.0149321966
v 0.000584540742 -0.0107291647 0.0159823446
v 0.000646181481 -0.0106675287 0.0162428646
v 0.000729809182 -0.010583901 0.0164908199
v 0.000743480103 -0.0105702253 0.0165249996
v 0.00051321544 -0.00797206841 -0.0373332293
v 0.000707106965 -0.00777817689 -0.0328499998
v 0.000734873193 -0.00775040589 0.013150342
v 0.000707106965 -0.00777817689 0.0176500015
v 0.000802331345 -0.0105113789 -0.0363581837
v 0.00075757541 -0.0105561348 -0.0339411641
v 0.00075757541 -0.0105561348 0.0142411642
v 0.000802331345 -0.0105113789 0.016658185
v 0.000996318238 -0.0103173872 -0.0366909904
v 0.000867600816 -0.0104461046 -0.0364852382
v 0.000818057435 -0.0104956528 -0.0338094528
v 0.000850696938 -0.0104630085 -0.033745916
v 0.000884890931 -0.0104288193 0.0139840298
v 0.000818057435 -0.0104956528 0.0141094522
v 0.000834184068 -0.0104795261 0.0167225151
v 0.000996318238 -0.0103173872 0.0169909887
v 0.000762629884 -0.0077226492 -0.03734863
v 0.000983381646 -0.00750190221 -0.0328841825
v 0.000983381646 -0.00750190221 0.0131841831
v 0.000762629884 -0.0077226492 0.0176486282
v 0.00105673827 -0.0102569672 -0.036772076
v 0.00103626766 -0.0102774426 -0.036745546
v 0.00101612605 -0.0102975842 -0.0334814854
v 0.00105673827 -0.0102569672 0.0137279253
v 0.00101612605 -0.0102975842 0.0137814837
v 0.00105673827 -0.0102569672 0.0170720749
v 0.00123165168 -0.0100820585 -0.0369653345
v 0.00107753791 -0.0102361723 -0.0334019036
v 0.00123165168 -0.0100820585 -0.0332346655
v 0.00107753791 -0.0102361723 0.0137019043
v 0.0012087635 -0.0101049419 0.0172430925
v 0.00123165168 -0.0100820585 0.0172653322
v 0.00101068057 -0.00747459851 -0.0373086615
v 0.00119874992 -0.00728653393 -0.0372398777
v 0.00122508086 -0.00726019822 -0.0329725833
v 0.00117226638 -0.0073130127 0.013248313
v 0.00122508086 -0.00726019822 0.013272584
v 0.00101068057 -0.00747459851 0.0176086597
v 0.00130189933 -0.0100118109 -0.0370286269
v 0.00125480689 -0.0100589033 -0.0369870086
v 0.00125480689 -0.0100589033 -0.0332129915
v 0.0012782196 -0.0100354858 0.0134918909
v 0.00125480689 -0.0100589033 0.013512991
v 0.00130189933 -0.0100118109 0.0173286276
v 0.00149967231 -0.0098140379 -0.0371711357
v 0.00132582702 -0.00998788319 -0.0331514431
v 0.00132582702 -0.00998788319 0.0134514408
v 0.00149967231 -0.0098140379 0.0174711351
v 0.00125125922 -0.00723402463 -0.0372143085
v 0.00147843398 -0.0070068451 -0.0331321056
v 0.00127726592 -0.00720801316 -0.0329994441
v 0.00147843398 -0.0070068451 0.0134321051
v 0.00130310096 -0.00718217812 0.017486165
v 0.00125125922 -0.00723402463 0.017514308
v 0.00155116119 -0.00976254903 -0.0372005565
v 0.00152532615 -0.00978838406 -0.0330138363
v 0.00155116119 -0.00976254903 -0.0329994441
v 0.00152532615 -0.00978838406 0.0133138351
v 0.00152532615 -0.00978838406 0.017486165
v 0.00155116119 -0.00976254903 0.017500556
v 0.00173642196 -0.00957728348 -0.037283165
v 0.00162967719 -0.00968403302 -0.0372398777
v 0.00157716789 -0.00973653756 -0.0329856915
v 0.00165616073 -0.00965754948 0.013248313
v 0.00157716789 -0.00973653756 0.0132856922
v 0.00173642196 -0.00957728348 0.0175831633
v 0.00150260009 -0.00698267899 -0.0370485575
v 0.00157362022 -0.00691165887 -0.0369870086
v 0.00172977485 -0.00675550423 -0.0333764
v 0.00159677543 -0.00688850365 -0.0332346655
v 0.00155020751 -0.00693507634 0.0134918909
v 0.00172977485 -0.00675550423 0.0136763983
v 0.00161966361 -0.00686562024 0.0172430925
v 0.00150260009 -0.00698267899 0.0173485594
v 0.00179053344 -0.009523172 -0.0373008318
v 0.00176343002 -0.00955028496 -0.0329076673
v 0.00176343002 -0.00955028496 0.0132076674
v 0.00179053344 -0.009523172 0.0176008301
v 0.00198266067 -0.00933105431 -0.0373414381
v 0.00181774177 -0.00949596368 -0.0328913386
v 0.00181774177 -0.00949596368 0.0131913404
v 0.00198266067 -0.00933105431 0.0176414375
v 0.0017508892 -0.00673438988 -0.0367980964
v 0.00179216422 -0.00669311963 -0.036745546
v 0.00196082153 -0.00652445756 -0.0364852382
v 0.00197773017 -0.00650755368 -0.033745916
v 0.00181230583 -0.00667297803 -0.0334814854
v 0.00177168884 -0.00671359502 0.0137279253
v 0.00194354095 -0.0065417429 0.0139840298
v 0.00197773017 -0.00650755368 0.0140459185
v 0.0018321041 -0.00665317498 0.0169909887
v 0.0017508892 -0.00673438988 0.0170980959
v 0.00199424781 -0.00649103604 -0.0364225168
v 0.00199424781 -0.00649103604 -0.0337774832
v 0.00199424781 -0.00649103604 0.0140774851
v 0.00199424781 -0.00649103604 0.0167225151
v 0.00203805007 -0.00927565537 -0.0373469169
v 0.0020103363 -0.00930336915 -0.032855481
v 0.0020103363 -0.00930336915 0.0131554823
v 0.00203805007 -0.00927565537 0.0176469164
v 0.00223230399 -0.00908140622 -0.0373445196
v 0.00212132491 -0.00919239007 -0.0328499998
v 0.00206579246 -0.00924791299 0.013151372
v 0.00212132491 -0.00919239007 0.0176500015
v 0.00201037444 -0.00647490941 -0.0363905473
v 0.00208494224 -0.00640033684 -0.0362250001
v 0.0021716217 -0.00631366215 -0.0359791453
v 0.00222857513 -0.00625670396 -0.0344421638
v 0.0021716217 -0.00631366215 -0.0342208548
v 0.00208494224 -0.00640033684 -0.0339749999
v 0.00207084693 -0.00641443215 0.0142411642
v 0.00216054954 -0.00632473431 0.0144848423
v 0.00222857513 -0.00625670396 0.0147421627
v 0.00218224563 -0.00630303345 0.0162428646
v 0.00209861793 -0.00638666115 0.0164908199
v 0.00201037444 -0.00647490941 0.0166905479
v 0.00223646201 -0.00624881707 -0.035720184
v 0.0022438816 -0.00624139748 -0.0345176573
v 0.00223646201 -0.00624881707 -0.0344798161
v 0.0022438816 -0.00624139748 0.0148176556
v 0.0022438816 -0.00624139748 0.0159823446
v 0.00223646201 -0.00624881707 0.0160201864
v 0.00228762664 -0.00902608357 -0.0373376746
v 0.00225997962 -0.00905372582 -0.032858562
v 0.00225997962 -0.00905372582 0.0131585627
v 0.00228762664 -0.00902608357 0.0176376753
v 0.00247921981 -0.00883449517 -0.0372923322
v 0.00231521644 -0.00899849377 -0.0328667713
v 0.00231521644 -0.00899849377 0.013166769
v 0.00247921981 -0.00883449517 0.0175923328
v 0.00225083389 -0.0062344452 -0.0356443245
v 0.00227392234 -0.00621135674 -0.0354907085
v 0.00229591407 -0.00618936501 -0.0352177562
v 0.00229591407 -0.00618936501 -0.0349822439
v 0.00227850951 -0.00620677434 -0.0347480227
v 0.00226886787 -0.00621641598 0.0149706821
v 0.00229422607 -0.00619105778 0.0152430468
v 0.00229712524 -0.00618815385 0.0154785233
v 0.00228261031 -0.00620266877 0.0157131414
v 0.00225083389 -0.0062344452 0.0159443264
v 0.00255985297 -0.00875385247 -0.0372628386
v 0.00250621833 -0.00880749188 -0.0329168345
v 0.00250621833 -0.00880749188 0.0132168369
v 0.00255985297 -0.00875385247 0.0175628405
v 0.00258647956 -0.00872722588 -0.0372516854
v 0.00274296798 -0.00857073746 -0.0371711357
v 0.00271731414 -0.0085963913 -0.0330138363
v 0.00258647956 -0.00872722588 -0.0329483141
v 0.00258647956 -0.00872722588 0.013248313
v 0.0026129631 -0.00870074712 0.0132601242
v 0.00274296798 -0.00857073746 0.0174711351
v 0.0026914791 -0.00862222634 0.017500556
v 0.00279370345 -0.00852000676 -0.0371391923
v 0.00276843108 -0.00854527436 -0.0330445225
v 0.00276843108 -0.00854527436 0.0133445244
v 0.00279370345 -0.00852000676 0.0174391918
v 0.00296442069 -0.00834928952 -0.0370081086
v 0.0029878334 -0.00832587205 -0.0369870086
v 0.00281876601 -0.0084949442 -0.0330777134
v 0.00281876601 -0.0084949442 0.0133777122
v 0.0029878334 -0.00832587205 0.013512991
v 0.0029878334 -0.00832587205 0.0172870092
v 0.00305647887 -0.00825722657 -0.0369202883
v 0.00303387679 -0.00827983342 -0.0332569082
v 0.00301098861 -0.00830271683 -0.0332346655
v 0.00301098861 -0.00830271683 0.0135346632
v 0.00305647887 -0.00825722657 0.0172202902
v 0.00301098861 -0.00830271683 0.0172653322
v 0.00318590202 -0.0081278082 -0.036772076
v 0.00324631728 -0.00806738816 -0.0366909904
v 0.00324631728 -0.00806738816 -0.0335090096
v 0.00307880439 -0.00823490582 -0.0333030702
v 0.00307880439 -0.00823490582 0.0136030703
v 0.0032063774 -0.00810733758 0.0137544565
v 0.00324631728 -0.00806738816 0.0169909887
v 0.00322651901 -0.00808719121 0.0170185165
v 0.00330365218 -0.00801005326 -0.0366055436
v 0.00326578178 -0.00804792367 -0.0335370184
v 0.00326578178 -0.00804792367 0.0138370209
v 0.00330365218 -0.00801005326 0.0169055443
v 0.00335775413 -0.00795595608 -0.0365159709
v 0.00348506965 -0.00782864533 -0.0362588359
v 0.00349915542 -0.00781455003 -0.0362250001
v 0.00340846099 -0.00790524922 -0.0337774832
v 0.0033220581 -0.00799165211 -0.0336238672
v 0.0033220581 -0.00799165211 0.0139238672
v 0.00337503471 -0.00793867074 0.0140147619
v 0.00349915542 -0.00781455003 0.0142750006
v 0.00349915542 -0.00781455003 0.0165249996
v 0.00339194335 -0.00792176686 0.0167540817
v 0.00353553809 -0.0176776692 -0.0301
v 0.00353553809 -0.0176776692 0.0104000001
v 0.00356325187 -0.00775046311 -0.0360508908
v 0.00351283111 -0.0078008791 -0.0340091784
v 0.00351283111 -0.0078008791 0.0143091803
v 0.00356325187 -0.00775046311 0.0163508921
v 0.00357476272 -0.00773894749 -0.0360151572
v 0.00364278831 -0.00767091714 -0.0357578362
v 0.00368308105 -0.00763062916 -0.0355293204
v 0.00370843925 -0.00760527573 -0.0352569522
v 0.00371133842 -0.00760236703 -0.0350214763
v 0.00369682349 -0.00761688195 -0.0347868605
v 0.00365809478 -0.00765561066 -0.0345176573
v 0.00359645881 -0.00771724663 -0.0342571349
v 0.00357476272 -0.00773894749 -0.0341848428
v 0.00357476272 -0.00773894749 0.0144848423
v 0.00358583488 -0.00772787533 0.014520853
v 0.00365067519 -0.00766303025 0.0147798138
v 0.00368813552 -0.00762556992 0.0150092916
v 0.00371012725 -0.00760357819 0.0152822428
v 0.00371012725 -0.00760357819 0.0155177574
v 0.0036927227 -0.00762098752 0.0157519798
v 0.00365067519 -0.00766303025 0.0160201864
v 0.00358583488 -0.00772787533 0.0162791471
v 0.00623444595 -0.00225083791 -0.0356443245
v 0.00621135749 -0.00227392636 -0.0354907085
v 0.00618936576 -0.00229591809 -0.0352177562
v 0.00618936576 -0.00229591809 -0.0349822439
v 0.00620677032 -0.00227850877 -0.0347480227
v 0.00621641197 -0.00226886712 0.0149706821
v 0.0061910633 -0.00229422055 0.0152430468
v 0.0061881546 -0.00229712926 0.0154785233
v 0.00620266952 -0.00228261433 0.0157131414
v 0.00623444595 -0.00225083791 0.0159443264
v 0.00624881782 -0.00223646603 -0.035720184
v 0.00624139823 -0.00224388562 -0.0345176573
v 0.00624881782 -0.00223646603 -0.0344798161
v 0.00624139823 -0.00224388562 0.0148176556
v 0.00624139823 -0.00224388562 0.0159823446
v 0.00624881782 -0.00223646603 0.0160201864
v 0.00642841377 -0.0147847887 -0.00104188871
v 0.00640524902 -0.0148079535 -0.000835039139
v 0.00638011016 -0.0148330971 -0.000522934914
v 0.00636977233 -0.0148434301 -0.000314015865
v 0.00636460342 -0.0148485943 -0.000104715347
v 0.00636654891 -0.0148466583 0.000209396362
v 0.00637429275 -0.0148389097 0.000418539524
v 0.0063955883 -0.0148176189 0.000731215954
v 0.0064161972 -0.01479701 0.000938606739
v 0.00645667114 -0.0147565313 0.00124747086
v 0.0064727024 -0.0147405048 -0.00134970617
v 0.00648998298 -0.0147232195 0.00145153093
v 0.00647491493 -0.00201036893 -0.0363905473
v 0.00640033759 -0.00208494626 -0.0362250001
v 0.00631365814 -0.00217162095 -0.0359791453
v 0.00625670471 -0.00222857915 -0.0344421638
v 0.00631365814 -0.00217162095 -0.0342208548
v 0.00640033759 -0.00208494626 -0.0339749999
v 0.0064144329 -0.00207085095 0.0142411642
v 0.00632473029 -0.00216054879 0.0144848423
v 0.00625670471 -0.00222857915 0.0147421627
v 0.0063030342 -0.00218224488 0.0162428646
v 0.0063866619 -0.00209861718 0.0164908199
v 0.00647491493 -0.00201036893 0.0166905479
v 0.00649103202 -0.00199424706 -0.0364225168
v 0.00649103202 -0.00199424706 -0.0337774832
v 0.00649103202 -0.00199424706 0.0140774851
v 0.00649103202 -0.00199424706 0.0167225151
v 0.00670123138 -0.0145119711 -0.0023443861
v 0.00661982574 -0.0145933815 -0.00205212069
v 0.00654933967 -0.014663858 -0.00175423098
v 0.00650852241 -0.0147046801 -0.0015529151
v 0.00652831115 -0.0146848913 0.00165382433
v 0.0065951065 -0.014618096 0.00195340919
v 0.00667289771 -0.0145403095 0.00224763918
v 0.00670123138 -0.0145119711 0.00234438705
v 0.00673075713 -0.0144824453 -0.00244041872
v 0.00673075713 -0.0144824453 0.00244041967
v 0.00673439063 -0.00175088845 -0.0367980964
v 0.00669312515 -0.00179215871 -0.036745546
v 0.00652445831 -0.00196082555 -0.0364852382
v 0.00650754966 -0.00197772942 -0.033745916
v 0.00667298354 -0.00181230031 -0.0334814854
v 0.006713591 -0.00177168809 0.0137279253
v 0.00654173888 -0.0019435402 0.0139840298
v 0.00650754966 -0.00197772942 0.0140459185
v 0.00665317573 -0.00183210812 0.0169909887
v 0.00673439063 -0.00175088845 0.0170980959
v 0.00686057128 -0.0143526312 -0.0028168292
v 0.00676146545 -0.0144517418 -0.00253570986
v 0.00682638206 -0.0143868204 0.00272394228
v 0.00693236388 -0.0142808386 0.003
v 0.00696994819 -0.0142432543 -0.00309022856
v 0.00696994819 -0.0142432543 0.00309022951
v 0.00698267974 -0.00150260411 -0.0370485575
v 0.00691165962 -0.00157362424 -0.0369870086
v 0.00675550498 -0.0017297741 -0.0333764
v 0.0068885044 -0.00159677945 -0.0332346655
v 0.00693508186 -0.001550202 0.0134918909
v 0.00675550498 -0.0017297741 0.0136763983
v 0.00686561622 -0.00161966286 0.0172430925
v 0.00698267974 -0.00150260411 0.0173485594
v 0.00717423476 -0.0140389725 -0.00352671099
v 0.00704842605 -0.0141647812 -0.00326783371
v 0.00700863876 -0.0142045637 -0.00317951632
v 0.00700863876 -0.0142045637 0.00317951488
v 0.00713123359 -0.0140819689 0.00344145823
v 0.00717423476 -0.0140389725 0.00352671194
v 0.00721827544 -0.013994927 -0.00361088943
v 0.00721827544 -0.013994927 0.00361089039
v 0.00723402061 -0.00125125848 -0.0372143085
v 0.00700684585 -0.00147843323 -0.0331321056
v 0.00720801391 -0.00127726517 -0.0329994441
v 0.00700684585 -0.00147843323 0.0134321051
v 0.00718217887 -0.00130310021 0.017486165
v 0.00723402061 -0.00125125848 0.017514308
v 0.00745370902 -0.0137594982 -0.00401478481
v 0.00730944671 -0.013903751 -0.00377592278
v 0.00726335563 -0.0139498468 -0.00369396877
v 0.00726335563 -0.0139498468 0.00369396973
v 0.00740464248 -0.0138085648 0.00393635321
v 0.00745370902 -0.0137594982 0.00401478338
v 0.00747460403 -0.00101067982 -0.0373086615
v 0.00728652992 -0.00119874917 -0.0372398777
v 0.00726019897 -0.00122508488 -0.0329725833
v 0.00731301345 -0.00117226563 0.013248313
v 0.00726019897 -0.00122508488 0.013272584
v 0.00747460403 -0.00101067982 0.0176086597
v 0.00765941657 -0.0135537859 -0.00431603861
v 0.00750372924 -0.0137094732 -0.00409198952
v 0.00760660209 -0.0136066004 0.00424264002
v 0.00771312751 -0.013500075 0.00438812304
v 0.00773894347 -0.00357476197 -0.0360151572
v 0.00767091789 -0.00364279233 -0.0357578362
v 0.00763062515 -0.0036830803 -0.0355293204
v 0.00760527648 -0.00370843373 -0.0352569522
v 0.00760236778 -0.00371134244 -0.0350214763
v 0.0076168827 -0.00369682751 -0.0347868605
v 0.00765561141 -0.0036580988 -0.0345176573
v 0.00771724738 -0.00359646283 -0.0342571349
v 0.00773894347 -0.00357476197 -0.0341848428
v 0.00773894347 -0.00357476197 0.0144848423
v 0.00772787132 -0.00358583413 0.014520853
v 0.007663031 -0.00365067921 0.0147798138
v 0.00762557067 -0.00368813954 0.0150092916
v 0.00760357894 -0.00371013127 0.0152822428
v 0.00760357894 -0.00371013127 0.0155177574
v 0.0076209835 -0.00369272195 0.0157519798
v 0.007663031 -0.00365067921 0.0160201864
v 0.00772787132 -0.00358583413 0.0162791471
v 0.00772264518 -0.000762633903 -0.03734863
v 0.00750189819 -0.000983380897 -0.0328841825
v 0.00750189819 -0.000983380897 0.0131841831
v 0.00772264518 -0.000762633903 0.0176486282
v 0.00782318153 -0.0133900257 -0.00452825737
v 0.00776772537 -0.0134454819 -0.00445886803
v 0.00776772537 -0.0134454819 0.00445886898
v 0.00793662109 -0.0132765814 0.00466287661
v 0.00799457588 -0.0132186314 -0.00472806406
v 0.00799457588 -0.0132186314 0.00472806501
v 0.00775046386 -0.00356324635 -0.0360508908
v 0.00780087508 -0.00351283036 -0.0340091784
v 0.00780087508 -0.00351283036 0.0143091803
v 0.00775046386 -0.00356324635 0.0163508921
v 0.00795595207 -0.00335775338 -0.0365159709
v 0.00782864608 -0.00348506413 -0.0362588359
v 0.00781455077 -0.00349915944 -0.0362250001
v 0.00790525474 -0.00340846024 -0.0337774832
v 0.00799164809 -0.00332205735 -0.0336238672
v 0.00799164809 -0.00332205735 0.0139238672
v 0.00793867149 -0.00337503873 0.0140147619
v 0.00781455077 -0.00349915944 0.0142750006
v 0.00781455077 -0.00349915944 0.0165249996
v 0.00792176284 -0.0033919426 0.0167540817
v 0.00797206916 -0.00051321469 -0.0373332293
v 0.00777817764 -0.000707106216 -0.0328499998
v 0.00775040664 -0.000734872443 0.013150342
v 0.00777817764 -0.000707106216 0.0176500015
v 0.00799960174 -0.000485682113 -0.0373281033
v 0.00799960174 -0.000485682113 -0.0328718967
v 0.00799960174 -0.000485682113 0.013171895
v 0.00799960174 -0.000485682113 0.0176281052
v 0.00805331268 -0.013159885 -0.00479181242
v 0.00817312278 -0.0130400797 0.00491491127
v 0.0082341484 -0.0129790541 -0.00497422647
v 0.0082341484 -0.0129790541 0.00497422504
v 0.00801005401 -0.0033036562 -0.0366055436
v 0.00804792442 -0.00326578103 -0.0335370184
v 0.00804792442 -0.00326578103 0.0138370209
v 0.00801005401 -0.0033036562 0.0169055443
v 0.00812780418 -0.00318590127 -0.036772076
v 0.00806738891 -0.0032463213 -0.0366909904
v 0.00806738891 -0.0032463213 -0.0335090096
v 0.0082349018 -0.00307880364 -0.0333030702
v 0.0082349018 -0.00307880364 0.0136030703
v 0.00810733833 -0.00320637189 0.0137544565
v 0.00806738891 -0.0032463213 0.0169909887
v 0.00808719672 -0.00322651349 0.0170185165
v 0.00821671523 -0.000268568618 -0.0372628386
v 0.00802705802 -0.000458221061 -0.032877701
v 0.00802705802 -0.000458221061 0.0131777029
v 0.00821671523 -0.000268568618 0.0175628405
v 0.00824333228 -0.000241946799 -0.0372516854
v 0.00824333228 -0.000241946799 -0.0329483141
v 0.00824333228 -0.000241946799 0.013248313
v 0.00824333228 -0.000241946799 0.0175516872
v 0.00829588928 -0.0129173084 -0.00503202391
v 0.00842147865 -0.0127917238 0.00514300394
v 0.00848527946 -0.012727923 -0.00519615126
v 0.00848527946 -0.012727923 0.00519615221
v 0.00825722732 -0.00305648289 -0.0369202883
v 0.0082798294 -0.00303387604 -0.0332569082
v 0.00830271758 -0.00301099263 -0.0332346655
v 0.00830271758 -0.00301099263 0.0135346632
v 0.00825722732 -0.00305648289 0.0172202902
v 0.00830271758 -0.00301099263 0.0172653322
v 0.00834929504 -0.00296441518 -0.0370081086
v 0.0083258728 -0.00298783742 -0.0369870086
v 0.00849494018 -0.00281876527 -0.0330777134
v 0.00849494018 -0.00281876527 0.0133777122
v 0.0083258728 -0.00298783742 0.013512991
v 0.0083258728 -0.00298783742 0.0172870092
v 0.00847561874 -9.66034622e-06 -0.0371222861
v 0.00837416686 -0.00011111222 -0.0330138363
v 0.00826981582 -0.000215463264 -0.0329601229
v 0.00826981582 -0.000215463264 0.0132601242
v 0.00847561874 -9.66034622e-06 0.0174222879
v 0.00834833183 -0.000136947257 0.017500556
v 0.00861479797 -0.0125983997 -0.00529768658
v 0.00854972877 -0.0126634737 -0.00524771881
v 0.00854972877 -0.0126634737 0.00524771738
v 0.00868048705 -0.0125327202 0.00534603882
v 0.00874674835 -0.0124664541 -0.00539276314
v 0.00874674835 -0.0124664541 0.00539276409
v 0.00852000274 -0.0027937027 -0.0371391923
v 0.00854527511 -0.0027684351 -0.0330445225
v 0.00854527511 -0.0027684351 0.0133445244
v 0.00852000274 -0.0027937027 0.0174391918
v 0.00872722663 -0.00258647881 -0.0372516854
v 0.00857073821 -0.002742972 -0.0371711357
v 0.00859639205 -0.00271731816 -0.0330138363
v 0.00872722663 -0.00258647881 -0.0329483141
v 0.00872722663 -0.00258647881 0.013248313
v 0.0087007431 -0.00261296235 0.0132601242
v 0.00857073821 -0.002742972 0.0174711351
v 0.00862222709 -0.00269147835 0.017500556
v 0.00862127342 0.000135989564 -0.0370081086
v 0.0087133316 0.000228052514 -0.0369202883
v 0.00869072952 0.000205445664 -0.0332569082
v 0.00850047149 1.51876381e-05 -0.0330952353
v 0.00850047149 1.51876381e-05 0.013395236
v 0.00864468612 0.000159407037 0.013512991
v 0.0087133316 0.000228052514 0.0172202902
v 0.00866784133 0.000182562249 0.0172653322
v 0.00873565711 0.000250373261 -0.0368969299
v 0.00873565711 0.000250373261 -0.0333030702
v 0.00873565711 0.000250373261 0.0136030703
v 0.00873565711 0.000250373261 0.0171969299
v 0.00894887008 -0.0122643324 -0.00552303028
v 0.00881358184 -0.0123996206 -0.00543784571
v 0.00888096847 -0.0123322388 0.00548127222
v 0.00894887008 -0.0122643324 0.00552302885
v 0.00875385322 -0.00255985699 -0.0372628386
v 0.0088074974 -0.00250621758 -0.0329168345
v 0.0088074974 -0.00250621758 0.0132168369
v 0.00875385322 -0.00255985699 0.0175628405
v 0.00883449592 -0.00247921429 -0.0372923322
v 0.00899849929 -0.00231521092 -0.0328667713
v 0.00899849929 -0.00231521092 0.013166769
v 0.00883449592 -0.00247921429 0.0175923328
v 0.00884275474 0.000357475655 -0.036772076
v 0.00897891082 0.000493626969 -0.0365761329
v 0.00890317001 0.000417890923 -0.0335090096
v 0.00875768699 0.000272403138 -0.0333269758
v 0.00875768699 0.000272403138 0.0136269741
v 0.00886323013 0.000377946275 0.0137544565
v 0.00897891082 0.000493626969 0.016876133
v 0.00888337173 0.000398087876 0.0170185165
v 0.0089969448 0.00051166095 -0.0365462722
v 0.0089969448 0.00051166095 -0.0336537279
v 0.0089969448 0.00051166095 0.0139537268
v 0.0089969448 0.00051166095 0.0168462734
v 0.00901727714 -0.0121959206 -0.00556310368
v 0.0091555313 -0.0120576712 0.00563815641
v 0.00922533073 -0.0119878717 -0.00567311239
v 0.00922533073 -0.0119878717 0.00567311096
v 0.00902608909 -0.00228762589 -0.0373376746
v 0.00905372657 -0.00225998364 -0.032858562
v 0.00905372657 -0.00225998364 0.0131585627
v 0.00902608909 -0.00228762589 0.0176376753
v 0.0090814022 -0.00223230324 -0.0373445196
v 0.00919239082 -0.0021213194 -0.0328499998
v 0.00924791374 -0.00206579648 0.013151372
v 0.00919239082 -0.0021213194 0.0176500015
v 0.00901460685 0.000529322999 -0.0365159709
v 0.00914192237 0.00065663852 -0.0362588359
v 0.00923161544 0.000746336358 -0.0360151572
v 0.00916968383 0.000684404748 -0.0340091784
v 0.00906531371 0.000580029862 -0.0337774832
v 0.00901460685 0.000529322999 -0.0336840291
v 0.00901460685 0.000529322999 0.0139840298
v 0.00903188743 0.000546608346 0.0140147619
v 0.00915600814 0.000670729058 0.0142750006
v 0.00923161544 0.000746336358 0.0163151579
v 0.00915600814 0.000670729058 0.0165249996
v 0.00904879607 0.000563512223 0.0167540817
v 0.0092426876 0.000757408517 -0.0359791453
v 0.0092426876 0.000757408517 -0.0342208548
v 0.0092426876 0.000757408517 0.014520853
v 0.0092426876 0.000757408517 0.0162791471
v 0.0094371704 -0.0117760321 -0.00576756907
v 0.00929554977 -0.0119176479 -0.00570633841
v 0.00936616935 -0.0118470284 0.00573782969
v 0.0094371704 -0.0117760321 0.00576757002
v 0.00927565612 -0.00203805409 -0.0373469169
v 0.0093033699 -0.00201034032 -0.032855481
v 0.0093033699 -0.00201034032 0.0131554823
v 0.00927565612 -0.00203805409 0.0176469164
v 0.00933105506 -0.00198265515 -0.0373414381
v 0.00949596442 -0.00181774579 -0.0328913386
v 0.00949596442 -0.00181774579 0.0131913404
v 0.00933105506 -0.00198265515 0.0176414375
v 0.00929965057 0.000814366715 -0.0357578362
v 0.00933993377 0.000854654687 -0.0355293204
v 0.00936529197 0.000880008118 -0.0352569522
v 0.00936819114 0.000882912057 -0.0350214763
v 0.00935368575 0.000868401902 -0.0347868605
v 0.00931495704 0.000829673188 -0.0345176573
v 0.00925331153 0.000768032449 -0.0342571349
v 0.00925331153 0.000768032449 0.0145571356
v 0.00930752792 0.000822248833 0.0147798138
v 0.00934499778 0.000859713929 0.0150092916
v 0.00936697997 0.00088170089 0.0152822428
v 0.00936697997 0.00088170089 0.0155177574
v 0.00934957542 0.000864296334 0.0157519798
v 0.00930752792 0.000822248833 0.0160201864
v 0.00950852432 -0.0117046782 -0.00579555464
v 0.00965221442 -0.0115609881 0.00584621954
v 0.00972450294 -0.0114886948 -0.00586888504
v 0.00972450294 -0.0114886948 0.00586888599
v 0.00952317275 -0.00179053269 -0.0373008318
v 0.00955028571 -0.0017634245 -0.0329076673
v 0.00955028571 -0.0017634245 0.0132076674
v 0.00952317275 -0.00179053269 0.0176008301
v 0.00957728423 -0.00173642598 -0.037283165
v 0.009684029 -0.00162967644 -0.0372398777
v 0.00973653831 -0.0015771719 -0.0329856915
v 0.00965754546 -0.00165615998 0.013248313
v 0.00973653831 -0.0015771719 0.0132856922
v 0.00957728423 -0.00173642598 0.0175831633
v 0.00979706802 -0.0114161345 -0.00588976336
v 0.00994290389 -0.0112702986 0.00592613029
v 0.00976254501 -0.00155116044 -0.0372005565
v 0.00978838004 -0.0015253254 -0.0330138363
v 0.00976254501 -0.00155116044 -0.0329994441
v 0.00978838004 -0.0015253254 0.0133138351
v 0.00978838004 -0.0015253254 0.017486165
v 0.00976254501 -0.00155116044 0.017500556
v 0.00981403388 -0.00149967156 -0.0371711357
v 0.00998787917 -0.00132582627 -0.0331514431
v 0.00998787917 -0.00132582627 0.0134514408
v 0.00981403388 -0.00149967156 0.0174711351
v 0.0100161365 -0.0111970612 -0.00594160748
v 0.0101631264 -0.0110500761 0.00596713114
v 0.0102368359 -0.0109763714 -0.00597716761
v 0.0102368359 -0.0109763714 0.00597716856
v 0.0100118069 -0.00130189858 -0.0370286269
v 0.0100588993 -0.00125480614 -0.0369870086
v 0.0100588993 -0.00125480614 -0.0332129915
v 0.0100354866 -0.00127822362 0.0134918909
v 0.0100588993 -0.00125480614 0.013512991
v 0.0100118069 -0.00130189858 0.0173286276
v 0.0100820545 -0.00123165093 -0.0369653345
v 0.0102361683 -0.00107753716 -0.0334019036
v 0.0100820545 -0.00123165093 -0.0332346655
v 0.0102361683 -0.00107753716 0.0137019043
v 0.0101049427 -0.00120876752 0.0172430925
v 0.0100820545 -0.00123165093 0.0172653322
v 0.0103106502 -0.0109025522 -0.00598538351
v 0.0104585365 -0.010754666 0.00599634457
v 0.0102569679 -0.00105674229 -0.036772076
v 0.0102774433 -0.00103626691 -0.036745546
v 0.0102975849 -0.0010161253 -0.0334814854
v 0.0102569679 -0.00105674229 0.0137279253
v 0.0102975849 -0.0010161253 0.0137814837
v 0.0102569679 -0.00105674229 0.0170720749
v 0.0103173927 -0.000996322257 -0.0366909904
v 0.0104461101 -0.000867604835 -0.0364852382
v 0.0104956535 -0.000818056686 -0.0338094528
v 0.0104630093 -0.000850700957 -0.033745916
v 0.01042882 -0.000884890182 0.0139840298
v 0.0104956535 -0.000818056686 0.0141094522
v 0.0104795269 -0.000834183318 0.0167225151
v 0.0103173927 -0.000996322257 0.0169909887
v 0.0106845478 -0.0190139338 -0.00114485455
v 0.0106588367 -0.0190396496 -0.000938605785
v 0.0106382278 -0.0190602585 -0.000731215
v 0.0106169323 -0.0190815493 -0.00041853857
v 0.0106091885 -0.0190892979 -0.000209397793
v 0.010606604 -0.0190918823 4.7683716e-10
v 0.0106124119 -0.0190860697 0.000314016819
v 0.0106227497 -0.0190757366 0.000522933483
v 0.0106478886 -0.019050593 0.000835037708
v 0.0106710533 -0.0190274283 0.00104188967
v 0.0107326225 -0.018965859 -0.00145153236
v 0.0106993107 -0.0189991709 -0.0012474699
v 0.0106993107 -0.0189991709 0.00124747086
v 0.0107153419 -0.0189831444 0.00134970713
v 0.010606604 -0.0106066032 -0.00600000095
v 0.0106806473 -0.0105325552 -0.00599908543
v 0.0106806473 -0.0105325552 0.00599908638
v 0.0105113796 -0.000802330596 -0.0363581837
v 0.0105561356 -0.00075757466 -0.0339411641
v 0.0105561356 -0.00075757466 0.0142411642
v 0.0105113796 -0.000802330596 0.016658185
v 0.0105702309 -0.000743484122 -0.0362250001
v 0.0106569008 -0.000656804664 -0.0359791453
v 0.0107217506 -0.000591964347 -0.035720184
v 0.0107486156 -0.000565099342 -0.0346321989
v 0.0107217506 -0.000591964347 -0.0344798161
v 0.0106569008 -0.000656804664 -0.0342208548
v 0.0105702309 -0.000743484122 -0.0339749999
v 0.0106458286 -0.000667876823 0.0144848423
v 0.0107138637 -0.000599846465 0.0147421627
v 0.0107486156 -0.000565099342 0.0149321966
v 0.0107291702 -0.000584539993 0.0159823446
v 0.0106675247 -0.000646180732 0.0162428646
v 0.010583897 -0.000729808433 0.0164908199
v 0.0105702309 -0.000743484122 0.0165249996
v 0.0109438709 -0.0187546154 -0.0023443861
v 0.0109155373 -0.0187829491 -0.00224764061
v 0.010837746 -0.0188607403 -0.00195340824
v 0.0107709507 -0.0189275309 -0.00165382338
v 0.0107511619 -0.0189473196 0.00155291367
v 0.0107919887 -0.0189064976 0.00175422955
v 0.0108624653 -0.018836021 0.00205212164
v 0.0109438709 -0.0187546154 0.00234438705
v 0.0109733967 -0.0187250897 -0.00244041872
v 0.0109733967 -0.0187250897 0.00244041967
v 0.0107546715 -0.0104585358 -0.005996346
v 0.0109025577 -0.0103106495 0.00598538446
v 0.0109763721 -0.0102368303 -0.00597716761
v 0.0109763721 -0.0102368303 0.00597716856
v 0.010754147 -0.000559563262 -0.0355293204
v 0.010759211 -0.000554499252 -0.0354907085
v 0.0107812027 -0.00053251229 -0.0352177562
v 0.0107812027 -0.00053251229 -0.0349822439
v 0.0107637886 -0.000549916846 -0.0347480227
v 0.010754147 -0.000559563262 0.0149706821
v 0.0107795052 -0.000534205062 0.0152430468
v 0.0107824139 -0.000531301124 0.0154785233
v 0.0107678989 -0.000545811279 0.0157131414
v 0.010754147 -0.000559563262 0.015829318
v 0.0111750034 -0.0185234781 -0.00299999905
v 0.0110690216 -0.0186294647 -0.00272394371
v 0.011004105 -0.0186943813 0.00253570843
v 0.0111032108 -0.0185952707 0.00281683016
v 0.0112125877 -0.0184858938 -0.00309022856
v 0.0112125877 -0.0184858938 0.00309022951
v 0.0110500816 -0.0101631256 -0.00596713018
v 0.0111970619 -0.0100161406 0.00594160843
v 0.0114168743 -0.018281612 -0.00352671099
v 0.0113738731 -0.0183246084 -0.00344145966
v 0.0112512783 -0.018447208 -0.00317951632
v 0.0112512783 -0.018447208 0.00317951488
v 0.0112910656 -0.0184074207 0.00326783466
v 0.0114168743 -0.018281612 0.00352671194
v 0.011460915 -0.0182375666 -0.00361088943
v 0.011460915 -0.0182375666 0.00361089039
v 0.0112702946 -0.00994290791 -0.00592612934
v 0.01141614 -0.00979706727 0.00588976192
v 0.0114886955 -0.00972450696 -0.00586888504
v 0.0114886955 -0.00972450696 0.00586888599
v 0.0113137058 0.00282842674 -0.0375999994
v 0.0113137058 0.00282842674 -0.0301
v 0.0113137058 0.00282842674 0.0104000001
v 0.0113137058 0.00282842674 0.0178999977
v 0.0116963486 -0.0180021378 -0.00401478481
v 0.011647282 -0.0180512043 -0.00393635464
v 0.0115059952 -0.0181924912 -0.00369396877
v 0.0115059952 -0.0181924912 0.00369396973
v 0.0115520958 -0.0181463953 0.00377592134
v 0.0116963486 -0.0180021378 0.00401478338
v 0.0117463688 -0.0179521128 -0.00409198952
v 0.0117463688 -0.0179521128 0.00409199047
v 0.011560984 -0.00965221368 -0.00584622097
v 0.0117046741 -0.00950852357 0.00579555559
v 0.0119020561 -0.0177964302 -0.00431603861
v 0.0118492416 -0.0178492447 -0.00424264145
v 0.0117973427 -0.0179011437 0.00416795063
v 0.0119020561 -0.0177964302 0.00431603956
v 0.0119557671 -0.0177427145 -0.00438812208
v 0.0119557671 -0.0177427145 0.00438812304
v 0.0117760281 -0.00943716965 -0.00576756907
v 0.0118470291 -0.00936617337 -0.00573782873
v 0.0119176487 -0.00929555379 0.00570633936
v 0.0117760281 -0.00943716965 0.00576757002
v 0.0119878677 -0.00922533475 -0.00567311239
v 0.0119878677 -0.00922533475 0.00567311096
v 0.0121792606 -0.0175192209 -0.00466287565
v 0.0120103649 -0.0176881214 -0.00445886803
v 0.0120103649 -0.0176881214 0.00445886898
v 0.0120658211 -0.0176326653 0.00452825832
v 0.0122372154 -0.0174612709 -0.00472806406
v 0.0122372154 -0.0174612709 0.00472806501
v 0.0120576672 -0.00915553532 -0.00563815546
v 0.0121959213 -0.00901728116 0.00556310225
v 0.0124157623 -0.0172827192 -0.0049149127
v 0.0122959618 -0.0174025293 0.00479181337
v 0.0124767879 -0.0172216984 -0.00497422647
v 0.0124767879 -0.0172216984 0.00497422504
v 0.0122643379 -0.00894886933 -0.00552303028
v 0.0123322395 -0.00888096295 -0.00548127365
v 0.0123996166 -0.00881358586 0.00543784666
v 0.0122643379 -0.00894886933 0.00552302885
v 0.0124664501 -0.00874675236 -0.00539276314
v 0.0124664501 -0.00874675236 0.00539276409
v 0.0126641182 -0.0170343634 -0.00514300299
v 0.0125385384 -0.017159948 0.00503202248
v 0.012727919 -0.0169705626 -0.00519615126
v 0.012727919 -0.0169705626 0.00519615221
v 0.0125327209 -0.00868048154 -0.00534604025
v 0.0126634792 -0.00854972802 -0.00524771881
v 0.0126634792 -0.00854972802 0.00524771738
v 0.0125984005 -0.00861480199 0.00529768515
v 0.012727919 -0.00848528348 -0.00519615126
v 0.012727919 -0.00848528348 0.00519615221
v 0.012727919 0.00141421356 -0.0375999994
v 0.012727919 0.00141421356 -0.0301
v 0.012727919 0.00141421356 0.0104000001
v 0.012727919 0.00141421356 0.0178999977
v 0.0129231266 -0.0167753597 -0.00534604025
v 0.0127923683 -0.0169061132 -0.00524771881
v 0.0127923683 -0.0169061132 0.00524771738
v 0.012857447 -0.0168410393 0.00529768515
v 0.0129893879 -0.0167090937 -0.00539276314
v 0.0129893879 -0.0167090937 0.00539276409
v 0.0127917198 -0.0084214779 -0.00514300299
v 0.0129173092 -0.00829589329 0.00503202248
v 0.0129790596 -0.00823414765 -0.00497422647
v 0.0129790596 -0.00823414765 0.00497422504
v 0.0131915096 -0.0165069719 -0.00552303028
v 0.013123608 -0.0165748783 -0.00548127365
v 0.0130562214 -0.0166422602 0.00543784666
v 0.0131915096 -0.0165069719 0.00552302885
v 0.0130400757 -0.00817312203 -0.0049149127
v 0.0131598858 -0.0080533167 0.00479181337
v 0.0132186321 -0.00799457036 -0.00472806406
v 0.0132186321 -0.00799457036 0.00472806501
v 0.0133981708 -0.0163003107 -0.00563815546
v 0.0132599167 -0.0164385649 0.00556310225
v 0.0134679703 -0.0162305113 -0.00567311239
v 0.0134679703 -0.0162305113 0.00567311096
v 0.0132765774 -0.00793662034 -0.00466287565
v 0.0134454826 -0.00776771985 -0.00445886803
v 0.0134454826 -0.00776771985 0.00445886898
v 0.0133900265 -0.00782318078 0.00452825832
v 0.0136798099 -0.0160186716 -0.00576756907
v 0.0136088184 -0.0160896727 -0.00573782873
v 0.0135381988 -0.0161602923 0.00570633936
v 0.0136798099 -0.0160186716 0.00576757002
v 0.0135000709 -0.00771312676 -0.00438812208
v 0.0136066059 -0.00760660134 -0.00424264145
v 0.0137094692 -0.00750372849 0.00409199047
v 0.0135537914 -0.00765941582 0.00431603956
v 0.013894854 -0.0158036276 -0.00584622097
v 0.0137511639 -0.0159473177 0.00579555559
v 0.013967152 -0.0157313391 -0.00586888504
v 0.013967152 -0.0157313391 0.00586888599
v 0.013759499 -0.00745370351 -0.00401478481
v 0.0138085655 -0.00740464173 -0.00393635464
v 0.0139498524 -0.00726335488 -0.00369396877
v 0.0139498524 -0.00726335488 0.00369396973
v 0.0139037517 -0.00730945073 0.00377592134
v 0.013759499 -0.00745370351 0.00401478338
v 0.013994923 -0.00721827946 -0.00361088943
v 0.013994923 -0.00721827946 0.00361089039
v 0.0141855434 -0.0155129381 -0.00592612934
v 0.0140397076 -0.0156587788 0.00588976192
v 0.0140389732 -0.00717423402 -0.00352671099
v 0.0140819649 -0.00713123284 -0.00344145966
v 0.0142045692 -0.00700863801 -0.00317951632
v 0.0142045692 -0.00700863801 0.00317951488
v 0.0141647819 -0.0070484253 0.00326783466
v 0.0140389732 -0.00717423402 0.00352671194
v 0.0142432503 -0.00696994744 -0.00309022856
v 0.0142432503 -0.00696994744 0.00309022951
v 0.0144057659 -0.0152927204 -0.00596713018
v 0.0142587856 -0.0154397055 0.00594160843
v 0.0144794754 -0.0152190109 -0.00597716761
v 0.0144794754 -0.0152190109 0.00597716856
v 0.0142808346 -0.0069323679 -0.00299999905
v 0.0143868259 -0.00682638131 -0.00272394371
v 0.0144517425 -0.0067614647 0.00253570843
v 0.0143526272 -0.00686057053 0.00281683016
v 0.0144824509 -0.00673075639 -0.00244041872
v 0.0144824509 -0.00673075639 0.00244041967
v 0.0146271995 -0.0150712868 -0.0059917779
v 0.0145532898 -0.0151451918 0.00598538446
v 0.0147011761 -0.0149973103 -0.005996346
v 0.0147011761 -0.0149973103 0.00599634457
v 0.0145119766 -0.00670123063 -0.0023443861
v 0.0145403103 -0.0066728922 -0.00224764061
v 0.0146181015 -0.00659510575 -0.00195340824
v 0.0146848873 -0.00652831517 -0.00165382338
v 0.014704676 -0.00650852643 0.00155291367
v 0.0146638588 -0.00654934369 0.00175422955
v 0.0145933823 -0.00661982499 0.00205212164
v 0.0145119766 -0.00670123063 0.00234438705
v 0.0147232155 -0.006489987 -0.00145153236
v 0.0147405056 -0.00647270165 0.00134970713
v 0.0148492435 -0.0148492428 -0.00600000095
v 0.0147752003 -0.0149232861 -0.00599908543
v 0.0147752003 -0.0149232861 0.00599908638
v 0.014997311 -0.0147011753 -0.005996346
v 0.014997311 -0.0147011753 0.00599634457
v 0.0147565273 -0.00645667515 -0.0012474699
v 0.0147970108 -0.00641619645 -0.000938605785
v 0.0148176197 -0.00639558278 -0.000731215
v 0.0148389057 -0.00637429677 -0.00041853857
v 0.0148466591 -0.0063665434 -0.000209397793
v 0.0148492435 -0.00636395894 4.7683716e-10
v 0.0148434261 -0.00636977635 0.000314016819
v 0.0148330978 -0.00638010464 0.000522933483
v 0.0148079494 -0.00640524827 0.000835037708
v 0.0147847847 -0.00642841778 0.00104188967
v 0.0151451973 -0.014553289 -0.00598538351
v 0.0150712875 -0.0146271988 0.00599177647
v 0.0152190117 -0.0144794699 -0.00597716761
v 0.0152190117 -0.0144794699 0.00597716856
v 0.0154397015 -0.0142587801 -0.00594160748
v 0.0152927212 -0.0144057652 0.00596713114
v 0.0156587795 -0.0140397068 -0.00588976336
v 0.0155129341 -0.0141855475 0.00592613029
v 0.0157313351 -0.0139671465 -0.00586888504
v 0.0157313351 -0.0139671465 0.00586888599
v 0.0159473232 -0.0137511679 -0.00579555464
v 0.0158036331 -0.013894858 0.00584621954
v 0.0160186771 -0.013679814 -0.00576756907
v 0.0161602882 -0.0135381933 -0.00570633841
v 0.0160896686 -0.0136088129 0.00573782969
v 0.0160186771 -0.013679814 0.00576757002
v 0.0162305073 -0.0134679743 -0.00567311239
v 0.0162305073 -0.0134679743 0.00567311096
v 0.0164385609 -0.0132599207 -0.00556310368
v 0.0163003067 -0.0133981749 0.00563815641
v 0.0165069775 -0.0131915089 -0.00552303028
v 0.0166422562 -0.0130562254 -0.00543784571
v 0.0165748791 -0.0131236073 0.00548127222
v 0.0165069775 -0.0131915089 0.00552302885
v 0.0167090897 -0.0129893919 -0.00539276314
v 0.0167090897 -0.0129893919 0.00539276409
v 0.01684104 -0.0128574415 -0.00529768658
v 0.0169061188 -0.0127923676 -0.00524771881
v 0.0169061188 -0.0127923676 0.00524771738
v 0.0167753605 -0.0129231258 0.00534603882
v 0.0169705585 -0.012727923 -0.00519615126
v 0.0169705585 -0.012727923 0.00519615221
v 0.0171599487 -0.0125385328 -0.00503202391
v 0.0170343594 -0.0126641222 0.00514300394
v 0.0172216991 -0.0124767872 -0.00497422647
v 0.0172216991 -0.0124767872 0.00497422504
v 0.0174025253 -0.0122959562 -0.00479181242
v 0.0172827248 -0.0124157616 0.00491491127
v 0.0174612717 -0.0122372099 -0.00472806406
v 0.0174612717 -0.0122372099 0.00472806501
v 0.017632666 -0.0120658203 -0.00452825737
v 0.0176881222 -0.0120103594 -0.00445886803
v 0.0176881222 -0.0120103594 0.00445886898
v 0.0175192264 -0.0121792599 0.00466287661
v 0.01774272 -0.0119557663 -0.00438812208
v 0.01774272 -0.0119557663 0.00438812304
v 0.0176776699 -0.00353553258 -0.0301
v 0.0176776699 -0.00353553258 0.0104000001
v 0.017796431 -0.0119020554 -0.00431603861
v 0.0179011444 -0.0117973419 -0.00416794968
v 0.0178492454 -0.0118492409 0.00424264002
v 0.017796431 -0.0119020554 0.00431603956
v 0.0179521088 -0.0117463728 -0.00409198952
v 0.0179521088 -0.0117463728 0.00409199047
v 0.0180021385 -0.0116963478 -0.00401478481
v 0.0181463913 -0.0115520903 -0.00377592278
v 0.0181924919 -0.0115059944 -0.00369396877
v 0.0181924919 -0.0115059944 0.00369396973
v 0.0180512051 -0.0116472813 0.00393635321
v 0.0180021385 -0.0116963478 0.00401478338
v 0.0182375626 -0.011460919 -0.00361088943
v 0.0182375626 -0.011460919 0.00361089039
v 0.0182816128 -0.0114168736 -0.00352671099
v 0.0184074215 -0.0112910648 -0.00326783371
v 0.0184472088 -0.0112512775 -0.00317951632
v 0.0184472088 -0.0112512775 0.00317951488
v 0.0183246139 -0.0113738724 0.00344145823
v 0.0182816128 -0.0114168736 0.00352671194
v 0.0184858993 -0.0112125918 -0.00309022856
v 0.0184858993 -0.0112125918 0.00309022951
v 0.0185952763 -0.0111032148 -0.0028168292
v 0.0186943821 -0.0110041042 -0.00253570986
v 0.0186294655 -0.0110690209 0.00272394228
v 0.0185234741 -0.0111750074 0.003
v 0.0187250904 -0.0109733959 -0.00244041872
v 0.0187250904 -0.0109733959 0.00244041967
v 0.0187546162 -0.0109438702 -0.0023443861
v 0.0188360218 -0.0108624645 -0.00205212069
v 0.0189064983 -0.0107919832 -0.00175423098
v 0.0189473156 -0.010751166 -0.0015529151
v 0.0189275268 -0.0107709547 0.00165382433
v 0.018860741 -0.0108377453 0.00195340919
v 0.0187829498 -0.0109155365 0.00224763918
v 0.0187546162 -0.0109438702 0.00234438705
v 0.0189831451 -0.0107153412 -0.00134970617
v 0.0189991669 -0.0106993147 -0.0012474699
v 0.0189991669 -0.0106993147 0.00124747086
v 0.018965855 -0.0107326265 0.00145153093
v 0.0190274242 -0.0106710573 -0.00104188871
v 0.0190505985 -0.0106478926 -0.000835039139
v 0.0190757374 -0.0106227442 -0.000522934914
v 0.0190860657 -0.0106124159 -0.000314015865
v 0.0190912346 -0.010607247 -0.000104715347
v 0.0190892986 -0.0106091877 0.000209396362
v 0.0190815453 -0.0106169363 0.000418539524
v 0.0190602592 -0.0106382271 0.000731215954
v 0.0190396503 -0.010658836 0.000938606739
v 0.0190139297 -0.0106845518 0.00114485312
f 1 2 3
f 6 2 1
f 773 1 3
f 6 1 773
f 3 2 4
f 7 4 2
f 6 7 2
f 774 3 4
f 774 773 3
f 774 4 7
f 5 9 6
f 16 5 6
f 9 5 826
f 13 5 14
f 27 5 13
f 14 5 15
f 15 5 16
f 33 5 27
f 31 5 32
f 43 5 31
f 32 5 33
f 48 5 43
f 47 5 48
f 55 5 47
f 60 5 55
f 59 5 60
f 67 5 59
f 73 5 67
f 77 5 73
f 81 5 77
f 109 5 81
f 125 5 109
f 449 5 125
f 449 772 5
f 826 5 772
f 10 7 6
f 6 9 10
f 16 6 17
f 17 6 18
f 18 6 19
f 19 6 28
f 28 6 34
f 34 6 35
f 35 6 36
f 36 6 44
f 44 6 49
f 49 6 50
f 50 6 56
f 56 6 61
f 61 6 62
f 62 6 68
f 68 6 69
f 69 6 74
f 74 6 78
f 78 6 82
f 82 6 110
f 110 6 126
f 126 6 143
f 143 6 159
f 159 6 158
f 6 325 158
f 6 326 325
f 6 327 326
f 6 334 327
f 335 334 6
f 6 354 335
f 6 355 354
f 6 356 355
f 6 364 356
f 380 364 6
f 381 380 6
f 6 395 381
f 6 396 395
f 410 396 6
f 6 411 410
f 6 423 411
f 6 450 423
f 6 474 450
f 478 474 6
f 6 498 478
f 773 498 6
f 11 8 7
f 21 7 8
f 10 11 7
f 20 7 21
f 29 7 20
f 39 7 29
f 37 7 38
f 45 7 37
f 38 7 39
f 52 7 45
f 51 7 52
f 57 7 51
f 64 7 57
f 63 7 64
f 70 7 63
f 75 7 70
f 79 7 75
f 83 7 79
f 111 7 83
f 127 7 111
f 144 7 127
f 144 424 7
f 7 424 774
f 12 8 11
f 12 775 8
f 21 8 22
f 22 8 23
f 23 8 24
f 24 8 25
f 25 8 26
f 26 8 30
f 30 8 40
f 40 8 41
f 41 8 42
f 42 8 46
f 46 8 53
f 53 8 54
f 54 8 58
f 58 8 65
f 65 8 66
f 66 8 71
f 71 8 72
f 72 8 76
f 76 8 80
f 80 8 84
f 84 8 112
f 112 8 128
f 452 128 8
f 452 8 775
f 87 10 9
f 86 9 85
f 85 9 97
f 87 9 86
f 96 9 95
f 95 9 113
f 97 9 96
f 113 9 118
f 118 9 117
f 117 9 130
f 130 9 129
f 129 9 135
f 135 9 148
f 148 9 147
f 147 9 153
f 153 9 163
f 163 9 170
f 170 9 169
f 169 9 183
f 183 9 187
f 187 9 205
f 205 9 209
f 589 209 9
f 589 9 826
f 299 11 10
f 88 10 87
f 89 10 88
f 98 10 89
f 99 10 98
f 100 10 99
f 101 10 100
f 114 10 101
f 119 10 114
f 120 10 119
f 131 10 120
f 136 10 131
f 137 10 136
f 149 10 137
f 154 10 149
f 164 10 154
f 165 10 164
f 171 10 165
f 184 10 171
f 188 10 184
f 206 10 188
f 210 10 206
f 232 10 210
f 236 10 232
f 250 10 236
f 256 10 250
f 255 10 256
f 262 10 255
f 267 10 262
f 267 435 10
f 10 971 299
f 10 435 436
f 10 436 437
f 437 438 10
f 10 438 439
f 439 460 10
f 10 460 466
f 466 467 10
f 10 467 486
f 10 486 491
f 491 492 10
f 10 492 510
f 10 510 511
f 10 511 517
f 10 517 534
f 534 539 10
f 10 539 540
f 10 540 562
f 10 562 566
f 10 566 586
f 10 586 590
f 590 614 10
f 10 614 618
f 10 618 827
f 827 971 10
f 104 12 11
f 103 11 102
f 102 11 115
f 104 11 103
f 115 11 122
f 122 11 121
f 121 11 133
f 133 11 132
f 132 11 138
f 138 11 151
f 151 11 150
f 150 11 155
f 155 11 166
f 166 11 173
f 173 11 172
f 172 11 185
f 185 11 189
f 189 11 207
f 207 11 211
f 211 11 233
f 233 11 237
f 567 237 11
f 299 300 11
f 11 300 828
f 11 828 567
f 91 12 90
f 90 12 104
f 92 12 91
f 93 12 92
f 94 12 93
f 105 12 94
f 106 12 105
f 107 12 106
f 108 12 107
f 116 12 108
f 123 12 116
f 124 12 123
f 134 12 124
f 139 12 134
f 140 12 139
f 152 12 140
f 156 12 152
f 167 12 156
f 168 12 167
f 174 12 168
f 186 12 174
f 190 12 186
f 208 12 190
f 212 12 208
f 592 12 212
f 592 829 12
f 829 775 12
f 97 13 14
f 96 27 13
f 96 13 97
f 86 14 15
f 85 14 86
f 97 14 85
f 87 15 16
f 86 15 87
f 88 16 17
f 87 16 88
f 89 17 18
f 88 17 89
f 99 18 19
f 89 18 98
f 98 18 99
f 100 19 28
f 99 19 100
f 21 104 20
f 20 103 29
f 20 104 103
f 22 91 21
f 21 91 90
f 21 90 104
f 23 92 22
f 22 92 91
f 24 93 23
f 23 93 92
f 25 94 24
f 24 94 93
f 26 106 25
f 25 105 94
f 25 106 105
f 30 107 26
f 26 107 106
f 96 33 27
f 100 28 34
f 29 103 39
f 40 107 30
f 118 31 32
f 117 43 31
f 117 31 118
f 95 32 33
f 113 32 95
f 118 32 113
f 95 33 96
f 101 34 35
f 100 34 101
f 120 35 36
f 101 35 114
f 114 35 119
f 119 35 120
f 120 36 44
f 38 122 37
f 37 121 45
f 37 122 121
f 39 102 38
f 38 102 115
f 38 115 122
f 39 103 102
f 41 108 40
f 40 108 107
f 42 124 41
f 41 116 108
f 41 123 116
f 41 124 123
f 46 124 42
f 117 48 43
f 120 44 49
f 45 121 52
f 53 124 46
f 130 47 48
f 135 55 47
f 129 47 130
f 135 47 129
f 130 48 117
f 131 49 50
f 120 49 131
f 136 50 56
f 131 50 136
f 52 133 51
f 51 138 57
f 51 133 132
f 51 132 138
f 52 121 133
f 54 134 53
f 53 134 124
f 58 139 54
f 54 139 134
f 135 60 55
f 136 56 61
f 57 138 64
f 65 139 58
f 148 59 60
f 153 67 59
f 147 59 148
f 153 59 147
f 148 60 135
f 137 61 62
f 136 61 137
f 154 62 68
f 137 62 149
f 149 62 154
f 64 151 63
f 63 155 70
f 63 151 150
f 63 150 155
f 64 138 151
f 66 140 65
f 65 140 139
f 71 156 66
f 66 152 140
f 66 156 152
f 170 73 67
f 163 67 153
f 170 67 163
f 165 68 69
f 154 68 164
f 164 68 165
f 171 69 74
f 165 69 171
f 70 173 75
f 70 155 166
f 70 166 173
f 72 168 71
f 71 167 156
f 71 168 167
f 76 174 72
f 72 174 168
f 169 77 73
f 169 73 170
f 171 74 78
f 75 172 79
f 75 173 172
f 80 174 76
f 187 81 77
f 183 77 169
f 187 77 183
f 188 78 82
f 171 78 184
f 184 78 188
f 79 189 83
f 79 172 185
f 79 185 189
f 84 190 80
f 80 186 174
f 80 190 186
f 187 109 81
f 188 82 110
f 83 189 111
f 112 190 84
f 209 125 109
f 205 109 187
f 209 109 205
f 210 110 126
f 188 110 206
f 206 110 210
f 111 211 127
f 111 189 207
f 111 207 211
f 128 212 112
f 112 208 190
f 112 212 208
f 235 141 125
f 141 421 125
f 231 125 209
f 235 125 231
f 125 421 449
f 236 126 143
f 210 126 232
f 232 126 236
f 127 237 144
f 127 211 233
f 127 233 237
f 146 238 128
f 128 360 146
f 128 234 212
f 128 238 234
f 128 361 360
f 362 361 128
f 366 362 128
f 128 385 366
f 128 386 385
f 128 399 386
f 128 400 399
f 128 413 400
f 414 413 128
f 128 426 414
f 128 452 426
f 253 142 141
f 142 422 141
f 249 141 235
f 253 141 249
f 141 422 421
f 254 157 142
f 157 409 142
f 254 142 253
f 142 409 422
f 256 143 159
f 236 143 250
f 250 143 256
f 144 257 145
f 145 424 144
f 144 237 251
f 144 251 257
f 145 258 160
f 160 425 145
f 145 257 258
f 145 425 424
f 162 260 146
f 162 146 330
f 146 252 238
f 146 260 252
f 331 330 146
f 146 332 331
f 146 337 332
f 146 338 337
f 360 338 146
f 265 175 157
f 175 393 157
f 261 157 254
f 265 157 261
f 157 393 409
f 255 159 158
f 267 158 178
f 325 178 158
f 255 158 262
f 262 158 267
f 256 159 255
f 160 268 179
f 179 397 160
f 160 258 263
f 160 263 268
f 160 397 412
f 160 412 425
f 161 259 162
f 330 161 162
f 182 270 161
f 330 182 161
f 161 264 259
f 161 270 264
f 162 259 260
f 265 176 175
f 176 394 175
f 175 394 393
f 277 191 176
f 191 377 176
f 266 176 265
f 271 176 266
f 277 176 271
f 176 377 394
f 272 178 177
f 177 178 325
f 280 177 195
f 195 177 325
f 272 177 280
f 267 178 273
f 273 178 272
f 179 268 180
f 180 398 179
f 179 398 397
f 180 281 196
f 196 382 180
f 180 268 269
f 180 269 274
f 180 274 281
f 180 382 398
f 181 275 182
f 181 182 330
f 200 284 181
f 200 181 330
f 181 284 275
f 182 276 270
f 182 275 276
f 277 192 191
f 192 378 191
f 191 378 377
f 289 193 192
f 193 379 192
f 278 192 277
f 285 192 278
f 289 192 285
f 192 379 378
f 290 201 193
f 325 193 201
f 290 193 289
f 193 324 323
f 323 333 193
f 193 325 324
f 193 333 353
f 193 352 351
f 351 363 193
f 353 352 193
f 193 363 379
f 279 195 194
f 325 194 195
f 292 194 202
f 325 202 194
f 279 194 286
f 286 194 293
f 293 194 292
f 280 195 279
f 196 281 197
f 197 383 196
f 196 383 382
f 197 294 198
f 198 384 197
f 197 281 282
f 197 282 287
f 197 287 294
f 197 384 383
f 198 295 203
f 203 365 198
f 198 294 295
f 198 365 384
f 199 283 200
f 330 199 200
f 204 297 199
f 330 204 199
f 199 288 283
f 199 298 288
f 199 297 298
f 200 283 284
f 290 213 201
f 325 201 213
f 292 202 218
f 325 218 202
f 203 295 219
f 219 357 203
f 203 357 365
f 224 297 204
f 330 224 204
f 209 585 231
f 209 589 585
f 234 588 212
f 212 588 592
f 290 214 213
f 325 213 214
f 305 215 214
f 325 214 215
f 291 214 290
f 301 214 291
f 305 214 301
f 306 225 215
f 215 225 325
f 306 215 305
f 312 217 216
f 216 217 325
f 312 216 227
f 227 216 325
f 302 218 217
f 325 217 218
f 302 217 313
f 313 217 312
f 292 218 302
f 219 295 220
f 220 358 219
f 219 358 357
f 220 314 221
f 221 359 220
f 220 295 296
f 220 296 303
f 220 303 314
f 220 359 358
f 221 315 228
f 228 336 221
f 221 314 315
f 221 336 359
f 222 321 223
f 222 223 330
f 230 321 222
f 230 222 330
f 223 304 224
f 330 223 224
f 223 322 304
f 223 321 322
f 224 304 297
f 307 239 225
f 325 225 239
f 307 225 306
f 311 227 226
f 325 226 227
f 311 226 243
f 325 243 226
f 312 227 311
f 228 316 244
f 244 328 228
f 228 315 316
f 228 328 336
f 229 320 230
f 330 229 230
f 248 320 229
f 330 248 229
f 230 320 321
f 231 565 235
f 231 585 565
f 238 568 234
f 234 568 588
f 235 561 249
f 235 565 561
f 237 567 251
f 252 446 238
f 238 446 447
f 238 447 448
f 448 462 238
f 238 462 471
f 471 472 238
f 238 472 488
f 238 488 495
f 495 496 238
f 238 496 513
f 238 513 514
f 238 514 520
f 238 520 536
f 536 543 238
f 238 543 544
f 238 544 564
f 238 564 568
f 307 240 239
f 239 240 325
f 308 241 240
f 325 240 241
f 308 240 307
f 309 242 241
f 325 241 242
f 309 241 308
f 310 243 242
f 325 242 243
f 310 242 309
f 311 243 310
f 244 316 245
f 245 329 244
f 244 329 328
f 245 317 246
f 246 330 245
f 245 316 317
f 245 330 329
f 246 318 247
f 330 246 247
f 246 317 318
f 247 319 248
f 330 247 248
f 247 318 319
f 248 319 320
f 249 537 253
f 249 561 537
f 251 563 257
f 251 567 563
f 260 444 252
f 252 444 445
f 252 445 446
f 253 538 254
f 253 537 538
f 254 533 261
f 254 538 533
f 257 541 258
f 257 563 541
f 258 542 263
f 258 541 542
f 259 444 260
f 264 444 259
f 261 515 265
f 261 533 515
f 263 535 268
f 263 542 535
f 270 444 264
f 265 516 266
f 265 515 516
f 266 509 271
f 266 516 509
f 273 435 267
f 268 519 269
f 268 518 519
f 268 535 518
f 269 512 274
f 269 519 512
f 276 444 270
f 271 489 277
f 271 509 489
f 272 435 273
f 280 435 272
f 274 493 281
f 274 512 493
f 275 444 276
f 284 444 275
f 277 490 278
f 277 489 490
f 278 485 285
f 278 490 485
f 279 435 280
f 286 435 279
f 281 494 282
f 281 493 494
f 282 487 287
f 282 494 487
f 283 444 284
f 288 444 283
f 285 463 289
f 285 485 463
f 293 435 286
f 287 468 294
f 287 487 468
f 298 444 288
f 289 464 290
f 289 463 464
f 290 435 291
f 431 432 290
f 290 459 431
f 290 432 433
f 290 433 434
f 434 435 290
f 465 459 290
f 290 464 465
f 291 435 301
f 292 435 293
f 302 435 292
f 294 469 295
f 294 468 469
f 295 470 296
f 295 469 470
f 296 461 303
f 296 470 461
f 297 444 298
f 304 444 297
f 339 300 299
f 339 299 349
f 349 299 370
f 368 299 367
f 367 299 375
f 369 299 368
f 370 299 369
f 375 299 388
f 388 299 387
f 387 299 391
f 391 299 403
f 402 299 401
f 401 299 407
f 403 299 402
f 407 299 417
f 416 299 415
f 415 299 428
f 417 299 416
f 428 299 427
f 427 299 454
f 454 299 453
f 453 299 457
f 457 299 481
f 481 299 483
f 483 299 505
f 505 299 507
f 507 299 528
f 528 299 527
f 527 299 531
f 531 299 558
f 558 299 557
f 557 299 581
f 581 299 583
f 583 299 610
f 610 299 609
f 609 299 635
f 635 299 637
f 637 299 649
f 649 299 661
f 661 299 663
f 663 299 677
f 677 299 708
f 708 299 707
f 707 299 971
f 340 300 339
f 341 300 340
f 342 300 341
f 343 300 342
f 344 300 343
f 345 300 344
f 346 300 345
f 347 300 346
f 348 300 347
f 350 300 348
f 371 300 350
f 372 300 371
f 373 300 372
f 374 300 373
f 376 300 374
f 389 300 376
f 390 300 389
f 392 300 390
f 404 300 392
f 405 300 404
f 406 300 405
f 408 300 406
f 418 300 408
f 419 300 418
f 420 300 419
f 429 300 420
f 430 300 429
f 455 300 430
f 456 300 455
f 458 300 456
f 482 300 458
f 484 300 482
f 506 300 484
f 508 300 506
f 529 300 508
f 530 300 529
f 532 300 530
f 559 300 532
f 560 300 559
f 582 300 560
f 584 300 582
f 611 300 584
f 612 300 611
f 636 300 612
f 638 300 636
f 650 300 638
f 662 300 650
f 664 300 662
f 678 300 664
f 709 300 678
f 709 972 300
f 828 300 972
f 301 435 305
f 313 435 302
f 303 440 314
f 303 461 440
f 322 444 304
f 305 435 306
f 306 435 307
f 307 435 308
f 308 435 309
f 309 435 310
f 310 435 311
f 311 435 312
f 312 435 313
f 314 441 315
f 314 440 441
f 315 442 316
f 315 441 442
f 316 443 317
f 316 442 443
f 317 444 318
f 317 443 444
f 318 444 319
f 319 444 320
f 320 444 321
f 321 444 322
f 434 323 324
f 433 333 323
f 433 323 434
f 435 324 325
f 434 324 435
f 436 325 326
f 435 325 436
f 437 326 327
f 436 326 437
f 437 327 334
f 329 443 328
f 328 442 336
f 328 443 442
f 330 444 329
f 329 444 443
f 331 445 330
f 330 445 444
f 332 446 331
f 331 446 445
f 337 446 332
f 433 353 333
f 438 334 335
f 437 334 438
f 438 335 354
f 336 442 359
f 338 447 337
f 337 447 446
f 360 447 338
f 339 693 340
f 349 703 339
f 339 704 693
f 339 703 704
f 340 694 341
f 340 693 694
f 341 695 342
f 341 694 695
f 342 696 343
f 342 695 696
f 343 697 344
f 343 696 697
f 344 698 345
f 344 697 698
f 345 699 346
f 345 698 699
f 346 700 347
f 346 699 700
f 347 701 348
f 347 700 701
f 348 705 350
f 348 701 702
f 348 702 705
f 370 731 349
f 349 731 703
f 350 706 371
f 350 705 706
f 465 351 352
f 464 363 351
f 464 351 465
f 432 352 353
f 431 352 432
f 459 352 431
f 465 352 459
f 432 353 433
f 439 354 355
f 438 354 439
f 466 355 356
f 439 355 460
f 460 355 466
f 466 356 364
f 358 470 357
f 357 469 365
f 357 470 469
f 359 441 358
f 358 441 440
f 358 440 461
f 358 461 470
f 359 442 441
f 361 448 360
f 360 448 447
f 362 471 361
f 361 462 448
f 361 471 462
f 366 471 362
f 464 379 363
f 467 364 380
f 466 364 467
f 365 469 384
f 385 472 366
f 366 472 471
f 367 728 368
f 375 736 367
f 367 736 728
f 368 729 369
f 368 728 729
f 369 730 370
f 369 729 730
f 370 730 731
f 371 732 372
f 371 706 732
f 372 733 373
f 372 732 733
f 373 734 374
f 373 733 734
f 374 735 376
f 374 734 735
f 388 753 375
f 375 753 736
f 376 737 389
f 376 735 737
f 490 377 378
f 489 394 377
f 489 377 490
f 464 378 379
f 463 378 464
f 485 378 463
f 490 378 485
f 492 380 381
f 467 380 486
f 486 380 491
f 491 380 492
f 492 381 395
f 383 494 382
f 382 493 398
f 382 494 493
f 384 469 383
f 383 469 468
f 383 468 487
f 383 487 494
f 386 496 385
f 385 488 472
f 385 495 488
f 385 496 495
f 399 496 386
f 387 752 388
f 391 756 387
f 387 756 752
f 388 752 753
f 389 754 390
f 389 737 754
f 390 755 392
f 390 754 755
f 403 762 391
f 391 762 756
f 392 757 404
f 392 755 757
f 516 393 394
f 515 409 393
f 515 393 516
f 509 394 489
f 516 394 509
f 511 395 396
f 492 395 510
f 510 395 511
f 517 396 410
f 511 396 517
f 398 519 397
f 397 518 412
f 397 519 518
f 398 493 512
f 398 512 519
f 400 514 399
f 399 513 496
f 399 514 513
f 413 520 400
f 400 520 514
f 401 760 402
f 407 766 401
f 401 766 760
f 402 761 403
f 402 760 761
f 403 761 762
f 404 763 405
f 404 757 763
f 405 764 406
f 405 763 764
f 406 765 408
f 406 764 765
f 417 778 407
f 407 778 766
f 408 767 418
f 408 765 767
f 538 422 409
f 533 409 515
f 538 409 533
f 540 410 411
f 517 410 534
f 534 410 539
f 539 410 540
f 540 411 423
f 412 542 425
f 412 518 535
f 412 535 542
f 414 544 413
f 413 536 520
f 413 543 536
f 413 544 543
f 426 544 414
f 415 776 416
f 428 782 415
f 415 782 776
f 416 777 417
f 416 776 777
f 417 777 778
f 418 779 419
f 418 767 779
f 419 780 420
f 419 779 780
f 420 781 429
f 420 780 781
f 538 421 422
f 565 449 421
f 537 421 538
f 561 421 537
f 565 421 561
f 566 423 450
f 540 423 562
f 562 423 566
f 425 542 424
f 424 567 451
f 774 424 451
f 424 542 541
f 424 541 563
f 424 563 567
f 452 568 426
f 426 564 544
f 426 568 564
f 427 786 428
f 454 799 427
f 427 790 786
f 427 799 790
f 428 787 782
f 428 786 787
f 429 788 430
f 429 781 783
f 429 783 788
f 430 791 455
f 430 788 789
f 430 789 791
f 589 473 449
f 473 772 449
f 585 449 565
f 589 449 585
f 590 450 474
f 566 450 586
f 586 450 590
f 451 591 475
f 774 451 475
f 451 567 587
f 451 587 591
f 476 592 452
f 775 476 452
f 452 588 568
f 452 592 588
f 453 798 454
f 457 802 453
f 453 802 798
f 454 798 799
f 455 800 456
f 455 791 800
f 456 801 458
f 456 800 801
f 481 806 457
f 457 806 802
f 458 803 482
f 458 801 803
f 617 477 473
f 772 473 477
f 613 473 589
f 617 473 613
f 618 474 478
f 590 474 614
f 614 474 618
f 475 619 479
f 774 475 479
f 475 591 615
f 475 615 619
f 480 620 476
f 775 480 476
f 476 616 592
f 476 620 616
f 617 497 477
f 477 497 772
f 618 478 498
f 479 619 499
f 774 479 499
f 500 620 480
f 775 500 480
f 483 808 481
f 481 808 806
f 482 807 484
f 482 803 807
f 505 816 483
f 483 816 808
f 484 809 506
f 484 807 809
f 643 501 497
f 772 497 501
f 639 497 617
f 643 497 639
f 645 498 502
f 773 502 498
f 618 498 640
f 640 498 645
f 499 646 503
f 774 499 503
f 499 619 641
f 499 641 646
f 504 648 500
f 775 504 500
f 500 642 620
f 500 648 642
f 643 521 501
f 501 521 772
f 645 502 523
f 523 502 773
f 503 646 524
f 774 503 524
f 526 648 504
f 775 526 504
f 507 818 505
f 505 818 816
f 506 817 508
f 506 809 817
f 528 831 507
f 507 831 818
f 508 819 529
f 508 817 819
f 657 545 521
f 521 545 772
f 644 521 643
f 651 521 644
f 657 521 651
f 652 523 522
f 773 522 523
f 658 522 548
f 548 522 773
f 652 522 658
f 645 523 653
f 653 523 652
f 524 659 549
f 774 524 549
f 524 646 647
f 524 647 654
f 524 654 659
f 525 655 526
f 525 526 775
f 552 660 525
f 775 552 525
f 525 660 655
f 526 656 648
f 526 655 656
f 527 830 528
f 531 834 527
f 527 834 830
f 528 830 831
f 529 832 530
f 529 819 832
f 530 833 532
f 530 832 833
f 558 841 531
f 531 841 834
f 532 835 559
f 532 833 835
f 665 546 545
f 545 546 772
f 665 545 657
f 671 553 546
f 772 546 553
f 666 546 665
f 671 546 666
f 672 548 547
f 773 547 548
f 672 547 554
f 773 554 547
f 658 548 667
f 667 548 673
f 673 548 672
f 549 668 550
f 774 549 550
f 549 659 668
f 550 674 555
f 550 555 774
f 550 668 669
f 550 669 674
f 551 675 552
f 775 551 552
f 556 675 551
f 556 551 775
f 552 670 660
f 552 676 670
f 552 675 676
f 671 569 553
f 772 553 569
f 672 554 572
f 773 572 554
f 555 674 573
f 774 555 573
f 576 675 556
f 775 576 556
f 557 840 558
f 581 848 557
f 557 848 840
f 558 840 841
f 559 842 560
f 559 835 842
f 560 843 582
f 560 842 843
f 828 587 567
f 679 570 569
f 772 569 570
f 679 569 671
f 685 577 570
f 772 570 577
f 680 570 679
f 685 570 680
f 688 572 571
f 571 572 773
f 688 571 578
f 773 578 571
f 672 572 681
f 681 572 688
f 573 682 574
f 573 574 774
f 573 674 682
f 574 689 579
f 774 574 579
f 574 682 683
f 574 683 689
f 575 692 576
f 775 575 576
f 580 692 575
f 775 580 575
f 576 684 675
f 576 692 684
f 685 593 577
f 577 593 772
f 688 578 598
f 772 598 578
f 772 578 773
f 579 689 599
f 774 579 599
f 604 692 580
f 775 604 580
f 583 850 581
f 581 850 848
f 582 849 584
f 582 843 849
f 610 857 583
f 583 857 850
f 584 851 611
f 584 849 851
f 828 591 587
f 826 613 589
f 828 615 591
f 592 616 829
f 685 594 593
f 772 593 594
f 710 595 594
f 594 595 772
f 686 594 685
f 710 594 686
f 714 605 595
f 772 595 605
f 714 595 710
f 719 597 596
f 596 597 772
f 719 596 606
f 606 596 772
f 687 598 597
f 772 597 598
f 687 597 711
f 711 597 720
f 720 597 719
f 688 598 687
f 599 689 600
f 599 600 774
f 600 712 601
f 774 600 601
f 600 689 690
f 600 690 712
f 601 721 607
f 601 607 774
f 601 712 721
f 602 726 603
f 602 603 775
f 608 726 602
f 608 602 775
f 603 691 604
f 775 603 604
f 603 713 691
f 603 727 713
f 603 726 727
f 604 691 692
f 715 621 605
f 772 605 621
f 715 605 714
f 718 606 627
f 772 627 606
f 719 606 718
f 607 722 628
f 774 607 628
f 607 721 722
f 634 725 608
f 775 634 608
f 608 725 726
f 609 856 610
f 635 864 609
f 609 864 856
f 610 856 857
f 611 858 612
f 611 851 858
f 612 859 636
f 612 858 859
f 826 617 613
f 828 619 615
f 829 616 620
f 826 639 617
f 827 618 640
f 828 641 619
f 620 642 829
f 715 622 621
f 772 621 622
f 742 623 622
f 772 622 623
f 716 622 715
f 742 622 716
f 743 624 623
f 623 624 772
f 743 623 742
f 744 625 624
f 624 625 772
f 744 624 743
f 745 626 625
f 625 626 772
f 745 625 744
f 717 627 626
f 772 626 627
f 717 626 746
f 746 626 745
f 718 627 717
f 628 722 629
f 774 628 629
f 629 747 630
f 775 629 630
f 629 722 723
f 629 723 747
f 774 629 775
f 630 748 631
f 630 631 775
f 630 747 748
f 631 749 632
f 631 632 775
f 631 748 749
f 632 750 633
f 632 633 775
f 632 749 750
f 633 724 634
f 775 633 634
f 633 751 724
f 633 750 751
f 634 724 725
f 637 866 635
f 635 866 864
f 636 865 638
f 636 859 865
f 649 876 637
f 637 876 866
f 638 867 650
f 638 865 867
f 826 643 639
f 827 640 645
f 828 646 641
f 829 642 648
f 826 644 643
f 826 651 644
f 827 645 653
f 828 647 646
f 828 654 647
f 648 656 829
f 661 886 649
f 649 886 876
f 650 877 662
f 650 867 877
f 826 657 651
f 653 652 827
f 827 652 658
f 828 659 654
f 829 656 655
f 829 655 660
f 665 657 826
f 658 667 827
f 668 659 828
f 829 660 670
f 663 888 661
f 661 888 886
f 662 887 664
f 662 877 887
f 677 896 663
f 663 896 888
f 664 889 678
f 664 887 889
f 826 666 665
f 671 666 826
f 667 673 827
f 828 669 668
f 674 669 828
f 829 670 676
f 826 679 671
f 827 673 672
f 827 672 681
f 828 682 674
f 829 676 675
f 675 684 829
f 708 911 677
f 677 898 896
f 677 911 898
f 678 899 709
f 678 889 897
f 678 897 899
f 680 679 826
f 826 685 680
f 827 681 688
f 683 682 828
f 828 689 683
f 684 692 829
f 686 685 826
f 826 710 686
f 827 688 687
f 827 687 711
f 690 689 828
f 828 712 690
f 692 691 829
f 829 691 713
f 693 702 694
f 693 705 702
f 704 705 693
f 694 701 695
f 694 702 701
f 695 700 696
f 695 701 700
f 696 699 697
f 696 700 699
f 697 699 698
f 703 706 704
f 703 732 706
f 731 732 703
f 704 706 705
f 707 910 708
f 708 911 707
f 707 971 708
f 707 911 910
f 738 913 708
f 708 971 738
f 708 910 911
f 708 913 911
f 709 912 739
f 739 972 709
f 709 899 912
f 826 714 710
f 827 711 720
f 828 721 712
f 713 727 829
f 715 714 826
f 826 716 715
f 742 716 826
f 827 718 717
f 717 746 827
f 827 719 718
f 720 719 827
f 722 721 828
f 828 723 722
f 747 723 829
f 829 723 828
f 725 724 829
f 829 724 751
f 829 726 725
f 829 727 726
f 728 735 729
f 728 737 735
f 736 737 728
f 729 734 730
f 729 735 734
f 730 733 731
f 730 734 733
f 731 733 732
f 736 754 737
f 753 754 736
f 740 927 738
f 738 971 740
f 738 925 913
f 738 927 925
f 739 926 741
f 741 972 739
f 739 912 914
f 739 914 926
f 758 929 740
f 740 971 758
f 740 929 927
f 741 928 759
f 759 972 741
f 741 926 928
f 826 743 742
f 826 744 743
f 745 744 827
f 827 744 826
f 746 745 827
f 829 748 747
f 829 749 748
f 829 750 749
f 829 751 750
f 752 755 753
f 752 757 755
f 756 757 752
f 753 755 754
f 756 763 757
f 762 763 756
f 768 931 758
f 758 971 768
f 758 931 929
f 759 930 769
f 769 972 759
f 759 928 930
f 760 765 761
f 760 767 765
f 766 767 760
f 761 764 762
f 761 765 764
f 762 764 763
f 766 779 767
f 778 779 766
f 770 933 768
f 768 971 770
f 768 933 931
f 769 932 771
f 771 972 769
f 769 930 932
f 784 935 770
f 770 971 784
f 770 935 933
f 771 934 785
f 785 972 771
f 771 932 934
f 827 772 773
f 826 772 827
f 828 773 774
f 828 827 773
f 775 829 774
f 774 829 828
f 776 781 777
f 776 783 781
f 782 783 776
f 777 780 778
f 777 781 780
f 778 780 779
f 782 788 783
f 787 788 782
f 792 937 784
f 784 971 792
f 784 937 935
f 785 936 795
f 795 972 785
f 785 934 936
f 786 789 787
f 786 791 789
f 790 791 786
f 787 789 788
f 790 800 791
f 799 800 790
f 793 938 792
f 792 971 793
f 792 938 937
f 796 941 793
f 793 971 796
f 793 941 938
f 795 940 794
f 794 972 795
f 794 939 797
f 797 972 794
f 794 940 939
f 795 936 940
f 804 943 796
f 796 971 804
f 796 943 941
f 797 942 805
f 805 972 797
f 797 939 942
f 798 801 799
f 798 803 801
f 802 803 798
f 799 801 800
f 802 807 803
f 806 807 802
f 810 945 804
f 804 971 810
f 804 945 943
f 805 944 813
f 813 972 805
f 805 942 944
f 806 809 807
f 808 809 806
f 808 817 809
f 816 817 808
f 811 946 810
f 810 971 811
f 810 946 945
f 814 949 811
f 811 971 814
f 811 949 946
f 813 948 812
f 812 972 813
f 812 947 815
f 815 972 812
f 812 948 947
f 813 944 948
f 820 951 814
f 814 971 820
f 814 951 949
f 815 950 823
f 823 972 815
f 815 947 950
f 816 819 817
f 818 819 816
f 818 832 819
f 831 832 818
f 821 952 820
f 820 971 821
f 820 952 951
f 824 955 821
f 821 971 824
f 821 955 952
f 823 954 822
f 822 972 823
f 822 953 825
f 825 972 822
f 822 954 953
f 823 950 954
f 836 957 824
f 824 971 836
f 824 957 955
f 825 956 837
f 837 972 825
f 825 953 956
f 972 827 828
f 972 971 827
f 830 833 831
f 830 835 833
f 834 835 830
f 831 833 832
f 834 842 835
f 841 842 834
f 838 959 836
f 836 971 838
f 836 959 957
f 837 958 839
f 839 972 837
f 837 956 958
f 844 961 838
f 838 971 844
f 838 961 959
f 839 960 845
f 845 972 839
f 839 958 960
f 840 843 841
f 840 849 843
f 848 849 840
f 841 843 842
f 846 963 844
f 844 971 846
f 844 963 961
f 845 962 847
f 847 972 845
f 845 960 962
f 852 965 846
f 846 971 852
f 846 965 963
f 847 964 855
f 855 972 847
f 847 962 964
f 848 851 849
f 850 851 848
f 850 858 851
f 857 858 850
f 853 966 852
f 852 971 853
f 852 966 965
f 860 969 853
f 853 971 860
f 853 969 966
f 855 968 854
f 854 972 855
f 854 967 863
f 863 972 854
f 854 968 967
f 855 964 968
f 856 859 857
f 856 865 859
f 864 865 856
f 857 859 858
f 860 971 861
f 861 974 860
f 860 973 969
f 860 974 973
f 861 971 868
f 868 979 861
f 861 977 974
f 861 979 977
f 862 972 863
f 863 976 862
f 873 972 862
f 862 978 873
f 862 976 975
f 862 975 978
f 863 967 970
f 863 970 976
f 864 867 865
f 866 867 864
f 866 877 867
f 876 877 866
f 868 971 869
f 869 980 868
f 868 980 979
f 869 971 870
f 870 981 869
f 869 981 980
f 870 971 874
f 874 985 870
f 870 985 981
f 871 972 872
f 872 983 871
f 875 972 871
f 871 982 875
f 871 983 982
f 872 972 873
f 873 984 872
f 872 984 983
f 873 978 984
f 874 971 878
f 878 987 874
f 874 987 985
f 883 972 875
f 875 986 883
f 875 982 986
f 876 887 877
f 886 887 876
f 878 971 879
f 879 988 878
f 878 988 987
f 879 971 880
f 880 989 879
f 879 989 988
f 880 971 884
f 884 993 880
f 880 993 989
f 881 972 882
f 882 991 881
f 885 972 881
f 881 990 885
f 881 991 990
f 882 972 883
f 883 992 882
f 882 992 991
f 883 986 992
f 884 971 890
f 890 995 884
f 884 995 993
f 893 972 885
f 885 994 893
f 885 990 994
f 886 889 887
f 888 889 886
f 888 897 889
f 896 897 888
f 890 971 891
f 891 996 890
f 890 996 995
f 891 971 894
f 894 999 891
f 891 999 996
f 892 972 893
f 893 998 892
f 895 972 892
f 892 997 895
f 892 998 997
f 893 994 998
f 894 971 900
f 900 1001 894
f 894 1001 999
f 907 972 895
f 895 1000 907
f 895 997 1000
f 896 899 897
f 898 899 896
f 898 912 899
f 911 912 898
f 900 971 901
f 901 1002 900
f 900 1002 1001
f 901 971 902
f 902 1003 901
f 901 1003 1002
f 902 971 903
f 903 1004 902
f 902 1004 1003
f 903 971 908
f 908 1009 903
f 903 1009 1004
f 904 972 905
f 905 1006 904
f 909 972 904
f 904 1005 909
f 904 1006 1005
f 905 972 906
f 906 1007 905
f 905 1007 1006
f 906 972 907
f 907 1008 906
f 906 1008 1007
f 907 1000 1008
f 908 971 915
f 915 1010 908
f 908 1010 1009
f 924 972 909
f 909 1012 924
f 909 1005 1012
f 911 912 910
f 912 911 914
f 914 911 913
f 914 913 926
f 926 913 925
f 915 972 916
f 916 1014 915
f 915 971 972
f 915 1013 1010
f 915 1014 1013
f 916 972 917
f 917 1015 916
f 916 1015 1014
f 917 972 918
f 918 1016 917
f 917 1016 1015
f 918 972 919
f 919 1017 918
f 918 1017 1016
f 919 972 920
f 920 1018 919
f 919 1018 1017
f 920 972 921
f 921 1019 920
f 920 1019 1018
f 921 972 922
f 922 1020 921
f 921 1020 1019
f 922 972 923
f 923 1021 922
f 922 1021 1020
f 923 972 924
f 924 1022 923
f 923 1022 1021
f 924 1012 1011
f 924 1011 1022
f 926 925 928
f 928 925 927
f 928 927 930
f 930 927 929
f 930 929 932
f 932 929 931
f 932 931 934
f 934 931 933
f 934 933 936
f 936 933 935
f 936 935 940
f 940 935 937
f 939 937 938
f 940 937 939
f 939 938 942
f 942 938 941
f 942 941 944
f 944 941 943
f 944 943 948
f 948 943 945
f 947 945 946
f 948 945 947
f 947 946 950
f 950 946 949
f 950 949 954
f 954 949 951
f 953 951 952
f 954 951 953
f 953 952 956
f 956 952 955
f 956 955 958
f 958 955 957
f 958 957 960
f 960 957 959
f 960 959 962
f 962 959 961
f 962 961 964
f 964 961 963
f 964 963 968
f 968 963 965
f 967 965 966
f 968 965 967
f 967 966 970
f 970 966 969
f 970 969 976
f 976 969 973
f 975 973 974
f 976 973 975
f 975 974 978
f 978 974 977
f 978 977 984
f 984 977 979
f 983 979 980
f 984 979 983
f 982 980 981
f 983 980 982
f 982 981 986
f 986 981 985
f 986 985 992
f 992 985 987
f 991 987 988
f 992 987 991
f 990 988 989
f 991 988 990
f 990 989 994
f 994 989 993
f 994 993 998
f 998 993 995
f 997 995 996
f 998 995 997
f 997 996 1000
f 1000 996 999
f 1000 999 1008
f 1008 999 1001
f 1007 1001 1002
f 1008 1001 1007
f 1006 1002 1003
f 1007 1002 1006
f 1005 1003 1004
f 1006 1003 1005
f 1005 1004 1012
f 1012 1004 1009
f 1011 1009 1010
f 1012 1009 1011
f 1011 1010 1022
f 1022 1010 1013
f 1021 1013 1014
f 1022 1013 1021
f 1020 1014 1015
f 1021 1014 1020
f 1019 1015 1016
f 1020 1015 1019
f 1018 1016 1017
f 1019 1016 1018
