v -0.00776051559 -0.0473584942 -0.0364308794
v -0.00777376212 -0.0473717407 -0.0357155485
v -0.00777817764 -0.0473761562 -0.0350000001
v -0.00766785659 -0.0472658352 -0.038573385
v -0.00770754852 -0.0473055366 -0.0378600152
v -0.00773844756 -0.0473364262 -0.0371457739
v -0.00756207504 -0.0471600536 -0.0399966426
v -0.00761935272 -0.0472173408 -0.0392856665
v -0.00742124595 -0.0470192245 -0.0414138134
v -0.00749603309 -0.0470940117 -0.0407060976
v -0.00733773269 -0.0469357113 -0.0421195753
v -0.00724552192 -0.0468435005 -0.0428231688
v -0.00703513183 -0.0466331104 -0.0442229934
v -0.00714464225 -0.0467426208 -0.0435243793
v -0.00691700973 -0.0465149883 -0.0449187977
v -0.0067903141 -0.0463882927 -0.0456115813
v -0.00665510215 -0.0462530807 -0.046301132
v -0.00651139297 -0.0461093716 -0.0469872398
v -0.00635923423 -0.0459572128 -0.0476696963
v -0.00625902213 -0.0458570007 -0.0383990736
v -0.00629678764 -0.0458947662 -0.0377205021
v -0.00632617034 -0.0459241489 -0.0370411022
v -0.00634716071 -0.0459451393 -0.0363610805
v -0.00635975875 -0.0459577373 -0.035680644
v -0.00636396446 -0.045961943 -0.0350000001
v -0.00619868316 -0.0457966618 -0.0483482952
v -0.00615840949 -0.0457563881 -0.0397529049
v -0.00621289291 -0.0458108715 -0.0390766103
v -0.0060297779 -0.0456277565 -0.0490228267
v -0.00602443733 -0.0456224159 -0.0411009438
v -0.00609558143 -0.04569356 -0.0404277511
v -0.00594500579 -0.0455429844 -0.0417722793
v -0.00585257568 -0.0454505638 -0.0496930857
v -0.00576133765 -0.0453593162 -0.0431085558
v -0.00585728683 -0.045455275 -0.0424415512
v -0.00566713371 -0.0452651123 -0.0503588696
v -0.00565715827 -0.0452551369 -0.0437730916
v -0.0055448059 -0.0451427845 -0.0444349535
v -0.00547349967 -0.0450714783 -0.0510199757
v -0.00542429008 -0.0450222687 -0.0450939424
v -0.00527174033 -0.0448697189 -0.0516762013
v -0.00529566802 -0.0448936466 -0.0457498569
v -0.00515896835 -0.0447569469 -0.0464024968
v -0.00506191291 -0.0446598915 -0.0523273487
v -0.00501423873 -0.0446122173 -0.0470516629
v -0.00484407462 -0.0444420532 -0.0529732175
v -0.00486151733 -0.0444594959 -0.0476971574
v -0.00470085182 -0.0442988304 -0.0483387847
v -0.00461830177 -0.0442162804 -0.0536136098
v -0.00453229942 -0.044130278 -0.0489763494
v -0.0043846611 -0.0439826397 -0.0542483349
v -0.00435589828 -0.0439538769 -0.0496096582
v -0.00417170562 -0.0437696937 -0.0502385135
v -0.00414322891 -0.0437412075 -0.0548771949
v -0.0039797882 -0.0435777668 -0.0508627291
v -0.00389406242 -0.0434920505 -0.055499999
v -0.0037801937 -0.0433781723 -0.0514821119
v -0.003637257 -0.0432352356 -0.0561165614
v -0.00357298888 -0.0431709675 -0.0520964737
v -0.0033728794 -0.042970858 -0.0567266889
v -0.00335823097 -0.0429562096 -0.0527056284
v -0.00310101547 -0.0426989941 -0.0573302002
v -0.0031359867 -0.0427339653 -0.0533093901
v -0.00290633239 -0.042504311 -0.0539075751
v -0.00282174148 -0.0424197201 -0.0579269094
v -0.00266932525 -0.0422673038 -0.0545
v -0.00253514327 -0.0421331219 -0.058516633
v -0.00242504157 -0.0420230202 -0.0550864859
v -0.00210366287 -0.0530153469 -0.0364308794
v -0.0021169094 -0.0530285934 -0.0357155485
v -0.00212132491 -0.053033009 -0.0350000001
v -0.00201100387 -0.0529226879 -0.038573385
v -0.00205069579 -0.0529623894 -0.0378600152
v -0.00208158531 -0.0529932789 -0.0371457739
v -0.00224131622 -0.0418392948 -0.0590991945
v -0.00217355766 -0.0417715362 -0.0556668515
v -0.00183918037 -0.0527508644 -0.0407060976
v -0.00190522231 -0.0528169159 -0.0399966426
v -0.00196249999 -0.0528741936 -0.0392856665
v -0.00176438369 -0.0526760773 -0.0414138134
v -0.0019403366 -0.0415383247 -0.0596744151
v -0.00191494979 -0.0415129284 -0.0562409229
v -0.0015886692 -0.0525003532 -0.0428231688
v -0.00168087997 -0.052592564 -0.0421195753
v -0.00163231887 -0.0412302975 -0.0602421207
v -0.00164930381 -0.0412472824 -0.0568085237
v -0.00137826957 -0.0522899631 -0.0442229934
v -0.00148778953 -0.0523994736 -0.0435243793
v -0.00126015701 -0.052171841 -0.0449187977
v -0.00131732978 -0.0409153084 -0.060802135
v -0.00137668647 -0.0409746651 -0.057369482
v -0.00113346137 -0.0520451549 -0.0456115813
v -0.00109719314 -0.0406951717 -0.057923624
v -0.000854535477 -0.0517662243 -0.0469872398
v -0.00099824466 -0.0519099335 -0.046301132
v -0.000995479005 -0.0405934624 -0.061354291
v -0.000810900109 -0.0404088787 -0.0584707851
v -0.000702381509 -0.0516140655 -0.0476696963
v -0.000602169411 -0.0515138534 -0.0383990736
v -0.000639930146 -0.051551619 -0.0377205021
v -0.000669312852 -0.0515810017 -0.0370411022
v -0.000690307992 -0.051601992 -0.0363610805
v -0.00070290603 -0.0516145996 -0.035680644
v -0.000707106965 -0.0516187958 -0.0350000001
v -0.000541830437 -0.0514535145 -0.0483482952
v -0.000501552003 -0.0514132408 -0.0397529049
v -0.000556035416 -0.0514677242 -0.0390766103
v -0.000666866677 -0.0402648453 -0.0618984194
v -0.00051789798 -0.0401158813 -0.0590107985
v -0.000372925179 -0.0512846188 -0.0490228267
v -0.000367584603 -0.0512792782 -0.0411009438
v -0.000438728707 -0.0513504127 -0.0404277511
v -0.000288148301 -0.0511998371 -0.0417722793
v -0.000331588166 -0.0399295715 -0.0624343557
v -0.000195727723 -0.0511074165 -0.0496930857
v -0.000104480164 -0.051016169 -0.0431085558
v -0.000200438874 -0.0511121277 -0.0424415512
v -1.02809837e-05 -0.050921965 -0.0503588696
v -3.05550385e-07 -0.0509119896 -0.0437730916
v -0.000218277352 -0.0398162559 -0.0595434947
v 0.000112051589 -0.0507996372 -0.0444349535
v 0.000183353049 -0.050728331 -0.0510199757
v 0.000232562644 -0.0506791214 -0.0450939424
v 1.02516243e-05 -0.039587727 -0.0629619331
v 8.78711769e-05 -0.0395101074 -0.0600687165
v 0.000385117156 -0.0505265716 -0.0516762013
v 0.000361184699 -0.0505504993 -0.0457498569
v 0.000497884376 -0.0504137997 -0.0464024968
v 0.000358552558 -0.039239426 -0.0634809942
v 0.000400452239 -0.0391975311 -0.0605863018
v 0.000594944579 -0.0503167442 -0.0523273487
v 0.00064261399 -0.05026907 -0.0470516629
v 0.000713204963 -0.0388847736 -0.0639913769
v 0.000719375236 -0.0388786034 -0.0610960932
v 0.000812778098 -0.0500989059 -0.0529732175
v 0.000795335395 -0.0501163486 -0.0476971574
v 0.000956000907 -0.0499556927 -0.0483387847
v 0.00103855096 -0.0498731331 -0.0536136098
v 0.00112455807 -0.0497871307 -0.0489763494
v 0.00107409917 -0.0385238842 -0.0644929309
v 0.00104454003 -0.0385534386 -0.0615979357
v 0.00127219163 -0.0496395019 -0.0542483349
v 0.00130095444 -0.0496107296 -0.0496096582
v 0.00148514233 -0.0494265465 -0.0502385135
v 0.00144113026 -0.0381568531 -0.0649855013
v 0.00137585126 -0.0382221321 -0.0620916767
v 0.00151362859 -0.0493980602 -0.0548771949
v 0.00167706452 -0.0492346195 -0.0508627291
v 0.00171320401 -0.0378847794 -0.0625771637
v 0.00176278554 -0.0491489033 -0.055499999
v 0.00187665902 -0.049035025 -0.0514821119
v 0.00181418381 -0.0377837948 -0.0654689379
v 0.00201959573 -0.0488920883 -0.0561165614
v 0.00208386861 -0.0488278202 -0.0520964737
v 0.00205649338 -0.0375414852 -0.0630542512
v 0.00219315015 -0.0374048332 -0.0659430928
v 0.00228397332 -0.0486277107 -0.0567266889
v 0.00229862653 -0.0486130623 -0.0527056284
v 0.00240562402 -0.0371923546 -0.0635227938
v 0.00255584202 -0.0483558468 -0.0573302002
v 0.00252086602 -0.048390818 -0.0533093901
v 0.00257790528 -0.0370200733 -0.0664078231
v 0.00283511601 -0.0480765728 -0.0579269094
v 0.0027505251 -0.0481611637 -0.0539075751
v 0.00298753224 -0.0479241566 -0.0545
v 0.00276047669 -0.0368375019 -0.0639826484
v 0.00296833955 -0.036629639 -0.0668629856
v 0.00312170945 -0.0477899746 -0.058516633
v 0.00323181592 -0.0476798729 -0.0550864859
v 0.00312095605 -0.0364770225 -0.0644336743
v 0.00341554127 -0.0474961475 -0.0590991945
v 0.00348329507 -0.047428389 -0.0556668515
v 0.00336432896 -0.0362336544 -0.0673084421
v 0.00348694287 -0.0361110405 -0.0648757334
v 0.00371651135 -0.0471951775 -0.0596744151
v 0.00374190293 -0.0471697906 -0.0562409229
v 0.00376575433 -0.0358322243 -0.0677440567
v 0.00385833226 -0.0357396511 -0.065308692
v 0.00402453862 -0.0468871502 -0.0602421207
v 0.00400755368 -0.0469041351 -0.0568085237
v 0.00417250119 -0.0354254822 -0.0681696959
v 0.004235005 -0.0353629784 -0.065732419
v 0.00433952771 -0.0465721611 -0.060802135
v 0.00428016625 -0.0466315178 -0.057369482
v 0.00466137372 -0.0462503151 -0.061354291
v 0.00455966435 -0.0463520245 -0.057923624
v 0.00458443127 -0.0350135521 -0.0685852356
v 0.00461685143 -0.0349811272 -0.0661467857
v 0.00484595261 -0.0460657314 -0.0584707851
v 0.00498998605 -0.045921698 -0.0618984194
v 0.00513895474 -0.0457727341 -0.0590107985
v 0.00500143014 -0.0345965485 -0.0689905424
v 0.00500375233 -0.034594231 -0.0665516634
v 0.00532526456 -0.0455864242 -0.0624343557
v 0.00543857537 -0.0454731087 -0.0595434947
v 0.00542336903 -0.0341746143 -0.0693854923
v 0.00539559327 -0.0342023853 -0.0669469304
v 0.00566710435 -0.0452445797 -0.0629619331
v 0.0057447239 -0.0451669601 -0.0600687165
v 0.00579225026 -0.0338057331 -0.0673324652
v 0.00585011445 -0.0337478641 -0.0697699709
v 0.00601540528 -0.0448962788 -0.0634809942
v 0.00605730973 -0.0448543838 -0.0605863018
v 0.00619360409 -0.0334043793 -0.0677081509
v 0.00637005769 -0.0445416264 -0.0639913769
v 0.00637623273 -0.0445354561 -0.0610960932
v 0.00628153764 -0.033316441 -0.0701438589
v 0.00673095189 -0.0441807369 -0.0644929309
v 0.00670139752 -0.0442102913 -0.0615979357
v 0.00671751462 -0.0328804687 -0.0705070419
v 0.0065995308 -0.0329984478 -0.0680738754
v 0.00709798775 -0.0438137058 -0.0649855013
v 0.00703270398 -0.0438789848 -0.0620916767
v 0.00700991593 -0.0325880627 -0.0684295244
v 0.00715790234 -0.0324400715 -0.0708594103
v 0.00737005673 -0.0435416321 -0.0625771637
v 0.0074710413 -0.0434406475 -0.0654689379
v 0.00742462121 -0.0321733574 -0.0687749929
v 0.00771335088 -0.0431983379 -0.0630542512
v 0.00760257683 -0.0319954018 -0.0712008495
v 0.00785000287 -0.0430616859 -0.0659430928
v 0.00784352742 -0.0317544464 -0.0691101665
v 0.00806247674 -0.0428492073 -0.0635227938
v 0.008234758 -0.042676926 -0.0664078231
v 0.00805139504 -0.0315465836 -0.0715312691
v 0.00841733418 -0.0424943546 -0.0639826484
v 0.00826651059 -0.0313314728 -0.0694349546
v 0.00862519227 -0.0422864918 -0.0668629856
v 0.00850421868 -0.0310937599 -0.0718505545
v 0.00869343243 -0.0309045509 -0.0697492523
v 0.00877780877 -0.0421338753 -0.0644336743
v 0.00896091901 -0.0306370644 -0.0721586199
v 0.00902118169 -0.0418905071 -0.0673084421
v 0.00914380036 -0.0417678932 -0.0648757334
v 0.00912416898 -0.0304738048 -0.070052969
v 0.00942261182 -0.041489077 -0.0677440567
v 0.0094213482 -0.0301766304 -0.0724553652
v 0.00951518498 -0.0413965038 -0.065308692
v 0.00955859147 -0.0300393871 -0.0703460045
v 0.00982935391 -0.0410823349 -0.0681696959
v 0.00989185773 -0.0410198311 -0.065732419
v 0.00988536797 -0.0297126106 -0.0727406998
v 0.00999656163 -0.0296014217 -0.070628273
v 0.0102412888 -0.0406704048 -0.0685852356
v 0.0102737042 -0.0406379799 -0.0661467857
v 0.01035284 -0.0292451385 -0.0730145378
v 0.0104379459 -0.0291600326 -0.0708996887
v 0.0106582829 -0.0402534012 -0.0689905424
v 0.0106606051 -0.0402510837 -0.0665516634
v 0.0108236214 -0.0287743572 -0.0732767982
v 0.0108826157 -0.0287153629 -0.0711601706
v 0.0110802218 -0.039831467 -0.0693854923
v 0.011052446 -0.039859238 -0.0669469304
v 0.011449103 -0.0394625858 -0.0673324652
v 0.0112975689 -0.0283004097 -0.0735273952
v 0.0113304325 -0.0282675461 -0.0714096375
v 0.0115069672 -0.0394047169 -0.0697699709
v 0.0118504568 -0.039061232 -0.0677081509
v 0.0119383951 -0.0389732937 -0.0701438589
v 0.0117745348 -0.0278234486 -0.0737662621
v 0.0117812582 -0.0278167252 -0.0716480131
v 0.0122349592 -0.0273630241 -0.071875226
v 0.0123743673 -0.0385373215 -0.0705070419
v 0.0122563883 -0.0386553005 -0.0680738754
v 0.012254376 -0.0273436073 -0.0739933176
v 0.0126667687 -0.0382449249 -0.0684295244
v 0.0127369448 -0.0268610386 -0.0742084951
v 0.0126913925 -0.0269065861 -0.0720912046
v 0.0128147598 -0.0380969337 -0.0708594103
v 0.0130814739 -0.0378302101 -0.0687749929
v 0.013222098 -0.0263758854 -0.0744117279
v 0.0131504198 -0.0264475635 -0.072295887
v 0.0132594296 -0.0376522545 -0.0712008495
v 0.0135003849 -0.0374113087 -0.0691101665
v 0.0137082478 -0.0372034363 -0.0715312691
v 0.013709683 -0.0258883003 -0.0746029587
v 0.0136119076 -0.025986071 -0.0724892063
v 0.0139233633 -0.0369883255 -0.0694349546
v 0.0141610762 -0.0367506126 -0.0718505545
v 0.014075708 -0.0255222706 -0.0726711054
v 0.0141995522 -0.0253984264 -0.0747821255
v 0.0143502852 -0.0365614036 -0.0697492523
v 0.0146177717 -0.0362939171 -0.0721586199
v 0.0145416828 -0.0250562958 -0.0728415318
v 0.0146915623 -0.0249064163 -0.0749491711
v 0.0147810265 -0.0361306671 -0.070052969
v 0.0150782009 -0.0358334831 -0.0724553652
v 0.0152154442 -0.0356962398 -0.0703460045
v 0.015009689 -0.0245882896 -0.073000433
v 0.015185556 -0.0244124226 -0.0751040525
v 0.0154795881 -0.0241183952 -0.0731477566
v 0.0155422255 -0.0353694633 -0.0727406998
v 0.0156534144 -0.0352582745 -0.070628273
v 0.0156813856 -0.0239165882 -0.0752467127
v 0.0159512325 -0.0236467461 -0.0732834597
v 0.0160096975 -0.0349019913 -0.0730145378
v 0.0160948034 -0.0348168854 -0.0708996887
v 0.0161789032 -0.0234190754 -0.0753771181
v 0.0164804789 -0.0344312099 -0.0732767982
v 0.0164244791 -0.0231735043 -0.0734075041
v 0.0165394684 -0.0343722156 -0.0711601706
v 0.0166779514 -0.0229200272 -0.0754952211
v 0.0169544216 -0.0339572624 -0.0735273952
v 0.0169872852 -0.0339243988 -0.0714096375
v 0.0168991848 -0.0226987938 -0.0735198469
v 0.0171783825 -0.0224195961 -0.0756009932
v 0.0174313875 -0.0334803013 -0.0737662621
v 0.0174381109 -0.0334735779 -0.0716480131
v 0.0173752018 -0.0222227768 -0.0736204548
v 0.0176800438 -0.0219179348 -0.0756943913
v 0.0179112288 -0.03300046 -0.0739933176
v 0.0178918119 -0.0330198769 -0.071875226
v 0.0178523918 -0.0217455868 -0.0737092991
v 0.018182778 -0.0214151958 -0.0757753963
v 0.0183937975 -0.0325178913 -0.0742084951
v 0.0183482452 -0.0325634388 -0.0720912046
v 0.018330607 -0.0212673763 -0.073786356
v 0.0186864372 -0.0209115414 -0.0758439846
v 0.0188789507 -0.0320327381 -0.0744117279
v 0.0188072773 -0.0321044163 -0.072295887
v 0.0188096949 -0.0207882885 -0.0738515921
v 0.019190869 -0.0204071144 -0.0759001274
v 0.0193665358 -0.031545153 -0.0746029587
v 0.0192687603 -0.0316429237 -0.0724892063
v 0.019289517 -0.0203084663 -0.0739049978
v 0.0197325607 -0.0311791233 -0.0726711054
v 0.019695911 -0.0199020676 -0.0759438105
v 0.0198564097 -0.0310552792 -0.0747821255
v 0.0197699257 -0.0198280529 -0.0739465542
v 0.0201985355 -0.0307131485 -0.0728415318
v 0.0202014204 -0.019396563 -0.0759750242
v 0.020348415 -0.030563269 -0.0749491711
v 0.0202507731 -0.0193472008 -0.0739762421
v 0.0206665464 -0.0302451424 -0.073000433
v 0.020707235 -0.0188907436 -0.0759937544
v 0.0207319161 -0.0188660625 -0.0739940615
v 0.0208424135 -0.0300692753 -0.0751040525
v 0.0211364409 -0.0297752479 -0.0731477566
v 0.0212132021 -0.0183847717 -0.076000001
v 0.0212132021 -0.0183847717 -0.0739999981
v 0.0213382431 -0.0295734505 -0.0752467127
v 0.0216080853 -0.0293035988 -0.0732834597
v 0.021719174 -0.0178788093 -0.0759937544
v 0.0216944929 -0.0179034904 -0.0739940615
v 0.0218357559 -0.0290759281 -0.0753771181
v 0.0220813318 -0.028830357 -0.0734075041
v 0.0222249886 -0.01737299 -0.0759750242
v 0.0221756311 -0.0174223427 -0.0739762421
v 0.0223348089 -0.0285768799 -0.0754952211
v 0.0225560375 -0.0283556465 -0.0735198469
v 0.0227304932 -0.0168674854 -0.0759438105
v 0.0226564785 -0.0169415001 -0.0739465542
v 0.02283524 -0.0280764488 -0.0756009932
v 0.0230320593 -0.0278796295 -0.0736204548
v 0.02323554 -0.0163624386 -0.0759001274
v 0.0231368872 -0.0164610866 -0.0739049978
v 0.0233368965 -0.0275747875 -0.0756943913
v 0.0235092445 -0.0274024395 -0.0737092991
v 0.023739967 -0.0158580116 -0.0758439846
v 0.0236167093 -0.0159812645 -0.0738515921
v 0.0238396355 -0.0270720581 -0.0757753963
v 0.0239874598 -0.026924229 -0.073786356
v 0.0240958019 -0.0155021767 -0.073786356
v 0.0242436262 -0.0153543476 -0.0757753963
v 0.0243432947 -0.0265683941 -0.0758439846
v 0.0244665476 -0.0264451412 -0.0738515921
v 0.0245740124 -0.0150239662 -0.0737092991
v 0.0247463652 -0.0148516182 -0.0756943913
v 0.0248477217 -0.0260639671 -0.0759001274
v 0.0249463698 -0.0259653191 -0.0739049978
v 0.0250512024 -0.0145467762 -0.0736204548
v 0.0252480217 -0.0143499569 -0.0756009932
v 0.0253527685 -0.0255589203 -0.0759438105
v 0.0254267784 -0.0254849056 -0.0739465542
v 0.0255272242 -0.0140707592 -0.0735198469
v 0.0257484528 -0.0138495258 -0.0754952211
v 0.0258582731 -0.0250534157 -0.0759750242
v 0.0259076305 -0.025004063 -0.0739762421
v 0.0260019299 -0.0135960487 -0.0734075041
v 0.0262475058 -0.0133504776 -0.0753771181
v 0.0263640877 -0.0245475964 -0.0759937544
v 0.0263887688 -0.0245229153 -0.0739940615
v 0.0264751764 -0.0131228069 -0.0732834597
v 0.0267450186 -0.0128529648 -0.0752467127
v 0.0268700596 -0.024041634 -0.076000001
v 0.0268700596 -0.024041634 -0.0739999981
v 0.0269468161 -0.0126511578 -0.0731477566
v 0.0272408482 -0.0123571304 -0.0751040525
v 0.0273760267 -0.0235356621 -0.0759937544
v 0.0273513456 -0.0235603432 -0.0739940615
v 0.0274167152 -0.0121812633 -0.073000433
v 0.0277348467 -0.0118631367 -0.0749491711
v 0.0278818413 -0.0230298428 -0.0759750242
v 0.0278324886 -0.0230792049 -0.0739762421
v 0.0278847214 -0.0117132572 -0.0728415318
v 0.028226852 -0.0113711265 -0.0747821255
v 0.0283873507 -0.0225243381 -0.0759438105
v 0.028313336 -0.0225983528 -0.0739465542
v 0.028350701 -0.0112472824 -0.0726711054
v 0.0287167259 -0.0108812527 -0.0746029587
v 0.0288923927 -0.0220192913 -0.0759001274
v 0.0287937447 -0.0221179489 -0.0739049978
v 0.0288145014 -0.010783482 -0.0724892063
v 0.029204311 -0.0103936676 -0.0744117279
v 0.0293968245 -0.0215148643 -0.0758439846
v 0.0292735668 -0.0216381267 -0.0738515921
v 0.0292759844 -0.0103219894 -0.072295887
v 0.0296894642 -0.0099085144 -0.0742084951
v 0.0297350164 -0.00986296691 -0.0720912046
v 0.0299004837 -0.0210112099 -0.0757753963
v 0.0297526547 -0.0211590294 -0.073786356
v 0.0302308699 -0.0206808189 -0.0737092991
v 0.0301720329 -0.00942594566 -0.0739933176
v 0.0301914497 -0.00940652885 -0.071875226
v 0.0304032179 -0.0205084709 -0.0756943913
v 0.0307080551 -0.0202036289 -0.0736204548
v 0.0306518742 -0.00894610442 -0.0737662621
v 0.0306451508 -0.00895282783 -0.0716480131
v 0.0309048792 -0.0200068096 -0.0756009932
v 0.0311840769 -0.0197276119 -0.0735198469
v 0.0310959765 -0.00850200691 -0.0714096375
v 0.0311288401 -0.00846914329 -0.0735273952
v 0.0314053103 -0.0195063785 -0.0754952211
v 0.0316587826 -0.0192529015 -0.0734075041
v 0.0315437933 -0.00805419006 -0.0711601706
v 0.0316027828 -0.00799519576 -0.0732767982
v 0.0319043585 -0.0190073303 -0.0753771181
v 0.0319884583 -0.00760952033 -0.0708996887
v 0.0321320292 -0.0187796596 -0.0732834597
v 0.0320735642 -0.00752441444 -0.0730145378
v 0.0324018713 -0.0185098175 -0.0752467127
v 0.0324298473 -0.00716813125 -0.070628273
v 0.0326036736 -0.01830802 -0.0731477566
v 0.0325410362 -0.00705694236 -0.0727406998
v 0.0328977057 -0.0180139831 -0.0751040525
v 0.0328678175 -0.00673016586 -0.0703460045
v 0.033073568 -0.0178381161 -0.073000433
v 0.0330050608 -0.00659292259 -0.0724553652
v 0.0333916994 -0.0175199894 -0.0749491711
v 0.0333022352 -0.00629573859 -0.070052969
v 0.03346549 -0.00613248863 -0.0721586199
v 0.0335415789 -0.0173701099 -0.0728415318
v 0.0337329718 -0.00586500205 -0.0697492523
v 0.0338837048 -0.0170279793 -0.0747821255
v 0.0339221855 -0.00567579307 -0.0718505545
v 0.0340075537 -0.0169041351 -0.0726711054
v 0.0341598984 -0.00543808021 -0.0694349546
v 0.0343735787 -0.0165381054 -0.0746029587
v 0.0344713541 -0.0164403347 -0.0724892063
v 0.0343750139 -0.00522296943 -0.0715312691
v 0.0345828768 -0.00501509704 -0.0691101665
v 0.0348611637 -0.0160505203 -0.0744117279
v 0.0349328419 -0.0159788517 -0.072295887
v 0.0348238321 -0.00477415122 -0.0712008495
v 0.0350017878 -0.0045961956 -0.0687749929
v 0.0353463169 -0.0155653767 -0.0742084951
v 0.0353918692 -0.0155198196 -0.0720912046
v 0.0352685019 -0.0043294815 -0.0708594103
v 0.035416493 -0.00418149032 -0.0684295244
v 0.0357088944 -0.00388908424 -0.0705070419
v 0.0358288857 -0.0150827984 -0.0739933176
v 0.0358483025 -0.0150633816 -0.071875226
v 0.0358268734 -0.00377110519 -0.0680738754
v 0.0361448666 -0.00345311202 -0.0701438589
v 0.0362328049 -0.00336517371 -0.0677081509
v 0.0363087269 -0.0146029571 -0.0737662621
v 0.0363020035 -0.0146096806 -0.0716480131
v 0.0365762945 -0.00302168884 -0.0697699709
v 0.0366341587 -0.00296381988 -0.0673324652
v 0.0367856928 -0.014125996 -0.0735273952
v 0.0367528292 -0.0141588596 -0.0714096375
v 0.037200646 -0.0137110428 -0.0711601706
v 0.0370030399 -0.00259493865 -0.0693854923
v 0.0370308157 -0.00256716766 -0.0669469304
v 0.0372596403 -0.0136520485 -0.0732767982
v 0.0374249741 -0.00217300452 -0.0689905424
v 0.0374226519 -0.00217532195 -0.0665516634
v 0.0376453157 -0.0132663731 -0.0708996887
v 0.0377304169 -0.0131812672 -0.0730145378
v 0.0378419729 -0.00175600089 -0.0685852356
v 0.0378095575 -0.00178842582 -0.0661467857
v 0.0380867001 -0.012824984 -0.070628273
v 0.0381978937 -0.0127137951 -0.0727406998
v 0.0381913992 -0.00140657462 -0.065732419
v 0.0382539078 -0.00134407081 -0.0681696959
v 0.0385246702 -0.0123870186 -0.0703460045
v 0.0386619135 -0.0122497753 -0.0724553652
v 0.0385680767 -0.00102990665 -0.065308692
v 0.0386606499 -0.000937328713 -0.0677440567
v 0.0389590903 -0.0119526009 -0.070052969
v 0.0389394637 -0.000658517258 -0.0648757334
v 0.0391223427 -0.0117893413 -0.0721586199
v 0.0390620776 -0.000535903352 -0.0673084421
v 0.0393898293 -0.0115218643 -0.0697492523
v 0.0393054505 -0.000292530434 -0.0644336743
v 0.0394580694 -0.000139909165 -0.0668629856
v 0.0395790406 -0.0113326458 -0.0718505545
v 0.0396659275 6.79489204e-05 -0.0639826484
v 0.0398167511 -0.0110949329 -0.0694349546
v 0.0398485013 0.000250520332 -0.0664078231
v 0.040031869 -0.0108798222 -0.0715312691
v 0.0402397319 -0.0106719593 -0.0691101665
v 0.040020785 0.000422806365 -0.0635227938
v 0.0402332588 0.000635280235 -0.0659430928
v 0.0404806849 -0.0104310039 -0.0712008495
v 0.0403699108 0.000771932227 -0.0630542512
v 0.0406586405 -0.0102530483 -0.0687749929
v 0.0406122228 0.0010142418 -0.0654689379
v 0.0407132026 0.0011152216 -0.0625771637
v 0.040925357 -0.00998633422 -0.0708594103
v 0.0409852763 0.00138729535 -0.0649855013
v 0.0410733481 -0.00983834304 -0.0684295244
v 0.0410505553 0.00145257436 -0.0620916767
v 0.0413657471 -0.00954593696 -0.0705070419
v 0.0414837285 -0.00942795791 -0.0680738754
v 0.0413523074 0.00175432645 -0.0644929309
v 0.0413818642 0.00178388558 -0.0615979357
v 0.041713204 0.00211522542 -0.0639913769
v 0.0417070314 0.00210905038 -0.0610960932
v 0.0418017217 -0.00910996475 -0.0701438589
v 0.0418896576 -0.00902202644 -0.0677081509
v 0.0422331472 -0.00867854156 -0.0697699709
v 0.0420678564 0.00246987782 -0.0634809942
v 0.0420259543 0.00242797337 -0.0605863018
v 0.0422910114 -0.0086206726 -0.0673324652
v 0.0423385378 0.0027405592 -0.0600687165
v 0.042416155 0.00281817399 -0.0629619331
v 0.0426598927 -0.00825179137 -0.0693854923
v 0.0426876684 -0.00822402038 -0.0669469304
v 0.0426446863 0.00304670773 -0.0595434947
v 0.0427579971 0.00316001855 -0.0624343557
v 0.0429443046 0.00334632359 -0.0590107985
v 0.0430818316 -0.00782985725 -0.0689905424
v 0.0430795094 -0.00783218421 -0.0665516634
v 0.0430932733 0.00349529229 -0.0618984194
v 0.0432373067 0.00363932572 -0.0584707851
v 0.043498828 -0.00741286315 -0.0685852356
v 0.0434664103 -0.00744527854 -0.0661467857
v 0.043421888 0.00382390938 -0.061354291
v 0.0435235973 0.00392561875 -0.057923624
v 0.0437437364 0.00414575539 -0.060802135
v 0.0439107629 -0.00700092353 -0.0681696959
v 0.0438482543 -0.00706343688 -0.065732419
v 0.0438030931 0.00420511208 -0.057369482
v 0.0442249294 -0.0066867546 -0.065308692
v 0.0440587207 0.00446073971 -0.0602421207
v 0.044075708 0.00447772942 -0.0568085237
v 0.044317505 -0.00659418144 -0.0677440567
v 0.0443413588 0.00474338017 -0.0562409229
v 0.044366748 0.00476876698 -0.0596744151
v 0.0445963164 -0.00631537475 -0.0648757334
v 0.0447189327 -0.00619275131 -0.0673084421
v 0.0446677204 0.00506974183 -0.0590991945
v 0.0445999642 0.00500198327 -0.0556668515
v 0.0449623056 -0.00594938316 -0.0644336743
v 0.0449615499 0.00536356889 -0.058516633
v 0.0448514482 0.00525346719 -0.0550864859
v 0.0451149221 -0.00579676666 -0.0668629856
v 0.0450957295 0.00549775086 -0.0545
v 0.0452481457 0.00565016709 -0.0579269094
v 0.0453227826 -0.0055889038 -0.0639826484
v 0.0453327342 0.00573475323 -0.0539075751
v 0.0455053564 -0.00540633239 -0.0664078231
v 0.0456776377 -0.00523405113 -0.0635227938
v 0.0455274197 0.00592944108 -0.0573302002
v 0.0455623933 0.00596441231 -0.0533093901
v 0.0458901139 -0.00502157249 -0.0659430928
v 0.045799286 0.00620130501 -0.0567266889
v 0.0457846376 0.00618665658 -0.0527056284
v 0.0459993955 0.0064014145 -0.0520964737
v 0.0460267659 -0.00488492049 -0.0630542512
v 0.0460636636 0.00646568261 -0.0561165614
v 0.0462066027 0.00660862408 -0.0514821119
v 0.0462690755 -0.00464261092 -0.0654689379
v 0.0463700577 -0.00454162635 -0.0625771637
v 0.0463204738 0.0067224928 -0.055499999
v 0.0464061972 0.00680821858 -0.0508627291
v 0.046642129 -0.00426956214 -0.0649855013
v 0.0467074104 -0.00420428314 -0.0620916767
v 0.0465696331 0.00697165452 -0.0548771949
v 0.046598117 0.007000136 -0.0502385135
v 0.0468110701 0.00721309148 -0.0542483349
v 0.0467823049 0.00718432389 -0.0496096582
v 0.0469587036 0.00736072503 -0.0489763494
v 0.0470091601 -0.00390253104 -0.0644929309
v 0.0470387193 -0.00387296714 -0.0615979357
v 0.0470447107 0.00744673215 -0.0536136098
v 0.0471272608 0.0075292822 -0.0483387847
v 0.0473700567 -0.00354163207 -0.0639913769
v 0.0473638841 -0.00354780235 -0.0610960932
v 0.0472704812 0.00767250024 -0.0529732175
v 0.0472879239 0.00768994294 -0.0476971574
v 0.0474883147 0.00789033375 -0.0523273487
v 0.0474406453 0.00784266434 -0.0470516629
v 0.0477247091 -0.00318697967 -0.0634809942
v 0.0476828071 -0.00322888412 -0.0605863018
v 0.0475853773 0.00798739873 -0.0464024968
v 0.0476981445 0.00810016595 -0.0516762013
v 0.0477220746 0.00812409363 -0.0457498569
v 0.0479953905 -0.00291629829 -0.0600687165
v 0.0478999086 0.00830193005 -0.0510199757
v 0.0478506991 0.00825272046 -0.0450939424
v 0.0479712077 0.00837322674 -0.0444349535
v 0.0480730101 -0.00283867873 -0.0629619331
v 0.0480935403 0.00849555932 -0.0503588696
v 0.0480835672 0.00848558865 -0.0437730916
v 0.0481877419 0.00858976327 -0.0431085558
v 0.048301539 -0.00261014976 -0.0595434947
v 0.0484148499 -0.00249683418 -0.0624343557
v 0.048278987 0.00868100606 -0.0496930857
v 0.0482836982 0.00868571721 -0.0424415512
v 0.0484561869 0.00885820828 -0.0490228267
v 0.04837141 0.0087734314 -0.0417722793
v 0.0484508463 0.00885286771 -0.0411009438
v 0.0486011597 -0.00231052436 -0.0590107985
v 0.048521988 0.00892400704 -0.0404277511
v 0.0485848113 0.00898683034 -0.0397529049
v 0.0486250897 0.00902710877 -0.0483482952
v 0.0486392971 0.00904131852 -0.0390766103
v 0.0486854287 0.00908744775 -0.0383990736
v 0.0487231918 0.00912521325 -0.0377205021
v 0.0487501284 -0.00216156043 -0.0618984194
v 0.0488941594 -0.002017527 -0.0584707851
v 0.0487856432 0.00918766461 -0.0476696963
v 0.0487525745 0.00915459595 -0.0370411022
v 0.0487735697 0.00917559109 -0.0363610805
v 0.0487861677 0.00918818913 -0.035680644
v 0.0487903687 0.00919239007 -0.0350000001
v 0.0489377972 0.00933981858 -0.0469872398
v 0.0490787407 -0.00183294334 -0.061354291
v 0.0491804524 -0.00173123397 -0.057923624
v 0.049081504 0.00948352299 -0.046301132
v 0.0492167231 0.00961874448 -0.0456115813
v 0.0494005891 -0.00151109733 -0.060802135
v 0.0494599482 -0.00145174064 -0.057369482
v 0.0493434139 0.00974543534 -0.0449187977
v 0.0494615336 0.00986355267 -0.0442229934
v 0.0497155758 -0.00119610824 -0.0602421207
v 0.0497325631 -0.0011791233 -0.0568085237
v 0.0495710512 0.00997307263 -0.0435243793
v 0.0496719285 0.0100739475 -0.0428231688
v 0.0499982139 -0.00091347255 -0.0562409229
v 0.0497641369 0.0101661583 -0.0421195753
v 0.0498476502 0.0102496716 -0.0414138134
v 0.0499224397 0.0103244587 -0.0407060976
v 0.049988484 0.0103905054 -0.0399966426
v 0.0500236007 -0.00088808574 -0.0596744151
v 0.0500457641 0.0104477831 -0.0392856665
v 0.0500942608 0.0104962822 -0.038573385
v 0.0501339599 0.0105359789 -0.0378600152
v 0.0501648494 0.0105668684 -0.0371457739
v 0.0501869198 0.0105889412 -0.0364308794
v 0.0502001663 0.0106021877 -0.0357155485
v 0.0502045818 0.0106066032 -0.0350000001
v 0.0503245755 -0.000587110894 -0.0590991945
v 0.0502568194 -0.000654869454 -0.0556668515
v 0.050618405 -0.000293283837 -0.058516633
v 0.0505083009 -0.000403385537 -0.0550864859
v 0.0509049984 -6.69039993e-06 -0.0579269094
v 0.0507525822 -0.000159106629 -0.0545
v 0.0509895893 7.79005119e-05 -0.0539075751
v 0.0511842724 0.000272583587 -0.0573302002
v 0.0512192484 0.000307559592 -0.0533093901
v 0.0514561411 0.000544452293 -0.0567266889
v 0.0514414903 0.000529803855 -0.0527056284
v 0.0516562482 0.000744561774 -0.0520964737
v 0.0517205187 0.000808829887 -0.0561165614
v 0.0518634554 0.000951766593 -0.0514821119
v 0.0519773265 0.00106564007 -0.055499999
v 0.0520630499 0.00115136109 -0.0508627291
v 0.0522264882 0.0013148018 -0.0548771949
v 0.0522549721 0.00134328328 -0.0502385135
v 0.0524679252 0.00155623875 -0.0542483349
v 0.05243916 0.00152747117 -0.0496096582
v 0.0526155587 0.00170387231 -0.0489763494
v 0.0527015658 0.00178987466 -0.0536136098
v 0.0527841159 0.00187242947 -0.0483387847
v 0.0529273363 0.00201564751 -0.0529732175
v 0.052944779 0.00203309022 -0.0476971574
v 0.0531451698 0.00223348103 -0.0523273487
v 0.0530975004 0.00218581162 -0.0470516629
v 0.05324223 0.00233054124 -0.0464024968
v 0.0533549996 0.00244331322 -0.0516762013
v 0.0533789297 0.00246724091 -0.0457498569
v 0.0535567614 0.00264507256 -0.0510199757
v 0.0535075542 0.00259586297 -0.0450939424
v 0.0536280628 0.00271637402 -0.0444349535
v 0.0537404224 0.00282873116 -0.0437730916
v 0.0537503954 0.0028387066 -0.0503588696
v 0.0538445946 0.00293290578 -0.0431085558
v 0.0539358398 0.00302415333 -0.0496930857
v 0.0539405509 0.00302886449 -0.0424415512
v 0.054113042 0.00320135556 -0.0490228267
v 0.0540282627 0.00311657391 -0.0417722793
v 0.0541077014 0.00319601498 -0.0411009438
v 0.0541788431 0.00326715432 -0.0404277511
v 0.0542416664 0.00332997761 -0.0397529049
v 0.0542819449 0.00337025605 -0.0483482952
v 0.0542961522 0.00338446103 -0.0390766103
v 0.0543422838 0.00343059502 -0.0383990736
v 0.0543800446 0.00346835576 -0.0377205021
v 0.0544094297 0.00349773846 -0.0370411022
v 0.0544424959 0.00353080712 -0.0476696963
v 0.0544304224 0.0035187336 -0.0363610805
v 0.0544430228 0.00353133164 -0.035680644
v 0.0544472214 0.00353553258 -0.0350000001
v 0.0545946499 0.00368296109 -0.0469872398
v 0.0547383591 0.00382667027 -0.046301132
v 0.0548735782 0.00396189175 -0.0456115813
v 0.055000269 0.00408857785 -0.0449187977
v 0.0551183888 0.00420669995 -0.0442229934
v 0.0552279039 0.00431621514 -0.0435243793
v 0.0553287836 0.00441709481 -0.0428231688
v 0.055420992 0.00450930558 -0.0421195753
v 0.0555045029 0.00459281407 -0.0414138134
v 0.0555792948 0.00466760598 -0.0407060976
v 0.0556453391 0.00473364793 -0.0399966426
v 0.0557026168 0.00479093037 -0.0392856665
v 0.0557511159 0.00483942471 -0.038573385
v 0.055790815 0.00487912617 -0.0378600152
v 0.0558217045 0.00491001569 -0.0371457739
v 0.0558437749 0.00493208848 -0.0364308794
v 0.055857019 0.00494533025 -0.0357155485
v 0.0558614346 0.00494974576 -0.0350000001
f 2 23 1
f 69 2 1
f 1 22 6
f 74 1 6
f 1 23 22
f 69 1 74
f 3 24 2
f 70 3 2
f 2 24 23
f 70 2 69
f 25 24 3
f 3 104 25
f 71 3 70
f 71 104 3
f 5 20 4
f 72 5 4
f 4 28 8
f 79 4 8
f 4 20 28
f 72 4 79
f 6 21 5
f 73 6 5
f 5 21 20
f 73 5 72
f 6 22 21
f 74 6 73
f 8 27 7
f 78 8 7
f 7 31 10
f 77 7 10
f 7 27 31
f 78 7 77
f 8 28 27
f 79 8 78
f 10 30 9
f 80 10 9
f 9 32 11
f 84 9 11
f 9 30 32
f 80 9 84
f 10 31 30
f 77 10 80
f 11 35 12
f 83 11 12
f 11 32 35
f 84 11 83
f 12 34 14
f 88 12 14
f 12 35 34
f 83 12 88
f 14 37 13
f 87 14 13
f 13 38 15
f 89 13 15
f 13 37 38
f 87 13 89
f 14 34 37
f 88 14 87
f 15 40 16
f 92 15 16
f 15 38 40
f 89 15 92
f 16 42 17
f 95 16 17
f 16 40 42
f 92 16 95
f 17 43 18
f 94 17 18
f 17 42 43
f 95 17 94
f 18 45 19
f 98 18 19
f 18 43 45
f 94 18 98
f 19 47 26
f 105 19 26
f 19 45 47
f 98 19 105
f 21 100 20
f 20 99 28
f 20 100 99
f 22 101 21
f 21 101 100
f 23 102 22
f 22 102 101
f 24 103 23
f 23 103 102
f 25 104 24
f 24 104 103
f 26 48 29
f 110 26 29
f 26 47 48
f 105 26 110
f 28 107 27
f 27 106 31
f 27 107 106
f 28 99 107
f 29 50 33
f 115 29 33
f 29 48 50
f 110 29 115
f 31 112 30
f 30 111 32
f 30 112 111
f 31 106 112
f 32 113 35
f 32 111 113
f 33 52 36
f 118 33 36
f 33 50 52
f 115 33 118
f 35 117 34
f 34 116 37
f 34 117 116
f 35 113 117
f 36 53 39
f 122 36 39
f 36 52 53
f 118 36 122
f 37 119 38
f 37 116 119
f 38 121 40
f 38 119 121
f 39 55 41
f 126 39 41
f 39 53 55
f 122 39 126
f 40 123 42
f 40 121 123
f 41 57 44
f 131 41 44
f 41 55 57
f 126 41 131
f 42 127 43
f 42 123 127
f 43 128 45
f 43 127 128
f 44 59 46
f 135 44 46
f 44 57 59
f 131 44 135
f 45 132 47
f 45 128 132
f 46 63 49
f 138 46 49
f 46 59 61
f 46 61 63
f 135 46 138
f 47 136 48
f 47 132 136
f 48 137 50
f 48 136 137
f 49 64 51
f 142 49 51
f 49 63 64
f 138 49 142
f 50 139 52
f 50 137 139
f 51 66 54
f 147 51 54
f 51 64 66
f 142 51 147
f 52 143 53
f 52 139 143
f 53 144 55
f 53 143 144
f 54 68 56
f 150 54 56
f 54 66 68
f 147 54 150
f 55 148 57
f 55 144 148
f 56 76 58
f 153 56 58
f 56 68 76
f 150 56 153
f 57 151 59
f 57 148 151
f 58 82 60
f 157 58 60
f 58 76 82
f 153 58 157
f 59 154 61
f 59 151 154
f 60 86 62
f 160 60 62
f 60 82 86
f 157 60 160
f 61 158 63
f 61 154 158
f 62 91 65
f 163 62 65
f 62 86 91
f 160 62 163
f 63 161 64
f 63 158 161
f 64 164 66
f 64 161 164
f 65 93 67
f 168 65 67
f 65 91 93
f 163 65 168
f 66 165 68
f 66 164 165
f 67 97 75
f 171 67 75
f 67 93 97
f 168 67 171
f 68 169 76
f 68 165 169
f 102 70 69
f 101 69 74
f 102 69 101
f 103 71 70
f 103 70 102
f 104 71 103
f 99 73 72
f 107 72 79
f 99 72 107
f 100 74 73
f 100 73 99
f 101 74 100
f 75 109 81
f 175 75 81
f 75 97 109
f 171 75 175
f 76 172 82
f 76 169 172
f 112 78 77
f 111 77 80
f 112 77 111
f 106 79 78
f 106 78 112
f 107 79 106
f 113 80 84
f 111 80 113
f 81 120 85
f 179 81 85
f 81 109 120
f 175 81 179
f 82 176 86
f 82 172 176
f 117 84 83
f 116 83 88
f 117 83 116
f 113 84 117
f 85 125 90
f 183 85 90
f 85 120 125
f 179 85 183
f 86 180 91
f 86 176 180
f 119 88 87
f 121 87 89
f 119 87 121
f 116 88 119
f 123 89 92
f 121 89 123
f 90 130 96
f 185 90 96
f 90 125 130
f 183 90 185
f 91 184 93
f 91 180 184
f 127 92 95
f 123 92 127
f 93 186 97
f 93 184 186
f 128 95 94
f 132 94 98
f 128 94 132
f 127 95 128
f 96 134 108
f 190 96 108
f 96 130 134
f 185 96 190
f 97 189 109
f 97 186 189
f 136 98 105
f 132 98 136
f 137 105 110
f 136 105 137
f 108 141 114
f 194 108 114
f 108 134 141
f 190 108 194
f 109 191 120
f 109 189 191
f 139 110 115
f 137 110 139
f 114 146 124
f 198 114 124
f 114 141 146
f 194 114 198
f 143 115 118
f 139 115 143
f 144 118 122
f 143 118 144
f 120 195 125
f 120 191 195
f 148 122 126
f 144 122 148
f 124 149 129
f 202 124 129
f 124 146 149
f 198 124 202
f 125 199 130
f 125 195 199
f 151 126 131
f 148 126 151
f 129 155 133
f 205 129 133
f 129 149 155
f 202 129 205
f 130 203 134
f 130 199 203
f 154 131 135
f 151 131 154
f 133 159 140
f 208 133 140
f 133 155 159
f 205 133 208
f 134 206 141
f 134 203 206
f 161 135 138
f 154 135 158
f 158 135 161
f 164 138 142
f 161 138 164
f 140 166 145
f 212 140 145
f 140 159 166
f 208 140 212
f 141 209 146
f 141 206 209
f 165 142 147
f 164 142 165
f 145 170 152
f 217 145 152
f 145 166 170
f 212 145 217
f 146 213 149
f 146 209 213
f 169 147 150
f 165 147 169
f 149 216 155
f 149 213 216
f 172 150 153
f 169 150 172
f 152 174 156
f 221 152 156
f 152 170 174
f 217 152 221
f 176 153 157
f 172 153 176
f 155 219 159
f 155 216 219
f 156 178 162
f 224 156 162
f 156 174 178
f 221 156 224
f 180 157 160
f 176 157 180
f 159 223 166
f 159 219 223
f 184 160 163
f 180 160 184
f 162 182 167
f 228 162 167
f 162 178 182
f 224 162 228
f 186 163 168
f 184 163 186
f 166 226 170
f 166 223 226
f 167 188 173
f 233 167 173
f 167 182 188
f 228 167 233
f 189 168 171
f 186 168 189
f 170 231 174
f 170 226 231
f 191 171 175
f 189 171 191
f 173 193 177
f 236 173 177
f 173 188 193
f 233 173 236
f 174 234 178
f 174 231 234
f 195 175 179
f 191 175 195
f 177 200 181
f 240 177 181
f 177 193 197
f 177 197 200
f 236 177 240
f 178 238 182
f 178 234 238
f 199 179 183
f 195 179 199
f 181 204 187
f 244 181 187
f 181 200 204
f 240 181 244
f 182 241 188
f 182 238 241
f 203 183 185
f 199 183 203
f 206 185 190
f 203 185 206
f 187 211 192
f 248 187 192
f 187 204 211
f 244 187 248
f 188 245 193
f 188 241 245
f 209 190 194
f 206 190 209
f 192 214 196
f 252 192 196
f 192 211 214
f 248 192 252
f 193 249 197
f 193 245 249
f 213 194 198
f 209 194 213
f 196 218 201
f 257 196 201
f 196 214 218
f 252 196 257
f 197 253 200
f 197 249 253
f 216 198 202
f 213 198 216
f 200 254 204
f 200 253 254
f 201 222 207
f 259 201 207
f 201 218 222
f 257 201 259
f 219 202 205
f 216 202 219
f 204 258 211
f 204 254 258
f 223 205 208
f 219 205 223
f 207 227 210
f 263 207 210
f 207 222 227
f 259 207 263
f 226 208 212
f 223 208 226
f 210 230 215
f 269 210 215
f 210 227 230
f 263 210 269
f 211 264 214
f 211 258 264
f 231 212 217
f 226 212 231
f 214 266 218
f 214 264 266
f 215 235 220
f 273 215 220
f 215 230 235
f 269 215 273
f 234 217 221
f 231 217 234
f 218 270 222
f 218 266 270
f 220 239 225
f 275 220 225
f 220 235 239
f 273 220 275
f 238 221 224
f 234 221 238
f 222 274 227
f 222 270 274
f 241 224 228
f 238 224 241
f 225 243 229
f 279 225 229
f 225 239 243
f 275 225 279
f 227 278 230
f 227 274 278
f 245 228 233
f 241 228 245
f 229 247 232
f 283 229 232
f 229 243 247
f 279 229 283
f 230 282 235
f 230 278 282
f 232 251 237
f 287 232 237
f 232 247 251
f 283 232 287
f 249 233 236
f 245 233 249
f 235 286 239
f 235 282 286
f 254 236 240
f 249 236 253
f 253 236 254
f 237 256 242
f 292 237 242
f 237 251 256
f 287 237 292
f 239 288 243
f 239 286 288
f 258 240 244
f 254 240 258
f 242 261 246
f 296 242 246
f 242 256 261
f 292 242 296
f 243 293 247
f 243 288 293
f 264 244 248
f 258 244 264
f 246 262 250
f 299 246 250
f 246 261 262
f 296 246 299
f 247 297 251
f 247 293 297
f 266 248 252
f 264 248 266
f 250 268 255
f 303 250 255
f 250 262 268
f 299 250 303
f 251 301 256
f 251 297 301
f 270 252 257
f 266 252 270
f 255 268 260
f 307 255 260
f 303 255 307
f 256 304 261
f 256 301 304
f 274 257 259
f 270 257 274
f 278 259 263
f 274 259 278
f 260 272 265
f 311 260 265
f 260 268 272
f 307 260 311
f 261 308 262
f 261 304 308
f 262 312 268
f 262 308 312
f 282 263 269
f 278 263 282
f 265 277 267
f 315 265 267
f 265 272 277
f 311 265 315
f 267 280 271
f 319 267 271
f 267 277 280
f 315 267 319
f 268 316 272
f 268 312 316
f 286 269 273
f 282 269 286
f 271 284 276
f 323 271 276
f 271 280 284
f 319 271 323
f 272 320 277
f 272 316 320
f 288 273 275
f 286 273 288
f 293 275 279
f 288 275 293
f 276 289 281
f 328 276 281
f 276 284 289
f 323 276 328
f 277 324 280
f 277 320 324
f 297 279 283
f 293 279 297
f 280 326 284
f 280 324 326
f 281 291 285
f 332 281 285
f 281 289 291
f 328 281 332
f 301 283 287
f 297 283 301
f 284 330 289
f 284 326 330
f 285 295 290
f 337 285 290
f 285 291 295
f 332 285 337
f 304 287 292
f 301 287 304
f 289 334 291
f 289 330 334
f 290 300 294
f 341 290 294
f 290 295 300
f 337 290 341
f 291 338 295
f 291 334 338
f 308 292 296
f 304 292 308
f 294 305 298
f 345 294 298
f 294 300 305
f 341 294 345
f 295 342 300
f 295 338 342
f 312 296 299
f 308 296 312
f 298 309 302
f 349 298 302
f 298 305 309
f 345 298 349
f 316 299 303
f 312 299 316
f 300 346 305
f 300 342 346
f 302 313 306
f 353 302 306
f 302 309 313
f 349 302 353
f 316 303 307
f 305 350 309
f 305 346 350
f 306 313 310
f 357 306 310
f 353 306 357
f 320 307 311
f 316 307 320
f 309 354 313
f 309 350 354
f 310 313 317
f 310 317 314
f 361 310 314
f 357 310 361
f 324 311 315
f 320 311 324
f 313 358 317
f 313 354 358
f 314 317 321
f 314 321 318
f 365 314 318
f 361 314 365
f 326 315 319
f 324 315 326
f 317 362 321
f 317 358 362
f 318 321 325
f 318 325 322
f 369 318 322
f 365 318 369
f 330 319 323
f 326 319 330
f 321 366 325
f 321 362 366
f 322 325 329
f 322 329 327
f 373 322 327
f 369 322 373
f 334 323 328
f 330 323 334
f 325 370 329
f 325 366 370
f 327 329 333
f 327 333 331
f 377 327 331
f 373 327 377
f 338 328 332
f 334 328 338
f 329 374 333
f 329 370 374
f 331 333 336
f 331 336 335
f 381 331 335
f 377 331 381
f 342 332 337
f 338 332 342
f 333 378 336
f 333 374 378
f 335 336 340
f 335 340 339
f 385 335 339
f 381 335 385
f 336 382 340
f 336 378 382
f 346 337 341
f 342 337 346
f 339 340 343
f 389 339 343
f 385 339 389
f 343 340 344
f 340 386 344
f 340 382 386
f 350 341 345
f 346 341 350
f 343 344 347
f 393 343 347
f 389 343 393
f 347 344 348
f 344 390 348
f 344 386 390
f 354 345 349
f 350 345 354
f 347 348 351
f 397 347 351
f 393 347 397
f 351 348 352
f 348 394 352
f 348 390 394
f 358 349 353
f 354 349 358
f 351 352 355
f 401 351 355
f 397 351 401
f 355 352 356
f 352 398 356
f 352 394 398
f 358 353 357
f 355 356 359
f 405 355 359
f 401 355 405
f 359 356 360
f 356 402 360
f 356 398 402
f 358 357 362
f 362 357 361
f 359 360 364
f 410 359 364
f 405 359 410
f 364 360 363
f 360 406 363
f 360 402 406
f 362 361 366
f 366 361 365
f 364 363 368
f 368 363 367
f 363 411 367
f 363 406 411
f 415 364 368
f 410 364 415
f 366 365 370
f 370 365 369
f 368 367 372
f 376 367 371
f 367 412 371
f 372 367 376
f 367 411 412
f 419 368 372
f 415 368 419
f 370 369 374
f 374 369 373
f 380 371 375
f 371 416 375
f 376 371 380
f 371 412 416
f 423 372 376
f 419 372 423
f 374 373 378
f 378 373 377
f 384 375 379
f 375 420 379
f 380 375 384
f 375 416 420
f 427 376 380
f 423 376 427
f 378 377 382
f 382 377 381
f 388 379 383
f 379 424 383
f 384 379 388
f 379 420 424
f 431 380 384
f 427 380 431
f 382 381 386
f 386 381 385
f 392 383 387
f 383 429 387
f 388 383 392
f 383 424 429
f 435 384 388
f 431 384 435
f 386 385 389
f 386 389 390
f 396 387 391
f 387 433 391
f 392 387 396
f 387 429 433
f 439 388 392
f 435 388 439
f 390 389 393
f 390 393 394
f 400 391 395
f 391 437 395
f 396 391 400
f 391 433 437
f 444 392 396
f 439 392 444
f 394 393 397
f 394 397 398
f 404 395 399
f 395 442 399
f 400 395 404
f 395 437 442
f 448 396 400
f 444 396 448
f 398 397 401
f 398 401 402
f 408 399 403
f 399 446 403
f 404 399 408
f 399 442 446
f 452 400 404
f 448 400 452
f 402 401 405
f 402 405 406
f 413 403 407
f 403 449 407
f 408 403 413
f 403 446 449
f 456 404 408
f 452 404 456
f 406 405 410
f 406 410 411
f 417 407 409
f 407 453 409
f 413 407 417
f 407 449 453
f 461 408 413
f 456 408 461
f 426 409 414
f 409 457 414
f 417 409 422
f 422 409 426
f 409 453 457
f 411 410 415
f 411 415 412
f 412 415 419
f 412 423 416
f 412 419 423
f 466 413 417
f 461 413 466
f 430 414 418
f 414 462 418
f 426 414 430
f 414 457 462
f 416 427 420
f 416 423 427
f 470 417 422
f 466 417 470
f 434 418 421
f 418 467 421
f 430 418 434
f 418 462 467
f 420 431 424
f 420 427 431
f 438 421 425
f 421 471 425
f 434 421 438
f 421 467 471
f 475 422 426
f 470 422 475
f 424 435 429
f 424 431 435
f 441 425 428
f 425 472 428
f 438 425 441
f 425 471 472
f 479 426 430
f 475 426 479
f 445 428 432
f 428 478 432
f 441 428 445
f 428 472 478
f 429 439 433
f 429 435 439
f 483 430 434
f 479 430 483
f 450 432 436
f 432 482 436
f 445 432 450
f 432 478 482
f 433 444 437
f 433 439 444
f 487 434 438
f 483 434 487
f 454 436 440
f 436 486 440
f 450 436 454
f 436 482 486
f 437 448 442
f 437 444 448
f 492 438 441
f 487 438 492
f 458 440 443
f 440 490 443
f 454 440 458
f 440 486 490
f 497 441 445
f 492 441 497
f 442 452 446
f 442 448 452
f 460 443 447
f 443 494 447
f 458 443 460
f 443 490 494
f 501 445 450
f 497 445 501
f 446 456 449
f 446 452 456
f 464 447 451
f 447 499 451
f 460 447 464
f 447 494 499
f 449 461 453
f 449 456 461
f 505 450 454
f 501 450 505
f 468 451 455
f 451 502 455
f 464 451 468
f 451 499 502
f 453 466 457
f 453 461 466
f 510 454 458
f 505 454 510
f 473 455 459
f 455 507 459
f 468 455 473
f 455 502 507
f 457 475 462
f 457 466 470
f 457 470 475
f 514 458 460
f 510 458 514
f 476 459 463
f 459 512 463
f 473 459 476
f 459 507 512
f 520 460 464
f 514 460 520
f 462 479 467
f 462 475 479
f 480 463 465
f 463 515 465
f 476 463 480
f 463 512 515
f 522 464 468
f 520 464 522
f 485 465 469
f 465 521 469
f 480 465 485
f 465 515 521
f 467 483 471
f 467 479 483
f 528 468 473
f 522 468 528
f 489 469 474
f 469 525 474
f 485 469 489
f 469 521 525
f 471 487 472
f 471 483 487
f 472 492 478
f 472 487 492
f 533 473 476
f 528 473 533
f 489 474 477
f 474 529 477
f 474 525 529
f 537 476 480
f 533 476 537
f 493 477 481
f 477 534 481
f 489 477 493
f 477 529 534
f 478 497 482
f 478 492 497
f 542 480 485
f 537 480 542
f 496 481 484
f 481 538 484
f 493 481 496
f 481 534 538
f 482 501 486
f 482 497 501
f 500 484 488
f 484 543 488
f 496 484 500
f 484 538 543
f 548 485 489
f 542 485 548
f 486 505 490
f 486 501 505
f 504 488 491
f 488 545 491
f 500 488 504
f 488 543 545
f 552 489 493
f 548 489 552
f 490 510 494
f 490 505 510
f 508 491 495
f 491 551 495
f 504 491 508
f 491 545 551
f 558 493 496
f 552 493 558
f 494 514 499
f 494 510 514
f 511 495 498
f 495 555 498
f 508 495 511
f 495 551 555
f 563 496 500
f 558 496 563
f 516 498 503
f 498 561 503
f 511 498 516
f 498 555 561
f 499 520 502
f 499 514 520
f 567 500 504
f 563 500 567
f 502 522 507
f 502 520 522
f 518 503 506
f 503 564 506
f 516 503 518
f 503 561 564
f 574 504 508
f 567 504 574
f 523 506 509
f 506 571 509
f 518 506 523
f 506 564 571
f 507 528 512
f 507 522 528
f 578 508 511
f 574 508 578
f 527 509 513
f 509 575 513
f 523 509 527
f 509 571 575
f 585 511 516
f 578 511 585
f 512 533 515
f 512 528 533
f 531 513 517
f 513 579 517
f 527 513 531
f 513 575 579
f 515 537 521
f 515 533 537
f 589 516 518
f 585 516 589
f 535 517 519
f 517 586 519
f 531 517 535
f 517 579 586
f 595 518 523
f 589 518 595
f 539 519 524
f 519 590 524
f 535 519 539
f 519 586 590
f 521 542 525
f 521 537 542
f 604 523 527
f 595 523 604
f 541 524 526
f 524 596 526
f 539 524 541
f 524 590 596
f 525 548 529
f 525 542 548
f 546 526 530
f 526 600 530
f 541 526 546
f 526 596 600
f 609 527 531
f 604 527 609
f 529 548 534
f 550 530 532
f 530 608 532
f 546 530 550
f 530 600 608
f 622 531 535
f 609 531 622
f 553 532 536
f 532 615 536
f 550 532 553
f 532 608 615
f 534 552 538
f 534 548 552
f 630 535 539
f 622 535 630
f 556 536 540
f 536 623 540
f 553 536 556
f 536 615 623
f 538 558 543
f 538 552 558
f 634 539 541
f 630 539 634
f 560 540 544
f 540 631 544
f 556 540 560
f 540 623 631
f 638 541 546
f 634 541 638
f 543 563 545
f 543 558 563
f 565 544 547
f 544 635 547
f 560 544 565
f 544 631 635
f 545 567 551
f 545 563 567
f 647 546 550
f 638 546 647
f 568 547 549
f 547 639 549
f 565 547 568
f 547 635 639
f 572 549 554
f 549 642 554
f 568 549 572
f 549 639 642
f 655 550 553
f 647 550 655
f 551 574 555
f 551 567 574
f 657 553 556
f 655 553 657
f 576 554 557
f 554 656 557
f 572 554 576
f 554 642 656
f 555 578 561
f 555 574 578
f 659 556 560
f 657 556 659
f 580 557 559
f 557 658 559
f 576 557 580
f 557 656 658
f 582 559 562
f 559 660 562
f 580 559 582
f 559 658 660
f 662 560 565
f 659 560 662
f 561 585 564
f 561 578 585
f 587 562 566
f 562 661 566
f 582 562 587
f 562 660 661
f 564 589 571
f 564 585 589
f 664 565 568
f 662 565 664
f 591 566 569
f 566 663 569
f 587 566 591
f 566 661 663
f 667 568 572
f 664 568 667
f 591 569 570
f 569 665 570
f 569 663 665
f 593 570 573
f 570 666 573
f 591 570 593
f 570 665 666
f 571 595 575
f 571 589 595
f 669 572 576
f 667 572 669
f 598 573 577
f 573 668 577
f 593 573 598
f 573 666 668
f 575 604 579
f 575 595 604
f 671 576 580
f 669 576 671
f 601 577 581
f 577 670 581
f 598 577 601
f 577 668 670
f 579 609 586
f 579 604 609
f 673 580 582
f 671 580 673
f 605 581 583
f 581 672 583
f 601 581 605
f 581 670 672
f 676 582 587
f 673 582 676
f 610 583 584
f 583 674 584
f 605 583 610
f 583 672 674
f 612 584 588
f 584 675 588
f 610 584 612
f 584 674 675
f 586 622 590
f 586 609 622
f 678 587 591
f 676 587 678
f 618 588 592
f 588 677 592
f 612 588 618
f 588 675 677
f 590 630 596
f 590 622 630
f 680 591 593
f 678 591 680
f 624 592 594
f 592 679 594
f 618 592 624
f 592 677 679
f 683 593 598
f 680 593 683
f 629 594 597
f 594 681 597
f 624 594 629
f 594 679 681
f 596 634 600
f 596 630 634
f 632 597 599
f 597 682 599
f 629 597 632
f 597 681 682
f 685 598 601
f 683 598 685
f 633 599 602
f 599 684 602
f 632 599 633
f 599 682 684
f 600 638 608
f 600 634 638
f 689 601 605
f 685 601 689
f 636 602 603
f 602 686 603
f 633 602 636
f 602 684 686
f 637 603 606
f 603 687 606
f 636 603 637
f 603 686 687
f 691 605 610
f 689 605 691
f 640 606 607
f 606 688 607
f 637 606 640
f 606 687 688
f 641 607 611
f 607 690 611
f 640 607 641
f 607 688 690
f 608 647 615
f 608 638 647
f 693 610 612
f 691 610 693
f 643 611 613
f 611 692 613
f 641 611 643
f 611 690 692
f 698 612 618
f 693 612 698
f 644 613 614
f 613 694 614
f 643 613 644
f 613 692 694
f 645 614 616
f 614 695 616
f 644 614 645
f 614 694 695
f 615 655 623
f 615 647 655
f 646 616 617
f 616 696 617
f 645 616 646
f 616 695 696
f 648 617 619
f 617 697 619
f 646 617 648
f 617 696 697
f 703 618 624
f 698 618 703
f 649 619 620
f 619 699 620
f 648 619 649
f 619 697 699
f 650 620 621
f 620 700 621
f 649 620 650
f 620 699 700
f 651 621 625
f 621 701 625
f 650 621 651
f 621 700 701
f 623 657 631
f 623 655 657
f 707 624 629
f 703 624 707
f 652 625 626
f 625 702 626
f 651 625 652
f 625 701 702
f 653 626 627
f 626 704 627
f 652 626 653
f 626 702 704
f 654 627 628
f 627 705 628
f 653 627 654
f 627 704 705
f 654 628 724
f 628 705 706
f 724 628 706
f 708 629 632
f 707 629 708
f 631 659 635
f 631 657 659
f 709 632 633
f 708 632 709
f 710 633 636
f 709 633 710
f 635 662 639
f 635 659 662
f 711 636 637
f 710 636 711
f 712 637 640
f 711 637 712
f 639 664 642
f 639 662 664
f 713 640 641
f 712 640 713
f 714 641 643
f 713 641 714
f 642 667 656
f 642 664 667
f 715 643 644
f 714 643 715
f 716 644 645
f 715 644 716
f 717 645 646
f 716 645 717
f 718 646 648
f 717 646 718
f 719 648 649
f 718 648 719
f 720 649 650
f 719 649 720
f 721 650 651
f 720 650 721
f 722 651 652
f 721 651 722
f 723 652 653
f 722 652 723
f 724 653 654
f 723 653 724
f 656 669 658
f 656 667 669
f 658 671 660
f 658 669 671
f 660 673 661
f 660 671 673
f 661 676 663
f 661 673 676
f 663 678 665
f 663 676 678
f 665 678 666
f 666 680 668
f 666 678 680
f 668 683 670
f 668 680 683
f 670 685 672
f 670 683 685
f 672 689 674
f 672 685 689
f 674 691 675
f 674 689 691
f 675 693 677
f 675 691 693
f 677 698 679
f 677 693 698
f 679 703 681
f 679 698 703
f 681 707 682
f 681 703 707
f 682 708 684
f 682 707 708
f 684 709 686
f 684 708 709
f 686 710 687
f 686 709 710
f 687 711 688
f 687 710 711
f 688 712 690
f 688 711 712
f 690 713 692
f 690 712 713
f 692 714 694
f 692 713 714
f 694 715 695
f 694 714 715
f 695 716 696
f 695 715 716
f 696 717 697
f 696 716 717
f 697 718 699
f 697 717 718
f 699 719 700
f 699 718 719
f 700 720 701
f 700 719 720
f 701 721 702
f 701 720 721
f 702 722 704
f 702 721 722
f 704 723 705
f 704 722 723
f 705 724 706
f 705 723 724
