v -0.00203874074 -0.023251948 -0.0496700783
v -0.00205807172 -0.0232712742 -0.0494624324
v -0.00208903275 -0.0233022352 -0.0490458698
v -0.00210064851 -0.0233138558 -0.0488370771
v -0.00210968934 -0.0233228966 -0.0486280317
v -0.00211615048 -0.023329353 -0.0484187932
v -0.00212002717 -0.0233332296 -0.0482094283
v -0.0021213194 -0.0233345219 -0.047999999
v -0.00201685391 -0.0232300564 -0.049877214
v -0.00179261647 -0.0230058189 -0.0513076491
v -0.00183218919 -0.0230453964 -0.0511058278
v -0.00186927281 -0.0230824753 -0.0509030623
v -0.00190384351 -0.023117046 -0.0506994123
v -0.0019358965 -0.023149099 -0.0504949398
v -0.00199241124 -0.0232056137 -0.0500837774
v -0.00175055466 -0.0229637571 -0.0515084596
v -0.00155773125 -0.0227709337 -0.0523004146
v -0.00160959683 -0.0228227993 -0.0521042414
v -0.00165903054 -0.022872233 -0.0519068189
v -0.00170602284 -0.0229192253 -0.0517082043
v -0.00150345288 -0.0227166601 -0.0524952788
v -0.00132631741 -0.0225395199 -0.0530714197
v -0.00138772927 -0.0226009317 -0.0528808398
v -0.00144678078 -0.0226599833 -0.0526887746
v -0.00126255952 -0.022475762 -0.0532604547
v -0.00105743371 -0.0222706362 -0.0538177152
v -0.00112809621 -0.0223413035 -0.0536336584
v -0.00119647942 -0.0224096819 -0.053447885
v -0.000831966026 -0.0220451685 -0.0543590302
v -0.000909342391 -0.0221225496 -0.0541804571
v -0.000752396209 -0.0219655987 -0.0545356674
v -0.000586776359 -0.0217999788 -0.0548829169
v -0.000670656783 -0.0218838593 -0.0547103138
v -0.000552587135 -0.0217657896 -0.0500791163
v -0.000577191932 -0.0217903944 -0.0499080892
v -0.000620050056 -0.0218332525 -0.0495643444
v -0.000638293845 -0.0218514963 -0.0493917317
v -0.000668372733 -0.0218815752 -0.0490452857
v -0.000680198295 -0.0218934008 -0.0488715572
v -0.000697416885 -0.0219106194 -0.0485233588
v -0.000702800376 -0.0219160029 -0.0483489938
v -0.000706028564 -0.021919231 -0.0481745238
v -0.000707106216 -0.0219203087 -0.047999999
v -0.000500774009 -0.0217139813 -0.055053422
v -0.000525874717 -0.0217390772 -0.0502495117
v -0.000322532279 -0.0215357348 -0.0553879375
v -0.000412687881 -0.0216258904 -0.0552217813
v -0.000321864707 -0.0215350672 -0.051255681
v -0.000361022575 -0.0215742298 -0.0510901709
v -0.00043318711 -0.0216463896 -0.0507563729
v -0.000466165168 -0.0216793676 -0.0505881901
v -0.000497064216 -0.0217102715 -0.0504192181
v -0.000280670745 -0.0214938732 -0.0514202018
v -3.99633476e-05 -0.0212531658 -0.0558727093
v -0.000136141402 -0.0213493439 -0.0557134504
v -9.57819054e-05 -0.0213089844 -0.0520673676
v -0.0001449915 -0.021358194 -0.0519073124
v -0.000237450225 -0.0214506527 -0.0515836806
v 0.000158219712 -0.0210549828 -0.0561839814
v 0.000179467576 -0.0210337397 -0.0528480954
v 6.3591378e-05 -0.0211496111 -0.052539906
v 8.52622299e-06 -0.0212046763 -0.0523837109
v 0.000240235703 -0.0209729668 -0.052999999
v 0.000363960641 -0.0208492418 -0.0564852805
v 0.000367355721 -0.0208458468 -0.0532991929
v 0.000302873032 -0.0209103294 -0.0531503816
v 0.000469589608 -0.0207436129 -0.0566320772
v 0.000686197655 -0.0205270048 -0.0569177384
v 0.000643349068 -0.0205698582 -0.0538778515
v 0.000501780885 -0.0207114216 -0.053591928
v 0.000716753381 -0.0204964491 -0.0540181513
v 0.000909729379 -0.0203034779 -0.0571925325
v 0.000868707078 -0.0203444954 -0.0542932029
v 0.000791883843 -0.0204213186 -0.0541566153
v 0.00113989867 -0.0200733038 -0.0574561281
v 0.00119251289 -0.0200206944 -0.054819984
v 0.00102736034 -0.0201858469 -0.0545605893
v 0.00137643852 -0.019836764 -0.0577082033
v 0.00136396446 -0.0198492428 -0.0550710673
v 0.00127745666 -0.019935741 -0.0549465842
v 0.00149700202 -0.0197162005 -0.0578298254
v 0.00161905326 -0.0195941492 -0.0579484506
v 0.00154150047 -0.0196716972 -0.0553135366
v 0.00174254455 -0.0194706579 -0.0580640478
v 0.00172492065 -0.0194882818 -0.0555470963
v 0.00186744727 -0.0193457552 -0.0581765766
v 0.00191399612 -0.0192992111 -0.0557714601
v 0.0018187622 -0.0193944355 -0.0556604452
v 0.00199371375 -0.019219484 -0.0582860084
v 0.00218457259 -0.0275139185 -0.0494624324
v 0.00215360679 -0.0275448748 -0.0490458698
v 0.00214199104 -0.0275564953 -0.0488370771
v 0.0021329502 -0.0275655361 -0.0486280317
v 0.00212649383 -0.0275719973 -0.0484187932
v 0.00212261237 -0.027575874 -0.0482094283
v 0.00212132491 -0.0275771662 -0.047999999
v 0.0022257904 -0.0274726959 -0.049877214
v 0.00220389404 -0.0274945875 -0.0496700783
v 0.00212132491 -0.0190918823 -0.0583923049
v 0.00220768966 -0.0190055128 -0.0560901709
v 0.00201057472 -0.0192026278 -0.0558801074
v 0.00241045036 -0.027288036 -0.0511058278
v 0.0023733715 -0.0273251148 -0.0509030623
v 0.0023388008 -0.0273596855 -0.0506994123
v 0.00230674781 -0.0273917385 -0.0504949398
v 0.00225023307 -0.0274482533 -0.0500837774
v 0.00249208488 -0.0272063967 -0.0515084596
v 0.00245002784 -0.0272484585 -0.0513076491
v 0.00238036193 -0.0188328405 -0.0585953708
v 0.002250214 -0.0189629885 -0.0584954376
v 0.00240986861 -0.0188033339 -0.0562903757
v 0.00230815925 -0.0189050385 -0.0561915202
v 0.00268490829 -0.027013578 -0.0523004146
v 0.00263304748 -0.0270654388 -0.0521042414
v 0.002583609 -0.0271148726 -0.0519068189
v 0.00253662147 -0.0271618649 -0.0517082043
v 0.00273918189 -0.0269592997 -0.0524952788
v 0.00264426269 -0.0185689446 -0.0587855287
v 0.00251172103 -0.0187014814 -0.0586920781
v 0.00251277961 -0.0187004229 -0.0563867064
v 0.00272209205 -0.0184911104 -0.0565716739
v 0.0029163269 -0.0267821594 -0.0530714197
v 0.00285491027 -0.0268435713 -0.0528808398
v 0.00279585876 -0.0269026276 -0.0526887746
v 0.00298008003 -0.0267184015 -0.0532604547
v 0.00291268386 -0.0183005186 -0.0589625449
v 0.00282842674 -0.0183847757 -0.0566602535
v 0.00318520583 -0.0265132757 -0.0538177152
v 0.00311453857 -0.026583943 -0.0536336584
v 0.00304616012 -0.0266523262 -0.053447885
v 0.00318532028 -0.018027887 -0.0591262074
v 0.00304430045 -0.0181689068 -0.0568294759
v 0.00341067352 -0.026287808 -0.0543590302
v 0.00333329238 -0.0263651892 -0.0541804571
v 0.0034902481 -0.0262082382 -0.0545356674
v 0.00346182861 -0.0177513786 -0.0592763109
v 0.00332310714 -0.0178900953 -0.0592029662
v 0.00337559737 -0.0178376051 -0.0570630784
v 0.00326420821 -0.0179489943 -0.0569879408
v 0.00348790206 -0.0177253052 -0.0571354551
v 0.00365586318 -0.0260426184 -0.0548829169
v 0.00357198753 -0.0261264988 -0.0547103138
v 0.00369005241 -0.0260084292 -0.0500791163
v 0.00366544761 -0.026033034 -0.0499080892
v 0.00362258949 -0.0260758921 -0.0495643444
v 0.0036043457 -0.0260941359 -0.0493917317
v 0.00357426681 -0.0261242148 -0.0490452857
v 0.00356244125 -0.0261360451 -0.0488715572
v 0.00354522743 -0.0261532589 -0.0485233588
v 0.00353983917 -0.0261586424 -0.0483489938
v 0.00353660621 -0.0261618754 -0.0481745238
v 0.00353553809 -0.026162953 -0.047999999
v 0.00374186553 -0.0259566208 -0.055053422
v 0.00374557533 -0.025952911 -0.0504192181
v 0.00371676482 -0.0259817215 -0.0502495117
v 0.00360142745 -0.0176117798 -0.0593462224
v 0.00360107459 -0.0176121279 -0.0572050495
v 0.00374186553 -0.0174713369 -0.0594126792
v 0.00371509589 -0.0174981114 -0.0572718377
v 0.00392010726 -0.0257783743 -0.0553879375
v 0.00382995643 -0.0258685299 -0.0552217813
v 0.00392077483 -0.0257777067 -0.051255681
v 0.00388161697 -0.0258168694 -0.0510901709
v 0.00380945243 -0.0258890291 -0.0507563729
v 0.00377647437 -0.025922012 -0.0505881901
v 0.00396197356 -0.0257365128 -0.0514202018
v 0.0038831047 -0.0173300978 -0.0594756575
v 0.00382991828 -0.0173832842 -0.0573358054
v 0.00410650291 -0.0255919834 -0.0557134504
v 0.0041468624 -0.0255516239 -0.0520673676
v 0.00409765281 -0.0256008335 -0.0519073124
v 0.00400519408 -0.0256932922 -0.0515836806
v 0.00420268096 -0.0254958054 -0.0558727093
v 0.00416780509 -0.0170453926 -0.0595911093
v 0.00417887725 -0.0170343205 -0.0575105662
v 0.00406184234 -0.0171513554 -0.0574551864
v 0.00440086402 -0.0252976271 -0.0561839814
v 0.00442210235 -0.0252763792 -0.0528480954
v 0.00430623092 -0.0253922506 -0.052539906
v 0.00425116576 -0.0254473158 -0.0523837109
v 0.00448288001 -0.0252156063 -0.052999999
v 0.00445518531 -0.0167580172 -0.0596924419
v 0.00429657974 -0.0169166227 -0.0575630469
v 0.00460660018 -0.0250918814 -0.0564852805
v 0.00460999526 -0.0250884911 -0.0532991929
v 0.00454551734 -0.025152969 -0.0531503816
v 0.00471222915 -0.0249862572 -0.0566320772
v 0.00474442519 -0.0249540659 -0.053591928
v 0.00459977187 -0.0166134306 -0.0597377701
v 0.00453383483 -0.0166793676 -0.0576592584
v 0.00474489249 -0.01646831 -0.0597795267
v 0.0049288372 -0.0247696444 -0.0569177384
v 0.00488598861 -0.0248124977 -0.0538778515
v 0.00481431999 -0.0248841616 -0.0537357635
v 0.00495939292 -0.0247390886 -0.0540181513
v 0.00489050903 -0.0163226982 -0.0598176928
v 0.0048937992 -0.0163193985 -0.0577814765
v 0.00477332153 -0.0164398857 -0.0577437015
v 0.00515236892 -0.0245461174 -0.0571925325
v 0.00511135139 -0.0245871349 -0.0542932029
v 0.00503452338 -0.0246639629 -0.0541566153
v 0.00518303909 -0.0160301634 -0.0598832173
v 0.00501473464 -0.0161984678 -0.0578162713
v 0.00538253822 -0.0243159433 -0.0574561281
v 0.00543515243 -0.0242633339 -0.054819984
v 0.00526999511 -0.0244284864 -0.0545605893
v 0.00532986678 -0.0158833357 -0.0599105544
v 0.00525779762 -0.0159554001 -0.0578768845
v 0.00547700919 -0.0157361981 -0.0599342628
v 0.00561907806 -0.0240794083 -0.0577082033
v 0.005606604 -0.0240918823 -0.0550710673
v 0.00552010574 -0.0241783854 -0.0549465842
v 0.00573964156 -0.02395884 -0.0578298254
v 0.00562441863 -0.0155887838 -0.0599543352
v 0.00550221481 -0.0157109877 -0.0579254622
v 0.00574768104 -0.0154655262 -0.0579619474
v 0.0058616928 -0.0238367935 -0.0579484506
v 0.00578414954 -0.0239143416 -0.0553135366
v 0.00598518409 -0.0237132975 -0.0580640478
v 0.00596756019 -0.0237309214 -0.0555470963
v 0.00591987647 -0.015293326 -0.0599835534
v 0.00587070503 -0.0153424975 -0.0579756398
v 0.00599389114 -0.0152193113 -0.0579862947
v 0.00611008682 -0.0235883995 -0.0581765766
v 0.00615663566 -0.0235418507 -0.0557714601
v 0.00606141128 -0.0236370798 -0.0556604452
v 0.00623636283 -0.0234621283 -0.0582860084
v 0.00606782951 -0.015145373 -0.0599926896
v 0.00611718215 -0.0150960203 -0.0579939075
v 0.00621586837 -0.0149973293 -0.0599981732
v 0.00624054946 -0.0149726482 -0.0579984779
v 0.00636396446 -0.0233345219 -0.0583923049
v 0.00625321426 -0.0234452673 -0.0558801074
v 0.00649285354 -0.023205628 -0.0584954376
v 0.0064503292 -0.0232481524 -0.0560901709
v 0.00636396446 -0.0148492428 -0.0599999995
v 0.00636396446 -0.0148492428 -0.057999999
v 0.00662300147 -0.0230754801 -0.0585953708
v 0.00665250816 -0.0230459734 -0.0562903757
v 0.00655080833 -0.0231476828 -0.0561915202
v 0.00688690223 -0.0228115841 -0.0587855287
v 0.00675436057 -0.022944121 -0.0586920781
v 0.00675541915 -0.0229430624 -0.0563867064
v 0.00696473159 -0.02273375 -0.0565716739
v 0.0071553234 -0.0225431582 -0.0589625449
v 0.00707106628 -0.0226274153 -0.0566602535
v 0.00742795982 -0.0222705265 -0.0591262074
v 0.00728694 -0.0224115463 -0.0568294759
v 0.00756574668 -0.0221327349 -0.0592029662
v 0.00761823692 -0.0220802446 -0.0570630784
v 0.00750684776 -0.0221916338 -0.0569879408
v 0.00770446815 -0.0219940182 -0.0592763109
v 0.0077305416 -0.0219679447 -0.0571354551
v 0.00784406699 -0.0218544193 -0.0593462224
v 0.00784371413 -0.0218547674 -0.0572050495
v 0.00798450507 -0.0217139813 -0.0594126792
v 0.00795773544 -0.0217407509 -0.0572718377
v 0.00812574424 -0.0215727373 -0.0594756575
v 0.00807255782 -0.0216259285 -0.0573358054
v 0.00841044463 -0.0212880369 -0.0595911093
v 0.00842152633 -0.0212769648 -0.0575105662
v 0.00830449142 -0.0213939997 -0.0574551864
v 0.00869782485 -0.0210006567 -0.0596924419
v 0.00853921928 -0.0211592623 -0.0575630469
v 0.00884241142 -0.0208560701 -0.0597377701
v 0.00877647437 -0.020922012 -0.0576592584
v 0.00898753204 -0.0207109495 -0.0597795267
v 0.00913314857 -0.0205653378 -0.0598176928
v 0.00913644828 -0.0205620428 -0.0577814765
v 0.00901596107 -0.0206825253 -0.0577437015
v 0.00942567863 -0.0202728077 -0.0598832173
v 0.00925737418 -0.0204411074 -0.0578162713
v 0.00957250633 -0.02012598 -0.0599105544
v 0.00950044669 -0.0201980396 -0.0578768845
v 0.00971964874 -0.0199788376 -0.0599342628
v 0.00974485435 -0.0199536272 -0.0579254622
v 0.00986705817 -0.0198314234 -0.0599543352
v 0.00986747779 -0.0198310133 -0.05794522
v 0.00999032058 -0.0197081657 -0.0579619474
v 0.010162516 -0.0195359703 -0.0599835534
v 0.0101133446 -0.019585137 -0.0579756398
v 0.0102365307 -0.0194619556 -0.0579862947
v 0.010310469 -0.0193880173 -0.0599926896
v 0.0103598217 -0.0193386599 -0.0579939075
v 0.0104585174 -0.0192399736 -0.0599981732
v 0.0104831985 -0.0192152926 -0.0579984779
v 0.0106136707 -0.0190848108 -0.0599999948
v 0.010606604 -0.0190918823 -0.057999999
v 0.0120208172 -0.00919239007 -0.0599999995
v 0.0120137409 -0.00919946156 -0.0579999967
v 0.0122923092 -0.00892089329 -0.0599966497
v 0.0122676281 -0.00894557439 -0.0579969544
v 0.0125637249 -0.00864947758 -0.059986598
v 0.0125143722 -0.008698835 -0.0579878159
v 0.0128349689 -0.00837823354 -0.0599698491
v 0.0127609543 -0.0084522482 -0.0579725904
v 0.0131059746 -0.00810723267 -0.0599464102
v 0.013007317 -0.00820588074 -0.0579512806
v 0.0133766369 -0.00783656083 -0.0599162836
v 0.013253384 -0.00795981847 -0.0579238935
v 0.0134990696 -0.00771413289 -0.0578904386
v 0.0136468986 -0.0075663086 -0.0598794813
v 0.0137443069 -0.00746889554 -0.0578509231
v 0.013916655 -0.00729654752 -0.0598360152
v 0.0139890198 -0.00722418271 -0.0578053613
v 0.0141858391 -0.0070273634 -0.0597858973
v 0.0142331318 -0.00698007069 -0.0577537675
v 0.0144543652 -0.00675883733 -0.0597291441
v 0.0144765667 -0.00673663102 -0.057696156
v 0.0147221474 -0.00649105511 -0.0596657701
v 0.0147192577 -0.00649393998 -0.0576325436
v 0.0149611286 -0.00625207387 -0.0575629516
v 0.0149891094 -0.00622409783 -0.059595799
v 0.015202103 -0.00601109944 -0.0574874015
v 0.0152551655 -0.00595804177 -0.0595192475
v 0.0154421047 -0.00577109776 -0.0574059148
v 0.0155202297 -0.00569297276 -0.059436142
v 0.0156810669 -0.00553213559 -0.0573185177
v 0.0157842354 -0.0054289671 -0.0593465061
v 0.0159189133 -0.00529428921 -0.057225234
v 0.0160470966 -0.00516611062 -0.0592503686
v 0.0161555771 -0.00505763016 -0.0571260948
v 0.0162634567 -0.0134350296 -0.0599999995
v 0.0162563805 -0.0134421011 -0.0579999967
v 0.0163087276 -0.00490447484 -0.059147758
v 0.0163909725 -0.00482222996 -0.057021131
v 0.0165349487 -0.0131635328 -0.0599966497
v 0.0165102676 -0.0131882139 -0.0579969544
v 0.0165690521 -0.00464415036 -0.0590387053
v 0.0166250423 -0.00458816014 -0.0569103713
v 0.0168063644 -0.0128921219 -0.059986598
v 0.0167570118 -0.0129414745 -0.0579878159
v 0.0168279938 -0.00438521348 -0.058923244
v 0.0168577103 -0.00435549222 -0.0567938514
v 0.0170776085 -0.0126208731 -0.0599698491
v 0.0170035938 -0.0126948877 -0.0579725904
v 0.017249966 -0.0124485251 -0.0579512806
v 0.0170854668 -0.00412773572 -0.0588014097
v 0.0170889 -0.00412429772 -0.0566716094
v 0.0173486141 -0.0123498722 -0.0599464102
v 0.0174960236 -0.0122024628 -0.0579238935
v 0.0173414043 -0.00387180291 -0.0586732383
v 0.0173185543 -0.00389465295 -0.0565436764
v 0.0176192764 -0.0120792051 -0.0599162836
v 0.0177417091 -0.0119567724 -0.0578904386
v 0.0175957111 -0.00361749135 -0.0585387702
v 0.0175465874 -0.00366661511 -0.0564100976
v 0.0178895382 -0.0118089481 -0.0598794813
v 0.0179869465 -0.0117115351 -0.0578509231
v 0.0178483299 -0.00336487733 -0.0583980436
v 0.017772942 -0.00344026528 -0.0562709088
v 0.0179975418 -0.00321566544 -0.0561261554
v 0.0181592945 -0.0115391871 -0.0598360152
v 0.0182316593 -0.0114668222 -0.0578053613
v 0.0180991653 -0.00311403714 -0.0582511063
v 0.0182203201 -0.00299288235 -0.0559758801
v 0.0184284786 -0.0112700029 -0.0597858973
v 0.0184757713 -0.0112227102 -0.0577537675
v 0.0183481506 -0.00286505185 -0.058098001
v 0.0184412102 -0.00277199231 -0.0558201308
v 0.0186970047 -0.0110014816 -0.0597291441
v 0.0187192158 -0.0109792706 -0.057696156
v 0.0185952095 -0.00261799298 -0.0579387708
v 0.0186601452 -0.0025530573 -0.0556589527
v 0.0189647869 -0.0107336994 -0.0596657701
v 0.0189619068 -0.0107365843 -0.0576325436
v 0.0188402656 -0.00237293206 -0.057773468
v 0.0188770584 -0.00233614407 -0.0554923935
v 0.019231749 -0.0104667374 -0.059595799
v 0.0192037682 -0.0104947134 -0.0575629516
v 0.0190832523 -0.00212995492 -0.0576021428
v 0.0190918831 -0.0021213194 -0.055320508
v 0.0194447426 -0.010253739 -0.0574874015
v 0.019497805 -0.0102006813 -0.0595192475
v 0.0193240742 -0.00188912354 -0.0574248476
v 0.0193045525 -0.00190865002 -0.0551433463
v 0.0196847443 -0.0100137373 -0.0574059148
v 0.0195626835 -0.001650519 -0.0572416325
v 0.0195150093 -0.00169819794 -0.0549609609
v 0.0197231773 -0.00149002991 -0.0547734113
v 0.0197628693 -0.0099356123 -0.059436142
v 0.0199237064 -0.00977477513 -0.0573185177
v 0.0197989944 -0.00141421281 -0.0570525594
v 0.0199289993 -0.00128420792 -0.0545807524
v 0.0200268749 -0.00967160664 -0.0593465061
v 0.0201615528 -0.00953692876 -0.057225234
v 0.0200329307 -0.0011802765 -0.0568576808
v 0.0201324085 -0.00108079396 -0.0543830414
v 0.0202897362 -0.00940875016 -0.0592503686
v 0.0203982166 -0.00930026971 -0.0571260948
v 0.0202644257 -0.000948776824 -0.0566570587
v 0.0203333572 -0.000879850013 -0.0541803403
v 0.0204934124 -0.000719794852 -0.0564507527
v 0.0205513672 -0.00914711915 -0.059147758
v 0.0206336121 -0.00906486951 -0.057021131
v 0.0205317692 -0.000681438071 -0.0539727111
v 0.0207198147 -0.000493387801 -0.0562388272
v 0.0207275871 -0.000485620124 -0.0537602158
v 0.0208116917 -0.00888679467 -0.0590387053
v 0.0208676819 -0.00883079968 -0.0569103713
v 0.0209435753 -0.000269631965 -0.0560213442
v 0.0209207539 -0.000292453391 -0.0535429187
v 0.0210706333 -0.00862785302 -0.058923244
v 0.0211003498 -0.00859813176 -0.0567938514
v 0.0211646084 -4.85941002e-05 -0.0557983727
v 0.0211112026 -0.000101999862 -0.053320889
v 0.0213281063 -0.00837037526 -0.0588014097
v 0.0213315395 -0.00836694203 -0.0566716094
v 0.0213828567 0.000169654267 -0.0555699821
v 0.0212988953 8.56880119e-05 -0.0530941911
v 0.0214837555 0.000270548241 -0.0528628964
v 0.0215840439 -0.00811444245 -0.0586732383
v 0.0215611938 -0.00813729249 -0.0565436764
v 0.0215982632 0.000385055917 -0.0553362365
v 0.0216657261 0.000452523606 -0.0526270742
v 0.0218383507 -0.00786013089 -0.0585387702
v 0.0217892269 -0.00790925465 -0.0564100976
v 0.0218107418 0.000597539323 -0.0550972123
v 0.0218447689 0.000631566422 -0.052386796
v 0.0220909695 -0.00760751687 -0.0583980436
v 0.0220155815 -0.00768290482 -0.0562709088
v 0.0222401813 -0.00745830498 -0.0561261554
v 0.022020245 0.000807042496 -0.0548529787
v 0.0220208172 0.000807609933 -0.0521421356
v 0.0221938137 0.000980611222 -0.051893167
v 0.0222266964 0.00101349391 -0.0546036119
v 0.0223418049 -0.00735667668 -0.0582511063
v 0.0224629597 -0.00723552666 -0.0559758801
v 0.0224300484 0.00121684112 -0.0543491859
v 0.0223637203 0.00115051307 -0.0516399665
v 0.0225907902 -0.00710769139 -0.058098001
v 0.0226838497 -0.00701463185 -0.0558201308
v 0.0226302246 0.00141701736 -0.0540897818
v 0.0225304703 0.00131726302 -0.0513826127
v 0.0226940159 0.00148081817 -0.0511211796
v 0.022837849 -0.00686063252 -0.0579387708
v 0.0229027847 -0.00679569684 -0.0556589527
v 0.0228271679 0.00161396064 -0.0538254757
v 0.022854319 0.00164111175 -0.0508557529
v 0.0230829147 -0.00661557637 -0.057773468
v 0.0231196979 -0.00657878361 -0.0554923935
v 0.0230208115 0.00180761375 -0.0535563488
v 0.0232111172 0.00199790992 -0.0532824845
v 0.0230113224 0.00179811515 -0.0505864067
v 0.0231649689 0.00195177116 -0.0503132291
v 0.0233258919 -0.00637259446 -0.0576021428
v 0.0233345226 -0.00636395894 -0.055320508
v 0.0233980087 0.00218480148 -0.0530039639
v 0.0233152298 0.00210202255 -0.0500363011
v 0.023462048 0.00224884071 -0.0497557039
v 0.0235667232 -0.00613176308 -0.0574248476
v 0.023547192 -0.00615128957 -0.0551433463
v 0.0235814384 0.00236823119 -0.0527208729
v 0.0236053757 0.00239216842 -0.0494715281
v 0.0237451748 0.00253197707 -0.049183857
v 0.023805323 -0.00589316331 -0.0572416325
v 0.0237576488 -0.00594083749 -0.0549609609
v 0.0239658169 -0.00573266946 -0.0547734113
v 0.0237613396 0.00254814185 -0.0524332995
v 0.0239376739 0.0027244667 -0.0521413274
v 0.0238814072 0.00266820945 -0.0488927813
v 0.024041634 -0.00565685235 -0.0570525594
v 0.0241716389 -0.00552684746 -0.0545807524
v 0.0241103653 0.00289716758 -0.0518450494
v 0.0240140251 0.0028008274 -0.0485983844
v 0.0241429905 0.00292979278 -0.0483007617
v 0.0242755703 -0.00542291604 -0.0568576808
v 0.0243750481 -0.0053234335 -0.0543830414
v 0.024279385 0.00306617774 -0.0515445514
v 0.0244446663 0.00323146858 -0.0512399311
v 0.0242682651 0.0030550579 -0.047999999
v 0.0243898014 0.00317660369 -0.0476961918
v 0.0245070652 -0.00519142113 -0.0566570587
v 0.0245759968 -0.00512248955 -0.0541803403
v 0.0247360519 -0.00496243439 -0.0564507527
v 0.0246061615 0.00339296378 -0.0509312744
v 0.0245075802 0.00329437293 -0.0473894305
v 0.0246215538 0.00340834655 -0.0470798106
v 0.0247316841 0.00351847686 -0.0467674227
v 0.0247744087 -0.00492407761 -0.0539727111
v 0.0249624542 -0.00473602734 -0.0562388272
v 0.0249702267 -0.00472825967 -0.0537602158
v 0.0247638325 0.00355062522 -0.0506186814
v 0.0249176125 0.00370440521 -0.0503022428
v 0.0248379425 0.00362473525 -0.0464523656
v 0.0249403004 0.00372709312 -0.0461347325
v 0.0251862148 -0.00451227151 -0.0560213442
v 0.0251633934 -0.00453509293 -0.0535429187
v 0.0250674633 0.00385426559 -0.0499820585
v 0.0250387196 0.00382551231 -0.0458146222
v 0.0251331715 0.00391997375 -0.0454921324
v 0.0252133469 0.00400013961 -0.0496582241
v 0.025223637 0.00401042976 -0.0451673586
v 0.0254072479 -0.00429123841 -0.0557983727
v 0.0253538422 -0.0043446394 -0.053320889
v 0.0253552059 0.0041420082 -0.0493308372
v 0.025310078 0.0040968708 -0.0448404033
v 0.025392466 0.00417926826 -0.044511363
v 0.0254930118 0.0042798046 -0.0490000005
v 0.0254707817 0.00425758399 -0.0441803403
v 0.0256254963 -0.00407298527 -0.0555699821
v 0.0255415348 -0.00415695153 -0.0530941911
v 0.025726395 -0.0039720913 -0.0528628964
v 0.0256267075 0.00441350021 -0.0486658115
v 0.0255450062 0.00433179893 -0.043847434
v 0.0256151108 0.00440190353 -0.0435127468
v 0.0256810669 0.00446786918 -0.0431763811
v 0.025742865 0.00452966728 -0.0428384383
v 0.0258409027 -0.00385758363 -0.0553362365
v 0.0259083656 -0.00379011594 -0.0526270742
v 0.0257562546 0.00454305686 -0.0483283753
v 0.0258816246 0.00466841735 -0.047987792
v 0.025800486 0.00458728828 -0.0424990208
v 0.0258539108 0.00464070358 -0.0421582336
v 0.0259031204 0.00468991317 -0.0418161805
v 0.0259480957 0.00473489799 -0.0414729638
v 0.0259888367 0.00477563895 -0.0411286898
v 0.0260533813 -0.00364510022 -0.0550972123
v 0.0260874084 -0.00361107789 -0.052386796
v 0.0260027698 0.0047895626 -0.0476441641
v 0.0261196522 0.00490645446 -0.0472976012
v 0.0260253242 0.004812117 -0.040783462
v 0.0260575394 0.00484433212 -0.0404373868
v 0.026085482 0.00487227477 -0.0400905688
v 0.0261091331 0.00489593543 -0.0397431154
v 0.0261285023 0.00491529502 -0.0393951292
v 0.0261435703 0.00493036308 -0.0390467186
v 0.0261543373 0.00494113006 -0.0386979897
v 0.0261607937 0.00494759597 -0.0383490486
v 0.026162949 0.00494975127 -0.0380000002
v 0.026232243 0.00501904525 -0.0469482059
v 0.0262628845 -0.00343560181 -0.0548529787
v 0.0262634567 -0.00343502961 -0.0521421356
v 0.0264364532 -0.00326202832 -0.051893167
v 0.0264693359 -0.00322914563 -0.0546036119
v 0.0263405136 0.00512730636 -0.0465960844
v 0.0264444069 0.00523120918 -0.0462413449
v 0.0266726879 -0.00302579842 -0.0543491859
v 0.0266063599 -0.00309212647 -0.0516399665
v 0.0265439228 0.00533071555 -0.045884095
v 0.0266390041 0.00542579688 -0.0455244429
v 0.0267296318 0.00551642455 -0.0451624997
v 0.0268728641 -0.00282562218 -0.0540897818
v 0.0267731098 -0.00292537175 -0.0513826127
v 0.026936665 -0.00276182137 -0.0511211796
v 0.0268157867 0.00560257949 -0.0447983737
v 0.0268974213 0.00568422355 -0.0444321771
v 0.0269745354 0.00576133765 -0.0440640218
v 0.0270698074 -0.0026286789 -0.0538254757
v 0.0270969585 -0.00260152302 -0.0508557529
v 0.0270470909 0.0058338932 -0.0436940188
v 0.0271150783 0.0059018711 -0.0433222814
v 0.0271784595 0.0059652523 -0.0429489226
v 0.027237225 0.00602401771 -0.0425740571
v 0.0272634605 -0.00243503056 -0.0535563488
v 0.0272539619 -0.00244452439 -0.0505864067
v 0.0274076084 -0.00229087315 -0.0503132291
v 0.0274537567 -0.00224472962 -0.0532824845
v 0.027291346 0.00607814826 -0.042197798
v 0.0273408321 0.00612762489 -0.0418202598
v 0.0273856358 0.00617243804 -0.0414415581
v 0.0274257759 0.00621256866 -0.0410618086
v 0.0274612144 0.0062480072 -0.0406811256
v 0.0274919418 0.00627874412 -0.0402996261
v 0.0276406483 -0.0020578333 -0.0530039639
v 0.0275578693 -0.002140617 -0.0500363011
v 0.0277046875 -0.00199379883 -0.0497557039
v 0.0275179676 0.00630476035 -0.0399174268
v 0.0275392727 0.00632606544 -0.0395346422
v 0.0275558475 0.0063426403 -0.0391513915
v 0.0275676922 0.00635448493 -0.0387677891
v 0.0275747971 0.00636158981 -0.0383839531
v 0.0275771622 0.00636396446 -0.0380000002
v 0.027824078 -0.00187440835 -0.0527208729
v 0.0278480152 -0.00185047112 -0.0494715281
v 0.0279878143 -0.00171066724 -0.049183857
v 0.0280039791 -0.00169450246 -0.0524332995
v 0.0281803135 -0.00151817284 -0.0521413274
v 0.0281240467 -0.00157443486 -0.0488927813
v 0.0283530144 -0.00134547673 -0.0518450494
v 0.0282566647 -0.00144181691 -0.0485983844
v 0.02838563 -0.00131285153 -0.0483007617
v 0.0285220245 -0.00117645703 -0.0515445514
v 0.0286873058 -0.00101117573 -0.0512399311
v 0.0285109047 -0.00118758164 -0.047999999
v 0.0286324505 -0.00106604062 -0.0476961918
v 0.0288488106 -0.000849675758 -0.0509312744
v 0.0287502197 -0.000948266608 -0.0473894305
v 0.0288641933 -0.000834292991 -0.0470798106
v 0.0289743236 -0.000724162681 -0.0467674227
v 0.029006472 -0.00069201432 -0.0506186814
v 0.029160252 -0.000538229568 -0.0503022428
v 0.029080582 -0.00061789952 -0.0464523656
v 0.0291829399 -0.000515546424 -0.0461347325
v 0.0293101124 -0.000388378722 -0.0499820585
v 0.0292813591 -0.000417122466 -0.0458146222
v 0.0293758205 -0.000322670562 -0.0454921324
v 0.0294559864 -0.000242495162 -0.0496582241
v 0.0294662765 -0.000232209785 -0.0451673586
v 0.0295978455 -0.000100636108 -0.0493308372
v 0.0295527176 -0.000145768745 -0.0448404033
v 0.0296351055 -6.33760521e-05 -0.044511363
v 0.0297356514 3.71650627e-05 -0.0490000005
v 0.0297134308 1.49396828e-05 -0.0441803403
v 0.029869347 0.000170860665 -0.0486658115
v 0.0297876457 8.91641548e-05 -0.043847434
v 0.0298577503 0.000159263985 -0.0435127468
v 0.0299237064 0.00022522487 -0.0431763811
v 0.0299988941 0.000300412553 -0.0483283753
v 0.0299855141 0.000287022965 -0.0428384383
v 0.0301242641 0.00042577781 -0.047987792
v 0.0300431255 0.000344643967 -0.0424990208
v 0.0300965504 0.000398068803 -0.0421582336
v 0.03014576 0.000447273629 -0.0418161805
v 0.0301907448 0.000492253678 -0.0414729638
v 0.0302454094 0.000546923058 -0.0476441641
v 0.0302314762 0.000532994645 -0.0411286898
v 0.0303622917 0.000663810151 -0.0472976012
v 0.0302679638 0.000569477456 -0.040783462
v 0.0303001789 0.000601692574 -0.0404373868
v 0.0303281216 0.000629635232 -0.0400905688
v 0.0303517727 0.000653291123 -0.0397431154
v 0.0303711418 0.00067265548 -0.0393951292
v 0.0303862099 0.000687723534 -0.0390467186
v 0.0303969768 0.000698490517 -0.0386979897
v 0.0304034332 0.000704951661 -0.0383490486
v 0.0304055885 0.000707106965 -0.0380000002
v 0.030474892 0.000776400941 -0.0469482059
v 0.0305831531 0.000884666817 -0.0465960844
v 0.030687056 0.000988564866 -0.0462413449
v 0.0307865623 0.00108807601 -0.045884095
v 0.0308816437 0.00118315734 -0.0455244429
v 0.0309722713 0.00127378501 -0.0451624997
v 0.0310584263 0.00135993995 -0.0447983737
v 0.0311400703 0.00144158401 -0.0444321771
v 0.0312171749 0.00151869811 -0.0440640218
v 0.03128974 0.00159125366 -0.0436940188
v 0.0313577179 0.00165923156 -0.0433222814
v 0.0314210991 0.00172261276 -0.0429489226
v 0.0314798645 0.00178137817 -0.0425740571
v 0.031533995 0.00183550872 -0.042197798
v 0.0315834717 0.00188498534 -0.0418202598
v 0.0316282848 0.0019297985 -0.0414415581
v 0.0316684154 0.00196992912 -0.0410618086
v 0.031703854 0.00200536765 -0.0406811256
v 0.0317345814 0.00203610458 -0.0402996261
v 0.0317606071 0.00206212081 -0.0399174268
v 0.0317819122 0.0020834259 -0.0395346422
v 0.0317984871 0.00210000076 -0.0391513915
v 0.0318103317 0.00211184539 -0.0387677891
v 0.0318174366 0.00211895026 -0.0383839531
v 0.0318198017 0.00212132491 -0.0380000002
f 8 1 2
f 1 98 2
f 8 9 1
f 9 97 1
f 1 97 98
f 8 2 3
f 2 90 3
f 2 98 90
f 8 3 4
f 3 91 4
f 3 90 91
f 4 5 8
f 4 92 5
f 4 91 92
f 8 5 6
f 5 93 6
f 5 92 93
f 8 6 7
f 6 94 7
f 6 93 94
f 7 95 8
f 7 94 95
f 15 9 8
f 10 11 8
f 8 16 10
f 8 11 12
f 8 12 13
f 13 14 8
f 8 14 15
f 8 20 16
f 8 17 18
f 21 17 8
f 8 18 19
f 19 20 8
f 8 24 21
f 22 23 8
f 8 25 22
f 8 23 24
f 8 28 25
f 8 26 27
f 8 30 26
f 27 28 8
f 8 29 30
f 8 31 29
f 43 31 8
f 8 152 43
f 8 95 96
f 96 152 8
f 15 106 9
f 9 106 97
f 10 108 11
f 16 107 10
f 10 107 108
f 11 102 12
f 11 108 102
f 12 103 13
f 12 102 103
f 13 104 14
f 13 103 104
f 14 105 15
f 14 104 105
f 15 105 106
f 20 116 16
f 16 116 107
f 17 113 18
f 21 117 17
f 17 117 113
f 18 114 19
f 18 113 114
f 19 115 20
f 19 114 115
f 20 115 116
f 24 124 21
f 21 124 117
f 22 122 23
f 25 125 22
f 22 125 122
f 23 123 24
f 23 122 123
f 24 123 124
f 28 130 25
f 25 130 125
f 26 128 27
f 30 134 26
f 26 134 128
f 27 129 28
f 27 128 129
f 28 129 130
f 29 133 30
f 31 135 29
f 29 135 133
f 30 133 134
f 39 33 31
f 33 142 31
f 39 31 40
f 40 31 41
f 41 31 42
f 42 31 43
f 31 142 135
f 36 32 33
f 32 141 33
f 34 32 35
f 45 32 34
f 35 32 36
f 45 44 32
f 44 153 32
f 32 153 141
f 36 33 37
f 37 33 38
f 38 33 39
f 33 141 142
f 144 34 35
f 143 45 34
f 143 34 144
f 145 35 36
f 144 35 145
f 146 36 37
f 145 36 146
f 147 37 38
f 146 37 147
f 148 38 39
f 147 38 148
f 149 39 40
f 148 39 149
f 150 40 41
f 149 40 150
f 151 41 42
f 150 41 151
f 152 42 43
f 151 42 152
f 52 44 45
f 50 47 44
f 47 161 44
f 50 44 51
f 51 44 52
f 44 161 153
f 155 52 45
f 155 45 143
f 49 46 47
f 46 160 47
f 48 46 49
f 53 46 48
f 58 46 53
f 58 55 46
f 55 169 46
f 46 169 160
f 49 47 50
f 47 160 161
f 163 48 49
f 162 53 48
f 162 48 163
f 164 49 50
f 163 49 164
f 165 50 51
f 164 50 165
f 154 51 52
f 165 51 154
f 154 52 155
f 166 58 53
f 166 53 162
f 56 54 55
f 54 173 55
f 62 54 56
f 62 59 54
f 59 177 54
f 54 177 173
f 56 55 57
f 57 55 58
f 55 173 169
f 171 56 57
f 170 62 56
f 170 56 171
f 172 57 58
f 171 57 172
f 172 58 166
f 60 59 61
f 63 59 60
f 61 59 62
f 63 64 59
f 64 184 59
f 59 184 177
f 179 60 61
f 178 63 60
f 178 60 179
f 180 61 62
f 179 61 180
f 180 62 170
f 66 64 63
f 181 66 63
f 181 63 178
f 65 64 66
f 70 64 65
f 101 67 64
f 67 187 64
f 69 64 70
f 71 64 69
f 74 64 71
f 73 64 74
f 77 64 73
f 76 64 77
f 80 64 76
f 79 64 80
f 83 64 79
f 85 64 83
f 88 64 85
f 87 64 88
f 101 64 87
f 64 187 184
f 186 65 66
f 185 70 65
f 185 65 186
f 186 66 181
f 101 68 67
f 68 192 67
f 67 192 187
f 112 72 68
f 72 199 68
f 100 68 101
f 112 68 100
f 68 199 192
f 194 69 70
f 193 71 69
f 193 69 194
f 188 70 185
f 194 70 188
f 195 74 71
f 195 71 193
f 120 75 72
f 75 204 72
f 111 72 112
f 120 72 111
f 72 204 199
f 201 73 74
f 200 77 73
f 200 73 201
f 201 74 195
f 121 78 75
f 78 210 75
f 121 75 120
f 75 210 204
f 206 76 77
f 205 80 76
f 205 76 206
f 206 77 200
f 132 81 78
f 81 213 78
f 127 78 121
f 132 78 127
f 78 213 210
f 212 79 80
f 211 83 79
f 211 79 212
f 212 80 205
f 132 82 81
f 82 217 81
f 81 217 213
f 139 84 82
f 84 219 82
f 139 82 132
f 82 219 217
f 218 85 83
f 218 83 211
f 138 86 84
f 86 224 84
f 138 84 139
f 84 224 219
f 220 88 85
f 220 85 218
f 140 89 86
f 89 227 86
f 140 86 138
f 86 227 224
f 226 87 88
f 225 101 87
f 225 87 226
f 226 88 220
f 157 99 89
f 99 232 89
f 157 89 140
f 89 232 227
f 90 96 91
f 98 96 90
f 91 96 92
f 92 96 93
f 93 96 94
f 94 96 95
f 97 96 98
f 106 96 97
f 102 96 103
f 108 96 102
f 103 96 104
f 104 96 105
f 105 96 106
f 107 96 108
f 116 96 107
f 113 96 114
f 117 96 113
f 114 96 115
f 115 96 116
f 124 96 117
f 122 96 123
f 125 96 122
f 123 96 124
f 130 96 125
f 128 96 129
f 134 96 128
f 129 96 130
f 133 96 134
f 135 96 133
f 152 96 135
f 159 110 99
f 110 234 99
f 159 99 157
f 99 234 232
f 233 100 101
f 235 112 100
f 235 100 233
f 233 101 225
f 168 109 110
f 109 238 110
f 168 119 109
f 119 242 109
f 109 242 238
f 168 110 159
f 110 238 234
f 240 111 112
f 239 120 111
f 239 111 240
f 240 112 235
f 168 118 119
f 118 241 119
f 176 126 118
f 126 245 118
f 176 118 168
f 118 245 241
f 119 241 242
f 243 121 120
f 243 120 239
f 244 127 121
f 244 121 243
f 183 131 126
f 131 247 126
f 175 126 176
f 183 126 175
f 126 247 245
f 246 132 127
f 246 127 244
f 190 137 131
f 137 249 131
f 190 131 183
f 131 249 247
f 248 139 132
f 248 132 246
f 142 148 135
f 135 148 149
f 149 150 135
f 135 150 151
f 135 151 152
f 190 136 137
f 136 252 137
f 198 156 136
f 156 254 136
f 198 136 190
f 136 254 252
f 137 252 249
f 251 138 139
f 250 140 138
f 250 138 251
f 251 139 248
f 253 157 140
f 253 140 250
f 141 145 142
f 141 143 144
f 141 155 143
f 144 145 141
f 153 155 141
f 142 145 146
f 146 147 142
f 142 147 148
f 154 155 153
f 153 165 154
f 161 164 153
f 153 164 165
f 198 158 156
f 158 256 156
f 156 256 254
f 255 159 157
f 255 157 253
f 197 167 158
f 167 258 158
f 197 158 198
f 158 258 256
f 257 168 159
f 257 159 255
f 160 163 161
f 162 163 160
f 160 166 162
f 160 172 166
f 169 172 160
f 161 163 164
f 203 174 167
f 174 260 167
f 203 167 197
f 167 260 258
f 259 176 168
f 259 168 257
f 169 170 171
f 173 170 169
f 169 171 172
f 173 180 170
f 177 180 173
f 203 182 174
f 182 263 174
f 174 263 260
f 262 175 176
f 261 183 175
f 261 175 262
f 262 176 259
f 177 178 179
f 177 181 178
f 177 179 180
f 184 181 177
f 184 186 181
f 208 189 182
f 189 265 182
f 208 182 203
f 182 265 263
f 264 190 183
f 264 183 261
f 185 186 184
f 184 188 185
f 187 233 184
f 194 188 184
f 184 193 194
f 184 195 193
f 201 195 184
f 184 200 201
f 206 200 184
f 184 205 206
f 212 205 184
f 184 211 212
f 218 211 184
f 184 220 218
f 226 220 184
f 184 225 226
f 184 233 225
f 192 233 187
f 215 191 189
f 191 267 189
f 215 189 208
f 189 267 265
f 266 198 190
f 266 190 264
f 215 196 191
f 196 268 191
f 191 268 267
f 199 240 192
f 192 235 233
f 192 240 235
f 215 202 196
f 202 271 196
f 196 271 268
f 270 197 198
f 269 203 197
f 269 197 270
f 270 198 266
f 204 243 199
f 199 239 240
f 199 243 239
f 216 207 202
f 207 273 202
f 216 202 215
f 202 273 271
f 272 208 203
f 272 203 269
f 210 244 204
f 204 244 243
f 222 209 207
f 209 275 207
f 222 207 216
f 207 275 273
f 274 215 208
f 274 208 272
f 223 214 209
f 214 277 209
f 223 209 222
f 209 277 275
f 213 248 210
f 210 246 244
f 210 248 246
f 217 248 213
f 223 221 214
f 221 280 214
f 214 280 277
f 278 216 215
f 276 215 274
f 278 215 276
f 279 222 216
f 279 216 278
f 219 251 217
f 217 251 248
f 224 250 219
f 219 250 251
f 229 221 223
f 229 228 221
f 228 283 221
f 221 283 280
f 281 223 222
f 281 222 279
f 282 229 223
f 282 223 281
f 227 253 224
f 224 253 250
f 232 255 227
f 227 255 253
f 231 228 229
f 231 230 228
f 230 285 228
f 228 285 283
f 284 231 229
f 284 229 282
f 237 230 231
f 236 230 237
f 236 287 230
f 230 287 285
f 286 237 231
f 286 231 284
f 234 257 232
f 232 257 255
f 238 259 234
f 234 259 257
f 236 237 290
f 289 287 236
f 236 290 289
f 288 237 286
f 324 237 288
f 237 324 290
f 242 259 238
f 241 259 242
f 245 262 241
f 241 262 259
f 247 264 245
f 245 261 262
f 245 264 261
f 249 266 247
f 247 266 264
f 252 266 249
f 254 270 252
f 252 270 266
f 256 270 254
f 258 269 256
f 256 269 270
f 260 272 258
f 258 272 269
f 263 272 260
f 265 274 263
f 263 274 272
f 267 276 265
f 265 276 274
f 268 276 267
f 271 278 268
f 268 278 276
f 273 279 271
f 271 279 278
f 275 281 273
f 273 281 279
f 277 282 275
f 275 282 281
f 280 282 277
f 280 284 282
f 283 284 280
f 283 286 284
f 285 286 283
f 285 288 286
f 287 288 285
f 288 287 324
f 323 287 289
f 324 287 323
f 289 290 291
f 327 289 291
f 323 289 327
f 291 290 292
f 290 324 292
f 291 292 293
f 331 291 293
f 327 291 331
f 293 292 294
f 292 328 294
f 292 324 328
f 293 294 295
f 335 293 295
f 331 293 335
f 295 294 296
f 294 332 296
f 294 328 332
f 295 296 297
f 340 295 297
f 335 295 340
f 297 296 298
f 296 336 298
f 296 332 336
f 297 298 299
f 344 297 299
f 340 297 344
f 299 298 302
f 302 298 300
f 298 337 300
f 298 336 337
f 348 299 302
f 344 299 348
f 304 300 301
f 300 341 301
f 302 300 304
f 300 337 341
f 306 301 303
f 301 345 303
f 304 301 306
f 301 341 345
f 353 302 304
f 348 302 353
f 308 303 305
f 303 349 305
f 306 303 308
f 303 345 349
f 357 304 306
f 353 304 357
f 313 305 307
f 305 354 307
f 308 305 310
f 310 305 313
f 305 349 354
f 361 306 308
f 357 306 361
f 315 307 309
f 307 358 309
f 313 307 315
f 307 354 358
f 365 308 310
f 361 308 365
f 317 309 311
f 309 362 311
f 315 309 317
f 309 358 362
f 369 310 313
f 365 310 369
f 319 311 312
f 311 366 312
f 317 311 319
f 311 362 366
f 321 312 314
f 312 370 314
f 319 312 321
f 312 366 370
f 374 313 315
f 369 313 374
f 329 314 316
f 314 373 316
f 321 314 325
f 325 314 329
f 314 370 373
f 381 315 317
f 374 315 381
f 333 316 318
f 316 377 318
f 329 316 333
f 316 373 377
f 385 317 319
f 381 317 385
f 338 318 320
f 318 382 320
f 333 318 338
f 318 377 382
f 389 319 321
f 385 319 389
f 342 320 322
f 320 386 322
f 338 320 342
f 320 382 386
f 394 321 325
f 389 321 394
f 346 322 326
f 322 390 326
f 342 322 346
f 322 386 390
f 324 323 327
f 324 327 328
f 399 325 329
f 394 325 399
f 350 326 330
f 326 395 330
f 346 326 350
f 326 390 395
f 328 327 331
f 328 331 332
f 403 329 333
f 399 329 403
f 355 330 334
f 330 400 334
f 350 330 355
f 330 395 400
f 332 331 335
f 332 335 336
f 407 333 338
f 403 333 407
f 359 334 339
f 334 404 339
f 355 334 359
f 334 400 404
f 336 335 340
f 336 340 337
f 337 340 344
f 337 348 341
f 337 344 348
f 412 338 342
f 407 338 412
f 363 339 343
f 339 408 343
f 359 339 363
f 339 404 408
f 341 353 345
f 341 348 353
f 416 342 346
f 412 342 416
f 367 343 347
f 343 413 347
f 363 343 367
f 343 408 413
f 345 357 349
f 345 353 357
f 420 346 350
f 416 346 420
f 371 347 351
f 347 417 351
f 367 347 371
f 347 413 417
f 349 361 354
f 349 357 361
f 427 350 355
f 420 350 427
f 375 351 352
f 351 421 352
f 371 351 375
f 351 417 421
f 378 352 356
f 352 422 356
f 375 352 378
f 352 421 422
f 354 369 358
f 354 361 365
f 354 365 369
f 431 355 359
f 427 355 431
f 383 356 360
f 356 428 360
f 378 356 383
f 356 422 428
f 358 374 362
f 358 369 374
f 436 359 363
f 431 359 436
f 387 360 364
f 360 432 364
f 383 360 387
f 360 428 432
f 362 381 366
f 362 374 381
f 440 363 367
f 436 363 440
f 391 364 368
f 364 437 368
f 387 364 391
f 364 432 437
f 366 385 370
f 366 381 385
f 446 367 371
f 440 367 446
f 393 368 372
f 368 441 372
f 391 368 393
f 368 437 441
f 370 389 373
f 370 385 389
f 451 371 375
f 446 371 451
f 397 372 376
f 372 447 376
f 393 372 397
f 372 441 447
f 373 399 377
f 373 389 394
f 373 394 399
f 456 375 378
f 451 375 456
f 401 376 379
f 376 452 379
f 397 376 401
f 376 447 452
f 377 403 382
f 377 399 403
f 462 378 383
f 456 378 462
f 405 379 380
f 379 457 380
f 401 379 405
f 379 452 457
f 409 380 384
f 380 458 384
f 405 380 409
f 380 457 458
f 382 407 386
f 382 403 407
f 467 383 387
f 462 383 467
f 414 384 388
f 384 463 388
f 409 384 414
f 384 458 463
f 386 412 390
f 386 407 412
f 473 387 391
f 467 387 473
f 418 388 392
f 388 468 392
f 414 388 418
f 388 463 468
f 390 416 395
f 390 412 416
f 475 391 393
f 473 391 475
f 423 392 396
f 392 474 396
f 418 392 423
f 392 468 474
f 481 393 397
f 475 393 481
f 395 420 400
f 395 416 420
f 426 396 398
f 396 480 398
f 423 396 426
f 396 474 480
f 487 397 401
f 481 397 487
f 429 398 402
f 398 482 402
f 426 398 429
f 398 480 482
f 400 427 404
f 400 420 427
f 494 401 405
f 487 401 494
f 433 402 406
f 402 488 406
f 429 402 433
f 402 482 488
f 404 431 408
f 404 427 431
f 501 405 409
f 494 405 501
f 438 406 410
f 406 495 410
f 433 406 438
f 406 488 495
f 408 436 413
f 408 431 436
f 509 409 414
f 501 409 509
f 442 410 411
f 410 502 411
f 438 410 442
f 410 495 502
f 443 411 415
f 411 503 415
f 442 411 443
f 411 502 503
f 413 440 417
f 413 436 440
f 518 414 418
f 509 414 518
f 448 415 419
f 415 510 419
f 443 415 448
f 415 503 510
f 417 446 421
f 417 440 446
f 532 418 423
f 518 418 532
f 453 419 424
f 419 519 424
f 448 419 453
f 419 510 519
f 421 451 422
f 421 446 451
f 422 456 428
f 422 451 456
f 535 423 426
f 532 423 535
f 453 424 425
f 424 533 425
f 424 519 533
f 459 425 430
f 425 534 430
f 453 425 459
f 425 533 534
f 538 426 429
f 535 426 538
f 428 462 432
f 428 456 462
f 543 429 433
f 538 429 543
f 460 430 434
f 430 539 434
f 459 430 460
f 430 534 539
f 432 467 437
f 432 462 467
f 549 433 438
f 543 433 549
f 464 434 435
f 434 544 435
f 460 434 464
f 434 539 544
f 469 435 439
f 435 545 439
f 464 435 469
f 435 544 545
f 437 473 441
f 437 467 473
f 555 438 442
f 549 438 555
f 470 439 444
f 439 550 444
f 469 439 470
f 439 545 550
f 441 475 447
f 441 473 475
f 558 442 443
f 555 442 558
f 565 443 448
f 558 443 565
f 476 444 445
f 444 556 445
f 470 444 476
f 444 550 556
f 483 445 449
f 445 557 449
f 476 445 483
f 445 556 557
f 447 481 452
f 447 475 481
f 574 448 453
f 565 448 574
f 484 449 450
f 449 566 450
f 483 449 484
f 449 557 566
f 489 450 454
f 450 567 454
f 484 450 489
f 450 566 567
f 452 487 457
f 452 481 487
f 577 453 459
f 574 453 577
f 492 454 455
f 454 575 455
f 489 454 492
f 454 567 575
f 496 455 461
f 455 576 461
f 492 455 496
f 455 575 576
f 457 494 458
f 457 487 494
f 458 501 463
f 458 494 501
f 578 459 460
f 577 459 578
f 580 460 464
f 578 460 580
f 499 461 465
f 461 579 465
f 496 461 499
f 461 576 579
f 463 509 468
f 463 501 509
f 583 464 469
f 580 464 583
f 504 465 466
f 465 581 466
f 499 465 504
f 465 579 581
f 511 466 471
f 466 582 471
f 504 466 511
f 466 581 582
f 468 518 474
f 468 509 518
f 584 469 470
f 583 469 584
f 587 470 476
f 584 470 587
f 511 471 472
f 471 585 472
f 471 582 585
f 512 472 477
f 472 586 477
f 511 472 512
f 472 585 586
f 474 532 480
f 474 518 532
f 591 476 483
f 587 476 591
f 520 477 478
f 477 588 478
f 512 477 520
f 477 586 588
f 521 478 479
f 478 589 479
f 520 478 521
f 478 588 589
f 531 479 485
f 479 590 485
f 521 479 531
f 479 589 590
f 480 535 482
f 480 532 535
f 482 538 488
f 482 535 538
f 592 483 484
f 591 483 592
f 595 484 489
f 592 484 595
f 536 485 486
f 485 593 486
f 531 485 536
f 485 590 593
f 537 486 490
f 486 594 490
f 536 486 537
f 486 593 594
f 488 543 495
f 488 538 543
f 598 489 492
f 595 489 598
f 540 490 491
f 490 596 491
f 537 490 540
f 490 594 596
f 541 491 493
f 491 597 493
f 540 491 541
f 491 596 597
f 600 492 496
f 598 492 600
f 542 493 497
f 493 599 497
f 541 493 542
f 493 597 599
f 495 549 502
f 495 543 549
f 603 496 499
f 600 496 603
f 546 497 498
f 497 601 498
f 542 497 546
f 497 599 601
f 547 498 500
f 498 602 500
f 546 498 547
f 498 601 602
f 605 499 504
f 603 499 605
f 548 500 505
f 500 604 505
f 547 500 548
f 500 602 604
f 502 555 503
f 502 549 555
f 503 558 510
f 503 555 558
f 609 504 511
f 605 504 609
f 551 505 506
f 505 606 506
f 548 505 551
f 505 604 606
f 552 506 507
f 506 607 507
f 551 506 552
f 506 606 607
f 552 507 508
f 507 608 508
f 507 607 608
f 553 508 513
f 508 610 513
f 552 508 553
f 508 608 610
f 510 565 519
f 510 558 565
f 611 511 512
f 609 511 611
f 616 512 520
f 611 512 616
f 554 513 514
f 513 612 514
f 553 513 554
f 513 610 612
f 559 514 515
f 514 613 515
f 554 514 559
f 514 612 613
f 560 515 516
f 515 614 516
f 559 515 560
f 515 613 614
f 561 516 517
f 516 615 517
f 560 516 561
f 516 614 615
f 562 517 522
f 517 617 522
f 561 517 562
f 517 615 617
f 519 574 533
f 519 565 574
f 618 520 521
f 616 520 618
f 628 521 531
f 618 521 628
f 563 522 523
f 522 619 523
f 562 522 563
f 522 617 619
f 564 523 524
f 523 620 524
f 563 523 564
f 523 619 620
f 568 524 525
f 524 621 525
f 564 524 568
f 524 620 621
f 569 525 526
f 525 622 526
f 568 525 569
f 525 621 622
f 570 526 527
f 526 623 527
f 569 526 570
f 526 622 623
f 571 527 528
f 527 624 528
f 570 527 571
f 527 623 624
f 572 528 529
f 528 625 529
f 571 528 572
f 528 624 625
f 573 529 530
f 529 626 530
f 572 529 573
f 529 625 626
f 573 530 652
f 530 626 627
f 652 530 627
f 629 531 536
f 628 531 629
f 533 574 534
f 534 577 539
f 534 574 577
f 630 536 537
f 629 536 630
f 631 537 540
f 630 537 631
f 539 578 544
f 539 577 578
f 632 540 541
f 631 540 632
f 633 541 542
f 632 541 633
f 634 542 546
f 633 542 634
f 544 580 545
f 544 578 580
f 545 583 550
f 545 580 583
f 635 546 547
f 634 546 635
f 636 547 548
f 635 547 636
f 637 548 551
f 636 548 637
f 550 584 556
f 550 583 584
f 638 551 552
f 637 551 638
f 639 552 553
f 638 552 639
f 640 553 554
f 639 553 640
f 641 554 559
f 640 554 641
f 556 587 557
f 556 584 587
f 557 591 566
f 557 587 591
f 642 559 560
f 641 559 642
f 643 560 561
f 642 560 643
f 644 561 562
f 643 561 644
f 645 562 563
f 644 562 645
f 646 563 564
f 645 563 646
f 647 564 568
f 646 564 647
f 566 592 567
f 566 591 592
f 567 595 575
f 567 592 595
f 648 568 569
f 647 568 648
f 649 569 570
f 648 569 649
f 650 570 571
f 649 570 650
f 651 571 572
f 650 571 651
f 652 572 573
f 651 572 652
f 575 598 576
f 575 595 598
f 576 600 579
f 576 598 600
f 579 603 581
f 579 600 603
f 581 605 582
f 581 603 605
f 582 609 585
f 582 605 609
f 585 609 586
f 586 611 588
f 586 609 611
f 588 616 589
f 588 611 616
f 589 618 590
f 589 616 618
f 590 628 593
f 590 618 628
f 593 629 594
f 593 628 629
f 594 630 596
f 594 629 630
f 596 631 597
f 596 630 631
f 597 632 599
f 597 631 632
f 599 633 601
f 599 632 633
f 601 634 602
f 601 633 634
f 602 635 604
f 602 634 635
f 604 636 606
f 604 635 636
f 606 637 607
f 606 636 637
f 607 638 608
f 607 637 638
f 608 638 610
f 610 639 612
f 610 638 639
f 612 640 613
f 612 639 640
f 613 641 614
f 613 640 641
f 614 642 615
f 614 641 642
f 615 643 617
f 615 642 643
f 617 644 619
f 617 643 644
f 619 645 620
f 619 644 645
f 620 646 621
f 620 645 646
f 621 647 622
f 621 646 647
f 622 648 623
f 622 647 648
f 623 649 624
f 623 648 649
f 624 650 625
f 624 649 650
f 625 651 626
f 625 650 651
f 626 652 627
f 626 651 652
