v -0.0219910244 -0.00784888707 -0.0301
v -0.0219910244 -0.00784888707 0.0104000001
v -0.00784888305 -0.0219910189 -0.0301
v -0.00784888305 -0.0219910189 0.0104000001
v -0.00282842674 0.0113137058 -0.0375999994
v -0.00282842674 0.0113137058 -0.0301
v -0.00282842674 0.0113137058 0.0104000001
v -0.00282842674 0.0113137058 0.0178999977
v -0.00141421356 0.012727919 -0.0375999994
v -0.00141421356 0.012727919 -0.0301
v -0.00141421356 0.012727919 0.0104000001
v -0.00141421356 0.012727919 0.0178999977
v -0.000757408517 0.0092426876 -0.0359791453
v -0.000757408517 0.0092426876 -0.0342208548
v -0.000757408517 0.0092426876 0.014520853
v -0.000757408517 0.0092426876 0.0162791471
v -0.000768032449 0.00925331153 -0.0359428645
v -0.000822248833 0.00930752792 -0.035720184
v -0.000859713929 0.00934499778 -0.0354907085
v -0.00088170089 0.00936697997 -0.0352177562
v -0.00088170089 0.00936697997 -0.0349822439
v -0.000864296334 0.00934957542 -0.0347480227
v -0.000822248833 0.00930752792 -0.0344798161
v -0.000814366715 0.00929965057 0.0147421627
v -0.000854654687 0.00933993377 0.0149706821
v -0.000880008118 0.00936529197 0.0152430468
v -0.000882912057 0.00936819114 0.0154785233
v -0.000868401902 0.00935368575 0.0157131414
v -0.000829673188 0.00931495704 0.0159823446
v -0.000768032449 0.00925331153 0.0162428646
v -0.00051166095 0.0089969448 -0.0365462722
v -0.00051166095 0.0089969448 -0.0336537279
v -0.00051166095 0.0089969448 0.0139537268
v -0.00051166095 0.0089969448 0.0168462734
v -0.000529322999 0.00901460685 -0.0365159709
v -0.000546608346 0.00903188743 -0.0364852382
v -0.000670729058 0.00915600814 -0.0362250001
v -0.000746336358 0.00923161544 -0.0341848428
v -0.000670729058 0.00915600814 -0.0339749999
v -0.000563512223 0.00904879607 -0.033745916
v -0.000529322999 0.00901460685 0.0139840298
v -0.00065663852 0.00914192237 0.0142411642
v -0.000746336358 0.00923161544 0.0144848423
v -0.000684404748 0.00916968383 0.0164908199
v -0.000580029862 0.00906531371 0.0167225151
v -0.000529322999 0.00901460685 0.0168159704
v -0.000250373261 0.00873565711 -0.0368969299
v -0.000250373261 0.00873565711 -0.0333030702
v -0.000250373261 0.00873565711 0.0136030703
v -0.000250373261 0.00873565711 0.0171969299
v -0.000272403138 0.00875768699 -0.0368730242
v -0.000377946275 0.00886323013 -0.036745546
v -0.000493626969 0.00897891082 -0.0336238672
v -0.000398087876 0.00888337173 -0.0334814854
v -0.000357475655 0.00884275474 0.0137279253
v -0.000493626969 0.00897891082 0.0139238672
v -0.000417890923 0.00890317001 0.0169909887
v -0.000272403138 0.00875768699 0.0171730261
v -1.51876381e-05 0.00850047149 -0.0371047647
v -0.000159407037 0.00864468612 -0.0369870086
v -0.000228052514 0.0087133316 -0.0332797117
v -0.000182562249 0.00866784133 -0.0332346655
v -0.000135989564 0.00862127342 0.0134918909
v -0.000228052514 0.0087133316 0.01357971
v -0.000205445664 0.00869072952 0.0172430925
v -1.51876381e-05 0.00850047149 0.0174047642
v 0.000241946799 0.00824333228 -0.0372516854
v 0.000241946799 0.00824333228 -0.0329483141
v 0.000241946799 0.00824333228 0.013248313
v 0.000241946799 0.00824333228 0.0175516872
v 0.000215463264 0.00826981582 -0.0372398777
v 9.66034622e-06 0.00847561874 -0.0330777134
v 0.000136947257 0.00834833183 -0.0329994441
v 9.66034622e-06 0.00847561874 0.0133777122
v 0.00011111222 0.00837416686 0.017486165
v 0.000215463264 0.00826981582 0.017539876
v 0.000485682113 0.00799960174 -0.0373281033
v 0.000485682113 0.00799960174 -0.0328718967
v 0.000485682113 0.00799960174 0.013171895
v 0.000485682113 0.00799960174 0.0176281052
v 0.000458221061 0.00802705802 -0.037322299
v 0.000268568618 0.00821671523 -0.0329371614
v 0.000268568618 0.00821671523 0.0132371597
v 0.000458221061 0.00802705802 0.0176222973
v 0.000734872443 0.00775040664 -0.0373496575
v 0.000707106216 0.00777817764 -0.0328499998
v 0.00051321469 0.00797206916 0.013166769
v 0.000707106216 0.00777817764 0.0176500015
v 0.000667876823 0.0106458286 -0.0360151572
v 0.000599846465 0.0107138637 -0.0357578362
v 0.000565099342 0.0107486156 -0.0355678011
v 0.000584539993 0.0107291702 -0.0345176573
v 0.000646180732 0.0106675247 -0.0342571349
v 0.000729808433 0.010583897 -0.0340091784
v 0.000743484122 0.0105702309 -0.0339749999
v 0.000667876823 0.0106458286 0.0144848423
v 0.000599846465 0.0107138637 0.0147421627
v 0.000565099342 0.0107486156 0.0149321966
v 0.000584539993 0.0107291702 0.0159823446
v 0.000646180732 0.0106675247 0.0162428646
v 0.000729808433 0.010583897 0.0164908199
v 0.000743484122 0.0105702309 0.0165249996
v 0.000559563262 0.010754147 -0.0355293204
v 0.000534205062 0.0107795052 -0.0352569522
v 0.000531301124 0.0107824139 -0.0350214763
v 0.000545811279 0.0107678989 -0.0347868605
v 0.000559563262 0.010754147 -0.0346706797
v 0.000559563262 0.010754147 0.0149706821
v 0.000534205062 0.0107795052 0.0152430468
v 0.000531301124 0.0107824139 0.0154785233
v 0.000545811279 0.0107678989 0.0157131414
v 0.000559563262 0.010754147 0.015829318
v 0.000983380897 0.00750189819 -0.0373158176
v 0.000762633903 0.00772264518 -0.0328513707
v 0.000762633903 0.00772264518 0.013151372
v 0.000983380897 0.00750189819 0.0176158171
v 0.000884890182 0.01042882 -0.0365159709
v 0.000818056686 0.0104956535 -0.0363905473
v 0.000834183318 0.0104795269 -0.0337774832
v 0.000996322257 0.0103173927 -0.0335090096
v 0.000884890182 0.01042882 0.0139840298
v 0.000818056686 0.0104956535 0.0141094522
v 0.000834183318 0.0104795269 0.0167225151
v 0.000996322257 0.0103173927 0.0169909887
v 0.00075757466 0.0105561356 -0.0362588359
v 0.000802330596 0.0105113796 -0.0338418157
v 0.00075757466 0.0105561356 0.0142411642
v 0.000802330596 0.0105113796 0.016658185
v 0.00117226563 0.00731301345 -0.0372516854
v 0.00122508488 0.00726019897 -0.0372274168
v 0.00101067982 0.00747460403 -0.0328913386
v 0.00101067982 0.00747460403 0.0131913404
v 0.00119874917 0.00728652992 0.0132601242
v 0.00122508488 0.00726019897 0.0175274162
v 0.00107753716 0.0102361683 -0.0367980964
v 0.00120876752 0.0101049427 -0.0332569082
v 0.00123165093 0.0100820545 -0.0332346655
v 0.00107753716 0.0102361683 0.0137019043
v 0.00120876752 0.0101049427 0.0172430925
v 0.00123165093 0.0100820545 0.0172653322
v 0.00105674229 0.0102569679 -0.036772076
v 0.0010161253 0.0102975849 -0.0367185147
v 0.00105674229 0.0102569679 -0.033427924
v 0.00105674229 0.0102569679 0.0137279253
v 0.0010161253 0.0102975849 0.0137814837
v 0.00105674229 0.0102569679 0.0170720749
v 0.00147843323 0.00700684585 -0.0370678945
v 0.00130310021 0.00718217887 -0.0330138363
v 0.00125125848 0.00723402061 -0.0329856915
v 0.00125125848 0.00723402061 0.0132856922
v 0.00147843323 0.00700684585 0.0173678951
v 0.00127726517 0.00720801391 0.017500556
v 0.00132582627 0.00998787917 -0.0370485575
v 0.00149967156 0.00981403388 -0.0330288638
v 0.00132582627 0.00998787917 0.0134514408
v 0.00149967156 0.00981403388 0.0174711351
v 0.00127822362 0.0100354866 -0.0370081086
v 0.00125480614 0.0100588993 -0.0369870086
v 0.00130189858 0.0100118069 -0.0331713737
v 0.00127822362 0.0100354866 0.0134918909
v 0.00125480614 0.0100588993 0.013512991
v 0.00130189858 0.0100118069 0.0173286276
v 0.001550202 0.00693508186 -0.0370081086
v 0.0017297741 0.00675550498 -0.0368236001
v 0.00161966286 0.00686561622 -0.0332569082
v 0.00150260411 0.00698267974 -0.0331514431
v 0.00150260411 0.00698267974 0.0134514408
v 0.00157362424 0.00691165962 0.013512991
v 0.0017297741 0.00675550498 0.0171236019
v 0.00159677945 0.0068885044 0.0172653322
v 0.00165615998 0.00965754546 -0.0372516854
v 0.0015771719 0.00973653831 -0.0372143085
v 0.00173642598 0.00957728423 -0.0329168345
v 0.00165615998 0.00965754546 0.013248313
v 0.0015771719 0.00973653831 0.0132856922
v 0.00173642598 0.00957728423 0.0175831633
v 0.0015253254 0.00978838004 -0.0371861632
v 0.0015253254 0.00978838004 -0.0330138363
v 0.00155116044 0.00976254501 -0.0329994441
v 0.0015253254 0.00978838004 0.0133138351
v 0.0015253254 0.00978838004 0.017486165
v 0.00155116044 0.00976254501 0.017500556
v 0.00199424706 0.00649103202 -0.0364225168
v 0.00199424706 0.00649103202 -0.0337774832
v 0.00199424706 0.00649103202 0.0140774851
v 0.00199424706 0.00649103202 0.0167225151
v 0.00177168809 0.006713591 -0.036772076
v 0.0019435402 0.00654173888 -0.0365159709
v 0.00197772942 0.00650754966 -0.036454084
v 0.00183210812 0.00665317573 -0.0335090096
v 0.00175088845 0.00673439063 -0.0334019036
v 0.00175088845 0.00673439063 0.0137019043
v 0.00179215871 0.00669312515 0.0137544565
v 0.00196082555 0.00652445831 0.0140147619
v 0.00197772942 0.00650754966 0.0167540817
v 0.00181230031 0.00667298354 0.0170185165
v 0.00181774579 0.00949596442 -0.0373086615
v 0.00198265515 0.00933105506 -0.032858562
v 0.00181774579 0.00949596442 0.0131913404
v 0.00198265515 0.00933105506 0.0176414375
v 0.0017634245 0.00955028571 -0.0372923322
v 0.00179053269 0.00952317275 -0.0328991677
v 0.0017634245 0.00955028571 0.0132076674
v 0.00179053269 0.00952317275 0.0176008301
v 0.00224388562 0.00624139823 -0.0356823428
v 0.00224388562 0.00624139823 -0.0345176573
v 0.00223646603 0.00624881782 -0.0344798161
v 0.00223646603 0.00624881782 0.0147798138
v 0.00224388562 0.00624139823 0.0159823446
v 0.00223646603 0.00624881782 0.0160201864
v 0.00207085095 0.0064144329 -0.0362588359
v 0.00216054879 0.00632473029 -0.0360151572
v 0.00222857915 0.00625670471 -0.0357578362
v 0.00218224488 0.0063030342 -0.0342571349
v 0.00209861718 0.0063866619 -0.0340091784
v 0.00201036893 0.00647491493 -0.0338094528
v 0.00201036893 0.00647491493 0.0141094522
v 0.00208494626 0.00640033759 0.0142750006
v 0.00217162095 0.00631365814 0.014520853
v 0.00222857915 0.00625670471 0.0160578375
v 0.00217162095 0.00631365814 0.0162791471
v 0.00208494626 0.00640033759 0.0165249996
v 0.00206579648 0.00924791374 -0.03734863
v 0.0021213194 0.00919239082 -0.0328499998
v 0.00206579648 0.00924791374 0.013151372
v 0.0021213194 0.00919239082 0.0176500015
v 0.00201034032 0.0093033699 -0.0373445196
v 0.00203805409 0.00927565612 -0.0328530837
v 0.00201034032 0.0093033699 0.0131554823
v 0.00203805409 0.00927565612 0.0176469164
v 0.00226886712 0.00621641197 -0.0355293204
v 0.00229422055 0.0061910633 -0.0352569522
v 0.00229712926 0.0061881546 -0.0350214763
v 0.00228261433 0.00620266952 -0.0347868605
v 0.00225083791 0.00623444595 -0.0345556755
v 0.00225083791 0.00623444595 0.0148556738
v 0.00227392636 0.00621135749 0.0150092916
v 0.00229591809 0.00618936576 0.0152822428
v 0.00229591809 0.00618936576 0.0155177574
v 0.00227850877 0.00620677032 0.0157519798
v 0.00231521092 0.00899849929 -0.0373332293
v 0.00247921429 0.00883449592 -0.0329076673
v 0.00231521092 0.00899849929 0.013166769
v 0.00247921429 0.00883449592 0.0175923328
v 0.00225998364 0.00905372657 -0.0373414381
v 0.00228762589 0.00902608909 -0.032862326
v 0.00225998364 0.00905372657 0.0131585627
v 0.00228762589 0.00902608909 0.0176376753
v 0.00258647881 0.00872722663 -0.0372516854
v 0.00261296235 0.0087007431 -0.0372398777
v 0.002742972 0.00857073821 -0.0330288638
v 0.00269147835 0.00862222709 -0.0329994441
v 0.00258647881 0.00872722663 0.013248313
v 0.00261296235 0.0087007431 0.0132601242
v 0.002742972 0.00857073821 0.0174711351
v 0.00269147835 0.00862222709 0.017500556
v 0.00250621758 0.0088074974 -0.037283165
v 0.00255985699 0.00875385322 -0.0329371614
v 0.00250621758 0.0088074974 0.0132168369
v 0.00255985699 0.00875385322 0.0175628405
v 0.00281876527 0.00849494018 -0.0371222861
v 0.00298783742 0.0083258728 -0.0369870086
v 0.00298783742 0.0083258728 -0.0332129915
v 0.00281876527 0.00849494018 0.0133777122
v 0.00298783742 0.0083258728 0.013512991
v 0.00298783742 0.0083258728 0.0172870092
v 0.0027684351 0.00854527511 -0.0371554775
v 0.0027937027 0.00852000274 -0.0330608077
v 0.0027684351 0.00854527511 0.0133445244
v 0.0027937027 0.00852000274 0.0174391918
v 0.00307880364 0.0082349018 -0.0368969299
v 0.00320637189 0.00810733833 -0.036745546
v 0.0032463213 0.00806738891 -0.0335090096
v 0.00322651349 0.00808719672 -0.0334814854
v 0.00307880364 0.0082349018 0.0136030703
v 0.00320637189 0.00810733833 0.0137544565
v 0.0032463213 0.00806738891 0.0169909887
v 0.00322651349 0.00808719672 0.0170185165
v 0.00301099263 0.00830271758 -0.0369653345
v 0.00305648289 0.00825722732 -0.0332797117
v 0.00301099263 0.00830271758 -0.0332346655
v 0.00301099263 0.00830271758 0.0135346632
v 0.00305648289 0.00825722732 0.0172202902
v 0.00301099263 0.00830271758 0.0172653322
v 0.00332205735 0.00799164809 -0.0365761329
v 0.00337503873 0.00793867149 -0.0364852382
v 0.00349915944 0.00781455077 -0.0362250001
v 0.00349915944 0.00781455077 -0.0339749999
v 0.0033919426 0.00792176284 -0.033745916
v 0.00332205735 0.00799164809 0.0139238672
v 0.00337503873 0.00793867149 0.0140147619
v 0.00349915944 0.00781455077 0.0142750006
v 0.00349915944 0.00781455077 0.0165249996
v 0.0033919426 0.00792176284 0.0167540817
v 0.00326578103 0.00804792442 -0.0366629816
v 0.0033036562 0.00801005401 -0.0335944558
v 0.00326578103 0.00804792442 0.0138370209
v 0.0033036562 0.00801005401 0.0169055443
v 0.00357476197 0.00773894347 -0.0360151572
v 0.00358583413 0.00772787132 -0.0359791453
v 0.00365067921 0.007663031 -0.035720184
v 0.00368813954 0.00762557067 -0.0354907085
v 0.00371013127 0.00760357894 -0.0352177562
v 0.00371013127 0.00760357894 -0.0349822439
v 0.00369272195 0.0076209835 -0.0347480227
v 0.00365067921 0.007663031 -0.0344798161
v 0.00358583413 0.00772787132 -0.0342208548
v 0.00357476197 0.00773894347 0.0144848423
v 0.00358583413 0.00772787132 0.014520853
v 0.00365067921 0.007663031 0.0147798138
v 0.00368813954 0.00762557067 0.0150092916
v 0.00371013127 0.00760357894 0.0152822428
v 0.00371013127 0.00760357894 0.0155177574
v 0.00369272195 0.0076209835 0.0157519798
v 0.00365067921 0.007663031 0.0160201864
v 0.00358583413 0.00772787132 0.0162791471
v 0.00351283036 0.00780087508 -0.0361908216
v 0.00356324635 0.00775046386 -0.0341491086
v 0.00351283036 0.00780087508 0.0143091803
v 0.00356324635 0.00775046386 0.0163508921
v 0.00353553258 0.0176776699 -0.0301
v 0.00353553258 0.0176776699 0.0104000001
v 0.00624881707 0.00223646201 -0.035720184
v 0.00624139748 0.0022438816 -0.0345176573
v 0.00624881707 0.00223646201 -0.0344798161
v 0.00624139748 0.0022438816 0.0148176556
v 0.00624139748 0.0022438816 0.0159823446
v 0.00624881707 0.00223646201 0.0160201864
v 0.0062344452 0.00225083389 -0.0356443245
v 0.00621135674 0.00227392234 -0.0354907085
v 0.00618936501 0.00229591407 -0.0352177562
v 0.00618936501 0.00229591407 -0.0349822439
v 0.00620677434 0.00227850951 -0.0347480227
v 0.00621641598 0.00226886787 0.0149706821
v 0.00619105778 0.00229422607 0.0152430468
v 0.00618815385 0.00229712524 0.0154785233
v 0.00620266877 0.00228261031 0.0157131414
v 0.0062344452 0.00225083389 0.0159443264
v 0.00649103604 0.00199424781 -0.0364225168
v 0.00649103604 0.00199424781 -0.0337774832
v 0.00649103604 0.00199424781 0.0140774851
v 0.00649103604 0.00199424781 0.0167225151
v 0.00647490941 0.00201037444 -0.0363905473
v 0.00640033684 0.00208494224 -0.0362250001
v 0.00631366215 0.0021716217 -0.0359791453
v 0.00625670396 0.00222857513 -0.0344421638
v 0.00631366215 0.0021716217 -0.0342208548
v 0.00640033684 0.00208494224 -0.0339749999
v 0.00641443215 0.00207084693 0.0142411642
v 0.00632473431 0.00216054954 0.0144848423
v 0.00625670396 0.00222857513 0.0147421627
v 0.00630303345 0.00218224563 0.0162428646
v 0.00638666115 0.00209861793 0.0164908199
v 0.00647490941 0.00201037444 0.0166905479
v 0.006489987 0.0147232155 -0.00145153236
v 0.00647270165 0.0147405056 0.00134970713
v 0.00645667515 0.0147565273 -0.0012474699
v 0.00641619645 0.0147970108 -0.000938605785
v 0.00639558278 0.0148176197 -0.000731215
v 0.00637429677 0.0148389057 -0.00041853857
v 0.0063665434 0.0148466591 -0.000209397793
v 0.00636395894 0.0148492435 4.7683716e-10
v 0.00636977635 0.0148434261 0.000314016819
v 0.00638010464 0.0148330978 0.000522933483
v 0.00640524827 0.0148079494 0.000835037708
v 0.00642841778 0.0147847847 0.00104188967
v 0.00673438988 0.0017508892 -0.0367980964
v 0.00669311963 0.00179216422 -0.036745546
v 0.00652445756 0.00196082153 -0.0364852382
v 0.00650755368 0.00197773017 -0.033745916
v 0.00667297803 0.00181230583 -0.0334814854
v 0.00671359502 0.00177168884 0.0137279253
v 0.0065417429 0.00194354095 0.0139840298
v 0.00650755368 0.00197773017 0.0140459185
v 0.00665317498 0.0018321041 0.0169909887
v 0.00673438988 0.0017508892 0.0170980959
v 0.00673075639 0.0144824509 -0.00244041872
v 0.00673075639 0.0144824509 0.00244041967
v 0.00670123063 0.0145119766 -0.0023443861
v 0.0066728922 0.0145403103 -0.00224764061
v 0.00659510575 0.0146181015 -0.00195340824
v 0.00652831517 0.0146848873 -0.00165382338
v 0.00650852643 0.014704676 0.00155291367
v 0.00654934369 0.0146638588 0.00175422955
v 0.00661982499 0.0145933823 0.00205212164
v 0.00670123063 0.0145119766 0.00234438705
v 0.00698267899 0.00150260009 -0.0370485575
v 0.00691165887 0.00157362022 -0.0369870086
v 0.00675550423 0.00172977485 -0.0333764
v 0.00688850365 0.00159677543 -0.0332346655
v 0.00693507634 0.00155020751 0.0134918909
v 0.00675550423 0.00172977485 0.0136763983
v 0.00686562024 0.00161966361 0.0172430925
v 0.00698267899 0.00150260009 0.0173485594
v 0.00696994744 0.0142432503 -0.00309022856
v 0.00696994744 0.0142432503 0.00309022951
v 0.0069323679 0.0142808346 -0.00299999905
v 0.00682638131 0.0143868259 -0.00272394371
v 0.0067614647 0.0144517425 0.00253570843
v 0.00686057053 0.0143526272 0.00281683016
v 0.00723402463 0.00125125922 -0.0372143085
v 0.0070068451 0.00147843398 -0.0331321056
v 0.00720801316 0.00127726592 -0.0329994441
v 0.0070068451 0.00147843398 0.0134321051
v 0.00718217812 0.00130310096 0.017486165
v 0.00723402463 0.00125125922 0.017514308
v 0.00721827946 0.013994923 -0.00361088943
v 0.00721827946 0.013994923 0.00361089039
v 0.00717423402 0.0140389732 -0.00352671099
v 0.00713123284 0.0140819649 -0.00344145966
v 0.00700863801 0.0142045692 -0.00317951632
v 0.00700863801 0.0142045692 0.00317951488
v 0.0070484253 0.0141647819 0.00326783466
v 0.00717423402 0.0140389732 0.00352671194
v 0.00747459851 0.00101068057 -0.0373086615
v 0.00728653393 0.00119874992 -0.0372398777
v 0.00726019822 0.00122508086 -0.0329725833
v 0.0073130127 0.00117226638 0.013248313
v 0.00726019822 0.00122508086 0.013272584
v 0.00747459851 0.00101068057 0.0176086597
v 0.00745370351 0.013759499 -0.00401478481
v 0.00740464173 0.0138085655 -0.00393635464
v 0.00726335488 0.0139498524 -0.00369396877
v 0.00726335488 0.0139498524 0.00369396973
v 0.00730945073 0.0139037517 0.00377592134
v 0.00745370351 0.013759499 0.00401478338
v 0.0077226492 0.000762629884 -0.03734863
v 0.00750190221 0.000983381646 -0.0328841825
v 0.00750190221 0.000983381646 0.0131841831
v 0.0077226492 0.000762629884 0.0176486282
v 0.00773894749 0.00357476272 -0.0360151572
v 0.00767091714 0.00364278831 -0.0357578362
v 0.00763062916 0.00368308105 -0.0355293204
v 0.00760527573 0.00370843925 -0.0352569522
v 0.00760236703 0.00371133842 -0.0350214763
v 0.00761688195 0.00369682349 -0.0347868605
v 0.00765561066 0.00365809478 -0.0345176573
v 0.00771724663 0.00359645881 -0.0342571349
v 0.00773894749 0.00357476272 -0.0341848428
v 0.00773894749 0.00357476272 0.0144848423
v 0.00767091714 0.00364278831 0.0147421627
v 0.00763062916 0.00368308105 0.0149706821
v 0.00760527573 0.00370843925 0.0152430468
v 0.00760236703 0.00371133842 0.0154785233
v 0.00761688195 0.00369682349 0.0157131414
v 0.00765561066 0.00365809478 0.0159823446
v 0.00771724663 0.00359645881 0.0162428646
v 0.00773894749 0.00357476272 0.0163151579
v 0.00771312676 0.0135000709 -0.00438812208
v 0.00760660134 0.0136066059 -0.00424264145
v 0.00750372849 0.0137094692 0.00409199047
v 0.00765941582 0.0135537914 0.00431603956
v 0.00799959622 0.000485682862 -0.0373281033
v 0.00799959622 0.000485682862 -0.0328718967
v 0.00799959622 0.000485682862 0.013171895
v 0.00799959622 0.000485682862 0.0176281052
v 0.00797206841 0.00051321544 -0.0373332293
v 0.00777817689 0.000707106965 -0.0328499998
v 0.00775040589 0.000734873193 0.013150342
v 0.00777817689 0.000707106965 0.0176500015
v 0.00795595608 0.00335775413 -0.0365159709
v 0.00782864533 0.00348506965 -0.0362588359
v 0.00781455003 0.00349915542 -0.0362250001
v 0.00790524922 0.00340846099 -0.0337774832
v 0.00799165211 0.0033220581 -0.0336238672
v 0.00795595608 0.00335775413 0.0139840298
v 0.00782864533 0.00348506965 0.0142411642
v 0.00781455003 0.00349915542 0.0142750006
v 0.00790524922 0.00340846099 0.0167225151
v 0.00799165211 0.0033220581 0.016876133
v 0.00775046311 0.00356325187 -0.0360508908
v 0.0078008791 0.00351283111 -0.0340091784
v 0.00775046311 0.00356325187 0.0144491081
v 0.0078008791 0.00351283111 0.0164908199
v 0.00799457036 0.0132186321 -0.00472806406
v 0.00799457036 0.0132186321 0.00472806501
v 0.00793662034 0.0132765774 -0.00466287565
v 0.00776771985 0.0134454826 -0.00445886803
v 0.00776771985 0.0134454826 0.00445886898
v 0.00782318078 0.0133900265 0.00452825832
v 0.0082433363 0.000241947549 -0.0372516854
v 0.0082433363 0.000241947549 -0.0329483141
v 0.0082433363 0.000241947549 0.013248313
v 0.0082433363 0.000241947549 0.0175516872
v 0.00821670972 0.000268569367 -0.0372628386
v 0.00802706204 0.00045822181 -0.032877701
v 0.00802706204 0.00045822181 0.0131777029
v 0.00821670972 0.000268569367 0.0175628405
v 0.0081278082 0.00318590202 -0.036772076
v 0.00806738816 0.00324631728 -0.0366909904
v 0.00806738816 0.00324631728 -0.0335090096
v 0.00823490582 0.00307880439 -0.0333030702
v 0.0081278082 0.00318590202 0.0137279253
v 0.00806738816 0.00324631728 0.0138090115
v 0.00806738816 0.00324631728 0.0169909887
v 0.00823490582 0.00307880439 0.0171969299
v 0.00801005326 0.00330365218 -0.0366055436
v 0.00804792367 0.00326578178 -0.0335370184
v 0.00801005326 0.00330365218 0.0138944559
v 0.00804792367 0.00326578178 0.0169629793
v 0.00823414765 0.0129790596 -0.00497422647
v 0.00823414765 0.0129790596 0.00497422504
v 0.00817312203 0.0130400757 -0.0049149127
v 0.0080533167 0.0131598858 0.00479181337
v 0.00847561799 9.66109543e-06 -0.0371222861
v 0.00837417088 0.000111112969 -0.0330138363
v 0.00826981984 0.000215464013 -0.0329601229
v 0.00826981984 0.000215464013 0.0132601242
v 0.00847561799 9.66109543e-06 0.0174222879
v 0.00834833585 0.000136948006 0.017500556
v 0.00834928952 0.00296442069 -0.0370081086
v 0.00832587205 0.0029878334 -0.0369870086
v 0.0084949442 0.00281876601 -0.0330777134
v 0.00834928952 0.00296442069 0.0134918909
v 0.00832587205 0.0029878334 0.013512991
v 0.0084949442 0.00281876601 0.0174222879
v 0.00825722657 0.00305647887 -0.0369202883
v 0.00827983342 0.00303387679 -0.0332569082
v 0.00830271683 0.00301098861 -0.0332346655
v 0.00825722657 0.00305647887 0.01357971
v 0.00827983342 0.00303387679 0.0172430925
v 0.00830271683 0.00301098861 0.0172653322
v 0.00848528348 0.012727919 -0.00519615126
v 0.00848528348 0.012727919 0.00519615221
v 0.0084214779 0.0127917198 -0.00514300299
v 0.00829589329 0.0129173092 0.00503202248
v 0.00873565636 -0.00025037728 -0.0368969299
v 0.00873565636 -0.00025037728 -0.0333030702
v 0.00873565636 -0.00025037728 0.0136030703
v 0.00873565636 -0.00025037728 0.0171969299
v 0.00862127267 -0.000135988815 -0.0370081086
v 0.00871333562 -0.000228051765 -0.0369202883
v 0.00869072877 -0.000205449683 -0.0332569082
v 0.00850047074 -1.51868889e-05 -0.0330952353
v 0.00850047074 -1.51868889e-05 0.013395236
v 0.00864469014 -0.000159406287 0.013512991
v 0.00871333562 -0.000228051765 0.0172202902
v 0.00866784535 -0.0001825615 0.0172653322
v 0.00872722588 0.00258647956 -0.0372516854
v 0.00857073746 0.00274296798 -0.0371711357
v 0.0085963913 0.00271731414 -0.0330138363
v 0.00872722588 0.00258647956 -0.0329483141
v 0.00872722588 0.00258647956 0.013248313
v 0.00857073746 0.00274296798 0.0133288651
v 0.0085963913 0.00271731414 0.017486165
v 0.00872722588 0.00258647956 0.0175516872
v 0.00852000676 0.00279370345 -0.0371391923
v 0.00854527436 0.00276843108 -0.0330445225
v 0.00852000676 0.00279370345 0.0133608084
v 0.00854527436 0.00276843108 0.0174554758
v 0.00874675236 0.0124664501 -0.00539276314
v 0.00874675236 0.0124664501 0.00539276409
v 0.00868048154 0.0125327209 -0.00534604025
v 0.00854972802 0.0126634792 -0.00524771881
v 0.00854972802 0.0126634792 0.00524771738
v 0.00861480199 0.0125984005 0.00529768515
v 0.00899694405 -0.000511660201 -0.0365462722
v 0.00899694405 -0.000511660201 -0.0336537279
v 0.00899694405 -0.000511660201 0.0139537268
v 0.00899694405 -0.000511660201 0.0168462734
v 0.00884275399 -0.000357474906 -0.036772076
v 0.00897891007 -0.000493630988 -0.0365761329
v 0.00890317403 -0.000417894942 -0.0335090096
v 0.00875768624 -0.000272402389 -0.0333269758
v 0.00875768624 -0.000272402389 0.0136269741
v 0.00886322938 -0.000377945525 0.0137544565
v 0.00897891007 -0.000493630988 0.016876133
v 0.00888337098 -0.000398087127 0.0170185165
v 0.00883449517 0.00247921981 -0.0372923322
v 0.00899849377 0.00231521644 -0.0328667713
v 0.00883449517 0.00247921981 0.0132076674
v 0.00899849377 0.00231521644 0.0176332312
v 0.00875385247 0.00255985297 -0.0372628386
v 0.00880749188 0.00250621833 -0.0329168345
v 0.00875385247 0.00255985297 0.0132371597
v 0.00880749188 0.00250621833 0.0175831633
v 0.00894886933 0.0122643379 -0.00552303028
v 0.00888096295 0.0123322395 -0.00548127365
v 0.00881358586 0.0123996166 0.00543784666
v 0.00894886933 0.0122643379 0.00552302885
v 0.00924268685 -0.000757407767 -0.0359791453
v 0.00924268685 -0.000757407767 -0.0342208548
v 0.00924268685 -0.000757407767 0.014520853
v 0.00924268685 -0.000757407767 0.0162791471
v 0.0090146061 -0.000529327018 -0.0365159709
v 0.00914192162 -0.000656637771 -0.0362588359
v 0.00923161469 -0.000746335609 -0.0360151572
v 0.00916968785 -0.000684403999 -0.0340091784
v 0.00906531296 -0.000580029113 -0.0337774832
v 0.0090146061 -0.000529327018 -0.0336840291
v 0.0090146061 -0.000529327018 0.0139840298
v 0.00903189145 -0.000546612365 0.0140147619
v 0.00915601216 -0.000670733077 0.0142750006
v 0.00923161469 -0.000746335609 0.0163151579
v 0.00915601216 -0.000670733077 0.0165249996
v 0.00904879533 -0.000563516242 0.0167540817
v 0.00908140622 0.00223230399 -0.0373445196
v 0.00919239007 0.00212132491 -0.0328499998
v 0.00908140622 0.00223230399 0.0131554823
v 0.00919239007 0.00212132491 0.0176500015
v 0.00902608357 0.00228762664 -0.0373376746
v 0.00905372582 0.00225997962 -0.032858562
v 0.00902608357 0.00228762664 0.0131623249
v 0.00905372582 0.00225997962 0.0176414375
v 0.00922533475 0.0119878677 -0.00567311239
v 0.00922533475 0.0119878677 0.00567311096
v 0.00915553532 0.0120576672 -0.00563815546
v 0.00901728116 0.0121959213 0.00556310225
v 0.00929964505 -0.000814365966 -0.0357578362
v 0.00933993302 -0.000854653938 -0.0355293204
v 0.00936529122 -0.000880007369 -0.0352569522
v 0.00936819516 -0.000882916076 -0.0350214763
v 0.00935368024 -0.000868401153 -0.0347868605
v 0.00931495152 -0.000829672439 -0.0345176573
v 0.00925331555 -0.000768031699 -0.0342571349
v 0.00925331555 -0.000768031699 0.0145571356
v 0.00930753194 -0.000822252853 0.0147798138
v 0.00934499226 -0.00085971318 0.0150092916
v 0.00936698399 -0.00088170491 0.0152822428
v 0.00936698399 -0.00088170491 0.0155177574
v 0.00934957944 -0.000864295585 0.0157519798
v 0.00930753194 -0.000822252853 0.0160201864
v 0.00933105431 0.00198266067 -0.0373414381
v 0.00949596368 0.00181774177 -0.0328913386
v 0.00933105431 0.00198266067 0.0131585627
v 0.00949596368 0.00181774177 0.0176086597
v 0.00927565537 0.00203805007 -0.0373469169
v 0.00930336915 0.0020103363 -0.032855481
v 0.00927565537 0.00203805007 0.0131530838
v 0.00930336915 0.0020103363 0.0176445179
v 0.00943716965 0.0117760281 -0.00576756907
v 0.00936617337 0.0118470291 -0.00573782873
v 0.00929555379 0.0119176487 0.00570633936
v 0.00943716965 0.0117760281 0.00576757002
v 0.00957728348 0.00173642196 -0.037283165
v 0.00968403302 0.00162967719 -0.0372398777
v 0.00973653756 0.00157716789 -0.0329856915
v 0.00957728348 0.00173642196 0.0132168369
v 0.00968403302 0.00162967719 0.0132601242
v 0.00973653756 0.00157716789 0.017514308
v 0.009523172 0.00179053344 -0.0373008318
v 0.00955028496 0.00176343002 -0.0329076673
v 0.009523172 0.00179053344 0.0131991701
v 0.00955028496 0.00176343002 0.0175923328
v 0.00972450696 0.0114886955 -0.00586888504
v 0.00972450696 0.0114886955 0.00586888599
v 0.00965221368 0.011560984 -0.00584622097
v 0.00950852357 0.0117046741 0.00579555559
v 0.0098140379 0.00149967231 -0.0371711357
v 0.00998788319 0.00132582702 -0.0331514431
v 0.0098140379 0.00149967231 0.0133288651
v 0.00998788319 0.00132582702 0.0173485594
v 0.00976254903 0.00155116119 -0.0372005565
v 0.00978838406 0.00152532615 -0.0330138363
v 0.00976254903 0.00155116119 -0.0329994441
v 0.00976254903 0.00155116119 0.0132994442
v 0.00978838406 0.00152532615 0.017486165
v 0.00976254903 0.00155116119 0.017500556
v 0.00994290791 0.0112702946 -0.00592612934
v 0.00979706727 0.01141614 0.00588976192
v 0.0100820585 0.00123165168 -0.0369653345
v 0.0102361723 0.00107753791 -0.0334019036
v 0.0100820585 0.00123165168 -0.0332346655
v 0.0100820585 0.00123165168 0.0135346632
v 0.0102361723 0.00107753791 0.0170980959
v 0.0100820585 0.00123165168 0.0172653322
v 0.0100118109 0.00130189933 -0.0370286269
v 0.0100589033 0.00125480689 -0.0369870086
v 0.0100589033 0.00125480689 -0.0332129915
v 0.0100118109 0.00130189933 0.0134713726
v 0.0100589033 0.00125480689 0.013512991
v 0.0100589033 0.00125480689 0.0172870092
v 0.0102368303 0.0109763721 -0.00597716761
v 0.0102368303 0.0109763721 0.00597716856
v 0.0101631256 0.0110500816 -0.00596713018
v 0.0100161406 0.0111970619 0.00594160843
v 0.0103173872 0.000996318238 -0.0366909904
v 0.0104461046 0.000867600816 -0.0364852382
v 0.0104956528 0.000818057435 -0.0338094528
v 0.0104630085 0.000850696938 -0.033745916
v 0.0103173872 0.000996318238 0.0138090115
v 0.0104461046 0.000867600816 0.0140147619
v 0.0104956528 0.000818057435 0.0166905479
v 0.0104630085 0.000850696938 0.0167540817
v 0.0102569672 0.00105673827 -0.036772076
v 0.0102774426 0.00103626766 -0.036745546
v 0.0102975842 0.00101612605 -0.0334814854
v 0.0102569672 0.00105673827 0.0137279253
v 0.0102774426 0.00103626766 0.0137544565
v 0.0102975842 0.00101612605 0.0170185165
v 0.0104585358 0.0107546715 -0.005996346
v 0.0103106495 0.0109025577 0.00598538446
v 0.0105702253 0.000743480103 -0.0362250001
v 0.0106569 0.000656805413 -0.0359791453
v 0.0107217451 0.000591960328 -0.035720184
v 0.0107486101 0.000565095322 -0.0346321989
v 0.0107217451 0.000591960328 -0.0344798161
v 0.0106569 0.000656805413 -0.0342208548
v 0.0105702253 0.000743480103 -0.0339749999
v 0.0105702253 0.000743480103 0.0142750006
v 0.0106569 0.000656805413 0.014520853
v 0.0107217451 0.000591960328 0.0147798138
v 0.0107486101 0.000565095322 0.0158678036
v 0.0107217451 0.000591960328 0.0160201864
v 0.0106569 0.000656805413 0.0162791471
v 0.0105702253 0.000743480103 0.0165249996
v 0.0105113789 0.000802331345 -0.0363581837
v 0.0105561348 0.00075757541 -0.0339411641
v 0.0105113789 0.000802331345 0.0141418152
v 0.0105561348 0.00075757541 0.016558836
v 0.0106066032 0.010606604 -0.00600000095
v 0.0105325552 0.0106806473 -0.00599908543
v 0.0105325552 0.0106806473 0.00599908638
v 0.0107153412 0.0189831451 -0.00134970617
v 0.0106993147 0.0189991669 -0.0012474699
v 0.0106993147 0.0189991669 0.00124747086
v 0.0107326265 0.018965855 0.00145153093
v 0.0106710573 0.0190274242 -0.00104188871
v 0.0106478926 0.0190505985 -0.000835039139
v 0.0106227442 0.0190757374 -0.000522934914
v 0.0106124159 0.0190860657 -0.000314015865
v 0.010607247 0.0190912346 -0.000104715347
v 0.0106091877 0.0190892986 0.000209396362
v 0.0106169363 0.0190815453 0.000418539524
v 0.0106382271 0.0190602592 0.000731215954
v 0.010658836 0.0190396503 0.000938606739
v 0.0106845518 0.0190139297 0.00114485312
v 0.0107541462 0.000559559243 -0.0355293204
v 0.0107592054 0.000554500001 -0.0354907085
v 0.0107811972 0.000532508271 -0.0352177562
v 0.0107811972 0.000532508271 -0.0349822439
v 0.0107637926 0.000549917596 -0.0347480227
v 0.0107541462 0.000559559243 0.0149706821
v 0.0107592054 0.000554500001 0.0150092916
v 0.0107811972 0.000532508271 0.0152822428
v 0.0107811972 0.000532508271 0.0155177574
v 0.0107637926 0.000549917596 0.0157519798
v 0.0109763714 0.0102368359 -0.00597716761
v 0.0109763714 0.0102368359 0.00597716856
v 0.0109025522 0.0103106502 -0.00598538351
v 0.010754666 0.0104585365 0.00599634457
v 0.0109733959 0.0187250904 -0.00244041872
v 0.0109733959 0.0187250904 0.00244041967
v 0.0109438702 0.0187546162 -0.0023443861
v 0.0108624645 0.0188360218 -0.00205212069
v 0.0107919832 0.0189064983 -0.00175423098
v 0.010751166 0.0189473156 -0.0015529151
v 0.0107709547 0.0189275268 0.00165382433
v 0.0108377453 0.018860741 0.00195340919
v 0.0109155365 0.0187829498 0.00224763918
v 0.0109438702 0.0187546162 0.00234438705
v 0.0111970612 0.0100161365 -0.00594160748
v 0.0110500761 0.0101631264 0.00596713114
v 0.0112125918 0.0184858993 -0.00309022856
v 0.0112125918 0.0184858993 0.00309022951
v 0.0111032148 0.0185952763 -0.0028168292
v 0.0110041042 0.0186943821 -0.00253570986
v 0.0110690209 0.0186294655 0.00272394228
v 0.0111750074 0.0185234741 0.003
v 0.0113137098 -0.00282842599 -0.0375999994
v 0.0113137098 -0.00282842599 -0.0301
v 0.0113137098 -0.00282842599 0.0104000001
v 0.0113137098 -0.00282842599 0.0178999977
v 0.0114886948 0.00972450294 -0.00586888504
v 0.0114886948 0.00972450294 0.00586888599
v 0.0114161345 0.00979706802 -0.00588976336
v 0.0112702986 0.00994290389 0.00592613029
v 0.011460919 0.0182375626 -0.00361088943
v 0.011460919 0.0182375626 0.00361089039
v 0.0114168736 0.0182816128 -0.00352671099
v 0.0112910648 0.0184074215 -0.00326783371
v 0.0112512775 0.0184472088 -0.00317951632
v 0.0112512775 0.0184472088 0.00317951488
v 0.0113738724 0.0183246139 0.00344145823
v 0.0114168736 0.0182816128 0.00352671194
v 0.0117046782 0.00950852432 -0.00579555464
v 0.0115609881 0.00965221442 0.00584621954
v 0.0117463728 0.0179521088 -0.00409198952
v 0.0117463728 0.0179521088 0.00409199047
v 0.0116963478 0.0180021385 -0.00401478481
v 0.0115520903 0.0181463913 -0.00377592278
v 0.0115059944 0.0181924919 -0.00369396877
v 0.0115059944 0.0181924919 0.00369396973
v 0.0116472813 0.0180512051 0.00393635321
v 0.0116963478 0.0180021385 0.00401478338
v 0.0119878717 0.00922533073 -0.00567311239
v 0.0119878717 0.00922533073 0.00567311096
v 0.0117760321 0.0094371704 -0.00576756907
v 0.0119176479 0.00929554977 -0.00570633841
v 0.0118470284 0.00936616935 0.00573782969
v 0.0117760321 0.0094371704 0.00576757002
v 0.0119557663 0.01774272 -0.00438812208
v 0.0119557663 0.01774272 0.00438812304
v 0.0119020554 0.017796431 -0.00431603861
v 0.0117973419 0.0179011444 -0.00416794968
v 0.0118492409 0.0178492454 0.00424264002
v 0.0119020554 0.017796431 0.00431603956
v 0.0121959206 0.00901727714 -0.00556310368
v 0.0120576712 0.0091555313 0.00563815641
v 0.0122372099 0.0174612717 -0.00472806406
v 0.0122372099 0.0174612717 0.00472806501
v 0.0120658203 0.017632666 -0.00452825737
v 0.0120103594 0.0176881222 -0.00445886803
v 0.0120103594 0.0176881222 0.00445886898
v 0.0121792599 0.0175192264 0.00466287661
v 0.0124664541 0.00874674835 -0.00539276314
v 0.0124664541 0.00874674835 0.00539276409
v 0.0122643324 0.00894887008 -0.00552303028
v 0.0123996206 0.00881358184 -0.00543784571
v 0.0123322388 0.00888096847 0.00548127222
v 0.0122643324 0.00894887008 0.00552302885
v 0.0124767872 0.0172216991 -0.00497422647
v 0.0124767872 0.0172216991 0.00497422504
v 0.0122959562 0.0174025253 -0.00479181242
v 0.0124157616 0.0172827248 0.00491491127
v 0.012727923 -0.00141421281 -0.0375999994
v 0.012727923 -0.00141421281 -0.0301
v 0.012727923 -0.00141421281 0.0104000001
v 0.012727923 -0.00141421281 0.0178999977
v 0.012727923 0.00848527946 -0.00519615126
v 0.012727923 0.00848527946 0.00519615221
v 0.0125983997 0.00861479797 -0.00529768658
v 0.0126634737 0.00854972877 -0.00524771881
v 0.0126634737 0.00854972877 0.00524771738
v 0.0125327202 0.00868048705 0.00534603882
v 0.012727923 0.0169705585 -0.00519615126
v 0.012727923 0.0169705585 0.00519615221
v 0.0125385328 0.0171599487 -0.00503202391
v 0.0126641222 0.0170343594 0.00514300394
v 0.0129790541 0.0082341484 -0.00497422647
v 0.0129790541 0.0082341484 0.00497422504
v 0.0129173084 0.00829588928 -0.00503202391
v 0.0127917238 0.00842147865 0.00514300394
v 0.0129893919 0.0167090897 -0.00539276314
v 0.0129893919 0.0167090897 0.00539276409
v 0.0128574415 0.01684104 -0.00529768658
v 0.0127923676 0.0169061188 -0.00524771881
v 0.0127923676 0.0169061188 0.00524771738
v 0.0129231258 0.0167753605 0.00534603882
v 0.0132186314 0.00799457588 -0.00472806406
v 0.0132186314 0.00799457588 0.00472806501
v 0.013159885 0.00805331268 -0.00479181242
v 0.0130400797 0.00817312278 0.00491491127
v 0.0131915089 0.0165069775 -0.00552303028
v 0.0130562254 0.0166422562 -0.00543784571
v 0.0131236073 0.0165748791 0.00548127222
v 0.0131915089 0.0165069775 0.00552302885
v 0.0133900257 0.00782318153 -0.00452825737
v 0.0134454819 0.00776772537 -0.00445886803
v 0.0134454819 0.00776772537 0.00445886898
v 0.0132765814 0.00793662109 0.00466287661
v 0.0134679743 0.0162305073 -0.00567311239
v 0.0134679743 0.0162305073 0.00567311096
v 0.0132599207 0.0164385609 -0.00556310368
v 0.0133981749 0.0163003067 0.00563815641
v 0.0135537859 0.00765941657 -0.00431603861
v 0.0137094732 0.00750372924 -0.00409198952
v 0.0136066004 0.00760660209 0.00424264002
v 0.013500075 0.00771312751 0.00438812304
v 0.013679814 0.0160186771 -0.00576756907
v 0.0135381933 0.0161602882 -0.00570633841
v 0.0136088129 0.0160896686 0.00573782969
v 0.013679814 0.0160186771 0.00576757002
v 0.013994927 0.00721827544 -0.00361088943
v 0.013994927 0.00721827544 0.00361089039
v 0.0137594982 0.00745370902 -0.00401478481
v 0.013903751 0.00730944671 -0.00377592278
v 0.0139498468 0.00726335563 -0.00369396877
v 0.0139498468 0.00726335563 0.00369396973
v 0.0138085648 0.00740464248 0.00393635321
v 0.0137594982 0.00745370902 0.00401478338
v 0.0139671465 0.0157313351 -0.00586888504
v 0.0139671465 0.0157313351 0.00586888599
v 0.0137511679 0.0159473232 -0.00579555464
v 0.013894858 0.0158036331 0.00584621954
v 0.0142432543 0.00696994819 -0.00309022856
v 0.0142432543 0.00696994819 0.00309022951
v 0.0140389725 0.00717423476 -0.00352671099
v 0.0141647812 0.00704842605 -0.00326783371
v 0.0142045637 0.00700863876 -0.00317951632
v 0.0142045637 0.00700863876 0.00317951488
v 0.0140819689 0.00713123359 0.00344145823
v 0.0140389725 0.00717423476 0.00352671194
v 0.0140397068 0.0156587795 -0.00588976336
v 0.0141855475 0.0155129341 0.00592613029
v 0.0144824453 0.00673075713 -0.00244041872
v 0.0144824453 0.00673075713 0.00244041967
v 0.0143526312 0.00686057128 -0.0028168292
v 0.0144517418 0.00676146545 -0.00253570986
v 0.0143868204 0.00682638206 0.00272394228
v 0.0142808386 0.00693236388 0.003
v 0.0144794699 0.0152190117 -0.00597716761
v 0.0144794699 0.0152190117 0.00597716856
v 0.0142587801 0.0154397015 -0.00594160748
v 0.0144057652 0.0152927212 0.00596713114
v 0.0147405048 0.0064727024 -0.00134970617
v 0.0147232195 0.00648998298 0.00145153093
v 0.0145119711 0.00670123138 -0.0023443861
v 0.0145933815 0.00661982574 -0.00205212069
v 0.014663858 0.00654933967 -0.00175423098
v 0.0147046801 0.00650852241 -0.0015529151
v 0.0146848913 0.00652831115 0.00165382433
v 0.014618096 0.0065951065 0.00195340919
v 0.0145403095 0.00667289771 0.00224763918
v 0.0145119711 0.00670123138 0.00234438705
v 0.0147011753 0.014997311 -0.005996346
v 0.0147011753 0.014997311 0.00599634457
v 0.014553289 0.0151451973 -0.00598538351
v 0.0146271988 0.0150712875 0.00599177647
v 0.0147847887 0.00642841377 -0.00104188871
v 0.0148079535 0.00640524902 -0.000835039139
v 0.0148330971 0.00638011016 -0.000522934914
v 0.0148434301 0.00636977233 -0.000314015865
v 0.0148485943 0.00636460342 -0.000104715347
v 0.0148466583 0.00636654891 0.000209396362
v 0.0148389097 0.00637429275 0.000418539524
v 0.0148176189 0.0063955883 0.000731215954
v 0.01479701 0.0064161972 0.000938606739
v 0.0147565313 0.00645667114 0.00124747086
v 0.0149973103 0.0147011761 -0.005996346
v 0.0149973103 0.0147011761 0.00599634457
v 0.0148492428 0.0148492435 -0.00600000095
v 0.0149232861 0.0147752003 -0.00599908543
v 0.0149232861 0.0147752003 0.00599908638
v 0.0152190109 0.0144794754 -0.00597716761
v 0.0152190109 0.0144794754 0.00597716856
v 0.0150712868 0.0146271995 -0.0059917779
v 0.0151451918 0.0145532898 0.00598538446
v 0.0152927204 0.0144057659 -0.00596713018
v 0.0154397055 0.0142587856 0.00594160843
v 0.0157313391 0.013967152 -0.00586888504
v 0.0157313391 0.013967152 0.00586888599
v 0.0155129381 0.0141855434 -0.00592612934
v 0.0156587788 0.0140397076 0.00588976192
v 0.0158036276 0.013894854 -0.00584622097
v 0.0159473177 0.0137511639 0.00579555559
v 0.0162305113 0.0134679703 -0.00567311239
v 0.0162305113 0.0134679703 0.00567311096
v 0.0160186716 0.0136798099 -0.00576756907
v 0.0160896727 0.0136088184 -0.00573782873
v 0.0161602923 0.0135381988 0.00570633936
v 0.0160186716 0.0136798099 0.00576757002
v 0.0163003107 0.0133981708 -0.00563815546
v 0.0164385649 0.0132599167 0.00556310225
v 0.0167090937 0.0129893879 -0.00539276314
v 0.0167090937 0.0129893879 0.00539276409
v 0.0165069719 0.0131915096 -0.00552303028
v 0.0165748783 0.013123608 -0.00548127365
v 0.0166422602 0.0130562214 0.00543784666
v 0.0165069719 0.0131915096 0.00552302885
v 0.0169705626 0.012727919 -0.00519615126
v 0.0169705626 0.012727919 0.00519615221
v 0.0167753597 0.0129231266 -0.00534604025
v 0.0169061132 0.0127923683 -0.00524771881
v 0.0169061132 0.0127923683 0.00524771738
v 0.0168410393 0.012857447 0.00529768515
v 0.0172216984 0.0124767879 -0.00497422647
v 0.0172216984 0.0124767879 0.00497422504
v 0.0170343634 0.0126641182 -0.00514300299
v 0.017159948 0.0125385384 0.00503202248
v 0.0174612709 0.0122372154 -0.00472806406
v 0.0174612709 0.0122372154 0.00472806501
v 0.0172827192 0.0124157623 -0.0049149127
v 0.0174025293 0.0122959618 0.00479181337
v 0.0176776692 0.00353553809 -0.0301
v 0.0176776692 0.00353553809 0.0104000001
v 0.0177427145 0.0119557671 -0.00438812208
v 0.0177427145 0.0119557671 0.00438812304
v 0.0175192209 0.0121792606 -0.00466287565
v 0.0176881214 0.0120103649 -0.00445886803
v 0.0176881214 0.0120103649 0.00445886898
v 0.0176326653 0.0120658211 0.00452825832
v 0.0179521128 0.0117463688 -0.00409198952
v 0.0179521128 0.0117463688 0.00409199047
v 0.0177964302 0.0119020561 -0.00431603861
v 0.0178492447 0.0118492416 -0.00424264145
v 0.0179011437 0.0117973427 0.00416795063
v 0.0177964302 0.0119020561 0.00431603956
v 0.0182375666 0.011460915 -0.00361088943
v 0.0182375666 0.011460915 0.00361089039
v 0.0180021378 0.0116963486 -0.00401478481
v 0.0180512043 0.011647282 -0.00393635464
v 0.0181924912 0.0115059952 -0.00369396877
v 0.0181924912 0.0115059952 0.00369396973
v 0.0181463953 0.0115520958 0.00377592134
v 0.0180021378 0.0116963486 0.00401478338
v 0.0184858938 0.0112125877 -0.00309022856
v 0.0184858938 0.0112125877 0.00309022951
v 0.018281612 0.0114168743 -0.00352671099
v 0.0183246084 0.0113738731 -0.00344145966
v 0.018447208 0.0112512783 -0.00317951632
v 0.018447208 0.0112512783 0.00317951488
v 0.0184074207 0.0112910656 0.00326783466
v 0.018281612 0.0114168743 0.00352671194
v 0.0187250897 0.0109733967 -0.00244041872
v 0.0187250897 0.0109733967 0.00244041967
v 0.0185234781 0.0111750034 -0.00299999905
v 0.0186294647 0.0110690216 -0.00272394371
v 0.0186943813 0.011004105 0.00253570843
v 0.0185952707 0.0111032108 0.00281683016
v 0.018965859 0.0107326225 -0.00145153236
v 0.0189991709 0.0106993107 -0.0012474699
v 0.0189991709 0.0106993107 0.00124747086
v 0.0189831444 0.0107153419 0.00134970713
v 0.0187546154 0.0109438709 -0.0023443861
v 0.0187829491 0.0109155373 -0.00224764061
v 0.0188607403 0.010837746 -0.00195340824
v 0.0189275309 0.0107709507 -0.00165382338
v 0.0189473196 0.0107511619 0.00155291367
v 0.0189064976 0.0107919887 0.00175422955
v 0.018836021 0.0108624653 0.00205212164
v 0.0187546154 0.0109438709 0.00234438705
v 0.0190139338 0.0106845478 -0.00114485455
v 0.0190396496 0.0106588367 -0.000938605785
v 0.0190602585 0.0106382278 -0.000731215
v 0.0190815493 0.0106169323 -0.00041853857
v 0.0190892979 0.0106091885 -0.000209397793
v 0.0190918823 0.010606604 4.7683716e-10
v 0.0190860697 0.0106124119 0.000314016819
v 0.0190757366 0.0106227497 0.000522933483
v 0.019050593 0.0106478886 0.000835037708
v 0.0190274283 0.0106710533 0.00104188967
f 1 4 2
f 7 1 2
f 3 4 1
f 6 3 1
f 7 6 1
f 762 2 4
f 7 2 762
f 761 4 3
f 761 3 6
f 761 762 4
f 10 5 6
f 5 32 6
f 9 5 10
f 9 760 5
f 5 13 17
f 5 37 13
f 5 23 14
f 14 38 5
f 5 17 18
f 5 18 19
f 19 20 5
f 20 21 5
f 21 22 5
f 5 22 23
f 31 35 5
f 5 52 31
f 5 40 32
f 5 35 36
f 36 37 5
f 38 39 5
f 5 39 40
f 5 47 51
f 5 60 47
f 5 51 52
f 59 60 5
f 71 59 5
f 67 71 5
f 5 81 67
f 77 81 5
f 5 85 77
f 85 5 113
f 113 5 760
f 11 6 7
f 11 10 6
f 6 32 53
f 6 54 48
f 6 48 61
f 53 54 6
f 6 61 62
f 62 72 6
f 73 68 6
f 6 68 82
f 6 72 73
f 6 82 761
f 8 12 7
f 7 25 8
f 7 12 11
f 7 15 24
f 43 15 7
f 7 24 25
f 7 33 41
f 7 56 33
f 41 42 7
f 7 42 43
f 7 49 55
f 64 49 7
f 55 56 7
f 7 63 64
f 7 74 63
f 7 69 74
f 7 83 69
f 7 79 83
f 7 87 79
f 7 115 87
f 7 132 115
f 762 132 7
f 12 8 819
f 8 30 16
f 16 44 8
f 8 25 26
f 26 27 8
f 27 28 8
f 28 29 8
f 8 29 30
f 8 46 34
f 8 34 57
f 44 45 8
f 8 45 46
f 8 58 50
f 50 65 8
f 8 57 58
f 8 65 66
f 8 66 75
f 8 76 70
f 8 70 84
f 75 76 8
f 8 84 80
f 8 80 88
f 8 88 116
f 116 763 8
f 819 8 763
f 10 105 9
f 90 89 9
f 9 89 125
f 9 91 90
f 103 91 9
f 9 104 103
f 9 105 104
f 118 117 9
f 9 117 142
f 9 125 118
f 9 141 135
f 135 158 9
f 142 141 9
f 157 153 9
f 9 153 177
f 9 158 157
f 9 172 171
f 9 171 201
f 9 177 172
f 9 201 197
f 9 197 227
f 9 227 223
f 223 816 9
f 816 760 9
f 322 10 11
f 10 93 92
f 92 107 10
f 10 94 93
f 95 94 10
f 10 126 95
f 106 105 10
f 107 106 10
f 10 120 119
f 10 119 126
f 10 143 120
f 10 137 136
f 10 136 143
f 159 137 10
f 154 159 10
f 10 178 154
f 10 173 179
f 10 202 173
f 179 178 10
f 10 198 202
f 817 198 10
f 322 321 10
f 10 321 817
f 12 98 11
f 97 96 11
f 11 96 127
f 11 98 97
f 122 121 11
f 11 121 145
f 11 127 122
f 11 144 138
f 138 161 11
f 145 144 11
f 160 155 11
f 11 155 180
f 11 161 160
f 11 175 174
f 11 174 203
f 11 180 175
f 11 203 199
f 11 199 229
f 11 229 225
f 11 225 247
f 11 247 243
f 818 11 243
f 11 966 322
f 818 966 11
f 108 98 12
f 100 99 12
f 12 99 112
f 12 101 100
f 12 102 101
f 128 102 12
f 12 109 108
f 12 110 109
f 12 111 110
f 12 112 111
f 124 123 12
f 12 123 128
f 146 124 12
f 12 140 139
f 139 146 12
f 12 162 140
f 12 156 162
f 12 181 156
f 176 182 12
f 12 204 176
f 12 182 181
f 200 204 12
f 12 230 200
f 226 230 12
f 226 12 819
f 90 17 13
f 89 13 37
f 90 13 89
f 93 14 23
f 94 38 14
f 94 14 93
f 15 97 24
f 43 96 15
f 15 96 97
f 30 100 16
f 16 101 44
f 16 100 101
f 90 18 17
f 103 19 18
f 91 18 90
f 103 18 91
f 104 20 19
f 104 19 103
f 105 21 20
f 105 20 104
f 106 22 21
f 106 21 105
f 92 23 22
f 92 22 107
f 107 22 106
f 93 23 92
f 24 97 25
f 25 108 26
f 25 97 98
f 25 98 108
f 26 109 27
f 26 108 109
f 27 110 28
f 27 109 110
f 28 111 29
f 28 110 111
f 29 99 30
f 29 112 99
f 29 111 112
f 30 99 100
f 117 35 31
f 117 31 52
f 120 32 40
f 120 53 32
f 33 121 41
f 56 121 33
f 46 124 34
f 34 124 57
f 117 36 35
f 125 37 36
f 118 36 117
f 125 36 118
f 89 37 125
f 94 39 38
f 119 40 39
f 95 39 94
f 126 39 95
f 119 39 126
f 120 40 119
f 41 121 42
f 42 127 43
f 42 121 122
f 42 122 127
f 43 127 96
f 44 101 45
f 45 123 46
f 45 101 102
f 45 102 128
f 45 128 123
f 46 123 124
f 135 51 47
f 135 47 60
f 136 48 54
f 136 61 48
f 49 138 55
f 64 138 49
f 58 139 50
f 50 139 65
f 141 52 51
f 141 51 135
f 117 52 142
f 142 52 141
f 120 54 53
f 143 54 120
f 136 54 143
f 55 144 56
f 55 138 144
f 56 145 121
f 56 144 145
f 57 124 58
f 58 124 146
f 58 146 139
f 157 60 59
f 153 59 71
f 157 59 153
f 135 60 158
f 158 60 157
f 136 62 61
f 154 72 62
f 137 62 136
f 159 62 137
f 154 62 159
f 63 160 64
f 74 155 63
f 63 155 160
f 64 161 138
f 64 160 161
f 65 139 66
f 66 156 75
f 66 139 140
f 66 140 162
f 66 162 156
f 171 71 67
f 171 67 81
f 173 68 73
f 173 82 68
f 69 174 74
f 83 174 69
f 76 176 70
f 70 176 84
f 153 71 177
f 172 71 171
f 177 71 172
f 178 73 72
f 178 72 154
f 173 73 179
f 179 73 178
f 74 180 155
f 74 174 175
f 74 175 180
f 75 181 76
f 75 156 181
f 76 182 176
f 76 181 182
f 197 81 77
f 197 77 85
f 198 78 82
f 761 82 78
f 198 86 78
f 78 86 761
f 79 199 83
f 87 199 79
f 84 200 80
f 80 200 88
f 171 81 201
f 201 81 197
f 202 82 173
f 198 82 202
f 83 203 174
f 83 199 203
f 84 176 204
f 84 204 200
f 223 85 113
f 197 85 227
f 227 85 223
f 224 114 86
f 761 86 114
f 228 86 198
f 224 86 228
f 115 225 87
f 87 229 199
f 87 225 229
f 88 226 116
f 88 200 230
f 88 230 226
f 241 113 129
f 427 129 113
f 223 113 245
f 245 113 241
f 113 760 427
f 242 131 114
f 761 114 131
f 246 114 224
f 242 114 246
f 132 243 115
f 115 247 225
f 115 243 247
f 116 244 134
f 430 116 134
f 116 226 248
f 116 248 244
f 116 430 763
f 250 129 130
f 415 130 129
f 241 129 257
f 249 129 250
f 257 129 249
f 415 129 427
f 250 130 147
f 416 147 130
f 416 130 415
f 252 149 131
f 761 131 149
f 258 131 242
f 252 131 258
f 133 254 132
f 419 133 132
f 132 259 243
f 132 254 253
f 132 253 259
f 419 132 418
f 418 132 762
f 150 254 133
f 404 150 133
f 404 133 419
f 134 256 152
f 430 134 152
f 134 244 260
f 134 260 256
f 261 147 163
f 401 163 147
f 250 147 267
f 267 147 261
f 401 147 416
f 252 148 149
f 761 149 148
f 263 166 148
f 148 166 761
f 251 148 252
f 268 148 251
f 263 148 268
f 167 264 150
f 404 167 150
f 150 269 254
f 150 264 269
f 152 256 151
f 152 151 430
f 151 266 170
f 430 151 170
f 151 256 255
f 151 255 270
f 151 270 266
f 262 163 164
f 387 164 163
f 261 163 262
f 387 163 401
f 271 164 187
f 388 187 164
f 262 164 279
f 279 164 271
f 388 164 387
f 281 165 166
f 761 166 165
f 274 191 165
f 761 165 191
f 274 165 280
f 280 165 281
f 281 166 263
f 168 265 167
f 391 168 167
f 167 265 264
f 391 167 404
f 192 275 168
f 392 192 168
f 168 282 265
f 168 275 282
f 392 168 391
f 170 284 169
f 430 170 169
f 169 278 196
f 430 169 196
f 169 283 278
f 169 284 283
f 170 266 284
f 286 189 183
f 369 183 189
f 286 183 211
f 211 183 369
f 289 184 190
f 190 184 761
f 288 216 184
f 761 184 216
f 288 184 289
f 185 291 194
f 374 185 194
f 217 291 185
f 341 217 185
f 341 185 374
f 195 294 186
f 430 195 186
f 186 293 222
f 186 222 430
f 186 294 293
f 272 187 188
f 367 188 187
f 271 187 272
f 367 187 388
f 286 188 189
f 368 189 188
f 272 188 295
f 285 188 286
f 295 188 285
f 368 188 367
f 369 189 368
f 274 190 191
f 191 190 761
f 273 190 274
f 296 190 273
f 289 190 296
f 193 276 192
f 372 193 192
f 192 276 275
f 372 192 392
f 194 291 193
f 373 194 193
f 193 297 276
f 193 291 290
f 193 290 297
f 373 193 372
f 374 194 373
f 196 278 195
f 430 196 195
f 195 278 277
f 195 277 298
f 195 298 294
f 817 228 198
f 301 213 205
f 369 205 213
f 301 205 231
f 231 205 369
f 306 206 207
f 207 206 761
f 305 235 206
f 761 206 235
f 305 206 306
f 306 207 214
f 761 214 207
f 208 310 219
f 351 208 219
f 236 310 208
f 326 236 208
f 326 208 351
f 210 315 209
f 420 210 209
f 209 314 240
f 420 209 240
f 209 315 314
f 220 315 210
f 220 210 420
f 287 211 212
f 369 212 211
f 286 211 287
f 300 212 213
f 213 212 369
f 287 212 317
f 299 212 300
f 317 212 299
f 300 213 301
f 307 214 215
f 761 215 214
f 306 214 307
f 288 215 216
f 761 216 215
f 318 215 288
f 307 215 318
f 218 292 217
f 349 218 217
f 217 292 291
f 349 217 341
f 219 309 218
f 350 219 218
f 218 319 292
f 218 309 308
f 218 308 319
f 350 218 349
f 219 310 309
f 351 219 350
f 221 316 220
f 430 221 220
f 220 316 315
f 430 220 420
f 222 293 221
f 222 221 430
f 221 293 320
f 221 320 316
f 597 223 245
f 223 597 816
f 224 228 817
f 817 246 224
f 600 248 226
f 226 819 600
f 302 231 232
f 369 232 231
f 301 231 302
f 303 232 233
f 369 233 232
f 302 232 303
f 304 233 234
f 761 234 233
f 303 233 304
f 233 323 329
f 345 323 233
f 233 324 325
f 233 333 324
f 325 346 233
f 329 330 233
f 233 330 331
f 233 331 332
f 233 332 333
f 233 339 343
f 233 369 339
f 233 348 340
f 233 340 370
f 233 343 344
f 233 344 345
f 346 347 233
f 233 347 348
f 233 370 371
f 371 389 233
f 389 390 233
f 233 390 402
f 761 233 402
f 305 234 235
f 761 235 234
f 304 234 305
f 237 311 236
f 334 237 236
f 236 311 310
f 334 236 326
f 238 312 237
f 335 238 237
f 237 312 311
f 335 237 334
f 239 313 238
f 239 238 420
f 238 313 312
f 238 327 328
f 238 338 327
f 328 352 238
f 336 238 335
f 238 336 337
f 238 337 338
f 238 354 342
f 238 342 375
f 352 353 238
f 238 353 354
f 238 375 376
f 376 393 238
f 393 394 238
f 238 394 405
f 238 405 406
f 406 420 238
f 240 314 239
f 420 240 239
f 239 314 313
f 601 245 241
f 569 241 257
f 601 241 569
f 817 242 246
f 817 258 242
f 575 243 259
f 571 243 575
f 243 571 818
f 604 244 248
f 572 260 244
f 572 244 604
f 597 245 601
f 604 248 600
f 539 249 250
f 573 257 249
f 573 249 539
f 540 250 267
f 539 250 540
f 817 251 252
f 268 251 817
f 817 252 258
f 544 253 254
f 543 259 253
f 543 253 544
f 549 254 269
f 544 254 549
f 572 255 256
f 270 255 572
f 572 256 260
f 569 257 573
f 575 259 543
f 511 261 262
f 547 267 261
f 547 261 511
f 512 262 279
f 511 262 512
f 817 263 268
f 817 281 263
f 514 264 265
f 514 269 264
f 515 265 282
f 514 265 515
f 572 266 270
f 572 284 266
f 540 267 547
f 549 269 514
f 489 271 272
f 517 279 271
f 517 271 489
f 490 272 295
f 489 272 490
f 273 274 817
f 817 296 273
f 817 274 280
f 493 275 276
f 520 282 275
f 520 275 493
f 494 276 297
f 493 276 494
f 277 278 572
f 572 298 277
f 572 278 283
f 512 279 517
f 817 280 281
f 515 282 520
f 572 283 284
f 461 285 286
f 497 295 285
f 497 285 461
f 462 286 287
f 461 286 462
f 287 317 462
f 288 289 817
f 817 318 288
f 817 289 296
f 466 290 291
f 499 297 290
f 499 290 466
f 467 291 292
f 466 291 467
f 468 292 319
f 467 292 468
f 293 294 572
f 572 320 293
f 572 294 298
f 490 295 497
f 494 297 499
f 299 300 462
f 462 317 299
f 462 300 301
f 462 301 302
f 302 303 462
f 817 303 304
f 431 303 432
f 471 303 431
f 432 303 433
f 433 303 434
f 434 303 435
f 435 303 436
f 436 303 437
f 437 303 438
f 438 303 439
f 439 303 472
f 462 303 463
f 463 303 471
f 464 303 465
f 472 303 464
f 465 303 498
f 491 303 492
f 498 303 491
f 492 303 518
f 519 303 513
f 513 303 817
f 518 303 519
f 817 304 305
f 305 306 817
f 817 306 307
f 307 318 817
f 440 308 309
f 473 319 308
f 473 308 440
f 441 309 310
f 440 309 441
f 442 310 311
f 441 310 442
f 443 311 312
f 442 311 443
f 576 312 313
f 443 312 444
f 444 312 445
f 445 312 446
f 446 312 447
f 447 312 448
f 448 312 474
f 469 312 470
f 474 312 469
f 470 312 500
f 495 312 496
f 500 312 495
f 496 312 521
f 522 312 516
f 516 312 550
f 521 312 522
f 545 312 546
f 550 312 545
f 546 312 576
f 576 313 314
f 572 314 315
f 576 314 572
f 572 315 316
f 316 320 572
f 468 319 473
f 357 321 322
f 355 321 357
f 382 321 355
f 377 321 379
f 398 321 377
f 379 321 380
f 380 321 381
f 381 321 382
f 395 321 397
f 411 321 395
f 397 321 398
f 407 321 409
f 423 321 407
f 409 321 410
f 410 321 411
f 421 321 422
f 450 321 421
f 422 321 423
f 449 321 450
f 478 321 449
f 475 321 477
f 503 321 475
f 477 321 478
f 501 321 503
f 525 321 501
f 523 321 525
f 554 321 523
f 551 321 553
f 578 321 551
f 553 321 554
f 577 321 578
f 607 321 577
f 605 321 607
f 632 321 605
f 631 321 632
f 647 321 631
f 645 321 647
f 659 321 645
f 675 321 659
f 673 321 675
f 691 321 673
f 712 321 691
f 711 321 712
f 711 965 321
f 817 321 965
f 366 322 356
f 356 322 383
f 357 322 358
f 358 322 359
f 359 322 360
f 360 322 361
f 361 322 362
f 362 322 363
f 363 322 364
f 364 322 365
f 365 322 366
f 386 322 378
f 378 322 399
f 383 322 384
f 384 322 385
f 385 322 386
f 400 322 396
f 396 322 412
f 399 322 400
f 414 322 408
f 408 322 424
f 412 322 413
f 413 322 414
f 424 322 425
f 425 322 426
f 426 322 451
f 451 322 452
f 452 322 479
f 480 322 476
f 476 322 504
f 479 322 480
f 504 322 502
f 502 322 526
f 526 322 524
f 524 322 555
f 556 322 552
f 552 322 579
f 555 322 556
f 579 322 580
f 580 322 608
f 608 322 606
f 606 322 633
f 633 322 634
f 634 322 648
f 648 322 646
f 646 322 660
f 660 322 676
f 676 322 674
f 674 322 692
f 692 322 713
f 713 322 966
f 433 329 323
f 432 323 345
f 433 323 432
f 437 325 324
f 437 324 333
f 438 346 325
f 438 325 437
f 326 442 334
f 351 441 326
f 326 441 442
f 327 446 328
f 338 446 327
f 328 447 352
f 328 446 447
f 433 330 329
f 434 331 330
f 434 330 433
f 435 332 331
f 435 331 434
f 436 333 332
f 436 332 435
f 437 333 436
f 334 442 335
f 335 443 336
f 335 442 443
f 336 444 337
f 336 443 444
f 337 445 338
f 337 444 445
f 338 445 446
f 462 343 339
f 462 339 369
f 464 340 348
f 464 370 340
f 341 467 349
f 374 467 341
f 354 469 342
f 342 469 375
f 462 344 343
f 431 345 344
f 431 344 471
f 463 344 462
f 471 344 463
f 432 345 431
f 438 347 346
f 472 348 347
f 439 347 438
f 472 347 439
f 464 348 472
f 349 467 350
f 350 440 351
f 350 473 440
f 350 467 468
f 350 468 473
f 351 440 441
f 352 447 353
f 353 474 354
f 353 447 448
f 353 448 474
f 354 474 469
f 357 715 355
f 355 714 382
f 355 715 714
f 356 717 366
f 383 748 356
f 356 748 717
f 358 719 357
f 357 718 715
f 357 719 718
f 359 720 358
f 358 720 719
f 360 721 359
f 359 721 720
f 361 722 360
f 360 722 721
f 362 723 361
f 361 723 722
f 363 724 362
f 362 724 723
f 364 725 363
f 363 725 724
f 365 726 364
f 364 726 725
f 366 727 365
f 365 727 726
f 366 717 716
f 366 716 727
f 489 368 367
f 489 367 388
f 461 369 368
f 461 368 497
f 490 368 489
f 497 368 490
f 462 369 461
f 491 371 370
f 465 370 464
f 498 370 465
f 491 370 498
f 492 389 371
f 492 371 491
f 372 493 373
f 392 493 372
f 373 466 374
f 373 499 466
f 373 493 494
f 373 494 499
f 374 466 467
f 375 495 376
f 375 469 470
f 375 470 500
f 375 500 495
f 376 496 393
f 376 495 496
f 379 744 377
f 377 742 398
f 377 744 742
f 378 743 386
f 399 758 378
f 378 758 743
f 380 745 379
f 379 745 744
f 381 746 380
f 380 746 745
f 382 747 381
f 381 747 746
f 382 714 747
f 384 749 383
f 383 749 748
f 385 750 384
f 384 750 749
f 386 751 385
f 385 751 750
f 386 743 751
f 511 388 387
f 511 387 401
f 489 388 517
f 512 388 511
f 517 388 512
f 518 390 389
f 518 389 492
f 513 402 390
f 513 390 519
f 519 390 518
f 391 514 392
f 404 514 391
f 392 520 493
f 392 514 515
f 392 515 520
f 393 521 394
f 393 496 521
f 394 516 405
f 394 522 516
f 394 521 522
f 397 756 395
f 395 754 411
f 395 756 754
f 396 755 400
f 412 773 396
f 396 773 755
f 398 757 397
f 397 757 756
f 398 742 757
f 400 759 399
f 399 759 758
f 400 755 759
f 540 401 416
f 511 401 547
f 547 401 540
f 541 403 402
f 403 761 402
f 548 402 513
f 541 402 548
f 542 417 403
f 417 761 403
f 542 403 541
f 419 544 404
f 404 549 514
f 404 544 549
f 405 545 406
f 405 516 550
f 405 550 545
f 406 546 420
f 406 545 546
f 409 770 407
f 407 768 423
f 407 770 768
f 408 769 414
f 424 783 408
f 408 783 769
f 410 771 409
f 409 771 770
f 411 772 410
f 410 772 771
f 411 754 772
f 413 774 412
f 412 774 773
f 414 775 413
f 413 775 774
f 414 769 775
f 539 416 415
f 569 415 427
f 539 415 573
f 573 415 569
f 540 416 539
f 570 428 417
f 428 761 417
f 574 417 542
f 570 417 574
f 418 543 419
f 429 571 418
f 418 762 429
f 418 575 543
f 418 571 575
f 419 543 544
f 420 572 430
f 420 546 576
f 420 576 572
f 422 781 421
f 421 780 450
f 421 781 780
f 423 782 422
f 422 782 781
f 423 768 782
f 425 784 424
f 424 784 783
f 426 785 425
f 425 785 784
f 451 779 426
f 426 779 785
f 597 427 457
f 427 760 457
f 569 427 601
f 601 427 597
f 598 458 428
f 458 761 428
f 602 428 570
f 598 428 602
f 459 599 429
f 429 762 459
f 429 603 571
f 429 599 603
f 430 600 460
f 460 763 430
f 430 572 604
f 430 604 600
f 450 795 449
f 449 792 478
f 449 794 792
f 449 795 794
f 450 780 778
f 450 778 795
f 452 797 451
f 451 796 779
f 451 797 796
f 479 804 452
f 452 793 797
f 452 804 793
f 623 457 453
f 457 760 453
f 623 453 485
f 453 760 485
f 624 454 458
f 454 761 458
f 624 486 454
f 486 761 454
f 455 625 459
f 459 762 455
f 487 625 455
f 455 762 487
f 460 626 456
f 456 763 460
f 456 626 488
f 488 763 456
f 597 457 627
f 627 457 623
f 628 458 598
f 624 458 628
f 459 629 599
f 459 625 629
f 460 600 630
f 460 630 626
f 477 802 475
f 475 800 503
f 475 802 800
f 476 801 480
f 504 815 476
f 476 815 801
f 478 803 477
f 477 803 802
f 478 792 803
f 480 805 479
f 479 805 804
f 480 801 805
f 635 485 481
f 485 760 481
f 636 481 505
f 481 760 505
f 635 481 636
f 637 482 486
f 482 761 486
f 637 507 482
f 507 761 482
f 483 638 487
f 487 762 483
f 508 639 483
f 483 762 508
f 483 639 638
f 488 640 484
f 484 763 488
f 484 640 510
f 510 763 484
f 623 485 641
f 641 485 635
f 642 486 624
f 637 486 642
f 487 643 625
f 487 638 643
f 488 626 644
f 488 644 640
f 503 814 501
f 501 812 525
f 501 814 812
f 502 813 504
f 526 829 502
f 502 829 813
f 503 800 814
f 504 813 815
f 649 505 531
f 505 760 531
f 636 505 653
f 653 505 649
f 655 506 507
f 506 761 507
f 650 534 506
f 534 761 506
f 650 506 654
f 654 506 655
f 655 507 637
f 535 651 508
f 508 762 535
f 508 656 639
f 508 651 656
f 510 658 509
f 509 763 510
f 509 652 538
f 538 763 509
f 509 657 652
f 509 658 657
f 510 640 658
f 513 817 548
f 525 828 523
f 523 826 554
f 523 828 826
f 524 827 526
f 555 838 524
f 524 838 827
f 525 812 828
f 526 827 829
f 661 532 527
f 532 760 527
f 661 527 561
f 527 760 561
f 662 528 533
f 528 761 533
f 662 564 528
f 564 761 528
f 529 664 536
f 536 762 529
f 565 664 529
f 529 762 565
f 537 665 530
f 530 763 537
f 530 665 568
f 568 763 530
f 668 531 532
f 531 760 532
f 649 531 667
f 667 531 668
f 668 532 661
f 663 533 534
f 533 761 534
f 662 533 663
f 669 534 650
f 663 534 669
f 536 671 535
f 535 762 536
f 535 670 651
f 535 671 670
f 536 664 671
f 538 666 537
f 537 763 538
f 537 666 665
f 538 652 672
f 538 672 666
f 541 817 542
f 548 817 541
f 542 817 574
f 553 836 551
f 551 834 578
f 551 836 834
f 552 835 556
f 579 846 552
f 552 846 835
f 554 837 553
f 553 837 836
f 554 826 837
f 556 839 555
f 555 839 838
f 556 835 839
f 677 562 557
f 562 760 557
f 677 557 585
f 557 760 585
f 680 558 563
f 558 761 563
f 680 590 558
f 590 761 558
f 559 681 566
f 566 762 559
f 591 681 559
f 559 762 591
f 567 684 560
f 560 763 567
f 560 684 596
f 596 763 560
f 686 561 562
f 561 760 562
f 661 561 685
f 685 561 686
f 686 562 677
f 687 563 564
f 563 761 564
f 680 563 687
f 687 564 662
f 566 689 565
f 565 762 566
f 565 688 664
f 565 689 688
f 566 681 689
f 568 690 567
f 567 763 568
f 567 690 684
f 568 665 690
f 574 817 570
f 570 817 602
f 603 818 571
f 578 845 577
f 577 844 607
f 577 845 844
f 578 834 845
f 580 847 579
f 579 847 846
f 608 855 580
f 580 855 847
f 694 587 581
f 587 760 581
f 694 581 609
f 581 760 609
f 698 582 588
f 582 761 588
f 698 615 582
f 615 761 582
f 583 701 593
f 593 762 583
f 616 701 583
f 583 762 616
f 594 705 584
f 584 763 594
f 584 705 622
f 622 763 584
f 678 585 586
f 585 760 586
f 677 585 678
f 693 586 587
f 586 760 587
f 678 586 707
f 707 586 693
f 693 587 694
f 699 588 589
f 588 761 589
f 698 588 699
f 680 589 590
f 589 761 590
f 679 589 680
f 708 589 679
f 699 589 708
f 592 682 591
f 591 762 592
f 591 682 681
f 593 700 592
f 592 762 593
f 592 709 682
f 592 700 709
f 593 701 700
f 595 706 594
f 594 763 595
f 594 706 705
f 596 684 595
f 595 763 596
f 595 684 683
f 595 683 710
f 595 710 706
f 627 816 597
f 602 817 598
f 598 817 628
f 599 818 603
f 629 818 599
f 600 819 630
f 607 854 605
f 605 852 632
f 605 854 852
f 606 853 608
f 633 862 606
f 606 862 853
f 607 844 854
f 608 853 855
f 695 609 610
f 609 760 610
f 694 609 695
f 729 610 611
f 610 760 611
f 695 610 728
f 728 610 729
f 730 611 612
f 611 760 612
f 729 611 730
f 731 612 613
f 612 761 613
f 730 612 731
f 612 760 761
f 732 613 614
f 613 761 614
f 731 613 732
f 697 614 615
f 614 761 615
f 696 614 697
f 732 614 696
f 697 615 698
f 617 702 616
f 616 762 617
f 616 702 701
f 618 734 617
f 617 763 618
f 617 733 702
f 617 734 733
f 617 762 763
f 619 735 618
f 618 763 619
f 618 735 734
f 620 736 619
f 619 763 620
f 619 736 735
f 621 737 620
f 620 763 621
f 620 737 736
f 622 704 621
f 621 763 622
f 621 704 703
f 621 703 737
f 622 705 704
f 623 816 627
f 641 816 623
f 628 817 624
f 624 817 642
f 625 818 629
f 643 818 625
f 630 819 626
f 626 819 644
f 632 861 631
f 631 860 647
f 631 861 860
f 632 852 861
f 634 863 633
f 633 863 862
f 648 875 634
f 634 875 863
f 636 816 635
f 635 816 641
f 653 816 636
f 642 817 637
f 637 817 655
f 639 818 638
f 638 818 643
f 656 818 639
f 644 819 640
f 640 819 658
f 647 874 645
f 645 872 659
f 645 874 872
f 646 873 648
f 660 885 646
f 646 885 873
f 647 860 874
f 648 873 875
f 649 816 653
f 667 816 649
f 654 817 650
f 650 817 669
f 651 818 656
f 670 818 651
f 657 819 652
f 652 819 672
f 655 817 654
f 658 819 657
f 659 884 675
f 659 872 884
f 676 895 660
f 660 895 885
f 661 816 668
f 685 816 661
f 663 817 662
f 662 817 687
f 669 817 663
f 664 818 671
f 688 818 664
f 666 819 665
f 665 819 690
f 672 819 666
f 668 816 667
f 671 818 670
f 675 894 673
f 673 892 691
f 673 894 892
f 674 893 676
f 692 909 674
f 674 909 893
f 675 884 894
f 676 893 895
f 678 816 677
f 677 816 686
f 707 816 678
f 680 817 679
f 679 817 708
f 687 817 680
f 682 818 681
f 681 818 689
f 709 818 682
f 684 819 683
f 683 819 710
f 690 819 684
f 686 816 685
f 689 818 688
f 691 906 712
f 691 892 908
f 691 908 906
f 713 924 692
f 692 907 909
f 692 924 907
f 694 816 693
f 693 816 707
f 695 816 694
f 728 816 695
f 697 817 696
f 696 817 732
f 698 817 697
f 699 817 698
f 708 817 699
f 701 818 700
f 700 818 709
f 702 818 701
f 733 819 702
f 702 819 818
f 704 819 703
f 703 819 737
f 705 819 704
f 706 819 705
f 710 819 706
f 711 922 712
f 712 923 711
f 712 965 711
f 711 923 922
f 712 923 740
f 740 965 712
f 712 906 923
f 712 922 923
f 741 921 713
f 713 966 741
f 713 921 924
f 716 714 715
f 717 714 716
f 717 747 714
f 716 715 727
f 727 715 718
f 748 747 717
f 726 718 719
f 727 718 726
f 725 719 720
f 726 719 725
f 724 720 721
f 725 720 724
f 723 721 722
f 724 721 723
f 729 816 728
f 730 816 729
f 731 817 730
f 730 817 816
f 732 817 731
f 734 819 733
f 735 819 734
f 736 819 735
f 737 819 736
f 740 927 738
f 738 965 740
f 738 925 752
f 752 965 738
f 738 927 925
f 739 926 741
f 741 966 739
f 753 930 739
f 739 966 753
f 739 930 926
f 740 923 920
f 740 920 927
f 741 928 921
f 741 926 928
f 743 742 751
f 743 757 742
f 751 742 744
f 758 757 743
f 750 744 745
f 751 744 750
f 749 745 746
f 750 745 749
f 748 746 747
f 749 746 748
f 752 929 766
f 766 965 752
f 752 925 929
f 767 934 753
f 753 966 767
f 753 934 930
f 755 754 759
f 755 772 754
f 759 754 756
f 773 772 755
f 758 756 757
f 759 756 758
f 760 816 761
f 817 762 761
f 761 816 817
f 818 763 762
f 817 818 762
f 819 763 818
f 766 933 764
f 764 965 766
f 764 931 776
f 776 965 764
f 764 933 931
f 765 932 767
f 767 966 765
f 777 936 765
f 765 966 777
f 765 936 932
f 766 929 933
f 767 932 934
f 769 768 775
f 769 782 768
f 775 768 770
f 783 782 769
f 774 770 771
f 775 770 774
f 773 771 772
f 774 771 773
f 776 935 788
f 788 965 776
f 776 931 935
f 791 942 777
f 777 966 791
f 777 942 936
f 779 778 785
f 779 795 778
f 785 778 780
f 796 795 779
f 784 780 781
f 785 780 784
f 783 781 782
f 784 781 783
f 789 940 786
f 786 965 789
f 786 937 798
f 798 965 786
f 786 940 937
f 787 938 790
f 790 966 787
f 799 944 787
f 787 966 799
f 787 944 938
f 788 939 789
f 789 965 788
f 788 935 939
f 789 939 940
f 790 941 791
f 791 966 790
f 790 938 941
f 791 941 942
f 793 792 797
f 793 803 792
f 797 792 794
f 804 803 793
f 796 794 795
f 797 794 796
f 798 943 808
f 808 965 798
f 798 937 943
f 811 950 799
f 799 966 811
f 799 950 944
f 801 800 805
f 801 814 800
f 805 800 802
f 815 814 801
f 804 802 803
f 805 802 804
f 809 948 806
f 806 965 809
f 806 945 822
f 822 965 806
f 806 948 945
f 807 946 810
f 810 966 807
f 825 956 807
f 807 966 825
f 807 956 946
f 808 947 809
f 809 965 808
f 808 943 947
f 809 947 948
f 810 949 811
f 811 966 810
f 810 946 949
f 811 949 950
f 813 812 815
f 813 828 812
f 815 812 814
f 829 828 813
f 965 818 817
f 965 966 818
f 823 954 820
f 820 965 823
f 820 951 832
f 832 965 820
f 820 954 951
f 821 952 824
f 824 966 821
f 833 960 821
f 821 966 833
f 821 960 952
f 822 953 823
f 823 965 822
f 822 945 953
f 823 953 954
f 824 955 825
f 825 966 824
f 824 952 955
f 825 955 956
f 827 826 829
f 827 837 826
f 829 826 828
f 838 837 827
f 832 959 830
f 830 965 832
f 830 957 842
f 842 965 830
f 830 959 957
f 831 958 833
f 833 966 831
f 843 964 831
f 831 966 843
f 831 964 958
f 832 951 959
f 833 958 960
f 835 834 839
f 835 845 834
f 839 834 836
f 846 845 835
f 838 836 837
f 839 836 838
f 842 963 840
f 840 965 842
f 840 961 848
f 848 965 840
f 840 963 961
f 841 962 843
f 843 966 841
f 841 966 851
f 851 972 841
f 841 972 962
f 842 957 963
f 843 962 964
f 846 844 845
f 847 844 846
f 847 854 844
f 855 854 847
f 849 965 848
f 848 969 849
f 848 961 969
f 856 965 849
f 849 970 856
f 849 969 970
f 851 966 850
f 850 971 851
f 850 966 859
f 859 968 850
f 850 968 971
f 851 971 972
f 853 852 855
f 853 861 852
f 855 852 854
f 862 861 853
f 857 965 856
f 856 975 857
f 856 970 967
f 856 967 975
f 866 965 857
f 857 973 866
f 857 976 973
f 857 975 976
f 859 966 858
f 858 977 859
f 858 966 871
f 871 986 858
f 858 974 977
f 858 986 974
f 859 978 968
f 859 977 978
f 862 860 861
f 863 860 862
f 863 874 860
f 875 874 863
f 864 965 868
f 868 983 864
f 878 965 864
f 864 979 878
f 864 983 979
f 869 966 865
f 865 980 869
f 865 966 883
f 883 994 865
f 865 994 980
f 867 965 866
f 866 981 867
f 866 973 981
f 868 965 867
f 867 982 868
f 867 981 982
f 868 982 983
f 870 966 869
f 869 984 870
f 869 980 984
f 871 966 870
f 870 985 871
f 870 984 985
f 871 985 986
f 873 872 875
f 873 884 872
f 875 872 874
f 885 884 873
f 876 965 880
f 880 991 876
f 888 965 876
f 876 987 888
f 876 991 987
f 881 966 877
f 877 988 881
f 877 966 891
f 891 1000 877
f 877 1000 988
f 879 965 878
f 878 989 879
f 878 979 989
f 880 965 879
f 879 990 880
f 879 989 990
f 880 990 991
f 882 966 881
f 881 992 882
f 881 988 992
f 883 966 882
f 882 993 883
f 882 992 993
f 883 993 994
f 885 894 884
f 895 894 885
f 886 965 889
f 889 998 886
f 898 965 886
f 886 995 898
f 886 998 995
f 890 966 887
f 887 996 890
f 887 966 905
f 905 1012 887
f 887 1012 996
f 889 965 888
f 888 997 889
f 888 987 997
f 889 997 998
f 891 966 890
f 890 999 891
f 890 996 999
f 891 999 1000
f 893 892 895
f 893 908 892
f 895 892 894
f 909 908 893
f 896 965 901
f 901 1008 896
f 910 965 896
f 896 1001 910
f 896 1008 1001
f 902 966 897
f 897 1004 902
f 897 966 919
f 919 1003 897
f 897 1003 1004
f 899 965 898
f 898 1005 899
f 898 995 1005
f 900 965 899
f 899 1006 900
f 899 1005 1006
f 901 965 900
f 900 1007 901
f 900 1006 1007
f 901 1007 1008
f 903 966 902
f 902 1009 903
f 902 1004 1009
f 904 966 903
f 903 1010 904
f 903 1009 1010
f 905 966 904
f 904 1011 905
f 904 1010 1011
f 905 1011 1012
f 907 906 909
f 907 923 906
f 909 906 908
f 924 923 907
f 911 966 910
f 910 1013 911
f 910 966 965
f 910 1001 1002
f 910 1002 1013
f 912 966 911
f 911 1014 912
f 911 1013 1014
f 913 966 912
f 912 1015 913
f 912 1014 1015
f 914 966 913
f 913 1016 914
f 913 1015 1016
f 915 966 914
f 914 1017 915
f 914 1016 1017
f 916 966 915
f 915 1018 916
f 915 1017 1018
f 917 966 916
f 916 1019 917
f 916 1018 1019
f 918 966 917
f 917 1020 918
f 917 1019 1020
f 919 966 918
f 918 1021 919
f 918 1020 1021
f 919 1022 1003
f 919 1021 1022
f 920 924 921
f 920 921 927
f 923 924 920
f 927 921 928
f 923 924 922
f 925 928 926
f 925 926 929
f 927 928 925
f 929 926 930
f 929 930 933
f 933 930 934
f 931 934 932
f 931 932 935
f 933 934 931
f 935 932 936
f 935 936 939
f 939 936 942
f 937 941 938
f 937 938 943
f 940 941 937
f 943 938 944
f 939 942 940
f 940 942 941
f 943 944 947
f 947 944 950
f 945 949 946
f 945 946 953
f 948 949 945
f 953 946 956
f 947 950 948
f 948 950 949
f 951 955 952
f 951 952 959
f 954 955 951
f 959 952 960
f 953 956 954
f 954 956 955
f 957 960 958
f 957 958 963
f 959 960 957
f 963 958 964
f 961 964 962
f 961 962 969
f 963 964 961
f 969 962 972
f 967 971 968
f 967 968 975
f 970 971 967
f 975 968 978
f 969 972 970
f 970 972 971
f 973 977 974
f 973 974 981
f 976 977 973
f 981 974 986
f 975 978 976
f 976 978 977
f 979 984 980
f 979 980 989
f 983 984 979
f 989 980 994
f 981 986 982
f 982 985 983
f 982 986 985
f 983 985 984
f 987 992 988
f 987 988 997
f 991 992 987
f 997 988 1000
f 989 994 990
f 990 993 991
f 990 994 993
f 991 993 992
f 995 999 996
f 995 996 1005
f 998 999 995
f 1005 996 1012
f 997 1000 998
f 998 1000 999
f 1001 1004 1002
f 1001 1009 1004
f 1008 1009 1001
f 1002 1004 1003
f 1002 1003 1013
f 1013 1003 1022
f 1005 1012 1006
f 1006 1011 1007
f 1006 1012 1011
f 1007 1010 1008
f 1007 1011 1010
f 1008 1010 1009
f 1013 1022 1014
f 1014 1021 1015
f 1014 1022 1021
f 1015 1020 1016
f 1015 1021 1020
f 1016 1019 1017
f 1016 1020 1019
f 1017 1019 1018
