v 0.0475 0.024000001 0.0730000019
v 0.0475 0.024000001 0.049000001
v 0.0475 -0.024000001 0.049000001
v 0.0475 -0.024000001 0.0730000019
v 0.0475 -0.024000001 0.0730000019
v 0.0475 -0.024000001 0.049000001
v 0.0625 -0.024000001 0.049000001
v 0.0625 -0.024000001 0.0730000019
v 0.0625 -0.024000001 0.0730000019
v 0.0625 0.024000001 0.0730000019
v 0.0475 0.024000001 0.0730000019
v 0.0475 -0.024000001 0.0730000019
v 0.0625 -0.024000001 0.0730000019
v 0.0625 -0.024000001 0.049000001
v 0.0625 0.024000001 0.049000001
v 0.0625 0.024000001 0.0730000019
v 0.0625 0.024000001 0.0730000019
v 0.0625 0.024000001 0.049000001
v 0.0475 0.024000001 0.049000001
v 0.0475 0.024000001 0.0730000019
v 0.0625 0.024000001 0.049000001
v 0.0625 -0.024000001 0.049000001
v 0.0475 -0.024000001 0.049000001
v 0.0475 0.024000001 0.049000001
f 1 2 4
f 4 2 3
f 5 6 8
f 8 6 7
f 10 11 9
f 9 11 12
f 13 14 16
f 16 14 15
f 17 18 20
f 20 18 19
f 22 23 21
f 21 23 24
