v 0.0737458372 -0.0147500002 0.0610956717
v 0.0850041676 -0.0147500002 0.0545956707
v 0.0850041676 0.0147500002 0.0545956707
v 0.0737458372 0.0147500002 0.0610956717
v 0.0850041676 0.0147500002 0.0545956707
v 0.0782541656 0.0147500002 0.0429043293
v 0.0669958353 0.0147500002 0.0494043303
v 0.0737458372 0.0147500002 0.0610956717
v 0.0782541656 -0.0147500002 0.0429043293
v 0.0669958353 -0.0147500002 0.0494043303
v 0.0669958353 0.0147500002 0.0494043303
v 0.0782541656 0.0147500002 0.0429043293
v 0.0737458372 0.0147500002 0.0610956717
v 0.0669958353 0.0147500002 0.0494043303
v 0.0669958353 -0.0147500002 0.0494043303
v 0.0737458372 -0.0147500002 0.0610956717
v 0.0737458372 -0.0147500002 0.0610956717
v 0.0669958353 -0.0147500002 0.0494043303
v 0.0782541656 -0.0147500002 0.0429043293
v 0.0850041676 -0.0147500002 0.0545956707
v 0.0850041676 -0.0147500002 0.0545956707
v 0.0782541656 -0.0147500002 0.0429043293
v 0.0782541656 0.0147500002 0.0429043293
v 0.0850041676 0.0147500002 0.0545956707
f 2 3 1
f 1 3 4
f 5 6 8
f 8 6 7
f 10 11 9
f 9 11 12
f 13 14 16
f 16 14 15
f 17 18 20
f 20 18 19
f 21 22 24
f 24 22 23
