v 0.000664047673 -0.0148061836 0.00400000006
v 0.000664047673 -0.0148061836 0.00600000024
v 0.00372967422 -0.0132736051 0.00400000006
v 0.00374504983 -0.0133903944 0.00600000024
v 0.00371734858 -0.0130384159 0.00400000006
v 0.00372591048 -0.0132345164 0.00600000024
v 0.00373411983 -0.0127642107 0.00400000006
v 0.0037176913 -0.0129991484 0.00600000024
v 0.00374504983 -0.0126864386 0.00400000006
v 0.00373924553 -0.0127252769 0.00600000024
v 0.00394506186 -0.0140247512 0.00400000006
v 0.00399945408 -0.0141292381 0.00600000024
v 0.00383993179 -0.0137709451 0.00400000006
v 0.0039281559 -0.0139893079 0.00600000024
v 0.00376651645 -0.0135062182 0.00400000006
v 0.00382747144 -0.0137337041 0.00600000024
v 0.00375153124 -0.0134291244 0.00400000006
v 0.00375868738 -0.0134677362 0.00600000024
v 0.00377501577 -0.0125322759 0.00400000006
v 0.00375153124 -0.0126477075 0.00600000024
v 0.00385304004 -0.0122688711 0.00400000006
v 0.00378418326 -0.012494092 0.00600000024
v 0.00396258384 -0.0120169377 0.00400000006
v 0.00386679262 -0.012232089 0.00600000024
v 0.00399945408 -0.0119475949 0.00400000006
v 0.00398071647 -0.0119821048 0.00600000024
v 0.00408033967 -0.014263854 0.00400000006
v 0.00424374849 -0.014484688 0.00600000024
v 0.00401879132 -0.0141634166 0.00400000006
v 0.00405924022 -0.0142307341 0.00600000024
v 0.00410201401 -0.0117802322 0.00400000006
v 0.00401879132 -0.0119134164 0.00600000024
v 0.00424374849 -0.0115921438 0.00400000006
v 0.00412425637 -0.0117478693 0.00600000024
v 0.00426925212 -0.0145145488 0.00400000006
v 0.00449121565 -0.0147365129 0.00600000024
v 0.00432180285 -0.0115039206 0.00400000006
v 0.00426925212 -0.011562283 0.00600000024
v 0.00449121565 -0.0113403201 0.00400000006
v 0.00434883386 -0.0114754355 0.00600000024
v 0.00452107638 -0.0147620165 0.00400000006
v 0.0047419107 -0.0149254251 0.00600000024
v 0.00458211035 -0.0112653923 0.00400000006
v 0.00452107638 -0.0113148165 0.00600000024
v 0.0047419107 -0.011151408 0.00400000006
v 0.0046132648 -0.0112414861 0.00600000024
v 0.00487652689 -0.0150063109 0.00400000006
v 0.00498101354 -0.0150607026 0.00600000024
v 0.00477503031 -0.0149465251 0.00400000006
v 0.0048423484 -0.014986974 0.00600000024
v 0.00498101354 -0.0110161293 0.00400000006
v 0.00477503031 -0.0111303079 0.00600000024
v 0.00501645744 -0.0150776088 0.00400000006
v 0.00523482025 -0.0151658332 0.00600000024
v 0.00523482025 -0.0109109998 0.00400000006
v 0.00501645744 -0.0109992242 0.00600000024
v 0.00527206004 -0.015178293 0.00400000006
v 0.00549954712 -0.0152392483 0.00600000024
v 0.00549954712 -0.0108375847 0.00400000006
v 0.00527206004 -0.0108985388 0.00600000024
v 0.00557664037 -0.0152542341 0.00400000006
v 0.00573215961 -0.0152760911 0.00600000024
v 0.00553802848 -0.0152470779 0.00400000006
v 0.00553802848 -0.0152470779 0.00600000024
v 0.00573215961 -0.0108007419 0.00400000006
v 0.00553802848 -0.0108297551 0.00600000024
v 0.00596734881 -0.0201094842 -0.0230999994
v 0.00596734881 -0.0201094842 0.00400000006
v 0.00596734881 -0.0201094842 0.00600000024
v 0.00596734881 -0.0201094842 0.0129999995
v 0.00577124834 -0.0152798545 0.00400000006
v 0.00596734881 -0.0152884161 0.00600000024
v 0.00596734881 -0.0107884169 0.00400000006
v 0.00577124834 -0.0107969785 0.00600000024
v 0.00600661635 -0.015288074 0.00400000006
v 0.00624155462 -0.0152716458 0.00600000024
v 0.00624155462 -0.0108051872 0.00400000006
v 0.00600661635 -0.010788759 0.00600000024
v 0.00628048778 -0.0152665198 0.00400000006
v 0.00635805666 -0.0152542341 0.00600000024
v 0.00639666855 -0.0152470779 0.00400000006
v 0.00647348821 -0.0152307487 0.00600000024
v 0.00647348821 -0.0108460832 0.00400000006
v 0.00628048778 -0.0108103132 0.00600000024
v 0.00651167274 -0.0152215815 0.00400000006
v 0.00673689365 -0.015152725 0.00600000024
v 0.00673689365 -0.010924108 0.00400000006
v 0.00651167274 -0.0108552516 0.00600000024
v 0.00677367628 -0.0151389718 0.00400000006
v 0.00698882699 -0.0150431812 0.00600000024
v 0.00698882699 -0.0110336518 0.00400000006
v 0.0069536835 -0.0110161293 0.00600000024
v 0.00691823959 -0.0109992242 0.00400000006
v 0.00677367628 -0.01093786 0.00600000024
v 0.00702365935 -0.0150250483 0.00400000006
v 0.00705817044 -0.0150063109 0.00600000024
v 0.00709234834 -0.014986974 0.00400000006
v 0.00722553253 -0.0149037504 0.00600000024
v 0.00722553253 -0.0111730814 0.00400000006
v 0.00702365935 -0.0110517848 0.00600000024
v 0.00725789547 -0.0148815084 0.00400000006
v 0.00741362095 -0.0147620165 0.00600000024
v 0.00744348109 -0.0147365129 0.00400000006
v 0.0074728924 -0.0147104919 0.00600000024
v 0.0074728924 -0.0113663399 0.00400000006
v 0.00735258698 -0.0112653923 0.00600000024
v 0.00732143223 -0.0112414861 0.00400000006
v 0.00725789547 -0.0111953247 0.00600000024
v 0.00755833864 -0.0146294069 0.00400000006
v 0.00755833864 -0.0146294069 0.00600000024
v 0.00769094825 -0.014484688 0.00400000006
v 0.00774037302 -0.0144236553 0.00600000024
v 0.00774037302 -0.0116531777 0.00400000006
v 0.00761289418 -0.0115039206 0.00600000024
v 0.00758586287 -0.0114754355 0.00400000006
v 0.00750184476 -0.0113928699 0.00600000024
v 0.00776427865 -0.0143924999 0.00400000006
v 0.00785435736 -0.014263854 0.00600000024
v 0.00787545681 -0.0142307341 0.00400000006
v 0.00798963487 -0.0140247512 0.00600000024
v 0.00798963487 -0.0120520818 0.00400000006
v 0.00797211349 -0.0120169377 0.00600000024
v 0.00795398057 -0.0119821048 0.00400000006
v 0.00783268332 -0.0117802322 0.00600000024
v 0.00781044066 -0.0117478693 0.00400000006
v 0.00776427865 -0.0116843331 0.00600000024
v 0.00800654113 -0.0139893079 0.00400000006
v 0.00809476554 -0.0137709451 0.00600000024
v 0.00810722589 -0.0137337041 0.00400000006
v 0.00816818058 -0.0135062182 0.00600000024
v 0.00817600965 -0.0134677362 0.00400000006
v 0.00820502281 -0.0132736051 0.00600000024
v 0.00820878685 -0.0132345164 0.00400000006
v 0.00821734846 -0.0130384159 0.00600000024
v 0.00821700573 -0.0129991484 0.00400000006
v 0.0082005775 -0.0127642107 0.00600000024
v 0.0081954515 -0.0127252769 0.00400000006
v 0.00815968096 -0.0125322759 0.00600000024
v 0.00815051377 -0.012494092 0.00400000006
v 0.00808165669 -0.0122688711 0.00600000024
v 0.00806790471 -0.012232089 0.00400000006
v 0.00800654113 -0.0120875251 0.00600000024
v 0.01093786 -0.00677367628 0.00400000006
v 0.01093786 -0.00677367628 0.00600000024
v 0.0108552516 -0.00651167274 0.00400000006
v 0.0108552516 -0.00651167274 0.00600000024
v 0.0108103132 -0.00628048778 0.00400000006
v 0.0108103132 -0.00628048778 0.00600000024
v 0.010788759 -0.00600661635 0.00400000006
v 0.010788759 -0.00600661635 0.00600000024
v 0.0107969785 -0.00577124834 0.00400000006
v 0.0107969785 -0.00577124834 0.00600000024
v 0.0108297551 -0.00553802848 0.00400000006
v 0.0108297551 -0.00553802848 0.00600000024
v 0.0108985388 -0.00527206004 0.00400000006
v 0.0108985388 -0.00527206004 0.00600000024
v 0.0109992242 -0.00501645744 0.00400000006
v 0.0109992242 -0.00501645744 0.00600000024
v 0.0111953247 -0.00725789547 0.00400000006
v 0.0111953247 -0.00725789547 0.00600000024
v 0.0110517848 -0.00702365935 0.00400000006
v 0.0110517848 -0.00702365935 0.00600000024
v 0.0110161293 -0.0069536835 0.00400000006
v 0.0110161293 -0.0069536835 0.00600000024
v 0.0111303079 -0.00477503031 0.00400000006
v 0.0111303079 -0.00477503031 0.00600000024
v 0.0112414861 -0.0046132648 0.00400000006
v 0.0112414861 -0.0046132648 0.00600000024
v 0.0113928699 -0.00750184476 0.00400000006
v 0.0113928699 -0.00750184476 0.00600000024
v 0.0112653923 -0.00735258698 0.00400000006
v 0.0112653923 -0.00735258698 0.00600000024
v 0.0113148165 -0.00452107638 0.00400000006
v 0.0113148165 -0.00452107638 0.00600000024
v 0.0114754355 -0.00434883386 0.00400000006
v 0.0114754355 -0.00434883386 0.00600000024
v 0.0116843331 -0.00776427865 0.00400000006
v 0.0116843331 -0.00776427865 0.00600000024
v 0.0115039206 -0.00761289418 0.00400000006
v 0.0115039206 -0.00761289418 0.00600000024
v 0.011562283 -0.00426925212 0.00400000006
v 0.011562283 -0.00426925212 0.00600000024
v 0.0117478693 -0.00412425637 0.00400000006
v 0.0117478693 -0.00412425637 0.00600000024
v 0.0117802322 -0.00783268332 0.00400000006
v 0.0117802322 -0.00783268332 0.00600000024
v 0.0119134164 -0.00401879132 0.00400000006
v 0.0119134164 -0.00401879132 0.00600000024
v 0.0119821048 -0.00398071647 0.00400000006
v 0.0119821048 -0.00398071647 0.00600000024
v 0.0120875251 -0.00800654113 0.00400000006
v 0.0120875251 -0.00800654113 0.00600000024
v 0.0120169377 -0.00797211349 0.00400000006
v 0.0120169377 -0.00797211349 0.00600000024
v 0.012232089 -0.00386679262 0.00400000006
v 0.012232089 -0.00386679262 0.00600000024
v 0.0122688711 -0.00808165669 0.00400000006
v 0.0122688711 -0.00808165669 0.00600000024
v 0.012494092 -0.00378418326 0.00400000006
v 0.012494092 -0.00378418326 0.00600000024
v 0.0125322759 -0.00815968096 0.00400000006
v 0.0125322759 -0.00815968096 0.00600000024
v 0.0126477075 -0.00375153124 0.00400000006
v 0.0126477075 -0.00375153124 0.00600000024
v 0.0127252769 -0.00373924553 0.00400000006
v 0.0127252769 -0.00373924553 0.00600000024
v 0.0127642107 -0.0082005775 0.00400000006
v 0.0127642107 -0.0082005775 0.00600000024
v 0.0129991484 -0.0037176913 0.00400000006
v 0.0129991484 -0.0037176913 0.00600000024
v 0.0130384159 -0.00821734846 0.00400000006
v 0.0130384159 -0.00821734846 0.00600000024
v 0.0132345164 -0.00372591048 0.00400000006
v 0.0132345164 -0.00372591048 0.00600000024
v 0.0132736051 -0.00820502281 0.00400000006
v 0.0132736051 -0.00820502281 0.00600000024
v 0.0134677362 -0.00375868738 0.00400000006
v 0.0134677362 -0.00375868738 0.00600000024
v 0.0133903944 -0.00374504983 0.00400000006
v 0.0133903944 -0.00374504983 0.00600000024
v 0.0135062182 -0.00816818058 0.00400000006
v 0.0135062182 -0.00816818058 0.00600000024
v 0.0137337041 -0.00382747144 0.00400000006
v 0.0137337041 -0.00382747144 0.00600000024
v 0.0137709451 -0.00809476554 0.00400000006
v 0.0137709451 -0.00809476554 0.00600000024
v 0.0139893079 -0.0039281559 0.00400000006
v 0.0139893079 -0.0039281559 0.00600000024
v 0.0140247512 -0.00798963487 0.00400000006
v 0.0140247512 -0.00798963487 0.00600000024
v 0.0142307341 -0.00405924022 0.00400000006
v 0.0142307341 -0.00405924022 0.00600000024
v 0.0141292381 -0.00399945408 0.00400000006
v 0.0141292381 -0.00399945408 0.00600000024
v 0.014263854 -0.00785435736 0.00400000006
v 0.014263854 -0.00785435736 0.00600000024
v 0.0144236553 -0.00774037302 0.00400000006
v 0.0144236553 -0.00774037302 0.00600000024
v 0.014484688 -0.00424374849 0.00400000006
v 0.014484688 -0.00424374849 0.00600000024
v 0.0146294069 -0.00755833864 0.00400000006
v 0.0146294069 -0.00755833864 0.00600000024
v 0.0147104919 -0.0074728924 0.00400000006
v 0.0147104919 -0.0074728924 0.00600000024
v 0.0147365129 -0.00449121565 0.00400000006
v 0.0147365129 -0.00449121565 0.00600000024
v 0.0147620165 -0.00741362095 0.00400000006
v 0.0147620165 -0.00741362095 0.00600000024
v 0.0149037504 -0.00722553253 0.00400000006
v 0.0149037504 -0.00722553253 0.00600000024
v 0.014986974 -0.0048423484 0.00400000006
v 0.014986974 -0.0048423484 0.00600000024
v 0.0149254251 -0.0047419107 0.00400000006
v 0.0149254251 -0.0047419107 0.00600000024
v 0.0148061836 -0.000664047673 0.00400000006
v 0.0148061836 -0.000664047673 0.00600000024
v 0.0150063109 -0.00705817044 0.00400000006
v 0.0150063109 -0.00705817044 0.00600000024
v 0.0150431812 -0.00698882699 0.00400000006
v 0.0150431812 -0.00698882699 0.00600000024
v 0.015152725 -0.00673689365 0.00400000006
v 0.015152725 -0.00673689365 0.00600000024
v 0.0152307487 -0.00647348821 0.00400000006
v 0.0152307487 -0.00647348821 0.00600000024
v 0.0152470779 -0.00553802848 0.00400000006
v 0.0152470779 -0.00553802848 0.00600000024
v 0.0152392483 -0.00549954712 0.00400000006
v 0.0152392483 -0.00549954712 0.00600000024
v 0.0151658332 -0.00523482025 0.00400000006
v 0.0151658332 -0.00523482025 0.00600000024
v 0.0150607026 -0.00498101354 0.00400000006
v 0.0150607026 -0.00498101354 0.00600000024
v 0.0152542341 -0.00635805666 0.00400000006
v 0.0152542341 -0.00635805666 0.00600000024
v 0.0152716458 -0.00624155462 0.00400000006
v 0.0152716458 -0.00624155462 0.00600000024
v 0.0152884161 -0.00596734881 0.00400000006
v 0.0152884161 -0.00596734881 0.00600000024
v 0.0152760911 -0.00573215961 0.00400000006
v 0.0152760911 -0.00573215961 0.00600000024
v 0.0201094842 -0.00596734881 -0.0230999994
v 0.0201094842 -0.00596734881 0.00400000006
v 0.0201094842 -0.00596734881 0.00600000024
v 0.0201094842 -0.00596734881 0.0129999995
v 0.0284761095 -0.0356720376 0.0129999995
v 0.0284534454 -0.0355698013 0.0189999998
v 0.0284325671 -0.0354671836 0.0129999995
v 0.0283962011 -0.0352609372 0.0189999998
v 0.028380723 -0.0351573682 0.0129999995
v 0.0283670545 -0.0350535464 0.0189999998
v 0.0283551979 -0.0349495006 0.0129999995
v 0.0283451629 -0.034845264 0.0189999998
v 0.028336947 -0.03474087 0.0129999995
v 0.0283259845 -0.0345317268 0.0189999998
v 0.028323245 -0.0344270444 0.0129999995
v 0.0283223295 -0.034322331 0.0189999998
v 0.028323245 -0.0342176151 0.0129999995
v 0.0283305526 -0.0340083146 0.0189999998
v 0.028336947 -0.0339037919 0.0129999995
v 0.0283451629 -0.0337993956 0.0189999998
v 0.0283551979 -0.033695159 0.0129999995
v 0.0283670545 -0.0335911155 0.0189999998
v 0.028380723 -0.0334872913 0.0129999995
v 0.0284134841 -0.0332804418 0.0189999998
v 0.0284325671 -0.0331774759 0.0129999995
v 0.0284534454 -0.0330748606 0.0189999998
v 0.0284761095 -0.0329726243 0.0129999995
v 0.0284761095 -0.0329726243 0.0189999998
v 0.0287208486 -0.0364725375 0.0129999995
v 0.0286492181 -0.0362757397 0.0189999998
v 0.0286159921 -0.0361764336 0.0129999995
v 0.0285845017 -0.03607656 0.0189999998
v 0.0285547614 -0.0359761548 0.0129999995
v 0.0285005569 -0.0357738614 0.0189999998
v 0.0285005569 -0.0328707981 0.0129999995
v 0.0285267758 -0.0327694154 0.0189999998
v 0.0285547614 -0.0326685071 0.0129999995
v 0.0285845017 -0.0325680995 0.0189999998
v 0.0286159921 -0.0324682283 0.0129999995
v 0.028684175 -0.0322702098 0.0189999998
v 0.0287208486 -0.032172122 0.0129999995
v 0.0287208486 -0.032172122 0.0189999998
v 0.0289762902 -0.0370462728 0.0129999995
v 0.0289762902 -0.0370462728 0.0189999998
v 0.0289295673 -0.0369525576 0.0129999995
v 0.0288410568 -0.0367627501 0.0189999998
v 0.0287993002 -0.0366667175 0.0129999995
v 0.0287592268 -0.0365699697 0.0189999998
v 0.0287592268 -0.0320746899 0.0129999995
v 0.0287592268 -0.0320746899 0.0189999998
v 0.0287993002 -0.0319779444 0.0129999995
v 0.0288844848 -0.0317866206 0.0189999998
v 0.0289295673 -0.0316921043 0.0129999995
v 0.0289762902 -0.0315983868 0.0189999998
v 0.0292340422 -0.0375018454 0.0129999995
v 0.0292340422 -0.0375018454 0.0189999998
v 0.0291793275 -0.03741256 0.0129999995
v 0.0291261792 -0.0373223305 0.0189999998
v 0.0290746117 -0.0372311878 0.0129999995
v 0.0290246439 -0.0371391606 0.0189999998
v 0.0290246439 -0.0315055013 0.0129999995
v 0.0290246439 -0.0315055013 0.0189999998
v 0.0290746117 -0.0314134717 0.0129999995
v 0.0291261792 -0.0313223314 0.0189999998
v 0.0291793275 -0.0312321019 0.0129999995
v 0.0292340422 -0.0311428142 0.0189999998
v 0.0294682288 -0.0378490424 0.0129999995
v 0.0294074178 -0.0377637887 0.0189999998
v 0.029348104 -0.0376774883 0.0129999995
v 0.0292903066 -0.0375901651 0.0189999998
v 0.0292903066 -0.0310544968 0.0129999995
v 0.0292903066 -0.0310544968 0.0189999998
v 0.029348104 -0.0309671736 0.0129999995
v 0.0294682288 -0.0307956195 0.0189999998
v 0.0297260642 -0.0381790566 0.0129999995
v 0.0295942664 -0.0380163002 0.0189999998
v 0.0295305181 -0.0379332209 0.0129999995
v 0.0295305181 -0.0379332209 0.0189999998
v 0.0295305181 -0.030711441 0.0129999995
v 0.0296594548 -0.0305464077 0.0189999998
v 0.0297260642 -0.0304656053 0.0129999995
v 0.0297260642 -0.0304656053 0.0189999998
v 0.0299342084 -0.0384143209 0.0129999995
v 0.0297940731 -0.0382586837 0.0189999998
v 0.0297940731 -0.0303859758 0.0129999995
v 0.0298634624 -0.0303075457 0.0189999998
v 0.0299342084 -0.030230341 0.0129999995
v 0.0299342084 -0.030230341 0.0189999998
v 0.030230341 -0.0387104535 0.0129999995
v 0.030079689 -0.0385649705 0.0189999998
v 0.0300062919 -0.0384902811 0.0129999995
v 0.0300062919 -0.0384902811 0.0189999998
v 0.030079689 -0.030079689 0.0129999995
v 0.030079689 -0.030079689 0.0189999998
v 0.030230341 -0.0299342084 0.0129999995
v 0.030230341 -0.0299342084 0.0189999998
v 0.0304656053 -0.0389185977 0.0129999995
v 0.0303075457 -0.0387811995 0.0189999998
v 0.0303075457 -0.0298634624 0.0129999995
v 0.0303859758 -0.0297940731 0.0189999998
v 0.0304656053 -0.0297260642 0.0129999995
v 0.0304656053 -0.0297260642 0.0189999998
v 0.030711441 -0.0391141438 0.0129999995
v 0.0306283617 -0.0390503955 0.0189999998
v 0.0305464077 -0.0389852071 0.0129999995
v 0.0305464077 -0.0389852071 0.0189999998
v 0.0305464077 -0.0296594548 0.0129999995
v 0.030711441 -0.0295305181 0.0189999998
v 0.0309671736 -0.0392965555 0.0129999995
v 0.0309671736 -0.0392965555 0.0189999998
v 0.0308808708 -0.0392372417 0.0129999995
v 0.0307956195 -0.0391764331 0.0189999998
v 0.0307956195 -0.0294682288 0.0129999995
v 0.0309671736 -0.029348104 0.0189999998
v 0.0312321019 -0.0394653344 0.0129999995
v 0.0310544968 -0.039354353 0.0189999998
v 0.0310544968 -0.0292903066 0.0129999995
v 0.0310544968 -0.0292903066 0.0189999998
v 0.0311428142 -0.0292340422 0.0129999995
v 0.0312321019 -0.0291793275 0.0189999998
v 0.0314134717 -0.0395700479 0.0129999995
v 0.0313223314 -0.0395184827 0.0189999998
v 0.0313223314 -0.0291261792 0.0129999995
v 0.0314134717 -0.0290746117 0.0189999998
v 0.0316921043 -0.0397150946 0.0129999995
v 0.0315055013 -0.0396200156 0.0189999998
v 0.0315055013 -0.0290246439 0.0129999995
v 0.0315055013 -0.0290246439 0.0189999998
v 0.0315983868 -0.0289762902 0.0129999995
v 0.0316921043 -0.0289295673 0.0189999998
v 0.0319779444 -0.0398453593 0.0129999995
v 0.0317866206 -0.0397601771 0.0189999998
v 0.0317866206 -0.0288844848 0.0129999995
v 0.0319779444 -0.0287993002 0.0189999998
v 0.032172122 -0.0399238133 0.0129999995
v 0.0320746899 -0.0398854327 0.0189999998
v 0.0320746899 -0.0287592268 0.0129999995
v 0.0320746899 -0.0287592268 0.0189999998
v 0.032172122 -0.0287208486 0.0129999995
v 0.032172122 -0.0287208486 0.0189999998
v 0.0324682283 -0.0400286674 0.0129999995
v 0.0324682283 -0.0400286674 0.0189999998
v 0.0323689222 -0.0399954414 0.0129999995
v 0.0322702098 -0.0399604869 0.0189999998
v 0.0322702098 -0.028684175 0.0129999995
v 0.0324682283 -0.0286159921 0.0189999998
v 0.0326685071 -0.0400899029 0.0129999995
v 0.0325680995 -0.0400601578 0.0189999998
v 0.0325680995 -0.0285845017 0.0129999995
v 0.0326685071 -0.0285547614 0.0189999998
v 0.0329726243 -0.0401685524 0.0129999995
v 0.0327694154 -0.0401178837 0.0189999998
v 0.0327694154 -0.0285267758 0.0129999995
v 0.0328707981 -0.0285005569 0.0189999998
v 0.0329726243 -0.0284761095 0.0129999995
v 0.0329726243 -0.0284761095 0.0189999998
v 0.0331774759 -0.0402120924 0.0129999995
v 0.0330748606 -0.0401912165 0.0189999998
v 0.0330748606 -0.0284534454 0.0129999995
v 0.0331774759 -0.0284325671 0.0189999998
v 0.0334872913 -0.0402639389 0.0129999995
v 0.0334872913 -0.0402639389 0.0189999998
v 0.0333837247 -0.0402484608 0.0129999995
v 0.0332804418 -0.0402311754 0.0189999998
v 0.0332804418 -0.0284134841 0.0129999995
v 0.0334872913 -0.028380723 0.0189999998
v 0.033695159 -0.040289464 0.0129999995
v 0.0335911155 -0.0402776051 0.0189999998
v 0.0335911155 -0.0283670545 0.0129999995
v 0.033695159 -0.0283551979 0.0189999998
v 0.0339037919 -0.0403077126 0.0129999995
v 0.0337993956 -0.0402994967 0.0189999998
v 0.0337993956 -0.0283451629 0.0129999995
v 0.0339037919 -0.028336947 0.0189999998
v 0.0342176151 -0.0403214169 0.0129999995
v 0.0340083146 -0.0403141069 0.0189999998
v 0.0340083146 -0.0283305526 0.0129999995
v 0.0342176151 -0.028323245 0.0189999998
v 0.0344270444 -0.0403214169 0.0129999995
v 0.034322331 -0.0403223324 0.0189999998
v 0.034322331 -0.0283223295 0.0129999995
v 0.0344270444 -0.028323245 0.0189999998
v 0.0346051741 -0.0487473106 -0.0230999994
v 0.0346051741 -0.0487473106 0.00400000006
v 0.0346051741 -0.0487473106 0.00600000024
v 0.0346051741 -0.0487473106 0.0129999995
v 0.03474087 -0.0403077126 0.0129999995
v 0.0345317268 -0.040318675 0.0189999998
v 0.0345317268 -0.0283259845 0.0129999995
v 0.03474087 -0.028336947 0.0189999998
v 0.0349495006 -0.040289464 0.0129999995
v 0.034845264 -0.0402994967 0.0189999998
v 0.034845264 -0.0283451629 0.0129999995
v 0.0349495006 -0.0283551979 0.0189999998
v 0.0351573682 -0.0402639389 0.0129999995
v 0.0350535464 -0.0402776051 0.0189999998
v 0.0350535464 -0.0283670545 0.0129999995
v 0.0351573682 -0.028380723 0.0189999998
v 0.0354671836 -0.0402120924 0.0129999995
v 0.0352609372 -0.0402484608 0.0189999998
v 0.0352609372 -0.0283962011 0.0129999995
v 0.0354671836 -0.0284325671 0.0189999998
v 0.0356720376 -0.0401685524 0.0129999995
v 0.0355698013 -0.0401912165 0.0189999998
v 0.0355698013 -0.0284534454 0.0129999995
v 0.0356720376 -0.0284761095 0.0189999998
v 0.0359761548 -0.0400899029 0.0129999995
v 0.0357738614 -0.040144105 0.0189999998
v 0.0357738614 -0.0285005569 0.0129999995
v 0.0359761548 -0.0285547614 0.0189999998
v 0.0361764336 -0.0400286674 0.0129999995
v 0.03607656 -0.0400601578 0.0189999998
v 0.03607656 -0.0285845017 0.0129999995
v 0.0361764336 -0.0286159921 0.0189999998
v 0.0364725375 -0.0399238133 0.0129999995
v 0.0362757397 -0.0399954414 0.0189999998
v 0.0362757397 -0.0286492181 0.0129999995
v 0.0364725375 -0.0287208486 0.0189999998
v 0.0366667175 -0.0398453593 0.0129999995
v 0.0365699697 -0.0398854327 0.0189999998
v 0.0365699697 -0.0287592268 0.0129999995
v 0.0366667175 -0.0287993002 0.0189999998
v 0.0368580389 -0.0397601771 0.0129999995
v 0.0367627501 -0.0398036027 0.0189999998
v 0.0369525576 -0.0397150946 0.0129999995
v 0.0369525576 -0.0397150946 0.0189999998
v 0.0367627501 -0.0288410568 0.0129999995
v 0.0369525576 -0.0289295673 0.0189999998
v 0.0372311878 -0.0395700479 0.0129999995
v 0.0370462728 -0.0396683693 0.0189999998
v 0.0371391606 -0.0290246439 0.0129999995
v 0.0372311878 -0.0290746117 0.0189999998
v 0.0370462728 -0.0289762902 0.0129999995
v 0.0370462728 -0.0289762902 0.0189999998
v 0.0373223305 -0.0395184827 0.0129999995
v 0.0373223305 -0.0395184827 0.0189999998
v 0.03741256 -0.0394653344 0.0129999995
v 0.03741256 -0.0394653344 0.0189999998
v 0.0373223305 -0.0291261792 0.0129999995
v 0.03741256 -0.0291793275 0.0189999998
v 0.0376774883 -0.0392965555 0.0129999995
v 0.0375018454 -0.0394106197 0.0189999998
v 0.0375901651 -0.0292903066 0.0129999995
v 0.0376774883 -0.029348104 0.0189999998
v 0.0375018454 -0.0292340422 0.0129999995
v 0.0375018454 -0.0292340422 0.0189999998
v 0.0379332209 -0.0391141438 0.0129999995
v 0.0377637887 -0.0392372417 0.0189999998
v 0.0379332209 -0.0295305181 0.0129999995
v 0.0379332209 -0.0295305181 0.0189999998
v 0.0377637887 -0.0294074178 0.0129999995
v 0.0378490424 -0.0294682288 0.0189999998
v 0.0380163002 -0.0390503955 0.0129999995
v 0.0380163002 -0.0390503955 0.0189999998
v 0.0381790566 -0.0389185977 0.0129999995
v 0.0380982518 -0.0389852071 0.0189999998
v 0.0380163002 -0.0295942664 0.0129999995
v 0.0381790566 -0.0297260642 0.0189999998
v 0.0383371139 -0.0387811995 0.0129999995
v 0.0382586837 -0.0388505888 0.0189999998
v 0.0384902811 -0.03863837 0.0129999995
v 0.0384143209 -0.0387104535 0.0189999998
v 0.0384902811 -0.0300062919 0.0129999995
v 0.0384902811 -0.0300062919 0.0189999998
v 0.0382586837 -0.0297940731 0.0129999995
v 0.0384143209 -0.0299342084 0.0189999998
v 0.0385649705 -0.0385649705 0.0129999995
v 0.0385649705 -0.0385649705 0.0189999998
v 0.0387104535 -0.0384143209 0.0129999995
v 0.03863837 -0.0384902811 0.0189999998
v 0.0385649705 -0.030079689 0.0129999995
v 0.0387104535 -0.030230341 0.0189999998
v 0.0388505888 -0.0382586837 0.0129999995
v 0.0387811995 -0.0383371139 0.0189999998
v 0.0389852071 -0.0380982518 0.0129999995
v 0.0389185977 -0.0381790566 0.0189999998
v 0.0389852071 -0.0305464077 0.0129999995
v 0.0389852071 -0.0305464077 0.0189999998
v 0.0387811995 -0.0303075457 0.0129999995
v 0.0389185977 -0.0304656053 0.0189999998
v 0.0390503955 -0.0380163002 0.0129999995
v 0.0390503955 -0.0380163002 0.0189999998
v 0.0392372417 -0.0377637887 0.0129999995
v 0.0391141438 -0.0379332209 0.0189999998
v 0.0391764331 -0.0307956195 0.0129999995
v 0.0392372417 -0.0308808708 0.0189999998
v 0.0390503955 -0.0306283617 0.0129999995
v 0.0391141438 -0.030711441 0.0189999998
v 0.0394839072 -0.0492534494 0.00400000006
v 0.0394839072 -0.0492534494 0.00600000024
v 0.0394430113 -0.0490215158 0.00400000006
v 0.0394430113 -0.0490215158 0.00600000024
v 0.0394265842 -0.0487865782 0.00400000006
v 0.0394265842 -0.0487865782 0.00600000024
v 0.0394385672 -0.0485121202 0.00400000006
v 0.0394385672 -0.0485121202 0.00600000024
v 0.03947541 -0.0482795095 0.00400000006
v 0.03947541 -0.0482795095 0.00600000024
v 0.0394930768 -0.0482029867 0.00400000006
v 0.0394930768 -0.0482029867 0.00600000024
v 0.0394106197 -0.0375018454 0.0129999995
v 0.0392965555 -0.0376774883 0.0189999998
v 0.0394653344 -0.03741256 0.0129999995
v 0.0394653344 -0.03741256 0.0189999998
v 0.039354353 -0.0310544968 0.0129999995
v 0.0394653344 -0.0312321019 0.0189999998
v 0.0392965555 -0.0309671736 0.0129999995
v 0.0392965555 -0.0309671736 0.0189999998
v 0.0396714759 -0.0497687864 0.00400000006
v 0.0396714759 -0.0497687864 0.00600000024
v 0.0395619321 -0.0495168543 0.00400000006
v 0.0395619321 -0.0495168543 0.00600000024
v 0.0395029068 -0.0493296528 0.00400000006
v 0.0395029068 -0.0493296528 0.00600000024
v 0.0395488238 -0.0480147791 0.00400000006
v 0.0395488238 -0.0480147791 0.00600000024
v 0.0396539545 -0.047760973 0.00400000006
v 0.0396539545 -0.047760973 0.00600000024
v 0.0397476149 -0.0475884724 0.00400000006
v 0.0397476149 -0.0475884724 0.00600000024
v 0.0395184827 -0.0373223305 0.0129999995
v 0.0395184827 -0.0373223305 0.0189999998
v 0.0396683693 -0.0370462728 0.0129999995
v 0.0395700479 -0.0372311878 0.0189999998
v 0.0397150946 -0.0369525576 0.0129999995
v 0.0397150946 -0.0369525576 0.0189999998
v 0.0396200156 -0.0315055013 0.0129999995
v 0.0397150946 -0.0316921043 0.0189999998
v 0.0395184827 -0.0313223314 0.0129999995
v 0.0395700479 -0.0314134717 0.0189999998
v 0.0399084735 -0.0540506077 0.00400000006
v 0.0399084735 -0.0540506077 0.00600000024
v 0.0398109055 -0.0500054932 0.00400000006
v 0.0398109055 -0.0500054932 0.00600000024
v 0.0397681332 -0.0499396276 0.00400000006
v 0.0397681332 -0.0499396276 0.00600000024
v 0.0397892332 -0.0475218725 0.00400000006
v 0.0397892332 -0.0475218725 0.00600000024
v 0.0399781442 -0.0472711754 0.00400000006
v 0.0399781442 -0.0472711754 0.00600000024
v 0.0398036027 -0.0367627501 0.0129999995
v 0.0397601771 -0.0368580389 0.0189999998
v 0.0398854327 -0.0365699697 0.0129999995
v 0.0398453593 -0.0366667175 0.0189999998
v 0.0399954414 -0.0362757397 0.0129999995
v 0.0399238133 -0.0364725375 0.0189999998
v 0.0399604869 -0.0322702098 0.0129999995
v 0.0399954414 -0.0323689222 0.0189999998
v 0.0398854327 -0.0320746899 0.0129999995
v 0.0399238133 -0.032172122 0.0189999998
v 0.0397601771 -0.0317866206 0.0129999995
v 0.0398453593 -0.0319779444 0.0189999998
v 0.0400041628 -0.0502528524 0.00400000006
v 0.0400041628 -0.0502528524 0.00600000024
v 0.040229969 -0.0470237064 0.00400000006
v 0.040229969 -0.0470237064 0.00600000024
v 0.0400601578 -0.03607656 0.0129999995
v 0.0400286674 -0.0361764336 0.0189999998
v 0.040144105 -0.0357738614 0.0129999995
v 0.0400899029 -0.0359761548 0.0189999998
v 0.0401912165 -0.0355698013 0.0129999995
v 0.0401685524 -0.0356720376 0.0189999998
v 0.0402484608 -0.0352609372 0.0129999995
v 0.0402120924 -0.0354671836 0.0189999998
v 0.0402311754 -0.0332804418 0.0129999995
v 0.0402484608 -0.0333837247 0.0189999998
v 0.0401912165 -0.0330748606 0.0129999995
v 0.0402120924 -0.0331774759 0.0189999998
v 0.0401178837 -0.0327694154 0.0129999995
v 0.0401685524 -0.0329726243 0.0189999998
v 0.0400601578 -0.0325680995 0.0129999995
v 0.0400899029 -0.0326685071 0.0189999998
v 0.0400286674 -0.0324682283 0.0129999995
v 0.0400286674 -0.0324682283 0.0189999998
v 0.0402910042 -0.0505203342 0.00400000006
v 0.0402910042 -0.0505203342 0.00600000024
v 0.040260272 -0.0504958868 0.00400000006
v 0.040260272 -0.0504958868 0.00600000024
v 0.040483923 -0.0468391991 0.00400000006
v 0.040483923 -0.0468391991 0.00600000024
v 0.0402776051 -0.0350535464 0.0129999995
v 0.0402639389 -0.0351573682 0.0189999998
v 0.0402994967 -0.034845264 0.0129999995
v 0.040289464 -0.0349495006 0.0189999998
v 0.040318675 -0.0345317268 0.0129999995
v 0.0403077126 -0.03474087 0.0189999998
v 0.0403223324 -0.034322331 0.0129999995
v 0.0403214169 -0.0344270444 0.0189999998
v 0.0403141069 -0.0340083146 0.0129999995
v 0.0403214169 -0.0342176151 0.0189999998
v 0.0402994967 -0.0337993956 0.0129999995
v 0.0403077126 -0.0339037919 0.0189999998
v 0.0402776051 -0.0335911155 0.0129999995
v 0.040289464 -0.033695159 0.0189999998
v 0.0402639389 -0.0334872913 0.0129999995
v 0.0402639389 -0.0334872913 0.0189999998
v 0.0406547642 -0.0507520723 0.00400000006
v 0.0406547642 -0.0507520723 0.00600000024
v 0.0405174065 -0.0506759357 0.00400000006
v 0.0405174065 -0.0506759357 0.00600000024
v 0.0406199312 -0.0467606783 0.00400000006
v 0.0406199312 -0.0467606783 0.00600000024
v 0.0407253504 -0.0467081165 0.00400000006
v 0.0407253504 -0.0467081165 0.00600000024
v 0.0407610846 -0.050802784 0.00400000006
v 0.0407610846 -0.050802784 0.00600000024
v 0.0409809542 -0.0466074324 0.00400000006
v 0.0409809542 -0.0466074324 0.00600000024
v 0.041018405 -0.0508989954 0.00400000006
v 0.041018405 -0.0508989954 0.00600000024
v 0.0412469196 -0.0465386486 0.00400000006
v 0.0412469196 -0.0465386486 0.00600000024
v 0.0412855339 -0.0509631252 0.00400000006
v 0.0412855339 -0.0509631252 0.00600000024
v 0.0414801407 -0.0465058708 0.00400000006
v 0.0414801407 -0.0465058708 0.00600000024
v 0.041519289 -0.0509918261 0.00400000006
v 0.041519289 -0.0509918261 0.00600000024
v 0.041558485 -0.046500392 0.00400000006
v 0.041558485 -0.046500392 0.00600000024
v 0.0417155075 -0.0464976501 0.00400000006
v 0.0417155075 -0.0464976501 0.00600000024
v 0.0417547655 -0.0509959364 0.00400000006
v 0.0417547655 -0.0509959364 0.00600000024
v 0.0419893789 -0.046519208 0.00400000006
v 0.0419893789 -0.046519208 0.00600000024
v 0.0417547655 -0.0464986801 0.00400000006
v 0.0417547655 -0.0464986801 0.00600000024
v 0.0420282173 -0.0509696054 0.00400000006
v 0.0420282173 -0.0509696054 0.00600000024
v 0.0422205639 -0.0465641451 0.00400000006
v 0.0422205639 -0.0465641451 0.00600000024
v 0.0422585821 -0.0509206438 0.00400000006
v 0.0422585821 -0.0509206438 0.00600000024
v 0.0424825668 -0.0466467524 0.00400000006
v 0.0424825668 -0.0466467524 0.00600000024
v 0.0425191069 -0.0508334732 0.00400000006
v 0.0425191069 -0.0508334732 0.00600000024
v 0.0427325535 -0.050733943 0.00400000006
v 0.0427325535 -0.050733943 0.00600000024
v 0.0427325535 -0.0467606783 0.00400000006
v 0.0427325535 -0.0467606783 0.00600000024
v 0.0426977205 -0.0467425442 0.00400000006
v 0.0426977205 -0.0467425442 0.00600000024
v 0.0427670622 -0.0507152033 0.00400000006
v 0.0427670622 -0.0507152033 0.00600000024
v 0.0429987574 -0.0469270229 0.00400000006
v 0.0429987574 -0.0469270229 0.00600000024
v 0.043030324 -0.0505442381 0.00400000006
v 0.043030324 -0.0505442381 0.00600000024
v 0.0430922127 -0.0504958868 0.00400000006
v 0.0430922127 -0.0504958868 0.00600000024
v 0.0432392216 -0.0471287966 0.00400000006
v 0.0432392216 -0.0471287966 0.00600000024
v 0.0430922127 -0.0469987297 0.00400000006
v 0.0430922127 -0.0469987297 0.00600000024
v 0.043267231 -0.0503382969 0.00400000006
v 0.043267231 -0.0503382969 0.00600000024
v 0.0433743382 -0.0502234411 0.00400000006
v 0.0433743382 -0.0502234411 0.00600000024
v 0.0434965277 -0.0474247932 0.00400000006
v 0.0434965277 -0.0474247932 0.00600000024
v 0.0433483171 -0.0472417641 0.00400000006
v 0.0433483171 -0.0472417641 0.00600000024
v 0.0435193348 -0.0500378561 0.00400000006
v 0.0435193348 -0.0500378561 0.00600000024
v 0.0435632515 -0.0499727488 0.00400000006
v 0.0435632515 -0.0499727488 0.00600000024
v 0.0436985254 -0.0497336435 0.00400000006
v 0.0436985254 -0.0497336435 0.00600000024
v 0.0437473774 -0.047868166 0.00400000006
v 0.0437473774 -0.047868166 0.00600000024
v 0.0436810064 -0.0477258301 0.00400000006
v 0.0436810064 -0.0477258301 0.00600000024
v 0.0435415745 -0.0474891233 0.00400000006
v 0.0435415745 -0.0474891233 0.00600000024
v 0.0437624025 -0.0495901728 0.00400000006
v 0.0437624025 -0.0495901728 0.00600000024
v 0.0438036585 -0.0494798374 0.00400000006
v 0.0438036585 -0.0494798374 0.00600000024
v 0.0438770723 -0.0492151117 0.00400000006
v 0.0438770723 -0.0492151117 0.00600000024
v 0.0439139175 -0.0489824963 0.00400000006
v 0.0439139175 -0.0489824963 0.00600000024
v 0.043926239 -0.0487473106 0.00400000006
v 0.043926239 -0.0487473106 0.00600000024
v 0.0439094687 -0.0484731007 0.00400000006
v 0.0439094687 -0.0484731007 0.00600000024
v 0.0438685751 -0.0482411671 0.00400000006
v 0.0438685751 -0.0482411671 0.00600000024
v 0.0437905502 -0.0479777622 0.00400000006
v 0.0437905502 -0.0479777622 0.00600000024
v 0.0464986801 -0.0417547655 0.00400000006
v 0.0464986801 -0.0417547655 0.00600000024
v 0.0464986801 -0.0415977192 0.00400000006
v 0.0464986801 -0.0415977192 0.00600000024
v 0.0466611433 -0.0425191069 0.00400000006
v 0.0466611433 -0.0425191069 0.00600000024
v 0.0465739775 -0.0422585821 0.00400000006
v 0.0465739775 -0.0422585821 0.00600000024
v 0.0465250111 -0.0420282173 0.00400000006
v 0.0465250111 -0.0420282173 0.00600000024
v 0.046500392 -0.0417939949 0.00400000006
v 0.046500392 -0.0417939949 0.00600000024
v 0.0465027905 -0.041519289 0.00400000006
v 0.0465027905 -0.041519289 0.00600000024
v 0.0465314913 -0.0412855339 0.00400000006
v 0.0465314913 -0.0412855339 0.00600000024
v 0.0465956211 -0.041018405 0.00400000006
v 0.0465956211 -0.041018405 0.00600000024
v 0.0466918325 -0.0407610846 0.00400000006
v 0.0466918325 -0.0407610846 0.00600000024
v 0.0467425442 -0.0406547642 0.00400000006
v 0.0467425442 -0.0406547642 0.00600000024
v 0.0469503784 -0.043030324 0.00400000006
v 0.0469503784 -0.043030324 0.00600000024
v 0.0467794132 -0.0427670622 0.00400000006
v 0.0467794132 -0.0427670622 0.00600000024
v 0.0467606783 -0.0427325535 0.00400000006
v 0.0467606783 -0.0427325535 0.00600000024
v 0.0468186808 -0.0405174065 0.00400000006
v 0.0468186808 -0.0405174065 0.00600000024
v 0.0469987297 -0.040260272 0.00400000006
v 0.0469987297 -0.040260272 0.00600000024
v 0.0471563196 -0.043267231 0.00400000006
v 0.0471563196 -0.043267231 0.00600000024
v 0.0470237064 -0.0431225109 0.00400000006
v 0.0470237064 -0.0431225109 0.00600000024
v 0.0472417641 -0.0400041628 0.00400000006
v 0.0472417641 -0.0400041628 0.00600000024
v 0.0474567604 -0.0435193348 0.00400000006
v 0.0474567604 -0.0435193348 0.00600000024
v 0.0472711754 -0.0433743382 0.00400000006
v 0.0472711754 -0.0433743382 0.00600000024
v 0.0474891233 -0.0398109055 0.00400000006
v 0.0474891233 -0.0398109055 0.00600000024
v 0.0475218725 -0.0435632515 0.00400000006
v 0.0475218725 -0.0435632515 0.00600000024
v 0.0475549889 -0.0397681332 0.00400000006
v 0.0475549889 -0.0397681332 0.00600000024
v 0.0477258301 -0.0396714759 0.00400000006
v 0.0477258301 -0.0396714759 0.00600000024
v 0.0479044437 -0.0437624025 0.00400000006
v 0.0479044437 -0.0437624025 0.00600000024
v 0.047760973 -0.0436985254 0.00400000006
v 0.047760973 -0.0436985254 0.00600000024
v 0.0479777622 -0.0395619321 0.00400000006
v 0.0479777622 -0.0395619321 0.00600000024
v 0.0480147791 -0.0438036585 0.00400000006
v 0.0480147791 -0.0438036585 0.00600000024
v 0.0481649637 -0.0395029068 0.00400000006
v 0.0481649637 -0.0395029068 0.00600000024
v 0.0482411671 -0.0394839072 0.00400000006
v 0.0482411671 -0.0394839072 0.00600000024
v 0.0482795095 -0.0438770723 0.00400000006
v 0.0482795095 -0.0438770723 0.00600000024
v 0.0484731007 -0.0394430113 0.00400000006
v 0.0484731007 -0.0394430113 0.00600000024
v 0.0485121202 -0.0439139175 0.00400000006
v 0.0485121202 -0.0439139175 0.00600000024
v 0.0487473106 -0.0394262409 0.00400000006
v 0.0487473106 -0.0394262409 0.00600000024
v 0.0487473106 -0.0346051741 -0.0230999994
v 0.0487473106 -0.0346051741 0.00400000006
v 0.0487473106 -0.0346051741 0.00600000024
v 0.0487473106 -0.0346051741 0.0129999995
v 0.0487865782 -0.0439259005 0.00400000006
v 0.0487865782 -0.0439259005 0.00600000024
v 0.0489824963 -0.0394385672 0.00400000006
v 0.0489824963 -0.0394385672 0.00600000024
v 0.0490215158 -0.0439094687 0.00400000006
v 0.0490215158 -0.0439094687 0.00600000024
v 0.0492151117 -0.03947541 0.00400000006
v 0.0492151117 -0.03947541 0.00600000024
v 0.0492534494 -0.0438685751 0.00400000006
v 0.0492534494 -0.0438685751 0.00600000024
v 0.0494798374 -0.0395488238 0.00400000006
v 0.0494798374 -0.0395488238 0.00600000024
v 0.0492916346 -0.0394930768 0.00400000006
v 0.0492916346 -0.0394930768 0.00600000024
v 0.0495168543 -0.0437905502 0.00400000006
v 0.0495168543 -0.0437905502 0.00600000024
v 0.0496264553 -0.0437473774 0.00400000006
v 0.0496264553 -0.0437473774 0.00600000024
v 0.0497336435 -0.0396539545 0.00400000006
v 0.0497336435 -0.0396539545 0.00600000024
v 0.0497687864 -0.0436810064 0.00400000006
v 0.0497687864 -0.0436810064 0.00600000024
v 0.0499727488 -0.0397892332 0.00400000006
v 0.0499727488 -0.0397892332 0.00600000024
v 0.0499061441 -0.0397476149 0.00400000006
v 0.0499061441 -0.0397476149 0.00600000024
v 0.0500054932 -0.0435415745 0.00400000006
v 0.0500054932 -0.0435415745 0.00600000024
v 0.0500698233 -0.0434965277 0.00400000006
v 0.0500698233 -0.0434965277 0.00600000024
v 0.0502234411 -0.0399781442 0.00400000006
v 0.0502234411 -0.0399781442 0.00600000024
v 0.0503382969 -0.043267231 0.00400000006
v 0.0503382969 -0.043267231 0.00600000024
v 0.0503658247 -0.0432392216 0.00400000006
v 0.0503658247 -0.0432392216 0.00600000024
v 0.0504958868 -0.040260272 0.00400000006
v 0.0504958868 -0.040260272 0.00600000024
v 0.0504709101 -0.040229969 0.00400000006
v 0.0504709101 -0.040229969 0.00600000024
v 0.0505203342 -0.0430614805 0.00400000006
v 0.0505203342 -0.0430614805 0.00600000024
v 0.0505675983 -0.0429987574 0.00400000006
v 0.0505675983 -0.0429987574 0.00600000024
v 0.050733943 -0.0427325535 0.00400000006
v 0.050733943 -0.0427325535 0.00600000024
v 0.050733943 -0.0406199312 0.00400000006
v 0.050733943 -0.0406199312 0.00600000024
v 0.0506554174 -0.040483923 0.00400000006
v 0.0506554174 -0.040483923 0.00600000024
v 0.0507520723 -0.0426977205 0.00400000006
v 0.0507520723 -0.0426977205 0.00600000024
v 0.0508478642 -0.0424825668 0.00400000006
v 0.0508478642 -0.0424825668 0.00600000024
v 0.0509304762 -0.0422205639 0.00400000006
v 0.0509304762 -0.0422205639 0.00600000024
v 0.0509754133 -0.0419893789 0.00400000006
v 0.0509754133 -0.0419893789 0.00600000024
v 0.0509969664 -0.0417155075 0.00400000006
v 0.0509969664 -0.0417155075 0.00600000024
v 0.0509887457 -0.0414801407 0.00400000006
v 0.0509887457 -0.0414801407 0.00600000024
v 0.0509559679 -0.0412469196 0.00400000006
v 0.0509559679 -0.0412469196 0.00600000024
v 0.0508871841 -0.0409809542 0.00400000006
v 0.0508871841 -0.0409809542 0.00600000024
v 0.0507865 -0.0407253504 0.00400000006
v 0.0507865 -0.0407253504 0.00600000024
v 0.0540506077 -0.0399084735 0.00400000006
v 0.0540506077 -0.0399084735 0.00600000024
f 2 1 69
f 2 255 1
f 5 3 1
f 1 3 17
f 7 5 1
f 1 9 7
f 19 9 1
f 1 13 11
f 11 29 1
f 1 15 13
f 17 15 1
f 1 21 19
f 1 23 21
f 25 23 1
f 1 31 25
f 29 27 1
f 1 27 35
f 1 33 31
f 1 37 33
f 1 35 41
f 1 39 37
f 39 1 255
f 1 41 49
f 1 49 47
f 1 47 53
f 53 57 1
f 1 57 63
f 1 63 61
f 1 61 71
f 69 1 68
f 1 71 68
f 2 4 6
f 18 4 2
f 2 6 8
f 2 8 10
f 2 10 20
f 2 12 14
f 2 30 12
f 14 16 2
f 2 16 18
f 2 20 22
f 22 24 2
f 2 24 26
f 26 32 2
f 2 28 30
f 2 36 28
f 2 32 34
f 2 34 38
f 69 36 2
f 2 38 40
f 40 256 2
f 256 255 2
f 4 3 6
f 4 17 3
f 6 3 5
f 18 17 4
f 6 5 8
f 8 5 7
f 8 7 10
f 10 7 9
f 10 9 20
f 20 9 19
f 12 11 14
f 12 29 11
f 14 11 13
f 30 29 12
f 14 13 16
f 16 13 15
f 16 15 18
f 18 15 17
f 20 19 22
f 22 19 21
f 22 21 24
f 24 21 23
f 24 23 26
f 26 23 25
f 26 25 32
f 32 25 31
f 28 27 30
f 28 35 27
f 30 27 29
f 36 35 28
f 32 31 34
f 34 31 33
f 34 33 38
f 38 33 37
f 36 41 35
f 42 41 36
f 69 42 36
f 38 37 40
f 40 37 39
f 40 39 44
f 44 39 43
f 175 43 39
f 39 255 175
f 176 40 44
f 40 176 256
f 42 49 41
f 50 49 42
f 69 50 42
f 44 43 46
f 46 43 45
f 173 45 43
f 173 43 175
f 174 44 46
f 176 44 174
f 46 45 52
f 52 45 51
f 167 51 45
f 167 45 173
f 168 46 52
f 174 46 168
f 48 47 50
f 48 53 47
f 50 47 49
f 69 48 50
f 54 53 48
f 69 54 48
f 52 51 56
f 56 51 55
f 165 55 51
f 165 51 167
f 166 52 56
f 168 52 166
f 54 57 53
f 58 57 54
f 58 54 69
f 56 55 60
f 60 55 59
f 157 59 55
f 157 55 165
f 158 56 60
f 166 56 158
f 58 63 57
f 64 63 58
f 69 64 58
f 60 59 66
f 66 59 65
f 155 65 59
f 155 59 157
f 156 60 66
f 158 60 156
f 62 61 64
f 62 71 61
f 64 61 63
f 69 62 64
f 69 72 62
f 72 71 62
f 66 65 74
f 74 65 73
f 153 73 65
f 153 65 155
f 154 66 74
f 156 66 154
f 68 281 67
f 464 68 67
f 281 843 67
f 464 67 463
f 67 843 463
f 465 69 68
f 71 75 68
f 68 75 79
f 68 79 81
f 68 81 85
f 68 85 89
f 89 95 68
f 68 95 97
f 68 97 101
f 68 101 282
f 282 281 68
f 465 68 464
f 69 70 283
f 466 70 69
f 69 76 72
f 69 80 76
f 69 82 80
f 69 86 82
f 90 86 69
f 69 96 90
f 98 96 69
f 69 102 98
f 283 102 69
f 466 69 465
f 283 70 284
f 373 284 70
f 287 70 285
f 285 70 313
f 289 70 287
f 291 70 289
f 293 70 291
f 295 70 293
f 297 70 295
f 299 70 297
f 301 70 299
f 303 70 301
f 305 70 303
f 307 70 305
f 315 70 307
f 311 70 309
f 309 70 327
f 313 70 311
f 317 70 315
f 319 70 317
f 321 70 319
f 329 70 321
f 325 70 323
f 323 70 339
f 327 70 325
f 331 70 329
f 333 70 331
f 341 70 333
f 337 70 335
f 335 70 349
f 339 70 337
f 343 70 341
f 345 70 343
f 351 70 345
f 349 70 347
f 347 70 466
f 353 70 351
f 359 70 353
f 361 70 359
f 365 70 361
f 367 70 365
f 373 70 367
f 72 75 71
f 76 75 72
f 74 73 78
f 78 73 77
f 151 77 73
f 151 73 153
f 152 74 78
f 154 74 152
f 76 79 75
f 80 79 76
f 78 77 84
f 84 77 83
f 149 83 77
f 149 77 151
f 150 78 84
f 152 78 150
f 80 81 79
f 82 81 80
f 82 85 81
f 86 85 82
f 84 83 88
f 88 83 87
f 149 87 83
f 150 84 88
f 86 89 85
f 90 89 86
f 88 87 94
f 94 87 93
f 149 93 87
f 150 88 94
f 90 95 89
f 96 95 90
f 92 93 91
f 92 91 100
f 149 91 93
f 100 91 99
f 99 91 149
f 94 93 92
f 150 94 92
f 92 100 150
f 96 97 95
f 98 97 96
f 98 101 97
f 102 101 98
f 100 99 108
f 108 99 107
f 149 107 99
f 150 100 108
f 102 103 101
f 101 103 282
f 104 103 102
f 283 104 102
f 104 109 103
f 282 103 109
f 110 109 104
f 110 104 283
f 106 107 105
f 106 105 116
f 105 107 147
f 116 105 115
f 147 115 105
f 108 107 106
f 148 108 106
f 148 106 116
f 147 107 149
f 150 108 148
f 110 111 109
f 282 109 111
f 112 111 110
f 283 112 110
f 112 117 111
f 282 111 117
f 118 117 112
f 283 118 112
f 114 115 113
f 114 113 126
f 282 113 115
f 126 113 125
f 282 125 113
f 116 115 114
f 283 116 114
f 283 114 126
f 115 145 143
f 143 163 115
f 147 145 115
f 161 159 115
f 159 171 115
f 115 163 161
f 115 171 169
f 169 179 115
f 179 177 115
f 177 185 115
f 115 185 193
f 193 191 115
f 115 191 197
f 197 201 115
f 201 207 115
f 115 207 211
f 115 211 215
f 115 215 221
f 115 221 225
f 282 115 225
f 146 116 144
f 144 116 164
f 148 116 146
f 162 116 160
f 160 116 172
f 164 116 162
f 172 116 170
f 170 116 180
f 180 116 178
f 178 116 186
f 186 116 194
f 194 116 192
f 192 116 198
f 198 116 202
f 202 116 208
f 208 116 212
f 212 116 216
f 216 116 222
f 222 116 226
f 226 116 283
f 118 119 117
f 282 117 119
f 120 119 118
f 283 120 118
f 120 127 119
f 282 119 127
f 128 127 120
f 283 128 120
f 122 123 121
f 122 121 142
f 282 121 123
f 142 121 141
f 282 141 121
f 124 123 122
f 283 124 122
f 283 122 142
f 124 125 123
f 282 123 125
f 126 125 124
f 283 126 124
f 128 129 127
f 127 129 282
f 130 129 128
f 130 128 283
f 130 131 129
f 282 129 131
f 132 131 130
f 283 132 130
f 132 133 131
f 282 131 133
f 134 133 132
f 283 134 132
f 134 135 133
f 282 133 135
f 136 135 134
f 283 136 134
f 136 137 135
f 282 135 137
f 138 137 136
f 283 138 136
f 138 139 137
f 282 137 139
f 140 139 138
f 283 140 138
f 140 141 139
f 139 141 282
f 142 141 140
f 142 140 283
f 144 143 146
f 144 163 143
f 146 143 145
f 164 163 144
f 146 145 148
f 148 145 147
f 148 147 150
f 150 147 149
f 150 149 152
f 152 149 151
f 152 151 154
f 154 151 153
f 154 153 156
f 156 153 155
f 156 155 158
f 158 155 157
f 158 157 166
f 166 157 165
f 160 159 162
f 160 171 159
f 162 159 161
f 172 171 160
f 162 161 164
f 164 161 163
f 166 165 168
f 168 165 167
f 168 167 174
f 174 167 173
f 170 169 172
f 170 179 169
f 172 169 171
f 180 179 170
f 174 173 176
f 176 173 175
f 176 175 182
f 182 175 181
f 175 255 181
f 182 256 176
f 178 177 180
f 178 185 177
f 180 177 179
f 186 185 178
f 182 181 184
f 184 181 183
f 181 255 183
f 184 256 182
f 184 183 188
f 188 183 187
f 183 255 187
f 188 256 184
f 186 193 185
f 194 193 186
f 188 187 190
f 190 187 189
f 187 255 189
f 190 256 188
f 190 189 196
f 196 189 195
f 189 255 195
f 196 256 190
f 192 191 194
f 192 197 191
f 194 191 193
f 198 197 192
f 196 195 200
f 200 195 199
f 195 255 199
f 200 256 196
f 198 201 197
f 202 201 198
f 200 199 204
f 204 199 203
f 199 255 203
f 204 256 200
f 202 207 201
f 208 207 202
f 204 203 206
f 206 203 205
f 203 255 205
f 206 256 204
f 206 205 210
f 210 205 209
f 205 255 209
f 210 256 206
f 208 211 207
f 212 211 208
f 210 209 214
f 214 209 213
f 209 255 213
f 214 256 210
f 212 215 211
f 216 215 212
f 214 213 220
f 220 213 219
f 213 255 219
f 220 256 214
f 216 221 215
f 222 221 216
f 218 219 217
f 218 217 224
f 219 255 217
f 224 217 223
f 217 255 223
f 220 219 218
f 218 256 220
f 224 256 218
f 222 225 221
f 226 225 222
f 224 223 228
f 228 223 227
f 223 255 227
f 228 256 224
f 226 229 225
f 229 282 225
f 230 229 226
f 226 283 230
f 228 227 234
f 234 227 233
f 227 255 233
f 234 256 228
f 230 235 229
f 235 282 229
f 236 235 230
f 230 283 236
f 232 233 231
f 232 231 240
f 233 255 231
f 240 231 239
f 231 255 239
f 234 233 232
f 232 256 234
f 240 256 232
f 236 237 235
f 237 282 235
f 238 237 236
f 236 283 238
f 238 241 237
f 241 282 237
f 242 241 238
f 238 283 242
f 240 239 246
f 246 239 245
f 239 255 245
f 246 256 240
f 242 243 241
f 243 282 241
f 244 243 242
f 242 283 244
f 244 247 243
f 247 282 243
f 248 247 244
f 244 283 248
f 246 245 254
f 254 245 253
f 245 282 253
f 245 255 282
f 254 283 246
f 246 283 256
f 248 249 247
f 249 282 247
f 250 249 248
f 248 283 250
f 250 257 249
f 257 282 249
f 258 257 250
f 250 283 258
f 252 253 251
f 252 251 272
f 253 282 251
f 272 251 271
f 251 282 271
f 254 253 252
f 252 283 254
f 272 283 252
f 255 256 282
f 282 256 283
f 258 259 257
f 259 282 257
f 260 259 258
f 258 283 260
f 260 261 259
f 261 282 259
f 262 261 260
f 260 283 262
f 262 263 261
f 263 282 261
f 264 263 262
f 262 283 264
f 264 273 263
f 273 282 263
f 274 273 264
f 264 283 274
f 266 267 265
f 266 265 280
f 267 282 265
f 280 265 279
f 265 282 279
f 268 267 266
f 266 283 268
f 280 283 266
f 268 269 267
f 269 282 267
f 270 269 268
f 268 283 270
f 270 271 269
f 271 282 269
f 272 271 270
f 270 283 272
f 274 275 273
f 275 282 273
f 276 275 274
f 274 283 276
f 276 277 275
f 277 282 275
f 278 277 276
f 276 283 278
f 278 279 277
f 279 282 277
f 280 279 278
f 278 283 280
f 282 843 281
f 283 844 282
f 282 844 843
f 284 845 283
f 283 845 844
f 375 284 373
f 379 284 375
f 381 284 379
f 387 284 381
f 393 284 387
f 397 284 393
f 399 284 397
f 403 284 399
f 407 284 403
f 409 284 407
f 413 284 409
f 417 284 413
f 419 284 417
f 425 284 419
f 429 284 425
f 433 284 429
f 435 284 433
f 439 284 435
f 445 284 439
f 449 284 445
f 453 284 449
f 457 284 453
f 461 284 457
f 469 284 461
f 473 284 469
f 477 284 473
f 481 284 477
f 485 284 481
f 489 284 485
f 493 284 489
f 497 284 493
f 501 284 497
f 507 284 501
f 513 284 507
f 511 284 513
f 519 284 511
f 525 284 519
f 523 284 525
f 531 284 523
f 531 846 284
f 284 846 845
f 285 286 287
f 285 314 286
f 313 314 285
f 287 286 288
f 438 288 286
f 432 286 314
f 438 286 432
f 287 288 289
f 289 288 290
f 444 290 288
f 444 288 438
f 289 290 291
f 291 290 292
f 448 292 290
f 442 290 444
f 448 290 442
f 291 292 293
f 293 292 294
f 452 294 292
f 452 292 448
f 293 294 295
f 295 294 296
f 456 296 294
f 456 294 452
f 295 296 297
f 297 296 298
f 460 298 296
f 460 296 456
f 297 298 299
f 299 298 300
f 468 300 298
f 468 298 460
f 299 300 301
f 301 300 302
f 472 302 300
f 472 300 468
f 301 302 303
f 303 302 304
f 476 304 302
f 476 302 472
f 303 304 305
f 305 304 306
f 480 306 304
f 480 304 476
f 305 306 307
f 307 306 308
f 484 308 306
f 484 306 480
f 307 308 315
f 315 308 316
f 484 316 308
f 309 310 311
f 309 328 310
f 327 328 309
f 311 310 312
f 424 312 310
f 416 310 328
f 424 310 416
f 311 312 313
f 313 312 314
f 428 314 312
f 422 312 424
f 428 312 422
f 432 314 428
f 315 316 317
f 317 316 318
f 488 318 316
f 488 316 484
f 317 318 319
f 319 318 320
f 492 320 318
f 492 318 488
f 319 320 321
f 321 320 322
f 496 322 320
f 496 320 492
f 321 322 329
f 329 322 330
f 496 330 322
f 323 324 325
f 323 340 324
f 339 340 323
f 325 324 326
f 406 326 324
f 406 324 340
f 325 326 327
f 327 326 328
f 412 328 326
f 412 326 406
f 416 328 412
f 329 330 331
f 331 330 332
f 500 332 330
f 500 330 496
f 331 332 333
f 333 332 334
f 504 334 332
f 504 332 500
f 333 334 341
f 341 334 342
f 510 342 334
f 506 334 504
f 510 334 506
f 335 336 337
f 335 350 336
f 349 350 335
f 337 336 338
f 396 338 336
f 396 336 350
f 337 338 339
f 339 338 340
f 402 340 338
f 402 338 396
f 406 340 402
f 341 342 343
f 343 342 344
f 510 344 342
f 343 344 345
f 345 344 346
f 516 346 344
f 516 344 510
f 345 346 351
f 351 346 352
f 522 352 346
f 518 346 516
f 522 346 518
f 347 348 349
f 347 358 348
f 357 358 347
f 347 466 357
f 349 348 350
f 392 350 348
f 384 348 358
f 392 348 384
f 390 350 392
f 396 350 390
f 351 352 353
f 353 352 354
f 522 354 352
f 353 354 359
f 359 354 360
f 528 360 354
f 528 354 522
f 355 356 357
f 355 364 356
f 357 466 355
f 363 364 355
f 355 466 363
f 357 356 358
f 384 358 356
f 378 356 364
f 386 356 378
f 384 356 386
f 359 360 361
f 361 360 362
f 536 362 360
f 534 360 528
f 536 360 534
f 361 362 365
f 365 362 366
f 536 366 362
f 363 372 364
f 371 372 363
f 363 466 371
f 370 364 372
f 378 364 370
f 365 366 367
f 367 366 368
f 540 368 366
f 540 366 536
f 367 368 373
f 373 368 374
f 542 374 368
f 542 368 540
f 369 370 371
f 369 378 370
f 371 466 369
f 377 378 369
f 369 466 377
f 371 370 372
f 373 374 375
f 375 374 376
f 374 550 376
f 374 542 548
f 374 548 550
f 375 376 379
f 379 376 380
f 376 550 380
f 377 386 378
f 385 386 377
f 377 466 385
f 379 380 381
f 381 380 382
f 380 554 382
f 380 550 554
f 381 382 387
f 387 382 388
f 382 556 388
f 382 554 556
f 383 384 385
f 383 392 384
f 385 466 383
f 391 392 383
f 383 466 391
f 385 384 386
f 387 388 393
f 393 388 394
f 388 564 394
f 388 556 562
f 388 562 564
f 389 390 391
f 389 396 390
f 391 466 389
f 395 396 389
f 389 466 395
f 391 390 392
f 393 394 397
f 397 394 398
f 394 582 398
f 394 564 582
f 395 402 396
f 401 402 395
f 395 466 401
f 397 398 399
f 399 398 400
f 398 582 400
f 399 400 403
f 403 400 404
f 400 584 404
f 400 582 584
f 401 406 402
f 405 406 401
f 401 466 405
f 403 404 407
f 407 404 408
f 404 604 408
f 404 584 602
f 404 602 604
f 405 412 406
f 411 412 405
f 405 466 411
f 407 408 409
f 409 408 410
f 408 604 410
f 409 410 413
f 413 410 414
f 410 606 414
f 410 604 606
f 411 416 412
f 415 416 411
f 411 466 415
f 413 414 417
f 417 414 418
f 414 624 418
f 414 606 622
f 414 622 624
f 415 424 416
f 423 424 415
f 415 466 423
f 417 418 419
f 419 418 420
f 418 624 420
f 419 420 425
f 425 420 426
f 420 626 426
f 420 624 626
f 421 422 423
f 421 428 422
f 423 466 421
f 427 428 421
f 421 466 427
f 423 422 424
f 425 426 429
f 429 426 430
f 426 638 430
f 426 626 638
f 427 432 428
f 431 432 427
f 427 466 431
f 429 430 433
f 433 430 434
f 430 640 434
f 430 638 640
f 431 438 432
f 437 438 431
f 431 466 437
f 433 434 435
f 435 434 436
f 434 640 436
f 435 436 439
f 439 436 440
f 436 642 440
f 436 640 642
f 437 444 438
f 443 444 437
f 437 466 443
f 439 440 445
f 445 440 446
f 440 644 446
f 440 642 644
f 441 442 443
f 441 448 442
f 443 466 441
f 447 448 441
f 441 466 447
f 443 442 444
f 445 446 449
f 449 446 450
f 446 662 450
f 446 644 662
f 447 452 448
f 451 452 447
f 447 466 451
f 449 450 453
f 453 450 454
f 450 664 454
f 450 662 664
f 451 456 452
f 455 456 451
f 451 466 455
f 453 454 457
f 457 454 458
f 454 666 458
f 454 664 666
f 455 460 456
f 459 460 455
f 455 466 459
f 457 458 461
f 461 458 462
f 458 668 462
f 458 666 668
f 459 468 460
f 459 466 467
f 467 468 459
f 461 462 469
f 469 462 470
f 462 670 470
f 462 668 670
f 464 463 844
f 844 463 843
f 464 612 465
f 571 569 464
f 464 569 593
f 573 571 464
f 575 573 464
f 464 577 575
f 464 579 577
f 595 579 464
f 464 591 589
f 464 589 611
f 464 593 591
f 464 597 595
f 599 597 464
f 464 617 599
f 611 612 464
f 464 619 617
f 635 619 464
f 659 635 464
f 844 659 464
f 465 846 466
f 570 572 465
f 465 594 570
f 572 574 465
f 574 576 465
f 465 576 578
f 465 578 580
f 580 596 465
f 465 590 592
f 612 590 465
f 465 592 594
f 465 596 598
f 598 600 465
f 465 600 618
f 465 618 620
f 620 636 465
f 636 660 465
f 845 465 660
f 845 846 465
f 467 466 471
f 471 466 475
f 475 466 479
f 479 466 483
f 483 466 487
f 487 466 491
f 491 466 495
f 495 466 499
f 499 466 503
f 503 466 505
f 505 466 509
f 509 466 515
f 515 466 517
f 517 466 521
f 521 466 527
f 527 466 533
f 533 466 535
f 535 466 539
f 539 466 541
f 541 466 547
f 547 466 846
f 467 472 468
f 471 472 467
f 469 470 473
f 473 470 474
f 470 672 474
f 470 670 672
f 471 476 472
f 475 476 471
f 473 474 477
f 477 474 478
f 474 674 478
f 474 672 674
f 475 480 476
f 479 480 475
f 477 478 481
f 481 478 482
f 478 676 482
f 478 674 676
f 479 484 480
f 483 484 479
f 481 482 485
f 485 482 486
f 482 648 486
f 482 646 648
f 482 676 646
f 483 488 484
f 487 488 483
f 485 486 489
f 489 486 490
f 486 650 490
f 486 648 650
f 487 492 488
f 491 492 487
f 489 490 493
f 493 490 494
f 490 652 494
f 490 650 652
f 491 496 492
f 495 496 491
f 493 494 497
f 497 494 498
f 494 654 498
f 494 652 654
f 495 500 496
f 499 500 495
f 497 498 501
f 501 498 502
f 498 630 502
f 498 628 630
f 498 654 628
f 499 504 500
f 503 504 499
f 501 502 507
f 507 502 508
f 502 632 508
f 502 630 632
f 503 506 504
f 505 506 503
f 505 510 506
f 509 510 505
f 507 508 513
f 513 508 514
f 508 608 514
f 508 632 608
f 509 516 510
f 515 516 509
f 511 514 512
f 511 512 519
f 513 514 511
f 514 608 512
f 519 512 520
f 512 610 520
f 512 608 610
f 515 518 516
f 517 518 515
f 517 522 518
f 521 522 517
f 519 520 525
f 525 520 526
f 520 586 526
f 520 610 586
f 521 528 522
f 527 528 521
f 523 526 524
f 523 524 531
f 525 526 523
f 526 586 524
f 531 524 532
f 524 588 532
f 524 586 588
f 527 534 528
f 533 534 527
f 529 532 530
f 529 530 537
f 531 532 529
f 529 846 531
f 537 846 529
f 532 566 530
f 537 530 538
f 530 568 538
f 530 566 568
f 532 588 566
f 533 536 534
f 535 536 533
f 535 540 536
f 539 540 535
f 537 538 545
f 545 846 537
f 545 538 546
f 538 560 546
f 538 558 560
f 538 568 558
f 539 542 540
f 541 542 539
f 541 548 542
f 547 548 541
f 543 546 544
f 543 544 551
f 545 546 543
f 543 846 545
f 551 846 543
f 546 552 544
f 551 544 552
f 546 560 552
f 547 550 548
f 549 550 547
f 547 846 549
f 549 554 550
f 553 554 549
f 549 846 553
f 551 552 559
f 559 846 551
f 559 552 560
f 553 556 554
f 555 556 553
f 553 846 555
f 555 562 556
f 561 562 555
f 555 846 561
f 557 560 558
f 557 558 567
f 559 560 557
f 557 846 559
f 567 846 557
f 567 558 568
f 561 564 562
f 563 564 561
f 561 846 563
f 563 582 564
f 581 582 563
f 563 846 581
f 565 568 566
f 565 566 587
f 567 568 565
f 565 846 567
f 587 846 565
f 587 566 588
f 569 572 570
f 569 570 593
f 571 572 569
f 593 570 594
f 571 574 572
f 573 574 571
f 573 576 574
f 575 576 573
f 575 578 576
f 577 578 575
f 577 580 578
f 579 580 577
f 579 596 580
f 595 596 579
f 581 584 582
f 583 584 581
f 581 846 583
f 583 602 584
f 601 602 583
f 583 846 601
f 585 588 586
f 585 586 609
f 587 588 585
f 585 846 587
f 609 846 585
f 609 586 610
f 589 592 590
f 589 590 615
f 591 592 589
f 611 589 615
f 612 616 590
f 615 590 616
f 591 594 592
f 593 594 591
f 595 598 596
f 597 598 595
f 597 600 598
f 599 600 597
f 599 618 600
f 617 618 599
f 601 604 602
f 603 604 601
f 601 846 603
f 603 606 604
f 605 606 603
f 603 846 605
f 605 622 606
f 621 622 605
f 605 846 621
f 607 610 608
f 607 608 631
f 609 610 607
f 607 846 609
f 631 846 607
f 631 608 632
f 612 611 916
f 611 615 613
f 613 633 611
f 633 657 611
f 611 657 655
f 611 655 679
f 679 677 611
f 677 685 611
f 611 685 689
f 611 689 693
f 611 693 697
f 611 697 703
f 703 709 611
f 709 713 611
f 611 713 717
f 611 717 719
f 611 719 725
f 611 725 729
f 729 731 611
f 731 737 611
f 737 915 611
f 916 611 915
f 614 616 612
f 612 634 614
f 612 658 634
f 656 658 612
f 612 680 656
f 612 678 680
f 612 686 678
f 690 686 612
f 612 694 690
f 612 698 694
f 612 704 698
f 612 710 704
f 612 714 710
f 718 714 612
f 720 718 612
f 612 726 720
f 730 726 612
f 612 732 730
f 612 738 732
f 738 612 916
f 613 616 614
f 613 614 633
f 615 616 613
f 633 614 634
f 617 620 618
f 619 620 617
f 619 636 620
f 635 636 619
f 621 624 622
f 623 624 621
f 621 846 623
f 623 626 624
f 625 626 623
f 623 846 625
f 625 638 626
f 637 638 625
f 625 846 637
f 627 630 628
f 627 628 653
f 629 630 627
f 627 846 629
f 653 846 627
f 653 628 654
f 629 632 630
f 631 632 629
f 629 846 631
f 633 634 657
f 657 634 658
f 635 660 636
f 659 660 635
f 637 640 638
f 639 640 637
f 637 846 639
f 639 642 640
f 641 642 639
f 639 846 641
f 641 644 642
f 643 644 641
f 641 846 643
f 643 662 644
f 661 662 643
f 643 846 661
f 645 648 646
f 645 646 675
f 647 648 645
f 645 846 647
f 675 846 645
f 675 646 676
f 647 650 648
f 649 650 647
f 647 846 649
f 649 652 650
f 651 652 649
f 649 846 651
f 651 654 652
f 653 654 651
f 651 846 653
f 655 658 656
f 655 656 679
f 657 658 655
f 679 656 680
f 659 682 660
f 681 682 659
f 801 681 659
f 801 659 803
f 803 659 844
f 802 660 682
f 804 660 802
f 660 804 845
f 661 664 662
f 663 664 661
f 661 846 663
f 663 666 664
f 665 666 663
f 663 846 665
f 665 668 666
f 667 668 665
f 665 846 667
f 667 670 668
f 669 670 667
f 667 846 669
f 669 672 670
f 671 672 669
f 669 846 671
f 671 674 672
f 673 674 671
f 671 846 673
f 673 676 674
f 675 676 673
f 673 846 675
f 677 680 678
f 677 678 685
f 679 680 677
f 685 678 686
f 681 684 682
f 683 684 681
f 793 683 681
f 793 681 801
f 794 682 684
f 802 682 794
f 683 688 684
f 687 688 683
f 791 687 683
f 791 683 793
f 792 684 688
f 794 684 792
f 685 686 689
f 689 686 690
f 687 692 688
f 691 692 687
f 791 691 687
f 792 688 692
f 689 690 693
f 693 690 694
f 691 696 692
f 695 696 691
f 789 695 691
f 789 691 791
f 790 692 696
f 792 692 790
f 693 694 697
f 697 694 698
f 695 700 696
f 699 700 695
f 787 699 695
f 787 695 789
f 788 696 700
f 790 696 788
f 697 698 703
f 703 698 704
f 699 702 700
f 701 702 699
f 785 701 699
f 785 699 787
f 786 700 702
f 788 700 786
f 701 708 702
f 707 708 701
f 775 707 701
f 775 701 785
f 776 702 708
f 786 702 776
f 703 704 709
f 709 704 710
f 705 706 707
f 705 712 706
f 773 705 707
f 711 712 705
f 783 711 705
f 783 705 773
f 707 706 708
f 774 708 706
f 784 706 712
f 774 706 784
f 773 707 775
f 776 708 774
f 709 710 713
f 713 710 714
f 711 716 712
f 715 716 711
f 781 715 711
f 781 711 783
f 782 712 716
f 784 712 782
f 713 714 717
f 717 714 718
f 715 724 716
f 723 724 715
f 779 723 715
f 779 715 781
f 780 716 724
f 782 716 780
f 717 718 719
f 719 718 720
f 719 720 725
f 725 720 726
f 721 722 723
f 721 728 722
f 777 721 723
f 727 728 721
f 799 727 721
f 799 721 777
f 723 722 724
f 778 724 722
f 800 722 728
f 778 722 800
f 777 723 779
f 780 724 778
f 725 726 729
f 729 726 730
f 727 736 728
f 735 736 727
f 797 735 727
f 797 727 799
f 798 728 736
f 800 728 798
f 729 730 731
f 731 730 732
f 731 732 737
f 737 732 738
f 733 734 735
f 733 744 734
f 795 733 735
f 743 744 733
f 733 807 743
f 807 733 795
f 735 734 736
f 796 736 734
f 808 734 744
f 796 734 808
f 795 735 797
f 798 736 796
f 737 738 739
f 737 739 879
f 737 879 915
f 739 738 740
f 880 740 738
f 738 916 880
f 739 740 745
f 875 739 745
f 879 739 875
f 745 740 746
f 876 746 740
f 876 740 880
f 741 742 743
f 741 756 742
f 867 741 743
f 755 756 741
f 755 741 867
f 743 742 744
f 868 744 742
f 868 742 756
f 743 807 805
f 743 805 813
f 743 813 811
f 743 811 817
f 743 817 825
f 825 823 743
f 823 829 743
f 743 829 835
f 743 835 839
f 743 839 847
f 743 847 851
f 743 851 855
f 855 861 743
f 861 863 743
f 743 863 867
f 808 744 806
f 806 744 814
f 814 744 812
f 812 744 818
f 818 744 826
f 826 744 824
f 824 744 830
f 830 744 836
f 836 744 840
f 840 744 848
f 848 744 852
f 852 744 856
f 856 744 862
f 862 744 864
f 864 744 868
f 745 746 747
f 873 745 747
f 875 745 873
f 747 746 748
f 748 746 874
f 874 746 876
f 747 748 749
f 747 749 873
f 749 748 750
f 874 750 748
f 749 750 757
f 873 749 757
f 757 750 758
f 874 758 750
f 751 752 753
f 751 772 752
f 867 751 753
f 771 772 751
f 873 771 751
f 873 751 867
f 753 752 754
f 868 754 752
f 874 752 772
f 868 752 874
f 753 754 755
f 867 753 755
f 755 754 756
f 756 754 868
f 757 758 759
f 873 757 759
f 759 758 760
f 874 760 758
f 759 760 761
f 873 759 761
f 761 760 762
f 762 760 874
f 761 762 763
f 873 761 763
f 763 762 764
f 764 762 874
f 763 764 765
f 873 763 765
f 765 764 766
f 766 764 874
f 765 766 767
f 765 767 873
f 767 766 768
f 874 768 766
f 767 768 769
f 767 769 873
f 769 768 770
f 874 770 768
f 769 770 771
f 873 769 771
f 771 770 772
f 874 772 770
f 773 776 774
f 773 774 783
f 775 776 773
f 783 774 784
f 775 786 776
f 785 786 775
f 777 780 778
f 777 778 799
f 779 780 777
f 799 778 800
f 779 782 780
f 781 782 779
f 781 784 782
f 783 784 781
f 785 788 786
f 787 788 785
f 787 790 788
f 789 790 787
f 789 792 790
f 791 792 789
f 791 794 792
f 793 794 791
f 793 802 794
f 801 802 793
f 795 798 796
f 795 796 807
f 797 798 795
f 807 796 808
f 797 800 798
f 799 800 797
f 801 804 802
f 803 804 801
f 803 810 804
f 809 810 803
f 803 844 809
f 810 845 804
f 805 808 806
f 805 806 813
f 807 808 805
f 813 806 814
f 809 816 810
f 815 816 809
f 809 844 815
f 816 845 810
f 811 814 812
f 811 812 817
f 813 814 811
f 817 812 818
f 815 820 816
f 819 820 815
f 815 844 819
f 820 845 816
f 817 818 825
f 825 818 826
f 819 822 820
f 821 822 819
f 819 844 821
f 822 845 820
f 821 828 822
f 827 828 821
f 821 844 827
f 828 845 822
f 823 826 824
f 823 824 829
f 825 826 823
f 829 824 830
f 827 832 828
f 831 832 827
f 827 844 831
f 832 845 828
f 829 830 835
f 835 830 836
f 831 834 832
f 833 834 831
f 831 844 833
f 834 845 832
f 833 838 834
f 837 838 833
f 833 844 837
f 838 845 834
f 835 836 839
f 839 836 840
f 837 842 838
f 841 842 837
f 837 844 841
f 842 845 838
f 839 840 847
f 847 840 848
f 841 850 842
f 841 844 849
f 849 850 841
f 850 845 842
f 845 915 844
f 849 844 853
f 853 844 859
f 859 844 857
f 857 844 865
f 865 844 871
f 871 844 915
f 854 845 850
f 860 845 854
f 858 845 860
f 866 845 858
f 872 845 866
f 872 916 845
f 916 915 845
f 847 848 851
f 851 848 852
f 849 854 850
f 853 854 849
f 851 852 855
f 855 852 856
f 853 860 854
f 859 860 853
f 855 856 861
f 861 856 862
f 857 858 859
f 857 866 858
f 865 866 857
f 859 858 860
f 861 862 863
f 863 862 864
f 863 864 867
f 867 864 868
f 865 872 866
f 871 872 865
f 867 868 873
f 873 868 874
f 869 870 871
f 869 878 870
f 871 915 869
f 877 878 869
f 869 915 877
f 871 870 872
f 870 916 872
f 878 916 870
f 873 874 875
f 875 874 876
f 875 876 879
f 879 876 880
f 877 886 878
f 885 886 877
f 877 915 885
f 886 916 878
f 879 880 881
f 881 915 879
f 881 880 882
f 880 916 882
f 881 882 887
f 887 915 881
f 887 882 888
f 882 916 888
f 883 884 885
f 883 896 884
f 885 915 883
f 895 896 883
f 883 915 895
f 885 884 886
f 884 916 886
f 896 916 884
f 887 888 889
f 889 915 887
f 889 888 890
f 888 916 890
f 889 890 891
f 891 915 889
f 891 890 892
f 890 916 892
f 891 892 897
f 897 915 891
f 897 892 898
f 892 916 898
f 893 894 895
f 893 914 894
f 895 915 893
f 913 914 893
f 893 915 913
f 895 894 896
f 894 916 896
f 914 916 894
f 897 898 899
f 899 915 897
f 899 898 900
f 898 916 900
f 899 900 901
f 901 915 899
f 901 900 902
f 900 916 902
f 901 902 903
f 903 915 901
f 903 902 904
f 902 916 904
f 903 904 905
f 905 915 903
f 905 904 906
f 904 916 906
f 905 906 907
f 907 915 905
f 907 906 908
f 906 916 908
f 907 908 909
f 909 915 907
f 909 908 910
f 908 916 910
f 909 910 911
f 911 915 909
f 911 910 912
f 910 916 912
f 911 912 913
f 913 915 911
f 913 912 914
f 912 916 914
