v -0.0540506077 0.0399084735 0.00400000006
v -0.0540506077 0.0399084735 0.00600000024
v -0.0507865 0.0407253504 0.00400000006
v -0.0507865 0.0407253504 0.00600000024
v -0.0508871841 0.0409809542 0.00400000006
v -0.0508871841 0.0409809542 0.00600000024
v -0.0509559679 0.0412469196 0.00400000006
v -0.0509559679 0.0412469196 0.00600000024
v -0.0509887457 0.0414801407 0.00400000006
v -0.0509887457 0.0414801407 0.00600000024
v -0.0509969664 0.0417155075 0.00400000006
v -0.0509969664 0.0417155075 0.00600000024
v -0.0509754133 0.0419893789 0.00400000006
v -0.0509754133 0.0419893789 0.00600000024
v -0.0509304762 0.0422205639 0.00400000006
v -0.0509304762 0.0422205639 0.00600000024
v -0.0508478642 0.0424825668 0.00400000006
v -0.0508478642 0.0424825668 0.00600000024
v -0.0507520723 0.0426977205 0.00400000006
v -0.0507520723 0.0426977205 0.00600000024
v -0.0506554174 0.040483923 0.00400000006
v -0.0506554174 0.040483923 0.00600000024
v -0.050733943 0.0406199312 0.00400000006
v -0.050733943 0.0406199312 0.00600000024
v -0.050733943 0.0427325535 0.00400000006
v -0.050733943 0.0427325535 0.00600000024
v -0.0505675983 0.0429987574 0.00400000006
v -0.0505675983 0.0429987574 0.00600000024
v -0.0505203342 0.0430614805 0.00400000006
v -0.0505203342 0.0430614805 0.00600000024
v -0.0504709101 0.040229969 0.00400000006
v -0.0504709101 0.040229969 0.00600000024
v -0.0504958868 0.040260272 0.00400000006
v -0.0504958868 0.040260272 0.00600000024
v -0.0503658247 0.0432392216 0.00400000006
v -0.0503658247 0.0432392216 0.00600000024
v -0.0503382969 0.043267231 0.00400000006
v -0.0503382969 0.043267231 0.00600000024
v -0.0502234411 0.0399781442 0.00400000006
v -0.0502234411 0.0399781442 0.00600000024
v -0.0500698233 0.0434965277 0.00400000006
v -0.0500698233 0.0434965277 0.00600000024
v -0.0500054932 0.0435415745 0.00400000006
v -0.0500054932 0.0435415745 0.00600000024
v -0.0499061441 0.0397476149 0.00400000006
v -0.0499061441 0.0397476149 0.00600000024
v -0.0499727488 0.0397892332 0.00400000006
v -0.0499727488 0.0397892332 0.00600000024
v -0.0497687864 0.0436810064 0.00400000006
v -0.0497687864 0.0436810064 0.00600000024
v -0.0497336435 0.0396539545 0.00400000006
v -0.0497336435 0.0396539545 0.00600000024
v -0.0496264553 0.0437473774 0.00400000006
v -0.0496264553 0.0437473774 0.00600000024
v -0.0495168543 0.0437905502 0.00400000006
v -0.0495168543 0.0437905502 0.00600000024
v -0.0492916346 0.0394930768 0.00400000006
v -0.0492916346 0.0394930768 0.00600000024
v -0.0494798374 0.0395488238 0.00400000006
v -0.0494798374 0.0395488238 0.00600000024
v -0.0492534494 0.0438685751 0.00400000006
v -0.0492534494 0.0438685751 0.00600000024
v -0.0492151117 0.03947541 0.00400000006
v -0.0492151117 0.03947541 0.00600000024
v -0.0490215158 0.0439094687 0.00400000006
v -0.0490215158 0.0439094687 0.00600000024
v -0.0489824963 0.0394385672 0.00400000006
v -0.0489824963 0.0394385672 0.00600000024
v -0.0487865782 0.0439259005 0.00400000006
v -0.0487865782 0.0439259005 0.00600000024
v -0.0487473106 0.0346051741 -0.0230999994
v -0.0487473106 0.0346051741 0.00400000006
v -0.0487473106 0.0346051741 0.00600000024
v -0.0487473106 0.0346051741 0.0129999995
v -0.0487473106 0.0394262409 0.00400000006
v -0.0487473106 0.0394262409 0.00600000024
v -0.0485121202 0.0439139175 0.00400000006
v -0.0485121202 0.0439139175 0.00600000024
v -0.0484731007 0.0394430113 0.00400000006
v -0.0484731007 0.0394430113 0.00600000024
v -0.0482795095 0.0438770723 0.00400000006
v -0.0482795095 0.0438770723 0.00600000024
v -0.0482411671 0.0394839072 0.00400000006
v -0.0482411671 0.0394839072 0.00600000024
v -0.0481649637 0.0395029068 0.00400000006
v -0.0481649637 0.0395029068 0.00600000024
v -0.0480147791 0.0438036585 0.00400000006
v -0.0480147791 0.0438036585 0.00600000024
v -0.0479777622 0.0395619321 0.00400000006
v -0.0479777622 0.0395619321 0.00600000024
v -0.047760973 0.0436985254 0.00400000006
v -0.047760973 0.0436985254 0.00600000024
v -0.0479044437 0.0437624025 0.00400000006
v -0.0479044437 0.0437624025 0.00600000024
v -0.0477258301 0.0396714759 0.00400000006
v -0.0477258301 0.0396714759 0.00600000024
v -0.0475549889 0.0397681332 0.00400000006
v -0.0475549889 0.0397681332 0.00600000024
v -0.0475218725 0.0435632515 0.00400000006
v -0.0475218725 0.0435632515 0.00600000024
v -0.0474891233 0.0398109055 0.00400000006
v -0.0474891233 0.0398109055 0.00600000024
v -0.0472711754 0.0433743382 0.00400000006
v -0.0472711754 0.0433743382 0.00600000024
v -0.0474567604 0.0435193348 0.00400000006
v -0.0474567604 0.0435193348 0.00600000024
v -0.0472417641 0.0400041628 0.00400000006
v -0.0472417641 0.0400041628 0.00600000024
v -0.0470237064 0.0431225109 0.00400000006
v -0.0470237064 0.0431225109 0.00600000024
v -0.0471563196 0.043267231 0.00400000006
v -0.0471563196 0.043267231 0.00600000024
v -0.0469987297 0.040260272 0.00400000006
v -0.0469987297 0.040260272 0.00600000024
v -0.0468186808 0.0405174065 0.00400000006
v -0.0468186808 0.0405174065 0.00600000024
v -0.0467606783 0.0427325535 0.00400000006
v -0.0467606783 0.0427325535 0.00600000024
v -0.0467794132 0.0427670622 0.00400000006
v -0.0467794132 0.0427670622 0.00600000024
v -0.0469503784 0.043030324 0.00400000006
v -0.0469503784 0.043030324 0.00600000024
v -0.0467425442 0.0406547642 0.00400000006
v -0.0467425442 0.0406547642 0.00600000024
v -0.0466918325 0.0407610846 0.00400000006
v -0.0466918325 0.0407610846 0.00600000024
v -0.0465956211 0.041018405 0.00400000006
v -0.0465956211 0.041018405 0.00600000024
v -0.0465314913 0.0412855339 0.00400000006
v -0.0465314913 0.0412855339 0.00600000024
v -0.0465027905 0.041519289 0.00400000006
v -0.0465027905 0.041519289 0.00600000024
v -0.046500392 0.0417939949 0.00400000006
v -0.046500392 0.0417939949 0.00600000024
v -0.0465250111 0.0420282173 0.00400000006
v -0.0465250111 0.0420282173 0.00600000024
v -0.0465739775 0.0422585821 0.00400000006
v -0.0465739775 0.0422585821 0.00600000024
v -0.0466611433 0.0425191069 0.00400000006
v -0.0466611433 0.0425191069 0.00600000024
v -0.0464986801 0.0415977192 0.00400000006
v -0.0464986801 0.0415977192 0.00600000024
v -0.0464986801 0.0417547655 0.00400000006
v -0.0464986801 0.0417547655 0.00600000024
v -0.0437905502 0.0479777622 0.00400000006
v -0.0437905502 0.0479777622 0.00600000024
v -0.0438685751 0.0482411671 0.00400000006
v -0.0438685751 0.0482411671 0.00600000024
v -0.0439094687 0.0484731007 0.00400000006
v -0.0439094687 0.0484731007 0.00600000024
v -0.043926239 0.0487473106 0.00400000006
v -0.043926239 0.0487473106 0.00600000024
v -0.0439139175 0.0489824963 0.00400000006
v -0.0439139175 0.0489824963 0.00600000024
v -0.0438770723 0.0492151117 0.00400000006
v -0.0438770723 0.0492151117 0.00600000024
v -0.0438036585 0.0494798374 0.00400000006
v -0.0438036585 0.0494798374 0.00600000024
v -0.0437624025 0.0495901728 0.00400000006
v -0.0437624025 0.0495901728 0.00600000024
v -0.0435415745 0.0474891233 0.00400000006
v -0.0435415745 0.0474891233 0.00600000024
v -0.0436810064 0.0477258301 0.00400000006
v -0.0436810064 0.0477258301 0.00600000024
v -0.0437473774 0.047868166 0.00400000006
v -0.0437473774 0.047868166 0.00600000024
v -0.0436985254 0.0497336435 0.00400000006
v -0.0436985254 0.0497336435 0.00600000024
v -0.0435632515 0.0499727488 0.00400000006
v -0.0435632515 0.0499727488 0.00600000024
v -0.0435193348 0.0500378561 0.00400000006
v -0.0435193348 0.0500378561 0.00600000024
v -0.0433483171 0.0472417641 0.00400000006
v -0.0433483171 0.0472417641 0.00600000024
v -0.0434965277 0.0474247932 0.00400000006
v -0.0434965277 0.0474247932 0.00600000024
v -0.0433743382 0.0502234411 0.00400000006
v -0.0433743382 0.0502234411 0.00600000024
v -0.043267231 0.0503382969 0.00400000006
v -0.043267231 0.0503382969 0.00600000024
v -0.0430922127 0.0469987297 0.00400000006
v -0.0430922127 0.0469987297 0.00600000024
v -0.0432392216 0.0471287966 0.00400000006
v -0.0432392216 0.0471287966 0.00600000024
v -0.0430922127 0.0504958868 0.00400000006
v -0.0430922127 0.0504958868 0.00600000024
v -0.043030324 0.0505442381 0.00400000006
v -0.043030324 0.0505442381 0.00600000024
v -0.0429987574 0.0469270229 0.00400000006
v -0.0429987574 0.0469270229 0.00600000024
v -0.0427670622 0.0507152033 0.00400000006
v -0.0427670622 0.0507152033 0.00600000024
v -0.0426977205 0.0467425442 0.00400000006
v -0.0426977205 0.0467425442 0.00600000024
v -0.0427325535 0.0467606783 0.00400000006
v -0.0427325535 0.0467606783 0.00600000024
v -0.0427325535 0.050733943 0.00400000006
v -0.0427325535 0.050733943 0.00600000024
v -0.0425191069 0.0508334732 0.00400000006
v -0.0425191069 0.0508334732 0.00600000024
v -0.0424825668 0.0466467524 0.00400000006
v -0.0424825668 0.0466467524 0.00600000024
v -0.0422585821 0.0509206438 0.00400000006
v -0.0422585821 0.0509206438 0.00600000024
v -0.0422205639 0.0465641451 0.00400000006
v -0.0422205639 0.0465641451 0.00600000024
v -0.0420282173 0.0509696054 0.00400000006
v -0.0420282173 0.0509696054 0.00600000024
v -0.0417547655 0.0464986801 0.00400000006
v -0.0417547655 0.0464986801 0.00600000024
v -0.0419893789 0.046519208 0.00400000006
v -0.0419893789 0.046519208 0.00600000024
v -0.0417547655 0.0509959364 0.00400000006
v -0.0417547655 0.0509959364 0.00600000024
v -0.0417155075 0.0464976501 0.00400000006
v -0.0417155075 0.0464976501 0.00600000024
v -0.041558485 0.046500392 0.00400000006
v -0.041558485 0.046500392 0.00600000024
v -0.041519289 0.0509918261 0.00400000006
v -0.041519289 0.0509918261 0.00600000024
v -0.0414801407 0.0465058708 0.00400000006
v -0.0414801407 0.0465058708 0.00600000024
v -0.0412855339 0.0509631252 0.00400000006
v -0.0412855339 0.0509631252 0.00600000024
v -0.0412469196 0.0465386486 0.00400000006
v -0.0412469196 0.0465386486 0.00600000024
v -0.041018405 0.0508989954 0.00400000006
v -0.041018405 0.0508989954 0.00600000024
v -0.0409809542 0.0466074324 0.00400000006
v -0.0409809542 0.0466074324 0.00600000024
v -0.0407610846 0.050802784 0.00400000006
v -0.0407610846 0.050802784 0.00600000024
v -0.0407253504 0.0467081165 0.00400000006
v -0.0407253504 0.0467081165 0.00600000024
v -0.0406199312 0.0467606783 0.00400000006
v -0.0406199312 0.0467606783 0.00600000024
v -0.0405174065 0.0506759357 0.00400000006
v -0.0405174065 0.0506759357 0.00600000024
v -0.0406547642 0.0507520723 0.00400000006
v -0.0406547642 0.0507520723 0.00600000024
v -0.0402639389 0.0334872913 0.0129999995
v -0.0402639389 0.0334872913 0.0189999998
v -0.0402776051 0.0335911155 0.0129999995
v -0.040289464 0.033695159 0.0189999998
v -0.0402994967 0.0337993956 0.0129999995
v -0.0403077126 0.0339037919 0.0189999998
v -0.0403141069 0.0340083146 0.0129999995
v -0.0403214169 0.0342176151 0.0189999998
v -0.0403223324 0.034322331 0.0129999995
v -0.0403214169 0.0344270444 0.0189999998
v -0.040318675 0.0345317268 0.0129999995
v -0.0403077126 0.03474087 0.0189999998
v -0.0402994967 0.034845264 0.0129999995
v -0.040289464 0.0349495006 0.0189999998
v -0.0402776051 0.0350535464 0.0129999995
v -0.0402639389 0.0351573682 0.0189999998
v -0.040483923 0.0468391991 0.00400000006
v -0.040483923 0.0468391991 0.00600000024
v -0.040260272 0.0504958868 0.00400000006
v -0.040260272 0.0504958868 0.00600000024
v -0.0402910042 0.0505203342 0.00400000006
v -0.0402910042 0.0505203342 0.00600000024
v -0.0400286674 0.0324682283 0.0129999995
v -0.0400286674 0.0324682283 0.0189999998
v -0.0400601578 0.0325680995 0.0129999995
v -0.0400899029 0.0326685071 0.0189999998
v -0.0401178837 0.0327694154 0.0129999995
v -0.0401685524 0.0329726243 0.0189999998
v -0.0401912165 0.0330748606 0.0129999995
v -0.0402120924 0.0331774759 0.0189999998
v -0.0402311754 0.0332804418 0.0129999995
v -0.0402484608 0.0333837247 0.0189999998
v -0.0402484608 0.0352609372 0.0129999995
v -0.0402120924 0.0354671836 0.0189999998
v -0.0401912165 0.0355698013 0.0129999995
v -0.0401685524 0.0356720376 0.0189999998
v -0.040144105 0.0357738614 0.0129999995
v -0.0400899029 0.0359761548 0.0189999998
v -0.0400601578 0.03607656 0.0129999995
v -0.0400286674 0.0361764336 0.0189999998
v -0.040229969 0.0470237064 0.00400000006
v -0.040229969 0.0470237064 0.00600000024
v -0.0400041628 0.0502528524 0.00400000006
v -0.0400041628 0.0502528524 0.00600000024
v -0.0397601771 0.0317866206 0.0129999995
v -0.0398453593 0.0319779444 0.0189999998
v -0.0398854327 0.0320746899 0.0129999995
v -0.0399238133 0.032172122 0.0189999998
v -0.0399604869 0.0322702098 0.0129999995
v -0.0399954414 0.0323689222 0.0189999998
v -0.0399954414 0.0362757397 0.0129999995
v -0.0399238133 0.0364725375 0.0189999998
v -0.0398854327 0.0365699697 0.0129999995
v -0.0398453593 0.0366667175 0.0189999998
v -0.0398036027 0.0367627501 0.0129999995
v -0.0397601771 0.0368580389 0.0189999998
v -0.0399781442 0.0472711754 0.00400000006
v -0.0399781442 0.0472711754 0.00600000024
v -0.0397892332 0.0475218725 0.00400000006
v -0.0397892332 0.0475218725 0.00600000024
v -0.0397681332 0.0499396276 0.00400000006
v -0.0397681332 0.0499396276 0.00600000024
v -0.0398109055 0.0500054932 0.00400000006
v -0.0398109055 0.0500054932 0.00600000024
v -0.0399084735 0.0540506077 0.00400000006
v -0.0399084735 0.0540506077 0.00600000024
v -0.0395184827 0.0313223314 0.0129999995
v -0.0395700479 0.0314134717 0.0189999998
v -0.0396200156 0.0315055013 0.0129999995
v -0.0397150946 0.0316921043 0.0189999998
v -0.0397150946 0.0369525576 0.0129999995
v -0.0397150946 0.0369525576 0.0189999998
v -0.0396683693 0.0370462728 0.0129999995
v -0.0395700479 0.0372311878 0.0189999998
v -0.0395184827 0.0373223305 0.0129999995
v -0.0395184827 0.0373223305 0.0189999998
v -0.0397476149 0.0475884724 0.00400000006
v -0.0397476149 0.0475884724 0.00600000024
v -0.0396539545 0.047760973 0.00400000006
v -0.0396539545 0.047760973 0.00600000024
v -0.0395488238 0.0480147791 0.00400000006
v -0.0395488238 0.0480147791 0.00600000024
v -0.0395029068 0.0493296528 0.00400000006
v -0.0395029068 0.0493296528 0.00600000024
v -0.0395619321 0.0495168543 0.00400000006
v -0.0395619321 0.0495168543 0.00600000024
v -0.0396714759 0.0497687864 0.00400000006
v -0.0396714759 0.0497687864 0.00600000024
v -0.0392965555 0.0309671736 0.0129999995
v -0.0392965555 0.0309671736 0.0189999998
v -0.039354353 0.0310544968 0.0129999995
v -0.0394653344 0.0312321019 0.0189999998
v -0.0394653344 0.03741256 0.0129999995
v -0.0394653344 0.03741256 0.0189999998
v -0.0394106197 0.0375018454 0.0129999995
v -0.0392965555 0.0376774883 0.0189999998
v -0.0394930768 0.0482029867 0.00400000006
v -0.0394930768 0.0482029867 0.00600000024
v -0.03947541 0.0482795095 0.00400000006
v -0.03947541 0.0482795095 0.00600000024
v -0.0394385672 0.0485121202 0.00400000006
v -0.0394385672 0.0485121202 0.00600000024
v -0.0394265842 0.0487865782 0.00400000006
v -0.0394265842 0.0487865782 0.00600000024
v -0.0394430113 0.0490215158 0.00400000006
v -0.0394430113 0.0490215158 0.00600000024
v -0.0394839072 0.0492534494 0.00400000006
v -0.0394839072 0.0492534494 0.00600000024
v -0.0390503955 0.0306283617 0.0129999995
v -0.0391141438 0.030711441 0.0189999998
v -0.0391764331 0.0307956195 0.0129999995
v -0.0392372417 0.0308808708 0.0189999998
v -0.0392372417 0.0377637887 0.0129999995
v -0.0391141438 0.0379332209 0.0189999998
v -0.0390503955 0.0380163002 0.0129999995
v -0.0390503955 0.0380163002 0.0189999998
v -0.0387811995 0.0303075457 0.0129999995
v -0.0389185977 0.0304656053 0.0189999998
v -0.0389852071 0.0305464077 0.0129999995
v -0.0389852071 0.0305464077 0.0189999998
v -0.0389852071 0.0380982518 0.0129999995
v -0.0389185977 0.0381790566 0.0189999998
v -0.0388505888 0.0382586837 0.0129999995
v -0.0387811995 0.0383371139 0.0189999998
v -0.0385649705 0.030079689 0.0129999995
v -0.0387104535 0.030230341 0.0189999998
v -0.0387104535 0.0384143209 0.0129999995
v -0.03863837 0.0384902811 0.0189999998
v -0.0385649705 0.0385649705 0.0129999995
v -0.0385649705 0.0385649705 0.0189999998
v -0.0382586837 0.0297940731 0.0129999995
v -0.0384143209 0.0299342084 0.0189999998
v -0.0384902811 0.0300062919 0.0129999995
v -0.0384902811 0.0300062919 0.0189999998
v -0.0384902811 0.03863837 0.0129999995
v -0.0384143209 0.0387104535 0.0189999998
v -0.0383371139 0.0387811995 0.0129999995
v -0.0382586837 0.0388505888 0.0189999998
v -0.0380163002 0.0295942664 0.0129999995
v -0.0381790566 0.0297260642 0.0189999998
v -0.0381790566 0.0389185977 0.0129999995
v -0.0380982518 0.0389852071 0.0189999998
v -0.0380163002 0.0390503955 0.0129999995
v -0.0380163002 0.0390503955 0.0189999998
v -0.0377637887 0.0294074178 0.0129999995
v -0.0378490424 0.0294682288 0.0189999998
v -0.0379332209 0.0295305181 0.0129999995
v -0.0379332209 0.0295305181 0.0189999998
v -0.0379332209 0.0391141438 0.0129999995
v -0.0377637887 0.0392372417 0.0189999998
v -0.0375018454 0.0292340422 0.0129999995
v -0.0375018454 0.0292340422 0.0189999998
v -0.0375901651 0.0292903066 0.0129999995
v -0.0376774883 0.029348104 0.0189999998
v -0.0376774883 0.0392965555 0.0129999995
v -0.0375018454 0.0394106197 0.0189999998
v -0.0373223305 0.0291261792 0.0129999995
v -0.03741256 0.0291793275 0.0189999998
v -0.03741256 0.0394653344 0.0129999995
v -0.03741256 0.0394653344 0.0189999998
v -0.0373223305 0.0395184827 0.0129999995
v -0.0373223305 0.0395184827 0.0189999998
v -0.0370462728 0.0289762902 0.0129999995
v -0.0370462728 0.0289762902 0.0189999998
v -0.0371391606 0.0290246439 0.0129999995
v -0.0372311878 0.0290746117 0.0189999998
v -0.0372311878 0.0395700479 0.0129999995
v -0.0370462728 0.0396683693 0.0189999998
v -0.0367627501 0.0288410568 0.0129999995
v -0.0369525576 0.0289295673 0.0189999998
v -0.0369525576 0.0397150946 0.0129999995
v -0.0369525576 0.0397150946 0.0189999998
v -0.0368580389 0.0397601771 0.0129999995
v -0.0367627501 0.0398036027 0.0189999998
v -0.0365699697 0.0287592268 0.0129999995
v -0.0366667175 0.0287993002 0.0189999998
v -0.0366667175 0.0398453593 0.0129999995
v -0.0365699697 0.0398854327 0.0189999998
v -0.0362757397 0.0286492181 0.0129999995
v -0.0364725375 0.0287208486 0.0189999998
v -0.0364725375 0.0399238133 0.0129999995
v -0.0362757397 0.0399954414 0.0189999998
v -0.03607656 0.0285845017 0.0129999995
v -0.0361764336 0.0286159921 0.0189999998
v -0.0361764336 0.0400286674 0.0129999995
v -0.03607656 0.0400601578 0.0189999998
v -0.0357738614 0.0285005569 0.0129999995
v -0.0359761548 0.0285547614 0.0189999998
v -0.0359761548 0.0400899029 0.0129999995
v -0.0357738614 0.040144105 0.0189999998
v -0.0355698013 0.0284534454 0.0129999995
v -0.0356720376 0.0284761095 0.0189999998
v -0.0356720376 0.0401685524 0.0129999995
v -0.0355698013 0.0401912165 0.0189999998
v -0.0352609372 0.0283962011 0.0129999995
v -0.0354671836 0.0284325671 0.0189999998
v -0.0354671836 0.0402120924 0.0129999995
v -0.0352609372 0.0402484608 0.0189999998
v -0.0350535464 0.0283670545 0.0129999995
v -0.0351573682 0.028380723 0.0189999998
v -0.0351573682 0.0402639389 0.0129999995
v -0.0350535464 0.0402776051 0.0189999998
v -0.034845264 0.0283451629 0.0129999995
v -0.0349495006 0.0283551979 0.0189999998
v -0.0349495006 0.040289464 0.0129999995
v -0.034845264 0.0402994967 0.0189999998
v -0.0345317268 0.0283259845 0.0129999995
v -0.03474087 0.028336947 0.0189999998
v -0.03474087 0.0403077126 0.0129999995
v -0.0345317268 0.040318675 0.0189999998
v -0.0346051741 0.0487473106 -0.0230999994
v -0.0346051741 0.0487473106 0.00400000006
v -0.0346051741 0.0487473106 0.00600000024
v -0.0346051741 0.0487473106 0.0129999995
v -0.034322331 0.0283223295 0.0129999995
v -0.0344270444 0.028323245 0.0189999998
v -0.0344270444 0.0403214169 0.0129999995
v -0.034322331 0.0403223324 0.0189999998
v -0.0340083146 0.0283305526 0.0129999995
v -0.0342176151 0.028323245 0.0189999998
v -0.0342176151 0.0403214169 0.0129999995
v -0.0340083146 0.0403141069 0.0189999998
v -0.0337993956 0.0283451629 0.0129999995
v -0.0339037919 0.028336947 0.0189999998
v -0.0339037919 0.0403077126 0.0129999995
v -0.0337993956 0.0402994967 0.0189999998
v -0.0335911155 0.0283670545 0.0129999995
v -0.033695159 0.0283551979 0.0189999998
v -0.033695159 0.040289464 0.0129999995
v -0.0335911155 0.0402776051 0.0189999998
v -0.0332804418 0.0284134841 0.0129999995
v -0.0334872913 0.028380723 0.0189999998
v -0.0333837247 0.0402484608 0.0129999995
v -0.0332804418 0.0402311754 0.0189999998
v -0.0334872913 0.0402639389 0.0129999995
v -0.0334872913 0.0402639389 0.0189999998
v -0.0330748606 0.0284534454 0.0129999995
v -0.0331774759 0.0284325671 0.0189999998
v -0.0331774759 0.0402120924 0.0129999995
v -0.0330748606 0.0401912165 0.0189999998
v -0.0329726243 0.0284761095 0.0129999995
v -0.0329726243 0.0284761095 0.0189999998
v -0.0327694154 0.0285267758 0.0129999995
v -0.0328707981 0.0285005569 0.0189999998
v -0.0329726243 0.0401685524 0.0129999995
v -0.0327694154 0.0401178837 0.0189999998
v -0.0325680995 0.0285845017 0.0129999995
v -0.0326685071 0.0285547614 0.0189999998
v -0.0326685071 0.0400899029 0.0129999995
v -0.0325680995 0.0400601578 0.0189999998
v -0.0322702098 0.028684175 0.0129999995
v -0.0324682283 0.0286159921 0.0189999998
v -0.0323689222 0.0399954414 0.0129999995
v -0.0322702098 0.0399604869 0.0189999998
v -0.0324682283 0.0400286674 0.0129999995
v -0.0324682283 0.0400286674 0.0189999998
v -0.032172122 0.0287208486 0.0129999995
v -0.032172122 0.0287208486 0.0189999998
v -0.0320746899 0.0287592268 0.0129999995
v -0.0320746899 0.0287592268 0.0189999998
v -0.032172122 0.0399238133 0.0129999995
v -0.0320746899 0.0398854327 0.0189999998
v -0.0317866206 0.0288844848 0.0129999995
v -0.0319779444 0.0287993002 0.0189999998
v -0.0319779444 0.0398453593 0.0129999995
v -0.0317866206 0.0397601771 0.0189999998
v -0.0315983868 0.0289762902 0.0129999995
v -0.0316921043 0.0289295673 0.0189999998
v -0.0315055013 0.0290246439 0.0129999995
v -0.0315055013 0.0290246439 0.0189999998
v -0.0316921043 0.0397150946 0.0129999995
v -0.0315055013 0.0396200156 0.0189999998
v -0.0313223314 0.0291261792 0.0129999995
v -0.0314134717 0.0290746117 0.0189999998
v -0.0314134717 0.0395700479 0.0129999995
v -0.0313223314 0.0395184827 0.0189999998
v -0.0311428142 0.0292340422 0.0129999995
v -0.0312321019 0.0291793275 0.0189999998
v -0.0310544968 0.0292903066 0.0129999995
v -0.0310544968 0.0292903066 0.0189999998
v -0.0312321019 0.0394653344 0.0129999995
v -0.0310544968 0.039354353 0.0189999998
v -0.0307956195 0.0294682288 0.0129999995
v -0.0309671736 0.029348104 0.0189999998
v -0.0308808708 0.0392372417 0.0129999995
v -0.0307956195 0.0391764331 0.0189999998
v -0.0309671736 0.0392965555 0.0129999995
v -0.0309671736 0.0392965555 0.0189999998
v -0.0305464077 0.0296594548 0.0129999995
v -0.030711441 0.0295305181 0.0189999998
v -0.0305464077 0.0389852071 0.0129999995
v -0.0305464077 0.0389852071 0.0189999998
v -0.030711441 0.0391141438 0.0129999995
v -0.0306283617 0.0390503955 0.0189999998
v -0.0304656053 0.0297260642 0.0129999995
v -0.0304656053 0.0297260642 0.0189999998
v -0.0303075457 0.0298634624 0.0129999995
v -0.0303859758 0.0297940731 0.0189999998
v -0.0304656053 0.0389185977 0.0129999995
v -0.0303075457 0.0387811995 0.0189999998
v -0.030230341 0.0299342084 0.0129999995
v -0.030230341 0.0299342084 0.0189999998
v -0.030079689 0.030079689 0.0129999995
v -0.030079689 0.030079689 0.0189999998
v -0.0300062919 0.0384902811 0.0129999995
v -0.0300062919 0.0384902811 0.0189999998
v -0.030230341 0.0387104535 0.0129999995
v -0.030079689 0.0385649705 0.0189999998
v -0.0299342084 0.030230341 0.0129999995
v -0.0299342084 0.030230341 0.0189999998
v -0.0297940731 0.0303859758 0.0129999995
v -0.0298634624 0.0303075457 0.0189999998
v -0.0299342084 0.0384143209 0.0129999995
v -0.0297940731 0.0382586837 0.0189999998
v -0.0297260642 0.0304656053 0.0129999995
v -0.0297260642 0.0304656053 0.0189999998
v -0.0295305181 0.030711441 0.0129999995
v -0.0296594548 0.0305464077 0.0189999998
v -0.0295305181 0.0379332209 0.0129999995
v -0.0295305181 0.0379332209 0.0189999998
v -0.0297260642 0.0381790566 0.0129999995
v -0.0295942664 0.0380163002 0.0189999998
v -0.029348104 0.0309671736 0.0129999995
v -0.0294682288 0.0307956195 0.0189999998
v -0.0292903066 0.0310544968 0.0129999995
v -0.0292903066 0.0310544968 0.0189999998
v -0.029348104 0.0376774883 0.0129999995
v -0.0292903066 0.0375901651 0.0189999998
v -0.0294682288 0.0378490424 0.0129999995
v -0.0294074178 0.0377637887 0.0189999998
v -0.0291793275 0.0312321019 0.0129999995
v -0.0292340422 0.0311428142 0.0189999998
v -0.0290746117 0.0314134717 0.0129999995
v -0.0291261792 0.0313223314 0.0189999998
v -0.0290246439 0.0315055013 0.0129999995
v -0.0290246439 0.0315055013 0.0189999998
v -0.0290746117 0.0372311878 0.0129999995
v -0.0290246439 0.0371391606 0.0189999998
v -0.0291793275 0.03741256 0.0129999995
v -0.0291261792 0.0373223305 0.0189999998
v -0.0292340422 0.0375018454 0.0129999995
v -0.0292340422 0.0375018454 0.0189999998
v -0.0289295673 0.0316921043 0.0129999995
v -0.0289762902 0.0315983868 0.0189999998
v -0.0287993002 0.0319779444 0.0129999995
v -0.0288844848 0.0317866206 0.0189999998
v -0.0287592268 0.0320746899 0.0129999995
v -0.0287592268 0.0320746899 0.0189999998
v -0.0287993002 0.0366667175 0.0129999995
v -0.0287592268 0.0365699697 0.0189999998
v -0.0289295673 0.0369525576 0.0129999995
v -0.0288410568 0.0367627501 0.0189999998
v -0.0289762902 0.0370462728 0.0129999995
v -0.0289762902 0.0370462728 0.0189999998
v -0.0287208486 0.032172122 0.0129999995
v -0.0287208486 0.032172122 0.0189999998
v -0.0286159921 0.0324682283 0.0129999995
v -0.028684175 0.0322702098 0.0189999998
v -0.0285547614 0.0326685071 0.0129999995
v -0.0285845017 0.0325680995 0.0189999998
v -0.0285005569 0.0328707981 0.0129999995
v -0.0285267758 0.0327694154 0.0189999998
v -0.0285547614 0.0359761548 0.0129999995
v -0.0285005569 0.0357738614 0.0189999998
v -0.0286159921 0.0361764336 0.0129999995
v -0.0285845017 0.03607656 0.0189999998
v -0.0287208486 0.0364725375 0.0129999995
v -0.0286492181 0.0362757397 0.0189999998
v -0.0284761095 0.0329726243 0.0129999995
v -0.0284761095 0.0329726243 0.0189999998
v -0.0284325671 0.0331774759 0.0129999995
v -0.0284534454 0.0330748606 0.0189999998
v -0.028380723 0.0334872913 0.0129999995
v -0.0284134841 0.0332804418 0.0189999998
v -0.0283551979 0.033695159 0.0129999995
v -0.0283670545 0.0335911155 0.0189999998
v -0.028336947 0.0339037919 0.0129999995
v -0.0283451629 0.0337993956 0.0189999998
v -0.028323245 0.0342176151 0.0129999995
v -0.0283305526 0.0340083146 0.0189999998
v -0.028323245 0.0344270444 0.0129999995
v -0.0283223295 0.034322331 0.0189999998
v -0.028336947 0.03474087 0.0129999995
v -0.0283259845 0.0345317268 0.0189999998
v -0.0283551979 0.0349495006 0.0129999995
v -0.0283451629 0.034845264 0.0189999998
v -0.028380723 0.0351573682 0.0129999995
v -0.0283670545 0.0350535464 0.0189999998
v -0.0284325671 0.0354671836 0.0129999995
v -0.0283962011 0.0352609372 0.0189999998
v -0.0284761095 0.0356720376 0.0129999995
v -0.0284534454 0.0355698013 0.0189999998
v -0.0201094842 0.00596734881 -0.0230999994
v -0.0201094842 0.00596734881 0.00400000006
v -0.0201094842 0.00596734881 0.00600000024
v -0.0201094842 0.00596734881 0.0129999995
v -0.0152542341 0.00557664037 0.00400000006
v -0.0152760911 0.00573215961 0.00600000024
v -0.0152798545 0.00577124834 0.00400000006
v -0.0152884161 0.00596734881 0.00600000024
v -0.015288074 0.00600661635 0.00400000006
v -0.0152716458 0.00624155462 0.00600000024
v -0.0152665198 0.00628048778 0.00400000006
v -0.0152542341 0.00635805666 0.00600000024
v -0.0150063109 0.00487652689 0.00400000006
v -0.0150607026 0.00498101354 0.00600000024
v -0.0150776088 0.00501645744 0.00400000006
v -0.0151658332 0.00523482025 0.00600000024
v -0.015178293 0.00527206004 0.00400000006
v -0.0152392483 0.00549954712 0.00600000024
v -0.0152470779 0.00553802848 0.00400000006
v -0.0152470779 0.00553802848 0.00600000024
v -0.0152470779 0.00639666855 0.00400000006
v -0.0152307487 0.00647348821 0.00600000024
v -0.0152215815 0.00651167274 0.00400000006
v -0.015152725 0.00673689365 0.00600000024
v -0.0151389718 0.00677367628 0.00400000006
v -0.0150431812 0.00698882699 0.00600000024
v -0.0150250483 0.00702365935 0.00400000006
v -0.0150063109 0.00705817044 0.00600000024
v -0.0148061836 0.000664047673 0.00400000006
v -0.0148061836 0.000664047673 0.00600000024
v -0.0147620165 0.00452107638 0.00400000006
v -0.0149254251 0.0047419107 0.00600000024
v -0.0149465251 0.00477503031 0.00400000006
v -0.014986974 0.0048423484 0.00600000024
v -0.014986974 0.00709234834 0.00400000006
v -0.0149037504 0.00722553253 0.00600000024
v -0.0148815084 0.00725789547 0.00400000006
v -0.0147620165 0.00741362095 0.00600000024
v -0.0145145488 0.00426925212 0.00400000006
v -0.0147365129 0.00449121565 0.00600000024
v -0.0147365129 0.00744348109 0.00400000006
v -0.0147104919 0.0074728924 0.00600000024
v -0.0146294069 0.00755833864 0.00400000006
v -0.0146294069 0.00755833864 0.00600000024
v -0.014263854 0.00408033967 0.00400000006
v -0.014484688 0.00424374849 0.00600000024
v -0.014484688 0.00769094825 0.00400000006
v -0.0144236553 0.00774037302 0.00600000024
v -0.0143924999 0.00776427865 0.00400000006
v -0.014263854 0.00785435736 0.00600000024
v -0.0140247512 0.00394506186 0.00400000006
v -0.0141292381 0.00399945408 0.00600000024
v -0.0141634166 0.00401879132 0.00400000006
v -0.0142307341 0.00405924022 0.00600000024
v -0.0142307341 0.00787545681 0.00400000006
v -0.0140247512 0.00798963487 0.00600000024
v -0.0137709451 0.00383993179 0.00400000006
v -0.0139893079 0.0039281559 0.00600000024
v -0.0139893079 0.00800654113 0.00400000006
v -0.0137709451 0.00809476554 0.00600000024
v -0.0135062182 0.00376651645 0.00400000006
v -0.0137337041 0.00382747144 0.00600000024
v -0.0137337041 0.00810722589 0.00400000006
v -0.0135062182 0.00816818058 0.00600000024
v -0.0132736051 0.00372967422 0.00400000006
v -0.0133903944 0.00374504983 0.00600000024
v -0.0134291244 0.00375153124 0.00400000006
v -0.0134677362 0.00375868738 0.00600000024
v -0.0134677362 0.00817600965 0.00400000006
v -0.0132736051 0.00820502281 0.00600000024
v -0.0130384159 0.00371734858 0.00400000006
v -0.0132345164 0.00372591048 0.00600000024
v -0.0132345164 0.00820878685 0.00400000006
v -0.0130384159 0.00821734846 0.00600000024
v -0.0127642107 0.00373411983 0.00400000006
v -0.0129991484 0.0037176913 0.00600000024
v -0.0129991484 0.00821700573 0.00400000006
v -0.0127642107 0.0082005775 0.00600000024
v -0.0126864386 0.00374504983 0.00400000006
v -0.0127252769 0.00373924553 0.00600000024
v -0.0125322759 0.00377501577 0.00400000006
v -0.0126477075 0.00375153124 0.00600000024
v -0.0127252769 0.0081954515 0.00400000006
v -0.0125322759 0.00815968096 0.00600000024
v -0.0122688711 0.00385304004 0.00400000006
v -0.012494092 0.00378418326 0.00600000024
v -0.012494092 0.00815051377 0.00400000006
v -0.0122688711 0.00808165669 0.00600000024
v -0.0120169377 0.00396258384 0.00400000006
v -0.012232089 0.00386679262 0.00600000024
v -0.0120520818 0.00798963487 0.00400000006
v -0.0120169377 0.00797211349 0.00600000024
v -0.012232089 0.00806790471 0.00400000006
v -0.0120875251 0.00800654113 0.00600000024
v -0.0119475949 0.00399945408 0.00400000006
v -0.0119821048 0.00398071647 0.00600000024
v -0.0117802322 0.00410201401 0.00400000006
v -0.0119134164 0.00401879132 0.00600000024
v -0.0119821048 0.00795398057 0.00400000006
v -0.0117802322 0.00783268332 0.00600000024
v -0.0115921438 0.00424374849 0.00400000006
v -0.0117478693 0.00412425637 0.00600000024
v -0.0115039206 0.00432180285 0.00400000006
v -0.011562283 0.00426925212 0.00600000024
v -0.0116531777 0.00774037302 0.00400000006
v -0.0115039206 0.00761289418 0.00600000024
v -0.0117478693 0.00781044066 0.00400000006
v -0.0116843331 0.00776427865 0.00600000024
v -0.0113403201 0.00449121565 0.00400000006
v -0.0114754355 0.00434883386 0.00600000024
v -0.0112653923 0.00458211035 0.00400000006
v -0.0113148165 0.00452107638 0.00600000024
v -0.0113663399 0.0074728924 0.00400000006
v -0.0112653923 0.00735258698 0.00600000024
v -0.0114754355 0.00758586287 0.00400000006
v -0.0113928699 0.00750184476 0.00600000024
v -0.011151408 0.0047419107 0.00400000006
v -0.0112414861 0.0046132648 0.00600000024
v -0.0110161293 0.00498101354 0.00400000006
v -0.0111303079 0.00477503031 0.00600000024
v -0.0110336518 0.00698882699 0.00400000006
v -0.0110161293 0.0069536835 0.00600000024
v -0.0111730814 0.00722553253 0.00400000006
v -0.0110517848 0.00702365935 0.00600000024
v -0.0112414861 0.00732143223 0.00400000006
v -0.0111953247 0.00725789547 0.00600000024
v -0.0109109998 0.00523482025 0.00400000006
v -0.0109992242 0.00501645744 0.00600000024
v -0.0108375847 0.00549954712 0.00400000006
v -0.0108985388 0.00527206004 0.00600000024
v -0.0108007419 0.00573215961 0.00400000006
v -0.0108297551 0.00553802848 0.00600000024
v -0.0107884169 0.00596734881 0.00400000006
v -0.0107969785 0.00577124834 0.00600000024
v -0.0108051872 0.00624155462 0.00400000006
v -0.010788759 0.00600661635 0.00600000024
v -0.0108460832 0.00647348821 0.00400000006
v -0.0108103132 0.00628048778 0.00600000024
v -0.010924108 0.00673689365 0.00400000006
v -0.0108552516 0.00651167274 0.00600000024
v -0.0109992242 0.00691823959 0.00400000006
v -0.01093786 0.00677367628 0.00600000024
v -0.00806790471 0.012232089 0.00400000006
v -0.00806790471 0.012232089 0.00600000024
v -0.00815051377 0.012494092 0.00400000006
v -0.00815051377 0.012494092 0.00600000024
v -0.0081954515 0.0127252769 0.00400000006
v -0.0081954515 0.0127252769 0.00600000024
v -0.00821700573 0.0129991484 0.00400000006
v -0.00821700573 0.0129991484 0.00600000024
v -0.00820878685 0.0132345164 0.00400000006
v -0.00820878685 0.0132345164 0.00600000024
v -0.00817600965 0.0134677362 0.00400000006
v -0.00817600965 0.0134677362 0.00600000024
v -0.00810722589 0.0137337041 0.00400000006
v -0.00810722589 0.0137337041 0.00600000024
v -0.00800654113 0.0139893079 0.00400000006
v -0.00800654113 0.0139893079 0.00600000024
v -0.00781044066 0.0117478693 0.00400000006
v -0.00781044066 0.0117478693 0.00600000024
v -0.00795398057 0.0119821048 0.00400000006
v -0.00795398057 0.0119821048 0.00600000024
v -0.00798963487 0.0120520818 0.00400000006
v -0.00798963487 0.0120520818 0.00600000024
v -0.00787545681 0.0142307341 0.00400000006
v -0.00787545681 0.0142307341 0.00600000024
v -0.00776427865 0.0143924999 0.00400000006
v -0.00776427865 0.0143924999 0.00600000024
v -0.00758586287 0.0114754355 0.00400000006
v -0.00758586287 0.0114754355 0.00600000024
v -0.00774037302 0.0116531777 0.00400000006
v -0.00774037302 0.0116531777 0.00600000024
v -0.00769094825 0.014484688 0.00400000006
v -0.00769094825 0.014484688 0.00600000024
v -0.00755833864 0.0146294069 0.00400000006
v -0.00755833864 0.0146294069 0.00600000024
v -0.00732143223 0.0112414861 0.00400000006
v -0.00732143223 0.0112414861 0.00600000024
v -0.0074728924 0.0113663399 0.00400000006
v -0.0074728924 0.0113663399 0.00600000024
v -0.00744348109 0.0147365129 0.00400000006
v -0.00744348109 0.0147365129 0.00600000024
v -0.00725789547 0.0148815084 0.00400000006
v -0.00725789547 0.0148815084 0.00600000024
v -0.00722553253 0.0111730814 0.00400000006
v -0.00722553253 0.0111730814 0.00600000024
v -0.00709234834 0.014986974 0.00400000006
v -0.00709234834 0.014986974 0.00600000024
v -0.00702365935 0.0150250483 0.00400000006
v -0.00702365935 0.0150250483 0.00600000024
v -0.00691823959 0.0109992242 0.00400000006
v -0.00691823959 0.0109992242 0.00600000024
v -0.00698882699 0.0110336518 0.00400000006
v -0.00698882699 0.0110336518 0.00600000024
v -0.00677367628 0.0151389718 0.00400000006
v -0.00677367628 0.0151389718 0.00600000024
v -0.00673689365 0.010924108 0.00400000006
v -0.00673689365 0.010924108 0.00600000024
v -0.00651167274 0.0152215815 0.00400000006
v -0.00651167274 0.0152215815 0.00600000024
v -0.00647348821 0.0108460832 0.00400000006
v -0.00647348821 0.0108460832 0.00600000024
v -0.00639666855 0.0152470779 0.00400000006
v -0.00639666855 0.0152470779 0.00600000024
v -0.00628048778 0.0152665198 0.00400000006
v -0.00628048778 0.0152665198 0.00600000024
v -0.00624155462 0.0108051872 0.00400000006
v -0.00624155462 0.0108051872 0.00600000024
v -0.00600661635 0.015288074 0.00400000006
v -0.00600661635 0.015288074 0.00600000024
v -0.00596734881 0.0107884169 0.00400000006
v -0.00596734881 0.0107884169 0.00600000024
v -0.00577124834 0.0152798545 0.00400000006
v -0.00577124834 0.0152798545 0.00600000024
v -0.00596734881 0.0201094842 -0.0230999994
v -0.00596734881 0.0201094842 0.00400000006
v -0.00596734881 0.0201094842 0.00600000024
v -0.00596734881 0.0201094842 0.0129999995
v -0.00573215961 0.0108007419 0.00400000006
v -0.00573215961 0.0108007419 0.00600000024
v -0.00553802848 0.0152470779 0.00400000006
v -0.00553802848 0.0152470779 0.00600000024
v -0.00557664037 0.0152542341 0.00400000006
v -0.00557664037 0.0152542341 0.00600000024
v -0.00549954712 0.0108375847 0.00400000006
v -0.00549954712 0.0108375847 0.00600000024
v -0.00527206004 0.015178293 0.00400000006
v -0.00527206004 0.015178293 0.00600000024
v -0.00523482025 0.0109109998 0.00400000006
v -0.00523482025 0.0109109998 0.00600000024
v -0.00501645744 0.0150776088 0.00400000006
v -0.00501645744 0.0150776088 0.00600000024
v -0.00498101354 0.0110161293 0.00400000006
v -0.00498101354 0.0110161293 0.00600000024
v -0.00477503031 0.0149465251 0.00400000006
v -0.00477503031 0.0149465251 0.00600000024
v -0.00487652689 0.0150063109 0.00400000006
v -0.00487652689 0.0150063109 0.00600000024
v -0.0047419107 0.011151408 0.00400000006
v -0.0047419107 0.011151408 0.00600000024
v -0.00458211035 0.0112653923 0.00400000006
v -0.00458211035 0.0112653923 0.00600000024
v -0.00452107638 0.0147620165 0.00400000006
v -0.00452107638 0.0147620165 0.00600000024
v -0.00449121565 0.0113403201 0.00400000006
v -0.00449121565 0.0113403201 0.00600000024
v -0.00432180285 0.0115039206 0.00400000006
v -0.00432180285 0.0115039206 0.00600000024
v -0.00426925212 0.0145145488 0.00400000006
v -0.00426925212 0.0145145488 0.00600000024
v -0.00424374849 0.0115921438 0.00400000006
v -0.00424374849 0.0115921438 0.00600000024
v -0.00410201401 0.0117802322 0.00400000006
v -0.00410201401 0.0117802322 0.00600000024
v -0.00401879132 0.0141634166 0.00400000006
v -0.00401879132 0.0141634166 0.00600000024
v -0.00408033967 0.014263854 0.00400000006
v -0.00408033967 0.014263854 0.00600000024
v -0.00399945408 0.0119475949 0.00400000006
v -0.00399945408 0.0119475949 0.00600000024
v -0.00396258384 0.0120169377 0.00400000006
v -0.00396258384 0.0120169377 0.00600000024
v -0.00385304004 0.0122688711 0.00400000006
v -0.00385304004 0.0122688711 0.00600000024
v -0.00377501577 0.0125322759 0.00400000006
v -0.00377501577 0.0125322759 0.00600000024
v -0.00375153124 0.0134291244 0.00400000006
v -0.00375153124 0.0134291244 0.00600000024
v -0.00376651645 0.0135062182 0.00400000006
v -0.00376651645 0.0135062182 0.00600000024
v -0.00383993179 0.0137709451 0.00400000006
v -0.00383993179 0.0137709451 0.00600000024
v -0.00394506186 0.0140247512 0.00400000006
v -0.00394506186 0.0140247512 0.00600000024
v -0.00374504983 0.0126864386 0.00400000006
v -0.00374504983 0.0126864386 0.00600000024
v -0.00373411983 0.0127642107 0.00400000006
v -0.00373411983 0.0127642107 0.00600000024
v -0.00371734858 0.0130384159 0.00400000006
v -0.00371734858 0.0130384159 0.00600000024
v -0.00372967422 0.0132736051 0.00400000006
v -0.00372967422 0.0132736051 0.00600000024
v -0.000664047673 0.0148061836 0.00400000006
v -0.000664047673 0.0148061836 0.00600000024
f 2 1 73
f 2 305 1
f 3 1 5
f 23 1 3
f 5 1 7
f 7 1 9
f 9 1 11
f 11 1 13
f 13 1 15
f 15 1 17
f 17 1 19
f 19 1 25
f 21 1 23
f 33 1 21
f 25 1 27
f 27 1 29
f 29 1 35
f 31 1 33
f 39 1 31
f 35 1 37
f 179 37 1
f 47 1 39
f 45 1 47
f 45 72 1
f 73 1 72
f 179 1 305
f 6 2 4
f 4 2 24
f 8 2 6
f 10 2 8
f 12 2 10
f 14 2 12
f 16 2 14
f 18 2 16
f 20 2 18
f 26 2 20
f 24 2 22
f 22 2 34
f 28 2 26
f 30 2 28
f 36 2 30
f 34 2 32
f 32 2 40
f 38 2 36
f 180 2 38
f 40 2 48
f 48 2 46
f 46 2 73
f 180 306 2
f 306 305 2
f 3 6 4
f 3 4 23
f 5 6 3
f 23 4 24
f 5 8 6
f 7 8 5
f 7 10 8
f 9 10 7
f 9 12 10
f 11 12 9
f 11 14 12
f 13 14 11
f 13 16 14
f 15 16 13
f 15 18 16
f 17 18 15
f 17 20 18
f 19 20 17
f 19 26 20
f 25 26 19
f 21 24 22
f 21 22 33
f 23 24 21
f 33 22 34
f 25 28 26
f 27 28 25
f 27 30 28
f 29 30 27
f 29 36 30
f 35 36 29
f 31 34 32
f 31 32 39
f 33 34 31
f 39 32 40
f 35 38 36
f 37 38 35
f 37 42 38
f 41 42 37
f 37 177 41
f 179 177 37
f 42 178 38
f 38 178 180
f 39 40 47
f 47 40 48
f 41 44 42
f 43 44 41
f 41 171 43
f 41 177 171
f 44 172 42
f 42 172 178
f 43 50 44
f 49 50 43
f 43 165 49
f 43 147 145
f 43 145 165
f 149 147 43
f 151 149 43
f 43 153 151
f 43 155 153
f 43 157 155
f 43 159 157
f 43 167 159
f 169 167 43
f 43 171 169
f 50 166 44
f 44 146 148
f 44 166 146
f 44 148 150
f 44 150 152
f 152 154 44
f 154 156 44
f 156 158 44
f 44 158 160
f 44 160 168
f 44 168 170
f 170 172 44
f 45 48 46
f 45 46 51
f 47 48 45
f 51 72 45
f 51 46 52
f 46 73 52
f 49 54 50
f 53 54 49
f 173 53 49
f 49 163 161
f 161 175 49
f 49 165 163
f 49 175 173
f 54 174 50
f 162 164 50
f 50 176 162
f 50 164 166
f 50 174 176
f 51 52 59
f 59 72 51
f 59 52 60
f 52 73 60
f 53 56 54
f 55 56 53
f 55 53 173
f 56 174 54
f 55 62 56
f 61 62 55
f 61 55 173
f 62 174 56
f 57 60 58
f 57 58 63
f 59 60 57
f 57 72 59
f 63 72 57
f 60 73 58
f 63 58 64
f 58 73 64
f 61 66 62
f 65 66 61
f 173 65 61
f 66 174 62
f 63 64 67
f 67 72 63
f 67 64 68
f 64 73 68
f 65 70 66
f 69 70 65
f 173 69 65
f 70 174 66
f 67 68 75
f 75 72 67
f 68 73 76
f 75 68 76
f 69 78 70
f 77 78 69
f 173 77 69
f 78 174 70
f 72 451 71
f 634 72 71
f 847 71 451
f 634 71 633
f 633 71 847
f 635 73 72
f 79 72 75
f 83 72 79
f 85 72 83
f 89 72 85
f 95 72 89
f 97 72 95
f 101 72 97
f 107 72 101
f 113 72 107
f 113 257 72
f 72 257 452
f 452 451 72
f 635 72 634
f 73 74 453
f 636 74 73
f 76 73 80
f 80 73 84
f 84 73 86
f 86 73 90
f 90 73 96
f 96 73 98
f 98 73 102
f 102 73 108
f 108 73 114
f 258 114 73
f 73 453 258
f 636 73 635
f 243 74 241
f 241 74 271
f 245 74 243
f 247 74 245
f 249 74 247
f 251 74 249
f 253 74 251
f 255 74 253
f 273 74 255
f 265 74 263
f 263 74 289
f 267 74 265
f 269 74 267
f 271 74 269
f 275 74 273
f 277 74 275
f 279 74 277
f 291 74 279
f 287 74 285
f 285 74 309
f 289 74 287
f 293 74 291
f 295 74 293
f 311 74 295
f 309 74 307
f 307 74 331
f 313 74 311
f 315 74 313
f 333 74 315
f 331 74 329
f 329 74 351
f 335 74 333
f 353 74 335
f 351 74 349
f 349 74 359
f 355 74 353
f 361 74 355
f 359 74 357
f 357 74 365
f 363 74 361
f 367 74 363
f 365 74 373
f 369 74 367
f 369 454 74
f 373 74 371
f 371 74 379
f 379 74 387
f 387 74 385
f 385 74 636
f 453 74 454
f 75 76 79
f 79 76 80
f 77 82 78
f 81 82 77
f 173 81 77
f 82 174 78
f 79 80 83
f 83 80 84
f 81 88 82
f 87 88 81
f 173 87 81
f 88 174 82
f 83 84 85
f 85 84 86
f 85 86 89
f 89 86 90
f 87 94 88
f 93 94 87
f 93 87 173
f 94 174 88
f 89 90 95
f 95 90 96
f 91 92 93
f 91 100 92
f 91 93 173
f 99 100 91
f 173 99 91
f 93 92 94
f 92 174 94
f 100 174 92
f 95 96 97
f 97 96 98
f 97 98 101
f 101 98 102
f 99 106 100
f 105 106 99
f 173 105 99
f 106 174 100
f 101 102 107
f 107 102 108
f 103 104 105
f 103 112 104
f 173 103 105
f 111 112 103
f 173 111 103
f 105 104 106
f 104 174 106
f 112 174 104
f 107 108 113
f 113 108 114
f 109 110 111
f 109 122 110
f 173 109 111
f 121 122 109
f 109 183 121
f 183 109 173
f 111 110 112
f 110 174 112
f 122 184 110
f 110 184 174
f 113 114 115
f 115 257 113
f 115 114 116
f 114 258 116
f 115 116 123
f 123 235 115
f 115 235 257
f 123 116 124
f 116 236 124
f 116 258 236
f 117 118 119
f 117 140 118
f 119 189 117
f 139 140 117
f 117 195 139
f 117 189 195
f 119 118 120
f 118 190 120
f 140 196 118
f 118 196 190
f 119 120 121
f 121 181 119
f 119 181 189
f 121 120 122
f 120 182 122
f 120 190 182
f 121 183 181
f 122 182 184
f 123 124 125
f 125 233 123
f 123 233 235
f 125 124 126
f 124 234 126
f 124 236 234
f 125 126 127
f 127 225 125
f 125 225 229
f 125 229 233
f 127 126 128
f 126 226 128
f 126 230 226
f 126 234 230
f 127 128 129
f 129 221 127
f 127 221 225
f 129 128 130
f 128 222 130
f 128 226 222
f 129 130 131
f 131 217 129
f 129 217 221
f 131 130 132
f 130 218 132
f 130 222 218
f 131 132 141
f 141 215 131
f 131 215 217
f 141 132 142
f 132 216 142
f 132 218 216
f 133 134 135
f 133 144 134
f 135 205 133
f 143 144 133
f 133 211 143
f 133 205 211
f 135 134 136
f 134 206 136
f 144 212 134
f 134 212 206
f 135 136 137
f 137 201 135
f 135 201 205
f 137 136 138
f 136 202 138
f 136 206 202
f 137 138 139
f 139 193 137
f 137 193 201
f 139 138 140
f 138 194 140
f 138 202 194
f 139 195 193
f 140 194 196
f 141 142 143
f 143 209 141
f 141 209 215
f 143 142 144
f 142 210 144
f 142 216 210
f 143 211 209
f 144 210 212
f 145 148 146
f 145 146 165
f 147 148 145
f 165 146 166
f 147 150 148
f 149 150 147
f 149 152 150
f 151 152 149
f 151 154 152
f 153 154 151
f 153 156 154
f 155 156 153
f 155 158 156
f 157 158 155
f 157 160 158
f 159 160 157
f 159 168 160
f 167 168 159
f 161 164 162
f 161 162 175
f 163 164 161
f 175 162 176
f 163 166 164
f 165 166 163
f 167 170 168
f 169 170 167
f 169 172 170
f 171 172 169
f 171 178 172
f 177 178 171
f 173 176 174
f 173 174 183
f 175 176 173
f 183 174 184
f 177 180 178
f 179 180 177
f 179 186 180
f 185 186 179
f 185 179 305
f 306 180 186
f 181 184 182
f 181 182 189
f 183 184 181
f 189 182 190
f 185 188 186
f 187 188 185
f 187 185 305
f 306 186 188
f 187 192 188
f 191 192 187
f 305 191 187
f 188 192 306
f 189 190 195
f 195 190 196
f 191 198 192
f 197 198 191
f 305 197 191
f 306 192 198
f 193 196 194
f 193 194 201
f 195 196 193
f 201 194 202
f 197 200 198
f 199 200 197
f 305 199 197
f 198 200 306
f 199 204 200
f 203 204 199
f 305 203 199
f 200 204 306
f 201 202 205
f 205 202 206
f 203 208 204
f 207 208 203
f 207 203 305
f 306 204 208
f 205 206 211
f 211 206 212
f 207 214 208
f 213 214 207
f 213 207 305
f 306 208 214
f 209 212 210
f 209 210 215
f 211 212 209
f 215 210 216
f 213 220 214
f 219 220 213
f 305 219 213
f 306 214 220
f 215 216 217
f 217 216 218
f 217 218 221
f 221 218 222
f 219 224 220
f 223 224 219
f 305 223 219
f 306 220 224
f 221 222 225
f 225 222 226
f 223 228 224
f 227 228 223
f 305 227 223
f 306 224 228
f 225 226 229
f 229 226 230
f 227 232 228
f 231 232 227
f 305 231 227
f 228 232 306
f 229 230 233
f 233 230 234
f 231 240 232
f 239 240 231
f 239 231 305
f 306 232 240
f 233 234 235
f 235 234 236
f 235 236 257
f 257 236 258
f 237 238 239
f 237 262 238
f 237 239 305
f 261 262 237
f 305 261 237
f 239 238 240
f 306 240 238
f 306 238 262
f 241 242 243
f 241 272 242
f 271 272 241
f 243 242 244
f 440 244 242
f 436 242 272
f 440 242 436
f 243 244 245
f 245 244 246
f 444 246 244
f 444 244 440
f 245 246 247
f 247 246 248
f 448 248 246
f 448 246 444
f 247 248 249
f 249 248 250
f 456 250 248
f 456 248 448
f 249 250 251
f 251 250 252
f 460 252 250
f 460 250 456
f 251 252 253
f 253 252 254
f 464 254 252
f 464 252 460
f 253 254 255
f 255 254 256
f 468 256 254
f 468 254 464
f 255 256 273
f 273 256 274
f 472 274 256
f 472 256 468
f 257 258 281
f 257 281 452
f 281 258 282
f 282 258 453
f 259 260 261
f 259 284 260
f 305 259 261
f 283 284 259
f 283 259 305
f 261 260 262
f 262 260 306
f 306 260 284
f 263 264 265
f 263 290 264
f 289 290 263
f 265 264 266
f 424 266 264
f 420 264 290
f 424 264 420
f 265 266 267
f 267 266 268
f 428 268 266
f 428 266 424
f 267 268 269
f 269 268 270
f 432 270 268
f 432 268 428
f 269 270 271
f 271 270 272
f 436 272 270
f 436 270 432
f 273 274 275
f 275 274 276
f 478 276 274
f 478 274 472
f 275 276 277
f 277 276 278
f 482 278 276
f 482 276 478
f 277 278 279
f 279 278 280
f 488 280 278
f 484 278 482
f 488 278 484
f 279 280 291
f 291 280 292
f 492 292 280
f 492 280 488
f 281 282 297
f 281 297 452
f 297 282 298
f 298 282 453
f 283 304 284
f 303 304 283
f 303 283 305
f 306 284 304
f 285 286 287
f 285 310 286
f 309 310 285
f 287 286 288
f 416 288 286
f 410 286 310
f 416 286 410
f 287 288 289
f 289 288 290
f 420 290 288
f 420 288 416
f 291 292 293
f 293 292 294
f 498 294 292
f 498 292 492
f 293 294 295
f 295 294 296
f 504 296 294
f 500 294 498
f 504 294 500
f 295 296 311
f 311 296 312
f 504 312 296
f 297 298 299
f 452 297 299
f 299 298 300
f 453 300 298
f 299 300 317
f 452 299 317
f 317 300 318
f 453 318 300
f 301 302 303
f 301 328 302
f 305 301 303
f 305 327 301
f 327 328 301
f 303 302 304
f 304 302 306
f 306 302 328
f 305 306 452
f 452 327 305
f 306 328 453
f 452 306 453
f 307 308 309
f 307 332 308
f 331 332 307
f 309 308 310
f 406 310 308
f 398 308 332
f 406 308 398
f 404 310 406
f 410 310 404
f 311 312 313
f 313 312 314
f 508 314 312
f 508 312 504
f 313 314 315
f 315 314 316
f 514 316 314
f 510 314 508
f 514 314 510
f 315 316 333
f 333 316 334
f 514 334 316
f 317 318 319
f 317 319 452
f 319 318 320
f 320 318 453
f 319 320 321
f 452 319 321
f 321 320 322
f 453 322 320
f 321 322 337
f 321 337 452
f 337 322 338
f 338 322 453
f 323 324 325
f 323 348 324
f 452 323 325
f 347 348 323
f 452 347 323
f 325 324 326
f 453 326 324
f 453 324 348
f 325 326 327
f 452 325 327
f 327 326 328
f 453 328 326
f 329 330 331
f 329 352 330
f 351 352 329
f 331 330 332
f 394 332 330
f 386 330 352
f 394 330 386
f 392 332 394
f 398 332 392
f 333 334 335
f 335 334 336
f 518 336 334
f 518 334 514
f 335 336 353
f 353 336 354
f 524 354 336
f 520 336 518
f 524 336 520
f 337 338 339
f 452 337 339
f 339 338 340
f 453 340 338
f 339 340 341
f 452 339 341
f 341 340 342
f 453 342 340
f 341 342 343
f 341 343 452
f 343 342 344
f 344 342 453
f 343 344 345
f 343 345 452
f 345 344 346
f 346 344 453
f 345 346 347
f 345 347 452
f 347 346 348
f 348 346 453
f 349 350 351
f 349 360 350
f 359 360 349
f 351 350 352
f 388 352 350
f 380 350 360
f 388 350 380
f 386 352 388
f 353 354 355
f 355 354 356
f 530 356 354
f 530 354 524
f 355 356 361
f 361 356 362
f 530 362 356
f 357 358 359
f 357 366 358
f 365 366 357
f 359 358 360
f 380 360 358
f 372 358 366
f 380 358 372
f 361 362 363
f 363 362 364
f 536 364 362
f 536 362 530
f 363 364 367
f 367 364 368
f 538 368 364
f 538 364 536
f 365 374 366
f 373 374 365
f 372 366 374
f 367 368 369
f 369 368 370
f 544 370 368
f 542 368 538
f 544 368 542
f 369 370 375
f 375 454 369
f 375 370 376
f 544 376 370
f 371 372 373
f 371 380 372
f 379 380 371
f 373 372 374
f 375 376 377
f 377 454 375
f 377 376 378
f 376 550 378
f 376 544 550
f 377 378 381
f 381 454 377
f 381 378 382
f 378 552 382
f 378 550 552
f 379 388 380
f 387 388 379
f 381 382 383
f 383 454 381
f 383 382 384
f 382 558 384
f 382 552 556
f 382 556 558
f 383 384 389
f 389 454 383
f 389 384 390
f 384 558 390
f 385 386 387
f 385 394 386
f 393 394 385
f 385 636 393
f 387 386 388
f 389 390 395
f 395 454 389
f 395 390 396
f 390 564 396
f 390 558 564
f 391 392 393
f 391 398 392
f 393 636 391
f 397 398 391
f 391 636 397
f 393 392 394
f 395 396 399
f 399 454 395
f 399 396 400
f 396 572 400
f 396 564 566
f 396 566 572
f 397 406 398
f 405 406 397
f 397 636 405
f 399 400 401
f 401 454 399
f 401 400 402
f 400 572 402
f 401 402 407
f 407 454 401
f 407 402 408
f 402 574 408
f 402 572 574
f 403 404 405
f 403 410 404
f 405 636 403
f 409 410 403
f 403 636 409
f 405 404 406
f 407 408 411
f 411 454 407
f 411 408 412
f 408 584 412
f 408 574 576
f 408 576 584
f 409 416 410
f 415 416 409
f 409 636 415
f 411 412 413
f 413 454 411
f 413 412 414
f 412 584 414
f 413 414 417
f 417 454 413
f 417 414 418
f 414 586 418
f 414 584 586
f 415 420 416
f 419 420 415
f 415 636 419
f 417 418 421
f 421 454 417
f 421 418 422
f 418 588 422
f 418 586 588
f 419 424 420
f 423 424 419
f 419 636 423
f 421 422 425
f 425 454 421
f 425 422 426
f 422 598 426
f 422 588 596
f 422 596 598
f 423 428 424
f 427 428 423
f 423 636 427
f 425 426 429
f 429 454 425
f 429 426 430
f 426 600 430
f 426 598 600
f 427 432 428
f 431 432 427
f 427 636 431
f 429 430 433
f 433 454 429
f 433 430 434
f 430 602 434
f 430 600 602
f 431 436 432
f 435 436 431
f 431 636 435
f 433 434 437
f 437 454 433
f 437 434 438
f 434 612 438
f 434 602 610
f 434 610 612
f 435 440 436
f 439 440 435
f 435 636 439
f 437 438 441
f 441 454 437
f 441 438 442
f 438 614 442
f 438 612 614
f 439 444 440
f 443 444 439
f 439 636 443
f 441 442 445
f 445 454 441
f 445 442 446
f 442 616 446
f 442 614 616
f 443 448 444
f 447 448 443
f 443 636 447
f 445 446 449
f 449 454 445
f 449 446 450
f 446 618 450
f 446 616 618
f 447 456 448
f 455 456 447
f 447 636 455
f 449 450 457
f 457 454 449
f 457 450 458
f 450 620 458
f 450 618 620
f 452 847 451
f 453 848 452
f 452 848 847
f 454 849 453
f 453 849 848
f 461 454 457
f 465 454 461
f 469 454 465
f 475 454 469
f 473 454 475
f 479 454 473
f 485 454 479
f 489 454 485
f 495 454 489
f 493 454 495
f 501 454 493
f 505 454 501
f 511 454 505
f 515 454 511
f 521 454 515
f 527 454 521
f 525 454 527
f 533 454 525
f 531 454 533
f 539 454 531
f 547 454 539
f 545 454 547
f 553 454 545
f 561 454 553
f 559 454 561
f 569 454 559
f 569 850 454
f 454 850 849
f 455 460 456
f 459 460 455
f 455 636 459
f 457 458 461
f 461 458 462
f 458 622 462
f 458 620 622
f 459 464 460
f 463 464 459
f 459 636 463
f 461 462 465
f 465 462 466
f 462 624 466
f 462 622 624
f 463 468 464
f 467 468 463
f 463 636 467
f 465 466 469
f 469 466 470
f 466 626 470
f 466 624 626
f 467 472 468
f 471 472 467
f 467 636 471
f 469 470 475
f 475 470 476
f 470 628 476
f 470 626 628
f 471 478 472
f 477 478 471
f 471 636 477
f 473 476 474
f 473 474 479
f 475 476 473
f 476 628 474
f 479 474 480
f 474 630 480
f 474 628 630
f 477 482 478
f 481 482 477
f 477 636 481
f 479 480 485
f 485 480 486
f 480 632 486
f 480 630 632
f 481 484 482
f 483 484 481
f 481 636 483
f 483 488 484
f 487 488 483
f 483 636 487
f 485 486 489
f 489 486 490
f 486 604 490
f 486 632 604
f 487 492 488
f 491 492 487
f 487 636 491
f 489 490 495
f 495 490 496
f 490 606 496
f 490 604 606
f 491 498 492
f 497 498 491
f 491 636 497
f 493 496 494
f 493 494 501
f 495 496 493
f 496 606 494
f 501 494 502
f 494 608 502
f 494 606 608
f 497 500 498
f 499 500 497
f 497 636 499
f 499 504 500
f 503 504 499
f 499 636 503
f 501 502 505
f 505 502 506
f 502 590 506
f 502 608 590
f 503 508 504
f 507 508 503
f 503 636 507
f 505 506 511
f 511 506 512
f 506 592 512
f 506 590 592
f 507 510 508
f 509 510 507
f 507 636 509
f 509 514 510
f 513 514 509
f 509 636 513
f 511 512 515
f 515 512 516
f 512 578 516
f 512 594 578
f 512 592 594
f 513 518 514
f 517 518 513
f 513 636 517
f 515 516 521
f 521 516 522
f 516 580 522
f 516 578 580
f 517 520 518
f 519 520 517
f 517 636 519
f 519 524 520
f 523 524 519
f 519 636 523
f 521 522 527
f 527 522 528
f 522 568 528
f 522 582 568
f 522 580 582
f 523 530 524
f 529 530 523
f 523 636 529
f 525 528 526
f 525 526 533
f 527 528 525
f 528 568 526
f 533 526 534
f 526 570 534
f 526 568 570
f 529 536 530
f 535 536 529
f 529 636 535
f 531 534 532
f 531 532 539
f 533 534 531
f 534 562 532
f 539 532 540
f 532 562 540
f 534 560 562
f 534 570 560
f 535 538 536
f 537 538 535
f 535 636 537
f 537 542 538
f 541 542 537
f 537 636 541
f 539 540 547
f 547 540 548
f 540 554 548
f 540 562 554
f 541 544 542
f 543 544 541
f 541 636 543
f 543 550 544
f 549 550 543
f 543 850 549
f 543 636 850
f 545 548 546
f 545 546 553
f 547 548 545
f 548 554 546
f 553 546 554
f 549 552 550
f 551 552 549
f 549 850 551
f 551 556 552
f 555 556 551
f 551 850 555
f 553 554 561
f 561 554 562
f 555 558 556
f 557 558 555
f 555 850 557
f 557 564 558
f 563 564 557
f 557 850 563
f 559 562 560
f 559 560 569
f 561 562 559
f 569 560 570
f 563 566 564
f 565 566 563
f 563 850 565
f 565 572 566
f 571 572 565
f 565 850 571
f 567 570 568
f 567 568 581
f 569 570 567
f 567 850 569
f 581 850 567
f 581 568 582
f 571 574 572
f 573 574 571
f 571 850 573
f 573 576 574
f 575 576 573
f 573 850 575
f 575 584 576
f 583 584 575
f 575 850 583
f 577 580 578
f 577 578 593
f 579 580 577
f 577 850 579
f 593 850 577
f 593 578 594
f 579 582 580
f 581 582 579
f 579 850 581
f 583 586 584
f 585 586 583
f 583 850 585
f 585 588 586
f 587 588 585
f 585 850 587
f 587 596 588
f 595 596 587
f 587 850 595
f 589 592 590
f 589 590 607
f 591 592 589
f 589 850 591
f 607 850 589
f 607 590 608
f 591 594 592
f 593 594 591
f 591 850 593
f 595 598 596
f 597 598 595
f 595 850 597
f 597 600 598
f 599 600 597
f 597 850 599
f 599 602 600
f 601 602 599
f 599 850 601
f 601 610 602
f 609 610 601
f 601 850 609
f 603 606 604
f 603 604 631
f 605 606 603
f 603 850 605
f 631 850 603
f 631 604 632
f 605 608 606
f 607 608 605
f 605 850 607
f 609 612 610
f 611 612 609
f 609 850 611
f 611 614 612
f 613 614 611
f 611 850 613
f 613 616 614
f 615 616 613
f 613 850 615
f 615 618 616
f 617 618 615
f 615 850 617
f 617 620 618
f 619 620 617
f 617 850 619
f 619 622 620
f 621 622 619
f 619 850 621
f 621 624 622
f 623 624 621
f 621 850 623
f 623 626 624
f 625 626 623
f 623 850 625
f 625 628 626
f 627 628 625
f 625 850 627
f 627 630 628
f 629 630 627
f 627 850 629
f 629 632 630
f 631 632 629
f 629 850 631
f 634 633 848
f 848 633 847
f 634 662 635
f 637 634 639
f 651 634 637
f 639 634 641
f 641 634 643
f 643 634 653
f 645 634 647
f 665 634 645
f 647 634 649
f 649 634 651
f 653 634 655
f 655 634 657
f 657 634 659
f 659 634 667
f 661 662 634
f 671 661 634
f 663 634 665
f 671 634 663
f 667 634 669
f 669 634 673
f 673 634 675
f 675 634 679
f 679 634 681
f 681 634 687
f 687 634 691
f 634 801 691
f 777 775 634
f 634 775 795
f 634 779 777
f 634 781 779
f 634 783 781
f 634 785 783
f 634 787 785
f 789 787 634
f 634 797 789
f 634 793 791
f 634 791 803
f 634 795 793
f 634 799 797
f 634 805 799
f 634 803 801
f 634 807 805
f 634 813 807
f 815 813 634
f 848 815 634
f 635 850 636
f 640 635 638
f 638 635 652
f 642 635 640
f 644 635 642
f 654 635 644
f 648 635 646
f 646 635 666
f 650 635 648
f 652 635 650
f 656 635 654
f 658 635 656
f 660 635 658
f 668 635 660
f 672 635 662
f 666 635 664
f 664 635 672
f 670 635 668
f 674 635 670
f 676 635 674
f 680 635 676
f 682 635 680
f 688 635 682
f 692 635 688
f 692 802 635
f 776 778 635
f 635 796 776
f 635 778 780
f 635 780 782
f 635 782 784
f 635 784 786
f 635 786 788
f 788 790 635
f 635 790 798
f 635 792 794
f 635 804 792
f 635 794 796
f 635 798 800
f 635 800 806
f 635 802 804
f 635 806 808
f 808 814 635
f 635 814 816
f 635 816 849
f 849 850 635
f 638 637 640
f 638 651 637
f 640 637 639
f 652 651 638
f 640 639 642
f 642 639 641
f 642 641 644
f 644 641 643
f 644 643 654
f 654 643 653
f 646 645 648
f 646 665 645
f 648 645 647
f 666 665 646
f 648 647 650
f 650 647 649
f 650 649 652
f 652 649 651
f 654 653 656
f 656 653 655
f 656 655 658
f 658 655 657
f 658 657 660
f 660 657 659
f 660 659 668
f 668 659 667
f 662 661 916
f 677 661 671
f 685 661 677
f 683 661 685
f 689 661 683
f 693 661 689
f 699 661 693
f 697 661 699
f 703 661 697
f 707 661 703
f 711 661 707
f 713 661 711
f 717 661 713
f 721 661 717
f 727 661 721
f 729 661 727
f 733 661 729
f 735 661 733
f 741 661 735
f 877 661 741
f 877 915 661
f 916 661 915
f 672 662 678
f 678 662 686
f 686 662 684
f 684 662 690
f 690 662 694
f 694 662 700
f 700 662 698
f 698 662 704
f 704 662 708
f 708 662 712
f 712 662 714
f 714 662 718
f 718 662 722
f 722 662 728
f 728 662 730
f 730 662 734
f 734 662 736
f 736 662 742
f 878 742 662
f 878 662 916
f 664 663 666
f 664 671 663
f 666 663 665
f 672 671 664
f 668 667 670
f 670 667 669
f 670 669 674
f 674 669 673
f 672 677 671
f 678 677 672
f 674 673 676
f 676 673 675
f 676 675 680
f 680 675 679
f 678 685 677
f 686 685 678
f 680 679 682
f 682 679 681
f 682 681 688
f 688 681 687
f 684 683 686
f 684 689 683
f 686 683 685
f 690 689 684
f 688 687 692
f 692 687 691
f 690 693 689
f 694 693 690
f 692 691 696
f 696 691 695
f 801 695 691
f 696 802 692
f 694 699 693
f 700 699 694
f 696 695 702
f 702 695 701
f 801 701 695
f 702 802 696
f 698 697 700
f 698 703 697
f 700 697 699
f 704 703 698
f 702 701 706
f 706 701 705
f 801 705 701
f 706 802 702
f 704 707 703
f 708 707 704
f 706 705 710
f 710 705 709
f 801 709 705
f 710 802 706
f 708 711 707
f 712 711 708
f 710 709 716
f 716 709 715
f 715 709 801
f 716 802 710
f 712 713 711
f 714 713 712
f 714 717 713
f 718 717 714
f 716 715 720
f 720 715 719
f 719 715 801
f 720 802 716
f 718 721 717
f 722 721 718
f 720 719 726
f 726 719 725
f 801 725 719
f 726 802 720
f 722 727 721
f 728 727 722
f 724 725 723
f 724 723 732
f 723 725 801
f 732 723 731
f 801 731 723
f 726 725 724
f 724 802 726
f 732 802 724
f 728 729 727
f 730 729 728
f 730 733 729
f 734 733 730
f 732 731 740
f 740 731 739
f 739 731 801
f 740 802 732
f 734 735 733
f 736 735 734
f 736 741 735
f 742 741 736
f 738 739 737
f 738 737 748
f 737 739 801
f 748 737 747
f 747 737 801
f 740 739 738
f 738 802 740
f 748 802 738
f 742 743 741
f 743 873 741
f 741 873 877
f 744 743 742
f 742 874 744
f 742 878 874
f 744 749 743
f 749 871 743
f 743 871 873
f 750 749 744
f 744 872 750
f 744 874 872
f 746 747 745
f 746 745 758
f 801 745 747
f 758 745 757
f 757 745 801
f 748 747 746
f 746 802 748
f 758 802 746
f 750 751 749
f 751 865 749
f 749 865 871
f 752 751 750
f 750 866 752
f 750 872 866
f 752 759 751
f 759 861 751
f 751 861 865
f 760 759 752
f 752 862 760
f 752 866 862
f 754 755 753
f 754 753 774
f 801 753 755
f 774 753 773
f 773 753 801
f 756 755 754
f 754 802 756
f 774 802 754
f 756 757 755
f 755 757 801
f 758 757 756
f 756 802 758
f 760 761 759
f 761 857 759
f 759 857 861
f 762 761 760
f 760 858 762
f 760 862 858
f 762 763 761
f 763 851 761
f 761 851 857
f 764 763 762
f 762 852 764
f 762 858 852
f 764 765 763
f 765 843 763
f 763 843 851
f 766 765 764
f 764 844 766
f 764 852 844
f 766 767 765
f 767 839 765
f 765 839 843
f 768 767 766
f 766 840 768
f 766 844 840
f 768 769 767
f 769 809 767
f 767 809 817
f 817 825 767
f 767 825 823
f 767 823 829
f 767 829 833
f 767 833 839
f 770 769 768
f 768 810 770
f 768 818 810
f 826 818 768
f 768 824 826
f 768 830 824
f 768 834 830
f 768 840 834
f 770 771 769
f 769 771 801
f 769 801 811
f 811 809 769
f 772 771 770
f 770 802 772
f 770 812 802
f 770 810 812
f 772 773 771
f 801 771 773
f 774 773 772
f 772 802 774
f 776 775 778
f 776 795 775
f 778 775 777
f 796 795 776
f 778 777 780
f 780 777 779
f 780 779 782
f 782 779 781
f 782 781 784
f 784 781 783
f 784 783 786
f 786 783 785
f 786 785 788
f 788 785 787
f 788 787 790
f 790 787 789
f 790 789 798
f 798 789 797
f 792 791 794
f 792 803 791
f 794 791 793
f 804 803 792
f 794 793 796
f 796 793 795
f 798 797 800
f 800 797 799
f 800 799 806
f 806 799 805
f 802 801 804
f 802 811 801
f 804 801 803
f 812 811 802
f 806 805 808
f 808 805 807
f 808 807 814
f 814 807 813
f 810 809 812
f 810 817 809
f 812 809 811
f 818 817 810
f 814 813 816
f 816 813 815
f 816 815 820
f 820 815 819
f 848 819 815
f 849 816 820
f 818 825 817
f 826 825 818
f 820 819 822
f 822 819 821
f 848 821 819
f 820 822 849
f 822 821 828
f 828 821 827
f 827 821 848
f 849 822 828
f 824 823 826
f 824 829 823
f 826 823 825
f 830 829 824
f 828 827 832
f 832 827 831
f 848 831 827
f 828 832 849
f 830 833 829
f 834 833 830
f 832 831 836
f 836 831 835
f 848 835 831
f 849 832 836
f 834 839 833
f 840 839 834
f 836 835 838
f 838 835 837
f 848 837 835
f 849 836 838
f 838 837 842
f 842 837 841
f 848 841 837
f 849 838 842
f 840 843 839
f 844 843 840
f 842 841 846
f 846 841 845
f 845 841 848
f 849 842 846
f 844 851 843
f 852 851 844
f 846 845 856
f 915 845 848
f 856 845 855
f 915 855 845
f 849 846 856
f 849 915 848
f 849 856 854
f 849 854 860
f 860 864 849
f 849 864 870
f 849 870 868
f 849 868 876
f 849 876 882
f 849 882 916
f 916 915 849
f 852 857 851
f 858 857 852
f 854 855 853
f 854 853 860
f 915 853 855
f 860 853 859
f 915 859 853
f 856 855 854
f 858 861 857
f 862 861 858
f 860 859 864
f 864 859 863
f 863 859 915
f 862 865 861
f 866 865 862
f 864 863 870
f 870 863 869
f 915 869 863
f 866 871 865
f 872 871 866
f 868 869 867
f 868 867 876
f 915 867 869
f 876 867 875
f 915 875 867
f 870 869 868
f 872 873 871
f 874 873 872
f 874 877 873
f 878 877 874
f 876 875 882
f 882 875 881
f 915 881 875
f 878 879 877
f 915 877 879
f 880 879 878
f 916 880 878
f 880 883 879
f 915 879 883
f 884 883 880
f 916 884 880
f 882 881 890
f 890 881 889
f 915 889 881
f 916 882 890
f 884 885 883
f 915 883 885
f 886 885 884
f 916 886 884
f 886 891 885
f 915 885 891
f 892 891 886
f 892 886 916
f 888 889 887
f 888 887 906
f 887 889 915
f 906 887 905
f 905 887 915
f 890 889 888
f 916 890 888
f 916 888 906
f 892 893 891
f 891 893 915
f 894 893 892
f 916 894 892
f 894 895 893
f 915 893 895
f 896 895 894
f 896 894 916
f 896 897 895
f 915 895 897
f 898 897 896
f 916 898 896
f 898 907 897
f 897 907 915
f 908 907 898
f 916 908 898
f 900 901 899
f 900 899 914
f 899 901 915
f 914 899 913
f 915 913 899
f 902 901 900
f 916 902 900
f 900 914 916
f 902 903 901
f 915 901 903
f 904 903 902
f 904 902 916
f 904 905 903
f 915 903 905
f 906 905 904
f 916 906 904
f 908 909 907
f 915 907 909
f 910 909 908
f 916 910 908
f 910 911 909
f 909 911 915
f 912 911 910
f 916 912 910
f 912 913 911
f 911 913 915
f 914 913 912
f 916 914 912
