v -0.0540506077 -0.0399084735 0.00400000006
v -0.0540506077 -0.0399084735 0.00600000024
v -0.0508334732 -0.0425191069 0.00400000006
v -0.0507520723 -0.0426977205 0.00600000024
v -0.0509206438 -0.0422585821 0.00400000006
v -0.0508478642 -0.0424825668 0.00600000024
v -0.0509696054 -0.0420282173 0.00400000006
v -0.0509304762 -0.0422205639 0.00600000024
v -0.0509959364 -0.0417547655 0.00400000006
v -0.0509754133 -0.0419893789 0.00600000024
v -0.0509918261 -0.041519289 0.00400000006
v -0.0509969664 -0.0417155075 0.00600000024
v -0.0509631252 -0.0412855339 0.00400000006
v -0.0509887457 -0.0414801407 0.00600000024
v -0.0508989954 -0.041018405 0.00400000006
v -0.0509559679 -0.0412469196 0.00600000024
v -0.050802784 -0.0407610846 0.00400000006
v -0.0508871841 -0.0409809542 0.00600000024
v -0.0507520723 -0.0406547642 0.00400000006
v -0.0507865 -0.0407253504 0.00600000024
v -0.0505442381 -0.043030324 0.00400000006
v -0.0505203342 -0.0430614805 0.00600000024
v -0.0507152033 -0.0427670622 0.00400000006
v -0.0505675983 -0.0429987574 0.00600000024
v -0.050733943 -0.0427325535 0.00400000006
v -0.050733943 -0.0427325535 0.00600000024
v -0.0506759357 -0.0405174065 0.00400000006
v -0.050733943 -0.0406199312 0.00600000024
v -0.0505203342 -0.0402910042 0.00400000006
v -0.0506554174 -0.040483923 0.00600000024
v -0.0503382969 -0.043267231 0.00400000006
v -0.0503382969 -0.043267231 0.00600000024
v -0.0504958868 -0.0430922127 0.00400000006
v -0.0503658247 -0.0432392216 0.00600000024
v -0.0504958868 -0.040260272 0.00400000006
v -0.0504958868 -0.040260272 0.00600000024
v -0.0502528524 -0.0400041628 0.00400000006
v -0.0504709101 -0.040229969 0.00600000024
v -0.0500378561 -0.0435193348 0.00400000006
v -0.0500054932 -0.0435415745 0.00600000024
v -0.0502234411 -0.0433743382 0.00400000006
v -0.0500698233 -0.0434965277 0.00600000024
v -0.0500054932 -0.0398109055 0.00400000006
v -0.0502234411 -0.0399781442 0.00600000024
v -0.0499727488 -0.0435632515 0.00400000006
v -0.0497687864 -0.0436810064 0.00600000024
v -0.0499396276 -0.0397681332 0.00400000006
v -0.0499727488 -0.0397892332 0.00600000024
v -0.0497687864 -0.0396714759 0.00400000006
v -0.0499061441 -0.0397476149 0.00600000024
v -0.0495901728 -0.0437624025 0.00400000006
v -0.0495168543 -0.0437905502 0.00600000024
v -0.0497336435 -0.0436985254 0.00400000006
v -0.0496264553 -0.0437473774 0.00600000024
v -0.0495168543 -0.0395619321 0.00400000006
v -0.0497336435 -0.0396539545 0.00600000024
v -0.0494798374 -0.0438036585 0.00400000006
v -0.0492534494 -0.0438685751 0.00600000024
v -0.0493296528 -0.0395029068 0.00400000006
v -0.0494798374 -0.0395488238 0.00600000024
v -0.0492534494 -0.0394839072 0.00400000006
v -0.0492916346 -0.0394930768 0.00600000024
v -0.0492151117 -0.0438770723 0.00400000006
v -0.0490215158 -0.0439094687 0.00600000024
v -0.0490215158 -0.0394430113 0.00400000006
v -0.0492151117 -0.03947541 0.00600000024
v -0.0489824963 -0.0439139175 0.00400000006
v -0.0487865782 -0.0439259005 0.00600000024
v -0.0487865782 -0.0394265842 0.00400000006
v -0.0489824963 -0.0394385672 0.00600000024
v -0.0487473106 -0.043926239 0.00400000006
v -0.0485121202 -0.0439139175 0.00600000024
v -0.0485121202 -0.0394385672 0.00400000006
v -0.0487473106 -0.0394262409 0.00600000024
v -0.0487473106 -0.0346051741 -0.0230999994
v -0.0487473106 -0.0346051741 0.00400000006
v -0.0487473106 -0.0346051741 0.00600000024
v -0.0487473106 -0.0346051741 0.0129999995
v -0.0484731007 -0.0439094687 0.00400000006
v -0.0482795095 -0.0438770723 0.00600000024
v -0.0482795095 -0.03947541 0.00400000006
v -0.0484731007 -0.0394430113 0.00600000024
v -0.0482411671 -0.0438685751 0.00400000006
v -0.0480147791 -0.0438036585 0.00600000024
v -0.0480147791 -0.0395488238 0.00400000006
v -0.0481649637 -0.0395029068 0.00600000024
v -0.0482029867 -0.0394930768 0.00400000006
v -0.0482411671 -0.0394839072 0.00600000024
v -0.0479777622 -0.0437905502 0.00400000006
v -0.0479044437 -0.0437624025 0.00600000024
v -0.047868166 -0.0437473774 0.00400000006
v -0.047760973 -0.0436985254 0.00600000024
v -0.047760973 -0.0396539545 0.00400000006
v -0.0479777622 -0.0395619321 0.00600000024
v -0.0477258301 -0.0436810064 0.00400000006
v -0.0475218725 -0.0435632515 0.00600000024
v -0.0475218725 -0.0397892332 0.00400000006
v -0.0475549889 -0.0397681332 0.00600000024
v -0.0475884724 -0.0397476149 0.00400000006
v -0.0477258301 -0.0396714759 0.00600000024
v -0.0474891233 -0.0435415745 0.00400000006
v -0.0474567604 -0.0435193348 0.00600000024
v -0.0474247932 -0.0434965277 0.00400000006
v -0.0472711754 -0.0433743382 0.00600000024
v -0.0472711754 -0.0399781442 0.00400000006
v -0.0474891233 -0.0398109055 0.00600000024
v -0.0472417641 -0.0433483171 0.00400000006
v -0.0471563196 -0.043267231 0.00600000024
v -0.0471287966 -0.0432392216 0.00400000006
v -0.0470237064 -0.0431225109 0.00600000024
v -0.0470237064 -0.040229969 0.00400000006
v -0.0472417641 -0.0400041628 0.00600000024
v -0.0469987297 -0.0430922127 0.00400000006
v -0.0469503784 -0.043030324 0.00600000024
v -0.0469270229 -0.0429987574 0.00400000006
v -0.0467794132 -0.0427670622 0.00600000024
v -0.0467606783 -0.0427325535 0.00400000006
v -0.0467606783 -0.0427325535 0.00600000024
v -0.0467606783 -0.0406199312 0.00400000006
v -0.0468186808 -0.0405174065 0.00600000024
v -0.0468391991 -0.040483923 0.00400000006
v -0.0469987297 -0.040260272 0.00600000024
v -0.0467425442 -0.0426977205 0.00400000006
v -0.0466611433 -0.0425191069 0.00600000024
v -0.0466467524 -0.0424825668 0.00400000006
v -0.0465739775 -0.0422585821 0.00600000024
v -0.0465641451 -0.0422205639 0.00400000006
v -0.0465250111 -0.0420282173 0.00600000024
v -0.046519208 -0.0419893789 0.00400000006
v -0.046500392 -0.0417939949 0.00600000024
v -0.046500392 -0.041558485 0.00400000006
v -0.0465027905 -0.041519289 0.00600000024
v -0.0465058708 -0.0414801407 0.00400000006
v -0.0465314913 -0.0412855339 0.00600000024
v -0.0465386486 -0.0412469196 0.00400000006
v -0.0465956211 -0.041018405 0.00600000024
v -0.0466074324 -0.0409809542 0.00400000006
v -0.0466918325 -0.0407610846 0.00600000024
v -0.0467081165 -0.0407253504 0.00400000006
v -0.0467425442 -0.0406547642 0.00600000024
v -0.0464986801 -0.0417547655 0.00400000006
v -0.0464986801 -0.0417547655 0.00600000024
v -0.0464976501 -0.0417155075 0.00400000006
v -0.0464986801 -0.0415977192 0.00600000024
v -0.0437905502 -0.0495168543 0.00400000006
v -0.0437624025 -0.0495901728 0.00600000024
v -0.0438685751 -0.0492534494 0.00400000006
v -0.0438036585 -0.0494798374 0.00600000024
v -0.0439094687 -0.0490215158 0.00400000006
v -0.0438770723 -0.0492151117 0.00600000024
v -0.0439259005 -0.0487865782 0.00400000006
v -0.0439139175 -0.0489824963 0.00600000024
v -0.0439139175 -0.0485121202 0.00400000006
v -0.043926239 -0.0487473106 0.00600000024
v -0.0438770723 -0.0482795095 0.00400000006
v -0.0439094687 -0.0484731007 0.00600000024
v -0.0438036585 -0.0480147791 0.00400000006
v -0.0438685751 -0.0482411671 0.00600000024
v -0.0437624025 -0.0479044437 0.00400000006
v -0.0437905502 -0.0479777622 0.00600000024
v -0.0435415745 -0.0500054932 0.00400000006
v -0.0435193348 -0.0500378561 0.00600000024
v -0.0436810064 -0.0497687864 0.00400000006
v -0.0435632515 -0.0499727488 0.00600000024
v -0.0437473774 -0.0496264553 0.00400000006
v -0.0436985254 -0.0497336435 0.00600000024
v -0.0436985254 -0.047760973 0.00400000006
v -0.0437473774 -0.047868166 0.00600000024
v -0.0435632515 -0.0475218725 0.00400000006
v -0.0436810064 -0.0477258301 0.00600000024
v -0.0435193348 -0.0474567604 0.00400000006
v -0.0435415745 -0.0474891233 0.00600000024
v -0.043267231 -0.0503382969 0.00400000006
v -0.043267231 -0.0503382969 0.00600000024
v -0.0434965277 -0.0500698233 0.00400000006
v -0.0433743382 -0.0502234411 0.00600000024
v -0.0433743382 -0.0472711754 0.00400000006
v -0.0434965277 -0.0474247932 0.00600000024
v -0.043267231 -0.0471563196 0.00400000006
v -0.0433483171 -0.0472417641 0.00600000024
v -0.0430614805 -0.0505203342 0.00400000006
v -0.043030324 -0.0505442381 0.00600000024
v -0.0432392216 -0.0503658247 0.00400000006
v -0.0430922127 -0.0504958868 0.00600000024
v -0.0431225109 -0.0470237064 0.00400000006
v -0.0432392216 -0.0471287966 0.00600000024
v -0.043030324 -0.0469503784 0.00400000006
v -0.0430922127 -0.0469987297 0.00600000024
v -0.0429987574 -0.0505675983 0.00400000006
v -0.0427670622 -0.0507152033 0.00600000024
v -0.0427670622 -0.0467794132 0.00400000006
v -0.0429987574 -0.0469270229 0.00600000024
v -0.0426977205 -0.0507520723 0.00400000006
v -0.0425191069 -0.0508334732 0.00600000024
v -0.0427325535 -0.050733943 0.00400000006
v -0.0427325535 -0.050733943 0.00600000024
v -0.0427325535 -0.0467606783 0.00400000006
v -0.0427325535 -0.0467606783 0.00600000024
v -0.0425191069 -0.0466611433 0.00400000006
v -0.0426977205 -0.0467425442 0.00600000024
v -0.0424825668 -0.0508478642 0.00400000006
v -0.0422585821 -0.0509206438 0.00600000024
v -0.0422585821 -0.0465739775 0.00400000006
v -0.0424825668 -0.0466467524 0.00600000024
v -0.0422205639 -0.0509304762 0.00400000006
v -0.0420282173 -0.0509696054 0.00600000024
v -0.0420282173 -0.0465250111 0.00400000006
v -0.0422205639 -0.0465641451 0.00600000024
v -0.0419893789 -0.0509754133 0.00400000006
v -0.0417547655 -0.0509959364 0.00600000024
v -0.0417939949 -0.046500392 0.00400000006
v -0.0419893789 -0.046519208 0.00600000024
v -0.0417547655 -0.0464986801 0.00400000006
v -0.0417547655 -0.0464986801 0.00600000024
v -0.0417155075 -0.0509969664 0.00400000006
v -0.041519289 -0.0509918261 0.00600000024
v -0.041519289 -0.0465027905 0.00400000006
v -0.041558485 -0.046500392 0.00600000024
v -0.0415977192 -0.0464986801 0.00400000006
v -0.0417155075 -0.0464976501 0.00600000024
v -0.0414801407 -0.0509887457 0.00400000006
v -0.0412855339 -0.0509631252 0.00600000024
v -0.0412855339 -0.0465314913 0.00400000006
v -0.0414801407 -0.0465058708 0.00600000024
v -0.0412469196 -0.0509559679 0.00400000006
v -0.041018405 -0.0508989954 0.00600000024
v -0.041018405 -0.0465956211 0.00400000006
v -0.0412469196 -0.0465386486 0.00600000024
v -0.0409809542 -0.0508871841 0.00400000006
v -0.0407610846 -0.050802784 0.00600000024
v -0.0407610846 -0.0466918325 0.00400000006
v -0.0409809542 -0.0466074324 0.00600000024
v -0.0407253504 -0.0507865 0.00400000006
v -0.0406547642 -0.0507520723 0.00600000024
v -0.0406199312 -0.050733943 0.00400000006
v -0.0405174065 -0.0506759357 0.00600000024
v -0.0405174065 -0.0468186808 0.00400000006
v -0.0406199312 -0.0467606783 0.00600000024
v -0.0406547642 -0.0467425442 0.00400000006
v -0.0407253504 -0.0467081165 0.00600000024
v -0.040483923 -0.0506554174 0.00400000006
v -0.0402910042 -0.0505203342 0.00600000024
v -0.040260272 -0.0504958868 0.00400000006
v -0.040260272 -0.0504958868 0.00600000024
v -0.040260272 -0.0469987297 0.00400000006
v -0.040483923 -0.0468391991 0.00600000024
v -0.0402776051 -0.0350535464 0.0129999995
v -0.0402776051 -0.0350535464 0.0189999998
v -0.0402994967 -0.034845264 0.0129999995
v -0.0402994967 -0.034845264 0.0189999998
v -0.040318675 -0.0345317268 0.0129999995
v -0.040318675 -0.0345317268 0.0189999998
v -0.0403223324 -0.034322331 0.0129999995
v -0.0403223324 -0.034322331 0.0189999998
v -0.0403141069 -0.0340083146 0.0129999995
v -0.0403141069 -0.0340083146 0.0189999998
v -0.0402994967 -0.0337993956 0.0129999995
v -0.0402994967 -0.0337993956 0.0189999998
v -0.0402776051 -0.0335911155 0.0129999995
v -0.0402776051 -0.0335911155 0.0189999998
v -0.0402639389 -0.0334872913 0.0129999995
v -0.0402639389 -0.0334872913 0.0189999998
v -0.040229969 -0.0504709101 0.00400000006
v -0.0400041628 -0.0502528524 0.00600000024
v -0.0400041628 -0.0472417641 0.00400000006
v -0.040229969 -0.0470237064 0.00600000024
v -0.0400601578 -0.03607656 0.0129999995
v -0.0400601578 -0.03607656 0.0189999998
v -0.040144105 -0.0357738614 0.0129999995
v -0.040144105 -0.0357738614 0.0189999998
v -0.0401912165 -0.0355698013 0.0129999995
v -0.0401912165 -0.0355698013 0.0189999998
v -0.0402484608 -0.0352609372 0.0129999995
v -0.0402484608 -0.0352609372 0.0189999998
v -0.0402311754 -0.0332804418 0.0129999995
v -0.0402311754 -0.0332804418 0.0189999998
v -0.0401912165 -0.0330748606 0.0129999995
v -0.0401912165 -0.0330748606 0.0189999998
v -0.0401178837 -0.0327694154 0.0129999995
v -0.0401178837 -0.0327694154 0.0189999998
v -0.0400601578 -0.0325680995 0.0129999995
v -0.0400601578 -0.0325680995 0.0189999998
v -0.0400286674 -0.0324682283 0.0129999995
v -0.0400286674 -0.0324682283 0.0189999998
v -0.0399084735 -0.0540506077 0.00400000006
v -0.0399084735 -0.0540506077 0.00600000024
v -0.0399781442 -0.0502234411 0.00400000006
v -0.0398109055 -0.0500054932 0.00600000024
v -0.0397892332 -0.0499727488 0.00400000006
v -0.0397681332 -0.0499396276 0.00600000024
v -0.0397681332 -0.0475549889 0.00400000006
v -0.0397892332 -0.0475218725 0.00600000024
v -0.0398109055 -0.0474891233 0.00400000006
v -0.0399781442 -0.0472711754 0.00600000024
v -0.0398036027 -0.0367627501 0.0129999995
v -0.0398036027 -0.0367627501 0.0189999998
v -0.0398854327 -0.0365699697 0.0129999995
v -0.0398854327 -0.0365699697 0.0189999998
v -0.0399954414 -0.0362757397 0.0129999995
v -0.0399954414 -0.0362757397 0.0189999998
v -0.0399604869 -0.0322702098 0.0129999995
v -0.0399604869 -0.0322702098 0.0189999998
v -0.0398854327 -0.0320746899 0.0129999995
v -0.0398854327 -0.0320746899 0.0189999998
v -0.0397601771 -0.0317866206 0.0129999995
v -0.0397601771 -0.0317866206 0.0189999998
v -0.0397476149 -0.0499061441 0.00400000006
v -0.0396714759 -0.0497687864 0.00600000024
v -0.0396539545 -0.0497336435 0.00400000006
v -0.0395619321 -0.0495168543 0.00600000024
v -0.0395488238 -0.0494798374 0.00400000006
v -0.0395029068 -0.0493296528 0.00600000024
v -0.0395029068 -0.0481649637 0.00400000006
v -0.0395488238 -0.0480147791 0.00600000024
v -0.0395619321 -0.0479777622 0.00400000006
v -0.0396539545 -0.047760973 0.00600000024
v -0.0396714759 -0.0477258301 0.00400000006
v -0.0397476149 -0.0475884724 0.00600000024
v -0.0395184827 -0.0373223305 0.0129999995
v -0.0395184827 -0.0373223305 0.0189999998
v -0.0396683693 -0.0370462728 0.0129999995
v -0.0396683693 -0.0370462728 0.0189999998
v -0.0397150946 -0.0369525576 0.0129999995
v -0.0397150946 -0.0369525576 0.0189999998
v -0.0396200156 -0.0315055013 0.0129999995
v -0.0396200156 -0.0315055013 0.0189999998
v -0.0395184827 -0.0313223314 0.0129999995
v -0.0395184827 -0.0313223314 0.0189999998
v -0.0394930768 -0.0492916346 0.00400000006
v -0.0394839072 -0.0492534494 0.00600000024
v -0.03947541 -0.0492151117 0.00400000006
v -0.0394430113 -0.0490215158 0.00600000024
v -0.0394385672 -0.0489824963 0.00400000006
v -0.0394265842 -0.0487865782 0.00600000024
v -0.0394262409 -0.0487473106 0.00400000006
v -0.0394385672 -0.0485121202 0.00600000024
v -0.0394430113 -0.0484731007 0.00400000006
v -0.03947541 -0.0482795095 0.00600000024
v -0.0394839072 -0.0482411671 0.00400000006
v -0.0394930768 -0.0482029867 0.00600000024
v -0.0394106197 -0.0375018454 0.0129999995
v -0.0394106197 -0.0375018454 0.0189999998
v -0.0394653344 -0.03741256 0.0129999995
v -0.0394653344 -0.03741256 0.0189999998
v -0.039354353 -0.0310544968 0.0129999995
v -0.039354353 -0.0310544968 0.0189999998
v -0.0392965555 -0.0309671736 0.0129999995
v -0.0392965555 -0.0309671736 0.0189999998
v -0.0390503955 -0.0380163002 0.0129999995
v -0.0390503955 -0.0380163002 0.0189999998
v -0.0392372417 -0.0377637887 0.0129999995
v -0.0392372417 -0.0377637887 0.0189999998
v -0.0391764331 -0.0307956195 0.0129999995
v -0.0391764331 -0.0307956195 0.0189999998
v -0.0390503955 -0.0306283617 0.0129999995
v -0.0390503955 -0.0306283617 0.0189999998
v -0.0388505888 -0.0382586837 0.0129999995
v -0.0388505888 -0.0382586837 0.0189999998
v -0.0389852071 -0.0380982518 0.0129999995
v -0.0389852071 -0.0380982518 0.0189999998
v -0.0389852071 -0.0305464077 0.0129999995
v -0.0389852071 -0.0305464077 0.0189999998
v -0.0387811995 -0.0303075457 0.0129999995
v -0.0387811995 -0.0303075457 0.0189999998
v -0.0385649705 -0.0385649705 0.0129999995
v -0.0385649705 -0.0385649705 0.0189999998
v -0.0387104535 -0.0384143209 0.0129999995
v -0.0387104535 -0.0384143209 0.0189999998
v -0.0385649705 -0.030079689 0.0129999995
v -0.0385649705 -0.030079689 0.0189999998
v -0.0383371139 -0.0387811995 0.0129999995
v -0.0383371139 -0.0387811995 0.0189999998
v -0.0384902811 -0.03863837 0.0129999995
v -0.0384902811 -0.03863837 0.0189999998
v -0.0384902811 -0.0300062919 0.0129999995
v -0.0384902811 -0.0300062919 0.0189999998
v -0.0382586837 -0.0297940731 0.0129999995
v -0.0382586837 -0.0297940731 0.0189999998
v -0.0380163002 -0.0390503955 0.0129999995
v -0.0380163002 -0.0390503955 0.0189999998
v -0.0381790566 -0.0389185977 0.0129999995
v -0.0381790566 -0.0389185977 0.0189999998
v -0.0380163002 -0.0295942664 0.0129999995
v -0.0380163002 -0.0295942664 0.0189999998
v -0.0379332209 -0.0391141438 0.0129999995
v -0.0379332209 -0.0391141438 0.0189999998
v -0.0379332209 -0.0295305181 0.0129999995
v -0.0379332209 -0.0295305181 0.0189999998
v -0.0377637887 -0.0294074178 0.0129999995
v -0.0377637887 -0.0294074178 0.0189999998
v -0.0376774883 -0.0392965555 0.0129999995
v -0.0376774883 -0.0392965555 0.0189999998
v -0.0375901651 -0.0292903066 0.0129999995
v -0.0375901651 -0.0292903066 0.0189999998
v -0.0375018454 -0.0292340422 0.0129999995
v -0.0375018454 -0.0292340422 0.0189999998
v -0.0373223305 -0.0395184827 0.0129999995
v -0.0373223305 -0.0395184827 0.0189999998
v -0.03741256 -0.0394653344 0.0129999995
v -0.03741256 -0.0394653344 0.0189999998
v -0.0373223305 -0.0291261792 0.0129999995
v -0.0373223305 -0.0291261792 0.0189999998
v -0.0372311878 -0.0395700479 0.0129999995
v -0.0372311878 -0.0395700479 0.0189999998
v -0.0371391606 -0.0290246439 0.0129999995
v -0.0371391606 -0.0290246439 0.0189999998
v -0.0370462728 -0.0289762902 0.0129999995
v -0.0370462728 -0.0289762902 0.0189999998
v -0.0368580389 -0.0397601771 0.0129999995
v -0.0368580389 -0.0397601771 0.0189999998
v -0.0369525576 -0.0397150946 0.0129999995
v -0.0369525576 -0.0397150946 0.0189999998
v -0.0367627501 -0.0288410568 0.0129999995
v -0.0367627501 -0.0288410568 0.0189999998
v -0.0366667175 -0.0398453593 0.0129999995
v -0.0366667175 -0.0398453593 0.0189999998
v -0.0365699697 -0.0287592268 0.0129999995
v -0.0365699697 -0.0287592268 0.0189999998
v -0.0364725375 -0.0399238133 0.0129999995
v -0.0364725375 -0.0399238133 0.0189999998
v -0.0362757397 -0.0286492181 0.0129999995
v -0.0362757397 -0.0286492181 0.0189999998
v -0.0361764336 -0.0400286674 0.0129999995
v -0.0361764336 -0.0400286674 0.0189999998
v -0.03607656 -0.0285845017 0.0129999995
v -0.03607656 -0.0285845017 0.0189999998
v -0.0359761548 -0.0400899029 0.0129999995
v -0.0359761548 -0.0400899029 0.0189999998
v -0.0357738614 -0.0285005569 0.0129999995
v -0.0357738614 -0.0285005569 0.0189999998
v -0.0356720376 -0.0401685524 0.0129999995
v -0.0356720376 -0.0401685524 0.0189999998
v -0.0355698013 -0.0284534454 0.0129999995
v -0.0355698013 -0.0284534454 0.0189999998
v -0.0354671836 -0.0402120924 0.0129999995
v -0.0354671836 -0.0402120924 0.0189999998
v -0.0352609372 -0.0283962011 0.0129999995
v -0.0352609372 -0.0283962011 0.0189999998
v -0.0351573682 -0.0402639389 0.0129999995
v -0.0351573682 -0.0402639389 0.0189999998
v -0.0350535464 -0.0283670545 0.0129999995
v -0.0350535464 -0.0283670545 0.0189999998
v -0.0349495006 -0.040289464 0.0129999995
v -0.0349495006 -0.040289464 0.0189999998
v -0.034845264 -0.0283451629 0.0129999995
v -0.034845264 -0.0283451629 0.0189999998
v -0.0346051741 -0.0487473106 -0.0230999994
v -0.0346051741 -0.0487473106 0.00400000006
v -0.0346051741 -0.0487473106 0.00600000024
v -0.0346051741 -0.0487473106 0.0129999995
v -0.03474087 -0.0403077126 0.0129999995
v -0.03474087 -0.0403077126 0.0189999998
v -0.0345317268 -0.0283259845 0.0129999995
v -0.0345317268 -0.0283259845 0.0189999998
v -0.0344270444 -0.0403214169 0.0129999995
v -0.0344270444 -0.0403214169 0.0189999998
v -0.034322331 -0.0283223295 0.0129999995
v -0.034322331 -0.0283223295 0.0189999998
v -0.0342176151 -0.0403214169 0.0129999995
v -0.0342176151 -0.0403214169 0.0189999998
v -0.0340083146 -0.0283305526 0.0129999995
v -0.0340083146 -0.0283305526 0.0189999998
v -0.0339037919 -0.0403077126 0.0129999995
v -0.0339037919 -0.0403077126 0.0189999998
v -0.0337993956 -0.0283451629 0.0129999995
v -0.0337993956 -0.0283451629 0.0189999998
v -0.033695159 -0.040289464 0.0129999995
v -0.033695159 -0.040289464 0.0189999998
v -0.0335911155 -0.0283670545 0.0129999995
v -0.0335911155 -0.0283670545 0.0189999998
v -0.0334872913 -0.0402639389 0.0129999995
v -0.0334872913 -0.0402639389 0.0189999998
v -0.0333837247 -0.0402484608 0.0129999995
v -0.0333837247 -0.0402484608 0.0189999998
v -0.0332804418 -0.0284134841 0.0129999995
v -0.0332804418 -0.0284134841 0.0189999998
v -0.0331774759 -0.0402120924 0.0129999995
v -0.0331774759 -0.0402120924 0.0189999998
v -0.0330748606 -0.0284534454 0.0129999995
v -0.0330748606 -0.0284534454 0.0189999998
v -0.0329726243 -0.0401685524 0.0129999995
v -0.0329726243 -0.0401685524 0.0189999998
v -0.0327694154 -0.0285267758 0.0129999995
v -0.0327694154 -0.0285267758 0.0189999998
v -0.0329726243 -0.0284761095 0.0129999995
v -0.0329726243 -0.0284761095 0.0189999998
v -0.0326685071 -0.0400899029 0.0129999995
v -0.0326685071 -0.0400899029 0.0189999998
v -0.0325680995 -0.0285845017 0.0129999995
v -0.0325680995 -0.0285845017 0.0189999998
v -0.0324682283 -0.0400286674 0.0129999995
v -0.0324682283 -0.0400286674 0.0189999998
v -0.0323689222 -0.0399954414 0.0129999995
v -0.0323689222 -0.0399954414 0.0189999998
v -0.0322702098 -0.028684175 0.0129999995
v -0.0322702098 -0.028684175 0.0189999998
v -0.032172122 -0.0399238133 0.0129999995
v -0.032172122 -0.0399238133 0.0189999998
v -0.0320746899 -0.0287592268 0.0129999995
v -0.0320746899 -0.0287592268 0.0189999998
v -0.032172122 -0.0287208486 0.0129999995
v -0.032172122 -0.0287208486 0.0189999998
v -0.0319779444 -0.0398453593 0.0129999995
v -0.0319779444 -0.0398453593 0.0189999998
v -0.0317866206 -0.0288844848 0.0129999995
v -0.0317866206 -0.0288844848 0.0189999998
v -0.0316921043 -0.0397150946 0.0129999995
v -0.0316921043 -0.0397150946 0.0189999998
v -0.0315055013 -0.0290246439 0.0129999995
v -0.0315055013 -0.0290246439 0.0189999998
v -0.0315983868 -0.0289762902 0.0129999995
v -0.0315983868 -0.0289762902 0.0189999998
v -0.0314134717 -0.0395700479 0.0129999995
v -0.0314134717 -0.0395700479 0.0189999998
v -0.0313223314 -0.0291261792 0.0129999995
v -0.0313223314 -0.0291261792 0.0189999998
v -0.0312321019 -0.0394653344 0.0129999995
v -0.0312321019 -0.0394653344 0.0189999998
v -0.0310544968 -0.0292903066 0.0129999995
v -0.0310544968 -0.0292903066 0.0189999998
v -0.0311428142 -0.0292340422 0.0129999995
v -0.0311428142 -0.0292340422 0.0189999998
v -0.0309671736 -0.0392965555 0.0129999995
v -0.0309671736 -0.0392965555 0.0189999998
v -0.0308808708 -0.0392372417 0.0129999995
v -0.0308808708 -0.0392372417 0.0189999998
v -0.0307956195 -0.0294682288 0.0129999995
v -0.0307956195 -0.0294682288 0.0189999998
v -0.030711441 -0.0391141438 0.0129999995
v -0.030711441 -0.0391141438 0.0189999998
v -0.0305464077 -0.0389852071 0.0129999995
v -0.0305464077 -0.0389852071 0.0189999998
v -0.0305464077 -0.0296594548 0.0129999995
v -0.0305464077 -0.0296594548 0.0189999998
v -0.0304656053 -0.0389185977 0.0129999995
v -0.0304656053 -0.0389185977 0.0189999998
v -0.0303075457 -0.0298634624 0.0129999995
v -0.0303075457 -0.0298634624 0.0189999998
v -0.0304656053 -0.0297260642 0.0129999995
v -0.0304656053 -0.0297260642 0.0189999998
v -0.030230341 -0.0387104535 0.0129999995
v -0.030230341 -0.0387104535 0.0189999998
v -0.0300062919 -0.0384902811 0.0129999995
v -0.0300062919 -0.0384902811 0.0189999998
v -0.030079689 -0.030079689 0.0129999995
v -0.030079689 -0.030079689 0.0189999998
v -0.030230341 -0.0299342084 0.0129999995
v -0.030230341 -0.0299342084 0.0189999998
v -0.0299342084 -0.0384143209 0.0129999995
v -0.0299342084 -0.0384143209 0.0189999998
v -0.0297940731 -0.0303859758 0.0129999995
v -0.0297940731 -0.0303859758 0.0189999998
v -0.0299342084 -0.030230341 0.0129999995
v -0.0299342084 -0.030230341 0.0189999998
v -0.0297260642 -0.0381790566 0.0129999995
v -0.0297260642 -0.0381790566 0.0189999998
v -0.0295305181 -0.0379332209 0.0129999995
v -0.0295305181 -0.0379332209 0.0189999998
v -0.0295305181 -0.030711441 0.0129999995
v -0.0295305181 -0.030711441 0.0189999998
v -0.0297260642 -0.0304656053 0.0129999995
v -0.0297260642 -0.0304656053 0.0189999998
v -0.0294682288 -0.0378490424 0.0129999995
v -0.0294682288 -0.0378490424 0.0189999998
v -0.029348104 -0.0376774883 0.0129999995
v -0.029348104 -0.0376774883 0.0189999998
v -0.0292903066 -0.0310544968 0.0129999995
v -0.0292903066 -0.0310544968 0.0189999998
v -0.029348104 -0.0309671736 0.0129999995
v -0.029348104 -0.0309671736 0.0189999998
v -0.0292340422 -0.0375018454 0.0129999995
v -0.0292340422 -0.0375018454 0.0189999998
v -0.0291793275 -0.03741256 0.0129999995
v -0.0291793275 -0.03741256 0.0189999998
v -0.0290746117 -0.0372311878 0.0129999995
v -0.0290746117 -0.0372311878 0.0189999998
v -0.0290246439 -0.0315055013 0.0129999995
v -0.0290246439 -0.0315055013 0.0189999998
v -0.0290746117 -0.0314134717 0.0129999995
v -0.0290746117 -0.0314134717 0.0189999998
v -0.0291793275 -0.0312321019 0.0129999995
v -0.0291793275 -0.0312321019 0.0189999998
v -0.0289762902 -0.0370462728 0.0129999995
v -0.0289762902 -0.0370462728 0.0189999998
v -0.0289295673 -0.0369525576 0.0129999995
v -0.0289295673 -0.0369525576 0.0189999998
v -0.0287993002 -0.0366667175 0.0129999995
v -0.0287993002 -0.0366667175 0.0189999998
v -0.0287592268 -0.0320746899 0.0129999995
v -0.0287592268 -0.0320746899 0.0189999998
v -0.0287993002 -0.0319779444 0.0129999995
v -0.0287993002 -0.0319779444 0.0189999998
v -0.0289295673 -0.0316921043 0.0129999995
v -0.0289295673 -0.0316921043 0.0189999998
v -0.0287208486 -0.0364725375 0.0129999995
v -0.0287208486 -0.0364725375 0.0189999998
v -0.0286159921 -0.0361764336 0.0129999995
v -0.0286159921 -0.0361764336 0.0189999998
v -0.0285547614 -0.0359761548 0.0129999995
v -0.0285547614 -0.0359761548 0.0189999998
v -0.0285005569 -0.0328707981 0.0129999995
v -0.0285005569 -0.0328707981 0.0189999998
v -0.0285547614 -0.0326685071 0.0129999995
v -0.0285547614 -0.0326685071 0.0189999998
v -0.0286159921 -0.0324682283 0.0129999995
v -0.0286159921 -0.0324682283 0.0189999998
v -0.0287208486 -0.032172122 0.0129999995
v -0.0287208486 -0.032172122 0.0189999998
v -0.0284761095 -0.0356720376 0.0129999995
v -0.0284761095 -0.0356720376 0.0189999998
v -0.0284325671 -0.0354671836 0.0129999995
v -0.0284325671 -0.0354671836 0.0189999998
v -0.028380723 -0.0351573682 0.0129999995
v -0.028380723 -0.0351573682 0.0189999998
v -0.0283551979 -0.0349495006 0.0129999995
v -0.0283551979 -0.0349495006 0.0189999998
v -0.028336947 -0.03474087 0.0129999995
v -0.028336947 -0.03474087 0.0189999998
v -0.028323245 -0.0344270444 0.0129999995
v -0.028323245 -0.0344270444 0.0189999998
v -0.028323245 -0.0342176151 0.0129999995
v -0.028323245 -0.0342176151 0.0189999998
v -0.028336947 -0.0339037919 0.0129999995
v -0.028336947 -0.0339037919 0.0189999998
v -0.0283551979 -0.033695159 0.0129999995
v -0.0283551979 -0.033695159 0.0189999998
v -0.028380723 -0.0334872913 0.0129999995
v -0.028380723 -0.0334872913 0.0189999998
v -0.0284325671 -0.0331774759 0.0129999995
v -0.0284325671 -0.0331774759 0.0189999998
v -0.0284761095 -0.0329726243 0.0129999995
v -0.0284761095 -0.0329726243 0.0189999998
v -0.0201094842 -0.00596734881 -0.0230999994
v -0.0201094842 -0.00596734881 0.00400000006
v -0.0201094842 -0.00596734881 0.00600000024
v -0.0201094842 -0.00596734881 0.0129999995
v -0.0152542341 -0.00635805666 0.00400000006
v -0.0152542341 -0.00635805666 0.00600000024
v -0.0152716458 -0.00624155462 0.00400000006
v -0.0152716458 -0.00624155462 0.00600000024
v -0.0152884161 -0.00596734881 0.00400000006
v -0.0152884161 -0.00596734881 0.00600000024
v -0.0152760911 -0.00573215961 0.00400000006
v -0.0152760911 -0.00573215961 0.00600000024
v -0.0150063109 -0.00705817044 0.00400000006
v -0.0150063109 -0.00705817044 0.00600000024
v -0.0150431812 -0.00698882699 0.00400000006
v -0.0150431812 -0.00698882699 0.00600000024
v -0.015152725 -0.00673689365 0.00400000006
v -0.015152725 -0.00673689365 0.00600000024
v -0.0152307487 -0.00647348821 0.00400000006
v -0.0152307487 -0.00647348821 0.00600000024
v -0.0152470779 -0.00553802848 0.00400000006
v -0.0152470779 -0.00553802848 0.00600000024
v -0.0152392483 -0.00549954712 0.00400000006
v -0.0152392483 -0.00549954712 0.00600000024
v -0.0151658332 -0.00523482025 0.00400000006
v -0.0151658332 -0.00523482025 0.00600000024
v -0.0150607026 -0.00498101354 0.00400000006
v -0.0150607026 -0.00498101354 0.00600000024
v -0.0147620165 -0.00741362095 0.00400000006
v -0.0147620165 -0.00741362095 0.00600000024
v -0.0149037504 -0.00722553253 0.00400000006
v -0.0149037504 -0.00722553253 0.00600000024
v -0.014986974 -0.0048423484 0.00400000006
v -0.014986974 -0.0048423484 0.00600000024
v -0.0149254251 -0.0047419107 0.00400000006
v -0.0149254251 -0.0047419107 0.00600000024
v -0.0148061836 -0.000664047673 0.00400000006
v -0.0148061836 -0.000664047673 0.00600000024
v -0.0146294069 -0.00755833864 0.00400000006
v -0.0146294069 -0.00755833864 0.00600000024
v -0.0147104919 -0.0074728924 0.00400000006
v -0.0147104919 -0.0074728924 0.00600000024
v -0.0147365129 -0.00449121565 0.00400000006
v -0.0147365129 -0.00449121565 0.00600000024
v -0.014263854 -0.00785435736 0.00400000006
v -0.014263854 -0.00785435736 0.00600000024
v -0.0144236553 -0.00774037302 0.00400000006
v -0.0144236553 -0.00774037302 0.00600000024
v -0.014484688 -0.00424374849 0.00400000006
v -0.014484688 -0.00424374849 0.00600000024
v -0.0140247512 -0.00798963487 0.00400000006
v -0.0140247512 -0.00798963487 0.00600000024
v -0.0142307341 -0.00405924022 0.00400000006
v -0.0142307341 -0.00405924022 0.00600000024
v -0.0141292381 -0.00399945408 0.00400000006
v -0.0141292381 -0.00399945408 0.00600000024
v -0.0137709451 -0.00809476554 0.00400000006
v -0.0137709451 -0.00809476554 0.00600000024
v -0.0139893079 -0.0039281559 0.00400000006
v -0.0139893079 -0.0039281559 0.00600000024
v -0.0135062182 -0.00816818058 0.00400000006
v -0.0135062182 -0.00816818058 0.00600000024
v -0.0137337041 -0.00382747144 0.00400000006
v -0.0137337041 -0.00382747144 0.00600000024
v -0.0132736051 -0.00820502281 0.00400000006
v -0.0132736051 -0.00820502281 0.00600000024
v -0.0134677362 -0.00375868738 0.00400000006
v -0.0134677362 -0.00375868738 0.00600000024
v -0.0133903944 -0.00374504983 0.00400000006
v -0.0133903944 -0.00374504983 0.00600000024
v -0.0130384159 -0.00821734846 0.00400000006
v -0.0130384159 -0.00821734846 0.00600000024
v -0.0132345164 -0.00372591048 0.00400000006
v -0.0132345164 -0.00372591048 0.00600000024
v -0.0127642107 -0.0082005775 0.00400000006
v -0.0127642107 -0.0082005775 0.00600000024
v -0.0129991484 -0.0037176913 0.00400000006
v -0.0129991484 -0.0037176913 0.00600000024
v -0.0125322759 -0.00815968096 0.00400000006
v -0.0125322759 -0.00815968096 0.00600000024
v -0.0126477075 -0.00375153124 0.00400000006
v -0.0126477075 -0.00375153124 0.00600000024
v -0.0127252769 -0.00373924553 0.00400000006
v -0.0127252769 -0.00373924553 0.00600000024
v -0.0122688711 -0.00808165669 0.00400000006
v -0.0122688711 -0.00808165669 0.00600000024
v -0.012494092 -0.00378418326 0.00400000006
v -0.012494092 -0.00378418326 0.00600000024
v -0.0120875251 -0.00800654113 0.00400000006
v -0.0120875251 -0.00800654113 0.00600000024
v -0.0120169377 -0.00797211349 0.00400000006
v -0.0120169377 -0.00797211349 0.00600000024
v -0.012232089 -0.00386679262 0.00400000006
v -0.012232089 -0.00386679262 0.00600000024
v -0.0117802322 -0.00783268332 0.00400000006
v -0.0117802322 -0.00783268332 0.00600000024
v -0.0119134164 -0.00401879132 0.00400000006
v -0.0119134164 -0.00401879132 0.00600000024
v -0.0119821048 -0.00398071647 0.00400000006
v -0.0119821048 -0.00398071647 0.00600000024
v -0.0116843331 -0.00776427865 0.00400000006
v -0.0116843331 -0.00776427865 0.00600000024
v -0.0115039206 -0.00761289418 0.00400000006
v -0.0115039206 -0.00761289418 0.00600000024
v -0.011562283 -0.00426925212 0.00400000006
v -0.011562283 -0.00426925212 0.00600000024
v -0.0117478693 -0.00412425637 0.00400000006
v -0.0117478693 -0.00412425637 0.00600000024
v -0.0113928699 -0.00750184476 0.00400000006
v -0.0113928699 -0.00750184476 0.00600000024
v -0.0112653923 -0.00735258698 0.00400000006
v -0.0112653923 -0.00735258698 0.00600000024
v -0.0113148165 -0.00452107638 0.00400000006
v -0.0113148165 -0.00452107638 0.00600000024
v -0.0114754355 -0.00434883386 0.00400000006
v -0.0114754355 -0.00434883386 0.00600000024
v -0.0111953247 -0.00725789547 0.00400000006
v -0.0111953247 -0.00725789547 0.00600000024
v -0.0110517848 -0.00702365935 0.00400000006
v -0.0110517848 -0.00702365935 0.00600000024
v -0.0110161293 -0.0069536835 0.00400000006
v -0.0110161293 -0.0069536835 0.00600000024
v -0.0111303079 -0.00477503031 0.00400000006
v -0.0111303079 -0.00477503031 0.00600000024
v -0.0112414861 -0.0046132648 0.00400000006
v -0.0112414861 -0.0046132648 0.00600000024
v -0.01093786 -0.00677367628 0.00400000006
v -0.01093786 -0.00677367628 0.00600000024
v -0.0108552516 -0.00651167274 0.00400000006
v -0.0108552516 -0.00651167274 0.00600000024
v -0.0108103132 -0.00628048778 0.00400000006
v -0.0108103132 -0.00628048778 0.00600000024
v -0.010788759 -0.00600661635 0.00400000006
v -0.010788759 -0.00600661635 0.00600000024
v -0.0107969785 -0.00577124834 0.00400000006
v -0.0107969785 -0.00577124834 0.00600000024
v -0.0108297551 -0.00553802848 0.00400000006
v -0.0108297551 -0.00553802848 0.00600000024
v -0.0108985388 -0.00527206004 0.00400000006
v -0.0108985388 -0.00527206004 0.00600000024
v -0.0109992242 -0.00501645744 0.00400000006
v -0.0109992242 -0.00501645744 0.00600000024
v -0.00800654113 -0.0139893079 0.00400000006
v -0.00800654113 -0.0139893079 0.00600000024
v -0.00810722589 -0.0137337041 0.00400000006
v -0.00810722589 -0.0137337041 0.00600000024
v -0.00817600965 -0.0134677362 0.00400000006
v -0.00817600965 -0.0134677362 0.00600000024
v -0.00820878685 -0.0132345164 0.00400000006
v -0.00820878685 -0.0132345164 0.00600000024
v -0.00821700573 -0.0129991484 0.00400000006
v -0.00821700573 -0.0129991484 0.00600000024
v -0.0081954515 -0.0127252769 0.00400000006
v -0.0081954515 -0.0127252769 0.00600000024
v -0.00815051377 -0.012494092 0.00400000006
v -0.00815051377 -0.012494092 0.00600000024
v -0.00806790471 -0.012232089 0.00400000006
v -0.00806790471 -0.012232089 0.00600000024
v -0.00776427865 -0.0143924999 0.00400000006
v -0.00776427865 -0.0143924999 0.00600000024
v -0.00787545681 -0.0142307341 0.00400000006
v -0.00787545681 -0.0142307341 0.00600000024
v -0.00798963487 -0.0120520818 0.00400000006
v -0.00798963487 -0.0120520818 0.00600000024
v -0.00795398057 -0.0119821048 0.00400000006
v -0.00795398057 -0.0119821048 0.00600000024
v -0.00781044066 -0.0117478693 0.00400000006
v -0.00781044066 -0.0117478693 0.00600000024
v -0.00755833864 -0.0146294069 0.00400000006
v -0.00755833864 -0.0146294069 0.00600000024
v -0.00769094825 -0.014484688 0.00400000006
v -0.00769094825 -0.014484688 0.00600000024
v -0.00774037302 -0.0116531777 0.00400000006
v -0.00774037302 -0.0116531777 0.00600000024
v -0.00758586287 -0.0114754355 0.00400000006
v -0.00758586287 -0.0114754355 0.00600000024
v -0.00725789547 -0.0148815084 0.00400000006
v -0.00725789547 -0.0148815084 0.00600000024
v -0.00744348109 -0.0147365129 0.00400000006
v -0.00744348109 -0.0147365129 0.00600000024
v -0.0074728924 -0.0113663399 0.00400000006
v -0.0074728924 -0.0113663399 0.00600000024
v -0.00732143223 -0.0112414861 0.00400000006
v -0.00732143223 -0.0112414861 0.00600000024
v -0.00702365935 -0.0150250483 0.00400000006
v -0.00702365935 -0.0150250483 0.00600000024
v -0.00709234834 -0.014986974 0.00400000006
v -0.00709234834 -0.014986974 0.00600000024
v -0.00722553253 -0.0111730814 0.00400000006
v -0.00722553253 -0.0111730814 0.00600000024
v -0.00677367628 -0.0151389718 0.00400000006
v -0.00677367628 -0.0151389718 0.00600000024
v -0.00698882699 -0.0110336518 0.00400000006
v -0.00698882699 -0.0110336518 0.00600000024
v -0.00691823959 -0.0109992242 0.00400000006
v -0.00691823959 -0.0109992242 0.00600000024
v -0.00651167274 -0.0152215815 0.00400000006
v -0.00651167274 -0.0152215815 0.00600000024
v -0.00673689365 -0.010924108 0.00400000006
v -0.00673689365 -0.010924108 0.00600000024
v -0.00628048778 -0.0152665198 0.00400000006
v -0.00628048778 -0.0152665198 0.00600000024
v -0.00639666855 -0.0152470779 0.00400000006
v -0.00639666855 -0.0152470779 0.00600000024
v -0.00647348821 -0.0108460832 0.00400000006
v -0.00647348821 -0.0108460832 0.00600000024
v -0.00600661635 -0.015288074 0.00400000006
v -0.00600661635 -0.015288074 0.00600000024
v -0.00624155462 -0.0108051872 0.00400000006
v -0.00624155462 -0.0108051872 0.00600000024
v -0.00596734881 -0.0201094842 -0.0230999994
v -0.00596734881 -0.0201094842 0.00400000006
v -0.00596734881 -0.0201094842 0.00600000024
v -0.00596734881 -0.0201094842 0.0129999995
v -0.00577124834 -0.0152798545 0.00400000006
v -0.00577124834 -0.0152798545 0.00600000024
v -0.00596734881 -0.0107884169 0.00400000006
v -0.00596734881 -0.0107884169 0.00600000024
v -0.00557664037 -0.0152542341 0.00400000006
v -0.00557664037 -0.0152542341 0.00600000024
v -0.00553802848 -0.0152470779 0.00400000006
v -0.00553802848 -0.0152470779 0.00600000024
v -0.00573215961 -0.0108007419 0.00400000006
v -0.00573215961 -0.0108007419 0.00600000024
v -0.00527206004 -0.015178293 0.00400000006
v -0.00527206004 -0.015178293 0.00600000024
v -0.00549954712 -0.0108375847 0.00400000006
v -0.00549954712 -0.0108375847 0.00600000024
v -0.00501645744 -0.0150776088 0.00400000006
v -0.00501645744 -0.0150776088 0.00600000024
v -0.00523482025 -0.0109109998 0.00400000006
v -0.00523482025 -0.0109109998 0.00600000024
v -0.00487652689 -0.0150063109 0.00400000006
v -0.00487652689 -0.0150063109 0.00600000024
v -0.00477503031 -0.0149465251 0.00400000006
v -0.00477503031 -0.0149465251 0.00600000024
v -0.00498101354 -0.0110161293 0.00400000006
v -0.00498101354 -0.0110161293 0.00600000024
v -0.00452107638 -0.0147620165 0.00400000006
v -0.00452107638 -0.0147620165 0.00600000024
v -0.00458211035 -0.0112653923 0.00400000006
v -0.00458211035 -0.0112653923 0.00600000024
v -0.0047419107 -0.011151408 0.00400000006
v -0.0047419107 -0.011151408 0.00600000024
v -0.00426925212 -0.0145145488 0.00400000006
v -0.00426925212 -0.0145145488 0.00600000024
v -0.00432180285 -0.0115039206 0.00400000006
v -0.00432180285 -0.0115039206 0.00600000024
v -0.00449121565 -0.0113403201 0.00400000006
v -0.00449121565 -0.0113403201 0.00600000024
v -0.00408033967 -0.014263854 0.00400000006
v -0.00408033967 -0.014263854 0.00600000024
v -0.00401879132 -0.0141634166 0.00400000006
v -0.00401879132 -0.0141634166 0.00600000024
v -0.00410201401 -0.0117802322 0.00400000006
v -0.00410201401 -0.0117802322 0.00600000024
v -0.00424374849 -0.0115921438 0.00400000006
v -0.00424374849 -0.0115921438 0.00600000024
v -0.00394506186 -0.0140247512 0.00400000006
v -0.00394506186 -0.0140247512 0.00600000024
v -0.00383993179 -0.0137709451 0.00400000006
v -0.00383993179 -0.0137709451 0.00600000024
v -0.00376651645 -0.0135062182 0.00400000006
v -0.00376651645 -0.0135062182 0.00600000024
v -0.00375153124 -0.0134291244 0.00400000006
v -0.00375153124 -0.0134291244 0.00600000024
v -0.00377501577 -0.0125322759 0.00400000006
v -0.00377501577 -0.0125322759 0.00600000024
v -0.00385304004 -0.0122688711 0.00400000006
v -0.00385304004 -0.0122688711 0.00600000024
v -0.00396258384 -0.0120169377 0.00400000006
v -0.00396258384 -0.0120169377 0.00600000024
v -0.00399945408 -0.0119475949 0.00400000006
v -0.00399945408 -0.0119475949 0.00600000024
v -0.00372967422 -0.0132736051 0.00400000006
v -0.00372967422 -0.0132736051 0.00600000024
v -0.00371734858 -0.0130384159 0.00400000006
v -0.00371734858 -0.0130384159 0.00600000024
v -0.00373411983 -0.0127642107 0.00400000006
v -0.00373411983 -0.0127642107 0.00600000024
v -0.00374504983 -0.0126864386 0.00400000006
v -0.00374504983 -0.0126864386 0.00600000024
v -0.000664047673 -0.0148061836 0.00400000006
v -0.000664047673 -0.0148061836 0.00600000024
f 1 2 76
f 2 1 286
f 1 5 3
f 1 3 25
f 7 5 1
f 9 7 1
f 1 11 9
f 1 13 11
f 1 15 13
f 1 17 15
f 19 17 1
f 27 19 1
f 1 23 21
f 21 33 1
f 1 25 23
f 1 29 27
f 1 35 29
f 33 31 1
f 31 285 1
f 37 35 1
f 43 37 1
f 1 47 43
f 1 49 47
f 76 49 1
f 286 1 285
f 4 6 2
f 26 4 2
f 2 6 8
f 2 8 10
f 2 10 12
f 2 12 14
f 2 14 16
f 16 18 2
f 2 18 20
f 2 20 28
f 22 24 2
f 2 34 22
f 2 24 26
f 2 28 30
f 30 36 2
f 2 32 34
f 32 2 286
f 2 36 38
f 2 38 44
f 44 48 2
f 2 48 50
f 2 50 77
f 76 2 77
f 3 6 4
f 3 4 25
f 5 6 3
f 25 4 26
f 5 8 6
f 7 8 5
f 7 10 8
f 9 10 7
f 9 12 10
f 11 12 9
f 11 14 12
f 13 14 11
f 13 16 14
f 15 16 13
f 15 18 16
f 17 18 15
f 17 20 18
f 19 20 17
f 19 28 20
f 27 28 19
f 21 24 22
f 21 22 33
f 23 24 21
f 33 22 34
f 23 26 24
f 25 26 23
f 27 30 28
f 29 30 27
f 29 36 30
f 35 36 29
f 31 34 32
f 31 32 41
f 33 34 31
f 31 41 173
f 31 173 285
f 41 32 42
f 174 42 32
f 32 286 174
f 35 38 36
f 37 38 35
f 37 44 38
f 43 44 37
f 39 42 40
f 39 40 45
f 41 42 39
f 175 41 39
f 161 39 45
f 175 39 161
f 176 40 42
f 45 40 46
f 46 40 162
f 162 40 176
f 173 41 175
f 176 42 174
f 43 48 44
f 47 48 43
f 45 46 53
f 45 53 161
f 53 46 54
f 162 54 46
f 47 50 48
f 49 50 47
f 49 56 50
f 55 56 49
f 76 55 49
f 77 50 56
f 51 54 52
f 51 52 57
f 53 54 51
f 161 53 51
f 161 51 57
f 162 52 54
f 57 52 58
f 162 58 52
f 55 60 56
f 59 60 55
f 76 59 55
f 77 56 60
f 57 58 63
f 161 57 63
f 63 58 64
f 64 58 162
f 59 62 60
f 61 62 59
f 76 61 59
f 77 60 62
f 61 66 62
f 65 66 61
f 65 61 76
f 62 66 77
f 63 64 67
f 161 63 67
f 67 64 68
f 68 64 162
f 65 70 66
f 69 70 65
f 69 65 76
f 66 70 77
f 67 68 71
f 161 67 71
f 71 68 72
f 72 68 162
f 69 74 70
f 73 74 69
f 73 69 76
f 70 74 77
f 71 72 79
f 71 79 161
f 79 72 80
f 162 80 72
f 73 82 74
f 76 81 73
f 81 82 73
f 77 74 82
f 76 75 448
f 76 633 75
f 448 75 447
f 633 447 75
f 77 634 76
f 76 87 81
f 85 87 76
f 76 93 85
f 99 93 76
f 76 97 99
f 76 105 97
f 111 105 76
f 121 111 76
f 448 121 76
f 76 634 633
f 77 450 78
f 78 635 77
f 77 82 88
f 88 86 77
f 77 86 94
f 94 100 77
f 77 100 98
f 77 98 106
f 106 112 77
f 112 122 77
f 449 77 122
f 449 450 77
f 77 635 634
f 249 78 247
f 247 78 273
f 251 78 249
f 253 78 251
f 255 78 253
f 257 78 255
f 259 78 257
f 261 78 259
f 275 78 261
f 269 78 267
f 267 78 299
f 271 78 269
f 273 78 271
f 277 78 275
f 279 78 277
f 281 78 279
f 283 78 281
f 301 78 283
f 297 78 295
f 295 78 323
f 299 78 297
f 303 78 301
f 305 78 303
f 325 78 305
f 321 78 319
f 319 78 343
f 323 78 321
f 327 78 325
f 345 78 327
f 343 78 341
f 341 78 351
f 347 78 345
f 353 78 347
f 351 78 349
f 349 78 359
f 355 78 353
f 361 78 355
f 359 78 357
f 357 78 367
f 363 78 361
f 369 78 363
f 367 78 365
f 365 78 450
f 375 78 369
f 377 78 375
f 383 78 377
f 387 78 383
f 389 78 387
f 389 636 78
f 78 636 635
f 79 80 83
f 79 83 161
f 83 80 84
f 162 84 80
f 81 88 82
f 87 88 81
f 83 84 89
f 161 83 89
f 89 84 90
f 162 90 84
f 85 86 87
f 85 94 86
f 93 94 85
f 87 86 88
f 89 90 91
f 161 89 91
f 91 90 92
f 162 92 90
f 91 92 95
f 163 91 95
f 161 91 163
f 95 92 96
f 164 96 92
f 164 92 162
f 93 100 94
f 99 100 93
f 95 96 101
f 163 95 101
f 101 96 102
f 102 96 164
f 97 98 99
f 97 106 98
f 105 106 97
f 99 98 100
f 101 102 103
f 101 103 163
f 103 102 104
f 164 104 102
f 103 104 107
f 163 103 107
f 107 104 108
f 164 108 104
f 105 112 106
f 111 112 105
f 107 108 109
f 109 185 107
f 147 145 107
f 145 165 107
f 107 149 147
f 107 151 149
f 107 153 151
f 107 155 153
f 107 157 155
f 159 157 107
f 167 159 107
f 107 165 163
f 107 169 167
f 107 171 169
f 107 177 171
f 107 179 177
f 107 185 179
f 109 108 110
f 186 110 108
f 148 108 146
f 146 108 166
f 150 108 148
f 152 108 150
f 154 108 152
f 156 108 154
f 158 108 156
f 160 108 158
f 168 108 160
f 166 108 164
f 170 108 168
f 172 108 170
f 178 108 172
f 180 108 178
f 186 108 180
f 109 110 113
f 187 109 113
f 185 109 187
f 113 110 114
f 188 114 110
f 188 110 186
f 111 122 112
f 121 122 111
f 113 114 115
f 191 113 115
f 187 113 191
f 115 114 116
f 192 116 114
f 192 114 188
f 115 116 117
f 197 115 117
f 191 115 197
f 117 116 118
f 198 118 116
f 198 116 192
f 117 118 123
f 199 117 123
f 197 117 199
f 123 118 124
f 200 124 118
f 200 118 198
f 119 120 121
f 119 140 120
f 237 119 121
f 139 140 119
f 239 139 119
f 239 119 237
f 121 120 122
f 238 122 120
f 240 120 140
f 238 120 240
f 237 121 245
f 245 121 448
f 246 122 238
f 122 246 449
f 123 124 125
f 203 123 125
f 199 123 203
f 125 124 126
f 204 126 124
f 204 124 200
f 125 126 127
f 207 125 127
f 203 125 207
f 127 126 128
f 208 128 126
f 208 126 204
f 127 128 129
f 211 127 129
f 207 127 211
f 129 128 130
f 212 130 128
f 212 128 208
f 129 130 141
f 213 129 141
f 211 129 213
f 141 130 142
f 214 142 130
f 214 130 212
f 131 132 133
f 131 144 132
f 223 131 133
f 143 144 131
f 217 143 131
f 217 131 223
f 133 132 134
f 224 134 132
f 218 132 144
f 224 132 218
f 133 134 135
f 227 133 135
f 223 133 227
f 135 134 136
f 228 136 134
f 228 134 224
f 135 136 137
f 231 135 137
f 227 135 231
f 137 136 138
f 232 138 136
f 232 136 228
f 137 138 139
f 231 137 139
f 139 138 140
f 232 140 138
f 231 139 239
f 240 140 232
f 141 142 143
f 219 141 143
f 213 141 219
f 143 142 144
f 220 144 142
f 220 142 214
f 219 143 217
f 218 144 220
f 145 148 146
f 145 146 165
f 147 148 145
f 165 146 166
f 147 150 148
f 149 150 147
f 149 152 150
f 151 152 149
f 151 154 152
f 153 154 151
f 153 156 154
f 155 156 153
f 155 158 156
f 157 158 155
f 157 160 158
f 159 160 157
f 159 168 160
f 167 168 159
f 161 164 162
f 161 162 175
f 163 164 161
f 175 162 176
f 163 166 164
f 165 166 163
f 167 170 168
f 169 170 167
f 169 172 170
f 171 172 169
f 171 178 172
f 177 178 171
f 173 176 174
f 173 174 183
f 175 176 173
f 183 285 173
f 183 174 184
f 174 286 184
f 177 180 178
f 179 180 177
f 179 186 180
f 185 186 179
f 181 184 182
f 181 182 189
f 183 184 181
f 181 285 183
f 189 285 181
f 184 286 182
f 189 182 190
f 182 286 190
f 185 188 186
f 187 188 185
f 187 192 188
f 191 192 187
f 189 190 195
f 195 285 189
f 195 190 196
f 190 286 196
f 191 198 192
f 197 198 191
f 193 196 194
f 193 194 201
f 195 196 193
f 193 285 195
f 201 285 193
f 196 286 194
f 201 194 202
f 194 286 202
f 197 200 198
f 199 200 197
f 199 204 200
f 203 204 199
f 201 202 205
f 205 285 201
f 205 202 206
f 202 286 206
f 203 208 204
f 207 208 203
f 205 206 209
f 209 285 205
f 209 206 210
f 206 286 210
f 207 212 208
f 211 212 207
f 209 210 215
f 215 285 209
f 215 210 216
f 210 286 216
f 211 214 212
f 213 214 211
f 213 220 214
f 219 220 213
f 215 216 221
f 221 285 215
f 221 216 222
f 216 286 222
f 217 218 219
f 217 224 218
f 223 224 217
f 219 218 220
f 221 222 225
f 225 285 221
f 225 222 226
f 222 286 226
f 223 228 224
f 227 228 223
f 225 226 229
f 229 285 225
f 229 226 230
f 226 286 230
f 227 232 228
f 231 232 227
f 229 230 233
f 233 285 229
f 233 230 234
f 230 286 234
f 231 240 232
f 239 240 231
f 233 234 235
f 235 285 233
f 235 234 236
f 234 286 236
f 235 236 241
f 241 285 235
f 241 236 242
f 236 286 242
f 237 238 239
f 237 246 238
f 245 246 237
f 239 238 240
f 241 242 243
f 243 285 241
f 243 242 244
f 242 286 244
f 243 244 263
f 263 285 243
f 263 244 264
f 244 286 264
f 245 266 246
f 265 266 245
f 245 448 265
f 266 449 246
f 247 248 249
f 247 274 248
f 273 274 247
f 249 248 250
f 248 470 250
f 274 476 248
f 248 476 470
f 249 250 251
f 251 250 252
f 250 466 252
f 250 470 466
f 251 252 253
f 253 252 254
f 252 462 254
f 252 466 462
f 253 254 255
f 255 254 256
f 254 458 256
f 254 462 458
f 255 256 257
f 257 256 258
f 256 454 258
f 256 458 454
f 257 258 259
f 259 258 260
f 258 446 260
f 258 454 446
f 259 260 261
f 261 260 262
f 260 442 262
f 260 446 442
f 261 262 275
f 275 262 276
f 262 442 276
f 263 264 287
f 287 285 263
f 264 286 288
f 287 264 288
f 265 294 266
f 293 294 265
f 265 448 293
f 294 449 266
f 267 268 269
f 267 300 268
f 299 300 267
f 269 268 270
f 268 490 270
f 300 496 268
f 268 496 490
f 269 270 271
f 271 270 272
f 270 484 272
f 270 490 484
f 271 272 273
f 273 272 274
f 272 480 274
f 272 486 480
f 272 484 486
f 274 480 476
f 275 276 277
f 277 276 278
f 276 438 278
f 276 442 438
f 277 278 279
f 279 278 280
f 278 434 280
f 278 438 434
f 279 280 281
f 281 280 282
f 280 430 282
f 280 434 430
f 281 282 283
f 283 282 284
f 282 426 284
f 282 430 426
f 283 284 301
f 301 284 302
f 284 426 302
f 286 285 449
f 289 285 287
f 307 285 289
f 307 448 285
f 449 285 448
f 288 286 290
f 290 286 308
f 308 286 449
f 287 288 289
f 289 288 290
f 289 290 307
f 307 290 308
f 291 292 293
f 291 318 292
f 293 448 291
f 317 318 291
f 291 448 317
f 293 292 294
f 292 449 294
f 318 449 292
f 295 296 297
f 295 324 296
f 323 324 295
f 297 296 298
f 296 506 298
f 324 512 296
f 296 512 506
f 297 298 299
f 299 298 300
f 298 500 300
f 298 506 500
f 300 502 496
f 300 500 502
f 301 302 303
f 303 302 304
f 302 422 304
f 302 426 422
f 303 304 305
f 305 304 306
f 304 418 306
f 304 422 418
f 305 306 325
f 325 306 326
f 306 414 326
f 306 418 414
f 307 308 309
f 309 448 307
f 309 308 310
f 308 449 310
f 309 310 311
f 311 448 309
f 311 310 312
f 310 449 312
f 311 312 329
f 329 448 311
f 329 312 330
f 312 449 330
f 313 314 315
f 313 340 314
f 315 448 313
f 339 340 313
f 313 448 339
f 315 314 316
f 314 449 316
f 340 449 314
f 315 316 317
f 317 448 315
f 317 316 318
f 316 449 318
f 319 320 321
f 319 344 320
f 343 344 319
f 321 320 322
f 320 516 322
f 344 522 320
f 320 522 516
f 321 322 323
f 323 322 324
f 322 512 324
f 322 510 512
f 322 516 510
f 325 326 327
f 327 326 328
f 326 406 328
f 326 408 406
f 326 414 408
f 327 328 345
f 345 328 346
f 328 402 346
f 328 406 402
f 329 330 331
f 331 448 329
f 331 330 332
f 330 449 332
f 331 332 333
f 333 448 331
f 333 332 334
f 332 449 334
f 333 334 335
f 335 448 333
f 335 334 336
f 334 449 336
f 335 336 337
f 337 448 335
f 337 336 338
f 336 449 338
f 337 338 339
f 339 448 337
f 339 338 340
f 338 449 340
f 341 342 343
f 341 352 342
f 351 352 341
f 343 342 344
f 342 522 344
f 352 528 342
f 342 520 522
f 342 528 520
f 345 346 347
f 347 346 348
f 346 394 348
f 346 396 394
f 346 402 396
f 347 348 353
f 353 348 354
f 348 394 354
f 349 350 351
f 349 360 350
f 359 360 349
f 351 350 352
f 350 534 352
f 360 534 350
f 352 534 528
f 353 354 355
f 355 354 356
f 354 390 356
f 354 394 390
f 355 356 361
f 361 356 362
f 356 384 362
f 356 388 384
f 356 390 388
f 357 358 359
f 357 368 358
f 367 368 357
f 359 358 360
f 358 538 360
f 368 548 358
f 358 548 538
f 360 540 534
f 360 538 540
f 361 362 363
f 363 362 364
f 362 384 364
f 363 364 369
f 369 364 370
f 364 378 370
f 364 384 378
f 365 366 367
f 365 374 366
f 373 374 365
f 365 450 373
f 367 366 368
f 546 368 366
f 546 366 374
f 368 546 548
f 369 370 375
f 375 370 376
f 370 378 376
f 371 372 373
f 371 382 372
f 373 450 371
f 381 382 371
f 371 450 381
f 373 372 374
f 552 374 372
f 562 372 382
f 552 372 562
f 546 374 554
f 554 374 552
f 375 376 377
f 377 376 378
f 377 378 383
f 383 378 384
f 379 380 381
f 379 386 380
f 381 450 379
f 385 386 379
f 379 450 385
f 381 380 382
f 560 382 380
f 560 380 386
f 562 382 560
f 383 384 387
f 387 384 388
f 385 392 386
f 391 392 385
f 385 450 391
f 570 386 392
f 560 386 570
f 387 388 389
f 389 388 390
f 389 390 393
f 393 636 389
f 393 390 394
f 391 400 392
f 399 400 391
f 391 450 399
f 582 392 400
f 570 392 568
f 568 392 582
f 393 394 395
f 395 636 393
f 395 394 396
f 395 396 401
f 401 636 395
f 401 396 402
f 397 398 399
f 397 404 398
f 399 450 397
f 403 404 397
f 397 450 403
f 399 398 400
f 580 400 398
f 580 398 404
f 582 400 580
f 401 402 405
f 405 636 401
f 405 402 406
f 403 412 404
f 411 412 403
f 403 450 411
f 594 404 412
f 580 404 578
f 578 404 594
f 405 406 407
f 407 636 405
f 407 406 408
f 407 408 413
f 413 636 407
f 413 408 414
f 409 410 411
f 409 416 410
f 411 450 409
f 415 416 409
f 409 450 415
f 411 410 412
f 592 412 410
f 592 410 416
f 594 412 592
f 413 414 417
f 417 636 413
f 417 414 418
f 415 420 416
f 419 420 415
f 415 450 419
f 608 416 420
f 592 416 590
f 590 416 608
f 417 418 421
f 421 636 417
f 421 418 422
f 419 424 420
f 423 424 419
f 419 450 423
f 606 420 424
f 608 420 606
f 421 422 425
f 425 636 421
f 425 422 426
f 423 428 424
f 427 428 423
f 423 450 427
f 604 424 428
f 606 424 604
f 425 426 429
f 429 636 425
f 429 426 430
f 427 432 428
f 431 432 427
f 427 450 431
f 632 428 432
f 604 428 602
f 602 428 632
f 429 430 433
f 433 636 429
f 433 430 434
f 431 436 432
f 435 436 431
f 431 450 435
f 630 432 436
f 632 432 630
f 433 434 437
f 437 636 433
f 437 434 438
f 435 440 436
f 439 440 435
f 435 450 439
f 628 436 440
f 630 436 628
f 437 438 441
f 441 636 437
f 441 438 442
f 439 444 440
f 443 444 439
f 439 450 443
f 626 440 444
f 628 440 626
f 441 442 445
f 445 636 441
f 445 442 446
f 443 452 444
f 443 450 451
f 451 452 443
f 624 444 452
f 626 444 624
f 445 446 453
f 453 636 445
f 453 446 454
f 844 448 447
f 843 447 633
f 844 447 843
f 845 449 448
f 845 448 844
f 846 450 449
f 846 449 845
f 451 450 455
f 455 450 459
f 459 450 463
f 463 450 467
f 467 450 471
f 471 450 473
f 473 450 477
f 477 450 481
f 481 450 487
f 487 450 491
f 491 450 493
f 493 450 497
f 497 450 503
f 503 450 507
f 507 450 513
f 513 450 517
f 517 450 523
f 523 450 525
f 525 450 529
f 529 450 531
f 531 450 535
f 535 450 541
f 541 450 543
f 543 450 549
f 549 450 555
f 555 450 557
f 557 450 563
f 563 450 846
f 451 456 452
f 455 456 451
f 622 452 456
f 624 452 622
f 453 454 457
f 457 636 453
f 457 454 458
f 455 460 456
f 459 460 455
f 620 456 460
f 622 456 620
f 457 458 461
f 461 636 457
f 461 458 462
f 459 464 460
f 463 464 459
f 618 460 464
f 620 460 618
f 461 462 465
f 465 636 461
f 465 462 466
f 463 468 464
f 467 468 463
f 616 464 468
f 618 464 616
f 465 466 469
f 469 636 465
f 469 466 470
f 467 472 468
f 471 472 467
f 614 468 472
f 616 468 614
f 469 470 475
f 475 636 469
f 475 470 476
f 471 474 472
f 473 474 471
f 612 472 474
f 614 472 612
f 473 478 474
f 477 478 473
f 612 474 478
f 475 476 479
f 479 636 475
f 479 476 480
f 477 482 478
f 481 482 477
f 610 478 482
f 612 478 610
f 479 480 485
f 485 636 479
f 485 480 486
f 481 488 482
f 487 488 481
f 600 482 488
f 610 482 600
f 483 486 484
f 483 484 489
f 485 486 483
f 483 636 485
f 489 636 483
f 489 484 490
f 487 492 488
f 491 492 487
f 598 488 492
f 600 488 598
f 489 490 495
f 495 636 489
f 495 490 496
f 491 494 492
f 493 494 491
f 596 492 494
f 598 492 596
f 493 498 494
f 497 498 493
f 596 494 498
f 495 496 501
f 501 636 495
f 501 496 502
f 497 504 498
f 503 504 497
f 588 498 504
f 596 498 588
f 499 502 500
f 499 500 505
f 501 502 499
f 499 636 501
f 505 636 499
f 505 500 506
f 503 508 504
f 507 508 503
f 586 504 508
f 588 504 586
f 505 506 511
f 511 636 505
f 511 506 512
f 507 514 508
f 513 514 507
f 576 508 514
f 584 508 576
f 586 508 584
f 509 512 510
f 509 510 515
f 511 512 509
f 509 636 511
f 515 636 509
f 515 510 516
f 513 518 514
f 517 518 513
f 574 514 518
f 576 514 574
f 515 516 521
f 521 636 515
f 521 516 522
f 517 524 518
f 523 524 517
f 566 518 524
f 572 518 566
f 574 518 572
f 519 522 520
f 519 520 527
f 521 522 519
f 519 636 521
f 527 636 519
f 527 520 528
f 523 526 524
f 525 526 523
f 564 524 526
f 566 524 564
f 525 530 526
f 529 530 525
f 558 526 530
f 564 526 558
f 527 528 533
f 533 636 527
f 533 528 534
f 529 532 530
f 531 532 529
f 556 530 532
f 558 530 556
f 531 536 532
f 535 536 531
f 556 532 536
f 533 534 539
f 539 636 533
f 539 534 540
f 535 542 536
f 541 542 535
f 550 536 542
f 556 536 550
f 537 540 538
f 537 538 547
f 539 540 537
f 537 636 539
f 547 636 537
f 547 538 548
f 541 544 542
f 543 544 541
f 550 542 544
f 543 550 544
f 549 550 543
f 545 548 546
f 545 546 553
f 547 548 545
f 545 636 547
f 553 846 545
f 545 846 636
f 553 546 554
f 549 556 550
f 555 556 549
f 551 554 552
f 551 552 561
f 553 554 551
f 551 846 553
f 561 846 551
f 561 552 562
f 555 558 556
f 557 558 555
f 557 564 558
f 563 564 557
f 559 562 560
f 559 560 569
f 561 562 559
f 559 846 561
f 569 846 559
f 569 560 570
f 563 566 564
f 565 566 563
f 563 846 565
f 565 572 566
f 571 572 565
f 565 846 571
f 567 570 568
f 567 568 581
f 569 570 567
f 567 846 569
f 581 846 567
f 581 568 582
f 571 574 572
f 573 574 571
f 571 846 573
f 573 576 574
f 575 576 573
f 573 846 575
f 575 584 576
f 583 584 575
f 575 846 583
f 577 580 578
f 577 578 593
f 579 580 577
f 577 846 579
f 593 846 577
f 593 578 594
f 579 582 580
f 581 582 579
f 579 846 581
f 583 586 584
f 585 586 583
f 583 846 585
f 585 588 586
f 587 588 585
f 585 846 587
f 587 596 588
f 595 596 587
f 587 846 595
f 589 592 590
f 589 590 607
f 591 592 589
f 589 846 591
f 607 846 589
f 607 590 608
f 591 594 592
f 593 594 591
f 591 846 593
f 595 598 596
f 597 598 595
f 595 846 597
f 597 600 598
f 599 600 597
f 597 846 599
f 599 610 600
f 609 610 599
f 599 846 609
f 601 604 602
f 601 602 631
f 603 604 601
f 601 846 603
f 631 846 601
f 631 602 632
f 603 606 604
f 605 606 603
f 603 846 605
f 605 608 606
f 607 608 605
f 605 846 607
f 609 612 610
f 611 612 609
f 609 846 611
f 611 614 612
f 613 614 611
f 611 846 613
f 613 616 614
f 615 616 613
f 613 846 615
f 615 618 616
f 617 618 615
f 615 846 617
f 617 620 618
f 619 620 617
f 617 846 619
f 619 622 620
f 621 622 619
f 619 846 621
f 621 624 622
f 623 624 621
f 621 846 623
f 623 626 624
f 625 626 623
f 623 846 625
f 625 628 626
f 627 628 625
f 625 846 627
f 627 630 628
f 629 630 627
f 627 846 629
f 629 632 630
f 631 632 629
f 629 846 631
f 634 843 633
f 635 669 634
f 634 639 637
f 634 637 651
f 641 639 634
f 669 641 634
f 647 645 634
f 634 645 663
f 634 649 647
f 634 651 649
f 634 663 661
f 634 661 844
f 844 843 634
f 635 636 845
f 635 638 640
f 635 652 638
f 635 640 642
f 635 642 644
f 635 644 654
f 635 646 648
f 664 646 635
f 648 650 635
f 635 650 652
f 635 654 656
f 656 658 635
f 635 658 660
f 635 660 666
f 635 662 664
f 845 662 635
f 635 666 668
f 635 668 676
f 670 669 635
f 635 676 670
f 845 636 846
f 638 637 640
f 638 651 637
f 640 637 639
f 652 651 638
f 640 639 642
f 642 639 641
f 642 641 644
f 644 641 643
f 669 643 641
f 644 643 654
f 654 643 653
f 669 653 643
f 646 645 648
f 646 663 645
f 648 645 647
f 664 663 646
f 648 647 650
f 650 647 649
f 650 649 652
f 652 649 651
f 654 653 656
f 656 653 655
f 669 655 653
f 656 655 658
f 658 655 657
f 657 655 669
f 658 657 660
f 660 657 659
f 669 659 657
f 660 659 666
f 666 659 665
f 669 665 659
f 662 661 664
f 662 673 661
f 664 661 663
f 661 673 844
f 674 673 662
f 845 674 662
f 666 665 668
f 668 665 667
f 669 667 665
f 668 667 676
f 669 675 667
f 676 667 675
f 670 915 669
f 669 681 675
f 685 681 669
f 687 685 669
f 669 691 687
f 669 695 691
f 699 695 669
f 669 701 699
f 705 701 669
f 709 705 669
f 669 715 709
f 713 715 669
f 669 719 713
f 669 725 719
f 731 725 669
f 669 729 731
f 669 739 729
f 669 737 739
f 669 747 737
f 747 669 915
f 670 676 682
f 670 682 686
f 670 686 688
f 670 688 692
f 692 696 670
f 670 696 700
f 700 702 670
f 670 702 706
f 670 706 710
f 670 710 716
f 670 716 714
f 670 714 720
f 720 726 670
f 670 726 732
f 732 730 670
f 670 730 740
f 670 740 738
f 670 738 748
f 748 916 670
f 916 915 670
f 672 671 674
f 672 679 671
f 674 671 673
f 844 673 671
f 844 671 679
f 672 674 845
f 680 679 672
f 845 680 672
f 676 675 682
f 682 675 681
f 678 677 680
f 678 683 677
f 680 677 679
f 844 679 677
f 844 677 683
f 845 678 680
f 684 683 678
f 845 684 678
f 682 681 686
f 686 681 685
f 684 689 683
f 844 683 689
f 690 689 684
f 845 690 684
f 686 685 688
f 688 685 687
f 688 687 692
f 692 687 691
f 690 693 689
f 689 693 844
f 694 693 690
f 694 690 845
f 692 691 696
f 696 691 695
f 694 697 693
f 844 693 697
f 698 697 694
f 845 698 694
f 696 695 700
f 700 695 699
f 698 703 697
f 844 697 703
f 704 703 698
f 845 704 698
f 700 699 702
f 702 699 701
f 702 701 706
f 706 701 705
f 704 707 703
f 844 703 707
f 708 707 704
f 845 708 704
f 706 705 710
f 710 705 709
f 708 711 707
f 844 707 711
f 712 711 708
f 845 712 708
f 710 709 716
f 716 709 715
f 712 717 711
f 844 711 717
f 718 717 712
f 845 718 712
f 714 715 713
f 714 713 720
f 720 713 719
f 716 715 714
f 718 721 717
f 717 721 844
f 722 721 718
f 722 718 845
f 720 719 726
f 726 719 725
f 722 723 721
f 844 721 723
f 724 723 722
f 845 724 722
f 724 727 723
f 844 723 727
f 728 727 724
f 845 728 724
f 726 725 732
f 732 725 731
f 728 733 727
f 844 727 733
f 734 733 728
f 845 734 728
f 730 731 729
f 730 729 740
f 740 729 739
f 732 731 730
f 734 735 733
f 844 733 735
f 736 735 734
f 845 736 734
f 736 741 735
f 844 735 741
f 742 741 736
f 845 742 736
f 738 739 737
f 738 737 748
f 748 737 747
f 740 739 738
f 742 743 741
f 837 741 743
f 741 777 775
f 844 741 775
f 741 779 777
f 741 781 779
f 741 783 781
f 785 783 741
f 787 785 741
f 741 789 787
f 795 789 741
f 741 797 795
f 799 797 741
f 805 799 741
f 807 805 741
f 741 813 807
f 815 813 741
f 821 815 741
f 741 825 821
f 827 825 741
f 741 831 827
f 837 831 741
f 744 743 742
f 838 744 742
f 778 742 776
f 776 742 845
f 780 742 778
f 782 742 780
f 784 742 782
f 786 742 784
f 788 742 786
f 790 742 788
f 796 742 790
f 798 742 796
f 800 742 798
f 806 742 800
f 808 742 806
f 814 742 808
f 816 742 814
f 822 742 816
f 826 742 822
f 828 742 826
f 832 742 828
f 838 742 832
f 744 749 743
f 743 749 837
f 750 749 744
f 838 750 744
f 746 747 745
f 746 745 758
f 881 745 747
f 758 745 757
f 873 757 745
f 873 745 881
f 748 747 746
f 882 748 746
f 874 746 758
f 882 746 874
f 747 915 881
f 748 882 916
f 750 751 749
f 841 749 751
f 837 749 841
f 752 751 750
f 842 752 750
f 842 750 838
f 752 753 751
f 751 753 841
f 754 753 752
f 754 752 842
f 754 759 753
f 841 753 759
f 760 759 754
f 842 760 754
f 756 757 755
f 756 755 774
f 875 755 757
f 774 755 773
f 869 773 755
f 869 755 875
f 758 757 756
f 876 758 756
f 870 756 774
f 876 756 870
f 875 757 873
f 874 758 876
f 760 761 759
f 841 759 761
f 762 761 760
f 842 762 760
f 762 763 761
f 841 761 763
f 764 763 762
f 842 764 762
f 764 765 763
f 841 763 765
f 766 765 764
f 842 766 764
f 766 767 765
f 849 765 767
f 841 765 849
f 768 767 766
f 850 768 766
f 850 766 842
f 768 769 767
f 855 767 769
f 849 767 855
f 770 769 768
f 856 770 768
f 856 768 850
f 770 771 769
f 859 769 771
f 855 769 859
f 772 771 770
f 860 772 770
f 860 770 856
f 772 773 771
f 863 771 773
f 859 771 863
f 774 773 772
f 864 774 772
f 864 772 860
f 863 773 869
f 870 774 864
f 776 775 778
f 776 793 775
f 778 775 777
f 793 844 775
f 794 793 776
f 776 845 794
f 778 777 780
f 780 777 779
f 780 779 782
f 782 779 781
f 782 781 784
f 784 781 783
f 784 783 786
f 786 783 785
f 786 785 788
f 788 785 787
f 788 787 790
f 790 787 789
f 790 789 796
f 796 789 795
f 792 791 794
f 792 803 791
f 794 791 793
f 791 844 793
f 803 844 791
f 794 845 792
f 804 803 792
f 792 845 804
f 796 795 798
f 798 795 797
f 798 797 800
f 800 797 799
f 800 799 806
f 806 799 805
f 802 801 804
f 802 811 801
f 804 801 803
f 801 844 803
f 811 844 801
f 804 845 802
f 812 811 802
f 802 845 812
f 806 805 808
f 808 805 807
f 808 807 814
f 814 807 813
f 810 809 812
f 810 819 809
f 812 809 811
f 809 844 811
f 819 844 809
f 812 845 810
f 820 819 810
f 810 845 820
f 814 813 816
f 816 813 815
f 816 815 822
f 822 815 821
f 818 817 820
f 818 823 817
f 820 817 819
f 817 844 819
f 823 844 817
f 820 845 818
f 824 823 818
f 818 845 824
f 822 821 826
f 826 821 825
f 824 829 823
f 829 844 823
f 830 829 824
f 824 845 830
f 826 825 828
f 828 825 827
f 828 827 832
f 832 827 831
f 830 835 829
f 835 844 829
f 836 835 830
f 830 845 836
f 832 831 838
f 838 831 837
f 834 833 836
f 834 839 833
f 836 833 835
f 833 844 835
f 839 844 833
f 836 845 834
f 840 839 834
f 834 845 840
f 838 837 842
f 842 837 841
f 840 847 839
f 847 844 839
f 840 845 848
f 848 847 840
f 842 841 850
f 850 841 849
f 844 916 845
f 851 844 847
f 853 844 851
f 857 844 853
f 861 844 857
f 865 844 861
f 867 844 865
f 871 844 867
f 877 844 871
f 877 915 844
f 915 916 844
f 848 845 852
f 852 845 854
f 854 845 858
f 858 845 862
f 862 845 866
f 866 845 868
f 868 845 872
f 872 845 878
f 878 845 916
f 848 851 847
f 852 851 848
f 850 849 856
f 856 849 855
f 852 853 851
f 854 853 852
f 854 857 853
f 858 857 854
f 856 855 860
f 860 855 859
f 858 861 857
f 862 861 858
f 860 859 864
f 864 859 863
f 862 865 861
f 866 865 862
f 864 863 870
f 870 863 869
f 866 867 865
f 868 867 866
f 868 871 867
f 872 871 868
f 870 869 876
f 876 869 875
f 872 877 871
f 878 877 872
f 874 875 873
f 874 873 882
f 882 873 881
f 876 875 874
f 878 883 877
f 883 915 877
f 884 883 878
f 878 916 884
f 880 881 879
f 880 879 890
f 881 915 879
f 890 879 889
f 879 915 889
f 882 881 880
f 880 916 882
f 890 916 880
f 884 885 883
f 885 915 883
f 886 885 884
f 884 916 886
f 886 891 885
f 891 915 885
f 892 891 886
f 886 916 892
f 888 889 887
f 888 887 906
f 889 915 887
f 906 887 905
f 887 915 905
f 890 889 888
f 888 916 890
f 906 916 888
f 892 893 891
f 893 915 891
f 894 893 892
f 892 916 894
f 894 895 893
f 895 915 893
f 896 895 894
f 894 916 896
f 896 897 895
f 897 915 895
f 898 897 896
f 896 916 898
f 898 907 897
f 907 915 897
f 908 907 898
f 898 916 908
f 900 901 899
f 900 899 914
f 901 915 899
f 914 899 913
f 899 915 913
f 902 901 900
f 900 916 902
f 914 916 900
f 902 903 901
f 903 915 901
f 904 903 902
f 902 916 904
f 904 905 903
f 905 915 903
f 906 905 904
f 904 916 906
f 908 909 907
f 909 915 907
f 910 909 908
f 908 916 910
f 910 911 909
f 911 915 909
f 912 911 910
f 910 916 912
f 912 913 911
f 913 915 911
f 914 913 912
f 912 916 914
