v -0.0530153469 0.00210366287 -0.0364308794
v -0.0530285934 0.0021169094 -0.0357155485
v -0.053033009 0.00212132491 -0.0350000001
v -0.0527508644 0.00183918037 -0.0407060976
v -0.0528169159 0.00190522231 -0.0399966426
v -0.0528741936 0.00196249999 -0.0392856665
v -0.0529226879 0.00201100387 -0.038573385
v -0.0529623894 0.00205069579 -0.0378600152
v -0.0529932789 0.00208158531 -0.0371457739
v -0.0525003532 0.0015886692 -0.0428231688
v -0.052592564 0.00168087997 -0.0421195753
v -0.0526760773 0.00176438369 -0.0414138134
v -0.0522899631 0.00137826957 -0.0442229934
v -0.0523994736 0.00148778953 -0.0435243793
v -0.0520451549 0.00113346137 -0.0456115813
v -0.052171841 0.00126015701 -0.0449187977
v -0.0517662243 0.000854535477 -0.0469872398
v -0.0519099335 0.00099824466 -0.046301132
v -0.0516140655 0.000702381509 -0.0476696963
v -0.0515138534 0.000602169411 -0.0383990736
v -0.051551619 0.000639930146 -0.0377205021
v -0.0515810017 0.000669312852 -0.0370411022
v -0.051601992 0.000690307992 -0.0363610805
v -0.0516145996 0.00070290603 -0.035680644
v -0.0516187958 0.000707106965 -0.0350000001
v -0.0512846188 0.000372925179 -0.0490228267
v -0.0512792782 0.000367584603 -0.0411009438
v -0.0513504127 0.000438728707 -0.0404277511
v -0.0514535145 0.000541830437 -0.0483482952
v -0.0514132408 0.000501552003 -0.0397529049
v -0.0514677242 0.000556035416 -0.0390766103
v -0.0511074165 0.000195727723 -0.0496930857
v -0.051016169 0.000104480164 -0.0431085558
v -0.0511121277 0.000200438874 -0.0424415512
v -0.0511998371 0.000288148301 -0.0417722793
v -0.0507996372 -0.000112051589 -0.0444349535
v -0.050921965 1.02809837e-05 -0.0503588696
v -0.0509119896 3.05550385e-07 -0.0437730916
v -0.0505265716 -0.000385117156 -0.0516762013
v -0.0505504993 -0.000361184699 -0.0457498569
v -0.050728331 -0.000183353049 -0.0510199757
v -0.0506791214 -0.000232562644 -0.0450939424
v -0.0503167442 -0.000594944579 -0.0523273487
v -0.05026907 -0.00064261399 -0.0470516629
v -0.0504137997 -0.000497884376 -0.0464024968
v -0.0500989059 -0.000812778098 -0.0529732175
v -0.0501163486 -0.000795335395 -0.0476971574
v -0.0498731331 -0.00103855096 -0.0536136098
v -0.0497871307 -0.00112455807 -0.0489763494
v -0.0499556927 -0.000956000907 -0.0483387847
v -0.0496395019 -0.00127219163 -0.0542483349
v -0.0496107296 -0.00130095444 -0.0496096582
v -0.0493980602 -0.00151362859 -0.0548771949
v -0.0494265465 -0.00148514233 -0.0502385135
v -0.0491489033 -0.00176278554 -0.055499999
v -0.049035025 -0.00187665902 -0.0514821119
v -0.0492346195 -0.00167706452 -0.0508627291
v -0.0488920883 -0.00201959573 -0.0561165614
v -0.0488278202 -0.00208386861 -0.0520964737
v -0.0486277107 -0.00228397332 -0.0567266889
v -0.0486130623 -0.00229862653 -0.0527056284
v -0.0483558468 -0.00255584202 -0.0573302002
v -0.048390818 -0.00252086602 -0.0533093901
v -0.0480765728 -0.00283511601 -0.0579269094
v -0.0481611637 -0.0027505251 -0.0539075751
v -0.0477899746 -0.00312170945 -0.058516633
v -0.0479241566 -0.00298753224 -0.0545
v -0.0476798729 -0.00323181592 -0.0550864859
v -0.0474961475 -0.00341554127 -0.0590991945
v -0.047428389 -0.00348329507 -0.0556668515
v -0.0472658352 0.00766785659 -0.038573385
v -0.0473055366 0.00770754852 -0.0378600152
v -0.0473364262 0.00773844756 -0.0371457739
v -0.0473584942 0.00776051559 -0.0364308794
v -0.0473717407 0.00777376212 -0.0357155485
v -0.0473761562 0.00777817764 -0.0350000001
v -0.0471951775 -0.00371651135 -0.0596744151
v -0.0471697906 -0.00374190293 -0.0562409229
v -0.0470192245 0.00742124595 -0.0414138134
v -0.0470940117 0.00749603309 -0.0407060976
v -0.0471600536 0.00756207504 -0.0399966426
v -0.0472173408 0.00761935272 -0.0392856665
v -0.0468871502 -0.00402453862 -0.0602421207
v -0.0469041351 -0.00400755368 -0.0568085237
v -0.0468435005 0.00724552192 -0.0428231688
v -0.0469357113 0.00733773269 -0.0421195753
v -0.0465721611 -0.00433952771 -0.060802135
v -0.0466315178 -0.00428016625 -0.057369482
v -0.0465149883 0.00691700973 -0.0449187977
v -0.0466331104 0.00703513183 -0.0442229934
v -0.0467426208 0.00714464225 -0.0435243793
v -0.0462503151 -0.00466137372 -0.061354291
v -0.0463520245 -0.00455966435 -0.057923624
v -0.0462530807 0.00665510215 -0.046301132
v -0.0463882927 0.0067903141 -0.0456115813
v -0.0460657314 -0.00484595261 -0.0584707851
v -0.0461093716 0.00651139297 -0.0469872398
v -0.0457727341 -0.00513895474 -0.0590107985
v -0.045921698 -0.00498998605 -0.0618984194
v -0.0457966618 0.00619868316 -0.0483482952
v -0.0457563881 0.00615840949 -0.0397529049
v -0.0458108715 0.00621289291 -0.0390766103
v -0.0459572128 0.00635923423 -0.0476696963
v -0.0458570007 0.00625902213 -0.0383990736
v -0.0458947662 0.00629678764 -0.0377205021
v -0.0459241489 0.00632617034 -0.0370411022
v -0.0459451393 0.00634716071 -0.0363610805
v -0.0459577373 0.00635975875 -0.035680644
v -0.045961943 0.00636396446 -0.0350000001
v -0.0455864242 -0.00532526456 -0.0624343557
v -0.0455429844 0.00594500579 -0.0417722793
v -0.0456277565 0.0060297779 -0.0490228267
v -0.0456224159 0.00602443733 -0.0411009438
v -0.04569356 0.00609558143 -0.0404277511
v -0.0454731087 -0.00543857537 -0.0595434947
v -0.0452651123 0.00566713371 -0.0503588696
v -0.0452551369 0.00565715827 -0.0437730916
v -0.0454505638 0.00585257568 -0.0496930857
v -0.0453593162 0.00576133765 -0.0431085558
v -0.045455275 0.00585728683 -0.0424415512
v -0.0452445797 -0.00566710435 -0.0629619331
v -0.0451669601 -0.0057447239 -0.0600687165
v -0.0450714783 0.00547349967 -0.0510199757
v -0.0450222687 0.00542429008 -0.0450939424
v -0.0451427845 0.0055448059 -0.0444349535
v -0.0448962788 -0.00601540528 -0.0634809942
v -0.0448543838 -0.00605730973 -0.0605863018
v -0.0447569469 0.00515896835 -0.0464024968
v -0.0448697189 0.00527174033 -0.0516762013
v -0.0448936466 0.00529566802 -0.0457498569
v -0.0445416264 -0.00637005769 -0.0639913769
v -0.0445354561 -0.00637623273 -0.0610960932
v -0.0446598915 0.00506191291 -0.0523273487
v -0.0446122173 0.00501423873 -0.0470516629
v -0.0442988304 0.00470085182 -0.0483387847
v -0.0444420532 0.00484407462 -0.0529732175
v -0.0444594959 0.00486151733 -0.0476971574
v -0.0441807369 -0.00673095189 -0.0644929309
v -0.0442102913 -0.00670139752 -0.0615979357
v -0.0442162804 0.00461830177 -0.0536136098
v -0.044130278 0.00453229942 -0.0489763494
v -0.0438137058 -0.00709798775 -0.0649855013
v -0.0438789848 -0.00703270398 -0.0620916767
v -0.0437696937 0.00417170562 -0.0502385135
v -0.0439826397 0.0043846611 -0.0542483349
v -0.0439538769 0.00435589828 -0.0496096582
v -0.0435416321 -0.00737005673 -0.0625771637
v -0.0435777668 0.0039797882 -0.0508627291
v -0.0437412075 0.00414322891 -0.0548771949
v -0.0434406475 -0.0074710413 -0.0654689379
v -0.0434920505 0.00389406242 -0.055499999
v -0.0433781723 0.0037801937 -0.0514821119
v -0.0430616859 -0.00785000287 -0.0659430928
v -0.0431983379 -0.00771335088 -0.0630542512
v -0.0432352356 0.003637257 -0.0561165614
v -0.0431709675 0.00357298888 -0.0520964737
v -0.0428492073 -0.00806247674 -0.0635227938
v -0.042970858 0.0033728794 -0.0567266889
v -0.0429562096 0.00335823097 -0.0527056284
v -0.042676926 -0.008234758 -0.0664078231
v -0.042504311 0.00290633239 -0.0539075751
v -0.0426989941 0.00310101547 -0.0573302002
v -0.0427339653 0.0031359867 -0.0533093901
v -0.0422864918 -0.00862519227 -0.0668629856
v -0.0424943546 -0.00841733418 -0.0639826484
v -0.0422673038 0.00266932525 -0.0545
v -0.0424197201 0.00282174148 -0.0579269094
v -0.0421338753 -0.00877780877 -0.0644336743
v -0.0420230202 0.00242504157 -0.0550864859
v -0.0421331219 0.00253514327 -0.058516633
v -0.0418905071 -0.00902118169 -0.0673084421
v -0.0417678932 -0.00914380036 -0.0648757334
v -0.0418392948 0.00224131622 -0.0590991945
v -0.0417715362 0.00217355766 -0.0556668515
v -0.0415383247 0.0019403366 -0.0596744151
v -0.0415129284 0.00191494979 -0.0562409229
v -0.0413965038 -0.00951518498 -0.065308692
v -0.041489077 -0.00942261182 -0.0677440567
v -0.0410823349 -0.00982935391 -0.0681696959
v -0.0410198311 -0.00989185773 -0.065732419
v -0.0412302975 0.00163231887 -0.0602421207
v -0.0412472824 0.00164930381 -0.0568085237
v -0.0409153084 0.00131732978 -0.060802135
v -0.0409746651 0.00137668647 -0.057369482
v -0.0406379799 -0.0102737042 -0.0661467857
v -0.0406704048 -0.0102412888 -0.0685852356
v -0.0405934624 0.000995479005 -0.061354291
v -0.0406951717 0.00109719314 -0.057923624
v -0.0402534012 -0.0106582829 -0.0689905424
v -0.0402510837 -0.0106606051 -0.0665516634
v -0.0402648453 0.000666866677 -0.0618984194
v -0.0404088787 0.000810900109 -0.0584707851
v -0.0401158813 0.00051789798 -0.0590107985
v -0.039831467 -0.0110802218 -0.0693854923
v -0.039859238 -0.011052446 -0.0669469304
v -0.0398162559 0.000218277352 -0.0595434947
v -0.0399295715 0.000331588166 -0.0624343557
v -0.039587727 -1.02516243e-05 -0.0629619331
v -0.0395101074 -8.78711769e-05 -0.0600687165
v -0.0394047169 -0.0115069672 -0.0697699709
v -0.0394625858 -0.011449103 -0.0673324652
v -0.039061232 -0.0118504568 -0.0677081509
v -0.039239426 -0.000358552558 -0.0634809942
v -0.0391975311 -0.000400452239 -0.0605863018
v -0.0389732937 -0.0119383951 -0.0701438589
v -0.0388847736 -0.000713204963 -0.0639913769
v -0.0388786034 -0.000719375236 -0.0610960932
v -0.0385373215 -0.0123743673 -0.0705070419
v -0.0386553005 -0.0122563883 -0.0680738754
v -0.0385238842 -0.00107409917 -0.0644929309
v -0.0385534386 -0.00104454003 -0.0615979357
v -0.0380969337 -0.0128147598 -0.0708594103
v -0.0382449249 -0.0126667687 -0.0684295244
v -0.0381568531 -0.00144113026 -0.0649855013
v -0.0382221321 -0.00137585126 -0.0620916767
v -0.0378302101 -0.0130814739 -0.0687749929
v -0.0377837948 -0.00181418381 -0.0654689379
v -0.0378847794 -0.00171320401 -0.0625771637
v -0.0376522545 -0.0132594296 -0.0712008495
v -0.0375414852 -0.00205649338 -0.0630542512
v -0.0374113087 -0.0135003849 -0.0691101665
v -0.0374048332 -0.00219315015 -0.0659430928
v -0.0372034363 -0.0137082478 -0.0715312691
v -0.0370200733 -0.00257790528 -0.0664078231
v -0.0371923546 -0.00240562402 -0.0635227938
v -0.0367506126 -0.0141610762 -0.0718505545
v -0.0369883255 -0.0139233633 -0.0694349546
v -0.0368375019 -0.00276047669 -0.0639826484
v -0.0365614036 -0.0143502852 -0.0697492523
v -0.036629639 -0.00296833955 -0.0668629856
v -0.0362939171 -0.0146177717 -0.0721586199
v -0.0364770225 -0.00312095605 -0.0644336743
v -0.0361306671 -0.0147810265 -0.070052969
v -0.0362336544 -0.00336432896 -0.0673084421
v -0.0361110405 -0.00348694287 -0.0648757334
v -0.0358334831 -0.0150782009 -0.0724553652
v -0.0358322243 -0.00376575433 -0.0677440567
v -0.0356962398 -0.0152154442 -0.0703460045
v -0.0357396511 -0.00385833226 -0.065308692
v -0.0353694633 -0.0155422255 -0.0727406998
v -0.0352582745 -0.0156534144 -0.070628273
v -0.0354254822 -0.00417250119 -0.0681696959
v -0.0353629784 -0.004235005 -0.065732419
v -0.0350135521 -0.00458443127 -0.0685852356
v -0.0349019913 -0.0160096975 -0.0730145378
v -0.0348168854 -0.0160948034 -0.0708996887
v -0.0349811272 -0.00461685143 -0.0661467857
v -0.0345965485 -0.00500143014 -0.0689905424
v -0.034594231 -0.00500375233 -0.0665516634
v -0.0343722156 -0.0165394684 -0.0711601706
v -0.0344312099 -0.0164804789 -0.0732767982
v -0.0341746143 -0.00542336903 -0.0693854923
v -0.0342023853 -0.00539559327 -0.0669469304
v -0.0339572624 -0.0169544216 -0.0735273952
v -0.0339243988 -0.0169872852 -0.0714096375
v -0.0338057331 -0.00579225026 -0.0673324652
v -0.0337478641 -0.00585011445 -0.0697699709
v -0.0334803013 -0.0174313875 -0.0737662621
v -0.0334735779 -0.0174381109 -0.0716480131
v -0.033316441 -0.00628153764 -0.0701438589
v -0.0334043793 -0.00619360409 -0.0677081509
v -0.03300046 -0.0179112288 -0.0739933176
v -0.0330198769 -0.0178918119 -0.071875226
v -0.0328804687 -0.00671751462 -0.0705070419
v -0.0329984478 -0.0065995308 -0.0680738754
v -0.0325178913 -0.0183937975 -0.0742084951
v -0.0325634388 -0.0183482452 -0.0720912046
v -0.0325880627 -0.00700991593 -0.0684295244
v -0.0324400715 -0.00715790234 -0.0708594103
v -0.0320327381 -0.0188789507 -0.0744117279
v -0.0321044163 -0.0188072773 -0.072295887
v -0.0321733574 -0.00742462121 -0.0687749929
v -0.0317544464 -0.00784352742 -0.0691101665
v -0.0319954018 -0.00760257683 -0.0712008495
v -0.031545153 -0.0193665358 -0.0746029587
v -0.0316429237 -0.0192687603 -0.0724892063
v -0.0315465836 -0.00805139504 -0.0715312691
v -0.0313314728 -0.00826651059 -0.0694349546
v -0.0310552792 -0.0198564097 -0.0747821255
v -0.0311791233 -0.0197325607 -0.0726711054
v -0.0310937599 -0.00850421868 -0.0718505545
v -0.0309045509 -0.00869343243 -0.0697492523
v -0.030563269 -0.020348415 -0.0749491711
v -0.0307131485 -0.0201985355 -0.0728415318
v -0.0306370644 -0.00896091901 -0.0721586199
v -0.0304738048 -0.00912416898 -0.070052969
v -0.0300692753 -0.0208424135 -0.0751040525
v -0.0302451424 -0.0206665464 -0.073000433
v -0.0300393871 -0.00955859147 -0.0703460045
v -0.0301766304 -0.0094213482 -0.0724553652
v -0.0297752479 -0.0211364409 -0.0731477566
v -0.0295734505 -0.0213382431 -0.0752467127
v -0.0297126106 -0.00988536797 -0.0727406998
v -0.0296014217 -0.00999656163 -0.070628273
v -0.0293035988 -0.0216080853 -0.0732834597
v -0.0290759281 -0.0218357559 -0.0753771181
v -0.0292451385 -0.01035284 -0.0730145378
v -0.0291600326 -0.0104379459 -0.0708996887
v -0.028830357 -0.0220813318 -0.0734075041
v -0.0287743572 -0.0108236214 -0.0732767982
v -0.0285768799 -0.0223348089 -0.0754952211
v -0.0287153629 -0.0108826157 -0.0711601706
v -0.0283556465 -0.0225560375 -0.0735198469
v -0.0283004097 -0.0112975689 -0.0735273952
v -0.0282675461 -0.0113304325 -0.0714096375
v -0.0280764488 -0.02283524 -0.0756009932
v -0.0278796295 -0.0230320593 -0.0736204548
v -0.0278234486 -0.0117745348 -0.0737662621
v -0.0278167252 -0.0117812582 -0.0716480131
v -0.0275747875 -0.0233368965 -0.0756943913
v -0.0274024395 -0.0235092445 -0.0737092991
v -0.0273436073 -0.012254376 -0.0739933176
v -0.0273630241 -0.0122349592 -0.071875226
v -0.0270720581 -0.0238396355 -0.0757753963
v -0.026924229 -0.0239874598 -0.073786356
v -0.0268610386 -0.0127369448 -0.0742084951
v -0.0269065861 -0.0126913925 -0.0720912046
v -0.0265683941 -0.0243432947 -0.0758439846
v -0.0264451412 -0.0244665476 -0.0738515921
v -0.0263758854 -0.013222098 -0.0744117279
v -0.0264475635 -0.0131504198 -0.072295887
v -0.0260639671 -0.0248477217 -0.0759001274
v -0.0259653191 -0.0249463698 -0.0739049978
v -0.0258883003 -0.013709683 -0.0746029587
v -0.025986071 -0.0136119076 -0.0724892063
v -0.0255589203 -0.0253527685 -0.0759438105
v -0.0255222706 -0.014075708 -0.0726711054
v -0.0254849056 -0.0254267784 -0.0739465542
v -0.0253984264 -0.0141995522 -0.0747821255
v -0.0250534157 -0.0258582731 -0.0759750242
v -0.025004063 -0.0259076305 -0.0739762421
v -0.0250562958 -0.0145416828 -0.0728415318
v -0.0249064163 -0.0146915623 -0.0749491711
v -0.0245475964 -0.0263640877 -0.0759937544
v -0.0245229153 -0.0263887688 -0.0739940615
v -0.0245882896 -0.015009689 -0.073000433
v -0.0244124226 -0.015185556 -0.0751040525
v -0.024041634 -0.0268700596 -0.076000001
v -0.024041634 -0.0268700596 -0.0739999981
v -0.0241183952 -0.0154795881 -0.0731477566
v -0.0239165882 -0.0156813856 -0.0752467127
v -0.0235356621 -0.0273760267 -0.0759937544
v -0.0235603432 -0.0273513456 -0.0739940615
v -0.0236467461 -0.0159512325 -0.0732834597
v -0.0234190754 -0.0161789032 -0.0753771181
v -0.0230298428 -0.0278818413 -0.0759750242
v -0.0230792049 -0.0278324886 -0.0739762421
v -0.0231735043 -0.0164244791 -0.0734075041
v -0.0229200272 -0.0166779514 -0.0754952211
v -0.0225243381 -0.0283873507 -0.0759438105
v -0.0225983528 -0.028313336 -0.0739465542
v -0.0226987938 -0.0168991848 -0.0735198469
v -0.0224195961 -0.0171783825 -0.0756009932
v -0.0220192913 -0.0288923927 -0.0759001274
v -0.0221179489 -0.0287937447 -0.0739049978
v -0.0222227768 -0.0173752018 -0.0736204548
v -0.0219179348 -0.0176800438 -0.0756943913
v -0.0215148643 -0.0293968245 -0.0758439846
v -0.0216381267 -0.0292735668 -0.0738515921
v -0.0217455868 -0.0178523918 -0.0737092991
v -0.0212673763 -0.018330607 -0.073786356
v -0.0214151958 -0.018182778 -0.0757753963
v -0.0210112099 -0.0299004837 -0.0757753963
v -0.0211590294 -0.0297526547 -0.073786356
v -0.0207882885 -0.0188096949 -0.0738515921
v -0.0209115414 -0.0186864372 -0.0758439846
v -0.0205084709 -0.0304032179 -0.0756943913
v -0.0206808189 -0.0302308699 -0.0737092991
v -0.0203084663 -0.019289517 -0.0739049978
v -0.0204071144 -0.019190869 -0.0759001274
v -0.0200068096 -0.0309048792 -0.0756009932
v -0.0202036289 -0.0307080551 -0.0736204548
v -0.0198280529 -0.0197699257 -0.0739465542
v -0.0199020676 -0.019695911 -0.0759438105
v -0.0195063785 -0.0314053103 -0.0754952211
v -0.0197276119 -0.0311840769 -0.0735198469
v -0.0192529015 -0.0316587826 -0.0734075041
v -0.0193472008 -0.0202507731 -0.0739762421
v -0.019396563 -0.0202014204 -0.0759750242
v -0.0190073303 -0.0319043585 -0.0753771181
v -0.0187796596 -0.0321320292 -0.0732834597
v -0.0188907436 -0.020707235 -0.0759937544
v -0.0188660625 -0.0207319161 -0.0739940615
v -0.0185098175 -0.0324018713 -0.0752467127
v -0.01830802 -0.0326036736 -0.0731477566
v -0.0183847717 -0.0212132021 -0.076000001
v -0.0183847717 -0.0212132021 -0.0739999981
v -0.0180139831 -0.0328977057 -0.0751040525
v -0.0178381161 -0.033073568 -0.073000433
v -0.0178788093 -0.021719174 -0.0759937544
v -0.0179034904 -0.0216944929 -0.0739940615
v -0.0175199894 -0.0333916994 -0.0749491711
v -0.0173701099 -0.0335415789 -0.0728415318
v -0.01737299 -0.0222249886 -0.0759750242
v -0.0174223427 -0.0221756311 -0.0739762421
v -0.0170279793 -0.0338837048 -0.0747821255
v -0.0169041351 -0.0340075537 -0.0726711054
v -0.0168674854 -0.0227304932 -0.0759438105
v -0.0169415001 -0.0226564785 -0.0739465542
v -0.0165381054 -0.0343735787 -0.0746029587
v -0.0164403347 -0.0344713541 -0.0724892063
v -0.0163624386 -0.02323554 -0.0759001274
v -0.0164610866 -0.0231368872 -0.0739049978
v -0.0160505203 -0.0348611637 -0.0744117279
v -0.0159788517 -0.0349328419 -0.072295887
v -0.0158580116 -0.023739967 -0.0758439846
v -0.0159812645 -0.0236167093 -0.0738515921
v -0.0155653767 -0.0353463169 -0.0742084951
v -0.0155198196 -0.0353918692 -0.0720912046
v -0.0155021767 -0.0240958019 -0.073786356
v -0.0153543476 -0.0242436262 -0.0757753963
v -0.0150827984 -0.0358288857 -0.0739933176
v -0.0150633816 -0.0358483025 -0.071875226
v -0.0150239662 -0.0245740124 -0.0737092991
v -0.0148516182 -0.0247463652 -0.0756943913
v -0.0146029571 -0.0363087269 -0.0737662621
v -0.0146096806 -0.0363020035 -0.0716480131
v -0.0145467762 -0.0250512024 -0.0736204548
v -0.0143499569 -0.0252480217 -0.0756009932
v -0.014125996 -0.0367856928 -0.0735273952
v -0.0141588596 -0.0367528292 -0.0714096375
v -0.0140707592 -0.0255272242 -0.0735198469
v -0.0138495258 -0.0257484528 -0.0754952211
v -0.0136520485 -0.0372596403 -0.0732767982
v -0.0137110428 -0.037200646 -0.0711601706
v -0.0135960487 -0.0260019299 -0.0734075041
v -0.0132663731 -0.0376453157 -0.0708996887
v -0.0133504776 -0.0262475058 -0.0753771181
v -0.0131812672 -0.0377304169 -0.0730145378
v -0.0131228069 -0.0264751764 -0.0732834597
v -0.012824984 -0.0380867001 -0.070628273
v -0.0128529648 -0.0267450186 -0.0752467127
v -0.0127137951 -0.0381978937 -0.0727406998
v -0.0126511578 -0.0269468161 -0.0731477566
v -0.0123870186 -0.0385246702 -0.0703460045
v -0.0123571304 -0.0272408482 -0.0751040525
v -0.0122497753 -0.0386619135 -0.0724553652
v -0.0121812633 -0.0274167152 -0.073000433
v -0.0117893413 -0.0391223427 -0.0721586199
v -0.0119526009 -0.0389590903 -0.070052969
v -0.0118631367 -0.0277348467 -0.0749491711
v -0.0115218643 -0.0393898293 -0.0697492523
v -0.0117132572 -0.0278847214 -0.0728415318
v -0.0113326458 -0.0395790406 -0.0718505545
v -0.0113711265 -0.028226852 -0.0747821255
v -0.0110949329 -0.0398167511 -0.0694349546
v -0.0112472824 -0.028350701 -0.0726711054
v -0.0108798222 -0.040031869 -0.0715312691
v -0.010783482 -0.0288145014 -0.0724892063
v -0.0108812527 -0.0287167259 -0.0746029587
v -0.0106719593 -0.0402397319 -0.0691101665
v -0.0102530483 -0.0406586405 -0.0687749929
v -0.0104310039 -0.0404806849 -0.0712008495
v -0.0103219894 -0.0292759844 -0.072295887
v -0.0103936676 -0.029204311 -0.0744117279
v -0.00983834304 -0.0410733481 -0.0684295244
v -0.00998633422 -0.040925357 -0.0708594103
v -0.0099085144 -0.0296894642 -0.0742084951
v -0.00986296691 -0.0297350164 -0.0720912046
v -0.00954593696 -0.0413657471 -0.0705070419
v -0.00942795791 -0.0414837285 -0.0680738754
v -0.00942594566 -0.0301720329 -0.0739933176
v -0.00940652885 -0.0301914497 -0.071875226
v -0.00910996475 -0.0418017217 -0.0701438589
v -0.00902202644 -0.0418896576 -0.0677081509
v -0.00894610442 -0.0306518742 -0.0737662621
v -0.00895282783 -0.0306451508 -0.0716480131
v -0.0086206726 -0.0422910114 -0.0673324652
v -0.00867854156 -0.0422331472 -0.0697699709
v -0.00850200691 -0.0310959765 -0.0714096375
v -0.00825179137 -0.0426598927 -0.0693854923
v -0.00846914329 -0.0311288401 -0.0735273952
v -0.00822402038 -0.0426876684 -0.0669469304
v -0.00805419006 -0.0315437933 -0.0711601706
v -0.00782985725 -0.0430818316 -0.0689905424
v -0.00783218421 -0.0430795094 -0.0665516634
v -0.00799519576 -0.0316027828 -0.0732767982
v -0.00752441444 -0.0320735642 -0.0730145378
v -0.00760952033 -0.0319884583 -0.0708996887
v -0.00741286315 -0.043498828 -0.0685852356
v -0.00744527854 -0.0434664103 -0.0661467857
v -0.00700092353 -0.0439107629 -0.0681696959
v -0.00706343688 -0.0438482543 -0.065732419
v -0.00705694236 -0.0325410362 -0.0727406998
v -0.00716813125 -0.0324298473 -0.070628273
v -0.00659418144 -0.044317505 -0.0677440567
v -0.0066867546 -0.0442249294 -0.065308692
v -0.00659292259 -0.0330050608 -0.0724553652
v -0.00673016586 -0.0328678175 -0.0703460045
v -0.00631537475 -0.0445963164 -0.0648757334
v -0.00629573859 -0.0333022352 -0.070052969
v -0.00619275131 -0.0447189327 -0.0673084421
v -0.00613248863 -0.03346549 -0.0721586199
v -0.00579676666 -0.0451149221 -0.0668629856
v -0.00594938316 -0.0449623056 -0.0644336743
v -0.00586500205 -0.0337329718 -0.0697492523
v -0.0055889038 -0.0453227826 -0.0639826484
v -0.00567579307 -0.0339221855 -0.0718505545
v -0.00540633239 -0.0455053564 -0.0664078231
v -0.00543808021 -0.0341598984 -0.0694349546
v -0.00502157249 -0.0458901139 -0.0659430928
v -0.00523405113 -0.0456776377 -0.0635227938
v -0.00501509704 -0.0345828768 -0.0691101665
v -0.00522296943 -0.0343750139 -0.0715312691
v -0.00488492049 -0.0460267659 -0.0630542512
v -0.00477415122 -0.0348238321 -0.0712008495
v -0.00464261092 -0.0462690755 -0.0654689379
v -0.00454162635 -0.0463700577 -0.0625771637
v -0.0045961956 -0.0350017878 -0.0687749929
v -0.00426956214 -0.046642129 -0.0649855013
v -0.0043294815 -0.0352685019 -0.0708594103
v -0.00420428314 -0.0467074104 -0.0620916767
v -0.00418149032 -0.035416493 -0.0684295244
v -0.00390253104 -0.0470091601 -0.0644929309
v -0.00387296714 -0.0470387193 -0.0615979357
v -0.00377110519 -0.0358268734 -0.0680738754
v -0.00388908424 -0.0357088944 -0.0705070419
v -0.00354163207 -0.0473700567 -0.0639913769
v -0.00354780235 -0.0473638841 -0.0610960932
v -0.00345311202 -0.0361448666 -0.0701438589
v -0.00336517371 -0.0362328049 -0.0677081509
v -0.00318697967 -0.0477247091 -0.0634809942
v -0.00322888412 -0.0476828071 -0.0605863018
v -0.00302168884 -0.0365762945 -0.0697699709
v -0.00283867873 -0.0480730101 -0.0629619331
v -0.00291629829 -0.0479953905 -0.0600687165
v -0.00296381988 -0.0366341587 -0.0673324652
v -0.00261014976 -0.048301539 -0.0595434947
v -0.00259493865 -0.0370030399 -0.0693854923
v -0.00256716766 -0.0370308157 -0.0669469304
v -0.00231052436 -0.0486011597 -0.0590107985
v -0.00249683418 -0.0484148499 -0.0624343557
v -0.00216156043 -0.0487501284 -0.0618984194
v -0.002017527 -0.0488941594 -0.0584707851
v -0.00217300452 -0.0374249741 -0.0689905424
v -0.00217532195 -0.0374226519 -0.0665516634
v -0.00183294334 -0.0490787407 -0.061354291
v -0.00175600089 -0.0378419729 -0.0685852356
v -0.00178842582 -0.0378095575 -0.0661467857
v -0.00151109733 -0.0494005891 -0.060802135
v -0.00173123397 -0.0491804524 -0.057923624
v -0.00145174064 -0.0494599482 -0.057369482
v -0.00134407081 -0.0382539078 -0.0681696959
v -0.00140657462 -0.0381913992 -0.065732419
v -0.00119610824 -0.0497155758 -0.0602421207
v -0.0011791233 -0.0497325631 -0.0568085237
v -0.00102990665 -0.0385680767 -0.065308692
v -0.00088808574 -0.0500236007 -0.0596744151
v -0.00091347255 -0.0499982139 -0.0562409229
v -0.000937328713 -0.0386606499 -0.0677440567
v -0.000587110894 -0.0503245755 -0.0590991945
v -0.000654869454 -0.0502568194 -0.0556668515
v -0.000535903352 -0.0390620776 -0.0673084421
v -0.000658517258 -0.0389394637 -0.0648757334
v -0.000293283837 -0.050618405 -0.058516633
v -0.000403385537 -0.0505083009 -0.0550864859
v -0.000292530434 -0.0393054505 -0.0644336743
v -6.69039993e-06 -0.0509049984 -0.0579269094
v -0.000159106629 -0.0507525822 -0.0545
v -0.000139909165 -0.0394580694 -0.0668629856
v 7.79005119e-05 -0.0509895893 -0.0539075751
v 6.79489204e-05 -0.0396659275 -0.0639826484
v 0.000272583587 -0.0511842724 -0.0573302002
v 0.000307559592 -0.0512192484 -0.0533093901
v 0.000422806365 -0.040020785 -0.0635227938
v 0.000250520332 -0.0398485013 -0.0664078231
v 0.000744561774 -0.0516562482 -0.0520964737
v 0.000544452293 -0.0514561411 -0.0567266889
v 0.000529803855 -0.0514414903 -0.0527056284
v 0.000635280235 -0.0402332588 -0.0659430928
v 0.000951766593 -0.0518634554 -0.0514821119
v 0.000808829887 -0.0517205187 -0.0561165614
v 0.000771932227 -0.0403699108 -0.0630542512
v 0.00115136109 -0.0520630499 -0.0508627291
v 0.00106564007 -0.0519773265 -0.055499999
v 0.0010142418 -0.0406122228 -0.0654689379
v 0.0011152216 -0.0407132026 -0.0625771637
v 0.00134328328 -0.0522549721 -0.0502385135
v 0.0013148018 -0.0522264882 -0.0548771949
v 0.00145257436 -0.0410505553 -0.0620916767
v 0.00138729535 -0.0409852763 -0.0649855013
v 0.00170387231 -0.0526155587 -0.0489763494
v 0.00155623875 -0.0524679252 -0.0542483349
v 0.00152747117 -0.05243916 -0.0496096582
v 0.00187242947 -0.0527841159 -0.0483387847
v 0.00178987466 -0.0527015658 -0.0536136098
v 0.00175432645 -0.0413523074 -0.0644929309
v 0.00178388558 -0.0413818642 -0.0615979357
v 0.00223348103 -0.0531451698 -0.0523273487
v 0.00218581162 -0.0530975004 -0.0470516629
v 0.00201564751 -0.0529273363 -0.0529732175
v 0.00203309022 -0.052944779 -0.0476971574
v 0.00211522542 -0.041713204 -0.0639913769
v 0.00210905038 -0.0417070314 -0.0610960932
v 0.00244331322 -0.0533549996 -0.0516762013
v 0.00246724091 -0.0533789297 -0.0457498569
v 0.00233054124 -0.05324223 -0.0464024968
v 0.00246987782 -0.0420678564 -0.0634809942
v 0.00242797337 -0.0420259543 -0.0605863018
v 0.00264507256 -0.0535567614 -0.0510199757
v 0.00259586297 -0.0535075542 -0.0450939424
v 0.00271637402 -0.0536280628 -0.0444349535
v 0.0027405592 -0.0423385378 -0.0600687165
v 0.0028387066 -0.0537503954 -0.0503588696
v 0.00293290578 -0.0538445946 -0.0431085558
v 0.00282873116 -0.0537404224 -0.0437730916
v 0.00281817399 -0.042416155 -0.0629619331
v 0.00320135556 -0.054113042 -0.0490228267
v 0.00311657391 -0.0540282627 -0.0417722793
v 0.00319601498 -0.0541077014 -0.0411009438
v 0.00302415333 -0.0539358398 -0.0496930857
v 0.00302886449 -0.0539405509 -0.0424415512
v 0.00316001855 -0.0427579971 -0.0624343557
v 0.00304670773 -0.0426446863 -0.0595434947
v 0.00337025605 -0.0542819449 -0.0483482952
v 0.00338446103 -0.0542961522 -0.0390766103
v 0.00343059502 -0.0543422838 -0.0383990736
v 0.00346835576 -0.0543800446 -0.0377205021
v 0.00349773846 -0.0544094297 -0.0370411022
v 0.00326715432 -0.0541788431 -0.0404277511
v 0.00332997761 -0.0542416664 -0.0397529049
v 0.00349529229 -0.0430932733 -0.0618984194
v 0.00334632359 -0.0429443046 -0.0590107985
v 0.00368296109 -0.0545946499 -0.0469872398
v 0.00353080712 -0.0544424959 -0.0476696963
v 0.0035187336 -0.0544304224 -0.0363610805
v 0.00353133164 -0.0544430228 -0.035680644
v 0.00353553258 -0.0544472214 -0.0350000001
v 0.00363932572 -0.0432373067 -0.0584707851
v 0.00396189175 -0.0548735782 -0.0456115813
v 0.00382667027 -0.0547383591 -0.046301132
v 0.00392561875 -0.0435235973 -0.057923624
v 0.00382390938 -0.043421888 -0.061354291
v 0.00408857785 -0.055000269 -0.0449187977
v 0.00420669995 -0.0551183888 -0.0442229934
v 0.00420511208 -0.0438030931 -0.057369482
v 0.00414575539 -0.0437437364 -0.060802135
v 0.00441709481 -0.0553287836 -0.0428231688
v 0.00431621514 -0.0552279039 -0.0435243793
v 0.00446073971 -0.0440587207 -0.0602421207
v 0.00447772942 -0.044075708 -0.0568085237
v 0.00459281407 -0.0555045029 -0.0414138134
v 0.00466760598 -0.0555792948 -0.0407060976
v 0.00473364793 -0.0556453391 -0.0399966426
v 0.00450930558 -0.055420992 -0.0421195753
v 0.00474338017 -0.0443413588 -0.0562409229
v 0.00483942471 -0.0557511159 -0.038573385
v 0.00487912617 -0.055790815 -0.0378600152
v 0.00491001569 -0.0558217045 -0.0371457739
v 0.00493208848 -0.0558437749 -0.0364308794
v 0.00494533025 -0.055857019 -0.0357155485
v 0.00494974576 -0.0558614346 -0.0350000001
v 0.00479093037 -0.0557026168 -0.0392856665
v 0.00476876698 -0.044366748 -0.0596744151
v 0.00506974183 -0.0446677204 -0.0590991945
v 0.00500198327 -0.0445999642 -0.0556668515
v 0.00549775086 -0.0450957295 -0.0545
v 0.00536356889 -0.0449615499 -0.058516633
v 0.00525346719 -0.0448514482 -0.0550864859
v 0.00573475323 -0.0453327342 -0.0539075751
v 0.00565016709 -0.0452481457 -0.0579269094
v 0.00592944108 -0.0455274197 -0.0573302002
v 0.00596441231 -0.0455623933 -0.0533093901
v 0.00620130501 -0.045799286 -0.0567266889
v 0.00618665658 -0.0457846376 -0.0527056284
v 0.00646568261 -0.0460636636 -0.0561165614
v 0.0064014145 -0.0459993955 -0.0520964737
v 0.0067224928 -0.0463204738 -0.055499999
v 0.00660862408 -0.0462066027 -0.0514821119
v 0.00697165452 -0.0465696331 -0.0548771949
v 0.00680821858 -0.0464061972 -0.0508627291
v 0.00721309148 -0.0468110701 -0.0542483349
v 0.00718432389 -0.0467823049 -0.0496096582
v 0.007000136 -0.046598117 -0.0502385135
v 0.00744673215 -0.0470447107 -0.0536136098
v 0.00736072503 -0.0469587036 -0.0489763494
v 0.00767250024 -0.0472704812 -0.0529732175
v 0.00768994294 -0.0472879239 -0.0476971574
v 0.0075292822 -0.0471272608 -0.0483387847
v 0.00798739873 -0.0475853773 -0.0464024968
v 0.00789033375 -0.0474883147 -0.0523273487
v 0.00784266434 -0.0474406453 -0.0470516629
v 0.00810016595 -0.0476981445 -0.0516762013
v 0.00812409363 -0.0477220746 -0.0457498569
v 0.00849555932 -0.0480935403 -0.0503588696
v 0.00848558865 -0.0480835672 -0.0437730916
v 0.00830193005 -0.0478999086 -0.0510199757
v 0.00825272046 -0.0478506991 -0.0450939424
v 0.00837322674 -0.0479712077 -0.0444349535
v 0.00868100606 -0.048278987 -0.0496930857
v 0.00868571721 -0.0482836982 -0.0424415512
v 0.00858976327 -0.0481877419 -0.0431085558
v 0.00892400704 -0.048521988 -0.0404277511
v 0.00898683034 -0.0485848113 -0.0397529049
v 0.00885820828 -0.0484561869 -0.0490228267
v 0.0087734314 -0.04837141 -0.0417722793
v 0.00885286771 -0.0484508463 -0.0411009438
v 0.00918766461 -0.0487856432 -0.0476696963
v 0.00915459595 -0.0487525745 -0.0370411022
v 0.00917559109 -0.0487735697 -0.0363610805
v 0.00918818913 -0.0487861677 -0.035680644
v 0.00919239007 -0.0487903687 -0.0350000001
v 0.00902710877 -0.0486250897 -0.0483482952
v 0.00904131852 -0.0486392971 -0.0390766103
v 0.00908744775 -0.0486854287 -0.0383990736
v 0.00912521325 -0.0487231918 -0.0377205021
v 0.00948352299 -0.049081504 -0.046301132
v 0.00933981858 -0.0489377972 -0.0469872398
v 0.00974543534 -0.0493434139 -0.0449187977
v 0.00961874448 -0.0492167231 -0.0456115813
v 0.00997307263 -0.0495710512 -0.0435243793
v 0.00986355267 -0.0494615336 -0.0442229934
v 0.0101661583 -0.0497641369 -0.0421195753
v 0.0102496716 -0.0498476502 -0.0414138134
v 0.0100739475 -0.0496719285 -0.0428231688
v 0.0104477831 -0.0500457641 -0.0392856665
v 0.0104962822 -0.0500942608 -0.038573385
v 0.0103244587 -0.0499224397 -0.0407060976
v 0.0103905054 -0.049988484 -0.0399966426
v 0.0105359789 -0.0501339599 -0.0378600152
v 0.0105668684 -0.0501648494 -0.0371457739
v 0.0105889412 -0.0501869198 -0.0364308794
v 0.0106021877 -0.0502001663 -0.0357155485
v 0.0106066032 -0.0502045818 -0.0350000001
f 23 2 1
f 2 75 1
f 22 1 9
f 1 74 9
f 23 1 22
f 1 75 74
f 24 3 2
f 3 76 2
f 24 2 23
f 2 76 75
f 25 3 24
f 3 25 76
f 28 5 4
f 5 81 4
f 27 4 12
f 4 80 12
f 28 4 27
f 4 81 80
f 30 6 5
f 6 82 5
f 30 5 28
f 5 82 81
f 31 7 6
f 7 71 6
f 31 6 30
f 6 71 82
f 20 8 7
f 8 72 7
f 20 7 31
f 7 72 71
f 21 9 8
f 9 73 8
f 21 8 20
f 8 73 72
f 22 9 21
f 9 74 73
f 34 11 10
f 11 86 10
f 33 10 14
f 10 85 14
f 34 10 33
f 10 86 85
f 35 12 11
f 12 79 11
f 35 11 34
f 11 79 86
f 27 12 35
f 12 80 79
f 38 14 13
f 14 91 13
f 36 13 16
f 13 90 16
f 38 13 36
f 13 91 90
f 33 14 38
f 14 85 91
f 42 16 15
f 16 89 15
f 40 15 18
f 15 95 18
f 42 15 40
f 15 89 95
f 36 16 42
f 16 90 89
f 45 18 17
f 18 94 17
f 44 17 19
f 17 97 19
f 45 17 44
f 17 94 97
f 40 18 45
f 18 95 94
f 47 19 29
f 19 103 29
f 44 19 47
f 19 97 103
f 104 21 20
f 102 20 31
f 104 20 102
f 105 22 21
f 105 21 104
f 106 23 22
f 106 22 105
f 107 24 23
f 107 23 106
f 108 25 24
f 108 24 107
f 76 25 109
f 109 25 108
f 50 29 26
f 29 100 26
f 49 26 32
f 26 112 32
f 50 26 49
f 26 100 112
f 113 28 27
f 111 27 35
f 113 27 111
f 114 30 28
f 114 28 113
f 47 29 50
f 29 103 100
f 101 31 30
f 101 30 114
f 102 31 101
f 52 32 37
f 32 118 37
f 49 32 52
f 32 112 118
f 119 34 33
f 117 33 38
f 119 33 117
f 120 35 34
f 120 34 119
f 111 35 120
f 125 38 36
f 124 36 42
f 125 36 124
f 54 37 41
f 37 116 41
f 52 37 54
f 37 118 116
f 117 38 125
f 57 41 39
f 41 123 39
f 56 39 43
f 39 129 43
f 57 39 56
f 39 123 129
f 130 42 40
f 128 40 45
f 130 40 128
f 54 41 57
f 41 116 123
f 124 42 130
f 59 43 46
f 43 133 46
f 56 43 59
f 43 129 133
f 134 45 44
f 137 44 47
f 134 44 137
f 128 45 134
f 63 46 48
f 46 136 48
f 59 46 61
f 61 46 63
f 46 133 136
f 135 47 50
f 137 47 135
f 65 48 51
f 48 140 51
f 63 48 65
f 48 136 140
f 141 50 49
f 146 49 52
f 141 49 146
f 135 50 141
f 67 51 53
f 51 145 53
f 65 51 67
f 51 140 145
f 144 52 54
f 146 52 144
f 68 53 55
f 53 149 55
f 67 53 68
f 53 145 149
f 148 54 57
f 144 54 148
f 70 55 58
f 55 151 58
f 68 55 70
f 55 149 151
f 152 57 56
f 156 56 59
f 152 56 156
f 148 57 152
f 78 58 60
f 58 155 60
f 70 58 78
f 58 151 155
f 159 59 61
f 156 59 159
f 84 60 62
f 60 158 62
f 78 60 84
f 60 155 158
f 163 61 63
f 159 61 163
f 88 62 64
f 62 162 64
f 84 62 88
f 62 158 162
f 161 63 65
f 163 63 161
f 93 64 66
f 64 167 66
f 88 64 93
f 64 162 167
f 166 65 67
f 161 65 166
f 96 66 69
f 66 170 69
f 93 66 96
f 66 167 170
f 169 67 68
f 166 67 169
f 174 68 70
f 169 68 174
f 98 69 77
f 69 173 77
f 96 69 98
f 69 170 173
f 176 70 78
f 174 70 176
f 72 104 71
f 71 102 82
f 71 104 102
f 73 105 72
f 72 105 104
f 74 106 73
f 73 106 105
f 75 107 74
f 74 107 106
f 76 108 75
f 75 108 107
f 109 108 76
f 115 77 83
f 77 175 83
f 98 77 115
f 77 173 175
f 182 78 84
f 176 78 182
f 80 113 79
f 79 111 86
f 79 113 111
f 81 114 80
f 80 114 113
f 82 101 81
f 81 101 114
f 82 102 101
f 122 83 87
f 83 181 87
f 115 83 122
f 83 175 181
f 184 84 88
f 182 84 184
f 86 120 85
f 85 119 91
f 85 120 119
f 86 111 120
f 127 87 92
f 87 183 92
f 122 87 127
f 87 181 183
f 188 88 93
f 184 88 188
f 90 125 89
f 89 124 95
f 89 125 124
f 91 117 90
f 90 117 125
f 91 119 117
f 132 92 99
f 92 187 99
f 127 92 132
f 92 183 187
f 192 93 96
f 188 93 192
f 95 130 94
f 94 128 97
f 94 130 128
f 95 124 130
f 193 96 98
f 192 96 193
f 97 134 103
f 97 128 134
f 196 98 115
f 193 98 196
f 139 99 110
f 99 191 110
f 132 99 139
f 99 187 191
f 103 137 100
f 100 135 112
f 100 137 135
f 103 134 137
f 143 110 121
f 110 197 121
f 139 110 143
f 110 191 197
f 112 141 118
f 112 135 141
f 199 115 122
f 196 115 199
f 118 146 116
f 116 144 123
f 116 146 144
f 118 141 146
f 147 121 126
f 121 198 126
f 143 121 147
f 121 197 198
f 204 122 127
f 199 122 204
f 123 148 129
f 123 144 148
f 154 126 131
f 126 203 131
f 147 126 154
f 126 198 203
f 207 127 132
f 204 127 207
f 129 152 133
f 129 148 152
f 157 131 138
f 131 206 138
f 154 131 157
f 131 203 206
f 211 132 139
f 207 132 211
f 133 156 136
f 133 152 156
f 136 163 140
f 136 156 159
f 136 159 163
f 165 138 142
f 138 210 142
f 157 138 165
f 138 206 210
f 215 139 143
f 211 139 215
f 140 161 145
f 140 163 161
f 168 142 150
f 142 214 150
f 165 142 168
f 142 210 214
f 218 143 147
f 215 143 218
f 145 166 149
f 145 161 166
f 220 147 154
f 218 147 220
f 149 169 151
f 149 166 169
f 172 150 153
f 150 217 153
f 168 150 172
f 150 214 217
f 151 174 155
f 151 169 174
f 177 153 160
f 153 222 160
f 172 153 177
f 153 217 222
f 225 154 157
f 220 154 225
f 155 176 158
f 155 174 176
f 228 157 165
f 225 157 228
f 158 182 162
f 158 176 182
f 180 160 164
f 160 224 164
f 177 160 180
f 160 222 224
f 162 184 167
f 162 182 184
f 185 164 171
f 164 230 171
f 180 164 185
f 164 224 230
f 232 165 168
f 228 165 232
f 167 188 170
f 167 184 188
f 235 168 172
f 232 168 235
f 170 192 173
f 170 188 192
f 190 171 178
f 171 234 178
f 185 171 190
f 171 230 234
f 239 172 177
f 235 172 239
f 173 193 175
f 173 192 193
f 175 196 181
f 175 193 196
f 243 177 180
f 239 177 243
f 201 178 179
f 178 237 179
f 190 178 195
f 195 178 201
f 178 234 237
f 202 179 186
f 179 242 186
f 201 179 202
f 179 237 242
f 247 180 185
f 243 180 247
f 181 199 183
f 181 196 199
f 183 204 187
f 183 199 204
f 249 185 190
f 247 185 249
f 209 186 189
f 186 244 189
f 202 186 209
f 186 242 244
f 187 207 191
f 187 204 207
f 213 189 194
f 189 248 194
f 209 189 213
f 189 244 248
f 253 190 195
f 249 190 253
f 191 211 197
f 191 207 211
f 216 194 200
f 194 252 200
f 213 194 216
f 194 248 252
f 256 195 201
f 253 195 256
f 197 215 198
f 197 211 215
f 198 218 203
f 198 215 218
f 221 200 205
f 200 257 205
f 216 200 221
f 200 252 257
f 261 201 202
f 256 201 261
f 265 202 209
f 261 202 265
f 203 220 206
f 203 218 220
f 227 205 208
f 205 260 208
f 221 205 227
f 205 257 260
f 206 225 210
f 206 220 225
f 229 208 212
f 208 264 212
f 227 208 229
f 208 260 264
f 268 209 213
f 265 209 268
f 210 228 214
f 210 225 228
f 233 212 219
f 212 269 219
f 229 212 233
f 212 264 269
f 272 213 216
f 268 213 272
f 214 232 217
f 214 228 232
f 273 216 221
f 272 216 273
f 217 235 222
f 217 232 235
f 238 219 223
f 219 274 223
f 233 219 238
f 219 269 274
f 278 221 227
f 273 221 278
f 222 239 224
f 222 235 239
f 241 223 226
f 223 277 226
f 238 223 241
f 223 274 277
f 224 243 230
f 224 239 243
f 246 226 231
f 226 281 231
f 241 226 246
f 226 277 281
f 282 227 229
f 278 227 282
f 286 229 233
f 282 229 286
f 230 247 234
f 230 243 247
f 250 231 236
f 231 285 236
f 246 231 250
f 231 281 285
f 289 233 238
f 286 233 289
f 234 249 237
f 234 247 249
f 255 236 240
f 236 290 240
f 250 236 255
f 236 285 290
f 237 256 242
f 237 249 253
f 237 253 256
f 294 238 241
f 289 238 294
f 259 240 245
f 240 293 245
f 255 240 259
f 240 290 293
f 298 241 246
f 294 241 298
f 242 261 244
f 242 256 261
f 244 265 248
f 244 261 265
f 263 245 251
f 245 297 251
f 259 245 263
f 245 293 297
f 302 246 250
f 298 246 302
f 248 268 252
f 248 265 268
f 305 250 255
f 302 250 305
f 267 251 254
f 251 300 254
f 263 251 267
f 251 297 300
f 252 272 257
f 252 268 272
f 267 254 258
f 254 304 258
f 254 300 304
f 309 255 259
f 305 255 309
f 257 273 260
f 257 272 273
f 271 258 262
f 258 308 262
f 267 258 271
f 258 304 308
f 313 259 263
f 309 259 313
f 260 278 264
f 260 273 278
f 276 262 266
f 262 312 266
f 271 262 276
f 262 308 312
f 317 263 267
f 313 263 317
f 264 282 269
f 264 278 282
f 280 266 270
f 266 316 270
f 276 266 280
f 266 312 316
f 321 267 271
f 317 267 321
f 269 286 274
f 269 282 286
f 284 270 275
f 270 320 275
f 280 270 284
f 270 316 320
f 325 271 276
f 321 271 325
f 274 289 277
f 274 286 289
f 288 275 279
f 275 324 279
f 284 275 288
f 275 320 324
f 327 276 280
f 325 276 327
f 277 294 281
f 277 289 294
f 291 279 283
f 279 329 283
f 288 279 291
f 279 324 329
f 332 280 284
f 327 280 332
f 281 298 285
f 281 294 298
f 295 283 287
f 283 333 287
f 291 283 295
f 283 329 333
f 336 284 288
f 332 284 336
f 285 302 290
f 285 298 302
f 299 287 292
f 287 337 292
f 295 287 299
f 287 333 337
f 340 288 291
f 336 288 340
f 290 305 293
f 290 302 305
f 344 291 295
f 340 291 344
f 303 292 296
f 292 341 296
f 299 292 303
f 292 337 341
f 293 309 297
f 293 305 309
f 348 295 299
f 344 295 348
f 307 296 301
f 296 345 301
f 303 296 307
f 296 341 345
f 297 313 300
f 297 309 313
f 352 299 303
f 348 299 352
f 300 317 304
f 300 313 317
f 311 301 306
f 301 349 306
f 307 301 311
f 301 345 349
f 356 303 307
f 352 303 356
f 304 317 308
f 311 306 310
f 306 353 310
f 306 349 353
f 360 307 311
f 356 307 360
f 308 321 312
f 308 317 321
f 311 310 315
f 315 310 314
f 310 357 314
f 310 353 357
f 361 311 315
f 360 311 361
f 312 325 316
f 312 321 325
f 315 314 319
f 319 314 318
f 314 362 318
f 314 357 362
f 365 315 319
f 361 315 365
f 316 327 320
f 316 325 327
f 319 318 323
f 323 318 322
f 318 366 322
f 318 362 366
f 369 319 323
f 365 319 369
f 320 332 324
f 320 327 332
f 323 322 328
f 328 322 326
f 322 370 326
f 322 366 370
f 373 323 328
f 369 323 373
f 324 336 329
f 324 332 336
f 328 326 331
f 331 326 330
f 326 374 330
f 326 370 374
f 378 328 331
f 373 328 378
f 329 340 333
f 329 336 340
f 331 330 335
f 335 330 334
f 330 379 334
f 330 374 379
f 383 331 335
f 378 331 383
f 333 344 337
f 333 340 344
f 335 334 339
f 339 334 338
f 334 382 338
f 334 379 382
f 387 335 339
f 383 335 387
f 337 348 341
f 337 344 348
f 339 338 342
f 338 386 342
f 338 382 386
f 339 342 343
f 391 339 343
f 387 339 391
f 341 352 345
f 341 348 352
f 343 342 346
f 342 390 346
f 342 386 390
f 343 346 347
f 395 343 347
f 391 343 395
f 345 356 349
f 345 352 356
f 347 346 350
f 346 394 350
f 346 390 394
f 347 350 351
f 399 347 351
f 395 347 399
f 349 360 353
f 349 356 360
f 351 350 354
f 350 398 354
f 350 394 398
f 351 354 355
f 403 351 355
f 399 351 403
f 353 360 357
f 355 354 358
f 354 402 358
f 354 398 402
f 355 358 359
f 407 355 359
f 403 355 407
f 357 360 361
f 357 361 362
f 359 358 363
f 358 406 363
f 358 402 406
f 359 363 364
f 410 359 364
f 407 359 410
f 362 361 365
f 362 365 366
f 364 363 367
f 363 411 367
f 363 406 411
f 364 367 368
f 414 364 368
f 410 364 414
f 366 365 369
f 366 369 370
f 368 367 371
f 367 415 371
f 367 411 415
f 368 371 375
f 368 375 372
f 418 368 372
f 414 368 418
f 370 369 373
f 370 373 374
f 371 419 375
f 371 415 419
f 372 375 380
f 372 380 376
f 422 372 376
f 418 372 422
f 374 373 378
f 374 378 379
f 375 423 380
f 375 419 423
f 376 384 377
f 426 376 377
f 376 380 384
f 422 376 426
f 377 388 381
f 430 377 381
f 377 384 388
f 426 377 430
f 379 378 383
f 379 383 382
f 380 428 384
f 380 423 428
f 381 392 385
f 434 381 385
f 381 388 392
f 430 381 434
f 382 383 387
f 382 387 386
f 384 432 388
f 384 428 432
f 385 396 389
f 438 385 389
f 385 392 396
f 434 385 438
f 386 387 390
f 390 387 391
f 388 436 392
f 388 432 436
f 389 400 393
f 443 389 393
f 389 396 400
f 438 389 443
f 390 391 394
f 394 391 395
f 392 441 396
f 392 436 441
f 393 404 397
f 447 393 397
f 393 400 404
f 443 393 447
f 394 395 398
f 398 395 399
f 396 445 400
f 396 441 445
f 397 408 401
f 449 397 401
f 397 404 408
f 447 397 449
f 398 399 402
f 402 399 403
f 400 450 404
f 400 445 450
f 401 412 405
f 454 401 405
f 401 408 412
f 449 401 454
f 402 403 406
f 406 403 407
f 404 455 408
f 404 450 455
f 405 416 409
f 459 405 409
f 405 412 416
f 454 405 459
f 406 407 411
f 411 407 410
f 408 458 412
f 408 455 458
f 409 424 413
f 463 409 413
f 409 416 420
f 409 420 424
f 459 409 463
f 411 410 415
f 415 410 414
f 412 462 416
f 412 458 462
f 413 429 417
f 467 413 417
f 413 424 429
f 463 413 467
f 415 414 419
f 423 414 418
f 419 414 423
f 416 466 420
f 416 462 466
f 417 433 421
f 470 417 421
f 417 429 433
f 467 417 470
f 428 418 422
f 423 418 428
f 420 472 424
f 420 466 472
f 421 437 425
f 474 421 425
f 421 433 437
f 470 421 474
f 432 422 426
f 428 422 432
f 424 477 429
f 424 472 477
f 425 439 427
f 479 425 427
f 425 437 439
f 474 425 479
f 436 426 430
f 432 426 436
f 427 444 431
f 485 427 431
f 427 439 444
f 479 427 485
f 429 478 433
f 429 477 478
f 441 430 434
f 436 430 441
f 431 448 435
f 489 431 435
f 431 444 448
f 485 431 489
f 433 484 437
f 433 478 484
f 445 434 438
f 441 434 445
f 435 453 440
f 491 435 440
f 435 448 453
f 489 435 491
f 437 488 439
f 437 484 488
f 450 438 443
f 445 438 450
f 439 493 444
f 439 488 493
f 440 457 442
f 496 440 442
f 440 453 457
f 491 440 496
f 442 460 446
f 500 442 446
f 442 457 460
f 496 442 500
f 455 443 447
f 450 443 455
f 444 498 448
f 444 493 498
f 446 464 451
f 503 446 451
f 446 460 464
f 500 446 503
f 458 447 449
f 455 447 458
f 448 504 453
f 448 498 504
f 462 449 454
f 458 449 462
f 451 469 452
f 509 451 452
f 451 464 469
f 503 451 509
f 452 471 456
f 513 452 456
f 452 469 471
f 509 452 513
f 453 506 457
f 453 504 506
f 466 454 459
f 462 454 466
f 456 475 461
f 516 456 461
f 456 471 475
f 513 456 516
f 457 511 460
f 457 506 511
f 477 459 463
f 466 459 472
f 472 459 477
f 460 517 464
f 460 511 517
f 461 480 465
f 521 461 465
f 461 475 480
f 516 461 521
f 478 463 467
f 477 463 478
f 464 520 469
f 464 517 520
f 465 482 468
f 527 465 468
f 465 480 482
f 521 465 527
f 484 467 470
f 478 467 484
f 468 486 473
f 530 468 473
f 468 482 486
f 527 468 530
f 469 524 471
f 469 520 524
f 488 470 474
f 484 470 488
f 471 529 475
f 471 524 529
f 473 486 476
f 536 473 476
f 530 473 536
f 493 474 479
f 488 474 493
f 475 535 480
f 475 529 535
f 476 492 481
f 539 476 481
f 476 486 492
f 536 476 539
f 498 479 485
f 493 479 498
f 480 538 482
f 480 535 538
f 481 494 483
f 544 481 483
f 481 492 494
f 539 481 544
f 482 543 486
f 482 538 543
f 483 499 487
f 547 483 487
f 483 494 499
f 544 483 547
f 504 485 489
f 498 485 504
f 486 550 492
f 486 543 550
f 487 501 490
f 554 487 490
f 487 499 501
f 547 487 554
f 506 489 491
f 504 489 506
f 490 507 495
f 557 490 495
f 490 501 507
f 554 490 557
f 511 491 496
f 506 491 511
f 492 553 494
f 492 550 553
f 494 560 499
f 494 553 560
f 495 510 497
f 562 495 497
f 495 507 510
f 557 495 562
f 517 496 500
f 511 496 517
f 497 514 502
f 565 497 502
f 497 510 514
f 562 497 565
f 499 566 501
f 499 560 566
f 520 500 503
f 517 500 520
f 501 570 507
f 501 566 570
f 502 518 505
f 573 502 505
f 502 514 518
f 565 502 573
f 524 503 509
f 520 503 524
f 505 522 508
f 577 505 508
f 505 518 522
f 573 505 577
f 507 576 510
f 507 570 576
f 508 525 512
f 580 508 512
f 508 522 525
f 577 508 580
f 529 509 513
f 524 509 529
f 510 581 514
f 510 576 581
f 512 532 515
f 588 512 515
f 512 525 532
f 580 512 588
f 535 513 516
f 529 513 535
f 514 587 518
f 514 581 587
f 515 533 519
f 594 515 519
f 515 532 533
f 588 515 594
f 538 516 521
f 535 516 538
f 518 593 522
f 518 587 593
f 519 537 523
f 599 519 523
f 519 533 537
f 594 519 599
f 543 521 527
f 538 521 543
f 522 598 525
f 522 593 598
f 523 540 526
f 603 523 526
f 523 537 540
f 599 523 603
f 525 607 532
f 525 598 607
f 526 545 528
f 614 526 528
f 526 540 545
f 603 526 614
f 550 527 530
f 543 527 550
f 528 548 531
f 623 528 531
f 528 545 548
f 614 528 623
f 550 530 536
f 531 551 534
f 629 531 534
f 531 548 551
f 623 531 629
f 532 613 533
f 532 607 613
f 533 622 537
f 533 613 622
f 534 555 541
f 632 534 541
f 534 551 555
f 629 534 632
f 553 536 539
f 550 536 553
f 537 633 540
f 537 622 633
f 560 539 544
f 553 539 560
f 540 637 545
f 540 633 637
f 541 558 542
f 636 541 542
f 541 555 558
f 632 541 636
f 542 563 546
f 641 542 546
f 542 558 563
f 636 542 641
f 566 544 547
f 560 544 566
f 545 640 548
f 545 637 640
f 546 568 549
f 646 546 549
f 546 563 568
f 641 546 646
f 570 547 554
f 566 547 570
f 548 654 551
f 548 640 654
f 549 572 552
f 656 549 552
f 549 568 572
f 646 549 656
f 551 655 555
f 551 654 655
f 552 575 556
f 659 552 556
f 552 572 575
f 656 552 659
f 576 554 557
f 570 554 576
f 555 658 558
f 555 655 658
f 556 579 559
f 657 556 559
f 556 575 579
f 659 556 657
f 581 557 562
f 576 557 581
f 558 661 563
f 558 658 661
f 559 583 561
f 660 559 561
f 559 579 583
f 657 559 660
f 561 586 564
f 663 561 564
f 561 583 586
f 660 561 663
f 587 562 565
f 581 562 587
f 563 662 568
f 563 661 662
f 564 591 569
f 665 564 569
f 564 586 591
f 663 564 665
f 593 565 573
f 587 565 593
f 569 591 567
f 667 569 567
f 567 589 571
f 669 567 571
f 567 591 589
f 667 567 669
f 568 664 572
f 568 662 664
f 665 569 667
f 571 595 574
f 671 571 574
f 571 589 595
f 669 571 671
f 572 666 575
f 572 664 666
f 598 573 577
f 593 573 598
f 574 600 578
f 674 574 578
f 574 595 600
f 671 574 674
f 575 668 579
f 575 666 668
f 607 577 580
f 598 577 607
f 578 604 584
f 673 578 584
f 578 600 604
f 674 578 673
f 579 670 583
f 579 668 670
f 613 580 588
f 607 580 613
f 584 611 582
f 676 584 582
f 582 608 585
f 679 582 585
f 582 611 608
f 676 582 679
f 583 672 586
f 583 670 672
f 584 604 611
f 673 584 676
f 585 615 592
f 678 585 592
f 585 608 615
f 679 585 678
f 586 675 591
f 586 672 675
f 622 588 594
f 613 588 622
f 591 677 589
f 589 681 595
f 589 677 681
f 592 625 590
f 682 592 590
f 590 624 597
f 680 590 597
f 590 625 624
f 682 590 680
f 591 675 677
f 592 615 625
f 678 592 682
f 633 594 599
f 622 594 633
f 595 683 600
f 595 681 683
f 597 631 596
f 684 597 596
f 596 630 601
f 688 596 601
f 596 631 630
f 684 596 688
f 597 624 631
f 680 597 684
f 637 599 603
f 633 599 637
f 600 687 604
f 600 683 687
f 601 634 602
f 689 601 602
f 601 630 634
f 688 601 689
f 602 635 606
f 686 602 606
f 602 634 635
f 689 602 686
f 640 603 614
f 637 603 640
f 604 685 611
f 604 687 685
f 606 639 605
f 692 606 605
f 605 638 612
f 691 605 612
f 605 639 638
f 692 605 691
f 606 635 639
f 686 606 692
f 611 690 608
f 608 695 615
f 608 690 695
f 609 642 610
f 697 609 610
f 612 645 609
f 696 612 609
f 609 645 642
f 696 609 697
f 610 643 620
f 693 610 620
f 610 642 643
f 697 610 693
f 611 685 690
f 612 638 645
f 691 612 696
f 654 614 623
f 640 614 654
f 615 703 625
f 615 695 703
f 616 647 617
f 705 616 617
f 621 653 616
f 704 621 616
f 616 653 647
f 704 616 705
f 617 648 618
f 706 617 618
f 617 647 648
f 705 617 706
f 618 649 619
f 699 618 619
f 618 648 649
f 706 618 699
f 619 650 626
f 700 619 626
f 619 649 650
f 699 619 700
f 620 644 621
f 694 620 621
f 620 643 644
f 693 620 694
f 621 644 653
f 694 621 704
f 655 623 629
f 654 623 655
f 625 698 624
f 624 708 631
f 624 698 708
f 625 703 698
f 626 651 627
f 701 626 627
f 626 650 651
f 700 626 701
f 627 652 628
f 702 627 628
f 627 651 652
f 701 627 702
f 652 702 628
f 658 629 632
f 655 629 658
f 631 707 630
f 630 710 634
f 630 707 710
f 631 708 707
f 661 632 636
f 658 632 661
f 634 709 635
f 634 710 709
f 635 712 639
f 635 709 712
f 662 636 641
f 661 636 662
f 639 711 638
f 638 715 645
f 638 711 715
f 639 712 711
f 664 641 646
f 662 641 664
f 642 714 643
f 645 713 642
f 642 713 714
f 643 718 644
f 643 714 718
f 644 719 653
f 644 718 719
f 645 715 713
f 666 646 656
f 664 646 666
f 647 717 648
f 653 716 647
f 647 716 717
f 648 720 649
f 648 717 720
f 649 721 650
f 649 720 721
f 650 722 651
f 650 721 722
f 651 723 652
f 651 722 723
f 724 702 652
f 652 723 724
f 653 719 716
f 668 656 659
f 666 656 668
f 670 659 657
f 672 657 660
f 670 657 672
f 668 659 670
f 675 660 663
f 672 660 675
f 677 663 665
f 675 663 677
f 677 665 667
f 681 667 669
f 677 667 681
f 683 669 671
f 681 669 683
f 687 671 674
f 683 671 687
f 685 674 673
f 690 673 676
f 685 673 690
f 687 674 685
f 695 676 679
f 690 676 695
f 703 679 678
f 698 678 682
f 703 678 698
f 695 679 703
f 708 682 680
f 707 680 684
f 708 680 707
f 698 682 708
f 710 684 688
f 707 684 710
f 712 689 686
f 711 686 692
f 712 686 711
f 709 688 689
f 710 688 709
f 709 689 712
f 715 692 691
f 713 691 696
f 715 691 713
f 711 692 715
f 719 693 694
f 718 697 693
f 718 693 719
f 716 694 704
f 719 694 716
f 714 696 697
f 713 696 714
f 714 697 718
f 722 699 700
f 721 706 699
f 721 699 722
f 723 700 701
f 722 700 723
f 724 701 702
f 723 701 724
f 717 704 705
f 716 704 717
f 720 705 706
f 717 705 720
f 720 706 721
