v -0.0597623634 -0.0539353752 0.00100000001
v -0.05979496 -0.0537996101 0.00300000012
v -0.059825182 -0.0536632919 0.00100000001
v -0.0598530197 -0.053526473 0.00300000012
v -0.0598784637 -0.0533891869 0.00100000001
v -0.0599015045 -0.0532514763 0.00300000012
v -0.0599221468 -0.0531133842 0.00100000001
v -0.0599221468 -0.0531133842 0.00300000012
v -0.0599403715 -0.0529749537 0.00100000001
v -0.0599561739 -0.0528362274 0.00300000012
v -0.0599695587 -0.0526972437 0.00100000001
v -0.0599805117 -0.0525580502 0.00300000012
v -0.0599890375 -0.0524186897 0.00100000001
v -0.0599951267 -0.0522791958 0.00300000012
v -0.0599987793 -0.0521396208 0.00100000001
v -0.0599987793 -0.0521396208 0.00300000012
v -0.06 -0.0519999981 0.00100000001
v -0.0599987793 -0.0518603802 0.00300000012
v -0.0599951267 -0.0517208052 0.00100000001
v -0.0599890375 -0.0515813112 0.00300000012
v -0.0599805117 -0.051441946 0.00100000001
v -0.0599695587 -0.0513027525 0.00300000012
v -0.0599561739 -0.0511637735 0.00100000001
v -0.0599403715 -0.0510250473 0.00300000012
v -0.0599221468 -0.0508866167 0.00100000001
v -0.0599221468 -0.0508866167 0.00300000012
v -0.0599015045 -0.0507485247 0.00100000001
v -0.0598784637 -0.0506108141 0.00300000012
v -0.0598530197 -0.0504735279 0.00100000001
v -0.059825182 -0.0503367043 0.00300000012
v -0.05979496 -0.0502003908 0.00100000001
v -0.0597623634 -0.0500646257 0.00300000012
v -0.0595175409 -0.0547361612 0.00100000001
v -0.059564147 -0.0546045446 0.00300000012
v -0.0596084499 -0.0544721365 0.00100000001
v -0.0596504402 -0.054338975 0.00300000012
v -0.059690094 -0.0542050982 0.00100000001
v -0.0597274065 -0.0540705538 0.00300000012
v -0.0597274065 -0.0499294472 0.00100000001
v -0.059690094 -0.0497949028 0.00300000012
v -0.0596504402 -0.049661026 0.00100000001
v -0.0596084499 -0.0495278645 0.00300000012
v -0.059564147 -0.0493954563 0.00100000001
v -0.0595175409 -0.0492638397 0.00300000012
v -0.0592504644 -0.0553809452 0.00100000001
v -0.059308362 -0.0552538919 0.00300000012
v -0.0593640375 -0.0551258469 0.00100000001
v -0.0593640375 -0.0551258469 0.00300000012
v -0.0594174719 -0.0549968529 0.00100000001
v -0.0594686413 -0.0548669434 0.00300000012
v -0.0594686413 -0.0491330576 0.00100000001
v -0.0594174719 -0.0490031481 0.00300000012
v -0.0593640375 -0.0488741493 0.00100000001
v -0.0593640375 -0.0488741493 0.00300000012
v -0.059308362 -0.048746109 0.00100000001
v -0.0592504644 -0.0486190557 0.00300000012
v -0.0590635824 -0.0557557726 0.00100000001
v -0.0590635824 -0.0557557726 0.00300000012
v -0.0591280508 -0.0556319237 0.00100000001
v -0.0591903543 -0.0555069685 0.00300000012
v -0.0591903543 -0.0484930325 0.00100000001
v -0.0591280508 -0.0483680773 0.00300000012
v -0.0590635824 -0.0482442284 0.00100000001
v -0.0590635824 -0.0482442284 0.00300000012
v -0.0587843847 -0.0562393522 0.00100000001
v -0.058857336 -0.0561203051 0.00300000012
v -0.0589282036 -0.055999999 0.00100000001
v -0.0589969587 -0.0558784771 0.00300000012
v -0.0589969587 -0.0481215239 0.00100000001
v -0.0589282036 -0.0480000019 0.00300000012
v -0.058857336 -0.0478796959 0.00100000001
v -0.0587843847 -0.047760644 0.00300000012
v -0.0585532141 -0.0565886116 0.00100000001
v -0.0585532141 -0.0565886116 0.00300000012
v -0.0586323023 -0.0564735413 0.00100000001
v -0.0587093639 -0.0563571119 0.00300000012
v -0.0587093639 -0.047642889 0.00100000001
v -0.0586323023 -0.0475264549 0.00300000012
v -0.0585532141 -0.0474113894 0.00100000001
v -0.0585532141 -0.0474113894 0.00300000012
v -0.0583040857 -0.056925292 0.00100000001
v -0.058389082 -0.056814518 0.00300000012
v -0.0584721375 -0.05670228 0.00100000001
v -0.0584721375 -0.05670228 0.00300000012
v -0.0584721375 -0.0472977161 0.00100000001
v -0.0584721375 -0.0472977161 0.00300000012
v -0.058389082 -0.0471854782 0.00100000001
v -0.0583040857 -0.0470747089 0.00300000012
v -0.0580376768 -0.0572484732 0.00100000001
v -0.0582171679 -0.057034564 0.00300000012
v -0.0582171679 -0.0469654369 0.00100000001
v -0.0580376768 -0.0467515278 0.00300000012
v -0.0577547169 -0.0575572681 0.00100000001
v -0.0577547169 -0.0575572681 0.00300000012
v -0.0578508282 -0.0574559879 0.00100000001
v -0.0579451609 -0.0573530436 0.00300000012
v -0.0579451609 -0.0466469574 0.00100000001
v -0.0578508282 -0.046544013 0.00300000012
v -0.0577547169 -0.0464427328 0.00100000001
v -0.0577547169 -0.0464427328 0.00300000012
v -0.0575572681 -0.0577547169 0.00100000001
v -0.0575572681 -0.0577547169 0.00300000012
v -0.0576568556 -0.0576568556 0.00100000001
v -0.0576568556 -0.0576568556 0.00300000012
v -0.0576568556 -0.0463431454 0.00100000001
v -0.0576568556 -0.0463431454 0.00300000012
v -0.0575572681 -0.0462452793 0.00100000001
v -0.0575572681 -0.0462452793 0.00300000012
v -0.0573530436 -0.0579451609 0.00100000001
v -0.0574559879 -0.0578508282 0.00300000012
v -0.0574559879 -0.046149168 0.00100000001
v -0.0573530436 -0.0460548401 0.00300000012
v -0.057034564 -0.0582171679 0.00100000001
v -0.0572484732 -0.0580376768 0.00300000012
v -0.0572484732 -0.0459623241 0.00100000001
v -0.057034564 -0.0457828331 0.00300000012
v -0.056814518 -0.058389082 0.00100000001
v -0.056925292 -0.0583040857 0.00300000012
v -0.056925292 -0.0456959152 0.00100000001
v -0.056814518 -0.0456109142 0.00300000012
v -0.0565886116 -0.0585532141 0.00100000001
v -0.0565886116 -0.0585532141 0.00300000012
v -0.05670228 -0.0584721375 0.00100000001
v -0.05670228 -0.0584721375 0.00300000012
v -0.05670228 -0.0455278635 0.00100000001
v -0.05670228 -0.0455278635 0.00300000012
v -0.0565886116 -0.0454467821 0.00100000001
v -0.0565886116 -0.0454467821 0.00300000012
v -0.0563571119 -0.0587093639 0.00100000001
v -0.0564735413 -0.0586323023 0.00300000012
v -0.0564735413 -0.0453676987 0.00100000001
v -0.0563571119 -0.045290637 0.00300000012
v -0.0561203051 -0.058857336 0.00100000001
v -0.0562393522 -0.0587843847 0.00300000012
v -0.0562393522 -0.0452156162 0.00100000001
v -0.0561203051 -0.0451426601 0.00300000012
v -0.0557557726 -0.0590635824 0.00100000001
v -0.0557557726 -0.0590635824 0.00300000012
v -0.0558784771 -0.0589969587 0.00100000001
v -0.055999999 -0.0589282036 0.00300000012
v -0.055999999 -0.0450717974 0.00100000001
v -0.0558784771 -0.0450030422 0.00300000012
v -0.0557557726 -0.0449364185 0.00100000001
v -0.0557557726 -0.0449364185 0.00300000012
v -0.0555069685 -0.0591903543 0.00100000001
v -0.0556319237 -0.0591280508 0.00300000012
v -0.0556319237 -0.0448719501 0.00100000001
v -0.0555069685 -0.0448096466 0.00300000012
v -0.0552538919 -0.059308362 0.00100000001
v -0.0553809452 -0.0592504644 0.00300000012
v -0.0553809452 -0.0447495365 0.00100000001
v -0.0552538919 -0.0446916342 0.00300000012
v -0.0551258469 -0.0593640375 0.00100000001
v -0.0551258469 -0.0593640375 0.00300000012
v -0.0551258469 -0.0446359634 0.00100000001
v -0.0551258469 -0.0446359634 0.00300000012
v -0.0548669434 -0.0594686413 0.00100000001
v -0.0549968529 -0.0594174719 0.00300000012
v -0.0549968529 -0.0445825291 0.00100000001
v -0.0548669434 -0.0445313549 0.00300000012
v -0.0546045446 -0.059564147 0.00100000001
v -0.0547361612 -0.0595175409 0.00300000012
v -0.0547361612 -0.04448246 0.00100000001
v -0.0546045446 -0.0444358492 0.00300000012
v -0.054338975 -0.0596504402 0.00100000001
v -0.0544721365 -0.0596084499 0.00300000012
v -0.0544721365 -0.0443915462 0.00100000001
v -0.054338975 -0.0443495607 0.00300000012
v -0.0540705538 -0.0597274065 0.00100000001
v -0.0542050982 -0.059690094 0.00300000012
v -0.0542050982 -0.044309907 0.00100000001
v -0.0540705538 -0.0442725945 0.00300000012
v -0.0537996101 -0.05979496 0.00100000001
v -0.0539353752 -0.0597623634 0.00300000012
v -0.0539353752 -0.0442376328 0.00100000001
v -0.0537996101 -0.0442050409 0.00300000012
v -0.053526473 -0.0598530197 0.00100000001
v -0.0536632919 -0.059825182 0.00300000012
v -0.0535010099 -0.0527980995 0.00100000001
v -0.0535147095 -0.0527717829 0.00300000012
v -0.0535279512 -0.0527452326 0.00100000001
v -0.0536167955 -0.0525253296 0.00300000012
v -0.0536257172 -0.0524970341 0.00100000001
v -0.0536790705 -0.0522659397 0.00300000012
v -0.0536834574 -0.0522365952 0.00100000001
v -0.0536997414 -0.0520296669 0.00300000012
v -0.0536999989 -0.0519999981 0.00100000001
v -0.0536834574 -0.0517634058 0.00300000012
v -0.0536790705 -0.0517340612 0.00100000001
v -0.0536257172 -0.0515029669 0.00300000012
v -0.0536167955 -0.0514746714 0.00100000001
v -0.0535279512 -0.0512547684 0.00300000012
v -0.0535147095 -0.0512282181 0.00100000001
v -0.0535010099 -0.0512018967 0.00300000012
v -0.0536632919 -0.044174819 0.00100000001
v -0.053526473 -0.0441469812 0.00300000012
v -0.0532514763 -0.0599015045 0.00100000001
v -0.0533891869 -0.0598784637 0.00300000012
v -0.0532633448 -0.0531375217 0.00100000001
v -0.0533576822 -0.0530230856 0.00300000012
v -0.05337533 -0.0529992342 0.00100000001
v -0.0534868526 -0.0528241777 0.00300000012
v -0.0534868526 -0.0511758232 0.00100000001
v -0.05337533 -0.0510007668 0.00300000012
v -0.0533576822 -0.0509769154 0.00100000001
v -0.0532633448 -0.0508624792 0.00300000012
v -0.0533891869 -0.0441215372 0.00100000001
v -0.0532514763 -0.0440984917 0.00300000012
v -0.0531133842 -0.0599221468 0.00100000001
v -0.0531133842 -0.0599221468 0.00300000012
v -0.0530230856 -0.0533576822 0.00100000001
v -0.0531375217 -0.0532633448 0.00300000012
v -0.053159399 -0.0532433033 0.00100000001
v -0.0532433033 -0.053159399 0.00300000012
v -0.0532433033 -0.0508406019 0.00100000001
v -0.053159399 -0.0507566977 0.00300000012
v -0.0531375217 -0.0507366514 0.00100000001
v -0.0530230856 -0.0506423187 0.00300000012
v -0.0531133842 -0.0440778542 0.00100000001
v -0.0531133842 -0.0440778542 0.00300000012
v -0.0528362274 -0.0599561739 0.00100000001
v -0.0529749537 -0.0599403715 0.00300000012
v -0.0527717829 -0.0535147095 0.00100000001
v -0.0527980995 -0.0535010099 0.00300000012
v -0.0528241777 -0.0534868526 0.00100000001
v -0.0529992342 -0.05337533 0.00300000012
v -0.0529992342 -0.050624671 0.00100000001
v -0.0528241777 -0.0505131483 0.00300000012
v -0.0527980995 -0.050498991 0.00100000001
v -0.0527717829 -0.0504852867 0.00300000012
v -0.0529749537 -0.0440596294 0.00100000001
v -0.0528362274 -0.0440438271 0.00300000012
v -0.0525580502 -0.0599805117 0.00100000001
v -0.0526972437 -0.0599695587 0.00300000012
v -0.0525253296 -0.0536167955 0.00100000001
v -0.0527452326 -0.0535279512 0.00300000012
v -0.0527452326 -0.0504720497 0.00100000001
v -0.0525253296 -0.0503832054 0.00300000012
v -0.0526972437 -0.0440304422 0.00100000001
v -0.0525580502 -0.0440194893 0.00300000012
v -0.0522791958 -0.0599951267 0.00100000001
v -0.0524186897 -0.0599890375 0.00300000012
v -0.0522659397 -0.0536790705 0.00100000001
v -0.0524970341 -0.0536257172 0.00300000012
v -0.0524970341 -0.0503742838 0.00100000001
v -0.0522659397 -0.0503209305 0.00300000012
v -0.0524186897 -0.0440109634 0.00100000001
v -0.0522791958 -0.0440048742 0.00300000012
v -0.0521396208 -0.0599987793 0.00100000001
v -0.0521396208 -0.0599987793 0.00300000012
v -0.0520296669 -0.0536997414 0.00100000001
v -0.0522365952 -0.0536834574 0.00300000012
v -0.0522365952 -0.0503165436 0.00100000001
v -0.0520296669 -0.0503002596 0.00300000012
v -0.0521396208 -0.0440012169 0.00100000001
v -0.0521396208 -0.0440012169 0.00300000012
v -0.0518603802 -0.0599987793 0.00100000001
v -0.0519999981 -0.06 0.00300000012
v -0.0517634058 -0.0536834574 0.00100000001
v -0.0519999981 -0.0536999989 0.00300000012
v -0.0519999981 -0.0503000021 0.00100000001
v -0.0517634058 -0.0503165436 0.00300000012
v -0.0519999981 -0.044000001 0.00100000001
v -0.0518603802 -0.0440012169 0.00300000012
v -0.0515813112 -0.0599890375 0.00100000001
v -0.0517208052 -0.0599951267 0.00300000012
v -0.0515029669 -0.0536257172 0.00100000001
v -0.0517340612 -0.0536790705 0.00300000012
v -0.0517340612 -0.0503209305 0.00100000001
v -0.0515029669 -0.0503742838 0.00300000012
v -0.0517208052 -0.0440048742 0.00100000001
v -0.0515813112 -0.0440109634 0.00300000012
v -0.0513027525 -0.0599695587 0.00100000001
v -0.051441946 -0.0599805117 0.00300000012
v -0.0512547684 -0.0535279512 0.00100000001
v -0.0514746714 -0.0536167955 0.00300000012
v -0.0514746714 -0.0503832054 0.00100000001
v -0.0512547684 -0.0504720497 0.00300000012
v -0.051441946 -0.0440194893 0.00100000001
v -0.0513027525 -0.0440304422 0.00300000012
v -0.0510250473 -0.0599403715 0.00100000001
v -0.0511637735 -0.0599561739 0.00300000012
v -0.0512018967 -0.0535010099 0.00100000001
v -0.0512282181 -0.0535147095 0.00300000012
v -0.0510007668 -0.05337533 0.00100000001
v -0.0511758232 -0.0534868526 0.00300000012
v -0.0511758232 -0.0505131483 0.00100000001
v -0.0510007668 -0.050624671 0.00300000012
v -0.0512282181 -0.0504852867 0.00100000001
v -0.0512018967 -0.050498991 0.00300000012
v -0.0511637735 -0.0440438271 0.00100000001
v -0.0510250473 -0.0440596294 0.00300000012
v -0.0508866167 -0.0599221468 0.00100000001
v -0.0508866167 -0.0599221468 0.00300000012
v -0.0508624792 -0.0532633448 0.00100000001
v -0.0509769154 -0.0533576822 0.00300000012
v -0.0507566977 -0.053159399 0.00100000001
v -0.0508406019 -0.0532433033 0.00300000012
v -0.0507979202 -0.0507979202 0.00100000001
v -0.0507979202 -0.0507979202 0.00300000012
v -0.0509769154 -0.0506423187 0.00100000001
v -0.0508624792 -0.0507366514 0.00300000012
v -0.0508866167 -0.0440778542 0.00100000001
v -0.0508866167 -0.0440778542 0.00300000012
v -0.0506108141 -0.0598784637 0.00100000001
v -0.0507485247 -0.0599015045 0.00300000012
v -0.0506423187 -0.0530230856 0.00100000001
v -0.0507366514 -0.0531375217 0.00300000012
v -0.0505131483 -0.0528241777 0.00100000001
v -0.050624671 -0.0529992342 0.00300000012
v -0.050624671 -0.0510007668 0.00100000001
v -0.0505131483 -0.0511758232 0.00300000012
v -0.0507366514 -0.0508624792 0.00100000001
v -0.0506423187 -0.0509769154 0.00300000012
v -0.0507485247 -0.0440984917 0.00100000001
v -0.0506108141 -0.0441215372 0.00300000012
v -0.0503367043 -0.059825182 0.00100000001
v -0.0504735279 -0.0598530197 0.00300000012
v -0.0504852867 -0.0527717829 0.00100000001
v -0.050498991 -0.0527980995 0.00300000012
v -0.0503832054 -0.0525253296 0.00100000001
v -0.0504720497 -0.0527452326 0.00300000012
v -0.0503209305 -0.0522659397 0.00100000001
v -0.0503742838 -0.0524970341 0.00300000012
v -0.0503002596 -0.0520296669 0.00100000001
v -0.0503165436 -0.0522365952 0.00300000012
v -0.0503165436 -0.0517634058 0.00100000001
v -0.0503000021 -0.0519999981 0.00300000012
v -0.0503742838 -0.0515029669 0.00100000001
v -0.0503209305 -0.0517340612 0.00300000012
v -0.0504720497 -0.0512547684 0.00100000001
v -0.0503832054 -0.0514746714 0.00300000012
v -0.050498991 -0.0512018967 0.00100000001
v -0.0504852867 -0.0512282181 0.00300000012
v -0.0504735279 -0.0441469812 0.00100000001
v -0.0503367043 -0.044174819 0.00300000012
v -0.0500646257 -0.0597623634 0.00100000001
v -0.0502003908 -0.05979496 0.00300000012
v -0.0502003908 -0.0442050409 0.00100000001
v -0.0500646257 -0.0442376328 0.00300000012
v -0.0497949028 -0.059690094 0.00100000001
v -0.0499294472 -0.0597274065 0.00300000012
v -0.0499294472 -0.0442725945 0.00100000001
v -0.0497949028 -0.044309907 0.00300000012
v -0.0495278645 -0.0596084499 0.00100000001
v -0.049661026 -0.0596504402 0.00300000012
v -0.049661026 -0.0443495607 0.00100000001
v -0.0495278645 -0.0443915462 0.00300000012
v -0.0492638397 -0.0595175409 0.00100000001
v -0.0493954563 -0.059564147 0.00300000012
v -0.0493954563 -0.0444358492 0.00100000001
v -0.0492638397 -0.04448246 0.00300000012
v -0.0490031481 -0.0594174719 0.00100000001
v -0.0491330576 -0.0594686413 0.00300000012
v -0.0491330576 -0.0445313549 0.00100000001
v -0.0490031481 -0.0445825291 0.00300000012
v -0.0488741493 -0.0593640375 0.00100000001
v -0.0488741493 -0.0593640375 0.00300000012
v -0.0488741493 -0.0446359634 0.00100000001
v -0.0488741493 -0.0446359634 0.00300000012
v -0.0486190557 -0.0592504644 0.00100000001
v -0.048746109 -0.059308362 0.00300000012
v -0.048746109 -0.0446916342 0.00100000001
v -0.0486190557 -0.0447495365 0.00300000012
v -0.0483680773 -0.0591280508 0.00100000001
v -0.0484930325 -0.0591903543 0.00300000012
v -0.0484930325 -0.0448096466 0.00100000001
v -0.0483680773 -0.0448719501 0.00300000012
v -0.0482442284 -0.0590635824 0.00100000001
v -0.0482442284 -0.0590635824 0.00300000012
v -0.0480000019 -0.0589282036 0.00100000001
v -0.0481215239 -0.0589969587 0.00300000012
v -0.0481215239 -0.0450030422 0.00100000001
v -0.0480000019 -0.0450717974 0.00300000012
v -0.0482442284 -0.0449364185 0.00100000001
v -0.0482442284 -0.0449364185 0.00300000012
v -0.047760644 -0.0587843847 0.00100000001
v -0.0478796959 -0.058857336 0.00300000012
v -0.0478796959 -0.0451426601 0.00100000001
v -0.047760644 -0.0452156162 0.00300000012
v -0.0475264549 -0.0586323023 0.00100000001
v -0.047642889 -0.0587093639 0.00300000012
v -0.047642889 -0.045290637 0.00100000001
v -0.0475264549 -0.0453676987 0.00300000012
v -0.0474113894 -0.0585532141 0.00100000001
v -0.0474113894 -0.0585532141 0.00300000012
v -0.0472977161 -0.0584721375 0.00100000001
v -0.0472977161 -0.0584721375 0.00300000012
v -0.0472977161 -0.0455278635 0.00100000001
v -0.0472977161 -0.0455278635 0.00300000012
v -0.0474113894 -0.0454467821 0.00100000001
v -0.0474113894 -0.0454467821 0.00300000012
v -0.0470747089 -0.0583040857 0.00100000001
v -0.0471854782 -0.058389082 0.00300000012
v -0.0471854782 -0.0456109142 0.00100000001
v -0.0470747089 -0.0456959152 0.00300000012
v -0.0467515278 -0.0580376768 0.00100000001
v -0.0469654369 -0.0582171679 0.00300000012
v -0.0469654369 -0.0457828331 0.00100000001
v -0.0467515278 -0.0459623241 0.00300000012
v -0.046544013 -0.0578508282 0.00100000001
v -0.0466469574 -0.0579451609 0.00300000012
v -0.0466469574 -0.0460548401 0.00100000001
v -0.046544013 -0.046149168 0.00300000012
v -0.0464427328 -0.0577547169 0.00100000001
v -0.0464427328 -0.0577547169 0.00300000012
v -0.0463431454 -0.0576568556 0.00100000001
v -0.0463431454 -0.0576568556 0.00300000012
v -0.0463431454 -0.0463431454 0.00100000001
v -0.0463431454 -0.0463431454 0.00300000012
v -0.0464427328 -0.0462452793 0.00100000001
v -0.0464427328 -0.0462452793 0.00300000012
v -0.0462452793 -0.0575572681 0.00100000001
v -0.0462452793 -0.0575572681 0.00300000012
v -0.0460548401 -0.0573530436 0.00100000001
v -0.046149168 -0.0574559879 0.00300000012
v -0.046149168 -0.046544013 0.00100000001
v -0.0460548401 -0.0466469574 0.00300000012
v -0.0462452793 -0.0464427328 0.00100000001
v -0.0462452793 -0.0464427328 0.00300000012
v -0.0457828331 -0.057034564 0.00100000001
v -0.0459623241 -0.0572484732 0.00300000012
v -0.0459623241 -0.0467515278 0.00100000001
v -0.0457828331 -0.0469654369 0.00300000012
v -0.0456109142 -0.056814518 0.00100000001
v -0.0456959152 -0.056925292 0.00300000012
v -0.0455278635 -0.05670228 0.00100000001
v -0.0455278635 -0.05670228 0.00300000012
v -0.0455278635 -0.0472977161 0.00100000001
v -0.0455278635 -0.0472977161 0.00300000012
v -0.0456959152 -0.0470747089 0.00100000001
v -0.0456109142 -0.0471854782 0.00300000012
v -0.0454467821 -0.0565886116 0.00100000001
v -0.0454467821 -0.0565886116 0.00300000012
v -0.045290637 -0.0563571119 0.00100000001
v -0.0453676987 -0.0564735413 0.00300000012
v -0.0453676987 -0.0475264549 0.00100000001
v -0.045290637 -0.047642889 0.00300000012
v -0.0454467821 -0.0474113894 0.00100000001
v -0.0454467821 -0.0474113894 0.00300000012
v -0.0451426601 -0.0561203051 0.00100000001
v -0.0452156162 -0.0562393522 0.00300000012
v -0.0450030422 -0.0558784771 0.00100000001
v -0.0450717974 -0.055999999 0.00300000012
v -0.0450717974 -0.0480000019 0.00100000001
v -0.0450030422 -0.0481215239 0.00300000012
v -0.0452156162 -0.047760644 0.00100000001
v -0.0451426601 -0.0478796959 0.00300000012
v -0.0449364185 -0.0557557726 0.00100000001
v -0.0449364185 -0.0557557726 0.00300000012
v -0.0448096466 -0.0555069685 0.00100000001
v -0.0448719501 -0.0556319237 0.00300000012
v -0.0448719501 -0.0483680773 0.00100000001
v -0.0448096466 -0.0484930325 0.00300000012
v -0.0449364185 -0.0482442284 0.00100000001
v -0.0449364185 -0.0482442284 0.00300000012
v -0.0446916342 -0.0552538919 0.00100000001
v -0.0447495365 -0.0553809452 0.00300000012
v -0.0446359634 -0.0551258469 0.00100000001
v -0.0446359634 -0.0551258469 0.00300000012
v -0.0445313549 -0.0548669434 0.00100000001
v -0.0445825291 -0.0549968529 0.00300000012
v -0.0445825291 -0.0490031481 0.00100000001
v -0.0445313549 -0.0491330576 0.00300000012
v -0.0446359634 -0.0488741493 0.00100000001
v -0.0446359634 -0.0488741493 0.00300000012
v -0.0447495365 -0.0486190557 0.00100000001
v -0.0446916342 -0.048746109 0.00300000012
v -0.0444358492 -0.0546045446 0.00100000001
v -0.04448246 -0.0547361612 0.00300000012
v -0.0443495607 -0.054338975 0.00100000001
v -0.0443915462 -0.0544721365 0.00300000012
v -0.0442725945 -0.0540705538 0.00100000001
v -0.044309907 -0.0542050982 0.00300000012
v -0.044309907 -0.0497949028 0.00100000001
v -0.0442725945 -0.0499294472 0.00300000012
v -0.0443915462 -0.0495278645 0.00100000001
v -0.0443495607 -0.049661026 0.00300000012
v -0.04448246 -0.0492638397 0.00100000001
v -0.0444358492 -0.0493954563 0.00300000012
v -0.0442050409 -0.0537996101 0.00100000001
v -0.0442376328 -0.0539353752 0.00300000012
v -0.0441469812 -0.053526473 0.00100000001
v -0.044174819 -0.0536632919 0.00300000012
v -0.0440984917 -0.0532514763 0.00100000001
v -0.0441215372 -0.0533891869 0.00300000012
v -0.0440778542 -0.0531133842 0.00100000001
v -0.0440778542 -0.0531133842 0.00300000012
v -0.0440438271 -0.0528362274 0.00100000001
v -0.0440596294 -0.0529749537 0.00300000012
v -0.0440194893 -0.0525580502 0.00100000001
v -0.0440304422 -0.0526972437 0.00300000012
v -0.0440048742 -0.0522791958 0.00100000001
v -0.0440109634 -0.0524186897 0.00300000012
v -0.0440012169 -0.0521396208 0.00100000001
v -0.0440012169 -0.0521396208 0.00300000012
v -0.0440012169 -0.0518603802 0.00100000001
v -0.044000001 -0.0519999981 0.00300000012
v -0.0440109634 -0.0515813112 0.00100000001
v -0.0440048742 -0.0517208052 0.00300000012
v -0.0440304422 -0.0513027525 0.00100000001
v -0.0440194893 -0.051441946 0.00300000012
v -0.0440596294 -0.0510250473 0.00100000001
v -0.0440438271 -0.0511637735 0.00300000012
v -0.0440778542 -0.0508866167 0.00100000001
v -0.0440778542 -0.0508866167 0.00300000012
v -0.0441215372 -0.0506108141 0.00100000001
v -0.0440984917 -0.0507485247 0.00300000012
v -0.044174819 -0.0503367043 0.00100000001
v -0.0441469812 -0.0504735279 0.00300000012
v -0.0442376328 -0.0500646257 0.00100000001
v -0.0442050409 -0.0502003908 0.00300000012
f 1 2 3
f 1 38 2
f 183 1 3
f 37 38 1
f 183 37 1
f 3 2 4
f 2 340 4
f 38 344 2
f 2 344 340
f 3 4 5
f 183 3 5
f 5 4 6
f 4 336 6
f 4 340 336
f 5 6 7
f 185 5 7
f 183 5 185
f 7 6 8
f 6 316 8
f 6 336 316
f 7 8 9
f 185 7 9
f 9 8 10
f 8 304 10
f 8 316 304
f 9 10 11
f 185 9 11
f 11 10 12
f 10 292 12
f 10 304 292
f 11 12 13
f 185 11 13
f 13 12 14
f 12 280 14
f 12 292 280
f 13 14 15
f 185 13 15
f 15 14 16
f 14 272 16
f 14 280 272
f 15 16 17
f 191 15 17
f 185 15 187
f 187 15 189
f 189 15 191
f 17 16 18
f 16 264 18
f 16 272 264
f 17 18 19
f 247 17 19
f 191 17 193
f 193 17 203
f 203 17 205
f 205 17 215
f 215 17 263
f 255 17 247
f 263 17 255
f 19 18 20
f 18 256 20
f 18 264 256
f 19 20 21
f 239 19 21
f 247 19 239
f 21 20 22
f 20 248 22
f 20 256 248
f 21 22 23
f 231 21 23
f 239 21 231
f 23 22 24
f 22 240 24
f 22 248 240
f 23 24 25
f 219 23 25
f 231 23 219
f 25 24 26
f 24 232 26
f 24 240 232
f 25 26 27
f 207 25 27
f 219 25 207
f 27 26 28
f 26 220 28
f 26 232 220
f 27 28 29
f 195 27 29
f 207 27 195
f 29 28 30
f 28 208 30
f 28 220 208
f 29 30 31
f 175 29 31
f 195 29 175
f 31 30 32
f 30 196 32
f 30 208 196
f 31 32 39
f 171 31 39
f 175 31 171
f 39 32 40
f 32 176 40
f 32 196 176
f 33 34 35
f 33 50 34
f 181 33 35
f 49 50 33
f 181 49 33
f 35 34 36
f 34 352 36
f 50 356 34
f 34 356 352
f 35 36 37
f 183 35 37
f 181 35 183
f 37 36 38
f 36 348 38
f 36 352 348
f 38 348 344
f 39 40 41
f 167 39 41
f 171 39 167
f 41 40 42
f 40 172 42
f 40 176 172
f 41 42 43
f 163 41 43
f 167 41 163
f 43 42 44
f 42 168 44
f 42 172 168
f 43 44 51
f 159 43 51
f 163 43 159
f 51 44 52
f 44 164 52
f 44 168 164
f 45 46 47
f 45 60 46
f 181 45 47
f 59 60 45
f 181 59 45
f 47 46 48
f 46 364 48
f 60 368 46
f 46 368 364
f 47 48 49
f 181 47 49
f 49 48 50
f 48 360 50
f 48 364 360
f 50 360 356
f 51 52 53
f 155 51 53
f 159 51 155
f 53 52 54
f 52 160 54
f 52 164 160
f 53 54 55
f 151 53 55
f 155 53 151
f 55 54 56
f 54 156 56
f 54 160 156
f 55 56 61
f 147 55 61
f 151 55 147
f 61 56 62
f 56 152 62
f 56 156 152
f 57 58 59
f 57 68 58
f 179 57 59
f 67 68 57
f 179 67 57
f 59 58 60
f 58 376 60
f 68 374 58
f 58 374 376
f 179 59 181
f 60 376 368
f 61 62 63
f 143 61 63
f 147 61 143
f 63 62 64
f 62 148 64
f 62 152 148
f 63 64 69
f 141 63 69
f 143 63 141
f 69 64 70
f 64 144 70
f 64 148 144
f 65 66 67
f 65 76 66
f 201 65 67
f 75 76 65
f 201 75 65
f 67 66 68
f 66 380 68
f 76 204 66
f 204 206 66
f 206 216 66
f 66 216 380
f 201 67 179
f 68 380 374
f 69 70 71
f 135 69 71
f 141 69 135
f 71 70 72
f 70 142 72
f 70 144 142
f 71 72 77
f 131 71 77
f 135 71 131
f 77 72 78
f 72 136 78
f 72 142 136
f 73 74 75
f 73 84 74
f 201 73 75
f 83 84 73
f 201 83 73
f 75 74 76
f 74 190 76
f 84 188 74
f 188 190 74
f 76 190 192
f 76 192 194
f 76 194 204
f 77 78 79
f 127 77 79
f 131 77 127
f 79 78 80
f 78 132 80
f 78 136 132
f 79 80 85
f 125 79 85
f 127 79 125
f 85 80 86
f 80 128 86
f 80 132 128
f 81 82 83
f 81 90 82
f 201 81 83
f 89 90 81
f 199 89 81
f 199 81 201
f 83 82 84
f 82 186 84
f 90 184 82
f 82 184 186
f 84 186 188
f 85 86 87
f 119 85 87
f 125 85 119
f 87 86 88
f 86 126 88
f 86 128 126
f 87 88 91
f 115 87 91
f 119 87 115
f 91 88 92
f 88 120 92
f 88 126 120
f 89 96 90
f 95 96 89
f 199 95 89
f 96 202 90
f 90 180 182
f 90 202 180
f 182 184 90
f 91 92 97
f 111 91 97
f 115 91 111
f 97 92 98
f 92 116 98
f 92 120 116
f 93 94 95
f 93 104 94
f 213 93 95
f 103 104 93
f 213 103 93
f 95 94 96
f 94 200 96
f 104 214 94
f 214 200 94
f 213 95 199
f 96 200 202
f 97 98 99
f 107 97 99
f 111 97 107
f 99 98 100
f 98 112 100
f 98 116 112
f 99 100 105
f 107 99 105
f 105 100 106
f 100 108 106
f 100 112 108
f 101 102 103
f 101 110 102
f 213 101 103
f 109 110 101
f 213 109 101
f 103 102 104
f 102 212 104
f 110 226 102
f 102 226 212
f 104 212 214
f 105 106 107
f 107 106 108
f 107 108 111
f 111 108 112
f 109 114 110
f 113 114 109
f 211 113 109
f 211 109 213
f 114 236 110
f 224 226 110
f 110 236 224
f 111 112 115
f 115 112 116
f 113 118 114
f 117 118 113
f 211 117 113
f 118 244 114
f 114 244 236
f 115 116 119
f 119 116 120
f 117 124 118
f 123 124 117
f 225 123 117
f 225 117 211
f 124 260 118
f 118 252 244
f 118 260 252
f 119 120 125
f 125 120 126
f 121 122 123
f 121 130 122
f 225 121 123
f 129 130 121
f 225 129 121
f 123 122 124
f 122 260 124
f 130 260 122
f 125 126 127
f 127 126 128
f 127 128 131
f 131 128 132
f 129 134 130
f 133 134 129
f 225 133 129
f 134 260 130
f 131 132 135
f 135 132 136
f 133 140 134
f 139 140 133
f 133 447 139
f 223 133 225
f 235 133 223
f 243 133 235
f 251 133 243
f 259 133 251
f 267 133 259
f 275 133 267
f 283 133 275
f 285 133 283
f 295 133 285
f 297 133 295
f 297 437 133
f 437 447 133
f 140 260 134
f 135 136 141
f 141 136 142
f 137 138 139
f 137 146 138
f 139 445 137
f 145 146 137
f 137 455 145
f 137 445 455
f 139 138 140
f 138 260 140
f 146 260 138
f 139 447 445
f 141 142 143
f 143 142 144
f 143 144 147
f 147 144 148
f 145 150 146
f 149 150 145
f 145 453 149
f 145 455 453
f 150 260 146
f 147 148 151
f 151 148 152
f 149 154 150
f 153 154 149
f 149 467 153
f 149 453 467
f 154 260 150
f 151 152 155
f 155 152 156
f 153 158 154
f 157 158 153
f 153 465 157
f 153 467 465
f 158 260 154
f 155 156 159
f 159 156 160
f 157 162 158
f 161 162 157
f 157 463 161
f 157 465 463
f 162 260 158
f 159 160 163
f 163 160 164
f 161 166 162
f 165 166 161
f 161 479 165
f 161 463 479
f 166 260 162
f 163 164 167
f 167 164 168
f 165 170 166
f 169 170 165
f 165 477 169
f 165 479 477
f 170 260 166
f 167 168 171
f 171 168 172
f 169 174 170
f 173 174 169
f 169 475 173
f 169 477 475
f 174 260 170
f 171 172 175
f 175 172 176
f 173 178 174
f 177 178 173
f 173 511 177
f 173 475 511
f 178 260 174
f 175 176 195
f 195 176 196
f 177 198 178
f 197 198 177
f 177 509 197
f 177 511 509
f 198 260 178
f 179 182 180
f 179 180 201
f 181 182 179
f 201 180 202
f 181 184 182
f 183 184 181
f 183 186 184
f 185 186 183
f 185 188 186
f 187 188 185
f 187 190 188
f 189 190 187
f 189 192 190
f 191 192 189
f 191 194 192
f 193 194 191
f 193 204 194
f 203 204 193
f 195 196 207
f 207 196 208
f 197 210 198
f 209 210 197
f 197 507 209
f 197 509 507
f 210 260 198
f 199 202 200
f 199 200 213
f 201 202 199
f 213 200 214
f 203 206 204
f 205 206 203
f 205 216 206
f 215 216 205
f 207 208 219
f 219 208 220
f 209 222 210
f 221 222 209
f 209 505 221
f 209 507 505
f 222 260 210
f 211 214 212
f 211 212 225
f 213 214 211
f 225 212 226
f 215 218 216
f 217 218 215
f 217 215 379
f 263 271 215
f 215 271 279
f 215 279 291
f 291 303 215
f 215 303 315
f 315 335 215
f 215 335 339
f 215 339 343
f 343 347 215
f 215 347 351
f 215 351 355
f 355 359 215
f 215 359 363
f 363 367 215
f 215 367 375
f 375 373 215
f 215 373 379
f 216 218 380
f 217 228 218
f 227 228 217
f 227 217 379
f 218 228 380
f 219 220 231
f 231 220 232
f 221 234 222
f 233 234 221
f 221 503 233
f 221 505 503
f 234 260 222
f 223 226 224
f 223 224 235
f 225 226 223
f 235 224 236
f 227 230 228
f 229 230 227
f 383 229 227
f 383 227 379
f 228 230 384
f 380 228 384
f 229 238 230
f 237 238 229
f 383 237 229
f 384 230 238
f 231 232 239
f 239 232 240
f 233 242 234
f 241 242 233
f 233 501 241
f 233 503 501
f 242 260 234
f 235 236 243
f 243 236 244
f 237 246 238
f 245 246 237
f 383 245 237
f 384 238 246
f 239 240 247
f 247 240 248
f 241 250 242
f 249 250 241
f 241 499 249
f 241 501 499
f 250 260 242
f 243 244 251
f 251 244 252
f 245 254 246
f 253 254 245
f 253 245 391
f 391 245 383
f 392 246 254
f 384 246 392
f 247 248 255
f 255 248 256
f 249 258 250
f 257 258 249
f 249 497 257
f 249 499 497
f 258 260 250
f 251 252 259
f 259 252 260
f 253 262 254
f 261 262 253
f 389 261 253
f 389 253 391
f 254 262 390
f 392 254 390
f 255 256 263
f 263 256 264
f 257 266 258
f 265 266 257
f 257 495 265
f 257 497 495
f 266 260 258
f 259 260 267
f 274 260 266
f 267 260 268
f 294 268 260
f 282 260 274
f 294 260 282
f 261 270 262
f 269 270 261
f 395 269 261
f 395 261 389
f 396 262 270
f 390 262 396
f 263 264 271
f 271 264 272
f 265 274 266
f 273 274 265
f 265 493 273
f 265 495 493
f 267 268 275
f 275 268 276
f 346 276 268
f 306 268 294
f 318 268 306
f 338 268 318
f 342 268 338
f 346 268 342
f 269 278 270
f 277 278 269
f 277 269 399
f 399 269 395
f 270 278 400
f 396 270 400
f 271 272 279
f 279 272 280
f 273 282 274
f 281 282 273
f 273 491 281
f 273 493 491
f 275 276 283
f 283 276 284
f 366 284 276
f 350 276 346
f 354 276 350
f 358 276 354
f 362 276 358
f 366 276 362
f 277 290 278
f 289 290 277
f 399 289 277
f 400 278 290
f 279 280 291
f 291 280 292
f 281 294 282
f 293 294 281
f 281 489 293
f 281 491 489
f 283 284 285
f 285 284 286
f 370 286 284
f 370 284 366
f 285 286 295
f 295 286 296
f 388 296 286
f 372 286 370
f 378 286 372
f 382 286 378
f 386 286 382
f 388 286 386
f 287 288 289
f 287 302 288
f 399 287 289
f 301 302 287
f 403 301 287
f 403 287 399
f 289 288 290
f 400 290 288
f 404 288 302
f 400 288 404
f 291 292 303
f 303 292 304
f 293 306 294
f 305 306 293
f 293 487 305
f 293 489 487
f 295 296 297
f 297 296 298
f 402 298 296
f 394 296 388
f 398 296 394
f 402 296 398
f 297 298 307
f 307 437 297
f 307 298 308
f 438 308 298
f 406 298 402
f 408 298 406
f 414 298 408
f 416 298 414
f 422 298 416
f 426 298 422
f 428 298 426
f 434 298 428
f 436 298 434
f 442 298 436
f 438 298 448
f 444 298 442
f 450 298 444
f 448 298 446
f 446 298 456
f 452 298 450
f 458 298 452
f 456 298 454
f 454 298 468
f 460 298 458
f 462 298 460
f 470 298 462
f 466 298 464
f 464 298 480
f 468 298 466
f 472 298 470
f 474 298 472
f 482 298 474
f 478 298 476
f 476 298 512
f 480 298 478
f 484 298 482
f 486 298 484
f 488 298 486
f 490 298 488
f 492 298 490
f 494 298 492
f 496 298 494
f 498 298 496
f 500 298 498
f 502 298 500
f 504 298 502
f 506 298 504
f 508 298 506
f 510 298 508
f 512 298 510
f 299 300 301
f 299 314 300
f 411 299 301
f 313 314 299
f 299 409 313
f 299 411 409
f 301 300 302
f 302 300 412
f 300 314 410
f 412 300 410
f 411 301 403
f 404 302 412
f 303 304 315
f 315 304 316
f 305 318 306
f 317 318 305
f 305 485 317
f 305 487 485
f 307 308 309
f 309 437 307
f 309 308 310
f 438 310 308
f 309 310 319
f 319 437 309
f 319 310 320
f 438 320 310
f 311 312 313
f 311 334 312
f 313 419 311
f 333 334 311
f 311 417 333
f 311 419 417
f 313 312 314
f 420 314 312
f 312 334 418
f 420 312 418
f 313 409 419
f 410 314 420
f 315 316 335
f 335 316 336
f 317 338 318
f 337 338 317
f 317 483 337
f 317 485 483
f 319 320 321
f 321 437 319
f 321 320 322
f 322 320 438
f 321 322 323
f 323 439 321
f 321 439 437
f 323 322 324
f 324 322 440
f 440 322 438
f 323 324 325
f 325 429 323
f 323 429 439
f 325 324 326
f 430 326 324
f 430 324 440
f 325 326 327
f 327 431 325
f 325 431 429
f 327 326 328
f 328 326 432
f 432 326 430
f 327 328 329
f 329 431 327
f 329 328 330
f 330 328 432
f 329 330 331
f 331 423 329
f 329 423 431
f 331 330 332
f 424 332 330
f 424 330 432
f 331 332 333
f 333 417 331
f 331 417 423
f 333 332 334
f 418 334 332
f 418 332 424
f 335 336 339
f 339 336 340
f 337 342 338
f 341 342 337
f 337 481 341
f 337 483 481
f 339 340 343
f 343 340 344
f 341 346 342
f 345 346 341
f 341 473 345
f 341 481 473
f 343 344 347
f 347 344 348
f 345 350 346
f 349 350 345
f 345 471 349
f 345 473 471
f 347 348 351
f 351 348 352
f 349 354 350
f 353 354 349
f 349 469 353
f 349 471 469
f 351 352 355
f 355 352 356
f 353 358 354
f 357 358 353
f 353 461 357
f 353 469 461
f 355 356 359
f 359 356 360
f 357 362 358
f 361 362 357
f 357 459 361
f 357 461 459
f 359 360 363
f 363 360 364
f 361 366 362
f 365 366 361
f 361 457 365
f 361 459 457
f 363 364 367
f 367 364 368
f 365 370 366
f 369 370 365
f 365 451 369
f 365 457 451
f 367 368 375
f 375 368 376
f 369 372 370
f 371 372 369
f 369 449 371
f 369 451 449
f 371 378 372
f 377 378 371
f 371 443 377
f 371 449 443
f 373 376 374
f 373 374 379
f 375 376 373
f 379 374 380
f 377 382 378
f 381 382 377
f 377 441 381
f 377 443 441
f 379 380 383
f 383 380 384
f 381 386 382
f 385 386 381
f 381 435 385
f 381 441 435
f 383 384 391
f 391 384 392
f 385 388 386
f 387 388 385
f 385 433 387
f 385 435 433
f 387 394 388
f 393 394 387
f 387 427 393
f 387 433 427
f 389 392 390
f 389 390 395
f 391 392 389
f 395 390 396
f 393 398 394
f 397 398 393
f 393 425 397
f 393 427 425
f 395 396 399
f 399 396 400
f 397 402 398
f 401 402 397
f 397 421 401
f 397 425 421
f 399 400 403
f 403 400 404
f 401 406 402
f 405 406 401
f 401 415 405
f 401 421 415
f 403 404 411
f 411 404 412
f 405 408 406
f 407 408 405
f 405 413 407
f 405 415 413
f 407 414 408
f 413 414 407
f 409 412 410
f 409 410 419
f 411 412 409
f 419 410 420
f 413 416 414
f 415 416 413
f 415 422 416
f 421 422 415
f 417 420 418
f 417 418 423
f 419 420 417
f 423 418 424
f 421 426 422
f 425 426 421
f 423 424 431
f 431 424 432
f 425 428 426
f 427 428 425
f 427 434 428
f 433 434 427
f 429 432 430
f 429 430 439
f 431 432 429
f 439 430 440
f 433 436 434
f 435 436 433
f 435 442 436
f 441 442 435
f 437 440 438
f 437 438 447
f 439 440 437
f 447 438 448
f 441 444 442
f 443 444 441
f 443 450 444
f 449 450 443
f 445 448 446
f 445 446 455
f 447 448 445
f 455 446 456
f 449 452 450
f 451 452 449
f 451 458 452
f 457 458 451
f 453 456 454
f 453 454 467
f 455 456 453
f 467 454 468
f 457 460 458
f 459 460 457
f 459 462 460
f 461 462 459
f 461 470 462
f 469 470 461
f 463 466 464
f 463 464 479
f 465 466 463
f 479 464 480
f 465 468 466
f 467 468 465
f 469 472 470
f 471 472 469
f 471 474 472
f 473 474 471
f 473 482 474
f 481 482 473
f 475 478 476
f 475 476 511
f 477 478 475
f 511 476 512
f 477 480 478
f 479 480 477
f 481 484 482
f 483 484 481
f 483 486 484
f 485 486 483
f 485 488 486
f 487 488 485
f 487 490 488
f 489 490 487
f 489 492 490
f 491 492 489
f 491 494 492
f 493 494 491
f 493 496 494
f 495 496 493
f 495 498 496
f 497 498 495
f 497 500 498
f 499 500 497
f 499 502 500
f 501 502 499
f 501 504 502
f 503 504 501
f 503 506 504
f 505 506 503
f 505 508 506
f 507 508 505
f 507 510 508
f 509 510 507
f 509 512 510
f 511 512 509
