v 0.0442376328 0.0500646257 0.00100000001
v 0.0442050409 0.0502003908 0.00300000012
v 0.044174819 0.0503367043 0.00100000001
v 0.0441469812 0.0504735279 0.00300000012
v 0.0441215372 0.0506108141 0.00100000001
v 0.0440984917 0.0507485247 0.00300000012
v 0.0440778542 0.0508866167 0.00100000001
v 0.0440778542 0.0508866167 0.00300000012
v 0.0440596294 0.0510250473 0.00100000001
v 0.0440438271 0.0511637735 0.00300000012
v 0.0440304422 0.0513027525 0.00100000001
v 0.0440194893 0.051441946 0.00300000012
v 0.0440109634 0.0515813112 0.00100000001
v 0.0440048742 0.0517208052 0.00300000012
v 0.0440012169 0.0518603802 0.00100000001
v 0.044000001 0.0519999981 0.00300000012
v 0.0440012169 0.0521396208 0.00100000001
v 0.0440012169 0.0521396208 0.00300000012
v 0.0440048742 0.0522791958 0.00100000001
v 0.0440109634 0.0524186897 0.00300000012
v 0.0440194893 0.0525580502 0.00100000001
v 0.0440304422 0.0526972437 0.00300000012
v 0.0440438271 0.0528362274 0.00100000001
v 0.0440596294 0.0529749537 0.00300000012
v 0.0440778542 0.0531133842 0.00100000001
v 0.0440778542 0.0531133842 0.00300000012
v 0.0440984917 0.0532514763 0.00100000001
v 0.0441215372 0.0533891869 0.00300000012
v 0.0441469812 0.053526473 0.00100000001
v 0.044174819 0.0536632919 0.00300000012
v 0.0442050409 0.0537996101 0.00100000001
v 0.0442376328 0.0539353752 0.00300000012
v 0.04448246 0.0492638397 0.00100000001
v 0.0444358492 0.0493954563 0.00300000012
v 0.0443915462 0.0495278645 0.00100000001
v 0.0443495607 0.049661026 0.00300000012
v 0.044309907 0.0497949028 0.00100000001
v 0.0442725945 0.0499294472 0.00300000012
v 0.0442725945 0.0540705538 0.00100000001
v 0.044309907 0.0542050982 0.00300000012
v 0.0443495607 0.054338975 0.00100000001
v 0.0443915462 0.0544721365 0.00300000012
v 0.0444358492 0.0546045446 0.00100000001
v 0.04448246 0.0547361612 0.00300000012
v 0.0447495365 0.0486190557 0.00100000001
v 0.0446916342 0.048746109 0.00300000012
v 0.0446359634 0.0488741493 0.00100000001
v 0.0446359634 0.0488741493 0.00300000012
v 0.0445825291 0.0490031481 0.00100000001
v 0.0445313549 0.0491330576 0.00300000012
v 0.0445313549 0.0548669434 0.00100000001
v 0.0445825291 0.0549968529 0.00300000012
v 0.0446359634 0.0551258469 0.00100000001
v 0.0446359634 0.0551258469 0.00300000012
v 0.0446916342 0.0552538919 0.00100000001
v 0.0447495365 0.0553809452 0.00300000012
v 0.0449364185 0.0482442284 0.00100000001
v 0.0449364185 0.0482442284 0.00300000012
v 0.0448719501 0.0483680773 0.00100000001
v 0.0448096466 0.0484930325 0.00300000012
v 0.0448096466 0.0555069685 0.00100000001
v 0.0448719501 0.0556319237 0.00300000012
v 0.0449364185 0.0557557726 0.00100000001
v 0.0449364185 0.0557557726 0.00300000012
v 0.0452156162 0.047760644 0.00100000001
v 0.0451426601 0.0478796959 0.00300000012
v 0.0450717974 0.0480000019 0.00100000001
v 0.0450030422 0.0481215239 0.00300000012
v 0.0450030422 0.0558784771 0.00100000001
v 0.0450717974 0.055999999 0.00300000012
v 0.0451426601 0.0561203051 0.00100000001
v 0.0452156162 0.0562393522 0.00300000012
v 0.0454467821 0.0474113894 0.00100000001
v 0.0454467821 0.0474113894 0.00300000012
v 0.0453676987 0.0475264549 0.00100000001
v 0.045290637 0.047642889 0.00300000012
v 0.045290637 0.0563571119 0.00100000001
v 0.0453676987 0.0564735413 0.00300000012
v 0.0454467821 0.0565886116 0.00100000001
v 0.0454467821 0.0565886116 0.00300000012
v 0.0456959152 0.0470747089 0.00100000001
v 0.0456109142 0.0471854782 0.00300000012
v 0.0455278635 0.0472977161 0.00100000001
v 0.0455278635 0.0472977161 0.00300000012
v 0.0455278635 0.05670228 0.00100000001
v 0.0455278635 0.05670228 0.00300000012
v 0.0456109142 0.056814518 0.00100000001
v 0.0456959152 0.056925292 0.00300000012
v 0.0459623241 0.0467515278 0.00100000001
v 0.0457828331 0.0469654369 0.00300000012
v 0.0457828331 0.057034564 0.00100000001
v 0.0459623241 0.0572484732 0.00300000012
v 0.0462452793 0.0464427328 0.00100000001
v 0.0462452793 0.0464427328 0.00300000012
v 0.046149168 0.046544013 0.00100000001
v 0.0460548401 0.0466469574 0.00300000012
v 0.0460548401 0.0573530436 0.00100000001
v 0.046149168 0.0574559879 0.00300000012
v 0.0462452793 0.0575572681 0.00100000001
v 0.0462452793 0.0575572681 0.00300000012
v 0.0464427328 0.0462452793 0.00100000001
v 0.0464427328 0.0462452793 0.00300000012
v 0.0463431454 0.0463431454 0.00100000001
v 0.0463431454 0.0463431454 0.00300000012
v 0.0463431454 0.0576568556 0.00100000001
v 0.0463431454 0.0576568556 0.00300000012
v 0.0464427328 0.0577547169 0.00100000001
v 0.0464427328 0.0577547169 0.00300000012
v 0.0466469574 0.0460548401 0.00100000001
v 0.046544013 0.046149168 0.00300000012
v 0.046544013 0.0578508282 0.00100000001
v 0.0466469574 0.0579451609 0.00300000012
v 0.0469654369 0.0457828331 0.00100000001
v 0.0467515278 0.0459623241 0.00300000012
v 0.0467515278 0.0580376768 0.00100000001
v 0.0469654369 0.0582171679 0.00300000012
v 0.0471854782 0.0456109142 0.00100000001
v 0.0470747089 0.0456959152 0.00300000012
v 0.0470747089 0.0583040857 0.00100000001
v 0.0471854782 0.058389082 0.00300000012
v 0.0474113894 0.0454467821 0.00100000001
v 0.0474113894 0.0454467821 0.00300000012
v 0.0472977161 0.0455278635 0.00100000001
v 0.0472977161 0.0455278635 0.00300000012
v 0.0472977161 0.0584721375 0.00100000001
v 0.0472977161 0.0584721375 0.00300000012
v 0.0474113894 0.0585532141 0.00100000001
v 0.0474113894 0.0585532141 0.00300000012
v 0.047642889 0.045290637 0.00100000001
v 0.0475264549 0.0453676987 0.00300000012
v 0.0475264549 0.0586323023 0.00100000001
v 0.047642889 0.0587093639 0.00300000012
v 0.0478796959 0.0451426601 0.00100000001
v 0.047760644 0.0452156162 0.00300000012
v 0.047760644 0.0587843847 0.00100000001
v 0.0478796959 0.058857336 0.00300000012
v 0.0482442284 0.0449364185 0.00100000001
v 0.0482442284 0.0449364185 0.00300000012
v 0.0481215239 0.0450030422 0.00100000001
v 0.0480000019 0.0450717974 0.00300000012
v 0.0480000019 0.0589282036 0.00100000001
v 0.0481215239 0.0589969587 0.00300000012
v 0.0482442284 0.0590635824 0.00100000001
v 0.0482442284 0.0590635824 0.00300000012
v 0.0484930325 0.0448096466 0.00100000001
v 0.0483680773 0.0448719501 0.00300000012
v 0.0483680773 0.0591280508 0.00100000001
v 0.0484930325 0.0591903543 0.00300000012
v 0.048746109 0.0446916342 0.00100000001
v 0.0486190557 0.0447495365 0.00300000012
v 0.0486190557 0.0592504644 0.00100000001
v 0.048746109 0.059308362 0.00300000012
v 0.0488741493 0.0446359634 0.00100000001
v 0.0488741493 0.0446359634 0.00300000012
v 0.0488741493 0.0593640375 0.00100000001
v 0.0488741493 0.0593640375 0.00300000012
v 0.0491330576 0.0445313549 0.00100000001
v 0.0490031481 0.0445825291 0.00300000012
v 0.0490031481 0.0594174719 0.00100000001
v 0.0491330576 0.0594686413 0.00300000012
v 0.0493954563 0.0444358492 0.00100000001
v 0.0492638397 0.04448246 0.00300000012
v 0.0492638397 0.0595175409 0.00100000001
v 0.0493954563 0.059564147 0.00300000012
v 0.049661026 0.0443495607 0.00100000001
v 0.0495278645 0.0443915462 0.00300000012
v 0.0495278645 0.0596084499 0.00100000001
v 0.049661026 0.0596504402 0.00300000012
v 0.0499294472 0.0442725945 0.00100000001
v 0.0497949028 0.044309907 0.00300000012
v 0.0497949028 0.059690094 0.00100000001
v 0.0499294472 0.0597274065 0.00300000012
v 0.0502003908 0.0442050409 0.00100000001
v 0.0500646257 0.0442376328 0.00300000012
v 0.0500646257 0.0597623634 0.00100000001
v 0.0502003908 0.05979496 0.00300000012
v 0.0504735279 0.0441469812 0.00100000001
v 0.0503367043 0.044174819 0.00300000012
v 0.0504852867 0.0512282181 0.00100000001
v 0.050498991 0.0512018967 0.00300000012
v 0.0503832054 0.0514746714 0.00100000001
v 0.0504720497 0.0512547684 0.00300000012
v 0.0503209305 0.0517340612 0.00100000001
v 0.0503742838 0.0515029669 0.00300000012
v 0.0503000021 0.0519999981 0.00100000001
v 0.0503165436 0.0517634058 0.00300000012
v 0.0503165436 0.0522365952 0.00100000001
v 0.0503002596 0.0520296669 0.00300000012
v 0.0503742838 0.0524970341 0.00100000001
v 0.0503209305 0.0522659397 0.00300000012
v 0.0504720497 0.0527452326 0.00100000001
v 0.0503832054 0.0525253296 0.00300000012
v 0.050498991 0.0527980995 0.00100000001
v 0.0504852867 0.0527717829 0.00300000012
v 0.0503367043 0.059825182 0.00100000001
v 0.0504735279 0.0598530197 0.00300000012
v 0.0507485247 0.0440984917 0.00100000001
v 0.0506108141 0.0441215372 0.00300000012
v 0.0506423187 0.0509769154 0.00100000001
v 0.0507366514 0.0508624792 0.00300000012
v 0.0505131483 0.0511758232 0.00100000001
v 0.050624671 0.0510007668 0.00300000012
v 0.050624671 0.0529992342 0.00100000001
v 0.0505131483 0.0528241777 0.00300000012
v 0.0507366514 0.0531375217 0.00100000001
v 0.0506423187 0.0530230856 0.00300000012
v 0.0506108141 0.0598784637 0.00100000001
v 0.0507485247 0.0599015045 0.00300000012
v 0.0508866167 0.0440778542 0.00100000001
v 0.0508866167 0.0440778542 0.00300000012
v 0.0508624792 0.0507366514 0.00100000001
v 0.0509769154 0.0506423187 0.00300000012
v 0.0507979202 0.0507979202 0.00100000001
v 0.0507979202 0.0507979202 0.00300000012
v 0.0508406019 0.0532433033 0.00100000001
v 0.0507566977 0.053159399 0.00300000012
v 0.0509769154 0.0533576822 0.00100000001
v 0.0508624792 0.0532633448 0.00300000012
v 0.0508866167 0.0599221468 0.00100000001
v 0.0508866167 0.0599221468 0.00300000012
v 0.0511637735 0.0440438271 0.00100000001
v 0.0510250473 0.0440596294 0.00300000012
v 0.0512018967 0.050498991 0.00100000001
v 0.0512282181 0.0504852867 0.00300000012
v 0.0510007668 0.050624671 0.00100000001
v 0.0511758232 0.0505131483 0.00300000012
v 0.0511758232 0.0534868526 0.00100000001
v 0.0510007668 0.05337533 0.00300000012
v 0.0512282181 0.0535147095 0.00100000001
v 0.0512018967 0.0535010099 0.00300000012
v 0.0510250473 0.0599403715 0.00100000001
v 0.0511637735 0.0599561739 0.00300000012
v 0.051441946 0.0440194893 0.00100000001
v 0.0513027525 0.0440304422 0.00300000012
v 0.0512547684 0.0504720497 0.00100000001
v 0.0514746714 0.0503832054 0.00300000012
v 0.0514746714 0.0536167955 0.00100000001
v 0.0512547684 0.0535279512 0.00300000012
v 0.0513027525 0.0599695587 0.00100000001
v 0.051441946 0.0599805117 0.00300000012
v 0.0517208052 0.0440048742 0.00100000001
v 0.0515813112 0.0440109634 0.00300000012
v 0.0515029669 0.0503742838 0.00100000001
v 0.0517340612 0.0503209305 0.00300000012
v 0.0517340612 0.0536790705 0.00100000001
v 0.0515029669 0.0536257172 0.00300000012
v 0.0515813112 0.0599890375 0.00100000001
v 0.0517208052 0.0599951267 0.00300000012
v 0.0519999981 0.044000001 0.00100000001
v 0.0518603802 0.0440012169 0.00300000012
v 0.0517634058 0.0503165436 0.00100000001
v 0.0519999981 0.0503000021 0.00300000012
v 0.0519999981 0.0536999989 0.00100000001
v 0.0517634058 0.0536834574 0.00300000012
v 0.0518603802 0.0599987793 0.00100000001
v 0.0518603802 0.0599987793 0.00300000012
v 0.0519999981 0.06 0.00100000001
v 0.0519999981 0.06 0.00300000012
v 0.0521396208 0.0440012169 0.00100000001
v 0.0521396208 0.0440012169 0.00300000012
v 0.0520296669 0.0503002596 0.00100000001
v 0.0522365952 0.0503165436 0.00300000012
v 0.0522365952 0.0536834574 0.00100000001
v 0.0520296669 0.0536997414 0.00300000012
v 0.0521396208 0.0599987793 0.00100000001
v 0.0521396208 0.0599987793 0.00300000012
v 0.0524186897 0.0440109634 0.00100000001
v 0.0522791958 0.0440048742 0.00300000012
v 0.0522659397 0.0503209305 0.00100000001
v 0.0524970341 0.0503742838 0.00300000012
v 0.0524970341 0.0536257172 0.00100000001
v 0.0522659397 0.0536790705 0.00300000012
v 0.0522791958 0.0599951267 0.00100000001
v 0.0524186897 0.0599890375 0.00300000012
v 0.0526972437 0.0440304422 0.00100000001
v 0.0525580502 0.0440194893 0.00300000012
v 0.0525253296 0.0503832054 0.00100000001
v 0.0527452326 0.0504720497 0.00300000012
v 0.0527452326 0.0535279512 0.00100000001
v 0.0525253296 0.0536167955 0.00300000012
v 0.0525580502 0.0599805117 0.00100000001
v 0.0526972437 0.0599695587 0.00300000012
v 0.0529749537 0.0440596294 0.00100000001
v 0.0528362274 0.0440438271 0.00300000012
v 0.0527717829 0.0504852867 0.00100000001
v 0.0527980995 0.050498991 0.00300000012
v 0.0528241777 0.0505131483 0.00100000001
v 0.0529992342 0.050624671 0.00300000012
v 0.0529992342 0.05337533 0.00100000001
v 0.0528241777 0.0534868526 0.00300000012
v 0.0527980995 0.0535010099 0.00100000001
v 0.0527717829 0.0535147095 0.00300000012
v 0.0528362274 0.0599561739 0.00100000001
v 0.0529749537 0.0599403715 0.00300000012
v 0.0531133842 0.0440778542 0.00100000001
v 0.0531133842 0.0440778542 0.00300000012
v 0.0530230856 0.0506423187 0.00100000001
v 0.0531375217 0.0507366514 0.00300000012
v 0.053159399 0.0507566977 0.00100000001
v 0.0532433033 0.0508406019 0.00300000012
v 0.0532433033 0.053159399 0.00100000001
v 0.053159399 0.0532433033 0.00300000012
v 0.0531375217 0.0532633448 0.00100000001
v 0.0530230856 0.0533576822 0.00300000012
v 0.0531133842 0.0599221468 0.00100000001
v 0.0531133842 0.0599221468 0.00300000012
v 0.0533891869 0.0441215372 0.00100000001
v 0.0532514763 0.0440984917 0.00300000012
v 0.0532633448 0.0508624792 0.00100000001
v 0.0533576822 0.0509769154 0.00300000012
v 0.05337533 0.0510007668 0.00100000001
v 0.0534868526 0.0511758232 0.00300000012
v 0.0534868526 0.0528241777 0.00100000001
v 0.05337533 0.0529992342 0.00300000012
v 0.0533576822 0.0530230856 0.00100000001
v 0.0532633448 0.0531375217 0.00300000012
v 0.0532514763 0.0599015045 0.00100000001
v 0.0533891869 0.0598784637 0.00300000012
v 0.0536632919 0.044174819 0.00100000001
v 0.053526473 0.0441469812 0.00300000012
v 0.0535010099 0.0512018967 0.00100000001
v 0.0535147095 0.0512282181 0.00300000012
v 0.0535279512 0.0512547684 0.00100000001
v 0.0536167955 0.0514746714 0.00300000012
v 0.0536257172 0.0515029669 0.00100000001
v 0.0536790705 0.0517340612 0.00300000012
v 0.0536834574 0.0517634058 0.00100000001
v 0.0536999989 0.0519999981 0.00300000012
v 0.0536997414 0.0520296669 0.00100000001
v 0.0536834574 0.0522365952 0.00300000012
v 0.0536790705 0.0522659397 0.00100000001
v 0.0536257172 0.0524970341 0.00300000012
v 0.0536167955 0.0525253296 0.00100000001
v 0.0535279512 0.0527452326 0.00300000012
v 0.0535147095 0.0527717829 0.00100000001
v 0.0535010099 0.0527980995 0.00300000012
v 0.053526473 0.0598530197 0.00100000001
v 0.0536632919 0.059825182 0.00300000012
v 0.0539353752 0.0442376328 0.00100000001
v 0.0537996101 0.0442050409 0.00300000012
v 0.0537996101 0.05979496 0.00100000001
v 0.0539353752 0.0597623634 0.00300000012
v 0.0542050982 0.044309907 0.00100000001
v 0.0540705538 0.0442725945 0.00300000012
v 0.0540705538 0.0597274065 0.00100000001
v 0.0542050982 0.059690094 0.00300000012
v 0.0544721365 0.0443915462 0.00100000001
v 0.054338975 0.0443495607 0.00300000012
v 0.054338975 0.0596504402 0.00100000001
v 0.0544721365 0.0596084499 0.00300000012
v 0.0547361612 0.04448246 0.00100000001
v 0.0546045446 0.0444358492 0.00300000012
v 0.0546045446 0.059564147 0.00100000001
v 0.0547361612 0.0595175409 0.00300000012
v 0.0549968529 0.0445825291 0.00100000001
v 0.0548669434 0.0445313549 0.00300000012
v 0.0548669434 0.0594686413 0.00100000001
v 0.0549968529 0.0594174719 0.00300000012
v 0.0551258469 0.0446359634 0.00100000001
v 0.0551258469 0.0446359634 0.00300000012
v 0.0551258469 0.0593640375 0.00100000001
v 0.0551258469 0.0593640375 0.00300000012
v 0.0553809452 0.0447495365 0.00100000001
v 0.0552538919 0.0446916342 0.00300000012
v 0.0552538919 0.059308362 0.00100000001
v 0.0553809452 0.0592504644 0.00300000012
v 0.0556319237 0.0448719501 0.00100000001
v 0.0555069685 0.0448096466 0.00300000012
v 0.0555069685 0.0591903543 0.00100000001
v 0.0556319237 0.0591280508 0.00300000012
v 0.0557557726 0.0449364185 0.00100000001
v 0.0557557726 0.0449364185 0.00300000012
v 0.055999999 0.0450717974 0.00100000001
v 0.0558784771 0.0450030422 0.00300000012
v 0.0558784771 0.0589969587 0.00100000001
v 0.055999999 0.0589282036 0.00300000012
v 0.0557557726 0.0590635824 0.00100000001
v 0.0557557726 0.0590635824 0.00300000012
v 0.0562393522 0.0452156162 0.00100000001
v 0.0561203051 0.0451426601 0.00300000012
v 0.0561203051 0.058857336 0.00100000001
v 0.0562393522 0.0587843847 0.00300000012
v 0.0564735413 0.0453676987 0.00100000001
v 0.0563571119 0.045290637 0.00300000012
v 0.0563571119 0.0587093639 0.00100000001
v 0.0564735413 0.0586323023 0.00300000012
v 0.0565886116 0.0454467821 0.00100000001
v 0.0565886116 0.0454467821 0.00300000012
v 0.05670228 0.0455278635 0.00100000001
v 0.05670228 0.0455278635 0.00300000012
v 0.05670228 0.0584721375 0.00100000001
v 0.05670228 0.0584721375 0.00300000012
v 0.0565886116 0.0585532141 0.00100000001
v 0.0565886116 0.0585532141 0.00300000012
v 0.056925292 0.0456959152 0.00100000001
v 0.056814518 0.0456109142 0.00300000012
v 0.056814518 0.058389082 0.00100000001
v 0.056925292 0.0583040857 0.00300000012
v 0.0572484732 0.0459623241 0.00100000001
v 0.057034564 0.0457828331 0.00300000012
v 0.057034564 0.0582171679 0.00100000001
v 0.0572484732 0.0580376768 0.00300000012
v 0.0574559879 0.046149168 0.00100000001
v 0.0573530436 0.0460548401 0.00300000012
v 0.0573530436 0.0579451609 0.00100000001
v 0.0574559879 0.0578508282 0.00300000012
v 0.0575572681 0.0462452793 0.00100000001
v 0.0575572681 0.0462452793 0.00300000012
v 0.0576568556 0.0463431454 0.00100000001
v 0.0576568556 0.0463431454 0.00300000012
v 0.0576568556 0.0576568556 0.00100000001
v 0.0576568556 0.0576568556 0.00300000012
v 0.0575572681 0.0577547169 0.00100000001
v 0.0575572681 0.0577547169 0.00300000012
v 0.0577547169 0.0464427328 0.00100000001
v 0.0577547169 0.0464427328 0.00300000012
v 0.0579451609 0.0466469574 0.00100000001
v 0.0578508282 0.046544013 0.00300000012
v 0.0578508282 0.0574559879 0.00100000001
v 0.0579451609 0.0573530436 0.00300000012
v 0.0577547169 0.0575572681 0.00100000001
v 0.0577547169 0.0575572681 0.00300000012
v 0.0582171679 0.0469654369 0.00100000001
v 0.0580376768 0.0467515278 0.00300000012
v 0.0580376768 0.0572484732 0.00100000001
v 0.0582171679 0.057034564 0.00300000012
v 0.058389082 0.0471854782 0.00100000001
v 0.0583040857 0.0470747089 0.00300000012
v 0.0584721375 0.0472977161 0.00100000001
v 0.0584721375 0.0472977161 0.00300000012
v 0.0584721375 0.05670228 0.00100000001
v 0.0584721375 0.05670228 0.00300000012
v 0.0583040857 0.056925292 0.00100000001
v 0.058389082 0.056814518 0.00300000012
v 0.0585532141 0.0474113894 0.00100000001
v 0.0585532141 0.0474113894 0.00300000012
v 0.0587093639 0.047642889 0.00100000001
v 0.0586323023 0.0475264549 0.00300000012
v 0.0586323023 0.0564735413 0.00100000001
v 0.0587093639 0.0563571119 0.00300000012
v 0.0585532141 0.0565886116 0.00100000001
v 0.0585532141 0.0565886116 0.00300000012
v 0.058857336 0.0478796959 0.00100000001
v 0.0587843847 0.047760644 0.00300000012
v 0.0589969587 0.0481215239 0.00100000001
v 0.0589282036 0.0480000019 0.00300000012
v 0.0589282036 0.055999999 0.00100000001
v 0.0589969587 0.0558784771 0.00300000012
v 0.0587843847 0.0562393522 0.00100000001
v 0.058857336 0.0561203051 0.00300000012
v 0.0590635824 0.0482442284 0.00100000001
v 0.0590635824 0.0482442284 0.00300000012
v 0.0591903543 0.0484930325 0.00100000001
v 0.0591280508 0.0483680773 0.00300000012
v 0.0591280508 0.0556319237 0.00100000001
v 0.0591903543 0.0555069685 0.00300000012
v 0.0590635824 0.0557557726 0.00100000001
v 0.0590635824 0.0557557726 0.00300000012
v 0.059308362 0.048746109 0.00100000001
v 0.0592504644 0.0486190557 0.00300000012
v 0.0593640375 0.0488741493 0.00100000001
v 0.0593640375 0.0488741493 0.00300000012
v 0.0594686413 0.0491330576 0.00100000001
v 0.0594174719 0.0490031481 0.00300000012
v 0.0594174719 0.0549968529 0.00100000001
v 0.0594686413 0.0548669434 0.00300000012
v 0.0593640375 0.0551258469 0.00100000001
v 0.0593640375 0.0551258469 0.00300000012
v 0.0592504644 0.0553809452 0.00100000001
v 0.059308362 0.0552538919 0.00300000012
v 0.059564147 0.0493954563 0.00100000001
v 0.0595175409 0.0492638397 0.00300000012
v 0.0596504402 0.049661026 0.00100000001
v 0.0596084499 0.0495278645 0.00300000012
v 0.0597274065 0.0499294472 0.00100000001
v 0.059690094 0.0497949028 0.00300000012
v 0.059690094 0.0542050982 0.00100000001
v 0.0597274065 0.0540705538 0.00300000012
v 0.0596084499 0.0544721365 0.00100000001
v 0.0596504402 0.054338975 0.00300000012
v 0.0595175409 0.0547361612 0.00100000001
v 0.059564147 0.0546045446 0.00300000012
v 0.05979496 0.0502003908 0.00100000001
v 0.0597623634 0.0500646257 0.00300000012
v 0.0598530197 0.0504735279 0.00100000001
v 0.059825182 0.0503367043 0.00300000012
v 0.0599015045 0.0507485247 0.00100000001
v 0.0598784637 0.0506108141 0.00300000012
v 0.0599221468 0.0508866167 0.00100000001
v 0.0599221468 0.0508866167 0.00300000012
v 0.0599561739 0.0511637735 0.00100000001
v 0.0599403715 0.0510250473 0.00300000012
v 0.0599805117 0.051441946 0.00100000001
v 0.0599695587 0.0513027525 0.00300000012
v 0.0599951267 0.0517208052 0.00100000001
v 0.0599890375 0.0515813112 0.00300000012
v 0.0599987793 0.0518603802 0.00100000001
v 0.0599987793 0.0518603802 0.00300000012
v 0.0599987793 0.0521396208 0.00100000001
v 0.0599987793 0.0521396208 0.00300000012
v 0.0599890375 0.0524186897 0.00100000001
v 0.0599951267 0.0522791958 0.00300000012
v 0.0599695587 0.0526972437 0.00100000001
v 0.0599805117 0.0525580502 0.00300000012
v 0.0599403715 0.0529749537 0.00100000001
v 0.0599561739 0.0528362274 0.00300000012
v 0.0599221468 0.0531133842 0.00100000001
v 0.0599221468 0.0531133842 0.00300000012
v 0.0598784637 0.0533891869 0.00100000001
v 0.0599015045 0.0532514763 0.00300000012
v 0.059825182 0.0536632919 0.00100000001
v 0.0598530197 0.053526473 0.00300000012
v 0.0597623634 0.0539353752 0.00100000001
v 0.05979496 0.0537996101 0.00300000012
v 0.06 0.0519999981 0.00100000001
v 0.06 0.0519999981 0.00300000012
f 1 2 3
f 1 38 2
f 337 1 3
f 37 38 1
f 341 37 1
f 341 1 337
f 3 2 4
f 2 216 4
f 38 216 2
f 3 4 5
f 317 3 5
f 337 3 317
f 5 4 6
f 4 216 6
f 5 6 7
f 305 5 7
f 317 5 305
f 7 6 8
f 6 216 8
f 7 8 9
f 293 7 9
f 305 7 293
f 9 8 10
f 8 216 10
f 9 10 11
f 281 9 11
f 293 9 281
f 11 10 12
f 10 216 12
f 11 12 13
f 273 11 13
f 281 11 273
f 13 12 14
f 12 216 14
f 13 14 15
f 265 13 15
f 273 13 265
f 15 14 16
f 14 216 16
f 15 16 17
f 255 15 17
f 257 15 255
f 265 15 257
f 17 16 18
f 16 216 18
f 17 18 19
f 247 17 19
f 255 17 247
f 19 18 20
f 18 216 20
f 19 20 21
f 239 19 21
f 247 19 239
f 21 20 22
f 20 216 22
f 21 22 23
f 231 21 23
f 239 21 231
f 23 22 24
f 22 216 24
f 23 24 25
f 219 23 25
f 231 23 219
f 25 24 26
f 24 216 26
f 25 26 27
f 207 25 27
f 219 25 207
f 27 26 28
f 26 216 28
f 27 28 29
f 195 27 29
f 207 27 195
f 29 28 30
f 28 216 30
f 29 30 31
f 175 29 31
f 195 29 175
f 31 30 32
f 30 216 32
f 31 32 39
f 171 31 39
f 175 31 171
f 39 32 40
f 32 216 40
f 33 34 35
f 33 50 34
f 349 33 35
f 49 50 33
f 353 49 33
f 353 33 349
f 35 34 36
f 34 216 36
f 50 216 34
f 35 36 37
f 345 35 37
f 349 35 345
f 37 36 38
f 36 216 38
f 345 37 341
f 39 40 41
f 167 39 41
f 171 39 167
f 41 40 42
f 40 216 42
f 41 42 43
f 163 41 43
f 167 41 163
f 43 42 44
f 42 216 44
f 43 44 51
f 159 43 51
f 163 43 159
f 51 44 52
f 44 216 52
f 45 46 47
f 45 60 46
f 361 45 47
f 59 60 45
f 365 59 45
f 365 45 361
f 47 46 48
f 46 216 48
f 60 216 46
f 47 48 49
f 357 47 49
f 361 47 357
f 49 48 50
f 48 216 50
f 357 49 353
f 51 52 53
f 155 51 53
f 159 51 155
f 53 52 54
f 52 216 54
f 53 54 55
f 151 53 55
f 155 53 151
f 55 54 56
f 54 216 56
f 55 56 61
f 147 55 61
f 151 55 147
f 61 56 62
f 56 216 62
f 57 58 59
f 57 68 58
f 369 57 59
f 67 68 57
f 377 67 57
f 377 57 369
f 59 58 60
f 58 216 60
f 68 216 58
f 369 59 365
f 61 62 63
f 143 61 63
f 147 61 143
f 63 62 64
f 62 216 64
f 63 64 69
f 141 63 69
f 143 63 141
f 69 64 70
f 64 216 70
f 65 66 67
f 65 76 66
f 375 65 67
f 75 76 65
f 75 65 381
f 381 65 375
f 67 66 68
f 66 216 68
f 76 216 66
f 375 67 377
f 69 70 71
f 135 69 71
f 141 69 135
f 71 70 72
f 70 216 72
f 71 72 77
f 131 71 77
f 135 71 131
f 77 72 78
f 72 216 78
f 73 74 75
f 73 84 74
f 191 73 75
f 83 84 73
f 189 83 73
f 189 73 191
f 75 74 76
f 74 192 76
f 84 190 74
f 190 192 74
f 191 75 193
f 193 75 203
f 203 75 205
f 205 75 215
f 215 75 381
f 192 194 76
f 76 194 204
f 76 204 206
f 76 206 216
f 77 78 79
f 127 77 79
f 131 77 127
f 79 78 80
f 78 216 80
f 79 80 85
f 125 79 85
f 127 79 125
f 85 80 86
f 80 216 86
f 81 82 83
f 81 90 82
f 187 81 83
f 89 90 81
f 183 89 81
f 183 81 185
f 185 81 187
f 83 82 84
f 82 188 84
f 90 184 82
f 184 186 82
f 186 188 82
f 187 83 189
f 84 188 190
f 85 86 87
f 119 85 87
f 125 85 119
f 87 86 88
f 86 216 88
f 87 88 91
f 115 87 91
f 119 87 115
f 91 88 92
f 88 216 92
f 89 96 90
f 95 96 89
f 181 95 89
f 181 89 183
f 96 182 90
f 90 182 184
f 91 92 97
f 111 91 97
f 115 91 111
f 97 92 98
f 92 216 98
f 93 94 95
f 93 104 94
f 201 93 95
f 103 104 93
f 199 103 93
f 199 93 201
f 95 94 96
f 94 202 96
f 104 200 94
f 94 200 202
f 179 95 181
f 201 95 179
f 96 180 182
f 202 180 96
f 97 98 99
f 107 97 99
f 111 97 107
f 99 98 100
f 98 216 100
f 99 100 105
f 107 99 105
f 105 100 106
f 100 216 106
f 101 102 103
f 101 110 102
f 213 101 103
f 109 110 101
f 101 211 109
f 101 213 211
f 103 102 104
f 102 214 104
f 110 212 102
f 212 214 102
f 213 103 199
f 214 200 104
f 105 106 107
f 107 106 108
f 106 216 108
f 107 108 111
f 111 108 112
f 108 216 112
f 109 114 110
f 113 114 109
f 109 225 113
f 109 211 225
f 114 226 110
f 110 226 212
f 111 112 115
f 115 112 116
f 112 218 116
f 112 216 218
f 113 118 114
f 117 118 113
f 113 243 117
f 113 225 223
f 113 223 235
f 235 243 113
f 118 244 114
f 114 224 226
f 114 236 224
f 244 236 114
f 115 116 119
f 119 116 120
f 116 218 120
f 117 124 118
f 123 124 117
f 117 251 123
f 117 243 251
f 124 252 118
f 118 252 244
f 119 120 125
f 125 120 126
f 120 218 126
f 121 122 123
f 121 130 122
f 123 261 121
f 129 130 121
f 121 269 129
f 261 269 121
f 123 122 124
f 122 262 124
f 130 270 122
f 122 270 262
f 123 251 261
f 262 252 124
f 125 126 127
f 127 126 128
f 126 228 128
f 126 218 228
f 127 128 131
f 131 128 132
f 128 228 132
f 129 134 130
f 133 134 129
f 129 287 133
f 129 269 277
f 129 277 285
f 129 285 287
f 134 288 130
f 130 278 270
f 130 286 278
f 288 286 130
f 131 132 135
f 135 132 136
f 132 228 136
f 133 140 134
f 139 140 133
f 299 139 133
f 287 297 133
f 297 299 133
f 448 134 140
f 298 288 134
f 300 298 134
f 450 300 134
f 450 134 448
f 135 136 141
f 141 136 142
f 136 228 142
f 137 138 139
f 137 146 138
f 137 139 299
f 145 146 137
f 299 145 137
f 139 138 140
f 458 140 138
f 456 138 146
f 458 138 456
f 448 140 458
f 141 142 143
f 143 142 144
f 142 228 144
f 143 144 147
f 147 144 148
f 144 230 148
f 144 228 230
f 145 150 146
f 149 150 145
f 149 145 299
f 470 146 150
f 456 146 470
f 147 148 151
f 151 148 152
f 148 238 152
f 148 230 238
f 149 154 150
f 153 154 149
f 299 153 149
f 468 150 154
f 470 150 468
f 151 152 155
f 155 152 156
f 152 238 156
f 153 158 154
f 157 158 153
f 157 153 299
f 466 154 158
f 468 154 466
f 155 156 159
f 159 156 160
f 156 238 160
f 157 162 158
f 161 162 157
f 299 161 157
f 482 158 162
f 466 158 482
f 159 160 163
f 163 160 164
f 160 238 164
f 161 166 162
f 165 166 161
f 299 165 161
f 480 162 166
f 482 162 480
f 163 164 167
f 167 164 168
f 164 238 168
f 165 170 166
f 169 170 165
f 169 165 299
f 478 166 170
f 480 166 478
f 167 168 171
f 171 168 172
f 168 246 172
f 168 238 246
f 169 174 170
f 173 174 169
f 299 173 169
f 514 170 174
f 478 170 514
f 171 172 175
f 175 172 176
f 172 246 176
f 173 178 174
f 177 178 173
f 299 177 173
f 512 174 178
f 514 174 512
f 175 176 195
f 195 176 196
f 176 246 196
f 177 198 178
f 197 198 177
f 197 177 299
f 510 178 198
f 512 178 510
f 179 182 180
f 179 180 201
f 181 182 179
f 201 180 202
f 181 184 182
f 183 184 181
f 183 186 184
f 185 186 183
f 185 188 186
f 187 188 185
f 187 190 188
f 189 190 187
f 189 192 190
f 191 192 189
f 191 194 192
f 193 194 191
f 193 204 194
f 203 204 193
f 195 196 207
f 207 196 208
f 196 246 208
f 197 210 198
f 209 210 197
f 299 209 197
f 508 198 210
f 510 198 508
f 199 202 200
f 199 200 213
f 201 202 199
f 213 200 214
f 203 206 204
f 205 206 203
f 205 216 206
f 215 216 205
f 207 208 219
f 219 208 220
f 208 246 220
f 209 222 210
f 221 222 209
f 221 209 299
f 506 210 222
f 508 210 506
f 211 214 212
f 211 212 225
f 213 214 211
f 225 212 226
f 215 218 216
f 217 218 215
f 215 381 217
f 217 228 218
f 227 228 217
f 217 381 227
f 219 220 231
f 231 220 232
f 220 254 232
f 220 246 254
f 221 234 222
f 233 234 221
f 299 233 221
f 504 222 234
f 506 222 504
f 223 226 224
f 223 224 235
f 225 226 223
f 235 224 236
f 227 230 228
f 229 230 227
f 227 381 229
f 229 238 230
f 237 238 229
f 229 381 237
f 231 232 239
f 239 232 240
f 232 254 240
f 233 242 234
f 241 242 233
f 299 241 233
f 502 234 242
f 504 234 502
f 235 236 243
f 243 236 244
f 237 246 238
f 245 246 237
f 237 381 245
f 239 240 247
f 247 240 248
f 240 254 248
f 241 250 242
f 249 250 241
f 249 241 299
f 500 242 250
f 502 242 500
f 243 244 251
f 251 244 252
f 245 254 246
f 253 254 245
f 245 381 253
f 247 248 255
f 248 254 256
f 255 248 256
f 249 260 250
f 259 260 249
f 249 515 259
f 299 515 249
f 498 250 260
f 516 250 498
f 500 250 516
f 251 252 261
f 261 252 262
f 253 264 254
f 263 264 253
f 253 381 263
f 256 254 258
f 258 254 266
f 398 254 264
f 266 254 274
f 274 254 282
f 282 254 294
f 294 254 306
f 306 254 318
f 318 254 338
f 338 254 342
f 342 254 346
f 346 254 350
f 350 254 354
f 354 254 358
f 358 254 362
f 362 254 366
f 366 254 370
f 370 254 378
f 378 254 376
f 376 254 382
f 382 254 386
f 386 254 394
f 394 254 392
f 392 254 398
f 255 256 257
f 257 256 258
f 257 258 265
f 265 258 266
f 259 268 260
f 267 268 259
f 259 497 267
f 259 515 497
f 496 260 268
f 498 260 496
f 261 262 269
f 269 262 270
f 263 272 264
f 271 272 263
f 263 381 271
f 398 264 272
f 265 266 273
f 273 266 274
f 267 276 268
f 275 276 267
f 267 495 275
f 267 497 495
f 494 268 276
f 496 268 494
f 269 270 277
f 277 270 278
f 271 280 272
f 279 280 271
f 271 381 279
f 402 272 280
f 398 272 402
f 273 274 281
f 281 274 282
f 275 284 276
f 283 284 275
f 275 493 283
f 275 495 493
f 492 276 284
f 494 276 492
f 277 278 285
f 285 278 286
f 279 292 280
f 291 292 279
f 279 381 291
f 406 280 292
f 402 280 406
f 281 282 293
f 293 282 294
f 283 296 284
f 295 296 283
f 283 491 295
f 283 493 491
f 490 284 296
f 492 284 490
f 285 286 287
f 287 286 288
f 287 288 297
f 297 288 298
f 289 290 291
f 289 304 290
f 291 381 289
f 303 304 289
f 289 397 303
f 289 381 385
f 289 385 393
f 289 393 391
f 289 391 397
f 291 290 292
f 292 290 406
f 414 290 304
f 406 290 414
f 293 294 305
f 305 294 306
f 295 308 296
f 307 308 295
f 295 489 307
f 295 491 489
f 488 296 308
f 490 296 488
f 297 298 299
f 299 298 300
f 299 300 309
f 309 515 299
f 309 300 310
f 310 300 450
f 301 302 303
f 301 316 302
f 303 405 301
f 315 316 301
f 301 419 315
f 301 405 413
f 301 413 411
f 301 411 421
f 301 421 419
f 303 302 304
f 412 304 302
f 302 316 422
f 412 302 422
f 303 397 401
f 303 401 405
f 414 304 412
f 305 306 317
f 317 306 318
f 307 320 308
f 319 320 307
f 307 487 319
f 307 489 487
f 486 308 320
f 488 308 486
f 309 310 311
f 311 515 309
f 311 310 312
f 312 310 450
f 311 312 321
f 321 515 311
f 321 312 322
f 440 322 312
f 440 312 450
f 313 314 315
f 313 336 314
f 315 433 313
f 335 336 313
f 313 447 335
f 313 433 431
f 313 431 441
f 313 441 439
f 313 439 449
f 313 449 447
f 315 314 316
f 420 316 314
f 426 314 336
f 420 314 426
f 315 419 425
f 315 425 433
f 422 316 420
f 317 318 337
f 337 318 338
f 319 340 320
f 339 340 319
f 319 485 339
f 319 487 485
f 484 320 340
f 486 320 484
f 321 322 323
f 323 515 321
f 323 322 324
f 440 324 322
f 323 324 325
f 325 499 323
f 323 499 515
f 325 324 326
f 440 326 324
f 325 326 327
f 327 499 325
f 327 326 328
f 328 326 442
f 442 326 440
f 327 328 329
f 329 499 327
f 329 328 330
f 432 330 328
f 432 328 442
f 329 330 331
f 331 509 329
f 329 501 499
f 329 503 501
f 329 505 503
f 329 507 505
f 329 509 507
f 331 330 332
f 434 332 330
f 434 330 432
f 331 332 333
f 333 479 331
f 331 479 477
f 331 477 513
f 331 511 509
f 331 513 511
f 333 332 334
f 334 332 426
f 426 332 434
f 333 334 335
f 335 455 333
f 333 455 469
f 333 467 465
f 333 465 481
f 333 469 467
f 333 481 479
f 335 334 336
f 426 336 334
f 335 447 457
f 335 457 455
f 337 338 341
f 341 338 342
f 339 344 340
f 343 344 339
f 339 483 343
f 339 485 483
f 476 340 344
f 484 340 476
f 341 342 345
f 345 342 346
f 343 348 344
f 347 348 343
f 343 475 347
f 343 483 475
f 474 344 348
f 476 344 474
f 345 346 349
f 349 346 350
f 347 352 348
f 351 352 347
f 347 473 351
f 347 475 473
f 472 348 352
f 474 348 472
f 349 350 353
f 353 350 354
f 351 356 352
f 355 356 351
f 351 471 355
f 351 473 471
f 464 352 356
f 472 352 464
f 353 354 357
f 357 354 358
f 355 360 356
f 359 360 355
f 355 463 359
f 355 471 463
f 462 356 360
f 464 356 462
f 357 358 361
f 361 358 362
f 359 364 360
f 363 364 359
f 359 461 363
f 359 463 461
f 460 360 364
f 462 360 460
f 361 362 365
f 365 362 366
f 363 368 364
f 367 368 363
f 363 459 367
f 363 461 459
f 454 364 368
f 460 364 454
f 365 366 369
f 369 366 370
f 367 372 368
f 371 372 367
f 367 453 371
f 367 459 453
f 452 368 372
f 454 368 452
f 369 370 377
f 377 370 378
f 371 374 372
f 373 374 371
f 371 451 373
f 371 453 451
f 446 372 374
f 452 372 446
f 373 380 374
f 379 380 373
f 373 445 379
f 373 451 445
f 444 374 380
f 446 374 444
f 375 378 376
f 375 376 381
f 377 378 375
f 381 376 382
f 379 384 380
f 383 384 379
f 379 443 383
f 379 445 443
f 438 380 384
f 444 380 438
f 381 382 385
f 385 382 386
f 383 388 384
f 387 388 383
f 383 437 387
f 383 443 437
f 436 384 388
f 438 384 436
f 385 386 393
f 393 386 394
f 387 390 388
f 389 390 387
f 387 435 389
f 387 437 435
f 430 388 390
f 436 388 430
f 389 396 390
f 395 396 389
f 389 429 395
f 389 435 429
f 428 390 396
f 430 390 428
f 391 394 392
f 391 392 397
f 393 394 391
f 397 392 398
f 395 400 396
f 399 400 395
f 395 427 399
f 395 429 427
f 424 396 400
f 428 396 424
f 397 398 401
f 401 398 402
f 399 404 400
f 403 404 399
f 399 423 403
f 399 427 423
f 418 400 404
f 424 400 418
f 401 402 405
f 405 402 406
f 403 408 404
f 407 408 403
f 403 417 407
f 403 423 417
f 416 404 408
f 418 404 416
f 405 406 413
f 413 406 414
f 407 410 408
f 409 410 407
f 407 415 409
f 407 417 415
f 416 408 410
f 409 416 410
f 415 416 409
f 411 414 412
f 411 412 421
f 413 414 411
f 421 412 422
f 415 418 416
f 417 418 415
f 417 424 418
f 423 424 417
f 419 422 420
f 419 420 425
f 421 422 419
f 425 420 426
f 423 428 424
f 427 428 423
f 425 426 433
f 433 426 434
f 427 430 428
f 429 430 427
f 429 436 430
f 435 436 429
f 431 434 432
f 431 432 441
f 433 434 431
f 441 432 442
f 435 438 436
f 437 438 435
f 437 444 438
f 443 444 437
f 439 442 440
f 439 440 449
f 441 442 439
f 449 440 450
f 443 446 444
f 445 446 443
f 445 452 446
f 451 452 445
f 447 450 448
f 447 448 457
f 449 450 447
f 457 448 458
f 451 454 452
f 453 454 451
f 453 460 454
f 459 460 453
f 455 458 456
f 455 456 469
f 457 458 455
f 469 456 470
f 459 462 460
f 461 462 459
f 461 464 462
f 463 464 461
f 463 472 464
f 471 472 463
f 465 468 466
f 465 466 481
f 467 468 465
f 481 466 482
f 467 470 468
f 469 470 467
f 471 474 472
f 473 474 471
f 473 476 474
f 475 476 473
f 475 484 476
f 483 484 475
f 477 480 478
f 477 478 513
f 479 480 477
f 513 478 514
f 479 482 480
f 481 482 479
f 483 486 484
f 485 486 483
f 485 488 486
f 487 488 485
f 487 490 488
f 489 490 487
f 489 492 490
f 491 492 489
f 491 494 492
f 493 494 491
f 493 496 494
f 495 496 493
f 495 498 496
f 497 498 495
f 497 516 498
f 515 516 497
f 499 502 500
f 499 500 515
f 501 502 499
f 515 500 516
f 501 504 502
f 503 504 501
f 503 506 504
f 505 506 503
f 505 508 506
f 507 508 505
f 507 510 508
f 509 510 507
f 509 512 510
f 511 512 509
f 511 514 512
f 513 514 511
