v 0.0412370377 -0.00729591179 0.0254370761
v 0.0412181454 -0.00727702427 0.0255015731
v 0.0412000542 -0.00725893307 0.0284334707
v 0.0412370377 -0.00729591179 0.0285629249
v 0.0411827641 -0.00724164295 0.0256319189
v 0.0411506252 -0.00720949936 0.0257639313
v 0.0410962086 -0.0071550827 0.0260323119
v 0.0410551624 -0.00711403656 0.0263054085
v 0.0410332756 -0.00709214973 0.0265125227
v 0.0410160713 -0.00707494545 0.026790657
v 0.0410121899 -0.00707106876 0.0270000005
v 0.0410190849 -0.00707795906 0.0272790265
v 0.0410397224 -0.0070985918 0.0275566936
v 0.0410641556 -0.00712303448 0.0277632356
v 0.0411085682 -0.00716744232 0.0280352759
v 0.0411662941 -0.00722516346 0.0283022738
v 0.0414957504 -0.00755462456 0.0247632289
v 0.0414419823 -0.00750085163 0.0291196775
v 0.0414161854 -0.00747505951 0.024939847
v 0.0413911324 -0.00745000648 0.025
v 0.0412771969 -0.00733607101 0.0253095269
v 0.0412567215 -0.0073156004 0.0286269474
v 0.0412984447 -0.00735732365 0.0287534857
v 0.0413911324 -0.00745000648 0.029000001
v 0.0417386894 -0.00779756355 0.0243234777
v 0.0417059784 -0.00776485252 0.0296242356
v 0.0416739159 -0.00773279476 0.0244288492
v 0.0416117935 -0.00767066288 0.0245373535
v 0.0415237122 -0.00758258152 0.0292943048
v 0.0416425209 -0.00770139503 0.0295172811
v 0.0419850044 -0.00804387856 0.0239811611
v 0.0419480305 -0.00800690937 0.0240274215
v 0.0419480305 -0.00800690937 0.0299725795
v 0.0419850044 -0.00804387856 0.0300188375
v 0.0419116383 -0.00797051239 0.0240745854
v 0.0417720394 -0.00783091354 0.0242720056
v 0.0417720394 -0.00783091354 0.029727993
v 0.0418060188 -0.00786489296 0.0297786331
v 0.0422183018 -0.0082771759 0.0237233925
v 0.0422183018 -0.0082771759 0.0302766085
v 0.0421781139 -0.00823698807 0.0237639332
v 0.042022541 -0.00808141518 0.0300641775
v 0.0424693756 -0.00852824497 0.0235015202
v 0.042496603 -0.00855547714 0.0262320566
v 0.0424472027 -0.00850608158 0.0264349437
v 0.0424873333 -0.00854620743 0.0277346539
v 0.042496603 -0.00855547714 0.0277679443
v 0.0424693756 -0.00852824497 0.0304984784
v 0.042426403 -0.00848528194 0.0235358977
v 0.0424404411 -0.00849932003 0.0264694214
v 0.0424051552 -0.00846403408 0.0267146945
v 0.0423912697 -0.00845014858 0.0269642234
v 0.0423910503 -0.00844992447 0.0270000005
v 0.0424341087 -0.00849298286 0.0274959397
v 0.0424404411 -0.00849932003 0.0275305796
v 0.0422589855 -0.00831785965 0.0303161502
v 0.0427354698 -0.00879433918 0.0233179808
v 0.0426983433 -0.00875721741 0.0257378936
v 0.0427466183 -0.0088054924 0.0283449221
v 0.0427354698 -0.00879433918 0.0306820202
v 0.0426901989 -0.00874906826 0.0233458185
v 0.0425852566 -0.00864413071 0.0259750009
v 0.0425062828 -0.00856516171 0.0261990023
v 0.0425728016 -0.00863167572 0.0279938602
v 0.0426829414 -0.00874181557 0.0282337213
v 0.0425127583 -0.00857162762 0.0305317903
v 0.0429665928 -0.00902546215 0.0231957746
v 0.0429481773 -0.00900705147 0.0253845787
v 0.0429885845 -0.00904745865 0.0286584854
v 0.0429665928 -0.00902546215 0.0308042264
v 0.0429197769 -0.00897865105 0.023217926
v 0.0428270035 -0.00888587761 0.0232656789
v 0.0428706722 -0.00892954636 0.0254765534
v 0.0427633839 -0.00882225323 0.025628283
v 0.0428520184 -0.00891089249 0.0284992743
v 0.0429283791 -0.00898725319 0.0285931492
v 0.0427810745 -0.00883994865 0.030708735
v 0.0428732376 -0.00893211651 0.0307587695
v 0.0432043629 -0.009263237 0.0231025195
v 0.0432051735 -0.00926404762 0.0251574731
v 0.0432280045 -0.00928687859 0.0288579321
v 0.0432043629 -0.009263237 0.0308974814
v 0.0431563644 -0.00921523857 0.0231188178
v 0.0430940418 -0.00915291119 0.0252428079
v 0.0430091839 -0.00906805801 0.0253207374
v 0.0430724697 -0.00913133907 0.0287384987
v 0.0431825333 -0.00924140263 0.0288265634
v 0.0430136662 -0.00907254505 0.0308252192
v 0.0434959202 -0.00955479431 0.0230298162
v 0.0434654408 -0.00952431965 0.0250198531
v 0.0434899406 -0.00954881477 0.0289891052
v 0.0434469776 -0.00950585175 0.0309610724
v 0.043398159 -0.00945703316 0.0230492473
v 0.0432510262 -0.00930990028 0.0251272321
v 0.0434410648 -0.00949993896 0.0289705873
v 0.0432525616 -0.00931143093 0.03091259
v 0.0437419109 -0.00980078506 0.0230024362
v 0.043714283 -0.00977315712 0.0249577999
v 0.0437395077 -0.00979837704 0.0290450072
v 0.0436925964 -0.0097514658 0.0309945178
v 0.0436433201 -0.00970219421 0.0230097437
v 0.0435392361 -0.00959811497 0.0249947977
v 0.0435145359 -0.0095734148 0.0250025415
v 0.0435145359 -0.0095734148 0.0289974594
v 0.0436890965 -0.00974797535 0.0290387702
v 0.0435449677 -0.00960384178 0.0309780884
v 0.0439886456 -0.0100475245 0.0230054808
v 0.0439417343 -0.0100006132 0.0249549937
v 0.0439921455 -0.0100510149 0.0290387702
v 0.0439886456 -0.0100475245 0.0309945178
v 0.0438406162 -0.00989949512 0.0229999995
v 0.0439393311 -0.00999820518 0.0230024362
v 0.0437647514 -0.00982363033 0.0249528098
v 0.043916481 -0.00997535992 0.0290471911
v 0.043791254 -0.00985013294 0.0309993911
v 0.0439947205 -0.0043967371 0.0256977272
v 0.0439369946 -0.00433901596 0.0259647226
v 0.0438925819 -0.00429460812 0.026236763
v 0.0438681488 -0.00427016544 0.0264433074
v 0.0438513832 -0.00425340462 0.0266513777
v 0.043861702 -0.00426372337 0.0274874783
v 0.0438835888 -0.0042856102 0.0276945925
v 0.0439246349 -0.00432665634 0.0279676867
v 0.0439790516 -0.004381073 0.0282360673
v 0.0439947205 -0.0043967371 0.0283022738
v 0.0438475113 -0.0042495327 0.0267209744
v 0.0438410549 -0.00424307156 0.0269301915
v 0.0438444977 -0.00424651909 0.0272093439
v 0.0438475113 -0.0042495327 0.0272790265
v 0.0442342644 -0.0102931337 0.0230389285
v 0.0441913013 -0.0102501755 0.0250108933
v 0.0442401772 -0.0102990513 0.0289705873
v 0.0442342644 -0.0102931337 0.0309610724
v 0.0441853218 -0.0102441912 0.0230298162
v 0.0440172749 -0.0100761538 0.0249652815
v 0.0441667061 -0.0102255754 0.0250025415
v 0.0441667061 -0.0102255754 0.0289974594
v 0.0441420059 -0.0102008753 0.0290052032
v 0.0440379219 -0.010096796 0.0309902573
v 0.0442446117 -0.00464663315 0.024939847
v 0.0441268711 -0.00452889252 0.0252465153
v 0.0441056232 -0.00450764465 0.0253095269
v 0.0441056232 -0.00450764465 0.028690474
v 0.0441952496 -0.00459727097 0.0289392376
v 0.0442446117 -0.00464663315 0.0290601516
v 0.044065464 -0.00446748543 0.0254370761
v 0.0440112 -0.00441321659 0.0256319189
v 0.0440465717 -0.00444859791 0.0284984255
v 0.0440851479 -0.00448716927 0.0286269474
v 0.0444768791 -0.0105357533 0.0231025195
v 0.0444532375 -0.0105121069 0.0251420689
v 0.0444987087 -0.0105575876 0.0288265634
v 0.0444768791 -0.0105357533 0.0308974814
v 0.0444286804 -0.0104875593 0.0230874085
v 0.0442644291 -0.010323308 0.0250395751
v 0.0444302158 -0.01048909 0.0288727689
v 0.044283083 -0.0103419571 0.0309507537
v 0.0444709473 -0.00487296867 0.0244827175
v 0.0443521385 -0.00475415516 0.0247056937
v 0.0444402199 -0.00484223652 0.0294626451
v 0.0444709473 -0.00487296867 0.0295172811
v 0.0442704086 -0.00467242527 0.0248803234
v 0.0443241768 -0.00472619343 0.0292367721
v 0.0447146492 -0.0107735281 0.0231957746
v 0.0446926575 -0.0107515316 0.0253415155
v 0.0447330647 -0.0107919388 0.0286154222
v 0.0447146492 -0.0107735281 0.0308042264
v 0.0446675758 -0.0107264452 0.0231747818
v 0.0445211487 -0.0105800276 0.0251899576
v 0.0446087723 -0.0106676512 0.0252615023
v 0.0446720581 -0.0107309322 0.0286792612
v 0.0445872002 -0.0106460791 0.0287571931
v 0.0445248775 -0.0105837517 0.0308811831
v 0.0446344452 -0.0050364666 0.0242213655
v 0.0446004658 -0.00500248718 0.0242720056
v 0.0446004658 -0.00500248718 0.029727993
v 0.0447400646 -0.00514208603 0.0299254155
v 0.0445023422 -0.0049043684 0.0244288492
v 0.0445671158 -0.00496913719 0.0296765232
v 0.0449910431 -0.011049922 0.0233458185
v 0.0449510555 -0.0110099297 0.0256822848
v 0.0449983006 -0.0110571699 0.0257662797
v 0.0449983006 -0.0110571699 0.0282337213
v 0.0449828987 -0.0110417728 0.028262105
v 0.0449457722 -0.0110046511 0.0306820202
v 0.0448079948 -0.0108668737 0.0232412291
v 0.0449001675 -0.0109590416 0.0232912636
v 0.0447528629 -0.0108117371 0.0254068518
v 0.0448292236 -0.0108880978 0.0255007243
v 0.0449346237 -0.0109934978 0.0283449221
v 0.0448105698 -0.0108694439 0.0285234475
v 0.0448542385 -0.0109131126 0.0307343221
v 0.0447614651 -0.0108203392 0.0307820749
v 0.0448509674 -0.00525298882 0.0239358211
v 0.0449668579 -0.00536887932 0.0301945424
v 0.0448134308 -0.00521545219 0.0239811611
v 0.0447764568 -0.00517848301 0.0240274215
v 0.0447764568 -0.00517848301 0.0299725795
v 0.0448134308 -0.00521545219 0.0300188375
v 0.0452118664 -0.0112707453 0.0235015202
v 0.0451939087 -0.0112527828 0.0262653446
v 0.0452471333 -0.0113060074 0.0265040612
v 0.0452471333 -0.0113060074 0.0274959397
v 0.0452408009 -0.0112996702 0.0275305796
v 0.0452118664 -0.0112707453 0.0304984784
v 0.0451684837 -0.0112273626 0.0234682107
v 0.0450133495 -0.0110722189 0.0257950401
v 0.0451084404 -0.0111673145 0.0260061407
v 0.045184639 -0.0112435131 0.0277679443
v 0.0450959854 -0.0111548595 0.0280250001
v 0.0450359612 -0.01109484 0.0306252313
v 0.0451285725 -0.00553059387 0.0236453176
v 0.0452335815 -0.00563560772 0.0267146945
v 0.045219696 -0.00562171745 0.0269642234
v 0.0452194767 -0.00562149811 0.0270000005
v 0.0452461128 -0.00564812946 0.0273911595
v 0.0452122955 -0.00561432171 0.0304286695
v 0.0450467281 -0.00544874954 0.0237233925
v 0.0450065403 -0.00540856171 0.0237639332
v 0.0450065403 -0.00540856171 0.0302360678
v 0.0450874119 -0.00548943329 0.0303161502
v 0.0454629402 -0.0115218143 0.0237233925
v 0.0454629402 -0.0115218143 0.0302766085
v 0.0454222565 -0.0114811306 0.0236838508
v 0.0452530365 -0.0113119106 0.0265388513
v 0.0452793865 -0.0113382607 0.0267501688
v 0.0452901917 -0.0113490658 0.0270000005
v 0.0452760868 -0.0113349562 0.0272853041
v 0.0452548294 -0.0113137083 0.0304641008
v 0.0453849678 -0.00578698921 0.0234359741
v 0.0454136829 -0.00581570435 0.0259750009
v 0.0453552895 -0.00575731087 0.0261336327
v 0.045401228 -0.00580324459 0.0279938602
v 0.0454963188 -0.00589834023 0.0282049608
v 0.0454737072 -0.00587572384 0.0306252313
v 0.0453411846 -0.00574320126 0.0234682107
v 0.0452548294 -0.00565685558 0.0235358977
v 0.0453250294 -0.00572705078 0.0262320566
v 0.0452688675 -0.00567089367 0.0264694214
v 0.0452511578 -0.0056531744 0.026573782
v 0.0452625351 -0.0056645565 0.0274959397
v 0.0453157597 -0.0057177763 0.0277346539
v 0.045344799 -0.00574682045 0.0278338099
v 0.045297802 -0.00569981861 0.0304984784
v 0.0453411846 -0.00574320126 0.0305317903
v 0.0456962376 -0.0117551117 0.0239811611
v 0.0457332115 -0.0117920809 0.0240274215
v 0.0457332115 -0.0117920809 0.0299725795
v 0.0456962376 -0.0117551117 0.0300188375
v 0.0456587009 -0.0117175751 0.0239358211
v 0.0455031281 -0.0115620022 0.0302360678
v 0.045701664 -0.00610369015 0.0232412291
v 0.0456095009 -0.00601152229 0.0232912636
v 0.0456990986 -0.00610111523 0.0254765534
v 0.0456089001 -0.00601092148 0.0256019044
v 0.0456804447 -0.00608246613 0.0284992743
v 0.0457372837 -0.00613930511 0.0285703921
v 0.0456554298 -0.00605745125 0.0307343221
v 0.0457482033 -0.00615021992 0.0307820749
v 0.0455186253 -0.0059206419 0.0233458185
v 0.0455267696 -0.00592879105 0.0257378936
v 0.0455113678 -0.00591338921 0.0257662797
v 0.0455113678 -0.00591338921 0.0282337213
v 0.0455918102 -0.00599382687 0.0283717179
v 0.0455638962 -0.00596591282 0.0306820202
v 0.0459752636 -0.0120341377 0.0243757629
v 0.0459425526 -0.0120014267 0.0296765232
v 0.0458752232 -0.0119340973 0.0242213655
v 0.0459092026 -0.0119680767 0.0242720056
v 0.0459092026 -0.0119680767 0.029727993
v 0.0457696037 -0.0118284779 0.0299254155
v 0.0458894234 -0.00629144955 0.0231549525
v 0.0459224682 -0.00632448483 0.0252428079
v 0.0458584576 -0.00626047897 0.0253004742
v 0.0459008961 -0.00630291271 0.0287384987
v 0.0459885197 -0.00639053631 0.0288100433
v 0.0459847908 -0.00638680744 0.0308811831
v 0.0457950191 -0.00619703579 0.0231957746
v 0.0457568054 -0.00615882683 0.0254068518
v 0.0458376102 -0.00623962688 0.0286792612
v 0.0458420925 -0.00624411392 0.0308252192
v 0.0462392597 -0.0122981386 0.0248803234
v 0.046212738 -0.0122716122 0.029178555
v 0.0460387211 -0.0120975952 0.0244827175
v 0.0461575298 -0.0122164087 0.0247056937
v 0.0461854916 -0.0122443657 0.0247632289
v 0.0461854916 -0.0122443657 0.0292367721
v 0.0460694485 -0.0121283274 0.0294626451
v 0.0460073166 -0.0120661955 0.0295711493
v 0.0461293583 -0.0065313797 0.0230734921
v 0.0461026554 -0.00650467682 0.0251129651
v 0.0462452393 -0.0066472559 0.0289604259
v 0.0462265854 -0.00662860203 0.0309507537
v 0.0460327892 -0.00643481064 0.0231025195
v 0.0460109596 -0.00641297626 0.0251734376
v 0.0460794525 -0.00648147392 0.0288727689
v 0.0460809879 -0.00648300457 0.03091259
v 0.0464442043 -0.0125030737 0.0254370761
v 0.0464984684 -0.0125573473 0.0256319189
v 0.0464630966 -0.012521966 0.0284984255
v 0.0464442043 -0.0125030737 0.0285629249
v 0.0462650566 -0.0123239307 0.024939847
v 0.0463827972 -0.0124416666 0.0252465153
v 0.0464245205 -0.0124833899 0.0253730536
v 0.0464040451 -0.0124629192 0.028690474
v 0.0463144188 -0.0123732929 0.0289392376
v 0.0462650566 -0.0123239307 0.0290601516
v 0.046373394 -0.00677541542 0.0230219126
v 0.0463676624 -0.00676968384 0.0249947977
v 0.0464923935 -0.00689441013 0.0290347195
v 0.0464717464 -0.00687376785 0.0309902573
v 0.046275404 -0.00667742538 0.0230389285
v 0.0462694912 -0.0066715126 0.0250294137
v 0.0463429623 -0.00674498367 0.0289974594
v 0.0463243465 -0.00672636795 0.0309701848
v 0.0465149479 -0.0125738268 0.0256977272
v 0.0465726738 -0.0126315479 0.0259647226
v 0.0466170769 -0.0126759558 0.026236763
v 0.0466415195 -0.0127003937 0.0264433074
v 0.0466621571 -0.0127210312 0.0267209744
v 0.0466686134 -0.0127274923 0.0269301915
v 0.0466690521 -0.0127279215 0.0270000005
v 0.0466479664 -0.0127068405 0.0274874783
v 0.0466260796 -0.0126849537 0.0276945925
v 0.0465850334 -0.0126439075 0.0279676867
v 0.0465306168 -0.0125894909 0.0282360673
v 0.0465149479 -0.0125738268 0.0283022738
v 0.0466690521 -0.00707106876 0.0229999995
v 0.0466196804 -0.00702170658 0.0230006099
v 0.0466184597 -0.00702047634 0.0249512482
v 0.0467449074 -0.00714693356 0.0290471911
v 0.0467184143 -0.00712043095 0.0309993911
v 0.0465210228 -0.00692303944 0.0230054808
v 0.0465175228 -0.00691954422 0.0249612308
v 0.0465931873 -0.00699520397 0.0290471911
v 0.0465703373 -0.0069723587 0.0309975624
v 0.0468663483 -0.00726836967 0.0230097437
v 0.0468707924 -0.00727280903 0.0249699497
v 0.0469951324 -0.00739714909 0.0250025415
v 0.0469951324 -0.00739714909 0.0289974594
v 0.0469704323 -0.00737244892 0.0290052032
v 0.0469647007 -0.00736671734 0.0309780884
v 0.0467677574 -0.00716977882 0.0230024362
v 0.0467701607 -0.00717218685 0.0249549937
v 0.0468457012 -0.00724772739 0.0290347195
v 0.0468170719 -0.00721909809 0.0309945178
v 0.0471115093 -0.00751353073 0.0230492473
v 0.047116993 -0.00751900959 0.0250503349
v 0.0472354393 -0.00763746071 0.0288870358
v 0.0472087364 -0.00761075783 0.0309265089
v 0.0470137482 -0.00741576481 0.0230298162
v 0.0470197277 -0.00742174911 0.0250108933
v 0.047092865 -0.00749488163 0.0289604259
v 0.0470626907 -0.00746470737 0.0309610724
v 0.0473533039 -0.00775532532 0.0231188178
v 0.047349575 -0.00775160122 0.0251899576
v 0.0474371986 -0.00783922005 0.0252615023
v 0.0474796371 -0.00788165855 0.0286995268
v 0.0474156265 -0.0078176527 0.0287571931
v 0.0474960022 -0.00789801884 0.0308252192
v 0.0472571068 -0.00765913296 0.0230874085
v 0.0472586422 -0.00766065884 0.0251272321
v 0.0473271351 -0.00772915649 0.0288265634
v 0.0473053055 -0.00770732689 0.0308974814
v 0.0476364307 -0.00803844738 0.0232412291
v 0.0476826649 -0.00808468628 0.0232656789
v 0.047600811 -0.00800283241 0.0254296088
v 0.04765765 -0.0080596714 0.0255007243
v 0.0477462845 -0.00814830589 0.0283717179
v 0.0476389961 -0.00804101753 0.0285234475
v 0.0477285938 -0.00813061523 0.030708735
v 0.0476364307 -0.00803844738 0.0307587695
v 0.0475430756 -0.00794510174 0.0231957746
v 0.0475004845 -0.00790250587 0.0253207374
v 0.0475812893 -0.0079833107 0.0285931492
v 0.0475898914 -0.00799191284 0.0307820749
v 0.047864397 -0.00826641369 0.0233747697
v 0.0478564625 -0.00825848389 0.0258241677
v 0.0479368668 -0.00833888817 0.0260061407
v 0.0479932957 -0.00839531708 0.0278338099
v 0.0479244118 -0.00832643318 0.0280250001
v 0.0479969101 -0.00839893627 0.0305317903
v 0.0477741985 -0.00817622471 0.0233179808
v 0.0477630501 -0.00816507149 0.0256550789
v 0.0478267269 -0.00822874355 0.0257662797
v 0.0478417759 -0.00824379253 0.0282049608
v 0.0478113251 -0.00821334171 0.028262105
v 0.0478194695 -0.00822149086 0.0306541824
v 0.0481257992 -0.00852781582 0.0235713315
v 0.0481007652 -0.0085027914 0.0266793084
v 0.0481078129 -0.00850982952 0.0267501688
v 0.048118618 -0.00852063465 0.0270000005
v 0.0481045132 -0.00850652981 0.0272853041
v 0.0482095222 -0.00861153889 0.0303546834
v 0.0480402927 -0.00844231415 0.0235015202
v 0.0480033855 -0.00840540218 0.0261990023
v 0.0480223351 -0.00842435646 0.0262653446
v 0.0480755596 -0.00847757626 0.0265040612
v 0.0480965977 -0.00849861431 0.0273559785
v 0.0480692272 -0.00847124386 0.0275305796
v 0.0480130653 -0.00841508675 0.0277679443
v 0.0480832653 -0.00848528194 0.0304641008
v 0.0483712368 -0.00877325821 0.0238054585
v 0.0484871273 -0.00888914394 0.0300641775
v 0.0482506828 -0.00865270424 0.0236838508
v 0.0483315544 -0.00873357582 0.0237639332
v 0.0483315544 -0.00873357582 0.0302360678
v 0.0482913666 -0.00869338799 0.0302766085
v 0.0485980301 -0.0090000515 0.0240745854
v 0.0487376289 -0.00913965034 0.0242720056
v 0.0487376289 -0.00913965034 0.029727993
v 0.0487036495 -0.00910566616 0.0297786331
v 0.0485246639 -0.00892668533 0.0239811611
v 0.0485616379 -0.00896365452 0.0240274215
v 0.0485616379 -0.00896365452 0.0299725795
v 0.0485246639 -0.00892668533 0.0300188375
v 0.0488671474 -0.00926916885 0.0244827175
v 0.0488978748 -0.00929990101 0.0245373535
v 0.0489859562 -0.0093879776 0.0292943048
v 0.0488671474 -0.00926916885 0.0295172811
v 0.0487709789 -0.00917300034 0.0243234777
v 0.0488357525 -0.00923776913 0.0295711493
v 0.049118536 -0.0095205574 0.025
v 0.0492324715 -0.00963449287 0.0253095269
v 0.0492324715 -0.00963449287 0.028690474
v 0.0492112236 -0.00961324024 0.0287534857
v 0.049118536 -0.0095205574 0.029000001
v 0.0490139179 -0.00941593933 0.0247632289
v 0.049093483 -0.00949550438 0.0290601516
v 0.0493590431 -0.00976105976 0.0257639313
v 0.0494134598 -0.00981547642 0.0260323119
v 0.0494545059 -0.00985652256 0.0263054085
v 0.0494763927 -0.00987841415 0.0265125227
v 0.049493597 -0.00989561844 0.026790657
v 0.0494974785 -0.00989949512 0.0270000005
v 0.0494905834 -0.00989260483 0.0272790265
v 0.0494699459 -0.00987196732 0.0275566936
v 0.0494455128 -0.00984752941 0.0277632356
v 0.0494011002 -0.0098031168 0.0280352759
v 0.0492529469 -0.00965496349 0.0253730536
v 0.049291523 -0.00969353962 0.0255015731
v 0.0493433743 -0.00974540043 0.0283022738
v 0.0492726307 -0.00967464733 0.0285629249
f 73 2 1
f 2 147 1
f 68 1 21
f 1 146 21
f 73 1 68
f 1 147 146
f 74 5 2
f 5 147 2
f 74 2 73
f 3 75 4
f 4 149 3
f 16 75 3
f 3 148 16
f 3 149 148
f 4 76 22
f 22 149 4
f 4 75 76
f 58 6 5
f 6 117 5
f 58 5 74
f 5 117 116
f 5 116 147
f 62 7 6
f 7 118 6
f 62 6 58
f 6 118 117
f 45 8 7
f 8 119 7
f 45 7 44
f 44 7 63
f 63 7 62
f 7 119 118
f 50 9 8
f 9 120 8
f 50 8 45
f 8 120 119
f 52 10 9
f 10 127 9
f 51 9 50
f 52 9 51
f 9 126 120
f 9 127 126
f 52 11 10
f 11 128 10
f 10 128 127
f 11 53 12
f 12 129 11
f 53 11 52
f 11 129 128
f 12 54 13
f 13 122 12
f 12 53 54
f 12 122 121
f 12 121 129
f 13 46 14
f 14 123 13
f 13 55 46
f 13 54 55
f 13 123 122
f 14 64 15
f 15 124 14
f 14 46 47
f 14 47 64
f 14 124 123
f 15 59 16
f 16 125 15
f 65 59 15
f 15 64 65
f 15 125 124
f 16 59 75
f 16 148 125
f 19 140 17
f 282 19 17
f 17 162 28
f 285 17 28
f 17 140 162
f 282 17 286
f 286 17 285
f 24 114 18
f 18 163 24
f 18 114 29
f 29 160 18
f 18 160 163
f 113 20 19
f 20 141 19
f 113 19 302
f 19 141 140
f 302 19 282
f 85 21 20
f 21 142 20
f 84 20 80
f 80 20 94
f 85 20 84
f 94 20 90
f 90 20 103
f 102 20 98
f 98 20 113
f 103 20 102
f 20 142 141
f 68 21 85
f 21 146 142
f 22 86 23
f 23 144 22
f 22 76 69
f 22 69 86
f 22 144 143
f 22 143 149
f 23 95 24
f 24 145 23
f 23 87 81
f 81 95 23
f 86 87 23
f 23 145 144
f 95 91 24
f 24 91 104
f 24 105 99
f 99 114 24
f 104 105 24
f 24 163 145
f 27 178 25
f 266 27 25
f 25 178 36
f 269 25 36
f 266 25 269
f 30 114 26
f 26 179 30
f 26 114 37
f 37 176 26
f 26 176 179
f 28 159 27
f 284 28 27
f 27 159 158
f 27 158 178
f 284 27 266
f 28 162 159
f 285 28 284
f 29 114 30
f 30 161 29
f 29 161 160
f 30 179 161
f 32 197 31
f 246 32 31
f 31 196 41
f 250 31 41
f 31 197 196
f 246 31 250
f 35 174 32
f 247 35 32
f 32 174 197
f 247 32 246
f 33 114 34
f 34 199 33
f 38 114 33
f 33 198 38
f 33 199 198
f 34 114 42
f 42 195 34
f 34 195 199
f 36 175 35
f 268 36 35
f 35 175 174
f 268 35 247
f 36 178 175
f 269 36 268
f 37 114 38
f 38 177 37
f 37 177 176
f 38 198 177
f 41 219 39
f 222 41 39
f 39 218 49
f 224 39 49
f 39 219 218
f 222 39 224
f 42 114 40
f 40 221 42
f 40 114 56
f 56 221 40
f 41 196 194
f 41 194 219
f 250 41 222
f 42 220 195
f 42 221 220
f 200 49 43
f 49 237 43
f 206 43 61
f 43 237 61
f 200 43 206
f 44 238 45
f 63 238 44
f 45 239 50
f 45 238 239
f 46 242 47
f 55 242 46
f 47 243 64
f 47 242 243
f 56 114 48
f 48 244 56
f 48 114 66
f 66 245 48
f 48 245 244
f 224 49 200
f 49 218 212
f 49 212 237
f 50 239 51
f 51 213 52
f 51 240 213
f 51 239 240
f 52 214 53
f 52 213 214
f 53 215 54
f 53 214 215
f 54 241 55
f 54 215 216
f 54 216 241
f 55 241 242
f 56 217 221
f 56 244 217
f 180 61 57
f 61 260 57
f 187 57 72
f 57 260 72
f 180 57 187
f 58 261 62
f 74 261 58
f 65 263 59
f 59 264 75
f 59 263 264
f 66 114 60
f 60 265 66
f 60 114 77
f 77 258 60
f 60 258 265
f 206 61 180
f 61 236 230
f 61 230 260
f 61 237 236
f 62 231 63
f 62 262 231
f 62 261 262
f 63 231 232
f 63 232 238
f 64 233 65
f 64 243 233
f 65 233 234
f 65 234 263
f 66 235 245
f 66 265 235
f 164 71 67
f 71 252 67
f 168 67 83
f 67 278 83
f 164 67 168
f 67 252 278
f 68 279 73
f 85 279 68
f 76 280 69
f 69 280 86
f 78 193 70
f 70 281 78
f 70 167 88
f 88 281 70
f 70 193 167
f 186 72 71
f 72 253 71
f 186 71 164
f 71 253 252
f 187 72 186
f 72 260 253
f 73 254 74
f 73 279 254
f 74 254 255
f 74 255 261
f 75 256 76
f 75 264 256
f 76 256 257
f 76 257 280
f 77 192 78
f 78 259 77
f 114 192 77
f 77 259 258
f 78 192 193
f 78 281 259
f 150 83 79
f 83 272 79
f 154 79 93
f 79 294 93
f 150 79 154
f 79 272 294
f 80 295 84
f 94 295 80
f 87 296 81
f 81 296 95
f 88 173 82
f 82 297 88
f 82 153 96
f 96 297 82
f 82 173 153
f 168 83 150
f 83 278 272
f 84 273 85
f 84 295 273
f 85 273 274
f 85 274 279
f 86 275 87
f 86 280 275
f 87 275 276
f 87 276 296
f 88 167 173
f 88 277 281
f 88 297 277
f 130 93 89
f 93 290 89
f 134 89 101
f 89 312 101
f 130 89 134
f 89 290 312
f 90 313 94
f 103 313 90
f 95 314 91
f 91 314 104
f 96 157 92
f 92 315 96
f 92 139 106
f 106 311 92
f 92 133 139
f 92 157 133
f 92 311 315
f 154 93 130
f 93 294 290
f 94 291 295
f 94 313 291
f 95 296 292
f 95 292 314
f 96 153 157
f 96 293 297
f 96 315 293
f 107 101 97
f 101 308 97
f 107 97 112
f 97 333 112
f 97 308 333
f 98 334 102
f 113 334 98
f 105 335 99
f 99 335 114
f 106 139 100
f 100 336 106
f 100 110 115
f 100 139 110
f 115 332 100
f 100 332 336
f 134 101 107
f 101 312 308
f 102 309 103
f 102 334 309
f 103 309 313
f 104 314 105
f 105 314 310
f 105 310 335
f 106 336 311
f 112 343 107
f 107 343 134
f 113 302 108
f 108 344 113
f 108 302 135
f 135 344 108
f 109 192 114
f 114 331 109
f 138 192 109
f 109 345 138
f 109 331 345
f 110 346 115
f 139 342 110
f 110 342 346
f 111 328 112
f 112 329 111
f 111 329 328
f 112 328 329
f 112 333 329
f 112 329 343
f 113 330 334
f 113 344 330
f 114 335 331
f 115 346 332
f 117 261 116
f 116 261 147
f 118 231 117
f 231 262 117
f 117 262 261
f 119 239 118
f 118 232 231
f 118 238 232
f 118 239 238
f 120 239 119
f 126 213 120
f 120 213 240
f 120 240 239
f 122 241 121
f 121 216 129
f 121 241 216
f 123 242 122
f 122 242 241
f 124 233 123
f 233 243 123
f 123 243 242
f 125 264 124
f 124 234 233
f 124 263 234
f 124 264 263
f 148 264 125
f 127 214 126
f 126 214 213
f 128 214 127
f 129 215 128
f 128 215 214
f 129 216 215
f 134 351 130
f 130 351 154
f 136 302 131
f 131 352 136
f 131 302 155
f 155 352 131
f 132 192 137
f 137 340 132
f 156 192 132
f 132 353 156
f 132 340 353
f 133 354 139
f 157 350 133
f 133 350 354
f 134 343 337
f 134 337 351
f 135 302 136
f 136 339 135
f 135 339 338
f 135 338 344
f 136 352 339
f 137 192 138
f 138 341 137
f 137 341 340
f 138 345 341
f 139 354 342
f 141 330 140
f 140 330 162
f 142 274 141
f 141 274 273
f 141 273 295
f 141 295 291
f 291 313 141
f 141 313 309
f 141 309 334
f 141 334 330
f 146 279 142
f 142 279 274
f 144 275 143
f 143 280 149
f 143 275 280
f 145 292 144
f 144 276 275
f 144 296 276
f 144 292 296
f 429 145 163
f 145 314 292
f 145 310 314
f 335 310 145
f 145 331 335
f 429 331 145
f 147 254 146
f 146 254 279
f 147 255 254
f 147 261 255
f 149 256 148
f 256 264 148
f 257 256 149
f 280 257 149
f 154 361 150
f 150 361 168
f 155 302 151
f 151 362 155
f 151 302 169
f 169 356 151
f 151 356 362
f 152 211 156
f 156 363 152
f 172 211 152
f 152 363 172
f 153 364 157
f 173 360 153
f 153 360 364
f 154 351 347
f 154 347 361
f 155 348 352
f 155 362 348
f 156 185 192
f 156 211 185
f 156 353 349
f 156 349 363
f 157 364 350
f 159 330 158
f 158 330 178
f 162 330 159
f 420 160 161
f 419 163 160
f 419 160 420
f 422 161 179
f 420 161 422
f 429 163 419
f 168 355 164
f 164 373 186
f 164 355 373
f 170 302 165
f 165 374 170
f 165 302 188
f 188 374 165
f 166 251 171
f 171 375 166
f 191 251 166
f 166 375 191
f 167 376 173
f 193 376 167
f 168 361 355
f 169 302 170
f 170 357 169
f 169 357 356
f 170 374 357
f 171 229 172
f 172 359 171
f 171 223 229
f 171 251 223
f 171 359 358
f 171 358 375
f 172 205 211
f 172 229 205
f 172 363 359
f 173 376 360
f 175 330 174
f 174 330 197
f 178 330 175
f 412 176 177
f 411 179 176
f 411 176 412
f 415 177 198
f 412 177 415
f 422 179 411
f 187 366 180
f 180 383 206
f 180 366 383
f 181 302 182
f 182 385 181
f 189 302 181
f 181 384 189
f 181 385 384
f 182 302 207
f 207 385 182
f 183 288 184
f 184 387 183
f 210 288 183
f 183 386 210
f 183 387 386
f 184 289 190
f 190 387 184
f 184 288 289
f 185 388 192
f 211 382 185
f 185 382 388
f 186 365 187
f 186 373 365
f 187 365 366
f 188 302 189
f 189 368 188
f 188 368 367
f 188 367 374
f 189 384 368
f 190 271 191
f 191 370 190
f 190 267 270
f 190 289 267
f 190 270 271
f 190 370 369
f 190 369 387
f 191 248 249
f 191 271 248
f 191 249 251
f 191 375 370
f 192 371 193
f 192 388 371
f 193 371 372
f 193 372 376
f 196 330 194
f 194 330 219
f 404 199 195
f 407 195 220
f 404 195 407
f 197 330 196
f 416 198 199
f 415 198 416
f 416 199 404
f 206 377 200
f 200 395 224
f 200 377 395
f 201 318 202
f 202 398 201
f 208 299 201
f 201 397 208
f 201 299 316
f 201 316 317
f 201 317 318
f 201 398 397
f 202 318 225
f 225 398 202
f 203 325 204
f 204 400 203
f 228 325 203
f 203 399 228
f 203 400 399
f 204 300 209
f 209 401 204
f 204 327 300
f 204 325 326
f 204 326 327
f 204 401 400
f 205 402 211
f 229 402 205
f 206 383 377
f 207 303 208
f 208 379 207
f 207 302 303
f 207 379 378
f 207 378 385
f 208 298 299
f 208 304 298
f 208 303 304
f 208 396 379
f 208 397 396
f 209 306 210
f 210 381 209
f 209 300 301
f 209 301 305
f 209 305 306
f 209 381 380
f 209 380 401
f 210 283 287
f 210 307 283
f 210 287 288
f 210 306 307
f 210 386 381
f 211 402 382
f 218 330 212
f 212 330 237
f 394 221 217
f 402 217 244
f 394 217 402
f 219 330 218
f 408 220 221
f 407 220 408
f 408 221 394
f 224 405 222
f 222 405 250
f 223 408 229
f 251 407 223
f 223 407 408
f 224 395 389
f 224 389 405
f 225 320 226
f 226 391 225
f 225 318 319
f 225 319 320
f 225 391 390
f 225 390 398
f 226 322 227
f 227 392 226
f 226 320 321
f 226 321 322
f 226 392 391
f 227 323 228
f 228 393 227
f 227 322 323
f 227 393 392
f 228 323 324
f 228 324 325
f 228 399 393
f 229 394 402
f 229 408 394
f 236 330 230
f 230 330 260
f 382 245 235
f 388 235 265
f 382 235 388
f 237 330 236
f 382 244 245
f 402 244 382
f 246 413 247
f 250 403 246
f 246 403 413
f 247 414 268
f 247 413 414
f 248 415 249
f 271 412 248
f 248 412 415
f 249 416 251
f 249 415 416
f 250 406 403
f 250 405 406
f 251 404 407
f 251 416 404
f 253 330 252
f 252 330 278
f 260 330 253
f 372 258 259
f 371 265 258
f 371 258 372
f 376 259 281
f 372 259 376
f 388 265 371
f 269 410 266
f 266 421 284
f 266 410 421
f 267 422 270
f 289 422 267
f 268 409 269
f 268 414 409
f 269 409 410
f 270 411 271
f 270 422 411
f 271 411 412
f 278 330 272
f 272 330 294
f 360 281 277
f 364 277 297
f 360 277 364
f 376 281 360
f 286 428 282
f 282 428 302
f 283 429 287
f 307 429 283
f 284 417 285
f 284 421 417
f 285 418 286
f 285 417 418
f 286 418 428
f 287 429 288
f 288 419 289
f 288 429 419
f 289 419 420
f 289 420 422
f 294 330 290
f 290 330 312
f 350 297 293
f 354 293 315
f 350 293 354
f 364 297 350
f 298 440 299
f 304 440 298
f 299 441 316
f 299 440 441
f 300 442 301
f 327 442 300
f 301 443 305
f 301 442 443
f 302 428 303
f 303 423 304
f 303 428 423
f 304 423 424
f 304 424 440
f 305 425 306
f 305 443 425
f 306 426 307
f 306 425 426
f 307 426 427
f 307 427 429
f 312 330 308
f 308 330 333
f 342 315 311
f 346 311 336
f 342 311 346
f 354 315 342
f 316 441 317
f 317 430 318
f 317 441 430
f 318 431 319
f 318 430 431
f 319 432 320
f 319 431 432
f 320 433 321
f 320 432 433
f 321 434 322
f 321 433 434
f 322 435 323
f 322 434 435
f 323 436 324
f 323 435 436
f 324 437 325
f 324 436 437
f 325 438 326
f 325 437 438
f 326 439 327
f 326 438 439
f 327 439 442
f 329 330 328
f 333 330 329
f 329 330 343
f 343 330 337
f 337 330 344
f 345 331 429
f 346 336 332
f 337 344 351
f 361 338 339
f 351 344 338
f 351 338 347
f 347 338 361
f 355 339 352
f 361 339 355
f 340 341 427
f 427 353 340
f 429 341 345
f 427 341 429
f 373 352 348
f 383 348 362
f 365 348 366
f 373 348 365
f 366 348 383
f 427 349 353
f 426 363 349
f 426 349 427
f 355 352 373
f 389 356 357
f 377 362 356
f 377 356 395
f 395 356 389
f 405 357 374
f 389 357 405
f 358 359 426
f 375 358 425
f 425 358 426
f 426 359 363
f 383 362 377
f 409 367 368
f 403 374 367
f 403 367 413
f 414 367 409
f 413 367 414
f 421 368 384
f 409 368 410
f 410 368 421
f 369 370 443
f 387 369 443
f 370 375 443
f 406 374 403
f 405 374 406
f 443 375 425
f 423 378 379
f 418 385 378
f 418 378 428
f 428 378 423
f 440 379 396
f 423 379 424
f 424 379 440
f 380 381 443
f 443 401 380
f 381 386 443
f 418 384 385
f 417 384 418
f 421 384 417
f 443 386 387
f 433 390 391
f 432 398 390
f 432 390 433
f 435 391 392
f 433 391 434
f 434 391 435
f 436 392 393
f 435 392 436
f 437 393 399
f 436 393 437
f 441 396 397
f 440 396 441
f 431 397 398
f 430 397 431
f 441 397 430
f 431 398 432
f 438 399 400
f 437 399 438
f 442 400 401
f 438 400 439
f 439 400 442
f 442 401 443
