v -0.049280632 -0.0167537146 0.0246706295
v -0.049334362 -0.0168074541 0.0249754405
v -0.0493584042 -0.0168314962 0.0251287937
v -0.049400795 -0.0168738775 0.0254371667
v -0.0494355373 -0.0169086294 0.0257474422
v -0.0494500427 -0.0169231253 0.0259031749
v -0.0494732552 -0.0169463472 0.0262155986
v -0.0494819717 -0.0169550591 0.0263721919
v -0.049493597 -0.0169666843 0.0266859055
v -0.0494965057 -0.016969593 0.0268429279
v -0.0494974785 -0.016970561 0.0270000005
v -0.0494887524 -0.0169618397 0.0274710226
v -0.0494819717 -0.0169550591 0.027627809
v -0.0494626122 -0.0169356995 0.0279407573
v -0.0494500427 -0.0169231253 0.0280968237
v -0.0494191246 -0.0168922119 0.0284079099
v -0.0493805485 -0.0168536406 0.0287172818
v -0.0493584042 -0.0168314962 0.0288712049
v -0.0493084412 -0.0167815237 0.0291772962
v -0.049280632 -0.0167537146 0.0293293715
v -0.0492509441 -0.0167240314 0.0245192647
v -0.0492509441 -0.0167240314 0.0294807363
v -0.0490340786 -0.0165071659 0.02362854
v -0.0491136818 -0.0165867691 0.0239218187
v -0.0491859989 -0.0166590862 0.0242188478
v -0.0492193966 -0.0166924887 0.0243686557
v -0.0492193966 -0.0166924887 0.0296313453
v -0.0491507607 -0.0166238432 0.0299301124
v -0.0490747814 -0.0165478735 0.0302253127
v -0.0490340786 -0.0165071659 0.0303714585
v -0.0488038425 -0.0162769346 0.0229140854
v -0.0489012222 -0.0163743095 0.023196435
v -0.0489915733 -0.0164646606 0.0234834194
v -0.0489472847 -0.0164203672 0.0306606293
v -0.048853405 -0.0163264923 0.0309453392
v -0.0488038425 -0.0162769346 0.0310859156
v -0.0487525539 -0.016225646 0.022774756
v -0.0487525539 -0.016225646 0.031225245
v -0.0485304623 -0.0160035448 0.0222307277
v -0.0485884933 -0.0160615807 0.0223646569
v -0.0486995583 -0.0161726456 0.022636714
v -0.0486995583 -0.0161726456 0.031363287
v -0.0485884933 -0.0160615807 0.0316353416
v -0.0485304623 -0.0160035448 0.0317692733
v -0.0482820683 -0.0157551556 0.0217099333
v -0.0484094791 -0.0158825665 0.0219672632
v -0.0484707813 -0.0159438686 0.022098248
v -0.0484707813 -0.0159438686 0.0319017506
v -0.0483465652 -0.0158196526 0.0321621871
v -0.0482820683 -0.0157551556 0.0322900677
v -0.0480049114 -0.0183064251 0.0255920887
v -0.0480358295 -0.0183373384 0.0259031749
v -0.048048399 -0.0183499126 0.0260592437
v -0.0480677586 -0.0183692722 0.0263721919
v -0.0480745392 -0.0183760529 0.026528976
v -0.0480822926 -0.0183838062 0.0268429279
v -0.0480832653 -0.0183847742 0.0270000005
v -0.0480793839 -0.0183808975 0.0273140955
v -0.0480677586 -0.0183692722 0.027627809
v -0.048059042 -0.0183605604 0.0277844024
v -0.0480358295 -0.0183373384 0.0280968237
v -0.0480213242 -0.0183228426 0.0282525587
v -0.0481483822 -0.0156214695 0.0214590478
v -0.0482159977 -0.015689085 0.0215836644
v -0.0482159977 -0.015689085 0.0324163342
v -0.0480792408 -0.0155523281 0.0326638842
v -0.0480085926 -0.0154816799 0.0212149119
v -0.0480085926 -0.0154816799 0.032785089
v -0.0479663353 -0.0182678537 0.0252827191
v -0.0479865818 -0.0182880955 0.0285628343
v -0.0477717857 -0.0180733042 0.0242188478
v -0.0478051834 -0.0181067019 0.0243686557
v -0.047836731 -0.0181382494 0.0245192647
v -0.047894228 -0.0181957417 0.0248227024
v -0.047944191 -0.0182457094 0.0251287937
v -0.047944191 -0.0182457094 0.0288712049
v -0.0479201488 -0.0182216673 0.0290245605
v -0.0478664188 -0.0181679277 0.0293293715
v -0.0478051834 -0.0181067019 0.0296313453
v -0.0477717857 -0.0180733042 0.0297811532
v -0.0478628616 -0.0153359442 0.0209778237
v -0.0479364567 -0.015409544 0.021095469
v -0.0479364567 -0.015409544 0.032904532
v -0.047787817 -0.0152609091 0.0331379843
v -0.0476994686 -0.0180009823 0.0239218187
v -0.0477365475 -0.0180380564 0.0240698862
v -0.0477365475 -0.0180380564 0.0299301124
v -0.0476994686 -0.0180009823 0.0300781822
v -0.0475330715 -0.0178345852 0.0233393693
v -0.0476198654 -0.0179213791 0.02362854
v -0.0476605682 -0.0179620867 0.0237746882
v -0.0476605682 -0.0179620867 0.0302253127
v -0.0476198654 -0.0179213791 0.0303714585
v -0.0475773602 -0.0178788738 0.0305165792
v -0.0477113609 -0.015184453 0.0207480741
v -0.0475542908 -0.0150273829 0.0334740591
v -0.047487009 -0.0177885227 0.023196435
v -0.047487009 -0.0177885227 0.0308035636
v -0.0472853451 -0.0175868587 0.022636714
v -0.0473383408 -0.0176398592 0.022774756
v -0.0474391918 -0.0177407055 0.0230546594
v -0.0474391918 -0.0177407055 0.0309453392
v -0.0473896294 -0.0176911478 0.0310859156
v -0.0472853451 -0.0175868587 0.031363287
v -0.0473086433 -0.0147817354 0.0202076149
v -0.0474737244 -0.0149468117 0.0204178166
v -0.0473918324 -0.0148649244 0.0336883044
v -0.0473086433 -0.0147817354 0.0337923861
v -0.0472306519 -0.0175321655 0.0225
v -0.0472306519 -0.0175321655 0.031500001
v -0.0470565681 -0.0173580818 0.022098248
v -0.0471742802 -0.0174757938 0.0223646569
v -0.0471742802 -0.0174757938 0.0316353416
v -0.0471162491 -0.017417758 0.0317692733
v -0.0470515614 -0.0145246487 0.0199079037
v -0.0472241859 -0.014697278 0.0201056004
v -0.0471384888 -0.0146115713 0.0339943147
v -0.0470515614 -0.0145246487 0.0340920973
v -0.046995266 -0.0172967796 0.0219672632
v -0.046995266 -0.0172967796 0.0320327353
v -0.0468017845 -0.0171032982 0.0215836644
v -0.0469323521 -0.0172338657 0.0218378115
v -0.0469323521 -0.0172338657 0.0321621871
v -0.0468678551 -0.0171693687 0.0322900677
v -0.0468741589 -0.0143472462 0.0197188473
v -0.0469634418 -0.0144365292 0.0198122799
v -0.0469634418 -0.0144365292 0.0341877198
v -0.0467837315 -0.0142568188 0.0343723679
v -0.046734169 -0.0170356827 0.0214590478
v -0.046734169 -0.0170356827 0.0325409532
v -0.0465222435 -0.0168237572 0.021095469
v -0.0466650276 -0.0169665413 0.0213361168
v -0.0466650276 -0.0169665413 0.0326638842
v -0.0465943794 -0.0168958931 0.032785089
v -0.046599577 -0.0140726643 0.0194519651
v -0.0466921978 -0.0141652851 0.0195386624
v -0.0466921978 -0.0141652851 0.0344613385
v -0.046599577 -0.0140726643 0.0345480347
v -0.0465058975 -0.0139789896 0.0193675673
v -0.0465058975 -0.0139789896 0.0346324325
v -0.0464486485 -0.0167501621 0.0209778237
v -0.0464486485 -0.0167501621 0.0330221748
v -0.0462971478 -0.0165986662 0.0207480741
v -0.0463736038 -0.0166751223 0.0208620143
v -0.0463736038 -0.0166751223 0.0331379843
v -0.0462971478 -0.0165986662 0.0332519245
v -0.0463154964 -0.0137885838 0.0192057717
v -0.0464111977 -0.013884285 0.0192854941
v -0.0464111977 -0.013884285 0.0347145057
v -0.0463154964 -0.0137885838 0.0347942281
v -0.0462192993 -0.016520813 0.0206360388
v -0.0462192993 -0.016520813 0.0333639622
v -0.0460595112 -0.0163610249 0.0204178166
v -0.0461400776 -0.016441596 0.0205259418
v -0.0461400776 -0.016441596 0.0334740591
v -0.0460595112 -0.0163610249 0.0335821843
v -0.0462188225 -0.0136919098 0.0191284227
v -0.0461212139 -0.0135943012 0.0349465275
v -0.0460226898 -0.0134957819 0.0189809418
v -0.0460226898 -0.0134957819 0.0350190592
v -0.0459776192 -0.0162791376 0.0203116965
v -0.0459776192 -0.0162791376 0.0336883044
v -0.0458099728 -0.0161114912 0.0201056004
v -0.0458944302 -0.0161959486 0.0337923861
v -0.0459232883 -0.0133963804 0.0189108539
v -0.0458230381 -0.0132961302 0.0351567698
v -0.0457242661 -0.0160257845 0.0200056863
v -0.0457242661 -0.0160257845 0.0339943147
v -0.0455492287 -0.0158507423 0.0198122799
v -0.0456373482 -0.0159388618 0.0340920973
v -0.0456201153 -0.0130931978 0.0187154567
v -0.0457219677 -0.0131950598 0.0187780905
v -0.0457219677 -0.0131950598 0.0352219081
v -0.0456201153 -0.0130931978 0.035284543
v -0.0455174999 -0.0129905825 0.0186553454
v -0.0455174999 -0.0129905825 0.0353446555
v -0.0454599457 -0.0157614594 0.0197188473
v -0.0454599457 -0.0157614594 0.0342811537
v -0.0452779846 -0.0155794983 0.0195386624
v -0.0453695183 -0.015671032 0.0343723679
v -0.0454141502 -0.0128872423 0.0185977757
v -0.0453101139 -0.012783206 0.0354572344
v -0.0450916843 -0.0153932028 0.0193675673
v -0.0451853638 -0.0154868774 0.0345480347
v -0.0452054195 -0.0126785069 0.0184903324
v -0.0451000862 -0.0125731735 0.0355595088
v -0.0449969845 -0.0152984982 0.0192854941
v -0.0449969845 -0.0152984982 0.0347145057
v -0.0448046093 -0.015106123 0.0191284227
v -0.0449012833 -0.0152027969 0.0347942281
v -0.0449941521 -0.0124672441 0.0183932567
v -0.0447806244 -0.0122537165 0.0356933331
v -0.0447070007 -0.0150085144 0.0190534711
v -0.0447070007 -0.0150085144 0.0349465275
v -0.0445090752 -0.0148105936 0.0189108539
v -0.0446084766 -0.0149099951 0.0350190592
v -0.044565094 -0.0120381813 0.0182306695
v -0.0446730976 -0.0121461849 0.0182673383
v -0.0446730976 -0.0121461849 0.0357326627
v -0.044565094 -0.0120381813 0.0357693315
v -0.0443077545 -0.014609273 0.0187780905
v -0.0444088249 -0.0147103434 0.0351567698
v -0.0444566517 -0.0119297438 0.018196671
v -0.0442830734 -0.011756156 0.0265029693
v -0.0443239002 -0.0117969828 0.0267634058
v -0.0443355923 -0.0118086843 0.0270000005
v -0.0443207912 -0.0117938833 0.0272659397
v -0.0443478184 -0.0118209009 0.0358346438
v -0.0442557507 -0.0117288427 0.0263907743
v -0.0442767601 -0.0117498474 0.0275253296
v -0.0442059021 -0.014507411 0.0187154567
v -0.0442059021 -0.014507411 0.035284543
v -0.0441032772 -0.0144047956 0.0186553454
v -0.0441032772 -0.0144047956 0.0353446555
v -0.0442386036 -0.0117116909 0.0181367302
v -0.0440407352 -0.0115138226 0.0258846998
v -0.0441060143 -0.0115791063 0.0260007644
v -0.0442139416 -0.0116870241 0.0262547684
v -0.044248064 -0.0117211514 0.0276368308
v -0.0442045765 -0.0116776638 0.0277717829
v -0.0440935402 -0.0115666275 0.0280230856
v -0.044129055 -0.0116021423 0.035889194
v -0.0440192013 -0.0114922934 0.0180875874
v -0.0440011578 -0.0114742451 0.0207614899
v -0.0440172653 -0.0114903526 0.0210218143
v -0.0440126591 -0.0114857464 0.0258406019
v -0.0440268307 -0.0114999228 0.0281375217
v -0.0440011578 -0.0114742451 0.032761488
v -0.0440172653 -0.0114903526 0.0330218148
v -0.0440192013 -0.0114922934 0.0359124136
v -0.0439999371 -0.0143014555 0.0185977757
v -0.0439999371 -0.0143014555 0.0354022241
v -0.0437912064 -0.01409272 0.0184903324
v -0.0438959007 -0.0141974192 0.0185427666
v -0.0438959007 -0.0141974192 0.0354572344
v -0.0437912064 -0.01409272 0.0355096674
v -0.04390909 -0.0113821726 0.0180670846
v -0.0437799435 -0.0112530355 0.0201475024
v -0.0438485889 -0.0113216763 0.0202652693
v -0.0439471321 -0.0114202194 0.0205115867
v -0.0439980774 -0.0114711695 0.0212598896
v -0.0439409809 -0.0114140682 0.0215084219
v -0.0438394146 -0.0113125019 0.0217522693
v -0.0437882118 -0.0112613039 0.0255742598
v -0.043953331 -0.0114264183 0.0257566977
v -0.0439982204 -0.0114713078 0.0281809187
v -0.0439378624 -0.0114109497 0.0282633471
v -0.0437799435 -0.0112530355 0.0321475029
v -0.0438485889 -0.0113216763 0.0322652674
v -0.0439471321 -0.0114202194 0.0325115871
v -0.0439980774 -0.0114711695 0.0332598901
v -0.0439409809 -0.0114140682 0.03350842
v -0.0438394146 -0.0113125019 0.0337522697
v -0.0437987309 -0.0112718182 0.0359506965
v -0.0437585144 -0.0112316017 0.020116117
v -0.0437693291 -0.0112424164 0.0218683219
v -0.0437526302 -0.0112257175 0.0255428147
v -0.0437705212 -0.0112436085 0.0284416819
v -0.0437585144 -0.0112316017 0.0321161175
v -0.0437693291 -0.0112424164 0.0338683224
v -0.0435799389 -0.0138814573 0.0183932567
v -0.043685873 -0.0139873867 0.0355595088
v -0.0436881714 -0.0111612587 0.0180342472
v -0.0435347919 -0.0110078745 0.0198862422
v -0.0436654453 -0.0111385374 0.0200017047
v -0.043747509 -0.0112206011 0.0218991756
v -0.0436530476 -0.0111261349 0.0220112705
v -0.0435446529 -0.0110177355 0.0254025221
v -0.0437162952 -0.0111893826 0.0255131459
v -0.0437345581 -0.0112076406 0.0284722424
v -0.0436978607 -0.0111709433 0.0285010099
v -0.0435347919 -0.0110078745 0.0318862414
v -0.0436654453 -0.0111385374 0.0320017052
v -0.043747509 -0.0112206011 0.0338991737
v -0.0436530476 -0.0111261349 0.034011271
v -0.0435774403 -0.0110505276 0.0359780765
v -0.0435070591 -0.0109801464 0.019867115
v -0.0435209827 -0.0109940701 0.0221234918
v -0.0435049801 -0.0109780674 0.025383203
v -0.0435248737 -0.010997961 0.0286073804
v -0.0435070591 -0.0109801464 0.0318671155
v -0.0435209827 -0.0109940701 0.0341234922
v -0.0434734421 -0.0137749605 0.018348645
v -0.0434734421 -0.0137749605 0.0356513548
v -0.0432588844 -0.0135603981 0.0182673383
v -0.0433664112 -0.0136679296 0.0356933331
v -0.0434665756 -0.0109396677 0.0180123341
v -0.0432869987 -0.0107600861 0.0197689903
v -0.043493021 -0.0109661083 0.0221419311
v -0.0432800083 -0.0107531004 0.0253126717
v -0.043484972 -0.0109580545 0.0286257172
v -0.0432869987 -0.0107600861 0.0317689896
v -0.043493021 -0.0109661083 0.0341419315
v -0.0433556156 -0.0108287029 0.0359945178
v -0.0432565289 -0.0107296162 0.0197621644
v -0.0432717876 -0.0107448702 0.0222346115
v -0.043259161 -0.0107322531 0.0253093123
v -0.043259161 -0.0107322531 0.0286906862
v -0.0432565289 -0.0107296162 0.031762166
v -0.0432717876 -0.0107448702 0.0342346096
v -0.0430424385 -0.0133439569 0.018196671
v -0.0431508808 -0.0134523945 0.0357693315
v -0.0431335144 -0.0106066017 0.0179999995
v -0.0432445793 -0.0107176666 0.0180013704
v -0.0430411224 -0.0105142097 0.0197568476
v -0.0432412319 -0.0107143192 0.0222406816
v -0.0430287437 -0.0105018311 0.025306468
v -0.0432382851 -0.0107113724 0.0286935306
v -0.0431335144 -0.0106066017 0.0317499995
v -0.0430411224 -0.0105142097 0.0317568469
v -0.0432412319 -0.0107143192 0.0342406821
v -0.0431335144 -0.0106066017 0.035999999
v -0.0430224495 -0.0104955368 0.0180013704
v -0.0430105 -0.0104835873 0.0197621644
v -0.0430257969 -0.0104988842 0.0222406816
v -0.0430078583 -0.0104809504 0.0253093123
v -0.0430078583 -0.0104809504 0.0286906862
v -0.0430105 -0.0104835873 0.031762166
v -0.0430257969 -0.0104988842 0.0342406821
v -0.0430224495 -0.0104955368 0.0359986281
v -0.0428243904 -0.0131259041 0.0181367302
v -0.0427903633 -0.013091877 0.0262282157
v -0.0428625469 -0.0131640606 0.0264746714
v -0.0429065781 -0.0132080965 0.0267340612
v -0.0429211979 -0.0132227116 0.0269703317
v -0.042909687 -0.0132111959 0.0272365952
v -0.0428688602 -0.0131703739 0.0274970317
v -0.0427997284 -0.0131012373 0.0277452302
v -0.0427603321 -0.0130618505 0.0278500009
v -0.0429336052 -0.0132351141 0.0358346438
v -0.0429114132 -0.0103845005 0.0180054832
v -0.0427881508 -0.0102612429 0.0198493695
v -0.0429952412 -0.0104683332 0.0222346115
v -0.0427820568 -0.0102551489 0.0253742814
v -0.0429870205 -0.010460103 0.0286873293
v -0.0427881508 -0.0102612429 0.03184937
v -0.0429952412 -0.0104683332 0.0342346096
v -0.0428004532 -0.0102735357 0.0359876657
v -0.0427599697 -0.010233057 0.019867115
v -0.0427740078 -0.0102470951 0.0221419311
v -0.0427620487 -0.010235136 0.025383203
v -0.0427620487 -0.010235136 0.0286167955
v -0.0427599697 -0.010233057 0.0318671155
v -0.0427740078 -0.0102470951 0.0341419315
v -0.0427148418 -0.0130163603 0.0181108046
v -0.0427496891 -0.013051198 0.0261244345
v -0.042703989 -0.0130055027 0.02797508
v -0.0427148418 -0.0130163603 0.035889194
v -0.0426049881 -0.0129065065 0.0180875874
v -0.0425267677 -0.0128282814 0.0204915786
v -0.0425838642 -0.0128853827 0.0207401109
v -0.0426031857 -0.0129046993 0.020999999
v -0.0425869446 -0.0128884583 0.0212385106
v -0.0425329189 -0.0128344326 0.0214884138
v -0.0425068455 -0.0128083591 0.0215674877
v -0.0425236492 -0.0128251629 0.0257366538
v -0.042679327 -0.0129808407 0.0259769154
v -0.0426918011 -0.0129933195 0.0260007644
v -0.0426918011 -0.0129933195 0.0279992342
v -0.0425391178 -0.0128406315 0.0282433009
v -0.0425079327 -0.0128094511 0.0282830071
v -0.0425267677 -0.0128282814 0.0324915791
v -0.0425838642 -0.0128853827 0.0327401114
v -0.0426031857 -0.0129046993 0.0329999995
v -0.0425869446 -0.0128884583 0.0332385111
v -0.0425329189 -0.0128344326 0.0334884143
v -0.0425068455 -0.0128083591 0.0335674882
v -0.0426049881 -0.0129065065 0.0359124136
v -0.0426895885 -0.0101626759 0.0180219233
v -0.0426139812 -0.0100870686 0.0199887288
v -0.0425307064 -0.0100037937 0.0200858068
v -0.0426015835 -0.010074666 0.0219982934
v -0.0427460461 -0.0102191334 0.0221234918
v -0.0425691681 -0.0100422602 0.0254989886
v -0.0425324707 -0.0100055628 0.0255277562
v -0.0425507336 -0.0100238209 0.0284868526
v -0.0427421551 -0.0102152424 0.0286073804
v -0.0426139812 -0.0100870686 0.031988728
v -0.0425307064 -0.0100037937 0.0320858073
v -0.0426015835 -0.010074666 0.0339982939
v -0.0427460461 -0.0102191334 0.0341234922
v -0.0425788574 -0.0100519447 0.0359657526
v -0.0425085144 -0.00998160172 0.020116117
v -0.0425195198 -0.00999260235 0.0218991756
v -0.0425143986 -0.00998748589 0.0255428147
v -0.0425143986 -0.00998748589 0.0284571838
v -0.0425085144 -0.00998160172 0.0321161175
v -0.0425195198 -0.00999260235 0.0338991737
v -0.0424948673 -0.0127963858 0.0180670846
v -0.0424997215 -0.01280124 0.0204131603
v -0.042452076 -0.0127535896 0.0216989923
v -0.0424919872 -0.0127934961 0.0256977248
v -0.0424593716 -0.01276089 0.0283396173
v -0.0424997215 -0.01280124 0.0324131608
v -0.042452076 -0.0127535896 0.0336989903
v -0.0424948673 -0.0127963858 0.0359329152
v -0.0422739582 -0.0125754719 0.0180342472
v -0.0424252014 -0.0127267151 0.0202477312
v -0.0424433308 -0.0127448492 0.0202830291
v -0.0424343758 -0.0127358942 0.0217347312
v -0.0422512321 -0.0125527506 0.0219982934
v -0.0422836475 -0.0125851564 0.0254989886
v -0.0424427299 -0.0127442436 0.0256423187
v -0.0423020821 -0.0126035957 0.0284868526
v -0.0422650318 -0.0125665503 0.0285147119
v -0.0424252014 -0.0127267151 0.0322477317
v -0.0424433308 -0.0127448492 0.0322830296
v -0.0424343758 -0.0127358942 0.0337347317
v -0.0422512321 -0.0125527506 0.0339982939
v -0.0423845177 -0.0126860313 0.0359506965
v -0.042468298 -0.00994138527 0.0180493033
v -0.0424276142 -0.00990070152 0.0202477312
v -0.0423260479 -0.00979913521 0.0204915786
v -0.042279747 -0.00975283432 0.020676477
v -0.0423198967 -0.00979298401 0.0214884138
v -0.0424184399 -0.00989152718 0.0217347312
v -0.0424976997 -0.00997078705 0.0218683219
v -0.0423291664 -0.00980225372 0.0257366538
v -0.042283514 -0.00975660133 0.0257979178
v -0.0423136978 -0.00978678513 0.0282433009
v -0.0424965076 -0.00996959496 0.0284416819
v -0.0424276142 -0.00990070152 0.0322477317
v -0.0423260479 -0.00979913521 0.0324915791
v -0.042279747 -0.00975283432 0.032676475
v -0.0423198967 -0.00979298401 0.0334884143
v -0.0424184399 -0.00989152718 0.0337347317
v -0.0424976997 -0.00997078705 0.0338683224
v -0.0423579388 -0.00983103085 0.0359329152
v -0.0422689419 -0.00974203396 0.0207401109
v -0.042250164 -0.00972325611 0.0209563756
v -0.042265871 -0.00973895836 0.0212385106
v -0.0422758846 -0.00974897194 0.021302402
v -0.0422543697 -0.00972745705 0.0258406019
v -0.0422688084 -0.00974189568 0.0281809187
v -0.0422689419 -0.00974203396 0.0327401114
v -0.042250164 -0.00972325611 0.0329563761
v -0.042265871 -0.00973895836 0.0332385111
v -0.0422758846 -0.00974897194 0.0333024025
v -0.0422388344 -0.0125403481 0.0199887288
v -0.0422006969 -0.0125022106 0.0220483375
v -0.042246254 -0.0125477724 0.0254720497
v -0.042208231 -0.0125097446 0.0285530281
v -0.0422388344 -0.0125403481 0.031988728
v -0.0422006969 -0.0125022106 0.0340483379
v -0.0420523624 -0.0123538809 0.0180123341
v -0.0421876888 -0.0124892025 0.01993994
v -0.0420070629 -0.0123085814 0.0221818972
v -0.0421889954 -0.0124905043 0.0254351425
v -0.0420101147 -0.0123116236 0.0286495018
v -0.0421876888 -0.0124892025 0.0319399405
v -0.0420070629 -0.0123085814 0.0341818976
v -0.0421632271 -0.0124647408 0.0359780765
v -0.042247818 -0.00972091007 0.0180875874
v -0.04224963 -0.00972271729 0.020999999
v -0.0422497635 -0.0097228508 0.0210218143
v -0.0421734886 -0.00964657593 0.0259769154
v -0.0420624523 -0.00953553963 0.0262282157
v -0.0420269947 -0.00950008202 0.0263357568
v -0.0420530872 -0.00952617931 0.0277452302
v -0.042161005 -0.0096340971 0.0279992342
v -0.0422401886 -0.00971328068 0.0281375217
v -0.04224963 -0.00972271729 0.0329999995
v -0.0422497635 -0.0097228508 0.0330218148
v -0.0420284252 -0.00950151253 0.0358632708
v -0.0420039253 -0.00947701263 0.0264185667
v -0.0420189648 -0.00949205208 0.0276368308
v -0.0419924335 -0.012293952 0.0198111796
v -0.0419629269 -0.0122644453 0.0222015762
v -0.041989706 -0.0122912245 0.0253435707
v -0.0419486694 -0.0122501831 0.028668766
v -0.0419924335 -0.012293952 0.0318111801
v -0.0419629269 -0.0122644453 0.0342015767
v -0.0418303661 -0.0121318798 0.0180013704
v -0.0419480686 -0.0122495823 0.0197925925
v -0.0417501431 -0.0120516615 0.0222492385
v -0.0419280415 -0.0122295551 0.0253258276
v -0.0417612534 -0.012062767 0.0286989641
v -0.0419480686 -0.0122495823 0.031792593
v -0.0417501431 -0.0120516615 0.034249239
v -0.0419414024 -0.0122429161 0.0359945178
v -0.0419192104 -0.00939230251 0.0181653559
v -0.0419902687 -0.00946335602 0.0264746714
v -0.041946228 -0.00941932011 0.0267340612
v -0.0419316177 -0.00940470505 0.0269703317
v -0.0419314365 -0.00940451908 0.0270000005
v -0.0419839554 -0.00945704746 0.0274970317
v -0.0419969254 -0.00947001266 0.0275534654
v -0.0418103676 -0.00928345966 0.0358033276
v -0.0417193012 -0.0120208149 0.0179999995
v -0.0417347221 -0.0120362406 0.019750191
v -0.0417038708 -0.0120053892 0.0222498107
v -0.0417402821 -0.0120417957 0.0253002596
v -0.0417193012 -0.0120208149 0.0286999989
v -0.0417193012 -0.0120208149 0.0317499995
v -0.0417347221 -0.0120362406 0.0317501903
v -0.0417038708 -0.0120053892 0.0342498088
v -0.0417193012 -0.0120208149 0.035999999
v -0.0416082363 -0.01190975 0.0180013704
v -0.0416884499 -0.0119899683 0.019750762
v -0.0415054684 -0.0118069868 0.0222128701
v -0.0416983204 -0.0119998341 0.0253002596
v -0.041510561 -0.0118120747 0.0286741734
v -0.0416884499 -0.0119899683 0.0317507625
v -0.0415054684 -0.0118069868 0.0342128706
v -0.0416082363 -0.01190975 0.0359986281
v -0.0417019348 -0.00917502213 0.0182306695
v -0.0415939312 -0.00906701851 0.0182673383
v -0.0415939312 -0.00906701851 0.0357326627
v -0.0417019348 -0.00917502213 0.0357693315
v -0.0414972 -0.0117987185 0.0180054832
v -0.0414905338 -0.0117920475 0.0197925925
v -0.0414608746 -0.011762393 0.0221953821
v -0.041489933 -0.0117914467 0.0253312349
v -0.0414488869 -0.0117504053 0.0286564302
v -0.0414905338 -0.0117920475 0.031792593
v -0.0414608746 -0.011762393 0.0341953802
v -0.0414972 -0.0117987185 0.0359945178
v -0.0412753754 -0.011576889 0.0180219233
v -0.0414461689 -0.0117476826 0.0198111796
v -0.0412509136 -0.0115524273 0.0220600605
v -0.0414284878 -0.0117300062 0.0253504968
v -0.0412689953 -0.011570509 0.0285762119
v -0.0414461689 -0.0117476826 0.0318111801
v -0.0412509136 -0.0115524273 0.034060061
v -0.04138624 -0.0116877537 0.0359876657
v -0.0414863949 -0.00895948696 0.0183066678
v -0.041379364 -0.00885245609 0.0356513548
v -0.0412728672 -0.00874595928 0.0183932567
v -0.0412728672 -0.00874595928 0.0356067419
v -0.0412379055 -0.0115394192 0.0199516618
v -0.0411997681 -0.0115012817 0.0220112705
v -0.0412496071 -0.0115511255 0.0254351425
v -0.0412112789 -0.0115127926 0.0285407233
v -0.0412379055 -0.0115394192 0.0319516611
v -0.0411997681 -0.0115012817 0.034011271
v -0.0410540848 -0.0113555984 0.0180493033
v -0.0411873703 -0.0114888792 0.0200017047
v -0.0410042267 -0.0113057404 0.0202652693
v -0.0410042267 -0.0113057404 0.0217347312
v -0.041013401 -0.0113149147 0.0217522693
v -0.0411923389 -0.0114938574 0.0254720497
v -0.0411365204 -0.0114380341 0.0255131459
v -0.0410127335 -0.0113142471 0.02837533
v -0.0411549549 -0.0114564734 0.0285010099
v -0.0411873703 -0.0114888792 0.0320017052
v -0.0410042267 -0.0113057404 0.0322652674
v -0.0410042267 -0.0113057404 0.0337347317
v -0.041013401 -0.0113149147 0.0337522697
v -0.0411646442 -0.0114661579 0.0359657526
v -0.0411669426 -0.00864002991 0.018440491
v -0.0410616093 -0.00853469658 0.0355096674
v -0.0409952621 -0.0112967806 0.0202830291
v -0.0409538345 -0.0112553482 0.021624999
v -0.0409958725 -0.0112973862 0.0256423187
v -0.0409628086 -0.0112643223 0.028321147
v -0.0409952621 -0.0112967806 0.0322830296
v -0.0409538345 -0.0112553482 0.0336249995
v -0.0408336048 -0.0111351233 0.0180875874
v -0.0409462337 -0.0112477522 0.0203939891
v -0.0409056835 -0.0112071972 0.0205115867
v -0.0408354168 -0.0111369305 0.020999999
v -0.0408355503 -0.0111370687 0.0210218143
v -0.0408547287 -0.0111562471 0.0212598896
v -0.0409118347 -0.0112133484 0.0215084219
v -0.0409466152 -0.0112481337 0.0256977248
v -0.0408994846 -0.0112009983 0.0257566977
v -0.0407592754 -0.0110607891 0.0280230856
v -0.0409149532 -0.0112164669 0.0282633471
v -0.0409462337 -0.0112477522 0.0323939872
v -0.0409056835 -0.0112071972 0.0325115871
v -0.0408354168 -0.0111369305 0.0329999995
v -0.0408355503 -0.0111370687 0.0330218148
v -0.0408547287 -0.0111562471 0.0332598901
v -0.0409118347 -0.0112133484 0.03350842
v -0.0409437256 -0.011245244 0.0359329152
v -0.0409569149 -0.00842999744 0.0185427666
v -0.0408528786 -0.00832596111 0.0354022241
v -0.0407237606 -0.0110252743 0.0181108046
v -0.0407467918 -0.0110483103 0.0260007644
v -0.0406998806 -0.0110013943 0.0279008627
v -0.0407237606 -0.0110252743 0.035889194
v -0.0405049973 -0.0108065157 0.0181653559
v -0.0406889133 -0.0109904318 0.0261244345
v -0.0406388741 -0.0109403925 0.0262547684
v -0.0405697422 -0.0108712606 0.0265029693
v -0.0405289154 -0.0108304338 0.0267634058
v -0.0405172138 -0.0108187323 0.0270000005
v -0.0405320148 -0.0108335333 0.0272659397
v -0.0405760555 -0.0108775692 0.0275253296
v -0.0406482391 -0.0109497528 0.0277717829
v -0.040614212 -0.0109157257 0.0358632708
v -0.0407495289 -0.00822262096 0.0186553454
v -0.0405450611 -0.00801814365 0.0187780905
v -0.0405450611 -0.00801814365 0.0352219081
v -0.0406469135 -0.00812000561 0.035284543
v -0.0402877216 -0.0105892353 0.0182306695
v -0.0403961544 -0.0106976728 0.0358033276
v -0.0404439907 -0.00791707325 0.01884323
v -0.0403437405 -0.00781682301 0.0350891471
v -0.0400721817 -0.0103737001 0.0183066678
v -0.040179718 -0.0104812317 0.0357326627
v -0.040244339 -0.00771742153 0.0189809418
v -0.0401458149 -0.00761890221 0.0190534711
v -0.0400482063 -0.00752129364 0.0348715782
v -0.040244339 -0.00771742153 0.0350190592
v -0.0399651508 -0.0102666693 0.018348645
v -0.0399651508 -0.0102666693 0.0356513548
v -0.0397527294 -0.0100542431 0.018440491
v -0.039858654 -0.0101601725 0.0356067419
v -0.0399515324 -0.00742461967 0.0192057717
v -0.0398558311 -0.00732891846 0.0192854941
v -0.0398558311 -0.00732891846 0.0347145057
v -0.0399515324 -0.00742461967 0.0347942281
v -0.0397611313 -0.00723421383 0.0193675673
v -0.0397611313 -0.00723421383 0.0346324325
v -0.0396473961 -0.00994891453 0.0184903324
v -0.0395427017 -0.00984421062 0.0185427666
v -0.0395427017 -0.00984421062 0.0354572344
v -0.0396473961 -0.00994891453 0.0355096674
v -0.0396674519 -0.00714053917 0.0194519651
v -0.039574831 -0.00704791832 0.0195386624
v -0.039574831 -0.00704791832 0.0344613385
v -0.0396674519 -0.00714053917 0.0345480347
v -0.0393353157 -0.00963683414 0.0186553454
v -0.0394386559 -0.00974017429 0.0354022241
v -0.0394832973 -0.00695638466 0.0196276319
v -0.039303587 -0.00677667427 0.0198122799
v -0.039303587 -0.00677667427 0.0341877198
v -0.0393928699 -0.00686595726 0.0342811537
v -0.0392327003 -0.00953421879 0.0187154567
v -0.0392327003 -0.00953421879 0.035284543
v -0.0390297775 -0.0093312912 0.01884323
v -0.0391308479 -0.00943235683 0.0352219081
v -0.0392154675 -0.00668855476 0.0199079037
v -0.03912854 -0.00660163212 0.0200056863
v -0.0390428429 -0.00651592541 0.0338944006
v -0.0392154675 -0.00668855476 0.0340920973
v -0.0388301258 -0.00913163948 0.0189809418
v -0.0389295273 -0.00923103619 0.0350891471
v -0.0389583759 -0.00643146801 0.0202076149
v -0.0388751965 -0.006348279 0.0203116965
v -0.0387933044 -0.00626639175 0.0335821843
v -0.0389583759 -0.00643146801 0.0337923861
v -0.0387316017 -0.00903311539 0.0190534711
v -0.0387316017 -0.00903311539 0.0349465275
v -0.0385373192 -0.00883883286 0.0192057717
v -0.0386339931 -0.00893550682 0.0348715782
v -0.038712738 -0.00618582058 0.0205259418
v -0.0385556679 -0.00602875042 0.0332519245
v -0.0382532387 -0.00855475235 0.0194519651
v -0.038441618 -0.00874313164 0.0347145057
v -0.0384792118 -0.00595229435 0.0208620143
v -0.0383305721 -0.00580365944 0.021095469
v -0.0383305721 -0.00580365944 0.032904532
v -0.0384041672 -0.00587725925 0.0330221748
v -0.0382584362 -0.00573152351 0.0212149119
v -0.0382584362 -0.00573152351 0.032785089
v -0.0380690842 -0.00837059784 0.0196276319
v -0.0381606178 -0.0084621315 0.0344613385
v -0.038187788 -0.00566087532 0.0213361168
v -0.0380510311 -0.00552411842 0.0215836644
v -0.0380510311 -0.00552411842 0.0324163342
v -0.0381186466 -0.00559173393 0.0325409532
v -0.0379786568 -0.00828017521 0.0197188473
v -0.0379786568 -0.00828017521 0.0342811537
v -0.0378012543 -0.00810276794 0.0199079037
v -0.0378893738 -0.00819088745 0.0341877198
v -0.0379849606 -0.00545804787 0.0217099333
v -0.0379204636 -0.00539355087 0.0218378115
v -0.0377962475 -0.00526933479 0.022098248
v -0.0377962475 -0.00526933479 0.0319017506
v -0.0378575497 -0.00533063698 0.0320327353
v -0.0379849606 -0.00545804787 0.0322900677
v -0.0377143269 -0.0080158453 0.0200056863
v -0.0377143269 -0.0080158453 0.0339943147
v -0.0375441628 -0.00784568119 0.0202076149
v -0.0376286201 -0.00793013859 0.0338944006
v -0.0377365665 -0.00520965862 0.0222307277
v -0.0376785355 -0.00515162277 0.0223646569
v -0.0376221638 -0.00509525108 0.0225
v -0.0375674706 -0.00504055786 0.031363287
v -0.0376221638 -0.00509525108 0.031500001
v -0.0377365665 -0.00520965862 0.0317692733
v -0.0375144653 -0.00498755741 0.022774756
v -0.0375144653 -0.00498755741 0.031225245
v -0.0374609833 -0.00776249218 0.0203116965
v -0.0374609833 -0.00776249218 0.0336883044
v -0.0373790913 -0.00768060493 0.0204178166
v -0.0372985249 -0.00760003853 0.0205259418
v -0.0372985249 -0.00760003853 0.0334740591
v -0.0373790913 -0.00768060493 0.0335821843
v -0.0374631863 -0.00493626881 0.0229140854
v -0.0374136238 -0.00488671112 0.0230546594
v -0.0373197441 -0.00479283619 0.0233393693
v -0.0373197441 -0.00479283619 0.0306606293
v -0.0373658066 -0.00483889389 0.0308035636
v -0.0374631863 -0.00493626881 0.0310859156
v -0.0372754555 -0.00474854279 0.0234834194
v -0.0372754555 -0.00474854279 0.0305165792
v -0.0372193031 -0.0075208168 0.0206360388
v -0.0372193031 -0.0075208168 0.0333639622
v -0.0371414452 -0.0074429636 0.0207480741
v -0.0370649891 -0.00736650753 0.0208620143
v -0.0370649891 -0.00736650753 0.0331379843
v -0.0371414452 -0.0074429636 0.0332519245
v -0.0372329502 -0.00470603752 0.02362854
v -0.0371922474 -0.00466532993 0.0237746882
v -0.0371162682 -0.00458936024 0.0240698862
v -0.0370476322 -0.00452071476 0.0243686557
v -0.0370476322 -0.00452071476 0.0296313453
v -0.0370810299 -0.0045541172 0.0297811532
v -0.037153347 -0.00462643433 0.0300781822
v -0.0372329502 -0.00470603752 0.0303714585
v -0.0370160847 -0.00448917198 0.0245192647
v -0.0370160847 -0.00448917198 0.0294807363
v -0.036989954 -0.00729147243 0.0209778237
v -0.036989954 -0.00729147243 0.0330221748
v -0.036844223 -0.00714573669 0.0212149119
v -0.0367735748 -0.0070750885 0.0213361168
v -0.0367735748 -0.0070750885 0.0326638842
v -0.0369163589 -0.00721787262 0.032904532
v -0.0369863968 -0.00445948887 0.0246706295
v -0.0369585876 -0.00443167973 0.0248227024
v -0.0369086246 -0.00438170719 0.0251287937
v -0.0368864803 -0.00435956287 0.0252827191
v -0.0368479042 -0.00432099152 0.0255920887
v -0.0368169861 -0.00429007816 0.0259031749
v -0.0368044167 -0.00427750397 0.0260592437
v -0.0367850571 -0.00425814438 0.0263721919
v -0.0367782764 -0.00425136375 0.026528976
v -0.0367782764 -0.00425136375 0.0274710226
v -0.0367850571 -0.00425814438 0.027627809
v -0.0367937737 -0.00426685619 0.0277844024
v -0.0368169861 -0.00429007816 0.0280968237
v -0.0368314819 -0.00430457401 0.0282525587
v -0.0368662338 -0.0043393259 0.0285628343
v -0.0369086246 -0.00438170719 0.0288712049
v -0.0369326572 -0.00440574932 0.0290245605
v -0.0369863968 -0.00445948887 0.0293293715
v -0.0367734318 -0.00424651909 0.0266859055
v -0.0367705231 -0.00424361038 0.0268429279
v -0.0367695503 -0.0042426424 0.0270000005
v -0.0367734318 -0.00424651909 0.0273140955
v -0.0367044334 -0.00700594711 0.0214590478
v -0.0367044334 -0.00700594711 0.0325409532
v -0.0365707474 -0.00687226105 0.0217099333
v -0.0365062504 -0.00680776405 0.0218378115
v -0.0365062504 -0.00680776405 0.0321621871
v -0.0366368179 -0.0069383316 0.0324163342
v -0.0364433365 -0.00674485016 0.0219672632
v -0.0363223534 -0.0066238718 0.0222307277
v -0.0362643223 -0.00656583595 0.0223646569
v -0.0362643223 -0.00656583595 0.0316353416
v -0.0363820343 -0.00668354797 0.0319017506
v -0.0364433365 -0.00674485016 0.0320327353
v -0.0362079506 -0.00650946426 0.0225
v -0.0362079506 -0.00650946426 0.031500001
v -0.0361532574 -0.00645477104 0.022636714
v -0.0360489731 -0.00635048676 0.0229140854
v -0.0361002522 -0.00640177059 0.031225245
v -0.0361532574 -0.00645477104 0.031363287
v -0.0359515934 -0.00625310707 0.023196435
v -0.0359994106 -0.0063009243 0.0309453392
v -0.0358612423 -0.00616275597 0.0234834194
v -0.035818737 -0.00612025547 0.02362854
v -0.0357780342 -0.00607954788 0.0237746882
v -0.0357780342 -0.00607954788 0.0302253127
v -0.035818737 -0.00612025547 0.0303714585
v -0.0359055309 -0.00620704937 0.0306606293
v -0.0357391338 -0.00604064751 0.0239218187
v -0.035702055 -0.00600357342 0.0240698862
v -0.035702055 -0.00600357342 0.0299301124
v -0.0357391338 -0.00604064751 0.0300781822
v -0.0356668167 -0.00596833038 0.0242188478
v -0.0356334095 -0.00593492794 0.0243686557
v -0.0355721836 -0.00587370205 0.0246706295
v -0.0355184441 -0.0058199625 0.0249754405
v -0.0355443745 -0.00584589291 0.0291772962
v -0.0356018715 -0.00590338516 0.0294807363
v -0.0356334095 -0.00593492794 0.0296313453
v -0.0356668167 -0.00596833038 0.0297811532
v -0.0354944115 -0.00579592037 0.0251287937
v -0.0354520206 -0.00575353909 0.0254371667
v -0.0354722672 -0.00577377605 0.0287172818
v -0.0354944115 -0.00579592037 0.0288712049
v -0.0354172688 -0.00571878719 0.0257474422
v -0.0354027729 -0.00570429134 0.0259031749
v -0.0353795605 -0.00568106937 0.0262155986
v -0.0353708439 -0.00567235756 0.0263721919
v -0.0353592186 -0.00566073227 0.0266859055
v -0.0353563099 -0.00565782356 0.0268429279
v -0.0353563099 -0.00565782356 0.0271570706
v -0.0353640633 -0.00566557693 0.0274710226
v -0.0353708439 -0.00567235756 0.027627809
v -0.0353902035 -0.00569171715 0.0279407573
v -0.0354027729 -0.00570429134 0.0280968237
v -0.035433691 -0.0057352047 0.0284079099
f 1 73 2
f 2 307 1
f 21 73 1
f 1 307 21
f 2 74 3
f 3 307 2
f 2 73 74
f 3 75 4
f 4 307 3
f 3 74 75
f 4 69 5
f 5 268 4
f 4 75 69
f 4 268 279
f 4 279 290
f 290 297 4
f 4 297 307
f 5 51 6
f 6 245 5
f 5 69 51
f 5 245 244
f 244 257 5
f 5 257 269
f 5 269 268
f 6 52 7
f 7 216 6
f 6 51 52
f 6 216 226
f 6 226 245
f 7 53 8
f 8 217 7
f 7 52 53
f 7 217 216
f 8 54 9
f 9 209 8
f 8 53 54
f 8 209 218
f 218 217 8
f 9 55 10
f 10 204 9
f 9 54 55
f 9 204 209
f 10 56 11
f 11 205 10
f 10 55 56
f 10 205 204
f 11 57 12
f 12 206 11
f 11 56 57
f 11 206 205
f 12 58 13
f 13 207 12
f 12 57 58
f 207 206 12
f 13 59 14
f 14 219 13
f 13 58 59
f 13 210 207
f 13 219 210
f 14 60 15
f 15 220 14
f 14 59 60
f 14 220 219
f 15 61 16
f 16 221 15
f 15 60 61
f 15 221 220
f 16 62 17
f 17 247 16
f 16 61 62
f 16 227 221
f 16 246 227
f 16 247 246
f 17 70 18
f 737 17 18
f 17 62 70
f 17 258 247
f 17 270 258
f 271 270 17
f 17 280 271
f 291 280 17
f 17 298 291
f 308 298 17
f 736 308 17
f 736 17 737
f 18 76 19
f 738 18 19
f 18 70 76
f 737 18 738
f 19 77 20
f 739 19 20
f 19 76 77
f 738 19 739
f 20 78 22
f 715 20 22
f 20 77 78
f 739 20 715
f 26 72 21
f 21 307 26
f 21 72 73
f 22 78 27
f 710 22 27
f 715 22 710
f 23 90 24
f 24 307 23
f 33 89 23
f 23 307 33
f 23 89 90
f 24 85 25
f 25 307 24
f 24 91 85
f 24 90 91
f 25 71 26
f 26 307 25
f 25 86 71
f 25 85 86
f 26 71 72
f 27 79 28
f 711 27 28
f 27 78 79
f 710 27 711
f 28 87 29
f 712 28 29
f 28 79 80
f 28 80 87
f 711 28 712
f 29 92 30
f 713 29 30
f 29 87 88
f 29 88 92
f 712 29 713
f 30 93 34
f 699 30 34
f 30 92 93
f 713 30 699
f 31 100 32
f 32 307 31
f 37 100 31
f 31 307 37
f 32 97 33
f 33 307 32
f 32 101 97
f 32 100 101
f 33 97 89
f 34 94 35
f 696 34 35
f 34 93 94
f 695 34 696
f 699 34 695
f 35 102 36
f 697 35 36
f 35 94 98
f 35 98 102
f 696 35 697
f 36 103 38
f 685 36 38
f 36 102 103
f 697 36 685
f 41 99 37
f 37 307 41
f 37 99 100
f 38 103 42
f 681 38 42
f 685 38 681
f 39 111 40
f 40 243 39
f 47 111 39
f 39 243 47
f 40 112 41
f 41 307 40
f 40 111 112
f 307 243 40
f 41 109 99
f 41 112 109
f 42 104 43
f 682 42 43
f 42 103 104
f 681 42 682
f 43 113 44
f 309 43 44
f 43 104 110
f 43 110 113
f 309 683 43
f 682 43 683
f 44 114 48
f 48 292 44
f 44 113 114
f 44 292 299
f 44 299 310
f 44 310 309
f 45 121 46
f 46 242 45
f 64 121 45
f 45 242 64
f 46 119 47
f 47 243 46
f 46 122 119
f 46 121 122
f 46 243 242
f 47 119 111
f 48 114 49
f 49 272 48
f 272 281 48
f 48 281 292
f 49 123 50
f 50 248 49
f 49 114 120
f 49 120 123
f 49 248 259
f 49 259 273
f 49 273 272
f 50 124 65
f 65 249 50
f 50 123 124
f 249 248 50
f 51 357 52
f 69 441 51
f 51 356 357
f 392 356 51
f 403 392 51
f 402 403 51
f 51 441 402
f 52 357 53
f 53 322 54
f 346 322 53
f 53 358 346
f 53 357 358
f 54 323 55
f 54 322 323
f 55 324 56
f 55 323 324
f 56 325 57
f 56 324 325
f 57 326 58
f 57 325 326
f 58 327 59
f 326 327 58
f 59 328 60
f 59 327 328
f 60 347 61
f 60 328 329
f 329 347 60
f 61 360 62
f 61 347 359
f 359 360 61
f 62 404 70
f 62 360 361
f 62 361 393
f 62 393 404
f 63 129 64
f 64 242 63
f 67 131 63
f 63 242 67
f 63 132 129
f 63 131 132
f 64 129 121
f 65 124 66
f 66 249 65
f 66 133 68
f 68 250 66
f 66 124 130
f 66 130 133
f 250 249 66
f 82 131 67
f 67 242 82
f 68 134 83
f 83 228 68
f 68 133 134
f 228 250 68
f 75 441 69
f 70 784 76
f 404 405 70
f 70 405 442
f 70 442 449
f 70 449 470
f 70 470 477
f 70 477 493
f 70 493 784
f 71 441 72
f 86 441 71
f 72 441 73
f 73 441 74
f 74 441 75
f 76 785 77
f 76 784 785
f 77 778 78
f 77 785 778
f 78 779 79
f 78 778 779
f 79 780 80
f 79 779 780
f 80 781 87
f 80 780 781
f 81 141 82
f 82 242 81
f 95 143 81
f 81 242 95
f 81 144 141
f 81 143 144
f 82 141 131
f 83 134 84
f 84 228 83
f 84 145 96
f 96 229 84
f 84 134 142
f 84 142 145
f 84 229 228
f 85 441 86
f 91 441 85
f 87 772 88
f 87 781 772
f 88 773 92
f 88 772 773
f 89 441 90
f 97 441 89
f 90 441 91
f 92 767 93
f 92 773 767
f 93 768 94
f 93 767 768
f 94 769 98
f 94 768 769
f 106 153 95
f 95 242 106
f 95 151 143
f 95 154 151
f 95 153 154
f 96 155 107
f 107 251 96
f 96 145 146
f 96 146 152
f 96 152 155
f 96 251 229
f 101 441 97
f 98 763 102
f 98 769 763
f 99 441 100
f 109 441 99
f 100 441 101
f 102 763 103
f 103 760 104
f 103 763 760
f 104 761 110
f 104 760 761
f 105 163 106
f 106 241 105
f 116 163 105
f 105 241 116
f 106 161 153
f 106 163 161
f 106 242 241
f 107 162 108
f 108 252 107
f 107 155 156
f 107 156 162
f 107 252 251
f 108 164 117
f 117 253 108
f 108 162 164
f 108 253 252
f 112 441 109
f 110 757 113
f 110 761 757
f 111 401 112
f 119 401 111
f 112 401 440
f 440 447 112
f 491 441 112
f 112 447 468
f 112 468 475
f 112 475 491
f 113 753 114
f 113 757 753
f 114 450 120
f 114 471 450
f 114 478 471
f 495 478 114
f 495 114 494
f 494 114 753
f 115 169 116
f 116 241 115
f 126 169 115
f 115 241 126
f 116 167 163
f 116 169 167
f 117 168 118
f 118 274 117
f 117 164 168
f 260 253 117
f 117 274 260
f 118 170 127
f 127 275 118
f 118 168 170
f 118 275 274
f 122 401 119
f 120 406 123
f 120 443 406
f 120 450 443
f 121 400 122
f 129 391 121
f 121 391 400
f 122 400 401
f 123 406 124
f 124 362 130
f 124 394 362
f 124 407 394
f 406 407 124
f 125 177 126
f 126 241 125
f 136 179 125
f 125 305 136
f 125 179 177
f 125 225 224
f 125 224 240
f 125 241 225
f 125 239 238
f 238 255 125
f 125 240 239
f 125 255 265
f 125 265 264
f 125 264 277
f 125 277 288
f 125 288 295
f 295 305 125
f 126 177 169
f 127 170 128
f 128 293 127
f 282 275 127
f 127 293 282
f 128 180 137
f 622 128 137
f 128 170 178
f 128 178 180
f 300 293 128
f 128 311 300
f 629 311 128
f 629 128 622
f 132 391 129
f 130 363 133
f 130 362 363
f 131 391 132
f 141 391 131
f 133 363 134
f 134 364 142
f 134 363 364
f 135 183 136
f 136 305 135
f 139 183 135
f 135 305 139
f 136 183 179
f 137 180 138
f 623 137 138
f 622 137 623
f 138 184 140
f 615 138 140
f 138 180 184
f 623 138 615
f 148 187 139
f 139 305 148
f 139 187 183
f 140 184 149
f 612 140 149
f 615 140 612
f 144 391 141
f 142 365 145
f 142 364 365
f 143 355 144
f 151 355 143
f 144 355 391
f 145 365 146
f 146 366 152
f 146 365 366
f 147 189 148
f 148 305 147
f 157 189 147
f 147 305 157
f 148 189 187
f 149 188 150
f 613 149 150
f 149 184 188
f 612 149 613
f 150 190 158
f 604 150 158
f 150 188 190
f 613 150 604
f 154 355 151
f 152 366 155
f 153 355 154
f 161 354 153
f 153 354 355
f 155 366 156
f 156 395 162
f 156 366 367
f 156 367 395
f 159 195 157
f 157 305 159
f 157 193 189
f 157 195 193
f 158 194 160
f 605 158 160
f 158 190 194
f 604 158 605
f 165 195 159
f 159 305 165
f 160 196 166
f 599 160 166
f 160 194 196
f 605 160 599
f 163 354 161
f 162 395 164
f 167 354 163
f 164 409 168
f 164 395 408
f 408 409 164
f 172 201 165
f 165 305 172
f 165 201 195
f 166 202 173
f 594 166 173
f 166 196 202
f 599 166 594
f 169 354 167
f 168 409 170
f 177 354 169
f 170 472 178
f 170 409 444
f 170 444 451
f 170 451 472
f 171 211 172
f 172 305 171
f 175 213 171
f 171 305 175
f 171 213 211
f 172 211 201
f 173 202 174
f 595 173 174
f 594 173 595
f 174 212 176
f 595 174 176
f 174 202 212
f 181 231 175
f 175 305 181
f 175 231 213
f 176 214 182
f 577 176 182
f 176 212 214
f 595 176 577
f 179 353 177
f 177 353 354
f 178 665 180
f 472 479 178
f 178 479 496
f 178 496 665
f 183 353 179
f 180 659 184
f 180 665 659
f 185 233 181
f 181 305 185
f 181 234 231
f 181 233 234
f 182 235 186
f 551 182 186
f 182 214 232
f 182 232 235
f 577 182 551
f 187 353 183
f 184 651 188
f 184 659 651
f 191 261 185
f 185 305 191
f 185 261 233
f 186 262 192
f 529 186 192
f 186 235 236
f 186 236 262
f 551 186 529
f 189 353 187
f 188 651 190
f 193 352 189
f 189 352 353
f 190 647 194
f 190 651 647
f 198 285 191
f 191 305 198
f 191 283 261
f 191 285 283
f 192 286 199
f 508 192 199
f 192 262 284
f 192 284 286
f 527 192 508
f 529 192 527
f 195 352 193
f 194 645 196
f 194 647 645
f 201 352 195
f 196 639 202
f 196 645 639
f 197 301 198
f 198 305 197
f 203 301 197
f 197 305 203
f 198 301 285
f 199 286 200
f 509 199 200
f 508 199 509
f 200 302 208
f 488 200 208
f 200 286 302
f 509 200 488
f 211 351 201
f 201 351 352
f 202 633 212
f 202 639 633
f 203 305 215
f 215 321 203
f 203 321 301
f 205 325 204
f 204 324 209
f 204 325 324
f 206 326 205
f 205 326 325
f 207 327 206
f 206 327 326
f 210 328 207
f 207 328 327
f 208 330 222
f 464 208 222
f 208 302 330
f 488 208 464
f 209 323 218
f 209 324 323
f 219 328 210
f 213 351 211
f 212 631 214
f 212 633 631
f 231 351 213
f 214 625 232
f 214 631 625
f 215 305 223
f 223 349 215
f 215 345 321
f 215 349 345
f 217 358 216
f 216 357 226
f 216 358 357
f 218 323 217
f 217 323 322
f 217 322 346
f 217 346 358
f 220 329 219
f 219 329 328
f 221 360 220
f 220 347 329
f 220 359 347
f 220 360 359
f 227 360 221
f 222 348 230
f 464 222 230
f 222 330 348
f 223 305 237
f 237 389 223
f 223 389 349
f 225 353 224
f 224 352 240
f 224 353 352
f 241 354 225
f 225 354 353
f 226 357 245
f 246 360 227
f 229 365 228
f 228 364 250
f 228 365 364
f 251 366 229
f 229 366 365
f 230 368 254
f 428 230 254
f 230 348 368
f 464 230 428
f 234 351 231
f 232 625 235
f 233 351 234
f 261 350 233
f 350 351 233
f 235 618 236
f 235 625 618
f 236 619 262
f 236 618 619
f 237 305 263
f 263 397 237
f 237 397 389
f 239 399 238
f 238 398 255
f 238 399 398
f 240 351 239
f 239 351 350
f 239 350 390
f 239 390 399
f 240 352 351
f 242 355 241
f 241 355 354
f 243 401 242
f 242 391 355
f 242 400 391
f 242 401 400
f 256 243 307
f 256 401 243
f 245 357 244
f 244 403 257
f 244 357 356
f 244 356 392
f 244 392 403
f 247 361 246
f 246 361 360
f 258 404 247
f 247 393 361
f 247 404 393
f 249 407 248
f 248 406 259
f 248 407 406
f 250 363 249
f 249 363 362
f 249 362 394
f 249 394 407
f 250 364 363
f 252 367 251
f 251 367 366
f 253 409 252
f 252 395 367
f 252 408 395
f 252 409 408
f 260 409 253
f 382 254 276
f 254 410 276
f 254 368 396
f 428 254 382
f 254 396 410
f 255 398 265
f 307 266 256
f 266 401 256
f 257 403 269
f 270 404 258
f 259 406 273
f 274 409 260
f 283 390 261
f 261 390 350
f 262 609 284
f 262 619 609
f 263 305 287
f 287 445 263
f 263 445 397
f 265 398 264
f 264 446 277
f 264 398 439
f 264 439 446
f 307 267 266
f 267 440 266
f 266 440 401
f 307 278 267
f 278 447 267
f 267 447 440
f 269 403 268
f 268 448 279
f 268 403 402
f 268 402 441
f 268 441 448
f 271 405 270
f 270 405 404
f 280 449 271
f 271 442 405
f 271 449 442
f 273 406 272
f 272 450 281
f 272 406 443
f 272 443 450
f 275 444 274
f 274 444 409
f 282 451 275
f 275 451 444
f 338 276 294
f 276 452 294
f 382 276 338
f 276 410 452
f 277 446 288
f 307 289 278
f 289 447 278
f 279 448 290
f 291 449 280
f 281 450 292
f 293 451 282
f 285 399 283
f 283 399 390
f 284 607 286
f 284 609 607
f 301 398 285
f 285 398 399
f 286 601 302
f 286 607 601
f 305 304 287
f 304 473 287
f 287 473 445
f 288 474 295
f 288 446 467
f 288 467 474
f 307 296 289
f 296 475 289
f 289 468 447
f 289 475 468
f 290 476 297
f 290 448 469
f 290 469 476
f 298 477 291
f 291 470 449
f 291 477 470
f 292 478 299
f 292 450 471
f 292 471 478
f 300 479 293
f 293 472 451
f 293 479 472
f 320 294 312
f 294 480 312
f 338 294 320
f 294 452 480
f 295 474 305
f 306 296 307
f 306 475 296
f 297 476 307
f 308 477 298
f 299 478 310
f 311 479 300
f 321 398 301
f 302 597 330
f 302 601 597
f 305 303 304
f 303 489 304
f 305 313 303
f 313 498 303
f 303 498 489
f 304 489 473
f 305 331 313
f 314 331 305
f 305 499 314
f 305 474 490
f 305 490 499
f 307 316 306
f 315 500 306
f 679 315 306
f 306 316 334
f 334 341 306
f 306 341 374
f 306 374 679
f 306 491 475
f 306 500 491
f 307 501 316
f 307 476 492
f 307 492 501
f 317 502 308
f 317 308 736
f 308 493 477
f 308 502 493
f 309 494 310
f 310 495 309
f 310 683 309
f 309 495 494
f 310 503 318
f 683 310 318
f 310 478 495
f 310 494 495
f 310 495 503
f 319 504 311
f 319 311 629
f 311 496 479
f 311 504 496
f 312 497 320
f 312 480 497
f 331 510 313
f 313 510 498
f 332 331 314
f 314 499 332
f 333 500 315
f 333 315 679
f 316 501 334
f 335 502 317
f 736 335 317
f 318 503 336
f 683 318 336
f 337 504 319
f 629 337 319
f 320 505 338
f 320 497 505
f 345 439 321
f 321 439 398
f 330 591 348
f 330 597 591
f 332 369 331
f 369 518 331
f 331 518 510
f 339 411 332
f 332 519 339
f 332 411 369
f 332 499 511
f 332 511 519
f 340 520 333
f 340 333 679
f 333 512 500
f 333 520 512
f 334 521 341
f 334 501 513
f 334 513 521
f 342 522 335
f 342 335 736
f 335 514 502
f 335 522 514
f 336 523 343
f 671 336 343
f 336 503 515
f 336 515 523
f 683 336 671
f 344 524 337
f 344 337 628
f 337 516 504
f 337 524 516
f 628 337 629
f 338 525 382
f 338 505 517
f 338 517 525
f 370 411 339
f 339 519 370
f 373 520 340
f 679 373 340
f 341 521 374
f 377 522 342
f 736 377 342
f 343 523 378
f 343 378 671
f 381 524 344
f 628 381 344
f 349 446 345
f 345 446 439
f 348 581 368
f 348 591 581
f 389 446 349
f 368 575 396
f 368 581 575
f 411 536 369
f 369 536 518
f 371 453 370
f 370 530 371
f 370 453 411
f 370 519 530
f 383 481 371
f 371 537 383
f 371 481 453
f 371 530 537
f 372 540 373
f 679 372 373
f 384 540 372
f 679 384 372
f 373 531 520
f 373 540 531
f 374 541 375
f 375 726 374
f 374 521 532
f 374 532 541
f 679 374 680
f 680 374 684
f 684 374 692
f 692 374 693
f 693 374 694
f 694 374 698
f 698 374 706
f 706 374 707
f 707 374 708
f 708 374 709
f 709 374 714
f 714 374 722
f 722 374 723
f 723 374 724
f 724 374 725
f 374 726 725
f 375 542 385
f 385 726 375
f 375 541 542
f 376 543 377
f 376 377 736
f 386 543 376
f 736 386 376
f 377 533 522
f 377 544 533
f 377 543 544
f 378 534 379
f 672 378 379
f 378 523 534
f 671 378 672
f 379 545 387
f 672 379 387
f 379 534 545
f 380 548 381
f 637 380 381
f 388 548 380
f 636 388 380
f 636 380 637
f 381 535 524
f 381 548 535
f 637 381 628
f 382 549 428
f 382 525 549
f 412 506 383
f 383 537 412
f 383 506 481
f 417 540 384
f 679 417 384
f 385 542 418
f 418 726 385
f 421 543 386
f 421 386 736
f 387 545 422
f 387 422 672
f 427 548 388
f 636 427 388
f 397 446 389
f 396 575 410
f 445 467 397
f 397 467 446
f 410 549 452
f 410 575 549
f 453 558 411
f 411 558 536
f 413 526 412
f 412 537 413
f 412 507 506
f 412 526 507
f 414 550 413
f 413 559 414
f 413 528 526
f 413 550 528
f 413 537 538
f 413 538 552
f 413 552 559
f 414 560 429
f 429 592 414
f 414 576 550
f 414 559 560
f 414 592 576
f 415 563 416
f 641 415 416
f 432 563 415
f 627 432 415
f 627 415 634
f 634 415 635
f 635 415 640
f 640 415 641
f 416 539 417
f 669 416 417
f 416 553 539
f 416 564 553
f 416 563 564
f 641 416 648
f 648 416 652
f 652 416 653
f 653 416 656
f 656 416 660
f 660 416 661
f 661 416 668
f 668 416 669
f 417 539 540
f 669 417 670
f 670 417 678
f 678 417 679
f 418 565 419
f 419 726 418
f 418 542 554
f 418 554 565
f 419 566 433
f 433 727 419
f 419 565 566
f 419 727 726
f 420 567 421
f 735 420 421
f 434 567 420
f 735 434 420
f 421 555 543
f 421 568 555
f 421 567 568
f 735 421 736
f 422 545 423
f 422 423 673
f 672 422 673
f 423 569 424
f 663 423 424
f 423 545 546
f 423 546 556
f 423 556 569
f 662 423 663
f 673 423 662
f 424 570 435
f 657 424 435
f 424 569 570
f 663 424 657
f 425 573 426
f 642 425 426
f 438 573 425
f 438 425 649
f 649 425 642
f 426 547 427
f 426 427 643
f 426 557 547
f 426 574 557
f 426 573 574
f 642 426 643
f 427 547 548
f 643 427 636
f 428 575 464
f 428 549 575
f 429 560 430
f 430 593 429
f 429 593 592
f 430 561 454
f 454 603 430
f 430 560 561
f 430 598 593
f 430 602 598
f 430 603 602
f 431 562 432
f 626 431 432
f 455 562 431
f 455 431 610
f 610 431 611
f 611 431 614
f 614 431 620
f 620 431 621
f 621 431 626
f 432 562 563
f 626 432 627
f 433 566 456
f 456 727 433
f 461 567 434
f 735 461 434
f 435 570 436
f 657 435 436
f 436 571 462
f 436 462 655
f 436 570 571
f 654 436 655
f 657 436 654
f 437 572 438
f 649 437 438
f 463 572 437
f 655 463 437
f 655 437 649
f 438 572 573
f 448 441 491
f 474 467 445
f 473 474 445
f 491 469 448
f 452 525 480
f 452 549 525
f 481 582 453
f 453 578 558
f 453 582 578
f 454 561 455
f 455 610 454
f 454 610 603
f 455 561 562
f 456 566 457
f 457 728 456
f 456 728 727
f 457 583 458
f 458 729 457
f 457 566 579
f 457 579 583
f 457 729 728
f 458 584 465
f 465 729 458
f 458 583 584
f 459 589 460
f 733 459 460
f 466 589 459
f 733 466 459
f 460 580 461
f 460 461 734
f 460 590 580
f 460 589 590
f 733 460 734
f 461 580 567
f 734 461 735
f 462 571 463
f 655 462 463
f 463 571 572
f 464 591 488
f 464 575 581
f 464 581 591
f 465 584 482
f 482 730 465
f 465 730 729
f 487 589 466
f 487 466 732
f 732 466 733
f 491 476 469
f 489 474 473
f 489 490 474
f 491 492 476
f 480 505 497
f 480 517 505
f 480 525 517
f 506 596 481
f 481 596 582
f 482 584 483
f 483 730 482
f 483 585 484
f 484 741 483
f 483 584 585
f 483 740 730
f 483 741 740
f 484 586 485
f 485 742 484
f 484 585 586
f 484 742 741
f 485 587 486
f 485 486 743
f 485 586 587
f 742 485 743
f 486 588 487
f 732 486 487
f 486 587 588
f 731 486 732
f 743 486 731
f 487 588 589
f 488 597 509
f 488 591 597
f 498 490 489
f 510 490 498
f 664 499 490
f 518 490 510
f 536 490 518
f 558 490 536
f 578 490 558
f 582 490 578
f 596 490 582
f 600 490 596
f 606 490 600
f 608 490 606
f 616 490 608
f 617 490 616
f 624 490 617
f 630 490 624
f 632 490 630
f 638 490 632
f 644 490 638
f 646 490 644
f 650 490 646
f 658 490 650
f 664 490 658
f 491 500 492
f 492 500 512
f 783 501 492
f 492 512 520
f 492 520 531
f 492 531 540
f 492 540 752
f 756 492 752
f 758 492 756
f 759 492 758
f 762 492 759
f 764 492 762
f 765 492 764
f 766 492 765
f 770 492 766
f 771 492 770
f 774 492 771
f 775 492 774
f 776 492 775
f 777 492 776
f 782 492 777
f 783 492 782
f 784 493 502
f 754 495 494
f 494 753 754
f 754 503 495
f 665 496 504
f 664 511 499
f 783 513 501
f 784 502 514
f 515 503 754
f 665 504 516
f 507 600 506
f 506 600 596
f 526 600 507
f 509 597 508
f 508 601 527
f 508 597 601
f 664 519 511
f 783 521 513
f 784 514 522
f 523 515 754
f 665 516 524
f 664 530 519
f 783 532 521
f 784 522 533
f 755 534 523
f 755 523 754
f 667 524 535
f 665 524 667
f 528 608 526
f 526 606 600
f 526 608 606
f 527 607 529
f 527 601 607
f 550 608 528
f 529 609 551
f 529 607 609
f 537 530 664
f 786 541 532
f 786 532 783
f 533 544 784
f 755 545 534
f 667 535 548
f 664 538 537
f 552 538 664
f 747 540 539
f 746 539 553
f 747 539 746
f 750 540 747
f 751 540 750
f 752 540 751
f 786 542 541
f 786 554 542
f 544 543 784
f 543 555 797
f 784 543 797
f 546 545 749
f 749 545 748
f 748 545 755
f 749 556 546
f 677 548 547
f 677 547 557
f 667 548 675
f 675 548 677
f 576 617 550
f 550 616 608
f 550 617 616
f 551 619 577
f 551 609 619
f 559 552 664
f 716 553 564
f 718 553 716
f 719 553 718
f 744 553 719
f 746 553 744
f 786 565 554
f 555 568 797
f 569 556 749
f 687 557 574
f 677 557 687
f 560 559 664
f 561 560 664
f 562 561 664
f 664 563 562
f 688 564 563
f 666 563 664
f 674 563 666
f 676 563 674
f 686 563 676
f 688 563 686
f 689 564 688
f 700 564 689
f 702 564 700
f 703 564 702
f 716 564 703
f 786 566 565
f 788 579 566
f 787 566 786
f 788 566 787
f 797 568 567
f 796 567 580
f 797 567 796
f 570 569 745
f 745 569 749
f 571 570 721
f 721 570 720
f 720 570 745
f 572 571 717
f 717 571 721
f 705 573 572
f 705 572 704
f 704 572 717
f 691 574 573
f 691 573 690
f 690 573 701
f 701 573 705
f 687 574 691
f 592 624 576
f 576 624 617
f 577 625 595
f 577 619 618
f 577 618 625
f 788 583 579
f 580 590 795
f 796 580 795
f 584 583 789
f 789 583 788
f 790 585 584
f 790 584 789
f 791 586 585
f 791 585 790
f 792 587 586
f 792 586 791
f 588 587 793
f 793 587 792
f 794 589 588
f 794 588 793
f 795 590 589
f 795 589 794
f 593 632 592
f 592 630 624
f 592 632 630
f 598 632 593
f 595 631 594
f 594 633 599
f 594 631 633
f 595 625 631
f 602 638 598
f 598 638 632
f 599 639 605
f 599 633 639
f 603 644 602
f 602 644 638
f 610 646 603
f 603 646 644
f 605 639 604
f 604 647 613
f 604 639 645
f 604 645 647
f 611 650 610
f 610 650 646
f 614 650 611
f 613 647 612
f 612 651 615
f 612 647 651
f 620 650 614
f 615 651 623
f 621 658 620
f 620 658 650
f 626 658 621
f 623 651 622
f 622 659 629
f 622 651 659
f 627 666 626
f 626 664 658
f 626 666 664
f 634 666 627
f 629 665 628
f 628 667 637
f 628 665 667
f 629 659 665
f 635 674 634
f 634 674 666
f 640 676 635
f 635 676 674
f 637 667 636
f 636 677 643
f 636 667 675
f 636 675 677
f 641 686 640
f 640 686 676
f 648 689 641
f 641 688 686
f 641 689 688
f 643 677 642
f 642 691 649
f 642 677 687
f 642 687 691
f 652 703 648
f 648 700 689
f 648 702 700
f 648 703 702
f 649 705 655
f 649 691 690
f 649 690 701
f 649 701 705
f 653 718 652
f 652 716 703
f 652 718 716
f 656 718 653
f 655 717 654
f 654 721 657
f 654 717 721
f 655 705 704
f 655 704 717
f 660 719 656
f 656 719 718
f 657 721 663
f 661 746 660
f 660 744 719
f 660 746 744
f 668 746 661
f 663 745 662
f 662 749 673
f 662 745 749
f 663 721 720
f 663 720 745
f 669 747 668
f 668 747 746
f 670 751 669
f 669 750 747
f 669 751 750
f 678 751 670
f 672 755 671
f 671 754 683
f 671 755 754
f 673 749 672
f 672 749 748
f 672 748 755
f 679 752 678
f 678 752 751
f 680 756 679
f 679 756 752
f 684 759 680
f 680 758 756
f 680 759 758
f 682 757 681
f 681 761 685
f 681 757 761
f 683 754 682
f 682 754 753
f 682 753 757
f 692 759 684
f 685 760 697
f 685 761 760
f 693 762 692
f 692 762 759
f 694 764 693
f 693 764 762
f 698 764 694
f 696 763 695
f 695 769 699
f 695 763 769
f 697 760 696
f 696 760 763
f 706 765 698
f 698 765 764
f 699 769 713
f 707 766 706
f 706 766 765
f 708 771 707
f 707 770 766
f 707 771 770
f 709 775 708
f 708 774 771
f 708 775 774
f 714 776 709
f 709 776 775
f 711 781 710
f 710 780 715
f 710 781 780
f 712 773 711
f 711 773 772
f 711 772 781
f 713 768 712
f 712 768 767
f 712 767 773
f 713 769 768
f 722 776 714
f 715 779 739
f 715 780 779
f 723 777 722
f 722 777 776
f 724 782 723
f 723 782 777
f 725 783 724
f 724 783 782
f 726 786 725
f 725 786 783
f 727 787 726
f 726 787 786
f 728 788 727
f 727 788 787
f 729 789 728
f 728 789 788
f 730 790 729
f 729 790 789
f 740 790 730
f 732 794 731
f 731 793 743
f 731 794 793
f 733 795 732
f 732 795 794
f 734 796 733
f 733 796 795
f 735 797 734
f 734 797 796
f 736 784 735
f 735 784 797
f 737 785 736
f 736 785 784
f 738 778 737
f 737 778 785
f 739 779 738
f 738 779 778
f 741 791 740
f 740 791 790
f 742 792 741
f 741 792 791
f 743 793 742
f 742 793 792
