# CAD visual only; metres; body-local coordinates
v -0.00978147488 -0.00207912488 0.009999998
v -0.00978147488 -0.00207912488 0.011999996
v -0.00981626488 -0.00190809288 0.009999998
v -0.00981626488 -0.00190809288 0.011999996
v -0.00984807988 -0.00173648788 0.009999998
v -0.00987688088 -0.00156434988 0.011999996
v -0.00990268688 -0.00139173488 0.009999998
v -0.00990268688 -0.00139173488 0.011999996
v -0.00992546088 -0.00121870088 0.009999998
v -0.00994522088 -0.00104528388 0.011999996
v -0.00996194788 -0.000871562881 0.009999998
v -0.00996194788 -0.000871562881 0.011999996
v -0.00997564288 -0.000697555881 0.009999998
v -0.00998628588 -0.000523356881 0.011999996
v -0.00999391588 -0.000348987881 0.009999998
v -0.00999391588 -0.000348987881 0.011999996
v -0.00999847388 -0.000174522881 0.009999998
v -0.00999847388 -0.000174522881 0.011999996
v -0.00999999988 1.18654725e-10 0.009999998
v -0.00999847388 0.000174522119 0.011999996
v -0.00999391588 0.000348987119 0.009999998
v -0.00999391588 0.000348987119 0.011999996
v -0.00998628588 0.000523357119 0.009999998
v -0.00997564288 0.000697555119 0.011999996
v -0.00996194788 0.000871563119 0.009999998
v -0.00996194788 0.000871563119 0.011999996
v -0.00994522088 0.00104528412 0.009999998
v -0.00992546088 0.00121870012 0.011999996
v -0.00990268688 0.00139173512 0.009999998
v -0.00990268688 0.00139173512 0.011999996
v -0.00987688088 0.00156435012 0.009999998
v -0.00984807988 0.00173648812 0.011999996
v -0.00981626488 0.00190809212 0.009999998
v -0.00981626488 0.00190809212 0.011999996
v -0.00978147488 0.00207912412 0.009999998
v -0.00978147488 0.00207912412 0.011999996
v -0.00951057388 -0.00309017188 0.009999998
v -0.00951057388 -0.00309017188 0.011999996
v -0.00956304588 -0.00292371788 0.009999998
v -0.00961261788 -0.00275636688 0.011999996
v -0.00965925188 -0.00258819588 0.009999998
v -0.00965925188 -0.00258819588 0.011999996
v -0.00970294988 -0.00241922388 0.009999998
v -0.00970294988 -0.00241922388 0.011999996
v -0.00974370988 -0.00224950788 0.009999998
v -0.00974370988 -0.00224950788 0.011999996
v -0.00974370988 0.00224950812 0.009999998
v -0.00974370988 0.00224950812 0.011999996
v -0.00970294988 0.00241922412 0.009999998
v -0.00970294988 0.00241922412 0.011999996
v -0.00965925188 0.00258819612 0.009999998
v -0.00965925188 0.00258819612 0.011999996
v -0.00961261788 0.00275636712 0.009999998
v -0.00956304588 0.00292371712 0.011999996
v -0.00951057388 0.00309017212 0.009999998
v -0.00951057388 0.00309017212 0.011999996
v -0.00927183188 -0.00374607088 0.009999998
v -0.00933580388 -0.00358367888 0.011999996
v -0.00939693488 -0.00342019988 0.009999998
v -0.00945518488 -0.00325567288 0.011999996
v -0.00945518488 0.00325567212 0.009999998
v -0.00939693488 0.00342020012 0.011999996
v -0.00933580388 0.00358367912 0.009999998
v -0.00927183188 0.00374607112 0.011999996
v -0.00906307188 -0.00422618888 0.009999998
v -0.00913545588 -0.00406736388 0.011999996
v -0.00920505488 -0.00390731788 0.009999998
v -0.00920505488 -0.00390731788 0.011999996
v -0.00920505488 0.00390731812 0.009999998
v -0.00920505488 0.00390731812 0.011999996
v -0.00913545588 0.00406736412 0.009999998
v -0.00906307188 0.00422618912 0.011999996
v -0.00882947888 -0.00469470988 0.009999998
v -0.00891006488 -0.00453990888 0.011999996
v -0.00898794188 -0.00438371688 0.009999998
v -0.00898794188 -0.00438371688 0.011999996
v -0.00898794188 0.00438371612 0.009999998
v -0.00898794188 0.00438371612 0.011999996
v -0.00891006488 0.00453990912 0.009999998
v -0.00882947888 0.00469471012 0.011999996
v -0.00857168188 -0.00515037488 0.009999998
v -0.00857168188 -0.00515037488 0.011999996
v -0.00866025888 -0.00499999988 0.009999998
v -0.00874620388 -0.00484809888 0.011999996
v -0.00874620388 0.00484809912 0.009999998
v -0.00874620388 0.00484809912 0.011999996
v -0.00866025888 0.00500000012 0.009999998
v -0.00857168188 0.00515037512 0.011999996
v -0.00829036688 -0.00559192688 0.009999998
v -0.00829036688 -0.00559192688 0.011999996
v -0.00838670688 -0.00544639588 0.009999998
v -0.00848047288 -0.00529918688 0.011999996
v -0.00848047288 0.00529918712 0.009999998
v -0.00838670688 0.00544639612 0.011999996
v -0.00829036688 0.00559192612 0.009999998
v -0.00829036688 0.00559192612 0.011999996
v -0.00809017188 -0.00587785688 0.009999998
v -0.00809017188 -0.00587785688 0.011999996
v -0.00819152788 -0.00573575988 0.009999998
v -0.00819152788 -0.00573575988 0.011999996
v -0.00819152788 0.00573576012 0.009999998
v -0.00819152788 0.00573576012 0.011999996
v -0.00809017188 0.00587785712 0.009999998
v -0.00809017188 0.00587785712 0.011999996
v -0.00777145388 -0.00629320188 0.009999998
v -0.00777145388 -0.00629320188 0.011999996
v -0.00788011588 -0.00615661588 0.009999998
v -0.00798635488 -0.00601814288 0.011999996
v -0.00798635488 0.00601814312 0.009999998
v -0.00788011588 0.00615661612 0.011999996
v -0.00777145388 0.00629320112 0.009999998
v -0.00777145388 0.00629320112 0.011999996
v -0.00754709288 -0.00656059288 0.009999998
v -0.00754709288 -0.00656059288 0.011999996
v -0.00766044588 -0.00642787888 0.009999998
v -0.00766044588 -0.00642787888 0.011999996
v -0.00766044588 0.00642787912 0.009999998
v -0.00766044588 0.00642787912 0.011999996
v -0.00754709288 0.00656059312 0.009999998
v -0.00754709288 0.00656059312 0.011999996
v -0.00731353788 -0.00681999188 0.009999998
v -0.00731353788 -0.00681999188 0.011999996
v -0.00743144988 -0.00669130288 0.009999998
v -0.00743144988 -0.00669130288 0.011999996
v -0.00743144988 0.00669130312 0.009999998
v -0.00743144988 0.00669130312 0.011999996
v -0.00731353788 0.00681999212 0.009999998
v -0.00731353788 0.00681999212 0.011999996
v -0.00707107588 -0.00707107588 0.009999998
v -0.00707107588 -0.00707107588 0.011999996
v -0.00719339388 -0.00694658288 0.009999998
v -0.00719339388 -0.00694658288 0.011999996
v -0.00719339388 0.00694658312 0.009999998
v -0.00719339388 0.00694658312 0.011999996
v -0.00707107588 0.00707107512 0.009999998
v -0.00707107588 0.00707107512 0.011999996
v -0.00681999188 -0.00731353788 0.009999998
v -0.00681999188 -0.00731353788 0.011999996
v -0.00694658288 -0.00719339388 0.009999998
v -0.00694658288 -0.00719339388 0.011999996
v -0.00675266288 -0.00575271588 0.009999998
v -0.00675083188 -0.00577182788 0.011999996
v -0.00675083188 -0.00554187788 0.009999998
v -0.00675416988 -0.00573358488 0.011999996
v -0.00694658288 0.00719339412 0.009999998
v -0.00694658288 0.00719339412 0.011999996
v -0.00681999188 0.00731353712 0.009999998
v -0.00681999188 0.00731353712 0.011999996
v -0.00656059288 -0.00754709288 0.009999998
v -0.00656059288 -0.00754709288 0.011999996
v -0.00669130288 -0.00743144988 0.009999998
v -0.00669130288 -0.00743144988 0.011999996
v -0.00657939888 -0.00625595088 0.009999998
v -0.00651170688 -0.00634910588 0.011999996
v -0.00669692988 -0.00601497688 0.009999998
v -0.00658969888 -0.00623975788 0.011999996
v -0.00674865688 -0.00579090088 0.009999998
v -0.00670301388 -0.00599677988 0.011999996
v -0.00674615888 -0.00550376888 0.009999998
v -0.00674865688 -0.00552280388 0.011999996
v -0.00668378788 -0.00526264188 0.009999998
v -0.00674331688 -0.00548477188 0.011999996
v -0.00654676388 -0.00501029988 0.009999998
v -0.00667674988 -0.00524478888 0.011999996
v -0.00651170688 -0.00496459988 0.009999998
v -0.00653535888 -0.00499484988 0.011999996
v -0.00669130288 0.00743145012 0.009999998
v -0.00669130288 0.00743145012 0.011999996
v -0.00656059288 0.00754709212 0.009999998
v -0.00656059288 0.00754709212 0.011999996
v -0.00629320188 -0.00777145388 0.009999998
v -0.00629320188 -0.00777145388 0.011999996
v -0.00642787888 -0.00766044588 0.009999998
v -0.00642787888 -0.00766044588 0.011999996
v -0.00634910588 -0.00651170688 0.009999998
v -0.00625595088 -0.00657939888 0.011999996
v -0.00649949988 -0.00636392588 0.009999998
v -0.00636392588 -0.00649949988 0.011999996
v -0.00628778488 -0.00475578288 0.009999998
v -0.00649949988 -0.00494977988 0.011999996
v -0.00625595088 -0.00473432588 0.009999998
v -0.00627197288 -0.00474491088 0.011999996
v -0.00642787888 0.00766044612 0.009999998
v -0.00642787888 0.00766044612 0.011999996
v -0.00629320188 0.00777145412 0.009999998
v -0.00629320188 0.00777145412 0.011999996
v -0.00601814288 -0.00798635488 0.009999998
v -0.00615661588 -0.00788011588 0.011999996
v -0.00623975788 -0.00658969888 0.009999998
v -0.00601497688 -0.00669692988 0.011999996
v -0.00601497688 -0.00461677588 0.009999998
v -0.00623975788 -0.00472400688 0.011999996
v -0.00615661588 0.00788011512 0.009999998
v -0.00601814288 0.00798635512 0.011999996
v -0.00587785688 -0.00809017188 0.009999998
v -0.00587785688 -0.00809017188 0.011999996
v -0.00577182788 -0.00675083188 0.009999998
v -0.00575271588 -0.00675266288 0.011999996
v -0.00599677988 -0.00670301388 0.009999998
v -0.00579090088 -0.00674865688 0.011999996
v -0.00575271588 -0.00456104288 0.009999998
v -0.00599677988 -0.00461069088 0.011999996
v -0.00587785688 0.00809017212 0.009999998
v -0.00587785688 0.00809017212 0.011999996
v -0.00559192688 -0.00829036688 0.009999998
v -0.00559192688 -0.00829036688 0.011999996
v -0.00573575988 -0.00819152788 0.009999998
v -0.00573575988 -0.00819152788 0.011999996
v -0.00573358488 -0.00675416988 0.009999998
v -0.00554187788 -0.00675083188 0.011999996
v -0.00552280388 -0.00674865688 0.009999998
v -0.00550376888 -0.00674615888 0.011999996
v -0.00550376888 -0.00456756588 0.009999998
v -0.00573358488 -0.00455953588 0.011999996
v -0.00573575988 0.00819152812 0.009999998
v -0.00573575988 0.00819152812 0.011999996
v -0.00559192688 0.00829036712 0.009999998
v -0.00559192688 0.00829036712 0.011999996
v -0.00529918688 -0.00848047288 0.009999998
v -0.00544639588 -0.00838670688 0.011999996
v -0.00548477188 -0.00674331688 0.009999998
v -0.00526264188 -0.00668378788 0.011999996
v -0.00526264188 -0.00462991688 0.009999998
v -0.00548477188 -0.00457038888 0.011999996
v -0.00544639588 0.00838670712 0.009999998
v -0.00529918688 0.00848047212 0.011999996
v -0.00515037488 -0.00857168188 0.009999998
v -0.00515037488 -0.00857168188 0.011999996
v -0.00524478888 -0.00667674988 0.009999998
v -0.00501029988 -0.00654676388 0.011999996
v -0.00501029988 -0.00476694088 0.009999998
v -0.00502592088 -0.00475578288 0.011999996
v -0.00504173288 -0.00474491088 0.009999998
v -0.00524478888 -0.00463695488 0.011999996
v -0.00515037488 0.00857168212 0.009999998
v -0.00515037488 0.00857168212 0.011999996
v -0.00484809888 -0.00874620388 0.009999998
v -0.00499999988 -0.00866025888 0.011999996
v -0.00499484988 -0.00653535888 0.009999998
v -0.00496459988 -0.00651170688 0.011999996
v -0.00494977988 -0.00649949988 0.009999998
v -0.00475578288 -0.00628778488 0.011999996
v -0.00475578288 -0.00502592088 0.009999998
v -0.00476694088 -0.00501029988 0.011999996
v -0.00487903588 -0.00487903588 0.009999998
v -0.00487903588 -0.00487903588 0.011999996
v -0.00499999988 0.00866025912 0.009999998
v -0.00484809888 0.00874620412 0.011999996
v -0.00453990888 -0.00891006488 0.009999998
v -0.00469470988 -0.00882947888 0.011999996
v -0.00474491088 -0.00627197288 0.009999998
v -0.00473432588 -0.00625595088 0.011999996
v -0.00472400688 -0.00623975788 0.009999998
v -0.00461677588 -0.00601497688 0.011999996
v -0.00461069088 -0.00599677988 0.009999998
v -0.00456104288 -0.00575271588 0.011999996
v -0.00455953588 -0.00573358488 0.009999998
v -0.00456756588 -0.00550376888 0.011999996
v -0.00457038888 -0.00548477188 0.009999998
v -0.00462991688 -0.00526264188 0.011999996
v -0.00463695488 -0.00524478888 0.009999998
v -0.00474491088 -0.00504173288 0.011999996
v -0.00469470988 0.00882947912 0.009999998
v -0.00453990888 0.00891006512 0.011999996
v -0.00438371688 -0.00898794188 0.009999998
v -0.00438371688 -0.00898794188 0.011999996
v -0.00438371688 0.00898794212 0.009999998
v -0.00438371688 0.00898794212 0.011999996
v -0.00406736388 -0.00913545588 0.009999998
v -0.00422618888 -0.00906307188 0.011999996
v -0.00422618888 0.00906307212 0.009999998
v -0.00406736388 0.00913545612 0.011999996
v -0.00390731788 -0.00920505488 0.009999998
v -0.00390731788 -0.00920505488 0.011999996
v -0.00390731788 0.00920505512 0.009999998
v -0.00390731788 0.00920505512 0.011999996
v -0.00358367888 -0.00933580388 0.009999998
v -0.00374607088 -0.00927183188 0.011999996
v -0.00374607088 0.00927183112 0.009999998
v -0.00358367888 0.00933580412 0.011999996
v -0.00325567288 -0.00945518488 0.009999998
v -0.00342019988 -0.00939693488 0.011999996
v -0.00342019988 0.00939693412 0.009999998
v -0.00325567288 0.00945518512 0.011999996
v -0.00309017188 -0.00951057388 0.009999998
v -0.00309017188 -0.00951057388 0.011999996
v -0.00309017188 0.00951057412 0.009999998
v -0.00309017188 0.00951057412 0.011999996
v -0.00275636688 -0.00961261788 0.009999998
v -0.00292371788 -0.00956304588 0.011999996
v -0.00292371788 0.00956304512 0.009999998
v -0.00275636688 0.00961261712 0.011999996
v -0.00258819588 -0.00965925188 0.009999998
v -0.00258819588 -0.00965925188 0.011999996
v -0.00258819588 0.00965925212 0.009999998
v -0.00258819588 0.00965925212 0.011999996
v -0.00241922388 -0.00970294988 0.009999998
v -0.00241922388 -0.00970294988 0.011999996
v -0.00241922388 0.00970294912 0.009999998
v -0.00241922388 0.00970294912 0.011999996
v -0.00207912488 -0.00978147488 0.009999998
v -0.00207912488 -0.00978147488 0.011999996
v -0.00224950788 -0.00974370988 0.009999998
v -0.00224950788 -0.00974370988 0.011999996
v -0.00224950788 0.00974370912 0.009999998
v -0.00224950788 0.00974370912 0.011999996
v -0.00207912488 0.00978147512 0.009999998
v -0.00207912488 0.00978147512 0.011999996
v -0.00190809288 -0.00981626488 0.009999998
v -0.00190809288 -0.00981626488 0.011999996
v -0.00190809288 0.00981626512 0.009999998
v -0.00190809288 0.00981626512 0.011999996
v -0.00156434988 -0.00987688088 0.009999998
v -0.00173648788 -0.00984807988 0.011999996
v -0.00173648788 0.00984808012 0.009999998
v -0.00156434988 0.00987688112 0.011999996
v -0.00139173488 -0.00990268688 0.009999998
v -0.00139173488 -0.00990268688 0.011999996
v -0.00129903788 -0.000750007881 0.009999998
v -0.00125801088 -0.000816955881 0.011999996
v -0.00140953088 -0.000513038881 0.009999998
v -0.00131193188 -0.000727214881 0.011999996
v -0.00147720288 -0.000260467881 0.009999998
v -0.00141828488 -0.000488357881 0.011999996
v -0.00149976688 -2.61878813e-05 0.009999998
v -0.00148153288 -0.000234660881 0.011999996
v -0.00148153288 0.000234661119 0.009999998
v -0.00149999588 1.18654725e-10 0.011999996
v -0.00141828488 0.000488357119 0.009999998
v -0.00147720288 0.000260467119 0.011999996
v -0.00131193188 0.000727215119 0.009999998
v -0.00140953088 0.000513039119 0.011999996
v -0.00125801088 0.000816955119 0.009999998
v -0.00129903788 0.000750008119 0.011999996
v -0.00139173488 0.00990268712 0.009999998
v -0.00139173488 0.00990268712 0.011999996
v -0.00104528388 -0.00994522088 0.009999998
v -0.00121870088 -0.00992546088 0.011999996
v -0.00111471188 -0.00100370388 0.009999998
v -0.00100370388 -0.00111471188 0.011999996
v -0.00124355288 -0.000838794881 0.009999998
v -0.00113206888 -0.000984096881 0.011999996
v -0.00113206888 0.000984096119 0.009999998
v -0.00124355288 0.000838795119 0.011999996
v -0.00100370388 0.00111471212 0.009999998
v -0.00111471188 0.00100370412 0.011999996
v -0.00121870088 0.00992546112 0.009999998
v -0.00104528388 0.00994522112 0.011999996
v -0.000871562881 -0.00996194788 0.009999998
v -0.000871562881 -0.00996194788 0.011999996
v -0.000816955881 -0.00125801088 0.009999998
v -0.000750007881 -0.00129903788 0.011999996
v -0.000984096881 -0.00113206888 0.009999998
v -0.000838794881 -0.00124355288 0.011999996
v -0.000838794881 0.00124355312 0.009999998
v -0.000984096881 0.00113206912 0.011999996
v -0.000750007881 0.00129903812 0.009999998
v -0.000816955881 0.00125801112 0.011999996
v -0.000871562881 0.00996194812 0.009999998
v -0.000871562881 0.00996194812 0.011999996
v -0.000523356881 -0.00998628588 0.009999998
v -0.000697555881 -0.00997564288 0.011999996
v -0.000727214881 -0.00131193188 0.009999998
v -0.000513038881 -0.00140953088 0.011999996
v -0.000513038881 0.00140953112 0.009999998
v -0.000727214881 0.00131193212 0.011999996
v -0.000697555881 0.00997564312 0.009999998
v -0.000523356881 0.00998628612 0.011999996
v -0.000348987881 -0.00999391588 0.009999998
v -0.000348987881 -0.00999391588 0.011999996
v -0.000488357881 -0.00141828488 0.009999998
v -0.000260467881 -0.00147720288 0.011999996
v -0.000260467881 0.00147720312 0.009999998
v -0.000488357881 0.00141828512 0.011999996
v -0.000348987881 0.00999391512 0.009999998
v -0.000348987881 0.00999391512 0.011999996
v -0.000174522881 -0.00999847388 0.009999998
v -0.000174522881 -0.00999847388 0.011999996
v -0.000234660881 -0.00148153288 0.009999998
v -2.61878813e-05 -0.00149976688 0.011999996
v -2.61878813e-05 0.00149976712 0.009999998
v -0.000234660881 0.00148153312 0.011999996
v -0.000174522881 0.00999847412 0.009999998
v -0.000174522881 0.00999847412 0.011999996
v 0.000174522119 -0.00999847388 0.009999998
v 1.18654753e-10 -0.00999999988 0.011999996
v 1.18654753e-10 -0.00149999588 0.009999998
v 0.000234661119 -0.00148153288 0.011999996
v 0.000234661119 0.00148153312 0.009999998
v 1.18654753e-10 0.00149999612 0.011999996
v 0.000174522119 0.00999847412 0.009999998
v 0.000174522119 0.00999847412 0.011999996
v 1.18654753e-10 0.0100000001 0.009999998
v 1.18654753e-10 0.0100000001 0.011999996
v 0.000348987119 -0.00999391588 0.009999998
v 0.000348987119 -0.00999391588 0.011999996
v 0.000260467119 -0.00147720288 0.009999998
v 0.000488357119 -0.00141828488 0.011999996
v 0.000488357119 0.00141828512 0.009999998
v 0.000260467119 0.00147720312 0.011999996
v 0.000348987119 0.00999391512 0.009999998
v 0.000348987119 0.00999391512 0.011999996
v 0.000697555119 -0.00997564288 0.009999998
v 0.000523357119 -0.00998628588 0.011999996
v 0.000513039119 -0.00140953088 0.009999998
v 0.000727215119 -0.00131193188 0.011999996
v 0.000727215119 0.00131193212 0.009999998
v 0.000513039119 0.00140953112 0.011999996
v 0.000523357119 0.00998628612 0.009999998
v 0.000697555119 0.00997564312 0.011999996
v 0.000871563119 -0.00996194788 0.009999998
v 0.000871563119 -0.00996194788 0.011999996
v 0.000750008119 -0.00129903788 0.009999998
v 0.000816955119 -0.00125801088 0.011999996
v 0.000838795119 -0.00124355288 0.009999998
v 0.000984096119 -0.00113206888 0.011999996
v 0.000984096119 0.00113206912 0.009999998
v 0.000838795119 0.00124355312 0.011999996
v 0.000816955119 0.00125801112 0.009999998
v 0.000750008119 0.00129903812 0.011999996
v 0.000871563119 0.00996194812 0.009999998
v 0.000871563119 0.00996194812 0.011999996
v 0.00121870012 -0.00992546088 0.009999998
v 0.00104528412 -0.00994522088 0.011999996
v 0.00100370412 -0.00111471188 0.009999998
v 0.00111471212 -0.00100370388 0.011999996
v 0.00113206912 -0.000984096881 0.009999998
v 0.00124355312 -0.000838794881 0.011999996
v 0.00124355312 0.000838795119 0.009999998
v 0.00113206912 0.000984096119 0.011999996
v 0.00106065712 0.00106065712 0.009999998
v 0.00106065712 0.00106065712 0.011999996
v 0.00104528412 0.00994522112 0.009999998
v 0.00121870012 0.00992546112 0.011999996
v 0.00139173512 -0.00990268688 0.009999998
v 0.00139173512 -0.00990268688 0.011999996
v 0.00125801112 -0.000816955881 0.009999998
v 0.00129903812 -0.000750007881 0.011999996
v 0.00131193212 -0.000727214881 0.009999998
v 0.00140953112 -0.000513038881 0.011999996
v 0.00141828512 -0.000488357881 0.009999998
v 0.00147720312 -0.000260467881 0.011999996
v 0.00148153312 -0.000234660881 0.009999998
v 0.00149976712 -2.61878813e-05 0.011999996
v 0.00149999612 1.18654725e-10 0.009999998
v 0.00148153312 0.000234661119 0.011999996
v 0.00147720312 0.000260467119 0.009999998
v 0.00141828512 0.000488357119 0.011999996
v 0.00140953112 0.000513039119 0.009999998
v 0.00131193212 0.000727215119 0.011999996
v 0.00129903812 0.000750008119 0.009999998
v 0.00125801112 0.000816955119 0.011999996
v 0.00139173512 0.00990268712 0.009999998
v 0.00139173512 0.00990268712 0.011999996
v 0.00173648812 -0.00984807988 0.009999998
v 0.00156435012 -0.00987688088 0.011999996
v 0.00156435012 0.00987688112 0.009999998
v 0.00173648812 0.00984808012 0.011999996
v 0.00190809212 -0.00981626488 0.009999998
v 0.00190809212 -0.00981626488 0.011999996
v 0.00190809212 0.00981626512 0.009999998
v 0.00190809212 0.00981626512 0.011999996
v 0.00207912412 -0.00978147488 0.009999998
v 0.00207912412 -0.00978147488 0.011999996
v 0.00224950812 -0.00974370988 0.009999998
v 0.00224950812 -0.00974370988 0.011999996
v 0.00224950812 0.00974370912 0.009999998
v 0.00224950812 0.00974370912 0.011999996
v 0.00207912412 0.00978147512 0.009999998
v 0.00207912412 0.00978147512 0.011999996
v 0.00241922412 -0.00970294988 0.009999998
v 0.00241922412 -0.00970294988 0.011999996
v 0.00241922412 0.00970294912 0.009999998
v 0.00241922412 0.00970294912 0.011999996
v 0.00258819612 -0.00965925188 0.009999998
v 0.00258819612 -0.00965925188 0.011999996
v 0.00258819612 0.00965925212 0.009999998
v 0.00258819612 0.00965925212 0.011999996
v 0.00292371712 -0.00956304588 0.009999998
v 0.00275636712 -0.00961261788 0.011999996
v 0.00275636712 0.00961261712 0.009999998
v 0.00292371712 0.00956304512 0.011999996
v 0.00309017212 -0.00951057388 0.009999998
v 0.00309017212 -0.00951057388 0.011999996
v 0.00309017212 0.00951057412 0.009999998
v 0.00309017212 0.00951057412 0.011999996
v 0.00342020012 -0.00939693488 0.009999998
v 0.00325567212 -0.00945518488 0.011999996
v 0.00325567212 0.00945518512 0.009999998
v 0.00342020012 0.00939693412 0.011999996
v 0.00374607112 -0.00927183188 0.009999998
v 0.00358367912 -0.00933580388 0.011999996
v 0.00358367912 0.00933580412 0.009999998
v 0.00374607112 0.00927183112 0.011999996
v 0.00390731812 -0.00920505488 0.009999998
v 0.00390731812 -0.00920505488 0.011999996
v 0.00390731812 0.00920505512 0.009999998
v 0.00390731812 0.00920505512 0.011999996
v 0.00422618912 -0.00906307188 0.009999998
v 0.00406736412 -0.00913545588 0.011999996
v 0.00406736412 0.00913545612 0.009999998
v 0.00422618912 0.00906307212 0.011999996
v 0.00438371612 -0.00898794188 0.009999998
v 0.00438371612 -0.00898794188 0.011999996
v 0.00438371612 0.00898794212 0.009999998
v 0.00438371612 0.00898794212 0.011999996
v 0.00469471012 -0.00882947888 0.009999998
v 0.00453990912 -0.00891006488 0.011999996
v 0.00463695512 0.00524478912 0.009999998
v 0.00474491112 0.00504173312 0.011999996
v 0.00457038912 0.00548477212 0.009999998
v 0.00462991712 0.00526264212 0.011999996
v 0.00455953612 0.00573358512 0.009999998
v 0.00456756612 0.00550376912 0.011999996
v 0.00461069112 0.00599678012 0.009999998
v 0.00456104312 0.00575271612 0.011999996
v 0.00472400712 0.00623975712 0.009999998
v 0.00461677512 0.00601497612 0.011999996
v 0.00474491112 0.00627197312 0.009999998
v 0.00473432512 0.00625595112 0.011999996
v 0.00453990912 0.00891006512 0.009999998
v 0.00469471012 0.00882947912 0.011999996
v 0.00484809912 -0.00874620388 0.009999998
v 0.00484809912 -0.00874620388 0.011999996
v 0.00477834712 0.00499485012 0.009999998
v 0.00499485012 0.00477834712 0.011999996
v 0.00475578312 0.00502592112 0.009999998
v 0.00476694112 0.00501030012 0.011999996
v 0.00494977912 0.00649950012 0.009999998
v 0.00475578312 0.00628778412 0.011999996
v 0.00499485012 0.00653535812 0.009999998
v 0.00496460012 0.00651170712 0.011999996
v 0.00484809912 0.00874620412 0.009999998
v 0.00484809912 0.00874620412 0.011999996
v 0.00515037512 -0.00857168188 0.009999998
v 0.00500000012 -0.00866025888 0.011999996
v 0.00504173312 0.00474491112 0.009999998
v 0.00524478912 0.00463695512 0.011999996
v 0.00501030012 0.00476694112 0.009999998
v 0.00502592112 0.00475578312 0.011999996
v 0.00524478912 0.00667675012 0.009999998
v 0.00501030012 0.00654676412 0.011999996
v 0.00500000012 0.00866025912 0.009999998
v 0.00515037512 0.00857168212 0.011999996
v 0.00544639612 -0.00838670688 0.009999998
v 0.00529918712 -0.00848047288 0.011999996
v 0.00526264212 0.00462991712 0.009999998
v 0.00548477212 0.00457038912 0.011999996
v 0.00548477212 0.00674331712 0.009999998
v 0.00526264212 0.00668378812 0.011999996
v 0.00529918712 0.00848047212 0.009999998
v 0.00544639612 0.00838670712 0.011999996
v 0.00559192612 -0.00829036688 0.009999998
v 0.00559192612 -0.00829036688 0.011999996
v 0.00573576012 -0.00819152788 0.009999998
v 0.00573576012 -0.00819152788 0.011999996
v 0.00550376912 0.00456756612 0.009999998
v 0.00573358512 0.00455953612 0.011999996
v 0.00552280412 0.00674865712 0.009999998
v 0.00550376912 0.00674615812 0.011999996
v 0.00573358512 0.00675416912 0.009999998
v 0.00554187812 0.00675083212 0.011999996
v 0.00573576012 0.00819152812 0.009999998
v 0.00573576012 0.00819152812 0.011999996
v 0.00559192612 0.00829036712 0.009999998
v 0.00559192612 0.00829036712 0.011999996
v 0.00587785712 -0.00809017188 0.009999998
v 0.00587785712 -0.00809017188 0.011999996
v 0.00575271612 0.00456104312 0.009999998
v 0.00599678012 0.00461069112 0.011999996
v 0.00599678012 0.00670301412 0.009999998
v 0.00579090112 0.00674865712 0.011999996
v 0.00577182812 0.00675083212 0.009999998
v 0.00575271612 0.00675266312 0.011999996
v 0.00587785712 0.00809017212 0.009999998
v 0.00587785712 0.00809017212 0.011999996
v 0.00615661612 -0.00788011588 0.009999998
v 0.00601814312 -0.00798635488 0.011999996
v 0.00601497612 0.00461677512 0.009999998
v 0.00623975712 0.00472400712 0.011999996
v 0.00623975712 0.00658969912 0.009999998
v 0.00601497612 0.00669693012 0.011999996
v 0.00601814312 0.00798635512 0.009999998
v 0.00615661612 0.00788011512 0.011999996
v 0.00629320112 -0.00777145388 0.009999998
v 0.00629320112 -0.00777145388 0.011999996
v 0.00642787912 -0.00766044588 0.009999998
v 0.00642787912 -0.00766044588 0.011999996
v 0.00625595112 0.00473432512 0.009999998
v 0.00627197312 0.00474491112 0.011999996
v 0.00628778412 0.00475578312 0.009999998
v 0.00649950012 0.00494977912 0.011999996
v 0.00643466912 0.00643466912 0.009999998
v 0.00643466912 0.00643466912 0.011999996
v 0.00634910612 0.00651170712 0.009999998
v 0.00625595112 0.00657939912 0.011999996
v 0.00642787912 0.00766044612 0.009999998
v 0.00642787912 0.00766044612 0.011999996
v 0.00629320112 0.00777145412 0.009999998
v 0.00629320112 0.00777145412 0.011999996
v 0.00656059312 -0.00754709288 0.009999998
v 0.00656059312 -0.00754709288 0.011999996
v 0.00669130312 -0.00743144988 0.009999998
v 0.00669130312 -0.00743144988 0.011999996
v 0.00651170712 0.00496460012 0.009999998
v 0.00653535812 0.00499485012 0.011999996
v 0.00654676412 0.00501030012 0.009999998
v 0.00667675012 0.00524478912 0.011999996
v 0.00668378812 0.00526264212 0.009999998
v 0.00674331712 0.00548477212 0.011999996
v 0.00674615812 0.00550376912 0.009999998
v 0.00674865712 0.00552280412 0.011999996
v 0.00674865712 0.00579090112 0.009999998
v 0.00670301412 0.00599678012 0.011999996
v 0.00669693012 0.00601497612 0.009999998
v 0.00658969912 0.00623975712 0.011999996
v 0.00657939912 0.00625595112 0.009999998
v 0.00651170712 0.00634910612 0.011999996
v 0.00669130312 0.00743145012 0.009999998
v 0.00669130312 0.00743145012 0.011999996
v 0.00656059312 0.00754709212 0.009999998
v 0.00656059312 0.00754709212 0.011999996
v 0.00681999212 -0.00731353788 0.009999998
v 0.00681999212 -0.00731353788 0.011999996
v 0.00694658312 -0.00719339388 0.009999998
v 0.00694658312 -0.00719339388 0.011999996
v 0.00675083212 0.00554187812 0.009999998
v 0.00675416912 0.00573358512 0.011999996
v 0.00675266312 0.00575271612 0.009999998
v 0.00675083212 0.00577182812 0.011999996
v 0.00694658312 0.00719339412 0.009999998
v 0.00694658312 0.00719339412 0.011999996
v 0.00681999212 0.00731353712 0.009999998
v 0.00681999212 0.00731353712 0.011999996
v 0.00707107512 -0.00707107588 0.009999998
v 0.00707107512 -0.00707107588 0.011999996
v 0.00719339412 -0.00694658288 0.009999998
v 0.00719339412 -0.00694658288 0.011999996
v 0.00719339412 0.00694658312 0.009999998
v 0.00719339412 0.00694658312 0.011999996
v 0.00707107512 0.00707107512 0.009999998
v 0.00707107512 0.00707107512 0.011999996
v 0.00731353712 -0.00681999188 0.009999998
v 0.00731353712 -0.00681999188 0.011999996
v 0.00743145012 -0.00669130288 0.009999998
v 0.00743145012 -0.00669130288 0.011999996
v 0.00743145012 0.00669130312 0.009999998
v 0.00743145012 0.00669130312 0.011999996
v 0.00731353712 0.00681999212 0.009999998
v 0.00731353712 0.00681999212 0.011999996
v 0.00754709212 -0.00656059288 0.009999998
v 0.00754709212 -0.00656059288 0.011999996
v 0.00766044612 -0.00642787888 0.009999998
v 0.00766044612 -0.00642787888 0.011999996
v 0.00766044612 0.00642787912 0.009999998
v 0.00766044612 0.00642787912 0.011999996
v 0.00754709212 0.00656059312 0.009999998
v 0.00754709212 0.00656059312 0.011999996
v 0.00777145412 -0.00629320188 0.009999998
v 0.00777145412 -0.00629320188 0.011999996
v 0.00798635512 -0.00601814288 0.009999998
v 0.00788011512 -0.00615661588 0.011999996
v 0.00788011512 0.00615661612 0.009999998
v 0.00798635512 0.00601814312 0.011999996
v 0.00777145412 0.00629320112 0.009999998
v 0.00777145412 0.00629320112 0.011999996
v 0.00809017212 -0.00587785688 0.009999998
v 0.00809017212 -0.00587785688 0.011999996
v 0.00819152812 -0.00573575988 0.009999998
v 0.00819152812 -0.00573575988 0.011999996
v 0.00819152812 0.00573576012 0.009999998
v 0.00819152812 0.00573576012 0.011999996
v 0.00809017212 0.00587785712 0.009999998
v 0.00809017212 0.00587785712 0.011999996
v 0.00829036712 -0.00559192688 0.009999998
v 0.00829036712 -0.00559192688 0.011999996
v 0.00848047212 -0.00529918688 0.009999998
v 0.00838670712 -0.00544639588 0.011999996
v 0.00838670712 0.00544639612 0.009999998
v 0.00848047212 0.00529918712 0.011999996
v 0.00829036712 0.00559192612 0.009999998
v 0.00829036712 0.00559192612 0.011999996
v 0.00857168212 -0.00515037488 0.009999998
v 0.00857168212 -0.00515037488 0.011999996
v 0.00874620412 -0.00484809888 0.009999998
v 0.00866025912 -0.00499999988 0.011999996
v 0.00874620412 0.00484809912 0.009999998
v 0.00874620412 0.00484809912 0.011999996
v 0.00857168212 0.00515037512 0.009999998
v 0.00866025912 0.00500000012 0.011999996
v 0.00891006512 -0.00453990888 0.009999998
v 0.00882947912 -0.00469470988 0.011999996
v 0.00898794212 -0.00438371688 0.009999998
v 0.00898794212 -0.00438371688 0.011999996
v 0.00898794212 0.00438371612 0.009999998
v 0.00898794212 0.00438371612 0.011999996
v 0.00882947912 0.00469471012 0.009999998
v 0.00891006512 0.00453990912 0.011999996
v 0.00913545612 -0.00406736388 0.009999998
v 0.00906307212 -0.00422618888 0.011999996
v 0.00920505512 -0.00390731788 0.009999998
v 0.00920505512 -0.00390731788 0.011999996
v 0.00920505512 0.00390731812 0.009999998
v 0.00920505512 0.00390731812 0.011999996
v 0.00906307212 0.00422618912 0.009999998
v 0.00913545612 0.00406736412 0.011999996
v 0.00933580412 -0.00358367888 0.009999998
v 0.00927183112 -0.00374607088 0.011999996
v 0.00945518512 -0.00325567288 0.009999998
v 0.00939693412 -0.00342019988 0.011999996
v 0.00939693412 0.00342020012 0.009999998
v 0.00945518512 0.00325567212 0.011999996
v 0.00927183112 0.00374607112 0.009999998
v 0.00933580412 0.00358367912 0.011999996
v 0.00951057412 -0.00309017188 0.009999998
v 0.00951057412 -0.00309017188 0.011999996
v 0.00961261712 -0.00275636688 0.009999998
v 0.00956304512 -0.00292371788 0.011999996
v 0.00965925212 -0.00258819588 0.009999998
v 0.00965925212 -0.00258819588 0.011999996
v 0.00970294912 -0.00241922388 0.009999998
v 0.00970294912 -0.00241922388 0.011999996
v 0.00974370912 -0.00224950788 0.009999998
v 0.00974370912 -0.00224950788 0.011999996
v 0.00974370912 0.00224950812 0.009999998
v 0.00974370912 0.00224950812 0.011999996
v 0.00970294912 0.00241922412 0.009999998
v 0.00970294912 0.00241922412 0.011999996
v 0.00965925212 0.00258819612 0.009999998
v 0.00965925212 0.00258819612 0.011999996
v 0.00956304512 0.00292371712 0.009999998
v 0.00961261712 0.00275636712 0.011999996
v 0.00951057412 0.00309017212 0.009999998
v 0.00951057412 0.00309017212 0.011999996
v 0.00978147512 -0.00207912488 0.009999998
v 0.00978147512 -0.00207912488 0.011999996
v 0.00981626512 -0.00190809288 0.009999998
v 0.00981626512 -0.00190809288 0.011999996
v 0.00987688112 -0.00156434988 0.009999998
v 0.00984808012 -0.00173648788 0.011999996
v 0.00990268712 -0.00139173488 0.009999998
v 0.00990268712 -0.00139173488 0.011999996
v 0.00994522112 -0.00104528388 0.009999998
v 0.00992546112 -0.00121870088 0.011999996
v 0.00996194812 -0.000871562881 0.009999998
v 0.00996194812 -0.000871562881 0.011999996
v 0.00998628612 -0.000523356881 0.009999998
v 0.00997564312 -0.000697555881 0.011999996
v 0.00999391512 -0.000348987881 0.009999998
v 0.00999391512 -0.000348987881 0.011999996
v 0.00999847412 -0.000174522881 0.009999998
v 0.00999847412 -0.000174522881 0.011999996
v 0.00999847412 0.000174522119 0.009999998
v 0.00999847412 0.000174522119 0.011999996
v 0.00999391512 0.000348987119 0.009999998
v 0.00999391512 0.000348987119 0.011999996
v 0.00997564312 0.000697555119 0.009999998
v 0.00998628612 0.000523357119 0.011999996
v 0.00996194812 0.000871563119 0.009999998
v 0.00996194812 0.000871563119 0.011999996
v 0.00992546112 0.00121870012 0.009999998
v 0.00994522112 0.00104528412 0.011999996
v 0.00990268712 0.00139173512 0.009999998
v 0.00990268712 0.00139173512 0.011999996
v 0.00984808012 0.00173648812 0.009999998
v 0.00987688112 0.00156435012 0.011999996
v 0.00981626512 0.00190809212 0.009999998
v 0.00981626512 0.00190809212 0.011999996
v 0.00978147512 0.00207912412 0.009999998
v 0.00978147512 0.00207912412 0.011999996
v 0.0100000001 1.18654725e-10 0.009999998
v 0.0100000001 1.18654725e-10 0.011999996
f 1 2 3
f 1 46 2
f 461 1 3
f 45 46 1
f 469 45 1
f 469 1 461
f 3 2 4
f 2 346 4
f 46 346 2
f 3 4 5
f 457 3 5
f 461 3 457
f 5 4 6
f 4 346 6
f 5 6 7
f 453 5 7
f 457 5 453
f 7 6 8
f 6 346 8
f 7 8 9
f 433 7 9
f 453 7 433
f 9 8 10
f 8 346 10
f 9 10 11
f 421 9 11
f 433 9 421
f 11 10 12
f 10 346 12
f 11 12 13
f 409 11 13
f 421 11 409
f 13 12 14
f 12 346 14
f 13 14 15
f 401 13 15
f 409 13 401
f 15 14 16
f 14 346 16
f 15 16 17
f 391 15 17
f 401 15 391
f 17 16 18
f 16 346 18
f 17 18 19
f 393 17 19
f 391 17 393
f 19 18 20
f 18 346 20
f 19 20 21
f 375 19 21
f 383 19 375
f 393 19 383
f 21 20 22
f 20 346 22
f 21 22 23
f 367 21 23
f 375 21 367
f 23 22 24
f 22 346 24
f 23 24 25
f 359 23 25
f 367 23 359
f 25 24 26
f 24 346 26
f 25 26 27
f 347 25 27
f 359 25 347
f 27 26 28
f 26 346 28
f 27 28 29
f 335 27 29
f 347 27 335
f 29 28 30
f 28 346 30
f 29 30 31
f 315 29 31
f 335 29 315
f 31 30 32
f 30 346 32
f 31 32 33
f 311 31 33
f 315 31 311
f 33 32 34
f 32 346 34
f 33 34 35
f 307 33 35
f 311 33 307
f 35 34 36
f 34 346 36
f 35 36 47
f 305 35 47
f 307 35 305
f 47 36 48
f 36 346 48
f 37 38 39
f 37 60 38
f 481 37 39
f 59 60 37
f 485 59 37
f 485 37 481
f 39 38 40
f 38 346 40
f 60 346 38
f 39 40 41
f 477 39 41
f 481 39 477
f 41 40 42
f 40 346 42
f 41 42 43
f 473 41 43
f 477 41 473
f 43 42 44
f 42 346 44
f 43 44 45
f 467 43 45
f 473 43 467
f 45 44 46
f 44 346 46
f 467 45 469
f 47 48 49
f 299 47 49
f 305 47 299
f 49 48 50
f 48 346 50
f 49 50 51
f 295 49 51
f 299 49 295
f 51 50 52
f 50 346 52
f 51 52 53
f 291 51 53
f 295 51 291
f 53 52 54
f 52 346 54
f 53 54 55
f 287 53 55
f 291 53 287
f 55 54 56
f 54 346 56
f 55 56 61
f 283 55 61
f 287 55 283
f 61 56 62
f 56 346 62
f 57 58 59
f 57 68 58
f 489 57 59
f 67 68 57
f 493 67 57
f 493 57 489
f 59 58 60
f 58 346 60
f 68 346 58
f 489 59 485
f 61 62 63
f 279 61 63
f 283 61 279
f 63 62 64
f 62 346 64
f 63 64 69
f 275 63 69
f 279 63 275
f 69 64 70
f 64 346 70
f 65 66 67
f 65 76 66
f 497 65 67
f 75 76 65
f 65 179 75
f 327 179 65
f 65 329 327
f 65 331 329
f 333 331 65
f 65 343 333
f 345 343 65
f 501 345 65
f 501 65 497
f 67 66 68
f 66 346 68
f 76 346 66
f 497 67 493
f 69 70 71
f 271 69 71
f 275 69 271
f 71 70 72
f 70 346 72
f 71 72 77
f 267 71 77
f 271 71 267
f 77 72 78
f 72 346 78
f 73 74 75
f 73 84 74
f 75 179 73
f 83 84 73
f 73 165 83
f 179 165 73
f 75 74 76
f 74 346 76
f 84 346 74
f 77 78 79
f 263 77 79
f 267 77 263
f 79 78 80
f 78 346 80
f 79 80 85
f 247 79 85
f 263 79 247
f 85 80 86
f 80 346 86
f 81 82 83
f 81 92 82
f 83 163 81
f 91 92 81
f 81 163 91
f 83 82 84
f 82 346 84
f 92 346 82
f 165 163 83
f 85 86 87
f 247 85 87
f 87 86 88
f 86 346 88
f 87 88 93
f 225 87 93
f 235 87 225
f 247 87 235
f 93 88 94
f 88 346 94
f 89 90 91
f 89 100 90
f 91 161 89
f 99 100 89
f 89 161 99
f 91 90 92
f 90 346 92
f 100 346 90
f 91 163 161
f 93 94 95
f 217 93 95
f 225 93 217
f 95 94 96
f 94 346 96
f 95 96 101
f 215 95 101
f 217 95 215
f 101 96 102
f 96 346 102
f 97 98 99
f 97 108 98
f 99 161 97
f 107 108 97
f 97 143 107
f 159 143 97
f 97 161 159
f 99 98 100
f 98 346 100
f 108 332 98
f 332 334 98
f 98 334 344
f 344 346 98
f 101 102 103
f 203 101 103
f 215 101 203
f 103 102 104
f 102 346 104
f 103 104 109
f 193 103 109
f 203 103 193
f 109 104 110
f 104 346 110
f 105 106 107
f 105 116 106
f 107 141 105
f 115 116 105
f 105 157 115
f 105 141 157
f 107 106 108
f 106 164 108
f 116 160 106
f 106 160 162
f 106 162 164
f 107 143 141
f 108 164 166
f 108 166 180
f 108 180 328
f 108 328 330
f 108 330 332
f 109 110 111
f 185 109 111
f 193 109 185
f 111 110 112
f 110 346 112
f 111 112 117
f 183 111 117
f 185 111 183
f 117 112 118
f 112 346 118
f 113 114 115
f 113 124 114
f 115 157 113
f 123 124 113
f 113 155 123
f 113 157 155
f 115 114 116
f 114 142 116
f 124 158 114
f 114 158 142
f 116 142 144
f 144 160 116
f 117 118 119
f 169 117 119
f 183 117 169
f 119 118 120
f 118 346 120
f 119 120 125
f 167 119 125
f 169 119 167
f 125 120 126
f 120 346 126
f 121 122 123
f 121 132 122
f 123 155 121
f 131 132 121
f 121 153 131
f 155 153 121
f 123 122 124
f 122 156 124
f 132 154 122
f 154 156 122
f 124 156 158
f 125 126 127
f 147 125 127
f 167 125 147
f 127 126 128
f 126 346 128
f 127 128 133
f 145 127 133
f 147 127 145
f 133 128 134
f 128 346 134
f 129 130 131
f 129 140 130
f 131 177 129
f 139 140 129
f 129 177 139
f 131 130 132
f 130 178 132
f 140 176 130
f 130 176 178
f 131 153 177
f 178 154 132
f 133 134 135
f 145 133 135
f 135 134 136
f 134 346 136
f 135 136 145
f 145 136 146
f 136 346 146
f 137 138 139
f 137 152 138
f 139 175 137
f 151 152 137
f 137 189 151
f 137 175 189
f 139 138 140
f 138 190 140
f 152 200 138
f 138 200 190
f 177 175 139
f 190 176 140
f 141 144 142
f 141 142 157
f 143 144 141
f 157 142 158
f 143 160 144
f 159 160 143
f 145 146 147
f 147 146 148
f 146 346 148
f 147 148 167
f 167 148 168
f 148 346 168
f 149 150 151
f 149 174 150
f 151 189 149
f 173 174 149
f 149 199 173
f 189 199 149
f 151 150 152
f 150 198 152
f 174 212 150
f 210 198 150
f 150 212 210
f 152 198 200
f 153 156 154
f 153 154 177
f 155 156 153
f 177 154 178
f 155 158 156
f 157 158 155
f 159 162 160
f 161 162 159
f 161 164 162
f 163 164 161
f 163 166 164
f 165 166 163
f 165 180 166
f 179 180 165
f 167 168 169
f 169 168 170
f 168 346 170
f 169 170 183
f 183 170 184
f 170 356 184
f 170 346 356
f 171 172 173
f 171 188 172
f 173 199 171
f 187 188 171
f 171 197 187
f 199 197 171
f 173 172 174
f 172 230 174
f 188 242 172
f 172 240 230
f 172 242 240
f 222 212 174
f 174 230 222
f 175 178 176
f 175 176 189
f 177 178 175
f 189 176 190
f 179 182 180
f 181 182 179
f 327 181 179
f 328 180 182
f 181 192 182
f 191 192 181
f 191 181 327
f 328 182 192
f 183 184 185
f 185 184 186
f 184 356 186
f 185 186 193
f 193 186 194
f 186 356 194
f 187 196 188
f 195 196 187
f 187 209 195
f 187 197 209
f 196 416 188
f 242 188 388
f 188 398 388
f 188 406 398
f 414 406 188
f 188 416 414
f 189 190 199
f 199 190 200
f 191 202 192
f 201 202 191
f 325 201 191
f 325 191 327
f 326 192 202
f 328 192 326
f 193 194 203
f 203 194 204
f 194 356 204
f 195 208 196
f 207 208 195
f 195 425 207
f 209 211 195
f 195 211 221
f 221 229 195
f 229 239 195
f 239 241 195
f 241 405 195
f 405 413 195
f 195 413 415
f 415 425 195
f 208 416 196
f 197 200 198
f 197 198 209
f 199 200 197
f 209 198 210
f 201 214 202
f 213 214 201
f 323 213 201
f 323 201 325
f 324 202 214
f 326 202 324
f 203 204 215
f 215 204 216
f 204 356 216
f 205 206 207
f 205 220 206
f 207 425 205
f 219 220 205
f 205 425 219
f 207 206 208
f 206 416 208
f 220 416 206
f 209 210 211
f 211 210 212
f 211 212 221
f 221 212 222
f 213 224 214
f 223 224 213
f 323 223 213
f 324 214 224
f 215 216 217
f 217 216 218
f 216 356 218
f 217 218 225
f 225 218 226
f 218 356 226
f 219 228 220
f 227 228 219
f 219 425 227
f 228 416 220
f 221 222 229
f 229 222 230
f 223 234 224
f 233 234 223
f 321 233 223
f 321 223 323
f 322 224 234
f 324 224 322
f 225 226 235
f 235 226 236
f 226 358 236
f 226 356 358
f 227 238 228
f 237 238 227
f 227 425 237
f 238 416 228
f 229 230 239
f 239 230 240
f 231 232 233
f 231 246 232
f 341 231 233
f 245 246 231
f 341 245 231
f 233 232 234
f 342 234 232
f 342 232 246
f 319 233 321
f 341 233 319
f 322 234 320
f 320 234 342
f 235 236 247
f 247 236 248
f 236 358 248
f 237 250 238
f 249 250 237
f 237 425 249
f 250 416 238
f 239 240 241
f 241 240 242
f 241 242 251
f 251 387 241
f 241 387 397
f 397 405 241
f 251 242 252
f 388 252 242
f 243 244 245
f 243 262 244
f 245 353 243
f 261 262 243
f 243 353 261
f 245 244 246
f 354 246 244
f 354 244 262
f 339 245 341
f 245 339 353
f 342 246 340
f 340 246 354
f 247 248 263
f 263 248 264
f 248 366 264
f 248 358 366
f 249 266 250
f 265 266 249
f 249 425 265
f 266 416 250
f 251 252 253
f 253 387 251
f 253 252 254
f 388 254 252
f 253 254 255
f 255 379 253
f 253 379 387
f 255 254 256
f 380 256 254
f 380 254 388
f 255 256 257
f 257 371 255
f 255 371 379
f 257 256 258
f 372 258 256
f 372 256 380
f 257 258 259
f 259 371 257
f 259 258 260
f 372 260 258
f 259 260 261
f 261 363 259
f 259 363 371
f 261 260 262
f 364 262 260
f 364 260 372
f 261 353 351
f 261 351 363
f 354 262 352
f 352 262 364
f 263 264 267
f 267 264 268
f 264 366 268
f 265 270 266
f 269 270 265
f 265 425 269
f 270 416 266
f 267 268 271
f 271 268 272
f 268 366 272
f 269 274 270
f 273 274 269
f 269 425 273
f 274 416 270
f 271 272 275
f 275 272 276
f 272 366 276
f 273 278 274
f 277 278 273
f 273 425 277
f 278 416 274
f 275 276 279
f 279 276 280
f 276 366 280
f 277 282 278
f 281 282 277
f 277 425 281
f 282 416 278
f 279 280 283
f 283 280 284
f 280 366 284
f 281 286 282
f 285 286 281
f 281 425 285
f 286 416 282
f 283 284 287
f 287 284 288
f 284 374 288
f 284 366 374
f 285 290 286
f 289 290 285
f 285 425 289
f 290 416 286
f 287 288 291
f 291 288 292
f 288 374 292
f 289 294 290
f 293 294 289
f 289 425 293
f 294 416 290
f 291 292 295
f 295 292 296
f 292 374 296
f 293 298 294
f 297 298 293
f 293 425 297
f 298 416 294
f 295 296 299
f 299 296 300
f 296 374 300
f 297 304 298
f 303 304 297
f 297 425 303
f 304 416 298
f 299 300 305
f 305 300 306
f 300 374 306
f 301 302 303
f 301 310 302
f 303 425 301
f 309 310 301
f 301 425 309
f 303 302 304
f 302 416 304
f 310 416 302
f 305 306 307
f 307 306 308
f 306 374 308
f 307 308 311
f 311 308 312
f 308 374 312
f 309 314 310
f 313 314 309
f 309 425 313
f 314 416 310
f 311 312 315
f 315 312 316
f 312 374 316
f 313 318 314
f 317 318 313
f 313 425 317
f 318 416 314
f 315 316 335
f 335 316 336
f 316 382 336
f 316 374 382
f 317 338 318
f 337 338 317
f 317 425 337
f 338 416 318
f 319 322 320
f 319 320 341
f 321 322 319
f 341 320 342
f 321 324 322
f 323 324 321
f 323 326 324
f 325 326 323
f 325 328 326
f 327 328 325
f 327 330 328
f 329 330 327
f 329 332 330
f 331 332 329
f 331 334 332
f 333 334 331
f 333 344 334
f 343 344 333
f 335 336 347
f 347 336 348
f 336 382 348
f 337 350 338
f 349 350 337
f 337 425 349
f 350 416 338
f 339 342 340
f 339 340 353
f 341 342 339
f 353 340 354
f 343 346 344
f 345 346 343
f 345 356 346
f 355 356 345
f 575 355 345
f 505 345 501
f 521 345 505
f 533 345 521
f 543 345 533
f 551 345 543
f 565 345 551
f 563 345 565
f 575 345 563
f 347 348 359
f 359 348 360
f 348 382 360
f 349 362 350
f 361 362 349
f 349 425 361
f 362 416 350
f 351 354 352
f 351 352 363
f 353 354 351
f 363 352 364
f 355 358 356
f 357 358 355
f 575 357 355
f 357 366 358
f 365 366 357
f 575 365 357
f 359 360 367
f 367 360 368
f 360 382 368
f 361 370 362
f 369 370 361
f 361 425 369
f 370 416 362
f 363 364 371
f 371 364 372
f 365 374 366
f 373 374 365
f 529 373 365
f 529 365 575
f 367 368 375
f 375 368 376
f 368 382 376
f 369 378 370
f 377 378 369
f 369 425 377
f 378 416 370
f 371 372 379
f 379 372 380
f 373 382 374
f 381 382 373
f 529 381 373
f 375 376 383
f 376 382 384
f 383 376 384
f 377 386 378
f 385 386 377
f 377 425 385
f 386 416 378
f 379 380 387
f 387 380 388
f 381 390 382
f 389 390 381
f 381 515 389
f 381 517 515
f 381 519 517
f 529 519 381
f 384 382 394
f 390 516 382
f 394 382 392
f 392 382 402
f 402 382 410
f 410 382 422
f 422 382 434
f 434 382 530
f 516 518 382
f 382 518 520
f 382 520 530
f 383 384 393
f 393 384 394
f 385 396 386
f 395 396 385
f 385 425 395
f 396 416 386
f 387 388 397
f 397 388 398
f 389 400 390
f 399 400 389
f 389 513 399
f 389 515 513
f 400 514 390
f 390 514 516
f 391 394 392
f 391 392 401
f 393 394 391
f 401 392 402
f 395 404 396
f 403 404 395
f 395 425 403
f 404 416 396
f 397 398 405
f 405 398 406
f 399 408 400
f 407 408 399
f 399 511 407
f 399 513 511
f 408 512 400
f 400 512 514
f 401 402 409
f 409 402 410
f 403 412 404
f 411 412 403
f 403 425 411
f 412 416 404
f 405 406 413
f 413 406 414
f 407 420 408
f 419 420 407
f 407 509 419
f 407 511 509
f 420 510 408
f 408 510 512
f 409 410 421
f 421 410 422
f 411 424 412
f 423 424 411
f 411 425 423
f 424 416 412
f 413 414 415
f 415 414 416
f 415 416 425
f 436 416 424
f 425 416 426
f 602 426 416
f 456 416 436
f 460 416 456
f 464 416 460
f 466 416 464
f 472 416 466
f 476 416 472
f 480 416 476
f 484 416 480
f 488 416 484
f 492 416 488
f 496 416 492
f 500 416 496
f 504 416 500
f 508 416 504
f 524 416 508
f 536 416 524
f 546 416 536
f 554 416 546
f 556 416 554
f 568 416 556
f 578 416 568
f 586 416 578
f 588 416 586
f 602 416 588
f 417 418 419
f 417 432 418
f 419 509 417
f 431 432 417
f 417 525 431
f 417 509 527
f 417 527 525
f 419 418 420
f 418 510 420
f 432 526 418
f 418 528 510
f 418 526 528
f 421 422 433
f 433 422 434
f 423 436 424
f 423 425 435
f 435 436 423
f 425 426 427
f 651 425 427
f 435 425 455
f 455 425 459
f 459 425 463
f 463 425 465
f 465 425 471
f 471 425 475
f 475 425 479
f 479 425 483
f 483 425 487
f 487 425 491
f 491 425 495
f 495 425 499
f 499 425 503
f 503 425 507
f 507 425 523
f 523 425 535
f 535 425 545
f 545 425 553
f 553 425 555
f 555 425 567
f 567 425 577
f 577 425 585
f 585 425 587
f 587 425 601
f 601 425 603
f 603 425 623
f 623 425 625
f 625 425 635
f 635 425 637
f 637 425 643
f 643 425 645
f 645 425 651
f 427 426 428
f 674 428 426
f 604 426 602
f 624 426 604
f 626 426 624
f 636 426 626
f 638 426 636
f 644 426 638
f 646 426 644
f 652 426 646
f 654 426 652
f 660 426 654
f 662 426 660
f 668 426 662
f 670 426 668
f 676 426 670
f 674 426 672
f 672 426 682
f 678 426 676
f 684 426 678
f 682 426 680
f 680 426 690
f 686 426 684
f 692 426 686
f 690 426 688
f 688 426 698
f 694 426 692
f 700 426 694
f 698 426 696
f 696 426 706
f 702 426 700
f 708 426 702
f 706 426 704
f 704 426 714
f 710 426 708
f 716 426 710
f 714 426 712
f 712 426 734
f 718 426 716
f 720 426 718
f 722 426 720
f 724 426 722
f 736 426 724
f 728 426 726
f 726 426 770
f 730 426 728
f 732 426 730
f 734 426 732
f 738 426 736
f 740 426 738
f 742 426 740
f 744 426 742
f 746 426 744
f 748 426 746
f 750 426 748
f 752 426 750
f 772 426 752
f 756 426 754
f 754 426 772
f 758 426 756
f 760 426 758
f 762 426 760
f 764 426 762
f 766 426 764
f 768 426 766
f 770 426 768
f 427 428 437
f 677 427 437
f 651 427 653
f 653 427 659
f 659 427 661
f 661 427 667
f 667 427 669
f 669 427 675
f 675 427 677
f 437 428 438
f 674 438 428
f 429 430 431
f 429 452 430
f 431 525 429
f 451 452 429
f 429 537 451
f 429 525 539
f 429 539 537
f 431 430 432
f 430 526 432
f 452 538 430
f 430 540 526
f 430 538 540
f 433 434 453
f 453 434 454
f 434 530 454
f 435 456 436
f 455 456 435
f 437 438 439
f 685 437 439
f 677 437 683
f 683 437 685
f 439 438 440
f 674 440 438
f 439 440 441
f 709 439 441
f 685 439 691
f 691 439 693
f 693 439 699
f 699 439 701
f 701 439 707
f 707 439 709
f 441 440 442
f 592 442 440
f 592 440 674
f 441 442 443
f 739 441 443
f 709 441 715
f 715 441 717
f 717 441 719
f 719 441 721
f 721 441 723
f 723 441 735
f 735 441 737
f 737 441 739
f 443 442 444
f 592 444 442
f 443 444 445
f 445 569 443
f 569 579 443
f 443 579 589
f 443 589 591
f 761 443 591
f 739 443 741
f 741 443 743
f 743 443 745
f 745 443 747
f 747 443 749
f 749 443 751
f 751 443 771
f 753 443 755
f 771 443 753
f 755 443 757
f 757 443 759
f 759 443 761
f 445 444 446
f 444 570 446
f 444 580 570
f 444 590 580
f 592 590 444
f 445 446 447
f 447 557 445
f 445 557 569
f 447 446 448
f 446 558 448
f 446 570 558
f 447 448 449
f 449 547 447
f 447 547 557
f 449 448 450
f 448 548 450
f 448 558 548
f 449 450 451
f 451 537 449
f 449 537 547
f 451 450 452
f 450 538 452
f 450 548 538
f 453 454 457
f 457 454 458
f 454 530 458
f 455 460 456
f 459 460 455
f 457 458 461
f 461 458 462
f 458 530 462
f 459 464 460
f 463 464 459
f 461 462 469
f 469 462 470
f 462 530 470
f 463 466 464
f 465 466 463
f 465 472 466
f 471 472 465
f 467 470 468
f 467 468 473
f 469 470 467
f 470 530 468
f 473 468 474
f 468 530 474
f 471 476 472
f 475 476 471
f 473 474 477
f 477 474 478
f 474 530 478
f 475 480 476
f 479 480 475
f 477 478 481
f 481 478 482
f 478 530 482
f 479 484 480
f 483 484 479
f 481 482 485
f 485 482 486
f 482 530 486
f 483 488 484
f 487 488 483
f 485 486 489
f 489 486 490
f 486 530 490
f 487 492 488
f 491 492 487
f 489 490 493
f 493 490 494
f 490 530 494
f 491 496 492
f 495 496 491
f 493 494 497
f 497 494 498
f 494 530 498
f 495 500 496
f 499 500 495
f 497 498 501
f 501 498 502
f 498 530 502
f 499 504 500
f 503 504 499
f 501 502 505
f 505 502 506
f 530 506 502
f 503 508 504
f 507 508 503
f 505 506 521
f 521 506 522
f 530 522 506
f 507 524 508
f 523 524 507
f 509 512 510
f 509 510 527
f 511 512 509
f 527 510 528
f 511 514 512
f 513 514 511
f 513 516 514
f 515 516 513
f 515 518 516
f 517 518 515
f 517 520 518
f 519 520 517
f 519 530 520
f 529 530 519
f 521 522 533
f 530 532 522
f 522 532 534
f 533 522 534
f 523 536 524
f 535 536 523
f 525 528 526
f 525 526 539
f 527 528 525
f 539 526 540
f 529 532 530
f 531 532 529
f 531 529 575
f 531 542 532
f 541 542 531
f 541 531 575
f 532 542 534
f 533 534 543
f 534 542 544
f 543 534 544
f 535 546 536
f 545 546 535
f 537 540 538
f 537 538 547
f 539 540 537
f 547 538 548
f 541 550 542
f 549 550 541
f 549 541 575
f 544 542 552
f 552 542 550
f 543 544 551
f 551 544 552
f 545 554 546
f 553 554 545
f 547 548 557
f 557 548 558
f 549 560 550
f 559 560 549
f 575 559 549
f 552 550 566
f 576 550 560
f 566 550 564
f 564 550 576
f 551 552 565
f 565 552 566
f 553 556 554
f 555 556 553
f 555 568 556
f 567 568 555
f 557 558 569
f 569 558 570
f 559 562 560
f 561 562 559
f 561 559 575
f 560 562 576
f 561 574 562
f 573 574 561
f 583 573 561
f 583 561 575
f 584 562 574
f 576 562 584
f 563 566 564
f 563 564 575
f 565 566 563
f 575 564 576
f 567 578 568
f 577 578 567
f 569 570 579
f 579 570 580
f 571 572 573
f 571 582 572
f 571 573 599
f 581 582 571
f 581 571 621
f 597 571 599
f 621 571 597
f 573 572 574
f 600 574 572
f 622 572 582
f 600 572 598
f 598 572 622
f 599 573 583
f 584 574 600
f 575 576 583
f 583 576 584
f 577 586 578
f 585 586 577
f 579 580 589
f 589 580 590
f 581 596 582
f 595 596 581
f 633 595 581
f 619 581 621
f 633 581 619
f 582 596 634
f 622 582 620
f 620 582 634
f 583 584 599
f 599 584 600
f 585 588 586
f 587 588 585
f 587 602 588
f 601 602 587
f 589 590 591
f 591 590 592
f 591 592 605
f 591 605 697
f 591 697 695
f 591 695 705
f 703 591 705
f 713 591 703
f 711 591 713
f 733 591 711
f 725 591 727
f 769 591 725
f 727 591 729
f 729 591 731
f 731 591 733
f 761 591 763
f 763 591 765
f 765 591 767
f 767 591 769
f 605 592 606
f 606 592 674
f 593 594 595
f 593 618 594
f 593 595 631
f 617 618 593
f 639 617 593
f 641 593 631
f 639 593 641
f 595 594 596
f 632 596 594
f 594 618 640
f 632 594 642
f 642 594 640
f 631 595 633
f 634 596 632
f 597 600 598
f 597 598 621
f 599 600 597
f 621 598 622
f 601 604 602
f 603 604 601
f 603 624 604
f 623 624 603
f 605 606 607
f 605 607 687
f 697 605 687
f 607 606 608
f 608 606 674
f 607 608 609
f 679 607 609
f 689 607 679
f 687 607 689
f 609 608 610
f 610 608 674
f 609 610 611
f 673 609 611
f 671 609 673
f 681 609 671
f 679 609 681
f 611 610 612
f 674 612 610
f 611 612 627
f 611 627 673
f 627 612 628
f 628 612 674
f 613 614 615
f 613 630 614
f 657 613 615
f 629 630 613
f 665 629 613
f 655 613 657
f 665 613 655
f 615 614 616
f 616 614 658
f 614 630 666
f 658 614 656
f 656 614 666
f 615 616 617
f 615 617 649
f 647 615 649
f 657 615 647
f 617 616 618
f 650 618 616
f 650 616 648
f 648 616 658
f 649 617 639
f 640 618 650
f 619 622 620
f 619 620 633
f 621 622 619
f 633 620 634
f 623 626 624
f 625 626 623
f 625 636 626
f 635 636 625
f 627 628 629
f 663 627 629
f 673 627 663
f 629 628 630
f 664 630 628
f 664 628 674
f 663 629 665
f 666 630 664
f 631 634 632
f 631 632 641
f 633 634 631
f 641 632 642
f 635 638 636
f 637 638 635
f 637 644 638
f 643 644 637
f 639 642 640
f 639 640 649
f 641 642 639
f 649 640 650
f 643 646 644
f 645 646 643
f 645 652 646
f 651 652 645
f 647 650 648
f 647 648 657
f 649 650 647
f 657 648 658
f 651 654 652
f 653 654 651
f 653 660 654
f 659 660 653
f 655 658 656
f 655 656 665
f 657 658 655
f 665 656 666
f 659 662 660
f 661 662 659
f 661 668 662
f 667 668 661
f 663 666 664
f 663 664 673
f 665 666 663
f 673 664 674
f 667 670 668
f 669 670 667
f 669 676 670
f 675 676 669
f 671 674 672
f 671 672 681
f 673 674 671
f 681 672 682
f 675 678 676
f 677 678 675
f 677 684 678
f 683 684 677
f 679 682 680
f 679 680 689
f 681 682 679
f 689 680 690
f 683 686 684
f 685 686 683
f 685 692 686
f 691 692 685
f 687 690 688
f 687 688 697
f 689 690 687
f 697 688 698
f 691 694 692
f 693 694 691
f 693 700 694
f 699 700 693
f 695 698 696
f 695 696 705
f 697 698 695
f 705 696 706
f 699 702 700
f 701 702 699
f 701 708 702
f 707 708 701
f 703 706 704
f 703 704 713
f 705 706 703
f 713 704 714
f 707 710 708
f 709 710 707
f 709 716 710
f 715 716 709
f 711 714 712
f 711 712 733
f 713 714 711
f 733 712 734
f 715 718 716
f 717 718 715
f 717 720 718
f 719 720 717
f 719 722 720
f 721 722 719
f 721 724 722
f 723 724 721
f 723 736 724
f 735 736 723
f 725 728 726
f 725 726 769
f 727 728 725
f 769 726 770
f 727 730 728
f 729 730 727
f 729 732 730
f 731 732 729
f 731 734 732
f 733 734 731
f 735 738 736
f 737 738 735
f 737 740 738
f 739 740 737
f 739 742 740
f 741 742 739
f 741 744 742
f 743 744 741
f 743 746 744
f 745 746 743
f 745 748 746
f 747 748 745
f 747 750 748
f 749 750 747
f 749 752 750
f 751 752 749
f 751 772 752
f 771 772 751
f 753 756 754
f 753 754 771
f 755 756 753
f 771 754 772
f 755 758 756
f 757 758 755
f 757 760 758
f 759 760 757
f 759 762 760
f 761 762 759
f 761 764 762
f 763 764 761
f 763 766 764
f 765 766 763
f 765 768 766
f 767 768 765
f 767 770 768
f 769 770 767
