# CAD visual only; metres; body-local coordinates
v 0.0473761467 0.0793373779 -0.0195
v 0.0473761467 0.0793373779 0.0005
v 0.0633567718 0.0527501587 -0.0195
v 0.0633567718 0.0527501587 0.0005
v 0.0636030678 0.0529964546 -0.0151578374
v 0.0635683159 0.0529617027 -0.0149678011
v 0.0635422615 0.0529356674 -0.014735188
v 0.0635335449 0.0529269508 -0.0145
v 0.0635454086 0.0529387954 -0.0142257948
v 0.063574324 0.0529677108 -0.0139938612
v 0.0636030678 0.0529964546 -0.00515783501
v 0.0635683159 0.0529617027 -0.00496780109
v 0.0635422615 0.0529356674 -0.00473519039
v 0.0635335449 0.0529269508 -0.0045
v 0.0635454086 0.0529387954 -0.00422579479
v 0.063574324 0.0529677108 -0.0039938612
v 0.0637466911 0.053140097 -0.0156249995
v 0.0636945633 0.0530879692 -0.0154863353
v 0.0636202148 0.0530136207 -0.0152325292
v 0.0636114219 0.0530048088 -0.0138047094
v 0.0636294845 0.0530228904 -0.0137304564
v 0.063706961 0.0531003479 -0.0134785194
v 0.0637466911 0.053140097 -0.00562500191
v 0.0636945633 0.0530879692 -0.00548633289
v 0.0636202148 0.0530136207 -0.00523252678
v 0.0636114219 0.0530048088 -0.00380470943
v 0.0636294845 0.0530228904 -0.00373045635
v 0.063706961 0.0531003479 -0.00347851944
v 0.0638539222 0.0532473091 -0.015854084
v 0.0637902168 0.0531836227 -0.0157254381
v 0.0637607864 0.0531541923 -0.0133411665
v 0.0638055519 0.0531989387 -0.0132418175
v 0.0638539222 0.0532473091 -0.00585408401
v 0.0637902168 0.0531836227 -0.00572543812
v 0.0637607864 0.0531541923 -0.0033411665
v 0.0638055519 0.0531989387 -0.00324181747
v 0.0639995292 0.0533929352 -0.016090991
v 0.0639238075 0.0533171943 -0.0159761329
v 0.0638708214 0.0532642082 -0.0131147594
v 0.0639421943 0.0533356003 -0.0129944582
v 0.0639995292 0.0533929352 -0.00609099102
v 0.0639238075 0.0533171943 -0.00597613049
v 0.0638708214 0.0532642082 -0.00311475945
v 0.0639421943 0.0533356003 -0.0029944582
v 0.0641018585 0.0534952644 -0.0162235994
v 0.0640193466 0.0534127334 -0.0128814859
v 0.0641018585 0.0534952644 -0.00622359943
v 0.0640193466 0.0534127334 -0.00288148594
v 0.0642348579 0.0536282638 -0.0163653345
v 0.0641232971 0.0535166839 -0.0162485785
v 0.0641232971 0.0535166839 -0.0127514238
v 0.0641450218 0.0535384277 -0.0127269764
v 0.0642348579 0.0536282638 -0.00636533451
v 0.0641232971 0.0535166839 -0.00624857616
v 0.0641232971 0.0535166839 -0.00275142384
v 0.0641450218 0.0535384277 -0.00272697639
v 0.0643532089 0.0537466148 -0.016467895
v 0.0642580131 0.053651419 -0.0126129932
v 0.0643532089 0.0537466148 -0.00646789265
v 0.0642580131 0.053651419 -0.00261299324
v 0.0644774154 0.0538708214 -0.0165554781
v 0.0643776039 0.0537710098 -0.0164866323
v 0.0643776039 0.0537710098 -0.0125133677
v 0.0644022468 0.0537956337 -0.0124952335
v 0.0644774154 0.0538708214 -0.0065554781
v 0.0643776039 0.0537710098 -0.00648663235
v 0.0643776039 0.0537710098 -0.00251336765
v 0.0644022468 0.0537956337 -0.00249523354
v 0.064606562 0.0539999489 -0.0166274161
v 0.0645028785 0.0538962845 -0.0124288626
v 0.064606562 0.0539999489 -0.00662741852
v 0.0645028785 0.0538962845 -0.00242886257
v 0.0647396377 0.0541330436 -0.0166831656
v 0.0646328834 0.0540262893 -0.0123601217
v 0.0647396377 0.0541330436 -0.00668316555
v 0.0646328834 0.0540262893 -0.00236012173
v 0.0647709755 0.051335955 -0.0195
v 0.0647709755 0.051335955 0.0005
v 0.0649885277 0.0515535072 -0.0150061388
v 0.0649596122 0.0515245918 -0.0147742052
v 0.0649479965 0.051512976 -0.0145392675
v 0.0649564651 0.0515214447 -0.0142648096
v 0.0649825195 0.0515474991 -0.0140321989
v 0.0649950126 0.0515599922 -0.0139556761
v 0.0649885277 0.0515535072 -0.0050061388
v 0.0649596122 0.0515245918 -0.00477420521
v 0.0649479965 0.051512976 -0.00453926754
v 0.0649564651 0.0515214447 -0.00426480961
v 0.0649825195 0.0515474991 -0.00403219891
v 0.0649950126 0.0515599922 -0.00395567608
v 0.0648482612 0.0542416671 -0.016715817
v 0.0647666458 0.0541600326 -0.0123076696
v 0.0648482612 0.0542416671 -0.00671581936
v 0.0647666458 0.0541600326 -0.00230766964
v 0.0649858764 0.0543792633 -0.0167414374
v 0.0648756508 0.0542690376 -0.0122777004
v 0.0649858764 0.0543792633 -0.00674143982
v 0.0648756508 0.0542690376 -0.00227770042
v 0.0651211647 0.0516861442 -0.0155214782
v 0.0650437072 0.0516086868 -0.015269546
v 0.0650019745 0.0515669349 -0.0150823421
v 0.0650344375 0.0515994171 -0.0137674732
v 0.0651087669 0.0516737465 -0.0135136671
v 0.0651750091 0.0517399696 -0.0133411665
v 0.0651211647 0.0516861442 -0.00552148056
v 0.0650437072 0.0516086868 -0.00526954365
v 0.0650019745 0.0515669349 -0.00508234215
v 0.0650344375 0.0515994171 -0.00376747322
v 0.0651087669 0.0516737465 -0.00351366711
v 0.0651750091 0.0517399696 -0.0033411665
v 0.0652197555 0.0517847351 -0.0157581849
v 0.065189505 0.0517544845 -0.0156923194
v 0.0652044395 0.0517694 -0.0132745619
v 0.0652354912 0.0518004516 -0.0132094545
v 0.0652197555 0.0517847351 -0.00575818253
v 0.065189505 0.0517544845 -0.00569231701
v 0.0652044395 0.0517694 -0.00327456188
v 0.0652354912 0.0518004516 -0.00320945454
v 0.0650967697 0.0544901756 -0.0167496581
v 0.0650135521 0.054406958 -0.0122554798
v 0.0650967697 0.0544901756 -0.00674965572
v 0.0650135521 0.054406958 -0.00225547981
v 0.0652355102 0.0546289161 -0.0167445202
v 0.0651245407 0.0545179275 -0.012250001
v 0.0652355102 0.0546289161 -0.00674452019
v 0.0651245407 0.0545179275 -0.00225000095
v 0.0653564171 0.0519213775 -0.0160055442
v 0.0652516082 0.0518165878 -0.0158225174
v 0.0653380111 0.0519029907 -0.0130238695
v 0.0654335502 0.0519985298 -0.0128814859
v 0.0653564171 0.0519213775 -0.0060055418
v 0.0652516082 0.0518165878 -0.0058225174
v 0.0653380111 0.0519029907 -0.00302386951
v 0.0654335502 0.0519985298 -0.00288148594
v 0.0654536918 0.0520186714 -0.016145546
v 0.0654949669 0.0520599273 -0.0128019018
v 0.0654536918 0.0520186714 -0.00614554596
v 0.0654949669 0.0520599273 -0.00280190182
v 0.0653459648 0.0547393516 -0.0167281027
v 0.0652632049 0.0546565918 -0.0122585602
v 0.0653459648 0.0547393516 -0.00672810268
v 0.0652632049 0.0546565918 -0.00225856018
v 0.0654824356 0.0548758224 -0.0166923327
v 0.0653734115 0.0547668174 -0.0122777004
v 0.0654824356 0.0548758224 -0.00669233036
v 0.0653734115 0.0547668174 -0.00227770042
v 0.0655592445 0.052124205 -0.0162730236
v 0.0655160812 0.0520810417 -0.0162235994
v 0.0655375007 0.0521024803 -0.0127514238
v 0.0656722358 0.0522371963 -0.0126129932
v 0.0655592445 0.052124205 -0.00627302361
v 0.0655160812 0.0520810417 -0.00622359943
v 0.0655375007 0.0521024803 -0.00275142384
v 0.0656722358 0.0522371963 -0.00261299324
v 0.0656956581 0.0522606186 -0.0164081092
v 0.0657432464 0.052308226 -0.0125514431
v 0.0656956581 0.0522606186 -0.0064081068
v 0.0657432464 0.052308226 -0.0025514431
v 0.0655896858 0.0549830917 -0.0166516848
v 0.0655094246 0.0549028305 -0.0123168344
v 0.0655896858 0.0549830917 -0.00665168476
v 0.0655094246 0.0549028305 -0.00231683445
v 0.0657461838 0.0551395897 -0.016571135
v 0.0656161789 0.0550095848 -0.0123601217
v 0.0657461838 0.0551395897 -0.00657113743
v 0.0656161789 0.0550095848 -0.00236012173
v 0.0658164505 0.05238143 -0.0165047641
v 0.0657674125 0.0523323921 -0.016467895
v 0.0657918266 0.0523567871 -0.0125133677
v 0.0659171013 0.0524820617 -0.0124288626
v 0.0658164505 0.05238143 -0.00650476646
v 0.0657674125 0.0523323921 -0.00646789265
v 0.0657918266 0.0523567871 -0.00251336765
v 0.0659171013 0.0524820617 -0.00242886257
v 0.0659427551 0.0525077156 -0.0165861626
v 0.0659945968 0.0525595764 -0.0123856897
v 0.0659427551 0.0525077156 -0.00658616257
v 0.0659945968 0.0525595764 -0.00238568974
v 0.0658468345 0.0552402214 -0.0165047641
v 0.0657716469 0.0551650528 -0.0124445219
v 0.0658468345 0.0552402214 -0.00650476646
v 0.0657716469 0.0551650528 -0.0024445219
v 0.0659910492 0.0553844551 -0.0163870091
v 0.0658714584 0.0552648643 -0.0125133677
v 0.0659910492 0.0553844551 -0.00638700676
v 0.0658714584 0.0552648643 -0.00251336765
v 0.0660207657 0.0525857452 -0.0166274161
v 0.0661808494 0.052745829 -0.0123076696
v 0.0660207657 0.0525857452 -0.00662741852
v 0.0661808494 0.052745829 -0.00230766964
v 0.0662079719 0.0527729324 -0.0167008324
v 0.0662351707 0.0528001503 -0.012291338
v 0.0662079719 0.0527729324 -0.00670083237
v 0.0662351707 0.0528001503 -0.00229133797
v 0.0661040405 0.0554974464 -0.0162730236
v 0.0660142044 0.0554076103 -0.0126346655
v 0.0661040405 0.0554974464 -0.00627302361
v 0.0660142044 0.0554076103 -0.00263466549
v 0.0662495331 0.055642939 -0.016090991
v 0.0661257843 0.0555191711 -0.0127514238
v 0.0662495331 0.055642939 -0.00609099102
v 0.0661257843 0.0555191711 -0.00275142384
v 0.066262484 0.0528274444 -0.016715817
v 0.0664277748 0.0529927353 -0.0122554798
v 0.066262484 0.0528274444 -0.00671581936
v 0.0664277748 0.0529927353 -0.00225547981
v 0.0664554886 0.053020449 -0.0167469163
v 0.0664832214 0.053048201 -0.0122513695
v 0.0664554886 0.053020449 -0.00674691868
v 0.0664832214 0.053048201 -0.00225136948
v 0.066306868 0.0557002739 -0.0160055442
v 0.0663432983 0.0557367042 -0.0159462709
v 0.0663252739 0.0557186607 -0.0130238695
v 0.066268988 0.0556623939 -0.0129370184
v 0.066306868 0.0557002739 -0.0060055418
v 0.0663432983 0.0557367042 -0.00594627094
v 0.0663252739 0.0557186607 -0.00302386951
v 0.066268988 0.0556623939 -0.00293701839
v 0.0664435295 0.0558369163 -0.0157581849
v 0.0664882759 0.0558816818 -0.0156588359
v 0.0664588455 0.0558522514 -0.0132745619
v 0.0663609604 0.0557543663 -0.0130840273
v 0.0664435295 0.0558369163 -0.00575818253
v 0.0664882759 0.0558816818 -0.0056588335
v 0.0664588455 0.0558522514 -0.00327456188
v 0.0663609604 0.0557543663 -0.00308402729
v 0.0665109733 0.0530759529 -0.0167496581
v 0.0665387443 0.0531037239 -0.012250001
v 0.0665109733 0.0530759529 -0.00674965572
v 0.0665387443 0.0531037239 -0.00225000095
v 0.0667050461 0.0532700256 -0.0167376752
v 0.0667326454 0.0532976059 -0.0122667713
v 0.0667050461 0.0532700256 -0.00673767281
v 0.0667326454 0.0532976059 -0.00226677132
v 0.0665421203 0.0559355072 -0.0155214782
v 0.0665996841 0.055993071 -0.0153428645
v 0.066554499 0.0559479049 -0.0135136671
v 0.0665023712 0.0558957771 -0.0133749981
v 0.0665421203 0.0559355072 -0.00552148056
v 0.0665996841 0.055993071 -0.0053428669
v 0.066554499 0.0559479049 -0.00351366711
v 0.0665023712 0.0558957771 -0.00337499809
v 0.0666195778 0.0560129837 -0.015269546
v 0.0666747574 0.0560681442 -0.0150061388
v 0.0667036728 0.0560970596 -0.0147742052
v 0.0667152885 0.0561086754 -0.0145392675
v 0.0667068008 0.0561002067 -0.0142648096
v 0.0666807655 0.0560741523 -0.0140321989
v 0.0666288475 0.0560222343 -0.0137674732
v 0.0666098503 0.0560032562 -0.0136936731
v 0.0666195778 0.0560129837 -0.00526954365
v 0.0666747574 0.0560681442 -0.0050061388
v 0.0667036728 0.0560970596 -0.00477420521
v 0.0667152885 0.0561086754 -0.00453926754
v 0.0667068008 0.0561002067 -0.00426480961
v 0.0666807655 0.0560741523 -0.00403219891
v 0.0666288475 0.0560222343 -0.00376747322
v 0.0666098503 0.0560032562 -0.00369367313
v 0.0667601684 0.053325148 -0.0167281027
v 0.0669236473 0.0534886078 -0.0123168344
v 0.0667601684 0.053325148 -0.00672810268
v 0.0669236473 0.0534886078 -0.00231683445
v 0.0669505218 0.0535155014 -0.0166733332
v 0.0669772819 0.0535422615 -0.012337162
v 0.0669505218 0.0535155014 -0.00667333317
v 0.0669772819 0.0535422615 -0.00233716202
v 0.0670039085 0.0535688881 -0.0166516848
v 0.0671604065 0.0537253669 -0.0124288626
v 0.0670039085 0.0535688881 -0.00665168476
v 0.0671604065 0.0537253669 -0.00242886257
v 0.0671858696 0.0537508301 -0.0165554781
v 0.0672361854 0.053801165 -0.0124777145
v 0.0671858696 0.0537508301 -0.0065554781
v 0.0672361854 0.053801165 -0.00247771454
v 0.0672610382 0.0538260177 -0.0165047641
v 0.0672856811 0.0538506416 -0.0164866323
v 0.0674284271 0.0539933876 -0.0126346655
v 0.0672610382 0.0538260177 -0.0124952335
v 0.0672610382 0.0538260177 -0.00650476646
v 0.0672856811 0.0538506416 -0.00648663235
v 0.0674284271 0.0539933876 -0.00263466549
v 0.0672610382 0.0538260177 -0.00249523354
v 0.0674512962 0.0540162758 -0.0163430924
v 0.0674962333 0.0540611938 -0.0127030678
v 0.0674512962 0.0540162758 -0.00634309006
v 0.0674962333 0.0540611938 -0.00270306778
v 0.0675182632 0.0540832237 -0.0162730236
v 0.0675399879 0.0541049675 -0.0162485785
v 0.0676832107 0.0542481903 -0.0129370184
v 0.0675182632 0.0540832237 -0.0127269764
v 0.0675182632 0.0540832237 -0.00627302361
v 0.0675399879 0.0541049675 -0.00624857616
v 0.0676832107 0.0542481903 -0.00293701839
v 0.0675182632 0.0540832237 -0.00272697639
v 0.0677023224 0.0542673019 -0.0160344954
v 0.0677394775 0.0543044571 -0.0159761329
v 0.0677394775 0.0543044571 -0.0130238695
v 0.0677210907 0.0542860512 -0.0129944582
v 0.0677023224 0.0542673019 -0.00603449535
v 0.0677394775 0.0543044571 -0.00597613049
v 0.0677394775 0.0543044571 -0.00302386951
v 0.0677210907 0.0542860512 -0.0029944582
v 0.067757521 0.0543224815 -0.0159462709
v 0.0678730682 0.0544380287 -0.0157254381
v 0.0679302505 0.0544952301 -0.0134091778
v 0.0678577331 0.0544227127 -0.0132418175
v 0.067757521 0.0543224815 -0.00594627094
v 0.0678730682 0.0544380287 -0.00572543812
v 0.0679302505 0.0544952301 -0.00340917778
v 0.0678577331 0.0544227127 -0.00324181747
v 0.0679435066 0.0545084861 -0.0155563111
v 0.0679687217 0.0545337013 -0.0154863353
v 0.0679921821 0.0545571617 -0.0135848446
v 0.067956324 0.0545213035 -0.0134785194
v 0.0679435066 0.0545084861 -0.00555630875
v 0.0679687217 0.0545337013 -0.00548633289
v 0.0679921821 0.0545571617 -0.00358484459
v 0.067956324 0.0545213035 -0.00347851944
v 0.0680032638 0.0545682243 -0.0153791447
v 0.0680430511 0.0546080307 -0.0152325292
v 0.0680949692 0.0546599487 -0.0149678011
v 0.0681210235 0.0546860031 -0.014735188
v 0.0681297401 0.0546947006 -0.0145
v 0.0681178764 0.054682856 -0.0142257948
v 0.068088961 0.0546539406 -0.0139938612
v 0.0680337814 0.054598761 -0.0137304564
v 0.0680032638 0.0545682243 -0.00537914467
v 0.0680430511 0.0546080307 -0.00523252678
v 0.0680949692 0.0546599487 -0.00496780109
v 0.0681210235 0.0546860031 -0.00473519039
v 0.0681297401 0.0546947006 -0.0045
v 0.0681178764 0.054682856 -0.00422579479
v 0.068088961 0.0546539406 -0.0039938612
v 0.0680337814 0.054598761 -0.00373045635
v 0.0686600593 0.0580534652 -0.0195
v 0.0686600593 0.0580534652 0.0005
v 0.070074282 0.0566392616 -0.0195
v 0.070074282 0.0566392616 0.0005
v 0.0729027084 0.0538108352 -0.0195
v 0.0729027084 0.0538108352 0.0005
v 0.0760784248 0.0569865516 -0.0105418892
v 0.0760552696 0.0569633774 -0.0103350372
v 0.0760301307 0.0569382385 -0.010022933
v 0.0760197929 0.0569279197 -0.00981401634
v 0.0760139755 0.0569221023 -0.0095
v 0.0760165695 0.0569246772 -0.00929060173
v 0.0760243133 0.0569324402 -0.00908146095
v 0.0760455993 0.0569537262 -0.00876878452
v 0.0760662178 0.0569743255 -0.00856139374
v 0.0760784248 0.0569865516 -0.00845811081
v 0.0761993698 0.0571074775 -0.0112542315
v 0.0761585525 0.0570666603 -0.0110529156
v 0.0761227134 0.0570308403 -0.0108497066
v 0.0760919288 0.0570000366 -0.0106448526
v 0.0761066917 0.0570147995 -0.00825253201
v 0.076139994 0.0570481209 -0.00804846954
v 0.0761783317 0.0570864395 -0.00784617615
v 0.0762451271 0.0571532348 -0.0075465889
v 0.0760139755 0.107975207 -0.0195
v 0.0760139755 0.107975207 0.0005
v 0.0762698463 0.0571779541 -0.0115521212
v 0.0763229088 0.0572310356 -0.0072523613
v 0.076411486 0.0573195938 -0.0120357103
v 0.076351252 0.0572593597 -0.011844389
v 0.0763807777 0.0572888855 -0.0070595808
v 0.0764763931 0.0573845199 -0.0067760582
v 0.0765823845 0.0574905113 -0.0125000019
v 0.0765105919 0.0574186996 -0.0123168297
v 0.076545916 0.0574540428 -0.00659114075
v 0.0765823845 0.0574905113 -0.00649999809
v 0.0766984466 0.0576065544 -0.0127678366
v 0.0766199592 0.0575280861 -0.012590229
v 0.0766586593 0.0575667671 -0.00632048321
v 0.076739302 0.0576474289 -0.00614484024
v 0.0768242553 0.0577323631 -0.0130267115
v 0.0767812446 0.0576893715 -0.0129414577
v 0.0767812446 0.0576893715 -0.00605854225
v 0.0768242553 0.0577323631 -0.00597328854
v 0.0769594673 0.0578675941 -0.0132759209
v 0.076868296 0.0577764038 -0.0131108923
v 0.0769133667 0.0578214935 -0.00580603313
v 0.0769594673 0.0578675941 -0.00572407913
v 0.0770065597 0.0579146866 -0.0133567257
v 0.0770546631 0.0579627708 -0.00556364727
v 0.0771037201 0.0580118469 -0.0135147829
v 0.0772047142 0.058112841 -0.00533204746
v 0.0773094276 0.0582175544 -0.0138160391
v 0.0772566131 0.05816474 -0.0137426395
v 0.0772566131 0.05816474 -0.00525736046
v 0.0773094276 0.0582175544 -0.00518396091
v 0.0774731926 0.0583813194 -0.0140282555
v 0.0773631386 0.0582712654 -0.0138881226
v 0.0774177459 0.0583258537 -0.00504112911
v 0.0774731926 0.0583813194 -0.00497174454
v 0.0775294975 0.0584376243 -0.0140962667
v 0.0775866417 0.0584947494 -0.00483712387
v 0.0777033333 0.0586114601 -0.0142918129
v 0.0776445869 0.0585527137 -0.0142280645
v 0.0776445869 0.0585527137 -0.00477193546
v 0.0777033333 0.0586114601 -0.0047081871
v 0.0777628616 0.0586709694 -0.0143541021
v 0.0778231338 0.0587312607 -0.00458508682
v 0.0779459099 0.0588540367 -0.0145320244
v 0.077884169 0.0587922767 -0.014474227
v 0.077884169 0.0587922767 -0.00452577305
v 0.0779459099 0.0588540367 -0.00446797562
v 0.0780083564 0.0589164833 -0.0145882888
v 0.0780714897 0.0589796165 -0.00435699654
v 0.0781352905 0.0590434173 -0.0146961517
v 0.0781997398 0.0591078666 -0.0042522831
v 0.0782648185 0.0591729454 -0.0147976847
v 0.0783305076 0.0592386154 -0.00415395927
v 0.0783967689 0.0593048767 -0.0148927636
v 0.0784636024 0.0593717102 -0.00406215382
v 0.078530989 0.0594390968 -0.0149812717
v 0.078530989 0.0594390968 -0.00401872826
v 0.0785988907 0.0595069984 -0.0150230284
v 0.0787362007 0.0596443084 -0.00389851761
v 0.0788055519 0.0597136596 -0.0151381559
v 0.0788055519 0.0597136596 -0.00386184406
v 0.0788753418 0.0597834686 -0.0151731105
v 0.0789455703 0.0598536972 -0.00379366112
v 0.079087191 0.0599952987 -0.0152675695
v 0.0790161995 0.0599243072 -0.0152378292
v 0.0790161995 0.0599243072 -0.00376217079
v 0.079087191 0.0599952987 -0.00373243046
v 0.0791585449 0.0600666527 -0.0152955551
v 0.0792302231 0.0601383499 -0.00367822361
v 0.0793022255 0.0602103523 -0.0153462214
v 0.0793022255 0.0602103523 -0.00365378094
v 0.0793745331 0.0602826408 -0.0153688855
v 0.0794470886 0.0603551964 -0.00361023617
v 0.0795198921 0.0604280189 -0.0154088469
v 0.0795198921 0.0604280189 -0.00359115314
v 0.0795929245 0.0605010322 -0.0154261298
v 0.0797395805 0.0606476883 -0.00354472351
v 0.0798131469 0.0607212547 -0.0154671307
v 0.0798131469 0.0607212547 -0.00353286934
v 0.0798868469 0.0607949737 -0.0154771681
v 0.0799606613 0.0608687881 -0.00351461601
v 0.080034571 0.0609426979 -0.0154917784
v 0.080034571 0.0609426979 -0.00350822163
v 0.0801085571 0.0610166649 -0.0154963441
v 0.0801825813 0.0610906891 -0.00350091171
v 0.0803210739 0.0527439026 -0.0105418892
v 0.0802978996 0.0527207473 -0.0103350372
v 0.0802727607 0.0526956085 -0.010022933
v 0.080262442 0.0526852707 -0.00981401634
v 0.0802566246 0.0526794533 -0.0095
v 0.0802591995 0.0526820472 -0.00929060173
v 0.0802669624 0.0526897911 -0.00908146095
v 0.0802882484 0.0527110771 -0.00876878452
v 0.0803088478 0.0527316955 -0.00856139374
v 0.0803210739 0.0527439026 -0.00845811081
v 0.0804419998 0.0528648475 -0.0112542315
v 0.0804011825 0.0528240112 -0.0110529156
v 0.0803653625 0.0527881912 -0.0108497066
v 0.0803345779 0.0527574066 -0.0106448526
v 0.0803493408 0.0527721695 -0.00825253201
v 0.0803826431 0.0528054718 -0.00804846954
v 0.0804209808 0.0528438095 -0.00784617615
v 0.0804877571 0.0529106048 -0.0075465889
v 0.0802566246 0.0611647323 -0.015499999
v 0.0803306679 0.0612387756 -0.00350091171
v 0.0804046921 0.0613127998 -0.0154963441
v 0.080478659 0.0613867859 -0.00350822163
v 0.0805124763 0.0529353241 -0.0115521212
v 0.0805655578 0.0529883865 -0.0072523613
v 0.080654116 0.0530769638 -0.0120357103
v 0.080593882 0.0530167297 -0.011844389
v 0.0806234077 0.0530462555 -0.0070595808
v 0.0807190422 0.0531418709 -0.0067760582
v 0.0805525688 0.0614606956 -0.015485384
v 0.0805525688 0.0614606956 -0.00351461601
v 0.0806263832 0.06153451 -0.0154771681
v 0.0807001022 0.06160821 -0.00353286934
v 0.0808250335 0.0532478622 -0.0125000019
v 0.0807532219 0.0531760696 -0.0123168297
v 0.080788565 0.0532113937 -0.00659114075
v 0.0808250335 0.0532478622 -0.00649999809
v 0.0809410766 0.0533639244 -0.0127678366
v 0.0808626083 0.053285437 -0.012590229
v 0.0809012893 0.0533241371 -0.00632048321
v 0.0809819511 0.0534047798 -0.00614484024
v 0.0807736686 0.0616817764 -0.0154552765
v 0.0807736686 0.0616817764 -0.00354472351
v 0.0808470825 0.0617551903 -0.015441608
v 0.080993338 0.0619014648 -0.00359115314
v 0.0810668853 0.0534897331 -0.0130267115
v 0.0810238937 0.0534467224 -0.0129414577
v 0.0810238937 0.0534467224 -0.00605854225
v 0.0810668853 0.0534897331 -0.00597328854
v 0.0812021164 0.053624945 -0.0132759209
v 0.0811109451 0.0535337738 -0.0131108923
v 0.0811560158 0.0535788444 -0.00580603313
v 0.0812492088 0.0536720375 -0.00564327431
v 0.0810661606 0.0619742683 -0.0153897638
v 0.0810661606 0.0619742683 -0.00361023617
v 0.0811387161 0.0620468239 -0.0153688855
v 0.0812110046 0.0621191314 -0.00365378094
v 0.0812972931 0.0537201408 -0.0134363527
v 0.0812972931 0.0537201408 -0.00556364727
v 0.0813463691 0.0537691978 -0.0135147829
v 0.0814992622 0.0539220909 -0.00525736046
v 0.081283007 0.0621911148 -0.015321774
v 0.081283007 0.0621911148 -0.00367822361
v 0.0813547043 0.062262812 -0.0152955551
v 0.0814970497 0.0624051574 -0.0152378292
v 0.0814970497 0.0624051574 -0.00376217079
v 0.0814260582 0.0623341659 -0.00373243046
v 0.0815520767 0.0539749054 -0.0138160391
v 0.0815520767 0.0539749054 -0.00518396091
v 0.0817158416 0.0541386703 -0.0140282555
v 0.0816057876 0.0540286163 -0.0138881226
v 0.0816603759 0.0540832237 -0.00504112911
v 0.0817158416 0.0541386703 -0.00497174454
v 0.0815676597 0.0624757866 -0.0152063389
v 0.0815676597 0.0624757866 -0.00379366112
v 0.0816378883 0.0625459961 -0.0151731105
v 0.0817076973 0.062615805 -0.00386184406
v 0.0817721466 0.0541949753 -0.0140962667
v 0.0817721466 0.0541949753 -0.00490373325
v 0.0819459823 0.054368811 -0.0142918129
v 0.0818292717 0.0542521194 -0.0141628761
v 0.081887236 0.0543100647 -0.00477193546
v 0.0819459823 0.054368811 -0.0047081871
v 0.0817770485 0.0626851562 -0.0151014824
v 0.0817770485 0.0626851562 -0.00389851761
v 0.0818459419 0.0627540497 -0.0150631042
v 0.0819822601 0.0628903679 -0.0149812717
v 0.0819822601 0.0628903679 -0.00401872826
v 0.0819143585 0.0628224663 -0.00397697163
v 0.0820054916 0.0544283394 -0.0143541021
v 0.0820657829 0.0544886116 -0.00458508682
v 0.0821885589 0.0546113876 -0.0145320244
v 0.082126799 0.0545496467 -0.014474227
v 0.082126799 0.0545496467 -0.00452577305
v 0.0821885589 0.0546113876 -0.00446797562
v 0.0820496277 0.0629577545 -0.0149378462
v 0.0820496277 0.0629577545 -0.00406215382
v 0.0821164802 0.063024588 -0.0148927636
v 0.0822484115 0.0631565384 -0.00420231533
v 0.0822510055 0.0546738342 -0.0145882888
v 0.0823141388 0.0547369674 -0.00435699654
v 0.0823779396 0.0548007683 -0.0146961517
v 0.0824423889 0.0548652176 -0.0042522831
v 0.0823134903 0.0632216171 -0.0147477193
v 0.0823134903 0.0632216171 -0.0042522831
v 0.0823779396 0.0632860664 -0.0146961517
v 0.0824417404 0.0633498672 -0.00435699654
v 0.0825074676 0.0549302963 -0.0147976847
v 0.0825731376 0.0549959854 -0.00415395927
v 0.082639418 0.0550622467 -0.0148927636
v 0.0827062515 0.0551290802 -0.00406215382
v 0.0825048736 0.0634130005 -0.0145882888
v 0.0825673202 0.0634754471 -0.00446797562
v 0.0826290802 0.0635371879 -0.014474227
v 0.0826900963 0.0635982231 -0.00458508682
v 0.0827736191 0.0551964668 -0.0149812717
v 0.0827736191 0.0551964668 -0.00401872826
v 0.0828415207 0.0552643684 -0.0150230284
v 0.0829788307 0.0554016784 -0.00389851761
v 0.0827503875 0.0636584953 -0.0143541021
v 0.0828098968 0.0637180237 -0.0047081871
v 0.0828686432 0.06377677 -0.0142280645
v 0.0829837326 0.0638918594 -0.00490373325
v 0.083048201 0.0554710296 -0.0151381559
v 0.083048201 0.0554710296 -0.00386184406
v 0.0831179908 0.0555408195 -0.0151731105
v 0.0831882194 0.0556110481 -0.00379366112
v 0.0830400375 0.0639481643 -0.0140282555
v 0.0830400375 0.0639481643 -0.00497174454
v 0.0830955032 0.064003611 -0.0139588709
v 0.0832038025 0.0641119293 -0.00518396091
v 0.0832588295 0.0556816772 -0.0152378292
v 0.0832588295 0.0556816772 -0.00376217079
v 0.083329821 0.0557526687 -0.0152675695
v 0.0834728721 0.0558957008 -0.00367822361
v 0.0832566169 0.0641647438 -0.0137426395
v 0.0833085159 0.0642166427 -0.00533204746
v 0.0833594993 0.0642676071 -0.0135919924
v 0.0834585861 0.0643666939 -0.0134363527
v 0.0834585861 0.0643666939 -0.00556364727
v 0.08340951 0.0643176368 -0.00548521709
v 0.0835448745 0.0559677032 -0.0153462214
v 0.0835448745 0.0559677032 -0.00365378094
v 0.0836171631 0.0560400108 -0.0153688855
v 0.0836897186 0.0561125663 -0.00361023617
v 0.0835066704 0.0644147972 -0.0133567257
v 0.0835537628 0.0644618896 -0.00572407913
v 0.0835998634 0.0645079902 -0.0131939669
v 0.0837319854 0.0646401123 -0.0129414577
v 0.0837319854 0.0646401123 -0.00605854225
v 0.0836889938 0.0645971016 -0.00597328854
v 0.0837625412 0.0561853698 -0.0154088469
v 0.0837625412 0.0561853698 -0.00359115314
v 0.0838355736 0.0562584022 -0.0154261298
v 0.0839822105 0.0564050392 -0.00354472351
v 0.083773928 0.0646820358 -0.0128551598
v 0.0838148025 0.0647229103 -0.00623216343
v 0.0838545898 0.0647626976 -0.0126795168
v 0.0839673141 0.064875441 -0.0124088593
v 0.0839673141 0.064875441 -0.00659114075
v 0.0839308456 0.0648389724 -0.00649999809
v 0.084055777 0.0564786247 -0.0154671307
v 0.084055777 0.0564786247 -0.00353286934
v 0.084129496 0.0565523246 -0.0154771681
v 0.0842033104 0.056626139 -0.00351461601
v 0.0840026573 0.064910765 -0.0123168297
v 0.084036837 0.0649449638 -0.0122239418
v 0.0840698723 0.0649779991 -0.006869771
v 0.0840026573 0.064910765 -0.00668317032
v 0.0841017631 0.0650098709 -0.0120357103
v 0.0841324714 0.0650405792 -0.0119404192
v 0.0841903213 0.0650984482 -0.0117476387
v 0.0842434028 0.0651515106 -0.00744787884
v 0.0841619972 0.065070105 -0.00715561104
v 0.0841017631 0.0650098709 -0.00696428967
v 0.0842772201 0.0567000488 -0.0154917784
v 0.0842772201 0.0567000488 -0.00350822163
v 0.0844992546 0.0569221023 -0.015499999
v 0.0844992546 0.0569221023 -0.00350000095
v 0.0842681221 0.0651762298 -0.0114534111
v 0.0843348983 0.0652430252 -0.0111538239
v 0.0843348983 0.0652430252 -0.00784617615
v 0.0843138794 0.0652219871 -0.00774576855
v 0.0843546966 0.0652628044 -0.0110529156
v 0.0843732361 0.0652813438 -0.0109515305
v 0.0844065574 0.0653146652 -0.010747468
v 0.0844470314 0.0653551391 -0.0104386063
v 0.0844676307 0.0653757576 -0.0102312155
v 0.0844889168 0.0653970436 -0.00991853905
v 0.0844966797 0.0654047874 -0.00970939827
v 0.0844986061 0.0654067329 -0.00939528656
v 0.0844934372 0.065401564 -0.00918598366
v 0.0844831184 0.0653912262 -0.00897706699
v 0.0844579796 0.0653660873 -0.00866496277
v 0.0844348053 0.065342913 -0.00845811081
v 0.0843905166 0.0652986435 -0.00815029335
v 0.0843546966 0.0652628044 -0.00794708443
v 0.0845732979 0.0569961456 -0.0154990859
v 0.0845732979 0.0569961456 -0.00350091171
v 0.0846473221 0.0570701698 -0.0154963441
v 0.0847213081 0.0571441368 -0.00350822163
v 0.0847952179 0.0572180465 -0.015485384
v 0.0847952179 0.0572180465 -0.00351461601
v 0.0848690323 0.0572918609 -0.0154771681
v 0.0849427322 0.05736558 -0.00353286934
v 0.0850163177 0.0574391464 -0.0154552765
v 0.0850163177 0.0574391464 -0.00354472351
v 0.0850897125 0.0575125602 -0.015441608
v 0.0852359871 0.0576588157 -0.00359115314
v 0.0853087906 0.0577316383 -0.0153897638
v 0.0853087906 0.0577316383 -0.00361023617
v 0.0853813461 0.0578041939 -0.0153688855
v 0.0854536537 0.0578764824 -0.00365378094
v 0.0855256561 0.0579484848 -0.015321774
v 0.0855256561 0.0579484848 -0.00367822361
v 0.0855973343 0.0580201629 -0.0152955551
v 0.0857396797 0.0581625274 -0.0152378292
v 0.0857396797 0.0581625274 -0.00376217079
v 0.0856686882 0.0580915168 -0.00373243046
v 0.0858103088 0.0582331375 -0.0152063389
v 0.0858103088 0.0582331375 -0.00379366112
v 0.0858805374 0.0583033661 -0.0151731105
v 0.0859503273 0.0583731559 -0.00386184406
v 0.0860196785 0.0584425262 -0.0151014824
v 0.0860196785 0.0584425262 -0.00389851761
v 0.086088591 0.0585114197 -0.0150631042
v 0.0862248901 0.0586477379 -0.0149812717
v 0.0862248901 0.0586477379 -0.00401872826
v 0.0861569885 0.0585798362 -0.00397697163
v 0.0862922767 0.0587151054 -0.0149378462
v 0.0862922767 0.0587151054 -0.00406215382
v 0.0863591102 0.0587819389 -0.0148927636
v 0.0864910606 0.0589138893 -0.00420231533
v 0.0865561393 0.058978968 -0.0147477193
v 0.0865561393 0.058978968 -0.0042522831
v 0.0866205887 0.0590434173 -0.0146961517
v 0.0867475227 0.0591703514 -0.0044117136
v 0.0868099693 0.059232798 -0.0145320244
v 0.0868099693 0.059232798 -0.00446797562
v 0.0868717102 0.0592945579 -0.014474227
v 0.0869930176 0.0594158653 -0.00464589787
v 0.0870525459 0.0594753746 -0.0142918129
v 0.0870525459 0.0594753746 -0.0047081871
v 0.0871112922 0.0595341209 -0.0142280645
v 0.0872263817 0.0596492103 -0.00490373325
v 0.0872826866 0.0597055153 -0.0140282555
v 0.0872826866 0.0597055153 -0.00497174454
v 0.0873381332 0.059760981 -0.0139588709
v 0.087499266 0.0599220947 -0.0137426395
v 0.087499266 0.0599220947 -0.00525736046
v 0.0874464515 0.0598692802 -0.00518396091
v 0.087551165 0.0599739937 -0.0136679525
v 0.087551165 0.0599739937 -0.00533204746
v 0.0876021293 0.060024958 -0.0135919924
v 0.0877012161 0.0601240638 -0.0134363527
v 0.0877493194 0.0601721481 -0.00564327431
v 0.0876521591 0.0600749878 -0.00548521709
v 0.0877964119 0.0602192405 -0.0132759209
v 0.0877964119 0.0602192405 -0.00572407913
v 0.0878425125 0.0602653412 -0.0131939669
v 0.0879746345 0.0603974632 -0.0129414577
v 0.0879746345 0.0603974632 -0.00605854225
v 0.0879316238 0.0603544716 -0.00597328854
v 0.0880165771 0.0604394058 -0.0128551598
v 0.0880574325 0.0604802803 -0.00623216343
v 0.0880972198 0.0605200676 -0.0126795168
v 0.0882099632 0.0606327919 -0.0124088593
v 0.0882452873 0.060668116 -0.00668317032
v 0.0881734947 0.0605963234 -0.00649999809
v 0.0882794861 0.0607023147 -0.0122239418
v 0.0883125213 0.06073535 -0.006869771
v 0.0883443931 0.0607672409 -0.0120357103
v 0.0883751014 0.0607979492 -0.0119404192
v 0.0884329704 0.0608557991 -0.0117476387
v 0.0884860328 0.0609088806 -0.00744787884
v 0.0884046272 0.0608274749 -0.00715561104
v 0.0883443931 0.0607672409 -0.00696428967
v 0.0885107521 0.0609335998 -0.0114534111
v 0.0885565094 0.0609793571 -0.00774576855
v 0.0885775474 0.0610003761 -0.0111538239
v 0.0886158851 0.0610387138 -0.0109515305
v 0.0886491874 0.0610720161 -0.010747468
v 0.0886896614 0.0611125091 -0.0104386063
v 0.0887102798 0.0611331085 -0.0102312155
v 0.0887315658 0.0611543945 -0.00991853905
v 0.0887393097 0.0611621574 -0.00970939827
v 0.0887412552 0.0611640838 -0.00939528656
v 0.0887360862 0.0611589149 -0.00918598366
v 0.0887257484 0.0611485962 -0.00897706699
v 0.0887006096 0.0611234382 -0.00866496277
v 0.0886774543 0.061100283 -0.00845811081
v 0.0886331657 0.0610559944 -0.00815029335
v 0.0885973457 0.0610201744 -0.00794708443
v 0.0972978882 0.0866912941 -0.0195
v 0.0972978882 0.0866912941 0.0005
v 0.0987121109 0.0852770714 -0.0195
v 0.0987121109 0.0852770714 0.0005
v 0.0992484955 0.0886418823 -0.0146960993
v 0.0992424301 0.088635836 -0.0145
v 0.0992484955 0.0886418823 -0.00469609928
v 0.0992424301 0.088635836 -0.0045
v 0.0993481163 0.0887415031 -0.0153063269
v 0.0993291191 0.0887225059 -0.0152325292
v 0.0992772011 0.088670607 -0.0149678011
v 0.0992511467 0.0886445526 -0.014735188
v 0.0992511467 0.0886445526 -0.0142648096
v 0.0992542938 0.0886476997 -0.0142257948
v 0.0992832092 0.0886766151 -0.0139938612
v 0.0993383888 0.0887317756 -0.0137304564
v 0.0993481163 0.0887415031 -0.00530632687
v 0.0993291191 0.0887225059 -0.00523252678
v 0.0992772011 0.088670607 -0.00496780109
v 0.0992511467 0.0886445526 -0.00473519039
v 0.0992511467 0.0886445526 -0.00426480961
v 0.0992542938 0.0886476997 -0.00422579479
v 0.0992832092 0.0886766151 -0.0039938612
v 0.0993383888 0.0887317756 -0.00373045635
v 0.099499102 0.0888925079 -0.0157254381
v 0.0994034485 0.0887968544 -0.0154863353
v 0.0993582824 0.0887516884 -0.0136571331
v 0.0994158462 0.0888092331 -0.0134785194
v 0.099499102 0.0888925079 -0.00572543812
v 0.0994034485 0.0887968544 -0.00548633289
v 0.0993582824 0.0887516884 -0.0036571331
v 0.0994158462 0.0888092331 -0.00347851944
v 0.0995969871 0.088990393 -0.0159159703
v 0.0995144371 0.088907843 -0.0132418175
v 0.0995969871 0.088990393 -0.00591597271
v 0.0995144371 0.088907843 -0.00324181747
v 0.0997483734 0.0891417793 -0.016145546
v 0.0996326927 0.0890260986 -0.0159761329
v 0.0996146492 0.0890080551 -0.0130537291
v 0.0996510986 0.0890444854 -0.0129944582
v 0.0997483734 0.0891417793 -0.00614554596
v 0.0996326927 0.0890260986 -0.00597613049
v 0.0996146492 0.0890080551 -0.00305372906
v 0.0996510986 0.0890444854 -0.0029944582
v 0.099853907 0.0892473129 -0.0162730236
v 0.0998321823 0.0892255882 -0.0162485785
v 0.0997688392 0.0891622452 -0.0128279228
v 0.099853907 0.0892473129 -0.0127269764
v 0.099853907 0.0892473129 -0.00627302361
v 0.0998321823 0.0892255882 -0.00624857616
v 0.0997688392 0.0891622452 -0.00282792282
v 0.099853907 0.0892473129 -0.00272697639
v 0.0999903396 0.0893837265 -0.0164081092
v 0.0998759369 0.0892693428 -0.0127030678
v 0.0999903396 0.0893837265 -0.0064081068
v 0.0998759369 0.0892693428 -0.00270306778
v 0.100086508 0.089479895 -0.0164866323
v 0.10001401 0.0894073967 -0.0125713749
v 0.100086508 0.089479895 -0.00648663235
v 0.10001401 0.0894073967 -0.00257137489
v 0.100237437 0.0896308235 -0.0165861626
v 0.100111132 0.0895045379 -0.0124952335
v 0.100237437 0.0896308235 -0.00658616257
v 0.100111132 0.0895045379 -0.00249523354
v 0.100341788 0.0897351745 -0.0166398783
v 0.100263262 0.0896566681 -0.0123994417
v 0.100341788 0.0897351745 -0.00663987827
v 0.100263262 0.0896566681 -0.00239944172
v 0.100475531 0.0898689369 -0.0166923327
v 0.100368262 0.0897616676 -0.0123483152
v 0.100475531 0.0898689369 -0.00669233036
v 0.100368262 0.0897616676 -0.00234831524
v 0.100668517 0.087233477 -0.0147742052
v 0.100656901 0.0872218612 -0.0145392675
v 0.100665369 0.0872303299 -0.0142648096
v 0.100680819 0.0872457985 -0.0141092939
v 0.100668517 0.087233477 -0.00477420521
v 0.100656901 0.0872218612 -0.00453926754
v 0.100665369 0.0872303299 -0.00426480961
v 0.100680819 0.0872457985 -0.00410929394
v 0.100697432 0.0872623924 -0.0150061388
v 0.100685873 0.0872508529 -0.0149293203
v 0.100691424 0.0872563843 -0.0140321989
v 0.100743323 0.0873083023 -0.0137674732
v 0.100697432 0.0872623924 -0.0050061388
v 0.100685873 0.0872508529 -0.00492932034
v 0.100691424 0.0872563843 -0.00403219891
v 0.100743323 0.0873083023 -0.00376747322
v 0.100584536 0.0899779419 -0.0167222996
v 0.100502634 0.0898960403 -0.0122991676
v 0.100584536 0.0899779419 -0.00672229958
v 0.100502634 0.0898960403 -0.00229916763
v 0.100722437 0.0901158432 -0.0167445202
v 0.100612002 0.0900054077 -0.0122718973
v 0.100722437 0.0901158432 -0.00674452019
v 0.100612002 0.0900054077 -0.00227189732
v 0.100928641 0.0874936203 -0.0157581849
v 0.10083005 0.0873950294 -0.0155214782
v 0.100752592 0.087317572 -0.015269546
v 0.100817671 0.0873826317 -0.0135136671
v 0.100913325 0.0874783043 -0.0132745619
v 0.100928641 0.0874936203 -0.0132418175
v 0.100928641 0.0874936203 -0.00575818253
v 0.10083005 0.0873950294 -0.00552148056
v 0.100752592 0.087317572 -0.00526954365
v 0.100817671 0.0873826317 -0.00351366711
v 0.100913325 0.0874783043 -0.00327456188
v 0.100928641 0.0874936203 -0.00324181747
v 0.100944376 0.0875093559 -0.0157905478
v 0.100993929 0.0875588897 -0.0131147594
v 0.100944376 0.0875093559 -0.00579054546
v 0.100993929 0.0875588897 -0.00311475945
v 0.100833426 0.0902268318 -0.016749999
v 0.100833426 0.0902268318 -0.012250001
v 0.100833426 0.0902268318 -0.00674999905
v 0.100833426 0.0902268318 -0.00225000095
v 0.100999728 0.0903931335 -0.0167376752
v 0.100861197 0.0902545837 -0.0122503443
v 0.100999728 0.0903931335 -0.00673767281
v 0.100861197 0.0902545837 -0.00225034428
v 0.101065302 0.0876302818 -0.0160055442
v 0.10101121 0.0875761894 -0.0159159703
v 0.101046896 0.0876118759 -0.0130238695
v 0.101183062 0.0877480224 -0.0128279228
v 0.101065302 0.0876302818 -0.0060055418
v 0.10101121 0.0875761894 -0.00591597271
v 0.101046896 0.0876118759 -0.00302386951
v 0.101183062 0.0877480224 -0.00282792282
v 0.101203852 0.0877688316 -0.0161980958
v 0.101246405 0.0878113655 -0.0127514238
v 0.101203852 0.0877688316 -0.00619809818
v 0.101246405 0.0878113655 -0.00275142384
v 0.101082316 0.0904757026 -0.0167222996
v 0.101027327 0.0904207138 -0.0122667713
v 0.101082316 0.0904757026 -0.00672229958
v 0.101027327 0.0904207138 -0.00226677132
v 0.101245203 0.0906386093 -0.0166733332
v 0.101109705 0.0905030922 -0.0122841806
v 0.101245203 0.0906386093 -0.00667333317
v 0.101109705 0.0905030922 -0.00228418064
v 0.10126813 0.0878331093 -0.0162730236
v 0.101428213 0.087993193 -0.0125713749
v 0.10126813 0.0878331093 -0.00627302361
v 0.101428213 0.087993193 -0.00257137489
v 0.101452151 0.0880171112 -0.0164485569
v 0.101476317 0.0880412773 -0.0125321074
v 0.101452151 0.0880171112 -0.0064485569
v 0.101476317 0.0880412773 -0.00253210735
v 0.101351405 0.0907448105 -0.0166274161
v 0.101271963 0.0906653694 -0.012337162
v 0.101351405 0.0907448105 -0.00662741852
v 0.101271963 0.0906653694 -0.00233716202
v 0.101480532 0.090873938 -0.0165554781
v 0.101377573 0.0907709793 -0.0123856897
v 0.101480532 0.090873938 -0.0065554781
v 0.101377573 0.0907709793 -0.00238568974
v 0.101540537 0.082448645 -0.0195
v 0.101540537 0.082448645 0.0005
v 0.101525355 0.0880903152 -0.0165047641
v 0.101500712 0.0880656913 -0.0164866323
v 0.101500712 0.0880656913 -0.0125133677
v 0.101677485 0.0882424453 -0.0123994417
v 0.101525355 0.0880903152 -0.00650476646
v 0.101500712 0.0880656913 -0.00648663235
v 0.101500712 0.0880656913 -0.00251336765
v 0.101677485 0.0882424453 -0.00239944172
v 0.101703482 0.0882684616 -0.0166143079
v 0.10172967 0.0882946304 -0.0123725815
v 0.101703482 0.0882684616 -0.00661431026
v 0.10172967 0.0882946304 -0.00237258148
v 0.10155572 0.0909491256 -0.0165047641
v 0.101604758 0.0909981445 -0.016467895
v 0.101580344 0.0909737495 -0.0125133677
v 0.101505804 0.0908992103 -0.0124608059
v 0.10155572 0.0909491256 -0.00650476646
v 0.101604758 0.0909981445 -0.00646789265
v 0.101580344 0.0909737495 -0.00251336765
v 0.101505804 0.0908992103 -0.00246080589
v 0.101745978 0.0911393837 -0.0163430924
v 0.101628924 0.0910223297 -0.0125514431
v 0.101745978 0.0911393837 -0.00634309006
v 0.101628924 0.0910223297 -0.0025514431
v 0.101755991 0.0883209709 -0.0166398783
v 0.101916857 0.0884818176 -0.0122991676
v 0.101755991 0.0883209709 -0.00663987827
v 0.101916857 0.0884818176 -0.00229916763
v 0.101944056 0.0885090355 -0.016708662
v 0.101998759 0.0885637192 -0.0122777004
v 0.101944056 0.0885090355 -0.00670866203
v 0.101998759 0.0885637192 -0.00227770042
v 0.101812945 0.0912063316 -0.0162730236
v 0.101856089 0.0912494949 -0.0162235994
v 0.101834669 0.0912280754 -0.0127514238
v 0.10176858 0.0911619858 -0.0126797123
v 0.101812945 0.0912063316 -0.00627302361
v 0.101856089 0.0912494949 -0.00622359943
v 0.101834669 0.0912280754 -0.00275142384
v 0.10176858 0.0911619858 -0.0026797123
v 0.101997004 0.0913904098 -0.0160344954
v 0.101877203 0.0912706093 -0.0128019018
v 0.101997004 0.0913904098 -0.00603449535
v 0.101877203 0.0912706093 -0.00280190182
v 0.102026224 0.088591185 -0.0167281027
v 0.102164374 0.0887293533 -0.0122530813
v 0.102026224 0.088591185 -0.00672810268
v 0.102164374 0.0887293533 -0.00225308132
v 0.102192107 0.0887570862 -0.0167486305
v 0.102247649 0.0888126091 -0.012250001
v 0.102192107 0.0887570862 -0.00674863052
v 0.102247649 0.0888126091 -0.00225000095
v 0.102015772 0.0914091591 -0.0160055442
v 0.102104044 0.0914974502 -0.015854084
v 0.102034159 0.091427565 -0.0130238695
v 0.102015772 0.0914091591 -0.0129944582
v 0.102015772 0.0914091591 -0.0060055418
v 0.102104044 0.0914974502 -0.00585408401
v 0.102034159 0.091427565 -0.00302386951
v 0.102015772 0.0914091591 -0.0029944582
v 0.102152415 0.0915458206 -0.0157581849
v 0.102238188 0.0916315941 -0.0155563111
v 0.10216775 0.0915611366 -0.0132745619
v 0.102120562 0.0915139679 -0.0131774826
v 0.102152415 0.0915458206 -0.00575818253
v 0.102238188 0.0916315941 -0.00555630875
v 0.10216775 0.0915611366 -0.00327456188
v 0.102120562 0.0915139679 -0.0031774826
v 0.102275401 0.0888403801 -0.0167496581
v 0.10241395 0.0889789108 -0.0122623272
v 0.102275401 0.0888403801 -0.00674965572
v 0.10241395 0.0889789108 -0.00226232719
v 0.102441531 0.0890065101 -0.0167332287
v 0.102496519 0.089061499 -0.0122777004
v 0.102441531 0.0890065101 -0.00673322868
v 0.102496519 0.089061499 -0.00227770042
v 0.102251006 0.0916444114 -0.0155214782
v 0.102328463 0.0917218689 -0.015269546
v 0.102354899 0.0917483047 -0.0151578374
v 0.102337733 0.0917311386 -0.0137674732
v 0.102263403 0.0916567901 -0.0135136671
v 0.102251006 0.0916444114 -0.0134785194
v 0.102251006 0.0916444114 -0.00552148056
v 0.102328463 0.0917218689 -0.00526954365
v 0.102354899 0.0917483047 -0.00515783501
v 0.102337733 0.0917311386 -0.00376747322
v 0.102263403 0.0916567901 -0.00351366711
v 0.102251006 0.0916444114 -0.00347851944
v 0.102383643 0.0917770294 -0.0150061388
v 0.102412558 0.0918059639 -0.0147742052
v 0.102424174 0.0918175796 -0.0145392675
v 0.102415705 0.0918090919 -0.0142648096
v 0.102389651 0.0917830566 -0.0140321989
v 0.102362776 0.0917561821 -0.0138798161
v 0.102383643 0.0917770294 -0.0050061388
v 0.102412558 0.0918059639 -0.00477420521
v 0.102424174 0.0918175796 -0.00453926754
v 0.102415705 0.0918090919 -0.00426480961
v 0.102389651 0.0917830566 -0.00403219891
v 0.102362776 0.0917561821 -0.00387981606
v 0.102523909 0.0890888885 -0.016715817
v 0.102659426 0.0892243866 -0.0123266668
v 0.102523909 0.0890888885 -0.00671581936
v 0.102659426 0.0892243866 -0.00232666683
v 0.102686186 0.0892511467 -0.016662838
v 0.102739287 0.0893042473 -0.0123601217
v 0.102686186 0.0892511467 -0.00666283798
v 0.102739287 0.0893042473 -0.00236012173
v 0.102601195 0.0919946007 -0.0195
v 0.102601195 0.0919946007 0.0005
v 0.102765608 0.0893305877 -0.0166274161
v 0.102920027 0.0894849876 -0.0124608059
v 0.102765608 0.0893305877 -0.00662741852
v 0.102920027 0.0894849876 -0.00246080589
v 0.10294509 0.0895100502 -0.0165222855
v 0.102994566 0.0895595459 -0.0164866323
v 0.102994566 0.0895595459 -0.0125133677
v 0.102969942 0.0895349029 -0.0124952335
v 0.10294509 0.0895100502 -0.00652228546
v 0.102994566 0.0895595459 -0.00648663235
v 0.102994566 0.0895595459 -0.00251336765
v 0.102969942 0.0895349029 -0.00249523354
v 0.103018961 0.0895839409 -0.016467895
v 0.103182803 0.089747763 -0.0126797123
v 0.103018961 0.0895839409 -0.00646789265
v 0.103182803 0.089747763 -0.0026797123
v 0.103205119 0.0897700981 -0.0162969298
v 0.103248892 0.0898138527 -0.0162485785
v 0.103248892 0.0898138527 -0.0127514238
v 0.103227148 0.089792128 -0.0127269764
v 0.103205119 0.0897700981 -0.00629693222
v 0.103248892 0.0898138527 -0.00624857616
v 0.103248892 0.0898138527 -0.00275142384
v 0.103227148 0.089792128 -0.00272697639
v 0.103270312 0.0898352722 -0.0162235994
v 0.103429976 0.0899949554 -0.0129944582
v 0.103270312 0.0898352722 -0.00622359943
v 0.103429976 0.0899949554 -0.0029944582
v 0.103448382 0.0900133423 -0.0159761329
v 0.103484068 0.0900490478 -0.0130840273
v 0.103448382 0.0900133423 -0.00597613049
v 0.103484068 0.0900490478 -0.00308402729
v 0.103501349 0.0900663284 -0.0158852382
v 0.103581953 0.090146933 -0.0157254381
v 0.103677607 0.0902425865 -0.0154863353
v 0.103677607 0.0902425865 -0.0135136671
v 0.103665228 0.0902301887 -0.0134785194
v 0.103566637 0.0901315979 -0.0132418175
v 0.103501349 0.0900663284 -0.00588524055
v 0.103581953 0.090146933 -0.00572543812
v 0.103677607 0.0902425865 -0.00548633289
v 0.103677607 0.0902425865 -0.00351366711
v 0.103665228 0.0902301887 -0.00347851944
v 0.103566637 0.0901315979 -0.00324181747
v 0.103689566 0.0902545456 -0.015450892
v 0.103742686 0.0903076462 -0.0137304564
v 0.103689566 0.0902545456 -0.00545088959
v 0.103742686 0.0903076462 -0.00373045635
v 0.103751955 0.0903169159 -0.0152325292
v 0.103803854 0.0903688339 -0.0149678011
v 0.103829909 0.0903948883 -0.014735188
v 0.103838625 0.0904036049 -0.0145
v 0.103826781 0.0903917412 -0.0142257948
v 0.103797846 0.0903628257 -0.0139938612
v 0.103751955 0.0903169159 -0.00523252678
v 0.103803854 0.0903688339 -0.00496780109
v 0.103829909 0.0903948883 -0.00473519039
v 0.103838625 0.0904036049 -0.0045
v 0.103826781 0.0903917412 -0.00422579479
v 0.103797846 0.0903628257 -0.0039938612
v 0.104015398 0.0905803779 -0.0195
v 0.104015398 0.0905803779 0.0005
f 335 2 1
f 1 2 359
f 737 335 1
f 737 1 359
f 336 2 335
f 336 360 2
f 359 2 360
f 4 8 3
f 77 4 3
f 6 5 3
f 3 5 19
f 7 6 3
f 8 7 3
f 3 18 17
f 17 30 3
f 3 19 18
f 30 29 3
f 3 29 38
f 3 38 37
f 37 45 3
f 3 45 50
f 50 49 3
f 3 49 57
f 3 57 62
f 3 62 61
f 61 69 3
f 3 69 73
f 3 73 91
f 77 3 337
f 3 91 95
f 3 95 119
f 3 119 123
f 3 123 139
f 3 139 143
f 3 143 159
f 3 159 335
f 337 3 335
f 13 8 4
f 4 14 13
f 15 14 4
f 16 15 4
f 4 26 16
f 4 27 26
f 4 28 27
f 35 28 4
f 36 35 4
f 4 43 36
f 4 44 43
f 48 44 4
f 4 55 48
f 56 55 4
f 4 60 56
f 4 67 60
f 4 68 67
f 72 68 4
f 4 76 72
f 4 94 76
f 78 4 77
f 4 78 336
f 4 98 94
f 4 122 98
f 4 126 122
f 4 142 126
f 4 146 142
f 4 162 146
f 336 162 4
f 80 5 6
f 101 19 5
f 79 5 80
f 101 5 79
f 81 6 7
f 80 6 81
f 82 7 8
f 81 7 82
f 13 9 8
f 83 8 9
f 82 8 83
f 12 10 9
f 84 9 10
f 12 9 13
f 83 9 84
f 11 10 12
f 11 20 10
f 102 10 20
f 84 10 102
f 86 11 12
f 25 20 11
f 107 25 11
f 85 11 86
f 107 11 85
f 87 12 13
f 86 12 87
f 88 13 14
f 87 13 88
f 89 14 15
f 88 14 89
f 90 15 16
f 89 15 90
f 108 16 26
f 90 16 108
f 100 17 18
f 99 30 17
f 99 17 100
f 101 18 19
f 100 18 101
f 25 21 20
f 103 20 21
f 102 20 103
f 24 22 21
f 104 21 22
f 24 21 25
f 103 21 104
f 23 22 24
f 23 31 22
f 104 22 31
f 106 23 24
f 34 31 23
f 105 34 23
f 105 23 106
f 107 24 25
f 106 24 107
f 109 26 27
f 108 26 109
f 110 27 28
f 109 27 110
f 110 28 35
f 112 29 30
f 128 38 29
f 111 29 112
f 128 29 111
f 112 30 99
f 34 32 31
f 114 31 32
f 104 31 113
f 113 31 114
f 33 32 34
f 33 39 32
f 129 32 39
f 114 32 129
f 116 33 34
f 42 39 33
f 132 42 33
f 115 33 116
f 132 33 115
f 116 34 105
f 118 35 36
f 110 35 117
f 117 35 118
f 133 36 43
f 118 36 133
f 128 37 38
f 127 45 37
f 127 37 128
f 42 40 39
f 130 39 40
f 129 39 130
f 41 40 42
f 41 46 40
f 130 40 46
f 132 41 42
f 47 46 41
f 131 47 41
f 131 41 132
f 134 43 44
f 133 43 134
f 134 44 48
f 148 50 45
f 135 45 127
f 148 45 135
f 47 51 46
f 149 46 51
f 130 46 136
f 136 46 149
f 54 51 47
f 152 54 47
f 137 47 131
f 152 47 137
f 153 48 55
f 134 48 138
f 138 48 153
f 148 49 50
f 147 57 49
f 147 49 148
f 54 52 51
f 150 51 52
f 149 51 150
f 53 52 54
f 53 58 52
f 150 52 58
f 152 53 54
f 59 58 53
f 151 59 53
f 151 53 152
f 154 55 56
f 153 55 154
f 154 56 60
f 168 62 57
f 155 57 147
f 168 57 155
f 59 63 58
f 169 58 63
f 150 58 156
f 156 58 169
f 66 63 59
f 172 66 59
f 157 59 151
f 172 59 157
f 173 60 67
f 154 60 158
f 158 60 173
f 168 61 62
f 167 69 61
f 167 61 168
f 66 64 63
f 170 63 64
f 169 63 170
f 65 64 66
f 65 70 64
f 170 64 70
f 172 65 66
f 71 70 65
f 171 71 65
f 171 65 172
f 174 67 68
f 173 67 174
f 174 68 72
f 187 73 69
f 175 69 167
f 187 69 175
f 71 74 70
f 188 70 74
f 170 70 176
f 176 70 188
f 75 74 71
f 189 75 71
f 177 71 171
f 189 71 177
f 190 72 76
f 174 72 178
f 178 72 190
f 187 91 73
f 75 92 74
f 188 74 92
f 93 92 75
f 189 93 75
f 190 76 94
f 77 87 78
f 79 80 77
f 77 101 79
f 80 81 77
f 81 82 77
f 82 87 77
f 77 99 100
f 77 112 99
f 77 100 101
f 111 112 77
f 77 128 111
f 77 127 128
f 77 135 127
f 77 148 135
f 147 148 77
f 155 147 77
f 168 155 77
f 77 167 168
f 77 175 167
f 77 187 175
f 77 191 187
f 77 203 191
f 77 207 203
f 77 227 207
f 77 231 227
f 77 259 231
f 77 263 259
f 337 263 77
f 78 87 88
f 88 89 78
f 89 90 78
f 78 90 108
f 78 108 109
f 78 109 110
f 78 110 117
f 117 118 78
f 78 118 133
f 78 133 134
f 78 134 138
f 78 138 153
f 153 154 78
f 154 158 78
f 158 173 78
f 78 173 174
f 78 174 178
f 78 178 190
f 78 190 194
f 78 194 206
f 78 206 210
f 78 210 230
f 230 234 78
f 78 234 262
f 262 266 78
f 78 266 338
f 336 78 338
f 83 86 82
f 82 86 87
f 84 85 83
f 83 85 86
f 84 107 85
f 102 107 84
f 203 95 91
f 191 91 187
f 203 91 191
f 93 96 92
f 204 92 96
f 188 92 192
f 192 92 204
f 97 96 93
f 205 97 93
f 193 93 189
f 205 93 193
f 206 94 98
f 190 94 194
f 194 94 206
f 203 119 95
f 97 120 96
f 204 96 120
f 121 120 97
f 205 121 97
f 206 98 122
f 103 106 102
f 102 106 107
f 104 105 103
f 103 105 106
f 104 116 105
f 113 116 104
f 114 115 113
f 113 115 116
f 114 132 115
f 129 132 114
f 227 123 119
f 207 119 203
f 227 119 207
f 120 121 124
f 228 120 124
f 204 120 208
f 208 120 228
f 124 121 125
f 229 125 121
f 209 121 205
f 229 121 209
f 230 122 126
f 206 122 210
f 210 122 230
f 227 139 123
f 124 125 140
f 228 124 140
f 140 125 141
f 229 141 125
f 230 126 142
f 130 131 129
f 129 131 132
f 130 137 131
f 136 137 130
f 136 152 137
f 149 152 136
f 259 143 139
f 231 139 227
f 259 139 231
f 140 141 144
f 260 140 144
f 228 140 232
f 232 140 260
f 144 141 145
f 261 145 141
f 233 141 229
f 261 141 233
f 262 142 146
f 230 142 234
f 234 142 262
f 259 159 143
f 144 145 160
f 260 144 160
f 160 145 161
f 261 161 145
f 262 146 162
f 150 151 149
f 149 151 152
f 150 157 151
f 156 157 150
f 156 172 157
f 169 172 156
f 267 163 159
f 159 163 335
f 263 159 259
f 267 159 263
f 160 161 164
f 268 160 164
f 260 160 264
f 264 160 268
f 164 161 165
f 269 165 161
f 265 161 261
f 269 161 265
f 270 162 166
f 166 162 336
f 262 162 266
f 266 162 270
f 267 179 163
f 163 179 335
f 164 165 180
f 272 164 180
f 268 164 272
f 180 165 181
f 269 181 165
f 274 166 182
f 182 166 336
f 270 166 274
f 170 171 169
f 169 171 172
f 170 177 171
f 176 177 170
f 176 189 177
f 188 189 176
f 275 183 179
f 335 179 183
f 271 179 267
f 275 179 271
f 180 181 184
f 277 180 184
f 272 180 278
f 278 180 277
f 184 181 185
f 279 185 181
f 273 181 269
f 279 181 273
f 281 182 186
f 336 186 182
f 274 182 282
f 282 182 281
f 276 195 183
f 335 183 195
f 276 183 275
f 184 185 196
f 277 184 196
f 196 185 197
f 280 197 185
f 280 185 279
f 281 186 198
f 336 198 186
f 188 193 189
f 192 193 188
f 192 205 193
f 204 205 192
f 287 199 195
f 195 199 335
f 283 195 276
f 287 195 283
f 196 197 200
f 289 196 200
f 277 196 284
f 284 196 290
f 290 196 289
f 200 197 201
f 291 201 197
f 285 197 280
f 291 197 285
f 293 198 202
f 202 198 336
f 281 198 286
f 286 198 294
f 294 198 293
f 288 211 199
f 335 199 211
f 288 199 287
f 200 201 214
f 289 200 214
f 214 201 215
f 292 215 201
f 292 201 291
f 293 202 218
f 336 218 202
f 204 209 205
f 208 209 204
f 208 229 209
f 228 229 208
f 295 212 211
f 335 211 212
f 295 211 288
f 303 219 212
f 212 219 335
f 296 212 295
f 303 212 296
f 214 215 213
f 297 214 213
f 213 215 216
f 213 216 222
f 306 213 222
f 297 213 306
f 289 214 298
f 298 214 297
f 299 216 215
f 299 215 292
f 222 216 223
f 307 223 216
f 300 216 299
f 307 216 300
f 301 218 217
f 336 217 218
f 310 217 226
f 226 217 336
f 301 217 310
f 293 218 302
f 302 218 301
f 303 220 219
f 219 220 335
f 304 235 220
f 220 235 335
f 304 220 303
f 222 223 221
f 305 222 221
f 221 223 224
f 221 224 238
f 305 221 238
f 306 222 305
f 307 224 223
f 238 224 239
f 308 239 224
f 308 224 307
f 309 226 225
f 225 226 336
f 309 225 242
f 242 225 336
f 310 226 309
f 229 228 233
f 233 228 232
f 233 232 261
f 261 232 260
f 311 236 235
f 335 235 236
f 311 235 304
f 319 243 236
f 236 243 335
f 312 236 311
f 319 236 312
f 238 239 237
f 313 238 237
f 237 239 240
f 237 240 250
f 326 237 250
f 313 237 326
f 305 238 314
f 314 238 313
f 315 240 239
f 315 239 308
f 250 240 251
f 327 251 240
f 316 240 315
f 327 240 316
f 317 242 241
f 336 241 242
f 334 241 258
f 258 241 336
f 317 241 334
f 309 242 318
f 318 242 317
f 319 244 243
f 335 243 244
f 320 245 244
f 244 245 335
f 320 244 319
f 321 246 245
f 245 246 335
f 321 245 320
f 322 247 246
f 246 247 335
f 322 246 321
f 323 248 247
f 335 247 248
f 323 247 322
f 249 252 248
f 324 249 248
f 248 252 253
f 248 253 335
f 324 248 323
f 250 251 249
f 325 250 249
f 249 251 252
f 325 249 324
f 326 250 325
f 327 252 251
f 328 253 252
f 328 252 327
f 329 254 253
f 336 253 254
f 329 253 328
f 335 253 336
f 330 255 254
f 336 254 255
f 330 254 329
f 331 256 255
f 255 256 336
f 331 255 330
f 332 257 256
f 256 257 336
f 332 256 331
f 333 258 257
f 336 257 258
f 333 257 332
f 334 258 333
f 261 260 265
f 265 260 264
f 337 267 263
f 265 264 269
f 269 264 268
f 338 266 270
f 271 267 337
f 269 268 273
f 273 268 272
f 270 274 338
f 275 271 337
f 273 272 279
f 279 272 278
f 274 282 338
f 337 276 275
f 337 283 276
f 280 278 277
f 280 277 285
f 285 277 284
f 279 278 280
f 338 282 281
f 338 281 286
f 337 287 283
f 285 284 291
f 291 284 290
f 338 286 294
f 288 287 337
f 337 295 288
f 292 290 289
f 292 289 299
f 299 289 298
f 291 290 292
f 294 293 338
f 338 293 302
f 337 296 295
f 337 303 296
f 300 298 297
f 300 297 307
f 307 297 306
f 299 298 300
f 338 302 301
f 338 301 310
f 304 303 337
f 337 311 304
f 308 306 305
f 308 305 315
f 315 305 314
f 307 306 308
f 310 309 338
f 338 309 318
f 337 312 311
f 337 319 312
f 316 314 313
f 316 313 327
f 327 313 326
f 315 314 316
f 338 318 317
f 338 317 334
f 337 320 319
f 321 320 337
f 322 321 337
f 323 322 337
f 337 324 323
f 329 325 324
f 329 324 338
f 338 324 337
f 328 326 325
f 328 325 329
f 327 326 328
f 338 330 329
f 338 331 330
f 332 331 338
f 333 332 338
f 338 334 333
f 739 337 335
f 739 335 737
f 338 738 336
f 336 738 360
f 337 339 338
f 893 339 337
f 893 337 739
f 338 339 340
f 340 740 338
f 338 740 738
f 339 345 340
f 341 342 339
f 339 354 341
f 339 342 343
f 339 343 344
f 339 344 345
f 339 351 352
f 339 361 351
f 339 352 353
f 353 354 339
f 339 364 361
f 363 364 339
f 368 363 339
f 339 367 368
f 372 367 339
f 339 371 372
f 339 376 371
f 339 375 376
f 380 375 339
f 339 379 380
f 383 379 339
f 339 385 383
f 339 388 385
f 387 388 339
f 339 392 387
f 391 392 339
f 339 395 391
f 398 395 339
f 339 397 398
f 339 401 397
f 339 404 401
f 339 403 404
f 407 403 339
f 339 409 407
f 339 411 409
f 413 411 339
f 339 415 413
f 417 415 339
f 419 417 339
f 339 421 419
f 424 421 339
f 339 423 424
f 339 427 423
f 339 429 427
f 339 431 429
f 339 433 431
f 339 435 433
f 339 437 435
f 439 437 339
f 339 441 439
f 443 441 339
f 339 463 443
f 465 463 339
f 339 473 465
f 475 473 339
f 339 485 475
f 487 485 339
f 893 487 339
f 340 345 346
f 346 347 340
f 340 347 348
f 340 348 349
f 340 349 350
f 340 350 355
f 340 355 356
f 356 357 340
f 340 357 358
f 340 358 362
f 340 362 365
f 340 365 366
f 340 366 369
f 369 370 340
f 340 370 373
f 373 374 340
f 340 374 377
f 377 378 340
f 340 378 381
f 381 382 340
f 340 382 384
f 384 386 340
f 386 389 340
f 340 389 390
f 340 390 393
f 340 393 394
f 340 394 396
f 340 396 399
f 340 399 400
f 400 402 340
f 340 402 405
f 405 406 340
f 340 406 408
f 408 410 340
f 340 410 412
f 340 412 414
f 414 416 340
f 340 416 418
f 340 418 420
f 340 420 422
f 340 422 425
f 340 425 426
f 426 428 340
f 340 428 430
f 430 432 340
f 340 432 434
f 434 436 340
f 436 438 340
f 340 438 440
f 440 442 340
f 340 442 444
f 444 464 340
f 340 464 466
f 340 466 474
f 340 474 476
f 340 476 486
f 340 486 488
f 340 488 894
f 340 894 740
f 341 445 342
f 354 458 341
f 341 458 445
f 342 446 343
f 342 445 446
f 343 447 344
f 343 446 447
f 344 448 345
f 344 447 448
f 345 449 346
f 345 448 449
f 346 450 347
f 346 449 450
f 347 451 348
f 347 450 451
f 348 452 349
f 348 451 452
f 349 453 350
f 349 452 453
f 350 454 355
f 350 453 454
f 351 455 352
f 361 467 351
f 351 467 455
f 352 456 353
f 352 455 456
f 353 457 354
f 353 456 457
f 354 457 458
f 355 459 356
f 355 454 459
f 356 460 357
f 356 459 460
f 357 461 358
f 357 460 461
f 358 462 362
f 358 461 462
f 738 359 360
f 737 359 738
f 364 470 361
f 361 470 467
f 362 468 365
f 362 462 468
f 363 469 364
f 368 478 363
f 363 478 469
f 364 469 470
f 365 471 366
f 365 468 471
f 366 472 369
f 366 471 472
f 367 477 368
f 372 482 367
f 367 482 477
f 368 477 478
f 369 479 370
f 369 472 479
f 370 480 373
f 370 479 480
f 371 481 372
f 376 490 371
f 371 490 481
f 372 481 482
f 373 483 374
f 373 480 483
f 374 484 377
f 374 483 484
f 375 489 376
f 380 494 375
f 375 494 489
f 376 489 490
f 377 491 378
f 377 484 491
f 378 492 381
f 378 491 492
f 379 493 380
f 383 493 379
f 380 493 494
f 381 495 382
f 381 492 495
f 382 496 384
f 382 495 496
f 385 503 383
f 383 501 493
f 383 503 501
f 384 502 386
f 384 496 502
f 388 503 385
f 386 504 389
f 386 502 504
f 387 511 388
f 392 514 387
f 387 514 511
f 388 511 503
f 389 504 390
f 390 512 393
f 390 504 512
f 391 513 392
f 395 521 391
f 391 521 513
f 392 513 514
f 393 515 394
f 393 512 515
f 394 516 396
f 394 515 516
f 398 524 395
f 395 524 521
f 396 525 399
f 396 516 522
f 396 522 525
f 397 523 398
f 401 533 397
f 397 533 523
f 398 523 524
f 399 525 400
f 400 526 402
f 400 525 526
f 404 536 401
f 401 536 533
f 402 534 405
f 402 526 534
f 403 535 404
f 407 543 403
f 403 543 535
f 404 535 536
f 405 537 406
f 405 534 537
f 406 538 408
f 406 537 538
f 409 545 407
f 407 545 543
f 408 544 410
f 408 538 544
f 411 551 409
f 409 551 545
f 410 546 412
f 410 544 546
f 413 553 411
f 411 553 551
f 412 552 414
f 412 546 552
f 415 559 413
f 413 559 553
f 414 554 416
f 414 552 554
f 417 561 415
f 415 561 559
f 416 560 418
f 416 554 560
f 419 567 417
f 417 567 561
f 418 562 420
f 418 560 562
f 421 569 419
f 419 569 567
f 420 568 422
f 420 562 568
f 424 575 421
f 421 575 569
f 422 570 425
f 422 568 570
f 423 577 424
f 427 577 423
f 424 577 575
f 425 576 426
f 425 570 576
f 426 578 428
f 426 576 578
f 429 585 427
f 427 585 577
f 428 578 430
f 431 587 429
f 429 587 585
f 430 586 432
f 430 578 586
f 433 595 431
f 431 595 587
f 432 588 434
f 432 586 588
f 435 597 433
f 433 597 595
f 434 596 436
f 434 588 596
f 437 605 435
f 435 605 597
f 436 598 438
f 436 596 598
f 439 607 437
f 437 607 605
f 438 606 440
f 438 598 606
f 441 619 439
f 439 619 607
f 440 608 442
f 440 606 608
f 443 621 441
f 441 621 619
f 442 620 444
f 442 608 620
f 463 621 443
f 444 622 464
f 444 620 622
f 445 454 446
f 445 459 454
f 458 459 445
f 446 453 447
f 446 454 453
f 447 452 448
f 447 453 452
f 448 451 449
f 448 452 451
f 449 451 450
f 455 462 456
f 455 468 462
f 467 468 455
f 456 461 457
f 456 462 461
f 457 460 458
f 457 461 460
f 458 460 459
f 465 643 463
f 463 641 621
f 463 643 641
f 464 642 466
f 464 622 642
f 473 645 465
f 465 645 643
f 466 644 474
f 466 642 644
f 467 471 468
f 470 471 467
f 469 472 470
f 469 479 472
f 478 479 469
f 470 472 471
f 475 647 473
f 473 647 645
f 474 646 476
f 474 644 646
f 485 649 475
f 475 649 647
f 476 648 486
f 476 646 648
f 477 480 478
f 477 483 480
f 482 483 477
f 478 480 479
f 481 484 482
f 481 491 484
f 490 491 481
f 482 484 483
f 487 651 485
f 485 651 649
f 486 650 488
f 486 648 650
f 497 653 487
f 893 497 487
f 487 653 651
f 488 652 498
f 894 488 498
f 488 650 652
f 489 492 490
f 489 495 492
f 494 495 489
f 490 492 491
f 493 496 494
f 493 502 496
f 501 502 493
f 494 496 495
f 499 655 497
f 893 499 497
f 497 655 653
f 498 654 500
f 894 498 500
f 498 652 654
f 505 657 499
f 893 505 499
f 499 657 655
f 500 656 506
f 894 500 506
f 500 654 656
f 501 504 502
f 503 504 501
f 503 512 504
f 511 512 503
f 507 659 505
f 893 507 505
f 505 659 657
f 506 658 510
f 894 506 510
f 506 656 658
f 508 660 507
f 893 508 507
f 507 660 659
f 517 663 508
f 893 517 508
f 508 663 660
f 510 662 509
f 894 510 509
f 509 661 518
f 894 509 518
f 509 662 661
f 510 658 662
f 511 515 512
f 514 515 511
f 513 516 514
f 513 522 516
f 521 522 513
f 514 516 515
f 519 665 517
f 519 517 893
f 517 665 663
f 518 664 520
f 518 520 894
f 518 661 664
f 527 667 519
f 893 527 519
f 519 667 665
f 520 666 528
f 894 520 528
f 520 664 666
f 521 525 522
f 524 525 521
f 523 526 524
f 523 534 526
f 533 534 523
f 524 526 525
f 529 669 527
f 529 527 893
f 527 669 667
f 528 668 532
f 528 532 894
f 528 666 668
f 530 670 529
f 893 530 529
f 529 670 669
f 539 673 530
f 539 530 893
f 530 673 670
f 532 672 531
f 894 532 531
f 531 671 540
f 531 540 894
f 531 672 671
f 532 668 672
f 533 537 534
f 536 537 533
f 535 538 536
f 535 544 538
f 543 544 535
f 536 538 537
f 541 675 539
f 893 541 539
f 539 675 673
f 540 674 542
f 894 540 542
f 540 671 674
f 547 677 541
f 893 547 541
f 541 677 675
f 542 676 548
f 894 542 548
f 542 674 676
f 543 546 544
f 545 546 543
f 545 552 546
f 551 552 545
f 549 679 547
f 893 549 547
f 547 679 677
f 548 678 550
f 894 548 550
f 548 676 678
f 555 679 549
f 893 555 549
f 550 680 556
f 894 550 556
f 550 678 680
f 551 554 552
f 553 554 551
f 553 560 554
f 559 560 553
f 557 683 555
f 557 555 893
f 555 681 679
f 555 683 681
f 556 682 558
f 556 558 894
f 556 680 682
f 563 683 557
f 893 563 557
f 558 684 564
f 894 558 564
f 558 682 684
f 559 562 560
f 561 562 559
f 561 568 562
f 567 568 561
f 565 687 563
f 893 565 563
f 563 685 683
f 563 687 685
f 564 686 566
f 894 564 566
f 564 684 686
f 571 689 565
f 893 571 565
f 565 689 687
f 566 688 572
f 894 566 572
f 566 686 688
f 567 570 568
f 569 570 567
f 569 576 570
f 575 576 569
f 573 691 571
f 893 573 571
f 571 691 689
f 572 690 574
f 894 572 574
f 572 688 690
f 579 692 573
f 893 579 573
f 573 692 691
f 574 694 580
f 894 574 580
f 574 690 694
f 575 578 576
f 577 578 575
f 577 586 578
f 585 586 577
f 581 697 579
f 893 581 579
f 579 695 692
f 579 697 695
f 580 696 584
f 894 580 584
f 580 694 693
f 580 693 696
f 582 698 581
f 582 581 893
f 581 698 697
f 589 698 582
f 893 589 582
f 584 700 583
f 584 583 894
f 583 699 590
f 894 583 590
f 583 700 699
f 584 696 700
f 585 588 586
f 587 588 585
f 587 596 588
f 595 596 587
f 591 703 589
f 591 589 893
f 589 701 698
f 589 703 701
f 590 702 594
f 590 594 894
f 590 699 702
f 592 704 591
f 592 591 893
f 591 704 703
f 599 707 592
f 893 599 592
f 592 707 704
f 594 706 593
f 594 593 894
f 593 705 600
f 894 593 600
f 593 706 705
f 594 702 706
f 595 598 596
f 597 598 595
f 597 606 598
f 605 606 597
f 601 709 599
f 601 599 893
f 599 709 707
f 600 708 604
f 600 604 894
f 600 705 708
f 602 710 601
f 602 601 893
f 601 710 709
f 609 710 602
f 893 609 602
f 604 712 603
f 604 603 894
f 603 711 612
f 894 603 612
f 603 712 711
f 604 708 712
f 605 608 606
f 607 608 605
f 607 620 608
f 619 620 607
f 610 713 609
f 893 610 609
f 609 713 710
f 613 715 610
f 893 613 610
f 610 715 713
f 612 711 611
f 894 612 611
f 611 714 618
f 894 611 618
f 611 711 714
f 614 716 613
f 893 614 613
f 613 716 715
f 615 717 614
f 893 615 614
f 614 717 716
f 623 721 615
f 893 623 615
f 615 721 717
f 617 719 616
f 894 617 616
f 616 718 626
f 894 616 626
f 616 719 718
f 618 720 617
f 894 618 617
f 617 720 719
f 618 714 720
f 619 622 620
f 621 622 619
f 621 642 622
f 641 642 621
f 624 723 623
f 893 624 623
f 623 723 721
f 627 723 624
f 893 627 624
f 626 722 625
f 894 626 625
f 625 736 640
f 894 625 640
f 625 722 736
f 626 718 722
f 628 724 627
f 628 627 893
f 627 724 723
f 629 725 628
f 893 629 628
f 628 725 724
f 630 726 629
f 893 630 629
f 629 726 725
f 631 727 630
f 893 631 630
f 630 727 726
f 632 728 631
f 893 632 631
f 631 728 727
f 633 729 632
f 633 632 893
f 632 729 728
f 634 730 633
f 894 634 633
f 633 730 729
f 894 633 893
f 635 731 634
f 635 634 894
f 634 731 730
f 636 732 635
f 894 636 635
f 635 732 731
f 637 733 636
f 894 637 636
f 636 733 732
f 638 734 637
f 894 638 637
f 637 734 733
f 639 735 638
f 894 639 638
f 638 735 734
f 640 736 639
f 640 639 894
f 639 736 735
f 642 641 644
f 644 641 643
f 644 643 646
f 646 643 645
f 646 645 648
f 648 645 647
f 648 647 650
f 650 647 649
f 650 649 652
f 652 649 651
f 652 651 654
f 654 651 653
f 654 653 656
f 656 653 655
f 656 655 658
f 658 655 657
f 658 657 662
f 662 657 659
f 661 659 660
f 662 659 661
f 661 660 664
f 664 660 663
f 664 663 666
f 666 663 665
f 666 665 668
f 668 665 667
f 668 667 672
f 672 667 669
f 671 669 670
f 672 669 671
f 671 670 674
f 674 670 673
f 674 673 676
f 676 673 675
f 676 675 678
f 678 675 677
f 678 677 680
f 680 677 679
f 680 679 682
f 682 679 681
f 682 681 684
f 684 681 683
f 684 683 686
f 686 683 685
f 686 685 688
f 688 685 687
f 688 687 690
f 690 687 689
f 690 689 694
f 694 689 691
f 693 691 692
f 694 691 693
f 693 692 696
f 696 692 695
f 696 695 700
f 700 695 697
f 699 697 698
f 700 697 699
f 699 698 702
f 702 698 701
f 702 701 706
f 706 701 703
f 705 703 704
f 706 703 705
f 705 704 708
f 708 704 707
f 708 707 712
f 712 707 709
f 711 709 710
f 712 709 711
f 711 710 714
f 714 710 713
f 714 713 720
f 720 713 715
f 719 715 716
f 720 715 719
f 718 716 717
f 719 716 718
f 718 717 722
f 722 717 721
f 722 721 736
f 736 721 723
f 735 723 724
f 736 723 735
f 734 724 725
f 735 724 734
f 733 725 726
f 734 725 733
f 732 726 727
f 733 726 732
f 731 727 728
f 732 727 731
f 730 728 729
f 731 728 730
f 738 750 737
f 737 1065 739
f 742 741 737
f 737 741 748
f 749 742 737
f 737 746 745
f 745 762 737
f 747 746 737
f 748 747 737
f 737 750 749
f 737 762 761
f 761 769 737
f 769 774 737
f 737 774 773
f 737 773 782
f 782 781 737
f 737 781 789
f 737 789 793
f 737 793 797
f 737 797 801
f 801 805 737
f 737 805 1003
f 1003 1065 737
f 740 1004 738
f 738 744 743
f 743 756 738
f 738 757 744
f 755 750 738
f 738 756 755
f 758 757 738
f 759 758 738
f 738 760 759
f 767 760 738
f 738 768 767
f 772 768 738
f 779 772 738
f 738 780 779
f 738 787 780
f 788 787 738
f 738 792 788
f 738 796 792
f 738 800 796
f 738 804 800
f 808 804 738
f 1004 808 738
f 739 822 740
f 740 894 739
f 809 810 739
f 739 818 809
f 810 811 739
f 739 811 812
f 739 812 819
f 817 818 739
f 739 835 817
f 819 822 739
f 833 834 739
f 739 845 833
f 739 834 835
f 739 858 845
f 739 857 858
f 865 857 739
f 877 865 739
f 739 881 877
f 739 896 881
f 739 894 893
f 739 895 896
f 903 895 739
f 739 919 903
f 1065 919 739
f 740 813 814
f 740 822 813
f 740 814 815
f 815 816 740
f 740 816 823
f 823 824 740
f 740 824 842
f 740 842 843
f 843 844 740
f 740 844 848
f 740 848 863
f 740 863 864
f 864 868 740
f 868 880 740
f 740 880 884
f 740 884 901
f 740 901 902
f 902 906 740
f 740 906 922
f 740 922 1066
f 1066 1004 740
f 811 741 742
f 810 748 741
f 810 741 811
f 811 742 749
f 815 743 744
f 814 756 743
f 814 743 815
f 815 744 757
f 817 745 746
f 835 762 745
f 835 745 817
f 818 746 747
f 817 746 818
f 810 747 748
f 809 747 810
f 818 747 809
f 812 749 750
f 811 749 812
f 755 751 750
f 820 750 751
f 812 750 819
f 819 750 820
f 754 752 751
f 836 751 752
f 754 751 755
f 820 751 836
f 753 752 754
f 753 763 752
f 836 752 763
f 821 753 754
f 766 763 753
f 841 766 753
f 841 753 821
f 822 754 755
f 821 754 822
f 814 755 756
f 813 755 814
f 822 755 813
f 816 757 758
f 815 757 816
f 824 758 759
f 816 758 823
f 823 758 824
f 842 759 760
f 824 759 842
f 842 760 767
f 835 761 762
f 834 769 761
f 834 761 835
f 766 764 763
f 837 763 764
f 836 763 837
f 765 764 766
f 765 770 764
f 838 764 770
f 837 764 838
f 841 765 766
f 771 770 765
f 840 771 765
f 840 765 841
f 843 767 768
f 842 767 843
f 844 768 772
f 843 768 844
f 858 774 769
f 833 769 834
f 845 769 833
f 858 769 845
f 771 775 770
f 859 770 775
f 838 770 846
f 846 770 859
f 778 775 771
f 862 778 771
f 839 771 840
f 847 771 839
f 862 771 847
f 863 772 779
f 844 772 848
f 848 772 863
f 858 773 774
f 857 782 773
f 857 773 858
f 778 776 775
f 860 775 776
f 859 775 860
f 777 776 778
f 777 783 776
f 860 776 783
f 862 777 778
f 786 783 777
f 861 786 777
f 861 777 862
f 864 779 780
f 863 779 864
f 864 780 787
f 865 781 782
f 877 789 781
f 877 781 865
f 865 782 857
f 786 784 783
f 878 783 784
f 860 783 866
f 866 783 878
f 785 784 786
f 785 790 784
f 878 784 790
f 867 785 786
f 791 790 785
f 879 791 785
f 879 785 867
f 867 786 861
f 880 787 788
f 864 787 868
f 868 787 880
f 880 788 792
f 877 793 789
f 791 794 790
f 878 790 794
f 795 794 791
f 879 795 791
f 880 792 796
f 896 797 793
f 881 793 877
f 896 793 881
f 795 798 794
f 898 794 798
f 878 794 882
f 882 794 897
f 897 794 898
f 799 798 795
f 900 799 795
f 883 795 879
f 900 795 883
f 902 796 800
f 880 796 884
f 884 796 901
f 901 796 902
f 895 801 797
f 895 797 896
f 799 802 798
f 898 798 802
f 803 802 799
f 899 803 799
f 899 799 900
f 902 800 804
f 919 805 801
f 903 801 895
f 919 801 903
f 803 806 802
f 920 802 806
f 898 802 904
f 904 802 920
f 807 806 803
f 921 807 803
f 905 803 899
f 921 803 905
f 922 804 808
f 902 804 906
f 906 804 922
f 919 825 805
f 805 825 1003
f 807 826 806
f 920 806 826
f 827 826 807
f 921 827 807
f 922 808 828
f 1004 828 808
f 820 821 819
f 819 821 822
f 820 841 821
f 836 841 820
f 923 829 825
f 1003 825 829
f 923 825 919
f 827 830 826
f 940 826 830
f 920 826 924
f 924 826 940
f 831 830 827
f 925 831 827
f 925 827 921
f 942 828 832
f 832 828 1004
f 922 828 926
f 926 828 942
f 939 849 829
f 829 849 1003
f 939 829 923
f 831 850 830
f 940 830 850
f 851 850 831
f 941 851 831
f 941 831 925
f 942 832 852
f 1004 852 832
f 837 840 836
f 836 840 841
f 838 839 837
f 837 839 840
f 838 847 839
f 846 847 838
f 846 862 847
f 859 862 846
f 943 853 849
f 1003 849 853
f 943 849 939
f 850 851 854
f 964 850 854
f 940 850 944
f 944 850 964
f 854 851 855
f 945 855 851
f 945 851 941
f 966 852 856
f 856 852 1004
f 942 852 946
f 946 852 966
f 963 869 853
f 1003 853 869
f 963 853 943
f 854 855 870
f 968 854 870
f 964 854 968
f 870 855 871
f 965 871 855
f 965 855 945
f 970 856 872
f 1004 872 856
f 966 856 970
f 860 861 859
f 859 861 862
f 860 867 861
f 866 867 860
f 866 879 867
f 878 879 866
f 967 873 869
f 1003 869 873
f 967 869 963
f 870 871 874
f 996 870 874
f 968 870 996
f 874 871 875
f 969 875 871
f 969 871 965
f 998 872 876
f 1004 876 872
f 970 872 998
f 995 885 873
f 1003 873 885
f 995 873 967
f 874 875 886
f 1000 874 886
f 996 874 1000
f 886 875 887
f 997 887 875
f 997 875 969
f 1002 876 888
f 1004 888 876
f 998 876 1002
f 878 883 879
f 882 883 878
f 882 900 883
f 897 900 882
f 1003 885 889
f 1005 889 885
f 999 885 995
f 1005 885 999
f 886 887 890
f 1006 886 890
f 1000 886 1006
f 890 887 891
f 1007 891 887
f 1001 887 997
f 1007 887 1001
f 1004 892 888
f 1008 888 892
f 1002 888 1008
f 1003 889 907
f 1005 907 889
f 890 891 910
f 1006 890 910
f 910 891 911
f 1007 911 891
f 1004 914 892
f 1008 892 914
f 898 899 897
f 897 899 900
f 898 905 899
f 904 905 898
f 904 921 905
f 920 921 904
f 1003 907 908
f 1009 908 907
f 1009 907 1005
f 908 915 1003
f 1017 915 908
f 1010 908 1009
f 1017 908 1010
f 910 911 909
f 1011 910 909
f 909 911 912
f 909 912 916
f 1018 909 916
f 1011 909 1018
f 1006 910 1012
f 1012 910 1011
f 1013 912 911
f 1013 911 1007
f 916 912 917
f 1019 917 912
f 1014 912 1013
f 1019 912 1014
f 1004 913 914
f 1015 914 913
f 918 913 1004
f 1020 913 918
f 1015 913 1020
f 1008 914 1016
f 1016 914 1015
f 915 927 1003
f 1017 927 915
f 916 917 930
f 1018 916 930
f 930 917 931
f 1019 931 917
f 934 918 1004
f 1020 918 934
f 1065 923 919
f 920 925 921
f 924 925 920
f 1066 922 926
f 1065 939 923
f 924 941 925
f 940 941 924
f 1066 926 942
f 927 928 1003
f 1021 928 927
f 1021 927 1017
f 1003 928 935
f 1029 935 928
f 1022 928 1021
f 1029 928 1022
f 930 931 929
f 1023 930 929
f 929 931 932
f 929 932 936
f 1030 929 936
f 1023 929 1030
f 1018 930 1024
f 1024 930 1023
f 1025 932 931
f 1025 931 1019
f 936 932 937
f 1031 937 932
f 1026 932 1025
f 1031 932 1026
f 933 934 1004
f 1027 934 933
f 1004 938 933
f 1032 933 938
f 1027 933 1032
f 1020 934 1028
f 1028 934 1027
f 935 947 1003
f 1029 947 935
f 936 937 950
f 1030 936 950
f 950 937 951
f 1031 951 937
f 954 938 1004
f 1032 938 954
f 1065 943 939
f 940 945 941
f 944 945 940
f 1066 942 946
f 1065 963 943
f 944 965 945
f 964 965 944
f 1066 946 966
f 1003 947 948
f 1029 948 947
f 948 955 1003
f 1037 955 948
f 1033 948 1029
f 1037 948 1033
f 950 951 949
f 1034 950 949
f 949 951 952
f 949 952 958
f 1042 949 958
f 1034 949 1042
f 1030 950 1034
f 1031 952 951
f 958 952 959
f 1043 959 952
f 1035 952 1031
f 1043 952 1035
f 1004 953 954
f 1036 954 953
f 962 953 1004
f 1048 953 962
f 1036 953 1048
f 1032 954 1036
f 955 956 1003
f 1037 956 955
f 956 971 1003
f 1038 971 956
f 1038 956 1037
f 958 959 957
f 1041 958 957
f 957 959 960
f 957 960 976
f 1041 957 976
f 1042 958 1041
f 1043 960 959
f 976 960 977
f 1044 977 960
f 1044 960 1043
f 961 962 1004
f 1047 962 961
f 982 961 1004
f 1047 961 982
f 1048 962 1047
f 1065 967 963
f 965 964 969
f 969 964 968
f 1066 966 970
f 1065 995 967
f 969 968 997
f 997 968 996
f 1066 970 998
f 1003 971 972
f 1038 972 971
f 1003 972 973
f 1049 973 972
f 1039 972 1038
f 1049 972 1039
f 1003 973 983
f 1053 983 973
f 1053 973 1049
f 975 978 974
f 1058 975 974
f 974 978 979
f 974 979 988
f 1058 974 988
f 976 977 975
f 1040 976 975
f 975 977 978
f 1040 975 1050
f 1050 975 1058
f 1041 976 1040
f 1044 978 977
f 1051 979 978
f 1045 978 1044
f 1051 978 1045
f 988 979 989
f 1059 989 979
f 1059 979 1051
f 1004 980 981
f 1064 981 980
f 1004 994 980
f 1064 980 994
f 1004 981 982
f 1046 982 981
f 1046 981 1052
f 1052 981 1064
f 1047 982 1046
f 983 984 1003
f 1053 984 983
f 984 985 1003
f 1054 985 984
f 1054 984 1053
f 985 986 1003
f 1055 986 985
f 1055 985 1054
f 987 990 986
f 1056 987 986
f 986 990 991
f 986 991 1003
f 1056 986 1055
f 988 989 987
f 1057 988 987
f 987 989 990
f 1057 987 1056
f 1058 988 1057
f 1059 990 989
f 1060 991 990
f 1060 990 1059
f 1004 991 992
f 1061 992 991
f 1003 991 1004
f 1061 991 1060
f 992 993 1004
f 1062 993 992
f 1062 992 1061
f 993 994 1004
f 1063 994 993
f 1063 993 1062
f 1064 994 1063
f 1065 999 995
f 997 996 1001
f 1001 996 1000
f 1066 998 1002
f 1065 1005 999
f 1001 1000 1007
f 1007 1000 1006
f 1066 1002 1008
f 1066 1003 1004
f 1065 1003 1066
f 1065 1009 1005
f 1007 1006 1013
f 1013 1006 1012
f 1066 1008 1016
f 1065 1010 1009
f 1065 1017 1010
f 1014 1012 1011
f 1014 1011 1019
f 1019 1011 1018
f 1013 1012 1014
f 1066 1016 1015
f 1066 1015 1020
f 1065 1021 1017
f 1019 1018 1025
f 1025 1018 1024
f 1066 1020 1028
f 1022 1021 1065
f 1065 1029 1022
f 1026 1024 1023
f 1026 1023 1031
f 1031 1023 1030
f 1025 1024 1026
f 1028 1027 1066
f 1066 1027 1032
f 1065 1033 1029
f 1031 1030 1035
f 1035 1030 1034
f 1066 1032 1036
f 1065 1037 1033
f 1035 1034 1043
f 1043 1034 1042
f 1066 1036 1048
f 1038 1037 1065
f 1065 1039 1038
f 1065 1049 1039
f 1045 1041 1040
f 1045 1040 1051
f 1051 1040 1050
f 1044 1042 1041
f 1044 1041 1045
f 1043 1042 1044
f 1066 1047 1046
f 1066 1046 1052
f 1048 1047 1066
f 1065 1053 1049
f 1051 1050 1059
f 1059 1050 1058
f 1066 1052 1064
f 1054 1053 1065
f 1055 1054 1065
f 1056 1055 1065
f 1061 1057 1056
f 1061 1056 1066
f 1066 1056 1065
f 1060 1058 1057
f 1060 1057 1061
f 1059 1058 1060
f 1066 1062 1061
f 1063 1062 1066
f 1064 1063 1066
