# CAD visual only; metres; body-local coordinates
v 0.0576999138 -0.0584070167 0.0075
v 0.0576999138 -0.0584070167 0.00949999809
v 0.0609320782 -0.0575184021 0.0075
v 0.0609984539 -0.0576607284 0.00949999809
v 0.0608403728 -0.0572594414 0.0075
v 0.0609170483 -0.0574821148 0.00949999809
v 0.0607873962 -0.0570299587 0.0075
v 0.0608298824 -0.0572215996 0.00949999809
v 0.0607562969 -0.0567570076 0.0075
v 0.0607809112 -0.05699123 0.00949999809
v 0.0607562969 -0.0565214977 0.0075
v 0.0607545803 -0.0567177734 0.00949999809
v 0.0607809112 -0.0562872753 0.0075
v 0.0607586906 -0.0564823017 0.00949999809
v 0.0608403728 -0.0560190735 0.0075
v 0.0607873962 -0.0562485466 0.00949999809
v 0.0609320782 -0.0557601128 0.0075
v 0.0608515308 -0.0559814129 0.00949999809
v 0.0609984539 -0.0556177769 0.0075
v 0.0609477375 -0.0557240925 0.00949999809
v 0.0612301872 -0.0580244884 0.0075
v 0.0612301872 -0.0580244884 0.00949999809
v 0.0610546539 -0.0577642498 0.0075
v 0.0612062881 -0.0579933414 0.00949999809
v 0.0610165832 -0.0576955662 0.0075
v 0.0610353229 -0.0577300701 0.00949999809
v 0.0610546539 -0.0555142555 0.0075
v 0.0610165832 -0.0555829391 0.00949999809
v 0.0612301872 -0.0552540169 0.0075
v 0.0610745857 -0.0554804191 0.00949999809
v 0.061440234 -0.0582577667 0.0075
v 0.0614976738 -0.0583113251 0.00949999809
v 0.0612546394 -0.0580552254 0.0075
v 0.0614122246 -0.0582302437 0.00949999809
v 0.061440234 -0.0550207386 0.0075
v 0.0612546394 -0.0552232799 0.00949999809
v 0.0614976738 -0.0549671802 0.0075
v 0.0614687202 -0.0549937115 0.00949999809
v 0.0617450283 -0.0585045872 0.0075
v 0.0617450283 -0.0585045872 0.00949999809
v 0.0615270851 -0.0583373508 0.0075
v 0.0617126701 -0.0584823475 0.00949999809
v 0.0617450283 -0.0547739181 0.0075
v 0.0615270851 -0.0549411545 0.00949999809
v 0.0617777775 -0.0585262642 0.0075
v 0.0619817398 -0.0586440143 0.00949999809
v 0.0617777775 -0.0547522411 0.0075
v 0.0617777775 -0.0547522411 0.00949999809
v 0.0619817398 -0.054634491 0.0075
v 0.0618108986 -0.0547311458 0.00949999809
v 0.0622336719 -0.0587535629 0.0075
v 0.0622336719 -0.0587535629 0.00949999809
v 0.0620168827 -0.0586615429 0.0075
v 0.0621968887 -0.0587398109 0.00949999809
v 0.0622336719 -0.0545249424 0.0075
v 0.0620168827 -0.0546169624 0.00949999809
v 0.062270684 -0.0587666664 0.0075
v 0.0624970768 -0.058831583 0.00949999809
v 0.062270684 -0.0545118389 0.0075
v 0.062270684 -0.0545118389 0.00949999809
v 0.0624970768 -0.0544469223 0.0075
v 0.062307925 -0.0544993744 0.00949999809
v 0.0625354145 -0.0588400898 0.0075
v 0.0627290104 -0.0588724861 0.00949999809
v 0.0627290104 -0.0544060287 0.0075
v 0.0625354145 -0.0544384251 0.00949999809
v 0.0627680252 -0.0588769302 0.0075
v 0.0629639481 -0.0588889084 0.00949999809
v 0.0629639481 -0.0543895969 0.0075
v 0.0627680252 -0.0544015751 0.00949999809
v 0.0630032108 -0.0637103233 -0.0225999999
v 0.0630032108 -0.0637103233 0.0075
v 0.0630032108 -0.0637103233 0.00949999809
v 0.0630032108 -0.0637103233 0.013499999
v 0.0630032108 -0.0588892517 0.0075
v 0.063238406 -0.0588769302 0.00949999809
v 0.063238406 -0.0544015751 0.0075
v 0.0630032108 -0.0543892536 0.00949999809
v 0.0632774208 -0.0588724861 0.0075
v 0.0634710167 -0.0588400898 0.00949999809
v 0.0634710167 -0.0544384251 0.0075
v 0.0632774208 -0.0544060287 0.00949999809
v 0.0635093544 -0.058831583 0.0075
v 0.0637357471 -0.0587666664 0.00949999809
v 0.0637357471 -0.0545118389 0.0075
v 0.0637357471 -0.0545118389 0.00949999809
v 0.0636985062 -0.0544993744 0.0075
v 0.0635093544 -0.0544469223 0.00949999809
v 0.0637727592 -0.0587535629 0.0075
v 0.0637727592 -0.0587535629 0.00949999809
v 0.0638095425 -0.0587398109 0.0075
v 0.0639895485 -0.0586615429 0.00949999809
v 0.0639895485 -0.0546169624 0.0075
v 0.0637727592 -0.0545249424 0.00949999809
v 0.0640246914 -0.0586440143 0.0075
v 0.0642286537 -0.0585262642 0.00949999809
v 0.0642286537 -0.0547522411 0.0075
v 0.0642286537 -0.0547522411 0.00949999809
v 0.0641955326 -0.0547311458 0.0075
v 0.0640246914 -0.054634491 0.00949999809
v 0.0642614029 -0.0585045872 0.0075
v 0.0642614029 -0.0585045872 0.00949999809
v 0.0642937611 -0.0584823475 0.0075
v 0.0644793461 -0.0583373508 0.00949999809
v 0.0644793461 -0.0549411545 0.0075
v 0.0642614029 -0.0547739181 0.00949999809
v 0.0645087574 -0.0583113251 0.0075
v 0.0645661972 -0.0582577667 0.00949999809
v 0.0645942066 -0.0582302437 0.0075
v 0.064726815 -0.0580855236 0.00949999809
v 0.0645942066 -0.0550482616 0.0075
v 0.0645942066 -0.0550482616 0.00949999809
v 0.0645377109 -0.0549937115 0.0075
v 0.0645087574 -0.0549671802 0.00949999809
v 0.0647517918 -0.0580552254 0.0075
v 0.0647762344 -0.0580244884 0.00949999809
v 0.064800143 -0.0579933414 0.0075
v 0.0649517677 -0.0577642498 0.00949999809
v 0.0649711082 -0.0577300701 0.0075
v 0.0649898479 -0.0576955662 0.00949999809
v 0.0649898479 -0.0555829391 0.0075
v 0.0649517677 -0.0555142555 0.00949999809
v 0.0649318359 -0.0554804191 0.0075
v 0.0647762344 -0.0552540169 0.00949999809
v 0.0647517918 -0.0552232799 0.0075
v 0.0647517918 -0.0552232799 0.00949999809
v 0.0650079773 -0.0576607284 0.0075
v 0.065074353 -0.0575184021 0.00949999809
v 0.0650893734 -0.0574821148 0.0075
v 0.0651660488 -0.0572594414 0.00949999809
v 0.0651765488 -0.0572215996 0.0075
v 0.065219035 -0.0570299587 0.00949999809
v 0.0652255104 -0.05699123 0.0075
v 0.065247731 -0.0567962036 0.00949999809
v 0.065247731 -0.0564823017 0.0075
v 0.0652255104 -0.0562872753 0.00949999809
v 0.065219035 -0.0562485466 0.0075
v 0.0651660488 -0.0560190735 0.00949999809
v 0.0651549004 -0.0559814129 0.0075
v 0.065074353 -0.0557601128 0.00949999809
v 0.0650586937 -0.0557240925 0.0075
v 0.0650079773 -0.0556177769 0.00949999809
v 0.0652501343 -0.0567570076 0.0075
v 0.0652501343 -0.0567570076 0.00949999809
v 0.0652518413 -0.0567177734 0.0075
v 0.0652501343 -0.0565214977 0.00949999809
v 0.0679344032 -0.0502634773 0.0075
v 0.0679344032 -0.0502634773 0.00949999809
v 0.0678734539 -0.0500359878 0.0075
v 0.0678734539 -0.0500359878 0.00949999809
v 0.0678328464 -0.049764286 0.0075
v 0.0678328464 -0.049764286 0.00949999809
v 0.0678246258 -0.0495289192 0.0075
v 0.0678246258 -0.0495289192 0.00949999809
v 0.0678461788 -0.049255043 0.0075
v 0.0678461788 -0.049255043 0.00949999809
v 0.0678911159 -0.0490238628 0.0075
v 0.0678911159 -0.0490238628 0.00949999809
v 0.0679737232 -0.0487618599 0.0075
v 0.0679737232 -0.0487618599 0.00949999809
v 0.0679881142 -0.0487253246 0.0075
v 0.0679881142 -0.0487253246 0.00949999809
v 0.0681661747 -0.0507605038 0.0075
v 0.0681661747 -0.0507605038 0.00949999809
v 0.0680350922 -0.0505190811 0.0075
v 0.0680350922 -0.0505190811 0.00949999809
v 0.0680031441 -0.0504473266 0.0075
v 0.0680031441 -0.0504473266 0.00949999809
v 0.0680876491 -0.0485118732 0.0075
v 0.0680876491 -0.0485118732 0.00949999809
v 0.0682311867 -0.0482776413 0.0075
v 0.0682311867 -0.0482776413 0.00949999809
v 0.0683506821 -0.0510144577 0.0075
v 0.0683506821 -0.0510144577 0.00949999809
v 0.068253989 -0.0508906994 0.0075
v 0.068253989 -0.0508906994 0.00949999809
v 0.0684557674 -0.0480052051 0.0075
v 0.0684557674 -0.0480052051 0.00949999809
v 0.0684832905 -0.0479771957 0.0075
v 0.0684832905 -0.0479771957 0.00949999809
v 0.068598151 -0.0512662849 0.0075
v 0.068598151 -0.0512662849 0.00949999809
v 0.0685112999 -0.0511867008 0.0075
v 0.0685112999 -0.0511867008 0.00949999809
v 0.0687202022 -0.0477712593 0.0075
v 0.0687202022 -0.0477712593 0.00949999809
v 0.0689492844 -0.0515167389 0.0075
v 0.0689492844 -0.0515167389 0.00949999809
v 0.0687517689 -0.0513884697 0.0075
v 0.0687517689 -0.0513884697 0.00949999809
v 0.068983464 -0.0476002941 0.0075
v 0.068983464 -0.0476002941 0.00949999809
v 0.069017968 -0.0515548191 0.0075
v 0.069017968 -0.0515548191 0.00949999809
v 0.0691591213 -0.0475127087 0.0075
v 0.0691591213 -0.0475127087 0.00949999809
v 0.0692314194 -0.0474820194 0.0075
v 0.0692314194 -0.0474820194 0.00949999809
v 0.0692679546 -0.051668745 0.0075
v 0.0692679546 -0.051668745 0.00949999809
v 0.0694919346 -0.0473948536 0.0075
v 0.0694919346 -0.0473948536 0.00949999809
v 0.0695299576 -0.0517513523 0.0075
v 0.0695299576 -0.0517513523 0.00949999809
v 0.0697223041 -0.0473458824 0.0075
v 0.0697223041 -0.0473458824 0.00949999809
v 0.0697611473 -0.0517962894 0.0075
v 0.0697611473 -0.0517962894 0.00949999809
v 0.0699957607 -0.0473195515 0.0075
v 0.0699957607 -0.0473195515 0.00949999809
v 0.070035014 -0.0518178425 0.0075
v 0.070035014 -0.0518178425 0.00949999809
v 0.0702312324 -0.0473236618 0.0075
v 0.0702312324 -0.0473236618 0.00949999809
v 0.0702703808 -0.0518096218 0.0075
v 0.0702703808 -0.0518096218 0.00949999809
v 0.0704649876 -0.0473523674 0.0075
v 0.0704649876 -0.0473523674 0.00949999809
v 0.0705036018 -0.051776844 0.0075
v 0.0705036018 -0.051776844 0.00949999809
v 0.0706566284 -0.0517415199 0.0075
v 0.0706566284 -0.0517415199 0.00949999809
v 0.0707321213 -0.047416502 0.0075
v 0.0707321213 -0.047416502 0.00949999809
v 0.0707695721 -0.051708065 0.0075
v 0.0707695721 -0.051708065 0.00949999809
v 0.0709894417 -0.0475127087 0.0075
v 0.0709894417 -0.0475127087 0.00949999809
v 0.0709534309 -0.0474970493 0.0075
v 0.0709534309 -0.0474970493 0.00949999809
v 0.0710251759 -0.0516073761 0.0075
v 0.0710251759 -0.0516073761 0.00949999809
v 0.071233115 -0.0514968071 0.0075
v 0.071233115 -0.0514968071 0.00949999809
v 0.071233115 -0.0476395569 0.0075
v 0.071233115 -0.0476395569 0.00949999809
v 0.0714865826 -0.0648282013 0.013499999
v 0.0714865826 -0.0648282013 0.0194999981
v 0.0714729164 -0.0647243843 0.013499999
v 0.07145102 -0.0645161018 0.0194999981
v 0.0714428089 -0.0644117031 0.013499999
v 0.0714364193 -0.0643071804 0.0194999981
v 0.0714318512 -0.0642025623 0.013499999
v 0.0714291046 -0.0640978775 0.0194999981
v 0.0714281891 -0.0639931641 0.013499999
v 0.0714318512 -0.0637837658 0.0194999981
v 0.0714364193 -0.0636791477 0.013499999
v 0.0714428089 -0.063574625 0.0194999981
v 0.07145102 -0.0634702263 0.013499999
v 0.0714729164 -0.0632619438 0.0194999981
v 0.0714865826 -0.0631581268 0.013499999
v 0.0714865826 -0.0631581268 0.0194999981
v 0.0712665985 -0.0514762936 0.0075
v 0.0712665985 -0.0514762936 0.00949999809
v 0.0714902542 -0.0478196106 0.0075
v 0.0714902542 -0.0478196106 0.00949999809
v 0.0713967941 -0.0477478943 0.0075
v 0.0713967941 -0.0477478943 0.00949999809
v 0.071721854 -0.065847269 0.013499999
v 0.071721854 -0.065847269 0.0194999981
v 0.0716903637 -0.0657473907 0.013499999
v 0.0716326378 -0.0655460796 0.0194999981
v 0.0716064213 -0.0654446945 0.013499999
v 0.0715819691 -0.0653428707 0.0194999981
v 0.0715593098 -0.0652406368 0.013499999
v 0.0715193413 -0.0650350532 0.0194999981
v 0.0715020607 -0.0649317703 0.013499999
v 0.0715020607 -0.0649317703 0.0194999981
v 0.0715020607 -0.0630545578 0.013499999
v 0.0715020607 -0.0630545578 0.0194999981
v 0.0715193413 -0.0629512749 0.013499999
v 0.0715384338 -0.0628483066 0.0194999981
v 0.0715593098 -0.0627456913 0.013499999
v 0.0716064213 -0.0625416336 0.0194999981
v 0.0716326378 -0.0624402485 0.013499999
v 0.0716606186 -0.0623393402 0.0194999981
v 0.0716903637 -0.0622389374 0.013499999
v 0.071721854 -0.0621390591 0.0194999981
v 0.0715205524 -0.0512917862 0.0075
v 0.0715205524 -0.0512917862 0.00949999809
v 0.0715798233 -0.0512402592 0.0075
v 0.0715798233 -0.0512402592 0.00949999809
v 0.0717463539 -0.0480626449 0.0075
v 0.0717463539 -0.0480626449 0.00949999809
v 0.0716652725 -0.0479771957 0.0075
v 0.0716652725 -0.0479771957 0.00949999809
v 0.0719903419 -0.0665288696 0.013499999
v 0.0719903419 -0.0665288696 0.0194999981
v 0.0719469212 -0.066433588 0.013499999
v 0.0719051598 -0.066337553 0.0194999981
v 0.0718650864 -0.0662408028 0.013499999
v 0.0717900322 -0.0660452804 0.0194999981
v 0.07175508 -0.0659465752 0.013499999
v 0.07175508 -0.0659465752 0.0194999981
v 0.07175508 -0.0620397529 0.013499999
v 0.07175508 -0.0620397529 0.0194999981
v 0.0717900322 -0.0619410381 0.013499999
v 0.0718267105 -0.0618429527 0.0194999981
v 0.0718650864 -0.0617455253 0.013499999
v 0.0719469212 -0.0615527401 0.0194999981
v 0.0719903419 -0.0614574585 0.013499999
v 0.0719903419 -0.0614574585 0.0194999981
v 0.0717723797 -0.0510443172 0.0075
v 0.0717723797 -0.0510443172 0.00949999809
v 0.0718228577 -0.0509841595 0.0075
v 0.0718228577 -0.0509841595 0.00949999809
v 0.0719823883 -0.0483758697 0.0075
v 0.0719823883 -0.0483758697 0.00949999809
v 0.071894574 -0.0482456646 0.0075
v 0.071894574 -0.0482456646 0.00949999809
v 0.0718420456 -0.0442648849 0.0075
v 0.0718420456 -0.0442648849 0.00949999809
v 0.0722320412 -0.066993166 0.013499999
v 0.0721305035 -0.0668099937 0.0194999981
v 0.0720821522 -0.0667171059 0.013499999
v 0.0720354317 -0.0666233883 0.0194999981
v 0.0720354317 -0.0613629398 0.013499999
v 0.0720821522 -0.0612692222 0.0194999981
v 0.0721305035 -0.0611763344 0.013499999
v 0.072180476 -0.0610843048 0.0194999981
v 0.0722320412 -0.0609931621 0.013499999
v 0.0722320412 -0.0609931621 0.0194999981
v 0.0720029114 -0.0507270203 0.0075
v 0.0720029114 -0.0507270203 0.00949999809
v 0.0721297596 -0.0504833469 0.0075
v 0.0721297596 -0.0504833469 0.00949999809
v 0.0722259663 -0.050226017 0.0075
v 0.0722259663 -0.050226017 0.00949999809
v 0.0722476147 -0.0489858398 0.0075
v 0.0722476147 -0.0489858398 0.00949999809
v 0.0721604488 -0.0487253246 0.0075
v 0.0721604488 -0.0487253246 0.00949999809
v 0.0720421741 -0.0484773598 0.0075
v 0.0720421741 -0.0484773598 0.00949999809
v 0.0724539707 -0.0673483238 0.013499999
v 0.0723961685 -0.0672609959 0.0194999981
v 0.0723399017 -0.0671726761 0.013499999
v 0.0722851894 -0.0670833931 0.0194999981
v 0.0722851894 -0.060902935 0.013499999
v 0.0723399017 -0.060813652 0.0194999981
v 0.0723961685 -0.0607253322 0.013499999
v 0.0724539707 -0.0606380043 0.0194999981
v 0.072257447 -0.0501125107 0.0075
v 0.072257447 -0.0501125107 0.00949999809
v 0.0722829388 -0.0499975071 0.0075
v 0.0722829388 -0.0499975071 0.00949999809
v 0.0723187969 -0.0497251377 0.0075
v 0.0723187969 -0.0497251377 0.00949999809
v 0.0723229073 -0.049489666 0.0075
v 0.0723229073 -0.049489666 0.00949999809
v 0.0722965763 -0.0492162094 0.0075
v 0.0722965763 -0.0492162094 0.00949999809
v 0.0727001236 -0.0676871357 0.013499999
v 0.072574086 -0.0675198707 0.0194999981
v 0.0725132797 -0.0674346218 0.013499999
v 0.0725132797 -0.0674346218 0.0194999981
v 0.0725132797 -0.0605517063 0.013499999
v 0.0725132797 -0.0605517063 0.0194999981
v 0.072574086 -0.0604664478 0.013499999
v 0.0727001236 -0.0602991924 0.0194999981
v 0.0729693268 -0.0680079517 0.013499999
v 0.0729693268 -0.0680079517 0.0194999981
v 0.0728999374 -0.0679295216 0.013499999
v 0.0727653168 -0.0677690849 0.0194999981
v 0.0727653168 -0.0602172432 0.013499999
v 0.0728999374 -0.0600568066 0.0194999981
v 0.0729693268 -0.0599783764 0.013499999
v 0.0729693268 -0.0599783764 0.0194999981
v 0.0731855534 -0.0682358036 0.013499999
v 0.0731855534 -0.0682358036 0.0194999981
v 0.0730400703 -0.0599011764 0.013499999
v 0.0731855534 -0.0597505245 0.0194999981
v 0.0734918354 -0.0685214195 0.013499999
v 0.0734918354 -0.0685214195 0.0194999981
v 0.0734134052 -0.0684520302 0.013499999
v 0.0732602451 -0.0683091984 0.0194999981
v 0.0732602451 -0.0596771202 0.013499999
v 0.0734134052 -0.0595342979 0.0194999981
v 0.0734918354 -0.0594649086 0.013499999
v 0.0734918354 -0.0594649086 0.0194999981
v 0.0737342213 -0.0687212238 0.013499999
v 0.0735714672 -0.068589426 0.0194999981
v 0.0735714672 -0.0593968925 0.013499999
v 0.0737342213 -0.0592650947 0.0194999981
v 0.0739867351 -0.0689080772 0.013499999
v 0.0738173054 -0.0687849769 0.0194999981
v 0.0738173054 -0.0592013512 0.013499999
v 0.0739867351 -0.0590782509 0.0194999981
v 0.0742486809 -0.0690814552 0.013499999
v 0.0741603611 -0.0690251884 0.0194999981
v 0.0740730331 -0.0689673862 0.013499999
v 0.0740730331 -0.0689673862 0.0194999981
v 0.0740730331 -0.0590189419 0.013499999
v 0.0740730331 -0.0590189419 0.0194999981
v 0.0741603611 -0.0589611397 0.013499999
v 0.0742486809 -0.0589048729 0.0194999981
v 0.074428191 -0.0691893158 0.013499999
v 0.0743379639 -0.0691361675 0.0194999981
v 0.0743379639 -0.0588501606 0.013499999
v 0.074428191 -0.0587970123 0.0194999981
v 0.0747042511 -0.0693392048 0.013499999
v 0.0746113632 -0.0692908535 0.0194999981
v 0.0745193336 -0.069240881 0.013499999
v 0.0745193336 -0.069240881 0.0194999981
v 0.0745193336 -0.0587454471 0.013499999
v 0.0747042511 -0.0586471233 0.0194999981
v 0.0749877689 -0.0694744358 0.013499999
v 0.0747979687 -0.0693859253 0.0194999981
v 0.0747979687 -0.0586004028 0.013499999
v 0.0749877689 -0.0585118923 0.0194999981
v 0.0751805542 -0.0695562706 0.013499999
v 0.0750838039 -0.0695161972 0.0194999981
v 0.0750838039 -0.0584701309 0.013499999
v 0.0751805542 -0.0584300575 0.0194999981
v 0.0754747818 -0.0696662769 0.013499999
v 0.0752779816 -0.0695946464 0.0194999981
v 0.0752779816 -0.0583916817 0.013499999
v 0.0754747818 -0.0583200512 0.0194999981
v 0.0756739662 -0.0697309933 0.013499999
v 0.0755740879 -0.0696995029 0.0194999981
v 0.0755740879 -0.0582868252 0.013499999
v 0.0756739662 -0.0582553348 0.0194999981
v 0.0759766624 -0.0698149357 0.013499999
v 0.075774369 -0.0697607384 0.0194999981
v 0.075774369 -0.0582255897 0.013499999
v 0.0759766624 -0.0581713924 0.0194999981
v 0.0761807201 -0.0698620472 0.013499999
v 0.0760784862 -0.0698393879 0.0194999981
v 0.0760784862 -0.0581469402 0.013499999
v 0.0761807201 -0.0581242809 0.0194999981
v 0.0764895866 -0.0699192963 0.013499999
v 0.0762833355 -0.0698829231 0.0194999981
v 0.0762833355 -0.058103405 0.013499999
v 0.0764895866 -0.0580670318 0.0194999981
v 0.0766969726 -0.0699484405 0.013499999
v 0.0765931557 -0.0699347744 0.0194999981
v 0.0765931557 -0.0580515537 0.013499999
v 0.0766969726 -0.0580378876 0.0194999981
v 0.0769052551 -0.0699703274 0.013499999
v 0.0768010185 -0.0699602947 0.0194999981
v 0.0768010185 -0.0580260334 0.013499999
v 0.0769052551 -0.0580159912 0.0194999981
v 0.0772187946 -0.0699895058 0.013499999
v 0.0770096538 -0.069978548 0.0194999981
v 0.0770096538 -0.0580077801 0.013499999
v 0.0771141766 -0.0580013904 0.0194999981
v 0.0772187946 -0.0579968223 0.013499999
v 0.0772187946 -0.0579968223 0.0194999981
v 0.0771453522 -0.049568182 -0.0225999999
v 0.0771453522 -0.049568182 0.0075
v 0.0771453522 -0.049568182 0.00949999809
v 0.0771453522 -0.049568182 0.013499999
v 0.0774281929 -0.0699931679 0.013499999
v 0.0773234795 -0.0699922523 0.0194999981
v 0.0773234795 -0.0579940758 0.013499999
v 0.0774281929 -0.0579931602 0.0194999981
v 0.0777422092 -0.0699849377 0.013499999
v 0.0775329063 -0.0699922523 0.0194999981
v 0.0777422092 -0.0580013904 0.013499999
v 0.0777422092 -0.0580013904 0.0194999981
v 0.0775329063 -0.0579940758 0.013499999
v 0.0776375912 -0.0579968223 0.0194999981
v 0.0779511307 -0.0699703274 0.013499999
v 0.0778467319 -0.069978548 0.0194999981
v 0.0778467319 -0.0580077801 0.013499999
v 0.0779511307 -0.0580159912 0.0194999981
v 0.0781594131 -0.0699484405 0.013499999
v 0.0780553673 -0.0699602947 0.0194999981
v 0.0780553673 -0.0580260334 0.013499999
v 0.0781594131 -0.0580378876 0.0194999981
v 0.0784700821 -0.0699020061 0.013499999
v 0.0782632301 -0.0699347744 0.0194999981
v 0.0782632301 -0.0580515537 0.013499999
v 0.0784700821 -0.0580843124 0.0194999981
v 0.0786756657 -0.0698620472 0.013499999
v 0.0785730503 -0.0698829231 0.0194999981
v 0.0785730503 -0.058103405 0.013499999
v 0.0786756657 -0.0581242809 0.0194999981
v 0.0789811085 -0.0697887192 0.013499999
v 0.0787778995 -0.0698393879 0.0194999981
v 0.0787778995 -0.0581469402 0.013499999
v 0.0789811085 -0.0581976089 0.0194999981
v 0.0790820167 -0.0697607384 0.013499999
v 0.0790820167 -0.0697607384 0.0194999981
v 0.0791824196 -0.0697309933 0.013499999
v 0.0791824196 -0.0697309933 0.0194999981
v 0.0791824196 -0.0582553348 0.013499999
v 0.0791824196 -0.0582553348 0.0194999981
v 0.0790820167 -0.0582255897 0.013499999
v 0.0790820167 -0.0582255897 0.0194999981
v 0.0794803093 -0.0696313152 0.013499999
v 0.0792822979 -0.0696995029 0.0194999981
v 0.0792822979 -0.0582868252 0.013499999
v 0.0794803093 -0.0583550033 0.0194999981
v 0.0796758316 -0.0695562706 0.013499999
v 0.0795784042 -0.0695946464 0.0194999981
v 0.0795784042 -0.0583916817 0.013499999
v 0.0796758316 -0.0584300575 0.0194999981
v 0.0797725819 -0.0695161972 0.013499999
v 0.0797725819 -0.0695161972 0.0194999981
v 0.0799638985 -0.069431015 0.013499999
v 0.0798686169 -0.0694744358 0.0194999981
v 0.0798686169 -0.0585118923 0.013499999
v 0.0799638985 -0.0585553131 0.0194999981
v 0.0797725819 -0.0584701309 0.013499999
v 0.0797725819 -0.0584701309 0.0194999981
v 0.0802450226 -0.0692908535 0.013499999
v 0.0800584171 -0.0693859253 0.0194999981
v 0.0800584171 -0.0586004028 0.013499999
v 0.0802450226 -0.0586954746 0.0194999981
v 0.0804281948 -0.0691893158 0.013499999
v 0.0803370521 -0.069240881 0.0194999981
v 0.0804281948 -0.0587970123 0.013499999
v 0.0804281948 -0.0587970123 0.0194999981
v 0.0803370521 -0.0587454471 0.013499999
v 0.0803370521 -0.0587454471 0.0194999981
v 0.0806960247 -0.0690251884 0.013499999
v 0.0805184219 -0.0691361675 0.0194999981
v 0.0805184219 -0.0588501606 0.013499999
v 0.0806960247 -0.0589611397 0.0194999981
v 0.0809548996 -0.0688472614 0.013499999
v 0.0807833527 -0.0689673862 0.0194999981
v 0.0807833527 -0.0590189419 0.013499999
v 0.0809548996 -0.0591390571 0.0194999981
v 0.0810390804 -0.0687849769 0.013499999
v 0.0810390804 -0.0687849769 0.0194999981
v 0.0812041138 -0.0686560402 0.013499999
v 0.0811221645 -0.0687212238 0.0194999981
v 0.0811221645 -0.0592650947 0.013499999
v 0.0812041138 -0.0593302879 0.0194999981
v 0.0810390804 -0.0592013512 0.013499999
v 0.0810390804 -0.0592013512 0.0194999981
v 0.0813645504 -0.0685214195 0.013499999
v 0.0812849186 -0.068589426 0.0194999981
v 0.0814429806 -0.0684520302 0.013499999
v 0.0814429806 -0.0684520302 0.0194999981
v 0.0814429806 -0.0595342979 0.013499999
v 0.0814429806 -0.0595342979 0.0194999981
v 0.0812849186 -0.0593968925 0.013499999
v 0.0813645504 -0.0594649086 0.0194999981
v 0.0815961407 -0.0683091984 0.013499999
v 0.0815201805 -0.0683812866 0.0194999981
v 0.0817442272 -0.0681611118 0.013499999
v 0.0816708324 -0.0682358036 0.0194999981
v 0.0816708324 -0.0597505245 0.013499999
v 0.0817442272 -0.0598252163 0.0194999981
v 0.0815201805 -0.0596050415 0.013499999
v 0.0815961407 -0.0596771202 0.0194999981
v 0.081887059 -0.0680079517 0.013499999
v 0.0818163155 -0.0680851517 0.0194999981
v 0.0819564484 -0.0679295216 0.013499999
v 0.0819564484 -0.0679295216 0.0194999981
v 0.0819564484 -0.0600568066 0.013499999
v 0.0819564484 -0.0600568066 0.0194999981
v 0.0818163155 -0.0599011764 0.013499999
v 0.081887059 -0.0599783764 0.0194999981
v 0.082091069 -0.0677690849 0.013499999
v 0.0820244549 -0.0678498897 0.0194999981
v 0.0822200058 -0.0676040516 0.013499999
v 0.0821562527 -0.0676871357 0.0194999981
v 0.0821562527 -0.0602991924 0.013499999
v 0.0822200058 -0.0603822765 0.0194999981
v 0.0820244549 -0.0601364384 0.013499999
v 0.082091069 -0.0602172432 0.0194999981
v 0.0822822903 -0.0675198707 0.013499999
v 0.0822822903 -0.0675198707 0.0194999981
v 0.0824602173 -0.0672609959 0.013499999
v 0.0823431061 -0.0674346218 0.0194999981
v 0.0823431061 -0.0605517063 0.013499999
v 0.0824602173 -0.0607253322 0.0194999981
v 0.0822822903 -0.0604664478 0.013499999
v 0.0822822903 -0.0604664478 0.0194999981
v 0.0825711964 -0.0670833931 0.013499999
v 0.0825164841 -0.0671726761 0.0194999981
v 0.0827258823 -0.0668099937 0.013499999
v 0.0826243446 -0.066993166 0.0194999981
v 0.0826759098 -0.0610843048 0.013499999
v 0.0827258823 -0.0611763344 0.0194999981
v 0.0825164841 -0.060813652 0.013499999
v 0.0826243446 -0.0609931621 0.0194999981
v 0.0828660438 -0.0665288696 0.013499999
v 0.0827742336 -0.0667171059 0.0194999981
v 0.082951226 -0.066337553 0.013499999
v 0.0829094646 -0.066433588 0.0194999981
v 0.0829912994 -0.0662408028 0.013499999
v 0.0829912994 -0.0662408028 0.0194999981
v 0.0829094646 -0.0615527401 0.013499999
v 0.0829912994 -0.0617455253 0.0194999981
v 0.0827742336 -0.0612692222 0.013499999
v 0.0828660438 -0.0614574585 0.0194999981
v 0.0830663441 -0.0660452804 0.013499999
v 0.0830296753 -0.0661433754 0.0194999981
v 0.0831345318 -0.065847269 0.013499999
v 0.0831013058 -0.0659465752 0.0194999981
v 0.083223748 -0.0655460796 0.013499999
v 0.0831660221 -0.0657473907 0.0194999981
v 0.0832499645 -0.0654446945 0.013499999
v 0.0832499645 -0.0654446945 0.0194999981
v 0.0832499645 -0.0625416336 0.013499999
v 0.0832499645 -0.0625416336 0.0194999981
v 0.0831957672 -0.0623393402 0.013499999
v 0.083223748 -0.0624402485 0.0194999981
v 0.0831013058 -0.0620397529 0.013499999
v 0.0831660221 -0.0622389374 0.0194999981
v 0.0830296753 -0.0618429527 0.013499999
v 0.0830663441 -0.0619410381 0.0194999981
v 0.0832744167 -0.0653428707 0.013499999
v 0.0832744167 -0.0653428707 0.0194999981
v 0.083337035 -0.0650350532 0.013499999
v 0.083297076 -0.0652406368 0.0194999981
v 0.0833698032 -0.0648282013 0.013499999
v 0.0833543251 -0.0649317703 0.0194999981
v 0.0834053562 -0.0645161018 0.013499999
v 0.0833834694 -0.0647243843 0.0194999981
v 0.0834199665 -0.0643071804 0.013499999
v 0.0834135769 -0.0644117031 0.0194999981
v 0.0834272812 -0.0640978775 0.013499999
v 0.0834245346 -0.0642025623 0.0194999981
v 0.0834245346 -0.0637837658 0.013499999
v 0.0834281967 -0.0639931641 0.0194999981
v 0.0834135769 -0.063574625 0.013499999
v 0.0834199665 -0.0636791477 0.0194999981
v 0.0833834694 -0.0632619438 0.013499999
v 0.0834053562 -0.0634702263 0.0194999981
v 0.0833543251 -0.0630545578 0.013499999
v 0.0833698032 -0.0631581268 0.0194999981
v 0.083317952 -0.0628483066 0.013499999
v 0.083337035 -0.0629512749 0.0194999981
v 0.0832744167 -0.0626434574 0.013499999
v 0.083297076 -0.0627456913 0.0194999981
v 0.0916410397 -0.0923481426 -0.0225999999
v 0.0916410397 -0.0923481426 0.0075
v 0.0916410397 -0.0923481426 0.00949999809
v 0.0916410397 -0.0923481426 0.013499999
v 0.0964675854 -0.0925050983 0.0075
v 0.096496291 -0.092738863 0.00949999809
v 0.0964634846 -0.0922696171 0.0075
v 0.0964651821 -0.0924659023 0.00949999809
v 0.0964840076 -0.0920350132 0.0075
v 0.0964651821 -0.0922303829 0.00949999809
v 0.096496291 -0.0919574413 0.0075
v 0.096489806 -0.0919961605 0.00949999809
v 0.0966566227 -0.0932633076 0.0075
v 0.0967442081 -0.0934389744 0.00949999809
v 0.096560416 -0.0930059872 0.0075
v 0.0966409634 -0.0932272968 0.00949999809
v 0.0965034435 -0.0927774677 0.0075
v 0.0965492771 -0.0929683361 0.00949999809
v 0.0965387676 -0.09176581 0.0075
v 0.0965034435 -0.0919188175 0.00949999809
v 0.0966259334 -0.0915052853 0.0075
v 0.0965492771 -0.0917279682 0.00949999809
v 0.0967442081 -0.0912573299 0.0075
v 0.0966409634 -0.0914690075 0.00949999809
v 0.0969443462 -0.0976514492 0.0075
v 0.0969443462 -0.0976514492 0.00949999809
v 0.0969635342 -0.0937641201 0.0075
v 0.0969885014 -0.0937944088 0.00949999809
v 0.0967834804 -0.0935069904 0.0075
v 0.0969390819 -0.0937333927 0.00949999809
v 0.0967635487 -0.0934731541 0.0075
v 0.0967635487 -0.0934731541 0.00949999809
v 0.0968918178 -0.0910256252 0.0075
v 0.0967635487 -0.0912231502 0.00949999809
v 0.0969885014 -0.0909018764 0.0075
v 0.0969151829 -0.0909940586 0.00949999809
v 0.0972065685 -0.0940202198 0.0075
v 0.0972359798 -0.094046236 0.00949999809
v 0.0970140026 -0.0938242779 0.0075
v 0.097177615 -0.0939936886 0.00949999809
v 0.0971211193 -0.0907571468 0.0075
v 0.0970140026 -0.0908720074 0.00949999809
v 0.0972359798 -0.0906500492 0.0075
v 0.0971491192 -0.0907296238 0.00949999809
v 0.0972658298 -0.0940717373 0.0075
v 0.0974866627 -0.0942351589 0.00949999809
v 0.0974215649 -0.0905050526 0.0075
v 0.0972658298 -0.0906245479 0.00949999809
v 0.0974866627 -0.0904611454 0.0075
v 0.0974539135 -0.0904828129 0.00949999809
v 0.0975197933 -0.0942562542 0.0075
v 0.0977257679 -0.0943704281 0.00949999809
v 0.0977257679 -0.0903258572 0.0075
v 0.0975197933 -0.090440031 0.00949999809
v 0.0977612064 -0.0943873463 0.0075
v 0.0979795788 -0.0944755611 0.00949999809
v 0.0978692387 -0.09026198 0.0075
v 0.0977612064 -0.090308958 0.00949999809
v 0.0979795788 -0.0902207241 0.0075
v 0.0979057835 -0.0902475986 0.00949999809
v 0.0980919216 -0.0945109806 0.0075
v 0.0982442997 -0.094548975 0.00949999809
v 0.0980168102 -0.0944880161 0.0075
v 0.0980542705 -0.0944998226 0.00949999809
v 0.0982442997 -0.0901473102 0.0075
v 0.0980168102 -0.0902082691 0.00949999809
v 0.09828279 -0.0945568142 0.0075
v 0.0984769199 -0.094585825 0.00949999809
v 0.0984769199 -0.0901104793 0.0075
v 0.09828279 -0.0901394901 0.00949999809
v 0.0985160015 -0.0945895824 0.0075
v 0.0987121151 -0.0945981464 0.00949999809
v 0.0987121151 -0.0900981388 0.0075
v 0.0985160015 -0.0901067028 0.00949999809
v 0.0987513683 -0.0945978031 0.0075
v 0.0989863155 -0.0945813808 0.00949999809
v 0.0989863155 -0.0901149235 0.0075
v 0.0987513683 -0.0900984821 0.00949999809
v 0.0990252445 -0.0945762501 0.0075
v 0.0992182491 -0.0945404873 0.00949999809
v 0.0992182491 -0.090155817 0.0075
v 0.0990252445 -0.0901200352 0.00949999809
v 0.0992564342 -0.0945313129 0.0075
v 0.0993322895 -0.0945109806 0.00949999809
v 0.0993699406 -0.0944998226 0.0075
v 0.099481654 -0.0944624576 0.00949999809
v 0.099481654 -0.0902338467 0.0075
v 0.0992564342 -0.0901649723 0.00949999809
v 0.0995184277 -0.0944487057 0.0075
v 0.0997335766 -0.0943529186 0.00949999809
v 0.0997335766 -0.0903433857 0.0075
v 0.0995549725 -0.09026198 0.00949999809
v 0.0995184277 -0.0902475986 0.0075
v 0.0995184277 -0.0902475986 0.00949999809
v 0.0997684238 -0.0943347797 0.0075
v 0.0999044178 -0.0942562542 0.00949999809
v 0.0999375484 -0.0942351589 0.0075
v 0.0999702976 -0.0942134724 0.00949999809
v 0.0999702976 -0.0904828129 0.0075
v 0.0997684238 -0.0903615055 0.00949999809
v 0.100002646 -0.0941912327 0.0075
v 0.100217643 -0.0940202198 0.00949999809
v 0.100246596 -0.0939936886 0.0075
v 0.100246596 -0.0939936886 0.00949999809
v 0.100246596 -0.0907025967 0.0075
v 0.100002646 -0.0905050526 0.00949999809
v 0.100275092 -0.0939666614 0.0075
v 0.100460677 -0.0937641201 0.00949999809
v 0.100485129 -0.0937333927 0.0075
v 0.100485129 -0.0937333927 0.00949999809
v 0.100303092 -0.0907571468 0.0075
v 0.100303092 -0.0907571468 0.00949999809
v 0.100275092 -0.0907296238 0.0075
v 0.100275092 -0.0907296238 0.00949999809
v 0.100509028 -0.0937022266 0.0075
v 0.100640731 -0.0935069904 0.00949999809
v 0.100660662 -0.0934731541 0.0075
v 0.100734401 -0.0933344898 0.00949999809
v 0.100734401 -0.0913618145 0.0075
v 0.100680003 -0.0912573299 0.00949999809
v 0.100660662 -0.0912231502 0.0075
v 0.100532393 -0.0910256252 0.00949999809
v 0.100509028 -0.0909940586 0.0075
v 0.100509028 -0.0909940586 0.00949999809
v 0.1007513 -0.0932990322 0.0075
v 0.100767588 -0.0932633076 0.00949999809
v 0.100783248 -0.0932272968 0.0075
v 0.100863795 -0.0930059872 0.00949999809
v 0.100874953 -0.0929683361 0.0075
v 0.100920768 -0.0927774677 0.00949999809
v 0.10092792 -0.092738863 0.0075
v 0.100956626 -0.0925050983 0.00949999809
v 0.100959029 -0.0924659023 0.0075
v 0.100960727 -0.0922696171 0.00949999809
v 0.100959029 -0.0922303829 0.0075
v 0.100940203 -0.0920350132 0.00949999809
v 0.100934405 -0.0919961605 0.0075
v 0.100885443 -0.09176581 0.00949999809
v 0.100874953 -0.0917279682 0.0075
v 0.100798278 -0.0915052853 0.00949999809
v 0.100783248 -0.0914690075 0.0075
v 0.1007513 -0.091397253 0.00949999809
v 0.103655753 -0.0860096035 0.0075
v 0.103743987 -0.0862279758 0.00949999809
v 0.103590846 -0.0857832203 0.0075
v 0.103643298 -0.085972372 0.00949999809
v 0.103545508 -0.0855122623 0.0075
v 0.103582339 -0.0857448826 0.00949999809
v 0.103533168 -0.0852770862 0.0075
v 0.103541732 -0.0854731808 0.00949999809
v 0.103549952 -0.0850028667 0.0075
v 0.103533511 -0.0852378139 0.00949999809
v 0.103590846 -0.0847709331 0.0075
v 0.103555064 -0.0849639377 0.00949999809
v 0.103668875 -0.0845075283 0.0075
v 0.103600001 -0.084732748 0.00949999809
v 0.103743987 -0.0843261776 0.0075
v 0.103682627 -0.0844707546 0.00949999809
v 0.103896174 -0.0865025196 0.0075
v 0.103986239 -0.0866311703 0.00949999809
v 0.103760886 -0.0862634144 0.0075
v 0.10387506 -0.086469389 0.00949999809
v 0.103778415 -0.0842556057 0.0075
v 0.103760886 -0.084290739 0.00949999809
v 0.103917842 -0.0840188846 0.0075
v 0.103796534 -0.0842207584 0.00949999809
v 0.103986239 -0.0839230022 0.0075
v 0.103940081 -0.083986536 0.00949999809
v 0.104085078 -0.0867532024 0.0075
v 0.104248671 -0.0869226322 0.00949999809
v 0.104010157 -0.0866623173 0.0075
v 0.104059577 -0.0867233524 0.00949999809
v 0.104111094 -0.0837715397 0.0075
v 0.104010157 -0.0838918362 0.00949999809
v 0.104248671 -0.0836315403 0.0075
v 0.104137625 -0.0837425861 0.00949999809
v 0.104336905 -0.0870006809 0.0075
v 0.104492621 -0.0871201763 0.00949999809
v 0.104277625 -0.0869491444 0.0075
v 0.104307036 -0.0869751797 0.00949999809
v 0.10439794 -0.0835040531 0.0075
v 0.104277625 -0.0836050091 0.00949999809
v 0.104492621 -0.0834339771 0.0075
v 0.104429087 -0.083480154 0.00949999809
v 0.104726863 -0.0872637043 0.0075
v 0.104726863 -0.0872637043 0.00949999809
v 0.104524989 -0.087142416 0.0075
v 0.104692359 -0.0872449741 0.00949999809
v 0.104726863 -0.0832904491 0.0075
v 0.104524989 -0.0834117374 0.00949999809
v 0.104761691 -0.0872818432 0.0075
v 0.10497684 -0.0873776302 0.00949999809
v 0.104796843 -0.0832547817 0.0075
v 0.104761691 -0.0832723102 0.00949999809
v 0.10497684 -0.0831765232 0.0075
v 0.104832282 -0.0832378826 0.00949999809
v 0.105013633 -0.0873913822 0.0075
v 0.105238852 -0.0874602375 0.00949999809
v 0.105238852 -0.0830939159 0.0075
v 0.105013633 -0.0831627712 0.00949999809
v 0.105470042 -0.0875051746 0.0075
v 0.105470042 -0.0875051746 0.00949999809
v 0.105277037 -0.0874694118 0.0075
v 0.105431189 -0.0874993763 0.00949999809
v 0.105470042 -0.0830489788 0.0075
v 0.105277037 -0.0830847416 0.00949999809
v 0.105508971 -0.0875103054 0.0075
v 0.105743899 -0.0875267277 0.00949999809
v 0.105743899 -0.0830274258 0.0075
v 0.105508971 -0.083043848 0.00949999809
v 0.105783171 -0.087527071 0.0075
v 0.105979266 -0.087518507 0.00949999809
v 0.105979266 -0.0830356464 0.0075
v 0.105783171 -0.0830270824 0.00949999809
v 0.105783171 -0.0782060108 -0.0225999999
v 0.105783171 -0.0782060108 0.0075
v 0.105783171 -0.0782060108 0.00949999809
v 0.105783171 -0.0782060108 0.013499999
v 0.106018367 -0.0875147495 0.0075
v 0.10609632 -0.0875051746 0.00949999809
v 0.106135154 -0.0874993763 0.0075
v 0.106212497 -0.0874857387 0.00949999809
v 0.106212497 -0.0830684147 0.0075
v 0.106018367 -0.0830394039 0.00949999809
v 0.106250968 -0.0874779186 0.0075
v 0.106478457 -0.0874169598 0.00949999809
v 0.106478457 -0.0831371937 0.0075
v 0.106250968 -0.0830762539 0.00949999809
v 0.106515708 -0.0874044857 0.0075
v 0.106734061 -0.0873162708 0.00949999809
v 0.106734061 -0.0832378826 0.0075
v 0.106515708 -0.0831496677 0.00949999809
v 0.106769519 -0.0872993717 0.0075
v 0.10683948 -0.0872637043 0.00949999809
v 0.106874003 -0.0872449741 0.0075
v 0.106975493 -0.0871851787 0.00949999809
v 0.106975493 -0.0833689747 0.0075
v 0.106769519 -0.0832547817 0.00949999809
v 0.107008605 -0.0871640835 0.0075
v 0.107229438 -0.0870006809 0.00949999809
v 0.107229438 -0.0835534725 0.0075
v 0.107168422 -0.0835040531 0.00949999809
v 0.107137255 -0.083480154 0.0075
v 0.107008605 -0.08339007 0.00949999809
v 0.107259307 -0.0869751797 0.0075
v 0.107481265 -0.0867532024 0.00949999809
v 0.107481265 -0.083800951 0.0075
v 0.107455249 -0.0837715397 0.00949999809
v 0.107374167 -0.0836860905 0.0075
v 0.107374167 -0.0836860905 0.00949999809
v 0.107506766 -0.0867233524 0.0075
v 0.107670188 -0.0865025196 0.00949999809
v 0.107691283 -0.086469389 0.0075
v 0.107731738 -0.0864020786 0.00949999809
v 0.107731738 -0.0841520748 0.0075
v 0.107648501 -0.0840188846 0.00949999809
v 0.107626262 -0.083986536 0.0075
v 0.107506766 -0.083830801 0.00949999809
v 0.107751059 -0.0863678989 0.0075
v 0.107805457 -0.0862634144 0.00949999809
v 0.107822375 -0.0862279758 0.0075
v 0.10791059 -0.0860096035 0.00949999809
v 0.107923045 -0.085972372 0.0075
v 0.107975516 -0.0857832203 0.00949999809
v 0.107984004 -0.0857448826 0.0075
v 0.107998996 -0.0856677875 0.00949999809
v 0.107998996 -0.0848863659 0.0075
v 0.107975516 -0.0847709331 0.00949999809
v 0.107966342 -0.084732748 0.0075
v 0.107897486 -0.0845075283 0.00949999809
v 0.107883735 -0.0844707546 0.0075
v 0.107787947 -0.0842556057 0.00949999809
v 0.107769809 -0.0842207584 0.0075
v 0.107751059 -0.0841862545 0.00949999809
v 0.108005481 -0.0856290493 0.0075
v 0.108020854 -0.0855122623 0.00949999809
v 0.108024611 -0.0854731808 0.0075
v 0.108033175 -0.0852770862 0.00949999809
v 0.108032832 -0.0852378139 0.0075
v 0.10801641 -0.0850028667 0.00949999809
v 0.108011279 -0.0849639377 0.0075
v 0.108005481 -0.0849251041 0.00949999809
v 0.111086478 -0.0835093174 0.0075
v 0.111086478 -0.0835093174 0.00949999809
f 2 1 73
f 2 311 1
f 1 5 3
f 3 25 1
f 7 5 1
f 9 7 1
f 1 11 9
f 1 13 11
f 1 15 13
f 1 17 15
f 19 17 1
f 1 27 19
f 1 23 21
f 1 21 33
f 1 25 23
f 1 29 27
f 35 29 1
f 33 31 1
f 31 41 1
f 1 37 35
f 311 37 1
f 1 41 39
f 1 39 45
f 1 45 72
f 73 1 72
f 2 4 6
f 26 4 2
f 6 8 2
f 8 10 2
f 2 10 12
f 2 12 14
f 2 14 16
f 2 16 18
f 18 20 2
f 2 20 28
f 2 22 24
f 2 34 22
f 2 24 26
f 2 28 30
f 30 36 2
f 32 34 2
f 42 32 2
f 2 36 38
f 38 178 2
f 2 40 42
f 2 46 40
f 73 46 2
f 2 178 312
f 312 311 2
f 4 3 6
f 4 25 3
f 6 3 5
f 26 25 4
f 6 5 8
f 8 5 7
f 8 7 10
f 10 7 9
f 10 9 12
f 12 9 11
f 12 11 14
f 14 11 13
f 14 13 16
f 16 13 15
f 16 15 18
f 18 15 17
f 18 17 20
f 20 17 19
f 20 19 28
f 28 19 27
f 22 21 24
f 22 33 21
f 24 21 23
f 34 33 22
f 24 23 26
f 26 23 25
f 28 27 30
f 30 27 29
f 30 29 36
f 36 29 35
f 32 31 34
f 32 41 31
f 34 31 33
f 42 41 32
f 36 35 38
f 38 35 37
f 38 37 44
f 44 37 43
f 177 43 37
f 177 37 311
f 44 178 38
f 40 39 42
f 40 45 39
f 42 39 41
f 46 45 40
f 44 43 48
f 48 43 47
f 171 47 43
f 171 43 177
f 48 172 44
f 44 172 178
f 46 53 45
f 72 45 53
f 54 53 46
f 73 54 46
f 48 47 50
f 50 47 49
f 171 49 47
f 50 172 48
f 50 49 56
f 56 49 55
f 169 55 49
f 169 49 171
f 56 170 50
f 50 170 172
f 52 51 54
f 52 57 51
f 54 51 53
f 72 53 51
f 72 51 57
f 73 52 54
f 58 57 52
f 73 58 52
f 56 55 60
f 60 55 59
f 159 59 55
f 159 55 161
f 161 55 169
f 60 160 56
f 56 160 162
f 56 162 170
f 58 63 57
f 57 63 72
f 64 63 58
f 64 58 73
f 60 59 62
f 62 59 61
f 159 61 59
f 62 160 60
f 62 61 66
f 66 61 65
f 157 65 61
f 157 61 159
f 66 158 62
f 62 158 160
f 64 67 63
f 63 67 72
f 68 67 64
f 68 64 73
f 66 65 70
f 70 65 69
f 155 69 65
f 155 65 157
f 70 156 66
f 66 156 158
f 68 75 67
f 67 75 72
f 76 68 73
f 76 75 68
f 70 69 78
f 78 69 77
f 153 77 69
f 153 69 155
f 78 154 70
f 70 154 156
f 72 449 71
f 632 72 71
f 71 449 631
f 632 71 631
f 633 73 72
f 72 75 79
f 72 79 83
f 72 83 89
f 89 91 72
f 91 95 72
f 72 95 101
f 72 101 103
f 103 107 72
f 107 109 72
f 109 115 72
f 72 115 117
f 117 253 72
f 72 253 450
f 450 449 72
f 633 72 632
f 73 74 451
f 634 74 73
f 73 80 76
f 73 84 80
f 73 90 84
f 92 90 73
f 96 92 73
f 73 102 96
f 73 104 102
f 108 104 73
f 110 108 73
f 116 110 73
f 73 118 116
f 451 118 73
f 634 73 633
f 74 237 239
f 74 267 237
f 74 239 241
f 74 241 243
f 243 245 74
f 245 247 74
f 74 247 249
f 74 249 251
f 251 269 74
f 74 259 261
f 293 259 74
f 74 261 263
f 263 265 74
f 265 267 74
f 74 269 271
f 271 273 74
f 273 275 74
f 74 275 277
f 74 277 295
f 287 289 74
f 74 315 287
f 74 289 291
f 74 291 293
f 74 295 297
f 74 297 299
f 74 299 301
f 74 301 317
f 313 315 74
f 337 313 74
f 74 317 319
f 319 321 74
f 74 321 339
f 74 335 337
f 74 355 335
f 339 341 74
f 74 341 357
f 74 353 355
f 74 363 353
f 357 359 74
f 359 365 74
f 74 361 363
f 369 361 74
f 365 367 74
f 74 367 371
f 375 369 74
f 74 371 452
f 74 373 375
f 381 373 74
f 385 381 74
f 634 385 74
f 451 74 452
f 76 79 75
f 80 79 76
f 78 77 82
f 82 77 81
f 151 81 77
f 151 77 153
f 82 152 78
f 78 152 154
f 80 83 79
f 84 83 80
f 82 81 88
f 88 81 87
f 149 87 81
f 149 81 151
f 88 150 82
f 82 150 152
f 84 89 83
f 90 89 84
f 86 87 85
f 86 85 94
f 147 85 87
f 94 85 93
f 147 93 85
f 88 87 86
f 86 148 88
f 94 148 86
f 147 87 149
f 88 148 150
f 90 91 89
f 92 91 90
f 92 95 91
f 96 95 92
f 94 93 100
f 100 93 99
f 165 99 93
f 167 93 147
f 165 93 167
f 100 166 94
f 94 168 148
f 94 166 168
f 96 101 95
f 102 101 96
f 98 99 97
f 98 97 106
f 163 97 99
f 106 97 105
f 163 105 97
f 100 99 98
f 98 164 100
f 106 164 98
f 163 99 165
f 100 164 166
f 102 103 101
f 104 103 102
f 104 107 103
f 108 107 104
f 106 105 114
f 114 105 113
f 173 113 105
f 175 105 163
f 173 105 175
f 114 174 106
f 106 176 164
f 106 174 176
f 108 109 107
f 110 109 108
f 110 115 109
f 116 115 110
f 112 113 111
f 112 111 126
f 173 111 113
f 126 111 125
f 111 181 125
f 111 173 183
f 111 183 181
f 114 113 112
f 112 174 114
f 182 112 126
f 112 184 174
f 184 112 182
f 116 117 115
f 118 117 116
f 118 119 117
f 119 231 117
f 117 231 233
f 117 233 253
f 120 119 118
f 232 120 118
f 232 118 234
f 234 118 254
f 254 118 451
f 120 127 119
f 127 231 119
f 128 127 120
f 232 128 120
f 122 123 121
f 122 121 142
f 123 189 121
f 142 121 141
f 121 193 141
f 121 189 187
f 121 187 193
f 124 123 122
f 188 124 122
f 194 122 142
f 188 122 194
f 124 125 123
f 125 181 123
f 123 181 189
f 126 125 124
f 182 126 124
f 182 124 190
f 190 124 188
f 128 129 127
f 129 225 127
f 127 225 231
f 130 129 128
f 226 130 128
f 226 128 232
f 130 131 129
f 131 221 129
f 129 221 225
f 132 131 130
f 222 132 130
f 222 130 226
f 132 133 131
f 133 215 131
f 131 215 219
f 131 219 221
f 134 133 132
f 216 134 132
f 216 132 220
f 220 132 222
f 134 143 133
f 143 211 133
f 133 211 215
f 144 143 134
f 212 144 134
f 212 134 216
f 136 137 135
f 136 135 146
f 137 203 135
f 146 135 145
f 135 207 145
f 135 203 207
f 138 137 136
f 204 138 136
f 208 136 146
f 204 136 208
f 138 139 137
f 139 199 137
f 137 199 203
f 140 139 138
f 200 140 138
f 200 138 204
f 140 141 139
f 141 193 139
f 139 193 199
f 142 141 140
f 194 142 140
f 194 140 200
f 144 145 143
f 145 211 143
f 146 145 144
f 212 146 144
f 145 207 211
f 208 146 212
f 148 147 150
f 148 167 147
f 150 147 149
f 168 167 148
f 150 149 152
f 152 149 151
f 152 151 154
f 154 151 153
f 154 153 156
f 156 153 155
f 156 155 158
f 158 155 157
f 158 157 160
f 160 157 159
f 160 159 162
f 162 159 161
f 162 161 170
f 170 161 169
f 164 163 166
f 164 175 163
f 166 163 165
f 176 175 164
f 166 165 168
f 168 165 167
f 170 169 172
f 172 169 171
f 172 171 178
f 178 171 177
f 174 173 176
f 174 183 173
f 176 173 175
f 184 183 174
f 178 177 180
f 180 177 179
f 311 179 177
f 312 178 180
f 180 179 186
f 186 179 185
f 185 179 311
f 180 186 312
f 182 181 184
f 182 189 181
f 184 181 183
f 190 189 182
f 186 185 192
f 192 185 191
f 311 191 185
f 312 186 192
f 188 187 190
f 188 193 187
f 190 187 189
f 194 193 188
f 192 191 196
f 196 191 195
f 311 195 191
f 312 192 196
f 194 199 193
f 200 199 194
f 196 195 198
f 198 195 197
f 197 195 311
f 196 198 312
f 198 197 202
f 202 197 201
f 311 201 197
f 312 198 202
f 200 203 199
f 204 203 200
f 202 201 206
f 206 201 205
f 205 201 311
f 202 206 312
f 204 207 203
f 208 207 204
f 206 205 210
f 210 205 209
f 209 205 311
f 206 210 312
f 208 211 207
f 212 211 208
f 210 209 214
f 214 209 213
f 311 213 209
f 312 210 214
f 212 215 211
f 216 215 212
f 214 213 218
f 218 213 217
f 311 217 213
f 312 214 218
f 216 219 215
f 220 219 216
f 218 217 224
f 224 217 223
f 311 223 217
f 312 218 224
f 220 221 219
f 222 221 220
f 222 225 221
f 226 225 222
f 224 223 230
f 230 223 229
f 311 229 223
f 312 224 230
f 226 231 225
f 232 231 226
f 228 229 227
f 228 227 236
f 311 227 229
f 236 227 235
f 235 227 311
f 230 229 228
f 312 230 228
f 228 236 312
f 232 233 231
f 234 233 232
f 234 253 233
f 254 253 234
f 236 235 258
f 258 235 257
f 311 257 235
f 312 236 258
f 237 238 239
f 237 268 238
f 267 268 237
f 239 238 240
f 238 474 240
f 268 474 238
f 239 240 241
f 241 240 242
f 240 466 242
f 240 470 466
f 240 474 470
f 241 242 243
f 243 242 244
f 242 460 244
f 242 466 460
f 243 244 245
f 245 244 246
f 244 462 246
f 244 460 462
f 245 246 247
f 247 246 248
f 246 448 248
f 246 456 448
f 246 462 456
f 247 248 249
f 249 248 250
f 248 446 250
f 248 448 446
f 249 250 251
f 251 250 252
f 250 438 252
f 250 442 438
f 250 446 442
f 251 252 269
f 269 252 270
f 252 438 270
f 254 279 253
f 253 279 450
f 280 279 254
f 280 254 451
f 256 257 255
f 256 255 286
f 255 257 311
f 286 255 285
f 285 255 311
f 258 257 256
f 258 256 312
f 256 286 312
f 259 260 261
f 259 294 260
f 293 294 259
f 261 260 262
f 260 494 262
f 294 494 260
f 261 262 263
f 263 262 264
f 262 482 264
f 262 490 482
f 262 488 490
f 262 494 488
f 263 264 265
f 265 264 266
f 264 482 266
f 265 266 267
f 267 266 268
f 266 474 268
f 266 478 474
f 266 482 478
f 269 270 271
f 271 270 272
f 270 434 272
f 270 438 434
f 271 272 273
f 273 272 274
f 272 434 274
f 273 274 275
f 275 274 276
f 274 426 276
f 274 430 426
f 274 434 430
f 275 276 277
f 277 276 278
f 276 426 278
f 277 278 295
f 295 278 296
f 278 422 296
f 278 426 422
f 280 281 279
f 450 279 281
f 282 281 280
f 451 282 280
f 282 303 281
f 281 303 450
f 304 303 282
f 304 282 451
f 284 285 283
f 284 283 310
f 283 285 311
f 310 283 309
f 309 283 311
f 286 285 284
f 312 286 284
f 312 284 310
f 287 288 289
f 287 316 288
f 315 316 287
f 289 288 290
f 288 504 290
f 316 510 288
f 288 510 504
f 289 290 291
f 291 290 292
f 290 506 292
f 290 504 506
f 291 292 293
f 293 292 294
f 292 494 294
f 292 498 494
f 292 506 498
f 295 296 297
f 297 296 298
f 296 418 298
f 296 422 418
f 297 298 299
f 299 298 300
f 298 418 300
f 299 300 301
f 301 300 302
f 300 410 302
f 300 414 410
f 300 418 414
f 301 302 317
f 317 302 318
f 302 410 318
f 304 305 303
f 450 303 305
f 306 305 304
f 451 306 304
f 306 323 305
f 450 305 323
f 324 323 306
f 451 324 306
f 308 309 307
f 308 307 334
f 307 309 311
f 311 333 307
f 334 307 333
f 310 309 308
f 312 310 308
f 312 308 334
f 311 312 450
f 450 333 311
f 312 334 451
f 450 312 451
f 313 314 315
f 313 338 314
f 337 338 313
f 315 314 316
f 314 510 316
f 338 520 314
f 314 516 510
f 314 514 516
f 314 520 514
f 317 318 319
f 319 318 320
f 318 406 320
f 318 410 406
f 319 320 321
f 321 320 322
f 320 406 322
f 321 322 339
f 339 322 340
f 322 400 340
f 322 406 400
f 324 325 323
f 450 323 325
f 326 325 324
f 451 326 324
f 326 327 325
f 325 327 450
f 328 327 326
f 328 326 451
f 328 343 327
f 327 343 450
f 344 343 328
f 344 328 451
f 330 331 329
f 330 329 352
f 329 331 450
f 352 329 351
f 450 351 329
f 332 331 330
f 332 330 451
f 451 330 352
f 332 333 331
f 450 331 333
f 334 333 332
f 451 334 332
f 335 336 337
f 335 356 336
f 355 356 335
f 337 336 338
f 336 520 338
f 356 524 336
f 336 524 520
f 339 340 341
f 341 340 342
f 340 396 342
f 340 400 396
f 341 342 357
f 357 342 358
f 342 394 358
f 342 396 394
f 344 345 343
f 343 345 450
f 346 345 344
f 346 344 451
f 346 347 345
f 450 345 347
f 348 347 346
f 451 348 346
f 348 349 347
f 450 347 349
f 350 349 348
f 451 350 348
f 350 351 349
f 450 349 351
f 352 351 350
f 451 352 350
f 353 354 355
f 353 364 354
f 363 364 353
f 355 354 356
f 354 524 356
f 364 530 354
f 354 532 524
f 354 530 532
f 357 358 359
f 359 358 360
f 358 388 360
f 358 394 388
f 359 360 365
f 365 360 366
f 360 384 366
f 360 388 384
f 361 362 363
f 361 370 362
f 369 370 361
f 363 362 364
f 362 538 364
f 370 548 362
f 362 548 538
f 364 540 530
f 364 538 540
f 365 366 367
f 367 366 368
f 366 380 368
f 366 384 380
f 367 368 371
f 371 368 372
f 368 378 372
f 368 380 378
f 369 376 370
f 375 376 369
f 376 546 370
f 370 546 548
f 371 372 377
f 452 371 377
f 377 372 378
f 373 374 375
f 373 382 374
f 381 382 373
f 375 374 376
f 554 376 374
f 564 374 382
f 554 374 564
f 546 376 556
f 556 376 554
f 377 378 379
f 452 377 379
f 379 378 380
f 379 380 383
f 452 379 383
f 383 380 384
f 381 386 382
f 385 386 381
f 562 382 386
f 564 382 562
f 383 384 387
f 452 383 387
f 387 384 388
f 385 392 386
f 391 392 385
f 634 391 385
f 570 386 392
f 562 386 572
f 572 386 570
f 387 388 393
f 452 387 393
f 393 388 394
f 389 390 391
f 389 398 390
f 634 389 391
f 397 398 389
f 634 397 389
f 391 390 392
f 570 392 390
f 580 390 398
f 570 390 580
f 393 394 395
f 393 395 452
f 395 394 396
f 395 396 399
f 452 395 399
f 399 396 400
f 397 404 398
f 403 404 397
f 403 397 634
f 578 398 404
f 580 398 578
f 399 400 405
f 452 399 405
f 405 400 406
f 401 402 403
f 401 408 402
f 634 401 403
f 407 408 401
f 407 401 634
f 403 402 404
f 578 404 402
f 590 402 408
f 578 402 590
f 405 406 409
f 452 405 409
f 409 406 410
f 407 412 408
f 411 412 407
f 411 407 634
f 588 408 412
f 590 408 588
f 409 410 413
f 452 409 413
f 413 410 414
f 411 416 412
f 415 416 411
f 634 415 411
f 606 412 416
f 588 412 606
f 413 414 417
f 413 417 452
f 417 414 418
f 415 420 416
f 419 420 415
f 634 419 415
f 604 416 420
f 606 416 604
f 417 418 421
f 417 421 452
f 421 418 422
f 419 424 420
f 423 424 419
f 634 423 419
f 602 420 424
f 604 420 602
f 421 422 425
f 452 421 425
f 425 422 426
f 423 428 424
f 427 428 423
f 634 427 423
f 630 424 428
f 602 424 600
f 600 424 630
f 425 426 429
f 452 425 429
f 429 426 430
f 427 432 428
f 431 432 427
f 431 427 634
f 628 428 432
f 630 428 628
f 429 430 433
f 452 429 433
f 433 430 434
f 431 436 432
f 435 436 431
f 435 431 634
f 626 432 436
f 628 432 626
f 433 434 437
f 452 433 437
f 437 434 438
f 435 440 436
f 439 440 435
f 634 439 435
f 624 436 440
f 626 436 624
f 437 438 441
f 437 441 452
f 441 438 442
f 439 444 440
f 443 444 439
f 634 443 439
f 622 440 444
f 624 440 622
f 441 442 445
f 452 441 445
f 445 442 446
f 443 454 444
f 453 454 443
f 634 453 443
f 620 444 454
f 622 444 620
f 445 446 447
f 452 445 447
f 447 446 448
f 447 448 455
f 452 447 455
f 455 448 456
f 450 845 449
f 631 449 845
f 451 846 450
f 450 846 845
f 452 847 451
f 451 847 846
f 452 455 461
f 461 459 452
f 452 459 465
f 465 469 452
f 452 469 473
f 452 473 477
f 452 477 481
f 452 481 489
f 452 489 487
f 487 493 452
f 493 497 452
f 452 497 505
f 505 503 452
f 452 503 509
f 452 509 515
f 515 513 452
f 452 513 519
f 452 519 523
f 452 523 531
f 452 531 529
f 452 529 539
f 539 537 452
f 452 537 547
f 547 545 452
f 452 545 555
f 452 555 553
f 452 553 563
f 452 563 561
f 561 571 452
f 452 571 569
f 452 569 848
f 452 848 847
f 453 458 454
f 457 458 453
f 457 453 634
f 618 454 458
f 620 454 618
f 455 456 461
f 461 456 462
f 457 464 458
f 463 464 457
f 463 457 634
f 616 458 464
f 618 458 616
f 459 462 460
f 459 460 465
f 461 462 459
f 465 460 466
f 463 468 464
f 467 468 463
f 634 467 463
f 614 464 468
f 616 464 614
f 465 466 469
f 469 466 470
f 467 472 468
f 471 472 467
f 634 471 467
f 612 468 472
f 614 468 612
f 469 470 473
f 473 470 474
f 471 476 472
f 475 476 471
f 634 475 471
f 610 472 476
f 612 472 610
f 473 474 477
f 477 474 478
f 475 480 476
f 479 480 475
f 479 475 634
f 608 476 480
f 610 476 608
f 477 478 481
f 481 478 482
f 479 484 480
f 483 484 479
f 483 479 634
f 596 480 484
f 598 480 596
f 608 480 598
f 481 482 489
f 489 482 490
f 483 486 484
f 485 486 483
f 634 485 483
f 596 484 486
f 485 492 486
f 491 492 485
f 634 491 485
f 594 486 492
f 596 486 594
f 487 490 488
f 487 488 493
f 489 490 487
f 493 488 494
f 491 496 492
f 495 496 491
f 634 495 491
f 592 492 496
f 594 492 592
f 493 494 497
f 497 494 498
f 495 500 496
f 499 500 495
f 634 499 495
f 584 496 500
f 586 496 584
f 592 496 586
f 497 498 505
f 505 498 506
f 499 502 500
f 501 502 499
f 634 501 499
f 584 500 502
f 501 508 502
f 507 508 501
f 634 507 501
f 582 502 508
f 584 502 582
f 503 506 504
f 503 504 509
f 505 506 503
f 509 504 510
f 507 512 508
f 511 512 507
f 634 511 507
f 576 508 512
f 582 508 576
f 509 510 515
f 515 510 516
f 511 518 512
f 517 518 511
f 517 511 634
f 574 512 518
f 576 512 574
f 513 516 514
f 513 514 519
f 515 516 513
f 519 514 520
f 517 522 518
f 521 522 517
f 521 517 634
f 568 518 522
f 574 518 568
f 519 520 523
f 523 520 524
f 521 526 522
f 525 526 521
f 525 521 634
f 560 522 526
f 566 522 560
f 568 522 566
f 523 524 531
f 531 524 532
f 525 528 526
f 527 528 525
f 634 527 525
f 560 526 528
f 527 534 528
f 533 534 527
f 533 527 634
f 558 528 534
f 560 528 558
f 529 532 530
f 529 530 539
f 531 532 529
f 539 530 540
f 533 536 534
f 535 536 533
f 634 535 533
f 550 534 536
f 552 534 550
f 558 534 552
f 535 542 536
f 541 542 535
f 541 535 634
f 550 536 542
f 537 540 538
f 537 538 547
f 539 540 537
f 547 538 548
f 541 544 542
f 543 544 541
f 634 543 541
f 550 542 544
f 543 550 544
f 549 550 543
f 848 549 543
f 848 543 634
f 545 548 546
f 545 546 555
f 547 548 545
f 555 546 556
f 549 552 550
f 551 552 549
f 848 551 549
f 551 558 552
f 557 558 551
f 848 557 551
f 553 556 554
f 553 554 563
f 555 556 553
f 563 554 564
f 557 560 558
f 559 560 557
f 848 559 557
f 559 566 560
f 565 566 559
f 565 559 848
f 561 564 562
f 561 562 571
f 563 564 561
f 571 562 572
f 565 568 566
f 567 568 565
f 848 567 565
f 567 574 568
f 573 574 567
f 848 573 567
f 569 572 570
f 569 570 579
f 571 572 569
f 569 579 848
f 579 570 580
f 573 576 574
f 575 576 573
f 575 573 848
f 575 582 576
f 581 582 575
f 581 575 848
f 577 580 578
f 577 578 589
f 579 580 577
f 579 577 848
f 848 577 589
f 589 578 590
f 581 584 582
f 583 584 581
f 583 581 848
f 583 586 584
f 585 586 583
f 848 585 583
f 585 592 586
f 591 592 585
f 591 585 848
f 587 590 588
f 587 588 605
f 589 590 587
f 848 589 587
f 848 587 605
f 605 588 606
f 591 594 592
f 593 594 591
f 848 593 591
f 593 596 594
f 595 596 593
f 848 595 593
f 595 598 596
f 597 598 595
f 848 597 595
f 597 608 598
f 607 608 597
f 848 607 597
f 599 602 600
f 599 600 629
f 601 602 599
f 601 599 848
f 848 599 629
f 629 600 630
f 601 604 602
f 603 604 601
f 848 603 601
f 603 606 604
f 605 606 603
f 848 605 603
f 607 610 608
f 609 610 607
f 609 607 848
f 609 612 610
f 611 612 609
f 611 609 848
f 611 614 612
f 613 614 611
f 848 613 611
f 613 616 614
f 615 616 613
f 848 615 613
f 615 618 616
f 617 618 615
f 848 617 615
f 617 620 618
f 619 620 617
f 619 617 848
f 619 622 620
f 621 622 619
f 621 619 848
f 621 624 622
f 623 624 621
f 848 623 621
f 623 626 624
f 625 626 623
f 848 625 623
f 625 628 626
f 627 628 625
f 848 627 625
f 627 630 628
f 629 630 627
f 629 627 848
f 632 631 846
f 846 631 845
f 632 656 633
f 637 635 632
f 632 635 647
f 639 637 632
f 641 639 632
f 632 649 641
f 632 645 643
f 632 643 661
f 632 647 645
f 632 651 649
f 632 653 651
f 663 653 632
f 655 656 632
f 632 661 655
f 632 665 663
f 632 671 665
f 632 673 671
f 632 677 673
f 632 679 677
f 846 679 632
f 633 848 634
f 636 638 633
f 633 648 636
f 638 640 633
f 640 642 633
f 633 642 650
f 633 644 646
f 633 662 644
f 633 646 648
f 633 650 652
f 633 652 654
f 654 664 633
f 656 662 633
f 633 664 666
f 633 666 672
f 633 672 674
f 633 674 678
f 633 678 680
f 680 796 633
f 633 796 847
f 847 848 633
f 636 635 638
f 636 647 635
f 638 635 637
f 648 647 636
f 638 637 640
f 640 637 639
f 640 639 642
f 642 639 641
f 642 641 650
f 650 641 649
f 644 643 646
f 644 661 643
f 646 643 645
f 662 661 644
f 646 645 648
f 648 645 647
f 650 649 652
f 652 649 651
f 652 651 654
f 654 651 653
f 654 653 664
f 664 653 663
f 656 655 914
f 659 657 655
f 655 657 669
f 655 661 659
f 669 667 655
f 655 667 675
f 655 675 681
f 655 681 685
f 685 693 655
f 655 693 691
f 655 691 697
f 655 697 701
f 655 701 705
f 655 705 709
f 655 709 713
f 655 713 715
f 715 719 655
f 655 719 725
f 725 727 655
f 655 727 731
f 655 731 733
f 655 733 737
f 737 875 655
f 655 875 913
f 914 655 913
f 658 660 656
f 656 670 658
f 656 660 662
f 668 670 656
f 656 676 668
f 656 682 676
f 656 686 682
f 694 686 656
f 656 692 694
f 656 698 692
f 656 702 698
f 656 706 702
f 656 710 706
f 656 714 710
f 656 716 714
f 720 716 656
f 656 726 720
f 728 726 656
f 656 732 728
f 656 734 732
f 656 738 734
f 914 738 656
f 658 657 660
f 658 669 657
f 660 657 659
f 670 669 658
f 660 659 662
f 662 659 661
f 664 663 666
f 666 663 665
f 666 665 672
f 672 665 671
f 668 667 670
f 668 675 667
f 670 667 669
f 676 675 668
f 672 671 674
f 674 671 673
f 674 673 678
f 678 673 677
f 676 681 675
f 682 681 676
f 678 677 680
f 680 677 679
f 680 679 684
f 684 679 683
f 795 683 679
f 795 679 846
f 684 796 680
f 682 685 681
f 686 685 682
f 684 683 688
f 688 683 687
f 793 687 683
f 793 683 795
f 688 788 684
f 684 788 794
f 684 794 796
f 686 693 685
f 694 693 686
f 688 687 690
f 690 687 689
f 787 689 687
f 787 687 793
f 690 788 688
f 690 689 696
f 696 689 695
f 785 695 689
f 785 689 787
f 696 786 690
f 690 786 788
f 692 691 694
f 692 697 691
f 694 691 693
f 698 697 692
f 696 695 700
f 700 695 699
f 783 699 695
f 783 695 785
f 700 784 696
f 696 784 786
f 698 701 697
f 702 701 698
f 700 699 704
f 704 699 703
f 781 703 699
f 781 699 783
f 704 782 700
f 700 782 784
f 702 705 701
f 706 705 702
f 704 703 708
f 708 703 707
f 779 707 703
f 779 703 781
f 708 780 704
f 704 780 782
f 706 709 705
f 710 709 706
f 708 707 712
f 712 707 711
f 777 711 707
f 777 707 779
f 712 778 708
f 708 778 780
f 710 713 709
f 714 713 710
f 712 711 718
f 718 711 717
f 775 717 711
f 775 711 777
f 718 776 712
f 712 776 778
f 714 715 713
f 716 715 714
f 716 719 715
f 720 719 716
f 718 717 724
f 724 717 723
f 773 723 717
f 773 717 775
f 724 774 718
f 718 774 776
f 720 725 719
f 726 725 720
f 722 723 721
f 722 721 730
f 773 721 723
f 730 721 729
f 791 729 721
f 791 721 773
f 724 723 722
f 722 774 724
f 730 792 722
f 722 792 774
f 726 727 725
f 728 727 726
f 728 731 727
f 732 731 728
f 730 729 736
f 736 729 735
f 789 735 729
f 789 729 791
f 736 790 730
f 730 790 792
f 732 733 731
f 734 733 732
f 734 737 733
f 738 737 734
f 736 735 744
f 744 735 743
f 799 743 735
f 801 735 789
f 799 735 801
f 744 800 736
f 736 802 790
f 736 800 802
f 738 739 737
f 739 869 737
f 737 869 875
f 740 739 738
f 870 740 738
f 870 738 876
f 876 738 914
f 740 745 739
f 745 869 739
f 746 745 740
f 870 746 740
f 742 743 741
f 742 741 754
f 743 799 741
f 754 741 753
f 741 807 753
f 741 799 809
f 741 809 807
f 744 743 742
f 742 800 744
f 808 742 754
f 800 742 810
f 810 742 808
f 746 747 745
f 747 865 745
f 745 865 869
f 748 747 746
f 866 748 746
f 866 746 870
f 748 755 747
f 755 859 747
f 747 859 863
f 747 863 865
f 756 755 748
f 864 756 748
f 864 748 866
f 750 751 749
f 750 749 772
f 751 817 749
f 772 749 771
f 749 821 771
f 749 817 815
f 749 815 821
f 752 751 750
f 818 752 750
f 822 750 772
f 818 750 816
f 816 750 822
f 752 753 751
f 753 807 751
f 751 807 817
f 754 753 752
f 808 754 752
f 808 752 818
f 756 757 755
f 757 859 755
f 758 757 756
f 860 758 756
f 860 756 864
f 758 759 757
f 759 855 757
f 757 855 859
f 760 759 758
f 856 760 758
f 856 758 860
f 760 761 759
f 761 851 759
f 759 851 855
f 762 761 760
f 852 762 760
f 852 760 856
f 762 763 761
f 763 841 761
f 761 841 849
f 761 849 851
f 764 763 762
f 842 764 762
f 842 762 850
f 850 762 852
f 764 765 763
f 765 837 763
f 763 837 841
f 766 765 764
f 838 766 764
f 838 764 842
f 766 767 765
f 767 833 765
f 765 833 831
f 765 831 837
f 768 767 766
f 832 768 766
f 832 766 838
f 768 769 767
f 769 827 767
f 767 827 833
f 770 769 768
f 828 770 768
f 828 768 834
f 834 768 832
f 770 771 769
f 771 821 769
f 769 821 827
f 772 771 770
f 822 772 770
f 822 770 828
f 774 773 776
f 774 791 773
f 776 773 775
f 792 791 774
f 776 775 778
f 778 775 777
f 778 777 780
f 780 777 779
f 780 779 782
f 782 779 781
f 782 781 784
f 784 781 783
f 784 783 786
f 786 783 785
f 786 785 788
f 788 785 787
f 788 787 794
f 794 787 793
f 790 789 792
f 790 801 789
f 792 789 791
f 802 801 790
f 794 793 796
f 796 793 795
f 796 795 798
f 798 795 797
f 846 797 795
f 847 796 798
f 798 797 804
f 804 797 803
f 846 803 797
f 847 798 804
f 800 799 802
f 800 809 799
f 802 799 801
f 810 809 800
f 804 803 806
f 806 803 805
f 805 803 846
f 804 806 847
f 806 805 812
f 812 805 811
f 846 811 805
f 847 806 812
f 808 807 810
f 808 817 807
f 810 807 809
f 818 817 808
f 812 811 814
f 814 811 813
f 846 813 811
f 847 812 814
f 814 813 820
f 820 813 819
f 846 819 813
f 847 814 820
f 816 815 818
f 816 821 815
f 818 815 817
f 822 821 816
f 820 819 824
f 824 819 823
f 846 823 819
f 847 820 824
f 822 827 821
f 828 827 822
f 824 823 826
f 826 823 825
f 846 825 823
f 847 824 826
f 826 825 830
f 830 825 829
f 829 825 846
f 826 830 847
f 828 833 827
f 834 833 828
f 830 829 836
f 836 829 835
f 846 835 829
f 847 830 836
f 832 831 834
f 832 837 831
f 834 831 833
f 838 837 832
f 836 835 840
f 840 835 839
f 846 839 835
f 847 836 840
f 838 841 837
f 842 841 838
f 840 839 844
f 844 839 843
f 846 843 839
f 847 840 844
f 842 849 841
f 850 849 842
f 844 843 854
f 846 853 843
f 854 843 853
f 847 844 854
f 847 913 846
f 846 857 853
f 861 857 846
f 846 867 861
f 913 867 846
f 847 854 858
f 858 862 847
f 847 862 868
f 847 868 914
f 914 913 847
f 850 851 849
f 852 851 850
f 852 855 851
f 856 855 852
f 854 853 858
f 858 853 857
f 856 859 855
f 860 859 856
f 858 857 862
f 862 857 861
f 860 863 859
f 864 863 860
f 862 861 868
f 868 861 867
f 864 865 863
f 866 865 864
f 866 869 865
f 870 869 866
f 868 867 874
f 874 867 873
f 913 873 867
f 868 874 914
f 870 875 869
f 876 875 870
f 872 873 871
f 872 871 880
f 913 871 873
f 880 871 879
f 913 879 871
f 874 873 872
f 914 874 872
f 914 872 880
f 876 881 875
f 913 875 881
f 882 881 876
f 914 882 876
f 878 879 877
f 878 877 888
f 877 879 913
f 888 877 887
f 913 887 877
f 880 879 878
f 880 878 914
f 914 878 888
f 882 883 881
f 881 883 913
f 884 883 882
f 884 882 914
f 884 889 883
f 883 889 913
f 890 889 884
f 890 884 914
f 886 887 885
f 886 885 904
f 913 885 887
f 904 885 903
f 913 903 885
f 888 887 886
f 914 888 886
f 914 886 904
f 890 891 889
f 913 889 891
f 892 891 890
f 914 892 890
f 892 893 891
f 913 891 893
f 894 893 892
f 914 894 892
f 894 895 893
f 913 893 895
f 896 895 894
f 914 896 894
f 896 905 895
f 913 895 905
f 906 905 896
f 914 906 896
f 898 899 897
f 898 897 912
f 913 897 899
f 912 897 911
f 911 897 913
f 900 899 898
f 914 900 898
f 898 912 914
f 900 901 899
f 913 899 901
f 902 901 900
f 914 902 900
f 902 903 901
f 901 903 913
f 904 903 902
f 904 902 914
f 906 907 905
f 905 907 913
f 908 907 906
f 908 906 914
f 908 909 907
f 907 909 913
f 910 909 908
f 910 908 914
f 910 911 909
f 913 909 911
f 912 911 910
f 914 912 910
