# CAD visual only; metres; body-local coordinates
v -0.00978147471 -0.00207911527 0.00999999809
v -0.00978147471 -0.00207911527 0.012000001
v -0.00981627429 -0.00190809285 0.00999999809
v -0.00981627429 -0.00190809285 0.012000001
v -0.00984807933 -0.00173647916 0.00999999809
v -0.00987688029 -0.00156434095 0.012000001
v -0.00990267718 -0.00139173543 0.00999999809
v -0.00990267718 -0.00139173543 0.012000001
v -0.00992546046 -0.00121869123 0.00999999809
v -0.00994522059 -0.00104528463 0.012000001
v -0.00996194804 -0.000871553776 0.00999999809
v -0.00996194804 -0.000871553776 0.012000001
v -0.0099756428 -0.000697565433 0.00999999809
v -0.00998629535 -0.000523357746 0.012000001
v -0.00999390567 -0.000348997471 0.00999999809
v -0.00999390567 -0.000348997471 0.012000001
v -0.00999847377 -0.000174522755 0.00999999809
v -0.00999999965 -3.54727886e-10 0.012000001
v -0.00999847377 0.000174522045 0.00999999809
v -0.00999847377 0.000174522045 0.012000001
v -0.00999390567 0.000348996761 0.00999999809
v -0.00999390567 0.000348996761 0.012000001
v -0.00998629535 0.000523357037 0.00999999809
v -0.0099756428 0.000697564724 0.012000001
v -0.00996194804 0.000871553066 0.00999999809
v -0.00996194804 0.000871553066 0.012000001
v -0.00994522059 0.00104528392 0.00999999809
v -0.00992546046 0.00121869052 0.012000001
v -0.00990267718 0.00139173472 0.00999999809
v -0.00990267718 0.00139173472 0.012000001
v -0.00987688029 0.00156434024 0.00999999809
v -0.00984807933 0.00173647845 0.012000001
v -0.00981627429 0.00190809214 0.00999999809
v -0.00981627429 0.00190809214 0.012000001
v -0.00978147471 0.00207911456 0.00999999809
v -0.00978147471 0.00207911456 0.012000001
v -0.00951056445 -0.00309017217 0.00999999809
v -0.00951056445 -0.00309017217 0.012000001
v -0.00956304515 -0.00292371785 0.00999999809
v -0.00961261714 -0.00275637662 0.012000001
v -0.00965926135 -0.00258818662 0.00999999809
v -0.00965926135 -0.00258818662 0.012000001
v -0.00970295871 -0.0024192146 0.00999999809
v -0.00970295871 -0.0024192146 0.012000001
v -0.00974369967 -0.00224950826 0.00999999809
v -0.00974369967 -0.00224950826 0.012000001
v -0.00974369967 0.00224950755 0.00999999809
v -0.00974369967 0.00224950755 0.012000001
v -0.00970295871 0.00241922343 0.00999999809
v -0.00970295871 0.00241922343 0.012000001
v -0.00965926135 0.00258818591 0.00999999809
v -0.00965926135 0.00258818591 0.012000001
v -0.00961261714 0.00275637591 0.00999999809
v -0.00956304515 0.00292371714 0.012000001
v -0.00951056445 0.00309017146 0.00999999809
v -0.00951056445 0.00309017146 0.012000001
v -0.00927184069 -0.00374606168 0.00999999809
v -0.00933580363 -0.00358367955 0.012000001
v -0.00939692462 -0.0034202007 0.00999999809
v -0.00945518458 -0.00325568235 0.012000001
v -0.00945518458 0.00325568164 0.00999999809
v -0.00939692462 0.00342019999 0.012000001
v -0.00933580363 0.00358367884 0.00999999809
v -0.00927184069 0.00374607051 0.012000001
v -0.00906308139 -0.00422617948 0.00999999809
v -0.00913545573 -0.00406736409 0.012000001
v -0.00920504535 -0.00390730893 0.00999999809
v -0.00920504535 -0.00390730893 0.012000001
v -0.00920504535 0.00390730822 0.00999999809
v -0.00920504535 0.00390730822 0.012000001
v -0.00913545573 0.00406736338 0.00999999809
v -0.00906308139 0.00422617877 0.012000001
v -0.00882947886 -0.00469471967 0.00999999809
v -0.00891006434 -0.00453990972 0.012000001
v -0.00898794139 -0.0043837074 0.00999999809
v -0.00898794139 -0.0043837074 0.012000001
v -0.00898794139 0.00438371623 0.00999999809
v -0.00898794139 0.00438371623 0.012000001
v -0.00891006434 0.00453990901 0.00999999809
v -0.00882947886 0.00469471896 0.012000001
v -0.00857167208 -0.00515038526 0.00999999809
v -0.00866024936 -0.00500000035 0.012000001
v -0.00874619448 -0.00484809911 0.00999999809
v -0.00874619448 -0.00484809911 0.012000001
v -0.00874619448 0.0048480984 0.00999999809
v -0.00866024936 0.00499999965 0.012000001
v -0.00857167208 0.00515038455 0.00999999809
v -0.00857167208 0.00515038455 0.012000001
v -0.00829037631 -0.00559192693 0.00999999809
v -0.00829037631 -0.00559192693 0.012000001
v -0.00838670695 -0.00544638669 0.00999999809
v -0.00848048175 -0.0052991966 0.012000001
v -0.00848048175 0.00529919589 0.00999999809
v -0.00838670695 0.00544638598 0.012000001
v -0.00829037631 0.00559192622 0.00999999809
v -0.00829037631 0.00559192622 0.012000001
v -0.00809017146 -0.00587784803 0.00999999809
v -0.00809017146 -0.00587784803 0.012000001
v -0.00819151843 -0.00573576009 0.00999999809
v -0.00819151843 -0.00573576009 0.012000001
v -0.00819151843 0.00573576892 0.00999999809
v -0.00819151843 0.00573576892 0.012000001
v -0.00809017146 0.00587785685 0.00999999809
v -0.00809017146 0.00587785685 0.012000001
v -0.00777146304 -0.0062932018 0.00999999809
v -0.00777146304 -0.0062932018 0.012000001
v -0.00788010562 -0.00615661657 0.00999999809
v -0.00798635447 -0.00601815259 0.012000001
v -0.00798635447 0.00601815188 0.00999999809
v -0.00788010562 0.00615661586 0.012000001
v -0.00777146304 0.00629320109 0.00999999809
v -0.00777146304 0.00629320109 0.012000001
v -0.00754709208 -0.00656059301 0.00999999809
v -0.00754709208 -0.00656059301 0.012000001
v -0.00766044581 -0.00642787969 0.00999999809
v -0.00766044581 -0.00642787969 0.012000001
v -0.00766044581 0.00642787898 0.00999999809
v -0.00766044581 0.00642787898 0.012000001
v -0.00754709208 0.0065605923 0.00999999809
v -0.00754709208 0.0065605923 0.012000001
v -0.00731353724 -0.00681998288 0.00999999809
v -0.00731353724 -0.00681998288 0.012000001
v -0.00743144954 -0.00669130361 0.00999999809
v -0.00743144954 -0.00669130361 0.012000001
v -0.00743144954 0.0066913029 0.00999999809
v -0.00743144954 0.0066913029 0.012000001
v -0.00731353724 0.00681998217 0.00999999809
v -0.00731353724 0.00681998217 0.012000001
v -0.00707106555 -0.00707106626 0.00999999809
v -0.00707106555 -0.00707106626 0.012000001
v -0.00719339335 -0.00694658315 0.00999999809
v -0.00719339335 -0.00694658315 0.012000001
v -0.00719339335 0.00694658244 0.00999999809
v -0.00719339335 0.00694658244 0.012000001
v -0.00707106555 0.00707106555 0.00999999809
v -0.00707106555 0.00707106555 0.012000001
v -0.00681998217 -0.00731353795 0.00999999809
v -0.00681998217 -0.00731353795 0.012000001
v -0.00694658244 -0.00719339406 0.00999999809
v -0.00694658244 -0.00719339406 0.012000001
v -0.00675417865 0.005733585 0.00999999809
v -0.00675083125 0.00554187739 0.012000001
v -0.00675083125 0.00577183688 0.00999999809
v -0.00675267184 0.00575272525 0.012000001
v -0.00694658244 0.00719339335 0.00999999809
v -0.00694658244 0.00719339335 0.012000001
v -0.00681998217 0.00731353724 0.00999999809
v -0.00681998217 0.00731353724 0.012000001
v -0.0065605923 -0.00754709279 0.00999999809
v -0.0065605923 -0.00754709279 0.012000001
v -0.0066913029 -0.00743145024 0.00999999809
v -0.0066913029 -0.00743145024 0.012000001
v -0.00653535807 0.00499485934 0.00999999809
v -0.00651171649 0.00496459925 0.012000001
v -0.00667675937 0.00524478877 0.00999999809
v -0.00654677356 0.00501028979 0.012000001
v -0.00674330676 0.00548478091 0.00999999809
v -0.00668379748 0.00526265109 0.012000001
v -0.00674865687 0.00552279437 0.00999999809
v -0.00674614871 0.00550376857 0.012000001
v -0.00670301402 0.0059967705 0.00999999809
v -0.00674865687 0.00579091037 0.012000001
v -0.00658970797 0.00623976672 0.00999999809
v -0.00669692004 0.00601497615 0.012000001
v -0.00651171649 0.00634910548 0.00999999809
v -0.00657938922 0.00625596011 0.012000001
v -0.0066913029 0.00743144954 0.00999999809
v -0.0066913029 0.00743144954 0.012000001
v -0.0065605923 0.00754709208 0.00999999809
v -0.0065605923 0.00754709208 0.012000001
v -0.00629320109 -0.00777146375 0.00999999809
v -0.00629320109 -0.00777146375 0.012000001
v -0.00642787898 -0.00766044652 0.00999999809
v -0.00642787898 -0.00766044652 0.012000001
v -0.00627196276 0.00474491084 0.00999999809
v -0.00625596011 0.00473431552 0.012000001
v -0.00649949992 0.00494978869 0.00999999809
v -0.00628778422 0.00475578273 0.012000001
v -0.00643466914 0.00643466914 0.00999999809
v -0.00643466914 0.00643466914 0.012000001
v -0.00625596011 0.00657938922 0.00999999809
v -0.00634910548 0.00651171649 0.012000001
v -0.00642787898 0.00766044581 0.00999999809
v -0.00642787898 0.00766044581 0.012000001
v -0.00629320109 0.00777146304 0.00999999809
v -0.00629320109 0.00777146304 0.012000001
v -0.00601815188 -0.00798635518 0.00999999809
v -0.00615661586 -0.00788010633 0.012000001
v -0.00623976672 0.00472399676 0.00999999809
v -0.00601497615 0.00461678469 0.012000001
v -0.00601497615 0.00669692004 0.00999999809
v -0.00623976672 0.00658970797 0.012000001
v -0.00615661586 0.00788010562 0.00999999809
v -0.00601815188 0.00798635447 0.012000001
v -0.00587785685 -0.00809017217 0.00999999809
v -0.00587785685 -0.00809017217 0.012000001
v -0.0059967705 0.00461069072 0.00999999809
v -0.00575272525 0.00456104243 0.012000001
v -0.00579091037 0.00674865687 0.00999999809
v -0.0059967705 0.00670301402 0.012000001
v -0.00575272525 0.00675267184 0.00999999809
v -0.00577183688 0.00675083125 0.012000001
v -0.00587785685 0.00809017146 0.00999999809
v -0.00587785685 0.00809017146 0.012000001
v -0.00559192622 -0.00829037702 0.00999999809
v -0.00559192622 -0.00829037702 0.012000001
v -0.00573576892 -0.00819151914 0.00999999809
v -0.00573576892 -0.00819151914 0.012000001
v -0.005733585 0.00455953563 0.00999999809
v -0.00550376857 0.00456755603 0.012000001
v -0.00550376857 0.00674614871 0.00999999809
v -0.00552279437 0.00674865687 0.012000001
v -0.00554187739 0.00675083125 0.00999999809
v -0.005733585 0.00675417865 0.012000001
v -0.00573576892 0.00819151843 0.00999999809
v -0.00573576892 0.00819151843 0.012000001
v -0.00559192622 0.00829037631 0.00999999809
v -0.00559192622 0.00829037631 0.012000001
v -0.00529919589 -0.00848048246 0.00999999809
v -0.00544638598 -0.00838670766 0.012000001
v -0.00548478091 0.00457039798 0.00999999809
v -0.00526265109 0.00462991679 0.012000001
v -0.00526265109 0.00668379748 0.00999999809
v -0.00548478091 0.00674330676 0.012000001
v -0.00544638598 0.00838670695 0.00999999809
v -0.00529919589 0.00848048175 0.012000001
v -0.00515038455 -0.00857167279 0.00999999809
v -0.00515038455 -0.00857167279 0.012000001
v -0.00524478877 0.00463695491 0.00999999809
v -0.00504174197 0.00474491084 0.012000001
v -0.00502592051 0.00475578273 0.00999999809
v -0.00501028979 0.00476693118 0.012000001
v -0.00501028979 0.00654677356 0.00999999809
v -0.00524478877 0.00667675937 0.012000001
v -0.00515038455 0.00857167208 0.00999999809
v -0.00515038455 0.00857167208 0.012000001
v -0.0048480984 -0.00874619519 0.00999999809
v -0.00499999965 -0.00866025006 0.012000001
v -0.00499485934 0.0047783562 0.00999999809
v -0.0047783562 0.00499485934 0.012000001
v -0.00476693118 0.00501028979 0.00999999809
v -0.00475578273 0.00502592051 0.012000001
v -0.00475578273 0.00628778422 0.00999999809
v -0.00494978869 0.00649949992 0.012000001
v -0.00496459925 0.00651171649 0.00999999809
v -0.00499485934 0.00653535807 0.012000001
v -0.00499999965 0.00866024936 0.00999999809
v -0.0048480984 0.00874619448 0.012000001
v -0.00453990901 -0.00891006505 0.00999999809
v -0.00469471896 -0.00882947957 0.012000001
v -0.00474491084 0.00504174197 0.00999999809
v -0.00463695491 0.00524478877 0.012000001
v -0.00462991679 0.00526265109 0.00999999809
v -0.00457039798 0.00548478091 0.012000001
v -0.00456755603 0.00550376857 0.00999999809
v -0.00455953563 0.005733585 0.012000001
v -0.00456104243 0.00575272525 0.00999999809
v -0.00461069072 0.0059967705 0.012000001
v -0.00461678469 0.00601497615 0.00999999809
v -0.00472399676 0.00623976672 0.012000001
v -0.00473431552 0.00625596011 0.00999999809
v -0.00474491084 0.00627196276 0.012000001
v -0.00469471896 0.00882947886 0.00999999809
v -0.00453990901 0.00891006434 0.012000001
v -0.00438371623 -0.0089879421 0.00999999809
v -0.00438371623 -0.0089879421 0.012000001
v -0.00438371623 0.00898794139 0.00999999809
v -0.00438371623 0.00898794139 0.012000001
v -0.00406736338 -0.00913545644 0.00999999809
v -0.00422617877 -0.0090630821 0.012000001
v -0.00422617877 0.00906308139 0.00999999809
v -0.00406736338 0.00913545573 0.012000001
v -0.00390730822 -0.00920504605 0.00999999809
v -0.00390730822 -0.00920504605 0.012000001
v -0.00390730822 0.00920504535 0.00999999809
v -0.00390730822 0.00920504535 0.012000001
v -0.00358367884 -0.00933580434 0.00999999809
v -0.00374607051 -0.0092718414 0.012000001
v -0.00374607051 0.00927184069 0.00999999809
v -0.00358367884 0.00933580363 0.012000001
v -0.00325568164 -0.00945518529 0.00999999809
v -0.00342019999 -0.00939692533 0.012000001
v -0.00342019999 0.00939692462 0.00999999809
v -0.00325568164 0.00945518458 0.012000001
v -0.00309017146 -0.00951056516 0.00999999809
v -0.00309017146 -0.00951056516 0.012000001
v -0.00309017146 0.00951056445 0.00999999809
v -0.00309017146 0.00951056445 0.012000001
v -0.00275637591 -0.00961261785 0.00999999809
v -0.00292371714 -0.00956304586 0.012000001
v -0.00292371714 0.00956304515 0.00999999809
v -0.00275637591 0.00961261714 0.012000001
v -0.00258818591 -0.00965926206 0.00999999809
v -0.00258818591 -0.00965926206 0.012000001
v -0.00258818591 0.00965926135 0.00999999809
v -0.00258818591 0.00965926135 0.012000001
v -0.00241922343 -0.00970295942 0.00999999809
v -0.00241922343 -0.00970295942 0.012000001
v -0.00241922343 0.00970295871 0.00999999809
v -0.00241922343 0.00970295871 0.012000001
v -0.00207911456 -0.00978147542 0.00999999809
v -0.00207911456 -0.00978147542 0.012000001
v -0.00224950755 -0.00974370038 0.00999999809
v -0.00224950755 -0.00974370038 0.012000001
v -0.00224950755 0.00974369967 0.00999999809
v -0.00224950755 0.00974369967 0.012000001
v -0.00207911456 0.00978147471 0.00999999809
v -0.00207911456 0.00978147471 0.012000001
v -0.00190809214 -0.009816275 0.00999999809
v -0.00190809214 -0.009816275 0.012000001
v -0.00190809214 0.00981627429 0.00999999809
v -0.00190809214 0.00981627429 0.012000001
v -0.00156434024 -0.009876881 0.00999999809
v -0.00173647845 -0.00984808004 0.012000001
v -0.00173647845 0.00984807933 0.00999999809
v -0.00156434024 0.00987688029 0.012000001
v -0.00139173472 -0.00990267789 0.00999999809
v -0.00139173472 -0.00990267789 0.012000001
v -0.0012857529 -0.000772552845 0.00999999809
v -0.00125801051 -0.000816955921 0.012000001
v -0.00140953982 -0.000513029453 0.00999999809
v -0.00129903758 -0.000749998447 0.012000001
v -0.00147721255 -0.000260467884 0.00999999809
v -0.00141827548 -0.000488348362 0.012000001
v -0.00149999583 -3.54727886e-10 0.00999999809
v -0.0014815327 -0.00023465192 0.012000001
v -0.0014815327 0.000234651211 0.00999999809
v -0.00149976695 2.61780053e-05 0.012000001
v -0.00141827548 0.000488347652 0.00999999809
v -0.00147721255 0.000260476711 0.012000001
v -0.00129903758 0.000749997738 0.00999999809
v -0.00140953982 0.000513028744 0.012000001
v -0.00125801051 0.000816955212 0.00999999809
v -0.0012857529 0.000772561672 0.012000001
v -0.00139173472 0.00990267718 0.00999999809
v -0.00139173472 0.00990267718 0.012000001
v -0.00104528392 -0.0099452213 0.00999999809
v -0.00121869052 -0.00992546117 0.012000001
v -0.00111472094 -0.00100369489 0.00999999809
v -0.00100369418 -0.00111472165 0.012000001
v -0.00124355281 -0.000838785526 0.00999999809
v -0.00113206828 -0.000984087345 0.012000001
v -0.00113206828 0.000984086636 0.00999999809
v -0.00124355281 0.000838784817 0.012000001
v -0.00106065715 0.00106065715 0.00999999809
v -0.00106065715 0.00106065715 0.012000001
v -0.00121869052 0.00992546046 0.00999999809
v -0.00104528392 0.00994522059 0.012000001
v -0.000871553066 -0.00996194875 0.00999999809
v -0.000871553066 -0.00996194875 0.012000001
v -0.000816955212 -0.00125800168 0.00999999809
v -0.000772561672 -0.0012857536 0.012000001
v -0.000984086636 -0.00113206899 0.00999999809
v -0.000838784817 -0.00124355352 0.012000001
v -0.000838784817 0.00124355281 0.00999999809
v -0.000984086636 0.00113206828 0.012000001
v -0.000772561672 0.0012857529 0.00999999809
v -0.000816955212 0.00125801051 0.012000001
v -0.000871553066 0.00996194804 0.00999999809
v -0.000871553066 0.00996194804 0.012000001
v -0.000523357037 -0.00998629605 0.00999999809
v -0.000697564724 -0.00997564351 0.012000001
v -0.000749997738 -0.00129903829 0.00999999809
v -0.000513028744 -0.00140954053 0.012000001
v -0.000513028744 0.00140953982 0.00999999809
v -0.000749997738 0.00129903758 0.012000001
v -0.000697564724 0.0099756428 0.00999999809
v -0.000523357037 0.00998629535 0.012000001
v -0.000348996761 -0.00999390638 0.00999999809
v -0.000348996761 -0.00999390638 0.012000001
v -0.000488347652 -0.00141827619 0.00999999809
v -0.000260476711 -0.00147721326 0.012000001
v -0.000260476711 0.00147721255 0.00999999809
v -0.000488347652 0.00141827548 0.012000001
v -0.000348996761 0.00999390567 0.00999999809
v -0.000348996761 0.00999390567 0.012000001
v -0.000174522045 -0.00999847448 0.00999999809
v -0.000174522045 -0.00999847448 0.012000001
v -0.000234651211 -0.00148153341 0.00999999809
v -2.61780053e-05 -0.00149976766 0.012000001
v -2.61780053e-05 0.00149976695 0.00999999809
v -0.000234651211 0.0014815327 0.012000001
v -0.000174522045 0.00999847377 0.00999999809
v -0.000174522045 0.00999847377 0.012000001
v 3.54727886e-10 -0.0100000004 0.00999999809
v 3.54727886e-10 -0.0100000004 0.012000001
v 0.000174522755 -0.00999847448 0.00999999809
v 0.000174522755 -0.00999847448 0.012000001
v 3.54727886e-10 -0.00149999654 0.00999999809
v 0.00023465192 -0.00148153341 0.012000001
v 0.00023465192 0.0014815327 0.00999999809
v 3.54727886e-10 0.00149999583 0.012000001
v 3.54727886e-10 0.00999999965 0.00999999809
v 0.000174522755 0.00999847377 0.012000001
v 0.000348997471 -0.00999390638 0.00999999809
v 0.000348997471 -0.00999390638 0.012000001
v 0.000260467884 -0.00147721326 0.00999999809
v 0.000488348362 -0.00141827619 0.012000001
v 0.000488348362 0.00141827548 0.00999999809
v 0.000260467884 0.00147721255 0.012000001
v 0.000348997471 0.00999390567 0.00999999809
v 0.000348997471 0.00999390567 0.012000001
v 0.000697565433 -0.00997564351 0.00999999809
v 0.000523357746 -0.00998629605 0.012000001
v 0.000513029453 -0.00140954053 0.00999999809
v 0.000749998447 -0.00129903829 0.012000001
v 0.000749998447 0.00129903758 0.00999999809
v 0.000513029453 0.00140953982 0.012000001
v 0.000523357746 0.00998629535 0.00999999809
v 0.000697565433 0.0099756428 0.012000001
v 0.000871553776 -0.00996194875 0.00999999809
v 0.000871553776 -0.00996194875 0.012000001
v 0.000772552845 -0.0012857536 0.00999999809
v 0.000816955921 -0.00125800168 0.012000001
v 0.000838785526 -0.00124355352 0.00999999809
v 0.000984087345 -0.00113206899 0.012000001
v 0.000984087345 0.00113206828 0.00999999809
v 0.000838785526 0.00124355281 0.012000001
v 0.000816955921 0.00125801051 0.00999999809
v 0.000772552845 0.0012857529 0.012000001
v 0.000871553776 0.00996194804 0.00999999809
v 0.000871553776 0.00996194804 0.012000001
v 0.00121869123 -0.00992546117 0.00999999809
v 0.00104528463 -0.0099452213 0.012000001
v 0.00100369489 -0.00111472165 0.00999999809
v 0.00111472165 -0.00100369489 0.012000001
v 0.00113206899 -0.000984087345 0.00999999809
v 0.00124355352 -0.000838785526 0.012000001
v 0.00124355352 0.000838784817 0.00999999809
v 0.00113206899 0.000984086636 0.012000001
v 0.00111472165 0.00100369418 0.00999999809
v 0.00100369489 0.00111472094 0.012000001
v 0.00104528463 0.00994522059 0.00999999809
v 0.00121869123 0.00992546046 0.012000001
v 0.00139173543 -0.00990267789 0.00999999809
v 0.00139173543 -0.00990267789 0.012000001
v 0.00125800168 -0.000816955921 0.00999999809
v 0.0012857536 -0.000772552845 0.012000001
v 0.00129903829 -0.000749998447 0.00999999809
v 0.00140954053 -0.000513029453 0.012000001
v 0.00141827619 -0.000488348362 0.00999999809
v 0.00147721326 -0.000260467884 0.012000001
v 0.00148153341 -0.00023465192 0.00999999809
v 0.00149999654 -3.54727886e-10 0.012000001
v 0.00149976766 2.61780053e-05 0.00999999809
v 0.00148153341 0.000234651211 0.012000001
v 0.00147721326 0.000260476711 0.00999999809
v 0.00141827619 0.000488347652 0.012000001
v 0.00140954053 0.000513028744 0.00999999809
v 0.00129903829 0.000749997738 0.012000001
v 0.0012857536 0.000772561672 0.00999999809
v 0.00125800168 0.000816955212 0.012000001
v 0.00139173543 0.00990267718 0.00999999809
v 0.00139173543 0.00990267718 0.012000001
v 0.00173647916 -0.00984808004 0.00999999809
v 0.00156434095 -0.009876881 0.012000001
v 0.00156434095 0.00987688029 0.00999999809
v 0.00173647916 0.00984807933 0.012000001
v 0.00190809285 -0.009816275 0.00999999809
v 0.00190809285 -0.009816275 0.012000001
v 0.00190809285 0.00981627429 0.00999999809
v 0.00190809285 0.00981627429 0.012000001
v 0.00207911527 -0.00978147542 0.00999999809
v 0.00207911527 -0.00978147542 0.012000001
v 0.00224950826 -0.00974370038 0.00999999809
v 0.00224950826 -0.00974370038 0.012000001
v 0.00224950826 0.00974369967 0.00999999809
v 0.00224950826 0.00974369967 0.012000001
v 0.00207911527 0.00978147471 0.00999999809
v 0.00207911527 0.00978147471 0.012000001
v 0.0024192146 -0.00970295942 0.00999999809
v 0.0024192146 -0.00970295942 0.012000001
v 0.0024192146 0.00970295871 0.00999999809
v 0.0024192146 0.00970295871 0.012000001
v 0.00258818662 -0.00965926206 0.00999999809
v 0.00258818662 -0.00965926206 0.012000001
v 0.00258818662 0.00965926135 0.00999999809
v 0.00258818662 0.00965926135 0.012000001
v 0.00292371785 -0.00956304586 0.00999999809
v 0.00275637662 -0.00961261785 0.012000001
v 0.00275637662 0.00961261714 0.00999999809
v 0.00292371785 0.00956304515 0.012000001
v 0.00309017217 -0.00951056516 0.00999999809
v 0.00309017217 -0.00951056516 0.012000001
v 0.00309017217 0.00951056445 0.00999999809
v 0.00309017217 0.00951056445 0.012000001
v 0.0034202007 -0.00939692533 0.00999999809
v 0.00325568235 -0.00945518529 0.012000001
v 0.00325568235 0.00945518458 0.00999999809
v 0.0034202007 0.00939692462 0.012000001
v 0.00374606168 -0.0092718414 0.00999999809
v 0.00358367955 -0.00933580434 0.012000001
v 0.00358367955 0.00933580363 0.00999999809
v 0.00374606168 0.00927184069 0.012000001
v 0.00390730893 -0.00920504605 0.00999999809
v 0.00390730893 -0.00920504605 0.012000001
v 0.00390730893 0.00920504535 0.00999999809
v 0.00390730893 0.00920504535 0.012000001
v 0.00422617948 -0.0090630821 0.00999999809
v 0.00406736409 -0.00913545644 0.012000001
v 0.00406736409 0.00913545573 0.00999999809
v 0.00422617948 0.00906308139 0.012000001
v 0.0043837074 -0.0089879421 0.00999999809
v 0.0043837074 -0.0089879421 0.012000001
v 0.0043837074 0.00898794139 0.00999999809
v 0.0043837074 0.00898794139 0.012000001
v 0.00469471967 -0.00882947957 0.00999999809
v 0.00453990972 -0.00891006505 0.012000001
v 0.00473431623 -0.00625596082 0.00999999809
v 0.00474491155 -0.00627196347 0.012000001
v 0.0046167854 -0.00601497686 0.00999999809
v 0.00472399747 -0.00623976743 0.012000001
v 0.00456104314 -0.00575272596 0.00999999809
v 0.00461069143 -0.00599677121 0.012000001
v 0.00456755674 -0.00550375974 0.00999999809
v 0.00455953633 -0.00573358571 0.012000001
v 0.0046299175 -0.0052626518 0.00999999809
v 0.00457039869 -0.00548477208 0.012000001
v 0.00474491155 -0.00504174268 0.00999999809
v 0.00463695562 -0.00524478948 0.012000001
v 0.00453990972 0.00891006434 0.00999999809
v 0.00469471967 0.00882947886 0.012000001
v 0.00484809911 -0.00874619519 0.00999999809
v 0.00484809911 -0.00874619519 0.012000001
v 0.00496459996 -0.0065117172 0.00999999809
v 0.00499486005 -0.00653534925 0.012000001
v 0.00475578344 -0.00628778493 0.00999999809
v 0.0049497894 -0.00649950063 0.012000001
v 0.00476693189 -0.0050102905 0.00999999809
v 0.00475578344 -0.00502592122 0.012000001
v 0.0048790363 -0.0048790363 0.00999999809
v 0.0048790363 -0.0048790363 0.012000001
v 0.00484809911 0.00874619448 0.00999999809
v 0.00484809911 0.00874619448 0.012000001
v 0.00515038526 -0.00857167279 0.00999999809
v 0.00500000035 -0.00866025006 0.012000001
v 0.0050102905 -0.00654677427 0.00999999809
v 0.00524478948 -0.00667676007 0.012000001
v 0.00502592122 -0.00475578344 0.00999999809
v 0.0050102905 -0.00476693189 0.012000001
v 0.00524478948 -0.00463695562 0.00999999809
v 0.00504174268 -0.00474491155 0.012000001
v 0.00500000035 0.00866024936 0.00999999809
v 0.00515038526 0.00857167208 0.012000001
v 0.00544638669 -0.00838670766 0.00999999809
v 0.0052991966 -0.00848048246 0.012000001
v 0.0052626518 -0.00668378865 0.00999999809
v 0.00548477208 -0.00674330747 0.012000001
v 0.00548477208 -0.00457039869 0.00999999809
v 0.0052626518 -0.0046299175 0.012000001
v 0.0052991966 0.00848048175 0.00999999809
v 0.00544638669 0.00838670695 0.012000001
v 0.00559192693 -0.00829037702 0.00999999809
v 0.00559192693 -0.00829037702 0.012000001
v 0.00573576009 -0.00819151914 0.00999999809
v 0.00573576009 -0.00819151914 0.012000001
v 0.00554186856 -0.00675083196 0.00999999809
v 0.00573358571 -0.00675417936 0.012000001
v 0.00550375974 -0.00674614942 0.00999999809
v 0.00552279508 -0.00674865758 0.012000001
v 0.00573358571 -0.00455953633 0.00999999809
v 0.00550375974 -0.00456755674 0.012000001
v 0.00573576009 0.00819151843 0.00999999809
v 0.00573576009 0.00819151843 0.012000001
v 0.00559192693 0.00829037631 0.00999999809
v 0.00559192693 0.00829037631 0.012000001
v 0.00587784803 -0.00809017217 0.00999999809
v 0.00587784803 -0.00809017217 0.012000001
v 0.00575272596 -0.00675267255 0.00999999809
v 0.00577183759 -0.00675083196 0.012000001
v 0.00579091108 -0.00674865758 0.00999999809
v 0.00599677121 -0.00670301473 0.012000001
v 0.00599677121 -0.00461069143 0.00999999809
v 0.00575272596 -0.00456104314 0.012000001
v 0.00587784803 0.00809017146 0.00999999809
v 0.00587784803 0.00809017146 0.012000001
v 0.00615661657 -0.00788010633 0.00999999809
v 0.00601815259 -0.00798635518 0.012000001
v 0.00601497686 -0.00669692075 0.00999999809
v 0.00623976743 -0.00658970868 0.012000001
v 0.00623976743 -0.00472399747 0.00999999809
v 0.00601497686 -0.0046167854 0.012000001
v 0.00601815259 0.00798635447 0.00999999809
v 0.00615661657 0.00788010562 0.012000001
v 0.0062932018 -0.00777146375 0.00999999809
v 0.0062932018 -0.00777146375 0.012000001
v 0.00642787969 -0.00766044652 0.00999999809
v 0.00642787969 -0.00766044652 0.012000001
v 0.00625596082 -0.00657938993 0.00999999809
v 0.00634910619 -0.0065117172 0.012000001
v 0.00636391675 -0.00649950063 0.00999999809
v 0.00649950063 -0.00636391675 0.012000001
v 0.00649950063 -0.0049497894 0.00999999809
v 0.00628778493 -0.00475578344 0.012000001
v 0.00627196347 -0.00474491155 0.00999999809
v 0.00625596082 -0.00473431623 0.012000001
v 0.00642787969 0.00766044581 0.00999999809
v 0.00642787969 0.00766044581 0.012000001
v 0.0062932018 0.00777146304 0.00999999809
v 0.0062932018 0.00777146304 0.012000001
v 0.00656059301 -0.00754709279 0.00999999809
v 0.00656059301 -0.00754709279 0.012000001
v 0.00669130361 -0.00743145024 0.00999999809
v 0.00669130361 -0.00743145024 0.012000001
v 0.0065117172 -0.00634910619 0.00999999809
v 0.00657938993 -0.00625596082 0.012000001
v 0.00658970868 -0.00623976743 0.00999999809
v 0.00669692075 -0.00601497686 0.012000001
v 0.00670301473 -0.00599677121 0.00999999809
v 0.00674865758 -0.00579091108 0.012000001
v 0.00674865758 -0.00552279508 0.00999999809
v 0.00674614942 -0.00550375974 0.012000001
v 0.00674330747 -0.00548477208 0.00999999809
v 0.00668378865 -0.0052626518 0.012000001
v 0.00667676007 -0.00524478948 0.00999999809
v 0.00654677427 -0.0050102905 0.012000001
v 0.00653534925 -0.00499486005 0.00999999809
v 0.0065117172 -0.00496459996 0.012000001
v 0.00669130361 0.00743144954 0.00999999809
v 0.00669130361 0.00743144954 0.012000001
v 0.00656059301 0.00754709208 0.00999999809
v 0.00656059301 0.00754709208 0.012000001
v 0.00681998288 -0.00731353795 0.00999999809
v 0.00681998288 -0.00731353795 0.012000001
v 0.00694658315 -0.00719339406 0.00999999809
v 0.00694658315 -0.00719339406 0.012000001
v 0.00675083196 -0.00577183759 0.00999999809
v 0.00675267255 -0.00575272596 0.012000001
v 0.00675417936 -0.00573358571 0.00999999809
v 0.00675083196 -0.00554186856 0.012000001
v 0.00694658315 0.00719339335 0.00999999809
v 0.00694658315 0.00719339335 0.012000001
v 0.00681998288 0.00731353724 0.00999999809
v 0.00681998288 0.00731353724 0.012000001
v 0.00707106626 -0.00707106626 0.00999999809
v 0.00707106626 -0.00707106626 0.012000001
v 0.00719339406 -0.00694658315 0.00999999809
v 0.00719339406 -0.00694658315 0.012000001
v 0.00719339406 0.00694658244 0.00999999809
v 0.00719339406 0.00694658244 0.012000001
v 0.00707106626 0.00707106555 0.00999999809
v 0.00707106626 0.00707106555 0.012000001
v 0.00731353795 -0.00681998288 0.00999999809
v 0.00731353795 -0.00681998288 0.012000001
v 0.00743145024 -0.00669130361 0.00999999809
v 0.00743145024 -0.00669130361 0.012000001
v 0.00743145024 0.0066913029 0.00999999809
v 0.00743145024 0.0066913029 0.012000001
v 0.00731353795 0.00681998217 0.00999999809
v 0.00731353795 0.00681998217 0.012000001
v 0.00754709279 -0.00656059301 0.00999999809
v 0.00754709279 -0.00656059301 0.012000001
v 0.00766044652 -0.00642787969 0.00999999809
v 0.00766044652 -0.00642787969 0.012000001
v 0.00766044652 0.00642787898 0.00999999809
v 0.00766044652 0.00642787898 0.012000001
v 0.00754709279 0.0065605923 0.00999999809
v 0.00754709279 0.0065605923 0.012000001
v 0.00777146375 -0.0062932018 0.00999999809
v 0.00777146375 -0.0062932018 0.012000001
v 0.00798635518 -0.00601815259 0.00999999809
v 0.00788010633 -0.00615661657 0.012000001
v 0.00788010633 0.00615661586 0.00999999809
v 0.00798635518 0.00601815188 0.012000001
v 0.00777146375 0.00629320109 0.00999999809
v 0.00777146375 0.00629320109 0.012000001
v 0.00809017217 -0.00587784803 0.00999999809
v 0.00809017217 -0.00587784803 0.012000001
v 0.00819151914 -0.00573576009 0.00999999809
v 0.00819151914 -0.00573576009 0.012000001
v 0.00819151914 0.00573576892 0.00999999809
v 0.00819151914 0.00573576892 0.012000001
v 0.00809017217 0.00587785685 0.00999999809
v 0.00809017217 0.00587785685 0.012000001
v 0.00829037702 -0.00559192693 0.00999999809
v 0.00829037702 -0.00559192693 0.012000001
v 0.00848048246 -0.0052991966 0.00999999809
v 0.00838670766 -0.00544638669 0.012000001
v 0.00838670766 0.00544638598 0.00999999809
v 0.00848048246 0.00529919589 0.012000001
v 0.00829037702 0.00559192622 0.00999999809
v 0.00829037702 0.00559192622 0.012000001
v 0.00866025006 -0.00500000035 0.00999999809
v 0.00857167279 -0.00515038526 0.012000001
v 0.00874619519 -0.00484809911 0.00999999809
v 0.00874619519 -0.00484809911 0.012000001
v 0.00866025006 0.00499999965 0.00999999809
v 0.00874619519 0.0048480984 0.012000001
v 0.00857167279 0.00515038455 0.00999999809
v 0.00857167279 0.00515038455 0.012000001
v 0.00891006505 -0.00453990972 0.00999999809
v 0.00882947957 -0.00469471967 0.012000001
v 0.0089879421 -0.0043837074 0.00999999809
v 0.0089879421 -0.0043837074 0.012000001
v 0.0089879421 0.00438371623 0.00999999809
v 0.0089879421 0.00438371623 0.012000001
v 0.00882947957 0.00469471896 0.00999999809
v 0.00891006505 0.00453990901 0.012000001
v 0.00913545644 -0.00406736409 0.00999999809
v 0.0090630821 -0.00422617948 0.012000001
v 0.00920504605 -0.00390730893 0.00999999809
v 0.00920504605 -0.00390730893 0.012000001
v 0.00920504605 0.00390730822 0.00999999809
v 0.00920504605 0.00390730822 0.012000001
v 0.0090630821 0.00422617877 0.00999999809
v 0.00913545644 0.00406736338 0.012000001
v 0.00933580434 -0.00358367955 0.00999999809
v 0.0092718414 -0.00374606168 0.012000001
v 0.00945518529 -0.00325568235 0.00999999809
v 0.00939692533 -0.0034202007 0.012000001
v 0.00939692533 0.00342019999 0.00999999809
v 0.00945518529 0.00325568164 0.012000001
v 0.0092718414 0.00374607051 0.00999999809
v 0.00933580434 0.00358367884 0.012000001
v 0.00951056516 -0.00309017217 0.00999999809
v 0.00951056516 -0.00309017217 0.012000001
v 0.00961261785 -0.00275637662 0.00999999809
v 0.00956304586 -0.00292371785 0.012000001
v 0.00965926206 -0.00258818662 0.00999999809
v 0.00965926206 -0.00258818662 0.012000001
v 0.00970295942 -0.0024192146 0.00999999809
v 0.00970295942 -0.0024192146 0.012000001
v 0.00974370038 -0.00224950826 0.00999999809
v 0.00974370038 -0.00224950826 0.012000001
v 0.00974370038 0.00224950755 0.00999999809
v 0.00974370038 0.00224950755 0.012000001
v 0.00970295942 0.00241922343 0.00999999809
v 0.00970295942 0.00241922343 0.012000001
v 0.00965926206 0.00258818591 0.00999999809
v 0.00965926206 0.00258818591 0.012000001
v 0.00956304586 0.00292371714 0.00999999809
v 0.00961261785 0.00275637591 0.012000001
v 0.00951056516 0.00309017146 0.00999999809
v 0.00951056516 0.00309017146 0.012000001
v 0.00978147542 -0.00207911527 0.00999999809
v 0.00978147542 -0.00207911527 0.012000001
v 0.009816275 -0.00190809285 0.00999999809
v 0.009816275 -0.00190809285 0.012000001
v 0.009876881 -0.00156434095 0.00999999809
v 0.00984808004 -0.00173647916 0.012000001
v 0.00990267789 -0.00139173543 0.00999999809
v 0.00990267789 -0.00139173543 0.012000001
v 0.0099452213 -0.00104528463 0.00999999809
v 0.00992546117 -0.00121869123 0.012000001
v 0.00996194875 -0.000871553776 0.00999999809
v 0.00996194875 -0.000871553776 0.012000001
v 0.00998629605 -0.000523357746 0.00999999809
v 0.00997564351 -0.000697565433 0.012000001
v 0.00999390638 -0.000348997471 0.00999999809
v 0.00999390638 -0.000348997471 0.012000001
v 0.00999847448 -0.000174522755 0.00999999809
v 0.00999847448 -0.000174522755 0.012000001
v 0.00999847448 0.000174522045 0.00999999809
v 0.00999847448 0.000174522045 0.012000001
v 0.00999390638 0.000348996761 0.00999999809
v 0.00999390638 0.000348996761 0.012000001
v 0.00997564351 0.000697564724 0.00999999809
v 0.00998629605 0.000523357037 0.012000001
v 0.00996194875 0.000871553066 0.00999999809
v 0.00996194875 0.000871553066 0.012000001
v 0.00992546117 0.00121869052 0.00999999809
v 0.0099452213 0.00104528392 0.012000001
v 0.00990267789 0.00139173472 0.00999999809
v 0.00990267789 0.00139173472 0.012000001
v 0.00984808004 0.00173647845 0.00999999809
v 0.009876881 0.00156434024 0.012000001
v 0.009816275 0.00190809214 0.00999999809
v 0.009816275 0.00190809214 0.012000001
v 0.00978147542 0.00207911456 0.00999999809
v 0.00978147542 0.00207911456 0.012000001
v 0.0100000004 -3.54727886e-10 0.00999999809
v 0.0100000004 -3.54727886e-10 0.012000001
f 1 2 3
f 1 46 2
f 3 309 1
f 45 46 1
f 1 301 45
f 1 309 301
f 3 2 4
f 2 324 4
f 46 324 2
f 3 4 5
f 5 313 3
f 3 313 309
f 5 4 6
f 4 324 6
f 5 6 7
f 7 317 5
f 5 317 313
f 7 6 8
f 6 326 8
f 6 324 326
f 7 8 9
f 9 337 7
f 7 337 317
f 9 8 10
f 8 326 10
f 9 10 11
f 11 349 9
f 9 349 337
f 11 10 12
f 10 326 12
f 11 12 13
f 13 361 11
f 11 361 349
f 13 12 14
f 12 326 14
f 13 14 15
f 15 369 13
f 13 369 361
f 15 14 16
f 14 326 16
f 15 16 17
f 17 377 15
f 15 377 369
f 17 16 18
f 16 326 18
f 17 18 19
f 19 387 17
f 17 385 377
f 17 387 385
f 19 18 20
f 18 326 20
f 19 20 21
f 21 395 19
f 19 395 387
f 21 20 22
f 20 326 22
f 21 22 23
f 23 403 21
f 21 403 395
f 23 22 24
f 22 326 24
f 23 24 25
f 25 411 23
f 23 411 403
f 25 24 26
f 24 326 26
f 25 26 27
f 27 423 25
f 25 423 411
f 27 26 28
f 26 326 28
f 27 28 29
f 29 435 27
f 27 435 423
f 29 28 30
f 28 178 30
f 28 326 178
f 29 30 31
f 31 455 29
f 29 455 435
f 31 30 32
f 30 178 32
f 31 32 33
f 33 459 31
f 31 459 455
f 33 32 34
f 32 178 34
f 33 34 35
f 35 463 33
f 33 463 459
f 35 34 36
f 34 178 36
f 35 36 47
f 47 465 35
f 35 465 463
f 47 36 48
f 36 178 48
f 37 38 39
f 37 60 38
f 39 289 37
f 59 60 37
f 37 285 59
f 37 289 285
f 39 38 40
f 38 324 40
f 60 324 38
f 39 40 41
f 41 293 39
f 39 293 289
f 41 40 42
f 40 324 42
f 41 42 43
f 43 297 41
f 41 297 293
f 43 42 44
f 42 324 44
f 43 44 45
f 45 303 43
f 43 303 297
f 45 44 46
f 44 324 46
f 45 301 303
f 47 48 49
f 49 471 47
f 47 471 465
f 49 48 50
f 48 178 50
f 49 50 51
f 51 475 49
f 49 475 471
f 51 50 52
f 50 178 52
f 51 52 53
f 53 479 51
f 51 479 475
f 53 52 54
f 52 178 54
f 53 54 55
f 55 483 53
f 53 483 479
f 55 54 56
f 54 178 56
f 55 56 61
f 61 487 55
f 55 487 483
f 61 56 62
f 56 178 62
f 57 58 59
f 57 68 58
f 59 281 57
f 67 68 57
f 57 277 67
f 57 281 277
f 59 58 60
f 58 322 60
f 68 322 58
f 59 285 281
f 60 322 324
f 61 62 63
f 63 491 61
f 61 491 487
f 63 62 64
f 62 178 64
f 63 64 69
f 69 495 63
f 63 495 491
f 69 64 70
f 64 178 70
f 65 66 67
f 65 76 66
f 67 273 65
f 75 76 65
f 65 269 75
f 65 273 269
f 67 66 68
f 66 322 68
f 76 322 66
f 67 277 273
f 69 70 71
f 71 499 69
f 69 499 495
f 71 70 72
f 70 178 72
f 71 72 77
f 77 339 71
f 71 339 499
f 77 72 78
f 178 78 72
f 73 74 75
f 73 84 74
f 75 265 73
f 83 84 73
f 73 249 83
f 73 265 249
f 75 74 76
f 74 322 76
f 84 322 74
f 75 269 265
f 77 78 79
f 79 339 77
f 79 78 80
f 178 80 78
f 79 80 85
f 85 339 79
f 85 80 86
f 80 154 86
f 178 154 80
f 81 82 83
f 81 92 82
f 83 237 81
f 91 92 81
f 81 227 91
f 81 237 227
f 83 82 84
f 82 322 84
f 92 320 82
f 82 320 322
f 83 249 237
f 85 86 87
f 87 339 85
f 87 86 88
f 86 156 88
f 154 156 86
f 87 88 93
f 93 339 87
f 93 88 94
f 88 156 94
f 89 90 91
f 89 100 90
f 91 219 89
f 99 100 89
f 89 205 99
f 89 219 205
f 91 90 92
f 90 342 92
f 100 342 90
f 91 227 219
f 92 342 320
f 93 94 95
f 95 339 93
f 95 94 96
f 94 158 96
f 94 156 158
f 95 96 101
f 101 339 95
f 101 96 102
f 96 158 102
f 97 98 99
f 97 108 98
f 99 207 97
f 107 108 97
f 97 195 107
f 97 207 195
f 99 98 100
f 98 342 100
f 108 342 98
f 99 205 207
f 101 102 103
f 103 339 101
f 103 102 104
f 102 158 104
f 103 104 109
f 109 141 103
f 141 159 103
f 155 153 103
f 153 177 103
f 157 155 103
f 103 159 157
f 177 321 103
f 103 321 319
f 103 319 341
f 103 341 339
f 109 104 110
f 104 142 110
f 160 142 104
f 104 158 160
f 105 106 107
f 105 116 106
f 107 187 105
f 115 116 105
f 105 171 115
f 105 187 171
f 107 106 108
f 106 342 108
f 116 342 106
f 107 195 187
f 109 110 111
f 111 143 109
f 109 143 141
f 111 110 112
f 110 144 112
f 110 142 144
f 111 112 117
f 117 161 111
f 161 143 111
f 117 112 118
f 112 162 118
f 112 144 162
f 113 114 115
f 113 124 114
f 115 173 113
f 123 124 113
f 113 149 123
f 113 173 149
f 115 114 116
f 114 342 116
f 124 340 114
f 114 340 342
f 115 171 173
f 117 118 119
f 119 161 117
f 119 118 120
f 118 162 120
f 119 120 125
f 125 163 119
f 163 161 119
f 125 120 126
f 120 164 126
f 120 162 164
f 121 122 123
f 121 132 122
f 123 151 121
f 131 132 121
f 121 137 131
f 121 151 137
f 123 122 124
f 122 340 124
f 132 340 122
f 123 149 151
f 125 126 127
f 127 163 125
f 127 126 128
f 126 164 128
f 127 128 133
f 133 165 127
f 127 165 163
f 133 128 134
f 128 166 134
f 164 166 128
f 129 130 131
f 129 140 130
f 131 139 129
f 139 140 129
f 131 130 132
f 130 340 132
f 140 340 130
f 131 137 139
f 133 134 135
f 135 179 133
f 179 165 133
f 135 134 136
f 134 180 136
f 134 166 180
f 135 136 145
f 145 179 135
f 145 136 146
f 136 180 146
f 137 138 139
f 137 152 138
f 151 152 137
f 139 138 140
f 138 340 140
f 152 340 138
f 141 144 142
f 141 142 159
f 143 144 141
f 159 142 160
f 143 162 144
f 161 162 143
f 145 146 147
f 147 181 145
f 145 181 179
f 147 146 148
f 146 182 148
f 180 182 146
f 147 148 167
f 167 191 147
f 191 181 147
f 167 148 168
f 148 192 168
f 148 182 192
f 149 150 151
f 149 174 150
f 173 174 149
f 151 150 152
f 150 340 152
f 174 340 150
f 153 156 154
f 153 154 177
f 155 156 153
f 177 154 178
f 155 158 156
f 157 158 155
f 157 160 158
f 159 160 157
f 161 164 162
f 163 164 161
f 163 166 164
f 165 166 163
f 165 180 166
f 179 180 165
f 167 168 169
f 169 191 167
f 169 168 170
f 168 192 170
f 169 170 183
f 183 199 169
f 169 199 191
f 183 170 184
f 170 200 184
f 192 200 170
f 171 172 173
f 171 188 172
f 187 188 171
f 173 172 174
f 172 340 174
f 188 340 172
f 175 178 176
f 175 176 189
f 177 178 175
f 177 175 325
f 325 175 189
f 326 176 178
f 189 176 190
f 326 190 176
f 177 323 321
f 177 325 323
f 179 182 180
f 181 182 179
f 181 192 182
f 191 192 181
f 183 184 185
f 185 199 183
f 185 184 186
f 184 200 186
f 185 186 193
f 193 201 185
f 185 201 199
f 193 186 194
f 186 202 194
f 200 202 186
f 187 196 188
f 195 196 187
f 196 340 188
f 189 190 197
f 325 189 197
f 197 190 198
f 198 190 326
f 191 200 192
f 199 200 191
f 193 194 203
f 193 213 201
f 203 213 193
f 194 202 214
f 203 194 204
f 194 214 204
f 195 208 196
f 207 208 195
f 208 340 196
f 197 198 209
f 325 197 209
f 209 198 210
f 326 210 198
f 199 202 200
f 201 202 199
f 201 214 202
f 213 214 201
f 203 204 215
f 211 213 203
f 203 223 211
f 215 223 203
f 214 212 204
f 204 212 224
f 215 204 216
f 204 432 216
f 224 234 204
f 234 246 204
f 246 244 204
f 244 408 204
f 204 408 420
f 204 420 418
f 204 418 432
f 205 206 207
f 205 220 206
f 219 220 205
f 207 206 208
f 206 340 208
f 220 340 206
f 209 210 221
f 329 209 221
f 325 209 327
f 327 209 329
f 221 210 222
f 330 222 210
f 328 210 326
f 330 210 328
f 211 212 213
f 211 224 212
f 223 224 211
f 213 212 214
f 215 216 217
f 217 223 215
f 217 216 218
f 216 432 218
f 217 218 225
f 225 223 217
f 225 218 226
f 218 432 226
f 219 228 220
f 227 228 219
f 228 340 220
f 221 222 229
f 331 221 229
f 329 221 331
f 229 222 230
f 332 230 222
f 332 222 330
f 223 234 224
f 225 233 223
f 233 234 223
f 225 226 235
f 235 233 225
f 235 226 236
f 226 432 236
f 227 238 228
f 237 238 227
f 238 340 228
f 229 230 231
f 343 229 231
f 331 229 333
f 333 229 343
f 231 230 232
f 344 232 230
f 334 230 332
f 344 230 334
f 231 232 239
f 343 231 239
f 239 232 240
f 344 240 232
f 233 246 234
f 247 233 235
f 245 246 233
f 245 233 247
f 235 236 247
f 247 236 248
f 236 432 248
f 237 250 238
f 249 250 237
f 250 340 238
f 239 240 241
f 355 239 241
f 343 239 345
f 345 239 355
f 241 240 242
f 356 242 240
f 346 240 344
f 356 240 346
f 241 242 251
f 355 241 251
f 251 242 252
f 356 252 242
f 243 244 245
f 243 262 244
f 243 245 263
f 261 262 243
f 391 261 243
f 243 263 267
f 243 267 271
f 275 243 271
f 279 243 275
f 283 243 279
f 287 243 283
f 291 243 287
f 295 243 291
f 299 243 295
f 305 243 299
f 307 243 305
f 311 243 307
f 315 243 311
f 335 243 315
f 347 243 335
f 347 391 243
f 245 244 246
f 244 262 392
f 244 392 400
f 244 400 408
f 263 245 247
f 247 248 263
f 263 248 264
f 248 432 264
f 249 266 250
f 265 266 249
f 266 340 250
f 251 252 253
f 365 251 253
f 355 251 357
f 357 251 365
f 253 252 254
f 366 254 252
f 358 252 356
f 366 252 358
f 253 254 255
f 373 253 255
f 365 253 373
f 255 254 256
f 374 256 254
f 374 254 366
f 255 256 257
f 391 255 257
f 373 255 381
f 381 255 391
f 257 256 258
f 392 258 256
f 382 256 374
f 392 256 382
f 257 258 259
f 257 259 391
f 259 258 260
f 392 260 258
f 259 260 261
f 391 259 261
f 261 260 262
f 392 262 260
f 263 264 267
f 267 264 268
f 264 432 268
f 265 270 266
f 269 270 265
f 270 340 266
f 267 268 271
f 271 268 272
f 268 432 272
f 269 274 270
f 273 274 269
f 274 340 270
f 271 272 275
f 275 272 276
f 272 432 276
f 273 278 274
f 277 278 273
f 278 340 274
f 275 276 279
f 279 276 280
f 276 432 280
f 277 282 278
f 281 282 277
f 282 340 278
f 279 280 283
f 283 280 284
f 280 432 284
f 281 286 282
f 285 286 281
f 286 340 282
f 283 284 287
f 287 284 288
f 284 432 288
f 285 290 286
f 289 290 285
f 290 340 286
f 287 288 291
f 291 288 292
f 288 432 292
f 289 294 290
f 293 294 289
f 294 340 290
f 291 292 295
f 295 292 296
f 292 432 296
f 293 298 294
f 297 298 293
f 298 340 294
f 295 296 299
f 299 296 300
f 296 432 300
f 297 304 298
f 303 304 297
f 304 340 298
f 299 300 305
f 305 300 306
f 300 432 306
f 301 302 303
f 301 310 302
f 309 310 301
f 303 302 304
f 302 340 304
f 310 340 302
f 305 306 307
f 307 306 308
f 306 432 308
f 307 308 311
f 311 308 312
f 308 432 312
f 309 314 310
f 313 314 309
f 314 340 310
f 311 312 315
f 315 312 316
f 312 432 316
f 313 318 314
f 317 318 313
f 318 340 314
f 315 316 335
f 335 316 336
f 316 432 336
f 317 338 318
f 337 338 317
f 338 340 318
f 319 322 320
f 319 320 341
f 321 322 319
f 341 320 342
f 321 324 322
f 323 324 321
f 323 326 324
f 325 326 323
f 325 328 326
f 327 328 325
f 327 330 328
f 329 330 327
f 329 332 330
f 331 332 329
f 331 334 332
f 333 334 331
f 333 344 334
f 343 344 333
f 335 336 347
f 347 336 348
f 336 432 348
f 337 350 338
f 349 350 337
f 350 340 338
f 339 342 340
f 339 340 353
f 341 342 339
f 339 353 499
f 362 340 350
f 353 340 354
f 354 340 568
f 370 340 362
f 378 340 370
f 386 340 378
f 388 340 386
f 396 340 388
f 404 340 396
f 412 340 404
f 424 340 412
f 436 340 424
f 456 340 436
f 460 340 456
f 464 340 460
f 466 340 464
f 472 340 466
f 476 340 472
f 480 340 476
f 484 340 480
f 488 340 484
f 492 340 488
f 496 340 492
f 500 340 496
f 504 340 500
f 508 340 504
f 524 340 508
f 536 340 524
f 546 340 536
f 554 340 546
f 556 340 554
f 568 340 556
f 343 346 344
f 345 346 343
f 345 356 346
f 355 356 345
f 347 348 359
f 359 391 347
f 359 348 360
f 348 432 360
f 349 362 350
f 361 362 349
f 351 354 352
f 351 352 363
f 353 354 351
f 499 353 351
f 499 351 363
f 568 352 354
f 363 352 364
f 568 364 352
f 355 358 356
f 357 358 355
f 357 366 358
f 365 366 357
f 359 360 367
f 367 391 359
f 367 360 368
f 360 432 368
f 361 370 362
f 369 370 361
f 363 364 371
f 499 363 371
f 371 364 372
f 578 372 364
f 578 364 568
f 365 374 366
f 373 374 365
f 367 368 375
f 375 391 367
f 375 368 376
f 368 432 376
f 369 378 370
f 377 378 369
f 371 372 379
f 499 371 379
f 379 372 380
f 578 380 372
f 373 382 374
f 381 382 373
f 375 376 383
f 383 391 375
f 383 376 384
f 376 432 384
f 377 386 378
f 385 386 377
f 379 380 389
f 389 511 379
f 379 527 499
f 511 509 379
f 379 509 527
f 389 380 390
f 380 512 390
f 380 510 512
f 380 528 510
f 578 528 380
f 381 392 382
f 391 392 381
f 383 384 393
f 393 391 383
f 393 384 394
f 384 432 394
f 385 388 386
f 387 388 385
f 387 396 388
f 395 396 387
f 389 390 397
f 397 513 389
f 389 513 511
f 397 390 398
f 390 514 398
f 390 512 514
f 391 400 392
f 401 391 393
f 399 400 391
f 457 399 391
f 409 391 401
f 421 391 409
f 433 391 421
f 453 391 433
f 457 391 453
f 393 394 401
f 401 394 402
f 394 432 402
f 395 404 396
f 403 404 395
f 397 398 405
f 405 517 397
f 397 515 513
f 397 517 515
f 405 398 406
f 398 518 406
f 398 514 516
f 398 516 518
f 399 408 400
f 407 408 399
f 489 407 399
f 461 399 457
f 469 399 461
f 467 399 469
f 473 399 467
f 477 399 473
f 481 399 477
f 485 399 481
f 489 399 485
f 401 402 409
f 409 402 410
f 402 432 410
f 403 412 404
f 411 412 403
f 405 406 413
f 413 519 405
f 405 519 517
f 413 406 414
f 406 520 414
f 406 518 520
f 407 420 408
f 419 420 407
f 543 419 407
f 493 407 489
f 497 407 493
f 501 407 497
f 505 407 501
f 521 407 505
f 533 407 521
f 543 407 533
f 409 410 421
f 421 410 422
f 410 432 422
f 411 424 412
f 423 424 411
f 413 414 415
f 415 519 413
f 415 414 416
f 414 520 416
f 415 416 425
f 425 531 415
f 415 529 519
f 415 531 529
f 425 416 426
f 416 532 426
f 416 520 530
f 416 530 532
f 417 418 419
f 417 432 418
f 551 417 419
f 431 432 417
f 621 431 417
f 565 417 551
f 563 417 565
f 575 417 563
f 583 417 575
f 599 417 583
f 597 417 599
f 621 417 597
f 419 418 420
f 551 419 543
f 421 422 433
f 422 432 434
f 433 422 434
f 423 436 424
f 435 436 423
f 425 426 427
f 531 425 427
f 427 426 428
f 426 532 428
f 427 428 437
f 541 427 437
f 531 427 539
f 539 427 541
f 437 428 438
f 428 542 438
f 428 532 540
f 428 540 542
f 429 430 431
f 429 452 430
f 429 431 667
f 451 452 429
f 667 451 429
f 431 430 432
f 658 432 430
f 662 430 452
f 658 430 656
f 656 430 666
f 668 430 662
f 666 430 664
f 664 430 674
f 670 430 668
f 676 430 670
f 674 430 672
f 672 430 682
f 678 430 676
f 684 430 678
f 682 430 680
f 680 430 690
f 686 430 684
f 692 430 686
f 690 430 688
f 688 430 698
f 694 430 692
f 700 430 694
f 698 430 696
f 696 430 706
f 702 430 700
f 708 430 702
f 706 430 704
f 704 430 714
f 710 430 708
f 716 430 710
f 714 430 712
f 712 430 734
f 718 430 716
f 720 430 718
f 722 430 720
f 724 430 722
f 736 430 724
f 728 430 726
f 726 430 770
f 730 430 728
f 732 430 730
f 734 430 732
f 738 430 736
f 740 430 738
f 742 430 740
f 744 430 742
f 746 430 744
f 748 430 746
f 750 430 748
f 752 430 750
f 772 430 752
f 756 430 754
f 754 430 772
f 758 430 756
f 760 430 758
f 762 430 760
f 764 430 762
f 766 430 764
f 768 430 766
f 770 430 768
f 619 431 621
f 633 431 619
f 631 431 633
f 641 431 631
f 639 431 641
f 649 431 639
f 647 431 649
f 657 431 647
f 655 431 657
f 665 431 655
f 663 431 665
f 673 431 663
f 667 431 669
f 669 431 675
f 671 431 673
f 681 431 671
f 675 431 677
f 677 431 683
f 679 431 681
f 689 431 679
f 683 431 685
f 685 431 691
f 687 431 689
f 697 431 687
f 691 431 693
f 693 431 699
f 695 431 697
f 705 431 695
f 699 431 701
f 701 431 707
f 703 431 705
f 713 431 703
f 707 431 709
f 709 431 715
f 711 431 713
f 733 431 711
f 715 431 717
f 717 431 719
f 719 431 721
f 721 431 723
f 723 431 735
f 725 431 727
f 769 431 725
f 727 431 729
f 729 431 731
f 731 431 733
f 735 431 737
f 737 431 739
f 739 431 741
f 741 431 743
f 743 431 745
f 745 431 747
f 747 431 749
f 749 431 751
f 751 431 771
f 753 431 755
f 771 431 753
f 755 431 757
f 757 431 759
f 759 431 761
f 761 431 763
f 763 431 765
f 765 431 767
f 767 431 769
f 434 432 454
f 454 432 458
f 458 432 462
f 462 432 470
f 470 432 468
f 468 432 474
f 474 432 478
f 478 432 482
f 482 432 486
f 486 432 490
f 490 432 494
f 494 432 498
f 498 432 502
f 502 432 506
f 506 432 522
f 522 432 534
f 534 432 544
f 544 432 552
f 552 432 566
f 566 432 564
f 564 432 576
f 576 432 584
f 584 432 600
f 600 432 598
f 598 432 622
f 622 432 620
f 620 432 634
f 634 432 632
f 632 432 642
f 642 432 640
f 640 432 650
f 650 432 648
f 648 432 658
f 433 434 453
f 453 434 454
f 435 456 436
f 455 456 435
f 437 438 439
f 541 437 439
f 439 438 440
f 438 542 440
f 439 440 441
f 549 439 441
f 541 439 549
f 441 440 442
f 440 550 442
f 440 542 550
f 441 442 443
f 573 441 443
f 549 441 561
f 561 441 573
f 443 442 444
f 442 574 444
f 442 550 562
f 442 562 574
f 443 444 445
f 595 443 445
f 573 443 581
f 581 443 595
f 445 444 446
f 444 596 446
f 444 574 582
f 444 582 596
f 445 446 447
f 593 445 447
f 595 445 593
f 447 446 448
f 662 448 446
f 446 596 594
f 594 662 446
f 447 448 449
f 447 449 593
f 449 448 450
f 662 450 448
f 449 450 451
f 667 449 451
f 593 449 667
f 451 450 452
f 662 452 450
f 453 454 457
f 457 454 458
f 455 460 456
f 459 460 455
f 457 458 461
f 461 458 462
f 459 464 460
f 463 464 459
f 461 462 469
f 469 462 470
f 463 466 464
f 465 466 463
f 465 472 466
f 471 472 465
f 467 470 468
f 467 468 473
f 469 470 467
f 473 468 474
f 471 476 472
f 475 476 471
f 473 474 477
f 477 474 478
f 475 480 476
f 479 480 475
f 477 478 481
f 481 478 482
f 479 484 480
f 483 484 479
f 481 482 485
f 485 482 486
f 483 488 484
f 487 488 483
f 485 486 489
f 489 486 490
f 487 492 488
f 491 492 487
f 489 490 493
f 493 490 494
f 491 496 492
f 495 496 491
f 493 494 497
f 497 494 498
f 495 500 496
f 499 500 495
f 497 498 501
f 501 498 502
f 499 504 500
f 503 504 499
f 499 527 503
f 501 502 505
f 505 502 506
f 503 508 504
f 507 508 503
f 503 527 507
f 505 506 521
f 521 506 522
f 507 524 508
f 523 524 507
f 507 525 523
f 527 525 507
f 509 512 510
f 509 510 527
f 511 512 509
f 527 510 528
f 511 514 512
f 513 514 511
f 513 516 514
f 515 516 513
f 515 518 516
f 517 518 515
f 517 520 518
f 519 520 517
f 519 530 520
f 529 530 519
f 521 522 533
f 533 522 534
f 523 536 524
f 525 537 523
f 535 536 523
f 523 537 535
f 525 528 526
f 525 526 537
f 527 528 525
f 578 526 528
f 537 526 538
f 578 538 526
f 529 532 530
f 531 532 529
f 531 540 532
f 539 540 531
f 533 534 543
f 543 534 544
f 535 546 536
f 535 537 545
f 545 546 535
f 537 538 547
f 545 537 547
f 547 538 548
f 586 548 538
f 586 538 578
f 539 542 540
f 541 542 539
f 541 550 542
f 549 550 541
f 543 544 551
f 551 544 552
f 545 554 546
f 545 547 553
f 553 554 545
f 547 548 559
f 553 547 555
f 555 547 567
f 567 547 559
f 559 548 560
f 586 560 548
f 549 562 550
f 561 562 549
f 551 552 565
f 565 552 566
f 553 556 554
f 555 556 553
f 555 568 556
f 567 568 555
f 557 560 558
f 557 558 569
f 559 560 557
f 559 557 567
f 567 557 577
f 577 557 569
f 558 560 588
f 569 558 570
f 588 570 558
f 588 560 586
f 561 574 562
f 573 574 561
f 563 566 564
f 563 564 575
f 565 566 563
f 575 564 576
f 567 578 568
f 577 578 567
f 569 570 571
f 585 569 571
f 577 569 585
f 571 570 572
f 602 572 570
f 602 570 588
f 571 572 579
f 601 571 579
f 585 571 587
f 587 571 601
f 579 572 580
f 604 580 572
f 604 572 602
f 573 582 574
f 581 582 573
f 575 576 583
f 583 576 584
f 577 586 578
f 585 586 577
f 579 580 589
f 579 589 623
f 601 579 603
f 603 579 623
f 589 580 590
f 590 580 624
f 624 580 604
f 581 596 582
f 595 596 581
f 583 584 599
f 599 584 600
f 585 588 586
f 587 588 585
f 587 602 588
f 601 602 587
f 589 590 591
f 625 589 591
f 623 589 625
f 591 590 592
f 592 590 626
f 626 590 624
f 591 592 605
f 591 605 637
f 625 591 635
f 635 591 637
f 605 592 606
f 636 606 592
f 636 592 626
f 593 594 595
f 593 618 594
f 617 618 593
f 617 593 667
f 595 594 596
f 660 594 618
f 662 594 660
f 597 600 598
f 597 598 621
f 599 600 597
f 621 598 622
f 601 604 602
f 603 604 601
f 603 624 604
f 623 624 603
f 605 606 607
f 643 605 607
f 637 605 643
f 607 606 608
f 608 606 638
f 638 606 636
f 607 608 609
f 607 609 651
f 643 607 645
f 645 607 651
f 609 608 610
f 644 610 608
f 644 608 638
f 609 610 627
f 609 627 659
f 651 609 653
f 653 609 659
f 627 610 628
f 646 628 610
f 646 610 644
f 611 612 613
f 611 630 612
f 667 611 613
f 629 630 611
f 629 611 667
f 613 612 614
f 614 612 654
f 652 612 630
f 654 612 652
f 613 614 615
f 613 615 667
f 615 614 616
f 654 616 614
f 615 616 617
f 615 617 667
f 617 616 618
f 660 618 616
f 660 616 654
f 619 622 620
f 619 620 633
f 621 622 619
f 633 620 634
f 623 626 624
f 625 626 623
f 625 636 626
f 635 636 625
f 627 628 629
f 661 627 629
f 659 627 661
f 629 628 630
f 630 628 652
f 652 628 646
f 661 629 667
f 631 634 632
f 631 632 641
f 633 634 631
f 641 632 642
f 635 638 636
f 637 638 635
f 637 644 638
f 643 644 637
f 639 642 640
f 639 640 649
f 641 642 639
f 649 640 650
f 643 646 644
f 645 646 643
f 645 652 646
f 651 652 645
f 647 650 648
f 647 648 657
f 649 650 647
f 657 648 658
f 651 654 652
f 653 654 651
f 653 660 654
f 659 660 653
f 655 658 656
f 655 656 665
f 657 658 655
f 665 656 666
f 659 662 660
f 661 662 659
f 661 668 662
f 667 668 661
f 663 666 664
f 663 664 673
f 665 666 663
f 673 664 674
f 667 670 668
f 669 670 667
f 669 676 670
f 675 676 669
f 671 674 672
f 671 672 681
f 673 674 671
f 681 672 682
f 675 678 676
f 677 678 675
f 677 684 678
f 683 684 677
f 679 682 680
f 679 680 689
f 681 682 679
f 689 680 690
f 683 686 684
f 685 686 683
f 685 692 686
f 691 692 685
f 687 690 688
f 687 688 697
f 689 690 687
f 697 688 698
f 691 694 692
f 693 694 691
f 693 700 694
f 699 700 693
f 695 698 696
f 695 696 705
f 697 698 695
f 705 696 706
f 699 702 700
f 701 702 699
f 701 708 702
f 707 708 701
f 703 706 704
f 703 704 713
f 705 706 703
f 713 704 714
f 707 710 708
f 709 710 707
f 709 716 710
f 715 716 709
f 711 714 712
f 711 712 733
f 713 714 711
f 733 712 734
f 715 718 716
f 717 718 715
f 717 720 718
f 719 720 717
f 719 722 720
f 721 722 719
f 721 724 722
f 723 724 721
f 723 736 724
f 735 736 723
f 725 728 726
f 725 726 769
f 727 728 725
f 769 726 770
f 727 730 728
f 729 730 727
f 729 732 730
f 731 732 729
f 731 734 732
f 733 734 731
f 735 738 736
f 737 738 735
f 737 740 738
f 739 740 737
f 739 742 740
f 741 742 739
f 741 744 742
f 743 744 741
f 743 746 744
f 745 746 743
f 745 748 746
f 747 748 745
f 747 750 748
f 749 750 747
f 749 752 750
f 751 752 749
f 751 772 752
f 771 772 751
f 753 756 754
f 753 754 771
f 755 756 753
f 771 754 772
f 755 758 756
f 757 758 755
f 757 760 758
f 759 760 757
f 759 762 760
f 761 762 759
f 761 764 762
f 763 764 761
f 763 766 764
f 765 766 763
f 765 768 766
f 767 768 765
f 767 770 768
f 769 770 767
