# CAD visual only; metres; body-local coordinates
v -0.02875 0.0075 0.0446000004
v -0.02875 0.0075 0.0430000019
v 0.02625 0.0075 0.0430000019
v 0.02625 0.0075 0.0446000004
v 0.02625 0.036500001 0.0446000004
v 0.02625 0.036500001 0.0430000019
v -0.02875 0.036500001 0.0430000019
v -0.02875 0.036500001 0.0446000004
v -0.02875 0.036500001 0.0446000004
v -0.02875 0.036500001 0.0430000019
v -0.02875 0.0075 0.0430000019
v -0.02875 0.0075 0.0446000004
v 0.02625 0.0075 0.0446000004
v 0.02625 0.0075 0.0430000019
v 0.02625 0.036500001 0.0430000019
v 0.02625 0.036500001 0.0446000004
v 0.02625 0.0075 0.0446000004
v 0.02625 0.036500001 0.0446000004
v -0.02875 0.036500001 0.0446000004
v -0.02875 0.0075 0.0446000004
v 0.02625 0.036500001 0.0430000019
v 0.02625 0.0075 0.0430000019
v -0.02875 0.0075 0.0430000019
v -0.02875 0.036500001 0.0430000019
v -0.00524999976 0.0120000005 0.0476000023
v -0.00524999976 0.0120000005 0.0446000004
v -0.00524999976 0.0320000005 0.0446000004
v -0.00524999976 0.0320000005 0.0476000023
v -0.00524999976 0.0320000005 0.0476000023
v -0.00524999976 0.0320000005 0.0446000004
v -0.025250001 0.0320000005 0.0446000004
v -0.025250001 0.0320000005 0.0476000023
v -0.025250001 0.0320000005 0.0476000023
v -0.025250001 0.0320000005 0.0446000004
v -0.025250001 0.0120000005 0.0446000004
v -0.025250001 0.0120000005 0.0476000023
v -0.025250001 0.0120000005 0.0476000023
v -0.025250001 0.0120000005 0.0446000004
v -0.00524999976 0.0120000005 0.0446000004
v -0.00524999976 0.0120000005 0.0476000023
v -0.00524999976 0.0320000005 0.0446000004
v -0.00524999976 0.0120000005 0.0446000004
v -0.025250001 0.0120000005 0.0446000004
v -0.025250001 0.0320000005 0.0446000004
v -0.00524999976 0.0120000005 0.0476000023
v -0.00524999976 0.0320000005 0.0476000023
v -0.025250001 0.0320000005 0.0476000023
v -0.025250001 0.0120000005 0.0476000023
v 0.0217499995 0.00824999988 0.06
v 0.0217499995 0.00824999988 0.0446000004
v 0.0217499995 0.0107500005 0.0446000004
v 0.0217499995 0.0107500005 0.06
v 0.0217499995 0.0107500005 0.06
v 0.0217499995 0.0107500005 0.0446000004
v -0.0242499995 0.0107500005 0.0446000004
v -0.0242499995 0.0107500005 0.06
v -0.0242499995 0.0107500005 0.06
v -0.0242499995 0.0107500005 0.0446000004
v -0.0242499995 0.00824999988 0.0446000004
v -0.0242499995 0.00824999988 0.06
v -0.0242499995 0.00824999988 0.06
v -0.0242499995 0.00824999988 0.0446000004
v 0.0217499995 0.00824999988 0.0446000004
v 0.0217499995 0.00824999988 0.06
v 0.0217499995 0.0107500005 0.0446000004
v 0.0217499995 0.00824999988 0.0446000004
v -0.0242499995 0.00824999988 0.0446000004
v -0.0242499995 0.0107500005 0.0446000004
v 0.0217499995 0.00824999988 0.06
v 0.0217499995 0.0107500005 0.06
v -0.0242499995 0.0107500005 0.06
v -0.0242499995 0.00824999988 0.06
v 0.0217499995 0.0332500005 0.06
v 0.0217499995 0.0332500005 0.0446000004
v 0.0217499995 0.0357500005 0.0446000004
v 0.0217499995 0.0357500005 0.06
v 0.0217499995 0.0357500005 0.06
v 0.0217499995 0.0357500005 0.0446000004
v -0.0242499995 0.0357500005 0.0446000004
v -0.0242499995 0.0357500005 0.06
v -0.0242499995 0.0357500005 0.06
v -0.0242499995 0.0357500005 0.0446000004
v -0.0242499995 0.0332500005 0.0446000004
v -0.0242499995 0.0332500005 0.06
v -0.0242499995 0.0332500005 0.06
v -0.0242499995 0.0332500005 0.0446000004
v 0.0217499995 0.0332500005 0.0446000004
v 0.0217499995 0.0332500005 0.06
v 0.0217499995 0.0357500005 0.0446000004
v 0.0217499995 0.0332500005 0.0446000004
v -0.0242499995 0.0332500005 0.0446000004
v -0.0242499995 0.0357500005 0.0446000004
v 0.0217499995 0.0332500005 0.06
v 0.0217499995 0.0357500005 0.06
v -0.0242499995 0.0357500005 0.06
v -0.0242499995 0.0332500005 0.06
v 0.02875 0.0175 0.0480000019
v 0.02875 0.0175 0.0446000004
v 0.02875 0.026500001 0.0446000004
v 0.02875 0.026500001 0.0480000019
v 0.02875 0.026500001 0.0480000019
v 0.02875 0.026500001 0.0446000004
v 0.024749999 0.026500001 0.0446000004
v 0.024749999 0.026500001 0.0480000019
v 0.024749999 0.026500001 0.0480000019
v 0.024749999 0.026500001 0.0446000004
v 0.024749999 0.0175 0.0446000004
v 0.024749999 0.0175 0.0480000019
v 0.024749999 0.0175 0.0480000019
v 0.024749999 0.0175 0.0446000004
v 0.02875 0.0175 0.0446000004
v 0.02875 0.0175 0.0480000019
v 0.02875 0.026500001 0.0446000004
v 0.02875 0.0175 0.0446000004
v 0.024749999 0.0175 0.0446000004
v 0.024749999 0.026500001 0.0446000004
v 0.02875 0.0175 0.0480000019
v 0.02875 0.026500001 0.0480000019
v 0.024749999 0.026500001 0.0480000019
v 0.024749999 0.0175 0.0480000019
v 0.0142999995 -0.0126999998 0.0951000023
v 0.0142999995 -0.0126999998 0.0935000038
v 0.0142999995 0.0126999998 0.0935000038
v 0.0142999995 0.0126999998 0.0951000023
v 0.0142999995 0.0126999998 0.0951000023
v 0.0142999995 0.0126999998 0.0935000038
v -0.0142999995 0.0126999998 0.0935000038
v -0.0142999995 0.0126999998 0.0951000023
v -0.0142999995 0.0126999998 0.0951000023
v -0.0142999995 0.0126999998 0.0935000038
v -0.0142999995 -0.0126999998 0.0935000038
v -0.0142999995 -0.0126999998 0.0951000023
v -0.0142999995 -0.0126999998 0.0951000023
v -0.0142999995 -0.0126999998 0.0935000038
v 0.0142999995 -0.0126999998 0.0935000038
v 0.0142999995 -0.0126999998 0.0951000023
v 0.0142999995 0.0126999998 0.0935000038
v 0.0142999995 -0.0126999998 0.0935000038
v -0.0142999995 -0.0126999998 0.0935000038
v -0.0142999995 0.0126999998 0.0935000038
v 0.0142999995 -0.0126999998 0.0951000023
v 0.0142999995 0.0126999998 0.0951000023
v -0.0142999995 0.0126999998 0.0951000023
v -0.0142999995 -0.0126999998 0.0951000023
v 0.00300000012 -0.00300000012 0.0964999962
v 0.00300000012 -0.00300000012 0.0951000023
v 0.00300000012 0.00300000012 0.0951000023
v 0.00300000012 0.00300000012 0.0964999962
v 0.00300000012 0.00300000012 0.0964999962
v 0.00300000012 0.00300000012 0.0951000023
v -0.00300000012 0.00300000012 0.0951000023
v -0.00300000012 0.00300000012 0.0964999962
v -0.00300000012 0.00300000012 0.0964999962
v -0.00300000012 0.00300000012 0.0951000023
v -0.00300000012 -0.00300000012 0.0951000023
v -0.00300000012 -0.00300000012 0.0964999962
v -0.00300000012 -0.00300000012 0.0964999962
v -0.00300000012 -0.00300000012 0.0951000023
v 0.00300000012 -0.00300000012 0.0951000023
v 0.00300000012 -0.00300000012 0.0964999962
v 0.00300000012 0.00300000012 0.0951000023
v 0.00300000012 -0.00300000012 0.0951000023
v -0.00300000012 -0.00300000012 0.0951000023
v -0.00300000012 0.00300000012 0.0951000023
v 0.00300000012 -0.00300000012 0.0964999962
v 0.00300000012 0.00300000012 0.0964999962
v -0.00300000012 0.00300000012 0.0964999962
v -0.00300000012 -0.00300000012 0.0964999962
v 0.01 -0.0126300001 0.0935000038
v 0.01 -0.0126300001 0.0910000038
v 0.01 -0.01023 0.0910000038
v 0.01 -0.01023 0.0935000038
v 0.01 -0.01023 0.0935000038
v 0.01 -0.01023 0.0910000038
v -0.01 -0.01023 0.0910000038
v -0.01 -0.01023 0.0935000038
v -0.01 -0.01023 0.0935000038
v -0.01 -0.01023 0.0910000038
v -0.01 -0.0126300001 0.0910000038
v -0.01 -0.0126300001 0.0935000038
v -0.01 -0.0126300001 0.0935000038
v -0.01 -0.0126300001 0.0910000038
v 0.01 -0.0126300001 0.0910000038
v 0.01 -0.0126300001 0.0935000038
v 0.01 -0.01023 0.0910000038
v 0.01 -0.0126300001 0.0910000038
v -0.01 -0.0126300001 0.0910000038
v -0.01 -0.01023 0.0910000038
v 0.01 -0.0126300001 0.0935000038
v 0.01 -0.01023 0.0935000038
v -0.01 -0.01023 0.0935000038
v -0.01 -0.0126300001 0.0935000038
v 0.01 0.01023 0.0935000038
v 0.01 0.01023 0.0910000038
v 0.01 0.0126300001 0.0910000038
v 0.01 0.0126300001 0.0935000038
v 0.01 0.0126300001 0.0935000038
v 0.01 0.0126300001 0.0910000038
v -0.01 0.0126300001 0.0910000038
v -0.01 0.0126300001 0.0935000038
v -0.01 0.0126300001 0.0935000038
v -0.01 0.0126300001 0.0910000038
v -0.01 0.01023 0.0910000038
v -0.01 0.01023 0.0935000038
v -0.01 0.01023 0.0935000038
v -0.01 0.01023 0.0910000038
v 0.01 0.01023 0.0910000038
v 0.01 0.01023 0.0935000038
v 0.01 0.0126300001 0.0910000038
v 0.01 0.01023 0.0910000038
v -0.01 0.01023 0.0910000038
v -0.01 0.0126300001 0.0910000038
v 0.01 0.01023 0.0935000038
v 0.01 0.0126300001 0.0935000038
v -0.01 0.0126300001 0.0935000038
v -0.01 0.01023 0.0935000038
f 1 2 4
f 4 2 3
f 5 6 8
f 8 6 7
f 9 10 12
f 12 10 11
f 13 14 16
f 16 14 15
f 18 19 17
f 17 19 20
f 22 23 21
f 21 23 24
f 25 26 28
f 28 26 27
f 29 30 32
f 32 30 31
f 33 34 36
f 36 34 35
f 37 38 40
f 40 38 39
f 42 43 41
f 41 43 44
f 46 47 45
f 45 47 48
f 49 50 52
f 52 50 51
f 53 54 56
f 56 54 55
f 57 58 60
f 60 58 59
f 61 62 64
f 64 62 63
f 66 67 65
f 65 67 68
f 70 71 69
f 69 71 72
f 73 74 76
f 76 74 75
f 77 78 80
f 80 78 79
f 81 82 84
f 84 82 83
f 85 86 88
f 88 86 87
f 90 91 89
f 89 91 92
f 94 95 93
f 93 95 96
f 97 98 100
f 100 98 99
f 101 102 104
f 104 102 103
f 105 106 108
f 108 106 107
f 109 110 112
f 112 110 111
f 114 115 113
f 113 115 116
f 118 119 117
f 117 119 120
f 121 122 124
f 124 122 123
f 125 126 128
f 128 126 127
f 129 130 132
f 132 130 131
f 133 134 136
f 136 134 135
f 138 139 137
f 137 139 140
f 142 143 141
f 141 143 144
f 145 146 148
f 148 146 147
f 149 150 152
f 152 150 151
f 153 154 156
f 156 154 155
f 157 158 160
f 160 158 159
f 162 163 161
f 161 163 164
f 166 167 165
f 165 167 168
f 169 170 172
f 172 170 171
f 173 174 176
f 176 174 175
f 177 178 180
f 180 178 179
f 181 182 184
f 184 182 183
f 186 187 185
f 185 187 188
f 190 191 189
f 189 191 192
f 193 194 196
f 196 194 195
f 197 198 200
f 200 198 199
f 201 202 204
f 204 202 203
f 205 206 208
f 208 206 207
f 210 211 209
f 209 211 212
f 214 215 213
f 213 215 216
