# CAD visual only; metres; body-local coordinates
v -0.0100000004 3.54727886e-10 0.00999999809
v -0.0100000004 3.54727886e-10 0.012000001
v -0.00978147542 -0.00207911456 0.00999999809
v -0.00978147542 -0.00207911456 0.012000001
v -0.009816275 -0.00190809214 0.00999999809
v -0.009816275 -0.00190809214 0.012000001
v -0.00984808004 -0.00173647845 0.00999999809
v -0.009876881 -0.00156434024 0.012000001
v -0.00990267789 -0.00139173472 0.00999999809
v -0.00990267789 -0.00139173472 0.012000001
v -0.00992546117 -0.00121869052 0.00999999809
v -0.0099452213 -0.00104528392 0.012000001
v -0.00996194875 -0.000871553066 0.00999999809
v -0.00996194875 -0.000871553066 0.012000001
v -0.00997564351 -0.000697564724 0.00999999809
v -0.00998629605 -0.000523357037 0.012000001
v -0.00999390638 -0.000348996761 0.00999999809
v -0.00999390638 -0.000348996761 0.012000001
v -0.00999847448 -0.000174522045 0.00999999809
v -0.00999847448 -0.000174522045 0.012000001
v -0.00999847448 0.000174522755 0.00999999809
v -0.00999847448 0.000174522755 0.012000001
v -0.00999390638 0.000348997471 0.00999999809
v -0.00999390638 0.000348997471 0.012000001
v -0.00998629605 0.000523357746 0.00999999809
v -0.00997564351 0.000697565433 0.012000001
v -0.00996194875 0.000871553776 0.00999999809
v -0.00996194875 0.000871553776 0.012000001
v -0.0099452213 0.00104528463 0.00999999809
v -0.00992546117 0.00121869123 0.012000001
v -0.00990267789 0.00139173543 0.00999999809
v -0.00990267789 0.00139173543 0.012000001
v -0.009876881 0.00156434095 0.00999999809
v -0.00984808004 0.00173647916 0.012000001
v -0.009816275 0.00190809285 0.00999999809
v -0.009816275 0.00190809285 0.012000001
v -0.00978147542 0.00207911527 0.00999999809
v -0.00978147542 0.00207911527 0.012000001
v -0.00951056516 -0.00309017146 0.00999999809
v -0.00951056516 -0.00309017146 0.012000001
v -0.00956304586 -0.00292371714 0.00999999809
v -0.00961261785 -0.00275637591 0.012000001
v -0.00965926206 -0.00258818591 0.00999999809
v -0.00965926206 -0.00258818591 0.012000001
v -0.00970295942 -0.00241922343 0.00999999809
v -0.00970295942 -0.00241922343 0.012000001
v -0.00974370038 -0.00224950755 0.00999999809
v -0.00974370038 -0.00224950755 0.012000001
v -0.00974370038 0.00224950826 0.00999999809
v -0.00974370038 0.00224950826 0.012000001
v -0.00970295942 0.0024192146 0.00999999809
v -0.00970295942 0.0024192146 0.012000001
v -0.00965926206 0.00258818662 0.00999999809
v -0.00965926206 0.00258818662 0.012000001
v -0.00961261785 0.00275637662 0.00999999809
v -0.00956304586 0.00292371785 0.012000001
v -0.00951056516 0.00309017217 0.00999999809
v -0.00951056516 0.00309017217 0.012000001
v -0.0092718414 -0.00374607051 0.00999999809
v -0.00933580434 -0.00358367884 0.012000001
v -0.00939692533 -0.00342019999 0.00999999809
v -0.00945518529 -0.00325568164 0.012000001
v -0.00945518529 0.00325568235 0.00999999809
v -0.00939692533 0.0034202007 0.012000001
v -0.00933580434 0.00358367955 0.00999999809
v -0.0092718414 0.00374606168 0.012000001
v -0.0090630821 -0.00422617877 0.00999999809
v -0.00913545644 -0.00406736338 0.012000001
v -0.00920504605 -0.00390730822 0.00999999809
v -0.00920504605 -0.00390730822 0.012000001
v -0.00920504605 0.00390730893 0.00999999809
v -0.00920504605 0.00390730893 0.012000001
v -0.00913545644 0.00406736409 0.00999999809
v -0.0090630821 0.00422617948 0.012000001
v -0.00882947957 -0.00469471896 0.00999999809
v -0.00891006505 -0.00453990901 0.012000001
v -0.0089879421 -0.00438371623 0.00999999809
v -0.0089879421 -0.00438371623 0.012000001
v -0.0089879421 0.0043837074 0.00999999809
v -0.0089879421 0.0043837074 0.012000001
v -0.00891006505 0.00453990972 0.00999999809
v -0.00882947957 0.00469471967 0.012000001
v -0.00857167279 -0.00515038455 0.00999999809
v -0.00857167279 -0.00515038455 0.012000001
v -0.00866025006 -0.00499999965 0.00999999809
v -0.00874619519 -0.0048480984 0.012000001
v -0.00874619519 0.00484809911 0.00999999809
v -0.00874619519 0.00484809911 0.012000001
v -0.00866025006 0.00500000035 0.00999999809
v -0.00857167279 0.00515038526 0.012000001
v -0.00829037702 -0.00559192622 0.00999999809
v -0.00829037702 -0.00559192622 0.012000001
v -0.00838670766 -0.00544638598 0.00999999809
v -0.00848048246 -0.00529919589 0.012000001
v -0.00848048246 0.0052991966 0.00999999809
v -0.00838670766 0.00544638669 0.012000001
v -0.00829037702 0.00559192693 0.00999999809
v -0.00829037702 0.00559192693 0.012000001
v -0.00809017217 -0.00587785685 0.00999999809
v -0.00809017217 -0.00587785685 0.012000001
v -0.00819151914 -0.00573576892 0.00999999809
v -0.00819151914 -0.00573576892 0.012000001
v -0.00819151914 0.00573576009 0.00999999809
v -0.00819151914 0.00573576009 0.012000001
v -0.00809017217 0.00587784803 0.00999999809
v -0.00809017217 0.00587784803 0.012000001
v -0.00777146375 -0.00629320109 0.00999999809
v -0.00777146375 -0.00629320109 0.012000001
v -0.00788010633 -0.00615661586 0.00999999809
v -0.00798635518 -0.00601815188 0.012000001
v -0.00798635518 0.00601815259 0.00999999809
v -0.00788010633 0.00615661657 0.012000001
v -0.00777146375 0.0062932018 0.00999999809
v -0.00777146375 0.0062932018 0.012000001
v -0.00754709279 -0.0065605923 0.00999999809
v -0.00754709279 -0.0065605923 0.012000001
v -0.00766044652 -0.00642787898 0.00999999809
v -0.00766044652 -0.00642787898 0.012000001
v -0.00766044652 0.00642787969 0.00999999809
v -0.00766044652 0.00642787969 0.012000001
v -0.00754709279 0.00656059301 0.00999999809
v -0.00754709279 0.00656059301 0.012000001
v -0.00731353795 -0.00681998217 0.00999999809
v -0.00731353795 -0.00681998217 0.012000001
v -0.00743145024 -0.0066913029 0.00999999809
v -0.00743145024 -0.0066913029 0.012000001
v -0.00743145024 0.00669130361 0.00999999809
v -0.00743145024 0.00669130361 0.012000001
v -0.00731353795 0.00681998288 0.00999999809
v -0.00731353795 0.00681998288 0.012000001
v -0.00707106626 -0.00707106555 0.00999999809
v -0.00707106626 -0.00707106555 0.012000001
v -0.00719339406 -0.00694658244 0.00999999809
v -0.00719339406 -0.00694658244 0.012000001
v -0.00719339406 0.00694658315 0.00999999809
v -0.00719339406 0.00694658315 0.012000001
v -0.00707106626 0.00707106626 0.00999999809
v -0.00707106626 0.00707106626 0.012000001
v -0.00681998288 -0.00731353724 0.00999999809
v -0.00681998288 -0.00731353724 0.012000001
v -0.00694658315 -0.00719339335 0.00999999809
v -0.00694658315 -0.00719339335 0.012000001
v -0.00675417936 0.00573358571 0.00999999809
v -0.00675083196 0.00554186856 0.012000001
v -0.00675083196 0.00577183759 0.00999999809
v -0.00675267255 0.00575272596 0.012000001
v -0.00694658315 0.00719339406 0.00999999809
v -0.00694658315 0.00719339406 0.012000001
v -0.00681998288 0.00731353795 0.00999999809
v -0.00681998288 0.00731353795 0.012000001
v -0.00656059301 -0.00754709208 0.00999999809
v -0.00656059301 -0.00754709208 0.012000001
v -0.00669130361 -0.00743144954 0.00999999809
v -0.00669130361 -0.00743144954 0.012000001
v -0.00653534925 0.00499486005 0.00999999809
v -0.0065117172 0.00496459996 0.012000001
v -0.00667676007 0.00524478948 0.00999999809
v -0.00654677427 0.0050102905 0.012000001
v -0.00674330747 0.00548477208 0.00999999809
v -0.00668378865 0.0052626518 0.012000001
v -0.00674865758 0.00552279508 0.00999999809
v -0.00674614942 0.00550375974 0.012000001
v -0.00670301473 0.00599677121 0.00999999809
v -0.00674865758 0.00579091108 0.012000001
v -0.00658970868 0.00623976743 0.00999999809
v -0.00669692075 0.00601497686 0.012000001
v -0.0065117172 0.00634910619 0.00999999809
v -0.00657938993 0.00625596082 0.012000001
v -0.00669130361 0.00743145024 0.00999999809
v -0.00669130361 0.00743145024 0.012000001
v -0.00656059301 0.00754709279 0.00999999809
v -0.00656059301 0.00754709279 0.012000001
v -0.0062932018 -0.00777146304 0.00999999809
v -0.0062932018 -0.00777146304 0.012000001
v -0.00642787969 -0.00766044581 0.00999999809
v -0.00642787969 -0.00766044581 0.012000001
v -0.00627196347 0.00474491155 0.00999999809
v -0.00625596082 0.00473431623 0.012000001
v -0.00649950063 0.0049497894 0.00999999809
v -0.00628778493 0.00475578344 0.012000001
v -0.00636391675 0.00649950063 0.00999999809
v -0.00649950063 0.00636391675 0.012000001
v -0.00625596082 0.00657938993 0.00999999809
v -0.00634910619 0.0065117172 0.012000001
v -0.00642787969 0.00766044652 0.00999999809
v -0.00642787969 0.00766044652 0.012000001
v -0.0062932018 0.00777146375 0.00999999809
v -0.0062932018 0.00777146375 0.012000001
v -0.00601815259 -0.00798635447 0.00999999809
v -0.00615661657 -0.00788010562 0.012000001
v -0.00623976743 0.00472399747 0.00999999809
v -0.00601497686 0.0046167854 0.012000001
v -0.00601497686 0.00669692075 0.00999999809
v -0.00623976743 0.00658970868 0.012000001
v -0.00615661657 0.00788010633 0.00999999809
v -0.00601815259 0.00798635518 0.012000001
v -0.00587784803 -0.00809017146 0.00999999809
v -0.00587784803 -0.00809017146 0.012000001
v -0.00599677121 0.00461069143 0.00999999809
v -0.00575272596 0.00456104314 0.012000001
v -0.00579091108 0.00674865758 0.00999999809
v -0.00599677121 0.00670301473 0.012000001
v -0.00575272596 0.00675267255 0.00999999809
v -0.00577183759 0.00675083196 0.012000001
v -0.00587784803 0.00809017217 0.00999999809
v -0.00587784803 0.00809017217 0.012000001
v -0.00559192693 -0.00829037631 0.00999999809
v -0.00559192693 -0.00829037631 0.012000001
v -0.00573576009 -0.00819151843 0.00999999809
v -0.00573576009 -0.00819151843 0.012000001
v -0.00573358571 0.00455953633 0.00999999809
v -0.00550375974 0.00456755674 0.012000001
v -0.00550375974 0.00674614942 0.00999999809
v -0.00552279508 0.00674865758 0.012000001
v -0.00554186856 0.00675083196 0.00999999809
v -0.00573358571 0.00675417936 0.012000001
v -0.00573576009 0.00819151914 0.00999999809
v -0.00573576009 0.00819151914 0.012000001
v -0.00559192693 0.00829037702 0.00999999809
v -0.00559192693 0.00829037702 0.012000001
v -0.0052991966 -0.00848048175 0.00999999809
v -0.00544638669 -0.00838670695 0.012000001
v -0.00548477208 0.00457039869 0.00999999809
v -0.0052626518 0.0046299175 0.012000001
v -0.0052626518 0.00668378865 0.00999999809
v -0.00548477208 0.00674330747 0.012000001
v -0.00544638669 0.00838670766 0.00999999809
v -0.0052991966 0.00848048246 0.012000001
v -0.00500000035 -0.00866024936 0.00999999809
v -0.00515038526 -0.00857167208 0.012000001
v -0.00524478948 0.00463695562 0.00999999809
v -0.00504174268 0.00474491155 0.012000001
v -0.00502592122 0.00475578344 0.00999999809
v -0.0050102905 0.00476693189 0.012000001
v -0.0050102905 0.00654677427 0.00999999809
v -0.00524478948 0.00667676007 0.012000001
v -0.00515038526 0.00857167279 0.00999999809
v -0.00500000035 0.00866025006 0.012000001
v -0.00484809911 -0.00874619448 0.00999999809
v -0.00484809911 -0.00874619448 0.012000001
v -0.0048790363 0.0048790363 0.00999999809
v -0.0048790363 0.0048790363 0.012000001
v -0.00476693189 0.0050102905 0.00999999809
v -0.00475578344 0.00502592122 0.012000001
v -0.00475578344 0.00628778493 0.00999999809
v -0.0049497894 0.00649950063 0.012000001
v -0.00496459996 0.0065117172 0.00999999809
v -0.00499486005 0.00653534925 0.012000001
v -0.00484809911 0.00874619519 0.00999999809
v -0.00484809911 0.00874619519 0.012000001
v -0.00453990972 -0.00891006434 0.00999999809
v -0.00469471967 -0.00882947886 0.012000001
v -0.00474491155 0.00504174268 0.00999999809
v -0.00463695562 0.00524478948 0.012000001
v -0.0046299175 0.0052626518 0.00999999809
v -0.00457039869 0.00548477208 0.012000001
v -0.00456755674 0.00550375974 0.00999999809
v -0.00455953633 0.00573358571 0.012000001
v -0.00456104314 0.00575272596 0.00999999809
v -0.00461069143 0.00599677121 0.012000001
v -0.0046167854 0.00601497686 0.00999999809
v -0.00472399747 0.00623976743 0.012000001
v -0.00473431623 0.00625596082 0.00999999809
v -0.00474491155 0.00627196347 0.012000001
v -0.00469471967 0.00882947957 0.00999999809
v -0.00453990972 0.00891006505 0.012000001
v -0.0043837074 -0.00898794139 0.00999999809
v -0.0043837074 -0.00898794139 0.012000001
v -0.0043837074 0.0089879421 0.00999999809
v -0.0043837074 0.0089879421 0.012000001
v -0.00406736409 -0.00913545573 0.00999999809
v -0.00422617948 -0.00906308139 0.012000001
v -0.00422617948 0.0090630821 0.00999999809
v -0.00406736409 0.00913545644 0.012000001
v -0.00390730893 -0.00920504535 0.00999999809
v -0.00390730893 -0.00920504535 0.012000001
v -0.00390730893 0.00920504605 0.00999999809
v -0.00390730893 0.00920504605 0.012000001
v -0.00358367955 -0.00933580363 0.00999999809
v -0.00374606168 -0.00927184069 0.012000001
v -0.00374606168 0.0092718414 0.00999999809
v -0.00358367955 0.00933580434 0.012000001
v -0.00325568235 -0.00945518458 0.00999999809
v -0.0034202007 -0.00939692462 0.012000001
v -0.0034202007 0.00939692533 0.00999999809
v -0.00325568235 0.00945518529 0.012000001
v -0.00309017217 -0.00951056445 0.00999999809
v -0.00309017217 -0.00951056445 0.012000001
v -0.00309017217 0.00951056516 0.00999999809
v -0.00309017217 0.00951056516 0.012000001
v -0.00275637662 -0.00961261714 0.00999999809
v -0.00292371785 -0.00956304515 0.012000001
v -0.00292371785 0.00956304586 0.00999999809
v -0.00275637662 0.00961261785 0.012000001
v -0.00258818662 -0.00965926135 0.00999999809
v -0.00258818662 -0.00965926135 0.012000001
v -0.00258818662 0.00965926206 0.00999999809
v -0.00258818662 0.00965926206 0.012000001
v -0.0024192146 -0.00970295871 0.00999999809
v -0.0024192146 -0.00970295871 0.012000001
v -0.0024192146 0.00970295942 0.00999999809
v -0.0024192146 0.00970295942 0.012000001
v -0.00207911527 -0.00978147471 0.00999999809
v -0.00207911527 -0.00978147471 0.012000001
v -0.00224950826 -0.00974369967 0.00999999809
v -0.00224950826 -0.00974369967 0.012000001
v -0.00224950826 0.00974370038 0.00999999809
v -0.00224950826 0.00974370038 0.012000001
v -0.00207911527 0.00978147542 0.00999999809
v -0.00207911527 0.00978147542 0.012000001
v -0.00190809285 -0.00981627429 0.00999999809
v -0.00190809285 -0.00981627429 0.012000001
v -0.00190809285 0.009816275 0.00999999809
v -0.00190809285 0.009816275 0.012000001
v -0.00156434095 -0.00987688029 0.00999999809
v -0.00173647916 -0.00984807933 0.012000001
v -0.00173647916 0.00984808004 0.00999999809
v -0.00156434095 0.009876881 0.012000001
v -0.00139173543 -0.00990267718 0.00999999809
v -0.00139173543 -0.00990267718 0.012000001
v -0.0012857536 -0.000772561672 0.00999999809
v -0.00125800168 -0.000816955212 0.012000001
v -0.00140954053 -0.000513028744 0.00999999809
v -0.00129903829 -0.000749997738 0.012000001
v -0.00147721326 -0.000260476711 0.00999999809
v -0.00141827619 -0.000488347652 0.012000001
v -0.00149976766 -2.61780053e-05 0.00999999809
v -0.00148153341 -0.000234651211 0.012000001
v -0.00148153341 0.00023465192 0.00999999809
v -0.00149999654 3.54727886e-10 0.012000001
v -0.00141827619 0.000488348362 0.00999999809
v -0.00147721326 0.000260467884 0.012000001
v -0.00129903829 0.000749998447 0.00999999809
v -0.00140954053 0.000513029453 0.012000001
v -0.00125800168 0.000816955921 0.00999999809
v -0.0012857536 0.000772552845 0.012000001
v -0.00139173543 0.00990267789 0.00999999809
v -0.00139173543 0.00990267789 0.012000001
v -0.00104528463 -0.00994522059 0.00999999809
v -0.00121869123 -0.00992546046 0.012000001
v -0.00111472165 -0.00100369418 0.00999999809
v -0.00100369489 -0.00111472094 0.012000001
v -0.00124355352 -0.000838784817 0.00999999809
v -0.00113206899 -0.000984086636 0.012000001
v -0.00113206899 0.000984087345 0.00999999809
v -0.00124355352 0.000838785526 0.012000001
v -0.00100369489 0.00111472165 0.00999999809
v -0.00111472165 0.00100369489 0.012000001
v -0.00121869123 0.00992546117 0.00999999809
v -0.00104528463 0.0099452213 0.012000001
v -0.000871553776 -0.00996194804 0.00999999809
v -0.000871553776 -0.00996194804 0.012000001
v -0.000816955921 -0.00125801051 0.00999999809
v -0.000772552845 -0.0012857529 0.012000001
v -0.000984087345 -0.00113206828 0.00999999809
v -0.000838785526 -0.00124355281 0.012000001
v -0.000838785526 0.00124355352 0.00999999809
v -0.000984087345 0.00113206899 0.012000001
v -0.000772552845 0.0012857536 0.00999999809
v -0.000816955921 0.00125800168 0.012000001
v -0.000871553776 0.00996194875 0.00999999809
v -0.000871553776 0.00996194875 0.012000001
v -0.000523357746 -0.00998629535 0.00999999809
v -0.000697565433 -0.0099756428 0.012000001
v -0.000749998447 -0.00129903758 0.00999999809
v -0.000513029453 -0.00140953982 0.012000001
v -0.000513029453 0.00140954053 0.00999999809
v -0.000749998447 0.00129903829 0.012000001
v -0.000697565433 0.00997564351 0.00999999809
v -0.000523357746 0.00998629605 0.012000001
v -0.000348997471 -0.00999390567 0.00999999809
v -0.000348997471 -0.00999390567 0.012000001
v -0.000488348362 -0.00141827548 0.00999999809
v -0.000260467884 -0.00147721255 0.012000001
v -0.000260467884 0.00147721326 0.00999999809
v -0.000488348362 0.00141827619 0.012000001
v -0.000348997471 0.00999390638 0.00999999809
v -0.000348997471 0.00999390638 0.012000001
v -3.54727886e-10 -0.00999999965 0.00999999809
v -0.000174522755 -0.00999847377 0.012000001
v -0.00023465192 -0.0014815327 0.00999999809
v -3.54727886e-10 -0.00149999583 0.012000001
v -3.54727886e-10 0.00149999654 0.00999999809
v -0.00023465192 0.00148153341 0.012000001
v -0.000174522755 0.00999847448 0.00999999809
v -0.000174522755 0.00999847448 0.012000001
v -3.54727886e-10 0.0100000004 0.00999999809
v -3.54727886e-10 0.0100000004 0.012000001
v 0.000174522045 -0.00999847377 0.00999999809
v 0.000174522045 -0.00999847377 0.012000001
v 2.61780053e-05 -0.00149976695 0.00999999809
v 0.000234651211 -0.0014815327 0.012000001
v 0.000234651211 0.00148153341 0.00999999809
v 2.61780053e-05 0.00149976766 0.012000001
v 0.000174522045 0.00999847448 0.00999999809
v 0.000174522045 0.00999847448 0.012000001
v 0.000348996761 -0.00999390567 0.00999999809
v 0.000348996761 -0.00999390567 0.012000001
v 0.000260476711 -0.00147721255 0.00999999809
v 0.000488347652 -0.00141827548 0.012000001
v 0.000488347652 0.00141827619 0.00999999809
v 0.000260476711 0.00147721326 0.012000001
v 0.000348996761 0.00999390638 0.00999999809
v 0.000348996761 0.00999390638 0.012000001
v 0.000697564724 -0.0099756428 0.00999999809
v 0.000523357037 -0.00998629535 0.012000001
v 0.000513028744 -0.00140953982 0.00999999809
v 0.000749997738 -0.00129903758 0.012000001
v 0.000749997738 0.00129903829 0.00999999809
v 0.000513028744 0.00140954053 0.012000001
v 0.000523357037 0.00998629605 0.00999999809
v 0.000697564724 0.00997564351 0.012000001
v 0.000871553066 -0.00996194804 0.00999999809
v 0.000871553066 -0.00996194804 0.012000001
v 0.000772561672 -0.0012857529 0.00999999809
v 0.000816955212 -0.00125801051 0.012000001
v 0.000838784817 -0.00124355281 0.00999999809
v 0.000984086636 -0.00113206828 0.012000001
v 0.000984086636 0.00113206899 0.00999999809
v 0.000838784817 0.00124355352 0.012000001
v 0.000816955212 0.00125800168 0.00999999809
v 0.000772561672 0.0012857536 0.012000001
v 0.000871553066 0.00996194875 0.00999999809
v 0.000871553066 0.00996194875 0.012000001
v 0.00121869052 -0.00992546046 0.00999999809
v 0.00104528392 -0.00994522059 0.012000001
v 0.00106065715 -0.00106065715 0.00999999809
v 0.00106065715 -0.00106065715 0.012000001
v 0.00113206828 -0.000984086636 0.00999999809
v 0.00124355281 -0.000838784817 0.012000001
v 0.00124355281 0.000838785526 0.00999999809
v 0.00113206828 0.000984087345 0.012000001
v 0.00111472094 0.00100369489 0.00999999809
v 0.00100369418 0.00111472165 0.012000001
v 0.00104528392 0.0099452213 0.00999999809
v 0.00121869052 0.00992546117 0.012000001
v 0.00139173472 -0.00990267718 0.00999999809
v 0.00139173472 -0.00990267718 0.012000001
v 0.00125801051 -0.000816955212 0.00999999809
v 0.0012857529 -0.000772561672 0.012000001
v 0.00129903758 -0.000749997738 0.00999999809
v 0.00140953982 -0.000513028744 0.012000001
v 0.00141827548 -0.000488347652 0.00999999809
v 0.00147721255 -0.000260476711 0.012000001
v 0.0014815327 -0.000234651211 0.00999999809
v 0.00149976695 -2.61780053e-05 0.012000001
v 0.00149999583 3.54727886e-10 0.00999999809
v 0.0014815327 0.00023465192 0.012000001
v 0.00147721255 0.000260467884 0.00999999809
v 0.00141827548 0.000488348362 0.012000001
v 0.00140953982 0.000513029453 0.00999999809
v 0.00129903758 0.000749998447 0.012000001
v 0.0012857529 0.000772552845 0.00999999809
v 0.00125801051 0.000816955921 0.012000001
v 0.00139173472 0.00990267789 0.00999999809
v 0.00139173472 0.00990267789 0.012000001
v 0.00173647845 -0.00984807933 0.00999999809
v 0.00156434024 -0.00987688029 0.012000001
v 0.00156434024 0.009876881 0.00999999809
v 0.00173647845 0.00984808004 0.012000001
v 0.00190809214 -0.00981627429 0.00999999809
v 0.00190809214 -0.00981627429 0.012000001
v 0.00190809214 0.009816275 0.00999999809
v 0.00190809214 0.009816275 0.012000001
v 0.00207911456 -0.00978147471 0.00999999809
v 0.00207911456 -0.00978147471 0.012000001
v 0.00224950755 -0.00974369967 0.00999999809
v 0.00224950755 -0.00974369967 0.012000001
v 0.00224950755 0.00974370038 0.00999999809
v 0.00224950755 0.00974370038 0.012000001
v 0.00207911456 0.00978147542 0.00999999809
v 0.00207911456 0.00978147542 0.012000001
v 0.00241922343 -0.00970295871 0.00999999809
v 0.00241922343 -0.00970295871 0.012000001
v 0.00241922343 0.00970295942 0.00999999809
v 0.00241922343 0.00970295942 0.012000001
v 0.00258818591 -0.00965926135 0.00999999809
v 0.00258818591 -0.00965926135 0.012000001
v 0.00258818591 0.00965926206 0.00999999809
v 0.00258818591 0.00965926206 0.012000001
v 0.00292371714 -0.00956304515 0.00999999809
v 0.00275637591 -0.00961261714 0.012000001
v 0.00275637591 0.00961261785 0.00999999809
v 0.00292371714 0.00956304586 0.012000001
v 0.00309017146 -0.00951056445 0.00999999809
v 0.00309017146 -0.00951056445 0.012000001
v 0.00309017146 0.00951056516 0.00999999809
v 0.00309017146 0.00951056516 0.012000001
v 0.00342019999 -0.00939692462 0.00999999809
v 0.00325568164 -0.00945518458 0.012000001
v 0.00325568164 0.00945518529 0.00999999809
v 0.00342019999 0.00939692533 0.012000001
v 0.00374607051 -0.00927184069 0.00999999809
v 0.00358367884 -0.00933580363 0.012000001
v 0.00358367884 0.00933580434 0.00999999809
v 0.00374607051 0.0092718414 0.012000001
v 0.00390730822 -0.00920504535 0.00999999809
v 0.00390730822 -0.00920504535 0.012000001
v 0.00390730822 0.00920504605 0.00999999809
v 0.00390730822 0.00920504605 0.012000001
v 0.00422617877 -0.00906308139 0.00999999809
v 0.00406736338 -0.00913545573 0.012000001
v 0.00406736338 0.00913545644 0.00999999809
v 0.00422617877 0.0090630821 0.012000001
v 0.00438371623 -0.00898794139 0.00999999809
v 0.00438371623 -0.00898794139 0.012000001
v 0.00438371623 0.0089879421 0.00999999809
v 0.00438371623 0.0089879421 0.012000001
v 0.00469471896 -0.00882947886 0.00999999809
v 0.00453990901 -0.00891006434 0.012000001
v 0.00473431552 -0.00625596011 0.00999999809
v 0.00474491084 -0.00627196276 0.012000001
v 0.00461678469 -0.00601497615 0.00999999809
v 0.00472399676 -0.00623976672 0.012000001
v 0.00456104243 -0.00575272525 0.00999999809
v 0.00461069072 -0.0059967705 0.012000001
v 0.00456755603 -0.00550376857 0.00999999809
v 0.00455953563 -0.005733585 0.012000001
v 0.00462991679 -0.00526265109 0.00999999809
v 0.00457039798 -0.00548478091 0.012000001
v 0.00474491084 -0.00504174197 0.00999999809
v 0.00463695491 -0.00524478877 0.012000001
v 0.00453990901 0.00891006505 0.00999999809
v 0.00469471896 0.00882947957 0.012000001
v 0.00499999965 -0.00866024936 0.00999999809
v 0.0048480984 -0.00874619448 0.012000001
v 0.00496459925 -0.00651171649 0.00999999809
v 0.00499485934 -0.00653535807 0.012000001
v 0.00475578273 -0.00628778422 0.00999999809
v 0.00494978869 -0.00649949992 0.012000001
v 0.00476693118 -0.00501028979 0.00999999809
v 0.00475578273 -0.00502592051 0.012000001
v 0.00499485934 -0.0047783562 0.00999999809
v 0.0047783562 -0.00499485934 0.012000001
v 0.0048480984 0.00874619519 0.00999999809
v 0.00499999965 0.00866025006 0.012000001
v 0.00515038455 -0.00857167208 0.00999999809
v 0.00515038455 -0.00857167208 0.012000001
v 0.00501028979 -0.00654677356 0.00999999809
v 0.00524478877 -0.00667675937 0.012000001
v 0.00502592051 -0.00475578273 0.00999999809
v 0.00501028979 -0.00476693118 0.012000001
v 0.00524478877 -0.00463695491 0.00999999809
v 0.00504174197 -0.00474491084 0.012000001
v 0.00515038455 0.00857167279 0.00999999809
v 0.00515038455 0.00857167279 0.012000001
v 0.00544638598 -0.00838670695 0.00999999809
v 0.00529919589 -0.00848048175 0.012000001
v 0.00526265109 -0.00668379748 0.00999999809
v 0.00548478091 -0.00674330676 0.012000001
v 0.00548478091 -0.00457039798 0.00999999809
v 0.00526265109 -0.00462991679 0.012000001
v 0.00529919589 0.00848048246 0.00999999809
v 0.00544638598 0.00838670766 0.012000001
v 0.00559192622 -0.00829037631 0.00999999809
v 0.00559192622 -0.00829037631 0.012000001
v 0.00573576892 -0.00819151843 0.00999999809
v 0.00573576892 -0.00819151843 0.012000001
v 0.00554187739 -0.00675083125 0.00999999809
v 0.005733585 -0.00675417865 0.012000001
v 0.00550376857 -0.00674614871 0.00999999809
v 0.00552279437 -0.00674865687 0.012000001
v 0.005733585 -0.00455953563 0.00999999809
v 0.00550376857 -0.00456755603 0.012000001
v 0.00573576892 0.00819151914 0.00999999809
v 0.00573576892 0.00819151914 0.012000001
v 0.00559192622 0.00829037702 0.00999999809
v 0.00559192622 0.00829037702 0.012000001
v 0.00587785685 -0.00809017146 0.00999999809
v 0.00587785685 -0.00809017146 0.012000001
v 0.00575272525 -0.00675267184 0.00999999809
v 0.00577183688 -0.00675083125 0.012000001
v 0.00579091037 -0.00674865687 0.00999999809
v 0.0059967705 -0.00670301402 0.012000001
v 0.0059967705 -0.00461069072 0.00999999809
v 0.00575272525 -0.00456104243 0.012000001
v 0.00587785685 0.00809017217 0.00999999809
v 0.00587785685 0.00809017217 0.012000001
v 0.00615661586 -0.00788010562 0.00999999809
v 0.00601815188 -0.00798635447 0.012000001
v 0.00601497615 -0.00669692004 0.00999999809
v 0.00623976672 -0.00658970797 0.012000001
v 0.00623976672 -0.00472399676 0.00999999809
v 0.00601497615 -0.00461678469 0.012000001
v 0.00601815188 0.00798635518 0.00999999809
v 0.00615661586 0.00788010633 0.012000001
v 0.00629320109 -0.00777146304 0.00999999809
v 0.00629320109 -0.00777146304 0.012000001
v 0.00642787898 -0.00766044581 0.00999999809
v 0.00642787898 -0.00766044581 0.012000001
v 0.00625596011 -0.00657938922 0.00999999809
v 0.00634910548 -0.00651171649 0.012000001
v 0.00643466914 -0.00643466914 0.00999999809
v 0.00643466914 -0.00643466914 0.012000001
v 0.00649949992 -0.00494978869 0.00999999809
v 0.00628778422 -0.00475578273 0.012000001
v 0.00627196276 -0.00474491084 0.00999999809
v 0.00625596011 -0.00473431552 0.012000001
v 0.00642787898 0.00766044652 0.00999999809
v 0.00642787898 0.00766044652 0.012000001
v 0.00629320109 0.00777146375 0.00999999809
v 0.00629320109 0.00777146375 0.012000001
v 0.0065605923 -0.00754709208 0.00999999809
v 0.0065605923 -0.00754709208 0.012000001
v 0.0066913029 -0.00743144954 0.00999999809
v 0.0066913029 -0.00743144954 0.012000001
v 0.00651171649 -0.00634910548 0.00999999809
v 0.00657938922 -0.00625596011 0.012000001
v 0.00658970797 -0.00623976672 0.00999999809
v 0.00669692004 -0.00601497615 0.012000001
v 0.00670301402 -0.0059967705 0.00999999809
v 0.00674865687 -0.00579091037 0.012000001
v 0.00674865687 -0.00552279437 0.00999999809
v 0.00674614871 -0.00550376857 0.012000001
v 0.00674330676 -0.00548478091 0.00999999809
v 0.00668379748 -0.00526265109 0.012000001
v 0.00667675937 -0.00524478877 0.00999999809
v 0.00654677356 -0.00501028979 0.012000001
v 0.00653535807 -0.00499485934 0.00999999809
v 0.00651171649 -0.00496459925 0.012000001
v 0.0066913029 0.00743145024 0.00999999809
v 0.0066913029 0.00743145024 0.012000001
v 0.0065605923 0.00754709279 0.00999999809
v 0.0065605923 0.00754709279 0.012000001
v 0.00681998217 -0.00731353724 0.00999999809
v 0.00681998217 -0.00731353724 0.012000001
v 0.00694658244 -0.00719339335 0.00999999809
v 0.00694658244 -0.00719339335 0.012000001
v 0.00675083125 -0.00577183688 0.00999999809
v 0.00675267184 -0.00575272525 0.012000001
v 0.00675417865 -0.005733585 0.00999999809
v 0.00675083125 -0.00554187739 0.012000001
v 0.00694658244 0.00719339406 0.00999999809
v 0.00694658244 0.00719339406 0.012000001
v 0.00681998217 0.00731353795 0.00999999809
v 0.00681998217 0.00731353795 0.012000001
v 0.00707106555 -0.00707106555 0.00999999809
v 0.00707106555 -0.00707106555 0.012000001
v 0.00719339335 -0.00694658244 0.00999999809
v 0.00719339335 -0.00694658244 0.012000001
v 0.00719339335 0.00694658315 0.00999999809
v 0.00719339335 0.00694658315 0.012000001
v 0.00707106555 0.00707106626 0.00999999809
v 0.00707106555 0.00707106626 0.012000001
v 0.00731353724 -0.00681998217 0.00999999809
v 0.00731353724 -0.00681998217 0.012000001
v 0.00743144954 -0.0066913029 0.00999999809
v 0.00743144954 -0.0066913029 0.012000001
v 0.00743144954 0.00669130361 0.00999999809
v 0.00743144954 0.00669130361 0.012000001
v 0.00731353724 0.00681998288 0.00999999809
v 0.00731353724 0.00681998288 0.012000001
v 0.00754709208 -0.0065605923 0.00999999809
v 0.00754709208 -0.0065605923 0.012000001
v 0.00766044581 -0.00642787898 0.00999999809
v 0.00766044581 -0.00642787898 0.012000001
v 0.00766044581 0.00642787969 0.00999999809
v 0.00766044581 0.00642787969 0.012000001
v 0.00754709208 0.00656059301 0.00999999809
v 0.00754709208 0.00656059301 0.012000001
v 0.00777146304 -0.00629320109 0.00999999809
v 0.00777146304 -0.00629320109 0.012000001
v 0.00798635447 -0.00601815188 0.00999999809
v 0.00788010562 -0.00615661586 0.012000001
v 0.00788010562 0.00615661657 0.00999999809
v 0.00798635447 0.00601815259 0.012000001
v 0.00777146304 0.0062932018 0.00999999809
v 0.00777146304 0.0062932018 0.012000001
v 0.00809017146 -0.00587785685 0.00999999809
v 0.00809017146 -0.00587785685 0.012000001
v 0.00819151843 -0.00573576892 0.00999999809
v 0.00819151843 -0.00573576892 0.012000001
v 0.00819151843 0.00573576009 0.00999999809
v 0.00819151843 0.00573576009 0.012000001
v 0.00809017146 0.00587784803 0.00999999809
v 0.00809017146 0.00587784803 0.012000001
v 0.00829037631 -0.00559192622 0.00999999809
v 0.00829037631 -0.00559192622 0.012000001
v 0.00848048175 -0.00529919589 0.00999999809
v 0.00838670695 -0.00544638598 0.012000001
v 0.00838670695 0.00544638669 0.00999999809
v 0.00848048175 0.0052991966 0.012000001
v 0.00829037631 0.00559192693 0.00999999809
v 0.00829037631 0.00559192693 0.012000001
v 0.00857167208 -0.00515038455 0.00999999809
v 0.00857167208 -0.00515038455 0.012000001
v 0.00874619448 -0.0048480984 0.00999999809
v 0.00866024936 -0.00499999965 0.012000001
v 0.00874619448 0.00484809911 0.00999999809
v 0.00874619448 0.00484809911 0.012000001
v 0.00857167208 0.00515038526 0.00999999809
v 0.00866024936 0.00500000035 0.012000001
v 0.00891006434 -0.00453990901 0.00999999809
v 0.00882947886 -0.00469471896 0.012000001
v 0.00898794139 -0.00438371623 0.00999999809
v 0.00898794139 -0.00438371623 0.012000001
v 0.00898794139 0.0043837074 0.00999999809
v 0.00898794139 0.0043837074 0.012000001
v 0.00882947886 0.00469471967 0.00999999809
v 0.00891006434 0.00453990972 0.012000001
v 0.00913545573 -0.00406736338 0.00999999809
v 0.00906308139 -0.00422617877 0.012000001
v 0.00920504535 -0.00390730822 0.00999999809
v 0.00920504535 -0.00390730822 0.012000001
v 0.00920504535 0.00390730893 0.00999999809
v 0.00920504535 0.00390730893 0.012000001
v 0.00906308139 0.00422617948 0.00999999809
v 0.00913545573 0.00406736409 0.012000001
v 0.00933580363 -0.00358367884 0.00999999809
v 0.00927184069 -0.00374607051 0.012000001
v 0.00945518458 -0.00325568164 0.00999999809
v 0.00939692462 -0.00342019999 0.012000001
v 0.00939692462 0.0034202007 0.00999999809
v 0.00945518458 0.00325568235 0.012000001
v 0.00927184069 0.00374606168 0.00999999809
v 0.00933580363 0.00358367955 0.012000001
v 0.00951056445 -0.00309017146 0.00999999809
v 0.00951056445 -0.00309017146 0.012000001
v 0.00961261714 -0.00275637591 0.00999999809
v 0.00956304515 -0.00292371714 0.012000001
v 0.00965926135 -0.00258818591 0.00999999809
v 0.00965926135 -0.00258818591 0.012000001
v 0.00970295871 -0.00241922343 0.00999999809
v 0.00970295871 -0.00241922343 0.012000001
v 0.00974369967 -0.00224950755 0.00999999809
v 0.00974369967 -0.00224950755 0.012000001
v 0.00974369967 0.00224950826 0.00999999809
v 0.00974369967 0.00224950826 0.012000001
v 0.00970295871 0.0024192146 0.00999999809
v 0.00970295871 0.0024192146 0.012000001
v 0.00965926135 0.00258818662 0.00999999809
v 0.00965926135 0.00258818662 0.012000001
v 0.00956304515 0.00292371785 0.00999999809
v 0.00961261714 0.00275637662 0.012000001
v 0.00951056445 0.00309017217 0.00999999809
v 0.00951056445 0.00309017217 0.012000001
v 0.00978147471 -0.00207911456 0.00999999809
v 0.00978147471 -0.00207911456 0.012000001
v 0.00981627429 -0.00190809214 0.00999999809
v 0.00981627429 -0.00190809214 0.012000001
v 0.00987688029 -0.00156434024 0.00999999809
v 0.00984807933 -0.00173647845 0.012000001
v 0.00990267718 -0.00139173472 0.00999999809
v 0.00990267718 -0.00139173472 0.012000001
v 0.00994522059 -0.00104528392 0.00999999809
v 0.00992546046 -0.00121869052 0.012000001
v 0.00996194804 -0.000871553066 0.00999999809
v 0.00996194804 -0.000871553066 0.012000001
v 0.00998629535 -0.000523357037 0.00999999809
v 0.0099756428 -0.000697564724 0.012000001
v 0.00999390567 -0.000348996761 0.00999999809
v 0.00999390567 -0.000348996761 0.012000001
v 0.00999847377 -0.000174522045 0.00999999809
v 0.00999847377 -0.000174522045 0.012000001
v 0.00999847377 0.000174522755 0.00999999809
v 0.00999999965 3.54727886e-10 0.012000001
v 0.00999390567 0.000348997471 0.00999999809
v 0.00999390567 0.000348997471 0.012000001
v 0.0099756428 0.000697565433 0.00999999809
v 0.00998629535 0.000523357746 0.012000001
v 0.00996194804 0.000871553776 0.00999999809
v 0.00996194804 0.000871553776 0.012000001
v 0.00992546046 0.00121869123 0.00999999809
v 0.00994522059 0.00104528463 0.012000001
v 0.00990267718 0.00139173543 0.00999999809
v 0.00990267718 0.00139173543 0.012000001
v 0.00984807933 0.00173647916 0.00999999809
v 0.00987688029 0.00156434095 0.012000001
v 0.00981627429 0.00190809285 0.00999999809
v 0.00981627429 0.00190809285 0.012000001
v 0.00978147471 0.00207911527 0.00999999809
v 0.00978147471 0.00207911527 0.012000001
f 1 20 2
f 1 2 21
f 19 20 1
f 1 341 19
f 21 341 1
f 20 344 2
f 21 2 22
f 2 344 22
f 3 4 5
f 3 48 4
f 5 341 3
f 47 48 3
f 3 341 47
f 5 4 6
f 4 344 6
f 48 344 4
f 5 6 7
f 7 341 5
f 7 6 8
f 6 344 8
f 7 8 9
f 9 341 7
f 9 8 10
f 8 344 10
f 9 10 11
f 11 341 9
f 11 10 12
f 10 344 12
f 11 12 13
f 13 341 11
f 13 12 14
f 12 344 14
f 13 14 15
f 15 341 13
f 15 14 16
f 14 344 16
f 15 16 17
f 17 341 15
f 17 16 18
f 16 344 18
f 17 18 19
f 19 341 17
f 19 18 20
f 18 344 20
f 21 22 23
f 23 341 21
f 23 22 24
f 22 344 24
f 23 24 25
f 25 341 23
f 25 24 26
f 24 344 26
f 25 26 27
f 27 341 25
f 27 26 28
f 26 344 28
f 27 28 29
f 29 341 27
f 29 28 30
f 28 344 30
f 29 30 31
f 31 341 29
f 31 30 32
f 30 344 32
f 31 32 33
f 33 341 31
f 33 32 34
f 32 344 34
f 33 34 35
f 35 341 33
f 35 34 36
f 34 344 36
f 35 36 37
f 37 341 35
f 37 36 38
f 36 344 38
f 37 38 49
f 49 341 37
f 49 38 50
f 38 344 50
f 39 40 41
f 39 62 40
f 41 341 39
f 61 62 39
f 39 341 61
f 41 40 42
f 40 344 42
f 62 344 40
f 41 42 43
f 43 341 41
f 43 42 44
f 42 344 44
f 43 44 45
f 45 341 43
f 45 44 46
f 44 344 46
f 45 46 47
f 47 341 45
f 47 46 48
f 46 344 48
f 49 50 51
f 51 341 49
f 51 50 52
f 50 344 52
f 51 52 53
f 53 341 51
f 53 52 54
f 52 344 54
f 53 54 55
f 55 341 53
f 55 54 56
f 54 344 56
f 55 56 57
f 57 341 55
f 57 56 58
f 56 344 58
f 57 58 63
f 63 341 57
f 63 58 64
f 58 344 64
f 59 60 61
f 59 70 60
f 61 341 59
f 69 70 59
f 59 341 69
f 61 60 62
f 60 344 62
f 70 344 60
f 63 64 65
f 65 341 63
f 65 64 66
f 64 344 66
f 65 66 71
f 71 341 65
f 71 66 72
f 66 344 72
f 67 68 69
f 67 78 68
f 69 341 67
f 77 78 67
f 67 341 77
f 69 68 70
f 68 344 70
f 78 344 68
f 71 72 73
f 73 341 71
f 73 72 74
f 72 344 74
f 73 74 79
f 79 341 73
f 79 74 80
f 74 344 80
f 75 76 77
f 75 86 76
f 77 341 75
f 85 86 75
f 75 341 85
f 77 76 78
f 76 344 78
f 86 344 76
f 79 80 81
f 81 341 79
f 81 80 82
f 80 344 82
f 81 82 87
f 87 341 81
f 87 82 88
f 82 344 88
f 83 84 85
f 83 94 84
f 85 341 83
f 93 94 83
f 83 341 93
f 85 84 86
f 84 344 86
f 94 344 84
f 87 88 89
f 89 341 87
f 89 88 90
f 88 344 90
f 89 90 95
f 95 341 89
f 95 90 96
f 90 344 96
f 91 92 93
f 91 102 92
f 93 341 91
f 101 102 91
f 91 341 101
f 93 92 94
f 92 344 94
f 102 344 92
f 95 96 97
f 97 341 95
f 97 96 98
f 96 344 98
f 97 98 103
f 103 341 97
f 103 98 104
f 98 344 104
f 99 100 101
f 99 110 100
f 101 341 99
f 109 110 99
f 99 341 109
f 101 100 102
f 100 344 102
f 110 344 100
f 103 104 105
f 105 341 103
f 105 104 106
f 104 344 106
f 105 106 111
f 111 143 105
f 143 161 105
f 157 155 105
f 155 179 105
f 159 157 105
f 105 161 159
f 179 323 105
f 105 323 321
f 105 321 343
f 343 341 105
f 111 106 112
f 106 344 112
f 107 108 109
f 107 118 108
f 109 341 107
f 117 118 107
f 107 341 117
f 109 108 110
f 108 344 110
f 118 344 108
f 111 112 113
f 113 145 111
f 111 145 143
f 113 112 114
f 112 180 114
f 180 112 328
f 112 322 324
f 112 344 322
f 112 324 326
f 112 326 328
f 113 114 119
f 119 163 113
f 163 145 113
f 119 114 120
f 114 158 120
f 114 156 158
f 114 180 156
f 115 116 117
f 115 126 116
f 117 341 115
f 125 126 115
f 115 341 125
f 117 116 118
f 116 344 118
f 126 342 116
f 116 342 344
f 119 120 121
f 121 163 119
f 121 120 122
f 120 162 122
f 120 158 160
f 160 162 120
f 121 122 127
f 127 165 121
f 165 163 121
f 127 122 128
f 122 146 128
f 144 146 122
f 122 162 144
f 123 124 125
f 123 134 124
f 125 341 123
f 133 134 123
f 123 341 133
f 125 124 126
f 124 342 126
f 134 342 124
f 127 128 129
f 129 165 127
f 129 128 130
f 128 164 130
f 128 146 164
f 129 130 135
f 135 167 129
f 129 167 165
f 135 130 136
f 130 166 136
f 130 164 166
f 131 132 133
f 131 142 132
f 133 341 131
f 141 142 131
f 131 341 141
f 133 132 134
f 132 342 134
f 142 342 132
f 135 136 137
f 137 181 135
f 181 167 135
f 137 136 138
f 136 168 138
f 166 168 136
f 137 138 147
f 147 181 137
f 147 138 148
f 138 182 148
f 138 168 182
f 139 140 141
f 139 154 140
f 141 341 139
f 153 154 139
f 139 341 153
f 141 140 142
f 140 342 142
f 154 342 140
f 143 146 144
f 143 144 161
f 145 146 143
f 161 144 162
f 145 164 146
f 163 164 145
f 147 148 149
f 149 183 147
f 147 183 181
f 149 148 150
f 148 184 150
f 182 184 148
f 149 150 169
f 169 193 149
f 193 183 149
f 169 150 170
f 150 194 170
f 184 194 150
f 151 152 153
f 151 176 152
f 153 341 151
f 175 176 151
f 151 355 175
f 151 341 355
f 153 152 154
f 152 342 154
f 176 342 152
f 155 158 156
f 155 156 179
f 157 158 155
f 179 156 180
f 157 160 158
f 159 160 157
f 159 162 160
f 161 162 159
f 163 166 164
f 165 166 163
f 165 168 166
f 167 168 165
f 167 182 168
f 181 182 167
f 169 170 171
f 171 193 169
f 171 170 172
f 170 202 172
f 170 194 202
f 171 172 185
f 185 201 171
f 171 201 193
f 185 172 186
f 172 204 186
f 172 202 204
f 173 174 175
f 173 190 174
f 175 355 173
f 189 190 173
f 173 355 189
f 175 174 176
f 174 342 176
f 190 342 174
f 177 180 178
f 177 178 191
f 179 180 177
f 177 327 179
f 191 329 177
f 177 329 327
f 328 178 180
f 191 178 192
f 330 192 178
f 330 178 328
f 325 323 179
f 179 327 325
f 181 184 182
f 183 184 181
f 183 194 184
f 193 194 183
f 185 186 187
f 187 201 185
f 187 186 188
f 186 214 188
f 186 204 216
f 216 214 186
f 187 188 195
f 195 203 187
f 187 203 201
f 195 188 196
f 188 236 196
f 188 214 226
f 188 226 236
f 189 198 190
f 197 198 189
f 189 355 197
f 198 342 190
f 191 192 199
f 199 329 191
f 199 192 200
f 330 200 192
f 193 202 194
f 201 202 193
f 195 196 205
f 195 215 203
f 205 215 195
f 205 196 206
f 196 410 206
f 196 236 248
f 196 248 246
f 196 246 394
f 196 394 402
f 196 402 410
f 197 210 198
f 209 210 197
f 197 355 209
f 210 342 198
f 199 200 211
f 211 331 199
f 199 331 329
f 211 200 212
f 332 212 200
f 332 200 330
f 201 204 202
f 203 204 201
f 203 216 204
f 215 216 203
f 205 206 217
f 213 215 205
f 205 225 213
f 217 225 205
f 217 206 218
f 206 434 218
f 206 410 422
f 206 422 420
f 420 434 206
f 207 208 209
f 207 222 208
f 209 355 207
f 221 222 207
f 207 355 221
f 209 208 210
f 208 342 210
f 222 342 208
f 211 212 223
f 223 331 211
f 223 212 224
f 332 224 212
f 213 214 215
f 213 226 214
f 225 226 213
f 215 214 216
f 217 218 219
f 219 225 217
f 219 218 220
f 218 434 220
f 219 220 227
f 227 225 219
f 227 220 228
f 220 434 228
f 221 230 222
f 229 230 221
f 221 353 229
f 221 355 353
f 230 342 222
f 223 224 231
f 231 333 223
f 223 333 331
f 231 224 232
f 334 232 224
f 334 224 332
f 225 236 226
f 227 235 225
f 235 236 225
f 227 228 237
f 237 235 227
f 237 228 238
f 228 434 238
f 229 240 230
f 239 240 229
f 229 365 239
f 229 353 365
f 240 342 230
f 231 232 233
f 233 345 231
f 231 335 333
f 231 345 335
f 233 232 234
f 346 234 232
f 336 232 334
f 346 232 336
f 233 234 241
f 241 345 233
f 241 234 242
f 346 242 234
f 235 248 236
f 249 235 237
f 247 248 235
f 247 235 249
f 237 238 249
f 249 238 250
f 238 434 250
f 239 252 240
f 251 252 239
f 239 365 251
f 252 342 240
f 241 242 243
f 357 241 243
f 241 347 345
f 347 241 357
f 243 242 244
f 358 244 242
f 348 242 346
f 358 242 348
f 243 244 253
f 357 243 253
f 253 244 254
f 358 254 244
f 245 246 247
f 245 264 246
f 245 247 265
f 263 264 245
f 393 263 245
f 269 245 265
f 273 245 269
f 393 245 273
f 247 246 248
f 394 246 264
f 265 247 249
f 249 250 265
f 265 250 266
f 250 434 266
f 251 268 252
f 267 268 251
f 251 365 267
f 268 342 252
f 253 254 255
f 367 253 255
f 357 253 359
f 359 253 367
f 255 254 256
f 368 256 254
f 360 254 358
f 368 254 360
f 255 256 257
f 375 255 257
f 367 255 375
f 257 256 258
f 376 258 256
f 376 256 368
f 257 258 259
f 375 257 259
f 259 258 260
f 376 260 258
f 259 260 261
f 383 259 261
f 375 259 383
f 261 260 262
f 384 262 260
f 384 260 376
f 261 262 263
f 261 263 393
f 383 261 393
f 263 262 264
f 394 264 262
f 394 262 384
f 265 266 269
f 269 266 270
f 266 434 270
f 267 272 268
f 271 272 267
f 267 365 271
f 272 342 268
f 269 270 273
f 273 270 274
f 270 434 274
f 271 276 272
f 275 276 271
f 271 365 275
f 276 342 272
f 273 274 277
f 703 273 277
f 273 401 393
f 273 409 401
f 273 421 409
f 273 419 421
f 433 419 273
f 701 433 273
f 701 273 703
f 277 274 278
f 274 434 278
f 275 280 276
f 279 280 275
f 275 365 279
f 280 342 276
f 277 278 281
f 709 277 281
f 703 277 709
f 281 278 282
f 278 434 282
f 279 284 280
f 283 284 279
f 279 365 283
f 284 342 280
f 281 282 285
f 711 281 285
f 709 281 711
f 285 282 286
f 282 434 286
f 283 288 284
f 287 288 283
f 283 373 287
f 283 365 373
f 288 342 284
f 285 286 289
f 717 285 289
f 711 285 717
f 289 286 290
f 286 434 290
f 287 292 288
f 291 292 287
f 287 373 291
f 292 342 288
f 289 290 293
f 719 289 293
f 717 289 719
f 293 290 294
f 290 434 294
f 291 296 292
f 295 296 291
f 291 373 295
f 296 342 292
f 293 294 297
f 721 293 297
f 719 293 721
f 297 294 298
f 294 434 298
f 295 300 296
f 299 300 295
f 295 373 299
f 300 342 296
f 297 298 301
f 723 297 301
f 721 297 723
f 301 298 302
f 298 434 302
f 299 306 300
f 305 306 299
f 299 373 305
f 306 342 300
f 301 302 307
f 725 301 307
f 723 301 725
f 307 302 308
f 302 434 308
f 303 304 305
f 303 312 304
f 305 373 303
f 311 312 303
f 303 373 311
f 305 304 306
f 304 342 306
f 312 342 304
f 307 308 309
f 737 307 309
f 725 307 737
f 309 308 310
f 308 434 310
f 309 310 313
f 739 309 313
f 737 309 739
f 313 310 314
f 310 434 314
f 311 316 312
f 315 316 311
f 311 373 315
f 316 342 312
f 313 314 317
f 741 313 317
f 739 313 741
f 317 314 318
f 314 434 318
f 315 320 316
f 319 320 315
f 315 381 319
f 315 373 381
f 320 342 316
f 317 318 337
f 743 317 337
f 741 317 743
f 337 318 338
f 318 434 338
f 319 340 320
f 339 340 319
f 319 381 339
f 340 342 320
f 321 324 322
f 321 322 343
f 323 324 321
f 343 322 344
f 323 326 324
f 325 326 323
f 325 328 326
f 327 328 325
f 327 330 328
f 329 330 327
f 329 332 330
f 331 332 329
f 331 334 332
f 333 334 331
f 333 336 334
f 335 336 333
f 335 346 336
f 345 346 335
f 337 338 349
f 745 337 349
f 743 337 745
f 349 338 350
f 338 434 350
f 339 352 340
f 351 352 339
f 339 381 351
f 352 342 340
f 341 344 342
f 341 342 355
f 343 344 341
f 364 342 352
f 355 342 356
f 570 356 342
f 372 342 364
f 380 342 372
f 390 342 380
f 398 342 390
f 406 342 398
f 414 342 406
f 426 342 414
f 438 342 426
f 458 342 438
f 462 342 458
f 466 342 462
f 468 342 466
f 474 342 468
f 478 342 474
f 482 342 478
f 486 342 482
f 490 342 486
f 494 342 490
f 498 342 494
f 502 342 498
f 506 342 502
f 510 342 506
f 526 342 510
f 538 342 526
f 548 342 538
f 556 342 548
f 558 342 556
f 570 342 558
f 345 348 346
f 347 348 345
f 347 358 348
f 357 358 347
f 349 350 361
f 747 349 361
f 745 349 747
f 361 350 362
f 350 434 362
f 351 364 352
f 363 364 351
f 351 381 363
f 353 356 354
f 353 354 365
f 355 356 353
f 570 354 356
f 365 354 366
f 570 366 354
f 357 360 358
f 359 360 357
f 359 368 360
f 367 368 359
f 361 362 369
f 749 361 369
f 747 361 749
f 369 362 370
f 362 434 370
f 363 372 364
f 371 372 363
f 363 381 371
f 365 366 373
f 373 366 374
f 530 374 366
f 530 366 570
f 367 376 368
f 375 376 367
f 369 370 377
f 751 369 377
f 749 369 751
f 377 370 378
f 370 434 378
f 371 380 372
f 379 380 371
f 371 381 379
f 373 374 381
f 381 374 382
f 530 382 374
f 375 384 376
f 383 384 375
f 377 378 385
f 753 377 385
f 751 377 753
f 385 378 386
f 378 434 386
f 379 390 380
f 379 381 389
f 389 390 379
f 381 382 391
f 389 381 397
f 391 517 381
f 397 381 405
f 405 381 413
f 413 381 425
f 425 381 529
f 381 513 511
f 381 511 529
f 515 513 381
f 381 517 515
f 391 382 392
f 382 518 392
f 382 512 514
f 530 512 382
f 382 514 516
f 382 516 518
f 383 394 384
f 393 394 383
f 385 386 387
f 755 385 387
f 753 385 755
f 387 386 388
f 386 434 388
f 387 388 395
f 755 387 395
f 395 388 396
f 388 434 396
f 389 398 390
f 397 398 389
f 391 392 399
f 399 517 391
f 399 392 400
f 392 518 400
f 393 402 394
f 401 402 393
f 395 396 403
f 757 395 403
f 755 395 757
f 403 396 404
f 396 434 404
f 397 406 398
f 405 406 397
f 399 400 407
f 407 519 399
f 399 519 517
f 407 400 408
f 400 520 408
f 400 518 520
f 401 410 402
f 409 410 401
f 403 404 411
f 759 403 411
f 757 403 759
f 411 404 412
f 404 434 412
f 405 414 406
f 413 414 405
f 407 408 415
f 415 521 407
f 407 521 519
f 415 408 416
f 408 522 416
f 408 520 522
f 409 422 410
f 421 422 409
f 411 412 423
f 761 411 423
f 759 411 761
f 423 412 424
f 412 434 424
f 413 426 414
f 425 426 413
f 415 416 417
f 417 521 415
f 417 416 418
f 416 522 418
f 417 418 427
f 427 533 417
f 417 531 521
f 417 533 531
f 427 418 428
f 418 534 428
f 418 522 532
f 418 532 534
f 419 420 421
f 419 434 420
f 433 434 419
f 421 420 422
f 423 424 435
f 763 423 435
f 761 423 763
f 424 434 436
f 435 424 436
f 425 438 426
f 437 438 425
f 425 529 437
f 427 428 429
f 429 533 427
f 429 428 430
f 428 534 430
f 429 430 439
f 439 543 429
f 429 541 533
f 429 543 541
f 439 430 440
f 430 544 440
f 430 534 542
f 430 542 544
f 431 432 433
f 431 454 432
f 669 431 433
f 453 454 431
f 669 453 431
f 433 432 434
f 660 434 432
f 682 432 454
f 660 432 658
f 658 432 668
f 668 432 666
f 666 432 676
f 676 432 674
f 674 432 684
f 684 432 682
f 669 433 671
f 671 433 677
f 677 433 679
f 679 433 685
f 685 433 687
f 687 433 693
f 693 433 695
f 695 433 701
f 436 434 456
f 456 434 460
f 460 434 464
f 464 434 472
f 472 434 470
f 470 434 476
f 476 434 480
f 480 434 484
f 484 434 488
f 488 434 492
f 492 434 496
f 496 434 500
f 500 434 504
f 504 434 508
f 508 434 524
f 524 434 536
f 536 434 546
f 546 434 554
f 554 434 568
f 568 434 566
f 566 434 578
f 578 434 586
f 586 434 602
f 602 434 600
f 600 434 624
f 624 434 622
f 622 434 636
f 636 434 634
f 634 434 644
f 644 434 642
f 642 434 652
f 652 434 650
f 650 434 660
f 435 436 455
f 765 435 455
f 763 435 765
f 455 436 456
f 437 458 438
f 457 458 437
f 437 529 457
f 439 440 441
f 441 543 439
f 441 440 442
f 440 544 442
f 441 442 443
f 443 551 441
f 441 551 543
f 443 442 444
f 442 552 444
f 442 544 552
f 443 444 445
f 445 563 443
f 443 563 551
f 445 444 446
f 444 564 446
f 444 552 564
f 445 446 447
f 447 563 445
f 447 446 448
f 446 564 448
f 447 448 449
f 595 447 449
f 447 575 563
f 447 583 575
f 447 597 583
f 595 597 447
f 449 448 450
f 768 450 448
f 448 564 576
f 576 584 448
f 448 584 598
f 448 598 596
f 746 448 596
f 748 448 746
f 750 448 748
f 752 448 750
f 754 448 752
f 756 448 754
f 758 448 756
f 760 448 758
f 762 448 760
f 764 448 762
f 766 448 764
f 768 448 766
f 449 450 451
f 595 449 451
f 451 450 452
f 714 452 450
f 714 450 736
f 730 450 728
f 728 450 772
f 732 450 730
f 734 450 732
f 736 450 734
f 770 450 768
f 772 450 770
f 451 452 453
f 669 451 453
f 595 451 669
f 453 452 454
f 692 454 452
f 692 452 690
f 690 452 700
f 700 452 698
f 698 452 708
f 708 452 706
f 706 452 716
f 716 452 714
f 682 454 692
f 455 456 459
f 767 455 459
f 765 455 767
f 459 456 460
f 457 462 458
f 461 462 457
f 457 529 461
f 459 460 463
f 769 459 463
f 767 459 769
f 463 460 464
f 461 466 462
f 465 466 461
f 461 529 465
f 463 464 471
f 771 463 471
f 769 463 771
f 471 464 472
f 465 468 466
f 467 468 465
f 465 529 467
f 467 474 468
f 473 474 467
f 467 529 473
f 469 472 470
f 469 470 475
f 471 472 469
f 727 471 469
f 729 469 475
f 727 469 729
f 475 470 476
f 771 471 727
f 473 478 474
f 477 478 473
f 473 529 477
f 475 476 479
f 731 475 479
f 729 475 731
f 479 476 480
f 477 482 478
f 481 482 477
f 477 529 481
f 479 480 483
f 733 479 483
f 731 479 733
f 483 480 484
f 481 486 482
f 485 486 481
f 481 529 485
f 483 484 487
f 735 483 487
f 733 483 735
f 487 484 488
f 485 490 486
f 489 490 485
f 485 529 489
f 487 488 491
f 713 487 491
f 735 487 713
f 491 488 492
f 489 494 490
f 493 494 489
f 489 529 493
f 491 492 495
f 715 491 495
f 713 491 715
f 495 492 496
f 493 498 494
f 497 498 493
f 493 529 497
f 495 496 499
f 705 495 499
f 715 495 705
f 499 496 500
f 497 502 498
f 501 502 497
f 497 529 501
f 499 500 503
f 707 499 503
f 705 499 707
f 503 500 504
f 501 506 502
f 505 506 501
f 529 505 501
f 503 504 507
f 697 503 507
f 707 503 697
f 507 504 508
f 505 510 506
f 509 510 505
f 529 509 505
f 507 508 523
f 699 507 523
f 697 507 699
f 523 508 524
f 509 526 510
f 525 526 509
f 509 527 525
f 529 527 509
f 511 514 512
f 511 512 529
f 513 514 511
f 529 512 530
f 513 516 514
f 515 516 513
f 515 518 516
f 517 518 515
f 517 520 518
f 519 520 517
f 519 522 520
f 521 522 519
f 521 532 522
f 531 532 521
f 523 524 535
f 689 523 535
f 699 523 689
f 535 524 536
f 525 538 526
f 527 539 525
f 537 538 525
f 525 539 537
f 527 530 528
f 527 528 539
f 529 530 527
f 528 530 570
f 539 528 540
f 540 528 570
f 531 534 532
f 533 534 531
f 533 542 534
f 541 542 533
f 535 536 545
f 691 535 545
f 689 535 691
f 545 536 546
f 537 548 538
f 537 539 547
f 547 548 537
f 539 540 549
f 547 539 549
f 549 540 550
f 550 540 570
f 541 544 542
f 543 544 541
f 543 552 544
f 551 552 543
f 545 546 553
f 681 545 553
f 691 545 681
f 553 546 554
f 547 556 548
f 547 549 555
f 555 556 547
f 549 550 561
f 555 549 557
f 557 549 569
f 569 549 561
f 561 550 562
f 570 562 550
f 551 564 552
f 563 564 551
f 553 554 567
f 683 553 567
f 681 553 683
f 567 554 568
f 555 558 556
f 557 558 555
f 557 570 558
f 569 570 557
f 559 562 560
f 559 560 571
f 561 562 559
f 561 559 569
f 569 559 579
f 579 559 571
f 560 562 570
f 580 560 570
f 571 560 572
f 580 572 560
f 563 576 564
f 575 576 563
f 565 568 566
f 565 566 577
f 567 568 565
f 673 567 565
f 675 565 577
f 673 565 675
f 577 566 578
f 683 567 673
f 569 580 570
f 579 580 569
f 571 572 573
f 587 571 573
f 579 571 587
f 573 572 574
f 574 572 588
f 588 572 580
f 573 574 581
f 603 573 581
f 587 573 589
f 589 573 603
f 581 574 582
f 582 574 604
f 590 574 588
f 604 574 590
f 575 584 576
f 583 584 575
f 577 578 585
f 665 577 585
f 675 577 665
f 585 578 586
f 579 588 580
f 587 588 579
f 581 582 591
f 581 591 625
f 603 581 605
f 605 581 625
f 591 582 592
f 626 592 582
f 606 582 604
f 626 582 606
f 583 598 584
f 597 598 583
f 585 586 601
f 667 585 601
f 665 585 667
f 601 586 602
f 587 590 588
f 589 590 587
f 589 604 590
f 603 604 589
f 591 592 593
f 627 591 593
f 625 591 627
f 593 592 594
f 594 592 628
f 628 592 626
f 593 594 607
f 593 607 639
f 627 593 637
f 637 593 639
f 607 594 608
f 640 608 594
f 638 594 628
f 640 594 638
f 595 596 597
f 595 620 596
f 619 620 595
f 619 595 669
f 597 596 598
f 596 620 694
f 596 694 696
f 596 696 702
f 704 596 702
f 710 596 704
f 712 596 710
f 718 596 712
f 720 596 718
f 722 596 720
f 724 596 722
f 726 596 724
f 738 596 726
f 740 596 738
f 742 596 740
f 744 596 742
f 746 596 744
f 599 602 600
f 599 600 623
f 601 602 599
f 657 601 599
f 659 599 623
f 657 599 659
f 623 600 624
f 667 601 657
f 603 606 604
f 605 606 603
f 605 626 606
f 625 626 605
f 607 608 609
f 645 607 609
f 639 607 645
f 609 608 610
f 610 608 646
f 646 608 640
f 609 610 611
f 609 611 653
f 645 609 647
f 647 609 653
f 611 610 612
f 654 612 610
f 648 610 646
f 654 610 648
f 611 612 629
f 611 629 661
f 653 611 655
f 655 611 661
f 629 612 630
f 662 630 612
f 656 612 654
f 662 612 656
f 613 614 615
f 613 632 614
f 669 613 615
f 631 632 613
f 631 613 669
f 615 614 616
f 670 616 614
f 614 632 670
f 615 616 617
f 615 617 669
f 617 616 618
f 680 618 616
f 672 616 670
f 678 616 672
f 680 616 678
f 617 618 619
f 617 619 669
f 619 618 620
f 620 618 688
f 686 618 680
f 688 618 686
f 694 620 688
f 621 624 622
f 621 622 635
f 623 624 621
f 649 623 621
f 651 621 635
f 649 621 651
f 635 622 636
f 659 623 649
f 625 628 626
f 627 628 625
f 627 638 628
f 637 638 627
f 629 630 631
f 663 629 631
f 661 629 663
f 631 630 632
f 664 632 630
f 664 630 662
f 663 631 669
f 670 632 664
f 633 636 634
f 633 634 643
f 635 636 633
f 641 635 633
f 641 633 643
f 643 634 644
f 651 635 641
f 637 640 638
f 639 640 637
f 639 646 640
f 645 646 639
f 641 644 642
f 641 642 651
f 643 644 641
f 651 642 652
f 645 648 646
f 647 648 645
f 647 654 648
f 653 654 647
f 649 652 650
f 649 650 659
f 651 652 649
f 659 650 660
f 653 656 654
f 655 656 653
f 655 662 656
f 661 662 655
f 657 660 658
f 657 658 667
f 659 660 657
f 667 658 668
f 661 664 662
f 663 664 661
f 663 670 664
f 669 670 663
f 665 668 666
f 665 666 675
f 667 668 665
f 675 666 676
f 669 672 670
f 671 672 669
f 671 678 672
f 677 678 671
f 673 676 674
f 673 674 683
f 675 676 673
f 683 674 684
f 677 680 678
f 679 680 677
f 679 686 680
f 685 686 679
f 681 684 682
f 681 682 691
f 683 684 681
f 691 682 692
f 685 688 686
f 687 688 685
f 687 694 688
f 693 694 687
f 689 692 690
f 689 690 699
f 691 692 689
f 699 690 700
f 693 696 694
f 695 696 693
f 695 702 696
f 701 702 695
f 697 700 698
f 697 698 707
f 699 700 697
f 707 698 708
f 701 704 702
f 703 704 701
f 703 710 704
f 709 710 703
f 705 708 706
f 705 706 715
f 707 708 705
f 715 706 716
f 709 712 710
f 711 712 709
f 711 718 712
f 717 718 711
f 713 716 714
f 713 714 735
f 715 716 713
f 735 714 736
f 717 720 718
f 719 720 717
f 719 722 720
f 721 722 719
f 721 724 722
f 723 724 721
f 723 726 724
f 725 726 723
f 725 738 726
f 737 738 725
f 727 730 728
f 727 728 771
f 729 730 727
f 771 728 772
f 729 732 730
f 731 732 729
f 731 734 732
f 733 734 731
f 733 736 734
f 735 736 733
f 737 740 738
f 739 740 737
f 739 742 740
f 741 742 739
f 741 744 742
f 743 744 741
f 743 746 744
f 745 746 743
f 745 748 746
f 747 748 745
f 747 750 748
f 749 750 747
f 749 752 750
f 751 752 749
f 751 754 752
f 753 754 751
f 753 756 754
f 755 756 753
f 755 758 756
f 757 758 755
f 757 760 758
f 759 760 757
f 759 762 760
f 761 762 759
f 761 764 762
f 763 764 761
f 763 766 764
f 765 766 763
f 765 768 766
f 767 768 765
f 767 770 768
f 769 770 767
f 769 772 770
f 771 772 769
