# CAD visual only; metres; body-local coordinates
v -0.0976514492 -0.0969443462 0.0075
v -0.0976514492 -0.0969443462 0.00949999809
v -0.0945109806 -0.0993322895 0.0075
v -0.0945313129 -0.0992564342 0.00949999809
v -0.0945404873 -0.0992182491 0.0075
v -0.0945762501 -0.0990252445 0.00949999809
v -0.0945813808 -0.0989863155 0.0075
v -0.0945978031 -0.0987513683 0.00949999809
v -0.0945981464 -0.0987121151 0.0075
v -0.0945895824 -0.0985160015 0.00949999809
v -0.094585825 -0.0984769199 0.0075
v -0.0945568142 -0.09828279 0.00949999809
v -0.094548975 -0.0982442997 0.0075
v -0.0945109806 -0.0980919216 0.00949999809
v -0.0942562542 -0.0999044178 0.0075
v -0.0943347797 -0.0997684238 0.00949999809
v -0.0943529186 -0.0997335766 0.0075
v -0.0944487057 -0.0995184277 0.00949999809
v -0.0944624576 -0.099481654 0.0075
v -0.0944998226 -0.0993699406 0.00949999809
v -0.0944998226 -0.0980542705 0.0075
v -0.0944880161 -0.0980168102 0.00949999809
v -0.0944755611 -0.0979795788 0.0075
v -0.0943873463 -0.0977612064 0.00949999809
v -0.0943704281 -0.0977257679 0.0075
v -0.0942562542 -0.0975197933 0.00949999809
v -0.0940202198 -0.100217643 0.0075
v -0.0941912327 -0.100002646 0.00949999809
v -0.0942134724 -0.0999702976 0.0075
v -0.0942351589 -0.0999375484 0.00949999809
v -0.0942351589 -0.0974866627 0.0075
v -0.0940717373 -0.0972658298 0.00949999809
v -0.094046236 -0.0972359798 0.0075
v -0.0940202198 -0.0972065685 0.00949999809
v -0.0937641201 -0.100460677 0.0075
v -0.0939666614 -0.100275092 0.00949999809
v -0.0939936886 -0.100246596 0.0075
v -0.0939936886 -0.100246596 0.00949999809
v -0.0939936886 -0.097177615 0.0075
v -0.0938242779 -0.0970140026 0.00949999809
v -0.0937944088 -0.0969885014 0.0075
v -0.0937641201 -0.0969635342 0.00949999809
v -0.0935069904 -0.100640731 0.0075
v -0.0937022266 -0.100509028 0.00949999809
v -0.0937333927 -0.100485129 0.0075
v -0.0937333927 -0.100485129 0.00949999809
v -0.0937333927 -0.0969390819 0.0075
v -0.0935069904 -0.0967834804 0.00949999809
v -0.0932633076 -0.100767588 0.0075
v -0.0932990322 -0.1007513 0.00949999809
v -0.0933344898 -0.100734401 0.0075
v -0.0934731541 -0.100660662 0.00949999809
v -0.0934731541 -0.0967635487 0.0075
v -0.0934731541 -0.0967635487 0.00949999809
v -0.0934389744 -0.0967442081 0.0075
v -0.0932633076 -0.0966566227 0.00949999809
v -0.0930059872 -0.100863795 0.0075
v -0.0932272968 -0.100783248 0.00949999809
v -0.0932272968 -0.0966409634 0.0075
v -0.0930059872 -0.096560416 0.00949999809
v -0.0927774677 -0.100920768 0.0075
v -0.0929683361 -0.100874953 0.00949999809
v -0.0929683361 -0.0965492771 0.0075
v -0.0927774677 -0.0965034435 0.00949999809
v -0.0925050983 -0.100956626 0.0075
v -0.092738863 -0.10092792 0.00949999809
v -0.092738863 -0.096496291 0.0075
v -0.0925050983 -0.0964675854 0.00949999809
v -0.0922696171 -0.100960727 0.0075
v -0.0924659023 -0.100959029 0.00949999809
v -0.0924659023 -0.0964651821 0.0075
v -0.0922696171 -0.0964634846 0.00949999809
v -0.0923481426 -0.0916410397 -0.0225999999
v -0.0923481426 -0.0916410397 0.0075
v -0.0923481426 -0.0916410397 0.00949999809
v -0.0923481426 -0.0916410397 0.013499999
v -0.0920350132 -0.100940203 0.0075
v -0.0922303829 -0.100959029 0.00949999809
v -0.0922303829 -0.0964651821 0.0075
v -0.0920350132 -0.0964840076 0.00949999809
v -0.09176581 -0.100885443 0.0075
v -0.0919961605 -0.100934405 0.00949999809
v -0.0919188175 -0.0965034435 0.0075
v -0.09176581 -0.0965387676 0.00949999809
v -0.0919961605 -0.096489806 0.0075
v -0.0919574413 -0.096496291 0.00949999809
v -0.0915052853 -0.100798278 0.0075
v -0.0917279682 -0.100874953 0.00949999809
v -0.0917279682 -0.0965492771 0.0075
v -0.0915052853 -0.0966259334 0.00949999809
v -0.091397253 -0.1007513 0.0075
v -0.0914690075 -0.100783248 0.00949999809
v -0.0912573299 -0.100680003 0.0075
v -0.0913618145 -0.100734401 0.00949999809
v -0.0914690075 -0.0966409634 0.0075
v -0.0912573299 -0.0967442081 0.00949999809
v -0.0910256252 -0.100532393 0.0075
v -0.0912231502 -0.100660662 0.00949999809
v -0.0912231502 -0.0967635487 0.0075
v -0.0910256252 -0.0968918178 0.00949999809
v -0.0909940586 -0.100509028 0.0075
v -0.0909940586 -0.100509028 0.00949999809
v -0.0907571468 -0.100303092 0.0075
v -0.0907571468 -0.100303092 0.00949999809
v -0.0908720074 -0.0970140026 0.0075
v -0.0907571468 -0.0971211193 0.00949999809
v -0.0909940586 -0.0969151829 0.0075
v -0.0909018764 -0.0969885014 0.00949999809
v -0.0907296238 -0.100275092 0.0075
v -0.0907296238 -0.100275092 0.00949999809
v -0.0905050526 -0.100002646 0.0075
v -0.0907025967 -0.100246596 0.00949999809
v -0.0906245479 -0.0972658298 0.0075
v -0.0905050526 -0.0974215649 0.00949999809
v -0.0907296238 -0.0971491192 0.0075
v -0.0906500492 -0.0972359798 0.00949999809
v -0.0903615055 -0.0997684238 0.0075
v -0.0904828129 -0.0999702976 0.00949999809
v -0.09026198 -0.0995549725 0.0075
v -0.0903433857 -0.0997335766 0.00949999809
v -0.090308958 -0.0977612064 0.0075
v -0.09026198 -0.0978692387 0.00949999809
v -0.090440031 -0.0975197933 0.0075
v -0.0903258572 -0.0977257679 0.00949999809
v -0.0904828129 -0.0974539135 0.0075
v -0.0904611454 -0.0974866627 0.00949999809
v -0.0902475986 -0.0995184277 0.0075
v -0.0902475986 -0.0995184277 0.00949999809
v -0.0901649723 -0.0992564342 0.0075
v -0.0902338467 -0.099481654 0.00949999809
v -0.0901200352 -0.0990252445 0.0075
v -0.090155817 -0.0992182491 0.00949999809
v -0.0900984821 -0.0987513683 0.0075
v -0.0901149235 -0.0989863155 0.00949999809
v -0.0901067028 -0.0985160015 0.0075
v -0.0900981388 -0.0987121151 0.00949999809
v -0.0901394901 -0.09828279 0.0075
v -0.0901104793 -0.0984769199 0.00949999809
v -0.0902082691 -0.0980168102 0.0075
v -0.0901473102 -0.0982442997 0.00949999809
v -0.0902475986 -0.0979057835 0.0075
v -0.0902207241 -0.0979795788 0.00949999809
v -0.0875147495 -0.106018367 0.0075
v -0.0875051746 -0.10609632 0.00949999809
v -0.087527071 -0.105783171 0.0075
v -0.087518507 -0.105979266 0.00949999809
v -0.0875103054 -0.105508971 0.0075
v -0.0875267277 -0.105743899 0.00949999809
v -0.0875051746 -0.105470042 0.0075
v -0.0875051746 -0.105470042 0.00949999809
v -0.0872993717 -0.106769519 0.0075
v -0.0872637043 -0.10683948 0.00949999809
v -0.0874044857 -0.106515708 0.0075
v -0.0873162708 -0.106734061 0.00949999809
v -0.0874779186 -0.106250968 0.0075
v -0.0874169598 -0.106478457 0.00949999809
v -0.0874993763 -0.106135154 0.0075
v -0.0874857387 -0.106212497 0.00949999809
v -0.0874694118 -0.105277037 0.0075
v -0.0874993763 -0.105431189 0.00949999809
v -0.0873913822 -0.105013633 0.0075
v -0.0874602375 -0.105238852 0.00949999809
v -0.0872818432 -0.104761691 0.0075
v -0.0873776302 -0.10497684 0.00949999809
v -0.0872637043 -0.104726863 0.0075
v -0.0872637043 -0.104726863 0.00949999809
v -0.0871640835 -0.107008605 0.0075
v -0.0870006809 -0.107229438 0.00949999809
v -0.0872449741 -0.106874003 0.0075
v -0.0871851787 -0.106975493 0.00949999809
v -0.087142416 -0.104524989 0.0075
v -0.0872449741 -0.104692359 0.00949999809
v -0.0870006809 -0.104336905 0.0075
v -0.0871201763 -0.104492621 0.00949999809
v -0.0869751797 -0.107259307 0.0075
v -0.0867532024 -0.107481265 0.00949999809
v -0.0869491444 -0.104277625 0.0075
v -0.0869751797 -0.104307036 0.00949999809
v -0.0867532024 -0.104085078 0.0075
v -0.0869226322 -0.104248671 0.00949999809
v -0.0867233524 -0.107506766 0.0075
v -0.0865025196 -0.107670188 0.00949999809
v -0.0866623173 -0.104010157 0.0075
v -0.0867233524 -0.104059577 0.00949999809
v -0.0865025196 -0.103896174 0.0075
v -0.0866311703 -0.103986239 0.00949999809
v -0.0863678989 -0.107751059 0.0075
v -0.0862634144 -0.107805457 0.00949999809
v -0.086469389 -0.107691283 0.0075
v -0.0864020786 -0.107731738 0.00949999809
v -0.0862634144 -0.103760886 0.0075
v -0.086469389 -0.10387506 0.00949999809
v -0.0862279758 -0.107822375 0.0075
v -0.0860096035 -0.10791059 0.00949999809
v -0.0860096035 -0.103655753 0.0075
v -0.0862279758 -0.103743987 0.00949999809
v -0.085972372 -0.107923045 0.0075
v -0.0857832203 -0.107975516 0.00949999809
v -0.0857832203 -0.103590846 0.0075
v -0.085972372 -0.103643298 0.00949999809
v -0.0856290493 -0.108005481 0.0075
v -0.0855122623 -0.108020854 0.00949999809
v -0.0857448826 -0.107984004 0.0075
v -0.0856677875 -0.107998996 0.00949999809
v -0.0855122623 -0.103545508 0.0075
v -0.0857448826 -0.103582339 0.00949999809
v -0.0854731808 -0.108024611 0.0075
v -0.0852770862 -0.108033175 0.00949999809
v -0.0852770862 -0.103533168 0.0075
v -0.0854731808 -0.103541732 0.00949999809
v -0.0852378139 -0.108032832 0.0075
v -0.0850028667 -0.10801641 0.00949999809
v -0.0850028667 -0.103549952 0.0075
v -0.0852378139 -0.103533511 0.00949999809
v -0.0849639377 -0.108011279 0.0075
v -0.0849251041 -0.108005481 0.00949999809
v -0.0848863659 -0.107998996 0.0075
v -0.0847709331 -0.107975516 0.00949999809
v -0.0847709331 -0.103590846 0.0075
v -0.0849639377 -0.103555064 0.00949999809
v -0.084732748 -0.107966342 0.0075
v -0.0845075283 -0.107897486 0.00949999809
v -0.0845075283 -0.103668875 0.0075
v -0.084732748 -0.103600001 0.00949999809
v -0.0844707546 -0.107883735 0.0075
v -0.0842556057 -0.107787947 0.00949999809
v -0.0842556057 -0.103778415 0.0075
v -0.084290739 -0.103760886 0.00949999809
v -0.0843261776 -0.103743987 0.0075
v -0.0844707546 -0.103682627 0.00949999809
v -0.0842207584 -0.107769809 0.0075
v -0.0841862545 -0.107751059 0.00949999809
v -0.0841520748 -0.107731738 0.0075
v -0.0840188846 -0.107648501 0.00949999809
v -0.0840188846 -0.103917842 0.0075
v -0.0842207584 -0.103796534 0.00949999809
v -0.083986536 -0.107626262 0.0075
v -0.083830801 -0.107506766 0.00949999809
v -0.083800951 -0.107481265 0.0075
v -0.0837715397 -0.107455249 0.00949999809
v -0.0837715397 -0.104111094 0.0075
v -0.0838918362 -0.104010157 0.00949999809
v -0.0839230022 -0.103986239 0.0075
v -0.083986536 -0.103940081 0.00949999809
v -0.0835093174 -0.111086478 0.0075
v -0.0835093174 -0.111086478 0.00949999809
v -0.0836860905 -0.107374167 0.0075
v -0.0836860905 -0.107374167 0.00949999809
v -0.0835534725 -0.107229438 0.0075
v -0.0835040531 -0.107168422 0.00949999809
v -0.0835040531 -0.10439794 0.0075
v -0.0836050091 -0.104277625 0.00949999809
v -0.0836315403 -0.104248671 0.0075
v -0.0837425861 -0.104137625 0.00949999809
v -0.083480154 -0.107137255 0.0075
v -0.08339007 -0.107008605 0.00949999809
v -0.0833689747 -0.106975493 0.0075
v -0.0832547817 -0.106769519 0.00949999809
v -0.0832547817 -0.104796843 0.0075
v -0.0832723102 -0.104761691 0.00949999809
v -0.0832904491 -0.104726863 0.0075
v -0.0834117374 -0.104524989 0.00949999809
v -0.0834339771 -0.104492621 0.0075
v -0.083480154 -0.104429087 0.00949999809
v -0.0832378826 -0.106734061 0.0075
v -0.0831496677 -0.106515708 0.00949999809
v -0.0831371937 -0.106478457 0.0075
v -0.0830762539 -0.106250968 0.00949999809
v -0.0830684147 -0.106212497 0.0075
v -0.0830394039 -0.106018367 0.00949999809
v -0.0830356464 -0.105979266 0.0075
v -0.0830270824 -0.105783171 0.00949999809
v -0.0830274258 -0.105743899 0.0075
v -0.083043848 -0.105508971 0.00949999809
v -0.0830489788 -0.105470042 0.0075
v -0.0830847416 -0.105277037 0.00949999809
v -0.0830939159 -0.105238852 0.0075
v -0.0831627712 -0.105013633 0.00949999809
v -0.0831765232 -0.10497684 0.0075
v -0.0832378826 -0.104832282 0.00949999809
v -0.0782060108 -0.105783171 -0.0225999999
v -0.0782060108 -0.105783171 0.0075
v -0.0782060108 -0.105783171 0.00949999809
v -0.0782060108 -0.105783171 0.013499999
v -0.0697607384 -0.0790820167 0.013499999
v -0.0697607384 -0.0790820167 0.0194999981
v -0.0697887192 -0.0789811085 0.013499999
v -0.0698393879 -0.0787778995 0.0194999981
v -0.0698620472 -0.0786756657 0.013499999
v -0.0698829231 -0.0785730503 0.0194999981
v -0.0699020061 -0.0784700821 0.013499999
v -0.0699347744 -0.0782632301 0.0194999981
v -0.0699484405 -0.0781594131 0.013499999
v -0.0699602947 -0.0780553673 0.0194999981
v -0.0699703274 -0.0779511307 0.013499999
v -0.069978548 -0.0778467319 0.0194999981
v -0.0699849377 -0.0777422092 0.013499999
v -0.0699922523 -0.0775329063 0.0194999981
v -0.0699931679 -0.0774281929 0.013499999
v -0.0699922523 -0.0773234795 0.0194999981
v -0.0699895058 -0.0772187946 0.013499999
v -0.069978548 -0.0770096538 0.0194999981
v -0.0699703274 -0.0769052551 0.013499999
v -0.0699602947 -0.0768010185 0.0194999981
v -0.0699484405 -0.0766969726 0.013499999
v -0.0699347744 -0.0765931557 0.0194999981
v -0.0699192963 -0.0764895866 0.013499999
v -0.0698829231 -0.0762833355 0.0194999981
v -0.0698620472 -0.0761807201 0.013499999
v -0.0698393879 -0.0760784862 0.0194999981
v -0.0698149357 -0.0759766624 0.013499999
v -0.0697607384 -0.075774369 0.0194999981
v -0.0695161972 -0.0797725819 0.013499999
v -0.0695161972 -0.0797725819 0.0194999981
v -0.0695562706 -0.0796758316 0.013499999
v -0.0695946464 -0.0795784042 0.0194999981
v -0.0696313152 -0.0794803093 0.013499999
v -0.0696995029 -0.0792822979 0.0194999981
v -0.0697309933 -0.0791824196 0.013499999
v -0.0697309933 -0.0791824196 0.0194999981
v -0.0697309933 -0.0756739662 0.013499999
v -0.0696995029 -0.0755740879 0.0194999981
v -0.0696662769 -0.0754747818 0.013499999
v -0.0695946464 -0.0752779816 0.0194999981
v -0.0695562706 -0.0751805542 0.013499999
v -0.0695161972 -0.0750838039 0.0194999981
v -0.0692908535 -0.0802450226 0.013499999
v -0.0693859253 -0.0800584171 0.0194999981
v -0.069431015 -0.0799638985 0.013499999
v -0.0694744358 -0.0798686169 0.0194999981
v -0.0694744358 -0.0749877689 0.013499999
v -0.0693859253 -0.0747979687 0.0194999981
v -0.0693392048 -0.0747042511 0.013499999
v -0.0692908535 -0.0746113632 0.0194999981
v -0.0690251884 -0.0806960247 0.013499999
v -0.0691361675 -0.0805184219 0.0194999981
v -0.0691893158 -0.0804281948 0.013499999
v -0.069240881 -0.0803370521 0.0194999981
v -0.069240881 -0.0745193336 0.013499999
v -0.069240881 -0.0745193336 0.0194999981
v -0.0691893158 -0.074428191 0.013499999
v -0.0691361675 -0.0743379639 0.0194999981
v -0.0690814552 -0.0742486809 0.013499999
v -0.0690251884 -0.0741603611 0.0194999981
v -0.0687849769 -0.0810390804 0.013499999
v -0.0687849769 -0.0810390804 0.0194999981
v -0.0688472614 -0.0809548996 0.013499999
v -0.0689673862 -0.0807833527 0.0194999981
v -0.0689673862 -0.0740730331 0.013499999
v -0.0689673862 -0.0740730331 0.0194999981
v -0.0689080772 -0.0739867351 0.013499999
v -0.0687849769 -0.0738173054 0.0194999981
v -0.0685214195 -0.0813645504 0.013499999
v -0.068589426 -0.0812849186 0.0194999981
v -0.0686560402 -0.0812041138 0.013499999
v -0.0687212238 -0.0811221645 0.0194999981
v -0.0687212238 -0.0737342213 0.013499999
v -0.068589426 -0.0735714672 0.0194999981
v -0.0685214195 -0.0734918354 0.013499999
v -0.0685214195 -0.0734918354 0.0194999981
v -0.0683091984 -0.0815961407 0.013499999
v -0.0683812866 -0.0815201805 0.0194999981
v -0.0684520302 -0.0814429806 0.013499999
v -0.0684520302 -0.0814429806 0.0194999981
v -0.0684520302 -0.0734134052 0.013499999
v -0.0683091984 -0.0732602451 0.0194999981
v -0.0680079517 -0.081887059 0.013499999
v -0.0680851517 -0.0818163155 0.0194999981
v -0.0681611118 -0.0817442272 0.013499999
v -0.0682358036 -0.0816708324 0.0194999981
v -0.0682358036 -0.0731855534 0.013499999
v -0.0682358036 -0.0731855534 0.0194999981
v -0.0680079517 -0.0729693268 0.013499999
v -0.0680079517 -0.0729693268 0.0194999981
v -0.0677690849 -0.082091069 0.013499999
v -0.0678498897 -0.0820244549 0.0194999981
v -0.0679295216 -0.0819564484 0.013499999
v -0.0679295216 -0.0819564484 0.0194999981
v -0.0679295216 -0.0728999374 0.013499999
v -0.0677690849 -0.0727653168 0.0194999981
v -0.0675198707 -0.0822822903 0.013499999
v -0.0675198707 -0.0822822903 0.0194999981
v -0.0676040516 -0.0822200058 0.013499999
v -0.0676871357 -0.0821562527 0.0194999981
v -0.0676871357 -0.0727001236 0.013499999
v -0.0675198707 -0.072574086 0.0194999981
v -0.0672609959 -0.0824602173 0.013499999
v -0.0674346218 -0.0823431061 0.0194999981
v -0.0674346218 -0.0725132797 0.013499999
v -0.0674346218 -0.0725132797 0.0194999981
v -0.0673483238 -0.0724539707 0.013499999
v -0.0672609959 -0.0723961685 0.0194999981
v -0.0670833931 -0.0825711964 0.013499999
v -0.0671726761 -0.0825164841 0.0194999981
v -0.0671726761 -0.0723399017 0.013499999
v -0.0670833931 -0.0722851894 0.0194999981
v -0.0668099937 -0.0827258823 0.013499999
v -0.066993166 -0.0826243446 0.0194999981
v -0.066993166 -0.0722320412 0.013499999
v -0.0668099937 -0.0721305035 0.0194999981
v -0.0665288696 -0.0828660438 0.013499999
v -0.0667171059 -0.0827742336 0.0194999981
v -0.0667171059 -0.0720821522 0.013499999
v -0.0666233883 -0.0720354317 0.0194999981
v -0.0665288696 -0.0719903419 0.013499999
v -0.0665288696 -0.0719903419 0.0194999981
v -0.066337553 -0.082951226 0.013499999
v -0.066433588 -0.0829094646 0.0194999981
v -0.066433588 -0.0719469212 0.013499999
v -0.066337553 -0.0719051598 0.0194999981
v -0.0660452804 -0.0830663441 0.013499999
v -0.0661433754 -0.0830296753 0.0194999981
v -0.0662408028 -0.0829912994 0.013499999
v -0.0662408028 -0.0829912994 0.0194999981
v -0.0662408028 -0.0718650864 0.013499999
v -0.0660452804 -0.0717900322 0.0194999981
v -0.065847269 -0.0831345318 0.013499999
v -0.0659465752 -0.0831013058 0.0194999981
v -0.0659465752 -0.07175508 0.013499999
v -0.0659465752 -0.07175508 0.0194999981
v -0.065847269 -0.071721854 0.013499999
v -0.065847269 -0.071721854 0.0194999981
v -0.0655460796 -0.083223748 0.013499999
v -0.0657473907 -0.0831660221 0.0194999981
v -0.0657473907 -0.0716903637 0.013499999
v -0.0655460796 -0.0716326378 0.0194999981
v -0.0653428707 -0.0832744167 0.013499999
v -0.0653428707 -0.0832744167 0.0194999981
v -0.0654446945 -0.0832499645 0.013499999
v -0.0654446945 -0.0832499645 0.0194999981
v -0.0654446945 -0.0716064213 0.013499999
v -0.0653428707 -0.0715819691 0.0194999981
v -0.0650350532 -0.083337035 0.013499999
v -0.0652406368 -0.083297076 0.0194999981
v -0.0652406368 -0.0715593098 0.013499999
v -0.0650350532 -0.0715193413 0.0194999981
v -0.0648282013 -0.0833698032 0.013499999
v -0.0649317703 -0.0833543251 0.0194999981
v -0.0649317703 -0.0715020607 0.013499999
v -0.0649317703 -0.0715020607 0.0194999981
v -0.0648282013 -0.0714865826 0.013499999
v -0.0648282013 -0.0714865826 0.0194999981
v -0.0645161018 -0.0834053562 0.013499999
v -0.0647243843 -0.0833834694 0.0194999981
v -0.0647243843 -0.0714729164 0.013499999
v -0.0645161018 -0.07145102 0.0194999981
v -0.0643071804 -0.0834199665 0.013499999
v -0.0644117031 -0.0834135769 0.0194999981
v -0.0644117031 -0.0714428089 0.013499999
v -0.0643071804 -0.0714364193 0.0194999981
v -0.0640978775 -0.0834272812 0.013499999
v -0.0642025623 -0.0834245346 0.0194999981
v -0.0642025623 -0.0714318512 0.013499999
v -0.0640978775 -0.0714291046 0.0194999981
v -0.0637837658 -0.0834245346 0.013499999
v -0.0639931641 -0.0834281967 0.0194999981
v -0.0639931641 -0.0714281891 0.013499999
v -0.0637837658 -0.0714318512 0.0194999981
v -0.063574625 -0.0834135769 0.013499999
v -0.0636791477 -0.0834199665 0.0194999981
v -0.0636791477 -0.0714364193 0.013499999
v -0.063574625 -0.0714428089 0.0194999981
v -0.0637103233 -0.0630032108 -0.0225999999
v -0.0637103233 -0.0630032108 0.0075
v -0.0637103233 -0.0630032108 0.00949999809
v -0.0637103233 -0.0630032108 0.013499999
v -0.0632619438 -0.0833834694 0.013499999
v -0.0634702263 -0.0834053562 0.0194999981
v -0.0634702263 -0.07145102 0.013499999
v -0.0632619438 -0.0714729164 0.0194999981
v -0.0630545578 -0.0833543251 0.013499999
v -0.0631581268 -0.0833698032 0.0194999981
v -0.0630545578 -0.0715020607 0.013499999
v -0.0630545578 -0.0715020607 0.0194999981
v -0.0631581268 -0.0714865826 0.013499999
v -0.0631581268 -0.0714865826 0.0194999981
v -0.0628483066 -0.083317952 0.013499999
v -0.0629512749 -0.083337035 0.0194999981
v -0.0629512749 -0.0715193413 0.013499999
v -0.0628483066 -0.0715384338 0.0194999981
v -0.0626434574 -0.0832744167 0.013499999
v -0.0627456913 -0.083297076 0.0194999981
v -0.0625416336 -0.0832499645 0.013499999
v -0.0625416336 -0.0832499645 0.0194999981
v -0.0627456913 -0.0715593098 0.013499999
v -0.0625416336 -0.0716064213 0.0194999981
v -0.0623393402 -0.0831957672 0.013499999
v -0.0624402485 -0.083223748 0.0194999981
v -0.0624402485 -0.0716326378 0.013499999
v -0.0623393402 -0.0716606186 0.0194999981
v -0.0620397529 -0.0831013058 0.013499999
v -0.0622389374 -0.0831660221 0.0194999981
v -0.0620397529 -0.07175508 0.013499999
v -0.0620397529 -0.07175508 0.0194999981
v -0.0622389374 -0.0716903637 0.013499999
v -0.0621390591 -0.071721854 0.0194999981
v -0.0618429527 -0.0830296753 0.013499999
v -0.0619410381 -0.0830663441 0.0194999981
v -0.0619410381 -0.0717900322 0.013499999
v -0.0618429527 -0.0718267105 0.0194999981
v -0.0615527401 -0.0829094646 0.013499999
v -0.0617455253 -0.0829912994 0.0194999981
v -0.0617455253 -0.0718650864 0.013499999
v -0.0615527401 -0.0719469212 0.0194999981
v -0.0612692222 -0.0827742336 0.013499999
v -0.0614574585 -0.0828660438 0.0194999981
v -0.0613629398 -0.0720354317 0.013499999
v -0.0612692222 -0.0720821522 0.0194999981
v -0.0614574585 -0.0719903419 0.013499999
v -0.0614574585 -0.0719903419 0.0194999981
v -0.0610843048 -0.0826759098 0.013499999
v -0.0611763344 -0.0827258823 0.0194999981
v -0.0611763344 -0.0721305035 0.013499999
v -0.0610843048 -0.072180476 0.0194999981
v -0.060813652 -0.0825164841 0.013499999
v -0.0609931621 -0.0826243446 0.0194999981
v -0.060902935 -0.0722851894 0.013499999
v -0.060813652 -0.0723399017 0.0194999981
v -0.0609931621 -0.0722320412 0.013499999
v -0.0609931621 -0.0722320412 0.0194999981
v -0.0605517063 -0.0823431061 0.013499999
v -0.0607253322 -0.0824602173 0.0194999981
v -0.0605517063 -0.0725132797 0.013499999
v -0.0605517063 -0.0725132797 0.0194999981
v -0.0607253322 -0.0723961685 0.013499999
v -0.0606380043 -0.0724539707 0.0194999981
v -0.0604664478 -0.0822822903 0.013499999
v -0.0604664478 -0.0822822903 0.0194999981
v -0.0602991924 -0.0821562527 0.013499999
v -0.0603822765 -0.0822200058 0.0194999981
v -0.0604664478 -0.072574086 0.013499999
v -0.0602991924 -0.0727001236 0.0194999981
v -0.0601364384 -0.0820244549 0.013499999
v -0.0602172432 -0.082091069 0.0194999981
v -0.0600568066 -0.0819564484 0.013499999
v -0.0600568066 -0.0819564484 0.0194999981
v -0.0602172432 -0.0727653168 0.013499999
v -0.0600568066 -0.0728999374 0.0194999981
v -0.0599011764 -0.0818163155 0.013499999
v -0.0599783764 -0.081887059 0.0194999981
v -0.0597505245 -0.0816708324 0.013499999
v -0.0598252163 -0.0817442272 0.0194999981
v -0.0599011764 -0.0730400703 0.013499999
v -0.0597505245 -0.0731855534 0.0194999981
v -0.0599783764 -0.0729693268 0.013499999
v -0.0599783764 -0.0729693268 0.0194999981
v -0.0596050415 -0.0815201805 0.013499999
v -0.0596771202 -0.0815961407 0.0194999981
v -0.0595342979 -0.0814429806 0.013499999
v -0.0595342979 -0.0814429806 0.0194999981
v -0.0596771202 -0.0732602451 0.013499999
v -0.0595342979 -0.0734134052 0.0194999981
v -0.0593968925 -0.0812849186 0.013499999
v -0.0594649086 -0.0813645504 0.0194999981
v -0.0592650947 -0.0811221645 0.013499999
v -0.0593302879 -0.0812041138 0.0194999981
v -0.0593968925 -0.0735714672 0.013499999
v -0.0592650947 -0.0737342213 0.0194999981
v -0.0594649086 -0.0734918354 0.013499999
v -0.0594649086 -0.0734918354 0.0194999981
v -0.0592013512 -0.0810390804 0.013499999
v -0.0592013512 -0.0810390804 0.0194999981
v -0.0590189419 -0.0807833527 0.013499999
v -0.0591390571 -0.0809548996 0.0194999981
v -0.0590189419 -0.0740730331 0.013499999
v -0.0590189419 -0.0740730331 0.0194999981
v -0.0592013512 -0.0738173054 0.013499999
v -0.0590782509 -0.0739867351 0.0194999981
v -0.0588501606 -0.0805184219 0.013499999
v -0.0589611397 -0.0806960247 0.0194999981
v -0.0587970123 -0.0804281948 0.013499999
v -0.0587970123 -0.0804281948 0.0194999981
v -0.0588501606 -0.0743379639 0.013499999
v -0.0587970123 -0.074428191 0.0194999981
v -0.0589611397 -0.0741603611 0.013499999
v -0.0589048729 -0.0742486809 0.0194999981
v -0.0587535629 -0.0637727592 0.0075
v -0.0587535629 -0.0637727592 0.00949999809
v -0.058831583 -0.0635093544 0.0075
v -0.0587666664 -0.0637357471 0.00949999809
v -0.0588724861 -0.0632774208 0.0075
v -0.0588400898 -0.0634710167 0.00949999809
v -0.0588892517 -0.0630032108 0.0075
v -0.0588769302 -0.063238406 0.00949999809
v -0.0588769302 -0.0627680252 0.0075
v -0.0588889084 -0.0629639481 0.00949999809
v -0.0588400898 -0.0625354145 0.0075
v -0.0588724861 -0.0627290104 0.00949999809
v -0.0587666664 -0.062270684 0.0075
v -0.058831583 -0.0624970768 0.00949999809
v -0.0587535629 -0.0622336719 0.0075
v -0.0587535629 -0.0622336719 0.00949999809
v -0.0587454471 -0.0803370521 0.013499999
v -0.0587454471 -0.0803370521 0.0194999981
v -0.0586004028 -0.0800584171 0.013499999
v -0.0586954746 -0.0802450226 0.0194999981
v -0.0585118923 -0.0798686169 0.013499999
v -0.0585553131 -0.0799638985 0.0194999981
v -0.0586004028 -0.0747979687 0.013499999
v -0.0585118923 -0.0749877689 0.0194999981
v -0.0587454471 -0.0745193336 0.013499999
v -0.0586471233 -0.0747042511 0.0194999981
v -0.0585045872 -0.0642614029 0.0075
v -0.0585045872 -0.0642614029 0.00949999809
v -0.0586440143 -0.0640246914 0.0075
v -0.0585262642 -0.0642286537 0.00949999809
v -0.0587398109 -0.0638095425 0.0075
v -0.0586615429 -0.0639895485 0.00949999809
v -0.0586615429 -0.0620168827 0.0075
v -0.0587398109 -0.0621968887 0.00949999809
v -0.0585262642 -0.0617777775 0.0075
v -0.0586440143 -0.0619817398 0.00949999809
v -0.0585045872 -0.0617450283 0.0075
v -0.0585045872 -0.0617450283 0.00949999809
v -0.0584701309 -0.0797725819 0.013499999
v -0.0584701309 -0.0797725819 0.0194999981
v -0.0583916817 -0.0795784042 0.013499999
v -0.0584300575 -0.0796758316 0.0194999981
v -0.0582868252 -0.0792822979 0.013499999
v -0.0583550033 -0.0794803093 0.0194999981
v -0.0582553348 -0.0791824196 0.013499999
v -0.0582553348 -0.0791824196 0.0194999981
v -0.0582868252 -0.0755740879 0.013499999
v -0.0582553348 -0.0756739662 0.0194999981
v -0.0583916817 -0.0752779816 0.013499999
v -0.0583200512 -0.0754747818 0.0194999981
v -0.0584701309 -0.0750838039 0.013499999
v -0.0584300575 -0.0751805542 0.0194999981
v -0.0583113251 -0.0645087574 0.0075
v -0.0582577667 -0.0645661972 0.00949999809
v -0.0584823475 -0.0642937611 0.0075
v -0.0583373508 -0.0644793461 0.00949999809
v -0.0583373508 -0.0615270851 0.0075
v -0.0584823475 -0.0617126701 0.00949999809
v -0.0582577667 -0.061440234 0.0075
v -0.0583113251 -0.0614976738 0.00949999809
v -0.0584070167 -0.0576999138 0.0075
v -0.0584070167 -0.0576999138 0.00949999809
v -0.0582255897 -0.0790820167 0.013499999
v -0.0582255897 -0.0790820167 0.0194999981
v -0.0581469402 -0.0787778995 0.013499999
v -0.0581976089 -0.0789811085 0.0194999981
v -0.058103405 -0.0785730503 0.013499999
v -0.0581242809 -0.0786756657 0.0194999981
v -0.0580515537 -0.0782632301 0.013499999
v -0.0580843124 -0.0784700821 0.0194999981
v -0.0580260334 -0.0780553673 0.013499999
v -0.0580378876 -0.0781594131 0.0194999981
v -0.0580077801 -0.0778467319 0.013499999
v -0.0580159912 -0.0779511307 0.0194999981
v -0.0580013904 -0.0777422092 0.013499999
v -0.0580013904 -0.0777422092 0.0194999981
v -0.0580077801 -0.0770096538 0.013499999
v -0.0580013904 -0.0771141766 0.0194999981
v -0.0580260334 -0.0768010185 0.013499999
v -0.0580159912 -0.0769052551 0.0194999981
v -0.0580515537 -0.0765931557 0.013499999
v -0.0580378876 -0.0766969726 0.0194999981
v -0.058103405 -0.0762833355 0.013499999
v -0.0580670318 -0.0764895866 0.0194999981
v -0.0581469402 -0.0760784862 0.013499999
v -0.0581242809 -0.0761807201 0.0194999981
v -0.0582255897 -0.075774369 0.013499999
v -0.0581713924 -0.0759766624 0.0194999981
v -0.0580552254 -0.0647517918 0.0075
v -0.0580244884 -0.0647762344 0.00949999809
v -0.0582302437 -0.0645942066 0.0075
v -0.0580855236 -0.064726815 0.00949999809
v -0.0580552254 -0.0612546394 0.0075
v -0.0582302437 -0.0614122246 0.00949999809
v -0.0580244884 -0.0612301872 0.0075
v -0.0580244884 -0.0612301872 0.00949999809
v -0.0579940758 -0.0775329063 0.013499999
v -0.0579968223 -0.0776375912 0.0194999981
v -0.0579940758 -0.0773234795 0.013499999
v -0.0579931602 -0.0774281929 0.0194999981
v -0.0579968223 -0.0772187946 0.013499999
v -0.0579968223 -0.0772187946 0.0194999981
v -0.0579933414 -0.064800143 0.0075
v -0.0577642498 -0.0649517677 0.00949999809
v -0.0577642498 -0.0610546539 0.0075
v -0.0579933414 -0.0612062881 0.00949999809
v -0.0576607284 -0.0650079773 0.0075
v -0.0575184021 -0.065074353 0.00949999809
v -0.0577300701 -0.0649711082 0.0075
v -0.0576955662 -0.0649898479 0.00949999809
v -0.0576955662 -0.0610165832 0.0075
v -0.0577300701 -0.0610353229 0.00949999809
v -0.0575184021 -0.0609320782 0.0075
v -0.0576607284 -0.0609984539 0.00949999809
v -0.0574821148 -0.0650893734 0.0075
v -0.0572594414 -0.0651660488 0.00949999809
v -0.0572594414 -0.0608403728 0.0075
v -0.0574821148 -0.0609170483 0.00949999809
v -0.0572215996 -0.0651765488 0.0075
v -0.0570299587 -0.065219035 0.00949999809
v -0.0570299587 -0.0607873962 0.0075
v -0.0572215996 -0.0608298824 0.00949999809
v -0.0567570076 -0.0652501343 0.0075
v -0.0567570076 -0.0652501343 0.00949999809
v -0.05699123 -0.0652255104 0.0075
v -0.0567962036 -0.065247731 0.00949999809
v -0.0567570076 -0.0607562969 0.0075
v -0.05699123 -0.0607809112 0.00949999809
v -0.0567177734 -0.0652518413 0.0075
v -0.0565214977 -0.0652501343 0.00949999809
v -0.0565214977 -0.0607562969 0.0075
v -0.0567177734 -0.0607545803 0.00949999809
v -0.0564823017 -0.065247731 0.0075
v -0.0562872753 -0.0652255104 0.00949999809
v -0.0562872753 -0.0607809112 0.0075
v -0.0564823017 -0.0607586906 0.00949999809
v -0.0562485466 -0.065219035 0.0075
v -0.0560190735 -0.0651660488 0.00949999809
v -0.0560190735 -0.0608403728 0.0075
v -0.0562485466 -0.0607873962 0.00949999809
v -0.0559814129 -0.0651549004 0.0075
v -0.0557601128 -0.065074353 0.00949999809
v -0.0557601128 -0.0609320782 0.0075
v -0.0559814129 -0.0608515308 0.00949999809
v -0.0557240925 -0.0650586937 0.0075
v -0.0556177769 -0.0650079773 0.00949999809
v -0.0555829391 -0.0649898479 0.0075
v -0.0555142555 -0.0649517677 0.00949999809
v -0.0555142555 -0.0610546539 0.0075
v -0.0555829391 -0.0610165832 0.00949999809
v -0.0556177769 -0.0609984539 0.0075
v -0.0557240925 -0.0609477375 0.00949999809
v -0.0554804191 -0.0649318359 0.0075
v -0.0552540169 -0.0647762344 0.00949999809
v -0.0552540169 -0.0612301872 0.0075
v -0.0554804191 -0.0610745857 0.00949999809
v -0.0552232799 -0.0647517918 0.0075
v -0.0552232799 -0.0647517918 0.00949999809
v -0.0550482616 -0.0645942066 0.0075
v -0.0550482616 -0.0645942066 0.00949999809
v -0.0550207386 -0.061440234 0.0075
v -0.0552232799 -0.0612546394 0.00949999809
v -0.0549937115 -0.0645377109 0.0075
v -0.0549671802 -0.0645087574 0.00949999809
v -0.0549411545 -0.0644793461 0.0075
v -0.0547739181 -0.0642614029 0.00949999809
v -0.0547522411 -0.0642286537 0.0075
v -0.0547522411 -0.0642286537 0.00949999809
v -0.0547522411 -0.0617777775 0.0075
v -0.0547522411 -0.0617777775 0.00949999809
v -0.0547739181 -0.0617450283 0.0075
v -0.0549411545 -0.0615270851 0.00949999809
v -0.0549671802 -0.0614976738 0.0075
v -0.0549937115 -0.0614687202 0.00949999809
v -0.0547311458 -0.0641955326 0.0075
v -0.054634491 -0.0640246914 0.00949999809
v -0.0546169624 -0.0639895485 0.0075
v -0.0545249424 -0.0637727592 0.00949999809
v -0.0545118389 -0.0637357471 0.0075
v -0.0545118389 -0.0637357471 0.00949999809
v -0.0545118389 -0.062270684 0.0075
v -0.0545118389 -0.062270684 0.00949999809
v -0.0545249424 -0.0622336719 0.0075
v -0.0546169624 -0.0620168827 0.00949999809
v -0.054634491 -0.0619817398 0.0075
v -0.0547311458 -0.0618108986 0.00949999809
v -0.0544993744 -0.0636985062 0.0075
v -0.0544469223 -0.0635093544 0.00949999809
v -0.0544384251 -0.0634710167 0.0075
v -0.0544060287 -0.0632774208 0.00949999809
v -0.0544015751 -0.063238406 0.0075
v -0.0543892536 -0.0630032108 0.00949999809
v -0.0543895969 -0.0629639481 0.0075
v -0.0544015751 -0.0627680252 0.00949999809
v -0.0544060287 -0.0627290104 0.0075
v -0.0544384251 -0.0625354145 0.00949999809
v -0.0544469223 -0.0624970768 0.0075
v -0.0544993744 -0.062307925 0.00949999809
v -0.051776844 -0.0705036018 0.0075
v -0.0517513523 -0.0706186054 0.00949999809
v -0.0518096218 -0.0702703808 0.0075
v -0.0517840061 -0.0704649876 0.00949999809
v -0.0518178425 -0.070035014 0.0075
v -0.0518127022 -0.0702312324 0.00949999809
v -0.0517962894 -0.0697611473 0.0075
v -0.0518168125 -0.0699957607 0.00949999809
v -0.0517513523 -0.0695299576 0.0075
v -0.0517904816 -0.0697223041 0.00949999809
v -0.0516073761 -0.0710251759 0.0075
v -0.0515167389 -0.0711992786 0.00949999809
v -0.051708065 -0.0707695721 0.0075
v -0.0516236648 -0.0709894417 0.00949999809
v -0.0517415199 -0.0706566284 0.0075
v -0.0517198715 -0.0707321213 0.00949999809
v -0.051668745 -0.0692679546 0.0075
v -0.0517415199 -0.0694919346 0.00949999809
v -0.0515548191 -0.069017968 0.0075
v -0.0516543445 -0.0692314194 0.00949999809
v -0.0515167389 -0.0689492844 0.0075
v -0.0515360794 -0.068983464 0.00949999809
v -0.0512917862 -0.0715205524 0.0075
v -0.0512662849 -0.071550412 0.00949999809
v -0.0514762936 -0.0712665985 0.0075
v -0.0513167629 -0.0714902542 0.00949999809
v -0.0514968071 -0.071233115 0.0075
v -0.0514968071 -0.071233115 0.00949999809
v -0.0513884697 -0.0687517689 0.0075
v -0.0514968071 -0.068915448 0.00949999809
v -0.0512662849 -0.068598151 0.0075
v -0.0513651142 -0.0687202022 0.00949999809
v -0.0510443172 -0.0717723797 0.0075
v -0.0510144577 -0.0717978809 0.00949999809
v -0.0512402592 -0.0715798233 0.0075
v -0.0510737286 -0.0717463539 0.00949999809
v -0.0511867008 -0.0685112999 0.0075
v -0.0512402592 -0.0685687397 0.00949999809
v -0.0510144577 -0.0683506821 0.0075
v -0.0511591778 -0.0684832905 0.00949999809
v -0.0509841595 -0.0718228577 0.0075
v -0.0507605038 -0.0719823883 0.00949999809
v -0.0508906994 -0.068253989 0.0075
v -0.0509841595 -0.0683257053 0.00949999809
v -0.0507605038 -0.0681661747 0.0075
v -0.0508587322 -0.0682311867 0.00949999809
v -0.0507270203 -0.0720029114 0.0075
v -0.0505190811 -0.0721134708 0.00949999809
v -0.0505190811 -0.0680350922 0.0075
v -0.0507270203 -0.0681456516 0.00949999809
v -0.0504833469 -0.0721297596 0.0075
v -0.0502634773 -0.0722141598 0.00949999809
v -0.0504473266 -0.0680031441 0.0075
v -0.0504833469 -0.0680188034 0.00949999809
v -0.0502634773 -0.0679344032 0.0075
v -0.0504110489 -0.0679881142 0.00949999809
v -0.0501125107 -0.072257447 0.0075
v -0.0500359878 -0.0722751186 0.00949999809
v -0.050226017 -0.0722259663 0.0075
v -0.0501505241 -0.0722476147 0.00949999809
v -0.0500359878 -0.0678734539 0.0075
v -0.050226017 -0.0679225967 0.00949999809
v -0.0499975071 -0.0722829388 0.0075
v -0.049764286 -0.0723157165 0.00949999809
v -0.049764286 -0.0678328464 0.0075
v -0.0499975071 -0.0678656242 0.00949999809
v -0.049568182 -0.0771453522 -0.0225999999
v -0.049568182 -0.0771453522 0.0075
v -0.049568182 -0.0771453522 0.00949999809
v -0.049568182 -0.0771453522 0.013499999
v -0.0497251377 -0.0723187969 0.0075
v -0.0495289192 -0.0723239372 0.00949999809
v -0.0495289192 -0.0678246258 0.0075
v -0.0497251377 -0.0678297661 0.00949999809
v -0.049489666 -0.0723229073 0.0075
v -0.049255043 -0.0723023842 0.00949999809
v -0.049255043 -0.0678461788 0.0075
v -0.049489666 -0.0678256557 0.00949999809
v -0.0492162094 -0.0722965763 0.0075
v -0.0490238628 -0.072257447 0.00949999809
v -0.0490238628 -0.0678911159 0.0075
v -0.0492162094 -0.0678519867 0.00949999809
v -0.0489858398 -0.0722476147 0.0075
v -0.0487618599 -0.0721748398 0.00949999809
v -0.0487618599 -0.0679737232 0.0075
v -0.0489858398 -0.0679009483 0.00949999809
v -0.0487253246 -0.0721604488 0.0075
v -0.0485118732 -0.0720609138 0.00949999809
v -0.0485118732 -0.0680876491 0.0075
v -0.0486890373 -0.0680031441 0.00949999809
v -0.0487253246 -0.0679881142 0.0075
v -0.0487253246 -0.0679881142 0.00949999809
v -0.0484773598 -0.0720421741 0.0075
v -0.0484093532 -0.0720029114 0.00949999809
v -0.0483758697 -0.0719823883 0.0075
v -0.0482776413 -0.0719173763 0.00949999809
v -0.0482776413 -0.0682311867 0.0075
v -0.0484773598 -0.0681063888 0.00949999809
v -0.0482456646 -0.071894574 0.0075
v -0.0480920563 -0.0717723797 0.00949999809
v -0.0480626449 -0.0717463539 0.0075
v -0.0480052051 -0.0716927956 0.00949999809
v -0.0480052051 -0.0684557674 0.0075
v -0.0482456646 -0.068253989 0.00949999809
v -0.0479771957 -0.0716652725 0.0075
v -0.0479771957 -0.0716652725 0.00949999809
v -0.0478196106 -0.0714902542 0.0075
v -0.0477712593 -0.0714283703 0.00949999809
v -0.0477712593 -0.0687202022 0.0075
v -0.0479496727 -0.0685112999 0.00949999809
v -0.0479771957 -0.0684832905 0.0075
v -0.0479771957 -0.0684832905 0.00949999809
v -0.0477478943 -0.0713967941 0.0075
v -0.0476600799 -0.0712665985 0.00949999809
v -0.0476395569 -0.071233115 0.0075
v -0.0475289974 -0.0710251759 0.00949999809
v -0.0475127087 -0.0709894417 0.0075
v -0.0475127087 -0.0709894417 0.00949999809
v -0.0475127087 -0.0691591213 0.0075
v -0.0475815544 -0.069017968 0.00949999809
v -0.0476002941 -0.068983464 0.0075
v -0.0477478943 -0.0687517689 0.00949999809
v -0.0474970493 -0.0709534309 0.0075
v -0.0474283085 -0.0707695721 0.00949999809
v -0.047416502 -0.0707321213 0.0075
v -0.0473595199 -0.0705036018 0.00949999809
v -0.0473523674 -0.0704649876 0.0075
v -0.0473267517 -0.0702703808 0.00949999809
v -0.0473236618 -0.0702312324 0.0075
v -0.047318531 -0.070035014 0.00949999809
v -0.0473195515 -0.0699957607 0.0075
v -0.0473400841 -0.0697611473 0.00949999809
v -0.0473458824 -0.0697223041 0.0075
v -0.0473850212 -0.0695299576 0.00949999809
v -0.0473948536 -0.0694919346 0.0075
v -0.0474676285 -0.0692679546 0.00949999809
v -0.0474820194 -0.0692314194 0.0075
v -0.0474970493 -0.0691951416 0.00949999809
v -0.0442648849 -0.0718420456 0.0075
v -0.0442648849 -0.0718420456 0.00949999809
f 1 2 74
f 2 1 246
f 1 5 3
f 1 3 19
f 1 7 5
f 1 9 7
f 1 11 9
f 1 13 11
f 1 21 13
f 1 17 15
f 15 29 1
f 19 17 1
f 23 21 1
f 1 25 23
f 1 31 25
f 1 29 27
f 1 27 37
f 1 33 31
f 39 33 1
f 1 37 35
f 35 175 1
f 1 41 39
f 47 41 1
f 1 53 47
f 74 53 1
f 1 175 245
f 246 1 245
f 2 4 6
f 2 20 4
f 2 6 8
f 2 8 10
f 2 10 12
f 2 12 14
f 2 14 22
f 2 16 18
f 30 16 2
f 18 20 2
f 22 24 2
f 2 24 26
f 2 26 32
f 2 28 30
f 2 38 28
f 2 32 34
f 34 40 2
f 2 36 38
f 246 36 2
f 2 40 42
f 42 48 2
f 2 48 54
f 2 54 75
f 74 2 75
f 4 3 6
f 4 19 3
f 6 3 5
f 20 19 4
f 6 5 8
f 8 5 7
f 8 7 10
f 10 7 9
f 10 9 12
f 12 9 11
f 12 11 14
f 14 11 13
f 14 13 22
f 22 13 21
f 16 15 18
f 16 29 15
f 18 15 17
f 30 29 16
f 18 17 20
f 20 17 19
f 22 21 24
f 24 21 23
f 24 23 26
f 26 23 25
f 26 25 32
f 32 25 31
f 28 27 30
f 28 37 27
f 30 27 29
f 38 37 28
f 32 31 34
f 34 31 33
f 34 33 40
f 40 33 39
f 36 35 38
f 36 45 35
f 38 35 37
f 45 167 35
f 35 167 175
f 46 45 36
f 168 46 36
f 168 36 176
f 176 36 246
f 40 39 42
f 42 39 41
f 42 41 48
f 48 41 47
f 44 43 46
f 44 51 43
f 46 43 45
f 43 167 45
f 51 169 43
f 43 169 167
f 168 44 46
f 52 51 44
f 170 52 44
f 170 44 168
f 48 47 54
f 54 47 53
f 50 49 52
f 50 57 49
f 52 49 51
f 49 153 51
f 57 153 49
f 152 50 52
f 58 57 50
f 154 58 50
f 154 50 152
f 51 153 151
f 51 151 169
f 152 52 170
f 54 53 56
f 56 53 55
f 74 55 53
f 75 54 56
f 56 55 60
f 60 55 59
f 74 59 55
f 75 56 60
f 58 61 57
f 61 155 57
f 57 155 153
f 62 61 58
f 156 62 58
f 156 58 154
f 60 59 64
f 64 59 63
f 74 63 59
f 75 60 64
f 62 65 61
f 65 157 61
f 61 157 155
f 66 65 62
f 158 66 62
f 158 62 156
f 64 63 68
f 68 63 67
f 74 67 63
f 75 64 68
f 66 69 65
f 69 145 65
f 65 145 143
f 65 143 157
f 70 69 66
f 146 70 66
f 146 66 144
f 144 66 158
f 68 67 72
f 72 67 71
f 71 67 74
f 68 72 75
f 70 77 69
f 77 147 69
f 69 147 145
f 78 77 70
f 148 78 70
f 148 70 146
f 72 71 80
f 79 71 74
f 80 71 79
f 72 80 75
f 74 73 282
f 74 463 73
f 282 73 281
f 73 841 281
f 463 841 73
f 75 464 74
f 85 79 74
f 74 83 85
f 74 89 83
f 74 95 89
f 99 95 74
f 74 107 99
f 74 105 107
f 74 115 105
f 74 113 115
f 74 125 113
f 282 125 74
f 74 464 463
f 75 284 76
f 76 465 75
f 80 86 75
f 75 86 84
f 75 84 90
f 75 90 96
f 96 100 75
f 75 100 108
f 75 108 106
f 75 106 116
f 75 116 114
f 75 114 126
f 126 236 75
f 75 236 283
f 283 284 75
f 75 465 464
f 284 369 76
f 285 287 76
f 76 319 285
f 287 289 76
f 76 289 291
f 76 291 293
f 76 293 295
f 295 297 76
f 297 299 76
f 76 299 301
f 76 301 303
f 76 303 305
f 305 307 76
f 307 309 76
f 76 309 311
f 76 311 321
f 76 313 315
f 76 329 313
f 76 315 317
f 76 317 319
f 76 321 323
f 76 323 325
f 325 331 76
f 76 327 329
f 76 337 327
f 331 333 76
f 76 333 339
f 335 337 76
f 347 335 76
f 339 341 76
f 76 341 343
f 76 343 349
f 345 347 76
f 76 355 345
f 76 349 351
f 76 351 466
f 353 355 76
f 76 363 353
f 361 363 76
f 76 369 361
f 76 466 465
f 78 81 77
f 81 159 77
f 77 149 147
f 77 159 149
f 82 81 78
f 150 82 78
f 150 78 148
f 80 79 86
f 86 79 85
f 82 87 81
f 87 161 81
f 81 161 159
f 88 87 82
f 162 88 82
f 160 82 150
f 162 82 160
f 84 85 83
f 84 83 90
f 90 83 89
f 86 85 84
f 88 91 87
f 91 163 87
f 87 163 161
f 92 91 88
f 164 92 88
f 164 88 162
f 90 89 96
f 96 89 95
f 92 93 91
f 93 163 91
f 94 93 92
f 164 94 92
f 94 97 93
f 97 171 93
f 93 165 163
f 93 171 165
f 98 97 94
f 172 98 94
f 166 94 164
f 172 94 166
f 96 95 100
f 100 95 99
f 98 101 97
f 101 173 97
f 97 173 171
f 102 101 98
f 174 102 98
f 174 98 172
f 100 99 108
f 108 99 107
f 102 103 101
f 103 173 101
f 104 103 102
f 174 104 102
f 104 109 103
f 109 179 103
f 103 177 173
f 103 179 177
f 110 109 104
f 104 180 110
f 178 104 174
f 180 104 178
f 106 107 105
f 106 105 116
f 116 105 115
f 108 107 106
f 110 111 109
f 179 109 111
f 112 111 110
f 110 180 112
f 112 117 111
f 185 111 117
f 179 111 183
f 183 111 185
f 118 117 112
f 112 186 118
f 112 180 184
f 112 184 186
f 114 115 113
f 114 113 126
f 126 113 125
f 116 115 114
f 118 119 117
f 191 117 119
f 185 117 191
f 120 119 118
f 118 192 120
f 118 186 192
f 120 127 119
f 195 119 127
f 191 119 195
f 128 127 120
f 120 196 128
f 120 192 196
f 122 123 121
f 122 121 142
f 227 121 123
f 142 121 141
f 229 141 121
f 229 121 227
f 124 123 122
f 122 230 124
f 142 230 122
f 124 125 123
f 235 123 125
f 227 123 235
f 126 125 124
f 124 236 126
f 124 230 228
f 124 228 236
f 235 125 282
f 128 129 127
f 195 127 129
f 130 129 128
f 128 196 130
f 130 131 129
f 199 129 131
f 195 129 199
f 132 131 130
f 130 200 132
f 130 196 200
f 132 133 131
f 205 131 133
f 199 131 205
f 134 133 132
f 132 206 134
f 132 200 206
f 134 135 133
f 209 133 135
f 205 133 209
f 136 135 134
f 134 210 136
f 134 206 210
f 136 137 135
f 213 135 137
f 209 135 213
f 138 137 136
f 136 214 138
f 136 210 214
f 138 139 137
f 219 137 139
f 213 137 219
f 140 139 138
f 138 220 140
f 138 214 220
f 140 141 139
f 223 139 141
f 219 139 223
f 142 141 140
f 140 224 142
f 140 220 224
f 223 141 229
f 142 224 230
f 144 143 146
f 144 157 143
f 146 143 145
f 158 157 144
f 146 145 148
f 148 145 147
f 148 147 150
f 150 147 149
f 150 149 160
f 160 149 159
f 152 151 154
f 152 169 151
f 154 151 153
f 170 169 152
f 154 153 156
f 156 153 155
f 156 155 158
f 158 155 157
f 160 159 162
f 162 159 161
f 162 161 164
f 164 161 163
f 164 163 166
f 166 163 165
f 166 165 172
f 172 165 171
f 168 167 170
f 168 175 167
f 170 167 169
f 176 175 168
f 172 171 174
f 174 171 173
f 174 173 178
f 178 173 177
f 176 181 175
f 245 175 181
f 182 181 176
f 246 182 176
f 178 177 180
f 180 177 179
f 180 179 184
f 184 179 183
f 182 189 181
f 181 189 245
f 190 189 182
f 190 182 246
f 184 183 186
f 186 183 185
f 186 185 192
f 192 185 191
f 188 187 190
f 188 193 187
f 190 187 189
f 189 187 245
f 245 187 193
f 188 190 246
f 194 193 188
f 246 194 188
f 192 191 196
f 196 191 195
f 194 197 193
f 245 193 197
f 198 197 194
f 246 198 194
f 196 195 200
f 200 195 199
f 198 203 197
f 245 197 203
f 204 203 198
f 246 204 198
f 200 199 206
f 206 199 205
f 202 201 204
f 202 207 201
f 204 201 203
f 245 203 201
f 201 207 245
f 246 202 204
f 208 207 202
f 208 202 246
f 206 205 210
f 210 205 209
f 208 211 207
f 207 211 245
f 212 211 208
f 212 208 246
f 210 209 214
f 214 209 213
f 212 215 211
f 245 211 215
f 216 215 212
f 246 216 212
f 214 213 220
f 220 213 219
f 216 217 215
f 215 217 245
f 218 217 216
f 218 216 246
f 218 221 217
f 245 217 221
f 222 221 218
f 246 222 218
f 220 219 224
f 224 219 223
f 222 225 221
f 245 221 225
f 226 225 222
f 246 226 222
f 224 223 230
f 230 223 229
f 226 231 225
f 225 231 245
f 232 231 226
f 232 226 246
f 228 229 227
f 228 227 236
f 236 227 235
f 230 229 228
f 232 233 231
f 245 231 233
f 234 233 232
f 246 234 232
f 234 237 233
f 245 233 237
f 238 237 234
f 246 238 234
f 236 235 244
f 244 235 243
f 282 243 235
f 283 236 244
f 238 239 237
f 245 237 239
f 240 239 238
f 246 240 238
f 240 247 239
f 239 247 245
f 248 240 246
f 248 247 240
f 242 243 241
f 242 241 254
f 282 241 243
f 254 241 253
f 253 241 282
f 244 243 242
f 283 244 242
f 242 254 283
f 246 245 283
f 245 247 249
f 245 249 255
f 245 255 257
f 245 257 282
f 283 245 282
f 246 250 248
f 246 256 250
f 258 256 246
f 283 258 246
f 248 249 247
f 250 249 248
f 250 255 249
f 256 255 250
f 252 253 251
f 252 251 264
f 282 251 253
f 264 251 263
f 282 263 251
f 254 253 252
f 283 254 252
f 283 252 264
f 256 257 255
f 258 257 256
f 258 265 257
f 282 257 265
f 266 265 258
f 283 266 258
f 260 261 259
f 260 259 280
f 282 259 261
f 280 259 279
f 282 279 259
f 262 261 260
f 283 262 260
f 283 260 280
f 262 263 261
f 282 261 263
f 264 263 262
f 283 264 262
f 266 267 265
f 265 267 282
f 268 267 266
f 268 266 283
f 268 269 267
f 282 267 269
f 270 269 268
f 283 270 268
f 270 271 269
f 282 269 271
f 272 271 270
f 283 272 270
f 272 273 271
f 282 271 273
f 274 273 272
f 283 274 272
f 274 275 273
f 282 273 275
f 276 275 274
f 283 276 274
f 276 277 275
f 282 275 277
f 278 277 276
f 283 278 276
f 278 279 277
f 277 279 282
f 280 279 278
f 280 278 283
f 842 282 281
f 842 281 841
f 843 283 282
f 843 282 842
f 844 284 283
f 844 283 843
f 284 367 369
f 284 377 367
f 284 375 377
f 284 383 375
f 381 383 284
f 284 387 381
f 284 393 387
f 397 393 284
f 401 397 284
f 407 401 284
f 284 413 407
f 411 413 284
f 284 417 411
f 284 423 417
f 284 429 423
f 284 427 429
f 433 427 284
f 437 433 284
f 284 443 437
f 284 447 443
f 284 451 447
f 455 451 284
f 459 455 284
f 284 467 459
f 284 471 467
f 284 477 471
f 481 477 284
f 284 483 481
f 487 483 284
f 284 491 487
f 284 497 491
f 284 501 497
f 284 505 501
f 284 511 505
f 515 511 284
f 521 515 284
f 844 521 284
f 285 286 287
f 285 320 286
f 319 320 285
f 287 286 288
f 424 288 286
f 424 286 320
f 287 288 289
f 289 288 290
f 428 290 288
f 430 288 424
f 428 288 430
f 289 290 291
f 291 290 292
f 434 292 290
f 434 290 428
f 291 292 293
f 293 292 294
f 438 294 292
f 438 292 434
f 293 294 295
f 295 294 296
f 444 296 294
f 444 294 438
f 295 296 297
f 297 296 298
f 448 298 296
f 448 296 444
f 297 298 299
f 299 298 300
f 452 300 298
f 452 298 448
f 299 300 301
f 301 300 302
f 456 302 300
f 456 300 452
f 301 302 303
f 303 302 304
f 460 304 302
f 460 302 456
f 303 304 305
f 305 304 306
f 468 306 304
f 468 304 460
f 305 306 307
f 307 306 308
f 472 308 306
f 472 306 468
f 307 308 309
f 309 308 310
f 478 310 308
f 478 308 472
f 309 310 311
f 311 310 312
f 482 312 310
f 482 310 478
f 311 312 321
f 321 312 322
f 488 322 312
f 484 312 482
f 488 312 484
f 313 314 315
f 313 330 314
f 329 330 313
f 315 314 316
f 408 316 314
f 408 314 330
f 315 316 317
f 317 316 318
f 412 318 316
f 414 316 408
f 412 316 414
f 317 318 319
f 319 318 320
f 418 320 318
f 418 318 412
f 424 320 418
f 321 322 323
f 323 322 324
f 492 324 322
f 492 322 488
f 323 324 325
f 325 324 326
f 498 326 324
f 498 324 492
f 325 326 331
f 331 326 332
f 502 332 326
f 502 326 498
f 327 328 329
f 327 338 328
f 337 338 327
f 329 328 330
f 402 330 328
f 398 328 338
f 402 328 398
f 408 330 402
f 331 332 333
f 333 332 334
f 506 334 332
f 506 332 502
f 333 334 339
f 339 334 340
f 512 340 334
f 512 334 506
f 335 336 337
f 335 348 336
f 347 348 335
f 337 336 338
f 394 338 336
f 388 336 348
f 394 336 388
f 398 338 394
f 339 340 341
f 341 340 342
f 512 342 340
f 341 342 343
f 343 342 344
f 516 344 342
f 516 342 512
f 343 344 349
f 349 344 350
f 522 350 344
f 522 344 516
f 345 346 347
f 345 356 346
f 355 356 345
f 347 346 348
f 384 348 346
f 384 346 356
f 382 348 384
f 388 348 382
f 349 350 351
f 351 350 352
f 522 352 350
f 351 352 357
f 351 357 466
f 357 352 358
f 530 358 352
f 528 352 522
f 530 352 528
f 353 354 355
f 353 364 354
f 363 364 353
f 355 354 356
f 376 356 354
f 368 354 364
f 378 354 368
f 376 354 378
f 384 356 376
f 357 358 359
f 357 359 466
f 359 358 360
f 534 360 358
f 534 358 530
f 359 360 365
f 466 359 365
f 365 360 366
f 536 366 360
f 536 360 534
f 361 362 363
f 361 370 362
f 369 370 361
f 363 362 364
f 368 364 362
f 368 362 370
f 365 366 371
f 365 371 466
f 371 366 372
f 366 542 372
f 540 366 536
f 542 366 540
f 367 368 369
f 367 378 368
f 377 378 367
f 369 368 370
f 371 372 373
f 371 373 466
f 373 372 374
f 372 548 374
f 372 542 548
f 373 374 379
f 466 373 379
f 379 374 380
f 374 550 380
f 374 548 550
f 375 376 377
f 375 384 376
f 383 384 375
f 377 376 378
f 379 380 385
f 466 379 385
f 385 380 386
f 380 556 386
f 380 550 554
f 380 554 556
f 381 382 383
f 381 388 382
f 387 388 381
f 383 382 384
f 385 386 389
f 466 385 389
f 389 386 390
f 386 564 390
f 386 556 562
f 386 562 564
f 387 394 388
f 393 394 387
f 389 390 391
f 466 389 391
f 391 390 392
f 390 564 392
f 391 392 395
f 466 391 395
f 395 392 396
f 392 570 396
f 392 564 570
f 393 398 394
f 397 398 393
f 395 396 399
f 395 399 466
f 399 396 400
f 396 570 400
f 397 402 398
f 401 402 397
f 399 400 403
f 399 403 466
f 403 400 404
f 400 596 404
f 400 570 572
f 400 572 594
f 400 594 596
f 401 408 402
f 407 408 401
f 403 404 405
f 466 403 405
f 405 404 406
f 404 596 406
f 405 406 409
f 405 409 466
f 409 406 410
f 406 598 410
f 406 596 598
f 407 414 408
f 413 414 407
f 409 410 415
f 466 409 415
f 415 410 416
f 410 616 416
f 410 598 616
f 411 412 413
f 411 418 412
f 417 418 411
f 413 412 414
f 415 416 419
f 466 415 419
f 419 416 420
f 416 620 420
f 416 616 618
f 416 618 620
f 417 424 418
f 423 424 417
f 419 420 421
f 419 421 466
f 421 420 422
f 420 620 422
f 421 422 425
f 466 421 425
f 425 422 426
f 422 620 426
f 423 430 424
f 429 430 423
f 425 426 431
f 466 425 431
f 431 426 432
f 426 642 432
f 426 620 622
f 426 622 640
f 426 640 642
f 427 428 429
f 427 434 428
f 433 434 427
f 429 428 430
f 431 432 435
f 431 435 466
f 435 432 436
f 432 642 436
f 433 438 434
f 437 438 433
f 435 436 439
f 435 439 466
f 439 436 440
f 436 646 440
f 436 642 644
f 436 644 646
f 437 444 438
f 443 444 437
f 439 440 441
f 466 439 441
f 441 440 442
f 440 646 442
f 441 442 445
f 466 441 445
f 445 442 446
f 442 646 446
f 443 448 444
f 447 448 443
f 445 446 449
f 466 445 449
f 449 446 450
f 446 650 450
f 446 646 648
f 446 648 650
f 447 452 448
f 451 452 447
f 449 450 453
f 466 449 453
f 453 450 454
f 450 652 454
f 450 650 652
f 451 456 452
f 455 456 451
f 453 454 457
f 453 457 466
f 457 454 458
f 454 674 458
f 454 652 674
f 455 460 456
f 459 460 455
f 457 458 461
f 457 461 466
f 461 458 462
f 458 678 462
f 458 674 676
f 458 676 678
f 459 468 460
f 467 468 459
f 461 462 469
f 466 461 469
f 469 462 470
f 462 654 470
f 462 678 654
f 464 841 463
f 465 637 464
f 464 579 577
f 577 607 464
f 464 581 579
f 464 583 581
f 585 583 464
f 587 585 464
f 589 587 464
f 464 591 589
f 464 609 591
f 464 605 603
f 464 603 631
f 607 605 464
f 464 611 609
f 637 611 464
f 631 629 464
f 629 667 464
f 667 665 464
f 464 665 679
f 679 799 464
f 464 799 842
f 842 841 464
f 465 466 843
f 465 578 580
f 608 578 465
f 465 580 582
f 465 582 584
f 584 586 465
f 586 588 465
f 588 590 465
f 465 590 592
f 465 592 610
f 465 604 606
f 465 632 604
f 606 608 465
f 465 610 612
f 465 612 638
f 630 632 465
f 668 630 465
f 638 637 465
f 666 668 465
f 465 680 666
f 843 680 465
f 466 469 475
f 475 473 466
f 466 473 479
f 479 485 466
f 485 489 466
f 466 489 495
f 466 495 493
f 466 493 499
f 466 499 503
f 466 503 509
f 466 509 507
f 466 507 513
f 513 519 466
f 466 519 517
f 517 525 466
f 466 525 523
f 523 531 466
f 531 537 466
f 537 545 466
f 466 545 543
f 466 543 844
f 843 466 844
f 467 472 468
f 471 472 467
f 469 470 475
f 475 470 476
f 470 658 476
f 470 654 656
f 470 656 658
f 471 478 472
f 477 478 471
f 473 476 474
f 473 474 479
f 475 476 473
f 476 658 474
f 479 474 480
f 474 660 480
f 474 658 660
f 477 482 478
f 481 482 477
f 479 480 485
f 485 480 486
f 480 660 486
f 481 484 482
f 483 484 481
f 483 488 484
f 487 488 483
f 485 486 489
f 489 486 490
f 486 664 490
f 486 660 662
f 486 662 664
f 487 492 488
f 491 492 487
f 489 490 495
f 495 490 496
f 490 664 496
f 491 498 492
f 497 498 491
f 493 496 494
f 493 494 499
f 495 496 493
f 496 624 494
f 499 494 500
f 494 626 500
f 494 624 626
f 496 664 624
f 497 502 498
f 501 502 497
f 499 500 503
f 503 500 504
f 500 626 504
f 501 506 502
f 505 506 501
f 503 504 509
f 509 504 510
f 504 600 510
f 504 628 600
f 504 626 628
f 505 512 506
f 511 512 505
f 507 510 508
f 507 508 513
f 509 510 507
f 510 600 508
f 513 508 514
f 508 602 514
f 508 600 602
f 511 516 512
f 515 516 511
f 513 514 519
f 519 514 520
f 514 602 520
f 515 522 516
f 521 522 515
f 517 520 518
f 517 518 525
f 519 520 517
f 520 574 518
f 525 518 526
f 518 576 526
f 518 574 576
f 520 602 574
f 521 528 522
f 527 528 521
f 844 527 521
f 523 526 524
f 523 524 531
f 525 526 523
f 526 566 524
f 531 524 532
f 524 568 532
f 524 566 568
f 526 576 566
f 527 530 528
f 529 530 527
f 529 527 844
f 529 534 530
f 533 534 529
f 844 533 529
f 531 532 537
f 537 532 538
f 532 558 538
f 532 568 558
f 533 536 534
f 535 536 533
f 844 535 533
f 535 540 536
f 539 540 535
f 844 539 535
f 537 538 545
f 545 538 546
f 538 560 546
f 538 558 560
f 539 542 540
f 541 542 539
f 844 541 539
f 541 548 542
f 547 548 541
f 547 541 844
f 543 546 544
f 543 544 551
f 545 546 543
f 844 543 551
f 546 552 544
f 551 544 552
f 546 560 552
f 547 550 548
f 549 550 547
f 844 549 547
f 549 554 550
f 553 554 549
f 553 549 844
f 551 552 559
f 844 551 559
f 559 552 560
f 553 556 554
f 555 556 553
f 844 555 553
f 555 562 556
f 561 562 555
f 844 561 555
f 557 560 558
f 557 558 567
f 559 560 557
f 844 559 557
f 844 557 567
f 567 558 568
f 561 564 562
f 563 564 561
f 844 563 561
f 563 570 564
f 569 570 563
f 844 569 563
f 565 568 566
f 565 566 575
f 567 568 565
f 844 567 565
f 565 575 844
f 575 566 576
f 569 572 570
f 571 572 569
f 844 571 569
f 571 594 572
f 593 594 571
f 593 571 844
f 573 576 574
f 573 574 601
f 575 576 573
f 844 575 573
f 844 573 601
f 601 574 602
f 578 577 580
f 578 607 577
f 580 577 579
f 608 607 578
f 580 579 582
f 582 579 581
f 582 581 584
f 584 581 583
f 584 583 586
f 586 583 585
f 586 585 588
f 588 585 587
f 588 587 590
f 590 587 589
f 590 589 592
f 592 589 591
f 592 591 610
f 610 591 609
f 593 596 594
f 595 596 593
f 844 595 593
f 595 598 596
f 597 598 595
f 844 597 595
f 597 616 598
f 615 616 597
f 615 597 844
f 599 602 600
f 599 600 627
f 601 602 599
f 844 601 599
f 844 599 627
f 627 600 628
f 604 603 606
f 604 631 603
f 606 603 605
f 632 631 604
f 606 605 608
f 608 605 607
f 610 609 612
f 612 609 611
f 612 611 614
f 614 611 613
f 637 613 611
f 638 612 614
f 614 613 634
f 634 613 633
f 637 633 613
f 638 614 634
f 615 618 616
f 617 618 615
f 844 617 615
f 617 620 618
f 619 620 617
f 619 617 844
f 619 622 620
f 621 622 619
f 621 619 844
f 621 640 622
f 639 640 621
f 844 639 621
f 623 626 624
f 623 624 663
f 625 626 623
f 625 623 844
f 844 623 663
f 663 624 664
f 625 628 626
f 627 628 625
f 627 625 844
f 630 629 632
f 630 667 629
f 632 629 631
f 668 667 630
f 634 633 636
f 636 633 635
f 635 633 637
f 634 636 638
f 636 635 670
f 669 635 637
f 670 635 669
f 636 670 638
f 638 913 637
f 637 671 669
f 637 681 671
f 637 687 681
f 689 687 637
f 637 693 689
f 697 693 637
f 703 697 637
f 637 707 703
f 637 711 707
f 637 715 711
f 637 719 715
f 727 719 637
f 637 725 727
f 637 731 725
f 737 731 637
f 637 749 737
f 913 749 637
f 638 670 672
f 638 672 682
f 638 682 688
f 688 690 638
f 638 690 694
f 694 698 638
f 698 704 638
f 638 704 708
f 638 708 712
f 638 712 716
f 638 716 720
f 720 728 638
f 638 728 726
f 638 726 732
f 732 738 638
f 638 738 750
f 750 878 638
f 638 878 914
f 914 913 638
f 639 642 640
f 641 642 639
f 844 641 639
f 641 644 642
f 643 644 641
f 844 643 641
f 643 646 644
f 645 646 643
f 844 645 643
f 645 648 646
f 647 648 645
f 844 647 645
f 647 650 648
f 649 650 647
f 649 647 844
f 649 652 650
f 651 652 649
f 844 651 649
f 651 674 652
f 673 674 651
f 673 651 844
f 653 656 654
f 653 654 677
f 655 656 653
f 844 655 653
f 844 653 677
f 677 654 678
f 655 658 656
f 657 658 655
f 657 655 844
f 657 660 658
f 659 660 657
f 844 659 657
f 659 662 660
f 661 662 659
f 844 661 659
f 661 664 662
f 663 664 661
f 844 663 661
f 666 665 668
f 666 679 665
f 668 665 667
f 680 679 666
f 670 669 672
f 672 669 671
f 672 671 682
f 682 671 681
f 673 676 674
f 675 676 673
f 844 675 673
f 675 678 676
f 677 678 675
f 844 677 675
f 680 685 679
f 685 785 679
f 679 785 801
f 679 801 799
f 686 685 680
f 786 686 680
f 786 680 802
f 802 680 800
f 800 680 843
f 682 681 688
f 688 681 687
f 684 683 686
f 684 691 683
f 686 683 685
f 683 785 685
f 691 787 683
f 683 787 785
f 786 684 686
f 692 691 684
f 788 692 684
f 788 684 786
f 688 687 690
f 690 687 689
f 690 689 694
f 694 689 693
f 692 695 691
f 695 789 691
f 691 789 787
f 696 695 692
f 790 696 692
f 790 692 788
f 694 693 698
f 698 693 697
f 696 701 695
f 701 777 695
f 695 777 775
f 695 775 789
f 702 701 696
f 778 702 696
f 778 696 776
f 776 696 790
f 698 697 704
f 704 697 703
f 700 699 702
f 700 705 699
f 702 699 701
f 699 779 701
f 705 779 699
f 780 700 702
f 706 705 700
f 780 706 700
f 701 779 777
f 780 702 778
f 704 703 708
f 708 703 707
f 706 709 705
f 709 781 705
f 705 781 779
f 710 709 706
f 782 710 706
f 782 706 780
f 708 707 712
f 712 707 711
f 710 713 709
f 713 783 709
f 709 783 781
f 714 713 710
f 784 714 710
f 784 710 782
f 712 711 716
f 716 711 715
f 714 717 713
f 717 791 713
f 713 791 783
f 718 717 714
f 792 718 714
f 792 714 784
f 716 715 720
f 720 715 719
f 718 721 717
f 721 793 717
f 717 793 791
f 722 721 718
f 794 722 718
f 794 718 792
f 720 719 728
f 728 719 727
f 722 723 721
f 723 793 721
f 724 723 722
f 794 724 722
f 724 729 723
f 729 803 723
f 723 795 793
f 723 803 795
f 730 729 724
f 796 730 724
f 796 724 794
f 726 727 725
f 726 725 732
f 732 725 731
f 728 727 726
f 730 733 729
f 733 805 729
f 729 805 803
f 734 733 730
f 806 734 730
f 804 730 796
f 806 730 804
f 732 731 738
f 738 731 737
f 734 735 733
f 735 805 733
f 736 735 734
f 806 736 734
f 736 739 735
f 813 735 739
f 735 811 805
f 735 813 811
f 740 739 736
f 736 814 740
f 812 736 806
f 736 812 814
f 738 737 750
f 750 737 749
f 740 741 739
f 813 739 741
f 742 741 740
f 740 814 742
f 742 743 741
f 819 741 743
f 813 741 817
f 817 741 819
f 744 743 742
f 742 820 744
f 742 814 818
f 742 818 820
f 744 751 743
f 819 743 751
f 752 751 744
f 744 820 752
f 746 747 745
f 746 745 762
f 871 745 747
f 762 745 761
f 871 761 745
f 748 747 746
f 746 872 748
f 762 872 746
f 748 749 747
f 877 747 749
f 871 747 877
f 750 749 748
f 748 878 750
f 748 872 878
f 877 749 913
f 752 753 751
f 823 751 753
f 819 751 823
f 754 753 752
f 752 824 754
f 752 820 824
f 754 755 753
f 829 753 755
f 823 753 827
f 827 753 829
f 756 755 754
f 754 830 756
f 754 824 828
f 754 828 830
f 756 763 755
f 829 755 763
f 764 763 756
f 756 830 764
f 758 759 757
f 758 757 774
f 859 757 759
f 774 757 773
f 859 773 757
f 760 759 758
f 758 860 760
f 774 860 758
f 760 761 759
f 863 759 761
f 859 759 865
f 865 759 863
f 762 761 760
f 760 864 762
f 760 860 866
f 760 866 864
f 863 761 871
f 762 864 872
f 764 765 763
f 835 763 765
f 829 763 835
f 766 765 764
f 764 836 766
f 764 830 836
f 766 767 765
f 839 765 767
f 835 765 839
f 768 767 766
f 766 840 768
f 766 836 840
f 768 769 767
f 847 767 769
f 839 767 847
f 770 769 768
f 768 848 770
f 768 840 848
f 770 771 769
f 851 769 771
f 847 769 851
f 772 771 770
f 770 852 772
f 770 848 852
f 772 773 771
f 855 771 773
f 851 771 855
f 774 773 772
f 772 856 774
f 772 852 856
f 855 773 859
f 774 856 860
f 776 775 778
f 776 789 775
f 778 775 777
f 790 789 776
f 778 777 780
f 780 777 779
f 780 779 782
f 782 779 781
f 782 781 784
f 784 781 783
f 784 783 792
f 792 783 791
f 786 785 788
f 786 801 785
f 788 785 787
f 802 801 786
f 788 787 790
f 790 787 789
f 792 791 794
f 794 791 793
f 794 793 796
f 796 793 795
f 796 795 804
f 804 795 803
f 798 797 800
f 798 809 797
f 800 797 799
f 799 797 842
f 842 797 809
f 798 800 843
f 810 809 798
f 843 810 798
f 800 799 802
f 802 799 801
f 804 803 806
f 806 803 805
f 806 805 812
f 812 805 811
f 808 807 810
f 808 815 807
f 810 807 809
f 809 807 842
f 842 807 815
f 808 810 843
f 816 815 808
f 843 816 808
f 812 811 814
f 814 811 813
f 814 813 818
f 818 813 817
f 816 821 815
f 842 815 821
f 822 821 816
f 843 822 816
f 818 817 820
f 820 817 819
f 820 819 824
f 824 819 823
f 822 825 821
f 842 821 825
f 826 825 822
f 843 826 822
f 824 823 828
f 828 823 827
f 826 833 825
f 825 833 842
f 834 833 826
f 834 826 843
f 828 827 830
f 830 827 829
f 830 829 836
f 836 829 835
f 832 831 834
f 832 837 831
f 834 831 833
f 833 831 842
f 831 837 842
f 832 834 843
f 838 837 832
f 838 832 843
f 836 835 840
f 840 835 839
f 838 845 837
f 842 837 845
f 843 846 838
f 846 845 838
f 840 839 848
f 848 839 847
f 842 914 843
f 842 845 849
f 842 849 853
f 842 853 857
f 857 861 842
f 842 861 867
f 842 867 913
f 913 914 842
f 843 850 846
f 843 854 850
f 843 858 854
f 862 858 843
f 843 868 862
f 914 868 843
f 846 849 845
f 850 849 846
f 848 847 852
f 852 847 851
f 850 853 849
f 854 853 850
f 852 851 856
f 856 851 855
f 854 857 853
f 858 857 854
f 856 855 860
f 860 855 859
f 858 861 857
f 862 861 858
f 860 859 866
f 866 859 865
f 862 867 861
f 868 867 862
f 864 865 863
f 864 863 872
f 872 863 871
f 866 865 864
f 868 869 867
f 913 867 869
f 870 869 868
f 914 870 868
f 870 873 869
f 869 873 913
f 874 873 870
f 914 874 870
f 872 871 878
f 878 871 877
f 874 875 873
f 873 875 913
f 876 875 874
f 914 876 874
f 876 879 875
f 875 879 913
f 880 879 876
f 914 880 876
f 878 877 886
f 886 877 885
f 913 885 877
f 914 878 886
f 880 881 879
f 879 881 913
f 882 881 880
f 882 880 914
f 882 887 881
f 881 887 913
f 888 887 882
f 888 882 914
f 884 885 883
f 884 883 896
f 883 885 913
f 896 883 895
f 913 895 883
f 886 885 884
f 886 884 914
f 914 884 896
f 888 889 887
f 913 887 889
f 890 889 888
f 914 890 888
f 890 891 889
f 889 891 913
f 892 891 890
f 892 890 914
f 892 897 891
f 913 891 897
f 898 897 892
f 914 898 892
f 894 895 893
f 894 893 912
f 913 893 895
f 912 893 911
f 911 893 913
f 896 895 894
f 914 896 894
f 894 912 914
f 898 899 897
f 913 897 899
f 900 899 898
f 914 900 898
f 900 901 899
f 913 899 901
f 902 901 900
f 914 902 900
f 902 903 901
f 913 901 903
f 904 903 902
f 914 904 902
f 904 905 903
f 913 903 905
f 906 905 904
f 914 906 904
f 906 907 905
f 905 907 913
f 908 907 906
f 908 906 914
f 908 909 907
f 907 909 913
f 910 909 908
f 910 908 914
f 910 911 909
f 913 909 911
f 912 911 910
f 914 912 910
