# CAD visual only; metres; body-local coordinates
v -0.0100000001 -1.18654614e-10 0.009999998
v -0.0100000001 -1.18654614e-10 0.011999996
v -0.00978147512 -0.00207912412 0.009999998
v -0.00978147512 -0.00207912412 0.011999996
v -0.00981626512 -0.00190809212 0.009999998
v -0.00981626512 -0.00190809212 0.011999996
v -0.00987688112 -0.00156435012 0.009999998
v -0.00984808012 -0.00173648812 0.011999996
v -0.00990268712 -0.00139173512 0.009999998
v -0.00990268712 -0.00139173512 0.011999996
v -0.00994522112 -0.00104528412 0.009999998
v -0.00992546112 -0.00121870012 0.011999996
v -0.00996194812 -0.000871563119 0.009999998
v -0.00996194812 -0.000871563119 0.011999996
v -0.00998628612 -0.000523357119 0.009999998
v -0.00997564312 -0.000697555119 0.011999996
v -0.00999391512 -0.000348987119 0.009999998
v -0.00999391512 -0.000348987119 0.011999996
v -0.00999847412 -0.000174522119 0.009999998
v -0.00999847412 -0.000174522119 0.011999996
v -0.00999847412 0.000174522881 0.009999998
v -0.00999847412 0.000174522881 0.011999996
v -0.00999391512 0.000348987881 0.009999998
v -0.00999391512 0.000348987881 0.011999996
v -0.00997564312 0.000697555881 0.009999998
v -0.00998628612 0.000523356881 0.011999996
v -0.00996194812 0.000871562881 0.009999998
v -0.00996194812 0.000871562881 0.011999996
v -0.00992546112 0.00121870088 0.009999998
v -0.00994522112 0.00104528388 0.011999996
v -0.00990268712 0.00139173488 0.009999998
v -0.00990268712 0.00139173488 0.011999996
v -0.00984808012 0.00173648788 0.009999998
v -0.00987688112 0.00156434988 0.011999996
v -0.00981626512 0.00190809288 0.009999998
v -0.00981626512 0.00190809288 0.011999996
v -0.00978147512 0.00207912488 0.009999998
v -0.00978147512 0.00207912488 0.011999996
v -0.00951057412 -0.00309017212 0.009999998
v -0.00951057412 -0.00309017212 0.011999996
v -0.00961261712 -0.00275636712 0.009999998
v -0.00956304512 -0.00292371712 0.011999996
v -0.00965925212 -0.00258819612 0.009999998
v -0.00965925212 -0.00258819612 0.011999996
v -0.00970294912 -0.00241922412 0.009999998
v -0.00970294912 -0.00241922412 0.011999996
v -0.00974370912 -0.00224950812 0.009999998
v -0.00974370912 -0.00224950812 0.011999996
v -0.00974370912 0.00224950788 0.009999998
v -0.00974370912 0.00224950788 0.011999996
v -0.00970294912 0.00241922388 0.009999998
v -0.00970294912 0.00241922388 0.011999996
v -0.00965925212 0.00258819588 0.009999998
v -0.00965925212 0.00258819588 0.011999996
v -0.00956304512 0.00292371788 0.009999998
v -0.00961261712 0.00275636688 0.011999996
v -0.00951057412 0.00309017188 0.009999998
v -0.00951057412 0.00309017188 0.011999996
v -0.00933580412 -0.00358367912 0.009999998
v -0.00927183112 -0.00374607112 0.011999996
v -0.00945518512 -0.00325567212 0.009999998
v -0.00939693412 -0.00342020012 0.011999996
v -0.00939693412 0.00342019988 0.009999998
v -0.00945518512 0.00325567288 0.011999996
v -0.00927183112 0.00374607088 0.009999998
v -0.00933580412 0.00358367888 0.011999996
v -0.00913545612 -0.00406736412 0.009999998
v -0.00906307212 -0.00422618912 0.011999996
v -0.00920505512 -0.00390731812 0.009999998
v -0.00920505512 -0.00390731812 0.011999996
v -0.00920505512 0.00390731788 0.009999998
v -0.00920505512 0.00390731788 0.011999996
v -0.00906307212 0.00422618888 0.009999998
v -0.00913545612 0.00406736388 0.011999996
v -0.00891006512 -0.00453990912 0.009999998
v -0.00882947912 -0.00469471012 0.011999996
v -0.00898794212 -0.00438371612 0.009999998
v -0.00898794212 -0.00438371612 0.011999996
v -0.00898794212 0.00438371688 0.009999998
v -0.00898794212 0.00438371688 0.011999996
v -0.00882947912 0.00469470988 0.009999998
v -0.00891006512 0.00453990888 0.011999996
v -0.00866025912 -0.00500000012 0.009999998
v -0.00857168212 -0.00515037512 0.011999996
v -0.00874620412 -0.00484809912 0.009999998
v -0.00874620412 -0.00484809912 0.011999996
v -0.00866025912 0.00499999988 0.009999998
v -0.00874620412 0.00484809888 0.011999996
v -0.00857168212 0.00515037488 0.009999998
v -0.00857168212 0.00515037488 0.011999996
v -0.00829036712 -0.00559192612 0.009999998
v -0.00829036712 -0.00559192612 0.011999996
v -0.00848047212 -0.00529918712 0.009999998
v -0.00838670712 -0.00544639612 0.011999996
v -0.00838670712 0.00544639588 0.009999998
v -0.00848047212 0.00529918688 0.011999996
v -0.00829036712 0.00559192688 0.009999998
v -0.00829036712 0.00559192688 0.011999996
v -0.00809017212 -0.00587785712 0.009999998
v -0.00809017212 -0.00587785712 0.011999996
v -0.00819152812 -0.00573576012 0.009999998
v -0.00819152812 -0.00573576012 0.011999996
v -0.00819152812 0.00573575988 0.009999998
v -0.00819152812 0.00573575988 0.011999996
v -0.00809017212 0.00587785688 0.009999998
v -0.00809017212 0.00587785688 0.011999996
v -0.00777145412 -0.00629320112 0.009999998
v -0.00777145412 -0.00629320112 0.011999996
v -0.00798635512 -0.00601814312 0.009999998
v -0.00788011512 -0.00615661612 0.011999996
v -0.00788011512 0.00615661588 0.009999998
v -0.00798635512 0.00601814288 0.011999996
v -0.00777145412 0.00629320188 0.009999998
v -0.00777145412 0.00629320188 0.011999996
v -0.00754709212 -0.00656059312 0.009999998
v -0.00754709212 -0.00656059312 0.011999996
v -0.00766044612 -0.00642787912 0.009999998
v -0.00766044612 -0.00642787912 0.011999996
v -0.00766044612 0.00642787888 0.009999998
v -0.00766044612 0.00642787888 0.011999996
v -0.00754709212 0.00656059288 0.009999998
v -0.00754709212 0.00656059288 0.011999996
v -0.00731353712 -0.00681999212 0.009999998
v -0.00731353712 -0.00681999212 0.011999996
v -0.00743145012 -0.00669130312 0.009999998
v -0.00743145012 -0.00669130312 0.011999996
v -0.00743145012 0.00669130288 0.009999998
v -0.00743145012 0.00669130288 0.011999996
v -0.00731353712 0.00681999188 0.009999998
v -0.00731353712 0.00681999188 0.011999996
v -0.00707107512 -0.00707107512 0.009999998
v -0.00707107512 -0.00707107512 0.011999996
v -0.00719339412 -0.00694658312 0.009999998
v -0.00719339412 -0.00694658312 0.011999996
v -0.00719339412 0.00694658288 0.009999998
v -0.00719339412 0.00694658288 0.011999996
v -0.00707107512 0.00707107588 0.009999998
v -0.00707107512 0.00707107588 0.011999996
v -0.00681999212 -0.00731353712 0.009999998
v -0.00681999212 -0.00731353712 0.011999996
v -0.00694658312 -0.00719339412 0.009999998
v -0.00694658312 -0.00719339412 0.011999996
v -0.00675266312 -0.00575271612 0.009999998
v -0.00675083212 -0.00577182812 0.011999996
v -0.00675083212 -0.00554187812 0.009999998
v -0.00675416912 -0.00573358512 0.011999996
v -0.00694658312 0.00719339388 0.009999998
v -0.00694658312 0.00719339388 0.011999996
v -0.00681999212 0.00731353788 0.009999998
v -0.00681999212 0.00731353788 0.011999996
v -0.00656059312 -0.00754709212 0.009999998
v -0.00656059312 -0.00754709212 0.011999996
v -0.00669130312 -0.00743145012 0.009999998
v -0.00669130312 -0.00743145012 0.011999996
v -0.00657939912 -0.00625595112 0.009999998
v -0.00651170712 -0.00634910612 0.011999996
v -0.00669693012 -0.00601497612 0.009999998
v -0.00658969912 -0.00623975712 0.011999996
v -0.00674865712 -0.00579090112 0.009999998
v -0.00670301412 -0.00599678012 0.011999996
v -0.00674615812 -0.00550376912 0.009999998
v -0.00674865712 -0.00552280412 0.011999996
v -0.00668378812 -0.00526264212 0.009999998
v -0.00674331712 -0.00548477212 0.011999996
v -0.00654676412 -0.00501030012 0.009999998
v -0.00667675012 -0.00524478912 0.011999996
v -0.00651170712 -0.00496460012 0.009999998
v -0.00653535812 -0.00499485012 0.011999996
v -0.00669130312 0.00743144988 0.009999998
v -0.00669130312 0.00743144988 0.011999996
v -0.00656059312 0.00754709288 0.009999998
v -0.00656059312 0.00754709288 0.011999996
v -0.00629320112 -0.00777145412 0.009999998
v -0.00629320112 -0.00777145412 0.011999996
v -0.00642787912 -0.00766044612 0.009999998
v -0.00642787912 -0.00766044612 0.011999996
v -0.00634910612 -0.00651170712 0.009999998
v -0.00625595112 -0.00657939912 0.011999996
v -0.00643466912 -0.00643466912 0.009999998
v -0.00643466912 -0.00643466912 0.011999996
v -0.00628778412 -0.00475578312 0.009999998
v -0.00649950012 -0.00494977912 0.011999996
v -0.00625595112 -0.00473432512 0.009999998
v -0.00627197312 -0.00474491112 0.011999996
v -0.00642787912 0.00766044588 0.009999998
v -0.00642787912 0.00766044588 0.011999996
v -0.00629320112 0.00777145388 0.009999998
v -0.00629320112 0.00777145388 0.011999996
v -0.00615661612 -0.00788011512 0.009999998
v -0.00601814312 -0.00798635512 0.011999996
v -0.00623975712 -0.00658969912 0.009999998
v -0.00601497612 -0.00669693012 0.011999996
v -0.00601497612 -0.00461677512 0.009999998
v -0.00623975712 -0.00472400712 0.011999996
v -0.00601814312 0.00798635488 0.009999998
v -0.00615661612 0.00788011588 0.011999996
v -0.00587785712 -0.00809017212 0.009999998
v -0.00587785712 -0.00809017212 0.011999996
v -0.00577182812 -0.00675083212 0.009999998
v -0.00575271612 -0.00675266312 0.011999996
v -0.00599678012 -0.00670301412 0.009999998
v -0.00579090112 -0.00674865712 0.011999996
v -0.00575271612 -0.00456104312 0.009999998
v -0.00599678012 -0.00461069112 0.011999996
v -0.00587785712 0.00809017188 0.009999998
v -0.00587785712 0.00809017188 0.011999996
v -0.00559192612 -0.00829036712 0.009999998
v -0.00559192612 -0.00829036712 0.011999996
v -0.00573576012 -0.00819152812 0.009999998
v -0.00573576012 -0.00819152812 0.011999996
v -0.00573358512 -0.00675416912 0.009999998
v -0.00554187812 -0.00675083212 0.011999996
v -0.00552280412 -0.00674865712 0.009999998
v -0.00550376912 -0.00674615812 0.011999996
v -0.00550376912 -0.00456756612 0.009999998
v -0.00573358512 -0.00455953612 0.011999996
v -0.00573576012 0.00819152788 0.009999998
v -0.00573576012 0.00819152788 0.011999996
v -0.00559192612 0.00829036688 0.009999998
v -0.00559192612 0.00829036688 0.011999996
v -0.00544639612 -0.00838670712 0.009999998
v -0.00529918712 -0.00848047212 0.011999996
v -0.00548477212 -0.00674331712 0.009999998
v -0.00526264212 -0.00668378812 0.011999996
v -0.00526264212 -0.00462991712 0.009999998
v -0.00548477212 -0.00457038912 0.011999996
v -0.00529918712 0.00848047288 0.009999998
v -0.00544639612 0.00838670688 0.011999996
v -0.00515037512 -0.00857168212 0.009999998
v -0.00500000012 -0.00866025912 0.011999996
v -0.00524478912 -0.00667675012 0.009999998
v -0.00501030012 -0.00654676412 0.011999996
v -0.00501030012 -0.00476694112 0.009999998
v -0.00502592112 -0.00475578312 0.011999996
v -0.00504173312 -0.00474491112 0.009999998
v -0.00524478912 -0.00463695512 0.011999996
v -0.00500000012 0.00866025888 0.009999998
v -0.00515037512 0.00857168188 0.011999996
v -0.00484809912 -0.00874620412 0.009999998
v -0.00484809912 -0.00874620412 0.011999996
v -0.00499485012 -0.00653535812 0.009999998
v -0.00496460012 -0.00651170712 0.011999996
v -0.00494977912 -0.00649950012 0.009999998
v -0.00475578312 -0.00628778412 0.011999996
v -0.00475578312 -0.00502592112 0.009999998
v -0.00476694112 -0.00501030012 0.011999996
v -0.00477834712 -0.00499485012 0.009999998
v -0.00499485012 -0.00477834712 0.011999996
v -0.00484809912 0.00874620388 0.009999998
v -0.00484809912 0.00874620388 0.011999996
v -0.00469471012 -0.00882947912 0.009999998
v -0.00453990912 -0.00891006512 0.011999996
v -0.00474491112 -0.00627197312 0.009999998
v -0.00473432512 -0.00625595112 0.011999996
v -0.00472400712 -0.00623975712 0.009999998
v -0.00461677512 -0.00601497612 0.011999996
v -0.00461069112 -0.00599678012 0.009999998
v -0.00456104312 -0.00575271612 0.011999996
v -0.00455953612 -0.00573358512 0.009999998
v -0.00456756612 -0.00550376912 0.011999996
v -0.00457038912 -0.00548477212 0.009999998
v -0.00462991712 -0.00526264212 0.011999996
v -0.00463695512 -0.00524478912 0.009999998
v -0.00474491112 -0.00504173312 0.011999996
v -0.00453990912 0.00891006488 0.009999998
v -0.00469471012 0.00882947888 0.011999996
v -0.00438371612 -0.00898794212 0.009999998
v -0.00438371612 -0.00898794212 0.011999996
v -0.00438371612 0.00898794188 0.009999998
v -0.00438371612 0.00898794188 0.011999996
v -0.00422618912 -0.00906307212 0.009999998
v -0.00406736412 -0.00913545612 0.011999996
v -0.00406736412 0.00913545588 0.009999998
v -0.00422618912 0.00906307188 0.011999996
v -0.00390731812 -0.00920505512 0.009999998
v -0.00390731812 -0.00920505512 0.011999996
v -0.00390731812 0.00920505488 0.009999998
v -0.00390731812 0.00920505488 0.011999996
v -0.00374607112 -0.00927183112 0.009999998
v -0.00358367912 -0.00933580412 0.011999996
v -0.00358367912 0.00933580388 0.009999998
v -0.00374607112 0.00927183188 0.011999996
v -0.00342020012 -0.00939693412 0.009999998
v -0.00325567212 -0.00945518512 0.011999996
v -0.00325567212 0.00945518488 0.009999998
v -0.00342020012 0.00939693488 0.011999996
v -0.00309017212 -0.00951057412 0.009999998
v -0.00309017212 -0.00951057412 0.011999996
v -0.00309017212 0.00951057388 0.009999998
v -0.00309017212 0.00951057388 0.011999996
v -0.00292371712 -0.00956304512 0.009999998
v -0.00275636712 -0.00961261712 0.011999996
v -0.00275636712 0.00961261788 0.009999998
v -0.00292371712 0.00956304588 0.011999996
v -0.00258819612 -0.00965925212 0.009999998
v -0.00258819612 -0.00965925212 0.011999996
v -0.00258819612 0.00965925188 0.009999998
v -0.00258819612 0.00965925188 0.011999996
v -0.00241922412 -0.00970294912 0.009999998
v -0.00241922412 -0.00970294912 0.011999996
v -0.00241922412 0.00970294988 0.009999998
v -0.00241922412 0.00970294988 0.011999996
v -0.00207912412 -0.00978147512 0.009999998
v -0.00207912412 -0.00978147512 0.011999996
v -0.00224950812 -0.00974370912 0.009999998
v -0.00224950812 -0.00974370912 0.011999996
v -0.00224950812 0.00974370988 0.009999998
v -0.00224950812 0.00974370988 0.011999996
v -0.00207912412 0.00978147488 0.009999998
v -0.00207912412 0.00978147488 0.011999996
v -0.00190809212 -0.00981626512 0.009999998
v -0.00190809212 -0.00981626512 0.011999996
v -0.00190809212 0.00981626488 0.009999998
v -0.00190809212 0.00981626488 0.011999996
v -0.00173648812 -0.00984808012 0.009999998
v -0.00156435012 -0.00987688112 0.011999996
v -0.00156435012 0.00987688088 0.009999998
v -0.00173648812 0.00984807988 0.011999996
v -0.00139173512 -0.00990268712 0.009999998
v -0.00139173512 -0.00990268712 0.011999996
v -0.00129903812 -0.000750008119 0.009999998
v -0.00125801112 -0.000816955119 0.011999996
v -0.00140953112 -0.000513039119 0.009999998
v -0.00131193212 -0.000727215119 0.011999996
v -0.00147720312 -0.000260467119 0.009999998
v -0.00141828512 -0.000488357119 0.011999996
v -0.00149999612 -1.18654614e-10 0.009999998
v -0.00148153312 -0.000234661119 0.011999996
v -0.00148153312 0.000234660881 0.009999998
v -0.00149976712 2.61878813e-05 0.011999996
v -0.00141828512 0.000488357881 0.009999998
v -0.00147720312 0.000260467881 0.011999996
v -0.00131193212 0.000727214881 0.009999998
v -0.00140953112 0.000513038881 0.011999996
v -0.00125801112 0.000816955881 0.009999998
v -0.00129903812 0.000750007881 0.011999996
v -0.00139173512 0.00990268688 0.009999998
v -0.00139173512 0.00990268688 0.011999996
v -0.00121870012 -0.00992546112 0.009999998
v -0.00104528412 -0.00994522112 0.011999996
v -0.00106065712 -0.00106065712 0.009999998
v -0.00106065712 -0.00106065712 0.011999996
v -0.00124355312 -0.000838795119 0.009999998
v -0.00113206912 -0.000984096119 0.011999996
v -0.00113206912 0.000984096881 0.009999998
v -0.00124355312 0.000838794881 0.011999996
v -0.00100370412 0.00111471188 0.009999998
v -0.00111471212 0.00100370388 0.011999996
v -0.00104528412 0.00994522088 0.009999998
v -0.00121870012 0.00992546088 0.011999996
v -0.000871563119 -0.00996194812 0.009999998
v -0.000871563119 -0.00996194812 0.011999996
v -0.000816955119 -0.00125801112 0.009999998
v -0.000750008119 -0.00129903812 0.011999996
v -0.000984096119 -0.00113206912 0.009999998
v -0.000838795119 -0.00124355312 0.011999996
v -0.000838795119 0.00124355288 0.009999998
v -0.000984096119 0.00113206888 0.011999996
v -0.000750008119 0.00129903788 0.009999998
v -0.000816955119 0.00125801088 0.011999996
v -0.000871563119 0.00996194788 0.009999998
v -0.000871563119 0.00996194788 0.011999996
v -0.000697555119 -0.00997564312 0.009999998
v -0.000523357119 -0.00998628612 0.011999996
v -0.000727215119 -0.00131193212 0.009999998
v -0.000513039119 -0.00140953112 0.011999996
v -0.000513039119 0.00140953088 0.009999998
v -0.000727215119 0.00131193188 0.011999996
v -0.000523357119 0.00998628588 0.009999998
v -0.000697555119 0.00997564288 0.011999996
v -0.000348987119 -0.00999391512 0.009999998
v -0.000348987119 -0.00999391512 0.011999996
v -0.000488357119 -0.00141828512 0.009999998
v -0.000260467119 -0.00147720312 0.011999996
v -0.000260467119 0.00147720288 0.009999998
v -0.000488357119 0.00141828488 0.011999996
v -0.000348987119 0.00999391588 0.009999998
v -0.000348987119 0.00999391588 0.011999996
v -1.18654642e-10 -0.0100000001 0.009999998
v -1.18654642e-10 -0.0100000001 0.011999996
v -0.000174522119 -0.00999847412 0.009999998
v -0.000174522119 -0.00999847412 0.011999996
v -0.000234661119 -0.00148153312 0.009999998
v -1.18654642e-10 -0.00149999612 0.011999996
v -1.18654642e-10 0.00149999588 0.009999998
v -0.000234661119 0.00148153288 0.011999996
v -1.18654642e-10 0.00999999988 0.009999998
v -0.000174522119 0.00999847388 0.011999996
v 0.000174522881 -0.00999847412 0.009999998
v 0.000174522881 -0.00999847412 0.011999996
v 2.61878813e-05 -0.00149976712 0.009999998
v 0.000234660881 -0.00148153312 0.011999996
v 0.000234660881 0.00148153288 0.009999998
v 2.61878813e-05 0.00149976688 0.011999996
v 0.000174522881 0.00999847388 0.009999998
v 0.000174522881 0.00999847388 0.011999996
v 0.000348987881 -0.00999391512 0.009999998
v 0.000348987881 -0.00999391512 0.011999996
v 0.000260467881 -0.00147720312 0.009999998
v 0.000488357881 -0.00141828512 0.011999996
v 0.000488357881 0.00141828488 0.009999998
v 0.000260467881 0.00147720288 0.011999996
v 0.000348987881 0.00999391588 0.009999998
v 0.000348987881 0.00999391588 0.011999996
v 0.000523356881 -0.00998628612 0.009999998
v 0.000697555881 -0.00997564312 0.011999996
v 0.000513038881 -0.00140953112 0.009999998
v 0.000727214881 -0.00131193212 0.011999996
v 0.000727214881 0.00131193188 0.009999998
v 0.000513038881 0.00140953088 0.011999996
v 0.000697555881 0.00997564288 0.009999998
v 0.000523356881 0.00998628588 0.011999996
v 0.000871562881 -0.00996194812 0.009999998
v 0.000871562881 -0.00996194812 0.011999996
v 0.000750007881 -0.00129903812 0.009999998
v 0.000816955881 -0.00125801112 0.011999996
v 0.000838794881 -0.00124355312 0.009999998
v 0.000984096881 -0.00113206912 0.011999996
v 0.000984096881 0.00113206888 0.009999998
v 0.000838794881 0.00124355288 0.011999996
v 0.000816955881 0.00125801088 0.009999998
v 0.000750007881 0.00129903788 0.011999996
v 0.000871562881 0.00996194788 0.009999998
v 0.000871562881 0.00996194788 0.011999996
v 0.00104528388 -0.00994522112 0.009999998
v 0.00121870088 -0.00992546112 0.011999996
v 0.00100370388 -0.00111471212 0.009999998
v 0.00111471188 -0.00100370412 0.011999996
v 0.00113206888 -0.000984096119 0.009999998
v 0.00124355288 -0.000838795119 0.011999996
v 0.00124355288 0.000838794881 0.009999998
v 0.00113206888 0.000984096881 0.011999996
v 0.00111471188 0.00100370388 0.009999998
v 0.00100370388 0.00111471188 0.011999996
v 0.00121870088 0.00992546088 0.009999998
v 0.00104528388 0.00994522088 0.011999996
v 0.00139173488 -0.00990268712 0.009999998
v 0.00139173488 -0.00990268712 0.011999996
v 0.00125801088 -0.000816955119 0.009999998
v 0.00129903788 -0.000750008119 0.011999996
v 0.00131193188 -0.000727215119 0.009999998
v 0.00140953088 -0.000513039119 0.011999996
v 0.00141828488 -0.000488357119 0.009999998
v 0.00147720288 -0.000260467119 0.011999996
v 0.00148153288 -0.000234661119 0.009999998
v 0.00149999588 -1.18654614e-10 0.011999996
v 0.00149976688 2.61878813e-05 0.009999998
v 0.00148153288 0.000234660881 0.011999996
v 0.00147720288 0.000260467881 0.009999998
v 0.00141828488 0.000488357881 0.011999996
v 0.00140953088 0.000513038881 0.009999998
v 0.00131193188 0.000727214881 0.011999996
v 0.00129903788 0.000750007881 0.009999998
v 0.00125801088 0.000816955881 0.011999996
v 0.00139173488 0.00990268688 0.009999998
v 0.00139173488 0.00990268688 0.011999996
v 0.00156434988 -0.00987688112 0.009999998
v 0.00173648788 -0.00984808012 0.011999996
v 0.00173648788 0.00984807988 0.009999998
v 0.00156434988 0.00987688088 0.011999996
v 0.00190809288 -0.00981626512 0.009999998
v 0.00190809288 -0.00981626512 0.011999996
v 0.00190809288 0.00981626488 0.009999998
v 0.00190809288 0.00981626488 0.011999996
v 0.00207912488 -0.00978147512 0.009999998
v 0.00207912488 -0.00978147512 0.011999996
v 0.00224950788 -0.00974370912 0.009999998
v 0.00224950788 -0.00974370912 0.011999996
v 0.00224950788 0.00974370988 0.009999998
v 0.00224950788 0.00974370988 0.011999996
v 0.00207912488 0.00978147488 0.009999998
v 0.00207912488 0.00978147488 0.011999996
v 0.00241922388 -0.00970294912 0.009999998
v 0.00241922388 -0.00970294912 0.011999996
v 0.00241922388 0.00970294988 0.009999998
v 0.00241922388 0.00970294988 0.011999996
v 0.00258819588 -0.00965925212 0.009999998
v 0.00258819588 -0.00965925212 0.011999996
v 0.00258819588 0.00965925188 0.009999998
v 0.00258819588 0.00965925188 0.011999996
v 0.00275636688 -0.00961261712 0.009999998
v 0.00292371788 -0.00956304512 0.011999996
v 0.00292371788 0.00956304588 0.009999998
v 0.00275636688 0.00961261788 0.011999996
v 0.00309017188 -0.00951057412 0.009999998
v 0.00309017188 -0.00951057412 0.011999996
v 0.00309017188 0.00951057388 0.009999998
v 0.00309017188 0.00951057388 0.011999996
v 0.00325567288 -0.00945518512 0.009999998
v 0.00342019988 -0.00939693412 0.011999996
v 0.00342019988 0.00939693488 0.009999998
v 0.00325567288 0.00945518488 0.011999996
v 0.00358367888 -0.00933580412 0.009999998
v 0.00374607088 -0.00927183112 0.011999996
v 0.00374607088 0.00927183188 0.009999998
v 0.00358367888 0.00933580388 0.011999996
v 0.00390731788 -0.00920505512 0.009999998
v 0.00390731788 -0.00920505512 0.011999996
v 0.00390731788 0.00920505488 0.009999998
v 0.00390731788 0.00920505488 0.011999996
v 0.00406736388 -0.00913545612 0.009999998
v 0.00422618888 -0.00906307212 0.011999996
v 0.00422618888 0.00906307188 0.009999998
v 0.00406736388 0.00913545588 0.011999996
v 0.00438371688 -0.00898794212 0.009999998
v 0.00438371688 -0.00898794212 0.011999996
v 0.00438371688 0.00898794188 0.009999998
v 0.00438371688 0.00898794188 0.011999996
v 0.00453990888 -0.00891006512 0.009999998
v 0.00469470988 -0.00882947912 0.011999996
v 0.00474491088 0.00504173288 0.009999998
v 0.00463695488 0.00524478888 0.011999996
v 0.00462991688 0.00526264188 0.009999998
v 0.00457038888 0.00548477188 0.011999996
v 0.00456756588 0.00550376888 0.009999998
v 0.00455953588 0.00573358488 0.011999996
v 0.00456104288 0.00575271588 0.009999998
v 0.00461069088 0.00599677988 0.011999996
v 0.00461677588 0.00601497688 0.009999998
v 0.00472400688 0.00623975788 0.011999996
v 0.00473432588 0.00625595088 0.009999998
v 0.00474491088 0.00627197288 0.011999996
v 0.00469470988 0.00882947888 0.009999998
v 0.00453990888 0.00891006488 0.011999996
v 0.00484809888 -0.00874620412 0.009999998
v 0.00499999988 -0.00866025912 0.011999996
v 0.00487903588 0.00487903588 0.009999998
v 0.00487903588 0.00487903588 0.011999996
v 0.00476694088 0.00501029988 0.009999998
v 0.00475578288 0.00502592088 0.011999996
v 0.00475578288 0.00628778488 0.009999998
v 0.00494977988 0.00649949988 0.011999996
v 0.00496459988 0.00651170688 0.009999998
v 0.00499484988 0.00653535888 0.011999996
v 0.00499999988 0.00866025888 0.009999998
v 0.00484809888 0.00874620388 0.011999996
v 0.00515037488 -0.00857168212 0.009999998
v 0.00515037488 -0.00857168212 0.011999996
v 0.00524478888 0.00463695488 0.009999998
v 0.00504173288 0.00474491088 0.011999996
v 0.00502592088 0.00475578288 0.009999998
v 0.00501029988 0.00476694088 0.011999996
v 0.00501029988 0.00654676388 0.009999998
v 0.00524478888 0.00667674988 0.011999996
v 0.00515037488 0.00857168188 0.009999998
v 0.00515037488 0.00857168188 0.011999996
v 0.00529918688 -0.00848047212 0.009999998
v 0.00544639588 -0.00838670712 0.011999996
v 0.00548477188 0.00457038888 0.009999998
v 0.00526264188 0.00462991688 0.011999996
v 0.00526264188 0.00668378788 0.009999998
v 0.00548477188 0.00674331688 0.011999996
v 0.00544639588 0.00838670688 0.009999998
v 0.00529918688 0.00848047288 0.011999996
v 0.00559192688 -0.00829036712 0.009999998
v 0.00559192688 -0.00829036712 0.011999996
v 0.00573575988 -0.00819152812 0.009999998
v 0.00573575988 -0.00819152812 0.011999996
v 0.00573358488 0.00455953588 0.009999998
v 0.00550376888 0.00456756588 0.011999996
v 0.00550376888 0.00674615888 0.009999998
v 0.00552280388 0.00674865688 0.011999996
v 0.00554187788 0.00675083188 0.009999998
v 0.00573358488 0.00675416988 0.011999996
v 0.00573575988 0.00819152788 0.009999998
v 0.00573575988 0.00819152788 0.011999996
v 0.00559192688 0.00829036688 0.009999998
v 0.00559192688 0.00829036688 0.011999996
v 0.00587785688 -0.00809017212 0.009999998
v 0.00587785688 -0.00809017212 0.011999996
v 0.00599677988 0.00461069088 0.009999998
v 0.00575271588 0.00456104288 0.011999996
v 0.00579090088 0.00674865688 0.009999998
v 0.00599677988 0.00670301388 0.011999996
v 0.00575271588 0.00675266288 0.009999998
v 0.00577182788 0.00675083188 0.011999996
v 0.00587785688 0.00809017188 0.009999998
v 0.00587785688 0.00809017188 0.011999996
v 0.00601814288 -0.00798635512 0.009999998
v 0.00615661588 -0.00788011512 0.011999996
v 0.00623975788 0.00472400688 0.009999998
v 0.00601497688 0.00461677588 0.011999996
v 0.00601497688 0.00669692988 0.009999998
v 0.00623975788 0.00658969888 0.011999996
v 0.00615661588 0.00788011588 0.009999998
v 0.00601814288 0.00798635488 0.011999996
v 0.00629320188 -0.00777145412 0.009999998
v 0.00629320188 -0.00777145412 0.011999996
v 0.00642787888 -0.00766044612 0.009999998
v 0.00642787888 -0.00766044612 0.011999996
v 0.00627197288 0.00474491088 0.009999998
v 0.00625595088 0.00473432588 0.011999996
v 0.00649949988 0.00494977988 0.009999998
v 0.00628778488 0.00475578288 0.011999996
v 0.00636392588 0.00649949988 0.009999998
v 0.00649949988 0.00636392588 0.011999996
v 0.00625595088 0.00657939888 0.009999998
v 0.00634910588 0.00651170688 0.011999996
v 0.00642787888 0.00766044588 0.009999998
v 0.00642787888 0.00766044588 0.011999996
v 0.00629320188 0.00777145388 0.009999998
v 0.00629320188 0.00777145388 0.011999996
v 0.00656059288 -0.00754709212 0.009999998
v 0.00656059288 -0.00754709212 0.011999996
v 0.00669130288 -0.00743145012 0.009999998
v 0.00669130288 -0.00743145012 0.011999996
v 0.00653535888 0.00499484988 0.009999998
v 0.00651170688 0.00496459988 0.011999996
v 0.00667674988 0.00524478888 0.009999998
v 0.00654676388 0.00501029988 0.011999996
v 0.00674331688 0.00548477188 0.009999998
v 0.00668378788 0.00526264188 0.011999996
v 0.00674865688 0.00552280388 0.009999998
v 0.00674615888 0.00550376888 0.011999996
v 0.00670301388 0.00599677988 0.009999998
v 0.00674865688 0.00579090088 0.011999996
v 0.00658969888 0.00623975788 0.009999998
v 0.00669692988 0.00601497688 0.011999996
v 0.00651170688 0.00634910588 0.009999998
v 0.00657939888 0.00625595088 0.011999996
v 0.00669130288 0.00743144988 0.009999998
v 0.00669130288 0.00743144988 0.011999996
v 0.00656059288 0.00754709288 0.009999998
v 0.00656059288 0.00754709288 0.011999996
v 0.00681999188 -0.00731353712 0.009999998
v 0.00681999188 -0.00731353712 0.011999996
v 0.00694658288 -0.00719339412 0.009999998
v 0.00694658288 -0.00719339412 0.011999996
v 0.00675416988 0.00573358488 0.009999998
v 0.00675083188 0.00554187788 0.011999996
v 0.00675083188 0.00577182788 0.009999998
v 0.00675266288 0.00575271588 0.011999996
v 0.00694658288 0.00719339388 0.009999998
v 0.00694658288 0.00719339388 0.011999996
v 0.00681999188 0.00731353788 0.009999998
v 0.00681999188 0.00731353788 0.011999996
v 0.00707107588 -0.00707107512 0.009999998
v 0.00707107588 -0.00707107512 0.011999996
v 0.00719339388 -0.00694658312 0.009999998
v 0.00719339388 -0.00694658312 0.011999996
v 0.00719339388 0.00694658288 0.009999998
v 0.00719339388 0.00694658288 0.011999996
v 0.00707107588 0.00707107588 0.009999998
v 0.00707107588 0.00707107588 0.011999996
v 0.00731353788 -0.00681999212 0.009999998
v 0.00731353788 -0.00681999212 0.011999996
v 0.00743144988 -0.00669130312 0.009999998
v 0.00743144988 -0.00669130312 0.011999996
v 0.00743144988 0.00669130288 0.009999998
v 0.00743144988 0.00669130288 0.011999996
v 0.00731353788 0.00681999188 0.009999998
v 0.00731353788 0.00681999188 0.011999996
v 0.00754709288 -0.00656059312 0.009999998
v 0.00754709288 -0.00656059312 0.011999996
v 0.00766044588 -0.00642787912 0.009999998
v 0.00766044588 -0.00642787912 0.011999996
v 0.00766044588 0.00642787888 0.009999998
v 0.00766044588 0.00642787888 0.011999996
v 0.00754709288 0.00656059288 0.009999998
v 0.00754709288 0.00656059288 0.011999996
v 0.00777145388 -0.00629320112 0.009999998
v 0.00777145388 -0.00629320112 0.011999996
v 0.00788011588 -0.00615661612 0.009999998
v 0.00798635488 -0.00601814312 0.011999996
v 0.00798635488 0.00601814288 0.009999998
v 0.00788011588 0.00615661588 0.011999996
v 0.00777145388 0.00629320188 0.009999998
v 0.00777145388 0.00629320188 0.011999996
v 0.00809017188 -0.00587785712 0.009999998
v 0.00809017188 -0.00587785712 0.011999996
v 0.00819152788 -0.00573576012 0.009999998
v 0.00819152788 -0.00573576012 0.011999996
v 0.00819152788 0.00573575988 0.009999998
v 0.00819152788 0.00573575988 0.011999996
v 0.00809017188 0.00587785688 0.009999998
v 0.00809017188 0.00587785688 0.011999996
v 0.00829036688 -0.00559192612 0.009999998
v 0.00829036688 -0.00559192612 0.011999996
v 0.00838670688 -0.00544639612 0.009999998
v 0.00848047288 -0.00529918712 0.011999996
v 0.00848047288 0.00529918688 0.009999998
v 0.00838670688 0.00544639588 0.011999996
v 0.00829036688 0.00559192688 0.009999998
v 0.00829036688 0.00559192688 0.011999996
v 0.00857168188 -0.00515037512 0.009999998
v 0.00866025888 -0.00500000012 0.011999996
v 0.00874620388 -0.00484809912 0.009999998
v 0.00874620388 -0.00484809912 0.011999996
v 0.00874620388 0.00484809888 0.009999998
v 0.00866025888 0.00499999988 0.011999996
v 0.00857168188 0.00515037488 0.009999998
v 0.00857168188 0.00515037488 0.011999996
v 0.00882947888 -0.00469471012 0.009999998
v 0.00891006488 -0.00453990912 0.011999996
v 0.00898794188 -0.00438371612 0.009999998
v 0.00898794188 -0.00438371612 0.011999996
v 0.00898794188 0.00438371688 0.009999998
v 0.00898794188 0.00438371688 0.011999996
v 0.00891006488 0.00453990888 0.009999998
v 0.00882947888 0.00469470988 0.011999996
v 0.00906307188 -0.00422618912 0.009999998
v 0.00913545588 -0.00406736412 0.011999996
v 0.00920505488 -0.00390731812 0.009999998
v 0.00920505488 -0.00390731812 0.011999996
v 0.00920505488 0.00390731788 0.009999998
v 0.00920505488 0.00390731788 0.011999996
v 0.00913545588 0.00406736388 0.009999998
v 0.00906307188 0.00422618888 0.011999996
v 0.00927183188 -0.00374607112 0.009999998
v 0.00933580388 -0.00358367912 0.011999996
v 0.00939693488 -0.00342020012 0.009999998
v 0.00945518488 -0.00325567212 0.011999996
v 0.00945518488 0.00325567288 0.009999998
v 0.00939693488 0.00342019988 0.011999996
v 0.00933580388 0.00358367888 0.009999998
v 0.00927183188 0.00374607088 0.011999996
v 0.00951057388 -0.00309017212 0.009999998
v 0.00951057388 -0.00309017212 0.011999996
v 0.00956304588 -0.00292371712 0.009999998
v 0.00961261788 -0.00275636712 0.011999996
v 0.00965925188 -0.00258819612 0.009999998
v 0.00965925188 -0.00258819612 0.011999996
v 0.00970294988 -0.00241922412 0.009999998
v 0.00970294988 -0.00241922412 0.011999996
v 0.00974370988 -0.00224950812 0.009999998
v 0.00974370988 -0.00224950812 0.011999996
v 0.00974370988 0.00224950788 0.009999998
v 0.00974370988 0.00224950788 0.011999996
v 0.00970294988 0.00241922388 0.009999998
v 0.00970294988 0.00241922388 0.011999996
v 0.00965925188 0.00258819588 0.009999998
v 0.00965925188 0.00258819588 0.011999996
v 0.00961261788 0.00275636688 0.009999998
v 0.00956304588 0.00292371788 0.011999996
v 0.00951057388 0.00309017188 0.009999998
v 0.00951057388 0.00309017188 0.011999996
v 0.00978147488 -0.00207912412 0.009999998
v 0.00978147488 -0.00207912412 0.011999996
v 0.00981626488 -0.00190809212 0.009999998
v 0.00981626488 -0.00190809212 0.011999996
v 0.00984807988 -0.00173648812 0.009999998
v 0.00987688088 -0.00156435012 0.011999996
v 0.00990268688 -0.00139173512 0.009999998
v 0.00990268688 -0.00139173512 0.011999996
v 0.00992546088 -0.00121870012 0.009999998
v 0.00994522088 -0.00104528412 0.011999996
v 0.00996194788 -0.000871563119 0.009999998
v 0.00996194788 -0.000871563119 0.011999996
v 0.00997564288 -0.000697555119 0.009999998
v 0.00998628588 -0.000523357119 0.011999996
v 0.00999391588 -0.000348987119 0.009999998
v 0.00999391588 -0.000348987119 0.011999996
v 0.00999847388 -0.000174522119 0.009999998
v 0.00999999988 -1.18654614e-10 0.011999996
v 0.00999847388 0.000174522881 0.009999998
v 0.00999847388 0.000174522881 0.011999996
v 0.00999391588 0.000348987881 0.009999998
v 0.00999391588 0.000348987881 0.011999996
v 0.00998628588 0.000523356881 0.009999998
v 0.00997564288 0.000697555881 0.011999996
v 0.00996194788 0.000871562881 0.009999998
v 0.00996194788 0.000871562881 0.011999996
v 0.00994522088 0.00104528388 0.009999998
v 0.00992546088 0.00121870088 0.011999996
v 0.00990268688 0.00139173488 0.009999998
v 0.00990268688 0.00139173488 0.011999996
v 0.00987688088 0.00156434988 0.009999998
v 0.00984807988 0.00173648788 0.011999996
v 0.00981626488 0.00190809288 0.009999998
v 0.00981626488 0.00190809288 0.011999996
v 0.00978147488 0.00207912488 0.009999998
v 0.00978147488 0.00207912488 0.011999996
f 1 20 2
f 1 2 21
f 19 20 1
f 1 329 19
f 21 329 1
f 20 348 2
f 21 2 22
f 2 348 22
f 3 4 5
f 3 48 4
f 5 181 3
f 47 48 3
f 3 181 47
f 5 4 6
f 4 348 6
f 48 348 4
f 5 6 7
f 7 181 5
f 7 6 8
f 6 348 8
f 7 8 9
f 9 181 7
f 9 8 10
f 8 348 10
f 9 10 11
f 11 181 9
f 11 10 12
f 10 348 12
f 11 12 13
f 13 329 11
f 11 329 181
f 13 12 14
f 12 348 14
f 13 14 15
f 15 329 13
f 15 14 16
f 14 348 16
f 15 16 17
f 17 329 15
f 17 16 18
f 16 348 18
f 17 18 19
f 19 329 17
f 19 18 20
f 18 348 20
f 21 22 23
f 23 329 21
f 23 22 24
f 22 348 24
f 23 24 25
f 25 329 23
f 25 24 26
f 24 348 26
f 25 26 27
f 27 329 25
f 27 26 28
f 26 348 28
f 27 28 29
f 29 329 27
f 29 28 30
f 28 348 30
f 29 30 31
f 31 329 29
f 31 30 32
f 30 348 32
f 31 32 33
f 33 329 31
f 33 32 34
f 32 348 34
f 33 34 35
f 35 331 33
f 33 331 329
f 35 34 36
f 34 348 36
f 35 36 37
f 37 331 35
f 37 36 38
f 36 348 38
f 37 38 49
f 49 331 37
f 49 38 50
f 38 348 50
f 39 40 41
f 39 62 40
f 41 181 39
f 61 62 39
f 39 181 61
f 41 40 42
f 40 348 42
f 62 348 40
f 41 42 43
f 43 181 41
f 43 42 44
f 42 348 44
f 43 44 45
f 45 181 43
f 45 44 46
f 44 348 46
f 45 46 47
f 47 181 45
f 47 46 48
f 46 348 48
f 49 50 51
f 51 331 49
f 51 50 52
f 50 348 52
f 51 52 53
f 53 331 51
f 53 52 54
f 52 348 54
f 53 54 55
f 55 331 53
f 55 54 56
f 54 348 56
f 55 56 57
f 57 331 55
f 57 56 58
f 56 348 58
f 57 58 63
f 63 331 57
f 63 58 64
f 58 348 64
f 59 60 61
f 59 70 60
f 61 181 59
f 69 70 59
f 59 181 69
f 61 60 62
f 60 348 62
f 70 348 60
f 63 64 65
f 65 333 63
f 63 333 331
f 65 64 66
f 64 348 66
f 65 66 71
f 71 333 65
f 71 66 72
f 66 348 72
f 67 68 69
f 67 78 68
f 69 181 67
f 77 78 67
f 181 77 67
f 69 68 70
f 68 348 70
f 78 348 68
f 71 72 73
f 73 333 71
f 73 72 74
f 72 348 74
f 73 74 79
f 79 333 73
f 79 74 80
f 74 348 80
f 75 76 77
f 75 86 76
f 181 75 77
f 85 86 75
f 75 167 85
f 181 167 75
f 77 76 78
f 76 348 78
f 86 348 76
f 79 80 81
f 81 333 79
f 81 80 82
f 80 348 82
f 81 82 87
f 87 333 81
f 87 82 88
f 82 348 88
f 83 84 85
f 83 94 84
f 85 165 83
f 93 94 83
f 83 165 93
f 85 84 86
f 84 348 86
f 94 348 84
f 167 165 85
f 87 88 89
f 89 335 87
f 87 335 333
f 89 88 90
f 88 348 90
f 89 90 95
f 95 335 89
f 95 90 96
f 90 348 96
f 91 92 93
f 91 102 92
f 93 163 91
f 101 102 91
f 91 163 101
f 93 92 94
f 92 348 94
f 102 348 92
f 93 165 163
f 95 96 97
f 97 345 95
f 95 345 335
f 97 96 98
f 96 348 98
f 97 98 103
f 103 345 97
f 103 98 104
f 98 348 104
f 99 100 101
f 99 110 100
f 101 163 99
f 109 110 99
f 99 145 109
f 161 145 99
f 99 163 161
f 101 100 102
f 100 348 102
f 110 146 100
f 146 162 100
f 100 162 164
f 164 166 100
f 166 168 100
f 168 182 100
f 182 334 100
f 100 334 336
f 100 336 346
f 100 346 348
f 103 104 105
f 105 345 103
f 105 104 106
f 104 348 106
f 105 106 111
f 111 345 105
f 111 106 112
f 106 348 112
f 107 108 109
f 107 118 108
f 109 143 107
f 117 118 107
f 107 159 117
f 107 143 159
f 109 108 110
f 108 144 110
f 118 160 108
f 160 144 108
f 109 145 143
f 110 144 146
f 111 112 113
f 113 345 111
f 113 112 114
f 112 348 114
f 113 114 119
f 119 345 113
f 119 114 120
f 114 348 120
f 115 116 117
f 115 126 116
f 117 159 115
f 125 126 115
f 115 157 125
f 115 159 157
f 117 116 118
f 116 160 118
f 126 158 116
f 158 160 116
f 119 120 121
f 121 345 119
f 121 120 122
f 120 348 122
f 121 122 127
f 127 347 121
f 121 347 345
f 127 122 128
f 122 348 128
f 123 124 125
f 123 134 124
f 125 157 123
f 133 134 123
f 123 155 133
f 157 155 123
f 125 124 126
f 124 158 126
f 134 156 124
f 124 156 158
f 127 128 129
f 129 347 127
f 129 128 130
f 128 348 130
f 129 130 135
f 135 347 129
f 135 130 136
f 130 348 136
f 131 132 133
f 131 142 132
f 133 179 131
f 141 142 131
f 131 179 141
f 133 132 134
f 132 180 134
f 142 180 132
f 133 155 179
f 180 156 134
f 135 136 137
f 137 347 135
f 137 136 138
f 136 348 138
f 137 138 147
f 147 347 137
f 147 138 148
f 138 348 148
f 139 140 141
f 139 154 140
f 141 177 139
f 153 154 139
f 139 191 153
f 139 177 191
f 141 140 142
f 140 178 142
f 154 192 140
f 192 178 140
f 179 177 141
f 142 178 180
f 143 146 144
f 143 144 159
f 145 146 143
f 159 144 160
f 145 162 146
f 161 162 145
f 147 148 149
f 149 347 147
f 149 148 150
f 148 348 150
f 149 150 169
f 169 347 149
f 169 150 170
f 150 348 170
f 151 152 153
f 151 176 152
f 153 191 151
f 175 176 151
f 151 201 175
f 191 201 151
f 153 152 154
f 152 192 154
f 176 202 152
f 152 202 192
f 155 158 156
f 155 156 179
f 157 158 155
f 179 156 180
f 157 160 158
f 159 160 157
f 161 164 162
f 163 164 161
f 163 166 164
f 165 166 163
f 165 168 166
f 167 168 165
f 167 182 168
f 181 182 167
f 169 170 171
f 171 347 169
f 171 170 172
f 170 348 172
f 171 172 185
f 185 347 171
f 185 172 186
f 172 358 186
f 172 348 358
f 173 174 175
f 173 190 174
f 175 201 173
f 189 190 173
f 173 199 189
f 201 199 173
f 175 174 176
f 174 202 176
f 190 200 174
f 174 200 202
f 177 180 178
f 177 178 191
f 179 180 177
f 191 178 192
f 181 184 182
f 183 184 181
f 329 183 181
f 182 184 330
f 182 330 332
f 182 332 334
f 183 194 184
f 193 194 183
f 329 193 183
f 330 184 194
f 185 186 187
f 187 347 185
f 187 186 188
f 186 358 188
f 187 188 195
f 195 347 187
f 195 188 196
f 188 358 196
f 189 198 190
f 197 198 189
f 189 211 197
f 189 199 211
f 198 212 190
f 190 212 200
f 191 192 201
f 201 192 202
f 193 204 194
f 203 204 193
f 203 193 329
f 330 194 204
f 195 196 205
f 205 347 195
f 205 196 206
f 196 358 206
f 197 210 198
f 209 210 197
f 197 427 209
f 211 213 197
f 197 213 223
f 223 231 197
f 231 241 197
f 241 243 197
f 243 407 197
f 197 407 415
f 197 415 417
f 197 417 427
f 210 224 198
f 214 212 198
f 198 224 214
f 199 202 200
f 199 200 211
f 201 202 199
f 211 200 212
f 203 216 204
f 215 216 203
f 327 215 203
f 327 203 329
f 328 204 216
f 330 204 328
f 205 206 217
f 217 347 205
f 217 206 218
f 206 358 218
f 207 208 209
f 207 222 208
f 209 427 207
f 221 222 207
f 207 427 221
f 209 208 210
f 208 224 210
f 222 224 208
f 211 212 213
f 213 212 214
f 213 214 223
f 223 214 224
f 215 226 216
f 225 226 215
f 325 225 215
f 325 215 327
f 326 216 226
f 328 216 326
f 217 218 219
f 219 347 217
f 219 218 220
f 218 358 220
f 219 220 227
f 227 347 219
f 227 220 228
f 220 358 228
f 221 230 222
f 229 230 221
f 221 427 229
f 222 232 224
f 230 232 222
f 223 224 231
f 231 224 232
f 225 236 226
f 235 236 225
f 323 235 225
f 323 225 325
f 324 226 236
f 326 226 324
f 227 228 237
f 237 347 227
f 237 228 238
f 228 358 238
f 229 240 230
f 239 240 229
f 229 427 239
f 240 232 230
f 231 232 241
f 242 232 240
f 241 232 242
f 233 234 235
f 233 248 234
f 343 233 235
f 247 248 233
f 343 247 233
f 235 234 236
f 344 236 234
f 344 234 248
f 321 235 323
f 343 235 321
f 324 236 322
f 322 236 344
f 237 238 249
f 249 347 237
f 249 238 250
f 238 358 250
f 239 252 240
f 251 252 239
f 239 427 251
f 252 242 240
f 241 242 243
f 243 242 244
f 244 242 252
f 243 244 253
f 243 253 391
f 243 391 399
f 243 399 407
f 244 252 268
f 253 244 254
f 392 254 244
f 244 268 272
f 276 244 272
f 280 244 276
f 284 244 280
f 288 244 284
f 292 244 288
f 296 244 292
f 300 244 296
f 306 244 300
f 304 244 306
f 312 244 304
f 316 244 312
f 320 244 316
f 340 244 320
f 340 392 244
f 245 246 247
f 245 264 246
f 355 245 247
f 263 264 245
f 355 263 245
f 247 246 248
f 356 248 246
f 356 246 264
f 341 247 343
f 355 247 341
f 344 248 342
f 342 248 356
f 249 250 265
f 265 347 249
f 265 250 266
f 250 358 266
f 251 268 252
f 267 268 251
f 251 427 267
f 253 254 255
f 391 253 255
f 255 254 256
f 392 256 254
f 255 256 257
f 391 255 257
f 257 256 258
f 258 256 392
f 257 258 259
f 383 257 259
f 391 257 383
f 259 258 260
f 384 260 258
f 384 258 392
f 259 260 261
f 373 259 261
f 383 259 373
f 261 260 262
f 374 262 260
f 374 260 384
f 261 262 263
f 365 261 263
f 373 261 365
f 263 262 264
f 366 264 262
f 366 262 374
f 353 263 355
f 365 263 353
f 356 264 354
f 354 264 366
f 265 266 269
f 269 347 265
f 269 266 270
f 266 358 270
f 267 272 268
f 271 272 267
f 267 427 271
f 269 270 273
f 273 347 269
f 273 270 274
f 270 358 274
f 271 276 272
f 275 276 271
f 271 707 275
f 271 427 707
f 273 274 277
f 277 347 273
f 277 274 278
f 274 358 278
f 275 280 276
f 279 280 275
f 275 705 279
f 275 707 705
f 277 278 281
f 281 347 277
f 281 278 282
f 278 358 282
f 279 284 280
f 283 284 279
f 279 715 283
f 279 705 715
f 281 282 285
f 285 347 281
f 285 282 286
f 282 358 286
f 283 288 284
f 287 288 283
f 283 713 287
f 283 715 713
f 285 286 289
f 289 347 285
f 289 286 290
f 286 358 290
f 287 292 288
f 291 292 287
f 287 735 291
f 287 713 735
f 289 290 293
f 293 347 289
f 293 290 294
f 290 358 294
f 291 296 292
f 295 296 291
f 291 733 295
f 291 735 733
f 293 294 297
f 297 347 293
f 297 294 298
f 294 358 298
f 295 300 296
f 299 300 295
f 295 731 299
f 295 733 731
f 297 298 301
f 301 347 297
f 301 298 302
f 298 358 302
f 299 306 300
f 305 306 299
f 299 729 305
f 299 731 729
f 301 302 307
f 307 347 301
f 307 302 308
f 302 358 308
f 303 304 305
f 303 312 304
f 305 727 303
f 311 312 303
f 303 771 311
f 303 727 771
f 305 304 306
f 305 729 727
f 307 308 309
f 309 347 307
f 309 308 310
f 308 358 310
f 309 310 313
f 313 347 309
f 313 310 314
f 310 358 314
f 311 316 312
f 315 316 311
f 311 769 315
f 311 771 769
f 313 314 317
f 317 347 313
f 317 314 318
f 314 358 318
f 315 320 316
f 319 320 315
f 315 767 319
f 315 769 767
f 317 318 337
f 337 347 317
f 337 318 338
f 318 358 338
f 319 340 320
f 339 340 319
f 319 765 339
f 319 767 765
f 321 324 322
f 321 322 343
f 323 324 321
f 343 322 344
f 323 326 324
f 325 326 323
f 325 328 326
f 327 328 325
f 327 330 328
f 329 330 327
f 329 332 330
f 331 332 329
f 331 334 332
f 333 334 331
f 333 336 334
f 335 336 333
f 335 346 336
f 345 346 335
f 337 338 349
f 349 347 337
f 349 338 350
f 338 358 350
f 339 352 340
f 351 352 339
f 339 763 351
f 339 765 763
f 352 392 340
f 341 344 342
f 341 342 355
f 343 344 341
f 355 342 356
f 345 348 346
f 347 348 345
f 347 358 348
f 361 347 349
f 357 358 347
f 357 347 577
f 369 347 361
f 377 347 369
f 387 347 377
f 395 347 387
f 403 347 395
f 411 347 403
f 423 347 411
f 435 347 423
f 455 347 435
f 459 347 455
f 463 347 459
f 471 347 463
f 469 347 471
f 475 347 469
f 479 347 475
f 483 347 479
f 487 347 483
f 491 347 487
f 495 347 491
f 499 347 495
f 503 347 499
f 507 347 503
f 523 347 507
f 535 347 523
f 545 347 535
f 553 347 545
f 567 347 553
f 565 347 567
f 577 347 565
f 349 350 361
f 350 358 362
f 361 350 362
f 351 364 352
f 363 364 351
f 351 761 363
f 351 763 761
f 364 392 352
f 353 356 354
f 353 354 365
f 355 356 353
f 365 354 366
f 357 360 358
f 359 360 357
f 577 359 357
f 586 358 360
f 362 358 370
f 370 358 378
f 378 358 388
f 388 358 396
f 396 358 404
f 404 358 412
f 412 358 424
f 424 358 436
f 436 358 456
f 456 358 460
f 460 358 464
f 464 358 472
f 472 358 470
f 470 358 476
f 476 358 480
f 480 358 484
f 484 358 488
f 488 358 492
f 492 358 496
f 496 358 500
f 500 358 504
f 504 358 508
f 508 358 524
f 524 358 536
f 536 358 546
f 546 358 554
f 554 358 568
f 568 358 566
f 566 358 578
f 578 358 586
f 359 368 360
f 367 368 359
f 367 359 577
f 360 368 586
f 361 362 369
f 369 362 370
f 363 372 364
f 371 372 363
f 363 759 371
f 363 761 759
f 372 392 364
f 365 366 373
f 373 366 374
f 367 376 368
f 375 376 367
f 375 367 531
f 531 367 577
f 586 368 376
f 369 370 377
f 377 370 378
f 371 382 372
f 381 382 371
f 371 757 381
f 371 759 757
f 382 392 372
f 373 374 383
f 383 374 384
f 375 386 376
f 385 386 375
f 531 385 375
f 586 376 386
f 377 378 387
f 387 378 388
f 379 380 381
f 379 390 380
f 381 755 379
f 389 390 379
f 379 753 389
f 379 755 753
f 381 380 382
f 380 392 382
f 390 392 380
f 381 757 755
f 383 384 391
f 391 384 392
f 385 394 386
f 393 394 385
f 519 393 385
f 519 385 521
f 521 385 531
f 394 520 386
f 386 520 522
f 386 522 532
f 532 586 386
f 387 388 395
f 395 388 396
f 389 398 390
f 397 398 389
f 389 753 397
f 398 392 390
f 391 392 399
f 406 392 398
f 399 392 400
f 458 400 392
f 414 392 406
f 426 392 414
f 438 392 426
f 458 392 438
f 393 402 394
f 401 402 393
f 517 401 393
f 517 393 519
f 402 518 394
f 394 518 520
f 395 396 403
f 403 396 404
f 397 406 398
f 405 406 397
f 397 751 405
f 397 753 751
f 399 400 407
f 407 400 408
f 490 408 400
f 462 400 458
f 466 400 462
f 468 400 466
f 474 400 468
f 478 400 474
f 482 400 478
f 486 400 482
f 490 400 486
f 401 410 402
f 409 410 401
f 513 409 401
f 513 401 515
f 515 401 517
f 410 514 402
f 402 514 516
f 402 516 518
f 403 404 411
f 411 404 412
f 405 414 406
f 413 414 405
f 405 749 413
f 405 751 749
f 407 408 415
f 415 408 416
f 526 416 408
f 494 408 490
f 498 408 494
f 502 408 498
f 506 408 502
f 510 408 506
f 526 408 510
f 409 422 410
f 421 422 409
f 511 421 409
f 511 409 513
f 422 512 410
f 410 512 514
f 411 412 423
f 423 412 424
f 413 426 414
f 425 426 413
f 413 747 425
f 413 749 747
f 415 416 417
f 417 416 418
f 548 418 416
f 538 416 526
f 548 416 538
f 417 418 427
f 427 418 428
f 604 428 418
f 556 418 548
f 558 418 556
f 570 418 558
f 580 418 570
f 588 418 580
f 590 418 588
f 604 418 590
f 419 420 421
f 419 434 420
f 511 419 421
f 433 434 419
f 527 433 419
f 529 419 511
f 527 419 529
f 421 420 422
f 420 512 422
f 434 528 420
f 420 530 512
f 420 528 530
f 423 424 435
f 435 424 436
f 425 438 426
f 437 438 425
f 425 745 437
f 425 747 745
f 427 428 429
f 427 429 707
f 429 428 430
f 430 428 676
f 606 428 604
f 626 428 606
f 628 428 626
f 638 428 628
f 640 428 638
f 646 428 640
f 648 428 646
f 654 428 648
f 656 428 654
f 662 428 656
f 664 428 662
f 670 428 664
f 672 428 670
f 678 428 672
f 676 428 674
f 674 428 684
f 680 428 678
f 686 428 680
f 684 428 682
f 682 428 692
f 688 428 686
f 694 428 688
f 692 428 690
f 690 428 700
f 696 428 694
f 702 428 696
f 700 428 698
f 698 428 708
f 704 428 702
f 710 428 704
f 708 428 706
f 706 428 716
f 712 428 710
f 718 428 712
f 716 428 714
f 714 428 736
f 720 428 718
f 722 428 720
f 724 428 722
f 726 428 724
f 738 428 726
f 730 428 728
f 728 428 772
f 732 428 730
f 734 428 732
f 736 428 734
f 740 428 738
f 742 428 740
f 744 428 742
f 746 428 744
f 748 428 746
f 750 428 748
f 752 428 750
f 754 428 752
f 756 428 754
f 758 428 756
f 760 428 758
f 762 428 760
f 764 428 762
f 766 428 764
f 768 428 766
f 770 428 768
f 772 428 770
f 429 430 439
f 707 429 439
f 439 430 440
f 676 440 430
f 431 432 433
f 431 454 432
f 433 527 431
f 453 454 431
f 431 539 453
f 431 527 541
f 431 541 539
f 433 432 434
f 432 528 434
f 454 540 432
f 432 542 528
f 432 540 542
f 435 436 455
f 455 436 456
f 437 458 438
f 457 458 437
f 437 743 457
f 437 745 743
f 439 440 441
f 439 441 707
f 441 440 442
f 442 440 676
f 441 442 443
f 707 441 443
f 443 442 444
f 666 444 442
f 666 442 676
f 443 444 445
f 707 443 445
f 445 444 446
f 666 446 444
f 445 446 447
f 447 581 445
f 581 591 445
f 445 591 593
f 445 593 707
f 447 446 448
f 446 582 448
f 446 592 582
f 446 594 592
f 666 594 446
f 447 448 449
f 449 571 447
f 447 571 581
f 449 448 450
f 448 572 450
f 448 582 572
f 449 450 451
f 451 549 449
f 449 549 559
f 449 559 571
f 451 450 452
f 450 550 452
f 450 560 550
f 450 572 560
f 451 452 453
f 453 539 451
f 451 539 549
f 453 452 454
f 452 540 454
f 452 550 540
f 455 456 459
f 459 456 460
f 457 462 458
f 461 462 457
f 457 741 461
f 457 743 741
f 459 460 463
f 463 460 464
f 461 466 462
f 465 466 461
f 461 739 465
f 461 741 739
f 463 464 471
f 471 464 472
f 465 468 466
f 467 468 465
f 465 737 467
f 465 739 737
f 467 474 468
f 473 474 467
f 467 725 473
f 467 737 725
f 469 472 470
f 469 470 475
f 471 472 469
f 475 470 476
f 473 478 474
f 477 478 473
f 473 723 477
f 473 725 723
f 475 476 479
f 479 476 480
f 477 482 478
f 481 482 477
f 477 721 481
f 477 723 721
f 479 480 483
f 483 480 484
f 481 486 482
f 485 486 481
f 481 719 485
f 481 721 719
f 483 484 487
f 487 484 488
f 485 490 486
f 489 490 485
f 485 717 489
f 485 719 717
f 487 488 491
f 491 488 492
f 489 494 490
f 493 494 489
f 489 711 493
f 489 717 711
f 491 492 495
f 495 492 496
f 493 498 494
f 497 498 493
f 493 709 497
f 493 711 709
f 495 496 499
f 499 496 500
f 497 502 498
f 501 502 497
f 497 703 501
f 497 709 703
f 499 500 503
f 503 500 504
f 501 506 502
f 505 506 501
f 501 701 505
f 501 703 701
f 503 504 507
f 507 504 508
f 505 510 506
f 509 510 505
f 505 695 509
f 505 701 695
f 507 508 523
f 523 508 524
f 509 526 510
f 525 526 509
f 509 693 525
f 509 695 693
f 511 514 512
f 511 512 529
f 513 514 511
f 529 512 530
f 513 516 514
f 515 516 513
f 515 518 516
f 517 518 515
f 517 520 518
f 519 520 517
f 519 522 520
f 521 522 519
f 521 532 522
f 531 532 521
f 523 524 535
f 535 524 536
f 525 538 526
f 537 538 525
f 525 685 537
f 525 687 685
f 525 693 687
f 527 530 528
f 527 528 541
f 529 530 527
f 541 528 542
f 531 534 532
f 533 534 531
f 533 531 577
f 602 532 534
f 586 532 602
f 533 544 534
f 543 544 533
f 543 533 577
f 602 534 544
f 535 536 545
f 545 536 546
f 537 548 538
f 547 548 537
f 537 685 547
f 539 542 540
f 539 540 549
f 541 542 539
f 549 540 550
f 543 552 544
f 551 552 543
f 551 543 577
f 600 544 552
f 602 544 600
f 545 546 553
f 553 546 554
f 547 556 548
f 555 556 547
f 547 679 555
f 547 685 679
f 549 550 559
f 559 550 560
f 551 562 552
f 561 562 551
f 577 561 551
f 552 562 600
f 553 554 567
f 567 554 568
f 555 558 556
f 557 558 555
f 555 677 557
f 555 679 677
f 557 570 558
f 569 570 557
f 557 671 569
f 557 677 671
f 559 560 571
f 571 560 572
f 561 564 562
f 563 564 561
f 563 561 577
f 624 562 564
f 600 562 624
f 563 576 564
f 575 576 563
f 585 575 563
f 585 563 577
f 564 576 624
f 565 568 566
f 565 566 577
f 567 568 565
f 577 566 578
f 569 580 570
f 579 580 569
f 569 669 579
f 569 671 669
f 571 572 581
f 581 572 582
f 573 574 575
f 573 584 574
f 573 575 601
f 583 584 573
f 583 573 623
f 599 573 601
f 623 573 599
f 575 574 576
f 622 576 574
f 636 574 584
f 622 574 636
f 601 575 585
f 624 576 622
f 577 578 585
f 585 578 586
f 579 588 580
f 587 588 579
f 579 663 587
f 579 669 663
f 581 582 591
f 591 582 592
f 583 598 584
f 597 598 583
f 635 597 583
f 621 583 623
f 635 583 621
f 584 598 634
f 636 584 634
f 585 586 601
f 601 586 602
f 587 590 588
f 589 590 587
f 587 661 589
f 587 663 661
f 589 604 590
f 603 604 589
f 589 655 603
f 589 661 655
f 591 592 593
f 593 592 594
f 593 594 607
f 593 607 699
f 697 593 699
f 707 593 697
f 607 594 608
f 666 608 594
f 595 596 597
f 595 620 596
f 595 597 633
f 619 620 595
f 641 619 595
f 643 595 633
f 641 595 643
f 597 596 598
f 644 598 596
f 596 620 642
f 644 596 642
f 633 597 635
f 634 598 644
f 599 602 600
f 599 600 623
f 601 602 599
f 623 600 624
f 603 606 604
f 605 606 603
f 603 653 605
f 603 655 653
f 605 626 606
f 625 626 605
f 605 647 625
f 605 653 647
f 607 608 609
f 607 609 689
f 699 607 689
f 609 608 610
f 666 610 608
f 609 610 611
f 681 609 611
f 691 609 681
f 689 609 691
f 611 610 612
f 668 612 610
f 668 610 666
f 611 612 613
f 675 611 613
f 673 611 675
f 683 611 673
f 681 611 683
f 613 612 614
f 668 614 612
f 613 614 629
f 613 629 675
f 629 614 630
f 630 614 658
f 658 614 668
f 615 616 617
f 615 632 616
f 659 615 617
f 631 632 615
f 667 631 615
f 657 615 659
f 667 615 657
f 617 616 618
f 650 618 616
f 660 616 632
f 650 616 660
f 617 618 619
f 617 619 651
f 649 617 651
f 659 617 649
f 619 618 620
f 620 618 652
f 652 618 650
f 651 619 641
f 642 620 652
f 621 624 622
f 621 622 635
f 623 624 621
f 635 622 636
f 625 628 626
f 627 628 625
f 625 645 627
f 625 647 645
f 627 638 628
f 637 638 627
f 627 639 637
f 627 645 639
f 629 630 631
f 665 629 631
f 675 629 665
f 631 630 632
f 658 632 630
f 665 631 667
f 660 632 658
f 633 636 634
f 633 634 643
f 635 636 633
f 643 634 644
f 637 640 638
f 639 640 637
f 639 646 640
f 645 646 639
f 641 644 642
f 641 642 651
f 643 644 641
f 651 642 652
f 645 648 646
f 647 648 645
f 647 654 648
f 653 654 647
f 649 652 650
f 649 650 659
f 651 652 649
f 659 650 660
f 653 656 654
f 655 656 653
f 655 662 656
f 661 662 655
f 657 660 658
f 657 658 667
f 659 660 657
f 667 658 668
f 661 664 662
f 663 664 661
f 663 670 664
f 669 670 663
f 665 668 666
f 665 666 675
f 667 668 665
f 675 666 676
f 669 672 670
f 671 672 669
f 671 678 672
f 677 678 671
f 673 676 674
f 673 674 683
f 675 676 673
f 683 674 684
f 677 680 678
f 679 680 677
f 679 686 680
f 685 686 679
f 681 684 682
f 681 682 691
f 683 684 681
f 691 682 692
f 685 688 686
f 687 688 685
f 687 694 688
f 693 694 687
f 689 692 690
f 689 690 699
f 691 692 689
f 699 690 700
f 693 696 694
f 695 696 693
f 695 702 696
f 701 702 695
f 697 700 698
f 697 698 707
f 699 700 697
f 707 698 708
f 701 704 702
f 703 704 701
f 703 710 704
f 709 710 703
f 705 708 706
f 705 706 715
f 707 708 705
f 715 706 716
f 709 712 710
f 711 712 709
f 711 718 712
f 717 718 711
f 713 716 714
f 713 714 735
f 715 716 713
f 735 714 736
f 717 720 718
f 719 720 717
f 719 722 720
f 721 722 719
f 721 724 722
f 723 724 721
f 723 726 724
f 725 726 723
f 725 738 726
f 737 738 725
f 727 730 728
f 727 728 771
f 729 730 727
f 771 728 772
f 729 732 730
f 731 732 729
f 731 734 732
f 733 734 731
f 733 736 734
f 735 736 733
f 737 740 738
f 739 740 737
f 739 742 740
f 741 742 739
f 741 744 742
f 743 744 741
f 743 746 744
f 745 746 743
f 745 748 746
f 747 748 745
f 747 750 748
f 749 750 747
f 749 752 750
f 751 752 749
f 751 754 752
f 753 754 751
f 753 756 754
f 755 756 753
f 755 758 756
f 757 758 755
f 757 760 758
f 759 760 757
f 759 762 760
f 761 762 759
f 761 764 762
f 763 764 761
f 763 766 764
f 765 766 763
f 765 768 766
f 767 768 765
f 767 770 768
f 769 770 767
f 769 772 770
f 771 772 769
