# CAD visual only; metres; body-local coordinates
v -0.1225 -0.0145000005 0.00959999979
v -0.1225 -0.0145000005 0.00800000012
v -0.0675 -0.0145000005 0.00800000012
v -0.0675 -0.0145000005 0.00959999979
v -0.0675 0.0145000005 0.00959999979
v -0.0675 0.0145000005 0.00800000012
v -0.1225 0.0145000005 0.00800000012
v -0.1225 0.0145000005 0.00959999979
v -0.0675 0.0145000005 0.00800000012
v -0.0675 -0.0145000005 0.00800000012
v -0.1225 -0.0145000005 0.00800000012
v -0.1225 0.0145000005 0.00800000012
v -0.0675 -0.0145000005 0.00959999979
v -0.0675 0.0145000005 0.00959999979
v -0.1225 0.0145000005 0.00959999979
v -0.1225 -0.0145000005 0.00959999979
v -0.0675 -0.0145000005 0.00959999979
v -0.0675 -0.0145000005 0.00800000012
v -0.0675 0.0145000005 0.00800000012
v -0.0675 0.0145000005 0.00959999979
v -0.1225 0.0145000005 0.00959999979
v -0.1225 0.0145000005 0.00800000012
v -0.1225 -0.0145000005 0.00800000012
v -0.1225 -0.0145000005 0.00959999979
v -0.0989999962 0.01 0.0125999999
v -0.0989999962 0.01 0.00959999979
v -0.118999996 0.01 0.00959999979
v -0.118999996 0.01 0.0125999999
v -0.118999996 -0.01 0.0125999999
v -0.118999996 -0.01 0.00959999979
v -0.0989999962 -0.01 0.00959999979
v -0.0989999962 -0.01 0.0125999999
v -0.118999996 0.01 0.0125999999
v -0.118999996 0.01 0.00959999979
v -0.118999996 -0.01 0.00959999979
v -0.118999996 -0.01 0.0125999999
v -0.0989999962 -0.01 0.0125999999
v -0.0989999962 -0.01 0.00959999979
v -0.0989999962 0.01 0.00959999979
v -0.0989999962 0.01 0.0125999999
v -0.0989999962 0.01 0.00959999979
v -0.0989999962 -0.01 0.00959999979
v -0.118999996 -0.01 0.00959999979
v -0.118999996 0.01 0.00959999979
v -0.0989999962 -0.01 0.0125999999
v -0.0989999962 0.01 0.0125999999
v -0.118999996 0.01 0.0125999999
v -0.118999996 -0.01 0.0125999999
v -0.0719999981 -0.01125 0.025
v -0.0719999981 -0.01125 0.00959999979
v -0.118000002 -0.01125 0.00959999979
v -0.118000002 -0.01125 0.025
v -0.118000002 -0.01125 0.025
v -0.118000002 -0.01125 0.00959999979
v -0.118000002 -0.01375 0.00959999979
v -0.118000002 -0.01375 0.025
v -0.0719999981 -0.01125 0.00959999979
v -0.0719999981 -0.01375 0.00959999979
v -0.118000002 -0.01375 0.00959999979
v -0.118000002 -0.01125 0.00959999979
v -0.0719999981 -0.01375 0.025
v -0.0719999981 -0.01375 0.00959999979
v -0.0719999981 -0.01125 0.00959999979
v -0.0719999981 -0.01125 0.025
v -0.118000002 -0.01375 0.025
v -0.118000002 -0.01375 0.00959999979
v -0.0719999981 -0.01375 0.00959999979
v -0.0719999981 -0.01375 0.025
v -0.0719999981 -0.01375 0.025
v -0.0719999981 -0.01125 0.025
v -0.118000002 -0.01125 0.025
v -0.118000002 -0.01375 0.025
v -0.0719999981 0.01375 0.025
v -0.0719999981 0.01375 0.00959999979
v -0.118000002 0.01375 0.00959999979
v -0.118000002 0.01375 0.025
v -0.118000002 0.01375 0.025
v -0.118000002 0.01375 0.00959999979
v -0.118000002 0.01125 0.00959999979
v -0.118000002 0.01125 0.025
v -0.0719999981 0.01375 0.00959999979
v -0.0719999981 0.01125 0.00959999979
v -0.118000002 0.01125 0.00959999979
v -0.118000002 0.01375 0.00959999979
v -0.0719999981 0.01125 0.025
v -0.0719999981 0.01125 0.00959999979
v -0.0719999981 0.01375 0.00959999979
v -0.0719999981 0.01375 0.025
v -0.118000002 0.01125 0.025
v -0.118000002 0.01125 0.00959999979
v -0.0719999981 0.01125 0.00959999979
v -0.0719999981 0.01125 0.025
v -0.0719999981 0.01125 0.025
v -0.0719999981 0.01375 0.025
v -0.118000002 0.01375 0.025
v -0.118000002 0.01125 0.025
v -0.069000001 -0.00449999988 0.0129999995
v -0.069000001 -0.00449999988 0.00959999979
v -0.065 -0.00449999988 0.00959999979
v -0.065 -0.00449999988 0.0129999995
v -0.069000001 0.00449999988 0.0129999995
v -0.069000001 0.00449999988 0.00959999979
v -0.069000001 -0.00449999988 0.00959999979
v -0.069000001 -0.00449999988 0.0129999995
v -0.065 0.00449999988 0.00959999979
v -0.065 -0.00449999988 0.00959999979
v -0.069000001 -0.00449999988 0.00959999979
v -0.069000001 0.00449999988 0.00959999979
v -0.065 -0.00449999988 0.0129999995
v -0.065 0.00449999988 0.0129999995
v -0.069000001 0.00449999988 0.0129999995
v -0.069000001 -0.00449999988 0.0129999995
v -0.065 0.00449999988 0.0129999995
v -0.065 0.00449999988 0.00959999979
v -0.069000001 0.00449999988 0.00959999979
v -0.069000001 0.00449999988 0.0129999995
v -0.065 -0.00449999988 0.0129999995
v -0.065 -0.00449999988 0.00959999979
v -0.065 0.00449999988 0.00959999979
v -0.065 0.00449999988 0.0129999995
v 0.0142999995 -0.0126999998 0.0956000042
v 0.0142999995 -0.0126999998 0.0939999962
v 0.0142999995 0.0126999998 0.0939999962
v 0.0142999995 0.0126999998 0.0956000042
v -0.0142999995 0.0126999998 0.0956000042
v -0.0142999995 0.0126999998 0.0939999962
v -0.0142999995 -0.0126999998 0.0939999962
v -0.0142999995 -0.0126999998 0.0956000042
v 0.0142999995 -0.0126999998 0.0956000042
v 0.0142999995 0.0126999998 0.0956000042
v -0.0142999995 0.0126999998 0.0956000042
v -0.0142999995 -0.0126999998 0.0956000042
v -0.0142999995 -0.0126999998 0.0956000042
v -0.0142999995 -0.0126999998 0.0939999962
v 0.0142999995 -0.0126999998 0.0939999962
v 0.0142999995 -0.0126999998 0.0956000042
v 0.0142999995 0.0126999998 0.0956000042
v 0.0142999995 0.0126999998 0.0939999962
v -0.0142999995 0.0126999998 0.0939999962
v -0.0142999995 0.0126999998 0.0956000042
v 0.0142999995 0.0126999998 0.0939999962
v 0.0142999995 -0.0126999998 0.0939999962
v -0.0142999995 -0.0126999998 0.0939999962
v -0.0142999995 0.0126999998 0.0939999962
v 0.00300000012 -0.00300000012 0.0969999981
v 0.00300000012 -0.00300000012 0.0956000042
v 0.00300000012 0.00300000012 0.0956000042
v 0.00300000012 0.00300000012 0.0969999981
v -0.00300000012 0.00300000012 0.0969999981
v -0.00300000012 0.00300000012 0.0956000042
v -0.00300000012 -0.00300000012 0.0956000042
v -0.00300000012 -0.00300000012 0.0969999981
v 0.00300000012 0.00300000012 0.0969999981
v 0.00300000012 0.00300000012 0.0956000042
v -0.00300000012 0.00300000012 0.0956000042
v -0.00300000012 0.00300000012 0.0969999981
v 0.00300000012 0.00300000012 0.0956000042
v 0.00300000012 -0.00300000012 0.0956000042
v -0.00300000012 -0.00300000012 0.0956000042
v -0.00300000012 0.00300000012 0.0956000042
v 0.00300000012 -0.00300000012 0.0969999981
v 0.00300000012 0.00300000012 0.0969999981
v -0.00300000012 0.00300000012 0.0969999981
v -0.00300000012 -0.00300000012 0.0969999981
v -0.00300000012 -0.00300000012 0.0969999981
v -0.00300000012 -0.00300000012 0.0956000042
v 0.00300000012 -0.00300000012 0.0956000042
v 0.00300000012 -0.00300000012 0.0969999981
v 0.01 -0.0126300001 0.0939999962
v 0.01 -0.01023 0.0939999962
v -0.01 -0.01023 0.0939999962
v -0.01 -0.0126300001 0.0939999962
v -0.01 -0.01023 0.0939999962
v -0.01 -0.01023 0.0914999962
v -0.01 -0.0126300001 0.0914999962
v -0.01 -0.0126300001 0.0939999962
v 0.01 -0.01023 0.0939999962
v 0.01 -0.01023 0.0914999962
v -0.01 -0.01023 0.0914999962
v -0.01 -0.01023 0.0939999962
v 0.01 -0.0126300001 0.0939999962
v 0.01 -0.0126300001 0.0914999962
v 0.01 -0.01023 0.0914999962
v 0.01 -0.01023 0.0939999962
v -0.01 -0.0126300001 0.0939999962
v -0.01 -0.0126300001 0.0914999962
v 0.01 -0.0126300001 0.0914999962
v 0.01 -0.0126300001 0.0939999962
v 0.01 -0.01023 0.0914999962
v 0.01 -0.0126300001 0.0914999962
v -0.01 -0.0126300001 0.0914999962
v -0.01 -0.01023 0.0914999962
v 0.01 0.0126300001 0.0939999962
v 0.01 0.0126300001 0.0914999962
v -0.01 0.0126300001 0.0914999962
v -0.01 0.0126300001 0.0939999962
v 0.01 0.01023 0.0939999962
v 0.01 0.01023 0.0914999962
v 0.01 0.0126300001 0.0914999962
v 0.01 0.0126300001 0.0939999962
v -0.01 0.01023 0.0939999962
v -0.01 0.01023 0.0914999962
v 0.01 0.01023 0.0914999962
v 0.01 0.01023 0.0939999962
v -0.01 0.0126300001 0.0939999962
v -0.01 0.0126300001 0.0914999962
v -0.01 0.01023 0.0914999962
v -0.01 0.01023 0.0939999962
v 0.01 0.0126300001 0.0914999962
v 0.01 0.01023 0.0914999962
v -0.01 0.01023 0.0914999962
v -0.01 0.0126300001 0.0914999962
v 0.01 0.01023 0.0939999962
v 0.01 0.0126300001 0.0939999962
v -0.01 0.0126300001 0.0939999962
v -0.01 0.01023 0.0939999962
f 1 2 4
f 4 2 3
f 5 6 8
f 8 6 7
f 10 11 9
f 9 11 12
f 14 15 13
f 13 15 16
f 17 18 20
f 20 18 19
f 21 22 24
f 24 22 23
f 25 26 28
f 28 26 27
f 29 30 32
f 32 30 31
f 33 34 36
f 36 34 35
f 37 38 40
f 40 38 39
f 42 43 41
f 41 43 44
f 46 47 45
f 45 47 48
f 49 50 52
f 52 50 51
f 53 54 56
f 56 54 55
f 58 59 57
f 57 59 60
f 61 62 64
f 64 62 63
f 65 66 68
f 68 66 67
f 70 71 69
f 69 71 72
f 73 74 76
f 76 74 75
f 77 78 80
f 80 78 79
f 82 83 81
f 81 83 84
f 85 86 88
f 88 86 87
f 89 90 92
f 92 90 91
f 94 95 93
f 93 95 96
f 97 98 100
f 100 98 99
f 101 102 104
f 104 102 103
f 106 107 105
f 105 107 108
f 110 111 109
f 109 111 112
f 113 114 116
f 116 114 115
f 117 118 120
f 120 118 119
f 121 122 124
f 124 122 123
f 125 126 128
f 128 126 127
f 130 131 129
f 129 131 132
f 133 134 136
f 136 134 135
f 137 138 140
f 140 138 139
f 142 143 141
f 141 143 144
f 145 146 148
f 148 146 147
f 149 150 152
f 152 150 151
f 153 154 156
f 156 154 155
f 158 159 157
f 157 159 160
f 162 163 161
f 161 163 164
f 165 166 168
f 168 166 167
f 170 171 169
f 169 171 172
f 173 174 176
f 176 174 175
f 177 178 180
f 180 178 179
f 181 182 184
f 184 182 183
f 185 186 188
f 188 186 187
f 190 191 189
f 189 191 192
f 193 194 196
f 196 194 195
f 197 198 200
f 200 198 199
f 201 202 204
f 204 202 203
f 205 206 208
f 208 206 207
f 210 211 209
f 209 211 212
f 214 215 213
f 213 215 216
