v 0.024988945 -0.0305896492 -0.00106115818
v 0.0249762755 -0.030602314 -0.000991880894
v 0.0249342041 -0.0306443901 -0.000711958408
v 0.0249117689 -0.0306668205 -0.000499663353
v 0.0248941307 -0.0306844635 -0.000214576721
v 0.0248901587 -0.0306884308 0
v 0.0248972206 -0.0306813736 0.000286002159
v 0.0249183731 -0.0306602211 0.00057060957
v 0.0249434261 -0.0306351681 0.000782315731
v 0.024988945 -0.0305896492 0.00106115818
v 0.0250649958 -0.0305135937 -0.00140228271
v 0.0250168352 -0.0305617542 -0.00119872332
v 0.0250024681 -0.0305761261 0.0011301136
v 0.0250320511 -0.0305465431 0.00126697063
v 0.0252295094 -0.0303490848 -0.00192483425
v 0.0251617842 -0.0304168053 -0.00173273563
v 0.0250827198 -0.0304958744 -0.00146930933
v 0.0250827198 -0.0304958744 0.00146930933
v 0.025101264 -0.030477335 0.00153588772
v 0.0251835709 -0.0303950233 0.00179732084
v 0.0253042488 -0.0302743454 -0.00211165667
v 0.0252536516 -0.0303249378 -0.00198771954
v 0.0252536516 -0.0303249378 0.00198771954
v 0.0252785711 -0.0303000278 0.00204999924
v 0.0254739409 -0.0301046486 -0.00246744156
v 0.0253578739 -0.0302207203 -0.00223301888
v 0.0253306894 -0.0302479095 0.00217266798
v 0.0253858023 -0.0301927872 0.00229269028
v 0.0255684261 -0.0300101681 -0.00263542891
v 0.0255047445 -0.0300738449 0.00252421141
v 0.025739296 -0.0298392982 -0.00289913893
v 0.0256348162 -0.0299437733 -0.00274343491
v 0.0256012898 -0.0299773044 0.00268984318
v 0.0256690006 -0.0299095936 0.00279619217
v 0.0258120899 -0.0297665043 -0.00299854994
v 0.0257753878 -0.0298032112 0.00294929266
v 0.0259648113 -0.0296137829 -0.00318629742
v 0.0258493929 -0.0297291965 0.00304689407
v 0.0260445528 -0.0295340366 -0.003274405
v 0.0260044079 -0.0295741863 -0.00323084354
v 0.0260044079 -0.0295741863 0.00323084354
v 0.0260445528 -0.0295340366 0.003274405
v 0.0262103109 -0.0293682785 -0.00343854904
v 0.026085227 -0.0294933624 0.00331696987
v 0.0262961321 -0.0292824669 -0.00351438522
v 0.0262529879 -0.0293256016 -0.00347699642
v 0.0262529879 -0.0293256016 0.00347699642
v 0.0262961321 -0.0292824669 0.00351438522
v 0.026473115 -0.0291054745 -0.00365312576
v 0.0264973478 -0.0290812416 -0.000813472271
v 0.0264780598 -0.0291005344 -0.000749213696
v 0.0264170914 -0.0291615028 -0.00048384428
v 0.0263856249 -0.0291929645 -0.000243737698
v 0.026375082 -0.0292035122 0
v 0.0263888483 -0.0291897507 0.000278346539
v 0.0264232712 -0.029155323 0.00051763773
v 0.0264875059 -0.0290910835 0.000781462193
v 0.0263397293 -0.0292388649 0.00355070353
v 0.0265640669 -0.0290145225 -0.00371586084
v 0.0265770798 -0.0290015144 -0.00103007555
v 0.0265645533 -0.0290140457 -0.000999999046
v 0.0265075855 -0.0290710087 0.000845236778
v 0.0265770798 -0.0290015144 0.00103007555
v 0.0265184002 -0.029060194 0.00368505478
v 0.0267032604 -0.0288753338 -0.00380145311
v 0.0266101103 -0.0289684791 -0.0037455368
v 0.0267383318 -0.0288402576 -0.00133826017
v 0.0266748791 -0.0289037151 -0.00123132229
v 0.0265899735 -0.0289886207 0.00105983734
v 0.0266902475 -0.0288883514 0.00125864029
v 0.0266101103 -0.0289684791 0.0037455368
v 0.0266565113 -0.0289220829 0.00377407074
v 0.0267977314 -0.0287808628 -0.00385273933
v 0.0268248062 -0.028753788 -0.00146270752
v 0.0267550068 -0.0288235874 0.00136399746
v 0.0267503386 -0.0288282509 0.00382767916
v 0.0269901877 -0.0285884113 -0.00394117355
v 0.0269984799 -0.0285801144 -0.00165807486
v 0.0268430023 -0.0287355919 -0.0014862895
v 0.0268430023 -0.0287355919 0.0014862895
v 0.0268614893 -0.0287171001 0.00150941849
v 0.0268454294 -0.02873316 0.00387662649
v 0.0270389443 -0.02853965 -0.00396029472
v 0.0270609217 -0.0285176678 -0.00171433449
v 0.0270190601 -0.0285595341 0.00167734146
v 0.0270389443 -0.02853965 0.00396029472
v 0.0272361164 -0.0283424778 -0.00402467251
v 0.0271371346 -0.0284414596 -0.00399491787
v 0.0272367172 -0.028341877 -0.00184100866
v 0.0271036701 -0.0284749241 -0.00174923897
v 0.0270821886 -0.0284964008 0.00173205137
v 0.0271253615 -0.028453228 0.00176589489
v 0.0270879297 -0.0284906597 0.00397821188
v 0.0271865301 -0.0283920593 0.00401040554
v 0.0272858648 -0.0282927246 -0.00403771162
v 0.0273056059 -0.0282729835 -0.00187938452
v 0.0272595244 -0.0283190746 0.00185436726
v 0.0272858648 -0.0282927246 0.00403771162
v 0.0274862557 -0.0280923386 -0.00407753944
v 0.0274952631 -0.0280833263 -0.00195629597
v 0.0273288756 -0.0282497234 0.00189103603
v 0.0273357706 -0.0282428188 0.00404952288
v 0.0277344685 -0.0335009785 -0.000428566933
v 0.0277225571 -0.0335128899 -0.000214576721
v 0.027718585 -0.0335168571 0
v 0.027725647 -0.0335097999 0.000286002159
v 0.0277467995 -0.0334886475 -0.00057060957
v 0.0277401953 -0.0334952564 -0.000499663353
v 0.0277401953 -0.0334952564 0.000499663353
v 0.0277467995 -0.0334886475 0.00057060957
v 0.0275366192 -0.028041975 -0.00408439875
v 0.0275680666 -0.0280105324 -0.00197537661
v 0.0275194531 -0.0280591411 0.00196325541
v 0.0275366192 -0.028041975 0.00408439875
v 0.027738698 -0.0278398914 -0.0040993762
v 0.0277399426 -0.0278386516 -0.00199878216
v 0.0275924759 -0.0279861183 0.00198053598
v 0.0275870638 -0.0279915256 0.0040900135
v 0.0279692297 -0.033266222 -0.00166762114
v 0.0279111462 -0.0333243008 -0.00146930933
v 0.0278452664 -0.0333901806 -0.00119872332
v 0.0278047018 -0.0334307403 -0.000991880894
v 0.0277626305 -0.0334728165 -0.000711958408
v 0.0277542811 -0.0334811706 0.000641381741
v 0.0277718525 -0.0334635944 0.000782315731
v 0.0278173714 -0.0334180756 0.00106115818
v 0.0278604775 -0.0333749695 0.00126697063
v 0.0279296904 -0.0333057613 0.00153588772
v 0.0279902105 -0.0332452316 -0.00173273563
v 0.0279902105 -0.0332452316 0.00173273563
v 0.0277892952 -0.027789299 -0.00410000086
v 0.0277892952 -0.027789299 -0.00200000048
v 0.0278139763 -0.0277646179 -0.0019996953
v 0.0277646141 -0.0278139801 0.0019996953
v 0.0277892952 -0.027789299 0.00200000048
v 0.0277892952 -0.027789299 0.00410000086
v 0.0279915314 -0.0275870628 -0.0040900135
v 0.0279861193 -0.0275924797 -0.00198053598
v 0.0278386526 -0.0277399368 0.00199878216
v 0.0278398924 -0.027738697 0.0040993762
v 0.0282142286 -0.0330212135 -0.00229269028
v 0.0281863003 -0.0330491466 -0.00223301888
v 0.0280820828 -0.0331533642 -0.00198771954
v 0.0280119972 -0.0332234497 0.00179732084
v 0.0281069975 -0.0331284542 0.00204999924
v 0.0282142286 -0.0330212135 0.00229269028
v 0.0282428913 -0.0329925556 -0.00235166311
v 0.0282428913 -0.0329925556 0.00235166311
v 0.0280419712 -0.027536623 -0.00408439875
v 0.0280591421 -0.0275194473 -0.00196325541
v 0.0280105286 -0.0275680656 0.00197537661
v 0.0280419712 -0.027536623 0.00408439875
v 0.0282428198 -0.0273357696 -0.00404952288
v 0.0282497196 -0.0273288746 -0.00189103603
v 0.0280833273 -0.0274952621 0.00195629597
v 0.0280923395 -0.0274862499 0.00407753944
v 0.0284632425 -0.0327721996 -0.00274343491
v 0.0283023672 -0.0329330749 -0.00246744156
v 0.028272274 -0.0329631729 0.00240992069
v 0.0283331709 -0.0329022713 0.00252421141
v 0.028497427 -0.0327380199 -0.00279619217
v 0.028497427 -0.0327380199 0.00279619217
v 0.0282927256 -0.0272858639 -0.00403771162
v 0.0283190708 -0.0272595234 -0.00185436726
v 0.0282729845 -0.0273056049 0.00187938452
v 0.0282927256 -0.0272858639 0.00403771162
v 0.0283920603 -0.0271865291 -0.00401040554
v 0.0284906607 -0.0270879288 -0.00397821188
v 0.028453229 -0.0271253605 -0.00176589489
v 0.0284964018 -0.0270821876 -0.00173205137
v 0.0284749203 -0.0271036739 0.00174923897
v 0.0283418732 -0.027236721 0.00184100866
v 0.0284414606 -0.0271371288 0.00399491787
v 0.0283424788 -0.0272361107 0.00402467251
v 0.0287157183 -0.0325197334 -0.00309430838
v 0.0286405163 -0.0325949306 -0.00299854994
v 0.02853226 -0.0327031917 0.00284809828
v 0.028677824 -0.0325576229 0.00304689407
v 0.0285396509 -0.027038948 -0.00396029472
v 0.0285595303 -0.0270190639 -0.00167734146
v 0.0285176687 -0.0270609207 0.00171433449
v 0.0285396509 -0.027038948 0.00396029472
v 0.0287331658 -0.0268454285 -0.00387662649
v 0.0287171059 -0.0268614883 -0.00150941849
v 0.0287355881 -0.0268430061 -0.0014862895
v 0.0287355881 -0.0268430061 0.0014862895
v 0.0285801153 -0.0269984741 0.00165807486
v 0.0285884075 -0.0269901867 0.00394117355
v 0.0289548473 -0.0322805996 -0.00335852385
v 0.0288328343 -0.0324026127 -0.00323084354
v 0.0287541943 -0.0324812527 0.00314078331
v 0.0288729792 -0.0323624725 0.003274405
v 0.0289965468 -0.0322389049 -0.003399055
v 0.0289965468 -0.0322389049 0.003399055
v 0.0288282566 -0.0267503376 -0.00382767916
v 0.0288235884 -0.0267550106 -0.00136399746
v 0.028753789 -0.0268248005 0.00146270752
v 0.028780859 -0.0267977352 0.00385273933
v 0.0289220791 -0.0266565151 -0.00377407074
v 0.0289684801 -0.0266101093 -0.0037455368
v 0.0288883476 -0.0266902466 -0.00125864029
v 0.028988617 -0.0265899773 -0.00105983734
v 0.0289037113 -0.0266748829 0.00123132229
v 0.0288402634 -0.0267383308 0.00133826017
v 0.0289684801 -0.0266101093 0.0037455368
v 0.0288753347 -0.0267032642 0.00380145311
v 0.0292121916 -0.0320232506 -0.00358594179
v 0.0290814142 -0.0321540279 -0.00347699642
v 0.0292172747 -0.032018177 -0.000278346539
v 0.0292037277 -0.0320317192 -3.490448e-05
v 0.0292140513 -0.0320214004 0.000243737698
v 0.0292344122 -0.03200103 0.00041582346
v 0.0290387421 -0.0321967049 0.00343854904
v 0.0291245585 -0.0321108932 0.00351438522
v 0.0292397575 -0.0319956894 -0.000449903011
v 0.0292455177 -0.0319899292 0.00048384428
v 0.029060195 -0.0265183945 -0.00368505478
v 0.0290015154 -0.0265770836 -0.00103007555
v 0.0290710096 -0.0265075798 -0.000845236778
v 0.0290140419 -0.0265645523 0.000999999046
v 0.0290015154 -0.0265770836 0.00103007555
v 0.0290145235 -0.0265640659 0.00371586084
v 0.0292388659 -0.0263397236 -0.00355070353
v 0.0290910893 -0.0264875049 -0.000781462193
v 0.029155324 -0.026423275 -0.00051763773
v 0.0291897469 -0.0263888473 -0.000278346539
v 0.0292032938 -0.0263752956 -3.490448e-05
v 0.0292035084 -0.0263750858 0
v 0.0291615038 -0.0264170952 0.00048384428
v 0.0291005306 -0.0264780636 0.000749213696
v 0.0290812426 -0.0264973469 0.000813472271
v 0.0291054754 -0.026473114 0.00365312576
v 0.0294849424 -0.0317505093 -0.00377407074
v 0.0294385367 -0.0317969055 -0.0037455368
v 0.0294055061 -0.0318299408 -0.00103007555
v 0.0293159323 -0.0319195099 -0.000781462193
v 0.0292516976 -0.0319837494 -0.00051763773
v 0.0293064861 -0.0319289608 0.000749213696
v 0.0293929796 -0.0318424721 0.000999999046
v 0.0294735985 -0.0317618484 0.00117557049
v 0.0292566614 -0.0319787903 0.00362008572
v 0.0294849424 -0.0317505093 0.00377407074
v 0.0294882803 -0.0317471619 -0.00120362997
v 0.0294882803 -0.0317471619 0.00120362997
v 0.0292824631 -0.0262961311 -0.00351438522
v 0.0293256073 -0.0262529869 -0.00347699642
v 0.0293256073 -0.0262529869 0.00347699642
v 0.0292824631 -0.0262961311 0.00351438522
v 0.0294933682 -0.026085226 -0.00331696987
v 0.0293682795 -0.02621031 0.00343854904
v 0.0297218399 -0.031513607 -0.00389933109
v 0.0296899157 -0.0315455265 -0.00150941849
v 0.0295186739 -0.0317167778 -0.00125864029
v 0.0295033102 -0.0317321415 -0.00123132229
v 0.0295033102 -0.0317321415 0.00123132229
v 0.0296714287 -0.0315640182 0.0014862895
v 0.0297277289 -0.0315077133 0.00155429125
v 0.0295316868 -0.0317037601 0.00380145311
v 0.0297470455 -0.0314884014 -0.00157602072
v 0.0297470455 -0.0314884014 0.00157602072
v 0.0295340424 -0.0260445518 -0.003274405
v 0.0295741825 -0.0260044117 -0.00323084354
v 0.0295741825 -0.0260044117 0.00323084354
v 0.0295340424 -0.0260445518 0.003274405
v 0.0297291975 -0.0258493919 -0.00304689407
v 0.0296137838 -0.0259648056 0.00318629742
v 0.0299655609 -0.031269886 -0.00399491787
v 0.0299537926 -0.0312816543 -0.00176589489
v 0.0297666292 -0.0314688225 -0.00159727097
v 0.0299321013 -0.0313033504 0.00174923897
v 0.0299756842 -0.0312597675 0.00178201199
v 0.0297700958 -0.0314653511 0.00392084837
v 0.0299977713 -0.0312376709 -0.00179758787
v 0.0299977713 -0.0312376709 0.00179758787
v 0.0298032074 -0.0257753868 -0.00294929266
v 0.0297665053 -0.0258120937 0.00299854994
v 0.0299095898 -0.0256690044 -0.00279619217
v 0.0299773054 -0.0256012936 -0.00268984318
v 0.0299437742 -0.0256348152 0.00274343491
v 0.0298392944 -0.0257392998 0.00289913893
v 0.030214241 -0.0310212059 -0.00406009912
v 0.0300200491 -0.0312153931 -0.00181261539
v 0.030227912 -0.0310075302 0.00192252398
v 0.0300149613 -0.0312204857 0.00401040554
v 0.0300738506 -0.0255047436 -0.00252421141
v 0.0300101643 -0.0255684299 0.00263542891
v 0.0301927929 -0.0253858013 -0.00229269028
v 0.0302479057 -0.0253306885 -0.00217266798
v 0.0302207165 -0.0253578777 0.00223301888
v 0.0301046496 -0.0254739399 0.00246744156
v 0.0304659968 -0.0307694549 -0.00409438133
v 0.0302516966 -0.0309837456 -0.00193185091
v 0.0304698973 -0.0307655449 0.00198904276
v 0.0302644091 -0.0309710426 0.00406944036
v 0.0304944687 -0.0307409782 -0.00199239016
v 0.0304944687 -0.0307409782 0.00199239016
v 0.030300024 -0.0252785702 -0.00204999924
v 0.0303249388 -0.0252536507 -0.00198771954
v 0.0303249388 -0.0252536507 0.00198771954
v 0.0302743416 -0.0253042526 0.00211165667
v 0.0303950243 -0.0251835651 -0.00179732084
v 0.0304773312 -0.025101263 -0.00153588772
v 0.0304958754 -0.0250827141 -0.00146930933
v 0.0304958754 -0.0250827141 0.00146930933
v 0.0304168062 -0.0251617832 0.00173273563
v 0.030349081 -0.0252295132 0.00192483425
v 0.0307189016 -0.0305165405 -0.00409750223
v 0.0306177216 -0.0306177254 -0.00200000048
v 0.0305190735 -0.0307163734 -0.0019951272
v 0.0307163744 -0.0305190773 0.0019951272
v 0.0306177216 -0.0306177254 0.00200000048
v 0.0305165463 -0.0307189007 0.00409750223
v 0.0307409792 -0.030494463 -0.00199239016
v 0.0307409792 -0.030494463 0.00199239016
v 0.0305465393 -0.0250320549 -0.00126697063
v 0.0305761271 -0.0250024624 -0.0011301136
v 0.0305617552 -0.0250168342 0.00119872332
v 0.0305135946 -0.0250649948 0.00140228271
v 0.0305896502 -0.0249889488 -0.00106115818
v 0.030635169 -0.0249434204 -0.000782315731
v 0.0306602221 -0.0249183769 -0.00057060957
v 0.0306813698 -0.0248972244 -0.000286002159
v 0.0306879931 -0.0248905964 -7.1554184e-05
v 0.0306844597 -0.0248941345 0.000214576721
v 0.0306668263 -0.0249117679 0.000499663353
v 0.0306443911 -0.0249341984 0.000711958408
v 0.0306023197 -0.0249762745 0.000991880894
v 0.0305896502 -0.0249889488 0.00106115818
v 0.0309710388 -0.0302644081 -0.00406944036
v 0.0307655506 -0.0304698963 -0.00198904276
v 0.0309837513 -0.0302516956 0.00193185091
v 0.0307694512 -0.0304659958 0.00409438133
v 0.0312204867 -0.0300149555 -0.00401040554
v 0.0310075359 -0.030227911 -0.00192252398
v 0.031215394 -0.0300200481 0.00181261539
v 0.0310212069 -0.0302142448 0.00406009912
v 0.0312376719 -0.0299977703 -0.00179758787
v 0.0312376719 -0.0299977703 0.00179758787
v 0.0314653473 -0.0297700996 -0.00392084837
v 0.0312597637 -0.0299756832 -0.00178201199
v 0.0313033466 -0.0299321003 -0.00174923897
v 0.0314688187 -0.0297666283 0.00159727097
v 0.0312816553 -0.0299537868 0.00176589489
v 0.031269887 -0.0299655552 0.00399491787
v 0.0314884024 -0.0297470493 -0.00157602072
v 0.0314884024 -0.0297470493 0.00157602072
v 0.0317037611 -0.0295316906 -0.00380145311
v 0.031507719 -0.0297277279 -0.00155429125
v 0.0315640192 -0.0296714325 -0.0014862895
v 0.0317321377 -0.0295033092 -0.00123132229
v 0.0317321377 -0.0295033092 0.00123132229
v 0.031716774 -0.0295186729 0.00125864029
v 0.0315455322 -0.0296899147 0.00150941849
v 0.031513608 -0.0297218437 0.00389933109
v 0.0317471628 -0.0294882793 -0.00120362997
v 0.0317471628 -0.0294882793 0.00120362997
v 0.0317505055 -0.0294849415 -0.00377407074
v 0.0319787865 -0.0292566605 -0.00362008572
v 0.0317618446 -0.0294736023 -0.00117557049
v 0.0318424683 -0.0293929787 -0.000999999046
v 0.0319289618 -0.0293064899 -0.000749213696
v 0.0319837504 -0.0292517013 0.00051763773
v 0.0319195156 -0.0293159313 0.000781462193
v 0.0318299418 -0.0294055099 0.00103007555
v 0.0317969112 -0.0294385357 0.0037455368
v 0.0317505055 -0.0294849415 0.00377407074
v 0.0319899302 -0.0292455215 -0.00048384428
v 0.0319956904 -0.0292397518 0.000449903011
v 0.0321108894 -0.0291245575 -0.00351438522
v 0.0321967058 -0.0290387363 -0.00343854904
v 0.0320010309 -0.0292344112 -0.00041582346
v 0.0320213966 -0.0292140503 -0.000243737698
v 0.0320319395 -0.0292035122 0
v 0.0320181732 -0.0292172737 0.000278346539
v 0.0321540337 -0.0290814133 0.00347699642
v 0.0320232515 -0.0292121906 0.00358594179
v 0.0322389011 -0.0289965458 -0.003399055
v 0.0322389011 -0.0289965458 0.003399055
v 0.0323624687 -0.0288729782 -0.003274405
v 0.0324812536 -0.0287541981 -0.00314078331
v 0.0324026089 -0.028832838 0.00323084354
v 0.0322806006 -0.0289548511 0.00335852385
v 0.0325576239 -0.0286778183 -0.00304689407
v 0.032703188 -0.028532259 -0.00284809828
v 0.0325949316 -0.0286405201 0.00299854994
v 0.0325197296 -0.0287157173 0.00309430838
v 0.0327380209 -0.0284974308 -0.00279619217
v 0.0327380209 -0.0284974308 0.00279619217
v 0.032902277 -0.0283331699 -0.00252421141
v 0.0329631739 -0.0282722683 -0.00240992069
v 0.0329330759 -0.0283023662 0.00246744156
v 0.0327722006 -0.0284632416 0.00274343491
v 0.0329925566 -0.0282428856 -0.00235166311
v 0.0329925566 -0.0282428856 0.00235166311
v 0.0330212193 -0.0282142277 -0.00229269028
v 0.0331284504 -0.0281069965 -0.00204999924
v 0.0332234507 -0.0280119915 -0.00179732084
v 0.0331533651 -0.028082077 0.00198771954
v 0.0330491428 -0.0281863041 0.00223301888
v 0.0330212193 -0.0282142277 0.00229269028
v 0.0332452326 -0.0279902096 -0.00173273563
v 0.0332452326 -0.0279902096 0.00173273563
v 0.0333057575 -0.0279296894 -0.00153588772
v 0.0333749657 -0.0278604813 -0.00126697063
v 0.0334180765 -0.0278173752 -0.00106115818
v 0.0334635954 -0.0277718468 -0.000782315731
v 0.0334811668 -0.0277542801 -0.000641381741
v 0.0334728174 -0.0277626343 0.000711958408
v 0.0334307461 -0.0278047008 0.000991880894
v 0.0333901816 -0.0278452606 0.00119872332
v 0.0333243017 -0.02791115 0.00146930933
v 0.0332662182 -0.0279692287 0.00166762114
v 0.0334886484 -0.0277468033 -0.00057060957
v 0.0334952526 -0.0277401943 -0.000499663353
v 0.0334952526 -0.0277401943 0.000499663353
v 0.0334886484 -0.0277468033 0.00057060957
v 0.0335098009 -0.0277256508 -0.000286002159
v 0.0335164194 -0.0277190227 -7.1554184e-05
v 0.0335128861 -0.0277225609 0.000214576721
v 0.0335009794 -0.0277344723 0.000428566933
f 51 1 2
f 1 121 2
f 51 12 1
f 12 121 1
f 52 2 3
f 2 122 3
f 51 2 52
f 2 121 122
f 52 3 4
f 3 107 4
f 3 123 107
f 3 122 123
f 53 4 5
f 4 103 5
f 52 4 53
f 4 108 103
f 4 107 108
f 53 5 6
f 5 104 6
f 5 103 104
f 54 6 7
f 6 105 7
f 53 6 54
f 6 104 105
f 55 7 8
f 7 109 8
f 54 7 55
f 7 105 106
f 7 106 109
f 55 8 9
f 8 124 9
f 8 109 110
f 8 110 124
f 56 9 10
f 9 125 10
f 55 9 56
f 9 124 125
f 56 10 13
f 10 126 13
f 10 125 126
f 51 11 12
f 11 120 12
f 51 17 11
f 17 120 11
f 12 120 121
f 56 13 14
f 13 126 14
f 56 14 18
f 14 127 18
f 14 126 127
f 61 15 16
f 15 143 16
f 61 22 15
f 22 143 15
f 51 16 17
f 16 119 17
f 50 16 51
f 61 16 50
f 16 129 119
f 16 143 129
f 17 119 120
f 56 18 19
f 18 127 19
f 62 19 20
f 19 130 20
f 56 19 57
f 57 19 62
f 19 127 128
f 19 128 130
f 62 20 23
f 20 144 23
f 20 130 144
f 61 21 22
f 21 142 22
f 26 142 21
f 21 297 26
f 60 21 61
f 68 21 60
f 67 21 68
f 74 21 67
f 79 21 74
f 78 21 79
f 84 21 78
f 90 21 84
f 89 21 90
f 96 21 89
f 100 21 96
f 112 21 100
f 116 21 112
f 133 21 116
f 132 21 133
f 132 298 21
f 298 297 21
f 22 142 143
f 62 23 24
f 23 144 24
f 69 24 27
f 24 145 27
f 62 24 63
f 63 24 69
f 24 144 145
f 25 141 26
f 26 288 25
f 29 157 25
f 25 287 29
f 25 147 141
f 25 158 147
f 25 157 158
f 25 288 287
f 26 141 142
f 26 297 288
f 69 27 28
f 27 145 28
f 69 28 30
f 28 159 30
f 28 145 146
f 28 146 148
f 28 148 159
f 32 157 29
f 29 285 32
f 29 287 285
f 70 30 33
f 30 160 33
f 69 30 70
f 30 159 160
f 31 161 32
f 32 278 31
f 35 176 31
f 31 277 35
f 31 176 161
f 31 278 277
f 32 161 157
f 32 285 278
f 75 33 34
f 33 160 34
f 70 33 75
f 75 34 36
f 34 177 36
f 34 160 162
f 34 162 177
f 37 175 35
f 35 275 37
f 35 175 176
f 35 277 275
f 80 36 38
f 36 177 38
f 75 36 80
f 40 190 37
f 37 265 40
f 37 190 175
f 37 275 265
f 81 38 41
f 38 191 41
f 80 38 81
f 38 177 178
f 38 178 191
f 39 189 40
f 40 262 39
f 43 189 39
f 39 261 43
f 39 262 261
f 40 189 190
f 40 265 262
f 81 41 42
f 41 191 42
f 81 42 44
f 42 192 44
f 42 191 192
f 46 208 43
f 43 249 46
f 43 193 189
f 43 208 193
f 43 261 249
f 85 44 47
f 44 213 47
f 81 44 85
f 44 192 194
f 44 194 213
f 45 207 46
f 46 246 45
f 49 207 45
f 45 245 49
f 45 246 245
f 46 207 208
f 46 249 246
f 85 47 48
f 47 213 48
f 91 48 58
f 48 214 58
f 85 48 91
f 48 213 214
f 49 223 59
f 59 234 49
f 49 234 207
f 49 245 223
f 51 237 50
f 50 236 61
f 50 237 236
f 52 215 51
f 51 215 237
f 53 210 52
f 52 210 209
f 52 209 215
f 54 211 53
f 53 211 210
f 55 212 54
f 54 212 211
f 56 238 55
f 55 216 212
f 55 238 216
f 57 239 56
f 56 239 238
f 62 239 57
f 92 58 64
f 58 241 64
f 91 58 92
f 58 214 241
f 59 217 66
f 66 234 59
f 59 223 217
f 61 236 60
f 60 235 68
f 60 236 235
f 63 240 62
f 62 240 239
f 69 240 63
f 205 64 71
f 64 241 71
f 92 64 97
f 97 64 101
f 101 64 113
f 113 64 117
f 117 64 134
f 134 64 135
f 135 64 222
f 222 64 205
f 66 200 65
f 65 233 66
f 65 199 73
f 73 251 65
f 65 200 199
f 65 251 233
f 66 217 200
f 66 233 234
f 68 254 67
f 67 253 74
f 67 254 253
f 68 235 243
f 68 243 254
f 70 256 69
f 69 244 240
f 69 255 244
f 69 256 255
f 75 256 70
f 206 71 72
f 71 241 72
f 205 71 206
f 198 72 76
f 72 258 76
f 206 72 198
f 72 241 242
f 72 242 258
f 73 195 77
f 77 251 73
f 73 199 195
f 74 253 79
f 80 256 75
f 188 76 82
f 76 258 82
f 198 76 188
f 77 183 83
f 83 267 77
f 77 195 183
f 77 267 251
f 79 253 78
f 78 269 84
f 78 253 252
f 78 252 259
f 78 259 269
f 81 257 80
f 80 257 256
f 85 270 81
f 81 260 257
f 81 270 260
f 182 82 86
f 82 272 86
f 188 82 182
f 82 258 272
f 83 179 88
f 88 267 83
f 83 183 179
f 84 269 90
f 91 270 85
f 173 86 93
f 86 272 93
f 182 86 173
f 88 168 87
f 87 281 88
f 87 167 95
f 95 281 87
f 87 168 167
f 88 179 168
f 88 281 267
f 90 269 89
f 89 282 96
f 89 269 268
f 89 268 273
f 89 273 282
f 92 271 91
f 91 271 270
f 97 283 92
f 92 274 271
f 92 283 274
f 174 93 94
f 93 272 94
f 173 93 174
f 166 94 98
f 94 284 98
f 174 94 166
f 94 272 284
f 95 163 99
f 99 281 95
f 95 167 163
f 96 282 100
f 101 283 97
f 156 98 102
f 98 284 102
f 166 98 156
f 99 153 111
f 111 291 99
f 99 163 153
f 99 291 281
f 100 292 112
f 100 282 292
f 113 293 101
f 101 293 283
f 152 102 114
f 102 294 114
f 156 102 152
f 102 284 294
f 103 210 104
f 108 210 103
f 104 210 105
f 105 211 106
f 105 210 211
f 106 211 109
f 107 209 108
f 123 209 107
f 108 209 210
f 109 212 110
f 109 211 212
f 110 212 124
f 111 149 115
f 115 291 111
f 111 153 149
f 112 292 116
f 117 293 113
f 140 114 118
f 114 294 118
f 152 114 140
f 115 137 131
f 131 307 115
f 115 149 137
f 115 307 291
f 116 309 133
f 116 292 295
f 116 295 309
f 134 310 117
f 117 296 293
f 117 310 296
f 140 118 136
f 118 312 136
f 118 294 312
f 119 237 120
f 129 236 119
f 119 236 237
f 120 237 121
f 121 237 122
f 122 209 123
f 122 215 209
f 122 237 215
f 124 212 125
f 125 238 126
f 125 212 216
f 125 216 238
f 126 238 127
f 127 256 128
f 238 239 127
f 127 239 240
f 127 240 244
f 244 255 127
f 127 255 256
f 128 270 130
f 128 256 257
f 128 257 260
f 128 260 270
f 143 236 129
f 130 270 144
f 137 307 131
f 133 298 132
f 132 308 133
f 133 309 132
f 132 309 308
f 138 298 133
f 133 309 138
f 133 308 309
f 134 135 300
f 134 310 135
f 135 311 134
f 300 139 134
f 139 310 134
f 134 311 310
f 135 222 232
f 248 135 232
f 247 135 248
f 250 135 247
f 264 135 250
f 263 135 264
f 266 135 263
f 276 135 266
f 280 135 276
f 279 135 280
f 286 135 279
f 290 135 286
f 289 135 290
f 300 135 289
f 135 310 311
f 136 312 140
f 149 329 137
f 137 329 307
f 150 301 138
f 138 330 150
f 138 301 298
f 138 309 313
f 138 313 330
f 299 151 139
f 151 331 139
f 299 139 300
f 139 314 310
f 139 331 314
f 140 332 152
f 140 312 332
f 141 235 142
f 147 235 141
f 142 236 143
f 142 235 236
f 144 293 145
f 144 270 271
f 271 274 144
f 144 274 283
f 283 293 144
f 145 399 146
f 145 293 296
f 145 296 310
f 310 311 145
f 145 311 399
f 146 400 148
f 146 399 400
f 158 235 147
f 148 394 159
f 148 400 394
f 153 329 149
f 154 301 150
f 150 330 154
f 299 155 151
f 155 331 151
f 152 332 156
f 163 333 153
f 153 333 329
f 164 301 154
f 154 334 164
f 154 330 334
f 306 165 155
f 165 335 155
f 306 155 299
f 155 335 331
f 156 336 166
f 156 332 336
f 157 254 158
f 161 253 157
f 157 253 254
f 158 243 235
f 158 254 243
f 159 391 160
f 159 394 391
f 160 392 162
f 160 391 392
f 176 253 161
f 162 388 177
f 162 392 388
f 167 333 163
f 169 301 164
f 164 334 169
f 306 172 165
f 172 335 165
f 166 336 174
f 168 339 167
f 167 339 333
f 179 339 168
f 170 302 169
f 169 340 170
f 169 302 301
f 169 334 337
f 169 337 340
f 180 302 170
f 170 341 180
f 170 340 341
f 306 171 172
f 171 342 172
f 181 171 305
f 181 342 171
f 305 171 306
f 172 338 335
f 172 343 338
f 172 342 343
f 174 336 173
f 173 344 182
f 173 336 344
f 175 253 176
f 190 252 175
f 175 252 253
f 177 385 178
f 177 388 385
f 178 386 191
f 178 385 386
f 183 339 179
f 184 302 180
f 180 341 184
f 187 181 305
f 187 342 181
f 182 344 188
f 195 347 183
f 183 347 339
f 185 303 184
f 184 348 185
f 184 303 302
f 184 341 345
f 184 345 348
f 196 303 185
f 185 349 196
f 185 348 349
f 305 186 187
f 186 352 187
f 197 186 304
f 197 352 186
f 304 186 305
f 187 346 342
f 187 353 346
f 187 352 353
f 188 354 198
f 188 344 354
f 189 269 190
f 193 269 189
f 190 259 252
f 190 269 259
f 191 381 192
f 191 386 381
f 192 382 194
f 192 381 382
f 208 269 193
f 194 378 213
f 194 382 378
f 199 347 195
f 201 315 196
f 196 349 201
f 196 315 303
f 318 204 197
f 204 352 197
f 318 197 304
f 198 354 206
f 200 358 199
f 199 357 347
f 199 358 357
f 217 358 200
f 202 316 201
f 201 349 202
f 201 316 315
f 218 320 202
f 202 359 218
f 202 319 316
f 202 320 319
f 202 349 350
f 202 350 355
f 202 355 359
f 318 203 204
f 203 351 204
f 328 221 203
f 221 364 203
f 317 203 318
f 328 203 317
f 203 356 351
f 203 364 356
f 204 351 352
f 206 366 205
f 205 365 222
f 205 366 365
f 206 354 366
f 207 269 208
f 234 268 207
f 207 268 269
f 213 375 214
f 213 378 375
f 214 376 241
f 214 375 376
f 223 358 217
f 219 320 218
f 218 359 219
f 224 320 219
f 219 360 224
f 219 359 360
f 328 220 221
f 220 363 221
f 327 231 220
f 231 363 220
f 327 220 328
f 221 363 364
f 222 365 232
f 245 369 223
f 223 369 358
f 225 321 224
f 224 360 225
f 224 321 320
f 226 322 225
f 225 361 226
f 225 322 321
f 225 360 361
f 227 323 226
f 226 371 227
f 226 323 322
f 226 361 367
f 226 367 371
f 228 324 227
f 227 372 228
f 227 324 323
f 227 371 372
f 325 228 229
f 228 373 229
f 324 228 325
f 228 372 373
f 325 229 230
f 229 368 230
f 229 374 368
f 229 373 374
f 327 230 231
f 230 362 231
f 325 230 326
f 326 230 327
f 230 368 362
f 231 362 363
f 232 376 248
f 232 365 376
f 233 282 234
f 251 282 233
f 234 273 268
f 234 282 273
f 241 365 242
f 241 376 365
f 242 366 258
f 242 365 366
f 246 370 245
f 245 370 369
f 249 370 246
f 248 376 247
f 247 375 250
f 247 376 375
f 261 379 249
f 249 377 370
f 249 379 377
f 250 382 264
f 250 375 378
f 250 378 382
f 267 282 251
f 258 354 272
f 258 366 354
f 262 380 261
f 261 380 379
f 265 380 262
f 264 382 263
f 263 381 266
f 263 382 381
f 275 384 265
f 265 383 380
f 265 384 383
f 266 386 276
f 266 381 386
f 281 292 267
f 267 292 282
f 272 344 284
f 272 354 344
f 277 384 275
f 276 385 280
f 276 386 385
f 278 389 277
f 277 387 384
f 277 389 387
f 285 389 278
f 280 388 279
f 279 392 286
f 279 388 392
f 280 385 388
f 291 292 281
f 284 336 294
f 284 344 336
f 287 390 285
f 285 390 389
f 286 392 290
f 288 396 287
f 287 393 390
f 287 395 393
f 287 396 395
f 297 396 288
f 290 400 289
f 289 399 300
f 289 400 399
f 290 392 391
f 290 391 394
f 290 394 400
f 291 295 292
f 291 309 295
f 307 309 291
f 294 332 312
f 294 336 332
f 298 397 297
f 297 397 396
f 301 397 298
f 300 399 299
f 299 398 306
f 299 399 398
f 302 401 301
f 301 401 397
f 303 404 302
f 302 403 401
f 302 404 403
f 315 404 303
f 305 412 304
f 304 411 318
f 304 412 411
f 306 398 305
f 305 398 402
f 305 402 412
f 307 308 309
f 329 308 307
f 397 309 308
f 333 308 329
f 339 308 333
f 347 308 339
f 357 308 347
f 358 308 357
f 369 308 358
f 370 308 369
f 377 308 370
f 379 308 377
f 380 308 379
f 383 308 380
f 384 308 383
f 387 308 384
f 389 308 387
f 390 308 389
f 393 308 390
f 395 308 393
f 396 308 395
f 397 308 396
f 313 309 397
f 311 310 399
f 399 310 314
f 397 330 313
f 399 314 331
f 316 405 315
f 315 405 404
f 319 405 316
f 318 411 317
f 317 410 328
f 317 411 410
f 320 406 319
f 319 406 405
f 321 407 320
f 320 407 406
f 322 414 321
f 321 413 407
f 321 414 413
f 323 418 322
f 322 417 414
f 322 418 417
f 324 419 323
f 323 419 418
f 325 420 324
f 324 420 419
f 326 416 325
f 325 416 415
f 325 415 420
f 327 409 326
f 326 409 408
f 326 408 416
f 328 410 327
f 327 410 409
f 397 334 330
f 398 331 335
f 399 331 398
f 397 337 334
f 398 335 338
f 397 340 337
f 398 338 343
f 401 341 340
f 401 340 397
f 345 341 403
f 403 341 401
f 343 342 398
f 412 342 346
f 398 342 402
f 402 342 412
f 403 348 345
f 346 353 412
f 404 349 348
f 404 348 403
f 350 349 405
f 405 349 404
f 405 355 350
f 411 352 351
f 351 356 411
f 353 352 412
f 412 352 411
f 405 359 355
f 410 356 364
f 411 356 410
f 406 360 359
f 406 359 405
f 361 360 407
f 407 360 406
f 414 367 361
f 413 361 407
f 414 361 413
f 409 363 362
f 415 362 368
f 409 362 408
f 408 362 416
f 416 362 415
f 364 363 410
f 410 363 409
f 417 371 367
f 417 367 414
f 420 368 374
f 415 368 420
f 418 372 371
f 418 371 417
f 419 373 372
f 419 372 418
f 420 374 373
f 420 373 419
