v 0.000664047673 0.0148061836 0.00400000006
v 0.000664047673 0.0148061836 0.00600000024
v 0.00374504983 0.0126864386 0.00400000006
v 0.00374504983 0.0126864386 0.00600000024
v 0.00373411983 0.0127642107 0.00400000006
v 0.00373411983 0.0127642107 0.00600000024
v 0.00371734858 0.0130384159 0.00400000006
v 0.00371734858 0.0130384159 0.00600000024
v 0.00372967422 0.0132736051 0.00400000006
v 0.00372967422 0.0132736051 0.00600000024
v 0.00399945408 0.0119475949 0.00400000006
v 0.00399945408 0.0119475949 0.00600000024
v 0.00396258384 0.0120169377 0.00400000006
v 0.00396258384 0.0120169377 0.00600000024
v 0.00385304004 0.0122688711 0.00400000006
v 0.00385304004 0.0122688711 0.00600000024
v 0.00377501577 0.0125322759 0.00400000006
v 0.00377501577 0.0125322759 0.00600000024
v 0.00375153124 0.0134291244 0.00400000006
v 0.00375153124 0.0134291244 0.00600000024
v 0.00376651645 0.0135062182 0.00400000006
v 0.00376651645 0.0135062182 0.00600000024
v 0.00383993179 0.0137709451 0.00400000006
v 0.00383993179 0.0137709451 0.00600000024
v 0.00394506186 0.0140247512 0.00400000006
v 0.00394506186 0.0140247512 0.00600000024
v 0.00424374849 0.0115921438 0.00400000006
v 0.00424374849 0.0115921438 0.00600000024
v 0.00410201401 0.0117802322 0.00400000006
v 0.00410201401 0.0117802322 0.00600000024
v 0.00401879132 0.0141634166 0.00400000006
v 0.00401879132 0.0141634166 0.00600000024
v 0.00408033967 0.014263854 0.00400000006
v 0.00408033967 0.014263854 0.00600000024
v 0.00449121565 0.0113403201 0.00400000006
v 0.00449121565 0.0113403201 0.00600000024
v 0.00432180285 0.0115039206 0.00400000006
v 0.00432180285 0.0115039206 0.00600000024
v 0.00426925212 0.0145145488 0.00400000006
v 0.00426925212 0.0145145488 0.00600000024
v 0.0047419107 0.011151408 0.00400000006
v 0.0047419107 0.011151408 0.00600000024
v 0.00458211035 0.0112653923 0.00400000006
v 0.00458211035 0.0112653923 0.00600000024
v 0.00452107638 0.0147620165 0.00400000006
v 0.00452107638 0.0147620165 0.00600000024
v 0.00498101354 0.0110161293 0.00400000006
v 0.00498101354 0.0110161293 0.00600000024
v 0.00477503031 0.0149465251 0.00400000006
v 0.00477503031 0.0149465251 0.00600000024
v 0.00487652689 0.0150063109 0.00400000006
v 0.00487652689 0.0150063109 0.00600000024
v 0.00523482025 0.0109109998 0.00400000006
v 0.00523482025 0.0109109998 0.00600000024
v 0.00501645744 0.0150776088 0.00400000006
v 0.00501645744 0.0150776088 0.00600000024
v 0.00549954712 0.0108375847 0.00400000006
v 0.00549954712 0.0108375847 0.00600000024
v 0.00527206004 0.015178293 0.00400000006
v 0.00527206004 0.015178293 0.00600000024
v 0.00573215961 0.0108007419 0.00400000006
v 0.00573215961 0.0108007419 0.00600000024
v 0.00553802848 0.0152470779 0.00400000006
v 0.00553802848 0.0152470779 0.00600000024
v 0.00557664037 0.0152542341 0.00400000006
v 0.00557664037 0.0152542341 0.00600000024
v 0.00596734881 0.0107884169 0.00400000006
v 0.00596734881 0.0107884169 0.00600000024
v 0.00577124834 0.0152798545 0.00400000006
v 0.00577124834 0.0152798545 0.00600000024
v 0.00596734881 0.0201094842 -0.0230999994
v 0.00596734881 0.0201094842 0.00400000006
v 0.00596734881 0.0201094842 0.00600000024
v 0.00596734881 0.0201094842 0.0129999995
v 0.00624155462 0.0108051872 0.00400000006
v 0.00624155462 0.0108051872 0.00600000024
v 0.00600661635 0.015288074 0.00400000006
v 0.00600661635 0.015288074 0.00600000024
v 0.00647348821 0.0108460832 0.00400000006
v 0.00647348821 0.0108460832 0.00600000024
v 0.00639666855 0.0152470779 0.00400000006
v 0.00639666855 0.0152470779 0.00600000024
v 0.00628048778 0.0152665198 0.00400000006
v 0.00628048778 0.0152665198 0.00600000024
v 0.00673689365 0.010924108 0.00400000006
v 0.00673689365 0.010924108 0.00600000024
v 0.00651167274 0.0152215815 0.00400000006
v 0.00651167274 0.0152215815 0.00600000024
v 0.00691823959 0.0109992242 0.00400000006
v 0.00691823959 0.0109992242 0.00600000024
v 0.00698882699 0.0110336518 0.00400000006
v 0.00698882699 0.0110336518 0.00600000024
v 0.00677367628 0.0151389718 0.00400000006
v 0.00677367628 0.0151389718 0.00600000024
v 0.00722553253 0.0111730814 0.00400000006
v 0.00722553253 0.0111730814 0.00600000024
v 0.00709234834 0.014986974 0.00400000006
v 0.00709234834 0.014986974 0.00600000024
v 0.00702365935 0.0150250483 0.00400000006
v 0.00702365935 0.0150250483 0.00600000024
v 0.00732143223 0.0112414861 0.00400000006
v 0.00732143223 0.0112414861 0.00600000024
v 0.0074728924 0.0113663399 0.00400000006
v 0.0074728924 0.0113663399 0.00600000024
v 0.00744348109 0.0147365129 0.00400000006
v 0.00744348109 0.0147365129 0.00600000024
v 0.00725789547 0.0148815084 0.00400000006
v 0.00725789547 0.0148815084 0.00600000024
v 0.00758586287 0.0114754355 0.00400000006
v 0.00758586287 0.0114754355 0.00600000024
v 0.00774037302 0.0116531777 0.00400000006
v 0.00774037302 0.0116531777 0.00600000024
v 0.00769094825 0.014484688 0.00400000006
v 0.00769094825 0.014484688 0.00600000024
v 0.00755833864 0.0146294069 0.00400000006
v 0.00755833864 0.0146294069 0.00600000024
v 0.00781044066 0.0117478693 0.00400000006
v 0.00781044066 0.0117478693 0.00600000024
v 0.00795398057 0.0119821048 0.00400000006
v 0.00795398057 0.0119821048 0.00600000024
v 0.00798963487 0.0120520818 0.00400000006
v 0.00798963487 0.0120520818 0.00600000024
v 0.00787545681 0.0142307341 0.00400000006
v 0.00787545681 0.0142307341 0.00600000024
v 0.00776427865 0.0143924999 0.00400000006
v 0.00776427865 0.0143924999 0.00600000024
v 0.00806790471 0.012232089 0.00400000006
v 0.00806790471 0.012232089 0.00600000024
v 0.00815051377 0.012494092 0.00400000006
v 0.00815051377 0.012494092 0.00600000024
v 0.0081954515 0.0127252769 0.00400000006
v 0.0081954515 0.0127252769 0.00600000024
v 0.00821700573 0.0129991484 0.00400000006
v 0.00821700573 0.0129991484 0.00600000024
v 0.00820878685 0.0132345164 0.00400000006
v 0.00820878685 0.0132345164 0.00600000024
v 0.00817600965 0.0134677362 0.00400000006
v 0.00817600965 0.0134677362 0.00600000024
v 0.00810722589 0.0137337041 0.00400000006
v 0.00810722589 0.0137337041 0.00600000024
v 0.00800654113 0.0139893079 0.00400000006
v 0.00800654113 0.0139893079 0.00600000024
v 0.0109992242 0.00501645744 0.00400000006
v 0.0109109998 0.00523482025 0.00600000024
v 0.0108985388 0.00527206004 0.00400000006
v 0.0108375847 0.00549954712 0.00600000024
v 0.0108297551 0.00553802848 0.00400000006
v 0.0108007419 0.00573215961 0.00600000024
v 0.0107969785 0.00577124834 0.00400000006
v 0.0107884169 0.00596734881 0.00600000024
v 0.010788759 0.00600661635 0.00400000006
v 0.0108051872 0.00624155462 0.00600000024
v 0.0108103132 0.00628048778 0.00400000006
v 0.0108460832 0.00647348821 0.00600000024
v 0.0108552516 0.00651167274 0.00400000006
v 0.010924108 0.00673689365 0.00600000024
v 0.01093786 0.00677367628 0.00400000006
v 0.0109992242 0.00691823959 0.00600000024
v 0.0112414861 0.0046132648 0.00400000006
v 0.011151408 0.0047419107 0.00600000024
v 0.0111303079 0.00477503031 0.00400000006
v 0.0110161293 0.00498101354 0.00600000024
v 0.0110161293 0.0069536835 0.00400000006
v 0.0110336518 0.00698882699 0.00600000024
v 0.0110517848 0.00702365935 0.00400000006
v 0.0111730814 0.00722553253 0.00600000024
v 0.0111953247 0.00725789547 0.00400000006
v 0.0112414861 0.00732143223 0.00600000024
v 0.0114754355 0.00434883386 0.00400000006
v 0.0113403201 0.00449121565 0.00600000024
v 0.0113148165 0.00452107638 0.00400000006
v 0.0112653923 0.00458211035 0.00600000024
v 0.0112653923 0.00735258698 0.00400000006
v 0.0113663399 0.0074728924 0.00600000024
v 0.0113928699 0.00750184476 0.00400000006
v 0.0114754355 0.00758586287 0.00600000024
v 0.0117478693 0.00412425637 0.00400000006
v 0.0115921438 0.00424374849 0.00600000024
v 0.011562283 0.00426925212 0.00400000006
v 0.0115039206 0.00432180285 0.00600000024
v 0.0115039206 0.00761289418 0.00400000006
v 0.0116531777 0.00774037302 0.00600000024
v 0.0116843331 0.00776427865 0.00400000006
v 0.0117478693 0.00781044066 0.00600000024
v 0.0119821048 0.00398071647 0.00400000006
v 0.0119475949 0.00399945408 0.00600000024
v 0.0119134164 0.00401879132 0.00400000006
v 0.0117802322 0.00410201401 0.00600000024
v 0.0117802322 0.00783268332 0.00400000006
v 0.0119821048 0.00795398057 0.00600000024
v 0.012232089 0.00386679262 0.00400000006
v 0.0120169377 0.00396258384 0.00600000024
v 0.0120169377 0.00797211349 0.00400000006
v 0.0120520818 0.00798963487 0.00600000024
v 0.0120875251 0.00800654113 0.00400000006
v 0.012232089 0.00806790471 0.00600000024
v 0.012494092 0.00378418326 0.00400000006
v 0.0122688711 0.00385304004 0.00600000024
v 0.0122688711 0.00808165669 0.00400000006
v 0.012494092 0.00815051377 0.00600000024
v 0.0127252769 0.00373924553 0.00400000006
v 0.0126864386 0.00374504983 0.00600000024
v 0.0126477075 0.00375153124 0.00400000006
v 0.0125322759 0.00377501577 0.00600000024
v 0.0125322759 0.00815968096 0.00400000006
v 0.0127252769 0.0081954515 0.00600000024
v 0.0129991484 0.0037176913 0.00400000006
v 0.0127642107 0.00373411983 0.00600000024
v 0.0127642107 0.0082005775 0.00400000006
v 0.0129991484 0.00821700573 0.00600000024
v 0.0132345164 0.00372591048 0.00400000006
v 0.0130384159 0.00371734858 0.00600000024
v 0.0130384159 0.00821734846 0.00400000006
v 0.0132345164 0.00820878685 0.00600000024
v 0.0133903944 0.00374504983 0.00400000006
v 0.0132736051 0.00372967422 0.00600000024
v 0.0134677362 0.00375868738 0.00400000006
v 0.0134291244 0.00375153124 0.00600000024
v 0.0132736051 0.00820502281 0.00400000006
v 0.0134677362 0.00817600965 0.00600000024
v 0.0137337041 0.00382747144 0.00400000006
v 0.0135062182 0.00376651645 0.00600000024
v 0.0135062182 0.00816818058 0.00400000006
v 0.0137337041 0.00810722589 0.00600000024
v 0.0139893079 0.0039281559 0.00400000006
v 0.0137709451 0.00383993179 0.00600000024
v 0.0137709451 0.00809476554 0.00400000006
v 0.0139893079 0.00800654113 0.00600000024
v 0.0141292381 0.00399945408 0.00400000006
v 0.0140247512 0.00394506186 0.00600000024
v 0.0142307341 0.00405924022 0.00400000006
v 0.0141634166 0.00401879132 0.00600000024
v 0.0140247512 0.00798963487 0.00400000006
v 0.0142307341 0.00787545681 0.00600000024
v 0.014484688 0.00424374849 0.00400000006
v 0.014263854 0.00408033967 0.00600000024
v 0.0144236553 0.00774037302 0.00400000006
v 0.014484688 0.00769094825 0.00600000024
v 0.014263854 0.00785435736 0.00400000006
v 0.0143924999 0.00776427865 0.00600000024
v 0.0147365129 0.00449121565 0.00400000006
v 0.0145145488 0.00426925212 0.00600000024
v 0.0147104919 0.0074728924 0.00400000006
v 0.0147365129 0.00744348109 0.00600000024
v 0.0146294069 0.00755833864 0.00400000006
v 0.0146294069 0.00755833864 0.00600000024
v 0.0148061836 0.000664047673 0.00400000006
v 0.0148061836 0.000664047673 0.00600000024
v 0.0149254251 0.0047419107 0.00400000006
v 0.0147620165 0.00452107638 0.00600000024
v 0.014986974 0.0048423484 0.00400000006
v 0.0149465251 0.00477503031 0.00600000024
v 0.0149037504 0.00722553253 0.00400000006
v 0.014986974 0.00709234834 0.00600000024
v 0.0147620165 0.00741362095 0.00400000006
v 0.0148815084 0.00725789547 0.00600000024
v 0.0150607026 0.00498101354 0.00400000006
v 0.0150063109 0.00487652689 0.00600000024
v 0.0151658332 0.00523482025 0.00400000006
v 0.0150776088 0.00501645744 0.00600000024
v 0.0152392483 0.00549954712 0.00400000006
v 0.015178293 0.00527206004 0.00600000024
v 0.0152470779 0.00553802848 0.00400000006
v 0.0152470779 0.00553802848 0.00600000024
v 0.0152307487 0.00647348821 0.00400000006
v 0.0152470779 0.00639666855 0.00600000024
v 0.015152725 0.00673689365 0.00400000006
v 0.0152215815 0.00651167274 0.00600000024
v 0.0150431812 0.00698882699 0.00400000006
v 0.0151389718 0.00677367628 0.00600000024
v 0.0150063109 0.00705817044 0.00400000006
v 0.0150250483 0.00702365935 0.00600000024
v 0.0152760911 0.00573215961 0.00400000006
v 0.0152542341 0.00557664037 0.00600000024
v 0.0152884161 0.00596734881 0.00400000006
v 0.0152798545 0.00577124834 0.00600000024
v 0.0152716458 0.00624155462 0.00400000006
v 0.015288074 0.00600661635 0.00600000024
v 0.0152542341 0.00635805666 0.00400000006
v 0.0152665198 0.00628048778 0.00600000024
v 0.0201094842 0.00596734881 -0.0230999994
v 0.0201094842 0.00596734881 0.00400000006
v 0.0201094842 0.00596734881 0.00600000024
v 0.0201094842 0.00596734881 0.0129999995
v 0.0284761095 0.0329726243 0.0129999995
v 0.0284761095 0.0329726243 0.0158000004
v 0.0284325671 0.0331774759 0.0129999995
v 0.0284325671 0.0331774759 0.0158000004
v 0.028380723 0.0334872913 0.0129999995
v 0.028380723 0.0334872913 0.0158000004
v 0.0283551979 0.033695159 0.0129999995
v 0.0283551979 0.033695159 0.0158000004
v 0.028336947 0.0339037919 0.0129999995
v 0.028336947 0.0339037919 0.0158000004
v 0.028323245 0.0342176151 0.0129999995
v 0.028323245 0.0342176151 0.0158000004
v 0.028323245 0.0344270444 0.0129999995
v 0.028323245 0.0344270444 0.0158000004
v 0.028336947 0.03474087 0.0129999995
v 0.028336947 0.03474087 0.0158000004
v 0.0283551979 0.0349495006 0.0129999995
v 0.0283551979 0.0349495006 0.0158000004
v 0.028380723 0.0351573682 0.0129999995
v 0.028380723 0.0351573682 0.0158000004
v 0.0284325671 0.0354671836 0.0129999995
v 0.0284325671 0.0354671836 0.0158000004
v 0.0284761095 0.0356720376 0.0129999995
v 0.0284761095 0.0356720376 0.0158000004
v 0.0287208486 0.032172122 0.0129999995
v 0.0287208486 0.032172122 0.0158000004
v 0.0286159921 0.0324682283 0.0129999995
v 0.0286159921 0.0324682283 0.0158000004
v 0.0285547614 0.0326685071 0.0129999995
v 0.0285547614 0.0326685071 0.0158000004
v 0.0285005569 0.0328707981 0.0129999995
v 0.0285005569 0.0328707981 0.0158000004
v 0.0285547614 0.0359761548 0.0129999995
v 0.0285547614 0.0359761548 0.0158000004
v 0.0286159921 0.0361764336 0.0129999995
v 0.0286159921 0.0361764336 0.0158000004
v 0.0287208486 0.0364725375 0.0129999995
v 0.0287208486 0.0364725375 0.0158000004
v 0.0289295673 0.0316921043 0.0129999995
v 0.0289295673 0.0316921043 0.0158000004
v 0.0287993002 0.0319779444 0.0129999995
v 0.0287993002 0.0319779444 0.0158000004
v 0.0287592268 0.0320746899 0.0129999995
v 0.0287592268 0.0320746899 0.0158000004
v 0.0287993002 0.0366667175 0.0129999995
v 0.0287993002 0.0366667175 0.0158000004
v 0.0289295673 0.0369525576 0.0129999995
v 0.0289295673 0.0369525576 0.0158000004
v 0.0289762902 0.0370462728 0.0129999995
v 0.0289762902 0.0370462728 0.0158000004
v 0.0291793275 0.0312321019 0.0129999995
v 0.0291793275 0.0312321019 0.0158000004
v 0.0290746117 0.0314134717 0.0129999995
v 0.0290746117 0.0314134717 0.0158000004
v 0.0290246439 0.0315055013 0.0129999995
v 0.0290246439 0.0315055013 0.0158000004
v 0.0290746117 0.0372311878 0.0129999995
v 0.0290746117 0.0372311878 0.0158000004
v 0.0291793275 0.03741256 0.0129999995
v 0.0291793275 0.03741256 0.0158000004
v 0.0292340422 0.0375018454 0.0129999995
v 0.0292340422 0.0375018454 0.0158000004
v 0.029348104 0.0309671736 0.0129999995
v 0.029348104 0.0309671736 0.0158000004
v 0.0292903066 0.0310544968 0.0129999995
v 0.0292903066 0.0310544968 0.0158000004
v 0.029348104 0.0376774883 0.0129999995
v 0.029348104 0.0376774883 0.0158000004
v 0.0294682288 0.0378490424 0.0129999995
v 0.0294682288 0.0378490424 0.0158000004
v 0.0297260642 0.0304656053 0.0129999995
v 0.0297260642 0.0304656053 0.0158000004
v 0.0295305181 0.030711441 0.0129999995
v 0.0295305181 0.030711441 0.0158000004
v 0.0295305181 0.0379332209 0.0129999995
v 0.0295305181 0.0379332209 0.0158000004
v 0.0297260642 0.0381790566 0.0129999995
v 0.0297260642 0.0381790566 0.0158000004
v 0.0299342084 0.030230341 0.0129999995
v 0.0299342084 0.030230341 0.0158000004
v 0.0297940731 0.0303859758 0.0129999995
v 0.0297940731 0.0303859758 0.0158000004
v 0.0299342084 0.0384143209 0.0129999995
v 0.0299342084 0.0384143209 0.0158000004
v 0.030230341 0.0299342084 0.0129999995
v 0.030230341 0.0299342084 0.0158000004
v 0.030079689 0.030079689 0.0129999995
v 0.0300062919 0.0301543808 0.0158000004
v 0.0300062919 0.0384902811 0.0129999995
v 0.0300062919 0.0384902811 0.0158000004
v 0.030230341 0.0387104535 0.0129999995
v 0.030230341 0.0387104535 0.0158000004
v 0.0304656053 0.0297260642 0.0129999995
v 0.0304656053 0.0297260642 0.0158000004
v 0.0303075457 0.0298634624 0.0129999995
v 0.0303075457 0.0298634624 0.0158000004
v 0.0304656053 0.0389185977 0.0129999995
v 0.0304656053 0.0389185977 0.0158000004
v 0.0305464077 0.0296594548 0.0129999995
v 0.0305464077 0.0296594548 0.0158000004
v 0.0305464077 0.0389852071 0.0129999995
v 0.0305464077 0.0389852071 0.0158000004
v 0.030711441 0.0391141438 0.0129999995
v 0.030711441 0.0391141438 0.0158000004
v 0.0307956195 0.0294682288 0.0129999995
v 0.0307956195 0.0294682288 0.0158000004
v 0.0308808708 0.0392372417 0.0129999995
v 0.0308808708 0.0392372417 0.0158000004
v 0.0309671736 0.0392965555 0.0129999995
v 0.0309671736 0.0392965555 0.0158000004
v 0.0311428142 0.0292340422 0.0129999995
v 0.0311428142 0.0292340422 0.0158000004
v 0.0310544968 0.0292903066 0.0129999995
v 0.0310544968 0.0292903066 0.0158000004
v 0.0312321019 0.0394653344 0.0129999995
v 0.0312321019 0.0394653344 0.0158000004
v 0.0313223314 0.0291261792 0.0129999995
v 0.0313223314 0.0291261792 0.0158000004
v 0.0314857745 0.0333456254 0.0158000004
v 0.0314385462 0.033495419 0.0189999998
v 0.0314245534 0.0335458732 0.0158000004
v 0.031377449 0.0337499046 0.0189999998
v 0.0313679075 0.0338013864 0.0158000004
v 0.0313446927 0.0339567232 0.0189999998
v 0.0313387656 0.0340087461 0.0158000004
v 0.0313241577 0.0342176318 0.0189999998
v 0.0313227868 0.0342699742 0.0158000004
v 0.0313264418 0.0344793391 0.0189999998
v 0.031329639 0.0345316005 0.0158000004
v 0.0313515258 0.0347398496 0.0189999998
v 0.0313592649 0.0347916341 0.0158000004
v 0.0313992214 0.0349971843 0.0189999998
v 0.0314114428 0.0350480962 0.0158000004
v 0.0314691615 0.0352493811 0.0189999998
v 0.0314857745 0.0352990341 0.0158000004
v 0.0314857745 0.0352990341 0.0189999998
v 0.0314134717 0.0395700479 0.0129999995
v 0.0314134717 0.0395700479 0.0158000004
v 0.0315983868 0.0289762902 0.0129999995
v 0.0315983868 0.0289762902 0.0158000004
v 0.0315055013 0.0290246439 0.0129999995
v 0.0315055013 0.0290246439 0.0158000004
v 0.0317242551 0.03282233 0.0158000004
v 0.0316493106 0.0329603601 0.0189999998
v 0.031625948 0.0330072165 0.0158000004
v 0.0315215898 0.0332472277 0.0189999998
v 0.031503253 0.0332962704 0.0158000004
v 0.031503253 0.0332962704 0.0189999998
v 0.031503253 0.0353483915 0.0158000004
v 0.0315608168 0.035494523 0.0189999998
v 0.0315816951 0.0355425406 0.0158000004
v 0.0316734886 0.0357307458 0.0189999998
v 0.0316984725 0.0357767582 0.0158000004
v 0.0317242551 0.0358223295 0.0189999998
v 0.0316921043 0.0397150946 0.0129999995
v 0.0316921043 0.0397150946 0.0158000004
v 0.0317866206 0.0288844848 0.0129999995
v 0.0317866206 0.0288844848 0.0158000004
v 0.0319908929 0.0324343681 0.0158000004
v 0.0319582987 0.0324753451 0.0189999998
v 0.0319264245 0.0325168848 0.0158000004
v 0.0317781854 0.0327325726 0.0189999998
v 0.0317508292 0.0327772164 0.0158000004
v 0.0317508292 0.0327772164 0.0189999998
v 0.0317508292 0.0358674455 0.0158000004
v 0.0318352175 0.0359999084 0.0189999998
v 0.0318648744 0.0360430598 0.0158000004
v 0.0319908929 0.0362102914 0.0189999998
v 0.0319779444 0.0398453593 0.0129999995
v 0.0319779444 0.0398453593 0.0158000004
v 0.032172122 0.0287208486 0.0129999995
v 0.032172122 0.0287208486 0.0158000004
v 0.0320746899 0.0287592268 0.0129999995
v 0.0320746899 0.0287592268 0.0158000004
v 0.0322010112 0.0322010112 0.0158000004
v 0.0322010112 0.0322010112 0.0189999998
v 0.0321282697 0.0322763348 0.0158000004
v 0.0320241976 0.0323939681 0.0189999998
v 0.0320241976 0.0362506938 0.0158000004
v 0.0322383547 0.0364803505 0.0189999998
v 0.032172122 0.0399238133 0.0129999995
v 0.032172122 0.0399238133 0.0158000004
v 0.0322702098 0.028684175 0.0129999995
v 0.0322702098 0.028684175 0.0158000004
v 0.0324753451 0.0319582987 0.0158000004
v 0.0324343681 0.0319908929 0.0189999998
v 0.0323939681 0.0320241976 0.0158000004
v 0.0322763348 0.0321282697 0.0189999998
v 0.0322763348 0.0365163922 0.0158000004
v 0.0324753451 0.0366863632 0.0189999998
v 0.0323689222 0.0399954414 0.0129999995
v 0.0323689222 0.0399954414 0.0158000004
v 0.0324682283 0.0400286674 0.0129999995
v 0.0324682283 0.0400286674 0.0158000004
v 0.0325680995 0.0285845017 0.0129999995
v 0.0325680995 0.0285845017 0.0158000004
v 0.0327325726 0.0317781854 0.0158000004
v 0.0325168848 0.0319264245 0.0189999998
v 0.0325168848 0.0367182374 0.0158000004
v 0.0325589752 0.036749382 0.0189999998
v 0.0326016021 0.0367797875 0.0158000004
v 0.0327325726 0.0368664742 0.0189999998
v 0.0326685071 0.0400899029 0.0129999995
v 0.0326685071 0.0400899029 0.0158000004
v 0.0329726243 0.0284761095 0.0129999995
v 0.0329726243 0.0284761095 0.0158000004
v 0.0327694154 0.0285267758 0.0129999995
v 0.0327694154 0.0285267758 0.0158000004
v 0.0329603601 0.0316493106 0.0158000004
v 0.03282233 0.0317242551 0.0189999998
v 0.0327772164 0.0317508292 0.0158000004
v 0.0327772164 0.0317508292 0.0189999998
v 0.0327772164 0.0368938327 0.0158000004
v 0.0329603601 0.0369953489 0.0189999998
v 0.0329726243 0.0401685524 0.0129999995
v 0.0329726243 0.0401685524 0.0158000004
v 0.0330748606 0.0284534454 0.0129999995
v 0.0330748606 0.0284534454 0.0158000004
v 0.0332472277 0.0315215898 0.0158000004
v 0.0330072165 0.031625948 0.0189999998
v 0.0330072165 0.0370187116 0.0158000004
v 0.0332472277 0.0371230721 0.0189999998
v 0.0331774759 0.0402120924 0.0129999995
v 0.0331774759 0.0402120924 0.0158000004
v 0.0332804418 0.0284134841 0.0129999995
v 0.0332804418 0.0284134841 0.0158000004
v 0.033495419 0.0314385462 0.0158000004
v 0.0333456254 0.0314857745 0.0189999998
v 0.0332962704 0.031503253 0.0158000004
v 0.0332962704 0.031503253 0.0189999998
v 0.0332962704 0.0371414089 0.0158000004
v 0.033495419 0.0372061157 0.0189999998
v 0.0333837247 0.0402484608 0.0129999995
v 0.0333837247 0.0402484608 0.0158000004
v 0.0334872913 0.0402639389 0.0129999995
v 0.0334872913 0.0402639389 0.0158000004
v 0.0335911155 0.0283670545 0.0129999995
v 0.0335911155 0.0283670545 0.0158000004
v 0.0337499046 0.031377449 0.0158000004
v 0.0335458732 0.0314245534 0.0189999998
v 0.0335458732 0.0372201085 0.0158000004
v 0.0336474776 0.0372454405 0.0189999998
v 0.0336985946 0.0372567725 0.0158000004
v 0.0337499046 0.0372672129 0.0189999998
v 0.033695159 0.040289464 0.0129999995
v 0.033695159 0.040289464 0.0158000004
v 0.0337993956 0.0283451629 0.0129999995
v 0.0337993956 0.0283451629 0.0158000004
v 0.0339567232 0.0313446927 0.0158000004
v 0.0338013864 0.0313679075 0.0189999998
v 0.0338013864 0.0372767544 0.0158000004
v 0.0339567232 0.0372999692 0.0189999998
v 0.0339037919 0.0403077126 0.0129999995
v 0.0339037919 0.0403077126 0.0158000004
v 0.0340083146 0.0283305526 0.0129999995
v 0.0340083146 0.0283305526 0.0158000004
v 0.0342176318 0.0313241577 0.0158000004
v 0.0340087461 0.0313387656 0.0189999998
v 0.0340087461 0.0373058963 0.0158000004
v 0.0342176318 0.0373205018 0.0189999998
v 0.0342176151 0.0403214169 0.0129999995
v 0.0342176151 0.0403214169 0.0158000004
v 0.034322331 0.0283223295 0.0129999995
v 0.034322331 0.0283223295 0.0158000004
v 0.0344793391 0.0313264418 0.0158000004
v 0.0342699742 0.0313227868 0.0189999998
v 0.0342699742 0.0373218727 0.0158000004
v 0.0344793391 0.0373182201 0.0189999998
v 0.0344270444 0.0403214169 0.0129999995
v 0.0344270444 0.0403214169 0.0158000004
v 0.0345317268 0.0283259845 0.0129999995
v 0.0345317268 0.0283259845 0.0158000004
v 0.0347398496 0.0313515258 0.0158000004
v 0.0345316005 0.031329639 0.0189999998
v 0.0345316005 0.0373150229 0.0158000004
v 0.0347398496 0.0372931337 0.0189999998
v 0.03474087 0.0403077126 0.0129999995
v 0.03474087 0.0403077126 0.0158000004
v 0.0346051741 0.0487473106 -0.0230999994
v 0.0346051741 0.0487473106 0.00400000006
v 0.0346051741 0.0487473106 0.00600000024
v 0.0346051741 0.0487473106 0.0129999995
v 0.034845264 0.0283451629 0.0129999995
v 0.034845264 0.0283451629 0.0158000004
v 0.0349971843 0.0313992214 0.0158000004
v 0.0347916341 0.0313592649 0.0189999998
v 0.0349971843 0.0372454405 0.0158000004
v 0.0349971843 0.0372454405 0.0189999998
v 0.0347916341 0.0372853947 0.0158000004
v 0.0349460649 0.0372567725 0.0189999998
v 0.0349495006 0.040289464 0.0129999995
v 0.0349495006 0.040289464 0.0158000004
v 0.0350535464 0.0283670545 0.0129999995
v 0.0350535464 0.0283670545 0.0158000004
v 0.0352493811 0.0314691615 0.0158000004
v 0.0350480962 0.0314114428 0.0189999998
v 0.0350480962 0.0372332168 0.0158000004
v 0.0352493811 0.0371755004 0.0189999998
v 0.0351573682 0.0402639389 0.0129999995
v 0.0351573682 0.0402639389 0.0158000004
v 0.0352609372 0.0283962011 0.0129999995
v 0.0352609372 0.0283962011 0.0158000004
v 0.0352990341 0.0314857745 0.0158000004
v 0.0352990341 0.0314857745 0.0189999998
v 0.035494523 0.0315608168 0.0158000004
v 0.0353483915 0.031503253 0.0189999998
v 0.0352990341 0.0371588874 0.0158000004
v 0.035494523 0.0370838451 0.0189999998
v 0.0354671836 0.0402120924 0.0129999995
v 0.0354671836 0.0402120924 0.0158000004
v 0.0355698013 0.0284534454 0.0129999995
v 0.0355698013 0.0284534454 0.0158000004
v 0.0357307458 0.0316734886 0.0158000004
v 0.0355425406 0.0315816951 0.0189999998
v 0.0356843019 0.0369953489 0.0158000004
v 0.0357307458 0.0369711733 0.0189999998
v 0.0355425406 0.0370629668 0.0158000004
v 0.0356374431 0.0370187116 0.0189999998
v 0.0356720376 0.0401685524 0.0129999995
v 0.0356720376 0.0401685524 0.0158000004
v 0.0357738614 0.0285005569 0.0129999995
v 0.0357738614 0.0285005569 0.0158000004
v 0.0358223295 0.0317242551 0.0158000004
v 0.0357767582 0.0316984725 0.0189999998
v 0.0359999084 0.0318352175 0.0158000004
v 0.0358674455 0.0317508292 0.0189999998
v 0.0357767582 0.0369461894 0.0158000004
v 0.0359999084 0.036809442 0.0189999998
v 0.0359761548 0.0400899029 0.0129999995
v 0.0359761548 0.0400899029 0.0158000004
v 0.03607656 0.0285845017 0.0129999995
v 0.03607656 0.0285845017 0.0158000004
v 0.0362102914 0.0319908929 0.0158000004
v 0.0360430598 0.0318648744 0.0189999998
v 0.0360856867 0.036749382 0.0158000004
v 0.0362102914 0.036653769 0.0189999998
v 0.0360430598 0.0367797875 0.0158000004
v 0.0360430598 0.0367797875 0.0189999998
v 0.0361764336 0.0400286674 0.0129999995
v 0.0361764336 0.0400286674 0.0158000004
v 0.0362757397 0.0286492181 0.0129999995
v 0.0362757397 0.0286492181 0.0158000004
v 0.0364803505 0.0322383547 0.0158000004
v 0.0362506938 0.0320241976 0.0189999998
v 0.0364063048 0.0364803505 0.0158000004
v 0.0364803505 0.0364063048 0.0189999998
v 0.0362506938 0.0366204643 0.0158000004
v 0.0363683248 0.0365163922 0.0189999998
v 0.0364725375 0.0399238133 0.0129999995
v 0.0364725375 0.0399238133 0.0158000004
v 0.0365699697 0.0287592268 0.0129999995
v 0.0365699697 0.0287592268 0.0158000004
v 0.0366863632 0.0324753451 0.0158000004
v 0.0365163922 0.0322763348 0.0189999998
v 0.036749382 0.0325589752 0.0158000004
v 0.0367182374 0.0325168848 0.0189999998
v 0.036653769 0.0362102914 0.0158000004
v 0.036749382 0.0360856867 0.0189999998
v 0.0365163922 0.0363683248 0.0158000004
v 0.0366204643 0.0362506938 0.0189999998
v 0.0366667175 0.0398453593 0.0129999995
v 0.0366667175 0.0398453593 0.0158000004
v 0.0367627501 0.0288410568 0.0129999995
v 0.0367627501 0.0288410568 0.0158000004
v 0.0368664742 0.0327325726 0.0158000004
v 0.0367797875 0.0326016021 0.0189999998
v 0.0369953489 0.0329603601 0.0158000004
v 0.0368938327 0.0327772164 0.0189999998
v 0.0369711733 0.0357307458 0.0158000004
v 0.0369953489 0.0356843019 0.0189999998
v 0.036809442 0.0359999084 0.0158000004
v 0.0369461894 0.0357767582 0.0189999998
v 0.0367797875 0.0360430598 0.0158000004
v 0.0367797875 0.0360430598 0.0189999998
v 0.0369525576 0.0397150946 0.0129999995
v 0.0369525576 0.0397150946 0.0158000004
v 0.0368580389 0.0397601771 0.0129999995
v 0.0368580389 0.0397601771 0.0158000004
v 0.0370462728 0.0289762902 0.0129999995
v 0.0370462728 0.0289762902 0.0158000004
v 0.0371391606 0.0290246439 0.0129999995
v 0.0371391606 0.0290246439 0.0158000004
v 0.0371230721 0.0332472277 0.0158000004
v 0.0370187116 0.0330072165 0.0189999998
v 0.0372061157 0.033495419 0.0158000004
v 0.0371414089 0.0332962704 0.0189999998
v 0.0372454405 0.0336474776 0.0158000004
v 0.0372201085 0.0335458732 0.0189999998
v 0.0372454405 0.0349971843 0.0158000004
v 0.0372454405 0.0349971843 0.0189999998
v 0.0371755004 0.0352493811 0.0158000004
v 0.0372332168 0.0350480962 0.0189999998
v 0.0370838451 0.035494523 0.0158000004
v 0.0371588874 0.0352990341 0.0189999998
v 0.0370187116 0.0356374431 0.0158000004
v 0.0370629668 0.0355425406 0.0189999998
v 0.0372311878 0.0395700479 0.0129999995
v 0.0372311878 0.0395700479 0.0158000004
v 0.0373223305 0.0291261792 0.0129999995
v 0.0373223305 0.0291261792 0.0158000004
v 0.0372672129 0.0337499046 0.0158000004
v 0.0372567725 0.0336985946 0.0189999998
v 0.0372999692 0.0339567232 0.0158000004
v 0.0372767544 0.0338013864 0.0189999998
v 0.0373205018 0.0342176318 0.0158000004
v 0.0373058963 0.0340087461 0.0189999998
v 0.0373182201 0.0344793391 0.0158000004
v 0.0373218727 0.0342699742 0.0189999998
v 0.0372931337 0.0347398496 0.0158000004
v 0.0373150229 0.0345316005 0.0189999998
v 0.0372567725 0.0349460649 0.0158000004
v 0.0372853947 0.0347916341 0.0189999998
v 0.03741256 0.0394653344 0.0129999995
v 0.03741256 0.0394653344 0.0158000004
v 0.0373223305 0.0395184827 0.0129999995
v 0.0373223305 0.0395184827 0.0158000004
v 0.0375018454 0.0292340422 0.0129999995
v 0.0375018454 0.0292340422 0.0158000004
v 0.0375901651 0.0292903066 0.0129999995
v 0.0375901651 0.0292903066 0.0158000004
v 0.0376774883 0.0392965555 0.0129999995
v 0.0376774883 0.0392965555 0.0158000004
v 0.0377637887 0.0294074178 0.0129999995
v 0.0377637887 0.0294074178 0.0158000004
v 0.0379332209 0.0295305181 0.0129999995
v 0.0379332209 0.0295305181 0.0158000004
v 0.0379332209 0.0391141438 0.0129999995
v 0.0379332209 0.0391141438 0.0158000004
v 0.0380163002 0.0295942664 0.0129999995
v 0.0380163002 0.0295942664 0.0158000004
v 0.0381790566 0.0389185977 0.0129999995
v 0.0381790566 0.0389185977 0.0158000004
v 0.0380163002 0.0390503955 0.0129999995
v 0.0380163002 0.0390503955 0.0158000004
v 0.0382586837 0.0297940731 0.0129999995
v 0.0382586837 0.0297940731 0.0158000004
v 0.0384902811 0.0300062919 0.0129999995
v 0.0384902811 0.0300062919 0.0158000004
v 0.0384902811 0.03863837 0.0129999995
v 0.0384902811 0.03863837 0.0158000004
v 0.0383371139 0.0387811995 0.0129999995
v 0.0383371139 0.0387811995 0.0158000004
v 0.0385649705 0.030079689 0.0129999995
v 0.0385649705 0.030079689 0.0158000004
v 0.0387104535 0.0384143209 0.0129999995
v 0.0387104535 0.0384143209 0.0158000004
v 0.0385649705 0.0385649705 0.0129999995
v 0.0385649705 0.0385649705 0.0158000004
v 0.0387811995 0.0303075457 0.0129999995
v 0.0387811995 0.0303075457 0.0158000004
v 0.0389852071 0.0305464077 0.0129999995
v 0.0389852071 0.0305464077 0.0158000004
v 0.0389852071 0.0380982518 0.0129999995
v 0.0389852071 0.0380982518 0.0158000004
v 0.0388505888 0.0382586837 0.0129999995
v 0.0388505888 0.0382586837 0.0158000004
v 0.0390503955 0.0306283617 0.0129999995
v 0.0390503955 0.0306283617 0.0158000004
v 0.0391764331 0.0307956195 0.0129999995
v 0.0391764331 0.0307956195 0.0158000004
v 0.0392372417 0.0377637887 0.0129999995
v 0.0392372417 0.0377637887 0.0158000004
v 0.0390503955 0.0380163002 0.0129999995
v 0.0390503955 0.0380163002 0.0158000004
v 0.0392965555 0.0309671736 0.0129999995
v 0.0392965555 0.0309671736 0.0158000004
v 0.039354353 0.0310544968 0.0129999995
v 0.039354353 0.0310544968 0.0158000004
v 0.0394653344 0.03741256 0.0129999995
v 0.0394653344 0.03741256 0.0158000004
v 0.0394106197 0.0375018454 0.0129999995
v 0.0394106197 0.0375018454 0.0158000004
v 0.0394839072 0.0482411671 0.00400000006
v 0.0394839072 0.0482411671 0.00600000024
v 0.0394430113 0.0484731007 0.00400000006
v 0.0394430113 0.0484731007 0.00600000024
v 0.0394262409 0.0487473106 0.00400000006
v 0.0394262409 0.0487473106 0.00600000024
v 0.0394385672 0.0489824963 0.00400000006
v 0.0394385672 0.0489824963 0.00600000024
v 0.03947541 0.0492151117 0.00400000006
v 0.03947541 0.0492151117 0.00600000024
v 0.0394930768 0.0492916346 0.00400000006
v 0.0394930768 0.0492916346 0.00600000024
v 0.0395184827 0.0313223314 0.0129999995
v 0.0395184827 0.0313223314 0.0158000004
v 0.0396200156 0.0315055013 0.0129999995
v 0.0396200156 0.0315055013 0.0158000004
v 0.0397150946 0.0369525576 0.0129999995
v 0.0397150946 0.0369525576 0.0158000004
v 0.0396683693 0.0370462728 0.0129999995
v 0.0396683693 0.0370462728 0.0158000004
v 0.0395184827 0.0373223305 0.0129999995
v 0.0395184827 0.0373223305 0.0158000004
v 0.0396714759 0.0477258301 0.00400000006
v 0.0396714759 0.0477258301 0.00600000024
v 0.0395619321 0.0479777622 0.00400000006
v 0.0395619321 0.0479777622 0.00600000024
v 0.0395029068 0.0481649637 0.00400000006
v 0.0395029068 0.0481649637 0.00600000024
v 0.0395488238 0.0494798374 0.00400000006
v 0.0395488238 0.0494798374 0.00600000024
v 0.0396539545 0.0497336435 0.00400000006
v 0.0396539545 0.0497336435 0.00600000024
v 0.0397476149 0.0499061441 0.00400000006
v 0.0397476149 0.0499061441 0.00600000024
v 0.0397601771 0.0317866206 0.0129999995
v 0.0397601771 0.0317866206 0.0158000004
v 0.0398854327 0.0320746899 0.0129999995
v 0.0398854327 0.0320746899 0.0158000004
v 0.0399604869 0.0322702098 0.0129999995
v 0.0399604869 0.0322702098 0.0158000004
v 0.0399954414 0.0362757397 0.0129999995
v 0.0399954414 0.0362757397 0.0158000004
v 0.0398854327 0.0365699697 0.0129999995
v 0.0398854327 0.0365699697 0.0158000004
v 0.0398036027 0.0367627501 0.0129999995
v 0.0398036027 0.0367627501 0.0158000004
v 0.0398109055 0.0474891233 0.00400000006
v 0.0398109055 0.0474891233 0.00600000024
v 0.0397681332 0.0475549889 0.00400000006
v 0.0397681332 0.0475549889 0.00600000024
v 0.0397892332 0.0499727488 0.00400000006
v 0.0397892332 0.0499727488 0.00600000024
v 0.0399781442 0.0502234411 0.00400000006
v 0.0399781442 0.0502234411 0.00600000024
v 0.0399084735 0.0540506077 0.00400000006
v 0.0399084735 0.0540506077 0.00600000024
v 0.0400286674 0.0324682283 0.0129999995
v 0.0400286674 0.0324682283 0.0158000004
v 0.0400601578 0.0325680995 0.0129999995
v 0.0400601578 0.0325680995 0.0158000004
v 0.0401178837 0.0327694154 0.0129999995
v 0.0401178837 0.0327694154 0.0158000004
v 0.0401912165 0.0330748606 0.0129999995
v 0.0401912165 0.0330748606 0.0158000004
v 0.0402311754 0.0332804418 0.0129999995
v 0.0402311754 0.0332804418 0.0158000004
v 0.0402484608 0.0352609372 0.0129999995
v 0.0402484608 0.0352609372 0.0158000004
v 0.0401912165 0.0355698013 0.0129999995
v 0.0401912165 0.0355698013 0.0158000004
v 0.040144105 0.0357738614 0.0129999995
v 0.040144105 0.0357738614 0.0158000004
v 0.0400601578 0.03607656 0.0129999995
v 0.0400601578 0.03607656 0.0158000004
v 0.0400041628 0.0472417641 0.00400000006
v 0.0400041628 0.0472417641 0.00600000024
v 0.040229969 0.0504709101 0.00400000006
v 0.040229969 0.0504709101 0.00600000024
v 0.0402639389 0.0334872913 0.0129999995
v 0.0402639389 0.0334872913 0.0158000004
v 0.0402776051 0.0335911155 0.0129999995
v 0.0402776051 0.0335911155 0.0158000004
v 0.0402994967 0.0337993956 0.0129999995
v 0.0402994967 0.0337993956 0.0158000004
v 0.0403141069 0.0340083146 0.0129999995
v 0.0403141069 0.0340083146 0.0158000004
v 0.0403223324 0.034322331 0.0129999995
v 0.0403223324 0.034322331 0.0158000004
v 0.040318675 0.0345317268 0.0129999995
v 0.040318675 0.0345317268 0.0158000004
v 0.0402994967 0.034845264 0.0129999995
v 0.0402994967 0.034845264 0.0158000004
v 0.0402776051 0.0350535464 0.0129999995
v 0.0402776051 0.0350535464 0.0158000004
v 0.040260272 0.0469987297 0.00400000006
v 0.040260272 0.0469987297 0.00600000024
v 0.040260272 0.0504958868 0.00400000006
v 0.040260272 0.0504958868 0.00600000024
v 0.040483923 0.0506554174 0.00400000006
v 0.040483923 0.0506554174 0.00600000024
v 0.0406547642 0.0467425442 0.00400000006
v 0.0406547642 0.0467425442 0.00600000024
v 0.0405174065 0.0468186808 0.00400000006
v 0.0405174065 0.0468186808 0.00600000024
v 0.0406199312 0.050733943 0.00400000006
v 0.0406199312 0.050733943 0.00600000024
v 0.0407253504 0.0507865 0.00400000006
v 0.0407253504 0.0507865 0.00600000024
v 0.0407610846 0.0466918325 0.00400000006
v 0.0407610846 0.0466918325 0.00600000024
v 0.0409809542 0.0508871841 0.00400000006
v 0.0409809542 0.0508871841 0.00600000024
v 0.041018405 0.0465956211 0.00400000006
v 0.041018405 0.0465956211 0.00600000024
v 0.0412469196 0.0509559679 0.00400000006
v 0.0412469196 0.0509559679 0.00600000024
v 0.0412855339 0.0465314913 0.00400000006
v 0.0412855339 0.0465314913 0.00600000024
v 0.0414801407 0.0509887457 0.00400000006
v 0.0414801407 0.0509887457 0.00600000024
v 0.0415977192 0.0464986801 0.00400000006
v 0.0415977192 0.0464986801 0.00600000024
v 0.041519289 0.0465027905 0.00400000006
v 0.041519289 0.0465027905 0.00600000024
v 0.0417155075 0.0509969664 0.00400000006
v 0.0417155075 0.0509969664 0.00600000024
v 0.0417547655 0.0464986801 0.00400000006
v 0.0417547655 0.0464986801 0.00600000024
v 0.0417939949 0.046500392 0.00400000006
v 0.0417939949 0.046500392 0.00600000024
v 0.0419893789 0.0509754133 0.00400000006
v 0.0419893789 0.0509754133 0.00600000024
v 0.0420282173 0.0465250111 0.00400000006
v 0.0420282173 0.0465250111 0.00600000024
v 0.0422205639 0.0509304762 0.00400000006
v 0.0422205639 0.0509304762 0.00600000024
v 0.0422585821 0.0465739775 0.00400000006
v 0.0422585821 0.0465739775 0.00600000024
v 0.0424825668 0.0508478642 0.00400000006
v 0.0424825668 0.0508478642 0.00600000024
v 0.0425191069 0.0466611433 0.00400000006
v 0.0425191069 0.0466611433 0.00600000024
v 0.0427325535 0.0467606783 0.00400000006
v 0.0427325535 0.0467606783 0.00600000024
v 0.0427325535 0.050733943 0.00400000006
v 0.0427325535 0.050733943 0.00600000024
v 0.0426977205 0.0507520723 0.00400000006
v 0.0426977205 0.0507520723 0.00600000024
v 0.0427670622 0.0467794132 0.00400000006
v 0.0427670622 0.0467794132 0.00600000024
v 0.0429987574 0.0505675983 0.00400000006
v 0.0429987574 0.0505675983 0.00600000024
v 0.043030324 0.0469503784 0.00400000006
v 0.043030324 0.0469503784 0.00600000024
v 0.0431225109 0.0470237064 0.00400000006
v 0.0431225109 0.0470237064 0.00600000024
v 0.0432392216 0.0503658247 0.00400000006
v 0.0432392216 0.0503658247 0.00600000024
v 0.0430614805 0.0505203342 0.00400000006
v 0.0430614805 0.0505203342 0.00600000024
v 0.043267231 0.0471563196 0.00400000006
v 0.043267231 0.0471563196 0.00600000024
v 0.0433743382 0.0472711754 0.00400000006
v 0.0433743382 0.0472711754 0.00600000024
v 0.0434965277 0.0500698233 0.00400000006
v 0.0434965277 0.0500698233 0.00600000024
v 0.043267231 0.0503382969 0.00400000006
v 0.043267231 0.0503382969 0.00600000024
v 0.0435193348 0.0474567604 0.00400000006
v 0.0435193348 0.0474567604 0.00600000024
v 0.0435632515 0.0475218725 0.00400000006
v 0.0435632515 0.0475218725 0.00600000024
v 0.0436985254 0.047760973 0.00400000006
v 0.0436985254 0.047760973 0.00600000024
v 0.0437473774 0.0496264553 0.00400000006
v 0.0437473774 0.0496264553 0.00600000024
v 0.0436810064 0.0497687864 0.00400000006
v 0.0436810064 0.0497687864 0.00600000024
v 0.0435415745 0.0500054932 0.00400000006
v 0.0435415745 0.0500054932 0.00600000024
v 0.0437624025 0.0479044437 0.00400000006
v 0.0437624025 0.0479044437 0.00600000024
v 0.0438036585 0.0480147791 0.00400000006
v 0.0438036585 0.0480147791 0.00600000024
v 0.0438770723 0.0482795095 0.00400000006
v 0.0438770723 0.0482795095 0.00600000024
v 0.0439139175 0.0485121202 0.00400000006
v 0.0439139175 0.0485121202 0.00600000024
v 0.0439259005 0.0487865782 0.00400000006
v 0.0439259005 0.0487865782 0.00600000024
v 0.0439094687 0.0490215158 0.00400000006
v 0.0439094687 0.0490215158 0.00600000024
v 0.0438685751 0.0492534494 0.00400000006
v 0.0438685751 0.0492534494 0.00600000024
v 0.0437905502 0.0495168543 0.00400000006
v 0.0437905502 0.0495168543 0.00600000024
v 0.0464976501 0.0417155075 0.00400000006
v 0.0464976501 0.0417155075 0.00600000024
v 0.0464986801 0.0417547655 0.00400000006
v 0.0464986801 0.0417547655 0.00600000024
v 0.0467081165 0.0407253504 0.00400000006
v 0.0467081165 0.0407253504 0.00600000024
v 0.0466074324 0.0409809542 0.00400000006
v 0.0466074324 0.0409809542 0.00600000024
v 0.0465386486 0.0412469196 0.00400000006
v 0.0465386486 0.0412469196 0.00600000024
v 0.0465058708 0.0414801407 0.00400000006
v 0.0465058708 0.0414801407 0.00600000024
v 0.046500392 0.041558485 0.00400000006
v 0.046500392 0.041558485 0.00600000024
v 0.046519208 0.0419893789 0.00400000006
v 0.046519208 0.0419893789 0.00600000024
v 0.0465641451 0.0422205639 0.00400000006
v 0.0465641451 0.0422205639 0.00600000024
v 0.0466467524 0.0424825668 0.00400000006
v 0.0466467524 0.0424825668 0.00600000024
v 0.0467425442 0.0426977205 0.00400000006
v 0.0467425442 0.0426977205 0.00600000024
v 0.0468391991 0.040483923 0.00400000006
v 0.0468391991 0.040483923 0.00600000024
v 0.0467606783 0.0406199312 0.00400000006
v 0.0467606783 0.0406199312 0.00600000024
v 0.0467606783 0.0427325535 0.00400000006
v 0.0467606783 0.0427325535 0.00600000024
v 0.0469270229 0.0429987574 0.00400000006
v 0.0469270229 0.0429987574 0.00600000024
v 0.0469987297 0.0430922127 0.00400000006
v 0.0469987297 0.0430922127 0.00600000024
v 0.0470237064 0.040229969 0.00400000006
v 0.0470237064 0.040229969 0.00600000024
v 0.0471287966 0.0432392216 0.00400000006
v 0.0471287966 0.0432392216 0.00600000024
v 0.0472417641 0.0433483171 0.00400000006
v 0.0472417641 0.0433483171 0.00600000024
v 0.0472711754 0.0399781442 0.00400000006
v 0.0472711754 0.0399781442 0.00600000024
v 0.0474247932 0.0434965277 0.00400000006
v 0.0474247932 0.0434965277 0.00600000024
v 0.0474891233 0.0435415745 0.00400000006
v 0.0474891233 0.0435415745 0.00600000024
v 0.0475884724 0.0397476149 0.00400000006
v 0.0475884724 0.0397476149 0.00600000024
v 0.0475218725 0.0397892332 0.00400000006
v 0.0475218725 0.0397892332 0.00600000024
v 0.0477258301 0.0436810064 0.00400000006
v 0.0477258301 0.0436810064 0.00600000024
v 0.047760973 0.0396539545 0.00400000006
v 0.047760973 0.0396539545 0.00600000024
v 0.047868166 0.0437473774 0.00400000006
v 0.047868166 0.0437473774 0.00600000024
v 0.0479777622 0.0437905502 0.00400000006
v 0.0479777622 0.0437905502 0.00600000024
v 0.0482029867 0.0394930768 0.00400000006
v 0.0482029867 0.0394930768 0.00600000024
v 0.0480147791 0.0395488238 0.00400000006
v 0.0480147791 0.0395488238 0.00600000024
v 0.0482411671 0.0438685751 0.00400000006
v 0.0482411671 0.0438685751 0.00600000024
v 0.0482795095 0.03947541 0.00400000006
v 0.0482795095 0.03947541 0.00600000024
v 0.0484731007 0.0439094687 0.00400000006
v 0.0484731007 0.0439094687 0.00600000024
v 0.0487473106 0.0346051741 -0.0230999994
v 0.0487473106 0.0346051741 0.00400000006
v 0.0487473106 0.0346051741 0.00600000024
v 0.0487473106 0.0346051741 0.0129999995
v 0.0485121202 0.0394385672 0.00400000006
v 0.0485121202 0.0394385672 0.00600000024
v 0.0487473106 0.043926239 0.00400000006
v 0.0487473106 0.043926239 0.00600000024
v 0.0487865782 0.0394265842 0.00400000006
v 0.0487865782 0.0394265842 0.00600000024
v 0.0489824963 0.0439139175 0.00400000006
v 0.0489824963 0.0439139175 0.00600000024
v 0.0490215158 0.0394430113 0.00400000006
v 0.0490215158 0.0394430113 0.00600000024
v 0.0492151117 0.0438770723 0.00400000006
v 0.0492151117 0.0438770723 0.00600000024
v 0.0492534494 0.0394839072 0.00400000006
v 0.0492534494 0.0394839072 0.00600000024
v 0.0493296528 0.0395029068 0.00400000006
v 0.0493296528 0.0395029068 0.00600000024
v 0.0494798374 0.0438036585 0.00400000006
v 0.0494798374 0.0438036585 0.00600000024
v 0.0495168543 0.0395619321 0.00400000006
v 0.0495168543 0.0395619321 0.00600000024
v 0.0497336435 0.0436985254 0.00400000006
v 0.0497336435 0.0436985254 0.00600000024
v 0.0495901728 0.0437624025 0.00400000006
v 0.0495901728 0.0437624025 0.00600000024
v 0.0497687864 0.0396714759 0.00400000006
v 0.0497687864 0.0396714759 0.00600000024
v 0.0499396276 0.0397681332 0.00400000006
v 0.0499396276 0.0397681332 0.00600000024
v 0.0499727488 0.0435632515 0.00400000006
v 0.0499727488 0.0435632515 0.00600000024
v 0.0500054932 0.0398109055 0.00400000006
v 0.0500054932 0.0398109055 0.00600000024
v 0.0502234411 0.0433743382 0.00400000006
v 0.0502234411 0.0433743382 0.00600000024
v 0.0500378561 0.0435193348 0.00400000006
v 0.0500378561 0.0435193348 0.00600000024
v 0.0502528524 0.0400041628 0.00400000006
v 0.0502528524 0.0400041628 0.00600000024
v 0.0504958868 0.040260272 0.00400000006
v 0.0504958868 0.040260272 0.00600000024
v 0.0504958868 0.0430922127 0.00400000006
v 0.0504958868 0.0430922127 0.00600000024
v 0.0503382969 0.043267231 0.00400000006
v 0.0503382969 0.043267231 0.00600000024
v 0.0505203342 0.0402910042 0.00400000006
v 0.0505203342 0.0402910042 0.00600000024
v 0.0506759357 0.0405174065 0.00400000006
v 0.0506759357 0.0405174065 0.00600000024
v 0.050733943 0.0427325535 0.00400000006
v 0.050733943 0.0427325535 0.00600000024
v 0.0507152033 0.0427670622 0.00400000006
v 0.0507152033 0.0427670622 0.00600000024
v 0.0505442381 0.043030324 0.00400000006
v 0.0505442381 0.043030324 0.00600000024
v 0.0507520723 0.0406547642 0.00400000006
v 0.0507520723 0.0406547642 0.00600000024
v 0.050802784 0.0407610846 0.00400000006
v 0.050802784 0.0407610846 0.00600000024
v 0.0508989954 0.041018405 0.00400000006
v 0.0508989954 0.041018405 0.00600000024
v 0.0509631252 0.0412855339 0.00400000006
v 0.0509631252 0.0412855339 0.00600000024
v 0.0509918261 0.041519289 0.00400000006
v 0.0509918261 0.041519289 0.00600000024
v 0.0509959364 0.0417547655 0.00400000006
v 0.0509959364 0.0417547655 0.00600000024
v 0.0509696054 0.0420282173 0.00400000006
v 0.0509696054 0.0420282173 0.00600000024
v 0.0509206438 0.0422585821 0.00400000006
v 0.0509206438 0.0422585821 0.00600000024
v 0.0508334732 0.0425191069 0.00400000006
v 0.0508334732 0.0425191069 0.00600000024
v 0.0540506077 0.0399084735 0.00400000006
v 0.0540506077 0.0399084735 0.00600000024
f 1 2 72
f 2 1 248
f 3 1 5
f 17 1 3
f 5 1 7
f 7 1 9
f 9 1 19
f 11 1 13
f 29 1 11
f 13 1 15
f 15 1 17
f 19 1 21
f 21 1 23
f 23 1 25
f 25 1 31
f 27 1 29
f 37 1 27
f 31 1 33
f 33 1 39
f 35 1 37
f 169 1 35
f 39 1 72
f 169 247 1
f 248 1 247
f 6 2 4
f 4 2 18
f 8 2 6
f 10 2 8
f 20 2 10
f 14 2 12
f 12 2 30
f 16 2 14
f 18 2 16
f 22 2 20
f 24 2 22
f 26 2 24
f 32 2 26
f 30 2 28
f 28 2 38
f 34 2 32
f 40 2 34
f 38 2 36
f 170 36 2
f 40 73 2
f 72 2 73
f 170 2 248
f 4 3 6
f 4 17 3
f 6 3 5
f 18 17 4
f 6 5 8
f 8 5 7
f 8 7 10
f 10 7 9
f 10 9 20
f 20 9 19
f 12 11 14
f 12 29 11
f 14 11 13
f 30 29 12
f 14 13 16
f 16 13 15
f 16 15 18
f 18 15 17
f 20 19 22
f 22 19 21
f 22 21 24
f 24 21 23
f 24 23 26
f 26 23 25
f 26 25 32
f 32 25 31
f 28 27 30
f 28 37 27
f 30 27 29
f 38 37 28
f 32 31 34
f 34 31 33
f 34 33 40
f 40 33 39
f 36 35 38
f 36 43 35
f 38 35 37
f 43 171 35
f 35 171 169
f 44 43 36
f 36 172 44
f 36 170 172
f 40 39 46
f 46 39 45
f 39 72 45
f 46 73 40
f 42 41 44
f 42 47 41
f 44 41 43
f 41 159 43
f 47 161 41
f 41 161 159
f 44 160 42
f 48 47 42
f 42 162 48
f 42 160 162
f 43 159 171
f 44 172 160
f 46 45 50
f 50 45 49
f 45 72 49
f 50 73 46
f 48 53 47
f 53 143 47
f 47 143 161
f 54 53 48
f 48 144 54
f 48 162 144
f 50 49 52
f 52 49 51
f 49 72 51
f 52 73 50
f 52 51 56
f 56 51 55
f 51 72 55
f 56 73 52
f 54 57 53
f 57 145 53
f 53 145 143
f 58 57 54
f 54 146 58
f 54 144 146
f 56 55 60
f 60 55 59
f 55 72 59
f 60 73 56
f 58 61 57
f 61 147 57
f 57 147 145
f 62 61 58
f 58 148 62
f 58 146 148
f 60 59 64
f 64 59 63
f 59 72 63
f 64 73 60
f 62 67 61
f 67 149 61
f 61 149 147
f 68 67 62
f 62 150 68
f 62 148 150
f 64 63 66
f 66 63 65
f 63 72 65
f 66 73 64
f 66 65 70
f 70 65 69
f 65 72 69
f 70 73 66
f 68 75 67
f 75 151 67
f 67 151 149
f 76 75 68
f 68 152 76
f 68 150 152
f 70 69 78
f 69 72 77
f 78 69 77
f 78 73 70
f 72 71 282
f 72 563 71
f 282 71 281
f 71 563 281
f 73 564 72
f 77 72 83
f 83 72 81
f 81 72 87
f 87 72 93
f 93 72 99
f 99 72 97
f 97 72 107
f 107 72 105
f 105 72 115
f 115 72 113
f 113 72 125
f 125 72 123
f 123 72 141
f 72 175 141
f 72 181 175
f 72 183 181
f 72 189 183
f 72 193 189
f 72 195 193
f 199 195 72
f 72 205 199
f 72 209 205
f 72 213 209
f 72 219 213
f 72 223 219
f 227 223 72
f 72 233 227
f 72 239 233
f 72 237 239
f 72 245 237
f 72 243 245
f 255 243 72
f 282 255 72
f 72 564 563
f 73 284 74
f 74 565 73
f 84 73 78
f 82 73 84
f 88 73 82
f 94 73 88
f 100 73 94
f 98 73 100
f 108 73 98
f 106 73 108
f 116 73 106
f 114 73 116
f 126 73 114
f 124 73 126
f 142 73 124
f 142 176 73
f 73 176 182
f 73 182 184
f 73 184 190
f 73 190 194
f 73 194 196
f 196 200 73
f 73 200 206
f 73 206 210
f 73 210 214
f 73 214 220
f 73 220 224
f 224 228 73
f 73 228 234
f 73 234 240
f 73 240 238
f 73 238 246
f 246 244 73
f 73 244 256
f 73 256 283
f 283 284 73
f 73 565 564
f 371 74 284
f 287 74 285
f 285 74 315
f 289 74 287
f 291 74 289
f 293 74 291
f 295 74 293
f 297 74 295
f 299 74 297
f 301 74 299
f 303 74 301
f 305 74 303
f 307 74 305
f 317 74 307
f 311 74 309
f 309 74 327
f 313 74 311
f 315 74 313
f 319 74 317
f 321 74 319
f 329 74 321
f 325 74 323
f 323 74 339
f 327 74 325
f 331 74 329
f 333 74 331
f 341 74 333
f 337 74 335
f 335 74 349
f 339 74 337
f 343 74 341
f 345 74 343
f 351 74 345
f 349 74 347
f 347 74 357
f 353 74 351
f 353 566 74
f 357 74 355
f 355 74 365
f 365 74 363
f 363 74 371
f 74 566 565
f 76 79 75
f 79 167 75
f 75 153 151
f 75 155 153
f 75 157 155
f 75 163 157
f 165 163 75
f 75 167 165
f 80 79 76
f 76 168 80
f 76 152 154
f 76 154 156
f 76 156 158
f 76 158 164
f 164 166 76
f 76 166 168
f 78 77 84
f 84 77 83
f 80 85 79
f 79 85 175
f 173 167 79
f 79 175 173
f 86 85 80
f 80 176 86
f 80 168 174
f 80 174 176
f 82 83 81
f 82 81 88
f 88 81 87
f 84 83 82
f 86 89 85
f 175 85 89
f 90 89 86
f 86 176 90
f 88 87 94
f 94 87 93
f 90 91 89
f 89 91 175
f 92 91 90
f 90 176 92
f 92 95 91
f 175 91 95
f 96 95 92
f 92 176 96
f 94 93 100
f 100 93 99
f 96 101 95
f 95 101 175
f 102 101 96
f 96 176 102
f 98 99 97
f 98 97 108
f 108 97 107
f 100 99 98
f 102 103 101
f 101 103 175
f 104 103 102
f 102 176 104
f 104 109 103
f 175 103 109
f 110 109 104
f 104 176 110
f 106 107 105
f 106 105 116
f 116 105 115
f 108 107 106
f 110 111 109
f 109 111 175
f 112 111 110
f 110 176 112
f 112 117 111
f 111 117 175
f 118 117 112
f 112 176 118
f 114 115 113
f 114 113 126
f 126 113 125
f 116 115 114
f 118 119 117
f 117 119 175
f 120 119 118
f 118 176 120
f 120 121 119
f 175 119 121
f 122 121 120
f 120 176 122
f 122 127 121
f 121 127 175
f 128 127 122
f 122 176 128
f 124 125 123
f 124 123 142
f 142 123 141
f 126 125 124
f 128 129 127
f 175 127 129
f 130 129 128
f 128 176 130
f 130 131 129
f 129 131 175
f 132 131 130
f 130 176 132
f 132 133 131
f 131 133 175
f 134 133 132
f 132 176 134
f 134 135 133
f 175 133 135
f 136 135 134
f 134 176 136
f 136 137 135
f 175 135 137
f 138 137 136
f 136 176 138
f 138 139 137
f 175 137 139
f 140 139 138
f 138 176 140
f 140 141 139
f 175 139 141
f 142 141 140
f 140 176 142
f 144 143 146
f 144 161 143
f 146 143 145
f 162 161 144
f 146 145 148
f 148 145 147
f 148 147 150
f 150 147 149
f 150 149 152
f 152 149 151
f 152 151 154
f 154 151 153
f 154 153 156
f 156 153 155
f 156 155 158
f 158 155 157
f 158 157 164
f 164 157 163
f 160 159 162
f 160 171 159
f 162 159 161
f 172 171 160
f 164 163 166
f 166 163 165
f 166 165 168
f 168 165 167
f 168 167 174
f 174 167 173
f 170 169 172
f 170 179 169
f 172 169 171
f 247 169 179
f 180 179 170
f 248 180 170
f 174 173 176
f 176 173 175
f 176 175 182
f 182 175 181
f 178 177 180
f 178 187 177
f 180 177 179
f 247 179 177
f 247 177 187
f 248 178 180
f 188 187 178
f 248 188 178
f 182 181 184
f 184 181 183
f 184 183 190
f 190 183 189
f 186 185 188
f 186 191 185
f 188 185 187
f 247 187 185
f 185 191 247
f 186 188 248
f 192 191 186
f 248 192 186
f 190 189 194
f 194 189 193
f 192 197 191
f 247 191 197
f 198 197 192
f 198 192 248
f 194 193 196
f 196 193 195
f 196 195 200
f 200 195 199
f 198 203 197
f 247 197 203
f 204 203 198
f 248 204 198
f 200 199 206
f 206 199 205
f 202 201 204
f 202 207 201
f 204 201 203
f 203 201 247
f 247 201 207
f 248 202 204
f 208 207 202
f 248 208 202
f 206 205 210
f 210 205 209
f 208 211 207
f 207 211 247
f 212 211 208
f 248 212 208
f 210 209 214
f 214 209 213
f 212 215 211
f 211 215 247
f 216 215 212
f 248 216 212
f 214 213 220
f 220 213 219
f 216 217 215
f 247 215 217
f 218 217 216
f 218 216 248
f 218 221 217
f 217 221 247
f 222 221 218
f 248 222 218
f 220 219 224
f 224 219 223
f 222 225 221
f 247 221 225
f 226 225 222
f 226 222 248
f 224 223 228
f 228 223 227
f 226 229 225
f 247 225 229
f 230 229 226
f 248 230 226
f 228 227 234
f 234 227 233
f 230 231 229
f 229 231 247
f 232 231 230
f 248 232 230
f 232 235 231
f 231 235 247
f 236 235 232
f 248 236 232
f 234 233 240
f 240 233 239
f 236 241 235
f 247 235 241
f 242 241 236
f 248 242 236
f 238 239 237
f 238 237 246
f 246 237 245
f 240 239 238
f 242 249 241
f 247 241 249
f 283 242 248
f 250 249 242
f 283 250 242
f 244 245 243
f 244 243 256
f 256 243 255
f 246 245 244
f 248 247 283
f 247 249 251
f 247 251 257
f 247 257 259
f 259 261 247
f 247 261 263
f 247 263 273
f 247 273 275
f 247 275 282
f 283 247 282
f 250 251 249
f 252 251 250
f 283 252 250
f 252 257 251
f 258 257 252
f 283 258 252
f 254 255 253
f 254 253 272
f 282 253 255
f 272 253 271
f 282 271 253
f 256 255 254
f 283 256 254
f 254 272 283
f 258 259 257
f 260 259 258
f 283 260 258
f 260 261 259
f 262 261 260
f 262 260 283
f 262 263 261
f 264 263 262
f 283 264 262
f 264 273 263
f 274 273 264
f 283 274 264
f 266 267 265
f 266 265 280
f 282 265 267
f 280 265 279
f 282 279 265
f 268 267 266
f 283 268 266
f 283 266 280
f 268 269 267
f 282 267 269
f 270 269 268
f 270 268 283
f 270 271 269
f 269 271 282
f 272 271 270
f 283 272 270
f 274 275 273
f 276 275 274
f 283 276 274
f 276 277 275
f 275 277 282
f 278 277 276
f 283 278 276
f 278 279 277
f 282 277 279
f 280 279 278
f 283 280 278
f 1020 282 281
f 281 563 1019
f 1020 281 1019
f 1021 283 282
f 1021 282 1020
f 1022 284 283
f 1022 283 1021
f 371 284 369
f 369 284 379
f 379 284 377
f 377 284 383
f 383 284 389
f 389 284 397
f 397 284 395
f 395 284 401
f 401 284 425
f 425 284 423
f 423 284 441
f 441 284 457
f 457 284 455
f 455 284 467
f 467 284 479
f 479 284 491
f 491 284 489
f 489 284 501
f 501 284 509
f 509 284 521
f 521 284 531
f 531 284 539
f 539 284 547
f 547 284 555
f 555 284 567
f 567 284 577
f 577 284 585
f 585 284 595
f 595 284 605
f 605 284 615
f 615 284 625
f 625 284 635
f 635 284 647
f 647 284 663
f 663 284 665
f 665 284 683
f 683 284 701
f 701 284 703
f 703 284 707
f 707 284 1022
f 286 287 285
f 286 285 316
f 316 285 315
f 288 287 286
f 405 288 286
f 405 286 316
f 288 289 287
f 290 289 288
f 407 290 288
f 407 288 405
f 290 291 289
f 292 291 290
f 407 292 290
f 292 293 291
f 294 293 292
f 409 294 292
f 409 292 407
f 294 295 293
f 296 295 294
f 409 296 294
f 296 297 295
f 298 297 296
f 411 298 296
f 411 296 409
f 298 299 297
f 300 299 298
f 411 300 298
f 300 301 299
f 302 301 300
f 413 302 300
f 413 300 411
f 302 303 301
f 304 303 302
f 413 304 302
f 304 305 303
f 306 305 304
f 415 306 304
f 415 304 413
f 306 307 305
f 308 307 306
f 415 308 306
f 308 317 307
f 318 317 308
f 417 318 308
f 417 308 415
f 310 311 309
f 310 309 328
f 328 309 327
f 312 311 310
f 431 312 310
f 429 310 328
f 431 310 429
f 312 313 311
f 314 313 312
f 403 314 312
f 403 312 431
f 314 315 313
f 316 315 314
f 405 316 314
f 405 314 403
f 318 319 317
f 320 319 318
f 417 320 318
f 320 321 319
f 322 321 320
f 419 322 320
f 419 320 417
f 322 329 321
f 330 329 322
f 433 330 322
f 433 322 419
f 324 325 323
f 324 323 340
f 340 323 339
f 326 325 324
f 429 326 324
f 427 324 340
f 429 324 427
f 326 327 325
f 328 327 326
f 429 328 326
f 330 331 329
f 332 331 330
f 435 332 330
f 435 330 433
f 332 333 331
f 334 333 332
f 435 334 332
f 334 341 333
f 342 341 334
f 435 342 334
f 336 337 335
f 336 335 350
f 350 335 349
f 338 337 336
f 427 338 336
f 445 336 350
f 427 336 447
f 447 336 445
f 338 339 337
f 340 339 338
f 427 340 338
f 342 343 341
f 344 343 342
f 437 344 342
f 437 342 435
f 344 345 343
f 346 345 344
f 449 346 344
f 449 344 437
f 346 351 345
f 352 351 346
f 449 352 346
f 348 349 347
f 348 347 358
f 358 347 357
f 350 349 348
f 445 350 348
f 445 348 358
f 352 353 351
f 354 353 352
f 451 354 352
f 451 352 449
f 354 359 353
f 359 566 353
f 360 359 354
f 451 360 354
f 356 357 355
f 356 355 366
f 366 355 365
f 358 357 356
f 443 358 356
f 461 356 366
f 443 356 461
f 445 358 443
f 360 361 359
f 361 566 359
f 362 361 360
f 451 362 360
f 362 367 361
f 367 566 361
f 368 367 362
f 463 368 362
f 463 362 451
f 364 365 363
f 364 363 372
f 372 363 371
f 366 365 364
f 461 366 364
f 461 364 372
f 368 373 367
f 373 566 367
f 374 373 368
f 463 374 368
f 370 371 369
f 370 369 380
f 380 369 379
f 372 371 370
f 471 372 370
f 471 370 380
f 461 372 459
f 459 372 471
f 374 375 373
f 375 566 373
f 376 375 374
f 463 376 374
f 376 381 375
f 381 566 375
f 382 381 376
f 463 382 376
f 378 379 377
f 378 377 384
f 384 377 383
f 380 379 378
f 471 380 378
f 469 378 384
f 471 378 469
f 382 385 381
f 385 566 381
f 386 385 382
f 463 386 382
f 384 383 390
f 390 383 389
f 481 384 390
f 469 384 481
f 386 387 385
f 387 566 385
f 388 387 386
f 388 386 463
f 388 391 387
f 391 566 387
f 392 391 388
f 463 392 388
f 390 389 398
f 398 389 397
f 481 390 398
f 392 393 391
f 393 566 391
f 394 393 392
f 463 394 392
f 394 399 393
f 399 566 393
f 400 399 394
f 463 400 394
f 396 397 395
f 396 395 402
f 402 395 401
f 398 397 396
f 481 398 396
f 493 396 402
f 481 396 495
f 495 396 493
f 400 421 399
f 421 566 399
f 422 421 400
f 463 422 400
f 402 401 426
f 426 401 425
f 493 402 426
f 404 405 403
f 404 403 432
f 432 403 431
f 406 405 404
f 404 582 406
f 432 592 404
f 404 592 582
f 406 407 405
f 408 407 406
f 406 574 408
f 406 572 574
f 406 582 572
f 408 409 407
f 410 409 408
f 408 560 410
f 408 574 560
f 410 411 409
f 412 411 410
f 410 552 412
f 410 560 552
f 412 413 411
f 414 413 412
f 412 544 414
f 412 552 544
f 414 415 413
f 416 415 414
f 414 536 416
f 414 544 536
f 416 417 415
f 418 417 416
f 416 526 418
f 416 528 526
f 416 536 528
f 418 419 417
f 420 419 418
f 418 516 420
f 418 526 516
f 420 433 419
f 434 433 420
f 420 516 434
f 422 439 421
f 439 566 421
f 440 439 422
f 463 440 422
f 424 425 423
f 424 423 442
f 442 423 441
f 426 425 424
f 493 426 424
f 503 424 442
f 493 424 503
f 428 429 427
f 428 427 448
f 448 427 447
f 430 429 428
f 428 600 430
f 448 612 428
f 428 612 600
f 430 431 429
f 432 431 430
f 430 592 432
f 430 602 592
f 430 600 602
f 434 435 433
f 436 435 434
f 434 506 436
f 434 516 506
f 436 437 435
f 438 437 436
f 436 498 438
f 436 506 498
f 438 449 437
f 450 449 438
f 438 498 450
f 440 453 439
f 453 566 439
f 454 453 440
f 463 454 440
f 442 441 458
f 458 441 457
f 557 442 458
f 503 442 513
f 513 442 511
f 511 442 523
f 523 442 533
f 533 442 541
f 541 442 549
f 549 442 557
f 444 445 443
f 444 443 462
f 462 443 461
f 446 445 444
f 444 620 446
f 462 632 444
f 444 632 620
f 446 447 445
f 448 447 446
f 446 612 448
f 446 622 612
f 446 620 622
f 450 451 449
f 452 451 450
f 450 486 452
f 450 498 486
f 452 463 451
f 464 463 452
f 452 474 464
f 452 484 474
f 452 486 484
f 454 465 453
f 465 566 453
f 463 466 454
f 466 465 454
f 456 457 455
f 456 455 468
f 468 455 467
f 458 457 456
f 557 458 456
f 569 456 468
f 557 456 569
f 460 461 459
f 460 459 472
f 472 459 471
f 462 461 460
f 460 630 462
f 644 460 472
f 630 460 644
f 462 630 632
f 464 473 463
f 476 466 463
f 614 463 473
f 463 478 476
f 488 478 463
f 463 500 488
f 463 508 500
f 463 518 508
f 520 518 463
f 463 530 520
f 538 530 463
f 463 546 538
f 463 554 546
f 463 562 554
f 463 576 562
f 584 576 463
f 463 594 584
f 463 604 594
f 463 614 604
f 474 473 464
f 466 475 465
f 475 566 465
f 476 475 466
f 468 467 480
f 480 467 479
f 589 468 480
f 569 468 579
f 579 468 587
f 587 468 589
f 470 471 469
f 470 469 482
f 482 469 481
f 472 471 470
f 642 472 470
f 642 470 482
f 644 472 642
f 474 483 473
f 614 473 483
f 484 483 474
f 476 477 475
f 477 566 475
f 478 477 476
f 478 487 477
f 487 566 477
f 488 487 478
f 480 479 492
f 492 479 491
f 609 480 492
f 589 480 597
f 597 480 607
f 607 480 609
f 482 481 496
f 496 481 495
f 656 482 496
f 642 482 658
f 658 482 656
f 484 485 483
f 483 485 614
f 486 485 484
f 486 497 485
f 614 485 497
f 498 497 486
f 488 499 487
f 499 566 487
f 500 499 488
f 490 491 489
f 490 489 502
f 502 489 501
f 492 491 490
f 826 492 490
f 826 490 502
f 609 492 617
f 617 492 627
f 627 492 828
f 828 492 826
f 494 495 493
f 494 493 504
f 504 493 503
f 496 495 494
f 656 496 494
f 680 494 504
f 656 494 654
f 654 494 680
f 498 505 497
f 624 497 505
f 614 497 624
f 506 505 498
f 500 507 499
f 507 566 499
f 508 507 500
f 502 501 510
f 510 501 509
f 824 502 510
f 826 502 824
f 504 503 514
f 514 503 513
f 678 504 514
f 680 504 678
f 506 515 505
f 624 505 515
f 516 515 506
f 508 517 507
f 517 566 507
f 518 517 508
f 510 509 522
f 522 509 521
f 850 510 522
f 824 510 850
f 512 513 511
f 512 511 524
f 524 511 523
f 514 513 512
f 678 514 512
f 676 512 524
f 678 512 676
f 516 525 515
f 634 515 525
f 624 515 634
f 526 525 516
f 518 519 517
f 519 566 517
f 520 519 518
f 520 529 519
f 529 566 519
f 530 529 520
f 522 521 532
f 532 521 531
f 848 522 532
f 850 522 848
f 524 523 534
f 534 523 533
f 696 524 534
f 676 524 674
f 674 524 696
f 526 527 525
f 634 525 527
f 528 527 526
f 528 535 527
f 634 527 535
f 536 535 528
f 530 537 529
f 537 566 529
f 538 537 530
f 532 531 540
f 540 531 539
f 846 532 540
f 848 532 846
f 534 533 542
f 542 533 541
f 694 534 542
f 696 534 694
f 536 543 535
f 535 543 646
f 634 535 646
f 544 543 536
f 538 545 537
f 545 566 537
f 546 545 538
f 540 539 548
f 548 539 547
f 844 540 548
f 846 540 844
f 542 541 550
f 550 541 549
f 692 542 550
f 694 542 692
f 544 551 543
f 662 543 551
f 646 543 662
f 552 551 544
f 546 553 545
f 553 566 545
f 554 553 546
f 548 547 556
f 556 547 555
f 842 548 556
f 844 548 842
f 550 549 558
f 558 549 557
f 690 550 558
f 692 550 690
f 552 559 551
f 660 551 559
f 662 551 660
f 560 559 552
f 554 561 553
f 561 566 553
f 562 561 554
f 556 555 568
f 568 555 567
f 840 556 568
f 842 556 840
f 558 557 570
f 570 557 569
f 688 558 570
f 690 558 688
f 560 573 559
f 682 559 573
f 660 559 682
f 574 573 560
f 562 575 561
f 575 566 561
f 576 575 562
f 564 1019 563
f 565 811 564
f 757 564 759
f 783 564 757
f 759 564 761
f 761 564 763
f 763 564 765
f 765 564 767
f 767 564 785
f 779 564 781
f 805 564 779
f 781 564 783
f 785 564 787
f 787 564 789
f 789 564 811
f 803 564 805
f 831 564 803
f 851 564 831
f 851 975 564
f 564 975 1020
f 1020 1019 564
f 565 566 1021
f 760 565 758
f 758 565 784
f 762 565 760
f 764 565 762
f 766 565 764
f 768 565 766
f 786 565 768
f 782 565 780
f 780 565 806
f 784 565 782
f 788 565 786
f 790 565 788
f 790 812 565
f 806 565 804
f 804 565 832
f 812 811 565
f 832 565 852
f 976 852 565
f 565 1021 976
f 583 566 575
f 593 566 583
f 603 566 593
f 613 566 603
f 623 566 613
f 633 566 623
f 645 566 633
f 661 566 645
f 659 566 661
f 681 566 659
f 699 566 681
f 697 566 699
f 705 566 697
f 711 566 705
f 717 566 711
f 715 566 717
f 725 566 715
f 723 566 725
f 731 566 723
f 731 1022 566
f 1021 566 1022
f 568 567 578
f 578 567 577
f 838 568 578
f 840 568 838
f 570 569 580
f 580 569 579
f 672 570 580
f 686 570 672
f 688 570 686
f 572 571 574
f 572 581 571
f 574 571 573
f 700 573 571
f 700 571 581
f 582 581 572
f 682 573 700
f 576 583 575
f 584 583 576
f 578 577 586
f 586 577 585
f 822 578 586
f 836 578 822
f 838 578 836
f 580 579 588
f 588 579 587
f 670 580 588
f 672 580 670
f 582 591 581
f 706 581 591
f 700 581 698
f 698 581 706
f 592 591 582
f 584 593 583
f 594 593 584
f 586 585 596
f 596 585 595
f 820 586 596
f 822 586 820
f 588 587 590
f 590 587 589
f 670 588 590
f 590 589 598
f 598 589 597
f 668 590 598
f 670 590 668
f 592 601 591
f 712 591 601
f 706 591 712
f 602 601 592
f 594 603 593
f 604 603 594
f 596 595 606
f 606 595 605
f 818 596 606
f 820 596 818
f 598 597 608
f 608 597 607
f 652 598 608
f 668 598 652
f 600 599 602
f 600 611 599
f 602 599 601
f 712 601 599
f 712 599 611
f 612 611 600
f 604 613 603
f 614 613 604
f 606 605 616
f 616 605 615
f 816 606 616
f 818 606 816
f 608 607 610
f 610 607 609
f 652 608 610
f 610 609 618
f 618 609 617
f 650 610 618
f 652 610 650
f 612 621 611
f 716 611 621
f 712 611 718
f 718 611 716
f 622 621 612
f 614 623 613
f 624 623 614
f 616 615 626
f 626 615 625
f 796 616 626
f 814 616 796
f 816 616 814
f 618 617 628
f 628 617 627
f 638 618 628
f 640 618 638
f 650 618 640
f 620 619 622
f 620 631 619
f 622 619 621
f 726 621 619
f 724 619 631
f 726 619 724
f 632 631 620
f 716 621 726
f 624 633 623
f 634 633 624
f 626 625 636
f 636 625 635
f 794 626 636
f 796 626 794
f 628 627 638
f 638 627 637
f 828 637 627
f 630 629 632
f 630 643 629
f 632 629 631
f 732 631 629
f 730 629 643
f 732 629 730
f 644 643 630
f 724 631 732
f 634 645 633
f 646 645 634
f 636 635 648
f 648 635 647
f 792 636 648
f 794 636 792
f 638 637 640
f 640 637 639
f 828 639 637
f 640 639 650
f 650 639 649
f 828 649 639
f 642 641 644
f 642 657 641
f 644 641 643
f 740 643 641
f 738 641 657
f 740 641 738
f 658 657 642
f 730 643 740
f 646 661 645
f 662 661 646
f 648 647 664
f 664 647 663
f 772 648 664
f 792 648 772
f 650 649 652
f 652 649 651
f 828 651 649
f 652 651 668
f 668 651 667
f 828 667 651
f 654 653 656
f 654 679 653
f 656 653 655
f 746 655 653
f 746 653 679
f 680 679 654
f 656 655 658
f 658 655 657
f 738 657 655
f 738 655 748
f 748 655 746
f 660 659 662
f 660 681 659
f 662 659 661
f 682 681 660
f 664 663 666
f 666 663 665
f 772 664 666
f 666 665 684
f 684 665 683
f 770 666 684
f 772 666 770
f 668 667 670
f 670 667 669
f 830 669 667
f 830 667 828
f 670 669 672
f 672 669 671
f 671 669 798
f 798 669 830
f 672 671 686
f 686 671 685
f 685 671 798
f 674 673 676
f 674 695 673
f 676 673 675
f 675 673 778
f 776 673 695
f 778 673 776
f 696 695 674
f 676 675 678
f 678 675 677
f 756 677 675
f 756 675 754
f 754 675 778
f 678 677 680
f 680 677 679
f 756 679 677
f 746 679 756
f 682 699 681
f 700 699 682
f 684 683 702
f 702 683 701
f 752 684 702
f 770 684 752
f 686 685 688
f 688 685 687
f 798 687 685
f 688 687 690
f 690 687 689
f 689 687 800
f 800 687 798
f 690 689 692
f 692 689 691
f 800 691 689
f 692 691 694
f 694 691 693
f 802 693 691
f 802 691 800
f 694 693 696
f 696 693 695
f 776 695 693
f 776 693 774
f 774 693 802
f 698 697 700
f 698 705 697
f 700 697 699
f 706 705 698
f 702 701 704
f 704 701 703
f 752 702 704
f 704 703 708
f 708 703 707
f 744 704 708
f 750 704 744
f 752 704 750
f 706 711 705
f 712 711 706
f 708 707 710
f 710 707 709
f 707 1022 709
f 742 708 710
f 744 708 742
f 710 709 714
f 714 709 713
f 709 1022 713
f 742 710 714
f 712 717 711
f 718 717 712
f 714 713 720
f 720 713 719
f 713 1022 719
f 734 714 720
f 736 714 734
f 742 714 736
f 716 715 718
f 716 725 715
f 718 715 717
f 726 725 716
f 720 719 722
f 722 719 721
f 719 1022 721
f 728 720 722
f 734 720 728
f 722 721 728
f 728 721 727
f 721 1022 727
f 724 723 726
f 724 731 723
f 726 723 725
f 732 731 724
f 728 727 734
f 734 727 733
f 727 1022 733
f 730 729 732
f 730 739 729
f 732 729 731
f 729 1022 731
f 739 1022 729
f 740 739 730
f 734 733 736
f 736 733 735
f 733 1022 735
f 736 735 742
f 742 735 741
f 735 1022 741
f 738 737 740
f 738 747 737
f 740 737 739
f 737 1022 739
f 747 1022 737
f 748 747 738
f 742 741 744
f 744 741 743
f 741 1022 743
f 744 743 750
f 750 743 749
f 743 1022 749
f 746 745 748
f 746 755 745
f 748 745 747
f 745 1022 747
f 755 1022 745
f 756 755 746
f 750 749 752
f 752 749 751
f 749 1022 751
f 752 751 770
f 770 751 769
f 751 1022 769
f 754 753 756
f 754 777 753
f 756 753 755
f 753 1022 755
f 777 1022 753
f 778 777 754
f 757 760 758
f 757 758 783
f 759 760 757
f 783 758 784
f 759 762 760
f 761 762 759
f 761 764 762
f 763 764 761
f 763 766 764
f 765 766 763
f 765 768 766
f 767 768 765
f 767 786 768
f 785 786 767
f 770 769 772
f 772 769 771
f 769 1022 771
f 772 771 792
f 792 771 791
f 771 1022 791
f 774 773 776
f 774 801 773
f 776 773 775
f 773 1022 775
f 801 1022 773
f 802 801 774
f 776 775 778
f 778 775 777
f 775 1022 777
f 779 782 780
f 779 780 805
f 781 782 779
f 805 780 806
f 781 784 782
f 783 784 781
f 785 788 786
f 787 788 785
f 787 790 788
f 789 790 787
f 789 808 790
f 807 808 789
f 789 811 807
f 808 812 790
f 792 791 794
f 794 791 793
f 791 1022 793
f 794 793 796
f 796 793 795
f 793 1022 795
f 796 795 814
f 814 795 813
f 795 1022 813
f 798 797 800
f 798 829 797
f 800 797 799
f 797 1022 799
f 829 1022 797
f 830 829 798
f 800 799 802
f 802 799 801
f 799 1022 801
f 803 806 804
f 803 804 831
f 805 806 803
f 831 804 832
f 807 810 808
f 809 810 807
f 807 811 809
f 810 812 808
f 809 834 810
f 809 811 833
f 833 834 809
f 834 812 810
f 812 1095 811
f 833 811 853
f 853 811 855
f 855 811 861
f 861 811 863
f 863 811 867
f 867 811 871
f 871 811 875
f 875 811 881
f 881 811 887
f 887 811 891
f 891 811 895
f 895 811 903
f 903 811 901
f 901 811 907
f 907 811 915
f 915 811 913
f 913 811 923
f 1065 923 811
f 1065 811 1095
f 854 812 834
f 856 812 854
f 862 812 856
f 864 812 862
f 868 812 864
f 872 812 868
f 876 812 872
f 882 812 876
f 888 812 882
f 892 812 888
f 896 812 892
f 904 812 896
f 902 812 904
f 908 812 902
f 916 812 908
f 914 812 916
f 924 812 914
f 1066 812 924
f 1066 1096 812
f 1096 1095 812
f 814 813 816
f 816 813 815
f 813 1022 815
f 816 815 818
f 818 815 817
f 815 1022 817
f 818 817 820
f 820 817 819
f 817 1022 819
f 820 819 822
f 822 819 821
f 819 1022 821
f 822 821 836
f 836 821 835
f 821 1022 835
f 824 823 826
f 824 849 823
f 826 823 825
f 823 1022 825
f 849 1022 823
f 850 849 824
f 826 825 828
f 828 825 827
f 825 1022 827
f 828 827 830
f 830 827 829
f 827 1022 829
f 831 832 851
f 851 832 852
f 833 854 834
f 853 854 833
f 836 835 838
f 838 835 837
f 835 1022 837
f 838 837 840
f 840 837 839
f 837 1022 839
f 840 839 842
f 842 839 841
f 839 1022 841
f 842 841 844
f 844 841 843
f 841 1022 843
f 844 843 846
f 846 843 845
f 843 1022 845
f 846 845 848
f 848 845 847
f 845 1022 847
f 848 847 850
f 850 847 849
f 847 1022 849
f 851 852 859
f 859 975 851
f 859 852 860
f 852 976 860
f 853 856 854
f 855 856 853
f 855 862 856
f 861 862 855
f 857 860 858
f 857 858 865
f 859 860 857
f 857 977 859
f 865 957 857
f 857 957 977
f 860 978 858
f 865 858 866
f 858 958 866
f 858 978 958
f 859 977 975
f 860 976 978
f 861 864 862
f 863 864 861
f 863 868 864
f 867 868 863
f 865 866 869
f 869 961 865
f 865 959 957
f 865 961 959
f 869 866 870
f 866 962 870
f 866 958 960
f 866 960 962
f 867 872 868
f 871 872 867
f 869 870 873
f 873 963 869
f 869 963 961
f 873 870 874
f 870 964 874
f 870 962 964
f 871 876 872
f 875 876 871
f 873 874 879
f 879 965 873
f 873 965 963
f 879 874 880
f 874 966 880
f 874 964 966
f 875 882 876
f 881 882 875
f 877 880 878
f 877 878 883
f 879 880 877
f 877 953 879
f 883 955 877
f 877 955 953
f 880 954 878
f 883 878 884
f 878 956 884
f 878 954 956
f 879 953 965
f 880 966 954
f 881 888 882
f 887 888 881
f 883 884 885
f 885 967 883
f 883 967 955
f 885 884 886
f 884 968 886
f 884 956 968
f 885 886 889
f 889 969 885
f 885 969 967
f 889 886 890
f 886 970 890
f 886 968 970
f 887 892 888
f 891 892 887
f 889 890 893
f 893 971 889
f 889 971 969
f 893 890 894
f 890 972 894
f 890 970 972
f 891 896 892
f 895 896 891
f 893 894 897
f 897 973 893
f 893 973 971
f 897 894 898
f 894 974 898
f 894 972 974
f 895 904 896
f 903 904 895
f 897 898 899
f 899 979 897
f 897 979 973
f 899 898 900
f 898 980 900
f 898 974 980
f 899 900 905
f 905 981 899
f 899 981 979
f 905 900 906
f 900 982 906
f 900 980 982
f 901 902 903
f 901 908 902
f 907 908 901
f 903 902 904
f 905 906 909
f 909 983 905
f 905 983 981
f 909 906 910
f 906 984 910
f 906 982 984
f 907 916 908
f 915 916 907
f 909 910 911
f 911 987 909
f 909 987 983
f 911 910 912
f 910 988 912
f 910 984 988
f 911 912 917
f 989 911 917
f 987 911 989
f 917 912 918
f 912 990 918
f 912 988 990
f 913 914 915
f 913 924 914
f 923 924 913
f 915 914 916
f 917 918 919
f 989 917 919
f 919 918 920
f 918 990 920
f 919 920 925
f 989 919 925
f 925 920 926
f 920 990 926
f 921 922 923
f 921 936 922
f 923 1055 921
f 935 936 921
f 921 1057 935
f 921 1055 1057
f 923 922 924
f 922 1056 924
f 936 1058 922
f 922 1058 1056
f 1065 1055 923
f 924 1056 1066
f 925 926 927
f 989 925 927
f 927 926 928
f 926 990 928
f 927 928 929
f 989 927 929
f 929 928 930
f 928 990 930
f 929 930 937
f 929 937 989
f 937 930 938
f 930 990 938
f 931 932 933
f 931 952 932
f 989 931 933
f 951 952 931
f 951 931 989
f 933 932 934
f 932 990 934
f 952 990 932
f 933 934 935
f 935 1005 933
f 933 993 989
f 995 993 933
f 933 1001 995
f 933 1005 1001
f 935 934 936
f 934 1006 936
f 934 990 994
f 934 994 996
f 996 1002 934
f 934 1002 1006
f 935 1007 1005
f 935 1013 1007
f 1017 1013 935
f 1025 1017 935
f 935 1029 1025
f 935 1033 1029
f 935 1039 1033
f 935 1045 1039
f 935 1043 1045
f 1051 1043 935
f 935 1057 1051
f 936 1006 1008
f 936 1008 1014
f 936 1014 1018
f 936 1018 1026
f 1026 1030 936
f 1030 1034 936
f 1034 1040 936
f 936 1040 1046
f 936 1046 1044
f 936 1044 1052
f 1052 1058 936
f 937 938 939
f 937 939 989
f 939 938 940
f 938 990 940
f 939 940 941
f 989 939 941
f 941 940 942
f 940 990 942
f 941 942 943
f 989 941 943
f 943 942 944
f 942 990 944
f 943 944 945
f 989 943 945
f 945 944 946
f 944 990 946
f 945 946 947
f 989 945 947
f 947 946 948
f 946 990 948
f 947 948 949
f 989 947 949
f 949 948 950
f 948 990 950
f 949 950 951
f 949 951 989
f 951 950 952
f 950 990 952
f 953 956 954
f 953 954 965
f 955 956 953
f 965 954 966
f 955 968 956
f 967 968 955
f 957 960 958
f 957 958 977
f 959 960 957
f 977 958 978
f 959 962 960
f 961 962 959
f 961 964 962
f 963 964 961
f 963 966 964
f 965 966 963
f 967 970 968
f 969 970 967
f 969 972 970
f 971 972 969
f 971 974 972
f 973 974 971
f 973 980 974
f 979 980 973
f 975 978 976
f 975 976 985
f 977 978 975
f 975 985 1020
f 985 976 986
f 986 976 1021
f 979 982 980
f 981 982 979
f 981 984 982
f 983 984 981
f 983 988 984
f 987 988 983
f 985 986 991
f 985 991 1020
f 991 986 992
f 992 986 1021
f 987 990 988
f 989 990 987
f 989 994 990
f 993 994 989
f 991 992 999
f 1020 991 999
f 999 992 1000
f 1021 1000 992
f 993 996 994
f 995 996 993
f 995 1002 996
f 1001 1002 995
f 997 1000 998
f 997 998 1003
f 999 1000 997
f 1020 999 997
f 997 1003 1020
f 1021 998 1000
f 1003 998 1004
f 1004 998 1021
f 1001 1006 1002
f 1005 1006 1001
f 1003 1004 1011
f 1020 1003 1011
f 1011 1004 1012
f 1021 1012 1004
f 1005 1008 1006
f 1007 1008 1005
f 1007 1014 1008
f 1013 1014 1007
f 1009 1012 1010
f 1009 1010 1015
f 1011 1012 1009
f 1011 1009 1020
f 1020 1009 1015
f 1010 1012 1021
f 1015 1010 1016
f 1021 1016 1010
f 1013 1018 1014
f 1017 1018 1013
f 1015 1016 1023
f 1020 1015 1023
f 1021 1024 1016
f 1023 1016 1024
f 1017 1026 1018
f 1025 1026 1017
f 1020 1096 1021
f 1023 1027 1020
f 1027 1031 1020
f 1031 1035 1020
f 1020 1035 1037
f 1020 1037 1041
f 1020 1041 1047
f 1020 1047 1095
f 1095 1096 1020
f 1028 1024 1021
f 1032 1028 1021
f 1036 1032 1021
f 1021 1038 1036
f 1021 1042 1038
f 1021 1048 1042
f 1096 1048 1021
f 1023 1024 1027
f 1027 1024 1028
f 1025 1030 1026
f 1029 1030 1025
f 1027 1028 1031
f 1031 1028 1032
f 1029 1034 1030
f 1033 1034 1029
f 1031 1032 1035
f 1035 1032 1036
f 1033 1040 1034
f 1039 1040 1033
f 1035 1036 1037
f 1037 1036 1038
f 1037 1038 1041
f 1041 1038 1042
f 1039 1046 1040
f 1045 1046 1039
f 1041 1042 1047
f 1047 1042 1048
f 1043 1044 1045
f 1043 1052 1044
f 1051 1052 1043
f 1045 1044 1046
f 1047 1048 1049
f 1095 1047 1049
f 1049 1048 1050
f 1096 1050 1048
f 1049 1050 1053
f 1095 1049 1053
f 1053 1050 1054
f 1054 1050 1096
f 1051 1058 1052
f 1057 1058 1051
f 1053 1054 1059
f 1053 1059 1095
f 1059 1054 1060
f 1096 1060 1054
f 1055 1056 1057
f 1055 1066 1056
f 1065 1066 1055
f 1057 1056 1058
f 1059 1060 1061
f 1059 1061 1095
f 1061 1060 1062
f 1096 1062 1060
f 1061 1062 1067
f 1095 1061 1067
f 1067 1062 1068
f 1068 1062 1096
f 1063 1064 1065
f 1063 1076 1064
f 1063 1065 1095
f 1075 1076 1063
f 1075 1063 1095
f 1065 1064 1066
f 1096 1066 1064
f 1096 1064 1076
f 1067 1068 1069
f 1095 1067 1069
f 1069 1068 1070
f 1096 1070 1068
f 1069 1070 1077
f 1069 1077 1095
f 1077 1070 1078
f 1096 1078 1070
f 1071 1072 1073
f 1071 1094 1072
f 1095 1071 1073
f 1093 1094 1071
f 1095 1093 1071
f 1073 1072 1074
f 1096 1074 1072
f 1072 1094 1096
f 1073 1074 1075
f 1095 1073 1075
f 1075 1074 1076
f 1076 1074 1096
f 1077 1078 1079
f 1077 1079 1095
f 1079 1078 1080
f 1096 1080 1078
f 1079 1080 1081
f 1095 1079 1081
f 1081 1080 1082
f 1082 1080 1096
f 1081 1082 1083
f 1095 1081 1083
f 1083 1082 1084
f 1096 1084 1082
f 1083 1084 1085
f 1095 1083 1085
f 1085 1084 1086
f 1096 1086 1084
f 1085 1086 1087
f 1095 1085 1087
f 1087 1086 1088
f 1096 1088 1086
f 1087 1088 1089
f 1087 1089 1095
f 1089 1088 1090
f 1096 1090 1088
f 1089 1090 1091
f 1089 1091 1095
f 1091 1090 1092
f 1096 1092 1090
f 1091 1092 1093
f 1095 1091 1093
f 1093 1092 1094
f 1094 1092 1096
