v -0.0452524681 -0.0113160782 -0.0583839536
v -0.0452548332 -0.0113137083 -0.0579999995
v -0.0450184936 -0.0115500431 -0.0618202591
v -0.0450633068 -0.0115052347 -0.0614415574
v -0.0451034374 -0.0114651041 -0.0610618091
v -0.045138876 -0.0114296608 -0.0606811261
v -0.0451696129 -0.0113989287 -0.0602996254
v -0.0451956386 -0.0113729029 -0.0599174261
v -0.0452169437 -0.0113516026 -0.0595346427
v -0.0452335186 -0.0113350277 -0.059151392
v -0.0452453537 -0.0113231831 -0.0587677884
v -0.0447927399 -0.0117757969 -0.0633222818
v -0.0448561211 -0.0117124157 -0.0629489231
v -0.0449148865 -0.0116536503 -0.0625740576
v -0.044969017 -0.0115995245 -0.0621977973
v -0.0445750923 -0.0119934492 -0.0644321775
v -0.0446522064 -0.0119163351 -0.0640640211
v -0.044724762 -0.0118437796 -0.0636940193
v -0.0443166752 -0.0122518711 -0.0655244422
v -0.0444073028 -0.0121612387 -0.065162499
v -0.0444934482 -0.0120750885 -0.0647983742
v -0.0440181751 -0.0125503616 -0.0665960836
v -0.0441220779 -0.0124464636 -0.0662413454
v -0.0442215843 -0.0123469524 -0.0658840942
v -0.0437973232 -0.0127712183 -0.0672976017
v -0.0437631531 -0.0128053932 -0.0600905704
v -0.0437868042 -0.0127817373 -0.0597431159
v -0.0438061733 -0.012762373 -0.0593951297
v -0.043909914 -0.0126586275 -0.0669482064
v -0.0438212414 -0.0127473049 -0.0590467191
v -0.0438320084 -0.0127365379 -0.058697989
v -0.0438384647 -0.0127300768 -0.0583490491
v -0.04384062 -0.0127279215 -0.0579999995
v -0.0435592956 -0.0130092507 -0.0679877901
v -0.0435315819 -0.0130369597 -0.0621582341
v -0.0436804409 -0.0128881054 -0.0676441646
v -0.0435807915 -0.0129877548 -0.0618161798
v -0.0436257667 -0.0129427748 -0.0614729643
v -0.0436665077 -0.0129020338 -0.0611286902
v -0.0437029858 -0.012865551 -0.0607834625
v -0.0437352104 -0.0128333359 -0.060437386
v -0.0433043785 -0.0132641678 -0.068665812
v -0.0432927818 -0.0132757645 -0.0635127473
v -0.0434339256 -0.0131346159 -0.0683283734
v -0.0433587379 -0.0132098036 -0.0631763816
v -0.043420536 -0.0131480055 -0.0628384376
v -0.043478157 -0.0130903845 -0.0624990201
v -0.043032877 -0.0135356646 -0.0693308377
v -0.0431706829 -0.0133978634 -0.069000001
v -0.043070137 -0.0134984045 -0.0645113635
v -0.0431484527 -0.0134200888 -0.0641803408
v -0.0432226772 -0.0133458643 -0.0638474345
v -0.0428108425 -0.013757699 -0.0654921317
v -0.0428910179 -0.0136775236 -0.0696582246
v -0.042901308 -0.0136672382 -0.0651673579
v -0.0429877491 -0.0135807972 -0.0648404026
v -0.0425156135 -0.014052928 -0.0664523649
v -0.0425952835 -0.013973258 -0.0703022432
v -0.0427451343 -0.0138234072 -0.069982059
v -0.0426179714 -0.0139505749 -0.0661347318
v -0.0427163906 -0.0138521509 -0.0658146214
v -0.0422838325 -0.014284709 -0.0709312749
v -0.0422992153 -0.0142693215 -0.0670798111
v -0.0424415035 -0.0141270428 -0.0706186819
v -0.0424093552 -0.0141591911 -0.0667674232
v -0.0420674724 -0.0145010691 -0.0676961923
v -0.0421223373 -0.0144462042 -0.0712399316
v -0.0421852512 -0.0143832951 -0.067389431
v -0.0417880363 -0.0147805052 -0.0718450475
v -0.041957056 -0.0146114855 -0.0715445518
v -0.0418206615 -0.01474788 -0.0683007622
v -0.0419459362 -0.0146226101 -0.0679999995
v -0.0415590782 -0.0150094633 -0.0688927817
v -0.0416153355 -0.0149532013 -0.0721413279
v -0.0416916962 -0.0148768454 -0.0685983849
v -0.0412591095 -0.0153094368 -0.0727208734
v -0.0412830467 -0.0152854996 -0.0694715285
v -0.0414390106 -0.0151295309 -0.0724332976
v -0.0414228458 -0.0151456957 -0.0691838574
v -0.0410756798 -0.0154928618 -0.0730039644
v -0.0411397095 -0.0154288273 -0.0697557044
v -0.0410027141 -0.00708054353 -0.0587677884
v -0.0410098286 -0.00707343865 -0.0583839536
v -0.0410121937 -0.00707106401 -0.0579999995
v -0.0408887882 -0.0156797581 -0.073282485
v -0.0408426399 -0.0157259016 -0.0703132296
v -0.0409929008 -0.0155756455 -0.0700363016
v -0.0407758541 -0.00730740357 -0.0618202591
v -0.0408206673 -0.00726259042 -0.0614415574
v -0.0408607979 -0.0072224598 -0.0610618091
v -0.0408962364 -0.00718702127 -0.0606811261
v -0.0409269733 -0.00715628434 -0.0602996254
v -0.0409529991 -0.00713026811 -0.0599174261
v -0.0409742947 -0.00710896302 -0.0595346427
v -0.0409908695 -0.00709238816 -0.059151392
v -0.0405048294 -0.0160637074 -0.0738254762
v -0.04053199 -0.0160365515 -0.070855751
v -0.0406984825 -0.015870059 -0.0735563493
v -0.0406889839 -0.0158795529 -0.0705864072
v -0.0405501003 -0.00753315736 -0.0633222818
v -0.0406134815 -0.00746977616 -0.0629489231
v -0.0406722469 -0.00741101075 -0.0625740576
v -0.0407263775 -0.0073568802 -0.0621977973
v -0.0403078861 -0.0162606554 -0.0740897822
v -0.0403716869 -0.0161968546 -0.0711211801
v -0.0402508087 -0.00783244897 -0.0647983742
v -0.0403324528 -0.00775080491 -0.0644321775
v -0.0404095669 -0.00767369081 -0.0640640211
v -0.0404821224 -0.00760113526 -0.0636940193
v -0.0400413914 -0.0165271549 -0.071639967
v -0.0401077099 -0.0164608269 -0.0743491864
v -0.0402081413 -0.016360405 -0.0713826132
v -0.0400740261 -0.00800923158 -0.0655244422
v -0.0401646633 -0.00791860391 -0.065162499
v -0.0399043674 -0.0166641741 -0.07460361
v -0.0398714847 -0.0166970568 -0.0718931675
v -0.0397755356 -0.0083077221 -0.0665960836
v -0.0398794384 -0.00820381928 -0.0662413454
v -0.0399789448 -0.00810431291 -0.0658840942
v -0.0395224399 -0.0170461063 -0.0723867965
v -0.039697916 -0.0168706303 -0.0748529768
v -0.0396984882 -0.0168700581 -0.0721421361
v -0.0395546837 -0.008528574 -0.0672976017
v -0.039520504 -0.00856275369 -0.0600905704
v -0.0395441646 -0.00853909303 -0.0597431159
v -0.0395635338 -0.00851973344 -0.0593951297
v -0.0395786018 -0.00850466538 -0.0590467191
v -0.0396672745 -0.00841598321 -0.0669482064
v -0.0395893688 -0.0084938984 -0.058697989
v -0.0395958252 -0.00848743249 -0.0583490491
v -0.0395979805 -0.00848527719 -0.0579999995
v -0.0392759342 -0.0172926121 -0.075336237
v -0.0394884128 -0.0170801287 -0.0750972128
v -0.0393433971 -0.0172251444 -0.0726270747
v -0.0393166561 -0.00876661111 -0.0679877901
v -0.0392889423 -0.00879432488 -0.0621582341
v -0.0394378014 -0.00864546586 -0.0676441646
v -0.0393381519 -0.00874511529 -0.0618161798
v -0.0393831272 -0.00870013047 -0.0614729643
v -0.0394238682 -0.00865939904 -0.0611286902
v -0.0394603462 -0.00862291146 -0.0607834625
v -0.0394925709 -0.00859069634 -0.060437386
v -0.0390605278 -0.0175080137 -0.0755699825
v -0.039161417 -0.0174071198 -0.0728628969
v -0.0390617294 -0.00902152825 -0.068665812
v -0.0390501327 -0.00903312493 -0.0635127473
v -0.0391912861 -0.0088919716 -0.0683283734
v -0.0391160984 -0.00896715928 -0.0631763816
v -0.0391778965 -0.00890536119 -0.0628384376
v -0.0392355175 -0.00884774018 -0.0624990201
v -0.0387888737 -0.0177796679 -0.0733208895
v -0.0388422794 -0.0177262669 -0.0757983732
v -0.0389765568 -0.01759198 -0.0730941916
v -0.0387902374 -0.00929302026 -0.0693308377
v -0.0388274975 -0.00925576974 -0.0645113635
v -0.0389280338 -0.00915522386 -0.069000001
v -0.0389058132 -0.00917744447 -0.0641803408
v -0.0389800377 -0.00910322953 -0.0638474345
v -0.0386212368 -0.0179473047 -0.076021347
v -0.0385984154 -0.0179701214 -0.0735429192
v -0.0385024948 -0.00958076287 -0.069982059
v -0.038568203 -0.00951505471 -0.0654921317
v -0.0386483784 -0.00943488885 -0.0696582246
v -0.0386586685 -0.0094245987 -0.0651673579
v -0.0387451 -0.00933815766 -0.0648404026
v -0.0383974857 -0.0181710558 -0.0762388277
v -0.0384052486 -0.0181632881 -0.0737602162
v -0.038272974 -0.00981029321 -0.0664523649
v -0.038352644 -0.00973062326 -0.0703022432
v -0.0383753319 -0.00970793534 -0.0661347318
v -0.0384737511 -0.00960951615 -0.0658146214
v -0.0380110283 -0.018557518 -0.0741803408
v -0.0381710834 -0.0183974629 -0.0764507532
v -0.0382094307 -0.0183591061 -0.0739727092
v -0.038041193 -0.0100420647 -0.0709312749
v -0.0380565758 -0.0100266819 -0.0670798111
v -0.038198864 -0.00988440324 -0.0706186819
v -0.0381667156 -0.0099165516 -0.0667674232
v -0.0378100796 -0.018758462 -0.0743830419
v -0.0379420967 -0.0186264496 -0.0766570568
v -0.0378248329 -0.0102584248 -0.0676961923
v -0.0378796978 -0.0102035599 -0.0712399316
v -0.0379426117 -0.0101406555 -0.067389431
v -0.0377105923 -0.0188579445 -0.0768576813
v -0.0376066704 -0.0189618759 -0.0745807505
v -0.0375453968 -0.0105378609 -0.0718450475
v -0.037578022 -0.0105052452 -0.0683007622
v -0.0377144165 -0.0103688507 -0.0715445518
v -0.0377032967 -0.0103799706 -0.0679999995
v -0.037476656 -0.0190918808 -0.0770525599
v -0.0374008484 -0.0191676979 -0.0747734118
v -0.0373164387 -0.0107668285 -0.0688927817
v -0.0373726959 -0.0107105618 -0.0721413279
v -0.0374490566 -0.0106342011 -0.0685983849
v -0.0370017452 -0.0195667963 -0.0774248457
v -0.0372403545 -0.0193281918 -0.0772416353
v -0.0371926708 -0.0193758659 -0.0749609613
v -0.0370164604 -0.0110667973 -0.0727208734
v -0.0370404072 -0.01104286 -0.0694715285
v -0.0371963711 -0.0108868866 -0.0724332976
v -0.0371802063 -0.0109030562 -0.0691838574
v -0.0367609234 -0.0198076229 -0.0776021433
v -0.0367695541 -0.0197989922 -0.0753205061
v -0.0369822235 -0.019586318 -0.0751433468
v -0.0368330402 -0.0112502222 -0.0730039644
v -0.0367502518 -0.0113330059 -0.0700363016
v -0.0368970699 -0.0111861878 -0.0697557044
v -0.0365179367 -0.0200506048 -0.0777734709
v -0.0365547295 -0.0200138121 -0.0754923964
v -0.0366461487 -0.0114371138 -0.073282485
v -0.0366000004 -0.0114832621 -0.0703132296
v -0.0362728805 -0.020295661 -0.0779387712
v -0.0363378162 -0.0202307253 -0.0756589508
v -0.0362621899 -0.0118210678 -0.0738254762
v -0.0362893505 -0.0117939119 -0.070855751
v -0.036455843 -0.0116274147 -0.0735563493
v -0.0364463444 -0.0116369133 -0.0705864072
v -0.0360258217 -0.0205427199 -0.0780980015
v -0.0361188812 -0.0204496603 -0.0758201313
v -0.0360652466 -0.0120180111 -0.0740897822
v -0.0361290474 -0.0119542103 -0.0711211801
v -0.0357768364 -0.0207917099 -0.0782511091
v -0.0358979912 -0.0206705551 -0.0759758806
v -0.0357987518 -0.0122845154 -0.071639967
v -0.0358650703 -0.0122181873 -0.0743491864
v -0.0359655018 -0.0121177607 -0.0713826132
v -0.0355259914 -0.0210425453 -0.0783980465
v -0.0356752129 -0.0208933334 -0.0761261559
v -0.0356617279 -0.0124215345 -0.07460361
v -0.0356288452 -0.0124544172 -0.0718931675
v -0.0352733822 -0.0212951593 -0.0785387707
v -0.035450613 -0.0211179333 -0.0762709093
v -0.0352798004 -0.012803462 -0.0723867965
v -0.0354552765 -0.0126279907 -0.0748529768
v -0.0354558487 -0.0126274185 -0.0721421361
v -0.0350190658 -0.0215494709 -0.0786732388
v -0.0352242584 -0.0213442831 -0.0764100981
v -0.0350332851 -0.0130499725 -0.075336237
v -0.0352457733 -0.0128374891 -0.0750972128
v -0.0351007576 -0.0129825049 -0.0726270747
v -0.0347631378 -0.0218054037 -0.0788014078
v -0.034766571 -0.0218019705 -0.0766716099
v -0.0349962253 -0.0215723209 -0.0765436792
v -0.0348178882 -0.0132653742 -0.0755699825
v -0.0349187775 -0.0131644802 -0.0728628969
v -0.0345056648 -0.0220628815 -0.0789232445
v -0.0345353813 -0.0220331602 -0.0767938519
v -0.0345462341 -0.0135370283 -0.0733208895
v -0.0345996399 -0.0134836226 -0.0757983732
v -0.0347339172 -0.0133493404 -0.0730941916
v -0.0343027134 -0.0222658281 -0.0769103718
v -0.0343785972 -0.0137046604 -0.076021347
v -0.0343557758 -0.0137274819 -0.0735429192
v -0.0342467232 -0.0223218231 -0.0790387058
v -0.0340686436 -0.022499898 -0.0770211315
v -0.0341548462 -0.0139284163 -0.0762388277
v -0.0341626091 -0.0139206486 -0.0737602162
v -0.0339863987 -0.0225821476 -0.0791477585
v -0.0338332481 -0.0227352982 -0.0771260929
v -0.0337683792 -0.0143148785 -0.0741803408
v -0.0339284439 -0.0141548233 -0.0764507532
v -0.0339667911 -0.0141164665 -0.0739727092
v -0.0337247677 -0.0228437786 -0.0792503691
v -0.0335965843 -0.0229719572 -0.0772252321
v -0.03356744 -0.0145158224 -0.0743830419
v -0.0336994572 -0.0143838101 -0.0766570568
v -0.0334619064 -0.0231066351 -0.0793465042
v -0.0333587379 -0.0232098036 -0.0773185158
v -0.0334679527 -0.014615305 -0.0768576813
v -0.0333640213 -0.0147192364 -0.0745807505
v -0.0331979008 -0.0233706408 -0.0794361401
v -0.0331197758 -0.0234487658 -0.0774059153
v -0.0332340164 -0.0148492413 -0.0770525599
v -0.0331581993 -0.0149250584 -0.0747734118
v -0.032932827 -0.0236357098 -0.079519248
v -0.0328797741 -0.0236887674 -0.077487402
v -0.0327591057 -0.015324152 -0.0774248457
v -0.032997715 -0.0150855475 -0.0772416353
v -0.0329500313 -0.0151332264 -0.0749609613
v -0.0326667805 -0.0239017658 -0.0795957994
v -0.0326387997 -0.0239297419 -0.077562952
v -0.0325182743 -0.0155649834 -0.0776021433
v -0.0325269146 -0.0155563479 -0.0753205061
v -0.032739584 -0.0153436785 -0.0751433468
v -0.0323998184 -0.0241687279 -0.0796657705
v -0.0323969288 -0.0241716127 -0.0776325417
v -0.0322752972 -0.0158079605 -0.0777734709
v -0.0323120899 -0.0157711725 -0.0754923964
v -0.0321320362 -0.0244365101 -0.0797291422
v -0.0321542377 -0.0244143038 -0.0776961565
v -0.032030241 -0.0160530214 -0.0779387712
v -0.0320951767 -0.0159880858 -0.0756589508
v -0.0318635101 -0.0247050314 -0.0797858953
v -0.0319108028 -0.0246577387 -0.077753768
v -0.0317831821 -0.0163000803 -0.0780980015
v -0.0318762417 -0.0162070208 -0.0758201313
v -0.031594326 -0.0249742155 -0.0798360157
v -0.0316666908 -0.0249018507 -0.0778053617
v -0.0315341968 -0.0165490656 -0.0782511091
v -0.0316553516 -0.0164279108 -0.0759758806
v -0.0313245697 -0.0252439766 -0.0798794794
v -0.031421978 -0.0251465635 -0.0778509235
v -0.0312833519 -0.0167999058 -0.0783980465
v -0.0314325733 -0.0166506939 -0.0761261559
v -0.0310543079 -0.0255142336 -0.0799162817
v -0.0311767406 -0.0253918009 -0.077890439
v -0.0310307426 -0.0170525198 -0.0785387707
v -0.0312079735 -0.0168752937 -0.0762709093
v -0.0307836456 -0.0257849007 -0.0799464083
v -0.0309310551 -0.0256374912 -0.0779238939
v -0.0307764263 -0.0173068314 -0.0786732388
v -0.0307535858 -0.0173296814 -0.0765436792
v -0.0309816189 -0.0171016436 -0.0764100981
v -0.03051264 -0.0260559015 -0.0799698496
v -0.030684988 -0.0258835535 -0.0779512787
v -0.0305204983 -0.0175627642 -0.0788014078
v -0.0305239315 -0.017559331 -0.0766716099
v -0.0304386253 -0.0261299162 -0.0779725885
v -0.0302630157 -0.0178202419 -0.0789232445
v -0.0302927418 -0.0177905207 -0.0767938519
v -0.0302413959 -0.0263271504 -0.0799865961
v -0.0301920338 -0.026376503 -0.0779878187
v -0.0300040836 -0.0180791788 -0.0790387058
v -0.0300600738 -0.0180231886 -0.0769103718
v -0.0299699802 -0.0265985613 -0.0799966478
v -0.0299452991 -0.0266232424 -0.0779969549
v -0.029826004 -0.0182572584 -0.0770211315
v -0.0296984882 -0.0268700581 -0.08
v -0.0296984882 -0.0268700581 -0.0780000019
v -0.029691412 -0.0268771296 -0.0779999971
v -0.0297437591 -0.0183395081 -0.0791477585
v -0.0295906086 -0.0184926586 -0.0771260929
v -0.0294821281 -0.0186011391 -0.0792503691
v -0.0293539448 -0.0187293177 -0.0772252321
v -0.0292192669 -0.0188639956 -0.0793465042
v -0.0291160984 -0.018967164 -0.0773185158
v -0.0289552612 -0.0191280012 -0.0794361401
v -0.0288771362 -0.0192061262 -0.0774059153
v -0.0286901874 -0.0193930702 -0.079519248
v -0.0286371345 -0.0194461279 -0.077487402
v -0.0284241314 -0.0196591263 -0.0795957994
v -0.0283961601 -0.0196871023 -0.077562952
v -0.0281571789 -0.0199260836 -0.0796657705
v -0.0281542892 -0.0199289684 -0.0776325417
v -0.0278893967 -0.0201938658 -0.0797291422
v -0.0279115982 -0.0201716595 -0.0776961565
v -0.0276208706 -0.0204623919 -0.0797858953
v -0.0276681633 -0.0204150992 -0.077753768
v -0.0273516865 -0.020731576 -0.0798360157
v -0.0274240513 -0.0206592112 -0.0778053617
v -0.0270819302 -0.0210013371 -0.0798794794
v -0.0271793384 -0.020903924 -0.0778509235
v -0.0268116684 -0.0212715941 -0.0799162817
v -0.0269341011 -0.0211491613 -0.077890439
v -0.0265409965 -0.0215422611 -0.0799464083
v -0.0266884155 -0.0213948469 -0.0779238939
v -0.0262700004 -0.021813262 -0.0799698496
v -0.0264423485 -0.0216409092 -0.0779512787
v -0.0261959858 -0.0218872767 -0.0779725885
v -0.0259987564 -0.022084506 -0.0799865961
v -0.0259493942 -0.0221338635 -0.0779878187
v -0.0257273407 -0.0223559218 -0.0799966478
v -0.0257026596 -0.0223806028 -0.0779969549
v -0.0254558487 -0.0226274185 -0.08
v -0.0254558487 -0.0226274185 -0.0780000019
v -0.0254487724 -0.02263449 -0.0779999971
v -0.024041626 -0.0325269108 -0.08
v -0.024041626 -0.0325269108 -0.0780000019
v -0.0240487022 -0.0325198393 -0.0779999971
v -0.0238063068 -0.0327622395 -0.0779944611
v -0.0238935394 -0.0326750021 -0.0799981737
v -0.0238847275 -0.0326838141 -0.0779975367
v -0.0235975475 -0.0329709988 -0.0799835539
v -0.0235712356 -0.0329973059 -0.0779778481
v -0.0233020897 -0.0332664518 -0.0799543381
v -0.0232586689 -0.0333098774 -0.077938509
v -0.023449728 -0.0331188135 -0.0799707699
v -0.023336689 -0.0332318525 -0.077950182
v -0.0230075378 -0.0335610085 -0.0799105549
v -0.023025219 -0.0335433226 -0.0778961515
v -0.0231546802 -0.0334138661 -0.0799342632
v -0.0231029243 -0.033465622 -0.0779114914
v -0.0227928944 -0.0337756424 -0.0778428316
v -0.0228607101 -0.0337078362 -0.0798832178
v -0.0228701992 -0.0336983471 -0.0778618193
v -0.0225681801 -0.0340003662 -0.0798176908
v -0.0225619621 -0.0340065842 -0.0777786064
v -0.0227142448 -0.0338543015 -0.0798522615
v -0.022638771 -0.0339297705 -0.0778012228
v -0.0222774429 -0.0342911034 -0.0797377729
v -0.0222566337 -0.0343119078 -0.0776761341
v -0.0224225635 -0.034145978 -0.0797795248
v -0.0224853344 -0.0340832119 -0.0777547884
v -0.0223326607 -0.0342358809 -0.0777035475
v -0.0220299168 -0.0345386248 -0.0775867653
v -0.0221328564 -0.0344356852 -0.07969244
v -0.022105257 -0.0344632845 -0.0776177406
v -0.0218054314 -0.0347631149 -0.0774867725
v -0.0218454761 -0.0347230654 -0.0795911121
v -0.0218799992 -0.0346885471 -0.0775212765
v -0.0215607757 -0.0350077658 -0.0794756556
v -0.0215100021 -0.0350585346 -0.0773371172
v -0.0217027683 -0.0348657732 -0.079535141
v -0.021583416 -0.0349851256 -0.0773762655
v -0.021279089 -0.0352894478 -0.0793462229
v -0.0212916775 -0.0352768641 -0.0772127914
v -0.0214195366 -0.0351490097 -0.0794126797
v -0.0213641281 -0.0352044134 -0.077255373
v -0.0210007782 -0.0355677633 -0.0792029667
v -0.0210053558 -0.0355631857 -0.0770311737
v -0.0211394901 -0.0354290514 -0.0792763138
v -0.0210764046 -0.0354921417 -0.0770782614
v -0.020794508 -0.0357740288 -0.0768832684
v -0.0208629913 -0.035705555 -0.0791262054
v -0.0208644028 -0.0357041388 -0.07693367
v -0.0205190201 -0.0360495262 -0.0766707802
v -0.0207261677 -0.0358423739 -0.0790460587
v -0.0205903549 -0.0359781866 -0.0789625454
v -0.0206559296 -0.035912612 -0.0767791843
v -0.020587265 -0.0359812813 -0.0767255211
v -0.0203169174 -0.0362516193 -0.0765001822
v -0.0202504654 -0.0363180809 -0.0764412117
v -0.0203219242 -0.0362466126 -0.0787855291
v -0.0203838367 -0.0361847048 -0.0765581036
v -0.020058033 -0.0365105085 -0.0785953712
v -0.0200539131 -0.0365146237 -0.0762581015
v -0.0201893921 -0.0363791494 -0.0786920786
v -0.0201189537 -0.0364495926 -0.0763201666
v -0.0197989864 -0.0367695503 -0.0783923054
v -0.0197987671 -0.0367697792 -0.0759997606
v -0.019927885 -0.0366406565 -0.0784954357
v -0.0198617859 -0.0367067556 -0.0760658455
v -0.0198060627 -0.0282771998 -0.0799999952
v -0.0197989864 -0.0282842713 -0.0780000019
v -0.0198060627 -0.0282771998 -0.0779999971
v -0.0195451183 -0.037023428 -0.0781765795
v -0.0195519657 -0.0370165711 -0.0757256651
v -0.0196713848 -0.0368971567 -0.0782860088
v -0.0196128578 -0.0369556837 -0.0757956362
v -0.019502861 -0.0285804014 -0.0799926901
v -0.0195636578 -0.0285195999 -0.0779944611
v -0.0196508999 -0.0284323578 -0.0799981737
v -0.0197205372 -0.0283627253 -0.0779993868
v -0.0192967243 -0.037271822 -0.077948451
v -0.0192559643 -0.0373125773 -0.0753617144
v -0.0194202156 -0.0371483259 -0.0780640459
v -0.0193726463 -0.0371958904 -0.0755100775
v -0.0193285961 -0.0287546663 -0.0779778481
v -0.019354908 -0.0287283545 -0.0799835539
v -0.0194852657 -0.0285979967 -0.0779901505
v -0.0190541096 -0.0375144367 -0.0777082062
v -0.0190297241 -0.0375388222 -0.0750541878
v -0.0191746731 -0.0373938685 -0.0778298235
v -0.0191985054 -0.0373700409 -0.0752861691
v -0.019085371 -0.0374831658 -0.0751323938
v -0.0190594501 -0.0290238123 -0.0799543381
v -0.0190160293 -0.0290672331 -0.077938509
v -0.0192070885 -0.028876174 -0.0799707699
v -0.0191721554 -0.0289111071 -0.0779606295
v -0.0188175697 -0.0377509718 -0.077456131
v -0.0187608452 -0.0378076964 -0.0746503139
v -0.0189350624 -0.0376334839 -0.0775836277
v -0.0188664932 -0.0377020483 -0.0748143888
v -0.0187648983 -0.0293183689 -0.0799105549
v -0.0187825794 -0.029300683 -0.0778961515
v -0.0189120407 -0.0291712265 -0.0799342632
v -0.0189381046 -0.0291451578 -0.0779256105
v -0.0185574074 -0.0380111294 -0.0743124223
v -0.0185082264 -0.0380603199 -0.0742259789
v -0.0187016697 -0.0378668718 -0.0773257494
v -0.0185874004 -0.0379811459 -0.0771925354
v -0.0187089939 -0.0378595429 -0.0745670438
v -0.018607275 -0.0379612713 -0.0743980861
v -0.0185502548 -0.0295330029 -0.0778428316
v -0.0186180706 -0.0294651919 -0.0798832178
v -0.018704998 -0.0293782597 -0.0778795958
v -0.0182546825 -0.038313859 -0.0767762423
v -0.0182726211 -0.0382959156 -0.0737824869
v -0.018474781 -0.0380937557 -0.0770565128
v -0.0183638687 -0.0382046728 -0.0769177389
v -0.0184118957 -0.038156641 -0.074050808
v -0.0183647747 -0.0382037668 -0.0739620972
v -0.0183255405 -0.0297577267 -0.0798176908
v -0.0183193226 -0.0297639399 -0.0777786064
v -0.0184715958 -0.0296116619 -0.0798522615
v -0.0184731121 -0.0296101503 -0.0778226328
v -0.0180416317 -0.0385269098 -0.076485281
v -0.0180547829 -0.0385137634 -0.0733212042
v -0.0180134029 -0.0385551434 -0.0732269359
v -0.0181472607 -0.0384212856 -0.0766320753
v -0.0181397457 -0.0384288006 -0.073507762
v -0.0180968971 -0.0384716492 -0.0734148169
v -0.0180348034 -0.0300484591 -0.0797377729
v -0.0180139942 -0.0300692635 -0.0776761341
v -0.018179924 -0.0299033384 -0.0797795248
v -0.0182426948 -0.0298405676 -0.0777547884
v -0.0181662578 -0.0299170046 -0.0777297688
v -0.0177808781 -0.0387876635 -0.0726482248
v -0.0179378338 -0.0386307125 -0.0763359022
v -0.017835886 -0.0387326555 -0.0761839819
v -0.0179328747 -0.0386356716 -0.0730364799
v -0.0178553505 -0.038713191 -0.0728435469
v -0.0177872772 -0.0302959852 -0.0775867653
v -0.0178902168 -0.0301930456 -0.07969244
v -0.0179381866 -0.030145071 -0.0776475334
v -0.0175415249 -0.0390270166 -0.0757134533
v -0.017514164 -0.0390543823 -0.0718450356
v -0.017735836 -0.0388327055 -0.0760295677
v -0.0176377029 -0.0389308338 -0.0758727074
v -0.0177448006 -0.0388237457 -0.0725497007
v -0.017641222 -0.0389273243 -0.0722508168
v -0.0175760956 -0.038992446 -0.072048924
v -0.0175627918 -0.0305204706 -0.0774867725
v -0.017746212 -0.0303370457 -0.0796435499
v -0.0177121849 -0.0303710728 -0.0775546074
v -0.0172649879 -0.0393035584 -0.0752217817
v -0.0172988434 -0.0392697029 -0.0710115695
v -0.0172532482 -0.0393152933 -0.0707992363
v -0.0174473305 -0.0391212158 -0.0755518436
v -0.0173551388 -0.0392134028 -0.0753879356
v -0.0174272938 -0.0391412478 -0.0715356851
v -0.0173734493 -0.039195097 -0.0713272548
v -0.0173228855 -0.0392456608 -0.0711171865
v -0.0173181362 -0.0307651262 -0.0794756556
v -0.0172673626 -0.0308158951 -0.0773371172
v -0.0174601288 -0.0306231337 -0.079535141
v -0.0174885006 -0.0305947619 -0.0774510956
v -0.0170070095 -0.0395615273 -0.0747103143
v -0.0170505638 -0.0395179777 -0.0695000005
v -0.0170318432 -0.0395367031 -0.0693136644
v -0.0170084114 -0.0395601301 -0.069033308
v -0.0170018501 -0.0395666914 -0.0689396644
v -0.017176897 -0.0393916493 -0.0750534248
v -0.0170908947 -0.0394776468 -0.0748829174
v -0.0172110004 -0.0393575411 -0.0705855274
v -0.0170038052 -0.0392583017 -0.070281229
v -0.017011425 -0.0392769699 -0.0702476192
v -0.0170445557 -0.0393867664 -0.0699981809
v -0.0170425243 -0.0394560223 -0.0697325563
v -0.0170364494 -0.0310468083 -0.0793462229
v -0.0170490379 -0.0310342198 -0.0772127914
v -0.017176897 -0.0309063654 -0.0794126797
v -0.0171942634 -0.0308889942 -0.0772968197
v -0.0167683239 -0.0398002176 -0.0741804576
v -0.0169252701 -0.0396432667 -0.0745356679
v -0.016845705 -0.0397228365 -0.0743590307
v -0.0167628403 -0.0395040302 -0.0697581053
v -0.0168941708 -0.039505146 -0.0695000005
v -0.0169905872 -0.0395779495 -0.0687521315
v -0.0169818325 -0.039586709 -0.0685643315
v -0.0169733829 -0.0395951634 -0.0682822776
v -0.0169708748 -0.0395976668 -0.0680941033
v -0.0169705601 -0.0395979815 -0.0679999995
v -0.0167833061 -0.0392539196 -0.0703534603
v -0.0167506523 -0.0394200306 -0.0700570035
v -0.0167545242 -0.0394467621 -0.0699840331
v -0.0169540329 -0.03949364 -0.0695000005
v -0.0169977779 -0.0394845562 -0.0694067526
v -0.0169689007 -0.039490674 -0.0692198992
v -0.0169330425 -0.0394979363 -0.068938899
v -0.0168731041 -0.039011076 -0.0706081295
v -0.0169302292 -0.0391087227 -0.070499599
v -0.0167588062 -0.0388384991 -0.0707560921
v -0.0167685146 -0.0388523083 -0.0707459688
v -0.0167581386 -0.0313251238 -0.0792029667
v -0.0167627163 -0.0313205414 -0.0770311737
v -0.0168968506 -0.0311864071 -0.0792763138
v -0.0169769306 -0.0311063318 -0.077169075
v -0.0165495701 -0.0400189715 -0.0736336589
v -0.0166931648 -0.0398753815 -0.074000001
v -0.0166202373 -0.0399483042 -0.0738177156
v -0.0165205784 -0.0395026665 -0.0698847461
v -0.0167135162 -0.0395333891 -0.0695000005
v -0.0167002411 -0.0395350819 -0.0679999995
v -0.0165022011 -0.0392568188 -0.0703956056
v -0.0165096111 -0.0393558865 -0.0702437472
v -0.0165183372 -0.0394726925 -0.0699840331
v -0.0165347214 -0.0390034371 -0.0706579661
v -0.0165010376 -0.0392411976 -0.0704162788
v -0.0166976089 -0.0387542801 -0.0708122635
v -0.0165252132 -0.0389003115 -0.0707359815
v -0.0165046425 -0.0385128002 -0.0709270692
v -0.016555397 -0.0378918295 -0.072174201
v -0.0165518684 -0.0315313892 -0.0768832684
v -0.0166203518 -0.0314629154 -0.0791262054
v -0.016692049 -0.0313912087 -0.076982975
v -0.0162899418 -0.0402786045 -0.0728808403
v -0.0164151115 -0.04015343 -0.0732604527
v -0.0163513584 -0.0402171879 -0.0730714202
v -0.0162810345 -0.0395053463 -0.0699097586
v -0.0164708252 -0.0395562964 -0.0695000005
v -0.0164584751 -0.0395570068 -0.0679999995
v -0.0162797375 -0.0392500191 -0.0704162788
v -0.0162803192 -0.0393650322 -0.0702437472
v -0.01628092 -0.0394821577 -0.0699840331
v -0.0162785358 -0.0390158825 -0.0706579661
v -0.0162793941 -0.0391838532 -0.0704961729
v -0.0162772198 -0.0387568503 -0.0708295679
v -0.0162780113 -0.038912323 -0.0707359815
v -0.0164939709 -0.0385002594 -0.0709313726
v -0.0162731094 -0.038254612 -0.070987637
v -0.0164422817 -0.03800494 -0.071872232
v -0.0163832111 -0.0380640154 -0.0717415309
v -0.0162514229 -0.0381957941 -0.0714932847
v -0.0162682648 -0.038178957 -0.0711431217
v -0.01625354 -0.0382339316 -0.0709901619
v -0.0164966221 -0.0379505949 -0.0720070982
v -0.0164861412 -0.0379610806 -0.0719798017
v -0.0162537689 -0.0379424934 -0.0717484879
v -0.0162517471 -0.0375415068 -0.0722454381
v -0.0162763805 -0.0318068819 -0.0766707802
v -0.0164835281 -0.0315997343 -0.0790460587
v -0.0163477154 -0.0317355471 -0.0789625454
v -0.0164823742 -0.0316008835 -0.0768317699
v -0.0163446255 -0.0317386417 -0.0767255211
v -0.016068079 -0.0405004673 -0.0721042418
v -0.0160186405 -0.040549901 -0.071906817
v -0.0162308903 -0.040337656 -0.0726887727
v -0.0161199398 -0.0404486065 -0.072300415
v -0.0161603947 -0.0395385437 -0.0697581053
v -0.0162271137 -0.0395622568 -0.0695000005
v -0.0162157745 -0.0395621233 -0.0679999995
v -0.0161659641 -0.0393505745 -0.070266161
v -0.0161623592 -0.0394721251 -0.0700085115
v -0.0161616344 -0.039496582 -0.0699346495
v -0.0161714668 -0.0391651325 -0.0705154157
v -0.0161689873 -0.0392486601 -0.0704162788
v -0.0161796303 -0.038889616 -0.0707504916
v -0.0161765213 -0.0389944677 -0.0706742811
v -0.0161842842 -0.0387326174 -0.0708413768
v -0.0161938209 -0.0382534008 -0.0713991356
v -0.0160868282 -0.0383603935 -0.0712421155
v -0.0160078258 -0.0384394007 -0.0709473205
v -0.0160642834 -0.0380247336 -0.0715114117
v -0.0162372799 -0.0382099419 -0.0714694643
v -0.0162339039 -0.0382133131 -0.070992372
v -0.016205637 -0.0378890019 -0.0717594385
v -0.0161202545 -0.037999094 -0.0715769029
v -0.0162428303 -0.0375559836 -0.072210741
v -0.0161803455 -0.0377470951 -0.0718890786
v -0.0160623665 -0.0373331719 -0.0722739315
v -0.0160019798 -0.0374806481 -0.0720006108
v -0.0160792847 -0.032003973 -0.0787855291
v -0.0160742779 -0.0320089798 -0.0765001822
v -0.0160078258 -0.0320754414 -0.0764412117
v -0.0162129517 -0.031870306 -0.0788756943
v -0.0162085647 -0.0318746929 -0.0766149712
v -0.015808403 -0.0407601433 -0.0709030628
v -0.0157738228 -0.040794714 -0.0706994128
v -0.0159271164 -0.0406414251 -0.07150846
v -0.0158850593 -0.0406834869 -0.0713076472
v -0.0158454819 -0.0407230644 -0.0711058283
v -0.015979435 -0.0395284538 -0.0697581053
v -0.015983593 -0.0395512371 -0.0695000005
v -0.0159733028 -0.0395503979 -0.0679999995
v -0.0159947891 -0.0393410282 -0.070266161
v -0.0159848614 -0.0394622259 -0.0700085115
v -0.0159822674 -0.0394938927 -0.0699097586
v -0.0159562416 -0.0391512566 -0.0705154157
v -0.0159479637 -0.0392344122 -0.0704162788
v -0.0159835167 -0.0388769703 -0.0707504916
v -0.0159731407 -0.03898135 -0.0706742811
v -0.015939476 -0.0385077505 -0.0710565233
v -0.0157597084 -0.0386875181 -0.0708405399
v -0.0159870453 -0.0382572394 -0.0712698293
v -0.0159897728 -0.0384574442 -0.0711163592
v -0.0159475346 -0.0384996824 -0.0709276819
v -0.0158218784 -0.038146637 -0.0712642193
v -0.015751173 -0.0381851082 -0.0712018967
v -0.0159717197 -0.0379270105 -0.0715294504
v -0.0159900589 -0.0379901152 -0.0714885449
v -0.0159836311 -0.0376877098 -0.0717591739
v -0.015882122 -0.0377467423 -0.0716187334
v -0.0159982223 -0.0372641354 -0.0722812247
v -0.0158782978 -0.0373490505 -0.072014184
v -0.0159804935 -0.0374933796 -0.071961844
v -0.0158031101 -0.0370584421 -0.0722968984
v -0.0158638401 -0.0372494774 -0.0721180105
v -0.0158153934 -0.032267869 -0.0785953712
v -0.0158112736 -0.0322719841 -0.0762581015
v -0.0159467525 -0.0321365099 -0.0786920786
v -0.0159418316 -0.0321414309 -0.0763812065
v -0.0155679817 -0.0410005646 -0.0686280322
v -0.0155615158 -0.0410070257 -0.0684187937
v -0.0155576439 -0.0410109024 -0.0682094288
v -0.0155563469 -0.0410121946 -0.0679999995
v -0.015712244 -0.0408562927 -0.0702897072
v -0.015685255 -0.0408832817 -0.0700837779
v -0.0156608124 -0.0409077244 -0.0698772144
v -0.0156389255 -0.040929616 -0.0696700764
v -0.015602829 -0.0409657078 -0.0692543411
v -0.0155886383 -0.0409799032 -0.0690458679
v -0.0155770225 -0.0409915238 -0.0688370776
v -0.0157394428 -0.0395003681 -0.0697581053
v -0.0157414265 -0.0395232945 -0.0695000005
v -0.0157322235 -0.0395218973 -0.0679999995
v -0.0157113571 -0.039305356 -0.070266161
v -0.0157494564 -0.0394346743 -0.0700085115
v -0.0157401485 -0.039495738 -0.0697836185
v -0.0155613918 -0.0394913082 -0.0695000005
v -0.0155530281 -0.0394895868 -0.0679999995
v -0.0157424946 -0.0391224699 -0.0705154157
v -0.0157232685 -0.0392353802 -0.0703746629
v -0.0155283756 -0.0387624436 -0.0707699442
v -0.0155859966 -0.0388102417 -0.0707493901
v -0.0157048817 -0.0387423353 -0.0708061171
v -0.015516798 -0.0383206539 -0.0710223293
v -0.0155203361 -0.0383789282 -0.070990262
v -0.015715601 -0.0380705052 -0.0712625599
v -0.0156445236 -0.0382453137 -0.0711152577
v -0.0157246227 -0.0379940443 -0.0713205385
v -0.0155130215 -0.037984026 -0.0712188482
v -0.0156897755 -0.0376811676 -0.0715312028
v -0.0155918522 -0.0377493363 -0.0714160633
v -0.0157474441 -0.0374398546 -0.0717859244
v -0.0156762428 -0.0374913149 -0.0716779351
v -0.0157262535 -0.0370031386 -0.0722654963
v -0.0156895466 -0.037152441 -0.0720276332
v -0.0157126064 -0.0372486143 -0.0719457006
v -0.0155377788 -0.0367880468 -0.0723043871
v -0.0155915565 -0.0369956284 -0.0720983338
v -0.0155563469 -0.0325269108 -0.0783923054
v -0.0155561275 -0.0325271349 -0.0759997606
v -0.0156852455 -0.0323980169 -0.0784954357
v -0.0157467289 -0.0323365288 -0.0761950254
v -0.0154875107 -0.0392591934 -0.070266161
v -0.0154588241 -0.0393773632 -0.0700085115
v -0.0154431457 -0.0394419413 -0.0697581053
v -0.0154424114 -0.0394647818 -0.0695000005
v -0.0154937 -0.0394767504 -0.0679999995
v -0.0154789753 -0.0390657311 -0.0705154157
v -0.0154906769 -0.0392461281 -0.0702883458
v -0.0153734035 -0.0392428808 -0.0702437472
v -0.0154539986 -0.0387725573 -0.0707504916
v -0.0154973812 -0.0389952736 -0.0705892968
v -0.0152688808 -0.0385552197 -0.070835042
v -0.0153066845 -0.0387469559 -0.0707359815
v -0.0154982872 -0.0383318453 -0.0710097909
v -0.0152525635 -0.0384866219 -0.0708641243
v -0.0154331989 -0.0382460861 -0.071035316
v -0.0152566738 -0.0382332783 -0.070984807
v -0.0154400749 -0.0378586941 -0.0712599492
v -0.0154960461 -0.0379956322 -0.071203835
v -0.0154924126 -0.0375282984 -0.0715116668
v -0.0153478546 -0.0377418261 -0.0712836838
v -0.0154348965 -0.0374707871 -0.0715147257
v -0.0154091568 -0.0374920445 -0.0714821506
v -0.0154830475 -0.037210496 -0.0717628121
v -0.015438282 -0.0372497492 -0.0716905832
v -0.0154977913 -0.0369572287 -0.0720335603
v -0.015460989 -0.0369921665 -0.0719547081
v -0.0152672787 -0.0365224629 -0.0722972608
v -0.0154466171 -0.036745389 -0.0722349644
v -0.0153024788 -0.0327807837 -0.0781765795
v -0.0153093262 -0.0327739315 -0.0757256651
v -0.0154287453 -0.0326545124 -0.0782860088
v -0.0154936237 -0.0325896387 -0.0759326935
v -0.0152305813 -0.0393134909 -0.0700085115
v -0.0152104587 -0.0393768196 -0.0697581053
v -0.0152075691 -0.0393993788 -0.0695000005
v -0.0152008934 -0.0393972569 -0.0679999995
v -0.0152130813 -0.0391798191 -0.070266161
v -0.0151899643 -0.0392484455 -0.0701284766
v -0.0150011558 -0.039249485 -0.0699594092
v -0.0152213688 -0.0389863472 -0.0705154157
v -0.0151646061 -0.0389840822 -0.0704961729
v -0.0152335377 -0.0385273008 -0.0708413625
v -0.0152061767 -0.0387318497 -0.0707210994
v -0.0150109787 -0.0383485012 -0.0708717346
v -0.0152318973 -0.0381825523 -0.0710014105
v -0.0152383251 -0.0382463293 -0.0709730983
v -0.0150455971 -0.0379862099 -0.071029911
v -0.0152066536 -0.0376621466 -0.0712579799
v -0.0152290459 -0.0377414875 -0.0712248206
v -0.0151591606 -0.0374991589 -0.0713264966
v -0.0152030392 -0.0372391873 -0.071521163
v -0.0150824947 -0.0372434406 -0.0714376688
v -0.0152384395 -0.0369648342 -0.0717655897
v -0.01521805 -0.0369861584 -0.0717291546
v -0.0152387066 -0.03669977 -0.0720308399
v -0.0152058144 -0.0367383556 -0.0719521689
v -0.015061533 -0.0363273077 -0.0722815633
v -0.0151651592 -0.0364958935 -0.0721904778
v -0.0150540848 -0.0330291824 -0.077948451
v -0.0150713749 -0.0330118828 -0.0754363537
v -0.0151775761 -0.0329056864 -0.0780640459
v -0.0152489967 -0.0328342657 -0.0756547403
v -0.0149828548 -0.0392957001 -0.0697581053
v -0.0149778576 -0.0393177824 -0.0695000005
v -0.0149722881 -0.0393155794 -0.0679999995
v -0.0149991531 -0.0390993576 -0.070266161
v -0.0149524135 -0.0392116194 -0.0700085115
v -0.0149375648 -0.0392472916 -0.0698847461
v -0.0148096008 -0.0392462044 -0.0695000005
v -0.0148048515 -0.03924403 -0.0679999995
v -0.0149713631 -0.0388847904 -0.0705154157
v -0.0149811287 -0.0389978581 -0.0703956056
v -0.0149977035 -0.0385918312 -0.0707504916
v -0.0149788875 -0.0387439995 -0.0706413054
v -0.0149338646 -0.0382846527 -0.0708791447
v -0.0147717686 -0.0384907942 -0.0707359815
v -0.0147774429 -0.0381508236 -0.0708902001
v -0.0149589748 -0.0379685097 -0.0710085344
v -0.0149238415 -0.0379985647 -0.0709852219
v -0.0148884411 -0.0377465944 -0.071076107
v -0.014987566 -0.0374474077 -0.0712633038
v -0.0149420376 -0.0374915533 -0.0712174487
v -0.0149709721 -0.0370065909 -0.0715194726
v -0.0149671478 -0.0372469454 -0.0713639998
v -0.0147569199 -0.0372442417 -0.0712464666
v -0.0149928684 -0.0369819813 -0.0715527153
v -0.0148692627 -0.0369997721 -0.0714529657
v -0.0149925346 -0.0367215185 -0.0717581654
v -0.0149742432 -0.0367445068 -0.0717219496
v -0.0149924774 -0.0362631683 -0.0722742295
v -0.0149005909 -0.036375411 -0.0720073724
v -0.0149902363 -0.0364940958 -0.0719779849
v -0.0148537846 -0.0361364346 -0.0722562599
v -0.0147841759 -0.0360738878 -0.0722455764
v -0.01481147 -0.0332717924 -0.0777082062
v -0.0147870846 -0.0332961779 -0.0750541878
v -0.0149320335 -0.0331512289 -0.0778298235
v -0.0149558659 -0.0331273966 -0.0752861691
v -0.0148989983 -0.0331842642 -0.0752097225
v -0.0147369022 -0.0391129809 -0.0700085115
v -0.0147071667 -0.0391724043 -0.0697581053
v -0.014699604 -0.0391936426 -0.0695000005
v -0.0147498913 -0.0392182522 -0.0679999995
v -0.0147316189 -0.0387621861 -0.0705154157
v -0.0147404404 -0.0389782124 -0.070266161
v -0.0147343941 -0.0389897852 -0.0702437472
v -0.0147403641 -0.0387467747 -0.0705343556
v -0.0146207161 -0.0387366991 -0.0704766297
v -0.014741375 -0.0384463911 -0.0707504916
v -0.0147183723 -0.0384824209 -0.0707210994
v -0.0146205254 -0.0380090742 -0.0708965826
v -0.0147361774 -0.0377910118 -0.0710033369
v -0.0145042915 -0.0378977804 -0.0708985496
v -0.0146852894 -0.0377413445 -0.0710039496
v -0.0145849914 -0.0377410297 -0.0709702229
v -0.0147282143 -0.0374934273 -0.0711176229
v -0.0147175903 -0.0371739416 -0.0712604618
v -0.0146617432 -0.0372372894 -0.0711998105
v -0.0146197815 -0.036985157 -0.0713015723
v -0.0146745891 -0.0367103176 -0.0715033889
v -0.0146552486 -0.0367371779 -0.0714710999
v -0.0147163887 -0.0364157467 -0.0717696691
v -0.0146702785 -0.0364899998 -0.0716629243
v -0.014714405 -0.0360119276 -0.0722337294
v -0.01466963 -0.0362282019 -0.0719041729
v -0.0145117683 -0.0362245016 -0.0717400193
v -0.0145043106 -0.0358298473 -0.0721909523
v -0.0145749302 -0.0335083323 -0.077456131
v -0.0145707054 -0.0335125523 -0.0747327662
v -0.0146924229 -0.0333908396 -0.0775836277
v -0.014732048 -0.0333512144 -0.0749751091
v -0.0144949741 -0.0390568333 -0.0697581053
v -0.0144854469 -0.0390771895 -0.0695000005
v -0.0144822616 -0.0390753107 -0.0679999995
v -0.0144932098 -0.0388350849 -0.070266161
v -0.0144779987 -0.0389690333 -0.0700085115
v -0.0144613666 -0.0389961081 -0.0699097586
v -0.0143304272 -0.0389802199 -0.0695000005
v -0.0143279858 -0.0389785986 -0.0679999995
v -0.0144590111 -0.0385881405 -0.0705154157
v -0.0144845409 -0.0387447577 -0.0703746629
v -0.0143435783 -0.0387497168 -0.0702437472
v -0.0144587631 -0.0384978991 -0.0705892968
v -0.0142554207 -0.0384962158 -0.0704567981
v -0.0144634075 -0.0382441311 -0.0707504916
v -0.0143980045 -0.0382450228 -0.0707210994
v -0.0143912048 -0.0377830772 -0.0708982635
v -0.0144867153 -0.0375385599 -0.0710026097
v -0.0142819042 -0.0376662665 -0.070895617
v -0.0144384403 -0.0374872618 -0.0710012412
v -0.0143445129 -0.03748843 -0.0709653902
v -0.0144182701 -0.0372329216 -0.071082387
v -0.0144298954 -0.0368463116 -0.0712568259
v -0.0144613953 -0.036997159 -0.0712031293
v -0.0143603916 -0.0367457419 -0.0712634134
v -0.0142945881 -0.036734107 -0.071226902
v -0.0144634743 -0.0364584761 -0.0715097165
v -0.0144472618 -0.0364863043 -0.0714775038
v -0.0144699974 -0.0361501675 -0.071766026
v -0.0144341297 -0.0362276726 -0.0716606355
v -0.014388134 -0.0358164482 -0.0720297527
v -0.0143438167 -0.0358607702 -0.0718842936
v -0.0142600937 -0.0359444933 -0.0715904903
v -0.0143147678 -0.0337684898 -0.0743124223
v -0.0142655868 -0.0338176756 -0.0742259789
v -0.0144590301 -0.0336242323 -0.0773257494
v -0.0143447609 -0.0337385063 -0.0771925354
v -0.0144663544 -0.0336169033 -0.0745670438
v -0.0144151611 -0.0336680966 -0.0744829655
v -0.0142325611 -0.0388031702 -0.0700085115
v -0.0142418499 -0.0388921099 -0.0697581053
v -0.0142299862 -0.0389111309 -0.0695000005
v -0.0142280216 -0.0389097242 -0.0679999995
v -0.0142143173 -0.0386358338 -0.070266161
v -0.0142024727 -0.0387450581 -0.0700810051
v -0.0141281433 -0.0387440567 -0.0699594092
v -0.0140475387 -0.0387481718 -0.0697325158
v -0.0142466946 -0.0384220629 -0.0705154157
v -0.0141822166 -0.0384974985 -0.0703956056
v -0.0140318985 -0.0384970884 -0.0702437472
v -0.0142461605 -0.0380449801 -0.0707504916
v -0.0141897507 -0.0382472401 -0.070606966
v -0.0142277832 -0.0379946499 -0.0707646298
v -0.0141626186 -0.0379881935 -0.0707359815
v -0.0141765709 -0.0375485401 -0.0708904529
v -0.0140426464 -0.0373922234 -0.0708793712
v -0.0142006607 -0.0371578436 -0.0710078382
v -0.0141313095 -0.0372484951 -0.0709501171
v -0.0141945286 -0.0369881611 -0.0710626149
v -0.0140550918 -0.0369924955 -0.0709896946
v -0.0142391319 -0.0365933972 -0.0712600732
v -0.0142191524 -0.0367412071 -0.0711760926
v -0.0142258472 -0.0364943581 -0.0713033056
v -0.0140923042 -0.0364977245 -0.0712052488
v -0.0141887875 -0.03601579 -0.0715975332
v -0.0141829891 -0.0360215931 -0.0712930846
v -0.0141469498 -0.0360576372 -0.0711431217
v -0.0141125889 -0.0360919933 -0.070992372
v -0.0142322941 -0.0359722881 -0.0716811299
v -0.0142207069 -0.0359838753 -0.0714422178
v -0.0140038223 -0.035989974 -0.0709771609
v -0.014012043 -0.0340712195 -0.0767762423
v -0.0140757103 -0.0340075522 -0.0738726544
v -0.0142321415 -0.0338511162 -0.0770565128
v -0.0141212292 -0.0339620333 -0.0769177389
v -0.0142170734 -0.0338661842 -0.0741387701
v -0.0141221352 -0.0339611273 -0.0739620972
v -0.0139585895 -0.0385771446 -0.0700085115
v -0.0139137287 -0.0386261683 -0.0697581053
v -0.0139899464 -0.038723486 -0.0695000005
v -0.013989069 -0.0387227421 -0.0679999995
v -0.0139988632 -0.0384484272 -0.070266161
v -0.013956644 -0.0384929304 -0.0701519346
v -0.0137864323 -0.0384967165 -0.0697836185
v -0.0139752407 -0.038159874 -0.0705154157
v -0.0139630623 -0.0382458382 -0.0704366779
v -0.013752882 -0.03820823 -0.0702437472
v -0.0139253254 -0.0379915695 -0.0705892968
v -0.0137613983 -0.0379847174 -0.0704567981
v -0.0139909573 -0.0377463894 -0.0707504916
v -0.0139101906 -0.0377437 -0.0707058525
v -0.0139473457 -0.0372770243 -0.0708677053
v -0.0137662716 -0.0374793511 -0.0707210994
v -0.0137707825 -0.0370570545 -0.0708350563
v -0.0139800186 -0.0368116264 -0.0710070801
v -0.0139938469 -0.0369875078 -0.070960331
v -0.0139650268 -0.0367335825 -0.0710246754
v -0.0138976498 -0.036749733 -0.0709792852
v -0.0139417667 -0.0362628155 -0.0712094402
v -0.0137656803 -0.0364388971 -0.0709972501
v -0.0139919109 -0.0362126713 -0.0712784171
v -0.0139589329 -0.0362456493 -0.071232574
v -0.0139684029 -0.0362361746 -0.0709686995
v -0.0137603874 -0.0357769661 -0.0709072447
v -0.0137989921 -0.0342842703 -0.076485281
v -0.0138121338 -0.0342711239 -0.0733212042
v -0.0137707539 -0.0343125038 -0.0732269359
v -0.0139046211 -0.0341786413 -0.0766320753
v -0.0139849777 -0.0340982895 -0.0736916089
v -0.0138542576 -0.0342290049 -0.0734148169
v -0.0137487621 -0.0383673124 -0.0700085115
v -0.0137410278 -0.0384564524 -0.0697581053
v -0.0137247772 -0.0384718304 -0.0695000005
v -0.0137250442 -0.0384721069 -0.0679999995
v -0.0137260551 -0.038155983 -0.070266161
v -0.0137077637 -0.0382467966 -0.0701284766
v -0.0136133785 -0.0382489472 -0.0699346495
v -0.0135248585 -0.038241909 -0.0695000005
v -0.0135258884 -0.038243206 -0.0679999995
v -0.0137377567 -0.0378668861 -0.0705154157
v -0.0137484093 -0.0379946928 -0.0704366779
v -0.013555891 -0.0379968195 -0.0701982594
v -0.0137217159 -0.0377481299 -0.070571301
v -0.0136325283 -0.0377422123 -0.0704961729
v -0.0137340755 -0.0373282032 -0.0707504916
v -0.0137300033 -0.0374999313 -0.0706902456
v -0.0137432499 -0.0370222597 -0.0708283377
v -0.0136720772 -0.0372485142 -0.0707359815
v -0.013527462 -0.0367540293 -0.0707546878
v -0.0135030765 -0.0369925337 -0.0706902456
v -0.0136978073 -0.0365067749 -0.0709259653
v -0.0135013313 -0.0367032509 -0.0707457757
v -0.0137435932 -0.036460989 -0.070973475
v -0.0135067291 -0.0362401896 -0.070791769
v -0.0137437553 -0.0357632523 -0.0709004283
v -0.0135131473 -0.035585392 -0.0707742715
v -0.0135750885 -0.0345081692 -0.0727461791
v -0.0136951847 -0.034388073 -0.0763359022
v -0.0135932465 -0.0344900112 -0.0761839819
v -0.0137301178 -0.0343531399 -0.0731320238
v -0.0136510963 -0.0344321661 -0.0729403162
v -0.0134878654 -0.0380454235 -0.0700085115
v -0.0134693451 -0.0381329088 -0.0697581053
v -0.0134873123 -0.0381938868 -0.0695000005
v -0.0134884758 -0.0381954031 -0.0679999995
v -0.0134908218 -0.0378326874 -0.070266161
v -0.0134538288 -0.0379969053 -0.0700085115
v -0.0133652706 -0.0379845266 -0.0697581053
v -0.0133456821 -0.0379954748 -0.0695000005
v -0.0133473034 -0.0379979162 -0.0679999995
v -0.0134309883 -0.0377352982 -0.070266161
v -0.013408844 -0.0377483778 -0.0702211118
v -0.0132530899 -0.0377020578 -0.0699594092
v -0.0134875698 -0.0374515514 -0.0705154157
v -0.0133988304 -0.0374959593 -0.0703956056
v -0.0132622642 -0.0374996595 -0.0701982594
v -0.013414175 -0.0372486334 -0.0705343556
v -0.0132710285 -0.0372476606 -0.0703746629
v -0.0134836979 -0.0369990616 -0.0706742811
v -0.0132562275 -0.0369606476 -0.0704766297
v -0.0134933395 -0.0366337233 -0.0707504916
v -0.0134923096 -0.0367122727 -0.0707384443
v -0.0134673328 -0.0364886313 -0.0707504916
v -0.0134043331 -0.0364982348 -0.0707058525
v -0.0134409065 -0.0362444334 -0.0707504916
v -0.0133566303 -0.0362498694 -0.0706902456
v -0.0134357567 -0.035998867 -0.0707504916
v -0.0132519741 -0.0359947329 -0.070606966
v -0.0134856434 -0.0355657988 -0.0707548261
v -0.0133953304 -0.0355041247 -0.0706832194
v -0.0132602711 -0.035420125 -0.0705501127
v -0.0132988853 -0.0347843723 -0.0757134533
v -0.0133020897 -0.0347811728 -0.0719472218
v -0.0134931965 -0.034590066 -0.0760295677
v -0.0133950634 -0.0346881943 -0.0758727074
v -0.0134668465 -0.0346164112 -0.0724506164
v -0.0133656235 -0.034717639 -0.0721501255
v -0.0132387943 -0.0377786427 -0.0697581053
v -0.0132487125 -0.0378404551 -0.0695000005
v -0.0132201595 -0.0377911215 -0.0679999995
v -0.0132399006 -0.0376417618 -0.0700085115
v -0.0132094402 -0.0377258377 -0.0697581053
v -0.0131886215 -0.0377343874 -0.0695000005
v -0.0131906338 -0.0377380829 -0.0679999995
v -0.01324897 -0.0373793154 -0.070266161
v -0.0131617279 -0.0374820976 -0.0700085115
v -0.0131265945 -0.0374981814 -0.0698847461
v -0.0130548592 -0.0374606352 -0.0695000005
v -0.0130570526 -0.0374656563 -0.0679999995
v -0.013184454 -0.0372204809 -0.070266161
v -0.0131066914 -0.0372497301 -0.0701048303
v -0.01300214 -0.0372247868 -0.0698343825
v -0.0132469959 -0.036794632 -0.0705154157
v -0.0131375999 -0.0369960814 -0.0703102946
v -0.0130057163 -0.0369741373 -0.0700810051
v -0.0132346935 -0.0367419796 -0.0705154157
v -0.013201086 -0.0367495279 -0.0704766297
v -0.013004467 -0.0367345409 -0.0701982594
v -0.0131871815 -0.0364767866 -0.0705154157
v -0.0130166454 -0.0364997559 -0.0702883458
v -0.0131628342 -0.0362083273 -0.0705154157
v -0.0130047531 -0.036215766 -0.0703102946
v -0.0131601925 -0.0359926682 -0.0705154157
v -0.0130019684 -0.035989111 -0.0703102946
v -0.0131779404 -0.0357236939 -0.0705154157
v -0.0130068893 -0.035704916 -0.0702883458
v -0.0130037899 -0.0355314808 -0.0702437472
v -0.0132189674 -0.0353966551 -0.0705017805
v -0.013054945 -0.0353168993 -0.0702586794
v -0.013001997 -0.035297473 -0.0701538968
v -0.0130223389 -0.0350609188 -0.0752217817
v -0.013080246 -0.0350030213 -0.0711171865
v -0.0130329914 -0.0350502758 -0.0709055829
v -0.0132046909 -0.0348785715 -0.0755518436
v -0.0131124992 -0.0349707632 -0.0753879356
v -0.0132417602 -0.034841507 -0.0717423749
v -0.0131573219 -0.0349259405 -0.0714316821
v -0.0131051083 -0.0349781494 -0.0712224197
v -0.0129862232 -0.0372911577 -0.0695000005
v -0.0129884167 -0.0372970038 -0.0679999995
v -0.0129949589 -0.0370386868 -0.0700085115
v -0.0129876633 -0.0372299509 -0.0697581053
v -0.0129653187 -0.0372338991 -0.0695000005
v -0.0129675026 -0.0372400217 -0.0679999995
v -0.0129784889 -0.0369817524 -0.0700085115
v -0.0129144974 -0.0369996624 -0.0697581053
v -0.0128759403 -0.0369426231 -0.0695000005
v -0.0128778953 -0.0369501429 -0.0679999995
v -0.012931406 -0.0367496138 -0.0700328374
v -0.0128458137 -0.0367055731 -0.0697581053
v -0.0128228874 -0.0367046862 -0.0695000005
v -0.0128245087 -0.0367133312 -0.0679999995
v -0.0129961891 -0.0364448433 -0.070266161
v -0.0128754063 -0.0364589815 -0.0700085115
v -0.0128094025 -0.0364667063 -0.0697581053
v -0.0127865238 -0.0364636402 -0.0695000005
v -0.0127876682 -0.0364733868 -0.0679999995
v -0.0129775162 -0.0362170439 -0.070266161
v -0.0128560467 -0.0362227612 -0.0700085115
v -0.0127896709 -0.0362258844 -0.0697581053
v -0.0127670307 -0.036220644 -0.0695000005
v -0.0127675362 -0.0362314634 -0.0679999995
v -0.0129747124 -0.0359885006 -0.070266161
v -0.012853138 -0.0359857683 -0.0700085115
v -0.012786705 -0.0359842711 -0.0697581053
v -0.0127645035 -0.0359768801 -0.0695000005
v -0.0127642364 -0.0359887295 -0.0679999995
v -0.0129935284 -0.0357034474 -0.070266161
v -0.0128666992 -0.0357491427 -0.0700085115
v -0.0128005237 -0.0357430391 -0.0697581053
v -0.0127789421 -0.035733531 -0.0695000005
v -0.0127777595 -0.0357463484 -0.0679999995
v -0.01276437 -0.0353188877 -0.0747103143
v -0.0129444427 -0.0352822952 -0.0700132227
v -0.0128732796 -0.0352821522 -0.0697511816
v -0.0128102894 -0.0354917793 -0.0695000005
v -0.0128381557 -0.0353430586 -0.0693133831
v -0.0128301449 -0.0353819113 -0.0690326452
v -0.0128243275 -0.0354117231 -0.0687512279
v -0.0128215809 -0.035426486 -0.0685634041
v -0.0128190441 -0.0354408293 -0.0682815981
v -0.0128183193 -0.0354451113 -0.068093822
v -0.0128182335 -0.0354456501 -0.0679999995
v -0.0129342575 -0.0351490097 -0.0750534248
v -0.0128482551 -0.0352350073 -0.0748829174
v -0.0129890652 -0.0350941973 -0.0706925464
v -0.0129484959 -0.0351347666 -0.0704781866
v -0.0128939743 -0.0351892929 -0.0701543903
v -0.0128618641 -0.0352213936 -0.0699371791
v -0.0125256843 -0.0355575781 -0.0741804576
v -0.0126826305 -0.0354006271 -0.0745356679
v -0.0126030655 -0.035480197 -0.0743590307
v -0.0127479477 -0.03533531 -0.0687521315
v -0.0127432556 -0.0353400021 -0.0686582589
v -0.0127357502 -0.0353475123 -0.0684703517
v -0.0127291698 -0.0353540878 -0.0681882
v -0.0127279205 -0.0353553372 -0.0679999995
v -0.0123069305 -0.0357763319 -0.0736336589
v -0.0124505253 -0.0356327419 -0.074000001
v -0.0123775978 -0.0357056646 -0.0738177156
v -0.0120473022 -0.0360359602 -0.0728808403
v -0.0122385521 -0.0358447104 -0.0734478855
v -0.0121087093 -0.0359745483 -0.0730714202
v -0.0118254299 -0.0362578278 -0.0721042418
v -0.011776001 -0.0363072615 -0.071906817
v -0.0119882507 -0.0360950117 -0.0726887727
v -0.0119315739 -0.0361516886 -0.0724952793
v -0.0115657539 -0.0365175037 -0.0709030628
v -0.0115311832 -0.0365520744 -0.0706994128
v -0.0117290039 -0.0363542538 -0.0717082047
v -0.0116424103 -0.0364408474 -0.0713076472
v -0.0116028328 -0.0364804249 -0.0711058283
v -0.0113253326 -0.036757925 -0.0686280322
v -0.0113188763 -0.0367643814 -0.0684187937
v -0.0113150043 -0.0367682581 -0.0682094288
v -0.0113137073 -0.0367695503 -0.0679999995
v -0.0114991302 -0.0365841274 -0.0704949403
v -0.0114426155 -0.0366406422 -0.0700837779
v -0.0114181728 -0.0366650848 -0.0698772144
v -0.011396286 -0.0366869764 -0.0696700764
v -0.011376955 -0.0367063027 -0.0694624329
v -0.0113459988 -0.0367372637 -0.0690458679
v -0.0113343735 -0.0367488842 -0.0688370776
f 1 32 2
f 84 1 2
f 11 31 1
f 83 11 1
f 1 31 32
f 83 1 84
f 2 32 33
f 2 33 84
f 3 38 4
f 89 3 4
f 15 37 3
f 88 15 3
f 3 37 38
f 88 3 89
f 4 39 5
f 90 4 5
f 4 38 39
f 89 4 90
f 5 40 6
f 91 5 6
f 5 39 40
f 90 5 91
f 6 41 7
f 92 6 7
f 6 40 41
f 91 6 92
f 7 26 8
f 93 7 8
f 7 41 26
f 92 7 93
f 8 27 9
f 94 8 9
f 8 26 27
f 93 8 94
f 9 28 10
f 95 9 10
f 9 27 28
f 94 9 95
f 10 30 11
f 82 10 11
f 10 28 30
f 95 10 82
f 11 30 31
f 82 11 83
f 12 46 13
f 101 12 13
f 18 43 12
f 100 18 12
f 12 43 45
f 12 45 46
f 100 12 101
f 13 47 14
f 102 13 14
f 13 46 47
f 101 13 102
f 14 35 15
f 103 14 15
f 14 47 35
f 102 14 103
f 15 35 37
f 103 15 88
f 16 51 17
f 108 16 17
f 21 50 16
f 107 21 16
f 16 50 51
f 107 16 108
f 17 52 18
f 109 17 18
f 17 51 52
f 108 17 109
f 18 52 43
f 109 18 100
f 19 55 20
f 114 19 20
f 24 53 19
f 113 24 19
f 19 53 55
f 113 19 114
f 20 56 21
f 106 20 21
f 20 55 56
f 114 20 106
f 21 56 50
f 106 21 107
f 22 60 23
f 118 22 23
f 29 57 22
f 117 29 22
f 22 57 60
f 117 22 118
f 23 61 24
f 119 23 24
f 23 60 61
f 118 23 119
f 24 61 53
f 119 24 113
f 25 65 29
f 128 25 29
f 36 63 25
f 123 36 25
f 25 63 65
f 123 25 128
f 124 27 26
f 142 26 41
f 124 26 142
f 125 28 27
f 125 27 124
f 126 30 28
f 126 28 125
f 29 65 57
f 128 29 117
f 127 31 30
f 127 30 126
f 129 32 31
f 129 31 127
f 130 33 32
f 130 32 129
f 84 33 131
f 131 33 130
f 34 68 36
f 137 34 36
f 44 66 34
f 135 44 34
f 34 66 68
f 135 34 137
f 136 37 35
f 150 35 47
f 136 35 150
f 36 68 63
f 137 36 123
f 138 38 37
f 138 37 136
f 139 39 38
f 139 38 138
f 140 40 39
f 140 39 139
f 141 41 40
f 141 40 140
f 142 41 141
f 42 71 44
f 147 42 44
f 49 75 42
f 145 49 42
f 42 75 71
f 145 42 147
f 146 45 43
f 158 43 52
f 146 43 158
f 44 72 66
f 44 71 72
f 147 44 135
f 148 46 45
f 148 45 146
f 149 47 46
f 149 46 148
f 150 47 149
f 48 73 49
f 156 48 49
f 54 79 48
f 154 54 48
f 48 79 73
f 154 48 156
f 49 73 75
f 156 49 145
f 155 51 50
f 165 50 56
f 155 50 165
f 157 52 51
f 157 51 155
f 158 52 157
f 162 55 53
f 171 53 61
f 162 53 171
f 59 77 54
f 163 59 54
f 54 77 79
f 163 54 154
f 164 56 55
f 164 55 162
f 165 56 164
f 168 60 57
f 178 57 65
f 168 57 178
f 58 81 59
f 161 58 59
f 64 87 58
f 169 64 58
f 58 87 81
f 169 58 161
f 59 81 77
f 161 59 163
f 170 61 60
f 170 60 168
f 171 61 170
f 62 86 64
f 177 62 64
f 67 99 62
f 175 67 62
f 62 99 86
f 175 62 177
f 176 65 63
f 183 63 68
f 176 63 183
f 64 86 87
f 177 64 169
f 178 65 176
f 181 68 66
f 189 66 72
f 181 66 189
f 70 97 67
f 182 70 67
f 67 97 99
f 182 67 175
f 183 68 181
f 69 105 70
f 188 69 70
f 74 112 69
f 186 74 69
f 69 112 105
f 186 69 188
f 70 105 97
f 188 70 182
f 187 72 71
f 194 71 75
f 187 71 194
f 189 72 187
f 192 75 73
f 201 73 79
f 192 73 201
f 78 110 74
f 193 78 74
f 74 110 112
f 193 74 186
f 194 75 192
f 76 116 78
f 200 76 78
f 80 120 76
f 198 80 76
f 76 122 116
f 76 120 122
f 198 76 200
f 199 79 77
f 207 77 81
f 199 77 207
f 78 116 110
f 200 78 193
f 201 79 199
f 85 134 80
f 205 85 80
f 80 134 120
f 205 80 198
f 206 81 87
f 207 81 206
f 129 82 83
f 127 95 82
f 127 82 129
f 130 83 84
f 129 83 130
f 130 84 131
f 98 144 85
f 210 98 85
f 85 144 134
f 210 85 205
f 211 87 86
f 217 86 99
f 211 86 217
f 206 87 211
f 139 88 89
f 138 103 88
f 138 88 139
f 140 89 90
f 139 89 140
f 141 90 91
f 140 90 141
f 142 91 92
f 141 91 142
f 124 92 93
f 142 92 124
f 125 93 94
f 124 93 125
f 126 94 95
f 125 94 126
f 126 95 127
f 96 153 98
f 216 96 98
f 104 151 96
f 214 104 96
f 96 151 153
f 214 96 216
f 215 99 97
f 221 97 105
f 215 97 221
f 98 153 144
f 216 98 210
f 217 99 215
f 149 100 101
f 146 109 100
f 146 100 148
f 148 100 149
f 150 101 102
f 149 101 150
f 136 102 103
f 150 102 136
f 136 103 138
f 111 160 104
f 220 111 104
f 104 160 151
f 220 104 214
f 226 105 112
f 221 105 226
f 155 106 107
f 165 114 106
f 165 106 155
f 157 107 108
f 155 107 157
f 158 108 109
f 157 108 158
f 158 109 146
f 224 112 110
f 230 110 116
f 224 110 230
f 115 167 111
f 225 115 111
f 111 167 160
f 225 111 220
f 226 112 224
f 164 113 114
f 162 119 113
f 162 113 164
f 164 114 165
f 121 174 115
f 229 121 115
f 115 174 167
f 229 115 225
f 235 116 122
f 230 116 235
f 170 117 118
f 168 128 117
f 168 117 170
f 171 118 119
f 170 118 171
f 171 119 162
f 233 122 120
f 240 120 134
f 233 120 240
f 133 172 121
f 234 133 121
f 121 172 174
f 234 121 229
f 235 122 233
f 178 123 128
f 176 137 123
f 176 123 178
f 178 128 168
f 132 179 133
f 239 132 133
f 143 185 132
f 238 143 132
f 132 185 179
f 238 132 239
f 133 179 172
f 239 133 234
f 245 134 144
f 240 134 245
f 183 135 137
f 181 147 135
f 181 135 183
f 183 137 176
f 152 191 143
f 244 152 143
f 143 191 185
f 244 143 238
f 250 144 153
f 245 144 250
f 187 145 147
f 194 156 145
f 194 145 187
f 189 147 181
f 187 147 189
f 248 153 151
f 253 151 160
f 248 151 253
f 159 197 152
f 249 159 152
f 152 197 191
f 249 152 244
f 250 153 248
f 192 154 156
f 201 163 154
f 201 154 192
f 192 156 194
f 166 204 159
f 252 166 159
f 159 204 197
f 252 159 249
f 257 160 167
f 253 160 257
f 199 161 163
f 207 169 161
f 207 161 199
f 199 163 201
f 173 203 166
f 256 173 166
f 166 203 204
f 256 166 252
f 262 167 174
f 257 167 262
f 206 177 169
f 206 169 207
f 260 174 172
f 265 172 179
f 260 172 265
f 180 209 173
f 261 180 173
f 173 209 203
f 261 173 256
f 262 174 260
f 211 175 177
f 217 182 175
f 217 175 211
f 211 177 206
f 270 179 185
f 265 179 270
f 184 213 180
f 266 184 180
f 180 213 209
f 266 180 261
f 215 188 182
f 215 182 217
f 190 219 184
f 269 190 184
f 184 219 213
f 269 184 266
f 274 185 191
f 270 185 274
f 221 186 188
f 226 193 186
f 226 186 221
f 221 188 215
f 196 223 190
f 273 196 190
f 190 223 219
f 273 190 269
f 279 191 197
f 274 191 279
f 224 200 193
f 224 193 226
f 195 228 196
f 278 195 196
f 202 232 195
f 277 202 195
f 195 232 228
f 277 195 278
f 196 228 223
f 278 196 273
f 284 197 204
f 279 197 284
f 230 198 200
f 233 205 198
f 235 198 230
f 233 198 235
f 230 200 224
f 208 237 202
f 282 208 202
f 202 237 232
f 282 202 277
f 283 204 203
f 288 203 209
f 283 203 288
f 284 204 283
f 240 210 205
f 240 205 233
f 212 243 208
f 287 212 208
f 208 243 237
f 287 208 282
f 292 209 213
f 288 209 292
f 245 216 210
f 245 210 240
f 218 242 212
f 291 218 212
f 212 242 243
f 291 212 287
f 296 213 219
f 292 213 296
f 250 214 216
f 248 220 214
f 248 214 250
f 250 216 245
f 222 247 218
f 295 222 218
f 218 247 242
f 295 218 291
f 300 219 223
f 296 219 300
f 253 225 220
f 253 220 248
f 227 251 222
f 299 227 222
f 222 251 247
f 299 222 295
f 304 223 228
f 300 223 304
f 257 229 225
f 257 225 253
f 231 255 227
f 303 231 227
f 227 255 251
f 303 227 299
f 308 228 232
f 304 228 308
f 262 234 229
f 262 229 257
f 236 259 231
f 307 236 231
f 231 259 255
f 307 231 303
f 313 232 237
f 308 232 313
f 260 239 234
f 260 234 262
f 241 264 236
f 311 241 236
f 236 264 259
f 311 236 307
f 312 237 243
f 313 237 312
f 265 238 239
f 270 244 238
f 270 238 265
f 265 239 260
f 246 268 241
f 316 246 241
f 241 268 264
f 316 241 311
f 317 243 242
f 320 242 247
f 317 242 320
f 312 243 317
f 274 249 244
f 274 244 270
f 254 272 246
f 319 254 246
f 246 272 268
f 319 246 316
f 324 247 251
f 320 247 324
f 279 252 249
f 279 249 274
f 327 251 255
f 324 251 327
f 284 256 252
f 284 252 279
f 258 276 254
f 323 258 254
f 254 276 272
f 323 254 319
f 332 255 259
f 327 255 332
f 283 261 256
f 283 256 284
f 263 276 258
f 331 263 258
f 331 258 323
f 334 259 264
f 332 259 334
f 288 266 261
f 288 261 283
f 267 281 263
f 333 267 263
f 263 281 276
f 333 263 331
f 336 264 268
f 334 264 336
f 292 269 266
f 292 266 288
f 271 286 267
f 335 271 267
f 267 286 281
f 335 267 333
f 338 268 272
f 336 268 338
f 296 273 269
f 296 269 292
f 275 290 271
f 337 275 271
f 271 290 286
f 337 271 335
f 340 272 276
f 338 272 340
f 300 278 273
f 300 273 296
f 280 294 275
f 339 280 275
f 275 294 290
f 339 275 337
f 342 276 281
f 340 276 342
f 304 277 278
f 308 282 277
f 308 277 304
f 304 278 300
f 285 298 280
f 341 285 280
f 280 298 294
f 341 280 339
f 344 281 286
f 342 281 344
f 313 287 282
f 313 282 308
f 289 298 285
f 343 289 285
f 343 285 341
f 346 286 290
f 344 286 346
f 312 291 287
f 312 287 313
f 293 302 289
f 345 293 289
f 289 302 298
f 345 289 343
f 348 290 294
f 346 290 348
f 317 295 291
f 317 291 312
f 297 306 293
f 347 297 293
f 293 306 302
f 347 293 345
f 350 294 298
f 348 294 350
f 320 299 295
f 320 295 317
f 301 310 297
f 349 301 297
f 297 310 306
f 349 297 347
f 352 298 302
f 350 298 352
f 324 303 299
f 324 299 320
f 305 315 301
f 351 305 301
f 301 315 310
f 351 301 349
f 354 302 306
f 352 302 354
f 327 307 303
f 327 303 324
f 309 315 305
f 353 309 305
f 353 305 351
f 356 306 310
f 354 306 356
f 332 311 307
f 332 307 327
f 314 318 309
f 355 314 309
f 309 318 315
f 355 309 353
f 358 310 315
f 356 310 358
f 334 316 311
f 334 311 332
f 314 322 318
f 321 322 314
f 357 321 314
f 357 314 355
f 359 315 318
f 358 315 359
f 336 319 316
f 336 316 334
f 361 318 322
f 359 318 361
f 338 323 319
f 338 319 336
f 321 326 322
f 325 326 321
f 360 325 321
f 360 321 357
f 363 322 326
f 361 322 363
f 340 331 323
f 340 323 338
f 325 329 326
f 328 329 325
f 362 328 325
f 362 325 360
f 365 326 329
f 363 326 365
f 328 330 329
f 367 330 328
f 364 328 362
f 364 433 328
f 328 433 367
f 329 330 365
f 365 330 366
f 366 330 369
f 367 369 330
f 340 333 331
f 342 335 333
f 342 333 340
f 344 337 335
f 344 335 342
f 346 339 337
f 346 337 344
f 348 341 339
f 348 339 346
f 350 343 341
f 350 341 348
f 350 345 343
f 352 347 345
f 352 345 350
f 354 349 347
f 354 347 352
f 356 351 349
f 356 349 354
f 358 353 351
f 358 351 356
f 358 355 353
f 359 357 355
f 359 355 358
f 361 357 359
f 361 360 357
f 363 360 361
f 363 362 360
f 365 362 363
f 365 364 362
f 366 364 365
f 366 433 364
f 366 369 435
f 435 433 366
f 367 368 369
f 367 371 368
f 367 433 371
f 435 369 368
f 368 371 372
f 443 368 372
f 435 368 434
f 434 368 443
f 372 373 370
f 370 441 372
f 370 373 377
f 370 377 374
f 374 441 370
f 372 371 373
f 371 442 373
f 371 433 442
f 372 441 443
f 373 449 377
f 373 442 440
f 373 440 449
f 374 377 375
f 374 375 381
f 374 379 378
f 378 448 374
f 374 381 379
f 374 450 441
f 374 448 450
f 377 458 375
f 375 456 381
f 375 458 456
f 378 386 376
f 459 378 376
f 376 386 382
f 382 467 376
f 376 457 459
f 376 467 457
f 377 449 458
f 378 379 384
f 378 384 388
f 378 388 386
f 459 448 378
f 381 466 379
f 379 464 384
f 379 466 464
f 382 390 380
f 467 382 380
f 380 396 385
f 385 476 380
f 380 390 396
f 380 465 467
f 380 476 465
f 381 456 466
f 382 386 392
f 382 392 390
f 385 399 383
f 383 476 385
f 383 403 389
f 389 486 383
f 383 399 403
f 383 474 476
f 383 486 474
f 384 475 388
f 384 464 475
f 385 396 399
f 388 485 386
f 386 483 392
f 386 485 483
f 389 401 387
f 387 486 389
f 387 407 393
f 496 387 393
f 387 401 407
f 484 486 387
f 484 387 496
f 388 475 485
f 389 403 401
f 392 495 390
f 390 493 396
f 390 495 493
f 394 409 391
f 391 497 394
f 391 409 397
f 397 494 391
f 391 494 497
f 392 483 495
f 393 405 394
f 496 393 394
f 393 407 405
f 394 405 411
f 394 411 409
f 394 497 496
f 397 417 395
f 395 505 397
f 395 418 400
f 400 503 395
f 395 417 418
f 395 503 505
f 396 504 399
f 396 493 504
f 397 409 414
f 397 414 417
f 397 505 494
f 400 423 398
f 398 515 400
f 398 423 404
f 404 513 398
f 398 513 515
f 399 514 403
f 399 504 514
f 400 418 423
f 400 515 503
f 403 526 401
f 401 524 407
f 401 526 524
f 404 425 402
f 402 525 404
f 402 425 408
f 408 525 402
f 403 514 526
f 404 423 427
f 404 427 425
f 527 513 404
f 404 525 527
f 407 542 405
f 405 540 411
f 405 542 540
f 408 429 406
f 406 541 408
f 406 429 412
f 412 541 406
f 407 524 542
f 408 425 431
f 408 431 429
f 408 543 525
f 408 541 543
f 411 567 409
f 409 565 414
f 409 567 565
f 412 436 410
f 410 568 412
f 410 446 415
f 415 566 410
f 410 436 446
f 410 566 568
f 411 540 567
f 412 429 438
f 412 438 436
f 412 568 541
f 415 444 413
f 586 415 413
f 413 453 419
f 419 614 413
f 413 444 453
f 413 584 586
f 413 614 584
f 414 585 417
f 414 565 585
f 415 446 444
f 586 566 415
f 420 462 416
f 416 611 420
f 416 462 424
f 424 611 416
f 417 612 418
f 417 585 612
f 418 613 423
f 418 612 613
f 419 451 420
f 420 614 419
f 419 453 451
f 420 451 462
f 420 611 615
f 420 615 614
f 421 470 422
f 422 644 421
f 424 460 421
f 421 644 424
f 421 460 470
f 422 471 428
f 428 645 422
f 422 470 471
f 422 645 644
f 423 643 427
f 423 613 646
f 423 646 643
f 424 462 460
f 424 647 611
f 424 644 647
f 427 681 425
f 425 679 431
f 425 681 679
f 428 479 426
f 682 428 426
f 426 479 432
f 432 725 426
f 426 680 682
f 426 725 680
f 427 643 681
f 428 471 479
f 682 645 428
f 431 724 429
f 429 722 438
f 429 724 722
f 432 477 430
f 430 723 432
f 430 477 439
f 439 723 430
f 431 679 724
f 432 480 477
f 432 479 480
f 432 723 725
f 435 434 433
f 433 434 442
f 442 434 443
f 438 756 436
f 436 754 446
f 436 756 754
f 439 477 437
f 437 757 439
f 437 477 447
f 447 755 437
f 437 755 757
f 438 722 756
f 439 757 723
f 442 443 440
f 440 443 449
f 449 443 441
f 449 441 458
f 458 441 450
f 446 786 444
f 444 784 453
f 444 786 784
f 447 477 445
f 445 785 447
f 445 477 454
f 454 785 445
f 446 754 786
f 787 755 447
f 447 785 787
f 466 450 448
f 475 448 459
f 466 448 464
f 464 448 475
f 458 450 456
f 456 450 466
f 453 822 451
f 451 820 462
f 451 822 820
f 455 477 452
f 452 824 455
f 452 477 463
f 463 856 452
f 452 821 824
f 452 856 821
f 453 784 822
f 454 477 455
f 455 824 454
f 454 823 785
f 454 824 823
f 483 459 457
f 483 457 467
f 475 459 485
f 485 459 483
f 462 855 460
f 460 853 470
f 460 855 853
f 463 477 461
f 854 463 461
f 461 477 472
f 472 893 461
f 461 893 854
f 462 820 855
f 856 463 854
f 493 467 465
f 504 465 476
f 493 465 504
f 483 467 495
f 495 467 493
f 468 477 469
f 469 889 468
f 473 477 468
f 468 889 473
f 469 477 481
f 481 890 469
f 469 890 889
f 470 891 471
f 470 853 891
f 471 892 479
f 471 891 892
f 472 477 473
f 473 893 472
f 473 889 894
f 473 894 893
f 514 476 474
f 526 474 486
f 514 474 526
f 504 476 514
f 482 477 478
f 478 477 491
f 480 930 477
f 481 477 482
f 491 477 490
f 477 927 490
f 477 930 927
f 478 932 482
f 928 478 491
f 928 932 478
f 479 929 480
f 479 892 929
f 480 929 930
f 482 931 481
f 481 931 890
f 482 932 931
f 524 486 484
f 542 484 496
f 524 484 542
f 526 486 524
f 488 487 489
f 492 487 488
f 489 487 499
f 491 490 487
f 490 963 487
f 491 487 492
f 487 960 499
f 487 963 960
f 489 961 488
f 488 961 492
f 489 499 501
f 501 962 489
f 489 962 961
f 490 927 963
f 492 964 491
f 491 964 928
f 492 961 965
f 492 965 964
f 565 497 494
f 565 494 505
f 540 496 497
f 542 496 540
f 540 497 567
f 567 497 565
f 502 500 498
f 498 500 508
f 992 502 498
f 498 508 510
f 510 992 498
f 501 499 500
f 499 993 500
f 499 960 993
f 501 500 502
f 500 994 508
f 500 993 994
f 502 995 501
f 501 995 962
f 996 502 992
f 502 996 995
f 612 505 503
f 613 503 515
f 612 503 613
f 565 505 585
f 585 505 612
f 512 506 507
f 507 506 519
f 512 509 506
f 509 1030 506
f 506 1027 519
f 506 1030 1027
f 507 583 512
f 507 519 521
f 521 603 507
f 507 608 583
f 507 603 608
f 511 508 509
f 508 1029 509
f 510 508 511
f 508 994 1029
f 511 509 512
f 509 1029 1030
f 511 992 510
f 512 607 511
f 511 607 610
f 511 610 641
f 511 641 674
f 511 674 677
f 511 677 720
f 511 720 1031
f 511 1031 992
f 512 583 607
f 646 515 513
f 643 513 527
f 646 513 643
f 613 515 646
f 517 516 518
f 523 516 517
f 518 516 533
f 523 520 516
f 520 1070 516
f 516 1066 533
f 516 1070 1066
f 518 601 517
f 517 636 523
f 601 606 517
f 517 606 636
f 518 533 535
f 535 564 518
f 518 564 563
f 518 563 580
f 518 580 582
f 582 600 518
f 518 600 601
f 521 519 520
f 519 1069 520
f 519 1027 1069
f 521 520 522
f 522 520 523
f 520 1069 1070
f 522 604 521
f 521 604 603
f 523 604 522
f 523 605 604
f 523 636 605
f 679 527 525
f 679 525 543
f 643 527 681
f 681 527 679
f 529 528 530
f 539 528 529
f 530 528 531
f 531 528 532
f 532 528 545
f 538 534 528
f 534 1120 528
f 538 528 539
f 528 1108 545
f 528 1120 1108
f 530 539 529
f 531 558 530
f 530 558 539
f 532 559 531
f 531 559 558
f 532 545 549
f 549 560 532
f 532 560 559
f 536 533 534
f 533 1119 534
f 535 533 536
f 533 1066 1119
f 536 534 537
f 537 534 538
f 534 1119 1120
f 536 561 535
f 535 561 564
f 537 554 536
f 536 554 562
f 562 561 536
f 538 555 537
f 537 555 554
f 539 556 538
f 538 556 555
f 557 556 539
f 539 558 557
f 722 543 541
f 722 541 568
f 679 543 724
f 724 543 722
f 686 546 544
f 546 1127 544
f 544 570 686
f 544 1125 570
f 544 1127 1125
f 686 545 546
f 545 1126 546
f 549 545 550
f 550 545 551
f 551 545 552
f 552 545 553
f 553 545 686
f 545 1108 1126
f 546 1126 1127
f 548 547 556
f 573 547 548
f 572 556 547
f 573 572 547
f 548 549 550
f 548 560 549
f 548 550 551
f 548 551 552
f 548 552 553
f 548 553 573
f 548 556 557
f 557 560 548
f 573 553 574
f 553 592 574
f 686 592 553
f 576 554 555
f 575 562 554
f 576 575 554
f 577 555 556
f 577 576 555
f 572 577 556
f 557 558 559
f 557 559 560
f 579 561 562
f 564 561 578
f 579 578 561
f 575 579 562
f 580 563 564
f 564 578 581
f 580 564 581
f 754 568 566
f 786 566 586
f 754 566 786
f 722 568 756
f 756 568 754
f 686 571 569
f 571 1135 569
f 569 588 686
f 569 1133 588
f 569 1135 1133
f 686 570 571
f 570 1134 571
f 570 1125 1134
f 571 1134 1135
f 591 572 573
f 590 577 572
f 591 590 572
f 573 574 591
f 591 574 592
f 594 575 576
f 593 579 575
f 594 593 575
f 595 576 577
f 595 594 576
f 590 595 577
f 597 578 579
f 596 581 578
f 597 596 578
f 593 597 579
f 599 580 581
f 582 580 598
f 599 598 580
f 596 599 581
f 582 598 600
f 607 583 608
f 784 586 584
f 822 584 614
f 784 584 822
f 786 586 784
f 589 587 686
f 589 1138 587
f 686 587 618
f 587 1136 618
f 587 1138 1136
f 686 588 589
f 588 1137 589
f 588 1133 1137
f 589 1137 1138
f 621 590 591
f 620 595 590
f 621 620 590
f 591 592 621
f 621 592 622
f 622 592 686
f 624 593 594
f 627 597 593
f 624 623 593
f 623 627 593
f 625 594 595
f 625 624 594
f 620 625 595
f 627 596 597
f 626 599 596
f 627 626 596
f 629 598 599
f 628 600 598
f 629 628 598
f 626 629 599
f 630 601 600
f 628 630 600
f 636 606 601
f 630 633 601
f 601 633 636
f 603 608 602
f 634 603 604
f 609 608 603
f 638 609 603
f 638 603 634
f 631 604 605
f 635 604 631
f 634 604 635
f 631 605 633
f 605 636 633
f 607 608 640
f 607 640 610
f 608 609 637
f 608 637 640
f 609 638 637
f 610 640 639
f 642 610 639
f 642 641 610
f 855 615 611
f 855 611 647
f 820 614 615
f 822 614 820
f 820 615 855
f 686 616 617
f 616 1139 617
f 686 619 616
f 619 1142 616
f 616 1142 1139
f 617 650 686
f 617 1140 650
f 617 1139 1140
f 686 618 619
f 618 1141 619
f 618 1136 1141
f 619 1141 1142
f 620 621 654
f 625 620 653
f 620 654 653
f 621 622 654
f 654 622 655
f 686 655 622
f 623 624 657
f 660 627 623
f 623 657 656
f 660 623 656
f 624 625 658
f 624 658 657
f 625 653 658
f 659 626 627
f 662 629 626
f 662 626 659
f 659 627 660
f 661 628 629
f 664 630 628
f 664 628 661
f 661 629 662
f 630 667 633
f 630 664 667
f 631 633 632
f 631 632 665
f 665 635 631
f 632 633 666
f 632 666 665
f 666 633 667
f 634 635 671
f 634 671 638
f 668 635 665
f 635 668 671
f 637 638 640
f 640 638 673
f 638 671 670
f 638 670 673
f 642 639 640
f 676 642 640
f 640 673 672
f 640 672 676
f 675 641 642
f 675 674 641
f 676 675 642
f 891 644 645
f 853 647 644
f 853 644 891
f 892 645 682
f 891 645 892
f 855 647 853
f 686 648 649
f 648 1143 649
f 686 652 648
f 652 1147 648
f 648 1147 1143
f 649 687 686
f 649 1144 687
f 649 1143 1144
f 686 650 651
f 650 1145 651
f 650 1140 1145
f 651 652 686
f 651 1146 652
f 651 1145 1146
f 652 1146 1147
f 654 694 653
f 653 699 658
f 653 694 699
f 654 655 695
f 654 695 694
f 686 696 655
f 695 655 696
f 697 656 657
f 703 660 656
f 703 656 697
f 658 698 657
f 697 657 698
f 658 699 698
f 702 659 660
f 659 705 662
f 659 702 705
f 702 660 703
f 662 704 661
f 664 661 706
f 661 704 706
f 662 705 704
f 663 664 666
f 663 667 664
f 666 667 663
f 664 708 666
f 706 708 664
f 665 666 669
f 665 669 668
f 707 669 666
f 666 708 707
f 669 710 668
f 668 711 671
f 668 710 709
f 668 709 711
f 710 669 707
f 670 671 711
f 670 713 673
f 670 711 713
f 672 673 716
f 676 672 715
f 672 716 715
f 673 713 716
f 677 674 675
f 719 675 676
f 678 677 675
f 719 678 675
f 715 719 676
f 678 717 677
f 717 720 677
f 718 717 678
f 719 718 678
f 929 682 680
f 929 680 725
f 892 682 929
f 686 683 684
f 683 1148 684
f 693 683 686
f 693 1158 683
f 683 1158 1148
f 686 684 685
f 684 1149 685
f 684 1148 1149
f 685 1150 686
f 685 1149 1150
f 686 687 688
f 688 689 686
f 686 689 690
f 686 690 691
f 686 691 692
f 686 692 693
f 686 701 696
f 730 701 686
f 686 761 730
f 790 761 686
f 795 790 686
f 686 828 795
f 859 828 686
f 864 859 686
f 686 898 864
f 686 936 898
f 1151 936 686
f 686 1150 1151
f 687 1152 688
f 687 1144 1152
f 688 1153 689
f 688 1152 1153
f 689 1154 690
f 689 1153 1154
f 690 1155 691
f 690 1154 1155
f 691 1156 692
f 691 1155 1156
f 692 1157 693
f 692 1156 1157
f 693 1157 1158
f 699 694 695
f 695 696 700
f 699 695 700
f 700 696 701
f 698 726 697
f 697 732 703
f 697 726 732
f 699 727 698
f 698 727 726
f 700 728 699
f 699 728 727
f 700 701 730
f 700 729 728
f 700 730 729
f 703 731 702
f 702 735 705
f 702 731 735
f 703 732 731
f 705 735 704
f 706 704 736
f 704 735 734
f 704 734 736
f 739 708 706
f 739 706 736
f 739 707 708
f 710 707 740
f 739 738 707
f 707 738 740
f 709 710 711
f 711 710 712
f 710 743 712
f 710 740 743
f 711 712 742
f 713 711 714
f 711 745 714
f 711 742 745
f 712 743 742
f 713 714 745
f 716 713 746
f 713 745 744
f 713 744 746
f 715 716 749
f 715 748 719
f 715 749 748
f 716 746 749
f 718 720 717
f 751 718 719
f 721 720 718
f 750 721 718
f 751 750 718
f 748 751 719
f 721 752 720
f 1031 720 752
f 750 753 721
f 753 752 721
f 927 725 723
f 927 723 757
f 930 725 927
f 929 725 930
f 727 732 726
f 728 758 727
f 727 733 732
f 727 758 733
f 729 759 728
f 728 759 758
f 729 730 760
f 729 760 759
f 760 730 761
f 732 765 731
f 731 765 735
f 733 762 732
f 732 762 765
f 758 763 733
f 733 763 762
f 734 735 736
f 736 735 737
f 735 765 737
f 736 737 768
f 769 739 736
f 736 768 767
f 736 767 769
f 765 768 737
f 738 739 740
f 740 739 741
f 739 771 741
f 739 769 771
f 740 741 770
f 740 770 743
f 741 771 770
f 742 743 774
f 742 774 745
f 743 770 772
f 743 772 774
f 744 745 747
f 744 747 746
f 747 745 775
f 745 774 773
f 745 773 775
f 746 747 775
f 746 776 749
f 746 775 776
f 748 749 779
f 748 778 751
f 748 779 778
f 749 776 779
f 781 750 751
f 780 753 750
f 781 780 750
f 778 781 751
f 780 752 753
f 780 782 752
f 1031 752 782
f 927 757 755
f 755 787 927
f 759 763 758
f 760 788 759
f 759 764 763
f 759 788 764
f 760 761 789
f 760 789 788
f 789 761 790
f 763 791 762
f 762 766 765
f 762 797 766
f 762 791 797
f 764 792 763
f 763 792 791
f 788 793 764
f 764 793 792
f 765 766 797
f 768 765 799
f 765 797 796
f 765 796 799
f 767 768 799
f 769 767 800
f 767 799 798
f 767 798 800
f 771 769 802
f 769 800 802
f 770 771 802
f 772 770 803
f 770 802 804
f 770 804 803
f 772 803 774
f 773 774 807
f 775 773 806
f 773 807 806
f 774 803 805
f 774 805 807
f 776 775 777
f 775 809 777
f 775 806 809
f 776 777 809
f 776 811 779
f 776 809 808
f 776 808 811
f 778 779 814
f 778 813 781
f 778 814 813
f 779 811 814
f 817 780 781
f 783 782 780
f 817 783 780
f 781 813 817
f 816 782 783
f 816 815 782
f 1031 782 815
f 817 816 783
f 787 785 927
f 927 785 823
f 789 793 788
f 789 790 794
f 793 789 794
f 794 790 795
f 792 830 791
f 791 830 797
f 792 793 826
f 792 826 825
f 792 825 831
f 792 831 830
f 793 794 827
f 793 827 826
f 794 795 828
f 794 828 827
f 797 829 796
f 796 832 799
f 796 829 832
f 797 830 829
f 798 799 800
f 800 799 801
f 801 799 835
f 832 835 799
f 800 801 835
f 802 800 834
f 800 835 834
f 802 838 804
f 802 834 836
f 836 838 802
f 803 804 838
f 805 803 839
f 803 838 837
f 803 837 839
f 805 841 807
f 805 839 841
f 806 807 810
f 806 810 809
f 807 841 810
f 808 809 812
f 808 812 811
f 809 810 843
f 812 809 844
f 809 843 842
f 809 842 844
f 810 841 843
f 811 812 844
f 814 811 845
f 811 844 846
f 811 846 845
f 813 814 848
f 813 848 817
f 814 845 848
f 816 818 815
f 1031 815 818
f 850 816 817
f 819 818 816
f 850 819 816
f 848 847 817
f 847 850 817
f 1031 818 819
f 850 849 819
f 1031 819 849
f 927 824 821
f 821 856 927
f 823 824 927
f 826 831 825
f 827 857 826
f 826 861 831
f 826 857 862
f 826 862 861
f 827 828 858
f 827 858 857
f 858 828 859
f 830 832 829
f 831 860 830
f 830 833 832
f 830 866 833
f 830 860 866
f 831 861 860
f 833 866 832
f 832 868 835
f 866 865 832
f 865 868 832
f 834 835 868
f 836 834 870
f 834 868 870
f 838 836 872
f 872 836 870
f 837 838 839
f 839 838 840
f 838 874 840
f 838 872 874
f 839 840 874
f 841 839 875
f 839 874 873
f 839 873 875
f 843 841 877
f 841 875 877
f 842 843 879
f 842 879 844
f 843 877 879
f 844 878 846
f 844 879 878
f 845 846 880
f 848 845 882
f 845 880 883
f 845 883 882
f 846 878 880
f 847 848 850
f 850 848 851
f 848 882 851
f 849 850 852
f 849 852 1031
f 850 851 885
f 852 850 887
f 850 885 884
f 884 887 850
f 851 882 885
f 852 887 886
f 1032 852 886
f 1031 852 1032
f 856 854 927
f 927 854 893
f 858 862 857
f 858 859 863
f 858 863 862
f 863 859 864
f 861 866 860
f 862 895 861
f 861 867 866
f 861 900 867
f 895 900 861
f 863 896 862
f 862 896 895
f 863 864 897
f 863 897 896
f 897 864 898
f 866 868 865
f 867 899 866
f 866 869 868
f 866 899 869
f 867 900 899
f 869 903 868
f 870 868 871
f 871 868 907
f 868 903 907
f 899 904 869
f 869 904 903
f 870 871 907
f 872 870 908
f 870 907 906
f 870 906 908
f 872 910 874
f 872 908 910
f 873 874 875
f 875 874 876
f 874 911 876
f 874 910 911
f 875 876 911
f 877 875 913
f 875 911 913
f 877 912 879
f 877 913 912
f 878 879 880
f 880 879 881
f 881 879 917
f 879 912 914
f 879 914 917
f 880 881 917
f 883 880 918
f 880 917 916
f 880 916 918
f 882 883 885
f 885 883 921
f 883 918 921
f 884 885 887
f 888 887 885
f 888 885 924
f 885 921 920
f 924 885 920
f 887 1028 886
f 886 1028 1032
f 1028 887 888
f 924 920 888
f 888 920 925
f 1071 888 925
f 1028 888 1071
f 889 890 927
f 927 894 889
f 927 890 931
f 893 894 927
f 896 900 895
f 897 901 896
f 896 901 900
f 897 898 935
f 897 902 901
f 897 935 902
f 935 898 936
f 899 900 905
f 899 905 904
f 900 901 934
f 905 900 938
f 900 934 933
f 900 933 938
f 901 902 935
f 901 935 934
f 903 904 907
f 904 905 938
f 907 904 941
f 904 938 937
f 904 937 941
f 906 907 909
f 906 909 908
f 907 940 909
f 907 941 940
f 908 909 943
f 908 945 910
f 908 943 945
f 909 940 943
f 910 945 911
f 911 947 913
f 911 945 947
f 912 913 915
f 912 915 914
f 913 951 915
f 913 947 949
f 913 949 951
f 914 915 951
f 917 914 952
f 914 951 950
f 914 950 952
f 916 917 918
f 918 917 919
f 917 954 919
f 917 952 954
f 919 957 918
f 918 956 921
f 957 956 918
f 954 957 919
f 920 921 925
f 921 956 922
f 1073 921 922
f 1072 925 921
f 1072 921 1073
f 923 922 956
f 1067 922 923
f 1073 922 1067
f 958 926 923
f 923 926 1067
f 923 957 954
f 923 954 958
f 923 956 957
f 1071 925 1072
f 958 959 926
f 1067 926 959
f 927 932 928
f 928 964 927
f 931 932 927
f 927 964 963
f 934 938 933
f 934 935 968
f 938 934 939
f 939 934 967
f 934 968 967
f 935 936 969
f 935 969 968
f 969 936 1151
f 937 938 941
f 938 939 967
f 941 938 942
f 938 971 942
f 938 967 966
f 938 966 971
f 940 941 943
f 941 942 971
f 943 941 944
f 941 976 944
f 941 971 970
f 941 970 976
f 943 944 976
f 945 943 946
f 943 978 946
f 943 976 975
f 943 975 978
f 945 946 948
f 945 948 947
f 946 981 948
f 946 978 981
f 947 948 981
f 947 982 949
f 947 981 980
f 947 980 982
f 949 982 951
f 952 950 951
f 952 951 953
f 953 951 986
f 951 982 984
f 984 986 951
f 953 955 952
f 955 954 952
f 953 988 955
f 986 988 953
f 958 954 955
f 989 958 955
f 989 955 988
f 990 959 958
f 990 958 989
f 959 990 1068
f 1067 959 1068
f 961 962 960
f 960 965 961
f 960 962 993
f 963 964 960
f 960 964 965
f 993 962 995
f 966 967 972
f 966 972 971
f 967 968 973
f 967 973 972
f 968 969 974
f 968 974 973
f 1151 974 969
f 970 971 977
f 970 977 976
f 971 972 998
f 971 1002 977
f 971 998 997
f 971 997 1002
f 972 973 999
f 972 999 998
f 973 974 1000
f 973 1000 999
f 1000 974 1151
f 975 976 979
f 975 979 978
f 976 977 1002
f 979 976 1006
f 976 1002 1001
f 976 1001 1006
f 978 979 1006
f 978 1006 981
f 980 981 983
f 980 983 982
f 981 1012 983
f 981 1006 1010
f 981 1010 1009
f 981 1009 1012
f 983 984 982
f 983 985 984
f 983 1014 985
f 1012 1014 983
f 984 985 987
f 986 984 987
f 1017 987 985
f 985 1014 1017
f 987 986 1017
f 986 1018 988
f 1017 1016 986
f 986 1016 1018
f 988 1020 989
f 988 1018 1020
f 989 1022 990
f 989 1020 1022
f 990 1022 991
f 1068 990 991
f 1022 1024 991
f 991 1024 1068
f 996 992 994
f 994 992 1029
f 992 1031 1029
f 993 995 994
f 994 995 996
f 997 998 1002
f 998 999 1004
f 1002 998 1003
f 998 1004 1003
f 999 1000 1005
f 999 1005 1004
f 1151 1005 1000
f 1001 1002 1007
f 1001 1007 1006
f 1002 1003 1007
f 1003 1004 1034
f 1007 1003 1008
f 1003 1037 1008
f 1003 1034 1033
f 1003 1033 1037
f 1004 1005 1034
f 1034 1005 1035
f 1151 1035 1005
f 1006 1007 1011
f 1006 1011 1010
f 1007 1008 1037
f 1011 1007 1041
f 1007 1037 1036
f 1007 1036 1041
f 1009 1010 1013
f 1009 1013 1012
f 1010 1011 1041
f 1013 1010 1045
f 1010 1041 1040
f 1045 1010 1040
f 1013 1014 1012
f 1013 1015 1014
f 1013 1049 1015
f 1045 1049 1013
f 1015 1049 1014
f 1014 1051 1017
f 1049 1048 1014
f 1014 1048 1051
f 1019 1016 1017
f 1019 1018 1016
f 1051 1019 1017
f 1021 1018 1019
f 1021 1020 1018
f 1054 1021 1019
f 1051 1054 1019
f 1023 1020 1021
f 1023 1022 1020
f 1056 1023 1021
f 1054 1056 1021
f 1025 1022 1023
f 1025 1024 1022
f 1058 1025 1023
f 1056 1058 1023
f 1068 1024 1025
f 1026 1025 1060
f 1121 1025 1026
f 1058 1060 1025
f 1068 1025 1121
f 1026 1060 1063
f 1026 1063 1121
f 1027 1032 1028
f 1027 1028 1069
f 1030 1032 1027
f 1069 1028 1071
f 1029 1031 1030
f 1031 1032 1030
f 1033 1034 1038
f 1033 1038 1037
f 1034 1035 1039
f 1034 1039 1038
f 1039 1035 1151
f 1036 1037 1042
f 1036 1042 1041
f 1037 1038 1043
f 1037 1043 1042
f 1038 1039 1044
f 1038 1044 1043
f 1151 1044 1039
f 1045 1040 1041
f 1042 1046 1041
f 1045 1041 1046
f 1043 1077 1042
f 1042 1047 1046
f 1042 1077 1047
f 1043 1044 1075
f 1043 1075 1074
f 1074 1078 1043
f 1043 1078 1077
f 1151 1075 1044
f 1046 1049 1045
f 1047 1076 1046
f 1046 1050 1049
f 1046 1080 1050
f 1076 1080 1046
f 1047 1077 1076
f 1048 1049 1052
f 1048 1052 1051
f 1049 1050 1053
f 1049 1053 1052
f 1050 1084 1053
f 1050 1080 1084
f 1052 1054 1051
f 1053 1084 1052
f 1052 1055 1054
f 1052 1088 1055
f 1084 1088 1052
f 1055 1056 1054
f 1055 1057 1056
f 1088 1057 1055
f 1057 1058 1056
f 1057 1059 1058
f 1093 1059 1057
f 1088 1093 1057
f 1059 1060 1058
f 1059 1061 1060
f 1098 1061 1059
f 1093 1098 1059
f 1063 1060 1061
f 1062 1064 1061
f 1104 1062 1061
f 1063 1061 1064
f 1098 1103 1061
f 1104 1061 1103
f 1062 1065 1064
f 1104 1065 1062
f 1063 1064 1122
f 1121 1063 1122
f 1122 1064 1065
f 1104 1109 1065
f 1123 1065 1109
f 1122 1065 1123
f 1067 1068 1066
f 1066 1073 1067
f 1066 1068 1119
f 1070 1073 1066
f 1119 1068 1121
f 1069 1071 1070
f 1070 1071 1072
f 1072 1073 1070
f 1074 1075 1079
f 1074 1079 1078
f 1079 1075 1151
f 1077 1080 1076
f 1078 1081 1077
f 1077 1081 1080
f 1078 1079 1083
f 1078 1082 1081
f 1078 1083 1082
f 1151 1083 1079
f 1081 1084 1080
f 1082 1085 1081
f 1081 1085 1084
f 1082 1083 1087
f 1082 1086 1085
f 1082 1087 1086
f 1087 1083 1151
f 1085 1089 1084
f 1084 1089 1088
f 1086 1090 1085
f 1085 1090 1089
f 1086 1087 1092
f 1086 1091 1090
f 1086 1092 1091
f 1151 1092 1087
f 1089 1093 1088
f 1090 1094 1089
f 1089 1094 1093
f 1091 1095 1090
f 1090 1095 1094
f 1091 1092 1097
f 1091 1096 1095
f 1091 1097 1096
f 1151 1097 1092
f 1094 1098 1093
f 1095 1099 1094
f 1094 1099 1098
f 1096 1100 1095
f 1095 1100 1099
f 1096 1097 1102
f 1096 1101 1100
f 1096 1102 1101
f 1102 1097 1151
f 1099 1103 1098
f 1100 1104 1099
f 1099 1104 1103
f 1101 1105 1100
f 1100 1105 1104
f 1101 1102 1107
f 1101 1106 1105
f 1101 1107 1106
f 1132 1107 1102
f 1132 1102 1151
f 1105 1109 1104
f 1106 1110 1105
f 1105 1110 1109
f 1106 1107 1111
f 1106 1111 1110
f 1111 1107 1118
f 1118 1107 1132
f 1108 1111 1112
f 1108 1124 1111
f 1112 1113 1108
f 1113 1114 1108
f 1108 1114 1126
f 1120 1124 1108
f 1109 1110 1123
f 1124 1110 1111
f 1123 1110 1124
f 1111 1113 1112
f 1111 1114 1113
f 1111 1115 1114
f 1111 1116 1115
f 1111 1117 1116
f 1111 1118 1117
f 1129 1114 1115
f 1126 1114 1128
f 1128 1114 1129
f 1130 1115 1116
f 1129 1115 1130
f 1131 1116 1117
f 1130 1116 1131
f 1132 1117 1118
f 1131 1117 1132
f 1119 1122 1120
f 1121 1122 1119
f 1120 1122 1123
f 1120 1123 1124
f 1125 1127 1151
f 1151 1134 1125
f 1151 1127 1126
f 1128 1129 1126
f 1126 1129 1130
f 1126 1130 1131
f 1126 1131 1132
f 1126 1132 1151
f 1133 1135 1151
f 1151 1137 1133
f 1151 1135 1134
f 1151 1136 1138
f 1151 1141 1136
f 1138 1137 1151
f 1140 1139 1151
f 1151 1139 1142
f 1151 1145 1140
f 1142 1141 1151
f 1144 1143 1151
f 1151 1143 1147
f 1151 1152 1144
f 1146 1145 1151
f 1151 1147 1146
f 1151 1149 1148
f 1151 1148 1158
f 1150 1149 1151
f 1153 1152 1151
f 1151 1154 1153
f 1151 1155 1154
f 1156 1155 1151
f 1151 1157 1156
f 1158 1157 1151
