v -0.022255414 0.0173425598 -0.000426542759
v -0.0222678356 0.017330143 -0.000244147778
v -0.0222738628 0.0173241157 0
v -0.0222644453 0.017333538 0.000305044651
v -0.0221094828 0.0174885006 -0.00125428677
v -0.0221246128 0.0174733658 -0.00119707108
v -0.02217799 0.0174199886 -0.000964729786
v -0.02221978 0.0173781986 -0.00072769165
v -0.0222497778 0.0173482056 -0.000487105846
v -0.0222497778 0.0173482056 0.000487105846
v -0.022243393 0.0173545856 0.000547521114
v -0.022210434 0.0173875446 0.000787329674
v -0.0221657257 0.0174322529 0.00102330208
v -0.0221094828 0.0174885006 0.00125428677
v -0.0220041208 0.0175938625 -0.00158896685
v -0.0220419865 0.0175559921 -0.00147916317
v -0.0220936518 0.0175043316 0.00131112337
v -0.0220233898 0.0175745888 0.00153429985
v -0.0218507509 0.0177472229 -0.00195717573
v -0.0219422941 0.0176556892 -0.00174999952
v -0.0219841747 0.0176138039 0.00164314985
v -0.0219203692 0.0176776047 0.00180263281
v -0.0217755108 0.0178224678 -0.00210635185
v -0.0218262892 0.0177716942 0.00200751781
v -0.0216089993 0.0179889793 -0.00238699436
v -0.0216948538 0.0179031296 -0.00224975586
v -0.021749218 0.0178487606 0.0021548152
v -0.0216668015 0.0179311771 0.00229620695
v -0.0215181809 0.0180797977 -0.00251768827
v -0.0215489893 0.0180489941 -0.00247487307
v -0.0215792637 0.0180187149 0.00243130445
v -0.0215181809 0.0180797977 0.00251768827
v -0.0213564806 0.0182415028 -0.00272001028
v -0.0214868479 0.0181111259 0.00255973816
v -0.0212536841 0.0183442993 -0.00283155918
v -0.0213226729 0.018275301 0.00275803804
v -0.0211104708 0.018487503 -0.00296816826
v -0.0212185173 0.0183794613 0.0028670311
v -0.0210364275 0.0185615559 -0.00303108931
v -0.0210736446 0.0185243339 0.00300008535
v -0.0208839016 0.018714077 -0.00314577818
v -0.0209988337 0.0185991497 0.00306116819
v -0.0207659989 0.0188319797 -0.00322176695
v -0.0208449154 0.0187530632 0.00317207813
v -0.0206047278 0.0189932461 -0.00330931425
v -0.0207260923 0.0188718815 -0.00324514389
v -0.0207260923 0.0188718815 0.00324514389
v -0.0206859045 0.0189120788 0.00326753139
v -0.0205225735 0.0190754051 -0.00334706783
v -0.0205637674 0.0190342159 0.00332869768
v -0.0203557139 0.01924226 -0.00341029406
v -0.0204811554 0.0191168232 0.00336441517
v -0.0202712183 0.0193267651 -0.00343569517
v -0.0203135471 0.0192844314 0.00342351675
v -0.0201006012 0.0194973774 -0.00347391129
v -0.0202287464 0.0193692322 0.00344682693
v -0.0200146895 0.0195832939 -0.00348668098
v -0.0200576859 0.0195402927 0.00348082781
v -0.0198853617 0.0197126217 -0.00349786758
v -0.0199716263 0.0196263523 0.0034914732
v -0.0197557955 0.0198421783 -0.00349946737
v -0.0198421841 0.0197557945 0.00349946737
v -0.0196263533 0.0199716301 -0.0034914732
v -0.0197126179 0.0198853607 0.00349786758
v -0.0195402937 0.0200576801 -0.00348082781
v -0.0195832901 0.0200146885 0.00348668098
v -0.0194450598 0.0144960613 -6.108284e-05
v -0.0194420462 0.0144990845 0.000183176994
v -0.0192810564 0.0146600647 -0.00125428677
v -0.0193372946 0.0146038265 -0.00102330208
v -0.0193820076 0.0145591183 -0.000787329674
v -0.0194149666 0.0145261593 -0.000547521114
v -0.019436019 0.0145051021 -0.000305044651
v -0.0194394093 0.0145017166 -0.000244147778
v -0.0194394093 0.0145017166 0.000244147778
v -0.0194213514 0.0145197697 0.000487105846
v -0.0193913536 0.0145497723 0.00072769165
v -0.0193495636 0.0145915623 0.000964729786
v -0.0192961817 0.0146449394 0.00119707108
v -0.0192652254 0.0146758957 0.00131112337
v -0.0193692331 0.0202287502 -0.00344682693
v -0.0194973784 0.020100605 0.00347391129
v -0.0192844324 0.0203135414 -0.00342351675
v -0.0193267613 0.0202712173 0.00343569517
v -0.0191949635 0.0147461624 -0.00153429985
v -0.0192486982 0.0146924324 -0.00136755943
v -0.0192135601 0.0147275658 0.00147916317
v -0.0191949635 0.0147461624 0.00153429985
v -0.0190919428 0.0148491783 -0.00180263281
v -0.0191756897 0.0147654362 -0.00158896685
v -0.0191138678 0.0148272629 0.00174999952
v -0.0190223246 0.0149187965 0.00195717573
v -0.0191168242 0.0204811592 -0.00336441517
v -0.0192422657 0.0203557129 0.00341029406
v -0.0190342121 0.0205637665 -0.00332869768
v -0.0190754061 0.0205225773 0.00334706783
v -0.0189978628 0.0149432678 -0.00200751781
v -0.0189470844 0.0149940414 0.00210635185
v -0.0188383751 0.0151027508 -0.00229620695
v -0.0189207916 0.0150203342 -0.0021548152
v -0.0188664274 0.0150747032 0.00224975586
v -0.0187508373 0.0151902885 0.00243130445
v -0.0189120751 0.0206859035 -0.00326753139
v -0.0188718872 0.0207260914 -0.00324514389
v -0.0188718872 0.0207260914 0.00324514389
v -0.0189932518 0.0206047268 0.00330931425
v -0.0187530642 0.0208449192 -0.00317207813
v -0.0188319807 0.0207660026 0.00322176695
v -0.0187205629 0.0152205582 -0.00247487307
v -0.0187205629 0.0152205582 0.00247487307
v -0.0186897545 0.0152513714 -0.00251768827
v -0.0185280495 0.0154130764 0.00272001028
v -0.0185991459 0.0209988327 -0.00306116819
v -0.018714078 0.0208839054 0.00314577818
v -0.0185243349 0.0210736484 -0.00300008535
v -0.0185615521 0.0210364265 0.00303108931
v -0.0184942465 0.0154468746 -0.00275803804
v -0.018459981 0.0154811497 0.00279522419
v -0.0184252577 0.0155158729 -0.00283155918
v -0.0182820444 0.0156590767 0.00296816826
v -0.0183794623 0.0212185211 -0.0028670311
v -0.0184875088 0.0211104698 0.00296816826
v -0.0182753067 0.0213226719 -0.00275803804
v -0.0183442955 0.0212536831 0.00283155918
v -0.0182452183 0.0156959076 -0.00300008535
v -0.0182080011 0.0157331295 0.00303108931
v -0.0181704073 0.0157707233 -0.00306116819
v -0.018016489 0.0159246368 0.00317207813
v -0.0181111317 0.0214868469 -0.00255973816
v -0.0182415037 0.0213564796 0.00272001028
v -0.0180797987 0.0215181847 -0.00251768827
v -0.0180187159 0.0215792675 -0.00243130445
v -0.0180489903 0.0215489883 0.00247487307
v -0.0180797987 0.0215181847 0.00251768827
v -0.0179771834 0.0159639377 -0.00319741011
v -0.0179771834 0.0159639377 0.00319741011
v -0.0178574782 0.0160836429 -0.00326753139
v -0.0179375725 0.0160035534 -0.00322176695
v -0.017897666 0.0160434551 0.00324514389
v -0.0177763014 0.0161648197 0.00330931425
v -0.0179311781 0.0216668053 -0.00229620695
v -0.0178487616 0.0217492123 -0.0021548152
v -0.0179031258 0.0216948528 0.00224975586
v -0.0179889803 0.0216089935 0.00238699436
v -0.0177716904 0.0218262882 -0.00200751781
v -0.0178224688 0.0217755146 0.00210635185
v -0.0177353411 0.01620578 -0.00332869768
v -0.0176941471 0.0162469787 0.00334706783
v -0.017652729 0.0162883968 -0.00336441517
v -0.0175272875 0.0164138336 0.00341029406
v -0.0176776104 0.0219203682 -0.00180263281
v -0.0176138048 0.021984169 -0.00164314985
v -0.0176556854 0.0219422932 0.00174999952
v -0.0177472286 0.02185075 0.00195717573
v -0.0175745897 0.0220233936 -0.00153429985
v -0.0175043278 0.0220936508 -0.00131112337
v -0.0175559931 0.0220419903 0.00147916317
v -0.0175938635 0.0220041199 0.00158896685
v -0.017485116 0.0164560051 -0.00342351675
v -0.0174427919 0.0164983387 0.00343569517
v -0.0174003201 0.0165408058 -0.00344682693
v -0.0172721748 0.016668951 0.00347391129
v -0.0174884968 0.0221094818 -0.00125428677
v -0.0174322586 0.02216572 -0.00102330208
v -0.0173875456 0.0222104282 -0.000787329674
v -0.0173545866 0.0222433967 -0.000547521114
v -0.0173482018 0.0222497768 -0.000487105846
v -0.0173482018 0.0222497768 0.000487105846
v -0.0173781996 0.0222197838 0.00072769165
v -0.0174199896 0.0221779938 0.000964729786
v -0.0174733715 0.0221246071 0.00119707108
v -0.0174884968 0.0221094818 0.00125428677
v -0.0173335343 0.0222644443 -0.000305044651
v -0.0173244934 0.0222734852 -6.108284e-05
v -0.0173241167 0.0222738666 0
v -0.0173425655 0.022255413 0.000426542759
v -0.0172292595 0.0167118664 -0.00348082781
v -0.0172292595 0.0167118664 0.00348082781
v -0.0171862631 0.0167548675 -0.00348668098
v -0.0170137529 0.0169273682 0.00349946737
v -0.016970561 0.0169705601 -0.00349999905
v -0.016970561 0.0169705601 0.00349999905
v -0.0169273691 0.017013752 -0.00349946737
v -0.0167548637 0.0171862621 0.00348668098
v -0.0167118673 0.0172292538 -0.00348082781
v -0.0167118673 0.0172292538 0.00348082781
v -0.016668952 0.0172721786 -0.00347391129
v -0.0165408068 0.0174003239 0.00344682693
v -0.0164983349 0.017442791 -0.00343569517
v -0.0164560061 0.017485115 0.00342351675
v -0.0164138394 0.0175272865 -0.00341029406
v -0.016288393 0.0176527328 0.00336441517
v -0.0162469797 0.0176941414 -0.00334706783
v -0.0162057858 0.0177353401 0.00332869768
v -0.0161648207 0.0177763004 -0.00330931425
v -0.0160434609 0.017897665 -0.00324514389
v -0.0160035544 0.0179375763 0.00322176695
v -0.0160836487 0.0178574772 0.00326753139
v -0.0159639387 0.0179771824 -0.00319741011
v -0.0159639387 0.0179771824 0.00319741011
v -0.0159246378 0.0180164928 -0.00317207813
v -0.0157707195 0.0181704063 0.00306116819
v -0.0157331257 0.0182080002 -0.00303108931
v -0.0156959086 0.0182452125 0.00300008535
v -0.0156590777 0.0182820434 -0.00296816826
v -0.0155158692 0.0184252567 0.00283155918
v -0.0154811459 0.01845998 -0.00279522419
v -0.0154468804 0.0184942455 0.00275803804
v -0.0154130726 0.0185280533 -0.00272001028
v -0.0152513723 0.0186897583 0.00251768827
v -0.0152205639 0.018720562 -0.00247487307
v -0.0152205639 0.018720562 0.00247487307
v -0.0151902895 0.0187508411 -0.00243130445
v -0.0150746994 0.0188664265 -0.00224975586
v -0.0150203352 0.0189207859 0.0021548152
v -0.0151027517 0.0188383694 0.00229620695
v -0.0149940424 0.0189470882 -0.00210635185
v -0.014943264 0.0189978619 0.00200751781
v -0.0149187975 0.0190223236 -0.00195717573
v -0.0148272591 0.0191138668 -0.00174999952
v -0.0147654324 0.0191756935 0.00158896685
v -0.014849184 0.0190919418 0.00180263281
v -0.0147461586 0.0191949673 -0.00153429985
v -0.0147275667 0.0192135639 -0.00147916317
v -0.0146924286 0.0192486973 0.00136755943
v -0.0147461586 0.0191949673 0.00153429985
v -0.0146759014 0.0192652244 -0.00131112337
v -0.0146449404 0.0192961807 -0.00119707108
v -0.0145915632 0.0193495674 -0.000964729786
v -0.0145497732 0.0193913574 -0.00072769165
v -0.0145197754 0.0194213505 -0.000487105846
v -0.0145017176 0.0194394035 -0.000244147778
v -0.0145017176 0.0194394035 0.000244147778
v -0.0145051079 0.019436018 0.000305044651
v -0.0145261603 0.0194149704 0.000547521114
v -0.0145591192 0.0193820019 0.000787329674
v -0.0146038275 0.0193372936 0.00102330208
v -0.0146600704 0.0192810554 0.00125428677
v -0.0144990807 0.0194420452 -0.000183176994
v -0.0144956904 0.0194454403 0
f 73 2 1
f 2 174 1
f 73 1 9
f 1 173 9
f 1 174 173
f 67 3 2
f 175 2 3
f 67 2 74
f 74 2 73
f 174 2 175
f 75 4 3
f 176 3 4
f 68 3 67
f 75 3 68
f 175 3 176
f 76 10 4
f 168 4 10
f 76 4 75
f 176 4 168
f 69 6 5
f 6 164 5
f 69 5 16
f 5 163 16
f 5 164 163
f 70 7 6
f 7 165 6
f 70 6 69
f 6 165 164
f 71 8 7
f 8 166 7
f 71 7 70
f 7 166 165
f 72 9 8
f 9 167 8
f 72 8 71
f 8 167 166
f 73 9 72
f 9 173 167
f 76 11 10
f 169 10 11
f 168 10 169
f 77 12 11
f 170 11 12
f 77 11 76
f 169 11 170
f 78 13 12
f 171 12 13
f 78 12 77
f 170 12 171
f 79 14 13
f 172 13 14
f 79 13 78
f 171 13 172
f 80 17 14
f 157 14 17
f 80 14 79
f 172 14 157
f 85 16 15
f 16 156 15
f 90 15 20
f 15 155 20
f 85 15 90
f 15 156 155
f 69 16 86
f 86 16 85
f 16 163 156
f 87 18 17
f 158 17 18
f 87 17 80
f 157 17 158
f 91 21 18
f 153 18 21
f 88 18 87
f 91 18 88
f 158 18 153
f 89 20 19
f 20 152 19
f 97 19 23
f 19 151 23
f 89 19 97
f 19 152 151
f 90 20 89
f 20 155 152
f 91 22 21
f 154 21 22
f 153 21 154
f 92 24 22
f 146 22 24
f 92 22 91
f 154 22 146
f 100 23 26
f 23 145 26
f 97 23 100
f 23 151 145
f 98 27 24
f 143 24 27
f 98 24 92
f 146 24 143
f 99 26 25
f 26 142 25
f 99 25 30
f 25 141 30
f 25 142 141
f 100 26 99
f 26 145 142
f 101 28 27
f 144 27 28
f 101 27 98
f 143 27 144
f 102 31 28
f 133 28 31
f 102 28 101
f 144 28 133
f 111 30 29
f 30 132 29
f 111 29 33
f 29 131 33
f 29 132 131
f 99 30 109
f 109 30 111
f 30 141 132
f 110 32 31
f 134 31 32
f 110 31 102
f 133 31 134
f 112 34 32
f 130 32 34
f 112 32 110
f 134 32 130
f 117 33 35
f 33 129 35
f 111 33 117
f 33 131 129
f 112 36 34
f 124 34 36
f 130 34 124
f 119 35 37
f 35 123 37
f 117 35 119
f 35 129 123
f 120 38 36
f 122 36 38
f 118 36 112
f 120 36 118
f 124 36 122
f 37 121 39
f 125 37 39
f 119 37 125
f 37 123 121
f 116 38 40
f 120 40 38
f 122 38 116
f 39 115 41
f 127 39 41
f 39 121 115
f 125 39 127
f 114 40 42
f 126 42 40
f 116 40 114
f 126 40 120
f 41 113 43
f 127 41 43
f 41 115 113
f 108 42 44
f 128 44 42
f 114 42 108
f 128 42 126
f 43 107 46
f 138 43 46
f 43 113 107
f 127 43 135
f 135 43 138
f 105 44 47
f 139 47 44
f 108 44 105
f 136 44 128
f 139 44 136
f 46 104 45
f 137 46 45
f 45 103 49
f 147 45 49
f 45 104 103
f 137 45 147
f 46 107 104
f 138 46 137
f 106 47 48
f 139 48 47
f 105 47 106
f 96 48 50
f 140 50 48
f 106 48 96
f 140 48 139
f 49 95 51
f 149 49 51
f 49 103 95
f 147 49 149
f 94 50 52
f 148 52 50
f 96 50 94
f 148 50 140
f 51 93 53
f 159 51 53
f 51 95 93
f 149 51 159
f 84 52 54
f 150 54 52
f 94 52 84
f 150 52 148
f 53 83 55
f 161 53 55
f 53 93 83
f 159 53 161
f 82 54 56
f 160 56 54
f 84 54 82
f 160 54 150
f 55 81 57
f 177 55 57
f 55 83 81
f 161 55 177
f 66 56 58
f 162 58 56
f 82 56 66
f 162 56 160
f 57 65 59
f 179 57 59
f 57 81 65
f 177 57 179
f 64 58 60
f 180 60 58
f 66 58 64
f 178 58 162
f 180 58 178
f 59 63 61
f 179 59 61
f 59 65 63
f 64 60 62
f 180 62 60
f 183 61 63
f 179 61 181
f 181 61 183
f 184 64 62
f 182 62 180
f 184 62 182
f 183 63 65
f 184 66 64
f 187 65 81
f 183 65 185
f 185 65 187
f 186 82 66
f 186 66 184
f 239 68 67
f 232 67 74
f 239 67 232
f 68 240 75
f 240 68 239
f 227 70 69
f 224 69 86
f 227 69 224
f 228 71 70
f 228 70 227
f 229 72 71
f 229 71 228
f 230 73 72
f 230 72 229
f 231 74 73
f 231 73 230
f 232 74 231
f 75 233 76
f 75 240 233
f 76 234 77
f 76 233 234
f 77 235 78
f 77 234 235
f 78 236 79
f 78 235 236
f 79 237 80
f 79 236 237
f 80 238 87
f 80 237 238
f 189 81 83
f 187 81 189
f 188 84 82
f 188 82 186
f 191 83 93
f 189 83 191
f 190 94 84
f 190 84 188
f 223 86 85
f 220 85 90
f 223 85 220
f 224 86 223
f 87 225 88
f 87 238 225
f 88 226 91
f 88 225 226
f 219 90 89
f 217 89 97
f 219 89 217
f 220 90 219
f 91 221 92
f 91 226 221
f 92 222 98
f 92 221 222
f 193 93 95
f 191 93 193
f 192 96 94
f 192 94 190
f 195 95 103
f 193 95 195
f 194 106 96
f 194 96 192
f 214 97 100
f 217 97 214
f 98 218 101
f 98 222 218
f 213 100 99
f 211 99 109
f 213 99 211
f 214 100 213
f 101 215 102
f 101 218 215
f 102 216 110
f 102 215 216
f 196 103 104
f 195 103 196
f 196 104 107
f 198 105 106
f 197 108 105
f 197 105 198
f 198 106 194
f 201 107 113
f 196 107 199
f 199 107 201
f 202 114 108
f 200 108 197
f 202 108 200
f 209 109 111
f 211 109 209
f 110 212 112
f 110 216 212
f 207 111 117
f 209 111 207
f 112 210 118
f 112 212 210
f 203 113 115
f 201 113 203
f 202 116 114
f 205 115 121
f 203 115 205
f 204 122 116
f 204 116 202
f 205 117 119
f 207 117 205
f 118 208 120
f 118 210 208
f 203 119 125
f 205 119 203
f 120 206 126
f 120 208 206
f 205 121 123
f 206 124 122
f 206 122 204
f 209 123 129
f 205 123 207
f 207 123 209
f 208 130 124
f 208 124 206
f 201 125 127
f 203 125 201
f 126 204 128
f 126 206 204
f 199 127 135
f 201 127 199
f 128 202 136
f 128 204 202
f 209 129 131
f 210 134 130
f 210 130 208
f 211 131 132
f 209 131 211
f 213 132 141
f 211 132 213
f 210 133 134
f 216 144 133
f 212 133 210
f 216 133 212
f 196 135 138
f 199 135 196
f 136 200 139
f 136 202 200
f 195 138 137
f 193 137 147
f 195 137 193
f 196 138 195
f 139 197 140
f 139 200 197
f 140 198 148
f 140 197 198
f 214 141 142
f 213 141 214
f 217 142 145
f 214 142 217
f 216 143 144
f 215 146 143
f 215 143 216
f 219 145 151
f 217 145 219
f 218 154 146
f 218 146 215
f 191 147 149
f 193 147 191
f 148 194 150
f 148 198 194
f 189 149 159
f 191 149 189
f 150 192 160
f 150 194 192
f 220 151 152
f 219 151 220
f 220 152 155
f 222 153 154
f 221 158 153
f 221 153 222
f 222 154 218
f 224 155 156
f 220 155 223
f 223 155 224
f 227 156 163
f 224 156 227
f 226 157 158
f 238 172 157
f 225 157 226
f 238 157 225
f 226 158 221
f 187 159 161
f 189 159 187
f 160 190 162
f 160 192 190
f 185 161 177
f 187 161 185
f 162 188 178
f 162 190 188
f 228 163 164
f 227 163 228
f 229 164 165
f 228 164 229
f 230 165 166
f 229 165 230
f 231 166 167
f 230 166 231
f 231 167 173
f 235 168 169
f 234 176 168
f 234 168 235
f 236 169 170
f 235 169 236
f 237 170 171
f 236 170 237
f 238 171 172
f 237 171 238
f 232 173 174
f 231 173 232
f 240 174 175
f 232 174 239
f 239 174 240
f 234 175 176
f 233 175 234
f 240 175 233
f 183 177 179
f 185 177 183
f 178 186 180
f 178 188 186
f 183 179 181
f 180 184 182
f 180 186 184
