v 0.000664047673 -0.0148061836 0.00400000006
v 0.000664047673 -0.0148061836 0.00600000024
v 0.00372967422 -0.0132736051 0.00400000006
v 0.00374504983 -0.0133903944 0.00600000024
v 0.00371734858 -0.0130384159 0.00400000006
v 0.00372591048 -0.0132345164 0.00600000024
v 0.00373411983 -0.0127642107 0.00400000006
v 0.0037176913 -0.0129991484 0.00600000024
v 0.00374504983 -0.0126864386 0.00400000006
v 0.00373924553 -0.0127252769 0.00600000024
v 0.00394506186 -0.0140247512 0.00400000006
v 0.00399945408 -0.0141292381 0.00600000024
v 0.00383993179 -0.0137709451 0.00400000006
v 0.0039281559 -0.0139893079 0.00600000024
v 0.00376651645 -0.0135062182 0.00400000006
v 0.00382747144 -0.0137337041 0.00600000024
v 0.00375153124 -0.0134291244 0.00400000006
v 0.00375868738 -0.0134677362 0.00600000024
v 0.00377501577 -0.0125322759 0.00400000006
v 0.00375153124 -0.0126477075 0.00600000024
v 0.00385304004 -0.0122688711 0.00400000006
v 0.00378418326 -0.012494092 0.00600000024
v 0.00396258384 -0.0120169377 0.00400000006
v 0.00386679262 -0.012232089 0.00600000024
v 0.00399945408 -0.0119475949 0.00400000006
v 0.00398071647 -0.0119821048 0.00600000024
v 0.00408033967 -0.014263854 0.00400000006
v 0.00424374849 -0.014484688 0.00600000024
v 0.00401879132 -0.0141634166 0.00400000006
v 0.00405924022 -0.0142307341 0.00600000024
v 0.00410201401 -0.0117802322 0.00400000006
v 0.00401879132 -0.0119134164 0.00600000024
v 0.00424374849 -0.0115921438 0.00400000006
v 0.00412425637 -0.0117478693 0.00600000024
v 0.00426925212 -0.0145145488 0.00400000006
v 0.00449121565 -0.0147365129 0.00600000024
v 0.00432180285 -0.0115039206 0.00400000006
v 0.00426925212 -0.011562283 0.00600000024
v 0.00449121565 -0.0113403201 0.00400000006
v 0.00434883386 -0.0114754355 0.00600000024
v 0.00452107638 -0.0147620165 0.00400000006
v 0.0047419107 -0.0149254251 0.00600000024
v 0.00458211035 -0.0112653923 0.00400000006
v 0.00452107638 -0.0113148165 0.00600000024
v 0.0047419107 -0.011151408 0.00400000006
v 0.0046132648 -0.0112414861 0.00600000024
v 0.00487652689 -0.0150063109 0.00400000006
v 0.00498101354 -0.0150607026 0.00600000024
v 0.00477503031 -0.0149465251 0.00400000006
v 0.0048423484 -0.014986974 0.00600000024
v 0.00498101354 -0.0110161293 0.00400000006
v 0.00477503031 -0.0111303079 0.00600000024
v 0.00501645744 -0.0150776088 0.00400000006
v 0.00523482025 -0.0151658332 0.00600000024
v 0.00523482025 -0.0109109998 0.00400000006
v 0.00501645744 -0.0109992242 0.00600000024
v 0.00527206004 -0.015178293 0.00400000006
v 0.00549954712 -0.0152392483 0.00600000024
v 0.00549954712 -0.0108375847 0.00400000006
v 0.00527206004 -0.0108985388 0.00600000024
v 0.00557664037 -0.0152542341 0.00400000006
v 0.00573215961 -0.0152760911 0.00600000024
v 0.00553802848 -0.0152470779 0.00400000006
v 0.00553802848 -0.0152470779 0.00600000024
v 0.00573215961 -0.0108007419 0.00400000006
v 0.00553802848 -0.0108297551 0.00600000024
v 0.00596734881 -0.0201094842 -0.0230999994
v 0.00596734881 -0.0201094842 0.00400000006
v 0.00596734881 -0.0201094842 0.00600000024
v 0.00596734881 -0.0201094842 0.0129999995
v 0.00577124834 -0.0152798545 0.00400000006
v 0.00596734881 -0.0152884161 0.00600000024
v 0.00596734881 -0.0107884169 0.00400000006
v 0.00577124834 -0.0107969785 0.00600000024
v 0.00600661635 -0.015288074 0.00400000006
v 0.00624155462 -0.0152716458 0.00600000024
v 0.00624155462 -0.0108051872 0.00400000006
v 0.00600661635 -0.010788759 0.00600000024
v 0.00628048778 -0.0152665198 0.00400000006
v 0.00635805666 -0.0152542341 0.00600000024
v 0.00639666855 -0.0152470779 0.00400000006
v 0.00647348821 -0.0152307487 0.00600000024
v 0.00647348821 -0.0108460832 0.00400000006
v 0.00628048778 -0.0108103132 0.00600000024
v 0.00651167274 -0.0152215815 0.00400000006
v 0.00673689365 -0.015152725 0.00600000024
v 0.00673689365 -0.010924108 0.00400000006
v 0.00651167274 -0.0108552516 0.00600000024
v 0.00677367628 -0.0151389718 0.00400000006
v 0.00698882699 -0.0150431812 0.00600000024
v 0.00698882699 -0.0110336518 0.00400000006
v 0.0069536835 -0.0110161293 0.00600000024
v 0.00691823959 -0.0109992242 0.00400000006
v 0.00677367628 -0.01093786 0.00600000024
v 0.00702365935 -0.0150250483 0.00400000006
v 0.00705817044 -0.0150063109 0.00600000024
v 0.00709234834 -0.014986974 0.00400000006
v 0.00722553253 -0.0149037504 0.00600000024
v 0.00722553253 -0.0111730814 0.00400000006
v 0.00702365935 -0.0110517848 0.00600000024
v 0.00725789547 -0.0148815084 0.00400000006
v 0.00741362095 -0.0147620165 0.00600000024
v 0.00744348109 -0.0147365129 0.00400000006
v 0.0074728924 -0.0147104919 0.00600000024
v 0.0074728924 -0.0113663399 0.00400000006
v 0.00735258698 -0.0112653923 0.00600000024
v 0.00732143223 -0.0112414861 0.00400000006
v 0.00725789547 -0.0111953247 0.00600000024
v 0.00755833864 -0.0146294069 0.00400000006
v 0.00755833864 -0.0146294069 0.00600000024
v 0.00769094825 -0.014484688 0.00400000006
v 0.00774037302 -0.0144236553 0.00600000024
v 0.00774037302 -0.0116531777 0.00400000006
v 0.00761289418 -0.0115039206 0.00600000024
v 0.00758586287 -0.0114754355 0.00400000006
v 0.00750184476 -0.0113928699 0.00600000024
v 0.00776427865 -0.0143924999 0.00400000006
v 0.00785435736 -0.014263854 0.00600000024
v 0.00787545681 -0.0142307341 0.00400000006
v 0.00798963487 -0.0140247512 0.00600000024
v 0.00798963487 -0.0120520818 0.00400000006
v 0.00797211349 -0.0120169377 0.00600000024
v 0.00795398057 -0.0119821048 0.00400000006
v 0.00783268332 -0.0117802322 0.00600000024
v 0.00781044066 -0.0117478693 0.00400000006
v 0.00776427865 -0.0116843331 0.00600000024
v 0.00800654113 -0.0139893079 0.00400000006
v 0.00809476554 -0.0137709451 0.00600000024
v 0.00810722589 -0.0137337041 0.00400000006
v 0.00816818058 -0.0135062182 0.00600000024
v 0.00817600965 -0.0134677362 0.00400000006
v 0.00820502281 -0.0132736051 0.00600000024
v 0.00820878685 -0.0132345164 0.00400000006
v 0.00821734846 -0.0130384159 0.00600000024
v 0.00821700573 -0.0129991484 0.00400000006
v 0.0082005775 -0.0127642107 0.00600000024
v 0.0081954515 -0.0127252769 0.00400000006
v 0.00815968096 -0.0125322759 0.00600000024
v 0.00815051377 -0.012494092 0.00400000006
v 0.00808165669 -0.0122688711 0.00600000024
v 0.00806790471 -0.012232089 0.00400000006
v 0.00800654113 -0.0120875251 0.00600000024
v 0.01093786 -0.00677367628 0.00400000006
v 0.0109992242 -0.00691823959 0.00600000024
v 0.0108552516 -0.00651167274 0.00400000006
v 0.010924108 -0.00673689365 0.00600000024
v 0.0108103132 -0.00628048778 0.00400000006
v 0.0108460832 -0.00647348821 0.00600000024
v 0.010788759 -0.00600661635 0.00400000006
v 0.0108051872 -0.00624155462 0.00600000024
v 0.0107969785 -0.00577124834 0.00400000006
v 0.0107884169 -0.00596734881 0.00600000024
v 0.0108297551 -0.00553802848 0.00400000006
v 0.0108007419 -0.00573215961 0.00600000024
v 0.0108985388 -0.00527206004 0.00400000006
v 0.0108375847 -0.00549954712 0.00600000024
v 0.0109992242 -0.00501645744 0.00400000006
v 0.0109109998 -0.00523482025 0.00600000024
v 0.0111953247 -0.00725789547 0.00400000006
v 0.0112414861 -0.00732143223 0.00600000024
v 0.0110517848 -0.00702365935 0.00400000006
v 0.0111730814 -0.00722553253 0.00600000024
v 0.0110161293 -0.0069536835 0.00400000006
v 0.0110336518 -0.00698882699 0.00600000024
v 0.0111303079 -0.00477503031 0.00400000006
v 0.0110161293 -0.00498101354 0.00600000024
v 0.0112414861 -0.0046132648 0.00400000006
v 0.011151408 -0.0047419107 0.00600000024
v 0.0113928699 -0.00750184476 0.00400000006
v 0.0114754355 -0.00758586287 0.00600000024
v 0.0112653923 -0.00735258698 0.00400000006
v 0.0113663399 -0.0074728924 0.00600000024
v 0.0113148165 -0.00452107638 0.00400000006
v 0.0112653923 -0.00458211035 0.00600000024
v 0.0114754355 -0.00434883386 0.00400000006
v 0.0113403201 -0.00449121565 0.00600000024
v 0.0116843331 -0.00776427865 0.00400000006
v 0.0117478693 -0.00781044066 0.00600000024
v 0.0115039206 -0.00761289418 0.00400000006
v 0.0116531777 -0.00774037302 0.00600000024
v 0.011562283 -0.00426925212 0.00400000006
v 0.0115039206 -0.00432180285 0.00600000024
v 0.0117478693 -0.00412425637 0.00400000006
v 0.0115921438 -0.00424374849 0.00600000024
v 0.0117802322 -0.00783268332 0.00400000006
v 0.0119821048 -0.00795398057 0.00600000024
v 0.0119134164 -0.00401879132 0.00400000006
v 0.0117802322 -0.00410201401 0.00600000024
v 0.0119821048 -0.00398071647 0.00400000006
v 0.0119475949 -0.00399945408 0.00600000024
v 0.0120875251 -0.00800654113 0.00400000006
v 0.012232089 -0.00806790471 0.00600000024
v 0.0120169377 -0.00797211349 0.00400000006
v 0.0120520818 -0.00798963487 0.00600000024
v 0.012232089 -0.00386679262 0.00400000006
v 0.0120169377 -0.00396258384 0.00600000024
v 0.0122688711 -0.00808165669 0.00400000006
v 0.012494092 -0.00815051377 0.00600000024
v 0.012494092 -0.00378418326 0.00400000006
v 0.0122688711 -0.00385304004 0.00600000024
v 0.0125322759 -0.00815968096 0.00400000006
v 0.0127252769 -0.0081954515 0.00600000024
v 0.0126477075 -0.00375153124 0.00400000006
v 0.0125322759 -0.00377501577 0.00600000024
v 0.0127252769 -0.00373924553 0.00400000006
v 0.0126864386 -0.00374504983 0.00600000024
v 0.0127642107 -0.0082005775 0.00400000006
v 0.0129991484 -0.00821700573 0.00600000024
v 0.0129991484 -0.0037176913 0.00400000006
v 0.0127642107 -0.00373411983 0.00600000024
v 0.0130384159 -0.00821734846 0.00400000006
v 0.0132345164 -0.00820878685 0.00600000024
v 0.0132345164 -0.00372591048 0.00400000006
v 0.0130384159 -0.00371734858 0.00600000024
v 0.0132736051 -0.00820502281 0.00400000006
v 0.0134677362 -0.00817600965 0.00600000024
v 0.0134677362 -0.00375868738 0.00400000006
v 0.0134291244 -0.00375153124 0.00600000024
v 0.0133903944 -0.00374504983 0.00400000006
v 0.0132736051 -0.00372967422 0.00600000024
v 0.0135062182 -0.00816818058 0.00400000006
v 0.0137337041 -0.00810722589 0.00600000024
v 0.0137337041 -0.00382747144 0.00400000006
v 0.0135062182 -0.00376651645 0.00600000024
v 0.0137709451 -0.00809476554 0.00400000006
v 0.0139893079 -0.00800654113 0.00600000024
v 0.0139893079 -0.0039281559 0.00400000006
v 0.0137709451 -0.00383993179 0.00600000024
v 0.0140247512 -0.00798963487 0.00400000006
v 0.0142307341 -0.00787545681 0.00600000024
v 0.0142307341 -0.00405924022 0.00400000006
v 0.0141634166 -0.00401879132 0.00600000024
v 0.0141292381 -0.00399945408 0.00400000006
v 0.0140247512 -0.00394506186 0.00600000024
v 0.014263854 -0.00785435736 0.00400000006
v 0.0143924999 -0.00776427865 0.00600000024
v 0.0144236553 -0.00774037302 0.00400000006
v 0.014484688 -0.00769094825 0.00600000024
v 0.014484688 -0.00424374849 0.00400000006
v 0.014263854 -0.00408033967 0.00600000024
v 0.0146294069 -0.00755833864 0.00400000006
v 0.0146294069 -0.00755833864 0.00600000024
v 0.0147104919 -0.0074728924 0.00400000006
v 0.0147365129 -0.00744348109 0.00600000024
v 0.0147365129 -0.00449121565 0.00400000006
v 0.0145145488 -0.00426925212 0.00600000024
v 0.0147620165 -0.00741362095 0.00400000006
v 0.0148815084 -0.00725789547 0.00600000024
v 0.0149037504 -0.00722553253 0.00400000006
v 0.014986974 -0.00709234834 0.00600000024
v 0.014986974 -0.0048423484 0.00400000006
v 0.0149465251 -0.00477503031 0.00600000024
v 0.0149254251 -0.0047419107 0.00400000006
v 0.0147620165 -0.00452107638 0.00600000024
v 0.0148061836 -0.000664047673 0.00400000006
v 0.0148061836 -0.000664047673 0.00600000024
v 0.0150063109 -0.00705817044 0.00400000006
v 0.0150250483 -0.00702365935 0.00600000024
v 0.0150431812 -0.00698882699 0.00400000006
v 0.0151389718 -0.00677367628 0.00600000024
v 0.015152725 -0.00673689365 0.00400000006
v 0.0152215815 -0.00651167274 0.00600000024
v 0.0152307487 -0.00647348821 0.00400000006
v 0.0152470779 -0.00639666855 0.00600000024
v 0.0152470779 -0.00553802848 0.00400000006
v 0.0152470779 -0.00553802848 0.00600000024
v 0.0152392483 -0.00549954712 0.00400000006
v 0.015178293 -0.00527206004 0.00600000024
v 0.0151658332 -0.00523482025 0.00400000006
v 0.0150776088 -0.00501645744 0.00600000024
v 0.0150607026 -0.00498101354 0.00400000006
v 0.0150063109 -0.00487652689 0.00600000024
v 0.0152542341 -0.00635805666 0.00400000006
v 0.0152665198 -0.00628048778 0.00600000024
v 0.0152716458 -0.00624155462 0.00400000006
v 0.015288074 -0.00600661635 0.00600000024
v 0.0152884161 -0.00596734881 0.00400000006
v 0.0152798545 -0.00577124834 0.00600000024
v 0.0152760911 -0.00573215961 0.00400000006
v 0.0152542341 -0.00557664037 0.00600000024
v 0.0201094842 -0.00596734881 -0.0230999994
v 0.0201094842 -0.00596734881 0.00400000006
v 0.0201094842 -0.00596734881 0.00600000024
v 0.0201094842 -0.00596734881 0.0129999995
v 0.0284534454 -0.0355698013 0.0129999995
v 0.0284761095 -0.0356720376 0.0158000004
v 0.0283962011 -0.0352609372 0.0129999995
v 0.0284325671 -0.0354671836 0.0158000004
v 0.0283670545 -0.0350535464 0.0129999995
v 0.028380723 -0.0351573682 0.0158000004
v 0.0283451629 -0.034845264 0.0129999995
v 0.0283551979 -0.0349495006 0.0158000004
v 0.0283259845 -0.0345317268 0.0129999995
v 0.028336947 -0.03474087 0.0158000004
v 0.0283223295 -0.034322331 0.0129999995
v 0.028323245 -0.0344270444 0.0158000004
v 0.0283305526 -0.0340083146 0.0129999995
v 0.028323245 -0.0342176151 0.0158000004
v 0.0283451629 -0.0337993956 0.0129999995
v 0.028336947 -0.0339037919 0.0158000004
v 0.0283670545 -0.0335911155 0.0129999995
v 0.0283551979 -0.033695159 0.0158000004
v 0.0284134841 -0.0332804418 0.0129999995
v 0.028380723 -0.0334872913 0.0158000004
v 0.0284534454 -0.0330748606 0.0129999995
v 0.0284325671 -0.0331774759 0.0158000004
v 0.0284761095 -0.0329726243 0.0129999995
v 0.0284761095 -0.0329726243 0.0158000004
v 0.0286492181 -0.0362757397 0.0129999995
v 0.0287208486 -0.0364725375 0.0158000004
v 0.0285845017 -0.03607656 0.0129999995
v 0.0286159921 -0.0361764336 0.0158000004
v 0.0285005569 -0.0357738614 0.0129999995
v 0.0285547614 -0.0359761548 0.0158000004
v 0.0285267758 -0.0327694154 0.0129999995
v 0.0285005569 -0.0328707981 0.0158000004
v 0.0285845017 -0.0325680995 0.0129999995
v 0.0285547614 -0.0326685071 0.0158000004
v 0.028684175 -0.0322702098 0.0129999995
v 0.0286159921 -0.0324682283 0.0158000004
v 0.0287208486 -0.032172122 0.0129999995
v 0.0287208486 -0.032172122 0.0158000004
v 0.0289762902 -0.0370462728 0.0129999995
v 0.0289762902 -0.0370462728 0.0158000004
v 0.0288410568 -0.0367627501 0.0129999995
v 0.0289295673 -0.0369525576 0.0158000004
v 0.0287592268 -0.0365699697 0.0129999995
v 0.0287993002 -0.0366667175 0.0158000004
v 0.0287592268 -0.0320746899 0.0129999995
v 0.0287592268 -0.0320746899 0.0158000004
v 0.0288844848 -0.0317866206 0.0129999995
v 0.0287993002 -0.0319779444 0.0158000004
v 0.0289762902 -0.0315983868 0.0129999995
v 0.0289295673 -0.0316921043 0.0158000004
v 0.0292340422 -0.0375018454 0.0129999995
v 0.0292340422 -0.0375018454 0.0158000004
v 0.0291261792 -0.0373223305 0.0129999995
v 0.0291793275 -0.03741256 0.0158000004
v 0.0290246439 -0.0371391606 0.0129999995
v 0.0290746117 -0.0372311878 0.0158000004
v 0.0290246439 -0.0315055013 0.0129999995
v 0.0290246439 -0.0315055013 0.0158000004
v 0.0291261792 -0.0313223314 0.0129999995
v 0.0290746117 -0.0314134717 0.0158000004
v 0.0292340422 -0.0311428142 0.0129999995
v 0.0291793275 -0.0312321019 0.0158000004
v 0.0294074178 -0.0377637887 0.0129999995
v 0.0294682288 -0.0378490424 0.0158000004
v 0.0292903066 -0.0375901651 0.0129999995
v 0.029348104 -0.0376774883 0.0158000004
v 0.0292903066 -0.0310544968 0.0129999995
v 0.0292903066 -0.0310544968 0.0158000004
v 0.0294682288 -0.0307956195 0.0129999995
v 0.029348104 -0.0309671736 0.0158000004
v 0.0295942664 -0.0380163002 0.0129999995
v 0.0297260642 -0.0381790566 0.0158000004
v 0.0295305181 -0.0379332209 0.0129999995
v 0.0295305181 -0.0379332209 0.0158000004
v 0.0296594548 -0.0305464077 0.0129999995
v 0.0295305181 -0.030711441 0.0158000004
v 0.0297260642 -0.0304656053 0.0129999995
v 0.0297260642 -0.0304656053 0.0158000004
v 0.0297940731 -0.0382586837 0.0129999995
v 0.0299342084 -0.0384143209 0.0158000004
v 0.0298634624 -0.0303075457 0.0129999995
v 0.0297940731 -0.0303859758 0.0158000004
v 0.0299342084 -0.030230341 0.0129999995
v 0.0299342084 -0.030230341 0.0158000004
v 0.030079689 -0.0385649705 0.0129999995
v 0.030230341 -0.0387104535 0.0158000004
v 0.0300062919 -0.0384902811 0.0129999995
v 0.0300062919 -0.0384902811 0.0158000004
v 0.030079689 -0.030079689 0.0129999995
v 0.0300062919 -0.0301543808 0.0158000004
v 0.030230341 -0.0299342084 0.0129999995
v 0.030230341 -0.0299342084 0.0158000004
v 0.0303075457 -0.0387811995 0.0129999995
v 0.0304656053 -0.0389185977 0.0158000004
v 0.0303859758 -0.0297940731 0.0129999995
v 0.0303075457 -0.0298634624 0.0158000004
v 0.0304656053 -0.0297260642 0.0129999995
v 0.0304656053 -0.0297260642 0.0158000004
v 0.0306283617 -0.0390503955 0.0129999995
v 0.030711441 -0.0391141438 0.0158000004
v 0.0305464077 -0.0389852071 0.0129999995
v 0.0305464077 -0.0389852071 0.0158000004
v 0.030711441 -0.0295305181 0.0129999995
v 0.0305464077 -0.0296594548 0.0158000004
v 0.0309671736 -0.0392965555 0.0129999995
v 0.0309671736 -0.0392965555 0.0158000004
v 0.0307956195 -0.0391764331 0.0129999995
v 0.0308808708 -0.0392372417 0.0158000004
v 0.0309671736 -0.029348104 0.0129999995
v 0.0307956195 -0.0294682288 0.0158000004
v 0.0310544968 -0.039354353 0.0129999995
v 0.0312321019 -0.0394653344 0.0158000004
v 0.0310544968 -0.0292903066 0.0129999995
v 0.0310544968 -0.0292903066 0.0158000004
v 0.0312321019 -0.0291793275 0.0129999995
v 0.0311428142 -0.0292340422 0.0158000004
v 0.0313223314 -0.0395184827 0.0129999995
v 0.0314134717 -0.0395700479 0.0158000004
v 0.0314857745 -0.0352990341 0.0158000004
v 0.0314857745 -0.0352990341 0.0189999998
v 0.0314691615 -0.0352493811 0.0158000004
v 0.0314114428 -0.0350480962 0.0189999998
v 0.0313992214 -0.0349971843 0.0158000004
v 0.0313592649 -0.0347916341 0.0189999998
v 0.0313515258 -0.0347398496 0.0158000004
v 0.031329639 -0.0345316005 0.0189999998
v 0.0313264418 -0.0344793391 0.0158000004
v 0.0313227868 -0.0342699742 0.0189999998
v 0.0313241577 -0.0342176318 0.0158000004
v 0.0313387656 -0.0340087461 0.0189999998
v 0.0313446927 -0.0339567232 0.0158000004
v 0.0313679075 -0.0338013864 0.0189999998
v 0.031377449 -0.0337499046 0.0158000004
v 0.0314245534 -0.0335458732 0.0189999998
v 0.0314385462 -0.033495419 0.0158000004
v 0.0314857745 -0.0333456254 0.0189999998
v 0.0314134717 -0.0290746117 0.0129999995
v 0.0313223314 -0.0291261792 0.0158000004
v 0.0315055013 -0.0396200156 0.0129999995
v 0.0316921043 -0.0397150946 0.0158000004
v 0.0317242551 -0.0358223295 0.0158000004
v 0.0316984725 -0.0357767582 0.0189999998
v 0.0316734886 -0.0357307458 0.0158000004
v 0.0315816951 -0.0355425406 0.0189999998
v 0.0315608168 -0.035494523 0.0158000004
v 0.031503253 -0.0353483915 0.0189999998
v 0.031503253 -0.0332962704 0.0158000004
v 0.031503253 -0.0332962704 0.0189999998
v 0.0315215898 -0.0332472277 0.0158000004
v 0.031625948 -0.0330072165 0.0189999998
v 0.0316493106 -0.0329603601 0.0158000004
v 0.0317242551 -0.03282233 0.0189999998
v 0.0315055013 -0.0290246439 0.0129999995
v 0.0315055013 -0.0290246439 0.0158000004
v 0.0316921043 -0.0289295673 0.0129999995
v 0.0315983868 -0.0289762902 0.0158000004
v 0.0317866206 -0.0397601771 0.0129999995
v 0.0319779444 -0.0398453593 0.0158000004
v 0.0319908929 -0.0362102914 0.0158000004
v 0.0318648744 -0.0360430598 0.0189999998
v 0.0318352175 -0.0359999084 0.0158000004
v 0.0317508292 -0.0358674455 0.0189999998
v 0.0317508292 -0.0327772164 0.0158000004
v 0.0317508292 -0.0327772164 0.0189999998
v 0.0317781854 -0.0327325726 0.0158000004
v 0.0319264245 -0.0325168848 0.0189999998
v 0.0319582987 -0.0324753451 0.0158000004
v 0.0319908929 -0.0324343681 0.0189999998
v 0.0319779444 -0.0287993002 0.0129999995
v 0.0317866206 -0.0288844848 0.0158000004
v 0.0320746899 -0.0398854327 0.0129999995
v 0.032172122 -0.0399238133 0.0158000004
v 0.0322383547 -0.0364803505 0.0158000004
v 0.0320241976 -0.0362506938 0.0189999998
v 0.0320241976 -0.0323939681 0.0158000004
v 0.0321282697 -0.0322763348 0.0189999998
v 0.0322010112 -0.0322010112 0.0158000004
v 0.0322010112 -0.0322010112 0.0189999998
v 0.0320746899 -0.0287592268 0.0129999995
v 0.0320746899 -0.0287592268 0.0158000004
v 0.032172122 -0.0287208486 0.0129999995
v 0.032172122 -0.0287208486 0.0158000004
v 0.0324682283 -0.0400286674 0.0129999995
v 0.0324682283 -0.0400286674 0.0158000004
v 0.0322702098 -0.0399604869 0.0129999995
v 0.0323689222 -0.0399954414 0.0158000004
v 0.0324753451 -0.0366863632 0.0158000004
v 0.0322763348 -0.0365163922 0.0189999998
v 0.0322763348 -0.0321282697 0.0158000004
v 0.0323939681 -0.0320241976 0.0189999998
v 0.0324343681 -0.0319908929 0.0158000004
v 0.0324753451 -0.0319582987 0.0189999998
v 0.0324682283 -0.0286159921 0.0129999995
v 0.0322702098 -0.028684175 0.0158000004
v 0.0325680995 -0.0400601578 0.0129999995
v 0.0326685071 -0.0400899029 0.0158000004
v 0.0327325726 -0.0368664742 0.0158000004
v 0.0326016021 -0.0367797875 0.0189999998
v 0.0325589752 -0.036749382 0.0158000004
v 0.0325168848 -0.0367182374 0.0189999998
v 0.0325168848 -0.0319264245 0.0158000004
v 0.0327325726 -0.0317781854 0.0189999998
v 0.0326685071 -0.0285547614 0.0129999995
v 0.0325680995 -0.0285845017 0.0158000004
v 0.0327694154 -0.0401178837 0.0129999995
v 0.0329726243 -0.0401685524 0.0158000004
v 0.0329603601 -0.0369953489 0.0158000004
v 0.0327772164 -0.0368938327 0.0189999998
v 0.0327772164 -0.0317508292 0.0158000004
v 0.0327772164 -0.0317508292 0.0189999998
v 0.03282233 -0.0317242551 0.0158000004
v 0.0329603601 -0.0316493106 0.0189999998
v 0.0328707981 -0.0285005569 0.0129999995
v 0.0327694154 -0.0285267758 0.0158000004
v 0.0329726243 -0.0284761095 0.0129999995
v 0.0329726243 -0.0284761095 0.0158000004
v 0.0330748606 -0.0401912165 0.0129999995
v 0.0331774759 -0.0402120924 0.0158000004
v 0.0332472277 -0.0371230721 0.0158000004
v 0.0330072165 -0.0370187116 0.0189999998
v 0.0330072165 -0.031625948 0.0158000004
v 0.0332472277 -0.0315215898 0.0189999998
v 0.0331774759 -0.0284325671 0.0129999995
v 0.0330748606 -0.0284534454 0.0158000004
v 0.0334872913 -0.0402639389 0.0129999995
v 0.0334872913 -0.0402639389 0.0158000004
v 0.0332804418 -0.0402311754 0.0129999995
v 0.0333837247 -0.0402484608 0.0158000004
v 0.033495419 -0.0372061157 0.0158000004
v 0.0332962704 -0.0371414089 0.0189999998
v 0.0332962704 -0.031503253 0.0158000004
v 0.0332962704 -0.031503253 0.0189999998
v 0.0333456254 -0.0314857745 0.0158000004
v 0.033495419 -0.0314385462 0.0189999998
v 0.0334872913 -0.028380723 0.0129999995
v 0.0332804418 -0.0284134841 0.0158000004
v 0.0335911155 -0.0402776051 0.0129999995
v 0.033695159 -0.040289464 0.0158000004
v 0.0337499046 -0.0372672129 0.0158000004
v 0.0336985946 -0.0372567725 0.0189999998
v 0.0336474776 -0.0372454405 0.0158000004
v 0.0335458732 -0.0372201085 0.0189999998
v 0.0335458732 -0.0314245534 0.0158000004
v 0.0337499046 -0.031377449 0.0189999998
v 0.033695159 -0.0283551979 0.0129999995
v 0.0335911155 -0.0283670545 0.0158000004
v 0.0337993956 -0.0402994967 0.0129999995
v 0.0339037919 -0.0403077126 0.0158000004
v 0.0339567232 -0.0372999692 0.0158000004
v 0.0338013864 -0.0372767544 0.0189999998
v 0.0338013864 -0.0313679075 0.0158000004
v 0.0339567232 -0.0313446927 0.0189999998
v 0.0339037919 -0.028336947 0.0129999995
v 0.0337993956 -0.0283451629 0.0158000004
v 0.0340083146 -0.0403141069 0.0129999995
v 0.0342176151 -0.0403214169 0.0158000004
v 0.0342176318 -0.0373205018 0.0158000004
v 0.0340087461 -0.0373058963 0.0189999998
v 0.0340087461 -0.0313387656 0.0158000004
v 0.0342176318 -0.0313241577 0.0189999998
v 0.0342176151 -0.028323245 0.0129999995
v 0.0340083146 -0.0283305526 0.0158000004
v 0.034322331 -0.0403223324 0.0129999995
v 0.0344270444 -0.0403214169 0.0158000004
v 0.0344793391 -0.0373182201 0.0158000004
v 0.0342699742 -0.0373218727 0.0189999998
v 0.0342699742 -0.0313227868 0.0158000004
v 0.0344793391 -0.0313264418 0.0189999998
v 0.0344270444 -0.028323245 0.0129999995
v 0.034322331 -0.0283223295 0.0158000004
v 0.0346051741 -0.0487473106 -0.0230999994
v 0.0346051741 -0.0487473106 0.00400000006
v 0.0346051741 -0.0487473106 0.00600000024
v 0.0346051741 -0.0487473106 0.0129999995
v 0.0345317268 -0.040318675 0.0129999995
v 0.03474087 -0.0403077126 0.0158000004
v 0.0347398496 -0.0372931337 0.0158000004
v 0.0345316005 -0.0373150229 0.0189999998
v 0.0345316005 -0.031329639 0.0158000004
v 0.0347398496 -0.0313515258 0.0189999998
v 0.03474087 -0.028336947 0.0129999995
v 0.0345317268 -0.0283259845 0.0158000004
v 0.034845264 -0.0402994967 0.0129999995
v 0.0349495006 -0.040289464 0.0158000004
v 0.0349460649 -0.0372567725 0.0158000004
v 0.0347916341 -0.0372853947 0.0189999998
v 0.0349971843 -0.0372454405 0.0158000004
v 0.0349971843 -0.0372454405 0.0189999998
v 0.0347916341 -0.0313592649 0.0158000004
v 0.0349971843 -0.0313992214 0.0189999998
v 0.0349495006 -0.0283551979 0.0129999995
v 0.034845264 -0.0283451629 0.0158000004
v 0.0350535464 -0.0402776051 0.0129999995
v 0.0351573682 -0.0402639389 0.0158000004
v 0.0352493811 -0.0371755004 0.0158000004
v 0.0350480962 -0.0372332168 0.0189999998
v 0.0350480962 -0.0314114428 0.0158000004
v 0.0352493811 -0.0314691615 0.0189999998
v 0.0351573682 -0.028380723 0.0129999995
v 0.0350535464 -0.0283670545 0.0158000004
v 0.0352609372 -0.0402484608 0.0129999995
v 0.0354671836 -0.0402120924 0.0158000004
v 0.035494523 -0.0370838451 0.0158000004
v 0.0352990341 -0.0371588874 0.0189999998
v 0.0353483915 -0.031503253 0.0158000004
v 0.035494523 -0.0315608168 0.0189999998
v 0.0352990341 -0.0314857745 0.0158000004
v 0.0352990341 -0.0314857745 0.0189999998
v 0.0354671836 -0.0284325671 0.0129999995
v 0.0352609372 -0.0283962011 0.0158000004
v 0.0355698013 -0.0401912165 0.0129999995
v 0.0356720376 -0.0401685524 0.0158000004
v 0.0356374431 -0.0370187116 0.0158000004
v 0.0355425406 -0.0370629668 0.0189999998
v 0.0357307458 -0.0369711733 0.0158000004
v 0.0356843019 -0.0369953489 0.0189999998
v 0.0355425406 -0.0315816951 0.0158000004
v 0.0357307458 -0.0316734886 0.0189999998
v 0.0356720376 -0.0284761095 0.0129999995
v 0.0355698013 -0.0284534454 0.0158000004
v 0.0357738614 -0.040144105 0.0129999995
v 0.0359761548 -0.0400899029 0.0158000004
v 0.0359999084 -0.036809442 0.0158000004
v 0.0357767582 -0.0369461894 0.0189999998
v 0.0358674455 -0.0317508292 0.0158000004
v 0.0359999084 -0.0318352175 0.0189999998
v 0.0357767582 -0.0316984725 0.0158000004
v 0.0358223295 -0.0317242551 0.0189999998
v 0.0359761548 -0.0285547614 0.0129999995
v 0.0357738614 -0.0285005569 0.0158000004
v 0.03607656 -0.0400601578 0.0129999995
v 0.0361764336 -0.0400286674 0.0158000004
v 0.0360430598 -0.0367797875 0.0158000004
v 0.0360430598 -0.0367797875 0.0189999998
v 0.0362102914 -0.036653769 0.0158000004
v 0.0360856867 -0.036749382 0.0189999998
v 0.0360430598 -0.0318648744 0.0158000004
v 0.0362102914 -0.0319908929 0.0189999998
v 0.0361764336 -0.0286159921 0.0129999995
v 0.03607656 -0.0285845017 0.0158000004
v 0.0362757397 -0.0399954414 0.0129999995
v 0.0364725375 -0.0399238133 0.0158000004
v 0.0363683248 -0.0365163922 0.0158000004
v 0.0362506938 -0.0366204643 0.0189999998
v 0.0364803505 -0.0364063048 0.0158000004
v 0.0364063048 -0.0364803505 0.0189999998
v 0.0362506938 -0.0320241976 0.0158000004
v 0.0364803505 -0.0322383547 0.0189999998
v 0.0364725375 -0.0287208486 0.0129999995
v 0.0362757397 -0.0286492181 0.0158000004
v 0.0365699697 -0.0398854327 0.0129999995
v 0.0366667175 -0.0398453593 0.0158000004
v 0.0366204643 -0.0362506938 0.0158000004
v 0.0365163922 -0.0363683248 0.0189999998
v 0.036749382 -0.0360856867 0.0158000004
v 0.036653769 -0.0362102914 0.0189999998
v 0.0367182374 -0.0325168848 0.0158000004
v 0.036749382 -0.0325589752 0.0189999998
v 0.0365163922 -0.0322763348 0.0158000004
v 0.0366863632 -0.0324753451 0.0189999998
v 0.0366667175 -0.0287993002 0.0129999995
v 0.0365699697 -0.0287592268 0.0158000004
v 0.0367627501 -0.0398036027 0.0129999995
v 0.0368580389 -0.0397601771 0.0158000004
v 0.0369525576 -0.0397150946 0.0129999995
v 0.0369525576 -0.0397150946 0.0158000004
v 0.0367797875 -0.0360430598 0.0158000004
v 0.0367797875 -0.0360430598 0.0189999998
v 0.0369461894 -0.0357767582 0.0158000004
v 0.036809442 -0.0359999084 0.0189999998
v 0.0369953489 -0.0356843019 0.0158000004
v 0.0369711733 -0.0357307458 0.0189999998
v 0.0368938327 -0.0327772164 0.0158000004
v 0.0369953489 -0.0329603601 0.0189999998
v 0.0367797875 -0.0326016021 0.0158000004
v 0.0368664742 -0.0327325726 0.0189999998
v 0.0369525576 -0.0289295673 0.0129999995
v 0.0367627501 -0.0288410568 0.0158000004
v 0.0370462728 -0.0396683693 0.0129999995
v 0.0372311878 -0.0395700479 0.0158000004
v 0.0370629668 -0.0355425406 0.0158000004
v 0.0370187116 -0.0356374431 0.0189999998
v 0.0371588874 -0.0352990341 0.0158000004
v 0.0370838451 -0.035494523 0.0189999998
v 0.0372332168 -0.0350480962 0.0158000004
v 0.0371755004 -0.0352493811 0.0189999998
v 0.0372454405 -0.0349971843 0.0158000004
v 0.0372454405 -0.0349971843 0.0189999998
v 0.0372201085 -0.0335458732 0.0158000004
v 0.0372454405 -0.0336474776 0.0189999998
v 0.0371414089 -0.0332962704 0.0158000004
v 0.0372061157 -0.033495419 0.0189999998
v 0.0370187116 -0.0330072165 0.0158000004
v 0.0371230721 -0.0332472277 0.0189999998
v 0.0372311878 -0.0290746117 0.0129999995
v 0.0371391606 -0.0290246439 0.0158000004
v 0.0370462728 -0.0289762902 0.0129999995
v 0.0370462728 -0.0289762902 0.0158000004
v 0.0373223305 -0.0395184827 0.0129999995
v 0.0373223305 -0.0395184827 0.0158000004
v 0.03741256 -0.0394653344 0.0129999995
v 0.03741256 -0.0394653344 0.0158000004
v 0.0372853947 -0.0347916341 0.0158000004
v 0.0372567725 -0.0349460649 0.0189999998
v 0.0373150229 -0.0345316005 0.0158000004
v 0.0372931337 -0.0347398496 0.0189999998
v 0.0373218727 -0.0342699742 0.0158000004
v 0.0373182201 -0.0344793391 0.0189999998
v 0.0373058963 -0.0340087461 0.0158000004
v 0.0373205018 -0.0342176318 0.0189999998
v 0.0372767544 -0.0338013864 0.0158000004
v 0.0372999692 -0.0339567232 0.0189999998
v 0.0372567725 -0.0336985946 0.0158000004
v 0.0372672129 -0.0337499046 0.0189999998
v 0.03741256 -0.0291793275 0.0129999995
v 0.0373223305 -0.0291261792 0.0158000004
v 0.0375018454 -0.0394106197 0.0129999995
v 0.0376774883 -0.0392965555 0.0158000004
v 0.0376774883 -0.029348104 0.0129999995
v 0.0375901651 -0.0292903066 0.0158000004
v 0.0375018454 -0.0292340422 0.0129999995
v 0.0375018454 -0.0292340422 0.0158000004
v 0.0377637887 -0.0392372417 0.0129999995
v 0.0379332209 -0.0391141438 0.0158000004
v 0.0379332209 -0.0295305181 0.0129999995
v 0.0379332209 -0.0295305181 0.0158000004
v 0.0378490424 -0.0294682288 0.0129999995
v 0.0377637887 -0.0294074178 0.0158000004
v 0.0380163002 -0.0390503955 0.0129999995
v 0.0380163002 -0.0390503955 0.0158000004
v 0.0380982518 -0.0389852071 0.0129999995
v 0.0381790566 -0.0389185977 0.0158000004
v 0.0381790566 -0.0297260642 0.0129999995
v 0.0380163002 -0.0295942664 0.0158000004
v 0.0382586837 -0.0388505888 0.0129999995
v 0.0383371139 -0.0387811995 0.0158000004
v 0.0384143209 -0.0387104535 0.0129999995
v 0.0384902811 -0.03863837 0.0158000004
v 0.0384902811 -0.0300062919 0.0129999995
v 0.0384902811 -0.0300062919 0.0158000004
v 0.0384143209 -0.0299342084 0.0129999995
v 0.0382586837 -0.0297940731 0.0158000004
v 0.0385649705 -0.0385649705 0.0129999995
v 0.0385649705 -0.0385649705 0.0158000004
v 0.03863837 -0.0384902811 0.0129999995
v 0.0387104535 -0.0384143209 0.0158000004
v 0.0387104535 -0.030230341 0.0129999995
v 0.0385649705 -0.030079689 0.0158000004
v 0.0387811995 -0.0383371139 0.0129999995
v 0.0388505888 -0.0382586837 0.0158000004
v 0.0389185977 -0.0381790566 0.0129999995
v 0.0389852071 -0.0380982518 0.0158000004
v 0.0389852071 -0.0305464077 0.0129999995
v 0.0389852071 -0.0305464077 0.0158000004
v 0.0389185977 -0.0304656053 0.0129999995
v 0.0387811995 -0.0303075457 0.0158000004
v 0.0390503955 -0.0380163002 0.0129999995
v 0.0390503955 -0.0380163002 0.0158000004
v 0.0391141438 -0.0379332209 0.0129999995
v 0.0392372417 -0.0377637887 0.0158000004
v 0.0392372417 -0.0308808708 0.0129999995
v 0.0391764331 -0.0307956195 0.0158000004
v 0.0391141438 -0.030711441 0.0129999995
v 0.0390503955 -0.0306283617 0.0158000004
v 0.0394839072 -0.0492534494 0.00400000006
v 0.0394839072 -0.0492534494 0.00600000024
v 0.0394430113 -0.0490215158 0.00400000006
v 0.0394430113 -0.0490215158 0.00600000024
v 0.0394265842 -0.0487865782 0.00400000006
v 0.0394265842 -0.0487865782 0.00600000024
v 0.0394385672 -0.0485121202 0.00400000006
v 0.0394385672 -0.0485121202 0.00600000024
v 0.03947541 -0.0482795095 0.00400000006
v 0.03947541 -0.0482795095 0.00600000024
v 0.0394930768 -0.0482029867 0.00400000006
v 0.0394930768 -0.0482029867 0.00600000024
v 0.0392965555 -0.0376774883 0.0129999995
v 0.0394106197 -0.0375018454 0.0158000004
v 0.0394653344 -0.03741256 0.0129999995
v 0.0394653344 -0.03741256 0.0158000004
v 0.0394653344 -0.0312321019 0.0129999995
v 0.039354353 -0.0310544968 0.0158000004
v 0.0392965555 -0.0309671736 0.0129999995
v 0.0392965555 -0.0309671736 0.0158000004
v 0.0396714759 -0.0497687864 0.00400000006
v 0.0396714759 -0.0497687864 0.00600000024
v 0.0395619321 -0.0495168543 0.00400000006
v 0.0395619321 -0.0495168543 0.00600000024
v 0.0395029068 -0.0493296528 0.00400000006
v 0.0395029068 -0.0493296528 0.00600000024
v 0.0395488238 -0.0480147791 0.00400000006
v 0.0395488238 -0.0480147791 0.00600000024
v 0.0396539545 -0.047760973 0.00400000006
v 0.0396539545 -0.047760973 0.00600000024
v 0.0397476149 -0.0475884724 0.00400000006
v 0.0397476149 -0.0475884724 0.00600000024
v 0.0395184827 -0.0373223305 0.0129999995
v 0.0395184827 -0.0373223305 0.0158000004
v 0.0395700479 -0.0372311878 0.0129999995
v 0.0396683693 -0.0370462728 0.0158000004
v 0.0397150946 -0.0369525576 0.0129999995
v 0.0397150946 -0.0369525576 0.0158000004
v 0.0397150946 -0.0316921043 0.0129999995
v 0.0396200156 -0.0315055013 0.0158000004
v 0.0395700479 -0.0314134717 0.0129999995
v 0.0395184827 -0.0313223314 0.0158000004
v 0.0399084735 -0.0540506077 0.00400000006
v 0.0399084735 -0.0540506077 0.00600000024
v 0.0398109055 -0.0500054932 0.00400000006
v 0.0398109055 -0.0500054932 0.00600000024
v 0.0397681332 -0.0499396276 0.00400000006
v 0.0397681332 -0.0499396276 0.00600000024
v 0.0397892332 -0.0475218725 0.00400000006
v 0.0397892332 -0.0475218725 0.00600000024
v 0.0399781442 -0.0472711754 0.00400000006
v 0.0399781442 -0.0472711754 0.00600000024
v 0.0397601771 -0.0368580389 0.0129999995
v 0.0398036027 -0.0367627501 0.0158000004
v 0.0398453593 -0.0366667175 0.0129999995
v 0.0398854327 -0.0365699697 0.0158000004
v 0.0399238133 -0.0364725375 0.0129999995
v 0.0399954414 -0.0362757397 0.0158000004
v 0.0399954414 -0.0323689222 0.0129999995
v 0.0399604869 -0.0322702098 0.0158000004
v 0.0399238133 -0.032172122 0.0129999995
v 0.0398854327 -0.0320746899 0.0158000004
v 0.0398453593 -0.0319779444 0.0129999995
v 0.0397601771 -0.0317866206 0.0158000004
v 0.0400041628 -0.0502528524 0.00400000006
v 0.0400041628 -0.0502528524 0.00600000024
v 0.040229969 -0.0470237064 0.00400000006
v 0.040229969 -0.0470237064 0.00600000024
v 0.0400286674 -0.0361764336 0.0129999995
v 0.0400601578 -0.03607656 0.0158000004
v 0.0400899029 -0.0359761548 0.0129999995
v 0.040144105 -0.0357738614 0.0158000004
v 0.0401685524 -0.0356720376 0.0129999995
v 0.0401912165 -0.0355698013 0.0158000004
v 0.0402120924 -0.0354671836 0.0129999995
v 0.0402484608 -0.0352609372 0.0158000004
v 0.0402484608 -0.0333837247 0.0129999995
v 0.0402311754 -0.0332804418 0.0158000004
v 0.0402120924 -0.0331774759 0.0129999995
v 0.0401912165 -0.0330748606 0.0158000004
v 0.0401685524 -0.0329726243 0.0129999995
v 0.0401178837 -0.0327694154 0.0158000004
v 0.0400899029 -0.0326685071 0.0129999995
v 0.0400601578 -0.0325680995 0.0158000004
v 0.0400286674 -0.0324682283 0.0129999995
v 0.0400286674 -0.0324682283 0.0158000004
v 0.0402910042 -0.0505203342 0.00400000006
v 0.0402910042 -0.0505203342 0.00600000024
v 0.040260272 -0.0504958868 0.00400000006
v 0.040260272 -0.0504958868 0.00600000024
v 0.040483923 -0.0468391991 0.00400000006
v 0.040483923 -0.0468391991 0.00600000024
v 0.0402639389 -0.0351573682 0.0129999995
v 0.0402776051 -0.0350535464 0.0158000004
v 0.040289464 -0.0349495006 0.0129999995
v 0.0402994967 -0.034845264 0.0158000004
v 0.0403077126 -0.03474087 0.0129999995
v 0.040318675 -0.0345317268 0.0158000004
v 0.0403214169 -0.0344270444 0.0129999995
v 0.0403223324 -0.034322331 0.0158000004
v 0.0403214169 -0.0342176151 0.0129999995
v 0.0403141069 -0.0340083146 0.0158000004
v 0.0403077126 -0.0339037919 0.0129999995
v 0.0402994967 -0.0337993956 0.0158000004
v 0.040289464 -0.033695159 0.0129999995
v 0.0402776051 -0.0335911155 0.0158000004
v 0.0402639389 -0.0334872913 0.0129999995
v 0.0402639389 -0.0334872913 0.0158000004
v 0.0406547642 -0.0507520723 0.00400000006
v 0.0406547642 -0.0507520723 0.00600000024
v 0.0405174065 -0.0506759357 0.00400000006
v 0.0405174065 -0.0506759357 0.00600000024
v 0.0406199312 -0.0467606783 0.00400000006
v 0.0406199312 -0.0467606783 0.00600000024
v 0.0407253504 -0.0467081165 0.00400000006
v 0.0407253504 -0.0467081165 0.00600000024
v 0.0407610846 -0.050802784 0.00400000006
v 0.0407610846 -0.050802784 0.00600000024
v 0.0409809542 -0.0466074324 0.00400000006
v 0.0409809542 -0.0466074324 0.00600000024
v 0.041018405 -0.0508989954 0.00400000006
v 0.041018405 -0.0508989954 0.00600000024
v 0.0412469196 -0.0465386486 0.00400000006
v 0.0412469196 -0.0465386486 0.00600000024
v 0.0412855339 -0.0509631252 0.00400000006
v 0.0412855339 -0.0509631252 0.00600000024
v 0.0414801407 -0.0465058708 0.00400000006
v 0.0414801407 -0.0465058708 0.00600000024
v 0.041519289 -0.0509918261 0.00400000006
v 0.041519289 -0.0509918261 0.00600000024
v 0.041558485 -0.046500392 0.00400000006
v 0.041558485 -0.046500392 0.00600000024
v 0.0417155075 -0.0464976501 0.00400000006
v 0.0417155075 -0.0464976501 0.00600000024
v 0.0417547655 -0.0509959364 0.00400000006
v 0.0417547655 -0.0509959364 0.00600000024
v 0.0419893789 -0.046519208 0.00400000006
v 0.0419893789 -0.046519208 0.00600000024
v 0.0417547655 -0.0464986801 0.00400000006
v 0.0417547655 -0.0464986801 0.00600000024
v 0.0420282173 -0.0509696054 0.00400000006
v 0.0420282173 -0.0509696054 0.00600000024
v 0.0422205639 -0.0465641451 0.00400000006
v 0.0422205639 -0.0465641451 0.00600000024
v 0.0422585821 -0.0509206438 0.00400000006
v 0.0422585821 -0.0509206438 0.00600000024
v 0.0424825668 -0.0466467524 0.00400000006
v 0.0424825668 -0.0466467524 0.00600000024
v 0.0425191069 -0.0508334732 0.00400000006
v 0.0425191069 -0.0508334732 0.00600000024
v 0.0427325535 -0.050733943 0.00400000006
v 0.0427325535 -0.050733943 0.00600000024
v 0.0427325535 -0.0467606783 0.00400000006
v 0.0427325535 -0.0467606783 0.00600000024
v 0.0426977205 -0.0467425442 0.00400000006
v 0.0426977205 -0.0467425442 0.00600000024
v 0.0427670622 -0.0507152033 0.00400000006
v 0.0427670622 -0.0507152033 0.00600000024
v 0.0429987574 -0.0469270229 0.00400000006
v 0.0429987574 -0.0469270229 0.00600000024
v 0.043030324 -0.0505442381 0.00400000006
v 0.043030324 -0.0505442381 0.00600000024
v 0.0430922127 -0.0504958868 0.00400000006
v 0.0430922127 -0.0504958868 0.00600000024
v 0.0432392216 -0.0471287966 0.00400000006
v 0.0432392216 -0.0471287966 0.00600000024
v 0.0430922127 -0.0469987297 0.00400000006
v 0.0430922127 -0.0469987297 0.00600000024
v 0.043267231 -0.0503382969 0.00400000006
v 0.043267231 -0.0503382969 0.00600000024
v 0.0433743382 -0.0502234411 0.00400000006
v 0.0433743382 -0.0502234411 0.00600000024
v 0.0434965277 -0.0474247932 0.00400000006
v 0.0434965277 -0.0474247932 0.00600000024
v 0.0433483171 -0.0472417641 0.00400000006
v 0.0433483171 -0.0472417641 0.00600000024
v 0.0435193348 -0.0500378561 0.00400000006
v 0.0435193348 -0.0500378561 0.00600000024
v 0.0435632515 -0.0499727488 0.00400000006
v 0.0435632515 -0.0499727488 0.00600000024
v 0.0436985254 -0.0497336435 0.00400000006
v 0.0436985254 -0.0497336435 0.00600000024
v 0.0437473774 -0.047868166 0.00400000006
v 0.0437473774 -0.047868166 0.00600000024
v 0.0436810064 -0.0477258301 0.00400000006
v 0.0436810064 -0.0477258301 0.00600000024
v 0.0435415745 -0.0474891233 0.00400000006
v 0.0435415745 -0.0474891233 0.00600000024
v 0.0437624025 -0.0495901728 0.00400000006
v 0.0437624025 -0.0495901728 0.00600000024
v 0.0438036585 -0.0494798374 0.00400000006
v 0.0438036585 -0.0494798374 0.00600000024
v 0.0438770723 -0.0492151117 0.00400000006
v 0.0438770723 -0.0492151117 0.00600000024
v 0.0439139175 -0.0489824963 0.00400000006
v 0.0439139175 -0.0489824963 0.00600000024
v 0.043926239 -0.0487473106 0.00400000006
v 0.043926239 -0.0487473106 0.00600000024
v 0.0439094687 -0.0484731007 0.00400000006
v 0.0439094687 -0.0484731007 0.00600000024
v 0.0438685751 -0.0482411671 0.00400000006
v 0.0438685751 -0.0482411671 0.00600000024
v 0.0437905502 -0.0479777622 0.00400000006
v 0.0437905502 -0.0479777622 0.00600000024
v 0.0464986801 -0.0417547655 0.00400000006
v 0.0464986801 -0.0417547655 0.00600000024
v 0.0464986801 -0.0415977192 0.00400000006
v 0.0464986801 -0.0415977192 0.00600000024
v 0.0466611433 -0.0425191069 0.00400000006
v 0.0466611433 -0.0425191069 0.00600000024
v 0.0465739775 -0.0422585821 0.00400000006
v 0.0465739775 -0.0422585821 0.00600000024
v 0.0465250111 -0.0420282173 0.00400000006
v 0.0465250111 -0.0420282173 0.00600000024
v 0.046500392 -0.0417939949 0.00400000006
v 0.046500392 -0.0417939949 0.00600000024
v 0.0465027905 -0.041519289 0.00400000006
v 0.0465027905 -0.041519289 0.00600000024
v 0.0465314913 -0.0412855339 0.00400000006
v 0.0465314913 -0.0412855339 0.00600000024
v 0.0465956211 -0.041018405 0.00400000006
v 0.0465956211 -0.041018405 0.00600000024
v 0.0466918325 -0.0407610846 0.00400000006
v 0.0466918325 -0.0407610846 0.00600000024
v 0.0467425442 -0.0406547642 0.00400000006
v 0.0467425442 -0.0406547642 0.00600000024
v 0.0469503784 -0.043030324 0.00400000006
v 0.0469503784 -0.043030324 0.00600000024
v 0.0467794132 -0.0427670622 0.00400000006
v 0.0467794132 -0.0427670622 0.00600000024
v 0.0467606783 -0.0427325535 0.00400000006
v 0.0467606783 -0.0427325535 0.00600000024
v 0.0468186808 -0.0405174065 0.00400000006
v 0.0468186808 -0.0405174065 0.00600000024
v 0.0469987297 -0.040260272 0.00400000006
v 0.0469987297 -0.040260272 0.00600000024
v 0.0471563196 -0.043267231 0.00400000006
v 0.0471563196 -0.043267231 0.00600000024
v 0.0470237064 -0.0431225109 0.00400000006
v 0.0470237064 -0.0431225109 0.00600000024
v 0.0472417641 -0.0400041628 0.00400000006
v 0.0472417641 -0.0400041628 0.00600000024
v 0.0474567604 -0.0435193348 0.00400000006
v 0.0474567604 -0.0435193348 0.00600000024
v 0.0472711754 -0.0433743382 0.00400000006
v 0.0472711754 -0.0433743382 0.00600000024
v 0.0474891233 -0.0398109055 0.00400000006
v 0.0474891233 -0.0398109055 0.00600000024
v 0.0475218725 -0.0435632515 0.00400000006
v 0.0475218725 -0.0435632515 0.00600000024
v 0.0475549889 -0.0397681332 0.00400000006
v 0.0475549889 -0.0397681332 0.00600000024
v 0.0477258301 -0.0396714759 0.00400000006
v 0.0477258301 -0.0396714759 0.00600000024
v 0.0479044437 -0.0437624025 0.00400000006
v 0.0479044437 -0.0437624025 0.00600000024
v 0.047760973 -0.0436985254 0.00400000006
v 0.047760973 -0.0436985254 0.00600000024
v 0.0479777622 -0.0395619321 0.00400000006
v 0.0479777622 -0.0395619321 0.00600000024
v 0.0480147791 -0.0438036585 0.00400000006
v 0.0480147791 -0.0438036585 0.00600000024
v 0.0481649637 -0.0395029068 0.00400000006
v 0.0481649637 -0.0395029068 0.00600000024
v 0.0482411671 -0.0394839072 0.00400000006
v 0.0482411671 -0.0394839072 0.00600000024
v 0.0482795095 -0.0438770723 0.00400000006
v 0.0482795095 -0.0438770723 0.00600000024
v 0.0484731007 -0.0394430113 0.00400000006
v 0.0484731007 -0.0394430113 0.00600000024
v 0.0485121202 -0.0439139175 0.00400000006
v 0.0485121202 -0.0439139175 0.00600000024
v 0.0487473106 -0.0394262409 0.00400000006
v 0.0487473106 -0.0394262409 0.00600000024
v 0.0487473106 -0.0346051741 -0.0230999994
v 0.0487473106 -0.0346051741 0.00400000006
v 0.0487473106 -0.0346051741 0.00600000024
v 0.0487473106 -0.0346051741 0.0129999995
v 0.0487865782 -0.0439259005 0.00400000006
v 0.0487865782 -0.0439259005 0.00600000024
v 0.0489824963 -0.0394385672 0.00400000006
v 0.0489824963 -0.0394385672 0.00600000024
v 0.0490215158 -0.0439094687 0.00400000006
v 0.0490215158 -0.0439094687 0.00600000024
v 0.0492151117 -0.03947541 0.00400000006
v 0.0492151117 -0.03947541 0.00600000024
v 0.0492534494 -0.0438685751 0.00400000006
v 0.0492534494 -0.0438685751 0.00600000024
v 0.0494798374 -0.0395488238 0.00400000006
v 0.0494798374 -0.0395488238 0.00600000024
v 0.0492916346 -0.0394930768 0.00400000006
v 0.0492916346 -0.0394930768 0.00600000024
v 0.0495168543 -0.0437905502 0.00400000006
v 0.0495168543 -0.0437905502 0.00600000024
v 0.0496264553 -0.0437473774 0.00400000006
v 0.0496264553 -0.0437473774 0.00600000024
v 0.0497336435 -0.0396539545 0.00400000006
v 0.0497336435 -0.0396539545 0.00600000024
v 0.0497687864 -0.0436810064 0.00400000006
v 0.0497687864 -0.0436810064 0.00600000024
v 0.0499727488 -0.0397892332 0.00400000006
v 0.0499727488 -0.0397892332 0.00600000024
v 0.0499061441 -0.0397476149 0.00400000006
v 0.0499061441 -0.0397476149 0.00600000024
v 0.0500054932 -0.0435415745 0.00400000006
v 0.0500054932 -0.0435415745 0.00600000024
v 0.0500698233 -0.0434965277 0.00400000006
v 0.0500698233 -0.0434965277 0.00600000024
v 0.0502234411 -0.0399781442 0.00400000006
v 0.0502234411 -0.0399781442 0.00600000024
v 0.0503382969 -0.043267231 0.00400000006
v 0.0503382969 -0.043267231 0.00600000024
v 0.0503658247 -0.0432392216 0.00400000006
v 0.0503658247 -0.0432392216 0.00600000024
v 0.0504958868 -0.040260272 0.00400000006
v 0.0504958868 -0.040260272 0.00600000024
v 0.0504709101 -0.040229969 0.00400000006
v 0.0504709101 -0.040229969 0.00600000024
v 0.0505203342 -0.0430614805 0.00400000006
v 0.0505203342 -0.0430614805 0.00600000024
v 0.0505675983 -0.0429987574 0.00400000006
v 0.0505675983 -0.0429987574 0.00600000024
v 0.050733943 -0.0427325535 0.00400000006
v 0.050733943 -0.0427325535 0.00600000024
v 0.050733943 -0.0406199312 0.00400000006
v 0.050733943 -0.0406199312 0.00600000024
v 0.0506554174 -0.040483923 0.00400000006
v 0.0506554174 -0.040483923 0.00600000024
v 0.0507520723 -0.0426977205 0.00400000006
v 0.0507520723 -0.0426977205 0.00600000024
v 0.0508478642 -0.0424825668 0.00400000006
v 0.0508478642 -0.0424825668 0.00600000024
v 0.0509304762 -0.0422205639 0.00400000006
v 0.0509304762 -0.0422205639 0.00600000024
v 0.0509754133 -0.0419893789 0.00400000006
v 0.0509754133 -0.0419893789 0.00600000024
v 0.0509969664 -0.0417155075 0.00400000006
v 0.0509969664 -0.0417155075 0.00600000024
v 0.0509887457 -0.0414801407 0.00400000006
v 0.0509887457 -0.0414801407 0.00600000024
v 0.0509559679 -0.0412469196 0.00400000006
v 0.0509559679 -0.0412469196 0.00600000024
v 0.0508871841 -0.0409809542 0.00400000006
v 0.0508871841 -0.0409809542 0.00600000024
v 0.0507865 -0.0407253504 0.00400000006
v 0.0507865 -0.0407253504 0.00600000024
v 0.0540506077 -0.0399084735 0.00400000006
v 0.0540506077 -0.0399084735 0.00600000024
f 2 1 69
f 2 255 1
f 5 3 1
f 1 3 17
f 7 5 1
f 1 9 7
f 19 9 1
f 1 13 11
f 11 29 1
f 1 15 13
f 17 15 1
f 1 21 19
f 1 23 21
f 25 23 1
f 1 31 25
f 29 27 1
f 1 27 35
f 1 33 31
f 1 37 33
f 1 35 41
f 1 39 37
f 39 1 255
f 1 41 49
f 1 49 47
f 1 47 53
f 53 57 1
f 1 57 63
f 1 63 61
f 1 61 71
f 69 1 68
f 1 71 68
f 2 4 6
f 18 4 2
f 2 6 8
f 2 8 10
f 2 10 20
f 2 12 14
f 2 30 12
f 14 16 2
f 2 16 18
f 2 20 22
f 22 24 2
f 2 24 26
f 26 32 2
f 2 28 30
f 2 36 28
f 2 32 34
f 2 34 38
f 69 36 2
f 2 38 40
f 40 256 2
f 256 255 2
f 4 3 6
f 4 17 3
f 6 3 5
f 18 17 4
f 6 5 8
f 8 5 7
f 8 7 10
f 10 7 9
f 10 9 20
f 20 9 19
f 12 11 14
f 12 29 11
f 14 11 13
f 30 29 12
f 14 13 16
f 16 13 15
f 16 15 18
f 18 15 17
f 20 19 22
f 22 19 21
f 22 21 24
f 24 21 23
f 24 23 26
f 26 23 25
f 26 25 32
f 32 25 31
f 28 27 30
f 28 35 27
f 30 27 29
f 36 35 28
f 32 31 34
f 34 31 33
f 34 33 38
f 38 33 37
f 36 41 35
f 42 41 36
f 69 42 36
f 38 37 40
f 40 37 39
f 40 39 44
f 44 39 43
f 175 43 39
f 39 255 175
f 176 40 44
f 40 176 256
f 42 49 41
f 50 49 42
f 69 50 42
f 44 43 46
f 46 43 45
f 173 45 43
f 173 43 175
f 174 44 46
f 176 44 174
f 46 45 52
f 52 45 51
f 167 51 45
f 167 45 173
f 168 46 52
f 174 46 168
f 48 47 50
f 48 53 47
f 50 47 49
f 69 48 50
f 54 53 48
f 69 54 48
f 52 51 56
f 56 51 55
f 165 55 51
f 165 51 167
f 166 52 56
f 168 52 166
f 54 57 53
f 58 57 54
f 58 54 69
f 56 55 60
f 60 55 59
f 157 59 55
f 157 55 165
f 158 56 60
f 166 56 158
f 58 63 57
f 64 63 58
f 69 64 58
f 60 59 66
f 66 59 65
f 155 65 59
f 155 59 157
f 156 60 66
f 158 60 156
f 62 61 64
f 62 71 61
f 64 61 63
f 69 62 64
f 69 72 62
f 72 71 62
f 66 65 74
f 74 65 73
f 153 73 65
f 153 65 155
f 154 66 74
f 156 66 154
f 68 281 67
f 556 68 67
f 281 1023 67
f 556 67 555
f 67 1023 555
f 557 69 68
f 71 75 68
f 68 75 79
f 68 79 81
f 68 81 85
f 68 85 89
f 89 95 68
f 68 95 97
f 68 97 101
f 68 101 282
f 282 281 68
f 557 68 556
f 69 70 283
f 558 70 69
f 69 76 72
f 69 80 76
f 69 82 80
f 69 86 82
f 90 86 69
f 69 96 90
f 98 96 69
f 69 102 98
f 283 102 69
f 558 69 557
f 283 70 284
f 373 284 70
f 287 70 285
f 285 70 313
f 289 70 287
f 291 70 289
f 293 70 291
f 295 70 293
f 297 70 295
f 299 70 297
f 301 70 299
f 303 70 301
f 305 70 303
f 307 70 305
f 315 70 307
f 311 70 309
f 309 70 327
f 313 70 311
f 317 70 315
f 319 70 317
f 321 70 319
f 329 70 321
f 325 70 323
f 323 70 339
f 327 70 325
f 331 70 329
f 333 70 331
f 341 70 333
f 337 70 335
f 335 70 349
f 339 70 337
f 343 70 341
f 345 70 343
f 351 70 345
f 349 70 347
f 347 70 558
f 353 70 351
f 359 70 353
f 361 70 359
f 365 70 361
f 367 70 365
f 373 70 367
f 72 75 71
f 76 75 72
f 74 73 78
f 78 73 77
f 151 77 73
f 151 73 153
f 152 74 78
f 154 74 152
f 76 79 75
f 80 79 76
f 78 77 84
f 84 77 83
f 149 83 77
f 149 77 151
f 150 78 84
f 152 78 150
f 80 81 79
f 82 81 80
f 82 85 81
f 86 85 82
f 84 83 88
f 88 83 87
f 149 87 83
f 150 84 88
f 86 89 85
f 90 89 86
f 88 87 94
f 94 87 93
f 149 93 87
f 150 88 94
f 90 95 89
f 96 95 90
f 92 93 91
f 92 91 100
f 149 91 93
f 100 91 99
f 99 91 149
f 94 93 92
f 150 94 92
f 92 100 150
f 96 97 95
f 98 97 96
f 98 101 97
f 102 101 98
f 100 99 108
f 108 99 107
f 149 107 99
f 150 100 108
f 102 103 101
f 101 103 282
f 104 103 102
f 283 104 102
f 104 109 103
f 282 103 109
f 110 109 104
f 110 104 283
f 106 107 105
f 106 105 116
f 105 107 147
f 116 105 115
f 147 115 105
f 108 107 106
f 148 108 106
f 148 106 116
f 147 107 149
f 150 108 148
f 110 111 109
f 282 109 111
f 112 111 110
f 283 112 110
f 112 117 111
f 282 111 117
f 118 117 112
f 283 118 112
f 114 115 113
f 114 113 126
f 282 113 115
f 126 113 125
f 282 125 113
f 116 115 114
f 283 116 114
f 283 114 126
f 115 145 143
f 143 163 115
f 147 145 115
f 161 159 115
f 159 171 115
f 115 163 161
f 115 171 169
f 169 179 115
f 179 177 115
f 177 185 115
f 115 185 193
f 193 191 115
f 115 191 197
f 197 201 115
f 201 207 115
f 115 207 211
f 115 211 215
f 115 215 221
f 115 221 225
f 282 115 225
f 146 116 144
f 144 116 164
f 148 116 146
f 162 116 160
f 160 116 172
f 164 116 162
f 172 116 170
f 170 116 180
f 180 116 178
f 178 116 186
f 186 116 194
f 194 116 192
f 192 116 198
f 198 116 202
f 202 116 208
f 208 116 212
f 212 116 216
f 216 116 222
f 222 116 226
f 226 116 283
f 118 119 117
f 282 117 119
f 120 119 118
f 283 120 118
f 120 127 119
f 282 119 127
f 128 127 120
f 283 128 120
f 122 123 121
f 122 121 142
f 282 121 123
f 142 121 141
f 282 141 121
f 124 123 122
f 283 124 122
f 283 122 142
f 124 125 123
f 282 123 125
f 126 125 124
f 283 126 124
f 128 129 127
f 127 129 282
f 130 129 128
f 130 128 283
f 130 131 129
f 282 129 131
f 132 131 130
f 283 132 130
f 132 133 131
f 282 131 133
f 134 133 132
f 283 134 132
f 134 135 133
f 282 133 135
f 136 135 134
f 283 136 134
f 136 137 135
f 282 135 137
f 138 137 136
f 283 138 136
f 138 139 137
f 282 137 139
f 140 139 138
f 283 140 138
f 140 141 139
f 139 141 282
f 142 141 140
f 142 140 283
f 144 143 146
f 144 163 143
f 146 143 145
f 164 163 144
f 146 145 148
f 148 145 147
f 148 147 150
f 150 147 149
f 150 149 152
f 152 149 151
f 152 151 154
f 154 151 153
f 154 153 156
f 156 153 155
f 156 155 158
f 158 155 157
f 158 157 166
f 166 157 165
f 160 159 162
f 160 171 159
f 162 159 161
f 172 171 160
f 162 161 164
f 164 161 163
f 166 165 168
f 168 165 167
f 168 167 174
f 174 167 173
f 170 169 172
f 170 179 169
f 172 169 171
f 180 179 170
f 174 173 176
f 176 173 175
f 176 175 182
f 182 175 181
f 175 255 181
f 182 256 176
f 178 177 180
f 178 185 177
f 180 177 179
f 186 185 178
f 182 181 184
f 184 181 183
f 181 255 183
f 184 256 182
f 184 183 188
f 188 183 187
f 183 255 187
f 188 256 184
f 186 193 185
f 194 193 186
f 188 187 190
f 190 187 189
f 187 255 189
f 190 256 188
f 190 189 196
f 196 189 195
f 189 255 195
f 196 256 190
f 192 191 194
f 192 197 191
f 194 191 193
f 198 197 192
f 196 195 200
f 200 195 199
f 195 255 199
f 200 256 196
f 198 201 197
f 202 201 198
f 200 199 204
f 204 199 203
f 199 255 203
f 204 256 200
f 202 207 201
f 208 207 202
f 204 203 206
f 206 203 205
f 203 255 205
f 206 256 204
f 206 205 210
f 210 205 209
f 205 255 209
f 210 256 206
f 208 211 207
f 212 211 208
f 210 209 214
f 214 209 213
f 209 255 213
f 214 256 210
f 212 215 211
f 216 215 212
f 214 213 220
f 220 213 219
f 213 255 219
f 220 256 214
f 216 221 215
f 222 221 216
f 218 219 217
f 218 217 224
f 219 255 217
f 224 217 223
f 217 255 223
f 220 219 218
f 218 256 220
f 224 256 218
f 222 225 221
f 226 225 222
f 224 223 228
f 228 223 227
f 223 255 227
f 228 256 224
f 226 229 225
f 229 282 225
f 230 229 226
f 226 283 230
f 228 227 234
f 234 227 233
f 227 255 233
f 234 256 228
f 230 235 229
f 235 282 229
f 236 235 230
f 230 283 236
f 232 233 231
f 232 231 240
f 233 255 231
f 240 231 239
f 231 255 239
f 234 233 232
f 232 256 234
f 240 256 232
f 236 237 235
f 237 282 235
f 238 237 236
f 236 283 238
f 238 241 237
f 241 282 237
f 242 241 238
f 238 283 242
f 240 239 246
f 246 239 245
f 239 255 245
f 246 256 240
f 242 243 241
f 243 282 241
f 244 243 242
f 242 283 244
f 244 247 243
f 247 282 243
f 248 247 244
f 244 283 248
f 246 245 254
f 254 245 253
f 245 282 253
f 245 255 282
f 254 283 246
f 246 283 256
f 248 249 247
f 249 282 247
f 250 249 248
f 248 283 250
f 250 257 249
f 257 282 249
f 258 257 250
f 250 283 258
f 252 253 251
f 252 251 272
f 253 282 251
f 272 251 271
f 251 282 271
f 254 253 252
f 252 283 254
f 272 283 252
f 255 256 282
f 282 256 283
f 258 259 257
f 259 282 257
f 260 259 258
f 258 283 260
f 260 261 259
f 261 282 259
f 262 261 260
f 260 283 262
f 262 263 261
f 263 282 261
f 264 263 262
f 262 283 264
f 264 273 263
f 273 282 263
f 274 273 264
f 264 283 274
f 266 267 265
f 266 265 280
f 267 282 265
f 280 265 279
f 265 282 279
f 268 267 266
f 266 283 268
f 280 283 266
f 268 269 267
f 269 282 267
f 270 269 268
f 268 283 270
f 270 271 269
f 271 282 269
f 272 271 270
f 270 283 272
f 274 275 273
f 275 282 273
f 276 275 274
f 274 283 276
f 276 277 275
f 277 282 275
f 278 277 276
f 276 283 278
f 278 279 277
f 279 282 277
f 280 279 278
f 278 283 280
f 282 1023 281
f 283 1024 282
f 282 1024 1023
f 284 1025 283
f 283 1025 1024
f 375 284 373
f 379 284 375
f 381 284 379
f 387 284 381
f 393 284 387
f 397 284 393
f 399 284 397
f 421 284 399
f 437 284 421
f 439 284 437
f 453 284 439
f 463 284 453
f 465 284 463
f 477 284 465
f 487 284 477
f 497 284 487
f 499 284 497
f 507 284 499
f 519 284 507
f 529 284 519
f 537 284 529
f 545 284 537
f 553 284 545
f 565 284 553
f 575 284 565
f 583 284 575
f 593 284 583
f 603 284 593
f 613 284 603
f 623 284 613
f 633 284 623
f 645 284 633
f 661 284 645
f 681 284 661
f 679 284 681
f 699 284 679
f 705 284 699
f 703 284 705
f 711 284 703
f 711 1026 284
f 284 1026 1025
f 286 287 285
f 286 285 314
f 314 285 313
f 288 287 286
f 502 288 286
f 490 286 314
f 502 286 490
f 288 289 287
f 290 289 288
f 512 290 288
f 512 288 502
f 290 291 289
f 292 291 290
f 522 292 290
f 510 290 512
f 522 290 510
f 292 293 291
f 294 293 292
f 532 294 292
f 532 292 522
f 294 295 293
f 296 295 294
f 540 296 294
f 540 294 532
f 296 297 295
f 298 297 296
f 548 298 296
f 548 296 540
f 298 299 297
f 300 299 298
f 560 300 298
f 560 298 548
f 300 301 299
f 302 301 300
f 568 302 300
f 568 300 560
f 302 303 301
f 304 303 302
f 578 304 302
f 578 302 568
f 304 305 303
f 306 305 304
f 586 306 304
f 586 304 578
f 306 307 305
f 308 307 306
f 596 308 306
f 596 306 586
f 308 315 307
f 316 315 308
f 596 316 308
f 310 311 309
f 310 309 328
f 328 309 327
f 312 311 310
f 470 312 310
f 456 310 328
f 470 310 456
f 312 313 311
f 314 313 312
f 480 314 312
f 468 312 470
f 480 312 468
f 490 314 480
f 316 317 315
f 318 317 316
f 445 318 316
f 445 316 443
f 443 316 457
f 457 316 606
f 606 316 596
f 318 319 317
f 320 319 318
f 429 320 318
f 427 318 425
f 425 318 445
f 429 318 427
f 320 321 319
f 322 321 320
f 407 322 320
f 405 320 403
f 403 320 429
f 407 320 405
f 322 329 321
f 330 329 322
f 409 330 322
f 409 322 407
f 324 325 323
f 324 323 340
f 340 323 339
f 326 325 324
f 424 326 324
f 424 324 340
f 326 327 325
f 328 327 326
f 442 328 326
f 442 326 424
f 456 328 442
f 330 331 329
f 332 331 330
f 409 332 330
f 332 333 331
f 334 333 332
f 433 334 332
f 411 332 409
f 413 332 411
f 415 332 413
f 417 332 415
f 419 332 417
f 431 332 419
f 433 332 431
f 334 341 333
f 342 341 334
f 435 342 334
f 435 334 433
f 336 337 335
f 336 335 350
f 350 335 349
f 338 337 336
f 396 338 336
f 396 336 350
f 338 339 337
f 340 339 338
f 402 340 338
f 402 338 396
f 424 340 402
f 342 343 341
f 344 343 342
f 435 344 342
f 344 345 343
f 346 345 344
f 435 346 344
f 346 351 345
f 352 351 346
f 449 352 346
f 447 346 435
f 449 346 447
f 348 349 347
f 348 347 358
f 358 347 357
f 347 558 357
f 350 349 348
f 392 350 348
f 384 348 358
f 392 348 384
f 390 350 392
f 396 350 390
f 352 353 351
f 354 353 352
f 449 354 352
f 354 359 353
f 360 359 354
f 449 360 354
f 356 357 355
f 356 355 364
f 357 558 355
f 364 355 363
f 355 558 363
f 358 357 356
f 384 358 356
f 378 356 364
f 386 356 378
f 384 356 386
f 360 361 359
f 362 361 360
f 451 362 360
f 451 360 449
f 362 365 361
f 366 365 362
f 459 366 362
f 459 362 451
f 364 363 372
f 372 363 371
f 363 558 371
f 370 364 372
f 378 364 370
f 366 367 365
f 368 367 366
f 459 368 366
f 368 373 367
f 374 373 368
f 459 374 368
f 370 371 369
f 370 369 378
f 371 558 369
f 378 369 377
f 369 558 377
f 372 371 370
f 374 375 373
f 376 375 374
f 473 376 374
f 461 374 459
f 473 374 461
f 376 379 375
f 380 379 376
f 473 380 376
f 378 377 386
f 386 377 385
f 377 558 385
f 380 381 379
f 382 381 380
f 473 382 380
f 382 387 381
f 388 387 382
f 475 388 382
f 475 382 473
f 384 385 383
f 384 383 392
f 385 558 383
f 392 383 391
f 383 558 391
f 386 385 384
f 388 393 387
f 394 393 388
f 485 394 388
f 485 388 475
f 390 391 389
f 390 389 396
f 391 558 389
f 396 389 395
f 389 558 395
f 392 391 390
f 394 397 393
f 398 397 394
f 485 398 394
f 396 395 402
f 402 395 401
f 395 558 401
f 398 399 397
f 400 399 398
f 485 400 398
f 400 421 399
f 422 421 400
f 495 422 400
f 493 400 485
f 495 400 493
f 402 401 424
f 424 401 423
f 401 558 423
f 404 405 403
f 404 403 430
f 430 403 429
f 406 405 404
f 514 406 404
f 514 404 430
f 406 407 405
f 408 407 406
f 526 408 406
f 526 406 514
f 408 409 407
f 410 409 408
f 534 410 408
f 524 408 526
f 534 408 524
f 410 411 409
f 412 411 410
f 542 412 410
f 542 410 534
f 412 413 411
f 414 413 412
f 550 414 412
f 550 412 542
f 414 415 413
f 416 415 414
f 562 416 414
f 562 414 550
f 416 417 415
f 418 417 416
f 570 418 416
f 570 416 562
f 418 419 417
f 420 419 418
f 580 420 418
f 572 418 570
f 580 418 572
f 420 431 419
f 432 431 420
f 588 432 420
f 588 420 580
f 422 437 421
f 438 437 422
f 495 438 422
f 424 423 442
f 442 423 441
f 423 558 441
f 426 427 425
f 426 425 446
f 446 425 445
f 428 427 426
f 492 428 426
f 492 426 446
f 428 429 427
f 430 429 428
f 504 430 428
f 504 428 492
f 514 430 504
f 432 433 431
f 434 433 432
f 588 434 432
f 434 435 433
f 436 435 434
f 598 436 434
f 598 434 588
f 436 447 435
f 448 447 436
f 608 448 436
f 600 436 598
f 608 436 600
f 438 439 437
f 440 439 438
f 495 440 438
f 440 453 439
f 454 453 440
f 505 454 440
f 505 440 495
f 442 441 456
f 456 441 455
f 441 558 455
f 444 445 443
f 444 443 458
f 458 443 457
f 446 445 444
f 482 446 444
f 472 444 458
f 484 444 472
f 482 444 484
f 492 446 482
f 448 449 447
f 450 449 448
f 608 450 448
f 450 451 449
f 452 451 450
f 620 452 450
f 618 450 608
f 620 450 618
f 452 459 451
f 460 459 452
f 620 460 452
f 454 463 453
f 464 463 454
f 505 464 454
f 456 455 470
f 470 455 469
f 455 558 469
f 458 457 472
f 472 457 471
f 606 471 457
f 460 461 459
f 462 461 460
f 628 462 460
f 628 460 620
f 462 473 461
f 474 473 462
f 462 630 474
f 630 462 628
f 464 465 463
f 466 465 464
f 505 466 464
f 466 477 465
f 478 477 466
f 515 478 466
f 515 466 505
f 468 469 467
f 468 467 480
f 469 558 467
f 480 467 479
f 467 558 479
f 470 469 468
f 472 471 484
f 484 471 483
f 606 483 471
f 474 475 473
f 476 475 474
f 474 638 476
f 474 630 638
f 476 485 475
f 486 485 476
f 476 640 486
f 476 638 640
f 478 487 477
f 488 487 478
f 517 488 478
f 517 478 515
f 480 479 490
f 490 479 489
f 479 558 489
f 482 483 481
f 482 481 492
f 606 481 483
f 492 481 491
f 606 491 481
f 484 483 482
f 486 493 485
f 494 493 486
f 486 654 494
f 486 640 652
f 486 652 654
f 488 497 487
f 498 497 488
f 527 498 488
f 527 488 517
f 490 489 502
f 502 489 501
f 489 558 501
f 492 491 504
f 504 491 503
f 606 503 491
f 494 495 493
f 496 495 494
f 494 654 496
f 496 505 495
f 506 505 496
f 496 656 506
f 496 654 656
f 498 499 497
f 500 499 498
f 527 500 498
f 500 507 499
f 508 507 500
f 527 508 500
f 502 501 512
f 512 501 511
f 501 558 511
f 504 503 514
f 514 503 513
f 616 513 503
f 616 503 606
f 506 515 505
f 516 515 506
f 506 668 516
f 506 656 666
f 506 666 668
f 508 519 507
f 520 519 508
f 535 520 508
f 535 508 527
f 510 511 509
f 510 509 522
f 511 558 509
f 522 509 521
f 509 558 521
f 512 511 510
f 514 513 526
f 526 513 525
f 525 513 626
f 626 513 616
f 516 517 515
f 518 517 516
f 516 668 518
f 518 527 517
f 528 527 518
f 518 670 528
f 518 668 670
f 520 529 519
f 530 529 520
f 535 530 520
f 522 521 532
f 532 521 531
f 521 558 531
f 524 525 523
f 524 523 534
f 523 525 626
f 534 523 533
f 626 533 523
f 526 525 524
f 528 535 527
f 536 535 528
f 528 688 536
f 528 670 672
f 528 672 688
f 530 537 529
f 543 530 535
f 538 537 530
f 543 538 530
f 532 531 540
f 540 531 539
f 531 558 539
f 534 533 542
f 542 533 541
f 541 533 636
f 636 533 626
f 536 543 535
f 544 543 536
f 536 690 544
f 536 688 690
f 538 545 537
f 543 546 538
f 546 545 538
f 540 539 548
f 548 539 547
f 539 558 547
f 542 541 550
f 550 541 549
f 636 549 541
f 544 551 543
f 551 546 543
f 552 551 544
f 544 692 552
f 544 690 692
f 546 553 545
f 551 554 546
f 554 553 546
f 548 547 560
f 547 558 559
f 560 547 559
f 550 549 562
f 562 549 561
f 648 561 549
f 648 549 636
f 552 563 551
f 551 566 554
f 563 566 551
f 564 563 552
f 552 694 564
f 552 692 694
f 554 565 553
f 566 565 554
f 556 555 1024
f 1024 555 1023
f 556 792 557
f 751 749 556
f 556 749 773
f 753 751 556
f 755 753 556
f 556 757 755
f 556 759 757
f 775 759 556
f 556 771 769
f 556 769 791
f 556 773 771
f 556 777 775
f 779 777 556
f 556 797 779
f 791 792 556
f 556 799 797
f 815 799 556
f 839 815 556
f 1024 839 556
f 557 1026 558
f 750 752 557
f 557 774 750
f 752 754 557
f 754 756 557
f 557 756 758
f 557 758 760
f 760 776 557
f 557 770 772
f 792 770 557
f 557 772 774
f 557 776 778
f 778 780 557
f 557 780 798
f 557 798 800
f 800 816 557
f 816 840 557
f 1025 557 840
f 1025 1026 557
f 559 558 567
f 567 558 577
f 577 558 585
f 585 558 595
f 595 558 605
f 605 558 615
f 615 558 625
f 625 558 635
f 635 558 647
f 647 558 649
f 649 558 663
f 663 558 683
f 683 558 685
f 685 558 701
f 701 558 707
f 707 558 713
f 713 558 715
f 715 558 719
f 719 558 721
f 721 558 727
f 727 558 1026
f 560 559 568
f 568 559 567
f 562 561 570
f 570 561 569
f 664 569 561
f 650 561 648
f 664 561 650
f 564 573 563
f 563 576 566
f 573 584 563
f 563 584 576
f 574 573 564
f 564 696 574
f 564 694 696
f 566 575 565
f 576 575 566
f 568 567 578
f 578 567 577
f 570 569 572
f 572 569 571
f 664 571 569
f 572 571 580
f 580 571 579
f 579 571 684
f 684 571 664
f 574 581 573
f 581 604 573
f 573 594 584
f 573 604 594
f 582 581 574
f 574 674 582
f 574 698 674
f 574 696 698
f 576 583 575
f 584 583 576
f 578 577 586
f 586 577 585
f 580 579 588
f 588 579 587
f 702 587 579
f 686 579 684
f 702 579 686
f 582 591 581
f 591 624 581
f 581 614 604
f 581 624 614
f 592 591 582
f 582 676 592
f 582 674 676
f 584 593 583
f 594 593 584
f 586 585 596
f 596 585 595
f 588 587 598
f 598 587 597
f 702 597 587
f 590 589 592
f 590 601 589
f 592 589 591
f 589 634 591
f 601 646 589
f 589 646 634
f 592 676 590
f 602 601 590
f 590 678 602
f 590 676 678
f 591 634 624
f 594 603 593
f 604 603 594
f 596 595 606
f 606 595 605
f 598 597 600
f 600 597 599
f 708 599 597
f 708 597 702
f 600 599 608
f 608 599 607
f 708 607 599
f 602 611 601
f 611 680 601
f 601 662 646
f 601 682 662
f 601 680 682
f 612 611 602
f 602 658 612
f 602 678 658
f 604 613 603
f 614 613 604
f 606 605 616
f 616 605 615
f 608 607 618
f 618 607 617
f 716 617 607
f 714 607 708
f 716 607 714
f 610 609 612
f 610 621 609
f 612 609 611
f 609 700 611
f 621 704 609
f 609 706 700
f 609 704 706
f 612 658 610
f 622 621 610
f 610 660 622
f 610 658 660
f 611 700 680
f 614 623 613
f 624 623 614
f 616 615 626
f 626 615 625
f 618 617 620
f 620 617 619
f 716 619 617
f 620 619 628
f 628 619 627
f 720 627 619
f 720 619 716
f 622 631 621
f 631 718 621
f 621 712 704
f 621 710 712
f 621 718 710
f 632 631 622
f 622 644 632
f 622 642 644
f 622 660 642
f 624 633 623
f 634 633 624
f 626 625 636
f 636 625 635
f 628 627 630
f 630 627 629
f 722 629 627
f 722 627 720
f 630 629 638
f 638 629 637
f 728 637 629
f 728 629 722
f 632 643 631
f 820 631 643
f 631 726 718
f 631 724 726
f 631 732 724
f 631 740 732
f 631 738 740
f 748 738 631
f 631 746 748
f 631 768 746
f 631 766 768
f 631 790 766
f 631 788 790
f 631 812 788
f 808 810 631
f 631 834 808
f 631 810 812
f 631 820 822
f 631 822 824
f 631 824 842
f 631 826 828
f 856 826 631
f 631 828 830
f 631 830 832
f 832 834 631
f 842 844 631
f 631 844 846
f 631 846 848
f 631 848 850
f 631 850 852
f 852 854 631
f 631 854 856
f 644 643 632
f 634 645 633
f 646 645 634
f 636 635 648
f 648 635 647
f 638 637 640
f 640 637 639
f 730 639 637
f 730 637 728
f 640 639 652
f 652 639 651
f 734 651 639
f 734 639 730
f 642 641 644
f 642 659 641
f 644 641 643
f 820 643 641
f 641 659 820
f 660 659 642
f 646 661 645
f 662 661 646
f 648 647 650
f 650 647 649
f 650 649 664
f 664 649 663
f 652 651 654
f 654 651 653
f 736 653 651
f 736 651 734
f 654 653 656
f 656 653 655
f 744 655 653
f 742 653 736
f 744 653 742
f 656 655 666
f 666 655 665
f 744 665 655
f 658 657 660
f 658 677 657
f 660 657 659
f 820 659 657
f 818 657 677
f 820 657 818
f 678 677 658
f 662 681 661
f 682 681 662
f 664 663 684
f 684 663 683
f 666 665 668
f 668 665 667
f 744 667 665
f 668 667 670
f 670 667 669
f 762 669 667
f 762 667 744
f 670 669 672
f 672 669 671
f 782 671 669
f 764 669 762
f 782 669 764
f 672 671 688
f 688 671 687
f 782 687 671
f 674 673 676
f 674 697 673
f 676 673 675
f 806 675 673
f 806 673 697
f 698 697 674
f 676 675 678
f 678 675 677
f 818 677 675
f 818 675 806
f 680 679 682
f 680 699 679
f 682 679 681
f 700 699 680
f 684 683 686
f 686 683 685
f 686 685 702
f 702 685 701
f 688 687 690
f 690 687 689
f 784 689 687
f 784 687 782
f 690 689 692
f 692 689 691
f 786 691 689
f 786 689 784
f 692 691 694
f 694 691 693
f 802 693 691
f 802 691 786
f 694 693 696
f 696 693 695
f 695 693 804
f 804 693 802
f 696 695 698
f 698 695 697
f 806 697 695
f 806 695 804
f 700 705 699
f 706 705 700
f 702 701 708
f 708 701 707
f 704 703 706
f 704 711 703
f 706 703 705
f 712 711 704
f 708 707 714
f 714 707 713
f 710 709 712
f 710 717 709
f 712 709 711
f 709 1026 711
f 717 1026 709
f 718 717 710
f 714 713 716
f 716 713 715
f 716 715 720
f 720 715 719
f 718 725 717
f 725 1026 717
f 726 725 718
f 720 719 722
f 722 719 721
f 722 721 728
f 728 721 727
f 724 723 726
f 724 731 723
f 726 723 725
f 723 1026 725
f 731 1026 723
f 732 731 724
f 728 727 730
f 730 727 729
f 727 1026 729
f 730 729 734
f 734 729 733
f 729 1026 733
f 732 739 731
f 739 1026 731
f 740 739 732
f 734 733 736
f 736 733 735
f 733 1026 735
f 736 735 742
f 742 735 741
f 735 1026 741
f 738 737 740
f 738 747 737
f 740 737 739
f 737 1026 739
f 747 1026 737
f 748 747 738
f 742 741 744
f 744 741 743
f 741 1026 743
f 744 743 762
f 762 743 761
f 743 1026 761
f 746 745 748
f 746 767 745
f 748 745 747
f 745 1026 747
f 767 1026 745
f 768 767 746
f 749 752 750
f 749 750 773
f 751 752 749
f 773 750 774
f 751 754 752
f 753 754 751
f 753 756 754
f 755 756 753
f 755 758 756
f 757 758 755
f 757 760 758
f 759 760 757
f 759 776 760
f 775 776 759
f 762 761 764
f 764 761 763
f 761 1026 763
f 764 763 782
f 782 763 781
f 763 1026 781
f 766 765 768
f 766 789 765
f 768 765 767
f 765 1026 767
f 789 1026 765
f 790 789 766
f 769 772 770
f 769 770 795
f 771 772 769
f 791 769 795
f 792 796 770
f 795 770 796
f 771 774 772
f 773 774 771
f 775 778 776
f 777 778 775
f 777 780 778
f 779 780 777
f 779 798 780
f 797 798 779
f 782 781 784
f 784 781 783
f 781 1026 783
f 784 783 786
f 786 783 785
f 783 1026 785
f 786 785 802
f 802 785 801
f 785 1026 801
f 788 787 790
f 788 811 787
f 790 787 789
f 787 1026 789
f 811 1026 787
f 812 811 788
f 792 791 1096
f 791 795 793
f 793 813 791
f 813 837 791
f 791 837 835
f 791 835 859
f 859 857 791
f 857 865 791
f 791 865 869
f 791 869 873
f 791 873 877
f 791 877 883
f 883 889 791
f 889 893 791
f 791 893 897
f 791 897 899
f 791 899 905
f 791 905 909
f 909 911 791
f 911 917 791
f 917 1095 791
f 1096 791 1095
f 794 796 792
f 792 814 794
f 792 838 814
f 836 838 792
f 792 860 836
f 792 858 860
f 792 866 858
f 870 866 792
f 792 874 870
f 792 878 874
f 792 884 878
f 792 890 884
f 792 894 890
f 898 894 792
f 900 898 792
f 792 906 900
f 910 906 792
f 792 912 910
f 792 918 912
f 918 792 1096
f 793 796 794
f 793 794 813
f 795 796 793
f 813 794 814
f 797 800 798
f 799 800 797
f 799 816 800
f 815 816 799
f 802 801 804
f 804 801 803
f 801 1026 803
f 804 803 806
f 806 803 805
f 803 1026 805
f 806 805 818
f 818 805 817
f 805 1026 817
f 808 807 810
f 808 833 807
f 810 807 809
f 807 1026 809
f 833 1026 807
f 834 833 808
f 810 809 812
f 812 809 811
f 809 1026 811
f 813 814 837
f 837 814 838
f 815 840 816
f 839 840 815
f 818 817 820
f 820 817 819
f 817 1026 819
f 820 819 822
f 822 819 821
f 819 1026 821
f 822 821 824
f 824 821 823
f 821 1026 823
f 824 823 842
f 842 823 841
f 823 1026 841
f 826 825 828
f 826 855 825
f 828 825 827
f 825 1026 827
f 855 1026 825
f 856 855 826
f 828 827 830
f 830 827 829
f 827 1026 829
f 830 829 832
f 832 829 831
f 829 1026 831
f 832 831 834
f 834 831 833
f 831 1026 833
f 835 838 836
f 835 836 859
f 837 838 835
f 859 836 860
f 839 862 840
f 861 862 839
f 981 861 839
f 981 839 983
f 983 839 1024
f 982 840 862
f 984 840 982
f 840 984 1025
f 842 841 844
f 844 841 843
f 841 1026 843
f 844 843 846
f 846 843 845
f 843 1026 845
f 846 845 848
f 848 845 847
f 845 1026 847
f 848 847 850
f 850 847 849
f 847 1026 849
f 850 849 852
f 852 849 851
f 849 1026 851
f 852 851 854
f 854 851 853
f 851 1026 853
f 854 853 856
f 856 853 855
f 853 1026 855
f 857 860 858
f 857 858 865
f 859 860 857
f 865 858 866
f 861 864 862
f 863 864 861
f 973 863 861
f 973 861 981
f 974 862 864
f 982 862 974
f 863 868 864
f 867 868 863
f 971 867 863
f 971 863 973
f 972 864 868
f 974 864 972
f 865 866 869
f 869 866 870
f 867 872 868
f 871 872 867
f 971 871 867
f 972 868 872
f 869 870 873
f 873 870 874
f 871 876 872
f 875 876 871
f 969 875 871
f 969 871 971
f 970 872 876
f 972 872 970
f 873 874 877
f 877 874 878
f 875 880 876
f 879 880 875
f 967 879 875
f 967 875 969
f 968 876 880
f 970 876 968
f 877 878 883
f 883 878 884
f 879 882 880
f 881 882 879
f 965 881 879
f 965 879 967
f 966 880 882
f 968 880 966
f 881 888 882
f 887 888 881
f 955 887 881
f 955 881 965
f 956 882 888
f 966 882 956
f 883 884 889
f 889 884 890
f 885 886 887
f 885 892 886
f 953 885 887
f 891 892 885
f 963 891 885
f 963 885 953
f 887 886 888
f 954 888 886
f 964 886 892
f 954 886 964
f 953 887 955
f 956 888 954
f 889 890 893
f 893 890 894
f 891 896 892
f 895 896 891
f 961 895 891
f 961 891 963
f 962 892 896
f 964 892 962
f 893 894 897
f 897 894 898
f 895 904 896
f 903 904 895
f 959 903 895
f 959 895 961
f 960 896 904
f 962 896 960
f 897 898 899
f 899 898 900
f 899 900 905
f 905 900 906
f 901 902 903
f 901 908 902
f 957 901 903
f 907 908 901
f 979 907 901
f 979 901 957
f 903 902 904
f 958 904 902
f 980 902 908
f 958 902 980
f 957 903 959
f 960 904 958
f 905 906 909
f 909 906 910
f 907 916 908
f 915 916 907
f 977 915 907
f 977 907 979
f 978 908 916
f 980 908 978
f 909 910 911
f 911 910 912
f 911 912 917
f 917 912 918
f 913 914 915
f 913 924 914
f 975 913 915
f 923 924 913
f 913 987 923
f 987 913 975
f 915 914 916
f 976 916 914
f 988 914 924
f 976 914 988
f 975 915 977
f 978 916 976
f 917 918 919
f 917 919 1059
f 917 1059 1095
f 919 918 920
f 1060 920 918
f 918 1096 1060
f 919 920 925
f 1055 919 925
f 1059 919 1055
f 925 920 926
f 1056 926 920
f 1056 920 1060
f 921 922 923
f 921 936 922
f 1047 921 923
f 935 936 921
f 935 921 1047
f 923 922 924
f 1048 924 922
f 1048 922 936
f 923 987 985
f 923 985 993
f 923 993 991
f 923 991 997
f 923 997 1005
f 1005 1003 923
f 1003 1009 923
f 923 1009 1015
f 923 1015 1019
f 923 1019 1027
f 923 1027 1031
f 923 1031 1035
f 1035 1041 923
f 1041 1043 923
f 923 1043 1047
f 988 924 986
f 986 924 994
f 994 924 992
f 992 924 998
f 998 924 1006
f 1006 924 1004
f 1004 924 1010
f 1010 924 1016
f 1016 924 1020
f 1020 924 1028
f 1028 924 1032
f 1032 924 1036
f 1036 924 1042
f 1042 924 1044
f 1044 924 1048
f 925 926 927
f 1053 925 927
f 1055 925 1053
f 927 926 928
f 928 926 1054
f 1054 926 1056
f 927 928 929
f 927 929 1053
f 929 928 930
f 1054 930 928
f 929 930 937
f 1053 929 937
f 937 930 938
f 1054 938 930
f 931 932 933
f 931 952 932
f 1047 931 933
f 951 952 931
f 1053 951 931
f 1053 931 1047
f 933 932 934
f 1048 934 932
f 1054 932 952
f 1048 932 1054
f 933 934 935
f 1047 933 935
f 935 934 936
f 936 934 1048
f 937 938 939
f 1053 937 939
f 939 938 940
f 1054 940 938
f 939 940 941
f 1053 939 941
f 941 940 942
f 942 940 1054
f 941 942 943
f 1053 941 943
f 943 942 944
f 944 942 1054
f 943 944 945
f 1053 943 945
f 945 944 946
f 946 944 1054
f 945 946 947
f 945 947 1053
f 947 946 948
f 1054 948 946
f 947 948 949
f 947 949 1053
f 949 948 950
f 1054 950 948
f 949 950 951
f 1053 949 951
f 951 950 952
f 1054 952 950
f 953 956 954
f 953 954 963
f 955 956 953
f 963 954 964
f 955 966 956
f 965 966 955
f 957 960 958
f 957 958 979
f 959 960 957
f 979 958 980
f 959 962 960
f 961 962 959
f 961 964 962
f 963 964 961
f 965 968 966
f 967 968 965
f 967 970 968
f 969 970 967
f 969 972 970
f 971 972 969
f 971 974 972
f 973 974 971
f 973 982 974
f 981 982 973
f 975 978 976
f 975 976 987
f 977 978 975
f 987 976 988
f 977 980 978
f 979 980 977
f 981 984 982
f 983 984 981
f 983 990 984
f 989 990 983
f 983 1024 989
f 990 1025 984
f 985 988 986
f 985 986 993
f 987 988 985
f 993 986 994
f 989 996 990
f 995 996 989
f 989 1024 995
f 996 1025 990
f 991 994 992
f 991 992 997
f 993 994 991
f 997 992 998
f 995 1000 996
f 999 1000 995
f 995 1024 999
f 1000 1025 996
f 997 998 1005
f 1005 998 1006
f 999 1002 1000
f 1001 1002 999
f 999 1024 1001
f 1002 1025 1000
f 1001 1008 1002
f 1007 1008 1001
f 1001 1024 1007
f 1008 1025 1002
f 1003 1006 1004
f 1003 1004 1009
f 1005 1006 1003
f 1009 1004 1010
f 1007 1012 1008
f 1011 1012 1007
f 1007 1024 1011
f 1012 1025 1008
f 1009 1010 1015
f 1015 1010 1016
f 1011 1014 1012
f 1013 1014 1011
f 1011 1024 1013
f 1014 1025 1012
f 1013 1018 1014
f 1017 1018 1013
f 1013 1024 1017
f 1018 1025 1014
f 1015 1016 1019
f 1019 1016 1020
f 1017 1022 1018
f 1021 1022 1017
f 1017 1024 1021
f 1022 1025 1018
f 1019 1020 1027
f 1027 1020 1028
f 1021 1030 1022
f 1021 1024 1029
f 1029 1030 1021
f 1030 1025 1022
f 1025 1095 1024
f 1029 1024 1033
f 1033 1024 1039
f 1039 1024 1037
f 1037 1024 1045
f 1045 1024 1051
f 1051 1024 1095
f 1034 1025 1030
f 1040 1025 1034
f 1038 1025 1040
f 1046 1025 1038
f 1052 1025 1046
f 1052 1096 1025
f 1096 1095 1025
f 1027 1028 1031
f 1031 1028 1032
f 1029 1034 1030
f 1033 1034 1029
f 1031 1032 1035
f 1035 1032 1036
f 1033 1040 1034
f 1039 1040 1033
f 1035 1036 1041
f 1041 1036 1042
f 1037 1038 1039
f 1037 1046 1038
f 1045 1046 1037
f 1039 1038 1040
f 1041 1042 1043
f 1043 1042 1044
f 1043 1044 1047
f 1047 1044 1048
f 1045 1052 1046
f 1051 1052 1045
f 1047 1048 1053
f 1053 1048 1054
f 1049 1050 1051
f 1049 1058 1050
f 1051 1095 1049
f 1057 1058 1049
f 1049 1095 1057
f 1051 1050 1052
f 1050 1096 1052
f 1058 1096 1050
f 1053 1054 1055
f 1055 1054 1056
f 1055 1056 1059
f 1059 1056 1060
f 1057 1066 1058
f 1065 1066 1057
f 1057 1095 1065
f 1066 1096 1058
f 1059 1060 1061
f 1061 1095 1059
f 1061 1060 1062
f 1060 1096 1062
f 1061 1062 1067
f 1067 1095 1061
f 1067 1062 1068
f 1062 1096 1068
f 1063 1064 1065
f 1063 1076 1064
f 1065 1095 1063
f 1075 1076 1063
f 1063 1095 1075
f 1065 1064 1066
f 1064 1096 1066
f 1076 1096 1064
f 1067 1068 1069
f 1069 1095 1067
f 1069 1068 1070
f 1068 1096 1070
f 1069 1070 1071
f 1071 1095 1069
f 1071 1070 1072
f 1070 1096 1072
f 1071 1072 1077
f 1077 1095 1071
f 1077 1072 1078
f 1072 1096 1078
f 1073 1074 1075
f 1073 1094 1074
f 1075 1095 1073
f 1093 1094 1073
f 1073 1095 1093
f 1075 1074 1076
f 1074 1096 1076
f 1094 1096 1074
f 1077 1078 1079
f 1079 1095 1077
f 1079 1078 1080
f 1078 1096 1080
f 1079 1080 1081
f 1081 1095 1079
f 1081 1080 1082
f 1080 1096 1082
f 1081 1082 1083
f 1083 1095 1081
f 1083 1082 1084
f 1082 1096 1084
f 1083 1084 1085
f 1085 1095 1083
f 1085 1084 1086
f 1084 1096 1086
f 1085 1086 1087
f 1087 1095 1085
f 1087 1086 1088
f 1086 1096 1088
f 1087 1088 1089
f 1089 1095 1087
f 1089 1088 1090
f 1088 1096 1090
f 1089 1090 1091
f 1091 1095 1089
f 1091 1090 1092
f 1090 1096 1092
f 1091 1092 1093
f 1093 1095 1091
f 1093 1092 1094
f 1092 1096 1094
