v -0.061500001 0.0519999981 -0.00300000012
v -0.061500001 0.0519999981 0.00300000012
v -0.0612565136 0.0498629665 -0.00300000012
v -0.0612565136 0.0498629665 0.00300000012
v -0.0613254595 0.0501873159 -0.00300000012
v -0.0613254595 0.0501873159 0.00300000012
v -0.0613556719 0.0503503418 -0.00300000012
v -0.0613556719 0.0503503418 0.00300000012
v -0.061407547 0.0506778574 -0.00300000012
v -0.061407547 0.0506778574 0.00300000012
v -0.0614291906 0.0508422422 -0.00300000012
v -0.0614291906 0.0508422422 0.00300000012
v -0.0614638519 0.0511720228 -0.00300000012
v -0.0614638519 0.0511720228 0.00300000012
v -0.06147686 0.0513373137 -0.00300000012
v -0.06147686 0.0513373137 0.00300000012
v -0.0614942122 0.0516684532 -0.00300000012
v -0.0614942122 0.0516684532 0.00300000012
v -0.0614985514 0.0518342018 -0.00300000012
v -0.0614985514 0.0518342018 0.00300000012
v -0.0614985514 0.0521657991 -0.00300000012
v -0.0614985514 0.0521657991 0.00300000012
v -0.0614869785 0.0524971914 -0.00300000012
v -0.0614869785 0.0524971914 0.00300000012
v -0.06147686 0.0526626873 -0.00300000012
v -0.06147686 0.0526626873 0.00300000012
v -0.0614479589 0.052993021 -0.00300000012
v -0.0614479589 0.052993021 0.00300000012
v -0.0614291906 0.0531577587 -0.00300000012
v -0.0614291906 0.0531577587 0.00300000012
v -0.0613830376 0.0534861279 -0.00300000012
v -0.0613830376 0.0534861279 0.00300000012
v -0.0613556719 0.0536496592 -0.00300000012
v -0.0613556719 0.0536496592 0.00300000012
v -0.0612924004 0.0539751625 -0.00300000012
v -0.0612924004 0.0539751625 0.00300000012
v -0.0612565136 0.0541370344 -0.00300000012
v -0.0612565136 0.0541370344 0.00300000012
v -0.0610848951 0.0492224693 -0.00300000012
v -0.0610848951 0.0492224693 0.00300000012
v -0.0611319876 0.0493814468 -0.00300000012
v -0.0611319876 0.0493814468 0.00300000012
v -0.0612178087 0.0497017431 -0.00300000012
v -0.0612178087 0.0497017431 0.00300000012
v -0.0611762953 0.0544587803 -0.00300000012
v -0.0611762953 0.0544587803 0.00300000012
v -0.0611319876 0.0546185541 -0.00300000012
v -0.0611319876 0.0546185541 0.00300000012
v -0.061035037 0.0549356604 -0.00300000012
v -0.061035037 0.0549356604 0.00300000012
v -0.0608082485 0.0484412384 -0.00300000012
v -0.0608082485 0.0484412384 0.00300000012
v -0.0608690119 0.0485955048 -0.00300000012
v -0.0608690119 0.0485955048 0.00300000012
v -0.0609824276 0.0489071035 -0.00300000012
v -0.0609824276 0.0489071035 0.00300000012
v -0.0609270811 0.0552491903 -0.00300000012
v -0.0609270811 0.0552491903 0.00300000012
v -0.0608690119 0.0554044962 -0.00300000012
v -0.0608690119 0.0554044962 0.00300000012
v -0.0608082485 0.0555587626 -0.00300000012
v -0.0608082485 0.0555587626 0.00300000012
v -0.0606099224 0.0479851246 -0.00300000012
v -0.0606099224 0.0479851246 0.00300000012
v -0.0606786823 0.0481360006 -0.00300000012
v -0.0606786823 0.0481360006 0.00300000012
v -0.0607447958 0.0482880545 -0.00300000012
v -0.0607447958 0.0482880545 0.00300000012
v -0.0607447958 0.0557119465 -0.00300000012
v -0.0607447958 0.0557119465 0.00300000012
v -0.0606786823 0.0558640003 -0.00300000012
v -0.0606786823 0.0558640003 0.00300000012
v -0.0605385447 0.0561645269 -0.00300000012
v -0.0605385447 0.0561645269 0.00300000012
v -0.0603088856 0.047394309 -0.00300000012
v -0.0603088856 0.047394309 0.00300000012
v -0.0604645634 0.0476870918 -0.00300000012
v -0.0604645634 0.0476870918 0.00300000012
v -0.0603880024 0.05645998 -0.00300000012
v -0.0603880024 0.05645998 0.00300000012
v -0.0603088856 0.0566056919 -0.00300000012
v -0.0603088856 0.0566056919 0.00300000012
v -0.0600564575 0.046965766 -0.00300000012
v -0.0600564575 0.046965766 0.00300000012
v -0.0602272415 0.047249999 -0.00300000012
v -0.0602272415 0.047249999 0.00300000012
v -0.0601430893 0.0568928623 -0.00300000012
v -0.0601430893 0.0568928623 0.00300000012
v -0.0600564575 0.057034235 -0.00300000012
v -0.0600564575 0.057034235 0.00300000012
v -0.0598758554 0.0466876698 -0.00300000012
v -0.0598758554 0.0466876698 0.00300000012
v -0.05996737 0.0468259287 -0.00300000012
v -0.05996737 0.0468259287 0.00300000012
v -0.05996737 0.0571740723 -0.00300000012
v -0.05996737 0.0571740723 0.00300000012
v -0.0597819424 0.0574489784 -0.00300000012
v -0.0597819424 0.0574489784 0.00300000012
v -0.0596856594 0.0464160395 -0.00300000012
v -0.0596856594 0.0464160395 0.00300000012
v -0.0595870352 0.0577172422 -0.00300000012
v -0.0595870352 0.0577172422 0.00300000012
v -0.05927742 0.0458935165 -0.00300000012
v -0.05927742 0.0458935165 0.00300000012
v -0.0594861031 0.0461512136 -0.00300000012
v -0.0594861031 0.0461512136 0.00300000012
v -0.0593828869 0.0579785442 -0.00300000012
v -0.0593828869 0.0579785442 0.00300000012
v -0.05927742 0.0581064844 -0.00300000012
v -0.05927742 0.0581064844 0.00300000012
v -0.0590598774 0.0456432581 -0.00300000012
v -0.0590598774 0.0456432581 0.00300000012
v -0.0591697407 0.0457674408 -0.00300000012
v -0.0591697407 0.0457674408 0.00300000012
v -0.0591697407 0.0582325602 -0.00300000012
v -0.0591697407 0.0582325602 0.00300000012
v -0.0590598774 0.0583567429 -0.00300000012
v -0.0590598774 0.0583567429 0.00300000012
v -0.0588337278 0.0454007435 -0.00300000012
v -0.0588337278 0.0454007435 0.00300000012
v -0.0589478588 0.0455210161 -0.00300000012
v -0.0589478588 0.0455210161 0.00300000012
v -0.0589478588 0.0584789848 -0.00300000012
v -0.0589478588 0.0584789848 0.00300000012
v -0.0588337278 0.0585992527 -0.00300000012
v -0.0588337278 0.0585992527 0.00300000012
v -0.0585992527 0.0451662731 -0.00300000012
v -0.0585992527 0.0451662731 0.00300000012
v -0.0587175131 0.0452824879 -0.00300000012
v -0.0587175131 0.0452824879 0.00300000012
v -0.0587175131 0.0587175131 -0.00300000012
v -0.0587175131 0.0587175131 0.00300000012
v -0.0585992527 0.0588337278 -0.00300000012
v -0.0585992527 0.0588337278 0.00300000012
v -0.0583567429 0.0449401236 -0.00300000012
v -0.0583567429 0.0449401236 0.00300000012
v -0.0584789848 0.0450521421 -0.00300000012
v -0.0584789848 0.0450521421 0.00300000012
v -0.0584789848 0.0589478588 -0.00300000012
v -0.0584789848 0.0589478588 0.00300000012
v -0.0583567429 0.0590598774 -0.00300000012
v -0.0583567429 0.0590598774 0.00300000012
v -0.0581064844 0.0447225761 -0.00300000012
v -0.0581064844 0.0447225761 0.00300000012
v -0.0582325602 0.0448302603 -0.00300000012
v -0.0582325602 0.0448302603 0.00300000012
v -0.0582325602 0.0591697407 -0.00300000012
v -0.0582325602 0.0591697407 0.00300000012
v -0.0581064844 0.05927742 -0.00300000012
v -0.0581064844 0.05927742 0.00300000012
v -0.0579785442 0.0446171141 -0.00300000012
v -0.0579785442 0.0446171141 0.00300000012
v -0.0578487825 0.0594861031 -0.00300000012
v -0.0578487825 0.0594861031 0.00300000012
v -0.0577172422 0.044412961 -0.00300000012
v -0.0577172422 0.044412961 0.00300000012
v -0.0575839615 0.0596856594 -0.00300000012
v -0.0575839615 0.0596856594 0.00300000012
v -0.0574489784 0.0442180538 -0.00300000012
v -0.0574489784 0.0442180538 0.00300000012
v -0.0573123312 0.0598758554 -0.00300000012
v -0.0573123312 0.0598758554 0.00300000012
v -0.057034235 0.0439435434 -0.00300000012
v -0.057034235 0.0439435434 0.00300000012
v -0.0571740723 0.0440326309 -0.00300000012
v -0.0571740723 0.0440326309 0.00300000012
v -0.0571740723 0.05996737 -0.00300000012
v -0.0571740723 0.05996737 0.00300000012
v -0.057034235 0.0600564575 -0.00300000012
v -0.057034235 0.0600564575 0.00300000012
v -0.0568928623 0.0438569117 -0.00300000012
v -0.0568928623 0.0438569117 0.00300000012
v -0.0567500019 0.0602272415 -0.00300000012
v -0.0567500019 0.0602272415 0.00300000012
v -0.0566056919 0.0436911106 -0.00300000012
v -0.0566056919 0.0436911106 0.00300000012
v -0.0566056919 0.0603088856 -0.00300000012
v -0.0566056919 0.0603088856 0.00300000012
v -0.05645998 0.0436119986 -0.00300000012
v -0.05645998 0.0436119986 0.00300000012
v -0.0563129091 0.0604645634 -0.00300000012
v -0.0563129091 0.0604645634 0.00300000012
v -0.0561645269 0.0434614563 -0.00300000012
v -0.0561645269 0.0434614563 0.00300000012
v -0.0560148716 0.0606099224 -0.00300000012
v -0.0560148716 0.0606099224 0.00300000012
v -0.0558640003 0.0433213186 -0.00300000012
v -0.0558640003 0.0433213186 0.00300000012
v -0.0558640003 0.0606786823 -0.00300000012
v -0.0558640003 0.0606786823 0.00300000012
v -0.0555587626 0.0431917524 -0.00300000012
v -0.0555587626 0.0431917524 0.00300000012
v -0.0557119465 0.0432552052 -0.00300000012
v -0.0557119465 0.0432552052 0.00300000012
v -0.0557119465 0.0607447958 -0.00300000012
v -0.0557119465 0.0607447958 0.00300000012
v -0.0555587626 0.0608082485 -0.00300000012
v -0.0555587626 0.0608082485 0.00300000012
v -0.0554044962 0.0431309843 -0.00300000012
v -0.0554044962 0.0431309843 0.00300000012
v -0.0554044962 0.0608690119 -0.00300000012
v -0.0554044962 0.0608690119 0.00300000012
v -0.0552491903 0.0430729198 -0.00300000012
v -0.0552491903 0.0430729198 0.00300000012
v -0.0550928974 0.0609824276 -0.00300000012
v -0.0550928974 0.0609824276 0.00300000012
v -0.0549356604 0.0429649639 -0.00300000012
v -0.0549356604 0.0429649639 0.00300000012
v -0.0547615147 0.0508278084 -0.00300000012
v -0.0547615147 0.0508278084 0.00300000012
v -0.0548365545 0.0510232973 -0.00300000012
v -0.0548365545 0.0510232973 0.00300000012
v -0.0549108887 0.0512742329 -0.00300000012
v -0.0549108887 0.0512742329 0.00300000012
v -0.0549630642 0.051530695 -0.00300000012
v -0.0549630642 0.051530695 0.00300000012
v -0.0549926901 0.0517907286 -0.00300000012
v -0.0549926901 0.0517907286 0.00300000012
v -0.0549995422 0.0520523596 -0.00300000012
v -0.0549995422 0.0520523596 0.00300000012
v -0.0549885845 0.052261467 -0.00300000012
v -0.0549885845 0.052261467 0.00300000012
v -0.0549544239 0.0525209427 -0.00300000012
v -0.0549544239 0.0525209427 0.00300000012
v -0.0548977757 0.0527764559 -0.00300000012
v -0.0548977757 0.0527764559 0.00300000012
v -0.0548190784 0.0530260611 -0.00300000012
v -0.0548190784 0.0530260611 0.00300000012
v -0.0547775316 0.0610848951 -0.00300000012
v -0.0547775316 0.0610848951 0.00300000012
v -0.0546185541 0.0428680134 -0.00300000012
v -0.0546185541 0.0428680134 0.00300000012
v -0.0545160103 0.0503660822 -0.00300000012
v -0.0545160103 0.0503660822 0.00300000012
v -0.054598074 0.0505000019 -0.00300000012
v -0.054598074 0.0505000019 0.00300000012
v -0.0547406387 0.0507797909 -0.00300000012
v -0.0547406387 0.0507797909 0.00300000012
v -0.0547406387 0.0532202101 -0.00300000012
v -0.0547406387 0.0532202101 0.00300000012
v -0.0547189236 0.0532678556 -0.00300000012
v -0.0547189236 0.0532678556 0.00300000012
v -0.0545714998 0.0535451126 -0.00300000012
v -0.0545714998 0.0535451126 0.00300000012
v -0.0546185541 0.0611319876 -0.00300000012
v -0.0546185541 0.0611319876 0.00300000012
v -0.0544587803 0.0428237057 -0.00300000012
v -0.0544587803 0.0428237057 0.00300000012
v -0.0542641306 0.0500318241 -0.00300000012
v -0.0542641306 0.0500318241 0.00300000012
v -0.0544574547 0.0502792692 -0.00300000012
v -0.0544574547 0.0502792692 0.00300000012
v -0.054487114 0.053677578 -0.00300000012
v -0.054487114 0.053677578 0.00300000012
v -0.0544270515 0.0537633562 -0.00300000012
v -0.0544270515 0.0537633562 0.00300000012
v -0.0542982578 0.0612178087 -0.00300000012
v -0.0542982578 0.0612178087 0.00300000012
v -0.0541370344 0.0427434826 -0.00300000012
v -0.0541370344 0.0427434826 0.00300000012
v -0.0540073919 0.049770565 -0.00300000012
v -0.0540073919 0.049770565 0.00300000012
v -0.0542294359 0.0540073919 -0.00300000012
v -0.0542294359 0.0540073919 0.00300000012
v -0.0541370344 0.0612565136 -0.00300000012
v -0.0541370344 0.0612565136 0.00300000012
v -0.0539751625 0.0427075958 -0.00300000012
v -0.0539751625 0.0427075958 0.00300000012
v -0.0537633562 0.0495729494 -0.00300000012
v -0.0537633562 0.0495729494 0.00300000012
v -0.0539681768 0.0542641306 -0.00300000012
v -0.0539681768 0.0542641306 0.00300000012
v -0.053812685 0.0613254595 -0.00300000012
v -0.053812685 0.0613254595 0.00300000012
v -0.0536496592 0.0426443243 -0.00300000012
v -0.0536496592 0.0426443243 0.00300000012
v -0.0535451126 0.0494284964 -0.00300000012
v -0.0535451126 0.0494284964 0.00300000012
v -0.053677578 0.049512887 -0.00300000012
v -0.053677578 0.049512887 0.00300000012
v -0.053720727 0.0544574547 -0.00300000012
v -0.053720727 0.0544574547 0.00300000012
v -0.0536339188 0.0545160103 -0.00300000012
v -0.0536339188 0.0545160103 0.00300000012
v -0.0536496592 0.0613556719 -0.00300000012
v -0.0536496592 0.0613556719 0.00300000012
v -0.0534861279 0.0426169586 -0.00300000012
v -0.0534861279 0.0426169586 0.00300000012
v -0.0532678556 0.0492810774 -0.00300000012
v -0.0532678556 0.0492810774 0.00300000012
v -0.053499999 0.054598074 -0.00300000012
v -0.053499999 0.054598074 0.00300000012
v -0.0533221436 0.061407547 -0.00300000012
v -0.0533221436 0.061407547 0.00300000012
v -0.0531577587 0.0425708103 -0.00300000012
v -0.0531577587 0.0425708103 0.00300000012
v -0.0530260611 0.0491809225 -0.00300000012
v -0.0530260611 0.0491809225 0.00300000012
v -0.0532202101 0.0492593622 -0.00300000012
v -0.0532202101 0.0492593622 0.00300000012
v -0.0532202101 0.0547406387 -0.00300000012
v -0.0532202101 0.0547406387 0.00300000012
v -0.0531721926 0.0547615147 -0.00300000012
v -0.0531721926 0.0547615147 0.00300000012
v -0.0531577587 0.0614291906 -0.00300000012
v -0.0531577587 0.0614291906 0.00300000012
v -0.052993021 0.042552042 -0.00300000012
v -0.052993021 0.042552042 0.00300000012
v -0.0527764559 0.0491022205 -0.00300000012
v -0.0527764559 0.0491022205 0.00300000012
v -0.0529767036 0.0548365545 -0.00300000012
v -0.0529767036 0.0548365545 0.00300000012
v -0.0528279781 0.0614638519 -0.00300000012
v -0.0528279781 0.0614638519 0.00300000012
v -0.0526626873 0.0425231409 -0.00300000012
v -0.0526626873 0.0425231409 0.00300000012
v -0.0525209427 0.049045577 -0.00300000012
v -0.0525209427 0.049045577 0.00300000012
v -0.0527257633 0.0549108887 -0.00300000012
v -0.0527257633 0.0549108887 0.00300000012
v -0.0526626873 0.06147686 -0.00300000012
v -0.0526626873 0.06147686 0.00300000012
v -0.0524971914 0.0425130177 -0.00300000012
v -0.0524971914 0.0425130177 0.00300000012
v -0.052261467 0.0490114164 -0.00300000012
v -0.052261467 0.0490114164 0.00300000012
v -0.0524693012 0.0549630642 -0.00300000012
v -0.0524693012 0.0549630642 0.00300000012
v -0.052331543 0.0614942122 -0.00300000012
v -0.052331543 0.0614942122 0.00300000012
v -0.0521657991 0.0425014448 -0.00300000012
v -0.0521657991 0.0425014448 0.00300000012
v -0.0520523596 0.0490004587 -0.00300000012
v -0.0520523596 0.0490004587 0.00300000012
v -0.0522092676 0.0549926901 -0.00300000012
v -0.0522092676 0.0549926901 0.00300000012
v -0.0521657991 0.0614985514 -0.00300000012
v -0.0521657991 0.0614985514 0.00300000012
v -0.0519999981 0.0425 -0.00300000012
v -0.0519999981 0.0425 0.00300000012
v -0.0517907286 0.0490073061 -0.00300000012
v -0.0517907286 0.0490073061 0.00300000012
v -0.0519476414 0.0549995422 -0.00300000012
v -0.0519476414 0.0549995422 0.00300000012
v -0.0519999981 0.055 -0.00300000012
v -0.0519999981 0.055 0.00300000012
v -0.0518342018 0.0614985514 -0.00300000012
v -0.0518342018 0.0614985514 0.00300000012
v -0.0519999981 0.061500001 -0.00300000012
v -0.0519999981 0.061500001 0.00300000012
v -0.0516684532 0.0425057888 -0.00300000012
v -0.0516684532 0.0425057888 0.00300000012
v -0.051530695 0.0490369368 -0.00300000012
v -0.051530695 0.0490369368 0.00300000012
v -0.051738534 0.0549885845 -0.00300000012
v -0.051738534 0.0549885845 0.00300000012
v -0.0515028095 0.0614869785 -0.00300000012
v -0.0515028095 0.0614869785 0.00300000012
v -0.0513373137 0.0425231409 -0.00300000012
v -0.0513373137 0.0425231409 0.00300000012
v -0.0512742329 0.0490891123 -0.00300000012
v -0.0512742329 0.0490891123 0.00300000012
v -0.0514790535 0.0549544239 -0.00300000012
v -0.0514790535 0.0549544239 0.00300000012
v -0.0513373137 0.06147686 -0.00300000012
v -0.0513373137 0.06147686 0.00300000012
v -0.0511720228 0.042536149 -0.00300000012
v -0.0511720228 0.042536149 0.00300000012
v -0.0510232973 0.0491634464 -0.00300000012
v -0.0510232973 0.0491634464 0.00300000012
v -0.0512235451 0.0548977757 -0.00300000012
v -0.0512235451 0.0548977757 0.00300000012
v -0.0510069799 0.0614479589 -0.00300000012
v -0.0510069799 0.0614479589 0.00300000012
v -0.0508422422 0.0425708103 -0.00300000012
v -0.0508422422 0.0425708103 0.00300000012
v -0.0508278084 0.0492384863 -0.00300000012
v -0.0508278084 0.0492384863 0.00300000012
v -0.0507797909 0.0492593622 -0.00300000012
v -0.0507797909 0.0492593622 0.00300000012
v -0.0507797909 0.0547406387 -0.00300000012
v -0.0507797909 0.0547406387 0.00300000012
v -0.0509739399 0.0548190784 -0.00300000012
v -0.0509739399 0.0548190784 0.00300000012
v -0.0508422422 0.0614291906 -0.00300000012
v -0.0508422422 0.0614291906 0.00300000012
v -0.0506778574 0.042592454 -0.00300000012
v -0.0506778574 0.042592454 0.00300000012
v -0.0505000019 0.0494019222 -0.00300000012
v -0.0505000019 0.0494019222 0.00300000012
v -0.0507321453 0.0547189236 -0.00300000012
v -0.0507321453 0.0547189236 0.00300000012
v -0.0505138731 0.0613830376 -0.00300000012
v -0.0505138731 0.0613830376 0.00300000012
v -0.0503503418 0.0426443243 -0.00300000012
v -0.0503503418 0.0426443243 0.00300000012
v -0.0503660822 0.0494839907 -0.00300000012
v -0.0503660822 0.0494839907 0.00300000012
v -0.0502792692 0.0495425415 -0.00300000012
v -0.0502792692 0.0495425415 0.00300000012
v -0.050322423 0.054487114 -0.00300000012
v -0.050322423 0.054487114 0.00300000012
v -0.0504548836 0.0545714998 -0.00300000012
v -0.0504548836 0.0545714998 0.00300000012
v -0.0503503418 0.0613556719 -0.00300000012
v -0.0503503418 0.0613556719 0.00300000012
v -0.0501873159 0.0426745415 -0.00300000012
v -0.0501873159 0.0426745415 0.00300000012
v -0.0500318241 0.0497358704 -0.00300000012
v -0.0500318241 0.0497358704 0.00300000012
v -0.0502366447 0.0544270515 -0.00300000012
v -0.0502366447 0.0544270515 0.00300000012
v -0.0500248384 0.0612924004 -0.00300000012
v -0.0500248384 0.0612924004 0.00300000012
v -0.0498629665 0.0427434826 -0.00300000012
v -0.0498629665 0.0427434826 0.00300000012
v -0.0498786783 0.0498786783 -0.00300000012
v -0.0498786783 0.0498786783 0.00300000012
v -0.049992609 0.0542294359 -0.00300000012
v -0.049992609 0.0542294359 0.00300000012
v -0.0498629665 0.0612565136 -0.00300000012
v -0.0498629665 0.0612565136 0.00300000012
v -0.0497017431 0.0427821922 -0.00300000012
v -0.0497017431 0.0427821922 0.00300000012
v -0.0495729494 0.0502366447 -0.00300000012
v -0.0495729494 0.0502366447 0.00300000012
v -0.049512887 0.050322423 -0.00300000012
v -0.049512887 0.050322423 0.00300000012
v -0.0495425415 0.053720727 -0.00300000012
v -0.0495425415 0.053720727 0.00300000012
v -0.0497358704 0.0539681768 -0.00300000012
v -0.0497358704 0.0539681768 0.00300000012
v -0.0495412207 0.0611762953 -0.00300000012
v -0.0495412207 0.0611762953 0.00300000012
v -0.0493814468 0.0428680134 -0.00300000012
v -0.0493814468 0.0428680134 0.00300000012
v -0.0494284964 0.0504548836 -0.00300000012
v -0.0494284964 0.0504548836 0.00300000012
v -0.0492810774 0.0507321453 -0.00300000012
v -0.0492810774 0.0507321453 0.00300000012
v -0.0492593622 0.0507797909 -0.00300000012
v -0.0492593622 0.0507797909 0.00300000012
v -0.0492593622 0.0532202101 -0.00300000012
v -0.0492593622 0.0532202101 0.00300000012
v -0.0494019222 0.053499999 -0.00300000012
v -0.0494019222 0.053499999 0.00300000012
v -0.0494839907 0.0536339188 -0.00300000012
v -0.0494839907 0.0536339188 0.00300000012
v -0.0493814468 0.0611319876 -0.00300000012
v -0.0493814468 0.0611319876 0.00300000012
v -0.0492224693 0.0429151058 -0.00300000012
v -0.0492224693 0.0429151058 0.00300000012
v -0.0491809225 0.0509739399 -0.00300000012
v -0.0491809225 0.0509739399 0.00300000012
v -0.0491022205 0.0512235451 -0.00300000012
v -0.0491022205 0.0512235451 0.00300000012
v -0.049045577 0.0514790535 -0.00300000012
v -0.049045577 0.0514790535 0.00300000012
v -0.0490114164 0.051738534 -0.00300000012
v -0.0490114164 0.051738534 0.00300000012
v -0.049000001 0.0519999981 -0.00300000012
v -0.049000001 0.0519999981 0.00300000012
v -0.0490073061 0.0522092676 -0.00300000012
v -0.0490073061 0.0522092676 0.00300000012
v -0.0490369368 0.0524693012 -0.00300000012
v -0.0490369368 0.0524693012 0.00300000012
v -0.0490891123 0.0527257633 -0.00300000012
v -0.0490891123 0.0527257633 0.00300000012
v -0.0491634464 0.0529767036 -0.00300000012
v -0.0491634464 0.0529767036 0.00300000012
v -0.0492384863 0.0531721926 -0.00300000012
v -0.0492384863 0.0531721926 0.00300000012
v -0.0490643406 0.061035037 -0.00300000012
v -0.0490643406 0.061035037 0.00300000012
v -0.0489071035 0.0430175734 -0.00300000012
v -0.0489071035 0.0430175734 0.00300000012
v -0.0487508106 0.0609270811 -0.00300000012
v -0.0487508106 0.0609270811 0.00300000012
v -0.0485955048 0.0431309843 -0.00300000012
v -0.0485955048 0.0431309843 0.00300000012
v -0.0485955048 0.0608690119 -0.00300000012
v -0.0485955048 0.0608690119 0.00300000012
v -0.0484412384 0.0431917524 -0.00300000012
v -0.0484412384 0.0431917524 0.00300000012
v -0.0482880545 0.0432552052 -0.00300000012
v -0.0482880545 0.0432552052 0.00300000012
v -0.0482880545 0.0607447958 -0.00300000012
v -0.0482880545 0.0607447958 0.00300000012
v -0.0484412384 0.0608082485 -0.00300000012
v -0.0484412384 0.0608082485 0.00300000012
v -0.0481360006 0.0433213186 -0.00300000012
v -0.0481360006 0.0433213186 0.00300000012
v -0.0481360006 0.0606786823 -0.00300000012
v -0.0481360006 0.0606786823 0.00300000012
v -0.0479851246 0.0433900738 -0.00300000012
v -0.0479851246 0.0433900738 0.00300000012
v -0.047835474 0.0605385447 -0.00300000012
v -0.047835474 0.0605385447 0.00300000012
v -0.0476870918 0.0435354376 -0.00300000012
v -0.0476870918 0.0435354376 0.00300000012
v -0.0475400209 0.0603880024 -0.00300000012
v -0.0475400209 0.0603880024 0.00300000012
v -0.047394309 0.0436911106 -0.00300000012
v -0.047394309 0.0436911106 0.00300000012
v -0.047394309 0.0603088856 -0.00300000012
v -0.047394309 0.0603088856 0.00300000012
v -0.047249999 0.0437727594 -0.00300000012
v -0.047249999 0.0437727594 0.00300000012
v -0.0471071386 0.0601430893 -0.00300000012
v -0.0471071386 0.0601430893 0.00300000012
v -0.046965766 0.0439435434 -0.00300000012
v -0.046965766 0.0439435434 0.00300000012
v -0.0468259287 0.0440326309 -0.00300000012
v -0.0468259287 0.0440326309 0.00300000012
v -0.0468259287 0.05996737 -0.00300000012
v -0.0468259287 0.05996737 0.00300000012
v -0.046965766 0.0600564575 -0.00300000012
v -0.046965766 0.0600564575 0.00300000012
v -0.0466876698 0.0441241407 -0.00300000012
v -0.0466876698 0.0441241407 0.00300000012
v -0.0465510225 0.0597819424 -0.00300000012
v -0.0465510225 0.0597819424 0.00300000012
v -0.0464160395 0.0443143368 -0.00300000012
v -0.0464160395 0.0443143368 0.00300000012
v -0.0462827587 0.0595870352 -0.00300000012
v -0.0462827587 0.0595870352 0.00300000012
v -0.0461512136 0.0445138979 -0.00300000012
v -0.0461512136 0.0445138979 0.00300000012
v -0.0460214567 0.0593828869 -0.00300000012
v -0.0460214567 0.0593828869 0.00300000012
v -0.0458935165 0.0447225761 -0.00300000012
v -0.0458935165 0.0447225761 0.00300000012
v -0.0457674408 0.0448302603 -0.00300000012
v -0.0457674408 0.0448302603 0.00300000012
v -0.0457674408 0.0591697407 -0.00300000012
v -0.0457674408 0.0591697407 0.00300000012
v -0.0458935165 0.05927742 -0.00300000012
v -0.0458935165 0.05927742 0.00300000012
v -0.0456432581 0.0449401236 -0.00300000012
v -0.0456432581 0.0449401236 0.00300000012
v -0.0455210161 0.0450521421 -0.00300000012
v -0.0455210161 0.0450521421 0.00300000012
v -0.0455210161 0.0589478588 -0.00300000012
v -0.0455210161 0.0589478588 0.00300000012
v -0.0456432581 0.0590598774 -0.00300000012
v -0.0456432581 0.0590598774 0.00300000012
v -0.0454007435 0.0451662731 -0.00300000012
v -0.0454007435 0.0451662731 0.00300000012
v -0.0452824879 0.0452824879 -0.00300000012
v -0.0452824879 0.0452824879 0.00300000012
v -0.0452824879 0.0587175131 -0.00300000012
v -0.0452824879 0.0587175131 0.00300000012
v -0.0454007435 0.0588337278 -0.00300000012
v -0.0454007435 0.0588337278 0.00300000012
v -0.0451662731 0.0454007435 -0.00300000012
v -0.0451662731 0.0454007435 0.00300000012
v -0.0450521421 0.0455210161 -0.00300000012
v -0.0450521421 0.0455210161 0.00300000012
v -0.0450521421 0.0584789848 -0.00300000012
v -0.0450521421 0.0584789848 0.00300000012
v -0.0451662731 0.0585992527 -0.00300000012
v -0.0451662731 0.0585992527 0.00300000012
v -0.0449401236 0.0456432581 -0.00300000012
v -0.0449401236 0.0456432581 0.00300000012
v -0.0448302603 0.0457674408 -0.00300000012
v -0.0448302603 0.0457674408 0.00300000012
v -0.0448302603 0.0582325602 -0.00300000012
v -0.0448302603 0.0582325602 0.00300000012
v -0.0449401236 0.0583567429 -0.00300000012
v -0.0449401236 0.0583567429 0.00300000012
v -0.0447225761 0.0458935165 -0.00300000012
v -0.0447225761 0.0458935165 0.00300000012
v -0.0446171141 0.0460214567 -0.00300000012
v -0.0446171141 0.0460214567 0.00300000012
v -0.0445138979 0.0578487825 -0.00300000012
v -0.0445138979 0.0578487825 0.00300000012
v -0.0447225761 0.0581064844 -0.00300000012
v -0.0447225761 0.0581064844 0.00300000012
v -0.044412961 0.0462827587 -0.00300000012
v -0.044412961 0.0462827587 0.00300000012
v -0.0443143368 0.0575839615 -0.00300000012
v -0.0443143368 0.0575839615 0.00300000012
v -0.0442180538 0.0465510225 -0.00300000012
v -0.0442180538 0.0465510225 0.00300000012
v -0.0440326309 0.0468259287 -0.00300000012
v -0.0440326309 0.0468259287 0.00300000012
v -0.0440326309 0.0571740723 -0.00300000012
v -0.0440326309 0.0571740723 0.00300000012
v -0.0441241407 0.0573123312 -0.00300000012
v -0.0441241407 0.0573123312 0.00300000012
v -0.0439435434 0.046965766 -0.00300000012
v -0.0439435434 0.046965766 0.00300000012
v -0.0438569117 0.0471071386 -0.00300000012
v -0.0438569117 0.0471071386 0.00300000012
v -0.0437727594 0.0567500019 -0.00300000012
v -0.0437727594 0.0567500019 0.00300000012
v -0.0439435434 0.057034235 -0.00300000012
v -0.0439435434 0.057034235 0.00300000012
v -0.0436911106 0.047394309 -0.00300000012
v -0.0436911106 0.047394309 0.00300000012
v -0.0436119986 0.0475400209 -0.00300000012
v -0.0436119986 0.0475400209 0.00300000012
v -0.0435354376 0.0563129091 -0.00300000012
v -0.0435354376 0.0563129091 0.00300000012
v -0.0436911106 0.0566056919 -0.00300000012
v -0.0436911106 0.0566056919 0.00300000012
v -0.0434614563 0.047835474 -0.00300000012
v -0.0434614563 0.047835474 0.00300000012
v -0.0433213186 0.0481360006 -0.00300000012
v -0.0433213186 0.0481360006 0.00300000012
v -0.0432552052 0.0482880545 -0.00300000012
v -0.0432552052 0.0482880545 0.00300000012
v -0.0432552052 0.0557119465 -0.00300000012
v -0.0432552052 0.0557119465 0.00300000012
v -0.0433213186 0.0558640003 -0.00300000012
v -0.0433213186 0.0558640003 0.00300000012
v -0.0433900738 0.0560148716 -0.00300000012
v -0.0433900738 0.0560148716 0.00300000012
v -0.0431917524 0.0484412384 -0.00300000012
v -0.0431917524 0.0484412384 0.00300000012
v -0.0431309843 0.0485955048 -0.00300000012
v -0.0431309843 0.0485955048 0.00300000012
v -0.0430729198 0.0487508106 -0.00300000012
v -0.0430729198 0.0487508106 0.00300000012
v -0.0430175734 0.0550928974 -0.00300000012
v -0.0430175734 0.0550928974 0.00300000012
v -0.0431309843 0.0554044962 -0.00300000012
v -0.0431309843 0.0554044962 0.00300000012
v -0.0431917524 0.0555587626 -0.00300000012
v -0.0431917524 0.0555587626 0.00300000012
v -0.0429649639 0.0490643406 -0.00300000012
v -0.0429649639 0.0490643406 0.00300000012
v -0.0428680134 0.0493814468 -0.00300000012
v -0.0428680134 0.0493814468 0.00300000012
v -0.0428237057 0.0495412207 -0.00300000012
v -0.0428237057 0.0495412207 0.00300000012
v -0.0427821922 0.0542982578 -0.00300000012
v -0.0427821922 0.0542982578 0.00300000012
v -0.0428680134 0.0546185541 -0.00300000012
v -0.0428680134 0.0546185541 0.00300000012
v -0.0429151058 0.0547775316 -0.00300000012
v -0.0429151058 0.0547775316 0.00300000012
v -0.0427434826 0.0498629665 -0.00300000012
v -0.0427434826 0.0498629665 0.00300000012
v -0.0427075958 0.0500248384 -0.00300000012
v -0.0427075958 0.0500248384 0.00300000012
v -0.0426443243 0.0503503418 -0.00300000012
v -0.0426443243 0.0503503418 0.00300000012
v -0.0426169586 0.0505138731 -0.00300000012
v -0.0426169586 0.0505138731 0.00300000012
v -0.0425708103 0.0508422422 -0.00300000012
v -0.0425708103 0.0508422422 0.00300000012
v -0.042552042 0.0510069799 -0.00300000012
v -0.042552042 0.0510069799 0.00300000012
v -0.0425231409 0.0513373137 -0.00300000012
v -0.0425231409 0.0513373137 0.00300000012
v -0.0425130177 0.0515028095 -0.00300000012
v -0.0425130177 0.0515028095 0.00300000012
v -0.0425014448 0.0518342018 -0.00300000012
v -0.0425014448 0.0518342018 0.00300000012
v -0.0425014448 0.0521657991 -0.00300000012
v -0.0425014448 0.0521657991 0.00300000012
v -0.0425057888 0.052331543 -0.00300000012
v -0.0425057888 0.052331543 0.00300000012
v -0.0425231409 0.0526626873 -0.00300000012
v -0.0425231409 0.0526626873 0.00300000012
v -0.042536149 0.0528279781 -0.00300000012
v -0.042536149 0.0528279781 0.00300000012
v -0.0425708103 0.0531577587 -0.00300000012
v -0.0425708103 0.0531577587 0.00300000012
v -0.042592454 0.0533221436 -0.00300000012
v -0.042592454 0.0533221436 0.00300000012
v -0.0426443243 0.0536496592 -0.00300000012
v -0.0426443243 0.0536496592 0.00300000012
v -0.0426745415 0.053812685 -0.00300000012
v -0.0426745415 0.053812685 0.00300000012
v -0.0427434826 0.0541370344 -0.00300000012
v -0.0427434826 0.0541370344 0.00300000012
v -0.0425 0.0519999981 -0.00300000012
v -0.0425 0.0519999981 0.00300000012
f 1 20 2
f 1 2 21
f 19 20 1
f 1 339 19
f 21 339 1
f 20 218 2
f 21 2 22
f 2 218 22
f 3 4 5
f 3 44 4
f 5 267 3
f 43 44 3
f 3 259 43
f 3 267 259
f 5 4 6
f 4 214 6
f 44 214 4
f 5 6 7
f 7 275 5
f 5 275 267
f 7 6 8
f 6 214 8
f 7 8 9
f 9 287 7
f 7 287 275
f 9 8 10
f 8 214 10
f 9 10 11
f 11 295 9
f 9 295 287
f 11 10 12
f 10 216 12
f 10 214 216
f 11 12 13
f 13 307 11
f 11 307 295
f 13 12 14
f 12 216 14
f 13 14 15
f 15 315 13
f 13 315 307
f 15 14 16
f 14 216 16
f 15 16 17
f 17 323 15
f 15 323 315
f 17 16 18
f 16 218 18
f 16 216 218
f 17 18 19
f 19 331 17
f 17 331 323
f 19 18 20
f 18 218 20
f 19 339 331
f 21 22 23
f 23 351 21
f 21 351 339
f 23 22 24
f 22 220 24
f 22 218 220
f 23 24 25
f 25 359 23
f 23 359 351
f 25 24 26
f 24 220 26
f 25 26 27
f 27 367 25
f 25 367 359
f 27 26 28
f 26 220 28
f 27 28 29
f 29 375 27
f 27 375 367
f 29 28 30
f 28 222 30
f 28 220 222
f 29 30 31
f 31 387 29
f 29 387 375
f 31 30 32
f 30 222 32
f 31 32 33
f 33 395 31
f 31 395 387
f 33 32 34
f 32 222 34
f 33 34 35
f 35 407 33
f 33 407 395
f 35 34 36
f 34 222 36
f 35 36 37
f 37 415 35
f 35 415 407
f 37 36 38
f 36 222 38
f 37 38 45
f 45 423 37
f 37 423 415
f 45 38 46
f 38 222 46
f 39 40 41
f 39 56 40
f 41 231 39
f 55 56 39
f 39 207 55
f 39 231 207
f 41 40 42
f 40 212 42
f 56 212 40
f 41 42 43
f 43 247 41
f 41 247 231
f 43 42 44
f 42 212 44
f 43 259 247
f 44 212 214
f 45 46 47
f 47 435 45
f 45 435 423
f 47 46 48
f 46 222 48
f 47 48 49
f 49 451 47
f 47 451 435
f 49 48 50
f 48 222 50
f 49 50 57
f 57 475 49
f 49 475 451
f 57 50 58
f 50 222 58
f 51 52 53
f 51 68 52
f 53 199 51
f 67 68 51
f 51 191 67
f 51 199 191
f 53 52 54
f 52 210 54
f 68 210 52
f 53 54 55
f 55 203 53
f 53 203 199
f 55 54 56
f 54 210 56
f 55 207 203
f 56 210 212
f 57 58 59
f 59 479 57
f 57 479 475
f 59 58 60
f 58 224 60
f 58 222 224
f 59 60 61
f 61 483 59
f 59 483 479
f 61 60 62
f 60 224 62
f 61 62 69
f 69 485 61
f 61 485 483
f 69 62 70
f 62 224 70
f 63 64 65
f 63 78 64
f 65 187 63
f 77 78 63
f 63 183 77
f 63 187 183
f 65 64 66
f 64 236 66
f 78 236 64
f 65 66 67
f 67 193 65
f 65 193 187
f 67 66 68
f 66 238 68
f 66 236 238
f 67 191 193
f 68 238 210
f 69 70 71
f 71 491 69
f 69 491 485
f 71 70 72
f 70 224 72
f 71 72 73
f 73 495 71
f 71 495 491
f 73 72 74
f 72 224 74
f 73 74 79
f 241 73 79
f 209 73 211
f 237 73 209
f 211 73 213
f 213 73 215
f 215 73 217
f 217 73 219
f 219 73 221
f 221 73 223
f 223 73 225
f 225 73 227
f 227 73 239
f 233 73 235
f 251 73 233
f 235 73 237
f 239 73 241
f 249 73 251
f 261 73 249
f 261 499 73
f 499 495 73
f 79 74 80
f 74 224 80
f 75 76 77
f 75 86 76
f 77 179 75
f 85 86 75
f 75 175 85
f 75 179 175
f 77 76 78
f 76 236 78
f 86 236 76
f 77 183 179
f 79 80 81
f 241 79 81
f 81 80 82
f 80 224 82
f 81 82 87
f 241 81 87
f 87 82 88
f 82 224 88
f 83 84 85
f 83 94 84
f 85 171 83
f 93 94 83
f 83 163 93
f 83 171 163
f 85 84 86
f 84 234 86
f 94 234 84
f 85 175 171
f 86 234 236
f 87 88 89
f 243 87 89
f 241 87 243
f 89 88 90
f 88 224 90
f 89 90 95
f 243 89 95
f 95 90 96
f 90 224 96
f 91 92 93
f 91 100 92
f 93 165 91
f 99 100 91
f 91 159 99
f 91 165 159
f 93 92 94
f 92 252 94
f 100 250 92
f 92 250 252
f 93 163 165
f 94 252 234
f 95 96 97
f 243 95 97
f 97 96 98
f 96 224 98
f 97 98 101
f 253 97 101
f 243 97 253
f 101 98 102
f 98 224 102
f 99 106 100
f 105 106 99
f 99 155 105
f 99 159 155
f 106 250 100
f 101 102 107
f 255 101 107
f 253 101 255
f 107 102 108
f 102 226 108
f 224 226 102
f 103 104 105
f 103 114 104
f 105 151 103
f 113 114 103
f 103 143 113
f 103 151 143
f 105 104 106
f 104 250 106
f 114 250 104
f 105 155 151
f 107 108 109
f 255 107 109
f 109 108 110
f 108 242 110
f 108 226 228
f 108 228 240
f 108 240 242
f 109 110 115
f 255 109 115
f 115 110 116
f 110 242 116
f 111 112 113
f 111 122 112
f 113 145 111
f 121 122 111
f 111 135 121
f 111 145 135
f 113 112 114
f 112 262 114
f 122 262 112
f 113 143 145
f 114 262 250
f 115 116 117
f 255 115 117
f 117 116 118
f 116 244 118
f 116 242 244
f 117 118 123
f 263 117 123
f 255 117 263
f 123 118 124
f 118 256 124
f 118 244 254
f 254 256 118
f 119 120 121
f 119 130 120
f 121 137 119
f 119 127 129
f 119 137 127
f 129 130 119
f 121 120 122
f 120 262 122
f 130 262 120
f 121 135 137
f 123 124 125
f 263 123 125
f 125 124 126
f 124 256 126
f 125 126 131
f 263 125 131
f 131 126 132
f 126 264 132
f 256 264 126
f 127 128 129
f 127 138 128
f 137 138 127
f 129 128 130
f 128 262 130
f 138 262 128
f 131 132 133
f 263 131 133
f 133 132 134
f 132 264 134
f 133 134 139
f 263 133 139
f 139 134 140
f 134 272 140
f 134 264 272
f 135 136 137
f 135 146 136
f 145 146 135
f 137 136 138
f 136 262 138
f 146 262 136
f 139 140 141
f 263 139 141
f 141 140 142
f 140 272 142
f 141 142 147
f 271 141 147
f 263 141 271
f 147 142 148
f 142 282 148
f 272 282 142
f 143 144 145
f 143 152 144
f 151 152 143
f 145 144 146
f 144 262 146
f 152 262 144
f 147 148 149
f 271 147 149
f 149 148 150
f 148 284 150
f 148 282 284
f 149 150 153
f 271 149 153
f 153 150 154
f 150 292 154
f 150 284 292
f 151 156 152
f 155 156 151
f 156 262 152
f 153 154 157
f 271 153 157
f 157 154 158
f 154 304 158
f 154 292 302
f 154 302 304
f 155 160 156
f 159 160 155
f 160 262 156
f 157 158 161
f 281 157 161
f 271 157 281
f 161 158 162
f 158 312 162
f 304 312 158
f 159 166 160
f 165 166 159
f 166 262 160
f 161 162 167
f 283 161 167
f 281 161 283
f 167 162 168
f 162 328 168
f 162 312 320
f 162 320 328
f 163 164 165
f 163 172 164
f 171 172 163
f 165 164 166
f 164 262 166
f 172 262 164
f 167 168 169
f 283 167 169
f 169 168 170
f 168 336 170
f 328 336 168
f 169 170 173
f 283 169 173
f 173 170 174
f 170 344 174
f 336 346 170
f 170 346 344
f 171 176 172
f 175 176 171
f 176 262 172
f 173 174 177
f 291 173 177
f 283 173 291
f 177 174 178
f 174 364 178
f 174 344 356
f 174 356 364
f 175 180 176
f 179 180 175
f 180 262 176
f 177 178 181
f 291 177 181
f 181 178 182
f 178 372 182
f 178 364 372
f 179 184 180
f 183 184 179
f 184 262 180
f 181 182 185
f 291 181 185
f 185 182 186
f 182 402 186
f 182 372 384
f 182 384 382
f 182 382 392
f 182 392 404
f 182 404 402
f 183 188 184
f 187 188 183
f 188 262 184
f 185 186 189
f 301 185 189
f 291 185 301
f 189 186 190
f 186 608 190
f 186 402 412
f 186 412 420
f 186 420 608
f 187 194 188
f 193 194 187
f 194 262 188
f 189 190 195
f 303 189 195
f 301 189 303
f 195 190 196
f 190 610 196
f 190 608 610
f 191 192 193
f 191 200 192
f 199 200 191
f 193 192 194
f 192 262 194
f 200 262 192
f 195 196 197
f 303 195 197
f 197 196 198
f 196 612 198
f 196 610 612
f 197 198 201
f 303 197 201
f 201 198 202
f 198 620 202
f 198 612 620
f 199 204 200
f 203 204 199
f 204 262 200
f 201 202 205
f 303 201 205
f 205 202 206
f 202 622 206
f 202 620 622
f 203 208 204
f 207 208 203
f 208 262 204
f 205 206 229
f 311 205 229
f 303 205 311
f 229 206 230
f 206 624 230
f 206 622 624
f 207 232 208
f 231 232 207
f 232 262 208
f 209 212 210
f 209 210 237
f 211 212 209
f 237 210 238
f 211 214 212
f 213 214 211
f 213 216 214
f 215 216 213
f 215 218 216
f 217 218 215
f 217 220 218
f 219 220 217
f 219 222 220
f 221 222 219
f 221 224 222
f 223 224 221
f 223 226 224
f 225 226 223
f 225 228 226
f 227 228 225
f 227 240 228
f 239 240 227
f 229 230 245
f 311 229 245
f 245 230 246
f 230 632 246
f 230 624 632
f 231 248 232
f 247 248 231
f 248 262 232
f 233 236 234
f 233 234 251
f 235 236 233
f 251 234 252
f 235 238 236
f 237 238 235
f 239 242 240
f 241 242 239
f 241 244 242
f 243 244 241
f 243 254 244
f 253 254 243
f 245 246 257
f 311 245 257
f 257 246 258
f 246 634 258
f 246 632 634
f 247 260 248
f 259 260 247
f 260 262 248
f 249 252 250
f 249 250 261
f 251 252 249
f 261 250 262
f 253 256 254
f 255 256 253
f 255 264 256
f 263 264 255
f 257 258 265
f 319 257 265
f 311 257 319
f 265 258 266
f 258 636 266
f 258 634 636
f 259 268 260
f 267 268 259
f 268 262 260
f 261 262 269
f 269 499 261
f 276 262 268
f 269 262 270
f 270 262 500
f 288 262 276
f 296 262 288
f 308 262 296
f 316 262 308
f 324 262 316
f 332 262 324
f 340 262 332
f 352 262 340
f 360 262 352
f 368 262 360
f 376 262 368
f 388 262 376
f 396 262 388
f 408 262 396
f 416 262 408
f 424 262 416
f 436 262 424
f 452 262 436
f 476 262 452
f 480 262 476
f 484 262 480
f 486 262 484
f 492 262 486
f 496 262 492
f 500 262 496
f 263 272 264
f 271 272 263
f 265 266 273
f 319 265 273
f 273 266 274
f 266 644 274
f 266 636 644
f 267 276 268
f 275 276 267
f 269 270 279
f 279 499 269
f 279 270 280
f 280 270 500
f 271 282 272
f 281 282 271
f 273 274 285
f 319 273 285
f 285 274 286
f 274 646 286
f 274 644 646
f 275 288 276
f 287 288 275
f 277 280 278
f 277 278 289
f 279 280 277
f 277 499 279
f 289 499 277
f 500 278 280
f 289 278 290
f 290 278 500
f 281 284 282
f 283 284 281
f 283 292 284
f 291 292 283
f 285 286 293
f 327 285 293
f 319 285 327
f 293 286 294
f 286 648 294
f 286 646 648
f 287 296 288
f 295 296 287
f 289 290 299
f 299 499 289
f 299 290 300
f 300 290 500
f 291 302 292
f 301 302 291
f 293 294 305
f 327 293 305
f 305 294 306
f 294 650 306
f 294 648 650
f 295 308 296
f 307 308 295
f 297 300 298
f 297 298 309
f 299 300 297
f 297 499 299
f 309 503 297
f 297 503 499
f 500 298 300
f 309 298 310
f 504 310 298
f 504 298 500
f 301 304 302
f 303 304 301
f 303 312 304
f 311 312 303
f 305 306 313
f 327 305 313
f 313 306 314
f 306 652 314
f 306 650 652
f 307 316 308
f 315 316 307
f 309 310 317
f 317 507 309
f 309 507 503
f 317 310 318
f 508 318 310
f 508 310 504
f 311 320 312
f 319 320 311
f 313 314 321
f 335 313 321
f 327 313 335
f 321 314 322
f 314 654 322
f 314 652 654
f 315 324 316
f 323 324 315
f 317 318 325
f 325 507 317
f 325 318 326
f 508 326 318
f 319 328 320
f 327 328 319
f 321 322 329
f 335 321 329
f 329 322 330
f 322 656 330
f 322 654 656
f 323 332 324
f 331 332 323
f 325 326 333
f 333 511 325
f 325 511 507
f 333 326 334
f 512 334 326
f 512 326 508
f 327 336 328
f 335 336 327
f 329 330 337
f 335 329 337
f 337 330 338
f 330 658 338
f 330 656 658
f 331 340 332
f 339 340 331
f 333 334 341
f 341 511 333
f 341 334 342
f 512 342 334
f 335 346 336
f 335 337 345
f 345 346 335
f 337 338 349
f 345 337 349
f 349 338 350
f 338 660 350
f 338 658 660
f 339 352 340
f 351 352 339
f 341 342 353
f 353 519 341
f 341 513 511
f 341 519 513
f 353 342 354
f 520 354 342
f 514 342 512
f 520 342 514
f 343 344 345
f 343 356 344
f 345 349 343
f 343 349 347
f 343 347 357
f 355 356 343
f 343 365 355
f 343 357 365
f 345 344 346
f 347 350 348
f 347 348 357
f 349 350 347
f 350 680 348
f 357 348 358
f 348 662 358
f 348 680 662
f 350 660 680
f 351 360 352
f 359 360 351
f 353 354 361
f 361 519 353
f 361 354 362
f 362 354 520
f 355 364 356
f 363 364 355
f 355 373 363
f 355 365 373
f 357 358 365
f 365 358 366
f 358 664 366
f 358 662 664
f 359 368 360
f 367 368 359
f 361 362 369
f 369 523 361
f 361 523 519
f 369 362 370
f 524 370 362
f 524 362 520
f 363 372 364
f 371 372 363
f 363 373 371
f 365 366 373
f 373 366 374
f 366 666 374
f 366 664 666
f 367 376 368
f 375 376 367
f 369 370 377
f 377 527 369
f 369 527 523
f 377 370 378
f 528 378 370
f 528 370 524
f 371 384 372
f 371 373 383
f 383 384 371
f 373 374 385
f 383 373 381
f 381 373 391
f 669 373 385
f 391 373 403
f 403 373 401
f 401 373 411
f 411 373 419
f 419 373 667
f 667 373 669
f 385 374 386
f 374 668 386
f 374 666 668
f 375 388 376
f 387 388 375
f 377 378 379
f 379 527 377
f 379 378 380
f 380 378 528
f 379 380 389
f 389 527 379
f 389 380 390
f 528 390 380
f 381 382 383
f 381 392 382
f 391 392 381
f 383 382 384
f 385 386 393
f 671 385 393
f 669 385 671
f 393 386 394
f 386 670 394
f 386 668 670
f 387 396 388
f 395 396 387
f 389 390 397
f 397 533 389
f 389 531 527
f 389 533 531
f 397 390 398
f 398 390 534
f 532 390 528
f 534 390 532
f 391 404 392
f 403 404 391
f 393 394 405
f 673 393 405
f 671 393 673
f 405 394 406
f 394 672 406
f 394 670 672
f 395 408 396
f 407 408 395
f 397 398 399
f 399 539 397
f 397 539 533
f 399 398 400
f 400 398 540
f 540 398 534
f 399 400 409
f 409 539 399
f 409 400 410
f 540 410 400
f 401 402 403
f 401 412 402
f 411 412 401
f 403 402 404
f 405 406 413
f 675 405 413
f 673 405 675
f 413 406 414
f 406 674 414
f 406 672 674
f 407 416 408
f 415 416 407
f 409 410 417
f 417 547 409
f 409 541 539
f 409 547 541
f 417 410 418
f 548 418 410
f 542 410 540
f 548 410 542
f 411 420 412
f 419 420 411
f 413 414 421
f 677 413 421
f 675 413 677
f 421 414 422
f 414 676 422
f 414 674 676
f 415 424 416
f 423 424 415
f 417 418 425
f 555 417 425
f 417 549 547
f 417 555 549
f 425 418 426
f 556 426 418
f 550 418 548
f 556 418 550
f 419 432 420
f 431 432 419
f 607 431 419
f 419 609 607
f 611 609 419
f 419 619 611
f 419 621 619
f 623 621 419
f 419 631 623
f 419 633 631
f 419 635 633
f 419 643 635
f 419 645 643
f 419 647 645
f 419 649 647
f 419 651 649
f 419 653 651
f 419 655 653
f 419 657 655
f 419 659 657
f 419 679 659
f 419 663 661
f 661 679 419
f 665 663 419
f 419 667 665
f 608 420 432
f 421 422 433
f 637 421 433
f 677 421 637
f 433 422 434
f 422 678 434
f 422 676 678
f 423 436 424
f 435 436 423
f 425 426 427
f 425 427 563
f 555 425 557
f 557 425 563
f 427 426 428
f 564 428 426
f 558 426 556
f 564 426 558
f 427 428 437
f 565 427 437
f 563 427 565
f 437 428 438
f 566 438 428
f 566 428 564
f 429 430 431
f 429 448 430
f 607 429 431
f 447 448 429
f 601 447 429
f 601 429 607
f 431 430 432
f 608 432 430
f 602 430 448
f 608 430 602
f 433 434 449
f 639 433 449
f 637 433 639
f 449 434 450
f 434 638 450
f 434 678 638
f 435 452 436
f 451 452 435
f 437 438 439
f 571 437 439
f 565 437 571
f 439 438 440
f 440 438 572
f 572 438 566
f 439 440 441
f 573 439 441
f 571 439 573
f 441 440 442
f 442 440 574
f 574 440 572
f 441 442 453
f 573 441 453
f 453 442 454
f 574 454 442
f 443 444 445
f 443 472 444
f 601 443 445
f 471 472 443
f 601 471 443
f 445 444 446
f 602 446 444
f 602 444 472
f 445 446 447
f 601 445 447
f 447 446 448
f 602 448 446
f 449 450 473
f 641 449 473
f 639 449 641
f 473 450 474
f 450 640 474
f 450 638 640
f 451 476 452
f 475 476 451
f 453 454 455
f 453 455 579
f 573 453 579
f 455 454 456
f 580 456 454
f 580 454 574
f 455 456 457
f 583 455 457
f 579 455 583
f 457 456 458
f 584 458 456
f 584 456 580
f 457 458 459
f 583 457 459
f 459 458 460
f 460 458 584
f 459 460 461
f 459 461 585
f 583 459 585
f 461 460 462
f 586 462 460
f 586 460 584
f 461 462 463
f 591 461 463
f 585 461 591
f 463 462 464
f 592 464 462
f 592 462 586
f 463 464 465
f 593 463 465
f 591 463 593
f 465 464 466
f 594 466 464
f 594 464 592
f 465 466 467
f 593 465 467
f 467 466 468
f 594 468 466
f 467 468 469
f 599 467 469
f 593 467 599
f 469 468 470
f 600 470 468
f 600 468 594
f 469 470 471
f 601 469 471
f 599 469 601
f 471 470 472
f 602 472 470
f 602 470 600
f 473 474 477
f 625 473 477
f 641 473 625
f 477 474 478
f 474 642 478
f 474 640 642
f 475 480 476
f 479 480 475
f 477 478 481
f 627 477 481
f 625 477 627
f 481 478 482
f 478 626 482
f 478 642 626
f 479 484 480
f 483 484 479
f 481 482 489
f 629 481 489
f 627 481 629
f 489 482 490
f 482 628 490
f 482 626 628
f 483 486 484
f 485 486 483
f 485 492 486
f 491 492 485
f 487 490 488
f 487 488 493
f 489 490 487
f 613 489 487
f 615 487 493
f 613 487 615
f 490 630 488
f 493 488 494
f 488 614 494
f 488 630 614
f 629 489 613
f 490 628 630
f 491 496 492
f 495 496 491
f 493 494 497
f 617 493 497
f 615 493 617
f 497 494 498
f 494 616 498
f 494 614 616
f 495 500 496
f 499 500 495
f 497 498 501
f 603 497 501
f 617 497 603
f 501 498 502
f 498 618 502
f 498 616 618
f 499 504 500
f 503 504 499
f 501 502 505
f 605 501 505
f 603 501 605
f 505 502 506
f 502 604 506
f 502 618 604
f 503 508 504
f 507 508 503
f 505 506 509
f 595 505 509
f 605 505 595
f 509 506 510
f 506 606 510
f 506 604 606
f 507 512 508
f 511 512 507
f 509 510 517
f 597 509 517
f 595 509 597
f 517 510 518
f 510 596 518
f 510 606 596
f 511 514 512
f 513 514 511
f 513 520 514
f 519 520 513
f 515 518 516
f 515 516 521
f 517 518 515
f 587 517 515
f 589 515 521
f 587 515 589
f 518 598 516
f 521 516 522
f 516 588 522
f 516 598 588
f 597 517 587
f 518 596 598
f 519 524 520
f 523 524 519
f 521 522 525
f 581 521 525
f 589 521 581
f 525 522 526
f 522 590 526
f 522 588 590
f 523 528 524
f 527 528 523
f 525 526 529
f 575 525 529
f 581 525 575
f 529 526 530
f 526 582 530
f 526 590 582
f 527 532 528
f 531 532 527
f 529 530 537
f 577 529 537
f 575 529 577
f 537 530 538
f 530 576 538
f 530 582 576
f 531 534 532
f 533 534 531
f 533 540 534
f 539 540 533
f 535 538 536
f 535 536 545
f 537 538 535
f 567 537 535
f 569 535 545
f 567 535 569
f 538 578 536
f 545 536 546
f 536 568 546
f 536 578 568
f 577 537 567
f 538 576 578
f 539 542 540
f 541 542 539
f 541 548 542
f 547 548 541
f 543 546 544
f 543 544 553
f 545 546 543
f 559 545 543
f 561 543 553
f 559 543 561
f 546 570 544
f 553 544 554
f 544 560 554
f 544 570 560
f 569 545 559
f 546 568 570
f 547 550 548
f 549 550 547
f 549 556 550
f 555 556 549
f 551 554 552
f 551 552 561
f 553 554 551
f 561 553 551
f 554 562 552
f 561 552 562
f 554 560 562
f 555 558 556
f 557 558 555
f 557 564 558
f 563 564 557
f 559 562 560
f 559 560 569
f 561 562 559
f 569 560 570
f 563 566 564
f 565 566 563
f 565 572 566
f 571 572 565
f 567 570 568
f 567 568 577
f 569 570 567
f 577 568 578
f 571 574 572
f 573 574 571
f 573 580 574
f 579 580 573
f 575 578 576
f 575 576 581
f 577 578 575
f 581 576 582
f 579 584 580
f 583 584 579
f 581 582 589
f 589 582 590
f 583 586 584
f 585 586 583
f 585 592 586
f 591 592 585
f 587 590 588
f 587 588 597
f 589 590 587
f 597 588 598
f 591 594 592
f 593 594 591
f 593 600 594
f 599 600 593
f 595 598 596
f 595 596 605
f 597 598 595
f 605 596 606
f 599 602 600
f 601 602 599
f 601 608 602
f 607 608 601
f 603 606 604
f 603 604 617
f 605 606 603
f 617 604 618
f 607 610 608
f 609 610 607
f 609 612 610
f 611 612 609
f 611 620 612
f 619 620 611
f 613 616 614
f 613 614 629
f 615 616 613
f 629 614 630
f 615 618 616
f 617 618 615
f 619 622 620
f 621 622 619
f 621 624 622
f 623 624 621
f 623 632 624
f 631 632 623
f 625 628 626
f 625 626 641
f 627 628 625
f 641 626 642
f 627 630 628
f 629 630 627
f 631 634 632
f 633 634 631
f 633 636 634
f 635 636 633
f 635 644 636
f 643 644 635
f 637 640 638
f 637 638 677
f 639 640 637
f 677 638 678
f 639 642 640
f 641 642 639
f 643 646 644
f 645 646 643
f 645 648 646
f 647 648 645
f 647 650 648
f 649 650 647
f 649 652 650
f 651 652 649
f 651 654 652
f 653 654 651
f 653 656 654
f 655 656 653
f 655 658 656
f 657 658 655
f 657 660 658
f 659 660 657
f 659 680 660
f 679 680 659
f 661 664 662
f 661 662 679
f 663 664 661
f 679 662 680
f 663 666 664
f 665 666 663
f 665 668 666
f 667 668 665
f 667 670 668
f 669 670 667
f 669 672 670
f 671 672 669
f 671 674 672
f 673 674 671
f 673 676 674
f 675 676 673
f 675 678 676
f 677 678 675
