v 0.0109944134 0.0576634579 0.0342078495
v 0.0109853344 0.0576543789 0.0343205643
v 0.0109713535 0.057640398 0.0345465827
v 0.0109629564 0.0576320057 0.0347731543
v 0.0109601574 0.0576292019 0.035
v 0.0109664564 0.0576355057 0.0353401828
v 0.010977643 0.0576466923 0.0355665112
v 0.0109944134 0.0576634579 0.0357921505
v 0.0110779552 0.0577469997 0.033537817
v 0.0110446005 0.0577136497 0.0337597418
v 0.0110048847 0.0576739292 0.0340953755
v 0.0110048847 0.0576739292 0.0359046245
v 0.0110167437 0.0576857929 0.0360168242
v 0.0110605936 0.0577296429 0.0363514256
v 0.0112373381 0.0579063873 0.0327768683
v 0.0111609869 0.0578300362 0.0330995846
v 0.011116765 0.0577858143 0.0333176756
v 0.0110966806 0.0577657299 0.0365724921
v 0.0111382036 0.0578072529 0.0367916417
v 0.0111851101 0.0578541546 0.0370086098
v 0.0113255291 0.0579945736 0.0324602485
v 0.0112948303 0.0579638844 0.0325650573
v 0.0112654333 0.0579344826 0.0373293924
v 0.0113255291 0.0579945736 0.0375397515
v 0.0114981489 0.0581671982 0.0319484353
v 0.0114611082 0.0581301575 0.0320490623
v 0.0113907843 0.0580598335 0.0322529817
v 0.0113575153 0.0580265598 0.0376437879
v 0.0114253168 0.0580943661 0.037849412
v 0.0114981489 0.0581671982 0.0380515647
v 0.0115759306 0.0582449799 0.0317499995
v 0.0115364294 0.0582054787 0.0318487382
v 0.0115364294 0.0582054787 0.0381512618
v 0.0115759306 0.0582449799 0.0382500005
v 0.0117459326 0.0584149818 0.0313652468
v 0.0116585569 0.0583276062 0.0315555239
v 0.011616643 0.0582856922 0.0383477473
v 0.0117016582 0.0583707027 0.0385401535
v 0.0117913656 0.0584604149 0.0312717533
v 0.0117913656 0.0584604149 0.0387282467
v 0.011984437 0.0586534863 0.0309094167
v 0.0118856649 0.0585547142 0.031088202
v 0.0118379478 0.0585070019 0.0388206053
v 0.0119344978 0.0586035423 0.0390017986
v 0.0120354586 0.0587045078 0.0308218813
v 0.0120354586 0.0587045078 0.0391781187
v 0.0121949034 0.0588639526 0.0305670118
v 0.0120875578 0.0587566071 0.0392643833
v 0.0123063498 0.058975399 0.0304038048
v 0.0122501259 0.0589191704 0.0395152783
v 0.012480896 0.0591499405 0.0301695585
v 0.0123635654 0.0590326099 0.0303242922
v 0.0123635654 0.0590326099 0.0396757078
v 0.0124217539 0.0590908031 0.0397537994
v 0.0125409727 0.059210022 0.0300943875
v 0.0125409727 0.059210022 0.0399056125
v 0.0127266483 0.0593956928 0.0298779297
v 0.0126019745 0.059271019 0.0300207114
v 0.0126019745 0.059271019 0.0399792886
v 0.0126638727 0.059332922 0.0400514507
v 0.0127902918 0.059459341 0.0298088694
v 0.0127902918 0.059459341 0.0401911306
v 0.0129861908 0.0596552353 0.0296112561
v 0.0128547745 0.059523819 0.0402586126
v 0.0130530815 0.059722126 0.0295486403
v 0.0130530815 0.059722126 0.0404513597
v 0.0131891327 0.0598581772 0.0294284129
v 0.0131207352 0.0597897892 0.0405123138
v 0.0133280687 0.059997118 0.029314971
v 0.0132582502 0.0599272995 0.0406291628
v 0.0134697227 0.0601387672 0.0292084575
v 0.0133985691 0.0600676136 0.0292608404
v 0.0133985691 0.0600676136 0.0407391596
v 0.0134697227 0.0601387672 0.0407915401
v 0.0135415106 0.0602105598 0.0291578388
v 0.0135415106 0.0602105598 0.0408421612
v 0.0136869078 0.060355957 0.029061954
v 0.0136139135 0.0602829628 0.0408909988
v 0.0137604742 0.0604295235 0.0290167189
v 0.0137604742 0.0604295235 0.0409832811
v 0.0139843588 0.0606534081 0.0288919973
v 0.0138345842 0.0605036335 0.0410266972
v 0.0140599756 0.0607290249 0.0288541293
v 0.0140599756 0.0607290249 0.0411458731
v 0.014212554 0.0608816032 0.0287840199
v 0.0141903238 0.0608593731 0.0344823623
v 0.014155901 0.0608249454 0.0347216535
v 0.0141423492 0.0608114033 0.0349650955
v 0.0141421347 0.0608111839 0.035
v 0.014184144 0.0608531933 0.0354838443
v 0.0142451124 0.0609141617 0.0357492137
v 0.0141360455 0.06080509 0.0411818695
v 0.0144963913 0.0540943699 0.0348865604
v 0.0144984894 0.054096468 0.0352268457
v 0.0142894678 0.0609585171 0.0287518001
v 0.0142545586 0.0609236031 0.0342185378
v 0.0143194513 0.0609885006 0.0359696198
v 0.0142894678 0.0609585171 0.0412482023
v 0.0144444304 0.0611134796 0.0286930776
v 0.0144573002 0.0611263447 0.0337413597
v 0.0143441324 0.0610131817 0.0339699244
v 0.0143316059 0.0610006504 0.034000001
v 0.0143316059 0.0610006504 0.035999999
v 0.0144419317 0.061110981 0.0362313223
v 0.0144890289 0.0611580734 0.0363121176
v 0.0143667679 0.0610358124 0.0412785196
v 0.0146322136 0.0542301922 0.0334275079
v 0.0145961266 0.0541941051 0.0336485744
v 0.0145522766 0.0541502552 0.0339831758
v 0.0145299463 0.0541279297 0.0342078495
v 0.0145131807 0.0541111546 0.0344334888
v 0.0145019894 0.054099968 0.0346598172
v 0.0145068865 0.0541048603 0.0354534173
v 0.0145208673 0.0541188507 0.0356794357
v 0.0145404177 0.054138401 0.0359046245
v 0.0145801334 0.054178112 0.0362402582
v 0.0146134882 0.0542114716 0.036462183
v 0.0146322136 0.0542301922 0.0365724921
v 0.014720643 0.0543186264 0.0329913902
v 0.0146737366 0.0542717152 0.0332083583
v 0.0146523027 0.0542502766 0.0333176756
v 0.0146523027 0.0542502766 0.0366823244
v 0.0146965199 0.0542944984 0.0369004154
v 0.0147460966 0.05434408 0.0371161938
v 0.0145224314 0.0611914806 0.028666594
v 0.0145053844 0.0611744289 0.0336617398
v 0.0145739536 0.0612429981 0.0364386797
v 0.0145224314 0.0611914806 0.0413334036
v 0.0146793537 0.0613483982 0.0286194229
v 0.0146285419 0.0612975864 0.0334905815
v 0.0145918589 0.0612609081 0.0335372925
v 0.014610055 0.0612791042 0.0364862895
v 0.0147451906 0.0614142399 0.0366383052
v 0.0146007471 0.0612697964 0.0413579607
v 0.014861062 0.0544590454 0.0324602485
v 0.0148009663 0.0543989449 0.0326706076
v 0.0147728758 0.0543708496 0.0327768683
v 0.0147728758 0.0543708496 0.0372231317
v 0.014830368 0.0544283466 0.0374349427
v 0.0148930531 0.0544910316 0.0376437879
v 0.0149608498 0.0545588284 0.032150588
v 0.0149263172 0.0545242958 0.0322529817
v 0.0149263172 0.0545242958 0.0377470183
v 0.0149966459 0.0545946198 0.0379509377
v 0.0147582273 0.0614272766 0.0285987496
v 0.0147655325 0.0614345818 0.0333419251
v 0.0148279743 0.0614970188 0.0367143345
v 0.0147582273 0.0614272766 0.0414012527
v 0.014996212 0.061665266 0.0285484505
v 0.0148924141 0.0615614681 0.0332341051
v 0.0148492413 0.0615182858 0.0332679486
v 0.0148707228 0.061539772 0.036749239
v 0.0149811344 0.0616501884 0.0368270898
v 0.0148373442 0.0615063934 0.0414199734
v 0.0151114635 0.0547094421 0.0317499995
v 0.0150336866 0.0546316605 0.0319484353
v 0.0150719624 0.0546699409 0.0381512618
v 0.0151114635 0.0547094421 0.0382500005
v 0.0152371912 0.0548351746 0.0314598465
v 0.0151521759 0.0547501545 0.0316522527
v 0.0151940899 0.0547920685 0.0384444761
v 0.0152371912 0.0548351746 0.0385401535
v 0.0150759153 0.0617449646 0.0285356069
v 0.0150037699 0.0616728191 0.0331589913
v 0.0150726585 0.061741703 0.0368793845
v 0.0150759153 0.0617449646 0.0414643908
v 0.0152357368 0.0619047813 0.0285158348
v 0.0150959282 0.0617649727 0.033108964
v 0.0152382212 0.0619072704 0.0369487405
v 0.0151557665 0.0618248158 0.0414752674
v 0.0153734856 0.0549714642 0.0311793947
v 0.0152814655 0.0548794441 0.0313652468
v 0.0153269033 0.0549248772 0.0387282467
v 0.0153734856 0.0549714642 0.0388206053
v 0.0154700308 0.0550680141 0.0309982014
v 0.0154211979 0.0550191765 0.031088202
v 0.0154211979 0.0550191765 0.038911798
v 0.0154700308 0.0550680141 0.0390017986
v 0.0153158026 0.0619848518 0.0285089087
v 0.0152623158 0.0619313698 0.033043704
v 0.0153107719 0.0619798164 0.0369696164
v 0.0153158026 0.0619848518 0.0414910936
v 0.0154761343 0.0621451836 0.0285009909
v 0.0153351192 0.0620041637 0.0330246234
v 0.0154823332 0.0621513824 0.0369972587
v 0.0153959446 0.0620649891 0.0414960384
v 0.0156230907 0.0552210693 0.0307356167
v 0.0155199699 0.0551179485 0.0309094167
v 0.0155709963 0.0551689701 0.0391781187
v 0.0156230907 0.0552210693 0.0392643833
v 0.0156762438 0.0552742271 0.0306506515
v 0.0157304411 0.0553284149 0.0394329882
v 0.0155563478 0.0622253971 0.028499999
v 0.0155563478 0.0622253971 0.0329999995
v 0.0155069952 0.0621760445 0.0330012178
v 0.0155316668 0.062200716 0.0369996953
v 0.0155563478 0.0622253971 0.0370000005
v 0.0155563478 0.0622253971 0.041500001
v 0.0157167559 0.0623858051 0.0285039592
v 0.0155810289 0.0622500782 0.0330003047
v 0.0157287006 0.0623977451 0.0369850922
v 0.0156365662 0.0623056107 0.0414990091
v 0.0157856588 0.0553836422 0.0304847217
v 0.0158990984 0.0554970818 0.0396757078
v 0.0159572868 0.0555552654 0.0302462006
v 0.0159572868 0.0555552654 0.0397537994
v 0.0157968931 0.0624659424 0.0285089087
v 0.0157531719 0.0624222164 0.033019464
v 0.0158261948 0.0624952393 0.0369632554
v 0.0157968931 0.0624659424 0.0414910936
v 0.015956934 0.0626259785 0.028524735
v 0.0158503799 0.0625194244 0.033043704
v 0.0159933643 0.0626624088 0.036902113
v 0.0158769636 0.0625460129 0.0414841652
v 0.0160164289 0.0556144123 0.0301695585
v 0.0161375074 0.0557354908 0.0399792886
v 0.0161994057 0.0557973843 0.0299485517
v 0.0161994057 0.0557973843 0.0400514507
v 0.0160367804 0.0627058296 0.0285356069
v 0.0160167723 0.0626858215 0.033108964
v 0.016063159 0.0627322083 0.0368671608
v 0.0160367804 0.0627058296 0.0414643908
v 0.0161960154 0.0628650646 0.0285632586
v 0.0160861235 0.0627551727 0.0331456327
v 0.0162419729 0.0629110222 0.033250761
v 0.0162419729 0.0629110222 0.036749239
v 0.0162202816 0.0628893261 0.0367658949
v 0.0161164837 0.0627855282 0.0414515495
v 0.0163903074 0.0559882908 0.0297413898
v 0.0162621813 0.0558601646 0.0298779297
v 0.0163258247 0.0559238033 0.0401911306
v 0.0163903074 0.0559882908 0.0402586126
v 0.016455615 0.0560535984 0.0296755123
v 0.016455615 0.0560535984 0.0403244877
v 0.0162753515 0.0629444008 0.0285800266
v 0.0162634544 0.0629324989 0.0332679486
v 0.0163265829 0.0629956322 0.0366773415
v 0.0162753515 0.0629444008 0.0414199734
v 0.016433342 0.063102396 0.0286194229
v 0.016347168 0.0630162125 0.0333419251
v 0.0164841585 0.0631532078 0.0365094185
v 0.0163544683 0.0630235176 0.0414012527
v 0.0165217237 0.0561197071 0.0296112561
v 0.0165886145 0.0561865978 0.0404513597
v 0.0166562729 0.0562542515 0.0294876885
v 0.0167246704 0.056322649 0.0405715895
v 0.0165119534 0.0631809978 0.0286420417
v 0.0165026407 0.06317169 0.0335137105
v 0.0165736513 0.0632427006 0.0363893175
v 0.0165119534 0.0631809978 0.0413579607
v 0.0167459326 0.0634149818 0.0287214828
v 0.016590641 0.0632596855 0.0336360025
v 0.016670764 0.0633398132 0.0337686777
v 0.0167424088 0.0634114532 0.0360892773
v 0.0166554003 0.0633244495 0.0362586403
v 0.0165902691 0.0632593136 0.0413334036
v 0.016793788 0.0563917618 0.0293708348
v 0.0168636017 0.0564615803 0.040685029
v 0.0169341021 0.0565320759 0.0292608404
v 0.0169341021 0.0565320759 0.0407391596
v 0.0168232327 0.0634922771 0.0287518001
v 0.0167556696 0.0634247189 0.0339401627
v 0.0167810946 0.0634501438 0.034000001
v 0.0168274336 0.0634964828 0.0358767414
v 0.016768568 0.0634376125 0.0360300756
v 0.0168232327 0.0634922771 0.0412482023
v 0.0169766502 0.0636456947 0.0288181329
v 0.0168380623 0.0635071068 0.0341547632
v 0.0168675833 0.0635366325 0.0342507863
v 0.0169285564 0.0635976009 0.0345161557
v 0.0169600229 0.0636290722 0.0347562623
v 0.016970561 0.0636396103 0.035
v 0.0169567995 0.0636258488 0.0352783465
v 0.0169223766 0.0635914211 0.0355176377
v 0.0168581419 0.0635271912 0.0357814622
v 0.0169001465 0.063569191 0.0412159824
v 0.0170052557 0.0566032391 0.0292084575
v 0.0171494465 0.0567474251 0.0408909988
v 0.0172224407 0.0568204193 0.029061954
v 0.0172224407 0.0568204193 0.0409380436
v 0.0170527248 0.0637217693 0.0288541293
v 0.0170527248 0.0637217693 0.0411458731
v 0.0172034769 0.0638725262 0.0289317274
v 0.0171283417 0.0637973862 0.0411080027
v 0.0173701172 0.0569680958 0.0289733052
v 0.0172960072 0.0568939857 0.0290167189
v 0.0172960072 0.0568939857 0.0409832811
v 0.0173701172 0.0569680958 0.0410266972
v 0.0174447565 0.0570427303 0.0289317274
v 0.0174447565 0.0570427303 0.0410682726
v 0.0172781115 0.0639471607 0.0289733052
v 0.0172781115 0.0639471607 0.0410266972
v 0.0174987869 0.0641678314 0.0291089988
v 0.0173522263 0.0640212708 0.0409832811
v 0.0175198917 0.0571178703 0.0288919973
v 0.0175955086 0.0571934872 0.0411458731
v 0.0176715832 0.0572695618 0.0288181329
v 0.0177258568 0.0573238354 0.0344823623
v 0.0176914339 0.0572894077 0.0347216535
v 0.017677887 0.0572758656 0.0349650955
v 0.0176776676 0.0572756462 0.035
v 0.017719677 0.0573176556 0.0354838443
v 0.0177468853 0.0573448639 0.0356180334
v 0.0177480869 0.0573460655 0.0412159824
v 0.0175711899 0.0642402344 0.0291578388
v 0.0175711899 0.0642402344 0.0408421612
v 0.0176429777 0.064312027 0.0292084575
v 0.0177141314 0.0643831806 0.0292608404
v 0.0177141314 0.0643831806 0.0407391596
v 0.0176429777 0.064312027 0.0407915401
v 0.0178250008 0.0574229794 0.0287518001
v 0.0178796654 0.057477644 0.0339699244
v 0.0177900915 0.0573880749 0.0342185378
v 0.0177547197 0.0573526936 0.0343488646
v 0.0177806454 0.057378624 0.0357492137
v 0.0178671389 0.0574651222 0.035999999
v 0.0178925638 0.0574905376 0.0360598373
v 0.0178250008 0.0574229794 0.0412482023
v 0.0179023008 0.0575002842 0.0287214828
v 0.0179928331 0.0575908165 0.0337413597
v 0.0179058247 0.0575038033 0.0339107227
v 0.0179774694 0.0575754433 0.0362313223
v 0.0179928331 0.0575908165 0.0362586403
v 0.0179799633 0.0575779419 0.0413069201
v 0.017784627 0.0644536762 0.029314971
v 0.017784627 0.0644536762 0.040685029
v 0.0179919605 0.064661005 0.0294876885
v 0.0178544455 0.0645234947 0.0406291628
v 0.0180579643 0.0576559429 0.028666594
v 0.0180085306 0.057606514 0.0337144256
v 0.0181455879 0.0577435665 0.0364862895
v 0.0181362801 0.0577342587 0.0413579607
v 0.0182148867 0.05781287 0.0286194229
v 0.0181640749 0.0577620583 0.0334905815
v 0.0182407885 0.0578387718 0.036597271
v 0.0182148867 0.05781287 0.0413805771
v 0.0180596142 0.0647286682 0.0295486403
v 0.0180596142 0.0647286682 0.0404513597
v 0.0181926184 0.0648616676 0.0296755123
v 0.0181265097 0.0647955589 0.0403887463
v 0.0182937603 0.0578917389 0.0285987496
v 0.0182606297 0.0578586082 0.0333819652
v 0.0183847742 0.0579827576 0.0367320514
v 0.0183728819 0.0579708557 0.0414199734
v 0.0184522181 0.0580501919 0.0285632586
v 0.0184279518 0.0580259304 0.0332341051
v 0.0184062605 0.0580042343 0.033250761
v 0.0184062605 0.0580042343 0.036749239
v 0.0184942083 0.0580921917 0.0368126154
v 0.0184522181 0.0580501919 0.0414367437
v 0.018257926 0.0649269753 0.0297413898
v 0.0183224087 0.0649914532 0.0298088694
v 0.0183224087 0.0649914532 0.0401911306
v 0.018257926 0.0649269753 0.0402586126
v 0.0184488277 0.0651178722 0.0299485517
v 0.0183860474 0.0650550919 0.0401220703
v 0.0185317497 0.0581297283 0.0285484505
v 0.0185166721 0.0581146507 0.0331729102
v 0.0186314611 0.0582294445 0.036891036
v 0.0186114483 0.0582094269 0.0414643908
v 0.0186912994 0.058289278 0.028524735
v 0.0186548691 0.0582528477 0.033097887
v 0.0187497549 0.0583477383 0.0369405913
v 0.0186912994 0.058289278 0.0414752674
v 0.018571723 0.0652407722 0.0300943875
v 0.018510726 0.0651797752 0.0399792886
v 0.0186909466 0.0653599911 0.0302462006
v 0.018749135 0.0654181843 0.0303242922
v 0.018749135 0.0654181843 0.0396757078
v 0.0186318045 0.0653008537 0.0398304415
v 0.0187712698 0.0583692532 0.0285158348
v 0.0187737541 0.0583717327 0.0330512595
v 0.0188950615 0.0584930401 0.036980536
v 0.0188513355 0.0584493141 0.0414910936
v 0.0189314775 0.0585294609 0.0285039592
v 0.0189195328 0.0585175114 0.0330149078
v 0.0189932327 0.0585912113 0.0369951272
v 0.0189314775 0.0585294609 0.0414960384
v 0.0188063507 0.0654753952 0.0304038048
v 0.0188063507 0.0654753952 0.0395961952
v 0.0188625746 0.0655316238 0.0304847217
v 0.0189719849 0.0656410389 0.0306506515
v 0.0189177923 0.0655868416 0.0394329882
v 0.0188625746 0.0655316238 0.0395152783
v 0.0190918808 0.0586898594 0.028499999
v 0.0190116673 0.0586096458 0.0285009909
v 0.0190918808 0.0586898594 0.0329999995
v 0.0190178709 0.0586158447 0.0330027413
v 0.0191412382 0.0587392216 0.0369987822
v 0.0190918808 0.0586898594 0.0370000005
v 0.0190116673 0.0586096458 0.0414990091
v 0.0190918808 0.0586898594 0.041500001
v 0.0191720991 0.0587700729 0.0285009909
v 0.0191658955 0.0587638741 0.0330027413
v 0.0192397099 0.0588376884 0.0369890428
v 0.0191720991 0.0587700729 0.0414990091
v 0.0190251427 0.0656941872 0.0307356167
v 0.0190772371 0.0657462864 0.0308218813
v 0.0190772371 0.0657462864 0.0391781187
v 0.0190251427 0.0656941872 0.0392643833
v 0.0191781979 0.0658472424 0.0309982014
v 0.0192270308 0.06589608 0.031088202
v 0.0192270308 0.06589608 0.038911798
v 0.0191282635 0.065797308 0.0390905833
v 0.0192522888 0.0588502674 0.0285039592
v 0.0192642336 0.0588622074 0.0330149078
v 0.0193859129 0.0589838963 0.036956296
v 0.0193324308 0.0589304047 0.0414910936
v 0.0194124966 0.0590104752 0.0285158348
v 0.0194100122 0.0590079956 0.0330512595
v 0.0194816952 0.0590796738 0.036922524
v 0.0194924669 0.0590904503 0.0414752674
v 0.0192747478 0.0659437923 0.0311793947
v 0.0193213301 0.0659903793 0.0312717533
v 0.0193213301 0.0659903793 0.0387282467
v 0.0192747478 0.0659437923 0.0388206053
v 0.0194110422 0.0660800915 0.0314598465
v 0.0194960575 0.066165102 0.0316522527
v 0.0194541435 0.066123188 0.0384444761
v 0.0193667679 0.0660358124 0.0386347532
v 0.0195723181 0.0591702919 0.0285356069
v 0.0195053606 0.0591033344 0.0330873895
v 0.0196444588 0.0592424374 0.0368410087
v 0.0195723181 0.0591702919 0.0414643908
v 0.0196520166 0.05925 0.0285484505
v 0.0196670942 0.0592650776 0.0331729102
v 0.019733923 0.0593319016 0.036782012
v 0.0197315483 0.0593295269 0.0414367437
v 0.0195367699 0.0662058144 0.0317499995
v 0.0195762711 0.0662453156 0.0318487382
v 0.0195762711 0.0662453156 0.0381512618
v 0.0195367699 0.0662058144 0.0382500005
v 0.0196145468 0.066283596 0.0319484353
v 0.0196873789 0.0663564281 0.032150588
v 0.0197219162 0.0663909607 0.0322529817
v 0.0197219162 0.0663909607 0.0377470183
v 0.0196515875 0.0663206367 0.0379509377
v 0.0196145468 0.066283596 0.0380515647
v 0.0198108845 0.0594088631 0.0285800266
v 0.0197558146 0.0593537979 0.0332341051
v 0.0197775059 0.0593754845 0.033250761
v 0.0198827009 0.0594806843 0.0366580749
v 0.0197558146 0.0593537979 0.0367658949
v 0.0198900061 0.0594879799 0.0414012527
v 0.0199688797 0.0595668583 0.0286194229
v 0.0199030428 0.0595010262 0.0333616948
v 0.0199818783 0.0595798569 0.0365542912
v 0.0199688797 0.0595668583 0.0413805771
v 0.0197871666 0.0664562111 0.0324602485
v 0.0198178654 0.0664869099 0.0325650573
v 0.0198178654 0.0664869099 0.0374349427
v 0.0197551804 0.0664242249 0.0376437879
v 0.0198472672 0.0665163116 0.0326706076
v 0.0199275904 0.0665966396 0.0329913902
v 0.0199744968 0.0666435413 0.0332083583
v 0.0199959307 0.0666649799 0.0333176756
v 0.0199959307 0.0666649799 0.0366823244
v 0.0199517136 0.0666207581 0.0369004154
v 0.0198753576 0.0665444069 0.0372231317
v 0.0198472672 0.0665163116 0.0373293924
v 0.0200474863 0.0596454697 0.0286420417
v 0.0200009232 0.0595989017 0.0334679103
v 0.0200381784 0.0596361523 0.0335137105
v 0.020142849 0.0597408276 0.0363382602
v 0.0200196915 0.0596176701 0.0365094185
v 0.020125802 0.0597237854 0.0413334036
v 0.0202038031 0.0598017864 0.0286930776
v 0.0201592045 0.0597571831 0.0336878824
v 0.0202062969 0.0598042755 0.0337686777
v 0.0202360039 0.0598339825 0.0361755705
v 0.0201909332 0.0597889118 0.0362586403
v 0.0202038031 0.0598017864 0.0413069201
v 0.0200160151 0.0666850643 0.0334275079
v 0.0200521069 0.0667211514 0.0336485744
v 0.0200681 0.0667371445 0.0337597418
v 0.0200681 0.0667371445 0.0362402582
v 0.0200347452 0.0667037945 0.036462183
v 0.0200160151 0.0666850643 0.0365724921
v 0.0200959568 0.0667650013 0.0339831758
v 0.0201182823 0.0667873268 0.0342078495
v 0.0201350527 0.0668041019 0.0344334888
v 0.020146244 0.0668152885 0.0346598172
v 0.0201518421 0.0668208866 0.0348865604
v 0.0201525431 0.0668215923 0.035
v 0.0201413469 0.0668103962 0.0354534173
v 0.0201273661 0.0667964153 0.0356794357
v 0.0201078157 0.066776865 0.0359046245
v 0.020082715 0.0667517643 0.0361287141
v 0.0202814655 0.0598794441 0.0287214828
v 0.0203587656 0.059956749 0.0287518001
v 0.0202503376 0.0598483162 0.0338528466
v 0.0203166275 0.0599146061 0.034000001
v 0.0203936749 0.0599916534 0.0357814622
v 0.020304101 0.0599020844 0.0360300756
v 0.0203587656 0.059956749 0.0412482023
v 0.0202814655 0.0598794441 0.0412785196
v 0.0204356794 0.0600336628 0.0287840199
v 0.020403121 0.0600010948 0.0342507863
v 0.0204640894 0.0600620728 0.0345161557
v 0.0204955559 0.0600935345 0.0347562623
v 0.0204983501 0.0600963287 0.0352090573
v 0.0204923325 0.0600903111 0.0352783465
v 0.0204579096 0.0600558929 0.0355176377
v 0.0204356794 0.0600336628 0.0412159824
v 0.0205121832 0.0601101665 0.0288181329
v 0.0205007153 0.0600986938 0.0348256874
v 0.0205060987 0.0601040726 0.035
v 0.0205882578 0.0601862411 0.0411458731
v 0.0206638746 0.060261858 0.0288919973
v 0.0207390099 0.0603369884 0.0410682726
v 0.0208136492 0.060411623 0.0289733052
v 0.0208877592 0.0604857426 0.0290167189
v 0.0208877592 0.0604857426 0.0409832811
v 0.0208136492 0.060411623 0.0410266972
v 0.0209613256 0.0605592995 0.029061954
v 0.0209613256 0.0605592995 0.0409380436
v 0.0210343199 0.0606322937 0.0291089988
v 0.0211067228 0.0607047062 0.0408421612
v 0.0211785107 0.0607764893 0.0292084575
v 0.0212496643 0.0608476429 0.0292608404
v 0.0212496643 0.0608476429 0.0407391596
v 0.0211785107 0.0607764893 0.0407915401
v 0.0213201599 0.0609181385 0.029314971
v 0.0213899784 0.060987957 0.0406291628
v 0.021459096 0.0610570793 0.0294284129
v 0.021459096 0.0610570793 0.0405715895
v 0.0215274935 0.0611254768 0.0294876885
v 0.0215951519 0.0611931305 0.0295486403
v 0.0215951519 0.0611931305 0.0404513597
v 0.0215274935 0.0611254768 0.0405123138
v 0.0216620426 0.0612600212 0.0296112561
v 0.0217281513 0.0613261299 0.0403244877
v 0.0217934589 0.0613914375 0.0297413898
v 0.0218579416 0.061455925 0.0298088694
v 0.0218579416 0.061455925 0.0401911306
v 0.0217934589 0.0613914375 0.0402586126
v 0.0219215851 0.0615195637 0.0298779297
v 0.0219843607 0.0615823441 0.0400514507
v 0.0220462589 0.0616442375 0.0300207114
v 0.0221072559 0.0617052345 0.0399056125
v 0.0221673374 0.061765316 0.0301695585
v 0.0222264795 0.0618244629 0.0397537994
v 0.022284668 0.0618826466 0.0303242922
v 0.0223981075 0.0619960861 0.0395152783
v 0.0224533253 0.0620513039 0.0305670118
v 0.0224533253 0.0620513039 0.0394329882
v 0.0225075226 0.0621055012 0.0306506515
v 0.0226127701 0.0622107487 0.0308218813
v 0.0226127701 0.0622107487 0.0391781187
v 0.0225606756 0.062158659 0.0392643833
v 0.0226637964 0.0622617798 0.0309094167
v 0.0227137356 0.0623117142 0.0390017986
v 0.0227625685 0.0623605423 0.031088202
v 0.022856863 0.0624548416 0.0312717533
v 0.022856863 0.0624548416 0.0387282467
v 0.0228102808 0.0624082642 0.0388206053
v 0.0229023008 0.0625002842 0.0313652468
v 0.0229896765 0.0625876598 0.0315555239
v 0.0229896765 0.0625876598 0.0384444761
v 0.0229465752 0.0625445538 0.0385401535
v 0.0230315905 0.0626295738 0.0316522527
v 0.023111804 0.0627097874 0.0318487382
v 0.0231500797 0.0627480583 0.0380515647
v 0.0230723028 0.0626702862 0.0382500005
v 0.0231871204 0.062785099 0.0320490623
v 0.0232229166 0.0628208904 0.037849412
v 0.0232574492 0.0628554325 0.0322529817
v 0.0233533983 0.0629513817 0.0325650573
v 0.0233828001 0.0629807835 0.0373293924
v 0.0233227043 0.0629206829 0.0375397515
v 0.0234108906 0.0630088692 0.0327768683
v 0.0234872465 0.0630852203 0.0330995846
v 0.0234872465 0.0630852203 0.0369004154
v 0.0234631233 0.0630611019 0.0370086098
v 0.0235100298 0.0631080036 0.0332083583
v 0.0235314636 0.0631294422 0.0333176756
v 0.0235702782 0.0631682568 0.033537817
v 0.0236036329 0.0632016163 0.0337597418
v 0.0236433487 0.0632413273 0.0340953755
v 0.0236433487 0.0632413273 0.0359046245
v 0.0236314898 0.0632294731 0.0360168242
v 0.0235876398 0.0631856232 0.0363514256
v 0.0235515528 0.0631495266 0.0365724921
v 0.0235100298 0.0631080036 0.0367916417
v 0.02365382 0.0632517986 0.0342078495
v 0.023662899 0.0632608776 0.0343205643
v 0.0236768799 0.0632748585 0.0345465827
v 0.023685277 0.0632832603 0.0347731543
v 0.023688076 0.0632860546 0.035
v 0.023681777 0.0632797604 0.0353401828
v 0.0236705856 0.0632685642 0.0355665112
v 0.02365382 0.0632517986 0.0357921505
f 2 96 1
f 110 2 1
f 1 96 11
f 110 1 11
f 3 86 2
f 111 3 2
f 2 86 96
f 111 2 110
f 4 87 3
f 112 4 3
f 3 87 86
f 112 3 111
f 5 88 4
f 93 5 4
f 4 88 87
f 93 4 112
f 6 89 5
f 94 6 5
f 5 89 88
f 94 5 93
f 7 90 6
f 113 7 6
f 90 89 6
f 113 6 94
f 8 91 7
f 114 8 7
f 91 90 7
f 114 7 113
f 12 97 8
f 115 12 8
f 8 97 91
f 115 8 114
f 108 10 9
f 10 126 9
f 107 9 17
f 9 130 17
f 108 9 107
f 9 126 131
f 131 130 9
f 11 102 10
f 109 11 10
f 10 101 100
f 10 100 126
f 10 102 101
f 109 10 108
f 11 96 102
f 110 11 109
f 13 97 12
f 115 13 12
f 14 105 13
f 116 14 13
f 13 103 97
f 13 104 103
f 13 105 104
f 116 13 115
f 117 18 14
f 18 132 14
f 14 127 105
f 117 14 116
f 14 132 127
f 119 16 15
f 16 195 15
f 136 15 22
f 15 194 22
f 119 15 137
f 137 15 136
f 15 195 194
f 120 17 16
f 17 150 16
f 120 16 119
f 16 150 164
f 16 164 168
f 16 168 180
f 16 180 184
f 16 184 195
f 107 17 121
f 121 17 120
f 17 130 146
f 146 151 17
f 17 151 150
f 122 19 18
f 19 147 18
f 118 18 117
f 122 18 118
f 18 133 132
f 147 133 18
f 123 20 19
f 20 169 19
f 123 19 122
f 19 152 147
f 153 152 19
f 165 153 19
f 19 169 165
f 138 23 20
f 460 20 23
f 124 20 123
f 138 20 124
f 181 169 20
f 185 181 20
f 20 196 185
f 197 196 20
f 459 197 20
f 459 20 460
f 135 22 21
f 22 194 21
f 135 21 27
f 21 194 27
f 136 22 135
f 139 24 23
f 452 23 24
f 139 23 138
f 451 23 452
f 460 23 451
f 140 28 24
f 452 24 28
f 140 24 139
f 156 26 25
f 26 194 25
f 156 25 32
f 25 194 32
f 141 27 26
f 27 194 26
f 141 26 156
f 135 27 142
f 142 27 141
f 143 29 28
f 437 28 29
f 143 28 140
f 436 28 437
f 452 28 436
f 144 30 29
f 438 29 30
f 144 29 143
f 437 29 438
f 157 33 30
f 431 30 33
f 157 30 144
f 438 30 431
f 155 32 31
f 32 194 31
f 160 31 36
f 31 194 36
f 155 31 160
f 156 32 155
f 157 34 33
f 432 33 34
f 431 33 432
f 158 37 34
f 419 34 37
f 158 34 157
f 432 34 419
f 159 36 35
f 36 194 35
f 172 35 39
f 35 194 39
f 159 35 172
f 160 36 159
f 161 38 37
f 420 37 38
f 161 37 158
f 419 37 420
f 173 40 38
f 415 38 40
f 162 38 161
f 173 38 162
f 420 38 415
f 171 39 42
f 39 194 42
f 172 39 171
f 173 43 40
f 416 40 43
f 415 40 416
f 175 42 41
f 42 194 41
f 188 41 45
f 41 194 45
f 175 41 188
f 171 42 176
f 176 42 175
f 177 44 43
f 404 43 44
f 174 43 173
f 177 43 174
f 403 43 404
f 416 43 403
f 189 46 44
f 399 44 46
f 178 44 177
f 189 44 178
f 404 44 399
f 187 45 47
f 45 194 47
f 188 45 187
f 189 48 46
f 400 46 48
f 399 46 400
f 47 194 49
f 203 47 49
f 187 47 191
f 191 47 203
f 192 50 48
f 384 48 50
f 190 48 189
f 192 48 190
f 383 48 384
f 400 48 383
f 49 194 52
f 203 49 52
f 204 53 50
f 369 50 53
f 204 50 192
f 380 50 369
f 384 50 380
f 52 194 51
f 205 52 51
f 51 194 55
f 215 51 55
f 205 51 215
f 203 52 205
f 204 54 53
f 370 53 54
f 369 53 370
f 216 56 54
f 366 54 56
f 206 54 204
f 216 54 206
f 370 54 366
f 55 194 58
f 215 55 58
f 216 59 56
f 366 56 59
f 58 194 57
f 217 58 57
f 57 194 61
f 230 57 61
f 217 57 230
f 215 58 217
f 216 60 59
f 356 59 60
f 366 59 356
f 231 62 60
f 353 60 62
f 218 60 216
f 231 60 218
f 356 60 353
f 61 194 63
f 229 61 63
f 230 61 229
f 231 64 62
f 354 62 64
f 353 62 354
f 63 194 65
f 243 63 65
f 229 63 233
f 233 63 243
f 244 66 64
f 338 64 66
f 232 64 231
f 234 64 232
f 244 64 234
f 340 64 338
f 354 64 340
f 65 194 67
f 245 65 67
f 243 65 245
f 244 68 66
f 328 66 68
f 338 66 328
f 67 194 69
f 257 67 69
f 245 67 257
f 246 70 68
f 328 68 70
f 246 68 244
f 69 194 72
f 259 69 72
f 257 69 259
f 258 73 70
f 309 70 73
f 258 70 246
f 326 70 309
f 328 70 326
f 72 194 71
f 277 72 71
f 71 194 75
f 277 71 75
f 259 72 277
f 260 74 73
f 310 73 74
f 260 73 258
f 309 73 310
f 278 76 74
f 306 74 76
f 278 74 260
f 310 74 306
f 75 194 77
f 277 75 77
f 278 78 76
f 294 76 78
f 306 76 294
f 77 194 79
f 286 77 79
f 277 77 279
f 279 77 286
f 280 80 78
f 294 78 80
f 280 78 278
f 79 194 81
f 285 79 81
f 286 79 285
f 287 82 80
f 292 80 82
f 287 80 280
f 294 80 292
f 81 194 83
f 295 81 83
f 285 81 289
f 289 81 295
f 282 82 84
f 296 84 82
f 284 82 282
f 292 82 284
f 288 82 287
f 290 82 288
f 296 82 290
f 83 194 85
f 297 83 85
f 295 83 297
f 276 84 92
f 296 92 84
f 282 84 276
f 85 194 95
f 311 85 95
f 297 85 311
f 299 86 87
f 314 96 86
f 298 86 299
f 314 86 298
f 300 87 88
f 299 87 300
f 301 88 89
f 300 88 301
f 302 89 90
f 301 89 302
f 303 90 91
f 302 90 303
f 316 91 97
f 303 91 315
f 315 91 316
f 266 92 98
f 304 98 92
f 276 92 266
f 304 92 296
f 300 94 93
f 299 93 112
f 300 93 299
f 94 301 113
f 301 94 300
f 95 194 99
f 319 95 99
f 311 95 319
f 313 102 96
f 313 96 314
f 316 97 103
f 256 98 106
f 318 106 98
f 266 98 256
f 318 98 304
f 99 194 125
f 329 99 125
f 319 99 329
f 321 100 101
f 330 126 100
f 320 100 321
f 330 100 320
f 313 101 102
f 312 101 313
f 321 101 312
f 317 103 104
f 316 103 317
f 323 104 105
f 317 104 322
f 322 104 323
f 331 105 127
f 323 105 331
f 256 106 128
f 324 128 106
f 324 106 318
f 334 108 107
f 342 107 121
f 334 107 342
f 330 109 108
f 330 108 334
f 313 110 109
f 313 109 312
f 312 109 321
f 321 109 320
f 320 109 330
f 313 111 110
f 298 112 111
f 298 111 314
f 314 111 313
f 299 112 298
f 113 302 114
f 113 301 302
f 114 315 115
f 114 302 303
f 114 303 315
f 115 316 116
f 315 316 115
f 116 323 117
f 116 316 317
f 116 317 322
f 116 322 323
f 117 331 118
f 117 323 331
f 118 335 122
f 118 331 335
f 388 120 119
f 571 119 137
f 388 119 387
f 387 119 571
f 346 121 120
f 346 120 358
f 358 120 362
f 362 120 372
f 372 120 376
f 376 120 388
f 342 121 347
f 347 121 346
f 122 343 123
f 122 335 343
f 123 363 124
f 343 348 123
f 123 348 349
f 123 349 359
f 123 359 363
f 124 390 138
f 124 363 373
f 124 373 377
f 377 389 124
f 389 390 124
f 125 194 129
f 329 125 129
f 330 131 126
f 331 127 132
f 250 128 134
f 332 134 128
f 256 128 250
f 332 128 324
f 129 194 145
f 341 129 145
f 329 129 333
f 333 129 341
f 330 130 131
f 342 146 130
f 334 130 330
f 342 130 334
f 335 132 133
f 331 132 335
f 343 133 147
f 335 133 343
f 242 134 148
f 336 148 134
f 250 134 242
f 336 134 332
f 567 136 135
f 567 135 142
f 568 137 136
f 568 136 567
f 571 137 568
f 138 390 139
f 139 390 140
f 140 390 143
f 565 142 141
f 562 141 156
f 565 141 562
f 567 142 565
f 143 390 144
f 144 390 157
f 145 194 149
f 341 145 149
f 342 151 146
f 343 147 152
f 238 148 154
f 344 154 148
f 242 148 238
f 344 148 336
f 149 194 163
f 357 149 163
f 341 149 345
f 345 149 357
f 347 150 151
f 358 164 150
f 346 150 347
f 358 150 346
f 347 151 342
f 349 152 153
f 343 152 348
f 348 152 349
f 359 153 165
f 349 153 359
f 222 154 166
f 360 166 154
f 228 154 222
f 238 154 228
f 350 154 344
f 360 154 350
f 561 156 155
f 561 155 160
f 562 156 561
f 157 390 158
f 158 390 161
f 557 160 159
f 557 159 172
f 558 160 557
f 561 160 558
f 161 390 162
f 162 390 173
f 163 194 167
f 361 163 167
f 357 163 361
f 358 168 164
f 359 165 169
f 214 166 170
f 360 170 166
f 222 166 214
f 167 194 179
f 371 167 179
f 361 167 371
f 372 180 168
f 362 168 358
f 372 168 362
f 373 169 181
f 359 169 363
f 363 169 373
f 210 170 182
f 374 182 170
f 214 170 210
f 364 170 360
f 374 170 364
f 553 172 171
f 553 171 176
f 554 172 553
f 557 172 554
f 173 390 174
f 174 390 177
f 551 176 175
f 551 175 188
f 553 176 551
f 177 390 178
f 178 390 189
f 179 194 183
f 375 179 183
f 371 179 375
f 372 184 180
f 373 181 185
f 202 182 186
f 374 186 182
f 210 182 202
f 183 194 193
f 385 183 193
f 375 183 386
f 386 183 385
f 388 195 184
f 376 184 372
f 388 184 376
f 389 185 196
f 373 185 377
f 377 185 389
f 202 186 198
f 391 198 186
f 378 186 374
f 391 186 378
f 547 188 187
f 547 187 191
f 548 188 547
f 551 188 548
f 189 390 190
f 190 390 192
f 543 191 203
f 545 191 543
f 547 191 545
f 192 390 204
f 193 194 199
f 393 193 199
f 385 193 393
f 388 194 195
f 199 194 200
f 387 200 194
f 387 194 388
f 390 196 197
f 389 196 390
f 389 197 201
f 201 197 459
f 390 197 389
f 392 202 198
f 392 198 391
f 199 200 207
f 405 199 207
f 393 199 405
f 207 200 211
f 223 200 208
f 406 208 200
f 211 200 219
f 219 200 223
f 388 200 387
f 394 200 388
f 406 200 394
f 407 201 209
f 459 209 201
f 389 201 395
f 395 201 407
f 408 210 202
f 396 202 392
f 408 202 396
f 541 203 205
f 543 203 541
f 204 390 206
f 541 205 215
f 206 390 216
f 409 207 211
f 405 207 409
f 247 208 212
f 406 212 208
f 223 208 235
f 235 208 239
f 239 208 247
f 407 209 213
f 459 213 209
f 408 214 210
f 421 211 219
f 409 211 421
f 281 212 220
f 422 220 212
f 247 212 251
f 251 212 261
f 261 212 267
f 267 212 281
f 410 212 406
f 422 212 410
f 423 213 221
f 458 221 213
f 407 213 411
f 411 213 423
f 458 213 459
f 412 222 214
f 412 214 408
f 537 215 217
f 539 215 537
f 541 215 539
f 390 218 216
f 537 217 230
f 218 538 231
f 390 538 218
f 425 219 223
f 421 219 425
f 291 220 224
f 422 224 220
f 281 220 283
f 283 220 291
f 423 221 227
f 458 227 221
f 424 228 222
f 424 222 412
f 439 223 235
f 425 223 439
f 325 224 225
f 440 225 224
f 291 224 293
f 293 224 305
f 305 224 307
f 307 224 308
f 308 224 325
f 426 224 422
f 440 224 426
f 327 225 236
f 441 236 225
f 325 225 327
f 441 225 440
f 442 227 226
f 458 226 227
f 442 226 237
f 237 226 458
f 423 227 427
f 427 227 443
f 443 227 442
f 428 238 228
f 428 228 424
f 533 230 229
f 531 229 233
f 533 229 531
f 534 230 533
f 537 230 534
f 231 535 232
f 231 538 535
f 232 536 234
f 232 535 536
f 531 233 243
f 234 532 244
f 234 536 532
f 439 235 239
f 339 236 240
f 441 240 236
f 327 236 337
f 337 236 339
f 442 237 241
f 457 241 237
f 457 237 458
f 444 242 238
f 444 238 428
f 461 239 247
f 439 239 445
f 445 239 461
f 367 240 248
f 462 248 240
f 339 240 351
f 351 240 352
f 352 240 355
f 355 240 365
f 365 240 367
f 446 240 441
f 462 240 446
f 464 241 249
f 478 249 241
f 442 241 447
f 447 241 465
f 478 241 457
f 465 241 464
f 448 250 242
f 448 242 444
f 527 243 245
f 528 243 527
f 531 243 528
f 244 529 246
f 244 532 529
f 523 245 257
f 525 245 523
f 527 245 525
f 246 526 258
f 246 530 526
f 246 529 530
f 461 247 251
f 382 248 252
f 463 252 248
f 367 248 368
f 368 248 379
f 379 248 381
f 381 248 382
f 463 248 462
f 464 249 255
f 477 255 249
f 477 249 478
f 466 256 250
f 466 250 448
f 490 251 261
f 461 251 467
f 467 251 489
f 489 251 490
f 401 252 253
f 468 253 252
f 382 252 397
f 397 252 398
f 398 252 401
f 468 252 463
f 479 253 262
f 491 262 253
f 401 253 402
f 402 253 413
f 413 253 414
f 414 253 417
f 417 253 418
f 418 253 429
f 429 253 430
f 430 253 433
f 433 253 434
f 434 253 435
f 435 253 449
f 449 253 450
f 450 253 453
f 453 253 454
f 454 253 455
f 455 253 456
f 456 253 473
f 469 253 468
f 491 253 469
f 473 253 474
f 474 253 475
f 475 253 479
f 470 255 254
f 476 254 255
f 488 265 254
f 494 254 265
f 470 254 494
f 488 254 476
f 464 255 471
f 471 255 470
f 476 255 477
f 496 266 256
f 472 256 466
f 496 256 472
f 520 257 259
f 523 257 520
f 258 524 260
f 258 526 524
f 519 259 277
f 520 259 519
f 260 521 278
f 260 524 521
f 497 261 267
f 490 261 497
f 479 262 263
f 491 263 262
f 480 263 268
f 492 268 263
f 479 263 480
f 492 263 491
f 488 264 265
f 493 265 264
f 487 275 264
f 493 264 275
f 487 264 488
f 494 265 493
f 495 276 266
f 495 266 496
f 505 267 281
f 497 267 505
f 481 268 269
f 492 269 268
f 480 268 481
f 482 269 270
f 498 270 269
f 481 269 482
f 498 269 492
f 483 270 271
f 499 271 270
f 482 270 483
f 499 270 498
f 271 272 484
f 506 272 271
f 483 271 484
f 500 271 499
f 506 271 500
f 485 272 273
f 501 273 272
f 484 272 485
f 501 272 507
f 507 272 506
f 486 273 274
f 502 274 273
f 485 273 486
f 502 273 501
f 274 275 487
f 503 275 274
f 486 274 487
f 503 274 502
f 493 275 503
f 508 282 276
f 504 276 495
f 508 276 504
f 515 277 279
f 517 277 515
f 519 277 517
f 278 518 280
f 278 522 518
f 278 521 522
f 512 279 286
f 515 279 512
f 280 516 287
f 280 518 516
f 509 281 283
f 505 281 509
f 508 284 282
f 511 283 291
f 509 283 511
f 510 292 284
f 510 284 508
f 511 286 285
f 509 285 289
f 511 285 509
f 512 286 511
f 287 513 288
f 287 516 513
f 288 514 290
f 288 513 514
f 509 289 295
f 290 510 296
f 290 514 510
f 512 291 293
f 511 291 512
f 514 294 292
f 514 292 510
f 517 293 305
f 512 293 515
f 515 293 517
f 518 306 294
f 513 294 514
f 516 294 513
f 518 294 516
f 505 295 297
f 509 295 505
f 296 508 304
f 296 510 508
f 490 297 311
f 497 297 490
f 505 297 497
f 304 504 318
f 304 508 504
f 519 305 307
f 517 305 519
f 518 310 306
f 520 307 308
f 519 307 520
f 523 308 325
f 520 308 523
f 522 309 310
f 521 326 309
f 521 309 522
f 522 310 518
f 489 311 319
f 490 311 489
f 318 495 324
f 318 504 495
f 461 319 329
f 467 319 461
f 489 319 467
f 324 472 332
f 324 496 472
f 324 495 496
f 523 325 327
f 524 328 326
f 524 326 521
f 528 327 337
f 523 327 525
f 525 327 527
f 527 327 528
f 530 338 328
f 526 328 524
f 530 328 526
f 445 329 333
f 461 329 445
f 332 466 336
f 332 472 466
f 439 333 341
f 445 333 439
f 336 448 344
f 336 466 448
f 531 337 339
f 528 337 531
f 529 340 338
f 529 338 530
f 533 339 351
f 531 339 533
f 532 354 340
f 532 340 529
f 425 341 345
f 439 341 425
f 344 444 350
f 344 448 444
f 425 345 357
f 350 428 360
f 350 444 428
f 534 351 352
f 533 351 534
f 537 352 355
f 534 352 537
f 536 353 354
f 535 356 353
f 535 353 536
f 536 354 532
f 539 355 365
f 537 355 539
f 538 366 356
f 538 356 535
f 409 357 361
f 421 357 409
f 425 357 421
f 360 424 364
f 360 428 424
f 409 361 371
f 364 412 374
f 364 424 412
f 541 365 367
f 539 365 541
f 540 370 366
f 540 366 538
f 543 367 368
f 541 367 543
f 543 368 379
f 542 369 370
f 544 380 369
f 544 369 542
f 542 370 540
f 405 371 375
f 409 371 405
f 374 408 378
f 374 412 408
f 393 375 386
f 405 375 393
f 378 408 391
f 543 379 381
f 544 384 380
f 545 381 382
f 543 381 545
f 547 382 397
f 545 382 547
f 544 383 384
f 550 400 383
f 546 383 544
f 550 383 546
f 393 386 385
f 387 571 388
f 388 571 394
f 389 538 390
f 395 538 389
f 391 396 392
f 391 408 396
f 394 571 406
f 407 538 395
f 548 397 398
f 547 397 548
f 551 398 401
f 548 398 551
f 550 399 400
f 549 404 399
f 549 399 550
f 553 401 402
f 551 401 553
f 553 402 413
f 552 403 404
f 556 416 403
f 556 403 552
f 552 404 549
f 406 571 410
f 411 540 407
f 407 540 538
f 410 571 422
f 423 540 411
f 554 413 414
f 553 413 554
f 557 414 417
f 554 414 557
f 556 415 416
f 555 420 415
f 555 415 556
f 558 417 418
f 557 417 558
f 561 418 429
f 558 418 561
f 560 419 420
f 564 432 419
f 559 419 560
f 564 419 559
f 560 420 555
f 422 571 426
f 427 540 423
f 426 571 440
f 443 540 427
f 562 429 430
f 561 429 562
f 562 430 433
f 564 431 432
f 563 438 431
f 563 431 564
f 565 433 434
f 562 433 565
f 567 434 435
f 565 434 567
f 567 435 449
f 566 436 437
f 570 452 436
f 570 436 566
f 563 437 438
f 566 437 563
f 440 571 441
f 441 571 446
f 442 540 443
f 447 540 442
f 446 571 462
f 465 540 447
f 568 449 450
f 567 449 568
f 568 450 453
f 570 451 452
f 569 460 451
f 569 451 570
f 571 453 454
f 568 453 571
f 572 454 455
f 571 454 572
f 576 455 456
f 572 455 575
f 575 455 576
f 576 456 473
f 584 457 458
f 583 478 457
f 583 457 584
f 574 458 459
f 573 458 574
f 584 458 573
f 569 459 460
f 574 459 569
f 462 571 463
f 463 571 468
f 464 542 465
f 471 550 464
f 464 544 542
f 464 546 544
f 464 550 546
f 465 542 540
f 468 571 469
f 469 571 491
f 470 552 471
f 494 555 470
f 470 556 552
f 470 555 556
f 471 549 550
f 471 552 549
f 577 473 474
f 576 473 577
f 578 474 475
f 577 474 578
f 578 475 479
f 582 476 477
f 581 488 476
f 581 476 582
f 583 477 478
f 582 477 583
f 579 479 480
f 578 479 579
f 586 480 481
f 579 480 585
f 585 480 586
f 587 481 482
f 586 481 587
f 588 482 483
f 587 482 588
f 589 483 484
f 588 483 589
f 590 484 485
f 589 484 590
f 591 485 486
f 590 485 591
f 592 486 487
f 591 486 592
f 581 487 488
f 580 487 581
f 592 487 580
f 491 571 492
f 492 571 498
f 493 564 494
f 503 569 493
f 493 563 564
f 493 566 563
f 493 570 566
f 493 569 570
f 494 560 555
f 494 559 560
f 494 564 559
f 498 576 499
f 498 571 572
f 498 572 575
f 498 575 576
f 499 585 500
f 499 576 577
f 499 577 578
f 499 578 579
f 499 579 585
f 500 586 506
f 500 585 586
f 501 592 502
f 507 591 501
f 501 591 592
f 502 583 503
f 502 580 581
f 502 592 580
f 502 581 582
f 502 582 583
f 503 574 569
f 503 573 574
f 503 584 573
f 503 583 584
f 506 589 507
f 506 586 587
f 506 587 588
f 506 588 589
f 507 589 590
f 507 590 591
