v 0.0114696045 0.0366136532 -0.0702897072
v 0.0114426155 0.0366406422 -0.0700837779
v 0.0114181728 0.0366650848 -0.0698772144
v 0.011396286 0.0366869764 -0.0696700764
v 0.0113601894 0.0367230682 -0.0692543411
v 0.0113459988 0.0367372637 -0.0690458679
v 0.0113343735 0.0367488842 -0.0688370776
v 0.0113253326 0.036757925 -0.0686280322
v 0.0113188763 0.0367643814 -0.0684187937
v 0.0113150043 0.0367682581 -0.0682094288
v 0.0113137073 0.0367695503 -0.0679999995
v 0.0116844768 0.0363987856 -0.07150846
v 0.0116424103 0.0364408474 -0.0713076472
v 0.0116028328 0.0364804249 -0.0711058283
v 0.0115657539 0.0365175037 -0.0709030628
v 0.0115311832 0.0365520744 -0.0706994128
v 0.0119882507 0.0360950117 -0.0726887727
v 0.0118773003 0.0362059622 -0.072300415
v 0.0118254299 0.0362578278 -0.0721042418
v 0.011776001 0.0363072615 -0.071906817
v 0.012172472 0.0359107905 -0.0732604527
v 0.0121087093 0.0359745483 -0.0730714202
v 0.0120473022 0.0360359602 -0.0728808403
v 0.0124505253 0.0356327419 -0.074000001
v 0.0123775978 0.0357056646 -0.0738177156
v 0.0123069305 0.0357763319 -0.0736336589
v 0.0126826305 0.0354006271 -0.0745356679
v 0.0126030655 0.035480197 -0.0743590307
v 0.0127479477 0.03533531 -0.0687521315
v 0.0127432556 0.0353400021 -0.0686582589
v 0.0127357502 0.0353475123 -0.0684703517
v 0.0127291698 0.0353540878 -0.0681882
v 0.0127279205 0.0353553372 -0.0679999995
v 0.0125256843 0.0355575781 -0.0741804576
v 0.0129342575 0.0351490097 -0.0750534248
v 0.0128482551 0.0352350073 -0.0748829174
v 0.0129890652 0.0350941973 -0.0706925464
v 0.0129484959 0.0351347666 -0.0704781866
v 0.0128939743 0.0351892929 -0.0701543903
v 0.0128618641 0.0352213936 -0.0699371791
v 0.01276437 0.0353188877 -0.0747103143
v 0.0129444427 0.0352822952 -0.0700132227
v 0.0128732796 0.0352821522 -0.0697511816
v 0.0128331776 0.0352500801 -0.0697190118
v 0.012798254 0.0352850084 -0.0694068956
v 0.0127807732 0.0353024893 -0.0692203188
v 0.0127592106 0.0353240519 -0.0689396644
v 0.0128215809 0.035426486 -0.0685634041
v 0.0128190441 0.0354408293 -0.0682815981
v 0.0128183193 0.0354451113 -0.068093822
v 0.0128182335 0.0354456501 -0.0679999995
v 0.0129935284 0.0357034474 -0.070266161
v 0.0128666992 0.0357491427 -0.0700085115
v 0.0128005237 0.0357430391 -0.0697581053
v 0.0127789421 0.035733531 -0.0695000005
v 0.0127777595 0.0357463484 -0.0679999995
v 0.0129747124 0.0359885006 -0.070266161
v 0.012853138 0.0359857683 -0.0700085115
v 0.012786705 0.0359842711 -0.0697581053
v 0.0127645035 0.0359768801 -0.0695000005
v 0.0127642364 0.0359887295 -0.0679999995
v 0.0129775162 0.0362170439 -0.070266161
v 0.0128560467 0.0362227612 -0.0700085115
v 0.0127896709 0.0362258844 -0.0697581053
v 0.0127670307 0.036220644 -0.0695000005
v 0.0127675362 0.0362314634 -0.0679999995
v 0.0129961891 0.0364448433 -0.070266161
v 0.0128754063 0.0364589815 -0.0700085115
v 0.0128094025 0.0364667063 -0.0697581053
v 0.0127865238 0.0364636402 -0.0695000005
v 0.0127876682 0.0364733868 -0.0679999995
v 0.012931406 0.0367496138 -0.0700328374
v 0.0128458137 0.0367055731 -0.0697581053
v 0.0128228874 0.0367046862 -0.0695000005
v 0.0128245087 0.0367133312 -0.0679999995
v 0.0129784889 0.0369817524 -0.0700085115
v 0.0129144974 0.0369996624 -0.0697581053
v 0.0128759403 0.0369426231 -0.0695000005
v 0.0128778953 0.0369501429 -0.0679999995
v 0.0129949589 0.0370386868 -0.0700085115
v 0.0129876633 0.0372299509 -0.0697581053
v 0.0129653187 0.0372338991 -0.0695000005
v 0.0129675026 0.0372400217 -0.0679999995
v 0.0129862232 0.0372911577 -0.0695000005
v 0.0129884167 0.0372970038 -0.0679999995
v 0.0132046909 0.0348785715 -0.0755518436
v 0.0131124992 0.0349707632 -0.0753879356
v 0.0132417602 0.034841507 -0.0717423749
v 0.0131573219 0.0349259405 -0.0714316821
v 0.0131051083 0.0349781494 -0.0712224197
v 0.0130223389 0.0350609188 -0.0752217817
v 0.013080246 0.0350030213 -0.0711171865
v 0.0130329914 0.0350502758 -0.0709055829
v 0.0132189674 0.0353966551 -0.0705017805
v 0.013054945 0.0353168993 -0.0702586794
v 0.013001997 0.035297473 -0.0701538968
v 0.0131779404 0.0357236939 -0.0705154157
v 0.0130068893 0.035704916 -0.0702883458
v 0.0130037899 0.0355314808 -0.0702437472
v 0.0131601925 0.0359926682 -0.0705154157
v 0.0130019684 0.035989111 -0.0703102946
v 0.0131628342 0.0362083273 -0.0705154157
v 0.0130047531 0.036215766 -0.0703102946
v 0.0131871815 0.0364767866 -0.0705154157
v 0.0130166454 0.0364997559 -0.0702883458
v 0.0132346935 0.0367419796 -0.0705154157
v 0.013201086 0.0367495279 -0.0704766297
v 0.013004467 0.0367345409 -0.0701982594
v 0.0132469959 0.036794632 -0.0705154157
v 0.0131375999 0.0369960814 -0.0703102946
v 0.0130057163 0.0369741373 -0.0700810051
v 0.013184454 0.0372204809 -0.070266161
v 0.0131066914 0.0372497301 -0.0701048303
v 0.01300214 0.0372247868 -0.0698343825
v 0.01324897 0.0373793154 -0.070266161
v 0.0131617279 0.0374820976 -0.0700085115
v 0.0131265945 0.0374981814 -0.0698847461
v 0.0130548592 0.0374606352 -0.0695000005
v 0.0130570526 0.0374656563 -0.0679999995
v 0.0132399006 0.0376417618 -0.0700085115
v 0.0132094402 0.0377258377 -0.0697581053
v 0.0131886215 0.0377343874 -0.0695000005
v 0.0131906338 0.0377380829 -0.0679999995
v 0.0132387943 0.0377786427 -0.0697581053
v 0.0132487125 0.0378404551 -0.0695000005
v 0.0132201595 0.0377911215 -0.0679999995
v 0.0134931965 0.034590066 -0.0760295677
v 0.0133950634 0.0346881943 -0.0758727074
v 0.0134668465 0.0346164112 -0.0724506164
v 0.0133656235 0.034717639 -0.0721501255
v 0.0132988853 0.0347843723 -0.0757134533
v 0.0133020897 0.0347811728 -0.0719472218
v 0.0132602711 0.035420125 -0.0705501127
v 0.0134856434 0.0355657988 -0.0707548261
v 0.0133953304 0.0355041247 -0.0706832194
v 0.0134357567 0.035998867 -0.0707504916
v 0.0132519741 0.0359947329 -0.070606966
v 0.0134409065 0.0362444334 -0.0707504916
v 0.0133566303 0.0362498694 -0.0706902456
v 0.0134673328 0.0364886313 -0.0707504916
v 0.0134043331 0.0364982348 -0.0707058525
v 0.0134933395 0.0366337233 -0.0707504916
v 0.0134923096 0.0367122727 -0.0707384443
v 0.0134836979 0.0369990616 -0.0706742811
v 0.0132562275 0.0369606476 -0.0704766297
v 0.013414175 0.0372486334 -0.0705343556
v 0.0132710285 0.0372476606 -0.0703746629
v 0.0134875698 0.0374515514 -0.0705154157
v 0.0133988304 0.0374959593 -0.0703956056
v 0.0132622642 0.0374996595 -0.0701982594
v 0.0134309883 0.0377352982 -0.070266161
v 0.013408844 0.0377483778 -0.0702211118
v 0.0132530899 0.0377020578 -0.0699594092
v 0.0134908218 0.0378326874 -0.070266161
v 0.0134538288 0.0379969053 -0.0700085115
v 0.0133652706 0.0379845266 -0.0697581053
v 0.0133456821 0.0379954748 -0.0695000005
v 0.0133473034 0.0379979162 -0.0679999995
v 0.0134878654 0.0380454235 -0.0700085115
v 0.0134693451 0.0381329088 -0.0697581053
v 0.0134873123 0.0381938868 -0.0695000005
v 0.0134884758 0.0381954031 -0.0679999995
v 0.0136951847 0.034388073 -0.0763359022
v 0.0135932465 0.0344900112 -0.0761839819
v 0.0137301178 0.0343531399 -0.0731320238
v 0.0136510963 0.0344321661 -0.0729403162
v 0.0135750885 0.0345081692 -0.0727461791
v 0.0135131473 0.035585392 -0.0707742715
v 0.0137437553 0.0357632523 -0.0709004283
v 0.0135067291 0.0362401896 -0.070791769
v 0.0137209721 0.0364836149 -0.0709497094
v 0.0135200233 0.0366845541 -0.0707615256
v 0.0135156555 0.0367399101 -0.0707493854
v 0.0137162704 0.0369881134 -0.0708212352
v 0.0135030765 0.0369925337 -0.0706902456
v 0.0137432499 0.0370222597 -0.0708283377
v 0.0136720772 0.0372485142 -0.0707359815
v 0.0137340755 0.0373282032 -0.0707504916
v 0.0137300033 0.0374999313 -0.0706902456
v 0.0137217159 0.0377481299 -0.070571301
v 0.0136325283 0.0377422123 -0.0704961729
v 0.0137377567 0.0378668861 -0.0705154157
v 0.0137484093 0.0379946928 -0.0704366779
v 0.013555891 0.0379968195 -0.0701982594
v 0.0137260551 0.038155983 -0.070266161
v 0.0137077637 0.0382467966 -0.0701284766
v 0.0136133785 0.0382489472 -0.0699346495
v 0.0135248585 0.038241909 -0.0695000005
v 0.0135258884 0.038243206 -0.0679999995
v 0.0137487621 0.0383673124 -0.0700085115
v 0.0137410278 0.0384564524 -0.0697581053
v 0.0137247772 0.0384718304 -0.0695000005
v 0.0137250442 0.0384721069 -0.0679999995
v 0.0139046211 0.0341786413 -0.0766320753
v 0.0139849777 0.0340982895 -0.0736916089
v 0.0138542576 0.0342290049 -0.0734148169
v 0.0137989921 0.0342842703 -0.076485281
v 0.0138121338 0.0342711239 -0.0733212042
v 0.0137707539 0.0343125038 -0.0732269359
v 0.0137603874 0.0357769661 -0.0709072447
v 0.0139756412 0.0362289362 -0.0712555718
v 0.0139589329 0.0362456493 -0.071232574
v 0.0139684029 0.0362361746 -0.0709686995
v 0.0137872524 0.0364173298 -0.0710210204
v 0.0137656803 0.0364388971 -0.0709972501
v 0.0139650268 0.0367335825 -0.0710246754
v 0.0138976498 0.036749733 -0.0709792852
v 0.0139800186 0.0368116264 -0.0710070801
v 0.0139938469 0.0369875078 -0.070960331
v 0.0139165897 0.0372392492 -0.0708631468
v 0.0139786072 0.0373151426 -0.0708719254
v 0.0137662716 0.0374793511 -0.0707210994
v 0.0139909573 0.0377463894 -0.0707504916
v 0.0139101906 0.0377437 -0.0707058525
v 0.0139253254 0.0379915695 -0.0705892968
v 0.0137613983 0.0379847174 -0.0704567981
v 0.0139752407 0.038159874 -0.0705154157
v 0.0139630623 0.0382458382 -0.0704366779
v 0.013752882 0.03820823 -0.0702437472
v 0.0139988632 0.0384484272 -0.070266161
v 0.013956644 0.0384929304 -0.0701519346
v 0.0137864323 0.0384967165 -0.0697836185
v 0.0139585895 0.0385771446 -0.0700085115
v 0.0139137287 0.0386261683 -0.0697581053
v 0.0139899464 0.038723486 -0.0695000005
v 0.013989069 0.0387227421 -0.0679999995
v 0.0142321415 0.0338511162 -0.0770565128
v 0.0141212292 0.0339620333 -0.0769177389
v 0.0142170734 0.0338661842 -0.0741387701
v 0.0141221352 0.0339611273 -0.0739620972
v 0.014012043 0.0340712195 -0.0767762423
v 0.0140757103 0.0340075522 -0.0738726544
v 0.0142107887 0.0359937887 -0.0716390848
v 0.0142207069 0.0359838753 -0.0714422178
v 0.0140038223 0.035989974 -0.0709771609
v 0.0141432972 0.0360612898 -0.0715159345
v 0.0140077324 0.0361968498 -0.0713010979
v 0.0141469498 0.0360576372 -0.0711431217
v 0.0141125889 0.0360919933 -0.070992372
v 0.0142258472 0.0364943581 -0.0713033056
v 0.0140923042 0.0364977245 -0.0712052488
v 0.0142391319 0.0365933972 -0.0712600732
v 0.0142191524 0.0367412071 -0.0711760926
v 0.0141945286 0.0369881611 -0.0710626149
v 0.0140550918 0.0369924955 -0.0709896946
v 0.0142006607 0.0371578436 -0.0710078382
v 0.0141313095 0.0372484951 -0.0709501171
v 0.0141086597 0.0374701433 -0.0708855295
v 0.0142463417 0.0376270657 -0.0708941841
v 0.0142277832 0.0379946499 -0.0707646298
v 0.0141626186 0.0379881935 -0.0707359815
v 0.0142461605 0.0380449801 -0.0707504916
v 0.0141897507 0.0382472401 -0.070606966
v 0.0142466946 0.0384220629 -0.0705154157
v 0.0141822166 0.0384974985 -0.0703956056
v 0.0140318985 0.0384970884 -0.0702437472
v 0.0142143173 0.0386358338 -0.070266161
v 0.0142024727 0.0387450581 -0.0700810051
v 0.0141281433 0.0387440567 -0.0699594092
v 0.0140475387 0.0387481718 -0.0697325158
v 0.0142325611 0.0388031702 -0.0700085115
v 0.0142418499 0.0388921099 -0.0697581053
v 0.0142299862 0.0389111309 -0.0695000005
v 0.0142280216 0.0389097242 -0.0679999995
v 0.0144590301 0.0336242323 -0.0773257494
v 0.0143447609 0.0337385063 -0.0771925354
v 0.0144663544 0.0336169033 -0.0745670438
v 0.0144151611 0.0336680966 -0.0744829655
v 0.0143147678 0.0337684898 -0.0743124223
v 0.0142655868 0.0338176756 -0.0742259789
v 0.01438554 0.0358190422 -0.072034421
v 0.0142737598 0.0359308224 -0.0717666745
v 0.0142532844 0.0359512978 -0.0717236638
v 0.0144699974 0.0361501675 -0.071766026
v 0.0144341297 0.0362276726 -0.0716606355
v 0.0144634743 0.0364584761 -0.0715097165
v 0.0144472618 0.0364863043 -0.0714775038
v 0.0143603916 0.0367457419 -0.0712634134
v 0.0142945881 0.036734107 -0.071226902
v 0.0144298954 0.0368463116 -0.0712568259
v 0.0144613953 0.036997159 -0.0712031293
v 0.0144182701 0.0372329216 -0.071082387
v 0.0144384403 0.0374872618 -0.0710012412
v 0.0143445129 0.03748843 -0.0709653902
v 0.0144867153 0.0375385599 -0.0710026097
v 0.0143543453 0.0377443152 -0.0708976531
v 0.0144661922 0.0378598528 -0.0708987069
v 0.0144634075 0.0382441311 -0.0707504916
v 0.0143980045 0.0382450228 -0.0707210994
v 0.0144587631 0.0384978991 -0.0705892968
v 0.0142554207 0.0384962158 -0.0704567981
v 0.0144590111 0.0385881405 -0.0705154157
v 0.0144845409 0.0387447577 -0.0703746629
v 0.0143435783 0.0387497168 -0.0702437472
v 0.0144932098 0.0388350849 -0.070266161
v 0.0144779987 0.0389690333 -0.0700085115
v 0.0144613666 0.0389961081 -0.0699097586
v 0.0143304272 0.0389802199 -0.0695000005
v 0.0143279858 0.0389785986 -0.0679999995
v 0.0144949741 0.0390568333 -0.0697581053
v 0.0144854469 0.0390771895 -0.0695000005
v 0.0144822616 0.0390753107 -0.0679999995
v 0.0146924229 0.0333908396 -0.0775836277
v 0.014732048 0.0333512144 -0.0749751091
v 0.0145749302 0.0335083323 -0.077456131
v 0.0145707054 0.0335125523 -0.0747327662
v 0.0145043106 0.0358298473 -0.0721909523
v 0.014714405 0.0360119276 -0.0722337294
v 0.01466963 0.0362282019 -0.0719041729
v 0.0145117683 0.0362245016 -0.0717400193
v 0.0147163887 0.0364157467 -0.0717696691
v 0.0146702785 0.0364899998 -0.0716629243
v 0.0146745891 0.0367103176 -0.0715033889
v 0.0146552486 0.0367371779 -0.0714710999
v 0.0146197815 0.036985157 -0.0713015723
v 0.0147175903 0.0371739416 -0.0712604618
v 0.0146617432 0.0372372894 -0.0711998105
v 0.0147282143 0.0374934273 -0.0711176229
v 0.0146852894 0.0377413445 -0.0710039496
v 0.0145849914 0.0377410297 -0.0709702229
v 0.0147361774 0.0377910118 -0.0710033369
v 0.0145815582 0.0379724388 -0.0708974957
v 0.014738142 0.0381161146 -0.0708922172
v 0.014741375 0.0384463911 -0.0707504916
v 0.0147183723 0.0384824209 -0.0707210994
v 0.0147403641 0.0387467747 -0.0705343556
v 0.0146207161 0.0387366991 -0.0704766297
v 0.0147316189 0.0387621861 -0.0705154157
v 0.0147404404 0.0389782124 -0.070266161
v 0.0147343941 0.0389897852 -0.0702437472
v 0.0147369022 0.0391129809 -0.0700085115
v 0.0147071667 0.0391724043 -0.0697581053
v 0.014699604 0.0391936426 -0.0695000005
v 0.0147498913 0.0392182522 -0.0679999995
v 0.0149320335 0.0331512289 -0.0778298235
v 0.0149558659 0.0331273966 -0.0752861691
v 0.0148989983 0.0331842642 -0.0752097225
v 0.01481147 0.0332717924 -0.0777082062
v 0.0147870846 0.0332961779 -0.0750541878
v 0.0148537846 0.0361364346 -0.0722562599
v 0.0147841759 0.0360738878 -0.0722455764
v 0.0149924774 0.0362631683 -0.0722742295
v 0.0149005909 0.036375411 -0.0720073724
v 0.0149902363 0.0364940958 -0.0719779849
v 0.0149925346 0.0367215185 -0.0717581654
v 0.0149742432 0.0367445068 -0.0717219496
v 0.0149928684 0.0369819813 -0.0715527153
v 0.0148692627 0.0369997721 -0.0714529657
v 0.0149709721 0.0370065909 -0.0715194726
v 0.0149671478 0.0372469454 -0.0713639998
v 0.0147569199 0.0372442417 -0.0712464666
v 0.014987566 0.0374474077 -0.0712633038
v 0.0149420376 0.0374915533 -0.0712174487
v 0.0148884411 0.0377465944 -0.071076107
v 0.0149589748 0.0379685097 -0.0710085344
v 0.0149238415 0.0379985647 -0.0709852219
v 0.0148559017 0.0382187443 -0.0708852816
v 0.0149338646 0.0382846527 -0.0708791447
v 0.0147717686 0.0384907942 -0.0707359815
v 0.0149977035 0.0385918312 -0.0707504916
v 0.0149788875 0.0387439995 -0.0706413054
v 0.0149713631 0.0388847904 -0.0705154157
v 0.0149811287 0.0389978581 -0.0703956056
v 0.0149991531 0.0390993576 -0.070266161
v 0.0149524135 0.0392116194 -0.0700085115
v 0.0149375648 0.0392472916 -0.0698847461
v 0.0148096008 0.0392462044 -0.0695000005
v 0.0148048515 0.03924403 -0.0679999995
v 0.0149828548 0.0392957001 -0.0697581053
v 0.0149778576 0.0393177824 -0.0695000005
v 0.0149722881 0.0393155794 -0.0679999995
v 0.0151775761 0.0329056864 -0.0780640459
v 0.0152489967 0.0328342657 -0.0756547403
v 0.0150540848 0.0330291824 -0.077948451
v 0.0150713749 0.0330118828 -0.0754363537
v 0.015061533 0.0363273077 -0.0722815633
v 0.0151651592 0.0364958935 -0.0721904778
v 0.0152387066 0.03669977 -0.0720308399
v 0.0152058144 0.0367383556 -0.0719521689
v 0.0152384395 0.0369648342 -0.0717655897
v 0.01521805 0.0369861584 -0.0717291546
v 0.0152030392 0.0372391873 -0.071521163
v 0.0150824947 0.0372434406 -0.0714376688
v 0.0151591606 0.0374991589 -0.0713264966
v 0.0152066536 0.0376621466 -0.0712579799
v 0.0152290459 0.0377414875 -0.0712248206
v 0.0150455971 0.0379862099 -0.071029911
v 0.0152318973 0.0381825523 -0.0710014105
v 0.0152383251 0.0382463293 -0.0709730983
v 0.0151976223 0.0384988575 -0.070847311
v 0.0152335377 0.0385273008 -0.0708413625
v 0.0152061767 0.0387318497 -0.0707210994
v 0.0152213688 0.0389863472 -0.0705154157
v 0.0151646061 0.0389840822 -0.0704961729
v 0.0152130813 0.0391798191 -0.070266161
v 0.0151899643 0.0392484455 -0.0701284766
v 0.0150011558 0.039249485 -0.0699594092
v 0.0152305813 0.0393134909 -0.0700085115
v 0.0152104587 0.0393768196 -0.0697581053
v 0.0152075691 0.0393993788 -0.0695000005
v 0.0152008934 0.0393972569 -0.0679999995
v 0.0154287453 0.0326545124 -0.0782860088
v 0.0154936237 0.0325896387 -0.0759326935
v 0.0153024788 0.0327807837 -0.0781765795
v 0.0153093262 0.0327739315 -0.0757256651
v 0.0152672787 0.0365224629 -0.0722972608
v 0.0154466171 0.036745389 -0.0722349644
v 0.0154977913 0.0369572287 -0.0720335603
v 0.015460989 0.0369921665 -0.0719547081
v 0.0154830475 0.037210496 -0.0717628121
v 0.015438282 0.0372497492 -0.0716905832
v 0.0154348965 0.0374707871 -0.0715147257
v 0.0154091568 0.0374920445 -0.0714821506
v 0.0154924126 0.0375282984 -0.0715116668
v 0.0153478546 0.0377418261 -0.0712836838
v 0.0154400749 0.0378586941 -0.0712599492
v 0.0154960461 0.0379956322 -0.071203835
v 0.0154331989 0.0382460861 -0.071035316
v 0.0152566738 0.0382332783 -0.070984807
v 0.0154982872 0.0383318453 -0.0710097909
v 0.0152525635 0.0384866219 -0.0708641243
v 0.0154984112 0.0387379866 -0.0707795596
v 0.0153066845 0.0387469559 -0.0707359815
v 0.0154539986 0.0387725573 -0.0707504916
v 0.0154973812 0.0389952736 -0.0705892968
v 0.0154789753 0.0390657311 -0.0705154157
v 0.0154906769 0.0392461281 -0.0702883458
v 0.0153734035 0.0392428808 -0.0702437472
v 0.0154875107 0.0392591934 -0.070266161
v 0.0154588241 0.0393773632 -0.0700085115
v 0.0154431457 0.0394419413 -0.0697581053
v 0.0154424114 0.0394647818 -0.0695000005
v 0.0154937 0.0394767504 -0.0679999995
v 0.0156852455 0.0323980169 -0.0784954357
v 0.0157467289 0.0323365288 -0.0761950254
v 0.0155563469 0.0325269108 -0.0783923054
v 0.0155561275 0.0325271349 -0.0759997606
v 0.0155377788 0.0367880468 -0.0723043871
v 0.0155915565 0.0369956284 -0.0720983338
v 0.0157262535 0.0370031386 -0.0722654963
v 0.0156895466 0.037152441 -0.0720276332
v 0.0157126064 0.0372486143 -0.0719457006
v 0.0157474441 0.0374398546 -0.0717859244
v 0.0156762428 0.0374913149 -0.0716779351
v 0.0156897755 0.0376811676 -0.0715312028
v 0.0155918522 0.0377493363 -0.0714160633
v 0.0157246227 0.0379940443 -0.0713205385
v 0.0155130215 0.037984026 -0.0712188482
v 0.015715601 0.0380705052 -0.0712625599
v 0.0156445236 0.0382453137 -0.0711152577
v 0.015516798 0.0383206539 -0.0710223293
v 0.0155203361 0.0383789282 -0.070990262
v 0.0157451458 0.038702076 -0.0708539701
v 0.015689518 0.0387577086 -0.0708032131
v 0.0156136341 0.0388335924 -0.0707384443
v 0.0157424946 0.0391224699 -0.0705154157
v 0.0157232685 0.0392353802 -0.0703746629
v 0.0157113571 0.039305356 -0.070266161
v 0.0157494564 0.0394346743 -0.0700085115
v 0.0157401485 0.039495738 -0.0697836185
v 0.0155613918 0.0394913082 -0.0695000005
v 0.0155530281 0.0394895868 -0.0679999995
v 0.0157394428 0.0395003681 -0.0697581053
v 0.0157414265 0.0395232945 -0.0695000005
v 0.0157322235 0.0395218973 -0.0679999995
v 0.0157417698 0.0408267717 -0.0704949403
v 0.015685255 0.0408832817 -0.0700837779
v 0.0156608124 0.0409077244 -0.0698772144
v 0.0156389255 0.040929616 -0.0696700764
v 0.0156195946 0.040948947 -0.0694624329
v 0.0155886383 0.0409799032 -0.0690458679
v 0.0155770225 0.0409915238 -0.0688370776
v 0.0155679817 0.0410005646 -0.0686280322
v 0.0155615158 0.0410070257 -0.0684187937
v 0.0155576439 0.0410109024 -0.0682094288
v 0.0155563469 0.0410121946 -0.0679999995
v 0.0159467525 0.0321365099 -0.0786920786
v 0.0159418316 0.0321414309 -0.0763812065
v 0.0158153934 0.032267869 -0.0785953712
v 0.0158112736 0.0322719841 -0.0762581015
v 0.0158031101 0.0370584421 -0.0722968984
v 0.0158638401 0.0372494774 -0.0721180105
v 0.0159982223 0.0372641354 -0.0722812247
v 0.0158782978 0.0373490505 -0.072014184
v 0.0159804935 0.0374933796 -0.071961844
v 0.0159836311 0.0376877098 -0.0717591739
v 0.015882122 0.0377467423 -0.0716187334
v 0.0159717197 0.0379270105 -0.0715294504
v 0.0159900589 0.0379901152 -0.0714885449
v 0.0158218784 0.038146637 -0.0712642193
v 0.015751173 0.0381851082 -0.0712018967
v 0.0159870453 0.0382572394 -0.0712698293
v 0.0159897728 0.0384574442 -0.0711163592
v 0.0159475346 0.0384996824 -0.0709276819
v 0.015939476 0.0385077505 -0.0710565233
v 0.0158879967 0.0385592203 -0.0709986782
v 0.0159835167 0.0388769703 -0.0707504916
v 0.0159731407 0.03898135 -0.0706742811
v 0.0159562416 0.0391512566 -0.0705154157
v 0.0159479637 0.0392344122 -0.0704162788
v 0.0159947891 0.0393410282 -0.070266161
v 0.0159848614 0.0394622259 -0.0700085115
v 0.0159822674 0.0394938927 -0.0699097586
v 0.015979435 0.0395284538 -0.0697581053
v 0.015983593 0.0395512371 -0.0695000005
v 0.0159733028 0.0395503979 -0.0679999995
v 0.015971653 0.0405968933 -0.0717082047
v 0.0158850593 0.0406834869 -0.0713076472
v 0.0158454819 0.0407230644 -0.0711058283
v 0.015808403 0.0407601433 -0.0709030628
v 0.0157738228 0.040794714 -0.0706994128
v 0.0162129517 0.031870306 -0.0788756943
v 0.0162085647 0.0318746929 -0.0766149712
v 0.0160792847 0.032003973 -0.0787855291
v 0.0160742779 0.0320089798 -0.0765001822
v 0.0160078258 0.0320754414 -0.0764412117
v 0.0160623665 0.0373331719 -0.0722739315
v 0.0160019798 0.0374806481 -0.0720006108
v 0.0162428303 0.0375559836 -0.072210741
v 0.0161803455 0.0377470951 -0.0718890786
v 0.016205637 0.0378890019 -0.0717594385
v 0.0161202545 0.037999094 -0.0715769029
v 0.0160642834 0.0380247336 -0.0715114117
v 0.0162372799 0.0382099419 -0.0714694643
v 0.0162339039 0.0382133131 -0.070992372
v 0.0161938209 0.0382534008 -0.0713991356
v 0.0160868282 0.0383603935 -0.0712421155
v 0.0160078258 0.0384394007 -0.0709473205
v 0.0161842842 0.0387326174 -0.0708413768
v 0.0161796303 0.038889616 -0.0707504916
v 0.0161765213 0.0389944677 -0.0706742811
v 0.0161714668 0.0391651325 -0.0705154157
v 0.0161689873 0.0392486601 -0.0704162788
v 0.0161659641 0.0393505745 -0.070266161
v 0.0161623592 0.0394721251 -0.0700085115
v 0.0161616344 0.039496582 -0.0699346495
v 0.0161603947 0.0395385437 -0.0697581053
v 0.0162271137 0.0395622568 -0.0695000005
v 0.0162157745 0.0395621233 -0.0679999995
v 0.0162308903 0.040337656 -0.0726887727
v 0.0161742134 0.0403943281 -0.0724952793
v 0.016068079 0.0405004673 -0.0721042418
v 0.0160186405 0.040549901 -0.071906817
v 0.0164835281 0.0315997343 -0.0790460587
v 0.0163477154 0.0317355471 -0.0789625454
v 0.0164823742 0.0316008835 -0.0768317699
v 0.0163446255 0.0317386417 -0.0767255211
v 0.0162763805 0.0318068819 -0.0766707802
v 0.0162517471 0.0375415068 -0.0722454381
v 0.0164966221 0.0379505949 -0.0720070982
v 0.0164861412 0.0379610806 -0.0719798017
v 0.0162537689 0.0379424934 -0.0717484879
v 0.0164422817 0.03800494 -0.071872232
v 0.0163832111 0.0380640154 -0.0717415309
v 0.0162514229 0.0381957941 -0.0714932847
v 0.0162682648 0.038178957 -0.0711431217
v 0.01625354 0.0382339316 -0.0709901619
v 0.0162731094 0.038254612 -0.070987637
v 0.0164939709 0.0385002594 -0.0709313726
v 0.0162772198 0.0387568503 -0.0708295679
v 0.0162780113 0.038912323 -0.0707359815
v 0.0162785358 0.0390158825 -0.0706579661
v 0.0162793941 0.0391838532 -0.0704961729
v 0.0162797375 0.0392500191 -0.0704162788
v 0.0162803192 0.0393650322 -0.0702437472
v 0.01628092 0.0394821577 -0.0699840331
v 0.0162810345 0.0395053463 -0.0699097586
v 0.0164708252 0.0395562964 -0.0695000005
v 0.0164584751 0.0395570068 -0.0679999995
v 0.0164811916 0.0400873547 -0.0734478855
v 0.0163513584 0.0402171879 -0.0730714202
v 0.0162899418 0.0402786045 -0.0728808403
v 0.0166203518 0.0314629154 -0.0791262054
v 0.016692049 0.0313912087 -0.076982975
v 0.0165518684 0.0315313892 -0.0768832684
v 0.016555397 0.0378918295 -0.072174201
v 0.0165046425 0.0385128002 -0.0709270692
v 0.0166976089 0.0387542801 -0.0708122635
v 0.0165252132 0.0389003115 -0.0707359815
v 0.0165347214 0.0390034371 -0.0706579661
v 0.0165010376 0.0392411976 -0.0704162788
v 0.0165022011 0.0392568188 -0.0703956056
v 0.0165096111 0.0393558865 -0.0702437472
v 0.0165183372 0.0394726925 -0.0699840331
v 0.0165205784 0.0395026665 -0.0698847461
v 0.0167135162 0.0395333891 -0.0695000005
v 0.0167002411 0.0395350819 -0.0679999995
v 0.0166931648 0.0398753815 -0.074000001
v 0.0166202373 0.0399483042 -0.0738177156
v 0.0165495701 0.0400189715 -0.0736336589
v 0.0168968506 0.0311864071 -0.0792763138
v 0.0169769306 0.0311063318 -0.077169075
v 0.0167581386 0.0313251238 -0.0792029667
v 0.0167627163 0.0313205414 -0.0770311737
v 0.0167588062 0.0388384991 -0.0707560921
v 0.0167685146 0.0388523083 -0.0707459688
v 0.0168731041 0.039011076 -0.0706081295
v 0.0169302292 0.0391087227 -0.070499599
v 0.0167833061 0.0392539196 -0.0703534603
v 0.0167506523 0.0394200306 -0.0700570035
v 0.0167545242 0.0394467621 -0.0699840331
v 0.0169540329 0.03949364 -0.0695000005
v 0.0169977779 0.0394845562 -0.0694067526
v 0.0169689007 0.039490674 -0.0692198992
v 0.0169330425 0.0394979363 -0.068938899
v 0.0169252701 0.0396432667 -0.0745356679
v 0.016845705 0.0397228365 -0.0743590307
v 0.0167628403 0.0395040302 -0.0697581053
v 0.0168941708 0.039505146 -0.0695000005
v 0.0169905872 0.0395779495 -0.0687521315
v 0.0169818325 0.039586709 -0.0685643315
v 0.0169733829 0.0395951634 -0.0682822776
v 0.0169708748 0.0395976668 -0.0680941033
v 0.0169705601 0.0395979815 -0.0679999995
v 0.0167683239 0.0398002176 -0.0741804576
v 0.017176897 0.0309063654 -0.0794126797
v 0.0171942634 0.0308889942 -0.0772968197
v 0.0170364494 0.0310468083 -0.0793462229
v 0.0170490379 0.0310342198 -0.0772127914
v 0.017176897 0.0393916493 -0.0750534248
v 0.0170908947 0.0394776468 -0.0748829174
v 0.0172110004 0.0393575411 -0.0705855274
v 0.0171539421 0.0394146042 -0.0702626061
v 0.0171201343 0.0394484072 -0.0700459099
v 0.0170897407 0.0394788056 -0.0698282075
v 0.0170758171 0.0394927197 -0.0697190118
v 0.0170070095 0.0395615273 -0.0747103143
v 0.0170505638 0.0395179777 -0.0695000005
v 0.0170318432 0.0395367031 -0.0693136644
v 0.0170084114 0.0395601301 -0.069033308
v 0.0170018501 0.0395666914 -0.0689396644
v 0.0174601288 0.0306231337 -0.079535141
v 0.0174885006 0.0305947619 -0.0774510956
v 0.0173181362 0.0307651262 -0.0794756556
v 0.0172673626 0.0308158951 -0.0773371172
v 0.0174473305 0.0391212158 -0.0755518436
v 0.0173551388 0.0392134028 -0.0753879356
v 0.0174272938 0.0391412478 -0.0715356851
v 0.0173734493 0.039195097 -0.0713272548
v 0.0173228855 0.0392456608 -0.0711171865
v 0.0172649879 0.0393035584 -0.0752217817
v 0.0172988434 0.0392697029 -0.0710115695
v 0.0172532482 0.0393152933 -0.0707992363
v 0.0176028366 0.0304804258 -0.0795911121
v 0.0177121849 0.0303710728 -0.0775546074
v 0.0175627918 0.0305204706 -0.0774867725
v 0.017735836 0.0388327055 -0.0760295677
v 0.0176377029 0.0389308338 -0.0758727074
v 0.0177448006 0.0388237457 -0.0725497007
v 0.017641222 0.0389273243 -0.0722508168
v 0.0175760956 0.038992446 -0.072048924
v 0.0175415249 0.0390270166 -0.0757134533
v 0.017514164 0.0390543823 -0.0718450356
v 0.0178902168 0.0301930456 -0.07969244
v 0.0179381866 0.030145071 -0.0776475334
v 0.0177872772 0.0302959852 -0.0775867653
v 0.0179378338 0.0386307125 -0.0763359022
v 0.017835886 0.0387326555 -0.0761839819
v 0.0179328747 0.0386356716 -0.0730364799
v 0.0178553505 0.038713191 -0.0728435469
v 0.0177808781 0.0387876635 -0.0726482248
v 0.018179924 0.0299033384 -0.0797795248
v 0.0182426948 0.0298405676 -0.0777547884
v 0.0181662578 0.0299170046 -0.0777297688
v 0.0180348034 0.0300484591 -0.0797377729
v 0.0180139942 0.0300692635 -0.0776761341
v 0.0181472607 0.0384212856 -0.0766320753
v 0.0181397457 0.0384288006 -0.073507762
v 0.0180968971 0.0384716492 -0.0734148169
v 0.0180416317 0.0385269098 -0.076485281
v 0.0180547829 0.0385137634 -0.0733212042
v 0.0180134029 0.0385551434 -0.0732269359
v 0.0184715958 0.0296116619 -0.0798522615
v 0.0184731121 0.0296101503 -0.0778226328
v 0.0183255405 0.0297577267 -0.0798176908
v 0.0183193226 0.0297639399 -0.0777786064
v 0.018474781 0.0380937557 -0.0770565128
v 0.0183638687 0.0382046728 -0.0769177389
v 0.0184118957 0.038156641 -0.074050808
v 0.0183647747 0.0382037668 -0.0739620972
v 0.0182546825 0.038313859 -0.0767762423
v 0.0182726211 0.0382959156 -0.0737824869
v 0.0186180706 0.0294651919 -0.0798832178
v 0.018704998 0.0293782597 -0.0778795958
v 0.0185502548 0.0295330029 -0.0778428316
v 0.0187016697 0.0378668718 -0.0773257494
v 0.0185874004 0.0379811459 -0.0771925354
v 0.0187089939 0.0378595429 -0.0745670438
v 0.018607275 0.0379612713 -0.0743980861
v 0.0185574074 0.0380111294 -0.0743124223
v 0.0185082264 0.0380603199 -0.0742259789
v 0.0189120407 0.0291712265 -0.0799342632
v 0.0189381046 0.0291451578 -0.0779256105
v 0.0187648983 0.0293183689 -0.0799105549
v 0.0187825794 0.029300683 -0.0778961515
v 0.0189350624 0.0376334839 -0.0775836277
v 0.0188664932 0.0377020483 -0.0748143888
v 0.0188175697 0.0377509718 -0.077456131
v 0.0187608452 0.0378076964 -0.0746503139
v 0.0192070885 0.028876174 -0.0799707699
v 0.0191721554 0.0289111071 -0.0779606295
v 0.0190594501 0.0290238123 -0.0799543381
v 0.0190160293 0.0290672331 -0.077938509
v 0.0191746731 0.0373938685 -0.0778298235
v 0.0191985054 0.0373700409 -0.0752861691
v 0.019085371 0.0374831658 -0.0751323938
v 0.0190541096 0.0375144367 -0.0777082062
v 0.0190297241 0.0375388222 -0.0750541878
v 0.019354908 0.0287283545 -0.0799835539
v 0.0194852657 0.0285979967 -0.0779901505
v 0.0193285961 0.0287546663 -0.0779778481
v 0.0194202156 0.0371483259 -0.0780640459
v 0.0193726463 0.0371958904 -0.0755100775
v 0.0192967243 0.037271822 -0.077948451
v 0.0192559643 0.0373125773 -0.0753617144
v 0.0196508999 0.0284323578 -0.0799981737
v 0.0197205372 0.0283627253 -0.0779993868
v 0.019502861 0.0285804014 -0.0799926901
v 0.0195636578 0.0285195999 -0.0779944611
v 0.0196713848 0.0368971567 -0.0782860088
v 0.0196128578 0.0369556837 -0.0757956362
v 0.0195451183 0.037023428 -0.0781765795
v 0.0195519657 0.0370165711 -0.0757256651
v 0.0198060627 0.0282771998 -0.0799999952
v 0.0197989864 0.0282842713 -0.0780000019
v 0.0198060627 0.0282771998 -0.0779999971
v 0.019927885 0.0366406565 -0.0784954357
v 0.0198617859 0.0367067556 -0.0760658455
v 0.0197989864 0.0367695503 -0.0783923054
v 0.0197987671 0.0367697792 -0.0759997606
v 0.0201893921 0.0363791494 -0.0786920786
v 0.0201189537 0.0364495926 -0.0763201666
v 0.020058033 0.0365105085 -0.0785953712
v 0.0200539131 0.0365146237 -0.0762581015
v 0.0204555912 0.0361129456 -0.0788756943
v 0.0203838367 0.0361847048 -0.0765581036
v 0.0203169174 0.0362516193 -0.0765001822
v 0.0202504654 0.0363180809 -0.0764412117
v 0.0207261677 0.0358423739 -0.0790460587
v 0.0205903549 0.0359781866 -0.0789625454
v 0.0206559296 0.035912612 -0.0767791843
v 0.020587265 0.0359812813 -0.0767255211
v 0.0205190201 0.0360495262 -0.0766707802
v 0.0208629913 0.035705555 -0.0791262054
v 0.0208644028 0.0357041388 -0.07693367
v 0.020794508 0.0357740288 -0.0768832684
v 0.0211394901 0.0354290514 -0.0792763138
v 0.0210764046 0.0354921417 -0.0770782614
v 0.0210007782 0.0355677633 -0.0792029667
v 0.0210053558 0.0355631857 -0.0770311737
v 0.0214195366 0.0351490097 -0.0794126797
v 0.0213641281 0.0352044134 -0.077255373
v 0.021279089 0.0352894478 -0.0793462229
v 0.0212916775 0.0352768641 -0.0772127914
v 0.0217027683 0.0348657732 -0.079535141
v 0.021583416 0.0349851256 -0.0773762655
v 0.0215607757 0.0350077658 -0.0794756556
v 0.0215100021 0.0350585346 -0.0773371172
v 0.0219888515 0.0345796852 -0.0796435499
v 0.0218799992 0.0346885471 -0.0775212765
v 0.0218054314 0.0347631149 -0.0774867725
v 0.0221328564 0.0344356852 -0.07969244
v 0.022105257 0.0344632845 -0.0776177406
v 0.0220299168 0.0345386248 -0.0775867653
v 0.0224225635 0.034145978 -0.0797795248
v 0.0224853344 0.0340832119 -0.0777547884
v 0.0223326607 0.0342358809 -0.0777035475
v 0.0222774429 0.0342911034 -0.0797377729
v 0.0222566337 0.0343119078 -0.0776761341
v 0.0227142448 0.0338543015 -0.0798522615
v 0.022638771 0.0339297705 -0.0778012228
v 0.0225681801 0.0340003662 -0.0798176908
v 0.0225619621 0.0340065842 -0.0777786064
v 0.0228607101 0.0337078362 -0.0798832178
v 0.0228701992 0.0336983471 -0.0778618193
v 0.0227928944 0.0337756424 -0.0778428316
v 0.0231546802 0.0334138661 -0.0799342632
v 0.0231029243 0.033465622 -0.0779114914
v 0.0230075378 0.0335610085 -0.0799105549
v 0.023025219 0.0335433226 -0.0778961515
v 0.023449728 0.0331188135 -0.0799707699
v 0.023336689 0.0332318525 -0.077950182
v 0.0233020897 0.0332664518 -0.0799543381
v 0.0232586689 0.0333098774 -0.077938509
v 0.0237455006 0.0328230457 -0.0799926901
v 0.0235712356 0.0329973059 -0.0779778481
v 0.0238935394 0.0326750021 -0.0799981737
v 0.0238847275 0.0326838141 -0.0779975367
v 0.0238063068 0.0327622395 -0.0779944611
v 0.0240487022 0.0325198393 -0.0799999952
v 0.024041626 0.0325269108 -0.0780000019
v 0.0240487022 0.0325198393 -0.0779999971
v 0.0254558487 0.0226274185 -0.08
v 0.0254558487 0.0226274185 -0.0780000019
v 0.0254487724 0.02263449 -0.0779999971
v 0.0257273407 0.0223559218 -0.0799966478
v 0.0257026596 0.0223806028 -0.0779969549
v 0.0259987564 0.022084506 -0.0799865961
v 0.0259493942 0.0221338635 -0.0779878187
v 0.0261959858 0.0218872767 -0.0779725885
v 0.0264423485 0.0216409092 -0.0779512787
v 0.0262700004 0.021813262 -0.0799698496
v 0.0266884155 0.0213948469 -0.0779238939
v 0.0265409965 0.0215422611 -0.0799464083
v 0.0269341011 0.0211491613 -0.077890439
v 0.0268116684 0.0212715941 -0.0799162817
v 0.0271793384 0.020903924 -0.0778509235
v 0.0270819302 0.0210013371 -0.0798794794
v 0.0273516865 0.020731576 -0.0798360157
v 0.0274240513 0.0206592112 -0.0778053617
v 0.0276208706 0.0204623919 -0.0797858953
v 0.0276681633 0.0204150992 -0.077753768
v 0.0278893967 0.0201938658 -0.0797291422
v 0.0279115982 0.0201716595 -0.0776961565
v 0.0281571789 0.0199260836 -0.0796657705
v 0.0281542892 0.0199289684 -0.0776325417
v 0.0284241314 0.0196591263 -0.0795957994
v 0.0283961601 0.0196871023 -0.077562952
v 0.0286901874 0.0193930702 -0.079519248
v 0.0286371345 0.0194461279 -0.077487402
v 0.0289552612 0.0191280012 -0.0794361401
v 0.0288771362 0.0192061262 -0.0774059153
v 0.0292192669 0.0188639956 -0.0793465042
v 0.0291160984 0.018967164 -0.0773185158
v 0.0294821281 0.0186011391 -0.0792503691
v 0.0293539448 0.0187293177 -0.0772252321
v 0.0297437591 0.0183395081 -0.0791477585
v 0.0295906086 0.0184926586 -0.0771260929
v 0.0296984882 0.0268700581 -0.08
v 0.0296984882 0.0268700581 -0.0780000019
v 0.029691412 0.0268771296 -0.0779999971
v 0.029826004 0.0182572584 -0.0770211315
v 0.0299699802 0.0265985613 -0.0799966478
v 0.0299452991 0.0266232424 -0.0779969549
v 0.0300040836 0.0180791788 -0.0790387058
v 0.0300600738 0.0180231886 -0.0769103718
v 0.0302413959 0.0263271504 -0.0799865961
v 0.0301920338 0.026376503 -0.0779878187
v 0.0302630157 0.0178202419 -0.0789232445
v 0.0302927418 0.0177905207 -0.0767938519
v 0.0304386253 0.0261299162 -0.0779725885
v 0.0305204983 0.0175627642 -0.0788014078
v 0.0305239315 0.017559331 -0.0766716099
v 0.030684988 0.0258835535 -0.0779512787
v 0.03051264 0.0260559015 -0.0799698496
v 0.0309816189 0.0171016436 -0.0764100981
v 0.0307764263 0.0173068314 -0.0786732388
v 0.0307535858 0.0173296814 -0.0765436792
v 0.0309310551 0.0256374912 -0.0779238939
v 0.0307836456 0.0257849007 -0.0799464083
v 0.0312079735 0.0168752937 -0.0762709093
v 0.0310307426 0.0170525198 -0.0785387707
v 0.0311767406 0.0253918009 -0.077890439
v 0.0310543079 0.0255142336 -0.0799162817
v 0.0314325733 0.0166506939 -0.0761261559
v 0.0312833519 0.0167999058 -0.0783980465
v 0.0313245697 0.0252439766 -0.0798794794
v 0.031421978 0.0251465635 -0.0778509235
v 0.0316553516 0.0164279108 -0.0759758806
v 0.0315341968 0.0165490656 -0.0782511091
v 0.031594326 0.0249742155 -0.0798360157
v 0.0316666908 0.0249018507 -0.0778053617
v 0.0318762417 0.0162070208 -0.0758201313
v 0.0317831821 0.0163000803 -0.0780980015
v 0.0318635101 0.0247050314 -0.0797858953
v 0.0319108028 0.0246577387 -0.077753768
v 0.0320951767 0.0159880858 -0.0756589508
v 0.032030241 0.0160530214 -0.0779387712
v 0.0321320362 0.0244365101 -0.0797291422
v 0.0321542377 0.0244143038 -0.0776961565
v 0.0322752972 0.0158079605 -0.0777734709
v 0.0323120899 0.0157711725 -0.0754923964
v 0.0323998184 0.0241687279 -0.0796657705
v 0.0323969288 0.0241716127 -0.0776325417
v 0.032739584 0.0153436785 -0.0751433468
v 0.0325182743 0.0155649834 -0.0776021433
v 0.0325269146 0.0155563479 -0.0753205061
v 0.0326667805 0.0239017658 -0.0795957994
v 0.0326387997 0.0239297419 -0.077562952
v 0.032997715 0.0150855475 -0.0772416353
v 0.0329500313 0.0151332264 -0.0749609613
v 0.0327591057 0.015324152 -0.0774248457
v 0.032932827 0.0236357098 -0.079519248
v 0.0328797741 0.0236887674 -0.077487402
v 0.0332340164 0.0148492413 -0.0770525599
v 0.0331581993 0.0149250584 -0.0747734118
v 0.0331979008 0.0233706408 -0.0794361401
v 0.0331197758 0.0234487658 -0.0774059153
v 0.0334679527 0.014615305 -0.0768576813
v 0.0333640213 0.0147192364 -0.0745807505
v 0.0334619064 0.0231066351 -0.0793465042
v 0.0333587379 0.0232098036 -0.0773185158
v 0.0336994572 0.0143838101 -0.0766570568
v 0.03356744 0.0145158224 -0.0743830419
v 0.0337247677 0.0228437786 -0.0792503691
v 0.0335965843 0.0229719572 -0.0772252321
v 0.0339284439 0.0141548233 -0.0764507532
v 0.0339667911 0.0141164665 -0.0739727092
v 0.0337683792 0.0143148785 -0.0741803408
v 0.0339863987 0.0225821476 -0.0791477585
v 0.0338332481 0.0227352982 -0.0771260929
v 0.0341548462 0.0139284163 -0.0762388277
v 0.0341626091 0.0139206486 -0.0737602162
v 0.0342467232 0.0223218231 -0.0790387058
v 0.0340686436 0.022499898 -0.0770211315
v 0.0343785972 0.0137046604 -0.076021347
v 0.0343557758 0.0137274819 -0.0735429192
v 0.0343027134 0.0222658281 -0.0769103718
v 0.0345996399 0.0134836226 -0.0757983732
v 0.0347339172 0.0133493404 -0.0730941916
v 0.0345462341 0.0135370283 -0.0733208895
v 0.0345056648 0.0220628815 -0.0789232445
v 0.0345353813 0.0220331602 -0.0767938519
v 0.0349187775 0.0131644802 -0.0728628969
v 0.0348178882 0.0132653742 -0.0755699825
v 0.0349962253 0.0215723209 -0.0765436792
v 0.0347631378 0.0218054037 -0.0788014078
v 0.034766571 0.0218019705 -0.0766716099
v 0.0352457733 0.0128374891 -0.0750972128
v 0.0351007576 0.0129825049 -0.0726270747
v 0.0350332851 0.0130499725 -0.075336237
v 0.0352242584 0.0213442831 -0.0764100981
v 0.0350190658 0.0215494709 -0.0786732388
v 0.0354552765 0.0126279907 -0.0748529768
v 0.0354558487 0.0126274185 -0.0721421361
v 0.0352798004 0.012803462 -0.0723867965
v 0.035450613 0.0211179333 -0.0762709093
v 0.0352733822 0.0212951593 -0.0785387707
v 0.0356617279 0.0124215345 -0.07460361
v 0.0356288452 0.0124544172 -0.0718931675
v 0.0356752129 0.0208933334 -0.0761261559
v 0.0355259914 0.0210425453 -0.0783980465
v 0.0358650703 0.0122181873 -0.0743491864
v 0.0359655018 0.0121177607 -0.0713826132
v 0.0357987518 0.0122845154 -0.071639967
v 0.0358979912 0.0206705551 -0.0759758806
v 0.0357768364 0.0207917099 -0.0782511091
v 0.0361290474 0.0119542103 -0.0711211801
v 0.0360652466 0.0120180111 -0.0740897822
v 0.0361188812 0.0204496603 -0.0758201313
v 0.0360258217 0.0205427199 -0.0780980015
v 0.036455843 0.0116274147 -0.0735563493
v 0.0364463444 0.0116369133 -0.0705864072
v 0.0362621899 0.0118210678 -0.0738254762
v 0.0362893505 0.0117939119 -0.070855751
v 0.0363378162 0.0202307253 -0.0756589508
v 0.0362728805 0.020295661 -0.0779387712
v 0.0366461487 0.0114371138 -0.073282485
v 0.0366000004 0.0114832621 -0.0703132296
v 0.0365179367 0.0200506048 -0.0777734709
v 0.0365547295 0.0200138121 -0.0754923964
v 0.0368970699 0.0111861878 -0.0697557044
v 0.0368330402 0.0112502222 -0.0730039644
v 0.0367502518 0.0113330059 -0.0700363016
v 0.0369822235 0.019586318 -0.0751433468
v 0.0367609234 0.0198076229 -0.0776021433
v 0.0367695541 0.0197989922 -0.0753205061
v 0.0371963711 0.0108868866 -0.0724332976
v 0.0371802063 0.0109030562 -0.0691838574
v 0.0370164604 0.0110667973 -0.0727208734
v 0.0370404072 0.01104286 -0.0694715285
v 0.0372403545 0.0193281918 -0.0772416353
v 0.0371926708 0.0193758659 -0.0749609613
v 0.0370017452 0.0195667963 -0.0774248457
v 0.0373726959 0.0107105618 -0.0721413279
v 0.0374490566 0.0106342011 -0.0685983849
v 0.0373164387 0.0107668285 -0.0688927817
v 0.037476656 0.0190918808 -0.0770525599
v 0.0374008484 0.0191676979 -0.0747734118
v 0.0377144165 0.0103688507 -0.0715445518
v 0.0377032967 0.0103799706 -0.0679999995
v 0.0375453968 0.0105378609 -0.0718450475
v 0.037578022 0.0105052452 -0.0683007622
v 0.0377105923 0.0188579445 -0.0768576813
v 0.0376066704 0.0189618759 -0.0745807505
v 0.0378796978 0.0102035599 -0.0712399316
v 0.0379426117 0.0101406555 -0.067389431
v 0.0378248329 0.0102584248 -0.0676961923
v 0.0379420967 0.0186264496 -0.0766570568
v 0.0378100796 0.018758462 -0.0743830419
v 0.038198864 0.00988440324 -0.0706186819
v 0.0381667156 0.0099165516 -0.0667674232
v 0.038041193 0.0100420647 -0.0709312749
v 0.0380565758 0.0100266819 -0.0670798111
v 0.0381710834 0.0183974629 -0.0764507532
v 0.0382094307 0.0183591061 -0.0739727092
v 0.0380110283 0.018557518 -0.0741803408
v 0.038352644 0.00973062326 -0.0703022432
v 0.0383753319 0.00970793534 -0.0661347318
v 0.0384737511 0.00960951615 -0.0658146214
v 0.038272974 0.00981029321 -0.0664523649
v 0.0383974857 0.0181710558 -0.0762388277
v 0.0384052486 0.0181632881 -0.0737602162
v 0.0386483784 0.00943488885 -0.0696582246
v 0.0386586685 0.0094245987 -0.0651673579
v 0.0387451 0.00933815766 -0.0648404026
v 0.0385024948 0.00958076287 -0.069982059
v 0.038568203 0.00951505471 -0.0654921317
v 0.0386212368 0.0179473047 -0.076021347
v 0.0385984154 0.0179701214 -0.0735429192
v 0.0389280338 0.00915522386 -0.069000001
v 0.0389058132 0.00917744447 -0.0641803408
v 0.0389800377 0.00910322953 -0.0638474345
v 0.0387902374 0.00929302026 -0.0693308377
v 0.0388274975 0.00925576974 -0.0645113635
v 0.0388422794 0.0177262669 -0.0757983732
v 0.0389765568 0.01759198 -0.0730941916
v 0.0387888737 0.0177796679 -0.0733208895
v 0.0391912861 0.0088919716 -0.0683283734
v 0.0391160984 0.00896715928 -0.0631763816
v 0.0391778965 0.00890536119 -0.0628384376
v 0.0392355175 0.00884774018 -0.0624990201
v 0.0390617294 0.00902152825 -0.068665812
v 0.0390501327 0.00903312493 -0.0635127473
v 0.039161417 0.0174071198 -0.0728628969
v 0.0390605278 0.0175080137 -0.0755699825
v 0.0394378014 0.00864546586 -0.0676441646
v 0.0393381519 0.00874511529 -0.0618161798
v 0.0393831272 0.00870013047 -0.0614729643
v 0.0394238682 0.00865939904 -0.0611286902
v 0.0394603462 0.00862291146 -0.0607834625
v 0.0394925709 0.00859069634 -0.060437386
v 0.0393166561 0.00876661111 -0.0679877901
v 0.0392889423 0.00879432488 -0.0621582341
v 0.0394884128 0.0170801287 -0.0750972128
v 0.0393433971 0.0172251444 -0.0726270747
v 0.0392759342 0.0172926121 -0.075336237
v 0.0396672745 0.00841598321 -0.0669482064
v 0.0395893688 0.0084938984 -0.058697989
v 0.0395958252 0.00848743249 -0.0583490491
v 0.0395979805 0.00848527719 -0.0579999995
v 0.0395546837 0.008528574 -0.0672976017
v 0.039520504 0.00856275369 -0.0600905704
v 0.0395441646 0.00853909303 -0.0597431159
v 0.0395635338 0.00851973344 -0.0593951297
v 0.0395786018 0.00850466538 -0.0590467191
v 0.039697916 0.0168706303 -0.0748529768
v 0.0396984882 0.0168700581 -0.0721421361
v 0.0395224399 0.0170461063 -0.0723867965
v 0.0398794384 0.00820381928 -0.0662413454
v 0.0399789448 0.00810431291 -0.0658840942
v 0.0397755356 0.0083077221 -0.0665960836
v 0.0399043674 0.0166641741 -0.07460361
v 0.0398714847 0.0166970568 -0.0718931675
v 0.0401646633 0.00791860391 -0.065162499
v 0.0400740261 0.00800923158 -0.0655244422
v 0.0401077099 0.0164608269 -0.0743491864
v 0.0402081413 0.016360405 -0.0713826132
v 0.0400413914 0.0165271549 -0.071639967
v 0.0404095669 0.00767369081 -0.0640640211
v 0.0404821224 0.00760113526 -0.0636940193
v 0.0402508087 0.00783244897 -0.0647983742
v 0.0403324528 0.00775080491 -0.0644321775
v 0.0403716869 0.0161968546 -0.0711211801
v 0.0403078861 0.0162606554 -0.0740897822
v 0.0406134815 0.00746977616 -0.0629489231
v 0.0406722469 0.00741101075 -0.0625740576
v 0.0407263775 0.0073568802 -0.0621977973
v 0.0405501003 0.00753315736 -0.0633222818
v 0.0406984825 0.015870059 -0.0735563493
v 0.0406889839 0.0158795529 -0.0705864072
v 0.0405048294 0.0160637074 -0.0738254762
v 0.04053199 0.0160365515 -0.070855751
v 0.0408607979 0.0072224598 -0.0610618091
v 0.0408962364 0.00718702127 -0.0606811261
v 0.0409269733 0.00715628434 -0.0602996254
v 0.0409529991 0.00713026811 -0.0599174261
v 0.0409742947 0.00710896302 -0.0595346427
v 0.0409908695 0.00709238816 -0.059151392
v 0.0407758541 0.00730740357 -0.0618202591
v 0.0408206673 0.00726259042 -0.0614415574
v 0.0408887882 0.0156797581 -0.073282485
v 0.0408426399 0.0157259016 -0.0703132296
v 0.0409929008 0.0155756455 -0.0700363016
v 0.0410027141 0.00708054353 -0.0587677884
v 0.0410098286 0.00707343865 -0.0583839536
v 0.0410121937 0.00707106401 -0.0579999995
v 0.0410756798 0.0154928618 -0.0730039644
v 0.0411397095 0.0154288273 -0.0697557044
v 0.0414390106 0.0151295309 -0.0724332976
v 0.0414228458 0.0151456957 -0.0691838574
v 0.0412591095 0.0153094368 -0.0727208734
v 0.0412830467 0.0152854996 -0.0694715285
v 0.0416153355 0.0149532013 -0.0721413279
v 0.0416916962 0.0148768454 -0.0685983849
v 0.0415590782 0.0150094633 -0.0688927817
v 0.041957056 0.0146114855 -0.0715445518
v 0.0418206615 0.01474788 -0.0683007622
v 0.0419459362 0.0146226101 -0.0679999995
v 0.0417880363 0.0147805052 -0.0718450475
v 0.0421223373 0.0144462042 -0.0712399316
v 0.0421852512 0.0143832951 -0.067389431
v 0.0420674724 0.0145010691 -0.0676961923
v 0.0424415035 0.0141270428 -0.0706186819
v 0.0424093552 0.0141591911 -0.0667674232
v 0.0422838325 0.014284709 -0.0709312749
v 0.0422992153 0.0142693215 -0.0670798111
v 0.0425952835 0.013973258 -0.0703022432
v 0.0427451343 0.0138234072 -0.069982059
v 0.0426179714 0.0139505749 -0.0661347318
v 0.0427163906 0.0138521509 -0.0658146214
v 0.0425156135 0.014052928 -0.0664523649
v 0.0428910179 0.0136775236 -0.0696582246
v 0.042901308 0.0136672382 -0.0651673579
v 0.0429877491 0.0135807972 -0.0648404026
v 0.0428108425 0.013757699 -0.0654921317
v 0.0431706829 0.0133978634 -0.069000001
v 0.043070137 0.0134984045 -0.0645113635
v 0.0431484527 0.0134200888 -0.0641803408
v 0.0432226772 0.0133458643 -0.0638474345
v 0.043032877 0.0135356646 -0.0693308377
v 0.0434339256 0.0131346159 -0.0683283734
v 0.0433587379 0.0132098036 -0.0631763816
v 0.043420536 0.0131480055 -0.0628384376
v 0.043478157 0.0130903845 -0.0624990201
v 0.0433043785 0.0132641678 -0.068665812
v 0.0432927818 0.0132757645 -0.0635127473
v 0.0436804409 0.0128881054 -0.0676441646
v 0.0435807915 0.0129877548 -0.0618161798
v 0.0436257667 0.0129427748 -0.0614729643
v 0.0436665077 0.0129020338 -0.0611286902
v 0.0437029858 0.012865551 -0.0607834625
v 0.0437352104 0.0128333359 -0.060437386
v 0.0435592956 0.0130092507 -0.0679877901
v 0.0435315819 0.0130369597 -0.0621582341
v 0.043909914 0.0126586275 -0.0669482064
v 0.0438212414 0.0127473049 -0.0590467191
v 0.0438320084 0.0127365379 -0.058697989
v 0.0438384647 0.0127300768 -0.0583490491
v 0.04384062 0.0127279215 -0.0579999995
v 0.0437973232 0.0127712183 -0.0672976017
v 0.0437631531 0.0128053932 -0.0600905704
v 0.0437868042 0.0127817373 -0.0597431159
v 0.0438061733 0.012762373 -0.0593951297
v 0.0441220779 0.0124464636 -0.0662413454
v 0.0442215843 0.0123469524 -0.0658840942
v 0.0440181751 0.0125503616 -0.0665960836
v 0.0444073028 0.0121612387 -0.065162499
v 0.0444934482 0.0120750885 -0.0647983742
v 0.0443166752 0.0122518711 -0.0655244422
v 0.0445750923 0.0119934492 -0.0644321775
v 0.0446522064 0.0119163351 -0.0640640211
v 0.044724762 0.0118437796 -0.0636940193
v 0.0448561211 0.0117124157 -0.0629489231
v 0.0449148865 0.0116536503 -0.0625740576
v 0.044969017 0.0115995245 -0.0621977973
v 0.0447927399 0.0117757969 -0.0633222818
v 0.0451034374 0.0114651041 -0.0610618091
v 0.045138876 0.0114296608 -0.0606811261
v 0.0451696129 0.0113989287 -0.0602996254
v 0.0451956386 0.0113729029 -0.0599174261
v 0.0452169437 0.0113516026 -0.0595346427
v 0.0452335186 0.0113350277 -0.059151392
v 0.0452453537 0.0113231831 -0.0587677884
v 0.0450184936 0.0115500431 -0.0618202591
v 0.0450633068 0.0115052347 -0.0614415574
v 0.0452524681 0.0113160782 -0.0583839536
v 0.0452548332 0.0113137083 -0.0579999995
f 2 1 11
f 467 1 2
f 11 1 16
f 466 16 1
f 466 1 467
f 11 3 2
f 468 2 3
f 467 2 468
f 11 4 3
f 469 3 4
f 468 3 469
f 5 4 11
f 470 4 5
f 469 4 470
f 11 6 5
f 471 5 6
f 470 5 471
f 7 6 11
f 472 6 7
f 471 6 472
f 11 8 7
f 473 7 8
f 472 7 473
f 11 9 8
f 474 8 9
f 473 8 474
f 10 9 11
f 475 9 10
f 474 9 475
f 476 10 11
f 475 10 476
f 13 12 11
f 11 12 20
f 11 14 13
f 11 15 14
f 16 15 11
f 18 17 11
f 11 17 23
f 11 19 18
f 20 19 11
f 22 21 11
f 11 21 26
f 11 23 22
f 11 25 24
f 11 24 34
f 26 25 11
f 11 28 27
f 27 33 11
f 34 28 11
f 33 61 11
f 61 66 11
f 11 66 71
f 11 71 75
f 75 79 11
f 11 79 83
f 83 85 11
f 11 85 119
f 11 119 123
f 123 126 11
f 11 126 158
f 11 158 162
f 162 189 11
f 11 189 193
f 193 226 11
f 11 226 476
f 508 12 13
f 507 20 12
f 507 12 508
f 509 13 14
f 508 13 509
f 510 14 15
f 509 14 510
f 511 15 16
f 510 15 511
f 511 16 466
f 541 17 18
f 540 23 17
f 540 17 541
f 542 18 19
f 541 18 542
f 543 19 20
f 542 19 543
f 543 20 507
f 571 21 22
f 570 26 21
f 570 21 571
f 572 22 23
f 571 22 572
f 572 23 540
f 589 24 25
f 588 34 24
f 588 24 589
f 590 25 26
f 589 25 590
f 590 26 570
f 607 27 28
f 29 30 27
f 27 47 29
f 27 30 31
f 27 31 32
f 27 32 33
f 41 47 27
f 606 41 27
f 606 27 607
f 615 28 34
f 607 28 615
f 29 47 30
f 30 48 31
f 30 47 48
f 31 49 32
f 31 48 49
f 32 50 33
f 32 49 50
f 33 50 51
f 51 56 33
f 33 56 61
f 615 34 588
f 35 38 36
f 621 35 36
f 37 38 35
f 35 93 37
f 91 93 35
f 620 91 35
f 620 35 621
f 36 38 39
f 36 39 40
f 36 40 41
f 627 36 41
f 621 36 627
f 37 94 38
f 93 135 37
f 133 94 37
f 37 135 133
f 38 96 39
f 94 95 38
f 38 95 96
f 39 43 40
f 42 43 39
f 39 96 42
f 41 40 44
f 40 43 44
f 41 44 45
f 45 46 41
f 46 47 41
f 627 41 606
f 54 43 42
f 54 42 53
f 53 42 96
f 55 44 43
f 55 43 54
f 44 46 45
f 44 47 46
f 44 48 47
f 44 49 48
f 44 50 49
f 44 51 50
f 44 56 51
f 55 56 44
f 58 53 52
f 53 98 52
f 58 52 57
f 57 52 98
f 59 54 53
f 59 53 58
f 53 96 99
f 53 99 98
f 60 55 54
f 60 54 59
f 60 56 55
f 60 61 56
f 63 58 57
f 63 57 62
f 62 57 101
f 57 98 101
f 64 59 58
f 64 58 63
f 65 60 59
f 65 59 64
f 65 61 60
f 65 66 61
f 68 63 62
f 68 62 67
f 67 62 103
f 62 101 103
f 69 64 63
f 69 63 68
f 70 65 64
f 70 64 69
f 70 66 65
f 70 71 66
f 72 68 67
f 72 67 107
f 67 103 105
f 107 67 105
f 73 69 68
f 73 68 72
f 74 70 69
f 74 69 73
f 74 71 70
f 74 75 71
f 77 73 72
f 77 72 76
f 111 76 72
f 108 72 107
f 111 72 108
f 78 74 73
f 78 73 77
f 78 75 74
f 78 79 75
f 81 77 76
f 81 76 80
f 80 76 113
f 113 76 111
f 82 78 77
f 82 77 81
f 82 79 78
f 82 83 79
f 114 81 80
f 114 80 113
f 118 82 81
f 117 81 114
f 118 81 117
f 84 83 82
f 84 82 118
f 84 85 83
f 118 85 84
f 118 119 85
f 86 88 87
f 637 86 87
f 86 132 88
f 131 132 86
f 636 131 86
f 636 86 637
f 87 88 89
f 89 90 87
f 87 90 91
f 641 87 91
f 637 87 641
f 88 234 89
f 132 273 88
f 88 273 234
f 89 237 90
f 89 234 237
f 91 90 92
f 90 238 92
f 90 237 238
f 92 93 91
f 641 91 620
f 92 200 93
f 92 235 200
f 239 235 92
f 92 238 239
f 93 134 135
f 168 134 93
f 93 169 168
f 200 169 93
f 94 98 95
f 94 97 98
f 133 97 94
f 99 96 95
f 99 95 98
f 101 98 97
f 101 97 100
f 100 97 135
f 133 135 97
f 103 101 100
f 103 100 102
f 102 100 137
f 100 135 137
f 105 103 102
f 105 102 104
f 104 102 139
f 102 137 139
f 107 105 104
f 107 104 106
f 106 104 141
f 104 139 141
f 109 107 106
f 144 109 106
f 106 141 143
f 144 106 143
f 110 108 107
f 109 110 107
f 110 111 108
f 110 109 144
f 113 111 110
f 113 110 112
f 112 110 147
f 145 110 144
f 147 110 145
f 112 116 113
f 112 115 116
f 112 149 115
f 147 149 112
f 117 114 113
f 117 113 116
f 149 116 115
f 120 117 116
f 152 120 116
f 149 150 116
f 150 152 116
f 121 118 117
f 120 121 117
f 122 119 118
f 121 122 118
f 122 123 119
f 152 121 120
f 124 122 121
f 156 124 121
f 152 153 121
f 156 121 153
f 125 123 122
f 124 125 122
f 125 126 123
f 156 125 124
f 125 158 126
f 156 157 125
f 157 158 125
f 127 129 128
f 648 127 128
f 167 129 127
f 164 167 127
f 647 164 127
f 647 127 648
f 129 130 128
f 128 130 131
f 652 128 131
f 648 128 652
f 129 307 130
f 650 129 167
f 308 307 129
f 129 341 308
f 129 340 341
f 129 342 340
f 129 376 342
f 129 406 376
f 129 438 406
f 650 438 129
f 131 130 132
f 271 132 130
f 130 307 271
f 652 131 636
f 272 132 271
f 132 272 273
f 135 134 136
f 136 134 168
f 135 136 137
f 137 136 138
f 170 138 136
f 169 136 168
f 170 136 169
f 137 138 139
f 139 138 140
f 171 140 138
f 171 138 170
f 139 140 141
f 141 140 142
f 172 142 140
f 172 140 171
f 141 142 143
f 143 142 172
f 175 144 143
f 172 173 143
f 143 173 175
f 147 145 144
f 147 144 146
f 146 144 177
f 177 144 175
f 148 147 146
f 179 148 146
f 179 146 177
f 148 149 147
f 179 149 148
f 151 150 149
f 179 151 149
f 151 152 150
f 154 152 151
f 183 154 151
f 180 151 179
f 180 181 151
f 181 183 151
f 152 156 153
f 154 155 152
f 155 156 152
f 183 155 154
f 155 160 156
f 159 160 155
f 186 159 155
f 183 184 155
f 186 155 184
f 160 157 156
f 161 158 157
f 160 161 157
f 161 162 158
f 186 160 159
f 187 161 160
f 186 187 160
f 188 162 161
f 187 188 161
f 188 189 162
f 163 165 164
f 658 163 164
f 163 199 165
f 197 199 163
f 657 197 163
f 657 163 658
f 164 165 166
f 166 167 164
f 658 164 647
f 660 166 165
f 659 165 199
f 660 165 659
f 166 660 167
f 650 167 649
f 649 167 661
f 167 660 661
f 169 203 170
f 169 200 203
f 170 205 171
f 170 203 205
f 172 171 207
f 207 171 205
f 172 174 173
f 174 172 209
f 207 209 172
f 174 175 173
f 177 175 174
f 177 174 176
f 209 176 174
f 178 177 176
f 211 178 176
f 210 176 209
f 211 176 210
f 178 179 177
f 211 179 178
f 214 180 179
f 211 212 179
f 214 179 212
f 182 181 180
f 215 182 180
f 215 180 214
f 182 183 181
f 215 183 182
f 185 184 183
f 218 185 183
f 215 216 183
f 218 183 216
f 185 186 184
f 218 186 185
f 190 187 186
f 221 190 186
f 218 219 186
f 221 186 219
f 191 188 187
f 190 191 187
f 192 189 188
f 191 192 188
f 192 193 189
f 221 191 190
f 224 192 191
f 221 222 191
f 222 224 191
f 225 193 192
f 224 225 192
f 225 226 193
f 194 195 197
f 231 195 194
f 670 194 197
f 667 231 194
f 667 194 670
f 197 195 196
f 669 196 195
f 232 195 231
f 668 195 232
f 669 195 668
f 197 196 198
f 669 198 196
f 198 199 197
f 670 197 657
f 672 199 198
f 671 198 669
f 672 198 671
f 659 199 672
f 203 200 235
f 239 201 202
f 202 201 240
f 237 201 238
f 240 201 237
f 239 238 201
f 239 202 204
f 204 202 241
f 241 202 240
f 203 204 205
f 239 204 203
f 203 235 239
f 205 204 206
f 243 206 204
f 243 204 241
f 207 205 206
f 206 209 207
f 206 208 209
f 244 208 206
f 243 244 206
f 244 209 208
f 247 210 209
f 244 245 209
f 247 209 245
f 247 211 210
f 213 212 211
f 248 213 211
f 248 211 247
f 213 214 212
f 213 215 214
f 250 215 213
f 249 213 248
f 250 213 249
f 215 218 216
f 217 218 215
f 251 217 215
f 250 251 215
f 253 218 217
f 253 217 251
f 218 221 219
f 220 221 218
f 255 220 218
f 253 255 218
f 255 221 220
f 221 224 222
f 224 221 223
f 258 223 221
f 255 256 221
f 256 258 221
f 258 224 223
f 259 225 224
f 258 259 224
f 225 264 226
f 259 260 225
f 263 225 260
f 263 264 225
f 476 226 264
f 227 435 228
f 678 227 228
f 266 478 227
f 677 266 227
f 227 480 435
f 227 478 480
f 677 227 678
f 228 435 231
f 681 228 231
f 678 228 681
f 229 230 231
f 680 230 229
f 231 270 229
f 679 229 270
f 680 229 679
f 231 230 232
f 232 230 682
f 682 230 680
f 267 268 231
f 231 306 267
f 231 268 269
f 269 270 231
f 304 306 231
f 339 304 231
f 336 337 231
f 231 375 336
f 231 337 339
f 373 375 231
f 405 373 231
f 231 403 405
f 231 437 403
f 231 435 437
f 681 231 667
f 232 682 668
f 233 236 273
f 233 275 236
f 273 275 233
f 236 237 234
f 273 236 234
f 275 237 236
f 277 240 237
f 275 277 237
f 240 243 241
f 242 243 240
f 278 242 240
f 277 278 240
f 278 243 242
f 281 244 243
f 278 279 243
f 279 281 243
f 246 245 244
f 281 246 244
f 246 247 245
f 282 247 246
f 282 246 281
f 283 248 247
f 282 283 247
f 286 249 248
f 283 284 248
f 286 248 284
f 287 250 249
f 287 249 286
f 252 251 250
f 288 252 250
f 287 288 250
f 252 253 251
f 288 253 252
f 254 255 253
f 290 254 253
f 288 289 253
f 289 290 253
f 291 255 254
f 291 254 290
f 257 256 255
f 257 255 291
f 257 258 256
f 294 258 257
f 293 257 291
f 294 257 293
f 262 259 258
f 262 258 261
f 261 258 296
f 296 258 294
f 263 260 259
f 263 259 262
f 297 262 261
f 297 261 296
f 298 263 262
f 298 262 297
f 263 299 264
f 298 299 263
f 476 264 299
f 265 516 266
f 687 265 266
f 305 515 265
f 686 305 265
f 265 515 516
f 686 265 687
f 266 516 478
f 687 266 677
f 689 268 267
f 699 267 306
f 689 267 688
f 688 267 699
f 689 269 268
f 691 270 269
f 690 269 689
f 691 269 690
f 679 270 691
f 307 272 271
f 273 272 275
f 274 275 272
f 274 272 309
f 307 309 272
f 309 275 274
f 276 277 275
f 310 276 275
f 309 310 275
f 313 277 276
f 312 276 310
f 312 313 276
f 313 278 277
f 278 281 279
f 280 281 278
f 314 280 278
f 313 314 278
f 315 281 280
f 315 280 314
f 317 282 281
f 316 281 315
f 316 317 281
f 318 283 282
f 317 318 282
f 283 286 284
f 285 286 283
f 319 285 283
f 318 319 283
f 319 286 285
f 322 287 286
f 319 320 286
f 322 286 320
f 287 323 288
f 322 323 287
f 288 290 289
f 324 290 288
f 323 324 288
f 293 291 290
f 293 290 292
f 292 290 326
f 324 325 290
f 326 290 325
f 293 292 326
f 296 294 293
f 296 293 295
f 329 295 293
f 327 293 326
f 329 293 327
f 330 296 295
f 330 295 329
f 332 297 296
f 332 296 330
f 301 298 297
f 301 297 300
f 332 300 297
f 298 302 299
f 301 302 298
f 299 302 476
f 333 301 300
f 333 300 332
f 301 334 302
f 333 334 301
f 302 334 476
f 303 513 305
f 698 303 305
f 338 547 303
f 696 338 303
f 303 548 513
f 303 547 548
f 696 303 698
f 304 697 306
f 708 304 339
f 697 304 708
f 305 513 515
f 698 305 686
f 306 697 699
f 308 309 307
f 309 308 341
f 309 312 310
f 311 312 309
f 311 309 344
f 309 341 343
f 309 343 344
f 312 311 344
f 346 313 312
f 345 312 344
f 345 346 312
f 347 314 313
f 346 347 313
f 347 315 314
f 350 316 315
f 347 348 315
f 348 350 315
f 350 317 316
f 351 318 317
f 350 351 317
f 354 319 318
f 353 318 351
f 354 318 353
f 319 322 320
f 321 322 319
f 355 321 319
f 354 355 319
f 355 322 321
f 323 322 357
f 355 356 322
f 357 322 356
f 357 324 323
f 358 325 324
f 357 358 324
f 326 325 361
f 358 359 325
f 359 361 325
f 329 327 326
f 329 326 328
f 362 328 326
f 362 326 361
f 363 329 328
f 363 328 362
f 365 330 329
f 364 329 363
f 365 329 364
f 332 330 331
f 365 331 330
f 365 332 331
f 366 333 332
f 365 366 332
f 367 334 333
f 366 367 333
f 367 368 334
f 476 334 368
f 335 546 338
f 707 335 338
f 374 575 335
f 704 374 335
f 335 575 546
f 704 335 707
f 705 337 336
f 705 336 375
f 708 339 337
f 706 337 705
f 708 337 706
f 338 546 547
f 707 338 696
f 341 340 343
f 343 340 342
f 343 342 376
f 344 343 377
f 343 376 377
f 379 345 344
f 344 377 378
f 344 378 379
f 380 346 345
f 380 345 379
f 381 347 346
f 380 381 346
f 349 348 347
f 382 349 347
f 382 347 381
f 349 350 348
f 382 350 349
f 352 351 350
f 384 352 350
f 382 383 350
f 384 350 383
f 352 353 351
f 385 353 352
f 384 385 352
f 386 354 353
f 385 386 353
f 386 355 354
f 388 356 355
f 387 355 386
f 387 388 355
f 388 357 356
f 390 358 357
f 388 389 357
f 389 390 357
f 358 361 359
f 360 361 358
f 391 360 358
f 390 391 358
f 391 361 360
f 393 362 361
f 391 392 361
f 392 393 361
f 393 363 362
f 395 364 363
f 393 394 363
f 395 363 394
f 396 365 364
f 396 364 395
f 397 366 365
f 397 365 396
f 366 370 367
f 370 366 369
f 369 366 397
f 367 371 368
f 370 371 367
f 368 371 476
f 400 370 369
f 399 369 397
f 400 369 399
f 370 401 371
f 400 401 370
f 371 401 476
f 372 574 374
f 714 372 374
f 404 594 372
f 712 404 372
f 372 594 574
f 712 372 714
f 713 375 373
f 373 405 713
f 374 574 575
f 714 374 704
f 705 375 715
f 715 375 713
f 377 376 378
f 378 376 406
f 379 378 408
f 378 406 407
f 378 407 408
f 380 379 409
f 379 408 409
f 410 381 380
f 410 380 409
f 411 382 381
f 410 411 381
f 382 384 383
f 412 384 382
f 412 382 411
f 415 385 384
f 412 413 384
f 413 415 384
f 415 386 385
f 417 387 386
f 416 386 415
f 416 417 386
f 417 388 387
f 419 389 388
f 418 388 417
f 418 419 388
f 421 390 389
f 421 389 419
f 422 391 390
f 390 421 422
f 422 392 391
f 393 392 423
f 422 423 392
f 395 394 393
f 427 395 393
f 425 393 423
f 426 393 425
f 427 393 426
f 428 396 395
f 428 395 427
f 399 397 396
f 399 396 398
f 398 396 428
f 431 399 398
f 430 398 428
f 431 398 430
f 432 400 399
f 432 399 431
f 400 433 401
f 432 433 400
f 476 401 433
f 402 592 404
f 722 402 404
f 436 592 402
f 720 436 402
f 720 402 722
f 723 405 403
f 721 403 437
f 723 403 721
f 404 592 594
f 722 404 712
f 713 405 723
f 407 406 439
f 439 406 438
f 408 407 439
f 409 408 441
f 408 439 441
f 410 409 442
f 409 441 442
f 443 411 410
f 443 410 442
f 444 412 411
f 443 444 411
f 414 413 412
f 445 414 412
f 444 445 412
f 414 415 413
f 445 415 414
f 447 416 415
f 445 446 415
f 447 415 446
f 448 417 416
f 447 448 416
f 450 418 417
f 450 417 448
f 418 421 419
f 420 421 418
f 451 420 418
f 450 451 418
f 421 420 451
f 421 453 422
f 421 451 452
f 421 452 453
f 422 425 423
f 424 425 422
f 454 424 422
f 453 454 422
f 454 425 424
f 456 426 425
f 455 425 454
f 456 425 455
f 457 427 426
f 457 426 456
f 430 428 427
f 430 427 429
f 458 429 427
f 458 427 457
f 459 430 429
f 459 429 458
f 460 431 430
f 460 430 459
f 461 432 431
f 461 431 460
f 461 433 432
f 461 462 433
f 433 462 476
f 434 617 436
f 729 434 436
f 479 617 434
f 727 479 434
f 727 434 729
f 728 437 435
f 734 435 480
f 728 435 734
f 436 619 592
f 436 617 619
f 729 436 720
f 721 437 730
f 730 437 728
f 439 438 441
f 441 438 440
f 440 438 481
f 650 481 438
f 441 440 482
f 482 440 481
f 442 441 482
f 443 442 485
f 442 482 484
f 442 484 485
f 486 444 443
f 485 486 443
f 487 445 444
f 486 487 444
f 445 447 446
f 488 447 445
f 488 445 487
f 447 450 448
f 449 450 447
f 490 449 447
f 488 489 447
f 490 447 489
f 490 450 449
f 450 491 451
f 491 450 490
f 493 452 451
f 451 491 493
f 453 452 496
f 496 452 493
f 497 454 453
f 496 497 453
f 498 455 454
f 498 454 497
f 499 456 455
f 499 455 498
f 456 500 457
f 456 499 500
f 457 501 458
f 457 500 501
f 458 502 459
f 458 501 502
f 503 460 459
f 503 459 502
f 460 464 461
f 460 463 464
f 504 463 460
f 504 460 503
f 461 465 462
f 464 465 461
f 476 462 465
f 505 464 463
f 505 463 504
f 464 506 465
f 505 506 464
f 476 465 506
f 476 466 467
f 511 466 476
f 467 468 476
f 476 468 469
f 476 469 470
f 476 470 471
f 476 471 472
f 472 473 476
f 476 473 474
f 476 474 475
f 476 506 539
f 476 507 508
f 543 507 476
f 508 509 476
f 476 509 510
f 476 510 511
f 539 569 476
f 476 540 541
f 476 572 540
f 476 541 542
f 476 542 543
f 476 569 614
f 476 570 571
f 590 570 476
f 571 572 476
f 476 588 589
f 615 588 476
f 476 589 590
f 476 606 607
f 614 606 476
f 476 607 615
f 477 633 479
f 733 477 479
f 514 633 477
f 731 514 477
f 731 477 733
f 734 480 478
f 478 516 732
f 478 732 734
f 479 635 617
f 479 633 635
f 733 479 727
f 482 481 484
f 481 483 484
f 650 483 481
f 484 483 517
f 650 517 483
f 485 484 518
f 484 517 518
f 520 486 485
f 485 518 520
f 520 487 486
f 522 488 487
f 520 522 487
f 522 489 488
f 524 490 489
f 523 489 522
f 523 524 489
f 492 491 490
f 490 524 492
f 492 493 491
f 527 493 492
f 492 524 526
f 526 527 492
f 493 494 495
f 493 528 494
f 495 496 493
f 527 528 493
f 495 494 496
f 529 496 494
f 529 494 528
f 496 530 497
f 496 529 530
f 497 531 498
f 497 530 531
f 498 532 499
f 498 531 532
f 499 533 500
f 499 532 533
f 500 534 501
f 500 533 534
f 534 502 501
f 535 503 502
f 534 535 502
f 536 504 503
f 535 536 503
f 537 505 504
f 536 537 504
f 505 539 506
f 537 538 505
f 538 539 505
f 512 646 514
f 735 512 514
f 545 645 512
f 735 545 512
f 512 645 646
f 736 515 513
f 736 513 548
f 514 646 633
f 735 514 731
f 738 516 515
f 737 515 736
f 738 515 737
f 732 516 738
f 518 517 549
f 650 549 517
f 518 519 520
f 518 549 519
f 549 520 519
f 521 522 520
f 551 521 520
f 550 520 549
f 550 551 520
f 552 522 521
f 551 552 521
f 522 554 523
f 522 552 554
f 523 555 524
f 523 554 555
f 524 555 526
f 556 525 528
f 558 528 525
f 640 525 556
f 525 557 558
f 642 557 525
f 642 525 640
f 526 528 527
f 526 556 528
f 526 555 556
f 529 528 558
f 530 529 559
f 529 558 559
f 531 530 560
f 530 559 560
f 532 531 561
f 531 560 561
f 533 532 562
f 532 561 562
f 534 533 564
f 533 562 563
f 533 563 564
f 535 534 564
f 536 535 565
f 535 564 565
f 537 536 566
f 536 565 566
f 538 537 567
f 537 566 567
f 538 569 539
f 538 567 568
f 568 569 538
f 544 656 545
f 740 544 545
f 573 655 544
f 739 573 544
f 544 655 656
f 739 544 740
f 545 656 645
f 740 545 735
f 742 547 546
f 746 546 575
f 742 546 741
f 741 546 746
f 742 548 547
f 736 548 743
f 743 548 742
f 650 550 549
f 550 576 551
f 651 576 550
f 651 550 650
f 552 551 554
f 554 551 553
f 653 554 551
f 653 551 576
f 638 555 554
f 638 554 653
f 640 556 555
f 639 555 638
f 640 555 639
f 558 557 642
f 643 559 558
f 643 558 642
f 577 560 559
f 577 559 643
f 561 560 578
f 577 578 560
f 562 561 579
f 561 578 579
f 563 562 580
f 562 579 580
f 564 563 581
f 563 580 581
f 565 564 582
f 564 581 582
f 566 565 583
f 565 582 583
f 567 566 584
f 566 583 584
f 568 567 585
f 567 584 585
f 568 587 569
f 568 585 586
f 586 587 568
f 614 569 587
f 593 655 573
f 744 593 573
f 744 573 739
f 746 575 574
f 574 594 745
f 574 745 746
f 653 576 651
f 643 578 577
f 578 596 579
f 578 595 596
f 643 595 578
f 596 580 579
f 581 580 597
f 596 597 580
f 582 581 598
f 581 597 598
f 583 582 599
f 582 598 599
f 584 583 600
f 583 599 600
f 585 584 601
f 584 600 601
f 586 585 608
f 585 601 608
f 586 614 587
f 586 608 609
f 609 614 586
f 591 664 593
f 749 591 593
f 618 664 591
f 747 618 591
f 747 591 749
f 750 594 592
f 748 592 619
f 750 592 748
f 593 666 655
f 593 664 666
f 749 593 744
f 745 594 750
f 643 596 595
f 622 597 596
f 622 596 643
f 598 597 623
f 623 597 622
f 623 599 598
f 624 600 599
f 624 599 623
f 625 601 600
f 625 600 624
f 609 601 602
f 602 601 626
f 609 608 601
f 626 601 625
f 602 603 604
f 626 603 602
f 602 604 605
f 602 605 609
f 630 604 603
f 629 603 626
f 630 603 629
f 631 605 604
f 631 604 630
f 609 605 610
f 610 605 631
f 610 606 611
f 631 606 610
f 611 606 612
f 612 606 613
f 613 606 614
f 631 627 606
f 609 610 611
f 609 611 612
f 609 612 613
f 609 613 614
f 616 663 618
f 753 616 618
f 634 676 616
f 751 634 616
f 616 676 663
f 751 616 753
f 752 619 617
f 752 617 635
f 618 663 664
f 753 618 747
f 748 619 754
f 754 619 752
f 623 620 621
f 622 620 623
f 643 620 622
f 643 641 620
f 623 621 624
f 624 621 625
f 625 621 627
f 625 627 626
f 626 627 628
f 629 626 628
f 628 627 629
f 629 627 630
f 630 627 631
f 632 674 634
f 757 632 634
f 644 685 632
f 755 644 632
f 632 685 674
f 755 632 757
f 756 635 633
f 633 646 756
f 634 674 676
f 757 634 751
f 752 635 758
f 758 635 756
f 638 636 637
f 653 636 638
f 653 652 636
f 638 637 639
f 639 637 640
f 640 637 641
f 640 641 642
f 642 641 643
f 654 684 644
f 759 654 644
f 644 684 685
f 759 644 755
f 761 646 645
f 760 645 656
f 761 645 760
f 756 646 761
f 650 647 648
f 649 647 650
f 661 647 649
f 661 658 647
f 650 648 651
f 651 648 652
f 651 652 653
f 665 695 654
f 762 665 654
f 654 695 684
f 762 654 759
f 764 656 655
f 763 655 666
f 764 655 763
f 760 656 764
f 659 657 658
f 672 657 659
f 672 670 657
f 659 658 660
f 660 658 661
f 662 693 665
f 768 662 665
f 675 693 662
f 765 675 662
f 765 662 768
f 767 664 663
f 676 773 663
f 663 766 767
f 663 773 766
f 769 666 664
f 769 664 767
f 665 693 695
f 768 665 762
f 763 666 769
f 668 667 670
f 668 681 667
f 668 670 669
f 682 681 668
f 669 670 671
f 671 670 672
f 673 701 675
f 772 673 675
f 683 701 673
f 770 683 673
f 770 673 772
f 676 674 773
f 776 674 685
f 773 674 771
f 771 674 776
f 675 703 693
f 675 701 703
f 772 675 765
f 728 677 678
f 732 687 677
f 734 677 728
f 732 677 734
f 728 678 681
f 679 681 680
f 691 681 679
f 680 681 682
f 688 681 689
f 699 681 688
f 689 681 690
f 690 681 691
f 697 681 699
f 708 681 697
f 705 681 706
f 715 681 705
f 706 681 708
f 713 681 715
f 723 681 713
f 721 681 723
f 730 681 721
f 728 681 730
f 694 711 683
f 774 694 683
f 683 711 701
f 774 683 770
f 776 685 684
f 780 684 695
f 776 684 775
f 775 684 780
f 738 686 687
f 737 698 686
f 737 686 738
f 738 687 732
f 692 711 694
f 779 692 694
f 702 710 692
f 777 702 692
f 692 710 711
f 777 692 779
f 780 695 693
f 784 693 703
f 693 778 780
f 778 693 784
f 779 694 774
f 736 696 698
f 742 707 696
f 743 696 736
f 742 696 743
f 736 698 737
f 700 710 702
f 783 700 702
f 709 719 700
f 781 709 700
f 700 719 710
f 781 700 783
f 784 703 701
f 701 711 782
f 701 782 784
f 783 702 777
f 741 704 707
f 746 714 704
f 746 704 741
f 741 707 742
f 718 717 709
f 709 717 719
f 785 718 709
f 785 709 781
f 786 711 710
f 786 710 719
f 782 711 786
f 745 712 714
f 750 722 712
f 750 712 745
f 745 714 746
f 716 717 718
f 716 725 717
f 785 716 718
f 724 725 716
f 787 724 716
f 787 716 785
f 788 719 717
f 725 791 717
f 717 791 788
f 786 719 789
f 789 719 788
f 748 720 722
f 748 729 720
f 748 722 750
f 726 725 724
f 726 724 795
f 790 724 787
f 829 724 790
f 795 724 793
f 793 724 829
f 726 791 725
f 726 792 791
f 795 792 726
f 752 727 729
f 752 733 727
f 754 729 748
f 752 729 754
f 756 731 733
f 756 735 731
f 758 733 752
f 756 733 758
f 760 740 735
f 761 735 756
f 760 735 761
f 764 739 740
f 763 744 739
f 763 739 764
f 764 740 760
f 763 749 744
f 767 747 749
f 767 753 747
f 769 749 763
f 767 749 769
f 766 751 753
f 773 757 751
f 773 751 766
f 766 753 767
f 771 755 757
f 776 759 755
f 776 755 771
f 771 757 773
f 775 762 759
f 775 759 776
f 780 768 762
f 780 762 775
f 778 765 768
f 778 772 765
f 778 768 780
f 782 770 772
f 782 774 770
f 784 772 778
f 782 772 784
f 782 779 774
f 786 777 779
f 786 783 777
f 786 779 782
f 786 781 783
f 789 785 781
f 789 781 786
f 788 787 785
f 788 785 789
f 791 787 788
f 790 787 791
f 790 791 792
f 790 792 831
f 790 831 829
f 795 831 792
f 795 793 794
f 794 793 796
f 793 829 796
f 794 831 795
f 794 796 797
f 797 834 794
f 830 831 794
f 794 834 830
f 797 796 798
f 796 833 798
f 796 829 833
f 797 798 799
f 799 838 797
f 797 838 834
f 799 798 802
f 798 837 802
f 798 833 837
f 799 802 800
f 800 841 799
f 799 841 838
f 800 804 801
f 801 844 800
f 800 802 804
f 800 844 841
f 801 808 803
f 803 849 801
f 801 804 806
f 801 806 808
f 801 849 844
f 802 845 804
f 802 837 845
f 803 809 805
f 805 853 803
f 803 808 809
f 803 853 849
f 804 850 806
f 804 845 850
f 805 811 807
f 807 858 805
f 805 809 811
f 805 858 853
f 806 854 808
f 806 850 854
f 807 813 810
f 810 862 807
f 807 811 813
f 807 862 858
f 808 857 809
f 808 854 857
f 809 861 811
f 809 857 861
f 810 817 812
f 812 866 810
f 810 813 815
f 810 815 817
f 810 866 862
f 811 865 813
f 811 861 865
f 812 819 814
f 814 870 812
f 812 817 819
f 812 870 866
f 813 869 815
f 813 865 869
f 814 821 816
f 816 874 814
f 814 819 821
f 814 874 870
f 815 873 817
f 815 869 873
f 816 823 818
f 818 879 816
f 816 821 823
f 816 879 874
f 817 878 819
f 817 873 878
f 818 825 820
f 820 884 818
f 818 823 825
f 818 884 879
f 819 883 821
f 819 878 883
f 820 835 822
f 822 888 820
f 820 825 827
f 820 827 835
f 820 888 884
f 821 887 823
f 821 883 887
f 822 839 824
f 824 892 822
f 822 835 839
f 822 892 888
f 823 891 825
f 823 887 891
f 824 842 826
f 826 896 824
f 824 839 842
f 824 896 892
f 825 895 827
f 825 891 895
f 826 847 828
f 828 901 826
f 826 842 847
f 826 901 896
f 827 900 835
f 827 895 900
f 828 852 832
f 832 905 828
f 828 847 852
f 828 905 901
f 829 831 830
f 829 830 833
f 833 830 834
f 832 856 836
f 836 908 832
f 832 852 856
f 832 908 905
f 833 834 837
f 837 834 838
f 835 904 839
f 835 900 904
f 836 860 840
f 840 913 836
f 836 856 860
f 836 913 908
f 837 838 845
f 845 838 841
f 839 912 842
f 839 904 912
f 840 864 843
f 843 918 840
f 840 860 864
f 840 918 913
f 850 841 844
f 845 841 850
f 842 917 847
f 842 912 917
f 843 868 848
f 848 916 843
f 843 864 868
f 843 916 918
f 857 844 849
f 850 844 854
f 854 844 857
f 848 871 846
f 846 922 848
f 846 876 851
f 851 927 846
f 846 871 876
f 846 927 922
f 847 923 852
f 847 917 923
f 848 868 871
f 848 922 916
f 861 849 853
f 857 849 861
f 851 882 855
f 855 931 851
f 851 876 882
f 851 931 927
f 852 928 856
f 852 923 928
f 865 853 858
f 861 853 865
f 855 880 859
f 859 936 855
f 855 882 880
f 855 936 931
f 856 932 860
f 856 928 932
f 869 858 862
f 865 858 869
f 859 885 863
f 863 940 859
f 859 880 885
f 859 940 936
f 860 937 864
f 860 932 937
f 878 862 866
f 869 862 873
f 873 862 878
f 863 889 867
f 867 946 863
f 863 885 889
f 863 946 940
f 864 941 868
f 864 937 941
f 883 866 870
f 878 866 883
f 867 893 872
f 872 951 867
f 867 889 893
f 867 951 946
f 868 947 871
f 868 941 947
f 887 870 874
f 883 870 887
f 871 950 876
f 871 947 950
f 872 897 877
f 877 957 872
f 872 893 897
f 872 957 951
f 891 874 879
f 887 874 891
f 877 902 875
f 875 955 877
f 875 906 881
f 881 963 875
f 875 902 906
f 875 963 955
f 876 956 882
f 876 950 956
f 877 897 902
f 877 955 957
f 895 879 884
f 891 879 895
f 882 964 880
f 880 962 885
f 880 964 962
f 881 909 886
f 886 969 881
f 881 906 909
f 881 969 963
f 882 956 964
f 904 884 888
f 895 884 900
f 900 884 904
f 885 968 889
f 885 962 968
f 886 915 890
f 890 975 886
f 886 909 915
f 886 975 969
f 912 888 892
f 904 888 912
f 889 974 893
f 889 968 974
f 890 921 894
f 894 980 890
f 890 915 921
f 890 980 975
f 917 892 896
f 912 892 917
f 893 979 897
f 893 974 979
f 894 919 899
f 899 987 894
f 894 921 919
f 894 987 980
f 923 896 901
f 917 896 923
f 897 985 902
f 897 979 985
f 899 924 898
f 898 986 899
f 898 929 903
f 903 993 898
f 898 924 929
f 898 993 986
f 899 919 924
f 899 986 987
f 928 901 905
f 923 901 928
f 902 992 906
f 902 985 992
f 903 933 907
f 907 1000 903
f 903 929 933
f 903 1000 993
f 932 905 908
f 928 905 932
f 906 999 909
f 906 992 999
f 907 939 911
f 911 1008 907
f 907 933 939
f 907 1008 1000
f 937 908 913
f 932 908 937
f 909 1006 915
f 909 999 1006
f 911 944 910
f 910 1007 911
f 910 942 914
f 914 1015 910
f 910 944 942
f 910 1015 1007
f 911 939 944
f 911 1007 1008
f 941 913 918
f 937 913 941
f 914 948 920
f 920 1026 914
f 914 942 948
f 914 1026 1015
f 915 1016 921
f 915 1006 1016
f 947 918 916
f 950 916 922
f 947 916 950
f 941 918 947
f 921 1027 919
f 919 1025 924
f 919 1027 1025
f 920 953 926
f 926 1039 920
f 920 948 953
f 920 1039 1026
f 921 1016 1027
f 956 922 927
f 950 922 956
f 924 1037 929
f 924 1025 1037
f 926 960 925
f 925 1038 926
f 925 960 930
f 930 1044 925
f 925 1044 1038
f 926 953 960
f 926 1038 1039
f 964 927 931
f 956 927 964
f 929 1043 933
f 929 1037 1043
f 930 958 935
f 935 1049 930
f 930 960 958
f 930 1049 1044
f 962 931 936
f 964 931 962
f 933 1047 939
f 933 1043 1047
f 935 965 934
f 934 1048 935
f 934 972 938
f 938 1054 934
f 934 965 972
f 934 1054 1048
f 935 958 965
f 935 1048 1049
f 968 936 940
f 962 936 968
f 938 970 945
f 945 1063 938
f 938 972 970
f 938 1063 1054
f 939 1055 944
f 939 1047 1055
f 974 940 946
f 968 940 974
f 944 1062 942
f 942 1060 948
f 942 1062 1060
f 945 976 943
f 943 1061 945
f 943 983 949
f 949 1073 943
f 943 976 983
f 943 1073 1061
f 944 1055 1062
f 945 970 976
f 945 1061 1063
f 979 946 951
f 974 946 979
f 948 1072 953
f 948 1060 1072
f 949 981 954
f 954 1074 949
f 949 983 981
f 949 1074 1073
f 985 951 957
f 979 951 985
f 954 988 952
f 952 1079 954
f 952 997 961
f 961 1083 952
f 952 988 997
f 952 1083 1079
f 953 1078 960
f 953 1072 1078
f 954 981 988
f 954 1079 1074
f 992 957 955
f 999 955 963
f 992 955 999
f 985 957 992
f 960 1082 958
f 958 1080 965
f 958 1082 1080
f 961 994 959
f 959 1081 961
f 959 1004 967
f 967 1086 959
f 959 994 1004
f 959 1086 1081
f 960 1078 1082
f 961 997 994
f 961 1081 1083
f 1006 963 969
f 999 963 1006
f 965 1084 972
f 965 1080 1084
f 967 1001 966
f 966 1085 967
f 966 1013 973
f 973 1088 966
f 966 1001 1013
f 966 1088 1085
f 967 1004 1001
f 967 1085 1086
f 1016 969 975
f 1006 969 1016
f 972 1090 970
f 970 1087 976
f 970 1090 1087
f 973 1009 971
f 971 1089 973
f 971 1009 978
f 978 1093 971
f 971 1093 1089
f 972 1084 1090
f 973 1013 1009
f 973 1089 1088
f 1027 975 980
f 1016 975 1027
f 976 1091 983
f 976 1087 1091
f 978 1023 977
f 977 1092 978
f 977 1017 984
f 984 1097 977
f 977 1023 1017
f 977 1097 1092
f 978 1009 1023
f 978 1092 1093
f 1025 980 987
f 1027 980 1025
f 983 1096 981
f 981 1094 988
f 981 1096 1094
f 984 1032 982
f 982 1095 984
f 982 1028 991
f 991 1102 982
f 982 1032 1028
f 982 1102 1095
f 983 1091 1096
f 984 1017 1032
f 984 1095 1097
f 1037 987 986
f 1043 986 993
f 1037 986 1043
f 1025 987 1037
f 988 1098 997
f 988 1094 1098
f 989 1040 990
f 990 1101 989
f 991 1042 989
f 989 1100 991
f 989 1042 1040
f 989 1101 1100
f 990 1041 998
f 998 1106 990
f 990 1040 1041
f 990 1106 1101
f 991 1028 1042
f 991 1100 1102
f 1047 993 1000
f 1043 993 1047
f 997 1099 994
f 994 1103 1004
f 994 1099 1103
f 995 1045 996
f 996 1105 995
f 998 1046 995
f 995 1104 998
f 995 1046 1045
f 995 1105 1104
f 996 1052 1005
f 1005 1108 996
f 996 1045 1052
f 996 1108 1105
f 997 1098 1099
f 998 1041 1046
f 998 1104 1106
f 1055 1000 1008
f 1047 1000 1055
f 1004 1111 1001
f 1001 1107 1013
f 1001 1111 1107
f 1002 1050 1003
f 1003 1110 1002
f 1005 1053 1002
f 1002 1109 1005
f 1002 1053 1050
f 1002 1110 1109
f 1003 1051 1014
f 1014 1117 1003
f 1003 1050 1051
f 1003 1117 1110
f 1004 1103 1111
f 1005 1052 1053
f 1005 1109 1108
f 1062 1008 1007
f 1060 1007 1015
f 1062 1007 1060
f 1055 1008 1062
f 1013 1116 1009
f 1009 1112 1023
f 1009 1116 1112
f 1010 1059 1011
f 1011 1114 1010
f 1014 1059 1010
f 1010 1113 1014
f 1010 1114 1113
f 1011 1056 1012
f 1012 1115 1011
f 1011 1059 1056
f 1011 1115 1114
f 1012 1057 1024
f 1024 1125 1012
f 1012 1056 1057
f 1012 1125 1115
f 1013 1107 1116
f 1014 1051 1059
f 1014 1113 1117
f 1072 1015 1026
f 1060 1015 1072
f 1023 1124 1017
f 1017 1118 1032
f 1017 1124 1118
f 1018 1070 1019
f 1019 1120 1018
f 1024 1058 1018
f 1018 1119 1024
f 1018 1058 1070
f 1018 1120 1119
f 1019 1071 1020
f 1020 1121 1019
f 1019 1070 1071
f 1019 1121 1120
f 1020 1064 1021
f 1021 1122 1020
f 1020 1071 1064
f 1020 1122 1121
f 1021 1065 1022
f 1022 1123 1021
f 1021 1064 1065
f 1021 1123 1122
f 1022 1066 1033
f 1033 1132 1022
f 1022 1065 1066
f 1022 1132 1123
f 1023 1112 1124
f 1024 1057 1058
f 1024 1119 1125
f 1078 1026 1039
f 1072 1026 1078
f 1032 1131 1028
f 1028 1126 1042
f 1028 1131 1126
f 1029 1076 1030
f 1030 1129 1029
f 1036 1075 1029
f 1029 1128 1036
f 1029 1075 1076
f 1029 1129 1128
f 1030 1077 1031
f 1031 1130 1030
f 1030 1076 1077
f 1030 1130 1129
f 1077 1130 1031
f 1032 1118 1131
f 1033 1067 1034
f 1034 1133 1033
f 1033 1066 1067
f 1033 1133 1132
f 1034 1068 1035
f 1035 1134 1034
f 1034 1067 1068
f 1034 1134 1133
f 1035 1069 1036
f 1036 1127 1035
f 1035 1068 1069
f 1035 1127 1134
f 1036 1069 1075
f 1036 1128 1127
f 1082 1039 1038
f 1082 1038 1044
f 1078 1039 1082
f 1040 1135 1041
f 1042 1137 1040
f 1040 1137 1135
f 1041 1136 1046
f 1041 1135 1136
f 1042 1126 1137
f 1080 1044 1049
f 1082 1044 1080
f 1046 1140 1045
f 1045 1138 1052
f 1045 1140 1138
f 1046 1136 1140
f 1084 1049 1048
f 1090 1048 1054
f 1084 1048 1090
f 1080 1049 1084
f 1050 1142 1051
f 1053 1141 1050
f 1050 1141 1142
f 1051 1143 1059
f 1051 1142 1143
f 1052 1139 1053
f 1052 1138 1139
f 1053 1139 1141
f 1087 1054 1063
f 1090 1054 1087
f 1056 1144 1057
f 1059 1147 1056
f 1056 1147 1144
f 1057 1145 1058
f 1057 1144 1145
f 1058 1146 1070
f 1058 1145 1146
f 1059 1143 1147
f 1091 1063 1061
f 1096 1061 1073
f 1091 1061 1096
f 1087 1063 1091
f 1064 1148 1065
f 1071 1156 1064
f 1064 1156 1148
f 1065 1149 1066
f 1065 1148 1149
f 1066 1150 1067
f 1066 1149 1150
f 1067 1151 1068
f 1067 1150 1151
f 1068 1152 1069
f 1068 1151 1152
f 1069 1153 1075
f 1069 1152 1153
f 1070 1155 1071
f 1070 1146 1155
f 1071 1155 1156
f 1094 1073 1074
f 1096 1073 1094
f 1098 1074 1079
f 1094 1074 1098
f 1075 1154 1076
f 1075 1153 1154
f 1076 1157 1077
f 1076 1154 1157
f 1158 1130 1077
f 1077 1157 1158
f 1099 1079 1083
f 1098 1079 1099
f 1103 1083 1081
f 1111 1081 1086
f 1103 1081 1111
f 1099 1083 1103
f 1107 1086 1085
f 1116 1085 1088
f 1107 1085 1116
f 1111 1086 1107
f 1112 1088 1089
f 1116 1088 1112
f 1112 1089 1093
f 1124 1093 1092
f 1118 1092 1097
f 1124 1092 1118
f 1112 1093 1124
f 1131 1097 1095
f 1126 1095 1102
f 1131 1095 1126
f 1118 1097 1131
f 1135 1100 1101
f 1137 1102 1100
f 1137 1100 1135
f 1136 1101 1106
f 1135 1101 1136
f 1126 1102 1137
f 1138 1104 1105
f 1140 1106 1104
f 1140 1104 1138
f 1139 1105 1108
f 1138 1105 1139
f 1136 1106 1140
f 1141 1108 1109
f 1139 1108 1141
f 1142 1109 1110
f 1141 1109 1142
f 1143 1110 1117
f 1142 1110 1143
f 1147 1113 1114
f 1147 1117 1113
f 1144 1114 1115
f 1147 1114 1144
f 1145 1115 1125
f 1144 1115 1145
f 1143 1117 1147
f 1155 1119 1120
f 1146 1125 1119
f 1146 1119 1155
f 1156 1120 1121
f 1155 1120 1156
f 1148 1121 1122
f 1156 1121 1148
f 1149 1122 1123
f 1148 1122 1149
f 1150 1123 1132
f 1149 1123 1150
f 1145 1125 1146
f 1154 1127 1128
f 1153 1134 1127
f 1153 1127 1154
f 1157 1128 1129
f 1154 1128 1157
f 1158 1129 1130
f 1157 1129 1158
f 1151 1132 1133
f 1150 1132 1151
f 1152 1133 1134
f 1151 1133 1152
f 1152 1134 1153
