v -0.0220009255 -0.059749999 0.0536561203
v -0.0220456958 -0.059749999 0.0537791204
v -0.022122221 -0.059749999 0.0540294266
v -0.0221811008 -0.059749999 0.0542844677
v -0.0222220492 -0.059749999 0.0545429897
v -0.0222448611 -0.059749999 0.0548037386
v -0.022249999 -0.059749999 0.055
v -0.0222408652 -0.059749999 0.0552615881
v -0.0222135043 -0.059749999 0.0555218983
v -0.0221680546 -0.059749999 0.0557796669
v -0.0221047306 -0.059749999 0.0560336399
v -0.0220238471 -0.059749999 0.0562825775
v -0.0220009255 -0.0582499981 0.0536561203
v -0.0220456958 -0.0582499981 0.0537791204
v -0.022122221 -0.0582499981 0.0540294266
v -0.0221811008 -0.0582499981 0.0542844677
v -0.0222220492 -0.0582499981 0.0545429897
v -0.0222448611 -0.0582499981 0.0548037386
v -0.022249999 -0.0582499981 0.055
v -0.0222408652 -0.0582499981 0.0552615881
v -0.0222135043 -0.0582499981 0.0555218983
v -0.0221680546 -0.0582499981 0.0557796669
v -0.0221047306 -0.0582499981 0.0560336399
v -0.0220238471 -0.0582499981 0.0562825775
v -0.0217798233 -0.059749999 0.053181963
v -0.0218412733 -0.059749999 0.053297534
v -0.0219518924 -0.059749999 0.0535347605
v -0.0219769406 -0.059749999 0.0564047766
v -0.0219257951 -0.059749999 0.0565252638
v -0.0218110538 -0.059749999 0.0567605162
v -0.0217798233 -0.0582499981 0.053181963
v -0.0218412733 -0.0582499981 0.053297534
v -0.0219518924 -0.0582499981 0.0535347605
v -0.0219769406 -0.0582499981 0.0564047766
v -0.0219257951 -0.0582499981 0.0565252638
v -0.0218110538 -0.0582499981 0.0567605162
v -0.0215338135 -0.059749999 0.0527958059
v -0.021680181 -0.059749999 0.053012805
v -0.0217475963 -0.059749999 0.056875
v -0.0216450143 -0.059749999 0.0570423985
v -0.0215338135 -0.0582499981 0.0527958059
v -0.021680181 -0.0582499981 0.053012805
v -0.0217475963 -0.0582499981 0.056875
v -0.0216450143 -0.0582499981 0.0570423985
v -0.0212867928 -0.059749999 0.0524907589
v -0.0213301611 -0.059749999 0.0525397778
v -0.0214948821 -0.059749999 0.0572568083
v -0.0212867928 -0.059749999 0.0575092411
v -0.0212867928 -0.0582499981 0.0524907589
v -0.0213301611 -0.0582499981 0.0525397778
v -0.0214948821 -0.0582499981 0.0572568083
v -0.0212867928 -0.0582499981 0.0575092411
v -0.0210092402 -0.059749999 0.0522132063
v -0.0210574937 -0.059749999 0.0522574234
v -0.0212425756 -0.059749999 0.0575574923
v -0.0210092402 -0.059749999 0.0577867937
v -0.0210092402 -0.0582499981 0.0522132063
v -0.0210574937 -0.0582499981 0.0522574234
v -0.0212425756 -0.0582499981 0.0575574923
v -0.0210092402 -0.0582499981 0.0577867937
v -0.0207568073 -0.059749999 0.0520051146
v -0.0209602213 -0.059749999 0.057830162
v -0.0207568073 -0.0582499981 0.0520051146
v -0.0209602213 -0.0582499981 0.057830162
v -0.0205423975 -0.059749999 0.0518549871
v -0.0207041955 -0.059749999 0.0580338144
v -0.0205423975 -0.0582499981 0.0518549871
v -0.0207041955 -0.0582499981 0.0580338144
v -0.0202605176 -0.059749999 0.0516889477
v -0.020374999 -0.059749999 0.0517524052
v -0.0204871964 -0.059749999 0.0581801796
v -0.0203180361 -0.059749999 0.0582798243
v -0.0202605176 -0.0582499981 0.0516889477
v -0.020374999 -0.0582499981 0.0517524052
v -0.0204871964 -0.0582499981 0.0581801796
v -0.0203180361 -0.0582499981 0.0582798243
v -0.0200252628 -0.059749999 0.0515742064
v -0.0200128293 -0.059749999 0.0544790888
v -0.0200803018 -0.059749999 0.0547497034
v -0.0200997567 -0.059749999 0.0549720764
v -0.0200844288 -0.059749999 0.0552226782
v -0.0200216913 -0.059749999 0.0554944277
v -0.0200035071 -0.059749999 0.0555472326
v -0.0202024651 -0.059749999 0.0583412743
v -0.0200252628 -0.0582499981 0.0515742064
v -0.0200035071 -0.0582499981 0.0544527674
v -0.0200216913 -0.0582499981 0.0545055723
v -0.0200844288 -0.0582499981 0.0547773218
v -0.0200999999 -0.0582499981 0.055
v -0.0200803018 -0.0582499981 0.0552502966
v -0.0200128293 -0.0582499981 0.0555209112
v -0.0202024651 -0.0582499981 0.0583412743
v -0.0197825754 -0.059749999 0.0514761543
v -0.0199047744 -0.059749999 0.0515230608
v -0.0199127162 -0.059749999 0.0542488432
v -0.0199937284 -0.059749999 0.0544266129
v -0.019925611 -0.059749999 0.0557263851
v -0.0197608173 -0.059749999 0.0559850597
v -0.0199652421 -0.059749999 0.0584518909
v -0.0198438799 -0.059749999 0.0585009289
v -0.0197825754 -0.0582499981 0.0514761543
v -0.0199047744 -0.0582499981 0.0515230608
v -0.0197608173 -0.0582499981 0.0540149403
v -0.019925611 -0.0582499981 0.0542736149
v -0.0199937284 -0.0582499981 0.0555733871
v -0.0199127162 -0.0582499981 0.0557511568
v -0.0199652421 -0.0582499981 0.0584518909
v -0.0198438799 -0.0582499981 0.0585009289
v -0.0195336401 -0.059749999 0.0513952684
v -0.019743433 -0.059749999 0.0539930868
v -0.0195069122 -0.059749999 0.056243434
v -0.019720881 -0.059749999 0.0585456944
v -0.0195336401 -0.0582499981 0.0513952684
v -0.0195069122 -0.0582499981 0.053756566
v -0.019743433 -0.0582499981 0.0560069132
v -0.019720881 -0.0582499981 0.0585456944
v -0.0192796683 -0.059749999 0.0513319445
v -0.0194850588 -0.059749999 0.0537391806
v -0.0192511547 -0.059749999 0.0564127159
v -0.0194705713 -0.059749999 0.0586222219
v -0.0192796683 -0.0582499981 0.0513319445
v -0.0192511547 -0.0582499981 0.0535872841
v -0.0194850588 -0.0582499981 0.0562608194
v -0.0194705713 -0.0582499981 0.0586222219
v -0.0190218997 -0.059749999 0.0512864971
v -0.0190472317 -0.059749999 0.0534964895
v -0.0192263854 -0.059749999 0.0535743904
v -0.0190733886 -0.059749999 0.0564937305
v -0.0190209091 -0.059749999 0.0565128279
v -0.0192155337 -0.059749999 0.0586811018
v -0.0190218997 -0.0582499981 0.0512864971
v -0.0190209091 -0.0582499981 0.0534871721
v -0.0190733886 -0.0582499981 0.0535062695
v -0.0192263854 -0.0582499981 0.0564256096
v -0.0190472317 -0.0582499981 0.0565035105
v -0.0192155337 -0.0582499981 0.0586811018
v -0.0187615871 -0.059749999 0.0512591362
v -0.0189944267 -0.059749999 0.0534783077
v -0.0187502956 -0.059749999 0.0565803003
v -0.0189570105 -0.059749999 0.0587220478
v -0.0187615871 -0.0582499981 0.0512591362
v -0.0187502956 -0.0582499981 0.0534196997
v -0.0189944267 -0.0582499981 0.0565216923
v -0.0189570105 -0.0582499981 0.0587220478
v -0.0185000002 -0.059749999 0.05125
v -0.0185654461 -0.059749999 0.0512505722
v -0.0187226772 -0.059749999 0.0534155703
v -0.0185000002 -0.059749999 0.0565999985
v -0.0185000002 -0.059749999 0.05875
v -0.0185000002 -0.0582499981 0.05125
v -0.0185654461 -0.0582499981 0.0512505722
v -0.0185000002 -0.0582499981 0.0534000015
v -0.0187226772 -0.0582499981 0.0565844297
v -0.0186962593 -0.0582499981 0.0587448597
v -0.0184720767 -0.059749999 0.0534002447
v -0.0182773232 -0.059749999 0.0565844297
v -0.0182773232 -0.0582499981 0.0534155703
v -0.0184720767 -0.0582499981 0.0565997553
v -0.0182497048 -0.059749999 0.0534196997
v -0.0180055726 -0.059749999 0.0565216923
v -0.0180055726 -0.0582499981 0.0534783077
v -0.0182497048 -0.0582499981 0.0565803003
v -0.0179790914 -0.059749999 0.0534871721
v -0.0179266107 -0.059749999 0.0535062695
v -0.0177736151 -0.059749999 0.0564256096
v -0.0179527676 -0.059749999 0.0565035105
v -0.0179527676 -0.0582499981 0.0534964895
v -0.0177736151 -0.0582499981 0.0535743904
v -0.0179266107 -0.0582499981 0.0564937305
v -0.0179790914 -0.0582499981 0.0565128279
v -0.0177488458 -0.059749999 0.0535872841
v -0.0175149417 -0.059749999 0.0562608194
v -0.0175149417 -0.0582499981 0.0537391806
v -0.0177488458 -0.0582499981 0.0564127159
v -0.0174930871 -0.059749999 0.053756566
v -0.0172565663 -0.059749999 0.0560069132
v -0.0172565663 -0.0582499981 0.0539930868
v -0.0174930871 -0.0582499981 0.056243434
v -0.0172391832 -0.059749999 0.0540149403
v -0.0170743895 -0.059749999 0.0542736149
v -0.0170062709 -0.059749999 0.0555733871
v -0.0170872843 -0.059749999 0.0557511568
v -0.0170872843 -0.0582499981 0.0542488432
v -0.0170062709 -0.0582499981 0.0544266129
v -0.0170743895 -0.0582499981 0.0557263851
v -0.0172391832 -0.0582499981 0.0559850597
v -0.0169964921 -0.059749999 0.0544527674
v -0.0169783092 -0.059749999 0.0545055723
v -0.0169155705 -0.059749999 0.0547773218
v -0.0169000006 -0.059749999 0.055
v -0.0169196987 -0.059749999 0.0552502966
v -0.01698717 -0.059749999 0.0555209112
v -0.01698717 -0.0582499981 0.0544790888
v -0.0169196987 -0.0582499981 0.0547497034
v -0.0169002438 -0.0582499981 0.0549720764
v -0.0169000006 -0.0582499981 0.055
v -0.0169783092 -0.0582499981 0.0554944277
v -0.0169964921 -0.0582499981 0.0555472326
v -0.0147500002 -0.0717500019 0.048499999
v -0.0147500002 -0.0717500019 0.061500001
v -0.0147500002 -0.059749999 0.05125
v -0.0147500002 -0.059749999 0.05875
v -0.0147500002 -0.0582499981 0.048499999
v -0.0147500002 -0.0582499981 0.05125
v -0.0147500002 -0.0582499981 0.05875
v -0.0147500002 -0.0582499981 0.061500001
v -0.00504999995 -0.0645499992 0.061500001
v -0.00504999995 -0.0645499992 0.0673999977
v -0.00504999995 -0.0582499981 0.061500001
v -0.00504999995 -0.0582499981 0.0673999977
v 0.00504999995 -0.0645499992 0.061500001
v 0.00504999995 -0.0645499992 0.0673999977
v 0.00504999995 -0.0582499981 0.061500001
v 0.00504999995 -0.0582499981 0.0673999977
v 0.0147500002 -0.0717500019 0.048499999
v 0.0147500002 -0.0717500019 0.061500001
v 0.0147500002 -0.059749999 0.05125
v 0.0147500002 -0.059749999 0.05875
v 0.0147500002 -0.0582499981 0.048499999
v 0.0147500002 -0.0582499981 0.05125
v 0.0147500002 -0.0582499981 0.05875
v 0.0147500002 -0.0582499981 0.061500001
v 0.01698717 -0.059749999 0.0544790888
v 0.0169196987 -0.059749999 0.0547497034
v 0.0169002438 -0.059749999 0.0549720764
v 0.0169155705 -0.059749999 0.0552226782
v 0.0169783092 -0.059749999 0.0554944277
v 0.0169964921 -0.059749999 0.0555472326
v 0.01698717 -0.0582499981 0.0544790888
v 0.0169196987 -0.0582499981 0.0547497034
v 0.0169002438 -0.0582499981 0.0549720764
v 0.0169155705 -0.0582499981 0.0552226782
v 0.0169783092 -0.0582499981 0.0554944277
v 0.0169964921 -0.0582499981 0.0555472326
v 0.0170872843 -0.059749999 0.0542488432
v 0.0170062709 -0.059749999 0.0544266129
v 0.0170743895 -0.059749999 0.0557263851
v 0.0172391832 -0.059749999 0.0559850597
v 0.0170872843 -0.0582499981 0.0542488432
v 0.0170062709 -0.0582499981 0.0544266129
v 0.0170743895 -0.0582499981 0.0557263851
v 0.0172391832 -0.0582499981 0.0559850597
v 0.0172565663 -0.059749999 0.0539930868
v 0.0174930871 -0.059749999 0.056243434
v 0.0172565663 -0.0582499981 0.0539930868
v 0.0174930871 -0.0582499981 0.056243434
v 0.0175149417 -0.059749999 0.0537391806
v 0.0177488458 -0.059749999 0.0564127159
v 0.0175149417 -0.0582499981 0.0537391806
v 0.0177488458 -0.0582499981 0.0564127159
v 0.0179527676 -0.059749999 0.0534964895
v 0.0177736151 -0.059749999 0.0535743904
v 0.0179266107 -0.059749999 0.0564937305
v 0.0179790914 -0.059749999 0.0565128279
v 0.0179527676 -0.0582499981 0.0534964895
v 0.0177736151 -0.0582499981 0.0535743904
v 0.0179266107 -0.0582499981 0.0564937305
v 0.0179790914 -0.0582499981 0.0565128279
v 0.0180055726 -0.059749999 0.0534783077
v 0.0182497048 -0.059749999 0.0565803003
v 0.0180055726 -0.0582499981 0.0534783077
v 0.0182497048 -0.0582499981 0.0565803003
v 0.0182773232 -0.059749999 0.0534155703
v 0.0184720767 -0.059749999 0.0565997553
v 0.0182773232 -0.0582499981 0.0534155703
v 0.0184720767 -0.0582499981 0.0565997553
v 0.0185000002 -0.059749999 0.05125
v 0.0186962593 -0.059749999 0.0512551403
v 0.0185000002 -0.059749999 0.0534000015
v 0.0187226772 -0.059749999 0.0565844297
v 0.0185000002 -0.059749999 0.05875
v 0.0185000002 -0.0582499981 0.05125
v 0.0186962593 -0.0582499981 0.0512551403
v 0.0185000002 -0.0582499981 0.0534000015
v 0.0187226772 -0.0582499981 0.0565844297
v 0.0185000002 -0.0582499981 0.05875
v 0.0189570105 -0.059749999 0.0512779522
v 0.0187502956 -0.059749999 0.0534196997
v 0.0189944267 -0.059749999 0.0565216923
v 0.0187615871 -0.059749999 0.0587408638
v 0.0189570105 -0.0582499981 0.0512779522
v 0.0187502956 -0.0582499981 0.0534196997
v 0.0189944267 -0.0582499981 0.0565216923
v 0.0187615871 -0.0582499981 0.0587408638
v 0.0192155337 -0.059749999 0.0513188982
v 0.0190209091 -0.059749999 0.0534871721
v 0.0190733886 -0.059749999 0.0535062695
v 0.0192263854 -0.059749999 0.0564256096
v 0.0190472317 -0.059749999 0.0565035105
v 0.0190218997 -0.059749999 0.0587135029
v 0.0192155337 -0.0582499981 0.0513188982
v 0.0190209091 -0.0582499981 0.0534871721
v 0.0190733886 -0.0582499981 0.0535062695
v 0.0192263854 -0.0582499981 0.0564256096
v 0.0190472317 -0.0582499981 0.0565035105
v 0.0190218997 -0.0582499981 0.0587135029
v 0.0194705713 -0.059749999 0.0513777781
v 0.0192511547 -0.059749999 0.0535872841
v 0.0194850588 -0.059749999 0.0562608194
v 0.0192796683 -0.059749999 0.0586680555
v 0.0194705713 -0.0582499981 0.0513777781
v 0.0192511547 -0.0582499981 0.0535872841
v 0.0194850588 -0.0582499981 0.0562608194
v 0.0192796683 -0.0582499981 0.0586680555
v 0.019720881 -0.059749999 0.0514543056
v 0.0195069122 -0.059749999 0.053756566
v 0.019743433 -0.059749999 0.0560069132
v 0.0195336401 -0.059749999 0.0586047316
v 0.019720881 -0.0582499981 0.0514543056
v 0.0195069122 -0.0582499981 0.053756566
v 0.019743433 -0.0582499981 0.0560069132
v 0.0195336401 -0.0582499981 0.0586047316
v 0.0198438799 -0.059749999 0.0514990711
v 0.0199652421 -0.059749999 0.0515481091
v 0.0197608173 -0.059749999 0.0540149403
v 0.019925611 -0.059749999 0.0542736149
v 0.0199937284 -0.059749999 0.0555733871
v 0.0199127162 -0.059749999 0.0557511568
v 0.0199047744 -0.059749999 0.0584769392
v 0.0197825754 -0.059749999 0.0585238457
v 0.0198438799 -0.0582499981 0.0514990711
v 0.0199652421 -0.0582499981 0.0515481091
v 0.0197608173 -0.0582499981 0.0540149403
v 0.019925611 -0.0582499981 0.0542736149
v 0.0199937284 -0.0582499981 0.0555733871
v 0.0199127162 -0.0582499981 0.0557511568
v 0.0199047744 -0.0582499981 0.0584769392
v 0.0197825754 -0.0582499981 0.0585238457
v 0.0202024651 -0.059749999 0.0516587257
v 0.0200035071 -0.059749999 0.0544527674
v 0.0200216913 -0.059749999 0.0545055723
v 0.0200844288 -0.059749999 0.0547773218
v 0.0200999999 -0.059749999 0.055
v 0.0200803018 -0.059749999 0.0552502966
v 0.0200128293 -0.059749999 0.0555209112
v 0.0200252628 -0.059749999 0.0584257936
v 0.0202024651 -0.0582499981 0.0516587257
v 0.0200035071 -0.0582499981 0.0544527674
v 0.0200216913 -0.0582499981 0.0545055723
v 0.0200844288 -0.0582499981 0.0547773218
v 0.0200999999 -0.0582499981 0.055
v 0.0200803018 -0.0582499981 0.0552502966
v 0.0200128293 -0.0582499981 0.0555209112
v 0.0200252628 -0.0582499981 0.0584257936
v 0.0203180361 -0.059749999 0.0517201757
v 0.0204871964 -0.059749999 0.0518198204
v 0.020374999 -0.059749999 0.0582475948
v 0.0202605176 -0.059749999 0.0583110523
v 0.0203180361 -0.0582499981 0.0517201757
v 0.0204871964 -0.0582499981 0.0518198204
v 0.020374999 -0.0582499981 0.0582475948
v 0.0202605176 -0.0582499981 0.0583110523
v 0.0207041955 -0.059749999 0.0519661856
v 0.0205423975 -0.059749999 0.0581450129
v 0.0207041955 -0.0582499981 0.0519661856
v 0.0205423975 -0.0582499981 0.0581450129
v 0.0209602213 -0.059749999 0.052169838
v 0.0207568073 -0.059749999 0.0579948854
v 0.0209602213 -0.0582499981 0.052169838
v 0.0207568073 -0.0582499981 0.0579948854
v 0.0210092402 -0.059749999 0.0522132063
v 0.0212425756 -0.059749999 0.0524425077
v 0.0210574937 -0.059749999 0.0577425766
v 0.0210092402 -0.059749999 0.0577867937
v 0.0210092402 -0.0582499981 0.0522132063
v 0.0212425756 -0.0582499981 0.0524425077
v 0.0210574937 -0.0582499981 0.0577425766
v 0.0210092402 -0.0582499981 0.0577867937
v 0.0212867928 -0.059749999 0.0524907589
v 0.0214948821 -0.059749999 0.0527431917
v 0.0213301611 -0.059749999 0.0574602222
v 0.0212867928 -0.059749999 0.0575092411
v 0.0212867928 -0.0582499981 0.0524907589
v 0.0214948821 -0.0582499981 0.0527431917
v 0.0213301611 -0.0582499981 0.0574602222
v 0.0212867928 -0.0582499981 0.0575092411
v 0.0216450143 -0.059749999 0.0529576015
v 0.0217475963 -0.059749999 0.053125
v 0.021680181 -0.059749999 0.056987195
v 0.0215338135 -0.059749999 0.0572041941
v 0.0216450143 -0.0582499981 0.0529576015
v 0.0217475963 -0.0582499981 0.053125
v 0.021680181 -0.0582499981 0.056987195
v 0.0215338135 -0.0582499981 0.0572041941
v 0.0218110538 -0.059749999 0.0532394838
v 0.0219257951 -0.059749999 0.0534747362
v 0.0219769406 -0.059749999 0.0535952234
v 0.0219518924 -0.059749999 0.0564652395
v 0.0218412733 -0.059749999 0.056702466
v 0.0217798233 -0.059749999 0.056818037
v 0.0218110538 -0.0582499981 0.0532394838
v 0.0219257951 -0.0582499981 0.0534747362
v 0.0219769406 -0.0582499981 0.0535952234
v 0.0219518924 -0.0582499981 0.0564652395
v 0.0218412733 -0.0582499981 0.056702466
v 0.0217798233 -0.0582499981 0.056818037
v 0.0220238471 -0.059749999 0.0537174225
v 0.0221047306 -0.059749999 0.0539663601
v 0.0221680546 -0.059749999 0.0542203331
v 0.0222135043 -0.059749999 0.0544781017
v 0.0222408652 -0.059749999 0.0547384119
v 0.0222494292 -0.059749999 0.0549345541
v 0.0222448611 -0.059749999 0.0551962614
v 0.0222220492 -0.059749999 0.0554570103
v 0.0221811008 -0.059749999 0.0557155323
v 0.022122221 -0.059749999 0.0559705734
v 0.0220456958 -0.059749999 0.0562208796
v 0.0220009255 -0.059749999 0.0563438797
v 0.0220238471 -0.0582499981 0.0537174225
v 0.0221047306 -0.0582499981 0.0539663601
v 0.0221680546 -0.0582499981 0.0542203331
v 0.0222135043 -0.0582499981 0.0544781017
v 0.0222408652 -0.0582499981 0.0547384119
v 0.0222494292 -0.0582499981 0.0549345541
v 0.0222448611 -0.0582499981 0.0551962614
v 0.0222220492 -0.0582499981 0.0554570103
v 0.0221811008 -0.0582499981 0.0557155323
v 0.022122221 -0.0582499981 0.0559705734
v 0.0220456958 -0.0582499981 0.0562208796
v 0.0220009255 -0.0582499981 0.0563438797
f 2 14 1
f 1 78 2
f 1 14 13
f 1 13 27
f 27 96 1
f 1 96 78
f 3 15 2
f 2 79 3
f 2 15 14
f 2 78 79
f 4 16 3
f 3 79 4
f 3 16 15
f 5 17 4
f 4 80 5
f 4 17 16
f 4 79 80
f 6 18 5
f 5 80 6
f 5 18 17
f 7 19 6
f 6 80 7
f 6 19 18
f 8 20 7
f 7 81 8
f 7 20 19
f 7 80 81
f 9 21 8
f 8 81 9
f 8 21 20
f 10 22 9
f 9 82 10
f 9 22 21
f 9 81 82
f 11 23 10
f 10 82 11
f 10 23 22
f 12 24 11
f 11 83 12
f 11 24 23
f 11 82 83
f 12 34 24
f 28 34 12
f 12 97 28
f 12 83 97
f 14 114 13
f 27 13 33
f 13 114 33
f 15 103 14
f 14 103 114
f 16 104 15
f 15 104 103
f 17 87 16
f 16 87 86
f 16 86 104
f 18 88 17
f 17 88 87
f 19 88 18
f 20 89 19
f 19 89 88
f 21 90 20
f 20 90 89
f 22 105 21
f 21 91 90
f 21 105 91
f 23 106 22
f 22 106 105
f 24 115 23
f 23 115 106
f 34 115 24
f 26 32 25
f 25 155 26
f 25 32 31
f 25 31 38
f 38 155 25
f 27 33 26
f 26 96 27
f 26 33 32
f 26 95 96
f 26 110 95
f 26 118 110
f 26 127 118
f 26 126 127
f 26 138 126
f 26 147 138
f 26 155 147
f 29 35 28
f 28 97 29
f 28 35 34
f 30 36 29
f 202 30 29
f 29 36 35
f 29 97 98
f 29 98 111
f 29 111 119
f 29 119 128
f 29 128 129
f 29 129 139
f 29 139 148
f 29 148 202
f 30 43 36
f 39 43 30
f 39 30 202
f 32 122 31
f 38 31 42
f 31 122 42
f 33 114 32
f 32 114 122
f 35 115 34
f 153 35 36
f 35 123 115
f 35 134 123
f 35 135 134
f 35 143 135
f 35 153 143
f 153 36 43
f 38 42 37
f 37 155 38
f 37 42 41
f 37 41 46
f 46 159 37
f 37 159 155
f 40 44 39
f 40 39 202
f 39 44 43
f 40 51 44
f 47 51 40
f 202 47 40
f 42 133 41
f 46 41 50
f 41 132 50
f 41 133 132
f 42 122 133
f 153 43 44
f 153 44 51
f 46 50 45
f 45 159 46
f 45 50 49
f 45 49 54
f 54 159 45
f 48 52 47
f 48 47 202
f 47 52 51
f 48 59 52
f 55 59 48
f 202 55 48
f 50 142 49
f 54 49 58
f 49 142 58
f 50 132 142
f 153 51 52
f 153 52 59
f 54 58 53
f 53 164 54
f 53 58 57
f 53 57 61
f 164 53 61
f 54 163 159
f 54 164 163
f 56 60 55
f 56 55 202
f 55 60 59
f 56 64 60
f 62 64 56
f 202 62 56
f 58 152 57
f 61 57 63
f 57 152 63
f 58 142 152
f 153 59 60
f 153 60 64
f 61 63 65
f 61 65 164
f 62 68 64
f 66 68 62
f 66 62 202
f 65 63 67
f 63 152 67
f 153 64 68
f 65 67 70
f 164 65 70
f 66 75 68
f 71 75 66
f 202 71 66
f 70 67 74
f 67 152 74
f 153 68 75
f 70 74 69
f 164 70 69
f 69 74 73
f 69 73 77
f 69 77 164
f 72 76 71
f 202 72 71
f 71 76 75
f 72 92 76
f 84 92 72
f 84 72 202
f 74 157 73
f 77 73 85
f 73 157 85
f 74 152 157
f 153 75 76
f 153 76 92
f 77 85 94
f 164 77 94
f 78 86 79
f 78 104 86
f 96 104 78
f 79 87 80
f 79 86 87
f 80 88 81
f 80 87 88
f 81 89 82
f 81 88 89
f 82 90 83
f 82 89 90
f 83 90 91
f 83 91 97
f 84 107 92
f 99 107 84
f 202 99 84
f 94 85 102
f 85 150 102
f 85 157 150
f 97 91 105
f 154 92 107
f 153 92 154
f 94 102 93
f 94 93 164
f 93 102 101
f 93 101 109
f 164 93 109
f 95 103 96
f 95 114 103
f 110 114 95
f 96 103 104
f 97 105 98
f 98 105 106
f 98 106 111
f 100 108 99
f 100 99 202
f 99 108 107
f 100 116 108
f 112 116 100
f 202 112 100
f 102 150 101
f 109 101 113
f 101 150 113
f 111 106 115
f 107 108 154
f 154 108 116
f 109 113 117
f 109 117 164
f 110 122 114
f 118 122 110
f 111 115 119
f 112 124 116
f 120 124 112
f 120 112 202
f 117 113 121
f 113 150 121
f 119 115 123
f 116 124 154
f 117 121 125
f 164 117 125
f 118 133 122
f 127 133 118
f 119 123 128
f 120 136 124
f 130 136 120
f 202 130 120
f 125 121 131
f 121 150 131
f 128 123 134
f 154 124 136
f 125 131 137
f 164 125 137
f 126 132 127
f 126 142 132
f 138 142 126
f 127 132 133
f 128 134 129
f 129 134 135
f 129 135 139
f 130 144 136
f 140 144 130
f 202 140 130
f 137 131 141
f 131 150 141
f 139 135 143
f 154 136 144
f 137 141 146
f 137 146 164
f 138 152 142
f 147 152 138
f 139 143 148
f 140 154 144
f 149 154 140
f 149 140 202
f 146 141 151
f 141 150 151
f 148 143 153
f 146 151 145
f 146 145 164
f 145 151 150
f 204 145 150
f 145 171 164
f 201 171 145
f 201 145 204
f 147 157 152
f 155 157 147
f 148 153 156
f 202 148 156
f 202 154 149
f 157 161 150
f 150 161 204
f 154 205 153
f 156 153 158
f 158 153 221
f 221 153 205
f 205 154 202
f 155 161 157
f 159 161 155
f 156 158 160
f 156 160 202
f 160 158 162
f 221 162 158
f 159 167 161
f 163 167 159
f 160 162 166
f 202 160 166
f 161 167 204
f 166 162 170
f 170 162 221
f 164 168 163
f 163 168 167
f 164 173 168
f 171 173 164
f 166 170 165
f 166 165 202
f 165 170 169
f 165 169 172
f 202 165 172
f 204 167 168
f 168 173 204
f 221 169 170
f 172 169 174
f 174 169 221
f 171 177 173
f 175 177 171
f 201 175 171
f 172 174 176
f 172 176 202
f 204 173 177
f 176 174 178
f 221 178 174
f 175 183 177
f 179 183 175
f 179 175 201
f 176 178 182
f 202 176 182
f 177 183 204
f 182 178 186
f 186 178 221
f 180 184 179
f 201 180 179
f 179 184 183
f 180 193 184
f 187 193 180
f 187 180 202
f 202 180 201
f 182 186 181
f 182 181 202
f 181 186 185
f 181 185 192
f 202 181 192
f 204 183 184
f 184 193 204
f 221 185 186
f 192 185 198
f 198 185 221
f 188 194 187
f 202 188 187
f 187 194 193
f 189 195 188
f 189 188 202
f 188 195 194
f 190 196 189
f 202 190 189
f 189 196 195
f 191 197 190
f 202 191 190
f 190 197 196
f 192 198 191
f 192 191 202
f 191 198 197
f 204 193 194
f 194 195 204
f 196 232 195
f 195 231 204
f 195 232 231
f 196 197 221
f 232 196 221
f 221 197 198
f 200 201 199
f 200 199 216
f 199 201 203
f 203 219 199
f 216 199 215
f 199 219 215
f 200 202 201
f 206 202 200
f 200 207 206
f 216 207 200
f 203 201 204
f 205 202 206
f 204 220 203
f 203 220 219
f 204 231 220
f 205 206 209
f 213 205 209
f 221 205 213
f 206 207 209
f 207 208 209
f 207 212 208
f 211 212 207
f 216 211 207
f 209 208 210
f 208 212 210
f 214 209 210
f 213 209 214
f 210 212 214
f 211 214 212
f 213 214 211
f 213 211 222
f 222 211 216
f 213 222 221
f 218 216 215
f 218 215 217
f 217 215 219
f 218 222 216
f 217 236 218
f 217 219 220
f 220 272 217
f 217 235 236
f 243 235 217
f 217 247 243
f 267 247 217
f 217 272 267
f 221 222 218
f 218 271 221
f 223 224 218
f 218 236 223
f 218 224 225
f 225 226 218
f 226 227 218
f 218 227 228
f 228 237 218
f 218 237 238
f 238 244 218
f 218 244 248
f 248 253 218
f 218 253 254
f 254 260 218
f 218 260 264
f 264 270 218
f 218 270 389
f 218 280 271
f 218 290 280
f 300 290 218
f 218 308 300
f 218 320 308
f 218 319 320
f 336 319 218
f 218 348 336
f 347 348 218
f 354 347 218
f 218 358 354
f 364 358 218
f 218 363 364
f 372 363 218
f 218 371 372
f 380 371 218
f 218 379 380
f 218 390 379
f 389 390 218
f 230 229 220
f 220 229 240
f 220 231 230
f 240 239 220
f 220 239 245
f 245 249 220
f 220 249 256
f 256 255 220
f 220 255 261
f 220 261 272
f 221 233 232
f 234 233 221
f 221 241 234
f 242 241 221
f 221 246 242
f 250 246 221
f 221 257 250
f 258 257 221
f 221 262 258
f 266 262 221
f 221 275 266
f 221 271 276
f 276 275 221
f 223 229 224
f 223 240 229
f 236 240 223
f 224 230 225
f 224 229 230
f 225 231 226
f 225 230 231
f 226 232 227
f 226 231 232
f 227 233 228
f 227 232 233
f 228 233 234
f 228 234 237
f 237 234 241
f 235 239 236
f 235 245 239
f 243 245 235
f 236 239 240
f 237 241 238
f 238 241 242
f 238 242 244
f 244 242 246
f 243 249 245
f 247 249 243
f 244 246 248
f 248 246 250
f 247 256 249
f 252 256 247
f 267 252 247
f 248 250 253
f 253 250 257
f 251 255 252
f 267 251 252
f 251 261 255
f 259 261 251
f 267 259 251
f 252 255 256
f 253 257 254
f 254 257 258
f 254 258 260
f 260 258 262
f 259 265 261
f 263 265 259
f 267 263 259
f 260 262 264
f 272 261 265
f 264 262 266
f 263 274 265
f 263 267 269
f 269 274 263
f 264 266 270
f 265 337 272
f 274 350 265
f 265 349 337
f 265 350 349
f 270 266 275
f 269 267 268
f 272 268 267
f 269 268 277
f 273 268 272
f 273 277 268
f 269 282 274
f 269 277 285
f 278 282 269
f 386 278 269
f 285 297 269
f 269 297 305
f 269 305 313
f 269 313 314
f 314 329 269
f 269 329 345
f 345 346 269
f 346 353 269
f 269 353 357
f 357 361 269
f 269 361 362
f 362 369 269
f 269 369 370
f 370 377 269
f 269 377 378
f 269 378 385
f 385 386 269
f 270 275 279
f 389 270 279
f 276 271 284
f 284 271 280
f 281 273 272
f 272 291 281
f 272 301 291
f 309 301 272
f 272 321 309
f 322 321 272
f 272 337 322
f 281 277 273
f 282 366 274
f 274 355 350
f 274 359 355
f 274 365 359
f 274 366 365
f 276 344 275
f 279 275 283
f 275 367 283
f 275 344 352
f 352 351 275
f 351 356 275
f 275 356 360
f 275 360 368
f 275 368 367
f 284 296 276
f 276 296 304
f 276 304 312
f 312 328 276
f 276 328 327
f 276 327 344
f 281 285 277
f 278 292 282
f 286 292 278
f 286 278 387
f 387 278 386
f 279 283 289
f 389 279 289
f 284 280 296
f 296 280 290
f 291 285 281
f 292 374 282
f 282 373 366
f 282 374 373
f 289 283 295
f 283 375 295
f 283 367 376
f 283 376 375
f 291 297 285
f 287 293 286
f 387 287 286
f 286 293 292
f 287 302 293
f 298 302 287
f 387 298 287
f 289 295 288
f 389 289 288
f 288 295 294
f 288 294 299
f 388 288 299
f 389 288 388
f 296 290 304
f 304 290 300
f 301 297 291
f 293 381 292
f 292 381 374
f 302 382 293
f 293 382 381
f 295 384 294
f 299 294 303
f 294 383 303
f 294 384 383
f 295 375 384
f 301 305 297
f 298 310 302
f 306 310 298
f 306 298 398
f 397 298 387
f 398 298 397
f 299 303 307
f 299 307 408
f 388 299 408
f 304 300 312
f 312 300 308
f 309 305 301
f 310 392 302
f 302 391 382
f 302 392 391
f 307 303 311
f 303 395 311
f 303 383 396
f 303 396 395
f 309 313 305
f 306 323 310
f 315 323 306
f 399 315 306
f 399 306 398
f 307 311 318
f 307 318 407
f 408 307 407
f 312 308 328
f 328 308 320
f 321 313 309
f 323 410 310
f 310 393 392
f 310 409 393
f 310 410 409
f 318 311 326
f 311 419 326
f 311 395 394
f 311 394 420
f 311 420 419
f 321 314 313
f 322 314 321
f 322 329 314
f 316 324 315
f 400 316 315
f 315 324 323
f 400 315 399
f 316 338 324
f 330 338 316
f 400 330 316
f 318 326 317
f 318 317 406
f 317 326 325
f 317 325 335
f 405 317 335
f 406 317 405
f 407 318 406
f 327 320 319
f 327 319 344
f 344 319 336
f 328 320 327
f 337 329 322
f 324 411 323
f 323 411 410
f 338 412 324
f 324 412 411
f 326 418 325
f 335 325 343
f 325 417 343
f 325 418 417
f 326 419 418
f 337 345 329
f 331 339 330
f 331 330 401
f 330 339 338
f 401 330 400
f 332 340 331
f 402 332 331
f 331 340 339
f 402 331 401
f 333 341 332
f 403 333 332
f 332 341 340
f 403 332 402
f 334 342 333
f 404 334 333
f 333 342 341
f 404 333 403
f 335 343 334
f 405 335 334
f 334 343 342
f 405 334 404
f 344 336 352
f 352 336 348
f 349 345 337
f 339 412 338
f 340 413 339
f 339 413 412
f 341 415 340
f 340 414 413
f 340 415 414
f 342 416 341
f 341 416 415
f 343 417 342
f 342 417 416
f 349 346 345
f 350 346 349
f 350 353 346
f 351 348 347
f 351 347 356
f 356 347 354
f 352 348 351
f 355 353 350
f 355 357 353
f 356 354 360
f 360 354 358
f 359 357 355
f 359 361 357
f 360 358 368
f 368 358 364
f 365 361 359
f 365 362 361
f 366 362 365
f 366 369 362
f 367 364 363
f 367 363 376
f 376 363 372
f 368 364 367
f 373 369 366
f 373 370 369
f 374 370 373
f 374 377 370
f 375 372 371
f 375 371 384
f 384 371 380
f 376 372 375
f 381 377 374
f 381 378 377
f 382 378 381
f 382 385 378
f 383 380 379
f 383 379 396
f 396 379 390
f 384 380 383
f 391 385 382
f 391 386 385
f 392 387 386
f 392 386 391
f 393 387 392
f 393 397 387
f 394 389 388
f 394 388 420
f 420 388 408
f 395 390 389
f 395 389 394
f 396 390 395
f 409 397 393
f 409 398 397
f 410 399 398
f 410 398 409
f 411 400 399
f 411 399 410
f 412 401 400
f 412 400 411
f 413 402 401
f 413 401 412
f 414 403 402
f 414 402 413
f 415 404 403
f 415 403 414
f 416 405 404
f 416 404 415
f 417 406 405
f 417 405 416
f 418 407 406
f 418 406 417
f 419 408 407
f 419 407 418
f 420 408 419
