v -0.0410005646 0.0155679817 -0.0686280322
v -0.0410070257 0.0155615158 -0.0684187937
v -0.0410109024 0.0155576439 -0.0682094288
v -0.0410121946 0.0155563469 -0.0679999995
v -0.0408267717 0.0157417698 -0.0704949403
v -0.0408832817 0.015685255 -0.0700837779
v -0.0409077244 0.0156608124 -0.0698772144
v -0.040929616 0.0156389255 -0.0696700764
v -0.040948947 0.0156195946 -0.0694624329
v -0.0409799032 0.0155886383 -0.0690458679
v -0.0409915238 0.0155770225 -0.0688370776
v -0.0407601433 0.015808403 -0.0709030628
v -0.040794714 0.0157738228 -0.0706994128
v -0.0405968933 0.015971653 -0.0717082047
v -0.0406834869 0.0158850593 -0.0713076472
v -0.0407230644 0.0158454819 -0.0711058283
v -0.0405004673 0.016068079 -0.0721042418
v -0.040549901 0.0160186405 -0.071906817
v -0.040337656 0.0162308903 -0.0726887727
v -0.0403943281 0.0161742134 -0.0724952793
v -0.0402786045 0.0162899418 -0.0728808403
v -0.0400873547 0.0164811916 -0.0734478855
v -0.0402171879 0.0163513584 -0.0730714202
v -0.0400189715 0.0165495701 -0.0736336589
v -0.0398753815 0.0166931648 -0.074000001
v -0.0399483042 0.0166202373 -0.0738177156
v -0.0398002176 0.0167683239 -0.0741804576
v -0.0395003681 0.0157394428 -0.0697581053
v -0.0395232945 0.0157414265 -0.0695000005
v -0.0395013933 0.0156125755 -0.0679999995
v -0.0395284538 0.015979435 -0.0697581053
v -0.0395512371 0.015983593 -0.0695000005
v -0.0395305901 0.0157922954 -0.0679999995
v -0.0395385437 0.0161603947 -0.0697581053
v -0.0395622568 0.0162271137 -0.0695000005
v -0.039554904 0.0160338325 -0.0679999995
v -0.0395053463 0.0162810345 -0.0699097586
v -0.0395562964 0.0164708252 -0.0695000005
v -0.0395624237 0.0162764759 -0.0679999995
v -0.0395026665 0.0165205784 -0.0698847461
v -0.0395333891 0.0167135162 -0.0695000005
v -0.0395531015 0.0165190525 -0.0679999995
v -0.0396432667 0.0169252701 -0.0745356679
v -0.0397228365 0.016845705 -0.0743590307
v -0.0395040302 0.0167628403 -0.0697581053
v -0.039505146 0.0168941708 -0.0695000005
v -0.0395779495 0.0169905872 -0.0687521315
v -0.039586709 0.0169818325 -0.0685643315
v -0.0395951634 0.0169733829 -0.0682822776
v -0.0395976668 0.0169708748 -0.0680941033
v -0.0395979815 0.0169705601 -0.0679999995
v -0.0395615273 0.0170070095 -0.0747103143
v -0.0395179777 0.0170505638 -0.0695000005
v -0.0395367031 0.0170318432 -0.0693136644
v -0.0395601301 0.0170084114 -0.069033308
v -0.0395666914 0.0170018501 -0.0689396644
v -0.0392957001 0.0149828548 -0.0697581053
v -0.0393177824 0.0149778576 -0.0695000005
v -0.0392688446 0.0148602409 -0.0679999995
v -0.0393134909 0.0152305813 -0.0700085115
v -0.0393768196 0.0152104587 -0.0697581053
v -0.0393993788 0.0152075691 -0.0695000005
v -0.0393374806 0.0150288982 -0.0679999995
v -0.0392591934 0.0154875107 -0.070266161
v -0.0393773632 0.0154588241 -0.0700085115
v -0.0394419413 0.0154431457 -0.0697581053
v -0.0394647818 0.0154424114 -0.0695000005
v -0.0394151812 0.0152588863 -0.0679999995
v -0.039305356 0.0157113571 -0.070266161
v -0.0394346743 0.0157494564 -0.0700085115
v -0.039495738 0.0157401485 -0.0697836185
v -0.0394913082 0.0155613918 -0.0695000005
v -0.0394895868 0.0155530281 -0.0679999995
v -0.0393410282 0.0159947891 -0.070266161
v -0.0394622259 0.0159848614 -0.0700085115
v -0.0394938927 0.0159822674 -0.0699097586
v -0.0393505745 0.0161659641 -0.070266161
v -0.0394721251 0.0161623592 -0.0700085115
v -0.039496582 0.0161616344 -0.0699346495
v -0.0392500191 0.0162797375 -0.0704162788
v -0.0393650322 0.0162803192 -0.0702437472
v -0.0394821577 0.01628092 -0.0699840331
v -0.0392568188 0.0165022011 -0.0703956056
v -0.0393558865 0.0165096111 -0.0702437472
v -0.0394726925 0.0165183372 -0.0699840331
v -0.0392539196 0.0167833061 -0.0703534603
v -0.0394200306 0.0167506523 -0.0700570035
v -0.0394467621 0.0167545242 -0.0699840331
v -0.03949364 0.0169540329 -0.0695000005
v -0.0394877462 0.0169828434 -0.0693133831
v -0.0394957619 0.0169439907 -0.0690326452
v -0.0394998722 0.0169230957 -0.0688450885
v -0.0393916493 0.017176897 -0.0750534248
v -0.0394776468 0.0170908947 -0.0748829174
v -0.0393575411 0.0172110004 -0.0705855274
v -0.0394146042 0.0171539421 -0.0702626061
v -0.0394484072 0.0171201343 -0.0700459099
v -0.0394788056 0.0170897407 -0.0698282075
v -0.0394927197 0.0170758171 -0.0697190118
v -0.0393035584 0.0172649879 -0.0752217817
v -0.0392697029 0.0172988434 -0.0710115695
v -0.0393152933 0.0172532482 -0.0707992363
v -0.0390568333 0.0144949741 -0.0697581053
v -0.0390771895 0.0144854469 -0.0695000005
v -0.0390117245 0.0143788452 -0.0679999995
v -0.0391129809 0.0147369022 -0.0700085115
v -0.0391724043 0.0147071667 -0.0697581053
v -0.0391936426 0.014699604 -0.0695000005
v -0.0391057472 0.0145347805 -0.0679999995
v -0.0390993576 0.0149991531 -0.070266161
v -0.0392116194 0.0149524135 -0.0700085115
v -0.0392472916 0.0149375648 -0.0698847461
v -0.0392462044 0.0148096008 -0.0695000005
v -0.03924403 0.0148048515 -0.0679999995
v -0.0391798191 0.0152130813 -0.070266161
v -0.0392484455 0.0151899643 -0.0701284766
v -0.039249485 0.0150011558 -0.0699594092
v -0.0390657311 0.0154789753 -0.0705154157
v -0.0392461281 0.0154906769 -0.0702883458
v -0.0392428808 0.0153734035 -0.0702437472
v -0.0391224699 0.0157424946 -0.0705154157
v -0.0392353802 0.0157232685 -0.0703746629
v -0.0391512566 0.0159562416 -0.0705154157
v -0.0392344122 0.0159479637 -0.0704162788
v -0.0391651325 0.0161714668 -0.0705154157
v -0.0392486601 0.0161689873 -0.0704162788
v -0.0390158825 0.0162785358 -0.0706579661
v -0.0391838532 0.0162793941 -0.0704961729
v -0.0390034371 0.0165347214 -0.0706579661
v -0.0392411976 0.0165010376 -0.0704162788
v -0.039011076 0.0168731041 -0.0706081295
v -0.0391087227 0.0169302292 -0.070499599
v -0.0391212158 0.0174473305 -0.0755518436
v -0.0392134028 0.0173551388 -0.0753879356
v -0.0391412478 0.0174272938 -0.0715356851
v -0.039195097 0.0173734493 -0.0713272548
v -0.0392456608 0.0173228855 -0.0711171865
v -0.0390270166 0.0175415249 -0.0757134533
v -0.0390543823 0.017514164 -0.0718450356
v -0.0388031702 0.0142325611 -0.0700085115
v -0.0388921099 0.0142418499 -0.0697581053
v -0.0389111309 0.0142299862 -0.0695000005
v -0.0387617855 0.0140355511 -0.0679999995
v -0.0388350849 0.0144932098 -0.070266161
v -0.0389690333 0.0144779987 -0.0700085115
v -0.0389961081 0.0144613666 -0.0699097586
v -0.0389802199 0.0143304272 -0.0695000005
v -0.0389445953 0.0142776985 -0.0679999995
v -0.0387621861 0.0147316189 -0.0705154157
v -0.0389782124 0.0147404404 -0.070266161
v -0.0389897852 0.0147343941 -0.0702437472
v -0.0388847904 0.0149713631 -0.0705154157
v -0.0389978581 0.0149811287 -0.0703956056
v -0.0389863472 0.0152213688 -0.0705154157
v -0.0389840822 0.0151646061 -0.0704961729
v -0.0387725573 0.0154539986 -0.0707504916
v -0.0389952736 0.0154973812 -0.0705892968
v -0.0387606936 0.015686533 -0.0707935977
v -0.0388245707 0.0156226463 -0.0707457757
v -0.0388769703 0.0159835167 -0.0707504916
v -0.03898135 0.0159731407 -0.0706742811
v -0.038889616 0.0161796303 -0.0707504916
v -0.0389944677 0.0161765213 -0.0706742811
v -0.0387568503 0.0162772198 -0.0708295679
v -0.038912323 0.0162780113 -0.0707359815
v -0.0387542801 0.0166976089 -0.0708122635
v -0.0389003115 0.0165252132 -0.0707359815
v -0.0388384991 0.0167588062 -0.0707560921
v -0.0388523083 0.0167685146 -0.0707459688
v -0.0388327055 0.017735836 -0.0760295677
v -0.0389308338 0.0176377029 -0.0758727074
v -0.0388237457 0.0177448006 -0.0725497007
v -0.0389273243 0.017641222 -0.0722508168
v -0.038992446 0.0175760956 -0.072048924
v -0.0387876635 0.0177808781 -0.0726482248
v -0.0385771446 0.0139585895 -0.0700085115
v -0.0386261683 0.0139137287 -0.0697581053
v -0.038723486 0.0139899464 -0.0695000005
v -0.0385157662 0.0137672157 -0.0679999995
v -0.0386358338 0.0142143173 -0.070266161
v -0.0387450581 0.0142024727 -0.0700810051
v -0.0387440567 0.0141281433 -0.0699594092
v -0.0387481718 0.0140475387 -0.0697325158
v -0.0385881405 0.0144590111 -0.0705154157
v -0.0387447577 0.0144845409 -0.0703746629
v -0.0387497168 0.0143435783 -0.0702437472
v -0.0387467747 0.0147403641 -0.0705343556
v -0.0387366991 0.0146207161 -0.0704766297
v -0.0385918312 0.0149977035 -0.0707504916
v -0.0387439995 0.0149788875 -0.0706413054
v -0.0385273008 0.0152335377 -0.0708413625
v -0.0387318497 0.0152061767 -0.0707210994
v -0.0387379866 0.0154984112 -0.0707795596
v -0.0387469559 0.0153066845 -0.0707359815
v -0.0387057142 0.0157415123 -0.0708295941
v -0.038541935 0.0159052868 -0.0710177398
v -0.0385194616 0.0159277649 -0.0709204626
v -0.0387326174 0.0161842842 -0.0708413768
v -0.0385002594 0.0164939709 -0.0709313726
v -0.0385128002 0.0165046425 -0.0709270692
v -0.0386307125 0.0179378338 -0.0763359022
v -0.0387326555 0.017835886 -0.0761839819
v -0.0386356716 0.0179328747 -0.0730364799
v -0.038713191 0.0178553505 -0.0728435469
v -0.0385269098 0.0180416317 -0.076485281
v -0.0385137634 0.0180547829 -0.0733212042
v -0.0385551434 0.0180134029 -0.0732269359
v -0.0383673124 0.0137487621 -0.0700085115
v -0.0384564524 0.0137410278 -0.0697581053
v -0.0384718304 0.0137247772 -0.0695000005
v -0.0382903557 0.0135641212 -0.0679999995
v -0.0384484272 0.0139988632 -0.070266161
v -0.0384929304 0.013956644 -0.0701519346
v -0.0384967165 0.0137864323 -0.0697836185
v -0.0384220629 0.0142466946 -0.0705154157
v -0.0384974985 0.0141822166 -0.0703956056
v -0.0384970884 0.0140318985 -0.0702437472
v -0.0384978991 0.0144587631 -0.0705892968
v -0.0384962158 0.0142554207 -0.0704567981
v -0.0384463911 0.014741375 -0.0707504916
v -0.0384824209 0.0147183723 -0.0707210994
v -0.0382846527 0.0149338646 -0.0708791447
v -0.0384907942 0.0147717686 -0.0707359815
v -0.0384988575 0.0151976223 -0.070847311
v -0.0383318453 0.0154982872 -0.0710097909
v -0.0384866219 0.0152525635 -0.0708641243
v -0.0383206539 0.015516798 -0.0710223293
v -0.0383789282 0.0155203361 -0.070990262
v -0.0382572394 0.0159870453 -0.0712698293
v -0.0384908514 0.0159563656 -0.0710762453
v -0.0384596329 0.0159875889 -0.0709411144
v -0.0383446817 0.0161025352 -0.0712638736
v -0.0384409409 0.0160062809 -0.0711367536
v -0.0382543402 0.0161928863 -0.0709874368
v -0.038254612 0.0162731094 -0.070987637
v -0.0384212856 0.0181472607 -0.0766320753
v -0.0384288006 0.0181397457 -0.073507762
v -0.0384716492 0.0180968971 -0.0734148169
v -0.038313859 0.0182546825 -0.0767762423
v -0.0382959156 0.0182726211 -0.0737824869
v -0.0380454235 0.0134878654 -0.0700085115
v -0.0381329088 0.0134693451 -0.0697581053
v -0.0381938868 0.0134873123 -0.0695000005
v -0.0380481987 0.0133813114 -0.0679999995
v -0.038155983 0.0137260551 -0.070266161
v -0.0382467966 0.0137077637 -0.0701284766
v -0.0382489472 0.0136133785 -0.0699346495
v -0.038241909 0.0135248585 -0.0695000005
v -0.038243206 0.0135258884 -0.0679999995
v -0.038159874 0.0139752407 -0.0705154157
v -0.0382458382 0.0139630623 -0.0704366779
v -0.03820823 0.013752882 -0.0702437472
v -0.0380449801 0.0142461605 -0.0707504916
v -0.0382472401 0.0141897507 -0.070606966
v -0.0382441311 0.0144634075 -0.0707504916
v -0.0382450228 0.0143980045 -0.0707210994
v -0.0381161146 0.014738142 -0.0708922172
v -0.0382187443 0.0148559017 -0.0708852816
v -0.0381825523 0.0152318973 -0.0710014105
v -0.0382463293 0.0152383251 -0.0709730983
v -0.0382460861 0.0154331989 -0.071035316
v -0.0382332783 0.0152566738 -0.070984807
v -0.0380705052 0.015715601 -0.0712625599
v -0.0382453137 0.0156445236 -0.0711152577
v -0.038146637 0.0158218784 -0.0712642193
v -0.0381851082 0.015751173 -0.0712018967
v -0.0380247336 0.0160642834 -0.0715114117
v -0.0382387428 0.0162084789 -0.0714223886
v -0.0382133131 0.0162339039 -0.070992372
v -0.0380518274 0.0163953991 -0.0717673302
v -0.0380247717 0.0164224453 -0.0717378616
v -0.0381051951 0.0163420315 -0.0714422178
v -0.038178957 0.0162682648 -0.0711431217
v -0.0382339316 0.01625354 -0.0709901619
v -0.0380937557 0.018474781 -0.0770565128
v -0.0382046728 0.0183638687 -0.0769177389
v -0.038156641 0.0184118957 -0.074050808
v -0.0382037668 0.0183647747 -0.0739620972
v -0.0380111294 0.0185574074 -0.0743124223
v -0.0380603199 0.0185082264 -0.0742259789
v -0.0377786427 0.0132387943 -0.0697581053
v -0.0378404551 0.0132487125 -0.0695000005
v -0.0377911215 0.0132201595 -0.0679999995
v -0.0378326874 0.0134908218 -0.070266161
v -0.0379969053 0.0134538288 -0.0700085115
v -0.0379845266 0.0133652706 -0.0697581053
v -0.0379954748 0.0133456821 -0.0695000005
v -0.0378436403 0.0132505913 -0.0679999995
v -0.0378668861 0.0137377567 -0.0705154157
v -0.0379946928 0.0137484093 -0.0704366779
v -0.0379968195 0.013555891 -0.0701982594
v -0.0379915695 0.0139253254 -0.0705892968
v -0.0379847174 0.0137613983 -0.0704567981
v -0.0379946499 0.0142277832 -0.0707646298
v -0.0379881935 0.0141626186 -0.0707359815
v -0.0378598528 0.0144661922 -0.0708987069
v -0.0377910118 0.0147361774 -0.0710033369
v -0.0379724388 0.0145815582 -0.0708974957
v -0.0379685097 0.0149589748 -0.0710085344
v -0.0379985647 0.0149238415 -0.0709852219
v -0.0379862099 0.0150455971 -0.071029911
v -0.0378586941 0.0154400749 -0.0712599492
v -0.0379956322 0.0154960461 -0.071203835
v -0.0379940443 0.0157246227 -0.0713205385
v -0.037984026 0.0155130215 -0.0712188482
v -0.0379270105 0.0159717197 -0.0715294504
v -0.0379901152 0.0159900589 -0.0714885449
v -0.0378890019 0.016205637 -0.0717594385
v -0.037999094 0.0161202545 -0.0715769029
v -0.0379505949 0.0164966221 -0.0720070982
v -0.03798209 0.0164651317 -0.0718842936
v -0.0379424934 0.0162537689 -0.0717484879
v -0.0378918295 0.016555397 -0.072174201
v -0.0378668718 0.0187016697 -0.0773257494
v -0.0379811459 0.0185874004 -0.0771925354
v -0.0378595429 0.0187089939 -0.0745670438
v -0.0379612713 0.018607275 -0.0743980861
v -0.0377509718 0.0188175697 -0.077456131
v -0.0378076964 0.0187608452 -0.0746503139
v -0.0376417618 0.0132399006 -0.0700085115
v -0.0377258377 0.0132094402 -0.0697581053
v -0.0377343874 0.0131886215 -0.0695000005
v -0.0375210505 0.0130818767 -0.0679999995
v -0.0377352982 0.0134309883 -0.070266161
v -0.0377483778 0.013408844 -0.0702211118
v -0.0377020578 0.0132530899 -0.0699594092
v -0.0377481299 0.0137217159 -0.070571301
v -0.0377422123 0.0136325283 -0.0704961729
v -0.0377463894 0.0139909573 -0.0707504916
v -0.0377437 0.0139101906 -0.0707058525
v -0.0376270657 0.0142463417 -0.0708941841
v -0.0375385599 0.0144867153 -0.0710026097
v -0.0377443152 0.0143543453 -0.0708976531
v -0.0377413445 0.0146852894 -0.0710039496
v -0.0377410297 0.0145849914 -0.0709702229
v -0.0377465944 0.0148884411 -0.071076107
v -0.0376621466 0.0152066536 -0.0712579799
v -0.0377414875 0.0152290459 -0.0712248206
v -0.0375282984 0.0154924126 -0.0715116668
v -0.0377418261 0.0153478546 -0.0712836838
v -0.0376811676 0.0156897755 -0.0715312028
v -0.0377493363 0.0155918522 -0.0714160633
v -0.0376877098 0.0159836311 -0.0717591739
v -0.0377467423 0.015882122 -0.0716187334
v -0.0375559836 0.0162428303 -0.072210741
v -0.0377470951 0.0161803455 -0.0718890786
v -0.0375415068 0.0162517471 -0.0722454381
v -0.0376334839 0.0189350624 -0.0775836277
v -0.0377020483 0.0188664932 -0.0748143888
v -0.0375144367 0.0190541096 -0.0777082062
v -0.0375388222 0.0190297241 -0.0750541878
v -0.0372911577 0.0129862232 -0.0695000005
v -0.0372970038 0.0129884167 -0.0679999995
v -0.0373793154 0.01324897 -0.070266161
v -0.0374820976 0.0131617279 -0.0700085115
v -0.0374981814 0.0131265945 -0.0698847461
v -0.0374606352 0.0130548592 -0.0695000005
v -0.0373536186 0.0130103226 -0.0679999995
v -0.0374515514 0.0134875698 -0.0705154157
v -0.0374959593 0.0133988304 -0.0703956056
v -0.0374996595 0.0132622642 -0.0701982594
v -0.0373282032 0.0137340755 -0.0707504916
v -0.0374999313 0.0137300033 -0.0706902456
v -0.0373151426 0.0139786072 -0.0708719254
v -0.0374793511 0.0137662716 -0.0707210994
v -0.0374701433 0.0141086597 -0.0708855295
v -0.0374872618 0.0144384403 -0.0710012412
v -0.03748843 0.0143445129 -0.0709653902
v -0.0374934273 0.0147282143 -0.0711176229
v -0.0374474077 0.014987566 -0.0712633038
v -0.0374915533 0.0149420376 -0.0712174487
v -0.0374991589 0.0151591606 -0.0713264966
v -0.0374707871 0.0154348965 -0.0715147257
v -0.0374920445 0.0154091568 -0.0714821506
v -0.0374398546 0.0157474441 -0.0717859244
v -0.0374913149 0.0156762428 -0.0716779351
v -0.0372641354 0.0159982223 -0.0722812247
v -0.0373490505 0.0158782978 -0.072014184
v -0.0374933796 0.0159804935 -0.071961844
v -0.0373331719 0.0160623665 -0.0722739315
v -0.0374806481 0.0160019798 -0.0720006108
v -0.0373938685 0.0191746731 -0.0778298235
v -0.0373700409 0.0191985054 -0.0752861691
v -0.0374831658 0.019085371 -0.0751323938
v -0.037271822 0.0192967243 -0.077948451
v -0.0373125773 0.0192559643 -0.0753617144
v -0.0370386868 0.0129949589 -0.0700085115
v -0.0372299509 0.0129876633 -0.0697581053
v -0.0372338991 0.0129653187 -0.0695000005
v -0.0370087223 0.0128938026 -0.0679999995
v -0.0372204809 0.013184454 -0.070266161
v -0.0372497301 0.0131066914 -0.0701048303
v -0.0372247868 0.01300214 -0.0698343825
v -0.0372486334 0.013414175 -0.0705343556
v -0.0372476606 0.0132710285 -0.0703746629
v -0.0370222597 0.0137432499 -0.0708283377
v -0.0372485142 0.0136720772 -0.0707359815
v -0.0372392492 0.0139165897 -0.0708631468
v -0.0371578436 0.0142006607 -0.0710078382
v -0.0372484951 0.0141313095 -0.0709501171
v -0.0372329216 0.0144182701 -0.071082387
v -0.0371739416 0.0147175903 -0.0712604618
v -0.0372372894 0.0146617432 -0.0711998105
v -0.0370065909 0.0149709721 -0.0715194726
v -0.0372469454 0.0149671478 -0.0713639998
v -0.0372442417 0.0147569199 -0.0712464666
v -0.0372391873 0.0152030392 -0.071521163
v -0.0372434406 0.0150824947 -0.0714376688
v -0.037210496 0.0154830475 -0.0717628121
v -0.0372497492 0.015438282 -0.0716905832
v -0.0370031386 0.0157262535 -0.0722654963
v -0.037152441 0.0156895466 -0.0720276332
v -0.0372486143 0.0157126064 -0.0719457006
v -0.0370584421 0.0158031101 -0.0722968984
v -0.0372494774 0.0158638401 -0.0721180105
v -0.0371483259 0.0194202156 -0.0780640459
v -0.0371958904 0.0193726463 -0.0755100775
v -0.037023428 0.0195451183 -0.0781765795
v -0.0370165711 0.0195519657 -0.0757256651
v -0.036757925 0.0113253326 -0.0686280322
v -0.0367643814 0.0113188763 -0.0684187937
v -0.0367682581 0.0113150043 -0.0682094288
v -0.0367695503 0.0113137073 -0.0679999995
v -0.0369817524 0.0129784889 -0.0700085115
v -0.0369996624 0.0129144974 -0.0697581053
v -0.0369426231 0.0128759403 -0.0695000005
v -0.0367728739 0.0128363151 -0.0679999995
v -0.036794632 0.0132469959 -0.0705154157
v -0.0369960814 0.0131375999 -0.0703102946
v -0.0369741373 0.0130057163 -0.0700810051
v -0.0369990616 0.0134836979 -0.0706742811
v -0.0369606476 0.0132562275 -0.0704766297
v -0.0369881134 0.0137162704 -0.0708212352
v -0.0369925337 0.0135030765 -0.0706902456
v -0.0368116264 0.0139800186 -0.0710070801
v -0.0369875078 0.0139938469 -0.070960331
v -0.0369881611 0.0141945286 -0.0710626149
v -0.0369924955 0.0140550918 -0.0709896946
v -0.0368463116 0.0144298954 -0.0712568259
v -0.036997159 0.0144613953 -0.0712031293
v -0.036985157 0.0146197815 -0.0713015723
v -0.0369819813 0.0149928684 -0.0715527153
v -0.0369997721 0.0148692627 -0.0714529657
v -0.0369648342 0.0152384395 -0.0717655897
v -0.0369861584 0.01521805 -0.0717291546
v -0.0369572287 0.0154977913 -0.0720335603
v -0.0369921665 0.015460989 -0.0719547081
v -0.0367880468 0.0155377788 -0.0723043871
v -0.0369956284 0.0155915565 -0.0720983338
v -0.0368971567 0.0196713848 -0.0782860088
v -0.0369556837 0.0196128578 -0.0757956362
v -0.0367695503 0.0197989864 -0.0783923054
v -0.0367697792 0.0197987671 -0.0759997606
v -0.0366136532 0.0114696045 -0.0702897072
v -0.0366406422 0.0114426155 -0.0700837779
v -0.0366650848 0.0114181728 -0.0698772144
v -0.0366869764 0.011396286 -0.0696700764
v -0.0367230682 0.0113601894 -0.0692543411
v -0.0367372637 0.0113459988 -0.0690458679
v -0.0367488842 0.0113343735 -0.0688370776
v -0.0365175037 0.0115657539 -0.0709030628
v -0.0365520744 0.0115311832 -0.0706994128
v -0.0367496138 0.012931406 -0.0700328374
v -0.0367055731 0.0128458137 -0.0697581053
v -0.0367046862 0.0128228874 -0.0695000005
v -0.0365336018 0.0127953167 -0.0679999995
v -0.0367419796 0.0132346935 -0.0705154157
v -0.0367495279 0.013201086 -0.0704766297
v -0.0367345409 0.013004467 -0.0701982594
v -0.0366337233 0.0134933395 -0.0707504916
v -0.0367122727 0.0134923096 -0.0707384443
v -0.0366845541 0.0135200233 -0.0707615256
v -0.0367399101 0.0135156555 -0.0707493854
v -0.0367335825 0.0139650268 -0.0710246754
v -0.036749733 0.0138976498 -0.0709792852
v -0.0365933972 0.0142391319 -0.0712600732
v -0.0367412071 0.0142191524 -0.0711760926
v -0.0367457419 0.0143603916 -0.0712634134
v -0.036734107 0.0142945881 -0.071226902
v -0.0367103176 0.0146745891 -0.0715033889
v -0.0367371779 0.0146552486 -0.0714710999
v -0.0367215185 0.0149925346 -0.0717581654
v -0.0367445068 0.0149742432 -0.0717219496
v -0.03669977 0.0152387066 -0.0720308399
v -0.0367383556 0.0152058144 -0.0719521689
v -0.0365224629 0.0152672787 -0.0722972608
v -0.036745389 0.0154466171 -0.0722349644
v -0.0366406565 0.019927885 -0.0784954357
v -0.0367067556 0.0198617859 -0.0760658455
v -0.0365105085 0.020058033 -0.0785953712
v -0.0365146237 0.0200539131 -0.0762581015
v -0.0363987856 0.0116844768 -0.07150846
v -0.0364408474 0.0116424103 -0.0713076472
v -0.0364804249 0.0116028328 -0.0711058283
v -0.0362578278 0.0118254299 -0.0721042418
v -0.0363072615 0.011776001 -0.071906817
v -0.0364448433 0.0129961891 -0.070266161
v -0.0364589815 0.0128754063 -0.0700085115
v -0.0364667063 0.0128094025 -0.0697581053
v -0.0364636402 0.0127865238 -0.0695000005
v -0.0362920647 0.012770998 -0.0679999995
v -0.0364767866 0.0131871815 -0.0705154157
v -0.0364997559 0.0130166454 -0.0702883458
v -0.0364886313 0.0134673328 -0.0707504916
v -0.0364982348 0.0134043331 -0.0707058525
v -0.0364836149 0.0137209721 -0.0709497094
v -0.0364173298 0.0137872524 -0.0710210204
v -0.0364388971 0.0137656803 -0.0709972501
v -0.0364943581 0.0142258472 -0.0713033056
v -0.0364977245 0.0140923042 -0.0712052488
v -0.0364584761 0.0144634743 -0.0715097165
v -0.0364863043 0.0144472618 -0.0714775038
v -0.0364157467 0.0147163887 -0.0717696691
v -0.0364899998 0.0146702785 -0.0716629243
v -0.0362631683 0.0149924774 -0.0722742295
v -0.036375411 0.0149005909 -0.0720073724
v -0.0364940958 0.0149902363 -0.0719779849
v -0.0363273077 0.015061533 -0.0722815633
v -0.0364958935 0.0151651592 -0.0721904778
v -0.0363791494 0.0201893921 -0.0786920786
v -0.0364495926 0.0201189537 -0.0763201666
v -0.0362516193 0.0203169174 -0.0765001822
v -0.0363180809 0.0202504654 -0.0764412117
v -0.0360950117 0.0119882507 -0.0726887727
v -0.0362059622 0.0118773003 -0.072300415
v -0.0360359602 0.0120473022 -0.0728808403
v -0.0362170439 0.0129775162 -0.070266161
v -0.0362227612 0.0128560467 -0.0700085115
v -0.0362258844 0.0127896709 -0.0697581053
v -0.036220644 0.0127670307 -0.0695000005
v -0.0360494261 0.012763483 -0.0679999995
v -0.0362083273 0.0131628342 -0.0705154157
v -0.036215766 0.0130047531 -0.0703102946
v -0.0362444334 0.0134409065 -0.0707504916
v -0.0362498694 0.0133566303 -0.0706902456
v -0.0362401896 0.0135067291 -0.070791769
v -0.0362289362 0.0139756412 -0.0712555718
v -0.0362456493 0.0139589329 -0.071232574
v -0.0362361746 0.0139684029 -0.0709686995
v -0.0360612898 0.0141432972 -0.0715159345
v -0.0361968498 0.0140077324 -0.0713010979
v -0.0360576372 0.0141469498 -0.0711431217
v -0.0360919933 0.0141125889 -0.070992372
v -0.0361501675 0.0144699974 -0.071766026
v -0.0362276726 0.0144341297 -0.0716606355
v -0.0360119276 0.014714405 -0.0722337294
v -0.0362282019 0.01466963 -0.0719041729
v -0.0362245016 0.0145117683 -0.0717400193
v -0.0361364346 0.0148537846 -0.0722562599
v -0.0360738878 0.0147841759 -0.0722455764
v -0.0361129456 0.0204555912 -0.0788756943
v -0.0361847048 0.0203838367 -0.0765581036
v -0.0360495262 0.0205190201 -0.0766707802
v -0.0359107905 0.012172472 -0.0732604527
v -0.0359745483 0.0121087093 -0.0730714202
v -0.0357763319 0.0123069305 -0.0736336589
v -0.0359885006 0.0129747124 -0.070266161
v -0.0359857683 0.012853138 -0.0700085115
v -0.0359842711 0.012786705 -0.0697581053
v -0.0359768801 0.0127645035 -0.0695000005
v -0.0358068495 0.0127728004 -0.0679999995
v -0.0359926682 0.0131601925 -0.0705154157
v -0.035989111 0.0130019684 -0.0703102946
v -0.035998867 0.0134357567 -0.0707504916
v -0.0359947329 0.0132519741 -0.070606966
v -0.0357632523 0.0137437553 -0.0709004283
v -0.0357769661 0.0137603874 -0.0709072447
v -0.0359937887 0.0142107887 -0.0716390848
v -0.0359838753 0.0142207069 -0.0714422178
v -0.035989974 0.0140038223 -0.0709771609
v -0.0358190422 0.01438554 -0.072034421
v -0.0359308224 0.0142737598 -0.0717666745
v -0.0359512978 0.0142532844 -0.0717236638
v -0.0358298473 0.0145043106 -0.0721909523
v -0.0358423739 0.0207261677 -0.0790460587
v -0.0359781866 0.0205903549 -0.0789625454
v -0.035912612 0.0206559296 -0.0767791843
v -0.0359812813 0.020587265 -0.0767255211
v -0.0357740288 0.020794508 -0.0768832684
v -0.0356327419 0.0124505253 -0.074000001
v -0.0357056646 0.0123775978 -0.0738177156
v -0.0355575781 0.0125256843 -0.0741804576
v -0.0357034474 0.0129935284 -0.070266161
v -0.0357491427 0.0128666992 -0.0700085115
v -0.0357430391 0.0128005237 -0.0697581053
v -0.035733531 0.0127789421 -0.0695000005
v -0.0355054932 0.0128080578 -0.0679999995
v -0.0357236939 0.0131779404 -0.0705154157
v -0.035704916 0.0130068893 -0.0702883458
v -0.0355314808 0.0130037899 -0.0702437472
v -0.0355657988 0.0134856434 -0.0707548261
v -0.0355041247 0.0133953304 -0.0706832194
v -0.035585392 0.0135131473 -0.0707742715
v -0.035705555 0.0208629913 -0.0791262054
v -0.0357041388 0.0208644028 -0.07693367
v -0.0355677633 0.0210007782 -0.0792029667
v -0.0355631857 0.0210053558 -0.0770311737
v -0.0354006271 0.0126826305 -0.0745356679
v -0.035480197 0.0126030655 -0.0743590307
v -0.03533531 0.0127479477 -0.0687521315
v -0.0353400021 0.0127432556 -0.0686582589
v -0.0353475123 0.0127357502 -0.0684703517
v -0.0353540878 0.0127291698 -0.0681882
v -0.0353553372 0.0127279205 -0.0679999995
v -0.0353188877 0.01276437 -0.0747103143
v -0.0352822952 0.0129444427 -0.0700132227
v -0.0352821522 0.0128732796 -0.0697511816
v -0.0352500801 0.0128331776 -0.0697190118
v -0.0352850084 0.012798254 -0.0694068956
v -0.0353024893 0.0127807732 -0.0692203188
v -0.0353240519 0.0127592106 -0.0689396644
v -0.0354196196 0.0128228397 -0.0686573291
v -0.035432313 0.0128205318 -0.0684694672
v -0.0354435043 0.0128185863 -0.0681876922
v -0.0354456501 0.0128182335 -0.0679999995
v -0.0353966551 0.0132189674 -0.0705017805
v -0.0353168993 0.013054945 -0.0702586794
v -0.035297473 0.013001997 -0.0701538968
v -0.035420125 0.0132602711 -0.0705501127
v -0.0354290514 0.0211394901 -0.0792763138
v -0.0354921417 0.0210764046 -0.0770782614
v -0.0352894478 0.021279089 -0.0793462229
v -0.0352768641 0.0212916775 -0.0772127914
v -0.0351490097 0.0129342575 -0.0750534248
v -0.0352350073 0.0128482551 -0.0748829174
v -0.0350941973 0.0129890652 -0.0706925464
v -0.0351347666 0.0129484959 -0.0704781866
v -0.0351892929 0.0128939743 -0.0701543903
v -0.0352213936 0.0128618641 -0.0699371791
v -0.0350609188 0.0130223389 -0.0752217817
v -0.0350030213 0.013080246 -0.0711171865
v -0.0350502758 0.0130329914 -0.0709055829
v -0.0351490097 0.0214195366 -0.0794126797
v -0.0352044134 0.0213641281 -0.077255373
v -0.0350077658 0.0215607757 -0.0794756556
v -0.0350585346 0.0215100021 -0.0773371172
v -0.0348785715 0.0132046909 -0.0755518436
v -0.0349707632 0.0131124992 -0.0753879356
v -0.034841507 0.0132417602 -0.0717423749
v -0.0349259405 0.0131573219 -0.0714316821
v -0.0349781494 0.0131051083 -0.0712224197
v -0.0347843723 0.0132988853 -0.0757134533
v -0.0347811728 0.0133020897 -0.0719472218
v -0.0348657732 0.0217027683 -0.079535141
v -0.0349851256 0.021583416 -0.0773762655
v -0.0347631149 0.0218054314 -0.0774867725
v -0.034590066 0.0134931965 -0.0760295677
v -0.0346881943 0.0133950634 -0.0758727074
v -0.0346164112 0.0134668465 -0.0724506164
v -0.034717639 0.0133656235 -0.0721501255
v -0.0345081692 0.0135750885 -0.0727461791
v -0.0345796852 0.0219888515 -0.0796435499
v -0.0346885471 0.0218799992 -0.0775212765
v -0.0345386248 0.0220299168 -0.0775867653
v -0.034388073 0.0136951847 -0.0763359022
v -0.0344900112 0.0135932465 -0.0761839819
v -0.0343531399 0.0137301178 -0.0731320238
v -0.0344321661 0.0136510963 -0.0729403162
v -0.0342842703 0.0137989921 -0.076485281
v -0.0342711239 0.0138121338 -0.0733212042
v -0.0343125038 0.0137707539 -0.0732269359
v -0.0344356852 0.0221328564 -0.07969244
v -0.0344632845 0.022105257 -0.0776177406
v -0.0342911034 0.0222774429 -0.0797377729
v -0.0343119078 0.0222566337 -0.0776761341
v -0.0341786413 0.0139046211 -0.0766320753
v -0.0340982895 0.0139849777 -0.0736916089
v -0.0342290049 0.0138542576 -0.0734148169
v -0.0340712195 0.014012043 -0.0767762423
v -0.0340075522 0.0140757103 -0.0738726544
v -0.034145978 0.0224225635 -0.0797795248
v -0.0340832119 0.0224853344 -0.0777547884
v -0.0342358809 0.0223326607 -0.0777035475
v -0.0340003662 0.0225681801 -0.0798176908
v -0.0340065842 0.0225619621 -0.0777786064
v -0.0338511162 0.0142321415 -0.0770565128
v -0.0339620333 0.0141212292 -0.0769177389
v -0.0338661842 0.0142170734 -0.0741387701
v -0.0339611273 0.0141221352 -0.0739620972
v -0.0337684898 0.0143147678 -0.0743124223
v -0.0338176756 0.0142655868 -0.0742259789
v -0.0338543015 0.0227142448 -0.0798522615
v -0.0339297705 0.022638771 -0.0778012228
v -0.0337756424 0.0227928944 -0.0778428316
v -0.0336242323 0.0144590301 -0.0773257494
v -0.0337385063 0.0143447609 -0.0771925354
v -0.0336169033 0.0144663544 -0.0745670438
v -0.0336680966 0.0144151611 -0.0744829655
v -0.0335083323 0.0145749302 -0.077456131
v -0.0335125523 0.0145707054 -0.0747327662
v -0.0337078362 0.0228607101 -0.0798832178
v -0.0336983471 0.0228701992 -0.0778618193
v -0.0335610085 0.0230075378 -0.0799105549
v -0.0335433226 0.023025219 -0.0778961515
v -0.0333908396 0.0146924229 -0.0775836277
v -0.0333512144 0.014732048 -0.0749751091
v -0.0332717924 0.01481147 -0.0777082062
v -0.0332961779 0.0147870846 -0.0750541878
v -0.0334138661 0.0231546802 -0.0799342632
v -0.033465622 0.0231029243 -0.0779114914
v -0.0332664518 0.0233020897 -0.0799543381
v -0.0333098774 0.0232586689 -0.077938509
v -0.0331512289 0.0149320335 -0.0778298235
v -0.0331273966 0.0149558659 -0.0752861691
v -0.0331842642 0.0148989983 -0.0752097225
v -0.0330291824 0.0150540848 -0.077948451
v -0.0330118828 0.0150713749 -0.0754363537
v -0.0331188135 0.023449728 -0.0799707699
v -0.0332318525 0.023336689 -0.077950182
v -0.0329056864 0.0151775761 -0.0780640459
v -0.0328342657 0.0152489967 -0.0756547403
v -0.0327807837 0.0153024788 -0.0781765795
v -0.0327739315 0.0153093262 -0.0757256651
v -0.0328230457 0.0237455006 -0.0799926901
v -0.0329973059 0.0235712356 -0.0779778481
v -0.0327622395 0.0238063068 -0.0779944611
v -0.0326545124 0.0154287453 -0.0782860088
v -0.0325896387 0.0154936237 -0.0759326935
v -0.0325269108 0.0155563469 -0.0783923054
v -0.0325271349 0.0155561275 -0.0759997606
v -0.0326750021 0.0238935394 -0.0799981737
v -0.0326838141 0.0238847275 -0.0779975367
v -0.0325269108 0.024041626 -0.08
v -0.0325269108 0.024041626 -0.0780000019
v -0.0325198393 0.0240487022 -0.0779999971
v -0.0323980169 0.0156852455 -0.0784954357
v -0.0323365288 0.0157467289 -0.0761950254
v -0.032267869 0.0158153934 -0.0785953712
v -0.0322719841 0.0158112736 -0.0762581015
v -0.0321365099 0.0159467525 -0.0786920786
v -0.0321414309 0.0159418316 -0.0763812065
v -0.032003973 0.0160792847 -0.0787855291
v -0.0320089798 0.0160742779 -0.0765001822
v -0.0320754414 0.0160078258 -0.0764412117
v -0.031870306 0.0162129517 -0.0788756943
v -0.0318746929 0.0162085647 -0.0766149712
v -0.0318068819 0.0162763805 -0.0766707802
v -0.0315997343 0.0164835281 -0.0790460587
v -0.0317355471 0.0163477154 -0.0789625454
v -0.0316008835 0.0164823742 -0.0768317699
v -0.0317386417 0.0163446255 -0.0767255211
v -0.0315313892 0.0165518684 -0.0768832684
v -0.0314629154 0.0166203518 -0.0791262054
v -0.0313912087 0.016692049 -0.076982975
v -0.0313251238 0.0167581386 -0.0792029667
v -0.0313205414 0.0167627163 -0.0770311737
v -0.0311864071 0.0168968506 -0.0792763138
v -0.0311063318 0.0169769306 -0.077169075
v -0.0310468083 0.0170364494 -0.0793462229
v -0.0310342198 0.0170490379 -0.0772127914
v -0.0309063654 0.017176897 -0.0794126797
v -0.0308889942 0.0171942634 -0.0772968197
v -0.0307651262 0.0173181362 -0.0794756556
v -0.0308158951 0.0172673626 -0.0773371172
v -0.0306231337 0.0174601288 -0.079535141
v -0.0305947619 0.0174885006 -0.0774510956
v -0.0305204706 0.0175627918 -0.0774867725
v -0.0304804258 0.0176028366 -0.0795911121
v -0.0303710728 0.0177121849 -0.0775546074
v -0.0302959852 0.0177872772 -0.0775867653
v -0.0301930456 0.0178902168 -0.07969244
v -0.030145071 0.0179381866 -0.0776475334
v -0.0300484591 0.0180348034 -0.0797377729
v -0.0300692635 0.0180139942 -0.0776761341
v -0.0299033384 0.018179924 -0.0797795248
v -0.0298405676 0.0182426948 -0.0777547884
v -0.0299170046 0.0181662578 -0.0777297688
v -0.0297577267 0.0183255405 -0.0798176908
v -0.0297639399 0.0183193226 -0.0777786064
v -0.0296116619 0.0184715958 -0.0798522615
v -0.0296101503 0.0184731121 -0.0778226328
v -0.0295330029 0.0185502548 -0.0778428316
v -0.0294651919 0.0186180706 -0.0798832178
v -0.0293782597 0.018704998 -0.0778795958
v -0.0293183689 0.0187648983 -0.0799105549
v -0.029300683 0.0187825794 -0.0778961515
v -0.0291712265 0.0189120407 -0.0799342632
v -0.0291451578 0.0189381046 -0.0779256105
v -0.0290238123 0.0190594501 -0.0799543381
v -0.0290672331 0.0190160293 -0.077938509
v -0.028876174 0.0192070885 -0.0799707699
v -0.0289111071 0.0191721554 -0.0779606295
v -0.0287546663 0.0193285961 -0.0779778481
v -0.0287283545 0.019354908 -0.0799835539
v -0.0285979967 0.0194852657 -0.0779901505
v -0.0285804014 0.019502861 -0.0799926901
v -0.0285195999 0.0195636578 -0.0779944611
v -0.0284323578 0.0196508999 -0.0799981737
v -0.0283627253 0.0197205372 -0.0779993868
v -0.0282771998 0.0198060627 -0.0799999952
v -0.0282842713 0.0197989864 -0.0780000019
v -0.0282771998 0.0198060627 -0.0779999971
v -0.0268700581 0.0296984882 -0.08
v -0.0268700581 0.0296984882 -0.0780000019
v -0.0268771296 0.029691412 -0.0779999971
v -0.0265985613 0.0299699802 -0.0799966478
v -0.0266232424 0.0299452991 -0.0779969549
v -0.0263271504 0.0302413959 -0.0799865961
v -0.026376503 0.0301920338 -0.0779878187
v -0.0261299162 0.0304386253 -0.0779725885
v -0.0260559015 0.03051264 -0.0799698496
v -0.0258835535 0.030684988 -0.0779512787
v -0.0257849007 0.0307836456 -0.0799464083
v -0.0256374912 0.0309310551 -0.0779238939
v -0.0255142336 0.0310543079 -0.0799162817
v -0.0253918009 0.0311767406 -0.077890439
v -0.0252439766 0.0313245697 -0.0798794794
v -0.0251465635 0.031421978 -0.0778509235
v -0.0249742155 0.031594326 -0.0798360157
v -0.0249018507 0.0316666908 -0.0778053617
v -0.0247050314 0.0318635101 -0.0797858953
v -0.0246577387 0.0319108028 -0.077753768
v -0.0244365101 0.0321320362 -0.0797291422
v -0.0244143038 0.0321542377 -0.0776961565
v -0.0241687279 0.0323998184 -0.0796657705
v -0.0241716127 0.0323969288 -0.0776325417
v -0.0239017658 0.0326667805 -0.0795957994
v -0.0239297419 0.0326387997 -0.077562952
v -0.0236357098 0.032932827 -0.079519248
v -0.0236887674 0.0328797741 -0.077487402
v -0.0233706408 0.0331979008 -0.0794361401
v -0.0234487658 0.0331197758 -0.0774059153
v -0.0231066351 0.0334619064 -0.0793465042
v -0.0232098036 0.0333587379 -0.0773185158
v -0.0228437786 0.0337247677 -0.0792503691
v -0.0229719572 0.0335965843 -0.0772252321
v -0.0226274185 0.0254558487 -0.08
v -0.0226274185 0.0254558487 -0.0780000019
v -0.02263449 0.0254487724 -0.0779999971
v -0.0225821476 0.0339863987 -0.0791477585
v -0.0227352982 0.0338332481 -0.0771260929
v -0.0223559218 0.0257273407 -0.0799966478
v -0.0223806028 0.0257026596 -0.0779969549
v -0.0223218231 0.0342467232 -0.0790387058
v -0.022499898 0.0340686436 -0.0770211315
v -0.0222658281 0.0343027134 -0.0769103718
v -0.022084506 0.0259987564 -0.0799865961
v -0.0221338635 0.0259493942 -0.0779878187
v -0.0220628815 0.0345056648 -0.0789232445
v -0.0220331602 0.0345353813 -0.0767938519
v -0.0218872767 0.0261959858 -0.0779725885
v -0.021813262 0.0262700004 -0.0799698496
v -0.0218054037 0.0347631378 -0.0788014078
v -0.0218019705 0.034766571 -0.0766716099
v -0.0216409092 0.0264423485 -0.0779512787
v -0.0215422611 0.0265409965 -0.0799464083
v -0.0215723209 0.0349962253 -0.0765436792
v -0.0215494709 0.0350190658 -0.0786732388
v -0.0213948469 0.0266884155 -0.0779238939
v -0.0212715941 0.0268116684 -0.0799162817
v -0.0213442831 0.0352242584 -0.0764100981
v -0.0212951593 0.0352733822 -0.0785387707
v -0.0211491613 0.0269341011 -0.077890439
v -0.0210013371 0.0270819302 -0.0798794794
v -0.0211179333 0.035450613 -0.0762709093
v -0.0210425453 0.0355259914 -0.0783980465
v -0.020903924 0.0271793384 -0.0778509235
v -0.0208933334 0.0356752129 -0.0761261559
v -0.0207917099 0.0357768364 -0.0782511091
v -0.020731576 0.0273516865 -0.0798360157
v -0.0206592112 0.0274240513 -0.0778053617
v -0.0206705551 0.0358979912 -0.0759758806
v -0.0205427199 0.0360258217 -0.0780980015
v -0.0204623919 0.0276208706 -0.0797858953
v -0.0204150992 0.0276681633 -0.077753768
v -0.0204496603 0.0361188812 -0.0758201313
v -0.020295661 0.0362728805 -0.0779387712
v -0.0201938658 0.0278893967 -0.0797291422
v -0.0201716595 0.0279115982 -0.0776961565
v -0.0202307253 0.0363378162 -0.0756589508
v -0.0200506048 0.0365179367 -0.0777734709
v -0.0200138121 0.0365547295 -0.0754923964
v -0.0199260836 0.0281571789 -0.0796657705
v -0.0199289684 0.0281542892 -0.0776325417
v -0.0198076229 0.0367609234 -0.0776021433
v -0.0197989922 0.0367695541 -0.0753205061
v -0.0196591263 0.0284241314 -0.0795957994
v -0.0196871023 0.0283961601 -0.077562952
v -0.019586318 0.0369822235 -0.0751433468
v -0.0195667963 0.0370017452 -0.0774248457
v -0.0193930702 0.0286901874 -0.079519248
v -0.0194461279 0.0286371345 -0.077487402
v -0.0193281918 0.0372403545 -0.0772416353
v -0.0193758659 0.0371926708 -0.0749609613
v -0.0191280012 0.0289552612 -0.0794361401
v -0.0192061262 0.0288771362 -0.0774059153
v -0.0190918808 0.037476656 -0.0770525599
v -0.0191676979 0.0374008484 -0.0747734118
v -0.0188639956 0.0292192669 -0.0793465042
v -0.018967164 0.0291160984 -0.0773185158
v -0.0188579445 0.0377105923 -0.0768576813
v -0.0189618759 0.0376066704 -0.0745807505
v -0.018758462 0.0378100796 -0.0743830419
v -0.0186011391 0.0294821281 -0.0792503691
v -0.0187293177 0.0293539448 -0.0772252321
v -0.0186264496 0.0379420967 -0.0766570568
v -0.018557518 0.0380110283 -0.0741803408
v -0.0183395081 0.0297437591 -0.0791477585
v -0.0184926586 0.0295906086 -0.0771260929
v -0.0182572584 0.029826004 -0.0770211315
v -0.0183974629 0.0381710834 -0.0764507532
v -0.0183591061 0.0382094307 -0.0739727092
v -0.0180791788 0.0300040836 -0.0790387058
v -0.0180231886 0.0300600738 -0.0769103718
v -0.0181710558 0.0383974857 -0.0762388277
v -0.0181632881 0.0384052486 -0.0737602162
v -0.0178202419 0.0302630157 -0.0789232445
v -0.0177905207 0.0302927418 -0.0767938519
v -0.0179473047 0.0386212368 -0.076021347
v -0.0179701214 0.0385984154 -0.0735429192
v -0.0177796679 0.0387888737 -0.0733208895
v -0.0175627642 0.0305204983 -0.0788014078
v -0.017559331 0.0305239315 -0.0766716099
v -0.0177262669 0.0388422794 -0.0757983732
v -0.01759198 0.0389765568 -0.0730941916
v -0.0175080137 0.0390605278 -0.0755699825
v -0.0173068314 0.0307764263 -0.0786732388
v -0.0173296814 0.0307535858 -0.0765436792
v -0.0174071198 0.039161417 -0.0728628969
v -0.0172926121 0.0392759342 -0.075336237
v -0.0171016436 0.0309816189 -0.0764100981
v -0.0170525198 0.0310307426 -0.0785387707
v -0.0170801287 0.0394884128 -0.0750972128
v -0.0172251444 0.0393433971 -0.0726270747
v -0.0170461063 0.0395224399 -0.0723867965
v -0.0168752937 0.0312079735 -0.0762709093
v -0.0167999058 0.0312833519 -0.0783980465
v -0.0168706303 0.039697916 -0.0748529768
v -0.0168700581 0.0396984882 -0.0721421361
v -0.0166506939 0.0314325733 -0.0761261559
v -0.0165490656 0.0315341968 -0.0782511091
v -0.0166641741 0.0399043674 -0.07460361
v -0.0166970568 0.0398714847 -0.0718931675
v -0.0165271549 0.0400413914 -0.071639967
v -0.0164279108 0.0316553516 -0.0759758806
v -0.0163000803 0.0317831821 -0.0780980015
v -0.0164608269 0.0401077099 -0.0743491864
v -0.016360405 0.0402081413 -0.0713826132
v -0.0162606554 0.0403078861 -0.0740897822
v -0.0162070208 0.0318762417 -0.0758201313
v -0.0160530214 0.032030241 -0.0779387712
v -0.0161968546 0.0403716869 -0.0711211801
v -0.0160637074 0.0405048294 -0.0738254762
v -0.0160365515 0.04053199 -0.070855751
v -0.0159880858 0.0320951767 -0.0756589508
v -0.0158079605 0.0322752972 -0.0777734709
v -0.0157711725 0.0323120899 -0.0754923964
v -0.015870059 0.0406984825 -0.0735563493
v -0.0158795529 0.0406889839 -0.0705864072
v -0.0155649834 0.0325182743 -0.0776021433
v -0.0155563479 0.0325269146 -0.0753205061
v -0.0156797581 0.0408887882 -0.073282485
v -0.0157259016 0.0408426399 -0.0703132296
v -0.0155756455 0.0409929008 -0.0700363016
v -0.0153436785 0.032739584 -0.0751433468
v -0.015324152 0.0327591057 -0.0774248457
v -0.0154928618 0.0410756798 -0.0730039644
v -0.0154288273 0.0411397095 -0.0697557044
v -0.0153094368 0.0412591095 -0.0727208734
v -0.0152854996 0.0412830467 -0.0694715285
v -0.0150855475 0.032997715 -0.0772416353
v -0.0151332264 0.0329500313 -0.0749609613
v -0.0151295309 0.0414390106 -0.0724332976
v -0.0151456957 0.0414228458 -0.0691838574
v -0.0150094633 0.0415590782 -0.0688927817
v -0.0148492413 0.0332340164 -0.0770525599
v -0.0149250584 0.0331581993 -0.0747734118
v -0.0149532013 0.0416153355 -0.0721413279
v -0.0148768454 0.0416916962 -0.0685983849
v -0.0147805052 0.0417880363 -0.0718450475
v -0.014615305 0.0334679527 -0.0768576813
v -0.0147192364 0.0333640213 -0.0745807505
v -0.0145158224 0.03356744 -0.0743830419
v -0.0146114855 0.041957056 -0.0715445518
v -0.01474788 0.0418206615 -0.0683007622
v -0.0146226101 0.0419459362 -0.0679999995
v -0.0145010691 0.0420674724 -0.0676961923
v -0.0143838101 0.0336994572 -0.0766570568
v -0.0143148785 0.0337683792 -0.0741803408
v -0.0144462042 0.0421223373 -0.0712399316
v -0.0143832951 0.0421852512 -0.067389431
v -0.014284709 0.0422838325 -0.0709312749
v -0.0142693215 0.0422992153 -0.0670798111
v -0.0141548233 0.0339284439 -0.0764507532
v -0.0141164665 0.0339667911 -0.0739727092
v -0.0141270428 0.0424415035 -0.0706186819
v -0.0141591911 0.0424093552 -0.0667674232
v -0.014052928 0.0425156135 -0.0664523649
v -0.0139284163 0.0341548462 -0.0762388277
v -0.0139206486 0.0341626091 -0.0737602162
v -0.013973258 0.0425952835 -0.0703022432
v -0.0138234072 0.0427451343 -0.069982059
v -0.0139505749 0.0426179714 -0.0661347318
v -0.0138521509 0.0427163906 -0.0658146214
v -0.013757699 0.0428108425 -0.0654921317
v -0.0137046604 0.0343785972 -0.076021347
v -0.0137274819 0.0343557758 -0.0735429192
v -0.0135370283 0.0345462341 -0.0733208895
v -0.0136775236 0.0428910179 -0.0696582246
v -0.0136672382 0.042901308 -0.0651673579
v -0.0135807972 0.0429877491 -0.0648404026
v -0.0135356646 0.043032877 -0.0693308377
v -0.0134836226 0.0345996399 -0.0757983732
v -0.0133493404 0.0347339172 -0.0730941916
v -0.0132653742 0.0348178882 -0.0755699825
v -0.0133978634 0.0431706829 -0.069000001
v -0.0134984045 0.043070137 -0.0645113635
v -0.0134200888 0.0431484527 -0.0641803408
v -0.0133458643 0.0432226772 -0.0638474345
v -0.0132641678 0.0433043785 -0.068665812
v -0.0132757645 0.0432927818 -0.0635127473
v -0.0131644802 0.0349187775 -0.0728628969
v -0.0130499725 0.0350332851 -0.075336237
v -0.0131346159 0.0434339256 -0.0683283734
v -0.0132098036 0.0433587379 -0.0631763816
v -0.0131480055 0.043420536 -0.0628384376
v -0.0130903845 0.043478157 -0.0624990201
v -0.0130092507 0.0435592956 -0.0679877901
v -0.0130369597 0.0435315819 -0.0621582341
v -0.0128374891 0.0352457733 -0.0750972128
v -0.0129825049 0.0351007576 -0.0726270747
v -0.012803462 0.0352798004 -0.0723867965
v -0.0128881054 0.0436804409 -0.0676441646
v -0.0129877548 0.0435807915 -0.0618161798
v -0.0129427748 0.0436257667 -0.0614729643
v -0.0129020338 0.0436665077 -0.0611286902
v -0.012865551 0.0437029858 -0.0607834625
v -0.0128333359 0.0437352104 -0.060437386
v -0.0127712183 0.0437973232 -0.0672976017
v -0.0128053932 0.0437631531 -0.0600905704
v -0.0127817373 0.0437868042 -0.0597431159
v -0.012762373 0.0438061733 -0.0593951297
v -0.0126279907 0.0354552765 -0.0748529768
v -0.0126274185 0.0354558487 -0.0721421361
v -0.0126586275 0.043909914 -0.0669482064
v -0.0127473049 0.0438212414 -0.0590467191
v -0.0127365379 0.0438320084 -0.058697989
v -0.0127300768 0.0438384647 -0.0583490491
v -0.0127279215 0.04384062 -0.0579999995
v -0.0125503616 0.0440181751 -0.0665960836
v -0.0124215345 0.0356617279 -0.07460361
v -0.0124544172 0.0356288452 -0.0718931675
v -0.0122845154 0.0357987518 -0.071639967
v -0.0124464636 0.0441220779 -0.0662413454
v -0.0123469524 0.0442215843 -0.0658840942
v -0.0122518711 0.0443166752 -0.0655244422
v -0.0122181873 0.0358650703 -0.0743491864
v -0.0121177607 0.0359655018 -0.0713826132
v -0.0120180111 0.0360652466 -0.0740897822
v -0.0121612387 0.0444073028 -0.065162499
v -0.0120750885 0.0444934482 -0.0647983742
v -0.0119542103 0.0361290474 -0.0711211801
v -0.0118210678 0.0362621899 -0.0738254762
v -0.0117939119 0.0362893505 -0.070855751
v -0.0119934492 0.0445750923 -0.0644321775
v -0.0119163351 0.0446522064 -0.0640640211
v -0.0118437796 0.044724762 -0.0636940193
v -0.0117757969 0.0447927399 -0.0633222818
v -0.0116274147 0.036455843 -0.0735563493
v -0.0116369133 0.0364463444 -0.0705864072
v -0.0117124157 0.0448561211 -0.0629489231
v -0.0116536503 0.0449148865 -0.0625740576
v -0.0115995245 0.044969017 -0.0621977973
v -0.0115500431 0.0450184936 -0.0618202591
v -0.0115052347 0.0450633068 -0.0614415574
v -0.0114371138 0.0366461487 -0.073282485
v -0.0114832621 0.0366000004 -0.0703132296
v -0.0112502222 0.0368330402 -0.0730039644
v -0.0113330059 0.0367502518 -0.0700363016
v -0.0114651041 0.0451034374 -0.0610618091
v -0.0114296608 0.045138876 -0.0606811261
v -0.0113989287 0.0451696129 -0.0602996254
v -0.0113729029 0.0451956386 -0.0599174261
v -0.0113516026 0.0452169437 -0.0595346427
v -0.0113350277 0.0452335186 -0.059151392
v -0.0113231831 0.0452453537 -0.0587677884
v -0.0113160782 0.0452524681 -0.0583839536
v -0.0113137083 0.0452548332 -0.0579999995
v -0.0111861878 0.0368970699 -0.0697557044
v -0.0110667973 0.0370164604 -0.0727208734
v -0.01104286 0.0370404072 -0.0694715285
v -0.0108868866 0.0371963711 -0.0724332976
v -0.0109030562 0.0371802063 -0.0691838574
v -0.0107668285 0.0373164387 -0.0688927817
v -0.0107105618 0.0373726959 -0.0721413279
v -0.0106342011 0.0374490566 -0.0685983849
v -0.0105378609 0.0375453968 -0.0718450475
v -0.0105052452 0.037578022 -0.0683007622
v -0.0103688507 0.0377144165 -0.0715445518
v -0.0103799706 0.0377032967 -0.0679999995
v -0.0102584248 0.0378248329 -0.0676961923
v -0.0102035599 0.0378796978 -0.0712399316
v -0.0101406555 0.0379426117 -0.067389431
v -0.0100420647 0.038041193 -0.0709312749
v -0.0100266819 0.0380565758 -0.0670798111
v -0.00988440324 0.038198864 -0.0706186819
v -0.0099165516 0.0381667156 -0.0667674232
v -0.00981029321 0.038272974 -0.0664523649
v -0.00973062326 0.038352644 -0.0703022432
v -0.00970793534 0.0383753319 -0.0661347318
v -0.00960951615 0.0384737511 -0.0658146214
v -0.00958076287 0.0385024948 -0.069982059
v -0.00951505471 0.038568203 -0.0654921317
v -0.00943488885 0.0386483784 -0.0696582246
v -0.0094245987 0.0386586685 -0.0651673579
v -0.00933815766 0.0387451 -0.0648404026
v -0.00929302026 0.0387902374 -0.0693308377
v -0.00925576974 0.0388274975 -0.0645113635
v -0.00915522386 0.0389280338 -0.069000001
v -0.00917744447 0.0389058132 -0.0641803408
v -0.00910322953 0.0389800377 -0.0638474345
v -0.00902152825 0.0390617294 -0.068665812
v -0.00903312493 0.0390501327 -0.0635127473
v -0.0088919716 0.0391912861 -0.0683283734
v -0.00896715928 0.0391160984 -0.0631763816
v -0.00890536119 0.0391778965 -0.0628384376
v -0.00884774018 0.0392355175 -0.0624990201
v -0.00876661111 0.0393166561 -0.0679877901
v -0.00879432488 0.0392889423 -0.0621582341
v -0.00864546586 0.0394378014 -0.0676441646
v -0.00874511529 0.0393381519 -0.0618161798
v -0.00870013047 0.0393831272 -0.0614729643
v -0.00865939904 0.0394238682 -0.0611286902
v -0.00862291146 0.0394603462 -0.0607834625
v -0.00859069634 0.0394925709 -0.060437386
v -0.008528574 0.0395546837 -0.0672976017
v -0.00856275369 0.039520504 -0.0600905704
v -0.00853909303 0.0395441646 -0.0597431159
v -0.00851973344 0.0395635338 -0.0593951297
v -0.00850466538 0.0395786018 -0.0590467191
v -0.00841598321 0.0396672745 -0.0669482064
v -0.0084938984 0.0395893688 -0.058697989
v -0.00848743249 0.0395958252 -0.0583490491
v -0.00848527719 0.0395979805 -0.0579999995
v -0.0083077221 0.0397755356 -0.0665960836
v -0.00820381928 0.0398794384 -0.0662413454
v -0.00810431291 0.0399789448 -0.0658840942
v -0.00800923158 0.0400740261 -0.0655244422
v -0.00791860391 0.0401646633 -0.065162499
v -0.00783244897 0.0402508087 -0.0647983742
v -0.00775080491 0.0403324528 -0.0644321775
v -0.00767369081 0.0404095669 -0.0640640211
v -0.00760113526 0.0404821224 -0.0636940193
v -0.00753315736 0.0405501003 -0.0633222818
v -0.00746977616 0.0406134815 -0.0629489231
v -0.00741101075 0.0406722469 -0.0625740576
v -0.0073568802 0.0407263775 -0.0621977973
v -0.00730740357 0.0407758541 -0.0618202591
v -0.00726259042 0.0408206673 -0.0614415574
v -0.0072224598 0.0408607979 -0.0610618091
v -0.00718702127 0.0408962364 -0.0606811261
v -0.00715628434 0.0409269733 -0.0602996254
v -0.00713026811 0.0409529991 -0.0599174261
v -0.00710896302 0.0409742947 -0.0595346427
v -0.00709238816 0.0409908695 -0.059151392
v -0.00708054353 0.0410027141 -0.0587677884
v -0.00707343865 0.0410098286 -0.0583839536
v -0.00707106401 0.0410121937 -0.0579999995
f 4 1 2
f 1 420 2
f 11 1 4
f 11 460 1
f 1 460 420
f 4 2 3
f 2 421 3
f 2 420 421
f 3 422 4
f 3 421 422
f 4 5 6
f 13 5 4
f 6 7 4
f 4 7 8
f 4 8 9
f 4 9 10
f 4 10 11
f 4 12 13
f 4 16 12
f 4 14 15
f 18 14 4
f 15 16 4
f 4 17 18
f 4 20 17
f 4 19 20
f 4 21 19
f 23 21 4
f 4 22 23
f 24 22 4
f 4 26 24
f 4 25 26
f 27 25 4
f 4 44 27
f 4 30 33
f 4 73 30
f 4 33 36
f 36 39 4
f 4 39 51
f 4 43 44
f 51 43 4
f 59 63 4
f 114 59 4
f 4 63 68
f 68 73 4
f 105 109 4
f 148 105 4
f 4 109 114
f 4 143 148
f 4 179 143
f 423 179 4
f 4 422 423
f 5 454 6
f 13 462 5
f 5 462 454
f 6 455 7
f 6 454 455
f 7 456 8
f 7 455 456
f 8 457 9
f 8 456 457
f 9 458 10
f 9 457 458
f 10 459 11
f 10 458 459
f 11 459 460
f 12 461 13
f 16 494 12
f 12 494 461
f 13 461 462
f 14 492 15
f 18 496 14
f 14 496 492
f 15 493 16
f 15 492 493
f 16 493 494
f 17 495 18
f 20 525 17
f 17 525 495
f 18 495 496
f 19 524 20
f 21 526 19
f 19 526 524
f 20 524 525
f 23 555 21
f 21 555 526
f 22 554 23
f 24 556 22
f 22 556 554
f 23 554 555
f 26 581 24
f 24 581 556
f 25 580 26
f 27 582 25
f 25 582 580
f 26 580 581
f 44 599 27
f 27 599 582
f 32 29 28
f 71 28 29
f 32 28 31
f 31 28 71
f 29 33 30
f 29 30 72
f 32 33 29
f 71 29 72
f 72 30 73
f 34 32 31
f 79 34 31
f 31 71 76
f 79 31 76
f 32 36 33
f 34 35 32
f 35 36 32
f 35 34 37
f 34 82 37
f 34 79 82
f 35 39 36
f 35 37 38
f 38 39 35
f 38 37 40
f 37 85 40
f 37 82 85
f 38 42 39
f 38 40 41
f 41 42 38
f 51 39 42
f 41 40 45
f 40 88 45
f 40 85 88
f 41 51 42
f 41 45 46
f 46 51 41
f 43 598 44
f 47 43 48
f 56 43 47
f 48 43 49
f 49 43 50
f 50 43 51
f 56 52 43
f 52 605 43
f 43 605 598
f 44 598 599
f 46 45 88
f 46 47 48
f 46 92 47
f 46 48 49
f 46 49 50
f 46 50 51
f 46 88 89
f 89 92 46
f 47 92 56
f 53 52 54
f 99 52 53
f 54 52 55
f 55 52 56
f 98 94 52
f 94 625 52
f 98 52 99
f 52 625 605
f 54 99 53
f 55 90 54
f 54 90 99
f 56 91 55
f 55 91 90
f 56 92 91
f 62 58 57
f 58 112 57
f 62 57 61
f 61 57 117
f 57 112 117
f 58 63 59
f 58 59 113
f 62 63 58
f 112 58 113
f 113 59 114
f 66 61 60
f 61 116 60
f 66 60 65
f 65 60 120
f 60 116 120
f 67 62 61
f 67 61 66
f 61 117 116
f 62 68 63
f 67 68 62
f 70 65 64
f 65 119 64
f 70 64 69
f 69 64 119
f 71 66 65
f 71 65 70
f 65 120 119
f 72 67 66
f 72 66 71
f 72 68 67
f 72 73 68
f 69 75 70
f 69 74 75
f 122 74 69
f 69 119 122
f 76 71 70
f 76 70 75
f 77 75 74
f 124 77 74
f 122 124 74
f 78 76 75
f 77 78 75
f 78 79 76
f 78 77 80
f 77 126 80
f 124 126 77
f 79 78 81
f 78 80 81
f 79 81 82
f 81 80 83
f 80 130 83
f 126 128 80
f 80 128 130
f 82 81 84
f 81 83 84
f 82 84 85
f 84 83 86
f 83 132 86
f 83 130 132
f 85 84 87
f 84 86 87
f 85 87 88
f 97 87 86
f 97 86 96
f 96 86 132
f 98 88 87
f 98 87 97
f 89 88 99
f 99 88 98
f 89 90 91
f 99 90 89
f 89 91 92
f 96 93 94
f 93 624 94
f 95 93 96
f 102 93 95
f 102 100 93
f 100 630 93
f 93 630 624
f 96 94 97
f 97 94 98
f 94 624 625
f 96 131 95
f 95 169 102
f 95 131 169
f 132 131 96
f 101 100 102
f 137 100 101
f 137 134 100
f 134 638 100
f 100 638 630
f 102 235 101
f 101 269 137
f 235 274 101
f 101 274 269
f 102 168 166
f 102 166 200
f 102 169 168
f 200 199 102
f 102 199 235
f 108 104 103
f 104 146 103
f 108 103 107
f 107 103 146
f 104 109 105
f 104 105 147
f 108 109 104
f 104 147 146
f 147 105 148
f 111 107 106
f 107 151 106
f 111 106 151
f 112 108 107
f 111 112 107
f 107 146 145
f 107 145 151
f 113 109 108
f 112 113 108
f 113 114 109
f 116 111 110
f 111 150 110
f 116 110 115
f 115 110 153
f 110 150 153
f 117 112 111
f 117 111 116
f 111 151 150
f 120 116 115
f 120 115 119
f 119 115 154
f 115 153 155
f 115 155 154
f 122 119 118
f 119 154 118
f 122 118 121
f 121 118 157
f 118 154 157
f 121 124 122
f 121 123 124
f 123 121 159
f 121 157 159
f 123 126 124
f 123 125 126
f 161 125 123
f 123 159 161
f 126 125 127
f 125 165 127
f 161 163 125
f 125 163 165
f 126 127 128
f 128 127 129
f 127 167 129
f 127 165 167
f 128 129 130
f 130 129 131
f 169 131 129
f 169 129 167
f 130 131 132
f 135 133 134
f 133 637 134
f 139 133 135
f 139 138 133
f 138 642 133
f 133 642 637
f 135 134 136
f 136 134 137
f 134 637 638
f 136 272 135
f 135 271 139
f 135 272 271
f 137 272 136
f 137 269 273
f 137 273 272
f 174 138 139
f 174 171 138
f 171 648 138
f 138 648 642
f 139 313 174
f 139 271 311
f 139 311 313
f 146 141 140
f 141 181 140
f 146 140 145
f 140 181 145
f 147 142 141
f 142 182 141
f 147 141 146
f 141 182 181
f 142 148 143
f 142 143 178
f 147 148 142
f 142 178 183
f 142 183 182
f 178 143 179
f 151 145 144
f 145 185 144
f 151 144 150
f 150 144 185
f 145 181 186
f 145 186 185
f 153 150 149
f 150 187 149
f 153 149 152
f 152 149 187
f 150 185 188
f 150 188 187
f 154 153 152
f 154 152 190
f 152 187 190
f 154 155 153
f 157 154 194
f 192 154 190
f 154 192 194
f 158 157 156
f 156 157 193
f 158 156 193
f 159 157 158
f 193 157 194
f 161 159 158
f 161 158 160
f 160 158 195
f 195 158 193
f 160 163 161
f 160 162 163
f 197 162 160
f 197 160 195
f 163 162 164
f 162 199 164
f 197 198 162
f 162 198 199
f 163 164 165
f 165 164 166
f 200 166 164
f 200 164 199
f 165 166 167
f 166 169 167
f 166 168 169
f 173 170 171
f 170 647 171
f 172 170 173
f 175 170 172
f 175 202 170
f 202 656 170
f 170 656 647
f 173 171 174
f 171 647 648
f 173 651 172
f 172 651 175
f 174 310 173
f 173 310 347
f 173 347 380
f 173 380 377
f 173 377 414
f 173 414 448
f 173 448 649
f 173 649 651
f 174 313 310
f 204 202 175
f 651 204 175
f 181 177 176
f 177 213 176
f 181 176 213
f 182 178 177
f 177 178 210
f 181 182 177
f 177 210 209
f 214 177 209
f 213 177 214
f 178 179 211
f 182 183 178
f 178 211 210
f 211 179 423
f 186 181 180
f 180 181 217
f 186 180 185
f 185 180 219
f 180 217 216
f 180 216 219
f 217 181 213
f 185 184 187
f 185 218 184
f 184 218 187
f 188 185 187
f 185 219 218
f 187 221 190
f 187 218 221
f 191 190 189
f 189 190 222
f 191 189 222
f 191 192 190
f 223 190 221
f 222 190 223
f 193 192 191
f 193 191 224
f 224 191 222
f 193 194 192
f 226 195 193
f 224 226 193
f 195 228 197
f 226 228 195
f 196 197 230
f 196 231 197
f 230 231 196
f 198 197 231
f 197 228 230
f 198 235 199
f 198 231 234
f 198 234 235
f 203 201 202
f 201 655 202
f 207 201 203
f 207 205 201
f 205 659 201
f 201 659 655
f 203 202 204
f 202 655 656
f 204 657 203
f 203 661 207
f 203 657 661
f 658 204 651
f 204 658 657
f 206 205 207
f 238 205 206
f 237 236 205
f 236 666 205
f 237 205 238
f 205 666 659
f 207 660 206
f 206 660 238
f 207 661 660
f 213 209 208
f 208 209 247
f 213 208 246
f 208 247 246
f 209 210 248
f 213 214 209
f 209 248 247
f 210 211 249
f 210 249 248
f 423 249 211
f 216 213 212
f 212 213 251
f 216 212 251
f 216 217 213
f 213 246 252
f 251 213 252
f 219 216 215
f 215 216 254
f 219 215 218
f 218 215 254
f 254 216 251
f 220 221 218
f 220 218 255
f 256 218 254
f 255 218 256
f 222 221 220
f 258 222 220
f 257 220 255
f 258 220 257
f 222 223 221
f 224 222 258
f 226 224 260
f 260 224 258
f 226 225 227
f 225 226 261
f 227 225 261
f 226 227 228
f 226 260 262
f 261 226 262
f 230 228 227
f 227 266 230
f 264 227 261
f 264 266 227
f 233 230 229
f 229 230 266
f 232 233 229
f 229 268 232
f 229 266 265
f 265 268 229
f 230 234 231
f 233 234 230
f 232 234 233
f 232 273 234
f 268 272 232
f 232 272 273
f 235 234 269
f 273 269 234
f 269 274 235
f 237 239 236
f 239 669 236
f 236 669 666
f 238 667 237
f 240 239 237
f 670 240 237
f 237 667 670
f 238 660 668
f 238 668 667
f 278 239 240
f 489 276 239
f 276 677 239
f 277 239 278
f 280 239 277
f 279 239 280
f 317 239 279
f 316 239 317
f 319 239 316
f 349 239 319
f 351 239 349
f 384 239 351
f 383 239 384
f 386 239 383
f 417 239 386
f 419 239 417
f 451 239 419
f 453 239 451
f 489 239 453
f 239 677 669
f 240 679 278
f 670 679 240
f 246 242 241
f 241 242 285
f 246 241 285
f 247 243 242
f 242 243 287
f 246 247 242
f 285 242 286
f 242 287 286
f 248 244 243
f 243 244 288
f 247 248 243
f 243 288 287
f 248 249 244
f 244 249 423
f 423 288 244
f 251 246 245
f 245 246 291
f 251 245 290
f 245 291 290
f 251 252 246
f 246 285 291
f 254 251 250
f 250 251 292
f 254 250 295
f 295 250 292
f 251 290 293
f 292 251 293
f 255 254 253
f 253 254 295
f 255 253 294
f 253 295 294
f 255 256 254
f 296 257 255
f 296 255 294
f 257 298 258
f 298 257 296
f 259 260 258
f 259 258 300
f 258 298 300
f 262 260 259
f 261 262 259
f 261 259 303
f 259 300 299
f 301 259 299
f 303 259 301
f 264 261 303
f 265 264 263
f 263 264 304
f 265 263 304
f 266 264 265
f 264 303 305
f 304 264 305
f 268 265 307
f 265 304 307
f 267 272 268
f 267 268 307
f 267 271 272
f 309 271 267
f 267 307 309
f 270 311 271
f 309 312 271
f 312 311 271
f 489 275 276
f 275 676 276
f 521 315 275
f 315 686 275
f 491 275 489
f 521 275 491
f 275 686 676
f 276 676 677
f 278 678 277
f 277 681 280
f 277 678 681
f 278 679 678
f 280 680 279
f 279 680 317
f 280 681 680
f 286 282 281
f 281 282 322
f 286 281 321
f 281 322 321
f 282 288 283
f 282 283 323
f 286 287 282
f 287 288 282
f 282 323 322
f 423 283 288
f 323 283 423
f 290 285 284
f 284 285 325
f 290 284 324
f 284 325 324
f 285 286 325
f 290 291 285
f 286 321 326
f 325 286 326
f 292 290 289
f 289 290 328
f 292 289 327
f 289 328 327
f 292 293 290
f 328 290 324
f 294 295 292
f 294 292 329
f 292 327 330
f 329 292 330
f 296 294 331
f 294 329 331
f 298 296 333
f 296 331 333
f 299 298 297
f 297 298 334
f 299 297 334
f 299 300 298
f 298 333 335
f 334 298 335
f 301 299 338
f 336 299 334
f 338 299 336
f 303 301 338
f 305 303 302
f 302 303 338
f 304 305 302
f 304 302 340
f 302 338 340
f 306 307 304
f 306 304 341
f 304 340 342
f 341 304 342
f 309 307 306
f 309 306 344
f 306 341 344
f 312 309 308
f 308 309 346
f 311 312 308
f 311 308 346
f 346 309 344
f 310 313 311
f 310 311 346
f 310 346 347
f 523 314 315
f 314 685 315
f 522 318 314
f 318 689 314
f 522 314 523
f 314 689 685
f 523 315 521
f 315 685 686
f 317 687 316
f 316 687 319
f 317 680 688
f 317 688 687
f 552 348 318
f 348 695 318
f 552 318 522
f 318 695 689
f 690 349 319
f 319 687 690
f 325 321 320
f 320 321 356
f 325 320 355
f 320 356 355
f 321 322 357
f 325 326 321
f 321 357 356
f 322 323 358
f 322 358 357
f 423 358 323
f 324 325 361
f 327 328 324
f 327 324 363
f 324 361 360
f 363 324 360
f 361 325 355
f 330 327 363
f 329 330 365
f 331 329 366
f 329 365 364
f 366 329 364
f 330 363 365
f 333 331 366
f 334 333 332
f 332 333 367
f 334 332 367
f 334 335 333
f 333 366 368
f 367 333 368
f 336 334 369
f 369 334 367
f 338 336 371
f 336 369 371
f 340 338 337
f 337 338 371
f 340 337 372
f 337 371 370
f 372 337 370
f 341 340 339
f 339 340 374
f 341 339 373
f 339 374 373
f 341 342 340
f 374 340 372
f 344 341 376
f 376 341 373
f 346 344 343
f 343 344 376
f 346 343 379
f 343 376 375
f 379 343 375
f 347 346 345
f 381 345 346
f 381 347 345
f 379 381 346
f 381 380 347
f 578 350 348
f 350 697 348
f 553 348 552
f 578 348 553
f 348 697 695
f 349 696 351
f 696 349 690
f 577 382 350
f 382 703 350
f 577 350 578
f 350 703 697
f 351 705 384
f 351 696 698
f 351 698 705
f 357 353 352
f 352 353 390
f 352 389 357
f 352 390 389
f 357 358 353
f 423 353 358
f 390 353 423
f 360 355 354
f 391 354 355
f 391 360 354
f 356 392 355
f 360 361 355
f 391 355 392
f 357 388 356
f 356 388 393
f 356 393 392
f 357 389 388
f 363 360 359
f 359 360 395
f 363 359 394
f 359 395 394
f 395 360 391
f 364 363 362
f 362 363 397
f 364 362 396
f 362 397 396
f 364 365 363
f 363 394 397
f 366 364 400
f 364 396 398
f 400 364 398
f 367 368 366
f 367 366 400
f 369 367 401
f 401 367 400
f 371 369 406
f 403 369 401
f 406 369 403
f 370 371 406
f 372 370 405
f 370 406 405
f 373 374 372
f 373 372 407
f 372 405 408
f 407 372 408
f 376 373 410
f 373 407 410
f 375 376 410
f 375 413 379
f 375 410 409
f 375 409 413
f 378 377 380
f 414 377 378
f 379 378 381
f 413 378 379
f 378 380 381
f 413 415 378
f 415 414 378
f 579 385 382
f 385 706 382
f 579 382 577
f 382 706 703
f 384 705 383
f 383 707 386
f 383 705 704
f 383 704 707
f 595 416 385
f 416 710 385
f 595 385 579
f 385 710 706
f 386 707 417
f 393 388 387
f 388 424 387
f 393 387 392
f 387 424 392
f 389 425 388
f 388 425 424
f 389 390 427
f 389 426 425
f 389 427 426
f 423 427 390
f 392 429 391
f 391 429 395
f 392 424 430
f 392 430 429
f 395 431 394
f 394 431 397
f 395 429 432
f 395 432 431
f 397 433 396
f 398 396 436
f 436 396 433
f 397 431 434
f 397 434 433
f 400 398 436
f 401 400 399
f 399 400 438
f 401 399 440
f 399 438 437
f 440 399 437
f 400 436 438
f 403 401 440
f 405 403 402
f 402 403 440
f 405 402 441
f 402 440 441
f 405 406 403
f 407 405 404
f 404 405 443
f 407 404 442
f 404 443 442
f 407 408 405
f 443 405 441
f 410 407 445
f 407 442 445
f 409 410 445
f 409 447 413
f 409 445 444
f 409 444 447
f 412 411 415
f 412 448 411
f 415 411 414
f 411 448 414
f 413 412 415
f 447 412 413
f 447 446 412
f 446 449 412
f 449 448 412
f 597 418 416
f 418 712 416
f 597 416 595
f 416 712 710
f 417 713 419
f 417 707 711
f 711 713 417
f 621 450 418
f 450 717 418
f 621 418 597
f 418 717 712
f 419 718 451
f 419 713 718
f 423 421 420
f 423 420 460
f 422 421 423
f 466 427 423
f 455 454 423
f 423 454 462
f 423 456 455
f 423 457 456
f 458 457 423
f 423 459 458
f 460 459 423
f 462 461 423
f 423 461 494
f 423 501 466
f 493 492 423
f 423 492 496
f 423 494 493
f 496 495 423
f 423 495 525
f 423 531 501
f 525 524 423
f 423 524 526
f 423 526 555
f 561 531 423
f 555 554 423
f 423 554 556
f 556 581 423
f 604 561 423
f 423 581 580
f 423 580 582
f 582 599 423
f 423 599 598
f 598 604 423
f 425 463 424
f 430 424 463
f 426 464 425
f 425 464 463
f 426 427 466
f 426 465 464
f 426 466 465
f 429 428 431
f 428 429 468
f 431 428 467
f 428 468 467
f 429 430 469
f 432 429 431
f 429 469 468
f 430 463 469
f 434 431 471
f 431 467 471
f 433 434 473
f 433 472 436
f 472 433 473
f 471 473 434
f 437 436 435
f 474 435 436
f 437 435 474
f 437 438 436
f 475 436 472
f 474 436 475
f 440 437 477
f 477 437 474
f 441 440 439
f 439 440 478
f 441 439 481
f 481 439 478
f 479 440 477
f 478 440 479
f 442 443 441
f 442 441 481
f 445 442 483
f 442 481 480
f 483 442 480
f 444 445 483
f 444 485 447
f 444 483 482
f 444 482 485
f 485 446 447
f 446 487 449
f 485 484 446
f 484 487 446
f 449 486 448
f 649 448 486
f 487 486 449
f 621 452 450
f 452 719 450
f 450 719 717
f 451 720 453
f 451 718 720
f 634 488 452
f 488 726 452
f 623 452 621
f 634 452 623
f 452 726 719
f 453 720 489
f 464 498 463
f 469 463 468
f 463 497 468
f 463 498 497
f 465 499 464
f 464 499 498
f 465 466 501
f 465 500 499
f 465 501 500
f 468 502 467
f 467 505 471
f 467 502 505
f 468 497 503
f 468 503 502
f 471 470 472
f 505 470 471
f 472 470 504
f 505 504 470
f 472 473 471
f 472 506 475
f 472 504 506
f 475 508 474
f 477 474 507
f 508 507 474
f 475 506 508
f 478 477 476
f 476 477 509
f 478 476 509
f 478 479 477
f 477 507 510
f 509 477 510
f 480 481 478
f 480 478 512
f 512 478 509
f 483 480 514
f 480 512 511
f 514 480 511
f 482 483 514
f 485 482 517
f 482 514 517
f 517 484 485
f 484 486 487
f 484 518 486
f 517 519 484
f 519 518 484
f 649 486 518
f 634 490 488
f 490 728 488
f 488 728 726
f 489 727 491
f 489 720 727
f 645 520 490
f 520 730 490
f 636 490 634
f 645 490 636
f 490 730 728
f 731 521 491
f 491 727 729
f 491 729 731
f 498 527 497
f 497 533 503
f 497 527 533
f 499 528 498
f 498 528 527
f 500 529 499
f 499 529 528
f 500 501 531
f 500 530 529
f 500 531 530
f 503 532 502
f 502 535 505
f 502 532 535
f 503 533 532
f 535 504 505
f 506 504 534
f 535 534 504
f 536 508 506
f 506 534 536
f 539 507 508
f 507 538 510
f 543 538 507
f 543 507 539
f 536 539 508
f 510 538 509
f 512 509 541
f 538 537 509
f 509 537 541
f 511 512 545
f 514 511 548
f 548 511 545
f 545 512 541
f 514 513 517
f 513 514 547
f 513 547 517
f 547 514 548
f 516 515 518
f 516 549 515
f 649 518 515
f 649 515 549
f 517 516 519
f 547 516 517
f 516 518 519
f 547 550 516
f 550 549 516
f 645 551 520
f 551 732 520
f 520 732 730
f 521 734 523
f 731 734 521
f 523 733 522
f 522 733 552
f 523 734 733
f 528 557 527
f 527 563 533
f 527 557 563
f 529 558 528
f 528 558 557
f 530 559 529
f 529 559 558
f 530 531 561
f 530 560 559
f 530 561 560
f 533 562 532
f 532 565 535
f 532 562 565
f 533 563 562
f 565 534 535
f 536 534 564
f 565 564 534
f 566 539 536
f 536 564 566
f 543 537 538
f 541 537 542
f 543 542 537
f 539 570 543
f 566 567 539
f 539 567 570
f 545 541 540
f 540 541 569
f 568 545 540
f 568 540 573
f 573 540 569
f 641 541 542
f 640 569 541
f 640 541 641
f 631 542 543
f 641 542 631
f 543 570 631
f 547 545 544
f 544 545 572
f 544 572 547
f 547 548 545
f 573 545 568
f 573 572 545
f 547 546 550
f 546 547 574
f 649 550 546
f 546 574 649
f 574 547 572
f 649 549 550
f 653 576 551
f 576 739 551
f 646 551 645
f 653 551 646
f 551 735 732
f 551 739 735
f 552 737 553
f 552 733 736
f 552 736 737
f 553 737 578
f 558 583 557
f 557 589 563
f 557 583 589
f 559 584 558
f 558 584 583
f 560 585 559
f 559 585 584
f 560 561 587
f 560 586 585
f 560 587 586
f 604 587 561
f 563 588 562
f 562 592 565
f 562 588 592
f 563 589 588
f 592 564 565
f 566 564 593
f 592 591 564
f 564 591 593
f 567 566 632
f 632 566 593
f 631 570 567
f 631 567 632
f 639 573 569
f 639 569 640
f 574 572 571
f 572 643 571
f 650 574 571
f 571 643 650
f 643 572 573
f 643 573 639
f 649 574 650
f 654 575 576
f 575 738 576
f 663 594 575
f 594 743 575
f 663 575 654
f 575 743 738
f 654 576 653
f 576 738 739
f 578 740 577
f 577 740 579
f 578 737 741
f 578 741 740
f 744 595 579
f 579 740 742
f 579 742 744
f 584 589 583
f 585 606 584
f 584 590 589
f 584 618 590
f 584 606 618
f 586 607 585
f 585 607 606
f 586 587 608
f 586 608 607
f 615 587 604
f 608 587 615
f 616 588 589
f 619 592 588
f 619 588 616
f 590 617 589
f 616 589 617
f 590 618 617
f 632 591 592
f 593 591 632
f 626 592 619
f 632 592 626
f 663 596 594
f 596 745 594
f 594 745 743
f 595 746 597
f 744 746 595
f 673 620 596
f 620 747 596
f 665 596 663
f 673 596 665
f 596 747 745
f 597 748 621
f 597 746 748
f 600 601 598
f 598 611 600
f 598 601 602
f 598 602 603
f 598 603 604
f 605 611 598
f 600 611 601
f 601 612 602
f 601 611 612
f 602 613 603
f 602 612 613
f 603 614 604
f 603 613 614
f 604 614 615
f 605 608 609
f 605 629 608
f 609 610 605
f 610 611 605
f 625 629 605
f 606 607 628
f 628 618 606
f 629 607 608
f 628 607 629
f 608 610 609
f 608 611 610
f 608 612 611
f 608 613 612
f 608 614 613
f 608 615 614
f 616 617 627
f 619 616 626
f 626 616 627
f 627 617 618
f 627 618 628
f 673 622 620
f 622 749 620
f 620 749 747
f 621 750 623
f 621 748 750
f 672 633 622
f 633 751 622
f 672 622 673
f 622 751 749
f 623 750 634
f 624 627 625
f 626 627 624
f 624 632 626
f 630 632 624
f 625 627 628
f 625 628 629
f 631 632 630
f 630 641 631
f 638 641 630
f 675 635 633
f 635 753 633
f 675 633 672
f 633 753 751
f 634 754 636
f 634 750 752
f 634 752 754
f 683 644 635
f 644 755 635
f 683 635 675
f 635 755 753
f 636 754 645
f 637 639 638
f 637 643 639
f 642 643 637
f 638 639 640
f 640 641 638
f 642 650 643
f 648 650 642
f 684 652 644
f 652 758 644
f 684 644 683
f 644 758 755
f 645 757 646
f 645 754 756
f 756 757 645
f 646 759 653
f 646 757 759
f 647 649 648
f 651 649 647
f 656 651 647
f 649 650 648
f 658 651 656
f 692 662 652
f 662 761 652
f 692 652 684
f 652 761 758
f 653 760 654
f 653 759 760
f 654 762 663
f 654 760 762
f 655 657 656
f 655 661 657
f 659 661 655
f 656 657 658
f 660 661 659
f 659 668 660
f 666 667 659
f 659 667 668
f 694 664 662
f 664 763 662
f 694 662 692
f 662 763 761
f 663 764 665
f 663 762 764
f 700 671 664
f 671 765 664
f 700 664 694
f 664 765 763
f 665 767 673
f 665 764 767
f 669 667 666
f 670 667 669
f 669 679 670
f 677 727 669
f 678 679 669
f 669 681 678
f 680 681 669
f 669 688 680
f 687 688 669
f 669 690 687
f 696 690 669
f 698 696 669
f 669 705 698
f 704 705 669
f 669 707 704
f 711 707 669
f 713 711 669
f 669 718 713
f 669 720 718
f 669 727 720
f 700 674 671
f 674 768 671
f 671 768 765
f 766 672 673
f 766 675 672
f 673 767 766
f 709 682 674
f 682 770 674
f 702 674 700
f 709 674 702
f 674 770 768
f 675 771 683
f 769 675 766
f 769 771 675
f 676 727 677
f 686 731 676
f 676 729 727
f 676 731 729
f 709 691 682
f 691 773 682
f 682 773 770
f 683 771 684
f 684 774 692
f 684 771 772
f 684 772 774
f 685 734 686
f 689 733 685
f 685 733 734
f 686 734 731
f 695 736 689
f 689 736 733
f 709 693 691
f 693 775 691
f 691 775 773
f 692 774 694
f 715 699 693
f 699 777 693
f 715 693 709
f 693 777 775
f 778 700 694
f 694 774 776
f 694 776 778
f 697 741 695
f 695 737 736
f 695 741 737
f 703 740 697
f 697 740 741
f 715 701 699
f 701 779 699
f 699 779 777
f 700 778 702
f 715 708 701
f 708 781 701
f 701 781 779
f 782 709 702
f 702 778 780
f 702 780 782
f 706 742 703
f 703 742 740
f 710 744 706
f 706 744 742
f 716 714 708
f 714 784 708
f 716 708 715
f 708 784 781
f 709 783 715
f 782 783 709
f 712 746 710
f 710 746 744
f 717 748 712
f 712 748 746
f 722 714 716
f 722 721 714
f 721 788 714
f 714 786 784
f 714 788 786
f 715 787 716
f 715 783 785
f 715 785 787
f 716 787 722
f 719 748 717
f 726 752 719
f 719 750 748
f 719 752 750
f 724 721 722
f 723 721 724
f 723 790 721
f 721 790 788
f 789 724 722
f 722 787 789
f 723 724 725
f 723 725 795
f 793 790 723
f 723 795 793
f 792 725 724
f 791 724 789
f 792 724 791
f 829 725 792
f 829 795 725
f 728 752 726
f 730 756 728
f 728 754 752
f 728 756 754
f 732 756 730
f 735 757 732
f 732 757 756
f 739 759 735
f 735 759 757
f 738 760 739
f 743 762 738
f 738 762 760
f 739 760 759
f 745 762 743
f 747 767 745
f 745 764 762
f 745 767 764
f 749 767 747
f 751 766 749
f 749 766 767
f 753 769 751
f 751 769 766
f 755 771 753
f 753 771 769
f 758 772 755
f 755 772 771
f 761 774 758
f 758 774 772
f 763 776 761
f 761 776 774
f 765 778 763
f 763 778 776
f 768 778 765
f 770 782 768
f 768 780 778
f 768 782 780
f 773 782 770
f 775 783 773
f 773 783 782
f 777 783 775
f 779 785 777
f 777 785 783
f 781 785 779
f 784 787 781
f 781 787 785
f 786 789 784
f 784 789 787
f 788 789 786
f 788 791 789
f 790 791 788
f 792 791 790
f 792 790 829
f 827 790 793
f 829 790 827
f 793 795 794
f 793 794 796
f 832 793 796
f 827 793 832
f 794 795 828
f 796 794 797
f 828 797 794
f 828 795 829
f 796 797 798
f 837 796 798
f 832 796 837
f 798 797 799
f 833 799 797
f 833 797 828
f 798 799 801
f 842 798 801
f 837 798 842
f 801 799 800
f 838 800 799
f 838 799 833
f 801 800 803
f 803 800 802
f 841 802 800
f 841 800 838
f 846 801 803
f 842 801 846
f 803 802 805
f 807 802 804
f 845 804 802
f 805 802 807
f 845 802 841
f 850 803 805
f 846 803 850
f 809 804 806
f 849 806 804
f 807 804 809
f 849 804 845
f 854 805 807
f 850 805 854
f 811 806 808
f 853 808 806
f 809 806 811
f 853 806 849
f 860 807 809
f 854 807 860
f 813 808 810
f 857 810 808
f 811 808 813
f 857 808 853
f 864 809 811
f 860 809 864
f 817 810 812
f 861 812 810
f 813 810 815
f 815 810 817
f 861 810 857
f 868 811 813
f 864 811 868
f 819 812 814
f 865 814 812
f 817 812 819
f 865 812 861
f 873 813 815
f 868 813 873
f 821 814 816
f 869 816 814
f 819 814 821
f 869 814 865
f 877 815 817
f 873 815 877
f 823 816 818
f 874 818 816
f 821 816 823
f 874 816 869
f 881 817 819
f 877 817 881
f 825 818 820
f 878 820 818
f 823 818 825
f 878 818 874
f 885 819 821
f 881 819 885
f 834 820 822
f 882 822 820
f 825 820 830
f 830 820 834
f 882 820 878
f 889 821 823
f 885 821 889
f 839 822 824
f 886 824 822
f 834 822 839
f 886 822 882
f 894 823 825
f 889 823 894
f 843 824 826
f 890 826 824
f 839 824 843
f 890 824 886
f 898 825 830
f 894 825 898
f 848 826 831
f 895 831 826
f 843 826 848
f 895 826 890
f 829 827 828
f 828 827 832
f 828 832 833
f 903 830 834
f 898 830 903
f 852 831 835
f 899 835 831
f 848 831 852
f 899 831 895
f 833 832 837
f 833 837 838
f 907 834 839
f 903 834 907
f 856 835 836
f 900 836 835
f 852 835 856
f 900 835 899
f 859 836 840
f 904 840 836
f 856 836 859
f 904 836 900
f 838 837 842
f 838 842 841
f 912 839 843
f 907 839 912
f 863 840 844
f 908 844 840
f 859 840 863
f 908 840 904
f 841 842 846
f 841 846 845
f 917 843 848
f 912 843 917
f 867 844 847
f 913 847 844
f 863 844 867
f 913 844 908
f 845 846 850
f 845 854 849
f 845 850 854
f 871 847 851
f 918 851 847
f 867 847 871
f 918 847 913
f 922 848 852
f 917 848 922
f 849 860 853
f 849 854 860
f 875 851 855
f 921 855 851
f 871 851 875
f 921 851 918
f 927 852 856
f 922 852 927
f 853 864 857
f 853 860 864
f 880 855 858
f 926 858 855
f 875 855 880
f 926 855 921
f 931 856 859
f 927 856 931
f 857 868 861
f 857 864 868
f 883 858 862
f 930 862 858
f 880 858 883
f 930 858 926
f 936 859 863
f 931 859 936
f 861 877 865
f 861 868 873
f 861 873 877
f 887 862 866
f 935 866 862
f 883 862 887
f 935 862 930
f 941 863 867
f 936 863 941
f 865 881 869
f 865 877 881
f 891 866 870
f 940 870 866
f 887 866 891
f 940 866 935
f 946 867 871
f 941 867 946
f 869 885 874
f 869 881 885
f 896 870 872
f 945 872 870
f 891 870 896
f 945 870 940
f 950 871 875
f 946 871 950
f 901 872 876
f 947 876 872
f 896 872 901
f 947 872 945
f 874 889 878
f 874 885 889
f 956 875 880
f 950 875 956
f 905 876 879
f 951 879 876
f 901 876 905
f 951 876 947
f 878 894 882
f 878 889 894
f 909 879 884
f 955 884 879
f 905 879 909
f 955 879 951
f 961 880 883
f 956 880 961
f 882 903 886
f 882 894 898
f 882 898 903
f 966 883 887
f 961 883 966
f 914 884 888
f 962 888 884
f 909 884 914
f 962 884 955
f 886 907 890
f 886 903 907
f 971 887 891
f 966 887 971
f 916 888 892
f 967 892 888
f 914 888 916
f 967 888 962
f 890 912 895
f 890 907 912
f 978 891 896
f 971 891 978
f 920 892 893
f 972 893 892
f 916 892 920
f 972 892 967
f 923 893 897
f 973 897 893
f 920 893 923
f 973 893 972
f 895 917 899
f 895 912 917
f 984 896 901
f 978 896 984
f 928 897 902
f 979 902 897
f 923 897 928
f 979 897 973
f 899 922 900
f 899 917 922
f 900 927 904
f 900 922 927
f 989 901 905
f 984 901 989
f 932 902 906
f 985 906 902
f 928 902 932
f 985 902 979
f 904 931 908
f 904 927 931
f 996 905 909
f 989 905 996
f 937 906 910
f 990 910 906
f 932 906 937
f 990 906 985
f 908 936 913
f 908 931 936
f 1003 909 914
f 996 909 1003
f 939 910 911
f 997 911 910
f 937 910 939
f 997 910 990
f 943 911 915
f 998 915 911
f 939 911 943
f 998 911 997
f 913 941 918
f 913 936 941
f 1005 914 916
f 1003 914 1005
f 948 915 919
f 1004 919 915
f 943 915 948
f 1004 915 998
f 1013 916 920
f 1005 916 1013
f 918 946 921
f 918 941 946
f 952 919 924
f 1012 924 919
f 948 919 952
f 1012 919 1004
f 1020 920 923
f 1013 920 1020
f 921 950 926
f 921 946 950
f 1033 923 928
f 1020 923 1033
f 957 924 925
f 1021 925 924
f 952 924 957
f 1021 924 1012
f 959 925 929
f 1022 929 925
f 957 925 959
f 1022 925 1021
f 926 956 930
f 926 950 956
f 1041 928 932
f 1033 928 1041
f 959 929 933
f 1034 933 929
f 1034 929 1022
f 930 961 935
f 930 956 961
f 1047 932 937
f 1041 932 1047
f 963 933 934
f 1042 934 933
f 959 933 963
f 1042 933 1034
f 968 934 938
f 1043 938 934
f 963 934 968
f 1043 934 1042
f 935 966 940
f 935 961 966
f 1049 937 939
f 1047 937 1049
f 970 938 942
f 1048 942 938
f 968 938 970
f 1048 938 1043
f 1053 939 943
f 1049 939 1053
f 940 971 945
f 940 966 971
f 974 942 944
f 1052 944 942
f 970 942 974
f 1052 942 1048
f 1059 943 948
f 1053 943 1059
f 980 944 949
f 1054 949 944
f 974 944 980
f 1054 944 1052
f 945 978 947
f 945 971 978
f 947 984 951
f 947 978 984
f 1066 948 952
f 1059 948 1066
f 982 949 953
f 1060 953 949
f 980 949 982
f 1060 949 1054
f 951 989 955
f 951 984 989
f 1068 952 957
f 1066 952 1068
f 986 953 954
f 1067 954 953
f 982 953 986
f 1067 953 1060
f 991 954 958
f 1069 958 954
f 986 954 991
f 1069 954 1067
f 955 996 962
f 955 989 996
f 1080 957 959
f 1068 957 1080
f 992 958 960
f 1079 960 958
f 991 958 992
f 1079 958 1069
f 1082 959 963
f 1080 959 1082
f 999 960 964
f 1081 964 960
f 992 960 999
f 1081 960 1079
f 962 1003 967
f 962 996 1003
f 1085 963 968
f 1082 963 1085
f 1002 964 965
f 1083 965 964
f 999 964 1002
f 1083 964 1081
f 1006 965 969
f 1084 969 965
f 1002 965 1006
f 1084 965 1083
f 967 1005 972
f 967 1003 1005
f 1087 968 970
f 1085 968 1087
f 1010 969 975
f 1086 975 969
f 1006 969 1010
f 1086 969 1084
f 1089 970 974
f 1087 970 1089
f 972 1013 973
f 972 1005 1013
f 973 1020 979
f 973 1013 1020
f 1092 974 980
f 1089 974 1092
f 1014 975 976
f 1088 976 975
f 1010 975 1014
f 1088 975 1086
f 1014 976 977
f 1090 977 976
f 1090 976 1088
f 1018 977 981
f 1091 981 977
f 1014 977 1018
f 1091 977 1090
f 979 1033 985
f 979 1020 1033
f 1094 980 982
f 1092 980 1094
f 1023 981 983
f 1093 983 981
f 1018 981 1023
f 1093 981 1091
f 1096 982 986
f 1094 982 1096
f 1029 983 987
f 1095 987 983
f 1023 983 1029
f 1095 983 1093
f 985 1041 990
f 985 1033 1041
f 1099 986 991
f 1096 986 1099
f 1035 987 988
f 1097 988 987
f 1029 987 1035
f 1097 987 1095
f 1040 988 993
f 1098 993 988
f 1035 988 1040
f 1098 988 1097
f 990 1047 997
f 990 1041 1047
f 1102 991 992
f 1099 991 1102
f 1104 992 999
f 1102 992 1104
f 1044 993 994
f 1100 994 993
f 1040 993 1044
f 1100 993 1098
f 1045 994 995
f 1101 995 994
f 1044 994 1045
f 1101 994 1100
f 1046 995 1000
f 1103 1000 995
f 1045 995 1046
f 1103 995 1101
f 997 1049 998
f 997 1047 1049
f 998 1053 1004
f 998 1049 1053
f 1107 999 1002
f 1104 999 1107
f 1050 1000 1001
f 1105 1001 1000
f 1046 1000 1050
f 1105 1000 1103
f 1051 1001 1007
f 1106 1007 1001
f 1050 1001 1051
f 1106 1001 1105
f 1109 1002 1006
f 1107 1002 1109
f 1004 1059 1012
f 1004 1053 1059
f 1112 1006 1010
f 1109 1006 1112
f 1055 1007 1008
f 1108 1008 1007
f 1051 1007 1055
f 1108 1007 1106
f 1056 1008 1009
f 1110 1009 1008
f 1055 1008 1056
f 1110 1008 1108
f 1057 1009 1011
f 1111 1011 1009
f 1056 1009 1057
f 1111 1009 1110
f 1114 1010 1014
f 1112 1010 1114
f 1058 1011 1015
f 1113 1015 1011
f 1057 1011 1058
f 1113 1011 1111
f 1012 1066 1021
f 1012 1059 1066
f 1118 1014 1018
f 1114 1014 1118
f 1058 1015 1016
f 1115 1016 1015
f 1115 1015 1113
f 1061 1016 1017
f 1116 1017 1016
f 1058 1016 1061
f 1116 1016 1115
f 1062 1017 1019
f 1117 1019 1017
f 1061 1017 1062
f 1117 1017 1116
f 1120 1018 1023
f 1118 1018 1120
f 1063 1019 1024
f 1119 1024 1019
f 1062 1019 1063
f 1119 1019 1117
f 1021 1068 1022
f 1021 1066 1068
f 1022 1080 1034
f 1022 1068 1080
f 1126 1023 1029
f 1120 1023 1126
f 1064 1024 1025
f 1121 1025 1024
f 1063 1024 1064
f 1121 1024 1119
f 1065 1025 1026
f 1122 1026 1025
f 1064 1025 1065
f 1122 1025 1121
f 1070 1026 1027
f 1123 1027 1026
f 1065 1026 1070
f 1123 1026 1122
f 1071 1027 1028
f 1124 1028 1027
f 1070 1027 1071
f 1124 1027 1123
f 1072 1028 1030
f 1125 1030 1028
f 1071 1028 1072
f 1125 1028 1124
f 1131 1029 1035
f 1126 1029 1131
f 1073 1030 1031
f 1127 1031 1030
f 1072 1030 1073
f 1127 1030 1125
f 1074 1031 1032
f 1128 1032 1031
f 1073 1031 1074
f 1128 1031 1127
f 1075 1032 1036
f 1129 1036 1032
f 1074 1032 1075
f 1129 1032 1128
f 1034 1080 1042
f 1135 1035 1040
f 1131 1035 1135
f 1076 1036 1037
f 1130 1037 1036
f 1075 1036 1076
f 1130 1036 1129
f 1077 1037 1038
f 1132 1038 1037
f 1076 1037 1077
f 1132 1037 1130
f 1078 1038 1039
f 1133 1039 1038
f 1077 1038 1078
f 1133 1038 1132
f 1078 1039 1158
f 1134 1039 1133
f 1158 1039 1134
f 1136 1040 1044
f 1135 1040 1136
f 1042 1082 1043
f 1042 1080 1082
f 1043 1085 1048
f 1043 1082 1085
f 1137 1044 1045
f 1136 1044 1137
f 1138 1045 1046
f 1137 1045 1138
f 1139 1046 1050
f 1138 1046 1139
f 1048 1087 1052
f 1048 1085 1087
f 1140 1050 1051
f 1139 1050 1140
f 1141 1051 1055
f 1140 1051 1141
f 1052 1089 1054
f 1052 1087 1089
f 1054 1092 1060
f 1054 1089 1092
f 1142 1055 1056
f 1141 1055 1142
f 1143 1056 1057
f 1142 1056 1143
f 1144 1057 1058
f 1143 1057 1144
f 1145 1058 1061
f 1144 1058 1145
f 1060 1094 1067
f 1060 1092 1094
f 1146 1061 1062
f 1145 1061 1146
f 1147 1062 1063
f 1146 1062 1147
f 1148 1063 1064
f 1147 1063 1148
f 1149 1064 1065
f 1148 1064 1149
f 1150 1065 1070
f 1149 1065 1150
f 1067 1096 1069
f 1067 1094 1096
f 1069 1099 1079
f 1069 1096 1099
f 1151 1070 1071
f 1150 1070 1151
f 1152 1071 1072
f 1151 1071 1152
f 1153 1072 1073
f 1152 1072 1153
f 1154 1073 1074
f 1153 1073 1154
f 1155 1074 1075
f 1154 1074 1155
f 1156 1075 1076
f 1155 1075 1156
f 1157 1076 1077
f 1156 1076 1157
f 1158 1077 1078
f 1157 1077 1158
f 1079 1102 1081
f 1079 1099 1102
f 1081 1104 1083
f 1081 1102 1104
f 1083 1107 1084
f 1083 1104 1107
f 1084 1109 1086
f 1084 1107 1109
f 1086 1112 1088
f 1086 1109 1112
f 1088 1114 1090
f 1088 1112 1114
f 1090 1114 1091
f 1091 1118 1093
f 1091 1114 1118
f 1093 1120 1095
f 1093 1118 1120
f 1095 1126 1097
f 1095 1120 1126
f 1097 1131 1098
f 1097 1126 1131
f 1098 1135 1100
f 1098 1131 1135
f 1100 1136 1101
f 1100 1135 1136
f 1101 1137 1103
f 1101 1136 1137
f 1103 1138 1105
f 1103 1137 1138
f 1105 1139 1106
f 1105 1138 1139
f 1106 1140 1108
f 1106 1139 1140
f 1108 1141 1110
f 1108 1140 1141
f 1110 1142 1111
f 1110 1141 1142
f 1111 1143 1113
f 1111 1142 1143
f 1113 1144 1115
f 1113 1143 1144
f 1115 1144 1116
f 1116 1145 1117
f 1116 1144 1145
f 1117 1146 1119
f 1117 1145 1146
f 1119 1147 1121
f 1119 1146 1147
f 1121 1148 1122
f 1121 1147 1148
f 1122 1149 1123
f 1122 1148 1149
f 1123 1150 1124
f 1123 1149 1150
f 1124 1151 1125
f 1124 1150 1151
f 1125 1152 1127
f 1125 1151 1152
f 1127 1153 1128
f 1127 1152 1153
f 1128 1154 1129
f 1128 1153 1154
f 1129 1155 1130
f 1129 1154 1155
f 1130 1156 1132
f 1130 1155 1156
f 1132 1157 1133
f 1132 1156 1157
f 1133 1158 1134
f 1133 1157 1158
