v -0.003 -1.90734863e-09 -0.00600000024
v -0.003 -1.90734863e-09 0.0229999995
v -0.00276151466 -0.00117219162 -0.00600000024
v -0.00276151466 -0.00117219162 0.0229999995
v -0.00283655453 -0.00097670269 -0.00600000024
v -0.00283655453 -0.00097670269 0.0229999995
v -0.00291088867 -0.000725767136 -0.00600000024
v -0.00291088867 -0.000725767136 0.0229999995
v -0.00296306419 -0.000469305038 -0.00600000024
v -0.00296306419 -0.000469305038 0.0229999995
v -0.00299269009 -0.000209271431 -0.00600000024
v -0.00299269009 -0.000209271431 0.0229999995
v -0.00299954224 5.2359581e-05 -0.00600000024
v -0.00299954224 5.2359581e-05 0.0229999995
v -0.00298858452 0.00026146698 -0.00600000024
v -0.00298858452 0.00026146698 0.0229999995
v -0.0029544239 0.000520942688 -0.00600000024
v -0.0029544239 0.000520942688 0.0229999995
v -0.00289777565 0.000776455879 -0.00600000024
v -0.00289777565 0.000776455879 0.0229999995
v -0.00281907845 0.00102606106 -0.00600000024
v -0.00281907845 0.00102606106 0.0229999995
v -0.00251601028 -0.00163391781 -0.00600000024
v -0.00251601028 -0.00163391781 0.0229999995
v -0.00259807396 -0.00149999809 -0.00600000024
v -0.00259807396 -0.00149999809 0.0229999995
v -0.00274063873 -0.00122020912 -0.00600000024
v -0.00274063873 -0.00122020912 0.0229999995
v -0.00274063873 0.00122021008 -0.00600000024
v -0.00274063873 0.00122021008 0.0229999995
v -0.00271892357 0.00126785564 -0.00600000024
v -0.00271892357 0.00126785564 0.0229999995
v -0.00257149982 0.00154511261 -0.00600000024
v -0.00257149982 0.00154511261 0.0229999995
v -0.00226413059 -0.00196817589 -0.00600000024
v -0.00226413059 -0.00196817589 0.0229999995
v -0.00245745468 -0.00172073078 -0.00600000024
v -0.00245745468 -0.00172073078 0.0229999995
v -0.00248711395 0.00167757797 -0.00600000024
v -0.00248711395 0.00167757797 0.0229999995
v -0.00242705154 0.00176335621 -0.00600000024
v -0.00242705154 0.00176335621 0.0229999995
v -0.00200739193 -0.00222943497 -0.00600000024
v -0.00200739193 -0.00222943497 0.0229999995
v -0.00212132263 0.00212132263 -0.00600000024
v -0.00212132263 0.00212132263 0.0229999995
v -0.00176335621 -0.00242705059 -0.00600000024
v -0.00176335621 -0.00242705059 0.0229999995
v -0.00196817684 0.00226413059 -0.00600000024
v -0.00196817684 0.00226413059 0.0229999995
v -0.00154511261 -0.00257150364 -0.00600000024
v -0.00154511261 -0.00257150364 0.0229999995
v -0.00167757797 -0.002487113 -0.00600000024
v -0.00167757797 -0.002487113 0.0229999995
v -0.00172072697 0.00245745468 -0.00600000024
v -0.00172072697 0.00245745468 0.0229999995
v -0.00163391876 0.00251601028 -0.00600000024
v -0.00163391876 0.00251601028 0.0229999995
v -0.00126785564 -0.00271892262 -0.00600000024
v -0.00126785564 -0.00271892262 0.0229999995
v -0.00149999905 0.00259807396 -0.00600000024
v -0.00149999905 0.00259807396 0.0229999995
v -0.00102606106 -0.00281907749 -0.00600000024
v -0.00102606106 -0.00281907749 0.0229999995
v -0.00122021008 -0.00274063778 -0.00600000024
v -0.00122021008 -0.00274063778 0.0229999995
v -0.00122021008 0.00274063873 -0.00600000024
v -0.00122021008 0.00274063873 0.0229999995
v -0.00117219257 0.00276151466 -0.00600000024
v -0.00117219257 0.00276151466 0.0229999995
v -0.000776455879 -0.00289777946 -0.00600000024
v -0.000776455879 -0.00289777946 0.0229999995
v -0.000976703644 0.00283655453 -0.00600000024
v -0.000976703644 0.00283655453 0.0229999995
v -0.000520942688 -0.00295442295 -0.00600000024
v -0.000520942688 -0.00295442295 0.0229999995
v -0.000725763321 0.00291088867 -0.00600000024
v -0.000725763321 0.00291088867 0.0229999995
v -0.00026146698 -0.00298858356 -0.00600000024
v -0.00026146698 -0.00298858356 0.0229999995
v -0.000469301224 0.00296306419 -0.00600000024
v -0.000469301224 0.00296306419 0.0229999995
v -5.2359581e-05 -0.00299954128 -0.00600000024
v -5.2359581e-05 -0.00299954128 0.0229999995
v -0.000209267616 0.00299269009 -0.00600000024
v -0.000209267616 0.00299269009 0.0229999995
v 0.000209271431 -0.0029926939 -0.00600000024
v 0.000209271431 -0.0029926939 0.0229999995
v 5.23586273e-05 0.00299954224 -0.00600000024
v 5.23586273e-05 0.00299954224 0.0229999995
v 1.90734863e-09 0.003 -0.00600000024
v 1.90734863e-09 0.003 0.0229999995
v 0.000469305038 -0.00296306324 -0.00600000024
v 0.000469305038 -0.00296306324 0.0229999995
v 0.000261466026 0.00298858452 -0.00600000024
v 0.000261466026 0.00298858452 0.0229999995
v 0.000725767136 -0.00291088772 -0.00600000024
v 0.000725767136 -0.00291088772 0.0229999995
v 0.000520946503 0.0029544239 -0.00600000024
v 0.000520946503 0.0029544239 0.0229999995
v 0.00097670269 -0.00283655357 -0.00600000024
v 0.00097670269 -0.00283655357 0.0229999995
v 0.000776454926 0.00289777565 -0.00600000024
v 0.000776454926 0.00289777565 0.0229999995
v 0.00117219162 -0.00276151371 -0.00600000024
v 0.00117219162 -0.00276151371 0.0229999995
v 0.00122020912 -0.00274063778 -0.00600000024
v 0.00122020912 -0.00274063778 0.0229999995
v 0.00122020912 0.00274063873 -0.00600000024
v 0.00122020912 0.00274063873 0.0229999995
v 0.0010260601 0.00281907845 -0.00600000024
v 0.0010260601 0.00281907845 0.0229999995
v 0.00149999809 -0.00259807777 -0.00600000024
v 0.00149999809 -0.00259807777 0.0229999995
v 0.00126785469 0.00271892357 -0.00600000024
v 0.00126785469 0.00271892357 0.0229999995
v 0.00163391781 -0.00251600933 -0.00600000024
v 0.00163391781 -0.00251600933 0.0229999995
v 0.00172073078 -0.0024574585 -0.00600000024
v 0.00172073078 -0.0024574585 0.0229999995
v 0.00167757702 0.00248711395 -0.00600000024
v 0.00167757702 0.00248711395 0.0229999995
v 0.00154511642 0.00257149982 -0.00600000024
v 0.00154511642 0.00257149982 0.0229999995
v 0.00196817589 -0.00226412964 -0.00600000024
v 0.00196817589 -0.00226412964 0.0229999995
v 0.00176335526 0.00242705154 -0.00600000024
v 0.00176335526 0.00242705154 0.0229999995
v 0.00222943497 -0.00200739098 -0.00600000024
v 0.00222943497 -0.00200739098 0.0229999995
v 0.00200739098 0.00222943592 -0.00600000024
v 0.00200739098 0.00222943592 0.0229999995
v 0.00242705059 -0.00176335526 -0.00600000024
v 0.00242705059 -0.00176335526 0.0229999995
v 0.002487113 -0.00167757702 -0.00600000024
v 0.002487113 -0.00167757702 0.0229999995
v 0.0024574585 0.00172072697 -0.00600000024
v 0.0024574585 0.00172072697 0.0229999995
v 0.00226412964 0.00196817684 -0.00600000024
v 0.00226412964 0.00196817684 0.0229999995
v 0.00257150364 -0.00154511642 -0.00600000024
v 0.00257150364 -0.00154511642 0.0229999995
v 0.00271892262 -0.00126785469 -0.00600000024
v 0.00271892262 -0.00126785469 0.0229999995
v 0.00274063778 -0.00122020912 -0.00600000024
v 0.00274063778 -0.00122020912 0.0229999995
v 0.00274063778 0.00122021008 -0.00600000024
v 0.00274063778 0.00122021008 0.0229999995
v 0.00259807777 0.00149999905 -0.00600000024
v 0.00259807777 0.00149999905 0.0229999995
v 0.00251600933 0.00163391876 -0.00600000024
v 0.00251600933 0.00163391876 0.0229999995
v 0.00281907749 -0.0010260601 -0.00600000024
v 0.00281907749 -0.0010260601 0.0229999995
v 0.00289777946 -0.000776454926 -0.00600000024
v 0.00289777946 -0.000776454926 0.0229999995
v 0.00295442295 -0.000520946503 -0.00600000024
v 0.00295442295 -0.000520946503 0.0229999995
v 0.00298858356 -0.000261466026 -0.00600000024
v 0.00298858356 -0.000261466026 0.0229999995
v 0.00299999905 -1.90734863e-09 -0.00600000024
v 0.00299999905 -1.90734863e-09 0.0229999995
v 0.0029926939 0.000209267616 -0.00600000024
v 0.0029926939 0.000209267616 0.0229999995
v 0.00296306324 0.000469301224 -0.00600000024
v 0.00296306324 0.000469301224 0.0229999995
v 0.00291088772 0.000725763321 -0.00600000024
v 0.00291088772 0.000725763321 0.0229999995
v 0.00283655357 0.000976703644 -0.00600000024
v 0.00283655357 0.000976703644 0.0229999995
v 0.00276151371 0.00117219257 -0.00600000024
v 0.00276151371 0.00117219257 0.0229999995
f 1 12 2
f 1 2 13
f 11 12 1
f 1 87 11
f 13 87 1
f 84 2 12
f 13 2 14
f 88 14 2
f 88 2 84
f 3 4 5
f 3 28 4
f 5 71 3
f 27 28 3
f 3 63 27
f 3 71 63
f 5 4 6
f 64 6 4
f 66 4 28
f 64 4 66
f 5 6 7
f 7 75 5
f 5 75 71
f 7 6 8
f 72 8 6
f 72 6 64
f 7 8 9
f 9 79 7
f 7 79 75
f 9 8 10
f 76 10 8
f 76 8 72
f 9 10 11
f 11 83 9
f 9 83 79
f 11 10 12
f 80 12 10
f 80 10 76
f 11 87 83
f 84 12 80
f 13 14 15
f 15 93 13
f 13 93 87
f 15 14 16
f 88 16 14
f 15 16 17
f 17 97 15
f 15 97 93
f 17 16 18
f 94 18 16
f 94 16 88
f 17 18 19
f 19 101 17
f 17 101 97
f 19 18 20
f 98 20 18
f 98 18 94
f 19 20 21
f 21 105 19
f 19 105 101
f 21 20 22
f 102 22 20
f 102 20 98
f 21 22 29
f 29 107 21
f 21 107 105
f 29 22 30
f 106 30 22
f 106 22 102
f 23 24 25
f 23 38 24
f 25 59 23
f 37 38 23
f 23 51 37
f 23 59 51
f 25 24 26
f 52 26 24
f 54 24 38
f 52 24 54
f 25 26 27
f 27 65 25
f 25 65 59
f 27 26 28
f 60 28 26
f 60 26 52
f 27 63 65
f 66 28 60
f 29 30 31
f 31 113 29
f 29 113 107
f 31 30 32
f 108 32 30
f 108 30 106
f 31 32 33
f 33 117 31
f 31 117 113
f 33 32 34
f 114 34 32
f 114 32 108
f 33 34 39
f 39 119 33
f 33 119 117
f 39 34 40
f 118 40 34
f 118 34 114
f 35 36 37
f 35 44 36
f 37 53 35
f 43 44 35
f 35 47 43
f 35 53 47
f 37 36 38
f 48 38 36
f 48 36 44
f 37 51 53
f 54 38 48
f 39 40 41
f 41 125 39
f 39 125 119
f 41 40 42
f 120 42 40
f 120 40 118
f 41 42 45
f 45 129 41
f 41 129 125
f 45 42 46
f 126 46 42
f 126 42 120
f 43 48 44
f 47 48 43
f 45 46 49
f 133 45 49
f 129 45 133
f 49 46 50
f 46 130 50
f 130 46 126
f 47 54 48
f 53 54 47
f 49 50 55
f 135 49 55
f 133 49 135
f 55 50 56
f 50 134 56
f 50 130 134
f 51 52 53
f 51 60 52
f 59 60 51
f 53 52 54
f 55 56 57
f 141 55 57
f 135 55 141
f 57 56 58
f 56 136 58
f 56 134 136
f 57 58 61
f 143 57 61
f 141 57 143
f 61 58 62
f 58 142 62
f 58 136 142
f 59 66 60
f 65 66 59
f 61 62 67
f 145 61 67
f 143 61 145
f 67 62 68
f 62 144 68
f 62 142 144
f 63 64 65
f 63 72 64
f 71 72 63
f 65 64 66
f 67 68 69
f 153 67 69
f 145 67 153
f 69 68 70
f 68 146 70
f 68 144 146
f 69 70 73
f 155 69 73
f 153 69 155
f 73 70 74
f 70 154 74
f 70 146 154
f 71 76 72
f 75 76 71
f 73 74 77
f 157 73 77
f 155 73 157
f 77 74 78
f 74 156 78
f 74 154 156
f 75 80 76
f 79 80 75
f 77 78 81
f 159 77 81
f 157 77 159
f 81 78 82
f 78 158 82
f 78 156 158
f 79 84 80
f 83 84 79
f 81 82 85
f 161 81 85
f 159 81 161
f 85 82 86
f 82 160 86
f 82 158 160
f 83 88 84
f 87 88 83
f 85 86 91
f 161 85 91
f 91 86 92
f 86 162 92
f 86 160 162
f 87 94 88
f 93 94 87
f 89 92 90
f 89 90 95
f 91 92 89
f 163 91 89
f 165 89 95
f 163 89 165
f 92 162 90
f 95 90 96
f 90 164 96
f 90 162 164
f 161 91 163
f 93 98 94
f 97 98 93
f 95 96 99
f 167 95 99
f 165 95 167
f 99 96 100
f 96 166 100
f 96 164 166
f 97 102 98
f 101 102 97
f 99 100 103
f 169 99 103
f 167 99 169
f 103 100 104
f 100 168 104
f 100 166 168
f 101 106 102
f 105 106 101
f 103 104 111
f 171 103 111
f 169 103 171
f 111 104 112
f 104 170 112
f 104 168 170
f 105 108 106
f 107 108 105
f 107 114 108
f 113 114 107
f 109 112 110
f 109 110 115
f 111 112 109
f 147 111 109
f 149 109 115
f 147 109 149
f 112 172 110
f 115 110 116
f 110 148 116
f 110 172 148
f 171 111 147
f 112 170 172
f 113 118 114
f 117 118 113
f 115 116 123
f 151 115 123
f 149 115 151
f 123 116 124
f 116 150 124
f 116 148 150
f 117 120 118
f 119 120 117
f 119 126 120
f 125 126 119
f 121 124 122
f 121 122 127
f 123 124 121
f 137 123 121
f 139 121 127
f 137 121 139
f 124 152 122
f 127 122 128
f 122 138 128
f 122 152 138
f 151 123 137
f 124 150 152
f 125 130 126
f 129 130 125
f 127 128 131
f 139 127 131
f 131 128 132
f 128 140 132
f 128 138 140
f 129 134 130
f 133 134 129
f 131 132 139
f 139 132 140
f 133 136 134
f 135 136 133
f 135 142 136
f 141 142 135
f 137 140 138
f 137 138 151
f 139 140 137
f 151 138 152
f 141 144 142
f 143 144 141
f 143 146 144
f 145 146 143
f 145 154 146
f 153 154 145
f 147 150 148
f 147 148 171
f 149 150 147
f 171 148 172
f 149 152 150
f 151 152 149
f 153 156 154
f 155 156 153
f 155 158 156
f 157 158 155
f 157 160 158
f 159 160 157
f 159 162 160
f 161 162 159
f 161 164 162
f 163 164 161
f 163 166 164
f 165 166 163
f 165 168 166
f 167 168 165
f 167 170 168
f 169 170 167
f 169 172 170
f 171 172 169
