v -0.0540506077 -0.0399084735 0.00400000006
v -0.0540506077 -0.0399084735 0.00600000024
v -0.0508334732 -0.0425191069 0.00400000006
v -0.0507520723 -0.0426977205 0.00600000024
v -0.0509206438 -0.0422585821 0.00400000006
v -0.0508478642 -0.0424825668 0.00600000024
v -0.0509696054 -0.0420282173 0.00400000006
v -0.0509304762 -0.0422205639 0.00600000024
v -0.0509959364 -0.0417547655 0.00400000006
v -0.0509754133 -0.0419893789 0.00600000024
v -0.0509918261 -0.041519289 0.00400000006
v -0.0509969664 -0.0417155075 0.00600000024
v -0.0509631252 -0.0412855339 0.00400000006
v -0.0509887457 -0.0414801407 0.00600000024
v -0.0508989954 -0.041018405 0.00400000006
v -0.0509559679 -0.0412469196 0.00600000024
v -0.050802784 -0.0407610846 0.00400000006
v -0.0508871841 -0.0409809542 0.00600000024
v -0.0507520723 -0.0406547642 0.00400000006
v -0.0507865 -0.0407253504 0.00600000024
v -0.0505442381 -0.043030324 0.00400000006
v -0.0505203342 -0.0430614805 0.00600000024
v -0.0507152033 -0.0427670622 0.00400000006
v -0.0505675983 -0.0429987574 0.00600000024
v -0.050733943 -0.0427325535 0.00400000006
v -0.050733943 -0.0427325535 0.00600000024
v -0.0506759357 -0.0405174065 0.00400000006
v -0.050733943 -0.0406199312 0.00600000024
v -0.0505203342 -0.0402910042 0.00400000006
v -0.0506554174 -0.040483923 0.00600000024
v -0.0503382969 -0.043267231 0.00400000006
v -0.0503382969 -0.043267231 0.00600000024
v -0.0504958868 -0.0430922127 0.00400000006
v -0.0503658247 -0.0432392216 0.00600000024
v -0.0504958868 -0.040260272 0.00400000006
v -0.0504958868 -0.040260272 0.00600000024
v -0.0502528524 -0.0400041628 0.00400000006
v -0.0504709101 -0.040229969 0.00600000024
v -0.0500378561 -0.0435193348 0.00400000006
v -0.0500054932 -0.0435415745 0.00600000024
v -0.0502234411 -0.0433743382 0.00400000006
v -0.0500698233 -0.0434965277 0.00600000024
v -0.0500054932 -0.0398109055 0.00400000006
v -0.0502234411 -0.0399781442 0.00600000024
v -0.0499727488 -0.0435632515 0.00400000006
v -0.0497687864 -0.0436810064 0.00600000024
v -0.0499396276 -0.0397681332 0.00400000006
v -0.0499727488 -0.0397892332 0.00600000024
v -0.0497687864 -0.0396714759 0.00400000006
v -0.0499061441 -0.0397476149 0.00600000024
v -0.0495901728 -0.0437624025 0.00400000006
v -0.0495168543 -0.0437905502 0.00600000024
v -0.0497336435 -0.0436985254 0.00400000006
v -0.0496264553 -0.0437473774 0.00600000024
v -0.0495168543 -0.0395619321 0.00400000006
v -0.0497336435 -0.0396539545 0.00600000024
v -0.0494798374 -0.0438036585 0.00400000006
v -0.0492534494 -0.0438685751 0.00600000024
v -0.0493296528 -0.0395029068 0.00400000006
v -0.0494798374 -0.0395488238 0.00600000024
v -0.0492534494 -0.0394839072 0.00400000006
v -0.0492916346 -0.0394930768 0.00600000024
v -0.0492151117 -0.0438770723 0.00400000006
v -0.0490215158 -0.0439094687 0.00600000024
v -0.0490215158 -0.0394430113 0.00400000006
v -0.0492151117 -0.03947541 0.00600000024
v -0.0489824963 -0.0439139175 0.00400000006
v -0.0487865782 -0.0439259005 0.00600000024
v -0.0487865782 -0.0394265842 0.00400000006
v -0.0489824963 -0.0394385672 0.00600000024
v -0.0487473106 -0.043926239 0.00400000006
v -0.0485121202 -0.0439139175 0.00600000024
v -0.0485121202 -0.0394385672 0.00400000006
v -0.0487473106 -0.0394262409 0.00600000024
v -0.0487473106 -0.0346051741 -0.0230999994
v -0.0487473106 -0.0346051741 0.00400000006
v -0.0487473106 -0.0346051741 0.00600000024
v -0.0487473106 -0.0346051741 0.0129999995
v -0.0484731007 -0.0439094687 0.00400000006
v -0.0482795095 -0.0438770723 0.00600000024
v -0.0482795095 -0.03947541 0.00400000006
v -0.0484731007 -0.0394430113 0.00600000024
v -0.0482411671 -0.0438685751 0.00400000006
v -0.0480147791 -0.0438036585 0.00600000024
v -0.0480147791 -0.0395488238 0.00400000006
v -0.0481649637 -0.0395029068 0.00600000024
v -0.0482029867 -0.0394930768 0.00400000006
v -0.0482411671 -0.0394839072 0.00600000024
v -0.0479777622 -0.0437905502 0.00400000006
v -0.0479044437 -0.0437624025 0.00600000024
v -0.047868166 -0.0437473774 0.00400000006
v -0.047760973 -0.0436985254 0.00600000024
v -0.047760973 -0.0396539545 0.00400000006
v -0.0479777622 -0.0395619321 0.00600000024
v -0.0477258301 -0.0436810064 0.00400000006
v -0.0475218725 -0.0435632515 0.00600000024
v -0.0475218725 -0.0397892332 0.00400000006
v -0.0475549889 -0.0397681332 0.00600000024
v -0.0475884724 -0.0397476149 0.00400000006
v -0.0477258301 -0.0396714759 0.00600000024
v -0.0474891233 -0.0435415745 0.00400000006
v -0.0474567604 -0.0435193348 0.00600000024
v -0.0474247932 -0.0434965277 0.00400000006
v -0.0472711754 -0.0433743382 0.00600000024
v -0.0472711754 -0.0399781442 0.00400000006
v -0.0474891233 -0.0398109055 0.00600000024
v -0.0472417641 -0.0433483171 0.00400000006
v -0.0471563196 -0.043267231 0.00600000024
v -0.0471287966 -0.0432392216 0.00400000006
v -0.0470237064 -0.0431225109 0.00600000024
v -0.0470237064 -0.040229969 0.00400000006
v -0.0472417641 -0.0400041628 0.00600000024
v -0.0469987297 -0.0430922127 0.00400000006
v -0.0469503784 -0.043030324 0.00600000024
v -0.0469270229 -0.0429987574 0.00400000006
v -0.0467794132 -0.0427670622 0.00600000024
v -0.0467606783 -0.0427325535 0.00400000006
v -0.0467606783 -0.0427325535 0.00600000024
v -0.0467606783 -0.0406199312 0.00400000006
v -0.0468186808 -0.0405174065 0.00600000024
v -0.0468391991 -0.040483923 0.00400000006
v -0.0469987297 -0.040260272 0.00600000024
v -0.0467425442 -0.0426977205 0.00400000006
v -0.0466611433 -0.0425191069 0.00600000024
v -0.0466467524 -0.0424825668 0.00400000006
v -0.0465739775 -0.0422585821 0.00600000024
v -0.0465641451 -0.0422205639 0.00400000006
v -0.0465250111 -0.0420282173 0.00600000024
v -0.046519208 -0.0419893789 0.00400000006
v -0.046500392 -0.0417939949 0.00600000024
v -0.046500392 -0.041558485 0.00400000006
v -0.0465027905 -0.041519289 0.00600000024
v -0.0465058708 -0.0414801407 0.00400000006
v -0.0465314913 -0.0412855339 0.00600000024
v -0.0465386486 -0.0412469196 0.00400000006
v -0.0465956211 -0.041018405 0.00600000024
v -0.0466074324 -0.0409809542 0.00400000006
v -0.0466918325 -0.0407610846 0.00600000024
v -0.0467081165 -0.0407253504 0.00400000006
v -0.0467425442 -0.0406547642 0.00600000024
v -0.0464986801 -0.0417547655 0.00400000006
v -0.0464986801 -0.0417547655 0.00600000024
v -0.0464976501 -0.0417155075 0.00400000006
v -0.0464986801 -0.0415977192 0.00600000024
v -0.0437905502 -0.0495168543 0.00400000006
v -0.0437905502 -0.0495168543 0.00600000024
v -0.0438685751 -0.0492534494 0.00400000006
v -0.0438685751 -0.0492534494 0.00600000024
v -0.0439094687 -0.0490215158 0.00400000006
v -0.0439094687 -0.0490215158 0.00600000024
v -0.0439259005 -0.0487865782 0.00400000006
v -0.0439259005 -0.0487865782 0.00600000024
v -0.0439139175 -0.0485121202 0.00400000006
v -0.0439139175 -0.0485121202 0.00600000024
v -0.0438770723 -0.0482795095 0.00400000006
v -0.0438770723 -0.0482795095 0.00600000024
v -0.0438036585 -0.0480147791 0.00400000006
v -0.0438036585 -0.0480147791 0.00600000024
v -0.0437624025 -0.0479044437 0.00400000006
v -0.0437624025 -0.0479044437 0.00600000024
v -0.0435415745 -0.0500054932 0.00400000006
v -0.0435415745 -0.0500054932 0.00600000024
v -0.0436810064 -0.0497687864 0.00400000006
v -0.0436810064 -0.0497687864 0.00600000024
v -0.0437473774 -0.0496264553 0.00400000006
v -0.0437473774 -0.0496264553 0.00600000024
v -0.0436985254 -0.047760973 0.00400000006
v -0.0436985254 -0.047760973 0.00600000024
v -0.0435632515 -0.0475218725 0.00400000006
v -0.0435632515 -0.0475218725 0.00600000024
v -0.0435193348 -0.0474567604 0.00400000006
v -0.0435193348 -0.0474567604 0.00600000024
v -0.043267231 -0.0503382969 0.00400000006
v -0.043267231 -0.0503382969 0.00600000024
v -0.0434965277 -0.0500698233 0.00400000006
v -0.0434965277 -0.0500698233 0.00600000024
v -0.0433743382 -0.0472711754 0.00400000006
v -0.0433743382 -0.0472711754 0.00600000024
v -0.043267231 -0.0471563196 0.00400000006
v -0.043267231 -0.0471563196 0.00600000024
v -0.0430614805 -0.0505203342 0.00400000006
v -0.0430614805 -0.0505203342 0.00600000024
v -0.0432392216 -0.0503658247 0.00400000006
v -0.0432392216 -0.0503658247 0.00600000024
v -0.0431225109 -0.0470237064 0.00400000006
v -0.0431225109 -0.0470237064 0.00600000024
v -0.043030324 -0.0469503784 0.00400000006
v -0.043030324 -0.0469503784 0.00600000024
v -0.0429987574 -0.0505675983 0.00400000006
v -0.0429987574 -0.0505675983 0.00600000024
v -0.0427670622 -0.0467794132 0.00400000006
v -0.0427670622 -0.0467794132 0.00600000024
v -0.0426977205 -0.0507520723 0.00400000006
v -0.0426977205 -0.0507520723 0.00600000024
v -0.0427325535 -0.050733943 0.00400000006
v -0.0427325535 -0.050733943 0.00600000024
v -0.0427325535 -0.0467606783 0.00400000006
v -0.0427325535 -0.0467606783 0.00600000024
v -0.0425191069 -0.0466611433 0.00400000006
v -0.0425191069 -0.0466611433 0.00600000024
v -0.0424825668 -0.0508478642 0.00400000006
v -0.0424825668 -0.0508478642 0.00600000024
v -0.0422585821 -0.0465739775 0.00400000006
v -0.0422585821 -0.0465739775 0.00600000024
v -0.0422205639 -0.0509304762 0.00400000006
v -0.0422205639 -0.0509304762 0.00600000024
v -0.0420282173 -0.0465250111 0.00400000006
v -0.0420282173 -0.0465250111 0.00600000024
v -0.0419893789 -0.0509754133 0.00400000006
v -0.0419893789 -0.0509754133 0.00600000024
v -0.0417939949 -0.046500392 0.00400000006
v -0.0417939949 -0.046500392 0.00600000024
v -0.0417547655 -0.0464986801 0.00400000006
v -0.0417547655 -0.0464986801 0.00600000024
v -0.0417155075 -0.0509969664 0.00400000006
v -0.0417155075 -0.0509969664 0.00600000024
v -0.041519289 -0.0465027905 0.00400000006
v -0.041519289 -0.0465027905 0.00600000024
v -0.0415977192 -0.0464986801 0.00400000006
v -0.0415977192 -0.0464986801 0.00600000024
v -0.0414801407 -0.0509887457 0.00400000006
v -0.0414801407 -0.0509887457 0.00600000024
v -0.0412855339 -0.0465314913 0.00400000006
v -0.0412855339 -0.0465314913 0.00600000024
v -0.0412469196 -0.0509559679 0.00400000006
v -0.0412469196 -0.0509559679 0.00600000024
v -0.041018405 -0.0465956211 0.00400000006
v -0.041018405 -0.0465956211 0.00600000024
v -0.0409809542 -0.0508871841 0.00400000006
v -0.0409809542 -0.0508871841 0.00600000024
v -0.0407610846 -0.0466918325 0.00400000006
v -0.0407610846 -0.0466918325 0.00600000024
v -0.0407253504 -0.0507865 0.00400000006
v -0.0407253504 -0.0507865 0.00600000024
v -0.0406199312 -0.050733943 0.00400000006
v -0.0406199312 -0.050733943 0.00600000024
v -0.0405174065 -0.0468186808 0.00400000006
v -0.0405174065 -0.0468186808 0.00600000024
v -0.0406547642 -0.0467425442 0.00400000006
v -0.0406547642 -0.0467425442 0.00600000024
v -0.040483923 -0.0506554174 0.00400000006
v -0.040483923 -0.0506554174 0.00600000024
v -0.040260272 -0.0504958868 0.00400000006
v -0.040260272 -0.0504958868 0.00600000024
v -0.040260272 -0.0469987297 0.00400000006
v -0.040260272 -0.0469987297 0.00600000024
v -0.0402639389 -0.0351573682 0.0129999995
v -0.0402776051 -0.0350535464 0.0158000004
v -0.040289464 -0.0349495006 0.0129999995
v -0.0402994967 -0.034845264 0.0158000004
v -0.0403077126 -0.03474087 0.0129999995
v -0.040318675 -0.0345317268 0.0158000004
v -0.0403214169 -0.0344270444 0.0129999995
v -0.0403223324 -0.034322331 0.0158000004
v -0.0403214169 -0.0342176151 0.0129999995
v -0.0403141069 -0.0340083146 0.0158000004
v -0.0403077126 -0.0339037919 0.0129999995
v -0.0402994967 -0.0337993956 0.0158000004
v -0.040289464 -0.033695159 0.0129999995
v -0.0402776051 -0.0335911155 0.0158000004
v -0.0402639389 -0.0334872913 0.0129999995
v -0.0402639389 -0.0334872913 0.0158000004
v -0.040229969 -0.0504709101 0.00400000006
v -0.040229969 -0.0504709101 0.00600000024
v -0.0400041628 -0.0472417641 0.00400000006
v -0.0400041628 -0.0472417641 0.00600000024
v -0.0400286674 -0.0361764336 0.0129999995
v -0.0400601578 -0.03607656 0.0158000004
v -0.0400899029 -0.0359761548 0.0129999995
v -0.040144105 -0.0357738614 0.0158000004
v -0.0401685524 -0.0356720376 0.0129999995
v -0.0401912165 -0.0355698013 0.0158000004
v -0.0402120924 -0.0354671836 0.0129999995
v -0.0402484608 -0.0352609372 0.0158000004
v -0.0402484608 -0.0333837247 0.0129999995
v -0.0402311754 -0.0332804418 0.0158000004
v -0.0402120924 -0.0331774759 0.0129999995
v -0.0401912165 -0.0330748606 0.0158000004
v -0.0401685524 -0.0329726243 0.0129999995
v -0.0401178837 -0.0327694154 0.0158000004
v -0.0400899029 -0.0326685071 0.0129999995
v -0.0400601578 -0.0325680995 0.0158000004
v -0.0400286674 -0.0324682283 0.0129999995
v -0.0400286674 -0.0324682283 0.0158000004
v -0.0399084735 -0.0540506077 0.00400000006
v -0.0399084735 -0.0540506077 0.00600000024
v -0.0399781442 -0.0502234411 0.00400000006
v -0.0399781442 -0.0502234411 0.00600000024
v -0.0397892332 -0.0499727488 0.00400000006
v -0.0397892332 -0.0499727488 0.00600000024
v -0.0397681332 -0.0475549889 0.00400000006
v -0.0397681332 -0.0475549889 0.00600000024
v -0.0398109055 -0.0474891233 0.00400000006
v -0.0398109055 -0.0474891233 0.00600000024
v -0.0397601771 -0.0368580389 0.0129999995
v -0.0398036027 -0.0367627501 0.0158000004
v -0.0398453593 -0.0366667175 0.0129999995
v -0.0398854327 -0.0365699697 0.0158000004
v -0.0399238133 -0.0364725375 0.0129999995
v -0.0399954414 -0.0362757397 0.0158000004
v -0.0399954414 -0.0323689222 0.0129999995
v -0.0399604869 -0.0322702098 0.0158000004
v -0.0399238133 -0.032172122 0.0129999995
v -0.0398854327 -0.0320746899 0.0158000004
v -0.0398453593 -0.0319779444 0.0129999995
v -0.0397601771 -0.0317866206 0.0158000004
v -0.0397476149 -0.0499061441 0.00400000006
v -0.0397476149 -0.0499061441 0.00600000024
v -0.0396539545 -0.0497336435 0.00400000006
v -0.0396539545 -0.0497336435 0.00600000024
v -0.0395488238 -0.0494798374 0.00400000006
v -0.0395488238 -0.0494798374 0.00600000024
v -0.0395029068 -0.0481649637 0.00400000006
v -0.0395029068 -0.0481649637 0.00600000024
v -0.0395619321 -0.0479777622 0.00400000006
v -0.0395619321 -0.0479777622 0.00600000024
v -0.0396714759 -0.0477258301 0.00400000006
v -0.0396714759 -0.0477258301 0.00600000024
v -0.0395184827 -0.0373223305 0.0129999995
v -0.0395184827 -0.0373223305 0.0158000004
v -0.0395700479 -0.0372311878 0.0129999995
v -0.0396683693 -0.0370462728 0.0158000004
v -0.0397150946 -0.0369525576 0.0129999995
v -0.0397150946 -0.0369525576 0.0158000004
v -0.0397150946 -0.0316921043 0.0129999995
v -0.0396200156 -0.0315055013 0.0158000004
v -0.0395700479 -0.0314134717 0.0129999995
v -0.0395184827 -0.0313223314 0.0158000004
v -0.0394930768 -0.0492916346 0.00400000006
v -0.0394930768 -0.0492916346 0.00600000024
v -0.03947541 -0.0492151117 0.00400000006
v -0.03947541 -0.0492151117 0.00600000024
v -0.0394385672 -0.0489824963 0.00400000006
v -0.0394385672 -0.0489824963 0.00600000024
v -0.0394262409 -0.0487473106 0.00400000006
v -0.0394262409 -0.0487473106 0.00600000024
v -0.0394430113 -0.0484731007 0.00400000006
v -0.0394430113 -0.0484731007 0.00600000024
v -0.0394839072 -0.0482411671 0.00400000006
v -0.0394839072 -0.0482411671 0.00600000024
v -0.0392965555 -0.0376774883 0.0129999995
v -0.0394106197 -0.0375018454 0.0158000004
v -0.0394653344 -0.03741256 0.0129999995
v -0.0394653344 -0.03741256 0.0158000004
v -0.0394653344 -0.0312321019 0.0129999995
v -0.039354353 -0.0310544968 0.0158000004
v -0.0392965555 -0.0309671736 0.0129999995
v -0.0392965555 -0.0309671736 0.0158000004
v -0.0390503955 -0.0380163002 0.0129999995
v -0.0390503955 -0.0380163002 0.0158000004
v -0.0391141438 -0.0379332209 0.0129999995
v -0.0392372417 -0.0377637887 0.0158000004
v -0.0392372417 -0.0308808708 0.0129999995
v -0.0391764331 -0.0307956195 0.0158000004
v -0.0391141438 -0.030711441 0.0129999995
v -0.0390503955 -0.0306283617 0.0158000004
v -0.0387811995 -0.0383371139 0.0129999995
v -0.0388505888 -0.0382586837 0.0158000004
v -0.0389185977 -0.0381790566 0.0129999995
v -0.0389852071 -0.0380982518 0.0158000004
v -0.0389852071 -0.0305464077 0.0129999995
v -0.0389852071 -0.0305464077 0.0158000004
v -0.0389185977 -0.0304656053 0.0129999995
v -0.0387811995 -0.0303075457 0.0158000004
v -0.0385649705 -0.0385649705 0.0129999995
v -0.0385649705 -0.0385649705 0.0158000004
v -0.03863837 -0.0384902811 0.0129999995
v -0.0387104535 -0.0384143209 0.0158000004
v -0.0387104535 -0.030230341 0.0129999995
v -0.0385649705 -0.030079689 0.0158000004
v -0.0382586837 -0.0388505888 0.0129999995
v -0.0383371139 -0.0387811995 0.0158000004
v -0.0384143209 -0.0387104535 0.0129999995
v -0.0384902811 -0.03863837 0.0158000004
v -0.0384902811 -0.0300062919 0.0129999995
v -0.0384902811 -0.0300062919 0.0158000004
v -0.0384143209 -0.0299342084 0.0129999995
v -0.0382586837 -0.0297940731 0.0158000004
v -0.0380163002 -0.0390503955 0.0129999995
v -0.0380163002 -0.0390503955 0.0158000004
v -0.0380982518 -0.0389852071 0.0129999995
v -0.0381790566 -0.0389185977 0.0158000004
v -0.0381790566 -0.0297260642 0.0129999995
v -0.0380163002 -0.0295942664 0.0158000004
v -0.0377637887 -0.0392372417 0.0129999995
v -0.0379332209 -0.0391141438 0.0158000004
v -0.0379332209 -0.0295305181 0.0129999995
v -0.0379332209 -0.0295305181 0.0158000004
v -0.0378490424 -0.0294682288 0.0129999995
v -0.0377637887 -0.0294074178 0.0158000004
v -0.0375018454 -0.0394106197 0.0129999995
v -0.0376774883 -0.0392965555 0.0158000004
v -0.0376774883 -0.029348104 0.0129999995
v -0.0375901651 -0.0292903066 0.0158000004
v -0.0375018454 -0.0292340422 0.0129999995
v -0.0375018454 -0.0292340422 0.0158000004
v -0.0373223305 -0.0395184827 0.0129999995
v -0.0373223305 -0.0395184827 0.0158000004
v -0.03741256 -0.0394653344 0.0129999995
v -0.03741256 -0.0394653344 0.0158000004
v -0.0372853947 -0.0347916341 0.0158000004
v -0.0372567725 -0.0349460649 0.0189999998
v -0.0373150229 -0.0345316005 0.0158000004
v -0.0372931337 -0.0347398496 0.0189999998
v -0.0373218727 -0.0342699742 0.0158000004
v -0.0373182201 -0.0344793391 0.0189999998
v -0.0373058963 -0.0340087461 0.0158000004
v -0.0373205018 -0.0342176318 0.0189999998
v -0.0372767544 -0.0338013864 0.0158000004
v -0.0372999692 -0.0339567232 0.0189999998
v -0.0372567725 -0.0336985946 0.0158000004
v -0.0372672129 -0.0337499046 0.0189999998
v -0.03741256 -0.0291793275 0.0129999995
v -0.0373223305 -0.0291261792 0.0158000004
v -0.0370462728 -0.0396683693 0.0129999995
v -0.0372311878 -0.0395700479 0.0158000004
v -0.0370629668 -0.0355425406 0.0158000004
v -0.0370187116 -0.0356374431 0.0189999998
v -0.0371588874 -0.0352990341 0.0158000004
v -0.0370838451 -0.035494523 0.0189999998
v -0.0372332168 -0.0350480962 0.0158000004
v -0.0371755004 -0.0352493811 0.0189999998
v -0.0372454405 -0.0349971843 0.0158000004
v -0.0372454405 -0.0349971843 0.0189999998
v -0.0372201085 -0.0335458732 0.0158000004
v -0.0372454405 -0.0336474776 0.0189999998
v -0.0371414089 -0.0332962704 0.0158000004
v -0.0372061157 -0.033495419 0.0189999998
v -0.0370187116 -0.0330072165 0.0158000004
v -0.0371230721 -0.0332472277 0.0189999998
v -0.0372311878 -0.0290746117 0.0129999995
v -0.0371391606 -0.0290246439 0.0158000004
v -0.0370462728 -0.0289762902 0.0129999995
v -0.0370462728 -0.0289762902 0.0158000004
v -0.0367627501 -0.0398036027 0.0129999995
v -0.0368580389 -0.0397601771 0.0158000004
v -0.0369525576 -0.0397150946 0.0129999995
v -0.0369525576 -0.0397150946 0.0158000004
v -0.0367797875 -0.0360430598 0.0158000004
v -0.0367797875 -0.0360430598 0.0189999998
v -0.0369461894 -0.0357767582 0.0158000004
v -0.036809442 -0.0359999084 0.0189999998
v -0.0369953489 -0.0356843019 0.0158000004
v -0.0369711733 -0.0357307458 0.0189999998
v -0.0368938327 -0.0327772164 0.0158000004
v -0.0369953489 -0.0329603601 0.0189999998
v -0.0367797875 -0.0326016021 0.0158000004
v -0.0368664742 -0.0327325726 0.0189999998
v -0.0369525576 -0.0289295673 0.0129999995
v -0.0367627501 -0.0288410568 0.0158000004
v -0.0365699697 -0.0398854327 0.0129999995
v -0.0366667175 -0.0398453593 0.0158000004
v -0.0366204643 -0.0362506938 0.0158000004
v -0.0365163922 -0.0363683248 0.0189999998
v -0.036749382 -0.0360856867 0.0158000004
v -0.036653769 -0.0362102914 0.0189999998
v -0.0367182374 -0.0325168848 0.0158000004
v -0.036749382 -0.0325589752 0.0189999998
v -0.0365163922 -0.0322763348 0.0158000004
v -0.0366863632 -0.0324753451 0.0189999998
v -0.0366667175 -0.0287993002 0.0129999995
v -0.0365699697 -0.0287592268 0.0158000004
v -0.0362757397 -0.0399954414 0.0129999995
v -0.0364725375 -0.0399238133 0.0158000004
v -0.0363683248 -0.0365163922 0.0158000004
v -0.0362506938 -0.0366204643 0.0189999998
v -0.0364803505 -0.0364063048 0.0158000004
v -0.0364063048 -0.0364803505 0.0189999998
v -0.0362506938 -0.0320241976 0.0158000004
v -0.0364803505 -0.0322383547 0.0189999998
v -0.0364725375 -0.0287208486 0.0129999995
v -0.0362757397 -0.0286492181 0.0158000004
v -0.03607656 -0.0400601578 0.0129999995
v -0.0361764336 -0.0400286674 0.0158000004
v -0.0360430598 -0.0367797875 0.0158000004
v -0.0360430598 -0.0367797875 0.0189999998
v -0.0362102914 -0.036653769 0.0158000004
v -0.0360856867 -0.036749382 0.0189999998
v -0.0360430598 -0.0318648744 0.0158000004
v -0.0362102914 -0.0319908929 0.0189999998
v -0.0361764336 -0.0286159921 0.0129999995
v -0.03607656 -0.0285845017 0.0158000004
v -0.0357738614 -0.040144105 0.0129999995
v -0.0359761548 -0.0400899029 0.0158000004
v -0.0359999084 -0.036809442 0.0158000004
v -0.0357767582 -0.0369461894 0.0189999998
v -0.0358674455 -0.0317508292 0.0158000004
v -0.0359999084 -0.0318352175 0.0189999998
v -0.0357767582 -0.0316984725 0.0158000004
v -0.0358223295 -0.0317242551 0.0189999998
v -0.0359761548 -0.0285547614 0.0129999995
v -0.0357738614 -0.0285005569 0.0158000004
v -0.0355698013 -0.0401912165 0.0129999995
v -0.0356720376 -0.0401685524 0.0158000004
v -0.0356374431 -0.0370187116 0.0158000004
v -0.0355425406 -0.0370629668 0.0189999998
v -0.0357307458 -0.0369711733 0.0158000004
v -0.0356843019 -0.0369953489 0.0189999998
v -0.0355425406 -0.0315816951 0.0158000004
v -0.0357307458 -0.0316734886 0.0189999998
v -0.0356720376 -0.0284761095 0.0129999995
v -0.0355698013 -0.0284534454 0.0158000004
v -0.0352609372 -0.0402484608 0.0129999995
v -0.0354671836 -0.0402120924 0.0158000004
v -0.035494523 -0.0370838451 0.0158000004
v -0.0352990341 -0.0371588874 0.0189999998
v -0.0353483915 -0.031503253 0.0158000004
v -0.035494523 -0.0315608168 0.0189999998
v -0.0352990341 -0.0314857745 0.0158000004
v -0.0352990341 -0.0314857745 0.0189999998
v -0.0354671836 -0.0284325671 0.0129999995
v -0.0352609372 -0.0283962011 0.0158000004
v -0.0350535464 -0.0402776051 0.0129999995
v -0.0351573682 -0.0402639389 0.0158000004
v -0.0352493811 -0.0371755004 0.0158000004
v -0.0350480962 -0.0372332168 0.0189999998
v -0.0350480962 -0.0314114428 0.0158000004
v -0.0352493811 -0.0314691615 0.0189999998
v -0.0351573682 -0.028380723 0.0129999995
v -0.0350535464 -0.0283670545 0.0158000004
v -0.034845264 -0.0402994967 0.0129999995
v -0.0349495006 -0.040289464 0.0158000004
v -0.0349460649 -0.0372567725 0.0158000004
v -0.0347916341 -0.0372853947 0.0189999998
v -0.0349971843 -0.0372454405 0.0158000004
v -0.0349971843 -0.0372454405 0.0189999998
v -0.0347916341 -0.0313592649 0.0158000004
v -0.0349971843 -0.0313992214 0.0189999998
v -0.0349495006 -0.0283551979 0.0129999995
v -0.034845264 -0.0283451629 0.0158000004
v -0.0346051741 -0.0487473106 -0.0230999994
v -0.0346051741 -0.0487473106 0.00400000006
v -0.0346051741 -0.0487473106 0.00600000024
v -0.0346051741 -0.0487473106 0.0129999995
v -0.0345317268 -0.040318675 0.0129999995
v -0.03474087 -0.0403077126 0.0158000004
v -0.0347398496 -0.0372931337 0.0158000004
v -0.0345316005 -0.0373150229 0.0189999998
v -0.0345316005 -0.031329639 0.0158000004
v -0.0347398496 -0.0313515258 0.0189999998
v -0.03474087 -0.028336947 0.0129999995
v -0.0345317268 -0.0283259845 0.0158000004
v -0.034322331 -0.0403223324 0.0129999995
v -0.0344270444 -0.0403214169 0.0158000004
v -0.0344793391 -0.0373182201 0.0158000004
v -0.0342699742 -0.0373218727 0.0189999998
v -0.0342699742 -0.0313227868 0.0158000004
v -0.0344793391 -0.0313264418 0.0189999998
v -0.0344270444 -0.028323245 0.0129999995
v -0.034322331 -0.0283223295 0.0158000004
v -0.0340083146 -0.0403141069 0.0129999995
v -0.0342176151 -0.0403214169 0.0158000004
v -0.0342176318 -0.0373205018 0.0158000004
v -0.0340087461 -0.0373058963 0.0189999998
v -0.0340087461 -0.0313387656 0.0158000004
v -0.0342176318 -0.0313241577 0.0189999998
v -0.0342176151 -0.028323245 0.0129999995
v -0.0340083146 -0.0283305526 0.0158000004
v -0.0337993956 -0.0402994967 0.0129999995
v -0.0339037919 -0.0403077126 0.0158000004
v -0.0339567232 -0.0372999692 0.0158000004
v -0.0338013864 -0.0372767544 0.0189999998
v -0.0338013864 -0.0313679075 0.0158000004
v -0.0339567232 -0.0313446927 0.0189999998
v -0.0339037919 -0.028336947 0.0129999995
v -0.0337993956 -0.0283451629 0.0158000004
v -0.0335911155 -0.0402776051 0.0129999995
v -0.033695159 -0.040289464 0.0158000004
v -0.0337499046 -0.0372672129 0.0158000004
v -0.0336985946 -0.0372567725 0.0189999998
v -0.0336474776 -0.0372454405 0.0158000004
v -0.0335458732 -0.0372201085 0.0189999998
v -0.0335458732 -0.0314245534 0.0158000004
v -0.0337499046 -0.031377449 0.0189999998
v -0.033695159 -0.0283551979 0.0129999995
v -0.0335911155 -0.0283670545 0.0158000004
v -0.0334872913 -0.0402639389 0.0129999995
v -0.0334872913 -0.0402639389 0.0158000004
v -0.0332804418 -0.0402311754 0.0129999995
v -0.0333837247 -0.0402484608 0.0158000004
v -0.033495419 -0.0372061157 0.0158000004
v -0.0332962704 -0.0371414089 0.0189999998
v -0.0332962704 -0.031503253 0.0158000004
v -0.0332962704 -0.031503253 0.0189999998
v -0.0333456254 -0.0314857745 0.0158000004
v -0.033495419 -0.0314385462 0.0189999998
v -0.0334872913 -0.028380723 0.0129999995
v -0.0332804418 -0.0284134841 0.0158000004
v -0.0330748606 -0.0401912165 0.0129999995
v -0.0331774759 -0.0402120924 0.0158000004
v -0.0332472277 -0.0371230721 0.0158000004
v -0.0330072165 -0.0370187116 0.0189999998
v -0.0330072165 -0.031625948 0.0158000004
v -0.0332472277 -0.0315215898 0.0189999998
v -0.0331774759 -0.0284325671 0.0129999995
v -0.0330748606 -0.0284534454 0.0158000004
v -0.0327694154 -0.0401178837 0.0129999995
v -0.0329726243 -0.0401685524 0.0158000004
v -0.0329603601 -0.0369953489 0.0158000004
v -0.0327772164 -0.0368938327 0.0189999998
v -0.0327772164 -0.0317508292 0.0158000004
v -0.0327772164 -0.0317508292 0.0189999998
v -0.03282233 -0.0317242551 0.0158000004
v -0.0329603601 -0.0316493106 0.0189999998
v -0.0328707981 -0.0285005569 0.0129999995
v -0.0327694154 -0.0285267758 0.0158000004
v -0.0329726243 -0.0284761095 0.0129999995
v -0.0329726243 -0.0284761095 0.0158000004
v -0.0325680995 -0.0400601578 0.0129999995
v -0.0326685071 -0.0400899029 0.0158000004
v -0.0327325726 -0.0368664742 0.0158000004
v -0.0326016021 -0.0367797875 0.0189999998
v -0.0325589752 -0.036749382 0.0158000004
v -0.0325168848 -0.0367182374 0.0189999998
v -0.0325168848 -0.0319264245 0.0158000004
v -0.0327325726 -0.0317781854 0.0189999998
v -0.0326685071 -0.0285547614 0.0129999995
v -0.0325680995 -0.0285845017 0.0158000004
v -0.0324682283 -0.0400286674 0.0129999995
v -0.0324682283 -0.0400286674 0.0158000004
v -0.0322702098 -0.0399604869 0.0129999995
v -0.0323689222 -0.0399954414 0.0158000004
v -0.0324753451 -0.0366863632 0.0158000004
v -0.0322763348 -0.0365163922 0.0189999998
v -0.0322763348 -0.0321282697 0.0158000004
v -0.0323939681 -0.0320241976 0.0189999998
v -0.0324343681 -0.0319908929 0.0158000004
v -0.0324753451 -0.0319582987 0.0189999998
v -0.0324682283 -0.0286159921 0.0129999995
v -0.0322702098 -0.028684175 0.0158000004
v -0.0320746899 -0.0398854327 0.0129999995
v -0.032172122 -0.0399238133 0.0158000004
v -0.0322383547 -0.0364803505 0.0158000004
v -0.0320241976 -0.0362506938 0.0189999998
v -0.0320241976 -0.0323939681 0.0158000004
v -0.0321282697 -0.0322763348 0.0189999998
v -0.0322010112 -0.0322010112 0.0158000004
v -0.0322010112 -0.0322010112 0.0189999998
v -0.0320746899 -0.0287592268 0.0129999995
v -0.0320746899 -0.0287592268 0.0158000004
v -0.032172122 -0.0287208486 0.0129999995
v -0.032172122 -0.0287208486 0.0158000004
v -0.0317866206 -0.0397601771 0.0129999995
v -0.0319779444 -0.0398453593 0.0158000004
v -0.0319908929 -0.0362102914 0.0158000004
v -0.0318648744 -0.0360430598 0.0189999998
v -0.0318352175 -0.0359999084 0.0158000004
v -0.0317508292 -0.0358674455 0.0189999998
v -0.0317508292 -0.0327772164 0.0158000004
v -0.0317508292 -0.0327772164 0.0189999998
v -0.0317781854 -0.0327325726 0.0158000004
v -0.0319264245 -0.0325168848 0.0189999998
v -0.0319582987 -0.0324753451 0.0158000004
v -0.0319908929 -0.0324343681 0.0189999998
v -0.0319779444 -0.0287993002 0.0129999995
v -0.0317866206 -0.0288844848 0.0158000004
v -0.0315055013 -0.0396200156 0.0129999995
v -0.0316921043 -0.0397150946 0.0158000004
v -0.0317242551 -0.0358223295 0.0158000004
v -0.0316984725 -0.0357767582 0.0189999998
v -0.0316734886 -0.0357307458 0.0158000004
v -0.0315816951 -0.0355425406 0.0189999998
v -0.0315608168 -0.035494523 0.0158000004
v -0.031503253 -0.0353483915 0.0189999998
v -0.031503253 -0.0332962704 0.0158000004
v -0.031503253 -0.0332962704 0.0189999998
v -0.0315215898 -0.0332472277 0.0158000004
v -0.031625948 -0.0330072165 0.0189999998
v -0.0316493106 -0.0329603601 0.0158000004
v -0.0317242551 -0.03282233 0.0189999998
v -0.0315055013 -0.0290246439 0.0129999995
v -0.0315055013 -0.0290246439 0.0158000004
v -0.0316921043 -0.0289295673 0.0129999995
v -0.0315983868 -0.0289762902 0.0158000004
v -0.0313223314 -0.0395184827 0.0129999995
v -0.0314134717 -0.0395700479 0.0158000004
v -0.0314857745 -0.0352990341 0.0158000004
v -0.0314857745 -0.0352990341 0.0189999998
v -0.0314691615 -0.0352493811 0.0158000004
v -0.0314114428 -0.0350480962 0.0189999998
v -0.0313992214 -0.0349971843 0.0158000004
v -0.0313592649 -0.0347916341 0.0189999998
v -0.0313515258 -0.0347398496 0.0158000004
v -0.031329639 -0.0345316005 0.0189999998
v -0.0313264418 -0.0344793391 0.0158000004
v -0.0313227868 -0.0342699742 0.0189999998
v -0.0313241577 -0.0342176318 0.0158000004
v -0.0313387656 -0.0340087461 0.0189999998
v -0.0313446927 -0.0339567232 0.0158000004
v -0.0313679075 -0.0338013864 0.0189999998
v -0.031377449 -0.0337499046 0.0158000004
v -0.0314245534 -0.0335458732 0.0189999998
v -0.0314385462 -0.033495419 0.0158000004
v -0.0314857745 -0.0333456254 0.0189999998
v -0.0314134717 -0.0290746117 0.0129999995
v -0.0313223314 -0.0291261792 0.0158000004
v -0.0310544968 -0.039354353 0.0129999995
v -0.0312321019 -0.0394653344 0.0158000004
v -0.0310544968 -0.0292903066 0.0129999995
v -0.0310544968 -0.0292903066 0.0158000004
v -0.0312321019 -0.0291793275 0.0129999995
v -0.0311428142 -0.0292340422 0.0158000004
v -0.0309671736 -0.0392965555 0.0129999995
v -0.0309671736 -0.0392965555 0.0158000004
v -0.0307956195 -0.0391764331 0.0129999995
v -0.0308808708 -0.0392372417 0.0158000004
v -0.0309671736 -0.029348104 0.0129999995
v -0.0307956195 -0.0294682288 0.0158000004
v -0.0306283617 -0.0390503955 0.0129999995
v -0.030711441 -0.0391141438 0.0158000004
v -0.0305464077 -0.0389852071 0.0129999995
v -0.0305464077 -0.0389852071 0.0158000004
v -0.030711441 -0.0295305181 0.0129999995
v -0.0305464077 -0.0296594548 0.0158000004
v -0.0303075457 -0.0387811995 0.0129999995
v -0.0304656053 -0.0389185977 0.0158000004
v -0.0303859758 -0.0297940731 0.0129999995
v -0.0303075457 -0.0298634624 0.0158000004
v -0.0304656053 -0.0297260642 0.0129999995
v -0.0304656053 -0.0297260642 0.0158000004
v -0.030079689 -0.0385649705 0.0129999995
v -0.030230341 -0.0387104535 0.0158000004
v -0.0300062919 -0.0384902811 0.0129999995
v -0.0300062919 -0.0384902811 0.0158000004
v -0.030079689 -0.030079689 0.0129999995
v -0.0300062919 -0.0301543808 0.0158000004
v -0.030230341 -0.0299342084 0.0129999995
v -0.030230341 -0.0299342084 0.0158000004
v -0.0297940731 -0.0382586837 0.0129999995
v -0.0299342084 -0.0384143209 0.0158000004
v -0.0298634624 -0.0303075457 0.0129999995
v -0.0297940731 -0.0303859758 0.0158000004
v -0.0299342084 -0.030230341 0.0129999995
v -0.0299342084 -0.030230341 0.0158000004
v -0.0295942664 -0.0380163002 0.0129999995
v -0.0297260642 -0.0381790566 0.0158000004
v -0.0295305181 -0.0379332209 0.0129999995
v -0.0295305181 -0.0379332209 0.0158000004
v -0.0296594548 -0.0305464077 0.0129999995
v -0.0295305181 -0.030711441 0.0158000004
v -0.0297260642 -0.0304656053 0.0129999995
v -0.0297260642 -0.0304656053 0.0158000004
v -0.0294074178 -0.0377637887 0.0129999995
v -0.0294682288 -0.0378490424 0.0158000004
v -0.0292903066 -0.0375901651 0.0129999995
v -0.029348104 -0.0376774883 0.0158000004
v -0.0292903066 -0.0310544968 0.0129999995
v -0.0292903066 -0.0310544968 0.0158000004
v -0.0294682288 -0.0307956195 0.0129999995
v -0.029348104 -0.0309671736 0.0158000004
v -0.0292340422 -0.0375018454 0.0129999995
v -0.0292340422 -0.0375018454 0.0158000004
v -0.0291261792 -0.0373223305 0.0129999995
v -0.0291793275 -0.03741256 0.0158000004
v -0.0290246439 -0.0371391606 0.0129999995
v -0.0290746117 -0.0372311878 0.0158000004
v -0.0290246439 -0.0315055013 0.0129999995
v -0.0290246439 -0.0315055013 0.0158000004
v -0.0291261792 -0.0313223314 0.0129999995
v -0.0290746117 -0.0314134717 0.0158000004
v -0.0292340422 -0.0311428142 0.0129999995
v -0.0291793275 -0.0312321019 0.0158000004
v -0.0289762902 -0.0370462728 0.0129999995
v -0.0289762902 -0.0370462728 0.0158000004
v -0.0288410568 -0.0367627501 0.0129999995
v -0.0289295673 -0.0369525576 0.0158000004
v -0.0287592268 -0.0365699697 0.0129999995
v -0.0287993002 -0.0366667175 0.0158000004
v -0.0287592268 -0.0320746899 0.0129999995
v -0.0287592268 -0.0320746899 0.0158000004
v -0.0288844848 -0.0317866206 0.0129999995
v -0.0287993002 -0.0319779444 0.0158000004
v -0.0289762902 -0.0315983868 0.0129999995
v -0.0289295673 -0.0316921043 0.0158000004
v -0.0286492181 -0.0362757397 0.0129999995
v -0.0287208486 -0.0364725375 0.0158000004
v -0.0285845017 -0.03607656 0.0129999995
v -0.0286159921 -0.0361764336 0.0158000004
v -0.0285005569 -0.0357738614 0.0129999995
v -0.0285547614 -0.0359761548 0.0158000004
v -0.0285267758 -0.0327694154 0.0129999995
v -0.0285005569 -0.0328707981 0.0158000004
v -0.0285845017 -0.0325680995 0.0129999995
v -0.0285547614 -0.0326685071 0.0158000004
v -0.028684175 -0.0322702098 0.0129999995
v -0.0286159921 -0.0324682283 0.0158000004
v -0.0287208486 -0.032172122 0.0129999995
v -0.0287208486 -0.032172122 0.0158000004
v -0.0284534454 -0.0355698013 0.0129999995
v -0.0284761095 -0.0356720376 0.0158000004
v -0.0283962011 -0.0352609372 0.0129999995
v -0.0284325671 -0.0354671836 0.0158000004
v -0.0283670545 -0.0350535464 0.0129999995
v -0.028380723 -0.0351573682 0.0158000004
v -0.0283451629 -0.034845264 0.0129999995
v -0.0283551979 -0.0349495006 0.0158000004
v -0.0283259845 -0.0345317268 0.0129999995
v -0.028336947 -0.03474087 0.0158000004
v -0.0283223295 -0.034322331 0.0129999995
v -0.028323245 -0.0344270444 0.0158000004
v -0.0283305526 -0.0340083146 0.0129999995
v -0.028323245 -0.0342176151 0.0158000004
v -0.0283451629 -0.0337993956 0.0129999995
v -0.028336947 -0.0339037919 0.0158000004
v -0.0283670545 -0.0335911155 0.0129999995
v -0.0283551979 -0.033695159 0.0158000004
v -0.0284134841 -0.0332804418 0.0129999995
v -0.028380723 -0.0334872913 0.0158000004
v -0.0284534454 -0.0330748606 0.0129999995
v -0.0284325671 -0.0331774759 0.0158000004
v -0.0284761095 -0.0329726243 0.0129999995
v -0.0284761095 -0.0329726243 0.0158000004
v -0.0201094842 -0.00596734881 -0.0230999994
v -0.0201094842 -0.00596734881 0.00400000006
v -0.0201094842 -0.00596734881 0.00600000024
v -0.0201094842 -0.00596734881 0.0129999995
v -0.0152542341 -0.00635805666 0.00400000006
v -0.0152665198 -0.00628048778 0.00600000024
v -0.0152716458 -0.00624155462 0.00400000006
v -0.015288074 -0.00600661635 0.00600000024
v -0.0152884161 -0.00596734881 0.00400000006
v -0.0152798545 -0.00577124834 0.00600000024
v -0.0152760911 -0.00573215961 0.00400000006
v -0.0152542341 -0.00557664037 0.00600000024
v -0.0150063109 -0.00705817044 0.00400000006
v -0.0150250483 -0.00702365935 0.00600000024
v -0.0150431812 -0.00698882699 0.00400000006
v -0.0151389718 -0.00677367628 0.00600000024
v -0.015152725 -0.00673689365 0.00400000006
v -0.0152215815 -0.00651167274 0.00600000024
v -0.0152307487 -0.00647348821 0.00400000006
v -0.0152470779 -0.00639666855 0.00600000024
v -0.0152470779 -0.00553802848 0.00400000006
v -0.0152470779 -0.00553802848 0.00600000024
v -0.0152392483 -0.00549954712 0.00400000006
v -0.015178293 -0.00527206004 0.00600000024
v -0.0151658332 -0.00523482025 0.00400000006
v -0.0150776088 -0.00501645744 0.00600000024
v -0.0150607026 -0.00498101354 0.00400000006
v -0.0150063109 -0.00487652689 0.00600000024
v -0.0147620165 -0.00741362095 0.00400000006
v -0.0148815084 -0.00725789547 0.00600000024
v -0.0149037504 -0.00722553253 0.00400000006
v -0.014986974 -0.00709234834 0.00600000024
v -0.014986974 -0.0048423484 0.00400000006
v -0.0149465251 -0.00477503031 0.00600000024
v -0.0149254251 -0.0047419107 0.00400000006
v -0.0147620165 -0.00452107638 0.00600000024
v -0.0148061836 -0.000664047673 0.00400000006
v -0.0148061836 -0.000664047673 0.00600000024
v -0.0146294069 -0.00755833864 0.00400000006
v -0.0146294069 -0.00755833864 0.00600000024
v -0.0147104919 -0.0074728924 0.00400000006
v -0.0147365129 -0.00744348109 0.00600000024
v -0.0147365129 -0.00449121565 0.00400000006
v -0.0145145488 -0.00426925212 0.00600000024
v -0.014263854 -0.00785435736 0.00400000006
v -0.0143924999 -0.00776427865 0.00600000024
v -0.0144236553 -0.00774037302 0.00400000006
v -0.014484688 -0.00769094825 0.00600000024
v -0.014484688 -0.00424374849 0.00400000006
v -0.014263854 -0.00408033967 0.00600000024
v -0.0140247512 -0.00798963487 0.00400000006
v -0.0142307341 -0.00787545681 0.00600000024
v -0.0142307341 -0.00405924022 0.00400000006
v -0.0141634166 -0.00401879132 0.00600000024
v -0.0141292381 -0.00399945408 0.00400000006
v -0.0140247512 -0.00394506186 0.00600000024
v -0.0137709451 -0.00809476554 0.00400000006
v -0.0139893079 -0.00800654113 0.00600000024
v -0.0139893079 -0.0039281559 0.00400000006
v -0.0137709451 -0.00383993179 0.00600000024
v -0.0135062182 -0.00816818058 0.00400000006
v -0.0137337041 -0.00810722589 0.00600000024
v -0.0137337041 -0.00382747144 0.00400000006
v -0.0135062182 -0.00376651645 0.00600000024
v -0.0132736051 -0.00820502281 0.00400000006
v -0.0134677362 -0.00817600965 0.00600000024
v -0.0134677362 -0.00375868738 0.00400000006
v -0.0134291244 -0.00375153124 0.00600000024
v -0.0133903944 -0.00374504983 0.00400000006
v -0.0132736051 -0.00372967422 0.00600000024
v -0.0130384159 -0.00821734846 0.00400000006
v -0.0132345164 -0.00820878685 0.00600000024
v -0.0132345164 -0.00372591048 0.00400000006
v -0.0130384159 -0.00371734858 0.00600000024
v -0.0127642107 -0.0082005775 0.00400000006
v -0.0129991484 -0.00821700573 0.00600000024
v -0.0129991484 -0.0037176913 0.00400000006
v -0.0127642107 -0.00373411983 0.00600000024
v -0.0125322759 -0.00815968096 0.00400000006
v -0.0127252769 -0.0081954515 0.00600000024
v -0.0126477075 -0.00375153124 0.00400000006
v -0.0125322759 -0.00377501577 0.00600000024
v -0.0127252769 -0.00373924553 0.00400000006
v -0.0126864386 -0.00374504983 0.00600000024
v -0.0122688711 -0.00808165669 0.00400000006
v -0.012494092 -0.00815051377 0.00600000024
v -0.012494092 -0.00378418326 0.00400000006
v -0.0122688711 -0.00385304004 0.00600000024
v -0.0120875251 -0.00800654113 0.00400000006
v -0.012232089 -0.00806790471 0.00600000024
v -0.0120169377 -0.00797211349 0.00400000006
v -0.0120520818 -0.00798963487 0.00600000024
v -0.012232089 -0.00386679262 0.00400000006
v -0.0120169377 -0.00396258384 0.00600000024
v -0.0117802322 -0.00783268332 0.00400000006
v -0.0119821048 -0.00795398057 0.00600000024
v -0.0119134164 -0.00401879132 0.00400000006
v -0.0117802322 -0.00410201401 0.00600000024
v -0.0119821048 -0.00398071647 0.00400000006
v -0.0119475949 -0.00399945408 0.00600000024
v -0.0116843331 -0.00776427865 0.00400000006
v -0.0117478693 -0.00781044066 0.00600000024
v -0.0115039206 -0.00761289418 0.00400000006
v -0.0116531777 -0.00774037302 0.00600000024
v -0.011562283 -0.00426925212 0.00400000006
v -0.0115039206 -0.00432180285 0.00600000024
v -0.0117478693 -0.00412425637 0.00400000006
v -0.0115921438 -0.00424374849 0.00600000024
v -0.0113928699 -0.00750184476 0.00400000006
v -0.0114754355 -0.00758586287 0.00600000024
v -0.0112653923 -0.00735258698 0.00400000006
v -0.0113663399 -0.0074728924 0.00600000024
v -0.0113148165 -0.00452107638 0.00400000006
v -0.0112653923 -0.00458211035 0.00600000024
v -0.0114754355 -0.00434883386 0.00400000006
v -0.0113403201 -0.00449121565 0.00600000024
v -0.0111953247 -0.00725789547 0.00400000006
v -0.0112414861 -0.00732143223 0.00600000024
v -0.0110517848 -0.00702365935 0.00400000006
v -0.0111730814 -0.00722553253 0.00600000024
v -0.0110161293 -0.0069536835 0.00400000006
v -0.0110336518 -0.00698882699 0.00600000024
v -0.0111303079 -0.00477503031 0.00400000006
v -0.0110161293 -0.00498101354 0.00600000024
v -0.0112414861 -0.0046132648 0.00400000006
v -0.011151408 -0.0047419107 0.00600000024
v -0.01093786 -0.00677367628 0.00400000006
v -0.0109992242 -0.00691823959 0.00600000024
v -0.0108552516 -0.00651167274 0.00400000006
v -0.010924108 -0.00673689365 0.00600000024
v -0.0108103132 -0.00628048778 0.00400000006
v -0.0108460832 -0.00647348821 0.00600000024
v -0.010788759 -0.00600661635 0.00400000006
v -0.0108051872 -0.00624155462 0.00600000024
v -0.0107969785 -0.00577124834 0.00400000006
v -0.0107884169 -0.00596734881 0.00600000024
v -0.0108297551 -0.00553802848 0.00400000006
v -0.0108007419 -0.00573215961 0.00600000024
v -0.0108985388 -0.00527206004 0.00400000006
v -0.0108375847 -0.00549954712 0.00600000024
v -0.0109992242 -0.00501645744 0.00400000006
v -0.0109109998 -0.00523482025 0.00600000024
v -0.00800654113 -0.0139893079 0.00400000006
v -0.00809476554 -0.0137709451 0.00600000024
v -0.00810722589 -0.0137337041 0.00400000006
v -0.00816818058 -0.0135062182 0.00600000024
v -0.00817600965 -0.0134677362 0.00400000006
v -0.00820502281 -0.0132736051 0.00600000024
v -0.00820878685 -0.0132345164 0.00400000006
v -0.00821734846 -0.0130384159 0.00600000024
v -0.00821700573 -0.0129991484 0.00400000006
v -0.0082005775 -0.0127642107 0.00600000024
v -0.0081954515 -0.0127252769 0.00400000006
v -0.00815968096 -0.0125322759 0.00600000024
v -0.00815051377 -0.012494092 0.00400000006
v -0.00808165669 -0.0122688711 0.00600000024
v -0.00806790471 -0.012232089 0.00400000006
v -0.00800654113 -0.0120875251 0.00600000024
v -0.00776427865 -0.0143924999 0.00400000006
v -0.00785435736 -0.014263854 0.00600000024
v -0.00787545681 -0.0142307341 0.00400000006
v -0.00798963487 -0.0140247512 0.00600000024
v -0.00798963487 -0.0120520818 0.00400000006
v -0.00797211349 -0.0120169377 0.00600000024
v -0.00795398057 -0.0119821048 0.00400000006
v -0.00783268332 -0.0117802322 0.00600000024
v -0.00781044066 -0.0117478693 0.00400000006
v -0.00776427865 -0.0116843331 0.00600000024
v -0.00755833864 -0.0146294069 0.00400000006
v -0.00755833864 -0.0146294069 0.00600000024
v -0.00769094825 -0.014484688 0.00400000006
v -0.00774037302 -0.0144236553 0.00600000024
v -0.00774037302 -0.0116531777 0.00400000006
v -0.00761289418 -0.0115039206 0.00600000024
v -0.00758586287 -0.0114754355 0.00400000006
v -0.00750184476 -0.0113928699 0.00600000024
v -0.00725789547 -0.0148815084 0.00400000006
v -0.00741362095 -0.0147620165 0.00600000024
v -0.00744348109 -0.0147365129 0.00400000006
v -0.0074728924 -0.0147104919 0.00600000024
v -0.0074728924 -0.0113663399 0.00400000006
v -0.00735258698 -0.0112653923 0.00600000024
v -0.00732143223 -0.0112414861 0.00400000006
v -0.00725789547 -0.0111953247 0.00600000024
v -0.00702365935 -0.0150250483 0.00400000006
v -0.00705817044 -0.0150063109 0.00600000024
v -0.00709234834 -0.014986974 0.00400000006
v -0.00722553253 -0.0149037504 0.00600000024
v -0.00722553253 -0.0111730814 0.00400000006
v -0.00702365935 -0.0110517848 0.00600000024
v -0.00677367628 -0.0151389718 0.00400000006
v -0.00698882699 -0.0150431812 0.00600000024
v -0.00698882699 -0.0110336518 0.00400000006
v -0.0069536835 -0.0110161293 0.00600000024
v -0.00691823959 -0.0109992242 0.00400000006
v -0.00677367628 -0.01093786 0.00600000024
v -0.00651167274 -0.0152215815 0.00400000006
v -0.00673689365 -0.015152725 0.00600000024
v -0.00673689365 -0.010924108 0.00400000006
v -0.00651167274 -0.0108552516 0.00600000024
v -0.00628048778 -0.0152665198 0.00400000006
v -0.00635805666 -0.0152542341 0.00600000024
v -0.00639666855 -0.0152470779 0.00400000006
v -0.00647348821 -0.0152307487 0.00600000024
v -0.00647348821 -0.0108460832 0.00400000006
v -0.00628048778 -0.0108103132 0.00600000024
v -0.00600661635 -0.015288074 0.00400000006
v -0.00624155462 -0.0152716458 0.00600000024
v -0.00624155462 -0.0108051872 0.00400000006
v -0.00600661635 -0.010788759 0.00600000024
v -0.00596734881 -0.0201094842 -0.0230999994
v -0.00596734881 -0.0201094842 0.00400000006
v -0.00596734881 -0.0201094842 0.00600000024
v -0.00596734881 -0.0201094842 0.0129999995
v -0.00577124834 -0.0152798545 0.00400000006
v -0.00596734881 -0.0152884161 0.00600000024
v -0.00596734881 -0.0107884169 0.00400000006
v -0.00577124834 -0.0107969785 0.00600000024
v -0.00557664037 -0.0152542341 0.00400000006
v -0.00573215961 -0.0152760911 0.00600000024
v -0.00553802848 -0.0152470779 0.00400000006
v -0.00553802848 -0.0152470779 0.00600000024
v -0.00573215961 -0.0108007419 0.00400000006
v -0.00553802848 -0.0108297551 0.00600000024
v -0.00527206004 -0.015178293 0.00400000006
v -0.00549954712 -0.0152392483 0.00600000024
v -0.00549954712 -0.0108375847 0.00400000006
v -0.00527206004 -0.0108985388 0.00600000024
v -0.00501645744 -0.0150776088 0.00400000006
v -0.00523482025 -0.0151658332 0.00600000024
v -0.00523482025 -0.0109109998 0.00400000006
v -0.00501645744 -0.0109992242 0.00600000024
v -0.00487652689 -0.0150063109 0.00400000006
v -0.00498101354 -0.0150607026 0.00600000024
v -0.00477503031 -0.0149465251 0.00400000006
v -0.0048423484 -0.014986974 0.00600000024
v -0.00498101354 -0.0110161293 0.00400000006
v -0.00477503031 -0.0111303079 0.00600000024
v -0.00452107638 -0.0147620165 0.00400000006
v -0.0047419107 -0.0149254251 0.00600000024
v -0.00458211035 -0.0112653923 0.00400000006
v -0.00452107638 -0.0113148165 0.00600000024
v -0.0047419107 -0.011151408 0.00400000006
v -0.0046132648 -0.0112414861 0.00600000024
v -0.00426925212 -0.0145145488 0.00400000006
v -0.00449121565 -0.0147365129 0.00600000024
v -0.00432180285 -0.0115039206 0.00400000006
v -0.00426925212 -0.011562283 0.00600000024
v -0.00449121565 -0.0113403201 0.00400000006
v -0.00434883386 -0.0114754355 0.00600000024
v -0.00408033967 -0.014263854 0.00400000006
v -0.00424374849 -0.014484688 0.00600000024
v -0.00401879132 -0.0141634166 0.00400000006
v -0.00405924022 -0.0142307341 0.00600000024
v -0.00410201401 -0.0117802322 0.00400000006
v -0.00401879132 -0.0119134164 0.00600000024
v -0.00424374849 -0.0115921438 0.00400000006
v -0.00412425637 -0.0117478693 0.00600000024
v -0.00394506186 -0.0140247512 0.00400000006
v -0.00399945408 -0.0141292381 0.00600000024
v -0.00383993179 -0.0137709451 0.00400000006
v -0.0039281559 -0.0139893079 0.00600000024
v -0.00376651645 -0.0135062182 0.00400000006
v -0.00382747144 -0.0137337041 0.00600000024
v -0.00375153124 -0.0134291244 0.00400000006
v -0.00375868738 -0.0134677362 0.00600000024
v -0.00377501577 -0.0125322759 0.00400000006
v -0.00375153124 -0.0126477075 0.00600000024
v -0.00385304004 -0.0122688711 0.00400000006
v -0.00378418326 -0.012494092 0.00600000024
v -0.00396258384 -0.0120169377 0.00400000006
v -0.00386679262 -0.012232089 0.00600000024
v -0.00399945408 -0.0119475949 0.00400000006
v -0.00398071647 -0.0119821048 0.00600000024
v -0.00372967422 -0.0132736051 0.00400000006
v -0.00374504983 -0.0133903944 0.00600000024
v -0.00371734858 -0.0130384159 0.00400000006
v -0.00372591048 -0.0132345164 0.00600000024
v -0.00373411983 -0.0127642107 0.00400000006
v -0.0037176913 -0.0129991484 0.00600000024
v -0.00374504983 -0.0126864386 0.00400000006
v -0.00373924553 -0.0127252769 0.00600000024
v -0.000664047673 -0.0148061836 0.00400000006
v -0.000664047673 -0.0148061836 0.00600000024
f 1 2 76
f 2 1 286
f 1 5 3
f 1 3 25
f 7 5 1
f 9 7 1
f 1 11 9
f 1 13 11
f 1 15 13
f 1 17 15
f 19 17 1
f 27 19 1
f 1 23 21
f 21 33 1
f 1 25 23
f 1 29 27
f 1 35 29
f 33 31 1
f 31 285 1
f 37 35 1
f 43 37 1
f 1 47 43
f 1 49 47
f 76 49 1
f 286 1 285
f 4 6 2
f 26 4 2
f 2 6 8
f 2 8 10
f 2 10 12
f 2 12 14
f 2 14 16
f 16 18 2
f 2 18 20
f 2 20 28
f 22 24 2
f 2 34 22
f 2 24 26
f 2 28 30
f 30 36 2
f 2 32 34
f 32 2 286
f 2 36 38
f 2 38 44
f 44 48 2
f 2 48 50
f 2 50 77
f 76 2 77
f 3 6 4
f 3 4 25
f 5 6 3
f 25 4 26
f 5 8 6
f 7 8 5
f 7 10 8
f 9 10 7
f 9 12 10
f 11 12 9
f 11 14 12
f 13 14 11
f 13 16 14
f 15 16 13
f 15 18 16
f 17 18 15
f 17 20 18
f 19 20 17
f 19 28 20
f 27 28 19
f 21 24 22
f 21 22 33
f 23 24 21
f 33 22 34
f 23 26 24
f 25 26 23
f 27 30 28
f 29 30 27
f 29 36 30
f 35 36 29
f 31 34 32
f 31 32 41
f 33 34 31
f 31 41 173
f 31 173 285
f 41 32 42
f 174 42 32
f 32 286 174
f 35 38 36
f 37 38 35
f 37 44 38
f 43 44 37
f 39 42 40
f 39 40 45
f 41 42 39
f 175 41 39
f 161 39 45
f 175 39 161
f 176 40 42
f 45 40 46
f 46 40 162
f 162 40 176
f 173 41 175
f 176 42 174
f 43 48 44
f 47 48 43
f 45 46 53
f 45 53 161
f 53 46 54
f 162 54 46
f 47 50 48
f 49 50 47
f 49 56 50
f 55 56 49
f 76 55 49
f 77 50 56
f 51 54 52
f 51 52 57
f 53 54 51
f 161 53 51
f 161 51 57
f 162 52 54
f 57 52 58
f 162 58 52
f 55 60 56
f 59 60 55
f 76 59 55
f 77 56 60
f 57 58 63
f 161 57 63
f 63 58 64
f 64 58 162
f 59 62 60
f 61 62 59
f 76 61 59
f 77 60 62
f 61 66 62
f 65 66 61
f 65 61 76
f 62 66 77
f 63 64 67
f 161 63 67
f 67 64 68
f 68 64 162
f 65 70 66
f 69 70 65
f 69 65 76
f 66 70 77
f 67 68 71
f 161 67 71
f 71 68 72
f 72 68 162
f 69 74 70
f 73 74 69
f 73 69 76
f 70 74 77
f 71 72 79
f 71 79 161
f 79 72 80
f 162 80 72
f 73 82 74
f 76 81 73
f 81 82 73
f 77 74 82
f 76 75 532
f 76 813 75
f 532 75 531
f 813 531 75
f 77 814 76
f 76 87 81
f 85 87 76
f 76 93 85
f 99 93 76
f 76 97 99
f 76 105 97
f 111 105 76
f 121 111 76
f 532 121 76
f 76 814 813
f 77 534 78
f 78 815 77
f 77 82 88
f 88 86 77
f 77 86 94
f 94 100 77
f 77 100 98
f 77 98 106
f 106 112 77
f 112 122 77
f 533 77 122
f 533 534 77
f 77 815 814
f 249 78 247
f 247 78 273
f 251 78 249
f 253 78 251
f 255 78 253
f 257 78 255
f 259 78 257
f 261 78 259
f 275 78 261
f 269 78 267
f 267 78 299
f 271 78 269
f 273 78 271
f 277 78 275
f 279 78 277
f 281 78 279
f 283 78 281
f 301 78 283
f 297 78 295
f 295 78 323
f 299 78 297
f 303 78 301
f 305 78 303
f 325 78 305
f 321 78 319
f 319 78 343
f 323 78 321
f 327 78 325
f 345 78 327
f 343 78 341
f 341 78 351
f 347 78 345
f 353 78 347
f 351 78 349
f 349 78 359
f 355 78 353
f 361 78 355
f 359 78 357
f 357 78 367
f 363 78 361
f 369 78 363
f 367 78 365
f 365 78 534
f 375 78 369
f 377 78 375
f 383 78 377
f 387 78 383
f 389 78 387
f 389 816 78
f 78 816 815
f 79 80 83
f 79 83 161
f 83 80 84
f 162 84 80
f 81 88 82
f 87 88 81
f 83 84 89
f 161 83 89
f 89 84 90
f 162 90 84
f 85 86 87
f 85 94 86
f 93 94 85
f 87 86 88
f 89 90 91
f 161 89 91
f 91 90 92
f 162 92 90
f 91 92 95
f 163 91 95
f 161 91 163
f 95 92 96
f 164 96 92
f 164 92 162
f 93 100 94
f 99 100 93
f 95 96 101
f 163 95 101
f 101 96 102
f 102 96 164
f 97 98 99
f 97 106 98
f 105 106 97
f 99 98 100
f 101 102 103
f 101 103 163
f 103 102 104
f 164 104 102
f 103 104 107
f 163 103 107
f 107 104 108
f 164 108 104
f 105 112 106
f 111 112 105
f 107 108 109
f 109 185 107
f 147 145 107
f 145 165 107
f 107 149 147
f 107 151 149
f 107 153 151
f 107 155 153
f 107 157 155
f 159 157 107
f 167 159 107
f 107 165 163
f 107 169 167
f 107 171 169
f 107 177 171
f 107 179 177
f 107 185 179
f 109 108 110
f 186 110 108
f 148 108 146
f 146 108 166
f 150 108 148
f 152 108 150
f 154 108 152
f 156 108 154
f 158 108 156
f 160 108 158
f 168 108 160
f 166 108 164
f 170 108 168
f 172 108 170
f 178 108 172
f 180 108 178
f 186 108 180
f 109 110 113
f 187 109 113
f 185 109 187
f 113 110 114
f 188 114 110
f 188 110 186
f 111 122 112
f 121 122 111
f 113 114 115
f 191 113 115
f 187 113 191
f 115 114 116
f 192 116 114
f 192 114 188
f 115 116 117
f 197 115 117
f 191 115 197
f 117 116 118
f 198 118 116
f 198 116 192
f 117 118 123
f 199 117 123
f 197 117 199
f 123 118 124
f 200 124 118
f 200 118 198
f 119 120 121
f 119 140 120
f 237 119 121
f 139 140 119
f 239 139 119
f 239 119 237
f 121 120 122
f 238 122 120
f 240 120 140
f 238 120 240
f 237 121 245
f 245 121 532
f 246 122 238
f 122 246 533
f 123 124 125
f 203 123 125
f 199 123 203
f 125 124 126
f 204 126 124
f 204 124 200
f 125 126 127
f 207 125 127
f 203 125 207
f 127 126 128
f 208 128 126
f 208 126 204
f 127 128 129
f 211 127 129
f 207 127 211
f 129 128 130
f 212 130 128
f 212 128 208
f 129 130 141
f 213 129 141
f 211 129 213
f 141 130 142
f 214 142 130
f 214 130 212
f 131 132 133
f 131 144 132
f 223 131 133
f 143 144 131
f 217 143 131
f 217 131 223
f 133 132 134
f 224 134 132
f 218 132 144
f 224 132 218
f 133 134 135
f 227 133 135
f 223 133 227
f 135 134 136
f 228 136 134
f 228 134 224
f 135 136 137
f 231 135 137
f 227 135 231
f 137 136 138
f 232 138 136
f 232 136 228
f 137 138 139
f 231 137 139
f 139 138 140
f 232 140 138
f 231 139 239
f 240 140 232
f 141 142 143
f 219 141 143
f 213 141 219
f 143 142 144
f 220 144 142
f 220 142 214
f 219 143 217
f 218 144 220
f 145 148 146
f 145 146 165
f 147 148 145
f 165 146 166
f 147 150 148
f 149 150 147
f 149 152 150
f 151 152 149
f 151 154 152
f 153 154 151
f 153 156 154
f 155 156 153
f 155 158 156
f 157 158 155
f 157 160 158
f 159 160 157
f 159 168 160
f 167 168 159
f 161 164 162
f 161 162 175
f 163 164 161
f 175 162 176
f 163 166 164
f 165 166 163
f 167 170 168
f 169 170 167
f 169 172 170
f 171 172 169
f 171 178 172
f 177 178 171
f 173 176 174
f 173 174 183
f 175 176 173
f 183 285 173
f 183 174 184
f 174 286 184
f 177 180 178
f 179 180 177
f 179 186 180
f 185 186 179
f 181 184 182
f 181 182 189
f 183 184 181
f 181 285 183
f 189 285 181
f 184 286 182
f 189 182 190
f 182 286 190
f 185 188 186
f 187 188 185
f 187 192 188
f 191 192 187
f 189 190 195
f 195 285 189
f 195 190 196
f 190 286 196
f 191 198 192
f 197 198 191
f 193 196 194
f 193 194 201
f 195 196 193
f 193 285 195
f 201 285 193
f 196 286 194
f 201 194 202
f 194 286 202
f 197 200 198
f 199 200 197
f 199 204 200
f 203 204 199
f 201 202 205
f 205 285 201
f 205 202 206
f 202 286 206
f 203 208 204
f 207 208 203
f 205 206 209
f 209 285 205
f 209 206 210
f 206 286 210
f 207 212 208
f 211 212 207
f 209 210 215
f 215 285 209
f 215 210 216
f 210 286 216
f 211 214 212
f 213 214 211
f 213 220 214
f 219 220 213
f 215 216 221
f 221 285 215
f 221 216 222
f 216 286 222
f 217 218 219
f 217 224 218
f 223 224 217
f 219 218 220
f 221 222 225
f 225 285 221
f 225 222 226
f 222 286 226
f 223 228 224
f 227 228 223
f 225 226 229
f 229 285 225
f 229 226 230
f 226 286 230
f 227 232 228
f 231 232 227
f 229 230 233
f 233 285 229
f 233 230 234
f 230 286 234
f 231 240 232
f 239 240 231
f 233 234 235
f 235 285 233
f 235 234 236
f 234 286 236
f 235 236 241
f 241 285 235
f 241 236 242
f 236 286 242
f 237 238 239
f 237 246 238
f 245 246 237
f 239 238 240
f 241 242 243
f 243 285 241
f 243 242 244
f 242 286 244
f 243 244 263
f 263 285 243
f 263 244 264
f 244 286 264
f 245 266 246
f 265 266 245
f 245 532 265
f 266 533 246
f 248 249 247
f 248 247 274
f 274 247 273
f 250 249 248
f 248 576 250
f 274 588 248
f 248 588 576
f 250 251 249
f 252 251 250
f 250 566 252
f 250 576 566
f 252 253 251
f 254 253 252
f 252 558 254
f 252 566 558
f 254 255 253
f 256 255 254
f 254 550 256
f 254 558 550
f 256 257 255
f 258 257 256
f 256 542 258
f 256 550 542
f 258 259 257
f 260 259 258
f 258 530 260
f 258 542 530
f 260 261 259
f 262 261 260
f 260 520 262
f 260 530 520
f 262 275 261
f 276 275 262
f 262 520 276
f 263 264 287
f 287 285 263
f 264 286 288
f 287 264 288
f 265 294 266
f 293 294 265
f 265 532 293
f 294 533 266
f 268 269 267
f 268 267 300
f 300 267 299
f 270 269 268
f 268 429 270
f 300 427 268
f 268 427 429
f 270 271 269
f 272 271 270
f 270 606 272
f 270 429 445
f 270 445 447
f 270 447 457
f 270 457 459
f 270 459 469
f 469 606 270
f 272 273 271
f 274 273 272
f 272 596 274
f 272 608 596
f 272 606 608
f 274 596 588
f 276 277 275
f 278 277 276
f 276 512 278
f 276 520 512
f 278 279 277
f 280 279 278
f 278 502 280
f 278 512 502
f 280 281 279
f 282 281 280
f 280 492 282
f 280 502 492
f 282 283 281
f 284 283 282
f 282 482 284
f 282 492 482
f 284 301 283
f 302 301 284
f 284 482 302
f 286 285 533
f 289 285 287
f 307 285 289
f 307 532 285
f 533 285 532
f 288 286 290
f 290 286 308
f 308 286 533
f 287 288 289
f 289 288 290
f 289 290 307
f 307 290 308
f 291 292 293
f 291 318 292
f 293 532 291
f 317 318 291
f 291 532 317
f 293 292 294
f 292 533 294
f 318 533 292
f 296 297 295
f 296 295 324
f 324 295 323
f 298 297 296
f 296 405 298
f 324 403 296
f 296 403 405
f 298 299 297
f 300 299 298
f 298 409 300
f 298 405 407
f 407 409 298
f 300 409 411
f 411 425 300
f 425 427 300
f 302 303 301
f 304 303 302
f 302 472 304
f 302 482 472
f 304 305 303
f 306 305 304
f 304 462 306
f 304 472 462
f 306 325 305
f 326 325 306
f 306 450 326
f 306 462 450
f 307 308 309
f 309 532 307
f 309 308 310
f 308 533 310
f 309 310 311
f 311 532 309
f 311 310 312
f 310 533 312
f 311 312 329
f 329 532 311
f 329 312 330
f 312 533 330
f 313 314 315
f 313 340 314
f 315 532 313
f 339 340 313
f 313 532 339
f 315 314 316
f 314 533 316
f 340 533 314
f 315 316 317
f 317 532 315
f 317 316 318
f 316 533 318
f 320 321 319
f 320 319 344
f 344 319 343
f 322 321 320
f 320 423 322
f 344 421 320
f 421 423 320
f 322 323 321
f 324 323 322
f 322 403 324
f 322 401 403
f 322 423 401
f 326 327 325
f 328 327 326
f 326 432 328
f 326 434 432
f 326 450 434
f 328 345 327
f 346 345 328
f 328 414 346
f 328 432 414
f 329 330 331
f 331 532 329
f 331 330 332
f 330 533 332
f 331 332 333
f 333 532 331
f 333 332 334
f 332 533 334
f 333 334 335
f 335 532 333
f 335 334 336
f 334 533 336
f 335 336 337
f 337 532 335
f 337 336 338
f 336 533 338
f 337 338 339
f 339 532 337
f 339 338 340
f 338 533 340
f 342 343 341
f 342 341 352
f 352 341 351
f 344 343 342
f 342 421 344
f 352 417 342
f 342 417 419
f 342 419 421
f 346 347 345
f 348 347 346
f 346 394 348
f 346 396 394
f 346 414 396
f 348 353 347
f 354 353 348
f 348 394 354
f 350 351 349
f 350 349 360
f 360 349 359
f 352 351 350
f 350 441 352
f 360 441 350
f 352 443 417
f 352 441 443
f 354 355 353
f 356 355 354
f 354 390 356
f 354 394 390
f 356 361 355
f 362 361 356
f 356 384 362
f 356 388 384
f 356 390 388
f 358 359 357
f 358 357 368
f 368 357 367
f 360 359 358
f 358 455 360
f 368 453 358
f 358 453 455
f 360 439 441
f 360 455 439
f 362 363 361
f 364 363 362
f 362 384 364
f 364 369 363
f 370 369 364
f 364 378 370
f 364 384 378
f 366 367 365
f 366 365 374
f 374 365 373
f 365 534 373
f 368 367 366
f 366 467 368
f 374 465 366
f 366 465 467
f 368 467 453
f 370 375 369
f 376 375 370
f 370 378 376
f 372 373 371
f 372 371 382
f 373 534 371
f 382 371 381
f 371 534 381
f 374 373 372
f 372 477 374
f 382 475 372
f 372 475 477
f 374 477 465
f 376 377 375
f 378 377 376
f 378 383 377
f 384 383 378
f 380 381 379
f 380 379 386
f 381 534 379
f 386 379 385
f 379 534 385
f 382 381 380
f 380 485 382
f 386 485 380
f 382 485 475
f 384 387 383
f 388 387 384
f 386 385 392
f 392 385 391
f 385 534 391
f 392 505 386
f 386 497 485
f 386 495 497
f 386 505 495
f 388 389 387
f 390 389 388
f 390 393 389
f 393 816 389
f 394 393 390
f 392 391 400
f 400 391 399
f 391 534 399
f 400 515 392
f 392 515 505
f 394 395 393
f 395 816 393
f 396 395 394
f 396 413 395
f 413 816 395
f 414 413 396
f 398 399 397
f 398 397 416
f 399 534 397
f 416 397 415
f 397 534 415
f 400 399 398
f 398 515 400
f 416 523 398
f 398 525 515
f 398 523 525
f 402 403 401
f 402 401 424
f 424 401 423
f 404 403 402
f 402 564 404
f 424 574 402
f 402 574 564
f 404 405 403
f 406 405 404
f 404 556 406
f 404 564 556
f 406 407 405
f 408 407 406
f 406 548 408
f 406 556 548
f 408 409 407
f 410 409 408
f 408 540 410
f 408 548 540
f 410 411 409
f 412 411 410
f 410 528 412
f 410 540 528
f 412 425 411
f 426 425 412
f 412 528 426
f 414 431 413
f 431 816 413
f 432 431 414
f 416 415 438
f 438 415 437
f 415 534 437
f 438 537 416
f 416 537 523
f 418 419 417
f 418 417 444
f 444 417 443
f 420 419 418
f 418 594 420
f 444 604 418
f 418 604 594
f 420 421 419
f 422 421 420
f 420 586 422
f 420 584 586
f 420 594 584
f 422 423 421
f 424 423 422
f 422 574 424
f 422 586 574
f 426 427 425
f 428 427 426
f 426 518 428
f 426 528 518
f 428 429 427
f 430 429 428
f 428 508 430
f 428 510 508
f 428 518 510
f 430 445 429
f 446 445 430
f 430 500 446
f 430 508 500
f 432 433 431
f 433 816 431
f 434 433 432
f 434 449 433
f 449 816 433
f 450 449 434
f 436 437 435
f 436 435 452
f 437 534 435
f 452 435 451
f 435 534 451
f 438 437 436
f 436 545 438
f 452 553 436
f 436 553 545
f 438 545 537
f 440 441 439
f 440 439 456
f 456 439 455
f 442 441 440
f 440 616 442
f 456 616 440
f 442 443 441
f 444 443 442
f 442 604 444
f 442 602 604
f 442 616 602
f 446 447 445
f 448 447 446
f 446 488 448
f 446 490 488
f 446 500 490
f 448 457 447
f 458 457 448
f 448 480 458
f 448 488 480
f 450 461 449
f 461 816 449
f 462 461 450
f 452 451 464
f 464 451 463
f 451 534 463
f 464 561 452
f 561 553 452
f 454 455 453
f 454 453 468
f 468 453 467
f 456 455 454
f 454 626 456
f 468 638 454
f 454 638 626
f 456 628 616
f 456 626 628
f 458 459 457
f 460 459 458
f 458 480 460
f 460 469 459
f 470 469 460
f 460 480 470
f 462 471 461
f 471 816 461
f 472 471 462
f 464 463 474
f 474 463 473
f 463 534 473
f 474 581 464
f 464 569 561
f 464 571 569
f 464 581 571
f 466 467 465
f 466 465 478
f 478 465 477
f 468 467 466
f 636 468 466
f 654 466 478
f 636 466 654
f 638 468 636
f 470 479 469
f 479 606 469
f 480 479 470
f 472 481 471
f 481 816 471
f 482 481 472
f 474 473 484
f 484 473 483
f 473 534 483
f 484 599 474
f 474 591 581
f 474 599 591
f 476 477 475
f 476 475 486
f 486 475 485
f 478 477 476
f 652 478 476
f 652 476 486
f 654 478 652
f 480 487 479
f 487 606 479
f 488 487 480
f 482 491 481
f 491 816 481
f 492 491 482
f 484 483 494
f 494 483 493
f 483 534 493
f 633 484 494
f 484 611 599
f 613 611 484
f 484 623 613
f 484 633 623
f 486 485 498
f 498 485 497
f 670 486 498
f 652 486 650
f 650 486 670
f 488 489 487
f 489 618 487
f 487 618 606
f 490 489 488
f 490 499 489
f 499 618 489
f 500 499 490
f 492 501 491
f 501 816 491
f 502 501 492
f 494 493 504
f 504 493 503
f 493 534 503
f 633 494 504
f 496 497 495
f 496 495 506
f 506 495 505
f 498 497 496
f 668 498 496
f 668 496 506
f 670 498 668
f 500 507 499
f 507 618 499
f 508 507 500
f 502 511 501
f 511 816 501
f 512 511 502
f 504 503 514
f 514 503 513
f 503 534 513
f 633 504 514
f 506 505 516
f 516 505 515
f 694 506 516
f 668 506 666
f 666 506 694
f 508 509 507
f 509 630 507
f 507 630 618
f 510 509 508
f 510 517 509
f 517 630 509
f 518 517 510
f 512 519 511
f 519 816 511
f 520 519 512
f 514 513 522
f 522 513 521
f 513 534 521
f 514 522 633
f 516 515 526
f 526 515 525
f 692 516 526
f 694 516 692
f 518 527 517
f 527 630 517
f 528 527 518
f 520 529 519
f 529 816 519
f 530 529 520
f 522 521 536
f 521 534 535
f 536 521 535
f 633 522 536
f 524 525 523
f 524 523 538
f 538 523 537
f 526 525 524
f 692 526 524
f 690 524 538
f 692 524 690
f 528 539 527
f 539 642 527
f 527 642 630
f 540 539 528
f 530 541 529
f 541 816 529
f 542 541 530
f 1024 532 531
f 1023 531 813
f 1024 531 1023
f 1025 533 532
f 1025 532 1024
f 1026 534 533
f 1026 533 1025
f 535 534 543
f 543 534 551
f 551 534 559
f 559 534 567
f 567 534 577
f 577 534 579
f 579 534 589
f 589 534 597
f 597 534 609
f 609 534 619
f 619 534 621
f 621 534 631
f 631 534 643
f 643 534 657
f 657 534 675
f 675 534 697
f 697 534 703
f 703 534 705
f 705 534 709
f 709 534 711
f 711 534 715
f 715 534 721
f 721 534 723
f 723 534 729
f 729 534 735
f 735 534 737
f 737 534 743
f 743 534 1026
f 536 535 544
f 544 535 543
f 633 536 544
f 538 537 546
f 546 537 545
f 688 538 546
f 690 538 688
f 540 547 539
f 547 656 539
f 539 640 642
f 539 656 640
f 548 547 540
f 542 549 541
f 549 816 541
f 550 549 542
f 544 543 552
f 552 543 551
f 633 544 552
f 546 545 554
f 554 545 553
f 686 546 554
f 688 546 686
f 548 555 547
f 555 656 547
f 556 555 548
f 550 557 549
f 557 816 549
f 558 557 550
f 552 551 560
f 560 551 559
f 633 552 560
f 554 553 562
f 562 553 561
f 684 554 562
f 686 554 684
f 556 563 555
f 563 656 555
f 564 563 556
f 558 565 557
f 565 816 557
f 566 565 558
f 560 559 568
f 568 559 567
f 560 568 633
f 562 561 570
f 570 561 569
f 682 562 570
f 684 562 682
f 564 573 563
f 573 656 563
f 574 573 564
f 566 575 565
f 575 816 565
f 576 575 566
f 568 567 578
f 578 567 577
f 633 568 578
f 570 569 572
f 572 569 571
f 682 570 572
f 572 571 582
f 582 571 581
f 680 572 582
f 682 572 680
f 574 585 573
f 585 656 573
f 586 585 574
f 576 587 575
f 587 816 575
f 588 587 576
f 578 577 580
f 580 577 579
f 578 580 633
f 580 579 590
f 590 579 589
f 633 580 590
f 582 581 592
f 592 581 591
f 664 582 592
f 678 582 664
f 680 582 678
f 584 583 586
f 584 593 583
f 586 583 585
f 583 656 585
f 593 656 583
f 594 593 584
f 588 595 587
f 595 816 587
f 596 595 588
f 590 589 598
f 598 589 597
f 633 590 598
f 592 591 600
f 600 591 599
f 662 592 600
f 664 592 662
f 594 603 593
f 603 674 593
f 593 674 656
f 604 603 594
f 596 607 595
f 607 816 595
f 608 607 596
f 598 597 610
f 610 597 609
f 633 598 610
f 600 599 612
f 612 599 611
f 648 600 612
f 660 600 648
f 662 600 660
f 602 601 604
f 602 615 601
f 604 601 603
f 601 702 603
f 615 702 601
f 616 615 602
f 603 672 674
f 603 696 672
f 603 702 696
f 606 605 608
f 606 617 605
f 608 605 607
f 605 816 607
f 617 816 605
f 618 617 606
f 610 609 620
f 620 609 619
f 610 620 633
f 612 611 614
f 614 611 613
f 646 612 614
f 648 612 646
f 614 613 624
f 624 613 623
f 646 614 624
f 616 627 615
f 627 714 615
f 615 700 702
f 615 708 700
f 615 714 708
f 628 627 616
f 618 629 617
f 629 816 617
f 630 629 618
f 620 619 622
f 622 619 621
f 633 620 622
f 622 621 632
f 632 621 631
f 622 632 633
f 624 623 634
f 634 623 633
f 646 624 634
f 626 625 628
f 626 637 625
f 628 625 627
f 625 720 627
f 637 726 625
f 625 718 720
f 625 728 718
f 625 726 728
f 638 637 626
f 627 720 714
f 630 641 629
f 641 816 629
f 642 641 630
f 632 631 644
f 644 631 643
f 633 632 644
f 634 633 646
f 633 644 658
f 646 633 645
f 633 736 645
f 633 658 676
f 633 676 698
f 633 698 704
f 633 704 706
f 633 706 710
f 710 712 633
f 633 712 716
f 633 716 722
f 633 722 724
f 633 724 730
f 633 730 736
f 636 635 638
f 636 653 635
f 638 635 637
f 635 726 637
f 653 742 635
f 635 734 726
f 635 732 734
f 635 742 732
f 654 653 636
f 640 639 642
f 640 655 639
f 642 639 641
f 639 816 641
f 655 816 639
f 656 655 640
f 644 643 658
f 658 643 657
f 646 645 648
f 648 645 647
f 645 746 647
f 645 736 738
f 645 738 744
f 645 744 746
f 648 647 660
f 660 647 659
f 647 754 659
f 647 746 752
f 647 752 754
f 650 649 652
f 650 669 649
f 652 649 651
f 649 762 651
f 669 762 649
f 670 669 650
f 652 651 654
f 654 651 653
f 651 740 653
f 651 750 740
f 651 748 750
f 651 762 748
f 653 740 742
f 656 673 655
f 673 816 655
f 674 673 656
f 658 657 676
f 676 657 675
f 660 659 662
f 662 659 661
f 659 756 661
f 659 754 756
f 662 661 664
f 664 661 663
f 661 768 663
f 661 756 764
f 661 764 766
f 661 766 768
f 664 663 678
f 678 663 677
f 663 776 677
f 663 768 776
f 666 665 668
f 666 693 665
f 668 665 667
f 665 788 667
f 693 786 665
f 665 786 788
f 694 693 666
f 668 667 670
f 670 667 669
f 667 774 669
f 667 770 772
f 667 788 770
f 667 772 774
f 669 758 760
f 669 774 758
f 669 760 762
f 672 671 674
f 672 695 671
f 674 671 673
f 671 816 673
f 695 816 671
f 696 695 672
f 676 675 698
f 698 675 697
f 678 677 680
f 680 677 679
f 677 778 679
f 677 776 778
f 680 679 682
f 682 679 681
f 679 790 681
f 679 778 780
f 679 780 790
f 682 681 684
f 684 681 683
f 681 794 683
f 681 790 792
f 681 792 794
f 684 683 686
f 686 683 685
f 683 798 685
f 683 794 796
f 683 796 798
f 686 685 688
f 688 685 687
f 685 802 687
f 685 798 800
f 685 800 802
f 688 687 690
f 690 687 689
f 687 806 689
f 687 802 804
f 687 804 806
f 690 689 692
f 692 689 691
f 689 810 691
f 689 806 808
f 689 808 810
f 692 691 694
f 694 691 693
f 691 784 693
f 691 782 784
f 691 812 782
f 691 810 812
f 693 784 786
f 696 701 695
f 701 816 695
f 702 701 696
f 698 697 704
f 704 697 703
f 700 699 702
f 700 707 699
f 702 699 701
f 699 816 701
f 707 816 699
f 708 707 700
f 704 703 706
f 706 703 705
f 706 705 710
f 710 705 709
f 708 713 707
f 713 816 707
f 714 713 708
f 710 709 712
f 712 709 711
f 712 711 716
f 716 711 715
f 714 719 713
f 719 816 713
f 720 719 714
f 716 715 722
f 722 715 721
f 718 717 720
f 718 727 717
f 720 717 719
f 717 816 719
f 727 816 717
f 728 727 718
f 722 721 724
f 724 721 723
f 724 723 730
f 730 723 729
f 726 725 728
f 726 733 725
f 728 725 727
f 725 816 727
f 733 1026 725
f 725 1026 816
f 734 733 726
f 730 729 736
f 736 729 735
f 732 731 734
f 732 741 731
f 734 731 733
f 731 1026 733
f 741 1026 731
f 742 741 732
f 736 735 738
f 738 735 737
f 738 737 744
f 744 737 743
f 740 739 742
f 740 749 739
f 742 739 741
f 739 1026 741
f 749 1026 739
f 750 749 740
f 744 743 746
f 746 743 745
f 743 1026 745
f 746 745 752
f 752 745 751
f 745 1026 751
f 748 747 750
f 748 761 747
f 750 747 749
f 747 1026 749
f 761 1026 747
f 762 761 748
f 752 751 754
f 754 751 753
f 751 1026 753
f 754 753 756
f 756 753 755
f 753 1026 755
f 756 755 764
f 764 755 763
f 755 1026 763
f 758 757 760
f 758 773 757
f 760 757 759
f 757 1026 759
f 773 1026 757
f 774 773 758
f 760 759 762
f 762 759 761
f 759 1026 761
f 764 763 766
f 766 763 765
f 763 1026 765
f 766 765 768
f 768 765 767
f 765 1026 767
f 768 767 776
f 776 767 775
f 767 1026 775
f 770 769 772
f 770 787 769
f 772 769 771
f 769 1026 771
f 787 1026 769
f 788 787 770
f 772 771 774
f 774 771 773
f 771 1026 773
f 776 775 778
f 778 775 777
f 775 1026 777
f 778 777 780
f 780 777 779
f 777 1026 779
f 780 779 790
f 790 779 789
f 779 1026 789
f 782 781 784
f 782 811 781
f 784 781 783
f 781 1026 783
f 811 1026 781
f 812 811 782
f 784 783 786
f 786 783 785
f 783 1026 785
f 786 785 788
f 788 785 787
f 785 1026 787
f 790 789 792
f 792 789 791
f 789 1026 791
f 792 791 794
f 794 791 793
f 791 1026 793
f 794 793 796
f 796 793 795
f 793 1026 795
f 796 795 798
f 798 795 797
f 795 1026 797
f 798 797 800
f 800 797 799
f 797 1026 799
f 800 799 802
f 802 799 801
f 799 1026 801
f 802 801 804
f 804 801 803
f 801 1026 803
f 804 803 806
f 806 803 805
f 803 1026 805
f 806 805 808
f 808 805 807
f 805 1026 807
f 808 807 810
f 810 807 809
f 807 1026 809
f 810 809 812
f 812 809 811
f 809 1026 811
f 814 1023 813
f 815 849 814
f 814 819 817
f 814 817 831
f 821 819 814
f 849 821 814
f 827 825 814
f 814 825 843
f 814 829 827
f 814 831 829
f 814 843 841
f 814 841 1024
f 1024 1023 814
f 815 816 1025
f 815 818 820
f 815 832 818
f 815 820 822
f 815 822 824
f 815 824 834
f 815 826 828
f 844 826 815
f 828 830 815
f 815 830 832
f 815 834 836
f 836 838 815
f 815 838 840
f 815 840 846
f 815 842 844
f 1025 842 815
f 815 846 848
f 815 848 856
f 850 849 815
f 815 856 850
f 1025 816 1026
f 818 817 820
f 818 831 817
f 820 817 819
f 832 831 818
f 820 819 822
f 822 819 821
f 822 821 824
f 824 821 823
f 849 823 821
f 824 823 834
f 834 823 833
f 849 833 823
f 826 825 828
f 826 843 825
f 828 825 827
f 844 843 826
f 828 827 830
f 830 827 829
f 830 829 832
f 832 829 831
f 834 833 836
f 836 833 835
f 849 835 833
f 836 835 838
f 838 835 837
f 837 835 849
f 838 837 840
f 840 837 839
f 849 839 837
f 840 839 846
f 846 839 845
f 849 845 839
f 842 841 844
f 842 853 841
f 844 841 843
f 841 853 1024
f 854 853 842
f 1025 854 842
f 846 845 848
f 848 845 847
f 849 847 845
f 848 847 856
f 849 855 847
f 856 847 855
f 850 1095 849
f 849 861 855
f 865 861 849
f 867 865 849
f 849 871 867
f 849 875 871
f 879 875 849
f 849 881 879
f 885 881 849
f 889 885 849
f 849 895 889
f 893 895 849
f 849 899 893
f 849 905 899
f 911 905 849
f 849 909 911
f 849 919 909
f 849 917 919
f 849 927 917
f 927 849 1095
f 850 856 862
f 850 862 866
f 850 866 868
f 850 868 872
f 872 876 850
f 850 876 880
f 880 882 850
f 850 882 886
f 850 886 890
f 850 890 896
f 850 896 894
f 850 894 900
f 900 906 850
f 850 906 912
f 912 910 850
f 850 910 920
f 850 920 918
f 850 918 928
f 928 1096 850
f 1096 1095 850
f 852 851 854
f 852 859 851
f 854 851 853
f 1024 853 851
f 1024 851 859
f 852 854 1025
f 860 859 852
f 1025 860 852
f 856 855 862
f 862 855 861
f 858 857 860
f 858 863 857
f 860 857 859
f 1024 859 857
f 1024 857 863
f 1025 858 860
f 864 863 858
f 1025 864 858
f 862 861 866
f 866 861 865
f 864 869 863
f 1024 863 869
f 870 869 864
f 1025 870 864
f 866 865 868
f 868 865 867
f 868 867 872
f 872 867 871
f 870 873 869
f 869 873 1024
f 874 873 870
f 874 870 1025
f 872 871 876
f 876 871 875
f 874 877 873
f 1024 873 877
f 878 877 874
f 1025 878 874
f 876 875 880
f 880 875 879
f 878 883 877
f 1024 877 883
f 884 883 878
f 1025 884 878
f 880 879 882
f 882 879 881
f 882 881 886
f 886 881 885
f 884 887 883
f 1024 883 887
f 888 887 884
f 1025 888 884
f 886 885 890
f 890 885 889
f 888 891 887
f 1024 887 891
f 892 891 888
f 1025 892 888
f 890 889 896
f 896 889 895
f 892 897 891
f 1024 891 897
f 898 897 892
f 1025 898 892
f 894 895 893
f 894 893 900
f 900 893 899
f 896 895 894
f 898 901 897
f 897 901 1024
f 902 901 898
f 902 898 1025
f 900 899 906
f 906 899 905
f 902 903 901
f 1024 901 903
f 904 903 902
f 1025 904 902
f 904 907 903
f 1024 903 907
f 908 907 904
f 1025 908 904
f 906 905 912
f 912 905 911
f 908 913 907
f 1024 907 913
f 914 913 908
f 1025 914 908
f 910 911 909
f 910 909 920
f 920 909 919
f 912 911 910
f 914 915 913
f 1024 913 915
f 916 915 914
f 1025 916 914
f 916 921 915
f 1024 915 921
f 922 921 916
f 1025 922 916
f 918 919 917
f 918 917 928
f 928 917 927
f 920 919 918
f 922 923 921
f 1017 921 923
f 921 957 955
f 1024 921 955
f 921 959 957
f 921 961 959
f 921 963 961
f 965 963 921
f 967 965 921
f 921 969 967
f 975 969 921
f 921 977 975
f 979 977 921
f 985 979 921
f 987 985 921
f 921 993 987
f 995 993 921
f 1001 995 921
f 921 1005 1001
f 1007 1005 921
f 921 1011 1007
f 1017 1011 921
f 924 923 922
f 1018 924 922
f 958 922 956
f 956 922 1025
f 960 922 958
f 962 922 960
f 964 922 962
f 966 922 964
f 968 922 966
f 970 922 968
f 976 922 970
f 978 922 976
f 980 922 978
f 986 922 980
f 988 922 986
f 994 922 988
f 996 922 994
f 1002 922 996
f 1006 922 1002
f 1008 922 1006
f 1012 922 1008
f 1018 922 1012
f 924 929 923
f 923 929 1017
f 930 929 924
f 1018 930 924
f 926 927 925
f 926 925 938
f 1061 925 927
f 938 925 937
f 1053 937 925
f 1053 925 1061
f 928 927 926
f 1062 928 926
f 1054 926 938
f 1062 926 1054
f 927 1095 1061
f 928 1062 1096
f 930 931 929
f 1021 929 931
f 1017 929 1021
f 932 931 930
f 1022 932 930
f 1022 930 1018
f 932 933 931
f 931 933 1021
f 934 933 932
f 934 932 1022
f 934 939 933
f 1021 933 939
f 940 939 934
f 1022 940 934
f 936 937 935
f 936 935 954
f 1055 935 937
f 954 935 953
f 1049 953 935
f 1049 935 1055
f 938 937 936
f 1056 938 936
f 1050 936 954
f 1056 936 1050
f 1055 937 1053
f 1054 938 1056
f 940 941 939
f 1021 939 941
f 942 941 940
f 1022 942 940
f 942 943 941
f 1021 941 943
f 944 943 942
f 1022 944 942
f 944 945 943
f 1021 943 945
f 946 945 944
f 1022 946 944
f 946 947 945
f 1029 945 947
f 1021 945 1029
f 948 947 946
f 1030 948 946
f 1030 946 1022
f 948 949 947
f 1035 947 949
f 1029 947 1035
f 950 949 948
f 1036 950 948
f 1036 948 1030
f 950 951 949
f 1039 949 951
f 1035 949 1039
f 952 951 950
f 1040 952 950
f 1040 950 1036
f 952 953 951
f 1043 951 953
f 1039 951 1043
f 954 953 952
f 1044 954 952
f 1044 952 1040
f 1043 953 1049
f 1050 954 1044
f 956 955 958
f 956 973 955
f 958 955 957
f 973 1024 955
f 974 973 956
f 956 1025 974
f 958 957 960
f 960 957 959
f 960 959 962
f 962 959 961
f 962 961 964
f 964 961 963
f 964 963 966
f 966 963 965
f 966 965 968
f 968 965 967
f 968 967 970
f 970 967 969
f 970 969 976
f 976 969 975
f 972 971 974
f 972 983 971
f 974 971 973
f 971 1024 973
f 983 1024 971
f 974 1025 972
f 984 983 972
f 972 1025 984
f 976 975 978
f 978 975 977
f 978 977 980
f 980 977 979
f 980 979 986
f 986 979 985
f 982 981 984
f 982 991 981
f 984 981 983
f 981 1024 983
f 991 1024 981
f 984 1025 982
f 992 991 982
f 982 1025 992
f 986 985 988
f 988 985 987
f 988 987 994
f 994 987 993
f 990 989 992
f 990 999 989
f 992 989 991
f 989 1024 991
f 999 1024 989
f 992 1025 990
f 1000 999 990
f 990 1025 1000
f 994 993 996
f 996 993 995
f 996 995 1002
f 1002 995 1001
f 998 997 1000
f 998 1003 997
f 1000 997 999
f 997 1024 999
f 1003 1024 997
f 1000 1025 998
f 1004 1003 998
f 998 1025 1004
f 1002 1001 1006
f 1006 1001 1005
f 1004 1009 1003
f 1009 1024 1003
f 1010 1009 1004
f 1004 1025 1010
f 1006 1005 1008
f 1008 1005 1007
f 1008 1007 1012
f 1012 1007 1011
f 1010 1015 1009
f 1015 1024 1009
f 1016 1015 1010
f 1010 1025 1016
f 1012 1011 1018
f 1018 1011 1017
f 1014 1013 1016
f 1014 1019 1013
f 1016 1013 1015
f 1013 1024 1015
f 1019 1024 1013
f 1016 1025 1014
f 1020 1019 1014
f 1014 1025 1020
f 1018 1017 1022
f 1022 1017 1021
f 1020 1027 1019
f 1027 1024 1019
f 1020 1025 1028
f 1028 1027 1020
f 1022 1021 1030
f 1030 1021 1029
f 1024 1096 1025
f 1031 1024 1027
f 1033 1024 1031
f 1037 1024 1033
f 1041 1024 1037
f 1045 1024 1041
f 1047 1024 1045
f 1051 1024 1047
f 1057 1024 1051
f 1057 1095 1024
f 1095 1096 1024
f 1028 1025 1032
f 1032 1025 1034
f 1034 1025 1038
f 1038 1025 1042
f 1042 1025 1046
f 1046 1025 1048
f 1048 1025 1052
f 1052 1025 1058
f 1058 1025 1096
f 1028 1031 1027
f 1032 1031 1028
f 1030 1029 1036
f 1036 1029 1035
f 1032 1033 1031
f 1034 1033 1032
f 1034 1037 1033
f 1038 1037 1034
f 1036 1035 1040
f 1040 1035 1039
f 1038 1041 1037
f 1042 1041 1038
f 1040 1039 1044
f 1044 1039 1043
f 1042 1045 1041
f 1046 1045 1042
f 1044 1043 1050
f 1050 1043 1049
f 1046 1047 1045
f 1048 1047 1046
f 1048 1051 1047
f 1052 1051 1048
f 1050 1049 1056
f 1056 1049 1055
f 1052 1057 1051
f 1058 1057 1052
f 1054 1055 1053
f 1054 1053 1062
f 1062 1053 1061
f 1056 1055 1054
f 1058 1063 1057
f 1063 1095 1057
f 1064 1063 1058
f 1058 1096 1064
f 1060 1061 1059
f 1060 1059 1070
f 1061 1095 1059
f 1070 1059 1069
f 1059 1095 1069
f 1062 1061 1060
f 1060 1096 1062
f 1070 1096 1060
f 1064 1065 1063
f 1065 1095 1063
f 1066 1065 1064
f 1064 1096 1066
f 1066 1071 1065
f 1071 1095 1065
f 1072 1071 1066
f 1066 1096 1072
f 1068 1069 1067
f 1068 1067 1086
f 1069 1095 1067
f 1086 1067 1085
f 1067 1095 1085
f 1070 1069 1068
f 1068 1096 1070
f 1086 1096 1068
f 1072 1073 1071
f 1073 1095 1071
f 1074 1073 1072
f 1072 1096 1074
f 1074 1075 1073
f 1075 1095 1073
f 1076 1075 1074
f 1074 1096 1076
f 1076 1077 1075
f 1077 1095 1075
f 1078 1077 1076
f 1076 1096 1078
f 1078 1087 1077
f 1087 1095 1077
f 1088 1087 1078
f 1078 1096 1088
f 1080 1081 1079
f 1080 1079 1094
f 1081 1095 1079
f 1094 1079 1093
f 1079 1095 1093
f 1082 1081 1080
f 1080 1096 1082
f 1094 1096 1080
f 1082 1083 1081
f 1083 1095 1081
f 1084 1083 1082
f 1082 1096 1084
f 1084 1085 1083
f 1085 1095 1083
f 1086 1085 1084
f 1084 1096 1086
f 1088 1089 1087
f 1089 1095 1087
f 1090 1089 1088
f 1088 1096 1090
f 1090 1091 1089
f 1091 1095 1089
f 1092 1091 1090
f 1090 1096 1092
f 1092 1093 1091
f 1093 1095 1091
f 1094 1093 1092
f 1092 1096 1094
