v 0.0427434826 -0.0541370344 0.00670000017
v 0.0427434826 -0.0541370344 0.0126999998
v 0.0427075958 -0.0539751625 0.00670000017
v 0.0426745415 -0.053812685 0.0126999998
v 0.0426443243 -0.0536496592 0.00670000017
v 0.0426443243 -0.0536496592 0.0126999998
v 0.0426169586 -0.0534861279 0.00670000017
v 0.042592454 -0.0533221436 0.0126999998
v 0.0425708103 -0.0531577587 0.00670000017
v 0.0425708103 -0.0531577587 0.0126999998
v 0.042552042 -0.052993021 0.00670000017
v 0.042536149 -0.0528279781 0.0126999998
v 0.0425231409 -0.0526626873 0.00670000017
v 0.0425231409 -0.0526626873 0.0126999998
v 0.0425130177 -0.0524971914 0.00670000017
v 0.0425057888 -0.052331543 0.0126999998
v 0.0425014448 -0.0521657991 0.00670000017
v 0.0425014448 -0.0521657991 0.0126999998
v 0.0425 -0.0519999981 0.00670000017
v 0.0425014448 -0.0518342018 0.0126999998
v 0.0425057888 -0.0516684532 0.00670000017
v 0.0425130177 -0.0515028095 0.0126999998
v 0.0425231409 -0.0513373137 0.00670000017
v 0.0425231409 -0.0513373137 0.0126999998
v 0.042536149 -0.0511720228 0.00670000017
v 0.042552042 -0.0510069799 0.0126999998
v 0.0425708103 -0.0508422422 0.00670000017
v 0.0425708103 -0.0508422422 0.0126999998
v 0.042592454 -0.0506778574 0.00670000017
v 0.0426169586 -0.0505138731 0.0126999998
v 0.0426443243 -0.0503503418 0.00670000017
v 0.0426443243 -0.0503503418 0.0126999998
v 0.0426745415 -0.0501873159 0.00670000017
v 0.0427075958 -0.0500248384 0.0126999998
v 0.0427434826 -0.0498629665 0.00670000017
v 0.0427434826 -0.0498629665 0.0126999998
v 0.0429649639 -0.0549356604 0.00670000017
v 0.0429151058 -0.0547775316 0.0126999998
v 0.0428680134 -0.0546185541 0.00670000017
v 0.0428680134 -0.0546185541 0.0126999998
v 0.0428237057 -0.0544587803 0.00670000017
v 0.0427821922 -0.0542982578 0.0126999998
v 0.0427821922 -0.0497017431 0.00670000017
v 0.0428237057 -0.0495412207 0.0126999998
v 0.0428680134 -0.0493814468 0.00670000017
v 0.0428680134 -0.0493814468 0.0126999998
v 0.0429151058 -0.0492224693 0.00670000017
v 0.0429649639 -0.0490643406 0.0126999998
v 0.0431917524 -0.0555587626 0.00670000017
v 0.0431917524 -0.0555587626 0.0126999998
v 0.0431309843 -0.0554044962 0.00670000017
v 0.0431309843 -0.0554044962 0.0126999998
v 0.0430729198 -0.0552491903 0.00670000017
v 0.0430175734 -0.0550928974 0.0126999998
v 0.0430175734 -0.0489071035 0.00670000017
v 0.0430729198 -0.0487508106 0.0126999998
v 0.0431309843 -0.0485955048 0.00670000017
v 0.0431309843 -0.0485955048 0.0126999998
v 0.0431917524 -0.0484412384 0.00670000017
v 0.0431917524 -0.0484412384 0.0126999998
v 0.0434614563 -0.0561645269 0.00670000017
v 0.0433900738 -0.0560148716 0.0126999998
v 0.0433213186 -0.0558640003 0.00670000017
v 0.0433213186 -0.0558640003 0.0126999998
v 0.0432552052 -0.0557119465 0.00670000017
v 0.0432552052 -0.0557119465 0.0126999998
v 0.0432552052 -0.0482880545 0.00670000017
v 0.0432552052 -0.0482880545 0.0126999998
v 0.0433213186 -0.0481360006 0.00670000017
v 0.0433213186 -0.0481360006 0.0126999998
v 0.0433900738 -0.0479851246 0.00670000017
v 0.0434614563 -0.047835474 0.0126999998
v 0.0436911106 -0.0566056919 0.00670000017
v 0.0436911106 -0.0566056919 0.0126999998
v 0.0436119986 -0.05645998 0.00670000017
v 0.0435354376 -0.0563129091 0.0126999998
v 0.0435354376 -0.0476870918 0.00670000017
v 0.0436119986 -0.0475400209 0.0126999998
v 0.0436911106 -0.047394309 0.00670000017
v 0.0436911106 -0.047394309 0.0126999998
v 0.0439435434 -0.057034235 0.00670000017
v 0.0439435434 -0.057034235 0.0126999998
v 0.0438569117 -0.0568928623 0.00670000017
v 0.0437727594 -0.0567500019 0.0126999998
v 0.0437727594 -0.047249999 0.00670000017
v 0.0438569117 -0.0471071386 0.0126999998
v 0.0439435434 -0.046965766 0.00670000017
v 0.0439435434 -0.046965766 0.0126999998
v 0.0442180538 -0.0574489784 0.00670000017
v 0.0441241407 -0.0573123312 0.0126999998
v 0.0440326309 -0.0571740723 0.00670000017
v 0.0440326309 -0.0571740723 0.0126999998
v 0.0440326309 -0.0468259287 0.00670000017
v 0.0440326309 -0.0468259287 0.0126999998
v 0.0441241407 -0.0466876698 0.00670000017
v 0.0442180538 -0.0465510225 0.0126999998
v 0.044412961 -0.0577172422 0.00670000017
v 0.0443143368 -0.0575839615 0.0126999998
v 0.0443143368 -0.0464160395 0.00670000017
v 0.044412961 -0.0462827587 0.0126999998
v 0.0447225761 -0.0581064844 0.00670000017
v 0.0447225761 -0.0581064844 0.0126999998
v 0.0446171141 -0.0579785442 0.00670000017
v 0.0445138979 -0.0578487825 0.0126999998
v 0.0445138979 -0.0461512136 0.00670000017
v 0.0446171141 -0.0460214567 0.0126999998
v 0.0447225761 -0.0458935165 0.00670000017
v 0.0447225761 -0.0458935165 0.0126999998
v 0.0449401236 -0.0583567429 0.00670000017
v 0.0449401236 -0.0583567429 0.0126999998
v 0.0448302603 -0.0582325602 0.00670000017
v 0.0448302603 -0.0582325602 0.0126999998
v 0.0448302603 -0.0457674408 0.00670000017
v 0.0448302603 -0.0457674408 0.0126999998
v 0.0449401236 -0.0456432581 0.00670000017
v 0.0449401236 -0.0456432581 0.0126999998
v 0.0451662731 -0.0585992527 0.00670000017
v 0.0451662731 -0.0585992527 0.0126999998
v 0.0450521421 -0.0584789848 0.00670000017
v 0.0450521421 -0.0584789848 0.0126999998
v 0.0450521421 -0.0455210161 0.00670000017
v 0.0450521421 -0.0455210161 0.0126999998
v 0.0451662731 -0.0454007435 0.00670000017
v 0.0451662731 -0.0454007435 0.0126999998
v 0.0454007435 -0.0588337278 0.00670000017
v 0.0454007435 -0.0588337278 0.0126999998
v 0.0452824879 -0.0587175131 0.00670000017
v 0.0452824879 -0.0587175131 0.0126999998
v 0.0452824879 -0.0452824879 0.00670000017
v 0.0452824879 -0.0452824879 0.0126999998
v 0.0454007435 -0.0451662731 0.00670000017
v 0.0454007435 -0.0451662731 0.0126999998
v 0.0456432581 -0.0590598774 0.00670000017
v 0.0456432581 -0.0590598774 0.0126999998
v 0.0455210161 -0.0589478588 0.00670000017
v 0.0455210161 -0.0589478588 0.0126999998
v 0.0455210161 -0.0450521421 0.00670000017
v 0.0455210161 -0.0450521421 0.0126999998
v 0.0456432581 -0.0449401236 0.00670000017
v 0.0456432581 -0.0449401236 0.0126999998
v 0.0458935165 -0.05927742 0.00670000017
v 0.0458935165 -0.05927742 0.0126999998
v 0.0457674408 -0.0591697407 0.00670000017
v 0.0457674408 -0.0591697407 0.0126999998
v 0.0457674408 -0.0448302603 0.00670000017
v 0.0457674408 -0.0448302603 0.0126999998
v 0.0458935165 -0.0447225761 0.00670000017
v 0.0458935165 -0.0447225761 0.0126999998
v 0.0461512136 -0.0594861031 0.00670000017
v 0.0460214567 -0.0593828869 0.0126999998
v 0.0460214567 -0.0446171141 0.00670000017
v 0.0461512136 -0.0445138979 0.0126999998
v 0.0464160395 -0.0596856594 0.00670000017
v 0.0462827587 -0.0595870352 0.0126999998
v 0.0462827587 -0.044412961 0.00670000017
v 0.0464160395 -0.0443143368 0.0126999998
v 0.0466876698 -0.0598758554 0.00670000017
v 0.0465510225 -0.0597819424 0.0126999998
v 0.0465510225 -0.0442180538 0.00670000017
v 0.0466876698 -0.0441241407 0.0126999998
v 0.046965766 -0.0600564575 0.00670000017
v 0.046965766 -0.0600564575 0.0126999998
v 0.0468259287 -0.05996737 0.00670000017
v 0.0468259287 -0.05996737 0.0126999998
v 0.0468259287 -0.0440326309 0.00670000017
v 0.0468259287 -0.0440326309 0.0126999998
v 0.046965766 -0.0439435434 0.00670000017
v 0.046965766 -0.0439435434 0.0126999998
v 0.047249999 -0.0602272415 0.00670000017
v 0.0471071386 -0.0601430893 0.0126999998
v 0.0471071386 -0.0438569117 0.00670000017
v 0.047249999 -0.0437727594 0.0126999998
v 0.047394309 -0.0603088856 0.00670000017
v 0.047394309 -0.0603088856 0.0126999998
v 0.047394309 -0.0436911106 0.00670000017
v 0.047394309 -0.0436911106 0.0126999998
v 0.0476870918 -0.0604645634 0.00670000017
v 0.0475400209 -0.0603880024 0.0126999998
v 0.0475400209 -0.0436119986 0.00670000017
v 0.0476870918 -0.0435354376 0.0126999998
v 0.0479851246 -0.0606099224 0.00670000017
v 0.047835474 -0.0605385447 0.0126999998
v 0.047835474 -0.0434614563 0.00670000017
v 0.0479851246 -0.0433900738 0.0126999998
v 0.0481360006 -0.0606786823 0.00670000017
v 0.0481360006 -0.0606786823 0.0126999998
v 0.0481360006 -0.0433213186 0.00670000017
v 0.0481360006 -0.0433213186 0.0126999998
v 0.0484412384 -0.0608082485 0.00670000017
v 0.0484412384 -0.0608082485 0.0126999998
v 0.0482880545 -0.0607447958 0.00670000017
v 0.0482880545 -0.0607447958 0.0126999998
v 0.0482880545 -0.0432552052 0.00670000017
v 0.0482880545 -0.0432552052 0.0126999998
v 0.0484412384 -0.0431917524 0.00670000017
v 0.0484412384 -0.0431917524 0.0126999998
v 0.0485955048 -0.0608690119 0.00670000017
v 0.0485955048 -0.0608690119 0.0126999998
v 0.0485955048 -0.0431309843 0.00670000017
v 0.0485955048 -0.0431309843 0.0126999998
v 0.0489071035 -0.0609824276 0.00670000017
v 0.0487508106 -0.0609270811 0.0126999998
v 0.0487508106 -0.0430729198 0.00670000017
v 0.0489071035 -0.0430175734 0.0126999998
v 0.0492224693 -0.0610848951 0.00670000017
v 0.0490643406 -0.061035037 0.0126999998
v 0.0491809225 -0.0530260611 0.00670000017
v 0.0492384863 -0.0531721926 0.0126999998
v 0.0491022205 -0.0527764559 0.00670000017
v 0.0491634464 -0.0529767036 0.0126999998
v 0.049045577 -0.0525209427 0.00670000017
v 0.0490891123 -0.0527257633 0.0126999998
v 0.0490114164 -0.052261467 0.00670000017
v 0.0490369368 -0.0524693012 0.0126999998
v 0.0490004587 -0.0520523596 0.00670000017
v 0.0490073061 -0.0522092676 0.0126999998
v 0.0490073061 -0.0517907286 0.00670000017
v 0.049000001 -0.0519999981 0.0126999998
v 0.0490369368 -0.051530695 0.00670000017
v 0.0490114164 -0.051738534 0.0126999998
v 0.0490891123 -0.0512742329 0.00670000017
v 0.049045577 -0.0514790535 0.0126999998
v 0.0491634464 -0.0510232973 0.00670000017
v 0.0491022205 -0.0512235451 0.0126999998
v 0.0492384863 -0.0508278084 0.00670000017
v 0.0491809225 -0.0509739399 0.0126999998
v 0.0490643406 -0.0429649639 0.00670000017
v 0.0492224693 -0.0429151058 0.0126999998
v 0.0493814468 -0.0611319876 0.00670000017
v 0.0493814468 -0.0611319876 0.0126999998
v 0.0494284964 -0.0535451126 0.00670000017
v 0.0494839907 -0.0536339188 0.0126999998
v 0.0492810774 -0.0532678556 0.00670000017
v 0.0494019222 -0.053499999 0.0126999998
v 0.0492593622 -0.0532202101 0.00670000017
v 0.0492593622 -0.0532202101 0.0126999998
v 0.0492593622 -0.0507797909 0.00670000017
v 0.0492593622 -0.0507797909 0.0126999998
v 0.0494019222 -0.0505000019 0.00670000017
v 0.0492810774 -0.0507321453 0.0126999998
v 0.0494839907 -0.0503660822 0.00670000017
v 0.0494284964 -0.0504548836 0.0126999998
v 0.0493814468 -0.0428680134 0.00670000017
v 0.0493814468 -0.0428680134 0.0126999998
v 0.0497017431 -0.0612178087 0.00670000017
v 0.0495412207 -0.0611762953 0.0126999998
v 0.0495729494 -0.0537633562 0.00670000017
v 0.0497358704 -0.0539681768 0.0126999998
v 0.049512887 -0.053677578 0.00670000017
v 0.0495425415 -0.053720727 0.0126999998
v 0.0495425415 -0.0502792692 0.00670000017
v 0.049512887 -0.050322423 0.0126999998
v 0.0497358704 -0.0500318241 0.00670000017
v 0.0495729494 -0.0502366447 0.0126999998
v 0.0495412207 -0.0428237057 0.00670000017
v 0.0497017431 -0.0427821922 0.0126999998
v 0.0498629665 -0.0612565136 0.00670000017
v 0.0498629665 -0.0612565136 0.0126999998
v 0.049770565 -0.0540073919 0.00670000017
v 0.049992609 -0.0542294359 0.0126999998
v 0.0498786783 -0.0498786783 0.00670000017
v 0.0498786783 -0.0498786783 0.0126999998
v 0.0498629665 -0.0427434826 0.00670000017
v 0.0498629665 -0.0427434826 0.0126999998
v 0.0501873159 -0.0613254595 0.00670000017
v 0.0500248384 -0.0612924004 0.0126999998
v 0.0500318241 -0.0542641306 0.00670000017
v 0.0502366447 -0.0544270515 0.0126999998
v 0.0502366447 -0.0495729494 0.00670000017
v 0.0500318241 -0.0497358704 0.0126999998
v 0.0500248384 -0.0427075958 0.00670000017
v 0.0501873159 -0.0426745415 0.0126999998
v 0.0503503418 -0.0613556719 0.00670000017
v 0.0503503418 -0.0613556719 0.0126999998
v 0.0503660822 -0.0545160103 0.00670000017
v 0.0504548836 -0.0545714998 0.0126999998
v 0.0502792692 -0.0544574547 0.00670000017
v 0.050322423 -0.054487114 0.0126999998
v 0.050322423 -0.049512887 0.00670000017
v 0.0502792692 -0.0495425415 0.0126999998
v 0.0504548836 -0.0494284964 0.00670000017
v 0.0503660822 -0.0494839907 0.0126999998
v 0.0503503418 -0.0426443243 0.00670000017
v 0.0503503418 -0.0426443243 0.0126999998
v 0.0506778574 -0.061407547 0.00670000017
v 0.0505138731 -0.0613830376 0.0126999998
v 0.0505000019 -0.054598074 0.00670000017
v 0.0507321453 -0.0547189236 0.0126999998
v 0.0507321453 -0.0492810774 0.00670000017
v 0.0505000019 -0.0494019222 0.0126999998
v 0.0505138731 -0.0426169586 0.00670000017
v 0.0506778574 -0.042592454 0.0126999998
v 0.0508422422 -0.0614291906 0.00670000017
v 0.0508422422 -0.0614291906 0.0126999998
v 0.0508278084 -0.0547615147 0.00670000017
v 0.0509739399 -0.0548190784 0.0126999998
v 0.0507797909 -0.0547406387 0.00670000017
v 0.0507797909 -0.0547406387 0.0126999998
v 0.0507797909 -0.0492593622 0.00670000017
v 0.0507797909 -0.0492593622 0.0126999998
v 0.0509739399 -0.0491809225 0.00670000017
v 0.0508278084 -0.0492384863 0.0126999998
v 0.0508422422 -0.0425708103 0.00670000017
v 0.0508422422 -0.0425708103 0.0126999998
v 0.0511720228 -0.0614638519 0.00670000017
v 0.0510069799 -0.0614479589 0.0126999998
v 0.0510232973 -0.0548365545 0.00670000017
v 0.0512235451 -0.0548977757 0.0126999998
v 0.0512235451 -0.0491022205 0.00670000017
v 0.0510232973 -0.0491634464 0.0126999998
v 0.0510069799 -0.042552042 0.00670000017
v 0.0511720228 -0.042536149 0.0126999998
v 0.0513373137 -0.06147686 0.00670000017
v 0.0513373137 -0.06147686 0.0126999998
v 0.0512742329 -0.0549108887 0.00670000017
v 0.0514790535 -0.0549544239 0.0126999998
v 0.0514790535 -0.049045577 0.00670000017
v 0.0512742329 -0.0490891123 0.0126999998
v 0.0513373137 -0.0425231409 0.00670000017
v 0.0513373137 -0.0425231409 0.0126999998
v 0.0516684532 -0.0614942122 0.00670000017
v 0.0515028095 -0.0614869785 0.0126999998
v 0.051530695 -0.0549630642 0.00670000017
v 0.051738534 -0.0549885845 0.0126999998
v 0.051738534 -0.0490114164 0.00670000017
v 0.051530695 -0.0490369368 0.0126999998
v 0.0515028095 -0.0425130177 0.00670000017
v 0.0516684532 -0.0425057888 0.0126999998
v 0.0519999981 -0.061500001 0.00670000017
v 0.0519999981 -0.061500001 0.0126999998
v 0.0518342018 -0.0614985514 0.00670000017
v 0.0518342018 -0.0614985514 0.0126999998
v 0.0517907286 -0.0549926901 0.00670000017
v 0.0519999981 -0.055 0.0126999998
v 0.0519999981 -0.049000001 0.00670000017
v 0.0517907286 -0.0490073061 0.0126999998
v 0.0518342018 -0.0425014448 0.00670000017
v 0.0518342018 -0.0425014448 0.0126999998
v 0.0519999981 -0.0425 0.00670000017
v 0.0519999981 -0.0425 0.0126999998
v 0.0521657991 -0.0614985514 0.00670000017
v 0.0521657991 -0.0614985514 0.0126999998
v 0.0520523596 -0.0549995422 0.00670000017
v 0.0522092676 -0.0549926901 0.0126999998
v 0.0522092676 -0.0490073061 0.00670000017
v 0.0520523596 -0.0490004587 0.0126999998
v 0.0521657991 -0.0425014448 0.00670000017
v 0.0521657991 -0.0425014448 0.0126999998
v 0.0524971914 -0.0614869785 0.00670000017
v 0.052331543 -0.0614942122 0.0126999998
v 0.052261467 -0.0549885845 0.00670000017
v 0.0524693012 -0.0549630642 0.0126999998
v 0.0524693012 -0.0490369368 0.00670000017
v 0.052261467 -0.0490114164 0.0126999998
v 0.052331543 -0.0425057888 0.00670000017
v 0.0524971914 -0.0425130177 0.0126999998
v 0.0526626873 -0.06147686 0.00670000017
v 0.0526626873 -0.06147686 0.0126999998
v 0.0525209427 -0.0549544239 0.00670000017
v 0.0527257633 -0.0549108887 0.0126999998
v 0.0527257633 -0.0490891123 0.00670000017
v 0.0525209427 -0.049045577 0.0126999998
v 0.0526626873 -0.0425231409 0.00670000017
v 0.0526626873 -0.0425231409 0.0126999998
v 0.052993021 -0.0614479589 0.00670000017
v 0.0528279781 -0.0614638519 0.0126999998
v 0.0527764559 -0.0548977757 0.00670000017
v 0.0529767036 -0.0548365545 0.0126999998
v 0.0529767036 -0.0491634464 0.00670000017
v 0.0527764559 -0.0491022205 0.0126999998
v 0.0528279781 -0.042536149 0.00670000017
v 0.052993021 -0.042552042 0.0126999998
v 0.0531577587 -0.0614291906 0.00670000017
v 0.0531577587 -0.0614291906 0.0126999998
v 0.0530260611 -0.0548190784 0.00670000017
v 0.0531721926 -0.0547615147 0.0126999998
v 0.0532202101 -0.0547406387 0.00670000017
v 0.0532202101 -0.0547406387 0.0126999998
v 0.0532202101 -0.0492593622 0.00670000017
v 0.0532202101 -0.0492593622 0.0126999998
v 0.0531721926 -0.0492384863 0.00670000017
v 0.0530260611 -0.0491809225 0.0126999998
v 0.0531577587 -0.0425708103 0.00670000017
v 0.0531577587 -0.0425708103 0.0126999998
v 0.0534861279 -0.0613830376 0.00670000017
v 0.0533221436 -0.061407547 0.0126999998
v 0.0532678556 -0.0547189236 0.00670000017
v 0.053499999 -0.054598074 0.0126999998
v 0.053499999 -0.0494019222 0.00670000017
v 0.0532678556 -0.0492810774 0.0126999998
v 0.0533221436 -0.042592454 0.00670000017
v 0.0534861279 -0.0426169586 0.0126999998
v 0.0536496592 -0.0613556719 0.00670000017
v 0.0536496592 -0.0613556719 0.0126999998
v 0.0535451126 -0.0545714998 0.00670000017
v 0.0536339188 -0.0545160103 0.0126999998
v 0.053677578 -0.054487114 0.00670000017
v 0.053720727 -0.0544574547 0.0126999998
v 0.053720727 -0.0495425415 0.00670000017
v 0.053677578 -0.049512887 0.0126999998
v 0.0536339188 -0.0494839907 0.00670000017
v 0.0535451126 -0.0494284964 0.0126999998
v 0.0536496592 -0.0426443243 0.00670000017
v 0.0536496592 -0.0426443243 0.0126999998
v 0.0539751625 -0.0612924004 0.00670000017
v 0.053812685 -0.0613254595 0.0126999998
v 0.0537633562 -0.0544270515 0.00670000017
v 0.0539681768 -0.0542641306 0.0126999998
v 0.0539681768 -0.0497358704 0.00670000017
v 0.0537633562 -0.0495729494 0.0126999998
v 0.053812685 -0.0426745415 0.00670000017
v 0.0539751625 -0.0427075958 0.0126999998
v 0.0541370344 -0.0612565136 0.00670000017
v 0.0541370344 -0.0612565136 0.0126999998
v 0.0540073919 -0.0542294359 0.00670000017
v 0.0542294359 -0.0540073919 0.0126999998
v 0.0542294359 -0.049992609 0.00670000017
v 0.0540073919 -0.049770565 0.0126999998
v 0.0541370344 -0.0427434826 0.00670000017
v 0.0541370344 -0.0427434826 0.0126999998
v 0.0544587803 -0.0611762953 0.00670000017
v 0.0542982578 -0.0612178087 0.0126999998
v 0.0542641306 -0.0539681768 0.00670000017
v 0.0544270515 -0.0537633562 0.0126999998
v 0.0544574547 -0.053720727 0.00670000017
v 0.054487114 -0.053677578 0.0126999998
v 0.054487114 -0.050322423 0.00670000017
v 0.0544574547 -0.0502792692 0.0126999998
v 0.0544270515 -0.0502366447 0.00670000017
v 0.0542641306 -0.0500318241 0.0126999998
v 0.0542982578 -0.0427821922 0.00670000017
v 0.0544587803 -0.0428237057 0.0126999998
v 0.0546185541 -0.0611319876 0.00670000017
v 0.0546185541 -0.0611319876 0.0126999998
v 0.0545160103 -0.0536339188 0.00670000017
v 0.0545714998 -0.0535451126 0.0126999998
v 0.054598074 -0.053499999 0.00670000017
v 0.0547189236 -0.0532678556 0.0126999998
v 0.0547406387 -0.0532202101 0.00670000017
v 0.0547406387 -0.0532202101 0.0126999998
v 0.0547406387 -0.0507797909 0.00670000017
v 0.0547406387 -0.0507797909 0.0126999998
v 0.0547189236 -0.0507321453 0.00670000017
v 0.054598074 -0.0505000019 0.0126999998
v 0.0545714998 -0.0504548836 0.00670000017
v 0.0545160103 -0.0503660822 0.0126999998
v 0.0546185541 -0.0428680134 0.00670000017
v 0.0546185541 -0.0428680134 0.0126999998
v 0.0549356604 -0.061035037 0.00670000017
v 0.0547775316 -0.0610848951 0.0126999998
v 0.0547615147 -0.0531721926 0.00670000017
v 0.0548190784 -0.0530260611 0.0126999998
v 0.0548365545 -0.0529767036 0.00670000017
v 0.0548977757 -0.0527764559 0.0126999998
v 0.0549108887 -0.0527257633 0.00670000017
v 0.0549544239 -0.0525209427 0.0126999998
v 0.0549630642 -0.0524693012 0.00670000017
v 0.0549885845 -0.052261467 0.0126999998
v 0.0549926901 -0.0522092676 0.00670000017
v 0.0549995422 -0.0520523596 0.0126999998
v 0.0549995422 -0.0519476414 0.00670000017
v 0.0549926901 -0.0517907286 0.0126999998
v 0.0549885845 -0.051738534 0.00670000017
v 0.0549630642 -0.051530695 0.0126999998
v 0.0549544239 -0.0514790535 0.00670000017
v 0.0549108887 -0.0512742329 0.0126999998
v 0.0548977757 -0.0512235451 0.00670000017
v 0.0548365545 -0.0510232973 0.0126999998
v 0.0548190784 -0.0509739399 0.00670000017
v 0.0547615147 -0.0508278084 0.0126999998
v 0.0547775316 -0.0429151058 0.00670000017
v 0.0549356604 -0.0429649639 0.0126999998
v 0.0552491903 -0.0609270811 0.00670000017
v 0.0550928974 -0.0609824276 0.0126999998
v 0.055 -0.0519999981 0.00670000017
v 0.055 -0.0519999981 0.0126999998
v 0.0550928974 -0.0430175734 0.00670000017
v 0.0552491903 -0.0430729198 0.0126999998
v 0.0554044962 -0.0608690119 0.00670000017
v 0.0554044962 -0.0608690119 0.0126999998
v 0.0554044962 -0.0431309843 0.00670000017
v 0.0554044962 -0.0431309843 0.0126999998
v 0.0555587626 -0.0608082485 0.00670000017
v 0.0555587626 -0.0608082485 0.0126999998
v 0.0557119465 -0.0607447958 0.00670000017
v 0.0557119465 -0.0607447958 0.0126999998
v 0.0557119465 -0.0432552052 0.00670000017
v 0.0557119465 -0.0432552052 0.0126999998
v 0.0555587626 -0.0431917524 0.00670000017
v 0.0555587626 -0.0431917524 0.0126999998
v 0.0558640003 -0.0606786823 0.00670000017
v 0.0558640003 -0.0606786823 0.0126999998
v 0.0558640003 -0.0433213186 0.00670000017
v 0.0558640003 -0.0433213186 0.0126999998
v 0.0561645269 -0.0605385447 0.00670000017
v 0.0560148716 -0.0606099224 0.0126999998
v 0.0560148716 -0.0433900738 0.00670000017
v 0.0561645269 -0.0434614563 0.0126999998
v 0.05645998 -0.0603880024 0.00670000017
v 0.0563129091 -0.0604645634 0.0126999998
v 0.0563129091 -0.0435354376 0.00670000017
v 0.05645998 -0.0436119986 0.0126999998
v 0.0566056919 -0.0603088856 0.00670000017
v 0.0566056919 -0.0603088856 0.0126999998
v 0.0566056919 -0.0436911106 0.00670000017
v 0.0566056919 -0.0436911106 0.0126999998
v 0.0568928623 -0.0601430893 0.00670000017
v 0.0567500019 -0.0602272415 0.0126999998
v 0.0567500019 -0.0437727594 0.00670000017
v 0.0568928623 -0.0438569117 0.0126999998
v 0.057034235 -0.0600564575 0.00670000017
v 0.057034235 -0.0600564575 0.0126999998
v 0.0571740723 -0.05996737 0.00670000017
v 0.0571740723 -0.05996737 0.0126999998
v 0.0571740723 -0.0440326309 0.00670000017
v 0.0571740723 -0.0440326309 0.0126999998
v 0.057034235 -0.0439435434 0.00670000017
v 0.057034235 -0.0439435434 0.0126999998
v 0.0574489784 -0.0597819424 0.00670000017
v 0.0573123312 -0.0598758554 0.0126999998
v 0.0573123312 -0.0441241407 0.00670000017
v 0.0574489784 -0.0442180538 0.0126999998
v 0.0577172422 -0.0595870352 0.00670000017
v 0.0575839615 -0.0596856594 0.0126999998
v 0.0575839615 -0.0443143368 0.00670000017
v 0.0577172422 -0.044412961 0.0126999998
v 0.0579785442 -0.0593828869 0.00670000017
v 0.0578487825 -0.0594861031 0.0126999998
v 0.0578487825 -0.0445138979 0.00670000017
v 0.0579785442 -0.0446171141 0.0126999998
v 0.0581064844 -0.05927742 0.00670000017
v 0.0581064844 -0.05927742 0.0126999998
v 0.0582325602 -0.0591697407 0.00670000017
v 0.0582325602 -0.0591697407 0.0126999998
v 0.0582325602 -0.0448302603 0.00670000017
v 0.0582325602 -0.0448302603 0.0126999998
v 0.0581064844 -0.0447225761 0.00670000017
v 0.0581064844 -0.0447225761 0.0126999998
v 0.0583567429 -0.0590598774 0.00670000017
v 0.0583567429 -0.0590598774 0.0126999998
v 0.0584789848 -0.0589478588 0.00670000017
v 0.0584789848 -0.0589478588 0.0126999998
v 0.0584789848 -0.0450521421 0.00670000017
v 0.0584789848 -0.0450521421 0.0126999998
v 0.0583567429 -0.0449401236 0.00670000017
v 0.0583567429 -0.0449401236 0.0126999998
v 0.0585992527 -0.0588337278 0.00670000017
v 0.0585992527 -0.0588337278 0.0126999998
v 0.0587175131 -0.0587175131 0.00670000017
v 0.0587175131 -0.0587175131 0.0126999998
v 0.0587175131 -0.0452824879 0.00670000017
v 0.0587175131 -0.0452824879 0.0126999998
v 0.0585992527 -0.0451662731 0.00670000017
v 0.0585992527 -0.0451662731 0.0126999998
v 0.0588337278 -0.0585992527 0.00670000017
v 0.0588337278 -0.0585992527 0.0126999998
v 0.0589478588 -0.0584789848 0.00670000017
v 0.0589478588 -0.0584789848 0.0126999998
v 0.0589478588 -0.0455210161 0.00670000017
v 0.0589478588 -0.0455210161 0.0126999998
v 0.0588337278 -0.0454007435 0.00670000017
v 0.0588337278 -0.0454007435 0.0126999998
v 0.0590598774 -0.0583567429 0.00670000017
v 0.0590598774 -0.0583567429 0.0126999998
v 0.0591697407 -0.0582325602 0.00670000017
v 0.0591697407 -0.0582325602 0.0126999998
v 0.0591697407 -0.0457674408 0.00670000017
v 0.0591697407 -0.0457674408 0.0126999998
v 0.0590598774 -0.0456432581 0.00670000017
v 0.0590598774 -0.0456432581 0.0126999998
v 0.05927742 -0.0581064844 0.00670000017
v 0.05927742 -0.0581064844 0.0126999998
v 0.0594861031 -0.0578487825 0.00670000017
v 0.0593828869 -0.0579785442 0.0126999998
v 0.0593828869 -0.0460214567 0.00670000017
v 0.0594861031 -0.0461512136 0.0126999998
v 0.05927742 -0.0458935165 0.00670000017
v 0.05927742 -0.0458935165 0.0126999998
v 0.0596856594 -0.0575839615 0.00670000017
v 0.0595870352 -0.0577172422 0.0126999998
v 0.0595870352 -0.0462827587 0.00670000017
v 0.0596856594 -0.0464160395 0.0126999998
v 0.0598758554 -0.0573123312 0.00670000017
v 0.0597819424 -0.0574489784 0.0126999998
v 0.05996737 -0.0571740723 0.00670000017
v 0.05996737 -0.0571740723 0.0126999998
v 0.05996737 -0.0468259287 0.00670000017
v 0.05996737 -0.0468259287 0.0126999998
v 0.0597819424 -0.0465510225 0.00670000017
v 0.0598758554 -0.0466876698 0.0126999998
v 0.0600564575 -0.057034235 0.00670000017
v 0.0600564575 -0.057034235 0.0126999998
v 0.0602272415 -0.0567500019 0.00670000017
v 0.0601430893 -0.0568928623 0.0126999998
v 0.0601430893 -0.0471071386 0.00670000017
v 0.0602272415 -0.047249999 0.0126999998
v 0.0600564575 -0.046965766 0.00670000017
v 0.0600564575 -0.046965766 0.0126999998
v 0.0603088856 -0.0566056919 0.00670000017
v 0.0603088856 -0.0566056919 0.0126999998
v 0.0604645634 -0.0563129091 0.00670000017
v 0.0603880024 -0.05645998 0.0126999998
v 0.0603880024 -0.0475400209 0.00670000017
v 0.0604645634 -0.0476870918 0.0126999998
v 0.0603088856 -0.047394309 0.00670000017
v 0.0603088856 -0.047394309 0.0126999998
v 0.0606099224 -0.0560148716 0.00670000017
v 0.0605385447 -0.0561645269 0.0126999998
v 0.0606786823 -0.0558640003 0.00670000017
v 0.0606786823 -0.0558640003 0.0126999998
v 0.0607447958 -0.0557119465 0.00670000017
v 0.0607447958 -0.0557119465 0.0126999998
v 0.0607447958 -0.0482880545 0.00670000017
v 0.0607447958 -0.0482880545 0.0126999998
v 0.0606786823 -0.0481360006 0.00670000017
v 0.0606786823 -0.0481360006 0.0126999998
v 0.0605385447 -0.047835474 0.00670000017
v 0.0606099224 -0.0479851246 0.0126999998
v 0.0608082485 -0.0555587626 0.00670000017
v 0.0608082485 -0.0555587626 0.0126999998
v 0.0608690119 -0.0554044962 0.00670000017
v 0.0608690119 -0.0554044962 0.0126999998
v 0.0609824276 -0.0550928974 0.00670000017
v 0.0609270811 -0.0552491903 0.0126999998
v 0.0609270811 -0.0487508106 0.00670000017
v 0.0609824276 -0.0489071035 0.0126999998
v 0.0608690119 -0.0485955048 0.00670000017
v 0.0608690119 -0.0485955048 0.0126999998
v 0.0608082485 -0.0484412384 0.00670000017
v 0.0608082485 -0.0484412384 0.0126999998
v 0.0610848951 -0.0547775316 0.00670000017
v 0.061035037 -0.0549356604 0.0126999998
v 0.0611319876 -0.0546185541 0.00670000017
v 0.0611319876 -0.0546185541 0.0126999998
v 0.0612178087 -0.0542982578 0.00670000017
v 0.0611762953 -0.0544587803 0.0126999998
v 0.0611762953 -0.0495412207 0.00670000017
v 0.0612178087 -0.0497017431 0.0126999998
v 0.0611319876 -0.0493814468 0.00670000017
v 0.0611319876 -0.0493814468 0.0126999998
v 0.061035037 -0.0490643406 0.00670000017
v 0.0610848951 -0.0492224693 0.0126999998
v 0.0612565136 -0.0541370344 0.00670000017
v 0.0612565136 -0.0541370344 0.0126999998
v 0.0613254595 -0.053812685 0.00670000017
v 0.0612924004 -0.0539751625 0.0126999998
v 0.0613556719 -0.0536496592 0.00670000017
v 0.0613556719 -0.0536496592 0.0126999998
v 0.061407547 -0.0533221436 0.00670000017
v 0.0613830376 -0.0534861279 0.0126999998
v 0.0614291906 -0.0531577587 0.00670000017
v 0.0614291906 -0.0531577587 0.0126999998
v 0.0614638519 -0.0528279781 0.00670000017
v 0.0614479589 -0.052993021 0.0126999998
v 0.06147686 -0.0526626873 0.00670000017
v 0.06147686 -0.0526626873 0.0126999998
v 0.0614942122 -0.052331543 0.00670000017
v 0.0614869785 -0.0524971914 0.0126999998
v 0.0614985514 -0.0521657991 0.00670000017
v 0.0614985514 -0.0521657991 0.0126999998
v 0.0614985514 -0.0518342018 0.00670000017
v 0.0614985514 -0.0518342018 0.0126999998
v 0.0614869785 -0.0515028095 0.00670000017
v 0.0614942122 -0.0516684532 0.0126999998
v 0.06147686 -0.0513373137 0.00670000017
v 0.06147686 -0.0513373137 0.0126999998
v 0.0614479589 -0.0510069799 0.00670000017
v 0.0614638519 -0.0511720228 0.0126999998
v 0.0614291906 -0.0508422422 0.00670000017
v 0.0614291906 -0.0508422422 0.0126999998
v 0.0613830376 -0.0505138731 0.00670000017
v 0.061407547 -0.0506778574 0.0126999998
v 0.0613556719 -0.0503503418 0.00670000017
v 0.0613556719 -0.0503503418 0.0126999998
v 0.0612924004 -0.0500248384 0.00670000017
v 0.0613254595 -0.0501873159 0.0126999998
v 0.0612565136 -0.0498629665 0.00670000017
v 0.0612565136 -0.0498629665 0.0126999998
v 0.061500001 -0.0519999981 0.00670000017
v 0.061500001 -0.0519999981 0.0126999998
f 1 2 3
f 1 42 2
f 3 265 1
f 41 42 1
f 1 257 41
f 1 265 257
f 3 2 4
f 258 4 2
f 246 2 42
f 258 2 246
f 3 4 5
f 5 273 3
f 3 273 265
f 5 4 6
f 266 6 4
f 266 4 258
f 5 6 7
f 7 285 5
f 5 285 273
f 7 6 8
f 274 8 6
f 274 6 266
f 7 8 9
f 9 293 7
f 7 293 285
f 9 8 10
f 286 10 8
f 286 8 274
f 9 10 11
f 11 305 9
f 9 305 293
f 11 10 12
f 294 12 10
f 294 10 286
f 11 12 13
f 259 11 13
f 259 305 11
f 13 12 14
f 306 14 12
f 306 12 294
f 13 14 15
f 13 15 259
f 15 14 16
f 314 16 14
f 314 14 306
f 15 16 17
f 259 15 17
f 17 16 18
f 322 18 16
f 322 16 314
f 17 18 19
f 17 19 259
f 19 18 20
f 332 20 18
f 332 18 322
f 19 20 21
f 259 19 21
f 21 20 22
f 342 22 20
f 330 20 332
f 342 20 330
f 21 22 23
f 259 21 23
f 23 22 24
f 350 24 22
f 350 22 342
f 23 24 25
f 259 23 25
f 25 24 26
f 358 26 24
f 358 24 350
f 25 26 27
f 259 25 27
f 27 26 28
f 366 28 26
f 366 26 358
f 27 28 29
f 259 27 29
f 29 28 30
f 374 30 28
f 374 28 366
f 29 30 31
f 259 29 31
f 31 30 32
f 386 32 30
f 386 30 374
f 31 32 33
f 259 31 33
f 33 32 34
f 394 34 32
f 394 32 386
f 33 34 35
f 259 33 35
f 35 34 36
f 406 36 34
f 406 34 394
f 35 36 43
f 259 35 43
f 43 36 44
f 414 44 36
f 414 36 406
f 37 38 39
f 37 54 38
f 39 229 37
f 53 54 37
f 37 205 53
f 37 229 205
f 39 38 40
f 206 40 38
f 202 38 54
f 206 38 202
f 39 40 41
f 41 245 39
f 39 245 229
f 41 40 42
f 230 42 40
f 230 40 206
f 41 257 245
f 246 42 230
f 43 44 45
f 259 43 45
f 45 44 46
f 422 46 44
f 422 44 414
f 45 46 47
f 259 45 47
f 47 46 48
f 434 48 46
f 434 46 422
f 47 48 55
f 259 47 55
f 55 48 56
f 450 56 48
f 450 48 434
f 49 50 51
f 49 66 50
f 51 197 49
f 65 66 49
f 49 189 65
f 49 197 189
f 51 50 52
f 190 52 50
f 192 50 66
f 190 50 192
f 51 52 53
f 53 201 51
f 51 201 197
f 53 52 54
f 198 54 52
f 198 52 190
f 53 205 201
f 202 54 198
f 55 56 57
f 55 57 259
f 57 56 58
f 474 58 56
f 474 56 450
f 57 58 59
f 259 57 59
f 59 58 60
f 480 60 58
f 480 58 474
f 59 60 67
f 259 59 67
f 67 60 68
f 484 68 60
f 484 60 480
f 61 62 63
f 61 76 62
f 63 185 61
f 75 76 61
f 61 181 75
f 61 185 181
f 63 62 64
f 182 64 62
f 178 62 76
f 182 62 178
f 63 64 65
f 65 191 63
f 63 191 185
f 65 64 66
f 186 66 64
f 186 64 182
f 65 189 191
f 192 66 186
f 67 68 69
f 67 69 259
f 69 68 70
f 486 70 68
f 486 68 484
f 69 70 71
f 259 69 71
f 71 70 72
f 492 72 70
f 492 70 486
f 71 72 77
f 77 249 71
f 71 249 247
f 71 247 259
f 77 72 78
f 72 250 78
f 72 248 250
f 72 260 248
f 496 260 72
f 496 72 492
f 73 74 75
f 73 84 74
f 75 177 73
f 83 84 73
f 73 173 83
f 73 177 173
f 75 74 76
f 174 76 74
f 170 74 84
f 174 74 170
f 75 181 177
f 178 76 174
f 77 78 79
f 79 209 77
f 77 209 207
f 77 207 235
f 77 233 231
f 77 231 249
f 77 235 233
f 79 78 80
f 78 210 80
f 78 208 210
f 78 236 208
f 78 232 234
f 78 250 232
f 78 234 236
f 79 80 85
f 85 211 79
f 79 211 209
f 85 80 86
f 80 212 86
f 80 210 212
f 81 82 83
f 81 92 82
f 83 169 81
f 91 92 81
f 81 161 91
f 81 169 161
f 83 82 84
f 162 84 82
f 164 82 92
f 162 82 164
f 83 173 169
f 170 84 162
f 85 86 87
f 87 215 85
f 85 213 211
f 85 215 213
f 87 86 88
f 86 216 88
f 86 212 214
f 86 214 216
f 87 88 93
f 93 217 87
f 87 217 215
f 93 88 94
f 88 218 94
f 88 216 218
f 89 90 91
f 89 98 90
f 91 163 89
f 97 98 89
f 89 157 97
f 89 163 157
f 91 90 92
f 158 92 90
f 154 90 98
f 158 90 154
f 91 161 163
f 164 92 158
f 93 94 95
f 95 219 93
f 219 217 93
f 95 94 96
f 94 220 96
f 94 218 220
f 95 96 99
f 99 223 95
f 95 221 219
f 95 223 221
f 99 96 100
f 96 224 100
f 220 222 96
f 96 222 224
f 97 104 98
f 103 104 97
f 97 153 103
f 97 157 153
f 150 98 104
f 154 98 150
f 99 100 105
f 105 225 99
f 225 223 99
f 105 100 106
f 100 226 106
f 100 224 226
f 101 102 103
f 101 112 102
f 103 149 101
f 111 112 101
f 101 141 111
f 101 149 141
f 103 102 104
f 142 104 102
f 144 102 112
f 142 102 144
f 103 153 149
f 150 104 142
f 105 106 107
f 107 239 105
f 105 237 225
f 105 239 237
f 107 106 108
f 106 240 108
f 106 226 238
f 238 240 106
f 107 108 113
f 113 241 107
f 107 241 239
f 113 108 114
f 108 242 114
f 240 242 108
f 109 110 111
f 109 120 110
f 111 143 109
f 119 120 109
f 109 133 119
f 109 143 133
f 111 110 112
f 134 112 110
f 136 110 120
f 134 110 136
f 111 141 143
f 144 112 134
f 113 114 115
f 115 251 113
f 113 251 241
f 115 114 116
f 114 252 116
f 114 242 252
f 115 116 121
f 121 253 115
f 253 251 115
f 121 116 122
f 116 254 122
f 116 252 254
f 117 118 119
f 117 128 118
f 119 135 117
f 117 125 127
f 117 135 125
f 127 128 117
f 119 118 120
f 126 120 118
f 126 118 128
f 119 133 135
f 136 120 126
f 121 122 123
f 123 253 121
f 123 122 124
f 122 254 124
f 123 124 129
f 261 123 129
f 123 261 253
f 129 124 130
f 124 262 130
f 124 254 262
f 125 126 127
f 125 136 126
f 135 136 125
f 127 126 128
f 129 130 131
f 261 129 131
f 131 130 132
f 130 262 132
f 131 132 137
f 269 131 137
f 261 131 269
f 137 132 138
f 132 270 138
f 132 262 270
f 133 134 135
f 133 144 134
f 143 144 133
f 135 134 136
f 137 138 139
f 269 137 139
f 139 138 140
f 138 270 140
f 139 140 145
f 281 139 145
f 269 139 279
f 279 139 281
f 145 140 146
f 140 282 146
f 140 270 280
f 280 282 140
f 141 142 143
f 141 150 142
f 149 150 141
f 143 142 144
f 145 146 147
f 289 145 147
f 281 145 289
f 147 146 148
f 146 290 148
f 282 290 146
f 147 148 151
f 289 147 151
f 151 148 152
f 148 290 152
f 149 154 150
f 153 154 149
f 151 152 155
f 309 151 155
f 289 151 299
f 299 151 301
f 301 151 309
f 155 152 156
f 152 310 156
f 152 290 300
f 300 302 152
f 152 302 310
f 153 158 154
f 157 158 153
f 155 156 159
f 317 155 159
f 309 155 317
f 159 156 160
f 156 318 160
f 156 310 318
f 157 164 158
f 163 164 157
f 159 160 165
f 335 159 165
f 317 159 325
f 325 159 335
f 165 160 166
f 160 336 166
f 318 326 160
f 160 326 336
f 161 162 163
f 161 170 162
f 169 170 161
f 163 162 164
f 165 166 167
f 335 165 167
f 167 166 168
f 166 336 168
f 167 168 171
f 353 167 171
f 335 167 345
f 345 167 353
f 171 168 172
f 168 354 172
f 168 336 346
f 168 346 354
f 169 174 170
f 173 174 169
f 171 172 175
f 369 171 175
f 353 171 361
f 361 171 369
f 175 172 176
f 172 370 176
f 172 354 362
f 172 362 370
f 173 178 174
f 177 178 173
f 175 176 179
f 381 175 179
f 369 175 381
f 179 176 180
f 176 382 180
f 176 370 382
f 177 182 178
f 181 182 177
f 179 180 183
f 179 183 607
f 381 179 379
f 379 179 389
f 389 179 401
f 401 179 399
f 399 179 409
f 409 179 417
f 417 179 607
f 183 180 184
f 180 418 184
f 180 382 380
f 380 390 180
f 390 402 180
f 180 402 400
f 400 410 180
f 410 418 180
f 181 186 182
f 185 186 181
f 183 184 187
f 609 183 187
f 607 183 609
f 187 184 188
f 184 418 188
f 185 192 186
f 191 192 185
f 187 188 193
f 611 187 193
f 609 187 611
f 193 188 194
f 188 418 194
f 189 190 191
f 189 198 190
f 197 198 189
f 191 190 192
f 193 194 195
f 619 193 195
f 611 193 619
f 195 194 196
f 194 418 196
f 195 196 199
f 621 195 199
f 619 195 621
f 199 196 200
f 196 418 200
f 197 202 198
f 201 202 197
f 199 200 203
f 623 199 203
f 621 199 623
f 203 200 204
f 200 418 204
f 201 206 202
f 205 206 201
f 203 204 227
f 631 203 227
f 623 203 631
f 227 204 228
f 204 418 228
f 205 230 206
f 229 230 205
f 207 210 208
f 207 208 235
f 209 210 207
f 235 208 236
f 209 212 210
f 211 212 209
f 211 214 212
f 213 214 211
f 213 216 214
f 215 216 213
f 215 218 216
f 217 218 215
f 217 220 218
f 219 220 217
f 219 222 220
f 221 222 219
f 221 224 222
f 223 224 221
f 223 226 224
f 225 226 223
f 225 238 226
f 237 238 225
f 227 228 243
f 633 227 243
f 631 227 633
f 243 228 244
f 228 418 244
f 229 246 230
f 245 246 229
f 231 234 232
f 231 232 249
f 233 234 231
f 249 232 250
f 233 236 234
f 235 236 233
f 237 240 238
f 239 240 237
f 239 242 240
f 241 242 239
f 241 252 242
f 251 252 241
f 243 244 255
f 635 243 255
f 633 243 635
f 255 244 256
f 244 418 256
f 245 258 246
f 257 258 245
f 247 250 248
f 247 248 259
f 249 250 247
f 259 248 260
f 251 254 252
f 253 254 251
f 253 262 254
f 261 262 253
f 255 256 263
f 643 255 263
f 635 255 643
f 263 256 264
f 256 418 264
f 257 266 258
f 265 266 257
f 259 260 267
f 267 305 259
f 267 260 268
f 496 268 260
f 261 270 262
f 269 270 261
f 263 264 271
f 645 263 271
f 643 263 645
f 271 264 272
f 264 418 272
f 265 274 266
f 273 274 265
f 267 268 277
f 277 305 267
f 277 268 278
f 496 278 268
f 269 280 270
f 279 280 269
f 271 272 283
f 647 271 283
f 645 271 647
f 283 272 284
f 272 418 284
f 273 286 274
f 285 286 273
f 275 278 276
f 275 276 287
f 277 278 275
f 275 305 277
f 287 305 275
f 500 276 278
f 287 276 288
f 500 288 276
f 500 278 496
f 279 282 280
f 281 282 279
f 281 290 282
f 289 290 281
f 283 284 291
f 649 283 291
f 647 283 649
f 291 284 292
f 284 418 292
f 285 294 286
f 293 294 285
f 287 288 297
f 297 305 287
f 297 288 298
f 500 298 288
f 289 300 290
f 299 300 289
f 291 292 303
f 651 291 303
f 649 291 651
f 303 292 304
f 292 418 304
f 293 306 294
f 305 306 293
f 295 298 296
f 295 296 307
f 297 298 295
f 295 305 297
f 307 305 295
f 500 296 298
f 307 296 308
f 500 308 296
f 299 302 300
f 301 302 299
f 301 310 302
f 309 310 301
f 303 304 311
f 653 303 311
f 651 303 653
f 311 304 312
f 304 418 312
f 305 314 306
f 315 305 307
f 313 314 305
f 323 313 305
f 323 305 315
f 307 308 315
f 315 308 316
f 504 316 308
f 504 308 500
f 309 318 310
f 317 318 309
f 311 312 319
f 655 311 319
f 653 311 655
f 319 312 320
f 312 418 320
f 313 322 314
f 321 322 313
f 333 321 313
f 333 313 323
f 315 316 323
f 323 316 324
f 508 324 316
f 508 316 504
f 317 326 318
f 325 326 317
f 319 320 327
f 657 319 327
f 655 319 657
f 327 320 328
f 320 418 328
f 321 332 322
f 331 332 321
f 333 331 321
f 323 324 333
f 333 324 334
f 508 334 324
f 325 336 326
f 335 336 325
f 327 328 337
f 659 327 337
f 657 327 659
f 337 328 338
f 328 418 338
f 329 330 331
f 329 342 330
f 333 329 331
f 333 341 329
f 341 342 329
f 331 330 332
f 333 334 343
f 343 341 333
f 343 334 344
f 344 334 512
f 512 334 508
f 335 346 336
f 345 346 335
f 337 338 339
f 679 337 339
f 659 337 679
f 339 338 340
f 338 418 340
f 339 340 347
f 661 339 347
f 679 339 661
f 347 340 348
f 340 418 348
f 341 350 342
f 343 349 341
f 349 350 341
f 343 344 351
f 343 357 349
f 351 365 343
f 343 365 357
f 351 344 352
f 352 344 514
f 514 344 512
f 345 354 346
f 353 354 345
f 347 348 355
f 663 347 355
f 661 347 663
f 355 348 356
f 348 418 356
f 349 358 350
f 357 358 349
f 351 352 359
f 359 393 351
f 351 373 365
f 351 385 373
f 351 393 385
f 359 352 360
f 520 360 352
f 520 352 514
f 353 362 354
f 361 362 353
f 355 356 363
f 665 355 363
f 663 355 665
f 363 356 364
f 356 418 364
f 357 366 358
f 365 366 357
f 359 360 367
f 367 421 359
f 359 405 393
f 359 413 405
f 359 421 413
f 367 360 368
f 520 368 360
f 361 370 362
f 369 370 361
f 363 364 371
f 667 363 371
f 665 363 667
f 371 364 372
f 364 418 372
f 365 374 366
f 373 374 365
f 367 368 375
f 375 473 367
f 367 433 421
f 367 449 433
f 367 473 449
f 375 368 376
f 376 368 524
f 524 368 520
f 369 382 370
f 381 382 369
f 371 372 383
f 669 371 383
f 667 371 669
f 383 372 384
f 372 418 384
f 373 386 374
f 385 386 373
f 375 376 377
f 377 491 375
f 375 479 473
f 375 483 479
f 375 485 483
f 375 491 485
f 377 376 378
f 528 378 376
f 528 376 524
f 377 378 387
f 387 495 377
f 377 495 491
f 387 378 388
f 528 388 378
f 379 380 381
f 379 390 380
f 389 390 379
f 381 380 382
f 383 384 391
f 671 383 391
f 669 383 671
f 391 384 392
f 384 418 392
f 385 394 386
f 393 394 385
f 387 388 395
f 395 507 387
f 387 499 495
f 387 503 499
f 387 507 503
f 395 388 396
f 532 396 388
f 532 388 528
f 389 402 390
f 401 402 389
f 391 392 403
f 673 391 403
f 671 391 673
f 403 392 404
f 392 418 404
f 393 406 394
f 405 406 393
f 395 396 397
f 397 519 395
f 395 511 507
f 395 513 511
f 395 519 513
f 397 396 398
f 534 398 396
f 534 396 532
f 397 398 407
f 407 523 397
f 397 523 519
f 407 398 408
f 408 398 540
f 540 398 534
f 399 400 401
f 399 410 400
f 409 410 399
f 401 400 402
f 403 404 411
f 675 403 411
f 673 403 675
f 411 404 412
f 404 418 412
f 405 414 406
f 413 414 405
f 407 408 415
f 415 539 407
f 407 527 523
f 407 531 527
f 407 533 531
f 407 539 533
f 415 408 416
f 548 416 408
f 542 408 540
f 548 408 542
f 409 418 410
f 417 418 409
f 411 412 419
f 677 411 419
f 675 411 677
f 412 418 420
f 419 412 420
f 413 422 414
f 421 422 413
f 415 416 423
f 423 563 415
f 415 541 539
f 415 547 541
f 415 549 547
f 415 555 549
f 415 557 555
f 415 563 557
f 423 416 424
f 424 416 556
f 550 416 548
f 556 416 550
f 417 430 418
f 429 430 417
f 417 607 429
f 420 418 432
f 568 418 430
f 432 418 448
f 448 418 472
f 472 418 478
f 478 418 482
f 482 418 490
f 490 418 488
f 488 418 494
f 494 418 498
f 498 418 502
f 502 418 506
f 506 418 510
f 510 418 518
f 518 418 516
f 516 418 522
f 522 418 526
f 526 418 530
f 530 418 538
f 538 418 536
f 536 418 546
f 546 418 544
f 544 418 554
f 554 418 552
f 552 418 562
f 562 418 560
f 560 418 570
f 570 418 568
f 419 420 431
f 637 419 431
f 677 419 637
f 431 420 432
f 421 434 422
f 433 434 421
f 423 424 425
f 425 579 423
f 423 565 563
f 423 571 565
f 423 573 571
f 423 579 573
f 425 424 426
f 426 424 564
f 558 424 556
f 564 424 558
f 425 426 435
f 435 583 425
f 425 583 579
f 435 426 436
f 564 436 426
f 427 428 429
f 427 446 428
f 429 607 427
f 445 446 427
f 427 607 445
f 429 428 430
f 590 430 428
f 588 428 446
f 590 428 588
f 568 430 578
f 578 430 576
f 576 430 582
f 582 430 590
f 431 432 447
f 639 431 447
f 637 431 639
f 447 432 448
f 433 450 434
f 449 450 433
f 435 436 437
f 437 593 435
f 435 585 583
f 435 591 585
f 435 593 591
f 437 436 438
f 566 438 436
f 566 436 564
f 437 438 439
f 439 607 437
f 437 599 593
f 437 601 599
f 437 607 601
f 439 438 440
f 574 440 438
f 572 438 566
f 574 438 572
f 439 440 451
f 451 607 439
f 451 440 452
f 574 452 440
f 441 442 443
f 441 470 442
f 443 607 441
f 469 470 441
f 441 607 469
f 443 442 444
f 616 444 442
f 614 442 470
f 616 442 614
f 443 444 445
f 445 607 443
f 445 444 446
f 596 446 444
f 596 444 606
f 606 444 604
f 604 444 618
f 618 444 616
f 588 446 598
f 598 446 596
f 447 448 471
f 641 447 471
f 639 447 641
f 471 448 472
f 449 474 450
f 473 474 449
f 451 452 453
f 453 607 451
f 453 452 454
f 574 454 452
f 453 454 455
f 455 607 453
f 455 454 456
f 456 454 580
f 580 454 574
f 455 456 457
f 457 607 455
f 457 456 458
f 624 458 456
f 584 456 580
f 586 456 584
f 592 456 586
f 594 456 592
f 600 456 594
f 602 456 600
f 608 456 602
f 610 456 608
f 612 456 610
f 620 456 612
f 622 456 620
f 624 456 622
f 457 458 459
f 459 607 457
f 459 458 460
f 654 460 458
f 632 458 624
f 634 458 632
f 636 458 634
f 644 458 636
f 646 458 644
f 648 458 646
f 650 458 648
f 652 458 650
f 654 458 652
f 459 460 475
f 475 607 459
f 475 460 476
f 660 476 460
f 656 460 654
f 658 460 656
f 660 460 658
f 461 462 463
f 461 476 462
f 463 607 461
f 475 476 461
f 461 607 475
f 463 462 464
f 666 464 462
f 680 462 476
f 664 462 662
f 662 462 680
f 666 462 664
f 463 464 465
f 465 607 463
f 465 464 466
f 672 466 464
f 668 464 666
f 670 464 668
f 672 464 670
f 465 466 467
f 467 607 465
f 467 466 468
f 638 468 466
f 638 466 678
f 674 466 672
f 676 466 674
f 678 466 676
f 467 468 469
f 469 607 467
f 469 468 470
f 626 470 468
f 626 468 642
f 640 468 638
f 642 468 640
f 614 470 630
f 628 470 626
f 630 470 628
f 471 472 477
f 625 471 477
f 641 471 625
f 477 472 478
f 473 480 474
f 479 480 473
f 680 476 660
f 477 478 481
f 627 477 481
f 625 477 627
f 481 478 482
f 479 484 480
f 483 484 479
f 481 482 489
f 629 481 489
f 627 481 629
f 489 482 490
f 483 486 484
f 485 486 483
f 485 492 486
f 491 492 485
f 487 490 488
f 487 488 493
f 489 490 487
f 613 489 487
f 615 487 493
f 613 487 615
f 493 488 494
f 629 489 613
f 491 496 492
f 495 496 491
f 493 494 497
f 617 493 497
f 615 493 617
f 497 494 498
f 495 500 496
f 499 500 495
f 497 498 501
f 603 497 501
f 617 497 603
f 501 498 502
f 499 504 500
f 503 504 499
f 501 502 505
f 605 501 505
f 603 501 605
f 505 502 506
f 503 508 504
f 507 508 503
f 505 506 509
f 595 505 509
f 605 505 595
f 509 506 510
f 507 512 508
f 511 512 507
f 509 510 517
f 597 509 517
f 595 509 597
f 517 510 518
f 511 514 512
f 513 514 511
f 513 520 514
f 519 520 513
f 515 518 516
f 515 516 521
f 517 518 515
f 587 517 515
f 589 515 521
f 587 515 589
f 521 516 522
f 597 517 587
f 519 524 520
f 523 524 519
f 521 522 525
f 581 521 525
f 589 521 581
f 525 522 526
f 523 528 524
f 527 528 523
f 525 526 529
f 575 525 529
f 581 525 575
f 529 526 530
f 527 532 528
f 531 532 527
f 529 530 537
f 577 529 537
f 575 529 577
f 537 530 538
f 531 534 532
f 533 534 531
f 533 540 534
f 539 540 533
f 535 538 536
f 535 536 545
f 537 538 535
f 567 537 535
f 569 535 545
f 567 535 569
f 545 536 546
f 577 537 567
f 539 542 540
f 541 542 539
f 541 548 542
f 547 548 541
f 543 546 544
f 543 544 553
f 545 546 543
f 559 545 543
f 561 543 553
f 559 543 561
f 553 544 554
f 569 545 559
f 547 550 548
f 549 550 547
f 549 556 550
f 555 556 549
f 551 554 552
f 551 552 561
f 553 554 551
f 561 553 551
f 561 552 562
f 555 558 556
f 557 558 555
f 557 564 558
f 563 564 557
f 559 562 560
f 559 560 569
f 561 562 559
f 569 560 570
f 563 566 564
f 565 566 563
f 565 572 566
f 571 572 565
f 567 570 568
f 567 568 577
f 569 570 567
f 577 568 578
f 571 574 572
f 573 574 571
f 573 580 574
f 579 580 573
f 575 578 576
f 575 576 581
f 577 578 575
f 581 576 582
f 579 584 580
f 583 584 579
f 581 582 589
f 589 582 590
f 583 586 584
f 585 586 583
f 585 592 586
f 591 592 585
f 587 590 588
f 587 588 597
f 589 590 587
f 597 588 598
f 591 594 592
f 593 594 591
f 593 600 594
f 599 600 593
f 595 598 596
f 595 596 605
f 597 598 595
f 605 596 606
f 599 602 600
f 601 602 599
f 601 608 602
f 607 608 601
f 603 606 604
f 603 604 617
f 605 606 603
f 617 604 618
f 607 610 608
f 609 610 607
f 609 612 610
f 611 612 609
f 611 620 612
f 619 620 611
f 613 616 614
f 613 614 629
f 615 616 613
f 629 614 630
f 615 618 616
f 617 618 615
f 619 622 620
f 621 622 619
f 621 624 622
f 623 624 621
f 623 632 624
f 631 632 623
f 625 628 626
f 625 626 641
f 627 628 625
f 641 626 642
f 627 630 628
f 629 630 627
f 631 634 632
f 633 634 631
f 633 636 634
f 635 636 633
f 635 644 636
f 643 644 635
f 637 640 638
f 637 638 677
f 639 640 637
f 677 638 678
f 639 642 640
f 641 642 639
f 643 646 644
f 645 646 643
f 645 648 646
f 647 648 645
f 647 650 648
f 649 650 647
f 649 652 650
f 651 652 649
f 651 654 652
f 653 654 651
f 653 656 654
f 655 656 653
f 655 658 656
f 657 658 655
f 657 660 658
f 659 660 657
f 659 680 660
f 679 680 659
f 661 664 662
f 661 662 679
f 663 664 661
f 679 662 680
f 663 666 664
f 665 666 663
f 665 668 666
f 667 668 665
f 667 670 668
f 669 670 667
f 669 672 670
f 671 672 669
f 671 674 672
f 673 674 671
f 673 676 674
f 675 676 673
f 675 678 676
f 677 678 675
