v -0.0158507318 -0.00218043518 0.020999999
v -0.0158507318 -0.00218043518 0.025999999
v -0.0159918172 0.000511637215 0.020999999
v -0.0159918172 0.000511637215 0.025999999
v -0.0159576936 0.00116276551 0.020999999
v -0.0159576936 0.00116276551 0.025999999
v -0.0157487328 -0.00282442998 0.020999999
v -0.0157487328 -0.00282442998 0.025999999
v -0.0155216355 0.000262046342 0.020999999
v -0.0155216355 0.000262046342 0.025999999
v -0.0155359824 0.00382534314 0.020999999
v -0.0155359824 0.00382534314 0.025999999
v -0.0154092152 -0.00188306283 0.020999999
v -0.0154092152 -0.00188306283 0.025999999
v -0.0154639978 0.00136184264 0.020999999
v -0.0154639978 0.00136184264 0.025999999
v -0.0153672273 0.00445514727 0.020999999
v -0.0153672273 0.00445514727 0.025999999
v -0.0150510175 -0.00542833995 0.020999999
v -0.0150510175 -0.00542833995 0.025999999
v -0.0152369327 -0.00297080946 0.020999999
v -0.0152369327 -0.00297080946 0.025999999
v -0.0150475843 5.77478454e-05 0.020999999
v -0.0150475843 5.77478454e-05 0.025999999
v -0.0151279683 0.00348344851 0.020999999
v -0.0151279683 0.00348344851 0.025999999
v -0.0148173542 -0.00603705358 0.020999999
v -0.0148173542 -0.00603705358 0.025999999
v -0.0149591155 -0.00163033199 0.020999999
v -0.0149591155 -0.00163033199 0.025999999
v -0.0149711878 0.00151546765 0.020999999
v -0.0149711878 0.00151546765 0.025999999
v -0.0148429294 0.00454722929 0.020999999
v -0.0148429294 0.00454722929 0.025999999
v -0.0146809764 -0.0050456686 0.020999999
v -0.0146809764 -0.0050456686 0.025999999
v -0.0147307641 -0.00307208252 0.020999999
v -0.0147307641 -0.00307208252 0.025999999
v -0.0145012708 -0.00142933321 0.020999999
v -0.0145012708 -0.00142933321 0.025999999
v -0.0145712371 -9.42916825e-05 0.020999999
v -0.0145712371 -9.42916825e-05 0.025999999
v -0.0147067518 0.00318505574 0.020999999
v -0.0147067518 0.00318505574 0.025999999
v -0.014286303 -0.00607382726 0.020999999
v -0.014286303 -0.00607382726 0.025999999
v -0.0142932577 -0.00470488023 0.020999999
v -0.0142932577 -0.00470488023 0.025999999
v -0.0144815583 0.00161688376 0.020999999
v -0.0144815583 0.00161688376 0.025999999
v -0.0142724247 0.0029372983 0.020999999
v -0.0142724247 0.0029372983 0.025999999
v -0.0143289478 0.00459503699 0.020999999
v -0.0143289478 0.00459503699 0.025999999
v -0.0144011505 0.0069718628 0.020999999
v -0.0144011505 0.0069718628 0.025999999
v -0.0142332168 -0.00312176179 0.020999999
v -0.0142332168 -0.00312176179 0.025999999
v -0.0140351529 -0.00130171251 0.020999999
v -0.0140351529 -0.00130171251 0.025999999
v -0.0140943332 -0.000172490592 0.020999999
v -0.0140943332 -0.000172490592 0.025999999
v -0.0140731354 0.00655260849 0.020999999
v -0.0140731354 0.00655260849 0.025999999
v -0.0141051383 0.00755281735 0.020999999
v -0.0141051383 0.00755281735 0.025999999
v -0.0137701411 -0.00606764745 0.020999999
v -0.0137701411 -0.00606764745 0.025999999
v -0.013887207 -0.00441308212 0.020999999
v -0.013887207 -0.00441308212 0.025999999
v -0.0137504764 -0.00309909772 0.020999999
v -0.0137504764 -0.00309909772 0.025999999
v -0.0139990945 0.00164480496 0.020999999
v -0.0139990945 0.00164480496 0.025999999
v -0.0138222022 0.00276165534 0.020999999
v -0.0138222022 0.00276165534 0.025999999
v -0.0138289328 0.00459243823 0.020999999
v -0.0138289328 0.00459243823 0.025999999
v -0.0135935016 -0.00843899917 0.020999999
v -0.0135935016 -0.00843899917 0.025999999
v -0.0136912413 -0.00126981687 0.020999999
v -0.0136912413 -0.00126981687 0.025999999
v -0.0137489696 -0.000168263431 0.020999999
v -0.0137489696 -0.000168263431 0.025999999
v -0.0136560626 0.0016045003 0.020999999
v -0.0136560626 0.0016045003 0.025999999
v -0.0137231631 0.00617316056 0.020999999
v -0.0137231631 0.00617316056 0.025999999
v -0.0135731525 0.00753388215 0.020999999
v -0.0135731525 0.00753388215 0.025999999
v -0.0133111091 -0.00798775625 0.020999999
v -0.0133111091 -0.00798775625 0.025999999
v -0.0132731361 -0.00601279687 0.020999999
v -0.0132731361 -0.00601279687 0.025999999
v -0.0134578104 -0.00419134092 0.020999999
v -0.0134578104 -0.00419134092 0.025999999
v -0.0134135385 -0.00302315902 0.020999999
v -0.0134135385 -0.00302315902 0.025999999
v -0.0134835072 0.00269398499 0.020999999
v -0.0134835072 0.00269398499 0.025999999
v -0.0133512063 0.00451943684 0.020999999
v -0.0133512063 0.00451943684 0.025999999
v -0.0133498402 0.00584051419 0.020999999
v -0.0133498402 0.00584051419 0.025999999
v -0.0132383842 -0.00898583126 0.020999999
v -0.0132383842 -0.00898583126 0.025999999
v -0.0130027146 -0.00757380437 0.020999999
v -0.0130027146 -0.00757380437 0.025999999
v -0.0131280441 -0.00408863735 0.020999999
v -0.0131280441 -0.00408863735 0.025999999
v -0.0130240507 0.00440869379 0.020999999
v -0.0130240507 0.00440869379 0.025999999
v -0.0130604644 0.00747378159 0.020999999
v -0.0130604644 0.00747378159 0.025999999
v -0.0128056569 -0.00589026165 0.020999999
v -0.0128056569 -0.00589026165 0.025999999
v -0.0129459734 0.00557510424 0.020999999
v -0.0129459734 0.00557510424 0.025999999
v -0.0127112932 -0.00891138982 0.020999999
v -0.0127112932 -0.00891138982 0.025999999
v -0.0126662083 -0.00720395994 0.020999999
v -0.0126662083 -0.00720395994 0.025999999
v -0.0126287479 0.00543849278 0.020999999
v -0.0126287479 0.00543849278 0.025999999
v -0.0125719161 0.00736728001 0.020999999
v -0.0125719161 0.00736728001 0.025999999
v -0.0126369185 0.00981367875 0.020999999
v -0.0126369185 0.00981367875 0.025999999
v -0.0122922964 -0.00689778518 0.020999999
v -0.0122922964 -0.00689778518 0.025999999
v -0.0124918694 -0.00574592781 0.020999999
v -0.0124918694 -0.00574592781 0.025999999
v -0.0124032397 0.00933538723 0.020999999
v -0.0124032397 0.00933538723 0.025999999
v -0.0122076936 -0.00879802894 0.020999999
v -0.0122076936 -0.00879802894 0.025999999
v -0.0121198053 0.00719654847 0.020999999
v -0.0121198053 0.00719654847 0.025999999
v -0.0121398063 0.00889146615 0.020999999
v -0.0121398063 0.00889146615 0.025999999
v -0.0122265882 0.0103203945 0.020999999
v -0.0122265882 0.0103203945 0.025999999
v -0.0119910903 -0.0067287631 0.020999999
v -0.0119910903 -0.0067287631 0.025999999
v -0.0118228264 0.00702020455 0.020999999
v -0.0118228264 0.00702020455 0.025999999
v -0.0118438024 0.00848847199 0.020999999
v -0.0118438024 0.00848847199 0.025999999
v -0.0115418835 -0.0110808344 0.020999999
v -0.0115418835 -0.0110808344 0.025999999
v -0.0117329545 -0.00864104223 0.020999999
v -0.0117329545 -0.00864104223 0.025999999
v -0.0115039439 0.00814489174 0.020999999
v -0.0115039439 0.00814489174 0.025999999
v -0.0117101664 0.0101912622 0.020999999
v -0.0117101664 0.0101912622 0.025999999
v -0.0113594813 -0.0105807395 0.020999999
v -0.0113594813 -0.0105807395 0.025999999
v -0.0113011689 -0.00842399072 0.020999999
v -0.0113011689 -0.00842399072 0.025999999
v -0.0110808344 -0.0115418835 0.020999999
v -0.0110808344 -0.0115418835 0.025999999
v -0.0111438937 -0.0101117153 0.020999999
v -0.0111438937 -0.0101117153 0.025999999
v -0.0110242481 -0.0082175703 0.020999999
v -0.0110242481 -0.0082175703 0.025999999
v -0.0112220545 0.00794531155 0.020999999
v -0.0112220545 0.00794531155 0.025999999
v -0.0112211747 0.0100258856 0.020999999
v -0.0112211747 0.0100258856 0.025999999
v -0.0108916326 -0.00967998695 0.020999999
v -0.0108916326 -0.00967998695 0.025999999
v -0.0107654448 0.00982013512 0.020999999
v -0.0107654448 0.00982013512 0.025999999
v -0.0105807395 -0.0113594813 0.020999999
v -0.0105807395 -0.0113594813 0.025999999
v -0.0105895514 -0.00930276346 0.020999999
v -0.0105895514 -0.00930276346 0.025999999
v -0.0103300662 -0.00907481145 0.020999999
v -0.0103300662 -0.00907481145 0.025999999
v -0.0103587122 0.0095591383 0.020999999
v -0.0103587122 0.0095591383 0.025999999
v -0.0103203936 0.0122265892 0.020999999
v -0.0103203936 0.0122265892 0.025999999
v -0.0101117153 -0.0111438937 0.020999999
v -0.0101117153 -0.0111438937 0.025999999
v -0.0101048846 0.00932490159 0.020999999
v -0.0101048846 0.00932490159 0.025999999
v -0.0100258846 0.0112211733 0.020999999
v -0.0100258846 0.0112211733 0.025999999
v -0.0101912637 0.011710165 0.020999999
v -0.0101912637 0.011710165 0.025999999
v -0.00982013416 0.0107654457 0.020999999
v -0.00982013416 0.0107654457 0.025999999
v -0.00981367778 0.0126369171 0.020999999
v -0.00981367778 0.0126369171 0.025999999
v -0.00967998695 -0.0108916326 0.020999999
v -0.00967998695 -0.0108916326 0.025999999
v -0.00955913496 0.0103587132 0.020999999
v -0.00955913496 0.0103587132 0.025999999
v -0.00930276346 -0.0105895514 0.020999999
v -0.00930276346 -0.0105895514 0.025999999
v -0.00932490062 0.0101048832 0.020999999
v -0.00932490062 0.0101048832 0.025999999
v -0.00933538627 0.0124032383 0.020999999
v -0.00933538627 0.0124032383 0.025999999
v -0.00907481145 -0.0103300662 0.020999999
v -0.00907481145 -0.0103300662 0.025999999
v -0.00898583126 -0.0132383842 0.020999999
v -0.00898583126 -0.0132383842 0.025999999
v -0.00891138982 -0.0127112932 0.020999999
v -0.00891138982 -0.0127112932 0.025999999
v -0.00879802894 -0.0122076936 0.020999999
v -0.00879802894 -0.0122076936 0.025999999
v -0.00889146757 0.0121398096 0.020999999
v -0.00889146757 0.0121398096 0.025999999
v -0.00864104223 -0.0117329545 0.020999999
v -0.00864104223 -0.0117329545 0.025999999
v -0.00843899917 -0.0135935016 0.020999999
v -0.00843899917 -0.0135935016 0.025999999
v -0.00842399072 -0.0113011689 0.020999999
v -0.00842399072 -0.0113011689 0.025999999
v -0.00848847341 0.0118438034 0.020999999
v -0.00848847341 0.0118438034 0.025999999
v -0.0082175703 -0.0110242481 0.020999999
v -0.0082175703 -0.0110242481 0.025999999
v -0.00814489316 0.0115039425 0.020999999
v -0.00814489316 0.0115039425 0.025999999
v -0.00798775625 -0.0133111091 0.020999999
v -0.00798775625 -0.0133111091 0.025999999
v -0.00794531297 0.0112220554 0.020999999
v -0.00794531297 0.0112220554 0.025999999
v -0.00757380437 -0.0130027146 0.020999999
v -0.00757380437 -0.0130027146 0.025999999
v -0.0075338788 0.0135731535 0.020999999
v -0.0075338788 0.0135731535 0.025999999
v -0.00755281877 0.0141051369 0.020999999
v -0.00755281877 0.0141051369 0.025999999
v -0.00736727905 0.0125719147 0.020999999
v -0.00736727905 0.0125719147 0.025999999
v -0.00747378063 0.013060463 0.020999999
v -0.00747378063 0.013060463 0.025999999
v -0.00720395994 -0.0126662083 0.020999999
v -0.00720395994 -0.0126662083 0.025999999
v -0.00702740621 -0.00650971603 0.020999999
v -0.00700286102 -0.00656753969 0.025999999
v -0.00708375883 -0.00626562547 0.020999999
v -0.00703290653 -0.00649500322 0.025999999
v -0.00706751775 -0.00600006294 0.020999999
v -0.00708499145 -0.00624996614 0.025999999
v -0.00700286102 -0.00580682706 0.020999999
v -0.0070641179 -0.00598472785 0.025999999
v -0.00700286102 0.00580682564 0.020999999
v -0.00700286102 0.00580682564 0.025999999
v -0.00706751775 0.0060000639 0.020999999
v -0.00706751775 0.0060000639 0.025999999
v -0.00708375883 0.00626562405 0.020999999
v -0.00708375883 0.00626562405 0.025999999
v -0.00702740621 0.00650971699 0.020999999
v -0.00702740621 0.00650971699 0.025999999
v -0.00702020597 0.0118228273 0.020999999
v -0.00702020597 0.0118228273 0.025999999
v -0.0071965475 0.0121198063 0.020999999
v -0.0071965475 0.0121198063 0.025999999
v -0.00689778518 -0.0122922964 0.020999999
v -0.00689778518 -0.0122922964 0.025999999
v -0.00682357978 -0.00682357978 0.020999999
v -0.00682357978 -0.00682357978 0.025999999
v -0.00699609947 -0.00658171844 0.020999999
v -0.0068963952 -0.00674128007 0.025999999
v -0.00697434139 -0.00575085592 0.020999999
v -0.00699609947 -0.0057926507 0.025999999
v -0.00677763652 -0.00550794553 0.020999999
v -0.00696660709 -0.005737185 0.025999999
v -0.00675357294 -0.00548775386 0.020999999
v -0.00676569414 -0.0054977436 0.025999999
v -0.00675357294 0.00548775244 0.020999999
v -0.00675357294 0.00548775244 0.025999999
v -0.00682357978 0.00555078793 0.020999999
v -0.00682357978 0.00555078793 0.025999999
v -0.00697434139 0.0057508545 0.020999999
v -0.00697434139 0.0057508545 0.025999999
v -0.00699609947 0.0065817194 0.020999999
v -0.00699609947 0.0065817194 0.025999999
v -0.00688661527 0.00675357151 0.020999999
v -0.00688661527 0.00675357151 0.025999999
v -0.00697186183 0.0144011526 0.020999999
v -0.00697186183 0.0144011526 0.025999999
v -0.0067287631 -0.0119910903 0.020999999
v -0.0067287631 -0.0119910903 0.025999999
v -0.00656753969 -0.00700286102 0.020999999
v -0.00650971603 -0.00702740621 0.025999999
v -0.00674128007 -0.0068963952 0.020999999
v -0.00658171844 -0.00699609947 0.025999999
v -0.00650971603 -0.00534696292 0.020999999
v -0.00674128007 -0.00547797393 0.025999999
v -0.00650971603 0.0053469615 0.020999999
v -0.00650971603 0.0053469615 0.025999999
v -0.00674128007 0.00689639378 0.020999999
v -0.00674128007 0.00689639378 0.025999999
v -0.00656753969 0.00700286198 0.020999999
v -0.00656753969 0.00700286198 0.025999999
v -0.00655260753 0.0140731363 0.020999999
v -0.00655260753 0.0140731363 0.025999999
v -0.00649500322 -0.00703290653 0.020999999
v -0.00626562547 -0.00708375883 0.025999999
v -0.00626562547 -0.00529060792 0.020999999
v -0.00649500322 -0.00534146022 0.025999999
v -0.00626562547 0.00529060889 0.020999999
v -0.00626562547 0.00529060889 0.025999999
v -0.00649500322 0.00703290749 0.020999999
v -0.00649500322 0.00703290749 0.025999999
v -0.00603705358 -0.0148173542 0.020999999
v -0.00603705358 -0.0148173542 0.025999999
v -0.00607382726 -0.014286303 0.020999999
v -0.00607382726 -0.014286303 0.025999999
v -0.00606764745 -0.0137701411 0.020999999
v -0.00606764745 -0.0137701411 0.025999999
v -0.00601279687 -0.0132731361 0.020999999
v -0.00601279687 -0.0132731361 0.025999999
v -0.00624996614 -0.00708499145 0.020999999
v -0.00600006294 -0.00706751775 0.025999999
v -0.00600006294 -0.00530685138 0.020999999
v -0.00624996614 -0.00528937768 0.025999999
v -0.00600006294 0.00530685235 0.020999999
v -0.00600006294 0.00530685235 0.025999999
v -0.00624996614 0.00708499241 0.020999999
v -0.00624996614 0.00708499241 0.025999999
v -0.00617315959 0.0137231617 0.020999999
v -0.00617315959 0.0137231617 0.025999999
v -0.00589026165 -0.0128056569 0.020999999
v -0.00589026165 -0.0128056569 0.025999999
v -0.00598472785 -0.0070641179 0.020999999
v -0.00580682706 -0.00700286102 0.025999999
v -0.0057926507 -0.00699609947 0.020999999
v -0.00575085592 -0.00697434139 0.025999999
v -0.00575085592 -0.00540002775 0.020999999
v -0.00598472785 -0.00531025123 0.025999999
v -0.00575085592 0.00540002633 0.020999999
v -0.00575085592 0.00540002633 0.025999999
v -0.0057926507 0.00699610043 0.020999999
v -0.0057926507 0.00699610043 0.025999999
v -0.00598472785 0.00706411648 0.020999999
v -0.00598472785 0.00706411648 0.025999999
v -0.00584051561 0.0133498411 0.020999999
v -0.00584051561 0.0133498411 0.025999999
v -0.00574592781 -0.0124918694 0.020999999
v -0.00574592781 -0.0124918694 0.025999999
v -0.005737185 -0.00696660709 0.020999999
v -0.00550794553 -0.00677763652 0.025999999
v -0.00550794553 -0.00559673023 0.020999999
v -0.00559673023 -0.00550794553 0.025999999
v -0.005608675 -0.0054977436 0.020999999
v -0.005737185 -0.00540776205 0.025999999
v -0.005608675 0.00549774456 0.020999999
v -0.005608675 0.00549774456 0.025999999
v -0.00550794553 0.00559673119 0.020999999
v -0.00550794553 0.00559673119 0.025999999
v -0.005737185 0.00696660805 0.020999999
v -0.005737185 0.00696660805 0.025999999
v -0.00557510328 0.0129459744 0.020999999
v -0.00557510328 0.0129459744 0.025999999
v -0.00542833995 -0.0150510175 0.020999999
v -0.00542833995 -0.0150510175 0.025999999
v -0.0054977436 -0.00676569414 0.020999999
v -0.00548775386 -0.00675357294 0.025999999
v -0.00547797393 -0.00674128007 0.020999999
v -0.00534696292 -0.00650971603 0.025999999
v -0.00534146022 -0.00649500322 0.020999999
v -0.00529060792 -0.00626562547 0.025999999
v -0.00528937768 -0.00624996614 0.020999999
v -0.00530685138 -0.00600006294 0.025999999
v -0.00531025123 -0.00598472785 0.020999999
v -0.00540002775 -0.00575085592 0.025999999
v -0.00540776205 -0.005737185 0.020999999
v -0.0054977436 -0.005608675 0.025999999
v -0.00540776205 0.00573718358 0.020999999
v -0.00540776205 0.00573718358 0.025999999
v -0.00531025123 0.00598472882 0.020999999
v -0.00531025123 0.00598472882 0.025999999
v -0.00528937768 0.00624996472 0.020999999
v -0.00528937768 0.00624996472 0.025999999
v -0.00534146022 0.0064950018 0.020999999
v -0.00534146022 0.0064950018 0.025999999
v -0.00547797393 0.00674127865 0.020999999
v -0.00547797393 0.00674127865 0.025999999
v -0.0054977436 0.00676569272 0.020999999
v -0.0054977436 0.00676569272 0.025999999
v -0.00543849182 0.0126287489 0.020999999
v -0.00543849182 0.0126287489 0.025999999
v -0.0050456686 -0.0146809764 0.020999999
v -0.0050456686 -0.0146809764 0.025999999
v -0.00470488023 -0.0142932577 0.020999999
v -0.00470488023 -0.0142932577 0.025999999
v -0.00451943826 0.0133512049 0.020999999
v -0.00451943826 0.0133512049 0.025999999
v -0.00459243726 0.0138289337 0.020999999
v -0.00459243726 0.0138289337 0.025999999
v -0.00459503603 0.0143289499 0.020999999
v -0.00459503603 0.0143289499 0.025999999
v -0.00454722833 0.0148429279 0.020999999
v -0.00454722833 0.0148429279 0.025999999
v -0.00441308212 -0.013887207 0.020999999
v -0.00441308212 -0.013887207 0.025999999
v -0.00440869522 0.0130240517 0.020999999
v -0.00440869522 0.0130240517 0.025999999
v -0.00445514631 0.0153672247 0.020999999
v -0.00445514631 0.0153672247 0.025999999
v -0.00419134092 -0.0134578104 0.020999999
v -0.00419134092 -0.0134578104 0.025999999
v -0.00408863735 -0.0131280441 0.020999999
v -0.00408863735 -0.0131280441 0.025999999
v -0.00382534217 0.0155359821 0.020999999
v -0.00382534217 0.0155359821 0.025999999
v -0.00331285905 -0.000764834399 0.020999999
v -0.00325143528 -0.000994064327 0.025999999
v -0.00335813951 -0.00053187799 0.020999999
v -0.00332570266 -0.000706898685 0.025999999
v -0.00338706207 -0.000296329971 0.020999999
v -0.00336691093 -0.000473188873 0.025999999
v -0.00339948129 -5.93371346e-05 0.020999999
v -0.00339171838 -0.000237171169 0.025999999
v -0.00339171838 0.000237172131 0.020999999
v -0.00340000104 4.81354366e-10 0.025999999
v -0.00336691093 0.000473187451 0.020999999
v -0.00338706207 0.000296328549 0.025999999
v -0.00332570266 0.000706899647 0.020999999
v -0.00335813951 0.000531876569 0.025999999
v -0.00325143528 0.000994062905 0.020999999
v -0.00331285905 0.000764832978 0.025999999
v -0.00348344755 0.0151279669 0.020999999
v -0.00348344755 0.0151279669 0.025999999
v -0.00307208252 -0.0147307641 0.020999999
v -0.00307208252 -0.0147307641 0.025999999
v -0.00312176179 -0.0142332168 0.020999999
v -0.00312176179 -0.0142332168 0.025999999
v -0.00309909772 -0.0137504764 0.020999999
v -0.00309909772 -0.0137504764 0.025999999
v -0.00302315902 -0.0134135385 0.020999999
v -0.00302315902 -0.0134135385 0.025999999
v -0.00302942228 -0.0015435667 0.020999999
v -0.00300202083 -0.00159620237 0.025999999
v -0.00315242481 -0.00127366256 0.020999999
v -0.00305589866 -0.00149046134 0.025999999
v -0.00323359203 -0.00105065774 0.020999999
v -0.00317417335 -0.00121845197 0.025999999
v -0.00317417335 0.00121845055 0.020999999
v -0.00323359203 0.00105065871 0.025999999
v -0.00305589866 0.00149046231 0.020999999
v -0.00315242481 0.00127366353 0.025999999
v -0.00300202083 0.00159620333 0.020999999
v -0.00302942228 0.00154356766 0.025999999
v -0.00318505477 0.0147067528 0.020999999
v -0.00318505477 0.0147067528 0.025999999
v -0.00282442998 -0.0157487328 0.020999999
v -0.00282442998 -0.0157487328 0.025999999
v -0.00297080946 -0.0152369327 0.020999999
v -0.00297080946 -0.0152369327 0.025999999
v -0.00291436862 -0.00175112915 0.020999999
v -0.00275065851 -0.00199846935 0.025999999
v -0.00297370624 -0.00164835166 0.020999999
v -0.00294448566 -0.00170000028 0.025999999
v -0.00294448566 0.00169999886 0.020999999
v -0.00297370624 0.00164835263 0.025999999
v -0.00275065851 0.00199847031 0.020999999
v -0.00291436862 0.00175113011 0.025999999
v -0.00276165437 0.0138222008 0.020999999
v -0.00276165437 0.0138222008 0.025999999
v -0.00293729972 0.0142724257 0.020999999
v -0.00293729972 0.0142724257 0.025999999
v -0.00252669286 -0.00227504444 0.020999999
v -0.00252669286 -0.00227504444 0.025999999
v -0.00271536064 -0.00204617214 0.020999999
v -0.00256601285 -0.00223060083 0.025999999
v -0.00256601285 0.00223060179 0.020999999
v -0.00271536064 0.00204617072 0.025999999
v -0.00252669286 0.00227504302 0.020999999
v -0.00252669286 0.00227504302 0.025999999
v -0.00269398403 0.0134835081 0.020999999
v -0.00269398403 0.0134835081 0.025999999
v -0.00227504444 -0.00252669286 0.020999999
v -0.00227504444 -0.00252669286 0.025999999
v -0.0024041624 -0.0024041624 0.020999999
v -0.0024041624 -0.0024041624 0.025999999
v -0.00231879425 0.00248660374 0.020999999
v -0.00248660278 0.00231879521 0.025999999
v -0.00227504444 0.00252669144 0.020999999
v -0.00227504444 0.00252669144 0.025999999
v -0.00218043518 -0.0158507318 0.020999999
v -0.00218043518 -0.0158507318 0.025999999
v -0.00223060083 -0.00256601285 0.020999999
v -0.00204617214 -0.00271536064 0.025999999
v -0.00204617214 0.0027153616 0.020999999
v -0.00223060083 0.00256601143 0.025999999
v -0.00188306283 -0.0154092152 0.020999999
v -0.00188306283 -0.0154092152 0.025999999
v -0.00199846935 -0.00275065851 0.020999999
v -0.00175112915 -0.00291436862 0.025999999
v -0.00175112915 0.00291436959 0.020999999
v -0.00199846935 0.00275065709 0.025999999
v -0.00163033199 -0.0149591155 0.020999999
v -0.00163033199 -0.0149591155 0.025999999
v -0.00159620237 -0.00300202083 0.020999999
v -0.0015435667 -0.00302942228 0.025999999
v -0.00170000028 -0.00294448566 0.020999999
v -0.00164835166 -0.00297370624 0.025999999
v -0.00164835166 0.0029737072 0.020999999
v -0.00170000028 0.00294448662 0.025999999
v -0.0015435667 0.00302942324 0.020999999
v -0.00159620237 0.00300202179 0.025999999
v -0.00160450172 0.0136560659 0.020999999
v -0.00160450172 0.0136560659 0.025999999
v -0.00164480638 0.0139990931 0.020999999
v -0.00164480638 0.0139990931 0.025999999
v -0.00161688518 0.0144815569 0.020999999
v -0.00161688518 0.0144815569 0.025999999
v -0.00151546907 0.0149711876 0.020999999
v -0.00151546907 0.0149711876 0.025999999
v -0.00142933321 -0.0145012708 0.020999999
v -0.00142933321 -0.0145012708 0.025999999
v -0.00130171251 -0.0140351529 0.020999999
v -0.00130171251 -0.0140351529 0.025999999
v -0.00126981687 -0.0136912413 0.020999999
v -0.00126981687 -0.0136912413 0.025999999
v -0.00149046134 -0.00305589866 0.020999999
v -0.00127366256 -0.00315242481 0.025999999
v -0.00127366256 0.00315242577 0.020999999
v -0.00149046134 0.00305589962 0.025999999
v -0.00136184406 0.0154639988 0.020999999
v -0.00136184406 0.0154639988 0.025999999
v -0.00121845197 -0.00317417335 0.020999999
v -0.00105065774 -0.00323359203 0.025999999
v -0.00105065774 0.00323359299 0.020999999
v -0.00121845197 0.00317417431 0.025999999
v -0.00116276454 0.0159576922 0.020999999
v -0.00116276454 0.0159576922 0.025999999
v -0.000994064327 -0.00325143528 0.020999999
v -0.000764834399 -0.00331285905 0.025999999
v -0.000764834399 0.00331285763 0.020999999
v -0.000994064327 0.00325143624 0.025999999
v -0.000706898685 -0.00332570266 0.020999999
v -0.00053187799 -0.00335813951 0.025999999
v -0.00053187799 0.00335814047 0.020999999
v -0.000706898685 0.00332570124 0.025999999
v -0.000511638637 0.0159918194 0.020999999
v -0.000511638637 0.0159918194 0.025999999
v -0.000473188873 -0.00336691093 0.020999999
v -0.000296329971 -0.00338706207 0.025999999
v -0.000296329971 0.00338706303 0.020999999
v -0.000473188873 0.00336691189 0.025999999
v -0.000262045379 0.0155216341 0.020999999
v -0.000262045379 0.0155216341 0.025999999
v -9.42916825e-05 -0.0145712371 0.020999999
v -9.42916825e-05 -0.0145712371 0.025999999
v -0.000172490592 -0.0140943332 0.020999999
v -0.000172490592 -0.0140943332 0.025999999
v -0.000168263431 -0.0137489696 0.020999999
v -0.000168263431 -0.0137489696 0.025999999
v -0.000237171169 -0.00339171838 0.020999999
v -5.93371346e-05 -0.00339948129 0.025999999
v -5.93371346e-05 0.00339948225 0.020999999
v -0.000237171169 0.00339171696 0.025999999
v -5.77492669e-05 0.0150475817 0.020999999
v -5.77492669e-05 0.0150475817 0.025999999
v 5.77478454e-05 -0.0150475843 0.020999999
v 5.77478454e-05 -0.0150475843 0.025999999
v 4.81354366e-10 -0.00340000104 0.020999999
v 0.000237172131 -0.00339171838 0.025999999
v 0.000237172131 0.00339171696 0.020999999
v 4.81354366e-10 0.00339999962 0.025999999
v 0.000168264394 0.0137489681 0.020999999
v 0.000168264394 0.0137489681 0.025999999
v 0.000172491555 0.0140943317 0.020999999
v 0.000172491555 0.0140943317 0.025999999
v 9.42926452e-05 0.0145712357 0.020999999
v 9.42926452e-05 0.0145712357 0.025999999
v 0.000262046342 -0.0155216355 0.020999999
v 0.000262046342 -0.0155216355 0.025999999
v 0.000296328549 -0.00338706207 0.020999999
v 0.000473187451 -0.00336691093 0.025999999
v 0.000473187451 0.00336691189 0.020999999
v 0.000296328549 0.00338706303 0.025999999
v 0.000511637215 -0.0159918172 0.020999999
v 0.000511637215 -0.0159918172 0.025999999
v 0.000531876569 -0.00335813951 0.020999999
v 0.000706899647 -0.00332570266 0.025999999
v 0.000706899647 0.00332570124 0.020999999
v 0.000531876569 0.00335814047 0.025999999
v 0.000764832978 -0.00331285905 0.020999999
v 0.000994062905 -0.00325143528 0.025999999
v 0.000994062905 0.00325143624 0.020999999
v 0.000764832978 0.00331285763 0.025999999
v 0.00116276551 -0.0159576936 0.020999999
v 0.00116276551 -0.0159576936 0.025999999
v 0.00105065871 -0.00323359203 0.020999999
v 0.00121845055 -0.00317417335 0.025999999
v 0.00121845055 0.00317417431 0.020999999
v 0.00105065871 0.00323359299 0.025999999
v 0.00136184264 -0.0154639978 0.020999999
v 0.00136184264 -0.0154639978 0.025999999
v 0.00127366353 -0.00315242481 0.020999999
v 0.00149046231 -0.00305589866 0.025999999
v 0.00149046231 0.00305589962 0.020999999
v 0.00127366353 0.00315242577 0.025999999
v 0.00126981545 0.0136912422 0.020999999
v 0.00126981545 0.0136912422 0.025999999
v 0.00130171347 0.0140351515 0.020999999
v 0.00130171347 0.0140351515 0.025999999
v 0.00142933417 0.0145012693 0.020999999
v 0.00142933417 0.0145012693 0.025999999
v 0.00151546765 -0.0149711878 0.020999999
v 0.00151546765 -0.0149711878 0.025999999
v 0.00161688376 -0.0144815583 0.020999999
v 0.00161688376 -0.0144815583 0.025999999
v 0.00164480496 -0.0139990945 0.020999999
v 0.00164480496 -0.0139990945 0.025999999
v 0.0016045003 -0.0136560626 0.020999999
v 0.0016045003 -0.0136560626 0.025999999
v 0.00154356766 -0.00302942228 0.020999999
v 0.00159620333 -0.00300202083 0.025999999
v 0.00164835263 -0.00297370624 0.020999999
v 0.00169999886 -0.00294448566 0.025999999
v 0.00169999886 0.00294448662 0.020999999
v 0.00164835263 0.0029737072 0.025999999
v 0.00159620333 0.00300202179 0.020999999
v 0.00154356766 0.00302942324 0.025999999
v 0.00163033295 0.0149591141 0.020999999
v 0.00163033295 0.0149591141 0.025999999
v 0.00175113011 -0.00291436862 0.020999999
v 0.00199847031 -0.00275065851 0.025999999
v 0.00199847031 0.00275065709 0.020999999
v 0.00175113011 0.00291436959 0.025999999
v 0.00188306141 0.015409215 0.020999999
v 0.00188306141 0.015409215 0.025999999
v 0.00204617072 -0.00271536064 0.020999999
v 0.00223060179 -0.00256601285 0.025999999
v 0.00223060179 0.00256601143 0.020999999
v 0.00204617072 0.0027153616 0.025999999
v 0.00218043375 0.0158507328 0.020999999
v 0.00218043375 0.0158507328 0.025999999
v 0.00227504302 -0.00252669286 0.020999999
v 0.00227504302 -0.00252669286 0.025999999
v 0.00231879521 -0.00248660278 0.020999999
v 0.00248660374 -0.00231879425 0.025999999
v 0.00248660374 0.00231879521 0.020999999
v 0.00231879521 0.00248660374 0.025999999
v 0.00227504302 0.00252669144 0.020999999
v 0.00227504302 0.00252669144 0.025999999
v 0.00269398499 -0.0134835072 0.020999999
v 0.00269398499 -0.0134835072 0.025999999
v 0.00252669144 -0.00227504444 0.020999999
v 0.00252669144 -0.00227504444 0.025999999
v 0.00256601143 -0.00223060083 0.020999999
v 0.0027153616 -0.00204617214 0.025999999
v 0.0027153616 0.00204617072 0.020999999
v 0.00256601143 0.00223060179 0.025999999
v 0.00252669144 0.00227504302 0.020999999
v 0.00252669144 0.00227504302 0.025999999
v 0.0029372983 -0.0142724247 0.020999999
v 0.0029372983 -0.0142724247 0.025999999
v 0.00276165534 -0.0138222022 0.020999999
v 0.00276165534 -0.0138222022 0.025999999
v 0.00275065709 -0.00199846935 0.020999999
v 0.00291436959 -0.00175112915 0.025999999
v 0.00294448662 -0.00170000028 0.020999999
v 0.0029737072 -0.00164835166 0.025999999
v 0.0029737072 0.00164835263 0.020999999
v 0.00294448662 0.00169999886 0.025999999
v 0.00291436959 0.00175113011 0.020999999
v 0.00275065709 0.00199847031 0.025999999
v 0.00297081042 0.0152369337 0.020999999
v 0.00297081042 0.0152369337 0.025999999
v 0.00282442856 0.0157487326 0.020999999
v 0.00282442856 0.0157487326 0.025999999
v 0.00318505574 -0.0147067518 0.020999999
v 0.00318505574 -0.0147067518 0.025999999
v 0.00300202179 -0.00159620237 0.020999999
v 0.00302942324 -0.0015435667 0.025999999
v 0.00305589962 -0.00149046134 0.020999999
v 0.00315242577 -0.00127366256 0.025999999
v 0.00317417431 -0.00121845197 0.020999999
v 0.00323359299 -0.00105065774 0.025999999
v 0.00323359299 0.00105065871 0.020999999
v 0.00317417431 0.00121845055 0.025999999
v 0.00315242577 0.00127366353 0.020999999
v 0.00305589962 0.00149046231 0.025999999
v 0.00302942324 0.00154356766 0.020999999
v 0.00300202179 0.00159620333 0.025999999
v 0.00302315999 0.013413537 0.020999999
v 0.00302315999 0.013413537 0.025999999
v 0.00309909869 0.0137504749 0.020999999
v 0.00309909869 0.0137504749 0.025999999
v 0.00312176276 0.0142332153 0.020999999
v 0.00312176276 0.0142332153 0.025999999
v 0.00307208109 0.0147307663 0.020999999
v 0.00307208109 0.0147307663 0.025999999
v 0.00348344851 -0.0151279683 0.020999999
v 0.00348344851 -0.0151279683 0.025999999
v 0.00325143624 -0.000994064327 0.020999999
v 0.00331285763 -0.000764834399 0.025999999
v 0.00332570124 -0.000706898685 0.020999999
v 0.00335814047 -0.00053187799 0.025999999
v 0.00336691189 -0.000473188873 0.020999999
v 0.00338706303 -0.000296329971 0.025999999
v 0.00339171696 -0.000237171169 0.020999999
v 0.00339948225 -5.93371346e-05 0.025999999
v 0.00339999962 4.81354366e-10 0.020999999
v 0.00339171696 0.000237172131 0.025999999
v 0.00338706303 0.000296328549 0.020999999
v 0.00336691189 0.000473187451 0.025999999
v 0.00335814047 0.000531876569 0.020999999
v 0.00332570124 0.000706899647 0.025999999
v 0.00331285763 0.000764832978 0.020999999
v 0.00325143624 0.000994062905 0.025999999
v 0.00382534314 -0.0155359824 0.020999999
v 0.00382534314 -0.0155359824 0.025999999
v 0.00408863593 0.0131280451 0.020999999
v 0.00408863593 0.0131280451 0.025999999
v 0.0041913395 0.0134578114 0.020999999
v 0.0041913395 0.0134578114 0.025999999
v 0.00445514727 -0.0153672273 0.020999999
v 0.00445514727 -0.0153672273 0.025999999
v 0.00440869379 -0.0130240507 0.020999999
v 0.00440869379 -0.0130240507 0.025999999
v 0.00441308308 0.013887208 0.020999999
v 0.00441308308 0.013887208 0.025999999
v 0.00454722929 -0.0148429294 0.020999999
v 0.00454722929 -0.0148429294 0.025999999
v 0.00459503699 -0.0143289478 0.020999999
v 0.00459503699 -0.0143289478 0.025999999
v 0.00459243823 -0.0138289328 0.020999999
v 0.00459243823 -0.0138289328 0.025999999
v 0.00451943684 -0.0133512063 0.020999999
v 0.00451943684 -0.0133512063 0.025999999
v 0.0047048812 0.0142932587 0.020999999
v 0.0047048812 0.0142932587 0.025999999
v 0.00504566956 0.014680975 0.020999999
v 0.00504566956 0.014680975 0.025999999
v 0.00543849278 -0.0126287479 0.020999999
v 0.00543849278 -0.0126287479 0.025999999
v 0.00548775244 -0.00675357294 0.020999999
v 0.00549774456 -0.00676569414 0.025999999
v 0.0053469615 -0.00650971603 0.020999999
v 0.0054779749 -0.00674128007 0.025999999
v 0.00529060889 -0.00626562547 0.020999999
v 0.00534146119 -0.00649500322 0.025999999
v 0.00530685235 -0.00600006294 0.020999999
v 0.00528937626 -0.00624996614 0.025999999
v 0.00540002633 -0.00575085592 0.020999999
v 0.00531025219 -0.00598472785 0.025999999
v 0.00549774456 -0.005608675 0.020999999
v 0.00540776062 -0.005737185 0.025999999
v 0.00540776062 0.00573718358 0.020999999
v 0.00549774456 0.00560867596 0.025999999
v 0.00531025219 0.00598472882 0.020999999
v 0.00540002633 0.0057508545 0.025999999
v 0.00528937626 0.00624996472 0.020999999
v 0.00530685235 0.0060000639 0.025999999
v 0.00534146119 0.0064950018 0.020999999
v 0.00529060889 0.00626562405 0.025999999
v 0.0054779749 0.00674127865 0.020999999
v 0.0053469615 0.00650971699 0.025999999
v 0.00549774456 0.00676569272 0.020999999
v 0.00548775244 0.00675357151 0.025999999
v 0.00542833853 0.0150510197 0.020999999
v 0.00542833853 0.0150510197 0.025999999
v 0.00557510424 -0.0129459734 0.020999999
v 0.00557510424 -0.0129459734 0.025999999
v 0.00555078793 -0.00682357978 0.020999999
v 0.00555078793 -0.00682357978 0.025999999
v 0.00559673119 -0.00550794553 0.020999999
v 0.0055079465 -0.00559673023 0.025999999
v 0.00573718358 -0.00540776205 0.020999999
v 0.00560867596 -0.0054977436 0.025999999
v 0.00560867596 0.00549774456 0.020999999
v 0.00573718358 0.00540776062 0.025999999
v 0.00555078793 0.00555078793 0.020999999
v 0.00555078793 0.00555078793 0.025999999
v 0.00573718358 0.00696660805 0.020999999
v 0.0055079465 0.00677763749 0.025999999
v 0.00574592877 0.012491868 0.020999999
v 0.00574592877 0.012491868 0.025999999
v 0.00584051419 -0.0133498402 0.020999999
v 0.00584051419 -0.0133498402 0.025999999
v 0.00580682564 -0.00700286102 0.020999999
v 0.00598472882 -0.0070641179 0.025999999
v 0.0057508545 -0.00697434139 0.020999999
v 0.00579264927 -0.00699609947 0.025999999
v 0.00598472882 -0.00531025123 0.020999999
v 0.0057508545 -0.00540002775 0.025999999
v 0.0057508545 0.00540002633 0.020999999
v 0.00598472882 0.00531025219 0.025999999
v 0.00579264927 0.00699610043 0.020999999
v 0.0057508545 0.00697434235 0.025999999
v 0.00598472882 0.00706411648 0.020999999
v 0.00580682564 0.00700286198 0.025999999
v 0.00589026261 0.0128056555 0.020999999
v 0.00589026261 0.0128056555 0.025999999
v 0.00617316056 -0.0137231631 0.020999999
v 0.00617316056 -0.0137231631 0.025999999
v 0.0060000639 -0.00706751775 0.020999999
v 0.00624996472 -0.00708499145 0.025999999
v 0.00624996472 -0.00528937768 0.020999999
v 0.0060000639 -0.00530685138 0.025999999
v 0.0060000639 0.00530685235 0.020999999
v 0.00624996472 0.00528937626 0.025999999
v 0.00624996472 0.00708499241 0.020999999
v 0.0060000639 0.00706751633 0.025999999
v 0.00601279545 0.0132731371 0.020999999
v 0.00601279545 0.0132731371 0.025999999
v 0.00606764603 0.0137701397 0.020999999
v 0.00606764603 0.0137701397 0.025999999
v 0.00607382584 0.0142863016 0.020999999
v 0.00607382584 0.0142863016 0.025999999
v 0.00603705216 0.0148173552 0.020999999
v 0.00603705216 0.0148173552 0.025999999
v 0.00626562405 -0.00708375883 0.020999999
v 0.0064950018 -0.00703290653 0.025999999
v 0.0064950018 -0.00534146022 0.020999999
v 0.00626562405 -0.00529060792 0.025999999
v 0.00626562405 0.00529060889 0.020999999
v 0.0064950018 0.00534146119 0.025999999
v 0.0064950018 0.00703290749 0.020999999
v 0.00626562405 0.00708375741 0.025999999
v 0.00655260849 -0.0140731354 0.020999999
v 0.00655260849 -0.0140731354 0.025999999
v 0.00650971699 -0.00702740621 0.020999999
v 0.00656754303 -0.00700286102 0.025999999
v 0.0065817194 -0.00699609947 0.020999999
v 0.00674127865 -0.0068963952 0.025999999
v 0.00674127865 -0.00547797393 0.020999999
v 0.00650971699 -0.00534696292 0.025999999
v 0.00650971699 0.0053469615 0.020999999
v 0.00674127865 0.0054779749 0.025999999
v 0.00674127865 0.00689639378 0.020999999
v 0.0065817194 0.00699610043 0.025999999
v 0.00656754303 0.00700286198 0.020999999
v 0.00650971699 0.00702740479 0.025999999
v 0.00672876168 0.0119910889 0.020999999
v 0.00672876168 0.0119910889 0.025999999
v 0.0069718628 -0.0144011505 0.020999999
v 0.0069718628 -0.0144011505 0.025999999
v 0.00675357151 -0.00688661527 0.020999999
v 0.00688661385 -0.00675357294 0.025999999
v 0.00689639378 -0.00674128007 0.020999999
v 0.00699610043 -0.00658171844 0.025999999
v 0.00699610043 -0.0057926507 0.020999999
v 0.00697434235 -0.00575085592 0.025999999
v 0.00696660805 -0.005737185 0.020999999
v 0.00677763749 -0.00550794553 0.025999999
v 0.00676569272 -0.0054977436 0.020999999
v 0.00675357151 -0.00548775386 0.025999999
v 0.00675357151 0.00548775244 0.020999999
v 0.00676569272 0.00549774456 0.025999999
v 0.00677763749 0.0055079465 0.020999999
v 0.00696660805 0.00573718358 0.025999999
v 0.00697434235 0.0057508545 0.020999999
v 0.00699610043 0.00579264927 0.025999999
v 0.00699610043 0.0065817194 0.020999999
v 0.00689639378 0.00674127865 0.025999999
v 0.00688661385 0.00675357151 0.020999999
v 0.00675357151 0.00688661385 0.025999999
v 0.00689778614 0.0122922974 0.020999999
v 0.00689778614 0.0122922974 0.025999999
v 0.00719654847 -0.0121198053 0.020999999
v 0.00719654847 -0.0121198053 0.025999999
v 0.00702020455 -0.0118228264 0.020999999
v 0.00702020455 -0.0118228264 0.025999999
v 0.00700286198 -0.00656753969 0.020999999
v 0.00702740479 -0.00650971603 0.025999999
v 0.00703290749 -0.00649500322 0.020999999
v 0.00708375741 -0.00626562547 0.025999999
v 0.00708499241 -0.00624996614 0.020999999
v 0.00706751633 -0.00600006294 0.025999999
v 0.00706411648 -0.00598472785 0.020999999
v 0.00700286198 -0.00580682706 0.025999999
v 0.00700286198 0.00580682564 0.020999999
v 0.00706411648 0.00598472882 0.025999999
v 0.00706751633 0.0060000639 0.020999999
v 0.00708499241 0.00624996472 0.025999999
v 0.00708375741 0.00626562405 0.020999999
v 0.00703290749 0.0064950018 0.025999999
v 0.00702740479 0.00650971699 0.020999999
v 0.00700286198 0.00656754303 0.025999999
v 0.00720395852 0.0126662092 0.020999999
v 0.00720395852 0.0126662092 0.025999999
v 0.00747378159 -0.0130604644 0.020999999
v 0.00747378159 -0.0130604644 0.025999999
v 0.00736728001 -0.0125719161 0.020999999
v 0.00736728001 -0.0125719161 0.025999999
v 0.00755281735 -0.0141051383 0.020999999
v 0.00755281735 -0.0141051383 0.025999999
v 0.00753388215 -0.0135731525 0.020999999
v 0.00753388215 -0.0135731525 0.025999999
v 0.00757380295 0.013002718 0.020999999
v 0.00757380295 0.013002718 0.025999999
v 0.00794531155 -0.0112220545 0.020999999
v 0.00794531155 -0.0112220545 0.025999999
v 0.00798775483 0.0133111076 0.020999999
v 0.00798775483 0.0133111076 0.025999999
v 0.00814489174 -0.0115039439 0.020999999
v 0.00814489174 -0.0115039439 0.025999999
v 0.00821757126 0.0110242491 0.020999999
v 0.00821757126 0.0110242491 0.025999999
v 0.00848847199 -0.0118438024 0.020999999
v 0.00848847199 -0.0118438024 0.025999999
v 0.0084239893 0.0113011675 0.020999999
v 0.0084239893 0.0113011675 0.025999999
v 0.00843900013 0.0135935001 0.020999999
v 0.00843900013 0.0135935001 0.025999999
v 0.00864104081 0.0117329531 0.020999999
v 0.00864104081 0.0117329531 0.025999999
v 0.00889146615 -0.0121398063 0.020999999
v 0.00889146615 -0.0121398063 0.025999999
v 0.0087980299 0.0122076969 0.020999999
v 0.0087980299 0.0122076969 0.025999999
v 0.0089113884 0.0127112942 0.020999999
v 0.0089113884 0.0127112942 0.025999999
v 0.00898583222 0.0132383852 0.020999999
v 0.00898583222 0.0132383852 0.025999999
v 0.00907481003 0.0103300648 0.020999999
v 0.00907481003 0.0103300648 0.025999999
v 0.00933538723 -0.0124032397 0.020999999
v 0.00933538723 -0.0124032397 0.025999999
v 0.00932490159 -0.0101048846 0.020999999
v 0.00932490159 -0.0101048846 0.025999999
v 0.00930276204 0.01058955 0.020999999
v 0.00930276204 0.01058955 0.025999999
v 0.0095591383 -0.0103587122 0.020999999
v 0.0095591383 -0.0103587122 0.025999999
v 0.00967998791 0.0108916311 0.020999999
v 0.00967998791 0.0108916311 0.025999999
v 0.00981367875 -0.0126369185 0.020999999
v 0.00981367875 -0.0126369185 0.025999999
v 0.00982013512 -0.0107654448 0.020999999
v 0.00982013512 -0.0107654448 0.025999999
v 0.0101912622 -0.0117101664 0.020999999
v 0.0101912622 -0.0117101664 0.025999999
v 0.0100258856 -0.0112211747 0.020999999
v 0.0100258856 -0.0112211747 0.025999999
v 0.0101048832 -0.00932490062 0.020999999
v 0.0101048832 -0.00932490062 0.025999999
v 0.0101117163 0.0111438923 0.020999999
v 0.0101117163 0.0111438923 0.025999999
v 0.0103203945 -0.0122265882 0.020999999
v 0.0103203945 -0.0122265882 0.025999999
v 0.0103587132 -0.00955913496 0.020999999
v 0.0103587132 -0.00955913496 0.025999999
v 0.0103300648 0.00907481003 0.020999999
v 0.0103300648 0.00907481003 0.025999999
v 0.01058955 0.00930276204 0.020999999
v 0.01058955 0.00930276204 0.025999999
v 0.0105807381 0.0113594799 0.020999999
v 0.0105807381 0.0113594799 0.025999999
v 0.0107654457 -0.00982013416 0.020999999
v 0.0107654457 -0.00982013416 0.025999999
v 0.0108916311 0.00967998791 0.020999999
v 0.0108916311 0.00967998791 0.025999999
v 0.0112211733 -0.0100258846 0.020999999
v 0.0112211733 -0.0100258846 0.025999999
v 0.0112220554 -0.00794531297 0.020999999
v 0.0112220554 -0.00794531297 0.025999999
v 0.0110242491 0.00821757126 0.020999999
v 0.0110242491 0.00821757126 0.025999999
v 0.0111438923 0.0101117163 0.020999999
v 0.0111438923 0.0101117163 0.025999999
v 0.0110808353 0.0115418844 0.020999999
v 0.0110808353 0.0115418844 0.025999999
v 0.0113011675 0.0084239893 0.020999999
v 0.0113011675 0.0084239893 0.025999999
v 0.0113594799 0.0105807381 0.020999999
v 0.0113594799 0.0105807381 0.025999999
v 0.011710165 -0.0101912637 0.020999999
v 0.011710165 -0.0101912637 0.025999999
v 0.0115039425 -0.00814489316 0.020999999
v 0.0115039425 -0.00814489316 0.025999999
v 0.0117329531 0.00864104081 0.020999999
v 0.0117329531 0.00864104081 0.025999999
v 0.0115418844 0.0110808353 0.020999999
v 0.0115418844 0.0110808353 0.025999999
v 0.0118438034 -0.00848847341 0.020999999
v 0.0118438034 -0.00848847341 0.025999999
v 0.0118228273 -0.00702020597 0.020999999
v 0.0118228273 -0.00702020597 0.025999999
v 0.0119910889 0.00672876168 0.020999999
v 0.0119910889 0.00672876168 0.025999999
v 0.0122265892 -0.0103203936 0.020999999
v 0.0122265892 -0.0103203936 0.025999999
v 0.0121398096 -0.00889146757 0.020999999
v 0.0121398096 -0.00889146757 0.025999999
v 0.0121198063 -0.0071965475 0.020999999
v 0.0121198063 -0.0071965475 0.025999999
v 0.0122076969 0.0087980299 0.020999999
v 0.0122076969 0.0087980299 0.025999999
v 0.0124032383 -0.00933538627 0.020999999
v 0.0124032383 -0.00933538627 0.025999999
v 0.012491868 0.00574592877 0.020999999
v 0.012491868 0.00574592877 0.025999999
v 0.0122922974 0.00689778614 0.020999999
v 0.0122922974 0.00689778614 0.025999999
v 0.0126369171 -0.00981367778 0.020999999
v 0.0126369171 -0.00981367778 0.025999999
v 0.0125719147 -0.00736727905 0.020999999
v 0.0125719147 -0.00736727905 0.025999999
v 0.0126287489 -0.00543849182 0.020999999
v 0.0126287489 -0.00543849182 0.025999999
v 0.0126662092 0.00720395852 0.020999999
v 0.0126662092 0.00720395852 0.025999999
v 0.0127112942 0.0089113884 0.020999999
v 0.0127112942 0.0089113884 0.025999999
v 0.0129459744 -0.00557510328 0.020999999
v 0.0129459744 -0.00557510328 0.025999999
v 0.0128056555 0.00589026261 0.020999999
v 0.0128056555 0.00589026261 0.025999999
v 0.013060463 -0.00747378063 0.020999999
v 0.013060463 -0.00747378063 0.025999999
v 0.0130240517 -0.00440869522 0.020999999
v 0.0130240517 -0.00440869522 0.025999999
v 0.0131280451 0.00408863593 0.020999999
v 0.0131280451 0.00408863593 0.025999999
v 0.013002718 0.00757380295 0.020999999
v 0.013002718 0.00757380295 0.025999999
v 0.0132383852 0.00898583222 0.020999999
v 0.0132383852 0.00898583222 0.025999999
v 0.0133498411 -0.00584051561 0.020999999
v 0.0133498411 -0.00584051561 0.025999999
v 0.0133512049 -0.00451943826 0.020999999
v 0.0133512049 -0.00451943826 0.025999999
v 0.0134835081 -0.00269398403 0.020999999
v 0.0134835081 -0.00269398403 0.025999999
v 0.013413537 0.00302315999 0.020999999
v 0.013413537 0.00302315999 0.025999999
v 0.0134578114 0.0041913395 0.020999999
v 0.0134578114 0.0041913395 0.025999999
v 0.0132731371 0.00601279545 0.020999999
v 0.0132731371 0.00601279545 0.025999999
v 0.0133111076 0.00798775483 0.020999999
v 0.0133111076 0.00798775483 0.025999999
v 0.0135731535 -0.0075338788 0.020999999
v 0.0135731535 -0.0075338788 0.025999999
v 0.0137231617 -0.00617315959 0.020999999
v 0.0137231617 -0.00617315959 0.025999999
v 0.0136560659 -0.00160450172 0.020999999
v 0.0136560659 -0.00160450172 0.025999999
v 0.0137489681 0.000168264394 0.020999999
v 0.0137489681 0.000168264394 0.025999999
v 0.0136912422 0.00126981545 0.020999999
v 0.0136912422 0.00126981545 0.025999999
v 0.0135935001 0.00843900013 0.020999999
v 0.0135935001 0.00843900013 0.025999999
v 0.0138289337 -0.00459243726 0.020999999
v 0.0138289337 -0.00459243726 0.025999999
v 0.0138222008 -0.00276165437 0.020999999
v 0.0138222008 -0.00276165437 0.025999999
v 0.0139990931 -0.00164480638 0.020999999
v 0.0139990931 -0.00164480638 0.025999999
v 0.0137504749 0.00309909869 0.020999999
v 0.0137504749 0.00309909869 0.025999999
v 0.013887208 0.00441308308 0.020999999
v 0.013887208 0.00441308308 0.025999999
v 0.0137701397 0.00606764603 0.020999999
v 0.0137701397 0.00606764603 0.025999999
v 0.0141051369 -0.00755281877 0.020999999
v 0.0141051369 -0.00755281877 0.025999999
v 0.0140731363 -0.00655260753 0.020999999
v 0.0140731363 -0.00655260753 0.025999999
v 0.0140943317 0.000172491555 0.020999999
v 0.0140943317 0.000172491555 0.025999999
v 0.0140351515 0.00130171347 0.020999999
v 0.0140351515 0.00130171347 0.025999999
v 0.0142332153 0.00312176276 0.020999999
v 0.0142332153 0.00312176276 0.025999999
v 0.0144011526 -0.00697186183 0.020999999
v 0.0144011526 -0.00697186183 0.025999999
v 0.0143289499 -0.00459503603 0.020999999
v 0.0143289499 -0.00459503603 0.025999999
v 0.0142724257 -0.00293729972 0.020999999
v 0.0142724257 -0.00293729972 0.025999999
v 0.0144815569 -0.00161688518 0.020999999
v 0.0144815569 -0.00161688518 0.025999999
v 0.0142932587 0.0047048812 0.020999999
v 0.0142932587 0.0047048812 0.025999999
v 0.0142863016 0.00607382584 0.020999999
v 0.0142863016 0.00607382584 0.025999999
v 0.0147067528 -0.00318505477 0.020999999
v 0.0147067528 -0.00318505477 0.025999999
v 0.0145712357 9.42926452e-05 0.020999999
v 0.0145712357 9.42926452e-05 0.025999999
v 0.0145012693 0.00142933417 0.020999999
v 0.0145012693 0.00142933417 0.025999999
v 0.0147307663 0.00307208109 0.020999999
v 0.0147307663 0.00307208109 0.025999999
v 0.014680975 0.00504566956 0.020999999
v 0.014680975 0.00504566956 0.025999999
v 0.0148429279 -0.00454722833 0.020999999
v 0.0148429279 -0.00454722833 0.025999999
v 0.0149711876 -0.00151546907 0.020999999
v 0.0149711876 -0.00151546907 0.025999999
v 0.0149591141 0.00163033295 0.020999999
v 0.0149591141 0.00163033295 0.025999999
v 0.0148173552 0.00603705216 0.020999999
v 0.0148173552 0.00603705216 0.025999999
v 0.0151279669 -0.00348344755 0.020999999
v 0.0151279669 -0.00348344755 0.025999999
v 0.0150475817 -5.77492669e-05 0.020999999
v 0.0150475817 -5.77492669e-05 0.025999999
v 0.0152369337 0.00297081042 0.020999999
v 0.0152369337 0.00297081042 0.025999999
v 0.0150510197 0.00542833853 0.020999999
v 0.0150510197 0.00542833853 0.025999999
v 0.0153672247 -0.00445514631 0.020999999
v 0.0153672247 -0.00445514631 0.025999999
v 0.0154639988 -0.00136184406 0.020999999
v 0.0154639988 -0.00136184406 0.025999999
v 0.015409215 0.00188306141 0.020999999
v 0.015409215 0.00188306141 0.025999999
v 0.0155359821 -0.00382534217 0.020999999
v 0.0155359821 -0.00382534217 0.025999999
v 0.0155216341 -0.000262045379 0.020999999
v 0.0155216341 -0.000262045379 0.025999999
v 0.0157487326 0.00282442856 0.020999999
v 0.0157487326 0.00282442856 0.025999999
v 0.0159576922 -0.00116276454 0.020999999
v 0.0159576922 -0.00116276454 0.025999999
v 0.0159918194 -0.000511638637 0.020999999
v 0.0159918194 -0.000511638637 0.025999999
v 0.0158507328 0.00218043375 0.020999999
v 0.0158507328 0.00218043375 0.025999999
f 1 7 2
f 14 1 2
f 13 7 1
f 13 1 14
f 2 7 8
f 8 14 2
f 6 3 4
f 3 9 4
f 5 3 6
f 15 3 5
f 15 9 3
f 4 16 6
f 4 9 10
f 10 16 4
f 16 5 6
f 15 5 16
f 7 21 8
f 13 21 7
f 22 14 8
f 8 21 22
f 9 23 10
f 31 9 15
f 31 23 9
f 10 32 16
f 10 23 24
f 24 32 10
f 18 11 12
f 11 25 12
f 17 11 18
f 33 11 17
f 33 25 11
f 12 34 18
f 12 25 26
f 26 34 12
f 30 13 14
f 29 21 13
f 29 13 30
f 22 30 14
f 32 15 16
f 31 15 32
f 34 17 18
f 33 17 34
f 19 27 20
f 36 19 20
f 35 27 19
f 35 19 36
f 20 27 28
f 36 20 28
f 21 37 22
f 29 37 21
f 38 30 22
f 22 37 38
f 23 41 24
f 49 23 31
f 49 41 23
f 24 50 32
f 24 41 42
f 86 24 42
f 74 50 24
f 74 24 86
f 25 43 26
f 53 25 33
f 53 43 25
f 26 54 34
f 26 43 44
f 44 54 26
f 27 45 28
f 35 45 27
f 28 48 36
f 28 45 46
f 110 28 46
f 28 70 48
f 96 70 28
f 96 28 110
f 40 29 30
f 39 37 29
f 39 29 40
f 38 40 30
f 50 31 32
f 49 31 50
f 54 33 34
f 53 33 54
f 48 35 36
f 47 45 35
f 47 35 48
f 37 57 38
f 39 57 37
f 58 40 38
f 38 57 58
f 60 39 40
f 59 57 39
f 59 39 60
f 58 60 40
f 41 61 42
f 73 41 49
f 73 61 41
f 42 61 62
f 86 42 62
f 43 51 44
f 77 51 43
f 77 43 53
f 44 51 52
f 52 78 44
f 44 78 54
f 45 67 46
f 47 67 45
f 46 67 68
f 110 46 68
f 70 47 48
f 69 67 47
f 69 47 70
f 74 49 50
f 73 49 74
f 51 75 52
f 101 75 51
f 101 51 77
f 52 75 76
f 112 52 76
f 102 78 52
f 102 52 112
f 78 53 54
f 77 53 78
f 55 63 56
f 66 55 56
f 89 63 55
f 65 55 66
f 89 55 65
f 56 63 64
f 64 90 56
f 56 90 66
f 57 71 58
f 59 71 57
f 72 60 58
f 58 71 72
f 82 59 60
f 81 71 59
f 81 59 82
f 72 82 60
f 61 83 62
f 85 61 73
f 83 61 85
f 62 83 84
f 62 84 86
f 63 87 64
f 113 87 63
f 113 63 89
f 64 87 88
f 88 114 64
f 64 114 90
f 90 65 66
f 89 65 90
f 67 93 68
f 69 93 67
f 68 93 94
f 68 94 110
f 96 69 70
f 95 93 69
f 95 69 96
f 71 97 72
f 81 325 71
f 97 71 357
f 325 339 71
f 71 339 355
f 71 355 357
f 98 82 72
f 72 97 98
f 86 73 74
f 85 73 86
f 75 99 76
f 99 75 111
f 111 75 101
f 76 99 100
f 112 76 100
f 102 77 78
f 101 77 102
f 92 79 80
f 79 105 80
f 91 79 92
f 91 105 79
f 92 80 144
f 80 105 106
f 120 80 106
f 120 144 80
f 84 81 82
f 83 81 84
f 83 279 81
f 81 279 277
f 81 277 297
f 81 297 309
f 81 309 325
f 280 84 82
f 98 310 82
f 82 278 280
f 298 278 82
f 310 298 82
f 85 279 83
f 280 86 84
f 100 85 86
f 99 85 100
f 479 85 99
f 85 255 253
f 85 253 281
f 85 257 255
f 85 259 257
f 85 283 259
f 281 279 85
f 85 285 283
f 511 285 85
f 511 85 479
f 86 512 100
f 86 254 256
f 86 282 254
f 86 256 258
f 86 258 260
f 86 260 284
f 280 282 86
f 86 284 286
f 86 286 512
f 87 103 88
f 125 103 87
f 125 87 113
f 88 103 104
f 104 126 88
f 88 126 114
f 114 89 90
f 113 89 114
f 108 91 92
f 91 119 105
f 107 91 108
f 107 119 91
f 144 108 92
f 93 115 94
f 95 115 93
f 110 94 116
f 94 115 116
f 110 95 96
f 109 95 110
f 109 115 95
f 97 109 98
f 357 109 97
f 98 109 110
f 110 326 98
f 326 310 98
f 405 99 111
f 479 99 405
f 100 480 112
f 100 512 480
f 112 101 102
f 111 101 112
f 103 117 104
f 137 117 103
f 137 103 125
f 104 117 118
f 118 138 104
f 104 138 126
f 105 119 106
f 106 119 120
f 122 107 108
f 107 135 119
f 121 107 122
f 121 135 107
f 144 122 108
f 131 115 109
f 717 131 109
f 357 717 109
f 110 116 132
f 782 110 132
f 110 340 326
f 356 340 110
f 110 358 356
f 718 358 110
f 718 110 782
f 124 111 112
f 123 111 124
f 389 111 123
f 405 111 389
f 112 406 124
f 112 480 406
f 126 113 114
f 125 113 126
f 115 131 116
f 116 131 132
f 117 123 118
f 123 117 145
f 145 117 137
f 118 123 124
f 124 146 118
f 118 146 138
f 119 135 120
f 120 135 136
f 136 144 120
f 130 121 122
f 129 121 130
f 129 151 121
f 121 151 135
f 130 122 144
f 261 123 145
f 389 123 261
f 124 390 146
f 124 406 390
f 138 125 126
f 137 125 138
f 127 133 128
f 142 127 128
f 155 133 127
f 141 127 142
f 155 127 141
f 128 133 134
f 134 156 128
f 128 156 142
f 144 129 130
f 143 129 144
f 143 159 129
f 129 159 151
f 131 143 132
f 781 143 131
f 781 131 717
f 132 143 144
f 840 132 144
f 782 132 840
f 133 139 134
f 169 139 133
f 169 133 155
f 134 139 140
f 140 170 134
f 134 170 156
f 135 151 136
f 152 144 136
f 136 151 152
f 146 137 138
f 145 137 146
f 139 147 140
f 173 147 139
f 173 139 169
f 140 147 148
f 148 174 140
f 140 174 170
f 156 141 142
f 155 141 156
f 143 165 159
f 273 165 143
f 275 273 143
f 143 295 275
f 425 295 143
f 425 143 427
f 427 143 429
f 429 143 447
f 447 143 449
f 449 143 451
f 451 143 463
f 463 143 465
f 465 143 475
f 475 143 477
f 477 143 485
f 485 143 839
f 839 143 781
f 160 144 152
f 166 144 160
f 166 274 144
f 144 274 276
f 144 276 296
f 426 144 296
f 428 144 426
f 430 144 428
f 448 144 430
f 450 144 448
f 452 144 450
f 464 144 452
f 466 144 464
f 476 144 466
f 478 144 476
f 486 144 478
f 840 144 486
f 168 145 146
f 167 145 168
f 231 145 167
f 261 145 231
f 146 262 168
f 146 390 262
f 147 153 148
f 181 153 147
f 181 147 173
f 148 153 154
f 154 182 148
f 148 182 174
f 158 149 150
f 149 161 150
f 157 149 158
f 157 161 149
f 162 158 150
f 150 161 162
f 151 159 152
f 152 159 160
f 153 167 154
f 187 167 153
f 187 153 181
f 154 167 168
f 168 188 154
f 154 188 182
f 170 155 156
f 169 155 170
f 164 157 158
f 157 175 161
f 163 157 164
f 163 175 157
f 176 158 162
f 176 164 158
f 159 165 160
f 160 165 166
f 161 175 162
f 162 175 176
f 172 163 164
f 171 163 172
f 171 185 163
f 163 185 175
f 186 172 164
f 186 164 176
f 165 179 166
f 273 179 165
f 166 179 180
f 180 274 166
f 203 167 187
f 231 167 203
f 168 232 188
f 168 262 232
f 174 169 170
f 173 169 174
f 178 171 172
f 177 171 178
f 177 197 171
f 171 197 185
f 198 178 172
f 198 172 186
f 182 173 174
f 181 173 182
f 175 185 176
f 176 185 186
f 180 177 178
f 179 177 180
f 179 207 177
f 177 201 197
f 177 207 201
f 180 178 208
f 202 178 198
f 208 178 202
f 267 207 179
f 245 179 247
f 269 179 245
f 247 179 249
f 249 179 251
f 251 179 271
f 267 179 269
f 271 179 273
f 268 180 208
f 180 246 248
f 270 246 180
f 248 250 180
f 180 250 252
f 252 272 180
f 180 268 270
f 180 272 274
f 188 181 182
f 187 181 188
f 183 191 184
f 196 183 184
f 195 191 183
f 195 183 196
f 184 191 192
f 192 196 184
f 185 197 186
f 186 197 198
f 204 187 188
f 203 187 204
f 188 232 204
f 192 189 190
f 189 193 190
f 191 189 192
f 205 189 191
f 215 193 189
f 215 189 205
f 190 206 192
f 190 193 194
f 194 216 190
f 190 216 206
f 205 191 195
f 192 206 196
f 193 199 194
f 223 199 193
f 223 193 215
f 194 199 200
f 200 224 194
f 194 224 216
f 206 195 196
f 205 195 206
f 197 201 198
f 198 201 202
f 199 203 200
f 227 203 199
f 227 199 223
f 200 203 204
f 204 228 200
f 200 228 224
f 201 207 202
f 202 207 208
f 231 203 227
f 204 232 228
f 216 205 206
f 215 205 216
f 207 225 208
f 207 291 225
f 207 267 293
f 293 291 207
f 208 225 226
f 350 208 226
f 268 208 294
f 294 208 292
f 292 208 306
f 306 208 322
f 322 208 334
f 334 208 336
f 336 208 350
f 212 209 210
f 209 219 210
f 211 209 212
f 209 211 219
f 230 212 210
f 210 219 220
f 230 210 220
f 214 211 212
f 213 211 214
f 219 211 213
f 234 214 212
f 234 212 230
f 218 213 214
f 217 213 218
f 219 213 217
f 244 218 214
f 244 214 234
f 224 215 216
f 223 215 224
f 222 217 218
f 217 221 219
f 221 217 222
f 266 222 218
f 266 218 244
f 219 229 220
f 219 221 225
f 225 349 219
f 229 219 289
f 219 643 289
f 349 585 219
f 219 585 589
f 219 589 595
f 219 595 601
f 219 601 619
f 619 621 219
f 219 621 629
f 219 629 635
f 219 635 641
f 219 641 643
f 220 229 230
f 226 221 222
f 225 221 226
f 290 226 222
f 290 222 266
f 228 223 224
f 227 223 228
f 225 291 305
f 305 321 225
f 225 321 333
f 333 335 225
f 225 335 349
f 350 226 290
f 232 227 228
f 231 227 232
f 229 233 230
f 289 233 229
f 230 233 234
f 262 231 232
f 261 231 262
f 233 243 234
f 289 243 233
f 234 243 244
f 238 235 236
f 235 241 236
f 237 235 238
f 287 235 237
f 303 241 235
f 303 235 287
f 236 288 238
f 236 241 242
f 242 304 236
f 236 304 288
f 288 237 238
f 287 237 288
f 242 239 240
f 239 263 240
f 241 239 242
f 329 239 241
f 345 263 239
f 345 239 329
f 240 330 242
f 240 263 264
f 264 346 240
f 240 346 330
f 329 241 303
f 242 330 304
f 243 265 244
f 265 243 289
f 244 265 266
f 245 248 246
f 245 246 269
f 247 248 245
f 269 246 270
f 247 250 248
f 249 250 247
f 249 252 250
f 251 252 249
f 251 272 252
f 271 272 251
f 253 256 254
f 253 254 281
f 255 256 253
f 281 254 282
f 255 258 256
f 257 258 255
f 257 260 258
f 259 260 257
f 259 284 260
f 283 284 259
f 264 261 262
f 263 261 264
f 361 261 263
f 389 261 361
f 262 362 264
f 390 362 262
f 361 263 345
f 264 362 346
f 265 289 266
f 266 289 290
f 267 270 268
f 267 268 293
f 269 270 267
f 293 268 294
f 271 274 272
f 273 274 271
f 273 276 274
f 275 276 273
f 275 296 276
f 295 296 275
f 277 280 278
f 277 278 297
f 279 280 277
f 297 278 298
f 279 282 280
f 281 282 279
f 283 286 284
f 285 286 283
f 285 300 286
f 299 300 285
f 511 299 285
f 512 286 300
f 304 287 288
f 303 287 304
f 289 347 290
f 289 985 347
f 289 643 985
f 290 347 348
f 998 290 348
f 350 290 568
f 290 580 568
f 586 580 290
f 290 590 586
f 596 590 290
f 290 602 596
f 620 602 290
f 290 622 620
f 290 630 622
f 290 636 630
f 642 636 290
f 290 644 642
f 986 644 290
f 986 290 998
f 291 294 292
f 291 292 305
f 293 294 291
f 305 292 306
f 295 308 296
f 307 308 295
f 419 307 295
f 419 295 421
f 421 295 423
f 423 295 425
f 420 296 308
f 422 296 420
f 424 296 422
f 426 296 424
f 297 298 309
f 309 298 310
f 299 302 300
f 301 302 299
f 511 301 299
f 512 300 302
f 301 312 302
f 311 312 301
f 511 311 301
f 512 302 312
f 330 303 304
f 329 303 330
f 305 306 321
f 321 306 322
f 307 324 308
f 323 324 307
f 415 323 307
f 415 307 417
f 417 307 419
f 416 308 324
f 418 308 416
f 420 308 418
f 309 310 325
f 325 310 326
f 311 328 312
f 327 328 311
f 511 327 311
f 512 312 328
f 316 313 314
f 313 363 314
f 315 313 316
f 411 313 315
f 391 363 313
f 313 393 391
f 313 403 393
f 409 403 313
f 409 313 411
f 392 316 314
f 314 363 364
f 392 314 364
f 318 315 316
f 317 315 318
f 411 315 317
f 394 318 316
f 394 316 392
f 320 317 318
f 319 317 320
f 317 319 411
f 404 320 318
f 404 318 394
f 332 319 320
f 331 319 332
f 411 319 331
f 410 332 320
f 410 320 404
f 321 322 333
f 333 322 334
f 323 338 324
f 337 338 323
f 441 337 323
f 445 323 415
f 441 323 443
f 443 323 445
f 442 324 338
f 416 324 446
f 444 324 442
f 446 324 444
f 325 326 339
f 339 326 340
f 327 344 328
f 343 344 327
f 511 343 327
f 512 328 344
f 346 329 330
f 345 329 346
f 348 331 332
f 347 331 348
f 411 331 347
f 348 332 412
f 412 332 410
f 333 334 335
f 335 334 336
f 335 336 349
f 349 336 350
f 337 354 338
f 353 354 337
f 459 353 337
f 461 337 441
f 459 337 461
f 460 338 354
f 442 338 462
f 462 338 460
f 339 340 355
f 355 340 356
f 341 342 343
f 341 360 342
f 511 341 343
f 359 360 341
f 359 341 511
f 343 342 344
f 512 344 342
f 342 360 512
f 362 345 346
f 361 345 362
f 347 997 411
f 347 985 997
f 1020 348 412
f 998 348 1020
f 349 350 365
f 349 365 505
f 349 505 503
f 503 525 349
f 349 525 531
f 531 537 349
f 349 537 541
f 541 547 349
f 349 547 559
f 349 559 567
f 349 567 579
f 349 579 585
f 365 350 366
f 506 366 350
f 350 504 506
f 350 526 504
f 532 526 350
f 350 538 532
f 542 538 350
f 350 548 542
f 350 560 548
f 568 560 350
f 351 352 353
f 351 376 352
f 483 351 353
f 375 376 351
f 483 375 351
f 353 352 354
f 484 354 352
f 484 352 376
f 473 353 459
f 471 353 473
f 483 353 471
f 460 354 474
f 474 354 472
f 472 354 484
f 355 356 357
f 357 356 358
f 357 358 377
f 357 377 717
f 377 358 378
f 378 358 692
f 692 358 690
f 690 358 718
f 359 388 360
f 387 388 359
f 605 387 359
f 359 511 571
f 359 571 605
f 606 360 388
f 512 360 572
f 572 360 606
f 390 361 362
f 389 361 390
f 363 391 364
f 364 391 392
f 365 366 367
f 505 365 367
f 367 366 368
f 506 368 366
f 367 368 369
f 505 367 369
f 369 368 370
f 506 370 368
f 369 370 371
f 369 371 505
f 371 370 372
f 506 372 370
f 371 372 373
f 505 371 373
f 373 372 374
f 506 374 372
f 373 374 375
f 497 373 375
f 505 373 497
f 375 374 376
f 498 376 374
f 498 374 506
f 481 375 483
f 491 375 481
f 497 375 491
f 484 376 482
f 482 376 492
f 492 376 498
f 377 378 379
f 717 377 379
f 379 378 380
f 692 380 378
f 379 380 381
f 717 379 381
f 381 380 382
f 692 382 380
f 381 382 383
f 381 383 689
f 717 381 689
f 383 382 384
f 606 384 382
f 606 382 692
f 383 384 385
f 383 385 605
f 689 383 605
f 385 384 386
f 386 384 606
f 385 386 387
f 385 387 605
f 387 386 388
f 388 386 606
f 406 389 390
f 405 389 406
f 391 393 392
f 392 393 394
f 393 403 394
f 394 403 404
f 398 395 396
f 395 405 396
f 397 395 398
f 395 397 469
f 395 469 405
f 396 470 398
f 396 405 406
f 406 468 396
f 396 468 470
f 400 397 398
f 399 397 400
f 453 397 399
f 469 397 453
f 398 454 400
f 398 470 454
f 402 399 400
f 401 399 402
f 431 399 401
f 453 399 431
f 400 432 402
f 400 454 432
f 408 401 402
f 407 401 408
f 413 401 407
f 431 401 413
f 402 414 408
f 402 432 414
f 403 409 404
f 404 409 410
f 405 469 467
f 405 467 479
f 480 468 406
f 414 407 408
f 413 407 414
f 409 411 410
f 410 411 412
f 411 439 412
f 411 747 439
f 411 749 747
f 411 751 749
f 771 751 411
f 771 411 1019
f 411 997 1019
f 412 439 440
f 772 412 440
f 772 1020 412
f 432 413 414
f 431 413 432
f 415 418 416
f 415 416 445
f 417 418 415
f 445 416 446
f 417 420 418
f 419 420 417
f 419 422 420
f 421 422 419
f 421 424 422
f 423 424 421
f 423 426 424
f 425 426 423
f 425 428 426
f 427 428 425
f 427 430 428
f 429 430 427
f 429 448 430
f 447 448 429
f 454 431 432
f 453 431 454
f 436 433 434
f 433 457 434
f 435 433 436
f 435 519 433
f 433 501 457
f 433 519 501
f 520 436 434
f 434 457 458
f 502 434 458
f 520 434 502
f 438 435 436
f 437 435 438
f 437 521 435
f 435 521 519
f 522 438 436
f 522 436 520
f 440 437 438
f 439 437 440
f 439 523 437
f 437 523 521
f 440 438 772
f 524 438 522
f 524 748 438
f 748 750 438
f 438 750 752
f 438 752 772
f 439 745 523
f 747 745 439
f 441 444 442
f 441 442 461
f 443 444 441
f 461 442 462
f 443 446 444
f 445 446 443
f 447 450 448
f 449 450 447
f 449 452 450
f 451 452 449
f 451 464 452
f 463 464 451
f 470 453 454
f 469 453 470
f 458 455 456
f 455 489 456
f 457 455 458
f 457 495 455
f 455 495 489
f 496 458 456
f 456 489 490
f 496 456 490
f 457 501 495
f 502 458 496
f 459 462 460
f 459 460 473
f 461 462 459
f 473 460 474
f 463 466 464
f 465 466 463
f 465 476 466
f 475 476 465
f 467 469 468
f 480 467 468
f 479 467 480
f 468 469 470
f 471 474 472
f 471 472 483
f 473 474 471
f 483 472 484
f 475 478 476
f 477 478 475
f 477 486 478
f 485 486 477
f 512 479 480
f 511 479 512
f 481 484 482
f 481 482 491
f 483 484 481
f 491 482 492
f 485 488 486
f 487 488 485
f 485 839 487
f 488 840 486
f 487 494 488
f 493 494 487
f 487 839 493
f 494 840 488
f 489 495 490
f 490 495 496
f 491 492 497
f 497 492 498
f 493 500 494
f 499 500 493
f 493 839 499
f 500 840 494
f 495 501 496
f 496 501 502
f 497 498 505
f 505 498 506
f 499 508 500
f 507 508 499
f 499 839 507
f 508 840 500
f 501 519 502
f 502 519 520
f 503 506 504
f 503 504 525
f 505 506 503
f 525 504 526
f 507 510 508
f 509 510 507
f 507 839 509
f 510 840 508
f 509 528 510
f 527 528 509
f 509 839 527
f 528 840 510
f 514 511 512
f 513 511 514
f 513 563 511
f 511 563 575
f 573 571 511
f 511 575 573
f 512 574 514
f 572 574 512
f 516 513 514
f 515 513 516
f 513 515 563
f 514 576 516
f 514 574 576
f 518 515 516
f 517 515 518
f 563 515 517
f 516 564 518
f 516 576 564
f 530 517 518
f 529 517 530
f 551 517 529
f 563 517 551
f 518 552 530
f 518 564 552
f 519 521 520
f 520 521 522
f 521 523 522
f 522 523 524
f 523 557 524
f 523 769 557
f 743 741 523
f 523 741 769
f 745 743 523
f 524 557 558
f 770 524 558
f 524 742 744
f 524 770 742
f 524 744 746
f 524 746 748
f 525 526 531
f 531 526 532
f 527 534 528
f 533 534 527
f 527 839 533
f 534 840 528
f 536 529 530
f 535 529 536
f 545 529 535
f 551 529 545
f 530 546 536
f 530 552 546
f 531 532 537
f 537 532 538
f 533 540 534
f 539 540 533
f 533 839 539
f 540 840 534
f 546 535 536
f 545 535 546
f 537 538 541
f 541 538 542
f 539 544 540
f 543 544 539
f 539 839 543
f 544 840 540
f 541 542 547
f 547 542 548
f 543 550 544
f 549 550 543
f 543 839 549
f 550 840 544
f 552 545 546
f 551 545 552
f 547 548 559
f 559 548 560
f 549 562 550
f 561 562 549
f 549 761 561
f 549 839 761
f 562 762 550
f 550 762 840
f 564 551 552
f 563 551 564
f 556 553 554
f 553 565 554
f 555 553 556
f 555 617 553
f 553 617 565
f 616 556 554
f 554 565 566
f 614 554 566
f 616 554 614
f 558 555 556
f 557 555 558
f 557 801 555
f 843 617 555
f 555 801 817
f 555 817 827
f 555 827 829
f 555 829 843
f 618 558 556
f 618 556 616
f 557 769 787
f 787 785 557
f 557 785 801
f 770 558 618
f 559 560 567
f 567 560 568
f 561 570 562
f 569 570 561
f 561 761 569
f 570 762 562
f 576 563 564
f 575 563 576
f 565 577 566
f 565 611 577
f 613 611 565
f 565 615 613
f 565 617 615
f 566 577 578
f 612 566 578
f 614 566 612
f 567 568 579
f 579 568 580
f 569 582 570
f 581 582 569
f 569 761 581
f 582 762 570
f 571 573 572
f 606 571 572
f 605 571 606
f 572 573 574
f 573 575 574
f 574 575 576
f 577 583 578
f 577 599 583
f 577 611 599
f 578 583 584
f 600 578 584
f 612 578 600
f 579 580 585
f 585 580 586
f 581 588 582
f 587 588 581
f 581 759 587
f 581 761 759
f 588 760 582
f 582 760 762
f 583 593 584
f 583 599 593
f 584 593 594
f 600 584 594
f 585 586 589
f 589 586 590
f 587 592 588
f 591 592 587
f 587 759 591
f 592 760 588
f 589 590 595
f 595 590 596
f 591 598 592
f 597 598 591
f 591 757 597
f 591 759 757
f 598 758 592
f 592 758 760
f 593 599 594
f 594 599 600
f 595 596 601
f 601 596 602
f 597 604 598
f 603 604 597
f 597 757 603
f 604 758 598
f 599 611 600
f 600 611 612
f 601 602 619
f 619 602 620
f 603 626 604
f 625 626 603
f 603 757 625
f 626 758 604
f 608 605 606
f 607 605 608
f 691 605 607
f 689 605 691
f 606 692 608
f 610 607 608
f 609 607 610
f 693 607 609
f 691 607 693
f 608 694 610
f 608 692 694
f 628 609 610
f 627 609 628
f 695 609 627
f 693 609 695
f 610 696 628
f 610 694 696
f 611 613 612
f 612 613 614
f 613 615 614
f 614 615 616
f 615 617 616
f 616 617 618
f 617 649 618
f 843 649 617
f 618 649 650
f 618 650 770
f 619 620 621
f 621 620 622
f 621 622 629
f 629 622 630
f 623 624 625
f 623 632 624
f 625 755 623
f 631 632 623
f 623 755 631
f 625 624 626
f 624 756 626
f 632 756 624
f 625 757 755
f 626 756 758
f 634 627 628
f 633 627 634
f 671 627 633
f 695 627 671
f 628 672 634
f 628 696 672
f 629 630 635
f 635 630 636
f 631 638 632
f 637 638 631
f 631 753 637
f 631 755 753
f 638 754 632
f 632 754 756
f 640 633 634
f 639 633 640
f 673 633 639
f 671 633 673
f 634 674 640
f 634 672 674
f 635 636 641
f 641 636 642
f 637 648 638
f 647 648 637
f 637 753 647
f 648 754 638
f 674 639 640
f 673 639 674
f 641 642 643
f 643 642 644
f 643 644 651
f 985 643 651
f 651 644 652
f 1050 652 644
f 1050 644 986
f 645 646 647
f 645 658 646
f 647 753 645
f 657 658 645
f 645 775 657
f 645 753 777
f 645 777 775
f 647 646 648
f 646 754 648
f 658 776 646
f 646 778 754
f 646 776 778
f 649 661 650
f 649 723 661
f 649 843 723
f 650 661 662
f 650 662 724
f 770 650 724
f 651 652 653
f 651 653 985
f 653 652 654
f 1050 654 652
f 653 654 663
f 985 653 663
f 663 654 664
f 1050 664 654
f 655 656 657
f 655 670 656
f 657 775 655
f 669 670 655
f 655 775 669
f 657 656 658
f 656 776 658
f 670 776 656
f 662 659 660
f 659 675 660
f 661 659 662
f 661 733 659
f 659 731 675
f 659 733 731
f 734 662 660
f 660 675 676
f 732 660 676
f 734 660 732
f 661 723 733
f 724 662 734
f 663 664 665
f 985 663 665
f 665 664 666
f 1050 666 664
f 665 666 677
f 985 665 677
f 677 666 678
f 678 666 1050
f 667 668 669
f 667 688 668
f 669 791 667
f 687 688 667
f 855 687 667
f 667 791 805
f 667 805 821
f 667 821 833
f 667 833 853
f 667 853 855
f 669 668 670
f 668 792 670
f 856 668 688
f 668 806 792
f 822 806 668
f 668 834 822
f 668 854 834
f 856 854 668
f 669 775 791
f 670 792 776
f 671 673 672
f 696 671 672
f 695 671 696
f 672 673 674
f 675 697 676
f 675 729 697
f 675 731 729
f 676 697 698
f 730 676 698
f 732 676 730
f 677 678 679
f 677 679 985
f 679 678 680
f 1050 680 678
f 679 680 681
f 985 679 681
f 681 680 682
f 1050 682 680
f 681 682 699
f 681 699 985
f 699 682 700
f 1050 700 682
f 683 684 685
f 683 714 684
f 683 685 855
f 713 714 683
f 855 713 683
f 685 684 686
f 856 686 684
f 684 714 856
f 685 686 687
f 855 685 687
f 687 686 688
f 688 686 856
f 689 691 690
f 718 689 690
f 717 689 718
f 690 691 692
f 691 693 692
f 692 693 694
f 693 695 694
f 694 695 696
f 697 715 698
f 697 727 715
f 697 729 727
f 698 715 716
f 728 698 716
f 730 698 728
f 699 700 701
f 985 699 701
f 701 700 702
f 1050 702 700
f 701 702 703
f 701 703 985
f 703 702 704
f 856 704 702
f 856 702 1050
f 703 704 705
f 985 703 705
f 705 704 706
f 856 706 704
f 705 706 707
f 855 705 707
f 855 985 705
f 707 706 708
f 708 706 856
f 707 708 709
f 855 707 709
f 709 708 710
f 856 710 708
f 709 710 711
f 855 709 711
f 711 710 712
f 712 710 856
f 711 712 713
f 711 713 855
f 713 712 714
f 856 714 712
f 715 721 716
f 715 727 721
f 716 721 722
f 728 716 722
f 720 717 718
f 719 717 720
f 719 815 717
f 717 797 781
f 717 809 797
f 811 809 717
f 717 813 811
f 717 815 813
f 718 798 720
f 782 798 718
f 726 719 720
f 725 719 726
f 719 725 815
f 720 810 726
f 720 798 810
f 721 727 722
f 722 727 728
f 734 723 724
f 723 739 724
f 733 723 734
f 723 843 739
f 724 739 740
f 740 770 724
f 736 725 726
f 735 725 736
f 815 725 735
f 726 812 736
f 726 810 812
f 727 729 728
f 728 729 730
f 729 731 730
f 730 731 732
f 731 733 732
f 732 733 734
f 738 735 736
f 737 735 738
f 815 735 737
f 736 814 738
f 736 812 814
f 766 737 738
f 765 737 766
f 737 765 815
f 738 816 766
f 738 814 816
f 739 767 740
f 739 867 767
f 739 843 867
f 740 767 768
f 868 740 768
f 740 788 770
f 740 786 788
f 868 786 740
f 741 744 742
f 741 742 769
f 743 744 741
f 769 742 770
f 743 746 744
f 745 746 743
f 745 748 746
f 747 748 745
f 747 750 748
f 749 750 747
f 749 752 750
f 751 752 749
f 751 772 752
f 771 772 751
f 753 756 754
f 753 754 777
f 755 756 753
f 777 754 778
f 755 758 756
f 757 758 755
f 757 760 758
f 759 760 757
f 759 762 760
f 761 762 759
f 761 764 762
f 763 764 761
f 839 763 761
f 840 762 764
f 763 780 764
f 779 780 763
f 839 779 763
f 764 780 840
f 816 765 766
f 815 765 816
f 767 783 768
f 767 865 783
f 767 867 865
f 768 783 784
f 866 768 784
f 868 768 866
f 769 770 787
f 787 770 788
f 771 774 772
f 773 774 771
f 1057 773 771
f 771 1019 1031
f 1031 1057 771
f 772 774 1020
f 773 790 774
f 789 790 773
f 1057 789 773
f 1020 774 790
f 775 778 776
f 775 776 791
f 777 778 775
f 791 776 792
f 779 794 780
f 793 794 779
f 921 793 779
f 903 779 839
f 921 779 903
f 922 780 794
f 780 904 840
f 780 922 904
f 781 797 782
f 840 781 782
f 839 781 840
f 782 797 798
f 783 799 784
f 783 889 799
f 783 865 889
f 784 799 800
f 890 784 800
f 866 784 890
f 785 788 786
f 785 786 801
f 787 788 785
f 801 786 802
f 868 802 786
f 789 804 790
f 803 804 789
f 803 789 1057
f 1020 790 804
f 791 792 805
f 805 792 806
f 793 796 794
f 795 796 793
f 921 795 793
f 922 794 796
f 795 808 796
f 807 808 795
f 807 795 921
f 796 808 922
f 797 809 798
f 798 809 810
f 799 825 800
f 799 887 825
f 799 889 887
f 800 825 826
f 888 800 826
f 890 800 888
f 801 802 817
f 817 802 818
f 898 818 802
f 898 802 868
f 803 820 804
f 819 820 803
f 1047 819 803
f 1047 803 1057
f 804 820 1032
f 1020 804 1032
f 805 806 821
f 821 806 822
f 807 824 808
f 823 824 807
f 921 823 807
f 922 808 824
f 809 811 810
f 810 811 812
f 811 813 812
f 812 813 814
f 813 815 814
f 814 815 816
f 817 818 827
f 827 818 828
f 828 818 898
f 819 832 820
f 831 832 819
f 1047 831 819
f 820 832 1048
f 1032 820 1048
f 821 822 833
f 833 822 834
f 823 838 824
f 837 838 823
f 837 823 921
f 824 838 922
f 825 841 826
f 825 893 841
f 825 887 893
f 826 841 842
f 894 826 842
f 888 826 894
f 827 828 829
f 829 828 830
f 898 830 828
f 829 830 843
f 843 830 844
f 926 844 830
f 926 830 898
f 831 852 832
f 851 852 831
f 1047 851 831
f 832 852 1048
f 833 834 853
f 853 834 854
f 835 836 837
f 835 862 836
f 921 835 837
f 861 862 835
f 861 835 921
f 837 836 838
f 922 838 836
f 836 862 922
f 864 839 840
f 863 839 864
f 863 885 839
f 839 885 895
f 839 895 899
f 899 909 839
f 903 839 907
f 907 839 911
f 917 839 909
f 911 839 915
f 915 839 917
f 840 908 864
f 840 904 908
f 841 891 842
f 841 893 891
f 842 891 892
f 894 842 892
f 843 844 845
f 941 843 845
f 897 867 843
f 843 925 897
f 843 941 925
f 845 844 846
f 1068 846 844
f 844 926 942
f 844 942 962
f 962 984 844
f 1006 844 984
f 1018 844 1006
f 1030 844 1018
f 844 1030 1044
f 844 1044 1068
f 845 846 869
f 961 845 869
f 941 845 961
f 869 846 870
f 1068 870 846
f 847 848 849
f 847 876 848
f 1005 847 849
f 875 876 847
f 1005 875 847
f 849 848 850
f 1046 850 848
f 848 876 1046
f 849 850 851
f 1047 849 851
f 1005 849 1017
f 849 1029 1017
f 1043 1029 849
f 849 1045 1043
f 849 1047 1045
f 851 850 852
f 1048 852 850
f 1048 850 1046
f 853 854 855
f 855 854 856
f 855 856 857
f 949 855 857
f 855 949 963
f 855 963 985
f 857 856 858
f 964 858 856
f 964 856 1050
f 857 858 877
f 949 857 877
f 877 858 878
f 878 858 964
f 859 860 861
f 859 884 860
f 859 861 949
f 883 884 859
f 949 883 859
f 861 860 862
f 862 860 950
f 950 860 884
f 949 861 921
f 922 862 950
f 886 863 864
f 885 863 886
f 864 912 886
f 864 908 912
f 865 867 866
f 890 865 866
f 889 865 890
f 866 867 868
f 867 897 868
f 868 897 898
f 869 870 871
f 961 869 871
f 871 870 872
f 1068 872 870
f 871 872 873
f 961 871 873
f 873 872 874
f 1068 874 872
f 873 874 875
f 983 873 875
f 961 873 983
f 875 874 876
f 1046 876 874
f 1046 874 1068
f 983 875 1005
f 877 878 879
f 877 879 949
f 879 878 880
f 964 880 878
f 879 880 881
f 949 879 881
f 881 880 882
f 882 880 964
f 881 882 883
f 881 883 949
f 883 882 884
f 964 884 882
f 950 884 964
f 896 885 886
f 895 885 896
f 886 916 896
f 886 912 916
f 887 889 888
f 894 887 888
f 893 887 894
f 888 889 890
f 891 893 892
f 892 893 894
f 900 895 896
f 899 895 900
f 896 918 900
f 896 916 918
f 897 901 898
f 897 925 901
f 898 901 902
f 898 902 926
f 910 899 900
f 909 899 910
f 900 920 910
f 900 918 920
f 901 905 902
f 901 929 905
f 901 925 929
f 902 905 906
f 930 902 906
f 926 902 930
f 903 907 904
f 922 903 904
f 921 903 922
f 904 907 908
f 905 913 906
f 905 935 913
f 905 929 935
f 906 913 914
f 936 906 914
f 930 906 936
f 907 911 908
f 908 911 912
f 920 909 910
f 917 909 919
f 919 909 920
f 911 915 912
f 912 915 916
f 913 923 914
f 913 939 923
f 913 935 939
f 914 923 924
f 940 914 924
f 936 914 940
f 915 917 916
f 916 917 918
f 917 919 918
f 918 919 920
f 928 921 922
f 927 921 928
f 949 921 927
f 922 950 928
f 923 933 924
f 923 937 933
f 923 939 937
f 924 933 934
f 938 924 934
f 940 924 938
f 930 925 926
f 925 941 926
f 929 925 930
f 926 941 942
f 932 927 928
f 931 927 932
f 931 957 927
f 927 951 949
f 927 957 951
f 928 958 932
f 928 950 952
f 928 952 958
f 936 929 930
f 935 929 936
f 944 931 932
f 943 931 944
f 965 931 943
f 957 931 965
f 932 966 944
f 932 958 966
f 933 945 934
f 933 937 945
f 938 934 946
f 934 945 946
f 940 935 936
f 939 935 940
f 937 939 938
f 946 937 938
f 945 937 946
f 938 939 940
f 941 947 942
f 941 975 947
f 961 975 941
f 942 947 948
f 976 942 948
f 962 942 976
f 954 943 944
f 953 943 954
f 971 943 953
f 965 943 971
f 944 972 954
f 944 966 972
f 947 955 948
f 947 981 955
f 947 975 981
f 948 955 956
f 982 948 956
f 976 948 982
f 949 951 950
f 964 949 950
f 963 949 964
f 950 951 952
f 951 957 952
f 952 957 958
f 968 953 954
f 967 953 968
f 979 953 967
f 971 953 979
f 954 980 968
f 954 972 980
f 955 959 956
f 955 989 959
f 955 981 989
f 956 959 960
f 990 956 960
f 982 956 990
f 957 965 958
f 958 965 966
f 959 973 960
f 959 995 973
f 959 989 995
f 960 973 974
f 996 960 974
f 990 960 996
f 976 961 962
f 961 983 962
f 975 961 976
f 962 983 984
f 970 963 964
f 969 963 970
f 985 963 969
f 1050 970 964
f 965 971 966
f 966 971 972
f 980 967 968
f 979 967 980
f 978 969 970
f 977 969 978
f 999 969 977
f 985 969 999
f 978 970 1050
f 971 979 972
f 972 979 980
f 973 987 974
f 973 1001 987
f 973 995 1001
f 974 987 988
f 1002 974 988
f 996 974 1002
f 982 975 976
f 981 975 982
f 994 977 978
f 993 977 994
f 1007 977 993
f 999 977 1007
f 1050 994 978
f 990 981 982
f 989 981 990
f 983 991 984
f 983 1011 991
f 983 1005 1011
f 984 991 992
f 1012 984 992
f 1006 984 1012
f 998 985 986
f 985 999 986
f 997 985 998
f 986 999 1000
f 1000 1008 986
f 986 1008 1022
f 986 1022 1038
f 1038 1050 986
f 987 1001 988
f 988 1001 1002
f 996 989 990
f 995 989 996
f 991 1003 992
f 991 1025 1003
f 991 1011 1025
f 992 1003 1004
f 1026 992 1004
f 1012 992 1026
f 1010 993 994
f 1007 993 1021
f 1009 993 1010
f 1021 993 1009
f 1050 1010 994
f 1002 995 996
f 1001 995 1002
f 1014 997 998
f 1013 997 1014
f 997 1013 1019
f 1020 1014 998
f 999 1007 1000
f 1000 1007 1008
f 1003 1015 1004
f 1003 1041 1015
f 1003 1025 1041
f 1004 1015 1016
f 1042 1004 1016
f 1026 1004 1042
f 1012 1005 1006
f 1005 1017 1006
f 1011 1005 1012
f 1006 1017 1018
f 1007 1021 1008
f 1008 1021 1022
f 1024 1009 1010
f 1021 1009 1037
f 1023 1009 1024
f 1037 1009 1023
f 1024 1010 1050
f 1026 1011 1012
f 1025 1011 1026
f 1036 1013 1014
f 1019 1013 1033
f 1033 1013 1035
f 1035 1013 1036
f 1020 1036 1014
f 1015 1039 1016
f 1015 1065 1039
f 1015 1041 1065
f 1016 1039 1040
f 1066 1016 1040
f 1042 1016 1066
f 1017 1027 1018
f 1017 1053 1027
f 1029 1053 1017
f 1018 1027 1028
f 1054 1018 1028
f 1030 1018 1054
f 1032 1019 1020
f 1019 1033 1020
f 1031 1019 1032
f 1020 1033 1034
f 1034 1102 1020
f 1062 1036 1020
f 1020 1084 1062
f 1020 1102 1084
f 1021 1037 1022
f 1022 1037 1038
f 1050 1023 1024
f 1037 1023 1049
f 1049 1023 1050
f 1042 1025 1026
f 1041 1025 1042
f 1027 1051 1028
f 1027 1077 1051
f 1027 1053 1077
f 1028 1051 1052
f 1078 1028 1052
f 1054 1028 1078
f 1029 1043 1030
f 1054 1029 1030
f 1053 1029 1054
f 1030 1043 1044
f 1058 1031 1032
f 1057 1031 1058
f 1032 1048 1058
f 1033 1059 1034
f 1033 1035 1059
f 1034 1059 1060
f 1034 1060 1102
f 1062 1035 1036
f 1059 1035 1061
f 1061 1035 1062
f 1037 1049 1038
f 1038 1049 1050
f 1039 1063 1040
f 1039 1073 1063
f 1039 1065 1073
f 1040 1063 1064
f 1074 1040 1064
f 1066 1040 1074
f 1066 1041 1042
f 1065 1041 1066
f 1043 1055 1044
f 1043 1045 1067
f 1043 1067 1055
f 1044 1055 1056
f 1106 1044 1056
f 1068 1044 1088
f 1088 1044 1106
f 1045 1047 1046
f 1068 1045 1046
f 1067 1045 1068
f 1046 1047 1048
f 1047 1069 1048
f 1047 1057 1069
f 1058 1048 1070
f 1048 1069 1070
f 1051 1075 1052
f 1051 1085 1075
f 1051 1077 1085
f 1052 1075 1076
f 1086 1052 1076
f 1078 1052 1086
f 1078 1053 1054
f 1077 1053 1078
f 1055 1079 1056
f 1055 1067 1087
f 1055 1087 1079
f 1056 1079 1080
f 1106 1056 1080
f 1072 1057 1058
f 1069 1057 1071
f 1071 1057 1072
f 1058 1070 1072
f 1059 1081 1060
f 1059 1061 1081
f 1060 1081 1082
f 1102 1060 1082
f 1084 1061 1062
f 1081 1061 1083
f 1083 1061 1084
f 1063 1073 1064
f 1064 1073 1074
f 1074 1065 1066
f 1073 1065 1074
f 1088 1067 1068
f 1087 1067 1088
f 1069 1089 1070
f 1069 1071 1089
f 1072 1070 1090
f 1070 1089 1090
f 1092 1071 1072
f 1089 1071 1091
f 1091 1071 1092
f 1072 1090 1092
f 1075 1095 1076
f 1075 1085 1103
f 1075 1103 1095
f 1086 1076 1104
f 1076 1095 1096
f 1104 1076 1096
f 1086 1077 1078
f 1085 1077 1086
f 1079 1097 1080
f 1079 1087 1105
f 1079 1105 1097
f 1080 1097 1098
f 1080 1098 1106
f 1081 1093 1082
f 1081 1083 1093
f 1082 1093 1094
f 1102 1082 1094
f 1102 1083 1084
f 1093 1083 1101
f 1101 1083 1102
f 1104 1085 1086
f 1103 1085 1104
f 1106 1087 1088
f 1105 1087 1106
f 1089 1099 1090
f 1089 1091 1099
f 1092 1090 1100
f 1090 1099 1100
f 1108 1091 1092
f 1099 1091 1107
f 1107 1091 1108
f 1092 1100 1108
f 1093 1109 1094
f 1093 1101 1109
f 1094 1110 1102
f 1094 1109 1110
f 1095 1111 1096
f 1095 1103 1117
f 1095 1117 1111
f 1104 1096 1118
f 1096 1111 1112
f 1118 1096 1112
f 1097 1113 1098
f 1097 1105 1119
f 1097 1119 1113
f 1106 1098 1120
f 1098 1113 1114
f 1120 1098 1114
f 1099 1115 1100
f 1099 1107 1115
f 1108 1100 1116
f 1100 1115 1116
f 1110 1101 1102
f 1109 1101 1110
f 1118 1103 1104
f 1117 1103 1118
f 1120 1105 1106
f 1119 1105 1120
f 1122 1107 1108
f 1115 1107 1121
f 1121 1107 1122
f 1108 1116 1122
f 1111 1117 1112
f 1112 1117 1118
f 1113 1123 1114
f 1113 1119 1125
f 1113 1125 1123
f 1120 1114 1126
f 1114 1123 1124
f 1126 1114 1124
f 1115 1127 1116
f 1115 1121 1127
f 1122 1116 1128
f 1116 1127 1128
f 1126 1119 1120
f 1125 1119 1126
f 1128 1121 1122
f 1127 1121 1128
f 1123 1125 1124
f 1124 1125 1126
