v -0.056500001 0.0519999981 0.0126999998
v -0.056500001 0.0519999981 0.0129999995
v -0.0563033724 0.0506843281 0.0126999998
v -0.0563033724 0.0506843281 0.0129999995
v -0.0563846636 0.0509877205 0.0126999998
v -0.0563846636 0.0509877205 0.0129999995
v -0.0564316368 0.0512185812 0.0126999998
v -0.0564316368 0.0512185812 0.0129999995
v -0.0564664555 0.0514515877 0.0126999998
v -0.0564664555 0.0514515877 0.0129999995
v -0.0564890385 0.0516860962 0.0126999998
v -0.0564890385 0.0516860962 0.0129999995
v -0.0564993143 0.051921463 0.0126999998
v -0.0564993143 0.051921463 0.0129999995
v -0.0564938307 0.0522355127 0.0126999998
v -0.0564938307 0.0522355127 0.0129999995
v -0.0564753485 0.0524703789 0.0126999998
v -0.0564753485 0.0524703789 0.0129999995
v -0.0564445972 0.0527039528 0.0126999998
v -0.0564445972 0.0527039528 0.0129999995
v -0.0564016628 0.0529356003 0.0126999998
v -0.0564016628 0.0529356003 0.0129999995
v -0.0563256788 0.053240366 0.0126999998
v -0.0563256788 0.053240366 0.0129999995
v -0.0562548351 0.0534650564 0.0126999998
v -0.0562548351 0.0534650564 0.0129999995
v -0.056009531 0.0499570417 0.0126999998
v -0.056009531 0.0499570417 0.0129999995
v -0.0561422729 0.0502417088 0.0126999998
v -0.0561422729 0.0502417088 0.0129999995
v -0.0562286186 0.0504609108 0.0126999998
v -0.0562286186 0.0504609108 0.0129999995
v -0.056172328 0.0536857319 0.0126999998
v -0.056172328 0.0536857319 0.0129999995
v -0.0560445738 0.0539726686 0.0126999998
v -0.0560445738 0.0539726686 0.0129999995
v -0.056009531 0.0540429592 0.0126999998
v -0.056009531 0.0540429592 0.0129999995
v -0.0558971167 0.049749999 0.0126999998
v -0.0558971167 0.049749999 0.0129999995
v -0.0559732628 0.0498873758 0.0126999998
v -0.0559732628 0.0498873758 0.0129999995
v -0.0559357882 0.0541816425 0.0126999998
v -0.0559357882 0.0541816425 0.0129999995
v -0.0557740164 0.0544508743 0.0126999998
v -0.0557740164 0.0544508743 0.0129999995
v -0.0555460501 0.0492295218 0.0126999998
v -0.0555460501 0.0492295218 0.0129999995
v -0.0557306671 0.049483633 0.0126999998
v -0.0557306671 0.049483633 0.0129999995
v -0.0555938578 0.0547081661 0.0126999998
v -0.0555938578 0.0547081661 0.0129999995
v -0.0555460501 0.0547704744 0.0126999998
v -0.0555460501 0.0547704744 0.0129999995
v -0.0553441525 0.0489889145 0.0126999998
v -0.0553441525 0.0489889145 0.0129999995
v -0.0554971552 0.0491680574 0.0126999998
v -0.0554971552 0.0491680574 0.0129999995
v -0.0553961945 0.0549522638 0.0126999998
v -0.0553961945 0.0549522638 0.0129999995
v -0.05529109 0.0550689936 0.0126999998
v -0.05529109 0.0550689936 0.0129999995
v -0.0550689936 0.0487089062 0.0126999998
v -0.0550689936 0.0487089062 0.0129999995
v -0.055237031 0.0488740396 0.0126999998
v -0.055237031 0.0488740396 0.0129999995
v -0.0550079155 0.0512500429 0.0126999998
v -0.0550079155 0.0512500429 0.0129999995
v -0.0550618315 0.0515150547 0.0126999998
v -0.0550618315 0.0515150547 0.0129999995
v -0.0550924492 0.0517837572 0.0126999998
v -0.0550924492 0.0517837572 0.0129999995
v -0.0550995302 0.0520541048 0.0126999998
v -0.0550995302 0.0520541048 0.0129999995
v -0.0550882053 0.0522701836 0.0126999998
v -0.0550882053 0.0522701836 0.0129999995
v -0.0550529051 0.0525383091 0.0126999998
v -0.0550529051 0.0525383091 0.0129999995
v -0.0551819801 0.0551819801 0.0126999998
v -0.0551819801 0.0551819801 0.0129999995
v -0.0550110865 0.0553441525 0.0126999998
v -0.0550110865 0.0553441525 0.0129999995
v -0.0547704744 0.0484539509 0.0126999998
v -0.0547704744 0.0484539509 0.0129999995
v -0.0549522638 0.0486038065 0.0126999998
v -0.0549522638 0.0486038065 0.0129999995
v -0.0547621202 0.0505926275 0.0126999998
v -0.0547621202 0.0505926275 0.0129999995
v -0.0548535633 0.0507887316 0.0126999998
v -0.0548535633 0.0507887316 0.0129999995
v -0.0549482775 0.0510420465 0.0126999998
v -0.0549482775 0.0510420465 0.0129999995
v -0.0549943686 0.0528023386 0.0126999998
v -0.0549943686 0.0528023386 0.0129999995
v -0.0549311066 0.0530092621 0.0126999998
v -0.0549311066 0.0530092621 0.0129999995
v -0.0548319912 0.0532608843 0.0126999998
v -0.0548319912 0.0532608843 0.0129999995
v -0.0548319435 0.0554971552 0.0126999998
v -0.0548319435 0.0554971552 0.0129999995
v -0.0547704744 0.0555460501 0.0126999998
v -0.0547704744 0.0555460501 0.0129999995
v -0.0547081661 0.0484061384 0.0126999998
v -0.0547081661 0.0484061384 0.0129999995
v -0.0545079517 0.050177865 0.0126999998
v -0.0545079517 0.050177865 0.0129999995
v -0.0545700169 0.0502665043 0.0126999998
v -0.0545700169 0.0502665043 0.0129999995
v -0.0547371387 0.0505446386 0.0126999998
v -0.0547371387 0.0505446386 0.0129999995
v -0.0547371387 0.0534553623 0.0126999998
v -0.0547371387 0.0534553623 0.0129999995
v -0.0547113228 0.0535029078 0.0126999998
v -0.0547113228 0.0535029078 0.0129999995
v -0.0545393705 0.0537780857 0.0126999998
v -0.0545393705 0.0537780857 0.0129999995
v -0.0545163679 0.0557306671 0.0126999998
v -0.0545163679 0.0557306671 0.0129999995
v -0.0544508743 0.0482259846 0.0126999998
v -0.0544508743 0.0482259846 0.0129999995
v -0.0542671967 0.049885807 0.0126999998
v -0.0542671967 0.049885807 0.0129999995
v -0.0543747377 0.0500073576 0.0126999998
v -0.0543747377 0.0500073576 0.0129999995
v -0.05447577 0.0538656282 0.0126999998
v -0.05447577 0.0538656282 0.0129999995
v -0.0543395996 0.0540337849 0.0126999998
v -0.0543395996 0.0540337849 0.0129999995
v -0.0542500019 0.0558971167 0.0126999998
v -0.0542500019 0.0558971167 0.0129999995
v -0.0540429592 0.0479904699 0.0126999998
v -0.0540429592 0.0479904699 0.0129999995
v -0.0541816425 0.0480642128 0.0126999998
v -0.0541816425 0.0480642128 0.0129999995
v -0.0540337849 0.0496604013 0.0126999998
v -0.0540337849 0.0496604013 0.0129999995
v -0.0541534424 0.0497700453 0.0126999998
v -0.0541534424 0.0497700453 0.0129999995
v -0.0542299557 0.0541534424 0.0126999998
v -0.0542299557 0.0541534424 0.0129999995
v -0.0541141939 0.0542671967 0.0126999998
v -0.0541141939 0.0542671967 0.0129999995
v -0.0541126204 0.0559732628 0.0126999998
v -0.0541126204 0.0559732628 0.0129999995
v -0.0540429592 0.056009531 0.0126999998
v -0.0540429592 0.056009531 0.0129999995
v -0.0539726686 0.0479554272 0.0126999998
v -0.0539726686 0.0479554272 0.0129999995
v -0.0537780857 0.0494606304 0.0126999998
v -0.0537780857 0.0494606304 0.0129999995
v -0.0538656282 0.049524231 0.0126999998
v -0.0538656282 0.049524231 0.0129999995
v -0.0539926434 0.0543747377 0.0126999998
v -0.0539926434 0.0543747377 0.0129999995
v -0.0538221359 0.0545079517 0.0126999998
v -0.0538221359 0.0545079517 0.0129999995
v -0.0537582922 0.0561422729 0.0126999998
v -0.0537582922 0.0561422729 0.0129999995
v -0.0536857319 0.047827673 0.0126999998
v -0.0536857319 0.047827673 0.0129999995
v -0.0535029078 0.0492886782 0.0126999998
v -0.0535029078 0.0492886782 0.0129999995
v -0.0537334967 0.0545700169 0.0126999998
v -0.0537334967 0.0545700169 0.0129999995
v -0.0535390902 0.0562286186 0.0126999998
v -0.0535390902 0.0562286186 0.0129999995
v -0.0534650564 0.0477451658 0.0126999998
v -0.0534650564 0.0477451658 0.0129999995
v -0.0532608843 0.0491680098 0.0126999998
v -0.0532608843 0.0491680098 0.0129999995
v -0.0534553623 0.0492628622 0.0126999998
v -0.0534553623 0.0492628622 0.0129999995
v -0.0534553623 0.0547371387 0.0126999998
v -0.0534553623 0.0547371387 0.0129999995
v -0.0534073687 0.0547621202 0.0126999998
v -0.0534073687 0.0547621202 0.0129999995
v -0.0533156729 0.0563033724 0.0126999998
v -0.0533156729 0.0563033724 0.0129999995
v -0.053240366 0.0476743221 0.0126999998
v -0.053240366 0.0476743221 0.0129999995
v -0.0530092621 0.0490688944 0.0126999998
v -0.0530092621 0.0490688944 0.0129999995
v -0.0532112646 0.0548535633 0.0126999998
v -0.0532112646 0.0548535633 0.0129999995
v -0.0530122805 0.0563846636 0.0126999998
v -0.0530122805 0.0563846636 0.0129999995
v -0.0529356003 0.0475983381 0.0126999998
v -0.0529356003 0.0475983381 0.0129999995
v -0.0528023386 0.0490056276 0.0126999998
v -0.0528023386 0.0490056276 0.0129999995
v -0.0529579544 0.0549482775 0.0126999998
v -0.0529579544 0.0549482775 0.0129999995
v -0.052781415 0.0564316368 0.0126999998
v -0.052781415 0.0564316368 0.0129999995
v -0.0527039528 0.0475554037 0.0126999998
v -0.0527039528 0.0475554037 0.0129999995
v -0.0525383091 0.0489470959 0.0126999998
v -0.0525383091 0.0489470959 0.0129999995
v -0.052749958 0.0550079155 0.0126999998
v -0.052749958 0.0550079155 0.0129999995
v -0.0525484133 0.0564664555 0.0126999998
v -0.0525484133 0.0564664555 0.0129999995
v -0.0524703789 0.0475246525 0.0126999998
v -0.0524703789 0.0475246525 0.0129999995
v -0.0522701836 0.0489117956 0.0126999998
v -0.0522701836 0.0489117956 0.0129999995
v -0.0524849463 0.0550618315 0.0126999998
v -0.0524849463 0.0550618315 0.0129999995
v -0.0523139048 0.0564890385 0.0126999998
v -0.0523139048 0.0564890385 0.0129999995
v -0.0522355127 0.0475061655 0.0126999998
v -0.0522355127 0.0475061655 0.0129999995
v -0.0520541048 0.0489004707 0.0126999998
v -0.0520541048 0.0489004707 0.0129999995
v -0.0522162437 0.0550924492 0.0126999998
v -0.0522162437 0.0550924492 0.0129999995
v -0.0520785379 0.0564993143 0.0126999998
v -0.0520785379 0.0564993143 0.0129999995
v -0.0519999981 0.0475 0.0126999998
v -0.0519999981 0.0475 0.0129999995
v -0.0517837572 0.0489075518 0.0126999998
v -0.0517837572 0.0489075518 0.0129999995
v -0.0519999981 0.0551000023 0.0126999998
v -0.0519999981 0.0551000023 0.0129999995
v -0.0517644882 0.0564938307 0.0126999998
v -0.0517644882 0.0564938307 0.0129999995
v -0.0519999981 0.056500001 0.0126999998
v -0.0519999981 0.056500001 0.0129999995
v -0.0516860962 0.0475109625 0.0126999998
v -0.0516860962 0.0475109625 0.0129999995
v -0.0515150547 0.0489381647 0.0126999998
v -0.0515150547 0.0489381647 0.0129999995
v -0.0517298174 0.0550882053 0.0126999998
v -0.0517298174 0.0550882053 0.0129999995
v -0.0515296221 0.0564753485 0.0126999998
v -0.0515296221 0.0564753485 0.0129999995
v -0.0514515877 0.0475335407 0.0126999998
v -0.0514515877 0.0475335407 0.0129999995
v -0.0512500429 0.0489920855 0.0126999998
v -0.0512500429 0.0489920855 0.0129999995
v -0.0514616919 0.0550529051 0.0126999998
v -0.0514616919 0.0550529051 0.0129999995
v -0.0512960434 0.0564445972 0.0126999998
v -0.0512960434 0.0564445972 0.0129999995
v -0.0512185812 0.0475683641 0.0126999998
v -0.0512185812 0.0475683641 0.0129999995
v -0.0510420465 0.0490517235 0.0126999998
v -0.0510420465 0.0490517235 0.0129999995
v -0.0511976624 0.0549943686 0.0126999998
v -0.0511976624 0.0549943686 0.0129999995
v -0.0510643959 0.0564016628 0.0126999998
v -0.0510643959 0.0564016628 0.0129999995
v -0.0509877205 0.0476153326 0.0126999998
v -0.0509877205 0.0476153326 0.0129999995
v -0.0507887316 0.0491464329 0.0126999998
v -0.0507887316 0.0491464329 0.0129999995
v -0.0509907389 0.0549311066 0.0126999998
v -0.0509907389 0.0549311066 0.0129999995
v -0.0507596302 0.0563256788 0.0126999998
v -0.0507596302 0.0563256788 0.0129999995
v -0.0506843281 0.0476966286 0.0126999998
v -0.0506843281 0.0476966286 0.0129999995
v -0.0505926275 0.0492378807 0.0126999998
v -0.0505926275 0.0492378807 0.0129999995
v -0.0505446386 0.0492628622 0.0126999998
v -0.0505446386 0.0492628622 0.0129999995
v -0.0505446386 0.0547371387 0.0126999998
v -0.0505446386 0.0547371387 0.0129999995
v -0.0507391167 0.0548319912 0.0126999998
v -0.0507391167 0.0548319912 0.0129999995
v -0.0505349445 0.0562548351 0.0126999998
v -0.0505349445 0.0562548351 0.0129999995
v -0.0504609108 0.0477713823 0.0126999998
v -0.0504609108 0.0477713823 0.0129999995
v -0.0502665043 0.0494299841 0.0126999998
v -0.0502665043 0.0494299841 0.0129999995
v -0.0504970884 0.0547113228 0.0126999998
v -0.0504970884 0.0547113228 0.0129999995
v -0.0503142691 0.056172328 0.0126999998
v -0.0503142691 0.056172328 0.0129999995
v -0.0502417088 0.047857728 0.0126999998
v -0.0502417088 0.047857728 0.0129999995
v -0.050177865 0.0494920492 0.0126999998
v -0.050177865 0.0494920492 0.0129999995
v -0.0500073576 0.0496252632 0.0126999998
v -0.0500073576 0.0496252632 0.0129999995
v -0.0501343727 0.05447577 0.0126999998
v -0.0501343727 0.05447577 0.0129999995
v -0.0502219152 0.0545393705 0.0126999998
v -0.0502219152 0.0545393705 0.0129999995
v -0.0500273275 0.0560445738 0.0126999998
v -0.0500273275 0.0560445738 0.0129999995
v -0.0499570417 0.0479904699 0.0126999998
v -0.0499570417 0.0479904699 0.0129999995
v -0.0498873758 0.0480267382 0.0126999998
v -0.0498873758 0.0480267382 0.0129999995
v -0.049885807 0.0497328043 0.0126999998
v -0.049885807 0.0497328043 0.0129999995
v -0.0498079681 0.0498079681 0.0126999998
v -0.0498079681 0.0498079681 0.0129999995
v -0.0498465586 0.0542299557 0.0126999998
v -0.0498465586 0.0542299557 0.0129999995
v -0.0499662161 0.0543395996 0.0126999998
v -0.0499662161 0.0543395996 0.0129999995
v -0.0498183584 0.0559357882 0.0126999998
v -0.0498183584 0.0559357882 0.0129999995
v -0.0499570417 0.056009531 0.0126999998
v -0.0499570417 0.056009531 0.0129999995
v -0.049749999 0.0481028843 0.0126999998
v -0.049749999 0.0481028843 0.0129999995
v -0.0496604013 0.0499662161 0.0126999998
v -0.0496604013 0.0499662161 0.0129999995
v -0.049524231 0.0501343727 0.0126999998
v -0.049524231 0.0501343727 0.0129999995
v -0.0496252632 0.0539926434 0.0126999998
v -0.0496252632 0.0539926434 0.0129999995
v -0.0497328043 0.0541141939 0.0126999998
v -0.0497328043 0.0541141939 0.0129999995
v -0.0495491266 0.0557740164 0.0126999998
v -0.0495491266 0.0557740164 0.0129999995
v -0.049483633 0.0482693291 0.0126999998
v -0.049483633 0.0482693291 0.0129999995
v -0.0494606304 0.0502219152 0.0126999998
v -0.0494606304 0.0502219152 0.0129999995
v -0.0492886782 0.0504970884 0.0126999998
v -0.0492886782 0.0504970884 0.0129999995
v -0.0492628622 0.0505446386 0.0126999998
v -0.0492628622 0.0505446386 0.0129999995
v -0.0492628622 0.0534553623 0.0126999998
v -0.0492628622 0.0534553623 0.0129999995
v -0.0494299841 0.0537334967 0.0126999998
v -0.0494299841 0.0537334967 0.0129999995
v -0.0494920492 0.0538221359 0.0126999998
v -0.0494920492 0.0538221359 0.0129999995
v -0.0492918301 0.0555938578 0.0126999998
v -0.0492918301 0.0555938578 0.0129999995
v -0.0492295218 0.0484539509 0.0126999998
v -0.0492295218 0.0484539509 0.0129999995
v -0.0491680574 0.048502841 0.0126999998
v -0.0491680574 0.048502841 0.0129999995
v -0.0491680098 0.0507391167 0.0126999998
v -0.0491680098 0.0507391167 0.0129999995
v -0.0490688944 0.0509907389 0.0126999998
v -0.0490688944 0.0509907389 0.0129999995
v -0.0490056276 0.0511976624 0.0126999998
v -0.0490056276 0.0511976624 0.0129999995
v -0.0490517235 0.0529579544 0.0126999998
v -0.0490517235 0.0529579544 0.0129999995
v -0.0491464329 0.0532112646 0.0126999998
v -0.0491464329 0.0532112646 0.0129999995
v -0.0492378807 0.0534073687 0.0126999998
v -0.0492378807 0.0534073687 0.0129999995
v -0.0490477324 0.0553961945 0.0126999998
v -0.0490477324 0.0553961945 0.0129999995
v -0.0492295218 0.0555460501 0.0126999998
v -0.0492295218 0.0555460501 0.0129999995
v -0.0489889145 0.0486558485 0.0126999998
v -0.0489889145 0.0486558485 0.0129999995
v -0.0488740396 0.04876297 0.0126999998
v -0.0488740396 0.04876297 0.0129999995
v -0.0489470959 0.0514616919 0.0126999998
v -0.0489470959 0.0514616919 0.0129999995
v -0.0489117956 0.0517298174 0.0126999998
v -0.0489117956 0.0517298174 0.0129999995
v -0.0488999987 0.0519999981 0.0126999998
v -0.0488999987 0.0519999981 0.0129999995
v -0.0489075518 0.0522162437 0.0126999998
v -0.0489075518 0.0522162437 0.0129999995
v -0.0489381647 0.0524849463 0.0126999998
v -0.0489381647 0.0524849463 0.0129999995
v -0.0489920855 0.052749958 0.0126999998
v -0.0489920855 0.052749958 0.0129999995
v -0.04876297 0.0551259613 0.0126999998
v -0.04876297 0.0551259613 0.0129999995
v -0.0489310074 0.05529109 0.0126999998
v -0.0489310074 0.05529109 0.0129999995
v -0.0487089062 0.0489310074 0.0126999998
v -0.0487089062 0.0489310074 0.0129999995
v -0.0486038065 0.0490477324 0.0126999998
v -0.0486038065 0.0490477324 0.0129999995
v -0.048502841 0.0548319435 0.0126999998
v -0.048502841 0.0548319435 0.0129999995
v -0.0486558485 0.0550110865 0.0126999998
v -0.0486558485 0.0550110865 0.0129999995
v -0.0484539509 0.0492295218 0.0126999998
v -0.0484539509 0.0492295218 0.0129999995
v -0.0484061384 0.0492918301 0.0126999998
v -0.0484061384 0.0492918301 0.0129999995
v -0.0482693291 0.0545163679 0.0126999998
v -0.0482693291 0.0545163679 0.0129999995
v -0.0484539509 0.0547704744 0.0126999998
v -0.0484539509 0.0547704744 0.0129999995
v -0.0482259846 0.0495491266 0.0126999998
v -0.0482259846 0.0495491266 0.0129999995
v -0.0480642128 0.0498183584 0.0126999998
v -0.0480642128 0.0498183584 0.0129999995
v -0.0480267382 0.0541126204 0.0126999998
v -0.0480267382 0.0541126204 0.0129999995
v -0.0481028843 0.0542500019 0.0126999998
v -0.0481028843 0.0542500019 0.0129999995
v -0.0479904699 0.0499570417 0.0126999998
v -0.0479904699 0.0499570417 0.0129999995
v -0.0479554272 0.0500273275 0.0126999998
v -0.0479554272 0.0500273275 0.0129999995
v -0.047827673 0.0503142691 0.0126999998
v -0.047827673 0.0503142691 0.0129999995
v -0.0477713823 0.0535390902 0.0126999998
v -0.0477713823 0.0535390902 0.0129999995
v -0.047857728 0.0537582922 0.0126999998
v -0.047857728 0.0537582922 0.0129999995
v -0.0479904699 0.0540429592 0.0126999998
v -0.0479904699 0.0540429592 0.0129999995
v -0.0477451658 0.0505349445 0.0126999998
v -0.0477451658 0.0505349445 0.0129999995
v -0.0476743221 0.0507596302 0.0126999998
v -0.0476743221 0.0507596302 0.0129999995
v -0.0475983381 0.0510643959 0.0126999998
v -0.0475983381 0.0510643959 0.0129999995
v -0.0475554037 0.0512960434 0.0126999998
v -0.0475554037 0.0512960434 0.0129999995
v -0.0475246525 0.0515296221 0.0126999998
v -0.0475246525 0.0515296221 0.0129999995
v -0.0475061655 0.0517644882 0.0126999998
v -0.0475061655 0.0517644882 0.0129999995
v -0.0475006866 0.0520785379 0.0126999998
v -0.0475006866 0.0520785379 0.0129999995
v -0.0475109625 0.0523139048 0.0126999998
v -0.0475109625 0.0523139048 0.0129999995
v -0.0475335407 0.0525484133 0.0126999998
v -0.0475335407 0.0525484133 0.0129999995
v -0.0475683641 0.052781415 0.0126999998
v -0.0475683641 0.052781415 0.0129999995
v -0.0476153326 0.0530122805 0.0126999998
v -0.0476153326 0.0530122805 0.0129999995
v -0.0476966286 0.0533156729 0.0126999998
v -0.0476966286 0.0533156729 0.0129999995
v -0.0475 0.0519999981 0.0126999998
v -0.0475 0.0519999981 0.0129999995
f 1 14 2
f 1 2 15
f 13 14 1
f 1 137 13
f 15 137 1
f 14 72 2
f 15 2 16
f 2 72 16
f 3 4 5
f 3 32 4
f 5 137 3
f 31 32 3
f 3 137 31
f 5 4 6
f 4 92 6
f 32 90 4
f 4 90 92
f 5 6 7
f 7 137 5
f 7 6 8
f 6 68 8
f 6 92 68
f 7 8 9
f 9 137 7
f 9 8 10
f 8 68 10
f 9 10 11
f 11 137 9
f 11 10 12
f 10 70 12
f 10 68 70
f 11 12 13
f 13 137 11
f 13 12 14
f 12 72 14
f 12 70 72
f 15 16 17
f 17 73 15
f 15 69 67
f 15 67 91
f 71 69 15
f 15 73 71
f 15 89 87
f 15 87 109
f 15 91 89
f 107 105 15
f 15 105 123
f 109 107 15
f 123 121 15
f 121 137 15
f 17 16 18
f 16 74 18
f 16 72 74
f 17 18 19
f 19 75 17
f 17 75 73
f 19 18 20
f 18 76 20
f 18 74 76
f 19 20 21
f 21 75 19
f 21 20 22
f 20 76 22
f 21 22 23
f 23 77 21
f 21 77 75
f 23 22 24
f 22 78 24
f 22 76 78
f 23 24 25
f 25 93 23
f 23 93 77
f 25 24 26
f 24 94 26
f 24 78 94
f 25 26 33
f 33 95 25
f 25 95 93
f 33 26 34
f 26 96 34
f 26 94 96
f 27 28 29
f 27 42 28
f 29 137 27
f 41 42 27
f 27 137 41
f 29 28 30
f 28 88 30
f 42 110 28
f 28 110 88
f 29 30 31
f 31 137 29
f 31 30 32
f 30 90 32
f 30 88 90
f 33 34 35
f 35 95 33
f 35 34 36
f 34 96 36
f 35 36 37
f 37 97 35
f 35 97 95
f 37 36 38
f 36 98 38
f 36 96 98
f 37 38 43
f 43 97 37
f 43 38 44
f 38 98 44
f 39 40 41
f 39 50 40
f 41 137 39
f 49 50 39
f 39 137 49
f 41 40 42
f 40 108 42
f 50 108 40
f 42 108 110
f 43 44 45
f 45 113 43
f 43 111 97
f 43 113 111
f 45 44 46
f 44 114 46
f 44 98 112
f 44 112 114
f 45 46 51
f 51 113 45
f 51 46 52
f 46 114 52
f 47 48 49
f 47 58 48
f 49 137 47
f 57 58 47
f 47 137 57
f 49 48 50
f 48 124 50
f 58 124 48
f 50 106 108
f 50 124 106
f 51 52 53
f 53 125 51
f 51 115 113
f 51 125 115
f 53 52 54
f 52 126 54
f 52 114 116
f 52 116 126
f 53 54 59
f 59 125 53
f 59 54 60
f 54 126 60
f 55 56 57
f 55 66 56
f 57 137 55
f 65 66 55
f 55 137 65
f 57 56 58
f 56 122 58
f 66 138 56
f 56 138 122
f 58 122 124
f 59 60 61
f 61 127 59
f 59 127 125
f 61 60 62
f 60 128 62
f 60 126 128
f 61 62 79
f 79 127 61
f 79 62 80
f 62 128 80
f 63 64 65
f 63 86 64
f 65 137 63
f 85 86 63
f 63 135 85
f 63 137 135
f 65 64 66
f 64 138 66
f 86 138 64
f 67 70 68
f 67 68 91
f 69 70 67
f 91 68 92
f 69 72 70
f 71 72 69
f 71 74 72
f 73 74 71
f 73 76 74
f 75 76 73
f 75 78 76
f 77 78 75
f 77 94 78
f 93 94 77
f 79 80 81
f 81 141 79
f 79 139 127
f 79 141 139
f 81 80 82
f 80 142 82
f 80 128 140
f 80 140 142
f 81 82 99
f 99 141 81
f 99 82 100
f 82 142 100
f 83 84 85
f 83 104 84
f 85 151 83
f 103 104 83
f 83 151 103
f 85 84 86
f 84 138 86
f 104 138 84
f 85 135 151
f 87 90 88
f 87 88 109
f 89 90 87
f 109 88 110
f 89 92 90
f 91 92 89
f 93 96 94
f 95 96 93
f 95 98 96
f 97 98 95
f 97 112 98
f 111 112 97
f 99 100 101
f 101 153 99
f 99 153 141
f 101 100 102
f 100 154 102
f 100 142 154
f 101 102 117
f 117 153 101
f 117 102 118
f 102 154 118
f 103 120 104
f 119 120 103
f 103 151 119
f 120 138 104
f 105 108 106
f 105 106 123
f 107 108 105
f 123 106 124
f 107 110 108
f 109 110 107
f 111 114 112
f 113 114 111
f 113 116 114
f 115 116 113
f 115 126 116
f 125 126 115
f 117 118 129
f 129 163 117
f 117 155 153
f 117 163 155
f 129 118 130
f 118 164 130
f 118 154 156
f 118 156 164
f 119 134 120
f 133 134 119
f 119 151 133
f 134 138 120
f 121 124 122
f 121 122 137
f 123 124 121
f 137 122 138
f 125 128 126
f 127 128 125
f 127 140 128
f 139 140 127
f 129 130 143
f 143 163 129
f 143 130 144
f 130 164 144
f 131 132 133
f 131 148 132
f 133 151 131
f 147 148 131
f 131 151 147
f 133 132 134
f 132 138 134
f 148 138 132
f 135 138 136
f 135 136 151
f 137 138 135
f 136 138 220
f 151 136 152
f 152 136 220
f 160 138 148
f 168 138 160
f 180 138 168
f 188 138 180
f 196 138 188
f 204 138 196
f 212 138 204
f 220 138 212
f 139 142 140
f 141 142 139
f 141 154 142
f 153 154 141
f 143 144 145
f 145 175 143
f 143 173 163
f 143 175 173
f 145 144 146
f 144 176 146
f 144 164 174
f 144 174 176
f 145 146 157
f 157 175 145
f 157 146 158
f 146 176 158
f 147 160 148
f 147 151 159
f 159 160 147
f 149 152 150
f 149 150 161
f 151 152 149
f 149 219 151
f 161 219 149
f 220 150 152
f 161 150 162
f 162 150 220
f 159 151 167
f 167 151 179
f 179 151 187
f 187 151 195
f 195 151 203
f 203 151 211
f 211 151 219
f 153 156 154
f 155 156 153
f 155 164 156
f 163 164 155
f 157 158 165
f 165 183 157
f 157 183 175
f 165 158 166
f 158 184 166
f 158 176 184
f 159 168 160
f 167 168 159
f 161 162 171
f 171 229 161
f 161 229 219
f 171 162 172
f 172 162 220
f 163 174 164
f 173 174 163
f 165 166 177
f 177 183 165
f 177 166 178
f 166 184 178
f 167 180 168
f 179 180 167
f 169 172 170
f 169 170 181
f 171 172 169
f 169 229 171
f 181 229 169
f 220 170 172
f 181 170 182
f 220 182 170
f 173 176 174
f 175 176 173
f 175 184 176
f 183 184 175
f 177 178 185
f 177 191 183
f 185 191 177
f 178 184 192
f 185 178 186
f 178 192 186
f 179 188 180
f 187 188 179
f 181 182 189
f 189 237 181
f 181 237 229
f 189 182 190
f 220 190 182
f 183 192 184
f 191 192 183
f 185 186 193
f 185 199 191
f 193 199 185
f 186 192 200
f 193 186 194
f 186 200 194
f 187 196 188
f 195 196 187
f 189 190 197
f 197 237 189
f 197 190 198
f 220 198 190
f 191 200 192
f 199 200 191
f 193 194 201
f 193 207 199
f 201 207 193
f 194 200 208
f 201 194 202
f 194 208 202
f 195 204 196
f 203 204 195
f 197 198 205
f 205 245 197
f 197 245 237
f 205 198 206
f 220 206 198
f 199 208 200
f 207 208 199
f 201 202 209
f 209 207 201
f 202 208 210
f 209 202 210
f 203 212 204
f 211 212 203
f 205 206 213
f 213 253 205
f 205 253 245
f 213 206 214
f 214 206 220
f 207 216 208
f 209 215 207
f 215 216 207
f 210 208 216
f 209 210 217
f 217 215 209
f 210 216 218
f 217 210 218
f 211 220 212
f 219 220 211
f 213 214 221
f 221 253 213
f 220 222 214
f 221 214 222
f 215 224 216
f 217 223 215
f 223 224 215
f 218 216 224
f 217 218 227
f 227 223 217
f 224 234 218
f 227 218 228
f 218 424 228
f 218 234 242
f 218 242 250
f 218 250 258
f 218 258 270
f 218 270 268
f 268 278 218
f 278 290 218
f 218 290 288
f 288 304 218
f 304 302 218
f 218 302 424
f 219 230 220
f 229 230 219
f 230 222 220
f 221 222 231
f 231 261 221
f 221 261 253
f 230 232 222
f 231 222 232
f 223 234 224
f 225 223 227
f 235 223 225
f 233 234 223
f 235 233 223
f 225 228 226
f 225 226 235
f 227 228 225
f 228 438 226
f 235 226 236
f 226 426 236
f 226 438 426
f 228 424 438
f 229 238 230
f 237 238 229
f 238 232 230
f 231 232 239
f 239 273 231
f 231 273 261
f 246 232 238
f 239 232 240
f 246 240 232
f 233 242 234
f 243 233 235
f 241 242 233
f 243 241 233
f 235 236 243
f 243 236 244
f 236 428 244
f 236 426 428
f 237 246 238
f 245 246 237
f 239 240 247
f 247 281 239
f 239 281 273
f 254 240 246
f 247 240 248
f 282 248 240
f 262 240 254
f 274 240 262
f 282 240 274
f 241 250 242
f 251 241 243
f 249 250 241
f 259 249 241
f 259 241 251
f 243 244 251
f 251 244 252
f 244 430 252
f 244 428 430
f 245 254 246
f 253 254 245
f 247 248 255
f 255 293 247
f 247 293 281
f 255 248 256
f 294 256 248
f 294 248 282
f 249 258 250
f 257 258 249
f 271 257 249
f 271 249 259
f 251 252 259
f 259 252 260
f 252 432 260
f 252 430 432
f 253 262 254
f 261 262 253
f 255 256 263
f 263 309 255
f 255 295 293
f 255 309 295
f 263 256 264
f 310 264 256
f 296 256 294
f 310 256 296
f 257 270 258
f 269 270 257
f 291 269 257
f 279 257 271
f 291 257 279
f 259 260 271
f 271 260 272
f 260 434 272
f 260 432 434
f 261 274 262
f 273 274 261
f 263 264 265
f 265 309 263
f 265 264 266
f 310 266 264
f 265 266 275
f 275 321 265
f 265 321 309
f 275 266 276
f 322 276 266
f 322 266 310
f 267 268 269
f 267 278 268
f 307 267 269
f 277 278 267
f 305 277 267
f 305 267 307
f 269 268 270
f 307 269 291
f 271 272 279
f 279 272 280
f 272 436 280
f 272 434 436
f 273 282 274
f 281 282 273
f 275 276 283
f 283 337 275
f 275 337 321
f 283 276 284
f 338 284 276
f 338 276 322
f 277 290 278
f 289 290 277
f 335 289 277
f 319 277 305
f 335 277 319
f 279 280 291
f 291 280 292
f 280 408 292
f 280 436 408
f 281 294 282
f 293 294 281
f 283 284 285
f 285 339 283
f 283 339 337
f 285 284 286
f 340 286 284
f 340 284 338
f 285 286 297
f 297 357 285
f 285 357 339
f 297 286 298
f 358 298 286
f 358 286 340
f 287 288 289
f 287 304 288
f 335 287 289
f 303 304 287
f 353 303 287
f 355 287 335
f 353 287 355
f 289 288 290
f 291 292 307
f 307 292 308
f 292 410 308
f 292 408 410
f 293 296 294
f 295 296 293
f 295 310 296
f 309 310 295
f 297 298 299
f 299 359 297
f 297 359 357
f 299 298 300
f 360 300 298
f 360 298 358
f 299 300 311
f 299 311 359
f 311 300 312
f 360 312 300
f 301 302 303
f 301 318 302
f 375 301 303
f 317 318 301
f 423 317 301
f 373 301 375
f 373 383 301
f 301 383 381
f 301 381 391
f 391 389 301
f 301 389 399
f 301 399 397
f 301 397 411
f 409 407 301
f 407 435 301
f 301 411 409
f 301 437 423
f 301 427 425
f 301 425 437
f 301 429 427
f 301 431 429
f 301 433 431
f 435 433 301
f 303 302 304
f 424 302 318
f 375 303 353
f 305 308 306
f 305 306 319
f 307 308 305
f 308 412 306
f 319 306 320
f 306 398 320
f 306 412 398
f 308 410 412
f 309 322 310
f 321 322 309
f 311 312 313
f 377 311 313
f 359 311 377
f 313 312 314
f 378 314 312
f 378 312 360
f 313 314 323
f 379 313 323
f 377 313 379
f 323 314 324
f 380 324 314
f 380 314 378
f 315 316 317
f 315 334 316
f 423 315 317
f 333 334 315
f 423 333 315
f 317 316 318
f 424 318 316
f 424 316 334
f 319 320 335
f 335 320 336
f 320 400 336
f 320 398 400
f 321 338 322
f 337 338 321
f 323 324 325
f 385 323 325
f 379 323 385
f 325 324 326
f 386 326 324
f 386 324 380
f 325 326 327
f 387 325 327
f 385 325 387
f 327 326 328
f 388 328 326
f 388 326 386
f 327 328 341
f 393 327 341
f 387 327 393
f 341 328 342
f 394 342 328
f 394 328 388
f 329 330 331
f 329 352 330
f 423 329 331
f 351 352 329
f 421 351 329
f 421 329 423
f 331 330 332
f 424 332 330
f 422 330 352
f 424 330 422
f 331 332 333
f 331 333 423
f 333 332 334
f 334 332 424
f 335 336 355
f 355 336 356
f 336 390 356
f 336 400 390
f 337 340 338
f 339 340 337
f 339 358 340
f 357 358 339
f 341 342 343
f 393 341 343
f 343 342 344
f 394 344 342
f 343 344 345
f 401 343 345
f 393 343 395
f 395 343 401
f 345 344 346
f 402 346 344
f 396 344 394
f 402 344 396
f 345 346 361
f 403 345 361
f 401 345 403
f 361 346 362
f 404 362 346
f 404 346 402
f 347 348 349
f 347 372 348
f 347 349 419
f 371 372 347
f 419 371 347
f 349 348 350
f 420 350 348
f 420 348 372
f 349 350 351
f 349 351 421
f 419 349 421
f 351 350 352
f 422 352 350
f 422 350 420
f 353 356 354
f 353 354 375
f 355 356 353
f 356 392 354
f 375 354 376
f 354 382 376
f 354 392 382
f 356 390 392
f 357 360 358
f 359 360 357
f 359 378 360
f 377 378 359
f 361 362 363
f 405 361 363
f 403 361 405
f 363 362 364
f 406 364 362
f 406 362 404
f 363 364 365
f 413 363 365
f 405 363 413
f 365 364 366
f 414 366 364
f 414 364 406
f 365 366 367
f 415 365 367
f 413 365 415
f 367 366 368
f 416 368 366
f 416 366 414
f 367 368 369
f 415 367 369
f 369 368 370
f 416 370 368
f 369 370 371
f 417 369 371
f 415 369 417
f 371 370 372
f 418 372 370
f 418 370 416
f 417 371 419
f 420 372 418
f 373 376 374
f 373 374 383
f 375 376 373
f 376 384 374
f 383 374 384
f 376 382 384
f 377 380 378
f 379 380 377
f 379 386 380
f 385 386 379
f 381 384 382
f 381 382 391
f 383 384 381
f 391 382 392
f 385 388 386
f 387 388 385
f 387 394 388
f 393 394 387
f 389 392 390
f 389 390 399
f 391 392 389
f 399 390 400
f 393 396 394
f 395 396 393
f 395 402 396
f 401 402 395
f 397 400 398
f 397 398 411
f 399 400 397
f 411 398 412
f 401 404 402
f 403 404 401
f 403 406 404
f 405 406 403
f 405 414 406
f 413 414 405
f 407 410 408
f 407 408 435
f 409 410 407
f 435 408 436
f 409 412 410
f 411 412 409
f 413 416 414
f 415 416 413
f 415 418 416
f 417 418 415
f 417 420 418
f 419 420 417
f 419 422 420
f 421 422 419
f 421 424 422
f 423 424 421
f 423 438 424
f 437 438 423
f 425 428 426
f 425 426 437
f 427 428 425
f 437 426 438
f 427 430 428
f 429 430 427
f 429 432 430
f 431 432 429
f 431 434 432
f 433 434 431
f 433 436 434
f 435 436 433
