v -0.03200103 -0.0292344122 -0.00041582346
v -0.0320214004 -0.0292140513 -0.000243737698
v -0.0320319385 -0.0292035084 0
v -0.032018177 -0.0292172747 0.000278346539
v -0.0317618484 -0.0294735985 -0.00117557049
v -0.0318424721 -0.0293929796 -0.000999999046
v -0.0319289608 -0.0293064861 -0.000749213696
v -0.0319837494 -0.0292516976 0.00051763773
v -0.0319195099 -0.0293159323 0.000781462193
v -0.0318299408 -0.0294055061 0.00103007555
v -0.0319899292 -0.0292455177 -0.00048384428
v -0.0319956894 -0.0292397575 0.000449903011
v -0.0315077133 -0.0297277289 -0.00155429125
v -0.0315640182 -0.0296714287 -0.0014862895
v -0.0317321415 -0.0295033102 -0.00123132229
v -0.0317321415 -0.0295033102 0.00123132229
v -0.0317167778 -0.0295186739 0.00125864029
v -0.0315455265 -0.0296899157 0.00150941849
v -0.0317471619 -0.0294882803 -0.00120362997
v -0.0317471619 -0.0294882803 0.00120362997
v -0.0312597675 -0.0299756842 -0.00178201199
v -0.0313033504 -0.0299321013 -0.00174923897
v -0.0314688225 -0.0297666292 0.00159727097
v -0.0312816543 -0.0299537926 0.00176589489
v -0.0314884014 -0.0297470455 -0.00157602072
v -0.0314884014 -0.0297470455 0.00157602072
v -0.0310075302 -0.030227912 -0.00192252398
v -0.0312153931 -0.0300200491 0.00181261539
v -0.0312376709 -0.0299977713 -0.00179758787
v -0.0312376709 -0.0299977713 0.00179758787
v -0.0307655449 -0.0304698973 -0.00198904276
v -0.0309837456 -0.0302516966 0.00193185091
v -0.0306177254 -0.0306177216 -0.00200000048
v -0.0305190773 -0.0307163744 -0.0019951272
v -0.0307163734 -0.0305190735 0.0019951272
v -0.0306177254 -0.0306177216 0.00200000048
v -0.0307409782 -0.0304944687 -0.00199239016
v -0.0307409782 -0.0304944687 0.00199239016
v -0.0302516956 -0.0309837513 -0.00193185091
v -0.0304698963 -0.0307655506 0.00198904276
v -0.030494463 -0.0307409792 -0.00199239016
v -0.030494463 -0.0307409792 0.00199239016
v -0.0300200481 -0.031215394 -0.00181261539
v -0.030227911 -0.0310075359 0.00192252398
v -0.0299537868 -0.0312816553 -0.00176589489
v -0.0297666283 -0.0314688187 -0.00159727097
v -0.0299321003 -0.0313033466 0.00174923897
v -0.0299756832 -0.0312597637 0.00178201199
v -0.0299977703 -0.0312376719 -0.00179758787
v -0.0299977703 -0.0312376719 0.00179758787
v -0.0296899147 -0.0315455322 -0.00150941849
v -0.0295186729 -0.031716774 -0.00125864029
v -0.0295033092 -0.0317321377 -0.00123132229
v -0.0295033092 -0.0317321377 0.00123132229
v -0.0296714325 -0.0315640192 0.0014862895
v -0.0297277279 -0.031507719 0.00155429125
v -0.0297470493 -0.0314884024 -0.00157602072
v -0.0297470493 -0.0314884024 0.00157602072
v -0.0294055099 -0.0318299418 -0.00103007555
v -0.0293159313 -0.0319195156 -0.000781462193
v -0.0292517013 -0.0319837504 -0.00051763773
v -0.0293064899 -0.0319289618 0.000749213696
v -0.0293929787 -0.0318424683 0.000999999046
v -0.0294736023 -0.0317618446 0.00117557049
v -0.0294882793 -0.0317471628 -0.00120362997
v -0.0294882793 -0.0317471628 0.00120362997
v -0.0292172737 -0.0320181732 -0.000278346539
v -0.029203722 -0.0320317202 -3.490448e-05
v -0.0292140503 -0.0320213966 0.000243737698
v -0.0292344112 -0.0320010309 0.00041582346
v -0.0292397518 -0.0319956904 -0.000449903011
v -0.0292455215 -0.0319899302 0.00048384428
v -0.0205058784 -0.017677887 -3.490448e-05
v -0.0205060978 -0.0176776676 0
v -0.0203041 -0.0178796654 -0.00103007555
v -0.0203936691 -0.0177900915 -0.000781462193
v -0.0204290504 -0.0177547197 -0.000651135445
v -0.02040312 -0.0177806454 0.000749213696
v -0.0203166313 -0.0178671389 0.000999999046
v -0.0202503414 -0.0179334288 0.00114715338
v -0.0204579086 -0.0177258568 -0.00051763773
v -0.0204923363 -0.0176914339 -0.000278346539
v -0.0204983539 -0.0176854162 -0.000209057331
v -0.0204955597 -0.0176882105 0.000243737698
v -0.0204640884 -0.017719677 0.00048384428
v -0.0204368801 -0.0177468853 0.000618033409
v -0.0200196953 -0.0181640749 -0.00150941849
v -0.02017523 -0.0180085306 -0.00128557444
v -0.0200381775 -0.0181455879 0.0014862895
v -0.0200009174 -0.0181828432 0.00153208971
v -0.020190937 -0.0179928331 -0.00125864029
v -0.0202360077 -0.0179477625 -0.00117557049
v -0.0202063007 -0.0179774695 0.00123132229
v -0.020190937 -0.0179928331 0.00125864029
v -0.0197558136 -0.0184279518 -0.00176589489
v -0.0199231357 -0.0182606297 -0.00161803484
v -0.0197775097 -0.0184062605 0.00174923897
v -0.0197558136 -0.0184279518 0.00176589489
v -0.0199818725 -0.0182018881 -0.00155429125
v -0.0199429817 -0.0182407885 0.00159727097
v -0.0196670933 -0.0185166721 -0.00182708979
v -0.0195053596 -0.0186784058 0.00191261053
v -0.0197339268 -0.0184498434 -0.00178201199
v -0.0196895523 -0.0184942083 0.00181261539
v -0.0194100113 -0.0187737541 -0.00194874048
v -0.0192642326 -0.0189195328 0.00198509216
v -0.0194816894 -0.0187020712 -0.00192252398
v -0.0194340153 -0.0187497549 0.00194059134
v -0.0190918846 -0.0190918808 -0.00200000048
v -0.0191658993 -0.0190178709 -0.00199725866
v -0.0190178699 -0.0191658955 0.00199725866
v -0.0190918846 -0.0190918808 0.00200000048
v -0.0192397041 -0.0189440565 -0.00198904276
v -0.0191905327 -0.0189932327 0.0019951272
v -0.0189195366 -0.0192642336 -0.00198509216
v -0.0187737579 -0.0194100123 0.00194874048
v -0.0189932365 -0.0191905336 -0.0019951272
v -0.0189440555 -0.0192397099 0.00198904276
v -0.0186784096 -0.0195053606 -0.00191261053
v -0.0185166664 -0.0196670942 0.00182708979
v -0.0187497539 -0.0194340115 -0.00194059134
v -0.0187020702 -0.0194816952 0.00192252398
v -0.0184279461 -0.0197558146 -0.00176589489
v -0.0184062595 -0.0197775059 -0.00174923897
v -0.0182606335 -0.0199231367 0.00161803484
v -0.0184279461 -0.0197558146 0.00176589489
v -0.0184942074 -0.0196895533 -0.00181261539
v -0.0184498424 -0.019733923 0.00178201199
v -0.0181828422 -0.0200009232 -0.00153208971
v -0.0181455917 -0.0200381785 -0.0014862895
v -0.0180085297 -0.0201752358 0.00128557444
v -0.0181640739 -0.0200196915 0.00150941849
v -0.0182407875 -0.0199429779 -0.00159727097
v -0.0182018871 -0.0199818783 0.00155429125
v -0.0179334278 -0.0202503376 -0.00114715338
v -0.0178671379 -0.0203166275 -0.000999999046
v -0.0177806492 -0.020403121 -0.000749213696
v -0.0177547188 -0.0204290466 0.000651135445
v -0.0177900906 -0.0203936749 0.000781462193
v -0.0178796692 -0.020304101 0.00103007555
v -0.0179928322 -0.0201909332 -0.00125864029
v -0.0179774685 -0.0202062969 -0.00123132229
v -0.0179477615 -0.0202360039 0.00117557049
v -0.0179928322 -0.0201909332 0.00125864029
v -0.0176830501 -0.0205007153 -0.000174312592
v -0.0176776714 -0.0205060988 0
v -0.0177468891 -0.0204368811 -0.000618033409
v -0.0177196808 -0.0204640894 -0.00048384428
v -0.0176882095 -0.0204955559 -0.000243737698
v -0.0176854153 -0.0204983502 0.000209057331
v -0.0176914329 -0.0204923325 0.000278346539
v -0.0177258606 -0.0204579096 0.00051763773
f 67 2 1
f 83 1 2
f 71 1 11
f 82 11 1
f 67 1 71
f 82 1 83
f 2 68 3
f 74 2 3
f 68 2 67
f 73 2 74
f 83 2 73
f 3 69 4
f 85 3 4
f 3 68 69
f 74 3 84
f 84 3 85
f 4 70 12
f 85 4 12
f 4 69 70
f 59 6 5
f 76 5 6
f 65 5 19
f 92 19 5
f 59 5 65
f 75 5 76
f 92 5 75
f 60 7 6
f 77 6 7
f 60 6 59
f 76 6 77
f 61 11 7
f 82 7 11
f 61 7 60
f 77 7 81
f 81 7 82
f 8 62 9
f 79 8 9
f 12 72 8
f 86 12 8
f 8 72 62
f 78 8 79
f 86 8 78
f 9 63 10
f 80 9 10
f 9 62 63
f 79 9 80
f 10 64 20
f 93 10 20
f 10 63 64
f 80 10 93
f 71 11 61
f 12 70 72
f 85 12 86
f 51 14 13
f 88 13 14
f 57 13 25
f 99 25 13
f 51 13 57
f 87 13 88
f 99 13 87
f 52 15 14
f 92 14 15
f 52 14 51
f 88 14 91
f 91 14 92
f 53 19 15
f 92 15 19
f 53 15 52
f 16 54 17
f 94 16 17
f 20 66 16
f 93 20 16
f 16 66 54
f 93 16 94
f 17 55 18
f 90 17 18
f 17 54 55
f 89 17 90
f 94 17 89
f 18 56 26
f 100 18 26
f 18 55 56
f 90 18 100
f 65 19 53
f 20 64 66
f 45 22 21
f 96 21 22
f 49 21 29
f 103 29 21
f 45 21 49
f 95 21 96
f 103 21 95
f 46 25 22
f 99 22 25
f 46 22 45
f 96 22 99
f 23 47 24
f 98 23 24
f 26 58 23
f 100 26 23
f 23 58 47
f 97 23 98
f 100 23 97
f 24 48 30
f 104 24 30
f 24 47 48
f 98 24 104
f 57 25 46
f 26 56 58
f 43 29 27
f 103 27 29
f 39 27 31
f 107 31 27
f 43 27 39
f 101 27 103
f 107 27 101
f 30 50 28
f 104 30 28
f 28 44 32
f 108 28 32
f 28 50 44
f 104 28 102
f 102 28 108
f 49 29 43
f 30 48 50
f 41 31 37
f 113 37 31
f 39 31 41
f 105 31 107
f 113 31 105
f 32 40 38
f 114 32 38
f 32 44 40
f 108 32 106
f 106 32 114
f 109 34 33
f 110 33 34
f 109 33 110
f 41 37 34
f 113 34 37
f 117 41 34
f 110 34 109
f 110 34 113
f 117 34 110
f 111 36 35
f 112 35 36
f 38 42 35
f 114 38 35
f 118 35 42
f 111 35 112
f 114 35 111
f 111 35 118
f 112 36 111
f 38 40 42
f 117 39 41
f 121 43 39
f 115 39 117
f 121 39 115
f 118 42 40
f 122 40 44
f 118 40 116
f 116 40 122
f 127 49 43
f 119 43 121
f 127 43 119
f 128 44 50
f 122 44 120
f 120 44 128
f 123 46 45
f 127 45 49
f 123 45 127
f 133 57 46
f 124 46 123
f 133 46 124
f 125 48 47
f 134 47 58
f 125 47 134
f 128 50 48
f 126 48 125
f 128 48 126
f 129 52 51
f 133 51 57
f 129 51 133
f 141 53 52
f 130 52 129
f 141 52 130
f 142 65 53
f 142 53 141
f 143 55 54
f 143 54 66
f 131 56 55
f 131 55 144
f 144 55 143
f 134 58 56
f 132 56 131
f 134 56 132
f 135 60 59
f 142 59 65
f 135 59 142
f 136 61 60
f 136 60 135
f 147 71 61
f 137 61 136
f 147 61 137
f 138 63 62
f 151 62 72
f 138 62 152
f 152 62 151
f 139 64 63
f 139 63 138
f 143 66 64
f 140 64 139
f 143 64 140
f 148 68 67
f 148 67 71
f 145 69 68
f 145 68 149
f 149 68 148
f 150 70 69
f 146 69 145
f 150 69 146
f 151 72 70
f 151 70 150
f 148 71 147
f 74 146 73
f 73 145 83
f 73 146 145
f 150 74 84
f 146 74 150
f 76 136 75
f 75 135 92
f 75 136 135
f 77 137 76
f 76 137 136
f 81 147 77
f 77 147 137
f 139 78 79
f 138 86 78
f 138 78 139
f 140 79 80
f 139 79 140
f 143 80 93
f 140 80 143
f 82 148 81
f 81 148 147
f 83 149 82
f 82 149 148
f 83 145 149
f 151 84 85
f 150 84 151
f 152 85 86
f 151 85 152
f 152 86 138
f 88 130 87
f 87 129 99
f 87 130 129
f 91 141 88
f 88 141 130
f 132 89 90
f 131 94 89
f 131 89 132
f 134 90 100
f 132 90 134
f 92 142 91
f 91 142 141
f 92 135 142
f 144 93 94
f 143 93 144
f 144 94 131
f 96 124 95
f 95 123 103
f 95 124 123
f 99 133 96
f 96 133 124
f 126 97 98
f 125 100 97
f 125 97 126
f 128 98 104
f 126 98 128
f 99 129 133
f 134 100 125
f 103 127 101
f 101 119 107
f 101 127 119
f 120 104 102
f 122 102 108
f 120 102 122
f 103 123 127
f 128 104 120
f 107 121 105
f 105 115 113
f 105 121 115
f 116 108 106
f 118 106 114
f 116 106 118
f 107 119 121
f 122 108 116
f 113 117 110
f 118 114 111
f 113 115 117
