v 0.0144960671 -0.0194450588 -6.108284e-05
v 0.0144956904 -0.0194454403 0
v 0.0146600704 -0.0192810554 -0.00125428677
v 0.0146038275 -0.0193372936 -0.00102330208
v 0.0145591192 -0.0193820019 -0.000787329674
v 0.0145261603 -0.0194149704 -0.000547521114
v 0.0145051079 -0.019436018 -0.000305044651
v 0.0145017176 -0.0194394035 -0.000244147778
v 0.0145017176 -0.0194394035 0.000244147778
v 0.0145197754 -0.0194213505 0.000487105846
v 0.0145497732 -0.0193913574 0.00072769165
v 0.0145915632 -0.0193495674 0.000964729786
v 0.0146449404 -0.0192961807 0.00119707108
v 0.0146759014 -0.0192652244 0.00131112337
v 0.0147461586 -0.0191949673 -0.00153429985
v 0.0146924286 -0.0192486973 -0.00136755943
v 0.0147275667 -0.0192135639 0.00147916317
v 0.0147461586 -0.0191949673 0.00153429985
v 0.014849184 -0.0190919418 -0.00180263281
v 0.0147654324 -0.0191756935 -0.00158896685
v 0.0148272591 -0.0191138668 0.00174999952
v 0.0149187975 -0.0190223236 0.00195717573
v 0.014943264 -0.0189978619 -0.00200751781
v 0.0149940424 -0.0189470882 0.00210635185
v 0.0151027517 -0.0188383694 -0.00229620695
v 0.0150203352 -0.0189207859 -0.0021548152
v 0.0150746994 -0.0188664265 0.00224975586
v 0.0151902895 -0.0187508411 0.00243130445
v 0.0152205639 -0.018720562 -0.00247487307
v 0.0152205639 -0.018720562 0.00247487307
v 0.0152513723 -0.0186897583 -0.00251768827
v 0.0154130726 -0.0185280533 0.00272001028
v 0.0154468804 -0.0184942455 -0.00275803804
v 0.0154811459 -0.01845998 0.00279522419
v 0.0155158692 -0.0184252567 -0.00283155918
v 0.0156590777 -0.0182820434 0.00296816826
v 0.0156959086 -0.0182452125 -0.00300008535
v 0.0157331257 -0.0182080002 0.00303108931
v 0.0157707195 -0.0181704063 -0.00306116819
v 0.0159246378 -0.0180164928 0.00317207813
v 0.0159639387 -0.0179771824 -0.00319741011
v 0.0159639387 -0.0179771824 0.00319741011
v 0.0160836487 -0.0178574772 -0.00326753139
v 0.0160035544 -0.0179375763 -0.00322176695
v 0.0160434609 -0.017897665 0.00324514389
v 0.0161648207 -0.0177763004 0.00330931425
v 0.0162057858 -0.0177353401 -0.00332869768
v 0.0162469797 -0.0176941414 0.00334706783
v 0.016288393 -0.0176527328 -0.00336441517
v 0.0164138394 -0.0175272865 0.00341029406
v 0.0164560061 -0.017485115 -0.00342351675
v 0.0164983349 -0.017442791 0.00343569517
v 0.0165408068 -0.0174003239 -0.00344682693
v 0.016668952 -0.0172721786 0.00347391129
v 0.0167118673 -0.0172292538 -0.00348082781
v 0.0167118673 -0.0172292538 0.00348082781
v 0.0167548637 -0.0171862621 -0.00348668098
v 0.0169273691 -0.017013752 0.00349946737
v 0.016970561 -0.0169705601 -0.00349999905
v 0.016970561 -0.0169705601 0.00349999905
v 0.0170137529 -0.0169273682 -0.00349946737
v 0.0171862631 -0.0167548675 0.00348668098
v 0.0172292595 -0.0167118664 -0.00348082781
v 0.0172292595 -0.0167118664 0.00348082781
v 0.0173335343 -0.0222644443 -0.000305044651
v 0.0173244934 -0.0222734852 -6.108284e-05
v 0.0173241167 -0.0222738666 0
v 0.0173425655 -0.022255413 0.000426542759
v 0.0174884968 -0.0221094818 -0.00125428677
v 0.0174322586 -0.02216572 -0.00102330208
v 0.0173875456 -0.0222104282 -0.000787329674
v 0.0173545866 -0.0222433967 -0.000547521114
v 0.0173482018 -0.0222497768 -0.000487105846
v 0.0173482018 -0.0222497768 0.000487105846
v 0.0173781996 -0.0222197838 0.00072769165
v 0.0174199896 -0.0221779938 0.000964729786
v 0.0174733715 -0.0221246071 0.00119707108
v 0.0174884968 -0.0221094818 0.00125428677
v 0.0172721748 -0.016668951 -0.00347391129
v 0.0174003201 -0.0165408058 0.00344682693
v 0.0174427919 -0.0164983387 -0.00343569517
v 0.017485116 -0.0164560051 0.00342351675
v 0.0175745897 -0.0220233936 -0.00153429985
v 0.0175043278 -0.0220936508 -0.00131112337
v 0.0175559931 -0.0220419903 0.00147916317
v 0.0175938635 -0.0220041199 0.00158896685
v 0.0176776104 -0.0219203682 -0.00180263281
v 0.0176138048 -0.021984169 -0.00164314985
v 0.0176556854 -0.0219422932 0.00174999952
v 0.0177472286 -0.02185075 0.00195717573
v 0.0175272875 -0.0164138336 -0.00341029406
v 0.017652729 -0.0162883968 0.00336441517
v 0.0176941471 -0.0162469787 -0.00334706783
v 0.0177353411 -0.01620578 0.00332869768
v 0.0177716904 -0.0218262882 -0.00200751781
v 0.0178224688 -0.0217755146 0.00210635185
v 0.0179311781 -0.0216668053 -0.00229620695
v 0.0178487616 -0.0217492123 -0.0021548152
v 0.0179031258 -0.0216948528 0.00224975586
v 0.0179889803 -0.0216089935 0.00238699436
v 0.0177763014 -0.0161648197 -0.00330931425
v 0.017897666 -0.0160434551 -0.00324514389
v 0.0179375725 -0.0160035534 0.00322176695
v 0.0178574782 -0.0160836429 0.00326753139
v 0.0179771834 -0.0159639377 -0.00319741011
v 0.0179771834 -0.0159639377 0.00319741011
v 0.0180797987 -0.0215181847 -0.00251768827
v 0.0180187159 -0.0215792675 -0.00243130445
v 0.0180489903 -0.0215489883 0.00247487307
v 0.0180797987 -0.0215181847 0.00251768827
v 0.0181111317 -0.0214868469 -0.00255973816
v 0.0182415037 -0.0213564796 0.00272001028
v 0.018016489 -0.0159246368 -0.00317207813
v 0.0181704073 -0.0157707233 0.00306116819
v 0.0182080011 -0.0157331295 -0.00303108931
v 0.0182452183 -0.0156959076 0.00300008535
v 0.0182753067 -0.0213226719 -0.00275803804
v 0.0183442955 -0.0212536831 0.00283155918
v 0.0183794623 -0.0212185211 -0.0028670311
v 0.0184875088 -0.0211104698 0.00296816826
v 0.0182820444 -0.0156590767 -0.00296816826
v 0.0184252577 -0.0155158729 0.00283155918
v 0.018459981 -0.0154811497 -0.00279522419
v 0.0184942465 -0.0154468746 0.00275803804
v 0.0185243349 -0.0210736484 -0.00300008535
v 0.0185615521 -0.0210364265 0.00303108931
v 0.0185991459 -0.0209988327 -0.00306116819
v 0.018714078 -0.0208839054 0.00314577818
v 0.0185280495 -0.0154130764 -0.00272001028
v 0.0186897545 -0.0152513714 0.00251768827
v 0.0187205629 -0.0152205582 -0.00247487307
v 0.0187205629 -0.0152205582 0.00247487307
v 0.0187530642 -0.0208449192 -0.00317207813
v 0.0188319807 -0.0207660026 0.00322176695
v 0.0189120751 -0.0206859035 -0.00326753139
v 0.0188718872 -0.0207260914 -0.00324514389
v 0.0188718872 -0.0207260914 0.00324514389
v 0.0189932518 -0.0206047268 0.00330931425
v 0.0187508373 -0.0151902885 -0.00243130445
v 0.0188664274 -0.0150747032 -0.00224975586
v 0.0189207916 -0.0150203342 0.0021548152
v 0.0188383751 -0.0151027508 0.00229620695
v 0.0189470844 -0.0149940414 -0.00210635185
v 0.0189978628 -0.0149432678 0.00200751781
v 0.0190342121 -0.0205637665 -0.00332869768
v 0.0190754061 -0.0205225773 0.00334706783
v 0.0191168242 -0.0204811592 -0.00336441517
v 0.0192422657 -0.0203557129 0.00341029406
v 0.0190223246 -0.0149187965 -0.00195717573
v 0.0191138678 -0.0148272629 -0.00174999952
v 0.0191756897 -0.0147654362 0.00158896685
v 0.0190919428 -0.0148491783 0.00180263281
v 0.0191949635 -0.0147461624 -0.00153429985
v 0.0192135601 -0.0147275658 -0.00147916317
v 0.0192486982 -0.0146924324 0.00136755943
v 0.0191949635 -0.0147461624 0.00153429985
v 0.0192844324 -0.0203135414 -0.00342351675
v 0.0193267613 -0.0202712173 0.00343569517
v 0.0193692331 -0.0202287502 -0.00344682693
v 0.0194973784 -0.020100605 0.00347391129
v 0.0192652254 -0.0146758957 -0.00131112337
v 0.0192961817 -0.0146449394 -0.00119707108
v 0.0193495636 -0.0145915623 -0.000964729786
v 0.0193913536 -0.0145497723 -0.00072769165
v 0.0194213514 -0.0145197697 -0.000487105846
v 0.0194394093 -0.0145017166 -0.000244147778
v 0.0194394093 -0.0145017166 0.000244147778
v 0.019436019 -0.0145051021 0.000305044651
v 0.0194149666 -0.0145261593 0.000547521114
v 0.0193820076 -0.0145591183 0.000787329674
v 0.0193372946 -0.0146038265 0.00102330208
v 0.0192810564 -0.0146600647 0.00125428677
v 0.0194420462 -0.0144990845 -0.000183176994
v 0.0194454365 -0.0144956894 0
v 0.0195402937 -0.0200576801 -0.00348082781
v 0.0195832901 -0.0200146885 0.00348668098
v 0.0196263533 -0.0199716301 -0.0034914732
v 0.0197126179 -0.0198853607 0.00349786758
v 0.0197557955 -0.0198421783 -0.00349946737
v 0.0198421841 -0.0197557945 0.00349946737
v 0.0198853617 -0.0197126217 -0.00349786758
v 0.0199716263 -0.0196263523 0.0034914732
v 0.0200146895 -0.0195832939 -0.00348668098
v 0.0200576859 -0.0195402927 0.00348082781
v 0.0201006012 -0.0194973774 -0.00347391129
v 0.0202287464 -0.0193692322 0.00344682693
v 0.0202712183 -0.0193267651 -0.00343569517
v 0.0203135471 -0.0192844314 0.00342351675
v 0.0203557139 -0.01924226 -0.00341029406
v 0.0204811554 -0.0191168232 0.00336441517
v 0.0205225735 -0.0190754051 -0.00334706783
v 0.0205637674 -0.0190342159 0.00332869768
v 0.0206047278 -0.0189932461 -0.00330931425
v 0.0207260923 -0.0188718815 -0.00324514389
v 0.0207260923 -0.0188718815 0.00324514389
v 0.0206859045 -0.0189120788 0.00326753139
v 0.0207659989 -0.0188319797 -0.00322176695
v 0.0208449154 -0.0187530632 0.00317207813
v 0.0208839016 -0.018714077 -0.00314577818
v 0.0209988337 -0.0185991497 0.00306116819
v 0.0210364275 -0.0185615559 -0.00303108931
v 0.0210736446 -0.0185243339 0.00300008535
v 0.0211104708 -0.018487503 -0.00296816826
v 0.0212185173 -0.0183794613 0.0028670311
v 0.0212536841 -0.0183442993 -0.00283155918
v 0.0213226729 -0.018275301 0.00275803804
v 0.0213564806 -0.0182415028 -0.00272001028
v 0.0214868479 -0.0181111259 0.00255973816
v 0.0215181809 -0.0180797977 -0.00251768827
v 0.0215489893 -0.0180489941 -0.00247487307
v 0.0215792637 -0.0180187149 0.00243130445
v 0.0215181809 -0.0180797977 0.00251768827
v 0.0216089993 -0.0179889793 -0.00238699436
v 0.0216948538 -0.0179031296 -0.00224975586
v 0.021749218 -0.0178487606 0.0021548152
v 0.0216668015 -0.0179311771 0.00229620695
v 0.0217755108 -0.0178224678 -0.00210635185
v 0.0218262892 -0.0177716942 0.00200751781
v 0.0218507509 -0.0177472229 -0.00195717573
v 0.0219422941 -0.0176556892 -0.00174999952
v 0.0219841747 -0.0176138039 0.00164314985
v 0.0219203692 -0.0176776047 0.00180263281
v 0.0220041208 -0.0175938625 -0.00158896685
v 0.0220419865 -0.0175559921 -0.00147916317
v 0.0220936518 -0.0175043316 0.00131112337
v 0.0220233898 -0.0175745888 0.00153429985
v 0.0221094828 -0.0174885006 -0.00125428677
v 0.0221246128 -0.0174733658 -0.00119707108
v 0.02217799 -0.0174199886 -0.000964729786
v 0.02221978 -0.0173781986 -0.00072769165
v 0.0222497778 -0.0173482056 -0.000487105846
v 0.0222497778 -0.0173482056 0.000487105846
v 0.022243393 -0.0173545856 0.000547521114
v 0.022210434 -0.0173875446 0.000787329674
v 0.0221657257 -0.0174322529 0.00102330208
v 0.0221094828 -0.0174885006 0.00125428677
v 0.022255414 -0.0173425598 -0.000426542759
v 0.0222678356 -0.017330143 -0.000244147778
v 0.0222738628 -0.0173241157 0
v 0.0222644453 -0.017333538 0.000305044651
f 1 66 2
f 2 174 1
f 8 66 1
f 1 173 8
f 1 174 173
f 2 67 9
f 167 2 9
f 2 66 67
f 174 2 167
f 3 69 4
f 4 162 3
f 16 84 3
f 3 161 16
f 3 84 69
f 3 162 161
f 4 70 5
f 5 163 4
f 4 69 70
f 4 163 162
f 5 71 6
f 6 164 5
f 5 70 71
f 5 164 163
f 6 72 7
f 7 165 6
f 6 71 72
f 6 165 164
f 7 65 8
f 8 166 7
f 7 73 65
f 7 72 73
f 7 166 165
f 8 65 66
f 8 173 166
f 9 67 10
f 168 9 10
f 167 9 168
f 10 74 11
f 169 10 11
f 10 67 68
f 10 68 74
f 168 10 169
f 11 75 12
f 170 11 12
f 11 74 75
f 169 11 170
f 12 76 13
f 171 12 13
f 12 75 76
f 170 12 171
f 13 77 14
f 172 13 14
f 13 76 77
f 171 13 172
f 14 85 17
f 155 14 17
f 14 77 78
f 14 78 85
f 172 14 155
f 15 83 16
f 16 154 15
f 20 83 15
f 15 153 20
f 15 154 153
f 16 83 84
f 16 161 154
f 17 85 18
f 156 17 18
f 155 17 156
f 18 86 21
f 151 18 21
f 18 85 86
f 156 18 151
f 19 87 20
f 20 150 19
f 23 95 19
f 19 149 23
f 19 95 87
f 19 150 149
f 20 88 83
f 20 87 88
f 20 153 150
f 21 89 22
f 152 21 22
f 21 86 89
f 151 21 152
f 22 90 24
f 144 22 24
f 22 89 90
f 152 22 144
f 26 98 23
f 23 143 26
f 23 98 95
f 23 149 143
f 24 96 27
f 141 24 27
f 24 90 96
f 144 24 141
f 25 97 26
f 26 140 25
f 29 108 25
f 25 139 29
f 25 108 97
f 25 140 139
f 26 97 98
f 26 143 140
f 27 99 28
f 142 27 28
f 27 96 99
f 141 27 142
f 28 109 30
f 132 28 30
f 28 99 100
f 28 100 109
f 142 28 132
f 31 107 29
f 29 131 31
f 29 107 108
f 29 139 131
f 30 109 32
f 130 30 32
f 132 30 130
f 33 117 31
f 31 129 33
f 31 111 107
f 31 117 111
f 31 131 129
f 32 112 34
f 124 32 34
f 32 109 110
f 32 110 112
f 130 32 124
f 35 117 33
f 33 123 35
f 33 129 123
f 34 118 36
f 122 34 36
f 34 112 118
f 124 34 122
f 35 121 37
f 37 125 35
f 35 119 117
f 35 125 119
f 35 123 121
f 116 36 38
f 36 120 38
f 122 36 116
f 36 118 120
f 37 115 39
f 39 127 37
f 37 121 115
f 37 127 125
f 114 38 40
f 38 126 40
f 116 38 114
f 38 120 126
f 39 113 41
f 41 133 39
f 39 115 113
f 39 133 127
f 106 40 42
f 40 134 42
f 114 40 106
f 40 126 128
f 40 128 134
f 41 105 44
f 44 133 41
f 41 113 105
f 103 42 45
f 42 134 45
f 106 42 103
f 44 102 43
f 43 135 44
f 43 101 47
f 47 145 43
f 43 102 101
f 43 145 135
f 44 105 102
f 44 136 133
f 44 135 136
f 104 45 46
f 45 137 46
f 103 45 104
f 45 134 137
f 94 46 48
f 46 138 48
f 104 46 94
f 46 137 138
f 47 93 49
f 49 147 47
f 47 101 93
f 47 147 145
f 92 48 50
f 48 146 50
f 94 48 92
f 48 138 146
f 49 91 51
f 51 157 49
f 49 93 91
f 49 157 147
f 82 50 52
f 50 148 52
f 92 50 82
f 50 146 148
f 51 81 53
f 53 159 51
f 51 91 81
f 51 159 157
f 80 52 54
f 52 158 54
f 82 52 80
f 52 148 158
f 53 79 55
f 55 175 53
f 53 81 79
f 53 175 159
f 64 54 56
f 54 160 56
f 80 54 64
f 54 158 160
f 55 63 57
f 57 175 55
f 55 79 63
f 62 56 58
f 56 176 58
f 64 56 62
f 56 160 176
f 57 61 59
f 59 179 57
f 57 63 61
f 57 177 175
f 57 179 177
f 62 58 60
f 58 180 60
f 58 176 178
f 58 178 180
f 61 179 59
f 60 180 62
f 63 183 61
f 61 181 179
f 61 183 181
f 62 184 64
f 62 180 182
f 62 182 184
f 79 185 63
f 63 185 183
f 64 184 80
f 237 66 65
f 231 65 73
f 237 65 231
f 66 238 67
f 238 66 237
f 67 239 68
f 67 238 239
f 68 240 74
f 68 239 240
f 227 70 69
f 224 69 84
f 227 69 224
f 228 71 70
f 228 70 227
f 229 72 71
f 229 71 228
f 230 73 72
f 230 72 229
f 231 73 230
f 74 232 75
f 74 240 232
f 75 233 76
f 75 232 233
f 76 234 77
f 76 233 234
f 77 235 78
f 77 234 235
f 78 236 85
f 78 235 236
f 81 187 79
f 79 187 185
f 80 186 82
f 80 184 186
f 91 189 81
f 81 189 187
f 82 188 92
f 82 186 188
f 223 84 83
f 220 83 88
f 223 83 220
f 224 84 223
f 85 225 86
f 85 236 225
f 86 226 89
f 86 225 226
f 219 88 87
f 217 87 95
f 219 87 217
f 220 88 219
f 89 221 90
f 89 226 221
f 90 222 96
f 90 221 222
f 93 191 91
f 91 191 189
f 92 190 94
f 92 188 190
f 101 193 93
f 93 193 191
f 94 192 104
f 94 190 192
f 214 95 98
f 217 95 214
f 96 218 99
f 96 222 218
f 213 98 97
f 210 97 108
f 213 97 210
f 214 98 213
f 99 215 100
f 99 218 215
f 100 216 109
f 100 215 216
f 102 194 101
f 101 194 193
f 105 197 102
f 102 197 194
f 104 196 103
f 103 198 106
f 103 196 195
f 103 195 198
f 104 192 196
f 113 197 105
f 106 198 114
f 209 108 107
f 207 107 111
f 209 107 207
f 210 108 209
f 109 211 110
f 109 216 211
f 110 212 112
f 110 211 212
f 205 111 117
f 207 111 205
f 112 208 118
f 112 212 208
f 115 201 113
f 113 199 197
f 113 201 199
f 114 200 116
f 114 198 200
f 121 203 115
f 115 203 201
f 116 202 122
f 116 200 202
f 203 117 119
f 205 117 203
f 118 206 120
f 118 208 206
f 201 119 125
f 203 119 201
f 120 204 126
f 120 206 204
f 123 205 121
f 121 205 203
f 122 206 124
f 122 202 204
f 122 204 206
f 129 207 123
f 123 207 205
f 124 206 130
f 199 125 127
f 201 125 199
f 126 202 128
f 126 204 202
f 197 127 133
f 199 127 197
f 128 200 134
f 128 202 200
f 131 210 129
f 129 209 207
f 129 210 209
f 130 212 132
f 130 206 208
f 130 208 212
f 139 210 131
f 132 211 142
f 132 212 211
f 194 133 136
f 197 133 194
f 134 198 137
f 134 200 198
f 193 136 135
f 191 135 145
f 193 135 191
f 194 136 193
f 137 195 138
f 137 198 195
f 138 196 146
f 138 195 196
f 140 214 139
f 139 213 210
f 139 214 213
f 143 217 140
f 140 217 214
f 142 216 141
f 141 215 144
f 141 216 215
f 142 211 216
f 149 219 143
f 143 219 217
f 144 218 152
f 144 215 218
f 189 145 147
f 191 145 189
f 146 192 148
f 146 196 192
f 187 147 157
f 189 147 187
f 148 190 158
f 148 192 190
f 150 220 149
f 149 220 219
f 153 223 150
f 150 223 220
f 152 222 151
f 151 226 156
f 151 222 221
f 151 221 226
f 152 218 222
f 154 224 153
f 153 224 223
f 161 224 154
f 156 226 155
f 155 225 172
f 155 226 225
f 185 157 159
f 187 157 185
f 158 188 160
f 158 190 188
f 183 159 175
f 185 159 183
f 160 186 176
f 160 188 186
f 162 228 161
f 161 227 224
f 161 228 227
f 163 229 162
f 162 229 228
f 164 230 163
f 163 230 229
f 165 231 164
f 164 231 230
f 166 238 165
f 165 237 231
f 165 238 237
f 173 238 166
f 168 240 167
f 167 239 174
f 167 240 239
f 169 233 168
f 168 233 232
f 168 232 240
f 170 234 169
f 169 234 233
f 171 235 170
f 170 235 234
f 172 236 171
f 171 236 235
f 172 225 236
f 174 239 173
f 173 239 238
f 181 175 177
f 183 175 181
f 176 184 178
f 176 186 184
f 181 177 179
f 178 182 180
f 178 184 182
