v -0.00276151371 -0.00117219162 -0.00600000024
v -0.00281907749 -0.0010260601 0.0229999995
v -0.00283655357 -0.00097670269 -0.00600000024
v -0.00289777946 -0.000776454926 0.0229999995
v -0.00291088772 -0.000725767136 -0.00600000024
v -0.00295442295 -0.000520946503 0.0229999995
v -0.00296306324 -0.000469305038 -0.00600000024
v -0.00298858356 -0.000261466026 0.0229999995
v -0.0029926939 -0.000209271431 -0.00600000024
v -0.00299999905 -1.90734863e-09 0.0229999995
v -0.00299954128 5.2359581e-05 -0.00600000024
v -0.0029926939 0.000209267616 0.0229999995
v -0.00298858356 0.00026146698 -0.00600000024
v -0.00296306324 0.000469301224 0.0229999995
v -0.00295442295 0.000520942688 -0.00600000024
v -0.00291088772 0.000725763321 0.0229999995
v -0.00289777946 0.000776455879 -0.00600000024
v -0.00283655357 0.000976703644 0.0229999995
v -0.00281907749 0.00102606106 -0.00600000024
v -0.00276151371 0.00117219257 0.0229999995
v -0.00251600933 -0.00163391781 -0.00600000024
v -0.00257150364 -0.00154511642 0.0229999995
v -0.00259807777 -0.00149999809 -0.00600000024
v -0.00271892262 -0.00126785469 0.0229999995
v -0.00274063778 -0.00122020912 -0.00600000024
v -0.00274063778 -0.00122020912 0.0229999995
v -0.00274063778 0.00122021008 -0.00600000024
v -0.00274063778 0.00122021008 0.0229999995
v -0.00271892262 0.00126785564 -0.00600000024
v -0.00259807777 0.00149999905 0.0229999995
v -0.00257150364 0.00154511261 -0.00600000024
v -0.00251600933 0.00163391876 0.0229999995
v -0.00226412964 -0.00196817589 -0.00600000024
v -0.00242705059 -0.00176335526 0.0229999995
v -0.0024574585 -0.00172073078 -0.00600000024
v -0.002487113 -0.00167757702 0.0229999995
v -0.002487113 0.00167757797 -0.00600000024
v -0.0024574585 0.00172072697 0.0229999995
v -0.00242705059 0.00176335621 -0.00600000024
v -0.00226412964 0.00196817684 0.0229999995
v -0.00200739098 -0.00222943497 -0.00600000024
v -0.00222943497 -0.00200739098 0.0229999995
v -0.00222943497 0.00200739193 -0.00600000024
v -0.00200739098 0.00222943592 0.0229999995
v -0.00176335526 -0.00242705059 -0.00600000024
v -0.00196817589 -0.00226412964 0.0229999995
v -0.00196817589 0.00226413059 -0.00600000024
v -0.00176335526 0.00242705154 0.0229999995
v -0.00154511642 -0.00257150364 -0.00600000024
v -0.00163391781 -0.00251600933 0.0229999995
v -0.00167757702 -0.002487113 -0.00600000024
v -0.00172073078 -0.0024574585 0.0229999995
v -0.00172073078 0.00245745468 -0.00600000024
v -0.00167757702 0.00248711395 0.0229999995
v -0.00163391781 0.00251601028 -0.00600000024
v -0.00154511642 0.00257149982 0.0229999995
v -0.00126785469 -0.00271892262 -0.00600000024
v -0.00149999809 -0.00259807777 0.0229999995
v -0.00149999809 0.00259807396 -0.00600000024
v -0.00126785469 0.00271892357 0.0229999995
v -0.0010260601 -0.00281907749 -0.00600000024
v -0.00117219162 -0.00276151371 0.0229999995
v -0.00122020912 -0.00274063778 -0.00600000024
v -0.00122020912 -0.00274063778 0.0229999995
v -0.00122020912 0.00274063873 -0.00600000024
v -0.00122020912 0.00274063873 0.0229999995
v -0.00117219162 0.00276151466 -0.00600000024
v -0.0010260601 0.00281907845 0.0229999995
v -0.000776454926 -0.00289777946 -0.00600000024
v -0.00097670269 -0.00283655357 0.0229999995
v -0.00097670269 0.00283655453 -0.00600000024
v -0.000776454926 0.00289777565 0.0229999995
v -0.000520946503 -0.00295442295 -0.00600000024
v -0.000725767136 -0.00291088772 0.0229999995
v -0.000725767136 0.00291088867 -0.00600000024
v -0.000520946503 0.0029544239 0.0229999995
v -0.000261466026 -0.00298858356 -0.00600000024
v -0.000469305038 -0.00296306324 0.0229999995
v -0.000469305038 0.00296306419 -0.00600000024
v -0.000261466026 0.00298858452 0.0229999995
v -1.90734863e-09 -0.00299999905 -0.00600000024
v -0.000209271431 -0.0029926939 0.0229999995
v -0.000209271431 0.00299269009 -0.00600000024
v -5.23586273e-05 0.00299954224 0.0229999995
v -1.90734863e-09 0.003 -0.00600000024
v -1.90734863e-09 0.003 0.0229999995
v 0.000209267616 -0.0029926939 -0.00600000024
v 5.2359581e-05 -0.00299954128 0.0229999995
v 5.2359581e-05 0.00299954224 -0.00600000024
v 0.000209267616 0.00299269009 0.0229999995
v 0.000469301224 -0.00296306324 -0.00600000024
v 0.00026146698 -0.00298858356 0.0229999995
v 0.00026146698 0.00298858452 -0.00600000024
v 0.000469301224 0.00296306419 0.0229999995
v 0.000725763321 -0.00291088772 -0.00600000024
v 0.000520942688 -0.00295442295 0.0229999995
v 0.000520942688 0.0029544239 -0.00600000024
v 0.000725763321 0.00291088867 0.0229999995
v 0.000976703644 -0.00283655357 -0.00600000024
v 0.000776455879 -0.00289777946 0.0229999995
v 0.000776455879 0.00289777565 -0.00600000024
v 0.000976703644 0.00283655453 0.0229999995
v 0.00117219257 -0.00276151371 -0.00600000024
v 0.00102606106 -0.00281907749 0.0229999995
v 0.00122021008 -0.00274063778 -0.00600000024
v 0.00122021008 -0.00274063778 0.0229999995
v 0.00122021008 0.00274063873 -0.00600000024
v 0.00122021008 0.00274063873 0.0229999995
v 0.00102606106 0.00281907845 -0.00600000024
v 0.00117219257 0.00276151466 0.0229999995
v 0.00149999905 -0.00259807777 -0.00600000024
v 0.00126785564 -0.00271892262 0.0229999995
v 0.00126785564 0.00271892357 -0.00600000024
v 0.00149999905 0.00259807396 0.0229999995
v 0.00163391876 -0.00251600933 -0.00600000024
v 0.00154511261 -0.00257150364 0.0229999995
v 0.00172072697 -0.0024574585 -0.00600000024
v 0.00167757797 -0.002487113 0.0229999995
v 0.00167757797 0.00248711395 -0.00600000024
v 0.00172072697 0.00245745468 0.0229999995
v 0.00154511261 0.00257149982 -0.00600000024
v 0.00163391876 0.00251601028 0.0229999995
v 0.00196817684 -0.00226412964 -0.00600000024
v 0.00176335621 -0.00242705059 0.0229999995
v 0.00176335621 0.00242705154 -0.00600000024
v 0.00196817684 0.00226413059 0.0229999995
v 0.00222943592 -0.00200739098 -0.00600000024
v 0.00200739193 -0.00222943497 0.0229999995
v 0.00212132263 0.00212132263 -0.00600000024
v 0.00212132263 0.00212132263 0.0229999995
v 0.00242705154 -0.00176335526 -0.00600000024
v 0.00226413059 -0.00196817589 0.0229999995
v 0.00248711395 -0.00167757702 -0.00600000024
v 0.00245745468 -0.00172073078 0.0229999995
v 0.00245745468 0.00172072697 -0.00600000024
v 0.00248711395 0.00167757797 0.0229999995
v 0.00226413059 0.00196817684 -0.00600000024
v 0.00242705154 0.00176335621 0.0229999995
v 0.00257149982 -0.00154511642 -0.00600000024
v 0.00251601028 -0.00163391781 0.0229999995
v 0.00271892357 -0.00126785469 -0.00600000024
v 0.00259807396 -0.00149999809 0.0229999995
v 0.00274063873 -0.00122020912 -0.00600000024
v 0.00274063873 -0.00122020912 0.0229999995
v 0.00274063873 0.00122021008 -0.00600000024
v 0.00274063873 0.00122021008 0.0229999995
v 0.00259807396 0.00149999905 -0.00600000024
v 0.00271892357 0.00126785564 0.0229999995
v 0.00251601028 0.00163391876 -0.00600000024
v 0.00257149982 0.00154511261 0.0229999995
v 0.00281907845 -0.0010260601 -0.00600000024
v 0.00276151466 -0.00117219162 0.0229999995
v 0.00289777565 -0.000776454926 -0.00600000024
v 0.00283655453 -0.00097670269 0.0229999995
v 0.0029544239 -0.000520946503 -0.00600000024
v 0.00291088867 -0.000725767136 0.0229999995
v 0.00298858452 -0.000261466026 -0.00600000024
v 0.00296306419 -0.000469305038 0.0229999995
v 0.00299954224 -5.23586273e-05 -0.00600000024
v 0.00299269009 -0.000209271431 0.0229999995
v 0.00299269009 0.000209267616 -0.00600000024
v 0.00299954224 5.2359581e-05 0.0229999995
v 0.00296306419 0.000469301224 -0.00600000024
v 0.00298858452 0.00026146698 0.0229999995
v 0.00291088867 0.000725763321 -0.00600000024
v 0.0029544239 0.000520942688 0.0229999995
v 0.00283655453 0.000976703644 -0.00600000024
v 0.00289777565 0.000776455879 0.0229999995
v 0.00276151466 0.00117219257 -0.00600000024
v 0.00281907845 0.00102606106 0.0229999995
v 0.003 -1.90734863e-09 -0.00600000024
v 0.003 -1.90734863e-09 0.0229999995
f 1 2 3
f 1 26 2
f 101 1 3
f 25 26 1
f 109 25 1
f 109 1 101
f 3 2 4
f 2 110 4
f 26 108 2
f 2 108 110
f 3 4 5
f 97 3 5
f 101 3 97
f 5 4 6
f 4 102 6
f 4 110 102
f 5 6 7
f 93 5 7
f 97 5 93
f 7 6 8
f 6 98 8
f 6 102 98
f 7 8 9
f 89 7 9
f 93 7 89
f 9 8 10
f 8 94 10
f 8 98 94
f 9 10 11
f 83 9 11
f 85 9 83
f 89 9 85
f 11 10 12
f 10 86 12
f 10 90 86
f 10 94 90
f 11 12 13
f 79 11 13
f 83 11 79
f 13 12 14
f 12 84 14
f 12 86 84
f 13 14 15
f 75 13 15
f 79 13 75
f 15 14 16
f 14 80 16
f 14 84 80
f 15 16 17
f 71 15 17
f 75 15 71
f 17 16 18
f 16 76 18
f 16 80 76
f 17 18 19
f 67 17 19
f 71 17 67
f 19 18 20
f 18 72 20
f 18 76 72
f 19 20 27
f 65 19 27
f 67 19 65
f 27 20 28
f 20 68 28
f 20 72 68
f 21 22 23
f 21 36 22
f 113 21 23
f 35 36 21
f 121 35 21
f 121 21 113
f 23 22 24
f 22 122 24
f 36 120 22
f 22 120 122
f 23 24 25
f 107 23 25
f 113 23 107
f 25 24 26
f 24 114 26
f 24 122 114
f 107 25 109
f 26 114 108
f 27 28 29
f 59 27 29
f 65 27 59
f 29 28 30
f 28 66 30
f 28 68 66
f 29 30 31
f 55 29 31
f 59 29 55
f 31 30 32
f 30 60 32
f 30 66 60
f 31 32 37
f 53 31 37
f 55 31 53
f 37 32 38
f 32 56 38
f 32 60 56
f 33 34 35
f 33 42 34
f 119 33 35
f 41 42 33
f 125 41 33
f 125 33 119
f 35 34 36
f 34 126 36
f 42 130 34
f 34 130 126
f 119 35 121
f 36 126 120
f 37 38 39
f 47 37 39
f 53 37 47
f 39 38 40
f 38 54 40
f 38 56 54
f 39 40 43
f 47 39 43
f 43 40 44
f 40 48 44
f 40 54 48
f 41 46 42
f 45 46 41
f 41 129 45
f 129 41 125
f 138 42 46
f 130 42 138
f 43 44 47
f 47 44 48
f 45 52 46
f 51 52 45
f 45 137 51
f 45 129 137
f 136 46 52
f 138 46 136
f 47 48 53
f 53 48 54
f 49 50 51
f 49 58 50
f 51 135 49
f 57 58 49
f 49 149 57
f 49 135 149
f 51 50 52
f 150 52 50
f 148 50 58
f 150 50 148
f 51 137 135
f 136 52 150
f 53 54 55
f 55 54 56
f 55 56 59
f 59 56 60
f 57 64 58
f 63 64 57
f 57 147 63
f 57 149 147
f 146 58 64
f 148 58 146
f 59 60 65
f 65 60 66
f 61 62 63
f 61 70 62
f 63 145 61
f 69 70 61
f 61 169 69
f 61 145 169
f 63 62 64
f 170 64 62
f 168 62 70
f 170 62 168
f 63 147 145
f 146 64 170
f 65 66 67
f 67 66 68
f 67 68 71
f 71 68 72
f 69 74 70
f 73 74 69
f 69 167 73
f 69 169 167
f 166 70 74
f 168 70 166
f 71 72 75
f 75 72 76
f 73 78 74
f 77 78 73
f 73 165 77
f 73 167 165
f 164 74 78
f 166 74 164
f 75 76 79
f 79 76 80
f 77 82 78
f 81 82 77
f 77 163 81
f 77 165 163
f 162 78 82
f 164 78 162
f 79 80 83
f 83 80 84
f 81 88 82
f 87 88 81
f 81 171 87
f 81 163 161
f 81 161 171
f 160 82 88
f 172 82 160
f 162 82 172
f 83 84 85
f 85 84 86
f 85 86 89
f 89 86 90
f 87 92 88
f 91 92 87
f 87 159 91
f 87 171 159
f 158 88 92
f 160 88 158
f 89 90 93
f 93 90 94
f 91 96 92
f 95 96 91
f 91 157 95
f 91 159 157
f 156 92 96
f 158 92 156
f 93 94 97
f 97 94 98
f 95 100 96
f 99 100 95
f 95 155 99
f 95 157 155
f 154 96 100
f 156 96 154
f 97 98 101
f 101 98 102
f 99 104 100
f 103 104 99
f 99 153 103
f 99 155 153
f 152 100 104
f 154 100 152
f 101 102 109
f 109 102 110
f 103 106 104
f 105 106 103
f 103 151 105
f 103 153 151
f 144 104 106
f 152 104 144
f 105 112 106
f 111 112 105
f 105 143 111
f 105 151 143
f 142 106 112
f 144 106 142
f 107 110 108
f 107 108 113
f 109 110 107
f 113 108 114
f 111 116 112
f 115 116 111
f 111 141 115
f 111 143 141
f 140 112 116
f 142 112 140
f 113 114 121
f 121 114 122
f 115 118 116
f 117 118 115
f 115 139 117
f 115 141 139
f 134 116 118
f 140 116 134
f 117 124 118
f 123 124 117
f 117 133 123
f 117 139 133
f 132 118 124
f 134 118 132
f 119 122 120
f 119 120 125
f 121 122 119
f 125 120 126
f 123 128 124
f 127 128 123
f 123 131 127
f 123 133 131
f 132 124 128
f 125 126 129
f 129 126 130
f 127 132 128
f 131 132 127
f 129 130 137
f 137 130 138
f 131 134 132
f 133 134 131
f 133 140 134
f 139 140 133
f 135 138 136
f 135 136 149
f 137 138 135
f 149 136 150
f 139 142 140
f 141 142 139
f 141 144 142
f 143 144 141
f 143 152 144
f 151 152 143
f 145 148 146
f 145 146 169
f 147 148 145
f 169 146 170
f 147 150 148
f 149 150 147
f 151 154 152
f 153 154 151
f 153 156 154
f 155 156 153
f 155 158 156
f 157 158 155
f 157 160 158
f 159 160 157
f 159 172 160
f 171 172 159
f 161 164 162
f 161 162 171
f 163 164 161
f 171 162 172
f 163 166 164
f 165 166 163
f 165 168 166
f 167 168 165
f 167 170 168
f 169 170 167
