v -0.0335097999 -0.027725647 -0.000286002159
v -0.0335164184 -0.0277190285 -7.1554184e-05
v -0.0335168571 -0.027718585 0
v -0.0335009785 -0.0277344685 0.000428566933
v -0.0333057613 -0.0279296904 -0.00153588772
v -0.0333749695 -0.0278604775 -0.00126697063
v -0.0334180756 -0.0278173714 -0.00106115818
v -0.0334635944 -0.0277718525 -0.000782315731
v -0.0334811706 -0.0277542811 -0.000641381741
v -0.0334728165 -0.0277626305 0.000711958408
v -0.0334307403 -0.0278047018 0.000991880894
v -0.0333901806 -0.0278452664 0.00119872332
v -0.0333243008 -0.0279111462 0.00146930933
v -0.033266222 -0.0279692297 0.00166762114
v -0.0334886475 -0.0277467995 -0.00057060957
v -0.0334952564 -0.0277401953 -0.000499663353
v -0.0334952564 -0.0277401953 0.000499663353
v -0.0334886475 -0.0277467995 0.00057060957
v -0.0330212135 -0.0282142286 -0.00229269028
v -0.0331284542 -0.0281069975 -0.00204999924
v -0.0332234497 -0.0280119972 -0.00179732084
v -0.0331533642 -0.0280820828 0.00198771954
v -0.0330491466 -0.0281863003 0.00223301888
v -0.0330212135 -0.0282142286 0.00229269028
v -0.0332452316 -0.0279902105 -0.00173273563
v -0.0332452316 -0.0279902105 0.00173273563
v -0.0329022713 -0.0283331709 -0.00252421141
v -0.0329631729 -0.028272274 -0.00240992069
v -0.0329330749 -0.0283023672 0.00246744156
v -0.0327721996 -0.0284632425 0.00274343491
v -0.0329925556 -0.0282428913 -0.00235166311
v -0.0329925556 -0.0282428913 0.00235166311
v -0.0325576229 -0.028677824 -0.00304689407
v -0.0327031917 -0.02853226 -0.00284809828
v -0.0325949306 -0.0286405163 0.00299854994
v -0.0325197334 -0.0287157183 0.00309430838
v -0.0327380199 -0.028497427 -0.00279619217
v -0.0327380199 -0.028497427 0.00279619217
v -0.0323624725 -0.0288729792 -0.003274405
v -0.0324812527 -0.0287541943 -0.00314078331
v -0.0324026127 -0.0288328343 0.00323084354
v -0.0322805996 -0.0289548473 0.00335852385
v -0.0321108932 -0.0291245585 -0.00351438522
v -0.0321967049 -0.0290387421 -0.00343854904
v -0.03200103 -0.0292344122 -0.00041582346
v -0.0320214004 -0.0292140513 -0.000243737698
v -0.0320319385 -0.0292035084 0
v -0.032018177 -0.0292172747 0.000278346539
v -0.0321540279 -0.0290814142 0.00347699642
v -0.0320232506 -0.0292121916 0.00358594179
v -0.0322389049 -0.0289965468 -0.003399055
v -0.0322389049 -0.0289965468 0.003399055
v -0.0317505093 -0.0294849424 -0.00377407074
v -0.0319787903 -0.0292566614 -0.00362008572
v -0.0317618484 -0.0294735985 -0.00117557049
v -0.0318424721 -0.0293929796 -0.000999999046
v -0.0319289608 -0.0293064861 -0.000749213696
v -0.0319837494 -0.0292516976 0.00051763773
v -0.0319195099 -0.0293159323 0.000781462193
v -0.0318299408 -0.0294055061 0.00103007555
v -0.0317969055 -0.0294385367 0.0037455368
v -0.0317505093 -0.0294849424 0.00377407074
v -0.0319899292 -0.0292455177 -0.00048384428
v -0.0319956894 -0.0292397575 0.000449903011
v -0.0317037601 -0.0295316868 -0.00380145311
v -0.0315077133 -0.0297277289 -0.00155429125
v -0.0315640182 -0.0296714287 -0.0014862895
v -0.0317321415 -0.0295033102 -0.00123132229
v -0.0317321415 -0.0295033102 0.00123132229
v -0.0317167778 -0.0295186739 0.00125864029
v -0.0315455265 -0.0296899157 0.00150941849
v -0.031513607 -0.0297218399 0.00389933109
v -0.0317471619 -0.0294882803 -0.00120362997
v -0.0317471619 -0.0294882803 0.00120362997
v -0.0314653511 -0.0297700958 -0.00392084837
v -0.0312597675 -0.0299756842 -0.00178201199
v -0.0313033504 -0.0299321013 -0.00174923897
v -0.0314688225 -0.0297666292 0.00159727097
v -0.0312816543 -0.0299537926 0.00176589489
v -0.031269886 -0.0299655609 0.00399491787
v -0.0314884014 -0.0297470455 -0.00157602072
v -0.0314884014 -0.0297470455 0.00157602072
v -0.0312204857 -0.0300149613 -0.00401040554
v -0.0310075302 -0.030227912 -0.00192252398
v -0.0312153931 -0.0300200491 0.00181261539
v -0.0310212059 -0.030214241 0.00406009912
v -0.0312376709 -0.0299977713 -0.00179758787
v -0.0312376709 -0.0299977713 0.00179758787
v -0.0309710426 -0.0302644091 -0.00406944036
v -0.0307655449 -0.0304698973 -0.00198904276
v -0.0309837456 -0.0302516966 0.00193185091
v -0.0307694549 -0.0304659968 0.00409438133
v -0.0307189007 -0.0305165463 -0.00409750223
v -0.0306177254 -0.0306177216 -0.00200000048
v -0.0305190773 -0.0307163744 -0.0019951272
v -0.0307163734 -0.0305190735 0.0019951272
v -0.0306177254 -0.0306177216 0.00200000048
v -0.0305165405 -0.0307189016 0.00409750223
v -0.0307409782 -0.0304944687 -0.00199239016
v -0.0307409782 -0.0304944687 0.00199239016
v -0.0305135937 -0.0250649958 -0.00140228271
v -0.0305617542 -0.0250168352 -0.00119872332
v -0.0305761261 -0.0250024681 0.0011301136
v -0.0305465431 -0.0250320511 0.00126697063
v -0.0305896492 -0.024988945 -0.00106115818
v -0.030602314 -0.0249762755 -0.000991880894
v -0.0306443901 -0.0249342041 -0.000711958408
v -0.0306668205 -0.0249117689 -0.000499663353
v -0.0306844635 -0.0248941307 -0.000214576721
v -0.0306884308 -0.0248901587 0
v -0.0306813736 -0.0248972206 0.000286002159
v -0.0306602211 -0.0249183731 0.00057060957
v -0.0306351681 -0.0249434261 0.000782315731
v -0.0305896492 -0.024988945 0.00106115818
v -0.0304659958 -0.0307694512 -0.00409438133
v -0.0302516956 -0.0309837513 -0.00193185091
v -0.0304698963 -0.0307655506 0.00198904276
v -0.0302644081 -0.0309710388 0.00406944036
v -0.030494463 -0.0307409792 -0.00199239016
v -0.030494463 -0.0307409792 0.00199239016
v -0.0302743454 -0.0253042488 -0.00211165667
v -0.0303249378 -0.0252536516 -0.00198771954
v -0.0303249378 -0.0252536516 0.00198771954
v -0.0303000278 -0.0252785711 0.00204999924
v -0.0303490848 -0.0252295094 -0.00192483425
v -0.0304168053 -0.0251617842 -0.00173273563
v -0.0304958744 -0.0250827198 -0.00146930933
v -0.0304958744 -0.0250827198 0.00146930933
v -0.030477335 -0.025101264 0.00153588772
v -0.0303950233 -0.0251835709 0.00179732084
v -0.0302142448 -0.0310212069 -0.00406009912
v -0.0300200481 -0.031215394 -0.00181261539
v -0.030227911 -0.0310075359 0.00192252398
v -0.0300149555 -0.0312204867 0.00401040554
v -0.0300101681 -0.0255684261 -0.00263542891
v -0.0300738449 -0.0255047445 0.00252421141
v -0.0301046486 -0.0254739409 -0.00246744156
v -0.0302207203 -0.0253578739 -0.00223301888
v -0.0302479095 -0.0253306894 0.00217266798
v -0.0301927872 -0.0253858023 0.00229269028
v -0.0299655552 -0.031269887 -0.00399491787
v -0.0299537868 -0.0312816553 -0.00176589489
v -0.0297666283 -0.0314688187 -0.00159727097
v -0.0299321003 -0.0313033466 0.00174923897
v -0.0299756832 -0.0312597637 0.00178201199
v -0.0297700996 -0.0314653473 0.00392084837
v -0.0299977703 -0.0312376719 -0.00179758787
v -0.0299977703 -0.0312376719 0.00179758787
v -0.0297665043 -0.0258120899 -0.00299854994
v -0.0298032112 -0.0257753878 0.00294929266
v -0.0298392982 -0.025739296 -0.00289913893
v -0.0299437733 -0.0256348162 -0.00274343491
v -0.0299773044 -0.0256012898 0.00268984318
v -0.0299095936 -0.0256690006 0.00279619217
v -0.0297218437 -0.031513608 -0.00389933109
v -0.0296899147 -0.0315455322 -0.00150941849
v -0.0295186729 -0.031716774 -0.00125864029
v -0.0295033092 -0.0317321377 -0.00123132229
v -0.0295033092 -0.0317321377 0.00123132229
v -0.0296714325 -0.0315640192 0.0014862895
v -0.0297277279 -0.031507719 0.00155429125
v -0.0295316906 -0.0317037611 0.00380145311
v -0.0297470493 -0.0314884024 -0.00157602072
v -0.0297470493 -0.0314884024 0.00157602072
v -0.0295340366 -0.0260445528 -0.003274405
v -0.0295741863 -0.0260044079 -0.00323084354
v -0.0295741863 -0.0260044079 0.00323084354
v -0.0295340366 -0.0260445528 0.003274405
v -0.0296137829 -0.0259648113 -0.00318629742
v -0.0297291965 -0.0258493929 0.00304689407
v -0.0294849415 -0.0317505055 -0.00377407074
v -0.0294385357 -0.0317969112 -0.0037455368
v -0.0294055099 -0.0318299418 -0.00103007555
v -0.0293159313 -0.0319195156 -0.000781462193
v -0.0292517013 -0.0319837504 -0.00051763773
v -0.0293064899 -0.0319289618 0.000749213696
v -0.0293929787 -0.0318424683 0.000999999046
v -0.0294736023 -0.0317618446 0.00117557049
v -0.0292566605 -0.0319787865 0.00362008572
v -0.0294849415 -0.0317505055 0.00377407074
v -0.0294882793 -0.0317471628 -0.00120362997
v -0.0294882793 -0.0317471628 0.00120362997
v -0.0292824669 -0.0262961321 -0.00351438522
v -0.0293256016 -0.0262529879 -0.00347699642
v -0.0293256016 -0.0262529879 0.00347699642
v -0.0292824669 -0.0262961321 0.00351438522
v -0.0293682785 -0.0262103109 -0.00343854904
v -0.0294933624 -0.026085227 0.00331696987
v -0.0292121906 -0.0320232515 -0.00358594179
v -0.0290814133 -0.0321540337 -0.00347699642
v -0.0292172737 -0.0320181732 -0.000278346539
v -0.029203722 -0.0320317202 -3.490448e-05
v -0.0292035122 -0.0320319395 0
v -0.0292344112 -0.0320010309 0.00041582346
v -0.0290387363 -0.0321967058 0.00343854904
v -0.0291245575 -0.0321108894 0.00351438522
v -0.0292397518 -0.0319956904 -0.000449903011
v -0.0292455215 -0.0319899302 0.00048384428
v -0.0290145225 -0.0265640669 -0.00371586084
v -0.0290015144 -0.0265770798 -0.00103007555
v -0.0290710087 -0.0265075855 -0.000845236778
v -0.0290140457 -0.0265645533 0.000999999046
v -0.0290015144 -0.0265770798 0.00103007555
v -0.029060194 -0.0265184002 0.00368505478
v -0.0291054745 -0.026473115 -0.00365312576
v -0.0290910835 -0.0264875059 -0.000781462193
v -0.029155323 -0.0264232712 -0.00051763773
v -0.0291897507 -0.0263888483 -0.000278346539
v -0.0292032928 -0.0263752966 -3.490448e-05
v -0.0291929645 -0.0263856249 0.000243737698
v -0.0291615028 -0.0264170914 0.00048384428
v -0.0291005344 -0.0264780598 0.000749213696
v -0.0290812416 -0.0264973478 0.000813472271
v -0.0292388649 -0.0263397293 0.00355070353
v -0.0289548511 -0.0322806006 -0.00335852385
v -0.028832838 -0.0324026089 -0.00323084354
v -0.0287541981 -0.0324812536 0.00314078331
v -0.0288729782 -0.0323624687 0.003274405
v -0.0289965458 -0.0322389011 -0.003399055
v -0.0289965458 -0.0322389011 0.003399055
v -0.0287808628 -0.0267977314 -0.00385273933
v -0.0288235874 -0.0267550068 -0.00136399746
v -0.028753788 -0.0268248062 0.00146270752
v -0.0288282509 -0.0267503386 0.00382767916
v -0.0288753338 -0.0267032604 -0.00380145311
v -0.0289684791 -0.0266101103 -0.0037455368
v -0.0288883514 -0.0266902475 -0.00125864029
v -0.0289886207 -0.0265899735 -0.00105983734
v -0.0289037151 -0.0266748791 0.00123132229
v -0.0288402576 -0.0267383318 0.00133826017
v -0.0289684791 -0.0266101103 0.0037455368
v -0.0289220829 -0.0266565113 0.00377407074
v -0.0287157173 -0.0325197296 -0.00309430838
v -0.0286405201 -0.0325949316 -0.00299854994
v -0.028532259 -0.032703188 0.00284809828
v -0.0286778183 -0.0325576239 0.00304689407
v -0.02853965 -0.0270389443 -0.00396029472
v -0.0285595341 -0.0270190601 -0.00167734146
v -0.0285176678 -0.0270609217 0.00171433449
v -0.02853965 -0.0270389443 0.00396029472
v -0.0285884113 -0.0269901877 -0.00394117355
v -0.0287171001 -0.0268614893 -0.00150941849
v -0.0287355919 -0.0268430023 -0.0014862895
v -0.0287355919 -0.0268430023 0.0014862895
v -0.0285801144 -0.0269984799 0.00165807486
v -0.02873316 -0.0268454294 0.00387662649
v -0.0284632416 -0.0327722006 -0.00274343491
v -0.0283023662 -0.0329330759 -0.00246744156
v -0.0282722683 -0.0329631739 0.00240992069
v -0.0283331699 -0.032902277 0.00252421141
v -0.0284974308 -0.0327380209 -0.00279619217
v -0.0284974308 -0.0327380209 0.00279619217
v -0.0282927246 -0.0272858648 -0.00403771162
v -0.0283190746 -0.0272595244 -0.00185436726
v -0.0282729835 -0.0273056059 0.00187938452
v -0.0282927246 -0.0272858648 0.00403771162
v -0.0283424778 -0.0272361164 -0.00402467251
v -0.0284414596 -0.0271371346 -0.00399491787
v -0.028453228 -0.0271253615 -0.00176589489
v -0.0284964008 -0.0270821886 -0.00173205137
v -0.0284749241 -0.0271036701 0.00174923897
v -0.028341877 -0.0272367172 0.00184100866
v -0.0284906597 -0.0270879297 0.00397821188
v -0.0283920593 -0.0271865301 0.00401040554
v -0.0282142277 -0.0330212193 -0.00229269028
v -0.0281863041 -0.0330491428 -0.00223301888
v -0.028082077 -0.0331533651 -0.00198771954
v -0.0280119915 -0.0332234507 0.00179732084
v -0.0281069965 -0.0331284504 0.00204999924
v -0.0282142277 -0.0330212193 0.00229269028
v -0.0282428856 -0.0329925566 -0.00235166311
v -0.0282428856 -0.0329925566 0.00235166311
v -0.028041975 -0.0275366192 -0.00408439875
v -0.0280591411 -0.0275194531 -0.00196325541
v -0.0280105324 -0.0275680666 0.00197537661
v -0.028041975 -0.0275366192 0.00408439875
v -0.0280923386 -0.0274862557 -0.00407753944
v -0.0282497234 -0.0273288756 -0.00189103603
v -0.0280833263 -0.0274952631 0.00195629597
v -0.0282428188 -0.0273357706 0.00404952288
v -0.0279692287 -0.0332662182 -0.00166762114
v -0.02791115 -0.0333243017 -0.00146930933
v -0.0278452606 -0.0333901816 -0.00119872332
v -0.0278047008 -0.0334307461 -0.000991880894
v -0.0277626343 -0.0334728174 -0.000711958408
v -0.0277542801 -0.0334811668 0.000641381741
v -0.0277718468 -0.0334635954 0.000782315731
v -0.0278173752 -0.0334180765 0.00106115818
v -0.0278604813 -0.0333749657 0.00126697063
v -0.0279296894 -0.0333057575 0.00153588772
v -0.0279902096 -0.0332452326 -0.00173273563
v -0.0279902096 -0.0332452326 0.00173273563
v -0.027789299 -0.0277892952 -0.00410000086
v -0.027789299 -0.0277892952 -0.00200000048
v -0.0278139801 -0.0277646141 -0.0019996953
v -0.0277646179 -0.0278139763 0.0019996953
v -0.027789299 -0.0277892952 0.00200000048
v -0.027789299 -0.0277892952 0.00410000086
v -0.0278398914 -0.027738698 -0.0040993762
v -0.0279861183 -0.0275924759 -0.00198053598
v -0.0278386516 -0.0277399426 0.00199878216
v -0.0279915256 -0.0275870638 0.0040900135
v -0.0277344723 -0.0335009794 -0.000428566933
v -0.0277225609 -0.0335128861 -0.000214576721
v -0.0277185841 -0.0335168629 0
v -0.0277256508 -0.0335098009 0.000286002159
v -0.0277468033 -0.0334886484 -0.00057060957
v -0.0277401943 -0.0334952526 -0.000499663353
v -0.0277401943 -0.0334952526 0.000499663353
v -0.0277468033 -0.0334886484 0.00057060957
v -0.027536623 -0.0280419712 -0.00408439875
v -0.0275680656 -0.0280105286 -0.00197537661
v -0.0275194473 -0.0280591421 0.00196325541
v -0.027536623 -0.0280419712 0.00408439875
v -0.0275870628 -0.0279915314 -0.0040900135
v -0.0277399368 -0.0278386526 -0.00199878216
v -0.0275924797 -0.0279861193 0.00198053598
v -0.027738697 -0.0278398924 0.0040993762
v -0.0272858639 -0.0282927256 -0.00403771162
v -0.0273056049 -0.0282729845 -0.00187938452
v -0.0272595234 -0.0283190708 0.00185436726
v -0.0272858639 -0.0282927256 0.00403771162
v -0.0273357696 -0.0282428198 -0.00404952288
v -0.0274952621 -0.0280833273 -0.00195629597
v -0.0273288746 -0.0282497196 0.00189103603
v -0.0274862499 -0.0280923395 0.00407753944
v -0.027038948 -0.0285396509 -0.00396029472
v -0.0270609207 -0.0285176687 -0.00171433449
v -0.0270190639 -0.0285595303 0.00167734146
v -0.027038948 -0.0285396509 0.00396029472
v -0.0271865291 -0.0283920603 -0.00401040554
v -0.0270879288 -0.0284906607 -0.00397821188
v -0.027236721 -0.0283418732 -0.00184100866
v -0.0271036739 -0.0284749203 -0.00174923897
v -0.0270821876 -0.0284964018 0.00173205137
v -0.0271253605 -0.028453229 0.00176589489
v -0.0271371288 -0.0284414606 0.00399491787
v -0.0272361107 -0.0283424788 0.00402467251
v -0.0267503376 -0.0288282566 -0.00382767916
v -0.0268248005 -0.028753789 -0.00146270752
v -0.0267550106 -0.0288235884 0.00136399746
v -0.0267977352 -0.028780859 0.00385273933
v -0.0268454285 -0.0287331658 -0.00387662649
v -0.0269984741 -0.0285801153 -0.00165807486
v -0.0268430061 -0.0287355881 -0.0014862895
v -0.0268430061 -0.0287355881 0.0014862895
v -0.0268614883 -0.0287171059 0.00150941849
v -0.0269901867 -0.0285884075 0.00394117355
v -0.0265183945 -0.029060195 -0.00368505478
v -0.0265770836 -0.0290015154 -0.00103007555
v -0.0265645523 -0.0290140419 -0.000999999046
v -0.0265075798 -0.0290710096 0.000845236778
v -0.0265770836 -0.0290015154 0.00103007555
v -0.0265640659 -0.0290145235 0.00371586084
v -0.0266565151 -0.0289220791 -0.00377407074
v -0.0266101093 -0.0289684801 -0.0037455368
v -0.0267383308 -0.0288402634 -0.00133826017
v -0.0266748829 -0.0289037113 -0.00123132229
v -0.0265899773 -0.028988617 0.00105983734
v -0.0266902466 -0.0288883476 0.00125864029
v -0.0266101093 -0.0289684801 0.0037455368
v -0.0267032642 -0.0288753347 0.00380145311
v -0.0262961311 -0.0292824631 -0.00351438522
v -0.0262529869 -0.0293256073 -0.00347699642
v -0.0262529869 -0.0293256073 0.00347699642
v -0.0262961311 -0.0292824631 0.00351438522
v -0.0263397236 -0.0292388659 -0.00355070353
v -0.0264973469 -0.0290812426 -0.000813472271
v -0.0264780636 -0.0291005306 -0.000749213696
v -0.0264170952 -0.0291615038 -0.00048384428
v -0.0263856239 -0.0291929703 -0.000243737698
v -0.0263750858 -0.0292035084 0
v -0.0263888473 -0.0291897469 0.000278346539
v -0.026423275 -0.029155324 0.00051763773
v -0.0264875049 -0.0290910893 0.000781462193
v -0.026473114 -0.0291054754 0.00365312576
v -0.0260445518 -0.0295340424 -0.003274405
v -0.0260044117 -0.0295741825 -0.00323084354
v -0.0260044117 -0.0295741825 0.00323084354
v -0.0260445518 -0.0295340424 0.003274405
v -0.026085226 -0.0294933682 -0.00331696987
v -0.02621031 -0.0293682795 0.00343854904
v -0.0257753868 -0.0298032074 -0.00294929266
v -0.0258120937 -0.0297665053 0.00299854994
v -0.0258493919 -0.0297291975 -0.00304689407
v -0.0259648056 -0.0296137838 0.00318629742
v -0.0255047436 -0.0300738506 -0.00252421141
v -0.0255684299 -0.0300101643 0.00263542891
v -0.0256690044 -0.0299095898 -0.00279619217
v -0.0256012936 -0.0299773054 -0.00268984318
v -0.0256348152 -0.0299437742 0.00274343491
v -0.0257392998 -0.0298392944 0.00289913893
v -0.0252785702 -0.030300024 -0.00204999924
v -0.0252536507 -0.0303249388 -0.00198771954
v -0.0252536507 -0.0303249388 0.00198771954
v -0.0253042526 -0.0302743416 0.00211165667
v -0.0253858013 -0.0301927929 -0.00229269028
v -0.0253306885 -0.0302479057 -0.00217266798
v -0.0253578777 -0.0302207165 0.00223301888
v -0.0254739399 -0.0301046496 0.00246744156
v -0.0250320549 -0.0305465393 -0.00126697063
v -0.0250024624 -0.0305761271 -0.0011301136
v -0.0250168342 -0.0305617552 0.00119872332
v -0.0250649948 -0.0305135946 0.00140228271
v -0.0251835651 -0.0303950243 -0.00179732084
v -0.025101263 -0.0304773312 -0.00153588772
v -0.0250827141 -0.0304958754 -0.00146930933
v -0.0250827141 -0.0304958754 0.00146930933
v -0.0251617832 -0.0304168062 0.00173273563
v -0.0252295132 -0.030349081 0.00192483425
v -0.0249889488 -0.0305896502 -0.00106115818
v -0.0249434204 -0.030635169 -0.000782315731
v -0.0249183769 -0.0306602221 -0.00057060957
v -0.0248972244 -0.0306813698 -0.000286002159
v -0.0248905964 -0.0306879931 -7.1554184e-05
v -0.0248941345 -0.0306844597 0.000214576721
v -0.0249117679 -0.0306668263 0.000499663353
v -0.0249341984 -0.0306443911 0.000711958408
v -0.0249762745 -0.0306023197 0.000991880894
v -0.0249889488 -0.0305896502 0.00106115818
f 1 46 2
f 109 1 2
f 16 46 1
f 108 16 1
f 108 1 109
f 2 46 3
f 110 2 3
f 109 2 110
f 3 47 4
f 111 3 4
f 3 46 47
f 110 3 111
f 4 47 17
f 111 4 17
f 5 57 6
f 127 5 6
f 25 56 5
f 126 25 5
f 5 56 57
f 126 5 127
f 6 57 7
f 102 6 7
f 101 6 102
f 127 6 101
f 7 57 8
f 106 7 8
f 102 7 105
f 105 7 106
f 8 45 9
f 107 8 9
f 8 63 45
f 8 57 63
f 106 8 107
f 9 45 15
f 107 9 15
f 10 48 11
f 113 10 11
f 18 48 10
f 112 18 10
f 112 10 113
f 11 58 12
f 114 11 12
f 11 48 64
f 11 64 58
f 113 11 114
f 12 58 13
f 104 12 13
f 103 12 104
f 114 12 103
f 13 70 14
f 129 13 14
f 58 59 13
f 13 59 60
f 13 60 74
f 13 69 70
f 74 69 13
f 104 13 128
f 128 13 129
f 14 78 26
f 129 14 26
f 14 70 71
f 14 71 82
f 14 82 78
f 15 45 16
f 108 15 16
f 107 15 108
f 16 45 46
f 17 48 18
f 112 17 18
f 17 47 48
f 111 17 112
f 19 55 20
f 138 19 20
f 31 55 19
f 137 31 19
f 137 19 138
f 20 56 21
f 122 20 21
f 20 55 56
f 121 20 122
f 138 20 121
f 21 56 25
f 126 21 25
f 122 21 125
f 125 21 126
f 22 91 23
f 124 22 23
f 26 78 22
f 130 26 22
f 22 78 79
f 79 88 22
f 22 88 85
f 85 91 22
f 123 22 124
f 130 22 123
f 140 23 24
f 23 269 24
f 23 91 100
f 96 97 23
f 23 100 96
f 23 97 269
f 124 23 139
f 139 23 140
f 140 24 32
f 24 270 32
f 24 269 270
f 129 26 130
f 27 68 28
f 137 27 28
f 37 67 27
f 152 37 27
f 27 67 68
f 135 27 137
f 152 27 135
f 28 55 31
f 137 28 31
f 28 73 55
f 28 68 73
f 136 29 30
f 29 249 30
f 140 32 29
f 32 272 29
f 140 29 136
f 29 272 249
f 154 30 38
f 30 250 38
f 136 30 153
f 153 30 154
f 30 249 250
f 32 270 272
f 33 67 34
f 149 33 34
f 40 66 33
f 169 40 33
f 33 66 67
f 169 33 149
f 34 67 37
f 151 34 37
f 149 34 151
f 170 35 36
f 35 235 36
f 154 38 35
f 38 252 35
f 154 35 150
f 150 35 170
f 35 252 235
f 170 36 41
f 36 236 41
f 36 235 236
f 151 37 152
f 38 250 252
f 39 77 40
f 166 39 40
f 51 77 39
f 187 51 39
f 165 39 166
f 187 39 165
f 40 81 66
f 40 77 81
f 166 40 169
f 168 41 42
f 41 217 42
f 167 41 168
f 170 41 167
f 41 236 217
f 188 42 52
f 42 218 52
f 168 42 188
f 42 217 218
f 43 77 44
f 184 43 44
f 54 76 43
f 205 54 43
f 43 76 77
f 183 43 184
f 205 43 183
f 44 77 51
f 187 44 51
f 184 44 187
f 208 46 45
f 208 45 63
f 209 47 46
f 209 46 208
f 210 48 47
f 210 47 209
f 211 64 48
f 211 48 210
f 186 49 50
f 49 195 50
f 188 52 49
f 52 220 49
f 185 49 186
f 188 49 185
f 49 220 195
f 50 196 61
f 214 50 61
f 186 50 214
f 50 195 196
f 52 218 220
f 53 84 54
f 226 53 54
f 65 84 53
f 225 65 53
f 225 53 226
f 54 87 76
f 54 84 87
f 199 54 205
f 226 54 199
f 200 56 55
f 228 55 73
f 200 55 228
f 206 57 56
f 201 56 200
f 206 56 201
f 207 63 57
f 207 57 206
f 212 59 58
f 211 58 64
f 212 58 211
f 202 60 59
f 202 59 213
f 213 59 212
f 229 74 60
f 203 60 202
f 229 60 203
f 61 179 62
f 232 61 62
f 61 196 179
f 214 61 204
f 204 61 231
f 231 61 232
f 62 180 72
f 232 62 72
f 62 179 180
f 208 63 207
f 75 84 65
f 241 75 65
f 221 65 225
f 241 65 221
f 242 67 66
f 242 66 81
f 227 68 67
f 227 67 222
f 222 67 243
f 243 67 242
f 228 73 68
f 228 68 227
f 229 70 69
f 229 69 74
f 244 71 70
f 223 70 230
f 244 70 223
f 230 70 229
f 245 82 71
f 245 71 244
f 72 162 80
f 246 72 80
f 72 180 162
f 232 72 224
f 224 72 246
f 83 90 75
f 258 83 75
f 75 90 84
f 237 75 241
f 258 75 237
f 259 77 76
f 259 76 87
f 242 81 77
f 242 77 238
f 238 77 260
f 260 77 259
f 261 79 78
f 245 78 82
f 239 78 245
f 261 78 239
f 262 88 79
f 262 79 261
f 80 146 86
f 264 80 86
f 80 162 146
f 246 80 240
f 240 80 263
f 263 80 264
f 89 90 83
f 277 89 83
f 253 83 257
f 277 83 253
f 257 83 258
f 259 87 84
f 278 84 90
f 259 84 254
f 254 84 278
f 262 85 88
f 279 91 85
f 255 85 262
f 279 85 255
f 86 134 92
f 280 86 92
f 86 146 134
f 264 86 256
f 256 86 280
f 89 99 90
f 93 95 89
f 299 93 89
f 89 95 99
f 273 89 277
f 299 89 273
f 300 90 99
f 278 90 274
f 274 90 300
f 301 100 91
f 275 91 279
f 301 91 275
f 92 118 98
f 302 92 98
f 92 134 118
f 280 92 276
f 276 92 302
f 93 94 95
f 115 94 93
f 315 115 93
f 293 93 299
f 315 93 293
f 267 95 94
f 294 95 94
f 295 94 95
f 131 94 115
f 141 94 131
f 155 94 141
f 171 94 155
f 172 94 171
f 189 94 172
f 190 94 189
f 219 94 190
f 216 94 215
f 215 94 219
f 233 94 216
f 234 94 233
f 251 94 234
f 248 94 247
f 247 94 251
f 271 94 248
f 266 94 265
f 265 94 271
f 267 94 266
f 294 94 295
f 300 99 95
f 119 95 267
f 316 95 119
f 295 95 294
f 300 95 295
f 295 95 316
f 97 96 269
f 296 97 96
f 297 96 97
f 301 96 100
f 269 96 120
f 317 120 96
f 296 96 297
f 296 96 301
f 317 96 296
f 297 97 296
f 318 98 118
f 302 98 298
f 298 98 318
f 207 101 102
f 207 127 101
f 207 102 105
f 212 103 104
f 212 114 103
f 212 104 128
f 207 105 106
f 208 106 107
f 207 106 208
f 208 107 108
f 209 108 109
f 208 108 209
f 209 109 110
f 210 110 111
f 209 110 210
f 211 111 112
f 210 111 211
f 211 112 113
f 212 113 114
f 211 113 212
f 323 131 115
f 311 115 315
f 323 115 311
f 267 116 119
f 316 119 116
f 267 132 116
f 324 116 132
f 316 116 312
f 312 116 324
f 269 120 117
f 317 117 120
f 268 117 133
f 325 133 117
f 269 117 268
f 313 117 317
f 325 117 313
f 326 118 134
f 318 118 314
f 314 118 326
f 201 121 122
f 121 393 138
f 200 121 201
f 228 121 200
f 222 121 227
f 243 121 222
f 227 121 228
f 238 121 242
f 260 121 238
f 242 121 243
f 254 121 259
f 278 121 254
f 259 121 260
f 274 121 278
f 300 121 274
f 294 121 295
f 294 394 121
f 295 121 300
f 394 393 121
f 201 122 125
f 202 123 124
f 202 130 123
f 229 124 139
f 202 124 203
f 203 124 229
f 201 125 126
f 207 126 127
f 201 126 206
f 206 126 207
f 212 128 129
f 202 129 130
f 213 129 202
f 212 129 213
f 331 141 131
f 319 131 323
f 331 131 319
f 267 147 132
f 333 132 147
f 324 132 320
f 320 132 333
f 268 133 148
f 336 148 133
f 321 133 325
f 336 133 321
f 337 134 146
f 326 134 322
f 322 134 338
f 338 134 337
f 137 397 135
f 135 387 152
f 135 397 387
f 229 140 136
f 230 136 153
f 229 136 230
f 138 398 137
f 137 398 397
f 138 393 398
f 229 139 140
f 343 155 141
f 327 141 332
f 343 141 327
f 332 141 331
f 291 143 142
f 334 142 143
f 267 142 147
f 333 147 142
f 291 142 267
f 333 142 334
f 163 143 281
f 344 143 163
f 281 143 291
f 334 143 328
f 328 143 344
f 145 144 268
f 336 144 145
f 290 144 164
f 347 164 144
f 268 144 292
f 292 144 290
f 329 144 335
f 347 144 329
f 335 144 336
f 268 148 145
f 336 145 148
f 348 146 162
f 337 146 330
f 330 146 348
f 151 389 149
f 149 383 169
f 149 389 383
f 223 154 150
f 244 150 170
f 223 150 244
f 152 390 151
f 151 390 389
f 152 387 390
f 223 153 154
f 230 153 223
f 355 171 155
f 339 155 343
f 355 155 339
f 282 157 156
f 345 156 157
f 281 156 163
f 344 163 156
f 282 156 281
f 344 156 345
f 158 157 283
f 358 157 158
f 283 157 282
f 345 157 340
f 340 157 357
f 357 157 358
f 283 181 158
f 358 158 181
f 289 160 159
f 360 159 160
f 159 182 289
f 359 182 159
f 359 159 360
f 161 160 290
f 347 160 161
f 290 160 289
f 341 160 346
f 360 160 341
f 346 160 347
f 164 161 290
f 347 161 164
f 362 162 180
f 348 162 342
f 342 162 362
f 166 378 165
f 165 377 187
f 165 378 377
f 169 385 166
f 166 385 378
f 245 167 168
f 245 170 167
f 245 168 188
f 169 383 385
f 244 170 245
f 355 172 171
f 367 189 172
f 349 172 356
f 367 172 349
f 356 172 355
f 284 174 173
f 351 173 174
f 283 173 181
f 358 181 173
f 284 173 283
f 350 173 351
f 358 173 350
f 175 174 285
f 369 174 175
f 285 174 284
f 351 174 368
f 368 174 369
f 308 197 175
f 370 175 197
f 307 175 285
f 308 175 307
f 369 175 370
f 287 177 176
f 375 176 177
f 309 176 198
f 374 198 176
f 287 176 286
f 286 176 310
f 310 176 309
f 374 176 375
f 178 177 288
f 353 177 178
f 288 177 287
f 352 177 353
f 375 177 352
f 288 182 178
f 359 178 182
f 353 178 359
f 361 180 179
f 376 179 196
f 361 179 354
f 354 179 376
f 362 180 361
f 289 182 288
f 184 364 183
f 183 363 205
f 183 364 363
f 187 381 184
f 184 381 364
f 239 185 186
f 239 188 185
f 261 186 214
f 239 186 261
f 187 377 381
f 245 188 239
f 363 190 189
f 363 189 367
f 381 219 190
f 364 190 363
f 381 190 364
f 304 192 191
f 371 191 192
f 303 191 197
f 370 197 191
f 304 191 303
f 370 191 371
f 305 193 192
f 372 192 193
f 305 192 304
f 371 192 372
f 306 194 193
f 373 193 194
f 306 193 305
f 372 193 373
f 306 198 194
f 373 194 198
f 365 196 195
f 382 195 220
f 365 195 382
f 366 196 365
f 376 196 366
f 303 197 308
f 309 198 306
f 373 198 374
f 205 367 199
f 199 349 226
f 199 367 349
f 262 214 204
f 361 204 231
f 262 204 255
f 255 204 279
f 279 204 275
f 275 204 301
f 296 204 297
f 301 204 296
f 297 204 354
f 354 204 361
f 205 363 367
f 261 214 262
f 377 216 215
f 381 215 219
f 377 215 381
f 385 233 216
f 378 216 377
f 385 216 378
f 379 218 217
f 386 217 236
f 379 217 386
f 382 220 218
f 380 218 379
f 382 218 380
f 225 355 221
f 221 339 241
f 221 355 339
f 342 232 224
f 348 224 246
f 342 224 348
f 226 356 225
f 225 356 355
f 226 349 356
f 362 231 232
f 361 231 362
f 362 232 342
f 385 234 233
f 389 251 234
f 383 234 385
f 389 234 383
f 384 236 235
f 392 235 252
f 384 235 392
f 386 236 384
f 241 343 237
f 237 327 258
f 237 343 327
f 330 246 240
f 337 240 263
f 330 240 337
f 241 339 343
f 348 246 330
f 387 248 247
f 389 247 251
f 387 247 390
f 390 247 389
f 397 271 248
f 397 248 387
f 400 250 249
f 400 249 272
f 391 252 250
f 391 250 388
f 388 250 400
f 392 252 391
f 257 331 253
f 253 319 277
f 253 331 319
f 322 264 256
f 326 256 280
f 322 256 326
f 258 332 257
f 257 332 331
f 258 327 332
f 338 263 264
f 337 263 338
f 338 264 322
f 397 266 265
f 397 265 271
f 393 267 266
f 393 266 398
f 398 266 397
f 405 291 267
f 394 267 393
f 405 267 394
f 395 269 268
f 409 268 292
f 395 268 410
f 410 268 409
f 399 270 269
f 396 269 395
f 399 269 396
f 400 272 270
f 400 270 399
f 277 323 273
f 273 311 299
f 273 323 311
f 314 280 276
f 318 276 302
f 314 276 318
f 277 319 323
f 326 280 314
f 406 282 281
f 406 281 291
f 401 283 282
f 401 282 407
f 407 282 406
f 411 284 283
f 402 283 401
f 411 283 402
f 412 285 284
f 412 284 411
f 413 307 285
f 413 285 412
f 418 287 286
f 418 286 310
f 419 288 287
f 419 287 418
f 403 289 288
f 403 288 420
f 420 288 419
f 408 290 289
f 404 289 403
f 408 289 404
f 409 292 290
f 409 290 408
f 406 291 405
f 299 315 293
f 295 394 294
f 316 394 295
f 296 297 396
f 396 317 296
f 297 354 376
f 365 297 366
f 382 297 365
f 366 297 376
f 379 297 380
f 386 297 379
f 380 297 382
f 384 297 386
f 392 297 384
f 388 297 391
f 400 297 388
f 391 297 392
f 396 297 399
f 399 297 400
f 318 302 298
f 299 311 315
f 414 304 303
f 414 303 308
f 415 305 304
f 415 304 414
f 416 306 305
f 416 305 415
f 417 309 306
f 417 306 416
f 413 308 307
f 414 308 413
f 417 310 309
f 418 310 417
f 312 405 316
f 324 405 312
f 395 313 317
f 395 325 313
f 316 405 394
f 395 317 396
f 320 405 324
f 333 405 320
f 410 321 325
f 410 336 321
f 410 325 395
f 328 406 334
f 344 406 328
f 329 335 409
f 347 329 409
f 334 406 333
f 333 406 405
f 410 335 336
f 409 335 410
f 340 407 345
f 357 401 340
f 340 401 407
f 341 346 408
f 404 360 341
f 404 341 408
f 345 407 344
f 344 407 406
f 409 346 347
f 408 346 409
f 351 412 350
f 350 412 358
f 368 412 351
f 420 352 353
f 419 375 352
f 419 352 420
f 420 353 359
f 358 402 357
f 357 402 401
f 358 411 402
f 358 412 411
f 404 359 360
f 403 359 404
f 420 359 403
f 369 413 368
f 368 413 412
f 370 414 369
f 369 414 413
f 371 415 370
f 370 415 414
f 372 416 371
f 371 416 415
f 417 372 373
f 416 372 417
f 417 373 374
f 419 374 375
f 417 374 418
f 418 374 419
