v -0.0180007534 -0.0646697979 0.0344524789
v -0.0180218058 -0.064690855 0.0346949553
v -0.0180308466 -0.0646998959 0.0349389172
v -0.0180312233 -0.0647002678 0.035
v -0.0180071383 -0.0646761875 0.0354871058
v -0.0180007534 -0.0646697979 0.0355475211
v -0.0178668432 -0.0645358925 0.0337457132
v -0.0179230814 -0.0645921307 0.0339766979
v -0.0179677944 -0.0646368389 0.0342126703
v -0.0179936247 -0.064662674 0.0343922305
v -0.0179771404 -0.0646461849 0.0357276917
v -0.0179353504 -0.0646043949 0.0359647298
v -0.0178819685 -0.0645510178 0.0361970711
v -0.0178344803 -0.0645035343 0.0363675594
v -0.0177807503 -0.0644497948 0.0334657001
v -0.0178172569 -0.064486311 0.0335764217
v -0.0177993469 -0.0644683914 0.0364791632
v -0.0177614765 -0.064430521 0.0365889668
v -0.0176471977 -0.0650233536 0.0344524789
v -0.0176682501 -0.0650444107 0.0346949553
v -0.0176772909 -0.0650534515 0.0349389172
v -0.0176776676 -0.0650538235 0.035
v -0.0176535826 -0.0650297432 0.0354871058
v -0.0176322012 -0.0650083523 0.0356678319
v -0.0175132875 -0.0648894482 0.0337457132
v -0.0175695305 -0.0649456863 0.0339766979
v -0.0176142387 -0.0649903946 0.0342126703
v -0.0176235895 -0.0649997406 0.0342723083
v -0.0176235895 -0.0649997406 0.0357276917
v -0.0175817947 -0.0649579506 0.0359647298
v -0.0175284176 -0.0649045734 0.0361970711
v -0.0175132875 -0.0648894482 0.0362542868
v -0.0175836449 -0.0642526989 0.0329924822
v -0.0176777296 -0.0643467789 0.0331973672
v -0.0177415352 -0.0644105797 0.0333568501
v -0.0176996546 -0.0643687038 0.0367499995
v -0.0176081114 -0.0642771606 0.0369571757
v -0.0175836449 -0.0642526989 0.0370075178
v -0.0175585632 -0.0642276077 0.0329427505
v -0.0175065784 -0.0641756229 0.0371548152
v -0.0174271994 -0.0648033504 0.0334657001
v -0.0174974566 -0.0648736172 0.0336888766
v -0.0174457912 -0.0648219471 0.0364791632
v -0.0173879795 -0.0647641354 0.0366431499
v -0.0173241787 -0.0647003345 0.0331973672
v -0.0173673706 -0.0647435265 0.0333031654
v -0.0173460989 -0.06472225 0.0367499995
v -0.0172545605 -0.0646307163 0.0369571757
v -0.0174241619 -0.0640932064 0.032703793
v -0.0174796896 -0.0641487389 0.0327973795
v -0.0174522142 -0.0641212635 0.0372497559
v -0.0173366241 -0.0640056686 0.0374313045
v -0.0172755413 -0.0639445858 0.0324823117
v -0.0173063498 -0.063975399 0.0325251269
v -0.0173063498 -0.063975399 0.0374748731
v -0.0172755413 -0.0639445858 0.0375176883
v -0.017230094 -0.064606245 0.0329924822
v -0.0171261339 -0.064502285 0.0372026205
v -0.0170706062 -0.0644467621 0.032703793
v -0.0170986586 -0.0644748096 0.0327502441
v -0.0170986586 -0.0644748096 0.0372497559
v -0.017012804 -0.0643889599 0.0373869944
v -0.0172442083 -0.0639132576 0.0324402618
v -0.0171138363 -0.0637828808 0.0377200103
v -0.0170800333 -0.0637490826 0.032241962
v -0.0170032148 -0.0636722641 0.0345276022
v -0.0170331411 -0.0637021904 0.0347804904
v -0.0170412712 -0.0637103252 0.035
v -0.0170302038 -0.0636992531 0.0352559257
v -0.0170110445 -0.0636800938 0.0378315592
v -0.0169219856 -0.0642981415 0.0324823117
v -0.0169830732 -0.0643592243 0.0325686955
v -0.0169527941 -0.0643289547 0.0374748731
v -0.0168906574 -0.0642668133 0.0375597382
v -0.0168588095 -0.0642349606 0.032398994
v -0.0167602854 -0.0641364365 0.0377200103
v -0.0168310051 -0.0635000496 0.0319999146
v -0.0169758778 -0.0636449223 0.0321329689
v -0.01684233 -0.0635113792 0.0339499998
v -0.0168674593 -0.0635365086 0.0340141106
v -0.0169517212 -0.0636207657 0.0342817569
v -0.0169971638 -0.0636662083 0.0355080366
v -0.016942647 -0.0636116962 0.035752573
v -0.0168550949 -0.0635241394 0.0360180998
v -0.0168678312 -0.0635368805 0.0379681683
v -0.0168310051 -0.0635000496 0.0380000854
v -0.016793788 -0.0634628372 0.0319689107
v -0.0167576771 -0.0634267216 0.0337656498
v -0.0168291788 -0.0634982281 0.0360815811
v -0.0167561941 -0.0634252434 0.0380611682
v -0.0167264824 -0.0641026382 0.032241962
v -0.0166301947 -0.0640063553 0.0344211626
v -0.0166496592 -0.0640258198 0.0345276022
v -0.0166795855 -0.0640557365 0.0347804904
v -0.0166877203 -0.0640638714 0.035
v -0.0166766529 -0.0640528088 0.0352559257
v -0.0166436129 -0.0640197639 0.0355080366
v -0.0166574888 -0.0640336399 0.0378315592
v -0.0166223269 -0.0639984779 0.0321329689
v -0.0165015392 -0.0638776951 0.0339819002
v -0.0165139084 -0.0638900642 0.0340141106
v -0.0165981703 -0.0639743214 0.0342817569
v -0.0166228371 -0.0639989929 0.0356139803
v -0.0165890913 -0.0639652424 0.035752573
v -0.0165015392 -0.0638776951 0.0360180998
v -0.0165142803 -0.0638904362 0.0379681683
v -0.0167182331 -0.0633872776 0.0319096828
v -0.0165878658 -0.0632569103 0.033489387
v -0.016606348 -0.0632753925 0.0335150766
v -0.0167422609 -0.0634113102 0.0362638116
v -0.0165878658 -0.0632569103 0.036510613
v -0.0166022758 -0.0632713203 0.0381720781
v -0.0165629702 -0.0632320194 0.0318025899
v -0.0165108423 -0.0631798916 0.0333913064
v -0.0165690641 -0.0632381134 0.0365358424
v -0.0165233593 -0.0631924038 0.0382217669
v -0.0164774494 -0.0638536053 0.0319999146
v -0.01638871 -0.0637648659 0.0337361884
v -0.0164041262 -0.0637802773 0.0337656498
v -0.0164887791 -0.0638649349 0.0360500002
v -0.01638871 -0.0637648659 0.0362638116
v -0.0164026384 -0.0637787895 0.0380611682
v -0.0163646774 -0.0637408333 0.0319096828
v -0.0162527971 -0.0636289482 0.0335150766
v -0.0163729315 -0.0637490826 0.0362928891
v -0.0162877111 -0.0636638622 0.0381457782
v -0.016443265 -0.0631123142 0.0317324686
v -0.0164834528 -0.0631525021 0.0317548561
v -0.0163432388 -0.0630122833 0.033219099
v -0.0163867073 -0.0630557518 0.0332590222
v -0.0164908438 -0.063159893 0.0366320062
v -0.016365097 -0.0630341415 0.0367612076
v -0.0164834528 -0.0631525021 0.0382451439
v -0.0163620882 -0.0630311375 0.0383093143
v -0.0163211279 -0.0629901772 0.0316713023
v -0.016253479 -0.0629225235 0.0331458092
v -0.0163211422 -0.0629901867 0.0368000507
v -0.0162799339 -0.0629489784 0.0383470678
v -0.0162487249 -0.063624876 0.0318279219
v -0.0161372881 -0.0635134392 0.0333679938
v -0.0162343102 -0.063610466 0.036510613
v -0.0161299019 -0.0635060577 0.0382451439
v -0.0160897093 -0.0634658699 0.0317324686
v -0.0160115414 -0.0633876972 0.0332387924
v -0.0160331564 -0.0634093075 0.0332590222
v -0.0161170082 -0.0634931641 0.0366548228
v -0.0160115414 -0.0633876972 0.0367612076
v -0.0160085373 -0.0633846931 0.0383093143
v -0.0162385159 -0.0629075603 0.0316355848
v -0.0160884981 -0.0627575474 0.0330394816
v -0.0162304907 -0.0628995399 0.0368711138
v -0.0161130743 -0.0627821236 0.0384102941
v -0.0160709028 -0.0627399521 0.0315764832
v -0.0160152178 -0.062684267 0.0330027819
v -0.0160642223 -0.0627332668 0.0369733548
v -0.0160285788 -0.062697628 0.0384356952
v -0.0159675722 -0.0633437328 0.0316713023
v -0.015876935 -0.0632530956 0.0331288862
v -0.0159896879 -0.063365839 0.036780901
v -0.0158849649 -0.063261116 0.0383644152
v -0.0158433418 -0.0632194977 0.0316192603
v -0.0157590561 -0.0631352119 0.0330529141
v -0.0158537416 -0.0632299023 0.0368874669
v -0.0157595234 -0.0631356792 0.0384102941
v -0.0159861069 -0.0626551514 0.0315531731
v -0.0158396845 -0.0625087337 0.0329385829
v -0.0159904985 -0.0626595478 0.0370082402
v -0.0158579617 -0.0625270061 0.0384739113
v -0.0158150463 -0.0624840908 0.0315191722
v -0.0157630091 -0.0624320583 0.0329204369
v -0.0158142023 -0.0624832516 0.0370680952
v -0.0157720499 -0.0624410992 0.038486681
v -0.0157173519 -0.0630935078 0.0315764832
v -0.0156369476 -0.0630131035 0.0329917598
v -0.0156616621 -0.0630378132 0.0330027819
v -0.0157349472 -0.0631111031 0.0369605184
v -0.0156369476 -0.0630131035 0.0370082402
v -0.0156325512 -0.063008707 0.0384468269
v -0.0155899506 -0.0629661064 0.0315430903
v -0.0155115299 -0.0628876858 0.0329458904
v -0.0156120949 -0.0629882507 0.0370186496
v -0.015504406 -0.0628805618 0.0384739113
v -0.0157289867 -0.0623980312 0.0315085268
v -0.0155822639 -0.0622513084 0.0329003191
v -0.0157373171 -0.0624063663 0.0370843458
v -0.0155995398 -0.062268589 0.0384994674
v -0.0155563478 -0.0622253971 0.031500001
v -0.0155045252 -0.0621735744 0.0329012799
v -0.0155563478 -0.0622253971 0.0371000004
v -0.0155131559 -0.0621822052 0.0384994674
v -0.0154614906 -0.0628376465 0.0315191722
v -0.0153837614 -0.0627599125 0.0329156542
v -0.0154861336 -0.0628622894 0.0370614171
v -0.0153754358 -0.0627515869 0.0384914732
v -0.0153323202 -0.0627084713 0.0315047956
v -0.0152546196 -0.0626307755 0.0329012799
v -0.0153580122 -0.0627341633 0.0370884967
v -0.0152891665 -0.0626653175 0.0384978676
v -0.0154699783 -0.0621390228 0.0315021324
v -0.0153496866 -0.0620187359 0.0329204369
v -0.0154786329 -0.0621476822 0.0370971227
v -0.0153406506 -0.0620096951 0.038486681
v -0.0152976542 -0.0619667034 0.0315191722
v -0.0152730112 -0.0619420605 0.0329385829
v -0.0153240566 -0.0619931011 0.0370741463
v -0.0152547388 -0.0619237881 0.0384739113
v -0.0152459888 -0.0626221447 0.0315005326
v -0.015125082 -0.0625012379 0.0329028773
v -0.015228713 -0.0626048641 0.0370996809
v -0.015159605 -0.0625357609 0.0384994674
v -0.0151164227 -0.0624925785 0.0315021324
v -0.0150218277 -0.0623979836 0.0329156542
v -0.0150992136 -0.0624753647 0.0370948839
v -0.015030158 -0.0624063091 0.0384914732
v -0.0152119141 -0.0618809586 0.0315340614
v -0.0151221972 -0.0617912464 0.0329917598
v -0.0150974827 -0.0617665272 0.0330027819
v -0.0150974827 -0.0617665272 0.0369972181
v -0.0152476149 -0.0619166641 0.0370541096
v -0.0150841217 -0.0617531662 0.0384356952
v -0.0150417929 -0.0617108421 0.0315764832
v -0.0150000887 -0.061669138 0.0330529141
v -0.0150729065 -0.061741951 0.0369855881
v -0.0150417929 -0.0617108421 0.0384235168
v -0.0149870949 -0.0623632507 0.031513319
v -0.0148940639 -0.0622702198 0.0329458904
v -0.0149961357 -0.0623722916 0.0370795631
v -0.0149011831 -0.0622773342 0.0384739113
v -0.0148583584 -0.0622345142 0.0315340614
v -0.0147686462 -0.0621448021 0.0329917598
v -0.0148687582 -0.0622449188 0.0370461774
v -0.0147730379 -0.062149189 0.0384468269
v -0.0149996214 -0.0616686707 0.0315897059
v -0.0148364429 -0.0615054874 0.0331632996
v -0.0149761419 -0.0616451912 0.0369330597
v -0.0148327665 -0.0615018158 0.0383470678
v -0.0147915726 -0.0614606171 0.0316713023
v -0.0147694569 -0.0614385109 0.033219099
v -0.0148138885 -0.061482933 0.0368186545
v -0.0147506075 -0.0614196568 0.0383093143
v -0.014730566 -0.0621067219 0.0315643048
v -0.014646533 -0.0620226841 0.0330529141
v -0.014743927 -0.0621200829 0.0369972181
v -0.0146460705 -0.0620222263 0.0384102941
v -0.0146040707 -0.0619802265 0.0316039658
v -0.0145056658 -0.0618818169 0.0331458092
v -0.014622591 -0.0619987469 0.0369330597
v -0.0145206289 -0.06189678 0.0383644152
v -0.0147098904 -0.0613789444 0.0317110753
v -0.0146292429 -0.0612982922 0.0317548561
v -0.0147476034 -0.0614166527 0.0332387924
v -0.0145821505 -0.0612511997 0.0334151101
v -0.0147259884 -0.0613950329 0.0367409778
v -0.0147476034 -0.0614166527 0.0367612076
v -0.0145893412 -0.0612583904 0.0382217669
v -0.0146694355 -0.06133848 0.0382675314
v -0.0145497255 -0.0612187748 0.0318025899
v -0.0145248346 -0.0611938839 0.033489387
v -0.0145063477 -0.0611753922 0.0335150766
v -0.0145063477 -0.0611753922 0.0364849234
v -0.0145627432 -0.0612317924 0.0365606046
v -0.0145104246 -0.0611794739 0.0381720781
v -0.0144792109 -0.0618553715 0.0316529322
v -0.0143940477 -0.0617701988 0.0332387924
v -0.014482892 -0.0618590431 0.0368367004
v -0.0143970566 -0.0617732124 0.0383093143
v -0.0143563395 -0.0617324905 0.0317110753
v -0.014275692 -0.0616518478 0.0317548561
v -0.014268301 -0.0616444569 0.0333679938
v -0.0143724375 -0.0617485886 0.0367409778
v -0.014275692 -0.0616518478 0.0382451439
v -0.0143158798 -0.0616920357 0.0382675314
v -0.0144714336 -0.0611404877 0.0318542218
v -0.0143704348 -0.061039484 0.0337361884
v -0.0143399696 -0.0610090141 0.0337954903
v -0.0143550186 -0.0610240631 0.0362343502
v -0.0144881849 -0.0611572342 0.0364587831
v -0.0143565063 -0.0610255508 0.0380611682
v -0.0143189125 -0.060987957 0.0319689107
v -0.0142576056 -0.0609266548 0.0339819002
v -0.0143252926 -0.0609943371 0.0361743045
v -0.0142816954 -0.0609507446 0.0380000854
v -0.0142357855 -0.0616119366 0.0317782331
v -0.014171279 -0.0615474396 0.033489387
v -0.0141346292 -0.0615107803 0.0335412169
v -0.0141527967 -0.0615289478 0.0364849234
v -0.0142483072 -0.0616244583 0.0366086936
v -0.0141568689 -0.06153302 0.0381720781
v -0.0141178827 -0.0614940338 0.0318542218
v -0.0140168839 -0.0613930397 0.0337361884
v -0.0140014677 -0.0613776188 0.0337656498
v -0.0140014677 -0.0613776188 0.0362343502
v -0.0141167908 -0.0614929466 0.0364321971
v -0.0140029554 -0.0613791065 0.0380611682
v -0.0142448645 -0.0609139137 0.0320318317
v -0.0141700535 -0.060839098 0.034247427
v -0.0141155319 -0.0607845764 0.0344919634
v -0.0140824919 -0.0607515411 0.0347440743
v -0.0141094856 -0.0607785301 0.0354723978
v -0.0141609745 -0.0608300285 0.0357182431
v -0.0142452412 -0.0609142857 0.0359858894
v -0.014101656 -0.0607707005 0.0378315592
v -0.0140669327 -0.0607359772 0.0322047758
v -0.0140716534 -0.0607406979 0.0349633503
v -0.0140714245 -0.060740469 0.035
v -0.0140326624 -0.0607017117 0.037758038
v -0.0139653568 -0.0613415127 0.0319689107
v -0.0138913136 -0.0612674694 0.0320318317
v -0.0139040499 -0.0612802105 0.0339819002
v -0.0138797169 -0.0612558727 0.0340466189
v -0.0138916855 -0.0612678413 0.0359858894
v -0.0139864187 -0.0613625698 0.0362045097
v -0.0138913136 -0.0612674694 0.0379681683
v -0.0139281397 -0.0613043003 0.0380000854
v -0.0138548832 -0.061231039 0.0320646524
v -0.0138164978 -0.0611926537 0.034247427
v -0.013761981 -0.0611381321 0.0344919634
v -0.0137503223 -0.0611264782 0.0345633864
v -0.0137559299 -0.0611320858 0.0354723978
v -0.0138074236 -0.0611835747 0.0357182431
v -0.0138681536 -0.0612443047 0.0359205794
v -0.013783267 -0.0611594181 0.0378670311
v -0.0139988594 -0.0606679039 0.0322799897
v -0.0138371592 -0.0605062084 0.0375176883
v -0.0138063507 -0.0604753952 0.0325251269
v -0.0137760763 -0.0604451256 0.0374313045
v -0.0137481003 -0.0611242561 0.0321684408
v -0.0136453085 -0.0610214596 0.0322799897
v -0.013728941 -0.0611050968 0.0347440743
v -0.0137180977 -0.0610942535 0.0349633503
v -0.0137178736 -0.0610940247 0.035
v -0.0137451534 -0.0611213093 0.0354006982
v -0.0136453085 -0.0610214596 0.0377200103
v -0.0136791115 -0.0610552673 0.037758038
v -0.0136119776 -0.0609881287 0.0323188448
v -0.0135149364 -0.0608910923 0.0375597382
v -0.0137463408 -0.06041539 0.0326130056
v -0.0136604862 -0.0603295307 0.0327502441
v -0.013606122 -0.0602751713 0.0371548152
v -0.0136885386 -0.0603575878 0.037296207
v -0.0135798292 -0.0602488785 0.0328936481
v -0.0135045843 -0.0601736336 0.0330428243
v -0.0135045843 -0.0601736336 0.0369571757
v -0.0135290508 -0.0601980953 0.0370075178
v -0.0134836035 -0.0608597546 0.0324823117
v -0.013452795 -0.0608289509 0.0325251269
v -0.0133927898 -0.0607689457 0.0373869944
v -0.0134836035 -0.0608597546 0.0375176883
v -0.0133636074 -0.0607397633 0.0326580429
v -0.0133069305 -0.0606830864 0.0327502441
v -0.0132525663 -0.060628727 0.0371548152
v -0.0133349829 -0.0607111435 0.037296207
v -0.0134807472 -0.0601497917 0.0330937624
v -0.0134130459 -0.0600820904 0.0332500005
v -0.0133319454 -0.0600009995 0.0365342999
v -0.0134349661 -0.0601040154 0.0368026328
v -0.0133133535 -0.0599824028 0.0335208368
v -0.0132616882 -0.0599307327 0.0363111234
v -0.0132262735 -0.0606024246 0.0328936481
v -0.0131510334 -0.0605271893 0.0330428243
v -0.0131271915 -0.0605033474 0.0369062376
v -0.0131754999 -0.060551651 0.0370075178
v -0.0131039839 -0.060480135 0.0331452823
v -0.0130594902 -0.0604356461 0.0332500005
v -0.0130176144 -0.0603937702 0.0366431499
v -0.0130814152 -0.060457571 0.0368026328
v -0.0132458572 -0.0599149017 0.0337457132
v -0.0132307272 -0.0598997765 0.0338029289
v -0.01317735 -0.0598463993 0.0340352702
v -0.0131355553 -0.0598046093 0.0342723083
v -0.0131055622 -0.0597746067 0.0345128942
v -0.0130875044 -0.0597565536 0.0347558522
v -0.0130814772 -0.0597505264 0.035
v -0.0130908947 -0.0597599392 0.0353050447
v -0.0131119471 -0.0597809963 0.0355475211
v -0.013144906 -0.0598139553 0.0357873297
v -0.0131896143 -0.0598586636 0.0360233021
v -0.0132458572 -0.0599149017 0.0362542868
v -0.0129976683 -0.0603738194 0.0334110332
v -0.0129597979 -0.0603359489 0.0335208368
v -0.0128771763 -0.0602533321 0.0338029289
v -0.0128771763 -0.0602533321 0.0361970711
v -0.0128923016 -0.0602684574 0.0362542868
v -0.0129783945 -0.0603545456 0.0365342999
v -0.0128627567 -0.0602389126 0.0338605118
v -0.0128237944 -0.0601999454 0.0340352702
v -0.0127820044 -0.0601581554 0.0342723083
v -0.0127520065 -0.0601281624 0.0345128942
v -0.0127520065 -0.0601281624 0.0354871058
v -0.0127583914 -0.0601345425 0.0355475211
v -0.0127913551 -0.060167511 0.0357873297
v -0.0128360634 -0.0602122192 0.0360233021
v -0.0127463703 -0.0601225262 0.0345734572
v -0.0127339487 -0.0601101093 0.0347558522
v -0.0127279215 -0.0601040726 0.035
v -0.012737339 -0.0601134949 0.0353050447
f 1 19 2
f 66 1 2
f 10 19 1
f 66 10 1
f 2 20 3
f 67 2 3
f 2 19 20
f 66 2 67
f 3 21 4
f 67 3 4
f 3 20 21
f 4 22 5
f 68 4 5
f 4 21 22
f 67 4 68
f 5 23 6
f 69 5 6
f 5 22 23
f 68 5 69
f 6 24 11
f 69 6 11
f 6 23 24
f 7 25 8
f 80 7 8
f 16 42 7
f 80 16 7
f 7 42 25
f 8 26 9
f 81 8 9
f 8 25 26
f 80 8 81
f 9 27 10
f 66 9 10
f 9 26 27
f 81 9 66
f 10 28 19
f 10 27 28
f 11 29 12
f 69 11 12
f 11 24 29
f 12 30 13
f 82 12 13
f 12 29 30
f 69 12 82
f 13 31 14
f 83 13 14
f 13 30 31
f 82 13 83
f 14 43 17
f 83 14 17
f 14 31 32
f 14 32 43
f 15 41 16
f 80 15 16
f 35 41 15
f 80 35 15
f 16 41 42
f 17 43 18
f 83 17 18
f 18 44 36
f 83 18 36
f 18 43 44
f 19 93 20
f 28 93 19
f 20 94 21
f 20 93 94
f 21 94 22
f 22 95 23
f 22 94 95
f 23 96 24
f 23 95 96
f 24 96 29
f 25 101 26
f 42 101 25
f 26 102 27
f 26 101 102
f 27 93 28
f 27 92 93
f 27 102 92
f 29 96 30
f 30 103 31
f 30 96 97
f 30 97 103
f 31 104 32
f 31 103 104
f 32 104 43
f 33 57 34
f 88 33 34
f 39 57 33
f 88 39 33
f 34 45 35
f 88 34 35
f 34 57 45
f 35 46 41
f 35 45 46
f 79 35 80
f 88 35 79
f 36 47 37
f 89 36 37
f 36 44 47
f 83 36 84
f 84 36 89
f 37 48 38
f 89 37 38
f 37 47 48
f 38 58 40
f 89 38 40
f 38 48 58
f 50 57 39
f 39 338 50
f 109 39 88
f 108 39 109
f 114 39 108
f 130 39 114
f 129 39 130
f 136 39 129
f 150 39 136
f 154 39 150
f 166 39 154
f 170 39 166
f 184 39 170
f 188 39 184
f 188 341 39
f 39 341 338
f 40 58 51
f 110 40 51
f 89 40 110
f 41 101 42
f 46 100 41
f 41 100 101
f 43 104 44
f 44 105 47
f 44 104 105
f 45 119 46
f 57 119 45
f 46 119 100
f 47 120 48
f 47 105 120
f 48 120 58
f 49 59 50
f 50 338 49
f 54 72 49
f 49 325 54
f 49 72 59
f 49 337 325
f 49 338 337
f 50 60 57
f 50 59 60
f 51 61 52
f 110 51 52
f 51 58 61
f 52 73 55
f 110 52 55
f 52 61 62
f 52 62 73
f 53 71 54
f 54 325 53
f 63 71 53
f 53 323 63
f 53 325 323
f 54 71 72
f 55 73 56
f 111 55 56
f 110 55 111
f 56 74 64
f 115 56 64
f 56 73 74
f 111 56 115
f 60 124 57
f 57 118 119
f 57 124 118
f 58 351 61
f 58 120 121
f 58 121 125
f 125 141 58
f 141 146 58
f 58 146 147
f 147 159 58
f 159 163 58
f 58 163 176
f 176 177 58
f 58 177 181
f 181 193 58
f 58 193 197
f 58 197 209
f 58 209 362
f 58 362 351
f 59 124 60
f 72 124 59
f 61 351 62
f 62 347 73
f 62 352 347
f 62 351 352
f 65 91 63
f 63 323 65
f 63 75 71
f 63 91 75
f 64 76 70
f 131 64 70
f 64 74 76
f 115 64 131
f 78 99 65
f 65 295 78
f 65 99 91
f 65 303 295
f 65 323 303
f 67 94 66
f 66 93 81
f 66 94 93
f 68 95 67
f 67 95 94
f 69 96 68
f 68 96 95
f 82 97 69
f 69 97 96
f 70 76 98
f 70 98 85
f 131 70 85
f 71 140 72
f 75 140 71
f 72 140 124
f 73 347 74
f 74 336 76
f 74 348 336
f 74 347 348
f 91 145 75
f 75 145 140
f 76 333 98
f 76 336 333
f 77 117 78
f 78 295 77
f 87 117 77
f 77 279 87
f 77 295 279
f 78 117 99
f 80 101 79
f 79 119 88
f 79 101 100
f 79 100 119
f 81 102 80
f 80 102 101
f 81 93 92
f 81 92 102
f 83 104 82
f 82 103 97
f 82 104 103
f 84 105 83
f 83 105 104
f 89 120 84
f 84 120 105
f 85 106 86
f 137 85 86
f 85 98 106
f 131 85 132
f 132 85 137
f 86 122 90
f 137 86 90
f 86 106 122
f 107 123 87
f 87 273 107
f 87 123 117
f 87 279 273
f 88 119 109
f 110 121 89
f 89 121 120
f 90 122 112
f 137 90 112
f 99 145 91
f 98 334 106
f 98 333 334
f 117 158 99
f 99 144 145
f 99 158 144
f 106 313 122
f 106 322 313
f 106 334 322
f 113 139 107
f 107 257 113
f 107 139 123
f 107 273 257
f 109 124 108
f 108 140 114
f 108 124 140
f 109 119 118
f 109 118 124
f 111 141 110
f 110 125 121
f 110 141 125
f 115 141 111
f 112 142 116
f 151 112 116
f 112 122 126
f 112 126 142
f 137 112 151
f 128 139 113
f 113 250 128
f 113 257 250
f 114 140 130
f 131 141 115
f 116 142 133
f 151 116 133
f 123 158 117
f 122 294 126
f 122 314 294
f 122 313 314
f 139 162 123
f 123 162 158
f 126 294 142
f 127 143 128
f 128 250 127
f 135 157 127
f 127 237 135
f 127 157 143
f 127 249 237
f 127 250 249
f 128 143 139
f 130 145 129
f 129 158 136
f 129 145 144
f 129 144 158
f 130 140 145
f 132 147 131
f 131 146 141
f 131 147 146
f 137 159 132
f 132 159 147
f 133 142 134
f 151 133 134
f 134 148 138
f 155 134 138
f 134 142 148
f 151 134 155
f 149 157 135
f 135 233 149
f 135 237 233
f 136 158 150
f 151 159 137
f 138 148 160
f 138 160 152
f 167 138 152
f 155 138 167
f 143 175 139
f 139 175 162
f 142 271 148
f 142 288 271
f 142 294 288
f 157 175 143
f 148 266 160
f 148 272 266
f 148 271 272
f 153 173 149
f 149 233 153
f 149 161 157
f 149 173 161
f 150 175 154
f 150 158 162
f 150 162 175
f 155 176 151
f 151 163 159
f 151 176 163
f 152 164 156
f 167 152 156
f 152 160 164
f 165 173 153
f 153 215 165
f 153 221 215
f 153 233 221
f 154 175 166
f 167 177 155
f 155 177 176
f 156 164 178
f 167 156 171
f 171 156 168
f 156 178 168
f 161 180 157
f 157 174 175
f 157 180 174
f 160 248 164
f 160 266 248
f 173 180 161
f 164 244 178
f 164 248 244
f 169 191 165
f 165 203 169
f 165 179 173
f 165 191 179
f 165 215 203
f 166 192 170
f 166 175 174
f 166 174 180
f 166 180 192
f 171 193 167
f 167 181 177
f 167 193 181
f 171 168 185
f 168 182 172
f 185 168 172
f 168 178 182
f 183 191 169
f 169 199 183
f 169 203 199
f 170 192 184
f 185 193 171
f 172 182 194
f 185 172 186
f 172 194 186
f 179 192 173
f 173 192 180
f 178 232 182
f 178 244 232
f 191 196 179
f 179 196 192
f 182 228 194
f 182 232 228
f 183 199 187
f 187 207 183
f 183 195 191
f 183 207 195
f 184 208 188
f 184 192 196
f 184 196 208
f 185 186 189
f 189 209 185
f 185 197 193
f 185 209 197
f 189 186 190
f 186 210 190
f 186 194 198
f 186 198 210
f 199 211 187
f 187 211 207
f 188 208 200
f 200 341 188
f 190 202 189
f 201 209 189
f 201 189 344
f 189 202 206
f 206 220 189
f 189 220 224
f 189 224 236
f 189 236 240
f 240 256 189
f 189 256 255
f 189 255 262
f 262 278 189
f 189 278 282
f 282 302 189
f 189 302 306
f 189 306 324
f 189 324 326
f 326 340 189
f 340 339 189
f 339 344 189
f 190 210 202
f 195 196 191
f 194 214 198
f 194 228 214
f 195 208 196
f 207 208 195
f 198 214 210
f 203 225 199
f 199 225 211
f 200 226 204
f 204 341 200
f 200 208 212
f 200 212 226
f 205 227 201
f 205 201 344
f 201 213 209
f 201 227 213
f 202 228 206
f 202 210 214
f 202 214 228
f 215 229 203
f 203 229 225
f 204 226 216
f 216 341 204
f 219 227 205
f 219 205 344
f 206 228 220
f 211 208 207
f 225 208 211
f 359 212 208
f 229 208 225
f 241 208 229
f 245 208 241
f 263 208 245
f 267 208 263
f 268 208 267
f 283 208 268
f 289 208 283
f 307 208 289
f 308 208 307
f 315 208 308
f 327 208 315
f 328 208 327
f 335 208 328
f 345 208 335
f 346 208 345
f 349 208 346
f 350 208 349
f 359 208 350
f 362 209 213
f 226 212 359
f 362 213 227
f 221 241 215
f 215 241 229
f 216 230 217
f 217 341 216
f 216 226 230
f 217 242 222
f 222 342 217
f 217 230 242
f 217 342 341
f 218 243 219
f 344 218 219
f 223 243 218
f 223 218 344
f 219 231 227
f 219 243 231
f 220 244 224
f 220 228 232
f 220 232 244
f 233 241 221
f 222 242 234
f 234 353 222
f 222 353 342
f 235 247 223
f 343 235 223
f 223 247 243
f 343 223 344
f 224 244 236
f 359 230 226
f 362 227 231
f 359 242 230
f 362 231 243
f 237 263 233
f 233 245 241
f 233 263 245
f 234 264 238
f 238 353 234
f 234 242 246
f 234 246 264
f 239 265 235
f 356 239 235
f 235 265 247
f 356 235 343
f 236 266 240
f 236 244 248
f 236 248 266
f 249 267 237
f 237 267 263
f 238 264 251
f 251 354 238
f 238 354 353
f 254 265 239
f 356 254 239
f 240 266 256
f 246 242 359
f 361 243 247
f 362 243 361
f 264 246 363
f 360 246 359
f 363 246 360
f 366 247 265
f 361 247 366
f 250 268 249
f 249 268 267
f 257 283 250
f 250 283 268
f 251 264 252
f 252 354 251
f 252 284 258
f 258 354 252
f 252 264 269
f 252 269 284
f 253 270 254
f 253 254 355
f 261 287 253
f 355 261 253
f 253 287 270
f 254 270 265
f 355 254 356
f 256 272 255
f 255 288 262
f 255 272 271
f 255 271 288
f 256 266 272
f 273 289 257
f 257 289 283
f 258 284 259
f 259 357 258
f 258 357 354
f 259 285 274
f 274 357 259
f 259 284 285
f 260 286 261
f 355 260 261
f 277 286 260
f 358 277 260
f 358 260 355
f 261 286 287
f 262 288 278
f 364 269 264
f 364 264 363
f 365 265 270
f 366 265 365
f 379 284 269
f 379 269 364
f 365 270 287
f 279 307 273
f 273 307 289
f 274 290 275
f 275 367 274
f 274 285 290
f 274 367 357
f 275 309 280
f 280 368 275
f 275 290 291
f 275 291 309
f 275 368 367
f 276 292 277
f 378 276 277
f 281 312 276
f 377 281 276
f 276 312 292
f 377 276 378
f 277 293 286
f 277 292 293
f 378 277 358
f 278 294 282
f 278 288 294
f 295 308 279
f 279 308 307
f 280 309 296
f 296 369 280
f 280 369 368
f 301 311 281
f 377 301 281
f 281 311 312
f 282 294 314
f 282 314 302
f 380 285 284
f 380 284 379
f 380 290 285
f 384 287 286
f 383 286 293
f 384 286 383
f 365 287 384
f 380 291 290
f 381 309 291
f 381 291 380
f 383 293 292
f 383 292 312
f 303 327 295
f 295 315 308
f 295 327 315
f 296 316 297
f 297 370 296
f 296 309 310
f 296 310 316
f 296 370 369
f 297 317 298
f 298 371 297
f 297 316 317
f 297 371 370
f 298 329 304
f 304 372 298
f 298 317 318
f 298 318 329
f 298 372 371
f 299 319 300
f 374 299 300
f 305 331 299
f 373 305 299
f 299 332 319
f 299 331 332
f 373 299 374
f 300 320 301
f 375 300 301
f 300 319 320
f 374 300 375
f 301 321 311
f 301 320 321
f 375 301 376
f 376 301 377
f 302 334 306
f 302 314 313
f 302 313 322
f 302 322 334
f 323 328 303
f 303 328 327
f 304 330 305
f 305 373 304
f 304 329 330
f 304 373 372
f 305 330 331
f 306 334 324
f 386 310 309
f 385 309 381
f 386 309 385
f 386 316 310
f 392 312 311
f 391 311 321
f 392 311 391
f 383 312 382
f 382 312 392
f 387 317 316
f 387 316 386
f 388 318 317
f 388 317 387
f 393 329 318
f 393 318 388
f 389 320 319
f 396 319 332
f 389 319 396
f 390 321 320
f 390 320 389
f 391 321 390
f 325 346 323
f 323 335 328
f 323 345 335
f 323 346 345
f 324 348 326
f 324 334 333
f 324 333 336
f 324 336 348
f 337 346 325
f 326 347 340
f 326 348 347
f 394 330 329
f 394 329 393
f 395 331 330
f 395 330 394
f 395 332 331
f 396 332 395
f 338 350 337
f 337 349 346
f 337 350 349
f 341 359 338
f 338 359 350
f 340 352 339
f 339 351 344
f 339 352 351
f 340 347 352
f 342 360 341
f 341 360 359
f 353 360 342
f 344 362 343
f 343 361 356
f 343 362 361
f 344 351 362
f 354 364 353
f 353 363 360
f 353 364 363
f 357 380 354
f 354 379 364
f 354 380 379
f 356 366 355
f 355 384 358
f 355 366 365
f 355 365 384
f 356 361 366
f 367 380 357
f 358 383 378
f 358 384 383
f 368 381 367
f 367 381 380
f 369 386 368
f 368 385 381
f 368 386 385
f 370 387 369
f 369 387 386
f 371 388 370
f 370 388 387
f 372 394 371
f 371 393 388
f 371 394 393
f 373 395 372
f 372 395 394
f 374 396 373
f 373 396 395
f 375 390 374
f 374 390 389
f 374 389 396
f 376 391 375
f 375 391 390
f 377 392 376
f 376 392 391
f 378 383 377
f 377 383 382
f 377 382 392
