v -0.0302506142 0.02532798 -0.000365848541
v -0.0302581434 0.0253204555 -0.000244147778
v -0.0302641707 0.0253144188 0
v -0.0302547531 0.0253238411 0.000305044651
v -0.0300839596 0.0254946346 -0.00131112337
v -0.0301149159 0.0254636784 -0.00119707108
v -0.0301682978 0.0254102917 -0.000964729786
v -0.0302100878 0.0253685017 -0.00072769165
v -0.0302400856 0.0253385086 -0.000487105846
v -0.0302457218 0.0253328724 0.000426542759
v -0.0302337008 0.0253448887 0.000547521114
v -0.030200737 0.0253778572 0.000787329674
v -0.0301560288 0.0254225655 0.00102330208
v -0.0300997906 0.0254788036 0.00125428677
v -0.0300136976 0.0255648918 -0.00153429985
v -0.0300322943 0.0255462952 -0.00147916317
v -0.0300674276 0.0255111618 0.00136755943
v -0.0300136976 0.0255648918 0.00153429985
v -0.0298410587 0.0257375355 -0.00195717573
v -0.0299326019 0.0256459923 -0.00174999952
v -0.0299944239 0.0255841656 0.00158896685
v -0.029910677 0.0256679172 0.00180263281
v -0.0297658186 0.0258127708 -0.00210635185
v -0.0298165922 0.0257619972 0.00200751781
v -0.0296981077 0.0247491188 -6.108284e-05
v -0.0296981077 0.0247491188 6.108284e-05
v -0.0295341044 0.0249131222 -0.00125428677
v -0.0295903425 0.0248568745 -0.00102330208
v -0.0296350556 0.0248121662 -0.000787329674
v -0.0296680145 0.0247792072 -0.000547521114
v -0.0296890669 0.0247581596 -0.000305044651
v -0.0296969776 0.0247502441 -0.000122148991
v -0.0296924572 0.0247547645 0.000244147778
v -0.0296743994 0.0247728271 0.000487105846
v -0.0296444016 0.0248028202 0.00072769165
v -0.0296026116 0.0248446102 0.000964729786
v -0.0295492296 0.0248979874 0.00119707108
v -0.0295017462 0.0249454803 0.00136755943
v -0.0295993023 0.0259792919 -0.00238699436
v -0.0296851616 0.0258934326 -0.00224975586
v -0.0297395258 0.0258390732 0.0021548152
v -0.0296571093 0.0259214897 0.00229620695
v -0.0295084887 0.0260701008 -0.00251768827
v -0.0295392971 0.0260392971 -0.00247487307
v -0.0295695715 0.0260090179 0.00243130445
v -0.0295084887 0.0260701008 0.00251768827
v -0.0294480114 0.0249992103 -0.00153429985
v -0.0294845228 0.0249627037 -0.00142357826
v -0.0294666081 0.0249806137 0.00147916317
v -0.0294480114 0.0249992103 0.00153429985
v -0.0292509108 0.0251963158 -0.00200751781
v -0.0293449907 0.0251022262 -0.00180263281
v -0.0294287377 0.0250184841 -0.00158896685
v -0.0293669157 0.0250803108 0.00174999952
v -0.0292753725 0.0251718445 0.00195717573
v -0.0292509108 0.0251963158 0.00200751781
v -0.0293467836 0.0262318058 -0.00272001028
v -0.0294771557 0.0261014385 0.00255973816
v -0.0292787104 0.0262998791 -0.00279522419
v -0.0292631512 0.026315443 -0.000255925655
v -0.0292739945 0.0263045998 -3.6649704e-05
v -0.0292742186 0.0263043709 0
v -0.0292516594 0.0263269348 0.000364661217
v -0.0293129807 0.0262656135 0.00275803804
v -0.0292258244 0.0252213974 -0.00205724955
v -0.0292001324 0.0252470894 0.00210635185
v -0.029091423 0.0253557987 -0.00229620695
v -0.0291738396 0.0252733822 -0.0021548152
v -0.0291194754 0.0253277511 0.00224975586
v -0.0290038853 0.0254433365 0.00243130445
v -0.0291007786 0.0264778156 -0.00296816826
v -0.0290880423 0.0264905567 -0.00101809978
v -0.0291755943 0.0264029999 -0.000752573013
v -0.0292301111 0.0263484783 -0.000508036613
v -0.0292469387 0.0263316555 -0.000400698185
v -0.0292361622 0.026342432 0.000472397804
v -0.0291846686 0.0263939209 0.000718243122
v -0.0291004067 0.0264781876 0.000985889435
v -0.0290880423 0.0264905567 0.00101809978
v -0.0292439919 0.0263346023 0.00283155918
v -0.0290267353 0.0265518589 -0.00303108931
v -0.0290752773 0.0265033169 -0.00105000019
v -0.0290056734 0.026572916 0.00120450974
v -0.0290639525 0.0265146465 0.00300008535
v -0.0289736109 0.0254736156 -0.00247487307
v -0.0289736109 0.0254736156 0.00247487307
v -0.0289428024 0.0255044193 -0.00251768827
v -0.0287810974 0.0256661243 0.00272001028
v -0.0288352232 0.0267433662 -0.00317207813
v -0.0289752083 0.0266033859 -0.00126381159
v -0.0289906244 0.026587965 -0.0012343502
v -0.0289906244 0.026587965 0.0012343502
v -0.0288392954 0.026739294 0.00148492336
v -0.0289891415 0.0265894527 0.00306116819
v -0.0287563067 0.0268222828 -0.00322176695
v -0.0288208132 0.0267577858 -0.00151061296
v -0.0287634926 0.0268151016 0.00158488989
v -0.0287959175 0.0267826767 0.00319741011
v -0.0287472944 0.0256999226 -0.00275803804
v -0.028697465 0.025749752 -0.000255925655
v -0.0287004023 0.0257468243 -0.000219509602
v -0.0287085371 0.0257386894 0
v -0.028697465 0.025749752 0.000255925655
v -0.0287130289 0.0257341976 0.00279522419
v -0.0286783056 0.0257689209 -0.00283155918
v -0.0285095911 0.0259376259 -0.00105000019
v -0.0285347204 0.0259124966 -0.000985889435
v -0.0286189823 0.0258282394 -0.000718243122
v -0.028670476 0.025776741 -0.000472397804
v -0.0286940842 0.0257531376 0.000292263031
v -0.0286644249 0.0257827968 0.000508036613
v -0.0286099081 0.0258373184 0.000752573013
v -0.028522356 0.0259248657 0.00101809978
v -0.0285350924 0.0259121246 0.00296816826
v -0.0285950356 0.0269835586 -0.00330931425
v -0.0287164002 0.0268621941 -0.00324514389
v -0.0285980444 0.026980545 -0.00176120758
v -0.0287437897 0.0268348045 -0.0016086936
v -0.0286196547 0.0269589348 0.00174097776
v -0.0285980444 0.026980545 0.00176120758
v -0.0287164002 0.0268621941 0.00324514389
v -0.0286762123 0.0269023819 0.00326753139
v -0.0285128813 0.0270657177 -0.00334706783
v -0.0285761862 0.0270024032 -0.00178090096
v -0.0285092001 0.0270693893 0.00183670044
v -0.0285540753 0.027024519 0.00332869768
v -0.0284982662 0.0259489555 -0.00300008535
v -0.028454669 0.0259925575 -0.00117430449
v -0.0284964399 0.0259507866 0.00108158112
v -0.0284610491 0.0259861774 0.00303108931
v -0.0284234552 0.0260237713 -0.00306116819
v -0.028255127 0.0261920948 -0.00151061296
v -0.0282736092 0.0261736126 -0.00148492336
v -0.0284249382 0.0260222835 -0.0012343502
v -0.028439992 0.0260072346 0.00120450974
v -0.0284095221 0.0260376949 0.00126381159
v -0.028255127 0.0261920948 0.00151061296
v -0.028269537 0.0261776848 0.00317207813
v -0.0283460217 0.0272325725 -0.00341029406
v -0.0284864264 0.0270921631 -0.00185419083
v -0.0283455591 0.0272330303 0.00194708586
v -0.0284714632 0.0271071262 0.00336441517
v -0.0282615261 0.0273170681 -0.00343569517
v -0.0283214455 0.0272571487 -0.00196051836
v -0.0282727413 0.0273058529 0.00198558807
v -0.0283038502 0.027274744 0.00342351675
v -0.0282302313 0.0262169857 -0.00319741011
v -0.0281978111 0.0262494106 -0.00158488989
v -0.0282363253 0.0262108917 0.00153584242
v -0.0282302313 0.0262169857 0.00319741011
v -0.0281105261 0.0263366909 -0.00326753139
v -0.0281906204 0.0262566013 -0.00322176695
v -0.0280105 0.0264367218 -0.00178090096
v -0.0280539684 0.0263932533 -0.00174097776
v -0.0281781035 0.0262691231 0.0016086936
v -0.0280323582 0.0264148636 0.00176120758
v -0.0281507139 0.0262965031 0.00324514389
v -0.0280293493 0.0264178677 0.00330931425
v -0.028090909 0.02748769 -0.00347391129
v -0.0282234459 0.0273551483 -0.00200824022
v -0.0282481651 0.0273304291 -0.00199721813
v -0.0282481651 0.0273304291 0.00199721813
v -0.0280980282 0.027480566 0.00205410957
v -0.0282190542 0.0273595352 0.00344682693
v -0.0280049973 0.0275735969 -0.00348668098
v -0.0280726318 0.0275059624 -0.0020614171
v -0.0280215912 0.027557003 0.00207414627
v -0.0280479889 0.0275306053 0.00348082781
v -0.027988389 0.0264588375 -0.00332869768
v -0.027966073 0.0264811535 -0.00181865454
v -0.0279884033 0.0264588184 0.00180005074
v -0.027988389 0.0264588375 0.00332869768
v -0.0279471951 0.0265000267 -0.00334706783
v -0.0277557592 0.0266914577 -0.00196051836
v -0.0279435186 0.0265037079 0.00183670044
v -0.0277803354 0.0266668816 0.00341029406
v -0.0278324871 0.0277461071 -0.00349946737
v -0.0279959564 0.0275826378 -0.00207956314
v -0.0278411179 0.0277374763 0.00209872007
v -0.0279619341 0.0276166553 0.0034914732
v -0.0277892952 0.027789299 -0.00349999905
v -0.0278152113 0.0277633781 -0.0020996809
v -0.0277633791 0.0278152103 0.0020996809
v -0.0277892952 0.027789299 0.00349999905
v -0.027738164 0.026709053 -0.00342351675
v -0.0277070551 0.0267401714 -0.00198558807
v -0.0277314835 0.0267157383 0.00197335482
v -0.027738164 0.026709053 0.00342351675
v -0.0276958399 0.0267513866 -0.00343569517
v -0.0275069456 0.0269402714 -0.0020614171
v -0.0276824789 0.0267647476 -0.00199721813
v -0.0276824789 0.0267647476 0.00199721813
v -0.0276577597 0.0267894573 0.00200824022
v -0.0275252228 0.026921999 0.00347391129
v -0.0276166563 0.0279619331 -0.0034914732
v -0.0277374725 0.0278411217 -0.00209872007
v -0.027582634 0.0279959602 0.00207956314
v -0.0277461033 0.0278324909 0.00349946737
v -0.0275306015 0.0280479927 -0.00348082781
v -0.027557004 0.0280215855 -0.00207414627
v -0.0275059586 0.0280726356 0.0020614171
v -0.0275735979 0.0280049915 0.00348668098
v -0.0274823074 0.0269649143 -0.00348082781
v -0.027455905 0.0269913216 -0.00207414627
v -0.0274814634 0.0269657535 0.00206809521
v -0.0274823074 0.0269649143 0.00348082781
v -0.027439311 0.0270079155 -0.00348668098
v -0.0272754364 0.0271717853 -0.00209872007
v -0.0274302702 0.0270169468 0.00207956314
v -0.0272668057 0.0271804161 0.00349946737
v -0.0273595409 0.0282190533 -0.00344682693
v -0.0274805622 0.028098032 -0.00205410957
v -0.02733043 0.0282481594 -0.00199721813
v -0.02733043 0.0282481594 0.00199721813
v -0.0273551445 0.0282234497 0.00200824022
v -0.0274876862 0.028090908 0.00347391129
v -0.0272747402 0.028303854 -0.00342351675
v -0.0273058539 0.0282727451 -0.00198558807
v -0.0272571449 0.0283214493 0.00196051836
v -0.0273170691 0.0282615204 0.00343569517
v -0.027223609 0.027223608 -0.00349999905
v -0.0271976976 0.0272495289 -0.0020996809
v -0.0272495251 0.0271976967 0.0020996809
v -0.027223609 0.027223608 0.00349999905
v -0.0271804171 0.0272667999 -0.00349946737
v -0.0270169478 0.0274302692 -0.00207956314
v -0.0271717863 0.0272754307 0.00209872007
v -0.0270079117 0.0274393101 0.00348668098
v -0.0271071272 0.0284714622 -0.00336441517
v -0.0272330361 0.0283455582 -0.00194708586
v -0.0270921688 0.0284864254 0.00185419083
v -0.0272325688 0.0283460255 0.00341029406
v -0.0270245199 0.028554079 -0.00332869768
v -0.0270693903 0.0285091991 -0.00183670044
v -0.0270024042 0.0285761852 0.00178090096
v -0.0270657139 0.0285128803 0.00334706783
v -0.0269649153 0.0274823017 -0.00348082781
v -0.0269657545 0.0274814625 -0.00206809521
v -0.0269913178 0.027455904 0.00207414627
v -0.0269649153 0.0274823017 0.00348082781
v -0.0269219999 0.0275252266 -0.00347391129
v -0.0267894631 0.0276577587 -0.00200824022
v -0.0267647438 0.0276824779 -0.00199721813
v -0.0267647438 0.0276824779 0.00199721813
v -0.0269402723 0.0275069446 0.0020614171
v -0.0267513828 0.0276958389 0.00343569517
v -0.0269023829 0.0286762161 -0.00326753139
v -0.0268621903 0.028716404 -0.00324514389
v -0.0269805508 0.0285980434 -0.00176120758
v -0.0269589357 0.0286196537 -0.00174097776
v -0.0268348055 0.0287437839 0.0016086936
v -0.0269805508 0.0285980434 0.00176120758
v -0.0268621903 0.028716404 0.00324514389
v -0.0269835549 0.0285950394 0.00330931425
v -0.0267826729 0.0287959213 -0.00319741011
v -0.0268150978 0.0287634964 -0.00158488989
v -0.026757782 0.0288208122 0.00151061296
v -0.0268222885 0.0287563057 0.00322176695
v -0.026709054 0.027738163 -0.00342351675
v -0.0267157393 0.0277314873 -0.00197335482
v -0.0267401676 0.0277070541 0.00198558807
v -0.026709054 0.027738163 0.00342351675
v -0.0266668873 0.0277803345 -0.00341029406
v -0.0265037041 0.0279435177 -0.00183670044
v -0.0266914635 0.0277557583 0.00196051836
v -0.0265000277 0.0279471989 0.00334706783
v -0.0265894537 0.0289891357 -0.00306116819
v -0.026739295 0.0288392944 -0.00148492336
v -0.026587966 0.0289906235 -0.0012343502
v -0.026587966 0.0289906235 0.0012343502
v -0.0266033821 0.0289752121 0.00126381159
v -0.026743372 0.0288352222 0.00317207813
v -0.0265146427 0.0290639515 -0.00300008535
v -0.026572917 0.0290056724 -0.00120450974
v -0.0265033131 0.0290752811 0.00105000019
v -0.0265518599 0.0290267296 0.00303108931
v -0.0264588337 0.0279883881 -0.00332869768
v -0.0264588194 0.0279884071 -0.00180005074
v -0.0264811497 0.0279660721 0.00181865454
v -0.0264588337 0.0279883881 0.00332869768
v -0.0264178686 0.0280293484 -0.00330931425
v -0.0262965088 0.028150713 -0.00324514389
v -0.0264148646 0.028032362 -0.00176120758
v -0.0262691193 0.0281781025 -0.0016086936
v -0.0263932543 0.0280539722 0.00174097776
v -0.0264367228 0.0280105038 0.00178090096
v -0.0262566023 0.0281906242 0.00322176695
v -0.0263366966 0.0281105251 0.00326753139
v -0.0263346033 0.0292439861 -0.00283155918
v -0.0264905529 0.0290880413 -0.00101809978
v -0.0264781885 0.0291004105 -0.000985889435
v -0.0263939219 0.0291846676 -0.000718243122
v -0.026342433 0.029236166 -0.000472397804
v -0.0263316565 0.0292469425 0.000400698185
v -0.0263484793 0.0292301102 0.000508036613
v -0.0264030008 0.0291755886 0.000752573013
v -0.0264905529 0.0290880413 0.00101809978
v -0.0264778118 0.0291007824 0.00296816826
v -0.0262656098 0.0293129845 -0.00275803804
v -0.026326931 0.0292516632 -0.000364661217
v -0.0263125067 0.0292660828 -0.000219509602
v -0.0263043718 0.0292742176 0
v -0.0263154392 0.029263155 0.000255925655
v -0.02629988 0.0292787094 0.00279522419
v -0.0262169914 0.0282302303 -0.00319741011
v -0.0262108975 0.0282363243 -0.00153584242
v -0.0262494116 0.0281978054 0.00158488989
v -0.0262169914 0.0282302303 0.00319741011
v -0.0261776857 0.0282695408 -0.00317207813
v -0.0261920958 0.0282551308 -0.00151061296
v -0.0260376959 0.0284095211 -0.00126381159
v -0.0260072308 0.028439991 -0.00120450974
v -0.0260222797 0.028424942 0.0012343502
v -0.0261736088 0.028273613 0.00148492336
v -0.0261920958 0.0282551308 0.00151061296
v -0.0260237675 0.0284234543 0.00306116819
v -0.0261014347 0.0294771595 -0.00255973816
v -0.0262318068 0.0293467827 0.00272001028
v -0.0260701065 0.0295084877 -0.00251768827
v -0.0260090237 0.0295695705 -0.00243130445
v -0.0260392981 0.0295393009 0.00247487307
v -0.0260701065 0.0295084877 0.00251768827
v -0.0259861736 0.0284610481 -0.00303108931
v -0.0259507828 0.028496439 -0.00108158112
v -0.0259925537 0.028454668 0.00117430449
v -0.0259489565 0.02849827 0.00300008535
v -0.0259121256 0.0285350914 -0.00296816826
v -0.0259248667 0.0285223598 -0.00101809978
v -0.0258373146 0.0286099071 -0.000752573013
v -0.0257827931 0.0286644287 -0.000508036613
v -0.0257531386 0.028694088 -0.000292263031
v -0.0257767468 0.028670475 0.000472397804
v -0.0258282404 0.0286189861 0.000718243122
v -0.0259125023 0.0285347195 0.000985889435
v -0.0259376268 0.0285095901 0.00105000019
v -0.0257689171 0.0286783047 0.00283155918
v -0.0259214859 0.0296571083 -0.00229620695
v -0.0258390694 0.0297395248 -0.0021548152
v -0.0258934336 0.0296851559 0.00224975586
v -0.0259792881 0.0295993061 0.00238699436
v -0.0257619982 0.0298165913 -0.00200751781
v -0.0258127766 0.0297658176 0.00210635185
v -0.0257341938 0.0287130279 -0.00279522419
v -0.025749753 0.028697464 -0.000255925655
v -0.0257389145 0.0287083073 -3.6649704e-05
v -0.0257468205 0.0287004013 0.000219509602
v -0.025749753 0.028697464 0.000255925655
v -0.0256999283 0.0287472935 0.00275803804
v -0.0256661205 0.0287811012 -0.00272001028
v -0.0255044203 0.0289428062 0.00251768827
v -0.0256679134 0.0299106808 -0.00180263281
v -0.0255841665 0.0299944229 -0.00158896685
v -0.0256459932 0.0299325962 0.00174999952
v -0.0257375317 0.0298410625 0.00195717573
v -0.0255648928 0.0300136967 -0.00153429985
v -0.0255111628 0.0300674267 -0.00136755943
v -0.0255463009 0.0300322933 0.00147916317
v -0.0255648928 0.0300136967 0.00153429985
v -0.0254736118 0.0289736099 -0.00247487307
v -0.0254736118 0.0289736099 0.00247487307
v -0.0254433375 0.0290038891 -0.00243130445
v -0.0253277474 0.0291194744 -0.00224975586
v -0.0252733832 0.0291738338 0.0021548152
v -0.0253557997 0.0290914173 0.00229620695
v -0.0254788046 0.0300997944 -0.00125428677
v -0.0254225617 0.0301560326 -0.00102330208
v -0.0253778534 0.0302007408 -0.000787329674
v -0.0253448944 0.0302336998 -0.000547521114
v -0.0253328686 0.0302457256 -0.000426542759
v -0.0253385096 0.0302400894 0.000487105846
v -0.0253685026 0.0302100868 0.00072769165
v -0.0254102974 0.0301682968 0.000964729786
v -0.0254636746 0.0301149197 0.00119707108
v -0.0254946356 0.0300839634 0.00131112337
v -0.0253238421 0.0302547569 -0.000305044651
v -0.0253148012 0.0302637978 -6.108284e-05
v -0.0253144245 0.0302641697 0
v -0.025327981 0.0302506084 0.000365848541
v -0.0252470903 0.0292001362 -0.00210635185
v -0.0252213984 0.0292258282 0.00205724955
v -0.025196312 0.0292509098 -0.00200751781
v -0.0251718454 0.0292753715 -0.00195717573
v -0.025080307 0.0293669147 -0.00174999952
v -0.0250184803 0.0294287414 0.00158896685
v -0.025102232 0.0293449898 0.00180263281
v -0.025196312 0.0292509098 0.00200751781
v -0.0249992113 0.0294480152 -0.00153429985
v -0.0249806147 0.0294666119 -0.00147916317
v -0.0249626999 0.0294845219 0.00142357826
v -0.0249992113 0.0294480152 0.00153429985
v -0.0249454765 0.0295017452 -0.00136755943
v -0.0248979883 0.0295492287 -0.00119707108
v -0.0248446112 0.0296026153 -0.000964729786
v -0.0248028212 0.0296444054 -0.00072769165
v -0.0247728233 0.0296743984 -0.000487105846
v -0.0247547655 0.0296924515 -0.000244147778
v -0.0247502451 0.0296969814 0.000122148991
v -0.0247581558 0.0296890659 0.000305044651
v -0.0247792082 0.0296680183 0.000547521114
v -0.0248121672 0.0296350498 0.000787329674
v -0.0248568754 0.0295903416 0.00102330208
v -0.0249131184 0.0295341034 0.00125428677
v -0.024749115 0.0296981068 -6.108284e-05
v -0.0247487383 0.0296984882 0
f 31 2 1
f 2 60 1
f 31 1 9
f 1 75 9
f 1 60 75
f 25 3 2
f 3 61 2
f 25 2 32
f 32 2 31
f 2 61 60
f 33 4 3
f 4 63 3
f 26 3 25
f 33 3 26
f 3 62 61
f 3 63 62
f 34 10 4
f 10 76 4
f 34 4 33
f 4 76 63
f 27 6 5
f 6 91 5
f 27 5 16
f 5 90 16
f 5 91 90
f 28 7 6
f 7 72 6
f 28 6 27
f 6 72 82
f 6 82 91
f 29 8 7
f 8 73 7
f 29 7 28
f 7 73 72
f 30 9 8
f 9 74 8
f 30 8 29
f 8 74 73
f 31 9 30
f 9 75 74
f 34 11 10
f 11 77 10
f 10 77 76
f 35 12 11
f 12 78 11
f 35 11 34
f 11 78 77
f 36 13 12
f 13 78 12
f 36 12 35
f 37 14 13
f 14 83 13
f 37 13 36
f 13 79 78
f 13 83 79
f 38 17 14
f 17 93 14
f 38 14 37
f 14 92 83
f 14 93 92
f 47 16 15
f 16 96 15
f 53 15 20
f 15 96 20
f 47 15 53
f 27 16 48
f 48 16 47
f 16 90 96
f 49 18 17
f 18 93 17
f 49 17 38
f 50 21 18
f 21 97 18
f 50 18 49
f 18 97 93
f 52 20 19
f 20 124 19
f 51 19 23
f 19 140 23
f 52 19 51
f 124 140 19
f 53 20 52
f 20 96 118
f 20 118 117
f 20 117 124
f 54 22 21
f 22 120 21
f 54 21 50
f 21 119 97
f 21 120 119
f 55 24 22
f 24 145 22
f 55 22 54
f 125 120 22
f 22 141 125
f 22 145 141
f 68 23 40
f 23 182 40
f 51 23 65
f 65 23 68
f 23 140 144
f 23 144 161
f 23 161 160
f 23 160 166
f 23 166 178
f 178 182 23
f 66 41 24
f 339 24 41
f 56 24 55
f 66 24 56
f 24 162 145
f 24 163 162
f 24 167 163
f 179 167 24
f 24 183 179
f 342 183 24
f 342 24 339
f 101 26 25
f 101 25 32
f 26 102 33
f 102 26 101
f 134 28 27
f 133 27 48
f 134 27 133
f 106 29 28
f 106 28 128
f 128 28 134
f 107 30 29
f 107 29 106
f 108 31 30
f 108 30 107
f 109 32 31
f 109 31 108
f 101 32 100
f 100 32 109
f 33 103 34
f 33 102 103
f 34 111 35
f 34 103 110
f 34 110 111
f 35 112 36
f 35 111 112
f 36 112 37
f 37 135 38
f 37 112 113
f 37 113 129
f 37 129 135
f 38 136 49
f 38 135 136
f 67 40 39
f 40 182 39
f 67 39 44
f 39 182 44
f 68 40 67
f 69 42 41
f 340 41 42
f 69 41 66
f 339 41 340
f 70 45 42
f 321 42 45
f 70 42 69
f 340 42 321
f 87 44 43
f 44 182 43
f 87 43 57
f 43 182 57
f 67 44 85
f 85 44 87
f 86 46 45
f 322 45 46
f 86 45 70
f 321 45 322
f 88 58 46
f 318 46 58
f 88 46 86
f 322 46 318
f 132 48 47
f 148 47 53
f 132 47 148
f 133 48 132
f 49 136 50
f 50 149 54
f 50 136 137
f 50 137 149
f 191 52 51
f 190 51 65
f 191 51 190
f 170 53 52
f 170 52 174
f 174 52 186
f 186 52 191
f 148 53 154
f 154 53 153
f 153 53 170
f 54 156 55
f 149 155 54
f 155 156 54
f 55 175 56
f 55 156 171
f 55 171 175
f 56 193 66
f 56 175 187
f 187 192 56
f 56 192 193
f 99 57 59
f 57 182 59
f 87 57 99
f 88 64 58
f 304 58 64
f 318 58 304
f 105 59 71
f 59 182 71
f 99 59 105
f 101 60 61
f 109 75 60
f 100 60 101
f 109 60 100
f 102 61 62
f 101 61 102
f 103 62 63
f 102 62 103
f 110 63 76
f 103 63 110
f 104 80 64
f 298 64 80
f 104 64 88
f 304 64 298
f 362 65 68
f 190 65 204
f 204 65 208
f 208 65 222
f 222 65 379
f 379 65 362
f 69 66 223
f 66 193 205
f 205 209 66
f 66 209 223
f 361 68 67
f 359 67 85
f 361 67 359
f 362 68 361
f 70 69 223
f 223 86 70
f 127 71 81
f 71 182 81
f 105 71 127
f 107 72 73
f 106 82 72
f 106 72 107
f 108 73 74
f 107 73 108
f 109 74 75
f 108 74 109
f 111 76 77
f 110 76 111
f 112 77 78
f 111 77 112
f 113 78 79
f 112 78 113
f 113 79 83
f 114 84 80
f 276 80 84
f 114 80 104
f 298 80 276
f 131 81 89
f 81 182 89
f 127 81 131
f 134 91 82
f 128 82 106
f 134 82 128
f 135 83 92
f 113 83 129
f 129 83 135
f 130 94 84
f 272 84 94
f 130 84 114
f 276 84 272
f 349 85 87
f 359 85 349
f 223 88 86
f 343 87 99
f 349 87 343
f 223 104 88
f 147 89 95
f 89 182 95
f 131 89 147
f 134 90 91
f 133 96 90
f 133 90 134
f 136 92 93
f 135 92 136
f 137 93 97
f 136 93 137
f 138 98 94
f 258 94 98
f 138 94 130
f 272 94 258
f 152 95 116
f 95 182 116
f 147 95 152
f 148 118 96
f 132 96 133
f 148 96 132
f 155 97 119
f 137 97 149
f 149 97 155
f 157 121 98
f 253 98 121
f 150 98 138
f 157 98 150
f 258 98 253
f 327 99 105
f 343 99 327
f 223 114 104
f 323 105 127
f 327 105 323
f 130 114 223
f 151 116 115
f 116 182 115
f 169 115 123
f 115 182 123
f 151 115 169
f 152 116 151
f 154 117 118
f 153 124 117
f 153 117 154
f 154 118 148
f 156 119 120
f 155 119 156
f 156 120 125
f 157 122 121
f 254 121 122
f 253 121 254
f 158 126 122
f 236 122 126
f 158 122 157
f 254 122 236
f 173 123 139
f 123 182 139
f 169 123 173
f 174 140 124
f 170 124 153
f 174 124 170
f 175 125 141
f 156 125 171
f 171 125 175
f 176 142 126
f 232 126 142
f 172 126 158
f 176 126 172
f 236 126 232
f 309 127 131
f 323 127 309
f 223 138 130
f 305 131 147
f 309 131 305
f 223 150 138
f 139 182 143
f 185 139 143
f 173 139 185
f 174 144 140
f 175 141 145
f 176 146 142
f 220 142 146
f 232 142 220
f 143 182 159
f 189 143 159
f 185 143 189
f 186 161 144
f 186 144 174
f 192 145 162
f 175 145 187
f 187 145 192
f 194 164 146
f 216 146 164
f 188 146 176
f 194 146 188
f 220 146 216
f 282 147 152
f 305 147 282
f 223 157 150
f 281 152 151
f 277 151 169
f 281 151 277
f 282 152 281
f 223 158 157
f 223 172 158
f 159 182 165
f 203 159 165
f 189 159 203
f 191 160 161
f 190 166 160
f 190 160 191
f 191 161 186
f 193 162 163
f 192 162 193
f 193 163 167
f 194 168 164
f 202 164 168
f 216 164 202
f 165 182 177
f 207 165 177
f 203 165 207
f 204 178 166
f 204 166 190
f 209 167 179
f 193 167 205
f 205 167 209
f 198 168 180
f 210 180 168
f 206 168 194
f 202 168 198
f 210 168 206
f 263 169 173
f 277 169 263
f 223 176 172
f 259 173 185
f 263 173 259
f 223 188 176
f 177 182 181
f 221 177 181
f 207 177 221
f 208 182 178
f 208 178 204
f 223 179 183
f 209 179 223
f 198 180 184
f 210 184 180
f 181 182 195
f 225 181 195
f 221 181 225
f 195 182 196
f 222 196 182
f 222 182 208
f 227 183 197
f 342 197 183
f 223 183 227
f 224 198 184
f 224 184 210
f 241 185 189
f 259 185 241
f 223 194 188
f 237 189 203
f 241 189 237
f 223 206 194
f 195 196 199
f 225 195 199
f 199 196 211
f 211 196 200
f 226 200 196
f 226 196 222
f 239 197 201
f 201 197 342
f 227 197 239
f 228 202 198
f 228 198 224
f 241 199 211
f 225 199 237
f 237 199 241
f 211 200 217
f 217 200 212
f 242 212 200
f 238 200 226
f 242 200 238
f 245 201 215
f 215 201 342
f 239 201 245
f 240 216 202
f 240 202 228
f 225 203 207
f 237 203 225
f 223 210 206
f 225 207 221
f 223 224 210
f 241 211 217
f 233 212 213
f 242 213 212
f 217 212 229
f 229 212 233
f 243 218 213
f 247 213 218
f 233 213 247
f 243 213 242
f 244 215 214
f 214 215 342
f 261 214 219
f 342 219 214
f 244 214 261
f 245 215 244
f 246 220 216
f 246 216 240
f 263 217 229
f 241 217 259
f 259 217 263
f 248 218 230
f 264 230 218
f 260 218 243
f 247 218 248
f 264 218 260
f 265 219 231
f 342 231 219
f 261 219 265
f 262 232 220
f 262 220 246
f 222 379 226
f 223 228 224
f 227 228 223
f 226 379 238
f 227 240 228
f 239 246 227
f 227 246 240
f 263 229 233
f 264 234 230
f 267 230 234
f 248 230 255
f 255 230 267
f 265 231 235
f 342 235 231
f 266 236 232
f 266 232 262
f 281 233 247
f 263 233 277
f 277 233 281
f 283 249 234
f 289 234 249
f 278 234 264
f 267 234 273
f 273 234 289
f 283 234 278
f 286 235 252
f 252 235 342
f 265 235 279
f 279 235 286
f 280 254 236
f 280 236 266
f 238 379 242
f 245 246 239
f 242 379 243
f 243 379 260
f 244 280 245
f 261 288 244
f 244 288 280
f 245 262 246
f 245 266 262
f 245 280 266
f 282 247 248
f 281 247 282
f 282 248 255
f 283 250 249
f 289 249 250
f 284 256 250
f 317 250 256
f 284 250 283
f 289 250 299
f 299 250 317
f 285 252 251
f 342 251 252
f 307 251 257
f 342 257 251
f 285 251 307
f 286 252 285
f 288 253 254
f 287 258 253
f 287 253 288
f 288 254 280
f 309 255 267
f 282 255 305
f 305 255 309
f 310 268 256
f 320 256 268
f 306 256 284
f 310 256 306
f 317 256 319
f 319 256 320
f 314 257 271
f 271 257 342
f 307 257 315
f 315 257 314
f 308 272 258
f 308 258 287
f 260 379 264
f 265 288 261
f 264 379 278
f 279 326 265
f 265 287 288
f 265 308 287
f 265 316 308
f 265 326 316
f 323 267 273
f 309 267 323
f 311 269 268
f 341 268 269
f 311 268 310
f 320 268 337
f 337 268 338
f 338 268 341
f 312 274 269
f 341 269 274
f 312 269 311
f 313 271 270
f 342 270 271
f 313 270 275
f 342 275 270
f 314 271 313
f 316 276 272
f 316 272 308
f 327 273 289
f 323 273 327
f 328 290 274
f 352 274 290
f 324 274 312
f 328 274 324
f 341 274 351
f 351 274 352
f 335 275 297
f 353 297 275
f 313 275 325
f 325 275 335
f 354 275 342
f 353 275 354
f 326 298 276
f 326 276 316
f 278 379 283
f 286 336 279
f 279 336 326
f 283 379 284
f 284 379 306
f 285 336 286
f 307 350 285
f 285 348 336
f 285 350 348
f 343 289 299
f 327 289 343
f 328 291 290
f 352 290 291
f 329 292 291
f 366 291 292
f 329 291 328
f 352 291 355
f 355 291 356
f 356 291 365
f 365 291 366
f 330 293 292
f 367 292 293
f 330 292 329
f 366 292 367
f 331 300 293
f 368 293 300
f 331 293 330
f 367 293 368
f 332 295 294
f 372 294 295
f 332 294 303
f 371 303 294
f 371 294 372
f 333 296 295
f 373 295 296
f 333 295 332
f 372 295 373
f 334 297 296
f 353 296 297
f 334 296 333
f 358 296 353
f 357 296 358
f 374 296 357
f 373 296 374
f 335 297 334
f 336 304 298
f 336 298 326
f 349 299 317
f 343 299 349
f 344 301 300
f 375 300 301
f 344 300 331
f 368 300 369
f 369 300 375
f 345 302 301
f 377 301 302
f 345 301 344
f 375 301 376
f 376 301 377
f 346 303 302
f 378 302 303
f 346 302 345
f 377 302 378
f 332 303 347
f 347 303 346
f 370 303 371
f 378 303 370
f 348 318 304
f 348 304 336
f 306 379 310
f 315 350 307
f 310 379 311
f 311 379 312
f 312 382 324
f 312 379 381
f 312 381 382
f 313 380 314
f 325 385 313
f 313 386 380
f 313 385 386
f 314 360 315
f 314 364 360
f 314 363 364
f 314 380 363
f 315 360 350
f 349 317 319
f 350 322 318
f 350 318 348
f 359 319 320
f 349 319 359
f 361 320 337
f 359 320 361
f 350 321 322
f 364 340 321
f 360 321 350
f 364 321 360
f 324 383 328
f 324 382 383
f 335 384 325
f 325 384 385
f 328 383 329
f 329 392 330
f 329 383 387
f 329 387 388
f 329 388 391
f 329 391 392
f 330 393 331
f 330 392 393
f 331 395 344
f 331 393 394
f 331 394 395
f 332 400 333
f 347 398 332
f 332 398 399
f 332 399 400
f 333 401 334
f 333 400 401
f 334 384 335
f 334 390 384
f 334 389 390
f 334 402 389
f 334 401 402
f 362 337 338
f 361 337 362
f 379 338 341
f 362 338 379
f 364 339 340
f 363 342 339
f 363 339 364
f 382 341 351
f 379 341 381
f 381 341 382
f 386 354 342
f 380 342 363
f 386 342 380
f 344 395 345
f 345 404 346
f 345 395 396
f 345 396 403
f 345 403 404
f 346 398 347
f 346 397 398
f 346 404 397
f 383 351 352
f 382 351 383
f 387 352 355
f 383 352 387
f 385 353 354
f 384 358 353
f 384 353 385
f 385 354 386
f 388 355 356
f 387 355 388
f 391 356 365
f 388 356 391
f 390 357 358
f 402 374 357
f 389 357 390
f 402 357 389
f 390 358 384
f 392 365 366
f 391 365 392
f 393 366 367
f 392 366 393
f 394 367 368
f 393 367 394
f 395 368 369
f 394 368 395
f 395 369 375
f 399 370 371
f 398 378 370
f 398 370 399
f 400 371 372
f 399 371 400
f 401 372 373
f 400 372 401
f 402 373 374
f 401 373 402
f 396 375 376
f 395 375 396
f 404 376 377
f 396 376 403
f 403 376 404
f 398 377 378
f 397 377 398
f 404 377 397
