v -0.0320010309 0.0292344112 -0.00041582346
v -0.0320213966 0.0292140503 -0.000243737698
v -0.0320319395 0.0292035122 0
v -0.0320181732 0.0292172737 0.000278346539
v -0.0319899302 0.0292455215 -0.00048384428
v -0.0319956904 0.0292397518 0.000449903011
v -0.0317618446 0.0294736023 -0.00117557049
v -0.0318424683 0.0293929787 -0.000999999046
v -0.0319289618 0.0293064899 -0.000749213696
v -0.0319837504 0.0292517013 0.00051763773
v -0.0319195156 0.0293159313 0.000781462193
v -0.0318299418 0.0294055099 0.00103007555
v -0.0317471628 0.0294882793 -0.00120362997
v -0.0317471628 0.0294882793 0.00120362997
v -0.031507719 0.0297277279 -0.00155429125
v -0.0315640192 0.0296714325 -0.0014862895
v -0.0317321377 0.0295033092 -0.00123132229
v -0.0317321377 0.0295033092 0.00123132229
v -0.031716774 0.0295186729 0.00125864029
v -0.0315455322 0.0296899147 0.00150941849
v -0.0314884024 0.0297470493 -0.00157602072
v -0.0314884024 0.0297470493 0.00157602072
v -0.0312597637 0.0299756832 -0.00178201199
v -0.0313033466 0.0299321003 -0.00174923897
v -0.0314688187 0.0297666283 0.00159727097
v -0.0312816553 0.0299537868 0.00176589489
v -0.0312376719 0.0299977703 -0.00179758787
v -0.0312376719 0.0299977703 0.00179758787
v -0.0310075359 0.030227911 -0.00192252398
v -0.031215394 0.0300200481 0.00181261539
v -0.0307655506 0.0304698963 -0.00198904276
v -0.0309837513 0.0302516956 0.00193185091
v -0.0307409792 0.030494463 -0.00199239016
v -0.0307409792 0.030494463 0.00199239016
v -0.0306177216 0.0306177254 -0.00200000048
v -0.0305190735 0.0307163734 -0.0019951272
v -0.0307163744 0.0305190773 0.0019951272
v -0.0306177216 0.0306177254 0.00200000048
v -0.0304944687 0.0307409782 -0.00199239016
v -0.0304944687 0.0307409782 0.00199239016
v -0.0302516966 0.0309837456 -0.00193185091
v -0.0304698973 0.0307655449 0.00198904276
v -0.0300200491 0.0312153931 -0.00181261539
v -0.030227912 0.0310075302 0.00192252398
v -0.0299977713 0.0312376709 -0.00179758787
v -0.0299977713 0.0312376709 0.00179758787
v -0.0299537926 0.0312816543 -0.00176589489
v -0.0297666292 0.0314688225 -0.00159727097
v -0.0299321013 0.0313033504 0.00174923897
v -0.0299756842 0.0312597675 0.00178201199
v -0.0297470455 0.0314884014 -0.00157602072
v -0.0297470455 0.0314884014 0.00157602072
v -0.0296899157 0.0315455265 -0.00150941849
v -0.0295186739 0.0317167778 -0.00125864029
v -0.0295033102 0.0317321415 -0.00123132229
v -0.0295033102 0.0317321415 0.00123132229
v -0.0296714287 0.0315640182 0.0014862895
v -0.0297277289 0.0315077133 0.00155429125
v -0.0294882803 0.0317471619 -0.00120362997
v -0.0294882803 0.0317471619 0.00120362997
v -0.0294055061 0.0318299408 -0.00103007555
v -0.0293159323 0.0319195099 -0.000781462193
v -0.0292516976 0.0319837494 -0.00051763773
v -0.0293064861 0.0319289608 0.000749213696
v -0.0293929796 0.0318424721 0.000999999046
v -0.0294735985 0.0317618484 0.00117557049
v -0.0292397575 0.0319956894 -0.000449903011
v -0.0292455177 0.0319899292 0.00048384428
v -0.0292172747 0.032018177 -0.000278346539
v -0.0292037277 0.0320317192 -3.490448e-05
v -0.0292035084 0.0320319385 0
v -0.0292344122 0.03200103 0.00041582346
v -0.0205007153 0.0176830501 -0.000174312592
v -0.0205060988 0.0176776714 0
v -0.0204368811 0.0177468891 -0.000618033409
v -0.0204640894 0.0177196808 -0.00048384428
v -0.0204955559 0.0176882095 -0.000243737698
v -0.0204983502 0.0176854153 0.000209057331
v -0.0204923325 0.0176914329 0.000278346539
v -0.0204579096 0.0177258606 0.00051763773
v -0.0202503376 0.0179334278 -0.00114715338
v -0.0203166275 0.0178671379 -0.000999999046
v -0.020403121 0.0177806492 -0.000749213696
v -0.0204290466 0.0177547188 0.000651135445
v -0.0203936749 0.0177900906 0.000781462193
v -0.020304101 0.0178796692 0.00103007555
v -0.0201909332 0.0179928322 -0.00125864029
v -0.0202062969 0.0179774685 -0.00123132229
v -0.0202360039 0.0179477615 0.00117557049
v -0.0201909332 0.0179928322 0.00125864029
v -0.0200009232 0.0181828422 -0.00153208971
v -0.0200381785 0.0181455917 -0.0014862895
v -0.0201752358 0.0180085297 0.00128557444
v -0.0200196915 0.0181640739 0.00150941849
v -0.0199429779 0.0182407875 -0.00159727097
v -0.0199818783 0.0182018871 0.00155429125
v -0.0197558146 0.0184279461 -0.00176589489
v -0.0197775059 0.0184062595 -0.00174923897
v -0.0199231367 0.0182606335 0.00161803484
v -0.0197558146 0.0184279461 0.00176589489
v -0.0196895533 0.0184942074 -0.00181261539
v -0.019733923 0.0184498424 0.00178201199
v -0.0195053606 0.0186784096 -0.00191261053
v -0.0196670942 0.0185166664 0.00182708979
v -0.0194340115 0.0187497539 -0.00194059134
v -0.0194816952 0.0187020702 0.00192252398
v -0.0192642336 0.0189195366 -0.00198509216
v -0.0194100123 0.0187737579 0.00194874048
v -0.0191905336 0.0189932365 -0.0019951272
v -0.0192397099 0.0189440555 0.00198904276
v -0.0190918808 0.0190918846 -0.00200000048
v -0.0190178709 0.0191658993 -0.00199725866
v -0.0191658955 0.0190178699 0.00199725866
v -0.0190918808 0.0190918846 0.00200000048
v -0.0189440565 0.0192397041 -0.00198904276
v -0.0189932327 0.0191905327 0.0019951272
v -0.0187737541 0.0194100113 -0.00194874048
v -0.0189195328 0.0192642326 0.00198509216
v -0.0187020712 0.0194816894 -0.00192252398
v -0.0187497549 0.0194340153 0.00194059134
v -0.0185166721 0.0196670933 -0.00182708979
v -0.0186784058 0.0195053596 0.00191261053
v -0.0184498434 0.0197339268 -0.00178201199
v -0.0184942083 0.0196895523 0.00181261539
v -0.0184279518 0.0197558136 -0.00176589489
v -0.0182606297 0.0199231357 -0.00161803484
v -0.0184062605 0.0197775097 0.00174923897
v -0.0184279518 0.0197558136 0.00176589489
v -0.0182018881 0.0199818725 -0.00155429125
v -0.0182407885 0.0199429817 0.00159727097
v -0.0181640749 0.0200196953 -0.00150941849
v -0.0180085306 0.02017523 -0.00128557444
v -0.0181455879 0.0200381775 0.0014862895
v -0.0181828432 0.0200009174 0.00153208971
v -0.0179928331 0.020190937 -0.00125864029
v -0.0179477625 0.0202360077 -0.00117557049
v -0.0179774695 0.0202063007 0.00123132229
v -0.0179928331 0.020190937 0.00125864029
v -0.0178796654 0.0203041 -0.00103007555
v -0.0177900915 0.0203936691 -0.000781462193
v -0.0177547197 0.0204290504 -0.000651135445
v -0.0177806454 0.02040312 0.000749213696
v -0.0178671389 0.0203166313 0.000999999046
v -0.0179334288 0.0202503414 0.00114715338
v -0.0177258568 0.0204579086 -0.00051763773
v -0.0176914339 0.0204923363 -0.000278346539
v -0.0176854162 0.0204983539 -0.000209057331
v -0.0176882105 0.0204955597 0.000243737698
v -0.017719677 0.0204640884 0.00048384428
v -0.0177468853 0.0204368801 0.000618033409
v -0.017677887 0.0205058784 -3.490448e-05
v -0.0176776676 0.0205060978 0
f 2 70 1
f 76 2 1
f 1 69 5
f 76 1 5
f 1 70 69
f 71 2 3
f 73 3 2
f 70 2 71
f 73 2 77
f 77 2 76
f 72 3 4
f 78 4 3
f 71 3 72
f 74 3 73
f 78 3 74
f 68 4 6
f 79 6 4
f 72 4 68
f 79 4 78
f 5 67 9
f 75 5 9
f 5 69 67
f 76 5 75
f 64 6 10
f 79 10 6
f 68 6 64
f 8 62 7
f 81 8 7
f 7 61 13
f 88 7 13
f 7 62 61
f 81 7 88
f 9 63 8
f 82 9 8
f 8 63 62
f 82 8 81
f 9 67 63
f 75 9 83
f 83 9 82
f 65 10 11
f 84 11 10
f 64 10 65
f 80 10 79
f 84 10 80
f 66 11 12
f 85 12 11
f 65 11 66
f 85 11 84
f 60 12 14
f 89 14 12
f 66 12 60
f 86 12 85
f 89 12 86
f 13 59 17
f 88 13 17
f 13 61 59
f 56 14 18
f 89 18 14
f 60 14 56
f 16 54 15
f 91 16 15
f 15 53 21
f 95 15 21
f 15 54 53
f 91 15 95
f 17 55 16
f 87 17 16
f 16 55 54
f 87 16 92
f 92 16 91
f 17 59 55
f 88 17 87
f 57 18 19
f 89 19 18
f 56 18 57
f 58 19 20
f 93 20 19
f 57 19 58
f 90 19 89
f 93 19 90
f 52 20 22
f 96 22 20
f 58 20 52
f 94 20 93
f 96 20 94
f 21 51 24
f 95 21 24
f 21 53 51
f 49 22 25
f 96 25 22
f 52 22 49
f 24 48 23
f 97 24 23
f 23 47 27
f 101 23 27
f 23 48 47
f 97 23 101
f 24 51 48
f 95 24 98
f 98 24 97
f 50 25 26
f 99 26 25
f 49 25 50
f 99 25 96
f 46 26 28
f 102 28 26
f 50 26 46
f 100 26 99
f 102 26 100
f 27 45 29
f 101 27 29
f 27 47 45
f 44 28 30
f 102 30 28
f 46 28 44
f 29 43 31
f 105 29 31
f 29 45 43
f 101 29 103
f 103 29 105
f 42 30 32
f 106 32 30
f 44 30 42
f 104 30 102
f 106 30 104
f 31 41 33
f 109 31 33
f 31 43 41
f 105 31 107
f 107 31 109
f 40 32 34
f 110 34 32
f 42 32 40
f 108 32 106
f 110 32 108
f 33 39 36
f 109 33 36
f 33 41 39
f 40 34 37
f 110 37 34
f 111 36 35
f 112 35 36
f 111 35 112
f 115 36 39
f 109 36 112
f 112 36 111
f 112 36 115
f 113 38 37
f 114 37 38
f 116 40 37
f 113 37 110
f 113 37 114
f 116 37 113
f 114 38 113
f 115 39 41
f 116 42 40
f 119 41 43
f 115 41 117
f 117 41 119
f 120 44 42
f 118 42 116
f 120 42 118
f 123 43 45
f 119 43 121
f 121 43 123
f 124 46 44
f 122 44 120
f 124 44 122
f 123 45 47
f 124 50 46
f 126 47 48
f 123 47 125
f 125 47 126
f 129 48 51
f 126 48 129
f 128 49 50
f 130 52 49
f 127 49 128
f 130 49 127
f 128 50 124
f 129 51 53
f 130 58 52
f 132 53 54
f 129 53 131
f 131 53 132
f 136 54 55
f 132 54 135
f 135 54 136
f 136 55 59
f 138 56 57
f 137 60 56
f 137 56 138
f 134 57 58
f 133 57 134
f 138 57 133
f 134 58 130
f 136 59 61
f 137 66 60
f 140 61 62
f 136 61 139
f 139 61 140
f 141 62 63
f 140 62 141
f 146 63 67
f 141 63 145
f 145 63 146
f 143 64 65
f 150 68 64
f 142 64 143
f 150 64 142
f 144 65 66
f 143 65 144
f 144 66 137
f 146 67 69
f 149 72 68
f 149 68 150
f 147 69 70
f 146 69 147
f 152 70 71
f 147 70 151
f 151 70 152
f 149 71 72
f 148 71 149
f 152 71 148
f 151 74 73
f 147 73 77
f 151 73 147
f 74 152 78
f 152 74 151
f 145 76 75
f 141 75 83
f 145 75 141
f 146 77 76
f 146 76 145
f 147 77 146
f 78 148 79
f 78 152 148
f 79 149 80
f 79 148 149
f 80 150 84
f 80 149 150
f 139 82 81
f 136 81 88
f 139 81 136
f 140 83 82
f 140 82 139
f 141 83 140
f 84 142 85
f 84 150 142
f 85 143 86
f 85 142 143
f 86 144 89
f 86 143 144
f 135 88 87
f 132 87 92
f 135 87 132
f 136 88 135
f 89 137 90
f 89 144 137
f 90 138 93
f 90 137 138
f 131 92 91
f 129 91 95
f 131 91 129
f 132 92 131
f 93 133 94
f 93 138 133
f 94 134 96
f 94 133 134
f 126 95 98
f 129 95 126
f 96 130 99
f 96 134 130
f 125 98 97
f 123 97 101
f 125 97 123
f 126 98 125
f 99 127 100
f 99 130 127
f 100 128 102
f 100 127 128
f 121 101 103
f 123 101 121
f 102 124 104
f 102 128 124
f 119 103 105
f 121 103 119
f 104 122 106
f 104 124 122
f 117 105 107
f 119 105 117
f 106 120 108
f 106 122 120
f 115 107 109
f 117 107 115
f 108 118 110
f 108 120 118
f 115 109 112
f 110 116 113
f 110 118 116
