v 0.0476966286 0.0506843281 0.00300000012
v 0.0476966286 0.0506843281 0.00670000017
v 0.0476153326 0.0509877205 0.00300000012
v 0.0476153326 0.0509877205 0.00670000017
v 0.0475683641 0.0512185812 0.00300000012
v 0.0475683641 0.0512185812 0.00670000017
v 0.0475335407 0.0514515877 0.00300000012
v 0.0475335407 0.0514515877 0.00670000017
v 0.0475109625 0.0516860962 0.00300000012
v 0.0475109625 0.0516860962 0.00670000017
v 0.0475 0.0519999981 0.00300000012
v 0.0475 0.0519999981 0.00670000017
v 0.0475061655 0.0522355127 0.00300000012
v 0.0475061655 0.0522355127 0.00670000017
v 0.0475246525 0.0524703789 0.00300000012
v 0.0475246525 0.0524703789 0.00670000017
v 0.0475554037 0.0527039528 0.00300000012
v 0.0475554037 0.0527039528 0.00670000017
v 0.0475983381 0.0529356003 0.00300000012
v 0.0475983381 0.0529356003 0.00670000017
v 0.0476743221 0.053240366 0.00300000012
v 0.0476743221 0.053240366 0.00670000017
v 0.0477451658 0.0534650564 0.00300000012
v 0.0477451658 0.0534650564 0.00670000017
v 0.0479904699 0.0499570417 0.00300000012
v 0.0479904699 0.0499570417 0.00670000017
v 0.047857728 0.0502417088 0.00300000012
v 0.047857728 0.0502417088 0.00670000017
v 0.0477713823 0.0504609108 0.00300000012
v 0.0477713823 0.0504609108 0.00670000017
v 0.047827673 0.0536857319 0.00300000012
v 0.047827673 0.0536857319 0.00670000017
v 0.0479554272 0.0539726686 0.00300000012
v 0.0479554272 0.0539726686 0.00670000017
v 0.0479904699 0.0540429592 0.00300000012
v 0.0479904699 0.0540429592 0.00670000017
v 0.0481028843 0.049749999 0.00300000012
v 0.0481028843 0.049749999 0.00670000017
v 0.0480267382 0.0498873758 0.00300000012
v 0.0480267382 0.0498873758 0.00670000017
v 0.0480642128 0.0541816425 0.00300000012
v 0.0480642128 0.0541816425 0.00670000017
v 0.0482259846 0.0544508743 0.00300000012
v 0.0482259846 0.0544508743 0.00670000017
v 0.0484539509 0.0492295218 0.00300000012
v 0.0484539509 0.0492295218 0.00670000017
v 0.0482693291 0.049483633 0.00300000012
v 0.0482693291 0.049483633 0.00670000017
v 0.0484061384 0.0547081661 0.00300000012
v 0.0484061384 0.0547081661 0.00670000017
v 0.0484539509 0.0547704744 0.00300000012
v 0.0484539509 0.0547704744 0.00670000017
v 0.0486558485 0.0489889145 0.00300000012
v 0.0486558485 0.0489889145 0.00670000017
v 0.048502841 0.0491680574 0.00300000012
v 0.048502841 0.0491680574 0.00670000017
v 0.0486038065 0.0549522638 0.00300000012
v 0.0486038065 0.0549522638 0.00670000017
v 0.0487089062 0.0550689936 0.00300000012
v 0.0487089062 0.0550689936 0.00670000017
v 0.0489310074 0.0487089062 0.00300000012
v 0.0489310074 0.0487089062 0.00670000017
v 0.04876297 0.0488740396 0.00300000012
v 0.04876297 0.0488740396 0.00670000017
v 0.0489920855 0.0512500429 0.00300000012
v 0.0489470959 0.0514616919 0.00670000017
v 0.0489381647 0.0515150547 0.00300000012
v 0.0489117956 0.0517298174 0.00670000017
v 0.0489075518 0.0517837572 0.00300000012
v 0.0488999987 0.0519999981 0.00670000017
v 0.0489004707 0.0520541048 0.00300000012
v 0.0489075518 0.0522162437 0.00670000017
v 0.0489117956 0.0522701836 0.00300000012
v 0.0489381647 0.0524849463 0.00670000017
v 0.0489470959 0.0525383091 0.00300000012
v 0.0489920855 0.052749958 0.00670000017
v 0.0488740396 0.055237031 0.00300000012
v 0.0488740396 0.055237031 0.00670000017
v 0.0489889145 0.0553441525 0.00300000012
v 0.0489889145 0.0553441525 0.00670000017
v 0.0492295218 0.0484539509 0.00300000012
v 0.0492295218 0.0484539509 0.00670000017
v 0.0490477324 0.0486038065 0.00300000012
v 0.0490477324 0.0486038065 0.00670000017
v 0.0492378807 0.0505926275 0.00300000012
v 0.0491680098 0.0507391167 0.00670000017
v 0.0491464329 0.0507887316 0.00300000012
v 0.0490688944 0.0509907389 0.00670000017
v 0.0490517235 0.0510420465 0.00300000012
v 0.0490056276 0.0511976624 0.00670000017
v 0.0490056276 0.0528023386 0.00300000012
v 0.0490517235 0.0529579544 0.00670000017
v 0.0490688944 0.0530092621 0.00300000012
v 0.0491464329 0.0532112646 0.00670000017
v 0.0491680098 0.0532608843 0.00300000012
v 0.0492378807 0.0534073687 0.00670000017
v 0.0491680574 0.0554971552 0.00300000012
v 0.0491680574 0.0554971552 0.00670000017
v 0.0492295218 0.0555460501 0.00300000012
v 0.0492295218 0.0555460501 0.00670000017
v 0.0492918301 0.0484061384 0.00300000012
v 0.0492918301 0.0484061384 0.00670000017
v 0.0494920492 0.050177865 0.00300000012
v 0.0494606304 0.0502219152 0.00670000017
v 0.0494299841 0.0502665043 0.00300000012
v 0.0492886782 0.0504970884 0.00670000017
v 0.0492628622 0.0505446386 0.00300000012
v 0.0492628622 0.0505446386 0.00670000017
v 0.0492628622 0.0534553623 0.00300000012
v 0.0492628622 0.0534553623 0.00670000017
v 0.0492886782 0.0535029078 0.00300000012
v 0.0494299841 0.0537334967 0.00670000017
v 0.0494606304 0.0537780857 0.00300000012
v 0.0494920492 0.0538221359 0.00670000017
v 0.049483633 0.0557306671 0.00300000012
v 0.049483633 0.0557306671 0.00670000017
v 0.0495491266 0.0482259846 0.00300000012
v 0.0495491266 0.0482259846 0.00670000017
v 0.0497328043 0.049885807 0.00300000012
v 0.0496604013 0.0499662161 0.00670000017
v 0.0496252632 0.0500073576 0.00300000012
v 0.049524231 0.0501343727 0.00670000017
v 0.049524231 0.0538656282 0.00300000012
v 0.0496252632 0.0539926434 0.00670000017
v 0.0496604013 0.0540337849 0.00300000012
v 0.0497328043 0.0541141939 0.00670000017
v 0.049749999 0.0558971167 0.00300000012
v 0.049749999 0.0558971167 0.00670000017
v 0.0499570417 0.0479904699 0.00300000012
v 0.0499570417 0.0479904699 0.00670000017
v 0.0498183584 0.0480642128 0.00300000012
v 0.0498183584 0.0480642128 0.00670000017
v 0.0499662161 0.0496604013 0.00300000012
v 0.049885807 0.0497328043 0.00670000017
v 0.0498079681 0.0498079681 0.00300000012
v 0.0498079681 0.0498079681 0.00670000017
v 0.0497700453 0.0541534424 0.00300000012
v 0.0498465586 0.0542299557 0.00670000017
v 0.049885807 0.0542671967 0.00300000012
v 0.0499662161 0.0543395996 0.00670000017
v 0.0498873758 0.0559732628 0.00300000012
v 0.0498873758 0.0559732628 0.00670000017
v 0.0499570417 0.056009531 0.00300000012
v 0.0499570417 0.056009531 0.00670000017
v 0.0500273275 0.0479554272 0.00300000012
v 0.0500273275 0.0479554272 0.00670000017
v 0.0502219152 0.0494606304 0.00300000012
v 0.050177865 0.0494920492 0.00670000017
v 0.0501343727 0.049524231 0.00300000012
v 0.0500073576 0.0496252632 0.00670000017
v 0.0500073576 0.0543747377 0.00300000012
v 0.0501343727 0.05447577 0.00670000017
v 0.050177865 0.0545079517 0.00300000012
v 0.0502219152 0.0545393705 0.00670000017
v 0.0502417088 0.0561422729 0.00300000012
v 0.0502417088 0.0561422729 0.00670000017
v 0.0503142691 0.047827673 0.00300000012
v 0.0503142691 0.047827673 0.00670000017
v 0.0504970884 0.0492886782 0.00300000012
v 0.0502665043 0.0494299841 0.00670000017
v 0.0502665043 0.0545700169 0.00300000012
v 0.0504970884 0.0547113228 0.00670000017
v 0.0504609108 0.0562286186 0.00300000012
v 0.0504609108 0.0562286186 0.00670000017
v 0.0505349445 0.0477451658 0.00300000012
v 0.0505349445 0.0477451658 0.00670000017
v 0.0507391167 0.0491680098 0.00300000012
v 0.0505926275 0.0492378807 0.00670000017
v 0.0505446386 0.0492628622 0.00300000012
v 0.0505446386 0.0492628622 0.00670000017
v 0.0505446386 0.0547371387 0.00300000012
v 0.0505446386 0.0547371387 0.00670000017
v 0.0505926275 0.0547621202 0.00300000012
v 0.0507391167 0.0548319912 0.00670000017
v 0.0506843281 0.0563033724 0.00300000012
v 0.0506843281 0.0563033724 0.00670000017
v 0.0507596302 0.0476743221 0.00300000012
v 0.0507596302 0.0476743221 0.00670000017
v 0.0509907389 0.0490688944 0.00300000012
v 0.0507887316 0.0491464329 0.00670000017
v 0.0507887316 0.0548535633 0.00300000012
v 0.0509907389 0.0549311066 0.00670000017
v 0.0509877205 0.0563846636 0.00300000012
v 0.0509877205 0.0563846636 0.00670000017
v 0.0510643959 0.0475983381 0.00300000012
v 0.0510643959 0.0475983381 0.00670000017
v 0.0511976624 0.0490056276 0.00300000012
v 0.0510420465 0.0490517235 0.00670000017
v 0.0510420465 0.0549482775 0.00300000012
v 0.0511976624 0.0549943686 0.00670000017
v 0.0512185812 0.0564316368 0.00300000012
v 0.0512185812 0.0564316368 0.00670000017
v 0.0512960434 0.0475554037 0.00300000012
v 0.0512960434 0.0475554037 0.00670000017
v 0.0514616919 0.0489470959 0.00300000012
v 0.0512500429 0.0489920855 0.00670000017
v 0.0512500429 0.0550079155 0.00300000012
v 0.0514616919 0.0550529051 0.00670000017
v 0.0514515877 0.0564664555 0.00300000012
v 0.0514515877 0.0564664555 0.00670000017
v 0.0515296221 0.0475246525 0.00300000012
v 0.0515296221 0.0475246525 0.00670000017
v 0.0517298174 0.0489117956 0.00300000012
v 0.0515150547 0.0489381647 0.00670000017
v 0.0515150547 0.0550618315 0.00300000012
v 0.0517298174 0.0550882053 0.00670000017
v 0.0516860962 0.0564890385 0.00300000012
v 0.0516860962 0.0564890385 0.00670000017
v 0.0517644882 0.0475061655 0.00300000012
v 0.0517644882 0.0475061655 0.00670000017
v 0.0519999981 0.0488999987 0.00300000012
v 0.0517837572 0.0489075518 0.00670000017
v 0.0517837572 0.0550924492 0.00300000012
v 0.0519999981 0.0551000023 0.00670000017
v 0.051921463 0.0564993143 0.00300000012
v 0.051921463 0.0564993143 0.00670000017
v 0.0519999981 0.056500001 0.00300000012
v 0.0519999981 0.056500001 0.00670000017
v 0.0520785379 0.0475006866 0.00300000012
v 0.0520785379 0.0475006866 0.00670000017
v 0.0522162437 0.0489075518 0.00300000012
v 0.0520541048 0.0489004707 0.00670000017
v 0.0520541048 0.0550995302 0.00300000012
v 0.0522162437 0.0550924492 0.00670000017
v 0.0522355127 0.0564938307 0.00300000012
v 0.0522355127 0.0564938307 0.00670000017
v 0.0523139048 0.0475109625 0.00300000012
v 0.0523139048 0.0475109625 0.00670000017
v 0.0524849463 0.0489381647 0.00300000012
v 0.0522701836 0.0489117956 0.00670000017
v 0.0522701836 0.0550882053 0.00300000012
v 0.0524849463 0.0550618315 0.00670000017
v 0.0524703789 0.0564753485 0.00300000012
v 0.0524703789 0.0564753485 0.00670000017
v 0.0525484133 0.0475335407 0.00300000012
v 0.0525484133 0.0475335407 0.00670000017
v 0.052749958 0.0489920855 0.00300000012
v 0.0525383091 0.0489470959 0.00670000017
v 0.0525383091 0.0550529051 0.00300000012
v 0.052749958 0.0550079155 0.00670000017
v 0.0527039528 0.0564445972 0.00300000012
v 0.0527039528 0.0564445972 0.00670000017
v 0.052781415 0.0475683641 0.00300000012
v 0.052781415 0.0475683641 0.00670000017
v 0.0529579544 0.0490517235 0.00300000012
v 0.0528023386 0.0490056276 0.00670000017
v 0.0528023386 0.0549943686 0.00300000012
v 0.0529579544 0.0549482775 0.00670000017
v 0.0529356003 0.0564016628 0.00300000012
v 0.0529356003 0.0564016628 0.00670000017
v 0.0530122805 0.0476153326 0.00300000012
v 0.0530122805 0.0476153326 0.00670000017
v 0.0532112646 0.0491464329 0.00300000012
v 0.0530092621 0.0490688944 0.00670000017
v 0.0530092621 0.0549311066 0.00300000012
v 0.0532112646 0.0548535633 0.00670000017
v 0.053240366 0.0563256788 0.00300000012
v 0.053240366 0.0563256788 0.00670000017
v 0.0533156729 0.0476966286 0.00300000012
v 0.0533156729 0.0476966286 0.00670000017
v 0.0534073687 0.0492378807 0.00300000012
v 0.0532608843 0.0491680098 0.00670000017
v 0.0534553623 0.0492628622 0.00300000012
v 0.0534553623 0.0492628622 0.00670000017
v 0.0534553623 0.0547371387 0.00300000012
v 0.0534553623 0.0547371387 0.00670000017
v 0.0532608843 0.0548319912 0.00300000012
v 0.0534073687 0.0547621202 0.00670000017
v 0.0534650564 0.0562548351 0.00300000012
v 0.0534650564 0.0562548351 0.00670000017
v 0.0535390902 0.0477713823 0.00300000012
v 0.0535390902 0.0477713823 0.00670000017
v 0.0537334967 0.0494299841 0.00300000012
v 0.0535029078 0.0492886782 0.00670000017
v 0.0535029078 0.0547113228 0.00300000012
v 0.0537334967 0.0545700169 0.00670000017
v 0.0536857319 0.056172328 0.00300000012
v 0.0536857319 0.056172328 0.00670000017
v 0.0537582922 0.047857728 0.00300000012
v 0.0537582922 0.047857728 0.00670000017
v 0.0538221359 0.0494920492 0.00300000012
v 0.0537780857 0.0494606304 0.00670000017
v 0.0539926434 0.0496252632 0.00300000012
v 0.0538656282 0.049524231 0.00670000017
v 0.0538656282 0.05447577 0.00300000012
v 0.0539926434 0.0543747377 0.00670000017
v 0.0537780857 0.0545393705 0.00300000012
v 0.0538221359 0.0545079517 0.00670000017
v 0.0539726686 0.0560445738 0.00300000012
v 0.0539726686 0.0560445738 0.00670000017
v 0.0540429592 0.0479904699 0.00300000012
v 0.0540429592 0.0479904699 0.00670000017
v 0.0541126204 0.0480267382 0.00300000012
v 0.0541126204 0.0480267382 0.00670000017
v 0.0541141939 0.0497328043 0.00300000012
v 0.0540337849 0.0496604013 0.00670000017
v 0.0542299557 0.0498465586 0.00300000012
v 0.0541534424 0.0497700453 0.00670000017
v 0.0541534424 0.0542299557 0.00300000012
v 0.0542299557 0.0541534424 0.00670000017
v 0.0540337849 0.0543395996 0.00300000012
v 0.0541141939 0.0542671967 0.00670000017
v 0.0541816425 0.0559357882 0.00300000012
v 0.0541816425 0.0559357882 0.00670000017
v 0.0540429592 0.056009531 0.00300000012
v 0.0540429592 0.056009531 0.00670000017
v 0.0542500019 0.0481028843 0.00300000012
v 0.0542500019 0.0481028843 0.00670000017
v 0.0543395996 0.0499662161 0.00300000012
v 0.0542671967 0.049885807 0.00670000017
v 0.05447577 0.0501343727 0.00300000012
v 0.0543747377 0.0500073576 0.00670000017
v 0.0543747377 0.0539926434 0.00300000012
v 0.05447577 0.0538656282 0.00670000017
v 0.0542671967 0.0541141939 0.00300000012
v 0.0543395996 0.0540337849 0.00670000017
v 0.0544508743 0.0557740164 0.00300000012
v 0.0544508743 0.0557740164 0.00670000017
v 0.0545163679 0.0482693291 0.00300000012
v 0.0545163679 0.0482693291 0.00670000017
v 0.0545393705 0.0502219152 0.00300000012
v 0.0545079517 0.050177865 0.00670000017
v 0.0547113228 0.0504970884 0.00300000012
v 0.0545700169 0.0502665043 0.00670000017
v 0.0547371387 0.0505446386 0.00300000012
v 0.0547371387 0.0505446386 0.00670000017
v 0.0547371387 0.0534553623 0.00300000012
v 0.0547371387 0.0534553623 0.00670000017
v 0.0545700169 0.0537334967 0.00300000012
v 0.0547113228 0.0535029078 0.00670000017
v 0.0545079517 0.0538221359 0.00300000012
v 0.0545393705 0.0537780857 0.00670000017
v 0.0547081661 0.0555938578 0.00300000012
v 0.0547081661 0.0555938578 0.00670000017
v 0.0547704744 0.0484539509 0.00300000012
v 0.0547704744 0.0484539509 0.00670000017
v 0.0548319435 0.048502841 0.00300000012
v 0.0548319435 0.048502841 0.00670000017
v 0.0548319912 0.0507391167 0.00300000012
v 0.0547621202 0.0505926275 0.00670000017
v 0.0549311066 0.0509907389 0.00300000012
v 0.0548535633 0.0507887316 0.00670000017
v 0.0549943686 0.0511976624 0.00300000012
v 0.0549482775 0.0510420465 0.00670000017
v 0.0549482775 0.0529579544 0.00300000012
v 0.0549943686 0.0528023386 0.00670000017
v 0.0548535633 0.0532112646 0.00300000012
v 0.0549311066 0.0530092621 0.00670000017
v 0.0547621202 0.0534073687 0.00300000012
v 0.0548319912 0.0532608843 0.00670000017
v 0.0549522638 0.0553961945 0.00300000012
v 0.0549522638 0.0553961945 0.00670000017
v 0.0547704744 0.0555460501 0.00300000012
v 0.0547704744 0.0555460501 0.00670000017
v 0.0550110865 0.0486558485 0.00300000012
v 0.0550110865 0.0486558485 0.00670000017
v 0.0551259613 0.04876297 0.00300000012
v 0.0551259613 0.04876297 0.00670000017
v 0.0550529051 0.0514616919 0.00300000012
v 0.0550079155 0.0512500429 0.00670000017
v 0.0550882053 0.0517298174 0.00300000012
v 0.0550618315 0.0515150547 0.00670000017
v 0.0551000023 0.0519999981 0.00300000012
v 0.0550924492 0.0517837572 0.00670000017
v 0.0550924492 0.0522162437 0.00300000012
v 0.0550995302 0.0520541048 0.00670000017
v 0.0550618315 0.0524849463 0.00300000012
v 0.0550882053 0.0522701836 0.00670000017
v 0.0550079155 0.052749958 0.00300000012
v 0.0550529051 0.0525383091 0.00670000017
v 0.0551819801 0.0551819801 0.00300000012
v 0.0551819801 0.0551819801 0.00670000017
v 0.0550689936 0.05529109 0.00300000012
v 0.0550689936 0.05529109 0.00670000017
v 0.05529109 0.0489310074 0.00300000012
v 0.05529109 0.0489310074 0.00670000017
v 0.0553961945 0.0490477324 0.00300000012
v 0.0553961945 0.0490477324 0.00670000017
v 0.0554971552 0.0548319435 0.00300000012
v 0.0554971552 0.0548319435 0.00670000017
v 0.0553441525 0.0550110865 0.00300000012
v 0.0553441525 0.0550110865 0.00670000017
v 0.0555460501 0.0492295218 0.00300000012
v 0.0555460501 0.0492295218 0.00670000017
v 0.0555938578 0.0492918301 0.00300000012
v 0.0555938578 0.0492918301 0.00670000017
v 0.0557306671 0.0545163679 0.00300000012
v 0.0557306671 0.0545163679 0.00670000017
v 0.0555460501 0.0547704744 0.00300000012
v 0.0555460501 0.0547704744 0.00670000017
v 0.0557740164 0.0495491266 0.00300000012
v 0.0557740164 0.0495491266 0.00670000017
v 0.0559357882 0.0498183584 0.00300000012
v 0.0559357882 0.0498183584 0.00670000017
v 0.0559732628 0.0541126204 0.00300000012
v 0.0559732628 0.0541126204 0.00670000017
v 0.0558971167 0.0542500019 0.00300000012
v 0.0558971167 0.0542500019 0.00670000017
v 0.056009531 0.0499570417 0.00300000012
v 0.056009531 0.0499570417 0.00670000017
v 0.0560445738 0.0500273275 0.00300000012
v 0.0560445738 0.0500273275 0.00670000017
v 0.056172328 0.0503142691 0.00300000012
v 0.056172328 0.0503142691 0.00670000017
v 0.0562286186 0.0535390902 0.00300000012
v 0.0562286186 0.0535390902 0.00670000017
v 0.0561422729 0.0537582922 0.00300000012
v 0.0561422729 0.0537582922 0.00670000017
v 0.056009531 0.0540429592 0.00300000012
v 0.056009531 0.0540429592 0.00670000017
v 0.0562548351 0.0505349445 0.00300000012
v 0.0562548351 0.0505349445 0.00670000017
v 0.0563256788 0.0507596302 0.00300000012
v 0.0563256788 0.0507596302 0.00670000017
v 0.0564016628 0.0510643959 0.00300000012
v 0.0564016628 0.0510643959 0.00670000017
v 0.0564445972 0.0512960434 0.00300000012
v 0.0564445972 0.0512960434 0.00670000017
v 0.0564753485 0.0515296221 0.00300000012
v 0.0564753485 0.0515296221 0.00670000017
v 0.0564938307 0.0517644882 0.00300000012
v 0.0564938307 0.0517644882 0.00670000017
v 0.0564993143 0.0520785379 0.00300000012
v 0.0564993143 0.0520785379 0.00670000017
v 0.0564890385 0.0523139048 0.00300000012
v 0.0564890385 0.0523139048 0.00670000017
v 0.0564664555 0.0525484133 0.00300000012
v 0.0564664555 0.0525484133 0.00670000017
v 0.0564316368 0.052781415 0.00300000012
v 0.0564316368 0.052781415 0.00670000017
v 0.0563846636 0.0530122805 0.00300000012
v 0.0563846636 0.0530122805 0.00670000017
v 0.0563033724 0.0533156729 0.00300000012
v 0.0563033724 0.0533156729 0.00670000017
v 0.056500001 0.0519999981 0.00300000012
v 0.056500001 0.0519999981 0.00670000017
f 1 2 3
f 1 30 2
f 69 1 3
f 29 30 1
f 67 29 1
f 67 1 69
f 3 2 4
f 2 66 4
f 30 66 2
f 3 4 5
f 73 3 5
f 69 3 71
f 71 3 73
f 5 4 6
f 4 66 6
f 5 6 7
f 75 5 7
f 73 5 75
f 7 6 8
f 6 68 8
f 6 66 68
f 7 8 9
f 93 7 9
f 75 7 91
f 91 7 93
f 9 8 10
f 8 68 10
f 9 10 11
f 111 9 11
f 93 9 95
f 95 9 109
f 109 9 111
f 11 10 12
f 10 70 12
f 10 68 70
f 11 12 13
f 13 123 11
f 111 11 113
f 113 11 123
f 13 12 14
f 12 138 14
f 12 70 72
f 72 74 12
f 12 74 76
f 12 76 92
f 12 92 94
f 12 94 96
f 12 96 110
f 110 112 12
f 112 114 12
f 12 114 124
f 124 126 12
f 126 138 12
f 13 14 15
f 15 123 13
f 15 14 16
f 14 138 16
f 15 16 17
f 17 123 15
f 17 16 18
f 16 138 18
f 17 18 19
f 19 123 17
f 19 18 20
f 18 138 20
f 19 20 21
f 21 123 19
f 21 20 22
f 20 138 22
f 21 22 23
f 23 123 21
f 23 22 24
f 22 138 24
f 23 24 31
f 31 123 23
f 31 24 32
f 24 138 32
f 25 26 27
f 25 40 26
f 89 25 27
f 39 40 25
f 87 39 25
f 87 25 89
f 27 26 28
f 26 90 28
f 40 88 26
f 26 88 90
f 27 28 29
f 65 27 29
f 89 27 65
f 29 28 30
f 28 66 30
f 28 90 66
f 65 29 67
f 31 32 33
f 33 123 31
f 33 32 34
f 32 138 34
f 33 34 35
f 35 123 33
f 35 34 36
f 34 138 36
f 35 36 41
f 41 123 35
f 41 36 42
f 36 138 42
f 37 38 39
f 37 48 38
f 87 37 39
f 47 48 37
f 107 47 37
f 85 37 87
f 107 37 85
f 39 38 40
f 38 88 40
f 48 108 38
f 38 86 88
f 38 108 86
f 41 42 43
f 43 123 41
f 43 42 44
f 42 138 44
f 43 44 49
f 49 123 43
f 49 44 50
f 44 138 50
f 45 46 47
f 45 56 46
f 105 45 47
f 55 56 45
f 103 55 45
f 103 45 105
f 47 46 48
f 46 106 48
f 56 104 46
f 46 104 106
f 105 47 107
f 48 106 108
f 49 50 51
f 51 123 49
f 51 50 52
f 50 138 52
f 51 52 57
f 57 123 51
f 57 52 58
f 52 138 58
f 53 54 55
f 53 64 54
f 121 53 55
f 63 64 53
f 119 63 53
f 119 53 121
f 55 54 56
f 54 122 56
f 64 120 54
f 54 120 122
f 121 55 103
f 56 122 104
f 57 58 59
f 59 125 57
f 57 125 123
f 59 58 60
f 58 138 60
f 59 60 77
f 77 137 59
f 59 137 125
f 77 60 78
f 60 138 78
f 61 62 63
f 61 84 62
f 63 133 61
f 83 84 61
f 61 149 83
f 61 133 149
f 63 62 64
f 62 134 64
f 84 150 62
f 62 150 134
f 135 63 119
f 135 133 63
f 64 136 120
f 64 134 136
f 65 68 66
f 65 66 89
f 67 68 65
f 89 66 90
f 67 70 68
f 69 70 67
f 69 72 70
f 71 72 69
f 71 74 72
f 73 74 71
f 73 76 74
f 75 76 73
f 75 92 76
f 91 92 75
f 77 78 79
f 79 137 77
f 79 78 80
f 78 138 80
f 79 80 97
f 97 137 79
f 97 80 98
f 80 140 98
f 80 138 140
f 81 82 83
f 81 102 82
f 83 147 81
f 101 102 81
f 81 159 101
f 81 147 159
f 83 82 84
f 82 148 84
f 102 160 82
f 82 160 148
f 83 149 147
f 84 148 150
f 85 88 86
f 85 86 107
f 87 88 85
f 107 86 108
f 87 90 88
f 89 90 87
f 91 94 92
f 93 94 91
f 93 96 94
f 95 96 93
f 95 110 96
f 109 110 95
f 97 98 99
f 99 137 97
f 99 98 100
f 98 152 100
f 98 140 152
f 99 100 115
f 115 137 99
f 115 100 116
f 100 152 116
f 101 118 102
f 117 118 101
f 101 169 117
f 101 159 169
f 118 170 102
f 102 170 160
f 103 106 104
f 103 104 121
f 105 106 103
f 121 104 122
f 105 108 106
f 107 108 105
f 109 112 110
f 111 112 109
f 111 114 112
f 113 114 111
f 113 124 114
f 123 124 113
f 115 116 127
f 127 137 115
f 127 116 128
f 116 162 128
f 116 152 154
f 116 154 162
f 117 132 118
f 131 132 117
f 117 179 131
f 117 169 167
f 117 167 179
f 132 180 118
f 118 168 170
f 118 180 168
f 119 122 120
f 119 120 135
f 121 122 119
f 135 120 136
f 123 126 124
f 125 126 123
f 125 138 126
f 137 138 125
f 127 128 141
f 141 137 127
f 141 128 142
f 128 162 142
f 129 130 131
f 129 146 130
f 131 179 129
f 145 146 129
f 129 187 145
f 129 179 187
f 131 130 132
f 130 180 132
f 146 188 130
f 130 188 180
f 133 136 134
f 133 134 149
f 135 136 133
f 149 134 150
f 137 140 138
f 139 140 137
f 139 137 225
f 143 137 141
f 155 137 143
f 163 137 155
f 175 137 163
f 183 137 175
f 191 137 183
f 199 137 191
f 207 137 199
f 215 137 207
f 217 137 215
f 225 137 217
f 139 152 140
f 151 152 139
f 151 139 225
f 141 142 143
f 143 142 144
f 142 172 144
f 142 162 172
f 143 144 155
f 155 144 156
f 144 174 156
f 144 172 174
f 145 158 146
f 157 158 145
f 145 195 157
f 145 187 195
f 158 196 146
f 146 196 188
f 147 150 148
f 147 148 159
f 149 150 147
f 159 148 160
f 151 154 152
f 153 154 151
f 225 153 151
f 153 162 154
f 161 162 153
f 161 153 225
f 155 156 163
f 163 156 164
f 156 182 164
f 156 174 182
f 157 166 158
f 165 166 157
f 157 203 165
f 157 195 203
f 166 204 158
f 158 204 196
f 159 160 169
f 169 160 170
f 161 172 162
f 171 172 161
f 171 161 225
f 163 164 175
f 175 164 176
f 164 182 176
f 165 178 166
f 177 178 165
f 165 211 177
f 165 203 211
f 178 212 166
f 166 212 204
f 167 170 168
f 167 168 179
f 169 170 167
f 179 168 180
f 171 174 172
f 173 174 171
f 225 173 171
f 173 182 174
f 181 182 173
f 225 181 173
f 175 176 183
f 176 182 190
f 183 176 184
f 176 190 184
f 177 186 178
f 185 186 177
f 177 229 185
f 177 211 221
f 177 221 229
f 186 230 178
f 178 222 212
f 178 230 222
f 179 180 187
f 187 180 188
f 181 190 182
f 189 190 181
f 225 189 181
f 183 184 191
f 184 190 198
f 191 184 192
f 184 198 192
f 185 194 186
f 193 194 185
f 185 237 193
f 185 229 237
f 194 238 186
f 186 238 230
f 187 188 195
f 195 188 196
f 189 198 190
f 197 198 189
f 225 197 189
f 191 192 199
f 192 198 200
f 199 192 200
f 193 202 194
f 201 202 193
f 193 253 201
f 193 237 245
f 245 253 193
f 202 254 194
f 194 246 238
f 194 254 246
f 195 196 203
f 203 196 204
f 197 206 198
f 205 206 197
f 225 205 197
f 200 198 206
f 199 200 207
f 200 206 208
f 207 200 208
f 201 210 202
f 209 210 201
f 201 263 209
f 253 261 201
f 201 261 263
f 210 264 202
f 202 262 254
f 202 264 262
f 203 204 211
f 211 204 212
f 205 214 206
f 213 214 205
f 213 205 225
f 208 206 214
f 207 208 215
f 208 214 216
f 215 208 216
f 209 220 210
f 219 220 209
f 297 219 209
f 209 263 273
f 273 281 209
f 209 281 283
f 209 283 295
f 209 295 297
f 422 210 220
f 210 274 264
f 282 274 210
f 210 284 282
f 210 296 284
f 210 298 296
f 424 298 210
f 436 210 422
f 424 210 436
f 211 212 221
f 221 212 222
f 213 224 214
f 223 224 213
f 225 223 213
f 216 214 218
f 218 214 226
f 226 214 224
f 215 216 217
f 217 216 218
f 217 218 225
f 225 218 226
f 219 228 220
f 227 228 219
f 297 227 219
f 420 220 228
f 422 220 420
f 221 222 229
f 229 222 230
f 223 232 224
f 233 223 225
f 231 232 223
f 233 231 223
f 226 224 234
f 234 224 232
f 225 226 233
f 233 226 234
f 227 236 228
f 235 236 227
f 297 235 227
f 418 228 236
f 420 228 418
f 229 230 237
f 237 230 238
f 231 240 232
f 241 231 233
f 239 240 231
f 249 239 231
f 249 231 241
f 234 232 242
f 250 232 240
f 242 232 250
f 233 234 241
f 241 234 242
f 235 244 236
f 243 244 235
f 297 243 235
f 416 236 244
f 418 236 416
f 237 238 245
f 245 238 246
f 239 248 240
f 247 248 239
f 257 247 239
f 257 239 249
f 258 240 248
f 250 240 258
f 241 242 249
f 249 242 250
f 243 252 244
f 251 252 243
f 297 251 243
f 414 244 252
f 416 244 414
f 245 246 253
f 253 246 254
f 247 256 248
f 255 256 247
f 269 255 247
f 269 247 257
f 270 248 256
f 258 248 270
f 249 250 257
f 257 250 258
f 251 260 252
f 259 260 251
f 259 251 297
f 412 252 260
f 414 252 412
f 253 254 261
f 261 254 262
f 255 268 256
f 267 268 255
f 289 267 255
f 277 255 269
f 289 255 277
f 290 256 268
f 270 256 278
f 278 256 290
f 257 258 269
f 269 258 270
f 259 272 260
f 271 272 259
f 271 259 297
f 404 260 272
f 412 260 404
f 261 262 263
f 263 262 264
f 263 264 273
f 273 264 274
f 265 266 267
f 265 276 266
f 303 265 267
f 275 276 265
f 303 275 265
f 267 266 268
f 304 268 266
f 304 266 276
f 305 267 289
f 303 267 305
f 290 268 306
f 306 268 304
f 269 270 277
f 277 270 278
f 271 280 272
f 279 280 271
f 279 271 297
f 402 272 280
f 404 272 402
f 273 274 281
f 281 274 282
f 275 288 276
f 287 288 275
f 333 287 275
f 317 275 303
f 333 275 317
f 334 276 288
f 304 276 318
f 318 276 334
f 277 278 289
f 289 278 290
f 279 292 280
f 291 292 279
f 297 291 279
f 400 280 292
f 402 280 400
f 281 282 283
f 283 282 284
f 283 284 295
f 295 284 296
f 285 286 287
f 285 302 286
f 333 285 287
f 301 302 285
f 351 301 285
f 353 285 333
f 351 285 353
f 287 286 288
f 334 288 286
f 352 286 302
f 334 286 354
f 354 286 352
f 289 290 305
f 305 290 306
f 291 294 292
f 293 294 291
f 297 293 291
f 394 292 294
f 400 292 394
f 293 308 294
f 297 307 293
f 307 308 293
f 392 294 308
f 394 294 392
f 295 296 297
f 297 296 298
f 297 298 309
f 297 319 307
f 375 297 309
f 335 319 297
f 297 337 335
f 297 355 337
f 357 355 297
f 357 297 375
f 309 298 310
f 310 298 424
f 299 300 301
f 299 316 300
f 371 299 301
f 315 316 299
f 371 315 299
f 301 300 302
f 372 302 300
f 372 300 316
f 373 301 351
f 371 301 373
f 352 302 374
f 374 302 372
f 303 306 304
f 303 304 317
f 305 306 303
f 317 304 318
f 307 320 308
f 319 320 307
f 386 308 320
f 392 308 386
f 309 310 311
f 377 309 311
f 375 309 377
f 311 310 312
f 312 310 424
f 311 312 321
f 385 311 321
f 377 311 383
f 383 311 385
f 321 312 322
f 424 322 312
f 313 314 315
f 313 332 314
f 379 313 315
f 331 332 313
f 387 331 313
f 389 313 379
f 387 313 389
f 315 314 316
f 380 316 314
f 388 314 332
f 380 314 390
f 390 314 388
f 381 315 371
f 379 315 381
f 372 316 382
f 382 316 380
f 317 318 333
f 333 318 334
f 319 336 320
f 335 336 319
f 384 320 336
f 386 320 384
f 321 322 323
f 385 321 323
f 323 322 324
f 324 322 424
f 323 324 325
f 393 323 325
f 385 323 391
f 391 323 393
f 325 324 326
f 326 324 424
f 325 326 339
f 399 325 339
f 393 325 399
f 339 326 340
f 424 340 326
f 327 328 329
f 327 350 328
f 395 327 329
f 349 350 327
f 395 349 327
f 329 328 330
f 396 330 328
f 396 328 350
f 329 330 331
f 387 329 331
f 397 329 387
f 395 329 397
f 331 330 332
f 388 332 330
f 388 330 398
f 398 330 396
f 333 334 353
f 353 334 354
f 335 338 336
f 337 338 335
f 378 336 338
f 384 336 378
f 337 356 338
f 355 356 337
f 376 338 356
f 378 338 376
f 339 340 341
f 401 339 341
f 399 339 401
f 341 340 342
f 424 342 340
f 341 342 343
f 411 341 343
f 401 341 403
f 403 341 411
f 343 342 344
f 424 344 342
f 343 344 359
f 413 343 359
f 411 343 413
f 359 344 360
f 424 360 344
f 345 346 347
f 345 370 346
f 433 345 347
f 369 370 345
f 431 369 345
f 431 345 433
f 347 346 348
f 434 348 346
f 432 346 370
f 434 346 432
f 347 348 349
f 407 347 349
f 405 347 407
f 433 347 405
f 349 348 350
f 408 350 348
f 408 348 406
f 406 348 434
f 409 349 395
f 407 349 409
f 396 350 410
f 410 350 408
f 351 354 352
f 351 352 373
f 353 354 351
f 373 352 374
f 355 358 356
f 357 358 355
f 376 356 358
f 357 376 358
f 375 376 357
f 359 360 361
f 417 359 361
f 413 359 415
f 415 359 417
f 361 360 362
f 424 362 360
f 361 362 363
f 419 361 363
f 417 361 419
f 363 362 364
f 364 362 424
f 363 364 365
f 423 363 365
f 419 363 421
f 421 363 435
f 435 363 423
f 365 364 366
f 424 366 364
f 365 366 367
f 425 365 367
f 423 365 425
f 367 366 368
f 426 368 366
f 426 366 424
f 367 368 369
f 429 367 369
f 425 367 427
f 427 367 429
f 369 368 370
f 430 370 368
f 428 368 426
f 430 368 428
f 429 369 431
f 432 370 430
f 371 374 372
f 371 372 381
f 373 374 371
f 381 372 382
f 375 378 376
f 377 378 375
f 377 384 378
f 383 384 377
f 379 382 380
f 379 380 389
f 381 382 379
f 389 380 390
f 383 386 384
f 385 386 383
f 385 392 386
f 391 392 385
f 387 390 388
f 387 388 397
f 389 390 387
f 397 388 398
f 391 394 392
f 393 394 391
f 393 400 394
f 399 400 393
f 395 398 396
f 395 396 409
f 397 398 395
f 409 396 410
f 399 402 400
f 401 402 399
f 401 404 402
f 403 404 401
f 403 412 404
f 411 412 403
f 405 408 406
f 405 406 433
f 407 408 405
f 433 406 434
f 407 410 408
f 409 410 407
f 411 414 412
f 413 414 411
f 413 416 414
f 415 416 413
f 415 418 416
f 417 418 415
f 417 420 418
f 419 420 417
f 419 422 420
f 421 422 419
f 421 436 422
f 435 436 421
f 423 426 424
f 423 424 435
f 425 426 423
f 435 424 436
f 425 428 426
f 427 428 425
f 427 430 428
f 429 430 427
f 429 432 430
f 431 432 429
f 431 434 432
f 433 434 431
