v -0.0335009794 0.0277344723 -0.000428566933
v -0.0335128861 0.0277225609 -0.000214576721
v -0.0335168629 0.0277185841 0
v -0.0335098009 0.0277256508 0.000286002159
v -0.0334886484 0.0277468033 -0.00057060957
v -0.0334952526 0.0277401943 -0.000499663353
v -0.0334952526 0.0277401943 0.000499663353
v -0.0334886484 0.0277468033 0.00057060957
v -0.0332662182 0.0279692287 -0.00166762114
v -0.0333243017 0.02791115 -0.00146930933
v -0.0333901816 0.0278452606 -0.00119872332
v -0.0334307461 0.0278047008 -0.000991880894
v -0.0334728174 0.0277626343 -0.000711958408
v -0.0334811668 0.0277542801 0.000641381741
v -0.0334635954 0.0277718468 0.000782315731
v -0.0334180765 0.0278173752 0.00106115818
v -0.0333749657 0.0278604813 0.00126697063
v -0.0333057575 0.0279296894 0.00153588772
v -0.0332452326 0.0279902096 -0.00173273563
v -0.0332452326 0.0279902096 0.00173273563
v -0.0330212193 0.0282142277 -0.00229269028
v -0.0330491428 0.0281863041 -0.00223301888
v -0.0331533651 0.028082077 -0.00198771954
v -0.0332234507 0.0280119915 0.00179732084
v -0.0331284504 0.0281069965 0.00204999924
v -0.0330212193 0.0282142277 0.00229269028
v -0.0329925566 0.0282428856 -0.00235166311
v -0.0329925566 0.0282428856 0.00235166311
v -0.0327722006 0.0284632416 -0.00274343491
v -0.0329330759 0.0283023662 -0.00246744156
v -0.0329631739 0.0282722683 0.00240992069
v -0.032902277 0.0283331699 0.00252421141
v -0.0327380209 0.0284974308 -0.00279619217
v -0.0327380209 0.0284974308 0.00279619217
v -0.0325197296 0.0287157173 -0.00309430838
v -0.0325949316 0.0286405201 -0.00299854994
v -0.032703188 0.028532259 0.00284809828
v -0.0325576239 0.0286778183 0.00304689407
v -0.0322806006 0.0289548511 -0.00335852385
v -0.0324026089 0.028832838 -0.00323084354
v -0.0324812536 0.0287541981 0.00314078331
v -0.0323624687 0.0288729782 0.003274405
v -0.0322389011 0.0289965458 -0.003399055
v -0.0322389011 0.0289965458 0.003399055
v -0.0320232515 0.0292121906 -0.00358594179
v -0.0321540337 0.0290814133 -0.00347699642
v -0.0320010309 0.0292344112 -0.00041582346
v -0.0320213966 0.0292140503 -0.000243737698
v -0.0320319395 0.0292035122 0
v -0.0320181732 0.0292172737 0.000278346539
v -0.0321967058 0.0290387363 0.00343854904
v -0.0321108894 0.0291245575 0.00351438522
v -0.0319899302 0.0292455215 -0.00048384428
v -0.0319956904 0.0292397518 0.000449903011
v -0.0317505055 0.0294849415 -0.00377407074
v -0.0317969112 0.0294385357 -0.0037455368
v -0.0317618446 0.0294736023 -0.00117557049
v -0.0318424683 0.0293929787 -0.000999999046
v -0.0319289618 0.0293064899 -0.000749213696
v -0.0319837504 0.0292517013 0.00051763773
v -0.0319195156 0.0293159313 0.000781462193
v -0.0318299418 0.0294055099 0.00103007555
v -0.0319787865 0.0292566605 0.00362008572
v -0.0317505055 0.0294849415 0.00377407074
v -0.0317471628 0.0294882793 -0.00120362997
v -0.0317471628 0.0294882793 0.00120362997
v -0.031513608 0.0297218437 -0.00389933109
v -0.031507719 0.0297277279 -0.00155429125
v -0.0315640192 0.0296714325 -0.0014862895
v -0.0317321377 0.0295033092 -0.00123132229
v -0.0317321377 0.0295033092 0.00123132229
v -0.031716774 0.0295186729 0.00125864029
v -0.0315455322 0.0296899147 0.00150941849
v -0.0317037611 0.0295316906 0.00380145311
v -0.0314884024 0.0297470493 -0.00157602072
v -0.0314884024 0.0297470493 0.00157602072
v -0.031269887 0.0299655552 -0.00399491787
v -0.0312597637 0.0299756832 -0.00178201199
v -0.0313033466 0.0299321003 -0.00174923897
v -0.0314688187 0.0297666283 0.00159727097
v -0.0312816553 0.0299537868 0.00176589489
v -0.0314653473 0.0297700996 0.00392084837
v -0.0312376719 0.0299977703 -0.00179758787
v -0.0312376719 0.0299977703 0.00179758787
v -0.0310212069 0.0302142448 -0.00406009912
v -0.0310075359 0.030227911 -0.00192252398
v -0.031215394 0.0300200481 0.00181261539
v -0.0312204867 0.0300149555 0.00401040554
v -0.0307694512 0.0304659958 -0.00409438133
v -0.0307655506 0.0304698963 -0.00198904276
v -0.0309837513 0.0302516956 0.00193185091
v -0.0309710388 0.0302644081 0.00406944036
v -0.0305896502 0.0249889488 -0.00106115818
v -0.030635169 0.0249434204 -0.000782315731
v -0.0306602221 0.0249183769 -0.00057060957
v -0.0306813698 0.0248972244 -0.000286002159
v -0.0306879931 0.0248905964 -7.1554184e-05
v -0.0306844597 0.0248941345 0.000214576721
v -0.0306668263 0.0249117679 0.000499663353
v -0.0306443911 0.0249341984 0.000711958408
v -0.0306023197 0.0249762745 0.000991880894
v -0.0305896502 0.0249889488 0.00106115818
v -0.0305465393 0.0250320549 -0.00126697063
v -0.0305761271 0.0250024624 -0.0011301136
v -0.0305617552 0.0250168342 0.00119872332
v -0.0305135946 0.0250649948 0.00140228271
v -0.0307409792 0.030494463 -0.00199239016
v -0.0307409792 0.030494463 0.00199239016
v -0.0305165463 0.0307189007 -0.00409750223
v -0.0306177216 0.0306177254 -0.00200000048
v -0.0305190735 0.0307163734 -0.0019951272
v -0.0307163744 0.0305190773 0.0019951272
v -0.0306177216 0.0306177254 0.00200000048
v -0.0307189016 0.0305165405 0.00409750223
v -0.0303950243 0.0251835651 -0.00179732084
v -0.0304773312 0.025101263 -0.00153588772
v -0.0304958754 0.0250827141 -0.00146930933
v -0.0304958754 0.0250827141 0.00146930933
v -0.0304168062 0.0251617832 0.00173273563
v -0.030349081 0.0252295132 0.00192483425
v -0.030300024 0.0252785702 -0.00204999924
v -0.0303249388 0.0252536507 -0.00198771954
v -0.0303249388 0.0252536507 0.00198771954
v -0.0302743416 0.0253042526 0.00211165667
v -0.0304944687 0.0307409782 -0.00199239016
v -0.0304944687 0.0307409782 0.00199239016
v -0.0302644091 0.0309710426 -0.00406944036
v -0.0302516966 0.0309837456 -0.00193185091
v -0.0304698973 0.0307655449 0.00198904276
v -0.0304659968 0.0307694549 0.00409438133
v -0.0301927929 0.0253858013 -0.00229269028
v -0.0302479057 0.0253306885 -0.00217266798
v -0.0302207165 0.0253578777 0.00223301888
v -0.0301046496 0.0254739399 0.00246744156
v -0.0300738506 0.0255047436 -0.00252421141
v -0.0300101643 0.0255684299 0.00263542891
v -0.0300149613 0.0312204857 -0.00401040554
v -0.0300200491 0.0312153931 -0.00181261539
v -0.030227912 0.0310075302 0.00192252398
v -0.030214241 0.0310212059 0.00406009912
v -0.0299095898 0.0256690044 -0.00279619217
v -0.0299773054 0.0256012936 -0.00268984318
v -0.0299437742 0.0256348152 0.00274343491
v -0.0298392944 0.0257392998 0.00289913893
v -0.0298032074 0.0257753868 -0.00294929266
v -0.0297665053 0.0258120937 0.00299854994
v -0.0299977713 0.0312376709 -0.00179758787
v -0.0299977713 0.0312376709 0.00179758787
v -0.0297700958 0.0314653511 -0.00392084837
v -0.0299537926 0.0312816543 -0.00176589489
v -0.0297666292 0.0314688225 -0.00159727097
v -0.0299321013 0.0313033504 0.00174923897
v -0.0299756842 0.0312597675 0.00178201199
v -0.0299655609 0.031269886 0.00399491787
v -0.0297291975 0.0258493919 -0.00304689407
v -0.0296137838 0.0259648056 0.00318629742
v -0.0295340424 0.0260445518 -0.003274405
v -0.0295741825 0.0260044117 -0.00323084354
v -0.0295741825 0.0260044117 0.00323084354
v -0.0295340424 0.0260445518 0.003274405
v -0.0297470455 0.0314884014 -0.00157602072
v -0.0297470455 0.0314884014 0.00157602072
v -0.0295316868 0.0317037601 -0.00380145311
v -0.0296899157 0.0315455265 -0.00150941849
v -0.0295186739 0.0317167778 -0.00125864029
v -0.0295033102 0.0317321415 -0.00123132229
v -0.0295033102 0.0317321415 0.00123132229
v -0.0296714287 0.0315640182 0.0014862895
v -0.0297277289 0.0315077133 0.00155429125
v -0.0297218399 0.031513607 0.00389933109
v -0.0294933682 0.026085226 -0.00331696987
v -0.0293682795 0.02621031 0.00343854904
v -0.0292824631 0.0262961311 -0.00351438522
v -0.0293256073 0.0262529869 -0.00347699642
v -0.0293256073 0.0262529869 0.00347699642
v -0.0292824631 0.0262961311 0.00351438522
v -0.0294882803 0.0317471619 -0.00120362997
v -0.0294882803 0.0317471619 0.00120362997
v -0.0294849424 0.0317505093 -0.00377407074
v -0.0292566614 0.0319787903 -0.00362008572
v -0.0294055061 0.0318299408 -0.00103007555
v -0.0293159323 0.0319195099 -0.000781462193
v -0.0292516976 0.0319837494 -0.00051763773
v -0.0293064861 0.0319289608 0.000749213696
v -0.0293929796 0.0318424721 0.000999999046
v -0.0294735985 0.0317618484 0.00117557049
v -0.0294385367 0.0317969055 0.0037455368
v -0.0294849424 0.0317505093 0.00377407074
v -0.0292388659 0.0263397236 -0.00355070353
v -0.0290812426 0.0264973469 -0.000813472271
v -0.0291005306 0.0264780636 -0.000749213696
v -0.0291615038 0.0264170952 -0.00048384428
v -0.0291929703 0.0263856239 -0.000243737698
v -0.0292035084 0.0263750858 0
v -0.0291897469 0.0263888473 0.000278346539
v -0.029155324 0.026423275 0.00051763773
v -0.0290910893 0.0264875049 0.000781462193
v -0.0291054754 0.026473114 0.00365312576
v -0.029060195 0.0265183945 -0.00368505478
v -0.0290015154 0.0265770836 -0.00103007555
v -0.0290140419 0.0265645523 -0.000999999046
v -0.0290710096 0.0265075798 0.000845236778
v -0.0290015154 0.0265770836 0.00103007555
v -0.0290145235 0.0265640659 0.00371586084
v -0.0292397575 0.0319956894 -0.000449903011
v -0.0292455177 0.0319899292 0.00048384428
v -0.0291245585 0.0321108932 -0.00351438522
v -0.0290387421 0.0321967049 -0.00343854904
v -0.0292172747 0.032018177 -0.000278346539
v -0.0292037277 0.0320317192 -3.490448e-05
v -0.0292140513 0.0320214004 0.000243737698
v -0.0292344122 0.03200103 0.00041582346
v -0.0290814142 0.0321540279 0.00347699642
v -0.0292121916 0.0320232506 0.00358594179
v -0.0289220791 0.0266565151 -0.00377407074
v -0.0289684801 0.0266101093 -0.0037455368
v -0.0288402634 0.0267383308 -0.00133826017
v -0.0289037113 0.0266748829 -0.00123132229
v -0.028988617 0.0265899773 0.00105983734
v -0.0288883476 0.0266902466 0.00125864029
v -0.0289684801 0.0266101093 0.0037455368
v -0.0288753347 0.0267032642 0.00380145311
v -0.0288282566 0.0267503376 -0.00382767916
v -0.028753789 0.0268248005 -0.00146270752
v -0.0288235884 0.0267550106 0.00136399746
v -0.028780859 0.0267977352 0.00385273933
v -0.0289965468 0.0322389049 -0.003399055
v -0.0289965468 0.0322389049 0.003399055
v -0.0288729792 0.0323624725 -0.003274405
v -0.0287541943 0.0324812527 -0.00314078331
v -0.0288328343 0.0324026127 0.00323084354
v -0.0289548473 0.0322805996 0.00335852385
v -0.0287331658 0.0268454285 -0.00387662649
v -0.0285801153 0.0269984741 -0.00165807486
v -0.0287355881 0.0268430061 -0.0014862895
v -0.0287355881 0.0268430061 0.0014862895
v -0.0287171059 0.0268614883 0.00150941849
v -0.0285884075 0.0269901867 0.00394117355
v -0.0285396509 0.027038948 -0.00396029472
v -0.0285176687 0.0270609207 -0.00171433449
v -0.0285595303 0.0270190639 0.00167734146
v -0.0285396509 0.027038948 0.00396029472
v -0.028677824 0.0325576229 -0.00304689407
v -0.02853226 0.0327031917 -0.00284809828
v -0.0286405163 0.0325949306 0.00299854994
v -0.0287157183 0.0325197334 0.00309430838
v -0.0283920603 0.0271865291 -0.00401040554
v -0.0284906607 0.0270879288 -0.00397821188
v -0.0283418732 0.027236721 -0.00184100866
v -0.0284749203 0.0271036739 -0.00174923897
v -0.0284964018 0.0270821876 0.00173205137
v -0.028453229 0.0271253605 0.00176589489
v -0.0284414606 0.0271371288 0.00399491787
v -0.0283424788 0.0272361107 0.00402467251
v -0.0282927256 0.0272858639 -0.00403771162
v -0.0282729845 0.0273056049 -0.00187938452
v -0.0283190708 0.0272595234 0.00185436726
v -0.0282927256 0.0272858639 0.00403771162
v -0.028497427 0.0327380199 -0.00279619217
v -0.028497427 0.0327380199 0.00279619217
v -0.0283331709 0.0329022713 -0.00252421141
v -0.028272274 0.0329631729 -0.00240992069
v -0.0283023672 0.0329330749 0.00246744156
v -0.0284632425 0.0327721996 0.00274343491
v -0.0282428198 0.0273357696 -0.00404952288
v -0.0280833273 0.0274952621 -0.00195629597
v -0.0282497196 0.0273288746 0.00189103603
v -0.0280923395 0.0274862499 0.00407753944
v -0.0280419712 0.027536623 -0.00408439875
v -0.0280105286 0.0275680656 -0.00197537661
v -0.0280591421 0.0275194473 0.00196325541
v -0.0280419712 0.027536623 0.00408439875
v -0.0282428913 0.0329925556 -0.00235166311
v -0.0282428913 0.0329925556 0.00235166311
v -0.0282142286 0.0330212135 -0.00229269028
v -0.0281069975 0.0331284542 -0.00204999924
v -0.0280119972 0.0332234497 -0.00179732084
v -0.0280820828 0.0331533642 0.00198771954
v -0.0281863003 0.0330491466 0.00223301888
v -0.0282142286 0.0330212135 0.00229269028
v -0.0279915314 0.0275870628 -0.0040900135
v -0.0278386526 0.0277399368 -0.00199878216
v -0.0279861193 0.0275924797 0.00198053598
v -0.0278398924 0.027738697 0.0040993762
v -0.0277892952 0.027789299 -0.00410000086
v -0.0277892952 0.027789299 -0.00200000048
v -0.0277646141 0.0278139801 -0.0019996953
v -0.0278139763 0.0277646179 0.0019996953
v -0.0277892952 0.027789299 0.00200000048
v -0.0277892952 0.027789299 0.00410000086
v -0.0279902105 0.0332452316 -0.00173273563
v -0.0279902105 0.0332452316 0.00173273563
v -0.0279296904 0.0333057613 -0.00153588772
v -0.0278604775 0.0333749695 -0.00126697063
v -0.0278173714 0.0334180756 -0.00106115818
v -0.0277718525 0.0334635944 -0.000782315731
v -0.0277542811 0.0334811706 -0.000641381741
v -0.0277626305 0.0334728165 0.000711958408
v -0.0278047018 0.0334307403 0.000991880894
v -0.0278452664 0.0333901806 0.00119872332
v -0.0279111462 0.0333243008 0.00146930933
v -0.0279692297 0.033266222 0.00166762114
v -0.027738698 0.0278398914 -0.0040993762
v -0.0275924759 0.0279861183 -0.00198053598
v -0.0277399426 0.0278386516 0.00199878216
v -0.0275870638 0.0279915256 0.0040900135
v -0.0275366192 0.028041975 -0.00408439875
v -0.0275194531 0.0280591411 -0.00196325541
v -0.0275680666 0.0280105324 0.00197537661
v -0.0275366192 0.028041975 0.00408439875
v -0.0277467995 0.0334886475 -0.00057060957
v -0.0277401953 0.0334952564 -0.000499663353
v -0.0277401953 0.0334952564 0.000499663353
v -0.0277467995 0.0334886475 0.00057060957
v -0.027725647 0.0335097999 -0.000286002159
v -0.0277190285 0.0335164184 -7.1554184e-05
v -0.027718585 0.0335168571 0
v -0.0277344685 0.0335009785 0.000428566933
v -0.0274862557 0.0280923386 -0.00407753944
v -0.0273288756 0.0282497234 -0.00189103603
v -0.0274952631 0.0280833263 0.00195629597
v -0.0273357706 0.0282428188 0.00404952288
v -0.0272858648 0.0282927246 -0.00403771162
v -0.0272595244 0.0283190746 -0.00185436726
v -0.0273056059 0.0282729835 0.00187938452
v -0.0272858648 0.0282927246 0.00403771162
v -0.0272361164 0.0283424778 -0.00402467251
v -0.0271371346 0.0284414596 -0.00399491787
v -0.0271253615 0.028453228 -0.00176589489
v -0.0270821886 0.0284964008 -0.00173205137
v -0.0271036701 0.0284749241 0.00174923897
v -0.0272367172 0.028341877 0.00184100866
v -0.0270879297 0.0284906597 0.00397821188
v -0.0271865301 0.0283920593 0.00401040554
v -0.0270389443 0.02853965 -0.00396029472
v -0.0270190601 0.0285595341 -0.00167734146
v -0.0270609217 0.0285176678 0.00171433449
v -0.0270389443 0.02853965 0.00396029472
v -0.0269901877 0.0285884113 -0.00394117355
v -0.0268614893 0.0287171001 -0.00150941849
v -0.0268430023 0.0287355919 -0.0014862895
v -0.0268430023 0.0287355919 0.0014862895
v -0.0269984799 0.0285801144 0.00165807486
v -0.0268454294 0.02873316 0.00387662649
v -0.0267977314 0.0287808628 -0.00385273933
v -0.0267550068 0.0288235874 -0.00136399746
v -0.0268248062 0.028753788 0.00146270752
v -0.0267503386 0.0288282509 0.00382767916
v -0.0267032604 0.0288753338 -0.00380145311
v -0.0266101103 0.0289684791 -0.0037455368
v -0.0266902475 0.0288883514 -0.00125864029
v -0.0265899735 0.0289886207 -0.00105983734
v -0.0266748791 0.0289037151 0.00123132229
v -0.0267383318 0.0288402576 0.00133826017
v -0.0266101103 0.0289684791 0.0037455368
v -0.0266565113 0.0289220829 0.00377407074
v -0.0265640669 0.0290145225 -0.00371586084
v -0.0265770798 0.0290015144 -0.00103007555
v -0.0265075855 0.0290710087 -0.000845236778
v -0.0265645533 0.0290140457 0.000999999046
v -0.0265770798 0.0290015144 0.00103007555
v -0.0265184002 0.029060194 0.00368505478
v -0.026473115 0.0291054745 -0.00365312576
v -0.0264875059 0.0290910835 -0.000781462193
v -0.0264232712 0.029155323 -0.00051763773
v -0.0263888483 0.0291897507 -0.000278346539
v -0.0263752966 0.0292032928 -3.490448e-05
v -0.0263856249 0.0291929645 0.000243737698
v -0.0264170914 0.0291615028 0.00048384428
v -0.0264780598 0.0291005344 0.000749213696
v -0.0264973478 0.0290812416 0.000813472271
v -0.0263397293 0.0292388649 0.00355070353
v -0.0262961321 0.0292824669 -0.00351438522
v -0.0262529879 0.0293256016 -0.00347699642
v -0.0262529879 0.0293256016 0.00347699642
v -0.0262961321 0.0292824669 0.00351438522
v -0.0262103109 0.0293682785 -0.00343854904
v -0.026085227 0.0294933624 0.00331696987
v -0.0260445528 0.0295340366 -0.003274405
v -0.0260044079 0.0295741863 -0.00323084354
v -0.0260044079 0.0295741863 0.00323084354
v -0.0260445528 0.0295340366 0.003274405
v -0.0259648113 0.0296137829 -0.00318629742
v -0.0258493929 0.0297291965 0.00304689407
v -0.0258120899 0.0297665043 -0.00299854994
v -0.0257753878 0.0298032112 0.00294929266
v -0.025739296 0.0298392982 -0.00289913893
v -0.0256348162 0.0299437733 -0.00274343491
v -0.0256012898 0.0299773044 0.00268984318
v -0.0256690006 0.0299095936 0.00279619217
v -0.0255684261 0.0300101681 -0.00263542891
v -0.0255047445 0.0300738449 0.00252421141
v -0.0254739409 0.0301046486 -0.00246744156
v -0.0253578739 0.0302207203 -0.00223301888
v -0.0253306894 0.0302479095 0.00217266798
v -0.0253858023 0.0301927872 0.00229269028
v -0.0253042488 0.0302743454 -0.00211165667
v -0.0252536516 0.0303249378 -0.00198771954
v -0.0252536516 0.0303249378 0.00198771954
v -0.0252785711 0.0303000278 0.00204999924
v -0.0252295094 0.0303490848 -0.00192483425
v -0.0251617842 0.0304168053 -0.00173273563
v -0.0250827198 0.0304958744 -0.00146930933
v -0.0250827198 0.0304958744 0.00146930933
v -0.025101264 0.030477335 0.00153588772
v -0.0251835709 0.0303950233 0.00179732084
v -0.0250649958 0.0305135937 -0.00140228271
v -0.0250168352 0.0305617542 -0.00119872332
v -0.0250024681 0.0305761261 0.0011301136
v -0.0250320511 0.0305465431 0.00126697063
v -0.024988945 0.0305896492 -0.00106115818
v -0.0249762755 0.030602314 -0.000991880894
v -0.0249342041 0.0306443901 -0.000711958408
v -0.0249117689 0.0306668205 -0.000499663353
v -0.0248941307 0.0306844635 -0.000214576721
v -0.0248901587 0.0306884308 0
v -0.0248972206 0.0306813736 0.000286002159
v -0.0249183731 0.0306602211 0.00057060957
v -0.0249434261 0.0306351681 0.000782315731
v -0.024988945 0.0305896492 0.00106115818
f 2 47 1
f 96 2 1
f 1 53 6
f 96 1 6
f 1 47 53
f 3 48 2
f 97 3 2
f 2 48 47
f 97 2 96
f 4 49 3
f 98 4 3
f 3 49 48
f 98 3 97
f 7 54 4
f 99 7 4
f 4 50 49
f 4 54 50
f 99 4 98
f 6 59 5
f 95 6 5
f 5 59 13
f 95 5 13
f 6 53 59
f 96 6 95
f 8 60 7
f 99 8 7
f 7 60 54
f 14 60 8
f 100 14 8
f 100 8 99
f 10 68 9
f 116 10 9
f 9 79 19
f 116 9 19
f 9 68 75
f 75 79 9
f 11 69 10
f 103 11 10
f 10 69 68
f 103 10 117
f 117 10 116
f 12 57 11
f 93 12 11
f 11 57 65
f 11 65 70
f 70 69 11
f 93 11 104
f 104 11 103
f 13 58 12
f 94 13 12
f 12 58 57
f 94 12 93
f 59 58 13
f 95 13 94
f 15 60 14
f 100 15 14
f 16 61 15
f 101 16 15
f 15 61 60
f 101 15 100
f 17 66 16
f 105 17 16
f 62 61 16
f 16 66 62
f 102 16 101
f 105 16 102
f 18 72 17
f 118 18 17
f 71 66 17
f 17 72 71
f 106 17 105
f 118 17 106
f 20 80 18
f 119 20 18
f 73 72 18
f 76 73 18
f 18 80 76
f 119 18 118
f 19 78 23
f 115 19 23
f 19 79 78
f 116 19 115
f 24 80 20
f 119 24 20
f 22 110 21
f 131 22 21
f 21 110 27
f 131 21 27
f 23 110 22
f 121 23 22
f 121 22 132
f 132 22 131
f 23 78 83
f 23 83 86
f 23 86 90
f 23 90 107
f 107 111 23
f 23 111 110
f 115 23 122
f 122 23 121
f 25 91 24
f 123 25 24
f 81 80 24
f 24 84 81
f 24 87 84
f 24 91 87
f 120 24 119
f 123 24 120
f 133 26 25
f 280 25 26
f 25 108 91
f 25 112 108
f 113 112 25
f 279 113 25
f 124 25 123
f 133 25 124
f 279 25 280
f 134 28 26
f 274 26 28
f 134 26 133
f 280 26 274
f 27 110 30
f 131 27 30
f 134 31 28
f 263 28 31
f 274 28 263
f 30 110 29
f 135 30 29
f 29 110 33
f 141 29 33
f 135 29 142
f 142 29 141
f 131 30 135
f 134 32 31
f 264 31 32
f 263 31 264
f 143 34 32
f 260 32 34
f 136 32 134
f 143 32 136
f 264 32 260
f 33 110 36
f 141 33 36
f 144 37 34
f 245 34 37
f 144 34 143
f 260 34 245
f 36 110 35
f 155 36 35
f 35 110 40
f 155 35 40
f 141 36 145
f 145 36 155
f 146 38 37
f 246 37 38
f 146 37 144
f 245 37 246
f 156 41 38
f 231 38 41
f 156 38 146
f 246 38 231
f 40 110 39
f 157 40 39
f 39 110 43
f 171 39 43
f 157 39 171
f 155 40 158
f 158 40 157
f 159 42 41
f 232 41 42
f 159 41 156
f 231 41 232
f 172 44 42
f 228 42 44
f 160 42 159
f 172 42 160
f 232 42 228
f 43 110 46
f 171 43 46
f 172 51 44
f 213 44 51
f 228 44 213
f 46 110 45
f 173 46 45
f 45 110 56
f 189 45 56
f 173 45 189
f 171 46 174
f 174 46 173
f 193 47 48
f 192 53 47
f 192 47 193
f 194 48 49
f 193 48 194
f 195 49 50
f 194 49 195
f 195 50 54
f 175 52 51
f 214 51 52
f 175 51 172
f 213 51 214
f 187 52 63
f 198 63 52
f 176 52 175
f 198 52 176
f 214 52 187
f 192 59 53
f 196 54 60
f 195 54 196
f 56 110 55
f 215 56 55
f 55 110 67
f 215 55 67
f 189 56 199
f 199 56 216
f 216 56 215
f 201 57 58
f 218 65 57
f 200 57 201
f 218 57 200
f 191 58 59
f 190 58 191
f 201 58 190
f 191 59 192
f 197 60 61
f 196 60 197
f 203 61 62
f 197 61 202
f 202 61 203
f 219 62 66
f 203 62 219
f 188 63 64
f 221 64 63
f 187 63 188
f 204 63 198
f 221 63 204
f 170 64 74
f 222 74 64
f 188 64 170
f 222 64 221
f 218 70 65
f 219 66 71
f 67 110 77
f 233 67 77
f 215 67 223
f 223 67 233
f 235 68 69
f 234 75 68
f 234 68 235
f 218 69 70
f 217 69 218
f 224 69 217
f 235 69 224
f 220 71 72
f 219 71 220
f 237 72 73
f 220 72 225
f 225 72 236
f 236 72 237
f 237 73 76
f 154 74 82
f 238 82 74
f 170 74 154
f 226 74 222
f 238 74 226
f 234 79 75
f 237 76 80
f 77 110 85
f 247 77 85
f 233 77 239
f 239 77 248
f 248 77 247
f 250 78 79
f 249 83 78
f 249 78 250
f 240 79 234
f 250 79 240
f 252 80 81
f 237 80 241
f 241 80 251
f 251 80 252
f 252 81 84
f 140 82 88
f 253 88 82
f 154 82 140
f 242 82 238
f 253 82 242
f 249 86 83
f 252 84 87
f 85 110 89
f 265 85 89
f 247 85 255
f 255 85 265
f 266 90 86
f 256 86 249
f 266 86 256
f 267 87 91
f 252 87 257
f 257 87 267
f 130 88 92
f 268 92 88
f 140 88 130
f 254 88 253
f 258 88 254
f 268 88 258
f 89 110 109
f 281 89 109
f 265 89 269
f 269 89 281
f 282 107 90
f 270 90 266
f 282 90 270
f 283 91 108
f 267 91 271
f 271 91 283
f 130 92 114
f 284 114 92
f 272 92 268
f 284 92 272
f 218 94 93
f 218 93 104
f 190 95 94
f 190 94 201
f 201 94 200
f 200 94 218
f 191 96 95
f 191 95 190
f 192 97 96
f 192 96 191
f 193 98 97
f 193 97 192
f 98 194 99
f 194 98 193
f 99 196 100
f 99 194 195
f 99 195 196
f 100 196 101
f 101 202 102
f 101 196 197
f 101 197 202
f 102 219 105
f 102 202 203
f 102 203 219
f 217 104 103
f 224 103 117
f 217 103 224
f 218 104 217
f 105 219 106
f 106 225 118
f 106 219 220
f 106 220 225
f 282 111 107
f 283 108 112
f 109 110 111
f 109 111 127
f 303 109 127
f 281 109 285
f 285 109 303
f 286 111 110
f 287 110 111
f 286 110 287
f 127 111 125
f 304 125 111
f 287 111 282
f 287 111 286
f 304 111 287
f 112 113 279
f 288 113 112
f 289 112 113
f 279 126 112
f 305 112 126
f 283 112 288
f 288 112 289
f 288 112 305
f 289 113 288
f 306 130 114
f 290 114 284
f 306 114 290
f 249 116 115
f 282 115 122
f 249 115 256
f 256 115 266
f 266 115 270
f 270 115 282
f 234 117 116
f 234 116 240
f 240 116 250
f 250 116 249
f 224 117 235
f 235 117 234
f 118 236 119
f 225 236 118
f 119 251 120
f 119 236 237
f 237 241 119
f 241 251 119
f 120 267 123
f 120 251 252
f 120 252 257
f 120 257 267
f 122 121 397
f 394 121 132
f 397 121 394
f 282 122 287
f 287 122 286
f 286 122 397
f 123 283 124
f 123 267 271
f 123 271 283
f 124 289 133
f 124 283 288
f 288 289 124
f 127 125 128
f 304 128 125
f 279 129 126
f 305 126 129
f 127 128 137
f 319 127 137
f 303 127 307
f 307 127 319
f 137 128 149
f 149 128 138
f 320 138 128
f 308 128 304
f 320 128 308
f 139 129 278
f 321 129 139
f 278 129 279
f 305 129 309
f 309 129 321
f 322 140 130
f 310 130 306
f 322 130 310
f 393 132 131
f 391 131 135
f 393 131 391
f 394 132 393
f 133 289 134
f 134 289 136
f 388 135 142
f 391 135 388
f 136 289 143
f 328 137 149
f 319 137 323
f 323 137 327
f 327 137 328
f 180 138 147
f 329 147 138
f 149 138 163
f 163 138 179
f 179 138 180
f 324 138 320
f 329 138 324
f 278 148 139
f 332 139 148
f 321 139 325
f 325 139 332
f 334 154 140
f 326 140 322
f 334 140 326
f 387 142 141
f 385 141 145
f 387 141 385
f 388 142 387
f 143 289 144
f 144 289 146
f 383 145 155
f 385 145 383
f 146 289 156
f 180 147 150
f 329 150 147
f 153 148 278
f 332 148 153
f 339 149 163
f 328 149 335
f 335 149 339
f 207 150 151
f 329 151 150
f 180 150 207
f 230 151 161
f 340 161 151
f 207 151 208
f 208 151 227
f 227 151 229
f 229 151 230
f 330 151 329
f 336 151 330
f 340 151 336
f 278 152 153
f 331 153 152
f 302 162 152
f 343 152 162
f 292 152 278
f 302 152 292
f 331 152 337
f 337 152 343
f 332 153 331
f 344 170 154
f 333 154 334
f 338 154 333
f 344 154 338
f 380 155 158
f 383 155 380
f 156 289 159
f 379 158 157
f 377 157 171
f 379 157 377
f 380 158 379
f 159 289 160
f 160 289 172
f 230 161 164
f 340 164 161
f 302 169 162
f 343 162 169
f 349 163 179
f 339 163 345
f 345 163 349
f 243 164 165
f 340 165 164
f 230 164 243
f 261 165 166
f 351 166 165
f 243 165 244
f 244 165 259
f 259 165 261
f 341 165 340
f 346 165 341
f 351 165 346
f 262 166 177
f 352 177 166
f 261 166 262
f 352 166 351
f 301 167 168
f 353 168 167
f 178 167 301
f 353 167 178
f 302 168 169
f 342 169 168
f 301 168 302
f 342 168 347
f 347 168 354
f 354 168 353
f 343 169 342
f 356 188 170
f 348 170 344
f 356 170 348
f 374 171 174
f 377 171 374
f 172 289 175
f 373 174 173
f 363 173 189
f 373 173 363
f 374 174 373
f 175 289 176
f 176 289 198
f 262 177 181
f 352 181 177
f 301 186 178
f 353 178 186
f 350 179 180
f 349 179 350
f 363 180 207
f 350 180 357
f 357 180 363
f 276 181 182
f 358 182 181
f 262 181 273
f 273 181 275
f 275 181 276
f 358 181 352
f 293 182 183
f 364 183 182
f 276 182 277
f 277 182 291
f 291 182 293
f 359 182 358
f 364 182 359
f 296 183 205
f 365 205 183
f 293 183 294
f 294 183 295
f 295 183 296
f 365 183 364
f 184 185 301
f 370 185 184
f 299 206 184
f 369 184 206
f 299 184 300
f 300 184 301
f 370 184 369
f 301 185 186
f 360 186 185
f 360 185 371
f 371 185 370
f 353 186 361
f 361 186 360
f 356 187 188
f 372 214 187
f 355 187 356
f 362 187 355
f 372 187 362
f 357 189 199
f 363 189 357
f 289 204 198
f 350 199 216
f 357 199 350
f 204 362 221
f 289 362 204
f 296 205 209
f 366 209 205
f 366 205 365
f 299 212 206
f 369 206 212
f 374 207 208
f 363 207 373
f 373 207 374
f 377 208 227
f 374 208 377
f 312 209 210
f 366 210 209
f 296 209 297
f 297 209 311
f 311 209 312
f 317 210 211
f 367 211 210
f 312 210 315
f 315 210 316
f 316 210 317
f 367 210 366
f 313 211 212
f 368 212 211
f 318 211 313
f 317 211 318
f 368 211 367
f 298 212 299
f 314 212 298
f 313 212 314
f 369 212 368
f 376 213 214
f 378 228 213
f 375 213 376
f 378 213 375
f 376 214 372
f 349 216 215
f 345 215 223
f 349 215 345
f 350 216 349
f 221 355 222
f 221 362 355
f 222 356 226
f 222 355 356
f 339 223 233
f 345 223 339
f 226 348 238
f 226 356 348
f 377 227 229
f 378 232 228
f 380 229 230
f 377 229 379
f 379 229 380
f 383 230 243
f 380 230 383
f 382 231 232
f 384 246 231
f 381 231 382
f 384 231 381
f 382 232 378
f 335 233 239
f 339 233 335
f 238 344 242
f 238 348 344
f 328 239 248
f 335 239 328
f 242 338 253
f 242 344 338
f 385 243 244
f 383 243 385
f 387 244 259
f 385 244 387
f 384 245 246
f 390 260 245
f 386 245 384
f 390 245 386
f 327 248 247
f 323 247 255
f 327 247 323
f 328 248 327
f 253 333 254
f 253 338 333
f 254 334 258
f 254 333 334
f 319 255 265
f 323 255 319
f 258 326 268
f 258 334 326
f 388 259 261
f 387 259 388
f 390 264 260
f 393 261 262
f 388 261 391
f 391 261 393
f 393 262 273
f 392 263 264
f 396 274 263
f 396 263 392
f 389 264 390
f 392 264 389
f 307 265 269
f 319 265 307
f 268 322 272
f 268 326 322
f 303 269 281
f 307 269 303
f 272 310 284
f 272 322 310
f 393 273 275
f 396 280 274
f 394 275 276
f 393 275 394
f 398 276 277
f 394 276 397
f 397 276 398
f 402 277 291
f 398 277 401
f 401 277 402
f 400 278 279
f 406 292 278
f 399 278 400
f 406 278 399
f 396 279 280
f 395 279 396
f 400 279 395
f 303 281 285
f 284 306 290
f 284 310 306
f 286 397 287
f 287 397 304
f 288 362 289
f 305 362 288
f 402 291 293
f 405 302 292
f 405 292 406
f 403 293 294
f 402 293 403
f 408 294 295
f 403 294 407
f 407 294 408
f 412 295 296
f 408 295 411
f 411 295 412
f 413 296 297
f 412 296 413
f 413 297 311
f 419 298 299
f 418 314 298
f 418 298 419
f 420 299 300
f 419 299 420
f 410 300 301
f 409 300 410
f 420 300 409
f 405 301 302
f 404 301 405
f 410 301 404
f 304 397 308
f 309 362 305
f 308 397 320
f 321 362 309
f 414 311 312
f 413 311 414
f 414 312 315
f 418 313 314
f 417 318 313
f 417 313 418
f 415 315 316
f 414 315 415
f 416 316 317
f 415 316 416
f 417 317 318
f 416 317 417
f 320 397 324
f 325 362 321
f 324 397 329
f 332 362 325
f 329 397 330
f 330 397 336
f 331 372 332
f 337 376 331
f 331 376 372
f 332 372 362
f 336 397 340
f 343 378 337
f 337 375 376
f 337 378 375
f 340 397 341
f 341 397 346
f 342 384 343
f 347 386 342
f 342 386 384
f 343 382 378
f 343 381 382
f 343 384 381
f 346 397 351
f 354 389 347
f 347 390 386
f 347 389 390
f 351 397 352
f 352 397 358
f 353 392 354
f 361 400 353
f 353 396 392
f 353 395 396
f 353 400 395
f 354 392 389
f 358 397 359
f 359 402 364
f 359 397 398
f 359 398 401
f 359 401 402
f 360 400 361
f 371 405 360
f 360 399 400
f 360 406 399
f 360 405 406
f 364 402 365
f 365 412 366
f 365 402 403
f 365 403 407
f 365 407 408
f 365 408 411
f 365 411 412
f 366 414 367
f 366 412 413
f 366 413 414
f 367 416 368
f 367 414 415
f 367 415 416
f 368 417 369
f 368 416 417
f 369 419 370
f 369 417 418
f 369 418 419
f 370 405 371
f 370 404 405
f 370 410 404
f 370 409 410
f 370 420 409
f 370 419 420
