v -0.0316000009 0.005 0.085
v -0.0316000009 0.005 0.075
v -0.0316000009 0.033599999 0.075
v -0.0316000009 0.033599999 0.085
v -0.0569999981 0.005 0.085
v -0.0569999981 0.005 0.075
v -0.0316000009 0.005 0.075
v -0.0316000009 0.005 0.085
v -0.0569999981 0.033599999 0.085
v -0.0569999981 0.033599999 0.075
v -0.0569999981 0.005 0.075
v -0.0569999981 0.005 0.085
v -0.0316000009 0.033599999 0.075
v -0.0316000009 0.005 0.075
v -0.0569999981 0.005 0.075
v -0.0569999981 0.033599999 0.075
v -0.0316000009 0.005 0.085
v -0.0316000009 0.033599999 0.085
v -0.0569999981 0.033599999 0.085
v -0.0569999981 0.005 0.085
v -0.0316000009 0.033599999 0.085
v -0.0316000009 0.033599999 0.075
v -0.0569999981 0.033599999 0.075
v -0.0569999981 0.033599999 0.085
f 1 2 4
f 4 2 3
f 5 6 8
f 8 6 7
f 9 10 12
f 12 10 11
f 14 15 13
f 13 15 16
f 18 19 17
f 17 19 20
f 21 22 24
f 24 22 23
