v -0.0667650013 0.0200959568 0.0339831758
v -0.0667873268 0.0201182823 0.0342078495
v -0.0668041019 0.0201350527 0.0344334888
v -0.0668152885 0.020146244 0.0346598172
v -0.0668208866 0.0201518421 0.0348865604
v -0.0668215923 0.0201525431 0.035
v -0.0668103962 0.0201413469 0.0354534173
v -0.0667964153 0.0201273661 0.0356794357
v -0.066776865 0.0201078157 0.0359046245
v -0.0667517643 0.020082715 0.0361287141
v -0.0665163116 0.0198472672 0.0326706076
v -0.0665966396 0.0199275904 0.0329913902
v -0.0666435413 0.0199744968 0.0332083583
v -0.0666649799 0.0199959307 0.0333176756
v -0.0666649799 0.0199959307 0.0366823244
v -0.0666207581 0.0199517136 0.0369004154
v -0.0665444069 0.0198753576 0.0372231317
v -0.0665163116 0.0198472672 0.0373293924
v -0.0666850643 0.0200160151 0.0334275079
v -0.0667211514 0.0200521069 0.0336485744
v -0.0667371445 0.0200681 0.0337597418
v -0.0667371445 0.0200681 0.0362402582
v -0.0667037945 0.0200347452 0.036462183
v -0.0666850643 0.0200160151 0.0365724921
v -0.066283596 0.0196145468 0.0319484353
v -0.0663564281 0.0196873789 0.032150588
v -0.0663909607 0.0197219162 0.0322529817
v -0.0663909607 0.0197219162 0.0377470183
v -0.0663206367 0.0196515875 0.0379509377
v -0.066283596 0.0196145468 0.0380515647
v -0.0664562111 0.0197871666 0.0324602485
v -0.0664869099 0.0198178654 0.0325650573
v -0.0664869099 0.0198178654 0.0374349427
v -0.0664242249 0.0197551804 0.0376437879
v -0.0660800915 0.0194110422 0.0314598465
v -0.066165102 0.0194960575 0.0316522527
v -0.066123188 0.0194541435 0.0384444761
v -0.0660358124 0.0193667679 0.0386347532
v -0.0662058144 0.0195367699 0.0317499995
v -0.0662453156 0.0195762711 0.0318487382
v -0.0662453156 0.0195762711 0.0381512618
v -0.0662058144 0.0195367699 0.0382500005
v -0.0658472424 0.0191781979 0.0309982014
v -0.06589608 0.0192270308 0.031088202
v -0.06589608 0.0192270308 0.038911798
v -0.065797308 0.0191282635 0.0390905833
v -0.0659437923 0.0192747478 0.0311793947
v -0.0659903793 0.0193213301 0.0312717533
v -0.0659903793 0.0193213301 0.0387282467
v -0.0659437923 0.0192747478 0.0388206053
v -0.0655316238 0.0188625746 0.0304847217
v -0.0656410389 0.0189719849 0.0306506515
v -0.0655868416 0.0189177923 0.0394329882
v -0.0655316238 0.0188625746 0.0395152783
v -0.0656941872 0.0190251427 0.0307356167
v -0.0657462864 0.0190772371 0.0308218813
v -0.0657462864 0.0190772371 0.0391781187
v -0.0656941872 0.0190251427 0.0392643833
v -0.0653599911 0.0186909466 0.0302462006
v -0.0654181843 0.018749135 0.0303242922
v -0.0654181843 0.018749135 0.0396757078
v -0.0653008537 0.0186318045 0.0398304415
v -0.0654753952 0.0188063507 0.0304038048
v -0.0654753952 0.0188063507 0.0395961952
v -0.0651178722 0.0184488277 0.0299485517
v -0.0650550919 0.0183860474 0.0401220703
v -0.0652407722 0.018571723 0.0300943875
v -0.0651797752 0.018510726 0.0399792886
v -0.0648616676 0.0181926184 0.0296755123
v -0.0647955589 0.0181265097 0.0403887463
v -0.0649269753 0.018257926 0.0297413898
v -0.0649914532 0.0183224087 0.0298088694
v -0.0649914532 0.0183224087 0.0401911306
v -0.0649269753 0.018257926 0.0402586126
v -0.064661005 0.0179919605 0.0294876885
v -0.0645234947 0.0178544455 0.0406291628
v -0.0647286682 0.0180596142 0.0295486403
v -0.0647286682 0.0180596142 0.0404513597
v -0.064312027 0.0176429777 0.0292084575
v -0.0643831806 0.0177141314 0.0292608404
v -0.0643831806 0.0177141314 0.0407391596
v -0.064312027 0.0176429777 0.0407915401
v -0.0644536762 0.017784627 0.029314971
v -0.0644536762 0.017784627 0.040685029
v -0.0641678314 0.0174987869 0.0291089988
v -0.0640212708 0.0173522263 0.0409832811
v -0.0642402344 0.0175711899 0.0291578388
v -0.0642402344 0.0175711899 0.0408421612
v -0.0638725262 0.0172034769 0.0289317274
v -0.0637973862 0.0171283417 0.0411080027
v -0.0639471607 0.0172781115 0.0289733052
v -0.0639471607 0.0172781115 0.0410266972
v -0.0636456947 0.0169766502 0.0288181329
v -0.0635071068 0.0168380623 0.0341547632
v -0.0635366325 0.0168675833 0.0342507863
v -0.0635976009 0.0169285564 0.0345161557
v -0.0636290722 0.0169600229 0.0347562623
v -0.0636396103 0.016970561 0.035
v -0.0636258488 0.0169567995 0.0352783465
v -0.0635914211 0.0169223766 0.0355176377
v -0.0635271912 0.0168581419 0.0357814622
v -0.063569191 0.0169001465 0.0412159824
v -0.0637217693 0.0170527248 0.0288541293
v -0.0637217693 0.0170527248 0.0411458731
v -0.0634149818 0.0167459326 0.0287214828
v -0.0632596855 0.016590641 0.0336360025
v -0.0633398132 0.016670764 0.0337686777
v -0.0634114532 0.0167424088 0.0360892773
v -0.0633244495 0.0166554003 0.0362586403
v -0.0632593136 0.0165902691 0.0413334036
v -0.0634922771 0.0168232327 0.0287518001
v -0.0634247189 0.0167556696 0.0339401627
v -0.0634501438 0.0167810946 0.034000001
v -0.0634964828 0.0168274336 0.0358767414
v -0.0634376125 0.016768568 0.0360300756
v -0.0634922771 0.0168232327 0.0412482023
v -0.0632517986 0.02365382 0.0342078495
v -0.0632608776 0.023662899 0.0343205643
v -0.0632748585 0.0236768799 0.0345465827
v -0.0632832603 0.023685277 0.0347731543
v -0.0632860546 0.023688076 0.035
v -0.0632797604 0.023681777 0.0353401828
v -0.0632685642 0.0236705856 0.0355665112
v -0.0632517986 0.02365382 0.0357921505
v -0.063102396 0.016433342 0.0286194229
v -0.0630162125 0.016347168 0.0333419251
v -0.0631532078 0.0164841585 0.0365094185
v -0.0630235176 0.0163544683 0.0414012527
v -0.0631809978 0.0165119534 0.0286420417
v -0.06317169 0.0165026407 0.0335137105
v -0.0632427006 0.0165736513 0.0363893175
v -0.0631809978 0.0165119534 0.0413579607
v -0.0630088692 0.0234108906 0.0327768683
v -0.0630852203 0.0234872465 0.0330995846
v -0.0630852203 0.0234872465 0.0369004154
v -0.0630611019 0.0234631233 0.0370086098
v -0.0631080036 0.0235100298 0.0332083583
v -0.0631294422 0.0235314636 0.0333176756
v -0.0631682568 0.0235702782 0.033537817
v -0.0632016163 0.0236036329 0.0337597418
v -0.0632413273 0.0236433487 0.0340953755
v -0.0632413273 0.0236433487 0.0359046245
v -0.0632294731 0.0236314898 0.0360168242
v -0.0631856232 0.0235876398 0.0363514256
v -0.0631495266 0.0235515528 0.0365724921
v -0.0631080036 0.0235100298 0.0367916417
v -0.0628650646 0.0161960154 0.0285632586
v -0.0627551727 0.0160861235 0.0331456327
v -0.0629110222 0.0162419729 0.033250761
v -0.0629110222 0.0162419729 0.036749239
v -0.0628893261 0.0162202816 0.0367658949
v -0.0627855282 0.0161164837 0.0414515495
v -0.0629444008 0.0162753515 0.0285800266
v -0.0629324989 0.0162634544 0.0332679486
v -0.0629956322 0.0163265829 0.0366773415
v -0.0629444008 0.0162753515 0.0414199734
v -0.062785099 0.0231871204 0.0320490623
v -0.0628208904 0.0232229166 0.037849412
v -0.0628554325 0.0232574492 0.0322529817
v -0.0629513817 0.0233533983 0.0325650573
v -0.0629807835 0.0233828001 0.0373293924
v -0.0629206829 0.0233227043 0.0375397515
v -0.0626259785 0.015956934 0.028524735
v -0.0625194244 0.0158503799 0.033043704
v -0.0626624088 0.0159933643 0.036902113
v -0.0625460129 0.0158769636 0.0414841652
v -0.0627058296 0.0160367804 0.0285356069
v -0.0626858215 0.0160167723 0.033108964
v -0.0627322083 0.016063159 0.0368671608
v -0.0627058296 0.0160367804 0.0414643908
v -0.0625002842 0.0229023008 0.0313652468
v -0.0625876598 0.0229896765 0.0315555239
v -0.0625876598 0.0229896765 0.0384444761
v -0.0625445538 0.0229465752 0.0385401535
v -0.0626295738 0.0230315905 0.0316522527
v -0.0627097874 0.023111804 0.0318487382
v -0.0627480583 0.0231500797 0.0380515647
v -0.0626702862 0.0230723028 0.0382500005
v -0.0623858051 0.0157167559 0.0285039592
v -0.0622500782 0.0155810289 0.0330003047
v -0.0623977451 0.0157287006 0.0369850922
v -0.0623056107 0.0156365662 0.0414990091
v -0.0624659424 0.0157968931 0.0285089087
v -0.0624222164 0.0157531719 0.033019464
v -0.0624952393 0.0158261948 0.0369632554
v -0.0624659424 0.0157968931 0.0414910936
v -0.0622617798 0.0226637964 0.0309094167
v -0.0623117142 0.0227137356 0.0390017986
v -0.0623605423 0.0227625685 0.031088202
v -0.0624548416 0.022856863 0.0312717533
v -0.0624548416 0.022856863 0.0387282467
v -0.0624082642 0.0228102808 0.0388206053
v -0.0621451836 0.0154761343 0.0285009909
v -0.0620041637 0.0153351192 0.0330246234
v -0.0621513824 0.0154823332 0.0369972587
v -0.0620649891 0.0153959446 0.0414960384
v -0.0622253971 0.0155563478 0.028499999
v -0.0622253971 0.0155563478 0.0329999995
v -0.0621760445 0.0155069952 0.0330012178
v -0.062200716 0.0155316668 0.0369996953
v -0.0622253971 0.0155563478 0.0370000005
v -0.0622253971 0.0155563478 0.041500001
v -0.0620513039 0.0224533253 0.0305670118
v -0.0620513039 0.0224533253 0.0394329882
v -0.0621055012 0.0225075226 0.0306506515
v -0.0622107487 0.0226127701 0.0308218813
v -0.0622107487 0.0226127701 0.0391781187
v -0.062158659 0.0225606756 0.0392643833
v -0.0619047813 0.0152357368 0.0285158348
v -0.0617649727 0.0150959282 0.033108964
v -0.0619072704 0.0152382212 0.0369487405
v -0.0618248158 0.0151557665 0.0414752674
v -0.0619848518 0.0153158026 0.0285089087
v -0.0619313698 0.0152623158 0.033043704
v -0.0619798164 0.0153107719 0.0369696164
v -0.0619848518 0.0153158026 0.0414910936
v -0.061765316 0.0221673374 0.0301695585
v -0.0618244629 0.0222264795 0.0397537994
v -0.0618826466 0.022284668 0.0303242922
v -0.0619960861 0.0223981075 0.0395152783
v -0.061665266 0.014996212 0.0285484505
v -0.0615614681 0.0148924141 0.0332341051
v -0.0615182858 0.0148492413 0.0332679486
v -0.061539772 0.0148707228 0.036749239
v -0.0616501884 0.0149811344 0.0368270898
v -0.0615063934 0.0148373442 0.0414199734
v -0.0617449646 0.0150759153 0.0285356069
v -0.0616728191 0.0150037699 0.0331589913
v -0.061741703 0.0150726585 0.0368793845
v -0.0617449646 0.0150759153 0.0414643908
v -0.0615195637 0.0219215851 0.0298779297
v -0.0615823441 0.0219843607 0.0400514507
v -0.0616442375 0.0220462589 0.0300207114
v -0.0617052345 0.0221072559 0.0399056125
v -0.0613483982 0.0146793537 0.0286194229
v -0.0612975864 0.0146285419 0.0334905815
v -0.0612609081 0.0145918589 0.0335372925
v -0.0612791042 0.014610055 0.0364862895
v -0.0614142399 0.0147451906 0.0366383052
v -0.0612697964 0.0146007471 0.0413579607
v -0.0614272766 0.0147582273 0.0285987496
v -0.0614345818 0.0147655325 0.0333419251
v -0.0614970188 0.0148279743 0.0367143345
v -0.0614272766 0.0147582273 0.0414012527
v -0.0612600212 0.0216620426 0.0296112561
v -0.0613261299 0.0217281513 0.0403244877
v -0.0613914375 0.0217934589 0.0297413898
v -0.061455925 0.0218579416 0.0298088694
v -0.061455925 0.0218579416 0.0401911306
v -0.0613914375 0.0217934589 0.0402586126
v -0.0611134796 0.0144444304 0.0286930776
v -0.0611263447 0.0144573002 0.0337413597
v -0.0610131817 0.0143441324 0.0339699244
v -0.0610006504 0.0143316059 0.034000001
v -0.0610006504 0.0143316059 0.035999999
v -0.061110981 0.0144419317 0.0362313223
v -0.0611580734 0.0144890289 0.0363121176
v -0.0610358124 0.0143667679 0.0412785196
v -0.0611914806 0.0145224314 0.028666594
v -0.0611744289 0.0145053844 0.0336617398
v -0.0612429981 0.0145739536 0.0364386797
v -0.0611914806 0.0145224314 0.0413334036
v -0.0610570793 0.021459096 0.0294284129
v -0.0610570793 0.021459096 0.0405715895
v -0.0611254768 0.0215274935 0.0294876885
v -0.0611931305 0.0215951519 0.0295486403
v -0.0611931305 0.0215951519 0.0404513597
v -0.0611254768 0.0215274935 0.0405123138
v -0.0608816032 0.014212554 0.0287840199
v -0.0608593731 0.0141903238 0.0344823623
v -0.0608249454 0.014155901 0.0347216535
v -0.0608114033 0.0141423492 0.0349650955
v -0.0608111839 0.0141421347 0.035
v -0.0608531933 0.014184144 0.0354838443
v -0.0609141617 0.0142451124 0.0357492137
v -0.06080509 0.0141360455 0.0411818695
v -0.0609585171 0.0142894678 0.0287518001
v -0.0609236031 0.0142545586 0.0342185378
v -0.0609885006 0.0143194513 0.0359696198
v -0.0609585171 0.0142894678 0.0412482023
v -0.0607764893 0.0211785107 0.0292084575
v -0.0608476429 0.0212496643 0.0292608404
v -0.0608476429 0.0212496643 0.0407391596
v -0.0607764893 0.0211785107 0.0407915401
v -0.0609181385 0.0213201599 0.029314971
v -0.060987957 0.0213899784 0.0406291628
v -0.0606534081 0.0139843588 0.0288919973
v -0.0605036335 0.0138345842 0.0410266972
v -0.0607290249 0.0140599756 0.0288541293
v -0.0607290249 0.0140599756 0.0411458731
v -0.0605592995 0.0209613256 0.029061954
v -0.0605592995 0.0209613256 0.0409380436
v -0.0606322937 0.0210343199 0.0291089988
v -0.0607047062 0.0211067228 0.0408421612
v -0.060355957 0.0136869078 0.029061954
v -0.0602829628 0.0136139135 0.0408909988
v -0.0604295235 0.0137604742 0.0290167189
v -0.0604295235 0.0137604742 0.0409832811
v -0.060261858 0.0206638746 0.0288919973
v -0.0603369884 0.0207390099 0.0410682726
v -0.060411623 0.0208136492 0.0289733052
v -0.0604857426 0.0208877592 0.0290167189
v -0.0604857426 0.0208877592 0.0409832811
v -0.060411623 0.0208136492 0.0410266972
v -0.0601387672 0.0134697227 0.0292084575
v -0.0600676136 0.0133985691 0.0292608404
v -0.0600676136 0.0133985691 0.0407391596
v -0.0601387672 0.0134697227 0.0407915401
v -0.0602105598 0.0135415106 0.0291578388
v -0.0602105598 0.0135415106 0.0408421612
v -0.0600336628 0.0204356794 0.0287840199
v -0.0600010948 0.020403121 0.0342507863
v -0.0600620728 0.0204640894 0.0345161557
v -0.0600935345 0.0204955559 0.0347562623
v -0.0600963287 0.0204983501 0.0352090573
v -0.0600903111 0.0204923325 0.0352783465
v -0.0600558929 0.0204579096 0.0355176377
v -0.0600336628 0.0204356794 0.0412159824
v -0.0601101665 0.0205121832 0.0288181329
v -0.0600986938 0.0205007153 0.0348256874
v -0.0601040726 0.0205060987 0.035
v -0.0601862411 0.0205882578 0.0411458731
v -0.0598581772 0.0131891327 0.0294284129
v -0.0597897892 0.0131207352 0.0405123138
v -0.059997118 0.0133280687 0.029314971
v -0.0599272995 0.0132582502 0.0406291628
v -0.0598017864 0.0202038031 0.0286930776
v -0.0597571831 0.0201592045 0.0336878824
v -0.0598042755 0.0202062969 0.0337686777
v -0.0598339825 0.0202360039 0.0361755705
v -0.0597889118 0.0201909332 0.0362586403
v -0.0598017864 0.0202038031 0.0413069201
v -0.0598794441 0.0202814655 0.0287214828
v -0.059956749 0.0203587656 0.0287518001
v -0.0598483162 0.0202503376 0.0338528466
v -0.0599146061 0.0203166275 0.034000001
v -0.0599916534 0.0203936749 0.0357814622
v -0.0599020844 0.020304101 0.0360300756
v -0.059956749 0.0203587656 0.0412482023
v -0.0598794441 0.0202814655 0.0412785196
v -0.0596552353 0.0129861908 0.0296112561
v -0.059523819 0.0128547745 0.0402586126
v -0.059722126 0.0130530815 0.0295486403
v -0.059722126 0.0130530815 0.0404513597
v -0.0595668583 0.0199688797 0.0286194229
v -0.0595010262 0.0199030428 0.0333616948
v -0.0595798569 0.0199818783 0.0365542912
v -0.0595668583 0.0199688797 0.0413805771
v -0.0596454697 0.0200474863 0.0286420417
v -0.0595989017 0.0200009232 0.0334679103
v -0.0596361523 0.0200381784 0.0335137105
v -0.0597408276 0.020142849 0.0363382602
v -0.0596176701 0.0200196915 0.0365094185
v -0.0597237854 0.020125802 0.0413334036
v -0.0593956928 0.0127266483 0.0298779297
v -0.059271019 0.0126019745 0.0300207114
v -0.059271019 0.0126019745 0.0399792886
v -0.059332922 0.0126638727 0.0400514507
v -0.059459341 0.0127902918 0.0298088694
v -0.059459341 0.0127902918 0.0401911306
v -0.0593295269 0.0197315483 0.0285632586
v -0.0592650776 0.0196670942 0.0331729102
v -0.0593319016 0.019733923 0.036782012
v -0.0593295269 0.0197315483 0.0414367437
v -0.0594088631 0.0198108845 0.0285800266
v -0.0593537979 0.0197558146 0.0332341051
v -0.0593754845 0.0197775059 0.033250761
v -0.0594806843 0.0198827009 0.0366580749
v -0.0593537979 0.0197558146 0.0367658949
v -0.0594879799 0.0198900061 0.0414012527
v -0.0591499405 0.012480896 0.0301695585
v -0.0590326099 0.0123635654 0.0303242922
v -0.0590326099 0.0123635654 0.0396757078
v -0.0590908031 0.0124217539 0.0397537994
v -0.059210022 0.0125409727 0.0300943875
v -0.059210022 0.0125409727 0.0399056125
v -0.0590104752 0.0194124966 0.0285158348
v -0.0590079956 0.0194100122 0.0330512595
v -0.0590796738 0.0194816952 0.036922524
v -0.0590904503 0.0194924669 0.0414752674
v -0.0591702919 0.0195723181 0.0285356069
v -0.0591033344 0.0195053606 0.0330873895
v -0.0592424374 0.0196444588 0.0368410087
v -0.05925 0.0196520166 0.0414515495
v -0.0588639526 0.0121949034 0.0305670118
v -0.0587566071 0.0120875578 0.0392643833
v -0.058975399 0.0123063498 0.0304038048
v -0.0589191704 0.0122501259 0.0395152783
v -0.0587700729 0.0191720991 0.0285009909
v -0.0587638741 0.0191658955 0.0330027413
v -0.0588376884 0.0192397099 0.0369890428
v -0.0587700729 0.0191720991 0.0414990091
v -0.0588502674 0.0192522888 0.0285039592
v -0.0588622074 0.0192642336 0.0330149078
v -0.0589838963 0.0193859129 0.036956296
v -0.0589304047 0.0193324308 0.0414910936
v -0.0586534863 0.011984437 0.0309094167
v -0.0585547142 0.0118856649 0.031088202
v -0.0585070019 0.0118379478 0.0388206053
v -0.0586035423 0.0119344978 0.0390017986
v -0.0587045078 0.0120354586 0.0308218813
v -0.0587045078 0.0120354586 0.0391781187
v -0.0585294609 0.0189314775 0.0285039592
v -0.0585175114 0.0189195328 0.0330149078
v -0.0585912113 0.0189932327 0.0369951272
v -0.0585294609 0.0189314775 0.0414960384
v -0.0586898594 0.0190918808 0.028499999
v -0.0586096458 0.0190116673 0.0285009909
v -0.0586898594 0.0190918808 0.0329999995
v -0.0586158447 0.0190178709 0.0330027413
v -0.0587392216 0.0191412382 0.0369987822
v -0.0586898594 0.0190918808 0.0370000005
v -0.0586096458 0.0190116673 0.0414990091
v -0.0586898594 0.0190918808 0.041500001
v -0.0584149818 0.0117459326 0.0313652468
v -0.0583276062 0.0116585569 0.0315555239
v -0.0582856922 0.011616643 0.0383477473
v -0.0583707027 0.0117016582 0.0385401535
v -0.0584604149 0.0117913656 0.0312717533
v -0.0584604149 0.0117913656 0.0387282467
v -0.058289278 0.0186912994 0.028524735
v -0.0582528477 0.0186548691 0.033097887
v -0.0583477383 0.0187497549 0.0369405913
v -0.058289278 0.0186912994 0.0414752674
v -0.0583692532 0.0187712698 0.0285158348
v -0.0583717327 0.0187737541 0.0330512595
v -0.0584930401 0.0188950615 0.036980536
v -0.0584493141 0.0188513355 0.0414910936
v -0.0581671982 0.0114981489 0.0319484353
v -0.0581301575 0.0114611082 0.0320490623
v -0.0580598335 0.0113907843 0.0322529817
v -0.0580265598 0.0113575153 0.0376437879
v -0.0580943661 0.0114253168 0.037849412
v -0.0581671982 0.0114981489 0.0380515647
v -0.0582449799 0.0115759306 0.0317499995
v -0.0582054787 0.0115364294 0.0318487382
v -0.0582054787 0.0115364294 0.0381512618
v -0.0582449799 0.0115759306 0.0382500005
v -0.0580501919 0.0184522181 0.0285632586
v -0.0580259304 0.0184279518 0.0332341051
v -0.0580042343 0.0184062605 0.033250761
v -0.0580042343 0.0184062605 0.036749239
v -0.0580921917 0.0184942083 0.0368126154
v -0.0580501919 0.0184522181 0.0414367437
v -0.0581297283 0.0185317497 0.0285484505
v -0.0581146507 0.0185166721 0.0331729102
v -0.0582294445 0.0186314611 0.036891036
v -0.0582094269 0.0186114483 0.0414643908
v -0.0579063873 0.0112373381 0.0327768683
v -0.0578300362 0.0111609869 0.0330995846
v -0.0577858143 0.011116765 0.0333176756
v -0.0577657299 0.0110966806 0.0365724921
v -0.0578072529 0.0111382036 0.0367916417
v -0.0578541546 0.0111851101 0.0370086098
v -0.0579945736 0.0113255291 0.0324602485
v -0.0579638844 0.0112948303 0.0325650573
v -0.0579344826 0.0112654333 0.0373293924
v -0.0579945736 0.0113255291 0.0375397515
v -0.05781287 0.0182148867 0.0286194229
v -0.0577620583 0.0181640749 0.0334905815
v -0.0578387718 0.0182407885 0.036597271
v -0.05781287 0.0182148867 0.0413805771
v -0.0578917389 0.0182937603 0.0285987496
v -0.0578586082 0.0182606297 0.0333819652
v -0.0579827576 0.0183847742 0.0367320514
v -0.0579708557 0.0183728819 0.0414199734
v -0.0576634579 0.0109944134 0.0342078495
v -0.0576543789 0.0109853344 0.0343205643
v -0.057640398 0.0109713535 0.0345465827
v -0.0576320057 0.0109629564 0.0347731543
v -0.0576292019 0.0109601574 0.035
v -0.0576355057 0.0109664564 0.0353401828
v -0.0576466923 0.010977643 0.0355665112
v -0.0576634579 0.0109944134 0.0357921505
v -0.0577469997 0.0110779552 0.033537817
v -0.0577136497 0.0110446005 0.0337597418
v -0.0576739292 0.0110048847 0.0340953755
v -0.0576739292 0.0110048847 0.0359046245
v -0.0576857929 0.0110167437 0.0360168242
v -0.0577296429 0.0110605936 0.0363514256
v -0.0575002842 0.0179023008 0.0287214828
v -0.0575908165 0.0179928331 0.0337413597
v -0.0575038033 0.0179058247 0.0339107227
v -0.0575754433 0.0179774694 0.0362313223
v -0.0575908165 0.0179928331 0.0362586403
v -0.0575779419 0.0179799633 0.0413069201
v -0.0576559429 0.0180579643 0.028666594
v -0.057606514 0.0180085306 0.0337144256
v -0.0577435665 0.0181455879 0.0364862895
v -0.0577342587 0.0181362801 0.0413579607
v -0.0572695618 0.0176715832 0.0288181329
v -0.0573238354 0.0177258568 0.0344823623
v -0.0572894077 0.0176914339 0.0347216535
v -0.0572758656 0.017677887 0.0349650955
v -0.0572756462 0.0176776676 0.035
v -0.0573176556 0.017719677 0.0354838443
v -0.0573448639 0.0177468853 0.0356180334
v -0.0573460655 0.0177480869 0.0412159824
v -0.0574229794 0.0178250008 0.0287518001
v -0.057477644 0.0178796654 0.0339699244
v -0.0573880749 0.0177900915 0.0342185378
v -0.0573526936 0.0177547197 0.0343488646
v -0.057378624 0.0177806454 0.0357492137
v -0.0574651222 0.0178671389 0.035999999
v -0.0574905376 0.0178925638 0.0360598373
v -0.0574229794 0.0178250008 0.0412482023
v -0.0570427303 0.0174447565 0.0289317274
v -0.0570427303 0.0174447565 0.0410682726
v -0.0571178703 0.0175198917 0.0288919973
v -0.0571934872 0.0175955086 0.0411458731
v -0.0568204193 0.0172224407 0.029061954
v -0.0568204193 0.0172224407 0.0409380436
v -0.0569680958 0.0173701172 0.0289733052
v -0.0568939857 0.0172960072 0.0290167189
v -0.0568939857 0.0172960072 0.0409832811
v -0.0569680958 0.0173701172 0.0410266972
v -0.0565320759 0.0169341021 0.0292608404
v -0.0565320759 0.0169341021 0.0407391596
v -0.0566032391 0.0170052557 0.0292084575
v -0.0567474251 0.0171494465 0.0408909988
v -0.0562542515 0.0166562729 0.0294876885
v -0.056322649 0.0167246704 0.0405715895
v -0.0563917618 0.016793788 0.0293708348
v -0.0564615803 0.0168636017 0.040685029
v -0.0560535984 0.016455615 0.0296755123
v -0.0560535984 0.016455615 0.0403244877
v -0.0561197071 0.0165217237 0.0296112561
v -0.0561865978 0.0165886145 0.0404513597
v -0.0557973843 0.0161994057 0.0299485517
v -0.0557973843 0.0161994057 0.0400514507
v -0.0559882908 0.0163903074 0.0297413898
v -0.0558601646 0.0162621813 0.0298779297
v -0.0559238033 0.0163258247 0.0401911306
v -0.0559882908 0.0163903074 0.0402586126
v -0.0555552654 0.0159572868 0.0302462006
v -0.0555552654 0.0159572868 0.0397537994
v -0.0556144123 0.0160164289 0.0301695585
v -0.0557354908 0.0161375074 0.0399792886
v -0.0552742271 0.0156762438 0.0306506515
v -0.0553284149 0.0157304411 0.0394329882
v -0.0553836422 0.0157856588 0.0304847217
v -0.0554970818 0.0158990984 0.0396757078
v -0.0550680141 0.0154700308 0.0309982014
v -0.0550191765 0.0154211979 0.031088202
v -0.0550191765 0.0154211979 0.038911798
v -0.0550680141 0.0154700308 0.0390017986
v -0.0552210693 0.0156230907 0.0307356167
v -0.0551179485 0.0155199699 0.0309094167
v -0.0551689701 0.0155709963 0.0391781187
v -0.0552210693 0.0156230907 0.0392643833
v -0.0548351746 0.0152371912 0.0314598465
v -0.0547501545 0.0151521759 0.0316522527
v -0.0547920685 0.0151940899 0.0384444761
v -0.0548351746 0.0152371912 0.0385401535
v -0.0549714642 0.0153734856 0.0311793947
v -0.0548794441 0.0152814655 0.0313652468
v -0.0549248772 0.0153269033 0.0387282467
v -0.0549714642 0.0153734856 0.0388206053
v -0.0545588284 0.0149608498 0.032150588
v -0.0545242958 0.0149263172 0.0322529817
v -0.0545242958 0.0149263172 0.0377470183
v -0.0545946198 0.0149966459 0.0379509377
v -0.0547094421 0.0151114635 0.0317499995
v -0.0546316605 0.0150336866 0.0319484353
v -0.0546699409 0.0150719624 0.0381512618
v -0.0547094421 0.0151114635 0.0382500005
v -0.0543186264 0.014720643 0.0329913902
v -0.0542717152 0.0146737366 0.0332083583
v -0.0542502766 0.0146523027 0.0333176756
v -0.0542502766 0.0146523027 0.0366823244
v -0.0542944984 0.0146965199 0.0369004154
v -0.05434408 0.0147460966 0.0371161938
v -0.0544590454 0.014861062 0.0324602485
v -0.0543989449 0.0148009663 0.0326706076
v -0.0543708496 0.0147728758 0.0327768683
v -0.0543708496 0.0147728758 0.0372231317
v -0.0544283466 0.014830368 0.0374349427
v -0.0544910316 0.0148930531 0.0376437879
v -0.0540943699 0.0144963913 0.0348865604
v -0.054096468 0.0144984894 0.0352268457
v -0.0542301922 0.0146322136 0.0334275079
v -0.0541941051 0.0145961266 0.0336485744
v -0.0541502552 0.0145522766 0.0339831758
v -0.0541279297 0.0145299463 0.0342078495
v -0.0541111546 0.0145131807 0.0344334888
v -0.054099968 0.0145019894 0.0346598172
v -0.0541048603 0.0145068865 0.0354534173
v -0.0541188507 0.0145208673 0.0356794357
v -0.054138401 0.0145404177 0.0359046245
v -0.054178112 0.0145801334 0.0362402582
v -0.0542114716 0.0146134882 0.036462183
v -0.0542301922 0.0146322136 0.0365724921
f 1 113 2
f 141 1 2
f 21 107 1
f 140 21 1
f 1 107 112
f 1 112 113
f 140 1 141
f 2 94 3
f 118 2 3
f 2 113 94
f 117 2 118
f 141 2 117
f 3 95 4
f 119 3 4
f 3 94 95
f 118 3 119
f 4 96 5
f 120 4 5
f 4 95 96
f 119 4 120
f 5 97 6
f 121 5 6
f 5 96 97
f 120 5 121
f 6 98 7
f 122 6 7
f 97 98 6
f 121 6 122
f 7 99 8
f 123 7 8
f 7 98 99
f 122 7 123
f 8 100 9
f 124 8 9
f 8 99 100
f 123 8 124
f 9 114 10
f 143 9 10
f 100 101 9
f 9 101 114
f 124 9 142
f 142 9 143
f 10 108 22
f 143 10 22
f 10 115 108
f 10 114 115
f 11 107 12
f 133 11 12
f 32 107 11
f 160 32 11
f 160 11 133
f 12 107 13
f 134 12 13
f 133 12 134
f 13 107 14
f 138 13 14
f 134 13 137
f 137 13 138
f 14 107 19
f 138 14 19
f 146 15 16
f 15 155 16
f 24 127 15
f 145 24 15
f 15 127 155
f 145 15 146
f 136 16 17
f 16 165 17
f 135 16 136
f 146 16 135
f 16 150 151
f 155 150 16
f 16 151 169
f 16 169 165
f 161 17 18
f 17 454 18
f 136 17 161
f 17 165 185
f 17 185 181
f 181 201 17
f 17 201 454
f 161 18 33
f 18 457 33
f 18 454 457
f 19 107 20
f 139 19 20
f 138 19 139
f 20 107 21
f 140 20 21
f 139 20 140
f 22 109 23
f 144 22 23
f 22 108 109
f 143 22 144
f 23 131 24
f 145 23 24
f 23 109 131
f 144 23 145
f 24 131 127
f 25 107 26
f 157 25 26
f 40 107 25
f 176 40 25
f 176 25 157
f 26 107 27
f 159 26 27
f 157 26 159
f 27 107 31
f 159 27 31
f 158 28 29
f 28 432 29
f 162 34 28
f 34 432 28
f 162 28 158
f 177 29 30
f 29 433 30
f 158 29 177
f 29 432 433
f 177 30 41
f 30 434 41
f 30 433 434
f 31 107 32
f 160 31 32
f 159 31 160
f 162 33 34
f 33 457 34
f 161 33 162
f 34 458 432
f 34 457 458
f 35 107 36
f 172 35 36
f 48 107 35
f 171 48 35
f 171 35 172
f 36 107 39
f 175 36 39
f 172 36 175
f 174 37 38
f 37 417 38
f 178 42 37
f 42 438 37
f 173 37 174
f 178 37 173
f 37 438 417
f 191 38 49
f 38 418 49
f 174 38 191
f 38 417 418
f 39 107 40
f 176 39 40
f 175 39 176
f 178 41 42
f 41 437 42
f 177 41 178
f 41 434 437
f 42 437 438
f 43 107 44
f 189 43 44
f 56 106 43
f 187 56 43
f 43 106 107
f 187 43 189
f 44 107 47
f 189 44 47
f 188 45 46
f 45 399 46
f 192 50 45
f 50 399 45
f 192 45 188
f 207 46 57
f 46 400 57
f 188 46 207
f 46 399 400
f 47 107 48
f 190 47 48
f 189 47 190
f 190 48 171
f 192 49 50
f 49 420 50
f 191 49 192
f 49 418 420
f 50 420 399
f 51 130 52
f 203 51 52
f 63 130 51
f 219 63 51
f 219 51 203
f 52 106 55
f 205 52 55
f 52 130 106
f 203 52 205
f 220 53 54
f 53 386 54
f 208 58 53
f 58 386 53
f 208 53 204
f 204 53 220
f 220 54 64
f 54 388 64
f 54 386 388
f 55 106 56
f 206 55 56
f 205 55 206
f 206 56 187
f 208 57 58
f 57 402 58
f 207 57 208
f 57 400 402
f 58 402 386
f 59 130 60
f 219 59 60
f 67 126 59
f 217 67 59
f 59 126 130
f 217 59 219
f 60 130 63
f 219 60 63
f 218 61 62
f 61 373 62
f 220 64 61
f 64 388 61
f 220 61 218
f 61 388 373
f 234 62 68
f 62 374 68
f 218 62 234
f 62 373 374
f 65 126 67
f 233 65 67
f 72 126 65
f 231 72 65
f 231 65 233
f 232 68 66
f 68 357 66
f 249 66 73
f 66 358 73
f 232 66 249
f 66 357 358
f 233 67 217
f 234 68 232
f 68 376 357
f 68 374 376
f 69 126 71
f 247 69 71
f 77 154 69
f 245 77 69
f 69 154 126
f 245 69 247
f 246 74 70
f 74 342 70
f 267 70 78
f 70 342 78
f 246 70 267
f 71 126 72
f 248 71 72
f 247 71 248
f 248 72 231
f 250 73 74
f 73 360 74
f 249 73 250
f 73 358 360
f 250 74 246
f 74 360 342
f 75 154 77
f 266 75 77
f 83 149 75
f 285 83 75
f 75 149 154
f 263 75 265
f 285 75 263
f 265 75 266
f 268 78 76
f 78 344 76
f 286 76 84
f 76 326 84
f 268 76 264
f 264 76 286
f 76 324 326
f 76 344 324
f 266 77 245
f 267 78 268
f 78 342 344
f 79 148 80
f 282 79 80
f 87 148 79
f 281 87 79
f 281 79 282
f 80 148 83
f 285 80 83
f 282 80 285
f 284 81 82
f 81 307 82
f 283 84 81
f 84 326 81
f 283 81 284
f 81 326 307
f 294 82 88
f 82 308 88
f 284 82 294
f 82 307 308
f 83 148 149
f 286 84 283
f 85 148 87
f 293 85 87
f 91 148 85
f 302 91 85
f 291 85 293
f 302 85 291
f 294 88 86
f 88 310 86
f 86 298 92
f 304 86 92
f 294 86 292
f 292 86 303
f 86 296 298
f 86 310 296
f 303 86 304
f 293 87 281
f 88 308 310
f 89 168 91
f 301 89 91
f 103 168 89
f 299 103 89
f 299 89 301
f 92 288 90
f 300 92 90
f 90 288 104
f 322 90 104
f 300 90 322
f 91 168 148
f 301 91 302
f 92 298 288
f 304 92 300
f 93 164 103
f 319 93 103
f 111 164 93
f 311 111 93
f 311 93 319
f 336 95 94
f 336 94 113
f 312 96 95
f 312 95 336
f 313 97 96
f 313 96 312
f 320 98 97
f 314 97 313
f 320 97 314
f 315 99 98
f 315 98 321
f 321 98 320
f 316 100 99
f 316 99 315
f 317 101 100
f 317 100 316
f 337 114 101
f 337 101 317
f 104 290 102
f 322 104 102
f 102 276 116
f 339 102 116
f 102 290 276
f 322 102 318
f 318 102 339
f 103 164 168
f 319 103 299
f 104 288 290
f 105 164 111
f 334 105 111
f 129 164 105
f 349 129 105
f 327 105 333
f 349 105 327
f 333 105 334
f 328 107 106
f 351 106 130
f 328 106 351
f 335 112 107
f 329 107 328
f 335 107 329
f 330 109 108
f 338 108 115
f 330 108 338
f 352 131 109
f 331 109 330
f 352 109 331
f 116 280 110
f 340 116 110
f 110 262 132
f 354 110 132
f 110 258 262
f 110 280 258
f 340 110 332
f 332 110 354
f 334 111 311
f 335 113 112
f 336 113 335
f 337 115 114
f 338 115 337
f 116 276 280
f 339 116 340
f 314 117 118
f 313 141 117
f 313 117 314
f 320 118 119
f 314 118 320
f 320 119 120
f 320 120 121
f 321 121 122
f 320 121 321
f 321 122 123
f 315 123 124
f 321 123 315
f 316 124 142
f 315 124 316
f 125 184 129
f 349 125 129
f 153 184 125
f 365 153 125
f 345 125 349
f 365 125 345
f 350 130 126
f 367 126 154
f 350 126 346
f 346 126 367
f 352 127 131
f 368 155 127
f 347 127 353
f 368 127 347
f 353 127 352
f 132 240 128
f 348 132 128
f 128 244 156
f 370 128 156
f 128 240 244
f 348 128 370
f 129 184 164
f 351 130 350
f 132 262 240
f 354 132 348
f 312 133 134
f 133 575 160
f 336 133 312
f 328 133 329
f 351 133 328
f 329 133 335
f 335 133 336
f 346 133 350
f 367 133 346
f 350 133 351
f 362 133 366
f 382 133 362
f 366 133 367
f 378 133 382
f 394 133 378
f 390 133 394
f 410 133 390
f 409 133 410
f 409 567 133
f 133 567 575
f 312 134 137
f 317 135 136
f 317 146 135
f 317 136 161
f 312 137 138
f 313 138 139
f 312 138 313
f 313 139 140
f 313 140 141
f 316 142 143
f 316 143 144
f 316 144 145
f 317 145 146
f 316 145 317
f 147 184 153
f 365 147 153
f 167 180 147
f 381 167 147
f 147 180 184
f 361 147 365
f 381 147 361
f 366 149 148
f 382 148 168
f 366 148 362
f 362 148 382
f 367 154 149
f 367 149 366
f 368 151 150
f 368 150 155
f 383 169 151
f 363 151 369
f 383 151 363
f 369 151 368
f 156 226 152
f 364 156 152
f 152 226 170
f 384 152 170
f 364 152 384
f 156 244 226
f 370 156 364
f 159 560 157
f 157 559 176
f 157 560 559
f 337 162 158
f 337 158 177
f 160 574 159
f 159 573 560
f 159 574 573
f 160 575 574
f 337 161 162
f 317 161 337
f 163 180 167
f 381 163 167
f 183 180 163
f 377 183 163
f 377 163 381
f 382 168 164
f 394 164 184
f 382 164 378
f 378 164 394
f 383 165 169
f 395 185 165
f 379 165 383
f 395 165 379
f 170 230 166
f 380 170 166
f 166 212 186
f 396 166 186
f 166 230 212
f 380 166 396
f 170 226 230
f 384 170 380
f 172 552 171
f 171 556 190
f 171 552 551
f 171 551 556
f 175 552 172
f 338 173 174
f 338 178 173
f 338 174 191
f 176 564 175
f 175 563 552
f 175 564 563
f 176 559 564
f 337 177 178
f 337 178 338
f 179 180 183
f 179 198 180
f 393 179 183
f 197 198 179
f 389 197 179
f 389 179 393
f 394 184 180
f 409 180 198
f 394 180 390
f 390 180 410
f 410 180 409
f 395 181 185
f 411 201 181
f 391 181 395
f 411 181 391
f 186 216 182
f 396 186 182
f 182 196 202
f 182 216 196
f 414 182 202
f 396 182 392
f 392 182 414
f 393 183 377
f 186 212 216
f 189 544 187
f 187 548 206
f 187 544 543
f 187 543 548
f 330 192 188
f 331 188 207
f 330 188 331
f 190 556 189
f 189 555 544
f 189 556 555
f 330 191 192
f 338 191 330
f 193 198 197
f 407 193 197
f 213 198 193
f 403 213 193
f 403 193 408
f 408 193 407
f 410 199 194
f 450 194 199
f 426 194 214
f 450 214 194
f 410 194 404
f 404 194 426
f 411 195 200
f 454 200 195
f 427 215 195
f 195 215 454
f 405 195 411
f 427 195 405
f 413 202 196
f 428 196 216
f 413 196 406
f 406 196 428
f 407 197 389
f 410 198 199
f 449 199 198
f 209 198 213
f 227 198 209
f 221 198 227
f 241 198 221
f 235 198 241
f 259 198 235
f 251 198 259
f 277 198 251
f 269 198 277
f 289 198 269
f 287 198 289
f 297 198 287
f 295 198 297
f 309 198 295
f 306 198 305
f 305 198 309
f 325 198 306
f 323 198 325
f 343 198 323
f 341 198 343
f 359 198 341
f 356 198 355
f 355 198 359
f 375 198 356
f 372 198 371
f 371 198 375
f 387 198 372
f 385 198 387
f 401 198 385
f 398 198 397
f 397 198 401
f 419 198 398
f 409 198 410
f 416 198 415
f 415 198 419
f 435 198 416
f 430 198 429
f 429 198 436
f 431 198 430
f 455 198 431
f 436 198 435
f 449 198 456
f 456 198 455
f 450 199 449
f 412 200 201
f 201 200 454
f 411 200 412
f 412 201 411
f 414 202 413
f 205 539 203
f 203 539 219
f 352 208 204
f 352 204 220
f 206 548 205
f 205 547 539
f 205 548 547
f 331 207 208
f 331 208 352
f 425 209 213
f 421 227 209
f 421 209 425
f 426 214 210
f 450 210 214
f 446 210 228
f 450 228 210
f 426 210 422
f 422 210 446
f 427 211 215
f 215 211 454
f 447 229 211
f 453 211 229
f 423 211 427
f 447 211 423
f 454 211 453
f 428 216 212
f 448 212 230
f 428 212 424
f 424 212 448
f 425 213 403
f 219 541 217
f 217 537 233
f 217 535 537
f 217 541 535
f 352 220 218
f 353 218 234
f 352 218 353
f 219 539 541
f 445 221 227
f 463 241 221
f 439 221 445
f 463 221 439
f 441 222 223
f 451 223 222
f 446 228 222
f 450 222 228
f 440 222 441
f 446 222 440
f 451 222 450
f 242 223 451
f 464 223 242
f 441 223 464
f 443 224 225
f 225 224 453
f 453 224 243
f 465 243 224
f 442 224 443
f 465 224 442
f 447 225 229
f 229 225 453
f 443 225 447
f 448 230 226
f 466 226 244
f 448 226 444
f 444 226 466
f 445 227 421
f 233 537 231
f 231 532 248
f 231 529 532
f 231 537 529
f 395 234 232
f 533 232 249
f 395 232 391
f 391 232 411
f 411 232 412
f 412 232 530
f 530 232 533
f 353 234 347
f 347 234 368
f 369 234 363
f 363 234 383
f 368 234 369
f 383 234 379
f 379 234 395
f 463 235 241
f 487 259 235
f 459 235 463
f 487 235 459
f 237 236 475
f 488 236 237
f 451 236 242
f 464 242 236
f 475 236 451
f 464 236 460
f 460 236 488
f 475 260 237
f 488 237 260
f 452 239 238
f 461 238 239
f 480 238 261
f 489 261 238
f 452 238 480
f 489 238 461
f 243 239 452
f 465 239 243
f 461 239 465
f 462 244 240
f 490 240 262
f 462 240 490
f 453 243 452
f 466 244 462
f 247 531 245
f 245 527 266
f 245 525 527
f 245 531 525
f 526 250 246
f 528 246 267
f 526 246 528
f 248 532 247
f 247 532 531
f 534 249 250
f 533 249 534
f 534 250 526
f 487 251 259
f 481 277 251
f 481 251 487
f 476 253 252
f 483 252 253
f 476 252 260
f 488 260 252
f 482 252 483
f 488 252 482
f 476 254 253
f 501 253 254
f 483 253 500
f 500 253 501
f 477 278 254
f 501 254 278
f 477 254 476
f 479 256 255
f 505 255 256
f 479 255 279
f 504 279 255
f 504 255 505
f 479 257 256
f 485 256 257
f 484 256 485
f 505 256 484
f 480 261 257
f 489 257 261
f 480 257 479
f 485 257 489
f 486 262 258
f 506 258 280
f 486 258 506
f 476 260 475
f 490 262 486
f 265 521 263
f 263 521 285
f 522 268 264
f 524 264 286
f 522 264 524
f 266 527 265
f 265 527 521
f 522 267 268
f 528 267 522
f 499 269 277
f 491 289 269
f 491 269 499
f 469 271 270
f 493 270 271
f 468 270 278
f 502 278 270
f 469 270 468
f 492 270 493
f 502 270 492
f 470 272 271
f 494 271 272
f 470 271 469
f 493 271 494
f 471 273 272
f 495 272 273
f 471 272 470
f 494 272 495
f 274 273 472
f 496 273 274
f 472 273 471
f 495 273 496
f 275 274 473
f 497 274 275
f 473 274 472
f 496 274 497
f 474 279 275
f 504 275 279
f 474 275 473
f 497 275 503
f 503 275 504
f 498 280 276
f 510 276 290
f 498 276 510
f 499 277 481
f 468 278 467
f 467 278 477
f 501 278 502
f 478 279 474
f 479 279 478
f 506 280 498
f 282 517 281
f 281 519 293
f 281 517 519
f 285 523 282
f 282 523 517
f 520 283 284
f 518 286 283
f 518 283 520
f 520 284 294
f 285 521 523
f 524 286 518
f 509 287 289
f 513 297 287
f 507 287 509
f 513 287 507
f 510 290 288
f 515 288 298
f 510 288 508
f 508 288 516
f 516 288 515
f 509 289 491
f 293 519 291
f 291 511 302
f 291 519 511
f 512 294 292
f 515 292 303
f 512 292 515
f 520 294 512
f 514 295 297
f 519 309 295
f 511 295 514
f 519 295 511
f 512 298 296
f 520 296 310
f 512 296 520
f 514 297 513
f 515 298 512
f 301 513 299
f 299 509 319
f 299 507 509
f 299 513 507
f 508 304 300
f 510 300 322
f 508 300 510
f 302 514 301
f 301 514 513
f 302 511 514
f 516 303 304
f 515 303 516
f 516 304 508
f 519 306 305
f 519 305 309
f 517 325 306
f 517 306 519
f 518 308 307
f 524 307 326
f 518 307 524
f 520 310 308
f 520 308 518
f 319 491 311
f 311 491 334
f 498 322 318
f 506 318 339
f 498 318 506
f 319 509 491
f 510 322 498
f 523 323 325
f 521 343 323
f 521 323 523
f 522 326 324
f 528 324 344
f 522 324 528
f 523 325 517
f 524 326 522
f 333 481 327
f 327 481 349
f 486 340 332
f 490 332 354
f 486 332 490
f 334 499 333
f 333 499 481
f 334 491 499
f 486 339 340
f 506 339 486
f 527 341 343
f 531 359 341
f 525 341 527
f 531 341 525
f 528 344 342
f 533 342 360
f 528 342 526
f 526 342 534
f 534 342 533
f 527 343 521
f 349 487 345
f 345 459 365
f 345 487 459
f 462 354 348
f 466 348 370
f 462 348 466
f 349 481 487
f 490 354 462
f 529 356 355
f 532 355 359
f 529 355 532
f 537 375 356
f 537 356 529
f 538 358 357
f 538 357 376
f 533 360 358
f 533 358 530
f 530 358 538
f 532 359 531
f 365 463 361
f 361 439 381
f 361 463 439
f 444 370 364
f 448 364 384
f 444 364 448
f 365 459 463
f 466 370 444
f 535 372 371
f 537 371 375
f 535 371 537
f 541 387 372
f 541 372 535
f 542 374 373
f 542 373 388
f 538 376 374
f 538 374 536
f 536 374 542
f 381 445 377
f 377 425 393
f 377 421 425
f 377 445 421
f 424 384 380
f 428 380 396
f 424 380 428
f 381 439 445
f 448 384 424
f 541 385 387
f 547 401 385
f 539 385 541
f 547 385 539
f 540 388 386
f 549 386 402
f 540 386 550
f 550 386 549
f 542 388 540
f 393 403 389
f 389 403 408
f 389 408 407
f 413 396 392
f 413 392 414
f 393 425 403
f 406 396 413
f 428 396 406
f 543 398 397
f 548 397 401
f 543 397 548
f 555 419 398
f 544 398 543
f 555 398 544
f 545 400 399
f 557 399 420
f 545 399 558
f 558 399 557
f 549 402 400
f 546 400 545
f 549 400 546
f 548 401 547
f 404 568 410
f 426 568 404
f 405 411 572
f 572 427 405
f 410 567 409
f 410 568 567
f 411 412 572
f 412 530 538
f 536 412 538
f 542 412 536
f 540 412 542
f 550 412 540
f 545 412 546
f 558 412 545
f 546 412 549
f 549 412 550
f 553 412 554
f 566 412 553
f 554 412 557
f 557 412 558
f 561 412 562
f 578 412 561
f 562 412 565
f 565 412 566
f 572 412 576
f 576 412 577
f 577 412 578
f 551 416 415
f 556 415 419
f 551 415 556
f 552 435 416
f 552 416 551
f 553 418 417
f 566 417 438
f 553 417 566
f 557 420 418
f 554 418 553
f 557 418 554
f 556 419 555
f 422 568 426
f 446 568 422
f 572 423 427
f 571 447 423
f 571 423 572
f 564 430 429
f 564 429 436
f 559 431 430
f 559 430 564
f 573 455 431
f 560 431 559
f 573 431 560
f 561 433 432
f 578 432 458
f 561 432 578
f 562 434 433
f 562 433 561
f 565 437 434
f 565 434 562
f 563 436 435
f 563 435 552
f 564 436 563
f 565 438 437
f 566 438 565
f 441 569 440
f 440 568 446
f 440 569 568
f 464 569 441
f 571 442 443
f 465 442 571
f 571 443 447
f 567 450 449
f 574 449 456
f 567 449 575
f 575 449 574
f 568 451 450
f 568 450 567
f 581 475 451
f 569 451 568
f 581 451 569
f 570 453 452
f 591 452 480
f 570 452 592
f 592 452 591
f 571 454 453
f 571 453 570
f 576 457 454
f 572 454 571
f 576 454 572
f 573 456 455
f 574 456 573
f 577 458 457
f 577 457 576
f 578 458 577
f 460 581 464
f 488 582 460
f 460 582 581
f 570 461 465
f 592 489 461
f 592 461 570
f 464 581 569
f 570 465 571
f 584 468 467
f 584 467 477
f 585 469 468
f 585 468 584
f 586 470 469
f 586 469 585
f 579 471 470
f 579 470 586
f 580 472 471
f 580 471 579
f 587 473 472
f 587 472 580
f 588 474 473
f 588 473 587
f 589 478 474
f 589 474 588
f 582 476 475
f 582 475 581
f 583 477 476
f 583 476 582
f 584 477 583
f 589 479 478
f 590 480 479
f 590 479 589
f 591 480 590
f 483 583 482
f 482 583 488
f 500 583 483
f 590 484 485
f 590 505 484
f 591 485 489
f 590 485 591
f 488 583 582
f 591 489 592
f 493 586 492
f 492 585 502
f 492 586 585
f 494 579 493
f 493 579 586
f 495 580 494
f 494 580 579
f 587 495 496
f 580 495 587
f 588 496 497
f 587 496 588
f 588 497 503
f 501 583 500
f 502 585 501
f 501 584 583
f 501 585 584
f 503 504 589
f 588 503 589
f 590 504 505
f 589 504 590
