v 0.0599824028 -0.0133133535 0.0335208368
v 0.0599307327 -0.0132616882 0.0363111234
v 0.0599149017 -0.0132458572 0.0337457132
v 0.0598997765 -0.0132307272 0.0338029289
v 0.0598463993 -0.01317735 0.0340352702
v 0.0598046093 -0.0131355553 0.0342723083
v 0.0597746067 -0.0131055622 0.0345128942
v 0.0597565536 -0.0130875044 0.0347558522
v 0.0597505264 -0.0130814772 0.035
v 0.0597599392 -0.0130908947 0.0353050447
v 0.0597809963 -0.0131119471 0.0355475211
v 0.0598139553 -0.013144906 0.0357873297
v 0.0598586636 -0.0131896143 0.0360233021
v 0.0599149017 -0.0132458572 0.0362542868
v 0.0602488785 -0.0135798292 0.0328936481
v 0.0601736336 -0.0135045843 0.0330428243
v 0.0601736336 -0.0135045843 0.0369571757
v 0.0601980953 -0.0135290508 0.0370075178
v 0.0601497917 -0.0134807472 0.0330937624
v 0.0600820904 -0.0134130459 0.0332500005
v 0.0600009995 -0.0133319454 0.0365342999
v 0.0601040154 -0.0134349661 0.0368026328
v 0.0602122192 -0.0128360634 0.0339766979
v 0.060167511 -0.0127913551 0.0342126703
v 0.0601345425 -0.0127583914 0.0344524789
v 0.0601281624 -0.0127520065 0.0345128942
v 0.0601281624 -0.0127520065 0.0354871058
v 0.0601581554 -0.0127820044 0.0357276917
v 0.0601999454 -0.0128237944 0.0359647298
v 0.0602389126 -0.0128627567 0.0361394882
v 0.0601134949 -0.012737339 0.0346949553
v 0.060104454 -0.0127282982 0.0349389172
v 0.0601101093 -0.0127339487 0.0352441478
v 0.0601225262 -0.0127463703 0.0354265428
v 0.0604753952 -0.0138063507 0.0325251269
v 0.0604451256 -0.0137760763 0.0374313045
v 0.06041539 -0.0137463408 0.0326130056
v 0.0603295307 -0.0136604862 0.0327502441
v 0.0602751713 -0.013606122 0.0371548152
v 0.0603575878 -0.0136885386 0.037296207
v 0.060457571 -0.0130814152 0.0331973672
v 0.0603937702 -0.0130176144 0.0333568501
v 0.0604356461 -0.0130594902 0.0367499995
v 0.060480135 -0.0131039839 0.0368547177
v 0.0603545456 -0.0129783945 0.0334657001
v 0.0602684574 -0.0128923016 0.0337457132
v 0.0602533321 -0.0128771763 0.0338029289
v 0.0602533321 -0.0128771763 0.0361970711
v 0.0603359489 -0.0129597979 0.0364791632
v 0.0603738194 -0.0129976683 0.0365889668
v 0.0607359772 -0.0140669327 0.0322047758
v 0.0607406979 -0.0140716534 0.0349633503
v 0.060740469 -0.0140714245 0.035
v 0.0607017117 -0.0140326624 0.037758038
v 0.0606679039 -0.0139988594 0.0322799897
v 0.0605062084 -0.0138371592 0.0375176883
v 0.0607111435 -0.0133349829 0.032703793
v 0.060628727 -0.0132525663 0.0328451848
v 0.0606830864 -0.0133069305 0.0372497559
v 0.0607397633 -0.0133636074 0.0373419571
v 0.060551651 -0.0131754999 0.0329924822
v 0.0605033474 -0.0131271915 0.0330937624
v 0.0605271893 -0.0131510334 0.0369571757
v 0.0606024246 -0.0132262735 0.0371063519
v 0.060987957 -0.0143189125 0.0319689107
v 0.0609266548 -0.0142576056 0.0339819002
v 0.0609943371 -0.0143252926 0.0361743045
v 0.0609507446 -0.0142816954 0.0380000854
v 0.0609139137 -0.0142448645 0.0320318317
v 0.060839098 -0.0141700535 0.034247427
v 0.0607845764 -0.0141155319 0.0344919634
v 0.0607515411 -0.0140824919 0.0347440743
v 0.0607785301 -0.0141094856 0.0354723978
v 0.0608300285 -0.0141609745 0.0357182431
v 0.0609142857 -0.0142452412 0.0359858894
v 0.0607707005 -0.014101656 0.0378315592
v 0.0608910923 -0.0135149364 0.0324402618
v 0.0609881287 -0.0136119776 0.0376811552
v 0.0608597546 -0.0134836035 0.0324823117
v 0.0607689457 -0.0133927898 0.0326130056
v 0.0608289509 -0.013452795 0.0374748731
v 0.0608597546 -0.0134836035 0.0375176883
v 0.0612187748 -0.0145497255 0.0318025899
v 0.0611938839 -0.0145248346 0.033489387
v 0.0611753922 -0.0145063477 0.0335150766
v 0.0611753922 -0.0145063477 0.0364849234
v 0.0612317924 -0.0145627432 0.0365606046
v 0.0611794739 -0.0145104246 0.0381720781
v 0.0611404877 -0.0144714336 0.0318542218
v 0.061039484 -0.0143704348 0.0337361884
v 0.0610090141 -0.0143399696 0.0337954903
v 0.0610240631 -0.0143550186 0.0362343502
v 0.0611572342 -0.0144881849 0.0364587831
v 0.0610255508 -0.0143565063 0.0380611682
v 0.0611594181 -0.013783267 0.0321329689
v 0.0612443047 -0.0138681536 0.0340794206
v 0.0611835747 -0.0138074236 0.0342817569
v 0.0611320858 -0.0137559299 0.0345276022
v 0.0611264782 -0.0137503223 0.0354366136
v 0.0611381321 -0.013761981 0.0355080366
v 0.0611926537 -0.0138164978 0.035752573
v 0.061231039 -0.0138548832 0.0379353476
v 0.0610552673 -0.0136791115 0.032241962
v 0.0610214596 -0.0136453085 0.0322799897
v 0.0611213093 -0.0137451534 0.0345993018
v 0.0611021595 -0.0137260084 0.0347804904
v 0.0610940247 -0.0137178736 0.035
v 0.0611050968 -0.013728941 0.0352559257
v 0.0610214596 -0.0136453085 0.0377200103
v 0.0611242561 -0.0137481003 0.0378315592
v 0.0614606171 -0.0147915726 0.0316713023
v 0.0614385109 -0.0147694569 0.033219099
v 0.061482933 -0.0148138885 0.0368186545
v 0.0614196568 -0.0147506075 0.0383093143
v 0.0613789444 -0.0147098904 0.0317110753
v 0.0612982922 -0.0146292429 0.0317548561
v 0.0614166527 -0.0147476034 0.0332387924
v 0.0612511997 -0.0145821505 0.0334151101
v 0.0613950329 -0.0147259884 0.0367409778
v 0.0614166527 -0.0147476034 0.0367612076
v 0.0612583904 -0.0145893412 0.0382217669
v 0.06133848 -0.0146694355 0.0382675314
v 0.0613791065 -0.0140029554 0.0319388318
v 0.0614929466 -0.0141167908 0.0335678029
v 0.0613776188 -0.0140014677 0.0337656498
v 0.0613776188 -0.0140014677 0.0362343502
v 0.0613930397 -0.0140168839 0.0362638116
v 0.0614940338 -0.0141178827 0.0381457782
v 0.0613043003 -0.0139281397 0.0319999146
v 0.0612674694 -0.0138913136 0.0320318317
v 0.0613625698 -0.0139864187 0.0337954903
v 0.0612678413 -0.0138916855 0.0340141106
v 0.0612558727 -0.0138797169 0.0359533811
v 0.0612802105 -0.0139040499 0.0360180998
v 0.0612674694 -0.0138913136 0.0379681683
v 0.0613415127 -0.0139653568 0.0380310893
v 0.0617108421 -0.0150417929 0.0315764832
v 0.061669138 -0.0150000887 0.0330529141
v 0.061741951 -0.0150729065 0.0369855881
v 0.0617108421 -0.0150417929 0.0384235168
v 0.0616686707 -0.0149996214 0.0315897059
v 0.0615054874 -0.0148364429 0.0331632996
v 0.0616451912 -0.0149761419 0.0369330597
v 0.0615018158 -0.0148327665 0.0383470678
v 0.0616920357 -0.0143158798 0.0317324686
v 0.0616518478 -0.014275692 0.0317548561
v 0.0617485886 -0.0143724375 0.0332590222
v 0.0616444569 -0.014268301 0.0366320062
v 0.0616518478 -0.014275692 0.0382451439
v 0.0617324905 -0.0143563395 0.0382889247
v 0.06153302 -0.0141568689 0.0318279219
v 0.0616244583 -0.0142483072 0.0333913064
v 0.0615289478 -0.0141527967 0.0335150766
v 0.0615107803 -0.0141346292 0.0364587831
v 0.0615474396 -0.014171279 0.036510613
v 0.0616119366 -0.0142357855 0.0382217669
v 0.0619667034 -0.0152976542 0.0315191722
v 0.0619420605 -0.0152730112 0.0329385829
v 0.0619931011 -0.0153240566 0.0370741463
v 0.0619237881 -0.0152547388 0.0384739113
v 0.0618809586 -0.0152119141 0.0315340614
v 0.0617912464 -0.0151221972 0.0329917598
v 0.0617665272 -0.0150974827 0.0330027819
v 0.0617665272 -0.0150974827 0.0369972181
v 0.0619166641 -0.0152476149 0.0370541096
v 0.0617531662 -0.0150841217 0.0384356952
v 0.06189678 -0.0145206289 0.0316355848
v 0.0619987469 -0.014622591 0.0330669403
v 0.0618818169 -0.0145056658 0.0368541908
v 0.0619802265 -0.0146040707 0.0383960342
v 0.0617732124 -0.0143970566 0.0316906857
v 0.0618590431 -0.014482892 0.0331632996
v 0.0617701988 -0.0143940477 0.0367612076
v 0.0618553715 -0.0144792109 0.0383470678
v 0.0622253971 -0.0155563478 0.031500001
v 0.0621735744 -0.0155045252 0.0329012799
v 0.0622253971 -0.0155563478 0.0371000004
v 0.0621822052 -0.0155131559 0.0384994674
v 0.0621390228 -0.0154699783 0.0315021324
v 0.0620187359 -0.0153496866 0.0329204369
v 0.0621476822 -0.0154786329 0.0370971227
v 0.0620096951 -0.0153406506 0.038486681
v 0.062149189 -0.0147730379 0.0315531731
v 0.0622449188 -0.0148687582 0.0329538226
v 0.0621448021 -0.0147686462 0.0370082402
v 0.0622345142 -0.0148583584 0.0384659386
v 0.0620222263 -0.0146460705 0.0315897059
v 0.0621200829 -0.014743927 0.0330027819
v 0.0620226841 -0.014646533 0.0369470859
v 0.0621067219 -0.014730566 0.0384356952
v 0.0624840908 -0.0158150463 0.0315191722
v 0.0624320583 -0.0157630091 0.0329204369
v 0.0624832516 -0.0158142023 0.0370680952
v 0.0624410992 -0.0157720499 0.038486681
v 0.0623980312 -0.0157289867 0.0315085268
v 0.0622513084 -0.0155822639 0.0329003191
v 0.0624063663 -0.0157373171 0.0370843458
v 0.062268589 -0.0155995398 0.0384994674
v 0.0624063091 -0.015030158 0.0315085268
v 0.0624753647 -0.0150992136 0.0329051161
v 0.0623979836 -0.0150218277 0.0370843458
v 0.0624925785 -0.0151164227 0.0384978676
v 0.0622773342 -0.0149011831 0.0315260887
v 0.0623722916 -0.0149961357 0.0329204369
v 0.0622702198 -0.0148940639 0.0370541096
v 0.0623632507 -0.0149870949 0.038486681
v 0.0627399521 -0.0160709028 0.0315764832
v 0.062684267 -0.0160152178 0.0330027819
v 0.0627332668 -0.0160642223 0.0369733548
v 0.062697628 -0.0160285788 0.0384356952
v 0.0626551514 -0.0159861069 0.0315531731
v 0.0625087337 -0.0158396845 0.0329385829
v 0.0626595478 -0.0159904985 0.0370082402
v 0.0625270061 -0.0158579617 0.0384739113
v 0.0626653175 -0.0152891665 0.0315021324
v 0.0627341633 -0.0153580122 0.0329115033
v 0.0626307755 -0.0152546196 0.0370987201
v 0.0627084713 -0.0153323202 0.0384952044
v 0.0625357609 -0.015159605 0.0315005326
v 0.0626048641 -0.015228713 0.0329003191
v 0.0625012379 -0.015125082 0.0370971227
v 0.0626221447 -0.0152459888 0.0384994674
v 0.0629901772 -0.0163211279 0.0316713023
v 0.0629225235 -0.016253479 0.0331458092
v 0.0629901867 -0.0163211422 0.0368000507
v 0.0629489784 -0.0162799339 0.0383470678
v 0.0629075603 -0.0162385159 0.0316355848
v 0.0627575474 -0.0160884981 0.0330394816
v 0.0628995399 -0.0162304907 0.0368711138
v 0.0627821236 -0.0161130743 0.0384102941
v 0.0628805618 -0.015504406 0.0315260887
v 0.0629882507 -0.0156120949 0.0329813504
v 0.0628876858 -0.0155115299 0.0370541096
v 0.0629661064 -0.0155899506 0.0384569097
v 0.0627515869 -0.0153754358 0.0315085268
v 0.0628622894 -0.0154861336 0.0329385829
v 0.0627599125 -0.0153837614 0.0370843458
v 0.0628376465 -0.0154614906 0.0384808278
v 0.0632320194 -0.0165629702 0.0318025899
v 0.0631798916 -0.0165108423 0.0333913064
v 0.0632381134 -0.0165690641 0.0365358424
v 0.0631924038 -0.0165233593 0.0382217669
v 0.0631123142 -0.016443265 0.0317324686
v 0.0631525021 -0.0164834528 0.0317548561
v 0.0630122833 -0.0163432388 0.033219099
v 0.0630557518 -0.0163867073 0.0332590222
v 0.063159893 -0.0164908438 0.0366320062
v 0.0630341415 -0.016365097 0.0367612076
v 0.0631525021 -0.0164834528 0.0382451439
v 0.0630311375 -0.0163620882 0.0383093143
v 0.0631356792 -0.0157595234 0.0315897059
v 0.0632299023 -0.0158537416 0.0331125331
v 0.0631352119 -0.0157590561 0.0369470859
v 0.0632194977 -0.0158433418 0.0383807397
v 0.063008707 -0.0156325512 0.0315531731
v 0.0630131035 -0.0156369476 0.0329917598
v 0.0631111031 -0.0157349472 0.0330394816
v 0.0630378132 -0.0156616621 0.0369972181
v 0.0630131035 -0.0156369476 0.0370082402
v 0.0630935078 -0.0157173519 0.0384235168
v 0.0634628372 -0.016793788 0.0319689107
v 0.0634267216 -0.0167576771 0.0337656498
v 0.0634982281 -0.0168291788 0.0360815811
v 0.0634252434 -0.0167561941 0.0380611682
v 0.0633872776 -0.0167182331 0.0319096828
v 0.0632569103 -0.0165878658 0.033489387
v 0.0632753925 -0.016606348 0.0335150766
v 0.0634113102 -0.0167422609 0.0362638116
v 0.0632569103 -0.0165878658 0.036510613
v 0.0632713203 -0.0166022758 0.0381720781
v 0.0633846931 -0.0160085373 0.0316906857
v 0.0633876972 -0.0160115414 0.0332387924
v 0.0634931641 -0.0161170082 0.0333451772
v 0.0634093075 -0.0160331564 0.0367409778
v 0.0633876972 -0.0160115414 0.0367612076
v 0.0634658699 -0.0160897093 0.0382675314
v 0.063261116 -0.0158849649 0.0316355848
v 0.063365839 -0.0159896879 0.033219099
v 0.0632530956 -0.015876935 0.0368711138
v 0.0633437328 -0.0159675722 0.0383286977
v 0.0637490826 -0.0170800333 0.032241962
v 0.0636722641 -0.0170032148 0.0345276022
v 0.0637021904 -0.0170331411 0.0347804904
v 0.0637103252 -0.0170412712 0.035
v 0.0636992531 -0.0170302038 0.0352559257
v 0.0636800938 -0.0170110445 0.0378315592
v 0.0635000496 -0.0168310051 0.0319999146
v 0.0636449223 -0.0169758778 0.0321329689
v 0.0635113792 -0.01684233 0.0339499998
v 0.0635365086 -0.0168674593 0.0340141106
v 0.0636207657 -0.0169517212 0.0342817569
v 0.0636662083 -0.0169971638 0.0355080366
v 0.0636116962 -0.016942647 0.035752573
v 0.0635241394 -0.0168550949 0.0360180998
v 0.0635368805 -0.0168678312 0.0379681683
v 0.0635000496 -0.0168310051 0.0380000854
v 0.0636638622 -0.0162877111 0.0318542218
v 0.0637490826 -0.0163729315 0.0337071109
v 0.0636289482 -0.0162527971 0.0364849234
v 0.0637408333 -0.0163646774 0.0380903172
v 0.0635060577 -0.0161299019 0.0317548561
v 0.063610466 -0.0162343102 0.033489387
v 0.0635134392 -0.0161372881 0.0366320062
v 0.063624876 -0.0162487249 0.0381720781
v 0.0639445858 -0.0172755413 0.0324823117
v 0.063975399 -0.0173063498 0.0325251269
v 0.063975399 -0.0173063498 0.0374748731
v 0.0639445858 -0.0172755413 0.0375176883
v 0.0639132576 -0.0172442083 0.0324402618
v 0.0637828808 -0.0171138363 0.0377200103
v 0.0638904362 -0.0165142803 0.0320318317
v 0.0638776951 -0.0165015392 0.0339819002
v 0.0639652424 -0.0165890913 0.034247427
v 0.0639989929 -0.0166228371 0.0343860197
v 0.0639743214 -0.0165981703 0.0357182431
v 0.0638900642 -0.0165139084 0.0359858894
v 0.0638776951 -0.0165015392 0.0360180998
v 0.0639984779 -0.0166223269 0.0378670311
v 0.0637787895 -0.0164026384 0.0319388318
v 0.0637648659 -0.01638871 0.0337361884
v 0.0638649349 -0.0164887791 0.0339499998
v 0.0637802773 -0.0164041262 0.0362343502
v 0.0637648659 -0.01638871 0.0362638116
v 0.0638536053 -0.0164774494 0.0380000854
v 0.0642276077 -0.0175585632 0.0329427505
v 0.0641756229 -0.0175065784 0.0371548152
v 0.0640932064 -0.0174241619 0.032703793
v 0.0641487389 -0.0174796896 0.0327973795
v 0.0641212635 -0.0174522142 0.0372497559
v 0.0640056686 -0.0173366241 0.0374313045
v 0.0641364365 -0.0167602854 0.0322799897
v 0.0642349606 -0.0168588095 0.037601006
v 0.0640336399 -0.0166574888 0.0321684408
v 0.0640197639 -0.0166436129 0.0344919634
v 0.0640528088 -0.0166766529 0.0347440743
v 0.064063652 -0.0166874962 0.0349633503
v 0.0640557365 -0.0166795855 0.0352195096
v 0.0640258198 -0.0166496592 0.0354723978
v 0.0640063553 -0.0166301947 0.0355788374
v 0.0641026382 -0.0167264824 0.037758038
v 0.0644497948 -0.0177807503 0.0334657001
v 0.064486311 -0.0178172569 0.0335764217
v 0.0644683914 -0.0177993469 0.0364791632
v 0.064430521 -0.0177614765 0.0365889668
v 0.0642526989 -0.0175836449 0.0329924822
v 0.0643467789 -0.0176777296 0.0331973672
v 0.0644105797 -0.0177415352 0.0333568501
v 0.0643687038 -0.0176996546 0.0367499995
v 0.0642771606 -0.0176081114 0.0369571757
v 0.0642526989 -0.0175836449 0.0370075178
v 0.0643889599 -0.017012804 0.0326130056
v 0.0644748096 -0.0170986586 0.0327502441
v 0.0644748096 -0.0170986586 0.0372497559
v 0.0644467621 -0.0170706062 0.037296207
v 0.0642668133 -0.0168906574 0.0324402618
v 0.0643289547 -0.0169527941 0.0325251269
v 0.0643592243 -0.0169830732 0.0374313045
v 0.0642981415 -0.0169219856 0.0375176883
v 0.0646697979 -0.0180007534 0.0344524789
v 0.064690855 -0.0180218058 0.0346949553
v 0.0646998959 -0.0180308466 0.0349389172
v 0.0647002678 -0.0180312233 0.035
v 0.0646761875 -0.0180071383 0.0354871058
v 0.0646697979 -0.0180007534 0.0355475211
v 0.0645358925 -0.0178668432 0.0337457132
v 0.0645921307 -0.0179230814 0.0339766979
v 0.0646368389 -0.0179677944 0.0342126703
v 0.064662674 -0.0179936247 0.0343922305
v 0.0646461849 -0.0179771404 0.0357276917
v 0.0646043949 -0.0179353504 0.0359647298
v 0.0645510178 -0.0178819685 0.0361970711
v 0.0645035343 -0.0178344803 0.0363675594
v 0.0646307163 -0.0172545605 0.0330428243
v 0.06472225 -0.0173460989 0.0332500005
v 0.0647435265 -0.0173673706 0.0366968346
v 0.0647003345 -0.0173241787 0.0368026328
v 0.064502285 -0.0171261339 0.0327973795
v 0.064606245 -0.017230094 0.0370075178
v 0.0648894482 -0.0175132875 0.0337457132
v 0.0649045734 -0.0175284176 0.0338029289
v 0.0649579506 -0.0175817947 0.0340352702
v 0.0649997406 -0.0176235895 0.0342723083
v 0.0649997406 -0.0176235895 0.0357276917
v 0.0649903946 -0.0176142387 0.0357873297
v 0.0649456863 -0.0175695305 0.0360233021
v 0.0648894482 -0.0175132875 0.0362542868
v 0.0647641354 -0.0173879795 0.0333568501
v 0.0648219471 -0.0174457912 0.0335208368
v 0.0648736172 -0.0174974566 0.0363111234
v 0.0648033504 -0.0174271994 0.0365342999
v 0.0650083523 -0.0176322012 0.0343321681
v 0.0650297432 -0.0176535826 0.0345128942
v 0.0650477962 -0.0176716404 0.0347558522
v 0.0650538235 -0.0176776676 0.035
v 0.0650444107 -0.0176682501 0.0353050447
v 0.0650233536 -0.0176471977 0.0355475211
f 3 46 1
f 90 3 1
f 1 46 20
f 84 1 20
f 85 1 84
f 90 1 85
f 2 49 14
f 14 93 2
f 21 50 2
f 2 86 21
f 2 50 49
f 2 93 86
f 4 47 3
f 91 4 3
f 3 47 46
f 91 3 90
f 5 24 4
f 66 5 4
f 4 24 23
f 4 23 47
f 66 4 91
f 6 25 5
f 70 6 5
f 5 25 24
f 70 5 66
f 7 26 6
f 71 7 6
f 6 26 25
f 71 6 70
f 8 32 7
f 72 8 7
f 7 31 26
f 7 32 31
f 72 7 71
f 9 33 8
f 52 9 8
f 8 33 32
f 52 8 72
f 10 34 9
f 9 73 10
f 9 34 33
f 53 9 52
f 9 53 73
f 11 28 10
f 10 74 11
f 10 28 27
f 10 27 34
f 10 73 74
f 12 29 11
f 11 75 12
f 11 29 28
f 11 74 75
f 13 30 12
f 12 75 13
f 12 30 29
f 14 49 13
f 13 92 14
f 13 48 30
f 13 49 48
f 13 75 67
f 13 67 92
f 14 92 93
f 16 62 15
f 163 16 15
f 15 61 38
f 325 15 38
f 15 62 61
f 162 15 158
f 158 15 180
f 163 15 162
f 180 15 176
f 176 15 325
f 19 62 16
f 138 19 16
f 138 16 163
f 18 64 17
f 17 139 18
f 17 63 22
f 22 143 17
f 17 64 63
f 17 143 139
f 39 59 18
f 39 18 177
f 18 59 64
f 139 164 18
f 165 159 18
f 159 181 18
f 18 164 165
f 181 177 18
f 20 42 19
f 112 20 19
f 19 42 41
f 19 41 62
f 112 19 142
f 142 19 138
f 20 45 42
f 20 46 45
f 84 20 118
f 117 20 112
f 118 20 117
f 22 44 21
f 21 120 22
f 21 44 43
f 21 43 50
f 21 86 87
f 21 87 119
f 119 120 21
f 22 63 44
f 22 120 113
f 22 113 143
f 24 131 23
f 23 131 47
f 25 96 24
f 24 96 132
f 24 132 131
f 26 97 25
f 25 97 96
f 31 98 26
f 26 98 97
f 28 100 27
f 27 99 34
f 27 100 99
f 29 101 28
f 28 101 100
f 30 133 29
f 29 133 101
f 48 134 30
f 30 134 133
f 32 105 31
f 31 105 98
f 33 106 32
f 32 106 105
f 34 108 33
f 33 107 106
f 33 108 107
f 34 99 108
f 37 80 35
f 327 37 35
f 35 80 55
f 305 35 55
f 306 35 305
f 327 35 306
f 36 81 40
f 36 40 177
f 56 82 36
f 177 56 36
f 36 82 81
f 38 58 37
f 327 38 37
f 37 58 57
f 37 57 80
f 38 61 58
f 325 38 328
f 328 38 327
f 40 60 39
f 40 39 177
f 39 60 59
f 40 81 60
f 42 172 41
f 41 168 62
f 172 168 41
f 45 147 42
f 42 147 172
f 44 173 43
f 43 155 50
f 43 148 155
f 43 173 148
f 63 169 44
f 44 169 173
f 46 152 45
f 45 152 147
f 47 125 46
f 46 125 124
f 46 124 153
f 46 153 152
f 47 131 125
f 49 134 48
f 50 154 49
f 49 127 126
f 49 126 134
f 49 154 127
f 50 155 154
f 55 104 51
f 281 55 51
f 51 103 69
f 281 51 69
f 51 104 103
f 52 106 53
f 72 105 52
f 52 105 106
f 53 107 73
f 53 106 107
f 54 110 56
f 177 54 56
f 76 110 54
f 177 76 54
f 55 79 77
f 55 77 104
f 55 80 79
f 309 55 281
f 305 55 309
f 56 78 82
f 56 109 78
f 56 110 109
f 58 220 57
f 57 220 80
f 61 220 58
f 354 59 60
f 378 64 59
f 353 59 354
f 378 59 353
f 354 60 81
f 62 168 61
f 168 188 61
f 61 188 184
f 61 184 204
f 204 200 61
f 61 200 220
f 64 189 63
f 63 189 169
f 64 185 189
f 64 205 185
f 64 201 205
f 64 221 201
f 378 221 64
f 69 130 65
f 287 69 65
f 65 129 89
f 261 65 89
f 65 130 129
f 287 65 261
f 66 131 70
f 91 131 66
f 75 133 67
f 67 134 92
f 67 133 134
f 68 136 76
f 68 76 177
f 94 128 68
f 177 94 68
f 68 128 136
f 69 103 95
f 69 95 130
f 281 69 288
f 288 69 287
f 70 96 71
f 70 132 96
f 70 131 132
f 71 97 72
f 71 96 97
f 72 97 98
f 72 98 105
f 73 99 74
f 73 108 99
f 73 107 108
f 74 100 75
f 74 99 100
f 75 100 101
f 75 101 133
f 76 102 110
f 76 135 102
f 76 136 135
f 79 220 77
f 77 220 104
f 358 82 78
f 332 78 109
f 358 78 332
f 80 220 79
f 358 81 82
f 354 81 357
f 357 81 358
f 89 123 83
f 265 89 83
f 83 151 116
f 239 83 116
f 83 123 151
f 265 83 239
f 84 152 85
f 118 152 84
f 85 153 90
f 85 152 153
f 86 154 87
f 93 154 86
f 87 155 119
f 87 154 155
f 88 156 94
f 88 94 177
f 121 156 88
f 177 121 88
f 89 129 123
f 261 89 265
f 90 124 91
f 90 153 124
f 91 124 125
f 91 125 131
f 92 126 93
f 92 134 126
f 93 126 127
f 93 127 154
f 94 156 128
f 103 220 95
f 95 220 130
f 318 110 102
f 318 102 135
f 104 220 103
f 340 109 110
f 332 109 340
f 340 110 318
f 115 145 111
f 243 115 111
f 111 171 141
f 223 111 141
f 111 145 171
f 243 111 223
f 112 172 117
f 142 172 112
f 120 173 113
f 113 173 143
f 114 174 122
f 114 122 177
f 144 174 114
f 177 144 114
f 116 146 115
f 243 116 115
f 115 146 145
f 116 151 146
f 239 116 244
f 244 116 243
f 117 172 118
f 118 147 152
f 118 172 147
f 119 148 120
f 119 155 148
f 120 148 173
f 122 150 121
f 177 122 121
f 121 150 149
f 121 149 156
f 122 174 150
f 129 220 123
f 123 220 151
f 324 136 128
f 304 128 156
f 300 128 304
f 324 128 300
f 130 220 129
f 324 135 136
f 318 135 324
f 141 187 137
f 207 141 137
f 137 187 161
f 207 137 161
f 138 188 142
f 163 188 138
f 143 169 139
f 139 189 164
f 139 169 189
f 177 140 144
f 140 190 144
f 177 166 140
f 166 190 140
f 141 171 167
f 141 167 187
f 227 141 207
f 223 141 227
f 142 168 172
f 142 188 168
f 143 173 169
f 144 170 174
f 144 190 170
f 146 220 145
f 145 220 171
f 151 220 146
f 276 149 150
f 304 156 149
f 304 149 276
f 276 150 174
f 161 183 157
f 211 161 157
f 191 157 179
f 157 203 179
f 157 183 203
f 211 157 191
f 158 204 162
f 180 204 158
f 165 205 159
f 159 205 181
f 160 166 177
f 160 206 166
f 177 182 160
f 182 206 160
f 161 187 183
f 207 161 211
f 162 184 163
f 162 204 184
f 163 184 188
f 164 189 165
f 165 189 185
f 165 185 205
f 166 186 190
f 166 206 186
f 171 220 167
f 167 220 187
f 280 174 170
f 254 170 190
f 280 170 254
f 276 174 280
f 195 179 175
f 179 199 175
f 175 219 195
f 175 199 219
f 176 220 180
f 196 220 176
f 176 325 196
f 178 182 177
f 177 198 178
f 181 221 177
f 197 198 177
f 177 221 197
f 178 222 182
f 198 222 178
f 191 179 195
f 179 203 199
f 180 200 204
f 180 220 200
f 181 205 201
f 181 201 221
f 182 202 206
f 182 222 202
f 187 220 183
f 183 220 203
f 260 190 186
f 234 186 206
f 260 186 234
f 254 190 260
f 195 235 191
f 191 235 211
f 192 236 196
f 196 325 192
f 212 236 192
f 192 325 212
f 193 214 197
f 197 237 193
f 213 210 193
f 193 210 214
f 193 237 213
f 197 194 198
f 197 214 194
f 194 238 198
f 214 234 194
f 194 234 238
f 195 219 215
f 195 215 235
f 196 216 220
f 196 236 216
f 197 221 217
f 197 217 237
f 198 218 222
f 198 238 218
f 203 220 199
f 199 220 219
f 238 206 202
f 218 202 222
f 238 202 218
f 234 206 238
f 211 255 207
f 207 255 227
f 208 257 212
f 212 325 208
f 228 257 208
f 208 325 228
f 209 226 213
f 213 259 209
f 209 250 226
f 229 250 209
f 209 258 229
f 209 259 258
f 213 230 210
f 210 260 214
f 230 254 210
f 210 254 260
f 211 235 231
f 211 231 255
f 212 232 236
f 212 256 232
f 212 257 256
f 213 226 230
f 213 237 233
f 213 233 259
f 214 260 234
f 215 220 216
f 215 216 235
f 219 220 215
f 235 216 231
f 231 216 236
f 378 217 221
f 378 237 217
f 227 277 223
f 223 277 243
f 224 278 228
f 228 325 224
f 245 278 224
f 224 325 245
f 225 270 229
f 229 279 225
f 225 279 248
f 248 295 225
f 225 264 270
f 225 296 264
f 225 295 296
f 226 280 230
f 250 276 226
f 226 276 280
f 227 255 251
f 227 251 277
f 228 252 257
f 228 278 252
f 229 242 249
f 229 270 242
f 229 249 250
f 229 258 253
f 229 253 279
f 230 280 254
f 231 236 255
f 255 236 232
f 255 232 251
f 251 232 277
f 277 232 256
f 233 237 378
f 378 259 233
f 244 301 239
f 239 301 265
f 240 302 246
f 246 325 240
f 266 302 240
f 240 325 266
f 247 303 241
f 241 310 247
f 241 303 269
f 269 308 241
f 241 308 310
f 242 304 249
f 270 304 242
f 243 271 244
f 243 277 271
f 244 271 301
f 246 273 245
f 245 325 246
f 245 273 272
f 245 272 278
f 246 302 273
f 248 275 247
f 247 295 248
f 247 275 274
f 247 274 303
f 247 286 295
f 247 310 286
f 248 279 275
f 249 304 250
f 250 304 276
f 301 257 252
f 297 252 278
f 301 252 297
f 378 253 258
f 279 253 378
f 277 256 257
f 277 257 271
f 271 257 301
f 258 259 378
f 265 297 261
f 261 319 287
f 261 297 319
f 262 321 267
f 267 325 262
f 289 321 262
f 262 347 289
f 262 325 345
f 262 345 346
f 262 346 347
f 268 323 263
f 263 326 268
f 263 322 294
f 294 348 263
f 263 323 322
f 263 350 326
f 263 348 349
f 263 349 350
f 264 324 270
f 296 324 264
f 265 301 297
f 267 298 266
f 266 325 267
f 266 298 302
f 267 320 298
f 267 321 320
f 269 303 268
f 268 307 269
f 268 303 299
f 268 299 323
f 268 330 307
f 268 326 329
f 268 329 330
f 269 307 308
f 270 300 304
f 270 324 300
f 311 272 273
f 311 278 272
f 331 273 302
f 311 273 333
f 333 273 331
f 378 274 275
f 303 274 378
f 275 279 378
f 297 278 319
f 319 278 311
f 288 311 281
f 281 333 309
f 281 311 333
f 283 336 282
f 282 360 283
f 282 335 291
f 291 367 282
f 282 336 335
f 282 359 360
f 282 368 359
f 282 367 368
f 284 337 283
f 283 362 284
f 283 337 336
f 283 360 361
f 283 361 362
f 285 338 284
f 284 363 285
f 284 338 337
f 284 362 363
f 292 339 285
f 285 370 292
f 285 339 338
f 285 363 364
f 285 364 369
f 285 369 370
f 286 340 295
f 310 332 286
f 286 332 340
f 287 319 288
f 288 319 311
f 290 313 289
f 289 347 290
f 289 313 312
f 289 312 321
f 291 314 290
f 290 366 291
f 290 314 313
f 290 341 342
f 290 347 341
f 290 342 365
f 290 365 366
f 291 334 314
f 291 335 334
f 291 366 367
f 293 316 292
f 292 371 293
f 292 316 315
f 292 315 339
f 292 370 371
f 294 317 293
f 293 348 294
f 293 317 316
f 293 343 344
f 293 372 343
f 293 344 348
f 293 371 372
f 294 322 317
f 295 318 296
f 295 340 318
f 296 318 324
f 356 302 298
f 377 298 320
f 351 298 352
f 356 298 351
f 352 298 377
f 299 303 378
f 378 323 299
f 331 302 355
f 355 302 356
f 305 355 306
f 309 355 305
f 306 356 327
f 306 355 356
f 307 357 308
f 330 357 307
f 308 358 310
f 308 357 358
f 309 333 331
f 309 331 355
f 310 358 332
f 387 312 313
f 374 321 312
f 374 312 387
f 380 313 314
f 379 313 380
f 388 313 379
f 387 313 388
f 381 314 334
f 380 314 381
f 385 315 316
f 384 339 315
f 384 315 385
f 390 316 317
f 385 316 386
f 386 316 389
f 389 316 390
f 375 317 322
f 390 317 375
f 377 320 321
f 373 321 374
f 377 321 373
f 378 322 323
f 375 322 376
f 376 322 378
f 328 377 325
f 325 377 345
f 326 378 329
f 350 378 326
f 327 351 328
f 327 356 351
f 328 351 352
f 328 352 377
f 329 353 330
f 329 378 353
f 330 353 354
f 330 354 357
f 381 334 335
f 392 335 336
f 381 335 382
f 382 335 391
f 391 335 392
f 394 336 337
f 392 336 393
f 393 336 394
f 395 337 338
f 394 337 395
f 384 338 339
f 383 338 384
f 396 338 383
f 395 338 396
f 341 387 342
f 347 387 341
f 342 388 365
f 342 387 388
f 343 389 344
f 372 389 343
f 344 390 348
f 344 389 390
f 345 377 346
f 346 373 347
f 346 377 373
f 347 373 374
f 347 374 387
f 348 375 349
f 348 390 375
f 349 376 350
f 349 375 376
f 350 376 378
f 359 391 360
f 368 391 359
f 360 392 361
f 360 391 392
f 361 393 362
f 361 392 393
f 362 394 363
f 362 393 394
f 363 395 364
f 363 394 395
f 364 396 369
f 364 395 396
f 365 379 366
f 365 388 379
f 366 380 367
f 366 379 380
f 367 381 368
f 367 380 381
f 368 381 382
f 368 382 391
f 369 383 370
f 369 396 383
f 370 384 371
f 370 383 384
f 371 385 372
f 371 384 385
f 372 385 386
f 372 386 389
