v -0.0229999995 -0.06 0.0430000019
v -0.0229999995 -0.06 0.045999999
v -0.0229999995 -0.0582499981 0.045999999
v -0.0229999995 -0.0582499981 0.0480000019
v -0.0227720308 -0.0582499981 0.0535858727
v -0.0228400803 -0.0582499981 0.0538110018
v -0.0228962731 -0.0582499981 0.0540393829
v -0.0229404569 -0.0582499981 0.0542703867
v -0.0229725122 -0.0582499981 0.0545033884
v -0.0229962397 -0.0582499981 0.0548160505
v -0.0229997087 -0.0582499981 0.0550512171
v -0.0229908872 -0.0582499981 0.0552862406
v -0.022969799 -0.0582499981 0.0555204868
v -0.0229364991 -0.0582499981 0.0557533121
v -0.0228732705 -0.0582499981 0.0560604286
v -0.022811892 -0.0582499981 0.0562874746
v -0.0229999995 -0.055250001 0.045999999
v -0.0229999995 -0.055250001 0.0480000019
v -0.0227720308 -0.055250001 0.0535858727
v -0.0228400803 -0.055250001 0.0538110018
v -0.0228962731 -0.055250001 0.0540393829
v -0.0229404569 -0.055250001 0.0542703867
v -0.0229725122 -0.055250001 0.0545033884
v -0.0229962397 -0.055250001 0.0548160505
v -0.0229997087 -0.055250001 0.0550512171
v -0.0229908872 -0.055250001 0.0552862406
v -0.022969799 -0.055250001 0.0555204868
v -0.0229364991 -0.055250001 0.0557533121
v -0.0228732705 -0.055250001 0.0560604286
v -0.022811892 -0.055250001 0.0562874746
v -0.0229999995 -0.0530000019 0.0430000019
v -0.0229999995 -0.0530000019 0.045999999
v -0.0225341201 -0.0582499981 0.0530060387
v -0.0226631808 -0.0582499981 0.0532918072
v -0.0227467442 -0.0582499981 0.0535116529
v -0.0227387357 -0.0582499981 0.0565109968
v -0.0226232219 -0.0582499981 0.0568025064
v -0.0225234151 -0.0582499981 0.0570154715
v -0.0225341201 -0.055250001 0.0530060387
v -0.0226631808 -0.055250001 0.0532918072
v -0.0227467442 -0.055250001 0.0535116529
v -0.0227387357 -0.055250001 0.0565109968
v -0.0226232219 -0.055250001 0.0568025064
v -0.0225234151 -0.055250001 0.0570154715
v -0.02226156 -0.0582499981 0.0525300455
v -0.0224244308 -0.0582499981 0.0527979898
v -0.0224876904 -0.0582499981 0.0570852661
v -0.0223732948 -0.0582499981 0.0572907639
v -0.02226156 -0.055250001 0.0525300455
v -0.0224244308 -0.055250001 0.0527979898
v -0.0224876904 -0.055250001 0.0570852661
v -0.0223732948 -0.055250001 0.0572907639
v -0.0220323896 -0.0582499981 0.0522121286
v -0.0220804262 -0.0582499981 0.0522740936
v -0.0222483182 -0.0582499981 0.0574900007
v -0.0222043657 -0.0582499981 0.0575549316
v -0.0220174527 -0.0582499981 0.0578066921
v -0.0220323896 -0.055250001 0.0522121286
v -0.0220804262 -0.055250001 0.0522740936
v -0.0222483182 -0.055250001 0.0574900007
v -0.0222043657 -0.055250001 0.0575549316
v -0.0220174527 -0.055250001 0.0578066921
v -0.0217764258 -0.0582499981 0.0519153547
v -0.021881907 -0.0582499981 0.0520313787
v -0.021968019 -0.0582499981 0.0578675508
v -0.0218134618 -0.0582499981 0.0580448294
v -0.0217764258 -0.055250001 0.0519153547
v -0.021881907 -0.055250001 0.0520313787
v -0.021968019 -0.055250001 0.0578675508
v -0.0218134618 -0.055250001 0.0580448294
v -0.0215536618 -0.0582499981 0.0516946793
v -0.0216669679 -0.0582499981 0.0518030787
v -0.0217053676 -0.0582499981 0.0581584215
v -0.02159338 -0.0582499981 0.0582681799
v -0.0215536618 -0.055250001 0.0516946793
v -0.0216669679 -0.055250001 0.0518030787
v -0.0217053676 -0.055250001 0.0581584215
v -0.02159338 -0.055250001 0.0582681799
v -0.0212544918 -0.0582499981 0.0514415216
v -0.0213767982 -0.0582499981 0.05153965
v -0.0214776397 -0.0582499981 0.058373971
v -0.0212972927 -0.0582499981 0.0585249329
v -0.0212544918 -0.055250001 0.0514415216
v -0.0213767982 -0.055250001 0.05153965
v -0.0214776397 -0.055250001 0.058373971
v -0.0212972927 -0.055250001 0.0585249329
v -0.0210648108 -0.0582499981 0.0513024664
v -0.0212354541 -0.0582499981 0.0585731363
v -0.0210648108 -0.055250001 0.0513024664
v -0.0212354541 -0.055250001 0.0585731363
v -0.020999999 -0.0582499981 0.0480000019
v -0.020999999 -0.0582499981 0.0512583447
v -0.0209799862 -0.0582499981 0.0587549543
v -0.020999999 -0.055250001 0.0480000019
v -0.020999999 -0.055250001 0.0512583447
v -0.0209799862 -0.055250001 0.0587549543
v -0.0207124782 -0.0582499981 0.0589185381
v -0.020504725 -0.0582499981 0.0590287828
v -0.0207124782 -0.055250001 0.0589185381
v -0.020504725 -0.055250001 0.0590287828
v -0.020434227 -0.0582499981 0.059063096
v -0.020434227 -0.055250001 0.059063096
v -0.0200010109 -0.0582499981 0.0542018986
v -0.0200279498 -0.0582499981 0.0542547703
v -0.0201257181 -0.0582499981 0.0545029688
v -0.0201834559 -0.0582499981 0.0547634077
v -0.0201999998 -0.0582499981 0.055
v -0.020179069 -0.0582499981 0.0552659369
v -0.0201167965 -0.0582499981 0.0555253267
v -0.0200147104 -0.0582499981 0.0557717848
v -0.0202192998 -0.0582499981 0.0591586065
v -0.0200147104 -0.0567717838 0.0430000019
v -0.0200055528 -0.0567895031 0.0469999981
v -0.0201167965 -0.0565253305 0.0430000019
v -0.0200321174 -0.0567366266 0.0469999981
v -0.020179069 -0.0562659407 0.0430000019
v -0.0201282763 -0.0564885855 0.0469999981
v -0.0201997399 -0.0560296679 0.0430000019
v -0.0201845622 -0.0562285805 0.0469999981
v -0.0201999998 -0.055999999 0.0430000019
v -0.0201999831 -0.0559925652 0.0469999981
v -0.0201257181 -0.0555029678 0.0430000019
v -0.0201780081 -0.0557274437 0.0469999981
v -0.0200279498 -0.0552547693 0.0430000019
v -0.0200256157 -0.055250001 0.045999999
v -0.0200256157 -0.055250001 0.0469999981
v -0.0200147104 -0.055250001 0.0542282152
v -0.0201167965 -0.055250001 0.0544746733
v -0.020179069 -0.055250001 0.0547340631
v -0.0201997399 -0.055250001 0.0549703312
v -0.0201834559 -0.055250001 0.0552365923
v -0.0201257181 -0.055250001 0.0554970312
v -0.0200279498 -0.055250001 0.0557452297
v -0.0200010109 -0.055250001 0.0557981014
v -0.0202192998 -0.055250001 0.0591586065
v -0.0200010109 -0.0552018976 0.0430000019
v -0.020012331 -0.0552235603 0.045999999
v -0.0197633457 -0.0582499981 0.0538624763
v -0.0198753285 -0.0582499981 0.0540007639
v -0.0199868536 -0.0582499981 0.0558241749
v -0.0198576808 -0.0582499981 0.0560230875
v -0.0199996769 -0.0582499981 0.059242754
v -0.0199255288 -0.0582499981 0.0592682409
v -0.0198576808 -0.0570230865 0.0430000019
v -0.0197507441 -0.0571513653 0.0469999981
v -0.0199868536 -0.0568241787 0.0430000019
v -0.0198814034 -0.056990819 0.0469999981
v -0.0198576808 -0.055250001 0.0539769125
v -0.0199868536 -0.055250001 0.0541758251
v -0.0198753285 -0.055250001 0.0559992361
v -0.0197633457 -0.055250001 0.0561375237
v -0.0199996769 -0.055250001 0.059242754
v -0.0199255288 -0.055250001 0.0592682409
v -0.0198753285 -0.0550007629 0.0430000019
v -0.0198899364 -0.0550211859 0.045999999
v -0.0197633457 -0.0548624802 0.0430000019
v -0.0197606778 -0.0548595238 0.045999999
v -0.0195230854 -0.0582499981 0.0536423206
v -0.0196593976 -0.0582499981 0.0537566996
v -0.0197433019 -0.0582499981 0.0561593962
v -0.0196375215 -0.0582499981 0.0562633467
v -0.0197005785 -0.0582499981 0.0593368912
v -0.0196375215 -0.0572633457 0.0430000019
v -0.0195087981 -0.057368331 0.0469999981
v -0.0197433019 -0.0571593952 0.0430000019
v -0.0196676207 -0.0572355843 0.0469999981
v -0.0196375215 -0.055250001 0.0537366533
v -0.0197433019 -0.055250001 0.0538406038
v -0.0196593976 -0.055250001 0.0562433004
v -0.0195230854 -0.055250001 0.0563576794
v -0.0197005785 -0.055250001 0.0593368912
v -0.0196593976 -0.0547566986 0.0430000019
v -0.0196567857 -0.0547542667 0.045999999
v -0.0195230854 -0.0546423197 0.0430000019
v -0.019520632 -0.0546404743 0.045999999
v -0.0192717838 -0.0582499981 0.0534852886
v -0.0193241763 -0.0582499981 0.0535131454
v -0.0194992352 -0.0582499981 0.0563753271
v -0.0192981017 -0.0582499981 0.0565010118
v -0.0194723487 -0.0582499981 0.059393692
v -0.0192981017 -0.0575010109 0.0430000019
v -0.0192565966 -0.0575223541 0.0469999981
v -0.0194992352 -0.0573753309 0.0430000019
v -0.0193091214 -0.0574950981 0.0469999981
v -0.0192981017 -0.055250001 0.0534989882
v -0.0194992352 -0.055250001 0.0536246729
v -0.0193241763 -0.055250001 0.0564868546
v -0.0192717838 -0.055250001 0.0565147114
v -0.0194723487 -0.055250001 0.059393692
v -0.0193241763 -0.0545131445 0.0430000019
v -0.0193220711 -0.054511981 0.045999999
v -0.0192717838 -0.0544852877 0.0430000019
v -0.0192697871 -0.054484272 0.045999999
v -0.0190253294 -0.0582499981 0.0533832026
v -0.0192452312 -0.0582499981 0.0565279484
v -0.0192414629 -0.0582499981 0.0594384956
v -0.0192452312 -0.0575279522 0.0430000019
v -0.0190098345 -0.0576217508 0.0469999981
v -0.0192452312 -0.055250001 0.0534720516
v -0.0190253294 -0.055250001 0.0566167974
v -0.0192414629 -0.055250001 0.0594384956
v -0.0190253294 -0.0543832016 0.0430000019
v -0.0190239084 -0.0543827438 0.045999999
v -0.0187659383 -0.0582499981 0.0533209276
v -0.0189970315 -0.0582499981 0.0566257191
v -0.0189305747 -0.0582499981 0.059479351
v -0.0189970315 -0.0576257181 0.0430000019
v -0.0187505889 -0.0576814318 0.0469999981
v -0.0189970315 -0.055250001 0.0533742809
v -0.0187659383 -0.055250001 0.0566790724
v -0.0189305747 -0.055250001 0.059479351
v -0.0187659383 -0.0543209314 0.0430000019
v -0.0187652016 -0.0543208122 0.045999999
v -0.0185000002 -0.0582499981 0.0532999992
v -0.0187365937 -0.0582499981 0.0566834545
v -0.0186959541 -0.0582499981 0.0594957304
v -0.0187365937 -0.0576834536 0.0430000019
v -0.0185147941 -0.0576999378 0.0469999981
v -0.0187365937 -0.055250001 0.0533165455
v -0.0185000002 -0.055250001 0.0567000008
v -0.0186959541 -0.055250001 0.0594957304
v -0.0185000002 -0.0542999983 0.0430000019
v -0.0185000002 -0.0542999983 0.045999999
v -0.0182634056 -0.0582499981 0.0533165455
v -0.0184703314 -0.0582499981 0.0566997433
v -0.0184607971 -0.0582499981 0.0594998312
v -0.0184703314 -0.0576997423 0.0430000019
v -0.0182787132 -0.0576855373 0.0469999981
v -0.0184703314 -0.055250001 0.0533002567
v -0.0182634056 -0.055250001 0.0566834545
v -0.0184607971 -0.055250001 0.0594998312
v -0.0182634056 -0.0543165445 0.0430000019
v -0.0182640636 -0.0543164539 0.045999999
v -0.0180029678 -0.0582499981 0.0533742809
v -0.018234061 -0.0582499981 0.0566790724
v -0.0182257473 -0.0582499981 0.0594916344
v -0.018234061 -0.0576790714 0.0430000019
v -0.0180184674 -0.0576303768 0.0469999981
v -0.018234061 -0.055250001 0.0533209276
v -0.0180029678 -0.055250001 0.0566257191
v -0.0182257473 -0.055250001 0.0594916344
v -0.0180029678 -0.05437428 0.0430000019
v -0.0180043173 -0.0543738699 0.045999999
v -0.0177547693 -0.0582499981 0.0534720516
v -0.0179746711 -0.0582499981 0.0566167974
v -0.0179914474 -0.0582499981 0.0594711733
v -0.0179746711 -0.0576167965 0.0430000019
v -0.0177700138 -0.0575352907 0.0469999981
v -0.0179746711 -0.055250001 0.0533832026
v -0.0177547693 -0.055250001 0.0565279484
v -0.0179914474 -0.055250001 0.0594711733
v -0.0177547693 -0.0544720507 0.0430000019
v -0.0177567089 -0.0544711065 0.045999999
v -0.0177018988 -0.0582499981 0.0534989882
v -0.0175007653 -0.0582499981 0.0536246729
v -0.0176758242 -0.0582499981 0.0564868546
v -0.0177282166 -0.0582499981 0.0565147114
v -0.0176813185 -0.0582499981 0.059424901
v -0.0177282166 -0.0575147104 0.0430000019
v -0.0177170229 -0.057508955 0.0469999981
v -0.0176758242 -0.0574868536 0.0430000019
v -0.0175151694 -0.0573856783 0.0469999981
v -0.0177282166 -0.055250001 0.0534852886
v -0.0176758242 -0.055250001 0.0535131454
v -0.0175007653 -0.055250001 0.0563753271
v -0.0177018988 -0.055250001 0.0565010118
v -0.0176813185 -0.055250001 0.059424901
v -0.0175007653 -0.0546246719 0.0430000019
v -0.0175031829 -0.0546229172 0.045999999
v -0.0177018988 -0.0544989872 0.0430000019
v -0.0177039504 -0.0544979 0.045999999
v -0.0173624778 -0.0582499981 0.0537366533
v -0.0172566986 -0.0582499981 0.0538406038
v -0.0173406029 -0.0582499981 0.0562433004
v -0.0174769139 -0.0582499981 0.0563576794
v -0.0174512482 -0.0582499981 0.0593760872
v -0.0174769139 -0.0573576784 0.0430000019
v -0.0173540604 -0.0572557163 0.0469999981
v -0.0173406029 -0.0572432995 0.0430000019
v -0.0172694838 -0.0571729565 0.0469999981
v -0.0174769139 -0.055250001 0.0536423206
v -0.0173406029 -0.055250001 0.0537566996
v -0.0172566986 -0.055250001 0.0561593962
v -0.0173624778 -0.055250001 0.0562633467
v -0.0174512482 -0.055250001 0.0593760872
v -0.0172566986 -0.0548406029 0.0430000019
v -0.0172593617 -0.0548377562 0.045999999
v -0.0173624778 -0.0547366524 0.0430000019
v -0.0173650706 -0.0547343254 0.045999999
v -0.0171423197 -0.0582499981 0.0539769125
v -0.0170131469 -0.0582499981 0.0541758251
v -0.0171246707 -0.0582499981 0.0559992361
v -0.0172366536 -0.0582499981 0.0561375237
v -0.0170003235 -0.0582499981 0.059242754
v -0.0172240424 -0.0582499981 0.0593153143
v -0.0172366536 -0.0571375227 0.0430000019
v -0.0171360493 -0.0570147133 0.0469999981
v -0.0171246707 -0.0569992352 0.0430000019
v -0.0170084167 -0.0568155861 0.0469999981
v -0.0172366536 -0.055250001 0.0538624763
v -0.0171246707 -0.055250001 0.0540007639
v -0.0170131469 -0.055250001 0.0558241749
v -0.0171423197 -0.055250001 0.0560230875
v -0.0170003235 -0.055250001 0.059242754
v -0.0172240424 -0.055250001 0.0593153143
v -0.0170131469 -0.0551758242 0.0430000019
v -0.0170014107 -0.0551973581 0.045999999
v -0.0171423197 -0.0549769163 0.0430000019
v -0.0171273088 -0.0549971437 0.045999999
v -0.0169852889 -0.0582499981 0.0542282152
v -0.016883204 -0.0582499981 0.0544746733
v -0.0168209302 -0.0582499981 0.0547340631
v -0.0168002594 -0.0582499981 0.0549703312
v -0.0167999995 -0.0582499981 0.055
v -0.0168742824 -0.0582499981 0.0554970312
v -0.0169720507 -0.0582499981 0.0557452297
v -0.0169989896 -0.0582499981 0.0557981014
v -0.0169266307 -0.0582499981 0.0592159843
v -0.0169989896 -0.0567981005 0.0430000019
v -0.0169809353 -0.0567631769 0.0469999981
v -0.0169720507 -0.0567452288 0.0430000019
v -0.0168804741 -0.0565168524 0.0469999981
v -0.0168742824 -0.0564970303 0.0430000019
v -0.0168196714 -0.056257863 0.0469999981
v -0.0168165445 -0.0562365961 0.0430000019
v -0.0168001449 -0.0560221529 0.0469999981
v -0.0167999995 -0.055999999 0.0430000019
v -0.0168175018 -0.0557566929 0.0469999981
v -0.0168209302 -0.0557340622 0.0430000019
v -0.0168675542 -0.055525527 0.0469999981
v -0.016883204 -0.0554746723 0.0430000019
v -0.0169743848 -0.055250001 0.045999999
v -0.0169743848 -0.055250001 0.0469999981
v -0.0169989896 -0.055250001 0.0542018986
v -0.0169720507 -0.055250001 0.0542547703
v -0.0168742824 -0.055250001 0.0545029688
v -0.0168165445 -0.055250001 0.0547634077
v -0.0167999995 -0.055250001 0.055
v -0.0168209302 -0.055250001 0.0552659369
v -0.016883204 -0.055250001 0.0555253267
v -0.0169852889 -0.055250001 0.0557717848
v -0.0169266307 -0.055250001 0.0592159843
v -0.0169852889 -0.0552282143 0.0430000019
v -0.0169876695 -0.0552235603 0.045999999
v -0.0167085063 -0.0582499981 0.0591280222
v -0.0167085063 -0.055250001 0.0591280222
v -0.0164253879 -0.0582499981 0.0589932442
v -0.0164952767 -0.0582499981 0.0590287828
v -0.0164253879 -0.055250001 0.0589932442
v -0.0164952767 -0.055250001 0.0590287828
v -0.0160000002 -0.0582499981 0.0480000019
v -0.0160000002 -0.0582499981 0.0512583447
v -0.0162195861 -0.0582499981 0.0588793945
v -0.0160000002 -0.055250001 0.0480000019
v -0.0160000002 -0.055250001 0.0512583447
v -0.0162195861 -0.055250001 0.0588793945
v -0.0158079243 -0.0582499981 0.0513940716
v -0.0159549689 -0.0582499981 0.0587111759
v -0.0158079243 -0.055250001 0.0513940716
v -0.0159549689 -0.055250001 0.0587111759
v -0.0156839263 -0.0582499981 0.0514900541
v -0.0155043888 -0.0582499981 0.0516419792
v -0.0156417179 -0.0582499981 0.0584756613
v -0.0157027078 -0.0582499981 0.0585249329
v -0.0156839263 -0.055250001 0.0514900541
v -0.0155043888 -0.055250001 0.0516419792
v -0.0156417179 -0.055250001 0.0584756613
v -0.0157027078 -0.055250001 0.0585249329
v -0.0153892136 -0.0582499981 0.0517483854
v -0.0152778149 -0.0582499981 0.0518587399
v -0.0153501475 -0.0582499981 0.0582137871
v -0.0154640293 -0.0582499981 0.0583215761
v -0.0153892136 -0.055250001 0.0517483854
v -0.0152778149 -0.055250001 0.0518587399
v -0.0153501475 -0.055250001 0.0582137871
v -0.0154640293 -0.055250001 0.0583215761
v -0.0151703286 -0.0582499981 0.051972909
v -0.0150167191 -0.0582499981 0.0521510077
v -0.0151339924 -0.0582499981 0.0579866362
v -0.0152400911 -0.0582499981 0.0581020927
v -0.0151703286 -0.055250001 0.051972909
v -0.0150167191 -0.055250001 0.0521510077
v -0.0151339924 -0.055250001 0.0579866362
v -0.0152400911 -0.055250001 0.0581020927
v -0.0149676108 -0.0582499981 0.0522121286
v -0.0147820449 -0.0582499981 0.0524648857
v -0.0147516823 -0.0582499981 0.0574900007
v -0.014934181 -0.0582499981 0.0577449846
v -0.0149825466 -0.0582499981 0.0578066921
v -0.0149676108 -0.055250001 0.0522121286
v -0.0147820449 -0.055250001 0.0524648857
v -0.0147516823 -0.055250001 0.0574900007
v -0.014934181 -0.055250001 0.0577449846
v -0.0149825466 -0.055250001 0.0578066921
v -0.0146145296 -0.0582499981 0.05272995
v -0.0145012331 -0.0582499981 0.052936058
v -0.0145873821 -0.0582499981 0.057222929
v -0.0147088683 -0.0582499981 0.0574243164
v -0.0146145296 -0.055250001 0.05272995
v -0.0145012331 -0.055250001 0.052936058
v -0.0145873821 -0.055250001 0.057222929
v -0.0147088683 -0.055250001 0.0574243164
v -0.0143672121 -0.0582499981 0.053219533
v -0.0142798316 -0.0582499981 0.053437891
v -0.0142532563 -0.0582499981 0.0535116529
v -0.0143459988 -0.0582499981 0.0567303944
v -0.0144420803 -0.0582499981 0.0569450665
v -0.0144765842 -0.0582499981 0.0570154715
v -0.0143672121 -0.055250001 0.053219533
v -0.0142798316 -0.055250001 0.053437891
v -0.0142532563 -0.055250001 0.0535116529
v -0.0143459988 -0.055250001 0.0567303944
v -0.0144420803 -0.055250001 0.0569450665
v -0.0144765842 -0.055250001 0.0570154715
v -0.0141812956 -0.0582499981 0.0537355661
v -0.0141211307 -0.0582499981 0.0539629364
v -0.0140729284 -0.0582499981 0.0541931343
v -0.0140368176 -0.0582499981 0.05442554
v -0.0140076482 -0.0582499981 0.0547377396
v -0.014000082 -0.0582499981 0.0549728107
v -0.0140048075 -0.0582499981 0.0552079535
v -0.0140218127 -0.0582499981 0.0554425335
v -0.0140510499 -0.0582499981 0.0556758976
v -0.0141089189 -0.0582499981 0.0559840775
v -0.0141663313 -0.0582499981 0.0562121534
v -0.0142355812 -0.0582499981 0.0564369202
v -0.0141812956 -0.055250001 0.0537355661
v -0.0141211307 -0.055250001 0.0539629364
v -0.0140729284 -0.055250001 0.0541931343
v -0.0140368176 -0.055250001 0.05442554
v -0.0140076482 -0.055250001 0.0547377396
v -0.014000082 -0.055250001 0.0549728107
v -0.0140048075 -0.055250001 0.0552079535
v -0.0140218127 -0.055250001 0.0554425335
v -0.0140510499 -0.055250001 0.0556758976
v -0.0141089189 -0.055250001 0.0559840775
v -0.0141663313 -0.055250001 0.0562121534
v -0.0142355812 -0.055250001 0.0564369202
v 0.0142279696 -0.0582499981 0.0535858727
v 0.0141599202 -0.0582499981 0.0538110018
v 0.0141037273 -0.0582499981 0.0540393829
v 0.0140595424 -0.0582499981 0.0542703867
v 0.014027487 -0.0582499981 0.0545033884
v 0.0140037608 -0.0582499981 0.0548160505
v 0.0140002918 -0.0582499981 0.0550512171
v 0.0140091133 -0.0582499981 0.0552862406
v 0.0140302026 -0.0582499981 0.0555204868
v 0.0140635014 -0.0582499981 0.0557533121
v 0.01412673 -0.0582499981 0.0560604286
v 0.0141881084 -0.0582499981 0.0562874746
v 0.0142279696 -0.055250001 0.0535858727
v 0.0141599202 -0.055250001 0.0538110018
v 0.0141037273 -0.055250001 0.0540393829
v 0.0140595424 -0.055250001 0.0542703867
v 0.014027487 -0.055250001 0.0545033884
v 0.0140037608 -0.055250001 0.0548160505
v 0.0140002918 -0.055250001 0.0550512171
v 0.0140091133 -0.055250001 0.0552862406
v 0.0140302026 -0.055250001 0.0555204868
v 0.0140635014 -0.055250001 0.0557533121
v 0.01412673 -0.055250001 0.0560604286
v 0.0141881084 -0.055250001 0.0562874746
v 0.0144658804 -0.0582499981 0.0530060387
v 0.0143368185 -0.0582499981 0.0532918072
v 0.0142532563 -0.0582499981 0.0535116529
v 0.0142612636 -0.0582499981 0.0565109968
v 0.0143767774 -0.0582499981 0.0568025064
v 0.0144765842 -0.0582499981 0.0570154715
v 0.0144658804 -0.055250001 0.0530060387
v 0.0143368185 -0.055250001 0.0532918072
v 0.0142532563 -0.055250001 0.0535116529
v 0.0142612636 -0.055250001 0.0565109968
v 0.0143767774 -0.055250001 0.0568025064
v 0.0144765842 -0.055250001 0.0570154715
v 0.0147384405 -0.0582499981 0.0525300455
v 0.0145755696 -0.0582499981 0.0527979898
v 0.01451231 -0.0582499981 0.0570852661
v 0.0146267056 -0.0582499981 0.0572907639
v 0.0147384405 -0.055250001 0.0525300455
v 0.0145755696 -0.055250001 0.0527979898
v 0.01451231 -0.055250001 0.0570852661
v 0.0146267056 -0.055250001 0.0572907639
v 0.0149676108 -0.0582499981 0.0522121286
v 0.0149195743 -0.0582499981 0.0522740936
v 0.0147516823 -0.0582499981 0.0574900007
v 0.0147956336 -0.0582499981 0.0575549316
v 0.0149825466 -0.0582499981 0.0578066921
v 0.0149676108 -0.055250001 0.0522121286
v 0.0149195743 -0.055250001 0.0522740936
v 0.0147516823 -0.055250001 0.0574900007
v 0.0147956336 -0.055250001 0.0575549316
v 0.0149825466 -0.055250001 0.0578066921
v 0.0152235746 -0.0582499981 0.0519153547
v 0.0151180935 -0.0582499981 0.0520313787
v 0.0150319815 -0.0582499981 0.0578675508
v 0.0151865387 -0.0582499981 0.0580448294
v 0.0152235746 -0.055250001 0.0519153547
v 0.0151180935 -0.055250001 0.0520313787
v 0.0150319815 -0.055250001 0.0578675508
v 0.0151865387 -0.055250001 0.0580448294
v 0.0154463375 -0.0582499981 0.0516946793
v 0.0153330326 -0.0582499981 0.0518030787
v 0.0152946329 -0.0582499981 0.0581584215
v 0.0154066193 -0.0582499981 0.0582681799
v 0.0154463375 -0.055250001 0.0516946793
v 0.0153330326 -0.055250001 0.0518030787
v 0.0152946329 -0.055250001 0.0581584215
v 0.0154066193 -0.055250001 0.0582681799
v 0.0157455075 -0.0582499981 0.0514415216
v 0.0156232011 -0.0582499981 0.05153965
v 0.0155223608 -0.0582499981 0.058373971
v 0.0157027078 -0.0582499981 0.0585249329
v 0.0157455075 -0.055250001 0.0514415216
v 0.0156232011 -0.055250001 0.05153965
v 0.0155223608 -0.055250001 0.058373971
v 0.0157027078 -0.055250001 0.0585249329
v 0.0159351897 -0.0582499981 0.0513024664
v 0.0157645464 -0.0582499981 0.0585731363
v 0.0159351897 -0.055250001 0.0513024664
v 0.0157645464 -0.055250001 0.0585731363
v 0.0160000002 -0.0582499981 0.0480000019
v 0.0160000002 -0.0582499981 0.0512583447
v 0.0160200143 -0.0582499981 0.0587549543
v 0.0160000002 -0.055250001 0.0480000019
v 0.0160000002 -0.055250001 0.0512583447
v 0.0160200143 -0.055250001 0.0587549543
v 0.0162875223 -0.0582499981 0.0589185381
v 0.0164952767 -0.0582499981 0.0590287828
v 0.0162875223 -0.055250001 0.0589185381
v 0.0164952767 -0.055250001 0.0590287828
v 0.0165657735 -0.0582499981 0.059063096
v 0.0165657735 -0.055250001 0.059063096
v 0.0169852889 -0.0582499981 0.0542282152
v 0.016883204 -0.0582499981 0.0544746733
v 0.0168209302 -0.0582499981 0.0547340631
v 0.0168002594 -0.0582499981 0.0549703312
v 0.0168165445 -0.0582499981 0.0552365923
v 0.0168742824 -0.0582499981 0.0554970312
v 0.0169720507 -0.0582499981 0.0557452297
v 0.0169989896 -0.0582499981 0.0557981014
v 0.0167806995 -0.0582499981 0.0591586065
v 0.0169852889 -0.0567717838 0.0430000019
v 0.0169809353 -0.0567631769 0.0469999981
v 0.016883204 -0.0565253305 0.0430000019
v 0.0168804741 -0.0565168524 0.0469999981
v 0.0168209302 -0.0562659407 0.0430000019
v 0.0168196714 -0.056257863 0.0469999981
v 0.0168002594 -0.0560296679 0.0430000019
v 0.0168001449 -0.0560221529 0.0469999981
v 0.0167999995 -0.055999999 0.0430000019
v 0.0168175018 -0.0557566929 0.0469999981
v 0.0168742824 -0.0555029678 0.0430000019
v 0.0168675542 -0.055525527 0.0469999981
v 0.0169720507 -0.0552547693 0.0430000019
v 0.0169743848 -0.055250001 0.045999999
v 0.0169743848 -0.055250001 0.0469999981
v 0.0169852889 -0.055250001 0.0542282152
v 0.016883204 -0.055250001 0.0544746733
v 0.0168209302 -0.055250001 0.0547340631
v 0.0168002594 -0.055250001 0.0549703312
v 0.0168165445 -0.055250001 0.0552365923
v 0.0168742824 -0.055250001 0.0554970312
v 0.0169720507 -0.055250001 0.0557452297
v 0.0169989896 -0.055250001 0.0557981014
v 0.0167806995 -0.055250001 0.0591586065
v 0.0169989896 -0.0552018976 0.0430000019
v 0.0169876695 -0.0552235603 0.045999999
v 0.0171423197 -0.0582499981 0.0539769125
v 0.0170131469 -0.0582499981 0.0541758251
v 0.0171246707 -0.0582499981 0.0559992361
v 0.0172366536 -0.0582499981 0.0561375237
v 0.0170003235 -0.0582499981 0.059242754
v 0.0170744717 -0.0582499981 0.0592682409
v 0.0171423197 -0.0570230865 0.0430000019
v 0.0171360493 -0.0570147133 0.0469999981
v 0.0170131469 -0.0568241787 0.0430000019
v 0.0170084167 -0.0568155861 0.0469999981
v 0.0171423197 -0.055250001 0.0539769125
v 0.0170131469 -0.055250001 0.0541758251
v 0.0171246707 -0.055250001 0.0559992361
v 0.0172366536 -0.055250001 0.0561375237
v 0.0170003235 -0.055250001 0.059242754
v 0.0170744717 -0.055250001 0.0592682409
v 0.0171246707 -0.0550007629 0.0430000019
v 0.017110064 -0.0550211859 0.045999999
v 0.0172366536 -0.0548624802 0.0430000019
v 0.0172393227 -0.0548595238 0.045999999
v 0.0173624778 -0.0582499981 0.0537366533
v 0.0172566986 -0.0582499981 0.0538406038
v 0.0173406029 -0.0582499981 0.0562433004
v 0.0174769139 -0.0582499981 0.0563576794
v 0.0172994208 -0.0582499981 0.0593368912
v 0.0173624778 -0.0572633457 0.0430000019
v 0.0173540604 -0.0572557163 0.0469999981
v 0.0172566986 -0.0571593952 0.0430000019
v 0.0172694838 -0.0571729565 0.0469999981
v 0.0173624778 -0.055250001 0.0537366533
v 0.0172566986 -0.055250001 0.0538406038
v 0.0173406029 -0.055250001 0.0562433004
v 0.0174769139 -0.055250001 0.0563576794
v 0.0172994208 -0.055250001 0.0593368912
v 0.0173406029 -0.0547566986 0.0430000019
v 0.0173432148 -0.0547542667 0.045999999
v 0.0174769139 -0.0546423197 0.0430000019
v 0.0174793684 -0.0546404743 0.045999999
v 0.0177018988 -0.0582499981 0.0534989882
v 0.0175007653 -0.0582499981 0.0536246729
v 0.0176758242 -0.0582499981 0.0564868546
v 0.0177282166 -0.0582499981 0.0565147114
v 0.0175276506 -0.0582499981 0.059393692
v 0.0177018988 -0.0575010109 0.0430000019
v 0.0177170229 -0.057508955 0.0469999981
v 0.0175007653 -0.0573753309 0.0430000019
v 0.0175151694 -0.0573856783 0.0469999981
v 0.0177018988 -0.055250001 0.0534989882
v 0.0175007653 -0.055250001 0.0536246729
v 0.0176758242 -0.055250001 0.0564868546
v 0.0177282166 -0.055250001 0.0565147114
v 0.0175276506 -0.055250001 0.059393692
v 0.0176758242 -0.0545131445 0.0430000019
v 0.0176779294 -0.054511981 0.045999999
v 0.0177282166 -0.0544852877 0.0430000019
v 0.0177302134 -0.054484272 0.045999999
v 0.0177547693 -0.0582499981 0.0534720516
v 0.0179746711 -0.0582499981 0.0566167974
v 0.0177585363 -0.0582499981 0.0594384956
v 0.0177547693 -0.0575279522 0.0430000019
v 0.0177700138 -0.0575352907 0.0469999981
v 0.0177547693 -0.055250001 0.0534720516
v 0.0179746711 -0.055250001 0.0566167974
v 0.0177585363 -0.055250001 0.0594384956
v 0.0179746711 -0.0543832016 0.0430000019
v 0.0179760921 -0.0543827438 0.045999999
v 0.0180029678 -0.0582499981 0.0533742809
v 0.018234061 -0.0582499981 0.0566790724
v 0.0180694246 -0.0582499981 0.059479351
v 0.0180029678 -0.0576257181 0.0430000019
v 0.0180184674 -0.0576303768 0.0469999981
v 0.0180029678 -0.055250001 0.0533742809
v 0.018234061 -0.055250001 0.0566790724
v 0.0180694246 -0.055250001 0.059479351
v 0.018234061 -0.0543209314 0.0430000019
v 0.0182347989 -0.0543208122 0.045999999
v 0.0182634056 -0.0582499981 0.0533165455
v 0.0184703314 -0.0582499981 0.0566997433
v 0.0183040464 -0.0582499981 0.0594957304
v 0.0182634056 -0.0576834536 0.0430000019
v 0.0182787132 -0.0576855373 0.0469999981
v 0.0182634056 -0.055250001 0.0533165455
v 0.0184703314 -0.055250001 0.0566997433
v 0.0183040464 -0.055250001 0.0594957304
v 0.0184703314 -0.0543002605 0.0430000019
v 0.0184704137 -0.0543002558 0.045999999
v 0.0185000002 -0.0582499981 0.0532999992
v 0.0187365937 -0.0582499981 0.0566834545
v 0.0185392022 -0.0582499981 0.0594998312
v 0.0185000002 -0.0576999998 0.0430000019
v 0.0185147941 -0.0576999378 0.0469999981
v 0.0185000002 -0.055250001 0.0532999992
v 0.0187365937 -0.055250001 0.0566834545
v 0.0185392022 -0.055250001 0.0594998312
v 0.0187365937 -0.0543165445 0.0430000019
v 0.0187359369 -0.0543164539 0.045999999
v 0.0187659383 -0.0582499981 0.0533209276
v 0.0189970315 -0.0582499981 0.0566257191
v 0.0187742519 -0.0582499981 0.0594916344
v 0.0187659383 -0.0576790714 0.0430000019
v 0.0187505889 -0.0576814318 0.0469999981
v 0.0187659383 -0.055250001 0.0533209276
v 0.0189970315 -0.055250001 0.0566257191
v 0.0187742519 -0.055250001 0.0594916344
v 0.0189970315 -0.05437428 0.0430000019
v 0.0189956832 -0.0543738699 0.045999999
v 0.0190253294 -0.0582499981 0.0533832026
v 0.0192452312 -0.0582499981 0.0565279484
v 0.0190085518 -0.0582499981 0.0594711733
v 0.0190253294 -0.0576167965 0.0430000019
v 0.0190098345 -0.0576217508 0.0469999981
v 0.0190253294 -0.055250001 0.0533832026
v 0.0192452312 -0.055250001 0.0565279484
v 0.0190085518 -0.055250001 0.0594711733
v 0.0192452312 -0.0544720507 0.0430000019
v 0.0192432916 -0.0544711065 0.045999999
v 0.0192717838 -0.0582499981 0.0534852886
v 0.0193241763 -0.0582499981 0.0535131454
v 0.0194992352 -0.0582499981 0.0563753271
v 0.0192981017 -0.0582499981 0.0565010118
v 0.019318682 -0.0582499981 0.059424901
v 0.0192717838 -0.0575147104 0.0430000019
v 0.0192565966 -0.0575223541 0.0469999981
v 0.0193241763 -0.0574868536 0.0430000019
v 0.0193091214 -0.0574950981 0.0469999981
v 0.0192717838 -0.055250001 0.0534852886
v 0.0193241763 -0.055250001 0.0535131454
v 0.0194992352 -0.055250001 0.0563753271
v 0.0192981017 -0.055250001 0.0565010118
v 0.019318682 -0.055250001 0.059424901
v 0.0194992352 -0.0546246719 0.0430000019
v 0.0194968164 -0.0546229172 0.045999999
v 0.0192981017 -0.0544989872 0.0430000019
v 0.0192960501 -0.0544979 0.045999999
v 0.0195230854 -0.0582499981 0.0536423206
v 0.0196593976 -0.0582499981 0.0537566996
v 0.0197433019 -0.0582499981 0.0561593962
v 0.0196375215 -0.0582499981 0.0562633467
v 0.0195487523 -0.0582499981 0.0593760872
v 0.0195230854 -0.0573576784 0.0430000019
v 0.0195087981 -0.057368331 0.0469999981
v 0.0196593976 -0.0572432995 0.0430000019
v 0.0196676207 -0.0572355843 0.0469999981
v 0.0195230854 -0.055250001 0.0536423206
v 0.0196593976 -0.055250001 0.0537566996
v 0.0197433019 -0.055250001 0.0561593962
v 0.0196375215 -0.055250001 0.0562633467
v 0.0195487523 -0.055250001 0.0593760872
v 0.0197433019 -0.0548406029 0.0430000019
v 0.0197406387 -0.0548377562 0.045999999
v 0.0196375215 -0.0547366524 0.0430000019
v 0.0196349299 -0.0547343254 0.045999999
v 0.0197633457 -0.0582499981 0.0538624763
v 0.0198753285 -0.0582499981 0.0540007639
v 0.0199868536 -0.0582499981 0.0558241749
v 0.0198576808 -0.0582499981 0.0560230875
v 0.0199996769 -0.0582499981 0.059242754
v 0.0197759569 -0.0582499981 0.0593153143
v 0.0197633457 -0.0571375227 0.0430000019
v 0.0197507441 -0.0571513653 0.0469999981
v 0.0198753285 -0.0569992352 0.0430000019
v 0.0198814034 -0.056990819 0.0469999981
v 0.0197633457 -0.055250001 0.0538624763
v 0.0198753285 -0.055250001 0.0540007639
v 0.0199868536 -0.055250001 0.0558241749
v 0.0198576808 -0.055250001 0.0560230875
v 0.0199996769 -0.055250001 0.059242754
v 0.0197759569 -0.055250001 0.0593153143
v 0.0199868536 -0.0551758242 0.0430000019
v 0.0199985886 -0.0551973581 0.045999999
v 0.0198576808 -0.0549769163 0.0430000019
v 0.0198726904 -0.0549971437 0.045999999
v 0.0200010109 -0.0582499981 0.0542018986
v 0.0200279498 -0.0582499981 0.0542547703
v 0.0201257181 -0.0582499981 0.0545029688
v 0.0201834559 -0.0582499981 0.0547634077
v 0.0201999998 -0.0582499981 0.055
v 0.020179069 -0.0582499981 0.0552659369
v 0.0201167965 -0.0582499981 0.0555253267
v 0.0200147104 -0.0582499981 0.0557717848
v 0.0200733709 -0.0582499981 0.0592159843
v 0.0200010109 -0.0567981005 0.0430000019
v 0.0200055528 -0.0567895031 0.0469999981
v 0.0200279498 -0.0567452288 0.0430000019
v 0.0200321174 -0.0567366266 0.0469999981
v 0.0201257181 -0.0564970303 0.0430000019
v 0.0201282763 -0.0564885855 0.0469999981
v 0.0201834559 -0.0562365961 0.0430000019
v 0.0201845622 -0.0562285805 0.0469999981
v 0.0201999998 -0.055999999 0.0430000019
v 0.0201999831 -0.0559925652 0.0469999981
v 0.020179069 -0.0557340622 0.0430000019
v 0.0201780081 -0.0557274437 0.0469999981
v 0.0201167965 -0.0554746723 0.0430000019
v 0.0200256157 -0.055250001 0.045999999
v 0.0200256157 -0.055250001 0.0469999981
v 0.0200010109 -0.055250001 0.0542018986
v 0.0200279498 -0.055250001 0.0542547703
v 0.0201257181 -0.055250001 0.0545029688
v 0.0201834559 -0.055250001 0.0547634077
v 0.0201999998 -0.055250001 0.055
v 0.020179069 -0.055250001 0.0552659369
v 0.0201167965 -0.055250001 0.0555253267
v 0.0200147104 -0.055250001 0.0557717848
v 0.0200733709 -0.055250001 0.0592159843
v 0.0200147104 -0.0552282143 0.0430000019
v 0.020012331 -0.0552235603 0.045999999
v 0.0202914929 -0.0582499981 0.0591280222
v 0.0202914929 -0.055250001 0.0591280222
v 0.0205746126 -0.0582499981 0.0589932442
v 0.020504725 -0.0582499981 0.0590287828
v 0.0205746126 -0.055250001 0.0589932442
v 0.020504725 -0.055250001 0.0590287828
v 0.020999999 -0.0582499981 0.0480000019
v 0.020999999 -0.0582499981 0.0512583447
v 0.0207804132 -0.0582499981 0.0588793945
v 0.020999999 -0.055250001 0.0480000019
v 0.020999999 -0.055250001 0.0512583447
v 0.0207804132 -0.055250001 0.0588793945
v 0.0211920762 -0.0582499981 0.0513940716
v 0.0210450315 -0.0582499981 0.0587111759
v 0.0211920762 -0.055250001 0.0513940716
v 0.0210450315 -0.055250001 0.0587111759
v 0.0213160729 -0.0582499981 0.0514900541
v 0.0214956117 -0.0582499981 0.0516419792
v 0.0213582826 -0.0582499981 0.0584756613
v 0.0212972927 -0.0582499981 0.0585249329
v 0.0213160729 -0.055250001 0.0514900541
v 0.0214956117 -0.055250001 0.0516419792
v 0.0213582826 -0.055250001 0.0584756613
v 0.0212972927 -0.055250001 0.0585249329
v 0.0216107869 -0.0582499981 0.0517483854
v 0.0217221856 -0.0582499981 0.0518587399
v 0.0216498518 -0.0582499981 0.0582137871
v 0.0215359712 -0.0582499981 0.0583215761
v 0.0216107869 -0.055250001 0.0517483854
v 0.0217221856 -0.055250001 0.0518587399
v 0.0216498518 -0.055250001 0.0582137871
v 0.0215359712 -0.055250001 0.0583215761
v 0.0218296719 -0.0582499981 0.051972909
v 0.0219832802 -0.0582499981 0.0521510077
v 0.0218660069 -0.0582499981 0.0579866362
v 0.0217599082 -0.0582499981 0.0581020927
v 0.0218296719 -0.055250001 0.051972909
v 0.0219832802 -0.055250001 0.0521510077
v 0.0218660069 -0.055250001 0.0579866362
v 0.0217599082 -0.055250001 0.0581020927
v 0.0220323896 -0.0582499981 0.0522121286
v 0.0222179556 -0.0582499981 0.0524648857
v 0.0222483182 -0.0582499981 0.0574900007
v 0.0220658207 -0.0582499981 0.0577449846
v 0.0220174527 -0.0582499981 0.0578066921
v 0.0220323896 -0.055250001 0.0522121286
v 0.0222179556 -0.055250001 0.0524648857
v 0.0222483182 -0.055250001 0.0574900007
v 0.0220658207 -0.055250001 0.0577449846
v 0.0220174527 -0.055250001 0.0578066921
v 0.0223854709 -0.0582499981 0.05272995
v 0.0224987674 -0.0582499981 0.052936058
v 0.0224126172 -0.0582499981 0.057222929
v 0.022291131 -0.0582499981 0.0574243164
v 0.0223854709 -0.055250001 0.05272995
v 0.0224987674 -0.055250001 0.052936058
v 0.0224126172 -0.055250001 0.057222929
v 0.022291131 -0.055250001 0.0574243164
v 0.0226327872 -0.0582499981 0.053219533
v 0.0227201676 -0.0582499981 0.053437891
v 0.0227467442 -0.0582499981 0.0535116529
v 0.0226540017 -0.0582499981 0.0567303944
v 0.022557919 -0.0582499981 0.0569450665
v 0.0225234151 -0.0582499981 0.0570154715
v 0.0226327872 -0.055250001 0.053219533
v 0.0227201676 -0.055250001 0.053437891
v 0.0227467442 -0.055250001 0.0535116529
v 0.0226540017 -0.055250001 0.0567303944
v 0.022557919 -0.055250001 0.0569450665
v 0.0225234151 -0.055250001 0.0570154715
v 0.0229999995 -0.06 0.0430000019
v 0.0229999995 -0.06 0.045999999
v 0.0229999995 -0.0582499981 0.045999999
v 0.0229999995 -0.0582499981 0.0480000019
v 0.022818706 -0.0582499981 0.0537355661
v 0.0228788686 -0.0582499981 0.0539629364
v 0.022927072 -0.0582499981 0.0541931343
v 0.0229631829 -0.0582499981 0.05442554
v 0.0229923511 -0.0582499981 0.0547377396
v 0.0229999185 -0.0582499981 0.0549728107
v 0.022995193 -0.0582499981 0.0552079535
v 0.0229781866 -0.0582499981 0.0554425335
v 0.0229489493 -0.0582499981 0.0556758976
v 0.0228910804 -0.0582499981 0.0559840775
v 0.0228336692 -0.0582499981 0.0562121534
v 0.0227644181 -0.0582499981 0.0564369202
v 0.0229999995 -0.055250001 0.045999999
v 0.0229999995 -0.055250001 0.0480000019
v 0.022818706 -0.055250001 0.0537355661
v 0.0228788686 -0.055250001 0.0539629364
v 0.022927072 -0.055250001 0.0541931343
v 0.0229631829 -0.055250001 0.05442554
v 0.0229923511 -0.055250001 0.0547377396
v 0.0229999185 -0.055250001 0.0549728107
v 0.022995193 -0.055250001 0.0552079535
v 0.0229781866 -0.055250001 0.0554425335
v 0.0229489493 -0.055250001 0.0556758976
v 0.0228910804 -0.055250001 0.0559840775
v 0.0228336692 -0.055250001 0.0562121534
v 0.0227644181 -0.055250001 0.0564369202
v 0.0229999995 -0.0530000019 0.0430000019
v 0.0229999995 -0.0530000019 0.045999999
f 3 1 2
f 2 1 846
f 3 17 1
f 17 31 1
f 31 118 1
f 1 114 112
f 1 112 146
f 1 116 114
f 1 118 116
f 146 144 1
f 144 165 1
f 1 165 163
f 1 163 183
f 1 183 181
f 181 197 1
f 197 207 1
f 207 217 1
f 217 227 1
f 1 227 237
f 237 637 1
f 1 637 845
f 846 1 845
f 846 3 2
f 4 17 3
f 4 3 91
f 91 3 847
f 847 3 846
f 4 18 17
f 91 18 4
f 6 20 5
f 92 6 5
f 5 20 19
f 5 19 35
f 92 5 35
f 7 21 6
f 92 7 6
f 6 21 20
f 8 22 7
f 92 8 7
f 7 22 21
f 9 23 8
f 92 9 8
f 8 23 22
f 10 24 9
f 10 9 92
f 9 24 23
f 11 25 10
f 93 11 10
f 10 25 24
f 93 10 92
f 12 26 11
f 93 12 11
f 11 26 25
f 13 27 12
f 93 13 12
f 12 27 26
f 14 28 13
f 93 14 13
f 13 28 27
f 15 29 14
f 15 14 93
f 14 29 28
f 16 30 15
f 16 15 93
f 15 30 29
f 16 42 30
f 36 42 16
f 36 16 93
f 17 18 125
f 32 31 17
f 17 203 32
f 125 137 17
f 17 137 155
f 155 157 17
f 17 157 173
f 173 175 17
f 175 191 17
f 17 191 193
f 17 193 203
f 94 18 91
f 125 18 94
f 19 20 95
f 35 19 41
f 41 19 95
f 20 21 95
f 21 22 95
f 22 23 95
f 95 23 24
f 24 25 96
f 95 24 96
f 25 26 96
f 26 27 96
f 27 28 96
f 96 28 29
f 96 29 30
f 96 30 42
f 32 875 31
f 31 120 118
f 31 122 120
f 31 124 122
f 31 136 124
f 154 136 31
f 31 156 154
f 31 172 156
f 31 174 172
f 31 190 174
f 192 190 31
f 31 202 192
f 31 212 202
f 31 222 212
f 31 232 222
f 31 242 232
f 875 242 31
f 32 203 213
f 32 213 223
f 32 223 233
f 233 653 32
f 32 653 876
f 876 875 32
f 34 40 33
f 92 34 33
f 33 40 39
f 33 39 46
f 33 46 92
f 35 41 34
f 92 35 34
f 34 41 40
f 37 43 36
f 93 37 36
f 36 43 42
f 38 44 37
f 93 38 37
f 37 44 43
f 38 51 44
f 47 51 38
f 93 47 38
f 95 39 40
f 46 39 50
f 95 50 39
f 95 40 41
f 96 42 43
f 96 43 44
f 44 51 96
f 46 50 45
f 46 45 92
f 45 50 49
f 45 49 54
f 92 45 54
f 48 52 47
f 93 48 47
f 47 52 51
f 48 60 52
f 55 60 48
f 93 55 48
f 95 49 50
f 54 49 59
f 59 49 95
f 51 52 96
f 52 60 96
f 54 59 53
f 92 54 53
f 53 59 58
f 53 58 64
f 53 64 92
f 56 61 55
f 56 55 93
f 55 61 60
f 57 62 56
f 93 57 56
f 56 62 61
f 57 69 62
f 65 69 57
f 93 65 57
f 95 58 59
f 64 58 68
f 95 68 58
f 96 60 61
f 96 61 62
f 62 69 96
f 64 68 63
f 64 63 92
f 63 68 67
f 63 67 72
f 92 63 72
f 66 70 65
f 93 66 65
f 65 70 69
f 66 77 70
f 73 77 66
f 93 73 66
f 95 67 68
f 72 67 76
f 95 76 67
f 69 70 96
f 96 70 77
f 72 76 71
f 92 72 71
f 71 76 75
f 71 75 80
f 71 80 92
f 74 78 73
f 74 73 93
f 73 78 77
f 74 85 78
f 81 85 74
f 93 81 74
f 75 76 95
f 80 75 84
f 95 84 75
f 96 77 78
f 78 85 96
f 80 84 79
f 80 79 92
f 79 84 83
f 79 83 87
f 92 79 87
f 82 86 81
f 93 82 81
f 81 86 85
f 82 90 86
f 88 90 82
f 88 82 93
f 95 83 84
f 87 83 89
f 95 89 83
f 85 86 96
f 96 86 90
f 87 89 92
f 88 96 90
f 93 96 88
f 92 89 95
f 92 91 93
f 92 94 91
f 105 93 91
f 104 91 103
f 103 91 139
f 105 91 104
f 139 91 351
f 91 847 351
f 95 94 92
f 93 99 96
f 97 99 93
f 106 97 93
f 106 93 105
f 125 94 95
f 95 96 125
f 125 96 99
f 98 100 97
f 106 98 97
f 97 100 99
f 98 102 100
f 101 102 98
f 106 101 98
f 125 99 100
f 125 100 102
f 101 135 102
f 107 101 106
f 101 107 111
f 111 135 101
f 130 125 102
f 130 102 131
f 131 102 135
f 103 127 104
f 103 149 127
f 139 149 103
f 104 128 105
f 104 127 128
f 105 129 106
f 105 128 129
f 106 130 107
f 106 129 130
f 107 108 111
f 107 131 108
f 107 130 131
f 108 109 111
f 108 132 109
f 108 131 132
f 109 110 111
f 109 133 110
f 109 132 133
f 111 110 140
f 110 133 134
f 110 134 140
f 111 152 135
f 111 140 141
f 111 141 160
f 142 152 111
f 111 294 142
f 160 161 111
f 161 178 111
f 111 178 179
f 111 179 195
f 111 195 205
f 111 205 215
f 318 111 215
f 111 318 294
f 114 113 112
f 112 113 147
f 112 147 146
f 114 115 113
f 115 322 113
f 113 320 147
f 113 322 320
f 116 115 114
f 116 117 115
f 117 324 115
f 115 324 322
f 118 117 116
f 118 119 117
f 119 326 117
f 117 326 324
f 120 119 118
f 120 121 119
f 121 328 119
f 119 328 326
f 122 121 120
f 122 123 121
f 123 330 121
f 121 330 328
f 122 126 123
f 124 126 122
f 126 333 123
f 123 333 330
f 124 125 126
f 136 125 124
f 128 126 125
f 128 125 129
f 129 125 130
f 136 137 125
f 127 126 128
f 126 127 333
f 333 127 149
f 131 135 132
f 132 135 133
f 133 152 134
f 133 135 152
f 140 134 150
f 134 152 150
f 136 155 137
f 154 155 136
f 138 148 139
f 139 351 138
f 138 168 148
f 159 168 138
f 138 351 159
f 139 148 149
f 140 150 141
f 141 150 151
f 141 151 160
f 143 153 142
f 142 295 143
f 142 153 152
f 142 294 295
f 143 171 153
f 162 171 143
f 143 276 162
f 143 295 276
f 146 145 144
f 144 145 165
f 146 147 145
f 147 299 145
f 165 145 166
f 145 297 166
f 145 299 297
f 147 320 299
f 148 333 149
f 168 333 148
f 150 153 151
f 150 152 153
f 151 153 171
f 160 151 169
f 151 171 169
f 154 157 155
f 156 157 154
f 172 157 156
f 172 173 157
f 158 167 159
f 159 351 158
f 158 186 167
f 177 186 158
f 158 351 177
f 159 167 168
f 160 169 161
f 161 169 170
f 161 170 178
f 162 189 171
f 180 189 162
f 162 258 180
f 162 276 258
f 165 164 163
f 163 164 183
f 165 166 164
f 166 280 164
f 183 164 184
f 164 278 184
f 164 280 278
f 166 297 280
f 167 333 168
f 186 333 167
f 169 171 170
f 170 171 189
f 178 170 187
f 170 189 187
f 174 173 172
f 174 175 173
f 190 175 174
f 190 191 175
f 176 185 177
f 177 351 176
f 176 199 185
f 194 199 176
f 176 351 194
f 177 185 186
f 178 187 179
f 179 187 188
f 179 188 195
f 180 201 189
f 196 201 180
f 180 246 196
f 180 258 246
f 181 184 182
f 181 182 197
f 183 184 181
f 184 262 182
f 197 182 198
f 182 260 198
f 182 262 260
f 184 278 262
f 185 333 186
f 199 333 185
f 187 189 188
f 188 189 201
f 195 188 200
f 188 201 200
f 192 191 190
f 192 193 191
f 202 193 192
f 202 203 193
f 194 209 199
f 204 209 194
f 194 351 204
f 195 200 205
f 196 211 201
f 206 211 196
f 196 236 206
f 196 246 236
f 197 198 207
f 207 198 208
f 198 248 208
f 198 260 248
f 209 333 199
f 200 201 210
f 205 200 210
f 210 201 211
f 212 203 202
f 212 213 203
f 204 219 209
f 214 219 204
f 204 351 214
f 205 210 215
f 206 221 211
f 216 221 206
f 206 226 216
f 206 236 226
f 207 208 217
f 217 208 218
f 208 238 218
f 208 248 238
f 219 333 209
f 210 211 221
f 215 210 220
f 210 221 220
f 222 213 212
f 222 223 213
f 214 229 219
f 224 229 214
f 214 351 224
f 215 220 225
f 318 215 225
f 216 231 221
f 226 231 216
f 217 218 228
f 217 228 227
f 218 238 228
f 229 333 219
f 220 221 231
f 225 220 230
f 220 231 230
f 222 233 223
f 232 233 222
f 224 239 229
f 234 239 224
f 224 351 234
f 225 230 235
f 235 318 225
f 226 241 231
f 236 241 226
f 227 228 238
f 227 238 237
f 239 333 229
f 230 231 241
f 235 230 240
f 230 241 240
f 232 243 233
f 242 243 232
f 243 643 233
f 233 643 653
f 234 249 239
f 244 249 234
f 234 351 244
f 235 240 245
f 245 318 235
f 236 251 241
f 246 251 236
f 237 238 248
f 237 248 247
f 247 627 237
f 237 627 637
f 249 333 239
f 240 241 251
f 245 240 250
f 240 251 250
f 242 253 243
f 252 253 242
f 642 252 242
f 642 242 875
f 253 633 243
f 243 633 643
f 244 263 249
f 254 263 244
f 244 351 254
f 245 250 257
f 257 318 245
f 246 267 251
f 258 267 246
f 247 248 260
f 247 260 259
f 259 611 247
f 247 611 627
f 263 333 249
f 250 251 267
f 257 250 266
f 250 267 266
f 252 271 253
f 270 271 252
f 632 270 252
f 632 252 642
f 271 623 253
f 253 623 633
f 255 264 254
f 254 351 255
f 254 264 263
f 255 281 264
f 272 281 255
f 255 351 272
f 257 266 256
f 256 318 257
f 256 266 265
f 256 265 275
f 275 318 256
f 258 285 267
f 276 285 258
f 259 260 262
f 259 262 261
f 261 613 259
f 259 613 611
f 261 262 278
f 261 278 277
f 277 593 261
f 261 593 613
f 264 333 263
f 281 333 264
f 266 267 265
f 265 267 285
f 275 265 284
f 265 285 284
f 268 269 270
f 268 289 269
f 622 268 270
f 288 289 268
f 620 288 268
f 620 268 622
f 270 269 271
f 269 621 271
f 289 605 269
f 269 605 621
f 622 270 632
f 271 621 623
f 273 282 272
f 272 351 273
f 272 282 281
f 273 300 282
f 290 300 273
f 273 351 290
f 275 284 274
f 274 318 275
f 274 284 283
f 274 283 293
f 293 318 274
f 276 305 285
f 295 305 276
f 277 278 279
f 279 595 277
f 277 595 593
f 279 278 280
f 279 280 297
f 279 297 296
f 296 574 279
f 279 574 595
f 282 333 281
f 300 333 282
f 284 285 283
f 283 285 305
f 293 283 303
f 283 305 303
f 286 287 288
f 286 309 287
f 604 286 288
f 308 309 286
f 602 308 286
f 602 286 604
f 288 287 289
f 287 603 289
f 309 587 287
f 287 587 603
f 604 288 620
f 289 603 605
f 291 301 290
f 290 351 291
f 290 301 300
f 291 334 301
f 310 334 291
f 291 351 310
f 293 303 292
f 292 318 293
f 292 303 302
f 292 302 317
f 317 318 292
f 294 304 295
f 294 342 304
f 318 342 294
f 295 304 305
f 296 297 298
f 298 576 296
f 296 576 574
f 298 297 299
f 298 299 319
f 319 542 298
f 298 542 576
f 319 299 320
f 301 333 300
f 334 333 301
f 303 305 302
f 302 305 304
f 302 304 341
f 317 302 341
f 341 304 342
f 306 307 309
f 343 307 306
f 306 309 308
f 586 306 308
f 584 343 306
f 584 306 586
f 307 585 309
f 343 344 307
f 344 567 307
f 307 567 585
f 586 308 602
f 309 585 587
f 311 335 310
f 310 351 311
f 310 335 334
f 312 336 311
f 311 351 312
f 311 336 335
f 313 337 312
f 312 351 313
f 312 337 336
f 314 338 313
f 313 351 314
f 313 338 337
f 314 318 315
f 315 339 314
f 314 351 318
f 314 339 338
f 315 318 316
f 316 340 315
f 315 340 339
f 316 318 317
f 317 341 316
f 316 341 340
f 318 346 342
f 345 346 318
f 351 345 318
f 319 320 321
f 321 544 319
f 319 544 542
f 321 320 322
f 321 322 323
f 323 546 321
f 321 546 544
f 323 322 324
f 323 324 325
f 325 548 323
f 323 548 546
f 325 324 326
f 325 326 327
f 550 325 327
f 548 325 550
f 327 326 328
f 327 328 329
f 552 327 329
f 550 327 552
f 329 328 330
f 329 330 333
f 329 333 331
f 554 329 331
f 552 329 554
f 331 333 332
f 331 332 343
f 566 331 343
f 554 331 566
f 332 333 555
f 343 332 344
f 332 555 344
f 335 333 334
f 335 354 333
f 555 333 354
f 336 354 335
f 337 354 336
f 338 354 337
f 339 342 338
f 338 342 354
f 340 342 339
f 341 342 340
f 342 346 354
f 566 343 584
f 344 555 567
f 345 350 346
f 348 350 345
f 351 348 345
f 346 350 354
f 347 349 348
f 351 347 348
f 347 356 349
f 351 353 347
f 353 356 347
f 348 349 350
f 354 350 349
f 354 349 356
f 352 353 351
f 352 351 355
f 355 351 354
f 351 521 354
f 351 847 521
f 352 420 353
f 352 355 357
f 352 357 361
f 352 361 362
f 352 362 369
f 369 370 352
f 352 370 377
f 352 377 378
f 352 378 385
f 352 385 386
f 386 395 352
f 352 395 396
f 352 396 403
f 352 403 404
f 352 404 405
f 405 415 352
f 415 416 352
f 416 417 352
f 417 418 352
f 418 419 352
f 352 419 420
f 353 360 356
f 358 360 353
f 353 364 358
f 363 364 353
f 372 363 353
f 353 371 372
f 353 380 371
f 379 380 353
f 389 379 353
f 353 387 388
f 398 387 353
f 353 388 389
f 397 398 353
f 408 397 353
f 353 406 407
f 353 426 406
f 353 407 408
f 420 421 353
f 421 422 353
f 422 423 353
f 423 424 353
f 353 424 425
f 353 425 426
f 354 356 355
f 354 521 524
f 555 354 524
f 355 356 360
f 357 355 359
f 355 360 359
f 357 359 361
f 358 368 360
f 364 368 358
f 359 360 365
f 361 359 365
f 365 360 368
f 361 365 362
f 362 365 366
f 362 366 369
f 363 367 364
f 363 376 367
f 372 376 363
f 364 367 368
f 365 367 366
f 365 368 367
f 366 367 376
f 369 366 373
f 366 376 373
f 369 373 370
f 370 373 374
f 370 374 377
f 371 375 372
f 371 384 375
f 380 384 371
f 372 375 376
f 373 375 374
f 373 376 375
f 374 375 384
f 377 374 381
f 374 384 381
f 377 381 378
f 378 381 382
f 378 382 385
f 379 383 380
f 379 394 383
f 389 394 379
f 380 383 384
f 381 383 382
f 381 384 383
f 382 383 394
f 385 382 390
f 382 394 390
f 385 390 386
f 386 390 391
f 386 391 395
f 387 392 388
f 387 402 392
f 398 402 387
f 388 393 389
f 388 392 393
f 389 393 394
f 390 393 391
f 390 394 393
f 391 393 392
f 391 392 399
f 395 391 399
f 399 392 402
f 395 399 396
f 396 399 400
f 396 400 403
f 397 401 398
f 397 414 401
f 408 414 397
f 398 401 402
f 399 401 400
f 399 402 401
f 400 401 414
f 403 400 409
f 400 414 409
f 403 409 404
f 404 410 405
f 404 409 410
f 405 410 411
f 405 411 415
f 406 412 407
f 406 438 412
f 426 438 406
f 407 413 408
f 407 412 413
f 408 413 414
f 409 412 410
f 409 413 412
f 409 414 413
f 410 412 411
f 411 412 438
f 415 411 427
f 411 438 427
f 415 427 416
f 416 428 417
f 416 427 428
f 417 429 418
f 417 428 429
f 418 430 419
f 418 429 430
f 419 431 420
f 419 430 431
f 420 432 421
f 420 431 432
f 421 433 422
f 421 432 433
f 422 434 423
f 422 433 434
f 423 435 424
f 423 434 435
f 424 436 425
f 424 435 436
f 425 437 426
f 425 436 437
f 426 437 438
f 427 437 428
f 427 438 437
f 428 436 429
f 428 437 436
f 429 436 430
f 430 435 431
f 430 436 435
f 431 433 432
f 431 434 433
f 431 435 434
f 440 452 439
f 439 467 440
f 439 452 451
f 439 451 465
f 465 467 439
f 441 453 440
f 440 467 441
f 440 453 452
f 442 454 441
f 441 467 442
f 441 454 453
f 443 455 442
f 442 467 443
f 442 455 454
f 444 456 443
f 443 467 444
f 443 456 455
f 445 457 444
f 444 467 445
f 444 457 456
f 446 458 445
f 445 467 446
f 445 458 457
f 447 459 446
f 446 467 447
f 446 459 458
f 448 460 447
f 447 467 448
f 447 460 459
f 449 461 448
f 448 467 449
f 448 461 460
f 450 462 449
f 449 467 450
f 449 462 461
f 450 472 462
f 450 467 466
f 466 472 450
f 451 452 472
f 465 451 471
f 471 451 472
f 452 453 472
f 453 454 472
f 454 455 472
f 472 455 456
f 472 456 457
f 472 457 458
f 472 458 459
f 472 459 460
f 472 460 461
f 472 461 462
f 463 467 464
f 464 470 463
f 463 468 467
f 476 468 463
f 463 470 469
f 463 469 476
f 464 467 465
f 465 471 464
f 464 471 470
f 467 473 466
f 466 473 472
f 468 474 467
f 467 474 473
f 468 481 474
f 476 477 468
f 477 481 468
f 472 469 470
f 473 469 472
f 474 469 473
f 474 480 469
f 476 469 480
f 472 470 471
f 481 480 474
f 475 477 476
f 476 480 475
f 475 478 477
f 475 485 478
f 475 480 479
f 475 479 484
f 484 485 475
f 478 482 477
f 477 482 481
f 478 490 482
f 485 490 478
f 481 479 480
f 482 479 481
f 490 479 482
f 484 479 489
f 490 489 479
f 483 486 484
f 484 489 483
f 483 487 486
f 494 487 483
f 483 489 488
f 483 488 494
f 484 486 485
f 486 491 485
f 485 491 490
f 487 492 486
f 486 492 491
f 487 499 492
f 494 495 487
f 495 499 487
f 491 488 489
f 492 488 491
f 492 498 488
f 494 488 498
f 491 489 490
f 499 498 492
f 493 495 494
f 494 498 493
f 493 496 495
f 502 496 493
f 493 498 497
f 493 497 502
f 496 500 495
f 495 500 499
f 496 507 500
f 502 503 496
f 503 507 496
f 499 497 498
f 500 497 499
f 500 506 497
f 502 497 506
f 507 506 500
f 501 503 502
f 502 506 501
f 501 504 503
f 510 504 501
f 501 506 505
f 501 505 510
f 504 508 503
f 503 508 507
f 504 515 508
f 510 511 504
f 511 515 504
f 507 505 506
f 508 505 507
f 508 514 505
f 510 505 514
f 515 514 508
f 509 511 510
f 510 514 509
f 509 512 511
f 509 518 512
f 509 514 513
f 509 513 517
f 517 518 509
f 512 516 511
f 511 516 515
f 512 520 516
f 518 520 512
f 515 513 514
f 516 513 515
f 520 513 516
f 517 513 519
f 520 519 513
f 522 518 517
f 517 519 522
f 518 526 520
f 522 523 518
f 523 526 518
f 520 525 519
f 522 519 525
f 526 525 520
f 521 523 522
f 522 524 521
f 535 523 521
f 534 521 533
f 533 521 569
f 535 521 534
f 521 781 569
f 521 847 781
f 525 524 522
f 523 529 526
f 527 529 523
f 536 527 523
f 536 523 535
f 524 525 555
f 555 525 526
f 555 526 529
f 528 530 527
f 536 528 527
f 527 530 529
f 528 532 530
f 531 532 528
f 536 531 528
f 555 529 530
f 530 532 555
f 531 565 532
f 537 531 536
f 537 541 531
f 541 565 531
f 532 560 555
f 532 561 560
f 565 561 532
f 533 557 534
f 533 579 557
f 569 579 533
f 534 558 535
f 534 557 558
f 535 559 536
f 535 558 559
f 536 560 537
f 536 559 560
f 538 541 537
f 537 561 538
f 537 560 561
f 539 541 538
f 538 562 539
f 538 561 562
f 539 563 540
f 540 572 539
f 539 572 541
f 539 562 563
f 540 563 564
f 540 564 570
f 570 572 540
f 541 582 565
f 572 582 541
f 543 542 544
f 577 542 543
f 577 576 542
f 543 544 545
f 545 752 543
f 543 750 577
f 543 752 750
f 545 544 546
f 545 546 547
f 547 754 545
f 545 754 752
f 547 546 548
f 547 548 549
f 549 756 547
f 547 756 754
f 549 548 550
f 549 550 551
f 551 758 549
f 549 758 756
f 551 550 552
f 551 552 553
f 553 760 551
f 551 760 758
f 553 552 556
f 556 552 554
f 556 763 553
f 553 763 760
f 556 554 555
f 555 554 566
f 555 558 556
f 555 559 558
f 555 560 559
f 555 566 567
f 556 558 557
f 556 557 763
f 763 557 579
f 562 561 565
f 563 562 565
f 564 563 565
f 565 580 564
f 570 564 580
f 565 581 580
f 565 599 581
f 734 565 582
f 600 599 565
f 617 600 565
f 565 618 617
f 565 630 618
f 565 640 630
f 565 650 640
f 660 650 565
f 565 772 660
f 772 565 734
f 567 566 585
f 585 566 584
f 568 578 569
f 569 781 568
f 568 598 578
f 589 598 568
f 568 781 589
f 569 578 579
f 571 573 570
f 570 580 571
f 570 573 572
f 571 592 573
f 571 580 581
f 571 581 590
f 590 592 571
f 573 583 572
f 572 583 582
f 573 601 583
f 592 601 573
f 575 574 576
f 575 595 574
f 575 576 577
f 577 729 575
f 596 595 575
f 575 727 596
f 575 729 727
f 577 750 729
f 578 763 579
f 598 763 578
f 590 581 599
f 735 582 583
f 734 582 735
f 715 583 601
f 735 583 715
f 585 584 587
f 587 584 586
f 587 586 602
f 587 602 603
f 588 597 589
f 589 781 588
f 588 616 597
f 607 616 588
f 588 781 607
f 589 597 598
f 591 592 590
f 590 599 591
f 591 610 592
f 591 599 600
f 591 600 608
f 608 610 591
f 592 619 601
f 610 619 592
f 594 593 595
f 594 613 593
f 594 595 596
f 596 710 594
f 614 613 594
f 594 708 614
f 594 710 708
f 596 727 710
f 597 763 598
f 616 763 597
f 608 600 617
f 697 601 619
f 715 601 697
f 603 602 604
f 603 604 605
f 605 604 620
f 605 620 621
f 606 615 607
f 607 781 606
f 606 629 615
f 624 629 606
f 606 781 624
f 607 615 616
f 609 610 608
f 608 617 609
f 609 626 610
f 609 617 618
f 609 618 625
f 625 626 609
f 610 631 619
f 626 631 610
f 612 611 614
f 612 627 611
f 614 611 613
f 614 692 612
f 628 627 612
f 612 690 628
f 612 692 690
f 614 708 692
f 615 763 616
f 629 763 615
f 625 618 630
f 681 619 631
f 697 619 681
f 621 620 622
f 621 622 623
f 623 622 632
f 623 632 633
f 624 639 629
f 634 639 624
f 624 781 634
f 635 626 625
f 625 630 635
f 626 641 631
f 635 636 626
f 636 641 626
f 628 637 627
f 638 637 628
f 628 678 638
f 628 690 678
f 639 763 629
f 635 630 640
f 671 631 641
f 681 631 671
f 633 632 642
f 633 642 643
f 634 649 639
f 644 649 634
f 634 781 644
f 635 646 636
f 635 640 645
f 645 646 635
f 636 651 641
f 646 651 636
f 638 647 637
f 637 647 845
f 648 647 638
f 638 668 648
f 638 678 668
f 649 763 639
f 645 640 650
f 661 641 651
f 671 641 661
f 643 642 652
f 875 652 642
f 643 652 653
f 644 659 649
f 654 659 644
f 644 781 654
f 645 656 646
f 645 650 655
f 655 656 645
f 646 661 651
f 656 661 646
f 648 657 647
f 845 647 657
f 658 657 648
f 648 668 658
f 659 763 649
f 655 650 660
f 653 652 662
f 875 662 652
f 653 662 663
f 653 663 876
f 654 669 659
f 664 669 654
f 654 781 664
f 655 666 656
f 655 660 665
f 665 666 655
f 656 671 661
f 666 671 656
f 668 657 658
f 668 667 657
f 845 657 667
f 669 763 659
f 665 660 670
f 660 772 670
f 663 662 673
f 673 662 672
f 875 672 662
f 663 673 876
f 664 679 669
f 674 679 664
f 664 781 674
f 665 676 666
f 665 670 675
f 675 676 665
f 666 681 671
f 676 681 666
f 678 667 668
f 678 677 667
f 845 667 677
f 679 763 669
f 675 670 680
f 670 772 680
f 673 672 683
f 683 672 682
f 875 682 672
f 673 683 876
f 674 693 679
f 684 693 674
f 674 781 684
f 675 688 676
f 675 680 687
f 687 688 675
f 676 697 681
f 688 697 676
f 690 677 678
f 690 689 677
f 845 677 689
f 693 763 679
f 687 680 696
f 680 772 696
f 683 682 701
f 701 682 700
f 875 700 682
f 861 683 701
f 876 683 861
f 685 694 684
f 684 781 685
f 684 694 693
f 685 711 694
f 702 711 685
f 685 781 702
f 686 688 687
f 687 696 686
f 686 706 688
f 686 696 695
f 686 695 705
f 705 706 686
f 688 715 697
f 706 715 688
f 692 689 690
f 692 691 689
f 845 689 691
f 708 691 692
f 708 707 691
f 691 707 845
f 694 763 693
f 711 763 694
f 696 772 695
f 705 695 714
f 695 772 714
f 699 700 698
f 699 698 719
f 698 700 875
f 719 698 718
f 875 718 698
f 701 700 699
f 861 701 699
f 699 719 861
f 703 712 702
f 702 781 703
f 702 712 711
f 703 730 712
f 720 730 703
f 703 781 720
f 704 706 705
f 705 714 704
f 704 725 706
f 704 714 713
f 704 713 723
f 723 725 704
f 706 735 715
f 725 735 706
f 708 709 707
f 707 709 845
f 710 709 708
f 727 709 710
f 727 726 709
f 845 709 726
f 712 763 711
f 730 763 712
f 714 772 713
f 723 713 733
f 713 772 733
f 717 718 716
f 717 716 739
f 875 716 718
f 739 716 738
f 875 738 716
f 719 718 717
f 719 717 861
f 861 717 739
f 721 731 720
f 720 781 721
f 720 731 730
f 721 764 731
f 740 764 721
f 721 781 740
f 722 725 723
f 723 733 722
f 722 724 725
f 747 724 722
f 722 733 732
f 722 732 747
f 724 734 725
f 724 772 734
f 747 748 724
f 748 772 724
f 725 734 735
f 727 728 726
f 845 726 728
f 729 728 727
f 729 749 728
f 845 728 749
f 750 749 729
f 731 763 730
f 764 763 731
f 733 772 732
f 747 732 771
f 732 772 771
f 739 736 737
f 737 736 773
f 739 738 736
f 875 736 738
f 773 736 875
f 739 737 861
f 737 773 774
f 861 737 774
f 741 765 740
f 740 781 741
f 740 765 764
f 742 766 741
f 741 781 742
f 741 766 765
f 743 767 742
f 742 781 743
f 742 767 766
f 744 768 743
f 743 781 744
f 743 768 767
f 744 748 745
f 745 769 744
f 744 781 748
f 744 769 768
f 745 748 746
f 746 770 745
f 745 770 769
f 746 748 747
f 747 771 746
f 746 771 770
f 748 776 772
f 775 776 748
f 781 775 748
f 750 751 749
f 749 751 845
f 752 751 750
f 752 753 751
f 751 753 845
f 754 753 752
f 754 755 753
f 753 755 845
f 756 755 754
f 756 757 755
f 875 755 757
f 845 755 875
f 758 757 756
f 758 759 757
f 875 757 759
f 760 759 758
f 763 759 760
f 763 761 759
f 875 759 761
f 762 761 763
f 762 773 761
f 875 761 773
f 763 861 762
f 774 773 762
f 774 762 861
f 765 763 764
f 765 784 763
f 784 862 763
f 763 862 861
f 766 784 765
f 767 784 766
f 768 786 767
f 767 786 784
f 769 772 768
f 768 772 786
f 770 772 769
f 771 772 770
f 772 776 780
f 780 779 772
f 779 786 772
f 775 780 776
f 778 780 775
f 781 778 775
f 777 779 778
f 781 777 778
f 777 786 779
f 781 783 777
f 783 786 777
f 778 779 780
f 782 783 781
f 782 781 785
f 785 781 784
f 781 848 784
f 847 848 781
f 783 782 788
f 782 785 787
f 788 782 787
f 783 790 786
f 788 790 783
f 785 784 786
f 784 848 862
f 786 868 785
f 787 785 789
f 785 795 789
f 796 795 785
f 803 796 785
f 785 804 803
f 785 811 804
f 812 811 785
f 820 812 785
f 785 821 820
f 785 829 821
f 830 829 785
f 839 830 785
f 785 840 839
f 785 841 840
f 785 863 841
f 785 864 863
f 785 865 864
f 785 866 865
f 785 867 866
f 868 867 785
f 790 798 786
f 786 798 797
f 786 797 806
f 806 805 786
f 786 805 814
f 786 814 813
f 786 813 824
f 823 822 786
f 786 822 832
f 786 824 823
f 786 832 831
f 786 831 844
f 786 843 842
f 842 874 786
f 786 844 843
f 786 869 868
f 786 870 869
f 786 871 870
f 786 872 871
f 873 872 786
f 874 873 786
f 788 787 791
f 787 789 791
f 788 798 790
f 788 791 794
f 794 798 788
f 791 789 795
f 793 791 792
f 791 795 792
f 794 791 793
f 793 792 802
f 792 795 796
f 792 796 799
f 802 792 799
f 793 797 794
f 793 806 797
f 802 806 793
f 794 797 798
f 799 796 803
f 801 799 800
f 799 803 800
f 802 799 801
f 801 800 810
f 800 803 804
f 800 804 807
f 810 800 807
f 801 805 802
f 801 814 805
f 810 814 801
f 802 805 806
f 807 804 811
f 809 807 808
f 807 811 808
f 810 807 809
f 809 808 819
f 808 811 812
f 808 812 815
f 819 808 815
f 809 813 810
f 809 824 813
f 819 824 809
f 810 813 814
f 815 812 820
f 818 815 816
f 815 820 816
f 819 815 818
f 818 816 817
f 817 816 825
f 816 820 821
f 816 821 825
f 817 822 818
f 817 832 822
f 817 825 828
f 828 832 817
f 818 823 819
f 818 822 823
f 819 823 824
f 825 821 829
f 827 825 826
f 825 829 826
f 828 825 827
f 827 826 838
f 826 829 830
f 826 830 833
f 838 826 833
f 827 831 828
f 827 844 831
f 838 844 827
f 828 831 832
f 833 830 839
f 836 833 834
f 833 839 834
f 837 833 836
f 838 833 837
f 836 834 835
f 834 840 835
f 834 839 840
f 836 835 860
f 835 840 841
f 835 841 849
f 860 835 849
f 836 842 837
f 836 874 842
f 860 874 836
f 837 843 838
f 837 842 843
f 838 843 844
f 849 841 863
f 846 845 847
f 847 845 861
f 845 875 861
f 862 848 847
f 847 861 862
f 859 849 850
f 849 863 850
f 860 849 859
f 858 850 851
f 850 864 851
f 859 850 858
f 850 863 864
f 858 851 852
f 851 865 852
f 851 864 865
f 857 852 853
f 852 866 853
f 858 852 857
f 852 865 866
f 855 853 854
f 853 867 854
f 856 853 855
f 857 853 856
f 853 866 867
f 854 868 855
f 854 867 868
f 855 869 856
f 855 868 869
f 856 870 857
f 856 869 870
f 857 871 858
f 857 870 871
f 858 872 859
f 858 871 872
f 859 873 860
f 859 872 873
f 860 873 874
f 861 875 876
