v 0.05 -0.030999999 0.0730000019
v 0.05 -0.030999999 0.075999999
v 0.05 0.030999999 0.0730000019
v 0.05 0.030999999 0.075999999
v 0.0524989891 -0.0282981014 0.0730000019
v 0.0524989891 -0.0282981014 0.075999999
v 0.0524720478 -0.0282452321 0.0730000019
v 0.0524720478 -0.0282452321 0.075999999
v 0.0523742819 -0.0279970312 0.0730000019
v 0.0523742819 -0.0279970312 0.075999999
v 0.0523165464 -0.0277365947 0.0730000019
v 0.0523165464 -0.0277365947 0.075999999
v 0.0523000002 -0.0275 0.0730000019
v 0.0523000002 -0.0275 0.075999999
v 0.0523209286 -0.0272340608 0.0730000019
v 0.0523209286 -0.0272340608 0.075999999
v 0.0523832035 -0.0269746709 0.0730000019
v 0.0523832035 -0.0269746709 0.075999999
v 0.0524852896 -0.0267282152 0.0730000019
v 0.0524852896 -0.0267282152 0.075999999
v 0.0524989891 0.0267018986 0.0730000019
v 0.0524989891 0.0267018986 0.075999999
v 0.0524720478 0.0267547679 0.0730000019
v 0.0524720478 0.0267547679 0.075999999
v 0.0523742819 0.0270029688 0.0730000019
v 0.0523742819 0.0270029688 0.075999999
v 0.0523165464 0.0272634053 0.0730000019
v 0.0523165464 0.0272634053 0.075999999
v 0.0523000002 0.0275 0.0730000019
v 0.0523000002 0.0275 0.075999999
v 0.0523209286 0.0277659392 0.0730000019
v 0.0523209286 0.0277659392 0.075999999
v 0.0523832035 0.0280253291 0.0730000019
v 0.0523832035 0.0280253291 0.075999999
v 0.0524852896 0.0282717848 0.0730000019
v 0.0524852896 0.0282717848 0.075999999
v 0.0527366543 -0.0286375213 0.0730000019
v 0.0527366543 -0.0286375213 0.075999999
v 0.0526246691 -0.0284992361 0.0730000019
v 0.0526246691 -0.0284992361 0.075999999
v 0.0525131464 -0.0266758227 0.0730000019
v 0.0525131464 -0.0266758227 0.075999999
v 0.0526423216 -0.0264769149 0.0730000019
v 0.0526423216 -0.0264769149 0.075999999
v 0.0527366543 0.0263624787 0.0730000019
v 0.0527366543 0.0263624787 0.075999999
v 0.0526246691 0.0265007639 0.0730000019
v 0.0526246691 0.0265007639 0.075999999
v 0.0525131464 0.0283241773 0.0730000019
v 0.0525131464 0.0283241773 0.075999999
v 0.0526423216 0.0285230851 0.0730000019
v 0.0526423216 0.0285230851 0.075999999
v 0.0529769135 -0.0288576794 0.0730000019
v 0.0529769135 -0.0288576794 0.075999999
v 0.0528406048 -0.0287433004 0.0730000019
v 0.0528406048 -0.0287433004 0.075999999
v 0.0527567005 -0.0263406038 0.0730000019
v 0.0527567005 -0.0263406038 0.075999999
v 0.0528624773 -0.0262366533 0.0730000019
v 0.0528624773 -0.0262366533 0.075999999
v 0.0529769135 0.0261423206 0.0730000019
v 0.0529769135 0.0261423206 0.075999999
v 0.0528406048 0.0262566996 0.0730000019
v 0.0528406048 0.0262566996 0.075999999
v 0.0527567005 0.0286593962 0.0730000019
v 0.0527567005 0.0286593962 0.075999999
v 0.0528624773 0.0287633467 0.0730000019
v 0.0528624773 0.0287633467 0.075999999
v 0.0532282162 -0.0290147114 0.0730000019
v 0.0532282162 -0.0290147114 0.075999999
v 0.0531758213 -0.0289868546 0.0730000019
v 0.0531758213 -0.0289868546 0.075999999
v 0.0530007648 -0.0261246705 0.0730000019
v 0.0530007648 -0.0261246705 0.075999999
v 0.0532018995 -0.0259989882 0.0730000019
v 0.0532018995 -0.0259989882 0.075999999
v 0.0532282162 0.0259852886 0.0730000019
v 0.0532282162 0.0259852886 0.075999999
v 0.0531758213 0.0260131454 0.0730000019
v 0.0531758213 0.0260131454 0.075999999
v 0.0530007648 0.0288753295 0.0730000019
v 0.0530007648 0.0288753295 0.075999999
v 0.0532018995 0.0290010118 0.0730000019
v 0.0532018995 0.0290010118 0.075999999
v 0.0534746695 -0.0291167951 0.0730000019
v 0.0534746695 -0.0291167951 0.075999999
v 0.0532547712 -0.0259720492 0.0730000019
v 0.0532547712 -0.0259720492 0.075999999
v 0.0534746695 0.0258832049 0.0730000019
v 0.0534746695 0.0258832049 0.075999999
v 0.0532547712 0.0290279508 0.0730000019
v 0.0532547712 0.0290279508 0.075999999
v 0.0537340593 -0.02917907 0.0730000019
v 0.0537340593 -0.02917907 0.075999999
v 0.0535029697 -0.0258742809 0.0730000019
v 0.0535029697 -0.0258742809 0.075999999
v 0.0537340593 0.02582093 0.0730000019
v 0.0537340593 0.02582093 0.075999999
v 0.0535029697 0.0291257191 0.0730000019
v 0.0535029697 0.0291257191 0.075999999
v 0.0539703321 -0.0291997409 0.0730000019
v 0.0539703321 -0.0291997409 0.075999999
v 0.0537634039 -0.0258165431 0.0730000019
v 0.0537634039 -0.0258165431 0.075999999
v 0.0539703321 0.0258002591 0.0730000019
v 0.0539703321 0.0258002591 0.075999999
v 0.0537634039 0.0291834569 0.0730000019
v 0.0537634039 0.0291834569 0.075999999
v 0.0542365932 -0.0291834569 0.0730000019
v 0.0542365932 -0.0291834569 0.075999999
v 0.054000001 -0.0257999992 0.0730000019
v 0.054000001 -0.0257999992 0.075999999
v 0.0542365932 0.0258165431 0.0730000019
v 0.0542365932 0.0258165431 0.075999999
v 0.054000001 0.0292000008 0.0730000019
v 0.054000001 0.0292000008 0.075999999
v 0.0544970322 -0.0291257191 0.0730000019
v 0.0544970322 -0.0291257191 0.075999999
v 0.0542659378 -0.02582093 0.0730000019
v 0.0542659378 -0.02582093 0.075999999
v 0.0544970322 0.0258742809 0.0730000019
v 0.0544970322 0.0258742809 0.075999999
v 0.0542659378 0.02917907 0.0730000019
v 0.0542659378 0.02917907 0.075999999
v 0.0547452307 -0.0290279508 0.0730000019
v 0.0547452307 -0.0290279508 0.075999999
v 0.0545253277 -0.0258832049 0.0730000019
v 0.0545253277 -0.0258832049 0.075999999
v 0.0547452307 0.0259720492 0.0730000019
v 0.0547452307 0.0259720492 0.075999999
v 0.0545253277 0.0291167951 0.0730000019
v 0.0545253277 0.0291167951 0.075999999
v 0.0547981024 -0.0290010118 0.0730000019
v 0.0547981024 -0.0290010118 0.075999999
v 0.0549992371 -0.0288753295 0.0730000019
v 0.0549992371 -0.0288753295 0.075999999
v 0.0548241758 -0.0260131454 0.0730000019
v 0.0548241758 -0.0260131454 0.075999999
v 0.0547717857 -0.0259852886 0.0730000019
v 0.0547717857 -0.0259852886 0.075999999
v 0.0547981024 0.0259989882 0.0730000019
v 0.0547981024 0.0259989882 0.075999999
v 0.0549992371 0.0261246705 0.0730000019
v 0.0549992371 0.0261246705 0.075999999
v 0.0548241758 0.0289868546 0.0730000019
v 0.0548241758 0.0289868546 0.075999999
v 0.0547717857 0.0290147114 0.0730000019
v 0.0547717857 0.0290147114 0.075999999
v 0.0551375198 -0.0287633467 0.0730000019
v 0.0551375198 -0.0287633467 0.075999999
v 0.0552433014 -0.0286593962 0.0730000019
v 0.0552433014 -0.0286593962 0.075999999
v 0.0551593971 -0.0262566996 0.0730000019
v 0.0551593971 -0.0262566996 0.075999999
v 0.0550230837 -0.0261423206 0.0730000019
v 0.0550230837 -0.0261423206 0.075999999
v 0.0551375198 0.0262366533 0.0730000019
v 0.0551375198 0.0262366533 0.075999999
v 0.0552433014 0.0263406038 0.0730000019
v 0.0552433014 0.0263406038 0.075999999
v 0.0551593971 0.0287433004 0.0730000019
v 0.0551593971 0.0287433004 0.075999999
v 0.0550230837 0.0288576794 0.0730000019
v 0.0550230837 0.0288576794 0.075999999
v 0.0553576803 -0.0285230851 0.0730000019
v 0.0553576803 -0.0285230851 0.075999999
v 0.0554868555 -0.0283241773 0.0730000019
v 0.0554868555 -0.0283241773 0.075999999
v 0.0553753281 -0.0265007639 0.0730000019
v 0.0553753281 -0.0265007639 0.075999999
v 0.0552633476 -0.0263624787 0.0730000019
v 0.0552633476 -0.0263624787 0.075999999
v 0.0553576803 0.0264769149 0.0730000019
v 0.0553576803 0.0264769149 0.075999999
v 0.0554868555 0.0266758227 0.0730000019
v 0.0554868555 0.0266758227 0.075999999
v 0.0553753281 0.0284992361 0.0730000019
v 0.0553753281 0.0284992361 0.075999999
v 0.0552633476 0.0286375213 0.0730000019
v 0.0552633476 0.0286375213 0.075999999
v 0.0555147123 -0.0282717848 0.0730000019
v 0.0555147123 -0.0282717848 0.075999999
v 0.0556167984 -0.0280253291 0.0730000019
v 0.0556167984 -0.0280253291 0.075999999
v 0.0556790686 -0.0277659392 0.0730000019
v 0.0556790686 -0.0277659392 0.075999999
v 0.0556997395 -0.0275296688 0.0730000019
v 0.0556997395 -0.0275296688 0.075999999
v 0.0556834555 -0.0272634053 0.0730000019
v 0.0556834555 -0.0272634053 0.075999999
v 0.05562572 -0.0270029688 0.0730000019
v 0.05562572 -0.0270029688 0.075999999
v 0.0555279493 -0.0267547679 0.0730000019
v 0.0555279493 -0.0267547679 0.075999999
v 0.0555010128 -0.0267018986 0.0730000019
v 0.0555010128 -0.0267018986 0.075999999
v 0.0555147123 0.0267282152 0.0730000019
v 0.0555147123 0.0267282152 0.075999999
v 0.0556167984 0.0269746709 0.0730000019
v 0.0556167984 0.0269746709 0.075999999
v 0.0556790686 0.0272340608 0.0730000019
v 0.0556790686 0.0272340608 0.075999999
v 0.0556997395 0.0274703312 0.0730000019
v 0.0556997395 0.0274703312 0.075999999
v 0.0556834555 0.0277365947 0.0730000019
v 0.0556834555 0.0277365947 0.075999999
v 0.05562572 0.0279970312 0.0730000019
v 0.05562572 0.0279970312 0.075999999
v 0.0555279493 0.0282452321 0.0730000019
v 0.0555279493 0.0282452321 0.075999999
v 0.0555010128 0.0282981014 0.0730000019
v 0.0555010128 0.0282981014 0.075999999
v 0.0580000019 -0.030999999 0.0730000019
v 0.0580000019 -0.030999999 0.075999999
v 0.0580000019 0.030999999 0.0730000019
v 0.0580000019 0.030999999 0.075999999
f 2 3 1
f 2 1 214
f 3 25 1
f 5 1 7
f 39 1 5
f 7 1 9
f 9 1 11
f 11 1 13
f 13 1 15
f 15 1 17
f 17 1 19
f 19 1 41
f 1 25 41
f 37 1 39
f 55 1 37
f 53 1 55
f 71 1 53
f 69 1 71
f 85 1 69
f 93 1 85
f 101 1 93
f 109 1 101
f 109 213 1
f 214 1 213
f 4 3 2
f 2 26 4
f 8 2 6
f 6 2 40
f 10 2 8
f 12 2 10
f 14 2 12
f 16 2 14
f 18 2 16
f 20 2 18
f 42 2 20
f 42 26 2
f 40 2 38
f 38 2 56
f 56 2 54
f 54 2 72
f 72 2 70
f 70 2 86
f 86 2 94
f 94 2 102
f 102 2 110
f 110 2 214
f 4 215 3
f 27 25 3
f 3 29 27
f 3 31 29
f 3 33 31
f 3 35 33
f 3 49 35
f 51 49 3
f 65 51 3
f 3 67 65
f 3 81 67
f 3 83 81
f 91 83 3
f 99 91 3
f 107 99 3
f 3 115 107
f 215 115 3
f 4 26 28
f 28 30 4
f 30 32 4
f 32 34 4
f 34 36 4
f 4 36 50
f 4 50 52
f 4 52 66
f 66 68 4
f 68 82 4
f 4 82 84
f 4 84 92
f 4 92 100
f 4 100 108
f 108 116 4
f 4 116 216
f 216 215 4
f 6 5 8
f 6 39 5
f 8 5 7
f 40 39 6
f 8 7 10
f 10 7 9
f 10 9 12
f 12 9 11
f 12 11 14
f 14 11 13
f 14 13 16
f 16 13 15
f 16 15 18
f 18 15 17
f 18 17 20
f 20 17 19
f 20 19 42
f 42 19 41
f 22 21 24
f 22 47 21
f 24 21 23
f 41 23 21
f 21 47 41
f 42 22 24
f 48 22 42
f 48 47 22
f 24 23 26
f 26 23 25
f 41 25 23
f 42 24 26
f 26 25 28
f 28 25 27
f 28 27 30
f 30 27 29
f 30 29 32
f 32 29 31
f 32 31 34
f 34 31 33
f 34 33 36
f 36 33 35
f 36 35 50
f 50 35 49
f 38 37 40
f 38 55 37
f 40 37 39
f 56 55 38
f 42 41 44
f 44 41 43
f 41 45 43
f 41 47 45
f 44 46 42
f 42 46 48
f 44 43 58
f 43 45 63
f 58 43 57
f 43 113 57
f 43 63 61
f 43 61 79
f 79 77 43
f 43 77 89
f 43 89 97
f 43 97 105
f 43 105 113
f 64 46 44
f 58 114 44
f 44 62 64
f 44 80 62
f 44 78 80
f 90 78 44
f 98 90 44
f 106 98 44
f 44 114 106
f 46 45 48
f 46 63 45
f 48 45 47
f 64 63 46
f 50 49 52
f 52 49 51
f 52 51 66
f 66 51 65
f 54 53 56
f 54 71 53
f 56 53 55
f 72 71 54
f 58 57 60
f 60 57 59
f 57 113 59
f 60 114 58
f 60 59 74
f 74 59 73
f 59 113 73
f 74 114 60
f 62 61 64
f 62 79 61
f 64 61 63
f 80 79 62
f 66 65 68
f 68 65 67
f 68 67 82
f 82 67 81
f 70 69 72
f 70 85 69
f 72 69 71
f 86 85 70
f 74 73 76
f 76 73 75
f 73 113 75
f 76 114 74
f 76 75 88
f 88 75 87
f 75 113 87
f 88 114 76
f 78 77 80
f 78 89 77
f 80 77 79
f 90 89 78
f 82 81 84
f 84 81 83
f 84 83 92
f 92 83 91
f 86 93 85
f 94 93 86
f 88 87 96
f 96 87 95
f 87 113 95
f 96 114 88
f 90 97 89
f 98 97 90
f 92 91 100
f 100 91 99
f 94 101 93
f 102 101 94
f 96 95 104
f 104 95 103
f 95 113 103
f 104 114 96
f 98 105 97
f 106 105 98
f 100 99 108
f 108 99 107
f 102 109 101
f 110 109 102
f 104 103 112
f 112 103 111
f 103 113 111
f 112 114 104
f 106 113 105
f 114 113 106
f 108 107 116
f 116 107 115
f 110 117 109
f 117 213 109
f 118 117 110
f 110 214 118
f 112 111 120
f 111 113 119
f 120 111 119
f 120 114 112
f 114 121 113
f 119 113 121
f 120 122 114
f 122 121 114
f 116 115 124
f 124 115 123
f 215 123 115
f 116 124 216
f 118 125 117
f 125 213 117
f 126 125 118
f 118 214 126
f 120 119 128
f 119 121 127
f 128 119 127
f 128 122 120
f 122 129 121
f 127 121 129
f 128 130 122
f 130 129 122
f 124 123 132
f 132 123 131
f 215 131 123
f 124 132 216
f 126 133 125
f 133 213 125
f 134 133 126
f 126 214 134
f 128 127 140
f 127 129 139
f 140 127 139
f 140 130 128
f 130 141 129
f 139 129 141
f 140 142 130
f 142 141 130
f 132 131 148
f 148 131 147
f 215 147 131
f 132 148 216
f 134 135 133
f 135 213 133
f 136 135 134
f 134 214 136
f 136 149 135
f 149 213 135
f 150 149 136
f 136 214 150
f 138 139 137
f 138 137 156
f 139 141 137
f 137 141 143
f 137 143 155
f 156 137 155
f 140 139 138
f 138 142 140
f 138 144 142
f 156 144 138
f 142 143 141
f 144 143 142
f 144 157 143
f 155 143 157
f 156 158 144
f 158 157 144
f 146 147 145
f 146 145 164
f 145 147 215
f 164 145 163
f 215 163 145
f 148 147 146
f 216 148 146
f 216 146 164
f 150 151 149
f 151 213 149
f 152 151 150
f 150 214 152
f 152 165 151
f 165 213 151
f 166 165 152
f 152 214 166
f 154 155 153
f 154 153 172
f 155 157 153
f 153 157 159
f 153 159 171
f 172 153 171
f 156 155 154
f 154 158 156
f 154 160 158
f 172 160 154
f 158 159 157
f 160 159 158
f 160 173 159
f 171 159 173
f 172 174 160
f 174 173 160
f 162 163 161
f 162 161 180
f 215 161 163
f 180 161 179
f 215 179 161
f 164 163 162
f 216 164 162
f 162 180 216
f 166 167 165
f 167 213 165
f 168 167 166
f 166 214 168
f 168 181 167
f 181 213 167
f 182 181 168
f 168 214 182
f 170 171 169
f 170 169 196
f 171 173 169
f 169 173 175
f 169 175 197
f 196 169 195
f 169 197 195
f 172 171 170
f 170 174 172
f 170 176 174
f 170 198 176
f 196 198 170
f 174 175 173
f 176 175 174
f 176 197 175
f 198 197 176
f 178 179 177
f 178 177 212
f 215 177 179
f 212 177 211
f 211 177 215
f 180 179 178
f 180 178 216
f 216 178 212
f 182 183 181
f 183 213 181
f 184 183 182
f 182 214 184
f 184 185 183
f 185 213 183
f 186 185 184
f 184 214 186
f 186 187 185
f 187 213 185
f 188 187 186
f 186 214 188
f 188 189 187
f 189 213 187
f 190 189 188
f 188 214 190
f 190 191 189
f 191 213 189
f 192 191 190
f 190 214 192
f 192 193 191
f 193 201 191
f 191 201 213
f 194 193 192
f 192 202 194
f 214 202 192
f 194 195 193
f 195 199 193
f 193 199 201
f 196 195 194
f 194 200 196
f 194 202 200
f 195 197 199
f 196 200 198
f 198 199 197
f 200 199 198
f 200 201 199
f 202 201 200
f 202 203 201
f 215 201 203
f 213 201 215
f 204 203 202
f 204 202 216
f 216 202 214
f 204 205 203
f 215 203 205
f 206 205 204
f 216 206 204
f 206 207 205
f 215 205 207
f 208 207 206
f 216 208 206
f 208 209 207
f 215 207 209
f 210 209 208
f 216 210 208
f 210 211 209
f 215 209 211
f 212 211 210
f 216 212 210
f 214 213 216
f 216 213 215
