v -0.0352701206 0.00149943162 -0.0602996254
v -0.0352961464 0.00147340585 -0.0599174261
v -0.0353174419 0.0014521103 -0.0595346427
v -0.0353340168 0.00143553544 -0.059151392
v -0.0353458614 0.00142369081 -0.0587677884
v -0.0353529663 0.00141658593 -0.0583839536
v -0.0353553409 0.00141421128 -0.0579999995
v -0.0350695248 0.00170002748 -0.0621977973
v -0.0351190014 0.00165055085 -0.0618202591
v -0.0351638145 0.0016057377 -0.0614415574
v -0.0352039451 0.00156560708 -0.0610618091
v -0.0352393837 0.00153016854 -0.0606811261
v -0.0350153942 0.00175415803 -0.0625740576
v -0.0348252697 0.00194428254 -0.0636940193
v -0.0348932476 0.00187630464 -0.0633222818
v -0.0349566288 0.00181292344 -0.0629489231
v -0.0347527141 0.00201683808 -0.0640640211
v -0.034593956 0.00217559625 -0.0647983742
v -0.0346756 0.00209395219 -0.0644321775
v -0.0345078106 0.00226174165 -0.065162499
v -0.034322092 0.00244746018 -0.0658840942
v -0.0344171734 0.00235237886 -0.0655244422
v -0.0341186829 0.00265086938 -0.0665960836
v -0.0342225857 0.00254696656 -0.0662413454
v -0.0340104217 0.00275913049 -0.0669482064
v -0.0337809486 0.00298861314 -0.0676441646
v -0.033897831 0.00287172128 -0.0672976017
v -0.0338034935 0.00296605874 -0.0607834625
v -0.0338357086 0.00293384362 -0.060437386
v -0.0338636513 0.00290590097 -0.0600905704
v -0.0338873119 0.00288224031 -0.0597431159
v -0.0339066715 0.00286288072 -0.0593951297
v -0.0339217396 0.00284781266 -0.0590467191
v -0.0339325066 0.00283704568 -0.058697989
v -0.0339389725 0.00283057977 -0.0583490491
v -0.0339411278 0.00282842446 -0.0579999995
v -0.0337670154 0.00300253678 -0.0611286902
v -0.0335344334 0.00323511888 -0.0683283734
v -0.0336597938 0.00310975839 -0.0679877901
v -0.0335210438 0.00324850846 -0.0628384376
v -0.0335786648 0.00319088746 -0.0624990201
v -0.0336320896 0.00313746263 -0.0621582341
v -0.0336812992 0.00308826257 -0.0618161798
v -0.0337262745 0.00304327775 -0.0614729643
v -0.0332711811 0.00349837113 -0.069000001
v -0.0334048767 0.00336467553 -0.068665812
v -0.033323185 0.00344636727 -0.0638474345
v -0.03339328 0.00337627221 -0.0635127473
v -0.0334592457 0.00331030656 -0.0631763816
v -0.0331333847 0.00363616754 -0.0693308377
v -0.0330882473 0.00368130494 -0.0648404026
v -0.0331706448 0.00359890748 -0.0645113635
v -0.0332489605 0.00352059175 -0.0641803408
v -0.0330018062 0.00376774598 -0.0651673579
v -0.0328456421 0.00392391015 -0.069982059
v -0.0329915256 0.00377802659 -0.0696582246
v -0.0328168983 0.00395265389 -0.0658146214
v -0.0329113502 0.00385820199 -0.0654921317
v -0.0325420017 0.00422755052 -0.0706186819
v -0.0326957912 0.004073761 -0.0703022432
v -0.0326161213 0.00415343095 -0.0664523649
v -0.0327184696 0.00405108262 -0.0661347318
v -0.0325098534 0.00425969888 -0.0667674232
v -0.0323843403 0.00438521195 -0.0709312749
v -0.032285759 0.00448380281 -0.067389431
v -0.032399723 0.00436982919 -0.0670798111
v -0.0320575638 0.00471198846 -0.0715445518
v -0.0322228451 0.00454670716 -0.0712399316
v -0.0320464344 0.00472311784 -0.0679999995
v -0.0321679802 0.00460157205 -0.0676961923
v -0.0318885441 0.00488100816 -0.0718450475
v -0.0317922039 0.00497734834 -0.0685983849
v -0.0319211693 0.00484838296 -0.0683007622
v -0.0315395183 0.00523003388 -0.0724332976
v -0.0317158432 0.00505370904 -0.0721413279
v -0.0315233536 0.00524619866 -0.0691838574
v -0.0316595859 0.00510996629 -0.0688927817
v -0.0313596077 0.00540994454 -0.0727208734
v -0.0313835449 0.00538600732 -0.0694715285
v -0.0310534973 -0.00276923369 -0.0599174261
v -0.0310748024 -0.00279052924 -0.0595346427
v -0.0310913772 -0.0028071041 -0.059151392
v -0.0311032219 -0.00281894874 -0.0587677884
v -0.0311103268 -0.00282605361 -0.0583839536
v -0.0311127014 -0.00282842826 -0.0579999995
v -0.0310274811 -0.00274320792 -0.0602996254
v -0.0311761875 0.00559336473 -0.0730039644
v -0.031093399 0.00567615319 -0.0700363016
v -0.0312402172 0.00552933503 -0.0697557044
v -0.0308268852 -0.00254261207 -0.0621977973
v -0.0308763618 -0.00259208869 -0.0618202591
v -0.030921175 -0.00263690185 -0.0614415574
v -0.0309613056 -0.00267703246 -0.0610618091
v -0.0309967441 -0.002712471 -0.0606811261
v -0.0307727547 -0.00248848151 -0.0625740576
v -0.0307989902 0.00597056199 -0.0735563493
v -0.0309892864 0.00578026582 -0.073282485
v -0.0307894916 0.00598006059 -0.0705864072
v -0.0309431476 0.00582640458 -0.0703132296
v -0.0305826301 -0.002298357 -0.0636940193
v -0.0306506081 -0.00236633491 -0.0633222818
v -0.0307139892 -0.0024297161 -0.0629489231
v -0.0305100746 -0.00222580146 -0.0640640211
v -0.0306053371 0.0061642151 -0.0738254762
v -0.0306324978 0.00613705445 -0.070855751
v -0.0303513164 -0.00206704329 -0.0647983742
v -0.0304329605 -0.00214868735 -0.0644321775
v -0.030265171 -0.00198089789 -0.065162499
v -0.0304083938 0.00636115838 -0.0740897822
v -0.0303086491 0.00646090318 -0.0713826132
v -0.0304721947 0.00629735757 -0.0711211801
v -0.0300794525 -0.00179517936 -0.0658840942
v -0.0301745338 -0.00189026069 -0.0655244422
v -0.0302082176 0.00656133462 -0.0743491864
v -0.0301418896 0.00662766267 -0.071639967
v -0.0300048752 0.00676467706 -0.07460361
v -0.0298760433 -0.00159177016 -0.0665960836
v -0.0299799461 -0.00169567298 -0.0662413454
v -0.0297677822 -0.00148350905 -0.0669482064
v -0.0297984142 0.00697113801 -0.0748529768
v -0.0297989864 0.00697056581 -0.0721421361
v -0.0299719925 0.00679755975 -0.0718931675
v -0.0295382996 -0.00125403594 -0.0676441646
v -0.0296551914 -0.00137091826 -0.0672976017
v -0.0295608539 -0.0012765808 -0.0607834625
v -0.0295930691 -0.00130879592 -0.060437386
v -0.0296210117 -0.00133673858 -0.0600905704
v -0.0296446724 -0.00136039924 -0.0597431159
v -0.029664032 -0.00137976836 -0.0593951297
v -0.0296791 -0.00139483642 -0.0590467191
v -0.029689867 -0.00140559386 -0.058697989
v -0.0296963329 -0.00141205977 -0.0583490491
v -0.0296984882 -0.00141421508 -0.0579999995
v -0.0295243759 -0.00124010276 -0.0611286902
v -0.0295889206 0.00718063165 -0.0750972128
v -0.0296229381 0.00714661408 -0.0723867965
v -0.0292917938 -0.00100752067 -0.0683283734
v -0.0294171543 -0.00113289069 -0.0679877901
v -0.0293360252 -0.00105175208 -0.0624990201
v -0.0293894405 -0.00110517692 -0.0621582341
v -0.0294386501 -0.00115438651 -0.0618161798
v -0.0294836349 -0.00119936179 -0.0614729643
v -0.0292784042 -0.000994131078 -0.0628384376
v -0.0293764324 0.00739311982 -0.075336237
v -0.0294439049 0.00732564736 -0.0726270747
v -0.0292619247 0.0075076275 -0.0728628969
v -0.0291622372 -0.00087796401 -0.068665812
v -0.0290805454 -0.000796272268 -0.0638474345
v -0.0291506405 -0.00086636733 -0.0635127473
v -0.0292166061 -0.000932332983 -0.0631763816
v -0.0290285416 -0.000744268407 -0.069000001
v -0.0290063209 -0.000722047796 -0.0641803408
v -0.0291610355 0.0076085167 -0.0755699825
v -0.0290770645 0.00769248773 -0.0730941916
v -0.0288907452 -0.000606472005 -0.0693308377
v -0.0288456077 -0.0005613346 -0.0648404026
v -0.0289280052 -0.000643732061 -0.0645113635
v -0.0287591667 -0.000474903097 -0.0651673579
v -0.0289427872 0.00782677461 -0.0757983732
v -0.0288893814 0.00788017083 -0.0733208895
v -0.0286030025 -0.000318729391 -0.069982059
v -0.0287488861 -0.000464612951 -0.0696582246
v -0.0285742493 -0.000289985647 -0.0658146214
v -0.0286687107 -0.000384437551 -0.0654921317
v -0.0287217445 0.0080478077 -0.076021347
v -0.0286989231 0.00807062913 -0.0735429192
v -0.0285057564 0.00826379586 -0.0737602162
v -0.0282993622 -1.50890251e-05 -0.0706186819
v -0.0284531517 -0.000168878545 -0.0703022432
v -0.0283734722 -8.9208593e-05 -0.0664523649
v -0.0284758301 -0.000191566457 -0.0661347318
v -0.0282672138 1.70593361e-05 -0.0667674232
v -0.0282715816 0.00849797059 -0.0764507532
v -0.0284979935 0.00827155877 -0.0762388277
v -0.0283099384 0.00845961381 -0.0739727092
v -0.0281417007 0.000142572413 -0.0709312749
v -0.0280431099 0.000241153727 -0.067389431
v -0.0281570835 0.000127189646 -0.0670798111
v -0.0280425949 0.00872695733 -0.0766570568
v -0.0281115265 0.00865802575 -0.0741803408
v -0.0278149242 0.000469348917 -0.0715445518
v -0.0279802055 0.000304067622 -0.0712399316
v -0.0278037949 0.00048046876 -0.0679999995
v -0.0279253406 0.000358932505 -0.0676961923
v -0.0278111 0.00895845223 -0.0768576813
v -0.0279105873 0.00885896493 -0.0743830419
v -0.0276459045 0.000638368617 -0.0718450475
v -0.0275495644 0.000734708796 -0.0685983849
v -0.0276785297 0.000605743418 -0.0683007622
v -0.0275771637 0.00919238854 -0.0770525599
v -0.0277071686 0.00906238366 -0.0745807505
v -0.0275013466 0.00926820565 -0.0747734118
v -0.0272968788 0.000987394343 -0.0724332976
v -0.0274732036 0.000811069498 -0.0721413279
v -0.0274169464 0.000867326746 -0.0688927817
v -0.027280714 0.00100355912 -0.0691838574
v -0.0273408623 0.0094286995 -0.0772416353
v -0.0272931785 0.00947637368 -0.0749609613
v -0.0271169681 0.001167305 -0.0727208734
v -0.0271409054 0.00114335824 -0.0694715285
v -0.027102253 0.00966729928 -0.0774248457
v -0.0270827312 0.00968682099 -0.0751433468
v -0.0269335384 0.00135072518 -0.0730039644
v -0.0268507595 0.00143351365 -0.0700363016
v -0.0269975777 0.00128669549 -0.0697557044
v -0.0268614216 0.00990813066 -0.0776021433
v -0.0268700619 0.00989949037 -0.0753205061
v -0.0265563507 0.00172792245 -0.0735563493
v -0.0267466469 0.00153761674 -0.073282485
v -0.0265468521 0.00173742105 -0.0705864072
v -0.0267005081 0.00158376504 -0.0703132296
v -0.0266184444 0.0101511078 -0.0777734709
v -0.0266552372 0.010114315 -0.0754923964
v -0.0263626976 0.00192157556 -0.0738254762
v -0.0263898582 0.00189441491 -0.070855751
v -0.0263733883 0.010396164 -0.0779387712
v -0.026438324 0.0103312283 -0.0756589508
v -0.0261657543 0.00211851884 -0.0740897822
v -0.026066 0.00221826364 -0.0713826132
v -0.0262295551 0.00205471803 -0.0711211801
v -0.0261263294 0.0106432228 -0.0780980015
v -0.026219389 0.0105501633 -0.0758201313
v -0.0259655781 0.00231869508 -0.0743491864
v -0.02589925 0.00238502313 -0.071639967
v -0.0257622356 0.00252203752 -0.07460361
v -0.0258773441 0.0108922129 -0.0782511091
v -0.025775711 0.0109938364 -0.0761261559
v -0.0259984894 0.0107710629 -0.0759758806
v -0.0255557747 0.00272848893 -0.0748529768
v -0.0255563469 0.00272792626 -0.0721421361
v -0.0257293529 0.00255492021 -0.0718931675
v -0.0256264992 0.0111430531 -0.0783980465
v -0.0255511112 0.0112184363 -0.0762709093
v -0.025346281 0.00293799211 -0.0750972128
v -0.0253802986 0.00290396501 -0.0723867965
v -0.0253738899 0.0113956671 -0.0785387707
v -0.0253247661 0.0114447909 -0.0764100981
v -0.0251337929 0.00315048028 -0.075336237
v -0.0252012653 0.00308300782 -0.0726270747
v -0.0250192852 0.00326498796 -0.0728628969
v -0.0251195736 0.0116499786 -0.0786732388
v -0.0250967235 0.0116728239 -0.0765436792
v -0.024918396 0.00336587716 -0.0755699825
v -0.024834425 0.00344984818 -0.0730941916
v -0.0248636455 0.0119059115 -0.0788014078
v -0.0248670788 0.0119024735 -0.0766716099
v -0.0247001381 0.00358412553 -0.0757983732
v -0.0246467419 0.00363753129 -0.0733208895
v -0.024606163 0.0121633844 -0.0789232445
v -0.024635889 0.012133668 -0.0767938519
v -0.024479105 0.00380516816 -0.076021347
v -0.0244562836 0.00382798959 -0.0735429192
v -0.0242553539 0.00402891923 -0.0762388277
v -0.0242631168 0.00402115632 -0.0737602162
v -0.0243472309 0.0124223261 -0.0790387058
v -0.0244032211 0.0123663359 -0.0769103718
v -0.0240672989 0.00421697427 -0.0739727092
v -0.0240289421 0.00425533105 -0.0764507532
v -0.0240868969 0.0126826506 -0.0791477585
v -0.0241691513 0.0126004009 -0.0770211315
v -0.0237999554 0.00448430825 -0.0766570568
v -0.0238688869 0.00441538621 -0.0741803408
v -0.0238252659 0.0129442816 -0.0792503691
v -0.0239337463 0.0128358011 -0.0771260929
v -0.0235684605 0.00471581269 -0.0768576813
v -0.0236679478 0.00461632539 -0.0743830419
v -0.0235624142 0.0132071428 -0.0793465042
v -0.023697092 0.0130724602 -0.0772252321
v -0.0233345241 0.004949749 -0.0770525599
v -0.023464529 0.00481974412 -0.0745807505
v -0.023258707 0.00502556611 -0.0747734118
v -0.0232984085 0.0134711437 -0.0794361401
v -0.0234592457 0.0133103066 -0.0773185158
v -0.0230982132 0.00518605042 -0.0772416353
v -0.023050539 0.00523373414 -0.0749609613
v -0.0230333347 0.0137362175 -0.079519248
v -0.0232202835 0.0135492687 -0.0774059153
v -0.0228596134 0.00542465974 -0.0774248457
v -0.0228400917 0.00544418145 -0.0751433468
v -0.0229802818 0.0137892752 -0.077487402
v -0.0227672787 0.0140022736 -0.0795957994
v -0.022618782 0.00566549111 -0.0776021433
v -0.0226274128 0.00565685082 -0.0753205061
v -0.0227393074 0.0140302496 -0.077562952
v -0.0225003261 0.0142692309 -0.0796657705
v -0.0223758049 0.00590846826 -0.0777734709
v -0.0224125881 0.0058716755 -0.0754923964
v -0.0224974365 0.0142721157 -0.0776325417
v -0.0222547455 0.0145148068 -0.0776961565
v -0.0221307487 0.00615352441 -0.0779387712
v -0.0221956844 0.00608858872 -0.0756589508
v -0.0222325344 0.0145370131 -0.0797291422
v -0.0220113106 0.0147582464 -0.077753768
v -0.0218836899 0.00640058328 -0.0780980015
v -0.0219767399 0.00630752374 -0.0758201313
v -0.0217558498 0.00652841378 -0.0759758806
v -0.0219640179 0.0148055391 -0.0797858953
v -0.0217671986 0.0150023584 -0.0778053617
v -0.021634695 0.00664956857 -0.0782511091
v -0.0215330715 0.00675120164 -0.0761261559
v -0.0216948337 0.0150747185 -0.0798360157
v -0.0215224857 0.0152470713 -0.0778509235
v -0.0213838596 0.00690041352 -0.0783980465
v -0.0213084717 0.00697580148 -0.0762709093
v -0.0214250679 0.0153444796 -0.0798794794
v -0.0212772484 0.0154923086 -0.077890439
v -0.0211312504 0.00715302278 -0.0785387707
v -0.0210821171 0.00720214654 -0.0764100981
v -0.0211548157 0.0156147366 -0.0799162817
v -0.0210315628 0.0157379942 -0.0779238939
v -0.020876934 0.00740733911 -0.0786732388
v -0.020854084 0.00743018914 -0.0765436792
v -0.0208841438 0.0158854084 -0.0799464083
v -0.0207854957 0.0159840565 -0.0779512787
v -0.0206209965 0.00766326715 -0.0788014078
v -0.0206244392 0.00765983392 -0.0766716099
v -0.0206131477 0.0161564045 -0.0799698496
v -0.0205391331 0.0162304192 -0.0779725885
v -0.0203635235 0.00792074967 -0.0789232445
v -0.02039324 0.00789102365 -0.0767938519
v -0.0203418941 0.0164276533 -0.0799865961
v -0.0202925415 0.0164770107 -0.0779878187
v -0.0201045818 0.00817968179 -0.0790387058
v -0.0201605816 0.00812369157 -0.0769103718
v -0.020070488 0.016699069 -0.0799966478
v -0.0200458069 0.0167237501 -0.0779969549
v -0.0198442573 0.0084400158 -0.0791477585
v -0.0199265118 0.00835776139 -0.0770211315
v -0.0197989864 0.016970561 -0.08
v -0.0197989864 0.016970561 -0.0780000019
v -0.0197919197 0.0169776325 -0.0779999971
v -0.0195826263 0.00870164681 -0.0792503691
v -0.0196911068 0.00859316636 -0.0771260929
v -0.0193197746 0.00896449853 -0.0793465042
v -0.0194544525 0.00882982064 -0.0772252321
v -0.019055769 0.00922850419 -0.0794361401
v -0.0192166061 0.00906766702 -0.0773185158
v -0.0187906952 0.00949357797 -0.079519248
v -0.018977644 0.00930662919 -0.0774059153
v -0.0187376327 0.00954663087 -0.077487402
v -0.0185246391 0.00975963403 -0.0795957994
v -0.0184966679 0.0097876053 -0.077562952
v -0.0182576771 0.0100265865 -0.0796657705
v -0.018254797 0.0100294762 -0.0776325417
v -0.0180121059 0.0102721672 -0.0776961565
v -0.0179898949 0.0102943688 -0.0797291422
v -0.017768671 0.0105156021 -0.077753768
v -0.0177213783 0.0105628948 -0.0797858953
v -0.0175245495 0.0107597141 -0.0778053617
v -0.0174521942 0.0108320789 -0.0798360157
v -0.0172798462 0.011004427 -0.0778509235
v -0.0171824284 0.01110184 -0.0798794794
v -0.0170346088 0.0112496643 -0.077890439
v -0.0169121761 0.011372097 -0.0799162817
v -0.0167889137 0.0114953547 -0.0779238939
v -0.0166415043 0.0116427641 -0.0799464083
v -0.0165428562 0.0117414169 -0.0779512787
v -0.0163705082 0.011913765 -0.0799698496
v -0.0162964935 0.0119877796 -0.0779725885
v -0.0160992546 0.0121850138 -0.0799865961
v -0.016049902 0.0122343664 -0.0779878187
v -0.0158278484 0.0124564247 -0.0799966478
v -0.0158031673 0.0124811058 -0.0779969549
v -0.0155563469 0.0127279215 -0.08
v -0.0155563469 0.0127279215 -0.0780000019
v -0.0155492802 0.012734993 -0.0779999971
v -0.0141421337 0.0226274185 -0.08
v -0.0141421337 0.0226274185 -0.0780000019
v -0.01414921 0.022620347 -0.0779999971
v -0.0140187282 0.022750824 -0.077998476
v -0.0139940472 0.0227755051 -0.0799981737
v -0.0137720604 0.0229974871 -0.0779862976
v -0.0136980457 0.0230715017 -0.0799835539
v -0.0135258503 0.0232437019 -0.0779619455
v -0.0134025974 0.0233669596 -0.0799543381
v -0.0132803936 0.0234891634 -0.0779254627
v -0.0132551784 0.023514369 -0.0799342632
v -0.013108036 0.0236615114 -0.0799105549
v -0.0130359764 0.0237335758 -0.0778768826
v -0.0129612083 0.0238083391 -0.0798832178
v -0.0127929134 0.0239766388 -0.0778162718
v -0.0126686783 0.0241008692 -0.0798176908
v -0.012671978 0.0240975742 -0.077781477
v -0.0125514908 0.0242180615 -0.0777437019
v -0.0123779507 0.0243916063 -0.0797377729
v -0.0123120041 0.0244575434 -0.0776592588
v -0.0122333641 0.0245361881 -0.07969244
v -0.0120747585 0.0246947985 -0.0775630474
v -0.0119459839 0.0248235684 -0.0795911121
v -0.011957056 0.0248124962 -0.0775105667
v -0.0118400211 0.0249295311 -0.0774551868
v -0.0116612835 0.0251082735 -0.0794756556
v -0.0116080875 0.0251614599 -0.0773358059
v -0.0113795967 0.0253899555 -0.0793462229
v -0.0114932651 0.0252762871 -0.0772718382
v -0.0113792534 0.0253903036 -0.0772050476
v -0.0112660713 0.0255034809 -0.0771354532
v -0.0112399979 0.0255295544 -0.0792763138
v -0.0111012859 0.0256682711 -0.0792029667
v -0.0111537762 0.0256157808 -0.0770630789
v -0.011042387 0.02572717 -0.0769879389
v -0.0109634895 0.0258060579 -0.0791262054
v -0.0108224697 0.0259470825 -0.0768294764
v -0.0106908626 0.0260786896 -0.0789625454
v -0.0106066055 0.0261629515 -0.0766602564
v -0.0105002708 0.0262692862 -0.0765716743
v -0.0104224319 0.0263471203 -0.0787855291
v -0.0102898998 0.0264796524 -0.0786920786
v -0.0102909584 0.0264785986 -0.0763867044
v -0.0101585407 0.0266110163 -0.0785953712
v -0.0100283928 0.0267411642 -0.0784954357
v -0.0101880474 0.0265815096 -0.0762903738
v -0.010086338 0.0266832142 -0.0761915207
v -0.00989949416 0.0183847742 -0.08
v -0.00989949416 0.0183847742 -0.0780000019
v -0.00981623839 0.01846803 -0.0779993057
v -0.00975140761 0.0185328655 -0.0799981737
v -0.00989949416 0.0268700581 -0.0783923054
v -0.00998586844 0.0267836886 -0.076090169
v -0.0097887535 0.0269807987 -0.0758801079
v -0.00960335921 0.0186809092 -0.0799926901
v -0.00973299216 0.0185512762 -0.0779972267
v -0.00964562606 0.0271239309 -0.0781765795
v -0.00969216536 0.0270773821 -0.0757714605
v -0.00959694098 0.0271726112 -0.0756604433
v -0.00950309943 0.0272664528 -0.0755470943
v -0.0093075962 0.0189766817 -0.0799707699
v -0.0094834442 0.0188008242 -0.0779826736
v -0.00939722251 0.027372325 -0.077948451
v -0.00931967925 0.027449873 -0.0753135347
v -0.00915995788 0.0191243153 -0.0799543381
v -0.00923442077 0.0190498524 -0.0779556704
v -0.0090125389 0.0192717295 -0.0799342632
v -0.00915460776 0.0276149397 -0.0777082062
v -0.0091421337 0.0276274185 -0.0750710678
v -0.00905563544 0.0277139168 -0.0749465847
v -0.00886539649 0.0194188719 -0.0799105549
v -0.00898621749 0.0192980557 -0.0779162407
v -0.00891807746 0.0278514795 -0.077456131
v -0.00897068213 0.0277988701 -0.0748199844
v -0.00880553435 0.0279640179 -0.0745605898
v -0.00857210349 0.0197121649 -0.0798522615
v -0.00873915862 0.0195451145 -0.0778644419
v -0.00868789863 0.0280816488 -0.0771925354
v -0.00864688109 0.0281226711 -0.0742932034
v -0.00857006263 0.0281994944 -0.0741566157
v -0.00842603873 0.0198582296 -0.0798176908
v -0.0084935398 0.0197907286 -0.0778003359
v -0.0082804222 0.0200038462 -0.0797795248
v -0.00846437644 0.0283051806 -0.0769177389
v -0.00849493216 0.0282746248 -0.0740181494
v -0.00842151832 0.0283480291 -0.073877852
v -0.0082799549 0.0284895973 -0.0735919285
v -0.00813530158 0.0201489668 -0.0797377729
v -0.00824968528 0.0200345879 -0.0777240038
v -0.00800788115 0.0202763872 -0.077635541
v -0.00824776839 0.0285217886 -0.0766320753
v -0.00814213942 0.0286274176 -0.076485281
v -0.00814553451 0.0286240225 -0.0732991934
v -0.00808104705 0.0286885052 -0.0731503797
v -0.00801840972 0.0287511425 -0.0729999995
v -0.00784671973 0.0204375534 -0.0796435499
v -0.00792779159 0.0203564768 -0.0776033735
v -0.00776844214 0.0205158262 -0.0775350523
v -0.00793639373 0.0288331585 -0.0761839819
v -0.00795764159 0.0288119106 -0.0728480959
v -0.00784177016 0.0289277868 -0.0725399041
v -0.00778670501 0.028982852 -0.0723837113
v -0.00756063651 0.0207236366 -0.079535141
v -0.00768921088 0.0205950623 -0.077498908
v -0.00753166388 0.0207526093 -0.0774226713
v -0.00773821067 0.0290313416 -0.0758727074
v -0.00764203261 0.0291275196 -0.0757134533
v -0.00768239211 0.0290871601 -0.0720673656
v -0.00763318252 0.0291363697 -0.0719073105
v -0.00754072379 0.0292288284 -0.0715836787
v -0.0074186344 0.020865634 -0.0794756556
v -0.00745337676 0.0208308916 -0.0773825932
v -0.00727739524 0.0210068731 -0.0794126797
v -0.0074556465 0.0293139105 -0.0753879356
v -0.00736548614 0.0294040661 -0.0752217817
v -0.00745631408 0.0293132429 -0.0712556815
v -0.00741714667 0.0293524008 -0.071090169
v -0.00734499167 0.0294245653 -0.0707563734
v -0.00731200408 0.0294575434 -0.0705881906
v -0.00728110503 0.0294884424 -0.0704192185
v -0.00725229453 0.0295172529 -0.0702495098
v -0.00713695716 0.021147316 -0.0793462229
v -0.00722060393 0.0210636692 -0.0772545671
v -0.00714373778 0.0211405354 -0.0772093201
v -0.00719140243 0.0295781546 -0.0748829174
v -0.00710751723 0.029662035 -0.0747103143
v -0.00722559165 0.0295439653 -0.0700791168
v -0.00720098685 0.0295685701 -0.0699080896
v -0.00715812873 0.0296114283 -0.0695643449
v -0.00713988494 0.0296296673 -0.0693917298
v -0.00710980605 0.0296597509 -0.0690452838
v -0.00709797095 0.0296715765 -0.0688715577
v -0.00708075713 0.0296887951 -0.0685233593
v -0.00707537841 0.0296941786 -0.0683489943
v -0.00707214545 0.0296974068 -0.0681745243
v -0.0070710678 0.0296984844 -0.0679999995
v -0.00699735831 0.0212869148 -0.0792763138
v -0.00685864638 0.0214256315 -0.0792029667
v -0.00699116897 0.0212931042 -0.0771150017
v -0.00676535796 0.0215189152 -0.0769640589
v -0.00694621276 0.0298233442 -0.0743590307
v -0.00686883162 0.0299007206 -0.0741804576
v -0.00658403586 0.0217002421 -0.0790460587
v -0.00669094275 0.0215933256 -0.0769112539
v -0.00672074508 0.0300488119 -0.0738177156
v -0.00665007781 0.0301194744 -0.0736336589
v -0.00658168982 0.0301878576 -0.0734478855
v -0.00651561927 0.0302539377 -0.0732604527
v -0.00631345939 0.021970809 -0.0788756943
v -0.00647041511 0.021813858 -0.0767454433
v -0.00625415992 0.0220301132 -0.0765687275
v -0.0064518566 0.0303176956 -0.0730714202
v -0.00639044951 0.0303791075 -0.0728808403
v -0.00633138846 0.030438159 -0.0726887727
v -0.00627472114 0.0304948311 -0.0724952793
v -0.00617979239 0.0221044808 -0.0787855291
v -0.00604726027 0.0222370129 -0.0786920786
v -0.00618307303 0.0221012001 -0.0765074301
v -0.00611250113 0.022171772 -0.0764449596
v -0.00600615691 0.028615654 -0.0685029769
v -0.00601560782 0.0286369925 -0.0682921576
v -0.00601615142 0.0286434393 -0.0680419016
v -0.00601512145 0.0286425381 -0.0679999995
v -0.00622044753 0.0305491095 -0.072300415
v -0.00616857718 0.030600975 -0.0721042418
v -0.00611914824 0.0306504088 -0.071906817
v -0.00607215117 0.0306974011 -0.0717082047
v -0.00591590117 0.0223683767 -0.0785953712
v -0.00578575324 0.0224985247 -0.0784954357
v -0.00597294044 0.0223113279 -0.0763165092
v -0.00583556365 0.0224487095 -0.0761834526
v -0.00576770972 0.0225165634 -0.0761152124
v -0.00579555701 0.0282416372 -0.0695947933
v -0.00582512092 0.0282902603 -0.0695098042
v -0.0058972473 0.0284131889 -0.0692527938
v -0.00594228934 0.0284935408 -0.0690358067
v -0.00594795417 0.0285038643 -0.0690036702
v -0.00598147582 0.0285665732 -0.0687730551
v -0.00599859427 0.0286001234 -0.0686044955
v -0.00575567435 0.0286422615 -0.0682578707
v -0.0057555313 0.0286467438 -0.0680515814
v -0.0057578678 0.0286457186 -0.0679999995
v -0.00598555755 0.0307839947 -0.0713076472
v -0.00594598006 0.0308235674 -0.0711058283
v -0.0059089012 0.030860651 -0.0709030628
v -0.00587433051 0.0308952217 -0.0706994128
v -0.00584227752 0.0309272747 -0.0704949403
v -0.00578576278 0.0309837895 -0.0700837779
v -0.0057613201 0.0310082321 -0.0698772144
v -0.00565685462 0.0226274185 -0.0783923054
v -0.005700428 0.0225838404 -0.0760458517
v -0.00563373755 0.0226505356 -0.0759753752
v -0.005529253 0.0227550202 -0.0782860088
v -0.0055021305 0.0227821426 -0.0758311129
v -0.00560261916 0.027942174 -0.0700073624
v -0.00562887382 0.0279811649 -0.0699627709
v -0.00572891425 0.0281348353 -0.0697612047
v -0.00574062537 0.0281533413 -0.0697340703
v -0.00553842734 0.0282580023 -0.0695364761
v -0.00552244376 0.0283921127 -0.0692580795
v -0.00551177215 0.0284816246 -0.0690164542
v -0.00550994109 0.028497036 -0.0689672494
v -0.00550359916 0.0285502033 -0.0687679815
v -0.00550104331 0.0285716515 -0.0686670852
v -0.00554695319 0.0286284142 -0.0682578707
v -0.00554649543 0.0286328774 -0.0680515814
v -0.00550129127 0.0286268358 -0.0679999995
v -0.00573943328 0.031030119 -0.0696700764
v -0.0057201023 0.0310494499 -0.0694624329
v -0.00568914603 0.031080411 -0.0690458679
v -0.00567752074 0.0310920267 -0.0688370776
v -0.00566847991 0.0311010676 -0.0686280322
v -0.00566202353 0.0311075287 -0.0684187937
v -0.00565814208 0.0311114054 -0.0682094288
v -0.00565685462 0.0311126976 -0.0679999995
v -0.00540297698 0.0228812914 -0.0781765795
v -0.00543723296 0.0228470354 -0.0757573509
v -0.00537296485 0.0229113131 -0.0756825113
v -0.00527808379 0.0230061941 -0.0780640459
v -0.00526010703 0.0274761801 -0.0703942633
v -0.00540514182 0.0276647883 -0.0702654743
v -0.00545511435 0.0277325945 -0.0702105403
v -0.00548700522 0.0277766829 -0.0701721954
v -0.0052512474 0.027912386 -0.0699648738
v -0.00525450896 0.0280704908 -0.0697568345
v -0.0052672119 0.0282111578 -0.0695364761
v -0.0052617855 0.0282350474 -0.0694910669
v -0.00549290847 0.0282521706 -0.0695364761
v -0.0052514572 0.0282805138 -0.0693990183
v -0.00526600074 0.0284413843 -0.0690164542
v -0.00525434684 0.0284971457 -0.0688181376
v -0.00525187682 0.0285089903 -0.0687679815
v -0.00529302787 0.0285656147 -0.0685144973
v -0.00528824042 0.028590682 -0.0682578707
v -0.00528740119 0.028595088 -0.0680515814
v -0.0052977867 0.028595932 -0.0679999995
v -0.00515458297 0.0231296854 -0.077948451
v -0.00524629783 0.0230379706 -0.0755296469
v -0.00518393706 0.0231003361 -0.0754516459
v -0.00503254127 0.0232517319 -0.0778298235
v -0.00500079345 0.0232834797 -0.075211482
v -0.00505724143 0.0272315197 -0.0705113268
v -0.00507844161 0.0272561245 -0.0705019951
v -0.00524083327 0.0274519997 -0.0704083109
v -0.00501702498 0.0275352888 -0.0702683115
v -0.00500202369 0.0275692873 -0.0702325225
v -0.00500413131 0.0277613859 -0.0700442934
v -0.00500642013 0.0278672295 -0.0699243283
v -0.00504556846 0.0280093842 -0.0697568345
v -0.00500238608 0.0281362133 -0.0695364761
v -0.0050174446 0.0282394009 -0.0693524075
v -0.00500466536 0.0282792168 -0.0692580795
v -0.00502467345 0.0283798676 -0.0690164542
v -0.00500470351 0.028445981 -0.0687679815
v -0.00500146102 0.0284567337 -0.0687176275
v -0.00504076194 0.0285059767 -0.0685144973
v -0.00503380965 0.0285305338 -0.0682578707
v -0.00503258895 0.0285348492 -0.0680515814
v -0.00504717063 0.028537796 -0.0679999995
v -0.00479292106 0.0234913473 -0.0775836277
v -0.00494109343 0.0233431797 -0.0751294088
v -0.00482376288 0.0234605103 -0.0749623179
v -0.00476615142 0.0235181217 -0.0748773193
v -0.00483784865 0.0269882422 -0.0705755615
v -0.00499268722 0.0271578341 -0.0705361462
v -0.00475475501 0.0271110611 -0.0704691505
v -0.004765913 0.0272663241 -0.0703717685
v -0.00475541305 0.0274830084 -0.0701961017
v -0.00495164107 0.0275050669 -0.0702683115
v -0.00475222777 0.0275635939 -0.070121398
v -0.00475705337 0.0277196531 -0.0699648738
v -0.00491743278 0.0277610235 -0.0700048661
v -0.00475116919 0.027821949 -0.0698416185
v -0.00475136947 0.0279192238 -0.0697136974
v -0.00475745391 0.028011034 -0.0695814562
v -0.00475103568 0.0281381731 -0.0693524075
v -0.00475653838 0.0282476835 -0.069114027
v -0.00495885085 0.0282640629 -0.0692580795
v -0.00478962134 0.0282975369 -0.0690164542
v -0.0047639675 0.0283616572 -0.0687679815
v -0.00475241851 0.0283905296 -0.0686163735
v -0.0047855873 0.0284484272 -0.0682578707
v -0.00478399466 0.0284526186 -0.0680515814
v -0.00475438308 0.028440011 -0.0679999995
v -0.00493366431 0.0285002928 -0.0682578707
v -0.00493230056 0.0285045652 -0.0680515814
v -0.00494847487 0.0285085611 -0.0679999995
v -0.00455953788 0.0237247353 -0.0773257494
v -0.00470924567 0.0235750227 -0.0747913671
v -0.00465306472 0.0236312084 -0.0747044706
v -0.00458831977 0.0267350035 -0.0705852342
v -0.00474783133 0.0268940477 -0.0705864644
v -0.00451729011 0.0268986206 -0.0704691505
v -0.00470605086 0.0270200901 -0.0705002165
v -0.00450485419 0.0270016747 -0.0704049158
v -0.00455681037 0.0272553568 -0.0702683115
v -0.00450514983 0.0272610884 -0.0702325225
v -0.0045312519 0.0275442343 -0.0700048661
v -0.00451264571 0.0275709944 -0.0699648738
v -0.00453481864 0.0277678757 -0.0697568345
v -0.00450536918 0.0278153448 -0.0696700811
v -0.00450766753 0.027990449 -0.0693990183
v -0.00470536422 0.0280143576 -0.0695364761
v -0.00451795768 0.0280695467 -0.0692580795
v -0.00450846862 0.0280867939 -0.0692103887
v -0.00450430106 0.0281988649 -0.0689177871
v -0.00469777297 0.0282589131 -0.0690164542
v -0.00453150939 0.0282566624 -0.0687679815
v -0.0045100994 0.0282990294 -0.0685144973
v -0.00450009536 0.0283188276 -0.0683093548
v -0.00454352569 0.0283490257 -0.0680515814
v -0.00451914023 0.0283358698 -0.0679999995
v -0.00433264922 0.0239516239 -0.0770565128
v -0.00448890876 0.0237953596 -0.0744382596
v -0.00433151435 0.0239527588 -0.0741640162
v -0.0042805786 0.0240036945 -0.0740708756
v -0.00432369422 0.0264907246 -0.0705310535
v -0.00449370574 0.0266450958 -0.070572927
v -0.00425429534 0.02653899 -0.0704691505
v -0.00444572638 0.0267522268 -0.0705002165
v -0.00425786208 0.026770237 -0.0703717685
v -0.00429727744 0.0270063286 -0.0702683115
v -0.00426930617 0.0270307999 -0.0702325225
v -0.00425077628 0.0273145418 -0.0700048661
v -0.00425795745 0.0273661165 -0.0699648738
v -0.00449835013 0.0275209265 -0.0700048661
v -0.00425250243 0.0275641613 -0.0697568345
v -0.00425117682 0.0276352816 -0.0696700811
v -0.00427472304 0.0277524214 -0.0695364761
v -0.004260046 0.0277720289 -0.0694910669
v -0.00425004195 0.0279486637 -0.0691623664
v -0.00443422507 0.0280215769 -0.0692580795
v -0.004261734 0.0280191116 -0.0690164542
v -0.00425310325 0.0280320053 -0.0689672494
v -0.00425424766 0.0281226759 -0.0686670852
v -0.00427061271 0.02819382 -0.0682578707
v -0.00426824759 0.0281976299 -0.0680515814
v -0.00429367255 0.0282119494 -0.0679999995
v -0.00441835593 0.0282506447 -0.0685144973
v -0.00440606307 0.0282730036 -0.0682578707
v -0.00435822677 0.0282512932 -0.0680515814
v -0.00438257407 0.028263834 -0.0679999995
v -0.00411255073 0.0241717224 -0.0767762423
v -0.00423042487 0.0240538483 -0.0739768934
v -0.00408470344 0.0241995697 -0.0736900258
v -0.00400511931 0.0242791491 -0.0766320753
v -0.00403485488 0.0262482433 -0.0704019499
v -0.00424995612 0.0264264755 -0.0705051708
v -0.00410265159 0.0263029413 -0.0704391003
v -0.00401718329 0.0265095358 -0.0703034544
v -0.00401631545 0.0266718512 -0.0702325225
v -0.00412331771 0.0267769604 -0.0702683115
v -0.00402190398 0.0267541533 -0.0701961017
v -0.00400970649 0.0270437842 -0.0700048661
v -0.00400873374 0.0270958452 -0.0699648738
v -0.0041935749 0.0272577028 -0.0700048661
v -0.00401660155 0.0272518711 -0.0698416185
v -0.00401018332 0.0273745089 -0.0697136974
v -0.00418658446 0.0275072317 -0.0697568345
v -0.00402992438 0.0275447016 -0.0695364761
v -0.00401296805 0.0275623779 -0.0694910669
v -0.0040802307 0.027770813 -0.0692580795
v -0.00400645446 0.0277824192 -0.069114027
v -0.00400318335 0.0278632431 -0.0689177871
v -0.0040042324 0.0279422693 -0.0686670852
v -0.0041395111 0.0280182295 -0.0687679815
v -0.00406995009 0.0280260115 -0.0685144973
v -0.00401306342 0.028014739 -0.0682578707
v -0.0040103073 0.0280182772 -0.0680515814
v -0.00403838347 0.0280384235 -0.0679999995
v -0.00379569243 0.0244885759 -0.0763359022
v -0.00399157714 0.024292696 -0.0734948158
v -0.00385804366 0.0244262247 -0.0731963205
v -0.00377320479 0.0245110684 -0.0729937005
v -0.00399454307 0.0262163286 -0.0703777981
v -0.00381170463 0.0260768681 -0.07024863
v -0.00392632674 0.0263931971 -0.0702683115
v -0.00375893783 0.0264580183 -0.0700831413
v -0.00398299407 0.0265256052 -0.0702683115
v -0.0037572689 0.0265438776 -0.0700442934
v -0.00376626204 0.026717804 -0.0699648738
v -0.00383333396 0.026774004 -0.0700048661
v -0.00375712584 0.0267690783 -0.0699243283
v -0.00398562621 0.0270114451 -0.0700048661
v -0.00376196097 0.0270132094 -0.0697568345
v -0.0037626953 0.0270653515 -0.0697136974
v -0.00394395064 0.0272575693 -0.0697568345
v -0.00378360938 0.0272728615 -0.0695364761
v -0.0037643547 0.0272880011 -0.0694910669
v -0.00375502776 0.0274807005 -0.0692103887
v -0.00399710845 0.0275126534 -0.0695364761
v -0.00380192946 0.0275037747 -0.0692580795
v -0.00376000594 0.027541769 -0.069114027
v -0.00375759314 0.0276115542 -0.0689672494
v -0.00376168441 0.0277495604 -0.0685655046
v -0.00394709777 0.0277749281 -0.0690164542
v -0.00382619094 0.0277570324 -0.0687679815
v -0.00375621985 0.0277550583 -0.0685144973
v -0.00375137519 0.0277599268 -0.0684633613
v -0.00395786475 0.0279756718 -0.0680125666
v -0.00375461768 0.0277954655 -0.0679999995
v -0.00399763297 0.0280069904 -0.0679999995
v -0.00359370421 0.0246905689 -0.0760295677
v -0.00373205375 0.0245522194 -0.0728913426
v -0.00365231704 0.0246319513 -0.0726846123
v -0.0035760517 0.0247082214 -0.0724752808
v -0.00350329589 0.0247809773 -0.0722634697
v -0.00368847083 0.025987504 -0.0701422763
v -0.00354079436 0.0258851891 -0.0699905825
v -0.00373687934 0.0260221748 -0.0701860404
v -0.0035790367 0.0262214975 -0.0699648738
v -0.00369624328 0.0264822941 -0.0700048661
v -0.00366584968 0.0264940672 -0.0699648738
v -0.00371113013 0.0265197687 -0.0700048661
v -0.00352372359 0.0265491037 -0.0697568345
v -0.00351359557 0.0266002588 -0.0697136974
v -0.00363067817 0.0267874031 -0.0697568345
v -0.00351356696 0.0267964296 -0.0695814562
v -0.00351120185 0.026900795 -0.0694910669
v -0.00360095214 0.0270088368 -0.0695364761
v -0.00351604651 0.0270051127 -0.0693990183
v -0.00350450705 0.0271815233 -0.0691623664
v -0.00361911963 0.0272794561 -0.0692580795
v -0.00351729583 0.0272921972 -0.0690164542
v -0.00350461196 0.0273011379 -0.0689672494
v -0.00350387763 0.0274274187 -0.0686670852
v -0.00350084495 0.0274951964 -0.0683607769
v -0.00370200347 0.027527092 -0.0690164542
v -0.00361675452 0.0275338631 -0.0687679815
v -0.00354737472 0.0275245791 -0.0685144973
v -0.00352759551 0.0275407009 -0.0682578707
v -0.00369618606 0.0277373009 -0.0681009626
v -0.00353416633 0.0275604563 -0.0679999995
v -0.00373823356 0.027773159 -0.0682578707
v -0.00373171042 0.0277733307 -0.0680883145
v -0.00371624183 0.0277578621 -0.0679999995
v -0.00349557113 0.0247886973 -0.0758727074
v -0.00330518912 0.0249790793 -0.0755518436
v -0.00346823882 0.0248160343 -0.0721566701
v -0.00340081405 0.0248834591 -0.0719413567
v -0.00333699416 0.024947279 -0.0717238569
v -0.00327680778 0.0250074606 -0.0715042925
v -0.00331764411 0.0257403641 -0.0696933675
v -0.00348640632 0.0258488684 -0.0699262214
v -0.00333788108 0.0257530718 -0.0697240901
v -0.00348828505 0.0262444 -0.0698416185
v -0.00339341353 0.0262229185 -0.0697136974
v -0.00325650405 0.0262073736 -0.0694910669
v -0.00349371146 0.0264673929 -0.0697568345
v -0.00346697997 0.0264766865 -0.0697136974
v -0.00332918357 0.0264754944 -0.0694910669
v -0.00339879226 0.0265974836 -0.0695364761
v -0.00327284049 0.0266462593 -0.0692580795
v -0.00325448226 0.026653369 -0.0692103887
v -0.00347100448 0.0267662172 -0.0695364761
v -0.00332863044 0.0267798119 -0.0692580795
v -0.00325723838 0.0267578869 -0.069114027
v -0.00325313758 0.0268685989 -0.0689672494
v -0.00346077155 0.0270372515 -0.0692580795
v -0.00335817527 0.0270392733 -0.0690164542
v -0.00327339362 0.027028163 -0.0687679815
v -0.00325434874 0.0270383625 -0.0686670852
v -0.00329730224 0.0272156553 -0.0682636905
v -0.00325099181 0.0271695547 -0.0679999995
v -0.00348895263 0.0272512226 -0.0690164542
v -0.003431818 0.0272900181 -0.0687679815
v -0.00336379241 0.0272735243 -0.0685144973
v -0.00332359504 0.0272589808 -0.0682513833
v -0.00346636008 0.0274680357 -0.0681891918
v -0.00330869864 0.0272600155 -0.0679999995
v -0.00349710654 0.0275082474 -0.0681766462
v -0.0034997959 0.0275191813 -0.0679999995
v -0.00321299743 0.025071271 -0.0753879356
v -0.0030347557 0.0252495127 -0.0750534248
v -0.00324809264 0.0250361805 -0.0713937736
v -0.00319342803 0.0250908403 -0.0711713409
v -0.00314248275 0.0251417856 -0.0709471488
v -0.00309529494 0.025188983 -0.0707213235
v -0.00305186461 0.0252324038 -0.070493989
v -0.00303157996 0.0252526932 -0.0703797936
v -0.00324059676 0.025692771 -0.0695681262
v -0.00318800162 0.0256609993 -0.0694733024
v -0.00308351706 0.0255999832 -0.0692498708
v -0.00324195098 0.0259760742 -0.0695364761
v -0.00321765136 0.0259791308 -0.0694910669
v -0.00308840941 0.0259953671 -0.0692103887
v -0.00324806403 0.026021555 -0.0695364761
v -0.00323332976 0.0262123661 -0.0694452429
v -0.00312917899 0.0262348156 -0.0692103887
v -0.00303500365 0.0262038736 -0.0689672494
v -0.00324943732 0.0264516478 -0.0693524075
v -0.00319067191 0.026469801 -0.0692103887
v -0.00310853194 0.0264951782 -0.0689672494
v -0.00303194236 0.0264652233 -0.0687176275
v -0.00323958587 0.0265557127 -0.0692580795
v -0.0031887741 0.026678813 -0.0690164542
v -0.00312437247 0.0267037516 -0.0687679815
v -0.00308011245 0.0267208939 -0.0685144973
v -0.00306052398 0.0267108278 -0.0683947897
v -0.00301052283 0.0266916781 -0.0679999995
v -0.00322637748 0.0267710905 -0.0690164542
v -0.00314321708 0.0267511778 -0.0687679815
v -0.00309926223 0.0267690878 -0.0685144973
v -0.00317753982 0.0269922047 -0.0683243632
v -0.0030520172 0.0267902784 -0.0679999995
v -0.00320745658 0.0270046454 -0.0685144973
v -0.00324702453 0.0271276026 -0.0682881427
v -0.00317031096 0.0270304184 -0.0679999995
v -0.00294876288 0.0253355103 -0.0748829174
v -0.00286487769 0.0254193955 -0.0747103143
v -0.00299386214 0.025290411 -0.0701504326
v -0.00295996856 0.0253243046 -0.0699198771
v -0.00292992782 0.0253543453 -0.0696882582
v -0.00290374946 0.0253805237 -0.0694557047
v -0.00288145255 0.0254028206 -0.0692223406
v -0.00286304664 0.0254212265 -0.0689883018
v -0.00288488578 0.0254921131 -0.0685341454
v -0.00286656569 0.0254807692 -0.0684322572
v -0.00283028792 0.0254539852 -0.0682292223
v -0.0027874298 0.0254968433 -0.0679999995
v -0.00278313827 0.0255011301 -0.0745356679
v -0.00299500655 0.0255504923 -0.0690066862
v -0.00298382949 0.0255444031 -0.0689705825
v -0.00290332984 0.0255020933 -0.0686362553
v -0.00278713416 0.0255497437 -0.0679999995
v -0.00299826812 0.025755928 -0.0690164542
v -0.00299729537 0.0259563284 -0.0689672494
v -0.00290257644 0.0259638481 -0.068554759
v -0.00279514502 0.025761426 -0.0679999995
v -0.00299433898 0.0262118988 -0.0688181376
v -0.00293334197 0.0262177687 -0.0685044336
v -0.00282577704 0.0260250359 -0.0679999995
v -0.00299279403 0.0262642174 -0.0687679815
v -0.00299714278 0.0264753132 -0.0685144973
v -0.00298611831 0.0264673882 -0.0684509754
v -0.00287909697 0.0262856846 -0.0679999995
v -0.00299928855 0.0265166311 -0.0684399438
v -0.00295469474 0.0265414076 -0.0679999995
v -0.00270356368 0.0255807047 -0.0743590307
v -0.00255102347 0.0257332449 -0.074000001
v -0.002478096 0.0258061724 -0.0738177156
v -0.00240743827 0.0258768349 -0.0736336589
v -0.00233905028 0.0259452181 -0.0734478855
v -0.00227297019 0.0260112982 -0.0732604527
v -0.00220921706 0.0260750513 -0.0730714202
v -0.00214780044 0.0261364679 -0.0728808403
v -0.00208874892 0.0261955195 -0.0726887727
v -0.00203208159 0.0262521916 -0.0724952793
v -0.00197779845 0.0263064699 -0.072300415
v -0.00192593764 0.0263583307 -0.0721042418
v -0.00187649917 0.0264077692 -0.071906817
v -0.00178498458 0.0264992933 -0.07150846
v -0.001742918 0.0265413504 -0.0713076472
v -0.00170334052 0.0265809279 -0.0711058283
v -0.00166626166 0.0266180067 -0.0709030628
v -0.00163169097 0.0266525822 -0.0706994128
v -0.00157011222 0.0267141609 -0.0702897072
v -0.00154312324 0.0267411451 -0.0700837779
v -0.00151868056 0.0267655878 -0.0698772144
v -0.00149679374 0.0267874794 -0.0696700764
v -0.00146069716 0.026823576 -0.0692543411
v -0.00144650649 0.0268377667 -0.0690458679
v -0.0014348812 0.0268493872 -0.0688370776
v -0.00142584037 0.026858428 -0.0686280322
v -0.00141938399 0.0268648892 -0.0684187937
v -0.00141550254 0.0268687658 -0.0682094288
v -0.00141421508 0.0268700581 -0.0679999995
f 30 1 2
f 1 86 2
f 29 12 1
f 12 94 1
f 29 1 30
f 1 94 86
f 31 2 3
f 2 80 3
f 30 2 31
f 2 86 80
f 32 3 4
f 3 81 4
f 31 3 32
f 3 80 81
f 33 4 5
f 4 82 5
f 32 4 33
f 4 81 82
f 34 5 6
f 5 83 6
f 33 5 34
f 5 82 83
f 35 6 7
f 6 84 7
f 34 6 35
f 6 83 84
f 35 7 36
f 7 133 36
f 7 84 85
f 85 133 7
f 43 8 9
f 8 90 9
f 42 13 8
f 13 95 8
f 42 8 43
f 8 95 90
f 44 9 10
f 9 91 10
f 43 9 44
f 9 90 91
f 37 10 11
f 10 92 11
f 44 10 37
f 10 91 92
f 28 11 12
f 11 93 12
f 37 11 28
f 11 92 93
f 28 12 29
f 12 93 94
f 41 16 13
f 16 102 13
f 41 13 42
f 13 102 95
f 48 14 15
f 14 100 15
f 47 17 14
f 17 103 14
f 47 14 48
f 14 103 100
f 40 15 16
f 15 101 16
f 49 15 40
f 48 15 49
f 15 100 101
f 40 16 41
f 16 101 102
f 53 19 17
f 19 107 17
f 53 17 47
f 17 107 103
f 52 18 19
f 18 106 19
f 51 20 18
f 20 108 18
f 51 18 52
f 18 108 106
f 52 19 53
f 19 106 107
f 54 22 20
f 22 113 20
f 54 20 51
f 20 113 108
f 58 21 22
f 21 112 22
f 57 24 21
f 24 118 21
f 57 21 58
f 21 118 112
f 58 22 54
f 22 112 113
f 62 23 24
f 23 117 24
f 61 25 23
f 25 119 23
f 61 23 62
f 23 119 117
f 62 24 57
f 24 117 118
f 63 27 25
f 27 124 25
f 63 25 61
f 25 124 119
f 66 26 27
f 26 123 27
f 65 39 26
f 39 138 26
f 65 26 66
f 26 138 123
f 66 27 63
f 27 123 124
f 29 126 28
f 28 125 37
f 28 126 125
f 30 127 29
f 29 127 126
f 31 128 30
f 30 128 127
f 32 129 31
f 31 129 128
f 33 130 32
f 32 130 129
f 34 131 33
f 33 131 130
f 35 132 34
f 34 132 131
f 36 133 35
f 35 133 132
f 37 134 44
f 37 125 134
f 70 38 39
f 38 137 39
f 73 46 38
f 46 147 38
f 69 38 70
f 73 38 69
f 38 147 137
f 70 39 65
f 39 137 138
f 41 139 40
f 40 143 49
f 40 139 143
f 42 140 41
f 41 140 139
f 43 141 42
f 42 141 140
f 44 142 43
f 43 142 141
f 44 134 142
f 72 45 46
f 45 151 46
f 77 50 45
f 50 155 45
f 77 45 72
f 45 155 151
f 72 46 73
f 46 151 147
f 48 149 47
f 47 148 53
f 47 149 148
f 49 150 48
f 48 150 149
f 49 143 150
f 76 56 50
f 56 162 50
f 76 50 77
f 50 162 155
f 52 157 51
f 51 156 54
f 51 157 156
f 53 152 52
f 52 152 157
f 53 148 152
f 54 158 58
f 54 156 158
f 79 55 56
f 55 161 56
f 89 60 55
f 60 169 55
f 89 55 79
f 55 169 161
f 79 56 76
f 56 161 162
f 58 164 57
f 57 163 62
f 57 164 163
f 58 158 164
f 88 59 60
f 59 168 60
f 99 64 59
f 64 176 59
f 99 59 88
f 59 176 168
f 88 60 89
f 60 168 169
f 62 171 61
f 61 170 63
f 61 171 170
f 62 163 171
f 63 172 66
f 63 170 172
f 98 68 64
f 68 182 64
f 98 64 99
f 64 182 176
f 66 178 65
f 65 177 70
f 65 178 177
f 66 172 178
f 105 67 68
f 67 181 68
f 111 71 67
f 71 187 67
f 111 67 105
f 67 187 181
f 105 68 98
f 68 181 182
f 70 184 69
f 69 183 73
f 69 184 183
f 70 177 184
f 110 75 71
f 75 194 71
f 110 71 111
f 71 194 187
f 73 189 72
f 72 188 77
f 72 189 188
f 73 183 189
f 115 74 75
f 74 193 75
f 122 78 74
f 78 199 74
f 122 74 115
f 74 199 193
f 115 75 110
f 75 193 194
f 77 195 76
f 76 196 79
f 76 195 196
f 77 188 195
f 136 87 78
f 87 203 78
f 121 78 122
f 136 78 121
f 78 203 199
f 79 200 89
f 79 196 200
f 80 128 81
f 86 127 80
f 80 127 128
f 81 129 82
f 81 128 129
f 82 130 83
f 82 129 130
f 83 131 84
f 83 130 131
f 84 132 85
f 84 131 132
f 85 132 133
f 94 126 86
f 86 126 127
f 145 97 87
f 97 209 87
f 145 87 136
f 87 209 203
f 89 205 88
f 88 204 99
f 88 205 204
f 89 200 205
f 90 141 91
f 95 140 90
f 90 140 141
f 91 142 92
f 91 141 142
f 92 134 93
f 92 142 134
f 93 125 94
f 93 134 125
f 94 125 126
f 102 139 95
f 95 139 140
f 146 96 97
f 96 208 97
f 154 104 96
f 104 214 96
f 154 96 146
f 96 214 208
f 146 97 145
f 97 208 209
f 99 211 98
f 98 210 105
f 98 211 210
f 99 204 211
f 100 149 101
f 103 148 100
f 100 148 149
f 101 143 102
f 101 150 143
f 101 149 150
f 102 143 139
f 107 152 103
f 103 152 148
f 160 109 104
f 109 218 104
f 160 104 154
f 104 218 214
f 105 215 111
f 105 210 215
f 106 157 107
f 108 156 106
f 106 156 157
f 107 157 152
f 113 158 108
f 108 158 156
f 166 114 109
f 114 223 109
f 166 109 160
f 109 223 218
f 111 220 110
f 110 219 115
f 110 220 219
f 111 215 220
f 112 164 113
f 118 163 112
f 112 163 164
f 113 164 158
f 167 116 114
f 116 225 114
f 167 114 166
f 114 225 223
f 115 224 122
f 115 219 224
f 175 120 116
f 120 229 116
f 175 116 167
f 116 229 225
f 117 171 118
f 119 170 117
f 117 170 171
f 118 171 163
f 124 172 119
f 119 172 170
f 180 135 120
f 135 234 120
f 180 120 175
f 120 234 229
f 122 231 121
f 121 230 136
f 121 231 230
f 122 224 231
f 123 178 124
f 138 177 123
f 123 177 178
f 124 178 172
f 186 144 135
f 144 238 135
f 186 135 180
f 135 238 234
f 136 235 145
f 136 230 235
f 137 184 138
f 147 189 137
f 137 183 184
f 137 189 183
f 138 184 177
f 191 153 144
f 153 243 144
f 191 144 186
f 144 243 238
f 145 239 146
f 145 235 239
f 146 240 154
f 146 239 240
f 151 188 147
f 147 188 189
f 155 195 151
f 151 195 188
f 192 159 153
f 159 247 153
f 192 153 191
f 153 247 243
f 154 244 160
f 154 240 244
f 162 196 155
f 155 196 195
f 198 165 159
f 165 251 159
f 198 159 192
f 159 251 247
f 160 248 166
f 160 244 248
f 161 200 162
f 169 205 161
f 161 205 200
f 162 200 196
f 202 174 165
f 174 253 165
f 202 165 198
f 165 253 251
f 166 252 167
f 166 248 252
f 167 254 175
f 167 252 254
f 168 204 169
f 176 211 168
f 168 211 204
f 169 204 205
f 207 173 174
f 173 258 174
f 213 179 173
f 179 261 173
f 213 173 207
f 173 261 258
f 207 174 202
f 174 258 253
f 175 257 180
f 175 254 257
f 182 210 176
f 176 210 211
f 217 185 179
f 185 265 179
f 217 179 213
f 179 265 261
f 180 262 186
f 180 257 262
f 181 215 182
f 187 220 181
f 181 220 215
f 182 215 210
f 222 190 185
f 190 269 185
f 222 185 217
f 185 269 265
f 186 266 191
f 186 262 266
f 194 219 187
f 187 219 220
f 228 197 190
f 197 274 190
f 228 190 222
f 190 274 269
f 191 270 192
f 191 266 270
f 192 271 198
f 192 270 271
f 193 224 194
f 199 231 193
f 193 231 224
f 194 224 219
f 227 201 197
f 201 278 197
f 227 197 228
f 197 278 274
f 198 275 202
f 198 271 275
f 203 235 199
f 199 230 231
f 199 235 230
f 233 206 201
f 206 282 201
f 233 201 227
f 201 282 278
f 202 279 207
f 202 275 279
f 209 239 203
f 203 239 235
f 237 212 206
f 212 286 206
f 237 206 233
f 206 286 282
f 207 283 213
f 207 279 283
f 208 240 209
f 214 244 208
f 208 244 240
f 209 240 239
f 242 216 212
f 216 290 212
f 242 212 237
f 212 290 286
f 213 287 217
f 213 283 287
f 218 248 214
f 214 248 244
f 246 221 216
f 221 294 216
f 246 216 242
f 216 294 290
f 217 291 222
f 217 287 291
f 223 252 218
f 218 252 248
f 250 226 221
f 226 299 221
f 250 221 246
f 221 299 294
f 222 295 228
f 222 291 295
f 225 254 223
f 223 254 252
f 229 257 225
f 225 257 254
f 256 232 226
f 232 303 226
f 256 226 250
f 226 303 299
f 228 296 227
f 227 300 233
f 227 296 300
f 228 295 296
f 234 262 229
f 229 262 257
f 260 236 232
f 236 307 232
f 260 232 256
f 232 307 303
f 233 304 237
f 233 300 304
f 238 266 234
f 234 266 262
f 264 241 236
f 241 311 236
f 264 236 260
f 236 311 307
f 237 308 242
f 237 304 308
f 243 270 238
f 238 270 266
f 268 245 241
f 245 315 241
f 268 241 264
f 241 315 311
f 242 312 246
f 242 308 312
f 247 271 243
f 243 271 270
f 273 249 245
f 249 319 245
f 273 245 268
f 245 319 315
f 246 316 250
f 246 312 316
f 251 275 247
f 247 275 271
f 277 255 249
f 255 323 249
f 277 249 273
f 249 323 319
f 250 320 256
f 250 316 320
f 253 279 251
f 251 279 275
f 258 283 253
f 253 283 279
f 280 259 255
f 259 327 255
f 280 255 277
f 255 327 323
f 256 324 260
f 256 320 324
f 261 287 258
f 258 287 283
f 280 263 259
f 263 332 259
f 259 332 327
f 260 328 264
f 260 324 328
f 265 291 261
f 261 291 287
f 284 267 263
f 267 334 263
f 284 263 280
f 263 334 332
f 264 333 268
f 264 328 333
f 269 295 265
f 265 295 291
f 288 272 267
f 272 336 267
f 288 267 284
f 267 336 334
f 268 335 273
f 268 333 335
f 274 296 269
f 269 296 295
f 289 276 272
f 276 338 272
f 289 272 288
f 272 338 336
f 273 337 277
f 273 335 337
f 278 300 274
f 274 300 296
f 293 281 276
f 281 341 276
f 293 276 289
f 276 341 338
f 277 339 280
f 277 337 339
f 282 304 278
f 278 304 300
f 280 340 284
f 280 339 340
f 298 285 281
f 285 343 281
f 298 281 293
f 281 343 341
f 286 308 282
f 282 308 304
f 284 342 288
f 284 340 342
f 298 292 285
f 292 346 285
f 285 346 343
f 290 312 286
f 286 312 308
f 288 344 289
f 288 342 344
f 289 345 293
f 289 344 345
f 294 316 290
f 290 316 312
f 302 297 292
f 297 348 292
f 302 292 298
f 292 348 346
f 293 347 298
f 293 345 347
f 299 320 294
f 294 320 316
f 306 301 297
f 301 350 297
f 306 297 302
f 297 350 348
f 298 349 302
f 298 347 349
f 303 324 299
f 299 324 320
f 310 305 301
f 305 352 301
f 310 301 306
f 301 352 350
f 302 351 306
f 302 349 351
f 307 328 303
f 303 328 324
f 314 309 305
f 309 354 305
f 314 305 310
f 305 354 352
f 306 353 310
f 306 351 353
f 311 333 307
f 307 333 328
f 314 313 309
f 313 356 309
f 309 356 354
f 310 355 314
f 310 353 355
f 315 335 311
f 311 335 333
f 318 313 314
f 318 317 313
f 317 358 313
f 313 358 356
f 314 357 318
f 314 355 357
f 319 337 315
f 315 337 335
f 322 317 318
f 322 321 317
f 321 360 317
f 317 360 358
f 318 359 322
f 318 357 359
f 323 339 319
f 319 339 337
f 326 321 322
f 326 325 321
f 325 362 321
f 321 362 360
f 322 361 326
f 322 359 361
f 327 340 323
f 323 340 339
f 330 325 326
f 330 329 325
f 329 364 325
f 325 364 362
f 326 363 330
f 326 361 363
f 332 340 327
f 331 329 330
f 331 367 329
f 329 367 364
f 366 331 330
f 330 363 365
f 366 330 365
f 416 331 366
f 369 367 331
f 416 369 331
f 334 342 332
f 332 342 340
f 336 344 334
f 334 344 342
f 338 345 336
f 336 345 344
f 341 347 338
f 338 347 345
f 343 349 341
f 341 349 347
f 346 349 343
f 348 351 346
f 346 351 349
f 350 353 348
f 348 353 351
f 352 355 350
f 350 355 353
f 354 357 352
f 352 357 355
f 356 357 354
f 356 359 357
f 358 359 356
f 358 361 359
f 360 361 358
f 360 363 361
f 362 363 360
f 362 365 363
f 364 365 362
f 364 366 365
f 414 366 364
f 364 367 414
f 414 416 366
f 369 368 367
f 367 368 371
f 417 367 371
f 414 367 417
f 368 369 415
f 371 368 370
f 416 370 368
f 416 368 415
f 415 369 416
f 371 370 372
f 422 372 370
f 422 370 416
f 371 372 373
f 427 371 373
f 417 371 421
f 421 371 427
f 373 372 375
f 377 372 374
f 428 374 372
f 375 372 377
f 428 372 422
f 431 373 375
f 427 373 431
f 380 374 376
f 432 376 374
f 377 374 378
f 378 374 380
f 432 374 428
f 433 375 377
f 431 375 433
f 385 376 379
f 438 379 376
f 380 376 382
f 382 376 385
f 438 376 432
f 437 377 378
f 433 377 437
f 442 378 380
f 437 378 442
f 387 379 381
f 443 381 379
f 385 379 387
f 443 379 438
f 447 380 382
f 442 380 447
f 392 381 383
f 448 383 381
f 387 381 389
f 389 381 392
f 448 381 443
f 454 382 385
f 447 382 449
f 449 382 454
f 392 383 384
f 448 384 383
f 398 384 386
f 455 386 384
f 392 384 394
f 394 384 398
f 455 384 448
f 462 385 387
f 454 385 462
f 402 386 388
f 456 388 386
f 398 386 399
f 399 386 402
f 456 386 455
f 469 387 389
f 462 387 469
f 404 388 390
f 464 390 388
f 402 388 404
f 463 388 456
f 464 388 463
f 477 389 392
f 469 389 477
f 404 390 391
f 470 391 390
f 470 390 464
f 407 391 393
f 471 393 391
f 404 391 407
f 471 391 470
f 488 392 394
f 477 392 479
f 479 392 488
f 411 393 395
f 478 395 393
f 407 393 408
f 408 393 410
f 410 393 411
f 478 393 471
f 503 394 398
f 488 394 503
f 418 395 396
f 489 396 395
f 411 395 418
f 489 395 478
f 418 396 397
f 490 397 396
f 490 396 489
f 423 397 400
f 505 400 397
f 418 397 423
f 505 397 490
f 504 398 399
f 503 398 504
f 509 399 402
f 504 399 509
f 423 400 401
f 505 401 400
f 429 401 403
f 506 403 401
f 423 401 429
f 506 401 505
f 515 402 404
f 509 402 515
f 434 403 405
f 510 405 403
f 429 403 434
f 510 403 506
f 522 404 407
f 515 404 522
f 434 405 406
f 516 406 405
f 516 405 510
f 439 406 409
f 524 409 406
f 434 406 439
f 517 406 516
f 524 406 517
f 523 407 408
f 522 407 523
f 534 408 410
f 523 408 534
f 444 409 412
f 536 412 409
f 439 409 444
f 525 409 524
f 536 409 525
f 535 410 411
f 534 410 535
f 556 411 418
f 535 411 556
f 444 412 413
f 536 413 412
f 450 413 419
f 538 419 413
f 444 413 450
f 537 413 536
f 538 413 537
f 414 415 416
f 417 415 414
f 417 416 415
f 421 416 417
f 421 422 416
f 582 418 423
f 556 418 559
f 559 418 582
f 450 419 420
f 557 420 419
f 557 419 538
f 458 420 424
f 560 424 420
f 450 420 457
f 457 420 458
f 558 420 557
f 560 420 558
f 427 422 421
f 431 422 427
f 431 428 422
f 603 423 429
f 582 423 585
f 585 423 603
f 458 424 425
f 584 425 424
f 583 424 560
f 584 424 583
f 425 426 458
f 584 426 425
f 458 426 430
f 605 430 426
f 604 426 584
f 605 426 604
f 433 428 431
f 442 432 428
f 437 428 433
f 442 428 437
f 626 429 434
f 603 429 606
f 606 429 626
f 430 435 458
f 605 435 430
f 449 438 432
f 447 432 442
f 449 432 447
f 654 434 439
f 626 434 654
f 458 435 436
f 627 436 435
f 607 435 605
f 627 435 607
f 436 440 458
f 629 440 436
f 628 436 627
f 629 436 628
f 462 443 438
f 454 438 449
f 462 438 454
f 679 439 444
f 654 439 679
f 458 440 441
f 655 441 440
f 655 440 629
f 441 445 458
f 656 445 441
f 656 441 655
f 477 448 443
f 469 443 462
f 477 443 469
f 709 444 450
f 679 444 709
f 458 445 446
f 680 446 445
f 680 445 656
f 446 451 458
f 682 451 446
f 681 446 680
f 682 446 681
f 488 455 448
f 479 448 477
f 488 448 479
f 712 450 457
f 709 450 712
f 458 451 452
f 710 452 451
f 710 451 682
f 458 452 453
f 710 453 452
f 458 453 459
f 738 459 453
f 711 453 710
f 738 453 711
f 509 456 455
f 503 455 488
f 504 455 503
f 509 455 504
f 509 463 456
f 737 457 458
f 712 457 737
f 459 460 458
f 458 460 461
f 458 461 465
f 769 458 465
f 737 458 769
f 739 460 459
f 739 459 738
f 739 461 460
f 465 461 466
f 770 466 461
f 740 461 739
f 770 461 740
f 515 464 463
f 515 463 509
f 515 470 464
f 465 466 467
f 465 467 468
f 465 468 472
f 803 465 472
f 769 465 803
f 770 467 466
f 772 468 467
f 771 467 770
f 772 467 771
f 472 468 474
f 773 474 468
f 773 468 772
f 522 471 470
f 522 470 515
f 523 478 471
f 523 471 522
f 472 474 473
f 804 472 473
f 803 472 804
f 473 474 475
f 473 475 476
f 473 476 480
f 839 473 480
f 804 473 839
f 806 475 474
f 805 474 773
f 806 474 805
f 806 476 475
f 480 476 482
f 808 482 476
f 807 476 806
f 808 476 807
f 535 489 478
f 534 478 523
f 535 478 534
f 480 483 481
f 840 480 481
f 482 483 480
f 839 480 840
f 481 483 484
f 481 484 485
f 481 485 486
f 486 487 481
f 481 487 491
f 875 481 491
f 840 481 875
f 842 483 482
f 841 482 808
f 842 482 841
f 842 484 483
f 484 658 485
f 844 658 484
f 843 484 842
f 844 484 843
f 485 610 486
f 485 608 609
f 485 631 608
f 609 610 485
f 485 630 631
f 658 630 485
f 486 587 487
f 586 587 486
f 486 610 586
f 491 487 493
f 487 561 493
f 487 589 561
f 487 587 588
f 487 588 589
f 556 490 489
f 556 489 535
f 559 505 490
f 559 490 556
f 491 495 492
f 876 491 492
f 491 493 494
f 494 495 491
f 875 491 876
f 492 495 496
f 496 497 492
f 492 497 498
f 492 498 499
f 499 500 492
f 492 500 501
f 492 501 502
f 502 581 492
f 492 581 507
f 905 492 507
f 876 492 887
f 887 492 905
f 493 562 494
f 493 561 562
f 494 563 495
f 494 562 563
f 495 541 496
f 539 540 495
f 495 564 539
f 540 541 495
f 563 564 495
f 496 541 497
f 497 544 498
f 541 542 497
f 497 542 543
f 497 543 544
f 498 544 499
f 499 527 500
f 499 526 527
f 499 545 526
f 499 544 545
f 500 528 501
f 500 527 528
f 501 528 502
f 502 528 529
f 529 548 502
f 502 548 573
f 502 573 602
f 502 625 581
f 502 602 625
f 585 506 505
f 582 505 559
f 585 505 582
f 603 510 506
f 603 506 585
f 507 581 508
f 906 507 508
f 905 507 906
f 508 581 511
f 907 508 511
f 906 508 907
f 626 516 510
f 606 510 603
f 626 510 606
f 511 581 512
f 908 511 512
f 907 511 908
f 512 581 513
f 909 512 513
f 908 512 909
f 513 581 514
f 910 513 514
f 909 513 910
f 514 581 518
f 911 514 518
f 910 514 911
f 654 517 516
f 654 516 626
f 654 524 517
f 518 581 519
f 912 518 519
f 911 518 912
f 519 581 520
f 913 519 520
f 912 519 913
f 520 581 521
f 914 520 521
f 913 520 914
f 521 581 530
f 915 521 530
f 914 521 915
f 654 525 524
f 679 536 525
f 679 525 654
f 546 527 526
f 546 526 545
f 527 546 528
f 528 548 529
f 528 546 547
f 528 547 548
f 530 581 531
f 916 530 531
f 915 530 916
f 531 581 532
f 917 531 532
f 916 531 917
f 532 581 533
f 918 532 533
f 917 532 918
f 533 581 549
f 919 533 549
f 918 533 919
f 679 537 536
f 709 538 537
f 709 537 679
f 709 557 538
f 539 565 540
f 564 565 539
f 565 541 540
f 542 541 566
f 565 566 541
f 567 543 542
f 542 566 567
f 567 544 543
f 569 545 544
f 567 569 544
f 570 546 545
f 569 570 545
f 571 547 546
f 570 571 546
f 573 548 547
f 571 572 547
f 572 573 547
f 549 581 550
f 920 549 550
f 919 549 920
f 550 581 551
f 921 550 551
f 920 550 921
f 551 581 552
f 922 551 552
f 921 551 922
f 552 581 553
f 923 552 553
f 922 552 923
f 553 581 554
f 924 553 554
f 923 553 924
f 554 581 555
f 925 554 555
f 924 554 925
f 555 581 574
f 926 555 574
f 925 555 926
f 709 558 557
f 709 560 558
f 709 583 560
f 589 562 561
f 590 563 562
f 589 590 562
f 591 564 563
f 590 591 563
f 592 565 564
f 591 592 564
f 594 566 565
f 592 594 565
f 567 566 595
f 594 595 566
f 567 568 569
f 596 568 567
f 567 595 596
f 569 568 597
f 596 597 568
f 598 570 569
f 569 597 598
f 599 571 570
f 598 599 570
f 600 572 571
f 599 600 571
f 601 573 572
f 600 601 572
f 602 573 601
f 574 581 575
f 927 574 575
f 926 574 927
f 575 581 576
f 928 575 576
f 927 575 928
f 576 581 577
f 929 576 577
f 928 576 929
f 577 581 578
f 930 577 578
f 929 577 930
f 578 581 579
f 931 578 579
f 930 578 931
f 579 581 580
f 932 579 580
f 931 579 932
f 933 580 581
f 932 580 933
f 581 625 653
f 653 650 581
f 581 650 678
f 678 708 581
f 708 704 581
f 581 704 736
f 736 768 581
f 581 768 767
f 581 767 933
f 584 583 709
f 709 604 584
f 587 586 610
f 587 612 588
f 611 587 610
f 611 612 587
f 589 588 613
f 613 588 612
f 613 590 589
f 614 591 590
f 613 614 590
f 591 616 592
f 614 615 591
f 615 616 591
f 592 593 595
f 616 593 592
f 592 595 594
f 617 595 593
f 616 617 593
f 596 595 618
f 617 618 595
f 619 597 596
f 596 618 619
f 620 598 597
f 619 620 597
f 598 622 599
f 620 622 598
f 622 600 599
f 623 601 600
f 622 623 600
f 625 602 601
f 623 624 601
f 624 625 601
f 605 604 709
f 607 605 709
f 709 627 607
f 608 610 609
f 608 633 610
f 631 632 608
f 608 632 633
f 610 635 611
f 633 635 610
f 635 612 611
f 636 613 612
f 635 636 612
f 638 614 613
f 636 638 613
f 614 616 615
f 614 641 616
f 638 639 614
f 639 641 614
f 616 642 617
f 641 642 616
f 642 618 617
f 619 618 645
f 618 642 644
f 645 618 644
f 645 620 619
f 620 621 622
f 646 621 620
f 645 646 620
f 647 622 621
f 646 647 621
f 647 623 622
f 651 624 623
f 647 648 623
f 648 651 623
f 653 625 624
f 651 652 624
f 652 653 624
f 628 627 709
f 709 629 628
f 709 655 629
f 631 630 658
f 631 661 632
f 631 658 660
f 631 660 661
f 632 661 633
f 633 634 636
f 633 663 634
f 633 636 635
f 662 633 661
f 662 663 633
f 634 664 636
f 663 664 634
f 636 637 639
f 664 637 636
f 636 639 638
f 637 665 639
f 664 665 637
f 639 640 641
f 666 640 639
f 665 666 639
f 641 640 667
f 666 667 640
f 669 642 641
f 667 669 641
f 645 642 643
f 643 642 670
f 645 644 642
f 669 670 642
f 643 673 645
f 643 670 671
f 671 673 643
f 673 646 645
f 674 647 646
f 673 674 646
f 675 648 647
f 674 675 647
f 648 649 652
f 676 649 648
f 648 652 651
f 675 676 648
f 649 650 652
f 677 650 649
f 676 677 649
f 650 653 652
f 678 650 677
f 656 655 709
f 680 656 709
f 658 657 686
f 657 658 844
f 686 657 684
f 844 684 657
f 658 659 661
f 658 687 659
f 660 658 661
f 686 687 658
f 661 659 687
f 661 663 662
f 661 689 663
f 687 688 661
f 688 689 661
f 663 692 664
f 689 690 663
f 690 692 663
f 692 665 664
f 665 693 666
f 692 693 665
f 693 667 666
f 667 668 670
f 667 696 668
f 667 670 669
f 693 695 667
f 695 696 667
f 668 698 670
f 696 698 668
f 671 670 698
f 671 672 674
f 699 672 671
f 671 674 673
f 671 698 699
f 700 674 672
f 699 700 672
f 700 675 674
f 705 676 675
f 700 701 675
f 701 705 675
f 706 677 676
f 705 706 676
f 707 678 677
f 706 707 677
f 708 678 707
f 681 680 709
f 709 682 681
f 709 710 682
f 684 683 716
f 845 683 684
f 683 714 715
f 845 714 683
f 716 683 715
f 684 685 687
f 685 684 716
f 684 687 686
f 845 684 844
f 685 716 687
f 687 689 688
f 687 720 689
f 718 687 716
f 718 719 687
f 687 719 720
f 689 722 690
f 720 722 689
f 690 691 693
f 690 723 691
f 690 693 692
f 722 723 690
f 691 725 693
f 723 725 691
f 693 694 695
f 693 726 694
f 725 726 693
f 694 726 695
f 726 696 695
f 699 696 697
f 697 696 728
f 699 698 696
f 726 727 696
f 727 728 696
f 729 699 697
f 697 728 729
f 729 700 699
f 732 701 700
f 729 732 700
f 701 702 706
f 733 702 701
f 701 706 705
f 732 733 701
f 702 703 707
f 734 703 702
f 702 707 706
f 733 734 702
f 703 704 707
f 736 704 703
f 734 735 703
f 735 736 703
f 704 708 707
f 709 711 710
f 712 711 709
f 712 738 711
f 737 738 712
f 713 743 715
f 713 715 846
f 713 741 743
f 741 713 846
f 845 715 714
f 715 745 716
f 715 743 745
f 846 715 845
f 716 717 719
f 716 746 717
f 716 719 718
f 745 746 716
f 717 748 719
f 717 746 748
f 719 750 720
f 748 750 719
f 720 721 723
f 720 751 721
f 720 723 722
f 750 751 720
f 721 751 723
f 723 724 726
f 723 754 724
f 723 726 725
f 751 753 723
f 753 754 723
f 724 757 726
f 754 757 724
f 757 727 726
f 729 728 727
f 729 727 759
f 757 758 727
f 759 727 758
f 729 730 732
f 762 730 729
f 759 762 729
f 730 731 733
f 763 731 730
f 730 733 732
f 762 763 730
f 731 734 733
f 764 734 731
f 763 764 731
f 765 735 734
f 764 765 734
f 768 736 735
f 765 766 735
f 766 768 735
f 737 739 738
f 737 740 739
f 769 740 737
f 769 770 740
f 744 741 742
f 742 741 846
f 744 743 741
f 778 744 742
f 778 742 776
f 877 776 742
f 877 742 846
f 743 744 746
f 743 746 745
f 744 780 746
f 744 778 780
f 746 747 749
f 746 781 747
f 746 749 748
f 780 781 746
f 747 781 749
f 748 749 751
f 748 751 750
f 749 783 751
f 781 783 749
f 751 752 754
f 751 786 752
f 751 754 753
f 783 786 751
f 752 755 754
f 752 789 755
f 786 789 752
f 754 755 758
f 754 758 757
f 759 755 756
f 756 755 789
f 759 758 755
f 756 790 759
f 756 789 790
f 759 760 763
f 794 760 759
f 759 763 762
f 790 794 759
f 760 761 764
f 760 796 761
f 760 764 763
f 794 795 760
f 795 796 760
f 796 764 761
f 796 765 764
f 800 766 765
f 796 797 765
f 797 800 765
f 766 767 768
f 766 802 767
f 800 801 766
f 801 802 766
f 933 767 802
f 771 770 769
f 769 772 771
f 803 772 769
f 803 773 772
f 803 805 773
f 777 774 775
f 877 775 774
f 777 776 774
f 774 776 877
f 775 810 777
f 810 775 878
f 878 775 877
f 777 778 776
f 777 779 778
f 812 779 777
f 812 777 810
f 778 779 781
f 778 781 780
f 779 815 781
f 812 815 779
f 781 782 784
f 781 818 782
f 781 784 783
f 781 815 816
f 781 816 818
f 784 782 821
f 821 782 818
f 783 784 786
f 784 785 787
f 784 822 785
f 784 787 786
f 821 822 784
f 785 822 787
f 786 787 789
f 790 787 788
f 788 787 826
f 790 789 787
f 822 825 787
f 826 787 825
f 788 831 790
f 826 831 788
f 790 791 795
f 831 791 790
f 790 795 794
f 791 792 796
f 832 792 791
f 791 796 795
f 831 832 791
f 792 793 797
f 833 793 792
f 792 797 796
f 832 833 792
f 793 834 797
f 833 834 793
f 797 798 801
f 798 797 837
f 797 801 800
f 797 834 837
f 798 799 801
f 798 838 799
f 837 836 798
f 798 836 838
f 801 799 802
f 933 802 799
f 933 799 838
f 804 805 803
f 804 806 805
f 807 806 804
f 804 808 807
f 839 808 804
f 841 808 839
f 811 810 809
f 847 811 809
f 809 811 879
f 847 809 879
f 813 810 811
f 879 811 810
f 813 812 810
f 879 810 878
f 853 813 811
f 847 850 811
f 853 811 850
f 815 812 813
f 817 813 814
f 814 813 854
f 815 813 816
f 816 813 817
f 854 813 853
f 857 817 814
f 857 814 854
f 818 816 817
f 818 817 819
f 819 817 861
f 861 817 857
f 818 819 822
f 818 822 821
f 823 819 820
f 820 819 862
f 823 822 819
f 819 861 862
f 820 862 823
f 826 822 823
f 826 825 822
f 823 824 827
f 867 824 823
f 823 827 826
f 862 867 823
f 824 868 827
f 867 868 824
f 826 827 832
f 826 832 831
f 827 828 833
f 868 828 827
f 827 833 832
f 828 829 834
f 872 829 828
f 828 834 833
f 868 869 828
f 869 872 828
f 829 830 834
f 829 874 830
f 872 873 829
f 873 874 829
f 834 830 835
f 835 830 836
f 933 836 830
f 933 830 874
f 837 834 835
f 835 836 837
f 933 838 836
f 840 842 839
f 839 842 841
f 840 843 842
f 840 844 843
f 840 845 844
f 840 846 845
f 875 846 840
f 875 877 846
f 848 850 847
f 848 847 880
f 880 847 879
f 851 848 849
f 881 849 848
f 848 851 850
f 881 848 880
f 851 849 852
f 852 849 888
f 882 849 881
f 888 849 882
f 854 850 851
f 854 853 850
f 855 851 852
f 855 854 851
f 856 855 852
f 856 852 893
f 852 888 892
f 893 852 892
f 858 854 855
f 858 857 854
f 859 855 856
f 859 858 855
f 859 856 896
f 896 856 893
f 862 857 858
f 862 861 857
f 863 858 859
f 863 862 858
f 864 859 860
f 859 900 860
f 864 863 859
f 899 859 896
f 900 859 899
f 864 860 900
f 862 863 868
f 862 868 867
f 863 864 869
f 863 869 868
f 864 865 870
f 901 865 864
f 864 870 869
f 900 901 864
f 865 904 870
f 903 865 901
f 903 902 865
f 865 902 904
f 870 866 871
f 870 904 866
f 871 866 933
f 933 866 904
f 869 870 873
f 869 873 872
f 870 871 873
f 873 871 874
f 933 874 871
f 876 878 875
f 875 878 877
f 876 879 878
f 876 880 879
f 881 880 876
f 876 882 881
f 887 882 876
f 883 882 887
f 883 890 882
f 882 889 888
f 882 890 889
f 887 884 883
f 890 883 884
f 887 885 884
f 884 885 890
f 887 886 885
f 890 885 886
f 933 886 887
f 890 886 891
f 891 886 933
f 887 905 933
f 892 888 889
f 893 889 890
f 892 889 893
f 890 891 894
f 893 890 894
f 894 891 895
f 933 895 891
f 897 893 894
f 897 896 893
f 894 895 897
f 897 895 898
f 898 895 933
f 900 896 897
f 900 899 896
f 897 898 901
f 901 900 897
f 901 898 902
f 933 902 898
f 901 902 903
f 933 904 902
f 933 905 906
f 906 907 933
f 933 907 908
f 933 908 909
f 909 910 933
f 933 910 911
f 933 911 912
f 912 913 933
f 933 913 914
f 933 914 915
f 915 916 933
f 933 916 917
f 933 917 918
f 933 918 919
f 933 919 920
f 920 921 933
f 933 921 922
f 933 922 923
f 933 923 924
f 933 924 925
f 925 926 933
f 933 926 927
f 927 928 933
f 933 928 929
f 933 929 930
f 930 931 933
f 933 931 932
