v -0.0212131996 0.00707106401 -0.0300999999
v -0.0212131996 0.00707106401 0.0103999996
v -0.0205009289 0.0162686234 -0.000209269524
v -0.0205060978 0.0162634544 0
v -0.0202559395 0.0119881325 -0.00134970665
v -0.0203002186 0.0119438486 -0.00104188919
v -0.0203233833 0.0119206839 -0.000835039616
v -0.0203485317 0.0118955402 -0.00052293539
v -0.02035886 0.0118852072 -0.000314016342
v -0.0203640289 0.0118800383 -0.00010471344
v -0.020362093 0.011881979 0.000209395885
v -0.0203543396 0.0118897276 0.000418539047
v -0.0203330536 0.0119110184 0.000731215477
v -0.0203124447 0.0119316273 0.000938606262
v -0.0202719612 0.011972106 0.00124747038
v -0.0202559395 0.0119881325 0.00134970665
v -0.020274889 0.016494668 -0.0013619709
v -0.0203226967 0.0164468556 -0.0012202096
v -0.020390522 0.0163790302 -0.000976705551
v -0.0204430885 0.0163264685 -0.000725765228
v -0.0204799766 0.0162895708 -0.000469303131
v -0.0204980202 0.0162715273 0.000261466503
v -0.0204738731 0.0162956839 0.000520944595
v -0.0204338188 0.0163357382 0.000776457787
v -0.0203781624 0.0163913851 0.00102606058
v -0.0203073425 0.0164622049 0.00126785517
v -0.0202577896 0.0165117626 -0.00140841484
v -0.0202577896 0.0165117626 0.00140841484
v -0.0200274105 0.0122166615 -0.00234438658
v -0.0201088161 0.0121352558 -0.00205212116
v -0.0201792927 0.0120647793 -0.00175422907
v -0.0202201099 0.0120239573 -0.00155291319
v -0.0202386494 0.0120054178 -0.00145153046
v -0.0202386494 0.0120054178 0.00145153046
v -0.0202003212 0.012043746 0.00165382385
v -0.0201335258 0.0121105414 0.00195340872
v -0.0200557442 0.0121883278 0.0022476387
v -0.0200274105 0.0122166615 0.00234438658
v -0.0200333519 0.0167362003 -0.00188796043
v -0.0201224632 0.0166470938 -0.00172072887
v -0.0202401276 0.0165294294 -0.00145442963
v -0.0202401276 0.0165294294 0.00145442963
v -0.0202218933 0.0165476589 0.00150000095
v -0.0201009579 0.0166685944 0.00176335573
v -0.0200098057 0.0167597513 -0.00192836285
v -0.0200098057 0.0167597513 0.00192836285
v -0.0199978752 0.0122461872 -0.0024404192
v -0.0199978752 0.0122461872 0.0024404192
v -0.0197586841 0.012485383 -0.00309022903
v -0.0198680611 0.0123760061 -0.00281682968
v -0.0199671764 0.0122768955 -0.00253571033
v -0.0199022598 0.0123418121 0.00272394419
v -0.0197962685 0.0124477987 0.00299999952
v -0.0197586841 0.012485383 0.00309022903
v -0.0197764892 0.016993063 -0.00226412773
v -0.0198042126 0.0169653349 -0.00222943544
v -0.019985754 0.0167837935 -0.00196817636
v -0.019985754 0.0167837935 0.00196817636
v -0.0199612255 0.0168083267 0.00200739145
v -0.0197764892 0.016993063 0.00226412773
v -0.0195544071 0.0126896649 -0.00352671146
v -0.0196802158 0.0125638561 -0.00326783419
v -0.0197199936 0.0125240736 -0.00317951441
v -0.0197199936 0.0125240736 0.00317951441
v -0.0195973987 0.0126466684 0.00344145775
v -0.0195103569 0.0127337103 0.00361088991
v -0.0195401306 0.0172294216 -0.00251601219
v -0.019571001 0.0171985512 -0.00248711348
v -0.0197483368 0.0170212202 0.00229813337
v -0.0195401306 0.0172294216 0.00251601219
v -0.0195089073 0.0172606497 -0.0025441432
v -0.0195089073 0.0172606497 0.0025441432
v -0.0192749329 0.0129691391 -0.00401478291
v -0.0194191856 0.0128248816 -0.00377592325
v -0.0194652767 0.0127787905 -0.00369396925
v -0.0194652767 0.0127787905 0.00369396925
v -0.0193239994 0.0129200726 0.00393635511
v -0.0192749329 0.0129691391 0.00401478291
v -0.0192812843 0.0174882679 -0.00271892309
v -0.0194773407 0.0172922163 0.00257150173
v -0.0190692158 0.0131748467 -0.00431603909
v -0.0192249031 0.0130191641 -0.00409198999
v -0.0191220302 0.0131220369 0.00424263954
v -0.0190155048 0.0132285624 0.00438812256
v -0.0190403004 0.0177292519 -0.00285316944
v -0.019247591 0.0175219565 -0.00274063587
v -0.019247591 0.0175219565 0.00274063587
v -0.0192136402 0.017555912 0.00276151419
v -0.0190049858 0.0177645617 -0.0028689146
v -0.0190049858 0.0177645617 0.0028689146
v -0.0189054603 0.0133386116 -0.00452825785
v -0.0189609165 0.0132831555 -0.0044588685
v -0.0189609165 0.0132831555 0.0044588685
v -0.0187920113 0.0134520559 0.00466287613
v -0.0187895412 0.017980011 -0.00294488192
v -0.01896949 0.0178000622 0.00288378477
v -0.0187531395 0.0180164127 -0.00295442343
v -0.0187531395 0.0180164127 0.00295442343
v -0.0186753197 0.0135687475 -0.0047918129
v -0.018734066 0.013510006 -0.00472806454
v -0.018734066 0.013510006 0.00472806454
v -0.0185555096 0.0136885576 0.00491491318
v -0.0185327549 0.0182368021 -0.00299269199
v -0.0187166233 0.0180529289 0.0029630661
v -0.0183203239 0.00996394921 -0.00104188919
v -0.0183434887 0.00994078446 -0.000835039616
v -0.0183686275 0.00991563607 -0.00052293539
v -0.0183789654 0.00990530778 -0.000314016342
v -0.0183841343 0.00990013886 -0.00010471344
v -0.0183821888 0.00990207482 0.000209395885
v -0.018374445 0.0099098282 0.000418539047
v -0.0183531494 0.00993111421 0.000731215477
v -0.0183325405 0.00995173265 0.000938606262
v -0.0182920666 0.00999220658 0.00124747038
v -0.0182760353 0.0100082378 -0.00134970665
v -0.0182587547 0.0100255184 0.00145153046
v -0.0184944935 0.0137495785 -0.00497422457
v -0.0184944935 0.0137495785 0.00497422457
v -0.0184327431 0.0138113289 -0.00503202438
v -0.0183071537 0.0139369135 0.00514300346
v -0.018273756 0.0184957962 -0.00299588919
v -0.0184958 0.018273757 0.00299588919
v -0.0180475063 0.0102367668 -0.00234438658
v -0.018128912 0.0101553612 -0.00205212116
v -0.0181993885 0.0100848751 -0.00175422907
v -0.0182402153 0.0100440579 -0.00155291319
v -0.0182204265 0.0100638466 0.00165382385
v -0.0181536312 0.0101306419 0.00195340872
v -0.01807584 0.0102084236 0.0022476387
v -0.0180475063 0.0102367668 0.00234438658
v -0.0180179806 0.0102662926 -0.0024404192
v -0.0180179806 0.0102662926 0.0024404192
v -0.0181138344 0.0141302376 -0.00529768467
v -0.0182433529 0.0140007143 -0.00519615173
v -0.0180446072 0.0141994648 -0.00126785517
v -0.018115427 0.014128645 -0.00102606058
v -0.0181710739 0.0140729981 -0.000776457787
v -0.0182111282 0.0140329437 -0.000520944595
v -0.0182352848 0.0140087872 -0.000261466503
v -0.0182430286 0.0140010386 -5.235672e-05
v -0.018238184 0.0140058832 0.000209269524
v -0.0182172413 0.0140268307 0.000469303131
v -0.0181803436 0.0140637283 0.000725765228
v -0.0181277866 0.0141162853 0.000976705551
v -0.0180599613 0.0141841107 0.0012202096
v -0.0180121441 0.0142319231 0.0013619709
v -0.0181789036 0.0140651636 0.0052477169
v -0.0180481548 0.0141959171 0.00534604073
v -0.0180529327 0.0187166243 -0.0029630661
v -0.0182368011 0.0185327511 0.00299269199
v -0.0180164165 0.0187531405 -0.00295442343
v -0.0180164165 0.0187531405 0.00295442343
v -0.0178881664 0.0103961067 -0.00281682968
v -0.0179872723 0.0102970009 -0.00253571033
v -0.0179223556 0.0103619175 0.00272394419
v -0.0178163738 0.0104678993 0.00299999952
v -0.0177787895 0.0105054836 -0.00309022903
v -0.0177787895 0.0105054836 0.00309022903
v -0.0179950447 0.0142490177 -0.00140841484
v -0.0179950447 0.0142490177 0.00140841484
v -0.0177797623 0.0144643049 -0.00552302837
v -0.017981884 0.0142621832 -0.00539276361
v -0.0178382225 0.0144058495 -0.00176335573
v -0.0179591484 0.0142849188 -0.00150000095
v -0.0179773826 0.0142666845 -0.00145442963
v -0.0179773826 0.0142666845 0.00145442963
v -0.0178597183 0.0143843489 0.00172072887
v -0.017770607 0.0144734602 0.00188796043
v -0.0178476734 0.0143963986 0.00548127174
v -0.0177797623 0.0144643049 0.00552302837
v -0.0178000564 0.018969491 -0.00288378477
v -0.0179800053 0.0187895422 0.00294488192
v -0.0177645607 0.0190049915 -0.0028689146
v -0.0177645607 0.0190049915 0.0028689146
v -0.0175745029 0.0107097702 -0.00352671146
v -0.0177003117 0.0105839615 -0.00326783419
v -0.0177400989 0.0105441742 -0.00317951441
v -0.0177400989 0.0105441742 0.00317951441
v -0.0176175041 0.010666769 0.00344145775
v -0.0175745029 0.0107097702 0.00352671146
v -0.0175304623 0.0107538109 -0.00361088991
v -0.0175304623 0.0107538109 0.00361088991
v -0.0177470608 0.0144970112 -0.00192836285
v -0.0177470608 0.0144970112 0.00192836285
v -0.0177113552 0.014532712 -0.00556310415
v -0.0175137443 0.0147303228 -0.00226412773
v -0.0176984806 0.0145455866 -0.00200739145
v -0.0177230186 0.0145210533 -0.00196817636
v -0.0177230186 0.0145210533 0.00196817636
v -0.0175414772 0.0147025948 0.00222943544
v -0.0175137443 0.0147303228 0.00226412773
v -0.0175033016 0.0147407656 0.00567311287
v -0.0175559063 0.0192136412 -0.00276151419
v -0.0175219555 0.0192475968 -0.00274063587
v -0.0175219555 0.0192475968 0.00274063587
v -0.0177292557 0.0190403013 0.00285316944
v -0.0172950287 0.0109892397 -0.00401478291
v -0.017439291 0.0108449822 -0.00377592325
v -0.0174853821 0.0107988911 -0.00369396925
v -0.0174853821 0.0107988911 0.00369396925
v -0.0173440952 0.0109401732 0.00393635511
v -0.0172950287 0.0109892397 0.00401478291
v -0.0172914619 0.0149526053 -0.00576756954
v -0.0174330826 0.0148109846 -0.00570633888
v -0.0172773857 0.0149666815 -0.00251601219
v -0.0174855919 0.0147584753 -0.00229813337
v -0.0173082657 0.0149358063 0.00248711348
v -0.0172773857 0.0149666815 0.00251601219
v -0.017362463 0.0148816042 0.00573782921
v -0.0172914619 0.0149526053 0.00576756954
v -0.0172922153 0.0194773369 -0.00257150173
v -0.0174882717 0.0192812853 0.00271892309
v -0.0172606487 0.0195089035 -0.0025441432
v -0.0172606487 0.0195089035 0.0025441432
v -0.0170893211 0.011194952 -0.00431603909
v -0.0172450085 0.0110392647 -0.00409198999
v -0.0171421356 0.0111421375 0.00424263954
v -0.0170356102 0.011248663 0.00438812256
v -0.0172461624 0.0149979048 -0.0025441432
v -0.0172461624 0.0149979048 0.0025441432
v -0.017220108 0.0150239592 -0.00579555511
v -0.0172145958 0.0150294762 -0.00257150173
v -0.0170185394 0.0152255278 0.00271892309
v -0.0170041294 0.0152399378 0.0058688879
v -0.0172294254 0.0195401316 -0.00251601219
v -0.0170212192 0.019748333 -0.00229813337
v -0.0171985454 0.019571002 0.00248711348
v -0.0172294254 0.0195401316 0.00251601219
v -0.0169255562 0.0113587122 -0.00452825785
v -0.0169810123 0.011303256 -0.0044588685
v -0.0169810123 0.011303256 0.0044588685
v -0.0168121166 0.0114721565 0.00466287613
v -0.0167541618 0.0115301066 -0.00472806454
v -0.0167541618 0.0115301066 0.00472806454
v -0.0169315643 0.0153125029 -0.00588976383
v -0.0169509048 0.0152931671 -0.00276151419
v -0.0169848556 0.0152592163 -0.00274063587
v -0.0169848556 0.0152592163 0.00274063587
v -0.0167775555 0.0154665117 0.00285316944
v -0.0167857284 0.0154583387 0.0059261322
v -0.0169930668 0.0197764855 -0.00226412773
v -0.0168083305 0.0199612265 -0.00200739145
v -0.0167837925 0.019985755 -0.00196817636
v -0.0167837925 0.019985755 0.00196817636
v -0.0169653339 0.0198042183 0.00222943544
v -0.0169930668 0.0197764855 0.00226412773
v -0.0167597504 0.0200098019 -0.00192836285
v -0.0167597504 0.0200098019 0.00192836285
v -0.016695425 0.0115888529 -0.0047918129
v -0.0165756149 0.0117086582 0.00491491318
v -0.0165145893 0.0117696791 -0.00497422457
v -0.0165145893 0.0117696791 0.00497422457
v -0.0167124958 0.0155315714 -0.00594160795
v -0.0167422504 0.0155018215 -0.0028689146
v -0.0165268059 0.0157172661 0.00294488192
v -0.0165655155 0.0156785565 0.00596713066
v -0.0166685886 0.0201009588 -0.00176335573
v -0.0165476627 0.0202218943 -0.00150000095
v -0.0165294285 0.0202401238 -0.00145442963
v -0.0165294285 0.0202401238 0.00145442963
v -0.0166470928 0.0201224594 0.00172072887
v -0.0167362041 0.0200333529 0.00188796043
v -0.0165117569 0.0202577906 -0.00140841484
v -0.0165117569 0.0202577906 0.00140841484
v -0.0162634582 0.00212132264 -0.0375999999
v -0.0162634582 0.00212132264 -0.0300999999
v -0.0162634582 0.00212132264 0.0103999996
v -0.0162634582 0.00212132264 0.0178999996
v -0.0164528389 0.0118314295 -0.00503202438
v -0.0163272591 0.0119570141 0.00514300346
v -0.0162634582 0.0120208149 -0.00519615173
v -0.0162634582 0.0120208149 0.00519615173
v -0.016491806 0.0157522659 -0.00597716808
v -0.0164903946 0.0157536726 -0.00295442343
v -0.01627001 0.0159740572 0.00299269199
v -0.0162701054 0.0159739666 0.00599634647
v -0.016462204 0.0203073435 -0.00126785517
v -0.0163913841 0.0203781633 -0.00102606058
v -0.0163357372 0.020433815 -0.000776457787
v -0.0162956829 0.0204738693 -0.000520944595
v -0.0162715263 0.0204980259 -0.000261466503
v -0.0162895698 0.0204799776 0.000469303131
v -0.0163264675 0.0204430847 0.000725765228
v -0.0163790245 0.020390523 0.000976705551
v -0.0164468498 0.0203226976 0.0012202096
v -0.016494667 0.0202748852 0.0013619709
v -0.0162637825 0.0205057745 -5.235672e-05
v -0.0162634582 0.0205060988 0
v -0.0161339302 0.0121503382 -0.00529768467
v -0.0161990089 0.0120852642 -0.00524771929
v -0.0161990089 0.0120852642 0.0052477169
v -0.0160682506 0.0122160177 0.00534604073
v -0.0160019894 0.0122822838 -0.00539276361
v -0.0160019894 0.0122822838 0.005392766
v -0.0161960812 0.0160479908 -0.0059990859
v -0.0162330551 0.0160110121 -0.00299588919
v -0.0160110111 0.0162330561 0.00299588919
v -0.0161220379 0.0161220341 0.00599999905
v -0.0157998676 0.0124844055 -0.00552302837
v -0.0159351559 0.0123491173 -0.00543784618
v -0.0158677692 0.0124164991 0.00548127174
v -0.0157998676 0.0124844055 0.00552302837
v -0.0159739704 0.0162701016 -0.00599634409
v -0.0159740562 0.016270011 -0.00299269199
v -0.0157536716 0.0164904003 0.00295442343
v -0.0157522602 0.016491807 0.00597716808
v -0.0157314606 0.0125528126 -0.00556310415
v -0.0155932064 0.0126910668 0.00563815594
v -0.015523407 0.0127608662 -0.00567311049
v -0.015523407 0.0127608662 0.00567311287
v -0.0156785602 0.0165655117 -0.00596713066
v -0.0157172699 0.0165268021 -0.00294488192
v -0.0155018253 0.0167422466 0.0028689146
v -0.0155315704 0.0167124968 0.00594161034
v -0.0153115673 0.0129727059 -0.00576756954
v -0.0154531879 0.0128310852 -0.00570633888
v -0.0153825683 0.0129017096 0.00573782921
v -0.0153115673 0.0129727059 0.00576756954
v -0.0154583378 0.0167857294 -0.00592612982
v -0.0154665108 0.0167775564 -0.00285316944
v -0.0152592201 0.0169848518 -0.00274063587
v -0.0152592201 0.0169848518 0.00274063587
v -0.0152931709 0.016950901 0.00276151419
v -0.0153125019 0.0169315701 0.00588976383
v -0.0152402134 0.0130440598 -0.00579555511
v -0.0150965233 0.0131877499 0.00584621906
v -0.0150242348 0.0132600432 -0.00586888552
v -0.0150242348 0.0132600432 0.0058688879
v -0.0152399368 0.0170041304 -0.00586888552
v -0.0152255268 0.0170185452 -0.00271892309
v -0.0150294704 0.0172145968 0.00257150173
v -0.0150239582 0.017220109 0.00579555511
v -0.0148492451 0.000707109461 -0.0375999999
v -0.0148492451 0.000707109461 -0.0300999999
v -0.0148492451 0.000707109461 0.0103999996
v -0.0148492451 0.000707109461 0.0178999996
v -0.0149516697 0.0133326035 -0.00588976383
v -0.0148058338 0.0134784393 0.0059261322
v -0.0149979038 0.0172461634 -0.0025441432
v -0.0149979038 0.0172461634 0.0025441432
v -0.0149526043 0.0172914629 -0.00576756954
v -0.0148816032 0.017362464 -0.00573782921
v -0.0149666805 0.0172773867 -0.00251601219
v -0.0149358101 0.0173082619 -0.00248711348
v -0.0147584743 0.0174855929 0.00229813337
v -0.0149666805 0.0172773867 0.00251601219
v -0.0148109836 0.0174330835 0.00570633888
v -0.0149526043 0.0172914629 0.00576756954
v -0.0147326012 0.013551672 -0.00594160795
v -0.0145856113 0.013698657 0.00596713066
v -0.0145119018 0.0137723665 -0.00597716808
v -0.0145119018 0.0137723665 0.00597716808
v -0.0147407646 0.0175033026 -0.00567311049
v -0.0147303219 0.0175137453 -0.00226412773
v -0.0147025986 0.0175414734 -0.00222943544
v -0.0145210571 0.0177230148 -0.00196817636
v -0.0145210571 0.0177230148 0.00196817636
v -0.0145455856 0.0176984816 0.00200739145
v -0.0147303219 0.0175137453 0.00226412773
v -0.014532711 0.0177113562 0.00556310177
v -0.0142896767 0.00409509469 -0.0355293202
v -0.0143150349 0.00406973649 -0.0352569521
v -0.0143179436 0.00406683732 -0.0350214761
v -0.0143034286 0.00408134271 -0.0347868605
v -0.0142646999 0.00412007142 -0.0345176572
v -0.0142572803 0.00412750054 -0.034479816
v -0.0142896767 0.00409509469 0.0149706793
v -0.0143150349 0.00406973649 0.0152430487
v -0.0143179436 0.00406683732 0.0154785252
v -0.0143034286 0.00408134271 0.0157131386
v -0.0142646999 0.00412007142 0.0159823418
v -0.0142572803 0.00412750054 0.0160201836
v -0.0144380875 0.0138461857 -0.00598538399
v -0.0142902012 0.013994072 0.00599634647
v -0.0144970055 0.0177470617 -0.00192836285
v -0.0144970055 0.0177470617 0.00192836285
v -0.014464304 0.017779768 -0.00552302837
v -0.0143963928 0.0178476744 -0.00548127174
v -0.0144734592 0.017770608 -0.00188796043
v -0.0143843479 0.0178597193 -0.00172072887
v -0.0142666836 0.0179773836 -0.00145442963
v -0.0142666836 0.0179773836 0.00145442963
v -0.0142849178 0.0179591541 0.00150000095
v -0.0144058533 0.0178382187 0.00176335573
v -0.0142621822 0.017981885 0.005392766
v -0.014464304 0.017779768 0.00552302837
v -0.0141813679 0.00420341302 -0.0360151575
v -0.0142493935 0.00413538743 -0.0357578363
v -0.014203064 0.00418171693 -0.0342571352
v -0.0141455002 0.00423927117 -0.0340785214
v -0.0141813679 0.00420341302 0.0144848442
v -0.0142493935 0.00413538743 0.0147421646
v -0.014203064 0.00418171693 0.0162428665
v -0.0141455002 0.00423927117 0.0164214802
v -0.0140916653 0.00429310609 -0.0362588356
v -0.0141326828 0.00425208856 -0.036156311
v -0.0141194363 0.00426534463 -0.0340091784
v -0.0140150566 0.00436971475 -0.0337774832
v -0.0140916653 0.00429310609 0.0142411661
v -0.0141326828 0.00425208856 0.0143436909
v -0.0141194363 0.00426534463 0.0164908218
v -0.0140150566 0.00436971475 0.016722517
v -0.0141421337 0.0141421347 -0.00599999905
v -0.0140680904 0.014216178 0.00599908829
v -0.0142490215 0.0179950504 -0.00140841484
v -0.0142490215 0.0179950504 0.00140841484
v -0.0141959114 0.018048151 -0.00534603834
v -0.0140651626 0.0181789093 -0.00524771929
v -0.0142319221 0.0180121451 -0.0013619709
v -0.0141841144 0.0180599575 -0.0012202096
v -0.0141162891 0.0181277828 -0.000976705551
v -0.0140637226 0.0181803446 -0.000725765228
v -0.0140268345 0.0182172375 -0.000469303131
v -0.0140058823 0.0182381897 -0.000209269524
v -0.0140007133 0.0182433539 0
v -0.014008791 0.018235281 0.000261466503
v -0.014032938 0.0182111292 0.000520944595
v -0.0140729923 0.0181710749 0.000776457787
v -0.0141286487 0.0181154232 0.00102606058
v -0.0141994686 0.0180446034 0.00126785517
v -0.0140007133 0.0182433539 0.00519615173
v -0.0141302318 0.0181138353 0.00529768467
v -0.0139643497 0.00442042161 -0.0365159708
v -0.013998539 0.00438623239 -0.0364540838
v -0.0138914986 0.00449328233 -0.0335655037
v -0.0139643497 0.00442042161 0.0139840269
v -0.013998539 0.00438623239 0.0140459156
v -0.0138914986 0.00449328233 0.016934495
v -0.0137924976 0.00459227372 -0.0367720759
v -0.0138723869 0.00451239396 -0.0366629814
v -0.0138529224 0.00453185845 -0.0335090098
v -0.0137505932 0.00463418771 -0.0333764
v -0.0137924976 0.00459227372 0.0137279224
v -0.0138723869 0.00451239396 0.013837018
v -0.0138529224 0.00453185845 0.0169909906
v -0.0137505932 0.00463418771 0.0171235991
v -0.0139940662 0.0142902022 -0.00599634409
v -0.01384618 0.0144380884 0.00598538399
v -0.0137723656 0.0145119076 -0.00597716808
v -0.0137723656 0.0145119076 0.00597716808
v -0.0139369125 0.0183071547 -0.00514300346
v -0.0138113232 0.018432744 0.00503202438
v -0.0137291641 0.00465560723 -0.0368485785
v -0.0136404724 0.00474429894 -0.0332569079
v -0.0137291641 0.00465560723 0.0136514235
v -0.0136404724 0.00474429894 0.0172430944
v -0.0135710163 0.00481375505 -0.0370081082
v -0.0136175938 0.00476718713 -0.0369653346
v -0.0135234184 0.00486136247 -0.0331514429
v -0.0135710163 0.00481375505 0.0134918928
v -0.0136175938 0.00476718713 0.0135346651
v -0.0135234184 0.00486136247 0.0173485565
v -0.0136986561 0.0145856123 -0.00596713066
v -0.0135516758 0.0147325974 0.00594161034
v -0.0137495823 0.0184944897 -0.00497422457
v -0.0137495823 0.0184944897 0.00497422457
v -0.0136885567 0.0185555153 -0.00491491318
v -0.0135100002 0.018734067 -0.00472806454
v -0.0135100002 0.018734067 0.00472806454
v -0.0135687466 0.0186753206 0.0047918129
v -0.0134992523 0.00488552857 -0.0370678943
v -0.0134002991 0.00498447228 -0.0330608074
v -0.0134992523 0.00488552857 0.013432107
v -0.0134002991 0.00498447228 0.0174391937
v -0.0133750362 0.00500974465 -0.0371554773
v -0.0133239193 0.0050608616 -0.0330138363
v -0.013272068 0.00511270333 -0.0329856916
v -0.0133750362 0.00500974465 0.0133445215
v -0.0133239193 0.0050608616 0.0174861622
v -0.013272068 0.00511270333 0.0175143099
v -0.0134784431 0.01480583 -0.00592612982
v -0.0133325977 0.0149516707 0.00588976383
v -0.0132600422 0.015024231 -0.00586888552
v -0.0132600422 0.015024231 0.0058688879
v -0.013452055 0.018792017 -0.00466287613
v -0.0132831497 0.0189609175 -0.0044588685
v -0.0132831497 0.0189609175 0.0044588685
v -0.0133386154 0.0189054566 0.00452825785
v -0.0131930847 0.00519169618 -0.0372516857
v -0.0132458992 0.00513888169 -0.0372274168
v -0.013139698 0.00524507333 -0.0329266669
v -0.0131930847 0.00519169618 0.0132483149
v -0.0132458992 0.00513888169 0.0132725811
v -0.013139698 0.00524507333 0.0175733328
v -0.0131128139 0.00527195741 -0.0372831655
v -0.0130041904 0.00538058091 -0.0328841825
v -0.0131128139 0.00527195741 0.0132168341
v -0.0130041904 0.00538058091 0.017615819
v -0.0131877537 0.0150965242 -0.00584622145
v -0.0130440636 0.0152402096 0.00579555511
v -0.0132285614 0.0190155106 -0.00438812256
v -0.013122036 0.019122036 -0.00424263954
v -0.0130191631 0.0192249041 0.00409198999
v -0.0131748505 0.0190692215 0.00431603909
v -0.012808754 0.00274760057 -0.0358695453
v -0.0128430672 0.00271328736 -0.0357201841
v -0.0128805275 0.0026758175 -0.0354907084
v -0.0129025192 0.00265383531 -0.0352177559
v -0.0129025192 0.00265383531 -0.0349822441
v -0.0128851147 0.00267123986 -0.0347480224
v -0.0128430672 0.00271328736 -0.034479816
v -0.012808754 0.00274760057 0.014630456
v -0.0128430672 0.00271328736 0.0147798157
v -0.0128805275 0.0026758175 0.0150092936
v -0.0129025192 0.00265383531 0.0152822447
v -0.0129025192 0.00265383531 0.0155177546
v -0.0128851147 0.00267123986 0.015751977
v -0.0128430672 0.00271328736 0.0160201836
v -0.0127556343 0.00280071069 -0.0360508911
v -0.0127782268 0.00277812768 -0.035979145
v -0.0127990265 0.00275732804 -0.0342936721
v -0.0127782268 0.00277812768 -0.0342208549
v -0.0127556343 0.00280071069 0.01444911
v -0.0127782268 0.00277812768 0.0145208549
v -0.0127990265 0.00275732804 0.0162063265
v -0.0127782268 0.00277812768 0.0162791443
v -0.0129768104 0.00540797044 -0.0373222987
v -0.0128942222 0.0054905491 -0.0328623258
v -0.0129768104 0.00540797044 0.0131777
v -0.0128942222 0.0054905491 0.0176376724
v -0.0128665848 0.00551818658 -0.0373414381
v -0.0127556915 0.00562908937 -0.0328503427
v -0.0128665848 0.00551818658 0.0131585598
v -0.0127556915 0.00562908937 0.0176496553
v -0.0129727096 0.0153115635 -0.00576756954
v -0.0129017086 0.0153825646 -0.00573782921
v -0.012831089 0.0154531841 0.00570633888
v -0.0129727096 0.0153115635 0.00576756954
v -0.01276087 0.0155234032 -0.00567311049
v -0.01276087 0.0155234032 0.00567311287
v -0.0129691429 0.0192749291 -0.00401478291
v -0.0129200764 0.0193239956 -0.00393635511
v -0.0127787895 0.0194652825 -0.00369396925
v -0.0127787895 0.0194652825 0.00369396925
v -0.0128248806 0.0194191866 0.00377592325
v -0.0129691429 0.0192749291 0.00401478291
v -0.0125674267 0.00298892785 -0.0364852384
v -0.0126915474 0.00286480714 -0.036225
v -0.0127436848 0.00281266976 -0.0341136649
v -0.0126915474 0.00286480714 -0.033975
v -0.0125843258 0.00297201921 -0.0337459162
v -0.0125674267 0.00298892785 0.0140147638
v -0.0126915474 0.00286480714 0.0142749977
v -0.0127436848 0.00281266976 0.0163863373
v -0.0126915474 0.00286480714 0.0165250015
v -0.0125843258 0.00297201921 0.0167540836
v -0.0125144405 0.00304190446 -0.0365761328
v -0.0125501366 0.00300620843 -0.0336840291
v -0.0125144405 0.00304190446 0.0139238691
v -0.0125501366 0.00300620843 0.0168159723
v -0.0127279205 0.00565685082 -0.03735
v -0.0127279205 0.00565685082 -0.03285
v -0.0127279205 0.00565685082 0.0131500006
v -0.0127279205 0.00565685082 0.0176499987
v -0.0126169414 0.00576783944 -0.037344519
v -0.0125064964 0.00587827493 -0.0328718968
v -0.0126169414 0.00576783944 0.0131554794
v -0.0125064964 0.00587827493 0.0176281023
v -0.0126910705 0.0155932026 -0.00563815594
v -0.0125528164 0.0157314568 0.00556310177
v -0.0127337093 0.0195103579 -0.00361088991
v -0.0126466675 0.0195974045 -0.00344145775
v -0.0125240726 0.0197199993 -0.00317951441
v -0.0125240726 0.0197199993 0.00317951441
v -0.0125638599 0.019680212 0.00326783419
v -0.0126896686 0.0195544033 0.00352671146
v -0.0123149509 0.00324139405 -0.0368485785
v -0.0123987598 0.00315758515 -0.0367455459
v -0.0124960441 0.00306030084 -0.0335944562
v -0.0124189014 0.00313744355 -0.0334814854
v -0.0123149509 0.00324139405 0.0136514235
v -0.0123987598 0.00315758515 0.0137544537
v -0.0124960441 0.00306030084 0.0169055462
v -0.0124189014 0.00313744355 0.0170185137
v -0.0122711868 0.00328515817 -0.0368969299
v -0.0122932167 0.00326312829 -0.0333269759
v -0.0122711868 0.00328515817 0.0136030722
v -0.0122932167 0.00326312829 0.0171730232
v -0.0124790401 0.00590574075 -0.0373222987
v -0.0123971386 0.0059876423 -0.0328991678
v -0.0124790401 0.00590574075 0.0131777
v -0.0123971386 0.0059876423 0.017600832
v -0.0123700256 0.00601474572 -0.0372923326
v -0.0122627659 0.00612201501 -0.0329483142
v -0.0123700256 0.00601474572 0.0132076693
v -0.0122627659 0.00612201501 0.0175516844
v -0.0124843998 0.0157998686 -0.00552302837
v -0.0124164982 0.015867775 -0.00548127174
v -0.0123491211 0.0159351521 0.00543784618
v -0.0124843998 0.0157998686 0.00552302837
v -0.0122822876 0.0160019856 -0.00539276361
v -0.0122822876 0.0160019856 0.005392766
v -0.0124853821 0.0197586851 -0.00309022903
v -0.0124477978 0.0197962694 -0.00299999952
v -0.0123418159 0.019902256 -0.00272394419
v -0.0122768993 0.0199671726 0.00253571033
v -0.0123760052 0.019868062 0.00281682968
v -0.0124853821 0.0197586851 0.00309022903
v -0.0120606346 0.00349571992 -0.0370866321
v -0.0121802254 0.00337612916 -0.0369870088
v -0.0122488708 0.00330748368 -0.0332797118
v -0.0122033806 0.00335297395 -0.0332346654
v -0.0120606346 0.00349571992 0.0134133673
v -0.0121802254 0.00337612916 0.0135129929
v -0.0122488708 0.00330748368 0.0172202873
v -0.0122033806 0.00335297395 0.0172653341
v -0.0120111484 0.00354519654 -0.0371222866
v -0.0120360012 0.00352034379 -0.0330952354
v -0.0120111484 0.00354519654 0.0133777142
v -0.0120360012 0.00352034379 0.0174047661
v -0.0122362823 0.00614849855 -0.0372398771
v -0.0121577663 0.00622701455 -0.032999444
v -0.0122362823 0.00614849855 0.0132601213
v -0.0121577663 0.00622701455 0.0175005579
v -0.0121319313 0.00625284959 -0.0371861637
v -0.0120056267 0.00637914468 -0.0330952354
v -0.0121319313 0.00625284959 0.0133138371
v -0.0120056267 0.00637914468 0.0174047661
v -0.0122160168 0.0160682564 -0.00534603834
v -0.0120852585 0.0161990099 -0.00524771929
v -0.0120852585 0.0161990099 0.0052477169
v -0.0121503372 0.0161339359 0.00529768467
v -0.0120208187 0.0162634544 -0.00519615173
v -0.0120208187 0.0162634544 0.00519615173
v -0.012246191 0.0199978809 -0.0024404192
v -0.012246191 0.0199978809 0.0024404192
v -0.0122166653 0.0200274067 -0.00234438658
v -0.0121883221 0.0200557404 -0.0022476387
v -0.0121105404 0.0201335316 -0.00195340872
v -0.012043745 0.0202003222 -0.00165382385
v -0.0120054169 0.0202386503 -0.00145153046
v -0.0120054169 0.0202386503 0.00145153046
v -0.0120239563 0.0202201109 0.00155291319
v -0.0120647735 0.0201792936 0.00175422907
v -0.0121352596 0.0201088123 0.00205212116
v -0.0122166653 0.0200274067 0.00234438658
v -0.011831686 0.00372466851 -0.0372274168
v -0.0119860859 0.0035702591 -0.0330608074
v -0.0118838711 0.00367248345 -0.032999444
v -0.011831686 0.00372466851 0.0132725811
v -0.0119860859 0.0035702591 0.0174391937
v -0.0118838711 0.00367248345 0.0175005579
v -0.0117522449 0.00380410005 -0.0372628388
v -0.0118053551 0.00375099946 -0.0372398771
v -0.0118053551 0.00375099946 -0.0329601228
v -0.0117522449 0.00380410005 0.0132371616
v -0.0118053551 0.00375099946 0.0132601213
v -0.0118053551 0.00375099946 0.0175398779
v -0.0119809933 0.00640377809 -0.0370866321
v -0.0118848247 0.0064999466 -0.0331918918
v -0.0119809933 0.00640377809 0.0134133673
v -0.0118848247 0.0064999466 0.0173081064
v -0.0118614025 0.00652336885 -0.0369870088
v -0.011770441 0.00661433984 -0.0333030701
v -0.0118382473 0.00654652406 -0.0332346654
v -0.0118614025 0.00652336885 0.0135129929
v -0.011770441 0.00661433984 0.0171969318
v -0.0118382473 0.00654652406 0.0172653341
v -0.0119570179 0.0163272553 -0.00514300346
v -0.0118314285 0.0164528446 0.00503202438
v -0.0117696781 0.0165145903 -0.00497422457
v -0.0117696781 0.0165145903 0.00497422457
v -0.0119881363 0.0202559357 -0.00134970665
v -0.011972105 0.0202719622 -0.00124747038
v -0.0119316311 0.0203124409 -0.000938606262
v -0.0119110222 0.0203330498 -0.000731215477
v -0.0118897266 0.0203543406 -0.000418539047
v -0.0118819828 0.0203620892 -0.000209395885
v -0.0118793983 0.0203646736 0
v -0.0118852062 0.020358861 0.000314016342
v -0.0118955345 0.0203485327 0.00052293539
v -0.0119206829 0.0203233843 0.000835039616
v -0.0119438476 0.0203002195 0.00104188919
v -0.0119881363 0.0202559357 0.00134970665
v -0.0115625973 0.00399375726 -0.0373222987
v -0.0117254848 0.00383086015 -0.0329266669
v -0.0115625973 0.00399375726 0.0131777
v -0.0117254848 0.00383086015 0.0175733328
v -0.0115075989 0.00404874612 -0.0373332289
v -0.0115351314 0.00402121354 -0.0328718968
v -0.0115075989 0.00404874612 0.0131667709
v -0.0115351314 0.00402121354 0.0176281023
v -0.0117484112 0.00663636972 -0.0368730243
v -0.011642868 0.00674190331 -0.0367455459
v -0.011642868 0.00674190331 -0.0334544542
v -0.0117484112 0.00663636972 0.013626976
v -0.011642868 0.00674190331 0.0137544537
v -0.011642868 0.00674190331 0.0170455456
v -0.0116227264 0.00676204492 -0.0367185146
v -0.0115091534 0.00687562753 -0.0336537279
v -0.0116227264 0.00676204492 -0.0334814854
v -0.0116227264 0.00676204492 0.0137814856
v -0.0115091534 0.00687562753 0.0168462706
v -0.0116227264 0.00676204492 0.0170185137
v -0.0117086525 0.0165756159 -0.00491491318
v -0.0115888519 0.0166954212 0.0047918129
v -0.0115301056 0.0167541676 -0.00472806454
v -0.0115301056 0.0167541676 0.00472806454
v -0.0113137073 0.00424263764 -0.03735
v -0.0113137073 0.00424263764 -0.03285
v -0.0113137073 0.00424263764 0.0131500006
v -0.0113137073 0.00424263764 0.0176499987
v -0.0112581844 0.0042981701 -0.0373486294
v -0.0112859459 0.00427040864 -0.0328503427
v -0.0112581844 0.0042981701 0.0131513691
v -0.0112859459 0.00427040864 0.0176496553
v -0.0114914913 0.00689328958 -0.0365159708
v -0.0114742012 0.00691057015 -0.0364852384
v -0.0113936062 0.00699117471 -0.0338745622
v -0.0114573021 0.0069274788 -0.0337459162
v -0.0114914913 0.00689328958 0.0139840269
v -0.0114742012 0.00691057015 0.0140147638
v -0.0113936062 0.00699117471 0.0166254377
v -0.0114573021 0.0069274788 0.0167540836
v -0.0113786812 0.00700609017 -0.0362923184
v -0.0113500805 0.00703469087 -0.036225
v -0.0112634106 0.00712137033 -0.035979145
v -0.0112527771 0.00713199426 -0.0342571352
v -0.0112634106 0.00712137033 -0.0342208549
v -0.0113500805 0.00703469087 -0.033975
v -0.0113786812 0.00700609017 0.0142076826
v -0.0113500805 0.00703469087 0.0142749977
v -0.0112634106 0.00712137033 0.0145208549
v -0.0112527771 0.00713199426 0.0162428665
v -0.0112634106 0.00712137033 0.0162791443
v -0.0113500805 0.00703469087 0.0165250015
v -0.0114721508 0.0168121176 -0.00466287613
v -0.0113032551 0.0169810181 -0.0044588685
v -0.0113032551 0.0169810181 0.0044588685
v -0.0113587112 0.0169255571 0.00452825785
v -0.011064827 0.00449152757 -0.0373222987
v -0.011230442 0.00432590295 -0.0328530836
v -0.011064827 0.00449152757 0.0131777
v -0.011230442 0.00432590295 0.0176469183
v -0.0110101337 0.00454621125 -0.0373086612
v -0.0110374374 0.00451891709 -0.0328841825
v -0.0110101337 0.00454621125 0.0131913376
v -0.0110374374 0.00451891709 0.017615819
v -0.0112426014 0.00714216996 -0.0359063279
v -0.0111985607 0.00718621064 -0.0357201841
v -0.0111611004 0.00722367097 -0.0354907084
v -0.0111391086 0.0072456627 -0.0352177559
v -0.0111391086 0.0072456627 -0.0349822441
v -0.0111565227 0.00722825814 -0.0347480224
v -0.0111985607 0.00718621064 -0.034479816
v -0.0112426014 0.00714216996 0.0145936728
v -0.0111985607 0.00718621064 0.0147798157
v -0.0111611004 0.00722367097 0.0150092936
v -0.0111391086 0.0072456627 0.0152822447
v -0.0111391086 0.0072456627 0.0155177546
v -0.0111565227 0.00722825814 0.015751977
v -0.0111985607 0.00718621064 0.0160201836
v -0.0112486572 0.0170356112 -0.00438812256
v -0.0111421318 0.0171421366 -0.00424263954
v -0.0110392685 0.0172450047 0.00409198999
v -0.0111949463 0.0170893221 0.00431603909
v -0.0108485527 0.00470780183 -0.0372516857
v -0.0108220692 0.00473428536 -0.0372398771
v -0.0109829254 0.00457342912 -0.0328991678
v -0.0108485527 0.00470780183 0.0132483149
v -0.0108220692 0.00473428536 0.0132601213
v -0.0109829254 0.00457342912 0.017600832
v -0.0107695599 0.00478679467 -0.0372143084
v -0.0107957287 0.00476061631 -0.0329725832
v -0.0107695599 0.00478679467 0.0132856894
v -0.0107957287 0.00476061631 0.0175274181
v -0.0109892387 0.0172950344 -0.00401478291
v -0.0109401722 0.0173440962 -0.00393635511
v -0.0107988853 0.017485383 -0.00369396925
v -0.0107988853 0.017485383 0.00369396925
v -0.010844986 0.0174392872 0.00377592325
v -0.0109892387 0.0172950344 0.00401478291
v -0.0107538147 0.0175304585 -0.00361088991
v -0.0107538147 0.0175304585 0.00361088991
v -0.0105667801 0.00498956491 -0.0370866321
v -0.0107177086 0.00483863641 -0.0330138363
v -0.0107435532 0.00481280137 -0.032999444
v -0.0105667801 0.00498956491 0.0134133673
v -0.0107177086 0.00483863641 0.0174861622
v -0.0107435532 0.00481280137 0.0175005579
v -0.0105182094 0.00503813554 -0.0370485571
v -0.0105423851 0.00501396943 -0.0331321056
v -0.0105182094 0.00503813554 0.0134514427
v -0.0105423851 0.00501396943 0.0173678923
v -0.0107097645 0.0175745039 -0.00352671146
v -0.0106667633 0.0176175051 -0.00344145775
v -0.0105441685 0.0177400999 -0.00317951441
v -0.0105441685 0.0177400999 0.00317951441
v -0.0105839558 0.0177003126 0.00326783419
v -0.0107097645 0.0175745039 0.00352671146
v -0.0105054874 0.0177787905 -0.00309022903
v -0.0105054874 0.0177787905 0.00309022903
v -0.0104706116 0.00508573342 -0.0370081082
v -0.0103124638 0.00524388124 -0.0368485785
v -0.0104011555 0.00515519906 -0.0332569079
v -0.0104942913 0.00506206323 -0.0331713736
v -0.0104706116 0.00508573342 0.0134918928
v -0.0103124638 0.00524388124 0.0136514235
v -0.0104011555 0.00515519906 0.0172430944
v -0.0104942913 0.00506206323 0.0173286247
v -0.0102699203 0.00528642465 -0.0367980966
v -0.0102910442 0.0052653103 -0.0333764
v -0.0102699203 0.00528642465 0.0137019014
v -0.0102910442 0.0052653103 0.0171235991
v -0.0104679031 0.01781637 -0.00299999952
v -0.0103619118 0.0179223566 -0.00272394419
v -0.0102969952 0.0179872732 0.00253571033
v -0.0103961105 0.0178881626 0.00281682968
v -0.0102662868 0.0180179815 -0.0024404192
v -0.0102662868 0.0180179815 0.0024404192
v -0.0102491302 0.00530722428 -0.0367720759
v -0.0100772781 0.0054790764 -0.0365159708
v -0.010059988 0.00549635697 -0.0364852384
v -0.0101887054 0.00536763955 -0.0335090098
v -0.0102491302 0.00530722428 -0.0334279242
v -0.0102491302 0.00530722428 0.0137279224
v -0.0100772781 0.0054790764 0.0139840269
v -0.010059988 0.00549635697 0.0140147638
v -0.0101887054 0.00536763955 0.0169909906
v -0.0102491302 0.00530722428 0.0170720768
v -0.0100104446 0.00554590035 -0.036390547
v -0.0100265713 0.00552978326 -0.0337774832
v -0.0100430889 0.00551326562 -0.0337459162
v -0.0100104446 0.00554590035 0.0141094542
v -0.0100265713 0.00552978326 0.016722517
v -0.0100430889 0.00551326562 0.0167540836
v -0.0102367611 0.0180475073 -0.00234438658
v -0.0102084274 0.0180758457 -0.0022476387
v -0.0101306362 0.0181536322 -0.00195340872
v -0.0100638504 0.0182204228 -0.00165382385
v -0.0100440617 0.0182402115 0.00155291319
v -0.0100848789 0.0181993942 0.00175422907
v -0.0101553554 0.0181289129 0.00205212116
v -0.0102367611 0.0180475073 0.00234438658
v -0.0100255222 0.0182587509 -0.00145153046
v -0.0100082321 0.0182760363 0.00134970665
v -0.00994996261 0.00560638238 -0.0362588356
v -0.00986026954 0.00569608499 -0.0360151575
v -0.00980940055 0.00574695397 -0.0358325283
v -0.00983856391 0.00571778108 -0.0342571352
v -0.00992220115 0.00563415338 -0.0340091784
v -0.00999471854 0.00556163598 -0.033841816
v -0.00994996261 0.00560638238 0.0142411661
v -0.00986026954 0.00569608499 0.0144848442
v -0.00980940055 0.00574695397 0.0146674728
v -0.00983856391 0.00571778108 0.0162428665
v -0.00992220115 0.00563415338 0.0164908218
v -0.00999471854 0.00556163598 0.0166581821
v -0.00979223441 0.00576411058 -0.0357578363
v -0.00975195121 0.00580440331 -0.0355293202
v -0.00977692794 0.00577941705 -0.0345176572
v -0.0098005886 0.00575576592 -0.0344047118
v -0.00979223441 0.00576411058 0.0147421646
v -0.00975195121 0.00580440331 0.0149706793
v -0.00977692794 0.00577941705 0.0159823418
v -0.0098005886 0.00575576592 0.0160952902
v -0.00999221038 0.0182920628 -0.00124747038
v -0.0099517269 0.0183325415 -0.000938606262
v -0.009931118 0.0183531504 -0.000731215477
v -0.00990983199 0.0183744412 -0.000418539047
v -0.00990207862 0.0183821898 -0.000209395885
v -0.00989949416 0.0183847742 0
v -0.00990531157 0.0183789616 0.000314016342
v -0.00991563987 0.0183686333 0.00052293539
v -0.00994078826 0.0183434849 0.000835039616
v -0.00996395301 0.0183203201 0.00104188919
v -0.00972659301 0.00582975198 -0.0352569521
v -0.0097236843 0.00583266068 -0.0350214761
v -0.00973819922 0.00581814576 -0.0347868605
v -0.0097468872 0.00580945779 -0.0347092916
v -0.00972659301 0.00582975198 0.0152430487
v -0.0097236843 0.00583266068 0.0154785252
v -0.00973819922 0.00581814576 0.0157131386
v -0.0097468872 0.00580945779 0.0157907104
v -0.00717832755 0.0112064486 -0.0357578363
v -0.00721861075 0.0111661606 -0.0355293202
v -0.00724396895 0.0111408072 -0.0352569521
v -0.00724687766 0.0111379032 -0.0350214761
v -0.00723236274 0.0111524134 -0.0347868605
v -0.00719363402 0.0111911421 -0.0345176572
v -0.00714217376 0.0112426024 -0.0342936721
v -0.00717832755 0.0112064486 0.0147421646
v -0.00721861075 0.0111661606 0.0149706793
v -0.00724396895 0.0111408072 0.0152430487
v -0.00724687766 0.0111379032 0.0154785252
v -0.00723236274 0.0111524134 0.0157131386
v -0.00719363402 0.0111911421 0.0159823418
v -0.00714217376 0.0112426024 0.0162063265
v -0.00702059936 0.0113641768 -0.0362588356
v -0.00711029242 0.0112744789 -0.0360151575
v -0.00713199805 0.0112527828 -0.0359428649
v -0.00713199805 0.0112527828 -0.0342571352
v -0.00704837035 0.0113364105 -0.0340091784
v -0.00700609397 0.0113786869 -0.0339076816
v -0.00702059936 0.0113641768 0.0142411661
v -0.00711029242 0.0112744789 0.0144848442
v -0.00713199805 0.0112527828 0.0145571375
v -0.00713199805 0.0112527828 0.0162428665
v -0.00704837035 0.0113364105 0.0164908218
v -0.00700609397 0.0113786869 0.0165923166
v -0.0070710678 0.0212132053 -0.0300999999
v -0.0070710678 0.0212132053 0.0103999996
v -0.00689328383 0.0114914923 -0.0365159708
v -0.00699116897 0.0113936071 -0.0363254379
v -0.0069439907 0.0114407854 -0.0337774832
v -0.00689328383 0.0114914923 -0.0336840291
v -0.00689328383 0.0114914923 0.0139840269
v -0.00699116897 0.0113936071 0.0141745615
v -0.0069439907 0.0114407854 0.016722517
v -0.00689328383 0.0114914923 0.0168159723
v -0.00687562179 0.0115091543 -0.0365462722
v -0.00678185653 0.0116029244 -0.0335090098
v -0.00676204871 0.0116227274 -0.0334814854
v -0.00687562179 0.0115091543 0.0139537287
v -0.00678185653 0.0116029244 0.0169909906
v -0.00676204871 0.0116227274 0.0170185137
v -0.00672143172 0.0116633396 -0.0367720759
v -0.00674190711 0.011642869 -0.0367455459
v -0.00663636397 0.0117484121 -0.0333269759
v -0.00672143172 0.0116633396 0.0137279224
v -0.00674190711 0.011642869 0.0137544537
v -0.00663636397 0.0117484121 0.0171730232
v -0.0066143341 0.011770442 -0.0368969299
v -0.0065694065 0.0118153696 -0.0332569079
v -0.00652337264 0.0118614082 -0.0332129912
v -0.0066143341 0.011770442 0.0136030722
v -0.0065694065 0.0118153696 0.0172430944
v -0.00652337264 0.0118614082 0.0172870111
v -0.0064999504 0.0118848257 -0.0370081082
v -0.00640378188 0.011980999 -0.0331133679
v -0.0064999504 0.0118848257 0.0134918928
v -0.00640378188 0.011980999 0.017386632
v -0.00637914847 0.0120056276 -0.0371047647
v -0.00625285338 0.0121319275 -0.0330138363
v -0.00637914847 0.0120056276 0.0133952332
v -0.00625285338 0.0121319275 0.0174861622
v -0.00622701835 0.0121577625 -0.037200556
v -0.0061484928 0.0122362785 -0.0329601228
v -0.00622701835 0.0121577625 0.0132994461
v -0.0061484928 0.0122362785 0.0175398779
v -0.0061220188 0.0122627621 -0.0372516857
v -0.00601474952 0.0123700266 -0.0329076673
v -0.0061220188 0.0122627621 0.0132483149
v -0.00601474952 0.0123700266 0.0175923347
v -0.00580946158 0.00974689294 -0.0354907084
v -0.00583145331 0.00972490121 -0.0352177559
v -0.00583145331 0.00972490121 -0.0349822441
v -0.00581403922 0.00974230577 -0.0347480224
v -0.00580946158 0.00974689294 0.0150092936
v -0.00583145331 0.00972490121 0.0152822447
v -0.00583145331 0.00972490121 0.0155177546
v -0.00581403922 0.00974230577 0.015751977
v -0.00575576018 0.0098005848 -0.0357952882
v -0.00577200126 0.00978435327 -0.0357201841
v -0.00580439757 0.00975194741 -0.0346706798
v -0.00577200126 0.00978435327 -0.034479816
v -0.00575576018 0.0098005848 0.0147047138
v -0.00577200126 0.00978435327 0.0147798157
v -0.00580439757 0.00975194741 0.01582932
v -0.00577200126 0.00978435327 0.0160201836
v -0.00598763656 0.0123971348 -0.0373008321
v -0.00590574454 0.0124790363 -0.0328777012
v -0.00598763656 0.0123971348 0.0131991673
v -0.00590574454 0.0124790363 0.0176222992
v -0.00587827872 0.0125064974 -0.0373281032
v -0.0057678337 0.0126169424 -0.0328554809
v -0.00587827872 0.0125064974 0.0131718969
v -0.0057678337 0.0126169424 0.0176445198
v -0.00556163024 0.00999471475 -0.0363581841
v -0.00562048148 0.00993587304 -0.036225
v -0.0057071514 0.00984919358 -0.035979145
v -0.00574694823 0.00980939675 -0.0343674716
v -0.0057071514 0.00984919358 -0.0342208549
v -0.00562048148 0.00993587304 -0.033975
v -0.00556163024 0.00999471475 0.0141418171
v -0.00562048148 0.00993587304 0.0142749977
v -0.0057071514 0.00984919358 0.0145208549
v -0.00574694823 0.00980939675 0.0161325264
v -0.0057071514 0.00984919358 0.0162791443
v -0.00562048148 0.00993587304 0.0165250015
v -0.00551325988 0.0100430851 -0.0364540838
v -0.00554590415 0.0100104408 -0.033809453
v -0.00551325988 0.0100430851 -0.0337459162
v -0.00551325988 0.0100430851 0.0140459156
v -0.00554590415 0.0100104408 0.0166905451
v -0.00551325988 0.0100430851 0.0167540836
v -0.00574011992 0.0126446562 -0.0373469165
v -0.00565685462 0.0127279215 -0.03285
v -0.00574011992 0.0126446562 0.0131530857
v -0.00565685462 0.0127279215 0.0176499987
v -0.00562908362 0.0127556877 -0.0373496573
v -0.00551819037 0.0128665857 -0.0328585619
v -0.00562908362 0.0127556877 0.0131503439
v -0.00551819037 0.0128665857 0.0176414394
v -0.00530721854 0.0102491264 -0.0367720759
v -0.00532769393 0.0102286511 -0.0367455459
v -0.00549636077 0.0100599938 -0.0364852384
v -0.00549636077 0.0100599938 -0.0337147617
v -0.00534783553 0.0102085095 -0.0334814854
v -0.00530721854 0.0102491264 0.0137279224
v -0.00532769393 0.0102286511 0.0137544537
v -0.00549636077 0.0100599938 0.0140147638
v -0.00549636077 0.0100599938 0.0167852402
v -0.00534783553 0.0102085095 0.0170185137
v -0.00526531409 0.0102910404 -0.0368235999
v -0.00528642844 0.0102699261 -0.0334019035
v -0.00526531409 0.0102910404 0.0136764002
v -0.00528642844 0.0102699261 0.0170980978
v -0.00549055289 0.012894228 -0.0373376742
v -0.0054079647 0.0129768067 -0.0328777012
v -0.00549055289 0.012894228 0.0131623268
v -0.0054079647 0.0129768067 0.0176222992
v -0.00538058471 0.0130041962 -0.0373158175
v -0.0052719612 0.0131128197 -0.0329168347
v -0.00538058471 0.0130041962 0.0131841803
v -0.0052719612 0.0131128197 0.0175831652
v -0.00506205749 0.0104942875 -0.0370286264
v -0.00510915946 0.0104471951 -0.0369870088
v -0.00524388503 0.0103124695 -0.0333514217
v -0.00513231467 0.0104240399 -0.0332346654
v -0.00506205749 0.0104942875 0.0134713745
v -0.00510915946 0.0104471951 0.0135129929
v -0.00524388503 0.0103124695 0.0171485806
v -0.00513231467 0.0104240399 0.0172653341
v -0.00501396369 0.0105423813 -0.0370678943
v -0.00503813933 0.0105182152 -0.0331514429
v -0.00501396369 0.0105423813 0.013432107
v -0.00503813933 0.0105182152 0.0173485565
v -0.00524507712 0.013139699 -0.0372733331
v -0.0051652069 0.0132195644 -0.0372398771
v -0.00513887595 0.0132459002 -0.0329725832
v -0.00524507712 0.013139699 0.0132266665
v -0.0051652069 0.0132195644 0.0132601213
v -0.00513887595 0.0132459002 0.0175274181
v -0.00511270713 0.0132720738 -0.0372143084
v -0.00500973891 0.0133750372 -0.0330445227
v -0.00508669089 0.0132980805 -0.032999444
v -0.00511270713 0.0132720738 0.0132856894
v -0.00500973891 0.0133750372 0.0174554777
v -0.00508669089 0.0132980805 0.0175005579
v -0.00481280517 0.0107435494 -0.037200556
v -0.0049895687 0.0105667858 -0.0331133679
v -0.00481280517 0.0107435494 -0.032999444
v -0.00481280517 0.0107435494 0.0132994461
v -0.0049895687 0.0105667858 0.017386632
v -0.00481280517 0.0107435494 0.0175005579
v -0.00476062011 0.0107957344 -0.0372274168
v -0.00478678893 0.0107695561 -0.0329856916
v -0.00476062011 0.0107957344 0.0132725811
v -0.00478678893 0.0107695561 0.0175143099
v -0.00498447608 0.0134003048 -0.0371391925
v -0.00488552283 0.0134992485 -0.0331321056
v -0.00498447608 0.0134003048 0.0133608055
v -0.00488552283 0.0134992485 0.0173678923
v -0.00486135673 0.0135234194 -0.0370485571
v -0.0047903366 0.0135944395 -0.0369870088
v -0.00476718139 0.0136175947 -0.0332346654
v -0.00486135673 0.0135234194 0.0134514427
v -0.0047903366 0.0135944395 0.0135129929
v -0.00476718139 0.0136175947 0.0172653341
v -0.00457342338 0.0109829216 -0.0373008321
v -0.00473427962 0.0108220654 -0.0372398771
v -0.00473427962 0.0108220654 -0.0329601228
v -0.00457342338 0.0109829216 0.0131991673
v -0.00473427962 0.0108220654 0.0132601213
v -0.00473427962 0.0108220654 0.0175398779
v -0.00451891135 0.0110374336 -0.0373158175
v -0.00454621505 0.0110101347 -0.0328913388
v -0.00451891135 0.0110374336 0.0131841803
v -0.00454621505 0.0110101347 0.0176086617
v -0.00474430274 0.0136404781 -0.036943092
v -0.00465561103 0.0137291651 -0.0333514217
v -0.00474430274 0.0136404781 0.0135569096
v -0.00465561103 0.0137291651 0.0171485806
v -0.00463418197 0.0137505894 -0.0368235999
v -0.00457180213 0.013812974 -0.0367455459
v -0.00451238822 0.0138723831 -0.0335370186
v -0.00455166053 0.0138331156 -0.0334814854
v -0.00463418197 0.0137505894 0.0136764002
v -0.00457180213 0.013812974 0.0137544537
v -0.00451238822 0.0138723831 0.0169629812
v -0.00455166053 0.0138331156 0.0170185137
v -0.00432590674 0.011230443 -0.0373469165
v -0.00449152183 0.0110648232 -0.0328777012
v -0.00432590674 0.011230443 0.0131530857
v -0.00449152183 0.0110648232 0.0176222992
v -0.0042704029 0.0112859421 -0.0373496573
v -0.00429816436 0.0112581854 -0.0328513706
v -0.0042704029 0.0112859421 0.0131503439
v -0.00429816436 0.0112581854 0.0176486301
v -0.00449327659 0.0138914995 -0.0366344963
v -0.00440313529 0.0139816408 -0.0364852384
v -0.00438623618 0.0139985447 -0.0337459162
v -0.00449327659 0.0138914995 0.0138655043
v -0.00440313529 0.0139816408 0.0140147638
v -0.00438623618 0.0139985447 0.0167540836
v -0.00436971854 0.0140150623 -0.0364225169
v -0.00427901458 0.0141057615 -0.036225
v -0.00425209235 0.0141326838 -0.034043689
v -0.00427901458 0.0141057615 -0.033975
v -0.00436971854 0.0140150623 0.0140774822
v -0.00427901458 0.0141057615 0.0142749977
v -0.00425209235 0.0141326838 0.0164563131
v -0.00427901458 0.0141057615 0.0165250015
v -0.00407633971 0.01148001 -0.0373376742
v -0.00424264144 0.0113137083 -0.03285
v -0.00407633971 0.01148001 0.0131623268
v -0.00424264144 0.0113137083 0.0176499987
v -0.00402121734 0.0115351324 -0.0373281032
v -0.00404874991 0.0115075998 -0.0328667712
v -0.00402121734 0.0115351324 0.0131718969
v -0.00404874991 0.0115075998 0.0176332283
v -0.00423927497 0.0141455059 -0.0361214786
v -0.00419234466 0.0141924362 -0.035979145
v -0.00413538169 0.0142493944 -0.0344421637
v -0.00419234466 0.0141924362 -0.0342208549
v -0.00423927497 0.0141455059 0.0143785191
v -0.00419234466 0.0141924362 0.0145208549
v -0.00413538169 0.0142493944 0.0160578346
v -0.00419234466 0.0141924362 0.0162791443
v -0.0041274948 0.0142572813 -0.0357201841
v -0.00409003447 0.0142947416 -0.0354907084
v -0.00406804275 0.0143167334 -0.0352177559
v -0.00406804275 0.0143167334 -0.0349822441
v -0.0040854473 0.014299324 -0.0347480224
v -0.0041274948 0.0142572813 -0.034479816
v -0.0041274948 0.0142572813 0.0147798157
v -0.00409003447 0.0142947416 0.0150092936
v -0.00406804275 0.0143167334 0.0152822447
v -0.00406804275 0.0143167334 0.0155177546
v -0.0040854473 0.014299324 0.015751977
v -0.0041274948 0.0142572813 0.0160201836
v -0.00383086394 0.0117254858 -0.0372733331
v -0.00399375152 0.0115625935 -0.0328777012
v -0.00383086394 0.0117254858 0.0132266665
v -0.00399375152 0.0115625935 0.0176222992
v -0.00377747725 0.0117788677 -0.0372516857
v -0.00375099372 0.0118053513 -0.0372398771
v -0.00380410384 0.0117522459 -0.0329371612
v -0.00377747725 0.0117788677 0.0132483149
v -0.00375099372 0.0118053513 0.0132601213
v -0.00380410384 0.0117522459 0.0175628376
v -0.0035702629 0.0119860916 -0.0371391925
v -0.00364664267 0.0119097023 -0.0330138363
v -0.00372466277 0.0118316822 -0.0329725832
v -0.0035702629 0.0119860916 0.0133608055
v -0.00364664267 0.0119097023 0.0174861622
v -0.00372466277 0.0118316822 0.0175274181
v -0.00352034759 0.0120360022 -0.0371047647
v -0.00354520034 0.0120111542 -0.0330777134
v -0.00352034759 0.0120360022 0.0133952332
v -0.00354520034 0.0120111542 0.0174222851
v -0.00339954566 0.0121568041 -0.0370081082
v -0.00330747794 0.012248867 -0.0369202882
v -0.00333008956 0.012226265 -0.0332569079
v -0.00349571418 0.0120606308 -0.0331133679
v -0.00339954566 0.0121568041 0.0134918928
v -0.00330747794 0.012248867 0.0135797119
v -0.00333008956 0.012226265 0.0172430944
v -0.00349571418 0.0120606308 0.017386632
v -0.00326313209 0.0122932177 -0.0368730243
v -0.00328516196 0.0122711926 -0.0333030701
v -0.00326313209 0.0122932177 0.013626976
v -0.00328516196 0.0122711926 0.0171969318
v -0.00317806434 0.0123782902 -0.0367720759
v -0.00306030463 0.0124960451 -0.0366055438
v -0.00311763953 0.0124387102 -0.0335090098
v -0.00324139785 0.0123149519 -0.0333514217
v -0.00317806434 0.0123782902 0.0137279224
v -0.00306030463 0.0124960451 0.0138944578
v -0.00311763953 0.0124387102 0.0169909906
v -0.00324139785 0.0123149519 0.0171485806
v -0.00300621222 0.0125501423 -0.0365159708
v -0.00304190825 0.0125144463 -0.0336238672
v -0.00300621222 0.0125501423 0.0139840269
v -0.00304190825 0.0125144463 0.0168761349
v -0.0028788967 0.0126774531 -0.0362588356
v -0.00281266402 0.012743681 -0.0360863351
v -0.00285112571 0.0127052193 -0.0340091784
v -0.00295550536 0.0126008444 -0.0337774832
v -0.00298892211 0.0125674276 -0.0337147617
v -0.0028788967 0.0126774531 0.0142411661
v -0.00281266402 0.012743681 0.0144136667
v -0.00285112571 0.0127052193 0.0164908218
v -0.00295550536 0.0126008444 0.016722517
v -0.00298892211 0.0125674276 0.0167852402
v -0.0027891941 0.0127671509 -0.0360151575
v -0.0027573223 0.0127990275 -0.0359063279
v -0.00276749801 0.012788847 -0.0342571352
v -0.00280071448 0.0127556353 -0.0341491089
v -0.0027891941 0.0127671509 0.0144848442
v -0.0027573223 0.0127990275 0.0145936728
v -0.00276749801 0.012788847 0.0162428665
v -0.00280071448 0.0127556353 0.0163508892
v -0.00272116851 0.0128351812 -0.0357578363
v -0.00268088531 0.0128754692 -0.0355293202
v -0.0026555271 0.0129008226 -0.0352569521
v -0.0026526184 0.0129037314 -0.0350214761
v -0.00266713332 0.0128892164 -0.0347868605
v -0.00270586204 0.0128504877 -0.0345176572
v -0.00274759482 0.0128087502 -0.0343304547
v -0.00272116851 0.0128351812 0.0147421646
v -0.00268088531 0.0128754692 0.0149706793
v -0.0026555271 0.0129008226 0.0152430487
v -0.0026526184 0.0129037314 0.0154785252
v -0.00266713332 0.0128892164 0.0157131386
v -0.00270586204 0.0128504877 0.0159823418
v -0.00274759482 0.0128087502 0.0161695433
v -0.0021213169 0.0162634544 -0.0375999999
v -0.0021213169 0.0162634544 -0.0300999999
v -0.0021213169 0.0162634544 0.0103999996
v -0.0021213169 0.0162634544 0.0178999996
v -0.000707103719 0.0148492413 -0.0375999999
v -0.000707103719 0.0148492413 -0.0300999999
v -0.000707103719 0.0148492413 0.0103999996
v -0.000707103719 0.0148492413 0.0178999996
v 0.00431335259 -0.0184554882 -0.0300999999
v 0.00431335259 -0.0184554882 0.0103999996
v 0.0184554892 -0.00431334685 -0.0300999999
v 0.0184554892 -0.00431334685 0.0103999996
f 105 1 2
f 2 1 266
f 115 1 105
f 126 1 115
f 123 1 124
f 131 1 123
f 124 1 125
f 125 1 126
f 154 1 131
f 153 1 154
f 157 1 153
f 177 1 157
f 175 1 176
f 181 1 175
f 176 1 177
f 199 1 181
f 197 1 198
f 216 1 197
f 198 1 199
f 215 1 216
f 230 1 215
f 229 1 230
f 233 1 229
f 249 1 233
f 251 1 249
f 269 1 251
f 266 1 1210
f 271 1 269
f 290 1 271
f 289 1 290
f 293 1 289
f 300 1 293
f 299 1 300
f 307 1 299
f 309 1 307
f 316 1 309
f 315 1 316
f 325 1 315
f 327 1 325
f 337 1 327
f 349 1 337
f 351 1 349
f 373 1 351
f 403 1 373
f 403 901 1
f 1210 1 901
f 105 2 106
f 106 2 107
f 107 2 108
f 108 2 109
f 109 2 110
f 110 2 111
f 111 2 112
f 112 2 113
f 113 2 114
f 114 2 116
f 116 2 127
f 127 2 128
f 128 2 129
f 129 2 130
f 130 2 132
f 132 2 155
f 155 2 156
f 156 2 158
f 158 2 178
f 178 2 179
f 179 2 180
f 180 2 182
f 182 2 200
f 200 2 201
f 201 2 202
f 202 2 217
f 217 2 218
f 218 2 231
f 231 2 232
f 232 2 234
f 234 2 250
f 250 2 252
f 252 2 270
f 2 266 267
f 267 902 2
f 270 2 272
f 272 2 291
f 291 2 292
f 292 2 294
f 294 2 301
f 301 2 302
f 302 2 308
f 308 2 310
f 310 2 317
f 317 2 318
f 318 2 326
f 326 2 328
f 328 2 338
f 338 2 350
f 350 2 352
f 352 2 374
f 374 2 404
f 404 2 902
f 4 21 3
f 3 140 4
f 21 139 3
f 3 139 140
f 22 21 4
f 4 141 22
f 4 140 141
f 5 115 6
f 138 5 6
f 33 115 5
f 138 33 5
f 6 105 7
f 138 6 7
f 6 115 105
f 7 106 8
f 139 7 8
f 7 105 106
f 138 7 139
f 8 107 9
f 139 8 9
f 8 106 107
f 9 108 10
f 140 9 10
f 9 107 108
f 139 9 140
f 10 109 11
f 140 10 11
f 10 108 109
f 11 110 12
f 141 11 12
f 11 109 110
f 140 11 141
f 12 111 13
f 142 12 13
f 12 110 111
f 141 12 142
f 13 112 14
f 142 13 14
f 13 111 112
f 14 113 15
f 143 14 15
f 14 112 113
f 142 14 143
f 15 114 16
f 143 15 16
f 15 113 114
f 16 116 34
f 143 16 34
f 16 114 116
f 25 17 18
f 17 135 18
f 26 17 25
f 26 27 17
f 27 159 17
f 17 159 135
f 24 18 19
f 18 136 19
f 25 18 24
f 18 135 136
f 23 19 20
f 19 137 20
f 24 19 23
f 19 136 137
f 22 20 21
f 20 138 21
f 23 20 22
f 20 137 138
f 21 138 139
f 22 142 23
f 22 141 142
f 23 143 24
f 23 142 143
f 24 144 25
f 24 143 144
f 25 145 26
f 25 144 145
f 28 27 26
f 26 146 28
f 26 145 146
f 28 41 27
f 41 165 27
f 27 165 159
f 42 41 28
f 28 160 42
f 28 146 160
f 29 123 30
f 136 29 30
f 47 131 29
f 136 47 29
f 29 131 123
f 30 124 31
f 136 30 31
f 30 123 124
f 31 125 32
f 137 31 32
f 31 124 125
f 136 31 137
f 32 126 33
f 137 32 33
f 32 125 126
f 33 126 115
f 137 33 138
f 34 116 35
f 144 34 35
f 143 34 144
f 35 127 36
f 144 35 36
f 35 116 127
f 36 128 37
f 145 36 37
f 36 127 128
f 144 36 145
f 37 129 38
f 191 37 38
f 37 128 129
f 145 37 146
f 146 37 160
f 160 37 166
f 166 37 167
f 167 37 168
f 168 37 184
f 184 37 189
f 189 37 190
f 190 37 191
f 38 130 48
f 207 38 48
f 38 129 130
f 191 38 207
f 43 39 40
f 39 163 40
f 44 39 43
f 44 45 39
f 45 183 39
f 39 183 163
f 42 40 41
f 40 164 41
f 43 40 42
f 40 163 164
f 41 164 165
f 42 166 43
f 42 160 166
f 43 167 44
f 43 166 167
f 46 45 44
f 44 168 46
f 44 167 168
f 46 57 45
f 57 188 45
f 45 188 183
f 58 57 46
f 46 184 58
f 46 168 184
f 135 51 47
f 51 154 47
f 47 154 131
f 135 47 136
f 48 132 52
f 207 48 52
f 48 130 132
f 49 157 50
f 164 49 50
f 164 63 49
f 63 177 49
f 49 177 157
f 50 153 51
f 159 50 51
f 50 157 153
f 165 50 159
f 164 50 165
f 159 51 135
f 51 153 154
f 52 155 53
f 238 52 53
f 52 132 155
f 207 52 208
f 208 52 220
f 220 52 223
f 223 52 238
f 53 156 54
f 54 598 53
f 53 155 156
f 238 53 239
f 239 53 255
f 255 53 275
f 275 53 297
f 53 598 297
f 54 158 64
f 64 564 54
f 54 156 158
f 54 564 598
f 59 55 56
f 55 186 56
f 60 55 59
f 60 68 55
f 68 206 55
f 55 206 186
f 58 56 57
f 56 187 57
f 59 56 58
f 56 186 187
f 57 187 188
f 58 189 59
f 58 184 189
f 59 190 60
f 59 189 190
f 69 68 60
f 60 191 69
f 60 190 191
f 163 61 62
f 61 175 62
f 163 75 61
f 75 199 61
f 61 181 175
f 61 199 181
f 164 62 63
f 62 176 63
f 163 62 164
f 62 175 176
f 63 176 177
f 64 178 65
f 65 565 64
f 64 158 178
f 64 565 564
f 65 179 66
f 66 566 65
f 65 178 179
f 65 566 565
f 66 182 76
f 76 534 66
f 66 179 180
f 66 180 182
f 66 534 566
f 69 67 68
f 67 205 68
f 70 67 69
f 70 71 67
f 71 219 67
f 67 219 205
f 68 205 206
f 69 207 70
f 69 191 207
f 72 71 70
f 70 208 72
f 70 207 208
f 72 79 71
f 79 222 71
f 71 222 219
f 80 79 72
f 72 220 80
f 72 208 220
f 187 73 74
f 73 197 74
f 187 82 73
f 82 216 73
f 73 216 197
f 163 74 75
f 74 198 75
f 183 74 163
f 188 74 183
f 187 74 188
f 74 197 198
f 75 198 199
f 76 200 77
f 77 535 76
f 76 182 200
f 76 535 534
f 77 201 78
f 78 536 77
f 77 200 201
f 77 536 535
f 78 202 83
f 83 493 78
f 78 201 202
f 78 493 536
f 80 86 79
f 86 237 79
f 79 237 222
f 87 86 80
f 80 223 87
f 80 220 223
f 187 81 82
f 81 215 82
f 187 92 81
f 92 230 81
f 81 230 215
f 82 215 216
f 83 217 84
f 84 494 83
f 83 202 217
f 83 494 493
f 84 218 93
f 93 477 84
f 84 217 218
f 84 477 494
f 87 85 86
f 85 236 86
f 88 85 87
f 88 89 85
f 89 254 85
f 85 254 236
f 86 236 237
f 87 238 88
f 87 223 238
f 90 89 88
f 88 239 90
f 88 238 239
f 90 95 89
f 95 254 89
f 96 95 90
f 90 255 96
f 90 239 255
f 186 91 92
f 91 229 92
f 206 100 91
f 100 233 91
f 206 91 186
f 91 233 229
f 186 92 187
f 92 229 230
f 93 231 94
f 94 478 93
f 93 218 231
f 93 478 477
f 94 232 101
f 101 459 94
f 94 231 232
f 94 459 478
f 96 97 95
f 97 274 95
f 95 274 254
f 98 97 96
f 96 255 98
f 98 103 97
f 103 274 97
f 104 103 98
f 98 275 104
f 98 255 275
f 206 99 100
f 99 249 100
f 206 117 99
f 117 251 99
f 99 251 249
f 100 249 233
f 101 234 102
f 102 460 101
f 101 232 234
f 101 460 459
f 102 250 118
f 118 456 102
f 102 234 250
f 102 456 460
f 104 121 103
f 121 296 103
f 103 296 274
f 122 121 104
f 104 275 122
f 205 119 117
f 119 269 117
f 205 117 206
f 117 269 251
f 118 252 120
f 120 442 118
f 118 250 252
f 118 442 456
f 222 134 119
f 134 271 119
f 219 119 205
f 222 119 219
f 119 271 269
f 120 270 147
f 147 421 120
f 120 252 270
f 120 421 442
f 122 149 121
f 149 304 121
f 121 304 296
f 150 149 122
f 122 297 150
f 122 275 297
f 222 133 134
f 133 289 134
f 222 162 133
f 162 293 133
f 133 293 289
f 134 290 271
f 134 289 290
f 147 291 148
f 148 422 147
f 147 270 272
f 147 272 291
f 147 422 421
f 148 292 169
f 169 385 148
f 148 291 292
f 148 385 422
f 150 151 149
f 151 304 149
f 152 151 150
f 150 305 152
f 150 297 305
f 152 171 151
f 171 312 151
f 151 312 304
f 172 171 152
f 152 305 172
f 236 161 162
f 161 299 162
f 236 185 161
f 185 307 161
f 161 307 299
f 237 162 222
f 236 162 237
f 162 300 293
f 162 299 300
f 169 301 170
f 170 386 169
f 169 292 294
f 169 294 301
f 169 386 385
f 170 302 192
f 192 360 170
f 170 301 302
f 170 360 386
f 172 173 171
f 173 312 171
f 174 173 172
f 172 313 174
f 172 305 313
f 174 193 173
f 193 320 173
f 173 320 312
f 196 193 174
f 174 313 196
f 236 204 185
f 204 316 185
f 185 309 307
f 185 316 309
f 192 310 209
f 209 347 192
f 192 302 308
f 192 308 310
f 192 347 360
f 196 194 193
f 194 321 193
f 193 321 320
f 195 194 196
f 195 211 194
f 211 330 194
f 194 330 321
f 196 323 195
f 212 211 195
f 195 322 212
f 195 323 322
f 196 313 323
f 254 203 204
f 203 315 204
f 254 221 203
f 221 325 203
f 203 325 315
f 254 204 236
f 204 315 316
f 209 317 210
f 210 348 209
f 209 310 317
f 209 348 347
f 210 318 224
f 224 332 210
f 210 317 318
f 210 332 348
f 212 213 211
f 213 339 211
f 211 339 330
f 214 213 212
f 212 331 214
f 212 322 331
f 214 225 213
f 225 343 213
f 213 343 339
f 228 225 214
f 214 340 228
f 214 331 340
f 254 235 221
f 235 337 221
f 221 327 325
f 221 337 327
f 240 324 224
f 224 328 240
f 224 318 326
f 224 324 332
f 224 326 328
f 228 226 225
f 226 344 225
f 225 344 343
f 227 226 228
f 227 241 226
f 241 354 226
f 226 354 344
f 228 346 227
f 246 241 227
f 227 345 246
f 227 346 345
f 228 340 346
f 274 253 235
f 253 349 235
f 274 235 254
f 235 349 337
f 256 314 240
f 240 338 256
f 240 314 324
f 240 328 338
f 246 242 241
f 242 355 241
f 241 355 354
f 245 243 242
f 243 356 242
f 245 242 246
f 242 356 355
f 244 243 245
f 244 247 243
f 247 375 243
f 243 375 356
f 245 358 244
f 248 247 244
f 244 357 248
f 244 358 357
f 246 359 245
f 245 359 358
f 246 345 359
f 248 257 247
f 257 379 247
f 247 379 375
f 262 257 248
f 248 376 262
f 248 357 376
f 274 273 253
f 273 351 253
f 253 351 349
f 276 306 256
f 256 350 276
f 256 306 314
f 256 338 350
f 262 258 257
f 258 380 257
f 257 380 379
f 261 259 258
f 259 381 258
f 261 258 262
f 258 381 380
f 260 259 261
f 260 263 259
f 263 405 259
f 259 405 381
f 261 383 260
f 264 263 260
f 260 382 264
f 260 383 382
f 262 384 261
f 261 384 383
f 262 376 384
f 264 277 263
f 277 409 263
f 263 409 405
f 286 277 264
f 264 406 286
f 264 382 406
f 265 333 266
f 266 363 265
f 265 1213 333
f 265 362 361
f 265 361 388
f 265 363 362
f 388 387 265
f 265 387 396
f 265 396 395
f 265 395 424
f 424 423 265
f 265 423 430
f 430 429 265
f 429 443 265
f 265 443 448
f 265 448 447
f 265 447 461
f 461 465 265
f 265 465 480
f 265 480 479
f 265 479 485
f 485 517 265
f 265 517 521
f 521 551 265
f 551 1209 265
f 1209 1213 265
f 267 266 334
f 266 333 334
f 364 363 266
f 365 364 266
f 266 366 365
f 266 389 366
f 266 390 389
f 266 397 390
f 398 397 266
f 266 425 398
f 266 431 425
f 266 432 431
f 444 432 266
f 266 449 444
f 266 462 449
f 466 462 266
f 467 466 266
f 266 481 467
f 266 486 481
f 1210 486 266
f 335 268 267
f 268 367 267
f 267 334 335
f 267 367 392
f 392 391 267
f 267 391 400
f 267 400 399
f 267 399 427
f 427 426 267
f 267 426 434
f 434 433 267
f 433 445 267
f 267 445 451
f 267 451 450
f 267 450 463
f 463 468 267
f 267 468 483
f 267 483 482
f 267 482 487
f 487 519 267
f 267 519 523
f 523 553 267
f 267 553 557
f 557 581 267
f 1211 267 581
f 1211 902 267
f 336 268 335
f 268 336 1212
f 268 368 367
f 268 369 368
f 268 370 369
f 268 371 370
f 372 371 268
f 268 393 372
f 268 394 393
f 401 394 268
f 268 402 401
f 428 402 268
f 268 435 428
f 436 435 268
f 268 446 436
f 268 452 446
f 464 452 268
f 268 469 464
f 268 470 469
f 268 484 470
f 488 484 268
f 268 520 488
f 524 520 268
f 268 554 524
f 554 268 1212
f 296 273 274
f 296 295 273
f 295 403 273
f 273 373 351
f 273 403 373
f 276 298 306
f 276 374 298
f 276 350 352
f 276 352 374
f 286 278 277
f 278 410 277
f 277 410 409
f 285 279 278
f 279 411 278
f 285 278 286
f 278 411 410
f 284 280 279
f 280 412 279
f 284 279 285
f 279 412 411
f 283 281 280
f 281 413 280
f 283 280 284
f 280 413 412
f 282 281 283
f 282 287 281
f 287 414 281
f 281 414 413
f 283 417 282
f 288 287 282
f 282 416 288
f 282 417 416
f 284 418 283
f 283 418 417
f 285 419 284
f 284 419 418
f 286 420 285
f 285 420 419
f 286 406 420
f 288 415 287
f 287 415 414
f 288 416 415
f 296 303 295
f 303 437 295
f 295 437 403
f 296 311 303
f 304 594 296
f 296 319 311
f 296 329 319
f 341 329 296
f 296 342 341
f 353 342 296
f 296 377 353
f 296 378 377
f 296 407 378
f 296 408 407
f 441 408 296
f 455 441 296
f 296 457 455
f 296 458 457
f 296 475 458
f 296 476 475
f 491 476 296
f 296 492 491
f 296 531 492
f 532 531 296
f 533 532 296
f 296 561 533
f 562 561 296
f 563 562 296
f 296 593 563
f 296 594 593
f 297 597 305
f 598 597 297
f 298 404 306
f 298 374 404
f 311 453 303
f 303 439 437
f 303 453 439
f 312 594 304
f 305 597 313
f 306 440 314
f 306 404 438
f 306 438 440
f 319 471 311
f 311 471 453
f 320 594 312
f 313 597 323
f 314 454 324
f 314 440 454
f 329 473 319
f 319 473 471
f 321 595 320
f 320 595 594
f 330 595 321
f 323 597 322
f 322 596 331
f 322 597 596
f 324 472 332
f 324 454 472
f 341 525 329
f 329 489 473
f 329 525 489
f 339 595 330
f 331 596 340
f 332 490 348
f 332 472 474
f 332 474 490
f 333 548 334
f 333 495 496
f 333 510 495
f 333 496 497
f 497 498 333
f 498 499 333
f 499 500 333
f 333 500 501
f 501 511 333
f 333 509 510
f 333 538 509
f 333 511 512
f 333 512 539
f 537 538 333
f 333 547 537
f 539 540 333
f 333 540 541
f 541 548 333
f 333 568 547
f 333 567 568
f 575 567 333
f 333 600 575
f 599 600 333
f 333 607 599
f 333 637 607
f 333 644 637
f 643 644 333
f 333 675 643
f 679 675 333
f 333 699 679
f 703 699 333
f 703 333 1213
f 335 334 1217
f 334 548 569
f 569 570 334
f 570 576 334
f 334 576 601
f 334 601 602
f 334 602 608
f 334 608 638
f 334 638 639
f 334 639 645
f 334 645 676
f 334 676 1214
f 1214 1219 334
f 334 1219 1217
f 335 503 336
f 335 502 503
f 514 502 335
f 513 514 335
f 335 543 513
f 335 542 543
f 549 542 335
f 572 549 335
f 571 572 335
f 335 577 571
f 604 577 335
f 335 603 604
f 609 603 335
f 335 640 609
f 647 640 335
f 335 646 647
f 677 646 335
f 335 681 677
f 701 681 335
f 335 705 701
f 733 705 335
f 335 737 733
f 1215 737 335
f 335 1218 1215
f 335 1217 1218
f 336 503 504
f 504 505 336
f 505 506 336
f 506 507 336
f 336 507 508
f 508 515 336
f 336 515 516
f 336 516 544
f 544 545 336
f 336 545 546
f 546 550 336
f 550 573 336
f 336 573 574
f 336 574 578
f 578 605 336
f 336 605 606
f 606 610 336
f 336 610 641
f 641 642 336
f 642 648 336
f 648 678 336
f 336 678 682
f 682 702 336
f 336 702 706
f 706 1216 336
f 1212 336 1216
f 343 595 339
f 340 596 346
f 342 526 341
f 341 526 525
f 353 529 342
f 342 529 526
f 344 625 343
f 343 625 595
f 354 628 344
f 344 627 625
f 344 628 627
f 346 596 345
f 345 636 359
f 345 596 626
f 345 626 636
f 348 528 347
f 347 527 360
f 347 528 527
f 348 490 528
f 377 587 353
f 353 559 529
f 353 587 559
f 355 628 354
f 356 629 355
f 355 629 628
f 375 629 356
f 358 635 357
f 357 634 376
f 357 635 634
f 359 635 358
f 359 636 635
f 360 560 386
f 360 527 530
f 360 530 560
f 362 497 361
f 361 496 388
f 361 497 496
f 363 498 362
f 362 498 497
f 364 499 363
f 363 499 498
f 365 500 364
f 364 500 499
f 366 501 365
f 365 501 500
f 389 501 366
f 504 367 368
f 503 392 367
f 503 367 504
f 505 368 369
f 504 368 505
f 506 369 370
f 505 369 506
f 507 370 371
f 506 370 507
f 508 371 372
f 507 371 508
f 508 372 393
f 379 629 375
f 376 634 384
f 378 588 377
f 377 588 587
f 407 619 378
f 378 591 588
f 378 619 591
f 380 629 379
f 381 631 380
f 380 630 629
f 380 631 630
f 405 631 381
f 383 633 382
f 382 632 406
f 382 633 632
f 384 634 383
f 383 634 633
f 386 590 385
f 385 592 422
f 385 590 589
f 385 589 592
f 386 560 590
f 388 510 387
f 387 538 396
f 387 510 509
f 387 509 538
f 388 496 495
f 388 495 510
f 390 512 389
f 389 511 501
f 389 512 511
f 397 539 390
f 390 539 512
f 514 391 392
f 543 400 391
f 513 391 514
f 543 391 513
f 502 392 503
f 514 392 502
f 516 393 394
f 508 393 515
f 515 393 516
f 544 394 401
f 516 394 544
f 396 538 395
f 395 537 424
f 395 538 537
f 398 540 397
f 397 540 539
f 425 541 398
f 398 541 540
f 543 399 400
f 542 427 399
f 542 399 543
f 545 401 402
f 544 401 545
f 546 402 428
f 545 402 546
f 437 901 403
f 404 902 438
f 409 663 405
f 405 663 631
f 406 632 420
f 408 620 407
f 407 620 619
f 441 659 408
f 408 623 620
f 408 659 623
f 410 664 409
f 409 664 663
f 411 665 410
f 410 665 664
f 412 666 411
f 411 666 665
f 413 667 412
f 412 667 666
f 414 668 413
f 413 668 667
f 415 669 414
f 414 669 668
f 416 669 415
f 417 671 416
f 416 670 669
f 416 671 670
f 418 671 417
f 419 673 418
f 418 672 671
f 418 673 672
f 420 673 419
f 420 632 674
f 420 674 673
f 422 622 421
f 421 624 442
f 421 622 621
f 421 621 624
f 422 592 622
f 424 537 423
f 423 568 430
f 423 537 547
f 423 547 568
f 431 569 425
f 425 548 541
f 425 569 548
f 542 426 427
f 572 434 426
f 549 426 542
f 572 426 549
f 573 428 435
f 546 428 550
f 550 428 573
f 430 568 429
f 429 567 443
f 429 568 567
f 432 570 431
f 431 570 569
f 444 570 432
f 572 433 434
f 571 445 433
f 571 433 572
f 574 435 436
f 573 435 574
f 574 436 446
f 439 901 437
f 438 902 440
f 453 901 439
f 440 902 454
f 455 661 441
f 441 661 659
f 442 660 456
f 442 624 660
f 443 600 448
f 443 567 575
f 443 575 600
f 449 602 444
f 444 576 570
f 444 601 576
f 444 602 601
f 604 451 445
f 577 445 571
f 604 445 577
f 606 446 452
f 574 446 578
f 578 446 605
f 605 446 606
f 448 600 447
f 447 599 461
f 447 600 599
f 462 602 449
f 604 450 451
f 603 463 450
f 603 450 604
f 606 452 464
f 471 901 453
f 454 902 472
f 457 695 455
f 455 695 661
f 456 662 460
f 456 660 662
f 458 697 457
f 457 697 695
f 475 727 458
f 458 727 697
f 460 696 459
f 459 698 478
f 459 696 698
f 460 662 696
f 461 637 465
f 461 599 607
f 461 607 637
f 466 638 462
f 462 608 602
f 462 638 608
f 640 468 463
f 609 463 603
f 640 463 609
f 641 464 469
f 606 464 610
f 610 464 641
f 465 637 480
f 467 639 466
f 466 639 638
f 481 639 467
f 640 483 468
f 642 469 470
f 641 469 642
f 642 470 484
f 473 901 471
f 472 902 474
f 489 901 473
f 474 902 490
f 476 728 475
f 475 728 727
f 491 753 476
f 476 753 728
f 478 730 477
f 477 729 494
f 477 730 729
f 478 698 730
f 480 644 479
f 479 675 485
f 479 644 643
f 479 643 675
f 480 637 644
f 486 676 481
f 481 645 639
f 481 676 645
f 647 482 483
f 677 487 482
f 646 482 647
f 677 482 646
f 647 483 640
f 678 484 488
f 642 484 648
f 648 484 678
f 485 675 517
f 518 676 486
f 1210 518 486
f 677 519 487
f 678 488 520
f 525 901 489
f 490 902 528
f 492 754 491
f 491 754 753
f 531 767 492
f 492 767 754
f 494 756 493
f 493 755 536
f 493 756 755
f 494 729 756
f 517 699 521
f 517 675 679
f 517 679 699
f 522 700 518
f 522 518 1210
f 518 680 676
f 518 700 680
f 701 523 519
f 681 519 677
f 701 519 681
f 702 520 524
f 678 520 682
f 682 520 702
f 521 699 551
f 552 700 522
f 1210 552 522
f 701 553 523
f 702 524 554
f 526 901 525
f 529 901 526
f 528 902 527
f 527 902 530
f 559 901 529
f 530 902 560
f 532 768 531
f 531 768 767
f 533 769 532
f 532 769 768
f 561 773 533
f 533 773 769
f 535 771 534
f 534 770 566
f 534 771 770
f 536 772 535
f 535 772 771
f 536 755 772
f 551 731 555
f 551 555 987
f 551 699 703
f 551 703 731
f 551 987 1209
f 556 732 552
f 1210 556 552
f 552 704 700
f 552 732 704
f 733 557 553
f 705 553 701
f 733 553 705
f 734 554 558
f 990 558 554
f 702 554 706
f 706 554 734
f 554 1212 990
f 555 731 579
f 965 555 579
f 987 555 965
f 580 732 556
f 580 556 1210
f 733 581 557
f 734 558 582
f 968 582 558
f 968 558 990
f 587 901 559
f 560 902 590
f 562 786 561
f 561 785 773
f 561 786 785
f 563 787 562
f 562 787 786
f 593 791 563
f 563 791 787
f 565 789 564
f 564 788 598
f 564 789 788
f 566 790 565
f 565 790 789
f 566 770 774
f 566 774 790
f 579 757 583
f 961 579 583
f 579 731 735
f 579 735 757
f 965 579 961
f 584 759 580
f 1210 584 580
f 580 736 732
f 580 759 736
f 760 585 581
f 943 581 585
f 737 581 733
f 760 581 737
f 963 581 943
f 581 963 1211
f 762 582 586
f 964 586 582
f 734 582 738
f 738 582 762
f 964 582 968
f 583 757 611
f 941 583 611
f 961 583 941
f 612 759 584
f 612 584 1210
f 760 613 585
f 939 585 613
f 943 585 939
f 762 586 614
f 614 586 964
f 588 901 587
f 591 901 588
f 590 902 589
f 589 902 592
f 619 901 591
f 592 902 622
f 594 805 593
f 593 805 791
f 595 806 594
f 594 806 805
f 625 809 595
f 595 809 806
f 597 808 596
f 596 807 626
f 596 808 807
f 598 792 597
f 597 792 808
f 598 788 792
f 611 775 615
f 937 611 615
f 611 757 758
f 611 758 763
f 611 763 775
f 941 611 937
f 616 776 612
f 1210 616 612
f 612 764 759
f 612 777 764
f 612 776 777
f 778 617 613
f 935 613 617
f 761 613 760
f 765 613 761
f 778 613 765
f 939 613 935
f 779 614 618
f 964 618 614
f 762 614 766
f 766 614 780
f 780 614 779
f 615 775 649
f 933 615 649
f 937 615 933
f 650 776 616
f 1210 650 616
f 778 651 617
f 935 617 651
f 779 618 652
f 964 652 618
f 620 901 619
f 623 901 620
f 622 902 621
f 621 902 624
f 659 901 623
f 624 902 660
f 627 827 625
f 625 827 809
f 626 810 636
f 626 807 810
f 628 828 627
f 627 828 827
f 629 829 628
f 628 829 828
f 630 830 629
f 629 830 829
f 631 835 630
f 630 835 830
f 663 835 631
f 633 831 632
f 632 836 674
f 632 831 836
f 634 832 633
f 633 832 831
f 635 833 634
f 634 833 832
f 636 834 635
f 635 834 833
f 636 810 834
f 649 793 653
f 929 649 653
f 649 775 781
f 649 781 793
f 933 649 929
f 655 796 650
f 655 650 1210
f 650 782 776
f 650 796 782
f 797 656 651
f 931 651 656
f 783 651 778
f 797 651 783
f 935 651 931
f 800 652 658
f 658 652 964
f 779 652 784
f 784 652 800
f 653 794 683
f 923 653 683
f 653 793 794
f 929 653 923
f 654 795 655
f 1210 654 655
f 685 795 654
f 1210 685 654
f 655 795 796
f 798 686 656
f 926 656 686
f 798 656 797
f 931 656 926
f 799 658 657
f 964 657 658
f 799 657 688
f 964 688 657
f 800 658 799
f 661 901 659
f 660 902 662
f 695 901 661
f 662 902 696
f 664 857 663
f 663 857 835
f 665 858 664
f 664 858 857
f 666 859 665
f 665 859 858
f 667 860 666
f 666 860 859
f 668 861 667
f 667 861 860
f 669 862 668
f 668 862 861
f 670 863 669
f 669 863 862
f 671 864 670
f 670 864 863
f 672 865 671
f 671 865 864
f 673 866 672
f 672 866 865
f 674 836 673
f 673 836 866
f 1214 676 680
f 1214 680 700
f 683 811 684
f 917 683 684
f 683 794 801
f 683 801 811
f 923 683 917
f 684 812 689
f 918 684 689
f 684 811 812
f 917 684 918
f 691 815 685
f 1210 691 685
f 685 802 795
f 685 815 802
f 816 687 686
f 920 686 687
f 803 686 798
f 816 686 803
f 926 686 920
f 817 692 687
f 921 687 692
f 817 687 816
f 920 687 921
f 820 688 694
f 964 694 688
f 799 688 804
f 804 688 820
f 689 812 707
f 911 689 707
f 918 689 911
f 690 814 691
f 690 691 1210
f 710 814 690
f 710 690 1210
f 691 814 815
f 817 711 692
f 914 692 711
f 921 692 914
f 819 694 693
f 693 694 964
f 819 693 714
f 714 693 964
f 820 694 819
f 697 901 695
f 696 902 698
f 727 901 697
f 698 902 730
f 1214 700 704
f 1083 731 703
f 703 1213 1083
f 704 732 1214
f 734 1086 706
f 706 1086 1216
f 707 812 708
f 903 707 708
f 911 707 903
f 708 837 715
f 708 715 904
f 708 812 813
f 708 813 821
f 708 821 837
f 903 708 904
f 709 822 710
f 709 710 1210
f 720 842 709
f 1210 720 709
f 709 842 822
f 710 823 814
f 710 822 823
f 817 712 711
f 907 711 712
f 914 711 907
f 843 721 712
f 908 712 721
f 818 712 817
f 824 712 818
f 843 712 824
f 907 712 908
f 825 714 713
f 713 714 964
f 848 713 726
f 964 726 713
f 825 713 848
f 819 714 826
f 826 714 825
f 715 837 716
f 904 715 716
f 716 838 717
f 716 717 904
f 716 837 838
f 717 839 739
f 904 717 739
f 717 838 839
f 718 840 719
f 1210 718 719
f 745 840 718
f 745 718 1210
f 719 841 720
f 1210 719 720
f 719 840 841
f 720 841 842
f 843 722 721
f 895 721 722
f 908 721 895
f 844 723 722
f 896 722 723
f 844 722 843
f 895 722 896
f 845 746 723
f 897 723 746
f 845 723 844
f 896 723 897
f 846 725 724
f 964 724 725
f 846 724 752
f 752 724 964
f 847 726 725
f 964 725 726
f 847 725 846
f 848 726 847
f 728 901 727
f 753 901 728
f 730 902 729
f 729 902 756
f 1083 735 731
f 1214 732 736
f 1086 734 738
f 1067 757 735
f 1067 735 1083
f 736 759 1214
f 1064 760 737
f 1064 737 1069
f 1069 737 1215
f 1070 738 762
f 1086 738 1070
f 739 849 740
f 904 739 740
f 739 839 849
f 740 850 741
f 904 740 741
f 740 849 850
f 741 867 742
f 741 742 904
f 741 850 867
f 742 868 743
f 1210 742 743
f 742 867 868
f 875 742 876
f 891 742 875
f 876 742 877
f 877 742 878
f 878 742 879
f 879 742 880
f 880 742 881
f 881 742 892
f 889 742 890
f 904 742 889
f 890 742 891
f 892 742 893
f 893 742 894
f 894 742 905
f 905 742 906
f 906 742 912
f 912 742 913
f 913 742 919
f 919 742 924
f 924 742 925
f 925 742 930
f 930 742 934
f 934 742 1210
f 743 869 744
f 1210 743 744
f 743 868 869
f 744 851 745
f 744 745 1210
f 744 870 851
f 744 869 870
f 745 852 840
f 745 851 852
f 853 747 746
f 882 746 747
f 853 746 845
f 897 746 882
f 854 748 747
f 883 747 748
f 854 747 853
f 882 747 883
f 871 749 748
f 884 748 749
f 871 748 854
f 883 748 884
f 872 750 749
f 944 749 750
f 872 749 871
f 884 749 885
f 885 749 886
f 886 749 887
f 887 749 888
f 888 749 898
f 898 749 899
f 899 749 900
f 900 749 909
f 909 749 910
f 910 749 915
f 915 749 916
f 916 749 922
f 922 749 927
f 927 749 928
f 928 749 932
f 932 749 936
f 936 749 940
f 940 749 944
f 873 751 750
f 944 750 751
f 873 750 872
f 855 752 751
f 964 751 752
f 855 751 874
f 874 751 873
f 944 751 964
f 846 752 856
f 856 752 855
f 754 901 753
f 767 901 754
f 756 902 755
f 755 902 772
f 1061 758 757
f 1061 757 1067
f 1062 763 758
f 1062 758 1061
f 1214 759 764
f 1065 761 760
f 1065 760 1064
f 1049 765 761
f 1049 761 1065
f 762 766 1070
f 1047 775 763
f 1047 763 1062
f 764 777 1214
f 1044 778 765
f 1044 765 1049
f 1070 766 780
f 768 901 767
f 769 901 768
f 773 901 769
f 771 902 770
f 770 902 774
f 772 902 771
f 785 901 773
f 774 902 790
f 1041 781 775
f 1041 775 1047
f 1214 777 776
f 1214 776 782
f 1044 783 778
f 780 779 1070
f 1070 779 784
f 1025 793 781
f 1025 781 1041
f 1214 782 796
f 1027 797 783
f 1027 783 1044
f 784 800 1070
f 786 901 785
f 787 901 786
f 791 901 787
f 789 902 788
f 788 902 792
f 790 902 789
f 805 901 791
f 792 902 808
f 1017 794 793
f 1017 793 1025
f 1018 801 794
f 1018 794 1017
f 1214 796 795
f 1214 795 802
f 1021 798 797
f 1021 797 1027
f 1022 803 798
f 1022 798 1021
f 1070 800 799
f 799 804 1070
f 1005 811 801
f 1005 801 1018
f 802 815 1214
f 1007 816 803
f 1007 803 1022
f 1070 804 820
f 806 901 805
f 809 901 806
f 808 902 807
f 807 902 810
f 827 901 809
f 810 902 834
f 995 812 811
f 995 811 1005
f 996 813 812
f 996 812 995
f 997 821 813
f 997 813 996
f 815 814 1214
f 1214 814 823
f 1000 817 816
f 1000 816 1007
f 1001 818 817
f 1001 817 1000
f 1002 824 818
f 1002 818 1001
f 1070 820 819
f 1070 819 826
f 997 837 821
f 823 822 1214
f 1214 822 842
f 984 843 824
f 984 824 1002
f 1070 826 825
f 1070 825 848
f 828 901 827
f 829 901 828
f 830 901 829
f 835 901 830
f 832 902 831
f 831 902 836
f 833 902 832
f 834 902 833
f 857 901 835
f 836 902 866
f 997 838 837
f 839 838 997
f 997 849 839
f 1214 841 840
f 840 852 1214
f 1214 842 841
f 975 844 843
f 975 843 984
f 976 845 844
f 976 844 975
f 977 853 845
f 977 845 976
f 1070 847 846
f 1066 846 856
f 1070 846 1066
f 848 847 1070
f 997 850 849
f 997 867 850
f 852 851 1214
f 1214 851 870
f 957 854 853
f 957 853 977
f 958 871 854
f 958 854 957
f 1066 856 855
f 1066 855 874
f 858 902 857
f 857 902 901
f 859 902 858
f 860 902 859
f 861 902 860
f 862 902 861
f 863 902 862
f 864 902 863
f 865 902 864
f 866 902 865
f 981 868 867
f 981 867 997
f 1214 869 868
f 868 945 946
f 954 945 868
f 868 946 947
f 868 947 948
f 948 955 868
f 953 954 868
f 868 971 953
f 868 955 956
f 868 956 972
f 868 969 970
f 981 969 868
f 868 970 971
f 972 973 868
f 868 973 974
f 974 982 868
f 868 982 983
f 983 998 868
f 868 998 999
f 868 999 1006
f 868 1006 1019
f 1019 1020 868
f 868 1020 1026
f 1026 1042 868
f 1214 868 1042
f 1214 870 869
f 949 872 871
f 949 871 958
f 873 872 1066
f 950 872 949
f 872 950 951
f 872 951 952
f 952 959 872
f 872 959 960
f 872 960 978
f 978 979 872
f 872 979 980
f 980 985 872
f 872 985 986
f 986 1003 872
f 872 1003 1004
f 872 1004 1008
f 872 1008 1023
f 1023 1024 872
f 872 1024 1028
f 1028 1045 872
f 872 1045 1046
f 872 1046 1050
f 872 1050 1066
f 1066 874 873
f 876 954 875
f 875 971 891
f 875 954 953
f 875 953 971
f 877 945 876
f 876 945 954
f 878 946 877
f 877 946 945
f 879 947 878
f 878 947 946
f 880 948 879
f 879 948 947
f 881 956 880
f 880 955 948
f 880 956 955
f 892 972 881
f 881 972 956
f 958 882 883
f 977 897 882
f 957 882 958
f 977 882 957
f 949 883 884
f 958 883 949
f 950 884 885
f 949 884 950
f 951 885 886
f 950 885 951
f 952 886 887
f 951 886 952
f 960 887 888
f 952 887 959
f 959 887 960
f 978 888 898
f 960 888 978
f 890 970 889
f 889 969 904
f 889 970 969
f 891 971 890
f 890 971 970
f 893 973 892
f 892 973 972
f 894 974 893
f 893 974 973
f 905 974 894
f 976 895 896
f 975 908 895
f 975 895 976
f 977 896 897
f 976 896 977
f 979 898 899
f 978 898 979
f 980 899 900
f 979 899 980
f 980 900 909
f 901 902 1211
f 901 1211 1210
f 904 997 903
f 903 996 911
f 903 997 996
f 904 969 981
f 904 981 997
f 906 983 905
f 905 982 974
f 905 983 982
f 912 998 906
f 906 998 983
f 1002 907 908
f 1001 914 907
f 1001 907 1002
f 984 908 975
f 1002 908 984
f 986 909 910
f 980 909 985
f 985 909 986
f 1003 910 915
f 986 910 1003
f 911 996 918
f 913 999 912
f 912 999 998
f 919 999 913
f 1001 921 914
f 1004 915 916
f 1003 915 1004
f 1004 916 922
f 918 996 917
f 917 1018 923
f 917 996 995
f 917 995 1005
f 917 1005 1018
f 924 1019 919
f 919 1006 999
f 919 1019 1006
f 1001 920 921
f 1022 926 920
f 1000 920 1001
f 1007 920 1000
f 1022 920 1007
f 1023 922 927
f 1004 922 1008
f 1008 922 1023
f 923 1018 929
f 925 1020 924
f 924 1020 1019
f 930 1020 925
f 1022 931 926
f 1024 927 928
f 1023 927 1024
f 1024 928 932
f 929 1041 933
f 929 1018 1017
f 929 1017 1025
f 929 1025 1041
f 934 1042 930
f 930 1026 1020
f 930 1042 1026
f 1044 935 931
f 1021 931 1022
f 1027 931 1021
f 1044 931 1027
f 1045 932 936
f 1024 932 1028
f 1028 932 1045
f 933 1041 937
f 938 1043 934
f 934 1210 938
f 934 1043 1042
f 1044 939 935
f 1046 936 940
f 1045 936 1046
f 937 1062 941
f 937 1041 1047
f 937 1047 1062
f 942 1063 938
f 938 1210 942
f 938 1048 1043
f 938 1063 1048
f 1065 943 939
f 1049 939 1044
f 1065 939 1049
f 1066 940 944
f 1046 940 1050
f 1050 940 1066
f 941 1061 961
f 941 1062 1061
f 962 1063 942
f 942 1210 962
f 1064 963 943
f 1064 943 1065
f 1066 944 964
f 961 1083 965
f 961 1061 1067
f 961 1067 1083
f 966 1084 962
f 962 1210 966
f 962 1068 1063
f 962 1084 1068
f 1085 967 963
f 967 1211 963
f 1069 963 1064
f 1085 963 1069
f 1086 964 968
f 1066 964 1070
f 1070 964 1086
f 965 1083 987
f 988 1084 966
f 966 1210 988
f 1085 989 967
f 989 1211 967
f 1086 968 990
f 987 1105 991
f 991 1209 987
f 987 1083 1087
f 987 1087 1105
f 992 1106 988
f 988 1210 992
f 988 1088 1084
f 988 1106 1088
f 1107 993 989
f 993 1211 989
f 1089 989 1085
f 1107 989 1089
f 1108 990 994
f 990 1212 994
f 1086 990 1090
f 1090 990 1108
f 991 1105 1009
f 1009 1209 991
f 1010 1106 992
f 992 1210 1010
f 1107 1011 993
f 1011 1211 993
f 1108 994 1012
f 994 1212 1012
f 1009 1133 1013
f 1013 1209 1009
f 1009 1105 1109
f 1009 1109 1133
f 1014 1134 1010
f 1010 1210 1014
f 1010 1110 1106
f 1010 1134 1110
f 1135 1015 1011
f 1015 1211 1011
f 1111 1011 1107
f 1135 1011 1111
f 1136 1012 1016
f 1012 1212 1016
f 1108 1012 1112
f 1112 1012 1136
f 1013 1133 1029
f 1029 1209 1013
f 1031 1134 1014
f 1014 1210 1031
f 1135 1032 1015
f 1032 1211 1015
f 1136 1016 1034
f 1016 1212 1034
f 1029 1137 1030
f 1030 1209 1029
f 1029 1133 1137
f 1030 1143 1035
f 1035 1209 1030
f 1030 1137 1138
f 1030 1138 1143
f 1037 1145 1031
f 1031 1210 1037
f 1031 1139 1134
f 1031 1145 1139
f 1140 1033 1032
f 1033 1211 1032
f 1140 1032 1135
f 1146 1038 1033
f 1038 1211 1033
f 1141 1033 1140
f 1146 1033 1141
f 1148 1034 1040
f 1034 1212 1040
f 1136 1034 1142
f 1142 1034 1148
f 1035 1143 1051
f 1051 1209 1035
f 1036 1144 1037
f 1037 1210 1036
f 1052 1144 1036
f 1036 1210 1052
f 1037 1144 1145
f 1146 1053 1038
f 1053 1211 1038
f 1147 1040 1039
f 1040 1212 1039
f 1147 1039 1054
f 1039 1212 1054
f 1148 1040 1147
f 1043 1214 1042
f 1048 1214 1043
f 1063 1214 1048
f 1051 1153 1055
f 1055 1209 1051
f 1051 1143 1149
f 1051 1149 1153
f 1057 1156 1052
f 1052 1210 1057
f 1052 1150 1144
f 1052 1156 1150
f 1157 1058 1053
f 1058 1211 1053
f 1151 1053 1146
f 1157 1053 1151
f 1160 1054 1060
f 1054 1212 1060
f 1147 1054 1152
f 1152 1054 1160
f 1055 1153 1056
f 1056 1209 1055
f 1056 1154 1071
f 1071 1209 1056
f 1056 1153 1154
f 1072 1155 1057
f 1057 1210 1072
f 1057 1155 1156
f 1157 1059 1058
f 1059 1211 1058
f 1158 1073 1059
f 1073 1211 1059
f 1158 1059 1157
f 1159 1060 1074
f 1060 1212 1074
f 1160 1060 1159
f 1068 1214 1063
f 1084 1214 1068
f 1069 1215 1085
f 1071 1165 1075
f 1075 1209 1071
f 1071 1154 1161
f 1071 1161 1165
f 1078 1168 1072
f 1072 1210 1078
f 1072 1162 1155
f 1072 1168 1162
f 1169 1079 1073
f 1079 1211 1073
f 1163 1073 1158
f 1169 1073 1163
f 1172 1074 1082
f 1074 1212 1082
f 1159 1074 1164
f 1164 1074 1172
f 1075 1165 1076
f 1076 1209 1075
f 1076 1166 1091
f 1091 1209 1076
f 1076 1165 1166
f 1077 1167 1078
f 1078 1210 1077
f 1093 1167 1077
f 1077 1210 1093
f 1078 1167 1168
f 1169 1080 1079
f 1080 1211 1079
f 1170 1094 1080
f 1094 1211 1080
f 1170 1080 1169
f 1171 1082 1081
f 1082 1212 1081
f 1171 1081 1096
f 1081 1212 1096
f 1172 1082 1171
f 1083 1213 1087
f 1088 1214 1084
f 1085 1215 1089
f 1090 1216 1086
f 1087 1213 1105
f 1106 1214 1088
f 1089 1215 1107
f 1108 1216 1090
f 1091 1173 1092
f 1092 1209 1091
f 1091 1166 1173
f 1092 1177 1097
f 1097 1209 1092
f 1092 1173 1177
f 1100 1180 1093
f 1093 1210 1100
f 1093 1174 1167
f 1093 1181 1174
f 1093 1180 1181
f 1175 1095 1094
f 1095 1211 1094
f 1175 1094 1170
f 1182 1101 1095
f 1101 1211 1095
f 1182 1095 1175
f 1185 1096 1104
f 1096 1212 1104
f 1171 1096 1176
f 1176 1096 1186
f 1186 1096 1185
f 1097 1177 1098
f 1098 1209 1097
f 1098 1178 1113
f 1113 1209 1098
f 1098 1177 1178
f 1099 1179 1100
f 1100 1210 1099
f 1116 1179 1099
f 1099 1210 1116
f 1100 1179 1180
f 1182 1102 1101
f 1102 1211 1101
f 1183 1117 1102
f 1117 1211 1102
f 1183 1102 1182
f 1184 1104 1103
f 1104 1212 1103
f 1184 1103 1120
f 1103 1212 1120
f 1185 1104 1184
f 1105 1213 1109
f 1110 1214 1106
f 1107 1215 1111
f 1112 1216 1108
f 1109 1213 1133
f 1134 1214 1110
f 1111 1215 1135
f 1136 1216 1112
f 1113 1187 1114
f 1114 1209 1113
f 1113 1178 1187
f 1114 1195 1121
f 1121 1209 1114
f 1114 1187 1188
f 1114 1188 1195
f 1115 1189 1116
f 1116 1210 1115
f 1126 1201 1115
f 1115 1210 1126
f 1115 1201 1189
f 1116 1190 1179
f 1116 1189 1190
f 1191 1118 1117
f 1118 1211 1117
f 1191 1117 1183
f 1202 1127 1118
f 1127 1211 1118
f 1192 1118 1191
f 1202 1118 1192
f 1193 1120 1119
f 1120 1212 1119
f 1208 1119 1132
f 1119 1212 1132
f 1193 1119 1208
f 1184 1120 1194
f 1194 1120 1193
f 1121 1196 1122
f 1122 1209 1121
f 1121 1195 1196
f 1122 1197 1123
f 1123 1209 1122
f 1122 1196 1197
f 1123 1198 1124
f 1124 1210 1123
f 1123 1197 1198
f 1123 1210 1209
f 1124 1199 1125
f 1125 1210 1124
f 1124 1198 1199
f 1125 1200 1126
f 1126 1210 1125
f 1125 1199 1200
f 1126 1200 1201
f 1203 1128 1127
f 1128 1212 1127
f 1203 1127 1202
f 1127 1212 1211
f 1204 1129 1128
f 1129 1212 1128
f 1204 1128 1203
f 1205 1130 1129
f 1130 1212 1129
f 1205 1129 1204
f 1206 1131 1130
f 1131 1212 1130
f 1206 1130 1205
f 1207 1132 1131
f 1132 1212 1131
f 1207 1131 1206
f 1208 1132 1207
f 1133 1213 1137
f 1139 1214 1134
f 1135 1215 1140
f 1142 1216 1136
f 1137 1213 1138
f 1138 1213 1143
f 1145 1214 1139
f 1140 1215 1141
f 1141 1215 1146
f 1148 1216 1142
f 1143 1213 1149
f 1144 1214 1145
f 1150 1214 1144
f 1146 1215 1151
f 1147 1216 1148
f 1152 1216 1147
f 1149 1213 1153
f 1156 1214 1150
f 1151 1215 1157
f 1160 1216 1152
f 1153 1213 1154
f 1154 1213 1161
f 1155 1214 1156
f 1162 1214 1155
f 1157 1215 1158
f 1158 1215 1163
f 1159 1216 1160
f 1164 1216 1159
f 1161 1213 1165
f 1168 1214 1162
f 1163 1215 1169
f 1172 1216 1164
f 1165 1213 1166
f 1166 1213 1173
f 1167 1214 1168
f 1174 1214 1167
f 1169 1215 1170
f 1170 1215 1175
f 1171 1216 1172
f 1176 1216 1171
f 1173 1213 1177
f 1181 1214 1174
f 1175 1215 1182
f 1186 1216 1176
f 1177 1213 1178
f 1178 1213 1187
f 1179 1214 1180
f 1190 1214 1179
f 1180 1214 1181
f 1182 1215 1183
f 1183 1215 1191
f 1184 1216 1185
f 1194 1216 1184
f 1185 1216 1186
f 1187 1213 1188
f 1188 1213 1195
f 1189 1214 1190
f 1201 1214 1189
f 1191 1215 1192
f 1192 1215 1202
f 1193 1216 1194
f 1208 1216 1193
f 1195 1213 1196
f 1196 1213 1197
f 1197 1213 1198
f 1198 1214 1199
f 1198 1213 1214
f 1199 1214 1200
f 1200 1214 1201
f 1202 1215 1203
f 1203 1216 1204
f 1203 1215 1216
f 1204 1216 1205
f 1205 1216 1206
f 1206 1216 1207
f 1207 1216 1208
f 1214 1209 1210
f 1213 1209 1214
f 1210 1211 1215
f 1210 1215 1214
f 1212 1216 1211
f 1211 1216 1215
f 1214 1215 1220
f 1214 1220 1219
f 1215 1218 1220
f 1217 1220 1218
f 1219 1220 1217
