v 0.0542301922 -0.0146322136 0.0334275079
v 0.0541941051 -0.0145961266 0.0336485744
v 0.0541502552 -0.0145522766 0.0339831758
v 0.0541279297 -0.0145299463 0.0342078495
v 0.0541111546 -0.0145131807 0.0344334888
v 0.054099968 -0.0145019894 0.0346598172
v 0.0541048603 -0.0145068865 0.0354534173
v 0.0541188507 -0.0145208673 0.0356794357
v 0.054138401 -0.0145404177 0.0359046245
v 0.054178112 -0.0145801334 0.0362402582
v 0.0542114716 -0.0146134882 0.036462183
v 0.0542301922 -0.0146322136 0.0365724921
v 0.0540943699 -0.0144963913 0.0348865604
v 0.054096468 -0.0144984894 0.0352268457
v 0.0544590454 -0.014861062 0.0324602485
v 0.0543989449 -0.0148009663 0.0326706076
v 0.0543708496 -0.0147728758 0.0327768683
v 0.0543708496 -0.0147728758 0.0372231317
v 0.0544283466 -0.014830368 0.0374349427
v 0.0544910316 -0.0148930531 0.0376437879
v 0.0543186264 -0.014720643 0.0329913902
v 0.0542717152 -0.0146737366 0.0332083583
v 0.0542502766 -0.0146523027 0.0333176756
v 0.0542502766 -0.0146523027 0.0366823244
v 0.0542944984 -0.0146965199 0.0369004154
v 0.05434408 -0.0147460966 0.0371161938
v 0.0547094421 -0.0151114635 0.0317499995
v 0.0546316605 -0.0150336866 0.0319484353
v 0.0546699409 -0.0150719624 0.0381512618
v 0.0547094421 -0.0151114635 0.0382500005
v 0.0545588284 -0.0149608498 0.032150588
v 0.0545242958 -0.0149263172 0.0322529817
v 0.0545242958 -0.0149263172 0.0377470183
v 0.0545946198 -0.0149966459 0.0379509377
v 0.0549714642 -0.0153734856 0.0311793947
v 0.0548794441 -0.0152814655 0.0313652468
v 0.0549248772 -0.0153269033 0.0387282467
v 0.0549714642 -0.0153734856 0.0388206053
v 0.0548351746 -0.0152371912 0.0314598465
v 0.0547501545 -0.0151521759 0.0316522527
v 0.0547920685 -0.0151940899 0.0384444761
v 0.0548351746 -0.0152371912 0.0385401535
v 0.0552210693 -0.0156230907 0.0307356167
v 0.0551179485 -0.0155199699 0.0309094167
v 0.0551689701 -0.0155709963 0.0391781187
v 0.0552210693 -0.0156230907 0.0392643833
v 0.0550680141 -0.0154700308 0.0309982014
v 0.0550191765 -0.0154211979 0.031088202
v 0.0550191765 -0.0154211979 0.038911798
v 0.0550680141 -0.0154700308 0.0390017986
v 0.0553836422 -0.0157856588 0.0304847217
v 0.0554970818 -0.0158990984 0.0396757078
v 0.0552742271 -0.0156762438 0.0306506515
v 0.0553284149 -0.0157304411 0.0394329882
v 0.0556144123 -0.0160164289 0.0301695585
v 0.0557354908 -0.0161375074 0.0399792886
v 0.0555552654 -0.0159572868 0.0302462006
v 0.0555552654 -0.0159572868 0.0397537994
v 0.0559882908 -0.0163903074 0.0297413898
v 0.0558601646 -0.0162621813 0.0298779297
v 0.0559238033 -0.0163258247 0.0401911306
v 0.0559882908 -0.0163903074 0.0402586126
v 0.0557973843 -0.0161994057 0.0299485517
v 0.0557973843 -0.0161994057 0.0400514507
v 0.0561197071 -0.0165217237 0.0296112561
v 0.0561865978 -0.0165886145 0.0404513597
v 0.0560535984 -0.016455615 0.0296755123
v 0.0560535984 -0.016455615 0.0403244877
v 0.0563917618 -0.016793788 0.0293708348
v 0.0564615803 -0.0168636017 0.040685029
v 0.0562542515 -0.0166562729 0.0294876885
v 0.056322649 -0.0167246704 0.0405715895
v 0.0566032391 -0.0170052557 0.0292084575
v 0.0567474251 -0.0171494465 0.0408909988
v 0.0565320759 -0.0169341021 0.0292608404
v 0.0565320759 -0.0169341021 0.0407391596
v 0.0569680958 -0.0173701172 0.0289733052
v 0.0568939857 -0.0172960072 0.0290167189
v 0.0568939857 -0.0172960072 0.0409832811
v 0.0569680958 -0.0173701172 0.0410266972
v 0.0568204193 -0.0172224407 0.029061954
v 0.0568204193 -0.0172224407 0.0409380436
v 0.0571178703 -0.0175198917 0.0288919973
v 0.0571934872 -0.0175955086 0.0411458731
v 0.0570427303 -0.0174447565 0.0289317274
v 0.0570427303 -0.0174447565 0.0410682726
v 0.0574229794 -0.0178250008 0.0287518001
v 0.0574905376 -0.0178925638 0.0339401627
v 0.0574651222 -0.0178671389 0.034000001
v 0.057378624 -0.0177806454 0.0342507863
v 0.0573526936 -0.0177547197 0.0356511354
v 0.0573880749 -0.0177900915 0.0357814622
v 0.057477644 -0.0178796654 0.0360300756
v 0.0574229794 -0.0178250008 0.0412482023
v 0.0572695618 -0.0176715832 0.0288181329
v 0.0573448639 -0.0177468853 0.0343819666
v 0.0573176556 -0.017719677 0.0345161557
v 0.0572861938 -0.0176882105 0.0347562623
v 0.0572756462 -0.0176776676 0.035
v 0.0572894077 -0.0176914339 0.0352783465
v 0.0573238354 -0.0177258568 0.0355176377
v 0.0573460655 -0.0177480869 0.0412159824
v 0.0576559429 -0.0180579643 0.028666594
v 0.0577435665 -0.0181455879 0.0335137105
v 0.057606514 -0.0180085306 0.0362855744
v 0.0577342587 -0.0181362801 0.0413579607
v 0.0575002842 -0.0179023008 0.0287214828
v 0.0575908165 -0.0179928331 0.0337413597
v 0.0575754433 -0.0179774694 0.0337686777
v 0.0575038033 -0.0179058247 0.0360892773
v 0.0575908165 -0.0179928331 0.0362586403
v 0.0575779419 -0.0179799633 0.0413069201
v 0.0577469997 -0.0110779552 0.033537817
v 0.0577136497 -0.0110446005 0.0337597418
v 0.0576739292 -0.0110048847 0.0340953755
v 0.0576739292 -0.0110048847 0.0359046245
v 0.0576857929 -0.0110167437 0.0360168242
v 0.0577296429 -0.0110605936 0.0363514256
v 0.0576634579 -0.0109944134 0.0342078495
v 0.0576543789 -0.0109853344 0.0343205643
v 0.057640398 -0.0109713535 0.0345465827
v 0.0576320057 -0.0109629564 0.0347731543
v 0.0576292019 -0.0109601574 0.035
v 0.0576355057 -0.0109664564 0.0353401828
v 0.0576466923 -0.010977643 0.0355665112
v 0.0576634579 -0.0109944134 0.0357921505
v 0.0578917389 -0.0182937603 0.0285987496
v 0.0579827576 -0.0183847742 0.0332679486
v 0.0578586082 -0.0182606297 0.0366180348
v 0.0579708557 -0.0183728819 0.0414199734
v 0.05781287 -0.0182148867 0.0286194229
v 0.0578387718 -0.0182407885 0.033402729
v 0.0577620583 -0.0181640749 0.0365094185
v 0.05781287 -0.0182148867 0.0413805771
v 0.0579945736 -0.0113255291 0.0324602485
v 0.0579638844 -0.0112948303 0.0325650573
v 0.0579344826 -0.0112654333 0.0373293924
v 0.0579945736 -0.0113255291 0.0375397515
v 0.0579063873 -0.0112373381 0.0327768683
v 0.0578300362 -0.0111609869 0.0330995846
v 0.0577858143 -0.011116765 0.0333176756
v 0.0577657299 -0.0110966806 0.0365724921
v 0.0578072529 -0.0111382036 0.0367916417
v 0.0578541546 -0.0111851101 0.0370086098
v 0.0581297283 -0.0185317497 0.0285484505
v 0.0582294445 -0.0186314611 0.033108964
v 0.0581146507 -0.0185166721 0.0368270898
v 0.0582094269 -0.0186114483 0.0414643908
v 0.0580501919 -0.0184522181 0.0285632586
v 0.0580921917 -0.0184942083 0.0331873846
v 0.0580042343 -0.0184062605 0.033250761
v 0.0580042343 -0.0184062605 0.036749239
v 0.0580259304 -0.0184279518 0.0367658949
v 0.0580501919 -0.0184522181 0.0414367437
v 0.0582449799 -0.0115759306 0.0317499995
v 0.0582054787 -0.0115364294 0.0318487382
v 0.0582054787 -0.0115364294 0.0381512618
v 0.0582449799 -0.0115759306 0.0382500005
v 0.0581671982 -0.0114981489 0.0319484353
v 0.0581301575 -0.0114611082 0.0320490623
v 0.0580598335 -0.0113907843 0.0322529817
v 0.0580265598 -0.0113575153 0.0376437879
v 0.0580943661 -0.0114253168 0.037849412
v 0.0581671982 -0.0114981489 0.0380515647
v 0.0583692532 -0.0187712698 0.0285158348
v 0.0584930401 -0.0188950615 0.033019464
v 0.0583717327 -0.0187737541 0.0369487405
v 0.0584493141 -0.0188513355 0.0414910936
v 0.058289278 -0.0186912994 0.028524735
v 0.0583477383 -0.0187497549 0.0330594087
v 0.0582528477 -0.0186548691 0.036902113
v 0.058289278 -0.0186912994 0.0414752674
v 0.0584604149 -0.0117913656 0.0312717533
v 0.0584604149 -0.0117913656 0.0387282467
v 0.0584149818 -0.0117459326 0.0313652468
v 0.0583276062 -0.0116585569 0.0315555239
v 0.0582856922 -0.011616643 0.0383477473
v 0.0583707027 -0.0117016582 0.0385401535
v 0.0586898594 -0.0190918808 0.028499999
v 0.0586096458 -0.0190116673 0.0285009909
v 0.0586898594 -0.0190918808 0.0329999995
v 0.0587392216 -0.0191412382 0.0330012178
v 0.0586158447 -0.0190178709 0.0369972587
v 0.0586898594 -0.0190918808 0.0370000005
v 0.0586096458 -0.0190116673 0.0414990091
v 0.0586898594 -0.0190918808 0.041500001
v 0.0585294609 -0.0189314775 0.0285039592
v 0.0585912113 -0.0189932327 0.0330048728
v 0.0585175114 -0.0189195328 0.0369850922
v 0.0585294609 -0.0189314775 0.0414960384
v 0.0587045078 -0.0120354586 0.0308218813
v 0.0587045078 -0.0120354586 0.0391781187
v 0.0586534863 -0.011984437 0.0309094167
v 0.0585547142 -0.0118856649 0.031088202
v 0.0585070019 -0.0118379478 0.0388206053
v 0.0586035423 -0.0119344978 0.0390017986
v 0.0588502674 -0.0192522888 0.0285039592
v 0.0589838963 -0.0193859129 0.033043704
v 0.0588622074 -0.0192642336 0.0369850922
v 0.0589304047 -0.0193324308 0.0414910936
v 0.0587700729 -0.0191720991 0.0285009909
v 0.0588376884 -0.0192397099 0.0330109572
v 0.0587638741 -0.0191658955 0.0369972587
v 0.0587700729 -0.0191720991 0.0414990091
v 0.058975399 -0.0123063498 0.0304038048
v 0.0589191704 -0.0122501259 0.0395152783
v 0.0588639526 -0.0121949034 0.0305670118
v 0.0587566071 -0.0120875578 0.0392643833
v 0.0591702919 -0.0195723181 0.0285356069
v 0.0592424374 -0.0196444588 0.0331589913
v 0.0591033344 -0.0195053606 0.0369126105
v 0.0591702919 -0.0195723181 0.0414643908
v 0.0590104752 -0.0194124966 0.0285158348
v 0.0590796738 -0.0194816952 0.033077476
v 0.0590079956 -0.0194100122 0.0369487405
v 0.0590904503 -0.0194924669 0.0414752674
v 0.059210022 -0.0125409727 0.0300943875
v 0.059210022 -0.0125409727 0.0399056125
v 0.0591499405 -0.012480896 0.0301695585
v 0.0590326099 -0.0123635654 0.0303242922
v 0.0590326099 -0.0123635654 0.0396757078
v 0.0590908031 -0.0124217539 0.0397537994
v 0.0594088631 -0.0198108845 0.0285800266
v 0.0593537979 -0.0197558146 0.0332341051
v 0.0594806843 -0.0198827009 0.0333419251
v 0.0593754845 -0.0197775059 0.036749239
v 0.0593537979 -0.0197558146 0.0367658949
v 0.0594879799 -0.0198900061 0.0414012527
v 0.05925 -0.0196520166 0.0285484505
v 0.0593319016 -0.019733923 0.033217988
v 0.0592650776 -0.0196670942 0.0368270898
v 0.0593295269 -0.0197315483 0.0414367437
v 0.059459341 -0.0127902918 0.0298088694
v 0.059459341 -0.0127902918 0.0401911306
v 0.0593956928 -0.0127266483 0.0298779297
v 0.059271019 -0.0126019745 0.0300207114
v 0.059271019 -0.0126019745 0.0399792886
v 0.059332922 -0.0126638727 0.0400514507
v 0.0596454697 -0.0200474863 0.0286420417
v 0.0596176701 -0.0200196915 0.0334905815
v 0.0597408276 -0.020142849 0.0336617398
v 0.0596361523 -0.0200381784 0.0364862895
v 0.0595989017 -0.0200009232 0.0365320897
v 0.0597237854 -0.020125802 0.0413334036
v 0.0595668583 -0.0199688797 0.0286194229
v 0.0595798569 -0.0199818783 0.0334457088
v 0.0595010262 -0.0199030428 0.0366383052
v 0.0595668583 -0.0199688797 0.0413805771
v 0.059722126 -0.0130530815 0.0295486403
v 0.059722126 -0.0130530815 0.0404513597
v 0.0596552353 -0.0129861908 0.0296112561
v 0.059523819 -0.0128547745 0.0402586126
v 0.0598794441 -0.0202814655 0.0287214828
v 0.059956749 -0.0203587656 0.0287518001
v 0.0599020844 -0.020304101 0.0339699244
v 0.0599916534 -0.0203936749 0.0342185378
v 0.0599146061 -0.0203166275 0.035999999
v 0.0598483162 -0.0202503376 0.0361471534
v 0.059956749 -0.0203587656 0.0412482023
v 0.0598794441 -0.0202814655 0.0412785196
v 0.0598017864 -0.0202038031 0.0286930776
v 0.0597889118 -0.0201909332 0.0337413597
v 0.0598339825 -0.0202360039 0.0338244295
v 0.0598042755 -0.0202062969 0.0362313223
v 0.0597571831 -0.0201592045 0.0363121176
v 0.0598017864 -0.0202038031 0.0413069201
v 0.059997118 -0.0133280687 0.029314971
v 0.0599272995 -0.0132582502 0.0406291628
v 0.0598581772 -0.0131891327 0.0294284129
v 0.0597897892 -0.0131207352 0.0405123138
v 0.0601101665 -0.0205121832 0.0288181329
v 0.0601038628 -0.0205058794 0.0349650955
v 0.0600986938 -0.0205007153 0.0351743126
v 0.0601862411 -0.0205882578 0.0411458731
v 0.0600336628 -0.0204356794 0.0287840199
v 0.0600558929 -0.0204579096 0.0344823623
v 0.0600903111 -0.0204923325 0.0347216535
v 0.0600963287 -0.0204983501 0.0347909427
v 0.0600935345 -0.0204955559 0.0352437377
v 0.0600620728 -0.0204640894 0.0354838443
v 0.0600010948 -0.020403121 0.0357492137
v 0.0600336628 -0.0204356794 0.0412159824
v 0.0602105598 -0.0135415106 0.0291578388
v 0.0602105598 -0.0135415106 0.0408421612
v 0.0601387672 -0.0134697227 0.0292084575
v 0.0600676136 -0.0133985691 0.0292608404
v 0.0600676136 -0.0133985691 0.0407391596
v 0.0601387672 -0.0134697227 0.0407915401
v 0.060411623 -0.0208136492 0.0289733052
v 0.0604857426 -0.0208877592 0.0290167189
v 0.0604857426 -0.0208877592 0.0409832811
v 0.060411623 -0.0208136492 0.0410266972
v 0.060261858 -0.0206638746 0.0288919973
v 0.0603369884 -0.0207390099 0.0410682726
v 0.0604295235 -0.0137604742 0.0290167189
v 0.0604295235 -0.0137604742 0.0409832811
v 0.060355957 -0.0136869078 0.029061954
v 0.0602829628 -0.0136139135 0.0408909988
v 0.0606322937 -0.0210343199 0.0291089988
v 0.0607047062 -0.0211067228 0.0408421612
v 0.0605592995 -0.0209613256 0.029061954
v 0.0605592995 -0.0209613256 0.0409380436
v 0.0607290249 -0.0140599756 0.0288541293
v 0.0607290249 -0.0140599756 0.0411458731
v 0.0606534081 -0.0139843588 0.0288919973
v 0.0605036335 -0.0138345842 0.0410266972
v 0.0609181385 -0.0213201599 0.029314971
v 0.060987957 -0.0213899784 0.0406291628
v 0.0607764893 -0.0211785107 0.0292084575
v 0.0608476429 -0.0212496643 0.0292608404
v 0.0608476429 -0.0212496643 0.0407391596
v 0.0607764893 -0.0211785107 0.0407915401
v 0.0609585171 -0.0142894678 0.0287518001
v 0.0609236031 -0.0142545586 0.0342185378
v 0.0609885006 -0.0143194513 0.0359696198
v 0.0609585171 -0.0142894678 0.0412482023
v 0.0608816032 -0.014212554 0.0287840199
v 0.0608593731 -0.0141903238 0.0344823623
v 0.0608249454 -0.014155901 0.0347216535
v 0.0608114033 -0.0141423492 0.0349650955
v 0.0608111839 -0.0141421347 0.035
v 0.0608531933 -0.014184144 0.0354838443
v 0.0609141617 -0.0142451124 0.0357492137
v 0.06080509 -0.0141360455 0.0411818695
v 0.0611254768 -0.0215274935 0.0294876885
v 0.0611931305 -0.0215951519 0.0295486403
v 0.0611931305 -0.0215951519 0.0404513597
v 0.0611254768 -0.0215274935 0.0405123138
v 0.0610570793 -0.021459096 0.0294284129
v 0.0610570793 -0.021459096 0.0405715895
v 0.0611914806 -0.0145224314 0.028666594
v 0.0611744289 -0.0145053844 0.0336617398
v 0.0612429981 -0.0145739536 0.0364386797
v 0.0611914806 -0.0145224314 0.0413334036
v 0.0611134796 -0.0144444304 0.0286930776
v 0.0611263447 -0.0144573002 0.0337413597
v 0.0610131817 -0.0143441324 0.0339699244
v 0.0610006504 -0.0143316059 0.034000001
v 0.0610006504 -0.0143316059 0.035999999
v 0.061110981 -0.0144419317 0.0362313223
v 0.0611580734 -0.0144890289 0.0363121176
v 0.0610358124 -0.0143667679 0.0412785196
v 0.0613914375 -0.0217934589 0.0297413898
v 0.061455925 -0.0218579416 0.0298088694
v 0.061455925 -0.0218579416 0.0401911306
v 0.0613914375 -0.0217934589 0.0402586126
v 0.0612600212 -0.0216620426 0.0296112561
v 0.0613261299 -0.0217281513 0.0403244877
v 0.0614272766 -0.0147582273 0.0285987496
v 0.0614345818 -0.0147655325 0.0333419251
v 0.0614970188 -0.0148279743 0.0367143345
v 0.0614272766 -0.0147582273 0.0414012527
v 0.0613483982 -0.0146793537 0.0286194229
v 0.0612975864 -0.0146285419 0.0334905815
v 0.0612609081 -0.0145918589 0.0335372925
v 0.0612791042 -0.014610055 0.0364862895
v 0.0614142399 -0.0147451906 0.0366383052
v 0.0612697964 -0.0146007471 0.0413579607
v 0.0616442375 -0.0220462589 0.0300207114
v 0.0617052345 -0.0221072559 0.0399056125
v 0.0615195637 -0.0219215851 0.0298779297
v 0.0615823441 -0.0219843607 0.0400514507
v 0.0617449646 -0.0150759153 0.0285356069
v 0.0616728191 -0.0150037699 0.0331589913
v 0.061741703 -0.0150726585 0.0368793845
v 0.0617449646 -0.0150759153 0.0414643908
v 0.061665266 -0.014996212 0.0285484505
v 0.0615614681 -0.0148924141 0.0332341051
v 0.0615182858 -0.0148492413 0.0332679486
v 0.061539772 -0.0148707228 0.036749239
v 0.0616501884 -0.0149811344 0.0368270898
v 0.0615063934 -0.0148373442 0.0414199734
v 0.0618826466 -0.022284668 0.0303242922
v 0.0619960861 -0.0223981075 0.0395152783
v 0.061765316 -0.0221673374 0.0301695585
v 0.0618244629 -0.0222264795 0.0397537994
v 0.0619848518 -0.0153158026 0.0285089087
v 0.0619313698 -0.0152623158 0.033043704
v 0.0619798164 -0.0153107719 0.0369696164
v 0.0619848518 -0.0153158026 0.0414910936
v 0.0619047813 -0.0152357368 0.0285158348
v 0.0617649727 -0.0150959282 0.033108964
v 0.0619072704 -0.0152382212 0.0369487405
v 0.0618248158 -0.0151557665 0.0414752674
v 0.0621055012 -0.0225075226 0.0306506515
v 0.0622107487 -0.0226127701 0.0308218813
v 0.0622107487 -0.0226127701 0.0391781187
v 0.062158659 -0.0225606756 0.0392643833
v 0.0620513039 -0.0224533253 0.0305670118
v 0.0620513039 -0.0224533253 0.0394329882
v 0.0622253971 -0.0155563478 0.028499999
v 0.0622253971 -0.0155563478 0.0329999995
v 0.0621760445 -0.0155069952 0.0330012178
v 0.062200716 -0.0155316668 0.0369996953
v 0.0622253971 -0.0155563478 0.0370000005
v 0.0622253971 -0.0155563478 0.041500001
v 0.0621451836 -0.0154761343 0.0285009909
v 0.0620041637 -0.0153351192 0.0330246234
v 0.0621513824 -0.0154823332 0.0369972587
v 0.0620649891 -0.0153959446 0.0414960384
v 0.0623605423 -0.0227625685 0.031088202
v 0.0624548416 -0.022856863 0.0312717533
v 0.0624548416 -0.022856863 0.0387282467
v 0.0624082642 -0.0228102808 0.0388206053
v 0.0622617798 -0.0226637964 0.0309094167
v 0.0623117142 -0.0227137356 0.0390017986
v 0.0624659424 -0.0157968931 0.0285089087
v 0.0624222164 -0.0157531719 0.033019464
v 0.0624952393 -0.0158261948 0.0369632554
v 0.0624659424 -0.0157968931 0.0414910936
v 0.0623858051 -0.0157167559 0.0285039592
v 0.0622500782 -0.0155810289 0.0330003047
v 0.0623977451 -0.0157287006 0.0369850922
v 0.0623056107 -0.0156365662 0.0414990091
v 0.0626295738 -0.0230315905 0.0316522527
v 0.0627097874 -0.023111804 0.0318487382
v 0.0627480583 -0.0231500797 0.0380515647
v 0.0626702862 -0.0230723028 0.0382500005
v 0.0625002842 -0.0229023008 0.0313652468
v 0.0625876598 -0.0229896765 0.0315555239
v 0.0625876598 -0.0229896765 0.0384444761
v 0.0625445538 -0.0229465752 0.0385401535
v 0.0627058296 -0.0160367804 0.0285356069
v 0.0626858215 -0.0160167723 0.033108964
v 0.0627322083 -0.016063159 0.0368671608
v 0.0627058296 -0.0160367804 0.0414643908
v 0.0626259785 -0.015956934 0.028524735
v 0.0625194244 -0.0158503799 0.033043704
v 0.0626624088 -0.0159933643 0.036902113
v 0.0625460129 -0.0158769636 0.0414841652
v 0.0628554325 -0.0232574492 0.0322529817
v 0.0629513817 -0.0233533983 0.0325650573
v 0.0629807835 -0.0233828001 0.0373293924
v 0.0629206829 -0.0233227043 0.0375397515
v 0.062785099 -0.0231871204 0.0320490623
v 0.0628208904 -0.0232229166 0.037849412
v 0.0629444008 -0.0162753515 0.0285800266
v 0.0629324989 -0.0162634544 0.0332679486
v 0.0629956322 -0.0163265829 0.0366773415
v 0.0629444008 -0.0162753515 0.0414199734
v 0.0628650646 -0.0161960154 0.0285632586
v 0.0627551727 -0.0160861235 0.0331456327
v 0.0629110222 -0.0162419729 0.033250761
v 0.0629110222 -0.0162419729 0.036749239
v 0.0628893261 -0.0162202816 0.0367658949
v 0.0627855282 -0.0161164837 0.0414515495
v 0.0631080036 -0.0235100298 0.0332083583
v 0.0631294422 -0.0235314636 0.0333176756
v 0.0631682568 -0.0235702782 0.033537817
v 0.0632016163 -0.0236036329 0.0337597418
v 0.0632413273 -0.0236433487 0.0340953755
v 0.0632413273 -0.0236433487 0.0359046245
v 0.0632294731 -0.0236314898 0.0360168242
v 0.0631856232 -0.0235876398 0.0363514256
v 0.0631495266 -0.0235515528 0.0365724921
v 0.0631080036 -0.0235100298 0.0367916417
v 0.0630088692 -0.0234108906 0.0327768683
v 0.0630852203 -0.0234872465 0.0330995846
v 0.0630852203 -0.0234872465 0.0369004154
v 0.0630611019 -0.0234631233 0.0370086098
v 0.0631809978 -0.0165119534 0.0286420417
v 0.06317169 -0.0165026407 0.0335137105
v 0.0632427006 -0.0165736513 0.0363893175
v 0.0631809978 -0.0165119534 0.0413579607
v 0.063102396 -0.016433342 0.0286194229
v 0.0630162125 -0.016347168 0.0333419251
v 0.0631532078 -0.0164841585 0.0365094185
v 0.0630235176 -0.0163544683 0.0414012527
v 0.0632517986 -0.02365382 0.0342078495
v 0.0632608776 -0.023662899 0.0343205643
v 0.0632748585 -0.0236768799 0.0345465827
v 0.0632832603 -0.023685277 0.0347731543
v 0.0632860546 -0.023688076 0.035
v 0.0632797604 -0.023681777 0.0353401828
v 0.0632685642 -0.0236705856 0.0355665112
v 0.0632517986 -0.02365382 0.0357921505
v 0.0634922771 -0.0168232327 0.0287518001
v 0.0634247189 -0.0167556696 0.0339401627
v 0.0634501438 -0.0167810946 0.034000001
v 0.0634964828 -0.0168274336 0.0358767414
v 0.0634376125 -0.016768568 0.0360300756
v 0.0634922771 -0.0168232327 0.0412482023
v 0.0634149818 -0.0167459326 0.0287214828
v 0.0632596855 -0.016590641 0.0336360025
v 0.0633398132 -0.016670764 0.0337686777
v 0.0634114532 -0.0167424088 0.0360892773
v 0.0633244495 -0.0166554003 0.0362586403
v 0.0632593136 -0.0165902691 0.0413334036
v 0.0637217693 -0.0170527248 0.0288541293
v 0.0637217693 -0.0170527248 0.0411458731
v 0.0636456947 -0.0169766502 0.0288181329
v 0.0635071068 -0.0168380623 0.0341547632
v 0.0635366325 -0.0168675833 0.0342507863
v 0.0635976009 -0.0169285564 0.0345161557
v 0.0636290722 -0.0169600229 0.0347562623
v 0.0636396103 -0.016970561 0.035
v 0.0636258488 -0.0169567995 0.0352783465
v 0.0635914211 -0.0169223766 0.0355176377
v 0.0635271912 -0.0168581419 0.0357814622
v 0.063569191 -0.0169001465 0.0412159824
v 0.0639471607 -0.0172781115 0.0289733052
v 0.0639471607 -0.0172781115 0.0410266972
v 0.0638725262 -0.0172034769 0.0289317274
v 0.0637973862 -0.0171283417 0.0411080027
v 0.0642402344 -0.0175711899 0.0291578388
v 0.0642402344 -0.0175711899 0.0408421612
v 0.0641678314 -0.0174987869 0.0291089988
v 0.0640212708 -0.0173522263 0.0409832811
v 0.0644536762 -0.017784627 0.029314971
v 0.0644536762 -0.017784627 0.040685029
v 0.064312027 -0.0176429777 0.0292084575
v 0.0643831806 -0.0177141314 0.0292608404
v 0.0643831806 -0.0177141314 0.0407391596
v 0.064312027 -0.0176429777 0.0407915401
v 0.0647286682 -0.0180596142 0.0295486403
v 0.0647286682 -0.0180596142 0.0404513597
v 0.064661005 -0.0179919605 0.0294876885
v 0.0645234947 -0.0178544455 0.0406291628
v 0.0649269753 -0.018257926 0.0297413898
v 0.0649914532 -0.0183224087 0.0298088694
v 0.0649914532 -0.0183224087 0.0401911306
v 0.0649269753 -0.018257926 0.0402586126
v 0.0648616676 -0.0181926184 0.0296755123
v 0.0647955589 -0.0181265097 0.0403887463
v 0.0652407722 -0.018571723 0.0300943875
v 0.0651797752 -0.018510726 0.0399792886
v 0.0651178722 -0.0184488277 0.0299485517
v 0.0650550919 -0.0183860474 0.0401220703
v 0.0654753952 -0.0188063507 0.0304038048
v 0.0654753952 -0.0188063507 0.0395961952
v 0.0653599911 -0.0186909466 0.0302462006
v 0.0654181843 -0.018749135 0.0303242922
v 0.0654181843 -0.018749135 0.0396757078
v 0.0653008537 -0.0186318045 0.0398304415
v 0.0656941872 -0.0190251427 0.0307356167
v 0.0657462864 -0.0190772371 0.0308218813
v 0.0657462864 -0.0190772371 0.0391781187
v 0.0656941872 -0.0190251427 0.0392643833
v 0.0655316238 -0.0188625746 0.0304847217
v 0.0656410389 -0.0189719849 0.0306506515
v 0.0655868416 -0.0189177923 0.0394329882
v 0.0655316238 -0.0188625746 0.0395152783
v 0.0659437923 -0.0192747478 0.0311793947
v 0.0659903793 -0.0193213301 0.0312717533
v 0.0659903793 -0.0193213301 0.0387282467
v 0.0659437923 -0.0192747478 0.0388206053
v 0.0658472424 -0.0191781979 0.0309982014
v 0.06589608 -0.0192270308 0.031088202
v 0.06589608 -0.0192270308 0.038911798
v 0.065797308 -0.0191282635 0.0390905833
v 0.0662058144 -0.0195367699 0.0317499995
v 0.0662453156 -0.0195762711 0.0318487382
v 0.0662453156 -0.0195762711 0.0381512618
v 0.0662058144 -0.0195367699 0.0382500005
v 0.0660800915 -0.0194110422 0.0314598465
v 0.066165102 -0.0194960575 0.0316522527
v 0.066123188 -0.0194541435 0.0384444761
v 0.0660358124 -0.0193667679 0.0386347532
v 0.0664562111 -0.0197871666 0.0324602485
v 0.0664869099 -0.0198178654 0.0325650573
v 0.0664869099 -0.0198178654 0.0374349427
v 0.0664242249 -0.0197551804 0.0376437879
v 0.066283596 -0.0196145468 0.0319484353
v 0.0663564281 -0.0196873789 0.032150588
v 0.0663909607 -0.0197219162 0.0322529817
v 0.0663909607 -0.0197219162 0.0377470183
v 0.0663206367 -0.0196515875 0.0379509377
v 0.066283596 -0.0196145468 0.0380515647
v 0.0666850643 -0.0200160151 0.0334275079
v 0.0667211514 -0.0200521069 0.0336485744
v 0.0667371445 -0.0200681 0.0337597418
v 0.0667371445 -0.0200681 0.0362402582
v 0.0667037945 -0.0200347452 0.036462183
v 0.0666850643 -0.0200160151 0.0365724921
v 0.0665163116 -0.0198472672 0.0326706076
v 0.0665966396 -0.0199275904 0.0329913902
v 0.0666435413 -0.0199744968 0.0332083583
v 0.0666649799 -0.0199959307 0.0333176756
v 0.0666649799 -0.0199959307 0.0366823244
v 0.0666207581 -0.0199517136 0.0369004154
v 0.0665444069 -0.0198753576 0.0372231317
v 0.0665163116 -0.0198472672 0.0373293924
v 0.0667650013 -0.0200959568 0.0339831758
v 0.0667873268 -0.0201182823 0.0342078495
v 0.0668041019 -0.0201350527 0.0344334888
v 0.0668152885 -0.020146244 0.0346598172
v 0.0668208866 -0.0201518421 0.0348865604
v 0.0668215923 -0.0201525431 0.035
v 0.0668103962 -0.0201413469 0.0354534173
v 0.0667964153 -0.0201273661 0.0356794357
v 0.066776865 -0.0201078157 0.0359046245
v 0.0667517643 -0.020082715 0.0361287141
f 2 113 1
f 132 2 1
f 128 1 23
f 1 141 23
f 1 113 141
f 132 1 128
f 104 3 2
f 3 114 2
f 104 2 132
f 2 114 113
f 89 4 3
f 4 115 3
f 89 3 88
f 88 3 109
f 108 3 104
f 109 3 108
f 3 115 114
f 89 5 4
f 5 120 4
f 4 119 115
f 4 120 119
f 96 6 5
f 6 121 5
f 90 5 89
f 96 5 90
f 5 121 120
f 97 13 6
f 13 122 6
f 97 6 96
f 6 122 121
f 7 100 8
f 8 125 7
f 14 99 7
f 7 124 14
f 7 99 100
f 7 125 124
f 8 91 9
f 9 126 8
f 8 101 91
f 8 100 101
f 8 126 125
f 9 92 10
f 10 117 9
f 91 92 9
f 9 117 116
f 9 116 126
f 10 111 11
f 11 118 10
f 10 92 93
f 10 93 110
f 10 110 111
f 10 118 117
f 11 105 12
f 12 142 11
f 11 111 105
f 11 142 118
f 12 133 24
f 24 142 12
f 12 105 133
f 98 14 13
f 14 123 13
f 98 13 97
f 13 123 122
f 99 14 98
f 14 124 123
f 16 136 15
f 431 16 15
f 15 161 32
f 431 15 32
f 15 136 135
f 15 135 161
f 17 139 16
f 432 17 16
f 16 139 136
f 432 16 431
f 21 139 17
f 457 21 17
f 457 17 432
f 19 137 18
f 18 184 19
f 18 144 26
f 26 184 18
f 18 137 144
f 20 138 19
f 19 184 20
f 19 138 137
f 33 162 20
f 20 184 33
f 20 162 138
f 22 140 21
f 182 22 21
f 21 140 139
f 182 21 181
f 181 21 457
f 23 141 22
f 150 23 22
f 22 141 140
f 150 22 146
f 146 22 170
f 170 22 166
f 166 22 188
f 188 22 182
f 128 23 151
f 151 23 150
f 24 129 25
f 25 143 24
f 24 133 129
f 24 143 142
f 26 144 25
f 25 171 26
f 129 152 25
f 25 144 143
f 25 153 147
f 25 147 171
f 25 152 153
f 26 171 167
f 26 167 189
f 183 184 26
f 189 183 26
f 28 156 27
f 415 28 27
f 27 155 40
f 415 27 40
f 27 156 155
f 31 160 28
f 416 31 28
f 28 159 156
f 28 160 159
f 416 28 415
f 30 158 29
f 29 184 30
f 29 164 34
f 34 184 29
f 29 158 157
f 29 157 164
f 41 177 30
f 30 184 41
f 30 177 158
f 32 161 31
f 435 32 31
f 31 161 160
f 435 31 416
f 431 32 435
f 34 163 33
f 33 184 34
f 33 163 162
f 34 164 163
f 36 173 35
f 401 36 35
f 35 194 48
f 401 35 48
f 35 173 194
f 39 175 36
f 419 39 36
f 36 175 173
f 402 36 401
f 419 36 402
f 37 184 38
f 38 195 37
f 37 178 42
f 42 184 37
f 37 174 178
f 37 195 174
f 38 184 49
f 49 195 38
f 40 176 39
f 419 40 39
f 39 176 175
f 40 155 176
f 415 40 420
f 420 40 419
f 42 178 41
f 41 184 42
f 41 178 177
f 44 191 43
f 385 44 43
f 43 207 53
f 385 43 53
f 43 191 207
f 47 193 44
f 405 47 44
f 44 193 191
f 386 44 385
f 405 44 386
f 45 184 46
f 46 208 45
f 50 184 45
f 45 196 50
f 45 192 196
f 45 208 192
f 46 184 54
f 54 208 46
f 48 194 47
f 405 48 47
f 47 194 193
f 401 48 405
f 49 184 50
f 50 196 49
f 49 196 195
f 53 207 51
f 373 53 51
f 51 220 57
f 375 51 57
f 51 207 205
f 51 205 220
f 373 51 375
f 54 184 52
f 52 206 54
f 52 184 58
f 58 222 52
f 52 221 206
f 52 222 221
f 389 53 373
f 385 53 389
f 54 206 208
f 57 219 55
f 375 57 55
f 55 236 63
f 361 55 63
f 55 219 217
f 55 217 236
f 359 55 361
f 375 55 359
f 58 184 56
f 56 222 58
f 184 64 56
f 64 238 56
f 56 218 222
f 56 237 218
f 56 238 237
f 57 220 219
f 60 233 59
f 343 60 59
f 59 251 67
f 347 59 67
f 59 233 251
f 343 59 347
f 63 235 60
f 361 63 60
f 60 235 233
f 344 60 343
f 361 60 344
f 62 252 61
f 61 345 62
f 61 238 64
f 64 362 61
f 61 234 238
f 61 252 234
f 61 362 345
f 68 252 62
f 62 346 68
f 62 345 346
f 63 236 235
f 184 362 64
f 67 251 65
f 347 67 65
f 65 249 71
f 325 65 71
f 65 251 249
f 326 65 325
f 347 65 326
f 66 252 68
f 68 348 66
f 72 270 66
f 66 327 72
f 66 250 252
f 66 270 250
f 66 348 327
f 68 346 348
f 71 269 69
f 307 71 69
f 69 267 75
f 310 69 75
f 69 269 267
f 307 69 310
f 70 268 72
f 72 330 70
f 76 287 70
f 70 308 76
f 70 287 268
f 70 330 308
f 71 249 269
f 329 71 307
f 325 71 329
f 72 268 270
f 72 327 328
f 72 328 330
f 75 286 73
f 309 75 73
f 73 297 81
f 301 73 81
f 73 285 283
f 73 283 297
f 73 286 285
f 299 73 301
f 309 73 299
f 74 288 76
f 76 311 74
f 82 298 74
f 74 300 82
f 74 284 288
f 74 298 284
f 74 312 300
f 74 311 312
f 75 267 286
f 310 75 309
f 76 288 287
f 76 308 311
f 289 78 77
f 78 295 77
f 293 77 85
f 77 305 85
f 289 77 293
f 77 295 305
f 290 81 78
f 81 297 78
f 290 78 289
f 78 297 295
f 79 291 80
f 80 306 79
f 79 296 82
f 82 302 79
f 79 302 291
f 79 306 296
f 80 292 86
f 86 306 80
f 80 291 292
f 301 81 290
f 82 296 298
f 82 300 302
f 293 85 83
f 85 305 83
f 271 83 95
f 83 303 95
f 293 83 271
f 83 305 303
f 86 294 84
f 84 306 86
f 84 274 102
f 102 324 84
f 84 294 274
f 84 304 306
f 84 324 304
f 86 292 294
f 254 95 87
f 95 317 87
f 253 87 107
f 87 313 107
f 254 87 253
f 87 317 313
f 88 337 89
f 109 337 88
f 89 314 90
f 89 338 314
f 89 337 338
f 90 318 96
f 90 314 318
f 91 323 92
f 101 323 91
f 92 339 93
f 92 323 315
f 92 315 339
f 93 340 110
f 93 339 340
f 102 282 94
f 94 316 102
f 94 259 112
f 112 342 94
f 94 282 259
f 94 342 316
f 275 95 254
f 271 95 275
f 95 303 317
f 96 318 97
f 97 319 98
f 97 318 319
f 98 320 99
f 98 319 320
f 99 321 100
f 99 320 321
f 100 322 101
f 100 321 322
f 101 322 323
f 102 274 282
f 102 316 324
f 239 107 103
f 107 335 103
f 245 103 131
f 103 353 131
f 239 103 245
f 103 335 331
f 103 331 353
f 104 336 108
f 132 354 104
f 104 332 336
f 104 355 332
f 104 354 355
f 111 341 105
f 105 356 133
f 105 341 333
f 105 333 356
f 112 266 106
f 106 334 112
f 106 244 134
f 134 358 106
f 106 266 244
f 106 358 334
f 261 107 239
f 253 107 261
f 107 313 335
f 108 336 109
f 109 336 337
f 110 340 111
f 111 340 341
f 112 259 260
f 112 260 266
f 112 334 342
f 114 332 113
f 113 354 141
f 113 332 355
f 355 354 113
f 115 338 114
f 114 336 332
f 114 337 336
f 114 338 337
f 119 314 115
f 115 314 338
f 117 315 116
f 116 315 126
f 118 341 117
f 117 339 315
f 117 340 339
f 117 341 340
f 142 356 118
f 118 333 341
f 118 356 333
f 120 314 119
f 121 318 120
f 120 318 314
f 122 319 121
f 121 319 318
f 123 320 122
f 122 320 319
f 124 321 123
f 123 321 320
f 125 322 124
f 322 321 124
f 126 323 125
f 323 322 125
f 126 315 323
f 223 131 127
f 131 353 127
f 229 127 149
f 127 367 149
f 223 127 229
f 127 353 349
f 127 349 367
f 128 354 132
f 151 369 128
f 128 350 354
f 128 369 350
f 133 357 129
f 129 370 152
f 129 357 351
f 129 351 370
f 134 248 130
f 130 352 134
f 130 228 154
f 154 372 130
f 130 248 228
f 130 372 352
f 245 131 223
f 133 356 357
f 134 244 248
f 134 352 358
f 136 392 135
f 135 392 161
f 139 392 136
f 562 137 138
f 582 144 137
f 561 137 562
f 582 137 561
f 562 138 162
f 140 393 139
f 139 393 392
f 141 368 140
f 140 368 364
f 140 364 382
f 140 382 378
f 140 378 398
f 140 398 393
f 141 354 350
f 350 369 141
f 141 369 368
f 143 351 142
f 351 357 142
f 142 357 356
f 144 383 143
f 143 370 351
f 365 371 143
f 143 383 365
f 371 370 143
f 379 383 144
f 399 379 144
f 395 394 144
f 144 394 399
f 581 395 144
f 581 144 582
f 229 149 145
f 149 367 145
f 213 145 169
f 145 363 169
f 209 145 213
f 229 145 209
f 145 367 363
f 146 368 150
f 170 382 146
f 146 364 368
f 146 382 364
f 153 371 147
f 147 383 171
f 147 371 365
f 147 365 383
f 154 232 148
f 148 372 154
f 148 212 172
f 172 384 148
f 148 232 212
f 148 366 372
f 148 384 366
f 150 368 151
f 151 368 369
f 152 370 153
f 153 370 371
f 154 228 232
f 156 392 155
f 155 392 176
f 159 392 156
f 554 157 158
f 553 164 157
f 553 157 554
f 557 158 177
f 554 158 557
f 160 392 159
f 161 392 160
f 567 162 163
f 562 162 566
f 566 162 567
f 568 163 164
f 567 163 568
f 568 164 553
f 213 169 165
f 169 381 165
f 197 165 187
f 165 377 187
f 213 165 197
f 165 381 377
f 166 382 170
f 188 398 166
f 166 378 382
f 166 398 378
f 171 383 167
f 167 399 189
f 167 383 379
f 167 379 399
f 172 216 168
f 168 384 172
f 168 200 190
f 190 400 168
f 168 216 200
f 168 380 384
f 168 400 380
f 169 363 381
f 172 212 216
f 175 392 173
f 173 392 194
f 545 178 174
f 546 174 195
f 545 174 546
f 176 392 175
f 558 177 178
f 557 177 558
f 558 178 545
f 201 180 179
f 180 397 179
f 179 391 201
f 179 397 391
f 201 187 180
f 187 397 180
f 181 392 182
f 182 412 181
f 181 457 182
f 181 412 392
f 182 398 188
f 202 412 182
f 182 457 202
f 182 392 393
f 182 393 398
f 183 362 184
f 183 394 184
f 184 395 183
f 189 399 183
f 203 362 183
f 183 413 203
f 183 399 394
f 183 395 413
f 184 394 395
f 185 204 186
f 186 396 185
f 190 200 185
f 185 400 190
f 185 200 204
f 185 396 400
f 204 414 186
f 186 414 396
f 197 187 201
f 187 377 397
f 193 392 191
f 191 392 207
f 537 196 192
f 538 192 208
f 537 192 538
f 194 392 193
f 550 195 196
f 546 195 549
f 549 195 550
f 550 196 537
f 201 411 197
f 197 407 213
f 197 411 407
f 198 412 202
f 202 457 198
f 214 428 198
f 198 457 214
f 198 408 412
f 198 428 408
f 199 362 203
f 203 413 199
f 215 360 199
f 199 429 215
f 199 360 362
f 199 413 409
f 199 409 429
f 200 414 204
f 216 430 200
f 200 410 414
f 200 430 410
f 201 391 411
f 207 392 205
f 205 392 220
f 542 208 206
f 533 206 221
f 530 206 533
f 542 206 530
f 538 208 541
f 541 208 542
f 213 427 209
f 209 423 229
f 209 427 423
f 210 428 214
f 214 457 210
f 230 442 210
f 210 457 230
f 210 424 428
f 210 442 424
f 211 360 215
f 215 429 211
f 231 360 211
f 211 445 231
f 211 429 425
f 211 425 445
f 212 426 216
f 232 446 212
f 212 446 426
f 213 407 427
f 216 426 430
f 219 392 217
f 217 392 236
f 526 222 218
f 526 218 237
f 220 392 219
f 534 221 222
f 533 221 534
f 534 222 526
f 229 441 223
f 223 465 245
f 223 441 437
f 223 437 465
f 225 443 224
f 224 457 225
f 224 442 230
f 230 457 224
f 224 443 442
f 225 457 246
f 246 466 225
f 225 438 443
f 225 466 438
f 226 360 227
f 227 445 226
f 247 360 226
f 226 467 247
f 226 444 439
f 226 439 467
f 226 445 444
f 227 360 231
f 231 445 227
f 228 440 232
f 248 468 228
f 228 468 440
f 229 423 441
f 232 440 446
f 235 392 233
f 233 392 251
f 521 238 234
f 522 234 252
f 521 234 522
f 236 392 235
f 528 237 238
f 526 237 528
f 528 238 521
f 245 465 239
f 239 483 261
f 239 465 461
f 239 461 483
f 240 457 241
f 241 462 240
f 246 457 240
f 240 466 246
f 240 462 466
f 241 457 262
f 262 484 241
f 241 484 462
f 242 376 243
f 243 467 242
f 265 388 242
f 242 487 265
f 242 374 376
f 242 390 374
f 242 388 390
f 242 467 463
f 242 463 487
f 243 360 247
f 247 467 243
f 243 376 360
f 244 464 248
f 266 488 244
f 244 488 464
f 248 464 468
f 251 392 249
f 249 392 269
f 516 252 250
f 518 250 270
f 516 250 518
f 524 252 516
f 522 252 524
f 253 483 254
f 261 483 253
f 254 477 275
f 254 483 477
f 255 457 256
f 256 479 255
f 263 457 255
f 255 485 263
f 255 479 478
f 255 478 485
f 256 457 276
f 276 493 256
f 256 492 479
f 256 493 492
f 257 418 258
f 258 481 257
f 281 433 257
f 257 499 281
f 257 417 418
f 257 436 417
f 257 433 434
f 257 434 436
f 257 481 480
f 257 480 499
f 258 403 264
f 264 486 258
f 258 422 403
f 258 418 421
f 258 421 422
f 258 486 481
f 259 482 260
f 282 500 259
f 259 500 482
f 260 488 266
f 260 482 488
f 262 457 263
f 263 485 262
f 262 485 484
f 264 406 265
f 265 487 264
f 264 403 404
f 264 404 406
f 264 487 486
f 265 387 388
f 265 406 387
f 269 392 267
f 267 392 286
f 518 270 268
f 513 268 287
f 510 268 513
f 518 268 510
f 275 491 271
f 271 489 293
f 271 491 489
f 272 473 273
f 273 496 272
f 278 470 272
f 272 495 278
f 272 470 471
f 272 471 472
f 272 472 473
f 272 496 495
f 273 475 279
f 279 496 273
f 273 473 474
f 273 474 475
f 274 500 282
f 294 504 274
f 274 490 500
f 274 504 490
f 275 477 491
f 276 448 277
f 277 494 276
f 276 447 448
f 276 458 447
f 276 457 458
f 276 494 493
f 277 469 278
f 278 495 277
f 277 448 449
f 277 449 450
f 277 450 451
f 277 451 469
f 277 495 494
f 278 469 470
f 279 476 280
f 280 497 279
f 279 475 476
f 279 497 496
f 280 455 281
f 281 498 280
f 280 452 453
f 280 476 452
f 280 453 454
f 280 454 455
f 280 498 497
f 281 460 433
f 281 455 456
f 281 456 459
f 281 459 460
f 281 499 498
f 285 392 283
f 283 392 297
f 506 288 284
f 508 284 298
f 506 284 508
f 286 392 285
f 514 287 288
f 513 287 514
f 514 288 506
f 289 501 290
f 293 503 289
f 289 503 501
f 290 507 301
f 290 501 507
f 291 508 292
f 302 508 291
f 292 502 294
f 292 508 502
f 293 489 503
f 294 502 504
f 297 392 295
f 295 392 305
f 508 298 296
f 502 296 306
f 508 296 502
f 301 507 299
f 299 505 309
f 299 507 505
f 300 508 302
f 312 514 300
f 300 506 508
f 300 514 506
f 305 392 303
f 303 392 317
f 490 306 304
f 500 304 324
f 490 304 500
f 504 306 490
f 502 306 504
f 310 512 307
f 307 517 329
f 307 512 509
f 307 509 517
f 308 510 311
f 330 518 308
f 308 518 510
f 309 511 310
f 309 505 511
f 310 511 512
f 311 513 312
f 311 510 513
f 312 513 514
f 317 392 313
f 313 392 335
f 482 324 316
f 488 316 342
f 482 316 488
f 500 324 482
f 325 517 326
f 329 517 325
f 326 515 347
f 326 517 515
f 327 516 328
f 348 524 327
f 327 524 516
f 328 518 330
f 328 516 518
f 335 392 331
f 331 392 353
f 488 342 334
f 464 334 358
f 488 334 464
f 343 519 344
f 347 523 343
f 343 523 519
f 344 520 361
f 344 519 520
f 345 521 346
f 362 528 345
f 345 528 521
f 346 522 348
f 346 521 522
f 347 515 523
f 348 522 524
f 353 392 349
f 349 392 367
f 468 358 352
f 440 352 372
f 468 352 440
f 464 358 468
f 361 527 359
f 359 525 375
f 359 527 525
f 360 526 362
f 376 534 360
f 360 534 526
f 361 520 527
f 362 526 528
f 367 392 363
f 363 392 381
f 426 372 366
f 430 366 384
f 426 366 430
f 446 372 426
f 440 372 446
f 375 531 373
f 373 539 389
f 373 532 529
f 373 529 539
f 373 531 532
f 374 533 376
f 390 541 374
f 374 530 533
f 374 542 530
f 374 541 542
f 375 525 531
f 376 533 534
f 381 392 377
f 377 392 397
f 410 384 380
f 414 380 400
f 410 380 414
f 430 384 410
f 385 535 386
f 389 540 385
f 385 540 535
f 386 536 405
f 386 535 536
f 387 537 388
f 406 550 387
f 387 550 537
f 388 541 390
f 388 537 538
f 388 538 541
f 389 539 540
f 397 392 391
f 391 392 411
f 411 392 412
f 413 395 581
f 414 400 396
f 401 543 402
f 405 547 401
f 401 548 543
f 401 547 548
f 402 544 419
f 402 543 544
f 403 545 404
f 422 558 403
f 403 558 545
f 404 549 406
f 404 545 546
f 404 546 549
f 405 536 547
f 406 549 550
f 411 412 407
f 407 412 427
f 441 412 408
f 461 408 428
f 441 408 437
f 437 408 465
f 465 408 461
f 581 409 413
f 581 429 409
f 427 412 423
f 423 412 441
f 415 551 416
f 420 556 415
f 415 556 551
f 416 563 435
f 416 551 552
f 416 552 563
f 417 553 418
f 436 567 417
f 417 568 553
f 417 567 568
f 418 557 421
f 418 553 554
f 418 554 557
f 419 555 420
f 419 544 555
f 420 555 556
f 421 557 422
f 422 557 558
f 489 428 424
f 501 424 442
f 489 424 503
f 503 424 501
f 580 425 429
f 580 445 425
f 461 428 483
f 483 428 477
f 477 428 491
f 491 428 489
f 580 429 581
f 431 559 432
f 435 564 431
f 431 565 559
f 431 564 565
f 432 575 457
f 432 559 560
f 432 560 575
f 433 561 434
f 460 581 433
f 433 582 561
f 433 581 582
f 434 566 436
f 434 561 562
f 434 562 566
f 435 563 564
f 436 566 567
f 517 443 438
f 523 438 466
f 517 438 515
f 515 438 523
f 439 444 580
f 579 467 439
f 579 439 580
f 509 442 443
f 501 442 507
f 507 442 505
f 505 442 511
f 512 442 509
f 511 442 512
f 509 443 517
f 580 444 445
f 447 577 448
f 458 577 447
f 448 569 449
f 448 578 569
f 448 577 578
f 449 570 450
f 449 569 570
f 450 583 451
f 450 570 571
f 450 571 583
f 451 584 469
f 451 583 584
f 452 591 453
f 476 591 452
f 453 572 454
f 453 592 572
f 453 591 592
f 454 573 455
f 454 572 573
f 455 579 456
f 455 573 574
f 455 574 579
f 456 580 459
f 456 579 580
f 457 576 458
f 457 575 576
f 458 576 577
f 459 580 460
f 460 580 581
f 531 466 462
f 540 462 484
f 532 462 529
f 529 462 539
f 531 462 532
f 539 462 540
f 574 463 467
f 573 487 463
f 573 463 574
f 519 466 520
f 523 466 519
f 520 466 527
f 527 466 525
f 525 466 531
f 574 467 579
f 469 584 470
f 470 585 471
f 470 584 585
f 471 586 472
f 471 585 586
f 472 587 473
f 472 586 587
f 473 588 474
f 473 587 588
f 474 589 475
f 474 588 589
f 475 590 476
f 475 589 590
f 476 590 591
f 583 478 479
f 583 485 478
f 584 479 492
f 583 479 584
f 592 480 481
f 591 499 480
f 591 480 592
f 592 481 486
f 547 484 485
f 535 484 536
f 540 484 535
f 536 484 547
f 543 485 544
f 548 485 543
f 544 485 555
f 547 485 548
f 551 485 552
f 556 485 551
f 552 485 563
f 555 485 556
f 559 485 560
f 565 485 559
f 560 485 575
f 563 485 564
f 564 485 565
f 569 485 570
f 578 485 569
f 570 485 571
f 571 485 583
f 575 485 576
f 576 485 577
f 577 485 578
f 572 486 487
f 592 486 572
f 572 487 573
f 585 492 493
f 584 492 585
f 586 493 494
f 585 493 586
f 587 494 495
f 586 494 587
f 495 496 588
f 587 495 588
f 589 496 497
f 588 496 589
f 590 497 498
f 589 497 590
f 498 499 591
f 590 498 591
