v -0.0680000019 -4.89858708e-19 0.0430000019
v -0.0680000019 8.39192546e-18 0.075
v -0.06775877 -0.00136808053 0.0430000019
v -0.067782073 -0.00130227268 0.075
v -0.0678042269 -0.00123606801 0.0430000019
v -0.0678637028 -0.0010352762 0.075
v -0.0678811836 -0.000967687592 0.0430000019
v -0.067926507 -0.000763235986 0.075
v -0.067939229 -0.000694592744 0.0430000019
v -0.0679610729 -0.000556692407 0.075
v -0.0679701853 -0.00048747737 0.0430000019
v -0.0679902554 -0.000279025901 0.075
v -0.0679945183 -0.000209343825 0.0430000019
v -0.0679993916 -6.98096259e-05 0.075
v -0.0679993916 6.98096259e-05 0.0430000019
v -0.0679945183 0.000209343825 0.075
v -0.0679902554 0.000279025901 0.0430000019
v -0.0679701853 0.00048747737 0.075
v -0.0679610729 0.000556692407 0.0430000019
v -0.067939229 0.000694592744 0.075
v -0.067926507 0.000763235986 0.0430000019
v -0.0678811836 0.000967687592 0.075
v -0.0678637028 0.0010352762 0.0430000019
v -0.0678042269 0.00123606801 0.075
v -0.067782073 0.00130227268 0.0430000019
v -0.06775877 0.00136808053 0.075
v -0.0675317907 -0.00187788621 0.0430000019
v -0.0675951767 -0.00175348461 0.075
v -0.0676252317 -0.00169047311 0.0430000019
v -0.0676820183 -0.00156292453 0.075
v -0.0677087355 -0.00149842635 0.0430000019
v -0.0677343225 -0.00143347174 0.075
v -0.0677343225 0.00143347174 0.0430000019
v -0.0677087355 0.00149842635 0.075
v -0.0676820183 0.00156292453 0.0430000019
v -0.0676252317 0.00169047311 0.075
v -0.0675951767 0.00175348461 0.0430000019
v -0.0675317907 0.00187788621 0.075
v -0.0672766066 -0.00229430571 0.0430000019
v -0.0672766066 -0.00229430571 0.075
v -0.0673161507 -0.00223677158 0.0430000019
v -0.0674641037 -0.00200000003 0.075
v -0.0674984789 -0.00193923846 0.0430000019
v -0.0674984789 -0.00193923846 0.075
v -0.0674984789 0.00193923846 0.0430000019
v -0.0674984789 0.00193923846 0.075
v -0.0674641037 0.00200000003 0.0430000019
v -0.0673161507 0.00223677158 0.075
v -0.0672766066 0.00229430571 0.0430000019
v -0.0672766066 0.00229430571 0.075
v -0.0670188379 -0.00262423605 0.0430000019
v -0.0671085835 -0.00251728147 0.075
v -0.0671520424 -0.00246264592 0.0430000019
v -0.0672360659 -0.00235114098 0.075
v -0.0672360659 0.00235114098 0.0430000019
v -0.0671520424 0.00246264592 0.075
v -0.0671085835 0.00251728147 0.0430000019
v -0.0670188379 0.00262423605 0.075
v -0.0667786312 -0.00287735909 0.0430000019
v -0.0668773603 -0.00277863353 0.075
v -0.066925416 -0.00272799343 0.0430000019
v -0.06697258 -0.00267652243 0.075
v -0.06697258 0.00267652243 0.0430000019
v -0.066925416 0.00272799343 0.075
v -0.0668773603 0.00277863353 0.0430000019
v -0.0667786312 0.00287735909 0.075
v -0.0665172815 -0.00310858399 0.0430000019
v -0.0666242361 -0.00301883847 0.075
v -0.0666765213 -0.0029725793 0.0430000019
v -0.0667279911 -0.00292541474 0.075
v -0.0667279911 0.00292541474 0.0430000019
v -0.0666765213 0.0029725793 0.075
v -0.0666242361 0.00301883847 0.0430000019
v -0.0665172815 0.00310858399 0.075
v -0.0662943077 -0.00327660829 0.0430000019
v -0.0662943077 -0.00327660829 0.075
v -0.0663511419 -0.00323606789 0.0430000019
v -0.0664626455 -0.00315204293 0.075
v -0.0664626455 0.00315204293 0.0430000019
v -0.0663511419 0.00323606789 0.075
v -0.0662943077 0.00327660829 0.0430000019
v -0.0662943077 0.00327660829 0.075
v -0.0660601521 -0.00342866927 0.0430000019
v -0.0662367725 -0.00331615031 0.075
v -0.0662367725 0.00331615031 0.0430000019
v -0.0660601521 0.00342866927 0.075
v -0.0657534838 -0.00359517604 0.0430000019
v -0.0658778858 -0.00353179038 0.075
v -0.0659392405 -0.00349847883 0.0430000019
v -0.065999999 -0.00346410155 0.075
v -0.065999999 0.00346410155 0.0430000019
v -0.0659392405 0.00349847883 0.075
v -0.0658778858 0.00353179038 0.0430000019
v -0.0657534838 0.00359517604 0.075
v -0.0655629253 -0.00368201941 0.0430000019
v -0.0656904745 -0.00362523109 0.075
v -0.0655010128 -0.000798101649 0.0430000019
v -0.0655010128 -0.000798101649 0.075
v -0.0655279493 -0.000745230913 0.0430000019
v -0.0655279493 -0.000745230913 0.075
v -0.06562572 -0.000497031882 0.0430000019
v -0.06562572 -0.000497031882 0.075
v -0.0657000017 -2.08189962e-19 0.0430000019
v -0.0656834555 -0.000236594267 0.075
v -0.0656997395 2.9669092e-05 0.0430000019
v -0.0657000017 2.08189962e-19 0.075
v -0.0656790686 0.000265938584 0.0430000019
v -0.0656790686 0.000265938584 0.075
v -0.0656167984 0.000525328889 0.0430000019
v -0.0656167984 0.000525328889 0.075
v -0.0655147123 0.000771783814 0.0430000019
v -0.0655147123 0.000771783814 0.075
v -0.0656904745 0.00362523109 0.0430000019
v -0.0655629253 0.00368201941 0.075
v -0.0653022718 -0.00378207415 0.0430000019
v -0.0653680801 -0.00375877053 0.075
v -0.0654334736 -0.00373432159 0.0430000019
v -0.0654984283 -0.00370873541 0.075
v -0.0652633476 -0.00113752201 0.0430000019
v -0.0652633476 -0.00113752201 0.075
v -0.0653753281 -0.000999234915 0.0430000019
v -0.0653753281 -0.000999234915 0.075
v -0.0654868555 0.000824176371 0.0430000019
v -0.0654868555 0.000824176371 0.075
v -0.0653576803 0.00102308556 0.0430000019
v -0.0653576803 0.00102308556 0.075
v -0.0654984283 0.00370873541 0.0430000019
v -0.0654334736 0.00373432159 0.075
v -0.0653680801 0.00375877053 0.0430000019
v -0.0653022718 0.00378207415 0.075
v -0.0650352764 -0.00386370331 0.0430000019
v -0.0652360678 -0.00380422592 0.075
v -0.0650230837 -0.00135768041 0.0430000019
v -0.0650230837 -0.00135768041 0.075
v -0.0651593971 -0.00124330126 0.0430000019
v -0.0651593971 -0.00124330126 0.075
v -0.0652433014 0.00115939721 0.0430000019
v -0.0652433014 0.00115939721 0.075
v -0.0651375198 0.00126334623 0.0430000019
v -0.0651375198 0.00126334623 0.075
v -0.0652360678 0.00380422592 0.0430000019
v -0.0650352764 0.00386370331 0.075
v -0.064763236 -0.00392650872 0.0430000019
v -0.0649676895 -0.00388118297 0.075
v -0.0647717857 -0.00151471108 0.0430000019
v -0.0647717857 -0.00151471108 0.075
v -0.0648241758 -0.00148685351 0.0430000019
v -0.0648241758 -0.00148685351 0.075
v -0.0649992371 0.0013753289 0.0430000019
v -0.0649992371 0.0013753289 0.075
v -0.0647981024 0.00150101095 0.0430000019
v -0.0647981024 0.00150101095 0.075
v -0.0649676895 0.00388118297 0.0430000019
v -0.064763236 0.00392650872 0.075
v -0.064556694 -0.00396107227 0.0430000019
v -0.0646945906 -0.00393923104 0.075
v -0.0645253277 -0.00161679611 0.0430000019
v -0.0645253277 -0.00161679611 0.075
v -0.0647452307 0.00152794987 0.0430000019
v -0.0647452307 0.00152794987 0.075
v -0.0646945906 0.00393923104 0.0430000019
v -0.064556694 0.00396107227 0.075
v -0.064279027 -0.00399025619 0.0430000019
v -0.0644874763 -0.00397018462 0.075
v -0.0642659378 -0.00167907014 0.0430000019
v -0.0642659378 -0.00167907014 0.075
v -0.0644970322 0.00162571803 0.0430000019
v -0.0644970322 0.00162571803 0.075
v -0.0644874763 0.00397018462 0.0430000019
v -0.064279027 0.00399025619 0.075
v -0.064000001 -0.00400000006 0.0430000019
v -0.064000001 -0.00400000006 0.075
v -0.0640698099 -0.0039993909 0.0430000019
v -0.064209342 -0.00399451822 0.075
v -0.064000001 -0.00170000002 0.0430000019
v -0.064000001 -0.00170000002 0.075
v -0.0642365932 0.00168345571 0.0430000019
v -0.0642365932 0.00168345571 0.075
v -0.064209342 0.00399451822 0.0430000019
v -0.0640698099 0.0039993909 0.075
v -0.064000001 0.00400000006 0.0430000019
v -0.064000001 0.00400000006 0.075
v -0.0637906551 -0.00399451822 0.0430000019
v -0.063930192 -0.0039993909 0.075
v -0.0637634039 -0.00168345571 0.0430000019
v -0.0637634039 -0.00168345571 0.075
v -0.0639703321 0.00169974104 0.0430000019
v -0.0639703321 0.00169974104 0.075
v -0.063930192 0.0039993909 0.0430000019
v -0.0637906551 0.00399451822 0.075
v -0.0635125208 -0.00397018462 0.0430000019
v -0.0637209749 -0.00399025619 0.075
v -0.0635029697 -0.00162571803 0.0430000019
v -0.0635029697 -0.00162571803 0.075
v -0.0637340593 0.00167907014 0.0430000019
v -0.0637340593 0.00167907014 0.075
v -0.0637209749 0.00399025619 0.0430000019
v -0.0635125208 0.00397018462 0.075
v -0.0633054066 -0.00393923104 0.0430000019
v -0.0634433079 -0.00396107227 0.075
v -0.0632547712 -0.00152794987 0.0430000019
v -0.0632547712 -0.00152794987 0.075
v -0.0634746695 0.00161679611 0.0430000019
v -0.0634746695 0.00161679611 0.075
v -0.0634433079 0.00396107227 0.0430000019
v -0.0633054066 0.00393923104 0.075
v -0.0630323124 -0.00388118297 0.0430000019
v -0.0632367659 -0.00392650872 0.075
v -0.0632018995 -0.00150101095 0.0430000019
v -0.0632018995 -0.00150101095 0.075
v -0.0630007648 -0.0013753289 0.0430000019
v -0.0630007648 -0.0013753289 0.075
v -0.0631758213 0.00148685351 0.0430000019
v -0.0631758213 0.00148685351 0.075
v -0.0632282162 0.00151471108 0.0430000019
v -0.0632282162 0.00151471108 0.075
v -0.0632367659 0.00392650872 0.0430000019
v -0.0630323124 0.00388118297 0.075
v -0.0627639341 -0.00380422592 0.0430000019
v -0.0629647255 -0.00386370331 0.075
v -0.0628624773 -0.00126334623 0.0430000019
v -0.0628624773 -0.00126334623 0.075
v -0.0627567005 -0.00115939721 0.0430000019
v -0.0627567005 -0.00115939721 0.075
v -0.0628406048 0.00124330126 0.0430000019
v -0.0628406048 0.00124330126 0.075
v -0.0629769135 0.00135768041 0.0430000019
v -0.0629769135 0.00135768041 0.075
v -0.0629647255 0.00386370331 0.0430000019
v -0.0627639341 0.00380422592 0.075
v -0.0626319218 -0.00375877053 0.0430000019
v -0.0626977253 -0.00378207415 0.075
v -0.0625015736 -0.00370873541 0.0430000019
v -0.0625665283 -0.00373432159 0.075
v -0.0626423216 -0.00102308556 0.0430000019
v -0.0626423216 -0.00102308556 0.075
v -0.0625131464 -0.000824176371 0.0430000019
v -0.0625131464 -0.000824176371 0.075
v -0.0626246691 0.000999234915 0.0430000019
v -0.0626246691 0.000999234915 0.075
v -0.0627366543 0.00113752201 0.0430000019
v -0.0627366543 0.00113752201 0.075
v -0.0625665283 0.00373432159 0.0430000019
v -0.0625015736 0.00370873541 0.075
v -0.0626977253 0.00378207415 0.0430000019
v -0.0626319218 0.00375877053 0.075
v -0.0623095274 -0.00362523109 0.0430000019
v -0.0624370766 -0.00368201941 0.075
v -0.0624852896 -0.000771783814 0.0430000019
v -0.0624852896 -0.000771783814 0.075
v -0.0623832035 -0.000525328889 0.0430000019
v -0.0623832035 -0.000525328889 0.075
v -0.0623209286 -0.000265938584 0.0430000019
v -0.0623209286 -0.000265938584 0.075
v -0.0623002577 -2.9669092e-05 0.0430000019
v -0.0623002577 -2.9669092e-05 0.075
v -0.0623165464 0.000236594267 0.0430000019
v -0.0623165464 0.000236594267 0.075
v -0.0623742819 0.000497031882 0.0430000019
v -0.0623742819 0.000497031882 0.075
v -0.0624720478 0.000745230913 0.0430000019
v -0.0624720478 0.000745230913 0.075
v -0.0624989891 0.000798101649 0.0430000019
v -0.0624989891 0.000798101649 0.075
v -0.0624370766 0.00368201941 0.0430000019
v -0.0623095274 0.00362523109 0.075
v -0.0621221161 -0.00353179038 0.0430000019
v -0.0622465134 -0.00359517604 0.075
v -0.0620607615 -0.00349847883 0.0430000019
v -0.0620607615 -0.00349847883 0.075
v -0.0620607615 0.00349847883 0.0430000019
v -0.0620607615 0.00349847883 0.075
v -0.0622465134 0.00359517604 0.0430000019
v -0.0621221161 0.00353179038 0.075
v -0.0617632294 -0.00331615031 0.0430000019
v -0.0619999981 -0.00346410155 0.075
v -0.0619999981 0.00346410155 0.0430000019
v -0.0617632294 0.00331615031 0.0730000019
v -0.0619999981 0.00346410155 0.075
v -0.0619999981 0.049000001 0.0730000019
v -0.0619999981 0.049000001 0.075
v -0.0617056942 -0.00327660829 0.0430000019
v -0.0617056942 -0.00327660829 0.075
v -0.0615373564 -0.00315204293 0.0430000019
v -0.06164886 -0.00323606789 0.075
v -0.06164886 0.00323606789 0.0430000019
v -0.0615373564 0.00315204293 0.0730000019
v -0.0617056942 0.00327660829 0.0430000019
v -0.0617056942 0.00327660829 0.0730000019
v -0.0613757658 -0.00301883847 0.0430000019
v -0.0614827204 -0.00310858399 0.075
v -0.061272006 -0.00292541474 0.0430000019
v -0.0613234758 -0.0029725793 0.075
v -0.0613234758 0.0029725793 0.0430000019
v -0.061272006 0.00292541474 0.0730000019
v -0.0614827204 0.00310858399 0.0430000019
v -0.0613757658 0.00301883847 0.0730000019
v -0.0611226416 -0.00277863353 0.0430000019
v -0.0612213659 -0.00287735909 0.075
v -0.061027422 -0.00267652243 0.0430000019
v -0.0610745859 -0.00272799343 0.075
v -0.0610745859 0.00272799343 0.0430000019
v -0.061027422 0.00267652243 0.0730000019
v -0.0612213659 0.00287735909 0.0430000019
v -0.0611226416 0.00277863353 0.0730000019
v -0.0608914185 -0.00251728147 0.0430000019
v -0.060981164 -0.00262423605 0.075
v -0.0607639313 -0.00235114098 0.0430000019
v -0.0608479548 -0.00246264592 0.075
v -0.0608479548 0.00246264592 0.0430000019
v -0.0607639313 0.00235114098 0.0730000019
v -0.060981164 0.00262423605 0.0430000019
v -0.0608914185 0.00251728147 0.0730000019
v -0.0607233906 -0.00229430571 0.0430000019
v -0.0607233906 -0.00229430571 0.075
v -0.0605358982 -0.00200000003 0.0430000019
v -0.0606838512 -0.00223677158 0.075
v -0.060501523 -0.00193923846 0.0430000019
v -0.060501523 -0.00193923846 0.075
v -0.060501523 0.00193923846 0.0430000019
v -0.060501523 0.00193923846 0.075
v -0.0606838512 0.00223677158 0.0430000019
v -0.0605358982 0.00200000003 0.0730000019
v -0.0605358982 0.00200000003 0.075
v -0.0607233906 0.00229430571 0.0430000019
v -0.0607233906 0.00229430571 0.0730000019
v -0.0604048252 -0.00175348461 0.0430000019
v -0.0604682112 -0.00187788621 0.075
v -0.0603179789 -0.00156292453 0.0430000019
v -0.0603747702 -0.00169047311 0.075
v -0.0602656794 -0.00143347174 0.0430000019
v -0.0602912664 -0.00149842635 0.075
v -0.0602912664 0.00149842635 0.0430000019
v -0.0602656794 0.00143347174 0.075
v -0.0603747702 0.00169047311 0.0430000019
v -0.0603179789 0.00156292453 0.075
v -0.0604682112 0.00187788621 0.0430000019
v -0.0604048252 0.00175348461 0.075
v -0.0602179241 -0.00130227268 0.0430000019
v -0.0602412271 -0.00136808053 0.075
v -0.0601362944 -0.0010352762 0.0430000019
v -0.060195775 -0.00123606801 0.075
v -0.0600734901 -0.000763235986 0.0430000019
v -0.0601188183 -0.000967687592 0.075
v -0.060038929 -0.000556692407 0.0430000019
v -0.0600607681 -0.000694592744 0.075
v -0.0600097418 -0.000279025901 0.0430000019
v -0.0600298166 -0.00048747737 0.075
v -0.0600006104 -6.98096259e-05 0.0430000019
v -0.0600054836 -0.000209343825 0.075
v -0.0600054836 0.000209343825 0.0430000019
v -0.0600006104 6.98096259e-05 0.075
v -0.0600298166 0.00048747737 0.0430000019
v -0.0600097418 0.000279025901 0.075
v -0.0600607681 0.000694592744 0.0430000019
v -0.060038929 0.000556692407 0.075
v -0.0601188183 0.000967687592 0.0430000019
v -0.0600734901 0.000763235986 0.075
v -0.060195775 0.00123606801 0.0430000019
v -0.0601362944 0.0010352762 0.075
v -0.0602412271 0.00136808053 0.0430000019
v -0.0602179241 0.00130227268 0.075
v -0.06 -3.55271373e-18 0.075
v -0.06 0 0.0430000019
v -0.0297820735 0.0496977282 0.0430000019
v -0.0297587705 0.0496319199 0.075
v -0.0298637033 0.0499647236 0.0430000019
v -0.029804225 0.0497639322 0.075
v -0.0299265099 0.050236764 0.0430000019
v -0.0298811817 0.0500323105 0.075
v -0.0299610734 0.050443306 0.0430000019
v -0.0299392319 0.0503054094 0.075
v -0.0299902558 0.050720973 0.0430000019
v -0.0299701858 0.0505125237 0.075
v -0.03 0.050999999 0.0430000019
v -0.0299945188 0.050790658 0.075
v -0.0299945188 0.0512093449 0.0430000019
v -0.0299993896 0.051069808 0.075
v -0.0299701858 0.0514874792 0.0430000019
v -0.0299902558 0.0512790251 0.075
v -0.0299392319 0.0516945934 0.0430000019
v -0.0299610734 0.0515566921 0.075
v -0.0298811817 0.0519676876 0.0430000019
v -0.0299265099 0.0517632341 0.075
v -0.029804225 0.0522360659 0.0430000019
v -0.0298637033 0.0520352745 0.075
v -0.0297587705 0.0523680782 0.0430000019
v -0.0297820735 0.0523022747 0.075
v -0.0295951772 0.0492465162 0.0430000019
v -0.0295317912 0.0491221142 0.075
v -0.0296820188 0.0494370747 0.0430000019
v -0.0296252322 0.0493095255 0.075
v -0.0297343206 0.0495665264 0.0430000019
v -0.0297087359 0.0495015717 0.075
v -0.0297087359 0.0524984264 0.0430000019
v -0.0297343206 0.0524334717 0.075
v -0.0296252322 0.0526904726 0.0430000019
v -0.0296820188 0.0525629234 0.075
v -0.0295317912 0.0528778839 0.0430000019
v -0.0295951772 0.0527534866 0.075
v -0.029276607 0.0487056923 0.0430000019
v -0.029276607 0.0487056923 0.0730000019
v -0.029428668 0.0489398479 0.0430000019
v -0.029428668 0.0489398479 0.0730000019
v -0.0294984794 0.0490607595 0.0430000019
v -0.0294641018 0.049000001 0.0730000019
v -0.0294641018 0.049000001 0.075
v -0.0294984794 0.0529392385 0.0430000019
v -0.0294984794 0.0529392385 0.075
v -0.0293161511 0.0532367706 0.0430000019
v -0.0294641018 0.0530000019 0.075
v -0.029276607 0.0532943058 0.0430000019
v -0.029276607 0.0532943058 0.075
v -0.0291085839 0.0484827185 0.0430000019
v -0.0291085839 0.0484827185 0.0730000019
v -0.0292360687 0.0486488581 0.0430000019
v -0.0292360687 0.0486488581 0.0730000019
v -0.0291520429 0.0534626436 0.0430000019
v -0.0292360687 0.05335114 0.075
v -0.0290188384 0.0536242342 0.0430000019
v -0.0291085839 0.0535172796 0.075
v -0.0288773584 0.0482213688 0.0430000019
v -0.0288773584 0.0482213688 0.0730000019
v -0.0289725804 0.0483234787 0.0430000019
v -0.0289725804 0.0483234787 0.0730000019
v -0.0289254141 0.053727994 0.0430000019
v -0.0289725804 0.0536765242 0.075
v -0.0287786341 0.0538773584 0.0430000019
v -0.0288773584 0.0537786341 0.075
v -0.0286242366 0.0479811621 0.0430000019
v -0.0286242366 0.0479811621 0.0730000019
v -0.028727994 0.048074584 0.0430000019
v -0.028727994 0.048074584 0.0730000019
v -0.0286765218 0.053972578 0.0430000019
v -0.028727994 0.0539254141 0.075
v -0.028517282 0.0541085815 0.0430000019
v -0.0286242366 0.054018836 0.075
v -0.0282943058 0.0477233934 0.0430000019
v -0.0282943058 0.0477233934 0.0730000019
v -0.028462646 0.0478479576 0.0430000019
v -0.028462646 0.0478479576 0.0730000019
v -0.02835114 0.0542360687 0.0430000019
v -0.028462646 0.0541520452 0.075
v -0.0282943058 0.0542766094 0.0430000019
v -0.0282943058 0.0542766094 0.075
v -0.0282367706 0.0476838493 0.0430000019
v -0.0282367706 0.0476838493 0.0730000019
v -0.0280601525 0.054428668 0.0430000019
v -0.0282367706 0.0543161488 0.075
v -0.0278778863 0.0474682093 0.0430000019
v -0.0278778863 0.0474682093 0.0730000019
v -0.0279999995 0.0475358963 0.0430000019
v -0.0279999995 0.0475358963 0.0730000019
v -0.0279392385 0.054498477 0.0430000019
v -0.0279999995 0.0544641018 0.075
v -0.0277534842 0.0545951748 0.0430000019
v -0.0278778863 0.0545317888 0.075
v -0.0276904726 0.0473747683 0.0430000019
v -0.0276904726 0.0473747683 0.0730000019
v -0.0275010109 0.0502018976 0.0430000019
v -0.0275010109 0.0502018976 0.075
v -0.0275279498 0.0502547693 0.0430000019
v -0.0275279498 0.0502547693 0.075
v -0.0276257181 0.0505029678 0.0430000019
v -0.0276257181 0.0505029678 0.075
v -0.0276999998 0.050999999 0.0430000019
v -0.0276999998 0.050999999 0.075
v -0.0276997399 0.0510296679 0.0430000019
v -0.0276997399 0.0510296679 0.075
v -0.027679069 0.0512659407 0.0430000019
v -0.027679069 0.0512659407 0.075
v -0.0276167965 0.0515253305 0.0430000019
v -0.0276167965 0.0515253305 0.075
v -0.0275147104 0.0517717838 0.0430000019
v -0.0275147104 0.0517717838 0.075
v -0.0275629234 0.0546820211 0.0430000019
v -0.0276904726 0.0546252298 0.075
v -0.0273680806 0.04724123 0.0430000019
v -0.0273680806 0.04724123 0.0730000019
v -0.0274984264 0.0472912645 0.0430000019
v -0.0274984264 0.0472912645 0.0730000019
v -0.0272633457 0.0498624802 0.0430000019
v -0.0272633457 0.0498624802 0.075
v -0.0273753285 0.0500007629 0.0430000019
v -0.0273753285 0.0500007629 0.075
v -0.0274868536 0.0518241787 0.0430000019
v -0.0274868536 0.0518241787 0.075
v -0.0273576808 0.0520230865 0.0430000019
v -0.0273576808 0.0520230865 0.075
v -0.0274334717 0.0547343206 0.0430000019
v -0.0274984264 0.0547087336 0.075
v -0.0273022723 0.0547820759 0.0430000019
v -0.0273680806 0.0547587729 0.075
v -0.0272360682 0.0471957731 0.0430000019
v -0.0272360682 0.0471957731 0.0730000019
v -0.0270230865 0.0496423197 0.0430000019
v -0.0270230865 0.0496423197 0.075
v -0.0271593976 0.0497566986 0.0430000019
v -0.0271593976 0.0497566986 0.075
v -0.0272433019 0.0521593952 0.0430000019
v -0.0272433019 0.0521593952 0.075
v -0.0271375227 0.0522633457 0.0430000019
v -0.0271375227 0.0522633457 0.075
v -0.0270352769 0.0548637056 0.0430000019
v -0.0272360682 0.054804225 0.075
v -0.0269676876 0.0471188164 0.0430000019
v -0.0269676876 0.0471188164 0.0730000019
v -0.0267717838 0.0494852877 0.0430000019
v -0.0267717838 0.0494852877 0.075
v -0.0268241763 0.0495131445 0.0430000019
v -0.0268241763 0.0495131445 0.075
v -0.0269992352 0.0523753309 0.0430000019
v -0.0269992352 0.0523753309 0.075
v -0.0267981005 0.0525010109 0.0430000019
v -0.0267981005 0.0525010109 0.075
v -0.0267632365 0.0549265099 0.0430000019
v -0.0269676876 0.0548811817 0.075
v -0.0266945934 0.047060771 0.0430000019
v -0.0266945934 0.047060771 0.0730000019
v -0.0265253282 0.0493832016 0.0430000019
v -0.0265253282 0.0493832016 0.075
v -0.0267452312 0.0525279522 0.0430000019
v -0.0267452312 0.0525279522 0.075
v -0.0265566921 0.054961071 0.0430000019
v -0.0266945934 0.0549392319 0.075
v -0.0264874768 0.0470298147 0.0430000019
v -0.0264874768 0.0470298147 0.0730000019
v -0.0262659383 0.0493209314 0.0430000019
v -0.0262659383 0.0493209314 0.075
v -0.0264970326 0.0526257181 0.0430000019
v -0.0264970326 0.0526257181 0.075
v -0.0262790251 0.0549902582 0.0430000019
v -0.0264874768 0.0549701834 0.075
v -0.0262093449 0.0470054817 0.0430000019
v -0.0262093449 0.0470054817 0.0730000019
v -0.0260296702 0.0493002605 0.0430000019
v -0.0260296702 0.0493002605 0.075
v -0.0262365937 0.0526834536 0.0430000019
v -0.0262365937 0.0526834536 0.075
v -0.0260698104 0.0549993896 0.0430000019
v -0.0262093449 0.0549945164 0.075
v -0.025999999 0.0469999981 0.0430000019
v -0.025999999 0.0469999981 0.0730000019
v -0.0259301901 0.0470006084 0.0430000019
v -0.0259301901 0.0470006084 0.0730000019
v -0.0257634068 0.0493165445 0.0430000019
v -0.0257634068 0.0493165445 0.075
v -0.025999999 0.0526999998 0.0430000019
v -0.025999999 0.0526999998 0.075
v -0.0257906556 0.0549945164 0.0430000019
v -0.0259301901 0.0549993896 0.075
v -0.025999999 0.055 0.0430000019
v -0.025999999 0.055 0.075
v -0.025720973 0.0470097446 0.0430000019
v -0.025720973 0.0470097446 0.0730000019
v -0.0255029678 0.04937428 0.0430000019
v -0.0255029678 0.04937428 0.075
v -0.0257340622 0.0526790714 0.0430000019
v -0.0257340622 0.0526790714 0.075
v -0.0255125237 0.0549701834 0.0430000019
v -0.025720973 0.0549902582 0.075
v -0.0254433084 0.0470389271 0.0430000019
v -0.0254433084 0.0470389271 0.0730000019
v -0.0252547693 0.0494720507 0.0430000019
v -0.0252547693 0.0494720507 0.075
v -0.0254746699 0.0526167965 0.0430000019
v -0.0254746699 0.0526167965 0.075
v -0.025305407 0.0549392319 0.0430000019
v -0.0254433084 0.054961071 0.075
v -0.025236764 0.047073493 0.0430000019
v -0.025236764 0.047073493 0.0730000019
v -0.0252018976 0.0494989872 0.0430000019
v -0.0252018976 0.0494989872 0.075
v -0.0250007653 0.0496246719 0.0430000019
v -0.0250007653 0.0496246719 0.075
v -0.0251758242 0.0524868536 0.0430000019
v -0.0251758242 0.0524868536 0.075
v -0.0252282166 0.0525147104 0.0430000019
v -0.0252282166 0.0525147104 0.075
v -0.0250323129 0.0548811817 0.0430000019
v -0.025236764 0.0549265099 0.075
v -0.0249647236 0.0471362972 0.0430000019
v -0.0249647236 0.0471362972 0.0730000019
v -0.0248624778 0.0497366524 0.0430000019
v -0.0248624778 0.0497366524 0.075
v -0.0247566986 0.0498406029 0.0430000019
v -0.0247566986 0.0498406029 0.075
v -0.0248406029 0.0522432995 0.0430000019
v -0.0248406029 0.0522432995 0.075
v -0.0249769139 0.0523576784 0.0430000019
v -0.0249769139 0.0523576784 0.075
v -0.0247639322 0.054804225 0.0430000019
v -0.0249647236 0.0548637056 0.075
v -0.0246977282 0.047217927 0.0430000019
v -0.0246977282 0.047217927 0.0730000019
v -0.0245665288 0.0472656775 0.0430000019
v -0.0245665288 0.0472656775 0.0730000019
v -0.0246423197 0.0499769163 0.0430000019
v -0.0246423197 0.0499769163 0.075
v -0.0245131469 0.0501758242 0.0430000019
v -0.0245131469 0.0501758242 0.075
v -0.0246246719 0.0519992352 0.0430000019
v -0.0246246719 0.0519992352 0.075
v -0.0247366548 0.0521375227 0.0430000019
v -0.0247366548 0.0521375227 0.075
v -0.024501574 0.0547087336 0.0430000019
v -0.0245665288 0.0547343206 0.075
v -0.0246319199 0.0547587729 0.0430000019
v -0.0246977282 0.0547820759 0.075
v -0.0244370747 0.0473179817 0.0430000019
v -0.0244370747 0.0473179817 0.0730000019
v -0.0244852901 0.0502282143 0.0430000019
v -0.0244852901 0.0502282143 0.075
v -0.024383204 0.0504746723 0.0430000019
v -0.024383204 0.0504746723 0.075
v -0.0243209291 0.0507340622 0.0430000019
v -0.0243209291 0.0507340622 0.075
v -0.0243000007 0.050999999 0.0430000019
v -0.0243000007 0.050999999 0.075
v -0.0243165445 0.0512365961 0.0430000019
v -0.0243165445 0.0512365961 0.075
v -0.0243742824 0.0514970303 0.0430000019
v -0.0243742824 0.0514970303 0.075
v -0.0244720507 0.0517452288 0.0430000019
v -0.0244720507 0.0517452288 0.075
v -0.0244989896 0.0517981005 0.0430000019
v -0.0244989896 0.0517981005 0.075
v -0.0243095279 0.0546252298 0.0430000019
v -0.0244370747 0.0546820211 0.075
v -0.024000001 0.00200000003 0.0730000019
v -0.024000001 0.00200000003 0.075
v -0.0242465162 0.0474048233 0.0430000019
v -0.0242465162 0.0474048233 0.0730000019
v -0.0240607619 0.0475015211 0.0430000019
v -0.0240607619 0.0475015211 0.0730000019
v -0.024000001 0.0475358963 0.075
v -0.024000001 0.0544641018 0.0430000019
v -0.0240607619 0.054498477 0.075
v -0.0241221142 0.0545317888 0.0430000019
v -0.0242465162 0.0545951748 0.075
v -0.0239398479 0.0475713301 0.0430000019
v -0.0237632275 0.0476838493 0.075
v -0.0237632275 0.0543161488 0.0430000019
v -0.0239398479 0.054428668 0.075
v -0.0237056947 0.0477233934 0.0430000019
v -0.0237056947 0.0477233934 0.075
v -0.0236488581 0.0477639341 0.0430000019
v -0.0235373545 0.0478479576 0.075
v -0.0235373545 0.0541520452 0.0430000019
v -0.0236488581 0.0542360687 0.075
v -0.0237056947 0.0542766094 0.0430000019
v -0.0237056947 0.0542766094 0.075
v -0.0234827185 0.0478914165 0.0430000019
v -0.0233757639 0.0479811621 0.075
v -0.0233234787 0.04802742 0.0430000019
v -0.0232720065 0.048074584 0.075
v -0.0232720065 0.0539254141 0.0430000019
v -0.0233234787 0.053972578 0.075
v -0.0233757639 0.054018836 0.0430000019
v -0.0234827185 0.0541085815 0.075
v -0.0232213664 0.0481226397 0.0430000019
v -0.0231226397 0.0482213688 0.075
v -0.023074584 0.0482720089 0.0430000019
v -0.02302742 0.0483234787 0.075
v -0.02302742 0.0536765242 0.0430000019
v -0.023074584 0.053727994 0.075
v -0.0231226397 0.0537786341 0.0430000019
v -0.0232213664 0.0538773584 0.075
v -0.0229811621 0.0483757639 0.0430000019
v -0.0228914165 0.0484827185 0.075
v -0.0228479576 0.0485373545 0.0430000019
v -0.0227639318 0.0486488581 0.075
v -0.0227639318 0.05335114 0.0430000019
v -0.0228479576 0.0534626436 0.075
v -0.0228914165 0.0535172796 0.0430000019
v -0.0229811621 0.0536242342 0.075
v -0.0227233911 0.0487056923 0.0430000019
v -0.0227233911 0.0487056923 0.075
v -0.0226838493 0.0487632275 0.0430000019
v -0.0225713301 0.0489398479 0.075
v -0.0225358987 0.049000001 0.0430000019
v -0.0225015211 0.0490607595 0.075
v -0.0225015211 0.0529392385 0.0430000019
v -0.0225015211 0.0529392385 0.075
v -0.0225358987 0.0530000019 0.0430000019
v -0.0226838493 0.0532367706 0.075
v -0.0227233911 0.0532943058 0.0430000019
v -0.0227233911 0.0532943058 0.075
v -0.0224682093 0.0491221142 0.0430000019
v -0.0224048233 0.0492465162 0.075
v -0.0223747683 0.0493095255 0.0430000019
v -0.0223179817 0.0494370747 0.075
v -0.0222912645 0.0495015717 0.0430000019
v -0.0222656775 0.0495665264 0.075
v -0.0222656775 0.0524334717 0.0430000019
v -0.0222912645 0.0524984264 0.075
v -0.0223179817 0.0525629234 0.0430000019
v -0.0223747683 0.0526904726 0.075
v -0.0224048233 0.0527534866 0.0430000019
v -0.0224682093 0.0528778839 0.075
v -0.02224123 0.0496319199 0.0430000019
v -0.0222179246 0.0496977282 0.075
v -0.0221957731 0.0497639322 0.0430000019
v -0.0221362972 0.0499647236 0.075
v -0.0221188164 0.0500323105 0.0430000019
v -0.0220734906 0.050236764 0.075
v -0.0220607686 0.0503054094 0.0430000019
v -0.0220389271 0.050443306 0.075
v -0.0220298147 0.0505125237 0.0430000019
v -0.0220097446 0.050720973 0.075
v -0.0220000005 0.050999999 0.0430000019
v -0.0220000005 0.050999999 0.075
v -0.0220006084 0.051069808 0.0430000019
v -0.0220054817 0.0512093449 0.075
v -0.0220097446 0.0512790251 0.0430000019
v -0.0220298147 0.0514874792 0.075
v -0.0220389271 0.0515566921 0.0430000019
v -0.0220607686 0.0516945934 0.075
v -0.0220734906 0.0517632341 0.0430000019
v -0.0221188164 0.0519676876 0.075
v -0.0221362972 0.0520352745 0.0430000019
v -0.0221957731 0.0522360659 0.075
v -0.0222179246 0.0523022747 0.0430000019
v -0.02224123 0.0523680782 0.075
f 2 1 14
f 2 15 1
f 14 1 13
f 103 13 1
f 105 1 15
f 103 1 105
f 106 2 14
f 16 15 2
f 106 16 2
f 4 5 3
f 4 3 32
f 5 135 3
f 32 3 31
f 3 147 31
f 3 135 133
f 3 133 147
f 6 5 4
f 102 6 4
f 102 4 32
f 6 7 5
f 7 121 5
f 5 121 119
f 5 119 135
f 8 7 6
f 102 8 6
f 8 9 7
f 9 99 7
f 7 99 97
f 7 97 121
f 10 9 8
f 104 10 8
f 104 8 102
f 10 11 9
f 11 101 9
f 9 101 99
f 12 11 10
f 104 12 10
f 12 13 11
f 13 103 11
f 11 103 101
f 14 13 12
f 104 14 12
f 106 14 104
f 16 17 15
f 107 15 17
f 105 15 107
f 18 17 16
f 106 18 16
f 18 19 17
f 109 17 19
f 107 17 109
f 20 19 18
f 106 20 18
f 20 21 19
f 109 19 21
f 22 21 20
f 106 22 20
f 22 23 21
f 125 21 23
f 109 21 111
f 111 21 123
f 123 21 125
f 24 23 22
f 108 24 22
f 108 22 106
f 24 25 23
f 139 23 25
f 125 23 137
f 137 23 139
f 26 25 24
f 108 26 24
f 26 33 25
f 149 25 33
f 139 25 149
f 34 33 26
f 108 34 26
f 28 29 27
f 28 27 44
f 29 175 27
f 44 27 43
f 27 175 43
f 30 29 28
f 102 30 28
f 100 28 44
f 102 28 100
f 30 31 29
f 31 145 29
f 29 145 157
f 157 165 29
f 29 165 175
f 32 31 30
f 102 32 30
f 31 147 145
f 34 35 33
f 159 33 35
f 149 33 151
f 151 33 159
f 36 35 34
f 108 36 34
f 36 37 35
f 35 37 337
f 159 35 167
f 167 35 177
f 177 35 337
f 38 37 36
f 36 108 38
f 38 45 37
f 320 37 45
f 337 37 320
f 46 45 38
f 338 46 38
f 38 108 110
f 38 110 112
f 38 112 124
f 124 126 38
f 126 138 38
f 38 138 140
f 38 140 150
f 38 150 152
f 152 160 38
f 160 168 38
f 168 178 38
f 336 38 178
f 338 38 336
f 40 41 39
f 40 39 54
f 41 175 39
f 54 39 53
f 39 175 53
f 42 41 40
f 100 42 40
f 100 40 54
f 42 43 41
f 43 175 41
f 44 43 42
f 100 44 42
f 46 47 45
f 322 45 47
f 320 45 322
f 48 47 46
f 321 48 46
f 321 46 338
f 48 49 47
f 325 47 49
f 322 47 325
f 50 49 48
f 50 48 631
f 324 48 321
f 631 48 324
f 50 55 49
f 310 49 55
f 325 49 310
f 56 55 50
f 631 56 50
f 52 53 51
f 52 51 62
f 53 175 51
f 62 51 61
f 51 175 61
f 54 53 52
f 98 54 52
f 122 52 62
f 98 52 122
f 100 54 98
f 56 57 55
f 312 55 57
f 310 55 312
f 58 57 56
f 631 58 56
f 58 63 57
f 302 57 63
f 312 57 302
f 64 63 58
f 631 64 58
f 60 61 59
f 60 59 70
f 61 175 59
f 70 59 69
f 59 175 69
f 62 61 60
f 122 62 60
f 122 60 70
f 64 65 63
f 304 63 65
f 302 63 304
f 66 65 64
f 66 64 631
f 66 71 65
f 294 65 71
f 304 65 294
f 72 71 66
f 72 66 631
f 68 69 67
f 68 67 78
f 69 175 67
f 78 67 77
f 67 175 77
f 70 69 68
f 120 70 68
f 120 68 78
f 122 70 120
f 72 73 71
f 296 71 73
f 294 71 296
f 74 73 72
f 631 74 72
f 74 79 73
f 286 73 79
f 296 73 286
f 80 79 74
f 631 80 74
f 76 77 75
f 76 75 84
f 77 175 75
f 84 75 83
f 75 175 83
f 78 77 76
f 136 78 76
f 136 76 84
f 120 78 136
f 80 81 79
f 288 79 81
f 286 79 288
f 82 81 80
f 631 82 80
f 82 85 81
f 277 81 85
f 288 81 277
f 86 85 82
f 86 82 631
f 84 83 90
f 90 83 89
f 83 275 89
f 175 275 83
f 134 84 90
f 136 84 134
f 86 91 85
f 277 85 91
f 92 91 86
f 631 92 86
f 88 89 87
f 88 87 96
f 89 269 87
f 96 87 95
f 87 267 95
f 87 269 267
f 90 89 88
f 134 90 88
f 148 88 96
f 134 88 148
f 89 275 269
f 92 93 91
f 273 91 93
f 271 91 273
f 277 91 271
f 94 93 92
f 94 92 279
f 631 279 92
f 94 113 93
f 265 93 113
f 273 93 265
f 114 113 94
f 114 94 279
f 96 95 118
f 118 95 117
f 95 247 117
f 95 267 247
f 148 96 118
f 97 100 98
f 97 98 121
f 99 100 97
f 121 98 122
f 99 102 100
f 101 102 99
f 101 104 102
f 103 104 101
f 103 106 104
f 105 106 103
f 105 108 106
f 107 108 105
f 107 110 108
f 109 110 107
f 109 112 110
f 111 112 109
f 111 124 112
f 123 124 111
f 114 127 113
f 243 113 127
f 265 113 243
f 128 127 114
f 128 114 279
f 116 117 115
f 116 115 132
f 117 233 115
f 132 115 131
f 115 231 131
f 115 233 231
f 118 117 116
f 146 118 116
f 158 116 132
f 146 116 158
f 117 247 233
f 148 118 146
f 119 122 120
f 119 120 135
f 121 122 119
f 135 120 136
f 123 126 124
f 125 126 123
f 125 138 126
f 137 138 125
f 128 129 127
f 245 127 129
f 243 127 245
f 130 129 128
f 279 130 128
f 130 141 129
f 229 129 141
f 245 129 229
f 142 141 130
f 279 142 130
f 132 131 144
f 144 131 143
f 131 219 143
f 131 231 219
f 158 132 144
f 133 136 134
f 133 134 147
f 135 136 133
f 147 134 148
f 137 140 138
f 139 140 137
f 139 150 140
f 149 150 139
f 142 153 141
f 217 141 153
f 229 141 217
f 154 153 142
f 279 154 142
f 144 143 156
f 156 143 155
f 143 207 155
f 143 219 207
f 166 144 156
f 158 144 166
f 145 148 146
f 145 146 157
f 147 148 145
f 157 146 158
f 149 152 150
f 151 152 149
f 151 160 152
f 159 160 151
f 154 161 153
f 205 153 161
f 217 153 205
f 162 161 154
f 162 154 279
f 156 155 164
f 164 155 163
f 155 199 163
f 155 207 199
f 166 156 164
f 157 158 165
f 165 158 166
f 159 168 160
f 167 168 159
f 162 169 161
f 197 161 169
f 205 161 197
f 170 169 162
f 170 162 279
f 164 163 174
f 174 163 173
f 163 191 173
f 163 199 191
f 166 164 176
f 176 164 174
f 165 166 175
f 175 166 176
f 167 178 168
f 177 178 167
f 170 179 169
f 189 169 179
f 197 169 189
f 180 179 170
f 279 180 170
f 172 173 171
f 172 171 184
f 173 183 171
f 184 171 183
f 174 173 172
f 176 174 172
f 176 172 184
f 173 191 183
f 175 176 185
f 185 275 175
f 176 184 192
f 185 176 186
f 176 328 186
f 176 192 200
f 176 200 208
f 208 220 176
f 176 220 232
f 232 234 176
f 176 234 248
f 176 248 268
f 176 268 270
f 270 276 176
f 176 276 283
f 283 285 176
f 285 291 176
f 291 293 176
f 176 293 299
f 176 299 301
f 176 301 307
f 176 307 309
f 176 309 315
f 176 315 317
f 176 317 319
f 176 319 328
f 177 188 178
f 187 188 177
f 177 337 187
f 336 178 188
f 180 181 179
f 189 179 181
f 182 181 180
f 279 182 180
f 182 189 181
f 190 189 182
f 279 190 182
f 184 183 192
f 192 183 191
f 185 186 193
f 193 275 185
f 193 186 194
f 186 330 194
f 186 328 330
f 187 196 188
f 195 196 187
f 187 337 195
f 196 336 188
f 190 197 189
f 198 197 190
f 279 198 190
f 192 191 200
f 200 191 199
f 193 194 201
f 201 275 193
f 201 194 202
f 194 330 202
f 195 204 196
f 203 204 195
f 195 337 203
f 204 336 196
f 198 205 197
f 206 205 198
f 206 198 279
f 200 199 208
f 208 199 207
f 201 202 209
f 209 275 201
f 209 202 210
f 202 330 210
f 203 216 204
f 215 216 203
f 203 337 215
f 216 334 204
f 204 334 336
f 206 217 205
f 218 217 206
f 218 206 279
f 208 207 220
f 220 207 219
f 209 210 211
f 211 275 209
f 211 210 212
f 210 332 212
f 210 330 332
f 211 212 221
f 221 284 211
f 211 282 275
f 211 284 282
f 221 212 222
f 212 340 222
f 212 332 340
f 213 214 215
f 213 228 214
f 215 337 213
f 227 228 213
f 213 337 227
f 215 214 216
f 214 334 216
f 228 362 214
f 214 362 334
f 218 229 217
f 230 229 218
f 279 230 218
f 220 219 232
f 232 219 231
f 221 222 223
f 223 292 221
f 221 290 284
f 221 292 290
f 223 222 224
f 222 340 224
f 223 224 235
f 235 300 223
f 223 298 292
f 223 300 298
f 235 224 236
f 224 342 236
f 224 340 342
f 225 226 227
f 225 242 226
f 227 337 225
f 241 242 225
f 225 337 241
f 227 226 228
f 226 360 228
f 242 360 226
f 228 360 362
f 230 245 229
f 246 245 230
f 279 246 230
f 232 231 234
f 234 231 233
f 234 233 248
f 248 233 247
f 235 236 237
f 237 308 235
f 235 306 300
f 235 308 306
f 237 236 238
f 236 342 238
f 237 238 249
f 249 327 237
f 237 314 308
f 237 316 314
f 237 318 316
f 237 327 318
f 249 238 250
f 238 344 250
f 238 342 344
f 239 240 241
f 239 264 240
f 241 337 239
f 263 264 239
f 239 337 263
f 241 240 242
f 240 358 242
f 264 358 240
f 242 358 360
f 244 243 246
f 244 265 243
f 246 243 245
f 279 244 246
f 266 265 244
f 266 244 279
f 248 247 268
f 268 247 267
f 249 250 251
f 251 327 249
f 251 250 252
f 250 344 252
f 251 252 253
f 253 341 251
f 251 329 327
f 251 331 329
f 251 339 331
f 251 341 339
f 253 252 254
f 252 346 254
f 252 344 346
f 253 254 255
f 255 345 253
f 253 343 341
f 253 345 343
f 255 254 256
f 254 348 256
f 254 346 348
f 255 256 257
f 257 364 255
f 255 347 345
f 255 349 347
f 255 364 349
f 257 256 258
f 256 350 258
f 256 348 350
f 257 258 259
f 259 355 257
f 257 353 351
f 257 351 364
f 257 355 353
f 259 258 260
f 258 352 260
f 258 350 363
f 258 363 352
f 259 260 261
f 261 359 259
f 259 357 355
f 259 359 357
f 261 260 262
f 260 354 262
f 260 352 354
f 261 262 263
f 263 337 261
f 261 335 333
f 261 333 361
f 261 337 335
f 261 361 359
f 263 262 264
f 262 358 264
f 262 354 356
f 262 356 358
f 266 273 265
f 274 273 266
f 274 266 279
f 268 267 270
f 270 267 269
f 270 269 276
f 276 269 275
f 272 271 274
f 272 278 271
f 274 271 273
f 278 277 271
f 272 274 279
f 279 278 272
f 276 275 283
f 283 275 282
f 278 288 277
f 278 279 280
f 289 278 280
f 289 288 278
f 280 279 281
f 636 281 279
f 636 279 631
f 281 406 280
f 280 415 289
f 280 404 402
f 280 402 417
f 406 404 280
f 280 417 415
f 407 406 281
f 680 407 281
f 680 281 636
f 283 282 285
f 285 282 284
f 285 284 291
f 291 284 290
f 287 286 289
f 287 296 286
f 289 286 288
f 527 287 289
f 297 296 287
f 527 297 287
f 289 415 425
f 425 423 289
f 423 433 289
f 289 433 431
f 289 431 441
f 289 441 439
f 439 447 289
f 289 447 453
f 453 451 289
f 451 459 289
f 459 481 289
f 289 481 479
f 289 479 495
f 289 495 507
f 507 519 289
f 519 527 289
f 291 290 293
f 293 290 292
f 293 292 299
f 299 292 298
f 295 294 297
f 295 304 294
f 297 294 296
f 527 295 297
f 305 304 295
f 305 295 527
f 299 298 301
f 301 298 300
f 301 300 307
f 307 300 306
f 303 302 305
f 303 312 302
f 305 302 304
f 303 305 527
f 313 312 303
f 527 313 303
f 307 306 309
f 309 306 308
f 309 308 315
f 315 308 314
f 311 310 313
f 311 325 310
f 313 310 312
f 527 311 313
f 326 325 311
f 630 326 311
f 527 630 311
f 315 314 317
f 317 314 316
f 317 316 319
f 319 316 318
f 319 318 328
f 328 318 327
f 321 320 323
f 321 337 320
f 323 320 322
f 323 324 321
f 338 337 321
f 323 322 326
f 326 322 325
f 324 323 631
f 630 323 326
f 631 323 630
f 328 327 330
f 330 327 329
f 330 329 332
f 332 329 331
f 332 331 340
f 340 331 339
f 334 333 336
f 334 361 333
f 336 333 335
f 362 361 334
f 336 335 338
f 338 335 337
f 340 339 342
f 342 339 341
f 342 341 344
f 344 341 343
f 344 343 346
f 346 343 345
f 346 345 348
f 348 345 347
f 348 347 350
f 350 347 349
f 350 349 363
f 363 349 364
f 352 351 354
f 352 364 351
f 354 351 353
f 363 364 352
f 354 353 356
f 356 353 355
f 356 355 358
f 358 355 357
f 358 357 360
f 360 357 359
f 360 359 362
f 362 359 361
f 366 367 365
f 366 365 394
f 367 498 365
f 394 365 393
f 365 510 393
f 365 498 496
f 365 496 510
f 368 367 366
f 366 499 368
f 394 511 366
f 497 499 366
f 366 511 497
f 368 369 367
f 369 484 367
f 367 484 482
f 367 482 498
f 370 369 368
f 368 485 370
f 368 483 485
f 368 499 483
f 370 371 369
f 371 462 369
f 369 462 460
f 369 460 484
f 372 371 370
f 370 463 372
f 370 461 463
f 370 485 461
f 372 373 371
f 373 464 371
f 371 464 462
f 374 373 372
f 372 465 374
f 463 465 372
f 374 375 373
f 375 466 373
f 373 466 464
f 376 375 374
f 374 467 376
f 374 465 467
f 376 377 375
f 468 375 377
f 466 375 468
f 378 377 376
f 376 469 378
f 376 467 469
f 378 379 377
f 470 377 379
f 468 377 470
f 380 379 378
f 378 471 380
f 378 469 471
f 380 381 379
f 472 379 381
f 470 379 472
f 382 381 380
f 380 473 382
f 380 471 473
f 382 383 381
f 472 381 383
f 384 383 382
f 382 473 384
f 384 385 383
f 488 383 385
f 472 383 474
f 474 383 486
f 486 383 488
f 386 385 384
f 384 489 386
f 384 473 475
f 475 487 384
f 487 489 384
f 386 387 385
f 502 385 387
f 488 385 500
f 500 385 502
f 388 387 386
f 386 503 388
f 489 501 386
f 386 501 503
f 388 395 387
f 512 387 395
f 502 387 512
f 396 395 388
f 388 513 396
f 388 503 513
f 390 391 389
f 390 389 407
f 391 536 389
f 407 389 405
f 389 546 405
f 536 546 389
f 392 391 390
f 390 537 392
f 682 390 407
f 547 537 390
f 690 547 390
f 690 390 682
f 392 393 391
f 393 508 391
f 391 508 520
f 520 528 391
f 391 528 536
f 394 393 392
f 392 509 394
f 392 521 509
f 392 529 521
f 537 529 392
f 393 510 508
f 394 509 511
f 396 397 395
f 522 395 397
f 512 395 514
f 514 395 522
f 398 397 396
f 396 523 398
f 396 513 515
f 515 523 396
f 398 399 397
f 397 399 699
f 522 397 530
f 530 397 538
f 538 397 548
f 548 397 699
f 400 399 398
f 398 549 400
f 398 523 531
f 531 539 398
f 398 539 549
f 400 408 399
f 683 399 408
f 699 399 683
f 409 408 400
f 400 700 409
f 400 549 698
f 400 698 700
f 402 403 401
f 402 401 417
f 403 546 401
f 417 401 416
f 401 546 416
f 404 403 402
f 404 405 403
f 405 546 403
f 406 405 404
f 407 405 406
f 682 407 680
f 409 410 408
f 685 408 410
f 683 408 685
f 411 410 409
f 409 684 411
f 409 700 684
f 411 412 410
f 687 410 412
f 685 410 687
f 413 412 411
f 411 686 413
f 411 684 686
f 413 418 412
f 673 412 418
f 687 412 673
f 419 418 413
f 413 688 419
f 413 686 688
f 415 416 414
f 415 414 425
f 416 546 414
f 425 414 424
f 414 546 424
f 417 416 415
f 419 420 418
f 675 418 420
f 673 418 675
f 421 420 419
f 419 674 421
f 419 688 674
f 421 426 420
f 665 420 426
f 675 420 665
f 427 426 421
f 421 676 427
f 421 674 676
f 423 424 422
f 423 422 433
f 424 546 422
f 433 422 432
f 422 546 432
f 425 424 423
f 427 428 426
f 667 426 428
f 665 426 667
f 429 428 427
f 427 666 429
f 427 676 666
f 429 434 428
f 657 428 434
f 667 428 657
f 435 434 429
f 429 668 435
f 429 666 668
f 431 432 430
f 431 430 441
f 432 546 430
f 441 430 440
f 430 546 440
f 433 432 431
f 435 436 434
f 659 434 436
f 657 434 659
f 437 436 435
f 435 658 437
f 435 668 658
f 437 442 436
f 649 436 442
f 659 436 649
f 443 442 437
f 437 660 443
f 437 658 660
f 439 440 438
f 439 438 447
f 440 546 438
f 447 438 446
f 438 546 446
f 441 440 439
f 443 444 442
f 651 442 444
f 649 442 651
f 445 444 443
f 443 650 445
f 443 660 650
f 445 448 444
f 643 444 448
f 651 444 643
f 449 448 445
f 445 652 449
f 445 650 652
f 447 446 453
f 453 446 452
f 446 641 452
f 546 641 446
f 449 454 448
f 637 448 454
f 643 448 637
f 455 454 449
f 449 644 455
f 449 652 644
f 451 452 450
f 451 450 459
f 452 634 450
f 459 450 458
f 450 632 458
f 450 634 632
f 453 452 451
f 452 641 634
f 455 456 454
f 639 454 456
f 637 454 639
f 457 456 455
f 455 638 457
f 455 644 638
f 457 476 456
f 628 456 476
f 639 456 628
f 477 476 457
f 457 640 477
f 457 638 640
f 459 458 481
f 481 458 480
f 458 610 480
f 458 632 610
f 460 463 461
f 460 461 484
f 462 463 460
f 484 461 485
f 462 465 463
f 464 465 462
f 464 467 465
f 466 467 464
f 466 469 467
f 468 469 466
f 468 471 469
f 470 471 468
f 470 473 471
f 472 473 470
f 472 475 473
f 474 475 472
f 474 487 475
f 486 487 474
f 477 490 476
f 606 476 490
f 628 476 606
f 491 490 477
f 477 629 491
f 477 640 629
f 479 480 478
f 479 478 495
f 480 596 478
f 495 478 494
f 478 594 494
f 478 596 594
f 481 480 479
f 480 610 596
f 482 485 483
f 482 483 498
f 484 485 482
f 498 483 499
f 486 489 487
f 488 489 486
f 488 501 489
f 500 501 488
f 491 492 490
f 608 490 492
f 606 490 608
f 493 492 491
f 491 607 493
f 491 629 607
f 493 504 492
f 592 492 504
f 608 492 592
f 505 504 493
f 493 609 505
f 493 607 609
f 495 494 507
f 507 494 506
f 494 582 506
f 494 594 582
f 496 499 497
f 496 497 510
f 498 499 496
f 510 497 511
f 500 503 501
f 502 503 500
f 502 513 503
f 512 513 502
f 505 516 504
f 580 504 516
f 592 504 580
f 517 516 505
f 505 593 517
f 505 609 593
f 507 506 519
f 519 506 518
f 506 570 518
f 506 582 570
f 508 511 509
f 508 509 520
f 510 511 508
f 520 509 521
f 512 515 513
f 514 515 512
f 514 523 515
f 522 523 514
f 517 524 516
f 568 516 524
f 580 516 568
f 525 524 517
f 517 581 525
f 517 593 581
f 519 518 527
f 527 518 526
f 518 562 526
f 518 570 562
f 520 521 528
f 528 521 529
f 522 531 523
f 530 531 522
f 525 532 524
f 560 524 532
f 568 524 560
f 533 532 525
f 525 569 533
f 525 581 569
f 527 526 535
f 535 526 534
f 526 554 534
f 526 562 554
f 527 535 630
f 528 529 536
f 536 529 537
f 530 539 531
f 538 539 530
f 533 540 532
f 550 532 540
f 560 532 550
f 541 540 533
f 533 569 541
f 535 534 543
f 543 534 542
f 534 544 542
f 534 554 544
f 535 543 630
f 536 537 546
f 546 537 547
f 538 549 539
f 548 549 538
f 541 552 540
f 550 540 552
f 553 552 541
f 541 569 553
f 543 542 545
f 545 542 544
f 630 543 545
f 545 544 555
f 555 544 554
f 630 545 555
f 546 547 556
f 556 641 546
f 556 547 557
f 692 557 547
f 692 547 690
f 548 559 549
f 558 559 548
f 548 699 558
f 698 549 559
f 551 550 553
f 551 560 550
f 553 550 552
f 553 569 551
f 561 560 551
f 551 569 561
f 555 554 563
f 563 554 562
f 630 555 563
f 556 557 564
f 564 641 556
f 564 557 565
f 565 557 692
f 558 567 559
f 566 567 558
f 558 699 566
f 698 559 567
f 561 568 560
f 569 568 561
f 563 562 571
f 571 562 570
f 630 563 571
f 564 565 572
f 572 641 564
f 572 565 573
f 692 573 565
f 566 579 567
f 578 579 566
f 566 699 578
f 567 579 696
f 698 567 696
f 569 580 568
f 581 580 569
f 571 570 583
f 583 570 582
f 571 583 630
f 572 573 574
f 574 641 572
f 574 573 575
f 694 575 573
f 694 573 692
f 574 575 584
f 584 647 574
f 574 645 641
f 574 647 645
f 584 575 585
f 702 585 575
f 702 575 694
f 576 577 578
f 576 591 577
f 578 699 576
f 590 591 576
f 576 699 590
f 578 577 579
f 696 579 577
f 724 577 591
f 696 577 724
f 581 592 580
f 593 592 581
f 583 582 595
f 595 582 594
f 630 583 595
f 584 585 586
f 586 655 584
f 584 653 647
f 584 655 653
f 586 585 587
f 702 587 585
f 586 587 598
f 598 663 586
f 586 661 655
f 586 663 661
f 598 587 599
f 704 599 587
f 704 587 702
f 588 589 590
f 588 605 589
f 590 699 588
f 604 605 588
f 588 699 604
f 590 589 591
f 722 591 589
f 722 589 605
f 724 591 722
f 593 608 592
f 609 608 593
f 595 594 597
f 597 594 596
f 595 597 630
f 597 596 611
f 611 596 610
f 630 597 611
f 598 599 600
f 600 671 598
f 598 669 663
f 598 671 669
f 600 599 601
f 704 601 599
f 600 601 612
f 612 689 600
f 600 677 671
f 600 679 677
f 600 681 679
f 600 689 681
f 612 601 613
f 706 613 601
f 706 601 704
f 602 603 604
f 602 627 603
f 604 699 602
f 626 627 602
f 602 699 626
f 604 603 605
f 720 605 603
f 720 603 627
f 722 605 720
f 607 606 609
f 607 628 606
f 609 606 608
f 629 628 607
f 611 610 633
f 633 610 632
f 630 611 633
f 612 613 614
f 614 689 612
f 614 613 615
f 706 615 613
f 614 615 616
f 616 703 614
f 614 691 689
f 614 693 691
f 614 701 693
f 614 703 701
f 616 615 617
f 708 617 615
f 708 615 706
f 616 617 618
f 618 707 616
f 616 705 703
f 616 707 705
f 618 617 619
f 710 619 617
f 710 617 708
f 618 619 620
f 620 711 618
f 618 709 707
f 618 711 709
f 620 619 621
f 712 621 619
f 712 619 710
f 620 621 622
f 622 717 620
f 620 713 711
f 620 715 713
f 620 717 715
f 622 621 623
f 714 623 621
f 714 621 712
f 622 623 624
f 624 721 622
f 622 719 717
f 622 721 719
f 624 623 625
f 716 625 623
f 716 623 714
f 624 625 626
f 626 699 624
f 624 697 695
f 624 695 723
f 624 699 697
f 624 723 721
f 626 625 627
f 627 625 720
f 718 625 716
f 720 625 718
f 629 639 628
f 640 639 629
f 630 636 631
f 630 633 635
f 635 636 630
f 633 632 635
f 635 632 634
f 635 634 641
f 636 635 642
f 642 635 641
f 642 646 636
f 636 646 648
f 636 648 654
f 636 654 656
f 656 662 636
f 662 664 636
f 636 664 670
f 636 670 672
f 636 672 678
f 678 680 636
f 638 637 640
f 638 643 637
f 640 637 639
f 644 643 638
f 642 641 646
f 646 641 645
f 644 651 643
f 652 651 644
f 646 645 648
f 648 645 647
f 648 647 654
f 654 647 653
f 650 649 652
f 650 659 649
f 652 649 651
f 660 659 650
f 654 653 656
f 656 653 655
f 656 655 662
f 662 655 661
f 658 657 660
f 658 667 657
f 660 657 659
f 668 667 658
f 662 661 664
f 664 661 663
f 664 663 670
f 670 663 669
f 666 665 668
f 666 675 665
f 668 665 667
f 676 675 666
f 670 669 672
f 672 669 671
f 672 671 678
f 678 671 677
f 674 673 676
f 674 687 673
f 676 673 675
f 688 687 674
f 678 677 680
f 680 677 679
f 680 679 682
f 682 679 681
f 682 681 690
f 690 681 689
f 684 683 686
f 684 699 683
f 686 683 685
f 700 699 684
f 686 685 688
f 688 685 687
f 690 689 692
f 692 689 691
f 692 691 694
f 694 691 693
f 694 693 702
f 702 693 701
f 696 695 698
f 696 723 695
f 698 695 697
f 724 723 696
f 698 697 700
f 700 697 699
f 702 701 704
f 704 701 703
f 704 703 706
f 706 703 705
f 706 705 708
f 708 705 707
f 708 707 710
f 710 707 709
f 710 709 712
f 712 709 711
f 712 711 714
f 714 711 713
f 714 713 716
f 716 713 715
f 716 715 718
f 718 715 717
f 718 717 720
f 720 717 719
f 720 719 722
f 722 719 721
f 722 721 724
f 724 721 723
