# CAD visual only; metres; body-local coordinates
v -3.84315563e-09 -0.0141421368 0
v 0.000129915209 -0.0140122177 -0.00190808773
v 8.70570852e-05 -0.0140550759 -0.00156434536
v 6.88132955e-05 -0.0140733197 -0.00139173031
v 3.87344076e-05 -0.0141033985 -0.00104528427
v 2.69088461e-05 -0.0141152241 -0.000871558189
v 9.69502464e-06 -0.0141324475 -0.000523357391
v 4.30676475e-06 -0.0141378262 -0.000348997116
v 1.07380882e-06 -0.0141410591 -0.0001745224
v 1.07380882e-06 -0.0141410591 0.0001745224
v 4.30676475e-06 -0.0141378262 0.000348997116
v 1.72290517e-05 -0.0141249134 0.000697565079
v 2.69088461e-05 -0.0141152241 0.000871558189
v 5.27057363e-05 -0.0140894272 0.00121869564
v 6.88132955e-05 -0.0140733197 0.00139173031
v 0.000107427569 -0.0140347149 0.00173648357
v 0.000129915209 -0.0140122177 0.00190808773
v 0.000240941973 -0.013901191 -0.00258819103
v 0.000210042925 -0.01393209 -0.00241921902
v 0.000154520006 -0.0139876129 -0.00207911491
v 0.000181232424 -0.0139609005 0.00224951267
v 0.000210042925 -0.01393209 0.00241921902
v 0.000240941973 -0.013901191 0.00258819103
v 0.000385242434 -0.0137568905 -0.00325568199
v 0.000346084566 -0.0137960484 -0.00309017181
v 0.000273920031 -0.0138682129 -0.0027563715
v 0.000308967562 -0.0138331654 0.0029237175
v 0.000346084566 -0.0137960484 0.00309017181
v 0.000385242434 -0.0137568905 0.00325568199
v 0.000469661684 -0.0136724808 -0.0035836792
v 0.000426441164 -0.0137157013 -0.00342020035
v 0.000426441164 -0.0137157013 0.00342020035
v 0.000469661684 -0.0136724808 0.0035836792
v 0.000611330004 -0.0135308125 -0.00406736851
v 0.000562110872 -0.0135800221 -0.00390731335
v 0.00051488492 -0.013627248 -0.00374606609
v 0.00051488492 -0.013627248 0.00374606609
v 0.000562110872 -0.0135800221 0.00390731335
v 0.000611330004 -0.0135308125 0.00406736851
v 0.000715633364 -0.0134264996 -0.00438371181
v 0.000662504168 -0.0134796288 -0.00422618389
v 0.000662504168 -0.0134796288 0.00422618389
v 0.000715633364 -0.0134264996 0.00438371181
v 0.000886569948 -0.013255563 -0.00484809399
v 0.000770698519 -0.0133714344 -0.00453990459
v 0.000827690096 -0.0133144524 0.00469471455
v 0.000886569948 -0.013255563 0.00484809399
v 0.000947347613 -0.0131947949 -0.005
v 0.000947347613 -0.0131947949 0.005
v 0.00107446286 -0.0130676701 -0.00529919147
v 0.0010099754 -0.0131321575 -0.00515038013
v 0.0010099754 -0.0131321575 0.00515038013
v 0.00114077184 -0.0130013611 0.00544639111
v 0.00120888326 -0.0129332497 -0.00559192896
v 0.00120888326 -0.0129332497 0.00559193134
v 0.00146691892 -0.0155036404 -0.00121869564
v 0.00144112203 -0.0155294373 -0.000871558189
v 0.00143144223 -0.0155391266 -0.000697565079
v 0.00141851995 -0.0155520394 -0.000348997116
v 0.00141528699 -0.0155552723 -0.0001745224
v 0.00141420934 -0.01555635 0
v 0.00141851995 -0.0155520394 0.000348997116
v 0.00142390821 -0.0155466606 0.000523357391
v 0.00144112203 -0.0155294373 0.000871558189
v 0.00145294759 -0.0155176117 0.00104528427
v 0.00148302648 -0.0154875328 -0.00139173031
v 0.00148302648 -0.0154875328 0.00139173031
v 0.00135045621 -0.0127916863 -0.00587785244
v 0.00127878758 -0.0128633454 -0.0057357645
v 0.00127878758 -0.0128633454 0.0057357645
v 0.00135045621 -0.0127916863 0.00587785244
v 0.00142386052 -0.0127182724 -0.00601814985
v 0.00149899098 -0.012643142 0.00615661621
v 0.00168813321 -0.0152824261 -0.0027563715
v 0.00165515515 -0.0153154042 -0.00258819103
v 0.00162425611 -0.0153463127 -0.00241921902
v 0.0015954456 -0.0153751137 -0.00224951267
v 0.00154412839 -0.0154264309 -0.00190808773
v 0.00152164075 -0.0154489281 -0.00173648357
v 0.00150127027 -0.015469289 0.00156434536
v 0.00154412839 -0.0154264309 0.00190808773
v 0.00156873319 -0.0154018261 0.00207911491
v 0.00162425611 -0.0153463127 0.00241921902
v 0.00165515515 -0.0153154042 0.00258819103
v 0.00168813321 -0.0152824261 0.0027563715
v 0.00172319028 -0.0152473786 -0.0029237175
v 0.00172319028 -0.0152473786 0.0029237175
v 0.00157581899 -0.0125663235 -0.00629320383
v 0.00157581899 -0.0125663235 0.00629320621
v 0.00173446271 -0.0124076702 -0.00656059027
v 0.00165431592 -0.012487817 -0.00642787695
v 0.00165431592 -0.012487817 0.00642787457
v 0.00173446271 -0.0124076702 0.00656059265
v 0.0019290981 -0.0150414612 -0.00374606609
v 0.00184065434 -0.0151299145 -0.00342020035
v 0.00176029775 -0.0152102711 -0.00309017181
v 0.00176029775 -0.0152102711 0.00309017181
v 0.00179945561 -0.0151711037 0.00325568199
v 0.00188387486 -0.015086694 0.0035836792
v 0.00197633359 -0.0149942353 -0.00390731335
v 0.00197633359 -0.0149942353 0.00390731335
v 0.00181624028 -0.0123258927 -0.00669130564
v 0.00181624028 -0.0123258927 0.00669130802
v 0.00189962003 -0.0122425225 -0.00681998253
v 0.0019845638 -0.0121575691 0.00694658279
v 0.0021849117 -0.0147856476 -0.00453990459
v 0.00212984654 -0.0148407128 -0.00438371181
v 0.00207671735 -0.014893842 -0.00422618389
v 0.00202554318 -0.0149450257 0.00406736851
v 0.00212984654 -0.0148407128 0.00438371181
v 0.0021849117 -0.0147856476 0.00453990459
v 0.00224190328 -0.0147286656 -0.00469471455
v 0.00224190328 -0.0147286656 0.00469471455
v 0.0020710716 -0.0120710709 -0.00707106829
v 0.0020710716 -0.0120710709 0.0070710659
v 0.00224860761 -0.0118935253 -0.0073135376
v 0.00215909574 -0.0119830467 -0.00719339848
v 0.00215909574 -0.0119830467 0.00719339848
v 0.00224860761 -0.0118935253 0.0073135376
v 0.00242418859 -0.0145463707 -0.00515038013
v 0.00236156079 -0.0146090081 -0.005
v 0.00230078313 -0.0146697762 0.00484809399
v 0.00236156079 -0.0146090081 0.005
v 0.00248867604 -0.0144818833 -0.00529919147
v 0.00248867604 -0.0144818833 0.00529919147
v 0.00233959767 -0.0118025353 -0.00743144751
v 0.00233959767 -0.0118025353 0.00743144989
v 0.00243202779 -0.0117101052 -0.00754709482
v 0.00243202779 -0.0117101052 0.00754709721
v 0.00269300076 -0.0142775585 -0.0057357645
v 0.00255498502 -0.0144155743 -0.00544639111
v 0.00255498502 -0.0144155743 0.00544639111
v 0.00262309644 -0.0143474629 0.00559193134
v 0.00262110326 -0.0115210392 -0.00777145863
v 0.00252586934 -0.0116162636 -0.00766044378
v 0.00252586934 -0.0116162636 0.00766044617
v 0.00262110326 -0.0115210392 0.00777145863
v 0.00271768186 -0.0114244511 -0.00788010836
v 0.00271768186 -0.0114244511 0.00788010597
v 0.00291320416 -0.0140573551 -0.00615661383
v 0.00276466939 -0.0142058995 -0.00587785244
v 0.00276466939 -0.0142058995 0.00587785244
v 0.0028380737 -0.0141324856 0.00601815224
v 0.00299003217 -0.0139805367 -0.00629320383
v 0.00299003217 -0.0139805367 0.00629320621
v 0.0028155956 -0.0113265469 -0.00798635483
v 0.0028155956 -0.0113265469 0.00798635483
v 0.0029147968 -0.0112273361 -0.00809016943
v 0.0029147968 -0.0112273361 0.00809017181
v 0.00314867589 -0.0138218834 -0.00656059027
v 0.0030685291 -0.0139020302 -0.00642787695
v 0.0030685291 -0.0139020302 0.00642787457
v 0.00314867589 -0.0138218834 0.00656059265
v 0.00323045346 -0.0137401058 -0.00669130564
v 0.00323045346 -0.0137401058 0.00669130802
v 0.00311697576 -0.0110251572 -0.00829037666
v 0.00301526639 -0.0111268666 -0.00819152117
v 0.00301526639 -0.0111268666 0.00819151878
v 0.00311697576 -0.0110251572 0.00829037666
v 0.00321988675 -0.0109222462 -0.00838670492
v 0.00321988675 -0.0109222462 0.00838670731
v 0.00339877698 -0.0135717823 -0.00694658279
v 0.00331383321 -0.0136567356 0.00681998253
v 0.00348528478 -0.0134852841 -0.00707106829
v 0.00348528478 -0.0134852841 0.0070710659
v 0.00332397077 -0.0108181622 -0.0084804821
v 0.00332397077 -0.0108181622 0.0084804821
v 0.00342919919 -0.0107129338 -0.00857167244
v 0.00342919919 -0.0107129338 0.00857167244
v 0.00366282079 -0.0133077385 -0.0073135376
v 0.00357330892 -0.0133972599 -0.00719339848
v 0.00357330892 -0.0133972599 0.00719339848
v 0.00366282079 -0.0133077385 0.0073135376
v 0.00353553388 -0.0106065991 -0.00866025448
v 0.00353553388 -0.0106065991 0.00866025448
v 0.00364294621 -0.0104991867 -0.00874619722
v 0.00364294621 -0.0104991867 0.00874619484
v 0.00394008252 -0.0130304768 -0.00766044378
v 0.00375381085 -0.0132167485 -0.00743144751
v 0.00375381085 -0.0132167485 0.00743144989
v 0.00384624097 -0.0131243183 0.00754709721
v 0.00375139806 -0.0103907349 -0.00882947683
v 0.00386087033 -0.0102812626 0.0089100647
v 0.00397131536 -0.0101708176 -0.00898793936
v 0.00397131536 -0.0101708176 0.00898794174
v 0.00413189504 -0.0128386643 -0.00788010836
v 0.00403531644 -0.0129352524 0.00777145863
v 0.00422980878 -0.0127407601 -0.00798635483
v 0.00422980878 -0.0127407601 0.00798635483
v 0.00408270452 -0.0100594284 -0.00906307697
v 0.00408270452 -0.0100594284 0.00906307697
v 0.0041950092 -0.00994713328 -0.0091354537
v 0.0041950092 -0.00994713328 0.00913545609
v 0.00442947957 -0.0125410797 -0.00819152117
v 0.00432900998 -0.0126415493 0.00809017181
v 0.00430818173 -0.00983395121 -0.00920504808
v 0.00430818173 -0.00983395121 0.00920505047
v 0.00442220304 -0.00971993945 -0.00927183867
v 0.00442220304 -0.00971993945 0.00927183628
v 0.00463409993 -0.0123364594 -0.00838670492
v 0.00453118894 -0.0124393704 0.00829037666
v 0.00473818395 -0.0122323754 -0.0084804821
v 0.00473818395 -0.0122323754 0.0084804821
v 0.00453702542 -0.00960510752 -0.00933580399
v 0.00453702542 -0.00960510752 0.00933580399
v 0.00465262029 -0.00948951266 -0.00939692736
v 0.00465262029 -0.00948951266 0.00939692497
v 0.00494974706 -0.0120208123 -0.00866025448
v 0.00484341237 -0.0121271469 0.00857167244
v 0.00488598439 -0.00925614855 -0.0095105648
v 0.00476894948 -0.00937318347 -0.00945518494
v 0.00476894948 -0.00937318347 0.00945518494
v 0.00488598439 -0.00925614855 0.0095105648
v 0.00516562078 -0.0118049481 -0.00882947683
v 0.0050571594 -0.0119133999 -0.00874619722
v 0.0050571594 -0.0119133999 0.00874619484
v 0.00516562078 -0.0118049481 0.00882947445
v 0.00500368688 -0.00913844607 -0.00956304789
v 0.00512201879 -0.00902011416 0.00961261749
v 0.00524094197 -0.00890119097 -0.00965925932
v 0.00524094197 -0.00890119097 0.00965925694
v 0.00538552854 -0.0115850308 -0.00898793936
v 0.00527508351 -0.0116954758 0.0089100647
v 0.0054969177 -0.0114736416 -0.00906307697
v 0.0054969177 -0.0114736416 0.00906307697
v 0.00536041829 -0.00878171466 -0.00970295668
v 0.00536041829 -0.00878171466 0.00970295906
v 0.00548041913 -0.00866171382 -0.00974370003
v 0.00548041913 -0.00866171382 0.00974370003
v 0.00560922238 -0.0113613465 -0.0091354537
v 0.00560922238 -0.0113613465 0.00913545609
v 0.00572239491 -0.0112481644 -0.00920504808
v 0.00572239491 -0.0112481644 0.00920505047
v 0.00560090634 -0.0085412266 -0.00978147507
v 0.00560090634 -0.0085412266 0.00978147507
v 0.00572184178 -0.00842029116 -0.00981627226
v 0.00572184178 -0.00842029116 0.00981626987
v 0.0059512386 -0.0110193207 -0.00933580399
v 0.00583641622 -0.0111341526 0.00927183628
v 0.0058431873 -0.00829894564 -0.0098480773
v 0.0058431873 -0.00829894564 0.00984807968
v 0.00596490476 -0.00817722819 -0.00987688303
v 0.00596490476 -0.00817722819 0.00987688541
v 0.0061831722 -0.0107873966 -0.00945518494
v 0.00606683347 -0.0109037258 0.00939692497
v 0.00608696553 -0.00805516741 -0.00990267992
v 0.00613455388 -0.00800757907 -0.00070420742
v 0.00606819722 -0.00807394526 -0.000488352776
v 0.0060234699 -0.00811867259 -0.000234651566
v 0.00601040456 -0.00813172839 0
v 0.00602652165 -0.00811561129 0.000260472298
v 0.00607437703 -0.00806776545 0.000513029099
v 0.00608696553 -0.00805516741 0.0099026823
v 0.00620932195 -0.007932811 -0.00992546082
v 0.00624678227 -0.00789536021 -0.000943980217
v 0.00615250203 -0.00798963091 -0.000749998093
v 0.00614338491 -0.0079987385 0.000727214813
v 0.00616190526 -0.00798022769 0.000772557259
v 0.00620932195 -0.007932811 0.00992546082
v 0.00641790959 -0.0105526593 -0.00956304789
v 0.00630020711 -0.0106703617 0.0095105648
v 0.00633194539 -0.00781019709 -0.00994521856
v 0.00638430211 -0.00775784037 -0.00851641893
v 0.00631636235 -0.00782578013 -0.00826611519
v 0.00629335973 -0.00784876368 -0.00801919699
v 0.00631317708 -0.00782894633 -0.00775255442
v 0.00637802693 -0.00776410601 -0.00750061035
v 0.00639076802 -0.00775136492 -0.00746670961
v 0.00638928029 -0.00775284312 -0.00114906788
v 0.00627058599 -0.0078715565 -0.00098408699
v 0.00625855062 -0.00788358233 0.000964179039
v 0.00628285024 -0.00785929225 0.00100369453
v 0.00639076802 -0.00775136492 0.00746670723
v 0.00637802693 -0.00776410601 0.00750061035
v 0.00631317708 -0.00782894633 0.00775255203
v 0.00629324529 -0.00784888766 0.00800000191
v 0.00631636235 -0.00782578013 0.00826611519
v 0.00638430211 -0.00775784037 0.00851641655
v 0.00633194539 -0.00781019709 0.00994522095
v 0.00645477864 -0.0076873543 -0.00996194601
v 0.00639746282 -0.00774467967 -0.00855000019
v 0.00649304006 -0.00764910243 -0.00726395607
v 0.00649338338 -0.00764874003 -0.0012580061
v 0.00647795293 -0.00766418002 -0.00124355793
v 0.00640356633 -0.00773856661 0.00116571903
v 0.00649338338 -0.00764874003 0.0012580061
v 0.00649304006 -0.00764910243 0.00726395607
v 0.00639746282 -0.00774467967 0.00855000019
v 0.00645477864 -0.0076873543 0.00996194839
v 0.00665514562 -0.0103154042 -0.00965925932
v 0.00653622243 -0.0104343273 0.00961261749
v 0.0065778217 -0.00756432078 -0.00997564077
v 0.0065022144 -0.00763992808 -0.00875019789
v 0.00663611028 -0.00750601313 -0.00708805799
v 0.00663965795 -0.007502475 -0.00137032032
v 0.00650900456 -0.00763312838 0.00127207279
v 0.00663611028 -0.00750601313 0.00708806038
v 0.0065022144 -0.00763992808 0.00875020027
v 0.0065778217 -0.00756432078 0.00997563839
v 0.00670099828 -0.00744113467 -0.0099862957
v 0.00664743993 -0.00749469302 -0.00892253876
v 0.0067423496 -0.00739978335 -0.00700306177
v 0.00674330327 -0.00739882968 -0.0014265871
v 0.00665663335 -0.0074854996 0.00138075829
v 0.0067423496 -0.00739978335 0.00700305939
v 0.00664743993 -0.00749469302 0.00892253876
v 0.00670099828 -0.00744113467 0.0099862957
v 0.00689463231 -0.010075927 -0.00974370003
v 0.00677464101 -0.0101959278 0.00970295906
v 0.00682428929 -0.00731784365 -0.00999390841
v 0.00675470922 -0.00738743327 -0.00900490046
v 0.00688290212 -0.00725924037 -0.00693267584
v 0.00688688848 -0.00725525401 -0.00147721291
v 0.00676096532 -0.00738117716 0.00143445492
v 0.00688290212 -0.00725924037 0.00693267345
v 0.00675470922 -0.00738743327 0.00900489807
v 0.00682428929 -0.00731784365 0.00999390602
v 0.0069476566 -0.00719447634 -0.00999847651
v 0.00689610097 -0.00724604151 -0.00907180786
v 0.00698977086 -0.00715237162 -0.00690602541
v 0.00699707601 -0.00714505694 -0.00149634838
v 0.0069051418 -0.00723699114 0.00148153305
v 0.00698977086 -0.00715237162 0.00690602779
v 0.00689610097 -0.00724604151 0.00907180786
v 0.0069476566 -0.00719447634 0.00999847889
v 0.0071360645 -0.00983450434 -0.00981627226
v 0.00701511952 -0.00995543978 0.00978147507
v 0.00707106206 -0.00707107089 -0.01
v 0.00700327489 -0.00713885806 -0.00909581423
v 0.00707106206 -0.00707107089 -0.00690000057
v 0.00707106206 -0.00707107089 -0.00150000095
v 0.00712658498 -0.0070155575 -0.00149794579
v 0.00708958241 -0.00705256007 0.00149977207
v 0.00707106206 -0.00707107089 0.00150000095
v 0.0071388683 -0.00700327418 0.0069041872
v 0.00707106206 -0.00707107089 0.00909999847
v 0.00707106206 -0.00707107089 0.01
v 0.00719446752 -0.00694766543 -0.00999847651
v 0.00715237233 -0.00698976061 -0.00909397364
v 0.00724604222 -0.00689610026 -0.00692819357
v 0.00723698232 -0.00690514109 -0.00148153305
v 0.00714504811 -0.0069970753 0.00149634838
v 0.00724604222 -0.00689610026 0.00692819118
v 0.00715237233 -0.00698976061 0.00909397602
v 0.00719446752 -0.00694766543 0.00999847889
v 0.00737911794 -0.00959144137 -0.00987688303
v 0.00744074437 -0.00952982447 -0.000260472298
v 0.00742477986 -0.00954577944 -2.617836e-05
v 0.00743767354 -0.00953288577 0.000234651566
v 0.00746571157 -0.00950485728 0.000413455963
v 0.00725741002 -0.00971315882 0.00984807968
v 0.00748858068 -0.00948197863 -0.000513029099
v 0.00747097585 -0.009499593 -0.000438556671
v 0.00748240087 -0.00948815844 0.000488352776
v 0.00749506566 -0.00947549365 0.000537552834
v 0.0073178539 -0.00682428858 -0.00999390841
v 0.00725924108 -0.00688290141 -0.00906732559
v 0.00738743398 -0.00675469897 -0.00699510098
v 0.00738117787 -0.00676096461 -0.00143445492
v 0.00725525472 -0.00688688777 0.00147721291
v 0.00738743398 -0.00675469897 0.00699510098
v 0.00725924108 -0.00688290141 0.00906732559
v 0.0073178539 -0.00682428858 0.00999390602
v 0.00744114491 -0.00670099757 -0.0099862957
v 0.0073997936 -0.00674234889 -0.00899693966
v 0.00749470326 -0.00664743922 -0.00707746267
v 0.00748550984 -0.00665663264 -0.00138075829
v 0.00739882085 -0.00674330256 0.0014265871
v 0.00749470326 -0.00664743922 0.00707746029
v 0.0073997936 -0.00674234889 0.00899693966
v 0.00744114491 -0.00670099757 0.0099862957
v 0.00762352559 -0.00934702418 -0.00992546082
v 0.00771927449 -0.00925128482 -0.00819101334
v 0.007707468 -0.00926310084 -0.00799999952
v 0.00769705388 -0.00927350543 -0.00100369453
v 0.0075761089 -0.00939444087 -0.000772557259
v 0.00750185582 -0.00946871302 -0.000561909676
v 0.00756672475 -0.0094038441 0.000749998093
v 0.00768478963 -0.00928576968 0.00098408699
v 0.00770956609 -0.00926100276 0.0010229969
v 0.00770758245 -0.00926297686 0.00798080444
v 0.00771927449 -0.00925128482 0.00819101334
v 0.00750118825 -0.00946938059 0.0099026823
v 0.00774614903 -0.00922441027 -0.00994521856
v 0.00774984929 -0.00922071955 -0.00835812569
v 0.0077273998 -0.00924315951 -0.00824744701
v 0.00772175405 -0.00924880526 -0.00779011011
v 0.007730566 -0.00923999331 -0.00773388624
v 0.00772230718 -0.00924825213 -0.00104198933
v 0.007748476 -0.00922207377 0.00107901096
v 0.007730566 -0.00923999331 0.00773388386
v 0.00772175405 -0.00924880526 0.00779010773
v 0.0077273998 -0.00924315951 0.00824744701
v 0.00774984929 -0.00922071955 0.00835812569
v 0.00774614903 -0.00922441027 0.00994522095
v 0.00756432149 -0.00657781146 -0.00997564077
v 0.00750601384 -0.0066361191 -0.00891194105
v 0.00763992879 -0.00650220416 -0.00724980116
v 0.00763313863 -0.00650900385 -0.00127207279
v 0.00750248525 -0.00663965724 0.00137032032
v 0.00763992879 -0.00650220416 0.00724980354
v 0.00750601384 -0.0066361191 0.00891194344
v 0.00756432149 -0.00657781146 0.00997563839
v 0.00768734548 -0.00645478747 -0.00996194601
v 0.00764910314 -0.00649303935 -0.00873604298
v 0.00774468038 -0.00639746211 -0.00744999886
v 0.00764874074 -0.00649339221 -0.0012580061
v 0.00773855779 -0.00640357516 -0.00116571903
v 0.00766419026 -0.00647795222 0.00124355793
v 0.00764874074 -0.00649339221 0.0012580061
v 0.00774468038 -0.00639746211 0.00744999886
v 0.00764910314 -0.00649303935 0.00873604298
v 0.00768734548 -0.00645478747 0.00996194839
v 0.00786900136 -0.00910156748 -0.00996194601
v 0.00796482656 -0.00900574229 -0.00881745815
v 0.0079072437 -0.00906331561 -0.00873604298
v 0.00779224965 -0.00917831919 -0.00849938869
v 0.00775436971 -0.0092161896 -0.00762377739
v 0.00779850575 -0.00917205355 -0.00748358011
v 0.00791641805 -0.00905414126 -0.00724980116
v 0.0079076061 -0.00906296275 -0.0012580061
v 0.00776190373 -0.00920864604 -0.00109703064
v 0.00789217565 -0.0090783932 0.00124355793
v 0.00795494649 -0.00901561282 0.00129903793
v 0.00791641805 -0.00905414126 0.00724980354
v 0.00779850575 -0.00917205355 0.0074835825
v 0.00775436971 -0.0092161896 0.00762377739
v 0.00779224965 -0.00917831919 0.00849938869
v 0.0079072437 -0.00906331561 0.00873604298
v 0.00796482656 -0.00900574229 0.00881745815
v 0.00786900136 -0.00910156748 0.00996194839
v 0.00799202535 -0.00897853396 -0.00997564077
v 0.00799578282 -0.00897477648 -0.00885486126
v 0.00797499272 -0.00899557612 -0.00716981888
v 0.00797106359 -0.00899949572 -0.00131193161
v 0.00798733327 -0.00898323557 0.00132441998
v 0.00797499272 -0.00899557612 0.00716981888
v 0.00799578282 -0.00897477648 0.00885486126
v 0.00799202535 -0.00897853396 0.00997563839
v 0.0078101978 -0.00633194468 -0.00994521856
v 0.0077513561 -0.00639077685 -0.00853328943
v 0.00776411626 -0.00637802622 -0.00849938869
v 0.00782894704 -0.00631318591 -0.00824744701
v 0.00784887883 -0.00629325411 -0.00799999952
v 0.00782578084 -0.00631635211 -0.00773388624
v 0.00775784108 -0.00638429186 -0.00748358011
v 0.00785929296 -0.00628283999 -0.00100369453
v 0.0078835735 -0.00625855944 -0.000964179039
v 0.00787155721 -0.00627057574 0.00098408699
v 0.00775284383 -0.00638928912 0.00114906788
v 0.00775784108 -0.00638429186 0.0074835825
v 0.00782578084 -0.00631635211 0.00773388386
v 0.00784876439 -0.00629336856 0.00798080444
v 0.00782894704 -0.00631318591 0.00824744701
v 0.00776411626 -0.00637802622 0.00849938869
v 0.0077513561 -0.00639077685 0.00853329182
v 0.0078101978 -0.00633194468 0.00994522095
v 0.00793282125 -0.00620932124 -0.00992546082
v 0.00798023793 -0.00616190455 -0.000772557259
v 0.00799873921 -0.00614339373 -0.000727214813
v 0.00798962209 -0.00615251086 0.000749998093
v 0.00789536092 -0.00624678156 0.000943980217
v 0.00793282125 -0.00620932124 0.00992546082
v 0.00811520192 -0.00885534785 -0.0099862957
v 0.00821924779 -0.00875131152 -0.00903366089
v 0.00815655324 -0.00881399653 -0.00899693966
v 0.00800640676 -0.00896415255 -0.00713318825
v 0.00816891286 -0.00880164645 -0.00699510098
v 0.00800375554 -0.0089668133 -0.0013365078
v 0.00821076009 -0.00875979922 0.00144888878
v 0.00816891286 -0.00880164645 0.00699510098
v 0.00800640676 -0.00896415255 0.00713318825
v 0.00815655324 -0.00881399653 0.00899693966
v 0.00821924779 -0.00875131152 0.00903366089
v 0.00811520192 -0.00885534785 0.0099862957
v 0.00823851201 -0.00873205683 -0.00999390841
v 0.0082449207 -0.00872563861 -0.00904616117
v 0.0082320461 -0.00873851321 -0.00695992947
v 0.00822868917 -0.00874187968 -0.00145544529
v 0.00824667546 -0.00872387431 0.00146155357
v 0.0082320461 -0.00873851321 0.00695992947
v 0.0082449207 -0.00872563861 0.00904616356
v 0.00823851201 -0.00873205683 0.00999390602
v 0.00805517766 -0.00608696482 -0.00990267992
v 0.00806776616 -0.00607437632 -0.000513029099
v 0.00811562154 -0.00602652094 -0.000260472298
v 0.00813156697 -0.00601056597 -2.617836e-05
v 0.0081186733 -0.00602346919 0.000234651566
v 0.00807394597 -0.00606819651 0.000488352776
v 0.00800757024 -0.00613456271 0.00070420742
v 0.00805517766 -0.00608696482 0.0099026823
v 0.0081772289 -0.00596491358 -0.00987688303
v 0.0081772289 -0.00596491358 0.00987688541
v 0.00836187932 -0.00860868952 -0.00999847651
v 0.00845814321 -0.00851242564 -0.0090993309
v 0.0082578716 -0.00871269724 -0.00694806576
v 0.00826475713 -0.00870580218 -0.00146722317
v 0.00846676442 -0.00850379489 0.00149977207
v 0.0082578716 -0.00871269724 0.00694806576
v 0.00845814321 -0.00851242564 0.0090993309
v 0.00836187932 -0.00860868952 0.00999847889
v 0.00848528478 -0.00848528407 -0.01
v 0.0084988651 -0.00847170375 -0.00909983158
v 0.00848528478 -0.00848528407 -0.00690000057
v 0.00848528478 -0.00848528407 -0.00150000095
v 0.00848528478 -0.00848528407 0.00150000095
v 0.00847170445 -0.00849885485 0.00690016747
v 0.00848528478 -0.00848528407 0.00909999847
v 0.00848528478 -0.00848528407 0.01
v 0.00829893682 -0.00584318659 -0.0098480773
v 0.00829893682 -0.00584318659 0.00984807968
v 0.00842028234 -0.00572184107 -0.00981627226
v 0.00842028234 -0.00572184107 0.00981626987
v 0.00860869023 -0.00836187861 -0.00999847651
v 0.00871269795 -0.00825787089 -0.00905193567
v 0.00851242635 -0.00845813296 -0.00690067053
v 0.00850378606 -0.00846677325 -0.00149977207
v 0.00870581243 -0.00826475642 0.00146722317
v 0.00851242635 -0.00845813296 0.00690066814
v 0.00871269795 -0.00825787089 0.00905193329
v 0.00860869023 -0.00836187861 0.00999847889
v 0.00873205754 -0.00823850176 -0.00999390841
v 0.00873852345 -0.00823204539 -0.00904006958
v 0.00872564885 -0.00824491999 -0.00695383787
v 0.00872387502 -0.00824668429 -0.00146155357
v 0.00874188039 -0.00822868846 0.00145544529
v 0.00872564885 -0.00824491999 0.00695383549
v 0.00873852345 -0.00823204539 0.00904006958
v 0.00873205754 -0.00823850176 0.00999390602
v 0.00854122731 -0.00560090563 -0.00978147507
v 0.00854122731 -0.00560090563 0.00978147507
v 0.00866171453 -0.00548042796 -0.00974370003
v 0.00866171453 -0.00548042796 0.00974370003
v 0.00885534856 -0.00811521075 -0.0099862957
v 0.00880165669 -0.00816891215 -0.00900490046
v 0.0089641628 -0.00800640605 -0.0088668108
v 0.00881399724 -0.00815656207 -0.00700306177
v 0.00875130269 -0.00821925662 -0.00696633816
v 0.00875980947 -0.00821075938 -0.00144888878
v 0.00896681401 -0.00800375483 0.0013365078
v 0.00875130269 -0.00821925662 0.00696633816
v 0.00881399724 -0.00815656207 0.00700305939
v 0.0089641628 -0.00800640605 0.0088668108
v 0.00880165669 -0.00816891215 0.00900489807
v 0.00885534856 -0.00811521075 0.0099862957
v 0.00897852513 -0.00799202464 -0.00997564077
v 0.00899557683 -0.00797498248 -0.00883018017
v 0.00897478673 -0.00799578211 -0.00714514017
v 0.00898323628 -0.00798733256 -0.00132441998
v 0.00899950597 -0.00797106288 0.00131193161
v 0.00897478673 -0.00799578211 0.00714513779
v 0.00899557683 -0.00797498248 0.00883018017
v 0.00897852513 -0.00799202464 0.00997563839
v 0.00878170583 -0.00536041758 -0.00970295668
v 0.00878170583 -0.00536041758 0.00970295906
v 0.00890120122 -0.00524094126 -0.00965925932
v 0.00890120122 -0.00524094126 0.00965925694
v 0.00910156819 -0.00786900065 -0.00996194601
v 0.00905413243 -0.00791641734 -0.00875019789
v 0.00917204473 -0.00779850505 -0.00851641893
v 0.00921619985 -0.007754369 -0.00837622166
v 0.0091783199 -0.0077922394 -0.00750061035
v 0.00906330678 -0.00790725253 -0.00726395607
v 0.009005743 -0.00796481631 -0.00718254089
v 0.00901560399 -0.00795495532 -0.00129903793
v 0.00907839391 -0.0078921654 -0.00124355793
v 0.00920864675 -0.00776191256 0.00109703064
v 0.00906296346 -0.00790760539 0.0012580061
v 0.009005743 -0.00796481631 0.00718254089
v 0.00906330678 -0.00790725253 0.00726395607
v 0.0091783199 -0.0077922394 0.00750061035
v 0.00921619985 -0.007754369 0.00837622166
v 0.00917204473 -0.00779850505 0.00851641655
v 0.00905413243 -0.00791641734 0.00875020027
v 0.00910156819 -0.00786900065 0.00996194839
v 0.00922440145 -0.00774615786 -0.00994521856
v 0.00924000356 -0.00773056529 -0.00826611519
v 0.00924881551 -0.00772175334 -0.00820988894
v 0.00924316976 -0.00772739909 -0.00775255442
v 0.00922072026 -0.00774983904 -0.00764187574
v 0.00922207448 -0.00774848483 -0.00107901096
v 0.00924826238 -0.00772230647 0.00104198933
v 0.00922072026 -0.00774983904 0.00764187336
v 0.00924316976 -0.00772739909 0.00775255203
v 0.00924881551 -0.00772175334 0.00820989132
v 0.00924000356 -0.00773056529 0.00826611519
v 0.00922440145 -0.00774615786 0.00994522095
v 0.00902012441 -0.00512201808 -0.00961261749
v 0.00913845632 -0.00500368617 0.0095630455
v 0.0094693813 -0.007501178 -0.00990267992
v 0.00926298711 -0.00770758174 -0.00801919699
v 0.00925127599 -0.00771928332 -0.00780898809
v 0.00926100347 -0.00770956538 -0.0010229969
v 0.00928577992 -0.00768478892 -0.00098408699
v 0.0094038448 -0.00756672404 -0.000749998093
v 0.00946871373 -0.00750185511 0.000561909676
v 0.00939444158 -0.00757611773 0.000772557259
v 0.0092734966 -0.00769705317 0.00100369453
v 0.00925127599 -0.00771928332 0.00780898571
v 0.00926310155 -0.00770746729 0.00800000191
v 0.00934702489 -0.00762353442 0.00992546082
v 0.00947548482 -0.00749507449 -0.000537552834
v 0.00948814961 -0.00748240969 -0.000488352776
v 0.00949959371 -0.0074709656 0.000438556671
v 0.0094819698 -0.0074885895 0.000513029099
v 0.00925613973 -0.00488598368 -0.0095105648
v 0.00937317464 -0.00476894877 -0.00945518494
v 0.00937317464 -0.00476894877 0.00945518494
v 0.00925613973 -0.00488598368 0.0095105648
v 0.00948952291 -0.00465261958 -0.00939692736
v 0.00948952291 -0.00465261958 0.00939692497
v 0.00971315953 -0.00725739977 -0.0098480773
v 0.00950485799 -0.00746571086 -0.000413455963
v 0.00953287694 -0.00743768237 -0.000234651566
v 0.00954594228 -0.00742461703 0
v 0.00952982518 -0.00744073413 0.000260472298
v 0.00959143254 -0.00737912676 0.00987688541
v 0.00960510823 -0.00453702471 -0.00933580399
v 0.00960510823 -0.00453702471 0.00933580399
v 0.00971993062 -0.00442220233 -0.00927183867
v 0.00971993062 -0.00442220233 0.00927183628
v 0.00995543096 -0.00701512835 -0.00978147507
v 0.00983450505 -0.00713605425 0.00981626987
v 0.00983395192 -0.00430818102 -0.00920504808
v 0.00983395192 -0.00430818102 0.00920505047
v 0.00994713399 -0.00419500849 -0.0091354537
v 0.00994713399 -0.00419500849 0.00913545609
v 0.0101959285 -0.00677463076 -0.00970295668
v 0.0100759182 -0.00689464114 0.00974370003
v 0.0100594387 -0.00408270381 -0.00906307697
v 0.0100594387 -0.00408270381 0.00906307697
v 0.0101708278 -0.00397131465 -0.00898793936
v 0.0101708278 -0.00397131465 0.00898794174
v 0.0104343281 -0.00653623126 -0.00961261749
v 0.0103154049 -0.00665515444 0.00965925694
v 0.0102812633 -0.00386086962 -0.0089100647
v 0.0103907261 -0.00375140689 0.00882947445
v 0.010499197 -0.00364294551 -0.00874619722
v 0.010499197 -0.00364294551 0.00874619484
v 0.0106703624 -0.00630019686 -0.0095105648
v 0.01055266 -0.00641789935 0.0095630455
v 0.0106065998 -0.00353553317 -0.00866025448
v 0.0106065998 -0.00353553317 0.00866025448
v 0.0107129345 -0.00342919848 -0.00857167244
v 0.0107129345 -0.00342919848 0.00857167244
v 0.0109037265 -0.00606683276 -0.00939692736
v 0.0107873974 -0.00618317149 0.00945518494
v 0.0108181629 -0.00332397006 -0.0084804821
v 0.0108181629 -0.00332397006 0.0084804821
v 0.0109222469 -0.00321988604 -0.00838670492
v 0.0109222469 -0.00321988604 0.00838670731
v 0.0111341533 -0.00583641551 -0.00927183867
v 0.0110193309 -0.00595123789 0.00933580399
v 0.0112481746 -0.00572239421 -0.00920504808
v 0.0112481746 -0.00572239421 0.00920505047
v 0.0110251674 -0.00311697505 -0.00829037666
v 0.0111268673 -0.00301526568 -0.00819152117
v 0.0111268673 -0.00301526568 0.00819151878
v 0.0110251674 -0.00311697505 0.00829037666
v 0.0112273464 -0.00291479609 -0.00809016943
v 0.0112273464 -0.00291479609 0.00809017181
v 0.0113613376 -0.00560922167 -0.0091354537
v 0.0113613376 -0.00560922167 0.00913545609
v 0.0114736423 -0.00549691699 -0.00906307697
v 0.0114736423 -0.00549691699 0.00906307697
v 0.0113265476 -0.00281559489 -0.00798635483
v 0.0113265476 -0.00281559489 0.00798635483
v 0.0114244518 -0.00271768115 -0.00788010836
v 0.0114244518 -0.00271768115 0.00788010597
v 0.011695486 -0.0052750828 -0.0089100647
v 0.0115850315 -0.00538552783 0.00898794174
v 0.0115210399 -0.00262110255 -0.00777145863
v 0.0116162548 -0.00252586863 -0.00766044378
v 0.0116162548 -0.00252586863 0.00766044617
v 0.0115210399 -0.00262110255 0.00777145863
v 0.0117100963 -0.00243202708 -0.00754709482
v 0.0117100963 -0.00243202708 0.00754709721
v 0.0118049488 -0.00516562007 -0.00882947683
v 0.0119134006 -0.00505715869 -0.00874619722
v 0.0119134006 -0.00505715869 0.00874619484
v 0.0118049488 -0.00516562007 0.00882947445
v 0.0118025264 -0.00233959696 -0.00743144751
v 0.0118025264 -0.00233959696 0.00743144989
v 0.011893526 -0.0022486069 -0.0073135376
v 0.0119830379 -0.00215909503 -0.00719339848
v 0.0119830379 -0.00215909503 0.00719339848
v 0.011893526 -0.0022486069 0.0073135376
v 0.0121271572 -0.00484341166 -0.00857167244
v 0.0120208225 -0.00494974635 0.00866025448
v 0.0122323856 -0.00473818324 -0.0084804821
v 0.0122323856 -0.00473818324 0.0084804821
v 0.0120710621 -0.00207107089 -0.00707106829
v 0.0120710621 -0.00207107089 0.0070710659
v 0.0121575603 -0.00198456309 -0.00694658279
v 0.0122425136 -0.00189961932 0.00681998253
v 0.0124393711 -0.00453118823 -0.00829037666
v 0.0123364696 -0.00463409922 0.00838670731
v 0.0123259029 -0.00181623957 -0.00669130564
v 0.0123259029 -0.00181623957 0.00669130802
v 0.0124076709 -0.001734462 -0.00656059027
v 0.0124878177 -0.00165431521 -0.00642787695
v 0.0124878177 -0.00165431521 0.00642787457
v 0.0124076709 -0.001734462 0.00656059265
v 0.01264155 -0.00432900927 -0.00809016943
v 0.0125410709 -0.00442947886 0.00819151878
v 0.0127407512 -0.00422980807 -0.00798635483
v 0.0127407512 -0.00422980807 0.00798635483
v 0.0125663242 -0.00157581828 -0.00629320383
v 0.0125663242 -0.00157581828 0.00629320621
v 0.0126431522 -0.00149899027 -0.00615661383
v 0.0127182827 -0.00142385981 0.00601815224
v 0.0129352436 -0.00403531573 -0.00777145863
v 0.0128386745 -0.00413189433 0.00788010597
v 0.0127916774 -0.0013504555 -0.00587785244
v 0.0128633556 -0.00127878688 -0.0057357645
v 0.0128633556 -0.00127878688 0.0057357645
v 0.0127916774 -0.0013504555 0.00587785244
v 0.0129332409 -0.00120888255 -0.00559192896
v 0.0129332409 -0.00120888255 0.00559193134
v 0.013124319 -0.00384624026 -0.00754709482
v 0.0132167492 -0.00375381014 -0.00743144751
v 0.0132167492 -0.00375381014 0.00743144989
v 0.0130304775 -0.00394009135 0.00766044617
v 0.0130013714 -0.00114077113 -0.00544639111
v 0.0131321583 -0.00100998423 -0.00515038013
v 0.0131321583 -0.00100998423 0.00515038013
v 0.0130676708 -0.00107446215 0.00529919147
v 0.0131947956 -0.000947346903 -0.005
v 0.0131947956 -0.000947346903 0.005
v 0.0133077297 -0.00366282008 -0.0073135376
v 0.0133972606 -0.00357330821 -0.00719339848
v 0.0133972606 -0.00357330821 0.00719339848
v 0.0133077297 -0.00366282008 0.0073135376
v 0.0134852848 -0.00348528407 -0.00707106829
v 0.0134852848 -0.00348528407 0.0070710659
v 0.0132555637 -0.000886569239 -0.00484809399
v 0.0133144436 -0.000827689387 -0.00469471455
v 0.0133714351 -0.000770697809 0.00453990459
v 0.0132555637 -0.000886569239 0.00484809399
v 0.0134265003 -0.000715632654 -0.00438371181
v 0.013479639 -0.000662503458 -0.00422618389
v 0.013479639 -0.000662503458 0.00422618389
v 0.0134265003 -0.000715632654 0.00438371181
v 0.0136567363 -0.0033138325 -0.00681998253
v 0.013571783 -0.00339877627 0.00694658279
v 0.0137401066 -0.00323045275 -0.00669130564
v 0.0137401066 -0.00323045275 0.00669130802
v 0.0135308132 -0.000611329294 -0.00406736851
v 0.0135800228 -0.0005621197 -0.00390731335
v 0.0136272487 -0.000514884211 -0.00374606609
v 0.0136272487 -0.000514884211 0.00374606609
v 0.0135800228 -0.0005621197 0.00390731335
v 0.0135308132 -0.000611329294 0.00406736851
v 0.013672472 -0.000469660975 -0.0035836792
v 0.0137156925 -0.000426440455 -0.00342020035
v 0.0137156925 -0.000426440455 0.00342020035
v 0.013672472 -0.000469660975 0.0035836792
v 0.0138218746 -0.00314867518 -0.00656059027
v 0.0139020405 -0.00306852839 -0.00642787695
v 0.0139020405 -0.00306852839 0.00642787457
v 0.0138218746 -0.00314867518 0.00656059265
v 0.0139805278 -0.00299003146 -0.00629320383
v 0.0139805278 -0.00299003146 0.00629320621
v 0.0137568912 -0.000385241724 -0.00325568199
v 0.0137960491 -0.000346083857 -0.00309017181
v 0.0138331661 -0.000308976389 -0.0029237175
v 0.0138682232 -0.000273919321 0.0027563715
v 0.0137960491 -0.000346083857 0.00309017181
v 0.0137568912 -0.000385241724 0.00325568199
v 0.0139012012 -0.000240941263 -0.00258819103
v 0.0139321003 -0.000210042216 -0.00241921902
v 0.0139609012 -0.000181231714 -0.00224951267
v 0.0139876232 -0.000154519297 0.00207911491
v 0.0139321003 -0.000210042216 0.00241921902
v 0.0139012012 -0.000240941263 0.00258819103
v 0.0141324863 -0.00283807299 -0.00601814985
v 0.0142059002 -0.00276466868 -0.00587785244
v 0.0142059002 -0.00276466868 0.00587785244
v 0.0140573559 -0.00291320346 0.00615661621
v 0.014012228 -0.0001299145 -0.00190808773
v 0.0140347156 -0.000107426859 -0.00173648357
v 0.0140733204 -6.88125861e-05 -0.00139173031
v 0.0140894375 -5.27050269e-05 -0.00121869564
v 0.0141152248 -2.69081366e-05 -0.000871558189
v 0.0141249141 -1.72283423e-05 -0.000697565079
v 0.0141378269 -4.3060553e-06 -0.000348997116
v 0.0141410503 -1.07309937e-06 -0.0001745224
v 0.0141410503 -1.07309937e-06 0.0001745224
v 0.0141378269 -4.3060553e-06 0.000348997116
v 0.0141324482 -9.69431519e-06 0.000523357391
v 0.0141152248 -2.69081366e-05 0.000871558189
v 0.0141033992 -3.87336981e-05 0.00104528427
v 0.0140733204 -6.88125861e-05 0.00139173031
v 0.0140550861 -8.70563757e-05 0.00156434536
v 0.014012228 -0.0001299145 0.00190808773
v 0.0141421375 4.55261143e-09 0
v 0.0143474636 -0.00262309573 -0.00559192896
v 0.014415575 -0.00255498431 -0.00544639111
v 0.014415575 -0.00255498431 0.00544639111
v 0.0142775593 -0.00269300006 0.0057357645
v 0.0144818935 -0.00248867533 -0.00529919147
v 0.0144818935 -0.00248867533 0.00529919147
v 0.0145463619 -0.00242419741 -0.00515038013
v 0.0146697674 -0.00230078242 -0.00484809399
v 0.0146697674 -0.00230078242 0.00484809399
v 0.0145463619 -0.00242419741 0.00515038013
v 0.0147286663 -0.00224190257 -0.00469471455
v 0.0147286663 -0.00224190257 0.00469471455
v 0.0147856579 -0.00218491099 -0.00453990459
v 0.014840723 -0.00212984583 -0.00438371181
v 0.0149450168 -0.00202554247 -0.00406736851
v 0.0148938427 -0.00207671664 0.00422618389
v 0.014840723 -0.00212984583 0.00438371181
v 0.0147856579 -0.00218491099 0.00453990459
v 0.0149942264 -0.00197633288 -0.00390731335
v 0.0149942264 -0.00197633288 0.00390731335
v 0.0150866947 -0.00188387416 -0.0035836792
v 0.0151711139 -0.0017994549 -0.00325568199
v 0.0152102718 -0.00176029704 -0.00309017181
v 0.0152102718 -0.00176029704 0.00309017181
v 0.0151299152 -0.00184065364 0.00342020035
v 0.0150414524 -0.00192909739 0.00374606609
v 0.0152473697 -0.00172318957 -0.0029237175
v 0.0152473697 -0.00172318957 0.0029237175
v 0.0152824268 -0.0016881325 -0.0027563715
v 0.0153154049 -0.00165515444 -0.00258819103
v 0.0153463039 -0.0016242554 -0.00241921902
v 0.0154018268 -0.00156873248 -0.00207911491
v 0.0154264316 -0.00154412768 -0.00190808773
v 0.0154692898 -0.00150126956 -0.00156434536
v 0.0154489193 -0.00152164004 0.00173648357
v 0.0154264316 -0.00154412768 0.00190808773
v 0.0153751239 -0.0015954449 0.00224951267
v 0.0153463039 -0.0016242554 0.00241921902
v 0.0153154049 -0.00165515444 0.00258819103
v 0.0152824268 -0.0016881325 0.0027563715
v 0.0154875431 -0.00148302577 -0.00139173031
v 0.0154875431 -0.00148302577 0.00139173031
v 0.015517622 -0.00145294688 -0.00104528427
v 0.0155294475 -0.00144112132 -0.000871558189
v 0.0155466518 -0.0014239075 -0.000523357391
v 0.0155520496 -0.00141851924 -0.000348997116
v 0.015555273 -0.00141528628 -0.0001745224
v 0.015555273 -0.00141528628 0.0001745224
v 0.0155520496 -0.00141851924 0.000348997116
v 0.0155391178 -0.00143144152 0.000697565079
v 0.0155294475 -0.00144112132 0.000871558189
v 0.0155036411 -0.00146691821 0.00121869564
f 10 9 1
f 9 60 1
f 1 61 10
f 1 60 61
f 16 2 3
f 2 78 3
f 17 2 16
f 17 20 2
f 20 77 2
f 2 77 78
f 15 3 4
f 3 79 4
f 16 3 15
f 3 78 79
f 14 4 5
f 4 66 5
f 15 4 14
f 4 79 66
f 13 5 6
f 5 56 6
f 14 5 13
f 5 66 56
f 12 6 7
f 6 57 7
f 13 6 12
f 6 56 57
f 11 7 8
f 7 58 8
f 12 7 11
f 7 57 58
f 10 8 9
f 8 59 9
f 11 8 10
f 8 58 59
f 9 59 60
f 10 61 11
f 11 62 12
f 11 61 62
f 12 63 13
f 12 62 63
f 13 64 14
f 13 63 64
f 14 65 15
f 14 64 65
f 15 67 16
f 15 65 67
f 16 80 17
f 16 67 80
f 21 20 17
f 17 81 21
f 17 80 81
f 22 18 19
f 18 75 19
f 23 18 22
f 23 26 18
f 26 74 18
f 18 74 75
f 21 19 20
f 19 76 20
f 22 19 21
f 19 75 76
f 20 76 77
f 21 82 22
f 21 81 82
f 22 83 23
f 22 82 83
f 27 26 23
f 23 84 27
f 23 83 84
f 28 24 25
f 24 95 25
f 29 24 28
f 29 31 24
f 31 95 24
f 27 25 26
f 25 96 26
f 28 25 27
f 25 95 96
f 26 86 74
f 26 96 86
f 27 87 28
f 27 84 85
f 27 85 87
f 28 97 29
f 28 87 97
f 32 31 29
f 29 98 32
f 29 97 98
f 32 30 31
f 30 94 31
f 33 30 32
f 33 36 30
f 36 94 30
f 31 94 95
f 32 98 33
f 37 36 33
f 33 99 37
f 33 98 99
f 38 34 35
f 34 108 35
f 39 34 38
f 39 41 34
f 41 108 34
f 37 35 36
f 35 100 36
f 38 35 37
f 35 108 100
f 36 100 94
f 37 99 38
f 38 101 39
f 38 99 101
f 42 41 39
f 39 109 42
f 39 101 109
f 42 40 41
f 40 107 41
f 43 40 42
f 43 45 40
f 45 106 40
f 40 106 107
f 41 107 108
f 42 109 43
f 46 45 43
f 43 110 46
f 43 109 110
f 46 44 45
f 44 121 45
f 47 44 46
f 47 48 44
f 48 121 44
f 45 112 106
f 45 121 112
f 46 113 47
f 46 110 111
f 46 111 113
f 49 48 47
f 47 122 49
f 47 113 122
f 49 51 48
f 51 120 48
f 48 120 121
f 52 51 49
f 49 123 52
f 49 122 123
f 52 50 51
f 50 124 51
f 53 50 52
f 53 54 50
f 54 130 50
f 50 131 124
f 50 130 131
f 51 124 120
f 52 123 53
f 55 54 53
f 53 132 55
f 53 123 125
f 53 125 132
f 55 69 54
f 69 130 54
f 70 69 55
f 55 133 70
f 55 132 133
f 56 349 57
f 66 349 56
f 57 349 58
f 58 349 59
f 59 349 60
f 60 349 61
f 61 349 62
f 62 349 63
f 63 349 64
f 64 349 65
f 65 349 67
f 79 349 66
f 67 349 80
f 70 68 69
f 68 141 69
f 71 68 70
f 71 72 68
f 72 140 68
f 68 140 141
f 69 141 130
f 70 133 71
f 73 72 71
f 71 142 73
f 71 133 142
f 73 88 72
f 88 144 72
f 72 144 140
f 89 88 73
f 73 143 89
f 73 142 143
f 74 349 75
f 86 349 74
f 75 349 76
f 76 349 77
f 77 349 78
f 78 349 79
f 80 350 81
f 80 349 350
f 81 350 82
f 82 350 83
f 83 350 84
f 84 350 85
f 85 350 87
f 96 349 86
f 87 354 97
f 87 350 354
f 89 91 88
f 91 151 88
f 88 151 144
f 92 91 89
f 89 145 92
f 89 143 145
f 92 90 91
f 90 150 91
f 93 90 92
f 93 102 90
f 102 154 90
f 90 154 150
f 91 150 151
f 92 152 93
f 92 145 152
f 103 102 93
f 93 153 103
f 93 152 153
f 94 349 95
f 100 349 94
f 95 349 96
f 97 354 98
f 98 355 99
f 98 354 355
f 99 378 101
f 99 355 378
f 108 349 100
f 101 378 109
f 103 104 102
f 104 162 102
f 102 162 154
f 105 104 103
f 103 155 105
f 103 153 155
f 105 114 104
f 114 164 104
f 104 164 162
f 115 114 105
f 105 163 115
f 105 155 163
f 106 349 107
f 112 349 106
f 107 349 108
f 109 378 110
f 110 378 111
f 111 378 113
f 121 349 112
f 113 378 122
f 115 117 114
f 117 171 114
f 114 171 164
f 118 117 115
f 115 165 118
f 115 163 165
f 118 116 117
f 116 170 117
f 119 116 118
f 119 126 116
f 126 179 116
f 116 179 170
f 117 170 171
f 118 172 119
f 118 165 172
f 127 126 119
f 119 173 127
f 119 172 173
f 120 349 121
f 124 349 120
f 122 378 123
f 123 379 125
f 123 378 379
f 131 349 124
f 125 379 132
f 127 128 126
f 128 178 126
f 126 178 179
f 129 128 127
f 127 180 129
f 127 173 180
f 129 135 128
f 135 178 128
f 136 135 129
f 129 181 136
f 129 180 181
f 130 349 131
f 141 349 130
f 132 379 133
f 133 379 142
f 136 134 135
f 134 186 135
f 137 134 136
f 137 138 134
f 138 186 134
f 135 186 178
f 136 181 137
f 139 138 137
f 137 187 139
f 137 181 187
f 139 146 138
f 146 188 138
f 138 188 186
f 147 146 139
f 139 187 147
f 140 349 141
f 144 349 140
f 142 379 143
f 143 379 145
f 151 349 144
f 145 379 152
f 147 148 146
f 148 194 146
f 146 194 188
f 149 148 147
f 147 189 149
f 147 187 189
f 149 157 148
f 157 194 148
f 158 157 149
f 149 195 158
f 149 189 195
f 150 349 151
f 154 349 150
f 152 379 153
f 153 379 155
f 162 349 154
f 155 380 163
f 155 379 380
f 158 156 157
f 156 200 157
f 159 156 158
f 159 160 156
f 160 200 156
f 157 200 194
f 158 195 159
f 161 160 159
f 159 201 161
f 159 195 201
f 161 166 160
f 166 202 160
f 160 202 200
f 167 166 161
f 161 201 167
f 164 349 162
f 163 380 165
f 171 349 164
f 165 380 172
f 167 168 166
f 168 208 166
f 166 208 202
f 169 168 167
f 167 203 169
f 167 201 203
f 169 174 168
f 174 208 168
f 175 174 169
f 169 209 175
f 169 203 209
f 170 349 171
f 179 349 170
f 172 380 173
f 173 380 180
f 175 176 174
f 176 215 174
f 174 215 208
f 177 176 175
f 175 209 177
f 177 182 176
f 182 214 176
f 176 214 215
f 183 182 177
f 177 216 183
f 177 209 216
f 178 349 179
f 186 349 178
f 180 380 181
f 181 380 187
f 183 184 182
f 184 222 182
f 182 222 214
f 185 184 183
f 183 223 185
f 183 216 217
f 183 217 223
f 185 190 184
f 190 224 184
f 184 224 222
f 191 190 185
f 185 223 191
f 188 349 186
f 187 382 189
f 187 380 382
f 194 349 188
f 189 382 195
f 191 192 190
f 192 230 190
f 190 230 224
f 193 192 191
f 191 225 193
f 191 223 225
f 193 196 192
f 196 232 192
f 192 232 230
f 197 196 193
f 193 231 197
f 193 225 231
f 200 349 194
f 195 382 201
f 197 198 196
f 198 238 196
f 196 238 232
f 199 198 197
f 197 233 199
f 197 231 233
f 199 204 198
f 204 238 198
f 205 204 199
f 199 239 205
f 199 233 239
f 202 349 200
f 201 382 203
f 208 349 202
f 203 382 209
f 205 206 204
f 206 244 204
f 204 244 238
f 207 206 205
f 205 239 207
f 207 250 206
f 211 244 206
f 206 266 211
f 206 248 247
f 206 247 256
f 249 248 206
f 250 249 206
f 256 255 206
f 255 270 206
f 269 266 206
f 206 270 269
f 207 245 212
f 212 250 207
f 207 239 245
f 215 349 208
f 209 382 216
f 210 260 211
f 211 266 210
f 218 260 210
f 210 265 218
f 210 266 265
f 211 260 244
f 212 245 213
f 213 250 212
f 219 250 213
f 213 261 219
f 213 245 261
f 214 349 215
f 222 349 214
f 216 382 217
f 217 382 223
f 218 265 220
f 220 290 218
f 218 290 260
f 221 250 219
f 219 291 221
f 219 261 291
f 220 264 226
f 226 308 220
f 220 265 264
f 220 308 290
f 227 250 221
f 221 291 227
f 224 349 222
f 223 382 225
f 230 349 224
f 225 382 231
f 226 264 228
f 228 308 226
f 229 250 227
f 227 309 229
f 227 291 309
f 228 264 234
f 234 326 228
f 228 326 308
f 235 250 229
f 229 309 235
f 232 349 230
f 231 382 233
f 238 349 232
f 233 382 239
f 234 264 236
f 236 326 234
f 237 250 235
f 235 327 237
f 235 309 327
f 236 281 240
f 240 346 236
f 236 264 263
f 236 263 281
f 236 346 326
f 241 250 237
f 237 327 241
f 244 349 238
f 239 382 245
f 240 281 242
f 242 346 240
f 243 250 241
f 241 351 243
f 241 327 351
f 242 281 246
f 246 372 242
f 242 372 346
f 243 251 250
f 276 251 243
f 253 288 243
f 243 351 253
f 243 277 276
f 243 278 277
f 288 278 243
f 260 349 244
f 382 261 245
f 246 293 254
f 254 372 246
f 246 281 293
f 248 353 247
f 247 377 256
f 247 353 352
f 247 352 377
f 249 348 248
f 248 348 347
f 248 347 353
f 250 349 249
f 249 349 348
f 251 350 250
f 250 350 349
f 276 252 251
f 252 355 251
f 251 354 350
f 251 355 354
f 276 257 252
f 257 378 252
f 252 378 355
f 259 298 253
f 253 383 259
f 253 298 288
f 253 351 383
f 254 293 262
f 262 384 254
f 254 384 372
f 256 377 255
f 255 376 270
f 255 377 376
f 258 257 276
f 258 379 257
f 257 379 378
f 271 258 276
f 271 379 258
f 279 298 259
f 259 383 279
f 290 349 260
f 261 382 291
f 262 301 280
f 280 414 262
f 293 301 262
f 262 414 384
f 264 417 263
f 263 416 281
f 263 417 416
f 265 386 264
f 264 386 385
f 264 385 417
f 266 374 265
f 265 374 373
f 265 373 386
f 269 267 266
f 267 388 266
f 266 387 374
f 266 388 387
f 269 268 267
f 268 419 267
f 267 418 388
f 267 419 418
f 269 282 268
f 282 419 268
f 270 376 269
f 284 282 269
f 269 422 284
f 269 376 375
f 269 375 389
f 269 389 422
f 276 272 271
f 272 380 271
f 271 380 379
f 272 274 273
f 272 273 287
f 275 274 272
f 275 272 276
f 272 297 285
f 285 423 272
f 272 287 297
f 272 390 380
f 272 423 390
f 274 427 273
f 273 426 287
f 273 427 426
f 275 392 274
f 274 392 391
f 274 391 427
f 276 382 275
f 275 382 381
f 275 381 392
f 277 394 276
f 276 393 382
f 276 394 393
f 278 429 277
f 277 428 394
f 277 429 428
f 288 429 278
f 289 306 279
f 279 395 289
f 279 306 298
f 279 383 395
f 280 301 292
f 292 432 280
f 280 432 414
f 281 416 293
f 283 282 284
f 283 294 282
f 294 420 282
f 282 420 419
f 284 422 283
f 295 294 283
f 283 421 295
f 283 422 421
f 285 297 286
f 286 424 285
f 285 424 423
f 286 297 296
f 296 424 286
f 287 426 297
f 298 430 288
f 288 430 429
f 299 306 289
f 289 431 299
f 289 395 431
f 308 349 290
f 291 394 309
f 291 382 393
f 291 393 394
f 292 311 300
f 300 464 292
f 301 311 292
f 292 464 432
f 293 466 301
f 293 416 415
f 293 415 433
f 293 433 466
f 295 302 294
f 302 467 294
f 294 434 420
f 294 467 434
f 303 302 295
f 295 469 303
f 295 421 435
f 295 435 469
f 296 297 305
f 296 305 304
f 304 470 296
f 296 436 424
f 296 470 436
f 297 472 305
f 297 426 425
f 297 425 437
f 297 437 472
f 306 473 298
f 298 438 430
f 298 473 438
f 299 316 306
f 307 316 299
f 299 439 307
f 299 431 439
f 300 311 310
f 310 476 300
f 300 476 464
f 301 466 311
f 303 312 302
f 312 468 302
f 302 468 467
f 313 312 303
f 303 469 313
f 304 305 315
f 304 315 314
f 314 470 304
f 305 472 315
f 316 474 306
f 306 474 473
f 317 316 307
f 307 475 317
f 307 439 475
f 326 349 308
f 309 428 327
f 309 394 428
f 310 311 319
f 310 319 318
f 318 494 310
f 310 494 476
f 311 495 319
f 311 466 465
f 311 465 477
f 311 477 495
f 313 320 312
f 320 496 312
f 312 478 468
f 312 496 478
f 321 320 313
f 313 497 321
f 313 469 479
f 313 479 497
f 314 315 323
f 314 323 322
f 322 498 314
f 314 480 470
f 314 498 480
f 315 499 323
f 315 472 471
f 315 471 481
f 315 481 499
f 317 324 316
f 324 500 316
f 316 482 474
f 316 500 482
f 325 324 317
f 317 483 325
f 317 475 483
f 318 319 329
f 318 329 328
f 328 502 318
f 318 502 494
f 319 495 329
f 321 330 320
f 330 496 320
f 332 330 321
f 321 497 332
f 322 323 335
f 322 335 333
f 333 498 322
f 323 499 335
f 336 324 325
f 336 500 324
f 337 336 325
f 325 501 337
f 325 483 501
f 346 349 326
f 327 429 351
f 327 428 429
f 328 329 338
f 338 514 328
f 328 514 502
f 329 339 338
f 329 515 339
f 329 495 503
f 329 503 515
f 330 332 331
f 330 332 341
f 330 341 340
f 340 516 330
f 330 504 496
f 330 516 504
f 332 497 331
f 331 505 332
f 331 497 505
f 332 517 341
f 332 505 517
f 333 335 334
f 334 506 333
f 333 518 334
f 333 335 342
f 342 518 333
f 333 506 498
f 334 518 506
f 342 335 343
f 335 519 343
f 335 499 507
f 335 507 519
f 345 336 337
f 345 344 336
f 344 520 336
f 336 508 500
f 336 520 508
f 337 509 345
f 337 501 509
f 338 339 356
f 356 522 338
f 338 522 514
f 356 339 357
f 339 515 357
f 340 341 359
f 340 359 358
f 358 516 340
f 341 517 359
f 342 343 360
f 360 518 342
f 360 343 361
f 343 519 361
f 363 344 345
f 363 362 344
f 362 520 344
f 345 521 363
f 345 509 521
f 347 348 346
f 346 353 347
f 348 349 346
f 346 352 353
f 372 352 346
f 351 429 383
f 372 377 352
f 356 357 364
f 364 534 356
f 356 534 522
f 364 357 396
f 396 357 365
f 357 535 365
f 357 515 523
f 357 523 535
f 358 359 367
f 358 367 366
f 366 537 358
f 358 524 516
f 358 538 524
f 358 537 538
f 359 539 367
f 359 517 525
f 359 525 539
f 360 361 368
f 368 540 360
f 360 526 518
f 360 540 526
f 368 361 369
f 361 541 369
f 361 519 527
f 361 527 541
f 371 362 363
f 370 362 403
f 370 543 362
f 403 362 371
f 362 528 520
f 362 544 528
f 362 543 544
f 363 529 371
f 363 521 529
f 396 546 364
f 364 546 534
f 396 365 404
f 440 365 397
f 365 536 397
f 404 365 440
f 365 535 536
f 366 367 399
f 366 399 398
f 398 537 366
f 367 539 399
f 368 369 400
f 400 540 368
f 400 369 401
f 369 542 401
f 369 541 542
f 402 370 457
f 402 543 370
f 413 370 403
f 457 370 413
f 371 545 403
f 371 529 545
f 373 374 372
f 372 386 373
f 372 374 375
f 372 375 376
f 372 376 377
f 384 385 372
f 372 385 386
f 375 374 387
f 375 387 389
f 380 381 382
f 380 392 381
f 390 426 380
f 380 391 392
f 380 427 391
f 380 426 427
f 383 438 395
f 383 429 430
f 430 438 383
f 417 385 384
f 414 416 384
f 384 416 417
f 387 388 389
f 389 388 418
f 389 418 422
f 423 426 390
f 395 473 431
f 395 438 473
f 404 558 396
f 396 558 546
f 484 397 405
f 397 559 405
f 440 397 458
f 458 397 484
f 397 536 547
f 397 547 559
f 398 399 407
f 398 407 406
f 406 563 398
f 398 548 537
f 398 564 548
f 398 563 564
f 399 565 407
f 399 539 549
f 399 549 565
f 400 401 410
f 410 568 400
f 400 550 540
f 400 568 550
f 410 401 409
f 409 401 450
f 450 401 411
f 401 569 411
f 401 542 551
f 401 551 569
f 491 412 402
f 412 573 402
f 463 402 457
f 491 402 463
f 402 552 543
f 402 574 552
f 402 573 574
f 403 553 413
f 403 545 553
f 440 576 404
f 404 576 558
f 405 441 492
f 405 560 441
f 484 405 492
f 405 559 560
f 406 407 408
f 406 408 446
f 446 563 406
f 407 565 408
f 446 408 447
f 408 566 447
f 408 565 566
f 409 567 410
f 450 567 409
f 410 567 568
f 411 451 450
f 411 570 451
f 411 569 570
f 513 456 412
f 456 573 412
f 493 412 491
f 511 412 493
f 513 412 511
f 413 575 457
f 413 553 575
f 414 415 416
f 414 433 415
f 432 433 414
f 422 418 419
f 421 419 420
f 422 419 421
f 421 420 435
f 435 420 434
f 424 472 423
f 423 425 426
f 423 437 425
f 423 472 437
f 436 472 424
f 431 473 439
f 432 466 433
f 464 466 432
f 435 434 469
f 469 434 467
f 470 472 436
f 473 474 439
f 439 474 475
f 458 590 440
f 440 590 576
f 492 441 442
f 441 560 442
f 492 442 443
f 442 577 443
f 442 560 561
f 442 561 577
f 492 443 444
f 443 591 444
f 443 577 578
f 443 578 591
f 445 447 444
f 444 579 445
f 444 447 448
f 444 448 459
f 444 459 460
f 460 485 444
f 485 486 444
f 444 486 492
f 444 592 579
f 444 591 592
f 446 447 445
f 445 562 446
f 445 580 562
f 445 579 580
f 446 562 563
f 447 593 448
f 447 566 581
f 447 581 593
f 448 594 459
f 448 593 594
f 449 597 450
f 699 449 450
f 462 597 449
f 702 462 449
f 703 449 699
f 702 449 703
f 450 451 452
f 450 452 453
f 450 453 454
f 669 450 454
f 450 582 567
f 450 598 582
f 450 597 598
f 675 450 669
f 674 450 675
f 677 450 674
f 683 450 677
f 687 450 683
f 686 450 687
f 693 450 686
f 695 450 693
f 699 450 695
f 451 570 452
f 452 583 453
f 452 570 571
f 452 571 583
f 453 599 454
f 453 583 584
f 453 584 599
f 557 454 455
f 454 585 455
f 589 454 557
f 454 600 585
f 609 454 589
f 454 599 600
f 454 609 608
f 454 608 611
f 619 454 611
f 621 454 619
f 625 454 621
f 627 454 625
f 631 454 627
f 633 454 631
f 637 454 633
f 639 454 637
f 643 454 639
f 645 454 643
f 649 454 645
f 651 454 649
f 659 454 651
f 658 454 659
f 661 454 658
f 667 454 661
f 669 454 667
f 513 455 456
f 455 572 456
f 531 455 513
f 533 455 531
f 555 455 533
f 557 455 555
f 455 586 572
f 455 585 586
f 456 572 573
f 457 587 463
f 457 575 587
f 484 590 458
f 459 594 460
f 460 595 485
f 460 594 595
f 461 596 462
f 726 461 462
f 490 596 461
f 739 490 461
f 729 461 726
f 739 461 729
f 462 596 597
f 709 462 702
f 711 462 709
f 717 462 711
f 716 462 717
f 719 462 716
f 727 462 719
f 726 462 727
f 463 601 491
f 463 587 601
f 465 466 464
f 464 477 465
f 476 477 464
f 469 467 468
f 469 468 479
f 479 468 478
f 470 471 472
f 470 481 471
f 480 499 470
f 470 499 481
f 475 474 482
f 475 482 500
f 475 500 483
f 476 495 477
f 494 495 476
f 479 478 496
f 479 496 497
f 498 499 480
f 483 500 501
f 492 612 484
f 484 612 590
f 485 602 486
f 485 595 602
f 486 487 492
f 486 613 487
f 486 602 603
f 486 603 613
f 487 488 492
f 487 614 488
f 487 613 614
f 488 615 489
f 794 488 489
f 492 488 510
f 510 488 512
f 512 488 530
f 530 488 532
f 532 488 554
f 554 488 556
f 556 488 588
f 588 488 606
f 606 488 607
f 607 488 610
f 610 488 618
f 488 614 615
f 618 488 620
f 620 488 624
f 624 488 626
f 626 488 630
f 630 488 632
f 632 488 636
f 636 488 638
f 638 488 642
f 642 488 644
f 644 488 648
f 648 488 650
f 650 488 656
f 656 488 657
f 657 488 660
f 660 488 666
f 666 488 668
f 668 488 672
f 672 488 673
f 673 488 676
f 676 488 682
f 682 488 684
f 684 488 685
f 685 488 692
f 692 488 694
f 694 488 698
f 698 488 700
f 700 488 701
f 701 488 708
f 708 488 710
f 710 488 714
f 714 488 715
f 715 488 718
f 718 488 724
f 724 488 725
f 725 488 728
f 728 488 736
f 736 488 737
f 737 488 740
f 740 488 741
f 741 488 748
f 748 488 749
f 749 488 750
f 750 488 754
f 754 488 755
f 755 488 764
f 764 488 765
f 765 488 766
f 766 488 770
f 770 488 771
f 771 488 772
f 772 488 780
f 780 488 781
f 781 488 782
f 782 488 783
f 783 488 784
f 784 488 785
f 785 488 786
f 786 488 787
f 787 488 796
f 788 488 789
f 796 488 788
f 789 488 790
f 790 488 791
f 791 488 792
f 792 488 793
f 793 488 794
f 489 604 490
f 756 489 490
f 489 616 604
f 489 615 616
f 769 489 756
f 767 489 768
f 775 489 767
f 768 489 769
f 773 489 774
f 795 489 773
f 774 489 775
f 794 489 795
f 490 605 596
f 490 604 605
f 738 490 739
f 743 490 738
f 742 490 743
f 753 490 742
f 751 490 752
f 757 490 751
f 752 490 753
f 756 490 757
f 491 601 493
f 510 612 492
f 493 617 511
f 493 601 617
f 494 503 495
f 502 503 494
f 497 496 504
f 497 504 505
f 498 507 499
f 506 507 498
f 501 500 509
f 509 500 508
f 502 515 503
f 514 515 502
f 505 504 517
f 517 504 516
f 518 507 506
f 518 519 507
f 509 508 520
f 509 520 521
f 512 622 510
f 510 622 612
f 511 617 513
f 530 622 512
f 513 623 531
f 513 617 623
f 514 523 515
f 522 523 514
f 517 516 525
f 525 516 524
f 526 519 518
f 540 519 526
f 540 527 519
f 521 520 529
f 520 528 545
f 529 520 545
f 535 523 522
f 534 536 522
f 522 536 535
f 525 524 538
f 525 538 539
f 540 541 527
f 545 528 544
f 532 628 530
f 530 628 622
f 531 623 533
f 554 628 532
f 533 629 555
f 533 623 629
f 534 547 536
f 546 547 534
f 539 538 537
f 539 537 548
f 539 548 549
f 540 542 541
f 550 542 540
f 568 542 550
f 567 551 542
f 567 542 568
f 553 544 543
f 543 552 587
f 553 543 575
f 575 543 587
f 545 544 553
f 546 559 547
f 558 560 546
f 546 560 559
f 549 548 564
f 549 564 565
f 567 569 551
f 552 574 601
f 587 552 601
f 556 634 554
f 554 634 628
f 555 629 557
f 588 634 556
f 557 635 589
f 557 629 635
f 561 560 558
f 558 577 561
f 576 577 558
f 566 563 562
f 562 580 566
f 565 564 563
f 565 563 566
f 566 580 581
f 567 570 569
f 582 570 567
f 598 571 570
f 598 570 582
f 583 571 598
f 617 573 572
f 617 572 586
f 601 574 573
f 601 573 617
f 578 577 576
f 591 578 576
f 590 591 576
f 580 579 581
f 581 579 592
f 581 592 593
f 584 583 598
f 599 584 598
f 617 586 585
f 617 585 600
f 606 640 588
f 588 640 634
f 589 641 609
f 589 635 641
f 591 590 594
f 595 594 590
f 602 595 590
f 590 603 602
f 590 613 603
f 612 613 590
f 591 594 592
f 594 593 592
f 597 596 600
f 596 605 600
f 600 598 597
f 599 598 600
f 600 605 604
f 600 604 616
f 600 616 617
f 607 646 606
f 606 646 640
f 610 646 607
f 609 641 608
f 608 647 611
f 608 641 647
f 618 652 610
f 610 652 646
f 611 647 619
f 622 613 612
f 830 614 613
f 628 613 622
f 634 613 628
f 640 613 634
f 646 613 640
f 652 613 646
f 654 613 652
f 662 613 654
f 664 613 662
f 670 613 664
f 678 613 670
f 679 613 678
f 688 613 679
f 690 613 688
f 696 613 690
f 704 613 696
f 706 613 704
f 712 613 706
f 720 613 712
f 721 613 720
f 730 613 721
f 731 613 730
f 734 613 731
f 744 613 734
f 746 613 744
f 758 613 746
f 759 613 758
f 762 613 759
f 776 613 762
f 777 613 776
f 797 613 777
f 798 613 797
f 801 613 798
f 803 613 801
f 804 613 803
f 807 613 804
f 809 613 807
f 810 613 809
f 811 613 810
f 815 613 811
f 817 613 815
f 818 613 817
f 819 613 818
f 823 613 819
f 825 613 823
f 826 613 825
f 827 613 826
f 828 613 827
f 829 613 828
f 830 613 829
f 843 615 614
f 837 614 830
f 839 614 837
f 840 614 839
f 841 614 840
f 842 614 841
f 843 614 842
f 617 616 615
f 617 615 623
f 623 615 629
f 629 615 635
f 635 615 641
f 641 615 647
f 647 615 653
f 653 615 655
f 655 615 663
f 663 615 665
f 665 615 671
f 671 615 681
f 681 615 680
f 680 615 689
f 689 615 691
f 691 615 697
f 697 615 705
f 705 615 707
f 707 615 713
f 713 615 723
f 723 615 722
f 722 615 733
f 733 615 732
f 732 615 735
f 735 615 745
f 745 615 747
f 747 615 761
f 761 615 760
f 760 615 763
f 763 615 779
f 779 615 778
f 778 615 800
f 800 615 799
f 799 615 802
f 802 615 806
f 806 615 805
f 805 615 808
f 808 615 814
f 813 615 812
f 812 615 816
f 814 615 813
f 816 615 822
f 821 615 820
f 820 615 824
f 822 615 821
f 824 615 836
f 832 615 831
f 831 615 838
f 833 615 832
f 834 615 833
f 835 615 834
f 836 615 835
f 838 615 848
f 844 615 843
f 845 615 844
f 846 615 845
f 847 615 846
f 848 615 847
f 620 652 618
f 619 653 621
f 619 647 653
f 624 654 620
f 620 654 652
f 621 653 625
f 626 662 624
f 624 662 654
f 625 655 627
f 625 653 655
f 630 664 626
f 626 664 662
f 627 663 631
f 627 655 663
f 632 670 630
f 630 670 664
f 631 665 633
f 631 663 665
f 636 670 632
f 633 671 637
f 633 665 671
f 638 679 636
f 636 678 670
f 636 679 678
f 637 681 639
f 637 671 681
f 642 688 638
f 638 688 679
f 639 680 643
f 639 681 680
f 644 688 642
f 643 689 645
f 643 680 689
f 648 690 644
f 644 690 688
f 645 689 649
f 650 696 648
f 648 696 690
f 649 691 651
f 649 689 691
f 656 696 650
f 651 697 659
f 651 691 697
f 657 704 656
f 656 704 696
f 660 704 657
f 659 697 658
f 658 705 661
f 658 697 705
f 666 706 660
f 660 706 704
f 661 705 667
f 668 712 666
f 666 712 706
f 667 707 669
f 667 705 707
f 672 712 668
f 669 713 675
f 669 707 713
f 673 720 672
f 672 720 712
f 676 720 673
f 675 713 674
f 674 723 677
f 674 713 723
f 682 721 676
f 676 721 720
f 677 723 683
f 684 730 682
f 682 730 721
f 683 722 687
f 683 723 722
f 685 731 684
f 684 731 730
f 692 734 685
f 685 734 731
f 687 733 686
f 686 732 693
f 686 733 732
f 687 722 733
f 694 744 692
f 692 744 734
f 693 735 695
f 693 732 735
f 698 746 694
f 694 746 744
f 695 745 699
f 695 735 745
f 700 758 698
f 698 758 746
f 699 747 703
f 699 745 747
f 701 759 700
f 700 759 758
f 708 762 701
f 701 762 759
f 703 761 702
f 702 760 709
f 702 761 760
f 703 747 761
f 710 776 708
f 708 776 762
f 709 763 711
f 709 760 763
f 714 777 710
f 710 777 776
f 711 779 717
f 711 763 779
f 715 797 714
f 714 797 777
f 718 797 715
f 717 778 716
f 716 800 719
f 716 778 800
f 717 779 778
f 724 798 718
f 718 798 797
f 719 800 727
f 725 803 724
f 724 801 798
f 724 803 801
f 728 804 725
f 725 804 803
f 727 802 726
f 726 806 729
f 726 802 806
f 727 800 799
f 727 799 802
f 736 804 728
f 729 806 739
f 737 807 736
f 736 807 804
f 740 810 737
f 737 809 807
f 737 810 809
f 739 805 738
f 738 814 743
f 738 805 808
f 738 808 814
f 739 806 805
f 741 811 740
f 740 811 810
f 748 811 741
f 743 813 742
f 742 812 753
f 742 813 812
f 743 814 813
f 749 815 748
f 748 815 811
f 750 817 749
f 749 817 815
f 754 817 750
f 752 816 751
f 751 822 757
f 751 816 822
f 753 812 752
f 752 812 816
f 755 818 754
f 754 818 817
f 764 818 755
f 757 822 756
f 756 821 769
f 756 822 821
f 765 819 764
f 764 819 818
f 766 823 765
f 765 823 819
f 770 826 766
f 766 825 823
f 766 826 825
f 768 820 767
f 767 836 775
f 767 820 824
f 767 824 836
f 769 821 768
f 768 821 820
f 771 827 770
f 770 827 826
f 772 828 771
f 771 828 827
f 780 829 772
f 772 829 828
f 774 834 773
f 773 833 795
f 773 834 833
f 775 835 774
f 774 835 834
f 775 836 835
f 781 830 780
f 780 830 829
f 782 837 781
f 781 837 830
f 783 839 782
f 782 839 837
f 784 840 783
f 783 840 839
f 785 841 784
f 784 841 840
f 786 842 785
f 785 842 841
f 787 843 786
f 786 843 842
f 796 844 787
f 787 844 843
f 789 845 788
f 788 844 796
f 788 845 844
f 790 846 789
f 789 846 845
f 791 847 790
f 790 847 846
f 792 848 791
f 791 848 847
f 793 838 792
f 792 838 848
f 794 831 793
f 793 831 838
f 795 832 794
f 794 832 831
f 795 833 832
