# CAD visual only; metres; body-local coordinates
v -0.00978147469 -0.00207911454 0.00999999809
v -0.00978147469 -0.00207911454 0.012000001
v -0.0098162695 -0.00190809213 0.00999999809
v -0.0098162695 -0.00190809213 0.012000001
v -0.00987688504 -0.00156434499 0.00999999809
v -0.00984807931 -0.0017364832 0.012000001
v -0.00990268193 -0.00139172994 0.00999999809
v -0.00990268193 -0.00139172994 0.012000001
v -0.00994522057 -0.0010452839 0.00999999809
v -0.00992546044 -0.00121869527 0.012000001
v -0.00996194802 -0.000871557817 0.00999999809
v -0.00996194802 -0.000871557817 0.012000001
v -0.00998629533 -0.000523361787 0.00999999809
v -0.00997564279 -0.000697564706 0.012000001
v -0.00999391042 -0.000348996743 0.00999999809
v -0.00999391042 -0.000348996743 0.012000001
v -0.00999847852 -0.000174522027 0.00999999809
v -0.00999847852 -0.000174522027 0.012000001
v -0.00999847852 0.000174522773 0.00999999809
v -0.00999999963 3.72796696e-10 0.012000001
v -0.00999391042 0.000348992721 0.00999999809
v -0.00999391042 0.000348992721 0.012000001
v -0.00997564279 0.000697565452 0.00999999809
v -0.00998629533 0.000523357764 0.012000001
v -0.00996194802 0.000871558562 0.00999999809
v -0.00996194802 0.000871558562 0.012000001
v -0.00992546044 0.00121869124 0.00999999809
v -0.00994522057 0.00104528464 0.012000001
v -0.00990268193 0.00139173068 0.00999999809
v -0.00990268193 0.00139173068 0.012000001
v -0.00984807931 0.00173648395 0.00999999809
v -0.00987688504 0.00156434573 0.012000001
v -0.0098162695 0.0019080881 0.00999999809
v -0.0098162695 0.0019080881 0.012000001
v -0.00978147469 0.00207911529 0.00999999809
v -0.00978147469 0.00207911529 0.012000001
v -0.00951056443 -0.00309017144 0.00999999809
v -0.00951056443 -0.00309017144 0.012000001
v -0.00961261712 -0.00275637589 0.00999999809
v -0.0095630499 -0.00292371713 0.012000001
v -0.00965925656 -0.00258819066 0.00999999809
v -0.00965925656 -0.00258819066 0.012000001
v -0.00970295869 -0.00241921864 0.00999999809
v -0.00970295869 -0.00241921864 0.012000001
v -0.00974369965 -0.0022495123 0.00999999809
v -0.00974369965 -0.0022495123 0.012000001
v -0.00974369965 0.00224950828 0.00999999809
v -0.00974369965 0.00224950828 0.012000001
v -0.00970295869 0.00241921939 0.00999999809
v -0.00970295869 0.00241921939 0.012000001
v -0.00965925656 0.00258819141 0.00999999809
v -0.00965925656 0.00258819141 0.012000001
v -0.0095630499 0.00292371787 0.00999999809
v -0.00961261712 0.00275637187 0.012000001
v -0.00951056443 0.00309017219 0.00999999809
v -0.00951056443 0.00309017219 0.012000001
v -0.00933580361 -0.00358367883 0.00999999809
v -0.00927184068 -0.00374606572 0.012000001
v -0.00945518456 -0.00325568162 0.00999999809
v -0.0093969246 -0.00342019998 0.012000001
v -0.0093969246 0.00342020072 0.00999999809
v -0.00945518456 0.00325568236 0.012000001
v -0.00927184068 0.0037460617 0.00999999809
v -0.00933580361 0.00358367957 0.012000001
v -0.00913545571 -0.00406736813 0.00999999809
v -0.0090630766 -0.00422618352 0.012000001
v -0.0092050501 -0.00390731297 0.00999999809
v -0.0092050501 -0.00390731297 0.012000001
v -0.0092050501 0.00390730895 0.00999999809
v -0.0092050501 0.00390730895 0.012000001
v -0.0090630766 0.0042261795 0.00999999809
v -0.00913545571 0.00406736411 0.012000001
v -0.00891006432 -0.00453990422 0.00999999809
v -0.00882947408 -0.00469471417 0.012000001
v -0.00898794137 -0.00438371144 0.00999999809
v -0.00898794137 -0.00438371144 0.012000001
v -0.00898794137 0.00438370742 0.00999999809
v -0.00898794137 0.00438370742 0.012000001
v -0.00882947408 0.00469471969 0.00999999809
v -0.00891006432 0.00453990974 0.012000001
v -0.00857167207 -0.00515037976 0.00999999809
v -0.00857167207 -0.00515037976 0.012000001
v -0.00874619924 -0.00484809838 0.00999999809
v -0.00866025411 -0.00499999963 0.012000001
v -0.00874619924 0.00484809913 0.00999999809
v -0.00874619924 0.00484809913 0.012000001
v -0.00857167207 0.00515038528 0.00999999809
v -0.00866025411 0.00500000037 0.012000001
v -0.00829037629 -0.00559193097 0.00999999809
v -0.00829037629 -0.00559193097 0.012000001
v -0.00848048173 -0.0052991911 0.00999999809
v -0.00838670693 -0.00544639073 0.012000001
v -0.00838670693 0.00544638671 0.00999999809
v -0.00848048173 0.00529919662 0.012000001
v -0.00829037629 0.00559192695 0.00999999809
v -0.00829037629 0.00559192695 0.012000001
v -0.00809017144 -0.00587785207 0.00999999809
v -0.00809017144 -0.00587785207 0.012000001
v -0.00819151841 -0.00573576413 0.00999999809
v -0.00819151841 -0.00573576413 0.012000001
v -0.00819151841 0.00573576011 0.00999999809
v -0.00819151841 0.00573576011 0.012000001
v -0.00809017144 0.00587784804 0.00999999809
v -0.00809017144 0.00587784804 0.012000001
v -0.00777145825 -0.00629320584 0.00999999809
v -0.00777145825 -0.00629320584 0.012000001
v -0.00798635446 -0.00601815186 0.00999999809
v -0.0078801056 -0.00615661584 0.012000001
v -0.0078801056 0.00615661658 0.00999999809
v -0.00798635446 0.00601815261 0.012000001
v -0.00777145825 0.00629320182 0.00999999809
v -0.00777145825 0.00629320182 0.012000001
v -0.00754709683 -0.00656059228 0.00999999809
v -0.00754709683 -0.00656059228 0.012000001
v -0.00766044579 -0.00642787419 0.00999999809
v -0.00766044579 -0.00642787419 0.012000001
v -0.00766044579 0.00642787971 0.00999999809
v -0.00766044579 0.00642787971 0.012000001
v -0.00754709683 0.00656059302 0.00999999809
v -0.00754709683 0.00656059302 0.012000001
v -0.00731353722 -0.00681998216 0.00999999809
v -0.00731353722 -0.00681998216 0.012000001
v -0.00743144952 -0.00669130765 0.00999999809
v -0.00743144952 -0.00669130765 0.012000001
v -0.00743144952 0.00669130363 0.00999999809
v -0.00743144952 0.00669130363 0.012000001
v -0.00731353722 0.0068199829 0.00999999809
v -0.00731353722 0.0068199829 0.012000001
v -0.00707106553 -0.00707106553 0.00999999809
v -0.00707106553 -0.00707106553 0.012000001
v -0.0071933981 -0.00694658242 0.00999999809
v -0.0071933981 -0.00694658242 0.012000001
v -0.0071933981 0.00694658317 0.00999999809
v -0.0071933981 0.00694658317 0.012000001
v -0.00707106553 0.00707106628 0.00999999809
v -0.00707106553 0.00707106628 0.012000001
v -0.00681998216 -0.00731353722 0.00999999809
v -0.00681998216 -0.00731353722 0.012000001
v -0.00694658242 -0.0071933981 0.00999999809
v -0.00694658242 -0.0071933981 0.012000001
v -0.00675082646 -0.00577183686 0.00999999809
v -0.00675266705 -0.00575272523 0.012000001
v -0.00675417386 -0.00573358498 0.00999999809
v -0.00675082646 -0.00554187261 0.012000001
v -0.00694658242 0.00719339408 0.00999999809
v -0.00694658242 0.00719339408 0.012000001
v -0.00681998216 0.00731353797 0.00999999809
v -0.00681998216 0.00731353797 0.012000001
v -0.00656059228 -0.00754709683 0.00999999809
v -0.00656059228 -0.00754709683 0.012000001
v -0.00669130765 -0.00743144952 0.00999999809
v -0.00669130765 -0.00743144952 0.012000001
v -0.00651171647 -0.00634910546 0.00999999809
v -0.00657939397 -0.00625595532 0.012000001
v -0.00658970796 -0.0062397667 0.00999999809
v -0.00669692479 -0.0060149809 0.012000001
v -0.00670301877 -0.00599677525 0.00999999809
v -0.00674865685 -0.00579091035 0.012000001
v -0.00674865685 -0.00552279912 0.00999999809
v -0.00674614869 -0.00550376378 0.012000001
v -0.00674331151 -0.00548477612 0.00999999809
v -0.0066837927 -0.00526265107 0.012000001
v -0.00667675458 -0.00524478875 0.00999999809
v -0.00654677354 -0.00501028977 0.012000001
v -0.00653535329 -0.00499485932 0.00999999809
v -0.00651171647 -0.004964604 0.012000001
v -0.00669130765 0.00743145026 0.00999999809
v -0.00669130765 0.00743145026 0.012000001
v -0.00656059228 0.00754709281 0.00999999809
v -0.00656059228 0.00754709281 0.012000001
v -0.00629320584 -0.00777145825 0.00999999809
v -0.00629320584 -0.00777145825 0.012000001
v -0.00642787419 -0.00766044579 0.00999999809
v -0.00642787419 -0.00766044579 0.012000001
v -0.00625595532 -0.00657939397 0.00999999809
v -0.00634910546 -0.00651171647 0.012000001
v -0.00643467389 -0.00643467389 0.00999999809
v -0.00643467389 -0.00643467389 0.012000001
v -0.00649950467 -0.00494978867 0.00999999809
v -0.00628778897 -0.00475578748 0.012000001
v -0.00627196752 -0.00474491082 0.00999999809
v -0.00625595532 -0.0047343155 0.012000001
v -0.00642787419 0.00766044654 0.00999999809
v -0.00642787419 0.00766044654 0.012000001
v -0.00629320584 0.00777146377 0.00999999809
v -0.00629320584 0.00777146377 0.012000001
v -0.00615661584 -0.0078801056 0.00999999809
v -0.00601815186 -0.00798635446 0.012000001
v -0.0060149809 -0.00669692479 0.00999999809
v -0.0062397667 -0.00658970796 0.012000001
v -0.0062397667 -0.00472400151 0.00999999809
v -0.0060149809 -0.00461678468 0.012000001
v -0.00601815186 0.0079863552 0.00999999809
v -0.00615661584 0.00788010635 0.012000001
v -0.00587785207 -0.00809017144 0.00999999809
v -0.00587785207 -0.00809017144 0.012000001
v -0.00575272523 -0.00675266705 0.00999999809
v -0.00577183686 -0.00675082646 0.012000001
v -0.00579091035 -0.00674865685 0.00999999809
v -0.00599677525 -0.00670301877 0.012000001
v -0.00599677525 -0.0046106907 0.00999999809
v -0.00575272523 -0.00456104241 0.012000001
v -0.00587785207 0.00809017219 0.00999999809
v -0.00587785207 0.00809017219 0.012000001
v -0.00559193097 -0.00829037629 0.00999999809
v -0.00559193097 -0.00829037629 0.012000001
v -0.00573576413 -0.00819151841 0.00999999809
v -0.00573576413 -0.00819151841 0.012000001
v -0.00554187261 -0.00675082646 0.00999999809
v -0.00573358498 -0.00675417386 0.012000001
v -0.00550376378 -0.00674614869 0.00999999809
v -0.00552279912 -0.00674865685 0.012000001
v -0.00573358498 -0.00455953561 0.00999999809
v -0.00550376378 -0.00456756078 0.012000001
v -0.00573576413 0.00819151916 0.00999999809
v -0.00573576413 0.00819151916 0.012000001
v -0.00559193097 0.00829037704 0.00999999809
v -0.00559193097 0.00829037704 0.012000001
v -0.00544639073 -0.00838670693 0.00999999809
v -0.0052991911 -0.00848048173 0.012000001
v -0.00526265107 -0.0066837927 0.00999999809
v -0.00548477612 -0.00674331151 0.012000001
v -0.00548477612 -0.00457039796 0.00999999809
v -0.00526265107 -0.00462991677 0.012000001
v -0.0052991911 0.00848048247 0.00999999809
v -0.00544639073 0.00838670768 0.012000001
v -0.00515037976 -0.00857167207 0.00999999809
v -0.00515037976 -0.00857167207 0.012000001
v -0.00501028977 -0.00654677354 0.00999999809
v -0.00524478875 -0.00667675458 0.012000001
v -0.0050259205 -0.00475578748 0.00999999809
v -0.00501028977 -0.00476693593 0.012000001
v -0.00524478875 -0.00463695012 0.00999999809
v -0.00504174195 -0.00474491082 0.012000001
v -0.00515037976 0.00857167281 0.00999999809
v -0.00515037976 0.00857167281 0.012000001
v -0.00499999963 -0.00866025411 0.00999999809
v -0.00484809838 -0.00874619924 0.012000001
v -0.004964604 -0.00651171647 0.00999999809
v -0.00499485932 -0.00653535329 0.012000001
v -0.00475578748 -0.00628778897 0.00999999809
v -0.00494978867 -0.00649950467 0.012000001
v -0.00476693593 -0.00501028977 0.00999999809
v -0.00475578748 -0.0050259205 0.012000001
v -0.00499485932 -0.00477835618 0.00999999809
v -0.00477835618 -0.00499485932 0.012000001
v -0.00484809838 0.00874619521 0.00999999809
v -0.00499999963 0.00866025008 0.012000001
v -0.00469471417 -0.00882947408 0.00999999809
v -0.00453990422 -0.00891006432 0.012000001
v -0.0047343155 -0.00625595532 0.00999999809
v -0.00474491082 -0.00627196752 0.012000001
v -0.00461678468 -0.0060149809 0.00999999809
v -0.00472400151 -0.0062397667 0.012000001
v -0.00456104241 -0.00575272523 0.00999999809
v -0.0046106907 -0.00599677525 0.012000001
v -0.00456756078 -0.00550376378 0.00999999809
v -0.00455953561 -0.00573358498 0.012000001
v -0.00462991677 -0.00526265107 0.00999999809
v -0.00457039796 -0.00548477612 0.012000001
v -0.00474491082 -0.00504174195 0.00999999809
v -0.00463695012 -0.00524478875 0.012000001
v -0.00453990422 0.00891006507 0.00999999809
v -0.00469471417 0.00882947959 0.012000001
v -0.00438371144 -0.00898794137 0.00999999809
v -0.00438371144 -0.00898794137 0.012000001
v -0.00438371144 0.00898794211 0.00999999809
v -0.00438371144 0.00898794211 0.012000001
v -0.00422618352 -0.0090630766 0.00999999809
v -0.00406736813 -0.00913545571 0.012000001
v -0.00406736813 0.00913545646 0.00999999809
v -0.00422618352 0.00906308211 0.012000001
v -0.00390731297 -0.0092050501 0.00999999809
v -0.00390731297 -0.0092050501 0.012000001
v -0.00390731297 0.00920504607 0.00999999809
v -0.00390731297 0.00920504607 0.012000001
v -0.00374606572 -0.00927184068 0.00999999809
v -0.00358367883 -0.00933580361 0.012000001
v -0.00358367883 0.00933580436 0.00999999809
v -0.00374606572 0.00927184142 0.012000001
v -0.00342019998 -0.0093969246 0.00999999809
v -0.00325568162 -0.00945518456 0.012000001
v -0.00325568162 0.00945518531 0.00999999809
v -0.00342019998 0.00939692535 0.012000001
v -0.00309017144 -0.00951056443 0.00999999809
v -0.00309017144 -0.00951056443 0.012000001
v -0.00309017144 0.00951056518 0.00999999809
v -0.00309017144 0.00951056518 0.012000001
v -0.00292371713 -0.0095630499 0.00999999809
v -0.00275637589 -0.00961261712 0.012000001
v -0.00275637589 0.00961261787 0.00999999809
v -0.00292371713 0.00956304587 0.012000001
v -0.00258819066 -0.00965925656 0.00999999809
v -0.00258819066 -0.00965925656 0.012000001
v -0.00258819066 0.00965926208 0.00999999809
v -0.00258819066 0.00965926208 0.012000001
v -0.00241921864 -0.00970295869 0.00999999809
v -0.00241921864 -0.00970295869 0.012000001
v -0.00241921864 0.00970295943 0.00999999809
v -0.00241921864 0.00970295943 0.012000001
v -0.00207911454 -0.00978147469 0.00999999809
v -0.00207911454 -0.00978147469 0.012000001
v -0.0022495123 -0.00974369965 0.00999999809
v -0.0022495123 -0.00974369965 0.012000001
v -0.0022495123 0.0097437004 0.00999999809
v -0.0022495123 0.0097437004 0.012000001
v -0.00207911454 0.00978147544 0.00999999809
v -0.00207911454 0.00978147544 0.012000001
v -0.00190809213 -0.0098162695 0.00999999809
v -0.00190809213 -0.0098162695 0.012000001
v -0.00190809213 0.00981627502 0.00999999809
v -0.00190809213 0.00981627502 0.012000001
v -0.0017364832 -0.00984807931 0.00999999809
v -0.00156434499 -0.00987688504 0.012000001
v -0.00150000058 3.72796696e-10 0.00999999809
v -0.00150000058 3.72796696e-10 0.012000001
v -0.00156434499 0.00987688102 0.00999999809
v -0.0017364832 0.00984808005 0.012000001
v -0.00139172994 -0.00990268193 0.00999999809
v -0.00139172994 -0.00990268193 0.012000001
v -0.00125800572 -0.000816959962 0.00999999809
v -0.00128575288 -0.000772556886 0.012000001
v -0.00129903756 -0.00074999772 0.00999999809
v -0.0014095398 -0.000513028726 0.012000001
v -0.00141828023 -0.000488352403 0.00999999809
v -0.00147721253 -0.000260471925 0.012000001
v -0.00148153268 -0.000234651193 0.00999999809
v -0.0014997717 -2.61779872e-05 0.012000001
v -0.0014997717 2.61787328e-05 0.00999999809
v -0.00148153268 0.000234651938 0.012000001
v -0.00147721253 0.00026047267 0.00999999809
v -0.00141828023 0.000488353148 0.012000001
v -0.0014095398 0.000513029471 0.00999999809
v -0.00129903756 0.000749998465 0.012000001
v -0.00128575288 0.000772557631 0.00999999809
v -0.00125800572 0.000816960708 0.012000001
v -0.00139172994 0.00990267791 0.00999999809
v -0.00139172994 0.00990267791 0.012000001
v -0.00121869527 -0.00992546044 0.00999999809
v -0.0010452839 -0.00994522057 0.012000001
v -0.0010606619 -0.0010606619 0.00999999809
v -0.0010606619 -0.0010606619 0.012000001
v -0.00113206349 -0.000984086618 0.00999999809
v -0.00124355756 -0.000838789567 0.012000001
v -0.00124355756 0.000838790313 0.00999999809
v -0.00113206349 0.000984087363 0.012000001
v -0.00111471616 0.00100369491 0.00999999809
v -0.00100369416 0.0011147169 0.012000001
v -0.0010452839 0.00994522132 0.00999999809
v -0.00121869527 0.00992546119 0.012000001
v -0.000871557817 -0.00996194802 0.00999999809
v -0.000871557817 -0.00996194802 0.012000001
v -0.000772556886 -0.00128575288 0.00999999809
v -0.000816959962 -0.00125800572 0.012000001
v -0.000838789567 -0.00124355756 0.00999999809
v -0.000984086618 -0.00113206349 0.012000001
v -0.000984086618 0.00113206424 0.00999999809
v -0.000838789567 0.0012435583 0.012000001
v -0.000816959962 0.00125800647 0.00999999809
v -0.000772556886 0.00128574885 0.012000001
v -0.000871557817 0.00996194877 0.00999999809
v -0.000871557817 0.00996194877 0.012000001
v -0.000697564706 -0.00997564279 0.00999999809
v -0.000523361787 -0.00998629533 0.012000001
v -0.000513028726 -0.0014095398 0.00999999809
v -0.00074999772 -0.00129903756 0.012000001
v -0.00074999772 0.00129903831 0.00999999809
v -0.000513028726 0.00140954055 0.012000001
v -0.000523361787 0.00998629607 0.00999999809
v -0.000697564706 0.00997564353 0.012000001
v -0.000348996743 -0.00999391042 0.00999999809
v -0.000348996743 -0.00999391042 0.012000001
v -0.000260471925 -0.00147721253 0.00999999809
v -0.000488352403 -0.00141828023 0.012000001
v -0.000488352403 0.00141827621 0.00999999809
v -0.000260471925 0.00147721328 0.012000001
v -0.000348996743 0.00999390639 0.00999999809
v -0.000348996743 0.00999390639 0.012000001
v -0.000174522027 -0.00999847852 0.00999999809
v -0.000174522027 -0.00999847852 0.012000001
v -2.61779872e-05 -0.0014997717 0.00999999809
v -0.000234651193 -0.00148153268 0.012000001
v -0.000234651193 0.00148153342 0.00999999809
v -2.61779872e-05 0.00149977244 0.012000001
v -0.000174522027 0.00999847449 0.00999999809
v -0.000174522027 0.00999847449 0.012000001
v 3.72796696e-10 -0.00999999963 0.00999999809
v 0.000174522773 -0.00999847852 0.012000001
v 3.72796696e-10 -0.00150000058 0.00999999809
v 3.72796696e-10 -0.00150000058 0.012000001
v 0.000234651938 -0.00148153268 0.00999999809
v 2.61787328e-05 -0.0014997717 0.012000001
v 2.61787328e-05 0.00149977244 0.00999999809
v 0.000234651938 0.00148153342 0.012000001
v 3.72796696e-10 0.00150000133 0.00999999809
v 3.72796696e-10 0.00150000133 0.012000001
v 0.000174522773 0.00999847449 0.00999999809
v 0.000174522773 0.00999847449 0.012000001
v 3.72796696e-10 0.0100000004 0.00999999809
v 3.72796696e-10 0.0100000004 0.012000001
v 0.000348992721 -0.00999391042 0.00999999809
v 0.000348992721 -0.00999391042 0.012000001
v 0.000488353148 -0.00141828023 0.00999999809
v 0.00026047267 -0.00147721253 0.012000001
v 0.00026047267 0.00147721328 0.00999999809
v 0.000488353148 0.00141827621 0.012000001
v 0.000348992721 0.00999390639 0.00999999809
v 0.000348992721 0.00999390639 0.012000001
v 0.000523357764 -0.00998629533 0.00999999809
v 0.000697565452 -0.00997564279 0.012000001
v 0.000749998465 -0.00129903756 0.00999999809
v 0.000513029471 -0.0014095398 0.012000001
v 0.000513029471 0.00140954055 0.00999999809
v 0.000749998465 0.00129903831 0.012000001
v 0.000697565452 0.00997564353 0.00999999809
v 0.000523357764 0.00998629607 0.012000001
v 0.000871558562 -0.00996194802 0.00999999809
v 0.000871558562 -0.00996194802 0.012000001
v 0.000816960708 -0.00125800572 0.00999999809
v 0.000772557631 -0.00128575288 0.012000001
v 0.000984087363 -0.00113206349 0.00999999809
v 0.000838790313 -0.00124355756 0.012000001
v 0.000838790313 0.0012435583 0.00999999809
v 0.000984087363 0.00113206424 0.012000001
v 0.000772557631 0.00128574885 0.00999999809
v 0.000816960708 0.00125800647 0.012000001
v 0.000871558562 0.00996194877 0.00999999809
v 0.000871558562 0.00996194877 0.012000001
v 0.00104528464 -0.00994522057 0.00999999809
v 0.00121869124 -0.00992546044 0.012000001
v 0.0011147169 -0.00100369416 0.00999999809
v 0.00100369491 -0.00111471616 0.012000001
v 0.0012435583 -0.000838789567 0.00999999809
v 0.00113206424 -0.000984086618 0.012000001
v 0.00113206424 0.000984087363 0.00999999809
v 0.0012435583 0.000838790313 0.012000001
v 0.00100369491 0.0011147169 0.00999999809
v 0.0011147169 0.00100369491 0.012000001
v 0.00121869124 0.00992546119 0.00999999809
v 0.00104528464 0.00994522132 0.012000001
v 0.00139173068 -0.00990268193 0.00999999809
v 0.00139173068 -0.00990268193 0.012000001
v 0.00128574885 -0.000772556886 0.00999999809
v 0.00125800647 -0.000816959962 0.012000001
v 0.00140954055 -0.000513028726 0.00999999809
v 0.00129903831 -0.00074999772 0.012000001
v 0.00147721328 -0.000260471925 0.00999999809
v 0.00141827621 -0.000488352403 0.012000001
v 0.00149977244 -2.61779872e-05 0.00999999809
v 0.00148153342 -0.000234651193 0.012000001
v 0.00148153342 0.000234651938 0.00999999809
v 0.00149977244 2.61787328e-05 0.012000001
v 0.00141827621 0.000488353148 0.00999999809
v 0.00147721328 0.00026047267 0.012000001
v 0.00129903831 0.000749998465 0.00999999809
v 0.00140954055 0.000513029471 0.012000001
v 0.00125800647 0.000816960708 0.00999999809
v 0.00128574885 0.000772557631 0.012000001
v 0.00139173068 0.00990267791 0.00999999809
v 0.00139173068 0.00990267791 0.012000001
v 0.00156434573 -0.00987688504 0.00999999809
v 0.00173648395 -0.00984807931 0.012000001
v 0.00150000133 3.72796696e-10 0.00999999809
v 0.00150000133 3.72796696e-10 0.012000001
v 0.00173648395 0.00984808005 0.00999999809
v 0.00156434573 0.00987688102 0.012000001
v 0.0019080881 -0.0098162695 0.00999999809
v 0.0019080881 -0.0098162695 0.012000001
v 0.0019080881 0.00981627502 0.00999999809
v 0.0019080881 0.00981627502 0.012000001
v 0.00207911529 -0.00978147469 0.00999999809
v 0.00207911529 -0.00978147469 0.012000001
v 0.00224950828 -0.00974369965 0.00999999809
v 0.00224950828 -0.00974369965 0.012000001
v 0.00224950828 0.0097437004 0.00999999809
v 0.00224950828 0.0097437004 0.012000001
v 0.00207911529 0.00978147544 0.00999999809
v 0.00207911529 0.00978147544 0.012000001
v 0.00241921939 -0.00970295869 0.00999999809
v 0.00241921939 -0.00970295869 0.012000001
v 0.00241921939 0.00970295943 0.00999999809
v 0.00241921939 0.00970295943 0.012000001
v 0.00258819141 -0.00965925656 0.00999999809
v 0.00258819141 -0.00965925656 0.012000001
v 0.00258819141 0.00965926208 0.00999999809
v 0.00258819141 0.00965926208 0.012000001
v 0.00275637187 -0.00961261712 0.00999999809
v 0.00292371787 -0.0095630499 0.012000001
v 0.00292371787 0.00956304587 0.00999999809
v 0.00275637187 0.00961261787 0.012000001
v 0.00309017219 -0.00951056443 0.00999999809
v 0.00309017219 -0.00951056443 0.012000001
v 0.00309017219 0.00951056518 0.00999999809
v 0.00309017219 0.00951056518 0.012000001
v 0.00325568236 -0.00945518456 0.00999999809
v 0.00342020072 -0.0093969246 0.012000001
v 0.00342020072 0.00939692535 0.00999999809
v 0.00325568236 0.00945518531 0.012000001
v 0.00358367957 -0.00933580361 0.00999999809
v 0.0037460617 -0.00927184068 0.012000001
v 0.0037460617 0.00927184142 0.00999999809
v 0.00358367957 0.00933580436 0.012000001
v 0.00390730895 -0.0092050501 0.00999999809
v 0.00390730895 -0.0092050501 0.012000001
v 0.00390730895 0.00920504607 0.00999999809
v 0.00390730895 0.00920504607 0.012000001
v 0.00406736411 -0.00913545571 0.00999999809
v 0.0042261795 -0.0090630766 0.012000001
v 0.0042261795 0.00906308211 0.00999999809
v 0.00406736411 0.00913545646 0.012000001
v 0.00438370742 -0.00898794137 0.00999999809
v 0.00438370742 -0.00898794137 0.012000001
v 0.00438370742 0.00898794211 0.00999999809
v 0.00438370742 0.00898794211 0.012000001
v 0.00453990974 -0.00891006432 0.00999999809
v 0.00469471969 -0.00882947408 0.012000001
v 0.00463695563 0.0052447895 0.00999999809
v 0.00474491157 0.0050417427 0.012000001
v 0.0045703987 0.0054847721 0.00999999809
v 0.00462991752 0.00526265182 0.012000001
v 0.00455953635 0.00573358573 0.00999999809
v 0.00456755675 0.00550375976 0.012000001
v 0.00461069144 0.00599677123 0.00999999809
v 0.00456104316 0.00575272597 0.012000001
v 0.00472399749 0.00623976745 0.00999999809
v 0.00461678542 0.00601497687 0.012000001
v 0.00474491157 0.00627196349 0.00999999809
v 0.00473431624 0.00625596084 0.012000001
v 0.00469471969 0.00882947959 0.00999999809
v 0.00453990974 0.00891006507 0.012000001
v 0.00484809913 -0.00874619924 0.00999999809
v 0.00484809913 -0.00874619924 0.012000001
v 0.00487903632 0.00487903632 0.00999999809
v 0.00487903632 0.00487903632 0.012000001
v 0.00475578345 0.00502592124 0.00999999809
v 0.00476693191 0.00501029052 0.012000001
v 0.00494978942 0.00649950065 0.00999999809
v 0.00475578345 0.00628778495 0.012000001
v 0.00499486007 0.00653534927 0.00999999809
v 0.00496459998 0.00651171722 0.012000001
v 0.00484809913 0.00874619521 0.00999999809
v 0.00484809913 0.00874619521 0.012000001
v 0.00500000037 -0.00866025411 0.00999999809
v 0.00515038528 -0.00857167207 0.012000001
v 0.0050417427 0.00474491157 0.00999999809
v 0.0052447895 0.00463695563 0.012000001
v 0.00501029052 0.00476693191 0.00999999809
v 0.00502592124 0.00475578345 0.012000001
v 0.0052447895 0.00667676009 0.00999999809
v 0.00501029052 0.00654677428 0.012000001
v 0.00515038528 0.00857167281 0.00999999809
v 0.00500000037 0.00866025008 0.012000001
v 0.00529919662 -0.00848048173 0.00999999809
v 0.00544638671 -0.00838670693 0.012000001
v 0.00526265182 0.00462991752 0.00999999809
v 0.0054847721 0.0045703987 0.012000001
v 0.0054847721 0.00674330749 0.00999999809
v 0.00526265182 0.00668378867 0.012000001
v 0.00544638671 0.00838670768 0.00999999809
v 0.00529919662 0.00848048247 0.012000001
v 0.00559192695 -0.00829037629 0.00999999809
v 0.00559192695 -0.00829037629 0.012000001
v 0.00573576011 -0.00819151841 0.00999999809
v 0.00573576011 -0.00819151841 0.012000001
v 0.00550375976 0.00456755675 0.00999999809
v 0.00573358573 0.00455953635 0.012000001
v 0.0055227951 0.0067486576 0.00999999809
v 0.00550375976 0.00674614944 0.012000001
v 0.00573358573 0.00675417937 0.00999999809
v 0.00554186858 0.00675083198 0.012000001
v 0.00573576011 0.00819151916 0.00999999809
v 0.00573576011 0.00819151916 0.012000001
v 0.00559192695 0.00829037704 0.00999999809
v 0.00559192695 0.00829037704 0.012000001
v 0.00587784804 -0.00809017144 0.00999999809
v 0.00587784804 -0.00809017144 0.012000001
v 0.00575272597 0.00456104316 0.00999999809
v 0.00599677123 0.00461069144 0.012000001
v 0.00599677123 0.00670301475 0.00999999809
v 0.00579091109 0.0067486576 0.012000001
v 0.00577183761 0.00675083198 0.00999999809
v 0.00575272597 0.00675267257 0.012000001
v 0.00587784804 0.00809017219 0.00999999809
v 0.00587784804 0.00809017219 0.012000001
v 0.00601815261 -0.00798635446 0.00999999809
v 0.00615661658 -0.0078801056 0.012000001
v 0.00601497687 0.00461678542 0.00999999809
v 0.00623976745 0.00472399749 0.012000001
v 0.00623976745 0.0065897087 0.00999999809
v 0.00601497687 0.00669692077 0.012000001
v 0.00615661658 0.00788010635 0.00999999809
v 0.00601815261 0.0079863552 0.012000001
v 0.00629320182 -0.00777145825 0.00999999809
v 0.00629320182 -0.00777145825 0.012000001
v 0.00642787971 -0.00766044579 0.00999999809
v 0.00642787971 -0.00766044579 0.012000001
v 0.00625596084 0.00473431624 0.00999999809
v 0.00627196349 0.00474491157 0.012000001
v 0.00628778495 0.00475578345 0.00999999809
v 0.00649950065 0.00494978942 0.012000001
v 0.00649950065 0.00636391677 0.00999999809
v 0.00636391677 0.00649950065 0.012000001
v 0.00634910621 0.00651171722 0.00999999809
v 0.00625596084 0.00657938994 0.012000001
v 0.00642787971 0.00766044654 0.00999999809
v 0.00642787971 0.00766044654 0.012000001
v 0.00629320182 0.00777146377 0.00999999809
v 0.00629320182 0.00777146377 0.012000001
v 0.00656059302 -0.00754709683 0.00999999809
v 0.00656059302 -0.00754709683 0.012000001
v 0.00669130363 -0.00743144952 0.00999999809
v 0.00669130363 -0.00743144952 0.012000001
v 0.00651171722 0.00496459998 0.00999999809
v 0.00653534927 0.00499486007 0.012000001
v 0.00654677428 0.00501029052 0.00999999809
v 0.00667676009 0.0052447895 0.012000001
v 0.00668378867 0.00526265182 0.00999999809
v 0.00674330749 0.0054847721 0.012000001
v 0.00674614944 0.00550375976 0.00999999809
v 0.0067486576 0.0055227951 0.012000001
v 0.0067486576 0.00579091109 0.00999999809
v 0.00670301475 0.00599677123 0.012000001
v 0.00669692077 0.00601497687 0.00999999809
v 0.0065897087 0.00623976745 0.012000001
v 0.00657938994 0.00625596084 0.00999999809
v 0.00651171722 0.00634910621 0.012000001
v 0.00669130363 0.00743145026 0.00999999809
v 0.00669130363 0.00743145026 0.012000001
v 0.00656059302 0.00754709281 0.00999999809
v 0.00656059302 0.00754709281 0.012000001
v 0.0068199829 -0.00731353722 0.00999999809
v 0.0068199829 -0.00731353722 0.012000001
v 0.00694658317 -0.0071933981 0.00999999809
v 0.00694658317 -0.0071933981 0.012000001
v 0.00675083198 0.00554186858 0.00999999809
v 0.00675417937 0.00573358573 0.012000001
v 0.00675267257 0.00575272597 0.00999999809
v 0.00675083198 0.00577183761 0.012000001
v 0.00694658317 0.00719339408 0.00999999809
v 0.00694658317 0.00719339408 0.012000001
v 0.0068199829 0.00731353797 0.00999999809
v 0.0068199829 0.00731353797 0.012000001
v 0.00707106628 -0.00707106553 0.00999999809
v 0.00707106628 -0.00707106553 0.012000001
v 0.00719339408 -0.00694658242 0.00999999809
v 0.00719339408 -0.00694658242 0.012000001
v 0.00719339408 0.00694658317 0.00999999809
v 0.00719339408 0.00694658317 0.012000001
v 0.00707106628 0.00707106628 0.00999999809
v 0.00707106628 0.00707106628 0.012000001
v 0.00731353797 -0.00681998216 0.00999999809
v 0.00731353797 -0.00681998216 0.012000001
v 0.00743145026 -0.00669130765 0.00999999809
v 0.00743145026 -0.00669130765 0.012000001
v 0.00743145026 0.00669130363 0.00999999809
v 0.00743145026 0.00669130363 0.012000001
v 0.00731353797 0.0068199829 0.00999999809
v 0.00731353797 0.0068199829 0.012000001
v 0.00754709281 -0.00656059228 0.00999999809
v 0.00754709281 -0.00656059228 0.012000001
v 0.00766044654 -0.00642787419 0.00999999809
v 0.00766044654 -0.00642787419 0.012000001
v 0.00766044654 0.00642787971 0.00999999809
v 0.00766044654 0.00642787971 0.012000001
v 0.00754709281 0.00656059302 0.00999999809
v 0.00754709281 0.00656059302 0.012000001
v 0.00777146377 -0.00629320584 0.00999999809
v 0.00777146377 -0.00629320584 0.012000001
v 0.00788010635 -0.00615661584 0.00999999809
v 0.0079863552 -0.00601815186 0.012000001
v 0.0079863552 0.00601815261 0.00999999809
v 0.00788010635 0.00615661658 0.012000001
v 0.00777146377 0.00629320182 0.00999999809
v 0.00777146377 0.00629320182 0.012000001
v 0.00809017219 -0.00587785207 0.00999999809
v 0.00809017219 -0.00587785207 0.012000001
v 0.00819151916 -0.00573576413 0.00999999809
v 0.00819151916 -0.00573576413 0.012000001
v 0.00819151916 0.00573576011 0.00999999809
v 0.00819151916 0.00573576011 0.012000001
v 0.00809017219 0.00587784804 0.00999999809
v 0.00809017219 0.00587784804 0.012000001
v 0.00829037704 -0.00559193097 0.00999999809
v 0.00829037704 -0.00559193097 0.012000001
v 0.00838670768 -0.00544639073 0.00999999809
v 0.00848048247 -0.0052991911 0.012000001
v 0.00848048247 0.00529919662 0.00999999809
v 0.00838670768 0.00544638671 0.012000001
v 0.00829037704 0.00559192695 0.00999999809
v 0.00829037704 0.00559192695 0.012000001
v 0.00857167281 -0.00515037976 0.00999999809
v 0.00857167281 -0.00515037976 0.012000001
v 0.00866025008 -0.00499999963 0.00999999809
v 0.00874619521 -0.00484809838 0.012000001
v 0.00874619521 0.00484809913 0.00999999809
v 0.00874619521 0.00484809913 0.012000001
v 0.00866025008 0.00500000037 0.00999999809
v 0.00857167281 0.00515038528 0.012000001
v 0.00882947959 -0.00469471417 0.00999999809
v 0.00891006507 -0.00453990422 0.012000001
v 0.00898794211 -0.00438371144 0.00999999809
v 0.00898794211 -0.00438371144 0.012000001
v 0.00898794211 0.00438370742 0.00999999809
v 0.00898794211 0.00438370742 0.012000001
v 0.00891006507 0.00453990974 0.00999999809
v 0.00882947959 0.00469471969 0.012000001
v 0.00906308211 -0.00422618352 0.00999999809
v 0.00913545646 -0.00406736813 0.012000001
v 0.00920504607 -0.00390731297 0.00999999809
v 0.00920504607 -0.00390731297 0.012000001
v 0.00920504607 0.00390730895 0.00999999809
v 0.00920504607 0.00390730895 0.012000001
v 0.00913545646 0.00406736411 0.00999999809
v 0.00906308211 0.0042261795 0.012000001
v 0.00927184142 -0.00374606572 0.00999999809
v 0.00933580436 -0.00358367883 0.012000001
v 0.00939692535 -0.00342019998 0.00999999809
v 0.00945518531 -0.00325568162 0.012000001
v 0.00945518531 0.00325568236 0.00999999809
v 0.00939692535 0.00342020072 0.012000001
v 0.00933580436 0.00358367957 0.00999999809
v 0.00927184142 0.0037460617 0.012000001
v 0.00951056518 -0.00309017144 0.00999999809
v 0.00951056518 -0.00309017144 0.012000001
v 0.00956304587 -0.00292371713 0.00999999809
v 0.00961261787 -0.00275637589 0.012000001
v 0.00965926208 -0.00258819066 0.00999999809
v 0.00965926208 -0.00258819066 0.012000001
v 0.00970295943 -0.00241921864 0.00999999809
v 0.00970295943 -0.00241921864 0.012000001
v 0.0097437004 -0.0022495123 0.00999999809
v 0.0097437004 -0.0022495123 0.012000001
v 0.0097437004 0.00224950828 0.00999999809
v 0.0097437004 0.00224950828 0.012000001
v 0.00970295943 0.00241921939 0.00999999809
v 0.00970295943 0.00241921939 0.012000001
v 0.00965926208 0.00258819141 0.00999999809
v 0.00965926208 0.00258819141 0.012000001
v 0.00961261787 0.00275637187 0.00999999809
v 0.00956304587 0.00292371787 0.012000001
v 0.00951056518 0.00309017219 0.00999999809
v 0.00951056518 0.00309017219 0.012000001
v 0.00978147544 -0.00207911454 0.00999999809
v 0.00978147544 -0.00207911454 0.012000001
v 0.00981627502 -0.00190809213 0.00999999809
v 0.00981627502 -0.00190809213 0.012000001
v 0.00984808005 -0.0017364832 0.00999999809
v 0.00987688102 -0.00156434499 0.012000001
v 0.00990267791 -0.00139172994 0.00999999809
v 0.00990267791 -0.00139172994 0.012000001
v 0.00992546119 -0.00121869527 0.00999999809
v 0.00994522132 -0.0010452839 0.012000001
v 0.00996194877 -0.000871557817 0.00999999809
v 0.00996194877 -0.000871557817 0.012000001
v 0.00997564353 -0.000697564706 0.00999999809
v 0.00998629607 -0.000523361787 0.012000001
v 0.00999390639 -0.000348996743 0.00999999809
v 0.00999390639 -0.000348996743 0.012000001
v 0.00999847449 -0.000174522027 0.00999999809
v 0.00999847449 -0.000174522027 0.012000001
v 0.00999847449 0.000174522773 0.00999999809
v 0.00999847449 0.000174522773 0.012000001
v 0.00999390639 0.000348992721 0.00999999809
v 0.00999390639 0.000348992721 0.012000001
v 0.00998629607 0.000523357764 0.00999999809
v 0.00997564353 0.000697565452 0.012000001
v 0.00996194877 0.000871558562 0.00999999809
v 0.00996194877 0.000871558562 0.012000001
v 0.00994522132 0.00104528464 0.00999999809
v 0.00992546119 0.00121869124 0.012000001
v 0.00990267791 0.00139173068 0.00999999809
v 0.00990267791 0.00139173068 0.012000001
v 0.00987688102 0.00156434573 0.00999999809
v 0.00984808005 0.00173648395 0.012000001
v 0.00981627502 0.0019080881 0.00999999809
v 0.00981627502 0.0019080881 0.012000001
v 0.00978147544 0.00207911529 0.00999999809
v 0.00978147544 0.00207911529 0.012000001
v 0.0100000004 3.72796696e-10 0.00999999809
v 0.0100000004 3.72796696e-10 0.012000001
f 1 2 3
f 1 46 2
f 3 179 1
f 45 46 1
f 1 179 45
f 3 2 4
f 2 348 4
f 46 348 2
f 3 4 5
f 5 179 3
f 5 4 6
f 4 348 6
f 5 6 7
f 7 179 5
f 7 6 8
f 6 348 8
f 7 8 9
f 9 179 7
f 9 8 10
f 8 348 10
f 9 10 11
f 11 329 9
f 9 329 179
f 11 10 12
f 10 348 12
f 11 12 13
f 13 329 11
f 13 12 14
f 12 348 14
f 13 14 15
f 15 329 13
f 15 14 16
f 14 348 16
f 15 16 17
f 17 329 15
f 17 16 18
f 16 348 18
f 17 18 19
f 19 329 17
f 19 18 20
f 18 348 20
f 19 20 21
f 21 329 19
f 21 20 22
f 20 348 22
f 21 22 23
f 23 329 21
f 23 22 24
f 22 348 24
f 23 24 25
f 25 329 23
f 25 24 26
f 24 348 26
f 25 26 27
f 27 329 25
f 27 26 28
f 26 348 28
f 27 28 29
f 29 329 27
f 29 28 30
f 28 348 30
f 29 30 31
f 31 329 29
f 31 30 32
f 30 348 32
f 31 32 33
f 33 331 31
f 31 331 329
f 33 32 34
f 32 348 34
f 33 34 35
f 35 331 33
f 35 34 36
f 34 348 36
f 35 36 47
f 47 331 35
f 47 36 48
f 36 348 48
f 37 38 39
f 37 60 38
f 39 179 37
f 59 60 37
f 37 179 59
f 39 38 40
f 38 348 40
f 60 348 38
f 39 40 41
f 41 179 39
f 41 40 42
f 40 348 42
f 41 42 43
f 43 179 41
f 43 42 44
f 42 348 44
f 43 44 45
f 45 179 43
f 45 44 46
f 44 348 46
f 47 48 49
f 49 331 47
f 49 48 50
f 48 348 50
f 49 50 51
f 51 331 49
f 51 50 52
f 50 348 52
f 51 52 53
f 53 331 51
f 53 52 54
f 52 348 54
f 53 54 55
f 55 331 53
f 55 54 56
f 54 348 56
f 55 56 61
f 61 331 55
f 61 56 62
f 56 348 62
f 57 58 59
f 57 68 58
f 59 179 57
f 67 68 57
f 57 179 67
f 59 58 60
f 58 348 60
f 68 348 58
f 61 62 63
f 63 333 61
f 61 333 331
f 63 62 64
f 62 348 64
f 63 64 69
f 69 333 63
f 69 64 70
f 64 348 70
f 65 66 67
f 65 76 66
f 67 179 65
f 75 76 65
f 179 75 65
f 67 66 68
f 66 348 68
f 76 348 66
f 69 70 71
f 71 333 69
f 71 70 72
f 70 348 72
f 71 72 77
f 77 333 71
f 77 72 78
f 72 348 78
f 73 74 75
f 73 84 74
f 179 73 75
f 83 84 73
f 73 165 83
f 179 165 73
f 75 74 76
f 74 348 76
f 84 348 74
f 77 78 79
f 79 333 77
f 79 78 80
f 78 348 80
f 79 80 85
f 85 333 79
f 85 80 86
f 80 348 86
f 81 82 83
f 81 92 82
f 83 163 81
f 91 92 81
f 81 163 91
f 83 82 84
f 82 348 84
f 92 348 82
f 165 163 83
f 85 86 87
f 87 333 85
f 87 86 88
f 86 348 88
f 87 88 93
f 93 335 87
f 87 335 333
f 93 88 94
f 88 348 94
f 89 90 91
f 89 100 90
f 91 161 89
f 99 100 89
f 89 161 99
f 91 90 92
f 90 348 92
f 100 348 90
f 91 163 161
f 93 94 95
f 95 345 93
f 93 345 335
f 95 94 96
f 94 348 96
f 95 96 101
f 101 345 95
f 101 96 102
f 96 348 102
f 97 98 99
f 97 108 98
f 99 161 97
f 107 108 97
f 97 143 107
f 159 143 97
f 97 161 159
f 99 98 100
f 98 348 100
f 108 144 98
f 144 160 98
f 98 160 162
f 162 164 98
f 164 166 98
f 166 180 98
f 180 334 98
f 98 334 336
f 98 336 346
f 98 346 348
f 101 102 103
f 103 345 101
f 103 102 104
f 102 348 104
f 103 104 109
f 109 345 103
f 109 104 110
f 104 348 110
f 105 106 107
f 105 116 106
f 107 141 105
f 115 116 105
f 105 157 115
f 105 141 157
f 107 106 108
f 106 142 108
f 116 158 106
f 158 142 106
f 107 143 141
f 108 142 144
f 109 110 111
f 111 345 109
f 111 110 112
f 110 348 112
f 111 112 117
f 117 345 111
f 117 112 118
f 112 348 118
f 113 114 115
f 113 124 114
f 115 157 113
f 123 124 113
f 113 155 123
f 113 157 155
f 115 114 116
f 114 158 116
f 124 156 114
f 156 158 114
f 117 118 119
f 119 345 117
f 119 118 120
f 118 348 120
f 119 120 125
f 125 347 119
f 119 347 345
f 125 120 126
f 120 348 126
f 121 122 123
f 121 132 122
f 123 155 121
f 131 132 121
f 121 153 131
f 155 153 121
f 123 122 124
f 122 156 124
f 132 154 122
f 122 154 156
f 125 126 127
f 127 347 125
f 127 126 128
f 126 348 128
f 127 128 133
f 133 347 127
f 133 128 134
f 128 348 134
f 129 130 131
f 129 140 130
f 131 177 129
f 139 140 129
f 129 177 139
f 131 130 132
f 130 178 132
f 140 178 130
f 131 153 177
f 178 154 132
f 133 134 135
f 135 347 133
f 135 134 136
f 134 348 136
f 135 136 145
f 145 347 135
f 145 136 146
f 136 348 146
f 137 138 139
f 137 152 138
f 139 175 137
f 151 152 137
f 137 189 151
f 137 175 189
f 139 138 140
f 138 176 140
f 152 190 138
f 190 176 138
f 177 175 139
f 140 176 178
f 141 144 142
f 141 142 157
f 143 144 141
f 157 142 158
f 143 160 144
f 159 160 143
f 145 146 147
f 147 347 145
f 147 146 148
f 146 348 148
f 147 148 167
f 167 347 147
f 167 148 168
f 148 348 168
f 149 150 151
f 149 174 150
f 151 189 149
f 173 174 149
f 149 199 173
f 189 199 149
f 151 150 152
f 150 190 152
f 174 200 150
f 150 200 190
f 153 156 154
f 153 154 177
f 155 156 153
f 177 154 178
f 155 158 156
f 157 158 155
f 159 162 160
f 161 162 159
f 161 164 162
f 163 164 161
f 163 166 164
f 165 166 163
f 165 180 166
f 179 180 165
f 167 168 169
f 169 347 167
f 169 168 170
f 168 348 170
f 169 170 183
f 183 347 169
f 183 170 184
f 170 358 184
f 170 348 358
f 171 172 173
f 171 188 172
f 173 199 171
f 187 188 171
f 171 197 187
f 199 197 171
f 173 172 174
f 172 200 174
f 188 198 172
f 172 198 200
f 175 178 176
f 175 176 189
f 177 178 175
f 189 176 190
f 179 182 180
f 181 182 179
f 329 181 179
f 180 182 330
f 180 330 332
f 180 332 334
f 181 192 182
f 191 192 181
f 329 191 181
f 330 182 192
f 183 184 185
f 185 347 183
f 185 184 186
f 184 358 186
f 185 186 193
f 193 347 185
f 193 186 194
f 186 358 194
f 187 196 188
f 195 196 187
f 187 209 195
f 187 197 209
f 196 210 188
f 188 210 198
f 189 190 199
f 199 190 200
f 191 202 192
f 201 202 191
f 201 191 329
f 330 192 202
f 193 194 203
f 203 347 193
f 203 194 204
f 194 358 204
f 195 208 196
f 207 208 195
f 195 431 207
f 209 211 195
f 195 211 221
f 221 229 195
f 229 239 195
f 239 241 195
f 241 411 195
f 195 411 419
f 195 419 421
f 195 421 431
f 208 222 196
f 212 210 196
f 196 222 212
f 197 200 198
f 197 198 209
f 199 200 197
f 209 198 210
f 201 214 202
f 213 214 201
f 315 213 201
f 315 201 329
f 316 202 214
f 330 202 316
f 203 204 215
f 215 347 203
f 215 204 216
f 204 358 216
f 205 206 207
f 205 220 206
f 207 431 205
f 219 220 205
f 205 431 219
f 207 206 208
f 206 222 208
f 220 222 206
f 209 210 211
f 211 210 212
f 211 212 221
f 221 212 222
f 213 224 214
f 223 224 213
f 325 223 213
f 327 213 315
f 325 213 327
f 326 214 224
f 316 214 328
f 328 214 326
f 215 216 217
f 217 347 215
f 217 216 218
f 216 358 218
f 217 218 225
f 225 347 217
f 225 218 226
f 218 358 226
f 219 228 220
f 227 228 219
f 219 431 227
f 220 230 222
f 228 230 220
f 221 222 229
f 229 222 230
f 223 234 224
f 233 234 223
f 323 233 223
f 323 223 325
f 324 224 234
f 326 224 324
f 225 226 235
f 235 347 225
f 235 226 236
f 226 358 236
f 227 238 228
f 237 238 227
f 227 431 237
f 238 230 228
f 229 230 239
f 240 230 238
f 239 230 240
f 231 232 233
f 231 246 232
f 343 231 233
f 245 246 231
f 343 245 231
f 233 232 234
f 344 234 232
f 344 232 246
f 321 233 323
f 343 233 321
f 324 234 322
f 322 234 344
f 235 236 247
f 247 347 235
f 247 236 248
f 236 358 248
f 237 250 238
f 249 250 237
f 237 431 249
f 250 240 238
f 239 240 241
f 241 240 242
f 242 240 250
f 241 242 251
f 241 251 391
f 241 391 403
f 241 403 411
f 242 250 266
f 251 242 252
f 392 252 242
f 242 266 270
f 274 242 270
f 278 242 274
f 282 242 278
f 286 242 282
f 290 242 286
f 294 242 290
f 298 242 294
f 304 242 298
f 302 242 304
f 310 242 302
f 314 242 310
f 320 242 314
f 340 242 320
f 340 392 242
f 243 244 245
f 243 262 244
f 355 243 245
f 261 262 243
f 355 261 243
f 245 244 246
f 356 246 244
f 356 244 262
f 341 245 343
f 355 245 341
f 344 246 342
f 342 246 356
f 247 248 263
f 263 347 247
f 263 248 264
f 248 358 264
f 249 266 250
f 265 266 249
f 249 431 265
f 251 252 253
f 391 251 253
f 253 252 254
f 392 254 252
f 253 254 255
f 391 253 255
f 255 254 256
f 256 254 392
f 255 256 257
f 389 255 257
f 391 255 389
f 257 256 258
f 390 258 256
f 390 256 392
f 257 258 259
f 373 257 259
f 381 257 373
f 389 257 381
f 259 258 260
f 374 260 258
f 374 258 382
f 382 258 390
f 259 260 261
f 365 259 261
f 373 259 365
f 261 260 262
f 366 262 260
f 366 260 374
f 353 261 355
f 365 261 353
f 356 262 354
f 354 262 366
f 263 264 267
f 267 347 263
f 267 264 268
f 264 358 268
f 265 270 266
f 269 270 265
f 265 431 269
f 267 268 271
f 271 347 267
f 271 268 272
f 268 358 272
f 269 274 270
f 273 274 269
f 269 713 273
f 269 431 713
f 271 272 275
f 275 347 271
f 275 272 276
f 272 358 276
f 273 278 274
f 277 278 273
f 273 711 277
f 273 713 711
f 275 276 279
f 279 347 275
f 279 276 280
f 276 358 280
f 277 282 278
f 281 282 277
f 277 721 281
f 277 711 721
f 279 280 283
f 283 347 279
f 283 280 284
f 280 358 284
f 281 286 282
f 285 286 281
f 281 719 285
f 281 721 719
f 283 284 287
f 287 347 283
f 287 284 288
f 284 358 288
f 285 290 286
f 289 290 285
f 285 741 289
f 285 719 741
f 287 288 291
f 291 347 287
f 291 288 292
f 288 358 292
f 289 294 290
f 293 294 289
f 289 739 293
f 289 741 739
f 291 292 295
f 295 347 291
f 295 292 296
f 292 358 296
f 293 298 294
f 297 298 293
f 293 737 297
f 293 739 737
f 295 296 299
f 299 347 295
f 299 296 300
f 296 358 300
f 297 304 298
f 303 304 297
f 297 735 303
f 297 737 735
f 299 300 305
f 305 347 299
f 305 300 306
f 300 358 306
f 301 302 303
f 301 310 302
f 303 733 301
f 309 310 301
f 301 777 309
f 301 733 777
f 303 302 304
f 303 735 733
f 305 306 307
f 307 347 305
f 307 306 308
f 306 358 308
f 307 308 311
f 311 347 307
f 311 308 312
f 308 358 312
f 309 314 310
f 313 314 309
f 309 775 313
f 309 777 775
f 311 312 317
f 317 347 311
f 317 312 318
f 312 358 318
f 313 320 314
f 319 320 313
f 313 773 319
f 313 775 773
f 315 316 327
f 315 330 316
f 329 330 315
f 327 316 328
f 317 318 337
f 337 347 317
f 337 318 338
f 318 358 338
f 319 340 320
f 339 340 319
f 319 771 339
f 319 773 771
f 321 324 322
f 321 322 343
f 323 324 321
f 343 322 344
f 323 326 324
f 325 326 323
f 325 328 326
f 327 328 325
f 329 332 330
f 331 332 329
f 331 334 332
f 333 334 331
f 333 336 334
f 335 336 333
f 335 346 336
f 345 346 335
f 337 338 349
f 349 347 337
f 349 338 350
f 338 358 350
f 339 352 340
f 351 352 339
f 339 769 351
f 339 771 769
f 352 392 340
f 341 344 342
f 341 342 355
f 343 344 341
f 355 342 356
f 345 348 346
f 347 348 345
f 347 358 348
f 361 347 349
f 357 358 347
f 357 347 583
f 369 347 361
f 377 347 369
f 385 347 377
f 399 347 385
f 397 347 399
f 407 347 397
f 415 347 407
f 427 347 415
f 439 347 427
f 459 347 439
f 465 347 459
f 469 347 465
f 477 347 469
f 475 347 477
f 481 347 475
f 485 347 481
f 489 347 485
f 493 347 489
f 497 347 493
f 501 347 497
f 505 347 501
f 509 347 505
f 513 347 509
f 529 347 513
f 541 347 529
f 551 347 541
f 559 347 551
f 573 347 559
f 571 347 573
f 583 347 571
f 349 350 361
f 350 358 362
f 361 350 362
f 351 364 352
f 363 364 351
f 351 767 363
f 351 769 767
f 364 392 352
f 353 356 354
f 353 354 365
f 355 356 353
f 365 354 366
f 357 360 358
f 359 360 357
f 583 359 357
f 592 358 360
f 362 358 370
f 370 358 378
f 378 358 386
f 386 358 400
f 400 358 398
f 398 358 408
f 408 358 416
f 416 358 428
f 428 358 440
f 440 358 460
f 460 358 466
f 466 358 470
f 470 358 478
f 478 358 476
f 476 358 482
f 482 358 486
f 486 358 490
f 490 358 494
f 494 358 498
f 498 358 502
f 502 358 506
f 506 358 510
f 510 358 514
f 514 358 530
f 530 358 542
f 542 358 552
f 552 358 560
f 560 358 574
f 574 358 572
f 572 358 584
f 584 358 592
f 359 368 360
f 367 368 359
f 583 367 359
f 592 360 368
f 361 362 369
f 369 362 370
f 363 372 364
f 371 372 363
f 363 765 371
f 363 767 765
f 372 392 364
f 365 366 373
f 373 366 374
f 367 376 368
f 375 376 367
f 375 367 537
f 537 367 583
f 592 368 376
f 369 370 377
f 377 370 378
f 371 380 372
f 379 380 371
f 371 763 379
f 371 765 763
f 380 392 372
f 373 374 381
f 381 374 382
f 375 384 376
f 383 384 375
f 537 383 375
f 592 376 384
f 377 378 385
f 385 378 386
f 379 388 380
f 387 388 379
f 379 761 387
f 379 763 761
f 388 392 380
f 381 382 389
f 389 382 390
f 383 396 384
f 395 396 383
f 527 395 383
f 527 383 537
f 396 528 384
f 384 528 538
f 538 592 384
f 385 386 399
f 399 386 400
f 387 402 388
f 401 402 387
f 387 759 401
f 387 779 759
f 387 761 779
f 402 392 388
f 389 390 391
f 391 390 392
f 391 392 403
f 410 392 402
f 403 392 404
f 462 404 392
f 418 392 410
f 430 392 418
f 442 392 430
f 462 392 442
f 393 394 395
f 393 406 394
f 525 393 395
f 405 406 393
f 523 405 393
f 523 393 525
f 395 394 396
f 394 526 396
f 406 524 394
f 394 524 526
f 525 395 527
f 396 526 528
f 397 400 398
f 397 398 407
f 399 400 397
f 407 398 408
f 401 410 402
f 409 410 401
f 401 757 409
f 401 759 757
f 403 404 411
f 411 404 412
f 496 412 404
f 468 404 462
f 472 404 468
f 474 404 472
f 480 404 474
f 484 404 480
f 488 404 484
f 492 404 488
f 496 404 492
f 405 414 406
f 413 414 405
f 519 413 405
f 519 405 521
f 521 405 523
f 414 520 406
f 406 520 522
f 406 522 524
f 407 408 415
f 415 408 416
f 409 418 410
f 417 418 409
f 409 755 417
f 409 757 755
f 411 412 419
f 419 412 420
f 544 420 412
f 500 412 496
f 504 412 500
f 508 412 504
f 512 412 508
f 516 412 512
f 532 412 516
f 544 412 532
f 413 426 414
f 425 426 413
f 517 425 413
f 517 413 519
f 426 518 414
f 414 518 520
f 415 416 427
f 427 416 428
f 417 430 418
f 429 430 417
f 417 753 429
f 417 755 753
f 419 420 421
f 421 420 422
f 554 422 420
f 554 420 544
f 421 422 431
f 431 422 432
f 610 432 422
f 562 422 554
f 564 422 562
f 576 422 564
f 586 422 576
f 594 422 586
f 596 422 594
f 610 422 596
f 423 424 425
f 423 438 424
f 517 423 425
f 437 438 423
f 533 437 423
f 535 423 517
f 533 423 535
f 425 424 426
f 424 518 426
f 438 534 424
f 424 536 518
f 424 534 536
f 427 428 439
f 439 428 440
f 429 442 430
f 441 442 429
f 429 751 441
f 429 753 751
f 431 432 433
f 431 433 713
f 433 432 434
f 434 432 682
f 612 432 610
f 632 432 612
f 634 432 632
f 644 432 634
f 646 432 644
f 652 432 646
f 654 432 652
f 660 432 654
f 662 432 660
f 668 432 662
f 670 432 668
f 676 432 670
f 678 432 676
f 684 432 678
f 682 432 680
f 680 432 690
f 686 432 684
f 692 432 686
f 690 432 688
f 688 432 698
f 694 432 692
f 700 432 694
f 698 432 696
f 696 432 706
f 702 432 700
f 708 432 702
f 706 432 704
f 704 432 714
f 710 432 708
f 716 432 710
f 714 432 712
f 712 432 722
f 718 432 716
f 724 432 718
f 722 432 720
f 720 432 742
f 726 432 724
f 728 432 726
f 730 432 728
f 732 432 730
f 744 432 732
f 736 432 734
f 734 432 778
f 738 432 736
f 740 432 738
f 742 432 740
f 746 432 744
f 748 432 746
f 750 432 748
f 752 432 750
f 754 432 752
f 756 432 754
f 758 432 756
f 760 432 758
f 780 432 760
f 764 432 762
f 762 432 780
f 766 432 764
f 768 432 766
f 770 432 768
f 772 432 770
f 774 432 772
f 776 432 774
f 778 432 776
f 433 434 443
f 713 433 443
f 443 434 444
f 682 444 434
f 435 436 437
f 435 458 436
f 437 533 435
f 457 458 435
f 435 545 457
f 435 533 547
f 435 547 545
f 437 436 438
f 436 534 438
f 458 546 436
f 436 548 534
f 436 546 548
f 439 440 459
f 459 440 460
f 441 462 442
f 461 462 441
f 441 749 461
f 441 751 749
f 443 444 445
f 713 443 445
f 445 444 446
f 682 446 444
f 445 446 447
f 713 445 447
f 447 446 448
f 672 448 446
f 672 446 682
f 447 448 449
f 713 447 449
f 449 448 450
f 672 450 448
f 449 450 463
f 463 587 449
f 587 597 449
f 449 597 599
f 449 599 713
f 463 450 464
f 450 588 464
f 450 598 588
f 450 600 598
f 672 600 450
f 451 452 453
f 451 464 452
f 453 577 451
f 463 464 451
f 451 587 463
f 451 577 587
f 453 452 454
f 452 578 454
f 464 588 452
f 452 588 578
f 453 454 455
f 455 555 453
f 453 555 565
f 453 565 577
f 455 454 456
f 454 556 456
f 454 566 556
f 454 578 566
f 455 456 457
f 457 545 455
f 455 545 555
f 457 456 458
f 456 546 458
f 456 556 546
f 459 460 465
f 465 460 466
f 461 468 462
f 467 468 461
f 461 747 467
f 461 749 747
f 465 466 469
f 469 466 470
f 467 472 468
f 471 472 467
f 467 745 471
f 467 747 745
f 469 470 477
f 477 470 478
f 471 474 472
f 473 474 471
f 471 743 473
f 471 745 743
f 473 480 474
f 479 480 473
f 473 731 479
f 473 743 731
f 475 478 476
f 475 476 481
f 477 478 475
f 481 476 482
f 479 484 480
f 483 484 479
f 479 729 483
f 479 731 729
f 481 482 485
f 485 482 486
f 483 488 484
f 487 488 483
f 483 727 487
f 483 729 727
f 485 486 489
f 489 486 490
f 487 492 488
f 491 492 487
f 487 725 491
f 487 727 725
f 489 490 493
f 493 490 494
f 491 496 492
f 495 496 491
f 491 723 495
f 491 725 723
f 493 494 497
f 497 494 498
f 495 500 496
f 499 500 495
f 495 717 499
f 495 723 717
f 497 498 501
f 501 498 502
f 499 504 500
f 503 504 499
f 499 715 503
f 499 717 715
f 501 502 505
f 505 502 506
f 503 508 504
f 507 508 503
f 503 709 507
f 503 715 709
f 505 506 509
f 509 506 510
f 507 512 508
f 511 512 507
f 507 707 511
f 507 709 707
f 509 510 513
f 513 510 514
f 511 516 512
f 515 516 511
f 511 701 515
f 511 707 701
f 513 514 529
f 529 514 530
f 515 532 516
f 531 532 515
f 515 699 531
f 515 701 699
f 517 520 518
f 517 518 535
f 519 520 517
f 535 518 536
f 519 522 520
f 521 522 519
f 521 524 522
f 523 524 521
f 523 526 524
f 525 526 523
f 525 528 526
f 527 528 525
f 527 538 528
f 537 538 527
f 529 530 541
f 541 530 542
f 531 544 532
f 543 544 531
f 531 693 543
f 531 699 693
f 533 536 534
f 533 534 547
f 535 536 533
f 547 534 548
f 537 540 538
f 539 540 537
f 539 537 583
f 608 538 540
f 592 538 608
f 539 550 540
f 549 550 539
f 549 539 583
f 608 540 550
f 541 542 551
f 551 542 552
f 543 554 544
f 553 554 543
f 543 691 553
f 543 693 691
f 545 548 546
f 545 546 555
f 547 548 545
f 555 546 556
f 549 558 550
f 557 558 549
f 557 549 583
f 606 550 558
f 608 550 606
f 551 552 559
f 559 552 560
f 553 562 554
f 561 562 553
f 553 685 561
f 553 691 685
f 555 556 565
f 565 556 566
f 557 568 558
f 567 568 557
f 583 567 557
f 558 568 606
f 559 560 573
f 573 560 574
f 561 564 562
f 563 564 561
f 561 683 563
f 561 685 683
f 563 576 564
f 575 576 563
f 563 677 575
f 563 683 677
f 565 566 577
f 577 566 578
f 567 570 568
f 569 570 567
f 569 567 583
f 630 568 570
f 606 568 630
f 569 582 570
f 581 582 569
f 591 581 569
f 591 569 583
f 570 582 630
f 571 574 572
f 571 572 583
f 573 574 571
f 583 572 584
f 575 586 576
f 585 586 575
f 575 675 585
f 575 677 675
f 577 578 587
f 587 578 588
f 579 580 581
f 579 590 580
f 579 581 607
f 589 590 579
f 589 579 629
f 605 579 607
f 629 579 605
f 581 580 582
f 628 582 580
f 642 580 590
f 628 580 642
f 607 581 591
f 630 582 628
f 583 584 591
f 591 584 592
f 585 594 586
f 593 594 585
f 585 669 593
f 585 675 669
f 587 588 597
f 597 588 598
f 589 604 590
f 603 604 589
f 641 603 589
f 627 589 629
f 641 589 627
f 590 604 640
f 642 590 640
f 591 592 607
f 607 592 608
f 593 596 594
f 595 596 593
f 593 667 595
f 593 669 667
f 595 610 596
f 609 610 595
f 595 661 609
f 595 667 661
f 597 598 599
f 599 598 600
f 599 600 613
f 599 613 705
f 703 599 705
f 713 599 703
f 613 600 614
f 672 614 600
f 601 602 603
f 601 626 602
f 601 603 639
f 625 626 601
f 647 625 601
f 649 601 639
f 647 601 649
f 603 602 604
f 650 604 602
f 602 626 648
f 650 602 648
f 639 603 641
f 640 604 650
f 605 608 606
f 605 606 629
f 607 608 605
f 629 606 630
f 609 612 610
f 611 612 609
f 609 659 611
f 609 661 659
f 611 632 612
f 631 632 611
f 611 653 631
f 611 659 653
f 613 614 615
f 613 615 695
f 705 613 695
f 615 614 616
f 672 616 614
f 615 616 617
f 687 615 617
f 697 615 687
f 695 615 697
f 617 616 618
f 674 618 616
f 674 616 672
f 617 618 619
f 681 617 619
f 679 617 681
f 689 617 679
f 687 617 689
f 619 618 620
f 674 620 618
f 619 620 635
f 619 635 681
f 635 620 636
f 636 620 664
f 664 620 674
f 621 622 623
f 621 638 622
f 665 621 623
f 637 638 621
f 673 637 621
f 663 621 665
f 673 621 663
f 623 622 624
f 656 624 622
f 666 622 638
f 656 622 666
f 623 624 625
f 623 625 657
f 655 623 657
f 665 623 655
f 625 624 626
f 626 624 658
f 658 624 656
f 657 625 647
f 648 626 658
f 627 630 628
f 627 628 641
f 629 630 627
f 641 628 642
f 631 634 632
f 633 634 631
f 631 651 633
f 631 653 651
f 633 644 634
f 643 644 633
f 633 645 643
f 633 651 645
f 635 636 637
f 671 635 637
f 681 635 671
f 637 636 638
f 664 638 636
f 671 637 673
f 666 638 664
f 639 642 640
f 639 640 649
f 641 642 639
f 649 640 650
f 643 646 644
f 645 646 643
f 645 652 646
f 651 652 645
f 647 650 648
f 647 648 657
f 649 650 647
f 657 648 658
f 651 654 652
f 653 654 651
f 653 660 654
f 659 660 653
f 655 658 656
f 655 656 665
f 657 658 655
f 665 656 666
f 659 662 660
f 661 662 659
f 661 668 662
f 667 668 661
f 663 666 664
f 663 664 673
f 665 666 663
f 673 664 674
f 667 670 668
f 669 670 667
f 669 676 670
f 675 676 669
f 671 674 672
f 671 672 681
f 673 674 671
f 681 672 682
f 675 678 676
f 677 678 675
f 677 684 678
f 683 684 677
f 679 682 680
f 679 680 689
f 681 682 679
f 689 680 690
f 683 686 684
f 685 686 683
f 685 692 686
f 691 692 685
f 687 690 688
f 687 688 697
f 689 690 687
f 697 688 698
f 691 694 692
f 693 694 691
f 693 700 694
f 699 700 693
f 695 698 696
f 695 696 705
f 697 698 695
f 705 696 706
f 699 702 700
f 701 702 699
f 701 708 702
f 707 708 701
f 703 706 704
f 703 704 713
f 705 706 703
f 713 704 714
f 707 710 708
f 709 710 707
f 709 716 710
f 715 716 709
f 711 714 712
f 711 712 721
f 713 714 711
f 721 712 722
f 715 718 716
f 717 718 715
f 717 724 718
f 723 724 717
f 719 722 720
f 719 720 741
f 721 722 719
f 741 720 742
f 723 726 724
f 725 726 723
f 725 728 726
f 727 728 725
f 727 730 728
f 729 730 727
f 729 732 730
f 731 732 729
f 731 744 732
f 743 744 731
f 733 736 734
f 733 734 777
f 735 736 733
f 777 734 778
f 735 738 736
f 737 738 735
f 737 740 738
f 739 740 737
f 739 742 740
f 741 742 739
f 743 746 744
f 745 746 743
f 745 748 746
f 747 748 745
f 747 750 748
f 749 750 747
f 749 752 750
f 751 752 749
f 751 754 752
f 753 754 751
f 753 756 754
f 755 756 753
f 755 758 756
f 757 758 755
f 757 760 758
f 759 760 757
f 759 780 760
f 779 780 759
f 761 764 762
f 761 762 779
f 763 764 761
f 779 762 780
f 763 766 764
f 765 766 763
f 765 768 766
f 767 768 765
f 767 770 768
f 769 770 767
f 769 772 770
f 771 772 769
f 771 774 772
f 773 774 771
f 773 776 774
f 775 776 773
f 775 778 776
f 777 778 775
