# CAD visual only; metres; body-local coordinates
v -0.0155176117 -0.00145294759 -0.00104528427
v -0.0155294373 -0.00144112203 -0.000871558189
v -0.0155466606 -0.00142390821 -0.000523357391
v -0.0155520394 -0.00141851995 -0.000348997116
v -0.0155552723 -0.00141528699 -0.0001745224
v -0.0155552723 -0.00141528699 0.0001745224
v -0.0155520394 -0.00141851995 0.000348997116
v -0.0155391266 -0.00143144223 0.000697565079
v -0.0155294373 -0.00144112203 0.000871558189
v -0.0155036404 -0.00146691892 0.00121869564
v -0.0152824261 -0.00168813321 -0.0027563715
v -0.0153154042 -0.00165515515 -0.00258819103
v -0.0153463127 -0.00162425611 -0.00241921902
v -0.0154018261 -0.00156873319 -0.00207911491
v -0.0154264309 -0.00154412839 -0.00190808773
v -0.015469289 -0.00150127027 -0.00156434536
v -0.0154489281 -0.00152164075 0.00173648357
v -0.0154264309 -0.00154412839 0.00190808773
v -0.0153751137 -0.0015954456 0.00224951267
v -0.0153463127 -0.00162425611 0.00241921902
v -0.0153154042 -0.00165515515 0.00258819103
v -0.0152824261 -0.00168813321 0.0027563715
v -0.0154875328 -0.00148302648 -0.00139173031
v -0.0154875328 -0.00148302648 0.00139173031
v -0.015086694 -0.00188387486 -0.0035836792
v -0.0151711037 -0.00179945561 -0.00325568199
v -0.0152102711 -0.00176029775 -0.00309017181
v -0.0152102711 -0.00176029775 0.00309017181
v -0.0151299145 -0.00184065434 0.00342020035
v -0.0150414612 -0.0019290981 0.00374606609
v -0.0152473786 -0.00172319028 -0.0029237175
v -0.0152473786 -0.00172319028 0.0029237175
v -0.0147856476 -0.0021849117 -0.00453990459
v -0.0148407128 -0.00212984654 -0.00438371181
v -0.0149450257 -0.00202554318 -0.00406736851
v -0.014893842 -0.00207671735 0.00422618389
v -0.0148407128 -0.00212984654 0.00438371181
v -0.0147856476 -0.0021849117 0.00453990459
v -0.0149942353 -0.00197633359 -0.00390731335
v -0.0149942353 -0.00197633359 0.00390731335
v -0.0145463707 -0.00242418859 -0.00515038013
v -0.0146697762 -0.00230078313 -0.00484809399
v -0.0146697762 -0.00230078313 0.00484809399
v -0.0145463707 -0.00242418859 0.00515038013
v -0.0147286656 -0.00224190328 -0.00469471455
v -0.0147286656 -0.00224190328 0.00469471455
v -0.0143474629 -0.00262309644 -0.00559192896
v -0.0144155743 -0.00255498502 -0.00544639111
v -0.0144155743 -0.00255498502 0.00544639111
v -0.0142775585 -0.00269300076 0.0057357645
v -0.0144818833 -0.00248867604 -0.00529919147
v -0.0144818833 -0.00248867604 0.00529919147
v -0.0141324856 -0.0028380737 -0.00601814985
v -0.0142058995 -0.00276466939 -0.00587785244
v -0.0142058995 -0.00276466939 0.00587785244
v -0.0140573551 -0.00291320416 0.00615661621
v -0.0140122177 -0.000129915209 -0.00190808773
v -0.0140550759 -8.70570852e-05 -0.00156434536
v -0.0140733197 -6.88132955e-05 -0.00139173031
v -0.0141033985 -3.87344076e-05 -0.00104528427
v -0.0141152241 -2.69088461e-05 -0.000871558189
v -0.0141324475 -9.69502464e-06 -0.000523357391
v -0.0141378262 -4.30676475e-06 -0.000348997116
v -0.0141410591 -1.07380882e-06 -0.0001745224
v -0.0141410591 -1.07380882e-06 0.0001745224
v -0.0141378262 -4.30676475e-06 0.000348997116
v -0.0141249134 -1.72290517e-05 0.000697565079
v -0.0141152241 -2.69088461e-05 0.000871558189
v -0.0140894272 -5.27057363e-05 0.00121869564
v -0.0140733197 -6.88132955e-05 0.00139173031
v -0.0140347149 -0.000107427569 0.00173648357
v -0.0140122177 -0.000129915209 0.00190808773
v -0.0141421368 3.84315563e-09 0
v -0.0138218834 -0.00314867589 -0.00656059027
v -0.0139020302 -0.0030685291 -0.00642787695
v -0.0139020302 -0.0030685291 0.00642787457
v -0.0138218834 -0.00314867589 0.00656059265
v -0.0139805367 -0.00299003217 -0.00629320383
v -0.0139805367 -0.00299003217 0.00629320621
v -0.0137568905 -0.000385242434 -0.00325568199
v -0.0137960484 -0.000346084566 -0.00309017181
v -0.0138682129 -0.000273920031 -0.0027563715
v -0.0138331654 -0.000308967562 0.0029237175
v -0.0137960484 -0.000346084566 0.00309017181
v -0.0137568905 -0.000385242434 0.00325568199
v -0.013901191 -0.000240941973 -0.00258819103
v -0.01393209 -0.000210042925 -0.00241921902
v -0.0139876129 -0.000154520006 -0.00207911491
v -0.0139609005 -0.000181232424 0.00224951267
v -0.01393209 -0.000210042925 0.00241921902
v -0.013901191 -0.000240941973 0.00258819103
v -0.0136567356 -0.00331383321 -0.00681998253
v -0.0135717823 -0.00339877698 0.00694658279
v -0.0137401058 -0.00323045346 -0.00669130564
v -0.0137401058 -0.00323045346 0.00669130802
v -0.0135308125 -0.000611330004 -0.00406736851
v -0.0135800221 -0.000562110872 -0.00390731335
v -0.013627248 -0.00051488492 -0.00374606609
v -0.013627248 -0.00051488492 0.00374606609
v -0.0135800221 -0.000562110872 0.00390731335
v -0.0135308125 -0.000611330004 0.00406736851
v -0.0136724808 -0.000469661684 -0.0035836792
v -0.0137157013 -0.000426441164 -0.00342020035
v -0.0137157013 -0.000426441164 0.00342020035
v -0.0136724808 -0.000469661684 0.0035836792
v -0.0133077385 -0.00366282079 -0.0073135376
v -0.0133972599 -0.00357330892 -0.00719339848
v -0.0133972599 -0.00357330892 0.00719339848
v -0.0133077385 -0.00366282079 0.0073135376
v -0.0134852841 -0.00348528478 -0.00707106829
v -0.0134852841 -0.00348528478 0.0070710659
v -0.013255563 -0.000886569948 -0.00484809399
v -0.0133714344 -0.000770698519 -0.00453990459
v -0.0133144524 -0.000827690096 0.00469471455
v -0.013255563 -0.000886569948 0.00484809399
v -0.0134264996 -0.000715633364 -0.00438371181
v -0.0134796288 -0.000662504168 -0.00422618389
v -0.0134796288 -0.000662504168 0.00422618389
v -0.0134264996 -0.000715633364 0.00438371181
v -0.0131243183 -0.00384624097 -0.00754709482
v -0.0132167485 -0.00375381085 -0.00743144751
v -0.0132167485 -0.00375381085 0.00743144989
v -0.0130304768 -0.00394008252 0.00766044617
v -0.0130676701 -0.00107446286 -0.00529919147
v -0.0131321575 -0.0010099754 -0.00515038013
v -0.0131321575 -0.0010099754 0.00515038013
v -0.0130013611 -0.00114077184 0.00544639111
v -0.0131947949 -0.000947347613 -0.005
v -0.0131947949 -0.000947347613 0.005
v -0.0129352524 -0.00403531644 -0.00777145863
v -0.0128386643 -0.00413189504 0.00788010597
v -0.0127916863 -0.00135045621 -0.00587785244
v -0.0128633454 -0.00127878758 -0.0057357645
v -0.0128633454 -0.00127878758 0.0057357645
v -0.0127916863 -0.00135045621 0.00587785244
v -0.0129332497 -0.00120888326 -0.00559192896
v -0.0129332497 -0.00120888326 0.00559193134
v -0.0126415493 -0.00432900998 -0.00809016943
v -0.0125410797 -0.00442947957 0.00819151878
v -0.0127407601 -0.00422980878 -0.00798635483
v -0.0127407601 -0.00422980878 0.00798635483
v -0.0125663235 -0.00157581899 -0.00629320383
v -0.0125663235 -0.00157581899 0.00629320621
v -0.0127182724 -0.00142386052 -0.00601814985
v -0.012643142 -0.00149899098 0.00615661621
v -0.0124393704 -0.00453118894 -0.00829037666
v -0.0123364594 -0.00463409993 0.00838670731
v -0.0123258927 -0.00181624028 -0.00669130564
v -0.0123258927 -0.00181624028 0.00669130802
v -0.0124076702 -0.00173446271 -0.00656059027
v -0.012487817 -0.00165431592 -0.00642787695
v -0.012487817 -0.00165431592 0.00642787457
v -0.0124076702 -0.00173446271 0.00656059265
v -0.0121271469 -0.00484341237 -0.00857167244
v -0.0120208123 -0.00494974706 0.00866025448
v -0.0122323754 -0.00473818395 -0.0084804821
v -0.0122323754 -0.00473818395 0.0084804821
v -0.0120710709 -0.0020710716 -0.00707106829
v -0.0120710709 -0.0020710716 0.0070710659
v -0.0122425225 -0.00189962003 -0.00681998253
v -0.0121575691 -0.0019845638 0.00694658279
v -0.0118049481 -0.00516562078 -0.00882947683
v -0.0119133999 -0.0050571594 -0.00874619722
v -0.0119133999 -0.0050571594 0.00874619484
v -0.0118049481 -0.00516562078 0.00882947445
v -0.0118025353 -0.00233959767 -0.00743144751
v -0.0118025353 -0.00233959767 0.00743144989
v -0.0118935253 -0.00224860761 -0.0073135376
v -0.0119830467 -0.00215909574 -0.00719339848
v -0.0119830467 -0.00215909574 0.00719339848
v -0.0118935253 -0.00224860761 0.0073135376
v -0.0116954758 -0.00527508351 -0.0089100647
v -0.0115850308 -0.00538552854 0.00898794174
v -0.0115210392 -0.00262110326 -0.00777145863
v -0.0116162636 -0.00252586934 -0.00766044378
v -0.0116162636 -0.00252586934 0.00766044617
v -0.0115210392 -0.00262110326 0.00777145863
v -0.0117101052 -0.00243202779 -0.00754709482
v -0.0117101052 -0.00243202779 0.00754709721
v -0.0113613465 -0.00560922238 -0.0091354537
v -0.0113613465 -0.00560922238 0.00913545609
v -0.0114736416 -0.0054969177 -0.00906307697
v -0.0114736416 -0.0054969177 0.00906307697
v -0.0113265469 -0.0028155956 -0.00798635483
v -0.0113265469 -0.0028155956 0.00798635483
v -0.0114244511 -0.00271768186 -0.00788010836
v -0.0114244511 -0.00271768186 0.00788010597
v -0.0111341526 -0.00583641622 -0.00927183867
v -0.0110193207 -0.0059512386 0.00933580399
v -0.0112481644 -0.00572239491 -0.00920504808
v -0.0112481644 -0.00572239491 0.00920505047
v -0.0110251572 -0.00311697576 -0.00829037666
v -0.0111268666 -0.00301526639 -0.00819152117
v -0.0111268666 -0.00301526639 0.00819151878
v -0.0110251572 -0.00311697576 0.00829037666
v -0.0112273361 -0.0029147968 -0.00809016943
v -0.0112273361 -0.0029147968 0.00809017181
v -0.0109037258 -0.00606683347 -0.00939692736
v -0.0107873966 -0.0061831722 0.00945518494
v -0.0108181622 -0.00332397077 -0.0084804821
v -0.0108181622 -0.00332397077 0.0084804821
v -0.0109222462 -0.00321988675 -0.00838670492
v -0.0109222462 -0.00321988675 0.00838670731
v -0.0106703617 -0.00630020711 -0.0095105648
v -0.0105526593 -0.00641790959 0.0095630455
v -0.0106065991 -0.00353553388 -0.00866025448
v -0.0106065991 -0.00353553388 0.00866025448
v -0.0107129338 -0.00342919919 -0.00857167244
v -0.0107129338 -0.00342919919 0.00857167244
v -0.0104343273 -0.00653622243 -0.00961261749
v -0.0103154042 -0.00665514562 0.00965925694
v -0.0103907349 -0.00375139806 -0.00882947683
v -0.0102812626 -0.00386087033 0.0089100647
v -0.0104991867 -0.00364294621 -0.00874619722
v -0.0104991867 -0.00364294621 0.00874619484
v -0.0101959278 -0.00677464101 -0.00970295668
v -0.010075927 -0.00689463231 0.00974370003
v -0.0100594284 -0.00408270452 -0.00906307697
v -0.0100594284 -0.00408270452 0.00906307697
v -0.0101708176 -0.00397131536 -0.00898793936
v -0.0101708176 -0.00397131536 0.00898794174
v -0.00995543978 -0.00701511952 -0.00978147507
v -0.00983450434 -0.0071360645 0.00981626987
v -0.00983395121 -0.00430818173 -0.00920504808
v -0.00983395121 -0.00430818173 0.00920505047
v -0.00994713328 -0.0041950092 -0.0091354537
v -0.00994713328 -0.0041950092 0.00913545609
v -0.00971315882 -0.00725741002 -0.0098480773
v -0.00950485728 -0.00746571157 -0.000413455963
v -0.00953288577 -0.00743767354 -0.000234651566
v -0.00954594157 -0.00742462728 0
v -0.00952982447 -0.00744074437 0.000260472298
v -0.00959144137 -0.00737911794 0.00987688541
v -0.00960510752 -0.00453702542 -0.00933580399
v -0.00960510752 -0.00453702542 0.00933580399
v -0.00971993945 -0.00442220304 -0.00927183867
v -0.00971993945 -0.00442220304 0.00927183628
v -0.00946938059 -0.00750118825 -0.00990267992
v -0.00925128482 -0.00771927449 -0.00819101334
v -0.00926310084 -0.007707468 -0.00799999952
v -0.00926100276 -0.00770956609 -0.0010229969
v -0.00928576968 -0.00768478963 -0.00098408699
v -0.0094038441 -0.00756672475 -0.000749998093
v -0.00946871302 -0.00750185582 0.000561909676
v -0.00939444087 -0.0075761089 0.000772557259
v -0.00927350543 -0.00769705388 0.00100369453
v -0.00925128482 -0.00771927449 0.00780898571
v -0.00926310084 -0.007707468 0.00800000191
v -0.00934702418 -0.00762352559 0.00992546082
v -0.00947549365 -0.00749506566 -0.000537552834
v -0.00948815844 -0.00748240087 -0.000488352776
v -0.009499593 -0.00747097585 0.000438556671
v -0.00948197863 -0.00748858068 0.000513029099
v -0.00925614855 -0.00488598439 -0.0095105648
v -0.00937318347 -0.00476894948 -0.00945518494
v -0.00937318347 -0.00476894948 0.00945518494
v -0.00925614855 -0.00488598439 0.0095105648
v -0.00948951266 -0.00465262029 -0.00939692736
v -0.00948951266 -0.00465262029 0.00939692497
v -0.00910156748 -0.00786900136 -0.00996194601
v -0.00900574229 -0.00796482656 -0.00881745815
v -0.00906331561 -0.0079072437 -0.00873604298
v -0.00917831919 -0.00779224965 -0.00849938869
v -0.0092161896 -0.00775436971 -0.00762377739
v -0.00917205355 -0.00779850575 -0.00748358011
v -0.00905414126 -0.00791641805 -0.00724980116
v -0.00901561282 -0.00795494649 -0.00129903793
v -0.0090783932 -0.00789217565 -0.00124355793
v -0.00920864604 -0.00776190373 0.00109703064
v -0.00906296275 -0.0079076061 0.0012580061
v -0.00900574229 -0.00796482656 0.00718254089
v -0.00906331561 -0.0079072437 0.00726395607
v -0.00917831919 -0.00779224965 0.00750061035
v -0.0092161896 -0.00775436971 0.00837622166
v -0.00917205355 -0.00779850575 0.00851641655
v -0.00905414126 -0.00791641805 0.00875020027
v -0.00910156748 -0.00786900136 0.00996194839
v -0.00922441027 -0.00774614903 -0.00994521856
v -0.00922071955 -0.00774984929 -0.00835812569
v -0.00924315951 -0.0077273998 -0.00824744701
v -0.00924880526 -0.00772175405 -0.00779011011
v -0.00923999331 -0.007730566 -0.00773388624
v -0.00922207377 -0.007748476 -0.00107901096
v -0.00924825213 -0.00772230718 0.00104198933
v -0.00922071955 -0.00774984929 0.00764187336
v -0.00924315951 -0.0077273998 0.00775255203
v -0.00924880526 -0.00772175405 0.00820989132
v -0.00923999331 -0.007730566 0.00826611519
v -0.00922441027 -0.00774614903 0.00994522095
v -0.00913844607 -0.00500368688 -0.00956304789
v -0.00902011416 -0.00512201879 0.00961261749
v -0.00885534785 -0.00811520192 -0.0099862957
v -0.00875131152 -0.00821924779 -0.00903366089
v -0.00881399653 -0.00815655324 -0.00899693966
v -0.00896415255 -0.00800640676 -0.00713318825
v -0.00880164645 -0.00816891286 -0.00699510098
v -0.00875979922 -0.00821076009 -0.00144888878
v -0.0089668133 -0.00800375554 0.0013365078
v -0.00875131152 -0.00821924779 0.00696633816
v -0.00881399653 -0.00815655324 0.00700305939
v -0.00896415255 -0.00800640676 0.0088668108
v -0.00880164645 -0.00816891286 0.00900489807
v -0.00885534785 -0.00811520192 0.0099862957
v -0.00897853396 -0.00799202535 -0.00997564077
v -0.00897477648 -0.00799578282 -0.00885486126
v -0.00899557612 -0.00797499272 -0.00716981888
v -0.00898323557 -0.00798733327 -0.00132441998
v -0.00899949572 -0.00797106359 0.00131193161
v -0.00897477648 -0.00799578282 0.00714513779
v -0.00899557612 -0.00797499272 0.00883018017
v -0.00897853396 -0.00799202535 0.00997563839
v -0.00878171466 -0.00536041829 -0.00970295668
v -0.00878171466 -0.00536041829 0.00970295906
v -0.00890119097 -0.00524094197 -0.00965925932
v -0.00890119097 -0.00524094197 0.00965925694
v -0.00860868952 -0.00836187932 -0.00999847651
v -0.00851242564 -0.00845814321 -0.0090993309
v -0.00871269724 -0.0082578716 -0.00694806576
v -0.00850379489 -0.00846676442 -0.00149977207
v -0.00870580218 -0.00826475713 0.00146722317
v -0.00851242564 -0.00845814321 0.00690066814
v -0.00871269724 -0.0082578716 0.00905193329
v -0.00860868952 -0.00836187932 0.00999847889
v -0.00873205683 -0.00823851201 -0.00999390841
v -0.00872563861 -0.0082449207 -0.00904616117
v -0.00873851321 -0.0082320461 -0.00695992947
v -0.00872387431 -0.00824667546 -0.00146155357
v -0.00874187968 -0.00822868917 0.00145544529
v -0.00872563861 -0.0082449207 0.00695383549
v -0.00873851321 -0.0082320461 0.00904006958
v -0.00873205683 -0.00823851201 0.00999390602
v -0.0085412266 -0.00560090634 -0.00978147507
v -0.0085412266 -0.00560090634 0.00978147507
v -0.00866171382 -0.00548041913 -0.00974370003
v -0.00866171382 -0.00548041913 0.00974370003
v -0.00836187861 -0.00860869023 -0.00999847651
v -0.00825787089 -0.00871269795 -0.00905193567
v -0.00845813296 -0.00851242635 -0.00690067053
v -0.00826475642 -0.00870581243 -0.00146722317
v -0.00846677325 -0.00850378606 0.00149977207
v -0.00825787089 -0.00871269795 0.00694806576
v -0.00845813296 -0.00851242635 0.0090993309
v -0.00836187861 -0.00860869023 0.00999847889
v -0.00848528407 -0.00848528478 -0.01
v -0.00847170375 -0.0084988651 -0.00909983158
v -0.00848528407 -0.00848528478 -0.00690000057
v -0.00848528407 -0.00848528478 -0.00150000095
v -0.00848528407 -0.00848528478 0.00150000095
v -0.00847170375 -0.0084988651 0.00690016747
v -0.00848528407 -0.00848528478 0.00909999847
v -0.00848528407 -0.00848528478 0.01
v -0.00829894564 -0.0058431873 -0.0098480773
v -0.00829894564 -0.0058431873 0.00984807968
v -0.00842029116 -0.00572184178 -0.00981627226
v -0.00842029116 -0.00572184178 0.00981626987
v -0.00811521075 -0.00885534856 -0.0099862957
v -0.00816891215 -0.00880165669 -0.00900490046
v -0.00800640605 -0.0089641628 -0.0088668108
v -0.00815656207 -0.00881399724 -0.00700306177
v -0.00821925662 -0.00875130269 -0.00696633816
v -0.00800375483 -0.00896681401 -0.0013365078
v -0.00821075938 -0.00875980947 0.00144888878
v -0.00816891215 -0.00880165669 0.00699510098
v -0.00800640605 -0.0089641628 0.00713318825
v -0.00815656207 -0.00881399724 0.00899693966
v -0.00821925662 -0.00875130269 0.00903366089
v -0.00811521075 -0.00885534856 0.0099862957
v -0.00823850176 -0.00873205754 -0.00999390841
v -0.00823204539 -0.00873852345 -0.00904006958
v -0.00824491999 -0.00872564885 -0.00695383787
v -0.00822868846 -0.00874188039 -0.00145544529
v -0.00824668429 -0.00872387502 0.00146155357
v -0.00823204539 -0.00873852345 0.00695992947
v -0.00824491999 -0.00872564885 0.00904616356
v -0.00823850176 -0.00873205754 0.00999390602
v -0.00805516741 -0.00608696553 -0.00990267992
v -0.00800757907 -0.00613455388 -0.00070420742
v -0.00807394526 -0.00606819722 -0.000488352776
v -0.00811867259 -0.0060234699 -0.000234651566
v -0.00813172839 -0.00601040456 0
v -0.00811561129 -0.00602652165 0.000260472298
v -0.00806776545 -0.00607437703 0.000513029099
v -0.00805516741 -0.00608696553 0.0099026823
v -0.00817722819 -0.00596490476 -0.00987688303
v -0.00817722819 -0.00596490476 0.00987688541
v -0.00786900065 -0.00910156819 -0.00996194601
v -0.00791641734 -0.00905413243 -0.00875019789
v -0.00779850505 -0.00917204473 -0.00851641893
v -0.007754369 -0.00921619985 -0.00837622166
v -0.0077922394 -0.0091783199 -0.00750061035
v -0.00790725253 -0.00906330678 -0.00726395607
v -0.00796481631 -0.009005743 -0.00718254089
v -0.00790760539 -0.00906296346 -0.0012580061
v -0.00776191256 -0.00920864675 -0.00109703064
v -0.0078921654 -0.00907839391 0.00124355793
v -0.00795495532 -0.00901560399 0.00129903793
v -0.00791641734 -0.00905413243 0.00724980354
v -0.00779850505 -0.00917204473 0.0074835825
v -0.007754369 -0.00921619985 0.00762377739
v -0.0077922394 -0.0091783199 0.00849938869
v -0.00790725253 -0.00906330678 0.00873604298
v -0.00796481631 -0.009005743 0.00881745815
v -0.00786900065 -0.00910156819 0.00996194839
v -0.00799202464 -0.00897852513 -0.00997564077
v -0.00797498248 -0.00899557683 -0.00883018017
v -0.00799578211 -0.00897478673 -0.00714514017
v -0.00797106288 -0.00899950597 -0.00131193161
v -0.00798733256 -0.00898323628 0.00132441998
v -0.00797498248 -0.00899557683 0.00716981888
v -0.00799578211 -0.00897478673 0.00885486126
v -0.00799202464 -0.00897852513 0.00997563839
v -0.00781019709 -0.00633194539 -0.00994521856
v -0.00775784037 -0.00638430211 -0.00851641893
v -0.00782578013 -0.00631636235 -0.00826611519
v -0.00784876368 -0.00629335973 -0.00801919699
v -0.00782894633 -0.00631317708 -0.00775255442
v -0.00776410601 -0.00637802693 -0.00750061035
v -0.00775136492 -0.00639076802 -0.00746670961
v -0.00775284312 -0.00638928029 -0.00114906788
v -0.0078715565 -0.00627058599 -0.00098408699
v -0.00788358233 -0.00625855062 0.000964179039
v -0.00785929225 -0.00628285024 0.00100369453
v -0.00775136492 -0.00639076802 0.00746670723
v -0.00776410601 -0.00637802693 0.00750061035
v -0.00782894633 -0.00631317708 0.00775255203
v -0.00784888766 -0.00629324529 0.00800000191
v -0.00782578013 -0.00631636235 0.00826611519
v -0.00775784037 -0.00638430211 0.00851641655
v -0.00781019709 -0.00633194539 0.00994522095
v -0.007932811 -0.00620932195 -0.00992546082
v -0.00789536021 -0.00624678227 -0.000943980217
v -0.00798963091 -0.00615250203 -0.000749998093
v -0.0079987385 -0.00614338491 0.000727214813
v -0.00798022769 -0.00616190526 0.000772557259
v -0.007932811 -0.00620932195 0.00992546082
v -0.00762353442 -0.00934702489 -0.00992546082
v -0.00770758174 -0.00926298711 -0.00801919699
v -0.00771928332 -0.00925127599 -0.00780898809
v -0.00769705317 -0.0092734966 -0.00100369453
v -0.00757611773 -0.00939444158 -0.000772557259
v -0.00750185511 -0.00946871373 -0.000561909676
v -0.00756672404 -0.0094038448 0.000749998093
v -0.00768478892 -0.00928577992 0.00098408699
v -0.00770956538 -0.00926100347 0.0010229969
v -0.00770758174 -0.00926298711 0.00798080444
v -0.00771928332 -0.00925127599 0.00819101334
v -0.007501178 -0.0094693813 0.0099026823
v -0.00774615786 -0.00922440145 -0.00994521856
v -0.00773056529 -0.00924000356 -0.00826611519
v -0.00772175334 -0.00924881551 -0.00820988894
v -0.00772739909 -0.00924316976 -0.00775255442
v -0.00774983904 -0.00922072026 -0.00764187574
v -0.00772230647 -0.00924826238 -0.00104198933
v -0.00774848483 -0.00922207448 0.00107901096
v -0.00773056529 -0.00924000356 0.00773388386
v -0.00772175334 -0.00924881551 0.00779010773
v -0.00772739909 -0.00924316976 0.00824744701
v -0.00774983904 -0.00922072026 0.00835812569
v -0.00774615786 -0.00922440145 0.00994522095
v -0.00756432078 -0.0065778217 -0.00997564077
v -0.00763992808 -0.0065022144 -0.00875019789
v -0.00750601313 -0.00663611028 -0.00708805799
v -0.007502475 -0.00663965795 -0.00137032032
v -0.00763312838 -0.00650900456 0.00127207279
v -0.00750601313 -0.00663611028 0.00708806038
v -0.00763992808 -0.0065022144 0.00875020027
v -0.00756432078 -0.0065778217 0.00997563839
v -0.0076873543 -0.00645477864 -0.00996194601
v -0.00774467967 -0.00639746282 -0.00855000019
v -0.00764910243 -0.00649304006 -0.00726395607
v -0.00764874003 -0.00649338338 -0.0012580061
v -0.00766418002 -0.00647795293 -0.00124355793
v -0.00773856661 -0.00640356633 0.00116571903
v -0.00764874003 -0.00649338338 0.0012580061
v -0.00764910243 -0.00649304006 0.00726395607
v -0.00774467967 -0.00639746282 0.00855000019
v -0.0076873543 -0.00645477864 0.00996194839
v -0.00737912676 -0.00959143254 -0.00987688303
v -0.00744073413 -0.00952982518 -0.000260472298
v -0.00742477915 -0.00954577062 -2.617836e-05
v -0.00743768237 -0.00953287694 0.000234651566
v -0.00746571086 -0.00950485799 0.000413455963
v -0.00725739977 -0.00971315953 0.00984807968
v -0.0074885895 -0.0094819698 -0.000513029099
v -0.0074709656 -0.00949959371 -0.000438556671
v -0.00748240969 -0.00948814961 0.000488352776
v -0.00749507449 -0.00947548482 0.000537552834
v -0.00731784365 -0.00682428929 -0.00999390841
v -0.00738743327 -0.00675470922 -0.00900490046
v -0.00725924037 -0.00688290212 -0.00693267584
v -0.00725525401 -0.00688688848 -0.00147721291
v -0.00738117716 -0.00676096532 0.00143445492
v -0.00725924037 -0.00688290212 0.00693267345
v -0.00738743327 -0.00675470922 0.00900489807
v -0.00731784365 -0.00682428929 0.00999390602
v -0.00744113467 -0.00670099828 -0.0099862957
v -0.00749469302 -0.00664743993 -0.00892253876
v -0.00739978335 -0.0067423496 -0.00700306177
v -0.00739882968 -0.00674330327 -0.0014265871
v -0.0074854996 -0.00665663335 0.00138075829
v -0.00739978335 -0.0067423496 0.00700305939
v -0.00749469302 -0.00664743993 0.00892253876
v -0.00744113467 -0.00670099828 0.0099862957
v -0.00713605425 -0.00983450505 -0.00981627226
v -0.00701512835 -0.00995543096 0.00978147507
v -0.00707107089 -0.00707106206 -0.01
v -0.00713885806 -0.00700327489 -0.00909581423
v -0.00707107089 -0.00707106206 -0.00690000057
v -0.00707107089 -0.00707106206 -0.00150000095
v -0.0070155575 -0.00712658498 -0.00149794579
v -0.00705256007 -0.00708958241 0.00149977207
v -0.00707107089 -0.00707106206 0.00150000095
v -0.00700327418 -0.0071388683 0.0069041872
v -0.00707107089 -0.00707106206 0.00909999847
v -0.00707107089 -0.00707106206 0.01
v -0.00719447634 -0.0069476566 -0.00999847651
v -0.00724604151 -0.00689610097 -0.00907180786
v -0.00715237162 -0.00698977086 -0.00690602541
v -0.00714505694 -0.00699707601 -0.00149634838
v -0.00723699114 -0.0069051418 0.00148153305
v -0.00715237162 -0.00698977086 0.00690602779
v -0.00724604151 -0.00689610097 0.00907180786
v -0.00719447634 -0.0069476566 0.00999847889
v -0.00689464114 -0.0100759182 -0.00974370003
v -0.00677463076 -0.0101959285 0.00970295906
v -0.00682428858 -0.0073178539 -0.00999390841
v -0.00688290141 -0.00725924108 -0.00906732559
v -0.00675469897 -0.00738743398 -0.00699510098
v -0.00676096461 -0.00738117787 -0.00143445492
v -0.00688688777 -0.00725525472 0.00147721291
v -0.00675469897 -0.00738743398 0.00699510098
v -0.00688290141 -0.00725924108 0.00906732559
v -0.00682428858 -0.0073178539 0.00999390602
v -0.00694766543 -0.00719446752 -0.00999847651
v -0.00698976061 -0.00715237233 -0.00909397364
v -0.00689610026 -0.00724604222 -0.00692819357
v -0.00690514109 -0.00723698232 -0.00148153305
v -0.0069970753 -0.00714504811 0.00149634838
v -0.00689610026 -0.00724604222 0.00692819118
v -0.00698976061 -0.00715237233 0.00909397602
v -0.00694766543 -0.00719446752 0.00999847889
v -0.00665515444 -0.0103154049 -0.00965925932
v -0.00653623126 -0.0104343281 0.00961261749
v -0.00657781146 -0.00756432149 -0.00997564077
v -0.0066361191 -0.00750601384 -0.00891194105
v -0.00650220416 -0.00763992879 -0.00724980116
v -0.00650900385 -0.00763313863 -0.00127207279
v -0.00663965724 -0.00750248525 0.00137032032
v -0.00650220416 -0.00763992879 0.00724980354
v -0.0066361191 -0.00750601384 0.00891194344
v -0.00657781146 -0.00756432149 0.00997563839
v -0.00670099757 -0.00744114491 -0.0099862957
v -0.00674234889 -0.0073997936 -0.00899693966
v -0.00664743922 -0.00749470326 -0.00707746267
v -0.00665663264 -0.00748550984 -0.00138075829
v -0.00674330256 -0.00739882085 0.0014265871
v -0.00664743922 -0.00749470326 0.00707746029
v -0.00674234889 -0.0073997936 0.00899693966
v -0.00670099757 -0.00744114491 0.0099862957
v -0.00641789935 -0.01055266 -0.00956304789
v -0.00630019686 -0.0106703624 0.0095105648
v -0.00633194468 -0.0078101978 -0.00994521856
v -0.00639077685 -0.0077513561 -0.00853328943
v -0.00637802622 -0.00776411626 -0.00849938869
v -0.00631318591 -0.00782894704 -0.00824744701
v -0.00629325411 -0.00784887883 -0.00799999952
v -0.00631635211 -0.00782578084 -0.00773388624
v -0.00638429186 -0.00775784108 -0.00748358011
v -0.00628283999 -0.00785929296 -0.00100369453
v -0.00625855944 -0.0078835735 -0.000964179039
v -0.00627057574 -0.00787155721 0.00098408699
v -0.00638928912 -0.00775284383 0.00114906788
v -0.00638429186 -0.00775784108 0.0074835825
v -0.00631635211 -0.00782578084 0.00773388386
v -0.00629336856 -0.00784876439 0.00798080444
v -0.00631318591 -0.00782894704 0.00824744701
v -0.00637802622 -0.00776411626 0.00849938869
v -0.00639077685 -0.0077513561 0.00853329182
v -0.00633194468 -0.0078101978 0.00994522095
v -0.00645478747 -0.00768734548 -0.00996194601
v -0.00649303935 -0.00764910314 -0.00873604298
v -0.00639746211 -0.00774468038 -0.00744999886
v -0.00649339221 -0.00764874074 -0.0012580061
v -0.00640357516 -0.00773855779 -0.00116571903
v -0.00647795222 -0.00766419026 0.00124355793
v -0.00649339221 -0.00764874074 0.0012580061
v -0.00639746211 -0.00774468038 0.00744999886
v -0.00649303935 -0.00764910314 0.00873604298
v -0.00645478747 -0.00768734548 0.00996194839
v -0.00618317149 -0.0107873974 -0.00945518494
v -0.00606683276 -0.0109037265 0.00939692497
v -0.00608696482 -0.00805517766 -0.00990267992
v -0.00607437632 -0.00806776616 -0.000513029099
v -0.00602652094 -0.00811562154 -0.000260472298
v -0.00601056597 -0.00813156697 -2.617836e-05
v -0.00602346919 -0.0081186733 0.000234651566
v -0.00606819651 -0.00807394597 0.000488352776
v -0.00613456271 -0.00800757024 0.00070420742
v -0.00608696482 -0.00805517766 0.0099026823
v -0.00620932124 -0.00793282125 -0.00992546082
v -0.00616190455 -0.00798023793 -0.000772557259
v -0.00614339373 -0.00799873921 -0.000727214813
v -0.00615251086 -0.00798962209 0.000749998093
v -0.00624678156 -0.00789536092 0.000943980217
v -0.00620932124 -0.00793282125 0.00992546082
v -0.00595123789 -0.0110193309 -0.00933580399
v -0.00583641551 -0.0111341533 0.00927183628
v -0.00584318659 -0.00829893682 -0.0098480773
v -0.00584318659 -0.00829893682 0.00984807968
v -0.00596491358 -0.0081772289 -0.00987688303
v -0.00596491358 -0.0081772289 0.00987688541
v -0.00560922167 -0.0113613376 -0.0091354537
v -0.00560922167 -0.0113613376 0.00913545609
v -0.00572239421 -0.0112481746 -0.00920504808
v -0.00572239421 -0.0112481746 0.00920505047
v -0.00560090563 -0.00854122731 -0.00978147507
v -0.00560090563 -0.00854122731 0.00978147507
v -0.00572184107 -0.00842028234 -0.00981627226
v -0.00572184107 -0.00842028234 0.00981626987
v -0.00538552783 -0.0115850315 -0.00898793936
v -0.0052750828 -0.011695486 0.0089100647
v -0.00549691699 -0.0114736423 -0.00906307697
v -0.00549691699 -0.0114736423 0.00906307697
v -0.00536041758 -0.00878170583 -0.00970295668
v -0.00536041758 -0.00878170583 0.00970295906
v -0.00548042796 -0.00866171453 -0.00974370003
v -0.00548042796 -0.00866171453 0.00974370003
v -0.00516562007 -0.0118049488 -0.00882947683
v -0.00505715869 -0.0119134006 -0.00874619722
v -0.00505715869 -0.0119134006 0.00874619484
v -0.00516562007 -0.0118049488 0.00882947445
v -0.00512201808 -0.00902012441 -0.00961261749
v -0.00500368617 -0.00913845632 0.0095630455
v -0.00524094126 -0.00890120122 -0.00965925932
v -0.00524094126 -0.00890120122 0.00965925694
v -0.00494974635 -0.0120208225 -0.00866025448
v -0.00484341166 -0.0121271572 0.00857167244
v -0.00488598368 -0.00925613973 -0.0095105648
v -0.00476894877 -0.00937317464 -0.00945518494
v -0.00476894877 -0.00937317464 0.00945518494
v -0.00488598368 -0.00925613973 0.0095105648
v -0.00463409922 -0.0123364696 -0.00838670492
v -0.00453118823 -0.0124393711 0.00829037666
v -0.00473818324 -0.0122323856 -0.0084804821
v -0.00473818324 -0.0122323856 0.0084804821
v -0.00453702471 -0.00960510823 -0.00933580399
v -0.00453702471 -0.00960510823 0.00933580399
v -0.00465261958 -0.00948952291 -0.00939692736
v -0.00465261958 -0.00948952291 0.00939692497
v -0.00442947886 -0.0125410709 -0.00819152117
v -0.00432900927 -0.01264155 0.00809017181
v -0.00430818102 -0.00983395192 -0.00920504808
v -0.00430818102 -0.00983395192 0.00920505047
v -0.00442220233 -0.00971993062 -0.00927183867
v -0.00442220233 -0.00971993062 0.00927183628
v -0.00413189433 -0.0128386745 -0.00788010836
v -0.00403531573 -0.0129352436 0.00777145863
v -0.00422980807 -0.0127407512 -0.00798635483
v -0.00422980807 -0.0127407512 0.00798635483
v -0.00408270381 -0.0100594387 -0.00906307697
v -0.00408270381 -0.0100594387 0.00906307697
v -0.00419500849 -0.00994713399 -0.0091354537
v -0.00419500849 -0.00994713399 0.00913545609
v -0.00394009135 -0.0130304775 -0.00766044378
v -0.00375381014 -0.0132167492 -0.00743144751
v -0.00375381014 -0.0132167492 0.00743144989
v -0.00384624026 -0.013124319 0.00754709721
v -0.00386086962 -0.0102812633 -0.0089100647
v -0.00375140689 -0.0103907261 0.00882947445
v -0.00397131465 -0.0101708278 -0.00898793936
v -0.00397131465 -0.0101708278 0.00898794174
v -0.00366282008 -0.0133077297 -0.0073135376
v -0.00357330821 -0.0133972606 -0.00719339848
v -0.00357330821 -0.0133972606 0.00719339848
v -0.00366282008 -0.0133077297 0.0073135376
v -0.00353553317 -0.0106065998 -0.00866025448
v -0.00353553317 -0.0106065998 0.00866025448
v -0.00364294551 -0.010499197 -0.00874619722
v -0.00364294551 -0.010499197 0.00874619484
v -0.00339877627 -0.013571783 -0.00694658279
v -0.0033138325 -0.0136567363 0.00681998253
v -0.00348528407 -0.0134852848 -0.00707106829
v -0.00348528407 -0.0134852848 0.0070710659
v -0.00332397006 -0.0108181629 -0.0084804821
v -0.00332397006 -0.0108181629 0.0084804821
v -0.00342919848 -0.0107129345 -0.00857167244
v -0.00342919848 -0.0107129345 0.00857167244
v -0.00314867518 -0.0138218746 -0.00656059027
v -0.00306852839 -0.0139020405 -0.00642787695
v -0.00306852839 -0.0139020405 0.00642787457
v -0.00314867518 -0.0138218746 0.00656059265
v -0.00323045275 -0.0137401066 -0.00669130564
v -0.00323045275 -0.0137401066 0.00669130802
v -0.00311697505 -0.0110251674 -0.00829037666
v -0.00301526568 -0.0111268673 -0.00819152117
v -0.00301526568 -0.0111268673 0.00819151878
v -0.00311697505 -0.0110251674 0.00829037666
v -0.00321988604 -0.0109222469 -0.00838670492
v -0.00321988604 -0.0109222469 0.00838670731
v -0.00291320346 -0.0140573559 -0.00615661383
v -0.00276466868 -0.0142059002 -0.00587785244
v -0.00276466868 -0.0142059002 0.00587785244
v -0.00283807299 -0.0141324863 0.00601815224
v -0.00299003146 -0.0139805278 -0.00629320383
v -0.00299003146 -0.0139805278 0.00629320621
v -0.00281559489 -0.0113265476 -0.00798635483
v -0.00281559489 -0.0113265476 0.00798635483
v -0.00291479609 -0.0112273464 -0.00809016943
v -0.00291479609 -0.0112273464 0.00809017181
v -0.00269300006 -0.0142775593 -0.0057357645
v -0.00255498431 -0.014415575 -0.00544639111
v -0.00255498431 -0.014415575 0.00544639111
v -0.00262309573 -0.0143474636 0.00559193134
v -0.00262110255 -0.0115210399 -0.00777145863
v -0.00252586863 -0.0116162548 -0.00766044378
v -0.00252586863 -0.0116162548 0.00766044617
v -0.00262110255 -0.0115210399 0.00777145863
v -0.00271768115 -0.0114244518 -0.00788010836
v -0.00271768115 -0.0114244518 0.00788010597
v -0.00242419741 -0.0145463619 -0.00515038013
v -0.00236156008 -0.0146089992 -0.005
v -0.00230078242 -0.0146697674 0.00484809399
v -0.00236156008 -0.0146089992 0.005
v -0.00248867533 -0.0144818935 -0.00529919147
v -0.00248867533 -0.0144818935 0.00529919147
v -0.00233959696 -0.0118025264 -0.00743144751
v -0.00233959696 -0.0118025264 0.00743144989
v -0.00243202708 -0.0117100963 -0.00754709482
v -0.00243202708 -0.0117100963 0.00754709721
v -0.00218491099 -0.0147856579 -0.00453990459
v -0.00212984583 -0.014840723 -0.00438371181
v -0.00207671664 -0.0148938427 -0.00422618389
v -0.00202554247 -0.0149450168 0.00406736851
v -0.00212984583 -0.014840723 0.00438371181
v -0.00218491099 -0.0147856579 0.00453990459
v -0.00224190257 -0.0147286663 -0.00469471455
v -0.00224190257 -0.0147286663 0.00469471455
v -0.00207107089 -0.0120710621 -0.00707106829
v -0.00207107089 -0.0120710621 0.0070710659
v -0.0022486069 -0.011893526 -0.0073135376
v -0.00215909503 -0.0119830379 -0.00719339848
v -0.00215909503 -0.0119830379 0.00719339848
v -0.0022486069 -0.011893526 0.0073135376
v -0.00192909739 -0.0150414524 -0.00374606609
v -0.00184065364 -0.0151299152 -0.00342020035
v -0.00176029704 -0.0152102718 -0.00309017181
v -0.00176029704 -0.0152102718 0.00309017181
v -0.0017994549 -0.0151711139 0.00325568199
v -0.00188387416 -0.0150866947 0.0035836792
v -0.00197633288 -0.0149942264 -0.00390731335
v -0.00197633288 -0.0149942264 0.00390731335
v -0.00181623957 -0.0123259029 -0.00669130564
v -0.00181623957 -0.0123259029 0.00669130802
v -0.00198456309 -0.0121575603 -0.00694658279
v -0.00189961932 -0.0122425136 0.00681998253
v -0.0016881325 -0.0152824268 -0.0027563715
v -0.00165515444 -0.0153154049 -0.00258819103
v -0.0016242554 -0.0153463039 -0.00241921902
v -0.0015954449 -0.0153751239 -0.00224951267
v -0.00154412768 -0.0154264316 -0.00190808773
v -0.00152164004 -0.0154489193 -0.00173648357
v -0.00150126956 -0.0154692898 0.00156434536
v -0.00154412768 -0.0154264316 0.00190808773
v -0.00156873248 -0.0154018268 0.00207911491
v -0.0016242554 -0.0153463039 0.00241921902
v -0.00165515444 -0.0153154049 0.00258819103
v -0.0016881325 -0.0152824268 0.0027563715
v -0.00172318957 -0.0152473697 -0.0029237175
v -0.00172318957 -0.0152473697 0.0029237175
v -0.00157581828 -0.0125663242 -0.00629320383
v -0.00157581828 -0.0125663242 0.00629320621
v -0.001734462 -0.0124076709 -0.00656059027
v -0.00165431521 -0.0124878177 -0.00642787695
v -0.00165431521 -0.0124878177 0.00642787457
v -0.001734462 -0.0124076709 0.00656059265
v -0.00146691821 -0.0155036411 -0.00121869564
v -0.00144112132 -0.0155294475 -0.000871558189
v -0.00143144152 -0.0155391178 -0.000697565079
v -0.00141851924 -0.0155520496 -0.000348997116
v -0.00141528628 -0.015555273 -0.0001745224
v -0.00141421816 -0.0155563411 0
v -0.00141851924 -0.0155520496 0.000348997116
v -0.0014239075 -0.0155466518 0.000523357391
v -0.00144112132 -0.0155294475 0.000871558189
v -0.00145294688 -0.015517622 0.00104528427
v -0.00148302577 -0.0154875431 -0.00139173031
v -0.00148302577 -0.0154875431 0.00139173031
v -0.0013504555 -0.0127916774 -0.00587785244
v -0.00127878688 -0.0128633556 -0.0057357645
v -0.00127878688 -0.0128633556 0.0057357645
v -0.0013504555 -0.0127916774 0.00587785244
v -0.00149899027 -0.0126431522 -0.00615661383
v -0.00142385981 -0.0127182827 0.00601815224
v -0.00114077113 -0.0130013714 -0.00544639111
v -0.00100998423 -0.0131321583 -0.00515038013
v -0.00100998423 -0.0131321583 0.00515038013
v -0.00107446215 -0.0130676708 0.00529919147
v -0.00120888255 -0.0129332409 -0.00559192896
v -0.00120888255 -0.0129332409 0.00559193134
v -0.000886569239 -0.0132555637 -0.00484809399
v -0.000827689387 -0.0133144436 -0.00469471455
v -0.000770697809 -0.0133714351 0.00453990459
v -0.000886569239 -0.0132555637 0.00484809399
v -0.000947346903 -0.0131947956 -0.005
v -0.000947346903 -0.0131947956 0.005
v -0.000611329294 -0.0135308132 -0.00406736851
v -0.0005621197 -0.0135800228 -0.00390731335
v -0.000514884211 -0.0136272487 -0.00374606609
v -0.000514884211 -0.0136272487 0.00374606609
v -0.0005621197 -0.0135800228 0.00390731335
v -0.000611329294 -0.0135308132 0.00406736851
v -0.000715632654 -0.0134265003 -0.00438371181
v -0.000662503458 -0.013479639 -0.00422618389
v -0.000662503458 -0.013479639 0.00422618389
v -0.000715632654 -0.0134265003 0.00438371181
v -0.000385241724 -0.0137568912 -0.00325568199
v -0.000346083857 -0.0137960491 -0.00309017181
v -0.000308976389 -0.0138331661 -0.0029237175
v -0.000273919321 -0.0138682232 0.0027563715
v -0.000346083857 -0.0137960491 0.00309017181
v -0.000385241724 -0.0137568912 0.00325568199
v -0.000469660975 -0.013672472 -0.0035836792
v -0.000426440455 -0.0137156925 -0.00342020035
v -0.000426440455 -0.0137156925 0.00342020035
v -0.000469660975 -0.013672472 0.0035836792
v -0.0001299145 -0.014012228 -0.00190808773
v -0.000107426859 -0.0140347156 -0.00173648357
v -6.88125861e-05 -0.0140733204 -0.00139173031
v -5.27050269e-05 -0.0140894375 -0.00121869564
v -2.69081366e-05 -0.0141152248 -0.000871558189
v -1.72283423e-05 -0.0141249141 -0.000697565079
v -4.3060553e-06 -0.0141378269 -0.000348997116
v -1.07309937e-06 -0.0141410503 -0.0001745224
v -1.07309937e-06 -0.0141410503 0.0001745224
v -4.3060553e-06 -0.0141378269 0.000348997116
v -9.69431519e-06 -0.0141324482 0.000523357391
v -2.69081366e-05 -0.0141152248 0.000871558189
v -3.87336981e-05 -0.0141033992 0.00104528427
v -6.88125861e-05 -0.0140733204 0.00139173031
v -8.70563757e-05 -0.0140550861 0.00156434536
v -0.0001299145 -0.014012228 0.00190808773
v -0.000240941263 -0.0139012012 -0.00258819103
v -0.000210042216 -0.0139321003 -0.00241921902
v -0.000181231714 -0.0139609012 -0.00224951267
v -0.000154519297 -0.0139876232 0.00207911491
v -0.000210042216 -0.0139321003 0.00241921902
v -0.000240941263 -0.0139012012 0.00258819103
v 4.55261143e-09 -0.0141421375 0
f 61 1 2
f 1 231 2
f 60 23 1
f 23 231 1
f 60 1 61
f 62 2 3
f 2 231 3
f 61 2 62
f 63 3 4
f 3 231 4
f 62 3 63
f 64 4 5
f 4 231 5
f 63 4 64
f 73 5 6
f 5 231 6
f 64 5 73
f 66 6 7
f 6 231 7
f 65 6 66
f 73 6 65
f 67 7 8
f 7 231 8
f 66 7 67
f 68 8 9
f 8 231 9
f 67 8 68
f 69 9 10
f 9 231 10
f 68 9 69
f 70 10 24
f 10 231 24
f 69 10 70
f 86 11 12
f 11 231 12
f 82 31 11
f 31 231 11
f 82 11 86
f 87 12 13
f 12 231 13
f 86 12 87
f 88 13 14
f 13 231 14
f 87 13 88
f 57 14 15
f 14 231 15
f 88 14 57
f 58 15 16
f 15 231 16
f 57 15 58
f 59 16 23
f 16 231 23
f 58 16 59
f 72 17 18
f 17 232 18
f 71 24 17
f 24 231 17
f 71 17 72
f 17 231 232
f 89 18 19
f 18 232 19
f 72 18 89
f 90 19 20
f 19 232 20
f 89 19 90
f 91 20 21
f 20 232 21
f 90 20 91
f 83 21 22
f 21 232 22
f 91 21 83
f 83 22 32
f 22 232 32
f 59 23 60
f 70 24 71
f 103 25 26
f 25 231 26
f 98 39 25
f 39 231 25
f 98 25 102
f 102 25 103
f 81 26 27
f 26 231 27
f 80 26 81
f 103 26 80
f 82 27 31
f 27 231 31
f 81 27 82
f 85 28 29
f 28 252 29
f 84 32 28
f 32 252 28
f 84 28 85
f 105 29 30
f 29 253 30
f 85 29 104
f 104 29 105
f 29 252 253
f 100 30 40
f 30 244 40
f 99 30 100
f 105 30 99
f 30 253 244
f 83 32 84
f 32 232 252
f 116 33 34
f 33 231 34
f 113 45 33
f 45 231 33
f 113 33 116
f 117 34 35
f 34 231 35
f 116 34 117
f 97 35 39
f 35 231 39
f 96 35 97
f 117 35 96
f 119 36 37
f 36 244 37
f 101 40 36
f 40 244 36
f 101 36 118
f 118 36 119
f 114 37 38
f 37 244 38
f 119 37 114
f 114 38 46
f 38 244 46
f 97 39 98
f 100 40 101
f 128 41 42
f 41 231 42
f 125 51 41
f 51 231 41
f 125 41 128
f 113 42 45
f 42 231 45
f 112 42 113
f 128 42 112
f 129 43 44
f 43 244 44
f 115 46 43
f 46 244 43
f 115 43 129
f 127 44 52
f 44 245 52
f 126 44 127
f 129 44 126
f 44 244 245
f 114 46 115
f 124 47 48
f 47 231 48
f 133 54 47
f 54 231 47
f 136 47 124
f 133 47 136
f 124 48 51
f 48 231 51
f 137 49 50
f 49 245 50
f 127 52 49
f 52 245 49
f 127 49 137
f 135 50 55
f 50 245 55
f 134 50 135
f 137 50 134
f 124 51 125
f 132 53 54
f 53 231 54
f 144 78 53
f 78 231 53
f 144 53 132
f 132 54 133
f 145 55 56
f 55 245 56
f 135 55 145
f 143 56 79
f 56 245 79
f 145 56 143
f 71 57 58
f 72 57 71
f 72 88 57
f 70 58 59
f 71 58 70
f 69 59 60
f 70 59 69
f 68 60 61
f 69 60 68
f 67 61 62
f 68 61 67
f 66 62 63
f 67 62 66
f 65 63 64
f 66 63 65
f 65 64 73
f 89 88 72
f 151 74 75
f 74 231 75
f 150 94 74
f 94 231 74
f 150 74 151
f 142 75 78
f 75 231 78
f 151 75 142
f 153 76 77
f 76 245 77
f 152 79 76
f 79 245 76
f 152 76 153
f 149 77 95
f 77 245 95
f 153 77 149
f 142 78 144
f 143 79 152
f 84 80 81
f 85 80 84
f 85 103 80
f 83 81 82
f 84 81 83
f 83 82 91
f 91 82 86
f 104 103 85
f 90 86 87
f 91 86 90
f 89 87 88
f 90 87 89
f 148 92 94
f 92 231 94
f 160 110 92
f 110 231 92
f 160 92 148
f 161 95 93
f 95 246 93
f 159 93 111
f 93 246 111
f 161 93 159
f 148 94 150
f 149 95 161
f 95 245 246
f 100 96 97
f 101 96 100
f 101 117 96
f 99 97 98
f 100 97 99
f 99 98 105
f 105 98 102
f 118 117 101
f 104 102 103
f 105 102 104
f 169 106 107
f 106 231 107
f 168 121 106
f 121 231 106
f 168 106 169
f 158 107 110
f 107 231 110
f 169 107 158
f 171 108 109
f 108 246 109
f 170 111 108
f 111 246 108
f 170 108 171
f 167 109 122
f 109 246 122
f 171 109 167
f 158 110 160
f 159 111 170
f 114 112 113
f 115 112 114
f 115 128 112
f 114 113 119
f 119 113 116
f 129 128 115
f 118 116 117
f 119 116 118
f 166 120 121
f 120 231 121
f 175 130 120
f 130 231 120
f 178 120 166
f 175 120 178
f 166 121 168
f 179 122 123
f 122 246 123
f 167 122 179
f 177 123 131
f 123 246 131
f 176 123 177
f 179 123 176
f 126 124 125
f 127 124 126
f 127 136 124
f 126 125 129
f 129 125 128
f 137 136 127
f 186 140 130
f 140 231 130
f 174 130 175
f 186 130 174
f 185 131 141
f 131 248 141
f 177 131 187
f 187 131 185
f 131 246 248
f 134 132 133
f 135 132 134
f 135 144 132
f 134 133 137
f 137 133 136
f 145 144 135
f 184 138 140
f 138 231 140
f 193 146 138
f 146 231 138
f 196 138 184
f 193 138 196
f 197 141 139
f 141 248 139
f 195 139 147
f 139 248 147
f 194 139 195
f 197 139 194
f 184 140 186
f 185 141 197
f 143 142 145
f 143 151 142
f 145 142 144
f 152 151 143
f 202 156 146
f 156 231 146
f 192 146 193
f 202 146 192
f 201 147 157
f 147 248 157
f 195 147 203
f 203 147 201
f 149 148 153
f 149 160 148
f 153 148 150
f 161 160 149
f 152 150 151
f 153 150 152
f 200 154 156
f 154 231 156
f 206 163 154
f 163 231 154
f 208 154 200
f 206 154 208
f 209 157 155
f 157 248 155
f 215 155 164
f 155 248 164
f 209 155 207
f 207 155 215
f 200 156 202
f 201 157 209
f 159 158 161
f 159 169 158
f 161 158 160
f 170 169 159
f 214 162 163
f 162 231 163
f 212 172 162
f 172 231 162
f 212 162 214
f 214 163 206
f 213 164 165
f 164 248 165
f 215 164 213
f 213 165 173
f 165 248 173
f 167 166 171
f 167 178 166
f 171 166 168
f 179 178 167
f 170 168 169
f 171 168 170
f 220 182 172
f 182 231 172
f 220 172 212
f 219 173 183
f 173 248 183
f 213 173 221
f 221 173 219
f 176 174 175
f 177 174 176
f 177 186 174
f 176 175 179
f 179 175 178
f 187 186 177
f 218 180 182
f 180 231 182
f 226 190 180
f 190 231 180
f 226 180 218
f 227 183 181
f 183 248 181
f 225 181 191
f 181 248 191
f 227 181 225
f 218 182 220
f 219 183 227
f 185 184 187
f 185 196 184
f 187 184 186
f 197 196 185
f 224 188 190
f 188 231 190
f 198 231 188
f 234 198 188
f 236 188 224
f 234 188 236
f 237 191 189
f 191 248 189
f 189 248 199
f 259 189 199
f 237 189 235
f 235 189 259
f 224 190 226
f 225 191 237
f 194 192 193
f 195 192 194
f 195 202 192
f 194 193 197
f 197 193 196
f 203 202 195
f 204 231 198
f 255 204 198
f 258 198 234
f 255 198 258
f 248 205 199
f 257 199 205
f 256 199 257
f 259 199 256
f 201 200 203
f 201 208 200
f 203 200 202
f 209 208 201
f 210 231 204
f 290 210 204
f 254 204 255
f 290 204 254
f 205 248 211
f 291 205 211
f 257 205 291
f 207 206 209
f 207 214 206
f 209 206 208
f 215 214 207
f 216 231 210
f 314 216 210
f 314 210 290
f 211 288 217
f 313 211 217
f 211 248 287
f 211 287 288
f 291 211 315
f 315 211 313
f 213 212 215
f 213 220 212
f 215 212 214
f 221 220 213
f 222 231 216
f 334 222 216
f 312 216 314
f 334 216 312
f 217 274 223
f 333 217 223
f 217 288 274
f 313 217 335
f 335 217 333
f 219 218 221
f 219 226 218
f 221 218 220
f 227 226 219
f 228 231 222
f 354 228 222
f 332 222 334
f 354 222 332
f 223 275 233
f 353 223 233
f 223 274 275
f 333 223 355
f 355 223 353
f 225 224 227
f 225 236 224
f 227 224 226
f 237 236 225
f 229 230 228
f 228 251 229
f 230 231 228
f 238 250 228
f 384 238 228
f 228 250 251
f 352 228 354
f 384 228 352
f 378 230 229
f 378 229 251
f 379 231 230
f 379 230 378
f 380 232 231
f 380 231 379
f 381 252 232
f 381 232 380
f 233 275 249
f 383 233 249
f 353 233 385
f 385 233 383
f 235 234 237
f 235 258 234
f 237 234 236
f 259 258 235
f 239 240 238
f 238 280 239
f 238 240 241
f 238 241 242
f 238 242 243
f 238 243 250
f 278 279 238
f 430 278 238
f 238 279 280
f 376 238 384
f 430 238 376
f 415 240 239
f 415 239 280
f 241 240 281
f 416 281 240
f 416 240 415
f 419 242 241
f 241 281 283
f 419 241 283
f 431 243 242
f 420 242 419
f 431 242 420
f 377 250 243
f 377 243 432
f 432 243 431
f 433 245 244
f 382 244 253
f 433 244 382
f 421 246 245
f 421 245 434
f 434 245 433
f 246 247 248
f 246 286 247
f 246 272 273
f 284 272 246
f 246 273 285
f 422 284 246
f 246 285 286
f 422 246 421
f 425 248 247
f 425 247 286
f 426 287 248
f 426 248 425
f 249 275 276
f 276 310 249
f 249 310 289
f 429 249 289
f 383 249 435
f 435 249 429
f 377 251 250
f 378 251 377
f 381 253 252
f 382 253 381
f 255 416 254
f 254 415 290
f 254 416 415
f 258 416 255
f 257 380 256
f 256 380 259
f 291 380 257
f 259 380 258
f 258 378 377
f 258 377 432
f 379 378 258
f 380 379 258
f 419 416 258
f 258 420 419
f 431 420 258
f 432 431 258
f 260 261 262
f 260 305 261
f 260 262 278
f 412 260 278
f 304 305 260
f 468 304 260
f 468 260 412
f 461 262 261
f 461 261 305
f 278 262 263
f 413 263 262
f 413 262 469
f 469 262 461
f 263 279 278
f 414 279 263
f 414 263 413
f 268 264 265
f 417 265 264
f 283 264 268
f 283 282 264
f 417 264 282
f 267 265 266
f 470 266 265
f 268 265 267
f 418 265 417
f 470 265 418
f 267 266 307
f 307 266 306
f 462 306 266
f 462 266 470
f 471 268 267
f 463 267 307
f 471 267 463
f 419 283 268
f 419 268 472
f 472 268 471
f 270 300 269
f 473 270 269
f 269 271 272
f 269 309 271
f 269 272 284
f 422 269 284
f 269 300 309
f 473 269 422
f 308 300 270
f 464 308 270
f 464 270 474
f 474 270 473
f 465 272 271
f 465 271 309
f 423 273 272
f 423 272 475
f 475 272 465
f 424 285 273
f 424 273 423
f 427 275 274
f 427 274 288
f 476 276 275
f 428 275 427
f 476 275 428
f 466 310 276
f 466 276 476
f 289 301 277
f 477 289 277
f 277 301 311
f 467 277 311
f 477 277 467
f 412 278 430
f 414 280 279
f 415 280 414
f 281 282 283
f 416 282 281
f 417 282 416
f 424 286 285
f 425 286 424
f 426 288 287
f 427 288 426
f 289 310 301
f 429 289 477
f 290 415 314
f 315 380 291
f 293 294 292
f 292 325 293
f 292 294 304
f 460 292 304
f 324 325 292
f 496 324 292
f 496 292 460
f 489 294 293
f 489 293 325
f 304 294 305
f 461 305 294
f 461 294 497
f 497 294 489
f 297 295 296
f 498 296 295
f 297 306 295
f 462 295 306
f 498 295 462
f 297 296 327
f 327 296 326
f 490 326 296
f 490 296 498
f 307 306 297
f 463 307 297
f 491 297 327
f 463 297 499
f 499 297 491
f 298 299 300
f 298 329 299
f 298 300 308
f 464 298 308
f 328 321 298
f 298 321 329
f 492 328 298
f 500 298 464
f 492 298 500
f 493 300 299
f 493 299 329
f 465 309 300
f 465 300 501
f 501 300 493
f 301 302 311
f 502 302 301
f 466 301 310
f 502 301 466
f 311 302 303
f 303 302 330
f 494 330 302
f 494 302 502
f 503 311 303
f 303 330 322
f 303 322 331
f 495 303 331
f 503 303 495
f 460 304 468
f 467 311 503
f 314 414 312
f 312 414 334
f 313 380 315
f 335 380 313
f 314 415 414
f 316 317 324
f 316 345 317
f 488 316 324
f 344 345 316
f 516 344 316
f 516 316 488
f 324 317 325
f 489 325 317
f 507 317 345
f 489 317 517
f 517 317 507
f 327 318 319
f 319 318 346
f 327 326 318
f 490 318 326
f 508 346 318
f 518 318 490
f 508 318 518
f 491 327 319
f 319 346 347
f 509 319 347
f 491 319 519
f 510 319 509
f 519 319 510
f 320 321 328
f 320 349 321
f 492 320 328
f 348 349 320
f 511 348 320
f 520 320 492
f 511 320 520
f 493 329 321
f 513 321 349
f 493 321 521
f 521 321 513
f 331 322 323
f 323 322 351
f 494 322 330
f 351 322 350
f 514 350 322
f 522 322 494
f 514 322 522
f 523 331 323
f 515 323 351
f 523 323 515
f 488 324 496
f 495 331 523
f 334 414 332
f 332 414 354
f 333 380 335
f 355 380 333
f 336 337 344
f 336 369 337
f 506 336 344
f 368 369 336
f 534 368 336
f 534 336 506
f 344 337 345
f 507 345 337
f 527 337 369
f 507 337 535
f 535 337 527
f 339 346 338
f 339 338 371
f 508 338 346
f 371 338 370
f 528 370 338
f 536 338 508
f 528 338 536
f 347 346 339
f 510 347 339
f 529 339 371
f 510 339 537
f 537 339 529
f 340 341 349
f 372 341 340
f 340 349 348
f 512 340 348
f 530 372 340
f 511 340 512
f 538 340 511
f 530 340 538
f 513 349 341
f 362 341 372
f 362 373 341
f 531 341 373
f 513 341 539
f 539 341 531
f 351 342 343
f 343 342 375
f 351 350 342
f 514 342 350
f 342 374 367
f 375 342 367
f 532 374 342
f 540 342 514
f 532 342 540
f 541 351 343
f 533 343 375
f 541 343 533
f 506 344 516
f 509 347 510
f 512 348 511
f 515 351 541
f 354 469 352
f 352 469 384
f 353 380 355
f 385 380 353
f 354 414 413
f 354 413 469
f 356 358 368
f 356 405 358
f 526 356 368
f 404 405 356
f 552 404 356
f 552 356 526
f 368 358 357
f 553 357 358
f 357 369 368
f 527 369 357
f 527 357 553
f 545 358 405
f 553 358 545
f 361 360 359
f 528 359 360
f 361 359 406
f 546 406 359
f 554 359 528
f 546 359 554
f 371 360 361
f 371 370 360
f 528 360 370
f 529 371 361
f 361 406 407
f 547 361 407
f 529 361 555
f 555 361 547
f 362 364 363
f 362 363 373
f 408 364 362
f 530 362 372
f 548 408 362
f 556 362 530
f 548 362 556
f 557 363 364
f 531 373 363
f 531 363 557
f 395 364 396
f 395 409 364
f 396 364 408
f 549 364 409
f 557 364 549
f 411 366 365
f 532 365 366
f 411 365 403
f 403 365 459
f 365 410 459
f 550 410 365
f 558 365 532
f 550 365 558
f 367 374 366
f 367 366 411
f 532 366 374
f 559 375 367
f 551 367 411
f 559 367 551
f 526 368 534
f 533 375 559
f 384 469 376
f 376 461 430
f 376 469 461
f 385 381 380
f 426 382 381
f 426 381 385
f 426 433 382
f 383 476 385
f 435 466 383
f 383 466 476
f 385 427 426
f 385 428 427
f 476 428 385
f 389 388 386
f 386 388 404
f 386 449 389
f 544 386 404
f 448 449 386
f 580 448 386
f 580 386 544
f 404 388 387
f 581 387 388
f 404 387 405
f 545 405 387
f 545 387 581
f 564 388 389
f 563 388 564
f 581 388 563
f 564 389 449
f 394 391 390
f 568 390 391
f 390 452 394
f 567 452 390
f 567 390 568
f 393 392 391
f 546 391 392
f 393 391 394
f 582 391 546
f 568 391 582
f 407 392 393
f 407 406 392
f 546 392 406
f 584 393 394
f 547 407 393
f 547 393 583
f 583 393 584
f 394 452 453
f 569 394 453
f 584 394 569
f 586 395 396
f 395 398 397
f 395 397 409
f 454 398 395
f 572 454 395
f 572 395 585
f 585 395 586
f 548 396 408
f 586 396 548
f 587 397 398
f 549 409 397
f 549 397 587
f 444 399 398
f 574 398 399
f 444 398 454
f 573 398 574
f 587 398 573
f 455 399 444
f 574 399 455
f 483 401 400
f 578 400 401
f 483 400 458
f 577 458 400
f 577 400 578
f 447 402 401
f 550 401 402
f 447 401 483
f 588 401 550
f 578 401 588
f 410 402 447
f 550 402 410
f 589 411 403
f 579 403 459
f 589 403 579
f 544 404 552
f 459 410 447
f 551 411 589
f 430 461 412
f 461 497 412
f 412 497 468
f 419 417 416
f 419 418 417
f 419 470 418
f 472 470 419
f 426 422 421
f 421 434 426
f 422 424 423
f 422 423 475
f 425 424 422
f 425 422 426
f 422 465 473
f 422 475 465
f 434 433 426
f 429 466 435
f 429 502 466
f 477 502 429
f 437 436 440
f 436 437 448
f 441 440 436
f 484 441 436
f 562 436 448
f 478 479 436
f 592 478 436
f 436 479 485
f 436 485 484
f 600 436 562
f 592 436 600
f 437 440 438
f 566 437 438
f 437 450 448
f 565 450 437
f 565 437 566
f 440 439 438
f 453 438 439
f 453 451 438
f 566 438 451
f 570 439 440
f 569 453 439
f 569 439 570
f 602 440 441
f 570 440 601
f 601 440 602
f 593 441 484
f 602 441 593
f 443 442 446
f 604 442 443
f 442 487 446
f 598 487 442
f 598 442 603
f 603 442 604
f 446 444 443
f 572 443 444
f 571 443 572
f 604 443 571
f 445 444 446
f 445 456 444
f 572 444 454
f 456 455 444
f 576 445 446
f 575 456 445
f 575 445 576
f 483 457 446
f 576 446 457
f 446 482 483
f 446 486 482
f 446 487 486
f 605 459 447
f 611 447 483
f 605 447 599
f 599 447 611
f 450 449 448
f 562 448 580
f 565 449 450
f 564 449 565
f 452 451 453
f 567 451 452
f 566 451 567
f 575 455 456
f 574 455 575
f 483 458 457
f 577 457 458
f 576 457 577
f 579 459 605
f 468 497 460
f 460 489 496
f 497 489 460
f 463 462 471
f 463 498 462
f 471 462 470
f 499 498 463
f 474 465 464
f 464 465 501
f 464 501 500
f 473 465 474
f 467 502 477
f 467 494 502
f 503 494 467
f 471 470 472
f 504 479 478
f 608 504 478
f 610 478 592
f 608 478 610
f 595 479 480
f 761 480 479
f 594 485 479
f 524 479 504
f 542 479 524
f 560 479 542
f 590 479 560
f 606 479 590
f 594 479 595
f 614 479 606
f 612 479 614
f 622 479 612
f 620 479 622
f 628 479 620
f 629 479 628
f 636 479 629
f 644 479 636
f 642 479 644
f 650 479 642
f 658 479 650
f 656 479 658
f 664 479 656
f 665 479 664
f 672 479 665
f 673 479 672
f 682 479 673
f 680 479 682
f 692 479 680
f 689 479 688
f 688 479 692
f 704 479 689
f 701 479 700
f 700 479 704
f 710 479 701
f 711 479 710
f 724 479 711
f 721 479 720
f 720 479 724
f 736 479 721
f 731 479 730
f 730 479 736
f 732 479 731
f 750 479 732
f 745 479 744
f 744 479 750
f 746 479 745
f 768 479 746
f 757 479 756
f 756 479 768
f 758 479 757
f 759 479 758
f 760 479 759
f 761 479 760
f 596 480 481
f 780 481 480
f 595 480 596
f 786 480 761
f 777 480 776
f 776 480 786
f 778 480 777
f 779 480 778
f 780 480 779
f 483 482 481
f 597 481 482
f 483 481 505
f 505 481 525
f 525 481 543
f 543 481 561
f 561 481 591
f 591 481 607
f 596 481 597
f 607 481 615
f 615 481 613
f 613 481 623
f 623 481 621
f 621 481 631
f 631 481 630
f 630 481 637
f 637 481 645
f 645 481 643
f 643 481 651
f 651 481 659
f 659 481 657
f 657 481 667
f 667 481 666
f 666 481 675
f 675 481 674
f 674 481 683
f 683 481 681
f 681 481 693
f 691 481 690
f 690 481 705
f 693 481 691
f 703 481 702
f 702 481 713
f 705 481 703
f 713 481 712
f 712 481 725
f 723 481 722
f 722 481 737
f 725 481 723
f 734 481 733
f 733 481 751
f 735 481 734
f 737 481 735
f 748 481 747
f 747 481 769
f 749 481 748
f 751 481 749
f 763 481 762
f 762 481 787
f 764 481 763
f 765 481 764
f 766 481 765
f 767 481 766
f 769 481 767
f 781 481 780
f 782 481 781
f 783 481 782
f 784 481 783
f 785 481 784
f 787 481 785
f 597 482 486
f 619 483 505
f 611 483 609
f 609 483 619
f 594 484 485
f 593 484 594
f 598 486 487
f 597 486 598
f 496 489 488
f 488 489 517
f 488 517 516
f 491 490 499
f 491 518 490
f 499 490 498
f 519 518 491
f 500 493 492
f 492 493 521
f 492 521 520
f 500 501 493
f 495 494 503
f 495 522 494
f 523 522 495
f 616 524 504
f 618 504 608
f 616 504 618
f 627 505 525
f 619 505 617
f 617 505 627
f 516 507 506
f 506 507 534
f 516 517 507
f 507 535 534
f 508 510 509
f 510 508 519
f 508 510 537
f 519 508 518
f 508 537 536
f 511 513 512
f 520 513 511
f 511 513 538
f 520 521 513
f 538 513 539
f 515 514 523
f 541 514 515
f 514 522 523
f 541 540 514
f 624 542 524
f 626 524 616
f 624 524 626
f 635 525 543
f 627 525 625
f 625 525 635
f 526 535 527
f 526 527 552
f 534 535 526
f 552 527 544
f 544 527 553
f 536 529 528
f 528 529 555
f 528 555 554
f 536 537 529
f 530 539 531
f 530 531 556
f 538 539 530
f 556 531 557
f 533 532 540
f 559 532 533
f 558 532 551
f 551 532 559
f 533 540 541
f 632 560 542
f 634 542 624
f 632 542 634
f 633 543 561
f 635 543 633
f 544 553 580
f 562 553 545
f 562 545 600
f 592 545 581
f 600 545 592
f 554 547 546
f 546 547 583
f 546 583 582
f 554 555 547
f 548 557 549
f 548 549 586
f 556 557 548
f 585 549 572
f 572 549 587
f 586 549 585
f 550 558 579
f 605 550 579
f 599 588 550
f 599 550 605
f 589 558 551
f 580 553 562
f 579 558 589
f 638 590 560
f 638 560 632
f 640 561 591
f 633 561 641
f 641 561 640
f 610 563 564
f 581 563 610
f 610 564 565
f 610 565 566
f 567 569 566
f 566 569 570
f 566 570 601
f 593 594 566
f 602 593 566
f 566 594 610
f 566 601 602
f 568 569 567
f 568 584 569
f 582 584 568
f 753 571 572
f 774 604 571
f 775 571 753
f 774 571 775
f 572 573 574
f 587 573 572
f 572 574 575
f 572 575 576
f 719 572 576
f 716 572 717
f 729 572 716
f 717 572 719
f 727 572 729
f 743 572 727
f 739 572 742
f 755 572 739
f 742 572 743
f 753 572 755
f 635 576 577
f 633 576 635
f 641 576 633
f 576 641 640
f 576 640 649
f 647 576 649
f 655 576 647
f 653 576 655
f 663 576 653
f 661 576 663
f 671 576 661
f 669 576 671
f 679 576 669
f 677 576 679
f 687 576 677
f 685 576 687
f 699 576 685
f 696 576 697
f 709 576 696
f 697 576 699
f 707 576 709
f 719 576 707
f 619 577 578
f 617 577 619
f 627 577 617
f 625 577 627
f 635 577 625
f 619 578 588
f 592 581 610
f 582 583 584
f 611 588 599
f 609 588 611
f 619 588 609
f 648 606 590
f 639 590 638
f 648 590 639
f 647 591 607
f 640 591 649
f 649 591 647
f 594 595 610
f 595 596 610
f 840 596 597
f 610 596 608
f 608 596 618
f 618 596 616
f 616 596 626
f 626 596 624
f 624 596 634
f 634 596 632
f 632 596 638
f 638 596 639
f 639 596 648
f 648 596 646
f 646 596 654
f 654 596 652
f 652 596 662
f 662 596 660
f 660 596 670
f 670 596 668
f 668 596 678
f 678 596 676
f 676 596 686
f 686 596 684
f 684 596 698
f 694 596 695
f 698 596 694
f 695 596 708
f 708 596 706
f 706 596 718
f 714 596 715
f 718 596 714
f 715 596 728
f 728 596 726
f 726 596 740
f 741 596 738
f 738 596 754
f 740 596 741
f 754 596 752
f 752 596 772
f 773 596 770
f 770 596 792
f 772 596 773
f 788 596 789
f 792 596 788
f 789 596 798
f 794 596 795
f 798 596 794
f 795 596 804
f 800 596 801
f 804 596 800
f 801 596 812
f 806 596 807
f 813 596 806
f 807 596 808
f 808 596 822
f 812 596 813
f 816 596 817
f 823 596 816
f 817 596 818
f 818 596 842
f 822 596 823
f 826 596 827
f 844 596 826
f 827 596 828
f 828 596 829
f 829 596 830
f 830 596 831
f 831 596 832
f 832 596 833
f 833 596 848
f 834 596 835
f 848 596 834
f 835 596 836
f 836 596 837
f 837 596 838
f 838 596 839
f 839 596 840
f 842 596 843
f 843 596 844
f 824 597 598
f 819 597 820
f 847 597 819
f 820 597 821
f 821 597 824
f 840 597 841
f 841 597 845
f 845 597 846
f 846 597 847
f 803 598 603
f 802 598 803
f 815 598 802
f 809 598 810
f 825 598 809
f 810 598 811
f 811 598 814
f 814 598 815
f 824 598 825
f 796 603 604
f 805 603 796
f 803 603 805
f 771 604 774
f 793 604 771
f 790 604 791
f 799 604 790
f 791 604 793
f 796 604 797
f 797 604 799
f 654 614 606
f 646 606 648
f 654 606 646
f 653 607 615
f 647 607 655
f 655 607 653
f 652 612 614
f 662 622 612
f 662 612 652
f 663 615 613
f 661 613 623
f 663 613 661
f 652 614 654
f 653 615 663
f 660 620 622
f 668 628 620
f 670 620 660
f 668 620 670
f 671 623 621
f 669 621 631
f 671 621 669
f 660 622 662
f 661 623 671
f 668 629 628
f 678 636 629
f 678 629 668
f 679 631 630
f 677 630 637
f 679 630 677
f 669 631 679
f 686 644 636
f 676 636 678
f 686 636 676
f 685 637 645
f 677 637 687
f 687 637 685
f 684 642 644
f 694 650 642
f 698 642 684
f 694 642 698
f 699 645 643
f 696 643 651
f 697 643 696
f 699 643 697
f 684 644 686
f 685 645 699
f 708 658 650
f 695 650 694
f 708 650 695
f 707 651 659
f 696 651 709
f 709 651 707
f 706 656 658
f 714 664 656
f 718 656 706
f 714 656 718
f 719 659 657
f 716 657 667
f 717 657 716
f 719 657 717
f 706 658 708
f 707 659 719
f 728 665 664
f 715 664 714
f 728 664 715
f 726 672 665
f 726 665 728
f 727 667 666
f 743 666 675
f 727 666 743
f 716 667 729
f 729 667 727
f 740 673 672
f 740 672 726
f 741 682 673
f 741 673 740
f 742 675 674
f 739 674 683
f 742 674 739
f 743 675 742
f 738 680 682
f 754 692 680
f 754 680 738
f 755 683 681
f 753 681 693
f 755 681 753
f 738 682 741
f 739 683 755
f 772 689 688
f 752 688 692
f 772 688 752
f 773 704 689
f 773 689 772
f 774 691 690
f 771 690 705
f 774 690 771
f 775 693 691
f 775 691 774
f 752 692 754
f 753 693 775
f 792 701 700
f 770 700 704
f 792 700 770
f 788 710 701
f 788 701 792
f 791 703 702
f 790 702 713
f 791 702 790
f 793 705 703
f 793 703 791
f 770 704 773
f 771 705 793
f 798 711 710
f 789 710 788
f 798 710 789
f 794 724 711
f 794 711 798
f 797 713 712
f 797 712 725
f 790 713 799
f 799 713 797
f 795 721 720
f 794 720 724
f 795 720 794
f 800 736 721
f 804 721 795
f 800 721 804
f 803 723 722
f 802 722 737
f 803 722 802
f 796 725 723
f 796 723 805
f 805 723 803
f 797 725 796
f 801 731 730
f 801 730 736
f 812 732 731
f 812 731 801
f 806 750 732
f 806 732 813
f 813 732 812
f 814 734 733
f 810 733 751
f 811 733 810
f 814 733 811
f 815 735 734
f 815 734 814
f 802 737 735
f 802 735 815
f 801 736 800
f 822 745 744
f 807 744 750
f 808 744 807
f 822 744 808
f 816 746 745
f 816 745 823
f 823 745 822
f 817 768 746
f 817 746 816
f 820 748 747
f 819 747 769
f 820 747 819
f 824 749 748
f 821 748 820
f 824 748 821
f 809 751 749
f 809 749 825
f 825 749 824
f 807 750 806
f 810 751 809
f 818 757 756
f 818 756 768
f 842 758 757
f 842 757 818
f 843 759 758
f 843 758 842
f 844 760 759
f 844 759 843
f 826 761 760
f 826 760 844
f 827 786 761
f 827 761 826
f 840 763 762
f 839 762 787
f 840 762 839
f 841 764 763
f 841 763 840
f 845 765 764
f 845 764 841
f 846 766 765
f 846 765 845
f 847 767 766
f 847 766 846
f 819 769 767
f 819 767 847
f 818 768 817
f 829 777 776
f 828 776 786
f 829 776 828
f 830 778 777
f 830 777 829
f 831 779 778
f 831 778 830
f 832 780 779
f 832 779 831
f 833 781 780
f 833 780 832
f 834 782 781
f 848 781 833
f 834 781 848
f 835 783 782
f 835 782 834
f 836 784 783
f 836 783 835
f 837 785 784
f 837 784 836
f 838 787 785
f 838 785 837
f 828 786 827
f 839 787 838
