# CAD visual only; metres; body-local coordinates
v -0.00826192401 0.00593247798 -0.158000002
v -0.00826192401 0.00593247798 -0.155
v -0.00827334902 0.00619402316 -0.158000002
v -0.00827334902 0.00619402316 -0.155
v -0.00828019641 0.00645573047 -0.158000002
v -0.00828019641 0.00645573047 -0.155
v -0.00828248522 0.00671751407 -0.158000002
v -0.00828248522 0.00671751407 -0.155
v -0.00828019641 0.00697929767 -0.158000002
v -0.00828019641 0.00697929767 -0.155
v -0.00827334902 0.00724100497 -0.158000002
v -0.00827334902 0.00724100497 -0.155
v -0.00826192401 0.00750255015 -0.158000002
v -0.00826192401 0.00750255015 -0.155
v -0.00800689242 0.00385537532 -0.158000002
v -0.00800689242 0.00385537532 -0.155
v -0.00805460475 0.00411279109 -0.158000002
v -0.00805460475 0.00411279109 -0.155
v -0.00809780619 0.00437099841 -0.158000002
v -0.00809780619 0.00437099841 -0.155
v -0.0081365063 0.00462992099 -0.158000002
v -0.0081365063 0.00462992099 -0.155
v -0.00817067645 0.00488947299 -0.158000002
v -0.00817067645 0.00488947299 -0.155
v -0.00820031664 0.00514958766 -0.158000002
v -0.00820031664 0.00514958766 -0.155
v -0.00822540782 0.00541017917 -0.158000002
v -0.00822540782 0.00541017917 -0.155
v -0.00824594996 0.00567117122 -0.158000002
v -0.00824594996 0.00567117122 -0.155
v -0.00824594996 0.00776385692 -0.158000002
v -0.00824594996 0.00776385692 -0.155
v -0.00822540782 0.00802484897 -0.158000002
v -0.00822540782 0.00802484897 -0.155
v -0.00820031664 0.00828544047 -0.158000002
v -0.00820031664 0.00828544047 -0.155
v -0.00817067645 0.00854555514 -0.158000002
v -0.00817067645 0.00854555514 -0.155
v -0.0081365063 0.00880510715 -0.158000002
v -0.0081365063 0.00880510715 -0.155
v -0.00809780619 0.00906402972 -0.158000002
v -0.00809780619 0.00906402972 -0.155
v -0.00805460475 0.00932223704 -0.158000002
v -0.00805460475 0.00932223704 -0.155
v -0.00800689242 0.00957965281 -0.158000002
v -0.00800689242 0.00957965281 -0.155
v -0.00777137301 0.0028352299 -0.158000002
v -0.00777137301 0.0028352299 -0.155
v -0.00783691905 0.00308868793 -0.158000002
v -0.00783691905 0.00308868793 -0.155
v -0.00789804003 0.00334325221 -0.158000002
v -0.00789804003 0.00334325221 -0.155
v -0.00795469782 0.00359883693 -0.158000002
v -0.00795469782 0.00359883693 -0.155
v -0.00795469782 0.00983619121 -0.158000002
v -0.00795469782 0.00983619121 -0.155
v -0.00789804003 0.0100917759 -0.158000002
v -0.00789804003 0.0100917759 -0.155
v -0.00783691905 0.0103463402 -0.158000002
v -0.00783691905 0.0103463402 -0.155
v -0.00777137301 0.0105997982 -0.158000002
v -0.00777137301 0.0105997982 -0.155
v -0.0075483372 0.00208225635 -0.158000002
v -0.0075483372 0.00208225635 -0.155
v -0.00762705348 0.00233193782 -0.158000002
v -0.00762705348 0.00233193782 -0.155
v -0.00770141146 0.00258295444 -0.158000002
v -0.00770141146 0.00258295444 -0.155
v -0.00770141146 0.0108520737 -0.158000002
v -0.00770141146 0.0108520737 -0.155
v -0.00762705348 0.0111030903 -0.158000002
v -0.00762705348 0.0111030903 -0.155
v -0.0075483372 0.0113527718 -0.158000002
v -0.0075483372 0.0113527718 -0.155
v -0.0072861912 0.00134199527 -0.158000002
v -0.0072861912 0.00134199527 -0.155
v -0.00737787745 0.00158721354 -0.158000002
v -0.00737787745 0.00158721354 -0.155
v -0.00746526263 0.00183399585 -0.158000002
v -0.00746526263 0.00183399585 -0.155
v -0.00746526263 0.0116010323 -0.158000002
v -0.00746526263 0.0116010323 -0.155
v -0.00737787745 0.0118478146 -0.158000002
v -0.00737787745 0.0118478146 -0.155
v -0.0072861912 0.0120930329 -0.158000002
v -0.0072861912 0.0120930329 -0.155
v -0.00709005854 0.00085654643 -0.158000002
v -0.00709005854 0.00085654643 -0.155
v -0.00719024203 0.00109841731 -0.158000002
v -0.00719024203 0.00109841731 -0.155
v -0.00719024203 0.0123366108 -0.158000002
v -0.00719024203 0.0123366108 -0.155
v -0.00709005854 0.0125784817 -0.158000002
v -0.00709005854 0.0125784817 -0.155
v -0.00676439784 0.000141948728 -0.158000002
v -0.00676439784 0.000141948728 -0.155
v -0.00687710307 0.000378240614 -0.158000002
v -0.00687710307 0.000378240614 -0.155
v -0.00698566935 0.000616468458 -0.158000002
v -0.00698566935 0.000616468458 -0.155
v -0.00698566935 0.0128185597 -0.158000002
v -0.00698566935 0.0128185597 -0.155
v -0.00687710307 0.0130567875 -0.158000002
v -0.00687710307 0.0130567875 -0.155
v -0.00676439784 0.0132930794 -0.158000002
v -0.00676439784 0.0132930794 -0.155
v -0.00652670405 -0.000324560137 -0.158000002
v -0.00652670405 -0.000324560137 -0.155
v -0.00664758227 -9.23404409e-05 -0.158000002
v -0.00664758227 -9.23404409e-05 -0.155
v -0.00664758227 0.0135273686 -0.158000002
v -0.00664758227 0.0135273686 -0.155
v -0.00652670405 0.0137595883 -0.158000002
v -0.00652670405 0.0137595883 -0.155
v -0.00627286456 -0.000782485933 -0.158000002
v -0.00627286456 -0.000782485933 -0.155
v -0.00640178225 -0.000554634066 -0.158000002
v -0.00640178225 -0.000554634066 -0.155
v -0.00640178225 0.0139896622 -0.158000002
v -0.00640178225 0.0139896622 -0.155
v -0.00627286456 0.0142175141 -0.158000002
v -0.00627286456 0.0142175141 -0.155
v -0.00600320361 -0.00123127553 -0.158000002
v -0.00600320361 -0.00123127553 -0.155
v -0.00613999865 0.0144430867 -0.158000002
v -0.00613999865 0.0144430867 -0.155
v -0.00600320361 0.0146663037 -0.158000002
v -0.00600320361 0.0146663037 -0.155
v -0.00586254618 -0.00145207021 -0.158000002
v -0.00586254618 -0.00145207021 -0.155
v -0.00586254618 0.0148870983 -0.158000002
v -0.00586254618 0.0148870983 -0.155
v -0.00556976817 -0.00188613507 -0.158000002
v -0.00556976817 -0.00188613507 -0.155
v -0.00571804545 -0.0016703758 -0.158000002
v -0.00571804545 -0.0016703758 -0.155
v -0.00571804545 0.0151054039 -0.158000002
v -0.00571804545 0.0151054039 -0.155
v -0.00556976817 0.0153211632 -0.158000002
v -0.00556976817 0.0153211632 -0.155
v -0.00526201747 -0.00230970952 -0.158000002
v -0.00526201747 -0.00230970952 -0.155
v -0.00541774294 -0.00209926221 -0.158000002
v -0.00541774294 -0.00209926221 -0.155
v -0.00541774294 0.0155342903 -0.158000002
v -0.00541774294 0.0155342903 -0.155
v -0.00510264895 -0.00251741025 -0.158000002
v -0.00510264895 -0.00251741025 -0.155
v -0.00510264895 0.0159524384 -0.158000002
v -0.00510264895 0.0159524384 -0.155
v -0.00477315447 -0.0029242954 -0.158000002
v -0.00477315447 -0.0029242954 -0.155
v -0.00493967555 -0.0027222881 -0.158000002
v -0.00493967555 -0.0027222881 -0.155
v -0.00493967555 0.0161573162 -0.158000002
v -0.00493967555 0.0161573162 -0.155
v -0.00477315447 0.0163593331 -0.158000002
v -0.00477315447 0.0163593331 -0.155
v -0.00460313342 -0.00312337491 -0.158000002
v -0.00460313342 -0.00312337491 -0.155
v -0.00460313342 0.016558403 -0.158000002
v -0.00460313342 0.016558403 -0.155
v -0.00425279162 -0.00351246449 -0.158000002
v -0.00425279162 -0.00351246449 -0.155
v -0.00442966006 -0.00331944081 -0.158000002
v -0.00442966006 -0.00331944081 -0.155
v -0.00442966006 0.0167544689 -0.158000002
v -0.00442966006 0.0167544689 -0.155
v -0.00407258532 -0.00370236012 -0.158000002
v -0.00407258532 -0.00370236012 -0.155
v -0.00407258532 0.0171373883 -0.158000002
v -0.00407258532 0.0171373883 -0.155
v -0.00388908885 -0.00388908956 -0.158000002
v -0.00388908885 -0.00388908956 -0.155
v -0.00388908885 0.0173241177 -0.158000002
v -0.00388908885 0.0173241177 -0.155
v -0.00351246379 -0.00425279233 -0.158000002
v -0.00351246379 -0.00425279233 -0.155
v -0.00370235942 -0.00407258603 -0.158000002
v -0.00370235942 -0.00407258603 -0.155
v -0.00370235942 0.0175076142 -0.158000002
v -0.00370235942 0.0175076142 -0.155
v -0.0033194401 -0.00442966077 -0.158000002
v -0.0033194401 -0.00442966077 -0.155
v -0.0033194401 0.0178646889 -0.158000002
v -0.0033194401 0.0178646889 -0.155
v -0.0031233742 -0.00460312459 -0.158000002
v -0.0031233742 -0.00460312459 -0.155
v -0.0031233742 0.0180381623 -0.158000002
v -0.0031233742 0.0180381623 -0.155
v -0.00292430422 -0.00477315518 -0.158000002
v -0.00292430422 -0.00477315518 -0.155
v -0.00292430422 0.0182081833 -0.158000002
v -0.00292430422 0.0182081833 -0.155
v -0.00251740954 -0.00510264966 -0.158000002
v -0.00251740954 -0.00510264966 -0.155
v -0.00272228739 -0.00493967626 -0.158000002
v -0.00272228739 -0.00493967626 -0.155
v -0.00272228739 0.0183747044 -0.158000002
v -0.00272228739 0.0183747044 -0.155
v -0.00251740954 0.0185376778 -0.158000002
v -0.00251740954 0.0185376778 -0.155
v -0.00230970881 -0.00526201818 -0.158000002
v -0.00230970881 -0.00526201818 -0.155
v -0.00230970881 0.0186970463 -0.158000002
v -0.00230970881 0.0186970463 -0.155
v -0.0020992615 -0.00541774365 -0.158000002
v -0.0020992615 -0.00541774365 -0.155
v -0.0020992615 0.0188527718 -0.158000002
v -0.0020992615 0.0188527718 -0.155
v -0.00188613436 -0.00556976888 -0.158000002
v -0.00188613436 -0.00556976888 -0.155
v -0.00188613436 0.019004797 -0.158000002
v -0.00188613436 0.019004797 -0.155
v -0.00167037509 -0.00571804616 -0.158000002
v -0.00167037509 -0.00571804616 -0.155
v -0.00167037509 0.0191530743 -0.158000002
v -0.00167037509 0.0191530743 -0.155
v -0.0014520695 -0.00586254689 -0.158000002
v -0.0014520695 -0.00586254689 -0.155
v -0.0014520695 0.019297575 -0.158000002
v -0.0014520695 0.019297575 -0.155
v -0.00100805781 -0.00613998982 -0.158000002
v -0.00100805781 -0.00613998982 -0.155
v -0.00123127482 0.0194382325 -0.158000002
v -0.00123127482 0.0194382325 -0.155
v -0.00100805781 0.0195750275 -0.158000002
v -0.00100805781 0.0195750275 -0.155
v -0.000782485224 -0.0062728748 -0.158000002
v -0.000782485224 -0.0062728748 -0.155
v -0.000782485224 0.0197078934 -0.158000002
v -0.000782485224 0.0197078934 -0.155
v -0.000554633356 -0.00640177342 -0.158000002
v -0.000554633356 -0.00640177342 -0.155
v -0.000554633356 0.0198368111 -0.158000002
v -0.000554633356 0.0198368111 -0.155
v -0.000324559427 -0.00652670476 -0.158000002
v -0.000324559427 -0.00652670476 -0.155
v -0.000324559427 0.0199617329 -0.158000002
v -0.000324559427 0.0199617329 -0.155
v -9.23397314e-05 -0.00664759252 -0.158000002
v -9.23397314e-05 -0.00664759252 -0.155
v -9.23397314e-05 0.0200826111 -0.158000002
v -9.23397314e-05 0.0200826111 -0.155
v 0.000141949438 -0.00676439855 -0.158000002
v 0.000141949438 -0.00676439855 -0.155
v 0.000141949438 0.0201994267 -0.158000002
v 0.000141949438 0.0201994267 -0.155
v 0.000378241323 -0.00687710378 -0.158000002
v 0.000378241323 -0.00687710378 -0.155
v 0.000378241323 0.0203121319 -0.158000002
v 0.000378241323 0.0203121319 -0.155
v 0.000616469167 -0.00698567006 -0.158000002
v 0.000616469167 -0.00698567006 -0.155
v 0.000616469167 0.0204206982 -0.158000002
v 0.000616469167 0.0204206982 -0.155
v 0.00085654714 -0.00709005925 -0.158000002
v 0.00085654714 -0.00709005925 -0.155
v 0.00085654714 0.0205250874 -0.158000002
v 0.00085654714 0.0205250874 -0.155
v 0.00109841802 -0.00719025228 -0.158000002
v 0.00109841802 -0.00719025228 -0.155
v 0.00109841802 0.0206252709 -0.158000002
v 0.00109841802 0.0206252709 -0.155
v 0.00134199598 -0.00728619191 -0.158000002
v 0.00134199598 -0.00728619191 -0.155
v 0.00134199598 0.02072122 -0.158000002
v 0.00134199598 0.02072122 -0.155
v 0.00158721425 -0.00737787816 -0.158000002
v 0.00158721425 -0.00737787816 -0.155
v 0.00158721425 0.0208129063 -0.158000002
v 0.00158721425 0.0208129063 -0.155
v 0.00183399656 -0.00746527287 -0.158000002
v 0.00183399656 -0.00746527287 -0.155
v 0.00183399656 0.0209002915 -0.158000002
v 0.00183399656 0.0209002915 -0.155
v 0.00208225706 -0.00754833791 -0.158000002
v 0.00208225706 -0.00754833791 -0.155
v 0.00208225706 0.020983366 -0.158000002
v 0.00208225706 0.020983366 -0.155
v 0.00233193853 -0.00762705419 -0.158000002
v 0.00233193853 -0.00762705419 -0.155
v 0.00233193853 0.0210620823 -0.158000002
v 0.00233193853 0.0210620823 -0.155
v 0.00258295514 -0.00770140264 -0.158000002
v 0.00258295514 -0.00770140264 -0.155
v 0.00258295514 0.0211364403 -0.158000002
v 0.00258295514 0.0211364403 -0.155
v 0.00283523061 -0.00777136418 -0.158000002
v 0.00283523061 -0.00777136418 -0.155
v 0.00283523061 0.0212064019 -0.158000002
v 0.00283523061 0.0212064019 -0.155
v 0.00308868863 -0.00783691976 -0.158000002
v 0.00308868863 -0.00783691976 -0.155
v 0.00308868863 0.0212719479 -0.158000002
v 0.00308868863 0.0212719479 -0.155
v 0.00334325292 -0.00789803121 -0.158000002
v 0.00334325292 -0.00789803121 -0.155
v 0.00334325292 0.0213330689 -0.158000002
v 0.00334325292 0.0213330689 -0.155
v 0.00359883764 -0.00795469853 -0.158000002
v 0.00359883764 -0.00795469853 -0.155
v 0.00359883764 0.0213897267 -0.158000002
v 0.00359883764 0.0213897267 -0.155
v 0.00385537603 -0.00800690267 -0.158000002
v 0.00385537603 -0.00800690267 -0.155
v 0.00385537603 0.0214419213 -0.158000002
v 0.00385537603 0.0214419213 -0.155
v 0.0041127918 -0.00805460546 -0.158000002
v 0.0041127918 -0.00805460546 -0.155
v 0.0041127918 0.0214896336 -0.158000002
v 0.0041127918 0.0214896336 -0.155
v 0.00437099912 -0.0080978069 -0.158000002
v 0.00437099912 -0.0080978069 -0.155
v 0.00437099912 0.021532835 -0.158000002
v 0.00437099912 0.021532835 -0.155
v 0.0046299217 -0.00813650701 -0.158000002
v 0.0046299217 -0.00813650701 -0.155
v 0.0046299217 0.0215715351 -0.158000002
v 0.0046299217 0.0215715351 -0.155
v 0.0048894737 -0.00817068669 -0.158000002
v 0.0048894737 -0.00817068669 -0.155
v 0.0048894737 0.0216057053 -0.158000002
v 0.0048894737 0.0216057053 -0.155
v 0.00514958837 -0.00820030782 -0.158000002
v 0.00514958837 -0.00820030782 -0.155
v 0.00514958837 0.0216353455 -0.158000002
v 0.00514958837 0.0216353455 -0.155
v 0.00541017988 -0.00822540853 -0.158000002
v 0.00541017988 -0.00822540853 -0.155
v 0.00541017988 0.0216604367 -0.158000002
v 0.00541017988 0.0216604367 -0.155
v 0.00567117193 -0.00824595067 -0.158000002
v 0.00567117193 -0.00824595067 -0.155
v 0.00567117193 0.0216809788 -0.158000002
v 0.00567117193 0.0216809788 -0.155
v 0.00593247869 -0.00826193425 -0.158000002
v 0.00593247869 -0.00826193425 -0.155
v 0.00593247869 0.0216969528 -0.158000002
v 0.00593247869 0.0216969528 -0.155
v 0.00619402387 -0.0082733402 -0.158000002
v 0.00619402387 -0.0082733402 -0.155
v 0.00619402387 0.0217083779 -0.158000002
v 0.00619402387 0.0217083779 -0.155
v 0.00645573118 -0.00828020665 -0.158000002
v 0.00645573118 -0.00828020665 -0.155
v 0.00645573118 0.0217152252 -0.158000002
v 0.00645573118 0.0217152252 -0.155
v 0.00671751478 -0.0082824764 -0.158000002
v 0.00671751478 -0.0082824764 -0.155
v 0.00671751478 0.0217175141 -0.158000002
v 0.00671751478 0.0217175141 -0.155
v 0.00697929838 -0.00828020665 -0.158000002
v 0.00697929838 -0.00828020665 -0.155
v 0.00697929838 0.0217152252 -0.158000002
v 0.00697929838 0.0217152252 -0.155
v 0.00724100568 -0.0082733402 -0.158000002
v 0.00724100568 -0.0082733402 -0.155
v 0.00724100568 0.0217083779 -0.158000002
v 0.00724100568 0.0217083779 -0.155
v 0.00750255086 -0.00826193425 -0.158000002
v 0.00750255086 -0.00826193425 -0.155
v 0.00750255086 0.0216969528 -0.158000002
v 0.00750255086 0.0216969528 -0.155
v 0.00776385763 -0.00824595067 -0.158000002
v 0.00776385763 -0.00824595067 -0.155
v 0.00776385763 0.0216809788 -0.158000002
v 0.00776385763 0.0216809788 -0.155
v 0.00802484968 -0.00822540853 -0.158000002
v 0.00802484968 -0.00822540853 -0.155
v 0.00802484968 0.0216604367 -0.158000002
v 0.00802484968 0.0216604367 -0.155
v 0.00828544118 -0.00820030782 -0.158000002
v 0.00828544118 -0.00820030782 -0.155
v 0.00828544118 0.0216353455 -0.158000002
v 0.00828544118 0.0216353455 -0.155
v 0.00854555585 -0.00817068669 -0.158000002
v 0.00854555585 -0.00817068669 -0.155
v 0.00854555585 0.0216057053 -0.158000002
v 0.00854555585 0.0216057053 -0.155
v 0.00880510785 -0.00813650701 -0.158000002
v 0.00880510785 -0.00813650701 -0.155
v 0.00880510785 0.0215715351 -0.158000002
v 0.00880510785 0.0215715351 -0.155
v 0.00906403043 -0.0080978069 -0.158000002
v 0.00906403043 -0.0080978069 -0.155
v 0.00906403043 0.021532835 -0.158000002
v 0.00906403043 0.021532835 -0.155
v 0.00932223775 -0.00805460546 -0.158000002
v 0.00932223775 -0.00805460546 -0.155
v 0.00932223775 0.0214896336 -0.158000002
v 0.00932223775 0.0214896336 -0.155
v 0.00957965352 -0.00800690267 -0.158000002
v 0.00957965352 -0.00800690267 -0.155
v 0.00957965352 0.0214419213 -0.158000002
v 0.00957965352 0.0214419213 -0.155
v 0.00983619192 -0.00795469853 -0.158000002
v 0.00983619192 -0.00795469853 -0.155
v 0.00983619192 0.0213897267 -0.158000002
v 0.00983619192 0.0213897267 -0.155
v 0.0100917766 -0.00789803121 -0.158000002
v 0.0100917766 -0.00789803121 -0.155
v 0.0100917766 0.0213330689 -0.158000002
v 0.0100917766 0.0213330689 -0.155
v 0.0103463409 -0.00783691976 -0.158000002
v 0.0103463409 -0.00783691976 -0.155
v 0.0103463409 0.0212719479 -0.158000002
v 0.0103463409 0.0212719479 -0.155
v 0.0105997989 -0.00777136418 -0.158000002
v 0.0105997989 -0.00777136418 -0.155
v 0.0105997989 0.0212064019 -0.158000002
v 0.0105997989 0.0212064019 -0.155
v 0.0108520744 -0.00770140264 -0.158000002
v 0.0108520744 -0.00770140264 -0.155
v 0.0108520744 0.0211364403 -0.158000002
v 0.0108520744 0.0211364403 -0.155
v 0.011103091 -0.00762705419 -0.158000002
v 0.011103091 -0.00762705419 -0.155
v 0.011103091 0.0210620823 -0.158000002
v 0.011103091 0.0210620823 -0.155
v 0.0113527725 -0.00754833791 -0.158000002
v 0.0113527725 -0.00754833791 -0.155
v 0.0113527725 0.020983366 -0.158000002
v 0.0113527725 0.020983366 -0.155
v 0.011601033 -0.00746527287 -0.158000002
v 0.011601033 -0.00746527287 -0.155
v 0.011601033 0.0209002915 -0.158000002
v 0.011601033 0.0209002915 -0.155
v 0.0118478153 -0.00737787816 -0.158000002
v 0.0118478153 -0.00737787816 -0.155
v 0.0118478153 0.0208129063 -0.158000002
v 0.0118478153 0.0208129063 -0.155
v 0.0120930336 -0.00728619191 -0.158000002
v 0.0120930336 -0.00728619191 -0.155
v 0.0120930336 0.02072122 -0.158000002
v 0.0120930336 0.02072122 -0.155
v 0.0123366115 -0.00719025228 -0.158000002
v 0.0123366115 -0.00719025228 -0.155
v 0.0123366115 0.0206252709 -0.158000002
v 0.0123366115 0.0206252709 -0.155
v 0.0125784824 -0.00709005925 -0.158000002
v 0.0125784824 -0.00709005925 -0.155
v 0.0125784824 0.0205250874 -0.158000002
v 0.0125784824 0.0205250874 -0.155
v 0.0128185604 -0.00698567006 -0.158000002
v 0.0128185604 -0.00698567006 -0.155
v 0.0128185604 0.0204206982 -0.158000002
v 0.0128185604 0.0204206982 -0.155
v 0.0130567882 -0.00687710378 -0.158000002
v 0.0130567882 -0.00687710378 -0.155
v 0.0130567882 0.0203121319 -0.158000002
v 0.0130567882 0.0203121319 -0.155
v 0.0132930801 -0.00676439855 -0.158000002
v 0.0132930801 -0.00676439855 -0.155
v 0.0132930801 0.0201994267 -0.158000002
v 0.0132930801 0.0201994267 -0.155
v 0.0135273693 -0.00664759252 -0.158000002
v 0.0135273693 -0.00664759252 -0.155
v 0.0135273693 0.0200826111 -0.158000002
v 0.0135273693 0.0200826111 -0.155
v 0.013759589 -0.00652670476 -0.158000002
v 0.013759589 -0.00652670476 -0.155
v 0.0139896629 -0.00640177342 -0.158000002
v 0.0139896629 -0.00640177342 -0.155
v 0.013759589 0.0199617329 -0.158000002
v 0.013759589 0.0199617329 -0.155
v 0.0142175148 -0.0062728748 -0.158000002
v 0.0142175148 -0.0062728748 -0.155
v 0.0142175148 0.0197078934 -0.158000002
v 0.0142175148 0.0197078934 -0.155
v 0.0144430874 -0.00613998982 -0.158000002
v 0.0144430874 -0.00613998982 -0.155
v 0.0144430874 0.0195750275 -0.158000002
v 0.0144430874 0.0195750275 -0.155
v 0.0146663044 -0.00600320432 -0.158000002
v 0.0146663044 -0.00600320432 -0.155
v 0.0146663044 0.0194382325 -0.158000002
v 0.0146663044 0.0194382325 -0.155
v 0.0148870991 -0.00586254689 -0.158000002
v 0.0148870991 -0.00586254689 -0.155
v 0.0148870991 0.019297575 -0.158000002
v 0.0148870991 0.019297575 -0.155
v 0.0151054046 -0.00571804616 -0.158000002
v 0.0151054046 -0.00571804616 -0.155
v 0.0151054046 0.0191530743 -0.158000002
v 0.0151054046 0.0191530743 -0.155
v 0.0153211639 -0.00556976888 -0.158000002
v 0.0153211639 -0.00556976888 -0.155
v 0.0153211639 0.019004797 -0.158000002
v 0.0153211639 0.019004797 -0.155
v 0.0157447384 -0.00526201818 -0.158000002
v 0.0157447384 -0.00526201818 -0.155
v 0.0157447384 0.0186970463 -0.158000002
v 0.0157447384 0.0186970463 -0.155
v 0.0155342911 0.0188527718 -0.158000002
v 0.0155342911 0.0188527718 -0.155
v 0.0159524391 -0.00510264966 -0.158000002
v 0.0159524391 -0.00510264966 -0.155
v 0.0159524391 0.0185376778 -0.158000002
v 0.0159524391 0.0185376778 -0.155
v 0.0161573169 -0.00493967626 -0.158000002
v 0.0161573169 -0.00493967626 -0.155
v 0.0161573169 0.0183747044 -0.158000002
v 0.0161573169 0.0183747044 -0.155
v 0.0163593242 -0.00477315518 -0.158000002
v 0.0163593242 -0.00477315518 -0.155
v 0.0163593242 0.0182081833 -0.158000002
v 0.0163593242 0.0182081833 -0.155
v 0.0165584038 -0.00460312459 -0.158000002
v 0.0165584038 -0.00460312459 -0.155
v 0.0165584038 0.0180381623 -0.158000002
v 0.0165584038 0.0180381623 -0.155
v 0.0169474933 -0.00425279233 -0.158000002
v 0.0169474933 -0.00425279233 -0.155
v 0.0169474933 0.0176878205 -0.158000002
v 0.0169474933 0.0176878205 -0.155
v 0.0167544697 0.0178646889 -0.158000002
v 0.0167544697 0.0178646889 -0.155
v 0.017137389 -0.00407258603 -0.158000002
v 0.017137389 -0.00407258603 -0.155
v 0.017137389 0.0175076142 -0.158000002
v 0.017137389 0.0175076142 -0.155
v 0.0173241184 -0.00388908956 -0.158000002
v 0.0173241184 -0.00388908956 -0.155
v 0.0173241184 0.0173241177 -0.158000002
v 0.0173241184 0.0173241177 -0.155
v 0.0176878212 -0.00351246449 -0.158000002
v 0.0176878212 -0.00351246449 -0.155
v 0.0176878212 0.0169474926 -0.158000002
v 0.0176878212 0.0169474926 -0.155
v 0.0175076149 0.0171373883 -0.158000002
v 0.0175076149 0.0171373883 -0.155
v 0.0178646896 -0.00331944081 -0.158000002
v 0.0178646896 -0.00331944081 -0.155
v 0.0178646896 0.0167544689 -0.158000002
v 0.0178646896 0.0167544689 -0.155
v 0.0180381534 -0.00312337491 -0.158000002
v 0.0180381534 -0.00312337491 -0.155
v 0.018208184 -0.0029242954 -0.158000002
v 0.018208184 -0.0029242954 -0.155
v 0.018208184 0.0163593331 -0.158000002
v 0.018208184 0.0163593331 -0.155
v 0.0180381534 0.016558403 -0.158000002
v 0.0180381534 0.016558403 -0.155
v 0.0183747051 -0.0027222881 -0.158000002
v 0.0183747051 -0.0027222881 -0.155
v 0.0183747051 0.0161573162 -0.158000002
v 0.0183747051 0.0161573162 -0.155
v 0.0185376785 -0.00251741025 -0.158000002
v 0.0185376785 -0.00251741025 -0.155
v 0.018697047 -0.00230970952 -0.158000002
v 0.018697047 -0.00230970952 -0.155
v 0.018697047 0.0157447377 -0.158000002
v 0.018697047 0.0157447377 -0.155
v 0.0185376785 0.0159524384 -0.158000002
v 0.0185376785 0.0159524384 -0.155
v 0.0188527725 -0.00209926221 -0.158000002
v 0.0188527725 -0.00209926221 -0.155
v 0.0188527725 0.0155342903 -0.158000002
v 0.0188527725 0.0155342903 -0.155
v 0.0190047977 -0.00188613507 -0.158000002
v 0.0190047977 -0.00188613507 -0.155
v 0.019153075 -0.0016703758 -0.158000002
v 0.019153075 -0.0016703758 -0.155
v 0.019153075 0.0151054039 -0.158000002
v 0.019153075 0.0151054039 -0.155
v 0.0190047977 0.0153211632 -0.158000002
v 0.0190047977 0.0153211632 -0.155
v 0.0192975757 -0.00145207021 -0.158000002
v 0.0192975757 -0.00145207021 -0.155
v 0.0194382332 -0.00123127553 -0.158000002
v 0.0194382332 -0.00123127553 -0.155
v 0.0194382332 0.0146663037 -0.158000002
v 0.0194382332 0.0146663037 -0.155
v 0.0192975757 0.0148870983 -0.158000002
v 0.0192975757 0.0148870983 -0.155
v 0.0195750187 -0.00100805852 -0.158000002
v 0.0195750187 -0.00100805852 -0.155
v 0.0197079036 -0.000782485933 -0.158000002
v 0.0197079036 -0.000782485933 -0.155
v 0.0197079036 0.0142175141 -0.158000002
v 0.0197079036 0.0142175141 -0.155
v 0.0195750187 0.0144430867 -0.158000002
v 0.0195750187 0.0144430867 -0.155
v 0.0198368023 -0.000554634066 -0.158000002
v 0.0198368023 -0.000554634066 -0.155
v 0.0199617336 -0.000324560137 -0.158000002
v 0.0199617336 -0.000324560137 -0.155
v 0.0198368023 0.0139896622 -0.158000002
v 0.0198368023 0.0139896622 -0.155
v 0.0200826214 -9.23404409e-05 -0.158000002
v 0.0200826214 -9.23404409e-05 -0.155
v 0.0201994274 0.000141948728 -0.158000002
v 0.0201994274 0.000141948728 -0.155
v 0.0201994274 0.0132930794 -0.158000002
v 0.0201994274 0.0132930794 -0.155
v 0.0200826214 0.0135273686 -0.158000002
v 0.0200826214 0.0135273686 -0.155
v 0.0203121326 0.000378240614 -0.158000002
v 0.0203121326 0.000378240614 -0.155
v 0.0204206989 0.000616468458 -0.158000002
v 0.0204206989 0.000616468458 -0.155
v 0.0204206989 0.0128185597 -0.158000002
v 0.0204206989 0.0128185597 -0.155
v 0.0203121326 0.0130567875 -0.158000002
v 0.0203121326 0.0130567875 -0.155
v 0.0205250881 0.00085654643 -0.158000002
v 0.0205250881 0.00085654643 -0.155
v 0.0206252811 0.00109841731 -0.158000002
v 0.0206252811 0.00109841731 -0.155
v 0.0207212208 0.00134199527 -0.158000002
v 0.0207212208 0.00134199527 -0.155
v 0.0207212208 0.0120930329 -0.158000002
v 0.0207212208 0.0120930329 -0.155
v 0.0206252811 0.0123366108 -0.158000002
v 0.0206252811 0.0123366108 -0.155
v 0.0205250881 0.0125784817 -0.158000002
v 0.0205250881 0.0125784817 -0.155
v 0.020812907 0.00158721354 -0.158000002
v 0.020812907 0.00158721354 -0.155
v 0.0209003017 0.00183399585 -0.158000002
v 0.0209003017 0.00183399585 -0.155
v 0.0209833668 0.00208225635 -0.158000002
v 0.0209833668 0.00208225635 -0.155
v 0.0209833668 0.0113527718 -0.158000002
v 0.0209833668 0.0113527718 -0.155
v 0.0209003017 0.0116010323 -0.158000002
v 0.0209003017 0.0116010323 -0.155
v 0.020812907 0.0118478146 -0.158000002
v 0.020812907 0.0118478146 -0.155
v 0.021062083 0.00233193782 -0.158000002
v 0.021062083 0.00233193782 -0.155
v 0.0211364315 0.00258295444 -0.158000002
v 0.0211364315 0.00258295444 -0.155
v 0.021206393 0.0028352299 -0.158000002
v 0.021206393 0.0028352299 -0.155
v 0.021206393 0.0105997982 -0.158000002
v 0.021206393 0.0105997982 -0.155
v 0.0211364315 0.0108520737 -0.158000002
v 0.0211364315 0.0108520737 -0.155
v 0.021062083 0.0111030903 -0.158000002
v 0.021062083 0.0111030903 -0.155
v 0.0212719486 0.00308868793 -0.158000002
v 0.0212719486 0.00308868793 -0.155
v 0.02133306 0.00334325221 -0.158000002
v 0.02133306 0.00334325221 -0.155
v 0.0213897274 0.00359883693 -0.158000002
v 0.0213897274 0.00359883693 -0.155
v 0.0214419315 0.00385537532 -0.158000002
v 0.0214419315 0.00385537532 -0.155
v 0.0214896343 0.00411279109 -0.158000002
v 0.0214896343 0.00411279109 -0.155
v 0.0214896343 0.00932223704 -0.158000002
v 0.0214896343 0.00932223704 -0.155
v 0.0214419315 0.00957965281 -0.158000002
v 0.0214419315 0.00957965281 -0.155
v 0.0213897274 0.00983619121 -0.158000002
v 0.0213897274 0.00983619121 -0.155
v 0.02133306 0.0100917759 -0.158000002
v 0.02133306 0.0100917759 -0.155
v 0.0212719486 0.0103463402 -0.158000002
v 0.0212719486 0.0103463402 -0.155
v 0.0215328357 0.00437099841 -0.158000002
v 0.0215328357 0.00437099841 -0.155
v 0.0215715358 0.00462992099 -0.158000002
v 0.0215715358 0.00462992099 -0.155
v 0.0216057155 0.00488947299 -0.158000002
v 0.0216057155 0.00488947299 -0.155
v 0.0216353367 0.00514958766 -0.158000002
v 0.0216353367 0.00514958766 -0.155
v 0.0216604374 0.00541017917 -0.158000002
v 0.0216604374 0.00541017917 -0.155
v 0.0216809795 0.00567117122 -0.158000002
v 0.0216809795 0.00567117122 -0.155
v 0.0216969631 0.00593247798 -0.158000002
v 0.0216969631 0.00593247798 -0.155
v 0.021708369 0.00619402316 -0.158000002
v 0.021708369 0.00619402316 -0.155
v 0.0217152355 0.00645573047 -0.158000002
v 0.0217152355 0.00645573047 -0.155
v 0.0217175052 0.00671751407 -0.158000002
v 0.0217175052 0.00671751407 -0.155
v 0.0217152355 0.00697929767 -0.158000002
v 0.0217152355 0.00697929767 -0.155
v 0.021708369 0.00724100497 -0.158000002
v 0.021708369 0.00724100497 -0.155
v 0.0216969631 0.00750255015 -0.158000002
v 0.0216969631 0.00750255015 -0.155
v 0.0216809795 0.00776385692 -0.158000002
v 0.0216809795 0.00776385692 -0.155
v 0.0216604374 0.00802484897 -0.158000002
v 0.0216604374 0.00802484897 -0.155
v 0.0216353367 0.00828544047 -0.158000002
v 0.0216353367 0.00828544047 -0.155
v 0.0216057155 0.00854555514 -0.158000002
v 0.0216057155 0.00854555514 -0.155
v 0.0215715358 0.00880510715 -0.158000002
v 0.0215715358 0.00880510715 -0.155
v 0.0215328357 0.00906402972 -0.158000002
v 0.0215328357 0.00906402972 -0.155
f 1 2 3
f 1 30 2
f 3 341 1
f 29 30 1
f 1 337 29
f 1 341 337
f 3 2 4
f 338 4 2
f 334 2 30
f 338 2 334
f 3 4 5
f 5 345 3
f 3 345 341
f 5 4 6
f 342 6 4
f 342 4 338
f 5 6 7
f 7 349 5
f 5 349 345
f 7 6 8
f 346 8 6
f 346 6 342
f 7 8 9
f 9 353 7
f 7 353 349
f 9 8 10
f 350 10 8
f 350 8 346
f 9 10 11
f 11 357 9
f 9 357 353
f 11 10 12
f 354 12 10
f 354 10 350
f 11 12 13
f 13 361 11
f 11 361 357
f 13 12 14
f 358 14 12
f 358 12 354
f 13 14 31
f 31 365 13
f 13 365 361
f 31 14 32
f 362 32 14
f 362 14 358
f 15 16 17
f 15 54 16
f 17 309 15
f 53 54 15
f 15 305 53
f 15 309 305
f 17 16 18
f 306 18 16
f 302 16 54
f 306 16 302
f 17 18 19
f 19 313 17
f 17 313 309
f 19 18 20
f 310 20 18
f 310 18 306
f 19 20 21
f 21 317 19
f 19 317 313
f 21 20 22
f 314 22 20
f 314 20 310
f 21 22 23
f 23 321 21
f 21 321 317
f 23 22 24
f 318 24 22
f 318 22 314
f 23 24 25
f 25 325 23
f 23 325 321
f 25 24 26
f 322 26 24
f 322 24 318
f 25 26 27
f 27 329 25
f 25 329 325
f 27 26 28
f 326 28 26
f 326 26 322
f 27 28 29
f 29 333 27
f 27 333 329
f 29 28 30
f 330 30 28
f 330 28 326
f 29 337 333
f 334 30 330
f 31 32 33
f 33 369 31
f 31 369 365
f 33 32 34
f 366 34 32
f 366 32 362
f 33 34 35
f 35 373 33
f 33 373 369
f 35 34 36
f 370 36 34
f 370 34 366
f 35 36 37
f 37 377 35
f 35 377 373
f 37 36 38
f 374 38 36
f 374 36 370
f 37 38 39
f 39 381 37
f 37 381 377
f 39 38 40
f 378 40 38
f 378 38 374
f 39 40 41
f 41 385 39
f 39 385 381
f 41 40 42
f 382 42 40
f 382 40 378
f 41 42 43
f 43 389 41
f 41 389 385
f 43 42 44
f 386 44 42
f 386 42 382
f 43 44 45
f 45 393 43
f 43 393 389
f 45 44 46
f 390 46 44
f 390 44 386
f 45 46 55
f 55 397 45
f 45 397 393
f 55 46 56
f 394 56 46
f 394 46 390
f 47 48 49
f 47 68 48
f 49 293 47
f 67 68 47
f 47 289 67
f 47 293 289
f 49 48 50
f 290 50 48
f 286 48 68
f 290 48 286
f 49 50 51
f 51 297 49
f 49 297 293
f 51 50 52
f 294 52 50
f 294 50 290
f 51 52 53
f 53 301 51
f 51 301 297
f 53 52 54
f 298 54 52
f 298 52 294
f 53 305 301
f 302 54 298
f 55 56 57
f 57 401 55
f 55 401 397
f 57 56 58
f 398 58 56
f 398 56 394
f 57 58 59
f 59 405 57
f 57 405 401
f 59 58 60
f 402 60 58
f 402 58 398
f 59 60 61
f 61 409 59
f 59 409 405
f 61 60 62
f 406 62 60
f 406 60 402
f 61 62 69
f 69 413 61
f 61 413 409
f 69 62 70
f 410 70 62
f 410 62 406
f 63 64 65
f 63 80 64
f 65 281 63
f 79 80 63
f 63 277 79
f 63 281 277
f 65 64 66
f 278 66 64
f 274 64 80
f 278 64 274
f 65 66 67
f 67 285 65
f 65 285 281
f 67 66 68
f 282 68 66
f 282 66 278
f 67 289 285
f 286 68 282
f 69 70 71
f 71 417 69
f 69 417 413
f 71 70 72
f 414 72 70
f 414 70 410
f 71 72 73
f 73 421 71
f 71 421 417
f 73 72 74
f 418 74 72
f 418 72 414
f 73 74 81
f 81 425 73
f 73 425 421
f 81 74 82
f 422 82 74
f 422 74 418
f 75 76 77
f 75 90 76
f 77 269 75
f 89 90 75
f 75 265 89
f 75 269 265
f 77 76 78
f 266 78 76
f 262 76 90
f 266 76 262
f 77 78 79
f 79 273 77
f 77 273 269
f 79 78 80
f 270 80 78
f 270 78 266
f 79 277 273
f 274 80 270
f 81 82 83
f 83 429 81
f 81 429 425
f 83 82 84
f 426 84 82
f 426 82 422
f 83 84 85
f 85 433 83
f 83 433 429
f 85 84 86
f 430 86 84
f 430 84 426
f 85 86 91
f 91 437 85
f 85 437 433
f 91 86 92
f 434 92 86
f 434 86 430
f 87 88 89
f 87 100 88
f 89 261 87
f 99 100 87
f 87 257 99
f 87 261 257
f 89 88 90
f 258 90 88
f 254 88 100
f 258 88 254
f 89 265 261
f 262 90 258
f 91 92 93
f 93 441 91
f 91 441 437
f 93 92 94
f 438 94 92
f 438 92 434
f 93 94 101
f 101 445 93
f 93 445 441
f 101 94 102
f 442 102 94
f 442 94 438
f 95 96 97
f 95 110 96
f 97 249 95
f 109 110 95
f 95 245 109
f 95 249 245
f 97 96 98
f 246 98 96
f 242 96 110
f 246 96 242
f 97 98 99
f 99 253 97
f 97 253 249
f 99 98 100
f 250 100 98
f 250 98 246
f 99 257 253
f 254 100 250
f 101 102 103
f 103 449 101
f 101 449 445
f 103 102 104
f 446 104 102
f 446 102 442
f 103 104 105
f 105 453 103
f 103 453 449
f 105 104 106
f 450 106 104
f 450 104 446
f 105 106 111
f 111 457 105
f 105 457 453
f 111 106 112
f 454 112 106
f 454 106 450
f 107 108 109
f 107 118 108
f 109 241 107
f 117 118 107
f 107 237 117
f 107 241 237
f 109 108 110
f 238 110 108
f 234 108 118
f 238 108 234
f 109 245 241
f 242 110 238
f 111 112 113
f 113 461 111
f 111 461 457
f 113 112 114
f 458 114 112
f 458 112 454
f 113 114 119
f 119 463 113
f 113 463 461
f 119 114 120
f 462 120 114
f 462 114 458
f 115 116 117
f 115 124 116
f 117 233 115
f 123 124 115
f 115 229 123
f 115 233 229
f 117 116 118
f 230 118 116
f 224 116 124
f 230 116 224
f 117 237 233
f 234 118 230
f 119 120 121
f 121 467 119
f 119 467 463
f 121 120 122
f 464 122 120
f 464 120 462
f 121 122 125
f 125 471 121
f 121 471 467
f 125 122 126
f 468 126 122
f 468 122 464
f 123 130 124
f 129 130 123
f 123 223 129
f 123 229 223
f 220 124 130
f 224 124 220
f 125 126 127
f 127 475 125
f 125 475 471
f 127 126 128
f 472 128 126
f 472 126 468
f 127 128 131
f 131 479 127
f 127 479 475
f 131 128 132
f 476 132 128
f 476 128 472
f 129 136 130
f 135 136 129
f 129 219 135
f 129 223 219
f 216 130 136
f 220 130 216
f 131 132 137
f 137 483 131
f 131 483 479
f 137 132 138
f 480 138 132
f 480 132 476
f 133 134 135
f 133 144 134
f 135 215 133
f 143 144 133
f 133 211 143
f 133 215 211
f 135 134 136
f 212 136 134
f 208 134 144
f 212 134 208
f 135 219 215
f 216 136 212
f 137 138 139
f 139 487 137
f 137 487 483
f 139 138 140
f 484 140 138
f 484 138 480
f 139 140 145
f 145 491 139
f 139 491 487
f 145 140 146
f 488 146 140
f 488 140 484
f 141 142 143
f 141 148 142
f 143 207 141
f 147 148 141
f 141 203 147
f 141 207 203
f 143 142 144
f 204 144 142
f 196 142 148
f 204 142 196
f 143 211 207
f 208 144 204
f 145 146 149
f 149 497 145
f 145 497 491
f 149 146 150
f 492 150 146
f 492 146 488
f 147 154 148
f 153 154 147
f 147 195 153
f 147 203 195
f 198 148 154
f 196 148 198
f 149 150 155
f 155 501 149
f 149 501 497
f 155 150 156
f 498 156 150
f 498 150 492
f 151 152 153
f 151 160 152
f 153 197 151
f 159 160 151
f 151 191 159
f 151 197 191
f 153 152 154
f 192 154 152
f 188 152 160
f 192 152 188
f 153 195 197
f 198 154 192
f 155 156 157
f 157 505 155
f 155 505 501
f 157 156 158
f 502 158 156
f 502 156 498
f 157 158 161
f 161 509 157
f 157 509 505
f 161 158 162
f 506 162 158
f 506 158 502
f 159 166 160
f 165 166 159
f 159 187 165
f 159 191 187
f 184 160 166
f 188 160 184
f 161 162 167
f 167 513 161
f 161 513 509
f 167 162 168
f 510 168 162
f 510 162 506
f 163 164 165
f 163 170 164
f 165 183 163
f 169 170 163
f 163 177 169
f 163 183 177
f 165 164 166
f 178 166 164
f 180 164 170
f 178 164 180
f 165 187 183
f 184 166 178
f 167 168 171
f 171 519 167
f 167 519 513
f 171 168 172
f 514 172 168
f 514 168 510
f 169 174 170
f 173 174 169
f 169 179 173
f 169 177 179
f 180 170 174
f 171 172 175
f 523 171 175
f 519 171 523
f 175 172 176
f 520 176 172
f 520 172 514
f 173 180 174
f 179 180 173
f 175 176 181
f 527 175 181
f 523 175 527
f 181 176 182
f 524 182 176
f 524 176 520
f 177 178 179
f 177 184 178
f 183 184 177
f 179 178 180
f 181 182 185
f 533 181 185
f 527 181 533
f 185 182 186
f 182 528 186
f 528 182 524
f 183 188 184
f 187 188 183
f 185 186 189
f 537 185 189
f 533 185 537
f 189 186 190
f 186 534 190
f 186 528 534
f 187 192 188
f 191 192 187
f 189 190 193
f 539 189 193
f 537 189 539
f 193 190 194
f 190 538 194
f 190 534 538
f 191 198 192
f 197 198 191
f 193 194 199
f 545 193 199
f 539 193 545
f 199 194 200
f 194 540 200
f 194 538 540
f 195 196 197
f 195 204 196
f 203 204 195
f 197 196 198
f 199 200 201
f 549 199 201
f 545 199 549
f 201 200 202
f 200 546 202
f 200 540 546
f 201 202 205
f 551 201 205
f 549 201 551
f 205 202 206
f 202 550 206
f 202 546 550
f 203 208 204
f 207 208 203
f 205 206 209
f 557 205 209
f 551 205 557
f 209 206 210
f 206 552 210
f 206 550 552
f 207 212 208
f 211 212 207
f 209 210 213
f 561 209 213
f 557 209 561
f 213 210 214
f 210 558 214
f 210 552 558
f 211 216 212
f 215 216 211
f 213 214 217
f 563 213 217
f 561 213 563
f 217 214 218
f 214 562 218
f 214 558 562
f 215 220 216
f 219 220 215
f 217 218 221
f 569 217 221
f 563 217 569
f 221 218 222
f 218 564 222
f 218 562 564
f 219 224 220
f 223 224 219
f 221 222 225
f 571 221 225
f 569 221 571
f 225 222 226
f 222 570 226
f 222 564 570
f 223 230 224
f 229 230 223
f 225 226 227
f 577 225 227
f 571 225 577
f 227 226 228
f 226 572 228
f 226 570 572
f 227 228 231
f 579 227 231
f 577 227 579
f 231 228 232
f 228 578 232
f 228 572 578
f 229 234 230
f 233 234 229
f 231 232 235
f 585 231 235
f 579 231 585
f 235 232 236
f 232 580 236
f 232 578 580
f 233 238 234
f 237 238 233
f 235 236 239
f 587 235 239
f 585 235 587
f 239 236 240
f 236 586 240
f 236 580 586
f 237 242 238
f 241 242 237
f 239 240 243
f 591 239 243
f 587 239 591
f 243 240 244
f 240 588 244
f 240 586 588
f 241 246 242
f 245 246 241
f 243 244 247
f 593 243 247
f 591 243 593
f 247 244 248
f 244 592 248
f 244 588 592
f 245 250 246
f 249 250 245
f 247 248 251
f 599 247 251
f 593 247 599
f 251 248 252
f 248 594 252
f 248 592 594
f 249 254 250
f 253 254 249
f 251 252 255
f 601 251 255
f 599 251 601
f 255 252 256
f 252 600 256
f 252 594 600
f 253 258 254
f 257 258 253
f 255 256 259
f 607 255 259
f 601 255 607
f 259 256 260
f 256 602 260
f 256 600 602
f 257 262 258
f 261 262 257
f 259 260 263
f 609 259 263
f 607 259 609
f 263 260 264
f 260 608 264
f 260 602 608
f 261 266 262
f 265 266 261
f 263 264 267
f 611 263 267
f 609 263 611
f 267 264 268
f 264 610 268
f 264 608 610
f 265 270 266
f 269 270 265
f 267 268 271
f 619 267 271
f 611 267 619
f 271 268 272
f 268 612 272
f 268 610 612
f 269 274 270
f 273 274 269
f 271 272 275
f 621 271 275
f 619 271 621
f 275 272 276
f 272 620 276
f 272 612 620
f 273 278 274
f 277 278 273
f 275 276 279
f 623 275 279
f 621 275 623
f 279 276 280
f 276 622 280
f 276 620 622
f 277 282 278
f 281 282 277
f 279 280 283
f 631 279 283
f 623 279 631
f 283 280 284
f 280 624 284
f 280 622 624
f 281 286 282
f 285 286 281
f 283 284 287
f 633 283 287
f 631 283 633
f 287 284 288
f 284 632 288
f 284 624 632
f 285 290 286
f 289 290 285
f 287 288 291
f 635 287 291
f 633 287 635
f 291 288 292
f 288 634 292
f 288 632 634
f 289 294 290
f 293 294 289
f 291 292 295
f 643 291 295
f 635 291 643
f 295 292 296
f 292 636 296
f 292 634 636
f 293 298 294
f 297 298 293
f 295 296 299
f 645 295 299
f 643 295 645
f 299 296 300
f 296 644 300
f 296 636 644
f 297 302 298
f 301 302 297
f 299 300 303
f 647 299 303
f 645 299 647
f 303 300 304
f 300 646 304
f 300 644 646
f 301 306 302
f 305 306 301
f 303 304 307
f 649 303 307
f 647 303 649
f 307 304 308
f 304 648 308
f 304 646 648
f 305 310 306
f 309 310 305
f 307 308 311
f 651 307 311
f 649 307 651
f 311 308 312
f 308 650 312
f 308 648 650
f 309 314 310
f 313 314 309
f 311 312 315
f 663 311 315
f 651 311 663
f 315 312 316
f 312 652 316
f 312 650 652
f 313 318 314
f 317 318 313
f 315 316 319
f 665 315 319
f 663 315 665
f 319 316 320
f 316 664 320
f 316 652 664
f 317 322 318
f 321 322 317
f 319 320 323
f 667 319 323
f 665 319 667
f 323 320 324
f 320 666 324
f 320 664 666
f 321 326 322
f 325 326 321
f 323 324 327
f 669 323 327
f 667 323 669
f 327 324 328
f 324 668 328
f 324 666 668
f 325 330 326
f 329 330 325
f 327 328 331
f 671 327 331
f 669 327 671
f 331 328 332
f 328 670 332
f 328 668 670
f 329 334 330
f 333 334 329
f 331 332 335
f 673 331 335
f 671 331 673
f 335 332 336
f 332 672 336
f 332 670 672
f 333 338 334
f 337 338 333
f 335 336 339
f 675 335 339
f 673 335 675
f 339 336 340
f 336 674 340
f 336 672 674
f 337 342 338
f 341 342 337
f 339 340 343
f 677 339 343
f 675 339 677
f 343 340 344
f 340 676 344
f 340 674 676
f 341 346 342
f 345 346 341
f 343 344 347
f 679 343 347
f 677 343 679
f 347 344 348
f 344 678 348
f 344 676 678
f 345 350 346
f 349 350 345
f 347 348 351
f 681 347 351
f 679 347 681
f 351 348 352
f 348 680 352
f 348 678 680
f 349 354 350
f 353 354 349
f 351 352 355
f 683 351 355
f 681 351 683
f 355 352 356
f 352 682 356
f 352 680 682
f 353 358 354
f 357 358 353
f 355 356 359
f 685 355 359
f 683 355 685
f 359 356 360
f 356 684 360
f 356 682 684
f 357 362 358
f 361 362 357
f 359 360 363
f 687 359 363
f 685 359 687
f 363 360 364
f 360 686 364
f 360 684 686
f 361 366 362
f 365 366 361
f 363 364 367
f 689 363 367
f 687 363 689
f 367 364 368
f 364 688 368
f 364 686 688
f 365 370 366
f 369 370 365
f 367 368 371
f 691 367 371
f 689 367 691
f 371 368 372
f 368 690 372
f 368 688 690
f 369 374 370
f 373 374 369
f 371 372 375
f 693 371 375
f 691 371 693
f 375 372 376
f 372 692 376
f 372 690 692
f 373 378 374
f 377 378 373
f 375 376 379
f 695 375 379
f 693 375 695
f 379 376 380
f 376 694 380
f 376 692 694
f 377 382 378
f 381 382 377
f 379 380 383
f 697 379 383
f 695 379 697
f 383 380 384
f 380 696 384
f 380 694 696
f 381 386 382
f 385 386 381
f 383 384 387
f 699 383 387
f 697 383 699
f 387 384 388
f 384 698 388
f 384 696 698
f 385 390 386
f 389 390 385
f 387 388 391
f 653 387 391
f 699 387 653
f 391 388 392
f 388 700 392
f 388 698 700
f 389 394 390
f 393 394 389
f 391 392 395
f 655 391 395
f 653 391 655
f 395 392 396
f 392 654 396
f 392 700 654
f 393 398 394
f 397 398 393
f 395 396 399
f 657 395 399
f 655 395 657
f 399 396 400
f 396 656 400
f 396 654 656
f 397 402 398
f 401 402 397
f 399 400 403
f 659 399 403
f 657 399 659
f 403 400 404
f 400 658 404
f 400 656 658
f 401 406 402
f 405 406 401
f 403 404 407
f 661 403 407
f 659 403 661
f 407 404 408
f 404 660 408
f 404 658 660
f 405 410 406
f 409 410 405
f 407 408 411
f 637 407 411
f 661 407 637
f 411 408 412
f 408 662 412
f 408 660 662
f 409 414 410
f 413 414 409
f 411 412 415
f 639 411 415
f 637 411 639
f 415 412 416
f 412 638 416
f 412 662 638
f 413 418 414
f 417 418 413
f 415 416 419
f 641 415 419
f 639 415 641
f 419 416 420
f 416 640 420
f 416 638 640
f 417 422 418
f 421 422 417
f 419 420 423
f 625 419 423
f 641 419 625
f 423 420 424
f 420 642 424
f 420 640 642
f 421 426 422
f 425 426 421
f 423 424 427
f 627 423 427
f 625 423 627
f 427 424 428
f 424 626 428
f 424 642 626
f 425 430 426
f 429 430 425
f 427 428 431
f 629 427 431
f 627 427 629
f 431 428 432
f 428 628 432
f 428 626 628
f 429 434 430
f 433 434 429
f 431 432 435
f 613 431 435
f 629 431 613
f 435 432 436
f 432 630 436
f 432 628 630
f 433 438 434
f 437 438 433
f 435 436 439
f 615 435 439
f 613 435 615
f 439 436 440
f 436 614 440
f 436 630 614
f 437 442 438
f 441 442 437
f 439 440 443
f 617 439 443
f 615 439 617
f 443 440 444
f 440 616 444
f 440 614 616
f 441 446 442
f 445 446 441
f 443 444 447
f 603 443 447
f 617 443 603
f 447 444 448
f 444 618 448
f 444 616 618
f 445 450 446
f 449 450 445
f 447 448 451
f 605 447 451
f 603 447 605
f 451 448 452
f 448 604 452
f 448 618 604
f 449 454 450
f 453 454 449
f 451 452 455
f 595 451 455
f 605 451 595
f 455 452 456
f 452 606 456
f 452 604 606
f 453 458 454
f 457 458 453
f 455 456 459
f 597 455 459
f 595 455 597
f 459 456 460
f 456 596 460
f 456 606 596
f 457 462 458
f 461 462 457
f 459 460 465
f 589 459 465
f 597 459 589
f 465 460 466
f 460 598 466
f 460 596 598
f 461 464 462
f 463 464 461
f 463 468 464
f 467 468 463
f 465 466 469
f 581 465 469
f 589 465 581
f 469 466 470
f 466 590 470
f 466 598 590
f 467 472 468
f 471 472 467
f 469 470 473
f 583 469 473
f 581 469 583
f 473 470 474
f 470 582 474
f 470 590 582
f 471 476 472
f 475 476 471
f 473 474 477
f 573 473 477
f 583 473 573
f 477 474 478
f 474 584 478
f 474 582 584
f 475 480 476
f 479 480 475
f 477 478 481
f 575 477 481
f 573 477 575
f 481 478 482
f 478 574 482
f 478 584 574
f 479 484 480
f 483 484 479
f 481 482 485
f 565 481 485
f 575 481 565
f 485 482 486
f 482 576 486
f 482 574 576
f 483 488 484
f 487 488 483
f 485 486 489
f 567 485 489
f 565 485 567
f 489 486 490
f 486 566 490
f 486 576 566
f 487 492 488
f 491 492 487
f 489 490 495
f 559 489 495
f 567 489 559
f 495 490 496
f 490 568 496
f 490 566 568
f 491 498 492
f 497 498 491
f 493 496 494
f 493 494 499
f 495 496 493
f 553 495 493
f 555 493 499
f 553 493 555
f 496 560 494
f 499 494 500
f 494 554 500
f 494 560 554
f 559 495 553
f 496 568 560
f 497 502 498
f 501 502 497
f 499 500 503
f 547 499 503
f 555 499 547
f 503 500 504
f 500 556 504
f 500 554 556
f 501 506 502
f 505 506 501
f 503 504 507
f 541 503 507
f 547 503 541
f 507 504 508
f 504 548 508
f 504 556 548
f 505 510 506
f 509 510 505
f 507 508 511
f 543 507 511
f 541 507 543
f 511 508 512
f 508 542 512
f 508 548 542
f 509 514 510
f 513 514 509
f 511 512 517
f 535 511 517
f 543 511 535
f 517 512 518
f 512 544 518
f 512 542 544
f 513 520 514
f 519 520 513
f 515 518 516
f 515 516 521
f 517 518 515
f 529 517 515
f 531 515 521
f 529 515 531
f 518 536 516
f 521 516 522
f 516 530 522
f 516 536 530
f 535 517 529
f 518 544 536
f 519 524 520
f 523 524 519
f 521 522 525
f 531 521 525
f 525 522 526
f 522 532 526
f 522 530 532
f 523 528 524
f 527 528 523
f 525 526 531
f 531 526 532
f 527 534 528
f 533 534 527
f 529 532 530
f 529 530 535
f 531 532 529
f 535 530 536
f 533 538 534
f 537 538 533
f 535 536 543
f 543 536 544
f 537 540 538
f 539 540 537
f 539 546 540
f 545 546 539
f 541 544 542
f 541 542 547
f 543 544 541
f 547 542 548
f 545 550 546
f 549 550 545
f 547 548 555
f 555 548 556
f 549 552 550
f 551 552 549
f 551 558 552
f 557 558 551
f 553 556 554
f 553 554 559
f 555 556 553
f 559 554 560
f 557 562 558
f 561 562 557
f 559 560 567
f 567 560 568
f 561 564 562
f 563 564 561
f 563 570 564
f 569 570 563
f 565 568 566
f 565 566 575
f 567 568 565
f 575 566 576
f 569 572 570
f 571 572 569
f 571 578 572
f 577 578 571
f 573 576 574
f 573 574 583
f 575 576 573
f 583 574 584
f 577 580 578
f 579 580 577
f 579 586 580
f 585 586 579
f 581 584 582
f 581 582 589
f 583 584 581
f 589 582 590
f 585 588 586
f 587 588 585
f 587 592 588
f 591 592 587
f 589 590 597
f 597 590 598
f 591 594 592
f 593 594 591
f 593 600 594
f 599 600 593
f 595 598 596
f 595 596 605
f 597 598 595
f 605 596 606
f 599 602 600
f 601 602 599
f 601 608 602
f 607 608 601
f 603 606 604
f 603 604 617
f 605 606 603
f 617 604 618
f 607 610 608
f 609 610 607
f 609 612 610
f 611 612 609
f 611 620 612
f 619 620 611
f 613 616 614
f 613 614 629
f 615 616 613
f 629 614 630
f 615 618 616
f 617 618 615
f 619 622 620
f 621 622 619
f 621 624 622
f 623 624 621
f 623 632 624
f 631 632 623
f 625 628 626
f 625 626 641
f 627 628 625
f 641 626 642
f 627 630 628
f 629 630 627
f 631 634 632
f 633 634 631
f 633 636 634
f 635 636 633
f 635 644 636
f 643 644 635
f 637 640 638
f 637 638 661
f 639 640 637
f 661 638 662
f 639 642 640
f 641 642 639
f 643 646 644
f 645 646 643
f 645 648 646
f 647 648 645
f 647 650 648
f 649 650 647
f 649 652 650
f 651 652 649
f 651 664 652
f 663 664 651
f 653 656 654
f 653 654 699
f 655 656 653
f 699 654 700
f 655 658 656
f 657 658 655
f 657 660 658
f 659 660 657
f 659 662 660
f 661 662 659
f 663 666 664
f 665 666 663
f 665 668 666
f 667 668 665
f 667 670 668
f 669 670 667
f 669 672 670
f 671 672 669
f 671 674 672
f 673 674 671
f 673 676 674
f 675 676 673
f 675 678 676
f 677 678 675
f 677 680 678
f 679 680 677
f 679 682 680
f 681 682 679
f 681 684 682
f 683 684 681
f 683 686 684
f 685 686 683
f 685 688 686
f 687 688 685
f 687 690 688
f 689 690 687
f 689 692 690
f 691 692 689
f 691 694 692
f 693 694 691
f 693 696 694
f 695 696 693
f 695 698 696
f 697 698 695
f 697 700 698
f 699 700 697
