# CAD visual only; metres; body-local coordinates
v 0.051335955 -0.064770985 -0.0195
v 0.051335955 -0.064770985 0.0005
v 0.0517399792 -0.0651749996 -0.0156588359
v 0.0516737465 -0.0651087765 -0.0154863353
v 0.0515994076 -0.0650344376 -0.0152325292
v 0.0515669445 -0.0650019649 -0.0139176579
v 0.0516086773 -0.0650437073 -0.0137304564
v 0.0516861347 -0.0651211647 -0.0134785194
v 0.0517399792 -0.0651749996 -0.0056588335
v 0.0516737465 -0.0651087765 -0.00548633289
v 0.0515994076 -0.0650344376 -0.00523252678
v 0.0515669445 -0.0650019649 -0.00391765785
v 0.0516086773 -0.0650437073 -0.00373045635
v 0.0516861347 -0.0651211647 -0.00347851944
v 0.0515599922 -0.0649950127 -0.0150443239
v 0.0515474991 -0.0649825291 -0.0149678011
v 0.0515214447 -0.0649564747 -0.014735188
v 0.0515127281 -0.0649477581 -0.0145
v 0.0515245918 -0.0649596123 -0.0142257948
v 0.0515535072 -0.0649885372 -0.0139938612
v 0.0515599922 -0.0649950127 -0.00504432392
v 0.0515474991 -0.0649825291 -0.00496780109
v 0.0515214447 -0.0649564747 -0.00473519039
v 0.0515127281 -0.0649477581 -0.0045
v 0.0515245918 -0.0649596123 -0.00422579479
v 0.0515535072 -0.0649885372 -0.0039938612
v 0.0519985203 -0.0654335503 -0.0161185141
v 0.0519029812 -0.0653380112 -0.0159761329
v 0.0518165783 -0.0652516083 -0.0131774826
v 0.0519213871 -0.0653564075 -0.0129944582
v 0.0519985203 -0.0654335503 -0.00611851406
v 0.0519029812 -0.0653380112 -0.00597613049
v 0.0518165783 -0.0652516083 -0.0031774826
v 0.0519213871 -0.0653564075 -0.0029944582
v 0.0518004517 -0.0652354816 -0.0157905478
v 0.0517694 -0.06520443 -0.0157254381
v 0.0517544845 -0.0651895145 -0.013307683
v 0.0517847256 -0.0652197555 -0.0132418175
v 0.0518004517 -0.0652354816 -0.00579054546
v 0.0517694 -0.06520443 -0.00572543812
v 0.0517544845 -0.0651895145 -0.00330768299
v 0.0517847256 -0.0652197555 -0.00324181747
v 0.0522372059 -0.0656722359 -0.0163870091
v 0.0521024803 -0.0655375008 -0.0162485785
v 0.0520810512 -0.0655160812 -0.0127764006
v 0.052124205 -0.065559235 -0.0127269764
v 0.0522372059 -0.0656722359 -0.00638700676
v 0.0521024803 -0.0655375008 -0.00624857616
v 0.0520810512 -0.0655160812 -0.00277640057
v 0.052124205 -0.065559235 -0.00272697639
v 0.0520599369 -0.0654949669 -0.0161980958
v 0.0520186619 -0.0654536919 -0.012854454
v 0.0520599369 -0.0654949669 -0.00619809818
v 0.0520186619 -0.0654536919 -0.00285445404
v 0.0524820713 -0.0659171013 -0.016571135
v 0.0523567966 -0.0657918266 -0.0164866323
v 0.0523323921 -0.0657674221 -0.0125321074
v 0.0523814205 -0.0658164505 -0.0124952335
v 0.0524820713 -0.0659171013 -0.00657113743
v 0.0523567966 -0.0657918266 -0.00648663235
v 0.0523323921 -0.0657674221 -0.00253210735
v 0.0523814205 -0.0658164505 -0.00249523354
v 0.052308226 -0.065743256 -0.0164485569
v 0.0522606186 -0.0656956486 -0.0125918932
v 0.052308226 -0.065743256 -0.0064485569
v 0.0522606186 -0.0656956486 -0.0025918932
v 0.0527439121 -0.0803210739 -0.0105418892
v 0.052731686 -0.0803088573 -0.0104386063
v 0.0527110771 -0.0802882389 -0.0102312155
v 0.0526897911 -0.0802669529 -0.00991853905
v 0.0526820377 -0.0802591995 -0.00970939827
v 0.0526801018 -0.0802572636 -0.00939528656
v 0.0526852707 -0.0802624325 -0.00918598366
v 0.052695599 -0.0802727608 -0.00897706699
v 0.0527207474 -0.0802979092 -0.00866496277
v 0.0527439121 -0.0803210739 -0.00845811081
v 0.052745829 -0.0661808494 -0.0166923327
v 0.0525857452 -0.0660207752 -0.0123725815
v 0.052745829 -0.0661808494 -0.00669233036
v 0.0525857452 -0.0660207752 -0.00237258148
v 0.0525595669 -0.0659945969 -0.0166143079
v 0.0525077251 -0.0659427551 -0.0124138374
v 0.0525595669 -0.0659945969 -0.00661431026
v 0.0525077251 -0.0659427551 -0.00241383743
v 0.0529883865 -0.0805655483 -0.0117476387
v 0.0529353146 -0.0805124859 -0.00744787884
v 0.0529106048 -0.0804877666 -0.0114534111
v 0.0528438095 -0.0804209713 -0.0111538239
v 0.0528054813 -0.0803826431 -0.0109515305
v 0.0527721695 -0.0803493313 -0.010747468
v 0.0527574066 -0.0803345684 -0.00835514736
v 0.0527881912 -0.0803653625 -0.00815029335
v 0.0528240208 -0.0804011825 -0.00794708443
v 0.052864838 -0.0804419998 -0.00774576855
v 0.0529927353 -0.0664277653 -0.0167445202
v 0.0528274444 -0.0662624744 -0.0122841806
v 0.0529927353 -0.0664277653 -0.00674452019
v 0.0528274444 -0.0662624744 -0.00228418064
v 0.0528001408 -0.0662351707 -0.016708662
v 0.0527729324 -0.0662079624 -0.0122991676
v 0.0528001408 -0.0662351707 -0.00670866203
v 0.0527729324 -0.0662079624 -0.00229916763
v 0.0529677204 -0.063574324 -0.0150061388
v 0.052938805 -0.0635453991 -0.0147742052
v 0.0529271892 -0.0635337833 -0.0145392675
v 0.0529356579 -0.0635422615 -0.0142648096
v 0.0529617123 -0.0635683159 -0.0140321989
v 0.0529964641 -0.0636030582 -0.013842165
v 0.0529677204 -0.063574324 -0.0050061388
v 0.052938805 -0.0635453991 -0.00477420521
v 0.0529271892 -0.0635337833 -0.00453926754
v 0.0529356579 -0.0635422615 -0.00426480961
v 0.0529617123 -0.0635683159 -0.00403219891
v 0.0529964641 -0.0636030582 -0.00384216499
v 0.0527501682 -0.0633567718 -0.0195
v 0.0527501682 -0.0633567718 0.0005
v 0.0532478622 -0.080825024 -0.0125000019
v 0.0532114033 -0.0807885651 -0.0124088593
v 0.0531760696 -0.0807532314 -0.00668317032
v 0.0532478622 -0.080825024 -0.00649999809
v 0.0531418709 -0.0807190422 -0.0122239418
v 0.0530462555 -0.0806234173 -0.0119404192
v 0.0530167202 -0.0805938915 -0.00715561104
v 0.0530769543 -0.0806541256 -0.00696428967
v 0.0532423786 -0.0666774086 -0.0167414374
v 0.0531037239 -0.0665387443 -0.012250001
v 0.0532423786 -0.0666774086 -0.00674143982
v 0.0531037239 -0.0665387443 -0.00225000095
v 0.0530481914 -0.0664832214 -0.0167486305
v 0.0530204491 -0.066455479 -0.0122530813
v 0.0530481914 -0.0664832214 -0.00674863052
v 0.0530204491 -0.066455479 -0.00225308132
v 0.0531989387 -0.0638055424 -0.0157581849
v 0.0531541923 -0.0637607864 -0.0156588359
v 0.0531836132 -0.0637902168 -0.0132745619
v 0.0532473091 -0.0638539127 -0.013145916
v 0.0531989387 -0.0638055424 -0.00575818253
v 0.0531541923 -0.0637607864 -0.0056588335
v 0.0531836132 -0.0637902168 -0.00327456188
v 0.0532473091 -0.0638539127 -0.00314591599
v 0.0531003479 -0.0637069515 -0.0155214782
v 0.0530228905 -0.0636294941 -0.015269546
v 0.0530048088 -0.0636114124 -0.0151952882
v 0.0530136207 -0.0636202244 -0.0137674732
v 0.0530879597 -0.0636945633 -0.0135136671
v 0.053140097 -0.0637467007 -0.0133749981
v 0.0531003479 -0.0637069515 -0.00552148056
v 0.0530228905 -0.0636294941 -0.00526954365
v 0.0530048088 -0.0636114124 -0.00519529057
v 0.0530136207 -0.0636202244 -0.00376747322
v 0.0530879597 -0.0636945633 -0.00351366711
v 0.053140097 -0.0637467007 -0.00337499809
v 0.0534897236 -0.0810668949 -0.0130267115
v 0.0534467319 -0.0810238937 -0.0129414577
v 0.0534467319 -0.0810238937 -0.00605854225
v 0.0534897236 -0.0810668949 -0.00597328854
v 0.0534047893 -0.0809819511 -0.0128551598
v 0.0533241371 -0.0809012989 -0.0126795168
v 0.0532854465 -0.0808626083 -0.00640977097
v 0.0533639149 -0.0809410862 -0.00623216343
v 0.0534886173 -0.0669236473 -0.0166831656
v 0.0533251385 -0.0667601684 -0.0122718973
v 0.0534886173 -0.0669236473 -0.00668316555
v 0.0533251385 -0.0667601684 -0.00227189732
v 0.0532976154 -0.0667326454 -0.0167332287
v 0.0532700256 -0.0667050556 -0.0122623272
v 0.0532976154 -0.0667326454 -0.00673322868
v 0.0532700256 -0.0667050556 -0.00226232719
v 0.0534127335 -0.0640193371 -0.0161185141
v 0.0534952644 -0.064101868 -0.0127764006
v 0.0534127335 -0.0640193371 -0.00611851406
v 0.0534952644 -0.064101868 -0.00277640057
v 0.0533356003 -0.0639421944 -0.0160055442
v 0.0532642177 -0.0638708214 -0.0158852382
v 0.0533171944 -0.063923798 -0.0130238695
v 0.0533929352 -0.0639995388 -0.012909009
v 0.0533356003 -0.0639421944 -0.0060055418
v 0.0532642177 -0.0638708214 -0.00588524055
v 0.0533171944 -0.063923798 -0.00302386951
v 0.0533929352 -0.0639995388 -0.00290900898
v 0.0537201313 -0.0812973026 -0.0134363527
v 0.0537201313 -0.0812973026 -0.00556364727
v 0.053672047 -0.0812492088 -0.0133567257
v 0.053578854 -0.0811560158 -0.0131939669
v 0.0535337738 -0.0811109356 -0.0058891077
v 0.0536249451 -0.0812021068 -0.00572407913
v 0.053725367 -0.0671603969 -0.016571135
v 0.0535688785 -0.0670039085 -0.0123483152
v 0.053725367 -0.0671603969 -0.00657113743
v 0.0535688785 -0.0670039085 -0.00234831524
v 0.053542252 -0.0669772819 -0.016662838
v 0.0535155014 -0.0669505314 -0.0123266668
v 0.053542252 -0.0669772819 -0.00666283798
v 0.0535155014 -0.0669505314 -0.00232666683
v 0.0536514191 -0.0642580227 -0.0163870091
v 0.0537466053 -0.0643532089 -0.0125321074
v 0.0536514191 -0.0642580227 -0.00638700676
v 0.0537466053 -0.0643532089 -0.00253210735
v 0.0535384182 -0.0641450218 -0.0162730236
v 0.0535166935 -0.0641232876 -0.0162485785
v 0.0535166935 -0.0641232876 -0.0127514238
v 0.0536282638 -0.0642348675 -0.0126346655
v 0.0535384182 -0.0641450218 -0.00627302361
v 0.0535166935 -0.0641232876 -0.00624857616
v 0.0535166935 -0.0641232876 -0.00275142384
v 0.0536282638 -0.0642348675 -0.00263466549
v 0.0539749054 -0.0815520767 -0.0138160391
v 0.0539749054 -0.0815520767 -0.00518396091
v 0.0539221004 -0.0814992622 -0.0137426395
v 0.0537691978 -0.0813463596 -0.00548521709
v 0.0538108257 -0.0729027084 -0.0195
v 0.0538108257 -0.0729027084 0.0005
v 0.0538260178 -0.0672610382 -0.0165047641
v 0.0539933876 -0.0674284176 -0.0163653345
v 0.0538506416 -0.0672856716 -0.0125133677
v 0.0538260178 -0.0672610382 -0.0124952335
v 0.0538260178 -0.0672610382 -0.00650476646
v 0.0539933876 -0.0674284176 -0.00636533451
v 0.0538506416 -0.0672856716 -0.00251336765
v 0.0538260178 -0.0672610382 -0.00249523354
v 0.053801165 -0.067236195 -0.0165222855
v 0.0537508301 -0.0671858601 -0.0124445219
v 0.053801165 -0.067236195 -0.00652228546
v 0.0537508301 -0.0671858601 -0.0024445219
v 0.0538962845 -0.0645028881 -0.016571135
v 0.0539999584 -0.064606562 -0.0123725815
v 0.0538962845 -0.0645028881 -0.00657113743
v 0.0539999584 -0.064606562 -0.00237258148
v 0.0537956337 -0.0644022373 -0.0165047641
v 0.0537710098 -0.0643776134 -0.0164866323
v 0.0537710098 -0.0643776134 -0.0125133677
v 0.0538708214 -0.064477425 -0.0124445219
v 0.0537956337 -0.0644022373 -0.00650476646
v 0.0537710098 -0.0643776134 -0.00648663235
v 0.0537710098 -0.0643776134 -0.00251336765
v 0.0538708214 -0.064477425 -0.0024445219
v 0.0541949753 -0.0817721466 -0.0140962667
v 0.0541949753 -0.0817721466 -0.00490373325
v 0.0541386703 -0.0817158417 -0.0140282555
v 0.0540832142 -0.081660376 -0.0139588709
v 0.0540286259 -0.0816057877 -0.00511187744
v 0.0541386703 -0.0817158417 -0.00497174454
v 0.0540832333 -0.0675182632 -0.0162730236
v 0.0542481808 -0.0676832107 -0.0160629816
v 0.054104958 -0.0675399879 -0.0127514238
v 0.0540832333 -0.0675182632 -0.0127269764
v 0.0540832333 -0.0675182632 -0.00627302361
v 0.0542481808 -0.0676832107 -0.00606298161
v 0.054104958 -0.0675399879 -0.00275142384
v 0.0540832333 -0.0675182632 -0.00272697639
v 0.0540612034 -0.0674962334 -0.0162969298
v 0.0540162758 -0.0674513058 -0.0126569099
v 0.0540612034 -0.0674962334 -0.00629693222
v 0.0540162758 -0.0674513058 -0.00265690994
v 0.0541600422 -0.0647666363 -0.0166923327
v 0.0542416576 -0.0648482613 -0.0122841806
v 0.0541600422 -0.0647666363 -0.00669233036
v 0.0542416576 -0.0648482613 -0.00228418064
v 0.0540262894 -0.064632893 -0.0166398783
v 0.0541330341 -0.0647396377 -0.0123168344
v 0.0540262894 -0.064632893 -0.00663987827
v 0.0541330341 -0.0647396377 -0.00231683445
v 0.0544886211 -0.0820657829 -0.0144149132
v 0.0544283298 -0.0820055012 -0.00464589787
v 0.054368811 -0.0819459728 -0.0142918129
v 0.0543100647 -0.0818872265 -0.0142280645
v 0.0542521194 -0.0818292812 -0.00483712387
v 0.054368811 -0.0819459728 -0.0047081871
v 0.0544227127 -0.0678577427 -0.0157581849
v 0.0544952301 -0.0679302601 -0.0155908222
v 0.0544380382 -0.0678730682 -0.0132745619
v 0.0543224911 -0.067757521 -0.0130537291
v 0.0544227127 -0.0678577427 -0.00575818253
v 0.0544952301 -0.0679302601 -0.00559082222
v 0.0544380382 -0.0678730682 -0.00327456188
v 0.0543224911 -0.067757521 -0.00305372906
v 0.0542860512 -0.0677210812 -0.0160055442
v 0.0543044571 -0.0677394871 -0.0159761329
v 0.0543044571 -0.0677394871 -0.0130238695
v 0.0542672924 -0.0677023224 -0.0129655046
v 0.0542860512 -0.0677210812 -0.0060055418
v 0.0543044571 -0.0677394871 -0.00597613049
v 0.0543044571 -0.0677394871 -0.00302386951
v 0.0542672924 -0.0677023224 -0.00296550465
v 0.0544069485 -0.0650135521 -0.0167445202
v 0.0544901661 -0.0650967697 -0.0122503443
v 0.0544069485 -0.0650135521 -0.00674452019
v 0.0544901661 -0.0650967697 -0.00225034428
v 0.0542690472 -0.0648756508 -0.0167222996
v 0.0543792728 -0.0649858669 -0.0122585602
v 0.0542690472 -0.0648756508 -0.00672229958
v 0.0543792728 -0.0649858669 -0.00225856018
v 0.054736977 -0.0823141388 -0.0146430035
v 0.0546738342 -0.0822510055 -0.0044117136
v 0.0546113876 -0.0821885494 -0.0145320244
v 0.0545496372 -0.0821268085 -0.014474227
v 0.0545496372 -0.0821268085 -0.00452577305
v 0.0546113876 -0.0821885494 -0.00446797562
v 0.054598761 -0.068033791 -0.015269546
v 0.054653931 -0.068088961 -0.0150061388
v 0.0546828464 -0.0681178764 -0.0147742052
v 0.0546944717 -0.0681294922 -0.0145392675
v 0.0546859936 -0.0681210236 -0.0142648096
v 0.0546599392 -0.0680949692 -0.0140321989
v 0.0546080307 -0.0680430607 -0.0137674732
v 0.0545682339 -0.0680032638 -0.0136208553
v 0.054598761 -0.068033791 -0.00526954365
v 0.054653931 -0.068088961 -0.0050061388
v 0.0546828464 -0.0681178764 -0.00477420521
v 0.0546944717 -0.0681294922 -0.00453926754
v 0.0546859936 -0.0681210236 -0.00426480961
v 0.0546599392 -0.0680949692 -0.00403219891
v 0.0546080307 -0.0680430607 -0.00376747322
v 0.0545682339 -0.0680032638 -0.00362085533
v 0.0545213035 -0.0679563335 -0.0155214782
v 0.0545571617 -0.0679921917 -0.0154151578
v 0.0545336918 -0.0679687218 -0.0135136671
v 0.0545084766 -0.0679435066 -0.0134436913
v 0.0545213035 -0.0679563335 -0.00552148056
v 0.0545571617 -0.0679921917 -0.00541515541
v 0.0545336918 -0.0679687218 -0.00351366711
v 0.0545084766 -0.0679435066 -0.00344369125
v 0.0546566013 -0.0652631954 -0.0167414374
v 0.0547393516 -0.0653459553 -0.0122718973
v 0.0546566013 -0.0652631954 -0.00674143982
v 0.0547393516 -0.0653459553 -0.00227189732
v 0.0545179371 -0.0651245312 -0.016749999
v 0.0545179371 -0.0651245312 -0.012250001
v 0.0545179371 -0.0651245312 -0.00674999905
v 0.0545179371 -0.0651245312 -0.00225000095
v 0.0549959759 -0.0825731377 -0.0148460383
v 0.0549302963 -0.0825074581 -0.00420231533
v 0.0548652271 -0.0824423889 -0.0147477193
v 0.0548007778 -0.0823779396 -0.00430384827
v 0.0549028305 -0.0655094341 -0.0166831656
v 0.0549830917 -0.0655896953 -0.0123483152
v 0.0549028305 -0.0655094341 -0.00668316555
v 0.0549830917 -0.0655896953 -0.00234831524
v 0.0547668175 -0.0653734211 -0.0167222996
v 0.054875832 -0.0654824261 -0.0123076696
v 0.0547668175 -0.0653734211 -0.00672229958
v 0.054875832 -0.0654824261 -0.00230766964
v 0.0551964573 -0.0827736191 -0.0149812717
v 0.0551964573 -0.0827736191 -0.00401872826
v 0.0551290802 -0.082706242 -0.0149378462
v 0.0550622467 -0.0826394085 -0.004107234
v 0.0551650432 -0.0657716469 -0.0165554781
v 0.0552402309 -0.065846825 -0.0124952335
v 0.0551650432 -0.0657716469 -0.0065554781
v 0.0552402309 -0.065846825 -0.00249523354
v 0.0550095753 -0.0656161789 -0.0166398783
v 0.0551395801 -0.0657461838 -0.0124288626
v 0.0550095753 -0.0656161789 -0.00663987827
v 0.0551395801 -0.0657461838 -0.00242886257
v 0.0554710297 -0.0830481914 -0.0151381559
v 0.0554710297 -0.0830481914 -0.00386184406
v 0.0554016689 -0.0829788307 -0.0151014824
v 0.0552643684 -0.0828415302 -0.00397697163
v 0.0554076008 -0.0660142044 -0.0163653345
v 0.0554974464 -0.0661040501 -0.0127269764
v 0.0554076008 -0.0660142044 -0.00636533451
v 0.0554974464 -0.0661040501 -0.00272697639
v 0.0552648548 -0.0658714584 -0.0164866323
v 0.0553844456 -0.0659910492 -0.0126129932
v 0.0552648548 -0.0658714584 -0.00648663235
v 0.0553844456 -0.0659910492 -0.00261299324
v 0.0556816677 -0.0832588295 -0.0152378292
v 0.0556816677 -0.0832588295 -0.00376217079
v 0.0556110481 -0.0831882099 -0.0152063389
v 0.0555408291 -0.0831179909 -0.00382688713
v 0.0556623939 -0.0662689976 -0.0160629816
v 0.0557186703 -0.0663252739 -0.0159761329
v 0.0557367042 -0.0663433079 -0.0130537291
v 0.0557002643 -0.066306868 -0.0129944582
v 0.0556623939 -0.0662689976 -0.00606298161
v 0.0557186703 -0.0663252739 -0.00597613049
v 0.0557367042 -0.0663433079 -0.00305372906
v 0.0557002643 -0.066306868 -0.0029944582
v 0.0555191711 -0.0661257748 -0.0162485785
v 0.0556429294 -0.0662495331 -0.012909009
v 0.0555191711 -0.0661257748 -0.00624857616
v 0.0556429294 -0.0662495331 -0.00290900898
v 0.0559677128 -0.0835448746 -0.0153462214
v 0.0559677128 -0.0835448746 -0.00365378094
v 0.0558957104 -0.0834728722 -0.015321774
v 0.0557526688 -0.0833298305 -0.00373243046
v 0.0558957676 -0.0665023712 -0.0156249995
v 0.055947905 -0.0665545086 -0.0154863353
v 0.055993071 -0.0665996746 -0.0136571331
v 0.0559355167 -0.0665421204 -0.0134785194
v 0.0558957676 -0.0665023712 -0.00562500191
v 0.055947905 -0.0665545086 -0.00548633289
v 0.055993071 -0.0665996746 -0.0036571331
v 0.0559355167 -0.0665421204 -0.00347851944
v 0.0557543663 -0.0663609699 -0.0159159703
v 0.0558522514 -0.066458855 -0.0157254381
v 0.0558816818 -0.0664882759 -0.0133411665
v 0.0558369259 -0.0664435295 -0.0132418175
v 0.0557543663 -0.0663609699 -0.00591597271
v 0.0558522514 -0.066458855 -0.00572543812
v 0.0558816818 -0.0664882759 -0.0033411665
v 0.0558369259 -0.0664435295 -0.00324181747
v 0.0561853699 -0.0837625412 -0.0154088469
v 0.0561853699 -0.0837625412 -0.00359115314
v 0.0561125664 -0.0836897186 -0.0153897638
v 0.0560400013 -0.0836171631 -0.0036311121
v 0.0560032467 -0.0666098503 -0.0153063269
v 0.0560222439 -0.0666288475 -0.0152325292
v 0.0560741524 -0.066680756 -0.0149678011
v 0.0561002067 -0.0667068104 -0.014735188
v 0.0561089233 -0.066715527 -0.0145
v 0.0560970596 -0.0667036632 -0.0142257948
v 0.0560681442 -0.0666747478 -0.0139938612
v 0.0560129742 -0.0666195778 -0.0137304564
v 0.0560032467 -0.0666098503 -0.00530632687
v 0.0560222439 -0.0666288475 -0.00523252678
v 0.0560741524 -0.066680756 -0.00496780109
v 0.0561002067 -0.0667068104 -0.00473519039
v 0.0561089233 -0.066715527 -0.0045
v 0.0560970596 -0.0667036632 -0.00422579479
v 0.0560681442 -0.0666747478 -0.0039938612
v 0.0560129742 -0.0666195778 -0.00373045635
v 0.0564786152 -0.084055777 -0.0154671307
v 0.0564786152 -0.084055777 -0.00353286934
v 0.0564050487 -0.0839822105 -0.0154552765
v 0.0562584022 -0.0838355736 -0.0035738678
v 0.0567000488 -0.0842772201 -0.0154917784
v 0.0567000488 -0.0842772201 -0.00350822163
v 0.0566261486 -0.0842033104 -0.015485384
v 0.0565523247 -0.084129496 -0.00352283192
v 0.0566392521 -0.0700742821 -0.0195
v 0.0566392521 -0.0700742821 0.0005
v 0.0569961361 -0.0845732979 -0.0154990859
v 0.0569961361 -0.0845732979 -0.00350091171
v 0.0569220928 -0.0844992546 -0.015499999
v 0.0567740253 -0.0843511871 -0.00350365353
v 0.0569865517 -0.0760784344 -0.0105418892
v 0.0569633869 -0.0760552696 -0.0103350372
v 0.0569382385 -0.0760301212 -0.010022933
v 0.0569279102 -0.0760197929 -0.00981401634
v 0.0569220928 -0.0760139755 -0.0095
v 0.0569246773 -0.07601656 -0.00929060173
v 0.0569324306 -0.0760243133 -0.00908146095
v 0.0569537167 -0.0760455994 -0.00876878452
v 0.0569743256 -0.0760662083 -0.00856139374
v 0.0569865517 -0.0760784344 -0.00845811081
v 0.0572180466 -0.0847952179 -0.015485384
v 0.0572180466 -0.0847952179 -0.00351461601
v 0.0571441368 -0.0847213081 -0.0154917784
v 0.0570701603 -0.0846473221 -0.00350365353
v 0.0571779541 -0.0762698368 -0.0115521212
v 0.0572310261 -0.0763229088 -0.0072523613
v 0.0571074776 -0.0761993603 -0.0112542315
v 0.0570666603 -0.076158543 -0.0110529156
v 0.0570308308 -0.0761227135 -0.0108497066
v 0.0570000461 -0.0760919289 -0.0106448526
v 0.057014809 -0.0761066917 -0.00825253201
v 0.0570481209 -0.0761400036 -0.00804846954
v 0.057086449 -0.0761783317 -0.00784617615
v 0.0571532444 -0.0762451271 -0.0075465889
v 0.0574391464 -0.0850162987 -0.0154552765
v 0.0574391464 -0.0850162987 -0.00354472351
v 0.0573655704 -0.0849427322 -0.0154671307
v 0.0572918705 -0.0848690323 -0.00352283192
v 0.0574905018 -0.0765823845 -0.0125000019
v 0.0574187092 -0.0765105919 -0.0123168297
v 0.0574540428 -0.0765459255 -0.00659114075
v 0.0574905018 -0.0765823845 -0.00649999809
v 0.0573195938 -0.076411486 -0.0120357103
v 0.0572593693 -0.076351252 -0.011844389
v 0.057288895 -0.0763807777 -0.0070595808
v 0.0573845199 -0.0764764027 -0.0067760582
v 0.0577316288 -0.0853087906 -0.0153897638
v 0.0577316288 -0.0853087906 -0.00361023617
v 0.0576588253 -0.0852359871 -0.0154088469
v 0.0575125603 -0.0850897125 -0.00355838966
v 0.0577323727 -0.0768242554 -0.0130267115
v 0.0576893715 -0.0767812542 -0.0129414577
v 0.0576893715 -0.0767812542 -0.00605854225
v 0.0577323727 -0.0768242554 -0.00597328854
v 0.0576065544 -0.0766984371 -0.0127678366
v 0.0575280861 -0.0766199688 -0.012590229
v 0.0575667766 -0.0766586594 -0.00632048321
v 0.0576474289 -0.0767393116 -0.00614484024
v 0.0579484848 -0.0855256561 -0.015321774
v 0.0579484848 -0.0855256561 -0.00367822361
v 0.0578764824 -0.0854536537 -0.0153462214
v 0.0578041939 -0.0853813461 -0.0036311121
v 0.0579146866 -0.0770065693 -0.0133567257
v 0.0579627708 -0.0770546535 -0.00556364727
v 0.0578675846 -0.0769594673 -0.0132759209
v 0.0577764133 -0.076868296 -0.0131108923
v 0.0578214935 -0.0769133762 -0.00580603313
v 0.0578675846 -0.0769594673 -0.00572407913
v 0.058233147 -0.0858103088 -0.0152063389
v 0.058233147 -0.0858103088 -0.00379366112
v 0.0580915264 -0.0856686882 -0.0152675695
v 0.0581625275 -0.0857396797 -0.0152378292
v 0.0581625275 -0.0857396797 -0.00376217079
v 0.0580201725 -0.0855973343 -0.00370444489
v 0.0582175545 -0.0773094372 -0.0138160391
v 0.05816474 -0.0772566227 -0.0137426395
v 0.05816474 -0.0772566227 -0.00525736046
v 0.0582175545 -0.0773094372 -0.00518396091
v 0.0580118374 -0.0771037201 -0.0135147829
v 0.058112841 -0.0772047237 -0.00533204746
v 0.0580534653 -0.0686600689 -0.0195
v 0.0580534653 -0.0686600689 0.0005
v 0.0584425262 -0.0860196785 -0.0151014824
v 0.0584425262 -0.0860196785 -0.00389851761
v 0.0583731655 -0.0859503273 -0.0151381559
v 0.0583033661 -0.0858805374 -0.00382688713
v 0.0584376244 -0.0775295071 -0.0140962667
v 0.058494759 -0.0775866417 -0.00483712387
v 0.0583813099 -0.0774731926 -0.0140282555
v 0.0582712654 -0.0773631481 -0.0138881226
v 0.0583258537 -0.0774177364 -0.00504112911
v 0.0583813099 -0.0774731926 -0.00497174454
v 0.058715115 -0.0862922768 -0.0149378462
v 0.058715115 -0.0862922768 -0.00406215382
v 0.0585798267 -0.0861569885 -0.0150230284
v 0.0586477379 -0.0862248901 -0.0149812717
v 0.0586477379 -0.0862248901 -0.00401872826
v 0.0585114197 -0.086088591 -0.00393689823
v 0.0586709789 -0.0777628616 -0.0143541021
v 0.0587312607 -0.0778231434 -0.00458508682
v 0.0586114506 -0.0777033333 -0.0142918129
v 0.0585527042 -0.0776445869 -0.0142280645
v 0.0585527042 -0.0776445869 -0.00477193546
v 0.0586114506 -0.0777033333 -0.0047081871
v 0.058978968 -0.0865561394 -0.0147477193
v 0.058978968 -0.0865561394 -0.0042522831
v 0.0589138988 -0.0864910606 -0.0147976847
v 0.0587819485 -0.0863591103 -0.004107234
v 0.0589164833 -0.078008366 -0.0145882888
v 0.0589796165 -0.0780714992 -0.00435699654
v 0.0588540272 -0.0779459099 -0.0145320244
v 0.0587922863 -0.077884169 -0.014474227
v 0.0587922863 -0.077884169 -0.00452577305
v 0.0588540272 -0.0779459099 -0.00446797562
v 0.0592328075 -0.0868099693 -0.0145320244
v 0.0592328075 -0.0868099693 -0.00446797562
v 0.0591703514 -0.0867475227 -0.0145882888
v 0.0590434173 -0.0866205887 -0.00430384827
v 0.0591729359 -0.0782648186 -0.0147976847
v 0.0592386154 -0.0783304981 -0.00415395927
v 0.0590434173 -0.0781353001 -0.0146961517
v 0.0591078667 -0.0781997494 -0.0042522831
v 0.0594753841 -0.0870525459 -0.0142918129
v 0.0594753841 -0.0870525459 -0.0047081871
v 0.0594158558 -0.0869930176 -0.0143541021
v 0.0592945484 -0.0868717102 -0.00452577305
v 0.0594390968 -0.0785309795 -0.0149812717
v 0.0594390968 -0.0785309795 -0.00401872826
v 0.0593048862 -0.0783967689 -0.0148927636
v 0.0593717197 -0.0784636024 -0.00406215382
v 0.0597055153 -0.0872826866 -0.0140282555
v 0.0597055153 -0.0872826866 -0.00497174454
v 0.0596492103 -0.0872263817 -0.0140962667
v 0.0595341305 -0.0871112923 -0.00477193546
v 0.0597136692 -0.0788055519 -0.0151381559
v 0.0597136692 -0.0788055519 -0.00386184406
v 0.059507008 -0.0785988907 -0.0150230284
v 0.0596443085 -0.0787361912 -0.00389851761
v 0.0599739937 -0.087551165 -0.0136679525
v 0.0599739937 -0.087551165 -0.00533204746
v 0.0598692802 -0.0874464516 -0.0138160391
v 0.0599220947 -0.087499266 -0.0137426395
v 0.0599220947 -0.087499266 -0.00525736046
v 0.059760981 -0.0873381332 -0.00504112911
v 0.0599953083 -0.079087191 -0.0152675695
v 0.0599243072 -0.0790161899 -0.0152378292
v 0.0599243072 -0.0790161899 -0.00376217079
v 0.0599953083 -0.079087191 -0.00373243046
v 0.0597834686 -0.0788753513 -0.0151731105
v 0.0598536877 -0.0789455704 -0.00379366112
v 0.0602192501 -0.0877964119 -0.0132759209
v 0.0602192501 -0.0877964119 -0.00572407913
v 0.0600749878 -0.0876521591 -0.0135147829
v 0.0601721481 -0.0877493194 -0.0133567257
v 0.0601240543 -0.0877012161 -0.00556364727
v 0.0600249676 -0.0876021294 -0.00540800762
v 0.0602103523 -0.079302235 -0.0153462214
v 0.0602103523 -0.079302235 -0.00365378094
v 0.0600666622 -0.0791585449 -0.0152955551
v 0.0601383499 -0.0792302326 -0.00367822361
v 0.0604802708 -0.0880574325 -0.0127678366
v 0.0604394058 -0.0880165771 -0.00614484024
v 0.060354462 -0.0879316238 -0.0130267115
v 0.0603974632 -0.0879746345 -0.0129414577
v 0.0603974632 -0.0879746345 -0.00605854225
v 0.0602653412 -0.0878425125 -0.00580603313
v 0.0604280094 -0.0795198921 -0.0154088469
v 0.0604280094 -0.0795198921 -0.00359115314
v 0.0602826408 -0.0793745235 -0.0153688855
v 0.0603552059 -0.0794470886 -0.00361023617
v 0.0607353596 -0.0883125214 -0.012130229
v 0.0607023147 -0.0882794861 -0.0067760582
v 0.0605963329 -0.0881734947 -0.0125000019
v 0.0606681255 -0.0882452873 -0.0123168297
v 0.0606327919 -0.0882099632 -0.00659114075
v 0.0605200581 -0.0880972198 -0.00632048321
v 0.0607212643 -0.079813147 -0.0154671307
v 0.0607212643 -0.079813147 -0.00353286934
v 0.0605010418 -0.0795929245 -0.0154261298
v 0.0606476883 -0.079739571 -0.00354472351
v 0.0609793571 -0.0885565094 -0.0112542315
v 0.0609335903 -0.0885107521 -0.0075465889
v 0.0607672314 -0.0883443931 -0.0120357103
v 0.0608274654 -0.0884046272 -0.011844389
v 0.0609088711 -0.0884860329 -0.0115521212
v 0.0608557991 -0.0884329704 -0.0072523613
v 0.0607979397 -0.0883751015 -0.0070595808
v 0.0607672314 -0.0883443931 -0.00696428967
v 0.0609426979 -0.0800345806 -0.0154917784
v 0.0609426979 -0.0800345806 -0.00350822163
v 0.0607949642 -0.0798868469 -0.0154771681
v 0.0608687881 -0.0799606708 -0.00351461601
v 0.0610201744 -0.0885973457 -0.0110529156
v 0.0610559944 -0.0886331657 -0.0108497066
v 0.061100283 -0.0886774544 -0.0105418892
v 0.0611234478 -0.0887006096 -0.0103350372
v 0.0611485962 -0.0887257484 -0.010022933
v 0.0611589245 -0.0887360863 -0.00981401634
v 0.0611647324 -0.0887419037 -0.0095
v 0.0611621479 -0.0887393097 -0.00929060173
v 0.0611544041 -0.0887315658 -0.00908146095
v 0.0611331085 -0.0887102798 -0.00876878452
v 0.0611124996 -0.0886896614 -0.00856139374
v 0.0610720257 -0.0886491875 -0.00825253201
v 0.0610387138 -0.0886158852 -0.00804846954
v 0.0610003857 -0.0885775474 -0.00784617615
v 0.0611647324 -0.0802566151 -0.015499999
v 0.0612387852 -0.0803306679 -0.00350091171
v 0.0610166744 -0.0801085571 -0.0154963441
v 0.0610906891 -0.0801825718 -0.00350091171
v 0.0614606861 -0.0805525688 -0.015485384
v 0.0614606861 -0.0805525688 -0.00351461601
v 0.0613127998 -0.0804046825 -0.0154963441
v 0.0613867763 -0.080478659 -0.00350822163
v 0.061681786 -0.0807736687 -0.0154552765
v 0.061681786 -0.0807736687 -0.00354472351
v 0.06153451 -0.0806263927 -0.0154771681
v 0.06160821 -0.0807000927 -0.00353286934
v 0.0619742683 -0.081066151 -0.0153897638
v 0.0619742683 -0.081066151 -0.00361023617
v 0.0617551998 -0.0808470825 -0.015441608
v 0.0619014648 -0.0809933475 -0.00359115314
v 0.0621911243 -0.081283007 -0.015321774
v 0.0621911243 -0.081283007 -0.00367822361
v 0.0620468334 -0.0811387161 -0.0153688855
v 0.0621191219 -0.0812110046 -0.00365378094
v 0.0624757866 -0.0815676693 -0.0152063389
v 0.0624757866 -0.0815676693 -0.00379366112
v 0.062262812 -0.0813546947 -0.0152955551
v 0.062405167 -0.0814970497 -0.0152378292
v 0.062405167 -0.0814970497 -0.00376217079
v 0.0623341659 -0.0814260487 -0.00373243046
v 0.0626851658 -0.0817770485 -0.0151014824
v 0.0626851658 -0.0817770485 -0.00389851761
v 0.0625460056 -0.0816378883 -0.0151731105
v 0.062615805 -0.0817076878 -0.00386184406
v 0.0629577545 -0.0820496372 -0.0149378462
v 0.0629577545 -0.0820496372 -0.00406215382
v 0.0627540592 -0.0818459419 -0.0150631042
v 0.0628903774 -0.0819822601 -0.0149812717
v 0.0628903774 -0.0819822601 -0.00401872826
v 0.0628224663 -0.081914349 -0.00397697163
v 0.0632216076 -0.0823134903 -0.0147477193
v 0.0632216076 -0.0823134903 -0.0042522831
v 0.063024588 -0.0821164707 -0.0148927636
v 0.0631565384 -0.0822484211 -0.00420231533
v 0.0634129909 -0.0825048736 -0.0145882888
v 0.0634754471 -0.0825673298 -0.00446797562
v 0.0632860569 -0.0823779396 -0.0146961517
v 0.0633498577 -0.0824417404 -0.00435699654
v 0.0636584953 -0.082750378 -0.0143541021
v 0.0637180237 -0.0828099064 -0.0047081871
v 0.0635371879 -0.0826290707 -0.014474227
v 0.0635982136 -0.0826900963 -0.00458508682
v 0.0639481548 -0.0830400471 -0.0140282555
v 0.0639481548 -0.0830400471 -0.00497174454
v 0.06377677 -0.0828686527 -0.0142280645
v 0.0638918499 -0.0829837326 -0.00490373325
v 0.0641647343 -0.083256617 -0.0137426395
v 0.0642166332 -0.0833085159 -0.00533204746
v 0.0640036205 -0.0830955032 -0.0139588709
v 0.0641119198 -0.0832038025 -0.00518396091
v 0.0644147877 -0.0835066704 -0.0133567257
v 0.0644618896 -0.0835537723 -0.00572407913
v 0.0642676071 -0.0833594898 -0.0135919924
v 0.0643666939 -0.0834585766 -0.0134363527
v 0.0643666939 -0.0834585766 -0.00556364727
v 0.0643176369 -0.0834095196 -0.00548521709
v 0.0646820454 -0.0837739281 -0.0128551598
v 0.0647229103 -0.0838148025 -0.00623216343
v 0.0645079807 -0.0835998634 -0.0131939669
v 0.0646401028 -0.0837319855 -0.0129414577
v 0.0646401028 -0.0837319855 -0.00605854225
v 0.0645971016 -0.0836889938 -0.00597328854
v 0.0649107651 -0.0840026573 -0.0123168297
v 0.0649449543 -0.084036837 -0.0122239418
v 0.0649779991 -0.0840698723 -0.006869771
v 0.0649107651 -0.0840026573 -0.00668317032
v 0.0647626976 -0.0838545898 -0.0126795168
v 0.0648754314 -0.0839673141 -0.0124088593
v 0.0648754314 -0.0839673141 -0.00659114075
v 0.0648389725 -0.0839308456 -0.00649999809
v 0.0651762298 -0.0842681221 -0.0114534111
v 0.0652430252 -0.0843348984 -0.0111538239
v 0.0652430252 -0.0843348984 -0.00784617615
v 0.0652219967 -0.0843138794 -0.00774576855
v 0.0650098709 -0.0841017631 -0.0120357103
v 0.0650405792 -0.0841324715 -0.0119404192
v 0.0650984482 -0.0841903213 -0.0117476387
v 0.0651515106 -0.0842434029 -0.00744787884
v 0.065070105 -0.0841619972 -0.00715561104
v 0.0650098709 -0.0841017631 -0.00696428967
v 0.0652628139 -0.0843546966 -0.0110529156
v 0.0652813534 -0.0843732361 -0.0109515305
v 0.0653146652 -0.0844065575 -0.010747468
v 0.0653551392 -0.0844470314 -0.0104386063
v 0.0653757576 -0.0844676308 -0.0102312155
v 0.0653970436 -0.0844889168 -0.00991853905
v 0.065404797 -0.0844966797 -0.00970939827
v 0.0654067329 -0.0844986061 -0.00939528656
v 0.065401564 -0.0844934372 -0.00918598366
v 0.0653912357 -0.0844831184 -0.00897706699
v 0.0653660873 -0.0844579796 -0.00866496277
v 0.0653429226 -0.0844348053 -0.00845811081
v 0.0652986339 -0.0843905167 -0.00815029335
v 0.0652628139 -0.0843546966 -0.00794708443
v 0.0793373779 -0.0473761562 -0.0195
v 0.0793373779 -0.0473761562 0.0005
v 0.0824486545 -0.101540537 -0.0195
v 0.0824486545 -0.101540537 0.0005
v 0.0852770714 -0.0987121109 -0.0195
v 0.0852770714 -0.0987121109 0.0005
v 0.0866912941 -0.0972978882 -0.0195
v 0.0866912941 -0.0972978882 0.0005
v 0.0872457985 -0.100680819 -0.0148907084
v 0.0872303299 -0.100665369 -0.014735188
v 0.0872216133 -0.100656653 -0.0145
v 0.087233477 -0.100668517 -0.0142257948
v 0.0872457985 -0.100680819 -0.00489070606
v 0.0872303299 -0.100665369 -0.00473519039
v 0.0872216133 -0.100656653 -0.0045
v 0.087233477 -0.100668517 -0.00422579479
v 0.0874936203 -0.100928641 -0.0157581849
v 0.0874783043 -0.100913325 -0.0157254381
v 0.0873826317 -0.100817671 -0.0154863353
v 0.087317572 -0.100752592 -0.0137304564
v 0.0873950294 -0.10083005 -0.0134785194
v 0.0874936203 -0.100928641 -0.0132418175
v 0.0874936203 -0.100928641 -0.00575818253
v 0.0874783043 -0.100913325 -0.00572543812
v 0.0873826317 -0.100817671 -0.00548633289
v 0.087317572 -0.100752592 -0.00373045635
v 0.0873950294 -0.10083005 -0.00347851944
v 0.0874936203 -0.100928641 -0.00324181747
v 0.0873083023 -0.100743323 -0.0152325292
v 0.0872563843 -0.100691424 -0.0149678011
v 0.087250853 -0.100685873 -0.0140706797
v 0.0872623924 -0.100697432 -0.0139938612
v 0.0873083023 -0.100743323 -0.00523252678
v 0.0872563843 -0.100691424 -0.00496780109
v 0.087250853 -0.100685873 -0.00407067966
v 0.0872623924 -0.100697432 -0.0039938612
v 0.0877480225 -0.101183062 -0.0161720748
v 0.0876118759 -0.101046896 -0.0159761329
v 0.0875761894 -0.10101121 -0.0130840273
v 0.0876302818 -0.101065302 -0.0129944582
v 0.0877480225 -0.101183062 -0.00617207718
v 0.0876118759 -0.101046896 -0.00597613049
v 0.0875761894 -0.10101121 -0.00308402729
v 0.0876302818 -0.101065302 -0.0029944582
v 0.0875588898 -0.100993929 -0.0158852382
v 0.0875093559 -0.100944376 -0.0132094545
v 0.0875588898 -0.100993929 -0.00588524055
v 0.0875093559 -0.100944376 -0.00320945454
v 0.087993193 -0.101428213 -0.0164286275
v 0.0878331093 -0.10126813 -0.0127269764
v 0.087993193 -0.101428213 -0.00642862511
v 0.0878331093 -0.10126813 -0.00272697639
v 0.0878113655 -0.101246405 -0.0162485785
v 0.0877688316 -0.101203852 -0.0128019018
v 0.0878113655 -0.101246405 -0.00624857616
v 0.0877688316 -0.101203852 -0.00280190182
v 0.0882424454 -0.101677485 -0.0166005559
v 0.0880656914 -0.101500712 -0.0164866323
v 0.0880656914 -0.101500712 -0.0125133677
v 0.0880903152 -0.101525355 -0.0124952335
v 0.0882424454 -0.101677485 -0.00660055828
v 0.0880656914 -0.101500712 -0.00648663235
v 0.0880656914 -0.101500712 -0.00251336765
v 0.0880903152 -0.101525355 -0.00249523354
v 0.0880412773 -0.101476317 -0.016467895
v 0.0880171112 -0.101452151 -0.0125514431
v 0.0880412773 -0.101476317 -0.00646789265
v 0.0880171112 -0.101452151 -0.0025514431
v 0.0884818176 -0.101916857 -0.0167008324
v 0.0883209709 -0.101755991 -0.0123601217
v 0.0884818176 -0.101916857 -0.00670083237
v 0.0883209709 -0.101755991 -0.00236012173
v 0.0882946304 -0.10172967 -0.0166274161
v 0.0882684616 -0.101703482 -0.0123856897
v 0.0882946304 -0.10172967 -0.00662741852
v 0.0882684616 -0.101703482 -0.00238568974
v 0.0887293533 -0.102164374 -0.0167469163
v 0.088591185 -0.102026225 -0.0122718973
v 0.0887293533 -0.102164374 -0.00674691868
v 0.088591185 -0.102026225 -0.00227189732
v 0.0885637192 -0.101998759 -0.0167222996
v 0.0885090355 -0.101944056 -0.012291338
v 0.0885637192 -0.101998759 -0.00672229958
v 0.0885090355 -0.101944056 -0.00229133797
v 0.0887317757 -0.0993383888 -0.015269546
v 0.0886766151 -0.0992832092 -0.0150061388
v 0.0886476997 -0.0992542938 -0.0147742052
v 0.0886445526 -0.0992511467 -0.014735188
v 0.0886445526 -0.0992511467 -0.0142648096
v 0.088670607 -0.0992772011 -0.0140321989
v 0.0887225059 -0.0993291191 -0.0137674732
v 0.0887415031 -0.0993481163 -0.0136936731
v 0.0887317757 -0.0993383888 -0.00526954365
v 0.0886766151 -0.0992832092 -0.0050061388
v 0.0886476997 -0.0992542938 -0.00477420521
v 0.0886445526 -0.0992511467 -0.00473519039
v 0.0886445526 -0.0992511467 -0.00426480961
v 0.088670607 -0.0992772011 -0.00403219891
v 0.0887225059 -0.0993291191 -0.00376747322
v 0.0887415031 -0.0993481163 -0.00369367313
v 0.088636084 -0.0992426781 -0.0145392675
v 0.0886418823 -0.0992484955 -0.0143039007
v 0.088636084 -0.0992426781 -0.00453926754
v 0.0886418823 -0.0992484955 -0.00430390072
v 0.0889789108 -0.10241395 -0.0167376752
v 0.0888403801 -0.102275401 -0.0122503443
v 0.0889789108 -0.10241395 -0.00673767281
v 0.0888403801 -0.102275401 -0.00225034428
v 0.0888126091 -0.102247649 -0.016749999
v 0.0888126091 -0.102247649 -0.012250001
v 0.0888126091 -0.102247649 -0.00674999905
v 0.0888126091 -0.102247649 -0.00225000095
v 0.088907843 -0.0995144371 -0.0157581849
v 0.0889903931 -0.0995969871 -0.0130840273
v 0.088907843 -0.0995144371 -0.00575818253
v 0.0889903931 -0.0995969871 -0.00308402729
v 0.0888092331 -0.0994158462 -0.0155214782
v 0.0887516884 -0.0993582825 -0.0153428645
v 0.0887968544 -0.0994034485 -0.0135136671
v 0.0888925079 -0.099499102 -0.0132745619
v 0.0888092331 -0.0994158462 -0.00552148056
v 0.0887516884 -0.0993582825 -0.0053428669
v 0.0887968544 -0.0994034485 -0.00351366711
v 0.0888925079 -0.099499102 -0.00327456188
v 0.0892243866 -0.102659426 -0.0166733332
v 0.0890888885 -0.102523909 -0.0122841806
v 0.0892243866 -0.102659426 -0.00667333317
v 0.0890888885 -0.102523909 -0.00228418064
v 0.089061499 -0.102496519 -0.0167222996
v 0.0890065102 -0.102441531 -0.0122667713
v 0.089061499 -0.102496519 -0.00672229958
v 0.0890065102 -0.102441531 -0.00226677132
v 0.0892473129 -0.099853907 -0.0162730236
v 0.0891622452 -0.0997688393 -0.0161720748
v 0.0892255882 -0.0998321823 -0.0127514238
v 0.0892473129 -0.099853907 -0.0127269764
v 0.0892473129 -0.099853907 -0.00627302361
v 0.0891622452 -0.0997688393 -0.00617207718
v 0.0892255882 -0.0998321823 -0.00275142384
v 0.0892473129 -0.099853907 -0.00272697639
v 0.0890444855 -0.0996510986 -0.0160055442
v 0.0890080551 -0.0996146492 -0.0159462709
v 0.0890260986 -0.0996326927 -0.0130238695
v 0.0891417793 -0.0997483734 -0.012854454
v 0.0890444855 -0.0996510986 -0.0060055418
v 0.0890080551 -0.0996146492 -0.00594627094
v 0.0890260986 -0.0996326927 -0.00302386951
v 0.0891417793 -0.0997483734 -0.00285445404
v 0.0894849876 -0.102920027 -0.0165391917
v 0.0893305878 -0.102765608 -0.0123725815
v 0.0894849876 -0.102920027 -0.00653919411
v 0.0893305878 -0.102765608 -0.00237258148
v 0.0893042473 -0.102739287 -0.0166398783
v 0.0892511467 -0.102686186 -0.012337162
v 0.0893042473 -0.102739287 -0.00663987827
v 0.0892511467 -0.102686186 -0.00233716202
v 0.0894073967 -0.10001401 -0.0164286275
v 0.089479895 -0.100086508 -0.0125133677
v 0.0894073967 -0.10001401 -0.00642862511
v 0.089479895 -0.100086508 -0.00251336765
v 0.0892693428 -0.0998759369 -0.0162969298
v 0.0893837265 -0.0999903397 -0.0125918932
v 0.0892693428 -0.0998759369 -0.00629693222
v 0.0893837265 -0.0999903397 -0.0025918932
v 0.0897477631 -0.103182803 -0.0163202877
v 0.0895839409 -0.103018961 -0.0125321074
v 0.0897477631 -0.103182803 -0.0063202877
v 0.0895839409 -0.103018961 -0.00253210735
v 0.0895349029 -0.102969942 -0.0165047641
v 0.0895595459 -0.102994566 -0.0164866323
v 0.0895595459 -0.102994566 -0.0125133677
v 0.0895100502 -0.10294509 -0.0124777145
v 0.0895349029 -0.102969942 -0.00650476646
v 0.0895595459 -0.102994566 -0.00648663235
v 0.0895595459 -0.102994566 -0.00251336765
v 0.0895100502 -0.10294509 -0.00247771454
v 0.0896566681 -0.100263262 -0.0166005559
v 0.0897351746 -0.100341788 -0.0123601217
v 0.0896566681 -0.100263262 -0.00660055828
v 0.0897351746 -0.100341788 -0.00236012173
v 0.089504538 -0.100111132 -0.0165047641
v 0.0896308235 -0.100237437 -0.0124138374
v 0.089504538 -0.100111132 -0.00650476646
v 0.0896308235 -0.100237437 -0.00241383743
v 0.0899949554 -0.103429976 -0.0160055442
v 0.0898352722 -0.103270312 -0.0127764006
v 0.0899949554 -0.103429976 -0.0060055418
v 0.0898352722 -0.103270312 -0.00277640057
v 0.089792128 -0.103227148 -0.0162730236
v 0.0898138527 -0.103248892 -0.0162485785
v 0.0898138527 -0.103248892 -0.0127514238
v 0.0897700981 -0.103205119 -0.0127030678
v 0.089792128 -0.103227148 -0.00627302361
v 0.0898138527 -0.103248892 -0.00624857616
v 0.0898138527 -0.103248892 -0.00275142384
v 0.0897700981 -0.103205119 -0.00270306778
v 0.0898960403 -0.100502634 -0.0167008324
v 0.0899779419 -0.100584536 -0.0122777004
v 0.0898960403 -0.100502634 -0.00670083237
v 0.0899779419 -0.100584536 -0.00227770042
v 0.0897616676 -0.100368262 -0.0166516848
v 0.0898689369 -0.100475531 -0.0123076696
v 0.0897616676 -0.100368262 -0.00665168476
v 0.0898689369 -0.100475531 -0.00230766964
v 0.0901315979 -0.103566637 -0.0157581849
v 0.0902301887 -0.103665228 -0.0155214782
v 0.0902425865 -0.103677607 -0.0154863353
v 0.0902425865 -0.103677607 -0.0135136671
v 0.090146933 -0.103581953 -0.0132745619
v 0.0900663284 -0.103501349 -0.0131147594
v 0.0901315979 -0.103566637 -0.00575818253
v 0.0902301887 -0.103665228 -0.00552148056
v 0.0902425865 -0.103677607 -0.00548633289
v 0.0902425865 -0.103677607 -0.00351366711
v 0.090146933 -0.103581953 -0.00327456188
v 0.0900663284 -0.103501349 -0.00311475945
v 0.0900490478 -0.103484068 -0.0159159703
v 0.0900133423 -0.103448382 -0.0130238695
v 0.0900490478 -0.103484068 -0.00591597271
v 0.0900133423 -0.103448382 -0.00302386951
v 0.090143557 -0.10075017 -0.0167469163
v 0.0902268318 -0.100833426 -0.012250001
v 0.090143557 -0.10075017 -0.00674691868
v 0.0902268318 -0.100833426 -0.00225000095
v 0.0900054077 -0.100612002 -0.0167281027
v 0.0901158432 -0.100722437 -0.0122554798
v 0.0900054077 -0.100612002 -0.00672810268
v 0.0901158432 -0.100722437 -0.00225547981
v 0.0903628258 -0.103797846 -0.0150061388
v 0.0903917412 -0.103826781 -0.0147742052
v 0.0904033569 -0.103838396 -0.0145392675
v 0.0903948883 -0.103829909 -0.0142648096
v 0.0903688339 -0.103803854 -0.0140321989
v 0.0903169159 -0.103751955 -0.0137674732
v 0.0903628258 -0.103797846 -0.0050061388
v 0.0903917412 -0.103826781 -0.00477420521
v 0.0904033569 -0.103838396 -0.00453926754
v 0.0903948883 -0.103829909 -0.00426480961
v 0.0903688339 -0.103803854 -0.00403219891
v 0.0903169159 -0.103751955 -0.00376747322
v 0.0903076462 -0.103742686 -0.015269546
v 0.0902545456 -0.103689566 -0.0135491104
v 0.0903076462 -0.103742686 -0.00526954365
v 0.0902545456 -0.103689566 -0.00354911041
v 0.0904207138 -0.101027327 -0.0167332287
v 0.0904757027 -0.101082316 -0.0122777004
v 0.0904207138 -0.101027327 -0.00673322868
v 0.0904757027 -0.101082316 -0.00227770042
v 0.0902545837 -0.100861197 -0.0167496581
v 0.0903931335 -0.100999728 -0.0122623272
v 0.0902545837 -0.100861197 -0.00674965572
v 0.0903931335 -0.100999728 -0.00226232719
v 0.090580378 -0.104015398 -0.0195
v 0.090580378 -0.104015398 0.0005
v 0.0906653694 -0.101271963 -0.016662838
v 0.0907448105 -0.101351405 -0.0123725815
v 0.0906653694 -0.101271963 -0.00666283798
v 0.0907448105 -0.101351405 -0.00237258148
v 0.0905030922 -0.101109705 -0.016715817
v 0.0906386093 -0.101245203 -0.0123266668
v 0.0905030922 -0.101109705 -0.00671581936
v 0.0906386093 -0.101245203 -0.00232666683
v 0.0908992103 -0.101505804 -0.0165391917
v 0.0909737495 -0.101580344 -0.0164866323
v 0.0909981445 -0.101604758 -0.0125321074
v 0.0909491257 -0.10155572 -0.0124952335
v 0.0908992103 -0.101505804 -0.00653919411
v 0.0909737495 -0.101580344 -0.00648663235
v 0.0909981445 -0.101604758 -0.00253210735
v 0.0909491257 -0.10155572 -0.00249523354
v 0.0907709793 -0.101377573 -0.0166143079
v 0.090873938 -0.101480532 -0.0124445219
v 0.0907709793 -0.101377573 -0.00661431026
v 0.090873938 -0.101480532 -0.0024445219
v 0.0911619858 -0.10176858 -0.0163202877
v 0.0912280754 -0.101834669 -0.0162485785
v 0.0912494949 -0.101856089 -0.0127764006
v 0.0912063316 -0.101812945 -0.0127269764
v 0.0911619858 -0.10176858 -0.0063202877
v 0.0912280754 -0.101834669 -0.00624857616
v 0.0912494949 -0.101856089 -0.00277640057
v 0.0912063316 -0.101812945 -0.00272697639
v 0.0910223297 -0.101628924 -0.0164485569
v 0.0911393837 -0.101745978 -0.0126569099
v 0.0910223297 -0.101628924 -0.0064485569
v 0.0911393837 -0.101745978 -0.00265690994
v 0.0914091591 -0.102015772 -0.0160055442
v 0.091427565 -0.102034159 -0.0159761329
v 0.0914974502 -0.102104044 -0.013145916
v 0.0914091591 -0.102015772 -0.0129944582
v 0.0914091591 -0.102015772 -0.0060055418
v 0.091427565 -0.102034159 -0.00597613049
v 0.0914974502 -0.102104044 -0.00314591599
v 0.0914091591 -0.102015772 -0.0029944582
v 0.0912706093 -0.101877203 -0.0161980958
v 0.0913904098 -0.101997004 -0.0129655046
v 0.0912706093 -0.101877203 -0.00619809818
v 0.0913904098 -0.101997004 -0.00296550465
v 0.0916444115 -0.102251006 -0.0155214782
v 0.0916567902 -0.102263403 -0.0154863353
v 0.0917311386 -0.102337733 -0.0152325292
v 0.0917483047 -0.102354899 -0.013842165
v 0.0917218689 -0.102328463 -0.0137304564
v 0.0916444115 -0.102251006 -0.0134785194
v 0.0916444115 -0.102251006 -0.00552148056
v 0.0916567902 -0.102263403 -0.00548633289
v 0.0917311386 -0.102337733 -0.00523252678
v 0.0917483047 -0.102354899 -0.00384216499
v 0.0917218689 -0.102328463 -0.00373045635
v 0.0916444115 -0.102251006 -0.00347851944
v 0.0915139679 -0.102120562 -0.0158225174
v 0.0915611366 -0.10216775 -0.0157254381
v 0.0916315941 -0.102238188 -0.0134436913
v 0.0915458206 -0.102152415 -0.0132418175
v 0.0915139679 -0.102120562 -0.0058225174
v 0.0915611366 -0.10216775 -0.00572543812
v 0.0916315941 -0.102238188 -0.00344369125
v 0.0915458206 -0.102152415 -0.00324181747
v 0.0919946007 -0.102601195 -0.0195
v 0.0919946007 -0.102601195 0.0005
v 0.0917561821 -0.102362776 -0.0151201839
v 0.0917830566 -0.102389651 -0.0149678011
v 0.0918090919 -0.102415705 -0.014735188
v 0.0918178085 -0.102424422 -0.0145
v 0.0918059639 -0.102412558 -0.0142257948
v 0.0917770294 -0.102383643 -0.0139938612
v 0.0917561821 -0.102362776 -0.00512018394
v 0.0917830566 -0.102389651 -0.00496780109
v 0.0918090919 -0.102415705 -0.00473519039
v 0.0918178085 -0.102424422 -0.0045
v 0.0918059639 -0.102412558 -0.00422579479
v 0.0917770294 -0.102383643 -0.0039938612
v 0.107975207 -0.0760139755 -0.0195
v 0.107975207 -0.0760139755 0.0005
f 1 23 2
f 2 116 1
f 1 3 4
f 1 36 3
f 1 4 5
f 1 5 15
f 15 16 1
f 16 17 1
f 17 18 1
f 18 23 1
f 1 27 28
f 1 51 27
f 1 28 35
f 35 36 1
f 43 44 1
f 63 43 1
f 1 44 51
f 1 55 56
f 1 81 55
f 56 63 1
f 1 77 81
f 1 99 77
f 1 95 99
f 1 129 95
f 1 116 115
f 1 115 431
f 1 125 129
f 1 165 125
f 1 161 165
f 1 191 161
f 431 191 1
f 2 12 13
f 2 26 12
f 2 13 14
f 2 14 41
f 2 23 24
f 24 25 2
f 25 26 2
f 2 33 34
f 2 42 33
f 2 34 54
f 41 42 2
f 49 50 2
f 2 54 49
f 50 66 2
f 2 61 62
f 66 61 2
f 2 62 84
f 2 84 80
f 2 80 102
f 2 102 98
f 2 98 132
f 116 2 508
f 2 132 128
f 128 168 2
f 2 168 164
f 164 194 2
f 2 194 432
f 508 2 432
f 3 141 4
f 36 134 3
f 3 134 141
f 4 142 5
f 4 141 142
f 5 103 15
f 5 143 103
f 5 142 143
f 7 10 6
f 6 144 7
f 6 10 11
f 6 11 20
f 20 108 6
f 6 108 144
f 8 9 7
f 7 145 8
f 7 9 10
f 7 144 145
f 8 40 9
f 37 40 8
f 8 135 37
f 8 146 135
f 8 145 146
f 9 147 10
f 40 138 9
f 9 138 147
f 10 148 11
f 10 147 148
f 20 11 21
f 11 109 21
f 11 149 109
f 11 148 149
f 12 150 13
f 26 114 12
f 12 114 150
f 13 151 14
f 13 150 151
f 14 139 41
f 14 152 139
f 14 151 152
f 15 103 16
f 16 104 17
f 16 103 104
f 17 105 18
f 17 104 105
f 19 22 18
f 18 106 19
f 18 22 23
f 18 105 106
f 20 21 19
f 19 107 20
f 19 21 22
f 19 106 107
f 20 107 108
f 21 109 22
f 22 110 23
f 22 109 110
f 23 111 24
f 23 110 111
f 24 112 25
f 24 111 112
f 25 113 26
f 25 112 113
f 26 113 114
f 27 173 28
f 51 169 27
f 27 169 173
f 28 133 35
f 28 174 133
f 28 173 174
f 30 31 29
f 29 175 30
f 29 31 32
f 29 32 38
f 38 136 29
f 29 136 175
f 30 53 31
f 52 53 30
f 30 170 52
f 30 176 170
f 30 175 176
f 31 177 32
f 53 171 31
f 31 171 177
f 38 32 39
f 32 137 39
f 32 178 137
f 32 177 178
f 33 179 34
f 42 140 33
f 33 140 179
f 34 172 54
f 34 180 172
f 34 179 180
f 35 133 36
f 36 133 134
f 38 39 37
f 37 135 38
f 37 39 40
f 38 135 136
f 39 137 40
f 40 137 138
f 41 139 42
f 42 139 140
f 43 199 44
f 63 195 43
f 43 195 199
f 44 169 51
f 44 200 169
f 44 199 200
f 46 47 45
f 45 201 46
f 45 47 48
f 45 48 52
f 52 170 45
f 45 170 201
f 46 65 47
f 64 65 46
f 46 196 64
f 46 202 196
f 46 201 202
f 47 203 48
f 65 197 47
f 47 197 203
f 52 48 53
f 48 171 53
f 48 204 171
f 48 203 204
f 49 205 50
f 54 172 49
f 49 172 205
f 50 198 66
f 50 206 198
f 50 205 206
f 55 229 56
f 81 225 55
f 55 225 229
f 56 195 63
f 56 230 195
f 56 229 230
f 58 59 57
f 57 231 58
f 57 59 60
f 57 60 64
f 64 196 57
f 57 196 231
f 58 83 59
f 82 83 58
f 58 226 82
f 58 232 226
f 58 231 232
f 59 233 60
f 83 227 59
f 59 227 233
f 64 60 65
f 60 197 65
f 60 234 197
f 60 233 234
f 61 235 62
f 66 198 61
f 61 198 235
f 62 228 84
f 62 236 228
f 62 235 236
f 67 76 68
f 438 67 68
f 67 91 76
f 90 91 67
f 437 90 67
f 437 67 438
f 68 75 69
f 439 68 69
f 68 76 75
f 438 68 439
f 69 74 70
f 440 69 70
f 69 75 74
f 439 69 440
f 70 73 71
f 441 70 71
f 70 74 73
f 440 70 441
f 71 73 72
f 442 71 72
f 441 71 442
f 443 72 73
f 442 72 443
f 444 73 74
f 443 73 444
f 445 74 75
f 444 74 445
f 446 75 76
f 445 75 446
f 457 76 91
f 446 76 457
f 77 225 81
f 99 255 77
f 77 259 225
f 77 255 259
f 78 79 82
f 78 101 79
f 82 226 78
f 100 101 78
f 78 256 100
f 78 226 260
f 78 260 256
f 82 79 83
f 79 227 83
f 101 257 79
f 79 261 227
f 79 257 261
f 84 228 80
f 80 258 102
f 80 228 262
f 80 262 258
f 85 86 87
f 85 123 86
f 453 85 87
f 122 123 85
f 451 122 85
f 451 85 453
f 87 86 94
f 452 94 86
f 471 86 123
f 452 86 471
f 87 94 88
f 454 87 88
f 453 87 454
f 88 93 89
f 455 88 89
f 88 94 93
f 454 88 455
f 89 92 90
f 456 89 90
f 89 93 92
f 455 89 456
f 90 92 91
f 456 90 437
f 458 91 92
f 457 91 458
f 459 92 93
f 458 92 459
f 460 93 94
f 459 93 460
f 460 94 452
f 95 255 99
f 129 285 95
f 95 289 255
f 95 285 289
f 96 97 100
f 96 131 97
f 100 256 96
f 130 131 96
f 96 286 130
f 96 256 290
f 96 290 286
f 100 97 101
f 97 257 101
f 131 287 97
f 97 291 257
f 97 287 291
f 102 258 98
f 98 288 132
f 98 258 292
f 98 292 288
f 104 103 115
f 115 103 143
f 105 104 115
f 106 105 115
f 111 107 106
f 111 106 116
f 116 106 115
f 110 108 107
f 110 107 111
f 109 108 110
f 109 144 108
f 149 144 109
f 116 112 111
f 113 112 116
f 114 113 116
f 116 150 114
f 134 133 115
f 115 133 174
f 141 134 115
f 115 142 141
f 115 143 142
f 173 169 115
f 115 169 200
f 115 174 173
f 115 199 195
f 115 195 230
f 200 199 115
f 229 225 115
f 115 225 259
f 115 230 229
f 115 259 255
f 115 255 289
f 115 289 285
f 115 285 327
f 115 327 323
f 115 323 339
f 115 339 335
f 115 335 507
f 431 115 507
f 140 139 116
f 139 152 116
f 116 179 140
f 116 151 150
f 116 152 151
f 172 180 116
f 116 205 172
f 116 180 179
f 116 198 206
f 116 235 198
f 206 205 116
f 228 236 116
f 116 262 228
f 116 236 235
f 116 258 262
f 116 292 258
f 116 288 292
f 116 330 288
f 116 326 330
f 116 342 326
f 116 338 342
f 508 338 116
f 117 120 118
f 466 117 118
f 117 159 120
f 158 159 117
f 465 158 117
f 465 117 466
f 118 120 119
f 118 119 121
f 469 118 121
f 466 118 469
f 468 119 120
f 121 119 124
f 467 124 119
f 467 119 468
f 483 120 159
f 468 120 483
f 121 124 122
f 470 121 122
f 469 121 470
f 122 124 123
f 470 122 451
f 472 123 124
f 471 123 472
f 472 124 467
f 125 285 129
f 165 323 125
f 125 327 285
f 125 323 327
f 126 127 130
f 127 126 167
f 130 286 126
f 167 126 166
f 126 324 166
f 126 286 328
f 126 328 324
f 130 127 131
f 127 287 131
f 167 325 127
f 127 329 287
f 127 325 329
f 132 288 128
f 128 326 168
f 128 288 330
f 128 330 326
f 138 136 135
f 138 135 147
f 147 135 146
f 137 136 138
f 137 175 136
f 178 175 137
f 149 145 144
f 148 146 145
f 148 145 149
f 147 146 148
f 153 156 154
f 478 153 154
f 153 185 156
f 184 185 153
f 477 184 153
f 477 153 478
f 154 156 155
f 154 155 157
f 481 154 157
f 478 154 481
f 480 155 156
f 157 155 160
f 479 160 155
f 479 155 480
f 493 156 185
f 480 156 493
f 157 160 158
f 482 157 158
f 481 157 482
f 158 160 159
f 482 158 465
f 484 159 160
f 483 159 484
f 484 160 479
f 161 323 165
f 191 335 161
f 161 339 323
f 161 335 339
f 163 166 162
f 163 162 193
f 166 324 162
f 193 162 192
f 162 336 192
f 162 324 340
f 162 340 336
f 167 166 163
f 163 325 167
f 193 337 163
f 163 341 325
f 163 337 341
f 168 326 164
f 164 338 194
f 164 326 342
f 164 342 338
f 171 170 177
f 171 201 170
f 177 170 176
f 204 201 171
f 178 176 175
f 177 176 178
f 181 182 183
f 181 210 182
f 489 181 183
f 209 210 181
f 489 209 181
f 183 182 186
f 490 186 182
f 506 182 210
f 490 182 506
f 183 186 184
f 492 183 184
f 489 183 491
f 491 183 492
f 184 186 185
f 492 184 477
f 494 185 186
f 493 185 494
f 494 186 490
f 187 335 191
f 431 187 191
f 221 347 187
f 221 187 431
f 187 351 335
f 187 347 351
f 189 192 188
f 189 188 223
f 192 336 188
f 223 188 222
f 188 352 222
f 188 336 352
f 193 192 189
f 189 337 193
f 223 349 189
f 189 353 337
f 189 349 353
f 194 338 190
f 432 194 190
f 190 354 224
f 190 224 432
f 190 338 354
f 197 196 203
f 197 231 196
f 203 196 202
f 234 231 197
f 204 202 201
f 203 202 204
f 207 208 209
f 207 241 208
f 502 207 209
f 240 241 207
f 501 240 207
f 501 207 502
f 209 208 210
f 504 210 208
f 517 208 241
f 504 208 517
f 505 209 489
f 502 209 505
f 503 210 504
f 506 210 503
f 432 211 212
f 211 441 212
f 431 211 432
f 735 211 431
f 437 438 211
f 211 456 437
f 211 438 439
f 211 439 440
f 211 440 441
f 211 451 453
f 211 470 451
f 211 453 454
f 211 454 455
f 455 456 211
f 211 465 466
f 482 465 211
f 466 469 211
f 469 470 211
f 211 477 478
f 492 477 211
f 211 478 481
f 211 481 482
f 489 491 211
f 211 505 489
f 211 491 492
f 501 502 211
f 211 516 501
f 211 502 505
f 211 513 515
f 528 513 211
f 515 516 211
f 211 525 527
f 211 538 525
f 211 527 528
f 535 537 211
f 211 547 535
f 211 537 538
f 211 545 547
f 555 545 211
f 211 553 555
f 563 553 211
f 561 563 211
f 211 575 561
f 211 571 572
f 211 585 571
f 572 575 211
f 211 583 585
f 211 595 583
f 211 593 595
f 211 605 593
f 211 603 605
f 617 603 211
f 211 615 617
f 635 615 211
f 211 633 635
f 639 633 211
f 211 637 639
f 643 637 211
f 211 641 643
f 647 641 211
f 735 647 211
f 212 738 432
f 212 441 442
f 442 443 212
f 212 443 444
f 212 444 445
f 212 445 446
f 212 446 457
f 212 460 452
f 212 452 471
f 212 457 458
f 458 459 212
f 212 459 460
f 467 468 212
f 212 472 467
f 212 468 483
f 212 471 472
f 479 480 212
f 212 484 479
f 212 480 493
f 483 484 212
f 212 494 490
f 490 506 212
f 493 494 212
f 212 503 504
f 506 503 212
f 212 504 517
f 212 518 514
f 212 514 529
f 212 517 518
f 530 526 212
f 212 526 539
f 212 529 530
f 212 540 536
f 536 548 212
f 539 540 212
f 212 548 546
f 212 546 556
f 556 554 212
f 212 554 564
f 212 564 562
f 212 562 576
f 212 573 574
f 212 576 573
f 574 586 212
f 212 586 584
f 584 596 212
f 212 596 594
f 594 606 212
f 606 604 212
f 212 604 618
f 618 616 212
f 212 616 636
f 636 634 212
f 212 634 640
f 212 640 638
f 212 638 644
f 212 644 642
f 212 642 648
f 212 648 736
f 212 736 738
f 214 363 213
f 431 214 213
f 213 347 221
f 213 221 431
f 213 363 347
f 251 359 214
f 431 251 214
f 214 359 363
f 218 216 215
f 216 348 215
f 218 215 253
f 253 215 252
f 215 360 252
f 215 348 364
f 215 364 360
f 217 216 218
f 217 222 216
f 222 348 216
f 218 365 217
f 223 222 217
f 217 349 223
f 217 365 349
f 253 361 218
f 218 361 365
f 220 350 219
f 432 220 219
f 219 362 254
f 432 219 254
f 219 350 366
f 219 366 362
f 224 350 220
f 224 220 432
f 222 352 348
f 224 354 350
f 227 226 233
f 227 260 226
f 233 226 232
f 261 260 227
f 234 232 231
f 233 232 234
f 237 238 239
f 237 267 238
f 515 237 239
f 266 267 237
f 513 266 237
f 513 237 515
f 239 238 242
f 514 242 238
f 514 238 267
f 239 242 240
f 516 239 240
f 515 239 516
f 240 242 241
f 516 240 501
f 518 241 242
f 517 241 518
f 518 242 514
f 244 379 243
f 244 243 431
f 243 359 251
f 431 243 251
f 243 379 359
f 277 371 244
f 431 277 244
f 244 371 379
f 248 246 245
f 246 360 245
f 248 245 281
f 281 245 280
f 245 374 280
f 245 360 380
f 245 380 374
f 247 246 248
f 247 252 246
f 252 360 246
f 248 381 247
f 253 252 247
f 247 361 253
f 247 381 361
f 281 375 248
f 248 375 381
f 250 362 249
f 250 249 432
f 249 378 284
f 432 249 284
f 249 362 382
f 249 382 378
f 254 362 250
f 432 254 250
f 257 256 261
f 257 290 256
f 261 256 260
f 291 290 257
f 263 264 265
f 263 297 264
f 527 263 265
f 296 297 263
f 525 296 263
f 525 263 527
f 265 264 268
f 526 268 264
f 539 264 297
f 526 264 539
f 265 268 266
f 528 265 266
f 527 265 528
f 266 268 267
f 528 266 513
f 530 267 268
f 514 267 529
f 529 267 530
f 530 268 526
f 270 396 269
f 270 269 431
f 269 372 278
f 431 269 278
f 269 395 372
f 269 396 395
f 315 387 270
f 431 315 270
f 270 387 396
f 274 272 271
f 272 398 271
f 274 271 319
f 319 271 318
f 271 390 318
f 271 397 390
f 271 398 397
f 273 272 274
f 273 279 272
f 279 373 272
f 272 373 398
f 274 400 273
f 282 279 273
f 273 376 282
f 273 399 376
f 273 400 399
f 319 391 274
f 274 391 400
f 276 402 275
f 276 275 432
f 275 394 322
f 432 275 322
f 275 401 394
f 275 402 401
f 283 377 276
f 432 283 276
f 276 377 402
f 278 372 277
f 431 278 277
f 277 372 371
f 282 280 279
f 280 374 279
f 279 374 373
f 281 280 282
f 282 376 281
f 281 376 375
f 284 378 283
f 432 284 283
f 283 378 377
f 287 286 291
f 286 287 328
f 291 286 290
f 328 287 329
f 293 294 295
f 293 334 294
f 537 293 295
f 333 334 293
f 535 333 293
f 535 293 537
f 295 294 298
f 536 298 294
f 548 294 334
f 536 294 548
f 295 298 296
f 538 295 296
f 537 295 538
f 296 298 297
f 538 296 525
f 540 297 298
f 539 297 540
f 540 298 536
f 300 408 299
f 431 300 299
f 299 388 316
f 431 299 316
f 299 407 388
f 299 408 407
f 301 409 300
f 301 300 431
f 300 409 408
f 302 410 301
f 302 301 431
f 301 410 409
f 303 411 302
f 303 302 431
f 302 411 410
f 304 412 303
f 431 304 303
f 303 412 411
f 309 305 304
f 305 413 304
f 309 304 432
f 304 413 412
f 432 304 431
f 308 306 305
f 306 414 305
f 308 305 309
f 305 414 413
f 307 306 308
f 307 317 306
f 317 389 306
f 306 389 414
f 308 416 307
f 320 317 307
f 307 392 320
f 307 415 392
f 307 416 415
f 309 417 308
f 308 417 416
f 310 418 309
f 432 310 309
f 309 418 417
f 311 419 310
f 432 311 310
f 310 419 418
f 312 420 311
f 312 311 432
f 311 420 419
f 313 421 312
f 313 312 432
f 312 421 420
f 314 422 313
f 432 314 313
f 313 422 421
f 321 393 314
f 432 321 314
f 314 393 422
f 316 388 315
f 431 316 315
f 315 388 387
f 320 318 317
f 318 390 317
f 317 390 389
f 319 318 320
f 320 392 319
f 319 392 391
f 322 394 321
f 432 322 321
f 321 394 393
f 324 329 325
f 324 325 340
f 328 329 324
f 340 325 341
f 331 332 333
f 331 346 332
f 547 331 333
f 345 346 331
f 545 345 331
f 545 331 547
f 333 332 334
f 546 334 332
f 556 332 346
f 546 332 556
f 547 333 535
f 548 334 546
f 335 351 507
f 336 341 337
f 336 337 352
f 340 341 336
f 352 337 353
f 354 338 508
f 343 344 345
f 343 358 344
f 555 343 345
f 357 358 343
f 553 357 343
f 553 343 555
f 345 344 346
f 554 346 344
f 564 344 358
f 554 344 564
f 555 345 545
f 556 346 554
f 351 347 507
f 507 347 363
f 348 353 349
f 348 349 364
f 352 353 348
f 364 349 365
f 350 354 508
f 508 366 350
f 355 356 357
f 355 370 356
f 563 355 357
f 369 370 355
f 561 369 355
f 561 355 563
f 357 356 358
f 562 358 356
f 576 356 370
f 562 356 576
f 563 357 553
f 564 358 562
f 507 363 359
f 359 379 507
f 360 365 361
f 360 361 380
f 364 365 360
f 380 361 381
f 508 362 366
f 382 362 508
f 367 368 369
f 367 386 368
f 575 367 369
f 385 386 367
f 572 385 367
f 572 367 575
f 369 368 370
f 573 370 368
f 574 368 386
f 573 368 574
f 575 369 561
f 576 370 573
f 507 371 372
f 507 379 371
f 372 395 507
f 374 375 373
f 373 375 376
f 373 376 398
f 374 381 375
f 380 381 374
f 398 376 399
f 508 377 378
f 402 377 508
f 508 378 382
f 383 384 385
f 383 406 384
f 585 383 385
f 405 406 383
f 583 405 383
f 583 383 585
f 385 384 386
f 584 386 384
f 596 384 406
f 584 384 596
f 571 385 572
f 585 385 571
f 574 386 586
f 586 386 584
f 507 387 388
f 396 387 507
f 388 407 507
f 390 391 389
f 389 391 392
f 389 392 414
f 390 400 391
f 397 400 390
f 414 392 415
f 508 393 394
f 422 393 508
f 394 401 508
f 395 396 507
f 398 399 397
f 397 399 400
f 401 402 508
f 403 404 405
f 403 426 404
f 595 403 405
f 425 426 403
f 593 425 403
f 593 403 595
f 405 404 406
f 594 406 404
f 606 404 426
f 594 404 606
f 595 405 583
f 596 406 594
f 507 407 408
f 408 409 507
f 409 410 507
f 410 411 507
f 507 411 412
f 413 416 412
f 412 416 417
f 412 417 507
f 414 415 413
f 413 415 416
f 508 417 418
f 507 417 508
f 508 418 419
f 419 420 508
f 420 421 508
f 508 421 422
f 423 424 425
f 423 430 424
f 605 423 425
f 429 430 423
f 603 429 423
f 603 423 605
f 425 424 426
f 604 426 424
f 618 424 430
f 604 424 618
f 605 425 593
f 606 426 604
f 427 428 429
f 427 436 428
f 617 427 429
f 435 436 427
f 615 435 427
f 615 427 617
f 429 428 430
f 616 430 428
f 636 428 436
f 616 428 636
f 617 429 603
f 618 430 616
f 737 431 507
f 735 431 737
f 432 740 508
f 432 738 740
f 433 434 435
f 434 433 450
f 633 433 435
f 450 433 449
f 633 449 433
f 435 434 436
f 634 436 434
f 640 434 450
f 634 434 640
f 635 435 615
f 633 435 635
f 636 436 634
f 448 449 447
f 448 447 464
f 639 447 449
f 464 447 463
f 637 463 447
f 637 447 639
f 450 449 448
f 638 450 448
f 644 448 464
f 638 448 644
f 639 449 633
f 640 450 638
f 462 463 461
f 462 461 476
f 643 461 463
f 476 461 475
f 641 475 461
f 641 461 643
f 464 463 462
f 642 464 462
f 648 462 476
f 642 462 648
f 643 463 637
f 644 464 642
f 474 475 473
f 474 473 488
f 647 473 475
f 488 473 487
f 645 487 473
f 645 473 647
f 476 475 474
f 646 476 474
f 652 474 488
f 646 474 652
f 647 475 641
f 648 476 646
f 486 487 485
f 486 485 500
f 651 485 487
f 500 485 497
f 649 497 485
f 649 485 651
f 488 487 486
f 650 488 486
f 658 486 500
f 650 486 658
f 651 487 645
f 652 488 650
f 496 498 495
f 496 495 512
f 656 495 498
f 512 495 511
f 653 511 495
f 653 495 656
f 499 498 496
f 654 499 496
f 662 496 512
f 654 496 662
f 499 497 498
f 655 498 497
f 500 497 499
f 655 497 649
f 656 498 655
f 657 500 499
f 657 499 654
f 658 500 657
f 508 734 507
f 507 734 733
f 739 507 733
f 737 507 739
f 508 1066 734
f 508 740 1066
f 510 511 509
f 510 509 524
f 661 509 511
f 524 509 521
f 659 521 509
f 659 509 661
f 512 511 510
f 660 512 510
f 668 510 524
f 660 510 668
f 661 511 653
f 662 512 660
f 520 522 519
f 520 519 534
f 666 519 522
f 534 519 533
f 663 533 519
f 663 519 666
f 523 522 520
f 664 523 520
f 672 520 534
f 664 520 672
f 523 521 522
f 665 522 521
f 524 521 523
f 665 521 659
f 666 522 665
f 667 524 523
f 667 523 664
f 668 524 667
f 532 533 531
f 532 531 544
f 671 531 533
f 544 531 543
f 669 543 531
f 669 531 671
f 534 533 532
f 670 534 532
f 676 532 544
f 670 532 676
f 671 533 663
f 672 534 670
f 542 543 541
f 542 541 552
f 673 541 543
f 552 541 551
f 673 551 541
f 544 543 542
f 674 544 542
f 680 542 552
f 674 542 680
f 675 543 669
f 673 543 675
f 676 544 674
f 550 551 549
f 550 549 560
f 677 549 551
f 560 549 559
f 677 559 549
f 552 551 550
f 678 552 550
f 684 550 560
f 678 550 684
f 679 551 673
f 677 551 679
f 680 552 678
f 558 559 557
f 558 557 570
f 683 557 559
f 570 557 567
f 681 567 557
f 681 557 683
f 560 559 558
f 682 560 558
f 688 558 570
f 682 558 688
f 683 559 677
f 684 560 682
f 566 568 565
f 566 565 582
f 685 565 568
f 582 565 579
f 685 579 565
f 569 568 566
f 686 569 566
f 694 566 582
f 686 566 694
f 569 567 568
f 687 568 567
f 570 567 569
f 687 567 681
f 685 568 687
f 686 570 569
f 688 570 686
f 578 580 577
f 578 577 592
f 689 577 580
f 592 577 589
f 689 589 577
f 581 580 578
f 690 581 578
f 700 578 592
f 690 578 700
f 581 579 580
f 691 580 579
f 582 579 581
f 691 579 685
f 689 580 692
f 692 580 691
f 693 582 581
f 693 581 690
f 694 582 693
f 588 590 587
f 588 587 602
f 698 587 590
f 602 587 599
f 695 599 587
f 695 587 698
f 591 590 588
f 696 591 588
f 708 588 602
f 696 588 708
f 591 589 590
f 697 590 589
f 592 589 591
f 697 589 689
f 698 590 697
f 699 592 591
f 699 591 696
f 700 592 699
f 598 600 597
f 598 597 614
f 701 597 600
f 614 597 609
f 702 609 597
f 702 597 701
f 601 600 598
f 703 601 598
f 718 598 614
f 703 598 718
f 601 599 600
f 705 600 599
f 602 599 601
f 705 599 695
f 701 600 706
f 706 600 705
f 707 602 601
f 704 601 703
f 707 601 704
f 708 602 707
f 608 611 607
f 608 607 632
f 715 607 611
f 632 607 619
f 709 619 607
f 709 607 715
f 612 611 608
f 712 612 608
f 711 608 632
f 712 608 711
f 613 609 610
f 713 610 609
f 614 609 613
f 713 609 702
f 612 610 611
f 714 611 610
f 613 610 612
f 714 610 713
f 715 611 714
f 716 613 612
f 716 612 712
f 717 614 613
f 717 613 716
f 718 614 717
f 631 619 620
f 719 620 619
f 632 619 631
f 710 619 709
f 719 619 710
f 630 620 621
f 720 621 620
f 631 620 630
f 720 620 719
f 629 621 622
f 721 622 621
f 630 621 629
f 721 621 720
f 628 622 623
f 722 623 622
f 629 622 628
f 722 622 721
f 627 623 624
f 723 624 623
f 628 623 627
f 723 623 722
f 626 624 625
f 724 625 624
f 627 624 626
f 724 624 723
f 725 626 625
f 725 625 724
f 726 627 626
f 726 626 725
f 727 628 627
f 727 627 726
f 728 629 628
f 728 628 727
f 729 630 629
f 729 629 728
f 730 631 630
f 730 630 729
f 731 632 631
f 731 631 730
f 711 632 732
f 732 632 731
f 735 645 647
f 735 651 645
f 736 648 646
f 736 646 652
f 735 649 651
f 735 655 649
f 736 652 650
f 736 650 658
f 735 653 656
f 661 653 735
f 736 657 654
f 654 662 736
f 735 656 655
f 736 658 657
f 735 659 661
f 665 659 735
f 736 662 660
f 660 668 736
f 663 666 735
f 735 671 663
f 667 664 736
f 736 664 672
f 735 666 665
f 736 668 667
f 735 669 671
f 735 675 669
f 736 672 670
f 736 670 676
f 735 673 675
f 679 673 735
f 736 676 674
f 674 680 736
f 735 677 679
f 735 683 677
f 736 680 678
f 736 678 684
f 735 681 683
f 735 687 681
f 736 684 682
f 736 682 688
f 735 685 687
f 735 691 685
f 736 688 686
f 736 686 694
f 735 689 692
f 697 689 735
f 736 693 690
f 690 700 736
f 692 691 735
f 694 693 736
f 735 695 698
f 705 695 735
f 736 699 696
f 696 708 736
f 698 697 735
f 700 699 736
f 735 702 701
f 735 701 706
f 735 713 702
f 736 704 703
f 736 703 718
f 736 707 704
f 706 705 735
f 708 707 736
f 735 710 709
f 735 709 715
f 735 719 710
f 736 712 711
f 736 711 732
f 736 716 712
f 735 714 713
f 735 715 714
f 736 717 716
f 736 718 717
f 720 719 735
f 735 721 720
f 735 722 721
f 735 723 722
f 735 724 723
f 725 724 735
f 736 726 725
f 736 725 735
f 727 726 736
f 736 728 727
f 736 729 728
f 736 730 729
f 736 731 730
f 732 731 736
f 733 734 1065
f 739 733 1065
f 1065 734 1066
f 737 736 735
f 738 736 737
f 737 766 738
f 739 985 737
f 741 742 737
f 737 762 741
f 742 743 737
f 737 743 744
f 737 744 763
f 749 750 737
f 737 777 749
f 737 750 751
f 737 751 761
f 761 762 737
f 763 766 737
f 737 769 770
f 785 769 737
f 737 770 777
f 781 785 737
f 737 797 781
f 737 789 790
f 805 789 737
f 737 790 797
f 737 801 805
f 985 801 737
f 738 1052 740
f 738 745 746
f 738 766 745
f 738 746 747
f 747 748 738
f 738 748 767
f 738 758 759
f 738 768 758
f 759 760 738
f 738 760 780
f 767 768 738
f 738 775 776
f 738 780 775
f 776 788 738
f 788 784 738
f 738 784 800
f 738 795 796
f 738 800 795
f 796 808 738
f 738 808 804
f 738 804 986
f 986 1052 738
f 740 822 739
f 739 1065 740
f 739 818 817
f 817 850 739
f 819 818 739
f 820 819 739
f 739 833 820
f 739 822 821
f 821 834 739
f 834 833 739
f 849 845 739
f 845 874 739
f 739 850 849
f 866 865 739
f 739 865 893
f 739 873 866
f 739 874 873
f 739 893 889
f 739 889 913
f 739 913 909
f 909 933 739
f 739 933 1051
f 1051 985 739
f 827 822 740
f 740 828 827
f 835 828 740
f 830 829 740
f 740 829 836
f 831 830 740
f 740 832 831
f 855 832 740
f 740 836 835
f 848 856 740
f 879 848 740
f 740 856 855
f 872 871 740
f 740 871 880
f 740 896 872
f 740 880 879
f 740 892 896
f 740 916 892
f 740 912 916
f 936 912 740
f 1052 936 740
f 740 1065 1066
f 741 819 742
f 762 819 741
f 742 833 743
f 742 819 820
f 742 820 833
f 743 821 744
f 743 834 821
f 743 833 834
f 744 822 763
f 744 821 822
f 745 827 746
f 766 827 745
f 746 835 747
f 746 827 828
f 746 828 835
f 747 829 748
f 747 836 829
f 747 835 836
f 748 830 767
f 748 829 830
f 749 845 750
f 777 845 749
f 750 849 751
f 750 845 849
f 751 817 761
f 751 850 817
f 751 849 850
f 753 756 752
f 752 851 753
f 752 756 757
f 752 757 764
f 764 823 752
f 752 823 824
f 752 824 851
f 754 755 753
f 753 852 754
f 753 755 756
f 753 851 852
f 754 779 755
f 778 779 754
f 754 846 778
f 754 852 846
f 755 847 756
f 779 847 755
f 756 853 757
f 756 847 853
f 764 757 765
f 757 825 765
f 757 854 825
f 757 853 854
f 758 855 759
f 768 831 758
f 758 831 832
f 758 832 855
f 759 856 760
f 759 855 856
f 760 848 780
f 760 856 848
f 761 818 762
f 761 817 818
f 762 818 819
f 764 765 763
f 763 822 764
f 763 765 766
f 764 822 823
f 765 826 766
f 765 825 826
f 766 826 827
f 767 830 768
f 768 830 831
f 769 873 770
f 785 866 769
f 769 866 873
f 770 845 777
f 770 874 845
f 770 873 874
f 772 773 771
f 771 875 772
f 771 773 774
f 771 774 778
f 778 846 771
f 771 846 875
f 772 787 773
f 786 787 772
f 772 867 786
f 772 876 867
f 772 875 876
f 773 877 774
f 787 870 773
f 773 870 877
f 778 774 779
f 774 847 779
f 774 878 847
f 774 877 878
f 775 879 776
f 780 848 775
f 775 848 879
f 776 871 788
f 776 880 871
f 776 879 880
f 781 865 785
f 797 889 781
f 781 893 865
f 781 889 893
f 782 783 786
f 782 799 783
f 786 867 782
f 798 799 782
f 782 890 798
f 782 867 868
f 782 868 894
f 782 894 890
f 786 783 787
f 783 869 787
f 799 891 783
f 783 895 869
f 783 891 895
f 788 871 784
f 784 892 800
f 784 871 872
f 784 872 896
f 784 896 892
f 785 865 866
f 787 869 870
f 789 913 790
f 805 909 789
f 789 909 913
f 790 889 797
f 790 913 889
f 792 793 791
f 791 890 792
f 791 793 794
f 791 794 798
f 798 890 791
f 792 807 793
f 806 807 792
f 792 910 806
f 792 890 914
f 792 914 910
f 793 915 794
f 807 911 793
f 793 911 915
f 798 794 799
f 794 891 799
f 794 915 891
f 795 892 796
f 800 892 795
f 796 912 808
f 796 892 916
f 796 916 912
f 801 909 805
f 813 929 801
f 985 813 801
f 801 933 909
f 801 929 933
f 802 803 806
f 802 815 803
f 806 910 802
f 814 815 802
f 802 930 814
f 802 910 934
f 802 934 930
f 806 803 807
f 803 911 807
f 815 931 803
f 803 935 911
f 803 931 935
f 808 912 804
f 804 932 816
f 986 804 816
f 804 912 936
f 804 936 932
f 809 957 813
f 985 809 813
f 841 953 809
f 985 841 809
f 809 953 957
f 810 811 814
f 810 843 811
f 814 930 810
f 842 843 810
f 810 954 842
f 810 930 958
f 810 958 954
f 814 811 815
f 811 959 815
f 843 955 811
f 811 955 959
f 816 932 812
f 986 816 812
f 812 956 844
f 986 812 844
f 812 932 960
f 812 960 956
f 813 957 929
f 815 959 931
f 827 823 822
f 826 824 823
f 826 823 827
f 825 824 826
f 825 851 824
f 854 851 825
f 837 981 841
f 985 837 841
f 861 977 837
f 985 861 837
f 837 977 981
f 838 839 842
f 839 838 863
f 842 954 838
f 863 838 862
f 838 982 862
f 838 954 982
f 842 839 843
f 839 983 843
f 863 979 839
f 839 979 983
f 844 956 840
f 986 844 840
f 840 984 864
f 986 840 864
f 840 956 984
f 841 981 953
f 843 983 955
f 847 846 853
f 847 875 846
f 853 846 852
f 878 875 847
f 854 852 851
f 853 852 854
f 985 857 861
f 857 991 861
f 985 885 857
f 885 987 857
f 857 987 991
f 859 862 858
f 859 858 887
f 862 978 858
f 887 858 886
f 858 992 886
f 858 978 992
f 863 862 859
f 859 993 863
f 887 989 859
f 859 989 993
f 864 980 860
f 986 864 860
f 986 860 888
f 860 994 888
f 860 980 994
f 861 991 977
f 862 982 978
f 863 993 979
f 864 984 980
f 870 868 867
f 870 867 877
f 877 867 876
f 869 868 870
f 869 894 868
f 895 894 869
f 878 876 875
f 877 876 878
f 985 881 885
f 881 987 885
f 985 901 881
f 901 995 881
f 881 1003 987
f 881 995 1003
f 883 886 882
f 883 882 905
f 886 988 882
f 905 882 904
f 882 998 904
f 882 988 1004
f 882 1004 998
f 887 886 883
f 883 989 887
f 905 999 883
f 883 1005 989
f 883 999 1005
f 986 888 884
f 888 990 884
f 986 884 908
f 884 1002 908
f 884 990 1006
f 884 1006 1002
f 886 992 988
f 888 994 990
f 891 890 895
f 891 914 890
f 895 890 894
f 915 914 891
f 985 897 902
f 897 996 902
f 985 921 897
f 921 1007 897
f 897 1015 996
f 897 1007 1015
f 899 903 898
f 899 898 925
f 903 997 898
f 925 898 924
f 898 1010 924
f 898 997 1016
f 898 1016 1010
f 906 903 899
f 899 1000 906
f 925 1011 899
f 899 1017 1000
f 899 1011 1017
f 986 907 900
f 907 1001 900
f 986 900 928
f 900 1014 928
f 900 1001 1018
f 900 1018 1014
f 985 902 901
f 902 996 901
f 901 996 995
f 906 904 903
f 904 998 903
f 903 998 997
f 905 904 906
f 906 1000 905
f 905 1000 999
f 986 908 907
f 908 1002 907
f 907 1002 1001
f 911 910 915
f 911 934 910
f 915 910 914
f 935 934 911
f 985 917 922
f 917 1008 922
f 985 949 917
f 949 1020 917
f 917 1027 1008
f 917 1020 1019
f 917 1019 1027
f 919 923 918
f 919 918 951
f 923 1009 918
f 951 918 950
f 918 1022 950
f 918 1009 1028
f 918 1028 1022
f 926 923 919
f 919 1012 926
f 951 1024 919
f 919 1029 1012
f 919 1024 1023
f 919 1023 1029
f 986 927 920
f 927 1013 920
f 986 920 952
f 920 1026 952
f 920 1013 1030
f 920 1030 1026
f 922 921 985
f 922 1008 921
f 921 1008 1007
f 926 924 923
f 924 1010 923
f 923 1010 1009
f 925 924 926
f 926 1012 925
f 925 1012 1011
f 928 927 986
f 928 1014 927
f 927 1014 1013
f 933 929 1051
f 1051 929 957
f 931 930 935
f 931 958 930
f 935 930 934
f 959 958 931
f 1052 932 936
f 960 932 1052
f 938 937 985
f 938 1044 937
f 985 937 949
f 937 1020 949
f 937 1043 1020
f 937 1044 1043
f 985 939 938
f 939 1032 938
f 938 1032 1031
f 938 1031 1044
f 985 973 939
f 973 1032 939
f 945 941 940
f 941 1036 940
f 945 940 975
f 975 940 974
f 940 1035 974
f 940 1036 1035
f 944 942 941
f 942 1046 941
f 944 941 945
f 941 1045 1036
f 941 1046 1045
f 943 942 944
f 943 950 942
f 950 1021 942
f 942 1021 1046
f 944 1048 943
f 951 950 943
f 943 1024 951
f 943 1047 1024
f 943 1048 1047
f 945 1038 944
f 944 1038 1037
f 944 1037 1048
f 975 1038 945
f 986 947 946
f 947 1042 946
f 986 946 976
f 946 1041 976
f 946 1042 1041
f 948 947 986
f 948 1050 947
f 947 1049 1042
f 947 1050 1049
f 986 952 948
f 952 1025 948
f 948 1025 1050
f 950 1022 1021
f 952 1026 1025
f 957 953 1051
f 1051 953 981
f 955 954 959
f 954 955 982
f 959 954 958
f 982 955 983
f 1052 956 960
f 984 956 1052
f 962 961 985
f 962 1054 961
f 985 961 973
f 961 1033 973
f 961 1053 1033
f 961 1054 1053
f 963 962 985
f 963 1055 962
f 962 1055 1054
f 964 963 985
f 964 1056 963
f 963 1056 1055
f 969 965 964
f 965 1057 964
f 969 964 986
f 986 964 985
f 964 1057 1056
f 968 966 965
f 966 1058 965
f 968 965 969
f 965 1058 1057
f 967 966 968
f 967 974 966
f 974 1035 966
f 966 1035 1034
f 966 1034 1058
f 968 1060 967
f 975 974 967
f 967 1039 975
f 967 1059 1039
f 967 1060 1059
f 969 1061 968
f 968 1061 1060
f 986 970 969
f 970 1062 969
f 969 1062 1061
f 971 970 986
f 971 1063 970
f 970 1063 1062
f 972 971 986
f 972 1064 971
f 971 1064 1063
f 986 976 972
f 976 1041 972
f 972 1041 1040
f 972 1040 1064
f 973 1033 1032
f 975 1039 1038
f 1051 981 977
f 1051 977 991
f 978 983 979
f 978 979 992
f 982 983 978
f 992 979 993
f 1052 980 984
f 1052 994 980
f 985 1051 986
f 986 1051 1052
f 1051 991 987
f 1051 987 1003
f 988 993 989
f 988 989 1004
f 992 993 988
f 1004 989 1005
f 1052 990 994
f 1052 1006 990
f 1051 995 996
f 1051 1003 995
f 996 1015 1051
f 998 999 997
f 997 999 1000
f 997 1000 1016
f 998 1005 999
f 1004 1005 998
f 1016 1000 1017
f 1052 1001 1002
f 1018 1001 1052
f 1052 1002 1006
f 1007 1008 1051
f 1015 1007 1051
f 1051 1008 1027
f 1010 1011 1009
f 1009 1011 1012
f 1009 1012 1028
f 1010 1017 1011
f 1016 1017 1010
f 1028 1012 1029
f 1013 1014 1052
f 1052 1030 1013
f 1014 1018 1052
f 1051 1019 1020
f 1027 1019 1051
f 1020 1043 1051
f 1022 1023 1021
f 1021 1023 1024
f 1021 1024 1046
f 1022 1029 1023
f 1028 1029 1022
f 1046 1024 1047
f 1052 1025 1026
f 1050 1025 1052
f 1026 1030 1052
f 1051 1031 1032
f 1044 1031 1051
f 1051 1032 1033
f 1051 1033 1053
f 1035 1038 1034
f 1034 1038 1039
f 1034 1039 1058
f 1036 1037 1035
f 1035 1037 1038
f 1036 1048 1037
f 1045 1048 1036
f 1058 1039 1059
f 1052 1040 1041
f 1052 1064 1040
f 1052 1041 1042
f 1042 1049 1052
f 1043 1044 1051
f 1046 1047 1045
f 1045 1047 1048
f 1049 1050 1052
f 1051 1061 1052
f 1053 1054 1051
f 1054 1055 1051
f 1055 1056 1051
f 1056 1061 1051
f 1052 1061 1062
f 1062 1063 1052
f 1063 1064 1052
f 1057 1060 1056
f 1056 1060 1061
f 1058 1059 1057
f 1057 1059 1060
