# CAD visual only; metres; body-local coordinates
v -0.00978147469 -0.00207911529 0.00999999809
v -0.00978147469 -0.00207911529 0.012000001
v -0.0098162695 -0.0019080881 0.00999999809
v -0.0098162695 -0.0019080881 0.012000001
v -0.00987688504 -0.00156434573 0.00999999809
v -0.00984807931 -0.00173648395 0.012000001
v -0.00990268193 -0.00139173068 0.00999999809
v -0.00990268193 -0.00139173068 0.012000001
v -0.00994522057 -0.00104528464 0.00999999809
v -0.00992546044 -0.00121869124 0.012000001
v -0.00996194802 -0.000871558562 0.00999999809
v -0.00996194802 -0.000871558562 0.012000001
v -0.00998629533 -0.000523357764 0.00999999809
v -0.00997564279 -0.000697565452 0.012000001
v -0.00999391042 -0.000348992721 0.00999999809
v -0.00999391042 -0.000348992721 0.012000001
v -0.00999999963 -3.72796696e-10 0.00999999809
v -0.00999847852 -0.000174522773 0.012000001
v -0.00999847852 0.000174522027 0.00999999809
v -0.00999847852 0.000174522027 0.012000001
v -0.00999391042 0.000348996743 0.00999999809
v -0.00999391042 0.000348996743 0.012000001
v -0.00997564279 0.000697564706 0.00999999809
v -0.00998629533 0.000523361787 0.012000001
v -0.00996194802 0.000871557817 0.00999999809
v -0.00996194802 0.000871557817 0.012000001
v -0.00992546044 0.00121869527 0.00999999809
v -0.00994522057 0.0010452839 0.012000001
v -0.00990268193 0.00139172994 0.00999999809
v -0.00990268193 0.00139172994 0.012000001
v -0.00984807931 0.0017364832 0.00999999809
v -0.00987688504 0.00156434499 0.012000001
v -0.0098162695 0.00190809213 0.00999999809
v -0.0098162695 0.00190809213 0.012000001
v -0.00978147469 0.00207911454 0.00999999809
v -0.00978147469 0.00207911454 0.012000001
v -0.00951056443 -0.00309017219 0.00999999809
v -0.00951056443 -0.00309017219 0.012000001
v -0.00961261712 -0.00275637187 0.00999999809
v -0.0095630499 -0.00292371787 0.012000001
v -0.00965925656 -0.00258819141 0.00999999809
v -0.00965925656 -0.00258819141 0.012000001
v -0.00970295869 -0.00241921939 0.00999999809
v -0.00970295869 -0.00241921939 0.012000001
v -0.00974369965 -0.00224950828 0.00999999809
v -0.00974369965 -0.00224950828 0.012000001
v -0.00974369965 0.0022495123 0.00999999809
v -0.00974369965 0.0022495123 0.012000001
v -0.00970295869 0.00241921864 0.00999999809
v -0.00970295869 0.00241921864 0.012000001
v -0.00965925656 0.00258819066 0.00999999809
v -0.00965925656 0.00258819066 0.012000001
v -0.0095630499 0.00292371713 0.00999999809
v -0.00961261712 0.00275637589 0.012000001
v -0.00951056443 0.00309017144 0.00999999809
v -0.00951056443 0.00309017144 0.012000001
v -0.00933580361 -0.00358367957 0.00999999809
v -0.00927184068 -0.0037460617 0.012000001
v -0.00945518456 -0.00325568236 0.00999999809
v -0.0093969246 -0.00342020072 0.012000001
v -0.0093969246 0.00342019998 0.00999999809
v -0.00945518456 0.00325568162 0.012000001
v -0.00927184068 0.00374606572 0.00999999809
v -0.00933580361 0.00358367883 0.012000001
v -0.00913545571 -0.00406736411 0.00999999809
v -0.0090630766 -0.0042261795 0.012000001
v -0.0092050501 -0.00390730895 0.00999999809
v -0.0092050501 -0.00390730895 0.012000001
v -0.0092050501 0.00390731297 0.00999999809
v -0.0092050501 0.00390731297 0.012000001
v -0.0090630766 0.00422618352 0.00999999809
v -0.00913545571 0.00406736813 0.012000001
v -0.00891006432 -0.00453990974 0.00999999809
v -0.00882947408 -0.00469471969 0.012000001
v -0.00898794137 -0.00438370742 0.00999999809
v -0.00898794137 -0.00438370742 0.012000001
v -0.00898794137 0.00438371144 0.00999999809
v -0.00898794137 0.00438371144 0.012000001
v -0.00882947408 0.00469471417 0.00999999809
v -0.00891006432 0.00453990422 0.012000001
v -0.00866025411 -0.00500000037 0.00999999809
v -0.00857167207 -0.00515038528 0.012000001
v -0.00874619924 -0.00484809913 0.00999999809
v -0.00874619924 -0.00484809913 0.012000001
v -0.00866025411 0.00499999963 0.00999999809
v -0.00874619924 0.00484809838 0.012000001
v -0.00857167207 0.00515037976 0.00999999809
v -0.00857167207 0.00515037976 0.012000001
v -0.00829037629 -0.00559192695 0.00999999809
v -0.00829037629 -0.00559192695 0.012000001
v -0.00848048173 -0.00529919662 0.00999999809
v -0.00838670693 -0.00544638671 0.012000001
v -0.00838670693 0.00544639073 0.00999999809
v -0.00848048173 0.0052991911 0.012000001
v -0.00829037629 0.00559193097 0.00999999809
v -0.00829037629 0.00559193097 0.012000001
v -0.00809017144 -0.00587784804 0.00999999809
v -0.00809017144 -0.00587784804 0.012000001
v -0.00819151841 -0.00573576011 0.00999999809
v -0.00819151841 -0.00573576011 0.012000001
v -0.00819151841 0.00573576413 0.00999999809
v -0.00819151841 0.00573576413 0.012000001
v -0.00809017144 0.00587785207 0.00999999809
v -0.00809017144 0.00587785207 0.012000001
v -0.00777145825 -0.00629320182 0.00999999809
v -0.00777145825 -0.00629320182 0.012000001
v -0.00798635446 -0.00601815261 0.00999999809
v -0.0078801056 -0.00615661658 0.012000001
v -0.0078801056 0.00615661584 0.00999999809
v -0.00798635446 0.00601815186 0.012000001
v -0.00777145825 0.00629320584 0.00999999809
v -0.00777145825 0.00629320584 0.012000001
v -0.00754709683 -0.00656059302 0.00999999809
v -0.00754709683 -0.00656059302 0.012000001
v -0.00766044579 -0.00642787971 0.00999999809
v -0.00766044579 -0.00642787971 0.012000001
v -0.00766044579 0.00642787419 0.00999999809
v -0.00766044579 0.00642787419 0.012000001
v -0.00754709683 0.00656059228 0.00999999809
v -0.00754709683 0.00656059228 0.012000001
v -0.00731353722 -0.0068199829 0.00999999809
v -0.00731353722 -0.0068199829 0.012000001
v -0.00743144952 -0.00669130363 0.00999999809
v -0.00743144952 -0.00669130363 0.012000001
v -0.00743144952 0.00669130765 0.00999999809
v -0.00743144952 0.00669130765 0.012000001
v -0.00731353722 0.00681998216 0.00999999809
v -0.00731353722 0.00681998216 0.012000001
v -0.00707106553 -0.00707106628 0.00999999809
v -0.00707106553 -0.00707106628 0.012000001
v -0.0071933981 -0.00694658317 0.00999999809
v -0.0071933981 -0.00694658317 0.012000001
v -0.0071933981 0.00694658242 0.00999999809
v -0.0071933981 0.00694658242 0.012000001
v -0.00707106553 0.00707106553 0.00999999809
v -0.00707106553 0.00707106553 0.012000001
v -0.00681998216 -0.00731353797 0.00999999809
v -0.00681998216 -0.00731353797 0.012000001
v -0.00694658242 -0.00719339408 0.00999999809
v -0.00694658242 -0.00719339408 0.012000001
v -0.00675082646 0.00554187261 0.00999999809
v -0.00675417386 0.00573358498 0.012000001
v -0.00675266705 0.00575272523 0.00999999809
v -0.00675082646 0.00577183686 0.012000001
v -0.00694658242 0.0071933981 0.00999999809
v -0.00694658242 0.0071933981 0.012000001
v -0.00681998216 0.00731353722 0.00999999809
v -0.00681998216 0.00731353722 0.012000001
v -0.00656059228 -0.00754709281 0.00999999809
v -0.00656059228 -0.00754709281 0.012000001
v -0.00669130765 -0.00743145026 0.00999999809
v -0.00669130765 -0.00743145026 0.012000001
v -0.00651171647 0.004964604 0.00999999809
v -0.00653535329 0.00499485932 0.012000001
v -0.00654677354 0.00501028977 0.00999999809
v -0.00667675458 0.00524478875 0.012000001
v -0.0066837927 0.00526265107 0.00999999809
v -0.00674331151 0.00548477612 0.012000001
v -0.00674614869 0.00550376378 0.00999999809
v -0.00674865685 0.00552279912 0.012000001
v -0.00674865685 0.00579091035 0.00999999809
v -0.00670301877 0.00599677525 0.012000001
v -0.00669692479 0.0060149809 0.00999999809
v -0.00658970796 0.0062397667 0.012000001
v -0.00657939397 0.00625595532 0.00999999809
v -0.00651171647 0.00634910546 0.012000001
v -0.00669130765 0.00743144952 0.00999999809
v -0.00669130765 0.00743144952 0.012000001
v -0.00656059228 0.00754709683 0.00999999809
v -0.00656059228 0.00754709683 0.012000001
v -0.00629320584 -0.00777146377 0.00999999809
v -0.00629320584 -0.00777146377 0.012000001
v -0.00642787419 -0.00766044654 0.00999999809
v -0.00642787419 -0.00766044654 0.012000001
v -0.00625595532 0.0047343155 0.00999999809
v -0.00627196752 0.00474491082 0.012000001
v -0.00628778897 0.00475578748 0.00999999809
v -0.00649950467 0.00494978867 0.012000001
v -0.00643467389 0.00643467389 0.00999999809
v -0.00643467389 0.00643467389 0.012000001
v -0.00634910546 0.00651171647 0.00999999809
v -0.00625595532 0.00657939397 0.012000001
v -0.00642787419 0.00766044579 0.00999999809
v -0.00642787419 0.00766044579 0.012000001
v -0.00629320584 0.00777145825 0.00999999809
v -0.00629320584 0.00777145825 0.012000001
v -0.00615661584 -0.00788010635 0.00999999809
v -0.00601815186 -0.0079863552 0.012000001
v -0.0060149809 0.00461678468 0.00999999809
v -0.0062397667 0.00472400151 0.012000001
v -0.0062397667 0.00658970796 0.00999999809
v -0.0060149809 0.00669692479 0.012000001
v -0.00601815186 0.00798635446 0.00999999809
v -0.00615661584 0.0078801056 0.012000001
v -0.00587785207 -0.00809017219 0.00999999809
v -0.00587785207 -0.00809017219 0.012000001
v -0.00575272523 0.00456104241 0.00999999809
v -0.00599677525 0.0046106907 0.012000001
v -0.00599677525 0.00670301877 0.00999999809
v -0.00579091035 0.00674865685 0.012000001
v -0.00577183686 0.00675082646 0.00999999809
v -0.00575272523 0.00675266705 0.012000001
v -0.00587785207 0.00809017144 0.00999999809
v -0.00587785207 0.00809017144 0.012000001
v -0.00559193097 -0.00829037704 0.00999999809
v -0.00559193097 -0.00829037704 0.012000001
v -0.00573576413 -0.00819151916 0.00999999809
v -0.00573576413 -0.00819151916 0.012000001
v -0.00550376378 0.00456756078 0.00999999809
v -0.00573358498 0.00455953561 0.012000001
v -0.00552279912 0.00674865685 0.00999999809
v -0.00550376378 0.00674614869 0.012000001
v -0.00573358498 0.00675417386 0.00999999809
v -0.00554187261 0.00675082646 0.012000001
v -0.00573576413 0.00819151841 0.00999999809
v -0.00573576413 0.00819151841 0.012000001
v -0.00559193097 0.00829037629 0.00999999809
v -0.00559193097 0.00829037629 0.012000001
v -0.00544639073 -0.00838670768 0.00999999809
v -0.0052991911 -0.00848048247 0.012000001
v -0.00526265107 0.00462991677 0.00999999809
v -0.00548477612 0.00457039796 0.012000001
v -0.00548477612 0.00674331151 0.00999999809
v -0.00526265107 0.0066837927 0.012000001
v -0.0052991911 0.00848048173 0.00999999809
v -0.00544639073 0.00838670693 0.012000001
v -0.00515037976 -0.00857167281 0.00999999809
v -0.00515037976 -0.00857167281 0.012000001
v -0.00504174195 0.00474491082 0.00999999809
v -0.00524478875 0.00463695012 0.012000001
v -0.00501028977 0.00476693593 0.00999999809
v -0.0050259205 0.00475578748 0.012000001
v -0.00524478875 0.00667675458 0.00999999809
v -0.00501028977 0.00654677354 0.012000001
v -0.00515037976 0.00857167207 0.00999999809
v -0.00515037976 0.00857167207 0.012000001
v -0.00499999963 -0.00866025008 0.00999999809
v -0.00484809838 -0.00874619521 0.012000001
v -0.00477835618 0.00499485932 0.00999999809
v -0.00499485932 0.00477835618 0.012000001
v -0.00475578748 0.0050259205 0.00999999809
v -0.00476693593 0.00501028977 0.012000001
v -0.00494978867 0.00649950467 0.00999999809
v -0.00475578748 0.00628778897 0.012000001
v -0.00499485932 0.00653535329 0.00999999809
v -0.004964604 0.00651171647 0.012000001
v -0.00484809838 0.00874619924 0.00999999809
v -0.00499999963 0.00866025411 0.012000001
v -0.00469471417 -0.00882947959 0.00999999809
v -0.00453990422 -0.00891006507 0.012000001
v -0.00463695012 0.00524478875 0.00999999809
v -0.00474491082 0.00504174195 0.012000001
v -0.00457039796 0.00548477612 0.00999999809
v -0.00462991677 0.00526265107 0.012000001
v -0.00455953561 0.00573358498 0.00999999809
v -0.00456756078 0.00550376378 0.012000001
v -0.0046106907 0.00599677525 0.00999999809
v -0.00456104241 0.00575272523 0.012000001
v -0.00472400151 0.0062397667 0.00999999809
v -0.00461678468 0.0060149809 0.012000001
v -0.00474491082 0.00627196752 0.00999999809
v -0.0047343155 0.00625595532 0.012000001
v -0.00453990422 0.00891006432 0.00999999809
v -0.00469471417 0.00882947408 0.012000001
v -0.00438371144 -0.00898794211 0.00999999809
v -0.00438371144 -0.00898794211 0.012000001
v -0.00438371144 0.00898794137 0.00999999809
v -0.00438371144 0.00898794137 0.012000001
v -0.00422618352 -0.00906308211 0.00999999809
v -0.00406736813 -0.00913545646 0.012000001
v -0.00406736813 0.00913545571 0.00999999809
v -0.00422618352 0.0090630766 0.012000001
v -0.00390731297 -0.00920504607 0.00999999809
v -0.00390731297 -0.00920504607 0.012000001
v -0.00390731297 0.0092050501 0.00999999809
v -0.00390731297 0.0092050501 0.012000001
v -0.00374606572 -0.00927184142 0.00999999809
v -0.00358367883 -0.00933580436 0.012000001
v -0.00358367883 0.00933580361 0.00999999809
v -0.00374606572 0.00927184068 0.012000001
v -0.00342019998 -0.00939692535 0.00999999809
v -0.00325568162 -0.00945518531 0.012000001
v -0.00325568162 0.00945518456 0.00999999809
v -0.00342019998 0.0093969246 0.012000001
v -0.00309017144 -0.00951056518 0.00999999809
v -0.00309017144 -0.00951056518 0.012000001
v -0.00309017144 0.00951056443 0.00999999809
v -0.00309017144 0.00951056443 0.012000001
v -0.00292371713 -0.00956304587 0.00999999809
v -0.00275637589 -0.00961261787 0.012000001
v -0.00275637589 0.00961261712 0.00999999809
v -0.00292371713 0.0095630499 0.012000001
v -0.00258819066 -0.00965926208 0.00999999809
v -0.00258819066 -0.00965926208 0.012000001
v -0.00258819066 0.00965925656 0.00999999809
v -0.00258819066 0.00965925656 0.012000001
v -0.00241921864 -0.00970295943 0.00999999809
v -0.00241921864 -0.00970295943 0.012000001
v -0.00241921864 0.00970295869 0.00999999809
v -0.00241921864 0.00970295869 0.012000001
v -0.00207911454 -0.00978147544 0.00999999809
v -0.00207911454 -0.00978147544 0.012000001
v -0.0022495123 -0.0097437004 0.00999999809
v -0.0022495123 -0.0097437004 0.012000001
v -0.0022495123 0.00974369965 0.00999999809
v -0.0022495123 0.00974369965 0.012000001
v -0.00207911454 0.00978147469 0.00999999809
v -0.00207911454 0.00978147469 0.012000001
v -0.00190809213 -0.00981627502 0.00999999809
v -0.00190809213 -0.00981627502 0.012000001
v -0.00190809213 0.0098162695 0.00999999809
v -0.00190809213 0.0098162695 0.012000001
v -0.0017364832 -0.00984808005 0.00999999809
v -0.00156434499 -0.00987688102 0.012000001
v -0.00150000058 -3.72796696e-10 0.00999999809
v -0.00150000058 -3.72796696e-10 0.012000001
v -0.00156434499 0.00987688504 0.00999999809
v -0.0017364832 0.00984807931 0.012000001
v -0.00139172994 -0.00990267791 0.00999999809
v -0.00139172994 -0.00990267791 0.012000001
v -0.00125800572 -0.000816960708 0.00999999809
v -0.00128575288 -0.000772557631 0.012000001
v -0.00129903756 -0.000749998465 0.00999999809
v -0.0014095398 -0.000513029471 0.012000001
v -0.00141828023 -0.000488353148 0.00999999809
v -0.00147721253 -0.00026047267 0.012000001
v -0.00148153268 -0.000234651938 0.00999999809
v -0.0014997717 -2.61787328e-05 0.012000001
v -0.0014997717 2.61779872e-05 0.00999999809
v -0.00148153268 0.000234651193 0.012000001
v -0.00147721253 0.000260471925 0.00999999809
v -0.00141828023 0.000488352403 0.012000001
v -0.0014095398 0.000513028726 0.00999999809
v -0.00129903756 0.00074999772 0.012000001
v -0.00128575288 0.000772556886 0.00999999809
v -0.00125800572 0.000816959962 0.012000001
v -0.00139172994 0.00990268193 0.00999999809
v -0.00139172994 0.00990268193 0.012000001
v -0.00121869527 -0.00992546119 0.00999999809
v -0.0010452839 -0.00994522132 0.012000001
v -0.00100369416 -0.0011147169 0.00999999809
v -0.00111471616 -0.00100369491 0.012000001
v -0.00113206349 -0.000984087363 0.00999999809
v -0.00124355756 -0.000838790313 0.012000001
v -0.00124355756 0.000838789567 0.00999999809
v -0.00113206349 0.000984086618 0.012000001
v -0.0010606619 0.0010606619 0.00999999809
v -0.0010606619 0.0010606619 0.012000001
v -0.0010452839 0.00994522057 0.00999999809
v -0.00121869527 0.00992546044 0.012000001
v -0.000871557817 -0.00996194877 0.00999999809
v -0.000871557817 -0.00996194877 0.012000001
v -0.000772556886 -0.00128574885 0.00999999809
v -0.000816959962 -0.00125800647 0.012000001
v -0.000838789567 -0.0012435583 0.00999999809
v -0.000984086618 -0.00113206424 0.012000001
v -0.000984086618 0.00113206349 0.00999999809
v -0.000838789567 0.00124355756 0.012000001
v -0.000816959962 0.00125800572 0.00999999809
v -0.000772556886 0.00128575288 0.012000001
v -0.000871557817 0.00996194802 0.00999999809
v -0.000871557817 0.00996194802 0.012000001
v -0.000697564706 -0.00997564353 0.00999999809
v -0.000523361787 -0.00998629607 0.012000001
v -0.000513028726 -0.00140954055 0.00999999809
v -0.00074999772 -0.00129903831 0.012000001
v -0.00074999772 0.00129903756 0.00999999809
v -0.000513028726 0.0014095398 0.012000001
v -0.000523361787 0.00998629533 0.00999999809
v -0.000697564706 0.00997564279 0.012000001
v -0.000348996743 -0.00999390639 0.00999999809
v -0.000348996743 -0.00999390639 0.012000001
v -0.000260471925 -0.00147721328 0.00999999809
v -0.000488352403 -0.00141827621 0.012000001
v -0.000488352403 0.00141828023 0.00999999809
v -0.000260471925 0.00147721253 0.012000001
v -0.000348996743 0.00999391042 0.00999999809
v -0.000348996743 0.00999391042 0.012000001
v -0.000174522027 -0.00999847449 0.00999999809
v -0.000174522027 -0.00999847449 0.012000001
v -2.61779872e-05 -0.00149977244 0.00999999809
v -0.000234651193 -0.00148153342 0.012000001
v -0.000234651193 0.00148153268 0.00999999809
v -2.61779872e-05 0.0014997717 0.012000001
v -0.000174522027 0.00999847852 0.00999999809
v -0.000174522027 0.00999847852 0.012000001
v 3.72796696e-10 -0.0100000004 0.00999999809
v 3.72796696e-10 -0.0100000004 0.012000001
v 0.000174522773 -0.00999847449 0.00999999809
v 0.000174522773 -0.00999847449 0.012000001
v 3.72796696e-10 -0.00150000133 0.00999999809
v 3.72796696e-10 -0.00150000133 0.012000001
v 0.000234651938 -0.00148153342 0.00999999809
v 2.61787328e-05 -0.00149977244 0.012000001
v 2.61787328e-05 0.0014997717 0.00999999809
v 0.000234651938 0.00148153268 0.012000001
v 3.72796696e-10 0.00150000058 0.00999999809
v 3.72796696e-10 0.00150000058 0.012000001
v 0.000174522773 0.00999847852 0.00999999809
v 3.72796696e-10 0.00999999963 0.012000001
v 0.000348992721 -0.00999390639 0.00999999809
v 0.000348992721 -0.00999390639 0.012000001
v 0.000488353148 -0.00141827621 0.00999999809
v 0.00026047267 -0.00147721328 0.012000001
v 0.00026047267 0.00147721253 0.00999999809
v 0.000488353148 0.00141828023 0.012000001
v 0.000348992721 0.00999391042 0.00999999809
v 0.000348992721 0.00999391042 0.012000001
v 0.000523357764 -0.00998629607 0.00999999809
v 0.000697565452 -0.00997564353 0.012000001
v 0.000749998465 -0.00129903831 0.00999999809
v 0.000513029471 -0.00140954055 0.012000001
v 0.000513029471 0.0014095398 0.00999999809
v 0.000749998465 0.00129903756 0.012000001
v 0.000697565452 0.00997564279 0.00999999809
v 0.000523357764 0.00998629533 0.012000001
v 0.000871558562 -0.00996194877 0.00999999809
v 0.000871558562 -0.00996194877 0.012000001
v 0.000816960708 -0.00125800647 0.00999999809
v 0.000772557631 -0.00128574885 0.012000001
v 0.000984087363 -0.00113206424 0.00999999809
v 0.000838790313 -0.0012435583 0.012000001
v 0.000838790313 0.00124355756 0.00999999809
v 0.000984087363 0.00113206349 0.012000001
v 0.000772557631 0.00128575288 0.00999999809
v 0.000816960708 0.00125800572 0.012000001
v 0.000871558562 0.00996194802 0.00999999809
v 0.000871558562 0.00996194802 0.012000001
v 0.00104528464 -0.00994522132 0.00999999809
v 0.00121869124 -0.00992546119 0.012000001
v 0.0011147169 -0.00100369491 0.00999999809
v 0.00100369491 -0.0011147169 0.012000001
v 0.0012435583 -0.000838790313 0.00999999809
v 0.00113206424 -0.000984087363 0.012000001
v 0.00113206424 0.000984086618 0.00999999809
v 0.0012435583 0.000838789567 0.012000001
v 0.00100369491 0.00111471616 0.00999999809
v 0.0011147169 0.00100369416 0.012000001
v 0.00121869124 0.00992546044 0.00999999809
v 0.00104528464 0.00994522057 0.012000001
v 0.00139173068 -0.00990267791 0.00999999809
v 0.00139173068 -0.00990267791 0.012000001
v 0.00128574885 -0.000772557631 0.00999999809
v 0.00125800647 -0.000816960708 0.012000001
v 0.00140954055 -0.000513029471 0.00999999809
v 0.00129903831 -0.000749998465 0.012000001
v 0.00147721328 -0.00026047267 0.00999999809
v 0.00141827621 -0.000488353148 0.012000001
v 0.00149977244 -2.61787328e-05 0.00999999809
v 0.00148153342 -0.000234651938 0.012000001
v 0.00148153342 0.000234651193 0.00999999809
v 0.00149977244 2.61779872e-05 0.012000001
v 0.00141827621 0.000488352403 0.00999999809
v 0.00147721328 0.000260471925 0.012000001
v 0.00129903831 0.00074999772 0.00999999809
v 0.00140954055 0.000513028726 0.012000001
v 0.00125800647 0.000816959962 0.00999999809
v 0.00128574885 0.000772556886 0.012000001
v 0.00139173068 0.00990268193 0.00999999809
v 0.00139173068 0.00990268193 0.012000001
v 0.00156434573 -0.00987688102 0.00999999809
v 0.00173648395 -0.00984808005 0.012000001
v 0.00150000133 -3.72796696e-10 0.00999999809
v 0.00150000133 -3.72796696e-10 0.012000001
v 0.00173648395 0.00984807931 0.00999999809
v 0.00156434573 0.00987688504 0.012000001
v 0.0019080881 -0.00981627502 0.00999999809
v 0.0019080881 -0.00981627502 0.012000001
v 0.0019080881 0.0098162695 0.00999999809
v 0.0019080881 0.0098162695 0.012000001
v 0.00207911529 -0.00978147544 0.00999999809
v 0.00207911529 -0.00978147544 0.012000001
v 0.00224950828 -0.0097437004 0.00999999809
v 0.00224950828 -0.0097437004 0.012000001
v 0.00224950828 0.00974369965 0.00999999809
v 0.00224950828 0.00974369965 0.012000001
v 0.00207911529 0.00978147469 0.00999999809
v 0.00207911529 0.00978147469 0.012000001
v 0.00241921939 -0.00970295943 0.00999999809
v 0.00241921939 -0.00970295943 0.012000001
v 0.00241921939 0.00970295869 0.00999999809
v 0.00241921939 0.00970295869 0.012000001
v 0.00258819141 -0.00965926208 0.00999999809
v 0.00258819141 -0.00965926208 0.012000001
v 0.00258819141 0.00965925656 0.00999999809
v 0.00258819141 0.00965925656 0.012000001
v 0.00275637187 -0.00961261787 0.00999999809
v 0.00292371787 -0.00956304587 0.012000001
v 0.00292371787 0.0095630499 0.00999999809
v 0.00275637187 0.00961261712 0.012000001
v 0.00309017219 -0.00951056518 0.00999999809
v 0.00309017219 -0.00951056518 0.012000001
v 0.00309017219 0.00951056443 0.00999999809
v 0.00309017219 0.00951056443 0.012000001
v 0.00325568236 -0.00945518531 0.00999999809
v 0.00342020072 -0.00939692535 0.012000001
v 0.00342020072 0.0093969246 0.00999999809
v 0.00325568236 0.00945518456 0.012000001
v 0.00358367957 -0.00933580436 0.00999999809
v 0.0037460617 -0.00927184142 0.012000001
v 0.0037460617 0.00927184068 0.00999999809
v 0.00358367957 0.00933580361 0.012000001
v 0.00390730895 -0.00920504607 0.00999999809
v 0.00390730895 -0.00920504607 0.012000001
v 0.00390730895 0.0092050501 0.00999999809
v 0.00390730895 0.0092050501 0.012000001
v 0.00406736411 -0.00913545646 0.00999999809
v 0.0042261795 -0.00906308211 0.012000001
v 0.0042261795 0.0090630766 0.00999999809
v 0.00406736411 0.00913545571 0.012000001
v 0.00438370742 -0.00898794211 0.00999999809
v 0.00438370742 -0.00898794211 0.012000001
v 0.00438370742 0.00898794137 0.00999999809
v 0.00438370742 0.00898794137 0.012000001
v 0.00453990974 -0.00891006507 0.00999999809
v 0.00469471969 -0.00882947959 0.012000001
v 0.00473431624 -0.00625596084 0.00999999809
v 0.00474491157 -0.00627196349 0.012000001
v 0.00461678542 -0.00601497687 0.00999999809
v 0.00472399749 -0.00623976745 0.012000001
v 0.00456104316 -0.00575272597 0.00999999809
v 0.00461069144 -0.00599677123 0.012000001
v 0.00456755675 -0.00550375976 0.00999999809
v 0.00455953635 -0.00573358573 0.012000001
v 0.00462991752 -0.00526265182 0.00999999809
v 0.0045703987 -0.0054847721 0.012000001
v 0.00474491157 -0.0050417427 0.00999999809
v 0.00463695563 -0.0052447895 0.012000001
v 0.00469471969 0.00882947408 0.00999999809
v 0.00453990974 0.00891006432 0.012000001
v 0.00484809913 -0.00874619521 0.00999999809
v 0.00484809913 -0.00874619521 0.012000001
v 0.00496459998 -0.00651171722 0.00999999809
v 0.00499486007 -0.00653534927 0.012000001
v 0.00475578345 -0.00628778495 0.00999999809
v 0.00494978942 -0.00649950065 0.012000001
v 0.00476693191 -0.00501029052 0.00999999809
v 0.00475578345 -0.00502592124 0.012000001
v 0.00487903632 -0.00487903632 0.00999999809
v 0.00487903632 -0.00487903632 0.012000001
v 0.00484809913 0.00874619924 0.00999999809
v 0.00484809913 0.00874619924 0.012000001
v 0.00500000037 -0.00866025008 0.00999999809
v 0.00515038528 -0.00857167281 0.012000001
v 0.00501029052 -0.00654677428 0.00999999809
v 0.0052447895 -0.00667676009 0.012000001
v 0.00502592124 -0.00475578345 0.00999999809
v 0.00501029052 -0.00476693191 0.012000001
v 0.0052447895 -0.00463695563 0.00999999809
v 0.0050417427 -0.00474491157 0.012000001
v 0.00515038528 0.00857167207 0.00999999809
v 0.00500000037 0.00866025411 0.012000001
v 0.00529919662 -0.00848048247 0.00999999809
v 0.00544638671 -0.00838670768 0.012000001
v 0.00526265182 -0.00668378867 0.00999999809
v 0.0054847721 -0.00674330749 0.012000001
v 0.0054847721 -0.0045703987 0.00999999809
v 0.00526265182 -0.00462991752 0.012000001
v 0.00544638671 0.00838670693 0.00999999809
v 0.00529919662 0.00848048173 0.012000001
v 0.00559192695 -0.00829037704 0.00999999809
v 0.00559192695 -0.00829037704 0.012000001
v 0.00573576011 -0.00819151916 0.00999999809
v 0.00573576011 -0.00819151916 0.012000001
v 0.00554186858 -0.00675083198 0.00999999809
v 0.00573358573 -0.00675417937 0.012000001
v 0.00550375976 -0.00674614944 0.00999999809
v 0.0055227951 -0.0067486576 0.012000001
v 0.00573358573 -0.00455953635 0.00999999809
v 0.00550375976 -0.00456755675 0.012000001
v 0.00573576011 0.00819151841 0.00999999809
v 0.00573576011 0.00819151841 0.012000001
v 0.00559192695 0.00829037629 0.00999999809
v 0.00559192695 0.00829037629 0.012000001
v 0.00587784804 -0.00809017219 0.00999999809
v 0.00587784804 -0.00809017219 0.012000001
v 0.00575272597 -0.00675267257 0.00999999809
v 0.00577183761 -0.00675083198 0.012000001
v 0.00579091109 -0.0067486576 0.00999999809
v 0.00599677123 -0.00670301475 0.012000001
v 0.00599677123 -0.00461069144 0.00999999809
v 0.00575272597 -0.00456104316 0.012000001
v 0.00587784804 0.00809017144 0.00999999809
v 0.00587784804 0.00809017144 0.012000001
v 0.00601815261 -0.0079863552 0.00999999809
v 0.00615661658 -0.00788010635 0.012000001
v 0.00601497687 -0.00669692077 0.00999999809
v 0.00623976745 -0.0065897087 0.012000001
v 0.00623976745 -0.00472399749 0.00999999809
v 0.00601497687 -0.00461678542 0.012000001
v 0.00615661658 0.0078801056 0.00999999809
v 0.00601815261 0.00798635446 0.012000001
v 0.00629320182 -0.00777146377 0.00999999809
v 0.00629320182 -0.00777146377 0.012000001
v 0.00642787971 -0.00766044654 0.00999999809
v 0.00642787971 -0.00766044654 0.012000001
v 0.00625596084 -0.00657938994 0.00999999809
v 0.00634910621 -0.00651171722 0.012000001
v 0.00636391677 -0.00649950065 0.00999999809
v 0.00649950065 -0.00636391677 0.012000001
v 0.00649950065 -0.00494978942 0.00999999809
v 0.00628778495 -0.00475578345 0.012000001
v 0.00627196349 -0.00474491157 0.00999999809
v 0.00625596084 -0.00473431624 0.012000001
v 0.00642787971 0.00766044579 0.00999999809
v 0.00642787971 0.00766044579 0.012000001
v 0.00629320182 0.00777145825 0.00999999809
v 0.00629320182 0.00777145825 0.012000001
v 0.00656059302 -0.00754709281 0.00999999809
v 0.00656059302 -0.00754709281 0.012000001
v 0.00669130363 -0.00743145026 0.00999999809
v 0.00669130363 -0.00743145026 0.012000001
v 0.00651171722 -0.00634910621 0.00999999809
v 0.00657938994 -0.00625596084 0.012000001
v 0.0065897087 -0.00623976745 0.00999999809
v 0.00669692077 -0.00601497687 0.012000001
v 0.00670301475 -0.00599677123 0.00999999809
v 0.0067486576 -0.00579091109 0.012000001
v 0.0067486576 -0.0055227951 0.00999999809
v 0.00674614944 -0.00550375976 0.012000001
v 0.00674330749 -0.0054847721 0.00999999809
v 0.00668378867 -0.00526265182 0.012000001
v 0.00667676009 -0.0052447895 0.00999999809
v 0.00654677428 -0.00501029052 0.012000001
v 0.00653534927 -0.00499486007 0.00999999809
v 0.00651171722 -0.00496459998 0.012000001
v 0.00669130363 0.00743144952 0.00999999809
v 0.00669130363 0.00743144952 0.012000001
v 0.00656059302 0.00754709683 0.00999999809
v 0.00656059302 0.00754709683 0.012000001
v 0.0068199829 -0.00731353797 0.00999999809
v 0.0068199829 -0.00731353797 0.012000001
v 0.00694658317 -0.00719339408 0.00999999809
v 0.00694658317 -0.00719339408 0.012000001
v 0.00675083198 -0.00577183761 0.00999999809
v 0.00675267257 -0.00575272597 0.012000001
v 0.00675417937 -0.00573358573 0.00999999809
v 0.00675083198 -0.00554186858 0.012000001
v 0.00694658317 0.0071933981 0.00999999809
v 0.00694658317 0.0071933981 0.012000001
v 0.0068199829 0.00731353722 0.00999999809
v 0.0068199829 0.00731353722 0.012000001
v 0.00707106628 -0.00707106628 0.00999999809
v 0.00707106628 -0.00707106628 0.012000001
v 0.00719339408 -0.00694658317 0.00999999809
v 0.00719339408 -0.00694658317 0.012000001
v 0.00719339408 0.00694658242 0.00999999809
v 0.00719339408 0.00694658242 0.012000001
v 0.00707106628 0.00707106553 0.00999999809
v 0.00707106628 0.00707106553 0.012000001
v 0.00731353797 -0.0068199829 0.00999999809
v 0.00731353797 -0.0068199829 0.012000001
v 0.00743145026 -0.00669130363 0.00999999809
v 0.00743145026 -0.00669130363 0.012000001
v 0.00743145026 0.00669130765 0.00999999809
v 0.00743145026 0.00669130765 0.012000001
v 0.00731353797 0.00681998216 0.00999999809
v 0.00731353797 0.00681998216 0.012000001
v 0.00754709281 -0.00656059302 0.00999999809
v 0.00754709281 -0.00656059302 0.012000001
v 0.00766044654 -0.00642787971 0.00999999809
v 0.00766044654 -0.00642787971 0.012000001
v 0.00766044654 0.00642787419 0.00999999809
v 0.00766044654 0.00642787419 0.012000001
v 0.00754709281 0.00656059228 0.00999999809
v 0.00754709281 0.00656059228 0.012000001
v 0.00777146377 -0.00629320182 0.00999999809
v 0.00777146377 -0.00629320182 0.012000001
v 0.00788010635 -0.00615661658 0.00999999809
v 0.0079863552 -0.00601815261 0.012000001
v 0.0079863552 0.00601815186 0.00999999809
v 0.00788010635 0.00615661584 0.012000001
v 0.00777146377 0.00629320584 0.00999999809
v 0.00777146377 0.00629320584 0.012000001
v 0.00809017219 -0.00587784804 0.00999999809
v 0.00809017219 -0.00587784804 0.012000001
v 0.00819151916 -0.00573576011 0.00999999809
v 0.00819151916 -0.00573576011 0.012000001
v 0.00819151916 0.00573576413 0.00999999809
v 0.00819151916 0.00573576413 0.012000001
v 0.00809017219 0.00587785207 0.00999999809
v 0.00809017219 0.00587785207 0.012000001
v 0.00829037704 -0.00559192695 0.00999999809
v 0.00829037704 -0.00559192695 0.012000001
v 0.00838670768 -0.00544638671 0.00999999809
v 0.00848048247 -0.00529919662 0.012000001
v 0.00848048247 0.0052991911 0.00999999809
v 0.00838670768 0.00544639073 0.012000001
v 0.00829037704 0.00559193097 0.00999999809
v 0.00829037704 0.00559193097 0.012000001
v 0.00857167281 -0.00515038528 0.00999999809
v 0.00866025008 -0.00500000037 0.012000001
v 0.00874619521 -0.00484809913 0.00999999809
v 0.00874619521 -0.00484809913 0.012000001
v 0.00874619521 0.00484809838 0.00999999809
v 0.00866025008 0.00499999963 0.012000001
v 0.00857167281 0.00515037976 0.00999999809
v 0.00857167281 0.00515037976 0.012000001
v 0.00882947959 -0.00469471969 0.00999999809
v 0.00891006507 -0.00453990974 0.012000001
v 0.00898794211 -0.00438370742 0.00999999809
v 0.00898794211 -0.00438370742 0.012000001
v 0.00898794211 0.00438371144 0.00999999809
v 0.00898794211 0.00438371144 0.012000001
v 0.00891006507 0.00453990422 0.00999999809
v 0.00882947959 0.00469471417 0.012000001
v 0.00906308211 -0.0042261795 0.00999999809
v 0.00913545646 -0.00406736411 0.012000001
v 0.00920504607 -0.00390730895 0.00999999809
v 0.00920504607 -0.00390730895 0.012000001
v 0.00920504607 0.00390731297 0.00999999809
v 0.00920504607 0.00390731297 0.012000001
v 0.00913545646 0.00406736813 0.00999999809
v 0.00906308211 0.00422618352 0.012000001
v 0.00927184142 -0.0037460617 0.00999999809
v 0.00933580436 -0.00358367957 0.012000001
v 0.00939692535 -0.00342020072 0.00999999809
v 0.00945518531 -0.00325568236 0.012000001
v 0.00945518531 0.00325568162 0.00999999809
v 0.00939692535 0.00342019998 0.012000001
v 0.00933580436 0.00358367883 0.00999999809
v 0.00927184142 0.00374606572 0.012000001
v 0.00951056518 -0.00309017219 0.00999999809
v 0.00951056518 -0.00309017219 0.012000001
v 0.00956304587 -0.00292371787 0.00999999809
v 0.00961261787 -0.00275637187 0.012000001
v 0.00965926208 -0.00258819141 0.00999999809
v 0.00965926208 -0.00258819141 0.012000001
v 0.00970295943 -0.00241921939 0.00999999809
v 0.00970295943 -0.00241921939 0.012000001
v 0.0097437004 -0.00224950828 0.00999999809
v 0.0097437004 -0.00224950828 0.012000001
v 0.0097437004 0.0022495123 0.00999999809
v 0.0097437004 0.0022495123 0.012000001
v 0.00970295943 0.00241921864 0.00999999809
v 0.00970295943 0.00241921864 0.012000001
v 0.00965926208 0.00258819066 0.00999999809
v 0.00965926208 0.00258819066 0.012000001
v 0.00961261787 0.00275637589 0.00999999809
v 0.00956304587 0.00292371713 0.012000001
v 0.00951056518 0.00309017144 0.00999999809
v 0.00951056518 0.00309017144 0.012000001
v 0.00978147544 -0.00207911529 0.00999999809
v 0.00978147544 -0.00207911529 0.012000001
v 0.00981627502 -0.0019080881 0.00999999809
v 0.00981627502 -0.0019080881 0.012000001
v 0.00984808005 -0.00173648395 0.00999999809
v 0.00987688102 -0.00156434573 0.012000001
v 0.00990267791 -0.00139173068 0.00999999809
v 0.00990267791 -0.00139173068 0.012000001
v 0.00992546119 -0.00121869124 0.00999999809
v 0.00994522132 -0.00104528464 0.012000001
v 0.00996194877 -0.000871558562 0.00999999809
v 0.00996194877 -0.000871558562 0.012000001
v 0.00997564353 -0.000697565452 0.00999999809
v 0.00998629607 -0.000523357764 0.012000001
v 0.00999390639 -0.000348992721 0.00999999809
v 0.00999390639 -0.000348992721 0.012000001
v 0.00999847449 -0.000174522773 0.00999999809
v 0.00999847449 -0.000174522773 0.012000001
v 0.00999847449 0.000174522027 0.00999999809
v 0.00999847449 0.000174522027 0.012000001
v 0.00999390639 0.000348996743 0.00999999809
v 0.00999390639 0.000348996743 0.012000001
v 0.00998629607 0.000523361787 0.00999999809
v 0.00997564353 0.000697564706 0.012000001
v 0.00996194877 0.000871557817 0.00999999809
v 0.00996194877 0.000871557817 0.012000001
v 0.00994522132 0.0010452839 0.00999999809
v 0.00992546119 0.00121869527 0.012000001
v 0.00990267791 0.00139172994 0.00999999809
v 0.00990267791 0.00139172994 0.012000001
v 0.00987688102 0.00156434499 0.00999999809
v 0.00984808005 0.0017364832 0.012000001
v 0.00981627502 0.00190809213 0.00999999809
v 0.00981627502 0.00190809213 0.012000001
v 0.00978147544 0.00207911454 0.00999999809
v 0.00978147544 0.00207911454 0.012000001
v 0.0100000004 -3.72796696e-10 0.00999999809
v 0.0100000004 -3.72796696e-10 0.012000001
f 1 2 3
f 1 46 2
f 3 309 1
f 45 46 1
f 1 301 45
f 1 309 301
f 3 2 4
f 2 326 4
f 46 326 2
f 3 4 5
f 5 313 3
f 3 313 309
f 5 4 6
f 4 326 6
f 5 6 7
f 7 319 5
f 5 319 313
f 7 6 8
f 6 328 8
f 6 326 328
f 7 8 9
f 9 339 7
f 7 339 319
f 9 8 10
f 8 328 10
f 9 10 11
f 11 351 9
f 9 351 339
f 11 10 12
f 10 328 12
f 11 12 13
f 13 363 11
f 11 363 351
f 13 12 14
f 12 328 14
f 13 14 15
f 15 371 13
f 13 371 363
f 15 14 16
f 14 328 16
f 15 16 17
f 17 379 15
f 15 379 371
f 17 16 18
f 16 328 18
f 17 18 19
f 19 389 17
f 17 387 379
f 17 389 387
f 19 18 20
f 18 328 20
f 19 20 21
f 21 401 19
f 19 401 389
f 21 20 22
f 20 328 22
f 21 22 23
f 23 409 21
f 21 409 401
f 23 22 24
f 22 328 24
f 23 24 25
f 25 417 23
f 23 417 409
f 25 24 26
f 24 328 26
f 25 26 27
f 27 429 25
f 25 429 417
f 27 26 28
f 26 328 28
f 27 28 29
f 29 441 27
f 27 441 429
f 29 28 30
f 28 178 30
f 28 328 178
f 29 30 31
f 31 461 29
f 29 461 441
f 31 30 32
f 30 178 32
f 31 32 33
f 33 467 31
f 31 467 461
f 33 32 34
f 32 178 34
f 33 34 35
f 35 471 33
f 33 471 467
f 35 34 36
f 34 178 36
f 35 36 47
f 47 473 35
f 35 473 471
f 47 36 48
f 36 178 48
f 37 38 39
f 37 60 38
f 39 289 37
f 59 60 37
f 37 285 59
f 37 289 285
f 39 38 40
f 38 326 40
f 60 326 38
f 39 40 41
f 41 293 39
f 39 293 289
f 41 40 42
f 40 326 42
f 41 42 43
f 43 297 41
f 41 297 293
f 43 42 44
f 42 326 44
f 43 44 45
f 45 303 43
f 43 303 297
f 45 44 46
f 44 326 46
f 45 301 303
f 47 48 49
f 49 479 47
f 47 479 473
f 49 48 50
f 48 178 50
f 49 50 51
f 51 483 49
f 49 483 479
f 51 50 52
f 50 178 52
f 51 52 53
f 53 487 51
f 51 487 483
f 53 52 54
f 52 178 54
f 53 54 55
f 55 491 53
f 53 491 487
f 55 54 56
f 54 178 56
f 55 56 61
f 61 495 55
f 55 495 491
f 61 56 62
f 56 178 62
f 57 58 59
f 57 68 58
f 59 281 57
f 67 68 57
f 57 277 67
f 57 281 277
f 59 58 60
f 58 324 60
f 68 324 58
f 59 285 281
f 60 324 326
f 61 62 63
f 63 499 61
f 61 499 495
f 63 62 64
f 62 178 64
f 63 64 69
f 69 503 63
f 63 503 499
f 69 64 70
f 64 178 70
f 65 66 67
f 65 76 66
f 67 273 65
f 75 76 65
f 65 269 75
f 65 273 269
f 67 66 68
f 66 324 68
f 76 324 66
f 67 277 273
f 69 70 71
f 71 507 69
f 69 507 503
f 71 70 72
f 70 178 72
f 71 72 77
f 77 341 71
f 71 341 507
f 77 72 78
f 178 78 72
f 73 74 75
f 73 84 74
f 75 265 73
f 83 84 73
f 73 249 83
f 73 265 249
f 75 74 76
f 74 324 76
f 84 324 74
f 75 269 265
f 77 78 79
f 79 341 77
f 79 78 80
f 178 80 78
f 79 80 85
f 85 341 79
f 85 80 86
f 80 154 86
f 178 154 80
f 81 82 83
f 81 92 82
f 83 237 81
f 91 92 81
f 81 227 91
f 81 237 227
f 83 82 84
f 82 324 84
f 92 322 82
f 82 322 324
f 83 249 237
f 85 86 87
f 87 341 85
f 87 86 88
f 86 156 88
f 154 156 86
f 87 88 93
f 93 341 87
f 93 88 94
f 88 156 94
f 89 90 91
f 89 100 90
f 91 219 89
f 99 100 89
f 89 205 99
f 89 219 205
f 91 90 92
f 90 344 92
f 100 344 90
f 91 227 219
f 92 344 322
f 93 94 95
f 95 341 93
f 95 94 96
f 94 158 96
f 94 156 158
f 95 96 101
f 101 341 95
f 101 96 102
f 96 158 102
f 97 98 99
f 97 108 98
f 99 207 97
f 107 108 97
f 97 195 107
f 97 207 195
f 99 98 100
f 98 344 100
f 108 344 98
f 99 205 207
f 101 102 103
f 103 341 101
f 103 102 104
f 102 158 104
f 103 104 109
f 109 141 103
f 141 159 103
f 155 153 103
f 153 177 103
f 157 155 103
f 103 159 157
f 177 323 103
f 103 323 321
f 103 321 343
f 103 343 341
f 109 104 110
f 104 142 110
f 160 142 104
f 104 158 160
f 105 106 107
f 105 116 106
f 107 187 105
f 115 116 105
f 105 171 115
f 105 187 171
f 107 106 108
f 106 344 108
f 116 344 106
f 107 195 187
f 109 110 111
f 111 143 109
f 109 143 141
f 111 110 112
f 110 144 112
f 110 142 144
f 111 112 117
f 117 161 111
f 161 143 111
f 117 112 118
f 112 162 118
f 112 144 162
f 113 114 115
f 113 124 114
f 115 173 113
f 123 124 113
f 113 149 123
f 113 173 149
f 115 114 116
f 114 344 116
f 124 342 114
f 114 342 344
f 115 171 173
f 117 118 119
f 119 161 117
f 119 118 120
f 118 162 120
f 119 120 125
f 125 163 119
f 163 161 119
f 125 120 126
f 120 164 126
f 120 162 164
f 121 122 123
f 121 132 122
f 123 151 121
f 131 132 121
f 121 137 131
f 121 151 137
f 123 122 124
f 122 342 124
f 132 342 122
f 123 149 151
f 125 126 127
f 127 163 125
f 127 126 128
f 126 164 128
f 127 128 133
f 133 165 127
f 127 165 163
f 133 128 134
f 128 166 134
f 164 166 128
f 129 130 131
f 129 140 130
f 131 139 129
f 139 140 129
f 131 130 132
f 130 342 132
f 140 342 130
f 131 137 139
f 133 134 135
f 135 179 133
f 179 165 133
f 135 134 136
f 134 180 136
f 134 166 180
f 135 136 145
f 145 179 135
f 145 136 146
f 136 180 146
f 137 138 139
f 137 152 138
f 151 152 137
f 139 138 140
f 138 342 140
f 152 342 138
f 141 144 142
f 141 142 159
f 143 144 141
f 159 142 160
f 143 162 144
f 161 162 143
f 145 146 147
f 147 181 145
f 145 181 179
f 147 146 148
f 146 182 148
f 180 182 146
f 147 148 167
f 167 191 147
f 191 181 147
f 167 148 168
f 148 192 168
f 148 182 192
f 149 150 151
f 149 174 150
f 173 174 149
f 151 150 152
f 150 342 152
f 174 342 150
f 153 156 154
f 153 154 177
f 155 156 153
f 177 154 178
f 155 158 156
f 157 158 155
f 157 160 158
f 159 160 157
f 161 164 162
f 163 164 161
f 163 166 164
f 165 166 163
f 165 180 166
f 179 180 165
f 167 168 169
f 169 191 167
f 169 168 170
f 168 192 170
f 169 170 183
f 183 199 169
f 169 199 191
f 183 170 184
f 170 200 184
f 192 200 170
f 171 172 173
f 171 188 172
f 187 188 171
f 173 172 174
f 172 342 174
f 188 342 172
f 175 178 176
f 175 176 189
f 177 178 175
f 177 175 327
f 327 175 189
f 328 176 178
f 189 176 190
f 328 190 176
f 177 325 323
f 177 327 325
f 179 182 180
f 181 182 179
f 181 192 182
f 191 192 181
f 183 184 185
f 185 199 183
f 185 184 186
f 184 200 186
f 185 186 193
f 193 201 185
f 185 201 199
f 193 186 194
f 186 202 194
f 200 202 186
f 187 196 188
f 195 196 187
f 196 342 188
f 189 190 197
f 327 189 197
f 197 190 198
f 198 190 328
f 191 200 192
f 199 200 191
f 193 194 203
f 193 213 201
f 203 213 193
f 194 202 214
f 203 194 204
f 194 214 204
f 195 208 196
f 207 208 195
f 208 342 196
f 197 198 209
f 315 197 209
f 327 197 315
f 209 198 210
f 316 210 198
f 316 198 328
f 199 202 200
f 201 202 199
f 201 214 202
f 213 214 201
f 203 204 215
f 211 213 203
f 203 223 211
f 215 223 203
f 214 212 204
f 204 212 224
f 215 204 216
f 204 438 216
f 224 234 204
f 234 246 204
f 246 244 204
f 244 414 204
f 204 414 426
f 204 426 424
f 204 424 438
f 205 206 207
f 205 220 206
f 219 220 205
f 207 206 208
f 206 342 208
f 220 342 206
f 209 210 221
f 331 209 221
f 315 209 329
f 329 209 331
f 221 210 222
f 332 222 210
f 330 210 316
f 332 210 330
f 211 212 213
f 211 224 212
f 223 224 211
f 213 212 214
f 215 216 217
f 217 223 215
f 217 216 218
f 216 438 218
f 217 218 225
f 225 223 217
f 225 218 226
f 218 438 226
f 219 228 220
f 227 228 219
f 228 342 220
f 221 222 229
f 333 221 229
f 331 221 333
f 229 222 230
f 334 230 222
f 334 222 332
f 223 234 224
f 225 233 223
f 233 234 223
f 225 226 235
f 235 233 225
f 235 226 236
f 226 438 236
f 227 238 228
f 237 238 227
f 238 342 228
f 229 230 231
f 345 229 231
f 333 229 335
f 335 229 345
f 231 230 232
f 346 232 230
f 336 230 334
f 346 230 336
f 231 232 239
f 345 231 239
f 239 232 240
f 346 240 232
f 233 246 234
f 247 233 235
f 245 246 233
f 245 233 247
f 235 236 247
f 247 236 248
f 236 438 248
f 237 250 238
f 249 250 237
f 250 342 238
f 239 240 241
f 357 239 241
f 345 239 347
f 347 239 357
f 241 240 242
f 358 242 240
f 348 240 346
f 358 240 348
f 241 242 251
f 357 241 251
f 251 242 252
f 358 252 242
f 243 244 245
f 243 262 244
f 243 245 263
f 261 262 243
f 395 261 243
f 243 263 267
f 243 267 271
f 275 243 271
f 279 243 275
f 283 243 279
f 287 243 283
f 291 243 287
f 295 243 291
f 299 243 295
f 305 243 299
f 307 243 305
f 311 243 307
f 317 243 311
f 337 243 317
f 349 243 337
f 349 395 243
f 245 244 246
f 244 262 396
f 244 396 406
f 244 406 414
f 263 245 247
f 247 248 263
f 263 248 264
f 248 438 264
f 249 266 250
f 265 266 249
f 266 342 250
f 251 252 253
f 367 251 253
f 357 251 359
f 359 251 367
f 253 252 254
f 368 254 252
f 360 252 358
f 368 252 360
f 253 254 255
f 375 253 255
f 367 253 375
f 255 254 256
f 376 256 254
f 376 254 368
f 255 256 257
f 397 255 257
f 375 255 383
f 383 255 397
f 257 256 258
f 398 258 256
f 384 256 376
f 398 256 384
f 257 258 259
f 257 259 395
f 397 257 395
f 259 258 260
f 396 260 258
f 396 258 398
f 259 260 261
f 395 259 261
f 261 260 262
f 396 262 260
f 263 264 267
f 267 264 268
f 264 438 268
f 265 270 266
f 269 270 265
f 270 342 266
f 267 268 271
f 271 268 272
f 268 438 272
f 269 274 270
f 273 274 269
f 274 342 270
f 271 272 275
f 275 272 276
f 272 438 276
f 273 278 274
f 277 278 273
f 278 342 274
f 275 276 279
f 279 276 280
f 276 438 280
f 277 282 278
f 281 282 277
f 282 342 278
f 279 280 283
f 283 280 284
f 280 438 284
f 281 286 282
f 285 286 281
f 286 342 282
f 283 284 287
f 287 284 288
f 284 438 288
f 285 290 286
f 289 290 285
f 290 342 286
f 287 288 291
f 291 288 292
f 288 438 292
f 289 294 290
f 293 294 289
f 294 342 290
f 291 292 295
f 295 292 296
f 292 438 296
f 293 298 294
f 297 298 293
f 298 342 294
f 295 296 299
f 299 296 300
f 296 438 300
f 297 304 298
f 303 304 297
f 304 342 298
f 299 300 305
f 305 300 306
f 300 438 306
f 301 302 303
f 301 310 302
f 309 310 301
f 303 302 304
f 302 342 304
f 310 342 302
f 305 306 307
f 307 306 308
f 306 438 308
f 307 308 311
f 311 308 312
f 308 438 312
f 309 314 310
f 313 314 309
f 314 342 310
f 311 312 317
f 317 312 318
f 312 438 318
f 313 320 314
f 319 320 313
f 320 342 314
f 315 316 327
f 315 330 316
f 329 330 315
f 327 316 328
f 317 318 337
f 337 318 338
f 318 438 338
f 319 340 320
f 339 340 319
f 340 342 320
f 321 324 322
f 321 322 343
f 323 324 321
f 343 322 344
f 323 326 324
f 325 326 323
f 325 328 326
f 327 328 325
f 329 332 330
f 331 332 329
f 331 334 332
f 333 334 331
f 333 336 334
f 335 336 333
f 335 346 336
f 345 346 335
f 337 338 349
f 349 338 350
f 338 438 350
f 339 352 340
f 351 352 339
f 352 342 340
f 341 344 342
f 341 342 355
f 343 344 341
f 341 355 507
f 364 342 352
f 355 342 356
f 356 342 576
f 372 342 364
f 380 342 372
f 388 342 380
f 390 342 388
f 402 342 390
f 410 342 402
f 418 342 410
f 430 342 418
f 442 342 430
f 462 342 442
f 468 342 462
f 472 342 468
f 474 342 472
f 480 342 474
f 484 342 480
f 488 342 484
f 492 342 488
f 496 342 492
f 500 342 496
f 504 342 500
f 508 342 504
f 512 342 508
f 516 342 512
f 532 342 516
f 544 342 532
f 554 342 544
f 562 342 554
f 564 342 562
f 576 342 564
f 345 348 346
f 347 348 345
f 347 358 348
f 357 358 347
f 349 350 361
f 361 395 349
f 361 350 362
f 350 438 362
f 351 364 352
f 363 364 351
f 353 356 354
f 353 354 365
f 355 356 353
f 507 355 353
f 507 353 365
f 576 354 356
f 365 354 366
f 576 366 354
f 357 360 358
f 359 360 357
f 359 368 360
f 367 368 359
f 361 362 369
f 369 395 361
f 369 362 370
f 362 438 370
f 363 372 364
f 371 372 363
f 365 366 373
f 507 365 373
f 373 366 374
f 586 374 366
f 586 366 576
f 367 376 368
f 375 376 367
f 369 370 377
f 377 395 369
f 377 370 378
f 370 438 378
f 371 380 372
f 379 380 371
f 373 374 381
f 507 373 381
f 381 374 382
f 586 382 374
f 375 384 376
f 383 384 375
f 377 378 385
f 385 395 377
f 385 378 386
f 378 438 386
f 379 388 380
f 387 388 379
f 381 382 391
f 391 519 381
f 381 535 507
f 519 517 381
f 381 517 535
f 391 382 392
f 382 520 392
f 382 518 520
f 382 536 518
f 586 536 382
f 383 398 384
f 397 398 383
f 385 386 399
f 399 395 385
f 399 386 400
f 386 438 400
f 387 390 388
f 389 390 387
f 389 402 390
f 401 402 389
f 391 392 393
f 393 519 391
f 393 392 394
f 392 520 394
f 393 394 403
f 403 521 393
f 393 521 519
f 403 394 404
f 394 522 404
f 394 520 522
f 395 396 397
f 395 406 396
f 407 395 399
f 405 406 395
f 465 405 395
f 415 395 407
f 427 395 415
f 439 395 427
f 459 395 439
f 465 395 459
f 397 396 398
f 399 400 407
f 407 400 408
f 400 438 408
f 401 410 402
f 409 410 401
f 403 404 411
f 411 525 403
f 403 523 521
f 403 525 523
f 411 404 412
f 404 526 412
f 404 522 524
f 404 524 526
f 405 414 406
f 413 414 405
f 497 413 405
f 469 405 465
f 477 405 469
f 475 405 477
f 481 405 475
f 485 405 481
f 489 405 485
f 493 405 489
f 497 405 493
f 407 408 415
f 415 408 416
f 408 438 416
f 409 418 410
f 417 418 409
f 411 412 419
f 419 527 411
f 411 527 525
f 419 412 420
f 412 528 420
f 412 526 528
f 413 426 414
f 425 426 413
f 551 425 413
f 501 413 497
f 505 413 501
f 509 413 505
f 513 413 509
f 529 413 513
f 541 413 529
f 551 413 541
f 415 416 427
f 427 416 428
f 416 438 428
f 417 430 418
f 429 430 417
f 419 420 421
f 421 527 419
f 421 420 422
f 420 528 422
f 421 422 431
f 431 539 421
f 421 537 527
f 421 539 537
f 431 422 432
f 422 540 432
f 422 528 538
f 422 538 540
f 423 424 425
f 423 438 424
f 559 423 425
f 437 438 423
f 629 437 423
f 573 423 559
f 571 423 573
f 583 423 571
f 591 423 583
f 607 423 591
f 605 423 607
f 629 423 605
f 425 424 426
f 559 425 551
f 427 428 439
f 428 438 440
f 439 428 440
f 429 442 430
f 441 442 429
f 431 432 433
f 539 431 433
f 433 432 434
f 432 540 434
f 433 434 443
f 549 433 443
f 539 433 547
f 547 433 549
f 443 434 444
f 434 550 444
f 434 540 548
f 434 548 550
f 435 436 437
f 435 458 436
f 435 437 675
f 457 458 435
f 675 457 435
f 437 436 438
f 666 438 436
f 670 436 458
f 666 436 664
f 664 436 674
f 676 436 670
f 674 436 672
f 672 436 682
f 678 436 676
f 684 436 678
f 682 436 680
f 680 436 690
f 686 436 684
f 692 436 686
f 690 436 688
f 688 436 698
f 694 436 692
f 700 436 694
f 698 436 696
f 696 436 706
f 702 436 700
f 708 436 702
f 706 436 704
f 704 436 714
f 710 436 708
f 716 436 710
f 714 436 712
f 712 436 722
f 718 436 716
f 724 436 718
f 722 436 720
f 720 436 742
f 726 436 724
f 728 436 726
f 730 436 728
f 732 436 730
f 744 436 732
f 736 436 734
f 734 436 778
f 738 436 736
f 740 436 738
f 742 436 740
f 746 436 744
f 748 436 746
f 750 436 748
f 752 436 750
f 754 436 752
f 756 436 754
f 758 436 756
f 760 436 758
f 780 436 760
f 764 436 762
f 762 436 780
f 766 436 764
f 768 436 766
f 770 436 768
f 772 436 770
f 774 436 772
f 776 436 774
f 778 436 776
f 627 437 629
f 641 437 627
f 639 437 641
f 649 437 639
f 647 437 649
f 657 437 647
f 655 437 657
f 665 437 655
f 663 437 665
f 673 437 663
f 671 437 673
f 681 437 671
f 675 437 677
f 677 437 683
f 679 437 681
f 689 437 679
f 683 437 685
f 685 437 691
f 687 437 689
f 697 437 687
f 691 437 693
f 693 437 699
f 695 437 697
f 705 437 695
f 699 437 701
f 701 437 707
f 703 437 705
f 713 437 703
f 707 437 709
f 709 437 715
f 711 437 713
f 721 437 711
f 715 437 717
f 717 437 723
f 719 437 721
f 741 437 719
f 723 437 725
f 725 437 727
f 727 437 729
f 729 437 731
f 731 437 743
f 733 437 735
f 777 437 733
f 735 437 737
f 737 437 739
f 739 437 741
f 743 437 745
f 745 437 747
f 747 437 749
f 749 437 751
f 751 437 753
f 753 437 755
f 755 437 757
f 757 437 759
f 759 437 779
f 761 437 763
f 779 437 761
f 763 437 765
f 765 437 767
f 767 437 769
f 769 437 771
f 771 437 773
f 773 437 775
f 775 437 777
f 440 438 460
f 460 438 466
f 466 438 470
f 470 438 478
f 478 438 476
f 476 438 482
f 482 438 486
f 486 438 490
f 490 438 494
f 494 438 498
f 498 438 502
f 502 438 506
f 506 438 510
f 510 438 514
f 514 438 530
f 530 438 542
f 542 438 552
f 552 438 560
f 560 438 574
f 574 438 572
f 572 438 584
f 584 438 592
f 592 438 608
f 608 438 606
f 606 438 630
f 630 438 628
f 628 438 642
f 642 438 640
f 640 438 650
f 650 438 648
f 648 438 658
f 658 438 656
f 656 438 666
f 439 440 459
f 459 440 460
f 441 462 442
f 461 462 441
f 443 444 445
f 549 443 445
f 445 444 446
f 444 550 446
f 445 446 447
f 557 445 447
f 549 445 557
f 447 446 448
f 446 558 448
f 446 550 558
f 447 448 449
f 581 447 449
f 557 447 569
f 569 447 581
f 449 448 450
f 448 582 450
f 448 558 570
f 448 570 582
f 449 450 463
f 589 449 463
f 581 449 589
f 463 450 464
f 450 590 464
f 450 582 590
f 451 452 453
f 451 464 452
f 601 451 453
f 463 464 451
f 603 463 451
f 603 451 601
f 453 452 454
f 670 454 452
f 464 604 452
f 452 604 602
f 602 670 452
f 453 454 455
f 453 455 601
f 455 454 456
f 670 456 454
f 455 456 457
f 675 455 457
f 601 455 675
f 457 456 458
f 670 458 456
f 459 460 465
f 465 460 466
f 461 468 462
f 467 468 461
f 589 463 603
f 464 590 604
f 465 466 469
f 469 466 470
f 467 472 468
f 471 472 467
f 469 470 477
f 477 470 478
f 471 474 472
f 473 474 471
f 473 480 474
f 479 480 473
f 475 478 476
f 475 476 481
f 477 478 475
f 481 476 482
f 479 484 480
f 483 484 479
f 481 482 485
f 485 482 486
f 483 488 484
f 487 488 483
f 485 486 489
f 489 486 490
f 487 492 488
f 491 492 487
f 489 490 493
f 493 490 494
f 491 496 492
f 495 496 491
f 493 494 497
f 497 494 498
f 495 500 496
f 499 500 495
f 497 498 501
f 501 498 502
f 499 504 500
f 503 504 499
f 501 502 505
f 505 502 506
f 503 508 504
f 507 508 503
f 505 506 509
f 509 506 510
f 507 512 508
f 511 512 507
f 507 535 511
f 509 510 513
f 513 510 514
f 511 516 512
f 515 516 511
f 511 535 515
f 513 514 529
f 529 514 530
f 515 532 516
f 531 532 515
f 515 533 531
f 535 533 515
f 517 520 518
f 517 518 535
f 519 520 517
f 535 518 536
f 519 522 520
f 521 522 519
f 521 524 522
f 523 524 521
f 523 526 524
f 525 526 523
f 525 528 526
f 527 528 525
f 527 538 528
f 537 538 527
f 529 530 541
f 541 530 542
f 531 544 532
f 533 545 531
f 543 544 531
f 531 545 543
f 533 536 534
f 533 534 545
f 535 536 533
f 586 534 536
f 545 534 546
f 586 546 534
f 537 540 538
f 539 540 537
f 539 548 540
f 547 548 539
f 541 542 551
f 551 542 552
f 543 554 544
f 543 545 553
f 553 554 543
f 545 546 555
f 553 545 555
f 555 546 556
f 594 556 546
f 594 546 586
f 547 550 548
f 549 550 547
f 549 558 550
f 557 558 549
f 551 552 559
f 559 552 560
f 553 562 554
f 553 555 561
f 561 562 553
f 555 556 567
f 561 555 563
f 563 555 575
f 575 555 567
f 567 556 568
f 594 568 556
f 557 570 558
f 569 570 557
f 559 560 573
f 573 560 574
f 561 564 562
f 563 564 561
f 563 576 564
f 575 576 563
f 565 568 566
f 565 566 577
f 567 568 565
f 567 565 575
f 575 565 585
f 585 565 577
f 566 568 596
f 577 566 578
f 596 578 566
f 596 568 594
f 569 582 570
f 581 582 569
f 571 574 572
f 571 572 583
f 573 574 571
f 583 572 584
f 575 586 576
f 585 586 575
f 577 578 579
f 593 577 579
f 585 577 593
f 579 578 580
f 610 580 578
f 610 578 596
f 579 580 587
f 609 579 587
f 593 579 595
f 595 579 609
f 587 580 588
f 612 588 580
f 612 580 610
f 581 590 582
f 589 590 581
f 583 584 591
f 591 584 592
f 585 594 586
f 593 594 585
f 587 588 597
f 587 597 631
f 609 587 611
f 611 587 631
f 597 588 598
f 598 588 632
f 632 588 612
f 589 604 590
f 603 604 589
f 591 592 607
f 607 592 608
f 593 596 594
f 595 596 593
f 595 610 596
f 609 610 595
f 597 598 599
f 633 597 599
f 631 597 633
f 599 598 600
f 600 598 634
f 634 598 632
f 599 600 613
f 599 613 645
f 633 599 643
f 643 599 645
f 613 600 614
f 644 614 600
f 644 600 634
f 601 602 603
f 601 626 602
f 625 626 601
f 625 601 675
f 603 602 604
f 668 602 626
f 670 602 668
f 605 608 606
f 605 606 629
f 607 608 605
f 629 606 630
f 609 612 610
f 611 612 609
f 611 632 612
f 631 632 611
f 613 614 615
f 651 613 615
f 645 613 651
f 615 614 616
f 616 614 646
f 646 614 644
f 615 616 617
f 615 617 659
f 651 615 653
f 653 615 659
f 617 616 618
f 652 618 616
f 652 616 646
f 617 618 635
f 617 635 667
f 659 617 661
f 661 617 667
f 635 618 636
f 654 636 618
f 654 618 652
f 619 620 621
f 619 638 620
f 675 619 621
f 637 638 619
f 637 619 675
f 621 620 622
f 622 620 662
f 660 620 638
f 662 620 660
f 621 622 623
f 621 623 675
f 623 622 624
f 662 624 622
f 623 624 625
f 623 625 675
f 625 624 626
f 668 626 624
f 668 624 662
f 627 630 628
f 627 628 641
f 629 630 627
f 641 628 642
f 631 634 632
f 633 634 631
f 633 644 634
f 643 644 633
f 635 636 637
f 669 635 637
f 667 635 669
f 637 636 638
f 638 636 660
f 660 636 654
f 669 637 675
f 639 642 640
f 639 640 649
f 641 642 639
f 649 640 650
f 643 646 644
f 645 646 643
f 645 652 646
f 651 652 645
f 647 650 648
f 647 648 657
f 649 650 647
f 657 648 658
f 651 654 652
f 653 654 651
f 653 660 654
f 659 660 653
f 655 658 656
f 655 656 665
f 657 658 655
f 665 656 666
f 659 662 660
f 661 662 659
f 661 668 662
f 667 668 661
f 663 666 664
f 663 664 673
f 665 666 663
f 673 664 674
f 667 670 668
f 669 670 667
f 669 676 670
f 675 676 669
f 671 674 672
f 671 672 681
f 673 674 671
f 681 672 682
f 675 678 676
f 677 678 675
f 677 684 678
f 683 684 677
f 679 682 680
f 679 680 689
f 681 682 679
f 689 680 690
f 683 686 684
f 685 686 683
f 685 692 686
f 691 692 685
f 687 690 688
f 687 688 697
f 689 690 687
f 697 688 698
f 691 694 692
f 693 694 691
f 693 700 694
f 699 700 693
f 695 698 696
f 695 696 705
f 697 698 695
f 705 696 706
f 699 702 700
f 701 702 699
f 701 708 702
f 707 708 701
f 703 706 704
f 703 704 713
f 705 706 703
f 713 704 714
f 707 710 708
f 709 710 707
f 709 716 710
f 715 716 709
f 711 714 712
f 711 712 721
f 713 714 711
f 721 712 722
f 715 718 716
f 717 718 715
f 717 724 718
f 723 724 717
f 719 722 720
f 719 720 741
f 721 722 719
f 741 720 742
f 723 726 724
f 725 726 723
f 725 728 726
f 727 728 725
f 727 730 728
f 729 730 727
f 729 732 730
f 731 732 729
f 731 744 732
f 743 744 731
f 733 736 734
f 733 734 777
f 735 736 733
f 777 734 778
f 735 738 736
f 737 738 735
f 737 740 738
f 739 740 737
f 739 742 740
f 741 742 739
f 743 746 744
f 745 746 743
f 745 748 746
f 747 748 745
f 747 750 748
f 749 750 747
f 749 752 750
f 751 752 749
f 751 754 752
f 753 754 751
f 753 756 754
f 755 756 753
f 755 758 756
f 757 758 755
f 757 760 758
f 759 760 757
f 759 780 760
f 779 780 759
f 761 764 762
f 761 762 779
f 763 764 761
f 779 762 780
f 763 766 764
f 765 766 763
f 765 768 766
f 767 768 765
f 767 770 768
f 769 770 767
f 769 772 770
f 771 772 769
f 771 774 772
f 773 774 771
f 773 776 774
f 775 776 773
f 775 778 776
f 777 778 775
