# CAD visual only; metres; body-local coordinates
v 0.035 -0.0375 0.0830000019
v 0.035 -0.0375 0.065
v 0.035 -0.0025 0.065
v 0.035 -0.0025 0.0830000019
v 0.035 -0.0025 0.0830000019
v 0.035 -0.0025 0.065
v -0.035 -0.0025 0.065
v -0.035 -0.0025 0.0830000019
v -0.035 -0.0025 0.0830000019
v -0.035 -0.0025 0.065
v -0.035 -0.0375 0.065
v -0.035 -0.0375 0.0830000019
v -0.035 -0.0375 0.0830000019
v -0.035 -0.0375 0.065
v 0.035 -0.0375 0.065
v 0.035 -0.0375 0.0830000019
v 0.035 -0.0025 0.065
v 0.035 -0.0375 0.065
v -0.035 -0.0375 0.065
v -0.035 -0.0025 0.065
v 0.035 -0.0375 0.0830000019
v 0.035 -0.0025 0.0830000019
v -0.035 -0.0025 0.0830000019
v -0.035 -0.0375 0.0830000019
v 0.0325 -0.0375 0.060999999
v 0.0325 -0.0375 0.0430000019
v 0.0325 -0.0025 0.0430000019
v 0.0325 -0.0025 0.060999999
v 0.0325 -0.0025 0.060999999
v 0.0325 -0.0025 0.0430000019
v -0.0325 -0.0025 0.0430000019
v -0.0325 -0.0025 0.060999999
v -0.0325 -0.0025 0.060999999
v -0.0325 -0.0025 0.0430000019
v -0.0325 -0.0375 0.0430000019
v -0.0325 -0.0375 0.060999999
v -0.0325 -0.0375 0.060999999
v -0.0325 -0.0375 0.0430000019
v 0.0325 -0.0375 0.0430000019
v 0.0325 -0.0375 0.060999999
v 0.0325 -0.0025 0.0430000019
v 0.0325 -0.0375 0.0430000019
v -0.0325 -0.0375 0.0430000019
v -0.0325 -0.0025 0.0430000019
v 0.0325 -0.0375 0.060999999
v 0.0325 -0.0025 0.060999999
v -0.0325 -0.0025 0.060999999
v -0.0325 -0.0375 0.060999999
v 0.035 -0.0225 0.035999999
v 0.035 -0.0225 0.00800000012
v 0.035 0.0225 0.00800000012
v 0.035 0.0225 0.035999999
v 0.035 0.0225 0.035999999
v 0.035 0.0225 0.00800000012
v -0.035 0.0225 0.00800000012
v -0.035 0.0225 0.035999999
v -0.035 0.0225 0.035999999
v -0.035 0.0225 0.00800000012
v -0.035 -0.0225 0.00800000012
v -0.035 -0.0225 0.035999999
v -0.035 -0.0225 0.035999999
v -0.035 -0.0225 0.00800000012
v 0.035 -0.0225 0.00800000012
v 0.035 -0.0225 0.035999999
v 0.035 0.0225 0.00800000012
v 0.035 -0.0225 0.00800000012
v -0.035 -0.0225 0.00800000012
v -0.035 0.0225 0.00800000012
v 0.035 -0.0225 0.035999999
v 0.035 0.0225 0.035999999
v -0.035 0.0225 0.035999999
v -0.035 -0.0225 0.035999999
f 1 2 4
f 4 2 3
f 5 6 8
f 8 6 7
f 9 10 12
f 12 10 11
f 13 14 16
f 16 14 15
f 18 19 17
f 17 19 20
f 22 23 21
f 21 23 24
f 25 26 28
f 28 26 27
f 29 30 32
f 32 30 31
f 33 34 36
f 36 34 35
f 37 38 40
f 40 38 39
f 42 43 41
f 41 43 44
f 46 47 45
f 45 47 48
f 49 50 52
f 52 50 51
f 53 54 56
f 56 54 55
f 57 58 60
f 60 58 59
f 61 62 64
f 64 62 63
f 66 67 65
f 65 67 68
f 70 71 69
f 69 71 72
