# CAD visual only; metres; body-local coordinates
v -4.55261143e-09 0.0141421375 0
v 0.000240941263 0.0139012012 -0.00258819103
v 0.000210042216 0.0139321003 -0.00241921902
v 0.000154519297 0.0139876232 -0.00207911491
v 0.000181231714 0.0139609012 0.00224951267
v 0.000210042216 0.0139321003 0.00241921902
v 0.000240941263 0.0139012012 0.00258819103
v 0.0001299145 0.014012228 -0.00190808773
v 8.70563757e-05 0.0140550861 -0.00156434536
v 6.88125861e-05 0.0140733204 -0.00139173031
v 3.87336981e-05 0.0141033992 -0.00104528427
v 2.69081366e-05 0.0141152248 -0.000871558189
v 9.69431519e-06 0.0141324482 -0.000523357391
v 4.3060553e-06 0.0141378269 -0.000348997116
v 1.07309937e-06 0.0141410503 -0.0001745224
v 1.07309937e-06 0.0141410503 0.0001745224
v 4.3060553e-06 0.0141378269 0.000348997116
v 1.72283423e-05 0.0141249141 0.000697565079
v 2.69081366e-05 0.0141152248 0.000871558189
v 5.27050269e-05 0.0140894375 0.00121869564
v 6.88125861e-05 0.0140733204 0.00139173031
v 0.000107426859 0.0140347156 0.00173648357
v 0.0001299145 0.014012228 0.00190808773
v 0.000469660975 0.013672472 -0.0035836792
v 0.000426440455 0.0137156925 -0.00342020035
v 0.000426440455 0.0137156925 0.00342020035
v 0.000469660975 0.013672472 0.0035836792
v 0.000385241724 0.0137568912 -0.00325568199
v 0.000346083857 0.0137960491 -0.00309017181
v 0.000273919321 0.0138682232 -0.0027563715
v 0.000308976389 0.0138331661 0.0029237175
v 0.000346083857 0.0137960491 0.00309017181
v 0.000385241724 0.0137568912 0.00325568199
v 0.000715632654 0.0134265003 -0.00438371181
v 0.000662503458 0.013479639 -0.00422618389
v 0.000662503458 0.013479639 0.00422618389
v 0.000715632654 0.0134265003 0.00438371181
v 0.000611329294 0.0135308132 -0.00406736851
v 0.0005621197 0.0135800228 -0.00390731335
v 0.000514884211 0.0136272487 -0.00374606609
v 0.000514884211 0.0136272487 0.00374606609
v 0.0005621197 0.0135800228 0.00390731335
v 0.000611329294 0.0135308132 0.00406736851
v 0.000947346903 0.0131947956 -0.005
v 0.000947346903 0.0131947956 0.005
v 0.000886569239 0.0132555637 -0.00484809399
v 0.000770697809 0.0133714351 -0.00453990459
v 0.000827689387 0.0133144436 0.00469471455
v 0.000886569239 0.0132555637 0.00484809399
v 0.00120888255 0.0129332409 -0.00559192896
v 0.00120888255 0.0129332409 0.00559193134
v 0.00107446215 0.0130676708 -0.00529919147
v 0.00100998423 0.0131321583 -0.00515038013
v 0.00100998423 0.0131321583 0.00515038013
v 0.00114077113 0.0130013714 0.00544639111
v 0.00142385981 0.0127182827 -0.00601814985
v 0.00149899027 0.0126431522 0.00615661621
v 0.0013504555 0.0127916774 -0.00587785244
v 0.00127878688 0.0128633556 -0.0057357645
v 0.00127878688 0.0128633556 0.0057357645
v 0.0013504555 0.0127916774 0.00587785244
v 0.00148302577 0.0154875431 -0.00139173031
v 0.00148302577 0.0154875431 0.00139173031
v 0.00146691821 0.0155036411 -0.00121869564
v 0.00144112132 0.0155294475 -0.000871558189
v 0.00143144152 0.0155391178 -0.000697565079
v 0.00141851924 0.0155520496 -0.000348997116
v 0.00141528628 0.015555273 -0.0001745224
v 0.00141421816 0.0155563411 0
v 0.00141851924 0.0155520496 0.000348997116
v 0.0014239075 0.0155466518 0.000523357391
v 0.00144112132 0.0155294475 0.000871558189
v 0.00145294688 0.015517622 0.00104528427
v 0.001734462 0.0124076709 -0.00656059027
v 0.00165431521 0.0124878177 -0.00642787695
v 0.00165431521 0.0124878177 0.00642787457
v 0.001734462 0.0124076709 0.00656059265
v 0.00157581828 0.0125663242 -0.00629320383
v 0.00157581828 0.0125663242 0.00629320621
v 0.00172318957 0.0152473697 -0.0029237175
v 0.00172318957 0.0152473697 0.0029237175
v 0.0016881325 0.0152824268 -0.0027563715
v 0.00165515444 0.0153154049 -0.00258819103
v 0.0016242554 0.0153463039 -0.00241921902
v 0.0015954449 0.0153751239 -0.00224951267
v 0.00154412768 0.0154264316 -0.00190808773
v 0.00152164004 0.0154489193 -0.00173648357
v 0.00150126956 0.0154692898 0.00156434536
v 0.00154412768 0.0154264316 0.00190808773
v 0.00156873248 0.0154018268 0.00207911491
v 0.0016242554 0.0153463039 0.00241921902
v 0.00165515444 0.0153154049 0.00258819103
v 0.0016881325 0.0152824268 0.0027563715
v 0.00189961932 0.0122425136 -0.00681998253
v 0.00198456309 0.0121575603 0.00694658279
v 0.00181623957 0.0123259029 -0.00669130564
v 0.00181623957 0.0123259029 0.00669130802
v 0.00197633288 0.0149942264 -0.00390731335
v 0.00197633288 0.0149942264 0.00390731335
v 0.00192909739 0.0150414524 -0.00374606609
v 0.00184065364 0.0151299152 -0.00342020035
v 0.00176029704 0.0152102718 -0.00309017181
v 0.00176029704 0.0152102718 0.00309017181
v 0.0017994549 0.0151711139 0.00325568199
v 0.00188387416 0.0150866947 0.0035836792
v 0.0022486069 0.011893526 -0.0073135376
v 0.00215909503 0.0119830379 -0.00719339848
v 0.00215909503 0.0119830379 0.00719339848
v 0.0022486069 0.011893526 0.0073135376
v 0.00207107089 0.0120710621 -0.00707106829
v 0.00207107089 0.0120710621 0.0070710659
v 0.00224190257 0.0147286663 -0.00469471455
v 0.00224190257 0.0147286663 0.00469471455
v 0.00218491099 0.0147856579 -0.00453990459
v 0.00212984583 0.014840723 -0.00438371181
v 0.00207671664 0.0148938427 -0.00422618389
v 0.00202554247 0.0149450168 0.00406736851
v 0.00212984583 0.014840723 0.00438371181
v 0.00218491099 0.0147856579 0.00453990459
v 0.00243202708 0.0117100963 -0.00754709482
v 0.00243202708 0.0117100963 0.00754709721
v 0.00233959696 0.0118025264 -0.00743144751
v 0.00233959696 0.0118025264 0.00743144989
v 0.00248867533 0.0144818935 -0.00529919147
v 0.00248867533 0.0144818935 0.00529919147
v 0.00242419741 0.0145463619 -0.00515038013
v 0.00236156008 0.0146089992 -0.005
v 0.00230078242 0.0146697674 0.00484809399
v 0.00236156008 0.0146089992 0.005
v 0.00271768115 0.0114244518 -0.00788010836
v 0.00271768115 0.0114244518 0.00788010597
v 0.00262110255 0.0115210399 -0.00777145863
v 0.00252586863 0.0116162548 -0.00766044378
v 0.00252586863 0.0116162548 0.00766044617
v 0.00262110255 0.0115210399 0.00777145863
v 0.00269300006 0.0142775593 -0.0057357645
v 0.00255498431 0.014415575 -0.00544639111
v 0.00255498431 0.014415575 0.00544639111
v 0.00262309573 0.0143474636 0.00559193134
v 0.00291479609 0.0112273464 -0.00809016943
v 0.00291479609 0.0112273464 0.00809017181
v 0.00281559489 0.0113265476 -0.00798635483
v 0.00281559489 0.0113265476 0.00798635483
v 0.00299003146 0.0139805278 -0.00629320383
v 0.00299003146 0.0139805278 0.00629320621
v 0.00291320346 0.0140573559 -0.00615661383
v 0.00276466868 0.0142059002 -0.00587785244
v 0.00276466868 0.0142059002 0.00587785244
v 0.00283807299 0.0141324863 0.00601815224
v 0.00321988604 0.0109222469 -0.00838670492
v 0.00321988604 0.0109222469 0.00838670731
v 0.00311697505 0.0110251674 -0.00829037666
v 0.00301526568 0.0111268673 -0.00819152117
v 0.00301526568 0.0111268673 0.00819151878
v 0.00311697505 0.0110251674 0.00829037666
v 0.00323045275 0.0137401066 -0.00669130564
v 0.00323045275 0.0137401066 0.00669130802
v 0.00314867518 0.0138218746 -0.00656059027
v 0.00306852839 0.0139020405 -0.00642787695
v 0.00306852839 0.0139020405 0.00642787457
v 0.00314867518 0.0138218746 0.00656059265
v 0.00342919848 0.0107129345 -0.00857167244
v 0.00342919848 0.0107129345 0.00857167244
v 0.00332397006 0.0108181629 -0.0084804821
v 0.00332397006 0.0108181629 0.0084804821
v 0.00348528407 0.0134852848 -0.00707106829
v 0.00348528407 0.0134852848 0.0070710659
v 0.00339877627 0.013571783 -0.00694658279
v 0.0033138325 0.0136567363 0.00681998253
v 0.00364294551 0.010499197 -0.00874619722
v 0.00364294551 0.010499197 0.00874619484
v 0.00353553317 0.0106065998 -0.00866025448
v 0.00353553317 0.0106065998 0.00866025448
v 0.00366282008 0.0133077297 -0.0073135376
v 0.00357330821 0.0133972606 -0.00719339848
v 0.00357330821 0.0133972606 0.00719339848
v 0.00366282008 0.0133077297 0.0073135376
v 0.00397131465 0.0101708278 -0.00898793936
v 0.00397131465 0.0101708278 0.00898794174
v 0.00375140689 0.0103907261 -0.00882947683
v 0.00386086962 0.0102812633 0.0089100647
v 0.00394009135 0.0130304775 -0.00766044378
v 0.00375381014 0.0132167492 -0.00743144751
v 0.00375381014 0.0132167492 0.00743144989
v 0.00384624026 0.013124319 0.00754709721
v 0.00419500849 0.00994713399 -0.0091354537
v 0.00419500849 0.00994713399 0.00913545609
v 0.00408270381 0.0100594387 -0.00906307697
v 0.00408270381 0.0100594387 0.00906307697
v 0.00422980807 0.0127407512 -0.00798635483
v 0.00422980807 0.0127407512 0.00798635483
v 0.00413189433 0.0128386745 -0.00788010836
v 0.00403531573 0.0129352436 0.00777145863
v 0.00442220233 0.00971993062 -0.00927183867
v 0.00442220233 0.00971993062 0.00927183628
v 0.00430818102 0.00983395192 -0.00920504808
v 0.00430818102 0.00983395192 0.00920505047
v 0.00442947886 0.0125410709 -0.00819152117
v 0.00432900927 0.01264155 0.00809017181
v 0.00465261958 0.00948952291 -0.00939692736
v 0.00465261958 0.00948952291 0.00939692497
v 0.00453702471 0.00960510823 -0.00933580399
v 0.00453702471 0.00960510823 0.00933580399
v 0.00473818324 0.0122323856 -0.0084804821
v 0.00473818324 0.0122323856 0.0084804821
v 0.00463409922 0.0123364696 -0.00838670492
v 0.00453118823 0.0124393711 0.00829037666
v 0.00488598368 0.00925613973 -0.0095105648
v 0.00476894877 0.00937317464 -0.00945518494
v 0.00476894877 0.00937317464 0.00945518494
v 0.00488598368 0.00925613973 0.0095105648
v 0.00494974635 0.0120208225 -0.00866025448
v 0.00484341166 0.0121271572 0.00857167244
v 0.00524094126 0.00890120122 -0.00965925932
v 0.00524094126 0.00890120122 0.00965925694
v 0.00500368617 0.00913845632 -0.00956304789
v 0.00512201808 0.00902012441 0.00961261749
v 0.00516562007 0.0118049488 -0.00882947683
v 0.00505715869 0.0119134006 -0.00874619722
v 0.00505715869 0.0119134006 0.00874619484
v 0.00516562007 0.0118049488 0.00882947445
v 0.00548042796 0.00866171453 -0.00974370003
v 0.00548042796 0.00866171453 0.00974370003
v 0.00536041758 0.00878170583 -0.00970295668
v 0.00536041758 0.00878170583 0.00970295906
v 0.00549691699 0.0114736423 -0.00906307697
v 0.00549691699 0.0114736423 0.00906307697
v 0.00538552783 0.0115850315 -0.00898793936
v 0.0052750828 0.011695486 0.0089100647
v 0.00572184107 0.00842028234 -0.00981627226
v 0.00572184107 0.00842028234 0.00981626987
v 0.00560090563 0.00854122731 -0.00978147507
v 0.00560090563 0.00854122731 0.00978147507
v 0.00572239421 0.0112481746 -0.00920504808
v 0.00572239421 0.0112481746 0.00920505047
v 0.00560922167 0.0113613376 -0.0091354537
v 0.00560922167 0.0113613376 0.00913545609
v 0.00596491358 0.0081772289 -0.00987688303
v 0.00596491358 0.0081772289 0.00987688541
v 0.00584318659 0.00829893682 -0.0098480773
v 0.00584318659 0.00829893682 0.00984807968
v 0.00595123789 0.0110193309 -0.00933580399
v 0.00583641551 0.0111341533 0.00927183628
v 0.00620932124 0.00793282125 -0.00992546082
v 0.00624678156 0.00789536092 -0.000943980217
v 0.00615251086 0.00798962209 -0.000749998093
v 0.00614339373 0.00799873921 0.000727214813
v 0.00616190455 0.00798023793 0.000772557259
v 0.00620932124 0.00793282125 0.00992546082
v 0.00608696482 0.00805517766 -0.00990267992
v 0.00613456271 0.00800757024 -0.00070420742
v 0.00606819651 0.00807394597 -0.000488352776
v 0.00602346919 0.0081186733 -0.000234651566
v 0.00601040385 0.00813171956 0
v 0.00602652094 0.00811562154 0.000260472298
v 0.00607437632 0.00806776616 0.000513029099
v 0.00608696482 0.00805517766 0.0099026823
v 0.00618317149 0.0107873974 -0.00945518494
v 0.00606683276 0.0109037265 0.00939692497
v 0.00645478747 0.00768734548 -0.00996194601
v 0.00639746211 0.00774468038 -0.00855000019
v 0.00649303935 0.00764910314 -0.00726395607
v 0.00649339221 0.00764874074 -0.0012580061
v 0.00647795222 0.00766419026 -0.00124355793
v 0.00640357516 0.00773855779 0.00116571903
v 0.00649339221 0.00764874074 0.0012580061
v 0.00649303935 0.00764910314 0.00726395607
v 0.00639746211 0.00774468038 0.00855000019
v 0.00645478747 0.00768734548 0.00996194839
v 0.00633194468 0.0078101978 -0.00994521856
v 0.00638429186 0.00775784108 -0.00851641893
v 0.00631635211 0.00782578084 -0.00826611519
v 0.00629336856 0.00784876439 -0.00801919699
v 0.00631318591 0.00782894704 -0.00775255442
v 0.00637802622 0.00776411626 -0.00750061035
v 0.00639077685 0.0077513561 -0.00746670961
v 0.00638928912 0.00775284383 -0.00114906788
v 0.00627057574 0.00787155721 -0.00098408699
v 0.00625855944 0.0078835735 0.000964179039
v 0.00628283999 0.00785929296 0.00100369453
v 0.00639077685 0.0077513561 0.00746670723
v 0.00637802622 0.00776411626 0.00750061035
v 0.00631318591 0.00782894704 0.00775255203
v 0.00629325411 0.00784887883 0.00800000191
v 0.00631635211 0.00782578084 0.00826611519
v 0.00638429186 0.00775784108 0.00851641655
v 0.00633194468 0.0078101978 0.00994522095
v 0.00641789935 0.01055266 -0.00956304789
v 0.00630019686 0.0106703624 0.0095105648
v 0.00670099757 0.00744114491 -0.0099862957
v 0.00664743922 0.00749470326 -0.00892253876
v 0.00674234889 0.0073997936 -0.00700306177
v 0.00674330256 0.00739882085 -0.0014265871
v 0.00665663264 0.00748550984 0.00138075829
v 0.00674234889 0.0073997936 0.00700305939
v 0.00664743922 0.00749470326 0.00892253876
v 0.00670099757 0.00744114491 0.0099862957
v 0.00657781146 0.00756432149 -0.00997564077
v 0.00650220416 0.00763992879 -0.00875019789
v 0.0066361191 0.00750601384 -0.00708805799
v 0.00663965724 0.00750248525 -0.00137032032
v 0.00650900385 0.00763313863 0.00127207279
v 0.0066361191 0.00750601384 0.00708806038
v 0.00650220416 0.00763992879 0.00875020027
v 0.00657781146 0.00756432149 0.00997563839
v 0.00665515444 0.0103154049 -0.00965925932
v 0.00653623126 0.0104343281 0.00961261749
v 0.00694766543 0.00719446752 -0.00999847651
v 0.00689610026 0.00724604222 -0.00907180786
v 0.00698976061 0.00715237233 -0.00690602541
v 0.0069970753 0.00714504811 -0.00149634838
v 0.00690514109 0.00723698232 0.00148153305
v 0.00698976061 0.00715237233 0.00690602779
v 0.00689610026 0.00724604222 0.00907180786
v 0.00694766543 0.00719446752 0.00999847889
v 0.00682428858 0.0073178539 -0.00999390841
v 0.00675469897 0.00738743398 -0.00900490046
v 0.00688290141 0.00725924108 -0.00693267584
v 0.00688688777 0.00725525472 -0.00147721291
v 0.00676096461 0.00738117787 0.00143445492
v 0.00688290141 0.00725924108 0.00693267345
v 0.00675469897 0.00738743398 0.00900489807
v 0.00682428858 0.0073178539 0.00999390602
v 0.00689464114 0.0100759182 -0.00974370003
v 0.00677463076 0.0101959285 0.00970295906
v 0.00719447634 0.0069476566 -0.00999847651
v 0.00715237162 0.00698977086 -0.00909397364
v 0.00724604151 0.00689610097 -0.00692819357
v 0.00723699114 0.0069051418 -0.00148153305
v 0.00714505694 0.00699707601 0.00149634838
v 0.00724604151 0.00689610097 0.00692819118
v 0.00715237162 0.00698977086 0.00909397602
v 0.00719447634 0.0069476566 0.00999847889
v 0.00707107089 0.00707106206 -0.01
v 0.00700327418 0.0071388683 -0.00909581423
v 0.00707107089 0.00707106206 -0.00690000057
v 0.00707107089 0.00707106206 -0.00150000095
v 0.00712657473 0.00701555821 -0.00149794579
v 0.00708958171 0.00705256078 0.00149977207
v 0.00707107089 0.00707106206 0.00150000095
v 0.00713885806 0.00700327489 0.0069041872
v 0.00707107089 0.00707106206 0.00909999847
v 0.00707107089 0.00707106206 0.01
v 0.00713605425 0.00983450505 -0.00981627226
v 0.00701512835 0.00995543096 0.00978147507
v 0.00744113467 0.00670099828 -0.0099862957
v 0.00739978335 0.0067423496 -0.00899693966
v 0.00749469302 0.00664743993 -0.00707746267
v 0.0074854996 0.00665663335 -0.00138075829
v 0.00739882968 0.00674330327 0.0014265871
v 0.00749469302 0.00664743993 0.00707746029
v 0.00739978335 0.0067423496 0.00899693966
v 0.00744113467 0.00670099828 0.0099862957
v 0.00731784365 0.00682428929 -0.00999390841
v 0.00725924037 0.00688290212 -0.00906732559
v 0.00738743327 0.00675470922 -0.00699510098
v 0.00738117716 0.00676096532 -0.00143445492
v 0.00725525401 0.00688688848 0.00147721291
v 0.00738743327 0.00675470922 0.00699510098
v 0.00725924037 0.00688290212 0.00906732559
v 0.00731784365 0.00682428929 0.00999390602
v 0.0074885895 0.0094819698 -0.000513029099
v 0.0074709656 0.00949959371 -0.000438556671
v 0.00748240969 0.00948814961 0.000488352776
v 0.00749507449 0.00947548482 0.000537552834
v 0.00737912676 0.00959143254 -0.00987688303
v 0.00744073413 0.00952982518 -0.000260472298
v 0.00742477915 0.00954577062 -2.617836e-05
v 0.00743768237 0.00953287694 0.000234651566
v 0.00746571086 0.00950485799 0.000413455963
v 0.00725739977 0.00971315953 0.00984807968
v 0.0076873543 0.00645477864 -0.00996194601
v 0.00764910243 0.00649304006 -0.00873604298
v 0.00774467967 0.00639746282 -0.00744999886
v 0.00764874003 0.00649338338 -0.0012580061
v 0.00773856661 0.00640356633 -0.00116571903
v 0.00766418002 0.00647795293 0.00124355793
v 0.00764874003 0.00649338338 0.0012580061
v 0.00774467967 0.00639746282 0.00744999886
v 0.00764910243 0.00649304006 0.00873604298
v 0.0076873543 0.00645477864 0.00996194839
v 0.00756432078 0.0065778217 -0.00997564077
v 0.00750601313 0.00663611028 -0.00891194105
v 0.00763992808 0.0065022144 -0.00724980116
v 0.00763312838 0.00650900456 -0.00127207279
v 0.007502475 0.00663965795 0.00137032032
v 0.00763992808 0.0065022144 0.00724980354
v 0.00750601313 0.00663611028 0.00891194344
v 0.00756432078 0.0065778217 0.00997563839
v 0.00774615786 0.00922440145 -0.00994521856
v 0.00774983904 0.00922072026 -0.00835812569
v 0.00772739909 0.00924316976 -0.00824744701
v 0.00772175334 0.00924881551 -0.00779011011
v 0.00773056529 0.00924000356 -0.00773388624
v 0.00772230647 0.00924826238 -0.00104198933
v 0.00774848483 0.00922207448 0.00107901096
v 0.00773056529 0.00924000356 0.00773388386
v 0.00772175334 0.00924881551 0.00779010773
v 0.00772739909 0.00924316976 0.00824744701
v 0.00774983904 0.00922072026 0.00835812569
v 0.00774615786 0.00922440145 0.00994522095
v 0.00762353442 0.00934702489 -0.00992546082
v 0.00771928332 0.00925127599 -0.00819101334
v 0.00770746729 0.00926310155 -0.00799999952
v 0.00769705317 0.0092734966 -0.00100369453
v 0.00757611773 0.00939444158 -0.000772557259
v 0.00750185511 0.00946871373 -0.000561909676
v 0.00756672404 0.0094038448 0.000749998093
v 0.00768478892 0.00928577992 0.00098408699
v 0.00770956538 0.00926100347 0.0010229969
v 0.00770758174 0.00926298711 0.00798080444
v 0.00771928332 0.00925127599 0.00819101334
v 0.007501178 0.0094693813 0.0099026823
v 0.007932811 0.00620932195 -0.00992546082
v 0.00798022769 0.00616190526 -0.000772557259
v 0.0079987385 0.00614338491 -0.000727214813
v 0.00798963091 0.00615250203 0.000749998093
v 0.00789536021 0.00624678227 0.000943980217
v 0.007932811 0.00620932195 0.00992546082
v 0.00781019709 0.00633194539 -0.00994521856
v 0.00775136492 0.00639076802 -0.00853328943
v 0.00776410601 0.00637802693 -0.00849938869
v 0.00782894633 0.00631317708 -0.00824744701
v 0.00784888766 0.00629324529 -0.00799999952
v 0.00782578013 0.00631636235 -0.00773388624
v 0.00775784037 0.00638430211 -0.00748358011
v 0.00785929225 0.00628285024 -0.00100369453
v 0.00788358233 0.00625855062 -0.000964179039
v 0.0078715565 0.00627058599 0.00098408699
v 0.00775284312 0.00638928029 0.00114906788
v 0.00775784037 0.00638430211 0.0074835825
v 0.00782578013 0.00631636235 0.00773388386
v 0.00784876368 0.00629335973 0.00798080444
v 0.00782894633 0.00631317708 0.00824744701
v 0.00776410601 0.00637802693 0.00849938869
v 0.00775136492 0.00639076802 0.00853329182
v 0.00781019709 0.00633194539 0.00994522095
v 0.00799202464 0.00897852513 -0.00997564077
v 0.00799578211 0.00897478673 -0.00885486126
v 0.00797498248 0.00899557683 -0.00716981888
v 0.00797106288 0.00899950597 -0.00131193161
v 0.00798733256 0.00898323628 0.00132441998
v 0.00797498248 0.00899557683 0.00716981888
v 0.00799578211 0.00897478673 0.00885486126
v 0.00799202464 0.00897852513 0.00997563839
v 0.00786900065 0.00910156819 -0.00996194601
v 0.00796481631 0.009005743 -0.00881745815
v 0.00790725253 0.00906330678 -0.00873604298
v 0.0077922394 0.0091783199 -0.00849938869
v 0.007754369 0.00921619985 -0.00762377739
v 0.00779850505 0.00917204473 -0.00748358011
v 0.00791641734 0.00905413243 -0.00724980116
v 0.00790760539 0.00906296346 -0.0012580061
v 0.00776191256 0.00920864675 -0.00109703064
v 0.0078921654 0.00907839391 0.00124355793
v 0.00795495532 0.00901560399 0.00129903793
v 0.00791641734 0.00905413243 0.00724980354
v 0.00779850505 0.00917204473 0.0074835825
v 0.007754369 0.00921619985 0.00762377739
v 0.0077922394 0.0091783199 0.00849938869
v 0.00790725253 0.00906330678 0.00873604298
v 0.00796481631 0.009005743 0.00881745815
v 0.00786900065 0.00910156819 0.00996194839
v 0.00817722819 0.00596490476 -0.00987688303
v 0.00817722819 0.00596490476 0.00987688541
v 0.00805516741 0.00608696553 -0.00990267992
v 0.00806776545 0.00607437703 -0.000513029099
v 0.00811561129 0.00602652165 -0.000260472298
v 0.00813156626 0.00601056668 -2.617836e-05
v 0.00811867259 0.0060234699 0.000234651566
v 0.00807394526 0.00606819722 0.000488352776
v 0.00800757907 0.00613455388 0.00070420742
v 0.00805516741 0.00608696553 0.0099026823
v 0.00823850176 0.00873205754 -0.00999390841
v 0.00824491999 0.00872564885 -0.00904616117
v 0.00823204539 0.00873852345 -0.00695992947
v 0.00822868846 0.00874188039 -0.00145544529
v 0.00824668429 0.00872387502 0.00146155357
v 0.00823204539 0.00873852345 0.00695992947
v 0.00824491999 0.00872564885 0.00904616356
v 0.00823850176 0.00873205754 0.00999390602
v 0.00811521075 0.00885534856 -0.0099862957
v 0.00821925662 0.00875130269 -0.00903366089
v 0.00815656207 0.00881399724 -0.00899693966
v 0.00800640605 0.0089641628 -0.00713318825
v 0.00816891215 0.00880165669 -0.00699510098
v 0.00800375483 0.00896681401 -0.0013365078
v 0.00821075938 0.00875980947 0.00144888878
v 0.00816891215 0.00880165669 0.00699510098
v 0.00800640605 0.0089641628 0.00713318825
v 0.00815656207 0.00881399724 0.00899693966
v 0.00821925662 0.00875130269 0.00903366089
v 0.00811521075 0.00885534856 0.0099862957
v 0.00842029116 0.00572184178 -0.00981627226
v 0.00842029116 0.00572184178 0.00981626987
v 0.00829894564 0.0058431873 -0.0098480773
v 0.00829894564 0.0058431873 0.00984807968
v 0.00848528407 0.00848528478 -0.01
v 0.00849885485 0.00847170445 -0.00909983158
v 0.00848528407 0.00848528478 -0.00690000057
v 0.00848528407 0.00848528478 -0.00150000095
v 0.00848528407 0.00848528478 0.00150000095
v 0.00847170375 0.0084988651 0.00690016747
v 0.00848528407 0.00848528478 0.00909999847
v 0.00848528407 0.00848528478 0.01
v 0.00836187861 0.00860869023 -0.00999847651
v 0.00845813296 0.00851242635 -0.0090993309
v 0.00825787089 0.00871269795 -0.00694806576
v 0.00826475642 0.00870581243 -0.00146722317
v 0.00846677325 0.00850378606 0.00149977207
v 0.00825787089 0.00871269795 0.00694806576
v 0.00845813296 0.00851242635 0.0090993309
v 0.00836187861 0.00860869023 0.00999847889
v 0.00866171382 0.00548041913 -0.00974370003
v 0.00866171382 0.00548041913 0.00974370003
v 0.0085412266 0.00560090634 -0.00978147507
v 0.0085412266 0.00560090634 0.00978147507
v 0.00873205683 0.00823851201 -0.00999390841
v 0.00873851321 0.0082320461 -0.00904006958
v 0.00872563861 0.0082449207 -0.00695383787
v 0.00872387431 0.00824667546 -0.00146155357
v 0.00874187968 0.00822868917 0.00145544529
v 0.00872563861 0.0082449207 0.00695383549
v 0.00873851321 0.0082320461 0.00904006958
v 0.00873205683 0.00823851201 0.00999390602
v 0.00860868952 0.00836187932 -0.00999847651
v 0.00871269724 0.0082578716 -0.00905193567
v 0.00851242564 0.00845814321 -0.00690067053
v 0.00850379489 0.00846676442 -0.00149977207
v 0.00870580218 0.00826475713 0.00146722317
v 0.00851242564 0.00845814321 0.00690066814
v 0.00871269724 0.0082578716 0.00905193329
v 0.00860868952 0.00836187932 0.00999847889
v 0.00890119097 0.00524094197 -0.00965925932
v 0.00890119097 0.00524094197 0.00965925694
v 0.00878171466 0.00536041829 -0.00970295668
v 0.00878171466 0.00536041829 0.00970295906
v 0.00897853396 0.00799202535 -0.00997564077
v 0.00899557612 0.00797499272 -0.00883018017
v 0.00897477648 0.00799578282 -0.00714514017
v 0.00898323557 0.00798733327 -0.00132441998
v 0.00899949572 0.00797106359 0.00131193161
v 0.00897477648 0.00799578282 0.00714513779
v 0.00899557612 0.00797499272 0.00883018017
v 0.00897853396 0.00799202535 0.00997563839
v 0.00885534785 0.00811520192 -0.0099862957
v 0.00880164645 0.00816891286 -0.00900490046
v 0.00896415255 0.00800640676 -0.0088668108
v 0.00881399653 0.00815655324 -0.00700306177
v 0.00875131152 0.00821924779 -0.00696633816
v 0.00875979922 0.00821076009 -0.00144888878
v 0.0089668133 0.00800375554 0.0013365078
v 0.00875131152 0.00821924779 0.00696633816
v 0.00881399653 0.00815655324 0.00700305939
v 0.00896415255 0.00800640676 0.0088668108
v 0.00880164645 0.00816891286 0.00900489807
v 0.00885534785 0.00811520192 0.0099862957
v 0.00902011416 0.00512201879 -0.00961261749
v 0.00913844607 0.00500368688 0.0095630455
v 0.00922441027 0.00774614903 -0.00994521856
v 0.00923999331 0.007730566 -0.00826611519
v 0.00924880526 0.00772175405 -0.00820988894
v 0.00924315951 0.0077273998 -0.00775255442
v 0.00922071955 0.00774984929 -0.00764187574
v 0.00922207377 0.007748476 -0.00107901096
v 0.00924825213 0.00772230718 0.00104198933
v 0.00922071955 0.00774984929 0.00764187336
v 0.00924315951 0.0077273998 0.00775255203
v 0.00924880526 0.00772175405 0.00820989132
v 0.00923999331 0.007730566 0.00826611519
v 0.00922441027 0.00774614903 0.00994522095
v 0.00910156748 0.00786900136 -0.00996194601
v 0.00905414126 0.00791641805 -0.00875019789
v 0.00917205355 0.00779850575 -0.00851641893
v 0.0092161896 0.00775436971 -0.00837622166
v 0.00917831919 0.00779224965 -0.00750061035
v 0.00906331561 0.0079072437 -0.00726395607
v 0.00900574229 0.00796482656 -0.00718254089
v 0.00901561282 0.00795494649 -0.00129903793
v 0.0090783932 0.00789217565 -0.00124355793
v 0.00920864604 0.00776190373 0.00109703064
v 0.00906296275 0.0079076061 0.0012580061
v 0.00900574229 0.00796482656 0.00718254089
v 0.00906331561 0.0079072437 0.00726395607
v 0.00917831919 0.00779224965 0.00750061035
v 0.0092161896 0.00775436971 0.00837622166
v 0.00917205355 0.00779850575 0.00851641655
v 0.00905414126 0.00791641805 0.00875020027
v 0.00910156748 0.00786900136 0.00996194839
v 0.00948951266 0.00465262029 -0.00939692736
v 0.00948951266 0.00465262029 0.00939692497
v 0.00925614855 0.00488598439 -0.0095105648
v 0.00937318347 0.00476894948 -0.00945518494
v 0.00937318347 0.00476894948 0.00945518494
v 0.00925614855 0.00488598439 0.0095105648
v 0.00947549365 0.00749506566 -0.000537552834
v 0.00948815844 0.00748240087 -0.000488352776
v 0.009499593 0.00747097585 0.000438556671
v 0.00948197863 0.00748858068 0.000513029099
v 0.00946938059 0.00750118825 -0.00990267992
v 0.00926297686 0.00770758245 -0.00801919699
v 0.00925128482 0.00771927449 -0.00780898809
v 0.00926100276 0.00770956609 -0.0010229969
v 0.00928576968 0.00768478963 -0.00098408699
v 0.0094038441 0.00756672475 -0.000749998093
v 0.00946871302 0.00750185582 0.000561909676
v 0.00939444087 0.0075761089 0.000772557259
v 0.00927350543 0.00769705388 0.00100369453
v 0.00925128482 0.00771927449 0.00780898571
v 0.00926310084 0.007707468 0.00800000191
v 0.00934702418 0.00762352559 0.00992546082
v 0.00971993945 0.00442220304 -0.00927183867
v 0.00971993945 0.00442220304 0.00927183628
v 0.00960510752 0.00453702542 -0.00933580399
v 0.00960510752 0.00453702542 0.00933580399
v 0.00971315882 0.00725741002 -0.0098480773
v 0.00950485728 0.00746571157 -0.000413455963
v 0.00953288577 0.00743767354 -0.000234651566
v 0.00954594157 0.00742462728 0
v 0.00952982447 0.00744074437 0.000260472298
v 0.00959144137 0.00737911794 0.00987688541
v 0.00994713328 0.0041950092 -0.0091354537
v 0.00994713328 0.0041950092 0.00913545609
v 0.00983395121 0.00430818173 -0.00920504808
v 0.00983395121 0.00430818173 0.00920505047
v 0.00995543978 0.00701511952 -0.00978147507
v 0.00983450434 0.0071360645 0.00981626987
v 0.0101708176 0.00397131536 -0.00898793936
v 0.0101708176 0.00397131536 0.00898794174
v 0.0100594284 0.00408270452 -0.00906307697
v 0.0100594284 0.00408270452 0.00906307697
v 0.0101959278 0.00677464101 -0.00970295668
v 0.010075927 0.00689463231 0.00974370003
v 0.0104991867 0.00364294621 -0.00874619722
v 0.0104991867 0.00364294621 0.00874619484
v 0.0102812626 0.00386087033 -0.0089100647
v 0.0103907349 0.00375139806 0.00882947445
v 0.0104343273 0.00653622243 -0.00961261749
v 0.0103154042 0.00665514562 0.00965925694
v 0.0107129338 0.00342919919 -0.00857167244
v 0.0107129338 0.00342919919 0.00857167244
v 0.0106065991 0.00353553388 -0.00866025448
v 0.0106065991 0.00353553388 0.00866025448
v 0.0106703617 0.00630020711 -0.0095105648
v 0.0105526593 0.00641790959 0.0095630455
v 0.0109222462 0.00321988675 -0.00838670492
v 0.0109222462 0.00321988675 0.00838670731
v 0.0108181622 0.00332397077 -0.0084804821
v 0.0108181622 0.00332397077 0.0084804821
v 0.0109037258 0.00606683347 -0.00939692736
v 0.0107873966 0.0061831722 0.00945518494
v 0.0112273361 0.0029147968 -0.00809016943
v 0.0112273361 0.0029147968 0.00809017181
v 0.0110251572 0.00311697576 -0.00829037666
v 0.0111268666 0.00301526639 -0.00819152117
v 0.0111268666 0.00301526639 0.00819151878
v 0.0110251572 0.00311697576 0.00829037666
v 0.0112481644 0.00572239491 -0.00920504808
v 0.0112481644 0.00572239491 0.00920505047
v 0.0111341526 0.00583641622 -0.00927183867
v 0.0110193207 0.0059512386 0.00933580399
v 0.0114244511 0.00271768186 -0.00788010836
v 0.0114244511 0.00271768186 0.00788010597
v 0.0113265469 0.0028155956 -0.00798635483
v 0.0113265469 0.0028155956 0.00798635483
v 0.0114736416 0.0054969177 -0.00906307697
v 0.0114736416 0.0054969177 0.00906307697
v 0.0113613465 0.00560922238 -0.0091354537
v 0.0113613465 0.00560922238 0.00913545609
v 0.0117101052 0.00243202779 -0.00754709482
v 0.0117101052 0.00243202779 0.00754709721
v 0.0115210392 0.00262110326 -0.00777145863
v 0.0116162636 0.00252586934 -0.00766044378
v 0.0116162636 0.00252586934 0.00766044617
v 0.0115210392 0.00262110326 0.00777145863
v 0.0116954758 0.00527508351 -0.0089100647
v 0.0115850308 0.00538552854 0.00898794174
v 0.0118935253 0.00224860761 -0.0073135376
v 0.0119830467 0.00215909574 -0.00719339848
v 0.0119830467 0.00215909574 0.00719339848
v 0.0118935253 0.00224860761 0.0073135376
v 0.0118025353 0.00233959767 -0.00743144751
v 0.0118025353 0.00233959767 0.00743144989
v 0.0118049481 0.00516562078 -0.00882947683
v 0.0119133999 0.0050571594 -0.00874619722
v 0.0119133999 0.0050571594 0.00874619484
v 0.0118049481 0.00516562078 0.00882947445
v 0.0121575691 0.0019845638 -0.00694658279
v 0.0122425225 0.00189962003 0.00681998253
v 0.0120710709 0.0020710716 -0.00707106829
v 0.0120710709 0.0020710716 0.0070710659
v 0.0122323754 0.00473818395 -0.0084804821
v 0.0122323754 0.00473818395 0.0084804821
v 0.0121271469 0.00484341237 -0.00857167244
v 0.0120208123 0.00494974706 0.00866025448
v 0.0124076702 0.00173446271 -0.00656059027
v 0.012487817 0.00165431592 -0.00642787695
v 0.012487817 0.00165431592 0.00642787457
v 0.0124076702 0.00173446271 0.00656059265
v 0.0123258927 0.00181624028 -0.00669130564
v 0.0123258927 0.00181624028 0.00669130802
v 0.0124393704 0.00453118894 -0.00829037666
v 0.0123364594 0.00463409993 0.00838670731
v 0.012643142 0.00149899098 -0.00615661383
v 0.0127182724 0.00142386052 0.00601815224
v 0.0125663235 0.00157581899 -0.00629320383
v 0.0125663235 0.00157581899 0.00629320621
v 0.0127407601 0.00422980878 -0.00798635483
v 0.0127407601 0.00422980878 0.00798635483
v 0.0126415493 0.00432900998 -0.00809016943
v 0.0125410797 0.00442947957 0.00819151878
v 0.0129332497 0.00120888326 -0.00559192896
v 0.0129332497 0.00120888326 0.00559193134
v 0.0127916863 0.00135045621 -0.00587785244
v 0.0128633454 0.00127878758 -0.0057357645
v 0.0128633454 0.00127878758 0.0057357645
v 0.0127916863 0.00135045621 0.00587785244
v 0.0129352524 0.00403531644 -0.00777145863
v 0.0128386643 0.00413189504 0.00788010597
v 0.0131947949 0.000947347613 -0.005
v 0.0131947949 0.000947347613 0.005
v 0.0130013611 0.00114077184 -0.00544639111
v 0.0131321575 0.0010099754 -0.00515038013
v 0.0131321575 0.0010099754 0.00515038013
v 0.0130676701 0.00107446286 0.00529919147
v 0.0131243183 0.00384624097 -0.00754709482
v 0.0132167485 0.00375381085 -0.00743144751
v 0.0132167485 0.00375381085 0.00743144989
v 0.0130304768 0.00394008252 0.00766044617
v 0.0134264996 0.000715633364 -0.00438371181
v 0.0134796288 0.000662504168 -0.00422618389
v 0.0134796288 0.000662504168 0.00422618389
v 0.0134264996 0.000715633364 0.00438371181
v 0.013255563 0.000886569948 -0.00484809399
v 0.0133144524 0.000827690096 -0.00469471455
v 0.0133714344 0.000770698519 0.00453990459
v 0.013255563 0.000886569948 0.00484809399
v 0.0134852841 0.00348528478 -0.00707106829
v 0.0134852841 0.00348528478 0.0070710659
v 0.0133077385 0.00366282079 -0.0073135376
v 0.0133972599 0.00357330892 -0.00719339848
v 0.0133972599 0.00357330892 0.00719339848
v 0.0133077385 0.00366282079 0.0073135376
v 0.0136724808 0.000469661684 -0.0035836792
v 0.0137157013 0.000426441164 -0.00342020035
v 0.0137157013 0.000426441164 0.00342020035
v 0.0136724808 0.000469661684 0.0035836792
v 0.0135308125 0.000611330004 -0.00406736851
v 0.0135800221 0.000562110872 -0.00390731335
v 0.013627248 0.00051488492 -0.00374606609
v 0.013627248 0.00051488492 0.00374606609
v 0.0135800221 0.000562110872 0.00390731335
v 0.0135308125 0.000611330004 0.00406736851
v 0.0137401058 0.00323045346 -0.00669130564
v 0.0137401058 0.00323045346 0.00669130802
v 0.0136567356 0.00331383321 -0.00681998253
v 0.0135717823 0.00339877698 0.00694658279
v 0.013901191 0.000240941973 -0.00258819103
v 0.01393209 0.000210042925 -0.00241921902
v 0.0139609005 0.000181232424 -0.00224951267
v 0.0139876129 0.000154520006 0.00207911491
v 0.01393209 0.000210042925 0.00241921902
v 0.013901191 0.000240941973 0.00258819103
v 0.0137568905 0.000385242434 -0.00325568199
v 0.0137960484 0.000346084566 -0.00309017181
v 0.0138331654 0.000308967562 -0.0029237175
v 0.0138682129 0.000273920031 0.0027563715
v 0.0137960484 0.000346084566 0.00309017181
v 0.0137568905 0.000385242434 0.00325568199
v 0.0139805367 0.00299003217 -0.00629320383
v 0.0139805367 0.00299003217 0.00629320621
v 0.0138218834 0.00314867589 -0.00656059027
v 0.0139020302 0.0030685291 -0.00642787695
v 0.0139020302 0.0030685291 0.00642787457
v 0.0138218834 0.00314867589 0.00656059265
v 0.0141421368 -3.84315563e-09 0
v 0.0140122177 0.000129915209 -0.00190808773
v 0.0140347149 0.000107427569 -0.00173648357
v 0.0140733197 6.88132955e-05 -0.00139173031
v 0.0140894272 5.27057363e-05 -0.00121869564
v 0.0141152241 2.69088461e-05 -0.000871558189
v 0.0141249134 1.72290517e-05 -0.000697565079
v 0.0141378262 4.30676475e-06 -0.000348997116
v 0.0141410591 1.07380882e-06 -0.0001745224
v 0.0141410591 1.07380882e-06 0.0001745224
v 0.0141378262 4.30676475e-06 0.000348997116
v 0.0141324475 9.69502464e-06 0.000523357391
v 0.0141152241 2.69088461e-05 0.000871558189
v 0.0141033985 3.87344076e-05 0.00104528427
v 0.0140733197 6.88132955e-05 0.00139173031
v 0.0140550759 8.70570852e-05 0.00156434536
v 0.0140122177 0.000129915209 0.00190808773
v 0.0141324856 0.0028380737 -0.00601814985
v 0.0142058995 0.00276466939 -0.00587785244
v 0.0142058995 0.00276466939 0.00587785244
v 0.0140573551 0.00291320416 0.00615661621
v 0.0144818833 0.00248867604 -0.00529919147
v 0.0144818833 0.00248867604 0.00529919147
v 0.0143474629 0.00262309644 -0.00559192896
v 0.0144155743 0.00255498502 -0.00544639111
v 0.0144155743 0.00255498502 0.00544639111
v 0.0142775585 0.00269300076 0.0057357645
v 0.0147286656 0.00224190328 -0.00469471455
v 0.0147286656 0.00224190328 0.00469471455
v 0.0145463707 0.00242418859 -0.00515038013
v 0.0146697762 0.00230078313 -0.00484809399
v 0.0146697762 0.00230078313 0.00484809399
v 0.0145463707 0.00242418859 0.00515038013
v 0.0149942353 0.00197633359 -0.00390731335
v 0.0149942353 0.00197633359 0.00390731335
v 0.0147856476 0.0021849117 -0.00453990459
v 0.0148407128 0.00212984654 -0.00438371181
v 0.0149450257 0.00202554318 -0.00406736851
v 0.014893842 0.00207671735 0.00422618389
v 0.0148407128 0.00212984654 0.00438371181
v 0.0147856476 0.0021849117 0.00453990459
v 0.0152473786 0.00172319028 -0.0029237175
v 0.0152473786 0.00172319028 0.0029237175
v 0.015086694 0.00188387486 -0.0035836792
v 0.0151711037 0.00179945561 -0.00325568199
v 0.0152102711 0.00176029775 -0.00309017181
v 0.0152102711 0.00176029775 0.00309017181
v 0.0151299145 0.00184065434 0.00342020035
v 0.0150414612 0.0019290981 0.00374606609
v 0.0154875328 0.00148302648 -0.00139173031
v 0.0154875328 0.00148302648 0.00139173031
v 0.0152824261 0.00168813321 -0.0027563715
v 0.0153154042 0.00165515515 -0.00258819103
v 0.0153463127 0.00162425611 -0.00241921902
v 0.0154018261 0.00156873319 -0.00207911491
v 0.0154264309 0.00154412839 -0.00190808773
v 0.015469289 0.00150127027 -0.00156434536
v 0.0154489281 0.00152164075 0.00173648357
v 0.0154264309 0.00154412839 0.00190808773
v 0.0153751137 0.0015954456 0.00224951267
v 0.0153463127 0.00162425611 0.00241921902
v 0.0153154042 0.00165515515 0.00258819103
v 0.0152824261 0.00168813321 0.0027563715
v 0.0155176117 0.00145294759 -0.00104528427
v 0.0155294373 0.00144112203 -0.000871558189
v 0.0155466606 0.00142390821 -0.000523357391
v 0.0155520394 0.00141851995 -0.000348997116
v 0.0155552723 0.00141528699 -0.0001745224
v 0.0155552723 0.00141528699 0.0001745224
v 0.0155520394 0.00141851995 0.000348997116
v 0.0155391266 0.00143144223 0.000697565079
v 0.0155294373 0.00144112203 0.000871558189
v 0.0155036404 0.00146691892 0.00121869564
f 1 69 15
f 15 254 1
f 16 69 1
f 1 254 16
f 3 84 2
f 2 254 3
f 2 83 30
f 30 254 2
f 2 84 83
f 4 85 3
f 3 254 4
f 3 85 84
f 8 86 4
f 4 254 8
f 4 86 85
f 6 91 5
f 5 255 6
f 5 90 23
f 23 255 5
f 5 91 90
f 7 92 6
f 6 255 7
f 6 92 91
f 31 93 7
f 7 255 31
f 7 93 92
f 9 87 8
f 8 254 9
f 8 87 86
f 10 62 9
f 9 254 10
f 9 62 87
f 11 64 10
f 10 254 11
f 10 64 62
f 12 65 11
f 11 254 12
f 11 65 64
f 13 66 12
f 12 254 13
f 12 66 65
f 14 67 13
f 13 254 14
f 13 67 66
f 15 68 14
f 14 254 15
f 14 68 67
f 15 69 68
f 17 70 16
f 16 254 17
f 16 70 69
f 18 71 17
f 17 254 18
f 17 71 70
f 19 72 18
f 18 254 19
f 18 72 71
f 20 73 19
f 19 254 20
f 19 73 72
f 21 63 20
f 20 254 21
f 20 63 73
f 22 88 21
f 21 254 22
f 21 88 63
f 23 89 22
f 22 255 23
f 22 89 88
f 22 254 255
f 23 90 89
f 25 101 24
f 24 254 25
f 24 100 40
f 40 254 24
f 24 101 100
f 28 101 25
f 25 254 28
f 27 105 26
f 26 256 27
f 26 104 33
f 33 255 26
f 26 105 104
f 26 255 256
f 41 105 27
f 27 256 41
f 29 102 28
f 28 254 29
f 28 102 101
f 30 80 29
f 29 254 30
f 29 80 102
f 30 82 80
f 30 83 82
f 32 103 31
f 31 255 32
f 31 81 93
f 31 103 81
f 33 104 32
f 32 255 33
f 32 104 103
f 35 116 34
f 34 254 35
f 34 115 47
f 47 254 34
f 34 116 115
f 38 116 35
f 35 254 38
f 37 118 36
f 36 256 37
f 36 117 43
f 43 256 36
f 36 118 117
f 48 119 37
f 37 256 48
f 37 119 118
f 39 98 38
f 38 254 39
f 38 98 116
f 40 100 39
f 39 254 40
f 39 100 98
f 42 99 41
f 41 256 42
f 41 99 105
f 43 117 42
f 42 256 43
f 42 117 99
f 46 127 44
f 44 254 46
f 44 127 53
f 53 254 44
f 45 129 49
f 49 247 45
f 54 129 45
f 45 247 54
f 47 112 46
f 46 254 47
f 46 112 127
f 47 114 112
f 47 115 114
f 49 128 48
f 48 256 49
f 48 113 119
f 48 128 113
f 49 129 128
f 49 256 247
f 52 137 50
f 50 254 52
f 50 136 59
f 59 254 50
f 50 137 136
f 51 139 55
f 55 248 51
f 60 139 51
f 51 248 60
f 53 126 52
f 52 254 53
f 52 126 124
f 52 124 137
f 53 127 126
f 55 125 54
f 54 248 55
f 54 125 129
f 54 247 248
f 55 138 125
f 55 139 138
f 58 147 56
f 56 254 58
f 56 146 78
f 78 254 56
f 56 147 146
f 57 149 61
f 61 248 57
f 79 145 57
f 57 248 79
f 57 145 149
f 59 136 58
f 58 254 59
f 58 136 147
f 61 148 60
f 60 248 61
f 60 148 139
f 61 149 148
f 64 368 62
f 62 368 87
f 63 369 73
f 88 369 63
f 65 368 64
f 66 368 65
f 67 368 66
f 68 368 67
f 69 369 68
f 68 369 368
f 70 369 69
f 71 369 70
f 72 369 71
f 73 369 72
f 75 159 74
f 74 254 75
f 74 158 96
f 96 254 74
f 74 159 158
f 78 144 75
f 75 254 78
f 75 144 159
f 77 161 76
f 76 279 77
f 76 160 79
f 79 248 76
f 76 161 160
f 76 248 279
f 97 157 77
f 77 279 97
f 77 157 161
f 78 146 144
f 79 160 145
f 82 367 80
f 80 367 102
f 81 369 93
f 103 369 81
f 83 367 82
f 84 367 83
f 85 367 84
f 86 367 85
f 87 367 86
f 87 368 367
f 89 369 88
f 90 369 89
f 91 369 90
f 92 369 91
f 93 369 92
f 96 156 94
f 94 254 96
f 94 168 110
f 110 254 94
f 94 156 168
f 95 169 97
f 97 280 95
f 111 167 95
f 95 280 111
f 95 167 169
f 96 158 156
f 97 169 157
f 97 279 280
f 100 367 98
f 98 367 116
f 99 369 105
f 117 369 99
f 101 367 100
f 102 367 101
f 104 369 103
f 105 369 104
f 107 175 106
f 106 254 107
f 106 174 122
f 122 254 106
f 106 175 174
f 110 166 107
f 107 254 110
f 107 166 175
f 109 177 108
f 108 280 109
f 108 176 111
f 111 280 108
f 108 177 176
f 123 184 109
f 109 280 123
f 109 184 177
f 110 168 166
f 111 176 167
f 114 367 112
f 112 367 127
f 113 369 119
f 128 369 113
f 115 367 114
f 116 367 115
f 118 369 117
f 119 369 118
f 122 183 120
f 120 254 122
f 120 182 133
f 133 254 120
f 120 183 182
f 121 185 123
f 123 280 121
f 134 185 121
f 121 280 134
f 122 174 183
f 123 185 184
f 126 367 124
f 124 367 137
f 125 369 129
f 138 369 125
f 127 367 126
f 129 369 128
f 132 192 130
f 130 254 132
f 130 192 142
f 142 254 130
f 131 193 135
f 135 280 131
f 143 191 131
f 131 284 143
f 131 191 193
f 131 280 284
f 133 182 132
f 132 254 133
f 132 182 192
f 135 193 134
f 134 280 135
f 134 193 185
f 137 367 136
f 136 367 147
f 139 369 138
f 148 369 139
f 142 190 140
f 140 254 142
f 140 198 153
f 153 254 140
f 140 190 198
f 141 199 143
f 143 284 141
f 154 199 141
f 141 284 154
f 142 192 190
f 143 199 191
f 146 367 144
f 144 367 159
f 145 369 149
f 160 369 145
f 147 367 146
f 149 369 148
f 152 206 150
f 150 254 152
f 150 206 164
f 164 254 150
f 151 207 155
f 155 284 151
f 165 205 151
f 151 284 165
f 151 205 207
f 153 198 152
f 152 254 153
f 152 198 206
f 155 207 154
f 154 284 155
f 154 207 199
f 158 367 156
f 156 367 168
f 157 369 161
f 169 369 157
f 159 367 158
f 161 369 160
f 164 204 162
f 162 254 164
f 162 212 172
f 172 254 162
f 162 204 212
f 163 213 165
f 165 284 163
f 173 213 163
f 163 284 173
f 164 206 204
f 165 213 205
f 168 367 166
f 166 367 175
f 167 369 169
f 176 369 167
f 172 212 170
f 170 254 172
f 170 219 180
f 180 254 170
f 170 212 219
f 171 220 173
f 173 284 171
f 181 221 171
f 171 284 181
f 171 221 220
f 173 220 213
f 175 367 174
f 174 367 183
f 177 369 176
f 184 369 177
f 180 228 178
f 178 254 180
f 178 228 188
f 188 254 178
f 179 229 181
f 181 284 179
f 189 227 179
f 179 284 189
f 179 227 229
f 180 219 218
f 180 218 228
f 181 229 221
f 183 367 182
f 182 367 192
f 185 369 184
f 193 369 185
f 188 226 186
f 186 254 188
f 186 236 196
f 196 254 186
f 186 226 236
f 187 237 189
f 189 284 187
f 197 235 187
f 187 284 197
f 187 235 237
f 188 228 226
f 189 237 227
f 192 367 190
f 190 367 198
f 191 369 193
f 199 369 191
f 196 234 194
f 194 254 196
f 194 242 202
f 202 254 194
f 194 234 242
f 195 243 197
f 197 284 195
f 203 243 195
f 195 284 203
f 196 236 234
f 197 243 235
f 198 367 206
f 207 369 199
f 202 242 200
f 200 254 202
f 209 254 200
f 200 258 209
f 200 242 258
f 201 259 203
f 203 284 201
f 210 259 201
f 284 210 201
f 203 259 243
f 206 367 204
f 204 367 212
f 205 369 207
f 213 369 205
f 208 254 209
f 209 258 208
f 216 254 208
f 208 288 216
f 208 258 288
f 284 211 210
f 211 289 210
f 210 289 259
f 211 284 217
f 217 289 211
f 212 367 219
f 220 369 213
f 214 254 216
f 216 306 214
f 224 254 214
f 214 306 224
f 217 284 215
f 215 307 217
f 215 285 225
f 225 325 215
f 215 284 285
f 215 325 307
f 216 288 306
f 217 307 289
f 219 367 218
f 218 367 228
f 221 369 220
f 229 369 221
f 222 254 224
f 224 324 222
f 232 254 222
f 222 324 232
f 225 285 223
f 223 325 225
f 223 285 233
f 233 345 223
f 223 345 325
f 224 306 324
f 228 367 226
f 226 367 236
f 227 369 229
f 237 369 227
f 230 254 232
f 232 344 230
f 240 254 230
f 230 344 240
f 233 285 231
f 231 345 233
f 231 268 241
f 241 371 231
f 231 286 268
f 231 285 286
f 231 371 345
f 232 324 344
f 236 367 234
f 234 367 242
f 235 369 237
f 243 369 235
f 238 254 240
f 240 366 238
f 250 261 238
f 238 366 250
f 252 253 238
f 274 252 238
f 253 254 238
f 261 271 238
f 238 271 272
f 238 272 273
f 238 273 274
f 241 268 239
f 239 371 241
f 239 268 257
f 257 413 239
f 239 413 371
f 240 344 366
f 242 367 258
f 259 369 243
f 244 299 250
f 250 402 244
f 270 299 244
f 244 402 270
f 274 245 246
f 245 406 246
f 274 278 245
f 278 406 245
f 246 251 274
f 246 407 251
f 246 406 407
f 247 408 248
f 256 408 247
f 248 409 279
f 248 408 409
f 257 304 249
f 249 413 257
f 249 304 287
f 287 401 249
f 249 401 413
f 250 299 261
f 250 366 402
f 251 252 274
f 251 362 252
f 251 407 362
f 252 367 253
f 252 362 363
f 252 363 367
f 253 368 254
f 253 367 368
f 254 369 255
f 254 368 369
f 255 364 256
f 255 370 364
f 255 369 370
f 256 364 365
f 256 365 408
f 257 268 304
f 258 367 288
f 289 369 259
f 260 291 270
f 270 390 260
f 298 291 260
f 260 446 298
f 260 390 446
f 261 448 271
f 299 447 261
f 261 447 448
f 262 263 264
f 300 263 262
f 262 264 276
f 276 451 262
f 262 451 300
f 263 453 264
f 300 301 263
f 301 453 263
f 276 264 277
f 264 454 277
f 264 453 454
f 266 303 265
f 265 455 266
f 265 303 280
f 280 455 265
f 302 303 266
f 266 456 302
f 266 455 456
f 267 281 280
f 280 303 267
f 267 458 281
f 303 457 267
f 267 457 458
f 286 461 268
f 268 461 304
f 287 296 269
f 269 463 287
f 269 296 305
f 305 445 269
f 269 445 463
f 270 291 299
f 270 402 390
f 271 448 272
f 272 391 273
f 272 449 391
f 272 448 449
f 273 403 274
f 273 391 392
f 273 392 403
f 275 277 274
f 274 393 275
f 274 277 278
f 274 404 393
f 274 403 404
f 276 277 275
f 275 450 276
f 275 393 394
f 275 394 450
f 276 450 451
f 277 405 278
f 277 395 405
f 277 454 395
f 278 405 406
f 279 409 280
f 280 281 282
f 280 282 283
f 280 283 284
f 280 410 396
f 280 396 455
f 280 409 410
f 281 458 282
f 282 397 283
f 282 459 397
f 282 458 459
f 283 411 284
f 283 397 398
f 283 398 411
f 284 399 285
f 284 412 399
f 284 411 412
f 285 460 286
f 285 399 400
f 285 400 460
f 286 460 461
f 304 296 287
f 287 463 401
f 288 367 306
f 307 369 289
f 290 317 298
f 298 438 290
f 316 317 290
f 290 482 316
f 290 438 482
f 298 317 291
f 291 484 299
f 317 483 291
f 291 483 484
f 292 293 301
f 318 293 292
f 292 301 300
f 300 485 292
f 292 485 318
f 293 487 301
f 318 319 293
f 319 487 293
f 294 295 302
f 294 321 295
f 302 488 294
f 320 321 294
f 294 488 320
f 302 295 303
f 295 490 303
f 321 489 295
f 295 489 490
f 304 491 296
f 296 322 305
f 296 491 322
f 305 322 297
f 297 493 305
f 297 322 323
f 323 481 297
f 297 481 493
f 298 446 438
f 299 439 447
f 299 484 439
f 300 452 440
f 300 440 485
f 300 451 452
f 301 441 453
f 301 487 441
f 302 456 442
f 302 442 488
f 303 443 457
f 303 490 443
f 304 462 444
f 304 444 491
f 304 461 462
f 305 493 445
f 306 367 324
f 325 369 307
f 308 309 316
f 335 309 308
f 316 474 308
f 334 335 308
f 308 506 334
f 308 474 506
f 316 309 317
f 309 507 317
f 335 507 309
f 310 311 319
f 336 311 310
f 310 319 318
f 318 508 310
f 310 508 336
f 311 509 319
f 336 338 311
f 338 509 311
f 312 313 320
f 312 341 313
f 320 510 312
f 339 341 312
f 312 510 339
f 320 313 321
f 313 511 321
f 341 511 313
f 323 314 315
f 315 314 342
f 323 322 314
f 322 512 314
f 314 512 342
f 315 513 323
f 315 342 343
f 343 505 315
f 315 505 513
f 316 482 474
f 317 475 483
f 317 507 475
f 318 486 476
f 318 476 508
f 318 485 486
f 319 477 487
f 319 509 477
f 320 488 478
f 320 478 510
f 321 479 489
f 321 511 479
f 322 492 480
f 322 480 512
f 322 491 492
f 323 513 481
f 324 367 344
f 345 369 325
f 326 327 335
f 354 327 326
f 326 335 334
f 334 498 326
f 326 526 354
f 326 498 526
f 327 527 335
f 354 355 327
f 355 527 327
f 329 336 328
f 329 328 357
f 336 528 328
f 357 328 356
f 328 528 356
f 338 336 329
f 329 529 338
f 357 529 329
f 330 331 341
f 358 331 330
f 330 341 339
f 339 530 330
f 330 530 358
f 331 531 341
f 358 359 331
f 359 531 331
f 342 332 333
f 333 332 361
f 342 532 332
f 361 332 360
f 332 532 360
f 343 342 333
f 333 533 343
f 361 525 333
f 333 525 533
f 334 506 498
f 335 499 507
f 335 527 499
f 336 338 337
f 336 508 500
f 336 500 528
f 337 501 338
f 338 529 337
f 337 529 501
f 338 501 509
f 339 341 340
f 340 502 339
f 339 510 340
f 339 502 530
f 340 510 502
f 341 503 511
f 341 531 503
f 342 512 504
f 342 504 532
f 343 533 505
f 344 367 366
f 371 369 345
f 346 355 354
f 354 518 346
f 382 355 346
f 346 546 382
f 346 518 546
f 347 355 382
f 347 548 355
f 372 347 382
f 420 347 372
f 383 347 420
f 383 548 347
f 349 356 348
f 349 348 385
f 356 550 348
f 385 348 384
f 348 549 384
f 348 550 549
f 357 356 349
f 349 551 357
f 385 551 349
f 350 351 359
f 386 351 350
f 350 359 358
f 358 552 350
f 350 552 386
f 351 554 359
f 386 387 351
f 387 554 351
f 389 360 352
f 360 556 352
f 389 352 381
f 381 352 437
f 437 352 388
f 352 555 388
f 352 556 555
f 361 360 353
f 353 360 389
f 353 557 361
f 389 545 353
f 353 545 557
f 354 526 518
f 355 519 527
f 355 547 519
f 355 548 547
f 356 528 520
f 356 520 550
f 357 521 529
f 357 551 521
f 358 530 522
f 358 522 552
f 359 523 531
f 359 553 523
f 359 554 553
f 360 532 524
f 360 524 556
f 361 557 525
f 402 363 362
f 362 407 402
f 402 367 363
f 412 365 364
f 412 364 370
f 408 365 412
f 366 367 402
f 371 370 369
f 412 370 371
f 371 400 399
f 371 399 412
f 371 460 400
f 413 461 371
f 371 461 460
f 382 538 372
f 372 572 420
f 372 538 572
f 466 373 383
f 373 574 383
f 494 421 373
f 421 574 373
f 464 373 466
f 496 373 464
f 494 373 496
f 375 374 376
f 375 384 374
f 376 374 427
f 384 578 374
f 427 374 426
f 374 577 426
f 374 578 577
f 376 580 375
f 385 384 375
f 375 579 385
f 375 580 579
f 427 580 376
f 377 387 378
f 378 582 377
f 430 387 377
f 377 581 430
f 377 582 581
f 378 387 386
f 386 582 378
f 430 379 387
f 379 584 387
f 430 431 379
f 431 584 379
f 473 388 380
f 388 588 380
f 380 436 465
f 380 587 436
f 473 380 465
f 380 588 587
f 381 589 389
f 437 571 381
f 381 571 589
f 382 546 538
f 414 383 420
f 466 383 414
f 383 539 548
f 383 573 539
f 383 574 573
f 384 549 540
f 384 540 578
f 385 541 551
f 385 579 541
f 386 552 542
f 386 542 582
f 387 543 554
f 387 583 543
f 387 584 583
f 437 388 419
f 419 388 473
f 388 555 544
f 388 544 588
f 389 589 545
f 392 391 390
f 390 391 446
f 403 392 390
f 402 403 390
f 446 391 449
f 394 393 395
f 395 393 404
f 454 394 395
f 450 394 454
f 395 404 405
f 410 458 396
f 396 458 455
f 398 397 410
f 397 459 410
f 411 398 410
f 401 444 413
f 491 444 401
f 463 491 401
f 403 402 406
f 407 406 402
f 403 406 404
f 406 405 404
f 409 408 412
f 412 410 409
f 411 410 412
f 410 459 458
f 444 462 413
f 413 462 461
f 420 560 414
f 414 600 466
f 414 560 600
f 416 415 590
f 416 605 415
f 415 428 590
f 415 604 428
f 415 605 604
f 590 467 416
f 467 605 416
f 418 417 434
f 418 607 417
f 434 417 472
f 417 606 472
f 417 607 606
f 429 418 434
f 429 607 418
f 419 611 437
f 473 611 419
f 420 572 560
f 494 422 421
f 422 575 421
f 421 575 574
f 534 423 422
f 423 562 422
f 516 422 494
f 514 422 516
f 536 422 514
f 534 422 536
f 422 562 561
f 422 561 575
f 592 424 423
f 424 602 423
f 558 423 534
f 592 423 558
f 423 601 562
f 423 602 601
f 427 425 424
f 425 564 424
f 427 424 590
f 424 564 563
f 424 563 602
f 590 424 593
f 593 424 592
f 427 426 425
f 426 577 425
f 425 576 564
f 425 577 576
f 590 428 427
f 428 604 427
f 427 565 580
f 427 603 565
f 427 604 603
f 434 430 429
f 430 608 429
f 429 608 607
f 430 432 431
f 433 432 430
f 433 430 434
f 430 581 566
f 430 566 608
f 432 585 431
f 431 585 584
f 433 568 432
f 432 568 567
f 432 567 585
f 434 610 433
f 433 609 568
f 433 610 609
f 465 435 434
f 435 570 434
f 434 471 465
f 434 472 471
f 434 570 569
f 434 569 610
f 465 436 435
f 436 587 435
f 435 586 570
f 435 587 586
f 437 611 571
f 438 447 439
f 438 439 482
f 446 448 438
f 438 448 447
f 482 439 484
f 441 440 452
f 487 440 441
f 487 485 440
f 441 452 453
f 456 490 442
f 442 490 488
f 455 457 443
f 455 443 490
f 445 491 463
f 445 492 491
f 493 492 445
f 449 448 446
f 454 451 450
f 453 452 451
f 453 451 454
f 455 490 456
f 455 458 457
f 466 600 464
f 464 616 496
f 464 600 616
f 465 471 470
f 465 470 497
f 465 621 473
f 497 621 465
f 590 468 467
f 468 597 467
f 467 597 596
f 467 596 605
f 469 468 590
f 469 618 468
f 468 617 597
f 468 618 617
f 470 469 590
f 470 619 469
f 469 619 618
f 471 620 470
f 497 470 495
f 495 470 517
f 517 470 515
f 515 470 537
f 537 470 535
f 535 470 559
f 559 470 595
f 591 470 590
f 594 470 591
f 595 470 594
f 470 620 619
f 472 599 471
f 471 599 598
f 471 598 620
f 472 606 599
f 473 621 611
f 483 475 474
f 474 475 506
f 482 484 474
f 474 484 483
f 506 475 507
f 477 476 486
f 477 508 476
f 477 486 487
f 509 508 477
f 488 511 478
f 478 511 510
f 488 489 479
f 488 479 511
f 493 480 492
f 512 480 493
f 481 512 493
f 513 512 481
f 487 486 485
f 488 490 489
f 496 616 494
f 494 626 516
f 494 616 626
f 495 627 497
f 517 627 495
f 497 627 621
f 498 507 499
f 498 499 526
f 506 507 498
f 526 499 527
f 501 500 509
f 529 500 501
f 509 500 508
f 529 528 500
f 510 503 502
f 502 503 530
f 510 511 503
f 530 503 531
f 505 504 512
f 505 532 504
f 505 512 513
f 533 532 505
f 516 626 514
f 514 632 536
f 514 626 632
f 515 633 517
f 537 633 515
f 517 633 627
f 518 527 519
f 518 519 546
f 526 527 518
f 546 519 547
f 521 520 528
f 521 550 520
f 521 528 529
f 551 550 521
f 530 531 522
f 522 531 552
f 552 531 523
f 552 523 553
f 557 524 532
f 557 556 524
f 525 532 533
f 557 532 525
f 536 632 534
f 534 638 558
f 534 632 638
f 535 639 537
f 559 639 535
f 537 639 633
f 538 548 539
f 538 539 572
f 546 548 538
f 572 539 573
f 541 540 551
f 541 578 540
f 551 540 549
f 579 578 541
f 552 554 542
f 542 554 582
f 581 554 543
f 581 543 583
f 571 544 555
f 611 544 571
f 588 544 611
f 555 556 545
f 589 555 545
f 545 556 557
f 547 548 546
f 551 549 550
f 552 553 554
f 582 554 581
f 571 555 589
f 558 644 592
f 558 638 644
f 595 645 559
f 559 645 639
f 575 561 560
f 560 561 600
f 572 574 560
f 560 574 575
f 600 561 562
f 600 562 601
f 563 564 565
f 603 563 565
f 603 602 563
f 565 564 576
f 565 576 580
f 581 584 566
f 566 584 608
f 608 567 568
f 608 585 567
f 608 568 609
f 639 569 570
f 639 610 569
f 633 570 586
f 639 570 633
f 572 573 574
f 580 576 577
f 579 577 578
f 580 577 579
f 581 583 584
f 608 584 585
f 627 586 587
f 633 586 627
f 611 587 588
f 621 587 611
f 627 587 621
f 591 590 615
f 593 650 590
f 615 590 614
f 590 650 614
f 591 651 594
f 615 661 591
f 591 661 651
f 592 644 593
f 593 644 650
f 594 651 595
f 595 651 645
f 616 596 597
f 600 605 596
f 600 596 616
f 616 597 617
f 823 598 599
f 818 620 598
f 818 598 822
f 822 598 823
f 824 599 606
f 823 599 824
f 601 602 600
f 600 602 603
f 600 603 604
f 600 604 605
f 808 606 607
f 804 606 807
f 816 606 804
f 807 606 808
f 810 606 814
f 824 606 810
f 814 606 815
f 815 606 816
f 755 607 608
f 775 607 755
f 771 607 774
f 796 607 771
f 774 607 775
f 795 607 796
f 802 607 795
f 798 607 801
f 808 607 798
f 801 607 802
f 608 609 610
f 719 608 610
f 729 608 719
f 728 608 729
f 743 608 728
f 739 608 742
f 757 608 739
f 742 608 743
f 755 608 757
f 645 610 639
f 610 645 651
f 661 610 651
f 659 610 661
f 669 610 659
f 667 610 669
f 677 610 667
f 687 610 677
f 686 610 687
f 695 610 686
f 693 610 695
f 703 610 693
f 711 610 703
f 709 610 711
f 719 610 709
f 613 614 612
f 613 612 625
f 614 660 612
f 625 612 624
f 612 660 624
f 615 614 613
f 613 661 615
f 625 659 613
f 613 659 661
f 614 650 660
f 617 618 616
f 618 619 616
f 616 619 626
f 833 619 620
f 626 619 632
f 632 619 638
f 638 619 644
f 644 619 650
f 650 619 660
f 660 619 658
f 658 619 668
f 668 619 666
f 666 619 676
f 676 619 684
f 684 619 685
f 685 619 694
f 694 619 692
f 692 619 702
f 702 619 710
f 710 619 708
f 708 619 718
f 718 619 726
f 726 619 727
f 727 619 740
f 741 619 738
f 738 619 756
f 740 619 741
f 756 619 754
f 754 619 772
f 773 619 770
f 770 619 793
f 772 619 773
f 793 619 794
f 794 619 799
f 800 619 797
f 797 619 805
f 799 619 800
f 806 619 803
f 803 619 811
f 805 619 806
f 813 619 809
f 809 619 819
f 811 619 812
f 812 619 813
f 821 619 817
f 817 619 827
f 819 619 820
f 820 619 821
f 832 619 825
f 825 619 839
f 826 619 833
f 848 619 826
f 827 619 828
f 828 619 829
f 829 619 830
f 830 619 831
f 831 619 832
f 839 619 840
f 840 619 841
f 841 619 842
f 842 619 843
f 843 619 844
f 844 619 845
f 845 619 846
f 846 619 847
f 847 619 848
f 838 620 818
f 833 620 834
f 834 620 835
f 835 620 836
f 836 620 837
f 837 620 838
f 623 624 622
f 623 622 631
f 624 658 622
f 631 622 630
f 622 668 630
f 622 658 668
f 625 624 623
f 623 669 625
f 631 667 623
f 623 667 669
f 624 660 658
f 625 669 659
f 629 630 628
f 629 628 637
f 630 666 628
f 637 628 636
f 628 676 636
f 628 666 676
f 631 630 629
f 629 677 631
f 637 677 629
f 630 668 666
f 631 677 667
f 635 636 634
f 635 634 643
f 636 684 634
f 643 634 642
f 634 685 642
f 634 684 685
f 637 636 635
f 635 686 637
f 643 695 635
f 635 695 686
f 636 676 684
f 637 687 677
f 637 686 687
f 641 642 640
f 641 640 649
f 642 694 640
f 649 640 648
f 640 694 648
f 643 642 641
f 641 695 643
f 649 693 641
f 641 693 695
f 642 685 694
f 647 648 646
f 647 646 657
f 648 692 646
f 657 646 654
f 646 702 654
f 646 692 702
f 649 648 647
f 647 703 649
f 657 703 647
f 648 694 692
f 649 703 693
f 653 655 652
f 653 652 665
f 655 710 652
f 665 652 664
f 652 710 664
f 656 655 653
f 653 711 656
f 665 709 653
f 653 709 711
f 656 654 655
f 654 702 655
f 657 654 656
f 655 702 710
f 656 711 657
f 657 711 703
f 663 664 662
f 663 662 675
f 664 708 662
f 675 662 672
f 662 718 672
f 662 708 718
f 665 664 663
f 663 719 665
f 675 719 663
f 664 710 708
f 665 719 709
f 671 673 670
f 671 670 683
f 673 726 670
f 683 670 682
f 670 726 682
f 674 673 671
f 671 729 674
f 683 728 671
f 671 728 729
f 674 672 673
f 672 718 673
f 675 672 674
f 673 718 726
f 674 729 675
f 675 729 719
f 680 678 679
f 678 740 679
f 681 678 680
f 681 682 678
f 682 727 678
f 678 727 740
f 680 679 691
f 691 679 690
f 679 741 690
f 679 740 741
f 680 742 681
f 691 739 680
f 680 739 742
f 683 682 681
f 681 743 683
f 681 742 743
f 682 726 727
f 683 743 728
f 689 690 688
f 689 688 701
f 690 738 688
f 701 688 700
f 688 756 700
f 688 738 756
f 691 690 689
f 689 757 691
f 701 755 689
f 689 755 757
f 690 741 738
f 691 757 739
f 698 696 697
f 696 772 697
f 699 696 698
f 699 700 696
f 700 754 696
f 696 754 772
f 698 697 707
f 707 697 706
f 697 773 706
f 697 772 773
f 698 774 699
f 707 771 698
f 698 771 774
f 701 700 699
f 699 775 701
f 699 774 775
f 700 756 754
f 701 775 755
f 705 706 704
f 705 704 717
f 706 770 704
f 717 704 714
f 704 793 714
f 704 770 793
f 707 706 705
f 705 796 707
f 717 795 705
f 705 795 796
f 706 773 770
f 707 796 771
f 713 715 712
f 713 712 725
f 715 799 712
f 725 712 722
f 712 799 722
f 716 715 713
f 713 802 716
f 725 801 713
f 713 801 802
f 716 714 715
f 714 794 715
f 717 714 716
f 714 793 794
f 715 794 799
f 716 802 717
f 717 802 795
f 721 723 720
f 721 720 737
f 723 805 720
f 737 720 734
f 720 806 734
f 720 805 806
f 724 723 721
f 721 808 724
f 737 807 721
f 721 807 808
f 724 722 723
f 722 797 723
f 725 722 724
f 722 800 797
f 722 799 800
f 723 797 805
f 724 808 725
f 725 798 801
f 725 808 798
f 732 730 731
f 730 812 731
f 733 730 732
f 733 735 730
f 735 811 730
f 730 811 812
f 732 731 753
f 753 731 748
f 731 813 748
f 731 812 813
f 732 814 733
f 753 814 732
f 736 735 733
f 733 815 736
f 733 814 815
f 736 734 735
f 734 806 735
f 737 734 736
f 735 806 803
f 735 803 811
f 736 804 737
f 736 816 804
f 736 815 816
f 737 804 807
f 746 744 745
f 744 819 745
f 747 744 746
f 747 750 744
f 750 819 744
f 746 745 769
f 769 745 764
f 745 820 764
f 745 819 820
f 746 823 747
f 769 823 746
f 751 750 747
f 747 824 751
f 747 823 824
f 752 748 749
f 748 813 749
f 753 748 752
f 751 749 750
f 749 809 750
f 752 749 751
f 749 813 809
f 750 809 819
f 751 824 752
f 752 810 753
f 752 824 810
f 753 810 814
f 762 758 759
f 758 828 759
f 763 758 762
f 763 766 758
f 766 827 758
f 758 827 828
f 761 759 760
f 759 829 760
f 762 759 761
f 759 828 829
f 761 760 792
f 792 760 777
f 760 830 777
f 760 829 830
f 761 835 762
f 792 834 761
f 761 834 835
f 762 836 763
f 762 835 836
f 767 766 763
f 763 837 767
f 763 836 837
f 768 764 765
f 764 820 765
f 769 764 768
f 767 765 766
f 765 821 766
f 768 765 767
f 765 820 821
f 766 821 817
f 766 817 827
f 767 818 768
f 767 838 818
f 767 837 838
f 768 822 769
f 768 818 822
f 769 822 823
f 785 784 776
f 784 843 776
f 776 844 785
f 776 843 844
f 791 777 778
f 777 831 778
f 792 777 791
f 777 830 831
f 790 778 779
f 778 832 779
f 791 778 790
f 778 831 832
f 789 779 780
f 779 825 780
f 790 779 789
f 779 832 825
f 788 780 781
f 780 839 781
f 789 780 788
f 780 825 839
f 787 781 782
f 781 840 782
f 788 781 787
f 781 839 840
f 786 782 783
f 782 841 783
f 787 782 786
f 782 840 841
f 785 783 784
f 783 842 784
f 786 783 785
f 783 841 842
f 784 842 843
f 785 844 786
f 786 845 787
f 786 844 845
f 787 846 788
f 787 845 846
f 788 847 789
f 788 846 847
f 789 848 790
f 789 847 848
f 790 826 791
f 790 848 826
f 791 833 792
f 791 826 833
f 792 833 834
