# CAD visual only; metres; body-local coordinates
v -0.0100000004 3.72796696e-10 0.00999999809
v -0.0100000004 3.72796696e-10 0.012000001
v -0.00978147544 -0.00207911454 0.00999999809
v -0.00978147544 -0.00207911454 0.012000001
v -0.00981627502 -0.00190809213 0.00999999809
v -0.00981627502 -0.00190809213 0.012000001
v -0.00987688102 -0.00156434499 0.00999999809
v -0.00984808005 -0.0017364832 0.012000001
v -0.00990267791 -0.00139172994 0.00999999809
v -0.00990267791 -0.00139172994 0.012000001
v -0.00994522132 -0.0010452839 0.00999999809
v -0.00992546119 -0.00121869527 0.012000001
v -0.00996194877 -0.000871557817 0.00999999809
v -0.00996194877 -0.000871557817 0.012000001
v -0.00998629607 -0.000523361787 0.00999999809
v -0.00997564353 -0.000697564706 0.012000001
v -0.00999390639 -0.000348996743 0.00999999809
v -0.00999390639 -0.000348996743 0.012000001
v -0.00999847449 -0.000174522027 0.00999999809
v -0.00999847449 -0.000174522027 0.012000001
v -0.00999847449 0.000174522773 0.00999999809
v -0.00999847449 0.000174522773 0.012000001
v -0.00999390639 0.000348992721 0.00999999809
v -0.00999390639 0.000348992721 0.012000001
v -0.00997564353 0.000697565452 0.00999999809
v -0.00998629607 0.000523357764 0.012000001
v -0.00996194877 0.000871558562 0.00999999809
v -0.00996194877 0.000871558562 0.012000001
v -0.00992546119 0.00121869124 0.00999999809
v -0.00994522132 0.00104528464 0.012000001
v -0.00990267791 0.00139173068 0.00999999809
v -0.00990267791 0.00139173068 0.012000001
v -0.00984808005 0.00173648395 0.00999999809
v -0.00987688102 0.00156434573 0.012000001
v -0.00981627502 0.0019080881 0.00999999809
v -0.00981627502 0.0019080881 0.012000001
v -0.00978147544 0.00207911529 0.00999999809
v -0.00978147544 0.00207911529 0.012000001
v -0.00951056518 -0.00309017144 0.00999999809
v -0.00951056518 -0.00309017144 0.012000001
v -0.00961261787 -0.00275637589 0.00999999809
v -0.00956304587 -0.00292371713 0.012000001
v -0.00965926208 -0.00258819066 0.00999999809
v -0.00965926208 -0.00258819066 0.012000001
v -0.00970295943 -0.00241921864 0.00999999809
v -0.00970295943 -0.00241921864 0.012000001
v -0.0097437004 -0.0022495123 0.00999999809
v -0.0097437004 -0.0022495123 0.012000001
v -0.0097437004 0.00224950828 0.00999999809
v -0.0097437004 0.00224950828 0.012000001
v -0.00970295943 0.00241921939 0.00999999809
v -0.00970295943 0.00241921939 0.012000001
v -0.00965926208 0.00258819141 0.00999999809
v -0.00965926208 0.00258819141 0.012000001
v -0.00956304587 0.00292371787 0.00999999809
v -0.00961261787 0.00275637187 0.012000001
v -0.00951056518 0.00309017219 0.00999999809
v -0.00951056518 0.00309017219 0.012000001
v -0.00933580436 -0.00358367883 0.00999999809
v -0.00927184142 -0.00374606572 0.012000001
v -0.00945518531 -0.00325568162 0.00999999809
v -0.00939692535 -0.00342019998 0.012000001
v -0.00939692535 0.00342020072 0.00999999809
v -0.00945518531 0.00325568236 0.012000001
v -0.00927184142 0.0037460617 0.00999999809
v -0.00933580436 0.00358367957 0.012000001
v -0.00913545646 -0.00406736813 0.00999999809
v -0.00906308211 -0.00422618352 0.012000001
v -0.00920504607 -0.00390731297 0.00999999809
v -0.00920504607 -0.00390731297 0.012000001
v -0.00920504607 0.00390730895 0.00999999809
v -0.00920504607 0.00390730895 0.012000001
v -0.00906308211 0.0042261795 0.00999999809
v -0.00913545646 0.00406736411 0.012000001
v -0.00891006507 -0.00453990422 0.00999999809
v -0.00882947959 -0.00469471417 0.012000001
v -0.00898794211 -0.00438371144 0.00999999809
v -0.00898794211 -0.00438371144 0.012000001
v -0.00898794211 0.00438370742 0.00999999809
v -0.00898794211 0.00438370742 0.012000001
v -0.00882947959 0.00469471969 0.00999999809
v -0.00891006507 0.00453990974 0.012000001
v -0.00857167281 -0.00515037976 0.00999999809
v -0.00857167281 -0.00515037976 0.012000001
v -0.00874619521 -0.00484809838 0.00999999809
v -0.00866025008 -0.00499999963 0.012000001
v -0.00874619521 0.00484809913 0.00999999809
v -0.00874619521 0.00484809913 0.012000001
v -0.00857167281 0.00515038528 0.00999999809
v -0.00866025008 0.00500000037 0.012000001
v -0.00829037704 -0.00559193097 0.00999999809
v -0.00829037704 -0.00559193097 0.012000001
v -0.00848048247 -0.0052991911 0.00999999809
v -0.00838670768 -0.00544639073 0.012000001
v -0.00838670768 0.00544638671 0.00999999809
v -0.00848048247 0.00529919662 0.012000001
v -0.00829037704 0.00559192695 0.00999999809
v -0.00829037704 0.00559192695 0.012000001
v -0.00809017219 -0.00587785207 0.00999999809
v -0.00809017219 -0.00587785207 0.012000001
v -0.00819151916 -0.00573576413 0.00999999809
v -0.00819151916 -0.00573576413 0.012000001
v -0.00819151916 0.00573576011 0.00999999809
v -0.00819151916 0.00573576011 0.012000001
v -0.00809017219 0.00587784804 0.00999999809
v -0.00809017219 0.00587784804 0.012000001
v -0.00777146377 -0.00629320584 0.00999999809
v -0.00777146377 -0.00629320584 0.012000001
v -0.0079863552 -0.00601815186 0.00999999809
v -0.00788010635 -0.00615661584 0.012000001
v -0.00788010635 0.00615661658 0.00999999809
v -0.0079863552 0.00601815261 0.012000001
v -0.00777146377 0.00629320182 0.00999999809
v -0.00777146377 0.00629320182 0.012000001
v -0.00754709281 -0.00656059228 0.00999999809
v -0.00754709281 -0.00656059228 0.012000001
v -0.00766044654 -0.00642787419 0.00999999809
v -0.00766044654 -0.00642787419 0.012000001
v -0.00766044654 0.00642787971 0.00999999809
v -0.00766044654 0.00642787971 0.012000001
v -0.00754709281 0.00656059302 0.00999999809
v -0.00754709281 0.00656059302 0.012000001
v -0.00731353797 -0.00681998216 0.00999999809
v -0.00731353797 -0.00681998216 0.012000001
v -0.00743145026 -0.00669130765 0.00999999809
v -0.00743145026 -0.00669130765 0.012000001
v -0.00743145026 0.00669130363 0.00999999809
v -0.00743145026 0.00669130363 0.012000001
v -0.00731353797 0.0068199829 0.00999999809
v -0.00731353797 0.0068199829 0.012000001
v -0.00707106628 -0.00707106553 0.00999999809
v -0.00707106628 -0.00707106553 0.012000001
v -0.00719339408 -0.00694658242 0.00999999809
v -0.00719339408 -0.00694658242 0.012000001
v -0.00719339408 0.00694658317 0.00999999809
v -0.00719339408 0.00694658317 0.012000001
v -0.00707106628 0.00707106628 0.00999999809
v -0.00707106628 0.00707106628 0.012000001
v -0.0068199829 -0.00731353722 0.00999999809
v -0.0068199829 -0.00731353722 0.012000001
v -0.00694658317 -0.0071933981 0.00999999809
v -0.00694658317 -0.0071933981 0.012000001
v -0.00675417937 0.00573358573 0.00999999809
v -0.00675083198 0.00554186858 0.012000001
v -0.00675083198 0.00577183761 0.00999999809
v -0.00675267257 0.00575272597 0.012000001
v -0.00694658317 0.00719339408 0.00999999809
v -0.00694658317 0.00719339408 0.012000001
v -0.0068199829 0.00731353797 0.00999999809
v -0.0068199829 0.00731353797 0.012000001
v -0.00656059302 -0.00754709683 0.00999999809
v -0.00656059302 -0.00754709683 0.012000001
v -0.00669130363 -0.00743144952 0.00999999809
v -0.00669130363 -0.00743144952 0.012000001
v -0.00653534927 0.00499486007 0.00999999809
v -0.00651171722 0.00496459998 0.012000001
v -0.00667676009 0.0052447895 0.00999999809
v -0.00654677428 0.00501029052 0.012000001
v -0.00674330749 0.0054847721 0.00999999809
v -0.00668378867 0.00526265182 0.012000001
v -0.0067486576 0.0055227951 0.00999999809
v -0.00674614944 0.00550375976 0.012000001
v -0.00670301475 0.00599677123 0.00999999809
v -0.0067486576 0.00579091109 0.012000001
v -0.0065897087 0.00623976745 0.00999999809
v -0.00669692077 0.00601497687 0.012000001
v -0.00651171722 0.00634910621 0.00999999809
v -0.00657938994 0.00625596084 0.012000001
v -0.00669130363 0.00743145026 0.00999999809
v -0.00669130363 0.00743145026 0.012000001
v -0.00656059302 0.00754709281 0.00999999809
v -0.00656059302 0.00754709281 0.012000001
v -0.00629320182 -0.00777145825 0.00999999809
v -0.00629320182 -0.00777145825 0.012000001
v -0.00642787971 -0.00766044579 0.00999999809
v -0.00642787971 -0.00766044579 0.012000001
v -0.00627196349 0.00474491157 0.00999999809
v -0.00625596084 0.00473431624 0.012000001
v -0.00649950065 0.00494978942 0.00999999809
v -0.00628778495 0.00475578345 0.012000001
v -0.00636391677 0.00649950065 0.00999999809
v -0.00649950065 0.00636391677 0.012000001
v -0.00625596084 0.00657938994 0.00999999809
v -0.00634910621 0.00651171722 0.012000001
v -0.00642787971 0.00766044654 0.00999999809
v -0.00642787971 0.00766044654 0.012000001
v -0.00629320182 0.00777146377 0.00999999809
v -0.00629320182 0.00777146377 0.012000001
v -0.00615661658 -0.0078801056 0.00999999809
v -0.00601815261 -0.00798635446 0.012000001
v -0.00623976745 0.00472399749 0.00999999809
v -0.00601497687 0.00461678542 0.012000001
v -0.00601497687 0.00669692077 0.00999999809
v -0.00623976745 0.0065897087 0.012000001
v -0.00601815261 0.0079863552 0.00999999809
v -0.00615661658 0.00788010635 0.012000001
v -0.00587784804 -0.00809017144 0.00999999809
v -0.00587784804 -0.00809017144 0.012000001
v -0.00599677123 0.00461069144 0.00999999809
v -0.00575272597 0.00456104316 0.012000001
v -0.00579091109 0.0067486576 0.00999999809
v -0.00599677123 0.00670301475 0.012000001
v -0.00575272597 0.00675267257 0.00999999809
v -0.00577183761 0.00675083198 0.012000001
v -0.00587784804 0.00809017219 0.00999999809
v -0.00587784804 0.00809017219 0.012000001
v -0.00559192695 -0.00829037629 0.00999999809
v -0.00559192695 -0.00829037629 0.012000001
v -0.00573576011 -0.00819151841 0.00999999809
v -0.00573576011 -0.00819151841 0.012000001
v -0.00573358573 0.00455953635 0.00999999809
v -0.00550375976 0.00456755675 0.012000001
v -0.00550375976 0.00674614944 0.00999999809
v -0.0055227951 0.0067486576 0.012000001
v -0.00554186858 0.00675083198 0.00999999809
v -0.00573358573 0.00675417937 0.012000001
v -0.00573576011 0.00819151916 0.00999999809
v -0.00573576011 0.00819151916 0.012000001
v -0.00559192695 0.00829037704 0.00999999809
v -0.00559192695 0.00829037704 0.012000001
v -0.00544638671 -0.00838670693 0.00999999809
v -0.00529919662 -0.00848048173 0.012000001
v -0.0054847721 0.0045703987 0.00999999809
v -0.00526265182 0.00462991752 0.012000001
v -0.00526265182 0.00668378867 0.00999999809
v -0.0054847721 0.00674330749 0.012000001
v -0.00529919662 0.00848048247 0.00999999809
v -0.00544638671 0.00838670768 0.012000001
v -0.00515038528 -0.00857167207 0.00999999809
v -0.00500000037 -0.00866025411 0.012000001
v -0.0052447895 0.00463695563 0.00999999809
v -0.0050417427 0.00474491157 0.012000001
v -0.00502592124 0.00475578345 0.00999999809
v -0.00501029052 0.00476693191 0.012000001
v -0.00501029052 0.00654677428 0.00999999809
v -0.0052447895 0.00667676009 0.012000001
v -0.00500000037 0.00866025008 0.00999999809
v -0.00515038528 0.00857167281 0.012000001
v -0.00484809913 -0.00874619924 0.00999999809
v -0.00484809913 -0.00874619924 0.012000001
v -0.00487903632 0.00487903632 0.00999999809
v -0.00487903632 0.00487903632 0.012000001
v -0.00476693191 0.00501029052 0.00999999809
v -0.00475578345 0.00502592124 0.012000001
v -0.00475578345 0.00628778495 0.00999999809
v -0.00494978942 0.00649950065 0.012000001
v -0.00496459998 0.00651171722 0.00999999809
v -0.00499486007 0.00653534927 0.012000001
v -0.00484809913 0.00874619521 0.00999999809
v -0.00484809913 0.00874619521 0.012000001
v -0.00469471969 -0.00882947408 0.00999999809
v -0.00453990974 -0.00891006432 0.012000001
v -0.00474491157 0.0050417427 0.00999999809
v -0.00463695563 0.0052447895 0.012000001
v -0.00462991752 0.00526265182 0.00999999809
v -0.0045703987 0.0054847721 0.012000001
v -0.00456755675 0.00550375976 0.00999999809
v -0.00455953635 0.00573358573 0.012000001
v -0.00456104316 0.00575272597 0.00999999809
v -0.00461069144 0.00599677123 0.012000001
v -0.00461678542 0.00601497687 0.00999999809
v -0.00472399749 0.00623976745 0.012000001
v -0.00473431624 0.00625596084 0.00999999809
v -0.00474491157 0.00627196349 0.012000001
v -0.00453990974 0.00891006507 0.00999999809
v -0.00469471969 0.00882947959 0.012000001
v -0.00438370742 -0.00898794137 0.00999999809
v -0.00438370742 -0.00898794137 0.012000001
v -0.00438370742 0.00898794211 0.00999999809
v -0.00438370742 0.00898794211 0.012000001
v -0.0042261795 -0.0090630766 0.00999999809
v -0.00406736411 -0.00913545571 0.012000001
v -0.00406736411 0.00913545646 0.00999999809
v -0.0042261795 0.00906308211 0.012000001
v -0.00390730895 -0.0092050501 0.00999999809
v -0.00390730895 -0.0092050501 0.012000001
v -0.00390730895 0.00920504607 0.00999999809
v -0.00390730895 0.00920504607 0.012000001
v -0.0037460617 -0.00927184068 0.00999999809
v -0.00358367957 -0.00933580361 0.012000001
v -0.00358367957 0.00933580436 0.00999999809
v -0.0037460617 0.00927184142 0.012000001
v -0.00342020072 -0.0093969246 0.00999999809
v -0.00325568236 -0.00945518456 0.012000001
v -0.00325568236 0.00945518531 0.00999999809
v -0.00342020072 0.00939692535 0.012000001
v -0.00309017219 -0.00951056443 0.00999999809
v -0.00309017219 -0.00951056443 0.012000001
v -0.00309017219 0.00951056518 0.00999999809
v -0.00309017219 0.00951056518 0.012000001
v -0.00292371787 -0.0095630499 0.00999999809
v -0.00275637187 -0.00961261712 0.012000001
v -0.00275637187 0.00961261787 0.00999999809
v -0.00292371787 0.00956304587 0.012000001
v -0.00258819141 -0.00965925656 0.00999999809
v -0.00258819141 -0.00965925656 0.012000001
v -0.00258819141 0.00965926208 0.00999999809
v -0.00258819141 0.00965926208 0.012000001
v -0.00241921939 -0.00970295869 0.00999999809
v -0.00241921939 -0.00970295869 0.012000001
v -0.00241921939 0.00970295943 0.00999999809
v -0.00241921939 0.00970295943 0.012000001
v -0.00207911529 -0.00978147469 0.00999999809
v -0.00207911529 -0.00978147469 0.012000001
v -0.00224950828 -0.00974369965 0.00999999809
v -0.00224950828 -0.00974369965 0.012000001
v -0.00224950828 0.0097437004 0.00999999809
v -0.00224950828 0.0097437004 0.012000001
v -0.00207911529 0.00978147544 0.00999999809
v -0.00207911529 0.00978147544 0.012000001
v -0.0019080881 -0.0098162695 0.00999999809
v -0.0019080881 -0.0098162695 0.012000001
v -0.0019080881 0.00981627502 0.00999999809
v -0.0019080881 0.00981627502 0.012000001
v -0.00173648395 -0.00984807931 0.00999999809
v -0.00156434573 -0.00987688504 0.012000001
v -0.00150000133 3.72796696e-10 0.00999999809
v -0.00150000133 3.72796696e-10 0.012000001
v -0.00156434573 0.00987688102 0.00999999809
v -0.00173648395 0.00984808005 0.012000001
v -0.00139173068 -0.00990268193 0.00999999809
v -0.00139173068 -0.00990268193 0.012000001
v -0.00125800647 -0.000816959962 0.00999999809
v -0.00128574885 -0.000772556886 0.012000001
v -0.00129903831 -0.00074999772 0.00999999809
v -0.00140954055 -0.000513028726 0.012000001
v -0.00141827621 -0.000488352403 0.00999999809
v -0.00147721328 -0.000260471925 0.012000001
v -0.00148153342 -0.000234651193 0.00999999809
v -0.00149977244 -2.61779872e-05 0.012000001
v -0.00149977244 2.61787328e-05 0.00999999809
v -0.00148153342 0.000234651938 0.012000001
v -0.00147721328 0.00026047267 0.00999999809
v -0.00141827621 0.000488353148 0.012000001
v -0.00140954055 0.000513029471 0.00999999809
v -0.00129903831 0.000749998465 0.012000001
v -0.00128574885 0.000772557631 0.00999999809
v -0.00125800647 0.000816960708 0.012000001
v -0.00139173068 0.00990267791 0.00999999809
v -0.00139173068 0.00990267791 0.012000001
v -0.00121869124 -0.00992546044 0.00999999809
v -0.00104528464 -0.00994522057 0.012000001
v -0.00100369491 -0.00111471616 0.00999999809
v -0.0011147169 -0.00100369416 0.012000001
v -0.00113206424 -0.000984086618 0.00999999809
v -0.0012435583 -0.000838789567 0.012000001
v -0.0012435583 0.000838790313 0.00999999809
v -0.00113206424 0.000984087363 0.012000001
v -0.0011147169 0.00100369491 0.00999999809
v -0.00100369491 0.0011147169 0.012000001
v -0.00104528464 0.00994522132 0.00999999809
v -0.00121869124 0.00992546119 0.012000001
v -0.000871558562 -0.00996194802 0.00999999809
v -0.000871558562 -0.00996194802 0.012000001
v -0.000772557631 -0.00128575288 0.00999999809
v -0.000816960708 -0.00125800572 0.012000001
v -0.000838790313 -0.00124355756 0.00999999809
v -0.000984087363 -0.00113206349 0.012000001
v -0.000984087363 0.00113206424 0.00999999809
v -0.000838790313 0.0012435583 0.012000001
v -0.000816960708 0.00125800647 0.00999999809
v -0.000772557631 0.00128574885 0.012000001
v -0.000871558562 0.00996194877 0.00999999809
v -0.000871558562 0.00996194877 0.012000001
v -0.000697565452 -0.00997564279 0.00999999809
v -0.000523357764 -0.00998629533 0.012000001
v -0.000513029471 -0.0014095398 0.00999999809
v -0.000749998465 -0.00129903756 0.012000001
v -0.000749998465 0.00129903831 0.00999999809
v -0.000513029471 0.00140954055 0.012000001
v -0.000523357764 0.00998629607 0.00999999809
v -0.000697565452 0.00997564353 0.012000001
v -0.000348992721 -0.00999391042 0.00999999809
v -0.000348992721 -0.00999391042 0.012000001
v -0.00026047267 -0.00147721253 0.00999999809
v -0.000488353148 -0.00141828023 0.012000001
v -0.000488353148 0.00141827621 0.00999999809
v -0.00026047267 0.00147721328 0.012000001
v -0.000348992721 0.00999390639 0.00999999809
v -0.000348992721 0.00999390639 0.012000001
v -0.000174522773 -0.00999847852 0.00999999809
v -3.7279671e-10 -0.00999999963 0.012000001
v -3.7279671e-10 -0.00150000058 0.00999999809
v -3.7279671e-10 -0.00150000058 0.012000001
v -2.61787328e-05 -0.0014997717 0.00999999809
v -0.000234651938 -0.00148153268 0.012000001
v -0.000234651938 0.00148153342 0.00999999809
v -2.61787328e-05 0.00149977244 0.012000001
v -3.7279671e-10 0.00150000133 0.00999999809
v -3.7279671e-10 0.00150000133 0.012000001
v -0.000174522773 0.00999847449 0.00999999809
v -0.000174522773 0.00999847449 0.012000001
v -3.7279671e-10 0.0100000004 0.00999999809
v -3.7279671e-10 0.0100000004 0.012000001
v 0.000174522027 -0.00999847852 0.00999999809
v 0.000174522027 -0.00999847852 0.012000001
v 0.000234651193 -0.00148153268 0.00999999809
v 2.61779872e-05 -0.0014997717 0.012000001
v 2.61779872e-05 0.00149977244 0.00999999809
v 0.000234651193 0.00148153342 0.012000001
v 0.000174522027 0.00999847449 0.00999999809
v 0.000174522027 0.00999847449 0.012000001
v 0.000348996743 -0.00999391042 0.00999999809
v 0.000348996743 -0.00999391042 0.012000001
v 0.000488352403 -0.00141828023 0.00999999809
v 0.000260471925 -0.00147721253 0.012000001
v 0.000260471925 0.00147721328 0.00999999809
v 0.000488352403 0.00141827621 0.012000001
v 0.000348996743 0.00999390639 0.00999999809
v 0.000348996743 0.00999390639 0.012000001
v 0.000523361787 -0.00998629533 0.00999999809
v 0.000697564706 -0.00997564279 0.012000001
v 0.00074999772 -0.00129903756 0.00999999809
v 0.000513028726 -0.0014095398 0.012000001
v 0.000513028726 0.00140954055 0.00999999809
v 0.00074999772 0.00129903831 0.012000001
v 0.000697564706 0.00997564353 0.00999999809
v 0.000523361787 0.00998629607 0.012000001
v 0.000871557817 -0.00996194802 0.00999999809
v 0.000871557817 -0.00996194802 0.012000001
v 0.000816959962 -0.00125800572 0.00999999809
v 0.000772556886 -0.00128575288 0.012000001
v 0.000984086618 -0.00113206349 0.00999999809
v 0.000838789567 -0.00124355756 0.012000001
v 0.000838789567 0.0012435583 0.00999999809
v 0.000984086618 0.00113206424 0.012000001
v 0.000772556886 0.00128574885 0.00999999809
v 0.000816959962 0.00125800647 0.012000001
v 0.000871557817 0.00996194877 0.00999999809
v 0.000871557817 0.00996194877 0.012000001
v 0.0010452839 -0.00994522057 0.00999999809
v 0.00121869527 -0.00992546044 0.012000001
v 0.0010606619 -0.0010606619 0.00999999809
v 0.0010606619 -0.0010606619 0.012000001
v 0.00124355756 -0.000838789567 0.00999999809
v 0.00113206349 -0.000984086618 0.012000001
v 0.00113206349 0.000984087363 0.00999999809
v 0.00124355756 0.000838790313 0.012000001
v 0.00100369416 0.0011147169 0.00999999809
v 0.00111471616 0.00100369491 0.012000001
v 0.00121869527 0.00992546119 0.00999999809
v 0.0010452839 0.00994522132 0.012000001
v 0.00139172994 -0.00990268193 0.00999999809
v 0.00139172994 -0.00990268193 0.012000001
v 0.00128575288 -0.000772556886 0.00999999809
v 0.00125800572 -0.000816959962 0.012000001
v 0.0014095398 -0.000513028726 0.00999999809
v 0.00129903756 -0.00074999772 0.012000001
v 0.00147721253 -0.000260471925 0.00999999809
v 0.00141828023 -0.000488352403 0.012000001
v 0.0014997717 -2.61779872e-05 0.00999999809
v 0.00148153268 -0.000234651193 0.012000001
v 0.00148153268 0.000234651938 0.00999999809
v 0.0014997717 2.61787328e-05 0.012000001
v 0.00141828023 0.000488353148 0.00999999809
v 0.00147721253 0.00026047267 0.012000001
v 0.00129903756 0.000749998465 0.00999999809
v 0.0014095398 0.000513029471 0.012000001
v 0.00125800572 0.000816960708 0.00999999809
v 0.00128575288 0.000772557631 0.012000001
v 0.00139172994 0.00990267791 0.00999999809
v 0.00139172994 0.00990267791 0.012000001
v 0.00156434499 -0.00987688504 0.00999999809
v 0.0017364832 -0.00984807931 0.012000001
v 0.00150000058 3.72796696e-10 0.00999999809
v 0.00150000058 3.72796696e-10 0.012000001
v 0.0017364832 0.00984808005 0.00999999809
v 0.00156434499 0.00987688102 0.012000001
v 0.00190809213 -0.0098162695 0.00999999809
v 0.00190809213 -0.0098162695 0.012000001
v 0.00190809213 0.00981627502 0.00999999809
v 0.00190809213 0.00981627502 0.012000001
v 0.00207911454 -0.00978147469 0.00999999809
v 0.00207911454 -0.00978147469 0.012000001
v 0.0022495123 -0.00974369965 0.00999999809
v 0.0022495123 -0.00974369965 0.012000001
v 0.0022495123 0.0097437004 0.00999999809
v 0.0022495123 0.0097437004 0.012000001
v 0.00207911454 0.00978147544 0.00999999809
v 0.00207911454 0.00978147544 0.012000001
v 0.00241921864 -0.00970295869 0.00999999809
v 0.00241921864 -0.00970295869 0.012000001
v 0.00241921864 0.00970295943 0.00999999809
v 0.00241921864 0.00970295943 0.012000001
v 0.00258819066 -0.00965925656 0.00999999809
v 0.00258819066 -0.00965925656 0.012000001
v 0.00258819066 0.00965926208 0.00999999809
v 0.00258819066 0.00965926208 0.012000001
v 0.00275637589 -0.00961261712 0.00999999809
v 0.00292371713 -0.0095630499 0.012000001
v 0.00292371713 0.00956304587 0.00999999809
v 0.00275637589 0.00961261787 0.012000001
v 0.00309017144 -0.00951056443 0.00999999809
v 0.00309017144 -0.00951056443 0.012000001
v 0.00309017144 0.00951056518 0.00999999809
v 0.00309017144 0.00951056518 0.012000001
v 0.00325568162 -0.00945518456 0.00999999809
v 0.00342019998 -0.0093969246 0.012000001
v 0.00342019998 0.00939692535 0.00999999809
v 0.00325568162 0.00945518531 0.012000001
v 0.00358367883 -0.00933580361 0.00999999809
v 0.00374606572 -0.00927184068 0.012000001
v 0.00374606572 0.00927184142 0.00999999809
v 0.00358367883 0.00933580436 0.012000001
v 0.00390731297 -0.0092050501 0.00999999809
v 0.00390731297 -0.0092050501 0.012000001
v 0.00390731297 0.00920504607 0.00999999809
v 0.00390731297 0.00920504607 0.012000001
v 0.00406736813 -0.00913545571 0.00999999809
v 0.00422618352 -0.0090630766 0.012000001
v 0.00422618352 0.00906308211 0.00999999809
v 0.00406736813 0.00913545646 0.012000001
v 0.00438371144 -0.00898794137 0.00999999809
v 0.00438371144 -0.00898794137 0.012000001
v 0.00438371144 0.00898794211 0.00999999809
v 0.00438371144 0.00898794211 0.012000001
v 0.00453990422 -0.00891006432 0.00999999809
v 0.00469471417 -0.00882947408 0.012000001
v 0.00474491082 -0.00627196752 0.00999999809
v 0.0047343155 -0.00625595532 0.012000001
v 0.00472400151 -0.0062397667 0.00999999809
v 0.00461678468 -0.0060149809 0.012000001
v 0.0046106907 -0.00599677525 0.00999999809
v 0.00456104241 -0.00575272523 0.012000001
v 0.00455953561 -0.00573358498 0.00999999809
v 0.00456756078 -0.00550376378 0.012000001
v 0.00457039796 -0.00548477612 0.00999999809
v 0.00462991677 -0.00526265107 0.012000001
v 0.00463695012 -0.00524478875 0.00999999809
v 0.00474491082 -0.00504174195 0.012000001
v 0.00469471417 0.00882947959 0.00999999809
v 0.00453990422 0.00891006507 0.012000001
v 0.00484809838 -0.00874619924 0.00999999809
v 0.00499999963 -0.00866025411 0.012000001
v 0.00499485932 -0.00653535329 0.00999999809
v 0.004964604 -0.00651171647 0.012000001
v 0.00494978867 -0.00649950467 0.00999999809
v 0.00475578748 -0.00628778897 0.012000001
v 0.00475578748 -0.0050259205 0.00999999809
v 0.00476693593 -0.00501028977 0.012000001
v 0.00477835618 -0.00499485932 0.00999999809
v 0.00499485932 -0.00477835618 0.012000001
v 0.00499999963 0.00866025008 0.00999999809
v 0.00484809838 0.00874619521 0.012000001
v 0.00515037976 -0.00857167207 0.00999999809
v 0.00515037976 -0.00857167207 0.012000001
v 0.00524478875 -0.00667675458 0.00999999809
v 0.00501028977 -0.00654677354 0.012000001
v 0.00501028977 -0.00476693593 0.00999999809
v 0.0050259205 -0.00475578748 0.012000001
v 0.00504174195 -0.00474491082 0.00999999809
v 0.00524478875 -0.00463695012 0.012000001
v 0.00515037976 0.00857167281 0.00999999809
v 0.00515037976 0.00857167281 0.012000001
v 0.0052991911 -0.00848048173 0.00999999809
v 0.00544639073 -0.00838670693 0.012000001
v 0.00548477612 -0.00674331151 0.00999999809
v 0.00526265107 -0.0066837927 0.012000001
v 0.00526265107 -0.00462991677 0.00999999809
v 0.00548477612 -0.00457039796 0.012000001
v 0.00544639073 0.00838670768 0.00999999809
v 0.0052991911 0.00848048247 0.012000001
v 0.00559193097 -0.00829037629 0.00999999809
v 0.00559193097 -0.00829037629 0.012000001
v 0.00573576413 -0.00819151841 0.00999999809
v 0.00573576413 -0.00819151841 0.012000001
v 0.00573358498 -0.00675417386 0.00999999809
v 0.00554187261 -0.00675082646 0.012000001
v 0.00552279912 -0.00674865685 0.00999999809
v 0.00550376378 -0.00674614869 0.012000001
v 0.00550376378 -0.00456756078 0.00999999809
v 0.00573358498 -0.00455953561 0.012000001
v 0.00573576413 0.00819151916 0.00999999809
v 0.00573576413 0.00819151916 0.012000001
v 0.00559193097 0.00829037704 0.00999999809
v 0.00559193097 0.00829037704 0.012000001
v 0.00587785207 -0.00809017144 0.00999999809
v 0.00587785207 -0.00809017144 0.012000001
v 0.00577183686 -0.00675082646 0.00999999809
v 0.00575272523 -0.00675266705 0.012000001
v 0.00599677525 -0.00670301877 0.00999999809
v 0.00579091035 -0.00674865685 0.012000001
v 0.00575272523 -0.00456104241 0.00999999809
v 0.00599677525 -0.0046106907 0.012000001
v 0.00587785207 0.00809017219 0.00999999809
v 0.00587785207 0.00809017219 0.012000001
v 0.00601815186 -0.00798635446 0.00999999809
v 0.00615661584 -0.0078801056 0.012000001
v 0.0062397667 -0.00658970796 0.00999999809
v 0.0060149809 -0.00669692479 0.012000001
v 0.0060149809 -0.00461678468 0.00999999809
v 0.0062397667 -0.00472400151 0.012000001
v 0.00615661584 0.00788010635 0.00999999809
v 0.00601815186 0.0079863552 0.012000001
v 0.00629320584 -0.00777145825 0.00999999809
v 0.00629320584 -0.00777145825 0.012000001
v 0.00642787419 -0.00766044579 0.00999999809
v 0.00642787419 -0.00766044579 0.012000001
v 0.00634910546 -0.00651171647 0.00999999809
v 0.00625595532 -0.00657939397 0.012000001
v 0.00643467389 -0.00643467389 0.00999999809
v 0.00643467389 -0.00643467389 0.012000001
v 0.00628778897 -0.00475578748 0.00999999809
v 0.00649950467 -0.00494978867 0.012000001
v 0.00625595532 -0.0047343155 0.00999999809
v 0.00627196752 -0.00474491082 0.012000001
v 0.00642787419 0.00766044654 0.00999999809
v 0.00642787419 0.00766044654 0.012000001
v 0.00629320584 0.00777146377 0.00999999809
v 0.00629320584 0.00777146377 0.012000001
v 0.00656059228 -0.00754709683 0.00999999809
v 0.00656059228 -0.00754709683 0.012000001
v 0.00669130765 -0.00743144952 0.00999999809
v 0.00669130765 -0.00743144952 0.012000001
v 0.00657939397 -0.00625595532 0.00999999809
v 0.00651171647 -0.00634910546 0.012000001
v 0.00669692479 -0.0060149809 0.00999999809
v 0.00658970796 -0.0062397667 0.012000001
v 0.00674865685 -0.00579091035 0.00999999809
v 0.00670301877 -0.00599677525 0.012000001
v 0.00674614869 -0.00550376378 0.00999999809
v 0.00674865685 -0.00552279912 0.012000001
v 0.0066837927 -0.00526265107 0.00999999809
v 0.00674331151 -0.00548477612 0.012000001
v 0.00654677354 -0.00501028977 0.00999999809
v 0.00667675458 -0.00524478875 0.012000001
v 0.00651171647 -0.004964604 0.00999999809
v 0.00653535329 -0.00499485932 0.012000001
v 0.00669130765 0.00743145026 0.00999999809
v 0.00669130765 0.00743145026 0.012000001
v 0.00656059228 0.00754709281 0.00999999809
v 0.00656059228 0.00754709281 0.012000001
v 0.00681998216 -0.00731353722 0.00999999809
v 0.00681998216 -0.00731353722 0.012000001
v 0.00694658242 -0.0071933981 0.00999999809
v 0.00694658242 -0.0071933981 0.012000001
v 0.00675266705 -0.00575272523 0.00999999809
v 0.00675082646 -0.00577183686 0.012000001
v 0.00675082646 -0.00554187261 0.00999999809
v 0.00675417386 -0.00573358498 0.012000001
v 0.00694658242 0.00719339408 0.00999999809
v 0.00694658242 0.00719339408 0.012000001
v 0.00681998216 0.00731353797 0.00999999809
v 0.00681998216 0.00731353797 0.012000001
v 0.00707106553 -0.00707106553 0.00999999809
v 0.00707106553 -0.00707106553 0.012000001
v 0.0071933981 -0.00694658242 0.00999999809
v 0.0071933981 -0.00694658242 0.012000001
v 0.0071933981 0.00694658317 0.00999999809
v 0.0071933981 0.00694658317 0.012000001
v 0.00707106553 0.00707106628 0.00999999809
v 0.00707106553 0.00707106628 0.012000001
v 0.00731353722 -0.00681998216 0.00999999809
v 0.00731353722 -0.00681998216 0.012000001
v 0.00743144952 -0.00669130765 0.00999999809
v 0.00743144952 -0.00669130765 0.012000001
v 0.00743144952 0.00669130363 0.00999999809
v 0.00743144952 0.00669130363 0.012000001
v 0.00731353722 0.0068199829 0.00999999809
v 0.00731353722 0.0068199829 0.012000001
v 0.00754709683 -0.00656059228 0.00999999809
v 0.00754709683 -0.00656059228 0.012000001
v 0.00766044579 -0.00642787419 0.00999999809
v 0.00766044579 -0.00642787419 0.012000001
v 0.00766044579 0.00642787971 0.00999999809
v 0.00766044579 0.00642787971 0.012000001
v 0.00754709683 0.00656059302 0.00999999809
v 0.00754709683 0.00656059302 0.012000001
v 0.00777145825 -0.00629320584 0.00999999809
v 0.00777145825 -0.00629320584 0.012000001
v 0.0078801056 -0.00615661584 0.00999999809
v 0.00798635446 -0.00601815186 0.012000001
v 0.00798635446 0.00601815261 0.00999999809
v 0.0078801056 0.00615661658 0.012000001
v 0.00777145825 0.00629320182 0.00999999809
v 0.00777145825 0.00629320182 0.012000001
v 0.00809017144 -0.00587785207 0.00999999809
v 0.00809017144 -0.00587785207 0.012000001
v 0.00819151841 -0.00573576413 0.00999999809
v 0.00819151841 -0.00573576413 0.012000001
v 0.00819151841 0.00573576011 0.00999999809
v 0.00819151841 0.00573576011 0.012000001
v 0.00809017144 0.00587784804 0.00999999809
v 0.00809017144 0.00587784804 0.012000001
v 0.00829037629 -0.00559193097 0.00999999809
v 0.00829037629 -0.00559193097 0.012000001
v 0.00838670693 -0.00544639073 0.00999999809
v 0.00848048173 -0.0052991911 0.012000001
v 0.00848048173 0.00529919662 0.00999999809
v 0.00838670693 0.00544638671 0.012000001
v 0.00829037629 0.00559192695 0.00999999809
v 0.00829037629 0.00559192695 0.012000001
v 0.00857167207 -0.00515037976 0.00999999809
v 0.00857167207 -0.00515037976 0.012000001
v 0.00866025411 -0.00499999963 0.00999999809
v 0.00874619924 -0.00484809838 0.012000001
v 0.00874619924 0.00484809913 0.00999999809
v 0.00874619924 0.00484809913 0.012000001
v 0.00866025411 0.00500000037 0.00999999809
v 0.00857167207 0.00515038528 0.012000001
v 0.00882947408 -0.00469471417 0.00999999809
v 0.00891006432 -0.00453990422 0.012000001
v 0.00898794137 -0.00438371144 0.00999999809
v 0.00898794137 -0.00438371144 0.012000001
v 0.00898794137 0.00438370742 0.00999999809
v 0.00898794137 0.00438370742 0.012000001
v 0.00891006432 0.00453990974 0.00999999809
v 0.00882947408 0.00469471969 0.012000001
v 0.0090630766 -0.00422618352 0.00999999809
v 0.00913545571 -0.00406736813 0.012000001
v 0.0092050501 -0.00390731297 0.00999999809
v 0.0092050501 -0.00390731297 0.012000001
v 0.0092050501 0.00390730895 0.00999999809
v 0.0092050501 0.00390730895 0.012000001
v 0.00913545571 0.00406736411 0.00999999809
v 0.0090630766 0.0042261795 0.012000001
v 0.00927184068 -0.00374606572 0.00999999809
v 0.00933580361 -0.00358367883 0.012000001
v 0.0093969246 -0.00342019998 0.00999999809
v 0.00945518456 -0.00325568162 0.012000001
v 0.00945518456 0.00325568236 0.00999999809
v 0.0093969246 0.00342020072 0.012000001
v 0.00933580361 0.00358367957 0.00999999809
v 0.00927184068 0.0037460617 0.012000001
v 0.00951056443 -0.00309017144 0.00999999809
v 0.00951056443 -0.00309017144 0.012000001
v 0.0095630499 -0.00292371713 0.00999999809
v 0.00961261712 -0.00275637589 0.012000001
v 0.00965925656 -0.00258819066 0.00999999809
v 0.00965925656 -0.00258819066 0.012000001
v 0.00970295869 -0.00241921864 0.00999999809
v 0.00970295869 -0.00241921864 0.012000001
v 0.00974369965 -0.0022495123 0.00999999809
v 0.00974369965 -0.0022495123 0.012000001
v 0.00974369965 0.00224950828 0.00999999809
v 0.00974369965 0.00224950828 0.012000001
v 0.00970295869 0.00241921939 0.00999999809
v 0.00970295869 0.00241921939 0.012000001
v 0.00965925656 0.00258819141 0.00999999809
v 0.00965925656 0.00258819141 0.012000001
v 0.00961261712 0.00275637187 0.00999999809
v 0.0095630499 0.00292371787 0.012000001
v 0.00951056443 0.00309017219 0.00999999809
v 0.00951056443 0.00309017219 0.012000001
v 0.00978147469 -0.00207911454 0.00999999809
v 0.00978147469 -0.00207911454 0.012000001
v 0.0098162695 -0.00190809213 0.00999999809
v 0.0098162695 -0.00190809213 0.012000001
v 0.00984807931 -0.0017364832 0.00999999809
v 0.00987688504 -0.00156434499 0.012000001
v 0.00990268193 -0.00139172994 0.00999999809
v 0.00990268193 -0.00139172994 0.012000001
v 0.00992546044 -0.00121869527 0.00999999809
v 0.00994522057 -0.0010452839 0.012000001
v 0.00996194802 -0.000871557817 0.00999999809
v 0.00996194802 -0.000871557817 0.012000001
v 0.00997564279 -0.000697564706 0.00999999809
v 0.00998629533 -0.000523361787 0.012000001
v 0.00999391042 -0.000348996743 0.00999999809
v 0.00999391042 -0.000348996743 0.012000001
v 0.00999847852 -0.000174522027 0.00999999809
v 0.00999847852 -0.000174522027 0.012000001
v 0.00999999963 3.72796696e-10 0.00999999809
v 0.00999847852 0.000174522773 0.012000001
v 0.00999391042 0.000348992721 0.00999999809
v 0.00999391042 0.000348992721 0.012000001
v 0.00998629533 0.000523357764 0.00999999809
v 0.00997564279 0.000697565452 0.012000001
v 0.00996194802 0.000871558562 0.00999999809
v 0.00996194802 0.000871558562 0.012000001
v 0.00994522057 0.00104528464 0.00999999809
v 0.00992546044 0.00121869124 0.012000001
v 0.00990268193 0.00139173068 0.00999999809
v 0.00990268193 0.00139173068 0.012000001
v 0.00987688504 0.00156434573 0.00999999809
v 0.00984807931 0.00173648395 0.012000001
v 0.0098162695 0.0019080881 0.00999999809
v 0.0098162695 0.0019080881 0.012000001
v 0.00978147469 0.00207911529 0.00999999809
v 0.00978147469 0.00207911529 0.012000001
f 1 20 2
f 1 2 21
f 19 20 1
f 1 343 19
f 21 343 1
f 20 346 2
f 21 2 22
f 2 346 22
f 3 4 5
f 3 48 4
f 5 343 3
f 47 48 3
f 3 343 47
f 5 4 6
f 4 346 6
f 48 346 4
f 5 6 7
f 7 343 5
f 7 6 8
f 6 346 8
f 7 8 9
f 9 343 7
f 9 8 10
f 8 346 10
f 9 10 11
f 11 343 9
f 11 10 12
f 10 346 12
f 11 12 13
f 13 343 11
f 13 12 14
f 12 346 14
f 13 14 15
f 15 343 13
f 15 14 16
f 14 346 16
f 15 16 17
f 17 343 15
f 17 16 18
f 16 346 18
f 17 18 19
f 19 343 17
f 19 18 20
f 18 346 20
f 21 22 23
f 23 343 21
f 23 22 24
f 22 346 24
f 23 24 25
f 25 343 23
f 25 24 26
f 24 346 26
f 25 26 27
f 27 343 25
f 27 26 28
f 26 346 28
f 27 28 29
f 29 343 27
f 29 28 30
f 28 346 30
f 29 30 31
f 31 343 29
f 31 30 32
f 30 346 32
f 31 32 33
f 33 343 31
f 33 32 34
f 32 346 34
f 33 34 35
f 35 343 33
f 35 34 36
f 34 346 36
f 35 36 37
f 37 343 35
f 37 36 38
f 36 346 38
f 37 38 49
f 49 343 37
f 49 38 50
f 38 346 50
f 39 40 41
f 39 62 40
f 41 343 39
f 61 62 39
f 39 343 61
f 41 40 42
f 40 346 42
f 62 346 40
f 41 42 43
f 43 343 41
f 43 42 44
f 42 346 44
f 43 44 45
f 45 343 43
f 45 44 46
f 44 346 46
f 45 46 47
f 47 343 45
f 47 46 48
f 46 346 48
f 49 50 51
f 51 343 49
f 51 50 52
f 50 346 52
f 51 52 53
f 53 343 51
f 53 52 54
f 52 346 54
f 53 54 55
f 55 343 53
f 55 54 56
f 54 346 56
f 55 56 57
f 57 343 55
f 57 56 58
f 56 346 58
f 57 58 63
f 63 343 57
f 63 58 64
f 58 346 64
f 59 60 61
f 59 70 60
f 61 343 59
f 69 70 59
f 59 343 69
f 61 60 62
f 60 346 62
f 70 346 60
f 63 64 65
f 65 343 63
f 65 64 66
f 64 346 66
f 65 66 71
f 71 343 65
f 71 66 72
f 66 346 72
f 67 68 69
f 67 78 68
f 69 343 67
f 77 78 67
f 67 343 77
f 69 68 70
f 68 346 70
f 78 346 68
f 71 72 73
f 73 343 71
f 73 72 74
f 72 346 74
f 73 74 79
f 79 343 73
f 79 74 80
f 74 346 80
f 75 76 77
f 75 86 76
f 77 343 75
f 85 86 75
f 75 343 85
f 77 76 78
f 76 346 78
f 86 346 76
f 79 80 81
f 81 343 79
f 81 80 82
f 80 346 82
f 81 82 87
f 87 343 81
f 87 82 88
f 82 346 88
f 83 84 85
f 83 94 84
f 85 343 83
f 93 94 83
f 83 343 93
f 85 84 86
f 84 346 86
f 94 346 84
f 87 88 89
f 89 343 87
f 89 88 90
f 88 346 90
f 89 90 95
f 95 343 89
f 95 90 96
f 90 346 96
f 91 92 93
f 91 102 92
f 93 343 91
f 101 102 91
f 91 343 101
f 93 92 94
f 92 346 94
f 102 346 92
f 95 96 97
f 97 343 95
f 97 96 98
f 96 346 98
f 97 98 103
f 103 343 97
f 103 98 104
f 98 346 104
f 99 100 101
f 99 110 100
f 101 343 99
f 109 110 99
f 99 343 109
f 101 100 102
f 100 346 102
f 110 346 100
f 103 104 105
f 105 343 103
f 105 104 106
f 104 346 106
f 105 106 111
f 111 143 105
f 143 161 105
f 157 155 105
f 155 179 105
f 159 157 105
f 105 161 159
f 179 325 105
f 105 325 323
f 105 323 345
f 345 343 105
f 111 106 112
f 106 346 112
f 107 108 109
f 107 118 108
f 109 343 107
f 117 118 107
f 107 343 117
f 109 108 110
f 108 346 110
f 118 346 108
f 111 112 113
f 113 145 111
f 111 145 143
f 113 112 114
f 112 180 114
f 180 112 330
f 112 324 326
f 112 346 324
f 112 326 328
f 112 328 330
f 113 114 119
f 119 163 113
f 163 145 113
f 119 114 120
f 114 158 120
f 114 156 158
f 114 180 156
f 115 116 117
f 115 126 116
f 117 343 115
f 125 126 115
f 115 343 125
f 117 116 118
f 116 346 118
f 126 344 116
f 116 344 346
f 119 120 121
f 121 163 119
f 121 120 122
f 120 162 122
f 120 158 160
f 160 162 120
f 121 122 127
f 127 165 121
f 165 163 121
f 127 122 128
f 122 146 128
f 144 146 122
f 122 162 144
f 123 124 125
f 123 134 124
f 125 343 123
f 133 134 123
f 123 343 133
f 125 124 126
f 124 344 126
f 134 344 124
f 127 128 129
f 129 165 127
f 129 128 130
f 128 164 130
f 128 146 164
f 129 130 135
f 135 167 129
f 129 167 165
f 135 130 136
f 130 166 136
f 130 164 166
f 131 132 133
f 131 142 132
f 133 343 131
f 141 142 131
f 131 343 141
f 133 132 134
f 132 344 134
f 142 344 132
f 135 136 137
f 137 181 135
f 181 167 135
f 137 136 138
f 136 168 138
f 166 168 136
f 137 138 147
f 147 181 137
f 147 138 148
f 138 182 148
f 138 168 182
f 139 140 141
f 139 154 140
f 141 343 139
f 153 154 139
f 139 343 153
f 141 140 142
f 140 344 142
f 154 344 140
f 143 146 144
f 143 144 161
f 145 146 143
f 161 144 162
f 145 164 146
f 163 164 145
f 147 148 149
f 149 183 147
f 147 183 181
f 149 148 150
f 148 184 150
f 182 184 148
f 149 150 169
f 169 193 149
f 193 183 149
f 169 150 170
f 150 194 170
f 184 194 150
f 151 152 153
f 151 176 152
f 153 343 151
f 175 176 151
f 151 357 175
f 151 343 357
f 153 152 154
f 152 344 154
f 176 344 152
f 155 158 156
f 155 156 179
f 157 158 155
f 179 156 180
f 157 160 158
f 159 160 157
f 159 162 160
f 161 162 159
f 163 166 164
f 165 166 163
f 165 168 166
f 167 168 165
f 167 182 168
f 181 182 167
f 169 170 171
f 171 193 169
f 171 170 172
f 170 202 172
f 170 194 202
f 171 172 185
f 185 201 171
f 171 201 193
f 185 172 186
f 172 204 186
f 172 202 204
f 173 174 175
f 173 190 174
f 175 357 173
f 189 190 173
f 173 357 189
f 175 174 176
f 174 344 176
f 190 344 174
f 177 180 178
f 177 178 191
f 179 180 177
f 177 329 179
f 191 317 177
f 177 317 329
f 330 178 180
f 191 178 192
f 318 192 178
f 318 178 330
f 327 325 179
f 179 329 327
f 181 184 182
f 183 184 181
f 183 194 184
f 193 194 183
f 185 186 187
f 187 201 185
f 187 186 188
f 186 214 188
f 186 204 216
f 216 214 186
f 187 188 195
f 195 203 187
f 187 203 201
f 195 188 196
f 188 236 196
f 188 214 226
f 188 226 236
f 189 198 190
f 197 198 189
f 189 357 197
f 198 344 190
f 191 192 199
f 199 331 191
f 191 331 317
f 199 192 200
f 332 200 192
f 332 192 318
f 193 202 194
f 201 202 193
f 195 196 205
f 195 215 203
f 205 215 195
f 205 196 206
f 196 416 206
f 196 236 248
f 196 248 246
f 196 246 400
f 196 400 408
f 196 408 416
f 197 210 198
f 209 210 197
f 197 357 209
f 210 344 198
f 199 200 211
f 211 333 199
f 199 333 331
f 211 200 212
f 334 212 200
f 334 200 332
f 201 204 202
f 203 204 201
f 203 216 204
f 215 216 203
f 205 206 217
f 213 215 205
f 205 225 213
f 217 225 205
f 217 206 218
f 206 440 218
f 206 416 428
f 206 428 426
f 426 440 206
f 207 208 209
f 207 222 208
f 209 357 207
f 221 222 207
f 207 357 221
f 209 208 210
f 208 344 210
f 222 344 208
f 211 212 223
f 223 333 211
f 223 212 224
f 334 224 212
f 213 214 215
f 213 226 214
f 225 226 213
f 215 214 216
f 217 218 219
f 219 225 217
f 219 218 220
f 218 440 220
f 219 220 227
f 227 225 219
f 227 220 228
f 220 440 228
f 221 230 222
f 229 230 221
f 221 355 229
f 221 357 355
f 230 344 222
f 223 224 231
f 231 335 223
f 223 335 333
f 231 224 232
f 336 232 224
f 336 224 334
f 225 236 226
f 227 235 225
f 235 236 225
f 227 228 237
f 237 235 227
f 237 228 238
f 228 440 238
f 229 240 230
f 239 240 229
f 229 367 239
f 229 355 367
f 240 344 230
f 231 232 233
f 233 347 231
f 231 337 335
f 231 347 337
f 233 232 234
f 348 234 232
f 338 232 336
f 348 232 338
f 233 234 241
f 241 347 233
f 241 234 242
f 348 242 234
f 235 248 236
f 249 235 237
f 247 248 235
f 247 235 249
f 237 238 249
f 249 238 250
f 238 440 250
f 239 252 240
f 251 252 239
f 239 367 251
f 252 344 240
f 241 242 243
f 359 241 243
f 241 349 347
f 349 241 359
f 243 242 244
f 360 244 242
f 350 242 348
f 360 242 350
f 243 244 253
f 359 243 253
f 253 244 254
f 360 254 244
f 245 246 247
f 245 264 246
f 245 247 265
f 263 264 245
f 399 263 245
f 269 245 265
f 273 245 269
f 399 245 273
f 247 246 248
f 400 246 264
f 265 247 249
f 249 250 265
f 265 250 266
f 250 440 266
f 251 268 252
f 267 268 251
f 251 367 267
f 268 344 252
f 253 254 255
f 369 253 255
f 359 253 361
f 361 253 369
f 255 254 256
f 370 256 254
f 362 254 360
f 370 254 362
f 255 256 257
f 377 255 257
f 369 255 377
f 257 256 258
f 378 258 256
f 378 256 370
f 257 258 259
f 377 257 259
f 259 258 260
f 378 260 258
f 259 260 261
f 387 259 261
f 377 259 387
f 261 260 262
f 388 262 260
f 388 260 378
f 261 262 263
f 261 263 399
f 387 261 389
f 389 261 399
f 263 262 264
f 400 264 262
f 390 262 388
f 400 262 390
f 265 266 269
f 269 266 270
f 266 440 270
f 267 272 268
f 271 272 267
f 267 367 271
f 272 344 268
f 269 270 273
f 273 270 274
f 270 440 274
f 271 276 272
f 275 276 271
f 271 367 275
f 276 344 272
f 273 274 277
f 711 273 277
f 273 407 399
f 273 415 407
f 273 427 415
f 273 425 427
f 439 425 273
f 709 439 273
f 709 273 711
f 277 274 278
f 274 440 278
f 275 280 276
f 279 280 275
f 275 367 279
f 280 344 276
f 277 278 281
f 717 277 281
f 711 277 717
f 281 278 282
f 278 440 282
f 279 284 280
f 283 284 279
f 279 367 283
f 284 344 280
f 281 282 285
f 719 281 285
f 717 281 719
f 285 282 286
f 282 440 286
f 283 288 284
f 287 288 283
f 283 375 287
f 283 367 375
f 288 344 284
f 285 286 289
f 725 285 289
f 719 285 725
f 289 286 290
f 286 440 290
f 287 292 288
f 291 292 287
f 287 375 291
f 292 344 288
f 289 290 293
f 727 289 293
f 725 289 727
f 293 290 294
f 290 440 294
f 291 296 292
f 295 296 291
f 291 375 295
f 296 344 292
f 293 294 297
f 729 293 297
f 727 293 729
f 297 294 298
f 294 440 298
f 295 300 296
f 299 300 295
f 295 375 299
f 300 344 296
f 297 298 301
f 731 297 301
f 729 297 731
f 301 298 302
f 298 440 302
f 299 306 300
f 305 306 299
f 299 375 305
f 306 344 300
f 301 302 307
f 733 301 307
f 731 301 733
f 307 302 308
f 302 440 308
f 303 304 305
f 303 312 304
f 305 375 303
f 311 312 303
f 303 375 311
f 305 304 306
f 304 344 306
f 312 344 304
f 307 308 309
f 745 307 309
f 733 307 745
f 309 308 310
f 308 440 310
f 309 310 313
f 747 309 313
f 745 309 747
f 313 310 314
f 310 440 314
f 311 316 312
f 315 316 311
f 311 375 315
f 316 344 312
f 313 314 319
f 749 313 319
f 747 313 749
f 319 314 320
f 314 440 320
f 315 322 316
f 321 322 315
f 315 385 321
f 315 375 385
f 322 344 316
f 317 318 329
f 317 332 318
f 331 332 317
f 329 318 330
f 319 320 339
f 751 319 339
f 749 319 751
f 339 320 340
f 320 440 340
f 321 342 322
f 341 342 321
f 321 385 341
f 342 344 322
f 323 326 324
f 323 324 345
f 325 326 323
f 345 324 346
f 325 328 326
f 327 328 325
f 327 330 328
f 329 330 327
f 331 334 332
f 333 334 331
f 333 336 334
f 335 336 333
f 335 338 336
f 337 338 335
f 337 348 338
f 347 348 337
f 339 340 351
f 753 339 351
f 751 339 753
f 351 340 352
f 340 440 352
f 341 354 342
f 353 354 341
f 341 385 353
f 354 344 342
f 343 346 344
f 343 344 357
f 345 346 343
f 366 344 354
f 357 344 358
f 578 358 344
f 374 344 366
f 382 344 374
f 396 344 382
f 404 344 396
f 412 344 404
f 420 344 412
f 432 344 420
f 444 344 432
f 464 344 444
f 470 344 464
f 474 344 470
f 476 344 474
f 482 344 476
f 486 344 482
f 490 344 486
f 494 344 490
f 498 344 494
f 502 344 498
f 506 344 502
f 510 344 506
f 514 344 510
f 518 344 514
f 534 344 518
f 546 344 534
f 556 344 546
f 564 344 556
f 566 344 564
f 578 344 566
f 347 350 348
f 349 350 347
f 349 360 350
f 359 360 349
f 351 352 363
f 755 351 363
f 753 351 755
f 363 352 364
f 352 440 364
f 353 366 354
f 365 366 353
f 353 385 365
f 355 358 356
f 355 356 367
f 357 358 355
f 578 356 358
f 367 356 368
f 578 368 356
f 359 362 360
f 361 362 359
f 361 370 362
f 369 370 361
f 363 364 371
f 757 363 371
f 755 363 757
f 371 364 372
f 364 440 372
f 365 374 366
f 373 374 365
f 365 385 373
f 367 368 375
f 375 368 376
f 538 376 368
f 538 368 578
f 369 378 370
f 377 378 369
f 371 372 379
f 759 371 379
f 757 371 759
f 379 372 380
f 372 440 380
f 373 382 374
f 381 382 373
f 373 385 381
f 375 376 385
f 385 376 386
f 538 386 376
f 377 388 378
f 387 388 377
f 379 380 391
f 761 379 391
f 759 379 761
f 391 380 392
f 380 440 392
f 381 396 382
f 381 385 395
f 395 396 381
f 383 386 384
f 383 384 397
f 385 386 383
f 383 523 385
f 397 525 383
f 383 525 523
f 386 524 384
f 397 384 398
f 384 526 398
f 384 524 526
f 395 385 403
f 403 385 411
f 411 385 419
f 419 385 431
f 431 385 537
f 385 521 519
f 385 519 537
f 523 521 385
f 386 520 522
f 538 520 386
f 386 522 524
f 387 390 388
f 389 390 387
f 389 400 390
f 399 400 389
f 391 392 393
f 763 391 393
f 761 391 763
f 393 392 394
f 392 440 394
f 393 394 401
f 763 393 401
f 401 394 402
f 394 440 402
f 395 404 396
f 403 404 395
f 397 398 405
f 405 525 397
f 405 398 406
f 398 526 406
f 399 408 400
f 407 408 399
f 401 402 409
f 765 401 409
f 763 401 765
f 409 402 410
f 402 440 410
f 403 412 404
f 411 412 403
f 405 406 413
f 413 527 405
f 405 527 525
f 413 406 414
f 406 528 414
f 406 526 528
f 407 416 408
f 415 416 407
f 409 410 417
f 767 409 417
f 765 409 767
f 417 410 418
f 410 440 418
f 411 420 412
f 419 420 411
f 413 414 421
f 421 529 413
f 413 529 527
f 421 414 422
f 414 530 422
f 414 528 530
f 415 428 416
f 427 428 415
f 417 418 429
f 769 417 429
f 767 417 769
f 429 418 430
f 418 440 430
f 419 432 420
f 431 432 419
f 421 422 423
f 423 529 421
f 423 422 424
f 422 530 424
f 423 424 433
f 433 541 423
f 423 539 529
f 423 541 539
f 433 424 434
f 424 542 434
f 424 530 540
f 424 540 542
f 425 426 427
f 425 440 426
f 439 440 425
f 427 426 428
f 429 430 441
f 771 429 441
f 769 429 771
f 430 440 442
f 441 430 442
f 431 444 432
f 443 444 431
f 431 537 443
f 433 434 435
f 435 541 433
f 435 434 436
f 434 542 436
f 435 436 445
f 445 551 435
f 435 549 541
f 435 551 549
f 445 436 446
f 436 552 446
f 436 542 550
f 436 550 552
f 437 438 439
f 437 460 438
f 677 437 439
f 459 460 437
f 677 459 437
f 439 438 440
f 668 440 438
f 690 438 460
f 668 438 666
f 666 438 676
f 676 438 674
f 674 438 684
f 684 438 682
f 682 438 692
f 692 438 690
f 677 439 679
f 679 439 685
f 685 439 687
f 687 439 693
f 693 439 695
f 695 439 701
f 701 439 703
f 703 439 709
f 442 440 462
f 462 440 468
f 468 440 472
f 472 440 480
f 480 440 478
f 478 440 484
f 484 440 488
f 488 440 492
f 492 440 496
f 496 440 500
f 500 440 504
f 504 440 508
f 508 440 512
f 512 440 516
f 516 440 532
f 532 440 544
f 544 440 554
f 554 440 562
f 562 440 576
f 576 440 574
f 574 440 586
f 586 440 594
f 594 440 610
f 610 440 608
f 608 440 632
f 632 440 630
f 630 440 644
f 644 440 642
f 642 440 652
f 652 440 650
f 650 440 660
f 660 440 658
f 658 440 668
f 441 442 461
f 773 441 461
f 771 441 773
f 461 442 462
f 443 464 444
f 463 464 443
f 443 537 463
f 445 446 447
f 447 551 445
f 447 446 448
f 446 552 448
f 447 448 449
f 449 559 447
f 447 559 551
f 449 448 450
f 448 560 450
f 448 552 560
f 449 450 451
f 451 571 449
f 449 571 559
f 451 450 452
f 450 572 452
f 450 560 572
f 451 452 465
f 465 571 451
f 465 452 466
f 452 572 466
f 453 454 455
f 453 466 454
f 603 453 455
f 465 466 453
f 453 583 465
f 453 591 583
f 453 605 591
f 603 605 453
f 455 454 456
f 776 456 454
f 466 584 454
f 584 592 454
f 454 592 606
f 454 606 604
f 754 454 604
f 756 454 754
f 758 454 756
f 760 454 758
f 762 454 760
f 764 454 762
f 766 454 764
f 768 454 766
f 770 454 768
f 772 454 770
f 774 454 772
f 776 454 774
f 455 456 457
f 603 455 457
f 457 456 458
f 722 458 456
f 722 456 744
f 738 456 736
f 736 456 780
f 740 456 738
f 742 456 740
f 744 456 742
f 778 456 776
f 780 456 778
f 457 458 459
f 677 457 459
f 603 457 677
f 459 458 460
f 700 460 458
f 700 458 698
f 698 458 708
f 708 458 706
f 706 458 716
f 716 458 714
f 714 458 724
f 724 458 722
f 690 460 700
f 461 462 467
f 775 461 467
f 773 461 775
f 467 462 468
f 463 470 464
f 469 470 463
f 463 537 469
f 465 583 571
f 466 572 584
f 467 468 471
f 777 467 471
f 775 467 777
f 471 468 472
f 469 474 470
f 473 474 469
f 469 537 473
f 471 472 479
f 779 471 479
f 777 471 779
f 479 472 480
f 473 476 474
f 475 476 473
f 473 537 475
f 475 482 476
f 481 482 475
f 475 537 481
f 477 480 478
f 477 478 483
f 479 480 477
f 735 479 477
f 737 477 483
f 735 477 737
f 483 478 484
f 779 479 735
f 481 486 482
f 485 486 481
f 481 537 485
f 483 484 487
f 739 483 487
f 737 483 739
f 487 484 488
f 485 490 486
f 489 490 485
f 485 537 489
f 487 488 491
f 741 487 491
f 739 487 741
f 491 488 492
f 489 494 490
f 493 494 489
f 489 537 493
f 491 492 495
f 743 491 495
f 741 491 743
f 495 492 496
f 493 498 494
f 497 498 493
f 493 537 497
f 495 496 499
f 721 495 499
f 743 495 721
f 499 496 500
f 497 502 498
f 501 502 497
f 497 537 501
f 499 500 503
f 723 499 503
f 721 499 723
f 503 500 504
f 501 506 502
f 505 506 501
f 501 537 505
f 503 504 507
f 713 503 507
f 723 503 713
f 507 504 508
f 505 510 506
f 509 510 505
f 505 537 509
f 507 508 511
f 715 507 511
f 713 507 715
f 511 508 512
f 509 514 510
f 513 514 509
f 537 513 509
f 511 512 515
f 705 511 515
f 715 511 705
f 515 512 516
f 513 518 514
f 517 518 513
f 537 517 513
f 515 516 531
f 707 515 531
f 705 515 707
f 531 516 532
f 517 534 518
f 533 534 517
f 517 535 533
f 537 535 517
f 519 522 520
f 519 520 537
f 521 522 519
f 537 520 538
f 521 524 522
f 523 524 521
f 523 526 524
f 525 526 523
f 525 528 526
f 527 528 525
f 527 530 528
f 529 530 527
f 529 540 530
f 539 540 529
f 531 532 543
f 697 531 543
f 707 531 697
f 543 532 544
f 533 546 534
f 535 547 533
f 545 546 533
f 533 547 545
f 535 538 536
f 535 536 547
f 537 538 535
f 536 538 578
f 547 536 548
f 548 536 578
f 539 542 540
f 541 542 539
f 541 550 542
f 549 550 541
f 543 544 553
f 699 543 553
f 697 543 699
f 553 544 554
f 545 556 546
f 545 547 555
f 555 556 545
f 547 548 557
f 555 547 557
f 557 548 558
f 558 548 578
f 549 552 550
f 551 552 549
f 551 560 552
f 559 560 551
f 553 554 561
f 689 553 561
f 699 553 689
f 561 554 562
f 555 564 556
f 555 557 563
f 563 564 555
f 557 558 569
f 563 557 565
f 565 557 577
f 577 557 569
f 569 558 570
f 578 570 558
f 559 572 560
f 571 572 559
f 561 562 575
f 691 561 575
f 689 561 691
f 575 562 576
f 563 566 564
f 565 566 563
f 565 578 566
f 577 578 565
f 567 570 568
f 567 568 579
f 569 570 567
f 569 567 577
f 577 567 587
f 587 567 579
f 568 570 578
f 588 568 578
f 579 568 580
f 588 580 568
f 571 584 572
f 583 584 571
f 573 576 574
f 573 574 585
f 575 576 573
f 681 575 573
f 683 573 585
f 681 573 683
f 585 574 586
f 691 575 681
f 577 588 578
f 587 588 577
f 579 580 581
f 595 579 581
f 587 579 595
f 581 580 582
f 582 580 596
f 596 580 588
f 581 582 589
f 611 581 589
f 595 581 597
f 597 581 611
f 589 582 590
f 590 582 612
f 598 582 596
f 612 582 598
f 583 592 584
f 591 592 583
f 585 586 593
f 673 585 593
f 683 585 673
f 593 586 594
f 587 596 588
f 595 596 587
f 589 590 599
f 589 599 633
f 611 589 613
f 613 589 633
f 599 590 600
f 634 600 590
f 614 590 612
f 634 590 614
f 591 606 592
f 605 606 591
f 593 594 609
f 675 593 609
f 673 593 675
f 609 594 610
f 595 598 596
f 597 598 595
f 597 612 598
f 611 612 597
f 599 600 601
f 635 599 601
f 633 599 635
f 601 600 602
f 602 600 636
f 636 600 634
f 601 602 615
f 601 615 647
f 635 601 645
f 645 601 647
f 615 602 616
f 648 616 602
f 646 602 636
f 648 602 646
f 603 604 605
f 603 628 604
f 627 628 603
f 627 603 677
f 605 604 606
f 604 628 702
f 604 702 704
f 604 704 710
f 712 604 710
f 718 604 712
f 720 604 718
f 726 604 720
f 728 604 726
f 730 604 728
f 732 604 730
f 734 604 732
f 746 604 734
f 748 604 746
f 750 604 748
f 752 604 750
f 754 604 752
f 607 610 608
f 607 608 631
f 609 610 607
f 665 609 607
f 667 607 631
f 665 607 667
f 631 608 632
f 675 609 665
f 611 614 612
f 613 614 611
f 613 634 614
f 633 634 613
f 615 616 617
f 653 615 617
f 647 615 653
f 617 616 618
f 618 616 654
f 654 616 648
f 617 618 619
f 617 619 661
f 653 617 655
f 655 617 661
f 619 618 620
f 662 620 618
f 656 618 654
f 662 618 656
f 619 620 637
f 619 637 669
f 661 619 663
f 663 619 669
f 637 620 638
f 670 638 620
f 664 620 662
f 670 620 664
f 621 622 623
f 621 640 622
f 677 621 623
f 639 640 621
f 639 621 677
f 623 622 624
f 678 624 622
f 622 640 678
f 623 624 625
f 623 625 677
f 625 624 626
f 688 626 624
f 680 624 678
f 686 624 680
f 688 624 686
f 625 626 627
f 625 627 677
f 627 626 628
f 628 626 696
f 694 626 688
f 696 626 694
f 702 628 696
f 629 632 630
f 629 630 643
f 631 632 629
f 657 631 629
f 659 629 643
f 657 629 659
f 643 630 644
f 667 631 657
f 633 636 634
f 635 636 633
f 635 646 636
f 645 646 635
f 637 638 639
f 671 637 639
f 669 637 671
f 639 638 640
f 672 640 638
f 672 638 670
f 671 639 677
f 678 640 672
f 641 644 642
f 641 642 651
f 643 644 641
f 649 643 641
f 649 641 651
f 651 642 652
f 659 643 649
f 645 648 646
f 647 648 645
f 647 654 648
f 653 654 647
f 649 652 650
f 649 650 659
f 651 652 649
f 659 650 660
f 653 656 654
f 655 656 653
f 655 662 656
f 661 662 655
f 657 660 658
f 657 658 667
f 659 660 657
f 667 658 668
f 661 664 662
f 663 664 661
f 663 670 664
f 669 670 663
f 665 668 666
f 665 666 675
f 667 668 665
f 675 666 676
f 669 672 670
f 671 672 669
f 671 678 672
f 677 678 671
f 673 676 674
f 673 674 683
f 675 676 673
f 683 674 684
f 677 680 678
f 679 680 677
f 679 686 680
f 685 686 679
f 681 684 682
f 681 682 691
f 683 684 681
f 691 682 692
f 685 688 686
f 687 688 685
f 687 694 688
f 693 694 687
f 689 692 690
f 689 690 699
f 691 692 689
f 699 690 700
f 693 696 694
f 695 696 693
f 695 702 696
f 701 702 695
f 697 700 698
f 697 698 707
f 699 700 697
f 707 698 708
f 701 704 702
f 703 704 701
f 703 710 704
f 709 710 703
f 705 708 706
f 705 706 715
f 707 708 705
f 715 706 716
f 709 712 710
f 711 712 709
f 711 718 712
f 717 718 711
f 713 716 714
f 713 714 723
f 715 716 713
f 723 714 724
f 717 720 718
f 719 720 717
f 719 726 720
f 725 726 719
f 721 724 722
f 721 722 743
f 723 724 721
f 743 722 744
f 725 728 726
f 727 728 725
f 727 730 728
f 729 730 727
f 729 732 730
f 731 732 729
f 731 734 732
f 733 734 731
f 733 746 734
f 745 746 733
f 735 738 736
f 735 736 779
f 737 738 735
f 779 736 780
f 737 740 738
f 739 740 737
f 739 742 740
f 741 742 739
f 741 744 742
f 743 744 741
f 745 748 746
f 747 748 745
f 747 750 748
f 749 750 747
f 749 752 750
f 751 752 749
f 751 754 752
f 753 754 751
f 753 756 754
f 755 756 753
f 755 758 756
f 757 758 755
f 757 760 758
f 759 760 757
f 759 762 760
f 761 762 759
f 761 764 762
f 763 764 761
f 763 766 764
f 765 766 763
f 765 768 766
f 767 768 765
f 767 770 768
f 769 770 767
f 769 772 770
f 771 772 769
f 771 774 772
f 773 774 771
f 773 776 774
f 775 776 773
f 775 778 776
f 777 778 775
f 777 780 778
f 779 780 777
