# CAD visual only; metres; body-local coordinates
v -0.107975207 0.0760139755 -0.0195
v -0.107975207 0.0760139755 0.0005
v -0.0917561821 0.102362776 -0.0151201839
v -0.0917830566 0.102389651 -0.0149678011
v -0.0918090919 0.102415705 -0.014735188
v -0.0918178085 0.102424422 -0.0145
v -0.0918059639 0.102412558 -0.0142257948
v -0.0917770294 0.102383643 -0.0139938612
v -0.0917561821 0.102362776 -0.00512018394
v -0.0917830566 0.102389651 -0.00496780109
v -0.0918090919 0.102415705 -0.00473519039
v -0.0918178085 0.102424422 -0.0045
v -0.0918059639 0.102412558 -0.00422579479
v -0.0917770294 0.102383643 -0.0039938612
v -0.0919946007 0.102601195 -0.0195
v -0.0919946007 0.102601195 0.0005
v -0.0915139679 0.102120562 -0.0158225174
v -0.0915611366 0.10216775 -0.0157254381
v -0.0916315941 0.102238188 -0.0134436913
v -0.0915458206 0.102152415 -0.0132418175
v -0.0915139679 0.102120562 -0.0058225174
v -0.0915611366 0.10216775 -0.00572543812
v -0.0916315941 0.102238188 -0.00344369125
v -0.0915458206 0.102152415 -0.00324181747
v -0.0916444115 0.102251006 -0.0155214782
v -0.0916567902 0.102263403 -0.0154863353
v -0.0917311386 0.102337733 -0.0152325292
v -0.0917483047 0.102354899 -0.013842165
v -0.0917218689 0.102328463 -0.0137304564
v -0.0916444115 0.102251006 -0.0134785194
v -0.0916444115 0.102251006 -0.00552148056
v -0.0916567902 0.102263403 -0.00548633289
v -0.0917311386 0.102337733 -0.00523252678
v -0.0917483047 0.102354899 -0.00384216499
v -0.0917218689 0.102328463 -0.00373045635
v -0.0916444115 0.102251006 -0.00347851944
v -0.0912706093 0.101877203 -0.0161980958
v -0.0913904098 0.101997004 -0.0129655046
v -0.0912706093 0.101877203 -0.00619809818
v -0.0913904098 0.101997004 -0.00296550465
v -0.0914091591 0.102015772 -0.0160055442
v -0.091427565 0.102034159 -0.0159761329
v -0.0914974502 0.102104044 -0.013145916
v -0.0914091591 0.102015772 -0.0129944582
v -0.0914091591 0.102015772 -0.0060055418
v -0.091427565 0.102034159 -0.00597613049
v -0.0914974502 0.102104044 -0.00314591599
v -0.0914091591 0.102015772 -0.0029944582
v -0.0910223297 0.101628924 -0.0164485569
v -0.0911393837 0.101745978 -0.0126569099
v -0.0910223297 0.101628924 -0.0064485569
v -0.0911393837 0.101745978 -0.00265690994
v -0.0911619858 0.10176858 -0.0163202877
v -0.0912280754 0.101834669 -0.0162485785
v -0.0912494949 0.101856089 -0.0127764006
v -0.0912063316 0.101812945 -0.0127269764
v -0.0911619858 0.10176858 -0.0063202877
v -0.0912280754 0.101834669 -0.00624857616
v -0.0912494949 0.101856089 -0.00277640057
v -0.0912063316 0.101812945 -0.00272697639
v -0.0907709793 0.101377573 -0.0166143079
v -0.090873938 0.101480532 -0.0124445219
v -0.0907709793 0.101377573 -0.00661431026
v -0.090873938 0.101480532 -0.0024445219
v -0.0908992103 0.101505804 -0.0165391917
v -0.0909737495 0.101580344 -0.0164866323
v -0.0909981445 0.101604758 -0.0125321074
v -0.0909491257 0.10155572 -0.0124952335
v -0.0908992103 0.101505804 -0.00653919411
v -0.0909737495 0.101580344 -0.00648663235
v -0.0909981445 0.101604758 -0.00253210735
v -0.0909491257 0.10155572 -0.00249523354
v -0.0905030922 0.101109705 -0.016715817
v -0.0906386093 0.101245203 -0.0123266668
v -0.0905030922 0.101109705 -0.00671581936
v -0.0906386093 0.101245203 -0.00232666683
v -0.0906653694 0.101271963 -0.016662838
v -0.0907448105 0.101351405 -0.0123725815
v -0.0906653694 0.101271963 -0.00666283798
v -0.0907448105 0.101351405 -0.00237258148
v -0.090580378 0.104015398 -0.0195
v -0.090580378 0.104015398 0.0005
v -0.0902545837 0.100861197 -0.0167496581
v -0.0903931335 0.100999728 -0.0122623272
v -0.0902545837 0.100861197 -0.00674965572
v -0.0903931335 0.100999728 -0.00226232719
v -0.0904207138 0.101027327 -0.0167332287
v -0.0904757027 0.101082316 -0.0122777004
v -0.0904207138 0.101027327 -0.00673322868
v -0.0904757027 0.101082316 -0.00227770042
v -0.0903076462 0.103742686 -0.015269546
v -0.0902545456 0.103689566 -0.0135491104
v -0.0903076462 0.103742686 -0.00526954365
v -0.0902545456 0.103689566 -0.00354911041
v -0.0903628258 0.103797846 -0.0150061388
v -0.0903917412 0.103826781 -0.0147742052
v -0.0904033569 0.103838396 -0.0145392675
v -0.0903948883 0.103829909 -0.0142648096
v -0.0903688339 0.103803854 -0.0140321989
v -0.0903169159 0.103751955 -0.0137674732
v -0.0903628258 0.103797846 -0.0050061388
v -0.0903917412 0.103826781 -0.00477420521
v -0.0904033569 0.103838396 -0.00453926754
v -0.0903948883 0.103829909 -0.00426480961
v -0.0903688339 0.103803854 -0.00403219891
v -0.0903169159 0.103751955 -0.00376747322
v -0.0900054077 0.100612002 -0.0167281027
v -0.0901158432 0.100722437 -0.0122554798
v -0.0900054077 0.100612002 -0.00672810268
v -0.0901158432 0.100722437 -0.00225547981
v -0.090143557 0.10075017 -0.0167469163
v -0.0902268318 0.100833426 -0.012250001
v -0.090143557 0.10075017 -0.00674691868
v -0.0902268318 0.100833426 -0.00225000095
v -0.0900490478 0.103484068 -0.0159159703
v -0.0900133423 0.103448382 -0.0130238695
v -0.0900490478 0.103484068 -0.00591597271
v -0.0900133423 0.103448382 -0.00302386951
v -0.0901315979 0.103566637 -0.0157581849
v -0.0902301887 0.103665228 -0.0155214782
v -0.0902425865 0.103677607 -0.0154863353
v -0.0902425865 0.103677607 -0.0135136671
v -0.090146933 0.103581953 -0.0132745619
v -0.0900663284 0.103501349 -0.0131147594
v -0.0901315979 0.103566637 -0.00575818253
v -0.0902301887 0.103665228 -0.00552148056
v -0.0902425865 0.103677607 -0.00548633289
v -0.0902425865 0.103677607 -0.00351366711
v -0.090146933 0.103581953 -0.00327456188
v -0.0900663284 0.103501349 -0.00311475945
v -0.0897616676 0.100368262 -0.0166516848
v -0.0898689369 0.100475531 -0.0123076696
v -0.0897616676 0.100368262 -0.00665168476
v -0.0898689369 0.100475531 -0.00230766964
v -0.0898960403 0.100502634 -0.0167008324
v -0.0899779419 0.100584536 -0.0122777004
v -0.0898960403 0.100502634 -0.00670083237
v -0.0899779419 0.100584536 -0.00227770042
v -0.089792128 0.103227148 -0.0162730236
v -0.0898138527 0.103248892 -0.0162485785
v -0.0898138527 0.103248892 -0.0127514238
v -0.0897700981 0.103205119 -0.0127030678
v -0.089792128 0.103227148 -0.00627302361
v -0.0898138527 0.103248892 -0.00624857616
v -0.0898138527 0.103248892 -0.00275142384
v -0.0897700981 0.103205119 -0.00270306778
v -0.0899949554 0.103429976 -0.0160055442
v -0.0898352722 0.103270312 -0.0127764006
v -0.0899949554 0.103429976 -0.0060055418
v -0.0898352722 0.103270312 -0.00277640057
v -0.089504538 0.100111132 -0.0165047641
v -0.0896308235 0.100237437 -0.0124138374
v -0.089504538 0.100111132 -0.00650476646
v -0.0896308235 0.100237437 -0.00241383743
v -0.0896566681 0.100263262 -0.0166005559
v -0.0897351746 0.100341788 -0.0123601217
v -0.0896566681 0.100263262 -0.00660055828
v -0.0897351746 0.100341788 -0.00236012173
v -0.0895349029 0.102969942 -0.0165047641
v -0.0895595459 0.102994566 -0.0164866323
v -0.0895595459 0.102994566 -0.0125133677
v -0.0895100502 0.10294509 -0.0124777145
v -0.0895349029 0.102969942 -0.00650476646
v -0.0895595459 0.102994566 -0.00648663235
v -0.0895595459 0.102994566 -0.00251336765
v -0.0895100502 0.10294509 -0.00247771454
v -0.0897477631 0.103182803 -0.0163202877
v -0.0895839409 0.103018961 -0.0125321074
v -0.0897477631 0.103182803 -0.0063202877
v -0.0895839409 0.103018961 -0.00253210735
v -0.0892693428 0.0998759369 -0.0162969298
v -0.0893837265 0.0999903397 -0.0125918932
v -0.0892693428 0.0998759369 -0.00629693222
v -0.0893837265 0.0999903397 -0.0025918932
v -0.0894073967 0.10001401 -0.0164286275
v -0.089479895 0.100086508 -0.0125133677
v -0.0894073967 0.10001401 -0.00642862511
v -0.089479895 0.100086508 -0.00251336765
v -0.0893042473 0.102739287 -0.0166398783
v -0.0892511467 0.102686186 -0.012337162
v -0.0893042473 0.102739287 -0.00663987827
v -0.0892511467 0.102686186 -0.00233716202
v -0.0894849876 0.102920027 -0.0165391917
v -0.0893305878 0.102765608 -0.0123725815
v -0.0894849876 0.102920027 -0.00653919411
v -0.0893305878 0.102765608 -0.00237258148
v -0.0890444855 0.0996510986 -0.0160055442
v -0.0890080551 0.0996146492 -0.0159462709
v -0.0890260986 0.0996326927 -0.0130238695
v -0.0891417793 0.0997483734 -0.012854454
v -0.0890444855 0.0996510986 -0.0060055418
v -0.0890080551 0.0996146492 -0.00594627094
v -0.0890260986 0.0996326927 -0.00302386951
v -0.0891417793 0.0997483734 -0.00285445404
v -0.0892473129 0.099853907 -0.0162730236
v -0.0891622452 0.0997688393 -0.0161720748
v -0.0892255882 0.0998321823 -0.0127514238
v -0.0892473129 0.099853907 -0.0127269764
v -0.0892473129 0.099853907 -0.00627302361
v -0.0891622452 0.0997688393 -0.00617207718
v -0.0892255882 0.0998321823 -0.00275142384
v -0.0892473129 0.099853907 -0.00272697639
v -0.089061499 0.102496519 -0.0167222996
v -0.0890065102 0.102441531 -0.0122667713
v -0.089061499 0.102496519 -0.00672229958
v -0.0890065102 0.102441531 -0.00226677132
v -0.0892243866 0.102659426 -0.0166733332
v -0.0890888885 0.102523909 -0.0122841806
v -0.0892243866 0.102659426 -0.00667333317
v -0.0890888885 0.102523909 -0.00228418064
v -0.0888092331 0.0994158462 -0.0155214782
v -0.0887516884 0.0993582825 -0.0153428645
v -0.0887968544 0.0994034485 -0.0135136671
v -0.0888925079 0.099499102 -0.0132745619
v -0.0888092331 0.0994158462 -0.00552148056
v -0.0887516884 0.0993582825 -0.0053428669
v -0.0887968544 0.0994034485 -0.00351366711
v -0.0888925079 0.099499102 -0.00327456188
v -0.088907843 0.0995144371 -0.0157581849
v -0.0889903931 0.0995969871 -0.0130840273
v -0.088907843 0.0995144371 -0.00575818253
v -0.0889903931 0.0995969871 -0.00308402729
v -0.0888126091 0.102247649 -0.016749999
v -0.0888126091 0.102247649 -0.012250001
v -0.0888126091 0.102247649 -0.00674999905
v -0.0888126091 0.102247649 -0.00225000095
v -0.0889789108 0.10241395 -0.0167376752
v -0.0888403801 0.102275401 -0.0122503443
v -0.0889789108 0.10241395 -0.00673767281
v -0.0888403801 0.102275401 -0.00225034428
v -0.088636084 0.0992426781 -0.0145392675
v -0.0886418823 0.0992484955 -0.0143039007
v -0.088636084 0.0992426781 -0.00453926754
v -0.0886418823 0.0992484955 -0.00430390072
v -0.0887317757 0.0993383888 -0.015269546
v -0.0886766151 0.0992832092 -0.0150061388
v -0.0886476997 0.0992542938 -0.0147742052
v -0.0886445526 0.0992511467 -0.014735188
v -0.0886445526 0.0992511467 -0.0142648096
v -0.088670607 0.0992772011 -0.0140321989
v -0.0887225059 0.0993291191 -0.0137674732
v -0.0887415031 0.0993481163 -0.0136936731
v -0.0887317757 0.0993383888 -0.00526954365
v -0.0886766151 0.0992832092 -0.0050061388
v -0.0886476997 0.0992542938 -0.00477420521
v -0.0886445526 0.0992511467 -0.00473519039
v -0.0886445526 0.0992511467 -0.00426480961
v -0.088670607 0.0992772011 -0.00403219891
v -0.0887225059 0.0993291191 -0.00376747322
v -0.0887415031 0.0993481163 -0.00369367313
v -0.0885637192 0.101998759 -0.0167222996
v -0.0885090355 0.101944056 -0.012291338
v -0.0885637192 0.101998759 -0.00672229958
v -0.0885090355 0.101944056 -0.00229133797
v -0.0887293533 0.102164374 -0.0167469163
v -0.088591185 0.102026225 -0.0122718973
v -0.0887293533 0.102164374 -0.00674691868
v -0.088591185 0.102026225 -0.00227189732
v -0.0882946304 0.10172967 -0.0166274161
v -0.0882684616 0.101703482 -0.0123856897
v -0.0882946304 0.10172967 -0.00662741852
v -0.0882684616 0.101703482 -0.00238568974
v -0.0884818176 0.101916857 -0.0167008324
v -0.0883209709 0.101755991 -0.0123601217
v -0.0884818176 0.101916857 -0.00670083237
v -0.0883209709 0.101755991 -0.00236012173
v -0.0880412773 0.101476317 -0.016467895
v -0.0880171112 0.101452151 -0.0125514431
v -0.0880412773 0.101476317 -0.00646789265
v -0.0880171112 0.101452151 -0.0025514431
v -0.0882424454 0.101677485 -0.0166005559
v -0.0880656914 0.101500712 -0.0164866323
v -0.0880656914 0.101500712 -0.0125133677
v -0.0880903152 0.101525355 -0.0124952335
v -0.0882424454 0.101677485 -0.00660055828
v -0.0880656914 0.101500712 -0.00648663235
v -0.0880656914 0.101500712 -0.00251336765
v -0.0880903152 0.101525355 -0.00249523354
v -0.0878113655 0.101246405 -0.0162485785
v -0.0877688316 0.101203852 -0.0128019018
v -0.0878113655 0.101246405 -0.00624857616
v -0.0877688316 0.101203852 -0.00280190182
v -0.087993193 0.101428213 -0.0164286275
v -0.0878331093 0.10126813 -0.0127269764
v -0.087993193 0.101428213 -0.00642862511
v -0.0878331093 0.10126813 -0.00272697639
v -0.0875588898 0.100993929 -0.0158852382
v -0.0875093559 0.100944376 -0.0132094545
v -0.0875588898 0.100993929 -0.00588524055
v -0.0875093559 0.100944376 -0.00320945454
v -0.0877480225 0.101183062 -0.0161720748
v -0.0876118759 0.101046896 -0.0159761329
v -0.0875761894 0.10101121 -0.0130840273
v -0.0876302818 0.101065302 -0.0129944582
v -0.0877480225 0.101183062 -0.00617207718
v -0.0876118759 0.101046896 -0.00597613049
v -0.0875761894 0.10101121 -0.00308402729
v -0.0876302818 0.101065302 -0.0029944582
v -0.0873083023 0.100743323 -0.0152325292
v -0.0872563843 0.100691424 -0.0149678011
v -0.087250853 0.100685873 -0.0140706797
v -0.0872623924 0.100697432 -0.0139938612
v -0.0873083023 0.100743323 -0.00523252678
v -0.0872563843 0.100691424 -0.00496780109
v -0.087250853 0.100685873 -0.00407067966
v -0.0872623924 0.100697432 -0.0039938612
v -0.0874936203 0.100928641 -0.0157581849
v -0.0874783043 0.100913325 -0.0157254381
v -0.0873826317 0.100817671 -0.0154863353
v -0.087317572 0.100752592 -0.0137304564
v -0.0873950294 0.10083005 -0.0134785194
v -0.0874936203 0.100928641 -0.0132418175
v -0.0874936203 0.100928641 -0.00575818253
v -0.0874783043 0.100913325 -0.00572543812
v -0.0873826317 0.100817671 -0.00548633289
v -0.087317572 0.100752592 -0.00373045635
v -0.0873950294 0.10083005 -0.00347851944
v -0.0874936203 0.100928641 -0.00324181747
v -0.0872457985 0.100680819 -0.0148907084
v -0.0872303299 0.100665369 -0.014735188
v -0.0872216133 0.100656653 -0.0145
v -0.087233477 0.100668517 -0.0142257948
v -0.0872457985 0.100680819 -0.00489070606
v -0.0872303299 0.100665369 -0.00473519039
v -0.0872216133 0.100656653 -0.0045
v -0.087233477 0.100668517 -0.00422579479
v -0.0866912941 0.0972978882 -0.0195
v -0.0866912941 0.0972978882 0.0005
v -0.0852770714 0.0987121109 -0.0195
v -0.0852770714 0.0987121109 0.0005
v -0.0824486545 0.101540537 -0.0195
v -0.0824486545 0.101540537 0.0005
v -0.0793373779 0.0473761562 -0.0195
v -0.0793373779 0.0473761562 0.0005
v -0.0652628139 0.0843546966 -0.0110529156
v -0.0652813534 0.0843732361 -0.0109515305
v -0.0653146652 0.0844065575 -0.010747468
v -0.0653551392 0.0844470314 -0.0104386063
v -0.0653757576 0.0844676308 -0.0102312155
v -0.0653970436 0.0844889168 -0.00991853905
v -0.065404797 0.0844966797 -0.00970939827
v -0.0654067329 0.0844986061 -0.00939528656
v -0.065401564 0.0844934372 -0.00918598366
v -0.0653912357 0.0844831184 -0.00897706699
v -0.0653660873 0.0844579796 -0.00866496277
v -0.0653429226 0.0844348053 -0.00845811081
v -0.0652986339 0.0843905167 -0.00815029335
v -0.0652628139 0.0843546966 -0.00794708443
v -0.0650098709 0.0841017631 -0.0120357103
v -0.0650405792 0.0841324715 -0.0119404192
v -0.0650984482 0.0841903213 -0.0117476387
v -0.0651515106 0.0842434029 -0.00744787884
v -0.065070105 0.0841619972 -0.00715561104
v -0.0650098709 0.0841017631 -0.00696428967
v -0.0651762298 0.0842681221 -0.0114534111
v -0.0652430252 0.0843348984 -0.0111538239
v -0.0652430252 0.0843348984 -0.00784617615
v -0.0652219967 0.0843138794 -0.00774576855
v -0.0647626976 0.0838545898 -0.0126795168
v -0.0648754314 0.0839673141 -0.0124088593
v -0.0648754314 0.0839673141 -0.00659114075
v -0.0648389725 0.0839308456 -0.00649999809
v -0.0649107651 0.0840026573 -0.0123168297
v -0.0649449543 0.084036837 -0.0122239418
v -0.0649779991 0.0840698723 -0.006869771
v -0.0649107651 0.0840026573 -0.00668317032
v -0.0645079807 0.0835998634 -0.0131939669
v -0.0646401028 0.0837319855 -0.0129414577
v -0.0646401028 0.0837319855 -0.00605854225
v -0.0645971016 0.0836889938 -0.00597328854
v -0.0646820454 0.0837739281 -0.0128551598
v -0.0647229103 0.0838148025 -0.00623216343
v -0.0642676071 0.0833594898 -0.0135919924
v -0.0643666939 0.0834585766 -0.0134363527
v -0.0643666939 0.0834585766 -0.00556364727
v -0.0643176369 0.0834095196 -0.00548521709
v -0.0644147877 0.0835066704 -0.0133567257
v -0.0644618896 0.0835537723 -0.00572407913
v -0.0640036205 0.0830955032 -0.0139588709
v -0.0641119198 0.0832038025 -0.00518396091
v -0.0641647343 0.083256617 -0.0137426395
v -0.0642166332 0.0833085159 -0.00533204746
v -0.06377677 0.0828686527 -0.0142280645
v -0.0638918499 0.0829837326 -0.00490373325
v -0.0639481548 0.0830400471 -0.0140282555
v -0.0639481548 0.0830400471 -0.00497174454
v -0.0635371879 0.0826290707 -0.014474227
v -0.0635982136 0.0826900963 -0.00458508682
v -0.0636584953 0.082750378 -0.0143541021
v -0.0637180237 0.0828099064 -0.0047081871
v -0.0632860569 0.0823779396 -0.0146961517
v -0.0633498577 0.0824417404 -0.00435699654
v -0.0634129909 0.0825048736 -0.0145882888
v -0.0634754471 0.0825673298 -0.00446797562
v -0.063024588 0.0821164707 -0.0148927636
v -0.0631565384 0.0822484211 -0.00420231533
v -0.0632216076 0.0823134903 -0.0147477193
v -0.0632216076 0.0823134903 -0.0042522831
v -0.0627540592 0.0818459419 -0.0150631042
v -0.0628903774 0.0819822601 -0.0149812717
v -0.0628903774 0.0819822601 -0.00401872826
v -0.0628224663 0.081914349 -0.00397697163
v -0.0629577545 0.0820496372 -0.0149378462
v -0.0629577545 0.0820496372 -0.00406215382
v -0.0625460056 0.0816378883 -0.0151731105
v -0.062615805 0.0817076878 -0.00386184406
v -0.0626851658 0.0817770485 -0.0151014824
v -0.0626851658 0.0817770485 -0.00389851761
v -0.062262812 0.0813546947 -0.0152955551
v -0.062405167 0.0814970497 -0.0152378292
v -0.062405167 0.0814970497 -0.00376217079
v -0.0623341659 0.0814260487 -0.00373243046
v -0.0624757866 0.0815676693 -0.0152063389
v -0.0624757866 0.0815676693 -0.00379366112
v -0.0620468334 0.0811387161 -0.0153688855
v -0.0621191219 0.0812110046 -0.00365378094
v -0.0621911243 0.081283007 -0.015321774
v -0.0621911243 0.081283007 -0.00367822361
v -0.0617551998 0.0808470825 -0.015441608
v -0.0619014648 0.0809933475 -0.00359115314
v -0.0619742683 0.081066151 -0.0153897638
v -0.0619742683 0.081066151 -0.00361023617
v -0.06153451 0.0806263927 -0.0154771681
v -0.06160821 0.0807000927 -0.00353286934
v -0.061681786 0.0807736687 -0.0154552765
v -0.061681786 0.0807736687 -0.00354472351
v -0.0613127998 0.0804046825 -0.0154963441
v -0.0613867763 0.080478659 -0.00350822163
v -0.0614606861 0.0805525688 -0.015485384
v -0.0614606861 0.0805525688 -0.00351461601
v -0.0610166744 0.0801085571 -0.0154963441
v -0.0610906891 0.0801825718 -0.00350091171
v -0.0611647324 0.0802566151 -0.015499999
v -0.0612387852 0.0803306679 -0.00350091171
v -0.0610201744 0.0885973457 -0.0110529156
v -0.0610559944 0.0886331657 -0.0108497066
v -0.061100283 0.0886774544 -0.0105418892
v -0.0611234478 0.0887006096 -0.0103350372
v -0.0611485962 0.0887257484 -0.010022933
v -0.0611589245 0.0887360863 -0.00981401634
v -0.0611647324 0.0887419037 -0.0095
v -0.0611621479 0.0887393097 -0.00929060173
v -0.0611544041 0.0887315658 -0.00908146095
v -0.0611331085 0.0887102798 -0.00876878452
v -0.0611124996 0.0886896614 -0.00856139374
v -0.0610720257 0.0886491875 -0.00825253201
v -0.0610387138 0.0886158852 -0.00804846954
v -0.0610003857 0.0885775474 -0.00784617615
v -0.0607949642 0.0798868469 -0.0154771681
v -0.0608687881 0.0799606708 -0.00351461601
v -0.0609426979 0.0800345806 -0.0154917784
v -0.0609426979 0.0800345806 -0.00350822163
v -0.0607672314 0.0883443931 -0.0120357103
v -0.0608274654 0.0884046272 -0.011844389
v -0.0609088711 0.0884860329 -0.0115521212
v -0.0608557991 0.0884329704 -0.0072523613
v -0.0607979397 0.0883751015 -0.0070595808
v -0.0607672314 0.0883443931 -0.00696428967
v -0.0609793571 0.0885565094 -0.0112542315
v -0.0609335903 0.0885107521 -0.0075465889
v -0.0605010418 0.0795929245 -0.0154261298
v -0.0606476883 0.079739571 -0.00354472351
v -0.0607212643 0.079813147 -0.0154671307
v -0.0607212643 0.079813147 -0.00353286934
v -0.0605963329 0.0881734947 -0.0125000019
v -0.0606681255 0.0882452873 -0.0123168297
v -0.0606327919 0.0882099632 -0.00659114075
v -0.0605200581 0.0880972198 -0.00632048321
v -0.0607353596 0.0883125214 -0.012130229
v -0.0607023147 0.0882794861 -0.0067760582
v -0.0602826408 0.0793745235 -0.0153688855
v -0.0603552059 0.0794470886 -0.00361023617
v -0.0604280094 0.0795198921 -0.0154088469
v -0.0604280094 0.0795198921 -0.00359115314
v -0.060354462 0.0879316238 -0.0130267115
v -0.0603974632 0.0879746345 -0.0129414577
v -0.0603974632 0.0879746345 -0.00605854225
v -0.0602653412 0.0878425125 -0.00580603313
v -0.0604802708 0.0880574325 -0.0127678366
v -0.0604394058 0.0880165771 -0.00614484024
v -0.0600666622 0.0791585449 -0.0152955551
v -0.0601383499 0.0792302326 -0.00367822361
v -0.0602103523 0.079302235 -0.0153462214
v -0.0602103523 0.079302235 -0.00365378094
v -0.0600749878 0.0876521591 -0.0135147829
v -0.0601721481 0.0877493194 -0.0133567257
v -0.0601240543 0.0877012161 -0.00556364727
v -0.0600249676 0.0876021294 -0.00540800762
v -0.0602192501 0.0877964119 -0.0132759209
v -0.0602192501 0.0877964119 -0.00572407913
v -0.0597834686 0.0788753513 -0.0151731105
v -0.0598536877 0.0789455704 -0.00379366112
v -0.0599953083 0.079087191 -0.0152675695
v -0.0599243072 0.0790161899 -0.0152378292
v -0.0599243072 0.0790161899 -0.00376217079
v -0.0599953083 0.079087191 -0.00373243046
v -0.0598692802 0.0874464516 -0.0138160391
v -0.0599220947 0.087499266 -0.0137426395
v -0.0599220947 0.087499266 -0.00525736046
v -0.059760981 0.0873381332 -0.00504112911
v -0.0599739937 0.087551165 -0.0136679525
v -0.0599739937 0.087551165 -0.00533204746
v -0.059507008 0.0785988907 -0.0150230284
v -0.0596443085 0.0787361912 -0.00389851761
v -0.0597136692 0.0788055519 -0.0151381559
v -0.0597136692 0.0788055519 -0.00386184406
v -0.0596492103 0.0872263817 -0.0140962667
v -0.0595341305 0.0871112923 -0.00477193546
v -0.0597055153 0.0872826866 -0.0140282555
v -0.0597055153 0.0872826866 -0.00497174454
v -0.0593048862 0.0783967689 -0.0148927636
v -0.0593717197 0.0784636024 -0.00406215382
v -0.0594390968 0.0785309795 -0.0149812717
v -0.0594390968 0.0785309795 -0.00401872826
v -0.0594158558 0.0869930176 -0.0143541021
v -0.0592945484 0.0868717102 -0.00452577305
v -0.0594753841 0.0870525459 -0.0142918129
v -0.0594753841 0.0870525459 -0.0047081871
v -0.0590434173 0.0781353001 -0.0146961517
v -0.0591078667 0.0781997494 -0.0042522831
v -0.0591729359 0.0782648186 -0.0147976847
v -0.0592386154 0.0783304981 -0.00415395927
v -0.0591703514 0.0867475227 -0.0145882888
v -0.0590434173 0.0866205887 -0.00430384827
v -0.0592328075 0.0868099693 -0.0145320244
v -0.0592328075 0.0868099693 -0.00446797562
v -0.0588540272 0.0779459099 -0.0145320244
v -0.0587922863 0.077884169 -0.014474227
v -0.0587922863 0.077884169 -0.00452577305
v -0.0588540272 0.0779459099 -0.00446797562
v -0.0589164833 0.078008366 -0.0145882888
v -0.0589796165 0.0780714992 -0.00435699654
v -0.0589138988 0.0864910606 -0.0147976847
v -0.0587819485 0.0863591103 -0.004107234
v -0.058978968 0.0865561394 -0.0147477193
v -0.058978968 0.0865561394 -0.0042522831
v -0.0586114506 0.0777033333 -0.0142918129
v -0.0585527042 0.0776445869 -0.0142280645
v -0.0585527042 0.0776445869 -0.00477193546
v -0.0586114506 0.0777033333 -0.0047081871
v -0.0586709789 0.0777628616 -0.0143541021
v -0.0587312607 0.0778231434 -0.00458508682
v -0.0585798267 0.0861569885 -0.0150230284
v -0.0586477379 0.0862248901 -0.0149812717
v -0.0586477379 0.0862248901 -0.00401872826
v -0.0585114197 0.086088591 -0.00393689823
v -0.058715115 0.0862922768 -0.0149378462
v -0.058715115 0.0862922768 -0.00406215382
v -0.0583813099 0.0774731926 -0.0140282555
v -0.0582712654 0.0773631481 -0.0138881226
v -0.0583258537 0.0774177364 -0.00504112911
v -0.0583813099 0.0774731926 -0.00497174454
v -0.0584376244 0.0775295071 -0.0140962667
v -0.058494759 0.0775866417 -0.00483712387
v -0.0583731655 0.0859503273 -0.0151381559
v -0.0583033661 0.0858805374 -0.00382688713
v -0.0584425262 0.0860196785 -0.0151014824
v -0.0584425262 0.0860196785 -0.00389851761
v -0.0580534653 0.0686600689 -0.0195
v -0.0580534653 0.0686600689 0.0005
v -0.0580118374 0.0771037201 -0.0135147829
v -0.058112841 0.0772047237 -0.00533204746
v -0.0582175545 0.0773094372 -0.0138160391
v -0.05816474 0.0772566227 -0.0137426395
v -0.05816474 0.0772566227 -0.00525736046
v -0.0582175545 0.0773094372 -0.00518396091
v -0.0580915264 0.0856686882 -0.0152675695
v -0.0581625275 0.0857396797 -0.0152378292
v -0.0581625275 0.0857396797 -0.00376217079
v -0.0580201725 0.0855973343 -0.00370444489
v -0.058233147 0.0858103088 -0.0152063389
v -0.058233147 0.0858103088 -0.00379366112
v -0.0578675846 0.0769594673 -0.0132759209
v -0.0577764133 0.076868296 -0.0131108923
v -0.0578214935 0.0769133762 -0.00580603313
v -0.0578675846 0.0769594673 -0.00572407913
v -0.0579146866 0.0770065693 -0.0133567257
v -0.0579627708 0.0770546535 -0.00556364727
v -0.0578764824 0.0854536537 -0.0153462214
v -0.0578041939 0.0853813461 -0.0036311121
v -0.0579484848 0.0855256561 -0.015321774
v -0.0579484848 0.0855256561 -0.00367822361
v -0.0576065544 0.0766984371 -0.0127678366
v -0.0575280861 0.0766199688 -0.012590229
v -0.0575667766 0.0766586594 -0.00632048321
v -0.0576474289 0.0767393116 -0.00614484024
v -0.0577323727 0.0768242554 -0.0130267115
v -0.0576893715 0.0767812542 -0.0129414577
v -0.0576893715 0.0767812542 -0.00605854225
v -0.0577323727 0.0768242554 -0.00597328854
v -0.0576588253 0.0852359871 -0.0154088469
v -0.0575125603 0.0850897125 -0.00355838966
v -0.0577316288 0.0853087906 -0.0153897638
v -0.0577316288 0.0853087906 -0.00361023617
v -0.0573195938 0.076411486 -0.0120357103
v -0.0572593693 0.076351252 -0.011844389
v -0.057288895 0.0763807777 -0.0070595808
v -0.0573845199 0.0764764027 -0.0067760582
v -0.0574905018 0.0765823845 -0.0125000019
v -0.0574187092 0.0765105919 -0.0123168297
v -0.0574540428 0.0765459255 -0.00659114075
v -0.0574905018 0.0765823845 -0.00649999809
v -0.0573655704 0.0849427322 -0.0154671307
v -0.0572918705 0.0848690323 -0.00352283192
v -0.0574391464 0.0850162987 -0.0154552765
v -0.0574391464 0.0850162987 -0.00354472351
v -0.0571074776 0.0761993603 -0.0112542315
v -0.0570666603 0.076158543 -0.0110529156
v -0.0570308308 0.0761227135 -0.0108497066
v -0.0570000461 0.0760919289 -0.0106448526
v -0.057014809 0.0761066917 -0.00825253201
v -0.0570481209 0.0761400036 -0.00804846954
v -0.057086449 0.0761783317 -0.00784617615
v -0.0571532444 0.0762451271 -0.0075465889
v -0.0571779541 0.0762698368 -0.0115521212
v -0.0572310261 0.0763229088 -0.0072523613
v -0.0571441368 0.0847213081 -0.0154917784
v -0.0570701603 0.0846473221 -0.00350365353
v -0.0572180466 0.0847952179 -0.015485384
v -0.0572180466 0.0847952179 -0.00351461601
v -0.0569865517 0.0760784344 -0.0105418892
v -0.0569633869 0.0760552696 -0.0103350372
v -0.0569382385 0.0760301212 -0.010022933
v -0.0569279102 0.0760197929 -0.00981401634
v -0.0569220928 0.0760139755 -0.0095
v -0.0569246773 0.07601656 -0.00929060173
v -0.0569324306 0.0760243133 -0.00908146095
v -0.0569537167 0.0760455994 -0.00876878452
v -0.0569743256 0.0760662083 -0.00856139374
v -0.0569865517 0.0760784344 -0.00845811081
v -0.0569220928 0.0844992546 -0.015499999
v -0.0567740253 0.0843511871 -0.00350365353
v -0.0569961361 0.0845732979 -0.0154990859
v -0.0569961361 0.0845732979 -0.00350091171
v -0.0566392521 0.0700742821 -0.0195
v -0.0566392521 0.0700742821 0.0005
v -0.0566261486 0.0842033104 -0.015485384
v -0.0565523247 0.084129496 -0.00352283192
v -0.0567000488 0.0842772201 -0.0154917784
v -0.0567000488 0.0842772201 -0.00350822163
v -0.0564050487 0.0839822105 -0.0154552765
v -0.0562584022 0.0838355736 -0.0035738678
v -0.0564786152 0.084055777 -0.0154671307
v -0.0564786152 0.084055777 -0.00353286934
v -0.0560032467 0.0666098503 -0.0153063269
v -0.0560222439 0.0666288475 -0.0152325292
v -0.0560741524 0.066680756 -0.0149678011
v -0.0561002067 0.0667068104 -0.014735188
v -0.0561089233 0.066715527 -0.0145
v -0.0560970596 0.0667036632 -0.0142257948
v -0.0560681442 0.0666747478 -0.0139938612
v -0.0560129742 0.0666195778 -0.0137304564
v -0.0560032467 0.0666098503 -0.00530632687
v -0.0560222439 0.0666288475 -0.00523252678
v -0.0560741524 0.066680756 -0.00496780109
v -0.0561002067 0.0667068104 -0.00473519039
v -0.0561089233 0.066715527 -0.0045
v -0.0560970596 0.0667036632 -0.00422579479
v -0.0560681442 0.0666747478 -0.0039938612
v -0.0560129742 0.0666195778 -0.00373045635
v -0.0561125664 0.0836897186 -0.0153897638
v -0.0560400013 0.0836171631 -0.0036311121
v -0.0561853699 0.0837625412 -0.0154088469
v -0.0561853699 0.0837625412 -0.00359115314
v -0.0557543663 0.0663609699 -0.0159159703
v -0.0558522514 0.066458855 -0.0157254381
v -0.0558816818 0.0664882759 -0.0133411665
v -0.0558369259 0.0664435295 -0.0132418175
v -0.0557543663 0.0663609699 -0.00591597271
v -0.0558522514 0.066458855 -0.00572543812
v -0.0558816818 0.0664882759 -0.0033411665
v -0.0558369259 0.0664435295 -0.00324181747
v -0.0558957676 0.0665023712 -0.0156249995
v -0.055947905 0.0665545086 -0.0154863353
v -0.055993071 0.0665996746 -0.0136571331
v -0.0559355167 0.0665421204 -0.0134785194
v -0.0558957676 0.0665023712 -0.00562500191
v -0.055947905 0.0665545086 -0.00548633289
v -0.055993071 0.0665996746 -0.0036571331
v -0.0559355167 0.0665421204 -0.00347851944
v -0.0558957104 0.0834728722 -0.015321774
v -0.0557526688 0.0833298305 -0.00373243046
v -0.0559677128 0.0835448746 -0.0153462214
v -0.0559677128 0.0835448746 -0.00365378094
v -0.0555191711 0.0661257748 -0.0162485785
v -0.0556429294 0.0662495331 -0.012909009
v -0.0555191711 0.0661257748 -0.00624857616
v -0.0556429294 0.0662495331 -0.00290900898
v -0.0556623939 0.0662689976 -0.0160629816
v -0.0557186703 0.0663252739 -0.0159761329
v -0.0557367042 0.0663433079 -0.0130537291
v -0.0557002643 0.066306868 -0.0129944582
v -0.0556623939 0.0662689976 -0.00606298161
v -0.0557186703 0.0663252739 -0.00597613049
v -0.0557367042 0.0663433079 -0.00305372906
v -0.0557002643 0.066306868 -0.0029944582
v -0.0556110481 0.0831882099 -0.0152063389
v -0.0555408291 0.0831179909 -0.00382688713
v -0.0556816677 0.0832588295 -0.0152378292
v -0.0556816677 0.0832588295 -0.00376217079
v -0.0552648548 0.0658714584 -0.0164866323
v -0.0553844456 0.0659910492 -0.0126129932
v -0.0552648548 0.0658714584 -0.00648663235
v -0.0553844456 0.0659910492 -0.00261299324
v -0.0554076008 0.0660142044 -0.0163653345
v -0.0554974464 0.0661040501 -0.0127269764
v -0.0554076008 0.0660142044 -0.00636533451
v -0.0554974464 0.0661040501 -0.00272697639
v -0.0554016689 0.0829788307 -0.0151014824
v -0.0552643684 0.0828415302 -0.00397697163
v -0.0554710297 0.0830481914 -0.0151381559
v -0.0554710297 0.0830481914 -0.00386184406
v -0.0550095753 0.0656161789 -0.0166398783
v -0.0551395801 0.0657461838 -0.0124288626
v -0.0550095753 0.0656161789 -0.00663987827
v -0.0551395801 0.0657461838 -0.00242886257
v -0.0551650432 0.0657716469 -0.0165554781
v -0.0552402309 0.065846825 -0.0124952335
v -0.0551650432 0.0657716469 -0.0065554781
v -0.0552402309 0.065846825 -0.00249523354
v -0.0551290802 0.082706242 -0.0149378462
v -0.0550622467 0.0826394085 -0.004107234
v -0.0551964573 0.0827736191 -0.0149812717
v -0.0551964573 0.0827736191 -0.00401872826
v -0.0547668175 0.0653734211 -0.0167222996
v -0.054875832 0.0654824261 -0.0123076696
v -0.0547668175 0.0653734211 -0.00672229958
v -0.054875832 0.0654824261 -0.00230766964
v -0.0549028305 0.0655094341 -0.0166831656
v -0.0549830917 0.0655896953 -0.0123483152
v -0.0549028305 0.0655094341 -0.00668316555
v -0.0549830917 0.0655896953 -0.00234831524
v -0.0548652271 0.0824423889 -0.0147477193
v -0.0548007778 0.0823779396 -0.00430384827
v -0.0549959759 0.0825731377 -0.0148460383
v -0.0549302963 0.0825074581 -0.00420231533
v -0.0545179371 0.0651245312 -0.016749999
v -0.0545179371 0.0651245312 -0.012250001
v -0.0545179371 0.0651245312 -0.00674999905
v -0.0545179371 0.0651245312 -0.00225000095
v -0.0546566013 0.0652631954 -0.0167414374
v -0.0547393516 0.0653459553 -0.0122718973
v -0.0546566013 0.0652631954 -0.00674143982
v -0.0547393516 0.0653459553 -0.00227189732
v -0.0545213035 0.0679563335 -0.0155214782
v -0.0545571617 0.0679921917 -0.0154151578
v -0.0545336918 0.0679687218 -0.0135136671
v -0.0545084766 0.0679435066 -0.0134436913
v -0.0545213035 0.0679563335 -0.00552148056
v -0.0545571617 0.0679921917 -0.00541515541
v -0.0545336918 0.0679687218 -0.00351366711
v -0.0545084766 0.0679435066 -0.00344369125
v -0.054598761 0.068033791 -0.015269546
v -0.054653931 0.068088961 -0.0150061388
v -0.0546828464 0.0681178764 -0.0147742052
v -0.0546944717 0.0681294922 -0.0145392675
v -0.0546859936 0.0681210236 -0.0142648096
v -0.0546599392 0.0680949692 -0.0140321989
v -0.0546080307 0.0680430607 -0.0137674732
v -0.0545682339 0.0680032638 -0.0136208553
v -0.054598761 0.068033791 -0.00526954365
v -0.054653931 0.068088961 -0.0050061388
v -0.0546828464 0.0681178764 -0.00477420521
v -0.0546944717 0.0681294922 -0.00453926754
v -0.0546859936 0.0681210236 -0.00426480961
v -0.0546599392 0.0680949692 -0.00403219891
v -0.0546080307 0.0680430607 -0.00376747322
v -0.0545682339 0.0680032638 -0.00362085533
v -0.0546113876 0.0821885494 -0.0145320244
v -0.0545496372 0.0821268085 -0.014474227
v -0.0545496372 0.0821268085 -0.00452577305
v -0.0546113876 0.0821885494 -0.00446797562
v -0.054736977 0.0823141388 -0.0146430035
v -0.0546738342 0.0822510055 -0.0044117136
v -0.0542690472 0.0648756508 -0.0167222996
v -0.0543792728 0.0649858669 -0.0122585602
v -0.0542690472 0.0648756508 -0.00672229958
v -0.0543792728 0.0649858669 -0.00225856018
v -0.0544069485 0.0650135521 -0.0167445202
v -0.0544901661 0.0650967697 -0.0122503443
v -0.0544069485 0.0650135521 -0.00674452019
v -0.0544901661 0.0650967697 -0.00225034428
v -0.0542860512 0.0677210812 -0.0160055442
v -0.0543044571 0.0677394871 -0.0159761329
v -0.0543044571 0.0677394871 -0.0130238695
v -0.0542672924 0.0677023224 -0.0129655046
v -0.0542860512 0.0677210812 -0.0060055418
v -0.0543044571 0.0677394871 -0.00597613049
v -0.0543044571 0.0677394871 -0.00302386951
v -0.0542672924 0.0677023224 -0.00296550465
v -0.0544227127 0.0678577427 -0.0157581849
v -0.0544952301 0.0679302601 -0.0155908222
v -0.0544380382 0.0678730682 -0.0132745619
v -0.0543224911 0.067757521 -0.0130537291
v -0.0544227127 0.0678577427 -0.00575818253
v -0.0544952301 0.0679302601 -0.00559082222
v -0.0544380382 0.0678730682 -0.00327456188
v -0.0543224911 0.067757521 -0.00305372906
v -0.054368811 0.0819459728 -0.0142918129
v -0.0543100647 0.0818872265 -0.0142280645
v -0.0542521194 0.0818292812 -0.00483712387
v -0.054368811 0.0819459728 -0.0047081871
v -0.0544886211 0.0820657829 -0.0144149132
v -0.0544283298 0.0820055012 -0.00464589787
v -0.0540262894 0.064632893 -0.0166398783
v -0.0541330341 0.0647396377 -0.0123168344
v -0.0540262894 0.064632893 -0.00663987827
v -0.0541330341 0.0647396377 -0.00231683445
v -0.0541600422 0.0647666363 -0.0166923327
v -0.0542416576 0.0648482613 -0.0122841806
v -0.0541600422 0.0647666363 -0.00669233036
v -0.0542416576 0.0648482613 -0.00228418064
v -0.0540612034 0.0674962334 -0.0162969298
v -0.0540162758 0.0674513058 -0.0126569099
v -0.0540612034 0.0674962334 -0.00629693222
v -0.0540162758 0.0674513058 -0.00265690994
v -0.0540832333 0.0675182632 -0.0162730236
v -0.0542481808 0.0676832107 -0.0160629816
v -0.054104958 0.0675399879 -0.0127514238
v -0.0540832333 0.0675182632 -0.0127269764
v -0.0540832333 0.0675182632 -0.00627302361
v -0.0542481808 0.0676832107 -0.00606298161
v -0.054104958 0.0675399879 -0.00275142384
v -0.0540832333 0.0675182632 -0.00272697639
v -0.0541386703 0.0817158417 -0.0140282555
v -0.0540832142 0.081660376 -0.0139588709
v -0.0540286259 0.0816057877 -0.00511187744
v -0.0541386703 0.0817158417 -0.00497174454
v -0.0541949753 0.0817721466 -0.0140962667
v -0.0541949753 0.0817721466 -0.00490373325
v -0.0537956337 0.0644022373 -0.0165047641
v -0.0537710098 0.0643776134 -0.0164866323
v -0.0537710098 0.0643776134 -0.0125133677
v -0.0538708214 0.064477425 -0.0124445219
v -0.0537956337 0.0644022373 -0.00650476646
v -0.0537710098 0.0643776134 -0.00648663235
v -0.0537710098 0.0643776134 -0.00251336765
v -0.0538708214 0.064477425 -0.0024445219
v -0.0538962845 0.0645028881 -0.016571135
v -0.0539999584 0.064606562 -0.0123725815
v -0.0538962845 0.0645028881 -0.00657113743
v -0.0539999584 0.064606562 -0.00237258148
v -0.053801165 0.067236195 -0.0165222855
v -0.0537508301 0.0671858601 -0.0124445219
v -0.053801165 0.067236195 -0.00652228546
v -0.0537508301 0.0671858601 -0.0024445219
v -0.0538260178 0.0672610382 -0.0165047641
v -0.0539933876 0.0674284176 -0.0163653345
v -0.0538506416 0.0672856716 -0.0125133677
v -0.0538260178 0.0672610382 -0.0124952335
v -0.0538260178 0.0672610382 -0.00650476646
v -0.0539933876 0.0674284176 -0.00636533451
v -0.0538506416 0.0672856716 -0.00251336765
v -0.0538260178 0.0672610382 -0.00249523354
v -0.0538108257 0.0729027084 -0.0195
v -0.0538108257 0.0729027084 0.0005
v -0.0539221004 0.0814992622 -0.0137426395
v -0.0537691978 0.0813463596 -0.00548521709
v -0.0539749054 0.0815520767 -0.0138160391
v -0.0539749054 0.0815520767 -0.00518396091
v -0.0535384182 0.0641450218 -0.0162730236
v -0.0535166935 0.0641232876 -0.0162485785
v -0.0535166935 0.0641232876 -0.0127514238
v -0.0536282638 0.0642348675 -0.0126346655
v -0.0535384182 0.0641450218 -0.00627302361
v -0.0535166935 0.0641232876 -0.00624857616
v -0.0535166935 0.0641232876 -0.00275142384
v -0.0536282638 0.0642348675 -0.00263466549
v -0.0536514191 0.0642580227 -0.0163870091
v -0.0537466053 0.0643532089 -0.0125321074
v -0.0536514191 0.0642580227 -0.00638700676
v -0.0537466053 0.0643532089 -0.00253210735
v -0.053542252 0.0669772819 -0.016662838
v -0.0535155014 0.0669505314 -0.0123266668
v -0.053542252 0.0669772819 -0.00666283798
v -0.0535155014 0.0669505314 -0.00232666683
v -0.053725367 0.0671603969 -0.016571135
v -0.0535688785 0.0670039085 -0.0123483152
v -0.053725367 0.0671603969 -0.00657113743
v -0.0535688785 0.0670039085 -0.00234831524
v -0.053672047 0.0812492088 -0.0133567257
v -0.053578854 0.0811560158 -0.0131939669
v -0.0535337738 0.0811109356 -0.0058891077
v -0.0536249451 0.0812021068 -0.00572407913
v -0.0537201313 0.0812973026 -0.0134363527
v -0.0537201313 0.0812973026 -0.00556364727
v -0.0533356003 0.0639421944 -0.0160055442
v -0.0532642177 0.0638708214 -0.0158852382
v -0.0533171944 0.063923798 -0.0130238695
v -0.0533929352 0.0639995388 -0.012909009
v -0.0533356003 0.0639421944 -0.0060055418
v -0.0532642177 0.0638708214 -0.00588524055
v -0.0533171944 0.063923798 -0.00302386951
v -0.0533929352 0.0639995388 -0.00290900898
v -0.0534127335 0.0640193371 -0.0161185141
v -0.0534952644 0.064101868 -0.0127764006
v -0.0534127335 0.0640193371 -0.00611851406
v -0.0534952644 0.064101868 -0.00277640057
v -0.0532976154 0.0667326454 -0.0167332287
v -0.0532700256 0.0667050556 -0.0122623272
v -0.0532976154 0.0667326454 -0.00673322868
v -0.0532700256 0.0667050556 -0.00226232719
v -0.0534886173 0.0669236473 -0.0166831656
v -0.0533251385 0.0667601684 -0.0122718973
v -0.0534886173 0.0669236473 -0.00668316555
v -0.0533251385 0.0667601684 -0.00227189732
v -0.0534047893 0.0809819511 -0.0128551598
v -0.0533241371 0.0809012989 -0.0126795168
v -0.0532854465 0.0808626083 -0.00640977097
v -0.0533639149 0.0809410862 -0.00623216343
v -0.0534897236 0.0810668949 -0.0130267115
v -0.0534467319 0.0810238937 -0.0129414577
v -0.0534467319 0.0810238937 -0.00605854225
v -0.0534897236 0.0810668949 -0.00597328854
v -0.0531003479 0.0637069515 -0.0155214782
v -0.0530228905 0.0636294941 -0.015269546
v -0.0530048088 0.0636114124 -0.0151952882
v -0.0530136207 0.0636202244 -0.0137674732
v -0.0530879597 0.0636945633 -0.0135136671
v -0.053140097 0.0637467007 -0.0133749981
v -0.0531003479 0.0637069515 -0.00552148056
v -0.0530228905 0.0636294941 -0.00526954365
v -0.0530048088 0.0636114124 -0.00519529057
v -0.0530136207 0.0636202244 -0.00376747322
v -0.0530879597 0.0636945633 -0.00351366711
v -0.053140097 0.0637467007 -0.00337499809
v -0.0531989387 0.0638055424 -0.0157581849
v -0.0531541923 0.0637607864 -0.0156588359
v -0.0531836132 0.0637902168 -0.0132745619
v -0.0532473091 0.0638539127 -0.013145916
v -0.0531989387 0.0638055424 -0.00575818253
v -0.0531541923 0.0637607864 -0.0056588335
v -0.0531836132 0.0637902168 -0.00327456188
v -0.0532473091 0.0638539127 -0.00314591599
v -0.0530481914 0.0664832214 -0.0167486305
v -0.0530204491 0.066455479 -0.0122530813
v -0.0530481914 0.0664832214 -0.00674863052
v -0.0530204491 0.066455479 -0.00225308132
v -0.0532423786 0.0666774086 -0.0167414374
v -0.0531037239 0.0665387443 -0.012250001
v -0.0532423786 0.0666774086 -0.00674143982
v -0.0531037239 0.0665387443 -0.00225000095
v -0.0531418709 0.0807190422 -0.0122239418
v -0.0530462555 0.0806234173 -0.0119404192
v -0.0530167202 0.0805938915 -0.00715561104
v -0.0530769543 0.0806541256 -0.00696428967
v -0.0532478622 0.080825024 -0.0125000019
v -0.0532114033 0.0807885651 -0.0124088593
v -0.0531760696 0.0807532314 -0.00668317032
v -0.0532478622 0.080825024 -0.00649999809
v -0.0527501682 0.0633567718 -0.0195
v -0.0527501682 0.0633567718 0.0005
v -0.0529677204 0.063574324 -0.0150061388
v -0.052938805 0.0635453991 -0.0147742052
v -0.0529271892 0.0635337833 -0.0145392675
v -0.0529356579 0.0635422615 -0.0142648096
v -0.0529617123 0.0635683159 -0.0140321989
v -0.0529964641 0.0636030582 -0.013842165
v -0.0529677204 0.063574324 -0.0050061388
v -0.052938805 0.0635453991 -0.00477420521
v -0.0529271892 0.0635337833 -0.00453926754
v -0.0529356579 0.0635422615 -0.00426480961
v -0.0529617123 0.0635683159 -0.00403219891
v -0.0529964641 0.0636030582 -0.00384216499
v -0.0528001408 0.0662351707 -0.016708662
v -0.0527729324 0.0662079624 -0.0122991676
v -0.0528001408 0.0662351707 -0.00670866203
v -0.0527729324 0.0662079624 -0.00229916763
v -0.0529927353 0.0664277653 -0.0167445202
v -0.0528274444 0.0662624744 -0.0122841806
v -0.0529927353 0.0664277653 -0.00674452019
v -0.0528274444 0.0662624744 -0.00228418064
v -0.0529106048 0.0804877666 -0.0114534111
v -0.0528438095 0.0804209713 -0.0111538239
v -0.0528054813 0.0803826431 -0.0109515305
v -0.0527721695 0.0803493313 -0.010747468
v -0.0527574066 0.0803345684 -0.00835514736
v -0.0527881912 0.0803653625 -0.00815029335
v -0.0528240208 0.0804011825 -0.00794708443
v -0.052864838 0.0804419998 -0.00774576855
v -0.0529883865 0.0805655483 -0.0117476387
v -0.0529353146 0.0805124859 -0.00744787884
v -0.0525595669 0.0659945969 -0.0166143079
v -0.0525077251 0.0659427551 -0.0124138374
v -0.0525595669 0.0659945969 -0.00661431026
v -0.0525077251 0.0659427551 -0.00241383743
v -0.052745829 0.0661808494 -0.0166923327
v -0.0525857452 0.0660207752 -0.0123725815
v -0.052745829 0.0661808494 -0.00669233036
v -0.0525857452 0.0660207752 -0.00237258148
v -0.0527439121 0.0803210739 -0.0105418892
v -0.052731686 0.0803088573 -0.0104386063
v -0.0527110771 0.0802882389 -0.0102312155
v -0.0526897911 0.0802669529 -0.00991853905
v -0.0526820377 0.0802591995 -0.00970939827
v -0.0526801018 0.0802572636 -0.00939528656
v -0.0526852707 0.0802624325 -0.00918598366
v -0.052695599 0.0802727608 -0.00897706699
v -0.0527207474 0.0802979092 -0.00866496277
v -0.0527439121 0.0803210739 -0.00845811081
v -0.052308226 0.065743256 -0.0164485569
v -0.0522606186 0.0656956486 -0.0125918932
v -0.052308226 0.065743256 -0.0064485569
v -0.0522606186 0.0656956486 -0.0025918932
v -0.0524820713 0.0659171013 -0.016571135
v -0.0523567966 0.0657918266 -0.0164866323
v -0.0523323921 0.0657674221 -0.0125321074
v -0.0523814205 0.0658164505 -0.0124952335
v -0.0524820713 0.0659171013 -0.00657113743
v -0.0523567966 0.0657918266 -0.00648663235
v -0.0523323921 0.0657674221 -0.00253210735
v -0.0523814205 0.0658164505 -0.00249523354
v -0.0520599369 0.0654949669 -0.0161980958
v -0.0520186619 0.0654536919 -0.012854454
v -0.0520599369 0.0654949669 -0.00619809818
v -0.0520186619 0.0654536919 -0.00285445404
v -0.0522372059 0.0656722359 -0.0163870091
v -0.0521024803 0.0655375008 -0.0162485785
v -0.0520810512 0.0655160812 -0.0127764006
v -0.052124205 0.065559235 -0.0127269764
v -0.0522372059 0.0656722359 -0.00638700676
v -0.0521024803 0.0655375008 -0.00624857616
v -0.0520810512 0.0655160812 -0.00277640057
v -0.052124205 0.065559235 -0.00272697639
v -0.0518004517 0.0652354816 -0.0157905478
v -0.0517694 0.06520443 -0.0157254381
v -0.0517544845 0.0651895145 -0.013307683
v -0.0517847256 0.0652197555 -0.0132418175
v -0.0518004517 0.0652354816 -0.00579054546
v -0.0517694 0.06520443 -0.00572543812
v -0.0517544845 0.0651895145 -0.00330768299
v -0.0517847256 0.0652197555 -0.00324181747
v -0.0519985203 0.0654335503 -0.0161185141
v -0.0519029812 0.0653380112 -0.0159761329
v -0.0518165783 0.0652516083 -0.0131774826
v -0.0519213871 0.0653564075 -0.0129944582
v -0.0519985203 0.0654335503 -0.00611851406
v -0.0519029812 0.0653380112 -0.00597613049
v -0.0518165783 0.0652516083 -0.0031774826
v -0.0519213871 0.0653564075 -0.0029944582
v -0.0515599922 0.0649950127 -0.0150443239
v -0.0515474991 0.0649825291 -0.0149678011
v -0.0515214447 0.0649564747 -0.014735188
v -0.0515127281 0.0649477581 -0.0145
v -0.0515245918 0.0649596123 -0.0142257948
v -0.0515535072 0.0649885372 -0.0139938612
v -0.0515599922 0.0649950127 -0.00504432392
v -0.0515474991 0.0649825291 -0.00496780109
v -0.0515214447 0.0649564747 -0.00473519039
v -0.0515127281 0.0649477581 -0.0045
v -0.0515245918 0.0649596123 -0.00422579479
v -0.0515535072 0.0649885372 -0.0039938612
v -0.0517399792 0.0651749996 -0.0156588359
v -0.0516737465 0.0651087765 -0.0154863353
v -0.0515994076 0.0650344376 -0.0152325292
v -0.0515669445 0.0650019649 -0.0139176579
v -0.0516086773 0.0650437073 -0.0137304564
v -0.0516861347 0.0651211647 -0.0134785194
v -0.0517399792 0.0651749996 -0.0056588335
v -0.0516737465 0.0651087765 -0.00548633289
v -0.0515994076 0.0650344376 -0.00523252678
v -0.0515669445 0.0650019649 -0.00391765785
v -0.0516086773 0.0650437073 -0.00373045635
v -0.0516861347 0.0651211647 -0.00347851944
v -0.051335955 0.064770985 -0.0195
v -0.051335955 0.064770985 0.0005
f 328 1 2
f 1 334 2
f 327 1 328
f 327 333 1
f 333 334 1
f 560 328 2
f 560 2 334
f 3 4 15
f 95 4 3
f 15 27 3
f 95 3 27
f 4 5 15
f 96 5 4
f 96 4 95
f 5 6 15
f 97 6 5
f 97 5 96
f 7 10 6
f 98 7 6
f 6 10 11
f 6 11 15
f 98 6 97
f 8 9 7
f 99 8 7
f 7 9 10
f 99 7 98
f 8 33 9
f 28 33 8
f 100 28 8
f 100 8 99
f 101 10 9
f 101 9 33
f 102 11 10
f 102 10 101
f 16 11 12
f 103 12 11
f 15 11 16
f 103 11 102
f 12 13 16
f 104 13 12
f 104 12 103
f 13 14 16
f 105 14 13
f 105 13 104
f 16 14 34
f 106 34 14
f 106 14 105
f 82 15 16
f 17 18 15
f 42 17 15
f 18 25 15
f 15 25 26
f 15 26 27
f 37 41 15
f 15 54 37
f 15 41 42
f 49 53 15
f 66 49 15
f 53 54 15
f 15 61 65
f 15 77 61
f 15 65 66
f 15 73 77
f 15 87 73
f 81 15 82
f 15 81 327
f 15 83 87
f 15 111 83
f 107 111 15
f 15 135 107
f 131 135 15
f 327 131 15
f 23 24 16
f 36 23 16
f 24 47 16
f 16 34 35
f 16 35 36
f 48 40 16
f 16 40 59
f 16 47 48
f 60 52 16
f 52 71 16
f 59 60 16
f 16 72 64
f 16 64 80
f 16 71 72
f 16 80 76
f 16 76 90
f 82 16 330
f 16 90 86
f 86 114 16
f 16 114 110
f 110 138 16
f 16 138 134
f 16 134 328
f 330 16 328
f 119 18 17
f 119 17 42
f 120 25 18
f 120 18 119
f 20 21 19
f 123 20 19
f 19 21 22
f 19 22 30
f 123 19 30
f 20 46 21
f 43 46 20
f 124 43 20
f 124 20 123
f 125 22 21
f 125 21 46
f 30 22 31
f 126 31 22
f 126 22 125
f 129 24 23
f 129 23 36
f 130 47 24
f 130 24 129
f 120 26 25
f 91 27 26
f 91 26 121
f 121 26 120
f 95 27 91
f 29 32 28
f 100 29 28
f 28 32 33
f 30 31 29
f 122 30 29
f 29 31 32
f 92 29 100
f 122 29 92
f 123 30 122
f 126 32 31
f 93 33 32
f 93 32 127
f 127 32 126
f 101 33 93
f 106 35 34
f 128 36 35
f 94 35 106
f 128 35 94
f 129 36 128
f 147 41 37
f 147 37 54
f 38 39 44
f 38 58 39
f 148 38 44
f 55 58 38
f 148 55 38
f 44 39 45
f 149 45 39
f 149 39 58
f 150 40 48
f 150 59 40
f 147 42 41
f 119 42 115
f 115 42 147
f 44 45 43
f 116 44 43
f 43 45 46
f 116 43 124
f 148 44 116
f 149 46 45
f 125 46 117
f 117 46 149
f 118 48 47
f 118 47 130
f 150 48 118
f 167 53 49
f 167 49 66
f 50 51 56
f 50 70 51
f 168 50 56
f 67 70 50
f 168 67 50
f 56 51 57
f 169 57 51
f 169 51 70
f 170 52 60
f 170 71 52
f 139 54 53
f 139 53 167
f 140 54 139
f 147 54 140
f 56 57 55
f 141 56 55
f 55 57 58
f 141 55 148
f 142 56 141
f 168 56 142
f 143 58 57
f 143 57 169
f 144 58 143
f 149 58 144
f 145 60 59
f 145 59 150
f 146 60 145
f 170 60 146
f 183 65 61
f 183 61 77
f 62 63 68
f 62 79 63
f 184 62 68
f 78 79 62
f 184 78 62
f 68 63 69
f 185 69 63
f 185 63 79
f 186 64 72
f 186 80 64
f 159 66 65
f 159 65 183
f 160 66 159
f 167 66 160
f 68 69 67
f 161 68 67
f 67 69 70
f 161 67 168
f 162 68 161
f 184 68 162
f 163 70 69
f 163 69 185
f 164 70 163
f 169 70 164
f 165 72 71
f 165 71 170
f 166 72 165
f 186 72 166
f 207 77 73
f 203 73 87
f 207 73 203
f 74 75 78
f 74 89 75
f 180 74 78
f 88 89 74
f 208 88 74
f 208 74 180
f 78 75 79
f 209 79 75
f 205 75 89
f 209 75 205
f 182 76 80
f 210 90 76
f 210 76 182
f 183 77 179
f 179 77 207
f 180 78 184
f 185 79 181
f 181 79 209
f 182 80 186
f 82 98 81
f 81 95 91
f 81 91 121
f 96 95 81
f 97 96 81
f 98 97 81
f 81 119 115
f 81 115 147
f 120 119 81
f 81 121 120
f 140 139 81
f 81 139 167
f 81 147 140
f 81 160 159
f 81 159 183
f 81 167 160
f 81 183 179
f 81 179 207
f 81 207 203
f 81 203 227
f 81 227 223
f 81 223 255
f 81 255 251
f 81 251 263
f 81 263 329
f 327 81 329
f 82 94 106
f 82 128 94
f 103 98 82
f 82 104 103
f 105 104 82
f 106 105 82
f 82 118 130
f 82 150 118
f 82 129 128
f 130 129 82
f 146 145 82
f 82 145 150
f 82 170 146
f 82 166 165
f 82 165 170
f 82 186 166
f 82 182 186
f 82 210 182
f 82 206 210
f 82 230 206
f 82 226 230
f 82 258 226
f 82 254 258
f 82 266 254
f 330 266 82
f 227 87 83
f 223 83 111
f 227 83 223
f 84 85 88
f 84 113 85
f 204 84 88
f 112 113 84
f 228 112 84
f 228 84 204
f 88 85 89
f 229 89 85
f 225 85 113
f 229 85 225
f 206 86 90
f 230 114 86
f 230 86 206
f 203 87 227
f 204 88 208
f 205 89 229
f 206 90 210
f 93 92 101
f 93 122 92
f 101 92 100
f 127 122 93
f 103 99 98
f 102 100 99
f 102 99 103
f 101 100 102
f 255 111 107
f 251 107 135
f 255 107 251
f 109 112 108
f 109 108 137
f 256 108 112
f 137 108 136
f 256 136 108
f 113 112 109
f 257 113 109
f 253 109 137
f 257 109 253
f 258 110 114
f 258 138 110
f 223 111 255
f 224 112 228
f 256 112 224
f 225 113 257
f 226 114 230
f 258 114 226
f 117 116 125
f 117 148 116
f 125 116 124
f 149 148 117
f 127 123 122
f 126 124 123
f 126 123 127
f 125 124 126
f 263 135 131
f 263 131 155
f 155 131 327
f 133 136 132
f 133 132 157
f 264 132 136
f 157 132 156
f 264 156 132
f 137 136 133
f 265 137 133
f 265 133 157
f 266 134 138
f 266 158 134
f 134 158 328
f 251 135 263
f 252 136 256
f 264 136 252
f 253 137 265
f 254 138 258
f 266 138 254
f 144 142 141
f 144 141 149
f 149 141 148
f 143 142 144
f 143 168 142
f 169 168 143
f 271 155 151
f 327 151 155
f 272 151 175
f 327 175 151
f 271 151 272
f 153 156 152
f 153 152 177
f 274 152 156
f 177 152 176
f 274 176 152
f 157 156 153
f 275 157 153
f 276 153 177
f 275 153 276
f 278 154 158
f 328 158 154
f 278 178 154
f 328 154 178
f 263 155 259
f 259 155 271
f 260 156 264
f 274 156 260
f 265 157 261
f 261 157 275
f 262 158 266
f 278 158 262
f 164 162 161
f 164 161 169
f 169 161 168
f 163 162 164
f 163 184 162
f 185 184 163
f 283 175 171
f 327 171 175
f 283 171 195
f 327 195 171
f 173 176 172
f 173 172 199
f 284 172 176
f 199 172 198
f 284 198 172
f 177 176 173
f 285 177 173
f 285 173 199
f 286 174 178
f 328 178 174
f 286 202 174
f 328 174 202
f 272 175 267
f 267 175 283
f 268 176 273
f 284 176 268
f 273 176 274
f 276 177 269
f 269 177 285
f 270 178 277
f 286 178 270
f 277 178 278
f 181 180 185
f 181 208 180
f 185 180 184
f 209 208 181
f 292 187 188
f 327 188 187
f 291 196 187
f 327 187 196
f 291 187 292
f 292 188 219
f 219 188 327
f 192 190 189
f 294 189 190
f 192 189 221
f 221 189 220
f 293 220 189
f 293 189 294
f 191 190 192
f 191 197 190
f 294 190 197
f 296 191 192
f 200 197 191
f 295 200 191
f 295 191 296
f 296 192 221
f 298 193 194
f 328 194 193
f 297 222 193
f 193 222 328
f 297 193 298
f 298 194 201
f 328 201 194
f 279 195 196
f 196 195 327
f 283 195 279
f 279 196 291
f 200 198 197
f 284 197 198
f 280 197 284
f 294 197 280
f 199 198 200
f 281 199 200
f 285 199 281
f 281 200 295
f 286 201 202
f 202 201 328
f 282 201 286
f 298 201 282
f 205 204 209
f 205 228 204
f 209 204 208
f 229 228 205
f 309 211 212
f 327 212 211
f 308 219 211
f 211 219 327
f 308 211 309
f 309 212 235
f 235 212 327
f 216 214 213
f 311 213 214
f 216 213 243
f 243 213 242
f 310 242 213
f 310 213 311
f 215 214 216
f 215 220 214
f 312 214 220
f 311 214 312
f 315 215 216
f 221 220 215
f 314 221 215
f 314 215 315
f 315 216 243
f 317 217 218
f 328 218 217
f 316 250 217
f 217 250 328
f 316 217 317
f 318 218 222
f 222 218 328
f 317 218 318
f 292 219 287
f 287 219 307
f 307 219 308
f 288 220 293
f 312 220 288
f 296 221 289
f 289 221 313
f 313 221 314
f 290 222 297
f 318 222 290
f 224 229 225
f 224 225 256
f 228 229 224
f 256 225 257
f 321 231 232
f 232 231 327
f 320 238 231
f 327 231 238
f 320 231 321
f 321 232 239
f 239 232 327
f 325 233 234
f 328 234 233
f 324 246 233
f 233 246 328
f 324 233 325
f 325 234 247
f 328 247 234
f 299 235 236
f 327 236 235
f 309 235 299
f 300 236 237
f 237 236 327
f 299 236 300
f 320 237 238
f 238 237 327
f 300 237 319
f 319 237 320
f 322 239 240
f 327 240 239
f 321 239 322
f 245 241 240
f 302 240 241
f 245 240 328
f 301 240 302
f 322 240 301
f 328 240 327
f 244 242 241
f 310 241 242
f 244 241 245
f 302 241 310
f 243 242 244
f 303 243 244
f 315 243 303
f 304 244 245
f 303 244 304
f 324 245 246
f 328 246 245
f 304 245 323
f 323 245 324
f 326 247 248
f 248 247 328
f 325 247 326
f 306 248 249
f 249 248 328
f 305 248 306
f 326 248 305
f 316 249 250
f 328 250 249
f 306 249 316
f 252 257 253
f 252 253 264
f 256 257 252
f 264 253 265
f 329 263 259
f 259 271 329
f 260 265 261
f 260 261 274
f 264 265 260
f 274 261 275
f 330 262 266
f 278 262 330
f 329 272 267
f 329 267 283
f 268 276 269
f 268 269 284
f 273 276 268
f 284 269 285
f 330 270 277
f 330 286 270
f 329 271 272
f 274 275 273
f 273 275 276
f 330 277 278
f 283 279 329
f 279 291 329
f 280 285 281
f 280 281 294
f 284 285 280
f 294 281 295
f 282 286 330
f 298 282 330
f 329 292 287
f 329 287 307
f 288 296 289
f 288 289 312
f 293 296 288
f 312 289 313
f 330 290 297
f 330 318 290
f 329 291 292
f 294 295 293
f 293 295 296
f 330 297 298
f 299 300 329
f 329 309 299
f 329 300 319
f 302 303 301
f 301 303 304
f 301 304 329
f 329 322 301
f 302 315 303
f 310 315 302
f 330 304 323
f 329 304 330
f 305 306 330
f 330 326 305
f 330 306 316
f 307 308 329
f 329 308 309
f 311 314 310
f 310 314 315
f 312 313 311
f 311 313 314
f 330 316 317
f 317 318 330
f 319 320 329
f 320 321 329
f 329 321 322
f 330 323 324
f 330 324 325
f 325 326 330
f 329 559 327
f 327 559 333
f 636 330 328
f 636 328 560
f 330 332 329
f 329 332 331
f 331 635 329
f 329 635 559
f 856 332 330
f 856 330 636
f 332 341 331
f 336 335 331
f 331 335 356
f 331 337 336
f 331 338 337
f 331 339 338
f 331 340 339
f 341 340 331
f 331 350 349
f 331 349 364
f 331 351 350
f 331 355 351
f 331 356 355
f 360 359 331
f 359 371 331
f 331 363 360
f 331 364 363
f 368 367 331
f 367 377 331
f 331 371 368
f 374 373 331
f 331 373 381
f 331 377 374
f 331 381 379
f 331 379 385
f 331 385 383
f 331 383 389
f 331 389 387
f 387 393 331
f 331 393 391
f 331 391 397
f 331 397 395
f 331 395 403
f 331 400 399
f 399 407 331
f 403 400 331
f 331 407 405
f 405 413 331
f 331 410 409
f 331 409 417
f 331 413 410
f 331 417 415
f 331 415 421
f 331 421 419
f 331 419 855
f 331 855 635
f 332 342 341
f 343 342 332
f 332 344 343
f 332 345 344
f 332 346 345
f 332 347 346
f 348 347 332
f 332 357 348
f 332 353 352
f 332 352 358
f 332 354 353
f 332 365 354
f 332 358 357
f 362 361 332
f 332 361 366
f 372 362 332
f 332 366 365
f 370 369 332
f 332 369 372
f 378 370 332
f 376 375 332
f 332 375 378
f 332 382 376
f 332 380 382
f 332 386 380
f 332 384 386
f 332 390 384
f 332 388 390
f 394 388 332
f 332 392 394
f 332 398 392
f 332 396 398
f 332 404 396
f 332 402 401
f 401 404 332
f 408 402 332
f 332 406 408
f 414 406 332
f 332 412 411
f 332 411 414
f 332 418 412
f 332 416 418
f 332 422 416
f 332 420 422
f 856 420 332
f 559 334 333
f 560 334 559
f 336 436 335
f 335 435 356
f 335 436 435
f 337 437 336
f 336 437 436
f 338 438 337
f 337 438 437
f 339 439 338
f 338 439 438
f 340 440 339
f 339 440 439
f 341 441 340
f 340 441 440
f 342 442 341
f 341 442 441
f 343 443 342
f 342 443 442
f 344 444 343
f 343 444 443
f 345 445 344
f 344 445 444
f 346 446 345
f 345 446 445
f 347 447 346
f 346 447 446
f 348 448 347
f 347 448 447
f 357 448 348
f 350 454 349
f 349 453 364
f 349 454 453
f 351 455 350
f 350 455 454
f 355 459 351
f 351 459 455
f 353 457 352
f 352 456 358
f 352 457 456
f 354 458 353
f 353 458 457
f 365 470 354
f 354 470 458
f 356 435 355
f 355 435 459
f 358 460 357
f 357 460 448
f 358 456 460
f 360 466 359
f 359 465 371
f 359 466 465
f 363 466 360
f 362 468 361
f 361 467 366
f 361 468 467
f 372 480 362
f 362 480 468
f 364 469 363
f 363 469 466
f 364 453 469
f 366 467 365
f 365 467 470
f 368 476 367
f 367 475 377
f 367 476 475
f 371 479 368
f 368 479 476
f 370 478 369
f 369 477 372
f 369 478 477
f 378 490 370
f 370 490 478
f 371 465 479
f 372 477 480
f 374 486 373
f 373 485 381
f 373 486 485
f 377 486 374
f 376 488 375
f 375 487 378
f 375 488 487
f 382 502 376
f 376 502 488
f 377 475 489
f 377 489 486
f 378 487 490
f 381 498 379
f 379 497 385
f 379 498 497
f 380 500 382
f 386 510 380
f 380 510 500
f 381 485 501
f 381 501 498
f 382 500 499
f 382 499 502
f 385 509 383
f 383 507 389
f 383 509 507
f 384 508 386
f 390 518 384
f 384 518 508
f 385 497 509
f 386 508 510
f 389 515 387
f 387 515 393
f 388 516 390
f 394 526 388
f 388 526 516
f 389 507 517
f 389 517 515
f 390 516 518
f 393 523 391
f 391 523 397
f 392 524 394
f 398 536 392
f 392 536 524
f 393 515 525
f 393 525 523
f 394 524 526
f 397 535 395
f 395 533 403
f 395 535 533
f 396 534 398
f 404 548 396
f 396 548 534
f 397 523 535
f 398 534 536
f 400 544 399
f 399 543 407
f 399 544 543
f 403 547 400
f 400 547 544
f 402 546 401
f 401 545 404
f 401 546 545
f 408 558 402
f 402 558 546
f 403 533 547
f 404 545 548
f 407 557 405
f 405 555 413
f 405 557 555
f 406 556 408
f 414 572 406
f 406 572 556
f 407 543 557
f 408 556 558
f 410 568 409
f 409 567 417
f 409 568 567
f 413 571 410
f 410 571 568
f 412 570 411
f 411 569 414
f 411 570 569
f 418 582 412
f 412 582 570
f 413 555 571
f 414 569 572
f 417 581 415
f 415 579 421
f 415 581 579
f 416 580 418
f 422 594 416
f 416 594 580
f 417 567 581
f 418 580 582
f 421 593 419
f 419 591 425
f 419 425 855
f 419 593 591
f 420 592 422
f 426 606 420
f 856 426 420
f 420 606 592
f 421 579 593
f 422 592 594
f 425 605 423
f 855 425 423
f 423 603 429
f 423 429 855
f 423 605 603
f 424 604 426
f 856 424 426
f 430 620 424
f 856 430 424
f 424 620 604
f 425 591 605
f 426 604 606
f 429 619 427
f 855 429 427
f 427 617 433
f 427 433 855
f 427 619 617
f 428 618 430
f 856 428 430
f 434 634 428
f 856 434 428
f 428 634 618
f 429 603 619
f 430 618 620
f 433 631 431
f 855 433 431
f 431 631 451
f 431 451 855
f 432 632 434
f 432 434 856
f 452 640 432
f 856 452 432
f 432 640 632
f 433 617 633
f 433 633 631
f 434 632 634
f 447 435 436
f 448 435 447
f 448 459 435
f 446 436 437
f 447 436 446
f 445 437 438
f 446 437 445
f 444 438 439
f 445 438 444
f 443 439 440
f 444 439 443
f 442 440 441
f 443 440 442
f 460 459 448
f 451 639 449
f 855 451 449
f 449 637 463
f 449 463 855
f 449 639 637
f 450 638 452
f 450 452 856
f 464 644 450
f 856 464 450
f 450 644 638
f 451 631 639
f 452 638 640
f 457 453 454
f 458 453 457
f 458 469 453
f 456 454 455
f 457 454 456
f 456 455 460
f 460 455 459
f 470 469 458
f 463 643 461
f 855 463 461
f 461 641 473
f 855 461 473
f 461 643 641
f 462 642 464
f 462 464 856
f 474 664 462
f 474 462 856
f 462 664 642
f 463 637 643
f 464 642 644
f 467 465 466
f 468 465 467
f 468 479 465
f 467 466 470
f 470 466 469
f 480 479 468
f 473 663 471
f 855 473 471
f 471 661 483
f 855 471 483
f 471 663 661
f 472 662 474
f 856 472 474
f 484 684 472
f 484 472 856
f 472 684 662
f 473 641 663
f 474 662 664
f 477 475 476
f 478 475 477
f 478 489 475
f 477 476 480
f 480 476 479
f 490 489 478
f 483 683 481
f 855 483 481
f 481 681 493
f 855 481 493
f 481 683 681
f 482 682 484
f 856 482 484
f 496 682 482
f 496 482 856
f 483 661 683
f 484 682 684
f 487 485 486
f 488 485 487
f 488 501 485
f 487 486 490
f 490 486 489
f 502 501 488
f 494 699 491
f 494 491 855
f 491 697 505
f 855 491 505
f 491 699 697
f 492 698 495
f 856 492 495
f 506 712 492
f 856 506 492
f 492 712 698
f 493 681 494
f 855 493 494
f 494 681 699
f 495 700 496
f 856 495 496
f 495 698 700
f 496 700 682
f 499 497 498
f 500 497 499
f 500 509 497
f 499 498 502
f 502 498 501
f 510 509 500
f 505 711 503
f 505 503 855
f 503 709 513
f 503 513 855
f 503 711 709
f 504 710 506
f 856 504 506
f 514 724 504
f 856 514 504
f 504 724 710
f 505 697 711
f 506 710 712
f 508 507 510
f 508 517 507
f 510 507 509
f 518 517 508
f 513 723 511
f 855 513 511
f 511 721 521
f 511 521 855
f 511 723 721
f 512 722 514
f 512 514 856
f 522 736 512
f 856 522 512
f 512 736 722
f 513 709 723
f 514 722 724
f 516 515 518
f 516 525 515
f 518 515 517
f 526 525 516
f 521 735 519
f 855 521 519
f 519 733 531
f 855 519 531
f 519 735 733
f 520 734 522
f 856 520 522
f 532 774 520
f 532 520 856
f 520 774 734
f 521 721 735
f 522 734 736
f 524 523 526
f 524 535 523
f 526 523 525
f 536 535 524
f 527 769 528
f 855 527 528
f 531 773 527
f 531 527 855
f 527 773 769
f 528 770 541
f 855 528 541
f 528 769 770
f 529 771 530
f 529 530 856
f 542 804 529
f 856 542 529
f 529 804 771
f 530 772 532
f 856 530 532
f 530 771 772
f 531 733 773
f 532 772 774
f 534 533 536
f 534 547 533
f 536 533 535
f 548 547 534
f 537 799 538
f 855 537 538
f 541 803 537
f 855 541 537
f 537 803 799
f 538 800 553
f 538 553 855
f 538 799 800
f 539 801 540
f 856 539 540
f 554 801 539
f 856 554 539
f 540 802 542
f 540 542 856
f 540 801 802
f 541 770 803
f 542 802 804
f 545 543 544
f 546 543 545
f 546 557 543
f 545 544 548
f 548 544 547
f 558 557 546
f 549 825 550
f 549 550 855
f 553 829 549
f 855 553 549
f 549 829 825
f 550 826 563
f 855 550 563
f 550 825 826
f 551 827 552
f 856 551 552
f 856 566 551
f 566 860 551
f 551 860 827
f 552 828 554
f 856 552 554
f 552 827 828
f 553 800 829
f 554 830 801
f 554 828 830
f 556 555 558
f 556 571 555
f 558 555 557
f 572 571 556
f 559 655 560
f 635 951 559
f 559 645 646
f 674 645 559
f 646 647 559
f 647 648 559
f 648 649 559
f 559 649 650
f 650 655 559
f 665 666 559
f 690 665 559
f 666 673 559
f 559 673 674
f 559 685 689
f 705 685 559
f 559 689 690
f 559 701 705
f 559 717 701
f 713 717 559
f 729 713 559
f 951 729 559
f 560 1066 636
f 560 655 656
f 560 656 657
f 657 658 560
f 658 659 560
f 560 659 660
f 660 679 560
f 671 672 560
f 680 671 560
f 672 695 560
f 560 679 680
f 560 696 688
f 688 708 560
f 560 695 696
f 560 708 704
f 560 704 720
f 720 716 560
f 716 732 560
f 560 732 952
f 952 1066 560
f 855 564 561
f 564 857 561
f 855 561 577
f 561 857 577
f 562 565 856
f 562 858 565
f 578 562 856
f 578 886 562
f 562 886 858
f 563 564 855
f 563 859 564
f 563 826 859
f 564 859 857
f 856 565 566
f 565 858 566
f 566 858 860
f 569 567 568
f 570 567 569
f 570 581 567
f 569 568 572
f 572 568 571
f 582 581 570
f 855 573 574
f 573 881 574
f 577 573 855
f 577 881 573
f 574 587 855
f 574 882 587
f 574 881 882
f 575 576 856
f 575 883 576
f 856 590 575
f 590 914 575
f 575 914 883
f 856 576 578
f 576 884 578
f 576 883 884
f 577 857 885
f 577 885 881
f 578 884 886
f 580 579 582
f 580 593 579
f 582 579 581
f 594 593 580
f 855 583 584
f 583 907 584
f 855 588 583
f 588 912 583
f 583 912 907
f 584 599 855
f 584 908 599
f 584 907 908
f 585 586 856
f 585 909 586
f 856 602 585
f 602 950 585
f 585 950 909
f 856 586 589
f 586 910 589
f 586 909 910
f 855 587 588
f 587 911 588
f 587 882 911
f 588 911 912
f 589 590 856
f 589 913 590
f 589 910 913
f 590 913 914
f 592 591 594
f 592 605 591
f 594 591 593
f 606 605 592
f 595 596 855
f 595 943 596
f 600 595 855
f 600 948 595
f 595 948 943
f 855 596 615
f 596 944 615
f 596 943 944
f 856 597 598
f 597 945 598
f 856 616 597
f 616 982 597
f 597 982 945
f 856 598 601
f 598 946 601
f 598 945 946
f 855 599 600
f 599 947 600
f 599 908 947
f 600 947 948
f 601 602 856
f 601 949 602
f 601 946 949
f 602 949 950
f 604 603 606
f 604 619 603
f 606 603 605
f 620 619 604
f 855 607 608
f 607 973 608
f 855 615 607
f 615 981 607
f 607 981 973
f 855 608 609
f 608 974 609
f 608 973 974
f 609 610 855
f 609 975 610
f 609 974 975
f 855 610 621
f 610 976 621
f 610 975 976
f 856 611 612
f 611 977 612
f 856 630 611
f 630 1000 611
f 611 1000 977
f 612 613 856
f 612 978 613
f 612 977 978
f 856 613 614
f 613 979 614
f 613 978 979
f 856 614 616
f 614 980 616
f 614 979 980
f 615 944 981
f 616 980 982
f 618 617 620
f 618 633 617
f 620 617 619
f 634 633 618
f 621 622 855
f 621 991 622
f 621 976 991
f 855 622 623
f 622 992 623
f 622 991 992
f 855 623 624
f 623 993 624
f 623 992 993
f 855 624 625
f 624 994 625
f 624 993 994
f 856 625 626
f 625 995 626
f 855 625 856
f 625 994 995
f 626 627 856
f 626 996 627
f 626 995 996
f 856 627 628
f 627 997 628
f 627 996 997
f 856 628 629
f 628 998 629
f 628 997 998
f 856 629 630
f 629 999 630
f 629 998 999
f 630 999 1000
f 631 634 632
f 631 632 639
f 633 634 631
f 639 632 640
f 636 758 635
f 635 855 636
f 635 746 745
f 635 745 792
f 635 753 746
f 635 754 753
f 755 754 635
f 756 755 635
f 757 756 635
f 635 758 757
f 635 784 783
f 635 783 818
f 635 791 784
f 792 791 635
f 635 817 813
f 635 813 848
f 818 817 635
f 847 843 635
f 843 877 635
f 635 848 847
f 635 877 873
f 635 873 1065
f 1065 951 635
f 636 752 751
f 636 751 768
f 636 797 752
f 763 758 636
f 636 764 763
f 636 765 764
f 766 765 636
f 767 766 636
f 636 768 767
f 636 790 789
f 636 789 798
f 636 823 790
f 798 797 636
f 636 816 824
f 636 853 816
f 824 823 636
f 846 854 636
f 880 846 636
f 636 854 853
f 636 855 856
f 636 876 880
f 1066 876 636
f 637 640 638
f 637 638 643
f 639 640 637
f 643 638 644
f 641 644 642
f 641 642 663
f 643 644 641
f 663 642 664
f 753 646 645
f 753 645 674
f 754 647 646
f 754 646 753
f 755 648 647
f 755 647 754
f 756 649 648
f 756 648 755
f 757 650 649
f 757 649 756
f 651 654 650
f 758 651 650
f 650 654 655
f 758 650 757
f 652 653 651
f 759 652 651
f 651 653 654
f 759 651 758
f 652 678 653
f 675 678 652
f 760 675 652
f 760 652 759
f 761 654 653
f 761 653 678
f 762 655 654
f 762 654 761
f 763 656 655
f 763 655 762
f 764 657 656
f 764 656 763
f 765 658 657
f 765 657 764
f 766 659 658
f 766 658 765
f 767 660 659
f 767 659 766
f 768 679 660
f 768 660 767
f 661 664 662
f 661 662 683
f 663 664 661
f 683 662 684
f 791 666 665
f 791 665 690
f 792 673 666
f 792 666 791
f 668 669 667
f 793 668 667
f 667 669 670
f 667 670 676
f 793 667 676
f 668 694 669
f 691 694 668
f 794 691 668
f 794 668 793
f 795 670 669
f 795 669 694
f 676 670 677
f 796 677 670
f 796 670 795
f 797 672 671
f 797 671 680
f 798 695 672
f 798 672 797
f 745 674 673
f 745 673 792
f 746 674 745
f 753 674 746
f 676 677 675
f 747 676 675
f 675 677 678
f 747 675 760
f 748 676 747
f 793 676 748
f 749 678 677
f 749 677 796
f 750 678 749
f 761 678 750
f 751 680 679
f 751 679 768
f 752 680 751
f 797 680 752
f 681 684 682
f 681 682 699
f 683 684 681
f 699 682 700
f 818 689 685
f 817 685 705
f 818 685 817
f 686 687 692
f 686 707 687
f 819 686 692
f 706 707 686
f 819 706 686
f 692 687 693
f 822 693 687
f 821 687 707
f 822 687 821
f 823 688 696
f 823 708 688
f 783 690 689
f 783 689 818
f 784 690 783
f 791 690 784
f 692 693 691
f 785 692 691
f 691 693 694
f 785 691 794
f 786 692 785
f 819 692 786
f 787 694 693
f 787 693 822
f 788 694 787
f 795 694 788
f 789 696 695
f 789 695 798
f 790 696 789
f 823 696 790
f 697 700 698
f 697 698 711
f 699 700 697
f 711 698 712
f 848 705 701
f 847 701 717
f 848 701 847
f 702 703 706
f 702 719 703
f 849 702 706
f 718 719 702
f 849 718 702
f 706 703 707
f 852 707 703
f 851 703 719
f 852 703 851
f 853 704 708
f 853 720 704
f 817 705 813
f 813 705 848
f 814 706 820
f 849 706 814
f 820 706 819
f 821 707 815
f 815 707 852
f 816 708 824
f 853 708 816
f 824 708 823
f 709 712 710
f 709 710 723
f 711 712 709
f 723 710 724
f 877 717 713
f 877 713 729
f 714 715 718
f 714 731 715
f 844 714 718
f 730 731 714
f 878 730 714
f 878 714 844
f 718 715 719
f 879 719 715
f 879 715 731
f 846 716 720
f 880 732 716
f 880 716 846
f 847 717 843
f 843 717 877
f 844 718 850
f 850 718 849
f 851 719 845
f 845 719 879
f 846 720 854
f 854 720 853
f 721 724 722
f 721 722 735
f 723 724 721
f 735 722 736
f 903 729 725
f 951 725 729
f 903 725 741
f 951 741 725
f 726 727 730
f 726 743 727
f 904 726 730
f 742 743 726
f 904 742 726
f 730 727 731
f 905 731 727
f 905 727 743
f 906 728 732
f 952 732 728
f 906 744 728
f 952 728 744
f 877 729 873
f 873 729 903
f 874 730 878
f 904 730 874
f 879 731 875
f 875 731 905
f 876 732 880
f 906 732 876
f 733 736 734
f 733 734 773
f 735 736 733
f 773 734 774
f 939 741 737
f 951 737 741
f 939 737 779
f 951 779 737
f 738 739 742
f 738 781 739
f 940 738 742
f 780 781 738
f 940 780 738
f 742 739 743
f 941 743 739
f 941 739 781
f 942 740 744
f 952 744 740
f 942 782 740
f 952 740 782
f 903 741 899
f 899 741 939
f 900 742 904
f 940 742 900
f 905 743 901
f 901 743 941
f 902 744 906
f 942 744 902
f 750 748 747
f 750 747 761
f 761 747 760
f 749 748 750
f 749 793 748
f 796 793 749
f 763 759 758
f 762 760 759
f 762 759 763
f 761 760 762
f 769 772 770
f 769 774 772
f 773 774 769
f 770 772 771
f 770 771 803
f 803 771 804
f 951 775 779
f 969 779 775
f 951 809 775
f 969 775 809
f 777 780 776
f 777 776 811
f 970 776 780
f 811 776 810
f 970 810 776
f 781 780 777
f 971 781 777
f 971 777 811
f 952 782 778
f 972 778 782
f 952 778 812
f 972 812 778
f 939 779 935
f 935 779 969
f 936 780 940
f 970 780 936
f 941 781 937
f 937 781 971
f 938 782 942
f 972 782 938
f 788 786 785
f 788 785 795
f 795 785 794
f 787 786 788
f 787 819 786
f 822 819 787
f 796 794 793
f 795 794 796
f 799 802 800
f 799 804 802
f 803 804 799
f 800 802 801
f 800 801 829
f 829 801 830
f 951 805 809
f 987 809 805
f 951 839 805
f 987 805 839
f 807 810 806
f 807 806 841
f 988 806 810
f 841 806 840
f 988 840 806
f 811 810 807
f 989 811 807
f 989 807 841
f 952 812 808
f 990 808 812
f 952 808 842
f 990 842 808
f 969 809 965
f 965 809 987
f 966 810 970
f 988 810 966
f 971 811 967
f 967 811 989
f 968 812 972
f 990 812 968
f 815 814 821
f 815 849 814
f 821 814 820
f 852 849 815
f 822 820 819
f 821 820 822
f 825 828 826
f 825 830 828
f 829 830 825
f 826 828 827
f 826 827 859
f 859 827 860
f 951 832 831
f 1006 831 832
f 831 839 951
f 1005 839 831
f 1005 831 1006
f 951 869 832
f 1006 832 869
f 836 834 833
f 1008 833 834
f 836 833 871
f 871 833 870
f 1007 870 833
f 1007 833 1008
f 835 834 836
f 835 840 834
f 1008 834 840
f 1010 835 836
f 841 840 835
f 1009 841 835
f 1009 835 1010
f 1010 836 871
f 952 838 837
f 1012 837 838
f 952 837 872
f 1011 872 837
f 1011 837 1012
f 842 838 952
f 1012 838 842
f 987 839 983
f 983 839 1005
f 984 840 988
f 1008 840 984
f 989 841 985
f 985 841 1009
f 986 842 990
f 1012 842 986
f 845 844 851
f 845 878 844
f 851 844 850
f 879 878 845
f 852 850 849
f 851 850 852
f 857 860 858
f 857 858 885
f 859 860 857
f 885 858 886
f 862 861 951
f 1018 861 862
f 951 861 869
f 1017 869 861
f 1017 861 1018
f 951 895 862
f 1018 862 895
f 866 864 863
f 1020 863 864
f 866 863 897
f 897 863 896
f 1019 896 863
f 1019 863 1020
f 865 864 866
f 865 870 864
f 1020 864 870
f 1022 865 866
f 871 870 865
f 1021 871 865
f 1021 865 1022
f 1022 866 897
f 868 867 952
f 1024 867 868
f 952 867 898
f 1023 898 867
f 1023 867 1024
f 952 872 868
f 1024 868 872
f 1006 869 1001
f 1001 869 1017
f 1002 870 1007
f 1020 870 1002
f 1010 871 1003
f 1003 871 1021
f 1004 872 1011
f 1024 872 1004
f 1065 873 903
f 875 874 879
f 875 904 874
f 879 874 878
f 905 904 875
f 906 876 1066
f 881 884 882
f 881 886 884
f 885 886 881
f 882 884 883
f 882 883 911
f 911 883 914
f 951 888 887
f 1034 887 888
f 887 895 951
f 1033 895 887
f 1033 887 1034
f 951 927 888
f 1034 888 927
f 892 890 889
f 1036 889 890
f 892 889 931
f 931 889 930
f 1035 930 889
f 1035 889 1036
f 891 890 892
f 891 896 890
f 1036 890 896
f 1038 891 892
f 897 896 891
f 1037 897 891
f 1037 891 1038
f 1038 892 931
f 952 894 893
f 1040 893 894
f 952 893 934
f 1039 934 893
f 1039 893 1040
f 898 894 952
f 1040 894 898
f 1018 895 1013
f 1013 895 1033
f 1014 896 1019
f 1036 896 1014
f 1022 897 1015
f 1015 897 1037
f 1016 898 1023
f 1040 898 1016
f 1065 903 899
f 1065 899 939
f 901 900 905
f 901 940 900
f 905 900 904
f 941 940 901
f 1066 902 906
f 942 902 1066
f 907 910 908
f 907 913 910
f 912 913 907
f 908 910 909
f 908 909 947
f 947 909 950
f 911 914 912
f 912 914 913
f 951 916 915
f 1054 915 916
f 915 928 951
f 1053 928 915
f 1053 915 1054
f 951 917 916
f 1055 916 917
f 1054 916 1055
f 951 953 917
f 1055 917 953
f 923 919 918
f 1057 918 919
f 923 918 959
f 959 918 958
f 1056 958 918
f 1056 918 1057
f 922 920 919
f 1058 919 920
f 922 919 923
f 1057 919 1058
f 921 920 922
f 921 929 920
f 1058 920 929
f 1060 921 922
f 932 929 921
f 1059 932 921
f 1059 921 1060
f 1061 922 923
f 1060 922 1061
f 1061 923 959
f 952 925 924
f 1063 924 925
f 952 924 964
f 1062 964 924
f 1062 924 1063
f 952 926 925
f 1064 925 926
f 1063 925 1064
f 933 926 952
f 1064 926 933
f 928 927 951
f 1026 927 928
f 1025 927 1026
f 1034 927 1025
f 1026 928 1053
f 932 930 929
f 1028 929 930
f 1027 929 1028
f 1058 929 1027
f 931 930 932
f 1028 930 1035
f 1030 931 932
f 1029 931 1030
f 1038 931 1029
f 1030 932 1059
f 934 933 952
f 1032 933 934
f 1031 933 1032
f 1064 933 1031
f 1032 934 1039
f 1065 939 935
f 1065 935 969
f 936 941 937
f 936 937 970
f 940 941 936
f 970 937 971
f 1066 938 942
f 1066 972 938
f 943 946 944
f 943 949 946
f 948 949 943
f 944 946 945
f 944 945 981
f 981 945 982
f 947 950 948
f 948 950 949
f 952 956 951
f 1065 952 951
f 954 953 951
f 955 954 951
f 956 955 951
f 961 956 952
f 952 962 961
f 963 962 952
f 964 963 952
f 1066 952 1065
f 1042 953 954
f 1041 953 1042
f 1055 953 1041
f 1043 954 955
f 1042 954 1043
f 1044 955 956
f 1043 955 1044
f 961 957 956
f 1045 956 957
f 1044 956 1045
f 960 958 957
f 1046 957 958
f 960 957 961
f 1045 957 1046
f 959 958 960
f 1046 958 1056
f 1048 959 960
f 1047 959 1048
f 1061 959 1047
f 1049 960 961
f 1048 960 1049
f 1050 961 962
f 1049 961 1050
f 1051 962 963
f 1050 962 1051
f 1052 963 964
f 1051 963 1052
f 1052 964 1062
f 1065 969 965
f 1065 965 987
f 966 971 967
f 966 967 988
f 970 971 966
f 988 967 989
f 1066 968 972
f 1066 990 968
f 973 980 974
f 973 982 980
f 981 982 973
f 974 979 975
f 974 980 979
f 975 978 976
f 975 979 978
f 976 978 977
f 976 977 991
f 991 977 1000
f 1065 987 983
f 1065 983 1005
f 984 989 985
f 984 985 1008
f 988 989 984
f 1008 985 1009
f 1066 986 990
f 1066 1012 986
f 991 1000 992
f 992 999 993
f 992 1000 999
f 993 998 994
f 993 999 998
f 994 997 995
f 994 998 997
f 995 997 996
f 1006 1001 1065
f 1001 1017 1065
f 1002 1010 1003
f 1002 1003 1020
f 1007 1010 1002
f 1020 1003 1021
f 1004 1011 1066
f 1024 1004 1066
f 1065 1005 1006
f 1008 1009 1007
f 1007 1009 1010
f 1066 1011 1012
f 1065 1018 1013
f 1065 1013 1033
f 1014 1022 1015
f 1014 1015 1036
f 1019 1022 1014
f 1036 1015 1037
f 1066 1016 1023
f 1066 1040 1016
f 1017 1018 1065
f 1020 1021 1019
f 1019 1021 1022
f 1023 1024 1066
f 1025 1026 1065
f 1065 1034 1025
f 1065 1026 1053
f 1028 1029 1027
f 1027 1029 1030
f 1027 1030 1058
f 1028 1038 1029
f 1035 1038 1028
f 1058 1030 1059
f 1031 1032 1066
f 1066 1064 1031
f 1066 1032 1039
f 1065 1033 1034
f 1036 1037 1035
f 1035 1037 1038
f 1066 1039 1040
f 1041 1042 1065
f 1065 1055 1041
f 1042 1043 1065
f 1043 1044 1065
f 1045 1048 1044
f 1044 1048 1049
f 1044 1049 1065
f 1046 1047 1045
f 1045 1047 1048
f 1046 1061 1047
f 1056 1061 1046
f 1066 1049 1050
f 1065 1049 1066
f 1050 1051 1066
f 1051 1052 1066
f 1066 1052 1062
f 1065 1053 1054
f 1065 1054 1055
f 1057 1060 1056
f 1056 1060 1061
f 1058 1059 1057
f 1057 1059 1060
f 1066 1062 1063
f 1066 1063 1064
