# CAD visual only; metres; body-local coordinates
v -0.00826193425 -0.00750255086 -0.158000002
v -0.00826193425 -0.00750255086 -0.155
v -0.0082733402 -0.00724100568 -0.158000002
v -0.0082733402 -0.00724100568 -0.155
v -0.00828020665 -0.00697929838 -0.158000002
v -0.00828020665 -0.00697929838 -0.155
v -0.0082824764 -0.00671751478 -0.158000002
v -0.0082824764 -0.00671751478 -0.155
v -0.00828020665 -0.00645573118 -0.158000002
v -0.00828020665 -0.00645573118 -0.155
v -0.0082733402 -0.00619402387 -0.158000002
v -0.0082733402 -0.00619402387 -0.155
v -0.00826193425 -0.00593247869 -0.158000002
v -0.00826193425 -0.00593247869 -0.155
v -0.00800690267 -0.00957965352 -0.158000002
v -0.00800690267 -0.00957965352 -0.155
v -0.00805460546 -0.00932223775 -0.158000002
v -0.00805460546 -0.00932223775 -0.155
v -0.0080978069 -0.00906403043 -0.158000002
v -0.0080978069 -0.00906403043 -0.155
v -0.00813650701 -0.00880510785 -0.158000002
v -0.00813650701 -0.00880510785 -0.155
v -0.00817068669 -0.00854555585 -0.158000002
v -0.00817068669 -0.00854555585 -0.155
v -0.00820030782 -0.00828544118 -0.158000002
v -0.00820030782 -0.00828544118 -0.155
v -0.00822540853 -0.00802484968 -0.158000002
v -0.00822540853 -0.00802484968 -0.155
v -0.00824595067 -0.00776385763 -0.158000002
v -0.00824595067 -0.00776385763 -0.155
v -0.00824595067 -0.00567117193 -0.158000002
v -0.00824595067 -0.00567117193 -0.155
v -0.00822540853 -0.00541017988 -0.158000002
v -0.00822540853 -0.00541017988 -0.155
v -0.00820030782 -0.00514958837 -0.158000002
v -0.00820030782 -0.00514958837 -0.155
v -0.00817068669 -0.0048894737 -0.158000002
v -0.00817068669 -0.0048894737 -0.155
v -0.00813650701 -0.0046299217 -0.158000002
v -0.00813650701 -0.0046299217 -0.155
v -0.0080978069 -0.00437099912 -0.158000002
v -0.0080978069 -0.00437099912 -0.155
v -0.00805460546 -0.0041127918 -0.158000002
v -0.00805460546 -0.0041127918 -0.155
v -0.00800690267 -0.00385537603 -0.158000002
v -0.00800690267 -0.00385537603 -0.155
v -0.00777136418 -0.0105997989 -0.158000002
v -0.00777136418 -0.0105997989 -0.155
v -0.00783691976 -0.0103463409 -0.158000002
v -0.00783691976 -0.0103463409 -0.155
v -0.00789803121 -0.0100917766 -0.158000002
v -0.00789803121 -0.0100917766 -0.155
v -0.00795469853 -0.00983619192 -0.158000002
v -0.00795469853 -0.00983619192 -0.155
v -0.00795469853 -0.00359883764 -0.158000002
v -0.00795469853 -0.00359883764 -0.155
v -0.00789803121 -0.00334325292 -0.158000002
v -0.00789803121 -0.00334325292 -0.155
v -0.00783691976 -0.00308868863 -0.158000002
v -0.00783691976 -0.00308868863 -0.155
v -0.00777136418 -0.00283523061 -0.158000002
v -0.00777136418 -0.00283523061 -0.155
v -0.00754833791 -0.0113527725 -0.158000002
v -0.00754833791 -0.0113527725 -0.155
v -0.00762705419 -0.011103091 -0.158000002
v -0.00762705419 -0.011103091 -0.155
v -0.00770140264 -0.0108520744 -0.158000002
v -0.00770140264 -0.0108520744 -0.155
v -0.00770140264 -0.00258295514 -0.158000002
v -0.00770140264 -0.00258295514 -0.155
v -0.00762705419 -0.00233193853 -0.158000002
v -0.00762705419 -0.00233193853 -0.155
v -0.00754833791 -0.00208225706 -0.158000002
v -0.00754833791 -0.00208225706 -0.155
v -0.00728619191 -0.0120930336 -0.158000002
v -0.00728619191 -0.0120930336 -0.155
v -0.00737787816 -0.0118478153 -0.158000002
v -0.00737787816 -0.0118478153 -0.155
v -0.00746527287 -0.011601033 -0.158000002
v -0.00746527287 -0.011601033 -0.155
v -0.00746527287 -0.00183399656 -0.158000002
v -0.00746527287 -0.00183399656 -0.155
v -0.00737787816 -0.00158721425 -0.158000002
v -0.00737787816 -0.00158721425 -0.155
v -0.00728619191 -0.00134199598 -0.158000002
v -0.00728619191 -0.00134199598 -0.155
v -0.00709005925 -0.0125784824 -0.158000002
v -0.00709005925 -0.0125784824 -0.155
v -0.00719025228 -0.0123366115 -0.158000002
v -0.00719025228 -0.0123366115 -0.155
v -0.00719025228 -0.00109841802 -0.158000002
v -0.00719025228 -0.00109841802 -0.155
v -0.00709005925 -0.00085654714 -0.158000002
v -0.00709005925 -0.00085654714 -0.155
v -0.00676439855 -0.0132930801 -0.158000002
v -0.00676439855 -0.0132930801 -0.155
v -0.00687710378 -0.0130567882 -0.158000002
v -0.00687710378 -0.0130567882 -0.155
v -0.00698567006 -0.0128185604 -0.158000002
v -0.00698567006 -0.0128185604 -0.155
v -0.00698567006 -0.000616469167 -0.158000002
v -0.00698567006 -0.000616469167 -0.155
v -0.00687710378 -0.000378241323 -0.158000002
v -0.00687710378 -0.000378241323 -0.155
v -0.00676439855 -0.000141949438 -0.158000002
v -0.00676439855 -0.000141949438 -0.155
v -0.00652670476 -0.013759589 -0.158000002
v -0.00652670476 -0.013759589 -0.155
v -0.00664759252 -0.0135273693 -0.158000002
v -0.00664759252 -0.0135273693 -0.155
v -0.00664759252 9.23397314e-05 -0.158000002
v -0.00664759252 9.23397314e-05 -0.155
v -0.00652670476 0.000324559427 -0.158000002
v -0.00652670476 0.000324559427 -0.155
v -0.0062728748 -0.0142175148 -0.158000002
v -0.0062728748 -0.0142175148 -0.155
v -0.00640177342 -0.0139896629 -0.158000002
v -0.00640177342 -0.0139896629 -0.155
v -0.00640177342 0.000554633356 -0.158000002
v -0.00640177342 0.000554633356 -0.155
v -0.0062728748 0.000782485224 -0.158000002
v -0.0062728748 0.000782485224 -0.155
v -0.00600320432 -0.0146663044 -0.158000002
v -0.00600320432 -0.0146663044 -0.155
v -0.00613998982 -0.0144430874 -0.158000002
v -0.00613998982 -0.0144430874 -0.155
v -0.00613998982 0.00100805781 -0.158000002
v -0.00613998982 0.00100805781 -0.155
v -0.00586254689 -0.0148870991 -0.158000002
v -0.00586254689 -0.0148870991 -0.155
v -0.00586254689 0.0014520695 -0.158000002
v -0.00586254689 0.0014520695 -0.155
v -0.00556976888 -0.0153211639 -0.158000002
v -0.00556976888 -0.0153211639 -0.155
v -0.00571804616 -0.0151054046 -0.158000002
v -0.00571804616 -0.0151054046 -0.155
v -0.00571804616 0.00167037509 -0.158000002
v -0.00571804616 0.00167037509 -0.155
v -0.00556976888 0.00188613436 -0.158000002
v -0.00556976888 0.00188613436 -0.155
v -0.00526201818 -0.0157447384 -0.158000002
v -0.00526201818 -0.0157447384 -0.155
v -0.00541774365 0.0020992615 -0.158000002
v -0.00541774365 0.0020992615 -0.155
v -0.00526201818 0.00230970881 -0.158000002
v -0.00526201818 0.00230970881 -0.155
v -0.00510264966 -0.0159524391 -0.158000002
v -0.00510264966 -0.0159524391 -0.155
v -0.00510264966 0.00251740954 -0.158000002
v -0.00510264966 0.00251740954 -0.155
v -0.00477315518 -0.0163593242 -0.158000002
v -0.00477315518 -0.0163593242 -0.155
v -0.00493967626 -0.0161573169 -0.158000002
v -0.00493967626 -0.0161573169 -0.155
v -0.00493967626 0.00272228739 -0.158000002
v -0.00493967626 0.00272228739 -0.155
v -0.00477315518 0.00292430422 -0.158000002
v -0.00477315518 0.00292430422 -0.155
v -0.00460312459 -0.0165584038 -0.158000002
v -0.00460312459 -0.0165584038 -0.155
v -0.00460312459 0.0031233742 -0.158000002
v -0.00460312459 0.0031233742 -0.155
v -0.00425279233 -0.0169474933 -0.158000002
v -0.00425279233 -0.0169474933 -0.155
v -0.00442966077 0.0033194401 -0.158000002
v -0.00442966077 0.0033194401 -0.155
v -0.00425279233 0.00351246379 -0.158000002
v -0.00425279233 0.00351246379 -0.155
v -0.00407258603 -0.017137389 -0.158000002
v -0.00407258603 -0.017137389 -0.155
v -0.00407258603 0.00370235942 -0.158000002
v -0.00407258603 0.00370235942 -0.155
v -0.00388908956 -0.0173241184 -0.158000002
v -0.00388908956 -0.0173241184 -0.155
v -0.00388908956 0.00388908885 -0.158000002
v -0.00388908956 0.00388908885 -0.155
v -0.00351246449 -0.0176878212 -0.158000002
v -0.00351246449 -0.0176878212 -0.155
v -0.00370236012 0.00407258532 -0.158000002
v -0.00370236012 0.00407258532 -0.155
v -0.00351246449 0.00425279162 -0.158000002
v -0.00351246449 0.00425279162 -0.155
v -0.00331944081 -0.0178646896 -0.158000002
v -0.00331944081 -0.0178646896 -0.155
v -0.00331944081 0.00442966006 -0.158000002
v -0.00331944081 0.00442966006 -0.155
v -0.00312337491 -0.0180381534 -0.158000002
v -0.00312337491 -0.0180381534 -0.155
v -0.00312337491 0.00460313342 -0.158000002
v -0.00312337491 0.00460313342 -0.155
v -0.0029242954 -0.018208184 -0.158000002
v -0.0029242954 -0.018208184 -0.155
v -0.0029242954 0.00477315447 -0.158000002
v -0.0029242954 0.00477315447 -0.155
v -0.00251741025 -0.0185376785 -0.158000002
v -0.00251741025 -0.0185376785 -0.155
v -0.0027222881 -0.0183747051 -0.158000002
v -0.0027222881 -0.0183747051 -0.155
v -0.0027222881 0.00493967555 -0.158000002
v -0.0027222881 0.00493967555 -0.155
v -0.00251741025 0.00510264895 -0.158000002
v -0.00251741025 0.00510264895 -0.155
v -0.00230970952 -0.018697047 -0.158000002
v -0.00230970952 -0.018697047 -0.155
v -0.00230970952 0.00526201747 -0.158000002
v -0.00230970952 0.00526201747 -0.155
v -0.00209926221 -0.0188527725 -0.158000002
v -0.00209926221 -0.0188527725 -0.155
v -0.00209926221 0.00541774294 -0.158000002
v -0.00209926221 0.00541774294 -0.155
v -0.00188613507 -0.0190047977 -0.158000002
v -0.00188613507 -0.0190047977 -0.155
v -0.00188613507 0.00556976817 -0.158000002
v -0.00188613507 0.00556976817 -0.155
v -0.0016703758 -0.019153075 -0.158000002
v -0.0016703758 -0.019153075 -0.155
v -0.0016703758 0.00571804545 -0.158000002
v -0.0016703758 0.00571804545 -0.155
v -0.00145207021 -0.0192975757 -0.158000002
v -0.00145207021 -0.0192975757 -0.155
v -0.00145207021 0.00586254618 -0.158000002
v -0.00145207021 0.00586254618 -0.155
v -0.00100805852 -0.0195750187 -0.158000002
v -0.00100805852 -0.0195750187 -0.155
v -0.00123127553 -0.0194382332 -0.158000002
v -0.00123127553 -0.0194382332 -0.155
v -0.00123127553 0.00600320361 -0.158000002
v -0.00123127553 0.00600320361 -0.155
v -0.000782485933 -0.0197079036 -0.158000002
v -0.000782485933 -0.0197079036 -0.155
v -0.000782485933 0.00627286456 -0.158000002
v -0.000782485933 0.00627286456 -0.155
v -0.000554634066 -0.0198368023 -0.158000002
v -0.000554634066 -0.0198368023 -0.155
v -0.000554634066 0.00640178225 -0.158000002
v -0.000554634066 0.00640178225 -0.155
v -0.000324560137 -0.0199617336 -0.158000002
v -0.000324560137 -0.0199617336 -0.155
v -0.000324560137 0.00652670405 -0.158000002
v -0.000324560137 0.00652670405 -0.155
v -9.23404409e-05 -0.0200826214 -0.158000002
v -9.23404409e-05 -0.0200826214 -0.155
v -9.23404409e-05 0.00664758227 -0.158000002
v -9.23404409e-05 0.00664758227 -0.155
v 0.000141948728 -0.0201994274 -0.158000002
v 0.000141948728 -0.0201994274 -0.155
v 0.000141948728 0.00676439784 -0.158000002
v 0.000141948728 0.00676439784 -0.155
v 0.000378240614 -0.0203121326 -0.158000002
v 0.000378240614 -0.0203121326 -0.155
v 0.000378240614 0.00687710307 -0.158000002
v 0.000378240614 0.00687710307 -0.155
v 0.000616468458 -0.0204206989 -0.158000002
v 0.000616468458 -0.0204206989 -0.155
v 0.000616468458 0.00698566935 -0.158000002
v 0.000616468458 0.00698566935 -0.155
v 0.00085654643 -0.0205250881 -0.158000002
v 0.00085654643 -0.0205250881 -0.155
v 0.00085654643 0.00709005854 -0.158000002
v 0.00085654643 0.00709005854 -0.155
v 0.00109841731 -0.0206252811 -0.158000002
v 0.00109841731 -0.0206252811 -0.155
v 0.00109841731 0.00719024203 -0.158000002
v 0.00109841731 0.00719024203 -0.155
v 0.00134199527 -0.0207212208 -0.158000002
v 0.00134199527 -0.0207212208 -0.155
v 0.00134199527 0.0072861912 -0.158000002
v 0.00134199527 0.0072861912 -0.155
v 0.00158721354 -0.020812907 -0.158000002
v 0.00158721354 -0.020812907 -0.155
v 0.00158721354 0.00737787745 -0.158000002
v 0.00158721354 0.00737787745 -0.155
v 0.00183399585 -0.0209003017 -0.158000002
v 0.00183399585 -0.0209003017 -0.155
v 0.00183399585 0.00746526263 -0.158000002
v 0.00183399585 0.00746526263 -0.155
v 0.00208225635 -0.0209833668 -0.158000002
v 0.00208225635 -0.0209833668 -0.155
v 0.00208225635 0.0075483372 -0.158000002
v 0.00208225635 0.0075483372 -0.155
v 0.00233193782 -0.021062083 -0.158000002
v 0.00233193782 -0.021062083 -0.155
v 0.00233193782 0.00762705348 -0.158000002
v 0.00233193782 0.00762705348 -0.155
v 0.00258295444 -0.0211364315 -0.158000002
v 0.00258295444 -0.0211364315 -0.155
v 0.00258295444 0.00770141146 -0.158000002
v 0.00258295444 0.00770141146 -0.155
v 0.0028352299 -0.021206393 -0.158000002
v 0.0028352299 -0.021206393 -0.155
v 0.0028352299 0.00777137301 -0.158000002
v 0.0028352299 0.00777137301 -0.155
v 0.00308868793 -0.0212719486 -0.158000002
v 0.00308868793 -0.0212719486 -0.155
v 0.00308868793 0.00783691905 -0.158000002
v 0.00308868793 0.00783691905 -0.155
v 0.00334325221 -0.02133306 -0.158000002
v 0.00334325221 -0.02133306 -0.155
v 0.00334325221 0.00789804003 -0.158000002
v 0.00334325221 0.00789804003 -0.155
v 0.00359883693 -0.0213897274 -0.158000002
v 0.00359883693 -0.0213897274 -0.155
v 0.00359883693 0.00795469782 -0.158000002
v 0.00359883693 0.00795469782 -0.155
v 0.00385537532 -0.0214419315 -0.158000002
v 0.00385537532 -0.0214419315 -0.155
v 0.00385537532 0.00800689242 -0.158000002
v 0.00385537532 0.00800689242 -0.155
v 0.00411279109 -0.0214896343 -0.158000002
v 0.00411279109 -0.0214896343 -0.155
v 0.00411279109 0.00805460475 -0.158000002
v 0.00411279109 0.00805460475 -0.155
v 0.00437099841 -0.0215328357 -0.158000002
v 0.00437099841 -0.0215328357 -0.155
v 0.00437099841 0.00809780619 -0.158000002
v 0.00437099841 0.00809780619 -0.155
v 0.00462992099 -0.0215715358 -0.158000002
v 0.00462992099 -0.0215715358 -0.155
v 0.00462992099 0.0081365063 -0.158000002
v 0.00462992099 0.0081365063 -0.155
v 0.00488947299 -0.0216057155 -0.158000002
v 0.00488947299 -0.0216057155 -0.155
v 0.00488947299 0.00817067645 -0.158000002
v 0.00488947299 0.00817067645 -0.155
v 0.00514958766 -0.0216353367 -0.158000002
v 0.00514958766 -0.0216353367 -0.155
v 0.00514958766 0.00820031664 -0.158000002
v 0.00514958766 0.00820031664 -0.155
v 0.00541017917 -0.0216604374 -0.158000002
v 0.00541017917 -0.0216604374 -0.155
v 0.00541017917 0.00822540782 -0.158000002
v 0.00541017917 0.00822540782 -0.155
v 0.00567117122 -0.0216809795 -0.158000002
v 0.00567117122 -0.0216809795 -0.155
v 0.00567117122 0.00824594996 -0.158000002
v 0.00567117122 0.00824594996 -0.155
v 0.00593247798 -0.0216969631 -0.158000002
v 0.00593247798 -0.0216969631 -0.155
v 0.00593247798 0.00826192401 -0.158000002
v 0.00593247798 0.00826192401 -0.155
v 0.00619402316 -0.021708369 -0.158000002
v 0.00619402316 -0.021708369 -0.155
v 0.00619402316 0.00827334902 -0.158000002
v 0.00619402316 0.00827334902 -0.155
v 0.00645573047 -0.0217152355 -0.158000002
v 0.00645573047 -0.0217152355 -0.155
v 0.00645573047 0.00828019641 -0.158000002
v 0.00645573047 0.00828019641 -0.155
v 0.00671751407 -0.0217175052 -0.158000002
v 0.00671751407 -0.0217175052 -0.155
v 0.00671751407 0.00828248522 -0.158000002
v 0.00671751407 0.00828248522 -0.155
v 0.00697929767 -0.0217152355 -0.158000002
v 0.00697929767 -0.0217152355 -0.155
v 0.00697929767 0.00828019641 -0.158000002
v 0.00697929767 0.00828019641 -0.155
v 0.00724100497 -0.021708369 -0.158000002
v 0.00724100497 -0.021708369 -0.155
v 0.00724100497 0.00827334902 -0.158000002
v 0.00724100497 0.00827334902 -0.155
v 0.00750255015 -0.0216969631 -0.158000002
v 0.00750255015 -0.0216969631 -0.155
v 0.00750255015 0.00826192401 -0.158000002
v 0.00750255015 0.00826192401 -0.155
v 0.00776385692 -0.0216809795 -0.158000002
v 0.00776385692 -0.0216809795 -0.155
v 0.00776385692 0.00824594996 -0.158000002
v 0.00776385692 0.00824594996 -0.155
v 0.00802484897 -0.0216604374 -0.158000002
v 0.00802484897 -0.0216604374 -0.155
v 0.00802484897 0.00822540782 -0.158000002
v 0.00802484897 0.00822540782 -0.155
v 0.00828544047 -0.0216353367 -0.158000002
v 0.00828544047 -0.0216353367 -0.155
v 0.00828544047 0.00820031664 -0.158000002
v 0.00828544047 0.00820031664 -0.155
v 0.00854555514 -0.0216057155 -0.158000002
v 0.00854555514 -0.0216057155 -0.155
v 0.00854555514 0.00817067645 -0.158000002
v 0.00854555514 0.00817067645 -0.155
v 0.00880510715 -0.0215715358 -0.158000002
v 0.00880510715 -0.0215715358 -0.155
v 0.00880510715 0.0081365063 -0.158000002
v 0.00880510715 0.0081365063 -0.155
v 0.00906402972 -0.0215328357 -0.158000002
v 0.00906402972 -0.0215328357 -0.155
v 0.00906402972 0.00809780619 -0.158000002
v 0.00906402972 0.00809780619 -0.155
v 0.00932223704 -0.0214896343 -0.158000002
v 0.00932223704 -0.0214896343 -0.155
v 0.00932223704 0.00805460475 -0.158000002
v 0.00932223704 0.00805460475 -0.155
v 0.00957965281 -0.0214419315 -0.158000002
v 0.00957965281 -0.0214419315 -0.155
v 0.00957965281 0.00800689242 -0.158000002
v 0.00957965281 0.00800689242 -0.155
v 0.00983619121 -0.0213897274 -0.158000002
v 0.00983619121 -0.0213897274 -0.155
v 0.00983619121 0.00795469782 -0.158000002
v 0.00983619121 0.00795469782 -0.155
v 0.0100917759 -0.02133306 -0.158000002
v 0.0100917759 -0.02133306 -0.155
v 0.0100917759 0.00789804003 -0.158000002
v 0.0100917759 0.00789804003 -0.155
v 0.0103463402 -0.0212719486 -0.158000002
v 0.0103463402 -0.0212719486 -0.155
v 0.0103463402 0.00783691905 -0.158000002
v 0.0103463402 0.00783691905 -0.155
v 0.0105997982 -0.021206393 -0.158000002
v 0.0105997982 -0.021206393 -0.155
v 0.0105997982 0.00777137301 -0.158000002
v 0.0105997982 0.00777137301 -0.155
v 0.0108520737 -0.0211364315 -0.158000002
v 0.0108520737 -0.0211364315 -0.155
v 0.0108520737 0.00770141146 -0.158000002
v 0.0108520737 0.00770141146 -0.155
v 0.0111030903 -0.021062083 -0.158000002
v 0.0111030903 -0.021062083 -0.155
v 0.0111030903 0.00762705348 -0.158000002
v 0.0111030903 0.00762705348 -0.155
v 0.0113527718 -0.0209833668 -0.158000002
v 0.0113527718 -0.0209833668 -0.155
v 0.0113527718 0.0075483372 -0.158000002
v 0.0113527718 0.0075483372 -0.155
v 0.0116010323 -0.0209003017 -0.158000002
v 0.0116010323 -0.0209003017 -0.155
v 0.0116010323 0.00746526263 -0.158000002
v 0.0116010323 0.00746526263 -0.155
v 0.0118478146 -0.020812907 -0.158000002
v 0.0118478146 -0.020812907 -0.155
v 0.0118478146 0.00737787745 -0.158000002
v 0.0118478146 0.00737787745 -0.155
v 0.0120930329 -0.0207212208 -0.158000002
v 0.0120930329 -0.0207212208 -0.155
v 0.0120930329 0.0072861912 -0.158000002
v 0.0120930329 0.0072861912 -0.155
v 0.0123366108 -0.0206252811 -0.158000002
v 0.0123366108 -0.0206252811 -0.155
v 0.0123366108 0.00719024203 -0.158000002
v 0.0123366108 0.00719024203 -0.155
v 0.0125784817 -0.0205250881 -0.158000002
v 0.0125784817 -0.0205250881 -0.155
v 0.0125784817 0.00709005854 -0.158000002
v 0.0125784817 0.00709005854 -0.155
v 0.0128185597 -0.0204206989 -0.158000002
v 0.0128185597 -0.0204206989 -0.155
v 0.0128185597 0.00698566935 -0.158000002
v 0.0128185597 0.00698566935 -0.155
v 0.0130567875 -0.0203121326 -0.158000002
v 0.0130567875 -0.0203121326 -0.155
v 0.0130567875 0.00687710307 -0.158000002
v 0.0130567875 0.00687710307 -0.155
v 0.0132930794 -0.0201994274 -0.158000002
v 0.0132930794 -0.0201994274 -0.155
v 0.0132930794 0.00676439784 -0.158000002
v 0.0132930794 0.00676439784 -0.155
v 0.0135273686 -0.0200826214 -0.158000002
v 0.0135273686 -0.0200826214 -0.155
v 0.0135273686 0.00664758227 -0.158000002
v 0.0135273686 0.00664758227 -0.155
v 0.0139896622 -0.0198368023 -0.158000002
v 0.0139896622 -0.0198368023 -0.155
v 0.0139896622 0.00640178225 -0.158000002
v 0.0139896622 0.00640178225 -0.155
v 0.0137595883 0.00652670405 -0.158000002
v 0.0137595883 0.00652670405 -0.155
v 0.0142175141 -0.0197079036 -0.158000002
v 0.0142175141 -0.0197079036 -0.155
v 0.0142175141 0.00627286456 -0.158000002
v 0.0142175141 0.00627286456 -0.155
v 0.0144430867 -0.0195750187 -0.158000002
v 0.0144430867 -0.0195750187 -0.155
v 0.0144430867 0.00613999865 -0.158000002
v 0.0144430867 0.00613999865 -0.155
v 0.0146663037 -0.0194382332 -0.158000002
v 0.0146663037 -0.0194382332 -0.155
v 0.0146663037 0.00600320361 -0.158000002
v 0.0146663037 0.00600320361 -0.155
v 0.0148870983 -0.0192975757 -0.158000002
v 0.0148870983 -0.0192975757 -0.155
v 0.0148870983 0.00586254618 -0.158000002
v 0.0148870983 0.00586254618 -0.155
v 0.0151054039 -0.019153075 -0.158000002
v 0.0151054039 -0.019153075 -0.155
v 0.0151054039 0.00571804545 -0.158000002
v 0.0151054039 0.00571804545 -0.155
v 0.0153211632 -0.0190047977 -0.158000002
v 0.0153211632 -0.0190047977 -0.155
v 0.0153211632 0.00556976817 -0.158000002
v 0.0153211632 0.00556976817 -0.155
v 0.0155342903 -0.0188527725 -0.158000002
v 0.0155342903 -0.0188527725 -0.155
v 0.0157447377 -0.018697047 -0.158000002
v 0.0157447377 -0.018697047 -0.155
v 0.0155342903 0.00541774294 -0.158000002
v 0.0155342903 0.00541774294 -0.155
v 0.0159524384 -0.0185376785 -0.158000002
v 0.0159524384 -0.0185376785 -0.155
v 0.0159524384 0.00510264895 -0.158000002
v 0.0159524384 0.00510264895 -0.155
v 0.0161573162 -0.0183747051 -0.158000002
v 0.0161573162 -0.0183747051 -0.155
v 0.0161573162 0.00493967555 -0.158000002
v 0.0161573162 0.00493967555 -0.155
v 0.0163593331 -0.018208184 -0.158000002
v 0.0163593331 -0.018208184 -0.155
v 0.0163593331 0.00477315447 -0.158000002
v 0.0163593331 0.00477315447 -0.155
v 0.016558403 -0.0180381534 -0.158000002
v 0.016558403 -0.0180381534 -0.155
v 0.016558403 0.00460313342 -0.158000002
v 0.016558403 0.00460313342 -0.155
v 0.0167544689 -0.0178646896 -0.158000002
v 0.0167544689 -0.0178646896 -0.155
v 0.0169474926 -0.0176878212 -0.158000002
v 0.0169474926 -0.0176878212 -0.155
v 0.0167544689 0.00442966006 -0.158000002
v 0.0167544689 0.00442966006 -0.155
v 0.0171373883 -0.0175076149 -0.158000002
v 0.0171373883 -0.0175076149 -0.155
v 0.0171373883 0.00407258532 -0.158000002
v 0.0171373883 0.00407258532 -0.155
v 0.0173241177 -0.0173241184 -0.158000002
v 0.0173241177 -0.0173241184 -0.155
v 0.0173241177 0.00388908885 -0.158000002
v 0.0173241177 0.00388908885 -0.155
v 0.0175076142 -0.017137389 -0.158000002
v 0.0175076142 -0.017137389 -0.155
v 0.0176878205 -0.0169474933 -0.158000002
v 0.0176878205 -0.0169474933 -0.155
v 0.0175076142 0.00370235942 -0.158000002
v 0.0175076142 0.00370235942 -0.155
v 0.0178646889 -0.0167544697 -0.158000002
v 0.0178646889 -0.0167544697 -0.155
v 0.0178646889 0.0033194401 -0.158000002
v 0.0178646889 0.0033194401 -0.155
v 0.0180381623 -0.0165584038 -0.158000002
v 0.0180381623 -0.0165584038 -0.155
v 0.0182081833 -0.0163593242 -0.158000002
v 0.0182081833 -0.0163593242 -0.155
v 0.0182081833 0.00292430422 -0.158000002
v 0.0182081833 0.00292430422 -0.155
v 0.0180381623 0.0031233742 -0.158000002
v 0.0180381623 0.0031233742 -0.155
v 0.0183747044 -0.0161573169 -0.158000002
v 0.0183747044 -0.0161573169 -0.155
v 0.0183747044 0.00272228739 -0.158000002
v 0.0183747044 0.00272228739 -0.155
v 0.0185376778 -0.0159524391 -0.158000002
v 0.0185376778 -0.0159524391 -0.155
v 0.0186970463 -0.0157447384 -0.158000002
v 0.0186970463 -0.0157447384 -0.155
v 0.0186970463 0.00230970881 -0.158000002
v 0.0186970463 0.00230970881 -0.155
v 0.0185376778 0.00251740954 -0.158000002
v 0.0185376778 0.00251740954 -0.155
v 0.0188527718 -0.0155342911 -0.158000002
v 0.0188527718 -0.0155342911 -0.155
v 0.0188527718 0.0020992615 -0.158000002
v 0.0188527718 0.0020992615 -0.155
v 0.019004797 -0.0153211639 -0.158000002
v 0.019004797 -0.0153211639 -0.155
v 0.0191530743 -0.0151054046 -0.158000002
v 0.0191530743 -0.0151054046 -0.155
v 0.0191530743 0.00167037509 -0.158000002
v 0.0191530743 0.00167037509 -0.155
v 0.019004797 0.00188613436 -0.158000002
v 0.019004797 0.00188613436 -0.155
v 0.019297575 -0.0148870991 -0.158000002
v 0.019297575 -0.0148870991 -0.155
v 0.0194382325 -0.0146663044 -0.158000002
v 0.0194382325 -0.0146663044 -0.155
v 0.0194382325 0.00123127482 -0.158000002
v 0.0194382325 0.00123127482 -0.155
v 0.019297575 0.0014520695 -0.158000002
v 0.019297575 0.0014520695 -0.155
v 0.0195750275 -0.0144430874 -0.158000002
v 0.0195750275 -0.0144430874 -0.155
v 0.0197078934 -0.0142175148 -0.158000002
v 0.0197078934 -0.0142175148 -0.155
v 0.0197078934 0.000782485224 -0.158000002
v 0.0197078934 0.000782485224 -0.155
v 0.0195750275 0.00100805781 -0.158000002
v 0.0195750275 0.00100805781 -0.155
v 0.0199617329 -0.013759589 -0.158000002
v 0.0199617329 -0.013759589 -0.155
v 0.0199617329 0.000324559427 -0.158000002
v 0.0199617329 0.000324559427 -0.155
v 0.0198368111 0.000554633356 -0.158000002
v 0.0198368111 0.000554633356 -0.155
v 0.0200826111 -0.0135273693 -0.158000002
v 0.0200826111 -0.0135273693 -0.155
v 0.0201994267 -0.0132930801 -0.158000002
v 0.0201994267 -0.0132930801 -0.155
v 0.0201994267 -0.000141949438 -0.158000002
v 0.0201994267 -0.000141949438 -0.155
v 0.0200826111 9.23397314e-05 -0.158000002
v 0.0200826111 9.23397314e-05 -0.155
v 0.0203121319 -0.0130567882 -0.158000002
v 0.0203121319 -0.0130567882 -0.155
v 0.0204206982 -0.0128185604 -0.158000002
v 0.0204206982 -0.0128185604 -0.155
v 0.0204206982 -0.000616469167 -0.158000002
v 0.0204206982 -0.000616469167 -0.155
v 0.0203121319 -0.000378241323 -0.158000002
v 0.0203121319 -0.000378241323 -0.155
v 0.0205250874 -0.0125784824 -0.158000002
v 0.0205250874 -0.0125784824 -0.155
v 0.0206252709 -0.0123366115 -0.158000002
v 0.0206252709 -0.0123366115 -0.155
v 0.02072122 -0.0120930336 -0.158000002
v 0.02072122 -0.0120930336 -0.155
v 0.02072122 -0.00134199598 -0.158000002
v 0.02072122 -0.00134199598 -0.155
v 0.0206252709 -0.00109841802 -0.158000002
v 0.0206252709 -0.00109841802 -0.155
v 0.0205250874 -0.00085654714 -0.158000002
v 0.0205250874 -0.00085654714 -0.155
v 0.0208129063 -0.0118478153 -0.158000002
v 0.0208129063 -0.0118478153 -0.155
v 0.0209002915 -0.011601033 -0.158000002
v 0.0209002915 -0.011601033 -0.155
v 0.020983366 -0.0113527725 -0.158000002
v 0.020983366 -0.0113527725 -0.155
v 0.020983366 -0.00208225706 -0.158000002
v 0.020983366 -0.00208225706 -0.155
v 0.0209002915 -0.00183399656 -0.158000002
v 0.0209002915 -0.00183399656 -0.155
v 0.0208129063 -0.00158721425 -0.158000002
v 0.0208129063 -0.00158721425 -0.155
v 0.0210620823 -0.011103091 -0.158000002
v 0.0210620823 -0.011103091 -0.155
v 0.0211364403 -0.0108520744 -0.158000002
v 0.0211364403 -0.0108520744 -0.155
v 0.0212064019 -0.0105997989 -0.158000002
v 0.0212064019 -0.0105997989 -0.155
v 0.0212064019 -0.00283523061 -0.158000002
v 0.0212064019 -0.00283523061 -0.155
v 0.0211364403 -0.00258295514 -0.158000002
v 0.0211364403 -0.00258295514 -0.155
v 0.0210620823 -0.00233193853 -0.158000002
v 0.0210620823 -0.00233193853 -0.155
v 0.0212719479 -0.0103463409 -0.158000002
v 0.0212719479 -0.0103463409 -0.155
v 0.0213330689 -0.0100917766 -0.158000002
v 0.0213330689 -0.0100917766 -0.155
v 0.0213897267 -0.00983619192 -0.158000002
v 0.0213897267 -0.00983619192 -0.155
v 0.0214419213 -0.00957965352 -0.158000002
v 0.0214419213 -0.00957965352 -0.155
v 0.0214896336 -0.00932223775 -0.158000002
v 0.0214896336 -0.00932223775 -0.155
v 0.0214896336 -0.0041127918 -0.158000002
v 0.0214896336 -0.0041127918 -0.155
v 0.0214419213 -0.00385537603 -0.158000002
v 0.0214419213 -0.00385537603 -0.155
v 0.0213897267 -0.00359883764 -0.158000002
v 0.0213897267 -0.00359883764 -0.155
v 0.0213330689 -0.00334325292 -0.158000002
v 0.0213330689 -0.00334325292 -0.155
v 0.0212719479 -0.00308868863 -0.158000002
v 0.0212719479 -0.00308868863 -0.155
v 0.021532835 -0.00906403043 -0.158000002
v 0.021532835 -0.00906403043 -0.155
v 0.0215715351 -0.00880510785 -0.158000002
v 0.0215715351 -0.00880510785 -0.155
v 0.0216057053 -0.00854555585 -0.158000002
v 0.0216057053 -0.00854555585 -0.155
v 0.0216353455 -0.00828544118 -0.158000002
v 0.0216353455 -0.00828544118 -0.155
v 0.0216604367 -0.00802484968 -0.158000002
v 0.0216604367 -0.00802484968 -0.155
v 0.0216809788 -0.00776385763 -0.158000002
v 0.0216809788 -0.00776385763 -0.155
v 0.0216969528 -0.00750255086 -0.158000002
v 0.0216969528 -0.00750255086 -0.155
v 0.0217083779 -0.00724100568 -0.158000002
v 0.0217083779 -0.00724100568 -0.155
v 0.0217152252 -0.00697929838 -0.158000002
v 0.0217152252 -0.00697929838 -0.155
v 0.0217175141 -0.00671751478 -0.158000002
v 0.0217175141 -0.00671751478 -0.155
v 0.0217152252 -0.00645573118 -0.158000002
v 0.0217152252 -0.00645573118 -0.155
v 0.0217083779 -0.00619402387 -0.158000002
v 0.0217083779 -0.00619402387 -0.155
v 0.0216969528 -0.00593247869 -0.158000002
v 0.0216969528 -0.00593247869 -0.155
v 0.0216809788 -0.00567117193 -0.158000002
v 0.0216809788 -0.00567117193 -0.155
v 0.0216604367 -0.00541017988 -0.158000002
v 0.0216604367 -0.00541017988 -0.155
v 0.0216353455 -0.00514958837 -0.158000002
v 0.0216353455 -0.00514958837 -0.155
v 0.0216057053 -0.0048894737 -0.158000002
v 0.0216057053 -0.0048894737 -0.155
v 0.0215715351 -0.0046299217 -0.158000002
v 0.0215715351 -0.0046299217 -0.155
v 0.021532835 -0.00437099912 -0.158000002
v 0.021532835 -0.00437099912 -0.155
f 1 2 3
f 1 30 2
f 359 1 3
f 29 30 1
f 363 29 1
f 363 1 359
f 3 2 4
f 2 364 4
f 30 368 2
f 2 368 364
f 3 4 5
f 355 3 5
f 359 3 355
f 5 4 6
f 4 360 6
f 4 364 360
f 5 6 7
f 351 5 7
f 355 5 351
f 7 6 8
f 6 356 8
f 6 360 356
f 7 8 9
f 347 7 9
f 351 7 347
f 9 8 10
f 8 352 10
f 8 356 352
f 9 10 11
f 343 9 11
f 347 9 343
f 11 10 12
f 10 348 12
f 10 352 348
f 11 12 13
f 339 11 13
f 343 11 339
f 13 12 14
f 12 344 14
f 12 348 344
f 13 14 31
f 335 13 31
f 339 13 335
f 31 14 32
f 14 340 32
f 14 344 340
f 15 16 17
f 15 54 16
f 391 15 17
f 53 54 15
f 395 53 15
f 395 15 391
f 17 16 18
f 16 396 18
f 54 400 16
f 16 400 396
f 17 18 19
f 387 17 19
f 391 17 387
f 19 18 20
f 18 392 20
f 18 396 392
f 19 20 21
f 383 19 21
f 387 19 383
f 21 20 22
f 20 388 22
f 20 392 388
f 21 22 23
f 379 21 23
f 383 21 379
f 23 22 24
f 22 384 24
f 22 388 384
f 23 24 25
f 375 23 25
f 379 23 375
f 25 24 26
f 24 380 26
f 24 384 380
f 25 26 27
f 371 25 27
f 375 25 371
f 27 26 28
f 26 376 28
f 26 380 376
f 27 28 29
f 367 27 29
f 371 27 367
f 29 28 30
f 28 372 30
f 28 376 372
f 367 29 363
f 30 372 368
f 31 32 33
f 331 31 33
f 335 31 331
f 33 32 34
f 32 336 34
f 32 340 336
f 33 34 35
f 327 33 35
f 331 33 327
f 35 34 36
f 34 332 36
f 34 336 332
f 35 36 37
f 323 35 37
f 327 35 323
f 37 36 38
f 36 328 38
f 36 332 328
f 37 38 39
f 319 37 39
f 323 37 319
f 39 38 40
f 38 324 40
f 38 328 324
f 39 40 41
f 315 39 41
f 319 39 315
f 41 40 42
f 40 320 42
f 40 324 320
f 41 42 43
f 311 41 43
f 315 41 311
f 43 42 44
f 42 316 44
f 42 320 316
f 43 44 45
f 307 43 45
f 311 43 307
f 45 44 46
f 44 312 46
f 44 316 312
f 45 46 55
f 303 45 55
f 307 45 303
f 55 46 56
f 46 308 56
f 46 312 308
f 47 48 49
f 47 68 48
f 407 47 49
f 67 68 47
f 411 67 47
f 411 47 407
f 49 48 50
f 48 412 50
f 68 416 48
f 48 416 412
f 49 50 51
f 403 49 51
f 407 49 403
f 51 50 52
f 50 408 52
f 50 412 408
f 51 52 53
f 399 51 53
f 403 51 399
f 53 52 54
f 52 404 54
f 52 408 404
f 399 53 395
f 54 404 400
f 55 56 57
f 299 55 57
f 303 55 299
f 57 56 58
f 56 304 58
f 56 308 304
f 57 58 59
f 295 57 59
f 299 57 295
f 59 58 60
f 58 300 60
f 58 304 300
f 59 60 61
f 291 59 61
f 295 59 291
f 61 60 62
f 60 296 62
f 60 300 296
f 61 62 69
f 287 61 69
f 291 61 287
f 69 62 70
f 62 292 70
f 62 296 292
f 63 64 65
f 63 80 64
f 419 63 65
f 79 80 63
f 423 79 63
f 423 63 419
f 65 64 66
f 64 424 66
f 80 428 64
f 64 428 424
f 65 66 67
f 415 65 67
f 419 65 415
f 67 66 68
f 66 420 68
f 66 424 420
f 415 67 411
f 68 420 416
f 69 70 71
f 283 69 71
f 287 69 283
f 71 70 72
f 70 288 72
f 70 292 288
f 71 72 73
f 279 71 73
f 283 71 279
f 73 72 74
f 72 284 74
f 72 288 284
f 73 74 81
f 275 73 81
f 279 73 275
f 81 74 82
f 74 280 82
f 74 284 280
f 75 76 77
f 75 90 76
f 431 75 77
f 89 90 75
f 435 89 75
f 435 75 431
f 77 76 78
f 76 436 78
f 90 440 76
f 76 440 436
f 77 78 79
f 427 77 79
f 431 77 427
f 79 78 80
f 78 432 80
f 78 436 432
f 427 79 423
f 80 432 428
f 81 82 83
f 271 81 83
f 275 81 271
f 83 82 84
f 82 276 84
f 82 280 276
f 83 84 85
f 267 83 85
f 271 83 267
f 85 84 86
f 84 272 86
f 84 276 272
f 85 86 91
f 263 85 91
f 267 85 263
f 91 86 92
f 86 268 92
f 86 272 268
f 87 88 89
f 87 100 88
f 439 87 89
f 99 100 87
f 443 99 87
f 443 87 439
f 89 88 90
f 88 444 90
f 100 448 88
f 88 448 444
f 439 89 435
f 90 444 440
f 91 92 93
f 259 91 93
f 263 91 259
f 93 92 94
f 92 264 94
f 92 268 264
f 93 94 101
f 255 93 101
f 259 93 255
f 101 94 102
f 94 260 102
f 94 264 260
f 95 96 97
f 95 110 96
f 451 95 97
f 109 110 95
f 455 109 95
f 455 95 451
f 97 96 98
f 96 456 98
f 110 460 96
f 96 460 456
f 97 98 99
f 447 97 99
f 451 97 447
f 99 98 100
f 98 452 100
f 98 456 452
f 447 99 443
f 100 452 448
f 101 102 103
f 251 101 103
f 255 101 251
f 103 102 104
f 102 256 104
f 102 260 256
f 103 104 105
f 247 103 105
f 251 103 247
f 105 104 106
f 104 252 106
f 104 256 252
f 105 106 111
f 243 105 111
f 247 105 243
f 111 106 112
f 106 248 112
f 106 252 248
f 107 108 109
f 107 118 108
f 459 107 109
f 117 118 107
f 465 117 107
f 465 107 459
f 109 108 110
f 108 466 110
f 118 464 108
f 108 464 466
f 459 109 455
f 110 466 460
f 111 112 113
f 239 111 113
f 243 111 239
f 113 112 114
f 112 244 114
f 112 248 244
f 113 114 119
f 235 113 119
f 239 113 235
f 119 114 120
f 114 240 120
f 114 244 240
f 115 116 117
f 115 126 116
f 463 115 117
f 125 126 115
f 469 125 115
f 469 115 463
f 117 116 118
f 116 470 118
f 126 474 116
f 116 474 470
f 463 117 465
f 118 470 464
f 119 120 121
f 231 119 121
f 235 119 231
f 121 120 122
f 120 236 122
f 120 240 236
f 121 122 127
f 227 121 127
f 231 121 227
f 127 122 128
f 122 232 128
f 122 236 232
f 123 124 125
f 123 130 124
f 473 123 125
f 129 130 123
f 477 129 123
f 477 123 473
f 125 124 126
f 124 478 126
f 130 482 124
f 124 482 478
f 473 125 469
f 126 478 474
f 127 128 131
f 221 127 131
f 227 127 221
f 131 128 132
f 128 228 132
f 128 232 228
f 129 136 130
f 135 136 129
f 481 135 129
f 481 129 477
f 136 486 130
f 130 486 482
f 131 132 137
f 217 131 137
f 221 131 217
f 137 132 138
f 132 222 138
f 132 228 222
f 133 134 135
f 133 142 134
f 485 133 135
f 141 142 133
f 489 141 133
f 489 133 485
f 135 134 136
f 134 490 136
f 142 496 134
f 134 496 490
f 485 135 481
f 136 490 486
f 137 138 139
f 213 137 139
f 217 137 213
f 139 138 140
f 138 218 140
f 138 222 218
f 139 140 143
f 209 139 143
f 213 139 209
f 143 140 144
f 140 214 144
f 140 218 214
f 141 148 142
f 147 148 141
f 495 147 141
f 495 141 489
f 148 500 142
f 142 500 496
f 143 144 145
f 205 143 145
f 209 143 205
f 145 144 146
f 144 210 146
f 144 214 210
f 145 146 149
f 201 145 149
f 205 145 201
f 149 146 150
f 146 206 150
f 146 210 206
f 147 154 148
f 153 154 147
f 499 153 147
f 499 147 495
f 154 504 148
f 148 504 500
f 149 150 155
f 199 149 155
f 201 149 199
f 155 150 156
f 150 202 156
f 150 206 202
f 151 152 153
f 151 160 152
f 503 151 153
f 159 160 151
f 507 159 151
f 507 151 503
f 153 152 154
f 152 508 154
f 160 512 152
f 152 512 508
f 503 153 499
f 154 508 504
f 155 156 157
f 193 155 157
f 199 155 193
f 157 156 158
f 156 200 158
f 156 202 200
f 157 158 161
f 189 157 161
f 193 157 189
f 161 158 162
f 158 194 162
f 158 200 194
f 159 164 160
f 163 164 159
f 511 163 159
f 511 159 507
f 164 518 160
f 160 518 512
f 161 162 165
f 185 161 165
f 189 161 185
f 165 162 166
f 162 190 166
f 162 194 190
f 163 170 164
f 169 170 163
f 517 169 163
f 517 163 511
f 170 522 164
f 164 522 518
f 165 166 167
f 181 165 167
f 185 165 181
f 167 166 168
f 166 186 168
f 166 190 186
f 167 168 171
f 179 167 171
f 181 167 179
f 171 168 172
f 168 182 172
f 168 186 182
f 169 174 170
f 173 174 169
f 169 521 173
f 521 169 517
f 174 526 170
f 170 526 522
f 171 172 175
f 179 171 175
f 175 172 176
f 172 180 176
f 172 182 180
f 173 178 174
f 177 178 173
f 173 525 177
f 173 521 525
f 178 532 174
f 174 532 526
f 175 176 179
f 179 176 180
f 177 184 178
f 183 184 177
f 177 531 183
f 177 525 531
f 536 178 184
f 532 178 536
f 179 180 181
f 181 180 182
f 181 182 185
f 185 182 186
f 183 188 184
f 187 188 183
f 183 535 187
f 183 531 535
f 544 184 188
f 536 184 544
f 185 186 189
f 189 186 190
f 187 192 188
f 191 192 187
f 187 543 191
f 187 535 543
f 542 188 192
f 544 188 542
f 189 190 193
f 193 190 194
f 191 198 192
f 197 198 191
f 191 541 197
f 191 543 541
f 548 192 198
f 542 192 548
f 193 194 199
f 199 194 200
f 195 196 197
f 195 204 196
f 197 547 195
f 203 204 195
f 195 555 203
f 195 547 555
f 197 196 198
f 556 198 196
f 554 196 204
f 556 196 554
f 197 541 547
f 548 198 556
f 199 200 201
f 201 200 202
f 201 202 205
f 205 202 206
f 203 208 204
f 207 208 203
f 203 553 207
f 203 555 553
f 560 204 208
f 554 204 560
f 205 206 209
f 209 206 210
f 207 212 208
f 211 212 207
f 207 559 211
f 207 553 559
f 568 208 212
f 560 208 568
f 209 210 213
f 213 210 214
f 211 216 212
f 215 216 211
f 211 567 215
f 211 559 567
f 566 212 216
f 568 212 566
f 213 214 217
f 217 214 218
f 215 220 216
f 219 220 215
f 215 565 219
f 215 567 565
f 576 216 220
f 566 216 576
f 217 218 221
f 221 218 222
f 219 226 220
f 225 226 219
f 219 575 225
f 219 565 575
f 574 220 226
f 576 220 574
f 221 222 227
f 227 222 228
f 223 224 225
f 223 230 224
f 225 573 223
f 229 230 223
f 223 583 229
f 223 573 583
f 225 224 226
f 584 226 224
f 582 224 230
f 584 224 582
f 225 575 573
f 574 226 584
f 227 228 231
f 231 228 232
f 229 234 230
f 233 234 229
f 229 581 233
f 229 583 581
f 590 230 234
f 582 230 590
f 231 232 235
f 235 232 236
f 233 238 234
f 237 238 233
f 233 589 237
f 233 581 589
f 588 234 238
f 590 234 588
f 235 236 239
f 239 236 240
f 237 242 238
f 241 242 237
f 237 587 241
f 237 589 587
f 598 238 242
f 588 238 598
f 239 240 243
f 243 240 244
f 241 246 242
f 245 246 241
f 241 597 245
f 241 587 597
f 596 242 246
f 598 242 596
f 243 244 247
f 247 244 248
f 245 250 246
f 249 250 245
f 245 595 249
f 245 597 595
f 606 246 250
f 596 246 606
f 247 248 251
f 251 248 252
f 249 254 250
f 253 254 249
f 249 605 253
f 249 595 605
f 604 250 254
f 606 250 604
f 251 252 255
f 255 252 256
f 253 258 254
f 257 258 253
f 253 603 257
f 253 605 603
f 618 254 258
f 604 254 618
f 255 256 259
f 259 256 260
f 257 262 258
f 261 262 257
f 257 617 261
f 257 603 617
f 616 258 262
f 618 258 616
f 259 260 263
f 263 260 264
f 261 266 262
f 265 266 261
f 261 615 265
f 261 617 615
f 614 262 266
f 616 262 614
f 263 264 267
f 267 264 268
f 265 270 266
f 269 270 265
f 265 613 269
f 265 615 613
f 630 266 270
f 614 266 630
f 267 268 271
f 271 268 272
f 269 274 270
f 273 274 269
f 269 629 273
f 269 613 629
f 628 270 274
f 630 270 628
f 271 272 275
f 275 272 276
f 273 278 274
f 277 278 273
f 273 627 277
f 273 629 627
f 626 274 278
f 628 274 626
f 275 276 279
f 279 276 280
f 277 282 278
f 281 282 277
f 277 625 281
f 277 627 625
f 642 278 282
f 626 278 642
f 279 280 283
f 283 280 284
f 281 286 282
f 285 286 281
f 281 641 285
f 281 625 641
f 640 282 286
f 642 282 640
f 283 284 287
f 287 284 288
f 285 290 286
f 289 290 285
f 285 639 289
f 285 641 639
f 638 286 290
f 640 286 638
f 287 288 291
f 291 288 292
f 289 294 290
f 293 294 289
f 289 637 293
f 289 639 637
f 662 290 294
f 638 290 662
f 291 292 295
f 295 292 296
f 293 298 294
f 297 298 293
f 293 661 297
f 293 637 661
f 660 294 298
f 662 294 660
f 295 296 299
f 299 296 300
f 297 302 298
f 301 302 297
f 297 659 301
f 297 661 659
f 658 298 302
f 660 298 658
f 299 300 303
f 303 300 304
f 301 306 302
f 305 306 301
f 301 657 305
f 301 659 657
f 656 302 306
f 658 302 656
f 303 304 307
f 307 304 308
f 305 310 306
f 309 310 305
f 305 655 309
f 305 657 655
f 654 306 310
f 656 306 654
f 307 308 311
f 311 308 312
f 309 314 310
f 313 314 309
f 309 653 313
f 309 655 653
f 700 310 314
f 654 310 700
f 311 312 315
f 315 312 316
f 313 318 314
f 317 318 313
f 313 699 317
f 313 653 699
f 698 314 318
f 700 314 698
f 315 316 319
f 319 316 320
f 317 322 318
f 321 322 317
f 317 697 321
f 317 699 697
f 696 318 322
f 698 318 696
f 319 320 323
f 323 320 324
f 321 326 322
f 325 326 321
f 321 695 325
f 321 697 695
f 694 322 326
f 696 322 694
f 323 324 327
f 327 324 328
f 325 330 326
f 329 330 325
f 325 693 329
f 325 695 693
f 692 326 330
f 694 326 692
f 327 328 331
f 331 328 332
f 329 334 330
f 333 334 329
f 329 691 333
f 329 693 691
f 690 330 334
f 692 330 690
f 331 332 335
f 335 332 336
f 333 338 334
f 337 338 333
f 333 689 337
f 333 691 689
f 688 334 338
f 690 334 688
f 335 336 339
f 339 336 340
f 337 342 338
f 341 342 337
f 337 687 341
f 337 689 687
f 686 338 342
f 688 338 686
f 339 340 343
f 343 340 344
f 341 346 342
f 345 346 341
f 341 685 345
f 341 687 685
f 684 342 346
f 686 342 684
f 343 344 347
f 347 344 348
f 345 350 346
f 349 350 345
f 345 683 349
f 345 685 683
f 682 346 350
f 684 346 682
f 347 348 351
f 351 348 352
f 349 354 350
f 353 354 349
f 349 681 353
f 349 683 681
f 680 350 354
f 682 350 680
f 351 352 355
f 355 352 356
f 353 358 354
f 357 358 353
f 353 679 357
f 353 681 679
f 678 354 358
f 680 354 678
f 355 356 359
f 359 356 360
f 357 362 358
f 361 362 357
f 357 677 361
f 357 679 677
f 676 358 362
f 678 358 676
f 359 360 363
f 363 360 364
f 361 366 362
f 365 366 361
f 361 675 365
f 361 677 675
f 674 362 366
f 676 362 674
f 363 364 367
f 367 364 368
f 365 370 366
f 369 370 365
f 365 673 369
f 365 675 673
f 672 366 370
f 674 366 672
f 367 368 371
f 371 368 372
f 369 374 370
f 373 374 369
f 369 671 373
f 369 673 671
f 670 370 374
f 672 370 670
f 371 372 375
f 375 372 376
f 373 378 374
f 377 378 373
f 373 669 377
f 373 671 669
f 668 374 378
f 670 374 668
f 375 376 379
f 379 376 380
f 377 382 378
f 381 382 377
f 377 667 381
f 377 669 667
f 666 378 382
f 668 378 666
f 379 380 383
f 383 380 384
f 381 386 382
f 385 386 381
f 381 665 385
f 381 667 665
f 664 382 386
f 666 382 664
f 383 384 387
f 387 384 388
f 385 390 386
f 389 390 385
f 385 663 389
f 385 665 663
f 652 386 390
f 664 386 652
f 387 388 391
f 391 388 392
f 389 394 390
f 393 394 389
f 389 651 393
f 389 663 651
f 650 390 394
f 652 390 650
f 391 392 395
f 395 392 396
f 393 398 394
f 397 398 393
f 393 649 397
f 393 651 649
f 648 394 398
f 650 394 648
f 395 396 399
f 399 396 400
f 397 402 398
f 401 402 397
f 397 647 401
f 397 649 647
f 646 398 402
f 648 398 646
f 399 400 403
f 403 400 404
f 401 406 402
f 405 406 401
f 401 645 405
f 401 647 645
f 644 402 406
f 646 402 644
f 403 404 407
f 407 404 408
f 405 410 406
f 409 410 405
f 405 643 409
f 405 645 643
f 636 406 410
f 644 406 636
f 407 408 411
f 411 408 412
f 409 414 410
f 413 414 409
f 409 635 413
f 409 643 635
f 634 410 414
f 636 410 634
f 411 412 415
f 415 412 416
f 413 418 414
f 417 418 413
f 413 633 417
f 413 635 633
f 632 414 418
f 634 414 632
f 415 416 419
f 419 416 420
f 417 422 418
f 421 422 417
f 417 631 421
f 417 633 631
f 624 418 422
f 632 418 624
f 419 420 423
f 423 420 424
f 421 426 422
f 425 426 421
f 421 623 425
f 421 631 623
f 622 422 426
f 624 422 622
f 423 424 427
f 427 424 428
f 425 430 426
f 429 430 425
f 425 621 429
f 425 623 621
f 620 426 430
f 622 426 620
f 427 428 431
f 431 428 432
f 429 434 430
f 433 434 429
f 429 619 433
f 429 621 619
f 612 430 434
f 620 430 612
f 431 432 435
f 435 432 436
f 433 438 434
f 437 438 433
f 433 611 437
f 433 619 611
f 610 434 438
f 612 434 610
f 435 436 439
f 439 436 440
f 437 442 438
f 441 442 437
f 437 609 441
f 437 611 609
f 608 438 442
f 610 438 608
f 439 440 443
f 443 440 444
f 441 446 442
f 445 446 441
f 441 607 445
f 441 609 607
f 602 442 446
f 608 442 602
f 443 444 447
f 447 444 448
f 445 450 446
f 449 450 445
f 445 601 449
f 445 607 601
f 600 446 450
f 602 446 600
f 447 448 451
f 451 448 452
f 449 454 450
f 453 454 449
f 449 599 453
f 449 601 599
f 594 450 454
f 600 450 594
f 451 452 455
f 455 452 456
f 453 458 454
f 457 458 453
f 453 593 457
f 453 599 593
f 592 454 458
f 594 454 592
f 455 456 459
f 459 456 460
f 457 462 458
f 461 462 457
f 457 591 461
f 457 593 591
f 586 458 462
f 592 458 586
f 459 460 465
f 465 460 466
f 461 468 462
f 467 468 461
f 461 585 467
f 461 591 585
f 580 462 468
f 586 462 580
f 463 466 464
f 463 464 469
f 465 466 463
f 469 464 470
f 467 472 468
f 471 472 467
f 467 579 471
f 467 585 579
f 578 468 472
f 580 468 578
f 469 470 473
f 473 470 474
f 471 476 472
f 475 476 471
f 471 577 475
f 471 579 577
f 572 472 476
f 578 472 572
f 473 474 477
f 477 474 478
f 475 480 476
f 479 480 475
f 475 571 479
f 475 577 571
f 570 476 480
f 572 476 570
f 477 478 481
f 481 478 482
f 479 484 480
f 483 484 479
f 479 569 483
f 479 571 569
f 564 480 484
f 570 480 564
f 481 482 485
f 485 482 486
f 483 488 484
f 487 488 483
f 483 563 487
f 483 569 563
f 562 484 488
f 564 484 562
f 485 486 489
f 489 486 490
f 487 492 488
f 491 492 487
f 487 561 491
f 487 563 561
f 558 488 492
f 562 488 558
f 489 490 495
f 495 490 496
f 491 494 492
f 493 494 491
f 491 557 493
f 491 561 557
f 552 492 494
f 558 492 552
f 493 498 494
f 497 498 493
f 493 551 497
f 493 557 551
f 550 494 498
f 552 494 550
f 495 496 499
f 499 496 500
f 497 502 498
f 501 502 497
f 497 549 501
f 497 551 549
f 546 498 502
f 550 498 546
f 499 500 503
f 503 500 504
f 501 506 502
f 505 506 501
f 501 545 505
f 501 549 545
f 540 502 506
f 546 502 540
f 503 504 507
f 507 504 508
f 505 510 506
f 509 510 505
f 505 539 509
f 505 545 539
f 538 506 510
f 540 506 538
f 507 508 511
f 511 508 512
f 509 514 510
f 513 514 509
f 509 537 513
f 509 539 537
f 534 510 514
f 538 510 534
f 511 512 517
f 517 512 518
f 513 516 514
f 515 516 513
f 513 533 515
f 513 537 533
f 530 514 516
f 534 514 530
f 515 520 516
f 519 520 515
f 515 529 519
f 515 533 529
f 528 516 520
f 530 516 528
f 517 518 521
f 521 518 522
f 519 524 520
f 523 524 519
f 519 527 523
f 519 529 527
f 528 520 524
f 521 522 525
f 525 522 526
f 523 528 524
f 527 528 523
f 525 526 531
f 531 526 532
f 527 530 528
f 529 530 527
f 529 534 530
f 533 534 529
f 531 532 535
f 535 532 536
f 533 538 534
f 537 538 533
f 535 536 543
f 543 536 544
f 537 540 538
f 539 540 537
f 539 546 540
f 545 546 539
f 541 544 542
f 541 542 547
f 543 544 541
f 547 542 548
f 545 550 546
f 549 550 545
f 547 548 555
f 555 548 556
f 549 552 550
f 551 552 549
f 551 558 552
f 557 558 551
f 553 556 554
f 553 554 559
f 555 556 553
f 559 554 560
f 557 562 558
f 561 562 557
f 559 560 567
f 567 560 568
f 561 564 562
f 563 564 561
f 563 570 564
f 569 570 563
f 565 568 566
f 565 566 575
f 567 568 565
f 575 566 576
f 569 572 570
f 571 572 569
f 571 578 572
f 577 578 571
f 573 576 574
f 573 574 583
f 575 576 573
f 583 574 584
f 577 580 578
f 579 580 577
f 579 586 580
f 585 586 579
f 581 584 582
f 581 582 589
f 583 584 581
f 589 582 590
f 585 592 586
f 591 592 585
f 587 590 588
f 587 588 597
f 589 590 587
f 597 588 598
f 591 594 592
f 593 594 591
f 593 600 594
f 599 600 593
f 595 598 596
f 595 596 605
f 597 598 595
f 605 596 606
f 599 602 600
f 601 602 599
f 601 608 602
f 607 608 601
f 603 606 604
f 603 604 617
f 605 606 603
f 617 604 618
f 607 610 608
f 609 610 607
f 609 612 610
f 611 612 609
f 611 620 612
f 619 620 611
f 613 616 614
f 613 614 629
f 615 616 613
f 629 614 630
f 615 618 616
f 617 618 615
f 619 622 620
f 621 622 619
f 621 624 622
f 623 624 621
f 623 632 624
f 631 632 623
f 625 628 626
f 625 626 641
f 627 628 625
f 641 626 642
f 627 630 628
f 629 630 627
f 631 634 632
f 633 634 631
f 633 636 634
f 635 636 633
f 635 644 636
f 643 644 635
f 637 640 638
f 637 638 661
f 639 640 637
f 661 638 662
f 639 642 640
f 641 642 639
f 643 646 644
f 645 646 643
f 645 648 646
f 647 648 645
f 647 650 648
f 649 650 647
f 649 652 650
f 651 652 649
f 651 664 652
f 663 664 651
f 653 656 654
f 653 654 699
f 655 656 653
f 699 654 700
f 655 658 656
f 657 658 655
f 657 660 658
f 659 660 657
f 659 662 660
f 661 662 659
f 663 666 664
f 665 666 663
f 665 668 666
f 667 668 665
f 667 670 668
f 669 670 667
f 669 672 670
f 671 672 669
f 671 674 672
f 673 674 671
f 673 676 674
f 675 676 673
f 675 678 676
f 677 678 675
f 677 680 678
f 679 680 677
f 679 682 680
f 681 682 679
f 681 684 682
f 683 684 681
f 683 686 684
f 685 686 683
f 685 688 686
f 687 688 685
f 687 690 688
f 689 690 687
f 689 692 690
f 691 692 689
f 691 694 692
f 693 694 691
f 693 696 694
f 695 696 693
f 695 698 696
f 697 698 695
f 697 700 698
f 699 700 697
