# CAD visual only; metres; body-local coordinates
v -0.0100000004 -3.72796696e-10 0.00999999809
v -0.0100000004 -3.72796696e-10 0.012000001
v -0.00978147544 -0.00207911529 0.00999999809
v -0.00978147544 -0.00207911529 0.012000001
v -0.00981627502 -0.0019080881 0.00999999809
v -0.00981627502 -0.0019080881 0.012000001
v -0.00987688102 -0.00156434573 0.00999999809
v -0.00984808005 -0.00173648395 0.012000001
v -0.00990267791 -0.00139173068 0.00999999809
v -0.00990267791 -0.00139173068 0.012000001
v -0.00994522132 -0.00104528464 0.00999999809
v -0.00992546119 -0.00121869124 0.012000001
v -0.00996194877 -0.000871558562 0.00999999809
v -0.00996194877 -0.000871558562 0.012000001
v -0.00998629607 -0.000523357764 0.00999999809
v -0.00997564353 -0.000697565452 0.012000001
v -0.00999390639 -0.000348992721 0.00999999809
v -0.00999390639 -0.000348992721 0.012000001
v -0.00999847449 -0.000174522773 0.00999999809
v -0.00999847449 -0.000174522773 0.012000001
v -0.00999847449 0.000174522027 0.00999999809
v -0.00999847449 0.000174522027 0.012000001
v -0.00999390639 0.000348996743 0.00999999809
v -0.00999390639 0.000348996743 0.012000001
v -0.00997564353 0.000697564706 0.00999999809
v -0.00998629607 0.000523361787 0.012000001
v -0.00996194877 0.000871557817 0.00999999809
v -0.00996194877 0.000871557817 0.012000001
v -0.00992546119 0.00121869527 0.00999999809
v -0.00994522132 0.0010452839 0.012000001
v -0.00990267791 0.00139172994 0.00999999809
v -0.00990267791 0.00139172994 0.012000001
v -0.00984808005 0.0017364832 0.00999999809
v -0.00987688102 0.00156434499 0.012000001
v -0.00981627502 0.00190809213 0.00999999809
v -0.00981627502 0.00190809213 0.012000001
v -0.00978147544 0.00207911454 0.00999999809
v -0.00978147544 0.00207911454 0.012000001
v -0.00951056518 -0.00309017219 0.00999999809
v -0.00951056518 -0.00309017219 0.012000001
v -0.00961261787 -0.00275637187 0.00999999809
v -0.00956304587 -0.00292371787 0.012000001
v -0.00965926208 -0.00258819141 0.00999999809
v -0.00965926208 -0.00258819141 0.012000001
v -0.00970295943 -0.00241921939 0.00999999809
v -0.00970295943 -0.00241921939 0.012000001
v -0.0097437004 -0.00224950828 0.00999999809
v -0.0097437004 -0.00224950828 0.012000001
v -0.0097437004 0.0022495123 0.00999999809
v -0.0097437004 0.0022495123 0.012000001
v -0.00970295943 0.00241921864 0.00999999809
v -0.00970295943 0.00241921864 0.012000001
v -0.00965926208 0.00258819066 0.00999999809
v -0.00965926208 0.00258819066 0.012000001
v -0.00956304587 0.00292371713 0.00999999809
v -0.00961261787 0.00275637589 0.012000001
v -0.00951056518 0.00309017144 0.00999999809
v -0.00951056518 0.00309017144 0.012000001
v -0.00933580436 -0.00358367957 0.00999999809
v -0.00927184142 -0.0037460617 0.012000001
v -0.00945518531 -0.00325568236 0.00999999809
v -0.00939692535 -0.00342020072 0.012000001
v -0.00939692535 0.00342019998 0.00999999809
v -0.00945518531 0.00325568162 0.012000001
v -0.00927184142 0.00374606572 0.00999999809
v -0.00933580436 0.00358367883 0.012000001
v -0.00913545646 -0.00406736411 0.00999999809
v -0.00906308211 -0.0042261795 0.012000001
v -0.00920504607 -0.00390730895 0.00999999809
v -0.00920504607 -0.00390730895 0.012000001
v -0.00920504607 0.00390731297 0.00999999809
v -0.00920504607 0.00390731297 0.012000001
v -0.00906308211 0.00422618352 0.00999999809
v -0.00913545646 0.00406736813 0.012000001
v -0.00891006507 -0.00453990974 0.00999999809
v -0.00882947959 -0.00469471969 0.012000001
v -0.00898794211 -0.00438370742 0.00999999809
v -0.00898794211 -0.00438370742 0.012000001
v -0.00898794211 0.00438371144 0.00999999809
v -0.00898794211 0.00438371144 0.012000001
v -0.00882947959 0.00469471417 0.00999999809
v -0.00891006507 0.00453990422 0.012000001
v -0.00866025008 -0.00500000037 0.00999999809
v -0.00857167281 -0.00515038528 0.012000001
v -0.00874619521 -0.00484809913 0.00999999809
v -0.00874619521 -0.00484809913 0.012000001
v -0.00866025008 0.00499999963 0.00999999809
v -0.00874619521 0.00484809838 0.012000001
v -0.00857167281 0.00515037976 0.00999999809
v -0.00857167281 0.00515037976 0.012000001
v -0.00829037704 -0.00559192695 0.00999999809
v -0.00829037704 -0.00559192695 0.012000001
v -0.00848048247 -0.00529919662 0.00999999809
v -0.00838670768 -0.00544638671 0.012000001
v -0.00838670768 0.00544639073 0.00999999809
v -0.00848048247 0.0052991911 0.012000001
v -0.00829037704 0.00559193097 0.00999999809
v -0.00829037704 0.00559193097 0.012000001
v -0.00809017219 -0.00587784804 0.00999999809
v -0.00809017219 -0.00587784804 0.012000001
v -0.00819151916 -0.00573576011 0.00999999809
v -0.00819151916 -0.00573576011 0.012000001
v -0.00819151916 0.00573576413 0.00999999809
v -0.00819151916 0.00573576413 0.012000001
v -0.00809017219 0.00587785207 0.00999999809
v -0.00809017219 0.00587785207 0.012000001
v -0.00777146377 -0.00629320182 0.00999999809
v -0.00777146377 -0.00629320182 0.012000001
v -0.0079863552 -0.00601815261 0.00999999809
v -0.00788010635 -0.00615661658 0.012000001
v -0.00788010635 0.00615661584 0.00999999809
v -0.0079863552 0.00601815186 0.012000001
v -0.00777146377 0.00629320584 0.00999999809
v -0.00777146377 0.00629320584 0.012000001
v -0.00754709281 -0.00656059302 0.00999999809
v -0.00754709281 -0.00656059302 0.012000001
v -0.00766044654 -0.00642787971 0.00999999809
v -0.00766044654 -0.00642787971 0.012000001
v -0.00766044654 0.00642787419 0.00999999809
v -0.00766044654 0.00642787419 0.012000001
v -0.00754709281 0.00656059228 0.00999999809
v -0.00754709281 0.00656059228 0.012000001
v -0.00731353797 -0.0068199829 0.00999999809
v -0.00731353797 -0.0068199829 0.012000001
v -0.00743145026 -0.00669130363 0.00999999809
v -0.00743145026 -0.00669130363 0.012000001
v -0.00743145026 0.00669130765 0.00999999809
v -0.00743145026 0.00669130765 0.012000001
v -0.00731353797 0.00681998216 0.00999999809
v -0.00731353797 0.00681998216 0.012000001
v -0.00707106628 -0.00707106628 0.00999999809
v -0.00707106628 -0.00707106628 0.012000001
v -0.00719339408 -0.00694658317 0.00999999809
v -0.00719339408 -0.00694658317 0.012000001
v -0.00719339408 0.00694658242 0.00999999809
v -0.00719339408 0.00694658242 0.012000001
v -0.00707106628 0.00707106553 0.00999999809
v -0.00707106628 0.00707106553 0.012000001
v -0.0068199829 -0.00731353797 0.00999999809
v -0.0068199829 -0.00731353797 0.012000001
v -0.00694658317 -0.00719339408 0.00999999809
v -0.00694658317 -0.00719339408 0.012000001
v -0.00675267257 -0.00575272597 0.00999999809
v -0.00675083198 -0.00577183761 0.012000001
v -0.00675083198 -0.00554186858 0.00999999809
v -0.00675417937 -0.00573358573 0.012000001
v -0.00694658317 0.0071933981 0.00999999809
v -0.00694658317 0.0071933981 0.012000001
v -0.0068199829 0.00731353722 0.00999999809
v -0.0068199829 0.00731353722 0.012000001
v -0.00656059302 -0.00754709281 0.00999999809
v -0.00656059302 -0.00754709281 0.012000001
v -0.00669130363 -0.00743145026 0.00999999809
v -0.00669130363 -0.00743145026 0.012000001
v -0.00657938994 -0.00625596084 0.00999999809
v -0.00651171722 -0.00634910621 0.012000001
v -0.00669692077 -0.00601497687 0.00999999809
v -0.0065897087 -0.00623976745 0.012000001
v -0.0067486576 -0.00579091109 0.00999999809
v -0.00670301475 -0.00599677123 0.012000001
v -0.00674614944 -0.00550375976 0.00999999809
v -0.0067486576 -0.0055227951 0.012000001
v -0.00668378867 -0.00526265182 0.00999999809
v -0.00674330749 -0.0054847721 0.012000001
v -0.00654677428 -0.00501029052 0.00999999809
v -0.00667676009 -0.0052447895 0.012000001
v -0.00651171722 -0.00496459998 0.00999999809
v -0.00653534927 -0.00499486007 0.012000001
v -0.00669130363 0.00743144952 0.00999999809
v -0.00669130363 0.00743144952 0.012000001
v -0.00656059302 0.00754709683 0.00999999809
v -0.00656059302 0.00754709683 0.012000001
v -0.00629320182 -0.00777146377 0.00999999809
v -0.00629320182 -0.00777146377 0.012000001
v -0.00642787971 -0.00766044654 0.00999999809
v -0.00642787971 -0.00766044654 0.012000001
v -0.00634910621 -0.00651171722 0.00999999809
v -0.00625596084 -0.00657938994 0.012000001
v -0.00649950065 -0.00636391677 0.00999999809
v -0.00636391677 -0.00649950065 0.012000001
v -0.00628778495 -0.00475578345 0.00999999809
v -0.00649950065 -0.00494978942 0.012000001
v -0.00625596084 -0.00473431624 0.00999999809
v -0.00627196349 -0.00474491157 0.012000001
v -0.00642787971 0.00766044579 0.00999999809
v -0.00642787971 0.00766044579 0.012000001
v -0.00629320182 0.00777145825 0.00999999809
v -0.00629320182 0.00777145825 0.012000001
v -0.00615661658 -0.00788010635 0.00999999809
v -0.00601815261 -0.0079863552 0.012000001
v -0.00623976745 -0.0065897087 0.00999999809
v -0.00601497687 -0.00669692077 0.012000001
v -0.00601497687 -0.00461678542 0.00999999809
v -0.00623976745 -0.00472399749 0.012000001
v -0.00601815261 0.00798635446 0.00999999809
v -0.00615661658 0.0078801056 0.012000001
v -0.00587784804 -0.00809017219 0.00999999809
v -0.00587784804 -0.00809017219 0.012000001
v -0.00577183761 -0.00675083198 0.00999999809
v -0.00575272597 -0.00675267257 0.012000001
v -0.00599677123 -0.00670301475 0.00999999809
v -0.00579091109 -0.0067486576 0.012000001
v -0.00575272597 -0.00456104316 0.00999999809
v -0.00599677123 -0.00461069144 0.012000001
v -0.00587784804 0.00809017144 0.00999999809
v -0.00587784804 0.00809017144 0.012000001
v -0.00559192695 -0.00829037704 0.00999999809
v -0.00559192695 -0.00829037704 0.012000001
v -0.00573576011 -0.00819151916 0.00999999809
v -0.00573576011 -0.00819151916 0.012000001
v -0.00573358573 -0.00675417937 0.00999999809
v -0.00554186858 -0.00675083198 0.012000001
v -0.0055227951 -0.0067486576 0.00999999809
v -0.00550375976 -0.00674614944 0.012000001
v -0.00550375976 -0.00456755675 0.00999999809
v -0.00573358573 -0.00455953635 0.012000001
v -0.00573576011 0.00819151841 0.00999999809
v -0.00573576011 0.00819151841 0.012000001
v -0.00559192695 0.00829037629 0.00999999809
v -0.00559192695 0.00829037629 0.012000001
v -0.00544638671 -0.00838670768 0.00999999809
v -0.00529919662 -0.00848048247 0.012000001
v -0.0054847721 -0.00674330749 0.00999999809
v -0.00526265182 -0.00668378867 0.012000001
v -0.00526265182 -0.00462991752 0.00999999809
v -0.0054847721 -0.0045703987 0.012000001
v -0.00529919662 0.00848048173 0.00999999809
v -0.00544638671 0.00838670693 0.012000001
v -0.00515038528 -0.00857167281 0.00999999809
v -0.00500000037 -0.00866025008 0.012000001
v -0.0052447895 -0.00667676009 0.00999999809
v -0.00501029052 -0.00654677428 0.012000001
v -0.00501029052 -0.00476693191 0.00999999809
v -0.00502592124 -0.00475578345 0.012000001
v -0.0050417427 -0.00474491157 0.00999999809
v -0.0052447895 -0.00463695563 0.012000001
v -0.00500000037 0.00866025411 0.00999999809
v -0.00515038528 0.00857167207 0.012000001
v -0.00484809913 -0.00874619521 0.00999999809
v -0.00484809913 -0.00874619521 0.012000001
v -0.00499486007 -0.00653534927 0.00999999809
v -0.00496459998 -0.00651171722 0.012000001
v -0.00494978942 -0.00649950065 0.00999999809
v -0.00475578345 -0.00628778495 0.012000001
v -0.00475578345 -0.00502592124 0.00999999809
v -0.00476693191 -0.00501029052 0.012000001
v -0.00487903632 -0.00487903632 0.00999999809
v -0.00487903632 -0.00487903632 0.012000001
v -0.00484809913 0.00874619924 0.00999999809
v -0.00484809913 0.00874619924 0.012000001
v -0.00469471969 -0.00882947959 0.00999999809
v -0.00453990974 -0.00891006507 0.012000001
v -0.00474491157 -0.00627196349 0.00999999809
v -0.00473431624 -0.00625596084 0.012000001
v -0.00472399749 -0.00623976745 0.00999999809
v -0.00461678542 -0.00601497687 0.012000001
v -0.00461069144 -0.00599677123 0.00999999809
v -0.00456104316 -0.00575272597 0.012000001
v -0.00455953635 -0.00573358573 0.00999999809
v -0.00456755675 -0.00550375976 0.012000001
v -0.0045703987 -0.0054847721 0.00999999809
v -0.00462991752 -0.00526265182 0.012000001
v -0.00463695563 -0.0052447895 0.00999999809
v -0.00474491157 -0.0050417427 0.012000001
v -0.00453990974 0.00891006432 0.00999999809
v -0.00469471969 0.00882947408 0.012000001
v -0.00438370742 -0.00898794211 0.00999999809
v -0.00438370742 -0.00898794211 0.012000001
v -0.00438370742 0.00898794137 0.00999999809
v -0.00438370742 0.00898794137 0.012000001
v -0.0042261795 -0.00906308211 0.00999999809
v -0.00406736411 -0.00913545646 0.012000001
v -0.00406736411 0.00913545571 0.00999999809
v -0.0042261795 0.0090630766 0.012000001
v -0.00390730895 -0.00920504607 0.00999999809
v -0.00390730895 -0.00920504607 0.012000001
v -0.00390730895 0.0092050501 0.00999999809
v -0.00390730895 0.0092050501 0.012000001
v -0.0037460617 -0.00927184142 0.00999999809
v -0.00358367957 -0.00933580436 0.012000001
v -0.00358367957 0.00933580361 0.00999999809
v -0.0037460617 0.00927184068 0.012000001
v -0.00342020072 -0.00939692535 0.00999999809
v -0.00325568236 -0.00945518531 0.012000001
v -0.00325568236 0.00945518456 0.00999999809
v -0.00342020072 0.0093969246 0.012000001
v -0.00309017219 -0.00951056518 0.00999999809
v -0.00309017219 -0.00951056518 0.012000001
v -0.00309017219 0.00951056443 0.00999999809
v -0.00309017219 0.00951056443 0.012000001
v -0.00292371787 -0.00956304587 0.00999999809
v -0.00275637187 -0.00961261787 0.012000001
v -0.00275637187 0.00961261712 0.00999999809
v -0.00292371787 0.0095630499 0.012000001
v -0.00258819141 -0.00965926208 0.00999999809
v -0.00258819141 -0.00965926208 0.012000001
v -0.00258819141 0.00965925656 0.00999999809
v -0.00258819141 0.00965925656 0.012000001
v -0.00241921939 -0.00970295943 0.00999999809
v -0.00241921939 -0.00970295943 0.012000001
v -0.00241921939 0.00970295869 0.00999999809
v -0.00241921939 0.00970295869 0.012000001
v -0.00207911529 -0.00978147544 0.00999999809
v -0.00207911529 -0.00978147544 0.012000001
v -0.00224950828 -0.0097437004 0.00999999809
v -0.00224950828 -0.0097437004 0.012000001
v -0.00224950828 0.00974369965 0.00999999809
v -0.00224950828 0.00974369965 0.012000001
v -0.00207911529 0.00978147469 0.00999999809
v -0.00207911529 0.00978147469 0.012000001
v -0.0019080881 -0.00981627502 0.00999999809
v -0.0019080881 -0.00981627502 0.012000001
v -0.0019080881 0.0098162695 0.00999999809
v -0.0019080881 0.0098162695 0.012000001
v -0.00173648395 -0.00984808005 0.00999999809
v -0.00156434573 -0.00987688102 0.012000001
v -0.00150000133 -3.72796696e-10 0.00999999809
v -0.00150000133 -3.72796696e-10 0.012000001
v -0.00156434573 0.00987688504 0.00999999809
v -0.00173648395 0.00984807931 0.012000001
v -0.00139173068 -0.00990267791 0.00999999809
v -0.00139173068 -0.00990267791 0.012000001
v -0.00125800647 -0.000816960708 0.00999999809
v -0.00128574885 -0.000772557631 0.012000001
v -0.00129903831 -0.000749998465 0.00999999809
v -0.00140954055 -0.000513029471 0.012000001
v -0.00141827621 -0.000488353148 0.00999999809
v -0.00147721328 -0.00026047267 0.012000001
v -0.00148153342 -0.000234651938 0.00999999809
v -0.00149977244 -2.61787328e-05 0.012000001
v -0.00149977244 2.61779872e-05 0.00999999809
v -0.00148153342 0.000234651193 0.012000001
v -0.00147721328 0.000260471925 0.00999999809
v -0.00141827621 0.000488352403 0.012000001
v -0.00140954055 0.000513028726 0.00999999809
v -0.00129903831 0.00074999772 0.012000001
v -0.00128574885 0.000772556886 0.00999999809
v -0.00125800647 0.000816959962 0.012000001
v -0.00139173068 0.00990268193 0.00999999809
v -0.00139173068 0.00990268193 0.012000001
v -0.00121869124 -0.00992546119 0.00999999809
v -0.00104528464 -0.00994522132 0.012000001
v -0.00100369491 -0.0011147169 0.00999999809
v -0.0011147169 -0.00100369491 0.012000001
v -0.00113206424 -0.000984087363 0.00999999809
v -0.0012435583 -0.000838790313 0.012000001
v -0.0012435583 0.000838789567 0.00999999809
v -0.00113206424 0.000984086618 0.012000001
v -0.0011147169 0.00100369416 0.00999999809
v -0.00100369491 0.00111471616 0.012000001
v -0.00104528464 0.00994522057 0.00999999809
v -0.00121869124 0.00992546044 0.012000001
v -0.000871558562 -0.00996194877 0.00999999809
v -0.000871558562 -0.00996194877 0.012000001
v -0.000772557631 -0.00128574885 0.00999999809
v -0.000816960708 -0.00125800647 0.012000001
v -0.000838790313 -0.0012435583 0.00999999809
v -0.000984087363 -0.00113206424 0.012000001
v -0.000984087363 0.00113206349 0.00999999809
v -0.000838790313 0.00124355756 0.012000001
v -0.000816960708 0.00125800572 0.00999999809
v -0.000772557631 0.00128575288 0.012000001
v -0.000871558562 0.00996194802 0.00999999809
v -0.000871558562 0.00996194802 0.012000001
v -0.000697565452 -0.00997564353 0.00999999809
v -0.000523357764 -0.00998629607 0.012000001
v -0.000513029471 -0.00140954055 0.00999999809
v -0.000749998465 -0.00129903831 0.012000001
v -0.000749998465 0.00129903756 0.00999999809
v -0.000513029471 0.0014095398 0.012000001
v -0.000523357764 0.00998629533 0.00999999809
v -0.000697565452 0.00997564279 0.012000001
v -0.000348992721 -0.00999390639 0.00999999809
v -0.000348992721 -0.00999390639 0.012000001
v -0.00026047267 -0.00147721328 0.00999999809
v -0.000488353148 -0.00141827621 0.012000001
v -0.000488353148 0.00141828023 0.00999999809
v -0.00026047267 0.00147721253 0.012000001
v -0.000348992721 0.00999391042 0.00999999809
v -0.000348992721 0.00999391042 0.012000001
v -3.7279671e-10 -0.0100000004 0.00999999809
v -3.7279671e-10 -0.0100000004 0.012000001
v -0.000174522773 -0.00999847449 0.00999999809
v -0.000174522773 -0.00999847449 0.012000001
v -3.7279671e-10 -0.00150000133 0.00999999809
v -3.7279671e-10 -0.00150000133 0.012000001
v -2.61787328e-05 -0.00149977244 0.00999999809
v -0.000234651938 -0.00148153342 0.012000001
v -0.000234651938 0.00148153268 0.00999999809
v -2.61787328e-05 0.0014997717 0.012000001
v -3.7279671e-10 0.00150000058 0.00999999809
v -3.7279671e-10 0.00150000058 0.012000001
v -3.7279671e-10 0.00999999963 0.00999999809
v -0.000174522773 0.00999847852 0.012000001
v 0.000174522027 -0.00999847449 0.00999999809
v 0.000174522027 -0.00999847449 0.012000001
v 0.000234651193 -0.00148153342 0.00999999809
v 2.61779872e-05 -0.00149977244 0.012000001
v 2.61779872e-05 0.0014997717 0.00999999809
v 0.000234651193 0.00148153268 0.012000001
v 0.000174522027 0.00999847852 0.00999999809
v 0.000174522027 0.00999847852 0.012000001
v 0.000348996743 -0.00999390639 0.00999999809
v 0.000348996743 -0.00999390639 0.012000001
v 0.000488352403 -0.00141827621 0.00999999809
v 0.000260471925 -0.00147721328 0.012000001
v 0.000260471925 0.00147721253 0.00999999809
v 0.000488352403 0.00141828023 0.012000001
v 0.000348996743 0.00999391042 0.00999999809
v 0.000348996743 0.00999391042 0.012000001
v 0.000523361787 -0.00998629607 0.00999999809
v 0.000697564706 -0.00997564353 0.012000001
v 0.00074999772 -0.00129903831 0.00999999809
v 0.000513028726 -0.00140954055 0.012000001
v 0.000513028726 0.0014095398 0.00999999809
v 0.00074999772 0.00129903756 0.012000001
v 0.000697564706 0.00997564279 0.00999999809
v 0.000523361787 0.00998629533 0.012000001
v 0.000871557817 -0.00996194877 0.00999999809
v 0.000871557817 -0.00996194877 0.012000001
v 0.000816959962 -0.00125800647 0.00999999809
v 0.000772556886 -0.00128574885 0.012000001
v 0.000984086618 -0.00113206424 0.00999999809
v 0.000838789567 -0.0012435583 0.012000001
v 0.000838789567 0.00124355756 0.00999999809
v 0.000984086618 0.00113206349 0.012000001
v 0.000772556886 0.00128575288 0.00999999809
v 0.000816959962 0.00125800572 0.012000001
v 0.000871557817 0.00996194802 0.00999999809
v 0.000871557817 0.00996194802 0.012000001
v 0.0010452839 -0.00994522132 0.00999999809
v 0.00121869527 -0.00992546119 0.012000001
v 0.00111471616 -0.00100369491 0.00999999809
v 0.00100369416 -0.0011147169 0.012000001
v 0.00124355756 -0.000838790313 0.00999999809
v 0.00113206349 -0.000984087363 0.012000001
v 0.00113206349 0.000984086618 0.00999999809
v 0.00124355756 0.000838789567 0.012000001
v 0.0010606619 0.0010606619 0.00999999809
v 0.0010606619 0.0010606619 0.012000001
v 0.00121869527 0.00992546044 0.00999999809
v 0.0010452839 0.00994522057 0.012000001
v 0.00139172994 -0.00990267791 0.00999999809
v 0.00139172994 -0.00990267791 0.012000001
v 0.00128575288 -0.000772557631 0.00999999809
v 0.00125800572 -0.000816960708 0.012000001
v 0.0014095398 -0.000513029471 0.00999999809
v 0.00129903756 -0.000749998465 0.012000001
v 0.00147721253 -0.00026047267 0.00999999809
v 0.00141828023 -0.000488353148 0.012000001
v 0.0014997717 -2.61787328e-05 0.00999999809
v 0.00148153268 -0.000234651938 0.012000001
v 0.00148153268 0.000234651193 0.00999999809
v 0.0014997717 2.61779872e-05 0.012000001
v 0.00141828023 0.000488352403 0.00999999809
v 0.00147721253 0.000260471925 0.012000001
v 0.00129903756 0.00074999772 0.00999999809
v 0.0014095398 0.000513028726 0.012000001
v 0.00125800572 0.000816959962 0.00999999809
v 0.00128575288 0.000772556886 0.012000001
v 0.00139172994 0.00990268193 0.00999999809
v 0.00139172994 0.00990268193 0.012000001
v 0.00156434499 -0.00987688102 0.00999999809
v 0.0017364832 -0.00984808005 0.012000001
v 0.00150000058 -3.72796696e-10 0.00999999809
v 0.00150000058 -3.72796696e-10 0.012000001
v 0.0017364832 0.00984807931 0.00999999809
v 0.00156434499 0.00987688504 0.012000001
v 0.00190809213 -0.00981627502 0.00999999809
v 0.00190809213 -0.00981627502 0.012000001
v 0.00190809213 0.0098162695 0.00999999809
v 0.00190809213 0.0098162695 0.012000001
v 0.00207911454 -0.00978147544 0.00999999809
v 0.00207911454 -0.00978147544 0.012000001
v 0.0022495123 -0.0097437004 0.00999999809
v 0.0022495123 -0.0097437004 0.012000001
v 0.0022495123 0.00974369965 0.00999999809
v 0.0022495123 0.00974369965 0.012000001
v 0.00207911454 0.00978147469 0.00999999809
v 0.00207911454 0.00978147469 0.012000001
v 0.00241921864 -0.00970295943 0.00999999809
v 0.00241921864 -0.00970295943 0.012000001
v 0.00241921864 0.00970295869 0.00999999809
v 0.00241921864 0.00970295869 0.012000001
v 0.00258819066 -0.00965926208 0.00999999809
v 0.00258819066 -0.00965926208 0.012000001
v 0.00258819066 0.00965925656 0.00999999809
v 0.00258819066 0.00965925656 0.012000001
v 0.00275637589 -0.00961261787 0.00999999809
v 0.00292371713 -0.00956304587 0.012000001
v 0.00292371713 0.0095630499 0.00999999809
v 0.00275637589 0.00961261712 0.012000001
v 0.00309017144 -0.00951056518 0.00999999809
v 0.00309017144 -0.00951056518 0.012000001
v 0.00309017144 0.00951056443 0.00999999809
v 0.00309017144 0.00951056443 0.012000001
v 0.00325568162 -0.00945518531 0.00999999809
v 0.00342019998 -0.00939692535 0.012000001
v 0.00342019998 0.0093969246 0.00999999809
v 0.00325568162 0.00945518456 0.012000001
v 0.00358367883 -0.00933580436 0.00999999809
v 0.00374606572 -0.00927184142 0.012000001
v 0.00374606572 0.00927184068 0.00999999809
v 0.00358367883 0.00933580361 0.012000001
v 0.00390731297 -0.00920504607 0.00999999809
v 0.00390731297 -0.00920504607 0.012000001
v 0.00390731297 0.0092050501 0.00999999809
v 0.00390731297 0.0092050501 0.012000001
v 0.00406736813 -0.00913545646 0.00999999809
v 0.00422618352 -0.00906308211 0.012000001
v 0.00422618352 0.0090630766 0.00999999809
v 0.00406736813 0.00913545571 0.012000001
v 0.00438371144 -0.00898794211 0.00999999809
v 0.00438371144 -0.00898794211 0.012000001
v 0.00438371144 0.00898794137 0.00999999809
v 0.00438371144 0.00898794137 0.012000001
v 0.00453990422 -0.00891006507 0.00999999809
v 0.00469471417 -0.00882947959 0.012000001
v 0.00474491082 0.00504174195 0.00999999809
v 0.00463695012 0.00524478875 0.012000001
v 0.00462991677 0.00526265107 0.00999999809
v 0.00457039796 0.00548477612 0.012000001
v 0.00456756078 0.00550376378 0.00999999809
v 0.00455953561 0.00573358498 0.012000001
v 0.00456104241 0.00575272523 0.00999999809
v 0.0046106907 0.00599677525 0.012000001
v 0.00461678468 0.0060149809 0.00999999809
v 0.00472400151 0.0062397667 0.012000001
v 0.0047343155 0.00625595532 0.00999999809
v 0.00474491082 0.00627196752 0.012000001
v 0.00469471417 0.00882947408 0.00999999809
v 0.00453990422 0.00891006432 0.012000001
v 0.00484809838 -0.00874619521 0.00999999809
v 0.00499999963 -0.00866025008 0.012000001
v 0.00499485932 0.00477835618 0.00999999809
v 0.00477835618 0.00499485932 0.012000001
v 0.00476693593 0.00501028977 0.00999999809
v 0.00475578748 0.0050259205 0.012000001
v 0.00475578748 0.00628778897 0.00999999809
v 0.00494978867 0.00649950467 0.012000001
v 0.004964604 0.00651171647 0.00999999809
v 0.00499485932 0.00653535329 0.012000001
v 0.00499999963 0.00866025411 0.00999999809
v 0.00484809838 0.00874619924 0.012000001
v 0.00515037976 -0.00857167281 0.00999999809
v 0.00515037976 -0.00857167281 0.012000001
v 0.00524478875 0.00463695012 0.00999999809
v 0.00504174195 0.00474491082 0.012000001
v 0.0050259205 0.00475578748 0.00999999809
v 0.00501028977 0.00476693593 0.012000001
v 0.00501028977 0.00654677354 0.00999999809
v 0.00524478875 0.00667675458 0.012000001
v 0.00515037976 0.00857167207 0.00999999809
v 0.00515037976 0.00857167207 0.012000001
v 0.0052991911 -0.00848048247 0.00999999809
v 0.00544639073 -0.00838670768 0.012000001
v 0.00548477612 0.00457039796 0.00999999809
v 0.00526265107 0.00462991677 0.012000001
v 0.00526265107 0.0066837927 0.00999999809
v 0.00548477612 0.00674331151 0.012000001
v 0.00544639073 0.00838670693 0.00999999809
v 0.0052991911 0.00848048173 0.012000001
v 0.00559193097 -0.00829037704 0.00999999809
v 0.00559193097 -0.00829037704 0.012000001
v 0.00573576413 -0.00819151916 0.00999999809
v 0.00573576413 -0.00819151916 0.012000001
v 0.00573358498 0.00455953561 0.00999999809
v 0.00550376378 0.00456756078 0.012000001
v 0.00550376378 0.00674614869 0.00999999809
v 0.00552279912 0.00674865685 0.012000001
v 0.00554187261 0.00675082646 0.00999999809
v 0.00573358498 0.00675417386 0.012000001
v 0.00573576413 0.00819151841 0.00999999809
v 0.00573576413 0.00819151841 0.012000001
v 0.00559193097 0.00829037629 0.00999999809
v 0.00559193097 0.00829037629 0.012000001
v 0.00587785207 -0.00809017219 0.00999999809
v 0.00587785207 -0.00809017219 0.012000001
v 0.00599677525 0.0046106907 0.00999999809
v 0.00575272523 0.00456104241 0.012000001
v 0.00579091035 0.00674865685 0.00999999809
v 0.00599677525 0.00670301877 0.012000001
v 0.00575272523 0.00675266705 0.00999999809
v 0.00577183686 0.00675082646 0.012000001
v 0.00587785207 0.00809017144 0.00999999809
v 0.00587785207 0.00809017144 0.012000001
v 0.00601815186 -0.0079863552 0.00999999809
v 0.00615661584 -0.00788010635 0.012000001
v 0.0062397667 0.00472400151 0.00999999809
v 0.0060149809 0.00461678468 0.012000001
v 0.0060149809 0.00669692479 0.00999999809
v 0.0062397667 0.00658970796 0.012000001
v 0.00615661584 0.0078801056 0.00999999809
v 0.00601815186 0.00798635446 0.012000001
v 0.00629320584 -0.00777146377 0.00999999809
v 0.00629320584 -0.00777146377 0.012000001
v 0.00642787419 -0.00766044654 0.00999999809
v 0.00642787419 -0.00766044654 0.012000001
v 0.00627196752 0.00474491082 0.00999999809
v 0.00625595532 0.0047343155 0.012000001
v 0.00649950467 0.00494978867 0.00999999809
v 0.00628778897 0.00475578748 0.012000001
v 0.00643467389 0.00643467389 0.00999999809
v 0.00643467389 0.00643467389 0.012000001
v 0.00625595532 0.00657939397 0.00999999809
v 0.00634910546 0.00651171647 0.012000001
v 0.00642787419 0.00766044579 0.00999999809
v 0.00642787419 0.00766044579 0.012000001
v 0.00629320584 0.00777145825 0.00999999809
v 0.00629320584 0.00777145825 0.012000001
v 0.00656059228 -0.00754709281 0.00999999809
v 0.00656059228 -0.00754709281 0.012000001
v 0.00669130765 -0.00743145026 0.00999999809
v 0.00669130765 -0.00743145026 0.012000001
v 0.00653535329 0.00499485932 0.00999999809
v 0.00651171647 0.004964604 0.012000001
v 0.00667675458 0.00524478875 0.00999999809
v 0.00654677354 0.00501028977 0.012000001
v 0.00674331151 0.00548477612 0.00999999809
v 0.0066837927 0.00526265107 0.012000001
v 0.00674865685 0.00552279912 0.00999999809
v 0.00674614869 0.00550376378 0.012000001
v 0.00670301877 0.00599677525 0.00999999809
v 0.00674865685 0.00579091035 0.012000001
v 0.00658970796 0.0062397667 0.00999999809
v 0.00669692479 0.0060149809 0.012000001
v 0.00651171647 0.00634910546 0.00999999809
v 0.00657939397 0.00625595532 0.012000001
v 0.00669130765 0.00743144952 0.00999999809
v 0.00669130765 0.00743144952 0.012000001
v 0.00656059228 0.00754709683 0.00999999809
v 0.00656059228 0.00754709683 0.012000001
v 0.00681998216 -0.00731353797 0.00999999809
v 0.00681998216 -0.00731353797 0.012000001
v 0.00694658242 -0.00719339408 0.00999999809
v 0.00694658242 -0.00719339408 0.012000001
v 0.00675417386 0.00573358498 0.00999999809
v 0.00675082646 0.00554187261 0.012000001
v 0.00675082646 0.00577183686 0.00999999809
v 0.00675266705 0.00575272523 0.012000001
v 0.00694658242 0.0071933981 0.00999999809
v 0.00694658242 0.0071933981 0.012000001
v 0.00681998216 0.00731353722 0.00999999809
v 0.00681998216 0.00731353722 0.012000001
v 0.00707106553 -0.00707106628 0.00999999809
v 0.00707106553 -0.00707106628 0.012000001
v 0.0071933981 -0.00694658317 0.00999999809
v 0.0071933981 -0.00694658317 0.012000001
v 0.0071933981 0.00694658242 0.00999999809
v 0.0071933981 0.00694658242 0.012000001
v 0.00707106553 0.00707106553 0.00999999809
v 0.00707106553 0.00707106553 0.012000001
v 0.00731353722 -0.0068199829 0.00999999809
v 0.00731353722 -0.0068199829 0.012000001
v 0.00743144952 -0.00669130363 0.00999999809
v 0.00743144952 -0.00669130363 0.012000001
v 0.00743144952 0.00669130765 0.00999999809
v 0.00743144952 0.00669130765 0.012000001
v 0.00731353722 0.00681998216 0.00999999809
v 0.00731353722 0.00681998216 0.012000001
v 0.00754709683 -0.00656059302 0.00999999809
v 0.00754709683 -0.00656059302 0.012000001
v 0.00766044579 -0.00642787971 0.00999999809
v 0.00766044579 -0.00642787971 0.012000001
v 0.00766044579 0.00642787419 0.00999999809
v 0.00766044579 0.00642787419 0.012000001
v 0.00754709683 0.00656059228 0.00999999809
v 0.00754709683 0.00656059228 0.012000001
v 0.00777145825 -0.00629320182 0.00999999809
v 0.00777145825 -0.00629320182 0.012000001
v 0.0078801056 -0.00615661658 0.00999999809
v 0.00798635446 -0.00601815261 0.012000001
v 0.00798635446 0.00601815186 0.00999999809
v 0.0078801056 0.00615661584 0.012000001
v 0.00777145825 0.00629320584 0.00999999809
v 0.00777145825 0.00629320584 0.012000001
v 0.00809017144 -0.00587784804 0.00999999809
v 0.00809017144 -0.00587784804 0.012000001
v 0.00819151841 -0.00573576011 0.00999999809
v 0.00819151841 -0.00573576011 0.012000001
v 0.00819151841 0.00573576413 0.00999999809
v 0.00819151841 0.00573576413 0.012000001
v 0.00809017144 0.00587785207 0.00999999809
v 0.00809017144 0.00587785207 0.012000001
v 0.00829037629 -0.00559192695 0.00999999809
v 0.00829037629 -0.00559192695 0.012000001
v 0.00838670693 -0.00544638671 0.00999999809
v 0.00848048173 -0.00529919662 0.012000001
v 0.00848048173 0.0052991911 0.00999999809
v 0.00838670693 0.00544639073 0.012000001
v 0.00829037629 0.00559193097 0.00999999809
v 0.00829037629 0.00559193097 0.012000001
v 0.00857167207 -0.00515038528 0.00999999809
v 0.00866025411 -0.00500000037 0.012000001
v 0.00874619924 -0.00484809913 0.00999999809
v 0.00874619924 -0.00484809913 0.012000001
v 0.00874619924 0.00484809838 0.00999999809
v 0.00866025411 0.00499999963 0.012000001
v 0.00857167207 0.00515037976 0.00999999809
v 0.00857167207 0.00515037976 0.012000001
v 0.00882947408 -0.00469471969 0.00999999809
v 0.00891006432 -0.00453990974 0.012000001
v 0.00898794137 -0.00438370742 0.00999999809
v 0.00898794137 -0.00438370742 0.012000001
v 0.00898794137 0.00438371144 0.00999999809
v 0.00898794137 0.00438371144 0.012000001
v 0.00891006432 0.00453990422 0.00999999809
v 0.00882947408 0.00469471417 0.012000001
v 0.0090630766 -0.0042261795 0.00999999809
v 0.00913545571 -0.00406736411 0.012000001
v 0.0092050501 -0.00390730895 0.00999999809
v 0.0092050501 -0.00390730895 0.012000001
v 0.0092050501 0.00390731297 0.00999999809
v 0.0092050501 0.00390731297 0.012000001
v 0.00913545571 0.00406736813 0.00999999809
v 0.0090630766 0.00422618352 0.012000001
v 0.00927184068 -0.0037460617 0.00999999809
v 0.00933580361 -0.00358367957 0.012000001
v 0.0093969246 -0.00342020072 0.00999999809
v 0.00945518456 -0.00325568236 0.012000001
v 0.00945518456 0.00325568162 0.00999999809
v 0.0093969246 0.00342019998 0.012000001
v 0.00933580361 0.00358367883 0.00999999809
v 0.00927184068 0.00374606572 0.012000001
v 0.00951056443 -0.00309017219 0.00999999809
v 0.00951056443 -0.00309017219 0.012000001
v 0.0095630499 -0.00292371787 0.00999999809
v 0.00961261712 -0.00275637187 0.012000001
v 0.00965925656 -0.00258819141 0.00999999809
v 0.00965925656 -0.00258819141 0.012000001
v 0.00970295869 -0.00241921939 0.00999999809
v 0.00970295869 -0.00241921939 0.012000001
v 0.00974369965 -0.00224950828 0.00999999809
v 0.00974369965 -0.00224950828 0.012000001
v 0.00974369965 0.0022495123 0.00999999809
v 0.00974369965 0.0022495123 0.012000001
v 0.00970295869 0.00241921864 0.00999999809
v 0.00970295869 0.00241921864 0.012000001
v 0.00965925656 0.00258819066 0.00999999809
v 0.00965925656 0.00258819066 0.012000001
v 0.00961261712 0.00275637589 0.00999999809
v 0.0095630499 0.00292371713 0.012000001
v 0.00951056443 0.00309017144 0.00999999809
v 0.00951056443 0.00309017144 0.012000001
v 0.00978147469 -0.00207911529 0.00999999809
v 0.00978147469 -0.00207911529 0.012000001
v 0.0098162695 -0.0019080881 0.00999999809
v 0.0098162695 -0.0019080881 0.012000001
v 0.00984807931 -0.00173648395 0.00999999809
v 0.00987688504 -0.00156434573 0.012000001
v 0.00990268193 -0.00139173068 0.00999999809
v 0.00990268193 -0.00139173068 0.012000001
v 0.00992546044 -0.00121869124 0.00999999809
v 0.00994522057 -0.00104528464 0.012000001
v 0.00996194802 -0.000871558562 0.00999999809
v 0.00996194802 -0.000871558562 0.012000001
v 0.00997564279 -0.000697565452 0.00999999809
v 0.00998629533 -0.000523357764 0.012000001
v 0.00999391042 -0.000348992721 0.00999999809
v 0.00999391042 -0.000348992721 0.012000001
v 0.00999847852 -0.000174522773 0.00999999809
v 0.00999999963 -3.72796696e-10 0.012000001
v 0.00999847852 0.000174522027 0.00999999809
v 0.00999847852 0.000174522027 0.012000001
v 0.00999391042 0.000348996743 0.00999999809
v 0.00999391042 0.000348996743 0.012000001
v 0.00998629533 0.000523361787 0.00999999809
v 0.00997564279 0.000697564706 0.012000001
v 0.00996194802 0.000871557817 0.00999999809
v 0.00996194802 0.000871557817 0.012000001
v 0.00994522057 0.0010452839 0.00999999809
v 0.00992546044 0.00121869527 0.012000001
v 0.00990268193 0.00139172994 0.00999999809
v 0.00990268193 0.00139172994 0.012000001
v 0.00987688504 0.00156434499 0.00999999809
v 0.00984807931 0.0017364832 0.012000001
v 0.0098162695 0.00190809213 0.00999999809
v 0.0098162695 0.00190809213 0.012000001
v 0.00978147469 0.00207911454 0.00999999809
v 0.00978147469 0.00207911454 0.012000001
f 1 20 2
f 1 2 21
f 19 20 1
f 393 19 1
f 393 1 21
f 20 350 2
f 21 2 22
f 2 350 22
f 3 4 5
f 3 48 4
f 471 3 5
f 47 48 3
f 479 47 3
f 479 3 471
f 5 4 6
f 4 350 6
f 48 350 4
f 5 6 7
f 467 5 7
f 471 5 467
f 7 6 8
f 6 350 8
f 7 8 9
f 461 7 9
f 467 7 461
f 9 8 10
f 8 350 10
f 9 10 11
f 441 9 11
f 461 9 441
f 11 10 12
f 10 350 12
f 11 12 13
f 429 11 13
f 441 11 429
f 13 12 14
f 12 350 14
f 13 14 15
f 417 13 15
f 429 13 417
f 15 14 16
f 14 350 16
f 15 16 17
f 409 15 17
f 417 15 409
f 17 16 18
f 16 350 18
f 17 18 19
f 401 17 19
f 409 17 401
f 19 18 20
f 18 350 20
f 401 19 393
f 21 22 23
f 379 21 23
f 393 21 379
f 23 22 24
f 22 350 24
f 23 24 25
f 371 23 25
f 379 23 371
f 25 24 26
f 24 350 26
f 25 26 27
f 363 25 27
f 371 25 363
f 27 26 28
f 26 350 28
f 27 28 29
f 351 27 29
f 363 27 351
f 29 28 30
f 28 350 30
f 29 30 31
f 339 29 31
f 351 29 339
f 31 30 32
f 30 350 32
f 31 32 33
f 319 31 33
f 339 31 319
f 33 32 34
f 32 350 34
f 33 34 35
f 313 33 35
f 319 33 313
f 35 34 36
f 34 350 36
f 35 36 37
f 309 35 37
f 313 35 309
f 37 36 38
f 36 350 38
f 37 38 49
f 307 37 49
f 309 37 307
f 49 38 50
f 38 350 50
f 39 40 41
f 39 62 40
f 491 39 41
f 61 62 39
f 495 61 39
f 495 39 491
f 41 40 42
f 40 350 42
f 62 350 40
f 41 42 43
f 487 41 43
f 491 41 487
f 43 42 44
f 42 350 44
f 43 44 45
f 483 43 45
f 487 43 483
f 45 44 46
f 44 350 46
f 45 46 47
f 477 45 47
f 483 45 477
f 47 46 48
f 46 350 48
f 477 47 479
f 49 50 51
f 301 49 51
f 307 49 301
f 51 50 52
f 50 350 52
f 51 52 53
f 297 51 53
f 301 51 297
f 53 52 54
f 52 350 54
f 53 54 55
f 293 53 55
f 297 53 293
f 55 54 56
f 54 350 56
f 55 56 57
f 289 55 57
f 293 55 289
f 57 56 58
f 56 350 58
f 57 58 63
f 285 57 63
f 289 57 285
f 63 58 64
f 58 350 64
f 59 60 61
f 59 70 60
f 499 59 61
f 69 70 59
f 503 69 59
f 503 59 499
f 61 60 62
f 60 350 62
f 70 350 60
f 499 61 495
f 63 64 65
f 281 63 65
f 285 63 281
f 65 64 66
f 64 350 66
f 65 66 71
f 277 65 71
f 281 65 277
f 71 66 72
f 66 350 72
f 67 68 69
f 67 78 68
f 507 67 69
f 77 78 67
f 67 181 77
f 331 181 67
f 67 333 331
f 67 335 333
f 67 337 335
f 67 347 337
f 349 347 67
f 511 349 67
f 511 67 507
f 69 68 70
f 68 350 70
f 78 350 68
f 507 69 503
f 71 72 73
f 273 71 73
f 277 71 273
f 73 72 74
f 72 350 74
f 73 74 79
f 269 73 79
f 273 73 269
f 79 74 80
f 74 350 80
f 75 76 77
f 75 86 76
f 77 181 75
f 85 86 75
f 75 167 85
f 181 167 75
f 77 76 78
f 76 350 78
f 86 350 76
f 79 80 81
f 265 79 81
f 269 79 265
f 81 80 82
f 80 350 82
f 81 82 87
f 249 81 87
f 265 81 249
f 87 82 88
f 82 350 88
f 83 84 85
f 83 94 84
f 85 165 83
f 93 94 83
f 83 165 93
f 85 84 86
f 84 350 86
f 94 350 84
f 167 165 85
f 87 88 89
f 237 87 89
f 249 87 237
f 89 88 90
f 88 350 90
f 89 90 95
f 227 89 95
f 237 89 227
f 95 90 96
f 90 350 96
f 91 92 93
f 91 102 92
f 93 163 91
f 101 102 91
f 91 163 101
f 93 92 94
f 92 350 94
f 102 350 92
f 93 165 163
f 95 96 97
f 219 95 97
f 227 95 219
f 97 96 98
f 96 350 98
f 97 98 103
f 217 97 103
f 219 97 217
f 103 98 104
f 98 350 104
f 99 100 101
f 99 110 100
f 101 163 99
f 109 110 99
f 99 145 109
f 161 145 99
f 99 163 161
f 101 100 102
f 100 350 102
f 110 336 100
f 100 336 338
f 100 338 348
f 348 350 100
f 103 104 105
f 205 103 105
f 217 103 205
f 105 104 106
f 104 350 106
f 105 106 111
f 195 105 111
f 205 105 195
f 111 106 112
f 106 350 112
f 107 108 109
f 107 118 108
f 109 143 107
f 117 118 107
f 107 159 117
f 107 143 159
f 109 108 110
f 108 166 110
f 118 162 108
f 108 162 164
f 108 164 166
f 109 145 143
f 110 166 168
f 110 168 182
f 110 182 332
f 110 332 334
f 110 334 336
f 111 112 113
f 187 111 113
f 195 111 187
f 113 112 114
f 112 350 114
f 113 114 119
f 185 113 119
f 187 113 185
f 119 114 120
f 114 350 120
f 115 116 117
f 115 126 116
f 117 159 115
f 125 126 115
f 115 157 125
f 115 159 157
f 117 116 118
f 116 144 118
f 126 160 116
f 116 160 144
f 118 144 146
f 146 162 118
f 119 120 121
f 171 119 121
f 185 119 171
f 121 120 122
f 120 350 122
f 121 122 127
f 169 121 127
f 171 121 169
f 127 122 128
f 122 350 128
f 123 124 125
f 123 134 124
f 125 157 123
f 133 134 123
f 123 155 133
f 157 155 123
f 125 124 126
f 124 158 126
f 134 156 124
f 156 158 124
f 126 158 160
f 127 128 129
f 149 127 129
f 169 127 149
f 129 128 130
f 128 350 130
f 129 130 135
f 147 129 135
f 149 129 147
f 135 130 136
f 130 350 136
f 131 132 133
f 131 142 132
f 133 179 131
f 141 142 131
f 131 179 141
f 133 132 134
f 132 180 134
f 142 178 132
f 132 178 180
f 133 155 179
f 180 156 134
f 135 136 137
f 147 135 137
f 137 136 138
f 136 350 138
f 137 138 147
f 147 138 148
f 138 350 148
f 139 140 141
f 139 154 140
f 141 177 139
f 153 154 139
f 139 191 153
f 139 177 191
f 141 140 142
f 140 192 142
f 154 202 140
f 140 202 192
f 179 177 141
f 192 178 142
f 143 146 144
f 143 144 159
f 145 146 143
f 159 144 160
f 145 162 146
f 161 162 145
f 147 148 149
f 149 148 150
f 148 350 150
f 149 150 169
f 169 150 170
f 150 350 170
f 151 152 153
f 151 176 152
f 153 191 151
f 175 176 151
f 151 201 175
f 191 201 151
f 153 152 154
f 152 200 154
f 176 214 152
f 212 200 152
f 152 214 212
f 154 200 202
f 155 158 156
f 155 156 179
f 157 158 155
f 179 156 180
f 157 160 158
f 159 160 157
f 161 164 162
f 163 164 161
f 163 166 164
f 165 166 163
f 165 168 166
f 167 168 165
f 167 182 168
f 181 182 167
f 169 170 171
f 171 170 172
f 170 350 172
f 171 172 185
f 185 172 186
f 172 360 186
f 172 350 360
f 173 174 175
f 173 190 174
f 175 201 173
f 189 190 173
f 173 199 189
f 201 199 173
f 175 174 176
f 174 232 176
f 190 244 174
f 174 242 232
f 174 244 242
f 224 214 176
f 176 232 224
f 177 180 178
f 177 178 191
f 179 180 177
f 191 178 192
f 181 184 182
f 183 184 181
f 331 183 181
f 332 182 184
f 183 194 184
f 193 194 183
f 193 183 331
f 332 184 194
f 185 186 187
f 187 186 188
f 186 360 188
f 187 188 195
f 195 188 196
f 188 360 196
f 189 198 190
f 197 198 189
f 189 211 197
f 189 199 211
f 198 424 190
f 244 190 398
f 190 406 398
f 190 414 406
f 190 422 414
f 190 424 422
f 191 192 201
f 201 192 202
f 193 204 194
f 203 204 193
f 329 203 193
f 329 193 317
f 317 193 331
f 330 194 204
f 318 194 330
f 332 194 318
f 195 196 205
f 205 196 206
f 196 360 206
f 197 210 198
f 209 210 197
f 197 433 209
f 211 213 197
f 197 213 223
f 223 231 197
f 231 241 197
f 241 243 197
f 243 413 197
f 197 413 421
f 197 421 423
f 423 433 197
f 210 424 198
f 199 202 200
f 199 200 211
f 201 202 199
f 211 200 212
f 203 216 204
f 215 216 203
f 327 215 203
f 327 203 329
f 328 204 216
f 330 204 328
f 205 206 217
f 217 206 218
f 206 360 218
f 207 208 209
f 207 222 208
f 209 433 207
f 221 222 207
f 207 433 221
f 209 208 210
f 208 424 210
f 222 424 208
f 211 212 213
f 213 212 214
f 213 214 223
f 223 214 224
f 215 226 216
f 225 226 215
f 327 225 215
f 328 216 226
f 217 218 219
f 219 218 220
f 218 360 220
f 219 220 227
f 227 220 228
f 220 360 228
f 221 230 222
f 229 230 221
f 221 433 229
f 230 424 222
f 223 224 231
f 231 224 232
f 225 236 226
f 235 236 225
f 325 235 225
f 325 225 327
f 326 226 236
f 328 226 326
f 227 228 237
f 237 228 238
f 228 362 238
f 228 360 362
f 229 240 230
f 239 240 229
f 229 433 239
f 240 424 230
f 231 232 241
f 241 232 242
f 233 234 235
f 233 248 234
f 345 233 235
f 247 248 233
f 345 247 233
f 235 234 236
f 346 236 234
f 346 234 248
f 323 235 325
f 345 235 323
f 326 236 324
f 324 236 346
f 237 238 249
f 249 238 250
f 238 370 250
f 238 362 370
f 239 252 240
f 251 252 239
f 239 433 251
f 252 424 240
f 241 242 243
f 243 242 244
f 243 244 253
f 253 397 243
f 243 397 405
f 405 413 243
f 253 244 254
f 398 254 244
f 245 246 247
f 245 264 246
f 247 357 245
f 263 264 245
f 245 357 263
f 247 246 248
f 358 248 246
f 358 246 264
f 343 247 345
f 247 343 357
f 346 248 344
f 344 248 358
f 249 250 265
f 265 250 266
f 250 370 266
f 251 268 252
f 267 268 251
f 251 433 267
f 268 424 252
f 253 254 255
f 255 385 253
f 253 385 397
f 255 254 256
f 386 256 254
f 386 254 398
f 255 256 257
f 257 387 255
f 255 387 385
f 257 256 258
f 388 258 256
f 388 256 386
f 257 258 259
f 259 375 257
f 257 375 387
f 259 258 260
f 376 260 258
f 376 258 388
f 259 260 261
f 261 375 259
f 261 260 262
f 376 262 260
f 261 262 263
f 263 367 261
f 261 367 375
f 263 262 264
f 368 264 262
f 368 262 376
f 263 357 355
f 263 355 367
f 358 264 356
f 356 264 368
f 265 266 269
f 269 266 270
f 266 370 270
f 267 272 268
f 271 272 267
f 267 433 271
f 272 424 268
f 269 270 273
f 273 270 274
f 270 370 274
f 271 276 272
f 275 276 271
f 271 433 275
f 276 424 272
f 273 274 277
f 277 274 278
f 274 370 278
f 275 280 276
f 279 280 275
f 275 433 279
f 280 424 276
f 277 278 281
f 281 278 282
f 278 370 282
f 279 284 280
f 283 284 279
f 279 433 283
f 284 424 280
f 281 282 285
f 285 282 286
f 282 370 286
f 283 288 284
f 287 288 283
f 283 433 287
f 288 424 284
f 285 286 289
f 289 286 290
f 286 378 290
f 286 370 378
f 287 292 288
f 291 292 287
f 287 433 291
f 292 424 288
f 289 290 293
f 293 290 294
f 290 378 294
f 291 296 292
f 295 296 291
f 291 433 295
f 296 424 292
f 293 294 297
f 297 294 298
f 294 378 298
f 295 300 296
f 299 300 295
f 295 433 299
f 300 424 296
f 297 298 301
f 301 298 302
f 298 378 302
f 299 306 300
f 305 306 299
f 299 433 305
f 306 424 300
f 301 302 307
f 307 302 308
f 302 378 308
f 303 304 305
f 303 312 304
f 305 433 303
f 311 312 303
f 303 433 311
f 305 304 306
f 304 424 306
f 312 424 304
f 307 308 309
f 309 308 310
f 308 378 310
f 309 310 313
f 313 310 314
f 310 378 314
f 311 316 312
f 315 316 311
f 311 433 315
f 316 424 312
f 313 314 319
f 319 314 320
f 314 378 320
f 315 322 316
f 321 322 315
f 315 433 321
f 322 424 316
f 317 318 329
f 317 332 318
f 331 332 317
f 329 318 330
f 319 320 339
f 339 320 340
f 320 390 340
f 320 378 390
f 321 342 322
f 341 342 321
f 321 433 341
f 342 424 322
f 323 326 324
f 323 324 345
f 325 326 323
f 345 324 346
f 325 328 326
f 327 328 325
f 327 330 328
f 329 330 327
f 331 334 332
f 333 334 331
f 333 336 334
f 335 336 333
f 335 338 336
f 337 338 335
f 337 348 338
f 347 348 337
f 339 340 351
f 351 340 352
f 340 390 352
f 341 354 342
f 353 354 341
f 341 433 353
f 354 424 342
f 343 346 344
f 343 344 357
f 345 346 343
f 357 344 358
f 347 350 348
f 349 350 347
f 349 360 350
f 359 360 349
f 585 359 349
f 515 349 511
f 531 349 515
f 543 349 531
f 553 349 543
f 561 349 553
f 575 349 561
f 573 349 575
f 585 349 573
f 351 352 363
f 363 352 364
f 352 390 364
f 353 366 354
f 365 366 353
f 353 433 365
f 366 424 354
f 355 358 356
f 355 356 367
f 357 358 355
f 367 356 368
f 359 362 360
f 361 362 359
f 585 361 359
f 361 370 362
f 369 370 361
f 585 369 361
f 363 364 371
f 371 364 372
f 364 390 372
f 365 374 366
f 373 374 365
f 365 433 373
f 374 424 366
f 367 368 375
f 375 368 376
f 369 378 370
f 377 378 369
f 539 377 369
f 539 369 585
f 371 372 379
f 379 372 380
f 372 390 380
f 373 384 374
f 383 384 373
f 373 433 383
f 384 424 374
f 375 376 387
f 387 376 388
f 377 390 378
f 389 390 377
f 539 389 377
f 379 380 393
f 380 390 394
f 393 380 394
f 381 382 383
f 381 396 382
f 383 433 381
f 395 396 381
f 381 433 395
f 383 382 384
f 382 424 384
f 396 424 382
f 385 388 386
f 385 386 397
f 387 388 385
f 397 386 398
f 389 392 390
f 391 392 389
f 389 525 391
f 389 527 525
f 389 529 527
f 539 529 389
f 392 526 390
f 394 390 402
f 402 390 410
f 410 390 418
f 418 390 430
f 430 390 442
f 442 390 540
f 526 528 390
f 390 528 530
f 390 530 540
f 391 400 392
f 399 400 391
f 391 523 399
f 391 525 523
f 400 524 392
f 392 524 526
f 393 394 401
f 401 394 402
f 395 404 396
f 403 404 395
f 395 433 403
f 404 424 396
f 397 398 405
f 405 398 406
f 399 408 400
f 407 408 399
f 399 523 407
f 408 524 400
f 401 402 409
f 409 402 410
f 403 412 404
f 411 412 403
f 403 433 411
f 412 424 404
f 405 406 413
f 413 406 414
f 407 416 408
f 415 416 407
f 407 521 415
f 407 523 521
f 416 522 408
f 408 522 524
f 409 410 417
f 417 410 418
f 411 420 412
f 419 420 411
f 411 433 419
f 420 424 412
f 413 414 421
f 421 414 422
f 415 428 416
f 427 428 415
f 415 519 427
f 415 521 519
f 428 520 416
f 416 520 522
f 417 418 429
f 429 418 430
f 419 432 420
f 431 432 419
f 419 433 431
f 432 424 420
f 421 422 423
f 423 422 424
f 423 424 433
f 444 424 432
f 433 424 434
f 612 434 424
f 464 424 444
f 470 424 464
f 474 424 470
f 476 424 474
f 482 424 476
f 486 424 482
f 490 424 486
f 494 424 490
f 498 424 494
f 502 424 498
f 506 424 502
f 510 424 506
f 514 424 510
f 518 424 514
f 534 424 518
f 546 424 534
f 556 424 546
f 564 424 556
f 566 424 564
f 578 424 566
f 588 424 578
f 596 424 588
f 598 424 596
f 612 424 598
f 425 426 427
f 425 440 426
f 427 519 425
f 439 440 425
f 425 535 439
f 425 519 537
f 425 537 535
f 427 426 428
f 426 520 428
f 440 536 426
f 426 538 520
f 426 536 538
f 429 430 441
f 441 430 442
f 431 444 432
f 431 433 443
f 443 444 431
f 433 434 435
f 661 433 435
f 443 433 463
f 463 433 469
f 469 433 473
f 473 433 475
f 475 433 481
f 481 433 485
f 485 433 489
f 489 433 493
f 493 433 497
f 497 433 501
f 501 433 505
f 505 433 509
f 509 433 513
f 513 433 517
f 517 433 533
f 533 433 545
f 545 433 555
f 555 433 563
f 563 433 565
f 565 433 577
f 577 433 587
f 587 433 595
f 595 433 597
f 597 433 611
f 611 433 613
f 613 433 633
f 633 433 635
f 635 433 645
f 645 433 647
f 647 433 653
f 653 433 655
f 655 433 661
f 435 434 436
f 684 436 434
f 614 434 612
f 634 434 614
f 636 434 634
f 646 434 636
f 648 434 646
f 654 434 648
f 656 434 654
f 662 434 656
f 664 434 662
f 670 434 664
f 672 434 670
f 678 434 672
f 680 434 678
f 686 434 680
f 684 434 682
f 682 434 692
f 688 434 686
f 694 434 688
f 692 434 690
f 690 434 700
f 696 434 694
f 702 434 696
f 700 434 698
f 698 434 708
f 704 434 702
f 710 434 704
f 708 434 706
f 706 434 716
f 712 434 710
f 718 434 712
f 716 434 714
f 714 434 724
f 720 434 718
f 726 434 720
f 724 434 722
f 722 434 744
f 728 434 726
f 730 434 728
f 732 434 730
f 734 434 732
f 746 434 734
f 738 434 736
f 736 434 780
f 740 434 738
f 742 434 740
f 744 434 742
f 748 434 746
f 750 434 748
f 752 434 750
f 754 434 752
f 756 434 754
f 758 434 756
f 760 434 758
f 762 434 760
f 764 434 762
f 766 434 764
f 768 434 766
f 770 434 768
f 772 434 770
f 774 434 772
f 776 434 774
f 778 434 776
f 780 434 778
f 435 436 445
f 687 435 445
f 661 435 663
f 663 435 669
f 669 435 671
f 671 435 677
f 677 435 679
f 679 435 685
f 685 435 687
f 445 436 446
f 684 446 436
f 437 438 439
f 437 460 438
f 439 535 437
f 459 460 437
f 437 547 459
f 437 535 549
f 437 549 547
f 439 438 440
f 438 536 440
f 460 548 438
f 438 550 536
f 438 548 550
f 441 442 461
f 461 442 462
f 442 540 462
f 443 464 444
f 463 464 443
f 445 446 447
f 693 445 447
f 687 445 693
f 447 446 448
f 684 448 446
f 447 448 449
f 719 447 449
f 693 447 695
f 695 447 701
f 701 447 703
f 703 447 709
f 709 447 711
f 711 447 717
f 717 447 719
f 449 448 450
f 602 450 448
f 602 448 684
f 449 450 451
f 749 449 451
f 719 449 725
f 725 449 727
f 727 449 729
f 729 449 731
f 731 449 733
f 733 449 745
f 745 449 747
f 747 449 749
f 451 450 452
f 602 452 450
f 451 452 465
f 465 579 451
f 579 589 451
f 451 589 599
f 451 599 601
f 771 451 601
f 749 451 751
f 751 451 753
f 753 451 755
f 755 451 757
f 757 451 759
f 759 451 761
f 761 451 763
f 763 451 765
f 765 451 767
f 767 451 769
f 769 451 771
f 465 452 466
f 452 580 466
f 452 590 580
f 452 600 590
f 602 600 452
f 453 454 455
f 453 466 454
f 455 567 453
f 465 466 453
f 453 567 465
f 455 454 456
f 454 568 456
f 466 568 454
f 455 456 457
f 457 557 455
f 455 557 567
f 457 456 458
f 456 558 458
f 456 568 558
f 457 458 459
f 459 547 457
f 457 547 557
f 459 458 460
f 458 548 460
f 458 558 548
f 461 462 467
f 467 462 468
f 462 540 468
f 463 470 464
f 469 470 463
f 465 567 579
f 466 580 568
f 467 468 471
f 471 468 472
f 468 540 472
f 469 474 470
f 473 474 469
f 471 472 479
f 479 472 480
f 472 540 480
f 473 476 474
f 475 476 473
f 475 482 476
f 481 482 475
f 477 480 478
f 477 478 483
f 479 480 477
f 480 540 478
f 483 478 484
f 478 540 484
f 481 486 482
f 485 486 481
f 483 484 487
f 487 484 488
f 484 540 488
f 485 490 486
f 489 490 485
f 487 488 491
f 491 488 492
f 488 540 492
f 489 494 490
f 493 494 489
f 491 492 495
f 495 492 496
f 492 540 496
f 493 498 494
f 497 498 493
f 495 496 499
f 499 496 500
f 496 540 500
f 497 502 498
f 501 502 497
f 499 500 503
f 503 500 504
f 500 540 504
f 501 506 502
f 505 506 501
f 503 504 507
f 507 504 508
f 504 540 508
f 505 510 506
f 509 510 505
f 507 508 511
f 511 508 512
f 508 540 512
f 509 514 510
f 513 514 509
f 511 512 515
f 515 512 516
f 540 516 512
f 513 518 514
f 517 518 513
f 515 516 531
f 531 516 532
f 540 532 516
f 517 534 518
f 533 534 517
f 519 522 520
f 519 520 537
f 521 522 519
f 537 520 538
f 521 524 522
f 523 524 521
f 523 526 524
f 525 526 523
f 525 528 526
f 527 528 525
f 527 530 528
f 529 530 527
f 529 540 530
f 539 540 529
f 531 532 543
f 540 542 532
f 532 542 544
f 543 532 544
f 533 546 534
f 545 546 533
f 535 538 536
f 535 536 549
f 537 538 535
f 549 536 550
f 539 542 540
f 541 542 539
f 541 539 585
f 541 552 542
f 551 552 541
f 551 541 585
f 542 552 544
f 543 544 553
f 544 552 554
f 553 544 554
f 545 556 546
f 555 556 545
f 547 550 548
f 547 548 557
f 549 550 547
f 557 548 558
f 551 560 552
f 559 560 551
f 559 551 585
f 554 552 562
f 562 552 560
f 553 554 561
f 561 554 562
f 555 564 556
f 563 564 555
f 557 558 567
f 567 558 568
f 559 570 560
f 569 570 559
f 585 569 559
f 562 560 576
f 586 560 570
f 576 560 574
f 574 560 586
f 561 562 575
f 575 562 576
f 563 566 564
f 565 566 563
f 565 578 566
f 577 578 565
f 567 568 579
f 579 568 580
f 569 572 570
f 571 572 569
f 571 569 585
f 570 572 586
f 571 584 572
f 583 584 571
f 593 583 571
f 593 571 585
f 594 572 584
f 586 572 594
f 573 576 574
f 573 574 585
f 575 576 573
f 585 574 586
f 577 588 578
f 587 588 577
f 579 580 589
f 589 580 590
f 581 582 583
f 581 592 582
f 581 583 609
f 591 592 581
f 591 581 631
f 607 581 609
f 631 581 607
f 583 582 584
f 610 584 582
f 632 582 592
f 610 582 608
f 608 582 632
f 609 583 593
f 594 584 610
f 585 586 593
f 593 586 594
f 587 596 588
f 595 596 587
f 589 590 599
f 599 590 600
f 591 606 592
f 605 606 591
f 643 605 591
f 629 591 631
f 643 591 629
f 592 606 644
f 632 592 630
f 630 592 644
f 593 594 609
f 609 594 610
f 595 598 596
f 597 598 595
f 597 612 598
f 611 612 597
f 599 600 601
f 601 600 602
f 601 602 615
f 601 615 707
f 601 707 705
f 601 705 715
f 713 601 715
f 723 601 713
f 721 601 723
f 743 601 721
f 735 601 737
f 779 601 735
f 737 601 739
f 739 601 741
f 741 601 743
f 771 601 773
f 773 601 775
f 775 601 777
f 777 601 779
f 615 602 616
f 616 602 684
f 603 604 605
f 603 628 604
f 603 605 641
f 627 628 603
f 649 627 603
f 651 603 641
f 649 603 651
f 605 604 606
f 642 606 604
f 604 628 650
f 642 604 652
f 652 604 650
f 641 605 643
f 644 606 642
f 607 610 608
f 607 608 631
f 609 610 607
f 631 608 632
f 611 614 612
f 613 614 611
f 613 634 614
f 633 634 613
f 615 616 617
f 615 617 697
f 707 615 697
f 617 616 618
f 618 616 684
f 617 618 619
f 689 617 619
f 699 617 689
f 697 617 699
f 619 618 620
f 620 618 684
f 619 620 621
f 683 619 621
f 681 619 683
f 691 619 681
f 689 619 691
f 621 620 622
f 684 622 620
f 621 622 637
f 621 637 683
f 637 622 638
f 638 622 684
f 623 624 625
f 623 640 624
f 667 623 625
f 639 640 623
f 675 639 623
f 665 623 667
f 675 623 665
f 625 624 626
f 626 624 668
f 624 640 676
f 668 624 666
f 666 624 676
f 625 626 627
f 625 627 659
f 657 625 659
f 667 625 657
f 627 626 628
f 660 628 626
f 660 626 658
f 658 626 668
f 659 627 649
f 650 628 660
f 629 632 630
f 629 630 643
f 631 632 629
f 643 630 644
f 633 636 634
f 635 636 633
f 635 646 636
f 645 646 635
f 637 638 639
f 673 637 639
f 683 637 673
f 639 638 640
f 674 640 638
f 674 638 684
f 673 639 675
f 676 640 674
f 641 644 642
f 641 642 651
f 643 644 641
f 651 642 652
f 645 648 646
f 647 648 645
f 647 654 648
f 653 654 647
f 649 652 650
f 649 650 659
f 651 652 649
f 659 650 660
f 653 656 654
f 655 656 653
f 655 662 656
f 661 662 655
f 657 660 658
f 657 658 667
f 659 660 657
f 667 658 668
f 661 664 662
f 663 664 661
f 663 670 664
f 669 670 663
f 665 668 666
f 665 666 675
f 667 668 665
f 675 666 676
f 669 672 670
f 671 672 669
f 671 678 672
f 677 678 671
f 673 676 674
f 673 674 683
f 675 676 673
f 683 674 684
f 677 680 678
f 679 680 677
f 679 686 680
f 685 686 679
f 681 684 682
f 681 682 691
f 683 684 681
f 691 682 692
f 685 688 686
f 687 688 685
f 687 694 688
f 693 694 687
f 689 692 690
f 689 690 699
f 691 692 689
f 699 690 700
f 693 696 694
f 695 696 693
f 695 702 696
f 701 702 695
f 697 700 698
f 697 698 707
f 699 700 697
f 707 698 708
f 701 704 702
f 703 704 701
f 703 710 704
f 709 710 703
f 705 708 706
f 705 706 715
f 707 708 705
f 715 706 716
f 709 712 710
f 711 712 709
f 711 718 712
f 717 718 711
f 713 716 714
f 713 714 723
f 715 716 713
f 723 714 724
f 717 720 718
f 719 720 717
f 719 726 720
f 725 726 719
f 721 724 722
f 721 722 743
f 723 724 721
f 743 722 744
f 725 728 726
f 727 728 725
f 727 730 728
f 729 730 727
f 729 732 730
f 731 732 729
f 731 734 732
f 733 734 731
f 733 746 734
f 745 746 733
f 735 738 736
f 735 736 779
f 737 738 735
f 779 736 780
f 737 740 738
f 739 740 737
f 739 742 740
f 741 742 739
f 741 744 742
f 743 744 741
f 745 748 746
f 747 748 745
f 747 750 748
f 749 750 747
f 749 752 750
f 751 752 749
f 751 754 752
f 753 754 751
f 753 756 754
f 755 756 753
f 755 758 756
f 757 758 755
f 757 760 758
f 759 760 757
f 759 762 760
f 761 762 759
f 761 764 762
f 763 764 761
f 763 766 764
f 765 766 763
f 765 768 766
f 767 768 765
f 767 770 768
f 769 770 767
f 769 772 770
f 771 772 769
f 771 774 772
f 773 774 771
f 773 776 774
f 775 776 773
f 775 778 776
f 777 778 775
f 777 780 778
f 779 780 777
