# CAD visual only; metres; body-local coordinates
v -0.104015398 -0.090580378 -0.0195
v -0.104015398 -0.090580378 0.0005
v -0.103751955 -0.0903169159 -0.0152325292
v -0.103803854 -0.0903688339 -0.0149678011
v -0.103829909 -0.0903948883 -0.014735188
v -0.103838625 -0.0904036049 -0.0145
v -0.103826781 -0.0903917412 -0.0142257948
v -0.103797846 -0.0903628258 -0.0139938612
v -0.103751955 -0.0903169159 -0.00523252678
v -0.103803854 -0.0903688339 -0.00496780109
v -0.103829909 -0.0903948883 -0.00473519039
v -0.103838625 -0.0904036049 -0.0045
v -0.103826781 -0.0903917412 -0.00422579479
v -0.103797846 -0.0903628258 -0.0039938612
v -0.103689566 -0.0902545456 -0.015450892
v -0.103742686 -0.0903076462 -0.0137304564
v -0.103689566 -0.0902545456 -0.00545088959
v -0.103742686 -0.0903076462 -0.00373045635
v -0.103501349 -0.0900663284 -0.0158852382
v -0.103581953 -0.090146933 -0.0157254381
v -0.103677607 -0.0902425865 -0.0154863353
v -0.103677607 -0.0902425865 -0.0135136671
v -0.103665228 -0.0902301887 -0.0134785194
v -0.103566637 -0.0901315979 -0.0132418175
v -0.103501349 -0.0900663284 -0.00588524055
v -0.103581953 -0.090146933 -0.00572543812
v -0.103677607 -0.0902425865 -0.00548633289
v -0.103677607 -0.0902425865 -0.00351366711
v -0.103665228 -0.0902301887 -0.00347851944
v -0.103566637 -0.0901315979 -0.00324181747
v -0.103448382 -0.0900133423 -0.0159761329
v -0.103484068 -0.0900490478 -0.0130840273
v -0.103448382 -0.0900133423 -0.00597613049
v -0.103484068 -0.0900490478 -0.00308402729
v -0.103270312 -0.0898352722 -0.0162235994
v -0.103429976 -0.0899949554 -0.0129944582
v -0.103270312 -0.0898352722 -0.00622359943
v -0.103429976 -0.0899949554 -0.0029944582
v -0.103205119 -0.0897700981 -0.0162969298
v -0.103248892 -0.0898138527 -0.0162485785
v -0.103248892 -0.0898138527 -0.0127514238
v -0.103227148 -0.089792128 -0.0127269764
v -0.103205119 -0.0897700981 -0.00629693222
v -0.103248892 -0.0898138527 -0.00624857616
v -0.103248892 -0.0898138527 -0.00275142384
v -0.103227148 -0.089792128 -0.00272697639
v -0.103018961 -0.0895839409 -0.016467895
v -0.103182803 -0.0897477631 -0.0126797123
v -0.103018961 -0.0895839409 -0.00646789265
v -0.103182803 -0.0897477631 -0.0026797123
v -0.10294509 -0.0895100502 -0.0165222855
v -0.102994566 -0.0895595459 -0.0164866323
v -0.102994566 -0.0895595459 -0.0125133677
v -0.102969942 -0.0895349029 -0.0124952335
v -0.10294509 -0.0895100502 -0.00652228546
v -0.102994566 -0.0895595459 -0.00648663235
v -0.102994566 -0.0895595459 -0.00251336765
v -0.102969942 -0.0895349029 -0.00249523354
v -0.102765608 -0.0893305878 -0.0166274161
v -0.102920027 -0.0894849876 -0.0124608059
v -0.102765608 -0.0893305878 -0.00662741852
v -0.102920027 -0.0894849876 -0.00246080589
v -0.102601195 -0.0919946007 -0.0195
v -0.102601195 -0.0919946007 0.0005
v -0.102686186 -0.0892511467 -0.016662838
v -0.102739287 -0.0893042473 -0.0123601217
v -0.102686186 -0.0892511467 -0.00666283798
v -0.102739287 -0.0893042473 -0.00236012173
v -0.102523909 -0.0890888885 -0.016715817
v -0.102659426 -0.0892243866 -0.0123266668
v -0.102523909 -0.0890888885 -0.00671581936
v -0.102659426 -0.0892243866 -0.00232666683
v -0.102383643 -0.0917770294 -0.0150061388
v -0.102412558 -0.0918059639 -0.0147742052
v -0.102424174 -0.0918175796 -0.0145392675
v -0.102415705 -0.0918090919 -0.0142648096
v -0.102389651 -0.0917830566 -0.0140321989
v -0.102362776 -0.0917561821 -0.0138798161
v -0.102383643 -0.0917770294 -0.0050061388
v -0.102412558 -0.0918059639 -0.00477420521
v -0.102424174 -0.0918175796 -0.00453926754
v -0.102415705 -0.0918090919 -0.00426480961
v -0.102389651 -0.0917830566 -0.00403219891
v -0.102362776 -0.0917561821 -0.00387981606
v -0.102251006 -0.0916444115 -0.0155214782
v -0.102328463 -0.0917218689 -0.015269546
v -0.102354899 -0.0917483047 -0.0151578374
v -0.102337733 -0.0917311386 -0.0137674732
v -0.102263403 -0.0916567902 -0.0135136671
v -0.102251006 -0.0916444115 -0.0134785194
v -0.102251006 -0.0916444115 -0.00552148056
v -0.102328463 -0.0917218689 -0.00526954365
v -0.102354899 -0.0917483047 -0.00515783501
v -0.102337733 -0.0917311386 -0.00376747322
v -0.102263403 -0.0916567902 -0.00351366711
v -0.102251006 -0.0916444115 -0.00347851944
v -0.102441531 -0.0890065102 -0.0167332287
v -0.102496519 -0.089061499 -0.0122777004
v -0.102441531 -0.0890065102 -0.00673322868
v -0.102496519 -0.089061499 -0.00227770042
v -0.102275401 -0.0888403801 -0.0167496581
v -0.10241395 -0.0889789108 -0.0122623272
v -0.102275401 -0.0888403801 -0.00674965572
v -0.10241395 -0.0889789108 -0.00226232719
v -0.102152415 -0.0915458206 -0.0157581849
v -0.102238188 -0.0916315941 -0.0155563111
v -0.10216775 -0.0915611366 -0.0132745619
v -0.102120562 -0.0915139679 -0.0131774826
v -0.102152415 -0.0915458206 -0.00575818253
v -0.102238188 -0.0916315941 -0.00555630875
v -0.10216775 -0.0915611366 -0.00327456188
v -0.102120562 -0.0915139679 -0.0031774826
v -0.102015772 -0.0914091591 -0.0160055442
v -0.102104044 -0.0914974502 -0.015854084
v -0.102034159 -0.091427565 -0.0130238695
v -0.102015772 -0.0914091591 -0.0129944582
v -0.102015772 -0.0914091591 -0.0060055418
v -0.102104044 -0.0914974502 -0.00585408401
v -0.102034159 -0.091427565 -0.00302386951
v -0.102015772 -0.0914091591 -0.0029944582
v -0.102192107 -0.0887570862 -0.0167486305
v -0.102247649 -0.0888126091 -0.012250001
v -0.102192107 -0.0887570862 -0.00674863052
v -0.102247649 -0.0888126091 -0.00225000095
v -0.102026225 -0.088591185 -0.0167281027
v -0.102164374 -0.0887293533 -0.0122530813
v -0.102026225 -0.088591185 -0.00672810268
v -0.102164374 -0.0887293533 -0.00225308132
v -0.101997004 -0.0913904098 -0.0160344954
v -0.101877203 -0.0912706093 -0.0128019018
v -0.101997004 -0.0913904098 -0.00603449535
v -0.101877203 -0.0912706093 -0.00280190182
v -0.101812945 -0.0912063316 -0.0162730236
v -0.101856089 -0.0912494949 -0.0162235994
v -0.101834669 -0.0912280754 -0.0127514238
v -0.10176858 -0.0911619858 -0.0126797123
v -0.101812945 -0.0912063316 -0.00627302361
v -0.101856089 -0.0912494949 -0.00622359943
v -0.101834669 -0.0912280754 -0.00275142384
v -0.10176858 -0.0911619858 -0.0026797123
v -0.101944056 -0.0885090355 -0.016708662
v -0.101998759 -0.0885637192 -0.0122777004
v -0.101944056 -0.0885090355 -0.00670866203
v -0.101998759 -0.0885637192 -0.00227770042
v -0.101755991 -0.0883209709 -0.0166398783
v -0.101916857 -0.0884818176 -0.0122991676
v -0.101755991 -0.0883209709 -0.00663987827
v -0.101916857 -0.0884818176 -0.00229916763
v -0.101745978 -0.0911393837 -0.0163430924
v -0.101628924 -0.0910223297 -0.0125514431
v -0.101745978 -0.0911393837 -0.00634309006
v -0.101628924 -0.0910223297 -0.0025514431
v -0.10155572 -0.0909491257 -0.0165047641
v -0.101604758 -0.0909981445 -0.016467895
v -0.101580344 -0.0909737495 -0.0125133677
v -0.101505804 -0.0908992103 -0.0124608059
v -0.10155572 -0.0909491257 -0.00650476646
v -0.101604758 -0.0909981445 -0.00646789265
v -0.101580344 -0.0909737495 -0.00251336765
v -0.101505804 -0.0908992103 -0.00246080589
v -0.101703482 -0.0882684616 -0.0166143079
v -0.10172967 -0.0882946304 -0.0123725815
v -0.101703482 -0.0882684616 -0.00661431026
v -0.10172967 -0.0882946304 -0.00237258148
v -0.101525355 -0.0880903152 -0.0165047641
v -0.101500712 -0.0880656914 -0.0164866323
v -0.101500712 -0.0880656914 -0.0125133677
v -0.101677485 -0.0882424454 -0.0123994417
v -0.101525355 -0.0880903152 -0.00650476646
v -0.101500712 -0.0880656914 -0.00648663235
v -0.101500712 -0.0880656914 -0.00251336765
v -0.101677485 -0.0882424454 -0.00239944172
v -0.101540537 -0.0824486545 -0.0195
v -0.101540537 -0.0824486545 0.0005
v -0.101480532 -0.090873938 -0.0165554781
v -0.101377573 -0.0907709793 -0.0123856897
v -0.101480532 -0.090873938 -0.0065554781
v -0.101377573 -0.0907709793 -0.00238568974
v -0.101351405 -0.0907448105 -0.0166274161
v -0.101271963 -0.0906653694 -0.012337162
v -0.101351405 -0.0907448105 -0.00662741852
v -0.101271963 -0.0906653694 -0.00233716202
v -0.101452151 -0.0880171112 -0.0164485569
v -0.101476317 -0.0880412773 -0.0125321074
v -0.101452151 -0.0880171112 -0.0064485569
v -0.101476317 -0.0880412773 -0.00253210735
v -0.10126813 -0.0878331093 -0.0162730236
v -0.101428213 -0.087993193 -0.0125713749
v -0.10126813 -0.0878331093 -0.00627302361
v -0.101428213 -0.087993193 -0.00257137489
v -0.101245203 -0.0906386093 -0.0166733332
v -0.101109705 -0.0905030922 -0.0122841806
v -0.101245203 -0.0906386093 -0.00667333317
v -0.101109705 -0.0905030922 -0.00228418064
v -0.101082316 -0.0904757027 -0.0167222996
v -0.101027327 -0.0904207138 -0.0122667713
v -0.101082316 -0.0904757027 -0.00672229958
v -0.101027327 -0.0904207138 -0.00226677132
v -0.101203852 -0.0877688316 -0.0161980958
v -0.101246405 -0.0878113655 -0.0127514238
v -0.101203852 -0.0877688316 -0.00619809818
v -0.101246405 -0.0878113655 -0.00275142384
v -0.101065302 -0.0876302818 -0.0160055442
v -0.10101121 -0.0875761894 -0.0159159703
v -0.101046896 -0.0876118759 -0.0130238695
v -0.101183062 -0.0877480225 -0.0128279228
v -0.101065302 -0.0876302818 -0.0060055418
v -0.10101121 -0.0875761894 -0.00591597271
v -0.101046896 -0.0876118759 -0.00302386951
v -0.101183062 -0.0877480225 -0.00282792282
v -0.100999728 -0.0903931335 -0.0167376752
v -0.100861197 -0.0902545837 -0.0122503443
v -0.100999728 -0.0903931335 -0.00673767281
v -0.100861197 -0.0902545837 -0.00225034428
v -0.100833426 -0.0902268318 -0.016749999
v -0.100833426 -0.0902268318 -0.012250001
v -0.100833426 -0.0902268318 -0.00674999905
v -0.100833426 -0.0902268318 -0.00225000095
v -0.100944376 -0.0875093559 -0.0157905478
v -0.100993929 -0.0875588898 -0.0131147594
v -0.100944376 -0.0875093559 -0.00579054546
v -0.100993929 -0.0875588898 -0.00311475945
v -0.100928641 -0.0874936203 -0.0157581849
v -0.10083005 -0.0873950294 -0.0155214782
v -0.100752592 -0.087317572 -0.015269546
v -0.100817671 -0.0873826317 -0.0135136671
v -0.100913325 -0.0874783043 -0.0132745619
v -0.100928641 -0.0874936203 -0.0132418175
v -0.100928641 -0.0874936203 -0.00575818253
v -0.10083005 -0.0873950294 -0.00552148056
v -0.100752592 -0.087317572 -0.00526954365
v -0.100817671 -0.0873826317 -0.00351366711
v -0.100913325 -0.0874783043 -0.00327456188
v -0.100928641 -0.0874936203 -0.00324181747
v -0.100722437 -0.0901158432 -0.0167445202
v -0.100612002 -0.0900054077 -0.0122718973
v -0.100722437 -0.0901158432 -0.00674452019
v -0.100612002 -0.0900054077 -0.00227189732
v -0.100584536 -0.0899779419 -0.0167222996
v -0.100502634 -0.0898960403 -0.0122991676
v -0.100584536 -0.0899779419 -0.00672229958
v -0.100502634 -0.0898960403 -0.00229916763
v -0.100697432 -0.0872623924 -0.0150061388
v -0.100685873 -0.087250853 -0.0149293203
v -0.100691424 -0.0872563843 -0.0140321989
v -0.100743323 -0.0873083023 -0.0137674732
v -0.100697432 -0.0872623924 -0.0050061388
v -0.100685873 -0.087250853 -0.00492932034
v -0.100691424 -0.0872563843 -0.00403219891
v -0.100743323 -0.0873083023 -0.00376747322
v -0.100668517 -0.087233477 -0.0147742052
v -0.100656901 -0.0872218613 -0.0145392675
v -0.100665369 -0.0872303299 -0.0142648096
v -0.100680819 -0.0872457985 -0.0141092939
v -0.100668517 -0.087233477 -0.00477420521
v -0.100656901 -0.0872218613 -0.00453926754
v -0.100665369 -0.0872303299 -0.00426480961
v -0.100680819 -0.0872457985 -0.00410929394
v -0.100475531 -0.0898689369 -0.0166923327
v -0.100368262 -0.0897616676 -0.0123483152
v -0.100475531 -0.0898689369 -0.00669233036
v -0.100368262 -0.0897616676 -0.00234831524
v -0.100341788 -0.0897351746 -0.0166398783
v -0.100263262 -0.0896566681 -0.0123994417
v -0.100341788 -0.0897351746 -0.00663987827
v -0.100263262 -0.0896566681 -0.00239944172
v -0.100237437 -0.0896308235 -0.0165861626
v -0.100111132 -0.089504538 -0.0124952335
v -0.100237437 -0.0896308235 -0.00658616257
v -0.100111132 -0.089504538 -0.00249523354
v -0.100086508 -0.089479895 -0.0164866323
v -0.10001401 -0.0894073967 -0.0125713749
v -0.100086508 -0.089479895 -0.00648663235
v -0.10001401 -0.0894073967 -0.00257137489
v -0.0999903397 -0.0893837265 -0.0164081092
v -0.0998759369 -0.0892693428 -0.0127030678
v -0.0999903397 -0.0893837265 -0.0064081068
v -0.0998759369 -0.0892693428 -0.00270306778
v -0.099853907 -0.0892473129 -0.0162730236
v -0.0998321823 -0.0892255882 -0.0162485785
v -0.0997688393 -0.0891622452 -0.0128279228
v -0.099853907 -0.0892473129 -0.0127269764
v -0.099853907 -0.0892473129 -0.00627302361
v -0.0998321823 -0.0892255882 -0.00624857616
v -0.0997688393 -0.0891622452 -0.00282792282
v -0.099853907 -0.0892473129 -0.00272697639
v -0.0997483734 -0.0891417793 -0.016145546
v -0.0996326927 -0.0890260986 -0.0159761329
v -0.0996146492 -0.0890080551 -0.0130537291
v -0.0996510986 -0.0890444855 -0.0129944582
v -0.0997483734 -0.0891417793 -0.00614554596
v -0.0996326927 -0.0890260986 -0.00597613049
v -0.0996146492 -0.0890080551 -0.00305372906
v -0.0996510986 -0.0890444855 -0.0029944582
v -0.0995969871 -0.0889903931 -0.0159159703
v -0.0995144371 -0.088907843 -0.0132418175
v -0.0995969871 -0.0889903931 -0.00591597271
v -0.0995144371 -0.088907843 -0.00324181747
v -0.099499102 -0.0888925079 -0.0157254381
v -0.0994034485 -0.0887968544 -0.0154863353
v -0.0993582825 -0.0887516884 -0.0136571331
v -0.0994158462 -0.0888092331 -0.0134785194
v -0.099499102 -0.0888925079 -0.00572543812
v -0.0994034485 -0.0887968544 -0.00548633289
v -0.0993582825 -0.0887516884 -0.0036571331
v -0.0994158462 -0.0888092331 -0.00347851944
v -0.0993481163 -0.0887415031 -0.0153063269
v -0.0993291191 -0.0887225059 -0.0152325292
v -0.0992772011 -0.088670607 -0.0149678011
v -0.0992511467 -0.0886445526 -0.014735188
v -0.0992511467 -0.0886445526 -0.0142648096
v -0.0992542938 -0.0886476997 -0.0142257948
v -0.0992832092 -0.0886766151 -0.0139938612
v -0.0993383888 -0.0887317757 -0.0137304564
v -0.0993481163 -0.0887415031 -0.00530632687
v -0.0993291191 -0.0887225059 -0.00523252678
v -0.0992772011 -0.088670607 -0.00496780109
v -0.0992511467 -0.0886445526 -0.00473519039
v -0.0992511467 -0.0886445526 -0.00426480961
v -0.0992542938 -0.0886476997 -0.00422579479
v -0.0992832092 -0.0886766151 -0.0039938612
v -0.0993383888 -0.0887317757 -0.00373045635
v -0.0992484955 -0.0886418823 -0.0146960993
v -0.0992424301 -0.088635836 -0.0145
v -0.0992484955 -0.0886418823 -0.00469609928
v -0.0992424301 -0.088635836 -0.0045
v -0.0987121109 -0.0852770714 -0.0195
v -0.0987121109 -0.0852770714 0.0005
v -0.0972978882 -0.0866912941 -0.0195
v -0.0972978882 -0.0866912941 0.0005
v -0.0885775474 -0.0610003857 -0.0111538239
v -0.0886158852 -0.0610387138 -0.0109515305
v -0.0886491875 -0.0610720257 -0.010747468
v -0.0886896614 -0.0611124996 -0.0104386063
v -0.0887102798 -0.0611331085 -0.0102312155
v -0.0887315658 -0.0611544041 -0.00991853905
v -0.0887393097 -0.0611621479 -0.00970939827
v -0.0887412552 -0.0611640934 -0.00939528656
v -0.0887360863 -0.0611589245 -0.00918598366
v -0.0887257484 -0.0611485962 -0.00897706699
v -0.0887006096 -0.0611234478 -0.00866496277
v -0.0886774544 -0.061100283 -0.00845811081
v -0.0886331657 -0.0610559944 -0.00815029335
v -0.0885973457 -0.0610201744 -0.00794708443
v -0.0885107521 -0.0609335903 -0.0114534111
v -0.0885565094 -0.0609793571 -0.00774576855
v -0.0883443931 -0.0607672314 -0.0120357103
v -0.0883751015 -0.0607979397 -0.0119404192
v -0.0884329704 -0.0608557991 -0.0117476387
v -0.0884860329 -0.0609088711 -0.00744787884
v -0.0884046272 -0.0608274654 -0.00715561104
v -0.0883443931 -0.0607672314 -0.00696428967
v -0.0882794861 -0.0607023147 -0.0122239418
v -0.0883125214 -0.0607353596 -0.006869771
v -0.0880972198 -0.0605200581 -0.0126795168
v -0.0882099632 -0.0606327919 -0.0124088593
v -0.0882452873 -0.0606681255 -0.00668317032
v -0.0881734947 -0.0605963329 -0.00649999809
v -0.0880165771 -0.0604394058 -0.0128551598
v -0.0880574325 -0.0604802708 -0.00623216343
v -0.0878425125 -0.0602653412 -0.0131939669
v -0.0879746345 -0.0603974632 -0.0129414577
v -0.0879746345 -0.0603974632 -0.00605854225
v -0.0879316238 -0.060354462 -0.00597328854
v -0.0877964119 -0.0602192501 -0.0132759209
v -0.0877964119 -0.0602192501 -0.00572407913
v -0.0876021294 -0.0600249676 -0.0135919924
v -0.0877012161 -0.0601240543 -0.0134363527
v -0.0877493194 -0.0601721481 -0.00564327431
v -0.0876521591 -0.0600749878 -0.00548521709
v -0.087551165 -0.0599739937 -0.0136679525
v -0.087551165 -0.0599739937 -0.00533204746
v -0.0873381332 -0.059760981 -0.0139588709
v -0.087499266 -0.0599220947 -0.0137426395
v -0.087499266 -0.0599220947 -0.00525736046
v -0.0874464516 -0.0598692802 -0.00518396091
v -0.0872826866 -0.0597055153 -0.0140282555
v -0.0872826866 -0.0597055153 -0.00497174454
v -0.0871112923 -0.0595341305 -0.0142280645
v -0.0872263817 -0.0596492103 -0.00490373325
v -0.0870525459 -0.0594753841 -0.0142918129
v -0.0870525459 -0.0594753841 -0.0047081871
v -0.0868717102 -0.0592945484 -0.014474227
v -0.0869930176 -0.0594158558 -0.00464589787
v -0.0868099693 -0.0592328075 -0.0145320244
v -0.0868099693 -0.0592328075 -0.00446797562
v -0.0866205887 -0.0590434173 -0.0146961517
v -0.0867475227 -0.0591703514 -0.0044117136
v -0.0865561394 -0.058978968 -0.0147477193
v -0.0865561394 -0.058978968 -0.0042522831
v -0.0863591103 -0.0587819485 -0.0148927636
v -0.0864910606 -0.0589138988 -0.00420231533
v -0.0862922768 -0.058715115 -0.0149378462
v -0.0862922768 -0.058715115 -0.00406215382
v -0.086088591 -0.0585114197 -0.0150631042
v -0.0862248901 -0.0586477379 -0.0149812717
v -0.0862248901 -0.0586477379 -0.00401872826
v -0.0861569885 -0.0585798267 -0.00397697163
v -0.0860196785 -0.0584425262 -0.0151014824
v -0.0860196785 -0.0584425262 -0.00389851761
v -0.0858805374 -0.0583033661 -0.0151731105
v -0.0859503273 -0.0583731655 -0.00386184406
v -0.0858103088 -0.058233147 -0.0152063389
v -0.0858103088 -0.058233147 -0.00379366112
v -0.0855973343 -0.0580201725 -0.0152955551
v -0.0857396797 -0.0581625275 -0.0152378292
v -0.0857396797 -0.0581625275 -0.00376217079
v -0.0856686882 -0.0580915264 -0.00373243046
v -0.0855256561 -0.0579484848 -0.015321774
v -0.0855256561 -0.0579484848 -0.00367822361
v -0.0853813461 -0.0578041939 -0.0153688855
v -0.0854536537 -0.0578764824 -0.00365378094
v -0.0853087906 -0.0577316288 -0.0153897638
v -0.0853087906 -0.0577316288 -0.00361023617
v -0.0850897125 -0.0575125603 -0.015441608
v -0.0852359871 -0.0576588253 -0.00359115314
v -0.0850162987 -0.0574391464 -0.0154552765
v -0.0850162987 -0.0574391464 -0.00354472351
v -0.0848690323 -0.0572918705 -0.0154771681
v -0.0849427322 -0.0573655704 -0.00353286934
v -0.0847952179 -0.0572180466 -0.015485384
v -0.0847952179 -0.0572180466 -0.00351461601
v -0.0846473221 -0.0570701603 -0.0154963441
v -0.0847213081 -0.0571441368 -0.00350822163
v -0.0845732979 -0.0569961361 -0.0154990859
v -0.0845732979 -0.0569961361 -0.00350091171
v -0.0843546966 -0.0652628139 -0.0110529156
v -0.0843905167 -0.0652986339 -0.0108497066
v -0.0844348053 -0.0653429226 -0.0105418892
v -0.0844579796 -0.0653660873 -0.0103350372
v -0.0844831184 -0.0653912357 -0.010022933
v -0.0844934372 -0.065401564 -0.00981401634
v -0.0844992546 -0.0654073814 -0.0095
v -0.0844966797 -0.065404797 -0.00929060173
v -0.0844889168 -0.0653970436 -0.00908146095
v -0.0844676308 -0.0653757576 -0.00876878452
v -0.0844470314 -0.0653551392 -0.00856139374
v -0.0844065575 -0.0653146652 -0.00825253201
v -0.0843732361 -0.0652813534 -0.00804846954
v -0.0843546966 -0.0652628139 -0.00794708443
v -0.0843138794 -0.0652219967 -0.0112542315
v -0.0843348984 -0.0652430252 -0.0111538239
v -0.0843348984 -0.0652430252 -0.00784617615
v -0.0842681221 -0.0651762298 -0.0075465889
v -0.0844992546 -0.0569220928 -0.015499999
v -0.0844992546 -0.0569220928 -0.00350000095
v -0.0842772201 -0.0567000488 -0.0154917784
v -0.0842772201 -0.0567000488 -0.00350822163
v -0.0841017631 -0.0650098709 -0.0120357103
v -0.0841619972 -0.065070105 -0.011844389
v -0.0842434029 -0.0651515106 -0.0115521212
v -0.0841903213 -0.0650984482 -0.0072523613
v -0.0841324715 -0.0650405792 -0.0070595808
v -0.0841017631 -0.0650098709 -0.00696428967
v -0.0840026573 -0.0649107651 -0.0123168297
v -0.0840698723 -0.0649779991 -0.012130229
v -0.084036837 -0.0649449543 -0.0067760582
v -0.0840026573 -0.0649107651 -0.00668317032
v -0.084129496 -0.0565523247 -0.0154771681
v -0.0842033104 -0.0566261486 -0.00351461601
v -0.084055777 -0.0564786152 -0.0154671307
v -0.084055777 -0.0564786152 -0.00353286934
v -0.0839308456 -0.0648389725 -0.0125000019
v -0.0839673141 -0.0648754314 -0.0124088593
v -0.0839673141 -0.0648754314 -0.00659114075
v -0.0838545898 -0.0647626976 -0.00632048321
v -0.0838148025 -0.0647229103 -0.0127678366
v -0.0837739281 -0.0646820454 -0.00614484024
v -0.0838355736 -0.0562584022 -0.0154261298
v -0.0839822105 -0.0564050487 -0.00354472351
v -0.0837625412 -0.0561853699 -0.0154088469
v -0.0837625412 -0.0561853699 -0.00359115314
v -0.0836889938 -0.0645971016 -0.0130267115
v -0.0837319855 -0.0646401028 -0.0129414577
v -0.0837319855 -0.0646401028 -0.00605854225
v -0.0835998634 -0.0645079807 -0.00580603313
v -0.0835537723 -0.0644618896 -0.0132759209
v -0.0835066704 -0.0644147877 -0.00564327431
v -0.0836171631 -0.0560400013 -0.0153688855
v -0.0836897186 -0.0561125664 -0.00361023617
v -0.0835448746 -0.0559677128 -0.0153462214
v -0.0835448746 -0.0559677128 -0.00365378094
v -0.0834095196 -0.0643176369 -0.0135147829
v -0.0834585766 -0.0643666939 -0.0134363527
v -0.0834585766 -0.0643666939 -0.00556364727
v -0.0833594898 -0.0642676071 -0.00540800762
v -0.0833085159 -0.0642166332 -0.0136679525
v -0.083256617 -0.0641647343 -0.00525736046
v -0.0833298305 -0.0557526688 -0.0152675695
v -0.0834728722 -0.0558957104 -0.00367822361
v -0.0832588295 -0.0556816677 -0.0152378292
v -0.0832588295 -0.0556816677 -0.00376217079
v -0.0832038025 -0.0641119198 -0.0138160391
v -0.0830955032 -0.0640036205 -0.00504112911
v -0.0830400471 -0.0639481548 -0.0140282555
v -0.0830400471 -0.0639481548 -0.00497174454
v -0.0831179909 -0.0555408291 -0.0151731105
v -0.0831882099 -0.0556110481 -0.00379366112
v -0.0830481914 -0.0554710297 -0.0151381559
v -0.0830481914 -0.0554710297 -0.00386184406
v -0.0829837326 -0.0638918499 -0.0140962667
v -0.0828686527 -0.06377677 -0.00477193546
v -0.0828099064 -0.0637180237 -0.0142918129
v -0.082750378 -0.0636584953 -0.00464589787
v -0.0828415302 -0.0552643684 -0.0150230284
v -0.0829788307 -0.0554016689 -0.00389851761
v -0.0827736191 -0.0551964573 -0.0149812717
v -0.0827736191 -0.0551964573 -0.00401872826
v -0.0826900963 -0.0635982136 -0.0144149132
v -0.0826290707 -0.0635371879 -0.00452577305
v -0.0825673298 -0.0634754471 -0.0145320244
v -0.0825048736 -0.0634129909 -0.0044117136
v -0.0826394085 -0.0550622467 -0.0148927636
v -0.082706242 -0.0551290802 -0.00406215382
v -0.0825074581 -0.0549302963 -0.0147976847
v -0.0825731377 -0.0549959759 -0.00415395927
v -0.0824417404 -0.0633498577 -0.0146430035
v -0.0823779396 -0.0632860569 -0.00430384827
v -0.0823134903 -0.0632216076 -0.0147477193
v -0.0823134903 -0.0632216076 -0.0042522831
v -0.0823779396 -0.0548007778 -0.0146961517
v -0.0824423889 -0.0548652271 -0.0042522831
v -0.0822510055 -0.0546738342 -0.0145882888
v -0.0823141388 -0.054736977 -0.00435699654
v -0.0822484211 -0.0631565384 -0.0147976847
v -0.0821164707 -0.063024588 -0.004107234
v -0.0820496372 -0.0629577545 -0.0149378462
v -0.0820496372 -0.0629577545 -0.00406215382
v -0.0821885494 -0.0546113876 -0.0145320244
v -0.0821268085 -0.0545496372 -0.014474227
v -0.0821268085 -0.0545496372 -0.00452577305
v -0.0821885494 -0.0546113876 -0.00446797562
v -0.0820055012 -0.0544283298 -0.0143541021
v -0.0820657829 -0.0544886211 -0.00458508682
v -0.081914349 -0.0628224663 -0.0150230284
v -0.0819822601 -0.0628903774 -0.0149812717
v -0.0819822601 -0.0628903774 -0.00401872826
v -0.0818459419 -0.0627540592 -0.00393689823
v -0.0817770485 -0.0626851658 -0.0151014824
v -0.0817770485 -0.0626851658 -0.00389851761
v -0.0819459728 -0.054368811 -0.0142918129
v -0.0818292812 -0.0542521194 -0.0141628761
v -0.0818872265 -0.0543100647 -0.00477193546
v -0.0819459728 -0.054368811 -0.0047081871
v -0.0817721466 -0.0541949753 -0.0140962667
v -0.0817721466 -0.0541949753 -0.00490373325
v -0.0817076878 -0.062615805 -0.0151381559
v -0.0816378883 -0.0625460056 -0.00382688713
v -0.0815676693 -0.0624757866 -0.0152063389
v -0.0815676693 -0.0624757866 -0.00379366112
v -0.0817158417 -0.0541386703 -0.0140282555
v -0.0816057877 -0.0540286259 -0.0138881226
v -0.081660376 -0.0540832142 -0.00504112911
v -0.0817158417 -0.0541386703 -0.00497174454
v -0.0815520767 -0.0539749054 -0.0138160391
v -0.0815520767 -0.0539749054 -0.00518396091
v -0.0814260487 -0.0623341659 -0.0152675695
v -0.0814970497 -0.062405167 -0.0152378292
v -0.0814970497 -0.062405167 -0.00376217079
v -0.0813546947 -0.062262812 -0.00370444489
v -0.081283007 -0.0621911243 -0.015321774
v -0.081283007 -0.0621911243 -0.00367822361
v -0.0813463596 -0.0537691978 -0.0135147829
v -0.0814992622 -0.0539221004 -0.00525736046
v -0.0812973026 -0.0537201313 -0.0134363527
v -0.0812973026 -0.0537201313 -0.00556364727
v -0.0812110046 -0.0621191219 -0.0153462214
v -0.0811387161 -0.0620468334 -0.0036311121
v -0.081066151 -0.0619742683 -0.0153897638
v -0.081066151 -0.0619742683 -0.00361023617
v -0.0812021068 -0.0536249451 -0.0132759209
v -0.0811109356 -0.0535337738 -0.0131108923
v -0.0811560158 -0.053578854 -0.00580603313
v -0.0812492088 -0.053672047 -0.00564327431
v -0.0810668949 -0.0534897236 -0.0130267115
v -0.0810238937 -0.0534467319 -0.0129414577
v -0.0810238937 -0.0534467319 -0.00605854225
v -0.0810668949 -0.0534897236 -0.00597328854
v -0.0809933475 -0.0619014648 -0.0154088469
v -0.0808470825 -0.0617551998 -0.00355838966
v -0.0807736687 -0.061681786 -0.0154552765
v -0.0807736687 -0.061681786 -0.00354472351
v -0.0809410862 -0.0533639149 -0.0127678366
v -0.0808626083 -0.0532854465 -0.012590229
v -0.0809012989 -0.0533241371 -0.00632048321
v -0.0809819511 -0.0534047893 -0.00614484024
v -0.080825024 -0.0532478622 -0.0125000019
v -0.0807532314 -0.0531760696 -0.0123168297
v -0.0807885651 -0.0532114033 -0.00659114075
v -0.080825024 -0.0532478622 -0.00649999809
v -0.0807000927 -0.06160821 -0.0154671307
v -0.0806263927 -0.06153451 -0.00352283192
v -0.0805525688 -0.0614606861 -0.015485384
v -0.0805525688 -0.0614606861 -0.00351461601
v -0.0806541256 -0.0530769543 -0.0120357103
v -0.0805938915 -0.0530167202 -0.011844389
v -0.0806234173 -0.0530462555 -0.0070595808
v -0.0807190422 -0.0531418709 -0.0067760582
v -0.0805124859 -0.0529353146 -0.0115521212
v -0.0805655483 -0.0529883865 -0.0072523613
v -0.080478659 -0.0613867763 -0.0154917784
v -0.0804046825 -0.0613127998 -0.00350365353
v -0.0802566151 -0.0611647324 -0.015499999
v -0.0802566151 -0.0611647324 -0.00350000095
v -0.0804419998 -0.052864838 -0.0112542315
v -0.0804011825 -0.0528240208 -0.0110529156
v -0.0803653625 -0.0527881912 -0.0108497066
v -0.0803345684 -0.0527574066 -0.0106448526
v -0.0803493313 -0.0527721695 -0.00825253201
v -0.0803826431 -0.0528054813 -0.00804846954
v -0.0804209713 -0.0528438095 -0.00784617615
v -0.0804877666 -0.0529106048 -0.0075465889
v -0.0803210739 -0.0527439121 -0.0105418892
v -0.0802979092 -0.0527207474 -0.0103350372
v -0.0802727608 -0.052695599 -0.010022933
v -0.0802624325 -0.0526852707 -0.00981401634
v -0.0802566151 -0.0526794533 -0.0095
v -0.0802591995 -0.0526820377 -0.00929060173
v -0.0802669529 -0.0526897911 -0.00908146095
v -0.0802882389 -0.0527110771 -0.00876878452
v -0.0803088573 -0.052731686 -0.00856139374
v -0.0803210739 -0.0527439121 -0.00845811081
v -0.0801825718 -0.0610906891 -0.0154990859
v -0.0801085571 -0.0610166744 -0.00350365353
v -0.0800345806 -0.0609426979 -0.0154917784
v -0.0800345806 -0.0609426979 -0.00350822163
v -0.0799606708 -0.0608687881 -0.015485384
v -0.0798868469 -0.0607949642 -0.00352283192
v -0.079813147 -0.0607212643 -0.0154671307
v -0.079813147 -0.0607212643 -0.00353286934
v -0.079739571 -0.0606476883 -0.0154552765
v -0.0795929245 -0.0605010418 -0.0035738678
v -0.0795198921 -0.0604280094 -0.0154088469
v -0.0795198921 -0.0604280094 -0.00359115314
v -0.0794470886 -0.0603552059 -0.0153897638
v -0.0793745235 -0.0602826408 -0.0036311121
v -0.079302235 -0.0602103523 -0.0153462214
v -0.079302235 -0.0602103523 -0.00365378094
v -0.0792302326 -0.0601383499 -0.015321774
v -0.0791585449 -0.0600666622 -0.00370444489
v -0.079087191 -0.0599953083 -0.0152675695
v -0.0790161899 -0.0599243072 -0.0152378292
v -0.0790161899 -0.0599243072 -0.00376217079
v -0.079087191 -0.0599953083 -0.00373243046
v -0.0789455704 -0.0598536877 -0.0152063389
v -0.0788753513 -0.0597834686 -0.00382688713
v -0.0788055519 -0.0597136692 -0.0151381559
v -0.0788055519 -0.0597136692 -0.00386184406
v -0.0787361912 -0.0596443085 -0.0151014824
v -0.0785988907 -0.059507008 -0.00397697163
v -0.0785309795 -0.0594390968 -0.0149812717
v -0.0785309795 -0.0594390968 -0.00401872826
v -0.0784636024 -0.0593717197 -0.0149378462
v -0.0783967689 -0.0593048862 -0.004107234
v -0.0783304981 -0.0592386154 -0.0148460383
v -0.0782648186 -0.0591729359 -0.00420231533
v -0.0781997494 -0.0591078667 -0.0147477193
v -0.0781353001 -0.0590434173 -0.00430384827
v -0.0780714992 -0.0589796165 -0.0146430035
v -0.078008366 -0.0589164833 -0.0044117136
v -0.0779459099 -0.0588540272 -0.0145320244
v -0.077884169 -0.0587922863 -0.014474227
v -0.077884169 -0.0587922863 -0.00452577305
v -0.0779459099 -0.0588540272 -0.00446797562
v -0.0778231434 -0.0587312607 -0.0144149132
v -0.0777628616 -0.0586709789 -0.00464589787
v -0.0777033333 -0.0586114506 -0.0142918129
v -0.0776445869 -0.0585527042 -0.0142280645
v -0.0776445869 -0.0585527042 -0.00477193546
v -0.0777033333 -0.0586114506 -0.0047081871
v -0.0775866417 -0.058494759 -0.0141628761
v -0.0775295071 -0.0584376244 -0.00490373325
v -0.0774731926 -0.0583813099 -0.0140282555
v -0.0774177364 -0.0583258537 -0.0139588709
v -0.0773631481 -0.0582712654 -0.00511187744
v -0.0774731926 -0.0583813099 -0.00497174454
v -0.0773094372 -0.0582175545 -0.0138160391
v -0.0772566227 -0.05816474 -0.0137426395
v -0.0772566227 -0.05816474 -0.00525736046
v -0.0773094372 -0.0582175545 -0.00518396091
v -0.0772047237 -0.058112841 -0.0136679525
v -0.0771037201 -0.0580118374 -0.00548521709
v -0.0770546535 -0.0579627708 -0.0134363527
v -0.0770065693 -0.0579146866 -0.00564327431
v -0.0769594673 -0.0578675846 -0.0132759209
v -0.0769133762 -0.0578214935 -0.0131939669
v -0.076868296 -0.0577764133 -0.0058891077
v -0.0769594673 -0.0578675846 -0.00572407913
v -0.0768242554 -0.0577323727 -0.0130267115
v -0.0767812542 -0.0576893715 -0.0129414577
v -0.0767812542 -0.0576893715 -0.00605854225
v -0.0768242554 -0.0577323727 -0.00597328854
v -0.0767393116 -0.0576474289 -0.0128551598
v -0.0766586594 -0.0575667766 -0.0126795168
v -0.0766199688 -0.0575280861 -0.00640977097
v -0.0766984371 -0.0576065544 -0.00623216343
v -0.0765823845 -0.0574905018 -0.0125000019
v -0.0765459255 -0.0574540428 -0.0124088593
v -0.0765105919 -0.0574187092 -0.00668317032
v -0.0765823845 -0.0574905018 -0.00649999809
v -0.0764764027 -0.0573845199 -0.0122239418
v -0.0763807777 -0.057288895 -0.0119404192
v -0.076351252 -0.0572593693 -0.00715561104
v -0.076411486 -0.0573195938 -0.00696428967
v -0.0763229088 -0.0572310261 -0.0117476387
v -0.0762698368 -0.0571779541 -0.00744787884
v -0.0760139755 -0.107975207 -0.0195
v -0.0760139755 -0.107975207 0.0005
v -0.0762451271 -0.0571532444 -0.0114534111
v -0.0761783317 -0.057086449 -0.0111538239
v -0.0761400036 -0.0570481209 -0.0109515305
v -0.0761066917 -0.057014809 -0.010747468
v -0.0760919289 -0.0570000461 -0.00835514736
v -0.0761227135 -0.0570308308 -0.00815029335
v -0.076158543 -0.0570666603 -0.00794708443
v -0.0761993603 -0.0571074776 -0.00774576855
v -0.0760784344 -0.0569865517 -0.0105418892
v -0.0760662083 -0.0569743256 -0.0104386063
v -0.0760455994 -0.0569537167 -0.0102312155
v -0.0760243133 -0.0569324306 -0.00991853905
v -0.07601656 -0.0569246773 -0.00970939827
v -0.076014624 -0.0569227413 -0.00939528656
v -0.0760197929 -0.0569279102 -0.00918598366
v -0.0760301212 -0.0569382385 -0.00897706699
v -0.0760552696 -0.0569633869 -0.00866496277
v -0.0760784344 -0.0569865517 -0.00845811081
v -0.0729027084 -0.0538108257 -0.0195
v -0.0729027084 -0.0538108257 0.0005
v -0.0700742821 -0.0566392521 -0.0195
v -0.0700742821 -0.0566392521 0.0005
v -0.0686600689 -0.0580534653 -0.0195
v -0.0686600689 -0.0580534653 0.0005
v -0.068033791 -0.054598761 -0.015269546
v -0.068088961 -0.054653931 -0.0150061388
v -0.0681178764 -0.0546828464 -0.0147742052
v -0.0681294922 -0.0546944717 -0.0145392675
v -0.0681210236 -0.0546859936 -0.0142648096
v -0.0680949692 -0.0546599392 -0.0140321989
v -0.0680430607 -0.0546080307 -0.0137674732
v -0.0680032638 -0.0545682339 -0.0136208553
v -0.068033791 -0.054598761 -0.00526954365
v -0.068088961 -0.054653931 -0.0050061388
v -0.0681178764 -0.0546828464 -0.00477420521
v -0.0681294922 -0.0546944717 -0.00453926754
v -0.0681210236 -0.0546859936 -0.00426480961
v -0.0680949692 -0.0546599392 -0.00403219891
v -0.0680430607 -0.0546080307 -0.00376747322
v -0.0680032638 -0.0545682339 -0.00362085533
v -0.0679563335 -0.0545213035 -0.0155214782
v -0.0679921917 -0.0545571617 -0.0154151578
v -0.0679687218 -0.0545336918 -0.0135136671
v -0.0679435066 -0.0545084766 -0.0134436913
v -0.0679563335 -0.0545213035 -0.00552148056
v -0.0679921917 -0.0545571617 -0.00541515541
v -0.0679687218 -0.0545336918 -0.00351366711
v -0.0679435066 -0.0545084766 -0.00344369125
v -0.0678577427 -0.0544227127 -0.0157581849
v -0.0679302601 -0.0544952301 -0.0155908222
v -0.0678730682 -0.0544380382 -0.0132745619
v -0.067757521 -0.0543224911 -0.0130537291
v -0.0678577427 -0.0544227127 -0.00575818253
v -0.0679302601 -0.0544952301 -0.00559082222
v -0.0678730682 -0.0544380382 -0.00327456188
v -0.067757521 -0.0543224911 -0.00305372906
v -0.0677210812 -0.0542860512 -0.0160055442
v -0.0677394871 -0.0543044571 -0.0159761329
v -0.0677394871 -0.0543044571 -0.0130238695
v -0.0677023224 -0.0542672924 -0.0129655046
v -0.0677210812 -0.0542860512 -0.0060055418
v -0.0677394871 -0.0543044571 -0.00597613049
v -0.0677394871 -0.0543044571 -0.00302386951
v -0.0677023224 -0.0542672924 -0.00296550465
v -0.0675182632 -0.0540832333 -0.0162730236
v -0.0676832107 -0.0542481808 -0.0160629816
v -0.0675399879 -0.054104958 -0.0127514238
v -0.0675182632 -0.0540832333 -0.0127269764
v -0.0675182632 -0.0540832333 -0.00627302361
v -0.0676832107 -0.0542481808 -0.00606298161
v -0.0675399879 -0.054104958 -0.00275142384
v -0.0675182632 -0.0540832333 -0.00272697639
v -0.0674962334 -0.0540612034 -0.0162969298
v -0.0674513058 -0.0540162758 -0.0126569099
v -0.0674962334 -0.0540612034 -0.00629693222
v -0.0674513058 -0.0540162758 -0.00265690994
v -0.0672610382 -0.0538260178 -0.0165047641
v -0.0674284176 -0.0539933876 -0.0163653345
v -0.0672856716 -0.0538506416 -0.0125133677
v -0.0672610382 -0.0538260178 -0.0124952335
v -0.0672610382 -0.0538260178 -0.00650476646
v -0.0674284176 -0.0539933876 -0.00636533451
v -0.0672856716 -0.0538506416 -0.00251336765
v -0.0672610382 -0.0538260178 -0.00249523354
v -0.067236195 -0.053801165 -0.0165222855
v -0.0671858601 -0.0537508301 -0.0124445219
v -0.067236195 -0.053801165 -0.00652228546
v -0.0671858601 -0.0537508301 -0.0024445219
v -0.0671603969 -0.053725367 -0.016571135
v -0.0670039085 -0.0535688785 -0.0123483152
v -0.0671603969 -0.053725367 -0.00657113743
v -0.0670039085 -0.0535688785 -0.00234831524
v -0.0669772819 -0.053542252 -0.016662838
v -0.0669505314 -0.0535155014 -0.0123266668
v -0.0669772819 -0.053542252 -0.00666283798
v -0.0669505314 -0.0535155014 -0.00232666683
v -0.0669236473 -0.0534886173 -0.0166831656
v -0.0667601684 -0.0533251385 -0.0122718973
v -0.0669236473 -0.0534886173 -0.00668316555
v -0.0667601684 -0.0533251385 -0.00227189732
v -0.0666195778 -0.0560129742 -0.015269546
v -0.0666747478 -0.0560681442 -0.0150061388
v -0.0667036632 -0.0560970596 -0.0147742052
v -0.066715279 -0.0561086849 -0.0145392675
v -0.0667068104 -0.0561002067 -0.0142648096
v -0.066680756 -0.0560741524 -0.0140321989
v -0.0666288475 -0.0560222439 -0.0137674732
v -0.0666098503 -0.0560032467 -0.0136936731
v -0.0666195778 -0.0560129742 -0.00526954365
v -0.0666747478 -0.0560681442 -0.0050061388
v -0.0667036632 -0.0560970596 -0.00477420521
v -0.066715279 -0.0561086849 -0.00453926754
v -0.0667068104 -0.0561002067 -0.00426480961
v -0.066680756 -0.0560741524 -0.00403219891
v -0.0666288475 -0.0560222439 -0.00376747322
v -0.0666098503 -0.0560032467 -0.00369367313
v -0.0665421204 -0.0559355167 -0.0155214782
v -0.0665996746 -0.055993071 -0.0153428645
v -0.0665545086 -0.055947905 -0.0135136671
v -0.0665023712 -0.0558957676 -0.0133749981
v -0.0665421204 -0.0559355167 -0.00552148056
v -0.0665996746 -0.055993071 -0.0053428669
v -0.0665545086 -0.055947905 -0.00351366711
v -0.0665023712 -0.0558957676 -0.00337499809
v -0.0667326454 -0.0532976154 -0.0167332287
v -0.0667050556 -0.0532700256 -0.0122623272
v -0.0667326454 -0.0532976154 -0.00673322868
v -0.0667050556 -0.0532700256 -0.00226232719
v -0.0666774086 -0.0532423786 -0.0167414374
v -0.0665387443 -0.0531037239 -0.012250001
v -0.0666774086 -0.0532423786 -0.00674143982
v -0.0665387443 -0.0531037239 -0.00225000095
v -0.0664435295 -0.0558369259 -0.0157581849
v -0.0664882759 -0.0558816818 -0.0156588359
v -0.066458855 -0.0558522514 -0.0132745619
v -0.0663609699 -0.0557543663 -0.0130840273
v -0.0664435295 -0.0558369259 -0.00575818253
v -0.0664882759 -0.0558816818 -0.0056588335
v -0.066458855 -0.0558522514 -0.00327456188
v -0.0663609699 -0.0557543663 -0.00308402729
v -0.066306868 -0.0557002643 -0.0160055442
v -0.0663433079 -0.0557367042 -0.0159462709
v -0.0663252739 -0.0557186703 -0.0130238695
v -0.0662689976 -0.0556623939 -0.0129370184
v -0.066306868 -0.0557002643 -0.0060055418
v -0.0663433079 -0.0557367042 -0.00594627094
v -0.0663252739 -0.0557186703 -0.00302386951
v -0.0662689976 -0.0556623939 -0.00293701839
v -0.0664832214 -0.0530481914 -0.0167486305
v -0.066455479 -0.0530204491 -0.0122530813
v -0.0664832214 -0.0530481914 -0.00674863052
v -0.066455479 -0.0530204491 -0.00225308132
v -0.0664277653 -0.0529927353 -0.0167445202
v -0.0662624744 -0.0528274444 -0.0122841806
v -0.0664277653 -0.0529927353 -0.00674452019
v -0.0662624744 -0.0528274444 -0.00228418064
v -0.0662495331 -0.0556429294 -0.016090991
v -0.0661257748 -0.0555191711 -0.0127514238
v -0.0662495331 -0.0556429294 -0.00609099102
v -0.0661257748 -0.0555191711 -0.00275142384
v -0.0661040501 -0.0554974464 -0.0162730236
v -0.0660142044 -0.0554076008 -0.0126346655
v -0.0661040501 -0.0554974464 -0.00627302361
v -0.0660142044 -0.0554076008 -0.00263466549
v -0.0662351707 -0.0528001408 -0.016708662
v -0.0662079624 -0.0527729324 -0.0122991676
v -0.0662351707 -0.0528001408 -0.00670866203
v -0.0662079624 -0.0527729324 -0.00229916763
v -0.0661808494 -0.052745829 -0.0166923327
v -0.0660207752 -0.0525857452 -0.0123725815
v -0.0661808494 -0.052745829 -0.00669233036
v -0.0660207752 -0.0525857452 -0.00237258148
v -0.0659910492 -0.0553844456 -0.0163870091
v -0.0658714584 -0.0552648548 -0.0125133677
v -0.0659910492 -0.0553844456 -0.00638700676
v -0.0658714584 -0.0552648548 -0.00251336765
v -0.065846825 -0.0552402309 -0.0165047641
v -0.0657716469 -0.0551650432 -0.0124445219
v -0.065846825 -0.0552402309 -0.00650476646
v -0.0657716469 -0.0551650432 -0.0024445219
v -0.0659945969 -0.0525595669 -0.0166143079
v -0.0659427551 -0.0525077251 -0.0124138374
v -0.0659945969 -0.0525595669 -0.00661431026
v -0.0659427551 -0.0525077251 -0.00241383743
v -0.0659171013 -0.0524820713 -0.016571135
v -0.0657918266 -0.0523567966 -0.0164866323
v -0.0657674221 -0.0523323921 -0.0125321074
v -0.0658164505 -0.0523814205 -0.0124952335
v -0.0659171013 -0.0524820713 -0.00657113743
v -0.0657918266 -0.0523567966 -0.00648663235
v -0.0657674221 -0.0523323921 -0.00253210735
v -0.0658164505 -0.0523814205 -0.00249523354
v -0.0657461838 -0.0551395801 -0.016571135
v -0.0656161789 -0.0550095753 -0.0123601217
v -0.0657461838 -0.0551395801 -0.00657113743
v -0.0656161789 -0.0550095753 -0.00236012173
v -0.0655896953 -0.0549830917 -0.0166516848
v -0.0655094341 -0.0549028305 -0.0123168344
v -0.0655896953 -0.0549830917 -0.00665168476
v -0.0655094341 -0.0549028305 -0.00231683445
v -0.065743256 -0.052308226 -0.0164485569
v -0.0656956486 -0.0522606186 -0.0125918932
v -0.065743256 -0.052308226 -0.0064485569
v -0.0656956486 -0.0522606186 -0.0025918932
v -0.0656722359 -0.0522372059 -0.0163870091
v -0.0655375008 -0.0521024803 -0.0162485785
v -0.0655160812 -0.0520810512 -0.0127764006
v -0.065559235 -0.052124205 -0.0127269764
v -0.0656722359 -0.0522372059 -0.00638700676
v -0.0655375008 -0.0521024803 -0.00624857616
v -0.0655160812 -0.0520810512 -0.00277640057
v -0.065559235 -0.052124205 -0.00272697639
v -0.0654824261 -0.054875832 -0.0166923327
v -0.0653734211 -0.0547668175 -0.0122777004
v -0.0654824261 -0.054875832 -0.00669233036
v -0.0653734211 -0.0547668175 -0.00227770042
v -0.0653459553 -0.0547393516 -0.0167281027
v -0.0652631954 -0.0546566013 -0.0122585602
v -0.0653459553 -0.0547393516 -0.00672810268
v -0.0652631954 -0.0546566013 -0.00225856018
v -0.0654949669 -0.0520599369 -0.0161980958
v -0.0654536919 -0.0520186619 -0.012854454
v -0.0654949669 -0.0520599369 -0.00619809818
v -0.0654536919 -0.0520186619 -0.00285445404
v -0.0654335503 -0.0519985203 -0.0161185141
v -0.0653380112 -0.0519029812 -0.0159761329
v -0.0652516083 -0.0518165783 -0.0131774826
v -0.0653564075 -0.0519213871 -0.0129944582
v -0.0654335503 -0.0519985203 -0.00611851406
v -0.0653380112 -0.0519029812 -0.00597613049
v -0.0652516083 -0.0518165783 -0.0031774826
v -0.0653564075 -0.0519213871 -0.0029944582
v -0.0652355198 -0.0546289162 -0.0167445202
v -0.0651245312 -0.0545179371 -0.012250001
v -0.0652355198 -0.0546289162 -0.00674452019
v -0.0651245312 -0.0545179371 -0.00225000095
v -0.0650967697 -0.0544901661 -0.0167496581
v -0.0650135521 -0.0544069485 -0.0122554798
v -0.0650967697 -0.0544901661 -0.00674965572
v -0.0650135521 -0.0544069485 -0.00225547981
v -0.0652354816 -0.0518004517 -0.0157905478
v -0.06520443 -0.0517694 -0.0157254381
v -0.0651895145 -0.0517544845 -0.013307683
v -0.0652197555 -0.0517847256 -0.0132418175
v -0.0652354816 -0.0518004517 -0.00579054546
v -0.06520443 -0.0517694 -0.00572543812
v -0.0651895145 -0.0517544845 -0.00330768299
v -0.0652197555 -0.0517847256 -0.00324181747
v -0.0651749996 -0.0517399792 -0.0156588359
v -0.0651087765 -0.0516737465 -0.0154863353
v -0.0650344376 -0.0515994076 -0.0152325292
v -0.0650019649 -0.0515669445 -0.0139176579
v -0.0650437073 -0.0516086773 -0.0137304564
v -0.0651211647 -0.0516861347 -0.0134785194
v -0.0651749996 -0.0517399792 -0.0056588335
v -0.0651087765 -0.0516737465 -0.00548633289
v -0.0650344376 -0.0515994076 -0.00523252678
v -0.0650019649 -0.0515669445 -0.00391765785
v -0.0650437073 -0.0516086773 -0.00373045635
v -0.0651211647 -0.0516861347 -0.00347851944
v -0.0649858669 -0.0543792728 -0.0167414374
v -0.0648756508 -0.0542690472 -0.0122777004
v -0.0649858669 -0.0543792728 -0.00674143982
v -0.0648756508 -0.0542690472 -0.00227770042
v -0.0648482613 -0.0542416576 -0.016715817
v -0.0647666363 -0.0541600422 -0.0123076696
v -0.0648482613 -0.0542416576 -0.00671581936
v -0.0647666363 -0.0541600422 -0.00230766964
v -0.0649950127 -0.0515599922 -0.0150443239
v -0.0649825291 -0.0515474991 -0.0149678011
v -0.0649564747 -0.0515214447 -0.014735188
v -0.0649477581 -0.0515127281 -0.0145
v -0.0649596123 -0.0515245918 -0.0142257948
v -0.0649885372 -0.0515535072 -0.0139938612
v -0.0649950127 -0.0515599922 -0.00504432392
v -0.0649825291 -0.0515474991 -0.00496780109
v -0.0649564747 -0.0515214447 -0.00473519039
v -0.0649477581 -0.0515127281 -0.0045
v -0.0649596123 -0.0515245918 -0.00422579479
v -0.0649885372 -0.0515535072 -0.0039938612
v -0.064770985 -0.051335955 -0.0195
v -0.064770985 -0.051335955 0.0005
v -0.0647396377 -0.0541330341 -0.0166831656
v -0.064632893 -0.0540262894 -0.0123601217
v -0.0647396377 -0.0541330341 -0.00668316555
v -0.064632893 -0.0540262894 -0.00236012173
v -0.064606562 -0.0539999584 -0.0166274161
v -0.0645028881 -0.0538962845 -0.0124288626
v -0.064606562 -0.0539999584 -0.00662741852
v -0.0645028881 -0.0538962845 -0.00242886257
v -0.064477425 -0.0538708214 -0.0165554781
v -0.0643776134 -0.0537710098 -0.0164866323
v -0.0643776134 -0.0537710098 -0.0125133677
v -0.0644022373 -0.0537956337 -0.0124952335
v -0.064477425 -0.0538708214 -0.0065554781
v -0.0643776134 -0.0537710098 -0.00648663235
v -0.0643776134 -0.0537710098 -0.00251336765
v -0.0644022373 -0.0537956337 -0.00249523354
v -0.0643532089 -0.0537466053 -0.016467895
v -0.0642580227 -0.0536514191 -0.0126129932
v -0.0643532089 -0.0537466053 -0.00646789265
v -0.0642580227 -0.0536514191 -0.00261299324
v -0.0642348675 -0.0536282638 -0.0163653345
v -0.0641232876 -0.0535166935 -0.0162485785
v -0.0641232876 -0.0535166935 -0.0127514238
v -0.0641450218 -0.0535384182 -0.0127269764
v -0.0642348675 -0.0536282638 -0.00636533451
v -0.0641232876 -0.0535166935 -0.00624857616
v -0.0641232876 -0.0535166935 -0.00275142384
v -0.0641450218 -0.0535384182 -0.00272697639
v -0.064101868 -0.0534952644 -0.0162235994
v -0.0640193371 -0.0534127335 -0.0128814859
v -0.064101868 -0.0534952644 -0.00622359943
v -0.0640193371 -0.0534127335 -0.00288148594
v -0.0639995388 -0.0533929352 -0.016090991
v -0.063923798 -0.0533171944 -0.0159761329
v -0.0638708214 -0.0532642177 -0.0131147594
v -0.0639421944 -0.0533356003 -0.0129944582
v -0.0639995388 -0.0533929352 -0.00609099102
v -0.063923798 -0.0533171944 -0.00597613049
v -0.0638708214 -0.0532642177 -0.00311475945
v -0.0639421944 -0.0533356003 -0.0029944582
v -0.0638539127 -0.0532473091 -0.015854084
v -0.0637902168 -0.0531836132 -0.0157254381
v -0.0637607864 -0.0531541923 -0.0133411665
v -0.0638055424 -0.0531989387 -0.0132418175
v -0.0638539127 -0.0532473091 -0.00585408401
v -0.0637902168 -0.0531836132 -0.00572543812
v -0.0637607864 -0.0531541923 -0.0033411665
v -0.0638055424 -0.0531989387 -0.00324181747
v -0.0637467007 -0.053140097 -0.0156249995
v -0.0636945633 -0.0530879597 -0.0154863353
v -0.0636202244 -0.0530136207 -0.0152325292
v -0.0636114124 -0.0530048088 -0.0138047094
v -0.0636294941 -0.0530228905 -0.0137304564
v -0.0637069515 -0.0531003479 -0.0134785194
v -0.0637467007 -0.053140097 -0.00562500191
v -0.0636945633 -0.0530879597 -0.00548633289
v -0.0636202244 -0.0530136207 -0.00523252678
v -0.0636114124 -0.0530048088 -0.00380470943
v -0.0636294941 -0.0530228905 -0.00373045635
v -0.0637069515 -0.0531003479 -0.00347851944
v -0.0636030582 -0.0529964641 -0.0151578374
v -0.0635683159 -0.0529617123 -0.0149678011
v -0.0635422615 -0.0529356579 -0.014735188
v -0.0635335449 -0.0529269413 -0.0145
v -0.0635453991 -0.052938805 -0.0142257948
v -0.063574324 -0.0529677204 -0.0139938612
v -0.0636030582 -0.0529964641 -0.00515783501
v -0.0635683159 -0.0529617123 -0.00496780109
v -0.0635422615 -0.0529356579 -0.00473519039
v -0.0635335449 -0.0529269413 -0.0045
v -0.0635453991 -0.052938805 -0.00422579479
v -0.063574324 -0.0529677204 -0.0039938612
v -0.0633567718 -0.0527501682 -0.0195
v -0.0633567718 -0.0527501682 0.0005
v -0.0473761562 -0.0793373779 -0.0195
v -0.0473761562 -0.0793373779 0.0005
f 2 6 1
f 1 63 2
f 4 3 1
f 1 3 15
f 5 4 1
f 6 5 1
f 1 15 21
f 20 19 1
f 1 19 31
f 1 21 20
f 1 31 35
f 1 35 40
f 40 39 1
f 1 39 47
f 1 47 52
f 1 52 51
f 1 51 59
f 1 59 65
f 63 1 329
f 1 65 69
f 1 69 97
f 1 97 101
f 1 101 121
f 1 121 125
f 1 125 141
f 1 141 145
f 1 145 327
f 329 1 327
f 11 6 2
f 2 12 11
f 13 12 2
f 14 13 2
f 2 18 14
f 2 28 18
f 2 29 28
f 30 29 2
f 2 34 30
f 2 38 34
f 2 45 38
f 46 45 2
f 2 50 46
f 2 57 50
f 2 58 57
f 2 62 58
f 2 68 62
f 2 63 64
f 2 64 328
f 2 72 68
f 2 100 72
f 2 104 100
f 2 124 104
f 2 128 124
f 2 144 128
f 2 148 144
f 328 148 2
f 4 74 3
f 3 87 15
f 3 74 73
f 3 73 87
f 5 75 4
f 4 75 74
f 6 76 5
f 5 76 75
f 11 7 6
f 7 77 6
f 6 77 76
f 10 8 7
f 8 78 7
f 10 7 11
f 7 78 77
f 9 8 10
f 9 16 8
f 16 89 8
f 8 88 78
f 8 89 88
f 10 80 9
f 17 16 9
f 9 93 17
f 9 80 79
f 9 79 93
f 11 81 10
f 10 81 80
f 12 82 11
f 11 82 81
f 13 83 12
f 12 83 82
f 14 84 13
f 13 84 83
f 18 95 14
f 14 94 84
f 14 95 94
f 15 86 21
f 15 87 86
f 17 22 16
f 22 89 16
f 27 22 17
f 17 92 27
f 17 93 92
f 28 95 18
f 20 106 19
f 19 114 31
f 19 106 105
f 19 105 114
f 21 86 20
f 20 86 85
f 20 85 106
f 27 23 22
f 23 90 22
f 22 90 89
f 26 24 23
f 24 108 23
f 26 23 27
f 23 107 90
f 23 108 107
f 25 24 26
f 25 32 24
f 32 115 24
f 24 115 108
f 26 110 25
f 33 32 25
f 25 118 33
f 25 110 109
f 25 109 118
f 27 92 26
f 26 92 91
f 26 91 110
f 29 96 28
f 28 96 95
f 30 112 29
f 29 111 96
f 29 112 111
f 34 119 30
f 30 119 112
f 31 114 35
f 33 36 32
f 36 116 32
f 32 116 115
f 37 36 33
f 33 118 37
f 38 120 34
f 34 120 119
f 35 134 40
f 35 114 113
f 35 113 129
f 35 129 134
f 37 41 36
f 41 135 36
f 36 130 116
f 36 135 130
f 44 41 37
f 37 138 44
f 37 118 117
f 37 117 131
f 37 131 138
f 45 139 38
f 38 132 120
f 38 139 132
f 40 134 39
f 39 133 47
f 39 134 133
f 44 42 41
f 42 136 41
f 41 136 135
f 43 42 44
f 43 48 42
f 48 136 42
f 44 138 43
f 49 48 43
f 43 137 49
f 43 138 137
f 46 140 45
f 45 140 139
f 50 140 46
f 47 154 52
f 47 133 149
f 47 149 154
f 49 53 48
f 53 155 48
f 48 150 136
f 48 155 150
f 56 53 49
f 49 158 56
f 49 137 151
f 49 151 158
f 57 159 50
f 50 152 140
f 50 159 152
f 52 154 51
f 51 153 59
f 51 154 153
f 56 54 53
f 54 156 53
f 53 156 155
f 55 54 56
f 55 60 54
f 60 156 54
f 56 158 55
f 61 60 55
f 55 157 61
f 55 158 157
f 58 160 57
f 57 160 159
f 62 160 58
f 59 179 65
f 59 153 175
f 59 175 179
f 61 66 60
f 66 180 60
f 60 176 156
f 60 180 176
f 67 66 61
f 61 181 67
f 61 157 177
f 61 177 181
f 68 182 62
f 62 178 160
f 62 182 178
f 63 81 64
f 73 74 63
f 63 87 73
f 74 75 63
f 75 76 63
f 76 81 63
f 63 85 86
f 106 85 63
f 63 86 87
f 105 106 63
f 114 105 63
f 63 113 114
f 129 113 63
f 63 134 129
f 133 134 63
f 149 133 63
f 154 149 63
f 63 153 154
f 63 175 153
f 63 179 175
f 63 191 179
f 63 195 191
f 63 211 195
f 63 215 211
f 235 215 63
f 63 239 235
f 259 239 63
f 329 259 63
f 64 81 82
f 82 83 64
f 83 84 64
f 64 84 94
f 64 94 95
f 64 95 96
f 96 111 64
f 111 112 64
f 112 119 64
f 64 119 120
f 120 132 64
f 64 132 139
f 139 140 64
f 140 152 64
f 152 159 64
f 64 159 160
f 64 160 178
f 64 178 182
f 64 182 194
f 64 194 198
f 64 198 214
f 214 218 64
f 64 218 238
f 238 242 64
f 64 242 262
f 64 262 330
f 328 64 330
f 65 179 69
f 67 70 66
f 70 192 66
f 66 192 180
f 71 70 67
f 67 181 71
f 72 194 68
f 68 194 182
f 69 191 97
f 69 179 191
f 71 98 70
f 98 196 70
f 70 196 192
f 99 98 71
f 71 193 99
f 71 181 193
f 100 198 72
f 72 198 194
f 77 80 76
f 76 80 81
f 78 79 77
f 77 79 80
f 78 93 79
f 88 93 78
f 89 92 88
f 88 92 93
f 90 91 89
f 89 91 92
f 90 110 91
f 107 110 90
f 97 195 101
f 97 191 195
f 99 102 98
f 102 212 98
f 98 212 196
f 103 102 99
f 99 197 103
f 99 193 197
f 104 214 100
f 100 214 198
f 101 211 121
f 101 195 211
f 102 103 122
f 122 216 102
f 102 216 212
f 122 103 123
f 103 213 123
f 103 197 213
f 124 218 104
f 104 218 214
f 108 109 107
f 107 109 110
f 108 118 109
f 115 118 108
f 116 117 115
f 115 117 118
f 116 131 117
f 130 131 116
f 121 215 125
f 121 211 215
f 122 123 126
f 126 216 122
f 126 123 127
f 123 217 127
f 123 213 217
f 128 218 124
f 125 235 141
f 125 215 235
f 126 127 142
f 142 240 126
f 126 236 216
f 126 240 236
f 142 127 143
f 127 237 143
f 127 217 237
f 144 242 128
f 128 238 218
f 128 242 238
f 130 138 131
f 135 138 130
f 136 137 135
f 135 137 138
f 136 151 137
f 150 151 136
f 141 239 145
f 141 235 239
f 142 143 146
f 146 240 142
f 146 143 147
f 143 241 147
f 143 237 241
f 148 242 144
f 145 263 161
f 327 145 161
f 145 239 259
f 145 259 263
f 146 147 162
f 162 264 146
f 146 260 240
f 146 264 260
f 162 147 163
f 147 265 163
f 147 241 261
f 147 261 265
f 164 266 148
f 328 164 148
f 148 262 242
f 148 266 262
f 150 158 151
f 155 158 150
f 156 157 155
f 155 157 158
f 156 177 157
f 176 177 156
f 161 263 165
f 161 165 327
f 162 163 168
f 168 264 162
f 168 163 169
f 163 265 169
f 172 266 164
f 172 164 328
f 165 267 166
f 327 165 166
f 165 263 267
f 166 271 183
f 327 166 183
f 166 267 271
f 168 169 167
f 167 272 168
f 167 169 170
f 167 170 184
f 184 272 167
f 168 268 264
f 168 272 268
f 169 269 170
f 169 265 269
f 184 170 185
f 170 273 185
f 170 269 273
f 171 274 172
f 328 171 172
f 186 274 171
f 328 186 171
f 172 270 266
f 172 274 270
f 327 174 173
f 174 433 173
f 173 729 327
f 428 427 173
f 173 427 442
f 173 429 428
f 173 430 429
f 173 431 430
f 173 432 431
f 433 432 173
f 173 442 441
f 173 441 451
f 173 450 449
f 173 449 456
f 173 451 450
f 173 456 455
f 173 455 464
f 464 463 173
f 463 467 173
f 173 467 474
f 474 473 173
f 473 477 173
f 173 477 484
f 484 483 173
f 173 483 487
f 173 487 493
f 173 493 495
f 173 495 501
f 173 501 503
f 173 503 509
f 509 511 173
f 173 511 517
f 173 517 519
f 173 519 525
f 173 525 527
f 527 536 173
f 173 536 535
f 535 539 173
f 173 539 547
f 547 549 173
f 173 549 558
f 173 558 557
f 173 557 561
f 173 561 567
f 173 567 569
f 173 569 579
f 173 579 727
f 173 727 729
f 328 174 327
f 728 174 328
f 174 434 433
f 435 434 174
f 174 436 435
f 174 437 436
f 174 438 437
f 174 439 438
f 440 439 174
f 174 443 440
f 174 444 443
f 174 452 444
f 174 453 452
f 174 454 453
f 174 457 454
f 174 458 457
f 174 465 458
f 466 465 174
f 468 466 174
f 174 475 468
f 476 475 174
f 478 476 174
f 174 485 478
f 486 485 174
f 174 488 486
f 174 494 488
f 174 496 494
f 174 502 496
f 174 504 502
f 174 510 504
f 512 510 174
f 174 518 512
f 174 520 518
f 174 526 520
f 174 528 526
f 537 528 174
f 174 538 537
f 540 538 174
f 174 548 540
f 550 548 174
f 174 559 550
f 174 560 559
f 174 562 560
f 174 568 562
f 174 570 568
f 174 580 570
f 728 580 174
f 176 181 177
f 180 181 176
f 180 193 181
f 192 193 180
f 183 271 187
f 327 183 187
f 184 185 188
f 188 272 184
f 188 185 189
f 185 273 189
f 190 274 186
f 328 190 186
f 187 279 199
f 187 199 327
f 187 271 275
f 187 275 279
f 188 189 200
f 200 281 188
f 188 276 272
f 188 282 276
f 188 281 282
f 200 189 201
f 189 283 201
f 189 273 277
f 189 277 283
f 202 285 190
f 202 190 328
f 190 278 274
f 190 286 278
f 190 285 286
f 192 197 193
f 196 197 192
f 196 213 197
f 212 213 196
f 199 280 203
f 199 203 327
f 199 279 280
f 200 201 206
f 206 281 200
f 206 201 207
f 201 284 207
f 201 283 284
f 210 285 202
f 210 202 328
f 203 287 204
f 327 203 204
f 203 280 287
f 204 295 219
f 327 204 219
f 204 287 288
f 204 288 295
f 206 207 205
f 205 289 206
f 205 207 208
f 205 208 220
f 220 296 205
f 205 296 289
f 206 290 281
f 206 289 290
f 207 291 208
f 207 284 291
f 220 208 221
f 208 297 221
f 208 291 292
f 208 292 297
f 209 293 210
f 328 209 210
f 222 298 209
f 328 222 209
f 209 298 293
f 210 294 285
f 210 293 294
f 212 217 213
f 216 217 212
f 217 216 237
f 237 216 236
f 219 295 223
f 327 219 223
f 220 221 228
f 228 296 220
f 228 221 229
f 221 297 229
f 234 298 222
f 328 234 222
f 223 295 224
f 223 224 327
f 224 299 225
f 327 224 225
f 224 295 299
f 225 307 243
f 327 225 243
f 225 299 300
f 225 300 307
f 227 230 226
f 226 301 227
f 226 230 231
f 226 231 246
f 246 313 226
f 226 314 301
f 226 313 314
f 228 229 227
f 227 302 228
f 227 229 230
f 227 301 302
f 228 302 296
f 229 297 230
f 230 303 231
f 230 297 303
f 246 231 247
f 231 315 247
f 231 303 304
f 231 304 315
f 232 305 233
f 328 232 233
f 250 321 232
f 328 250 232
f 232 322 305
f 232 321 322
f 233 306 234
f 233 234 328
f 233 305 306
f 234 306 298
f 237 236 241
f 241 236 240
f 241 240 261
f 261 240 260
f 243 308 244
f 243 244 327
f 243 307 308
f 244 309 251
f 327 244 251
f 244 308 309
f 246 247 245
f 245 312 246
f 245 247 248
f 245 248 327
f 254 312 245
f 327 254 245
f 246 312 313
f 247 316 248
f 247 315 316
f 248 317 255
f 328 248 255
f 248 316 317
f 327 248 328
f 249 320 250
f 249 250 328
f 258 320 249
f 328 258 249
f 250 320 321
f 251 309 252
f 251 252 327
f 252 323 253
f 252 253 327
f 252 309 310
f 252 310 323
f 253 311 254
f 327 253 254
f 253 324 311
f 253 323 324
f 254 311 312
f 255 317 256
f 328 255 256
f 256 325 257
f 328 256 257
f 256 317 318
f 256 318 325
f 257 319 258
f 257 258 328
f 257 326 319
f 257 325 326
f 258 319 320
f 263 259 329
f 261 260 265
f 265 260 264
f 262 266 330
f 329 267 263
f 265 264 269
f 269 264 268
f 330 266 270
f 329 271 267
f 269 268 273
f 273 268 272
f 330 270 274
f 329 275 271
f 273 272 277
f 277 272 276
f 330 274 278
f 329 279 275
f 277 276 283
f 283 276 282
f 330 278 286
f 280 279 329
f 329 287 280
f 284 282 281
f 284 281 291
f 291 281 290
f 283 282 284
f 286 285 330
f 330 285 294
f 329 288 287
f 295 288 329
f 292 290 289
f 292 289 297
f 297 289 296
f 291 290 292
f 330 294 293
f 293 298 330
f 299 295 329
f 297 296 303
f 303 296 302
f 298 306 330
f 329 300 299
f 307 300 329
f 304 302 301
f 304 301 315
f 315 301 314
f 303 302 304
f 330 306 305
f 305 322 330
f 329 308 307
f 309 308 329
f 310 309 329
f 329 323 310
f 329 312 311
f 311 324 329
f 317 313 312
f 317 312 330
f 330 312 329
f 316 314 313
f 316 313 317
f 315 314 316
f 330 318 317
f 325 318 330
f 320 319 330
f 330 319 326
f 321 320 330
f 330 322 321
f 324 323 329
f 330 326 325
f 327 731 329
f 327 729 731
f 730 328 330
f 728 328 730
f 329 707 330
f 329 1065 707
f 329 731 1065
f 330 707 708
f 732 330 708
f 730 330 732
f 343 331 332
f 427 332 331
f 344 331 343
f 344 345 331
f 441 331 345
f 427 331 442
f 442 331 441
f 342 332 333
f 428 333 332
f 343 332 342
f 428 332 427
f 341 333 334
f 429 334 333
f 342 333 341
f 429 333 428
f 340 334 335
f 430 335 334
f 341 334 340
f 430 334 429
f 339 335 336
f 431 336 335
f 340 335 339
f 431 335 430
f 338 336 337
f 432 337 336
f 339 336 338
f 432 336 431
f 433 338 337
f 433 337 432
f 434 339 338
f 434 338 433
f 435 340 339
f 435 339 434
f 436 341 340
f 436 340 435
f 437 342 341
f 437 341 436
f 438 343 342
f 438 342 437
f 439 344 343
f 439 343 438
f 346 345 344
f 443 346 344
f 440 344 439
f 443 344 440
f 346 349 345
f 451 345 349
f 441 345 451
f 350 349 346
f 444 350 346
f 444 346 443
f 351 347 348
f 449 348 347
f 352 347 351
f 352 353 347
f 456 347 353
f 449 347 456
f 350 348 349
f 450 349 348
f 351 348 350
f 450 348 449
f 451 349 450
f 452 351 350
f 452 350 444
f 453 352 351
f 453 351 452
f 354 353 352
f 454 354 352
f 454 352 453
f 354 356 353
f 455 353 356
f 456 353 455
f 357 356 354
f 457 357 354
f 457 354 454
f 357 355 356
f 463 356 355
f 358 355 357
f 358 359 355
f 467 355 359
f 463 355 467
f 455 356 464
f 464 356 463
f 465 358 357
f 458 357 457
f 465 357 458
f 360 359 358
f 466 360 358
f 466 358 465
f 360 362 359
f 474 359 362
f 467 359 474
f 363 362 360
f 468 363 360
f 468 360 466
f 363 361 362
f 473 362 361
f 364 361 363
f 364 365 361
f 477 361 365
f 473 361 477
f 474 362 473
f 475 364 363
f 475 363 468
f 366 365 364
f 476 366 364
f 476 364 475
f 366 368 365
f 477 365 368
f 369 368 366
f 478 369 366
f 478 366 476
f 369 367 368
f 483 368 367
f 370 367 369
f 370 371 367
f 487 367 371
f 483 367 487
f 477 368 484
f 484 368 483
f 485 370 369
f 485 369 478
f 372 371 370
f 486 372 370
f 486 370 485
f 372 374 371
f 487 371 374
f 375 374 372
f 488 375 372
f 488 372 486
f 375 373 374
f 493 374 373
f 376 373 375
f 376 377 373
f 495 373 377
f 493 373 495
f 487 374 493
f 488 376 375
f 378 377 376
f 494 378 376
f 494 376 488
f 378 379 377
f 501 377 379
f 495 377 501
f 380 379 378
f 496 380 378
f 496 378 494
f 380 381 379
f 503 379 381
f 501 379 503
f 382 381 380
f 502 382 380
f 502 380 496
f 382 383 381
f 503 381 383
f 384 383 382
f 504 384 382
f 504 382 502
f 384 385 383
f 511 383 385
f 503 383 509
f 509 383 511
f 386 385 384
f 510 386 384
f 510 384 504
f 386 387 385
f 511 385 387
f 388 387 386
f 512 388 386
f 512 386 510
f 388 389 387
f 519 387 389
f 511 387 517
f 517 387 519
f 390 389 388
f 518 390 388
f 518 388 512
f 390 391 389
f 525 389 391
f 519 389 525
f 392 391 390
f 520 392 390
f 520 390 518
f 392 393 391
f 527 391 393
f 525 391 527
f 394 393 392
f 526 394 392
f 526 392 520
f 394 396 393
f 536 393 396
f 527 393 536
f 397 396 394
f 528 397 394
f 528 394 526
f 397 395 396
f 535 396 395
f 398 395 397
f 398 399 395
f 539 395 399
f 535 395 539
f 536 396 535
f 537 398 397
f 537 397 528
f 400 399 398
f 538 400 398
f 538 398 537
f 400 401 399
f 547 399 401
f 539 399 547
f 402 401 400
f 540 402 400
f 540 400 538
f 402 403 401
f 549 401 403
f 547 401 549
f 404 403 402
f 548 404 402
f 548 402 540
f 404 406 403
f 558 403 406
f 549 403 558
f 407 406 404
f 550 407 404
f 550 404 548
f 407 405 406
f 557 406 405
f 408 405 407
f 408 409 405
f 561 405 409
f 557 405 561
f 558 406 557
f 559 408 407
f 559 407 550
f 410 409 408
f 560 410 408
f 560 408 559
f 410 411 409
f 567 409 411
f 561 409 567
f 412 411 410
f 562 412 410
f 562 410 560
f 412 413 411
f 569 411 413
f 567 411 569
f 414 413 412
f 568 414 412
f 568 412 562
f 414 415 413
f 579 413 415
f 569 413 579
f 416 415 414
f 570 416 414
f 570 414 568
f 416 417 415
f 581 415 417
f 579 415 581
f 418 417 416
f 580 418 416
f 580 416 570
f 418 419 417
f 591 417 419
f 581 417 591
f 420 419 418
f 582 420 418
f 582 418 580
f 420 421 419
f 593 419 421
f 591 419 593
f 422 421 420
f 592 422 420
f 592 420 582
f 422 423 421
f 601 421 423
f 593 421 601
f 424 423 422
f 594 424 422
f 594 422 592
f 424 425 423
f 603 423 425
f 601 423 603
f 426 425 424
f 602 426 424
f 602 424 594
f 425 426 445
f 603 425 445
f 445 426 446
f 604 446 426
f 604 426 602
f 445 446 447
f 625 445 447
f 603 445 623
f 623 445 625
f 447 446 448
f 624 448 446
f 624 446 604
f 447 448 459
f 627 447 459
f 625 447 627
f 459 448 460
f 626 460 448
f 626 448 624
f 459 460 461
f 629 459 461
f 627 459 629
f 461 460 462
f 628 462 460
f 628 460 626
f 461 462 469
f 631 461 469
f 629 461 631
f 469 462 470
f 630 470 462
f 630 462 628
f 469 470 471
f 633 469 471
f 631 469 633
f 471 470 472
f 632 472 470
f 632 470 630
f 471 472 479
f 635 471 479
f 633 471 635
f 479 472 480
f 634 480 472
f 634 472 632
f 479 480 481
f 637 479 481
f 635 479 637
f 481 480 482
f 636 482 480
f 636 480 634
f 481 482 489
f 639 481 489
f 637 481 639
f 489 482 490
f 638 490 482
f 638 482 636
f 489 490 491
f 642 489 491
f 639 489 641
f 641 489 642
f 491 490 492
f 644 492 490
f 640 490 638
f 644 490 640
f 491 492 497
f 645 491 497
f 642 491 645
f 497 492 498
f 643 498 492
f 643 492 644
f 497 498 499
f 647 497 499
f 645 497 647
f 499 498 500
f 646 500 498
f 646 498 643
f 499 500 505
f 649 499 505
f 647 499 649
f 505 500 506
f 648 506 500
f 648 500 646
f 505 506 507
f 651 505 507
f 649 505 651
f 507 506 508
f 650 508 506
f 650 506 648
f 507 508 513
f 653 507 513
f 651 507 653
f 513 508 514
f 652 514 508
f 652 508 650
f 513 514 515
f 655 513 515
f 653 513 655
f 515 514 516
f 654 516 514
f 654 514 652
f 515 516 521
f 657 515 521
f 655 515 657
f 521 516 522
f 656 522 516
f 656 516 654
f 521 522 523
f 659 521 523
f 657 521 659
f 523 522 524
f 658 524 522
f 658 522 656
f 523 524 529
f 661 523 529
f 659 523 661
f 529 524 532
f 660 532 524
f 660 524 658
f 529 532 530
f 662 529 530
f 661 529 662
f 530 532 531
f 530 531 533
f 665 530 533
f 662 530 665
f 664 531 532
f 533 531 534
f 663 534 531
f 663 531 664
f 664 532 660
f 533 534 541
f 667 533 541
f 665 533 667
f 541 534 544
f 666 544 534
f 666 534 663
f 541 544 542
f 668 541 542
f 667 541 668
f 542 544 543
f 542 543 545
f 671 542 545
f 668 542 671
f 670 543 544
f 545 543 546
f 672 546 543
f 669 543 670
f 672 543 669
f 670 544 666
f 545 546 551
f 673 545 551
f 671 545 673
f 551 546 554
f 672 554 546
f 551 554 552
f 674 551 552
f 673 551 674
f 552 554 553
f 552 553 555
f 677 552 555
f 674 552 677
f 676 553 554
f 555 553 556
f 675 556 553
f 675 553 676
f 676 554 672
f 555 556 563
f 678 555 563
f 677 555 678
f 563 556 564
f 680 564 556
f 680 556 675
f 563 564 565
f 683 563 565
f 678 563 681
f 681 563 683
f 565 564 566
f 682 566 564
f 679 564 680
f 682 564 679
f 565 566 571
f 683 565 571
f 571 566 574
f 684 574 566
f 684 566 682
f 571 574 572
f 686 571 572
f 683 571 685
f 685 571 686
f 572 574 573
f 572 573 575
f 689 572 575
f 686 572 689
f 688 573 574
f 575 573 578
f 687 578 573
f 687 573 688
f 688 574 684
f 575 578 576
f 690 575 576
f 689 575 690
f 576 578 577
f 576 577 583
f 693 576 583
f 690 576 693
f 692 577 578
f 583 577 586
f 691 586 577
f 691 577 692
f 692 578 687
f 579 581 727
f 728 582 580
f 727 581 591
f 728 592 582
f 583 586 584
f 694 583 584
f 693 583 694
f 584 586 585
f 584 585 587
f 697 584 587
f 694 584 697
f 696 585 586
f 587 585 590
f 695 590 585
f 695 585 696
f 696 586 691
f 587 590 588
f 698 587 588
f 697 587 698
f 588 590 589
f 588 589 595
f 701 588 595
f 698 588 701
f 700 589 590
f 595 589 598
f 699 598 589
f 699 589 700
f 700 590 695
f 591 593 727
f 728 594 592
f 727 593 601
f 728 602 594
f 595 598 596
f 702 595 596
f 701 595 702
f 596 598 597
f 596 597 599
f 705 596 599
f 702 596 705
f 704 597 598
f 599 597 600
f 703 600 597
f 703 597 704
f 704 598 699
f 599 600 605
f 709 599 605
f 705 599 709
f 605 600 612
f 706 612 600
f 706 600 703
f 601 603 727
f 728 604 602
f 727 603 623
f 624 604 728
f 605 612 606
f 710 605 606
f 709 605 710
f 606 611 607
f 711 606 607
f 606 612 611
f 710 606 711
f 607 610 608
f 712 607 608
f 607 611 610
f 711 607 712
f 608 610 609
f 608 609 613
f 717 608 613
f 712 608 717
f 714 609 610
f 613 609 622
f 713 622 609
f 713 609 714
f 715 610 611
f 714 610 715
f 716 611 612
f 715 611 716
f 716 612 706
f 613 622 614
f 718 613 614
f 717 613 718
f 614 621 615
f 719 614 615
f 614 622 621
f 718 614 719
f 615 620 616
f 720 615 616
f 615 621 620
f 719 615 720
f 616 619 617
f 721 616 617
f 616 620 619
f 720 616 721
f 617 619 618
f 722 617 618
f 721 617 722
f 723 618 619
f 722 618 723
f 724 619 620
f 723 619 724
f 725 620 621
f 724 620 725
f 726 621 622
f 725 621 726
f 726 622 713
f 623 625 727
f 728 626 624
f 727 625 627
f 628 626 728
f 627 629 727
f 728 630 628
f 727 629 631
f 632 630 728
f 727 631 633
f 634 632 728
f 727 633 635
f 728 636 634
f 727 635 637
f 638 636 728
f 727 637 639
f 728 640 638
f 727 639 641
f 644 640 728
f 727 641 642
f 642 645 727
f 728 643 644
f 728 646 643
f 727 645 647
f 728 648 646
f 647 649 727
f 728 650 648
f 649 651 727
f 728 652 650
f 727 651 653
f 654 652 728
f 653 655 727
f 728 656 654
f 727 655 657
f 728 658 656
f 727 657 659
f 660 658 728
f 659 661 727
f 728 664 660
f 727 661 662
f 727 662 665
f 663 664 728
f 728 666 663
f 727 665 667
f 670 666 728
f 727 667 668
f 668 671 727
f 728 669 670
f 728 672 669
f 727 671 673
f 728 676 672
f 673 674 727
f 727 674 677
f 728 675 676
f 728 680 675
f 677 678 727
f 727 678 681
f 728 679 680
f 682 679 728
f 727 681 683
f 684 682 728
f 683 685 727
f 728 688 684
f 727 685 686
f 686 689 727
f 687 688 728
f 728 692 687
f 727 689 690
f 727 690 693
f 691 692 728
f 728 696 691
f 727 693 694
f 694 697 727
f 695 696 728
f 728 700 695
f 727 697 698
f 698 701 727
f 699 700 728
f 728 704 699
f 701 702 727
f 727 702 705
f 728 703 704
f 728 706 703
f 727 705 709
f 728 716 706
f 707 1066 708
f 1065 1066 707
f 732 708 1066
f 727 709 710
f 727 710 711
f 711 712 727
f 727 712 717
f 728 713 714
f 728 726 713
f 714 715 728
f 728 715 716
f 717 718 727
f 727 718 719
f 727 719 720
f 727 720 721
f 728 721 722
f 727 721 728
f 722 723 728
f 728 723 724
f 728 724 725
f 728 725 726
f 730 727 728
f 729 727 730
f 730 738 729
f 729 1063 731
f 729 734 733
f 729 733 750
f 735 734 729
f 736 735 729
f 737 736 729
f 729 738 737
f 729 750 749
f 729 749 758
f 758 757 729
f 729 757 766
f 729 766 765
f 729 765 774
f 774 773 729
f 729 773 781
f 729 781 786
f 729 786 785
f 785 793 729
f 793 797 729
f 729 797 801
f 729 801 989
f 989 1063 729
f 732 990 730
f 743 738 730
f 730 744 743
f 730 745 744
f 746 745 730
f 747 746 730
f 730 748 747
f 730 755 748
f 730 756 755
f 730 763 756
f 764 763 730
f 730 771 764
f 730 772 771
f 730 779 772
f 780 779 730
f 730 784 780
f 730 791 784
f 730 792 791
f 796 792 730
f 800 796 730
f 730 804 800
f 990 804 730
f 731 819 732
f 732 1066 731
f 731 809 810
f 826 809 731
f 810 811 731
f 811 812 731
f 812 813 731
f 731 813 814
f 814 819 731
f 731 825 826
f 842 825 731
f 841 842 731
f 850 841 731
f 731 849 850
f 731 865 849
f 869 865 731
f 731 881 869
f 731 885 881
f 901 885 731
f 905 901 731
f 1063 905 731
f 731 1066 1065
f 732 819 820
f 732 820 821
f 821 822 732
f 822 823 732
f 732 823 824
f 824 831 732
f 732 831 832
f 832 847 732
f 847 848 732
f 848 855 732
f 732 855 856
f 732 856 868
f 868 872 732
f 732 872 884
f 732 884 888
f 888 904 732
f 904 908 732
f 732 908 1064
f 1064 990 732
f 734 810 733
f 733 826 750
f 733 810 809
f 733 809 826
f 735 811 734
f 734 811 810
f 736 812 735
f 735 812 811
f 737 813 736
f 736 813 812
f 738 814 737
f 737 814 813
f 743 739 738
f 739 815 738
f 738 815 814
f 742 740 739
f 740 816 739
f 742 739 743
f 739 816 815
f 741 740 742
f 741 751 740
f 751 827 740
f 740 827 816
f 742 818 741
f 754 751 741
f 741 830 754
f 741 818 817
f 741 817 830
f 743 819 742
f 742 819 818
f 744 820 743
f 743 820 819
f 745 821 744
f 744 821 820
f 746 822 745
f 745 822 821
f 747 823 746
f 746 823 822
f 748 824 747
f 747 824 823
f 755 831 748
f 748 831 824
f 750 826 749
f 749 825 758
f 749 826 825
f 754 752 751
f 752 828 751
f 751 828 827
f 753 752 754
f 753 759 752
f 759 828 752
f 754 830 753
f 762 759 753
f 753 829 762
f 753 830 829
f 756 832 755
f 755 832 831
f 763 832 756
f 758 842 757
f 757 850 766
f 757 842 841
f 757 841 850
f 758 825 842
f 762 760 759
f 760 844 759
f 759 843 828
f 759 844 843
f 761 760 762
f 761 767 760
f 767 851 760
f 760 851 844
f 762 846 761
f 770 767 761
f 761 854 770
f 761 846 845
f 761 845 854
f 762 829 846
f 764 848 763
f 763 847 832
f 763 848 847
f 771 855 764
f 764 855 848
f 766 850 765
f 765 849 774
f 765 850 849
f 770 768 767
f 768 852 767
f 767 852 851
f 769 768 770
f 769 775 768
f 775 852 768
f 770 854 769
f 778 775 769
f 769 853 778
f 769 854 853
f 772 856 771
f 771 856 855
f 779 856 772
f 774 865 773
f 773 869 781
f 773 865 869
f 774 849 865
f 778 776 775
f 776 870 775
f 775 866 852
f 775 870 866
f 777 776 778
f 777 782 776
f 782 870 776
f 778 867 777
f 783 782 777
f 777 871 783
f 777 867 871
f 778 853 867
f 780 872 779
f 779 868 856
f 779 872 868
f 784 872 780
f 781 869 786
f 783 787 782
f 787 870 782
f 790 787 783
f 783 871 790
f 791 872 784
f 786 881 785
f 785 885 793
f 785 881 885
f 786 869 881
f 790 788 787
f 788 886 787
f 787 882 870
f 787 886 882
f 789 788 790
f 789 794 788
f 794 886 788
f 790 883 789
f 795 794 789
f 789 887 795
f 789 883 887
f 790 871 883
f 792 888 791
f 791 884 872
f 791 888 884
f 796 888 792
f 793 885 797
f 795 798 794
f 798 902 794
f 794 902 886
f 799 798 795
f 795 887 799
f 800 904 796
f 796 904 888
f 797 905 801
f 797 885 901
f 797 901 905
f 799 802 798
f 802 906 798
f 798 906 902
f 803 802 799
f 799 907 803
f 799 887 903
f 799 903 907
f 804 908 800
f 800 908 904
f 801 905 805
f 989 801 805
f 803 806 802
f 806 906 802
f 807 806 803
f 803 907 807
f 808 908 804
f 808 804 990
f 805 925 833
f 989 805 833
f 805 905 921
f 805 921 925
f 807 834 806
f 834 926 806
f 806 922 906
f 806 926 922
f 835 834 807
f 807 927 835
f 807 907 923
f 807 923 927
f 836 928 808
f 990 836 808
f 808 924 908
f 808 928 924
f 815 818 814
f 814 818 819
f 816 817 815
f 815 817 818
f 816 830 817
f 827 830 816
f 828 829 827
f 827 829 830
f 828 846 829
f 843 846 828
f 833 925 837
f 989 833 837
f 835 838 834
f 838 926 834
f 839 838 835
f 835 927 839
f 840 928 836
f 840 836 990
f 837 945 857
f 989 837 857
f 837 925 941
f 837 941 945
f 838 839 858
f 858 946 838
f 838 942 926
f 838 946 942
f 858 839 859
f 839 947 859
f 839 927 943
f 839 943 947
f 860 948 840
f 990 860 840
f 840 944 928
f 840 948 944
f 844 845 843
f 843 845 846
f 844 854 845
f 851 854 844
f 852 853 851
f 851 853 854
f 852 867 853
f 866 867 852
f 857 945 861
f 989 857 861
f 858 859 862
f 862 946 858
f 862 859 863
f 859 947 863
f 864 948 860
f 990 864 860
f 861 973 873
f 989 861 873
f 861 945 969
f 861 969 973
f 862 863 874
f 874 974 862
f 862 970 946
f 862 974 970
f 874 863 875
f 863 975 875
f 863 947 971
f 863 971 975
f 876 976 864
f 990 876 864
f 864 972 948
f 864 976 972
f 866 871 867
f 870 871 866
f 870 883 871
f 882 883 870
f 873 973 877
f 989 873 877
f 874 875 878
f 878 974 874
f 878 875 879
f 875 975 879
f 880 976 876
f 990 880 876
f 989 877 889
f 877 995 889
f 877 973 991
f 877 991 995
f 878 879 890
f 890 996 878
f 878 992 974
f 878 996 992
f 890 879 891
f 879 997 891
f 879 975 993
f 879 993 997
f 990 892 880
f 892 998 880
f 880 994 976
f 880 998 994
f 882 887 883
f 886 887 882
f 886 903 887
f 902 903 886
f 989 889 893
f 889 995 893
f 890 891 896
f 896 996 890
f 896 891 897
f 891 997 897
f 990 900 892
f 900 998 892
f 989 893 894
f 893 999 894
f 893 995 999
f 894 909 989
f 894 1007 909
f 894 999 1000
f 894 1000 1007
f 896 897 895
f 895 1001 896
f 895 897 898
f 895 898 910
f 910 1008 895
f 895 1008 1001
f 896 1002 996
f 896 1001 1002
f 897 1003 898
f 897 997 1003
f 910 898 911
f 898 1009 911
f 898 1003 1004
f 898 1004 1009
f 990 899 900
f 899 1005 900
f 912 899 990
f 912 1010 899
f 899 1010 1005
f 900 1006 998
f 900 1005 1006
f 902 907 903
f 906 907 902
f 1063 921 905
f 906 923 907
f 922 923 906
f 1064 908 924
f 909 913 989
f 909 1007 913
f 910 911 916
f 916 1008 910
f 916 911 917
f 911 1009 917
f 920 912 990
f 920 1010 912
f 913 914 989
f 913 1011 914
f 913 1007 1011
f 989 914 929
f 914 1019 929
f 914 1011 1012
f 914 1012 1019
f 916 917 915
f 915 1013 916
f 915 917 918
f 915 918 930
f 930 1020 915
f 915 1020 1013
f 916 1014 1008
f 916 1013 1014
f 917 1015 918
f 917 1009 1015
f 930 918 931
f 918 1021 931
f 918 1015 1016
f 918 1016 1021
f 919 920 990
f 919 1017 920
f 990 932 919
f 932 1022 919
f 919 1022 1017
f 920 1018 1010
f 920 1017 1018
f 1063 925 921
f 922 927 923
f 926 927 922
f 1064 924 928
f 1063 941 925
f 926 943 927
f 942 943 926
f 1064 928 944
f 989 929 933
f 929 1019 933
f 930 931 936
f 936 1020 930
f 936 931 937
f 931 1021 937
f 990 940 932
f 940 1022 932
f 989 933 934
f 933 1023 934
f 933 1019 1023
f 989 934 949
f 934 1031 949
f 934 1023 1024
f 934 1024 1031
f 936 937 935
f 935 1025 936
f 935 937 938
f 935 938 952
f 952 1034 935
f 935 1034 1025
f 936 1026 1020
f 936 1025 1026
f 937 1027 938
f 937 1021 1027
f 952 938 953
f 938 1035 953
f 938 1027 1028
f 938 1028 1035
f 990 939 940
f 939 1029 940
f 990 956 939
f 956 1038 939
f 939 1038 1029
f 940 1030 1022
f 940 1029 1030
f 1063 945 941
f 942 947 943
f 946 947 942
f 1064 944 948
f 1063 969 945
f 947 946 971
f 971 946 970
f 1064 948 972
f 949 950 989
f 949 1031 950
f 989 950 957
f 950 1032 957
f 950 1031 1032
f 952 953 951
f 951 1033 952
f 951 953 954
f 951 954 962
f 962 1033 951
f 952 1033 1034
f 953 1035 954
f 962 954 963
f 954 1036 963
f 954 1035 1036
f 955 956 990
f 955 1037 956
f 990 968 955
f 968 1037 955
f 956 1037 1038
f 989 957 958
f 957 1039 958
f 957 1032 1039
f 989 958 959
f 958 1040 959
f 958 1039 1040
f 989 959 977
f 959 1051 977
f 959 1040 1041
f 959 1041 1051
f 961 964 960
f 960 1042 961
f 960 964 965
f 960 965 982
f 982 1056 960
f 960 1056 1042
f 962 963 961
f 961 1043 962
f 961 963 964
f 961 1042 1043
f 962 1044 1033
f 962 1043 1044
f 963 1045 964
f 963 1036 1045
f 964 1046 965
f 964 1045 1046
f 982 965 983
f 965 1057 983
f 965 1046 1047
f 965 1047 1057
f 990 966 967
f 966 1048 967
f 990 988 966
f 988 1062 966
f 966 1062 1048
f 990 967 968
f 967 1049 968
f 967 1048 1049
f 968 1050 1037
f 968 1049 1050
f 1063 973 969
f 971 970 975
f 975 970 974
f 1064 972 976
f 1063 991 973
f 975 974 993
f 993 974 992
f 1064 976 994
f 977 978 989
f 977 1051 978
f 978 979 989
f 978 1052 979
f 978 1051 1052
f 979 980 989
f 979 1053 980
f 979 1052 1053
f 981 984 980
f 980 1054 981
f 980 984 985
f 980 985 989
f 980 1053 1054
f 982 983 981
f 981 1055 982
f 981 983 984
f 981 1054 1055
f 982 1055 1056
f 983 1057 984
f 984 1058 985
f 984 1057 1058
f 990 985 986
f 985 1059 986
f 989 985 990
f 985 1058 1059
f 986 987 990
f 986 1060 987
f 986 1059 1060
f 987 988 990
f 987 1061 988
f 987 1060 1061
f 988 1061 1062
f 990 1064 989
f 989 1064 1063
f 1063 995 991
f 993 992 997
f 997 992 996
f 1064 994 998
f 999 995 1063
f 997 996 1003
f 1003 996 1002
f 998 1006 1064
f 1063 1000 999
f 1063 1007 1000
f 1004 1002 1001
f 1004 1001 1009
f 1009 1001 1008
f 1003 1002 1004
f 1064 1006 1005
f 1064 1005 1010
f 1063 1011 1007
f 1009 1008 1015
f 1015 1008 1014
f 1064 1010 1018
f 1012 1011 1063
f 1063 1019 1012
f 1016 1014 1013
f 1016 1013 1021
f 1021 1013 1020
f 1015 1014 1016
f 1018 1017 1064
f 1064 1017 1022
f 1023 1019 1063
f 1021 1020 1027
f 1027 1020 1026
f 1022 1030 1064
f 1063 1024 1023
f 1063 1031 1024
f 1028 1026 1025
f 1028 1025 1035
f 1035 1025 1034
f 1027 1026 1028
f 1064 1030 1029
f 1064 1029 1038
f 1032 1031 1063
f 1039 1032 1063
f 1036 1034 1033
f 1036 1033 1045
f 1045 1033 1044
f 1035 1034 1036
f 1038 1037 1064
f 1037 1050 1064
f 1063 1040 1039
f 1063 1041 1040
f 1063 1051 1041
f 1047 1043 1042
f 1047 1042 1057
f 1057 1042 1056
f 1046 1044 1043
f 1046 1043 1047
f 1045 1044 1046
f 1064 1049 1048
f 1064 1048 1062
f 1064 1050 1049
f 1052 1051 1063
f 1053 1052 1063
f 1054 1053 1063
f 1059 1055 1054
f 1059 1054 1064
f 1064 1054 1063
f 1058 1056 1055
f 1058 1055 1059
f 1057 1056 1058
f 1064 1060 1059
f 1061 1060 1064
f 1062 1061 1064
